<svg xmlns="http://www.w3.org/2000/svg" viewBox="0 0 55.01 60.09"><g id="Layer_2" data-name="Layer 2"><g id="anchor-1"><path id="void" d="M55,30.42a2.42,2.42,0,0,0-.31-.57c-.37-.51-.82-1-1.21-1.46-.62-.77-1.12-1.63-1.68-2.44A25.6,25.6,0,0,1,50,23c-.07-.14-.24-.22-.35-.34s-.22,0-.23.08c0,.31-.08.63-.11.95,0,.17,0,.34,0,.5A15.32,15.32,0,0,0,49,26a7.82,7.82,0,0,1-.42,1.93,13.08,13.08,0,0,1-1.3,2.91c-.17.3-.34.59-.48.9s0,.39.3.36a.53.53,0,0,0,.18,0c.52-.32,1-.65,1.56-1a4.45,4.45,0,0,1,.82-.3s.08,0,.12.05-.05.07-.07.07c-.29.05-.2.27-.23.45s-.16.51-.19.77a7.93,7.93,0,0,1-.53,1.58,5.11,5.11,0,0,1-.22.66,2.82,2.82,0,0,1-.42.62c-.5.58-1,1.16-1.52,1.72S45.5,37.84,45,38.39a5,5,0,0,1-1.16.82c-.42.23-.88.39-1.3.61a4.35,4.35,0,0,1-1.39.37,2.18,2.18,0,0,1-1.79-.5.5.5,0,0,0-.21-.09,1.91,1.91,0,0,1-1-.52c-.63-.69-1.24-1.39-1.88-2.07-1.19-1.24-2.4-2.47-3.63-3.73-.16-.2-.3-.38-.45-.55a6,6,0,0,1-.66-.68,7.89,7.89,0,0,0-1.21-1.49,2.09,2.09,0,0,1-.2-.22L28.63,28.5a12.64,12.64,0,0,1-1-1.1,14.35,14.35,0,0,0-1.88-2.16c-.52-.54-1-1.1-1.55-1.65l-.11-.11c-.45-.55-.89-1.1-1.34-1.64-.16-.19-.37-.35-.53-.53-.62-.71-1.21-1.44-1.85-2.13-.32-.36-.72-.66-1.07-1-1.08-1-2.07-2.13-3-3.24-.3-.35-.62-.67-.92-1-.51-.6-1-1.23-1.52-1.82a4.88,4.88,0,0,1-1.27-2.17,2.15,2.15,0,0,1-.15-.88,6.46,6.46,0,0,0,.07-1.16,2.1,2.1,0,0,1,0-.44,9.77,9.77,0,0,0,.09-1.87,11.75,11.75,0,0,0-1.5-3.33A7,7,0,0,0,9.37.55,1.51,1.51,0,0,0,9.08.42,11.64,11.64,0,0,0,7.66.1,3.78,3.78,0,0,0,5.4.28a8.62,8.62,0,0,0-2,.94,12.55,12.55,0,0,0-1.17.9,10.91,10.91,0,0,0-.86,1A5,5,0,0,0,.3,5.34,11.73,11.73,0,0,0,.05,6.63c0,.71,0,1.42,0,2.14l0,0a11.78,11.78,0,0,0,.57,1.31,4.13,4.13,0,0,0,1.32,1.61,5.68,5.68,0,0,0,3.24,1c.47,0,.94-.08,1.41-.09.65,0,1.3,0,1.95,0a1.54,1.54,0,0,1,1.22.63c.62.93,1.41,1.73,2.08,2.63.52.68,1.13,1.3,1.72,1.93.76.81,1.53,1.61,2.3,2.4.27.29.57.56.84.85s.25.34.4.49c.33.35.7.66,1,1,.71.88,1.39,1.79,2.1,2.67.27.34.6.65.88,1s.63.89,1,1.28c1.24,1.31,2.52,2.59,3.77,3.89.55.58,1.08,1.18,1.59,1.79.68.83,1.35,1.67,2,2.51.33.41.64.84,1,1.26.53.66,1.05,1.33,1.59,2,.27.33.57.63.85,1,.44.53.85,1.08,1.31,1.6a2.76,2.76,0,0,1,.56.87A2.07,2.07,0,0,1,35,43.61a4.29,4.29,0,0,0-.08.71c0,.42,0,.84-.11,1.26a3.93,3.93,0,0,1-.19.67,10.33,10.33,0,0,1-.51,1.48A7.65,7.65,0,0,1,32.61,50a8.46,8.46,0,0,0-1.11,1.13,3.79,3.79,0,0,1-1.32,1,11.28,11.28,0,0,0-1.14.61,6.16,6.16,0,0,1-2.69.88,2.75,2.75,0,0,1-1.06-.08,8.65,8.65,0,0,1-1.94-.5c-.09,0-.27.07-.25-.13a.55.55,0,0,1,.15-.28,2.56,2.56,0,0,1,.26-.2,3.23,3.23,0,0,0,.63-.52A13.72,13.72,0,0,0,25,50.73a.43.43,0,0,0,0-.33c-.08-.15-.23-.15-.37,0a.64.64,0,0,1-.2.11,9.89,9.89,0,0,1-3.79,1.12h-.14c-.38.06-.75.15-1.13.18s-.8,0-1.19,0a7.34,7.34,0,0,1-1.15,0,6,6,0,0,0-1.12,0c-.29,0-.34.07-.35.34a.74.74,0,0,0,.4.66,6.59,6.59,0,0,1,1,.57c.89.74,1.75,1.51,2.6,2.29.37.35.69.75,1,1.12l1,1.1a5.39,5.39,0,0,1,.47.6c.34.51.66,1,1,1.53,0,.06.19.07.29.08s.09-.11.1-.17a6,6,0,0,0-.21-2.07c-.15-.59-.36-1.17-.55-1.76-.06-.2,0-.23.21-.2s.6.06.9.11l1,.17c.52.08,1,.16,1.55.22a5.91,5.91,0,0,0,.84,0,8.64,8.64,0,0,0,.88,0,10.4,10.4,0,0,0,1.11-.1c.53-.08,1-.24,1.57-.28a6.61,6.61,0,0,0,1.48-.32A15.7,15.7,0,0,0,34,55a13,13,0,0,0,1.24-.73c.3-.17.6-.33.89-.52a8.17,8.17,0,0,0,.85-.6c.26-.21.5-.45.76-.67s.52-.5.81-.71c.54-.37,1.12-.68,1.65-1.07a3.2,3.2,0,0,1,1.53-.53,3.64,3.64,0,0,1,1.69.26,5.91,5.91,0,0,0,2,.46c.27,0,.33,0,.31-.26a10.17,10.17,0,0,0-.1-1.11c-.15-.7-.33-1.39-.5-2.09-.11-.51.07-1,0-1.52,0,0,0,0,0,0a5.07,5.07,0,0,1,.86-1.8c.46-.52.65-1.26,1.28-1.65.06,0,.08-.1.12-.15.15-.21.29-.43.45-.62a18.33,18.33,0,0,0,1.68-1.84c.31-.46.73-.86,1-1.35a6.45,6.45,0,0,0,.56-1.26c.18-.62.31-1.25.43-1.88a19.78,19.78,0,0,0,.27-2,11.76,11.76,0,0,0-.09-1.56c0-.33,0-.67-.1-1s0-.45.28-.58a2.64,2.64,0,0,1,1.5.06,1.39,1.39,0,0,1,.87.33c.12.11.36.1.55.11S55.06,30.65,55,30.42ZM3.58,5.35c.23-.15.35-.47.52-.72.06-.09.13-.17.2-.26a2.19,2.19,0,0,1,1.76-.75,7.48,7.48,0,0,1,.83,0A3,3,0,0,1,9,5.14,2.46,2.46,0,0,1,9,7.51a2.51,2.51,0,0,1-.7,1.1,3,3,0,0,1-2,.81,3.71,3.71,0,0,1-1.27-.2A2.48,2.48,0,0,1,3.4,7.15c0-.39-.08-.77-.1-1.16A.62.62,0,0,1,3.58,5.35Z" style="fill:#fff"/><path id="fill2" d="M55,30.42a2.42,2.42,0,0,0-.31-.57c-.37-.51-.82-1-1.21-1.46-.62-.77-1.12-1.63-1.68-2.44A25.6,25.6,0,0,1,50,23c-.07-.14-.24-.22-.35-.34s-.22,0-.23.08c0,.31-.08.63-.11.95,0,.17,0,.34,0,.5A15.32,15.32,0,0,0,49,26a7.82,7.82,0,0,1-.42,1.93,13.08,13.08,0,0,1-1.3,2.91c-.17.3-.34.59-.48.9s0,.39.3.36a.53.53,0,0,0,.18,0c.52-.32,1-.65,1.56-1a4.45,4.45,0,0,1,.82-.3s.08,0,.12.05-.05.07-.07.07c-.29.05-.2.27-.23.45s-.16.51-.19.77a7.93,7.93,0,0,1-.53,1.58,5.11,5.11,0,0,1-.22.66,2.82,2.82,0,0,1-.42.62c-.5.58-1,1.16-1.52,1.72S45.5,37.84,45,38.39a5,5,0,0,1-1.16.82c-.42.23-.88.39-1.3.61a4.35,4.35,0,0,1-1.39.37,2.18,2.18,0,0,1-1.79-.5.5.5,0,0,0-.21-.09,1.91,1.91,0,0,1-1-.52c-.63-.69-1.24-1.39-1.88-2.07-1.19-1.24-2.4-2.47-3.63-3.73-.16-.2-.3-.38-.45-.55a6,6,0,0,1-.66-.68,7.89,7.89,0,0,0-1.21-1.49,2.09,2.09,0,0,1-.2-.22L28.63,28.5a12.64,12.64,0,0,1-1-1.1,14.35,14.35,0,0,0-1.88-2.16c-.52-.54-1-1.1-1.55-1.65l-.11-.11c-.45-.55-.89-1.1-1.34-1.64-.16-.19-.37-.35-.53-.53-.62-.71-1.21-1.44-1.85-2.13-.32-.36-.72-.66-1.07-1-1.08-1-2.07-2.13-3-3.24-.3-.35-.62-.67-.92-1-.51-.6-1-1.23-1.52-1.82a4.88,4.88,0,0,1-1.27-2.17,2.15,2.15,0,0,1-.15-.88,6.46,6.46,0,0,0,.07-1.16,2.1,2.1,0,0,1,0-.44,9.77,9.77,0,0,0,.09-1.87,11.75,11.75,0,0,0-1.5-3.33A7,7,0,0,0,9.37.55,1.51,1.51,0,0,0,9.08.42,11.64,11.64,0,0,0,7.66.1,3.78,3.78,0,0,0,5.4.28a8.62,8.62,0,0,0-2,.94,12.55,12.55,0,0,0-1.17.9,10.91,10.91,0,0,0-.86,1A5,5,0,0,0,.3,5.34,11.73,11.73,0,0,0,.05,6.63c0,.71,0,1.42,0,2.14l0,0a11.78,11.78,0,0,0,.57,1.31,4.13,4.13,0,0,0,1.32,1.61,5.68,5.68,0,0,0,3.24,1c.47,0,.94-.08,1.41-.09.65,0,1.3,0,1.95,0a1.54,1.54,0,0,1,1.22.63c.62.93,1.41,1.73,2.08,2.63.52.68,1.13,1.3,1.72,1.93.76.81,1.53,1.61,2.3,2.4.27.29.57.56.84.85s.25.34.4.49c.33.35.7.66,1,1,.71.88,1.39,1.79,2.1,2.67.27.34.6.65.88,1s.63.89,1,1.28c1.24,1.31,2.52,2.59,3.77,3.89.55.58,1.08,1.18,1.59,1.79.68.83,1.35,1.67,2,2.51.33.41.64.84,1,1.26.53.66,1.05,1.33,1.59,2,.27.33.57.63.85,1,.44.53.85,1.08,1.31,1.6a2.76,2.76,0,0,1,.56.87A2.07,2.07,0,0,1,35,43.61a4.29,4.29,0,0,0-.08.71c0,.42,0,.84-.11,1.26a3.93,3.93,0,0,1-.19.67,10.33,10.33,0,0,1-.51,1.48A7.65,7.65,0,0,1,32.61,50a8.46,8.46,0,0,0-1.11,1.13,3.79,3.79,0,0,1-1.32,1,11.28,11.28,0,0,0-1.14.61,6.16,6.16,0,0,1-2.69.88,2.75,2.75,0,0,1-1.06-.08,8.65,8.65,0,0,1-1.94-.5c-.09,0-.27.07-.25-.13a.55.55,0,0,1,.15-.28,2.56,2.56,0,0,1,.26-.2,3.23,3.23,0,0,0,.63-.52A13.72,13.72,0,0,0,25,50.73a.43.43,0,0,0,0-.33c-.08-.15-.23-.15-.37,0a.64.64,0,0,1-.2.11,9.89,9.89,0,0,1-3.79,1.12h-.14c-.38.06-.75.15-1.13.18s-.8,0-1.19,0a7.34,7.34,0,0,1-1.15,0,6,6,0,0,0-1.12,0c-.29,0-.34.07-.35.34a.74.74,0,0,0,.4.66,6.59,6.59,0,0,1,1,.57c.89.74,1.75,1.51,2.6,2.29.37.35.69.75,1,1.12l1,1.1a5.39,5.39,0,0,1,.47.6c.34.51.66,1,1,1.53,0,.06.19.07.29.08s.09-.11.1-.17a6,6,0,0,0-.21-2.07c-.15-.59-.36-1.17-.55-1.76-.06-.2,0-.23.21-.2s.6.06.9.11l1,.17c.52.08,1,.16,1.55.22a5.91,5.91,0,0,0,.84,0,8.64,8.64,0,0,0,.88,0,10.4,10.4,0,0,0,1.11-.1c.53-.08,1-.24,1.57-.28a6.61,6.61,0,0,0,1.48-.32A15.7,15.7,0,0,0,34,55a13,13,0,0,0,1.24-.73c.3-.17.6-.33.89-.52a8.17,8.17,0,0,0,.85-.6c.26-.21.5-.45.76-.67s.52-.5.81-.71c.54-.37,1.12-.68,1.65-1.07a3.2,3.2,0,0,1,1.53-.53,3.64,3.64,0,0,1,1.69.26,5.91,5.91,0,0,0,2,.46c.27,0,.33,0,.31-.26a10.17,10.17,0,0,0-.1-1.11c-.15-.7-.33-1.39-.5-2.09-.11-.51.07-1,0-1.52,0,0,0,0,0,0a5.07,5.07,0,0,1,.86-1.8c.46-.52.65-1.26,1.28-1.65.06,0,.08-.1.12-.15.15-.21.29-.43.45-.62a18.33,18.33,0,0,0,1.68-1.84c.31-.46.73-.86,1-1.35a6.45,6.45,0,0,0,.56-1.26c.18-.62.31-1.25.43-1.88a19.78,19.78,0,0,0,.27-2,11.76,11.76,0,0,0-.09-1.56c0-.33,0-.67-.1-1s0-.45.28-.58a2.64,2.64,0,0,1,1.5.06,1.39,1.39,0,0,1,.87.33c.12.11.36.1.55.11S55.06,30.65,55,30.42ZM3.58,5.35c.23-.15.35-.47.52-.72.06-.09.13-.17.2-.26a2.19,2.19,0,0,1,1.76-.75,7.48,7.48,0,0,1,.83,0A3,3,0,0,1,9,5.14,2.46,2.46,0,0,1,9,7.51a2.51,2.51,0,0,1-.7,1.1,3,3,0,0,1-2,.81,3.71,3.71,0,0,1-1.27-.2A2.48,2.48,0,0,1,3.4,7.15c0-.39-.08-.77-.1-1.16A.62.62,0,0,1,3.58,5.35Z" style="fill:#a8a8a8"/><path id="fill1" d="M32.61,33.28c1.23,1.26,2.44,2.48,3.63,3.73.64.67,1.25,1.38,1.88,2.07a1.91,1.91,0,0,0,1,.52.66.66,0,0,1,.21.08,2.14,2.14,0,0,0,1.79.5,3.88,3.88,0,0,0,1.39-.37c.42-.22.88-.37,1.3-.6A5.29,5.29,0,0,0,45,38.39c.55-.56,1.12-1.1,1.65-1.67s1-1.13,1.52-1.71a2.66,2.66,0,0,0,.42-.63,5,5,0,0,0,.22-.65,8.15,8.15,0,0,0,.53-1.58c0-.26.14-.51.19-.77s-.06-.41.23-.45c0,0,0-.05.07-.07s-.09-.06-.12-.05a4.45,4.45,0,0,0-.82.3c-.53.29-1,.63-1.56.94a.53.53,0,0,1-.18.05c-.3,0-.42-.1-.3-.35a9.67,9.67,0,0,1,.48-.9,13.08,13.08,0,0,0,1.3-2.91A8,8,0,0,0,49,26a15.49,15.49,0,0,1,.28-1.77c0-.17,0-.34,0-.5,0-.32.06-.64.11-1,0-.05.08-.25.23-.08s.28.21.35.35a25.47,25.47,0,0,0,1.8,2.9c.56.82,1.06,1.68,1.68,2.45.39.49.84.94,1.21,1.45a2.63,2.63,0,0,1,.31.57c.09.23,0,.31-.2.29s-.42,0-.54-.12a1.44,1.44,0,0,0-.87-.32,2.55,2.55,0,0,0-1.5-.06c-.28.13-.34.22-.28.57s.07.67.1,1a11.66,11.66,0,0,1,.09,1.56,20.16,20.16,0,0,1-.27,2c-.12.63-.25,1.26-.43,1.87a6.54,6.54,0,0,1-.56,1.27,16.66,16.66,0,0,1-1,1.34,17.41,17.41,0,0,1-1.68,1.85c-.16.19-.3.41-.45.61,0,0-.06.12-.12.15-.63.4-.82,1.13-1.28,1.66a5,5,0,0,0-.86,1.79s0,0,0,0c.07.5-.11,1,0,1.51.17.7.35,1.4.5,2.1a10.17,10.17,0,0,1,.1,1.11c0,.23,0,.24-.31.25a5.46,5.46,0,0,1-2-.46,3.77,3.77,0,0,0-1.69-.25,3.2,3.2,0,0,0-1.53.53c-.53.39-1.11.7-1.65,1.07a8.82,8.82,0,0,0-.81.7c-.26.23-.5.47-.76.68a10,10,0,0,1-.85.6c-.29.19-.59.34-.89.52s-.81.53-1.24.73a18,18,0,0,1-1.73.65,6.61,6.61,0,0,1-1.48.32c-.53,0-1,.2-1.57.28a10.4,10.4,0,0,1-1.11.1l-.88,0a7.87,7.87,0,0,1-.84,0c-.52-.06-1-.14-1.55-.22-.33-.05-.65-.13-1-.17s-.6-.07-.9-.11-.27,0-.21.19c.19.59.4,1.17.55,1.77a6,6,0,0,1,.21,2.07c0,.06-.07.16-.1.16s-.25,0-.29-.08c-.35-.5-.67-1-1-1.52a4.71,4.71,0,0,0-.47-.61l-1-1.09c-.34-.37-.66-.78-1-1.12-.85-.78-1.71-1.55-2.6-2.29a5.89,5.89,0,0,0-1-.58.71.71,0,0,1-.4-.65c0-.28.06-.34.35-.34a7,7,0,0,1,1.12,0,7.34,7.34,0,0,0,1.15,0c.39,0,.8,0,1.19,0s.75-.12,1.13-.18h.14a10.07,10.07,0,0,0,3.79-1.12.64.64,0,0,0,.2-.11c.14-.12.29-.12.37,0a.43.43,0,0,1,0,.33c-.27.42-.54.85-.85,1.25a2.87,2.87,0,0,1-.63.51,2.56,2.56,0,0,0-.26.2.58.58,0,0,0-.15.29c0,.2.16.08.25.12a7.7,7.7,0,0,0,1.94.5,2.57,2.57,0,0,0,1.06.08A6,6,0,0,0,29,52.81c.35-.25.76-.4,1.14-.62a3.65,3.65,0,0,0,1.32-1A8.53,8.53,0,0,1,32.61,50a7.6,7.6,0,0,0,1.47-2.29,10.9,10.9,0,0,0,.51-1.49,3.93,3.93,0,0,0,.19-.67c.06-.41.07-.83.11-1.25A4.53,4.53,0,0,1,35,43.6a2.09,2.09,0,0,0-.26-1.23,3,3,0,0,0-.56-.87c-.46-.51-.87-1.07-1.31-1.6-.28-.32-.58-.62-.85-.95-.54-.66-1.06-1.32-1.59-2-.32-.41-.63-.84-1-1.25-.66-.84-1.33-1.69-2-2.51-.51-.62-1-1.22-1.59-1.79-1.25-1.31-2.53-2.58-3.77-3.89-.37-.39-.66-.87-1-1.28s-.61-.65-.88-1c-.71-.89-1.39-1.8-2.1-2.68-.3-.37-.67-.68-1-1-.15-.15-.26-.33-.4-.48s-.57-.56-.84-.85c-.77-.8-1.54-1.59-2.3-2.4a24.32,24.32,0,0,1-1.72-1.94c-.67-.89-1.46-1.69-2.08-2.63a1.56,1.56,0,0,0-1.22-.62c-.65,0-1.3,0-1.95,0-.47,0-.94.09-1.41.1a5.69,5.69,0,0,1-3.24-1,4.1,4.1,0,0,1-1.32-1.6A12.65,12.65,0,0,1,0,8.8s0,0,0,0c0-.71,0-1.42.05-2.13A11.3,11.3,0,0,1,.3,5.34,4.86,4.86,0,0,1,1.41,3.15a12.5,12.5,0,0,1,.86-1,14.42,14.42,0,0,1,1.17-.89,8.22,8.22,0,0,1,2-.94A3.78,3.78,0,0,1,7.66.1,11.64,11.64,0,0,1,9.08.42a1.08,1.08,0,0,1,.29.13A7,7,0,0,1,11.1,2.26a11.75,11.75,0,0,1,1.5,3.33,9.63,9.63,0,0,1-.09,1.86,2.23,2.23,0,0,0,0,.45,6.51,6.51,0,0,1-.07,1.16,2.1,2.1,0,0,0,.15.87,5,5,0,0,0,1.27,2.18c.52.59,1,1.21,1.52,1.81.3.35.62.68.92,1a44.29,44.29,0,0,0,3,3.24c.35.34.75.63,1.07,1,.64.7,1.23,1.42,1.85,2.13.16.19.37.35.53.54.45.54.89,1.09,1.34,1.64l.11.1,1.55,1.66a14.35,14.35,0,0,1,1.88,2.16,14.3,14.3,0,0,0,1,1.1c.49.6,1,1.22,1.46,1.84a2,2,0,0,0,.2.21,8,8,0,0,1,1.21,1.5,6,6,0,0,0,.66.68c.15.16.29.35.45.55M20.29,25h.1a.19.19,0,0,1-.1-.1H20.2a.21.21,0,0,1,.09.11M11.2,3h.09a.21.21,0,0,1-.09-.11l0-.12-.07,0a.73.73,0,0,1,.1.2M49.68,39.05h.09a.21.21,0,0,1-.09-.11.42.42,0,0,0,.09-.57,2.73,2.73,0,0,1-.19-1.32.27.27,0,0,1,.07-.14.61.61,0,0,1,0,.13,3.35,3.35,0,0,0,.3,1.32.45.45,0,0,0,.11.13s.09-.09.09-.13-.06-.34-.09-.51a5.26,5.26,0,0,1-.21-1.52l0-.13s.12.07.14.13a.93.93,0,0,1,0,.29,2.71,2.71,0,0,0,.2,1.16,1.21,1.21,0,0,0,.14.2l.06-.2a3,3,0,0,0,.08-.32,1.55,1.55,0,0,0,0-.67,3.84,3.84,0,0,1-.23-1.25.85.85,0,0,1,0-.23l.06.24c0,.2.05.41.11.61a3.16,3.16,0,0,0,.22.5s.11,0,.17,0c-.24-.24,0-.53-.08-.79s-.21-.81-.31-1.21c0,0,0-.11.06-.16a.69.69,0,0,1,.13.11s0,.06,0,.09a6,6,0,0,0,.11.61c0,.07.09.13.14.19a.61.61,0,0,0,0-.18,2.07,2.07,0,0,0-.09-.81,4,4,0,0,1-.21-.86s0-.09,0-.13l.07.14c.12.28.23.57.35.85a.3.3,0,0,0,.11.07.61.61,0,0,0,0-.13,3.06,3.06,0,0,1-.1-.41c0-.87-.07-1.74-.1-2.61v-.1c0-.39-.38-.78,0-1.18,0,0-.07-.07-.09-.11l-.5-1.29c-.1-.26-.21-.51-.29-.78,0-.07,0-.17.05-.26,0,.08.12.16.13.24a5,5,0,0,0,.71,1.71,1.14,1.14,0,0,0,.25.24s.08,0,.13,0a.33.33,0,0,1-.06-.1c-.22-.58-.43-1.16-.64-1.74a1.17,1.17,0,0,1,0-.2A1.09,1.09,0,0,1,51,28a.45.45,0,0,1,.1.21c0,.48.34.82.51,1.24,0,.12.22.2.35.29s.1,0,.12,0a.12.12,0,0,0,0-.13c-.12-.2-.27-.38-.38-.59a1.8,1.8,0,0,1-.34-1.14c.16.37.31.74.5,1.09a4.68,4.68,0,0,0,.53.73c0,.06.17.06.26.08a1.86,1.86,0,0,0-.1-.2c-.07-.12-.17-.22-.24-.35A9.28,9.28,0,0,1,51.73,28c.32.49.64,1,1,1.47a1.07,1.07,0,0,0,.25.22,2.06,2.06,0,0,0-.07-.29c-.06-.13-.16-.24-.22-.37s-.21-.47-.32-.71c0,0,0-.07,0-.11s.12,0,.13,0a.63.63,0,0,1,.13.24,2.72,2.72,0,0,0,.63,1.09c.06.1.22.14.34.21a3,3,0,0,1-.15-.31s0-.09,0-.13a.54.54,0,0,1,.13.07c.2.22.38.45.58.66,0,0,.08,0,.13,0s0-.13,0-.16q-.36-.43-.75-.84c-.1-.12-.28-.17-.37-.29-.33-.45-.65-.9-1-1.36-.47-.72-.93-1.45-1.39-2.17A4.62,4.62,0,0,1,50,23.76c0-.06-.08-.1-.13-.15s-.14.15-.15.22c0,.42-.07.84-.11,1.26a4.94,4.94,0,0,1-.12,1.1c-.08.27,0,.52-.09.76a13.63,13.63,0,0,1-.5,1.65,9.09,9.09,0,0,1-1.33,2.59,1.09,1.09,0,0,0,0,.17c.07,0,.16,0,.21,0a7.68,7.68,0,0,1,1.44-.85,2.45,2.45,0,0,0,.43-.31c.07,0,.07-.24.25-.09s.27.09.26.28a1,1,0,0,1,0,.3,3.89,3.89,0,0,0-.2,1.07,3.47,3.47,0,0,1-.15.78,11.38,11.38,0,0,1-.45,1.32,9.83,9.83,0,0,1-.76,1.48,19.13,19.13,0,0,1-1.58,1.78c-.38.44-.82.82-1.23,1.24A7.84,7.84,0,0,1,43.3,40a8.84,8.84,0,0,1-2.12.66,2.08,2.08,0,0,1-1-.07c-.74-.23-1.38-.68-2.12-.91a.48.48,0,0,1-.18-.17,23.83,23.83,0,0,0-1.69-1.79c-.25-.25-.46-.54-.71-.8-.41-.43-.82-.86-1.27-1.26a23.85,23.85,0,0,0-1.68-1.8c-.06-.05-.08-.13-.13-.19l-.83-1c-.08-.1-.19-.18-.27-.28l-1.17-1.36a3.19,3.19,0,0,1-.31-.33,22.65,22.65,0,0,0-2.2-2.69c-.08-.09-.14-.2-.22-.3-.3-.38-.58-.77-.91-1.12A33.83,33.83,0,0,1,24,23.94c-.56-.71-1.17-1.39-1.77-2.07s-1.38-1.53-2.08-2.28c-.33-.34-.71-.63-1.05-1a33.58,33.58,0,0,1-2.37-2.55c-.68-.82-1.43-1.58-2.15-2.37a2,2,0,0,1-.25-.25,12.57,12.57,0,0,0-1.07-1.34,5.29,5.29,0,0,1-1.13-1.94,1.78,1.78,0,0,1-.19-.62c0-.52.05-1,.09-1.55,0,0,0,0,0,0,.2-.31,0-.65.1-1a2,2,0,0,0,0-.92,8.7,8.7,0,0,0-.79-2.37A9,9,0,0,0,10.19,2,3.05,3.05,0,0,0,8.5.77,2.43,2.43,0,0,1,8,.69,4.75,4.75,0,0,0,6.16.52a2,2,0,0,0-.67.2c-.51.22-1,.44-1.51.7A5.23,5.23,0,0,0,2.47,2.6c-.28.32-.55.67-.81,1A3.93,3.93,0,0,0,.8,5.4c0,.08.07.17.13.22s.2,0,.1.24a1.75,1.75,0,0,0-.22.8c0,1,0,1.91.09,2.86A1.12,1.12,0,0,0,1,9.87c0,.06.09.09.13.14s.06-.13.05-.18a9.21,9.21,0,0,1-.1-2c0-.35,0-.7,0-1,0,0,.07-.07.11-.11s.07.07.08.1,0,.2,0,.3a5.4,5.4,0,0,0,0,.9c.05.27-.13.49,0,.78a2.92,2.92,0,0,1,0,.89c0,.2.06.41.1.61,0,0,0,.08.05.12a1.12,1.12,0,0,0,.05-.13c.07-.38-.12-.75,0-1.12-.27-.36,0-.71,0-1.07,0,0,.07-.05.1-.08s.1.09.09.13c0,.22-.08.44-.09.66a10.86,10.86,0,0,0,.08,1.61,1.82,1.82,0,0,0,.3.73l.07.07a.35.35,0,0,0,.05-.13c-.05-.26-.13-.52-.16-.78s0-.62,0-.93c0,0,.08-.1.13-.15a.58.58,0,0,1,.06.15A4.49,4.49,0,0,0,2.3,11a2,2,0,0,0,.2.42s.12.08.17.13.05-.18,0-.24A4,4,0,0,1,2.34,9.9c0-.06,0-.13.06-.2a.59.59,0,0,0,0-.08l.06.06c0,.27,0,.54.1.8s.19.69.3,1a.66.66,0,0,0,.18.23s.07,0,.1,0,0-.1,0-.14-.12-.15-.14-.24c-.09-.36-.17-.73-.23-1.1,0-.05.09-.12.14-.19a.61.61,0,0,1,0,.18c-.08.53.31,1,.31,1.47,0,.06.11.12.17.18l.1,0a.44.44,0,0,0,0-.1.49.49,0,0,0-.06-.17c-.11-.31-.23-.61-.33-.91,0-.05,0-.13.08-.19a.6.6,0,0,1,.11.12c.07.22.12.45.2.67a1.66,1.66,0,0,0,.52.78.3.3,0,0,0,.14,0,.38.38,0,0,0,0-.1c-.16-.33-.33-.66-.48-1a.52.52,0,0,1,0-.3s0-.05.06-.07.07.06.07.09c0,.31.2.55.29.83s.38.65.85.56a1.33,1.33,0,0,1,.2,0c.31,0,.31,0,.18-.33a2.91,2.91,0,0,1-.12-.51.58.58,0,0,1,.06-.15s.11.09.13.15,0,.14,0,.19a3.92,3.92,0,0,0,.29.58c0,.06.17,0,.26.07A1.48,1.48,0,0,0,6,12c-.08-.27-.17-.53-.24-.8,0-.06,0-.12,0-.18s.12.07.14.13c.09.24.16.5.25.74A.54.54,0,0,0,7,12.2c.25-.1.07-.37.09-.56,0,0-.07,0-.06-.07a.53.53,0,0,1,0-.16s.12.05.13.09a3.85,3.85,0,0,1,.2.57c.08.29.3.08.44.14a1.46,1.46,0,0,0,0-.29c0-.24-.11-.46-.15-.69,0-.07.07-.15.11-.22a1.63,1.63,0,0,1,.09.19c.08.3.15.6.25.9,0,.05.12.07.19.11a1.33,1.33,0,0,0,0-.2c0-.27-.1-.53-.14-.79,0,0,.08-.07.12-.11s.07.06.07.1c.08.32.15.64.2,1s.1.08.16,0c.23-.2.06-.47,0-.64a2.06,2.06,0,0,1,0-1.18c0-.09,0-.22.15-.17s.08.16.05.22a2.35,2.35,0,0,0,.11,1.67c0,.12.16.2.25.3h.1s0-.05,0-.07c0-.32,0-.64-.07-1a1.88,1.88,0,0,1,.07-.68c0-.06,0-.12.07-.17s.06.11.05.16a4,4,0,0,0,0,1.43,1.23,1.23,0,0,0,.29.62,1,1,0,0,0,.21.14c0-.09,0-.18,0-.27,0-.31,0-.62,0-.93,0-.05.09-.1.13-.14a.35.35,0,0,1,.06.14c0,.21,0,.43,0,.65a2.29,2.29,0,0,0,.5,1.49l.07.08s0-.06,0-.09a1.13,1.13,0,0,0,0-.18c-.08-.45-.3-.89-.06-1.34l.06-.16,0,.13c0,.49.06,1,.1,1.46A.93.93,0,0,0,11,14c0,.11.1.23.14.34,0-.13.09-.28,0-.37A2.21,2.21,0,0,1,11.1,13c0-.07.07-.14.11-.21s.08.13.08.19c0,.24,0,.47,0,.7a2.34,2.34,0,0,0,.42,1.38.55.55,0,0,0,.14.12.63.63,0,0,0,0-.19c0-.32-.08-.63-.09-.95a.91.91,0,0,1,.14-.34A1.67,1.67,0,0,1,12,14a2.87,2.87,0,0,0,.44,1.87.51.51,0,0,1,.07.17l0,.13s.06-.08.05-.11-.06-.28-.08-.42c0-.33-.08-.67-.11-1,0-.05.07-.11.11-.16s.08.1.08.15a6.66,6.66,0,0,0,.12,1c.07.3.06.64.34.86l.11.07a1,1,0,0,0,0-.17c0-.06-.05-.11-.06-.17q-.11-.59-.18-1.17s0-.07,0-.07.12,0,.13,0c0,.25.08.5.11.75a3.8,3.8,0,0,0,.57,1.52.36.36,0,0,0,.1.07s0-.09,0-.13-.11-.32-.17-.48a2.79,2.79,0,0,1-.12-1.15s.07-.08.1-.12.1.09.09.13-.11.22-.09.31c.12.52.26,1,.4,1.54a1.66,1.66,0,0,0,.16.33.36.36,0,0,0,.1.07s0-.09,0-.13A7,7,0,0,1,14.2,17a1.84,1.84,0,0,1,.1-.51.37.37,0,0,1,0-.11.28.28,0,0,1,0,.13c0,.35,0,.71.11,1.06a5.38,5.38,0,0,0,.21.76c0,.05.09.09.14.14s.05-.13,0-.18c0-.36-.07-.71-.09-1.06,0-.05.07-.11.11-.16s.08.1.08.15c0,.42.06.84.11,1.25a1.18,1.18,0,0,0,.43.77s.1,0,.13,0,.05-.1,0-.13c-.31-.48-.16-1-.19-1.52,0,0,0-.09,0-.13a.31.31,0,0,1,.05.12c0,.32.05.65.11,1a2.41,2.41,0,0,0,.58,1.46c0,.06,0,.21.17.14a.24.24,0,0,0,0-.22c-.32-.52-.15-1.08-.19-1.62,0-.05,0-.09,0-.14s.06.08.05.12a4.64,4.64,0,0,0,.21,1.61,1.72,1.72,0,0,0,.48.9l.07.06a.65.65,0,0,0,0-.13.64.64,0,0,0-.06-.18A3.75,3.75,0,0,1,17,19.1s0-.05,0-.08.06.07.06.1c0,.25.08.51.1.76a2.93,2.93,0,0,0,.7,1.81l.16.11a.34.34,0,0,0,0-.17,3.16,3.16,0,0,1-.26-1.69.33.33,0,0,1,0-.13.31.31,0,0,1,.05.12c0,.15,0,.3,0,.44.09.43.21.86.28,1.29a1.8,1.8,0,0,0,.46,1,.41.41,0,0,0,.11.07c0-.06,0-.13,0-.17a1.92,1.92,0,0,1-.25-1.24.55.55,0,0,1,.05-.17c0,.06,0,.12,0,.18.07.34.11.69.21,1a10.78,10.78,0,0,0,.42,1.07c0,.05.09.07.14.11a.63.63,0,0,0,0-.19,1.12,1.12,0,0,0-.11-.25A2.66,2.66,0,0,1,19,21.67a.25.25,0,0,1,.11-.16c.19.07,0,.1,0,.15.05.25.08.5.15.74a4.37,4.37,0,0,1,.33,1c0,.35.3.55.38.85,0,0,.07.06.1.09a.34.34,0,0,0,0-.17,3.93,3.93,0,0,1-.27-1.69.5.5,0,0,1,.05-.13.61.61,0,0,1,.05.12c.07.39.12.78.21,1.17a8.35,8.35,0,0,0,.3,1c0,.06.09.09.14.14s.06-.13.05-.18-.08-.37-.09-.56a3.41,3.41,0,0,1,.05-.55c.05.18.1.36.14.54a.34.34,0,0,1,0,.1c0,.29.06.57.1.86a3.8,3.8,0,0,0,.61,1.14s.09,0,.09,0a.4.4,0,0,0,0-.19c-.35-.51-.17-1.09-.18-1.64,0,0,0-.06,0-.08s.06.06.06.1a2.09,2.09,0,0,1,0,.25A2.29,2.29,0,0,0,22,26.24c.08.07.08.22.11.33l-.41-.14-.24-.1.16.21c.05.06.11.15.18.16.35,0,.5.3.65.57,0,.05.1.08.14.12s.07-.19,0-.22c-.19-.19-.17-.44-.24-.66a1.19,1.19,0,0,1-.07-.85l.07-.14a.65.65,0,0,1,0,.13,10.8,10.8,0,0,0,.21,1.16,6.47,6.47,0,0,0,.46.91c.08.17.13.35.22.51s.11.05.16.07a.51.51,0,0,0,0-.17,5.79,5.79,0,0,0-.29-.68A2.15,2.15,0,0,1,23,26.28c0-.06.1-.11.15-.17a1.29,1.29,0,0,1,0,.19,3.31,3.31,0,0,0,.42,1.77,5.77,5.77,0,0,0,.65,1c.26.32.43.77.93.86.06,0,.13.1.17.17a6,6,0,0,0,1,1.08s.09,0,.14,0a.33.33,0,0,0,0-.13,2.83,2.83,0,0,1-.26-1.49.31.31,0,0,1,0-.12.5.5,0,0,1,.05.13,6.64,6.64,0,0,0,.3,1.32q.35.76.72,1.5s.11.07.17.1,0-.11-.05-.17a3.62,3.62,0,0,1-.34-1.56s.07-.08.1-.13.09.08.1.13c0,.25.05.51.1.76a6.08,6.08,0,0,0,.84,2s.09,0,.14.08,0-.15,0-.19a2.1,2.1,0,0,1-.33-1.06c0-.28,0-.55-.06-.82,0,0,0-.06,0-.09a.6.6,0,0,1,.06.11c0,.2.08.4.1.61a2.5,2.5,0,0,0,.61,1.54c.05,0,.05.14.07.21-.21,0-.17.09-.05.21a2.88,2.88,0,0,1,.62.74c.12.27.49.36.46.72,0,.07.17.15.27.22,0-.1-.05-.2-.08-.3s-.09-.46-.3-.62A2.58,2.58,0,0,1,29,33,3.27,3.27,0,0,1,29,32.5l.15.49a.34.34,0,0,1,0,.1,4,4,0,0,0,.5,1.54s.1,0,.16.06l0-.1,0-.89a.19.19,0,0,1,0-.08.28.28,0,0,1,.07.09,4.37,4.37,0,0,0,.11,1.1,6.1,6.1,0,0,0,1.34,2.6,1.83,1.83,0,0,1,.25.35c.09.14.16.29.25.44.12-.21-.07-.35-.12-.51a5.3,5.3,0,0,1-.43-2.22,1,1,0,0,1,.06-.16l0,.13c.07.41.11.82.2,1.22A10.86,10.86,0,0,0,32,37.71c0,.1.15.2.13.29-.09.44.29.65.44,1,0,0,.08,0,.13,0l0-.11c-.09-.22-.2-.45-.28-.68-.16-.5-.32-1-.44-1.51a1.23,1.23,0,0,1,.11-.55s.08,0,.13,0a.41.41,0,0,1,0,.11,2.36,2.36,0,0,0,0,.53,4,4,0,0,0,.19.76,8,8,0,0,0,.92,2.27.81.81,0,0,0,.14.12.66.66,0,0,0,0-.24s-.1-.09-.13-.14a4.26,4.26,0,0,1-.66-2.33.76.76,0,0,1,.09-.18c0,.06.11.12.1.18a2.08,2.08,0,0,0,0,.66A10.88,10.88,0,0,0,33.1,39c0,.06.09.09.14.14s.06-.14,0-.18c-.18-.34-.06-.71-.09-1.06,0,0,.08-.11.12-.16a.34.34,0,0,1,.07.15c0,.41,0,.8.09,1.21A3.55,3.55,0,0,0,34,40.52l.11.16a.25.25,0,0,0,.06-.22A3.24,3.24,0,0,1,34.19,39s.07-.07.11-.11.09.08.08.09a5.12,5.12,0,0,0-.09,1.51,1.31,1.31,0,0,0,.2.77.34.34,0,0,0,.08.09s.09-.09.08-.14a6.35,6.35,0,0,1,0-.87,4.51,4.51,0,0,1,.24-.85s.06-.06.1-.1.05.09,0,.13c0,.23-.11.45-.15.68a3.25,3.25,0,0,0,.1,1.58s.07.07.1.11l.06-.13c.11-.42.22-.84.34-1.25,0,0,.09-.06.13-.09a.29.29,0,0,1,0,.13c-.12.48-.26,1-.38,1.44,0,.11,0,.28,0,.34s0,.39.09.57-.27.54.19.63a.22.22,0,0,1,0,.14c-.22.52,0,1.09-.18,1.62a6.64,6.64,0,0,1-.36,1.51,2.37,2.37,0,0,0-.25.64,7.21,7.21,0,0,1-1.77,3l-.23.25A17.36,17.36,0,0,1,31.43,52a7.18,7.18,0,0,1-1,.67A12.36,12.36,0,0,1,28,53.87a7.31,7.31,0,0,1-2,.32,2.87,2.87,0,0,1-.56-.1,11.36,11.36,0,0,1-1.69-.37,3.11,3.11,0,0,0-1.17-.34c-.16,0-.26-.2-.15-.36a3.64,3.64,0,0,1,.6-.7c.34-.32.72-.59,1.07-.89a1.34,1.34,0,0,0,.22-.31s0-.07,0-.11-.11,0-.14,0a5.76,5.76,0,0,1-1.78.77,8.07,8.07,0,0,1-2.08.4,5.42,5.42,0,0,0-1.09.13c-.2.08-.34,0-.5,0a1.27,1.27,0,0,1-.64,0,3.14,3.14,0,0,0-1-.08.22.22,0,0,0-.22.34,3.26,3.26,0,0,0,.46.45s.13,0,.19,0-.06-.09-.05-.14a3.81,3.81,0,0,1,.07-.47s0,0,.07-.07.05,0,.05.07,0,.14,0,.19c.11.28,0,.62.26.85l.1.07s0-.1,0-.14c0-.24-.08-.47-.09-.71,0-.08.09-.16.14-.23a1.8,1.8,0,0,0,.06.22,1.45,1.45,0,0,0,.09.22c.07.16.13.34.21.5s.08.1.12.15.07-.1.07-.15c0-.21,0-.42,0-.63,0,0,.06-.08.1-.11a.31.31,0,0,1,.05.12c0,.28,0,.56,0,.85a1.85,1.85,0,0,0,.26.94s.07,0,.1.06,0-.05,0-.08,0-.19,0-.25c-.2-.36-.05-.74-.08-1.11,0-.12.12-.25.18-.37s.05,0,.07-.06a.18.18,0,0,1,0,.09.49.49,0,0,1,0,.24c-.26.55,0,1.08,0,1.62,0,.12.15.23.24.34s.07,0,.1,0a.14.14,0,0,0,0-.07,3.38,3.38,0,0,1-.17-.68,7.46,7.46,0,0,1,.1-1.05s.15-.07.23-.1a1.16,1.16,0,0,1,0,.18,2.12,2.12,0,0,0-.07,1c.06.29.11.58.17.88a2,2,0,0,0,.11.35s.09.06.13.09.06-.08.06-.12c0-.25-.09-.5-.12-.75s-.06-.61-.07-.91c0-.07.08-.13.12-.2a.49.49,0,0,1,.07.19,7.26,7.26,0,0,0,.31,2.17s.1.08.15.12,0-.12,0-.17a7.08,7.08,0,0,1-.26-1.71s.09-.09.15-.11.11.06.11.07c-.18.6.12,1.16.15,1.74a2.6,2.6,0,0,0,.29.82s.1,0,.16.05,0-.1,0-.14a5,5,0,0,1-.24-.75,8.4,8.4,0,0,1-.05-1.12c0-.06.1-.11.15-.17a1.06,1.06,0,0,1,0,.19,4.13,4.13,0,0,0,.1,1.21c.15.47.27.95.41,1.43,0,0,.07.06.11.06s.08-.06.08-.09-.05-.15-.06-.22q-.18-.73-.33-1.47a1.62,1.62,0,0,1,0-.44s.06-.07.1-.07.08.05.09.08c0,.21,0,.42.07.62.06.37.19.73.22,1.11A3.76,3.76,0,0,0,22.94,59a.48.48,0,0,0,.11.09c0-.06.05-.12,0-.18q-.11-.45-.24-.9c-.21-.64-.45-1.28-.62-1.94a1.1,1.1,0,0,1,.07-.78c.09-.17.12-.34.19-.5a1.31,1.31,0,0,1,.08-.21.67.67,0,0,1,.17-.08.55.55,0,0,1,0,.17,2.76,2.76,0,0,1-.08.27c0,.15,0,.33.18.35s.07-.19.12-.29.17-.26.25-.4c0,.13,0,.26.05.38a.75.75,0,0,1,0,.15l.06.27a1.54,1.54,0,0,0,.3-.11c.06,0,.09-.1.15-.14a.41.41,0,0,1,.16,0c0,.05,0,.13,0,.16s0,.2.07.28c.06-.07.15-.13.18-.21s.06-.31.11-.46.08-.06.12-.1a.61.61,0,0,1,.07.17.93.93,0,0,1,0,.13.46.46,0,0,0,.21.5.25.25,0,0,0,.19,0s0-.1,0-.16a1.93,1.93,0,0,1,0-.34.58.58,0,0,1,.11-.18.8.8,0,0,1,.11.23,1.67,1.67,0,0,0,0,.39c0,.11.17.25.25.25s.09-.16.09-.26a.36.36,0,0,1,.06-.23.32.32,0,0,1,.19-.07s.09.14.07.16c-.17.2,0,.33.1.45a.14.14,0,0,0,.14,0,.17.17,0,0,0,0-.14c0-.28,0-.55,0-.83,0-.09.1-.17.16-.25a2.08,2.08,0,0,1,0,.23,3.33,3.33,0,0,0,0,.55.88.88,0,0,0,.18.42c0,.06.2.07.29,0s.12-.09,0-.21a.6.6,0,0,1,0-.44c0-.08.15-.13.23-.19a1.39,1.39,0,0,1,.06.19,2,2,0,0,0,0,.35,1.11,1.11,0,0,0,.14.34.36.36,0,0,0,.11.1.93.93,0,0,0,0-.13c0-.15,0-.3,0-.45a.38.38,0,0,1,.07-.22s.13-.06.2-.08a.91.91,0,0,1,0,.17c0,.11-.08.23-.05.32s.06.35.29.29.08-.24.07-.37a2.68,2.68,0,0,0-.07-.27c0-.17.09-.27.28-.26s.12,0,.06.13a.64.64,0,0,0,0,.43.39.39,0,0,0,.24.23c.21.06.14-.12.15-.22s0-.43,0-.64c0,0,.09-.07.13-.11l0,.13c0,.23,0,.45.07.67s.06.24.21.18a.41.41,0,0,0,.21-.22,5,5,0,0,0,0-.55c0-.11,0-.22,0-.33a.93.93,0,0,1,.11-.19,1.16,1.16,0,0,1,0,.18,6.23,6.23,0,0,0,0,.75.35.35,0,0,0,.22.25c.17,0,.28-.07.27-.25a1.29,1.29,0,0,0-.06-.53c-.13-.21.08-.32.09-.48s.08,0,.13,0,0,.05,0,.06c-.23.29.09.54.05.84s.22.21.37.18.1-.18.06-.3a2.13,2.13,0,0,1-.15-.49.87.87,0,0,1,.17-.73l.07-.07a.6.6,0,0,1,.06.11.25.25,0,0,1,0,.15c-.28.39.09.72.11,1.08,0,.15.21.17.37.15s.11-.17.11-.26-.06-.18-.07-.27c0-.31-.12-.64.08-.94,0-.05.1-.08.15-.12s0,.12,0,.17a1.54,1.54,0,0,0,.18,1.32c0,.05.13.07.2.1a.66.66,0,0,0,0-.2,3.29,3.29,0,0,1-.14-1.39s0-.07.07-.11.11.07.12.11,0,.2,0,.3c0,.29.06.57.1.86a.36.36,0,0,0,.15.22c.07,0,.16-.08.24-.13s0-.14,0-.21c0-.54-.25-1.08,0-1.62.06-.14.1-.28.16-.42,0,.15.08.32,0,.43-.24.5,0,1,.05,1.45a.24.24,0,0,0,.3.22c.18,0,.28-.11.25-.29a7.4,7.4,0,0,0-.13-.8,1.91,1.91,0,0,1,0-1.18.59.59,0,0,0,.05-.23.85.85,0,0,1,0,.26,5.83,5.83,0,0,0,.2,1.72c0,.16,0,.29.23.31,0-.13,0-.25,0-.38s0,0,0,0a2.73,2.73,0,0,1,0-1.6c0-.07.1-.11.16-.16s.06.17,0,.23c-.27.58,0,1.12.11,1.67,0,0,.13.09.14.08s.31-.18.16-.4a.87.87,0,0,1-.1-.31c-.07-.39-.14-.78-.2-1.17a2,2,0,0,1,.2-1s.08,0,.12-.06v.13a.92.92,0,0,1,0,.29,2.83,2.83,0,0,0,.31,2.09c0,.16.14.11.2,0s.12-.2.09-.26a4.89,4.89,0,0,1-.32-1.42,2.48,2.48,0,0,1,0-1.12s0-.09,0-.13a.31.31,0,0,1,0,.12,5.5,5.5,0,0,0,.11,1.46c.09.33.21.65.29,1s.18.15.25,0a.51.51,0,0,0,0-.3A6.26,6.26,0,0,1,35,51.94c0-.35.06-.7.1-1.06a1.16,1.16,0,0,1,0-.18.55.55,0,0,1,0,.17,9.09,9.09,0,0,0,.11,2,4.48,4.48,0,0,0,.27.69s.08,0,.13,0c0-.2.28-.26.2-.52a4.65,4.65,0,0,1-.25-1.81c0-.23,0-.46,0-.69a.85.85,0,0,1,.17-.63s.07-.11.11-.16,0,.13,0,.18a4.68,4.68,0,0,0-.09,2.38,3.13,3.13,0,0,0,.2.66.41.41,0,0,0,.23.15c.13-.14.33-.28.35-.44a2,2,0,0,0-.09-.8,7.64,7.64,0,0,1-.08-2c0-.15.12-.31.19-.46a.61.61,0,0,1,.05-.12s0,.09,0,.13a3,3,0,0,0-.09.41,13,13,0,0,0,.1,2.41,1.05,1.05,0,0,0,.19.34c.06-.07.11-.18.19-.23.25-.13.17-.36.1-.51a2.22,2.22,0,0,1-.18-1c0-.48.06-1,.1-1.45a.31.31,0,0,1,.05-.12.38.38,0,0,1,0,.13c0,.5,0,1,0,1.5a5.47,5.47,0,0,0,.23,1s.07.07.1.11a.45.45,0,0,1,.06-.12c.25-.26,0-.52,0-.75a6.66,6.66,0,0,1,0-2.74c0-.07.1-.12.15-.18a.93.93,0,0,1,0,.23,3.29,3.29,0,0,0-.17,1c0,.38,0,.76.09,1.13a7.21,7.21,0,0,0,.28,1c.05.15.13.13.2,0s.09-.17.16-.23.12-.22.06-.4a3.35,3.35,0,0,1-.22-1.37c0-.38,0-.76,0-1.14a2.44,2.44,0,0,1,.15-.59s.06-.07.1-.1.05.09,0,.13a8.75,8.75,0,0,0-.11,2,6.72,6.72,0,0,0,.22,1c0,.1.14.18.21.27a1.33,1.33,0,0,0,.18-.3,1,1,0,0,0,0-.35,3.4,3.4,0,0,1-.09-.46c0-.41,0-.83,0-1.25s.18-.66.23-1c0,0,.09-.08.14-.12s0,.14,0,.18a3.71,3.71,0,0,0-.19,1.62,2.78,2.78,0,0,0,0,.5,4.66,4.66,0,0,0,.12.65.19.19,0,0,0,.13.12c.13,0,.39-.42.33-.54a5,5,0,0,1-.18-2.08,2.1,2.1,0,0,1,.16-.58.57.57,0,0,1,.11-.16c0,.06,0,.13,0,.18a5.14,5.14,0,0,0-.09,1.61,3.16,3.16,0,0,0,.11.81c0,.08.19.12.3.18,0-.1.08-.21,0-.28a5.33,5.33,0,0,1-.16-2.1c0-.09.12-.18.19-.27l.07,0s0,.07,0,.09a2.94,2.94,0,0,0-.09,1.47,3.93,3.93,0,0,0,.2.82.17.17,0,0,0,.12.1c.17,0,.42-.36.37-.51a4.19,4.19,0,0,1-.19-1.57,2.09,2.09,0,0,1,.13-.49c0-.05.09-.07.14-.1s0,.1,0,.14a3.58,3.58,0,0,0,0,1.72.6.6,0,0,0,.13.38c.09.09.26.09.39.14,0-.1.06-.22,0-.29a4.2,4.2,0,0,1-.15-1.69.15.15,0,0,1,0-.12s.07-.07.1-.1.05.1,0,.14-.1.24-.09.35c0,.42.11.83.2,1.24a1.13,1.13,0,0,0,.22.36.36.36,0,0,0,.15.08s0-.09,0-.13c0-.22-.12-.43-.14-.64a8.43,8.43,0,0,1,0-.87S42,48,42,47.91a.33.33,0,0,1,0,.13,3.07,3.07,0,0,0,.28,1.49c0,.11.09.22.22.16s.08-.18.08-.26c0-.38-.06-.75-.07-1.12,0,0,.15-.12.21-.11s0,.1,0,.15a2.61,2.61,0,0,0,0,.84c.08.22,0,.56.37.65s.3.09.31-.18a4.9,4.9,0,0,1,0-.54s.08-.07.13-.11.1.14.08.18c-.13.23,0,.42.05.64a.42.42,0,0,0,.48.35c.24,0,.08-.25.12-.39a.67.67,0,0,0,0-.2c0-.06,0-.12,0-.18s.15.1.16.16,0,.4,0,.6a.47.47,0,0,0,.61.32c.17-.1.11-.27,0-.42s0-.12,0-.18a13.21,13.21,0,0,0-.31-1.57,7.28,7.28,0,0,1-.41-1.54c0-.52-.18-1-.18-1.57a3.53,3.53,0,0,0,0-.65,3.46,3.46,0,0,1,0-.56,5,5,0,0,1,.23-1s.07-.06.11-.1,0,.12,0,.17a6.07,6.07,0,0,0-.17.93c0,.67,0,1.33,0,2a1.58,1.58,0,0,0,.09.36s0,.09.05.13,0-.07,0-.11c.07-.56.14-1.11.2-1.67,0-.16.06-.08.14,0s.15,0,.16-.08c0-.43.07-.87.1-1.3s.07-.68.1-1c0,0,0-.05,0-.08s0,0,0,.08c0,.31,0,.62-.06.92a1.35,1.35,0,0,0,.06.89.71.71,0,0,0,.07.09.32.32,0,0,0,0-.09c0-.47.05-.94.11-1.4s.12-.65.19-1a.39.39,0,0,1,.06-.11.65.65,0,0,1,0,.13c0,.4-.06.8-.1,1.21l0,0c-.09.18-.16.44,0,.5s.17-.25.26-.39a.3.3,0,0,0,0-.22c-.18-.36.08-.71,0-1.07,0-.07,0-.15.06-.22s0-.12.07-.17a.58.58,0,0,1,.06.15c0,.27.09.56-.09.82,0,.07,0,.21.05.32s.13,0,.13,0c.07-.17.23-.37.19-.5a4,4,0,0,1,0-1.73.27.27,0,0,1,.06-.12s.07-.06.1-.09,0,.09,0,.13-.09.11-.09.16c0,.48,0,1,0,1.45a.42.42,0,0,0,.1.2.16.16,0,0,0,.13,0,.14.14,0,0,0,.06-.11,2.78,2.78,0,0,0,0-.58,5.57,5.57,0,0,1,.08-1.68s.09-.07.14-.1,0,.1,0,.13a3.09,3.09,0,0,0-.09,1.21c0,.19-.07.4.14.54.08-.18.17-.36.25-.55s0-.16,0-.19-.09-.34-.09-.52a3.89,3.89,0,0,0,0-.84.59.59,0,0,1,0-.52.53.53,0,0,0,.05-.18.61.61,0,0,1,0,.18c0,.55.06,1.11.11,1.66,0,.12.09.32.17.34.23.06.1-.18.15-.28a.71.71,0,0,0,.06-.51c-.15-.3,0-.61-.09-.91A1.21,1.21,0,0,1,48,39.2c0,.06.14.12.14.19s0,.4,0,.6a3.87,3.87,0,0,0,.13.59s.07.07.1.11.06-.08.06-.11c0-.19.07-.27.21-.36s.05-.15,0-.23-.1-.16-.14-.24a4.15,4.15,0,0,1-.1-1.36s0,0,0-.08.06.07.06.11a5.26,5.26,0,0,0,.2,1.31,1.15,1.15,0,0,0,.06.17c.07,0,.18-.07.2-.12a.55.55,0,0,0,0-.36,2.84,2.84,0,0,1-.16-1.29.43.43,0,0,1,0-.13.35.35,0,0,1,0,.13,2.26,2.26,0,0,0,.19,1c.06.15,0,.39.24.33s.06-.25,0-.41a3.45,3.45,0,0,1-.23-1.56s0-.06.06-.1,0,.06,0,.09a3.52,3.52,0,0,0,.21,1.11,3.65,3.65,0,0,0,.19.44M.65,8.81a3,3,0,0,0,0-.43c0-.21,0-.42,0-.64S.59,7.6.54,7.52c0,.08-.06.17,0,.23A4.94,4.94,0,0,1,.65,8.81M16.54,52.29a.23.23,0,0,0-.33-.06s0,.08,0,.09a2.14,2.14,0,0,0,.3.17.22.22,0,0,0,.14,0,.19.19,0,0,0-.1-.2M.5,6.86a2.09,2.09,0,0,0,0,.25s.06.09.06.08,0-.31-.06-.33m.1-.6.06-.13-.16,0c.06,0-.12.22.1.09M44.68,47V47l.06.15a.65.65,0,0,0,0-.13.1.1,0,0,0-.1-.11M11.45,3.31l0-.06s-.06,0,0,.06M26.69,31.85l-.06,0s0,.06.06,0M13.8,17.76l.06,0s0-.06-.06,0M23.54,28.5l0,.06s.06,0,0-.06m6.85,7.85-.06,0S30.34,36.37,30.39,36.35ZM6,2.31a2.74,2.74,0,0,0,.1.41A2,2,0,0,0,6.2,3a.86.86,0,0,0,.14.13.34.34,0,0,0,0-.17c0-.35-.08-.71-.08-1.06a1.8,1.8,0,0,1,.16-.58s.13,0,.2-.06,0,.12,0,.17a1.69,1.69,0,0,0-.06,1.34.46.46,0,0,0,.49.37,2.14,2.14,0,0,1,.53.16l.18.09a.86.86,0,0,0,0-.23A1.27,1.27,0,0,1,7.7,2a.89.89,0,0,1,.19-.31c.06-.06.17-.05.26-.07L8,1.83a.88.88,0,0,0-.16.92c.13.28.11.62.33.87,0,0,.09.06.13.09s.07-.12.05-.15a2.31,2.31,0,0,1-.1-1.49c0-.19.21-.12.25-.24s.08,0,.1.08a.12.12,0,0,1,0,.1c-.51.49-.1,1.06-.12,1.59,0,0,0,.08,0,.1s-.12.18,0,.2.1-.13.1-.21,0-.4,0-.6a1.32,1.32,0,0,1,.13-.44c0-.09.15-.15.24-.22,0,.1,0,.2-.07.3a4.13,4.13,0,0,0-.1,1.36.42.42,0,0,0,.1.2.63.63,0,0,0,.11.12s.08-.09.08-.14c0-.3,0-.6,0-.9a3.53,3.53,0,0,1,.1-.55.23.23,0,0,1,.28-.2.14.14,0,0,1,.11.06s0,.12,0,.13c-.23.09-.21.31-.25.49-.07.39.09.81-.09,1.21-.05.1,0,.27.09.4a.85.85,0,0,0,.14.19l.06-.2c.06-.24.12-.48.2-.72A.33.33,0,0,1,10,4s.12,0,.16.08a.17.17,0,0,1,0,.14c-.36.3-.24.77-.42,1.13,0,0,0,.08,0,.13s.17,0,.2-.08.13-.35.37-.3a.84.84,0,0,1,.2.08.82.82,0,0,1-.17.11c-.47.17-.44.6-.54,1a6.07,6.07,0,0,1-.59,2A3.25,3.25,0,0,1,6.47,9.92,3.44,3.44,0,0,1,4.65,9.6,3.24,3.24,0,0,1,3,7.42,9.73,9.73,0,0,1,2.9,5.64c0-.06.06-.11.09-.17a3.37,3.37,0,0,0,.23-1,3.14,3.14,0,0,1,.9-2.17A3,3,0,0,0,4.37,2s.07,0,.1-.06a.32.32,0,0,1,0,.13A4,4,0,0,0,4.1,3.76a.7.7,0,0,0,0,.14l.11-.08a1,1,0,0,0,.38-.74,8.86,8.86,0,0,1,.29-1.52c0-.06.09-.1.14-.14s.07.13,0,.17C4.85,2,5,2.56,4.81,3c0,.08-.13.29.12.3s.35,0,.37-.23,0-.44,0-.65.13-.61.2-.91c0-.05.08-.08.12-.12s.06.14,0,.19A2.39,2.39,0,0,0,5.5,2.78a.32.32,0,0,0,.4.33.15.15,0,0,0,0-.1,6.29,6.29,0,0,1-.13-1,1,1,0,0,1,.24-.75.46.46,0,0,1,.14-.07c0,.05,0,.09,0,.14,0,.32-.11.65-.17,1M4.3,4.36l-.2.27c-.17.25-.29.57-.52.72A.62.62,0,0,0,3.3,6c0,.38.05.77.1,1.15A2.48,2.48,0,0,0,5.11,9.22a4,4,0,0,0,1.27.2,3.08,3.08,0,0,0,2-.81A2.56,2.56,0,0,0,9,7.51,2.46,2.46,0,0,0,9,5.14,3,3,0,0,0,6.89,3.6a5.69,5.69,0,0,0-.83,0,2.25,2.25,0,0,0-1.76.75m-.4-1c.06-.15.12-.31.17-.47s0-.11,0-.17-.13,0-.15.07-.14.37-.2.56-.2.66-.27,1a2.48,2.48,0,0,0,0,.47c.06-.12.12-.25.18-.36a.18.18,0,0,1,.07-.08.52.52,0,0,0,.21-.56c0-.11,0-.23,0-.45M9,4.76l.06,0S9.05,4.74,9,4.76Zm16,25a4,4,0,0,1-.78-1.85c0-.19-.07-.37-.09-.56,0,0,.06-.08.1-.12s.09.09.09.14a4.61,4.61,0,0,0,.28,1.22,8.27,8.27,0,0,0,.54,1.12s0,.08,0,.12A.48.48,0,0,1,25,29.73Zm5.82,6.57a3.84,3.84,0,0,1-.3-2c0-.05.06-.09.09-.14s.11.12.1.17c-.23.81.22,1.49.45,2.21a1.64,1.64,0,0,0,.16.29s0,.06,0,.09-.09,0-.1,0A4.56,4.56,0,0,1,30.79,36.3Zm-5.07-6.42c.14.21.26.39.37.58a.33.33,0,0,1,0,.1s-.08,0-.11,0a1.69,1.69,0,0,1-.57-.91,4.34,4.34,0,0,1-.12-1.09.29.29,0,0,1,.05-.13.61.61,0,0,1,.05.12C25.49,29,25.59,29.41,25.72,29.88ZM7,2.71a1.9,1.9,0,0,0-.09-.8c0-.11,0-.31.1-.44s.15-.11.23-.15,0,.15,0,.22a3.7,3.7,0,0,0,0,1.15c0,.07,0,.15,0,.22A.82.82,0,0,1,7,2.71ZM4.27,11.14a.41.41,0,0,1,0-.2.15.15,0,0,1,.12,0c.06,0,.14.09.14.14,0,.29.16.49.24.74,0,0,0,.12-.05.18a.39.39,0,0,0-.08-.1A1,1,0,0,1,4.27,11.14Zm1,.95C5,12.13,5,11.85,5,11.7a2.06,2.06,0,0,1-.13-.46c.21.06.21.26.28.41A2.87,2.87,0,0,1,5.27,12.09ZM6.8,12c-.09,0-.15-.07-.15-.11,0-.22-.24-.42-.12-.67.25.13.18.4.27.59A.25.25,0,0,1,6.8,12Zm44,20.69c0-.18.07-.31.1-.44H51c0,.19.1.42-.1.59A.29.29,0,0,1,50.78,32.7ZM10.2,6.71a.25.25,0,0,1,0,.09c-.08.09-.16.19-.25.28,0-.13.05-.27.09-.4s.08-.1.13-.15S10.17,6.62,10.2,6.71ZM45.06,43.92a2.31,2.31,0,0,1-.12.47l-.06-.51v0l.08-.11C45,43.78,45,43.84,45.06,43.92Zm0-.55a.19.19,0,0,1-.07-.13l.07,0A.74.74,0,0,1,45.06,43.37Zm6.22-15.59s-.06,0-.09,0A.11.11,0,0,1,51.28,27.78Zm.4.2s-.06,0-.09,0A.11.11,0,0,1,51.68,28Z"/></g></g></svg>