<svg xmlns="http://www.w3.org/2000/svg" width="56.75618" height="77.61301" viewBox="0 0 56.75618 77.61301"><title>teddy-bear-1-front</title><g id="Layer_2" data-name="Layer 2"><g id="teddy-bear-1-front"><path id="void" d="M56.49515,62.05681a16.19257,16.19257,0,0,0-.77371-2.32909,6.314,6.314,0,0,0-1.16028-1.52484c-.163-.20091-.41464-.32793-.58929-.52151a4.0033,4.0033,0,0,0-2.27231-1.01311c-.19847-.047-.19725-.04824-.09281-.22168a8.21732,8.21732,0,0,0,.73829-1.316c.10138-.27054.29435-.50869.37739-.78288.2113-.69616.494-1.36484.64-2.09032a15.54529,15.54529,0,0,0,.37-2.097,17.33191,17.33191,0,0,0-.0861-3.03625,8.73966,8.73966,0,0,0-.57952-1.88941c-.26321-.72975-.55388-1.45034-.85311-2.16665a10.42638,10.42638,0,0,0-.64487-1.35446,11.96442,11.96442,0,0,0-1.28729-1.81919c-.44884-.50441-.8592-1.043-1.30622-1.54928-.28214-.31938-.61128-.59722-.8989-.91233-.23023-.2522-.43114-.53189-.64365-.8a6.329,6.329,0,0,0-2.26437-1.92909c-.40609-.18809-.8299-.34076-1.22439-.5496a6.69879,6.69879,0,0,0-2.81518-.72792,2.67943,2.67943,0,0,0-.60518.08121,10.28382,10.28382,0,0,0-1.02409.21068c-.163.04763-.28457.07939-.41038-.05312a1.10842,1.10842,0,0,0-.81035-.41832c-.02443-.00061-.06717-.04885-.06839-.07633a.11348.11348,0,0,1,.058-.08854c.12091-.05129.251-.08245.36946-.13863.73768-.35113,1.46071-.73524,2.21306-1.05218a6.25369,6.25369,0,0,0,2.10681-1.30438c.52335-.53191,1.01737-1.09372,1.54622-1.62012a5.16022,5.16022,0,0,0,.92333-1.28667,16.06328,16.06328,0,0,0,1.00089-2.577,12.67,12.67,0,0,0,.55815-2.96419,26.37636,26.37636,0,0,0-.066-2.69671.24946.24946,0,0,0-.00061-.04276,9.1217,9.1217,0,0,1-.174-1.937c-.00061-.22289.08548-.2351.2522-.15572a.42909.42909,0,0,0,.14961.05008,14.88138,14.88138,0,0,0,1.58713.07389,4.219,4.219,0,0,0,1.21463-.25526,5.63057,5.63057,0,0,0,1.16088-.59418A4.7107,4.7107,0,0,0,52.16,15.72654a8.45,8.45,0,0,0,1.18715-1.68178,8.81163,8.81163,0,0,0,.64852-1.48027,8.69609,8.69609,0,0,0,.26991-2.06834c.01221-.42684.00551-.85431,0-1.28118a1.072,1.072,0,0,0-.04945-.3206c-.08917-.2754-.182-.55083-.2919-.8183a7.59619,7.59619,0,0,0-.72854-1.49369c-.25892-.3719-.47814-.77128-.731-1.14806a8.68583,8.68583,0,0,0-.698-.94776c-.35664-.39938-.75539-.76028-1.131-1.14317A4.74171,4.74171,0,0,0,48.438,2.152a1.61332,1.61332,0,0,0-.47633-.08243,8.4603,8.4603,0,0,0-1.63293.07144,8.69859,8.69859,0,0,0-1.55231.48487,5.08116,5.08116,0,0,0-1.63782,1.30256,4.00445,4.00445,0,0,0-.91845,1.75384,1.20529,1.20529,0,0,1-.05373.14168.70676.70676,0,0,1-.171-.10138,13.38563,13.38563,0,0,0-1.15966-1.2195,19.999,19.999,0,0,0-1.69461-1.156A24.81282,24.81282,0,0,0,36.406,1.80389,25.62879,25.62879,0,0,0,33.84787.65705,5.90657,5.90657,0,0,0,32.17158.25828c-.49464-.02809-.98135-.17892-1.476-.23756A8.48235,8.48235,0,0,0,29.71424.014c-.31327,0-.62777-.01526-.93982.00428-.30472.01833-.60578-.0287-.91233-.01587a12.10157,12.10157,0,0,0-1.683.16732,11.91834,11.91834,0,0,0-1.51263.27663,21.81778,21.81778,0,0,0-2.34925.82257,21.81371,21.81371,0,0,0-2.817,1.55782A8.98937,8.98937,0,0,0,16.77354,5.0789c-.152.21741-.22777.20214-.3548-.02319A5.99911,5.99911,0,0,0,13.94309,2.693a7.56741,7.56741,0,0,0-3.60783-.8806,5.58284,5.58284,0,0,0-1.11569.09038A4.88915,4.88915,0,0,0,7.939,2.21059a6.306,6.306,0,0,1-.96852.44335,3.57228,3.57228,0,0,0-1.4998.91845c-.40366.39877-.81341.79142-1.2,1.20607-.24182.25892-.447.55327-.68945.8531-.1032.16-.18442.29861-.26624.43664a7.52217,7.52217,0,0,0-.6406,1.101,25.22592,25.22592,0,0,0-.82684,2.51842,6.90431,6.90431,0,0,0-.2968,1.8442c.00551.44153,0,.883.00184,1.32456a1.06125,1.06125,0,0,0,.02077.29006q.19418.64488.4067,1.28363A2.78219,2.78219,0,0,0,2.72754,15.652a10.51741,10.51741,0,0,0,1.34225.96548,6.88238,6.88238,0,0,0,2.91716.90377,3.41755,3.41755,0,0,0,1.0644-.00609c.37373-.06963.8.01465,1.11508-.29252a.16014.16014,0,0,1,.10809-.03236.22386.22386,0,0,1,.04825.14411A2.82577,2.82577,0,0,0,9.164,17.906c-.01649.74319-.193,1.46561-.25648,2.20085-.06473.75417-.08243,1.51324-.08732,2.27047a14.05659,14.05659,0,0,0,.08671,1.58713,7.4298,7.4298,0,0,0,.22778,1.10043,15.53323,15.53323,0,0,0,.45617,1.51935,12.07086,12.07086,0,0,0,.69678,1.50407,7.13875,7.13875,0,0,0,.68822.95387c.37434.4745.753.94714,1.14928,1.40271a11.14,11.14,0,0,0,.80914.811,3.89956,3.89956,0,0,0,.48732.36944c.44151.2968.90989.55023,1.36422.82441A9.17562,9.17562,0,0,0,16.5,33.36939a3.80744,3.80744,0,0,0,1.28973.39449c.02382,0,.04763.02077.07206.03176a.51934.51934,0,0,1-.08855.0513c-.27419.09527-.55632.171-.822.28518-.43541.18686-.85555.40977-1.29218.593a1.12323,1.12323,0,0,1-.4293.025c-.06473-.00122-.12884-.047-.193-.04519a11.38567,11.38567,0,0,0-3.43929.25281c-.59967.20458-1.22195.35419-1.79781.61006a10.07324,10.07324,0,0,0-3.00083,2.13734c-.48792.48732-.9441,1.00516-1.42347,1.50164a10.3457,10.3457,0,0,0-1.26775,1.52546c-.43113.66256-.8702,1.319-1.29645,1.98406a11.66825,11.66825,0,0,1-.64548,1.0534,5.232,5.232,0,0,0-.68333,1.30073,9.18238,9.18238,0,0,1-.55694,1.305A5.1771,5.1771,0,0,0,.45218,47.463a6.90212,6.90212,0,0,0-.44029,2.72359c.04336.62776.00244,1.25614.06473,1.8888a6.74959,6.74959,0,0,0,.35846,1.82347,7.69822,7.69822,0,0,0,1.52545,2.701.82679.82679,0,0,1,.10321.12762,1.7214,1.7214,0,0,0,1.17676.78532c.12213.0232.14289.07328.07084.16305-.1374.1716-.29557.32914-.41893.51112a9.52494,9.52494,0,0,0-.81462,1.28548c-.23634.51173-.34565,1.08027-.55327,1.60666A4.95507,4.95507,0,0,0,1.21,62.95694c.00061.09954.03786.2229-.00671.295A.97288.97288,0,0,0,1.138,63.945c.03359.22718-.102.4519-.0061.654a1.87462,1.87462,0,0,1,.07694.73647,2.31521,2.31521,0,0,0,.00366.29863c.1545.75844.33038,1.51752.53739,2.25825a10.898,10.898,0,0,0,1.17188,2.8848c.24915.39938.51967.78593.80059,1.16333.31815.42808.66562.83356.98928,1.258a5.067,5.067,0,0,0,1.78071,1.57127c.53251.25768,1.08578.472,1.62438.71874.55022.25283,1.09188.5258,1.64148.78105a4.51237,4.51237,0,0,0,.7322.29313,7.61272,7.61272,0,0,0,2.27169.27174,19.93768,19.93768,0,0,0,2.19535-.16488,7.76519,7.76519,0,0,0,2.01827-.604,4.73889,4.73889,0,0,0,1.42164-1.0998c.20884-.21923.39021-.38656.687-.14107.05312.044.15877.03176.24.033a8.46771,8.46771,0,0,0,.85372-.00489,1.80432,1.80432,0,0,0,.61739-.15389c.21556-.105.39327-.28457.60028-.40976.09465-.05739.2229-.16.32916.01649.01892.03176.10075.02259.15022.04153.516.19785,1.03447.39021,1.54622.59907a11.18615,11.18615,0,0,0,3.24753,1.04241c.25648.022.51907.03969.778.06656.25892.02749.51723.05984.77677.08428.1948.01832.39083.03846.58625.03785.20823,0,.41647-.03724.6241-.0342a11.12013,11.12013,0,0,0,2.0665-.16731,16.13414,16.13414,0,0,0,2.25032-.55267,4.89558,4.89558,0,0,0,1.91017-.96118.28253.28253,0,0,1,.4067.01586,2.07143,2.07143,0,0,0,1.34592.47023,3.59078,3.59078,0,0,0,1.3331-.19725.26523.26523,0,0,1,.33342.08977.8571.8571,0,0,1,.14839.23632,2.91843,2.91843,0,0,0,.53923.8922.87633.87633,0,0,1,.3267.80608c-.014.05862.07756.16488.14473.21679a2.98826,2.98826,0,0,0,1.6653.51662,1.35021,1.35021,0,0,1,.6528.07634.58465.58465,0,0,0,.33648.0055,8.057,8.057,0,0,1,1.04058-.15878,11.67826,11.67826,0,0,0,1.85156-.17954,5.14564,5.14564,0,0,0,1.58835-.49648c.47814-.25525.96485-.494,1.43689-.75906.49832-.27908.99723-.5612,1.47172-.87876A12.23458,12.23458,0,0,0,51.60918,74.076c.47572-.42319.985-.80669,1.42959-1.269a9.84551,9.84551,0,0,0,1.4088-2.11109,19.00169,19.00169,0,0,0,.8409-1.74406c.30594-.71266.59784-1.43385.85065-2.16728.1649-.47571.21863-.98989.37741-1.46805a6.85292,6.85292,0,0,0,.2235-1.443A5.30221,5.30221,0,0,0,56.49515,62.05681ZM20.91266,2.312c-.0171-.011-.0342-.02259-.0513-.03419C20.90655,2.26067,20.90961,2.28631,20.91266,2.312Z" style="fill:#fff"/><path id="fill3" d="M56.49515,62.05681a16.19257,16.19257,0,0,0-.77371-2.32909,6.314,6.314,0,0,0-1.16028-1.52484c-.163-.20091-.41464-.32793-.58929-.52151a4.0033,4.0033,0,0,0-2.27231-1.01311c-.19847-.047-.19725-.04824-.09281-.22168a8.21732,8.21732,0,0,0,.73829-1.316c.10138-.27054.29435-.50869.37739-.78288.2113-.69616.494-1.36484.64-2.09032a15.54529,15.54529,0,0,0,.37-2.097,17.33191,17.33191,0,0,0-.0861-3.03625,8.73966,8.73966,0,0,0-.57952-1.88941c-.26321-.72975-.55388-1.45034-.85311-2.16665a10.42638,10.42638,0,0,0-.64487-1.35446,11.96442,11.96442,0,0,0-1.28729-1.81919c-.44884-.50441-.8592-1.043-1.30622-1.54928-.28214-.31938-.61128-.59722-.8989-.91233-.23023-.2522-.43114-.53189-.64365-.8a6.329,6.329,0,0,0-2.26437-1.92909c-.40609-.18809-.8299-.34076-1.22439-.5496a6.69879,6.69879,0,0,0-2.81518-.72792,2.67943,2.67943,0,0,0-.60518.08121,10.28382,10.28382,0,0,0-1.02409.21068c-.163.04763-.28457.07939-.41038-.05312a1.10842,1.10842,0,0,0-.81035-.41832c-.02443-.00061-.06717-.04885-.06839-.07633a.11348.11348,0,0,1,.058-.08854c.12091-.05129.251-.08245.36946-.13863.73768-.35113,1.46071-.73524,2.21306-1.05218a6.25369,6.25369,0,0,0,2.10681-1.30438c.52335-.53191,1.01737-1.09372,1.54622-1.62012a5.16022,5.16022,0,0,0,.92333-1.28667,16.06328,16.06328,0,0,0,1.00089-2.577,12.67,12.67,0,0,0,.55815-2.96419,26.37636,26.37636,0,0,0-.066-2.69671.24946.24946,0,0,0-.00061-.04276,9.1217,9.1217,0,0,1-.174-1.937c-.00061-.22289.08548-.2351.2522-.15572a.42909.42909,0,0,0,.14961.05008,14.88138,14.88138,0,0,0,1.58713.07389,4.219,4.219,0,0,0,1.21463-.25526,5.63057,5.63057,0,0,0,1.16088-.59418A4.7107,4.7107,0,0,0,52.16,15.72654a8.45,8.45,0,0,0,1.18715-1.68178,8.81163,8.81163,0,0,0,.64852-1.48027,8.69609,8.69609,0,0,0,.26991-2.06834c.01221-.42684.00551-.85431,0-1.28118a1.072,1.072,0,0,0-.04945-.3206c-.08917-.2754-.182-.55083-.2919-.8183a7.59619,7.59619,0,0,0-.72854-1.49369c-.25892-.3719-.47814-.77128-.731-1.14806a8.68583,8.68583,0,0,0-.698-.94776c-.35664-.39938-.75539-.76028-1.131-1.14317A4.74171,4.74171,0,0,0,48.438,2.152a1.61332,1.61332,0,0,0-.47633-.08243,8.4603,8.4603,0,0,0-1.63293.07144,8.69859,8.69859,0,0,0-1.55231.48487,5.08116,5.08116,0,0,0-1.63782,1.30256,4.00445,4.00445,0,0,0-.91845,1.75384,1.20529,1.20529,0,0,1-.05373.14168.70676.70676,0,0,1-.171-.10138,13.38563,13.38563,0,0,0-1.15966-1.2195,19.999,19.999,0,0,0-1.69461-1.156A24.81282,24.81282,0,0,0,36.406,1.80389,25.62879,25.62879,0,0,0,33.84787.65705,5.90657,5.90657,0,0,0,32.17158.25828c-.49464-.02809-.98135-.17892-1.476-.23756A8.48235,8.48235,0,0,0,29.71424.014c-.31327,0-.62777-.01526-.93982.00428-.30472.01833-.60578-.0287-.91233-.01587a12.10157,12.10157,0,0,0-1.683.16732,11.91834,11.91834,0,0,0-1.51263.27663,21.81778,21.81778,0,0,0-2.34925.82257,21.81371,21.81371,0,0,0-2.817,1.55782A8.98937,8.98937,0,0,0,16.77354,5.0789c-.152.21741-.22777.20214-.3548-.02319A5.99911,5.99911,0,0,0,13.94309,2.693a7.56741,7.56741,0,0,0-3.60783-.8806,5.58284,5.58284,0,0,0-1.11569.09038A4.88915,4.88915,0,0,0,7.939,2.21059a6.306,6.306,0,0,1-.96852.44335,3.57228,3.57228,0,0,0-1.4998.91845c-.40366.39877-.81341.79142-1.2,1.20607-.24182.25892-.447.55327-.68945.8531-.1032.16-.18442.29861-.26624.43664a7.52217,7.52217,0,0,0-.6406,1.101,25.22592,25.22592,0,0,0-.82684,2.51842,6.90431,6.90431,0,0,0-.2968,1.8442c.00551.44153,0,.883.00184,1.32456a1.06125,1.06125,0,0,0,.02077.29006q.19418.64488.4067,1.28363A2.78219,2.78219,0,0,0,2.72754,15.652a10.51741,10.51741,0,0,0,1.34225.96548,6.88238,6.88238,0,0,0,2.91716.90377,3.41755,3.41755,0,0,0,1.0644-.00609c.37373-.06963.8.01465,1.11508-.29252a.16014.16014,0,0,1,.10809-.03236.22386.22386,0,0,1,.04825.14411A2.82577,2.82577,0,0,0,9.164,17.906c-.01649.74319-.193,1.46561-.25648,2.20085-.06473.75417-.08243,1.51324-.08732,2.27047a14.05659,14.05659,0,0,0,.08671,1.58713,7.4298,7.4298,0,0,0,.22778,1.10043,15.53323,15.53323,0,0,0,.45617,1.51935,12.07086,12.07086,0,0,0,.69678,1.50407,7.13875,7.13875,0,0,0,.68822.95387c.37434.4745.753.94714,1.14928,1.40271a11.14,11.14,0,0,0,.80914.811,3.89956,3.89956,0,0,0,.48732.36944c.44151.2968.90989.55023,1.36422.82441A9.17562,9.17562,0,0,0,16.5,33.36939a3.80744,3.80744,0,0,0,1.28973.39449c.02382,0,.04763.02077.07206.03176a.51934.51934,0,0,1-.08855.0513c-.27419.09527-.55632.171-.822.28518-.43541.18686-.85555.40977-1.29218.593a1.12323,1.12323,0,0,1-.4293.025c-.06473-.00122-.12884-.047-.193-.04519a11.38567,11.38567,0,0,0-3.43929.25281c-.59967.20458-1.22195.35419-1.79781.61006a10.07324,10.07324,0,0,0-3.00083,2.13734c-.48792.48732-.9441,1.00516-1.42347,1.50164a10.3457,10.3457,0,0,0-1.26775,1.52546c-.43113.66256-.8702,1.319-1.29645,1.98406a11.66825,11.66825,0,0,1-.64548,1.0534,5.232,5.232,0,0,0-.68333,1.30073,9.18238,9.18238,0,0,1-.55694,1.305A5.1771,5.1771,0,0,0,.45218,47.463a6.90212,6.90212,0,0,0-.44029,2.72359c.04336.62776.00244,1.25614.06473,1.8888a6.74959,6.74959,0,0,0,.35846,1.82347,7.69822,7.69822,0,0,0,1.52545,2.701.82679.82679,0,0,1,.10321.12762,1.7214,1.7214,0,0,0,1.17676.78532c.12213.0232.14289.07328.07084.16305-.1374.1716-.29557.32914-.41893.51112a9.52494,9.52494,0,0,0-.81462,1.28548c-.23634.51173-.34565,1.08027-.55327,1.60666A4.95507,4.95507,0,0,0,1.21,62.95694c.00061.09954.03786.2229-.00671.295A.97288.97288,0,0,0,1.138,63.945c.03359.22718-.102.4519-.0061.654a1.87462,1.87462,0,0,1,.07694.73647,2.31521,2.31521,0,0,0,.00366.29863c.1545.75844.33038,1.51752.53739,2.25825a10.898,10.898,0,0,0,1.17188,2.8848c.24915.39938.51967.78593.80059,1.16333.31815.42808.66562.83356.98928,1.258a5.067,5.067,0,0,0,1.78071,1.57127c.53251.25768,1.08578.472,1.62438.71874.55022.25283,1.09188.5258,1.64148.78105a4.51237,4.51237,0,0,0,.7322.29313,7.61272,7.61272,0,0,0,2.27169.27174,19.93768,19.93768,0,0,0,2.19535-.16488,7.76519,7.76519,0,0,0,2.01827-.604,4.73889,4.73889,0,0,0,1.42164-1.0998c.20884-.21923.39021-.38656.687-.14107.05312.044.15877.03176.24.033a8.46771,8.46771,0,0,0,.85372-.00489,1.80432,1.80432,0,0,0,.61739-.15389c.21556-.105.39327-.28457.60028-.40976.09465-.05739.2229-.16.32916.01649.01892.03176.10075.02259.15022.04153.516.19785,1.03447.39021,1.54622.59907a11.18615,11.18615,0,0,0,3.24753,1.04241c.25648.022.51907.03969.778.06656.25892.02749.51723.05984.77677.08428.1948.01832.39083.03846.58625.03785.20823,0,.41647-.03724.6241-.0342a11.12013,11.12013,0,0,0,2.0665-.16731,16.13414,16.13414,0,0,0,2.25032-.55267,4.89558,4.89558,0,0,0,1.91017-.96118.28253.28253,0,0,1,.4067.01586,2.07143,2.07143,0,0,0,1.34592.47023,3.59078,3.59078,0,0,0,1.3331-.19725.26523.26523,0,0,1,.33342.08977.8571.8571,0,0,1,.14839.23632,2.91843,2.91843,0,0,0,.53923.8922.87633.87633,0,0,1,.3267.80608c-.014.05862.07756.16488.14473.21679a2.98826,2.98826,0,0,0,1.6653.51662,1.35021,1.35021,0,0,1,.6528.07634.58465.58465,0,0,0,.33648.0055,8.057,8.057,0,0,1,1.04058-.15878,11.67826,11.67826,0,0,0,1.85156-.17954,5.14564,5.14564,0,0,0,1.58835-.49648c.47814-.25525.96485-.494,1.43689-.75906.49832-.27908.99723-.5612,1.47172-.87876A12.23458,12.23458,0,0,0,51.60918,74.076c.47572-.42319.985-.80669,1.42959-1.269a9.84551,9.84551,0,0,0,1.4088-2.11109,19.00169,19.00169,0,0,0,.8409-1.74406c.30594-.71266.59784-1.43385.85065-2.16728.1649-.47571.21863-.98989.37741-1.46805a6.85292,6.85292,0,0,0,.2235-1.443A5.30221,5.30221,0,0,0,56.49515,62.05681ZM20.91266,2.312c-.0171-.011-.0342-.02259-.0513-.03419C20.90655,2.26067,20.90961,2.28631,20.91266,2.312Z" style="fill:#774720"/><path id="fill2" d="M36.925,26.71921a6.94928,6.94928,0,0,1-.45373,2.6729c-.14168.36944-.22473.76089-.36946,1.1279a3.86612,3.86612,0,0,1-1.4082,1.67323,16.19941,16.19941,0,0,1-2.803,1.68668,1.5471,1.5471,0,0,1-.58991.21129c-.3774-.00184-.69861.27174-1.0815.18381a8.96959,8.96959,0,0,1-2.57641.16426,6.07422,6.07422,0,0,1-1.29706-.15693,6.66955,6.66955,0,0,0-.85922-.09282,8.26281,8.26281,0,0,1-2.48175-.60457,2.75442,2.75442,0,0,1-.77983-.48,22.89509,22.89509,0,0,1-1.62133-1.62681,5.96983,5.96983,0,0,1-.69982-1.11447c-.27847-.50868-.5374-1.029-.78532-1.55293a2.55642,2.55642,0,0,1-.30656-1.23844c.022-.40122.04885-.80241.08855-1.20241a.92718.92718,0,0,1,.11847-.29068c.15694-.32.31022-.6412.47816-.95448a2.99366,2.99366,0,0,1,.27662-.39816A8.18824,8.18824,0,0,1,21.723,23.054a7.37792,7.37792,0,0,1,2.00788-.91723,5.76317,5.76317,0,0,1,1.77461-.24977c.21312.00122.36152.03848.42136.31022a3.6352,3.6352,0,0,0,.68457,1.2934,2.60056,2.60056,0,0,0,1.385.77556c.10564.03908.25526-.05741.38716-.06962.1197-.01038.24183.01343.36274.01343.13985-.00061.2803-.00488.41953-.01771a1.30357,1.30357,0,0,0,1.01066-1.167c.00916-.20031.0629-.39938.0629-.59846a4.60719,4.60719,0,0,0-.06656-.61128c-.02015-.14778.02687-.20642.18259-.18809.16793.01954.3206-.1948.502-.0403.08795.01465.13924-.04519.1771-.03787a10.36259,10.36259,0,0,1,2.21123.535,8.9424,8.9424,0,0,1,1.76606,1.09493c.22961.16914.44762.35541.68578.5099a3.44634,3.44634,0,0,1,1.22256,1.92179.78707.78707,0,0,1,.00366.25464C36.9238,26.15006,36.91831,26.43525,36.925,26.71921ZM38.1824,56.17606a5.81107,5.81107,0,0,0-.36335-1.04362,31.86744,31.86744,0,0,0-2.10559-3.48571,9.8368,9.8368,0,0,0-2.519-2.44023,9.44558,9.44558,0,0,0-2.1062-1.00151,5.38348,5.38348,0,0,0-2.16422-.34991c-.16976.00917-.34257-.06351-.51418-.06229-.18931.00062-.378.04642-.56792.066a2.54166,2.54166,0,0,0-.25587.00366,9.15048,9.15048,0,0,1-1.1334.24366,5.01942,5.01942,0,0,0-1.59324.494A8.15282,8.15282,0,0,0,22.91627,49.783a9.72292,9.72292,0,0,0-1.37706,1.11386c-.23511.27541-.47021.55327-.7267.80852a5.18768,5.18768,0,0,0-1.13462,1.66713c-.12947.30656-.31877.58319-.43052.88914a8.85052,8.85052,0,0,0-.35053,1.64881.55541.55541,0,0,0,.22229.59173,3.06482,3.06482,0,0,1,.447.36335,11.56,11.56,0,0,1,1.95354,2.26192,13.48293,13.48293,0,0,1,.99417,2.0262c.2235.632.46777,1.258.68883,1.89307a11.03664,11.03664,0,0,1,.48793,1.67873,8.27318,8.27318,0,0,1,.24366,1.73187c-.014.41587-.05252.83111-.08305,1.24637-.02627.35847-.05008.71754-.08733,1.07478-.02442.22778-.07022.45373-.1087.68028-.04763.27908-.1032.55694-.1435.83723a.63013.63013,0,0,0,.21373.55143,3.51373,3.51373,0,0,0,1.39965.85129,14.72645,14.72645,0,0,0,2.05186.5099c.21373.03908.43173.05862.7328.08732a2.17608,2.17608,0,0,0,.3493.08245,7.24517,7.24517,0,0,0,2.22772-.19054,13.817,13.817,0,0,0,1.545-.49524,6.78759,6.78759,0,0,0,1.84055-1.0644c.00977-.00917.02016-.01832.03053-.02625l-.03481-.18383a11.59972,11.59972,0,0,1-.10014-1.92543A6.84517,6.84517,0,0,1,33.846,67.802a7.65248,7.65248,0,0,1,.07572-1.20607c.13251-.55143.15938-1.12729.27358-1.68362.14716-.71753.33709-1.4259.50685-2.13856.07084-.298.11664-.60456.21313-.894.138-.41159.31815-.80791.4696-1.21463a15.23853,15.23853,0,0,1,1.10471-2.44816,4.50277,4.50277,0,0,1,1.60849-1.84179A.2271.2271,0,0,0,38.1824,56.17606Zm15.213,9.0373c-.02687-.18687-.0458-.37617-.07022-.56426-.0458-.34808-.09833-.69616-.17038-1.03935A2.91685,2.91685,0,0,0,50.204,61.2031a7.05447,7.05447,0,0,0-1.92909.06473,5.87222,5.87222,0,0,0-1.51263.47205c-.41159.2174-.78778.50013-1.19448.72669a9.62534,9.62534,0,0,0-1.88452,1.418,10.03378,10.03378,0,0,0-.93982,1.10163,5.09257,5.09257,0,0,0-.59907.86105,13.30122,13.30122,0,0,0-1.178,2.96847,8.06254,8.06254,0,0,0-.2858,1.84787c.00673.56609.10748,1.1212.15817,1.68118a3.48358,3.48358,0,0,0,.41159,1.3282,7.52321,7.52321,0,0,0,.99112,1.59814c.04763.0525.0287.16.069.22472.05069.08183.12153.19419.19969.20884a5.98489,5.98489,0,0,0,.81647.0916,5.67635,5.67635,0,0,0,1.80147-.39265c.63387-.17466,1.22805-.47022,1.843-.69983a7.29,7.29,0,0,0,2.1062-1.2757c.67418-.70227,1.33248-1.37767,1.97674-2.06649a5.24326,5.24326,0,0,0,1.0357-1.4479c.26563-.60335.52638-1.20364.734-1.83141a12.65256,12.65256,0,0,0,.50136-1.96818A3.11641,3.11641,0,0,0,53.39539,65.21336Zm-35.11777,4.3553a8.68774,8.68774,0,0,0-.3206-1.61278,3.36042,3.36042,0,0,0-.30594-.85127c-.18259-.25466-.30778-.53129-.46594-.79387a15.1101,15.1101,0,0,0-.91662-1.45462c-.49769-.64364-1.04852-1.247-1.589-1.857a5.43376,5.43376,0,0,0-2.01032-1.43386,7.89483,7.89483,0,0,0-2.55016-.54227,6.10253,6.10253,0,0,0-1.16272.06351,3.55839,3.55839,0,0,0-1.07172.31144,7.01845,7.01845,0,0,0-1.3966.8641,4.25416,4.25416,0,0,0-1.36912,1.72453c-.14228.45556-.27419.88729-.38106,1.32454a4.39916,4.39916,0,0,0-.124,1.9804A13.25137,13.25137,0,0,0,6.049,70.67153a14.57513,14.57513,0,0,0,2.265,2.68939,4.329,4.329,0,0,0,.95265.78592,5.81956,5.81956,0,0,0,3.19319,1.05708,4.61208,4.61208,0,0,1,1.34164-.01527,1.37348,1.37348,0,0,0,.55937-.0745,3.64364,3.64364,0,0,0,1.11814-.39143c.22289-.12581.39938-.36275.632-.43236.30229-.09038.35236-.39877.58807-.5258a1.41789,1.41789,0,0,0,.12885-.10136,2.96877,2.96877,0,0,0,1.214-1.81126c.08671-.37127.11236-.75722.19357-1.12057A3.15417,3.15417,0,0,0,18.27762,69.56866Z" style="fill:#d6a078"/><path id="fill1" d="M8.75007,7.89565a.177.177,0,0,1,.05418.11478l-.053.0146A.25922.25922,0,0,1,8.75007,7.89565Zm12.2517,11.55079a4.50525,4.50525,0,0,1-.20862-1.86123,1.948,1.948,0,0,1,.92181-1.41782,1.37307,1.37307,0,0,1,.92807-.0597,1.52843,1.52843,0,0,1,1.05128.72146,1.55124,1.55124,0,0,1,.15722.52892,4.75117,4.75117,0,0,1,.0227,1.72757,2.78533,2.78533,0,0,1-.567.91751A1.38965,1.38965,0,0,1,21.00177,19.44644Zm.8761.25269c-.02563.00285-.05126.0057-.03417.05126ZM21.421,18.7206a3.06387,3.06387,0,0,1,.1834-.26391c.03128-.037.09487-.04459.13781-.0742.21039-.14509.50173-.25044.60524-.45172a2.33494,2.33494,0,0,0,.05158-.87173,1.90208,1.90208,0,0,1-.08446-.1781c-.08583-.23979-.20885-.28382-.3856-.11727a1.21327,1.21327,0,0,0-.48239.73651c-.02963.28792-.05611.57656-.06933.86556A2.04759,2.04759,0,0,0,21.421,18.7206ZM53.39515,65.21336a3.10148,3.10148,0,0,1-.0702.90071,12.62069,12.62069,0,0,1-.501,1.96827c-.20748.6278-.46876,1.22824-.73445,1.83129A5.23175,5.23175,0,0,1,51.054,71.36187c-.64438.68838-1.30264,1.36374-1.97639,2.066A7.27891,7.27891,0,0,1,46.971,74.70368c-.61468.22946-1.20886.52512-1.84306.70015a5.68008,5.68008,0,0,1-1.80106.39257,6.05389,6.05389,0,0,1-.81693-.09177c-.07806-.01488-.14864-.12677-.19945-.2086-.04015-.06468-.02147-.17229-.06882-.22507a7.53985,7.53985,0,0,1-.99144-1.59773,3.48757,3.48757,0,0,1-.41133-1.32867c-.05076-.55978-.15146-1.115-.15806-1.681a8.055,8.055,0,0,1,.28582-1.84765,13.26436,13.26436,0,0,1,1.17771-2.96847,5.07743,5.07743,0,0,1,.59928-.86123,9.97167,9.97167,0,0,1,.93961-1.10169,9.59364,9.59364,0,0,1,1.88459-1.41769c.40664-.22708.78292-.50983,1.19438-.7267a5.87881,5.87881,0,0,1,1.51253-.47261,7.0819,7.0819,0,0,1,1.92909-.06466,2.91629,2.91629,0,0,1,2.95076,2.40688c.072.34327.12468.6912.17039,1.03908C53.34972,64.83724,53.36867,65.02662,53.39515,65.21336Zm-.327.09282c-.00628-.28771-.07065-.5741-.07793-.86185a3.69931,3.69931,0,0,0-.41014-1.41243,2.51747,2.51747,0,0,0-2.31318-1.484,6.98171,6.98171,0,0,0-2.22606.07278,4.9581,4.9581,0,0,0-1.30439.46211c-.35021.1986-.67758.42635-1.01758.63691a8.96189,8.96189,0,0,0-2.0373,1.56723c-.30532.34-.59278.68982-.87356,1.04947a9.39437,9.39437,0,0,0-1.31747,2.5311,13.65234,13.65234,0,0,0-.37926,1.38086,3.49892,3.49892,0,0,0-.17189,1.125c.02848.52935.063,1.05848.0838,1.58815a3.55746,3.55746,0,0,0,.43343,1.61455,11.35269,11.35269,0,0,0,.78854,1.25232,1.51583,1.51583,0,0,0,1.22945.64249,6.78066,6.78066,0,0,0,1.57825-.33368,8.6702,8.6702,0,0,0,1.18364-.437A7.743,7.743,0,0,0,49.222,72.85162c.56581-.57033,1.12284-1.15056,1.65924-1.7484a6.02816,6.02816,0,0,0,.98672-1.42647,16.65047,16.65047,0,0,0,.87439-2.32994A6.544,6.544,0,0,0,53.0682,65.30618ZM8.5304,7.52085a.53224.53224,0,0,0-.058.18255c.00968.0524.01806.06442.02953.07092.00709.004.02492.00325.02767-.00142a1.37312,1.37312,0,0,0,.11027-.2006c.01124-.02937-.01519-.07317-.02449-.1104C8.58631,7.48109,8.5477,7.49407,8.5304,7.52085Zm24.036,11.88778a3.93454,3.93454,0,0,1-.51032-2.046,1.23084,1.23084,0,0,1,.57207-.94925,1.16532,1.16532,0,0,1,1.01589-.19369,3.829,3.829,0,0,1,.9092.38253c.18617.10379.41986.24829.40547.53832a1.38193,1.38193,0,0,1,.24042,1.21212,3.4389,3.4389,0,0,1-.22654,1.13949,1.12506,1.12506,0,0,1-1.17943.67434,1.18472,1.18472,0,0,1-1.22676-.75789Zm.02379-1.56691c.02257.06108.06292.28176.24178.07746a.98349.98349,0,0,1,.41694-.21607c.3265-.11361.32441-.10664.346-.45923.0055-.08967.06609-.176.07164-.26572.00352-.05671-.048-.11684-.11757-.21816-.11615.02849-.23145.061-.34857.08471A.83783.83783,0,0,0,32.59015,17.84172ZM1.70253,3.71032a.259.259,0,0,0-.12939-.00122.17705.17705,0,0,0,.1148.05415ZM56.74024,63.87364a6.8858,6.8858,0,0,1-.22347,1.4429c-.1591.47838-.213.99219-.37741,1.46825-.25314.73308-.54474,1.45427-.85115,2.16714A18.93447,18.93447,0,0,1,54.4475,70.696a9.82825,9.82825,0,0,1-1.409,2.11075c-.44455.46274-.95378.84611-1.42961,1.26944A12.23307,12.23307,0,0,1,50.283,75.11809c-.47451.31718-.97352.59926-1.4719.87871-.47223.2648-.95894.5036-1.4367.75867a5.15718,5.15718,0,0,1-1.58868.49693,11.73892,11.73892,0,0,1-1.85163.17928,8.08739,8.08739,0,0,0-1.04037.15881.58117.58117,0,0,1-.33659-.00562,1.34991,1.34991,0,0,0-.653-.07609,2.9906,2.9906,0,0,1-1.66483-.5169c-.06762-.05191-.15887-.15782-.14519-.217a.874.874,0,0,0-.3267-.8055,2.9196,2.9196,0,0,1-.53889-.89228.85112.85112,0,0,0-.14861-.23639.26549.26549,0,0,0-.33318-.09015,3.59109,3.59109,0,0,1-1.3333.19766,2.06789,2.06789,0,0,1-1.34549-.47048.283.283,0,0,0-.40731-.01573,4.89648,4.89648,0,0,1-1.91.96109,16.19107,16.19107,0,0,1-2.25038.5529,11.14265,11.14265,0,0,1-2.06626.1671c-.20782-.00313-.41609.03416-.62418.03448-.1955.00032-.39142-.01965-.58645-.038-.25914-.02442-.51748-.05709-.77638-.08412s-.52154-.04472-.77786-.06673A11.19379,11.19379,0,0,1,23.421,74.946c-.51175-.20848-1.03011-.40081-1.5461-.59883-.0493-.01892-.13085-.00954-.15015-.04169-.106-.17643-.23411-.07369-.32881-.01635-.20728.1255-.38522.30493-.60075.40968a1.79848,1.79848,0,0,1-.61709.15391,8.46256,8.46256,0,0,1-.85379.00492c-.08149-.001-.18693.011-.24013-.03294-.297-.24519-.47824-.078-.6871.14112a4.73743,4.73743,0,0,1-1.42121,1.0999,7.7446,7.7446,0,0,1-2.01846.60357,19.92282,19.92282,0,0,1-2.19538.16514,7.60638,7.60638,0,0,1-2.27184-.27184,4.51914,4.51914,0,0,1-.73219-.29281c-.54956-.25537-1.09087-.5286-1.64162-.78129-.5381-.2469-1.09178-.46073-1.62414-.719a5.06048,5.06048,0,0,1-1.78069-1.57112c-.32346-.424-.67083-.83007-.98925-1.25773-.281-.37734-.55133-.76432-.80052-1.16319A10.91147,10.91147,0,0,1,1.74958,67.8921c-.20678-.74051-.38268-1.49931-.5369-2.25789a2.35977,2.35977,0,0,1-.0038-.29842,1.87133,1.87133,0,0,0-.07715-.737c-.0959-.20185.03956-.42663.00636-.654a.97357.97357,0,0,1,.065-.69319c.0447-.07188.00746-.195.00688-.29469a4.95778,4.95778,0,0,1,.31429-1.87748c.20765-.52688.31714-1.09551.55363-1.607a9.51478,9.51478,0,0,1,.81479-1.28564c.12289-.18168.2813-.339.41888-.51116.07175-.08977.05122-.13975-.07088-.163a1.71971,1.71971,0,0,1-1.17692-.78486.82633.82633,0,0,0-.10345-.12795A7.70863,7.70863,0,0,1,.43492,53.89917a6.74959,6.74959,0,0,1-.35821-1.82361c-.06263-.633-.02173-1.26094-.06466-1.88905a6.88809,6.88809,0,0,1,.44023-2.7233,5.19952,5.19952,0,0,1,.4729-1.088,9.1573,9.1573,0,0,0,.55739-1.30453,5.22513,5.22513,0,0,1,.68323-1.3012,11.65376,11.65376,0,0,0,.64527-1.053c.42634-.665.86546-1.32184,1.29645-1.9839a10.35767,10.35767,0,0,1,1.2678-1.526c.4792-.49593.93569-1.01424,1.42366-1.50118A10.07158,10.07158,0,0,1,9.79972,35.5679c.57572-.256,1.19835-.40574,1.79754-.61005a11.39573,11.39573,0,0,1,3.43977-.25311c.06368-.00191.12826.04438.19271.0452a1.12461,1.12461,0,0,0,.42941-.02464c.43678-.18331.8569-.40609,1.2922-.59326.26563-.11423.54771-.19006.82176-.285a.523.523,0,0,0,.08835-.05113c-.02385-.01115-.04787-.03232-.07154-.032a3.80108,3.80108,0,0,1-1.28979-.39482,9.18288,9.18288,0,0,1-1.71456-.91942c-.45424-.27441-.92273-.52783-1.36426-.82471a3.86677,3.86677,0,0,1-.48681-.36912,11.05837,11.05837,0,0,1-.80925-.81085c-.39659-.45589-.775-.9281-1.14941-1.4026a7.16163,7.16163,0,0,1-.68835-.95407,11.99287,11.99287,0,0,1-.69641-1.50426,15.3814,15.3814,0,0,1-.4562-1.51948,7.40028,7.40028,0,0,1-.2281-1.1,14.0328,14.0328,0,0,1-.08653-1.58708c.00453-.75727.02236-1.51675.08747-2.27072.06347-.735.23964-1.45772.25612-2.20112a2.80329,2.80329,0,0,1,.159-.57115.2271.2271,0,0,0-.04836-.14451.16129.16129,0,0,0-.10781.03247c-.31559.30706-.74139.2228-1.11544.29274a3.423,3.423,0,0,1-1.06439.00624,6.8953,6.8953,0,0,1-2.91718-.90372,10.614,10.614,0,0,1-1.34243-.96554,2.78185,2.78185,0,0,1-.74691-1.22195q-.214-.63837-.40678-1.28369a1.041,1.041,0,0,1-.02094-.29035c-.00194-.44143.00363-.88289-.00193-1.32426a6.88685,6.88685,0,0,1,.297-1.84435,25.239,25.239,0,0,1,.8265-2.51827A7.54419,7.54419,0,0,1,3.315,6.06822c.08207-.13815.16312-.27689.266-.43673.24286-.29984.44768-.5939.68973-.85321.38674-.41433.79656-.80727,1.19967-1.20616a3.58133,3.58133,0,0,1,1.49992-.91836A6.302,6.302,0,0,0,7.939,2.21052a4.89672,4.89672,0,0,1,1.28043-.30774,5.5388,5.5388,0,0,1,1.11609-.09006,7.56623,7.56623,0,0,1,3.60744.88022,5.99628,5.99628,0,0,1,2.47557,2.36277c.12737.22511.20287.24061.35485.02343a8.99225,8.99225,0,0,1,2.72693-2.25208A21.72211,21.72211,0,0,1,22.317,1.269,21.95787,21.95787,0,0,1,24.6664.44613,11.90435,11.90435,0,0,1,26.17923.17,12.08536,12.08536,0,0,1,27.86208.00213c.30658-.01246.60738.03459.91248.01593.31209-.0191.62626-.00422.93953-.00422A8.46046,8.46046,0,0,1,30.69576.021c.49468.05816.9812.20926,1.47591.23737a5.89555,5.89555,0,0,1,1.676.39889A25.51776,25.51776,0,0,1,36.40579,1.8041a24.77135,24.77135,0,0,1,2.73513,1.54283,19.94978,19.94978,0,0,1,1.69513,1.15618A13.38252,13.38252,0,0,1,41.99551,5.7227a.71865.71865,0,0,0,.17061.101,1.274,1.274,0,0,0,.05413-.14117,3.9998,3.9998,0,0,1,.91858-1.75423,5.07334,5.07334,0,0,1,1.63764-1.3022,8.65906,8.65906,0,0,1,1.55209-.48524,8.43736,8.43736,0,0,1,1.6329-.07119,1.60934,1.60934,0,0,1,.47644.0822,4.73637,4.73637,0,0,1,2.19776,1.19162c.37566.38259.77453.74389,1.13121,1.14312a8.60846,8.60846,0,0,1,.69771.94781c.253.3764.47235.77577.731,1.148a7.58992,7.58992,0,0,1,.72849,1.49337c.10992.26778.20266.54306.29233.81847a1.09418,1.09418,0,0,1,.04938.32065c.00541.42709.01191.85461,0,1.28145a8.74505,8.74505,0,0,1-.26994,2.06816,8.78483,8.78483,0,0,1-.64864,1.48033,8.45743,8.45743,0,0,1-1.18747,1.68163,4.71744,4.71744,0,0,1-1.04956.85437,5.65648,5.65648,0,0,1-1.16088.59441,4.22438,4.22438,0,0,1-1.21438.25512,14.82507,14.82507,0,0,1-1.58716-.07414.42572.42572,0,0,1-.14962-.04963c-.16671-.0795-.25321-.06727-.25245.15538a9.15907,9.15907,0,0,0,.17412,1.937.24035.24035,0,0,1,.00043.04264,26.28784,26.28784,0,0,1,.06592,2.69717,12.67384,12.67384,0,0,1-.55768,2.96421,16.04316,16.04316,0,0,1-1.00119,2.57651,5.1717,5.1717,0,0,1-.923,1.287c-.5291.52633-1.02287,1.088-1.54657,1.61993a6.246,6.246,0,0,1-2.10691,1.30435c-.75191.31676-1.47512.70141-2.21286,1.05215-.11838.0563-.24848.0875-.36963.13869a.11439.11439,0,0,0-.058.08835c.00143.02771.04407.07624.06871.07633a1.1106,1.1106,0,0,1,.81014.41863c.126.13224.24734.101.41058.05337a10.14723,10.14723,0,0,1,1.02409-.21076,2.65291,2.65291,0,0,1,.60481-.0812,6.695,6.695,0,0,1,2.81549.72771c.3944.2089.81841.36119,1.22427.54936A6.33291,6.33291,0,0,1,47.433,36.6328c.21238.26838.41306.54768.64338.79981.28783.31505.61687.593.89906.91257.44688.50612.85708,1.04469,1.30593,1.54892a11.93883,11.93883,0,0,1,1.28735,1.81937,10.42055,10.42055,0,0,1,.64487,1.35468c.29946.716.59,1.43674.85323,2.16665a8.75311,8.75311,0,0,1,.57979,1.88908,17.36328,17.36328,0,0,1,.086,3.03622,15.53234,15.53234,0,0,1-.37,2.09717c-.14639.72578-.42888,1.39428-.64017,2.09073-.083.27366-.27582.5123-.37763.78233a8.241,8.241,0,0,1-.738,1.31631c-.10456.1735-.10572.17466.09248.22146a4.00673,4.00673,0,0,1,2.27267,1.013c.17427.194.42615.32093.589.52191a6.309,6.309,0,0,1,1.16081,1.52456,16.24092,16.24092,0,0,1,.77352,2.32913A5.32035,5.32035,0,0,1,56.74024,63.87364ZM38.92515,37.2294a8.17871,8.17871,0,0,0,1.14731,2.68316A15.15967,15.15967,0,0,0,42.222,42.60711c.23385.22915.45864.46775.69676.69229a4.38729,4.38729,0,0,0,.44719.36265c.22534.16234.254.15187.3927-.09992.10845-.19686.21192-.39646.321-.593.11932-.215.2334-.25465.41453-.15008a.29.29,0,0,1,.11142.471,3.54139,3.54139,0,0,0-.524,1.32438c-.16914.594.12859,1.07434.22108,1.60352.01018.05823.08758.14456.17676.02722q.532-.6998,1.07453-1.39163a.496.496,0,0,1,.51642-.14546c.06513.0114.13568.12231.16148.20155.06027.185-.09833.27459-.20393.38143a6.29163,6.29163,0,0,0-.77052.78664,11.02881,11.02881,0,0,0-1.32458,2.60914,8.40578,8.40578,0,0,0-.357,1.60673,14.76175,14.76175,0,0,0-.15441,2.45064,3.63842,3.63842,0,0,0,.10193.81121,6.28076,6.28076,0,0,0,.9255,2.00571,3.77346,3.77346,0,0,0,1.527,1.40195c.10719.04772.18379.16878.26823.26168.093.10232.15306.14728.30693.0435a2.36282,2.36282,0,0,1,.75087-.34235c.443-.1062.88871-.2118,1.338-.296a7.10031,7.10031,0,0,1,1.387-.13849,1.46064,1.46064,0,0,0,1.24707-.66676,4.22471,4.22471,0,0,0,.49456-.819c.28429-.67937.55217-1.36761.78235-2.06687.13724-.41687.14481-.878.29412-1.2889a4.06787,4.06787,0,0,0,.2071-1.31514,15.03651,15.03651,0,0,0-.054-2.74212,6.67069,6.67069,0,0,0-.25941-1.134c-.242-.697-.48095-1.39512-.72546-2.09126a5.84876,5.84876,0,0,0-.60005-1.37511,2.53364,2.53364,0,0,1-.13667-.32689,5.99007,5.99007,0,0,0-.32263-.63445c-.281-.44125-.5804-.87076-.915-1.34778a22.08626,22.08626,0,0,0-2.38557-2.72843,4.71215,4.71215,0,0,1-.53936-.54659,6.73142,6.73142,0,0,0-1.38423-1.5575,7.85432,7.85432,0,0,0-1.59764-.89053c-.4983-.20611-1.00374-.395-1.502-.60116a2.51886,2.51886,0,0,0-1.13335-.259c-.34035.02116-.68306.00518-1.02473.00409a1.195,1.195,0,0,0-.81646.29908c-.05962.05183-.13365.12074-.2026.12253-.348.009-.47493.27-.55676.52346A4.19171,4.19171,0,0,0,38.92515,37.2294ZM20.86114,2.278l.05126.03419C20.90955,2.28652,20.9067,2.26089,20.86114,2.278ZM19.76869,33.42452c.45473-.02054.91117-.00378,1.36684-.00378a1.32553,1.32553,0,0,0,.2554-.00454c.04768-.00951.08628-.0644.129-.09887-.04218-.03021-.085-.05955-.1264-.0908a2.67517,2.67517,0,0,1-.35476-.2742A9.3774,9.3774,0,0,1,19.859,31.51985a17.54731,17.54731,0,0,1-1.3405-2.52031A4.18329,4.18329,0,0,1,18.301,26.471a5.1633,5.1633,0,0,1,1.388-2.57969,11.41582,11.41582,0,0,1,1.44244-1.14649,8.5872,8.5872,0,0,1,1.0467-.66909,9.09209,9.09209,0,0,1,.91758-.361,3.38547,3.38547,0,0,1,1.4394-.34145c.071.00376.1658.03006.2095-.0046.18536-.14711.34377-.0713.53513-.00591a.75292.75292,0,0,0,.4976-.01577c.07926-.03352.07811-.23895.12946-.36a1.7388,1.7388,0,0,1,.95453-1.128c.09927-.03526.19725-.07414.29688-.10831a2.00876,2.00876,0,0,1,1.54579.11818,2.578,2.578,0,0,1,1.09974,1.02256c.08709.1432.13636.1733.2722.11254a.56472.56472,0,0,1,.18986-.05547,7.40641,7.40641,0,0,1,2.94143.42524,4.42037,4.42037,0,0,1,.60979.27534c.60972.39089,1.21573.78892,1.80542,1.2091.282.2009.51512.46884.78639.68647a3.22785,3.22785,0,0,1,1.1181,2.4387,2.26692,2.26692,0,0,0,.06166.69571,2.013,2.013,0,0,1-.06732.7284,8.15838,8.15838,0,0,1-.20143,1.37019,19.602,19.602,0,0,1-.715,2.13815,4.6102,4.6102,0,0,1-1.182,1.555,8.51653,8.51653,0,0,1-.96613.64622c-.04843.033-.06483.113-.096.17127a.47456.47456,0,0,0,.14879.04459,9.27528,9.27528,0,0,0,1.49959-.097,10.09786,10.09786,0,0,0,2.36685-.88015,21.3363,21.3363,0,0,1,2.03172-.97189,6.27245,6.27245,0,0,0,2.13687-1.33178c.54181-.51208,1.03528-1.07557,1.545-1.62108a3.55439,3.55439,0,0,0,.42067-.50932A8.91806,8.91806,0,0,0,45.554,25.7489a19.83714,19.83714,0,0,0,.61857-2.26912,12.5722,12.5722,0,0,0,.215-1.47935c.04515-.81-.03221-1.6273-.06793-2.44109a6.92424,6.92424,0,0,0-.08631-.86124,4.45671,4.45671,0,0,1-.07693-1.90089.54182.54182,0,0,1,.187-.25841c.03291-.02654.13254.03712.2036.04927a7.03082,7.03082,0,0,0,1.0399.16249,4.998,4.998,0,0,0,1.67161-.08092,4.92765,4.92765,0,0,0,1.761-.899,10.69563,10.69563,0,0,0,.99138-.99082A6.432,6.432,0,0,0,53.03987,13.072a5.34016,5.34016,0,0,0,.44886-1.60493c.07072-.72454.07026-1.45622.09248-2.18509a.75153.75153,0,0,0-.06148-.31476,14.2869,14.2869,0,0,0-1.0308-2.18261,12.1431,12.1431,0,0,0-1.9527-2.60789A5.25264,5.25264,0,0,0,48.99709,3.0388a5.1849,5.1849,0,0,0-1.42516-.36559,5.0154,5.0154,0,0,0-2.24837.43769,4.18107,4.18107,0,0,0-1.93874,1.58338,7.61677,7.61677,0,0,0-.73627,1.57607,4.445,4.445,0,0,1-.17462.43989.28527.28527,0,0,1-.457.06062c-.17413-.1937-.34186-.39328-.50887-.59324-.114-.13651-.21721-.28223-.33372-.41648a12.82074,12.82074,0,0,0-2.55449-1.98271,16.16114,16.16114,0,0,0-2.10558-1.20381,12.47278,12.47278,0,0,0-1.30348-.66729c-.573-.2-1.09757-.50837-1.69187-.66923-.35626-.09643-.70907-.21016-1.07223-.297a6.60808,6.60808,0,0,1-.77339-.08787A4.27335,4.27335,0,0,0,30.235.63394c-1.16789-.03855-2.33958.031-3.50947.06644a4.14859,4.14859,0,0,0-.77524.08751c-.42687.09531-.84378.23477-1.2699.334A12.54929,12.54929,0,0,0,22.4111,1.935,22.15657,22.15657,0,0,0,19.024,3.86363,8.06306,8.06306,0,0,0,16.95117,5.757a.97124.97124,0,0,1-.24369.23482.32568.32568,0,0,1-.54513-.18052A4.39657,4.39657,0,0,0,15.01484,4.198a6.342,6.342,0,0,0-2.48357-1.43237,8.84837,8.84837,0,0,0-1.81881-.34538A7.31254,7.31254,0,0,0,9.34,2.4965a3.59365,3.59365,0,0,0-.53974.137,9.59,9.59,0,0,0-1.14331.43634A5.91218,5.91218,0,0,0,5.5,4.46114a14.47553,14.47553,0,0,0-1.835,2.278,8.017,8.017,0,0,0-.81384,1.84054,10.67173,10.67173,0,0,0-.46793,1.82c-.07345.53529-.20318,1.0656-.22733,1.608-.00891.20012.08578.40565.07252.60466a3.08506,3.08506,0,0,0,.27167,1.386,3.115,3.115,0,0,0,.75152,1.27534,7.05956,7.05956,0,0,0,1.4443.96135,3.84132,3.84132,0,0,0,1.70363.52916,3.49908,3.49908,0,0,1,.64766.08381,3.5584,3.5584,0,0,0,1.477-.07985,3.99055,3.99055,0,0,0,.84445-.33821,1.72258,1.72258,0,0,1,.47171-.09693c.19914-.03652.26294.19677.24151.2398-.12165.24456-.004.51063-.081.73727a3.73593,3.73593,0,0,0-.24733,1.47766.40338.40338,0,0,1-.001.12775,7.71118,7.71118,0,0,0-.25515,1.98744c.001.76894-.00809,1.538.0041,2.30676a3.59338,3.59338,0,0,0,.09828.9848c.06838.223-.005.45617.08744.64481a7.30007,7.30007,0,0,1,.32633,1.01922,7.06664,7.06664,0,0,0,.39676,1.07349,13.50522,13.50522,0,0,0,1.35438,2.04475c.269.3489.58571.66269.83732,1.02277a3.79412,3.79412,0,0,0,1.143,1.04883c.57827.35948,1.147.73447,1.72884,1.08792a9.24223,9.24223,0,0,0,1.04686.56575,7.15082,7.15082,0,0,0,1.08376.37221A7.24566,7.24566,0,0,0,19.76869,33.42452Zm6.15814-11.22759c-.05971-.27145-.20805-.30857-.42152-.3102a5.76692,5.76692,0,0,0-1.77414.25,7.35985,7.35985,0,0,0-2.00786.91729,8.17113,8.17113,0,0,0-1.94969,1.6728,3.00416,3.00416,0,0,0-.2766.39781c-.16789.31355-.32136.63488-.47777.95449a.92809.92809,0,0,0-.11861.2909c-.03965.39978-.06655.801-.08872,1.20228a2.56139,2.56139,0,0,0,.30637,1.23843c.24789.52427.50706,1.04414.78527,1.55282a6.00255,6.00255,0,0,0,.7,1.11474,22.8284,22.8284,0,0,0,1.6216,1.62657,2.75961,2.75961,0,0,0,.77934.48041,8.27415,8.27415,0,0,0,2.48181.60448,6.6252,6.6252,0,0,1,.85952.09234,6.03,6.03,0,0,0,1.29708.15714,8.95689,8.95689,0,0,0,2.576-.16407c.38349.08771.70467-.18585,1.082-.18411a1.54524,1.54524,0,0,0,.58995-.21123,16.22152,16.22152,0,0,0,2.80282-1.68641,3.87042,3.87042,0,0,0,1.408-1.67318c.14512-.36728.22823-.75886.36971-1.12782a6.9546,6.9546,0,0,0,.45337-2.67288c-.00625-.28448-.001-.56921-.001-.85382a.79118.79118,0,0,0-.00368-.25482,3.444,3.444,0,0,0-1.22225-1.92153c-.23858-.15471-.45631-.34132-.68592-.51015a8.94988,8.94988,0,0,0-1.76617-1.09509,10.377,10.377,0,0,0-2.211-.53486c-.03841-.00723-.08939.05236-.17724.03813-.18178-.15467-.33393.05993-.50192.04013-.15611-.0184-.2032.04042-.18277.188a4.5275,4.5275,0,0,1,.06633.6111c.00019.19955-.05327.39859-.06291.59883a1.30261,1.30261,0,0,1-1.01021,1.1667c-.13916.01324-.27961.01717-.41949.01753-.12113.00031-.24352-.02375-.36313-.01285-.13156.012-.2816.10852-.38719.06955a2.6021,2.6021,0,0,1-1.38511-.77574A3.63593,3.63593,0,0,1,25.92683,22.19693ZM16.24212,37.31274a4.775,4.775,0,0,1-.06729,1.03542,6.291,6.291,0,0,1-.52361,1.62247c-.29321.54671-.56628,1.1042-.85859,1.65141-.13772.2578-.30015.50236-.45088.75323-.34249.57-.66769,1.15127-1.031,1.70766a4.32229,4.32229,0,0,1-1.92445,1.97849c-.15013.05757-.17412.14476-.18326.28213a4.90528,4.90528,0,0,1-.08636.73273,3.30466,3.30466,0,0,1-.44372,1.26614c-.05877.082-.02292.09768.01383.15651a4.63007,4.63007,0,0,0,.34066.582,6.64379,6.64379,0,0,1,.94029,1.57808,6.27778,6.27778,0,0,1,.341,1.86355,2.214,2.214,0,0,1-.07762.60411,7.525,7.525,0,0,1-.17866,1.03731,3.94266,3.94266,0,0,1-.64177,1.57134.18093.18093,0,0,0,.05869.28635,1.45194,1.45194,0,0,0,.28937.12484,6.7174,6.7174,0,0,1,.63726.21428c.40356.18729.48348.17995.82256-.13029a2.7007,2.7007,0,0,1,1.64828-.74461,4.541,4.541,0,0,1,1.55632-.04118,6.32232,6.32232,0,0,1,1.31119.348c.17431.09.36871.14027.55106.21563.2382.09843.252.08792.27132-.14969a3.05715,3.05715,0,0,1,.088-.60405,7.53487,7.53487,0,0,1,.34124-.96843c.24149-.54121.49208-1.08017.77364-1.60127a11.289,11.289,0,0,1,1.761-2.08355,8.52228,8.52228,0,0,1,1.31654-1.03055c.41216-.30371.84017-.58583,1.2552-.88577a5.25315,5.25315,0,0,1,1.53328-.73141,8.59872,8.59872,0,0,1,.99088-.19862,9.60076,9.60076,0,0,1,1.64869-.24127,6.76016,6.76016,0,0,0,.69741-.00163c.25005-.02905.49456.02881.82693.00613a6.04775,6.04775,0,0,1,.64652.08884,11.90786,11.90786,0,0,1,2.53626.9866,6.79455,6.79455,0,0,1,1.46135,1.10665,9.258,9.258,0,0,1,1.53844,1.74476c.21773.33446.47618.65744.69163,1.00065a16.14647,16.14647,0,0,0,.99348,1.6322,5.29387,5.29387,0,0,1,.882,2.03133c.03292.11846.07336.1233.16315.12474a5.15726,5.15726,0,0,1,1.2473.07967c.31172.08144.63879.103.95235.17879a7.07969,7.07969,0,0,1,2.26571,1.02422c.34817.232.67637.49412,1.02542.72472.16441.10861.33551.21475.55548.0475.31942-.24284.66677-.44885.9991-.67514a.10676.10676,0,0,0-.009-.096,5.4689,5.4689,0,0,1-1.63893-1.39967,6.07073,6.07073,0,0,1-1.27771-3.57293,5.89931,5.89931,0,0,1,.07217-1.24775,11.92681,11.92681,0,0,1,.088-1.20361c.12089-.43869.13708-.90888.28056-1.338.17866-.53444.44122-1.0408.66668-1.55964a.37156.37156,0,0,0,.00851-.36034,6.82436,6.82436,0,0,1-.51626-1.74932.52168.52168,0,0,1,.03223-.3651c.11544-.15532-.00173-.20918-.07668-.27106-.25243-.20847-.53875-.38115-.76807-.61136-.66739-.66995-1.32-1.355-1.9646-2.047a4.28522,4.28522,0,0,1-.71641-.89877,16.91622,16.91622,0,0,1-1.22517-2.26889,6.94277,6.94277,0,0,1-.49781-2.2701.82018.82018,0,0,0-.00481-.297c-.25044-.603.07282-1.09891.30467-1.60071.13476-.29165.17659-.28427-.04265-.47281a3.73547,3.73547,0,0,0-.37564-.22262c-.2408-.16109-.59463.03707-.79434-.25312-.00729-.01059-.05433-.00157-.07867.00847a8.72991,8.72991,0,0,1-1.65142.35747,4.40441,4.40441,0,0,1-1.63877-.05117,1.17371,1.17371,0,0,0-.77627.15719,5.533,5.533,0,0,1-1.22228.55568c-.37836.07569-.752.17575-1.12662.26929a5.95953,5.95953,0,0,1-1.48122.23948,1.2468,1.2468,0,0,0-.46527.01048,2.10271,2.10271,0,0,1-1.07817.05877c-.446-.04446-.88641-.14851-1.34027-.159a6.22252,6.22252,0,0,1-.94625-.08625c-.53972-.09631-1.08145-.1965-1.6084-.34468a5.20625,5.20625,0,0,1-1.41721-.49808.82662.82662,0,0,0-.43015-.086c-.17364.00221-.34984.08637-.51928.07131-.29192-.02593-.57819.2227-.8682.01136-.19931.16328-.437.08972-.64891.07434a4.90072,4.90072,0,0,0-2.12356.34746c-.55382.21058-1.11969.3905-1.6673.61549a1.14879,1.14879,0,0,0-.34308.18339c-.16006.16645.23349.12774.17126.31018-.0094.02754.03823.07.04246.10744.0424.37636.24634.73022.09988,1.137C16.12287,36.94187,16.24393,37.13975,16.24212,37.31274ZM3.76654,57.11719a.28616.28616,0,0,0,.20295-.01693c.28652-.13407.56369-.28854.85231-.41758a11.593,11.593,0,0,1,1.81569-.7622c.4888-.12387.97986-.25739,1.47205-.37627a2.63444,2.63444,0,0,1,1.52017.08486,4.56435,4.56435,0,0,0,.82479.17185c.13035.01906.29213.05466.38265-.09792a3.73068,3.73068,0,0,0,.3628-.66048,8.16126,8.16126,0,0,0,.5145-2.51892c.003-.20129-.05231-.40344-.08079-.69063a5.31465,5.31465,0,0,0-.21922-.892,10.52345,10.52345,0,0,0-1.77315-2.72562A11.44887,11.44887,0,0,0,7.98062,46.8487c-.10693-.08421-.12649-.16406-.09771-.21589a.85173.85173,0,0,1,.25572-.2697c.144-.10066.25707.0368.34536.108.53662.43269,1.06185.87957,1.58823,1.32484.09057.0766.14656.13144.19734-.03856a2.96984,2.96984,0,0,0,.279-1.53748,6.87127,6.87127,0,0,0-.424-1.53829c-.08254-.18017-.00874-.29691.17943-.32459a.38982.38982,0,0,1,.47528.29051,4.20777,4.20777,0,0,1,.24716.70686c.04891.29055.22071.15285.31153.09969a3.66008,3.66008,0,0,0,1.14543-1.18017c.31168-.46338.592-.94838.87522-1.4303.558-.94973,1.13277-1.89084,1.65444-2.86035a4.77571,4.77571,0,0,0,.63388-2.51151c-.0132-.27367-.07512-.5458-.07769-.819a2.22946,2.22946,0,0,0-.16886-.91475.71483.71483,0,0,0-.68865-.52205c-.484-.00391-.96809.00189-1.4521-.00175a4.90128,4.90128,0,0,0-1.602.25774,16.1807,16.1807,0,0,0-1.75445.60894,8.57269,8.57269,0,0,0-2.41156,1.702c-.62944.62713-1.22511,1.288-1.84732,1.92256a11.69031,11.69031,0,0,0-1.44166,1.83888c-.30462.46907-.59185.94958-.88084,1.42861-.30887.512-.63461,1.01583-.90833,1.54628-.23453.45448-.3756.95745-.61269,1.41034A11.99068,11.99068,0,0,0,.95412,47.8871a5.86975,5.86975,0,0,0-.32679,1.60857c-.024,1.05475.041,2.11155.07173,3.16745a.68153.68153,0,0,0,.04156.153,9.49047,9.49047,0,0,0,.37283,1.08415,7.08592,7.08592,0,0,0,1.7061,2.71335,1.36952,1.36952,0,0,0,.446.27C3.4373,56.94885,3.59553,57.04937,3.76654,57.11719ZM19.29979,72.86788a6.53956,6.53956,0,0,0,.61459-2.51777c.02021-.15252-.0783-.31783-.07379-.47587a10.14081,10.14081,0,0,0-.35169-2.50431c-.08324-.37236-.22264-.73216-.33655-1.18311a1.04558,1.04558,0,0,1-.08444-.13627,19.78776,19.78776,0,0,0-.80368-1.84253c-.36429-.654-.83261-1.24958-1.24594-1.877-.23434-.35568-.434-.73479-.67678-1.08419-.27144-.39059-.59412-.74607-.85857-1.14089a12.60979,12.60979,0,0,0-1.53253-1.83411,9.0623,9.0623,0,0,0-1.23311-.926,3.02091,3.02091,0,0,0-.77715-.48952,8.25152,8.25152,0,0,0-1.86281-.45848c-.23618-.01658-.46521-.11775-.70152-.1542a2.85285,2.85285,0,0,0-.89738-.07889,2.72125,2.72125,0,0,0-.97625.21357,2.39023,2.39023,0,0,1-.50677.11363,3.07662,3.07662,0,0,0-1.35165.5545.77712.77712,0,0,1-.28755.12522,3.2,3.2,0,0,0-.74786.25034,4.39329,4.39329,0,0,0-1.36723,1.33026,12.51242,12.51242,0,0,0-.9091,1.80355,7.06437,7.06437,0,0,0-.42684,1.48536,7.73806,7.73806,0,0,0-.091,1.414c.00388.643.045,1.286.08206,1.92832a3.57777,3.57777,0,0,0,.10062.812c.22685.76026.41867,1.53.65232,2.28908a10.21042,10.21042,0,0,0,1.66292,3.11244,13.48645,13.48645,0,0,0,.94679,1.267,5.09278,5.09278,0,0,0,1.26721,1.149c.45669.23813.92446.44956,1.38839.67023.6892.32786,1.39.63184,2.07364.97074a5.44057,5.44057,0,0,0,2.2825.56194,10.31084,10.31084,0,0,0,1.76-.0568c.564-.08,1.12831-.1392,1.68519-.271a3.57635,3.57635,0,0,0,1.75172-.92563c.37195-.36921.72694-.75706,1.11659-1.10638A3.82745,3.82745,0,0,0,19.29979,72.86788ZM22.254,71.967a14.41774,14.41774,0,0,0,.47816-1.42376c.12447-.49584.18034-1.009.26453-1.51483.03113-.1871.07029-.3741.08338-.5627.03571-.51449.059-1.02984.08861-1.54478.00311-.05384.01727-.107.02367-.16072a2.19814,2.19814,0,0,0,.05423-.52913c-.066-.494-.152-.98623-.25343-1.47432a8.61394,8.61394,0,0,0-.28706-1.07653c-.28966-.833-.60576-1.65686-.9041-2.487a9.95332,9.95332,0,0,0-1.33629-2.39074,12.41944,12.41944,0,0,0-1.07745-1.17971,4.49772,4.49772,0,0,0-1.54693-1.11173,4.7962,4.7962,0,0,0-1.31112-.42817,4.87534,4.87534,0,0,0-1.67243.059,2.67694,2.67694,0,0,0-1.30182.68079c-.12262.12167-.10773.18505.01086.27683a7.11915,7.11915,0,0,1,.79977.6392c.45314.47037.893.95711,1.29888,1.46843.44507.56069.84816,1.15492,1.26453,1.73813a15.57374,15.57374,0,0,1,.8553,1.31127c.17118.25662.34882.50922.5121.77079a8.56784,8.56784,0,0,1,.77953,1.3,6.00183,6.00183,0,0,0,.38792.82372,3.47831,3.47831,0,0,1,.3639.95645c.15551.64954.34769,1.28773.45928,1.95282a10.17963,10.17963,0,0,1,.23121,1.77739c-.00437.48791-.02378.97293-.07,1.461a4.56812,4.56812,0,0,1-.40062,1.50458,3.48509,3.48509,0,0,1-.83928,1.27749.10789.10789,0,0,0,.02.09073c.11414.03556.26152.11929.34206.078a1.56229,1.56229,0,0,1,.65384-.07365c.05621-.00457.12524.01795.16752-.00713A5.794,5.794,0,0,0,21.87466,72.83,2.906,2.906,0,0,0,22.254,71.967ZM35.09086,73.751a1.56866,1.56866,0,0,1-.12072-.20611,10.54788,10.54788,0,0,1-.65754-1.22434,14.67367,14.67367,0,0,1-.44477-1.90239,11.59168,11.59168,0,0,1-.1-1.92567,6.85245,6.85245,0,0,1,.07842-.69074,7.64178,7.64178,0,0,1,.07549-1.20591c.13223-.55135.15946-1.1271.27373-1.68376.14722-.71713.33665-1.42557.50658-2.13807.07116-.29831.11668-.60486.21354-.89439.13756-.41118.31772-.8079.469-1.21475a15.26573,15.26573,0,0,1,1.10475-2.44812A4.50488,4.50488,0,0,1,38.09812,56.375a.22683.22683,0,0,0,.08438-.199,5.79409,5.79409,0,0,0-.36362-1.04369,31.85433,31.85433,0,0,0-2.10556-3.48558,9.8382,9.8382,0,0,0-2.51883-2.4403,9.44971,9.44971,0,0,0-2.10639-1.00119,5.37375,5.37375,0,0,0-2.16393-.35011c-.16965.00947-.34289-.06336-.5143-.06247-.1894.001-.37825.04642-.568.066a2.546,2.546,0,0,0-.25561.004,9.1755,9.1755,0,0,1-1.13383.24339,5.01717,5.01717,0,0,0-1.59273.49419,8.15274,8.15274,0,0,0-1.94328,1.18306,9.73932,9.73932,0,0,0-1.37748,1.11336c-.23478.2759-.4699.55336-.72617.80873a5.19186,5.19186,0,0,0-1.13491,1.6671c-.1293.307-.31848.58354-.43033.889a8.87228,8.87228,0,0,0-.35066,1.6489.55542.55542,0,0,0,.2225.592,3.05131,3.05131,0,0,1,.44657.36306,11.5563,11.5563,0,0,1,1.95387,2.262,13.46,13.46,0,0,1,.99374,2.02648c.22356.63211.468,1.25773.6889,1.89267a11.06948,11.06948,0,0,1,.4884,1.67875,8.261,8.261,0,0,1,.24324,1.73219c-.01364.41581-.05256.83086-.083,1.246-.02628.35855-.04982.71749-.08742,1.0749-.024.2281-.07025.45394-.10863.68043-.04728.2791-.10277.557-.14335.837a.63023.63023,0,0,0,.214.55144,3.50736,3.50736,0,0,0,1.39916.85118,14.71891,14.71891,0,0,0,2.05191.5103c.21412.03887.43172.05858.73316.08705a2.11963,2.11963,0,0,0,.34936.08257,7.25118,7.25118,0,0,0,2.22737-.19048,13.671,13.671,0,0,0,1.5449-.49557,3.97533,3.97533,0,0,0,1.43414-.76526c.02839-.02733.06017-.05115.09039-.07659.01185.03778.02669.07493.0351.11349a.418.418,0,0,1-.20712.46733,5.0366,5.0366,0,0,1-.48748.26553,7.64128,7.64128,0,0,1-1.76618.68641,8.931,8.931,0,0,1-1.43995.32266,17.51557,17.51557,0,0,1-2.39733-.08017,7.29781,7.29781,0,0,1-1.64844-.34468,3.91141,3.91141,0,0,1-1.45387-.6182,7.533,7.533,0,0,0-.7643-.51975c-.08171-.0556-.16177-.08957-.1701.04723a3.83209,3.83209,0,0,1-.248.75086,4.2748,4.2748,0,0,1-.8504,1.65495c-.10352.12544-.07117.19259.0402.23352.23532.08645.484.13691.7182.226.61474.23389,1.23429.4589,1.83405.72738a5.91121,5.91121,0,0,0,2.57535.58894.97756.97756,0,0,1,.29773.00376,5.98834,5.98834,0,0,0,1.34061.15808,10.72517,10.72517,0,0,0,2.32869-.24125,15.23892,15.23892,0,0,0,2.39814-.60863,8.92993,8.92993,0,0,0,.91338-.37165,3.22,3.22,0,0,0,.37759-.22264C35.113,74.00852,35.201,73.91262,35.09086,73.751Zm3.53272-.09568a4.332,4.332,0,0,1-.296-1.11491,7.70682,7.70682,0,0,1-.21014-1.325,13.15939,13.15939,0,0,1,.17022-2.91995c.09592-.37622.11775-.77462.24155-1.13977.23643-.69724.52077-1.3783.78764-2.06514a3.27042,3.27042,0,0,1,.2037-.47037c.2083-.3567.44006-.69968.64836-1.05636a15.4232,15.4232,0,0,1,1.73913-2.43807c.53108-.60217,1.10151-1.16977,1.65722-1.75007a.49037.49037,0,0,0-.066-.79408,6.61919,6.61919,0,0,0-.56383-.39179,8.36433,8.36433,0,0,0-1.44959-.82776,6.28389,6.28389,0,0,0-2.72105-.44391,1.20344,1.20344,0,0,0-.76221.32643,9.34886,9.34886,0,0,0-1.67166,2.81137,9.84671,9.84671,0,0,0-.37954,1.03838,9.83139,9.83139,0,0,0-.46527,1.427c-.1045.58166-.33992,1.12712-.39382,1.72386a12.802,12.802,0,0,1-.302,1.408c-.04938.23878-.0561.48688-.11228.72362a3.63169,3.63169,0,0,0-.14819.87828c.00583.5837.00168,1.16749.00168,1.83669a6.7093,6.7093,0,0,0,.00785.89615c.05382.396.19008.781.24244,1.1771a4.36569,4.36569,0,0,0,.69528,1.848.57679.57679,0,0,0,.5494.31934c.25061-.01686.3517.13635.38634.41154.00812.06464.01756.16116.059.18419a1.7969,1.7969,0,0,0,.67389.31528,1.87,1.87,0,0,0,1.21586-.14382C38.59788,73.94715,38.7216,73.88251,38.62358,73.65527ZM56.03883,63.09893a12.18788,12.18788,0,0,0-.32009-1.31723,12.31139,12.31139,0,0,0-.68385-1.89458,3.67346,3.67346,0,0,0-.29694-.49274,4.554,4.554,0,0,1-.6261-.64,3.44981,3.44981,0,0,0-1.50534-1.21062,4.94222,4.94222,0,0,0-1.60578-.43612,7.08066,7.08066,0,0,0-2.14056.06783,3.14473,3.14473,0,0,1-.528.16019,3.72916,3.72916,0,0,0-1.40361.43408,8.70233,8.70233,0,0,0-2.68095,1.77651c-.26921.27091-.55048.53072-.80772.81249q-.6322.69255-1.23809,1.409c-.29018.3442-.57643.69471-.8304,1.06569-.31609.46163-.5913.951-.89467,1.42163a12.73252,12.73252,0,0,0-1.15429,2.46888,8.01354,8.01354,0,0,0-.44808,1.869c-.06557.54607-.10564,1.09349-.14836,1.64a4.37252,4.37252,0,0,0,.075,1.374c.091.37724.18011.75685.23464,1.14044a5.76948,5.76948,0,0,0,.45235,1.30886A4.28773,4.28773,0,0,0,40.61337,75.937a.41066.41066,0,0,1,.15458.40749c-.0174.13765.03088.20212.16588.272a2.99325,2.99325,0,0,0,1.24659.28341,8.48412,8.48412,0,0,0,1.33287-.05621c.61525-.06514,1.23312-.075,1.85189-.17262a6.26339,6.26339,0,0,0,1.9012-.57676c.1996-.10165.40536-.19143.60308-.2965a11.92951,11.92951,0,0,0,1.82027-1.08118c.47044-.3684.96819-.70022,1.42673-1.09067A11.55886,11.55886,0,0,0,52.60751,72.297a10.513,10.513,0,0,0,1.32632-2.01462,18.42559,18.42559,0,0,0,.97382-2.1599c.15666-.44687.33278-.88971.501-1.33034.18344-.48058.25746-.97482.39282-1.45877a7.60311,7.60311,0,0,0,.25152-1.17491A4.01717,4.01717,0,0,0,56.03883,63.09893ZM48.71445,8.152a3.59477,3.59477,0,0,0,.087.36291c.04529.14027.05479.30741.2337.363a2.81259,2.81259,0,0,0-.06771-.3742C48.92121,8.358,48.89315,8.19037,48.71445,8.152Zm-5.11334.98688c-.05176.2803.18087.401.446.28424.298-.13121.29589-.12453.48469.189a2.15253,2.15253,0,0,0,.2806.31272c-.03787-.1507-.06706-.30444-.11778-.45069a.34332.34332,0,0,0-.1357-.15541.69609.69609,0,0,1-.28773-.73674c.01677-.15007.02918-.30062.04356-.451a1.86689,1.86689,0,0,0,.30543.29633,1.19719,1.19719,0,0,1,.33047.37377c.10625.1495.17488.32532.26787.485a.11916.11916,0,0,0,.10743.0354.10676.10676,0,0,0,.05257-.09193,1.30463,1.30463,0,0,0-.129-.3298,2.39324,2.39324,0,0,0-.865-.96288.37077.37077,0,0,1-.041-.51646c.18757-.17933.23629.05892.32251.12911a6.79589,6.79589,0,0,1,1.20981,1.7172.84916.84916,0,0,1,.06147.14509c.01433-.065.06068-.14553.03794-.19267-.17773-.36829-.34884-.74237-.562-1.09017a6.40169,6.40169,0,0,0-.60123-.77552,1.85408,1.85408,0,0,0-.29255-.21522c-.15539-.12105-.04247-.23306.00279-.36119.05922-.1675.10941-.05845.2025-.04138.43836.08042.63433.42047.82281.74971.26184.45743.485.937.72479,1.40707.03.05877.06035.11735.09055.176a1.9842,1.9842,0,0,0,.04161-.23419c.00237-.03518-.02657-.073-.04308-.10883-.17079-.37053-.32611-.74933-.517-1.10923a2.48019,2.48019,0,0,0-.99146-1.156c-.21041-.10691-.01653-.22709-.06879-.32692a.74194.74194,0,0,1,.25252-.00878,1.70409,1.70409,0,0,1,.8503.69915A7.77443,7.77443,0,0,1,47.00967,9.2612c.01433.05549.08636.09607.13156.14359.01176-.0663.05636-.15277.03-.19564-.17786-.28926-.15216-.63707-.31062-.94118a8.03863,8.03863,0,0,0-1.03914-1.78819c-.18918-.209-.40168-.39678-.594-.60317-.04607-.04946-.09273-.17735-.07241-.19583.08253-.07513.26359-.186.27878-.16883.15836.17865.391.244.55786.42654a8.20457,8.20457,0,0,1,.92834,1.58557c.05938.10336.11239.21079.17826.30973.01741.02613.07177.02766.10916.04049a.37585.37585,0,0,0-.01677-.11176,4.6887,4.6887,0,0,1-.34652-.70951,5.2589,5.2589,0,0,0-.39427-.821c-.15309-.314-.41839-.53115-.58492-.82461a.80038.80038,0,0,1-.04947-.14513.551.551,0,0,1,.15539-.03345.41.41,0,0,1,.19.05289,2.874,2.874,0,0,1,1.09325,1.2039,13.64134,13.64134,0,0,1,.86951,1.86077c.006.02179.0699.0329.10818.03749.01353.00164.048-.03672.04449-.04735-.0874-.26248-.1634-.53038-.27434-.78283-.07961-.18122-.24309-.32906-.30636-.51335a4.8403,4.8403,0,0,0-1.13588-1.79432,1.41835,1.41835,0,0,1-.15157-.23463c.09383-.014.18757-.02875.28151-.04193.10377-.01458.13354.024.15569.13384.016.07948.11965.1576.20225.20467a2.24259,2.24259,0,0,1,.86209,1.04623c.19479.40089.31975.83511.4946,1.24651a3.08212,3.08212,0,0,0,.31011.50848,2.534,2.534,0,0,0-.09636-.53708c-.15171-.37821-.33558-.74339-.501-1.11626-.24271-.547-.41259-1.14657-1.0456-1.40335a.09622.09622,0,0,1-.03143-.07.69516.69516,0,0,1,.54446.09782c.04629.06439.06484.16283.12458.20127a3.04172,3.04172,0,0,1,1.00243,1.45956c.18578.40641.34292.82582.51708,1.23762a2.07927,2.07927,0,0,0,.13317.23075c.01206-.09464.02758-.18908.0334-.28409.0012-.01978-.0407-.03885-.05047-.06317a8.43429,8.43429,0,0,0-1.05394-2.2552.791.791,0,0,1-.08366-.25853,1.08389,1.08389,0,0,1,.20907.13871c.16212.17138.32.34768.46792.53141a6.81361,6.81361,0,0,1,.85668,1.7799c.035.08512.08424.16441.12688.24637.01431-.09355.0319-.1868.04038-.28088.00184-.02031-.03469-.04142-.04417-.06581q-.24321-.62528-.48414-1.25144c-.01209-.03126-.02932-.06053-.04417-.09072a.9158.9158,0,0,1,.14512.0232.142.142,0,0,1,.06054.05855A5.78889,5.78889,0,0,1,50.425,8.42066c.04658.20627.112.40855.17727.60987.00733.02262.07028.03435.10828.0366.01706.001.053-.03541.05148-.05226a1.20262,1.20262,0,0,0-.037-.19729c-.07094-.26936-.14595-.53766-.214-.8077-.00883-.035.014-.07806.02218-.11739.02032.03637.04.07314.061.1091a4.71058,4.71058,0,0,1,.50791,2.00877c.02757.29636-.0147.59905.01023.89589a1.28757,1.28757,0,0,1-.21858.7234c-.02525.04812-.11366.08322-.112.12164a.73332.73332,0,0,0,.07556.33985c.0201.03317.18881.00308.27167-.03613a.578.578,0,0,0,.21654-.1949,1.58291,1.58291,0,0,0,.36245-1.17484,2.24468,2.24468,0,0,1-.00306-.38382A5.63347,5.63347,0,0,0,51.10858,7.587a4.3053,4.3053,0,0,0-.30189-.6409c-.31942-.41665-.66535-.815-1.02378-1.199a8.41826,8.41826,0,0,0-.74632-.66725,2.94171,2.94171,0,0,0-1.934-.79335,5.316,5.316,0,0,0-.7351.072,2.85788,2.85788,0,0,0-2.2961,1.71835,5.84521,5.84521,0,0,0-.47772,1.80718C43.54359,8.29819,43.67992,8.712,43.60111,9.13884Zm-33.55663-.5725c.00285.02563.0057.05126.0299.05554A.05088.05088,0,0,0,10.04448,8.56634Zm2.82179.75415a.11951.11951,0,0,0,.02762-.07918A.11965.11965,0,0,0,12.86627,9.32049Zm1.67335-1.61085a4.58454,4.58454,0,0,0-.48124-1.55181,3.72209,3.72209,0,0,0-1.30816-1.34855,4.42607,4.42607,0,0,0-2.27143-.68713,2.4365,2.4365,0,0,0-.905.07042A5.24289,5.24289,0,0,0,8.256,4.62381,8.51189,8.51189,0,0,0,6.44462,6.01942c-.13683.13269-.239.3004-.36575.44436-.25821.29323-.54585.564-.77572.87749a1.73051,1.73051,0,0,0-.32232.715A10.07732,10.07732,0,0,0,4.814,9.81955a6.64308,6.64308,0,0,0-.01642,1.59514c.00692.02667.01318.06791-.001.08346-.15537.17048-.053.377-.08333.5642a.18915.18915,0,0,0,.16244.243c.0552.00384.15076-.10805.17377-.18395a3.41154,3.41154,0,0,0,.17942-1.20887.68508.68508,0,0,1,.05333-.20494.92282.92282,0,0,1,.11.20989,1.13162,1.13162,0,0,1,.00434.25518c0,.54089-.00073,1.08179.00155,1.62268a.41238.41238,0,0,0,.03452.11318.3729.3729,0,0,0,.04788-.09458,3.65423,3.65423,0,0,0,.0831-.51961c.01283-.3554-.001-.71165.00554-1.0674a1.17294,1.17294,0,0,0-.16314-.66011A.64791.64791,0,0,1,5.3164,10.223c.01465-.38729.05025-.77383.08316-1.16022a.10632.10632,0,0,1,.073-.07283c.02989-.00258.08656.02911.09118.05352.03529.1862.062.37408.08888.5618.05784.4033.10849.80778.17632,1.20936.01242.07342.09244.13538.14124.20262a1.08746,1.08746,0,0,1-.05828-.2109c-.00957-.12739.00988-.2575-.005-.38385A8.38026,8.38026,0,0,0,5.7431,9.25342c-.2209-.84046-.211-.84356-.0031-1.43658a.49686.49686,0,0,1,.08132-.11344.75677.75677,0,0,1,.08685.1085,2.54211,2.54211,0,0,1,.25292,1.04656c.02169.29733-.00272.59778.00836.89628a1.36438,1.36438,0,0,0,.0817.30632c.01087.03807.02377.07555.03573.1133.01652-.03134.04844-.06326.04726-.09393a7.6462,7.6462,0,0,0-.13833-1.98924c-.0623-.20631-.23771-.48364-.02957-.72973.117-.1383.2376-.27418.36681-.40069.01578-.01545.13526.02841.13894.05439.03847.27147.07152.54434.08981.81791.03471.51933.058,1.03939.089,1.559a.33193.33193,0,0,0,.04447.10208.37935.37935,0,0,0,.03756-.11188q.00342-1.02485-.00053-2.04969c-.00023-.05-.04149-.09883-.04687-.15-.02824-.26818-.14751-.55339.11122-.77741.101-.08747.21667-.15806.32566-.23635.01313.12267.03673.24527.0376.368.004.56932.00065,1.13874.004,1.70808a.43578.43578,0,0,0,.04843.13411.54069.54069,0,0,0,.03364-.11376c.03036-.42933.03753-.86155.09371-1.28737a5.91976,5.91976,0,0,0-.01478-.86952.42357.42357,0,0,1,.20354-.34278c.01863-.01655.139.03164.1395.05173a6.14835,6.14835,0,0,1-.00413,1.0658,8.30508,8.30508,0,0,0-.15881,1.34.78193.78193,0,0,0,.03368.15624,1.46864,1.46864,0,0,0,.04865-.17788c.0103-.06874.001-.14056.01279-.2089.07987-.46458.17377-.927.24147-1.3933.04746-.32709.03793-.66355.10127-.98655a.45765.45765,0,0,1,.28677-.2881c.17055-.04236.16885.16151.20855.27331a.67782.67782,0,0,1,.00442.25434c-.027.458-.057.91586-.08332,1.37392a.47131.47131,0,0,0,.02358.11768c.02015-.03677.04176-.07282.06014-.11045A5.959,5.959,0,0,0,8.814,6.365c.00034-.34163.01395-.684-.00524-1.02456-.011-.19487.11521-.27777.2348-.36358a.21548.21548,0,0,1,.18938.07284,2.82938,2.82938,0,0,1,.091.56041A6.76557,6.76557,0,0,1,9.0872,7.38929a5.84593,5.84593,0,0,0-.09683.59906c-.00467.0437.05847.09464.09038.14225.02505-.04023.07214-.08062.07185-.12066a7.35277,7.35277,0,0,1,.33121-1.61528c.07075-.32479-.08772-.66951.093-.98706.01857-.03261-.06486-.11244-.0767-.175-.05827-.30785.06561-.43012.40659-.43738.14017-.003.211.01708.19157.18114-.04052.34277-.02937.68788-.06594,1.0342-.07859.74381-.28238,1.45871-.39207,2.19266a.31929.31929,0,0,0,.01718.09822c.03219-.01885.08793-.03295.09284-.05731a5.88726,5.88726,0,0,1,.10785-.59705,12.87242,12.87242,0,0,0,.49153-2.699c.00865-.09494.00919-.14554.13343-.15457.40376-.02934.47269.02509.46722.42459a.81362.81362,0,0,1-.00278.21272c-.16625.55692-.34426,1.11034-.50686,1.66828a2.1762,2.1762,0,0,0-.06721.51881,8.00219,8.00219,0,0,0,.57768-1.60283c.08-.307.17912-.6094.25134-.91815.03429-.1467.10747-.24936.24585-.20419.11493.03751.30678.04246.2745.26776a3.32718,3.32718,0,0,1-.00921.42419c-.18253.63336-.41586,1.25383-.56566,1.8942-.079.33788-.33649.6224-.26187.99342a4.1043,4.1043,0,0,0,.48278-1.17257c.23108-.63047.40351-1.2823.61089-1.9218.02881-.08888.14839-.23477.17-.22538a1.13472,1.13472,0,0,1,.3671.23942c.10743.112-.07081.13367-.10409.20568-.0552.11948-.16928.23315-.17248.35159a7.29523,7.29523,0,0,1-.342,1.39468c-.07821.351-.30151.66466-.24325,1.04294a1.47984,1.47984,0,0,0,.148-.331c.1287-.443.3392-.85642.43667-1.313A7.38319,7.38319,0,0,1,12.578,5.73335c.02462-.06624.10568-.153.16237-.15424a.22969.22969,0,0,1,.1657.14626.4506.4506,0,0,1,.02973.22936,8.43527,8.43527,0,0,1-.52567,1.79047,5.983,5.983,0,0,0-.21408.72116.47492.47492,0,0,0-.0082.09021c.03848-.00919.09887-.00651.11147-.02974a2.08242,2.08242,0,0,0,.10328-.25512c.1074-.28236.222-.56228.31989-.8479.12816-.37377.23848-.75365.36734-1.12715A.93618.93618,0,0,1,13.24427,6.08a.76232.76232,0,0,1,.16016.1992.429.429,0,0,1-.02164.22807c-.0362.14033-.07985.279-.12639.41636-.15621.461-.30936.92308-.47529,1.38054-.08493.23413-.19881.45764-.28912.69-.016.04115.01967.10238.03148.15432a1.11776,1.11776,0,0,1,.06085-.13055,11.94293,11.94293,0,0,0,.92995-2.2155.89492.89492,0,0,1,.07058-.12439c.03312.04627.06548.09311.09948.13875a.45616.45616,0,0,1-.0161.51959c-.184.37828-.3774.75311-.53722,1.14159a3.93585,3.93585,0,0,0-.1944.76326c.13213-.25317.23644-.50944.3553-.75874.15317-.32131.31492-.63866.48188-.953.01913-.036.09547-.04157.14528-.06125-.015.16882.19.30252.06547.49432-.12242.1885-.22776.38857-.33339.58737-.08026.15109-.15266.30666-.22036.46377-.01353.03138.01007.07878.01654.1188.04026-.02474.09536-.04.11832-.07582a5.75672,5.75672,0,0,1,.383-.606c.07766-.09284.1229-.36038.37707-.1671.075.057.26751-.2005.24757-.33215C14.56112,7.871,14.54379,7.79066,14.53962,7.70964Zm-2.95494.75645a.11951.11951,0,0,0,.02762-.07918A.1196.1196,0,0,0,11.58468,8.46609ZM29.15054,61.58891a.42511.42511,0,0,0-.32619-.3926c-.15181-.05194-.20258.0875-.29259.206a2.66275,2.66275,0,0,0-.31418,1.789.98932.98932,0,0,0,.17417.43519.24485.24485,0,0,0,.19677.11349c.05621-.01343.11927-.11914.12609-.18958a.518.518,0,0,0-.05008-.31531,1.1574,1.1574,0,0,1-.11383-.67948c-.02848-.08778-.08482-.1358-.0804-.17737a2.75108,2.75108,0,0,1,.0829-.43356,1.62309,1.62309,0,0,1,.13135-.32861c.02146-.04052.08672-.05783.132-.08573a1.01808,1.01808,0,0,1,.07415.16284,1.32949,1.32949,0,0,1,.082.39033,7.152,7.152,0,0,0,.178,1.76292.73374.73374,0,0,0,.075.16167c.03131-.06233.09259-.12667.08859-.18664-.01538-.23075-.06212-.45938-.078-.69011C29.201,62.61767,29.17346,62.10334,29.15054,61.58891ZM23.068,29.424a5.96306,5.96306,0,0,1-1.61344-.74439.25286.25286,0,0,0-.37174.03914.25772.25772,0,0,0,.02324.37363c.05982.05375.13587.08935.1961.14273a3.79531,3.79531,0,0,0,1.16316.59486,6.29644,6.29644,0,0,0,1.87261.419,4.20606,4.20606,0,0,0,1.6645-.29818,2.76883,2.76883,0,0,0,1.489-1.13313,7.91928,7.91928,0,0,0,.56488-1.09252,1.01,1.01,0,0,1,.16367-.19977c.04334.06124.08965.12064.12953.18408a4.08476,4.08476,0,0,0,.60044.86392c.30178.28484.62455.537.95072.79244a4.00788,4.00788,0,0,0,1.94157.88181,3.392,3.392,0,0,0,2.5439-.64924,2.69,2.69,0,0,0,1.17588-1.6011,2.70148,2.70148,0,0,1,.20487-.46922c.08288-.19337.14753-.39611.24682-.58037.069-.128-.0544-.17816-.06489-.26918a.56252.56252,0,0,0-.17364.07787,1.73856,1.73856,0,0,0-.49364.6486c-.09229.25849-.2673.48609-.38149.73834a2.87814,2.87814,0,0,1-1.49546,1.30946,4.89,4.89,0,0,1-.58739.12733,2.086,2.086,0,0,1-1.6206-.14953,4.48841,4.48841,0,0,1-2.39065-2.16047c-.02129-.04834-.06572-.08635-.08793-.13445a1.40891,1.40891,0,0,1-.24023-.91679,4.4172,4.4172,0,0,0,.1518-1.384.822.822,0,0,0-.14925-.404c-.15715-.22408-.20609-.19553-.36163.05139-.16087.25536-.03515.5222-.0806.82169a4.53686,4.53686,0,0,1-.18056,1.4638c-.11739.38741-.32745.74587-.481,1.12342a2.56468,2.56468,0,0,1-.70266,1.028,3.77322,3.77322,0,0,1-3.60587.5048ZM10.80062,8.72867a.54167.54167,0,0,0,.04272-.25632A.54188.54188,0,0,0,10.80062,8.72867Zm-.49753-1.03152a.11966.11966,0,0,0,.02762-.0792A.11959.11959,0,0,0,10.30309,7.69715ZM10.61828,9.276a.17724.17724,0,0,0,.05418.1148.25874.25874,0,0,0-.00122-.12938Zm.8445-.291c.02848.02847.057.01423.08544,0C11.51974,8.97074,11.49126,8.95651,11.46278,8.985Zm6.81458,60.58382a3.15861,3.15861,0,0,1-.04161,1.16279c-.08167.36335-.10713.74931-.19359,1.12018a2.96927,2.96927,0,0,1-1.21424,1.81138,1.40327,1.40327,0,0,1-.12907.10156c-.23523.12686-.28573.43531-.58819.52581-.23235.0695-.40908.30664-.63151.432a3.65225,3.65225,0,0,1-1.11835.39152,1.37249,1.37249,0,0,1-.55914.07467,4.60524,4.60524,0,0,0-1.34211.01488,5.81233,5.81233,0,0,1-3.1928-1.05706,4.29479,4.29479,0,0,1-.95253-.78536,14.55034,14.55034,0,0,1-2.265-2.68983A13.23591,13.23591,0,0,1,4.614,67.29123a4.39974,4.39974,0,0,1,.12363-1.98c.10693-.43755.23908-.86894.3813-1.32443A4.258,4.258,0,0,1,6.488,62.26169a7.015,7.015,0,0,1,1.3968-.86372,3.56,3.56,0,0,1,1.07163-.31169,6.07688,6.07688,0,0,1,1.16243-.06309,7.88359,7.88359,0,0,1,2.55014.54219,5.43218,5.43218,0,0,1,2.01058,1.43384c.54052.6097,1.09136,1.21315,1.5888,1.85711a14.99607,14.99607,0,0,1,.91667,1.45438c.15815.26242.28367.53907.46608.79368a3.38517,3.38517,0,0,1,.30579.85121A8.66637,8.66637,0,0,1,18.27736,69.56882Zm-.48643-.50477a3.61854,3.61854,0,0,0-.24006-1.14168c-.1349-.41247-.29815-.81567-.4918-1.26562a10.52881,10.52881,0,0,0-1.15413-1.82533A19.50094,19.50094,0,0,0,13.94811,62.693a2.8841,2.8841,0,0,0-.29224-.22193,6.02994,6.02994,0,0,0-1.98645-.88054,14.47033,14.47033,0,0,0-1.56835-.22141,4.67344,4.67344,0,0,0-1.07545.06009,3.39839,3.39839,0,0,0-1.27284.44268,10.04081,10.04081,0,0,0-1.35178.97783A3.67853,3.67853,0,0,0,5.39207,64.313c-.18335.39328-.193.83138-.34577,1.22377A3.17194,3.17194,0,0,0,4.99347,67.476a7.53368,7.53368,0,0,0,.73979,1.91264A10.87829,10.87829,0,0,0,7.05277,71.537a21.75776,21.75776,0,0,0,2.0025,2.05869,6.99385,6.99385,0,0,0,.96331.66088,4.50531,4.50531,0,0,0,1.46693.5789,3.25879,3.25879,0,0,0,.85129.0964,6.07248,6.07248,0,0,1,.91967-.0707,4.72282,4.72282,0,0,0,1.593-.1797,1.51993,1.51993,0,0,0,1.06473-.71959c.04559-.09008.16171-.14623.24909-.21308a9.05718,9.05718,0,0,0,.871-.67181,2.762,2.762,0,0,0,.64645-1.39054,10.30084,10.30084,0,0,0,.18272-1.80408C17.87839,69.61183,17.79,69.33685,17.79093,69.06405ZM10.7579,8.72867a.99767.99767,0,0,0-.02761.25007c.01631-.0699.03308-.13969.04857-.20976C10.78169,8.75616,10.77926,8.74215,10.7579,8.72867Z"/></g></g></svg>