<svg xmlns="http://www.w3.org/2000/svg" viewBox="0 0 60.75 84.1"><defs><style>.cls-1{fill:#ffe0ae;}.cls-2{fill:#754c24;}.cls-3{fill:#e5bb70;}</style></defs><g id="Layer_2" data-name="Layer 2"><g id="heritage-door-1-front"><path id="fill4" class="cls-1" d="M60.49,10a4.35,4.35,0,0,0-1-.58c-1-.35-2-.65-3.07-1L51.59,7c-1.5-.46-3-1-4.52-1.38C44.48,5,42,4,39.52,3.15c-1.81-.6-3.6-1.29-5.4-1.93-.9-.33-1.83-.6-2.72-1-.51-.21-.85-.4-1.45,0a12.79,12.79,0,0,1-2.87,1.29c-1.2.43-2.44.72-3.65,1.11s-2.34.87-3.53,1.26c-1.9.65-3.82,1.25-5.73,1.88S10.62,7,8.83,7.58L4.07,9.12c-1.17.38-2.34.79-3.5,1.21-.3.12-.64.33-.56.73a1.49,1.49,0,0,0,1.61,1.27c.26,0,.51,0,.77,0s.33,0,.22.31A1.49,1.49,0,0,0,2.91,14c.12.16.55.1.84.13.08,0,.19,0,.23,0s.4.26.41.39c0,.86,0,1.73,0,2.59s-.09.78-.85.91a1.16,1.16,0,0,0-.67.53c-.29.48-.07.91.31,1.28a1.41,1.41,0,0,1,.21.31,1.77,1.77,0,0,1-.4.08c-.29,0-.58,0-.86,0a.76.76,0,0,0-.81.81c0,.11.06.22.07.33s-.08.49.25.62.32.33.17.61a4.75,4.75,0,0,0-.67,2.82,3.64,3.64,0,0,0,1.42,3c.06,0,.08.12.12.19a1.18,1.18,0,0,1-.2.07,6.57,6.57,0,0,0-.77,0c-.14,0-.37.24-.36.29.17.46-.06,1.12.62,1.39.15.05.29.33.32.52.07.58.08,1.16.11,1.74s.08,1.45.09,2.18c0,1.94.08,3.88.11,5.82,0,.33,0,.66,0,1s-.09.65-.08,1c0,.56.09,1.12.08,1.67s0,1.33-.08,2c0,1.58,0,3.1,0,4.62,0,.94-.08,1.88-.08,2.82s.07,1.68.09,2.52c0,1.68.08,3.37.1,5,0,.85,0,1.71,0,2.56q0,8.1-.07,16.18v.29c0,.41,0,.81,0,1.21,0,.21,0,.23-.21.2a2.8,2.8,0,0,0-.29,0c-.72,0-1.08.34-1.09,1s.34.92,1.07.93l6.46.06a.61.61,0,0,1,.19,0,1.9,1.9,0,0,0,1.48-.09,1.28,1.28,0,0,1,.58-.11c.87,0,1.74.08,2.62.08,1.54,0,3.09-.09,4.63-.13H19l7,0c.53,0,1.06-.09,1.59-.09,1.13,0,2.25,0,3.38.07.94,0,1.87.08,2.8.07,1.6,0,3.19-.11,4.77-.1a70.67,70.67,0,0,1,9.32.22c1.29.17,2.58.2,3.88.28s2.74.13,4.1.17c.53,0,1,0,1.56,0a6.85,6.85,0,0,0,1.36,0,1.13,1.13,0,0,0,.75-.53.82.82,0,0,0-.32-1,1.19,1.19,0,0,1-.43-1c0-1.39.09-2.78.09-4.17,0-1.61-.08-3.21-.09-4.81q-.08-7.12-.13-14.24V57.14c0-1.17.08-2.34.08-3.51,0-2.51,0-5,0-7.53V44q-.06-3.69-.11-7.37c0-.79.06-1.58.09-2.38v-.09c0-1,0-2,0-3,0-.37,0-.8.45-1.06a2.08,2.08,0,0,0,.62-.69.56.56,0,0,0-.47-.84c-.39,0-.5-.18-.21-.48a4.32,4.32,0,0,0,1.11-3c0-.26,0-.53-.07-.78a7.76,7.76,0,0,0-.21-1.17c-.1-.38-.27-.74-.41-1.12a.56.56,0,0,1,0-.61.4.4,0,0,0,0-.32,2,2,0,0,0-1.24-1.15c-.22-.09-.28-.11-.14-.38.51-1,.32-1.67-.88-2-.21-.05-.54-.26-.56-.43a18.35,18.35,0,0,1-.11-2.57c0-.89.09-.85.92-1.08a1.21,1.21,0,0,0,.68-.67.63.63,0,0,0-.36-.77c-.11,0-.17-.18-.26-.26a1.94,1.94,0,0,1,.39-.12,17.9,17.9,0,0,0,1.94,0,.85.85,0,0,0,.6-.44C60.67,10.81,61,10.37,60.49,10Z"/><path id="fill3" class="cls-2" d="M52,21.78c.08.23.12.46.19.69s.12.21.09.27a5.86,5.86,0,0,1-.3.55c0-.17-.05-.35-.08-.53s-.14-.62-.19-.94a1.22,1.22,0,0,1,.09-.27A1.07,1.07,0,0,1,52,21.78ZM52.91,61c0-4.21-.08-8.43-.12-12.65,0-.66,0-1.32,0-2-.05-1.33-.17-2.66-.18-4,0-1,.12-1.92.17-2.88s.07-1.62.1-2.43c0-1,.07-2.07.09-3.1,0-.65,0-1.3,0-1.94a3,3,0,0,0-.64-2.21.82.82,0,0,1,0-1.22.85.85,0,0,0,.22,0,1.4,1.4,0,0,0,.3-.15l-.29-.25-.43-.34-.27-.19a3.92,3.92,0,0,0-.16.36.88.88,0,0,0,0,.28c.1,2.18.26,4.35.28,6.52.06,3.88,0,7.76,0,11.63,0,.46.09.91.09,1.37s-.09,1-.08,1.46c0,.89.07,1.78.09,2.67,0,1.26,0,2.53,0,3.8,0,1,0,2,0,3,0,.68-.09,1.38-.08,2.06,0,2.61.09,5.23.09,7.85,0,2.87.1,5.73-.16,8.58,0,.46,0,.92,0,1.38l-.09,2.49a1.88,1.88,0,0,0,0,.53.46.46,0,0,0,.66.32c.21-.06.45-.21.21-.52-.06-.07,0-.23,0-.34,0-.77.08-1.55.09-2.33,0-.61-.11-1.23-.09-1.85,0-2.21.12-4.43.17-6.65,0-1,0-2.1,0-3.16,0-.82.08-1.64.08-2.47C53,63.44,52.92,62.22,52.91,61Zm-.77-40.46s0-.22-.08-.25a.9.9,0,0,0-.33,0c-2.82,0-5.62-.06-8.44,0s-5.62.08-8.42.13c-1.06,0-2.1.1-3.15.12-2.52,0-5,0-7.57,0-1.13,0-2.25-.15-3.39-.16s-2,.07-3,.1c-1.6.05-3.21.09-4.82.12-1,0-2,0-3.05,0H8.39c-.27,0-.39,0-.17.33a2.34,2.34,0,0,1,.23,1c0,.18,0,.39.05.53a4.08,4.08,0,0,1,.42,3.12,15.51,15.51,0,0,1-1.16,2.76c-.18.37-.19.38.2.45.73.12,1.12.59,1,1.19a2.24,2.24,0,0,1-.54.84.92.92,0,0,0-.32.79c.05.78.08,1.55.1,2.33s0,1.37,0,2c0,1.38.07,2.75.09,4.13,0,.35-.08.71-.09,1.08,0,.19.09.38.09.58,0,.48-.09,1-.08,1.43s.08,1.1.09,1.65c0,1.65.07,3.3.11,4.95,0,1.91.07,3.82.1,5.74,0,2.78.07,5.57.11,8.35q.06,3,.11,6.06c0,2.09.09,4.18.09,6.27,0,1-.06,2-.08,3.06,0,.75,0,1.49,0,2.24,0,.14.19.28.3.4.09-.11.24-.22.25-.35a8,8,0,0,0,0-1c0-1.5,0-3,0-4.52,0-.81.09-1.62.09-2.43,0-1.84-.09-3.69-.09-5.53,0-1.23.07-2.46.08-3.68,0-.67-.09-1.34-.09-2,0-3.5.06-7,.06-10.49,0-2.19-.1-4.37-.09-6.54,0-3.52.11-7,.17-10.54,0-1,.07-2.08.09-3.12,0-.29,0-.58,0-.88a18.35,18.35,0,0,0,.18-1.95c0-1.09-.16-2.18-.18-3.27,0-1.25.06-2.52.08-3.78,0-.49.19-.68.69-.66.74,0,1.48.07,2.22.07.55,0,1.1-.09,1.65-.1l3.92,0,3,0c1,0,2,0,3,0,2,0,4,.08,6,.05,1.73,0,3.47-.2,5.21-.19s3.7.2,5.56.23c1.7,0,3.41-.07,5.11-.11S49.52,21,51.25,21A1,1,0,0,0,52.14,20.55ZM48.36,9.66c-1.49-.44-3-.88-4.45-1.34-1.18-.36-2.35-.74-3.52-1.14C38.91,6.66,37.45,6.09,36,5.57c-1.16-.41-2.34-.78-3.51-1.15A4.56,4.56,0,0,0,30.82,4a11.12,11.12,0,0,0-2.35.6c-1.89.59-3.76,1.23-5.65,1.82s-4,1.15-6,1.79C15.22,8.72,13.62,9.36,12,10l-.28.14c.11.05.22.15.32.14.48,0,.94-.08,1.41-.09.77,0,1.53,0,2.31,0,.15,0,.29-.07.54-.1.4,0,.81.1,1.21.09,4-.07,8,0,12-.22,2.92-.16,5.87,0,8.81,0,2.23,0,4.46-.1,6.7-.12,1.12,0,2.25.05,3.37.07a1.22,1.22,0,0,0,.26-.06C48.51,9.75,48.44,9.69,48.36,9.66Z"/><path id="fill2" class="cls-2" d="M30.19,67.72c0,1,0,1.94,0,2.87s-.06,2-.08,3c0,.51,0,1,0,1.52,0,.29-.09.59-.09.88,0,.73.11,1.46.08,2.19a20.57,20.57,0,0,1-.29,2.58c0,.16-.28.29-.44.41s-.16,0-.24,0c-2.94.05-5.88.08-8.82.16-1.29,0-2.58.13-3.87.2-.77,0-1.55.09-2.32.1-.59,0-1.19,0-1.78-.08h-.2c-.92.07-.94.07-1-.9-.08-2-.2-4-.2-5.92,0-5.52,0-11,.06-16.55,0-.82.08-1.63.09-2.45,0-1.76,0-3.53,0-5.29,0-.41-.09-.81-.09-1.23,0-.65.09-1.32.08-2,0-1.53-.08-3.07-.1-4.61,0-1.77,0-3.56,0-5.33,0-.33,0-.66,0-1,0-1.46,0-2.91.09-4.37,0-1.07.16-2.14.17-3.21,0-1.41-.05-2.83-.09-4.23a.37.37,0,0,0,0-.14c-.25-.89-.13-1.07.75-1.09s2-.09,2.94-.1,2.09.06,3.13.07c.5,0,1-.1,1.5-.1l7.8.05c.58,0,1.16-.08,1.75-.09s.68,0,.75.63c.08.81.14,1.63.19,2.44,0,.38,0,.79,0,1.17,0,1.54.17,3.08.08,4.61-.32,5.24-.1,10.47-.13,15.71,0,1.65.14,3.3.18,4.95.05,2.21.08,4.43.11,6.64q0,1.13,0,2.25c0,.21-.1.42-.08.63,0,1,.16,2,.18,3S30.23,66.82,30.19,67.72ZM50.42,74c-.05-1.65-.16-3.3-.19-5,0-1.13.07-2.27.08-3.4s0-2.3,0-3.46c0-2.39-.06-4.77-.1-7.17,0-1.18-.09-2.37-.09-3.56,0-.85.06-1.71.08-2.57,0-.66,0-1.31,0-2s0-1.2,0-1.81c0-1.42-.13-2.84-.19-4.27,0-.74-.08-1.49-.1-2.23,0-1.17-.08-2.33-.1-3.5,0-1.74-.06-3.49-.11-5.23,0-1.32-.13-2.63-.2-3.94,0-.28,0-.57,0-.85,0-.47,0-.95.1-1.42s-.28-.88-.79-.74a1.27,1.27,0,0,1-.26,0c-2,.05-4.06.11-6.08.12-.9,0-1.81-.13-2.71-.17-1.66-.06-3.32-.13-5-.16-.83,0-1.67.07-2.51.11h0c-.62.08-.65.11-.63.76,0,.2.09.39.1.59,0,1.11.08,2.21.09,3.32,0,2.18.08,4.35.11,6.54,0,.48-.07,1-.09,1.47,0,1-.07,2.09-.09,3.15s-.08,2.26-.09,3.4c0,.91.08,1.84.1,2.76,0,1.8,0,3.61,0,5.41,0,1,.15,1.92.19,2.88.08,1.76.16,3.52.2,5.29.06,2.73.08,5.45.11,8.19,0,1.23,0,2.46,0,3.69C32.15,72.58,32,74.78,32,77c0,1,0,2,0,3,0,.18-.07.43,0,.53s-.16.72.41.74c1,0,1.94.13,2.91.16,1.31.05,2.64.05,4,.09s2.38.11,3.58.18l4.26.26a12.18,12.18,0,0,1,1.21.19,1.48,1.48,0,0,0,1.85-.84.9.9,0,0,0,.1-.39,8.78,8.78,0,0,1-.09-1c0-.73.15-1.45.18-2.17s0-1.48,0-2.33C50.36,74.92,50.43,74.48,50.42,74Z"/><path id="fill1" class="cls-3" d="M36.31,51.41a1.79,1.79,0,0,1-.49.91,1.77,1.77,0,0,1-2,.21,2,2,0,0,1-1.26-1.86,3.37,3.37,0,0,1,.9-1.78,4.19,4.19,0,0,1,.11.53.24.24,0,0,1,0,.12,2.84,2.84,0,0,0-.4,1.5c0,.55.38.77.73,1a1.11,1.11,0,0,0,1.27-.18c.33-.27.23-.58.25-.94,0-.8-.15-1.11-1-1.28-.26-.05-.62-.56-.51-.79s.4-.21.64-.08a1.32,1.32,0,0,0,.3.09A2.07,2.07,0,0,1,36.31,51.41Zm-8.21-2A2.31,2.31,0,0,1,27.67,53a1.76,1.76,0,0,1-1.79-.44c-.29-.23-.64-.46-.53-.93v-.05c-.09-.36-.36-.81-.24-1.06a2.62,2.62,0,0,1,1-1.15,3.22,3.22,0,0,1,1.4-.15A2,2,0,0,1,28.1,49.38Zm-.81.49c-.58,0-1.05.44-1.31,1.26-.15.48.06.87.73,1.25A1,1,0,0,0,28,52.09a3.3,3.3,0,0,0,.24-.71C28.46,50.55,28.05,49.88,27.29,49.87Z"/><path id="void" d="M3.66,38.83c0,1.21-.16,2.43-.17,3.65,0,1.58.06,3.16.1,4.75,0,.41,0,.82,0,1.23,0,1.73.06,3.45.11,5.18,0,.89.06,1.78.09,2.67,0,1.15.1,2.3.1,3.45,0,1.31-.05,2.62-.08,4,.06,2.34.14,4.64.19,6.94,0,.55-.07,1.1-.08,1.65,0,1,0,2,0,3,0,.22,0,.44,0,.66,0,.77.08,1.53.09,2.3s-.09,1.44,0,2.15a1.18,1.18,0,0,0,.64.73c.13.05.51-.27.66-.5a2.07,2.07,0,0,0,.29-.94c.07-.9.08-1.81.11-2.72s.09-2,.08-3.06c0-1.91-.06-3.81-.1-5.72,0-1.44-.06-2.88-.1-4.32,0-.66-.07-1.32-.1-2,0-1-.08-1.94-.1-2.91,0-3.23-.06-6.46-.12-9.69,0-1.77-.14-3.53-.19-5.3,0-.81,0-1.62,0-2.43,0-2,0-4,0-6,0-.89-.07-1.78-.09-2.67,0-.21.13-.45,0-.62A.65.65,0,0,0,4.12,32a.8.8,0,0,0-.45.4,4.9,4.9,0,0,0-.22,2.55A38.83,38.83,0,0,1,3.66,38.83ZM4,33.2a1.72,1.72,0,0,1,.45-.34c0,.17,0,.33,0,.5,0,.54.09,1.08.14,1.62,0,.17,0,.34,0,.52s0,.4,0,.59c0,.35-.09.69-.09,1,0,1.31,0,2.63,0,3.94,0,.54,0,1.07,0,1.61.06,1.94.15,3.89.19,5.83.06,3.2.07,6.4.12,9.61,0,1.21.06,2.42.1,3.64,0,.86.07,1.71.1,2.57,0,1.08.06,2.17.1,3.25,0,.77.07,1.54.1,2.3,0,.44,0,.88,0,1.33,0,1.71,0,3.42-.09,5.14,0,1,0,1.91-.09,2.86a7.23,7.23,0,0,1-.2,1.13c0,.13-.14.23-.22.34a1.19,1.19,0,0,1-.15-.35c0-.63,0-1.27,0-1.9,0-2-.08-4-.1-5.92,0-.76.1-1.52.08-2.28,0-1.06-.14-2.11-.18-3.17,0-.54.06-1.08.09-1.62a.23.23,0,0,0,0-.13c0-1.2,0-2.39,0-3.59,0-.14,0-.27,0-.41,0-1.75-.07-3.49-.11-5.24,0-1.26-.06-2.52-.1-3.78,0-1.07-.07-2.14-.1-3.21,0-.45,0-.91,0-1.37C4,46.46,4,45.21,4,44c0-2.25.08-4.51.07-6.76a22.94,22.94,0,0,0-.2-2.87A1.49,1.49,0,0,1,4,33.2ZM52.66,9.93a14.86,14.86,0,0,0-1.44-.57c-1.87-.57-3.75-1.09-5.61-1.67C43.34,7,41.09,6.23,38.84,5.47c-1.09-.36-2.14-.8-3.22-1.16s-2.31-.71-3.46-1A3.29,3.29,0,0,0,30.88,3a15.56,15.56,0,0,0-2.4.59c-2.31.73-4.62,1.5-6.93,2.24-.95.3-1.91.59-2.89.91-.35.13-.67.24-1,.34L14.07,8.19,11,9.17,9,9.79c-.45.15-.9.3-1.34.48-.13.05-.21.23-.31.35.16,0,.31.07.46.08s.28,0,.41,0l17.15-.1c.53,0,1.06-.08,1.6-.1,2.13,0,4.27-.11,6.4-.12s4,.06,5.93.05c1.78,0,3.57-.11,5.35-.11,1.19,0,2.39.13,3.58.16s2.61,0,3.91,0a1.58,1.58,0,0,0,.49-.1.31.31,0,0,0,.14-.22C52.82,10,52.73,10,52.66,9.93Zm-4.33-.08c-1.12,0-2.25-.08-3.37-.07-2.24,0-4.47.11-6.7.12-2.94,0-5.88-.17-8.81,0-4,.22-8,.15-11.95.22-.41,0-.81-.06-1.21-.09-.25,0-.39.09-.54.1-.77,0-1.54,0-2.31,0-.47,0-.94.07-1.41.09-.1,0-.21-.09-.32-.14A1.83,1.83,0,0,1,12,10c1.62-.59,3.23-1.22,4.87-1.75,2-.65,4-1.18,6-1.8s3.76-1.23,5.65-1.83A11.09,11.09,0,0,1,30.82,4a4.56,4.56,0,0,1,1.63.44c1.17.37,2.35.74,3.51,1.15,1.48.52,2.95,1.09,4.43,1.61,1.16.41,2.34.78,3.52,1.14,1.48.46,3,.89,4.44,1.34a1.83,1.83,0,0,1,.24.13A1.22,1.22,0,0,1,48.33,9.85ZM7.11,17.64c0-.76.12-1.53.18-2.34a7,7,0,0,1,.11-.88c0-.07.14-.13.22-.19s.15.19.14.27c-.06.72-.14,1.43-.21,2.14,0,.31,0,.63-.07.94,0,.09-.12.16-.18.24S7.11,17.69,7.11,17.64ZM5.92,60.52c0,1.76.16,3.53.19,5.29,0,1.59,0,3.17,0,4.76S6.06,73.55,6,75c0,.68,0,1.35,0,2,0,1.08,0,2.16,0,3.25a.65.65,0,0,0,1,.64,1.22,1.22,0,0,0,.69-1.2c0-.78-.08-1.56-.09-2.34,0-3-.07-6-.11-9,0-2-.07-4-.11-6,0-.68,0-1.37,0-2.1-.07-1-.19-2-.18-3s.17-2.24.16-3.35c0-2.08-.16-4.15-.18-6.22s0-3.94.07-5.91c0-.59-.07-1.17-.09-1.75,0-1-.09-2.07-.1-3.11,0-1.55,0-3.11,0-4.66,0-.49-.21-.74-.62-.74s-.73.2-.73.73c0,3.57-.08,7.14-.07,10.71s.06,6.86.1,10.29C5.84,55.7,5.87,58.11,5.92,60.52Zm.34-27.44a.93.93,0,0,1,0-.29,1.34,1.34,0,0,1,.12-.24c.08.08.21.13.23.22a3,3,0,0,1,.12.73c0,.88,0,1.77,0,2.66,0,2.07.09,4.13.1,6.2,0,1.73-.1,3.46-.07,5.19,0,2.13.14,4.27.18,6.4,0,.87-.09,1.74-.13,2.61,0,1.78.1,3.52.15,5.26,0,2,.07,4,.11,6,0,2.39.07,4.78.1,7.17,0,1.15,0,2.3,0,3.45a13.85,13.85,0,0,1,0,1.58c0,.21-.24.57-.36.56-.31,0-.3-.33-.29-.59q0-4.65.08-9.32c0-1.65,0-3.31,0-5,0-1.86-.12-3.72-.19-5.58,0-.92-.09-1.84-.1-2.77,0-4.69-.09-9.39-.11-14.09,0-1,.07-2.1.08-3.15C6.28,37.74,6.26,35.41,6.26,33.08Zm22,29.74c-.05-.28-.06-.65-.24-.81a1.5,1.5,0,0,0-.91-.32c-2.12,0-4.24,0-6.37,0-1.6,0-3.21,0-4.81,0-.86,0-1.13.21-1.06,1,.05.61,0,1.24,0,1.85,0,3.48-.12,7,.21,10.48a2.75,2.75,0,0,1,.16.83c-.05.33.1.41.34.42.78,0,1.55.09,2.32.08s1.61-.08,2.42-.1l6.7-.13c.82,0,1.3-.35,1.34-1,.08-1.16.17-2.33.18-3.5s-.06-2.2-.09-3.3A39.21,39.21,0,0,0,28.26,62.82Zm-.37,12.09a.51.51,0,0,1-.59.52c-1.37,0-2.73,0-4.09,0-1.52,0-3,.15-4.56.2-.92,0-1.84,0-2.76,0a.39.39,0,0,1-.3-.28c-.06-.68-.1-1.36-.11-2-.05-3-.08-6-.12-9.06,0-.54,0-1.08,0-1.61s.44-.44.75-.45c1,0,1.92,0,2.89,0,1.43,0,2.86.07,4.29.06,1.17,0,2.35-.07,3.52-.1a.86.86,0,0,1,.95.74,15.27,15.27,0,0,1,.2,1.91c0,1.48,0,3,0,4.45,0,.52.06,1,.09,1.56C28,72.25,28,73.58,27.89,74.91Zm-1-9.74V64.3a.89.89,0,0,0-1-1l-8.51.05a2.86,2.86,0,0,0-.87.12.58.58,0,0,0-.43.63c.06.83.09,1.65.11,2.48,0,1.6.07,3.2.11,4.8,0,.82.06,1.65.1,2.47s.18.85.86.82c1.4,0,2.8-.16,4.2-.2s2.95,0,4.42,0c.63,0,1.07-.22,1.1-.55a13.6,13.6,0,0,0,.09-1.56c0-.9-.06-1.79-.09-2.69C27,68.19,27,66.7,26.92,65.17Zm-8.54-.83a.75.75,0,0,1,.15,0c1.63,0,3.27-.07,4.91-.13.62,0,1.23-.14,1.84-.19a1.4,1.4,0,0,1,.44.1l-.23.31c-.55.69-1.09,1.39-1.66,2.07s-1,1.21-1.61,1.79a.47.47,0,0,1-.47,0c-.81-.85-1.6-1.71-2.39-2.57l-1.07-1.07a1,1,0,0,1-.1-.17ZM26,74l-3.8,0a3.16,3.16,0,0,1-.32,0,3.14,3.14,0,0,0,.18-.31,2.18,2.18,0,0,0,.11-.27.9.9,0,0,0-.24.12,2.37,2.37,0,0,1-1.68.6c-.84.09-1.69.14-2.53.21-.53,0-.75-.16-.77-.69-.06-1.8-.14-3.59-.19-5.39,0-.83,0-1.66,0-2.49a4.12,4.12,0,0,1,0-.93.51.51,0,0,1,.93-.25q1.94,2.06,3.84,4.14a.45.45,0,0,1,0,.45c-.7.77-1.42,1.52-2.13,2.28s-1.27,1.34-1.9,2a.56.56,0,0,0-.17.27,1.85,1.85,0,0,0,0,.33c.1,0,.24,0,.3-.08.75-.78,1.48-1.58,2.22-2.37s1.46-1.53,2.21-2.28c0,0,.26.06.28.12a.46.46,0,0,1-.09.34c-.74.86-1.47,1.73-2.24,2.56-.4.42-.88.76-1.31,1.14a2.08,2.08,0,0,0-.24.34,1.77,1.77,0,0,0,.34-.16,16,16,0,0,0,1.35-.92,9.58,9.58,0,0,0,.76-.8c.14-.14.33-.22.46-.37a5.9,5.9,0,0,0,.5-.62.5.5,0,0,0-.27,0,.58.58,0,0,1,0-.16l.23,0c.22-.12.43-.31.66-.46a1.18,1.18,0,0,1,.43-.1,1.49,1.49,0,0,1-.14.37c-.74.86-1.49,1.71-2.24,2.56-.13.15-.32.25-.46.39s0,.12,0,.19a.3.3,0,0,0,.16,0c.48-.49,1-1,1.43-1.49s.94-1,1.42-1.48c.06-.06.19,0,.29-.06a.85.85,0,0,1-.1.33c-.46.56-.94,1.1-1.42,1.65a1.08,1.08,0,0,0-.08.19.68.68,0,0,0,.17-.09l1.55-1.63c.06-.05.18,0,.27-.06a.92.92,0,0,1,.05.36c0,.09-.15.16-.22.25a.66.66,0,0,0-.09.19.91.91,0,0,0,.17-.09c.32-.26.4-.23.5.18a6.52,6.52,0,0,0,.2.79c0,.06.23.11.26.08.45-.51.63,0,.89.23a.73.73,0,0,0,.26.21,4.91,4.91,0,0,0,.66.17,3.61,3.61,0,0,0-.33-.5c-.76-.84-1.53-1.65-2.28-2.48-.42-.47-.84-.94-1.22-1.43a.6.6,0,0,1,.09-.52c1.1-1.37,2.23-2.73,3.36-4.08a2.12,2.12,0,0,1,.39-.34c0,.22,0,.44,0,.66,0,.73,0,1.46,0,2.2,0,.13.05.27.05.41,0,.7,0,1.4,0,2.1s.08,1.16.09,1.75,0,1.36,0,2A.6.6,0,0,1,26,74ZM14.84,36.19v4.58c0,.7.28.92.94.83s1.49-.16,2.23-.21c.92-.06,1.84-.09,2.75-.12,1.18,0,2.35-.1,3.53-.11,1,0,2.33.06,3.3.08a.61.61,0,0,0,.36-.05l0-.06c.07-.05.15-.09.18-.16a12.94,12.94,0,0,0,.06-1.65c0-1.4.08-2.81.09-4.21,0-.76-.07-1.52-.09-2.28,0-1.49-.07-3-.11-4.45A1.31,1.31,0,0,0,27,27.09a6.44,6.44,0,0,0-.87-.1l-6.62-.16c-.74,0-1.48,0-2.23,0-.51,0-1,0-1.54,0-.3,0-.76,0-.83.42a14.87,14.87,0,0,0-.19,2.21c0,1.16.07,2.33.09,3.49S14.83,35.12,14.84,36.19Zm.55-8c0-.73.07-.79.78-.8l3.56,0c.28,0,.5.09.73.1l3.43.08c1,0,2,0,2.94.09.29,0,.65,0,.7.47.08.72.16,1.44.19,2.16.06,1.06.11,2.13.1,3.19,0,1.85,0,3.7-.08,5.54,0,.26,0,1,0,1.56-2.35,0-5.44,0-7.76.07q-2.1,0-4.2.12c-.36,0-.5-.16-.5-.53,0-3.39-.08-6.78-.1-10.17C15.22,29.38,15.37,28.76,15.39,28.14Zm13.1,21a.85.85,0,0,1-.23-.87c0-.13.07-.26.07-.4,0-.76,0-2.22,0-3,0-.19.07-.47-.25-.43,0,0,0,0-.06,0a.56.56,0,0,0-.12,0c-.34,0-1.27,0-1.61,0-1.59,0-3.19.07-4.78.12-.29,0-.58.1-.87.09-1,0-2,0-3-.08-.7,0-1.39-.15-2.09-.15a.74.74,0,0,0-.56.42,5.93,5.93,0,0,0-.11,1.4c0,.73,0,1.47,0,2.2s-.06,1.68-.09,2.52c0,1.34-.1,2.67-.08,4s.11,2.77.21,4.14a.59.59,0,0,0,.46.38c.56,0,1.12-.05,1.74-.08,1.46,0,2.87.08,4.29.07,2,0,3.95-.08,5.93-.14a.6.6,0,0,0,.45-.29,12.08,12.08,0,0,0,.46-4.25A1.93,1.93,0,0,1,29,52.93a1.49,1.49,0,0,0,.42-.87,7.33,7.33,0,0,0-.07-1A2.33,2.33,0,0,0,28.49,49.11Zm-1,9c0,.12-.29.27-.45.28-.58,0-1.17,0-1.75,0s-1,.08-1.45.1-.91,0-1.37,0l-.32,0c-.43,0-.86-.07-1.29-.06-.89,0-1.78.09-2.67.09s-1.49-.06-2.24-.07c-.46,0-.66-.16-.67-.64V52.67c0-.62,0-1.23,0-1.84,0-1.13.13-2.25.17-3.38,0-.79,0-1.58,0-2.37,0-.07.14-.18.22-.18a5.65,5.65,0,0,1,.92,0c1.24.08,2.48.2,3.73.25.57,0,1.16-.07,1.74-.09s1.25,0,1.87,0l3.91,0c0,.92,0,2.42-.08,3.29,0,.21,0,.49-.33.4a.61.61,0,0,1-.32-.46,13,13,0,0,1,0-1.65c0-.37-.09-.51-.48-.49-1.66.09-3.31.17-5,.22-1.22,0-2.44,0-3.66,0a.62.62,0,0,1-.23,0c-.53-.14-.76,0-1,.45a3.31,3.31,0,0,0-.19.84c0,.3,0,.61,0,.92,0,.93-.17,1.86-.17,2.79s.16,1.69.18,2.53-.06,1.79-.08,2.69a.59.59,0,0,0,.44.67,9.26,9.26,0,0,0,1.56.27c.74,0,1.49,0,2.23,0l5.26.07c.64,0,.81-.17.81-.79,0-.15,0-.29,0-.43.05-.72.14-1.44.16-2.15,0-.2-.07-.33.18-.31s.45-.11.51.25A11.7,11.7,0,0,1,27.46,58.09ZM26,53.65a.55.55,0,0,1,.46.6c0,.63,0,1.26,0,1.89a2.87,2.87,0,0,1-.05.31.78.78,0,0,1-.32-.14c-.59-.68-1.17-1.38-1.75-2.07L24,53.85l-1.72-1.91c-.3-.33-.08-.59.12-.83.77-.89,1.56-1.77,2.34-2.67a6.6,6.6,0,0,1,.56-.72,13.93,13.93,0,0,1,1.24-.94s.18.1.19.15a7.27,7.27,0,0,1,0,1.32,1,1,0,0,1-.46.54,3.37,3.37,0,0,0-1.67,1.94C24.31,51.57,24.8,53.33,26,53.65Zm-6.3-4.09c.5.6,1,1.18,1.5,1.79a.34.34,0,0,1,0,.51c-.77.92-1.49,1.9-2.26,2.83-.47.58-1,1.11-1.52,1.65a.91.91,0,0,1-.31.16,1.32,1.32,0,0,1-.08-.33c0-1.13,0-2.26,0-3.39,0-.73-.11-1.45-.09-2.18,0-1,.11-2.08.18-3.12,0-.32.27-.46.54-.27a5.37,5.37,0,0,1,.71.72C18.8,48.5,19.23,49,19.66,49.56Zm-1.24-2.3a.83.83,0,0,1,.21-.06c.53,0,1.06.09,1.59.08.85,0,1.7-.09,2.56-.1.67,0,1.35,0,2,.09.09,0,.16.08.24.12a1.09,1.09,0,0,1-.13.17L23.62,49c-.41.48-.78.91-1.14,1.35a2.69,2.69,0,0,1-.52.59c-.15.1-.51.14-.59,0-1-1.16-1.93-2.34-2.88-3.52A1.11,1.11,0,0,1,18.42,47.26Zm1.75,6.49c.42-.57.91-1.08,1.37-1.61.21-.25.36-.08.49.08l1.16,1.44c.62.77,1.24,1.54,1.89,2.29a12.32,12.32,0,0,0,.89.88l.16.11C26.07,57,26,57,26,57,25,57,24.06,57,23.11,57s-1.7.1-2.55.1S19.09,57,18.35,57l-.74-.06c-.11-.07-.15-.18-.13-.19A9.61,9.61,0,0,0,20.17,53.75Zm7.5-.75a1.76,1.76,0,0,1-1.79-.44c-.29-.22-.64-.46-.53-.93a0,0,0,0,0,0-.05c-.09-.36-.36-.81-.24-1.07a2.65,2.65,0,0,1,1-1.14,3.21,3.21,0,0,1,1.4-.15,2,2,0,0,1,.56.15A2.32,2.32,0,0,1,27.67,53ZM55.6,64.06c0-.42-.09-.85-.08-1.28,0-.81.06-1.63.08-2.44s0-1.34,0-2c0-1.45,0-2.91,0-4.37,0-2.78-.08-5.56-.1-8.33,0-1.07.08-2.14.08-3.21,0-2.66,0-5.32,0-8,0-.15-.09-.3-.08-.44a5.54,5.54,0,0,1,.06-1.82.43.43,0,0,0-.14-.58c-.23-.22-.53-.42-.77-.22a2.28,2.28,0,0,0-.69.91,2.91,2.91,0,0,0-.11,1.07c0,.5.06,1,.09,1.56,0,.88.08,1.72.1,2.55,0,1.19.1,2.37.1,3.55S54,43.22,54,44.32c0,2.78.08,5.56.1,8.34,0,1.8,0,3.59,0,5.39,0,.73.09,1.47.09,2.2q0,7.26-.07,14.5c0,.88,0,1.75,0,2.62,0,1.13-.12,2.27-.18,3.4,0,.34.38.9.66.91a.79.79,0,0,0,.78-.83c0-1.19.07-2.37.09-3.56,0-.39-.09-.78-.09-1.17s.08-.92.08-1.38c0-2.92,0-5.84,0-8.76,0-.15,0-.29,0-.44C55.55,65.05,55.6,64.56,55.6,64.06Zm-.46,9.53c0,1.84,0,3.69-.09,5.53,0,.57,0,1.13-.1,1.7,0,.09-.09.18-.14.27,0-.07-.13-.15-.13-.23,0-.48,0-1,0-1.43,0-.77,0-1.53,0-2.3,0-.22,0-.45,0-.68s0-.18,0-.27c0-1.53.09-3.07.09-4.61q0-8.41-.13-16.85c0-1-.15-2.1-.18-3.16,0-.6.07-1.2.08-1.8,0-1,0-2,0-3q0-3.48,0-7c0-1.3,0-2.59-.11-3.88,0-.8-.13-1.59-.18-2.39,0-.13-.1-.44.23-.2a.32.32,0,0,0,.14-.16c0-.17,0-.36,0-.53s.16-.45.48-.32c.06.87.08,1.7.09,2.52,0,.11,0,.22,0,.34v3.5c0,.42,0,.85,0,1.27,0,2.59-.06,5.17-.07,7.75,0,.59.08,1.17.08,1.75,0,.78-.08,1.56-.08,2.34,0,1.42.1,2.84.09,4.26Q55.18,64.83,55.14,73.59ZM60.49,10a3.76,3.76,0,0,0-1-.59c-1-.35-2-.65-3.07-1L51.59,7c-1.51-.46-3-1-4.52-1.38C44.48,5,42,4,39.52,3.15c-1.81-.6-3.6-1.29-5.4-1.94-.91-.32-1.84-.59-2.72-1A1.26,1.26,0,0,0,30,.23a13.12,13.12,0,0,1-2.88,1.29c-1.19.43-2.43.71-3.64,1.11S21.09,3.5,19.9,3.9c-1.9.64-3.82,1.24-5.73,1.87S10.62,7,8.84,7.57c-1.59.53-3.18,1-4.77,1.55-1.17.39-2.34.78-3.5,1.21-.3.11-.63.33-.56.73a1.49,1.49,0,0,0,1.61,1.27,6.59,6.59,0,0,1,.77,0c.16,0,.33,0,.22.31A1.49,1.49,0,0,0,2.91,14c.12.16.55.1.84.13.08,0,.18,0,.23,0s.4.26.4.4c0,.86,0,1.72,0,2.58s-.09.78-.85.91a1.16,1.16,0,0,0-.67.53c-.29.49-.07.91.31,1.28a2.28,2.28,0,0,1,.21.3,2.6,2.6,0,0,1-.4.1H2.14a.75.75,0,0,0-.81.81c0,.11.07.22.07.33s-.07.49.25.62.32.34.17.61a4.75,4.75,0,0,0-.67,2.82,3.64,3.64,0,0,0,1.42,3c.06,0,.08.12.12.19a1.59,1.59,0,0,1-.2.07,4,4,0,0,0-.77,0,.64.64,0,0,0-.36.27c.18.48-.06,1.13.62,1.39a.75.75,0,0,1,.32.53c.07.57.08,1.16.11,1.73,0,.73.08,1.46.1,2.19,0,1.94.07,3.88.1,5.82,0,.33,0,.65,0,1s-.09.66-.08,1c0,.56.08,1.11.08,1.67s0,1.33-.08,2c0,1.57,0,3.1,0,4.62,0,.94-.08,1.88-.08,2.82s.07,1.68.09,2.52c0,1.68.08,3.36.1,5,0,.85,0,1.71,0,2.56q0,8.08-.07,16.18v.29c0,.4,0,.81.06,1.21,0,.21,0,.23-.22.2a2.8,2.8,0,0,0-.29,0c-.72,0-1.08.34-1.09,1s.34.92,1.07.93l6.46.06a.61.61,0,0,1,.19,0,1.91,1.91,0,0,0,1.48-.09,1.38,1.38,0,0,1,.57-.11c.88,0,1.75.08,2.63.07,1.54,0,3.08-.07,4.63-.11H19l7,0c.53,0,1.06-.1,1.59-.09,1.13,0,2.26,0,3.38.07.94,0,1.87.08,2.8.07,1.59,0,3.18-.11,4.78-.1a70.6,70.6,0,0,1,9.31.22c1.28.17,2.58.21,3.88.28s2.74.12,4.11.17c.51,0,1,0,1.55,0a6.84,6.84,0,0,0,1.36,0,1.12,1.12,0,0,0,.75-.53.86.86,0,0,0-.32-1,1.14,1.14,0,0,1-.43-1c0-1.39.09-2.78.09-4.17,0-1.6-.08-3.2-.09-4.8q-.08-7.12-.13-14.24c0-.38,0-.75,0-1.13,0-1.17.08-2.34.09-3.51,0-2.51,0-5,0-7.52V44c0-2.46-.09-4.91-.11-7.37,0-.79.06-1.58.09-2.38v-.1c0-1,0-2,0-3,0-.37,0-.8.45-1.06a2.18,2.18,0,0,0,.62-.69.56.56,0,0,0-.47-.84c-.39,0-.5-.18-.21-.48a4.32,4.32,0,0,0,1.11-3c0-.27,0-.53-.07-.78a7.41,7.41,0,0,0-.21-1.16A10.85,10.85,0,0,0,59.49,22a.56.56,0,0,1,0-.61.4.4,0,0,0,0-.32,2,2,0,0,0-1.24-1.15c-.22-.09-.28-.11-.14-.38.51-1,.32-1.67-.88-2-.22-.05-.54-.26-.56-.43a20,20,0,0,1-.11-2.57c0-.89.09-.85.92-1.08a1.24,1.24,0,0,0,.68-.67c.13-.29-.06-.59-.37-.77a.93.93,0,0,1-.25-.27,1.86,1.86,0,0,1,.39-.1c.65,0,1.3,0,1.94,0a.87.87,0,0,0,.6-.44C60.67,10.81,61,10.36,60.49,10ZM2,21c0-.12.24-.24.39-.26a10.24,10.24,0,0,1,1.35-.11c.29,0,.59.08.88.08.47,0,1,0,1.43-.05s1-.06,1.42.22.51.49.39.8-.44.34-.79.22a1.46,1.46,0,0,0-.75,0,3,3,0,0,1-1.86-.09c-.07,0-.17.06-.26.06a1.85,1.85,0,0,1-.75-.08.84.84,0,0,0-.9-.06c-.26.17-.41.05-.49-.13A.78.78,0,0,1,2,21Zm51.46,5.9a4.27,4.27,0,0,0,.79,1.21.84.84,0,0,1,.08.2c-.1,0-.24.1-.29.06a12.39,12.39,0,0,1-1.6-1.64,3.64,3.64,0,0,1-.26-1.37A3.3,3.3,0,0,1,53,23a1,1,0,0,1,.27-.16,1.19,1.19,0,0,1,0,.32A9.85,9.85,0,0,0,53.46,26.92Zm1.7-1c.13.72.27,1.44.4,2.16a.75.75,0,0,1,0,.2c-.07,0-.16,0-.19,0a4.35,4.35,0,0,1-1.23-2.39,9.41,9.41,0,0,1,0-1.76,2.51,2.51,0,0,1,.36-.76.87.87,0,0,1,.14-.33l.34-.36c0,.17.13.35.09.49A7.08,7.08,0,0,0,55.16,25.92Zm-2.84,3.92A3.06,3.06,0,0,1,53,32.05c0,.64,0,1.29,0,1.93,0,1-.06,2.08-.09,3.11,0,.81,0,1.62-.1,2.43s-.18,1.92-.17,2.88c0,1.32.13,2.65.18,4,0,.66,0,1.32,0,2,0,4.21.07,8.42.12,12.64,0,1.21.08,2.42.09,3.64,0,.82-.07,1.64-.08,2.46,0,1,0,2.11,0,3.16-.05,2.22-.13,4.44-.17,6.65,0,.62.08,1.24.08,1.85,0,.78,0,1.56-.08,2.33,0,.12,0,.27,0,.34.25.31,0,.46-.2.53s-.58,0-.66-.33a1.87,1.87,0,0,1,0-.53c0-.83.07-1.66.09-2.49,0-.46,0-.92,0-1.37.26-2.86.18-5.73.16-8.59,0-2.62-.07-5.23-.09-7.85,0-.69.07-1.37.08-2.06,0-1,0-2,0-3,0-1.26,0-2.53,0-3.79,0-.89-.08-1.78-.09-2.67,0-.49.08-1,.08-1.46S52,46.9,52,46.44c0-3.87,0-7.75,0-11.63,0-2.17-.19-4.34-.29-6.51a1.4,1.4,0,0,1,0-.29c0-.12.11-.24.16-.36l.26.19c.15.11.3.22.44.34l.29.25a2.8,2.8,0,0,1-.3.15.85.85,0,0,1-.22,0A.82.82,0,0,0,52.32,29.84ZM52,23.3c0-.18-.05-.36-.08-.54s-.14-.62-.18-.93c0-.09,0-.19.08-.28.07.08.16.14.19.23s.14.46.2.69.12.21.09.27S52.06,23.11,52,23.3Zm.17-2.75a1,1,0,0,1-.88.44c-1.74,0-3.48.07-5.22.11s-3.41.13-5.11.11c-1.86,0-3.71-.22-5.56-.23s-3.48.17-5.22.19c-2,0-4,0-6-.05-1,0-2,0-3.05,0l-3,0c-1.3,0-2.61,0-3.91,0-.55,0-1.1.1-1.65.1-.74,0-1.48-.06-2.22-.08-.5,0-.68.18-.69.67,0,1.26-.09,2.52-.08,3.79,0,1.08.16,2.17.18,3.26a18.35,18.35,0,0,1-.18,1.95c0,.29,0,.59,0,.89,0,1-.07,2.07-.09,3.1-.06,3.52-.14,7-.17,10.55,0,2.18.1,4.36.1,6.54,0,3.49-.06,7-.07,10.48,0,.67.09,1.33.09,2,0,1.22-.09,2.45-.08,3.68,0,1.85.08,3.69.09,5.53,0,.81-.07,1.62-.08,2.43,0,1.51,0,3,0,4.52a8,8,0,0,1,0,1c0,.13-.16.24-.25.36-.11-.14-.29-.27-.3-.41,0-.75,0-1.49,0-2.24,0-1,.09-2,.09-3.06,0-2.09-.07-4.18-.1-6.27s-.08-4-.11-6.06c0-2.78-.07-5.57-.11-8.35,0-1.92-.07-3.83-.1-5.74,0-1.65-.07-3.3-.11-4.95,0-.55-.09-1.1-.09-1.65s.07-.95.08-1.43c0-.2-.09-.39-.08-.59,0-.36.08-.72.08-1.07,0-1.38-.07-2.75-.1-4.13,0-.68,0-1.36,0-2s0-1.55-.1-2.33a1,1,0,0,1,.32-.8A1.85,1.85,0,0,0,8.93,30c.15-.6-.24-1.07-1-1.19-.39-.07-.39-.08-.2-.45a15.51,15.51,0,0,0,1.16-2.76,4.08,4.08,0,0,0-.42-3.12c-.07-.14,0-.35-.05-.53a2.51,2.51,0,0,0-.23-1c-.22-.33-.11-.33.17-.33H9.93c1,0,2,0,3.05,0,1.61,0,3.22-.07,4.82-.12,1,0,2-.11,3-.1s2.26.15,3.39.16c2.53,0,5.05,0,7.57,0,1.05,0,2.1-.08,3.14-.1,2.81-.06,5.62-.13,8.43-.14s5.63,0,8.44,0a.9.9,0,0,1,.33,0S52.17,20.51,52.13,20.55Zm-49,35.69c0-1.7,0-3.41,0-5.11s0-3.41,0-5.11c0-.79.07-1.58.08-2.38,0-.5-.09-1-.09-1.51,0-1.55.08-3.1.08-4.65,0-.85-.16-1.69-.17-2.54,0-1.17,0-2.34.09-3.51,0-.11.2-.23.33-.32s.19,0,.29,0L6.85,31c.49,0,.7.16.68.64s.08,1.23.07,1.85c0,.89-.09,1.78-.07,2.67,0,1.22.17,2.43.17,3.65,0,2.18-.06,4.37-.06,6.56,0,1.23.07,2.46.09,3.69,0,2.39.07,4.78.11,7.17,0,1.1.08,2.2.1,3.3,0,.8,0,1.59,0,2.39,0,.5.09,1,.09,1.51C8,65.54,8,66.65,8,67.77c0,1.57.06,3.13.1,4.7,0,1.26.06,2.53.1,3.79,0,.92-.08,1.75-.09,2.57,0,.41.08.81.1,1.22s.08,1.08.08,1.62c0,.09-.2.25-.3.24-1.49,0-3-.1-4.45-.17-.08,0-.21-.13-.23-.22a3.34,3.34,0,0,1-.11-.78c0-3,0-6,0-9,0-2.55.05-5.11.08-7.66,0-1.33.1-2.66.08-4S3.15,57.51,3.13,56.24Zm5-32.86a1.27,1.27,0,0,1,0,.39,6.27,6.27,0,0,1-1,4.48s0,.05-.06.07l-.37.22a1.84,1.84,0,0,1,.09-.42,8.48,8.48,0,0,0,.94-3.48c0-.41.06-.82.09-1.23,0-.09,0-.18,0-.27C8,23.22,8.13,23.29,8.16,23.38ZM3.94,25.73c.18.82.36,1.55.55,2.28,0,.15.09.29.13.43a.68.68,0,0,1,0,.2c-.06,0-.15,0-.19,0a3.55,3.55,0,0,1-1.24-2.38c0-.65,0-1.3,0-1.95s.44-1,.76-1.43c0,0,.12,0,.12,0a.77.77,0,0,1,.08.35c0,.32-.16.63-.18.94C3.91,24.66,3.94,25.2,3.94,25.73Zm.58-1a1.81,1.81,0,0,1,.62-1.48.91.91,0,0,1,.63-.18c.12,0,.23.29.28.47A6.15,6.15,0,0,1,6,26.68c-.14.61-.29,1.11-.44,1.61a.72.72,0,0,1-.11.19c-.07-.05-.19-.09-.21-.16a18.56,18.56,0,0,1-.57-1.93A8.28,8.28,0,0,1,4.52,24.74Zm1.73,3,.43-1.66c.15-.73.24-1.42.34-2.1a.5.5,0,0,1,0-.13s.09.06.1.11a1.21,1.21,0,0,1,.14.47,12.07,12.07,0,0,1-.77,3.4c0,.12-.21.19-.33.29C6.22,28,6.22,27.83,6.25,27.71Zm.67-4.27V22.9c.07,0,.19.07.19.11a3.75,3.75,0,0,1,0,.58L7,23.53C6.92,23.47,6.92,23.45,6.92,23.44Zm-5.1,2.08a3.92,3.92,0,0,1,.46-2.37,3.12,3.12,0,0,1,.36-.37,3.12,3.12,0,0,1,0,.52c-.09.7-.23,1.4-.27,2.1A3.72,3.72,0,0,0,3,27.67c.15.23.12.26-.14.24A3.25,3.25,0,0,1,1.82,25.52Zm.59,4.28a3.75,3.75,0,0,1-.47-.17c.07-.15.1-.37.21-.42a1.57,1.57,0,0,1,.58-.05c.45,0,.9,0,1.34,0l2.56.08c.41,0,.81,0,1.22,0a.56.56,0,0,1,.38.21.9.9,0,0,1,.12.51c0,.05-.23.14-.36.14L5.63,30c-1-.25-2,.12-2.91-.27C2.63,29.72,2.5,29.82,2.41,29.8ZM10.22,83a1.07,1.07,0,0,1-.39.1c-1.1,0-2.21,0-3.31,0S4.11,83,2.91,83c-.29,0-.58.08-.87.09-.11,0-.22-.12-.32-.19a1.19,1.19,0,0,1,.33-.18,5.07,5.07,0,0,1,.68-.11c1.07,0,2.05-.1,3-.11,1.21,0,2.41,0,3.61.08a6.9,6.9,0,0,1,.78.09s.13,0,.13.08S10.27,83,10.22,83Zm40.11-5.29c0,.72-.14,1.44-.18,2.17,0,.34.07.68.09,1a1,1,0,0,1-.1.4,1.47,1.47,0,0,1-1.84.83,10.26,10.26,0,0,0-1.22-.18c-1.42-.11-2.84-.19-4.27-.27-1.19-.07-2.38-.14-3.57-.18s-2.64,0-4-.08c-1,0-1.94-.13-2.9-.17-.58,0-.22-.52-.42-.75s0-.34,0-.52c0-1,0-2,0-3,.07-2.2.2-4.4.26-6.61,0-1.23,0-2.46,0-3.69,0-2.73-.05-5.46-.11-8.19,0-1.77-.12-3.53-.2-5.3,0-1-.17-1.91-.18-2.87,0-1.8,0-3.6,0-5.41,0-.92-.09-1.84-.09-2.76,0-1.14.06-2.27.09-3.4s0-2.11.09-3.16c0-.49.09-1,.09-1.46,0-2.18-.06-4.36-.1-6.54,0-1.11-.07-2.22-.11-3.32,0-.2-.08-.39-.09-.59,0-.65,0-.68.63-.76h0c.84,0,1.68-.11,2.51-.1,1.66,0,3.32.1,5,.17.9,0,1.81.16,2.71.16,2,0,4-.07,6.07-.12a1.17,1.17,0,0,0,.27,0c.51-.15.86.21.79.74s-.08,1-.1,1.43q0,.42,0,.84c.06,1.31.15,2.62.19,3.93.06,1.75.08,3.5.12,5.24,0,1.17.06,2.33.1,3.49,0,.75.06,1.49.1,2.24.06,1.43.14,2.85.19,4.28,0,.6,0,1.2,0,1.8s0,1.31,0,2c0,.86-.09,1.71-.08,2.57,0,1.19.07,2.37.09,3.56q.06,3.59.11,7.17c0,1.16,0,2.31,0,3.46s-.1,2.27-.08,3.4c0,1.65.14,3.3.19,5,0,.44-.06.88-.09,1.32C50.33,76.2,50.36,76.94,50.33,77.68ZM31.47,80.62c0,.37-.16.51-.51.51s-.58-.11-.55-.51c.06-1.25.15-2.5.17-3.75,0-.78-.09-1.56-.08-2.34,0-1.11.14-2.21.17-3.31,0-.8,0-1.6,0-2.4,0-.21,0-.41.05-.62,0-.89.1-1.78.08-2.67,0-1.2-.15-2.4-.18-3.6,0-.82.07-1.65.08-2.48s-.06-1.39-.09-2.09c0-.31,0-.61,0-.92,0-1,.09-1.94.09-2.91,0-1.12,0-2.23-.11-3.35s-.19-2.34-.28-3.51c0-.21.09-.42.09-.63,0-3.78,0-7.57,0-11.35,0-.94.13-1.88.18-2.82,0-.29-.09-.59-.09-.88,0-1.61,0-3.23,0-4.84,0-.88-.19-1.76-.27-2.64,0-.2-.1-.5.27-.48s.68-.22.7.4c0,2.41.12,4.81.19,7.22,0,.64.09,1.27.09,1.9,0,.83-.06,1.66-.08,2.49,0,.26.1.53.09.79q-.08,2.79-.18,5.58c0,.41-.06.81-.09,1.22.06,1.33.13,2.56.19,3.79,0,.18-.09.36-.08.54,0,1.62,0,3.23.1,4.85,0,.91.13,1.83.19,2.74,0,.16-.09.33-.09.49,0,1,.05,2,.1,3s.14,1.82.19,2.73c0,.19-.09.39-.09.59,0,1.81.09,3.62.1,5.43,0,1-.08,2.1-.08,3.15s.1,1.85.08,2.77c0,1.2-.1,2.4-.18,3.6-.05.81-.15,1.63-.17,2.44C31.36,79.38,31.43,80,31.47,80.62Zm-1.27-10c0,1-.07,2-.09,3,0,.51,0,1,0,1.52,0,.29-.09.59-.09.88,0,.73.11,1.46.08,2.19a22.8,22.8,0,0,1-.29,2.59c0,.15-.28.28-.45.4s-.15,0-.23,0c-2.94.05-5.88.09-8.82.15-1.29,0-2.58.14-3.87.21-.77,0-1.54.1-2.32.1-.59,0-1.19,0-1.79-.08h-.19c-.92.06-1,.06-1-.91-.08-2-.19-4-.19-5.92,0-5.52,0-11,.06-16.55,0-.82.08-1.63.09-2.45,0-1.76,0-3.53,0-5.29,0-.41-.09-.82-.09-1.22,0-.67.09-1.33.08-2,0-1.53-.08-3.07-.09-4.6,0-1.78,0-3.56,0-5.35,0-.32,0-.65,0-1,0-1.46,0-2.91.1-4.37,0-1.07.16-2.14.17-3.21,0-1.41-.06-2.82-.09-4.24a.65.65,0,0,0,0-.13c-.25-.9-.13-1.07.75-1.09s2-.1,3-.1,2.08.06,3.12.07c.5,0,1-.1,1.5-.1l7.81.05c.58,0,1.16-.08,1.74-.1s.68,0,.75.64c.07.81.14,1.62.19,2.44,0,.39,0,.78,0,1.17,0,1.54.17,3.08.08,4.61-.31,5.24-.1,10.47-.13,15.71,0,1.65.14,3.3.18,4.95.05,2.22.08,4.43.11,6.64q0,1.13,0,2.25c0,.21-.1.42-.08.63,0,1,.16,2,.18,3s-.05,1.79-.09,2.68S30.21,69.66,30.2,70.59ZM50.55,81.75a3.43,3.43,0,0,0,.2-1.59c0-1.59,0-3.17.06-4.76,0-1.19.1-2.39.08-3.59,0-1.41-.16-2.82-.18-4.23,0-1.73.06-3.47.07-5.2,0-.68-.08-1.36-.08-2s.08-1.59.08-2.39c0-1.05-.07-2.1-.1-3.15,0-1.46-.09-2.92-.09-4.38,0-1.7.09-3.4.07-5.09s-.12-3.5-.2-5.25c-.05-1.15-.14-2.3-.19-3.45s-.08-2.31-.1-3.46c0-.48.1-1,.08-1.43,0-1.15-.12-2.29-.19-3.43,0-.47-.07-.94-.1-1.41,0-.63-.09-1.26-.09-1.89s.08-1.2.08-1.8c0-.92-.48-1.14-1.18-.89a.58.58,0,0,1-.19,0c-1.14,0-2.29.11-3.44.11-1.43,0-2.86,0-4.29-.07l-7.48-.14c-.32,0-.64.08-1,.09s-.6.1-.83-.21c-.05-.07-.28,0-.41,0a5.24,5.24,0,0,1-.64.2c-.61.06-1.23.11-1.85.11-1.14,0-2.29-.07-3.43-.06-2.09,0-4.18.12-6.26.11-2.51,0-5-.1-7.53-.14-.71,0-.9.14-.86.87.06,1.2.21,2.4.27,3.61,0,.67-.06,1.36-.08,2-.06,1.88-.13,3.75-.18,5.63,0,.57,0,1.14,0,1.71,0,1.65-.07,3.3-.09,4.95,0,1.23,0,2.47,0,3.7a2.81,2.81,0,0,0,.09.49c0,.79,0,1.49,0,2.18,0,2.09,0,4.17,0,6.26,0,.72,0,1.43,0,2.15,0,2.1-.07,4.2-.08,6.3,0,2.35,0,4.69,0,7,0,.85-.08,1.69-.08,2.54,0,2.06,0,4.11,0,6.17,0,1.16.11,2.31.2,3.47,0,.46.4.63.81.63S12.23,82,12.6,82c.52,0,1,.09,1.55.08,1.9-.06,3.8-.15,5.7-.22l4-.12c1.79,0,3.58-.12,5.37-.11s3.31.1,5,.15L40,82q1.86.06,3.72.18c1,.06,2.07.19,3.11.26s2,.12,3,.19a1.51,1.51,0,0,1,.33.13c-.1.09-.19.24-.28.24-.54,0-1.07,0-1.61,0s-.84-.06-1.26-.09-1.12-.08-1.69-.08l-7.85-.06c-2.11,0-4.22,0-6.33,0-1.14,0-2.28-.08-3.42-.07-3.49,0-7,.09-10.46.15-1.17,0-2.34.08-3.52.11q-1.31,0-2.61,0c-.12,0-.25-.15-.35-.26s-.25-.52-.44-.56c-.47-.13-.43-.44-.43-.8,0-1-.1-2.07-.1-3.1,0-3.09.06-6.17.07-9.26,0-1.07-.08-2.13-.08-3.2,0-.78.08-1.56.08-2.34,0-2.9-.1-5.81-.1-8.72s.07-5.68.07-8.53S9.74,40.7,9.75,38c0-1.58.11-3.17.17-4.76,0-.57.06-1.14.09-1.7.07-1.32.18-2.63.18-3.94S10.05,25,10,23.71a11.34,11.34,0,0,1,.1-1.75c0-.11.24-.27.37-.27.8,0,1.61.07,2.41.06,2.49,0,5-.09,7.47-.13H23l3.77,0c.56,0,1.13-.1,1.69-.09.76,0,1.52.14,2.28.16.59,0,1.17-.07,1.76-.09,1.69,0,3.37-.12,5.06-.11,1.13,0,2.26.12,3.39.16,1.4,0,2.8.07,4.2.07.74,0,1.48-.06,2.22-.11,1-.06,2-.12,3-.21.54,0,.92.39,1,1.09a6.93,6.93,0,0,1-.17,2.9,4.18,4.18,0,0,0,.07,1.26c0,.63,0,1.27,0,1.9s0,1.44,0,2.17a2.08,2.08,0,0,0,0,.23c.06,1.34.15,2.69.19,4,.06,1.49.1,3,.11,4.46q0,4.23,0,8.46c0,.8-.1,1.59-.08,2.38,0,1,.16,2.06.18,3.09s0,2.1-.08,3.15c0,.13,0,.26,0,.39,0,1.89,0,3.78,0,5.66,0,3,0,6,0,8.93,0,3.24-.16,6.47-.28,9.71,0,.33,0,.79-.57.84C50.5,82,50.47,81.92,50.55,81.75Zm8.36,1.41c-.17.08-.35.23-.52.23-1.2,0-2.41,0-3.61,0s-2.19-.1-3.28-.17a1.32,1.32,0,0,1-.39-.17c.11-.07.21-.19.31-.2.36,0,.72,0,1.08,0h3c1,0,2,0,2.89.09A1.64,1.64,0,0,1,58.91,83.16ZM58,31.79a1.13,1.13,0,0,1,0,.18l-.14-.12a4.7,4.7,0,0,0-.65-.53c-.16-.09-.48-.17-.56-.09a1.56,1.56,0,0,0-.52.83c0,.84.08,1.69.07,2.53q0,6.42-.07,12.85c0,1,0,2.08,0,3.12,0,1.91.08,3.82.1,5.73,0,1-.09,2-.08,3,0,1.72.06,3.44.09,5.16,0,.68,0,1.37,0,2.05s.13,1.46.18,2.2c0,.29,0,.59,0,.88,0,1,.1,1.91.09,2.87q-.06,3.32-.18,6.65c0,.65-.14,1.3-.18,2a.69.69,0,0,0,.75.7.73.73,0,0,0,.79-.68c0-.69.09-1.39.09-2.09q-.06-13.18-.14-26.37c0-1.38,0-2.76,0-4.14,0-.45-.08-.91-.09-1.36s.09-.81.08-1.22c0-1.49-.06-3-.09-4.46,0-1.18-.07-2.36-.11-3.54,0-.22-.06-.43-.09-.64,0-.83.1-1.56.08-2.28s-.1-1.4-.19-2.1a.69.69,0,0,1,.62-.78.21.21,0,0,1,.15.14,2.54,2.54,0,0,1,0,.39q0,5.82,0,11.66c0,1.1,0,2.19,0,3.28,0,.78.09,1.57.09,2.35S58,51.42,58,52.17s.09,1.33.09,2c0,1.09-.06,2.18-.08,3.27,0,.2.09.39.09.59q0,11.79,0,23.58c0,.51-.24.61-.62.64s-.61,0-.91,0c-.82,0-1.65-.08-2.47-.08-.41,0-.67-.18-.71-.53a12.82,12.82,0,0,1,0-1.52c0-1,0-1.93,0-2.9V72.86c0-.29,0-.58,0-.87.06-1.39.13-2.79.18-4.18s.08-2.82.08-4.22c0-.73-.06-1.46-.09-2.19,0-1.23-.09-2.46-.1-3.69,0-2.44,0-4.88,0-7.32,0-1.56-.06-3.11-.1-4.66,0-1.2-.09-2.39-.09-3.59,0-1.7,0-3.39.08-5.09,0-2,.07-4,.08-6,0-.43.14-.58.58-.6,1.13,0,2.25-.12,3.38-.2.44,0,.6.16.58.58S58,31.47,58,31.79Zm-.72,29.32c0,.72,0,1.43,0,2.15l0,17.39a1,1,0,0,1-.11.49c0,.11-.21.16-.32.23,0-.11,0-.22-.05-.33,0-.49-.09-1-.09-1.46,0-1.07,0-2.14,0-3.21,0-1.6.15-3.19.17-4.78,0-1.18-.06-2.36-.09-3.54s-.08-2.27-.1-3.4c0-2-.09-4-.1-5.93,0-.89.07-1.79.08-2.69,0-1.12,0-2.23,0-3.35,0-1.28-.07-2.56-.1-3.84,0-1.82-.07-3.65-.11-5.47,0-.79,0-1.49,0-2.18s.07-1.66.08-2.5c0-.22-.09-.45-.08-.68,0-1.44.06-2.88.08-4.32,0-.37,0-.74,0-1.11a2.38,2.38,0,0,1,.06-.37c.09.1.24.2.26.31a8.25,8.25,0,0,1,.1,1.22c0,1.32,0,2.65,0,4,0,1.7.06,3.41.1,5.11s.08,3.49.1,5.23c0,1.56,0,3.12,0,4.68,0,.8.1,1.6.09,2.4,0,1.23-.07,2.46-.07,3.69C57.14,59.59,57.22,60.35,57.24,61.11ZM59,28.89c.13,0,.25.14.37.22-.11.09-.2.21-.32.24a4.69,4.69,0,0,1-1,.2c-1.6,0-3.21,0-4.81,0a2.13,2.13,0,0,1-.67-.23.45.45,0,0,1,.52-.44l4.72,0C58.22,28.88,58.62,28.86,59,28.89ZM56.6,27.62c0,.11-.15.2-.22.29-.08-.1-.21-.2-.23-.32a17.06,17.06,0,0,1-.31-1.71c-.07-.74-.08-1.49-.1-2.24a2,2,0,0,1,.1-.68c.08-.18.29-.45.4-.43a.73.73,0,0,1,.53.39A13.11,13.11,0,0,1,57,24.45a.84.84,0,0,0,0,.17C56.93,25.66,56.77,26.64,56.6,27.62Zm1.17-3.48a12.72,12.72,0,0,1,.32-1.46.74.74,0,0,1,.33.46,8,8,0,0,1-.76,4.42,3.79,3.79,0,0,1-.46.67c-.05.06-.17.05-.25.07s-.06-.19,0-.26A11.61,11.61,0,0,0,57.77,24.14Zm1.54-.28c0-.08.09-.14.14-.21l.14.23c0,.16.07.22.06.26a2.16,2.16,0,0,1-.17.34c-.06-.08-.15-.15-.17-.24A.81.81,0,0,1,59.31,23.86ZM59,25a.68.68,0,0,1,.12-.24c.08.07.24.13.25.21a3.56,3.56,0,0,1-.61,2.3s-.12.08-.12.08-.13-.14-.12-.19c.12-.43.25-.86.38-1.29A8.44,8.44,0,0,1,59,25Zm-.68-4.48a1.16,1.16,0,0,1,.35.64c0,.06-.3.27-.47.3-.42.07-.84.08-1.26.11-1,.08-2,.18-3,.2a12.41,12.41,0,0,1-1.6-.17.87.87,0,0,1,.65-1.26h.24c.87,0,1.75.07,2.62.07.56,0,1.13-.08,1.69-.09A1.29,1.29,0,0,1,58.34,20.47Zm-1.12-2.34c.36.08.64.34.5.67a1.17,1.17,0,0,1-.72.66,16.25,16.25,0,0,1-2.42.23c-.69,0-1.38-.05-2.08-.08-.55,0-1,0-1.46,0-1.17,0-2.35-.08-3.52-.07-1.49,0-3,.1-4.48.1s-3-.06-4.47,0-2.77.07-4.15.11-2.58.07-3.86.12c-.55,0-1.1.08-1.65.1-1,0-2,0-3.05,0s-2.25-.06-3.37-.07c-2.53,0-5-.07-7.57-.05-3,0-6,.09-9,.13a8.11,8.11,0,0,1-1.85-.11,1.73,1.73,0,0,1-.84-.71c-.17-.25.21-.57.6-.52s1,.15,1.56.18c.9.05,1.8.08,2.71.08q4.27,0,8.57.05c.94,0,1.87-.09,2.8-.1,1.29,0,2.58.07,3.86.07s2.42-.06,3.62-.12c1-.05,2.07-.14,3.1-.2.83-.05,1.67-.09,2.51-.11l5.25-.13c1.37,0,2.74-.09,4.1-.11,1.86,0,3.72,0,5.57,0,.71,0,1.43,0,2.14,0l3.62-.11c1,0,2-.09,3-.1A4.34,4.34,0,0,1,57.22,18.13ZM5.08,14.34c0-.08.12-.13.18-.19a.5.5,0,0,1,.1.21c-.05,1-.12,2.08-.17,3.12,0,.09.07.19.07.29s-.11.07-.18.11c0-.26-.09-.43-.09-.59,0-.89.06-1.78.09-2.67A.88.88,0,0,1,5.08,14.34ZM6.52,16c0,.62-.08,1.14-.09,1.66s-.36.34-.58.31-.24-.19-.22-.47a27.26,27.26,0,0,0,.11-3c0-.42.15-.51.52-.49s.36.12.29.47A7,7,0,0,0,6.52,16Zm.39-.8a8,8,0,0,1,.1-1c0-.08.13-.21.19-.21a6.84,6.84,0,0,1,1.11.11c.06,0,.12.2.13.31,0,.36,0,.71,0,1.06s0,.43,0,.62c0,.57,0,1.13-.09,1.7,0,.08-.07.22-.13.23-.24,0-.49.05-.74.07-.55,0-.6-.29-.58-.74C6.94,16.68,6.9,16,6.91,15.23Zm1.83,1.51c0-.29,0-.58,0-.87.05-.47,0-.89.06-1.3,0-.12.11-.23.17-.35a.8.8,0,0,1,.1.31Q9.08,16.26,9,18c0,.07-.1.14-.15.2S8.75,18,8.75,18C8.73,17.54,8.73,17.14,8.74,16.74Zm42.65-2.82c-.15,0-.42,0-.45.13a2,2,0,0,0-.06.74c0,.84,0,1.67,0,2.51,0,.13-.35.37-.55.37-2,0-4.11,0-6.16,0a.52.52,0,0,1-.19-.08,1,1,0,0,1,.2-.11A16.36,16.36,0,0,0,46,16.92c.92-.43,1-1.13.15-1.81l-.4-.3c-.79-.16-1.47-.39-2.17-.46a22.93,22.93,0,0,0-3-.09,5.8,5.8,0,0,0-3,.79c-.46.29-.95.56-1,1.22s.4,1,.92,1.2a5.44,5.44,0,0,1,.54.27,2.65,2.65,0,0,1-.55.1c-1,0-2.09-.08-3.13-.06-2,0-4,.15-6,.21-.59,0-1.19-.1-1.79-.07-1.48.07-3,.2-4.45.3a4.19,4.19,0,0,1-.7-.09c.24-.1.47-.21.72-.29.44-.14.9-.22,1.33-.39A1.29,1.29,0,0,0,24.41,16a1,1,0,0,0-.39-.6c-1.34-1-2.91-1-4.45-.83a29.51,29.51,0,0,0-3.61.59,2.08,2.08,0,0,0-1.51.88,1.07,1.07,0,0,0,.27,1.25,3.34,3.34,0,0,0,1.83.56c.84.09,1.68.12,2.52.19.06,0,.11.06.17.1s-.13.09-.19.09a21.21,21.21,0,0,1-3.82-.08c-.1,0-.2,0-.29,0-.94,0-1.87-.07-2.8-.07a17.15,17.15,0,0,0-2,.11c-.45.06-.46-.22-.45-.49,0-1,.1-2,.13-2.94,0-.65,0-.73.66-.74,1.14,0,2.28,0,3.42.07.49,0,1,.07,1.46.09,1.12,0,2.25.08,3.37.07.57,0,1.14-.16,1.71-.16.75,0,1.49.1,2.23.14.41,0,.83,0,1.25,0s.84-.08,1.26-.1l3-.11c1.29,0,2.57-.1,3.86-.11.75,0,1.51.07,2.27.07,1,0,1.93-.08,2.89-.1.8,0,1.59,0,2.38,0l7.32-.13c1,0,2,0,3,0a6.55,6.55,0,0,0,1.23-.19.58.58,0,0,1,.73.56V17a1.2,1.2,0,0,1,0,.38,2.35,2.35,0,0,1-.23.32,1.07,1.07,0,0,1-.13-.38c0-.9,0-1.8,0-2.71,0-.1.07-.21,0-.31S51.45,13.93,51.39,13.92Zm-6.48,1.77a1.12,1.12,0,0,0-.68.2,3.2,3.2,0,0,1-2,.77,10.26,10.26,0,0,1-3.54-.17,1.37,1.37,0,0,0-.34.07,1,1,0,0,0,.3.21c.27.09.55.13.83.2,0,0,.08.07.12.1s-.09.09-.13.09a3.55,3.55,0,0,1-2.1-.37c-.28-.17-.27-.4,0-.57a5,5,0,0,1,2.48-1c1.3-.14,2.61-.19,3.91-.21A1.44,1.44,0,0,1,45,15.5c0,.05.15,0,.2.09s.47.28.47.41a.82.82,0,0,1-.36.63c-.67.28-1.37.48-2.06.71-.17,0-.23.09-.3.09-.77,0-1.55,0-2.32,0a.6.6,0,0,1-.22-.09.85.85,0,0,1,.22-.09,12.53,12.53,0,0,0,3.79-.62,2.06,2.06,0,0,0,.69-.52C45.36,15.86,45.23,15.67,44.91,15.69Zm-21.65.41a2.88,2.88,0,0,0-.77-.19,2.32,2.32,0,0,1-1.83,1.2,6.73,6.73,0,0,1-2.21.32,5.87,5.87,0,0,1-2.63-.34,1.19,1.19,0,0,1-.44-.1,1.54,1.54,0,0,1-.29-.23,1.75,1.75,0,0,1,.23-.24,8.89,8.89,0,0,1,3-1.08,9.88,9.88,0,0,1,2.28-.28,15.91,15.91,0,0,1,2.44.47,1.11,1.11,0,0,1,.26.07c.21.11.57.2.6.34a1.13,1.13,0,0,1-.25.75,3.15,3.15,0,0,1-1.8.75s-.09-.06-.13-.09.1-.16.18-.19c.34-.15.69-.26,1-.41a2,2,0,0,0,.4-.31c0-.05.13-.15.11-.19A.43.43,0,0,0,23.26,16.1Zm30.33-2a1,1,0,0,0-.18-.32c-.07.11-.18.22-.18.33,0,.8,0,1.61,0,2.42a1.86,1.86,0,0,1-.12.82.83.83,0,0,1-.6.28c-.1,0-.32-.22-.32-.35,0-1.05,0-2.1,0-3.15,0-.38.32-.51.62-.53s.59.07.89.07.33.16.32.4c0,1-.05,2-.1,3.06,0,.14-.15.28-.23.42,0-1-.06-2-.06-3A1.93,1.93,0,0,0,53.59,14.12Zm1.12-.41c.71-.06.75-.11.72.59L55.34,17c0,.38-.56.76-.88.6a.51.51,0,0,1-.17-.39c0-.85,0-1.7,0-2.55C54.24,14.15,54.28,13.75,54.71,13.71Zm1,3.19q0-1.47.09-2.94c0-.06.09-.12.14-.18a1.6,1.6,0,0,1,.14.54c0,.74,0,1.49,0,2.23a9.24,9.24,0,0,1-.1.92c0,.07-.09.13-.14.19s-.13-.12-.14-.18A3.74,3.74,0,0,1,55.73,16.9Zm1.91-4.28a5.22,5.22,0,0,1-.54.38,3.8,3.8,0,0,1-.51.15c-.36.11-.69.22-1-.17a.63.63,0,0,0-.46-.15c-1.57,0-3.15-.05-4.72-.09-.63,0-1.26-.08-1.89-.07l-6.81.12c-1.46,0-2.92.09-4.39.12-.85,0-1.71,0-2.56,0s-1.75.15-2.62.2c-.68,0-1.36,0-2,0l-4,0c-1.58,0-3.15.11-4.73.11-2.29,0-4.59,0-6.89-.06-1,0-2-.06-3-.07-.81,0-1.61,0-2.42,0l-5.51,0c-.2,0-.51.15-.55-.24a.54.54,0,0,1,.45-.62,8.19,8.19,0,0,1,1.08-.2c.64,0,1.28-.08,1.93-.11l3.14-.11c.69,0,1.38-.09,2.07-.11,1.08,0,2.16,0,3.24,0l6.94-.13,6.85-.13,6.93-.14c.83,0,1.65,0,2.47,0,1.45,0,2.9.12,4.35.17,1.18,0,2.35.08,3.53.07,1,0,2-.09,3-.1s2.25.05,3.37.07a25.88,25.88,0,0,1,2.65,0,11.11,11.11,0,0,1,2.16.57C57.38,12.2,57.5,12.45,57.64,12.62Zm2-1.53a6.86,6.86,0,0,1-1.44.06c-.59,0-1.19-.08-1.79-.08-1.82,0-3.65,0-5.48,0-1.29,0-2.58,0-3.86-.07-.82,0-1.64-.08-2.47-.08-1.91,0-3.83,0-5.74,0-2.48,0-5-.06-7.44,0s-5.23.08-7.85.13l-3.52.11c-.89,0-1.77.1-2.66.11-2.4,0-4.79,0-7.19.05-1.71,0-3.41.13-5.12.22-.92,0-1.84.13-2.76.2-.21,0-.42.09-.63.1a1.29,1.29,0,0,1-1.09-.78c0-.1.25-.3.42-.37.35-.13.73-.17,1.08-.29C3.86,9.81,5.6,9.19,7.35,8.6c1.56-.53,3.14-1,4.71-1.56s3.35-1.14,5-1.71,3.35-1.15,5-1.7C24,3,26,2.39,27.87,1.78c1-.32,2.08-.65,3.14-.92a1.53,1.53,0,0,1,.8.12c1.46.45,2.94.88,4.38,1.39,2.08.74,4.13,1.57,6.21,2.3,1.46.52,3,1,4.42,1.41,1.24.39,2.47.78,3.71,1.14,1.56.46,3.13.89,4.69,1.34a.75.75,0,0,1,.15.09c1,.28,1.88.59,2.78.84a3.63,3.63,0,0,1,1.71.75C60.32,10.69,60.26,11,59.65,11.09Zm-39,45.38a1.54,1.54,0,0,1-.29.21c0-.12,0-.28.08-.36.46-.52.94-1,1.43-1.56l.9-.71a.25.25,0,0,1,.13,0,.67.67,0,0,1-.06.15Zm6.69-6.61c-.57,0-1.05.45-1.31,1.27-.15.48.06.87.72,1.25A1,1,0,0,0,28,52.09a2.48,2.48,0,0,0,.24-.71C28.46,50.55,28.05,49.88,27.29,49.86Zm.28,1.46a.69.69,0,0,1-.63.07c-.3-.15-.31-.47-.16-.77,0-.07.11-.12.16-.17a.47.47,0,0,1,.77.22A.77.77,0,0,1,27.57,51.32ZM16.38,34.77c0,.75.08,1.5.09,2.25s0,1.34-.09,2c0,.47.35.56.6.56,1.05,0,2.1-.15,3.15-.19.59,0,1.19.08,1.79.07,1.38,0,2.76-.07,4.14-.11a.81.81,0,0,0,.81-.72c0-.78.09-1.57.09-2.35,0-.48-.08-1-.09-1.45,0-1.28,0-2.56,0-3.84V29c0-.25,0-.5-.36-.28-.09.06-.22,0-.34,0-1.23,0-2.47-.07-3.71-.07-1.81,0-3.62,0-5.44,0-.26,0-.59,0-.72.42,0,.71,0,1.4,0,2.08,0,.89.06,1.77.09,2.65C16.38,34.12,16.36,34.45,16.38,34.77ZM25.48,39h-.87c-1,0-2,0-2.93,0-.69,0-1.39-.09-2.08-.07s-1.17.13-1.76.19a1.07,1.07,0,0,1-.3-.06c.05-.08.08-.18.15-.23a11.66,11.66,0,0,0,2.94-3.16c.32-.48.77-.87,1.14-1.32.16-.19.22,0,.31,0s.19.16,0,.33c-.33.36-.62.76-.92,1.15a.84.84,0,0,0-.06.24.63.63,0,0,0,.2-.1c.3-.33.58-.67.88-1,.06-.07.18-.07.27-.11.1.63.76.75,1,1.24,0,0,.1.07.1.11,0,.67.62.85.95,1.26s.7.79,1.05,1.19c0,0,.1.15.08.17A.37.37,0,0,1,25.48,39ZM26,29.61a.34.34,0,0,1,.32-.09c.06,0,.12.18.12.28,0,1.18-.08,2.36-.08,3.54,0,1,.08,2,.09,3,0,.64-.05,1.27-.09,1.91a1.54,1.54,0,0,1-.12.34,1.55,1.55,0,0,1-.33-.21c-.23-.28-.44-.57-.66-.86-1-1.21-2-2.37-2.93-3.53a.32.32,0,0,1,0-.3,5.3,5.3,0,0,1,.51-.64c.84-.92,1.7-1.83,2.54-2.75C25.63,30.1,25.81,29.84,26,29.61Zm-7.11,0c.55,0,1.1,0,1.65,0,1.24,0,2.48.06,3.72.07.24,0,.49-.08.73-.09a1.14,1.14,0,0,1,.38.13.7.7,0,0,1-.1.23c-1,1.05-2,2.08-3,3.16-.33.35-.52.33-.79,0s-.47-.56-.71-.84l-1.55-1.79c-.14-.15-.32-.25-.47-.39a1,1,0,0,1-.16-.24C18.72,29.76,18.82,29.63,18.92,29.63Zm-1.67.09a1.38,1.38,0,0,1,1.28.66,9.58,9.58,0,0,0,1.24,1.31c.12.13.2.28.31.41.43.48.82.91,1.2,1.35a.53.53,0,0,1,0,.82c-.83.95-1.59,1.95-2.42,2.89-.54.61-1.14,1.14-1.72,1.69a.44.44,0,0,1-.26-.19,3,3,0,0,1,0-.6c0-2.6-.06-5.21-.12-7.81C16.74,29.83,16.85,29.71,17.25,29.72ZM45.47,61.81c-.47,0-.94,0-1.41,0-1.12,0-2.24,0-3.36,0s-2-.06-3-.1a12.74,12.74,0,0,0-3.49-.1c-.42.1-.63.32-.6.74.08,1,.18,1.92.2,2.88,0,1.93,0,3.86,0,5.79,0,1.56,0,3.12,0,4.67,0,.06,0,.11.08.16a1.14,1.14,0,0,0,.93.43c1.53-.08,3.07-.11,4.65-.16.5,0,1,0,1.4,0,1.35,0,2.7.06,4,.07a1.09,1.09,0,0,0,1-1.05c0-.55,0-1.11,0-1.66,0-1,.06-1.92.09-2.88,0-1.15.08-2.3.08-3.46,0-.55-.08-1.1-.08-1.65a10.09,10.09,0,0,0,.06-1.33A2,2,0,0,1,46.3,63,.81.81,0,0,0,45.47,61.81ZM45.7,63a5.36,5.36,0,0,0-.12,1c0,.8,0,1.61,0,2.41,0,.21.06.41.06.62l-.18,6.77a7.74,7.74,0,0,1-.1,1.08.73.73,0,0,1-.71.67l-1.35,0L35,75.63c-.31,0-.56,0-.57-.48,0-2.19-.07-4.37-.09-6.56,0-.5.08-1,.08-1.52,0-.68-.07-1.37-.09-2.06,0-.37,0-.75,0-1.13s0-.62,0-.92c-.05-.8-.06-.83.74-.82,1.2,0,2.41,0,3.62.08.9,0,1.8.09,2.7.1,1.33,0,2.66,0,4,0a1.63,1.63,0,0,1,.57.23A1.56,1.56,0,0,0,45.7,63ZM33.42,37.64v.14c0,1.12-.07,2.25-.08,3.37,0,.32.19.49.55.45.89-.08,1.78-.19,2.68-.2,1.72,0,3.45,0,5.17.06l2.37.08c.58,0,1.16.07,1.74.08a.36.36,0,0,0,.27-.22.78.78,0,0,0,0-.14s0,0,0,0c.05-.34,0-1.43,0-1.78,0-2.48-.06-5-.11-7.45,0-1.14-.06-2.27-.1-3.4a7.94,7.94,0,0,0-.06-1h0s0,0,0,0h0c-.05-.12,0-.28-.13-.31a10.38,10.38,0,0,0-1.67-.16c-1.22,0-2.44-.06-3.71-.08-.85,0-1.66,0-2.46,0-1.21,0-2.42-.13-3.63-.15-.24,0-.65.17-.72.36a3,3,0,0,0-.11,1.2c0,.48.17.95.17,1.42,0,.88-.06,1.75-.08,2.63C33.47,34.21,33.45,35.92,33.42,37.64Zm.39,1.67c0-.61.08-1.23.09-1.85,0-1.82.06-3.65.09-5.48a2.41,2.41,0,0,1,0-.38,9,9,0,0,0-.07-3.28c-.12-.52-.06-1,.74-1l2.37.08,3.61.08c1.46,0,2.85,0,4.33.12l.51,0a5.18,5.18,0,0,0,0,.63c.07,1.38.15,2.76.2,4.13,0,.76,0,1.52,0,2.33s0,1.33,0,2c0,.44,0,.89,0,1.33,0,.74.06,2.09.08,2.93a2.33,2.33,0,0,0-.37,0c-1.18-.07-2.35-.13-3.53-.18s-2.44-.06-3.67-.07-2.63,0-3.94,0c-.21,0-.44.05-.43-.28S33.8,39.69,33.81,39.31Zm1-4.15c0,1.32,0,2.64,0,4a.86.86,0,0,0,.79.82c1.58,0,3.16.06,4.74.07.45,0,.9-.08,1.35-.1.71,0,1.41,0,2.12,0s.81-.17.82-.83c0-.94,0-1.87,0-2.86s-.06-1.63-.1-2.42c-.06-1.44-.14-2.88-.19-4.32,0-.78-.23-1-1-1-1.69,0-3.37,0-5.06-.06-1,0-2,0-2.93,0-.45,0-.66.22-.64.67,0,.85.08,1.71.09,2.57C34.87,32.82,34.86,34,34.86,35.16Zm8.8,4.25c-.42,0-.85.09-1.27.1-.21,0-.42,0-.22-.32,0,0,0-.15,0-.23s-.15.11-.16.18c-.09.34-.31.4-.63.39-.84,0-1.67,0-2.5,0-.33,0-.45-.07-.3-.4a.72.72,0,0,0,0-.26c-.07.06-.19.1-.2.16-.12.58-.47.37-.85.33a4.63,4.63,0,0,0-1.08.16,2.16,2.16,0,0,1-.35,0,2.11,2.11,0,0,1,.2-.29,13.7,13.7,0,0,0,2.22-3,15.58,15.58,0,0,1,1.05-1.75c0-.08.23-.08.35-.12,0,.2.09.42,0,.58a2.9,2.9,0,0,1-.48.58.69.69,0,0,0-.07.15c.06,0,.13,0,.16,0s.31-.33.48-.47a.77.77,0,0,1,.3-.11.78.78,0,0,1-.09.27c-.23.28-.47.55-.7.82a.89.89,0,0,0-.08.17.67.67,0,0,0,.17-.08,8.42,8.42,0,0,0,.77-.69c.33-.34.42-.11.51.18.54.71,1.09,1.38,1.64,2,.39.47.8.92,1.2,1.38a1.82,1.82,0,0,1,.15.23A1.22,1.22,0,0,1,43.66,39.41Zm-.09-9.78c.35-.14.44-.11.44.23,0,.91,0,1.81.09,2.72s.16,1.72.19,2.58c0,1,0,2,0,3,0,.16.07.33.08.49a1.17,1.17,0,0,1,0,.26c-.09,0-.21,0-.25-.08-.7-.82-1.41-1.63-2.08-2.47s-1.17-1.53-1.74-2.31a.43.43,0,0,1-.05-.36Q41.61,31.84,43,30A2.32,2.32,0,0,1,43.57,29.63ZM37,29.48l4.33.07a9.45,9.45,0,0,1,1.07.1.34.34,0,0,1,.23.13s0,.14-.07.19l-1.24,1.46c-.27.32-.52.65-.78,1a3.83,3.83,0,0,1-.39.66c-.2.33-.42.34-.65,0l-2.62-3.39a.75.75,0,0,1-.1-.2A1.7,1.7,0,0,1,37,29.48Zm-1.63,0a3.53,3.53,0,0,1,1,.17c.11,0,.17.21.25.32l2.63,3.41a.65.65,0,0,1,0,.9c-.69,1-1.27,2-2,3-.5.72-1.08,1.37-1.64,2a.18.18,0,0,1-.17,0,.37.37,0,0,1-.1-.22c0-.54,0-1.07,0-1.61,0-1.74,0-3.49,0-5.23,0-.73-.07-1.46-.09-2.19A1.42,1.42,0,0,1,35.37,29.52Zm8.82,33.9c-1.31,0-2.63,0-4,0l-4-.07c-.56,0-.62.08-.61.66,0,1.2.07,2.39.1,3.59,0,.42,0,.84,0,1.26s.1.88.08,1.32c-.07,1.17-.2,2.35-.27,3.52,0,.44.61,1,1,1s.74.06,1.11.06c2,0,3.91,0,5.86-.08a.86.86,0,0,0,1-.79,2.13,2.13,0,0,0,0-.56c0-1.68,0-3.37,0-5.06,0-.76,0-1.53,0-2.29a8.63,8.63,0,0,1,.06-2.27C44.52,63.65,44.3,63.42,44.19,63.42Zm-6.92.69c.22,0,.45,0,.67,0s.23.09.3.09c.85,0,1.7,0,2.55,0s1.55.08,2.32.14c0,0,.12.24.08.29q-1.3,1.74-2.65,3.44c0,.07-.36,0-.44,0-.49-.55-1-1.12-1.43-1.69s-1-1.25-1.54-1.88c-.06-.07-.1-.16-.15-.23A1.15,1.15,0,0,1,37.27,64.11Zm-1.2,9.64L36,73.32a38,38,0,0,0,.28-5.27c0-1.11-.07-2.23-.09-3.35a1.47,1.47,0,0,1,.14-.47c.09.1.2.19.29.3,1,1.26,2.06,2.54,3.1,3.79.24.3.23.47,0,.79-.72.88-1.38,1.81-2.06,2.73-.45.61-.89,1.24-1.34,1.85C36.24,73.74,36.14,73.73,36.07,73.75Zm7.45.45c-.36,0-.71,0-1.06-.06-.05,0-.13-.11-.12-.14.09-.21.19-.41.3-.61a.61.61,0,0,1,.23.07c.07,0,.13.11.2.16s0-.21-.07-.28-.21-.15-.3-.25a1.31,1.31,0,0,1-.36-.46c-.15-.52-.4-.62-.78-.26L40.39,73.5c0,.06,0,.17-.08.26l.23,0c.44,0,.67-.25.87-.6a.74.74,0,0,1,.36-.28c.06,0,.17.05.26.08-.12.33.21.69-.09,1a2.26,2.26,0,0,1-.29.23c0-.12,0-.23,0-.34s0-.23.05-.34c-.08.09-.23.16-.25.26-.09.4-.34.47-.69.45s-.54,0-.81,0a1.11,1.11,0,0,1-.29-.1,1.31,1.31,0,0,1,.12-.27c.06-.09.17-.16.22-.26s0-.14,0-.22l-.14.11a.44.44,0,0,0-.13.14c-.51.91-1.29.67-2.06.59a6.77,6.77,0,0,0-1.1,0c-.22,0-.27,0-.11-.24.48-.58,1-1.17,1.42-1.77.63-.81,1.26-1.61,1.84-2.44s.58-.79,1.07,0c.11.17.17.41.32.53.45.36.21.61-.09.92-.42.46-.79,1-1.19,1.43a1.79,1.79,0,0,0,.48-.31l1.19-1.13a.6.6,0,0,1,.23-.1,1.09,1.09,0,0,1,0,.26c0,.07-.11.12-.16.18L40.19,73a.46.46,0,0,0-.07.16.45.45,0,0,0,.17-.08l1.45-1.41c.21-.22.33-.26.51.07.31.59.68,1.15,1,1.71.09.13.23.22.33.34a1.1,1.1,0,0,1,.15.26C43.69,74.12,43.6,74.2,43.52,74.2ZM44,72.51c0,.14-.16.28-.24.43a2.26,2.26,0,0,1-.32-.29c-.9-1.25-1.81-2.49-2.68-3.75a.54.54,0,0,1,.1-.49c.81-1.1,1.64-2.18,2.46-3.27.13-.17.21-.38.35-.54a.35.35,0,0,1,.28-.1c.06,0,.14.14.14.22,0,.84-.06,1.68-.09,2.53,0,.26,0,.52,0,.78,0,.86.09,1.62.1,2.38S44,71.81,44,72.51ZM33.9,53.31a7.5,7.5,0,0,0,0,.94c0,.78.07,1.56.1,2.35,0,.53,0,1.07,0,1.61a.89.89,0,0,0,1,.91c1.29.05,2.58.13,3.87.17s2.41.08,3.62.07c1,0,2-.06,2.94-.11a.5.5,0,0,0,.32-.28A9.72,9.72,0,0,0,46,57.45q0-2,0-4c0-1.47-.08-3-.09-4.43,0-.88.05-1.76.08-2.64a1.92,1.92,0,0,1,0-.24c.21-.94-.15-1.46-1.08-1.51-1.53-.07-3.06-.13-4.59-.17-1.17,0-2.34,0-3.51,0a15.08,15.08,0,0,1-1.9-.18c-.66-.1-1,.13-1,.79s0,1.5,0,2.25a1.35,1.35,0,0,1-.38,1,.34.34,0,0,0-.09.23c-.08,0-.16,0-.19.06-.23.27-.86.75-.95,1.06a5.47,5.47,0,0,0-.2,1.61,1.8,1.8,0,0,0,1.32,1.81,4.52,4.52,0,0,0,.53.11S33.91,53.28,33.9,53.31Zm.52-8.11a.57.57,0,0,1,.43-.39c.89,0,1.77.11,2.66.15.54,0,1.07,0,1.61,0l5.69.16c.47,0,.66.22.66.7,0,1,0,2,0,2.94,0,1.4.08,2.79.09,4.19,0,.87-.06,1.75-.08,2.62,0,.29,0,.58,0,.87a5.35,5.35,0,0,0,0,.89c.11.72-.14,1.06-.86,1.06l-7.52-.06c-.68,0-1.35,0-2-.09s-.67-.08-.68-.71c0-1.18,0-3.05,0-4.23a3.36,3.36,0,0,1,.48.13.82.82,0,0,1,.51.52c.09.88.1,1.76.12,2.64a.93.93,0,0,0,1,1c1.14,0,2.29,0,3.41,0s2.77-.18,4.18-.16a.46.46,0,0,0,.25-.1,1.79,1.79,0,0,0,.25-.23h0a1.35,1.35,0,0,0,.09-.33c0-2-.06-3.91-.11-5.87,0-1.39-.13-2.78-.2-4.18a.71.71,0,0,0-.81-.78c-.4,0-.81.09-1.21.09l-4.22,0c-.78,0-1.55-.06-2.32-.09-.3,0-.48.1-.49.44,0,.52,0,1-.1,1.55a.5.5,0,0,1-.32.33c-.18,0-.44,0-.44-.3C34.4,47,34.38,46.12,34.42,45.2Zm2.52,6c-.1-.39-.13-.81-.23-1.21a1.82,1.82,0,0,0-.86-1.23c-.08,0-.19-.16-.19-.25,0-.55,0-1.1,0-1.64,0-.07.08-.13.13-.19a1.21,1.21,0,0,1,.16.16l3.14,3.91.85,1c-.81,1.27-1.66,2.51-2.53,3.72-.34.47-.74.89-1.12,1.33a.39.39,0,0,1-.19.09A.54.54,0,0,1,36,56.7c0-.36,0-.71,0-1.07-.05-.62-.16-1.23-.17-1.85a.79.79,0,0,1,.38-.56A1.68,1.68,0,0,0,36.94,51.24Zm7.19.2c0,1.44.07,2.88.1,4.32a3.15,3.15,0,0,1-.12.58l-.36-.43s0-.09,0-.13l-1.78-2.17c-.4-.49-.81-1-1.19-1.49a.48.48,0,0,1,0-.45c.85-1.28,1.73-2.55,2.6-3.82a4.38,4.38,0,0,1,.24-.43c.08-.08.22-.17.31-.14s.13.18.17.28a.37.37,0,0,1,0,.15C44.06,49,44.1,50.2,44.13,51.44Zm-4.9,5.33s-.07.08-.06.12c.08.32-.15.28-.33.27q-.75,0-1.5-.09a5.06,5.06,0,0,1-.52-.08l.33-.39c.05-.06.12-.11.16-.17.93-1.35,1.85-2.69,2.79-4a.36.36,0,0,1,.32-.07c.63.76,1.26,1.53,1.85,2.32.21.28.35.63.54.94a4.49,4.49,0,0,1,.46.39c.31.32.6.64.91,1-.24,0-.45.12-.7.12-.64,0-1,.07-1.72.1s-1,.06-1.67,0c-.27,0-.87,0-.65-.3.1-.12.09-.32.13-.49Zm3.93-9.36c-.48.66-1,1.31-1.44,2s-.83,1.26-1.25,1.9c-.14.21-.26.16-.4,0l-2.14-2.54-.21-.2c-.36-.5-.67-.95-1-1.38s0-.36.17-.35c.56,0,1.11.12,1.67.13,1,0,2.09,0,3.13,0,.46,0,.93,0,1.39,0,.1,0,.19.12.28.18ZM34.4,50.14c.19.06.32.33.49.51-.08.3-.1.6-.25.7a.47.47,0,0,1-.64-.24,1.52,1.52,0,0,1-.27-.73C33.76,49.94,34.18,50.09,34.4,50.14Zm-.58,2.38a1.93,1.93,0,0,1-1.26-1.85,3.37,3.37,0,0,1,.9-1.78h0c0,.24.17.51.08.66a2.78,2.78,0,0,0-.4,1.49c0,.54.37.77.73,1a1.12,1.12,0,0,0,1.27-.17c.33-.28.23-.59.25-1,0-.81-.15-1.11-1-1.28-.26-.05-.62-.56-.51-.79s.4-.21.64-.08a2.47,2.47,0,0,0,.29.1,2.07,2.07,0,0,1,1.46,2.55,1.85,1.85,0,0,1-.5.91A1.76,1.76,0,0,1,33.82,52.52Zm6.6,18a10.77,10.77,0,0,0-.87.92c-.62.76-1.21,1.53-1.82,2.29a.41.41,0,0,1-.22.17,1.45,1.45,0,0,1-.3,0,1.36,1.36,0,0,1,.11-.25l.33-.44c.65-.84,1.27-1.66,1.89-2.49a3.25,3.25,0,0,1,.23-.29.64.64,0,0,1,.19-.13.84.84,0,0,0-.08.2.16.16,0,0,0,0,.13s.06,0,.1,0c0-.2.41-.27.15-.56-.05-.06.07-.26.1-.39l.24.16C41,70.16,40.62,70.32,40.42,70.52Zm-.31-15.37s-.06,0-.09,0,.07-.17.12-.26a.45.45,0,0,1,.12-.12A1.87,1.87,0,0,1,40.11,55.15Zm.91-1L41,54.09a1.83,1.83,0,0,1,.26-.21A.9.9,0,0,1,41,54.15Zm.43-17.24,0,.11a1.61,1.61,0,0,1-.35.16s0,0,0-.06Zm-1.6.66.18-.06a2.78,2.78,0,0,1-.21.27s-.08,0-.13-.05Zm2-.08a.49.49,0,0,1-.25.08s0-.06,0-.06A.36.36,0,0,1,41.89,37.49Zm-22,19.17a.38.38,0,0,1-.07-.21s.1,0,.15-.05A1.86,1.86,0,0,1,19.85,56.66Zm.7-20.06s.07.11.05.14a.64.64,0,0,1-.16.17l-.19.15a2.78,2.78,0,0,1,.15-.3Zm2.6-.21.1.07a1,1,0,0,1-.21.29A1.7,1.7,0,0,1,23.15,36.39Z"/></g></g></svg>