<svg xmlns="http://www.w3.org/2000/svg" viewBox="0 0 58.41 92.07"><defs><style>.cls-1{fill:#e5bb70;}.cls-2{fill:#e0d680;}.cls-3{fill:#ffe0ae;}.cls-4{fill:#754c24;}</style></defs><g id="Layer_2" data-name="Layer 2"><g id="heritage-door-2-front"><path id="fill4" class="cls-1" d="M6.33,38.8a1,1,0,0,1-.22.92,1.24,1.24,0,0,1-.85.38,1,1,0,0,1-.85-.31,1.65,1.65,0,0,1-.29-1.61.41.41,0,0,1,.49-.28.37.37,0,0,1,.15.08.42.42,0,0,1,.16,0,.36.36,0,0,1,.2.06h0a1.55,1.55,0,0,1,.51.14A1.22,1.22,0,0,1,6.33,38.8ZM8,33.55H6.93l0,0a2,2,0,0,0,.3-.7,4.36,4.36,0,0,0,0-.81,3.59,3.59,0,0,1,.11-.72l.18-.79A.4.4,0,0,0,7.31,30a.4.4,0,0,0-.49.27,10.28,10.28,0,0,0-.32,1.56c0,.24,0,.48,0,.72a1.34,1.34,0,0,1-.22.56.39.39,0,0,0,0,.46l-1,0H5.11a.34.34,0,0,0,.06-.22c0-.62.06-1.25.08-1.88s0-1.26,0-1.89,0-1.28,0-1.92a11.43,11.43,0,0,1,0-1.94c.08-.5-.69-.72-.77-.21a11.13,11.13,0,0,0,0,2c0,.64,0,1.28,0,1.92s0,1.26,0,1.89-.12,1.35-.08,2a.39.39,0,0,0,.11.26,6.55,6.55,0,0,1-1.17-.05.27.27,0,0,0,0-.09A32.75,32.75,0,0,0,2.4,29.4c-.16-.6-.15-1.22-.32-1.83a5.8,5.8,0,0,1-.23-1,4.89,4.89,0,0,0-.11-1.08.4.4,0,0,0-.77.21,4.87,4.87,0,0,1,.09,1,6,6,0,0,0,.21.95c.17.61.17,1.24.33,1.85a37.23,37.23,0,0,1,.91,4,.4.4,0,0,0,0,.76c.14,0,.28.06.43.09a.42.42,0,0,0,.14.71,3.8,3.8,0,0,1,.57.35,4.25,4.25,0,0,0,.8.3,3.77,3.77,0,0,0,1.66.2,2.22,2.22,0,0,0,1.16-.68,6.3,6.3,0,0,1,.91-1A.41.41,0,0,0,8,33.55ZM5.81,40.28H5.7a.46.46,0,0,0-.2,0,.46.46,0,0,0-.24.37l0,.25-.07.5a.43.43,0,0,0,0,.16.25.25,0,0,0,0,.15.43.43,0,0,0,.23.19.41.41,0,0,0,.5-.28L6,41.22,6,41a.68.68,0,0,1,0-.14.41.41,0,0,0,0-.09.47.47,0,0,0,0-.31A.45.45,0,0,0,5.81,40.28Zm2.43-16.7q-3.44,0-6.87.12a.39.39,0,0,0-.3,0,.87.87,0,0,0-.38.38c-.3.14-.21.63.1.73A4.23,4.23,0,0,0,2.66,25a11.39,11.39,0,0,1,2-.16c.68,0,1.35,0,2,0a3.31,3.31,0,0,0,1.73-.47A.4.4,0,0,0,8.24,23.58ZM3.89,20.41a1,1,0,0,0,.08.18.54.54,0,0,0,.09.12l0,0a.31.31,0,0,0,.09.07,0,0,0,0,1,0,0h0l.15.07a.43.43,0,0,0,.16,0,.28.28,0,0,0,.15,0,.52.52,0,0,0,.11-.1.37.37,0,0,0,.07-.14.44.44,0,0,0,0-.23h0V20.3a.79.79,0,0,0,0-.09s0-.08,0-.11h0a.59.59,0,0,0,0-.13l0-.05s0,0,0-.05h0l-.07-.1-.1-.07h0a.21.21,0,0,0-.1,0l-.07,0h-.2l-.06,0s0,0-.07,0h0l-.08.07s0,0,0,0L4,19.87v0l0,.11a.43.43,0,0,1,0,0,.86.86,0,0,0,0,.16c0,.05,0,.09,0,.14A.11.11,0,0,1,3.89,20.41ZM54,18.58a1.46,1.46,0,0,0,.36,0,.53.53,0,0,0,.3-.14.39.39,0,0,0,.1-.16l0-.06a.29.29,0,0,0,0-.13.4.4,0,0,0,0-.15.57.57,0,0,0-.08-.13.45.45,0,0,0-.29-.12.42.42,0,0,0-.21.08l-.09,0a.65.65,0,0,1-.16-.09l.05,0a.37.37,0,0,0-.12-.07.29.29,0,0,0-.16,0,.43.43,0,0,0-.28.11.38.38,0,0,0-.11.28.39.39,0,0,0,.11.29A1.64,1.64,0,0,0,54,18.58ZM.71,23.4a13.17,13.17,0,0,0,3.71,0l1.89-.08a3.82,3.82,0,0,0,1.57-.26.39.39,0,0,0,0-.68,4.66,4.66,0,0,0-.58-.23.36.36,0,0,0-.2-.28,5.23,5.23,0,0,0-2.44-.52,4.16,4.16,0,0,0-2.47.39s0,0,0,0a2.36,2.36,0,0,0-1.07.39.47.47,0,0,0-.18.41C.42,22.55.22,23.28.71,23.4Zm53.8-3.67h0a0,0,0,0,0,0,0v0a.38.38,0,0,0,0-.31.39.39,0,0,0-.18-.24.4.4,0,0,0-.54.14,1.38,1.38,0,0,0-.17.63.75.75,0,0,0,0,.15.36.36,0,0,0-.13.19.35.35,0,0,0,0,.3.39.39,0,0,0,.21.17.37.37,0,0,0,.33.13.4.4,0,0,0,.35-.39.28.28,0,0,0,0-.09,1.34,1.34,0,0,0,.11-.14A.39.39,0,0,0,54.51,19.73Zm3.14,3.16a15.24,15.24,0,0,1-1.79,0c-.58,0-1.16,0-1.74.09l-.83.08A.31.31,0,0,0,53,23l-2.4.24a.41.41,0,0,0-.3.17c-.36.09-.46.67,0,.76a13,13,0,0,0,3.79,0,28.69,28.69,0,0,0,3.71-.45C58.18,23.57,58.1,22.83,57.65,22.89Zm.21-.87a4.24,4.24,0,0,1-.84-.31,6.46,6.46,0,0,0-.86-.24,10.05,10.05,0,0,0-1.65-.2c-.84-.05-2.27-.19-2.81.63a2.28,2.28,0,0,0-.93.53c-.34.37.22.94.56.57l.08-.06h.15a11.21,11.21,0,0,1,3.21-.29,11.85,11.85,0,0,0,3.09.14C58.24,22.73,58.23,22.1,57.86,22Zm-1.33,2.43c-.13.7-.24,1.4-.4,2.09-.07.3-.17.6-.21.9s0,.69-.06,1a18.44,18.44,0,0,0-.21,2,6.25,6.25,0,0,1-.32,2,.5.5,0,0,0,0,.16c-.31.06-.62.11-.94.14a.3.3,0,0,0,0-.21,5.75,5.75,0,0,1-.1-1.85c0-.62-.06-1.24-.07-1.85,0-1.37,0-2.74-.08-4.11,0-.51-.8-.52-.79,0,0,1.42,0,2.84.08,4.26,0,.61.09,1.23.07,1.85a5.39,5.39,0,0,0,.13,1.92s0,0,0,0-.27,0-.41,0a9.45,9.45,0,0,1-1.07-.1l-.21,0h0a20.25,20.25,0,0,0-.16-3.21.41.41,0,0,0-.4-.4.41.41,0,0,0-.4.39,20.32,20.32,0,0,1,.17,3.21.61.61,0,0,0,0,.15l0,0a.4.4,0,0,0-.08.62l.24.3a.41.41,0,0,0,.16.77,1.5,1.5,0,0,1,.5.18l.12,0a.47.47,0,0,0,.4.36A7.9,7.9,0,0,0,54.21,35a2.59,2.59,0,0,0,.77-.21,1.46,1.46,0,0,0,.28-.21c.06-.05.12-.13.19-.15a.39.39,0,0,0,.1-.71.41.41,0,0,0,.07-.22.31.31,0,0,0,0-.08l0,0a.84.84,0,0,0,.23-.23.35.35,0,0,0,0-.31.36.36,0,0,0,.18-.2,17.71,17.71,0,0,0,.53-3.92c.05-.33.05-.65.07-1a6.08,6.08,0,0,1,.21-.94c.15-.69.27-1.4.4-2.09C57.39,24.17,56.63,24,56.53,24.45ZM41,44.52c0,.59,0,1.19,0,1.77s-.28,1-.36,1.57a2.17,2.17,0,0,1-.44,1.3,2,2,0,0,1-.54.43l-.21.1a1.85,1.85,0,0,1-.69.86,2.47,2.47,0,0,1-1.7.34,3.26,3.26,0,0,1-1.78-.56.31.31,0,0,1-.11-.34,1.91,1.91,0,0,1-1.36-.61A5.09,5.09,0,0,1,33.14,47a9.51,9.51,0,0,1,.16-2.66.32.32,0,0,1,.34-.28,2,2,0,0,1,.84-.25,8.56,8.56,0,0,1,1.6-.32,12.09,12.09,0,0,1,2.48.08.31.31,0,0,1,.17,0h.42c.43,0,1.09.06,1.32.5,0,0,0,0,0,.06h0A.41.41,0,0,1,41,44.52Zm-.78.67a.81.81,0,0,1-.18.1,2.12,2.12,0,0,1-.75.14c-.63,0-1.26,0-1.88,0l-2,0c-.48,0-1,0-1.45,0a7.31,7.31,0,0,0,.33,3.15c.11.3.18.5.51.58a2.72,2.72,0,0,0,1,.12c.34,0,.67-.16,1-.23a7.07,7.07,0,0,1,1-.11,7.38,7.38,0,0,1,1.05,0l.26.06.17-.09c.47-.28.49-.63.56-1.13s.33-1,.35-1.58C40.24,45.84,40.23,45.52,40.23,45.19Zm-14.52.4q0,.72-.06,1.44a2.79,2.79,0,0,1-.26,1.18c-.37.73-1.11,1.15-1.59,1.8a.4.4,0,0,1-.73-.27l-.06,0a1.58,1.58,0,0,1-.05.43.4.4,0,0,1-.67.17c-.11-.11-.43,0-.56,0a.59.59,0,0,1-.37-.06.52.52,0,0,1-.17-.22.61.61,0,0,1-.33.1.58.58,0,0,1-.67-.54.62.62,0,0,1,0-.12h-.08l-.21,0a2.38,2.38,0,0,1-1-.42,2.55,2.55,0,0,1-1-1.91,25.59,25.59,0,0,1-.12-2.76A.37.37,0,0,1,18,44h0a.59.59,0,0,1,.1-.17.36.36,0,0,1,.23-.11.4.4,0,0,1,.33-.14.29.29,0,0,1,.08-.07,5.7,5.7,0,0,1,3.29-.47h0a5.45,5.45,0,0,1,1.51,0l.3-.05a.42.42,0,0,1,.45.18c0,.06.05.11.07.17a4.62,4.62,0,0,1,.55.35h0C25.89,43.71,25.72,45,25.71,45.59Zm-.81.15a.43.43,0,0,1-.33-.27,3.69,3.69,0,0,1-.16-.62l-.16,0c-1.23.14-2.48.22-3.72.24H19.22l-.16.3a3.75,3.75,0,0,0-.16.43v.06a1.05,1.05,0,0,1-.17.69.6.6,0,0,1-.08.08,2.18,2.18,0,0,0,.56,1.58,1.67,1.67,0,0,0,.7.39,5.37,5.37,0,0,1,.8.15.63.63,0,0,1,.31.29h0a.41.41,0,0,1,.55-.14.73.73,0,0,1,.32.43.36.36,0,0,1,0,.14h.27a1,1,0,0,0-.05-.22c-.11-.25.15-.49.38-.5a1.61,1.61,0,0,1,.54.08l.19.08a.4.4,0,0,1,.56-.09l.43-.42A2.1,2.1,0,0,0,24.86,47C24.88,46.55,24.89,46.15,24.9,45.74Zm29.63-7.92a2.18,2.18,0,0,0-.72-.16l-.14,0s0,0,0,0a.46.46,0,0,0-.13-.08s0-.06,0-.08a4.34,4.34,0,0,1,.11-.61v-.06l.07,0a.4.4,0,0,0,.14-.54A.66.66,0,0,0,53,36a.4.4,0,0,0-.15.54l0,0v0c0-.09,0,.07,0,.08a3.22,3.22,0,0,1-.07.32,2.59,2.59,0,0,0,0,.48A1.69,1.69,0,0,0,52,38a.39.39,0,0,0-.06.48l.05.06a.36.36,0,0,0,.11.25,2.36,2.36,0,0,0,1.42.58,1.39,1.39,0,0,0,1.32-.74A.68.68,0,0,0,54.53,37.82Zm-3-11.48a7.07,7.07,0,0,0,0-1.38.47.47,0,0,0-.12-.28.42.42,0,0,0-.28-.12.41.41,0,0,0-.4.4,7,7,0,0,1,0,1.37.4.4,0,0,0,.12.28.38.38,0,0,0,.28.12A.41.41,0,0,0,51.56,26.34Z"/><path id="fill3" class="cls-2" d="M56.11,25.1c-.08.8-.17,1.59-.28,2.39s-.27,1.6-.39,2.4-.18,1.4-.3,2.08a.69.69,0,0,1-.31.42s-.24-.15-.36-.23c-.06-1.5-.14-2.9-.19-4.3,0-.92,0-1.83,0-2.74,0-.14.24-.37.4-.4.36,0,.73,0,1.1,0S56.14,24.88,56.11,25.1ZM53.3,31.77c0-1.24-.07-2.47-.09-3.71,0-.95,0-1.91,0-2.87,0-.46-.22-.57-.6-.58-.7,0-.84.07-.87.65,0,1,0,2,0,3,.07,1.28.25,2.53.37,3.8,0,.33.14.49.48.49C53.34,32.52,53.34,32.54,53.3,31.77ZM7,25.61c-.27,0-.57,0-.85,0-.5-.08-.65,0-.65.47s0,.89,0,1.33-.08,1.12-.09,1.67c0,1.08,0,2.15,0,3.22s0,1.11.87,1.09c0-.31,0-.74,0-.91,0,0,0,0,0-.05.26-1.41.56-2.83.8-4.25a21.45,21.45,0,0,0,.19-2.28C7.26,25.79,7.07,25.63,7,25.61Zm-3.27,0c-.44,0-.88,0-1.32,0-.12,0-.35.23-.33.32.08.63.21,1.25.33,1.88.15.79.29,1.58.47,2.37.21,1,.44,1.93.71,2.88,0,.13.33.2.51.3A1.28,1.28,0,0,0,4.22,33c.06-.65.11-1.31.11-2,0-1.62,0-3.23,0-4.84C4.34,25.75,4.18,25.57,3.68,25.61Z"/><path id="fill1" class="cls-3" d="M1.42,13.46a1.1,1.1,0,0,1,.41-.73c.2-.14.53-.09.81-.12H3c1.48,0,3,0,4.45-.11a2.79,2.79,0,0,0,1.85-1.21c.34-.37.64-.78,1-1.15.94-1.09,1.87-2.18,2.86-3.22a15.68,15.68,0,0,1,2-1.76,16.87,16.87,0,0,1,2.47-1.65C18.73,2.86,20,2.3,21.28,1.77A20.63,20.63,0,0,1,26.35.6a6.8,6.8,0,0,1,1.1-.09c.69,0,1.37,0,2.05,0s1.11.21,1.67.27c.28,0,.57-.07.84-.05A16.36,16.36,0,0,1,33.86,1c.91.18,1.81.37,2.7.62a17.84,17.84,0,0,1,6.58,3.55C44.22,6,45.26,7,46.29,8c.72.67,1.39,1.38,2.07,2.1.35.38.68.8,1,1.21a2.16,2.16,0,0,0,1.94.65,13,13,0,0,1,1.54-.13c1.06-.06,2.11-.13,3.17-.18.07,0,.14,0,.19,0q.51.26,1,.54a5,5,0,0,1-.7.51,1.76,1.76,0,0,1-1.47.14,1,1,0,0,0-.39,0c-1.64,0-3.29,0-4.95,0a8.3,8.3,0,0,1-.83.08,1.2,1.2,0,0,1-.59-.33L45.7,10c-1-.77-2-1.53-2.94-2.19A19.31,19.31,0,0,0,40,6.24a42.77,42.77,0,0,0-4.67-1.85,32.35,32.35,0,0,0-4.05-.85,10.62,10.62,0,0,0-2.24-.21,22.28,22.28,0,0,0-2.81.37c-1.12.19-2.25.4-3.34.68S21,5,20,5.35a13.44,13.44,0,0,0-3.57,1.89c-.67.49-1.31,1-1.94,1.59-1,.82-1.91,1.65-2.82,2.51-.69.66-1.32,1.4-2,2.07a.85.85,0,0,1-.51.22l-4.8.1-2.39.09C1.65,13.84,1.38,13.74,1.42,13.46Zm55,.41a13.54,13.54,0,0,0-2.2-.21c-2.38,0-4.77,0-7.15.07-1.5,0-3,0-4.51.09s-3,.13-4.45.18l-3.75.09-2.73.09c-1.7,0-3.41.07-5.11.09-3.9.06-7.82-.13-11.74.15-1.68.12-3.37.11-5.06.1h-1c-1.29,0-2.57,0-3.86,0h-.3l-1.15-.06-1.48.06-.11,0a1.53,1.53,0,0,0-.31.16c-.14.08-.21.27-.33.4a1.61,1.61,0,0,0,.51.25c.45,0,.92,0,1.38,0,1.43,0,2.84,0,4.26-.1s2.77-.2,4.16-.28c.9,0,1.81-.09,2.71-.1,1.51,0,3,0,4.52,0,1.08,0,2.15-.08,3.21-.09l10.75-.07,2.57-.1c.82,0,1.64-.07,2.47-.09,1.43,0,2.86-.09,4.28-.08,3.9,0,7.79.08,11.66.12h.15a6.2,6.2,0,0,0,2.64.09,1.63,1.63,0,0,0,.44-.28C56.75,14.19,56.63,13.9,56.46,13.87ZM44.4,10a33,33,0,0,0-3.08-2.31,16.89,16.89,0,0,0-5.2-2.22c-1.26-.25-2.53-.49-3.8-.72-.45-.07-.9-.07-1.35-.11s-1.09-.1-1.64-.1a21.35,21.35,0,0,0-6.6,1,34.1,34.1,0,0,0-3.2,1.31,17.86,17.86,0,0,0-4.67,3.06C13.56,11,12.29,12.24,11,13.46a5.56,5.56,0,0,0-.53.65c.83,0,1.66,0,2.48-.08,1.53,0,3-.13,4.58-.17.82,0,1.65,0,2.46,0l5.3-.08h2.74c1.79,0,3.57,0,5.35-.08q3.15-.07,6.28-.18l5.55-.18c.56,0,1.11-.09,1.67-.1h.27a.67.67,0,0,1-.09-.14A9.44,9.44,0,0,0,44.4,10ZM4.24,17.33c.59.07,1.18.09,1.78.11a1.3,1.3,0,0,1,1.34,1.11,11,11,0,0,1,.21,1.28c.06.69.08.74.76.73,1.59,0,3.18-.06,4.76-.1s3.11-.09,4.67-.09c1.17,0,2.34.06,3.61.09l5.92-.09c.63,0,1.25,0,1.87,0s1.18-.09,1.76-.09c1.35,0,2.69.09,4,.09q6.69,0,13.3-.1h.1a3.26,3.26,0,0,1,.69-.09c.46.06,1-.28,1.35.4a.58.58,0,0,0,.47-.1,1,1,0,0,0,.12-.59c0-.61,0-1.21,0-1.82,0-.36.12-.6.48-.66,1-.17,1.93-.36,2.91-.48a1.54,1.54,0,0,0,1.14-.53.37.37,0,0,0,0-.26,7,7,0,0,0-1.34-.29,11.62,11.62,0,0,0-1.31.07c-2.32,0-4.65.06-7,.09-.81,0-1.63.07-2.45.1l-3.49.09-8.34.19c-1.29,0-2.58.08-3.88.08s-2.62,0-3.94,0c-4.74,0-9.49,0-14.27,0-.67,0-1.34.05-2,.09-1.08.06-2.16.12-3.25.21-.13,0-.26.16-.39.24C4,17.11,4.09,17.31,4.24,17.33ZM48,82.11c0,.94,0,1.89,0,2.82,0,.71.09,1.43.09,2.14s0,1.39-.09,2.09v.2c0,.8,0,.81-.81.82-2.79,0-5.58.11-8.39.15-.9,0-1.81,0-2.72,0-1.37-.06-2.74-.18-4.12-.26-.49,0-1-.06-1.44-.06l-4.91,0c-.67,0-1.33-.07-2,0-1.17.06-2.35.2-3.51.28-.87.08-1.75.12-2.63.19-1.34.1-2.68.22-4,.31a4.69,4.69,0,0,1-1.12-.07.52.52,0,0,1-.51-.59c0-1.36-.22-2.72-.27-4.09,0-1,.07-2.08.07-3.12a1,1,0,0,0-.31-.75c-.47-.32-.74-.91-1.5-.86-.48,0-.27-.52-.28-.81,0-.83,0-1.67,0-2.51v-.2c0-1-.08-2.08-.11-3.12s-.09-2.35-.09-3.53c0-.82.09-1.65.08-2.47,0-1.82-.09-3.63-.08-5.44,0-2.51.14-5,.19-7.51,0-.88-.1-1.75-.09-2.63,0-1.81.06-3.64.1-5.46l.09-4.93c0-1.28.08-2.56.11-3.83s.08-2.76.1-4.14c0-3.24.06-6.47.1-9.71,0-.56.08-1.12.09-1.67,0-.31-.08-.61-.09-.92,0-.53.21-.72.73-.74s1.17-.1,1.76-.09c.81,0,1.62.06,2.42.08.6,0,1.2,0,1.8,0l4-.11c.78,0,1.57-.08,2.35-.09q6.19-.07,12.35-.11c.75,0,1.51.09,2.26.09,3.41,0,6.8-.06,10.19-.1.5,0,1-.07,1.48-.1.22,0,.33,0,.25.31a8.79,8.79,0,0,0,.07,1.34c0,1.2-.1,2.4-.15,3.6s-.07,2.13,0,3.18q.07,3,.2,6c0,.76.07,1.52.08,2.28,0,1.41.06,2.81.11,4.21,0,1.13.14,2.26.19,3.38.07,1.49.16,3,.19,4.47,0,2.52.09,5,.1,7.57,0,1.93-.07,3.86-.09,5.8,0,1.61,0,3.22,0,4.82,0,1.22-.05,2.45-.09,3.66,0,.71-.1,1.43-.09,2.14,0,1.37.07,2.74.08,4.1,0,.62-.06,1.24-.08,1.85a1.15,1.15,0,0,0,.1.59c.19.31,0,.33-.2.35s-.49,0-.74,0A1,1,0,0,0,48,82.11Zm-.4,6c0-.75-.07-1.5-.08-2.26,0-1.74-.08-3.49-.1-5.25,0-2.06-.07-4.13-.1-6.19,0-.86,0-1.72,0-2.59,0-.48-.08-1-.09-1.44,0-1.94-.06-3.87-.11-5.8,0-1.46-.13-2.92-.19-4.38,0-1.1-.07-2.21-.1-3.32,0-.68,0-1.35,0-2.08,0-.9-.08-1.77-.09-2.63,0-1.49-.07-3-.11-4.46,0-2,0-4-.1-6,0-1.28-.13-2.56-.18-3.83,0-1.1-.08-2.19-.1-3.28,0-.59,0-1.16,0-1.75s.08-.93.09-1.4c0-1.09,0-2.18,0-3.27.07-1.65-.38-2.14-2-2.06-.9.05-1.8,0-2.7,0s-2-.16-3-.17c-.67,0-1.32.14-2,.19-1,.06-2,.07-3,.11l-4.92.21-3.13.11c-1.93,0-3.86.07-5.79.12-1.47,0-2.95.08-4.43.1-.57,0-1.14-.07-1.71-.08s-1.42,1-1.27,1.47a4.75,4.75,0,0,1,.09,1.24c0,.76.07,1.51.09,2.27,0,1.43.11,2.86.1,4.28,0,2.8-.08,5.59-.09,8.4,0,.8.1,1.61.09,2.42,0,1.51-.07,3-.09,4.55,0,2.38-.07,4.76-.11,7.14,0,1.19-.11,2.38-.08,3.58,0,1.59.14,3.19.17,4.79,0,.73-.06,1.47-.09,2.21,0,1.34-.06,2.69-.09,4s-.08,2.63-.11,3.95c0,1.14-.08,2.29-.09,3.43q-.06,3.82-.11,7.64a1.33,1.33,0,0,1,0,.2,1.34,1.34,0,0,0,1.17,1.38c.89,0,1.77-.11,2.66-.19,1.53-.13,3.05-.36,4.58-.41,3.27-.11,6.54-.16,9.8-.19,1.38,0,2.75.09,4.13.18s2.45.22,3.67.27c1.75.08,3.49.14,5.24.15,1,0,2-.11,3-.18a.4.4,0,0,0,.26-.08c.28-.27.56-.56.82-.85A.5.5,0,0,0,47.55,88.14Zm-36.76-4.6c0-1-.23-1.26-1.17-1.49A7,7,0,0,0,8,81.79c-1,0-2,0-3.09.07a.78.78,0,0,0-.86.87c0,1.34-.08,2.66-.11,4,0,.85,0,1.71,0,2.57,0,.45.06.91.11,1.37a1,1,0,0,0,.14.28l.25-.16c.12-.08.25-.26.34-.25.84.09,1.68.23,2.52.31,1,.1,2,.15,3,.22.37,0,.57-.2.6-.68a1.46,1.46,0,0,0,.1-.45c-.06-1.72-.13-3.43-.2-5.14C10.78,84.38,10.8,84,10.79,83.54Zm44-1.46a.68.68,0,0,0-.54-.38c-1.73,0-3.46-.07-5.21-.08-.53,0-.73.21-.71.77,0,.74.07,1.49.09,2.23,0,1.87.08,3.72.09,5.59,0,.4.21.49.51.5.48,0,1,.06,1.47.07a26,26,0,0,1,4.67,0,.31.31,0,0,0,.25-.16,3,3,0,0,0,.1-.71c0-.75,0-1.51,0-2.26,0-.93,0-1.86-.1-2.83S55.06,83,54.81,82.08Z"/><path id="fill2" class="cls-4" d="M47.47,85.88c0-1.74-.08-3.49-.1-5.25,0-2.06-.07-4.13-.1-6.19,0-.86,0-1.72,0-2.59,0-.48-.08-1-.09-1.44,0-1.94-.06-3.87-.11-5.8,0-1.46-.13-2.92-.19-4.38,0-1.1-.07-2.21-.1-3.32,0-.68,0-1.35,0-2.08,0-.9-.08-1.77-.09-2.63,0-1.49-.07-3-.11-4.46,0-2,0-4-.1-6,0-1.28-.13-2.56-.18-3.83,0-1.1-.08-2.19-.1-3.28,0-.59,0-1.16,0-1.75s.08-.93.09-1.4c0-1.09,0-2.18,0-3.27.07-1.65-.38-2.14-2-2.06-.9.05-1.8,0-2.7,0s-2-.16-3-.17c-.67,0-1.32.14-2,.19-1,.06-2,.07-3,.11l-4.92.21-3.13.11c-1.93,0-3.86.07-5.79.12-1.47,0-2.95.08-4.43.1-.57,0-1.14-.07-1.71-.08s-1.42,1-1.27,1.47a4.75,4.75,0,0,1,.09,1.24c0,.76.07,1.51.09,2.27,0,1.43.11,2.86.1,4.28,0,2.8-.08,5.59-.09,8.4,0,.8.1,1.61.09,2.42,0,1.51-.07,3-.09,4.55,0,2.38-.07,4.76-.11,7.14,0,1.19-.11,2.38-.08,3.58,0,1.59.14,3.19.17,4.79,0,.73-.06,1.47-.09,2.21,0,1.34-.06,2.69-.09,4s-.08,2.63-.11,3.95c0,1.14-.08,2.29-.09,3.43q-.06,3.82-.11,7.64a1.33,1.33,0,0,1,0,.2,1.34,1.34,0,0,0,1.17,1.38c.89,0,1.77-.11,2.66-.19,1.53-.13,3.05-.36,4.58-.41,3.27-.11,6.54-.16,9.8-.19,1.38,0,2.75.09,4.13.18s2.45.22,3.67.27c1.75.08,3.49.14,5.24.15,1,0,2-.11,3-.18a.4.4,0,0,0,.26-.08c.28-.27.56-.56.82-.85a.5.5,0,0,0,.13-.34C47.54,87.39,47.48,86.64,47.47,85.88ZM26.07,46a3.21,3.21,0,0,1-1.47,3.46.77.77,0,0,0-.34.35,1.72,1.72,0,0,1-1.62,1,8.84,8.84,0,0,1-2.05-.18c-.6-.13-.87-.28-.76-.89a3.3,3.3,0,0,1-.68-.09,2,2,0,0,1-1.52-1.71,21.2,21.2,0,0,1-.3-2.38,9,9,0,0,1,.09-1.46c0-.42.41-.52.73-.64s.84,0,1.16-.49c.16-.21.65-.21,1-.22,1.21,0,2.42,0,3.64-.05a.82.82,0,0,1,.78.42,1,1,0,0,0,.57.36c.79.2,1,.54.79,1.38A3.63,3.63,0,0,0,26.07,46ZM41,48.15a.51.51,0,0,0-.07.26c.09.73-.41,1.06-.89,1.42a2.9,2.9,0,0,0-.71.64,1.29,1.29,0,0,1-1.13.61A7.37,7.37,0,0,1,35.87,51a12.9,12.9,0,0,1-2.08-1,2.3,2.3,0,0,1-.94-2c-.09-1.06-.08-2.13-.12-3.19a.74.74,0,0,1,.57-.81c.37-.12.69-.42,1.06-.54a5.53,5.53,0,0,1,1.34-.23c.83,0,1.67,0,2.55,0a9.11,9.11,0,0,1,1.33.1c.21,0,.38.24.58.36s.41.3.6.29c.55,0,.61.38.62.72A7.69,7.69,0,0,1,41,48.15Zm-1-2c0,.6-.12,1.2-.17,1.8s-.37.75-.81.54a3.52,3.52,0,0,0-2.13,0,12.67,12.67,0,0,1-1.47.28c-.73,0-1-.47-1.1-1.09s-.07-1-.11-1.49c0-.31.11-.4.4-.39.45,0,.89,0,1.33,0,.79,0,1.48,0,2.17,0,.47,0,1-.06,1.42-.12S40,45.92,40,46.14ZM24.52,47.2c.09.85-.88,1.31-1.61,1.23a5.7,5.7,0,0,0-1.8,0c-.88.22-2.36-.7-1.9-1.82a7.25,7.25,0,0,0,.12-.95.5.5,0,0,1,.34-.29c1.39-.07,2.79-.11,4.19-.15.49-.05.66.13.65.53A8.17,8.17,0,0,0,24.52,47.2ZM42.58,11.54a1.56,1.56,0,0,1-1.33.44,36.26,36.26,0,0,0-4.66-.11,18.94,18.94,0,0,0-3,.64,1.35,1.35,0,0,1-.28,0c0-.06.08-.15.15-.17A10.75,10.75,0,0,1,37,11.18c1.28-.12,2.55-.36,3.82-.51a2.18,2.18,0,0,1,1.65.47C42.53,11.22,42.53,11.41,42.58,11.54ZM35.32,7.79a2.33,2.33,0,0,0-2.39,1c-.28.44-.57.88-.85,1.33s-.63.95-.92,1.44c-.06.08,0,.22,0,.33a2.61,2.61,0,0,0,.3-.2,1,1,0,0,1,.1-.16,6.42,6.42,0,0,1,.88-1c1-.75,2-1.45,3-2.18a3.13,3.13,0,0,0,.25-.26C35.57,8,35.45,7.8,35.32,7.79Zm-3.62-.6a10.5,10.5,0,0,0-1.42-.35,12.85,12.85,0,0,0-1.75.06,4,4,0,0,0-1,.11c-.37.13-.83.18-1.05.67,0,.11,0,.24,0,.31.36.45.72.91,1.13,1.33a7,7,0,0,1,1.61,2.58,1.91,1.91,0,0,0,.16.27,1.11,1.11,0,0,0,.13-.27,6,6,0,0,1,1.15-2.34,13.54,13.54,0,0,0,1.17-1.89C32,7.47,32,7.27,31.7,7.19Zm-4.78,4.14c-.25-.34-.52-.67-.82-1.06s-.45-.72-.7-1.08c-.16-.21-.33-.56-.54-.6A11.17,11.17,0,0,0,23,8.5c-.1,0-.24.16-.3.27S22.88,9,23,9l3.77,2.5s.11,0,.17,0S27,11.38,26.92,11.33Zm-4,.46c-.45-.13-.91-.25-1.48-.38-.33,0-.66-.08-1-.08-.93,0-1.86,0-2.79,0a2.28,2.28,0,0,0-.86.18.72.72,0,0,0-.36.93.7.7,0,0,0,.58.34c.9-.15,1.79-.41,2.69-.56S21.24,12,22,12c.3,0,.61.08.9.08a1.52,1.52,0,0,0,.4-.12C23.18,11.9,23.06,11.83,22.94,11.79Z"/><path id="void" d="M58.18,22a5.06,5.06,0,0,0-1.48-.86,8.56,8.56,0,0,0-2.25-.27,2.27,2.27,0,0,0,.44-.59c.14-.26-.15-1.15-.28-1.41s.39-.58.31-.74c-.21-.46.13-.59.33-.81s.28-.27.4-.43c.46-.56.35-1.16-.21-1.31a2,2,0,0,1-.39-.18c.14-.11.28-.27.43-.29.3-.05.61,0,.92,0s1-.48,1-.8a1,1,0,0,0-.74-.88l-.16,0a1.49,1.49,0,0,0,.95-.65,1.16,1.16,0,0,0,0-.95c-.3-.61-.95-.67-1.52-.7a19,19,0,0,0-2.39.09c-.54,0-1.08.23-1.63.27-.8,0-1.62.13-2.21-.67a11.45,11.45,0,0,0-1.23-1.37c-.92-.93-1.85-1.84-2.79-2.75A18,18,0,0,0,43.74,5a22.37,22.37,0,0,0-4.6-2.92c-.86-.35-1.73-.68-2.62-1a15.6,15.6,0,0,0-2-.48C33.64.46,32.78.35,31.92.25c-.2,0-.41.1-.6.08C30.53.24,29.75.07,29,0a12.57,12.57,0,0,0-4,.34c-1,.28-2.09.38-3.09.71-1.15.38-2.24.93-3.38,1.43a12.38,12.38,0,0,0-1.32.63c-.93.61-1.85,1.25-2.75,1.93a13.65,13.65,0,0,0-1.76,1.55c-1.45,1.59-2.83,3.24-4.29,4.83A2,2,0,0,1,7.2,12c-1.26.1-2.53.09-3.8.11-.38,0-.77,0-1.16,0a2.74,2.74,0,0,0-.81.12c-.37.14-.65,1-.54,1.48a1,1,0,0,0,.33.48.88.88,0,0,0-.53.67c-.07.44.21.69.57.86a2.83,2.83,0,0,1,.31.11c.4.25,1,.21,1.15.9A1.35,1.35,0,0,0,3.38,18a1.22,1.22,0,0,1,.34,1.76,2.59,2.59,0,0,0-.16.81c-.05.18-.09.47-.2.5-.88.27-1.79.49-2.69.73A.34.34,0,0,0,.52,22a3,3,0,0,1-.12.45c-.12.22-.41.43-.4.63a13.28,13.28,0,0,0,.27,2.09c.06.3.34.55.41.84.49,2.24,1,4.48,1.43,6.72,0,.19.13.5.07.54-.69.45-.39.86,0,1.29,0,0,0,.06,0,.08a4.75,4.75,0,0,0,.8,1,7.38,7.38,0,0,0,1.27.59c.18.08.48.07.21.43a.68.68,0,0,0,0,.65c.16.24.12.24-.12.34-1.33.53-1.36,1.68-.62,2.3s1.52,1.25,1.33,2.41c0,.07,0,.15,0,.23l.21,3.54a.67.67,0,0,0,.06.28c.06.09.14.17.21.26.08-.1.21-.2.22-.31.06-.47.09-.95.11-1.42,0-.72.07-1.44.11-2.16,0-.49.07-1,.09-1.47,0-.07,0-.53,0-.78a1.25,1.25,0,0,0,.47-2,5.54,5.54,0,0,0-.9-.58l-.23-.1a1.09,1.09,0,0,0,.17-.13.67.67,0,0,0,.3-.85c-.14-.33,0-.39.27-.44a2.27,2.27,0,0,0,1.69-1.1,2.81,2.81,0,0,1,.45-.62c.54-.57.46-1-.25-1.35a1,1,0,0,0-.35-.14c-.25,0-.29-.12-.26-.33l.3-2.54c.13-1,.28-2.07.4-3.11a11.75,11.75,0,0,1,.57-2.63,1.87,1.87,0,0,0,0-.85,1.75,1.75,0,0,0-.18-.53c-.15-.32-.25-.76-.51-.93a6.19,6.19,0,0,0-2.33-1.18c-.42-.06-.57-.27-.45-.71a1,1,0,0,0-.06-.72c-.13-.21-.44-.3-.67-.45a2.68,2.68,0,0,0,.68-.56c.28-.44.69-.29,1-.26A.71.71,0,0,1,7,19c.08.54.16,1.08.2,1.63a1.08,1.08,0,0,0,1.42,1c.54-.15.82,0,.8.58s-.09.91-.09,1.37c0,3.1-.07,6.21-.11,9.31,0,1.1-.07,2.19-.1,3.28,0,1.87,0,3.73-.17,5.61a43.51,43.51,0,0,0-.12,4.85c0,1.21.08,2.42.08,3.63,0,.92,0,1.83-.09,2.75,0,.62-.1,1.24-.1,1.87,0,2,.08,3.89.09,5.84,0,.57-.06,1.15-.09,1.72s-.07,1.42-.1,2.13c0,1-.09,2.1-.1,3.14s.07,1.89.1,2.83c0,1.33.08,2.65.1,4,0,1.12,0,2.25,0,3.37a1.29,1.29,0,0,0,0,.44,5.32,5.32,0,0,1,0,2.6.62.62,0,0,1-.45.33,11.87,11.87,0,0,0-3.57,0c-1,.17-1.39.54-1.41,1.55-.05,1.87-.08,3.74-.1,5.61,0,.23.08.47.09.71a16.33,16.33,0,0,0,0,2A1.24,1.24,0,0,0,4.8,92a2.3,2.3,0,0,1,.51-.1l3.15-.1a2.9,2.9,0,0,1,.59,0,2.27,2.27,0,0,0,2-.41.41.41,0,0,1,.26-.09,18,18,0,0,0,1.93.13c1.23-.06,2.45-.22,3.68-.29s2.56-.09,3.84-.12c.34,0,.68.08,1,.06s.95-.13,1.42-.12c.89,0,1.77.08,2.66.11s1.86,0,2.78,0,1.8.08,2.69.11l3.48.1c.84,0,1.68.09,2.53.12,1.5.06,3,.16,4.49.16,1.77,0,3.53-.09,5.29-.16h0c.46,0,.91,0,1.36.06a1.47,1.47,0,0,0,1,.27l4.78-.14c1.25,0,1.77-.4,1.91-1.65a17.58,17.58,0,0,0,.08-3.9,26.49,26.49,0,0,1-.35-4.18.85.85,0,0,0-.85-1c-1.15,0-2.3-.08-3.46-.11-.24,0-.49,0-.73,0-.07,0-.19-.1-.19-.16,0-.71,0-1.43,0-2.14,0-1.23.09-2.46.08-3.68,0-.89-.15-1.76-.17-2.64s.09-1.59.08-2.39c0-1.42-.08-2.83-.08-4.25,0-1,.06-2,.09-3.08,0-1.32.1-2.64.09-4q0-3.84-.1-7.67c0-1.72-.12-3.44-.18-5.16,0-.83-.06-1.65-.1-2.48-.06-1.08-.15-2.16-.19-3.25-.08-2-.14-4-.2-6,0,0,0,0,0-.06s0-.3,0-.46c0-.42,0-.84,0-1.26a.46.46,0,0,1,0-.13c0-1.6-.09-3.2-.1-4.8,0-.71.05-1.42.09-2.13,0-.34.23-.42.52-.41h.18a5,5,0,0,0-.1.53,4.9,4.9,0,0,0,.08.75c0,.46.07.92.1,1.39,0,.69.06,1.38.1,2.08,0,.33.09.66.09,1,0,.55,0,1.09-.1,1.64l0,.07c0,.38,0,.75,0,1.13a4.24,4.24,0,0,0,0,1,1.47,1.47,0,0,0,.3.7,2.33,2.33,0,0,0,.78.46l.82.08a2,2,0,0,1,.26.06.87.87,0,0,1-.19.23c-.52.33-.59.47-.39,1,.13.36.11.57-.3.76a1.13,1.13,0,0,0-.77,1.22,1.91,1.91,0,0,0,1.16.92h.3c0,.32,0,.69,0,.75a11.54,11.54,0,0,1,.31,3.84c0,.13.17.29.27.44a1.69,1.69,0,0,0,.19-.38c.08-.61.17-1.23.19-1.84a15.51,15.51,0,0,1,.13-2.84c.85-.07.91-.15,1.13-1a1,1,0,0,0-1-1.24,1.87,1.87,0,0,1-.32,0l.18-.28c.57-.91.26-1.14-.44-1.45l-.22-.09a.88.88,0,0,1,.27-.1c.47,0,1,0,1.41-.12a1.31,1.31,0,0,0,1-1.62.37.37,0,0,1,.05-.27,3.71,3.71,0,0,0,.61-2.31c0-.34,0-.69,0-1,.14-1.14.33-2.27.47-3.4a5.1,5.1,0,0,1,1.05-3,1,1,0,0,0,.12-.44,2.17,2.17,0,0,1,.08-.52A.59.59,0,0,0,58.18,22Zm-3.92-3.63a.61.61,0,0,1-.66-.47.69.69,0,0,1,.89,0c.08.06.09.19.14.3A1.36,1.36,0,0,1,54.26,18.41Zm.16,1.94c0,.1-.12.2-.19.3-.24,0-.51,0-.61-.17s.05-.41.17-.54.31-.75.5-.8C54.32,19.33,54.43,20.16,54.42,20.35ZM1.84,12.73c.19-.14.53-.09.8-.12h.3c1.49,0,3,0,4.46-.1a2.93,2.93,0,0,0,1.86-1.22c.33-.37.63-.77,1-1.15.95-1.08,1.87-2.18,2.85-3.22a17.5,17.5,0,0,1,2-1.77,19.13,19.13,0,0,1,2.46-1.64C18.74,2.86,20,2.3,21.28,1.76A21,21,0,0,1,26.35.6a6.89,6.89,0,0,1,1.1-.09c.69,0,1.37,0,2.05,0s1.11.2,1.67.27c.28,0,.56-.07.84-.05A18.49,18.49,0,0,1,33.85,1c.92.18,1.82.37,2.72.62a17.76,17.76,0,0,1,6.56,3.55C44.22,6,45.26,7,46.29,8c.72.67,1.39,1.38,2.06,2.1.36.38.68.8,1,1.21a2.15,2.15,0,0,0,1.93.66,10,10,0,0,1,1.55-.14L56,11.59c.07,0,.14,0,.19,0,.34.17.66.36,1,.54a5.68,5.68,0,0,1-.7.51,1.76,1.76,0,0,1-1.47.14,1,1,0,0,0-.38,0h-5a8.21,8.21,0,0,1-.84.08,1.16,1.16,0,0,1-.58-.34c-.86-.81-1.7-1.65-2.54-2.48-1-.77-2-1.52-3-2.19A19.31,19.31,0,0,0,40,6.24a43.42,43.42,0,0,0-4.66-1.85,32.88,32.88,0,0,0-4.06-.85,10.62,10.62,0,0,0-2.24-.21,22.28,22.28,0,0,0-2.81.37c-1.12.19-2.25.39-3.34.68S21,5,20,5.35a13.46,13.46,0,0,0-3.55,1.89c-.68.49-1.32,1-2,1.59-1,.82-1.91,1.65-2.82,2.51-.7.66-1.33,1.39-2,2.07a.79.79,0,0,1-.51.22c-1.59,0-3.2.06-4.8.09-.8,0-1.59.06-2.39.1-.29,0-.56-.08-.52-.37A1.14,1.14,0,0,1,1.84,12.73Zm45.35.51h-.27c-.56,0-1.11.06-1.67.08l-5.55.19c-2.09.06-4.18.13-6.27.18-1.79,0-3.57.06-5.36.08H25.32L20,13.85c-.83,0-1.65,0-2.47,0C16,13.9,14.52,14,13,14c-.82,0-1.65.07-2.47.08a6.34,6.34,0,0,1,.51-.65c1.27-1.21,2.53-2.43,3.83-3.61a17.7,17.7,0,0,1,4.67-3.06,30.68,30.68,0,0,1,3.2-1.31,21.35,21.35,0,0,1,6.6-1c.55,0,1.1.06,1.64.1a12.3,12.3,0,0,1,1.35.12c1.27.22,2.54.46,3.8.71a16.89,16.89,0,0,1,5.2,2.22A35.83,35.83,0,0,1,44.4,10a9.44,9.44,0,0,1,2.7,3.12A1.1,1.1,0,0,0,47.19,13.24ZM3.08,15.32c-.46,0-.92,0-1.38,0a2,2,0,0,1-.51-.24,1.58,1.58,0,0,1,.33-.42,3,3,0,0,1,.31-.15l.11,0,1.49-.06,1.14.06h.3c1.29,0,2.57,0,3.85,0h1c1.69,0,3.38,0,5.05-.1,3.93-.28,7.85-.1,11.75-.15,1.7,0,3.41,0,5.11-.09.91,0,1.82-.06,2.72-.09,1.26,0,2.51-.05,3.76-.09,1.48-.05,3-.14,4.45-.18s3-.07,4.5-.09c2.39,0,4.78-.07,7.16-.07a14.76,14.76,0,0,1,2.2.21c.16,0,.29.32.43.48a1.44,1.44,0,0,1-.43.28,6.35,6.35,0,0,1-2.64-.09h-.15c-3.87,0-7.76-.1-11.66-.13-1.43,0-2.85.05-4.28.09l-2.47.09-2.58.09-10.74.08c-1.07,0-2.13.08-3.2.09-1.51,0-3,0-4.53,0-.9,0-1.81,0-2.72.09-1.38.08-2.76.22-4.15.28S4.5,15.29,3.08,15.32Zm-1,15.61c-.24-1.26-.44-2.53-.66-3.8A12.27,12.27,0,0,1,1.2,25.8a1.18,1.18,0,0,1,0-.26c.09.06.25.1.27.18A12.29,12.29,0,0,1,1.8,27c.3,1.5.58,3,.87,4.52.1.49.25,1,.34,1.47,0,.13-.09.29-.14.44A1.84,1.84,0,0,1,2.62,33C2.44,32.3,2.25,31.62,2.11,30.93ZM2,26c0-.1.21-.31.34-.32.44,0,.88,0,1.32,0s.66.14.66.55c0,1.61,0,3.22,0,4.84,0,.66,0,1.31-.1,2a1.13,1.13,0,0,1-.19.4c-.17-.09-.46-.15-.5-.29-.27-.95-.5-1.91-.72-2.87-.18-.79-.31-1.59-.46-2.38C2.24,27.2,2.11,26.58,2,26ZM5.76,41.24a1.85,1.85,0,0,0-.15.39,2.81,2.81,0,0,1-.16-.49c0-.31.11-.44.43-.54l.1,0C5.9,40.8,5.79,41.18,5.76,41.24Zm.45-2.5c.11.1.06.42,0,.63s-.18.19-.27.29c-.66.69-1.06.32-1.37-.24-.13-.24-.24-.5-.36-.75-.22-.49.16-.53.39-.55A2,2,0,0,1,6.21,38.74Zm1.12-3.59c-.66.23-1.28.73-2,.53S4,35.29,3.37,35.09c-.21-.13-.47-.3,0-.3l3.88.08c.08,0,.16.09.24.14S7.38,35.13,7.33,35.15Zm.59-1.38c.13,0,.24.15.35.23a1.12,1.12,0,0,1-.38.15c-.43,0-.85,0-1.28,0a7.94,7.94,0,0,1-.81.09c-.85,0-1.69,0-2.54-.08a3.76,3.76,0,0,1-.66-.1c-.08,0-.13-.13-.19-.2a.78.78,0,0,1,.24-.09c1.43,0,2.87,0,4.3,0A7.83,7.83,0,0,1,7.92,33.77ZM4.75,30.55c0-.07.07-.14.12-.21a.86.86,0,0,1,.07.21c0,.79-.07,1.58-.09,2.37,0,.06.07.12.06.17a.5.5,0,0,1-.09.24s-.17,0-.19,0,0-.14,0-.22c0-.39.07-.77.1-1.16S4.73,31,4.75,30.55Zm0-4.53a1.5,1.5,0,0,1,.11-.36s.09,0,.1,0a1.89,1.89,0,0,1,.08.4c0,.42-.07.83-.08,1.24,0,.56,0,1.12,0,1.67a2.63,2.63,0,0,1-.08.46,1.05,1.05,0,0,1-.11-.31C4.74,28.09,4.74,27.05,4.74,26Zm.71.05c0-.47.15-.56.65-.48.28.05.58,0,.86,0,.11,0,.3.18.29.26a21.86,21.86,0,0,1-.19,2.29c-.24,1.42-.53,2.83-.8,4.24,0,0,0,0,0,.05,0,.17,0,.6,0,.91-.86,0-.87-.06-.87-1.09s0-2.15,0-3.22c0-.56.07-1.11.09-1.67S5.45,26.51,5.45,26.07Zm1.89,4.09a5,5,0,0,1,0,.67c-.11.69-.26,1.38-.35,2.07a.44.44,0,0,1-.5.46H6.34a8.84,8.84,0,0,0,.31-.87c.15-.55.25-1.11.36-1.66a5.13,5.13,0,0,0,.2-.7A.59.59,0,0,1,7.34,30.16ZM8.48,24c-.16.15-.28.39-.46.44a7.13,7.13,0,0,1-3,.13,10.27,10.27,0,0,0-1.57,0c-.79,0-1.59.08-2.38.1a1.26,1.26,0,0,1-.43-.16,1.92,1.92,0,0,1,.32-.43.72.72,0,0,1,.4-.11c.66,0,1.32-.08,2-.1s1.34,0,2,0c.94,0,1.78-.08,2.63-.09A1.54,1.54,0,0,1,8.48,24Zm-.67-1.36c.07.05.1.18.15.27-.12,0-.23.13-.35.13-1,0-2,0-3,0s-2,.06-3,.11c-.2,0-.41.1-.61.08s-.28-.14-.41-.22a2,2,0,0,1,.21-.35,3.44,3.44,0,0,1,2.05-1c.63-.09,1.28-.08,1.92-.12A4.43,4.43,0,0,1,7.81,22.68ZM4.62,19.82a.63.63,0,0,1,.2.49.71.71,0,0,1-.39.44c-.22.08-.42-.43-.3-.74C4.33,19.91,4.57,19.77,4.62,19.82Zm3.72.74c-.69,0-.71,0-.78-.73a11,11,0,0,0-.2-1.28A1.29,1.29,0,0,0,6,17.44c-.59,0-1.19,0-1.77-.11-.15,0-.28-.22-.41-.34.13-.08.25-.23.39-.24,1.08-.09,2.17-.15,3.25-.21.67,0,1.35-.09,2-.09,4.78,0,9.53,0,14.27,0,1.32,0,2.63,0,3.94,0s2.59-.06,3.88-.09l8.34-.19,3.49-.09c.82,0,1.63-.08,2.45-.09l7-.1c.44,0,.88-.11,1.31-.08a8.93,8.93,0,0,1,1.34.3.37.37,0,0,1,0,.26,1.54,1.54,0,0,1-1.14.53c-1,.12-1.94.31-2.91.48a.55.55,0,0,0-.48.65q0,.91,0,1.83a1.22,1.22,0,0,1-.11.59.61.61,0,0,1-.48.1c-.3-.68-.89-.34-1.35-.39a2.76,2.76,0,0,0-.69.08h-.1c-4.41,0-8.85.08-13.29.1-1.34,0-2.69-.08-4-.09-.59,0-1.17.07-1.76.09s-1.24,0-1.87,0l-5.92.09c-1.27,0-2.44-.09-3.61-.09-1.55,0-3.11.06-4.67.1ZM10.89,90.4c0,.47-.23.69-.6.67-1-.06-2-.12-3-.22-.84-.08-1.67-.22-2.51-.31-.11,0-.23.17-.35.25L4.19,91c-.05-.1-.14-.19-.15-.29a12.44,12.44,0,0,1-.1-1.36c0-.86,0-1.72,0-2.57,0-1.33.06-2.67.1-4a.79.79,0,0,1,.88-.87c1,0,2.05-.09,3.07-.07A7.56,7.56,0,0,1,9.62,82c.94.24,1.16.55,1.17,1.5,0,.42,0,.84,0,1.26.06,1.71.13,3.42.19,5.13A1.58,1.58,0,0,1,10.89,90.4Zm43.38-8.71a.74.74,0,0,1,.54.39c.24.91.43,1.85.63,2.77s.09,1.91.1,2.84c0,.75,0,1.51,0,2.27a2.68,2.68,0,0,1-.1.69c0,.08-.18.19-.25.17a27,27,0,0,0-4.67,0c-.49,0-1,0-1.47,0-.3,0-.51-.11-.51-.51,0-1.86-.05-3.73-.09-5.59,0-.74-.08-1.49-.09-2.23,0-.56.18-.78.71-.77C50.8,81.63,52.54,81.64,54.27,81.69ZM50.09,50c0,2.52.09,5,.1,7.57,0,1.93-.07,3.86-.09,5.8,0,1.61,0,3.22,0,4.83,0,1.21-.05,2.43-.09,3.65,0,.71-.1,1.43-.09,2.14,0,1.37.07,2.74.08,4.11,0,.61-.07,1.22-.08,1.84a1.15,1.15,0,0,0,.1.59c.19.31,0,.33-.21.35s-.49,0-.73,0A1,1,0,0,0,48,82.11c0,.94,0,1.88,0,2.82,0,.72.08,1.43.08,2.14S48,88.46,48,89.16v.2c0,.8,0,.8-.81.82-2.79,0-5.59.11-8.39.15-.9,0-1.81,0-2.71,0-1.38-.06-2.75-.18-4.13-.26-.48,0-1-.06-1.45-.06l-4.9,0c-.66,0-1.33-.07-2,0-1.17.06-2.33.2-3.5.29l-2.63.18c-1.34.1-2.68.22-4,.31a5.22,5.22,0,0,1-1.11-.07.52.52,0,0,1-.51-.59c0-1.36-.22-2.72-.27-4.09,0-1,.08-2.08.07-3.12a1,1,0,0,0-.31-.75c-.47-.32-.74-.92-1.5-.86-.48,0-.26-.52-.27-.81,0-.84,0-1.67,0-2.51v-.19c0-1-.07-2.09-.11-3.13s-.08-2.35-.09-3.53c0-.82.09-1.65.09-2.47,0-1.81-.11-3.63-.09-5.44,0-2.51.14-5,.19-7.52,0-.87-.09-1.74-.09-2.62,0-1.82.06-3.64.1-5.46,0-1.64.06-3.29.1-4.94,0-1.27.06-2.55.1-3.83s.08-2.75.09-4.13c.05-3.24.07-6.48.11-9.72,0-.55.08-1.11.09-1.66,0-.31-.08-.61-.09-.92,0-.53.21-.72.72-.74s1.18-.1,1.77-.09c.81,0,1.61.07,2.42.09h1.8c1.32,0,2.64-.06,4-.11.79,0,1.57-.08,2.35-.09l12.35-.11c.75,0,1.51.1,2.26.09,3.41,0,6.81-.06,10.2-.1.49,0,1-.06,1.47-.1.22,0,.32,0,.25.31a8.79,8.79,0,0,0,.07,1.34c0,1.2-.1,2.4-.14,3.6s-.07,2.14,0,3.18c0,2,.13,4,.19,6,0,.76.08,1.52.1,2.28,0,1.41,0,2.81.1,4.21,0,1.13.13,2.26.19,3.38C50,47,50.06,48.53,50.09,50ZM50,22.3c0-.18,0-.4,0-.56-.22-.59-.24-.59.42-.59h.15a.73.73,0,0,0,.8-.73c0-.44.08-.89.09-1.34,0-.69.18-.89.84-1,.14,0,.28-.11.4-.09s.71-.23.62.39c0,0,0,.11.1.15.29.19.15.34,0,.52a1.68,1.68,0,0,0-.13,1.79l.12.11c-.3,0-.61.06-.91.11a2.86,2.86,0,0,0-2.05,1.39,1.5,1.5,0,0,1-.2.24A1.66,1.66,0,0,1,50,22.3Zm1.05,3a3.71,3.71,0,0,0-.18-.55c.19,0,.35.08.38.38a10.09,10.09,0,0,1,0,1.1.91.91,0,0,1-.11.3l-.08-.34A8.39,8.39,0,0,0,51.06,25.26Zm3.26,12.61c.12,0,.24.4.23.6a.83.83,0,0,1-.33.54,1.83,1.83,0,0,1-2-.38c-.1-.11,0-.35-.06-.53C52.85,37.41,53.6,37.71,54.32,37.87Zm-.55-1.58c-.07.13-.13.3-.23.35a1.1,1.1,0,0,1-.48,0,2.86,2.86,0,0,1,0-.58Zm1.44-1.72a2.5,2.5,0,0,1-.5.21,15,15,0,0,1-1.82.11c-.51,0-.52-.19-1-.33a.54.54,0,0,1-.16-.1L51.19,34a2.83,2.83,0,0,1,.63-.13c1.24,0,2-.1,3.22-.08.2,0,.4.17.59.26A4.22,4.22,0,0,1,55.21,34.57Zm.23-1.33c-.95.06-1.86.09-2.76.06a11,11,0,0,1-1.26-.19,1.17,1.17,0,0,1-.33-.14c.13,0,.25-.15.37-.14,1.17,0,1.44.06,2.61.07.43,0,.87-.08,1.31-.1a2.05,2.05,0,0,1,.53.13Zm-2.23-5.18c0,1.24.06,2.47.1,3.71,0,.77,0,.76-.69.75-.34,0-.46-.15-.49-.5-.11-1.26-.29-2.52-.37-3.78-.06-1,0-2,0-3,0-.58.17-.66.87-.65.38,0,.61.12.6.59C53.19,26.15,53.2,27.1,53.21,28.06Zm-1.47,4.06a1.34,1.34,0,0,1-.16.4c-.07-.12-.21-.24-.21-.36,0-.85,0-1.7,0-2.55a1.52,1.52,0,0,1,0-.45,1.13,1.13,0,0,1,.13.33c.08.59.14,1.19.2,1.78A8.47,8.47,0,0,1,51.74,32.12ZM53.89,27c0,1.3.06,2.6.1,3.9,0,.45.07.89.08,1.34,0,.1-.1.2-.16.31a1.21,1.21,0,0,1-.11-.3,4.87,4.87,0,0,1,0-.54c-.06-.08-.09-.1-.09-.13,0-1.94-.07-3.88-.1-5.82q0-.41,0-.81c0-.06.08-.12.13-.19s.13.09.15.15a1,1,0,0,1,0,.3C53.89,25.76,53.88,26.36,53.89,27Zm.4-1.84a.64.64,0,0,1,.4-.4c.37,0,.75,0,1.11,0s.34.19.32.41c-.09.8-.18,1.59-.3,2.39s-.26,1.59-.38,2.4-.18,1.39-.3,2.09a.73.73,0,0,1-.31.41s-.23-.15-.36-.23c-.06-1.5-.14-2.9-.19-4.3C54.25,27,54.26,26,54.29,25.12Zm2.23,2.82c-.17,1.35-.26,2.71-.41,4.07,0,.17-.22.32-.34.48a1.41,1.41,0,0,1-.13-.43c.11-1,.24-1.9.37-2.85.07-.58.14-1.16.2-1.74,0-.38.07-.76.1-1.14s.13-.8.2-1.17a1.24,1.24,0,0,1,.23-.44c0-.06.15-.06.23-.09a.94.94,0,0,1,.06.27C56.86,25.91,56.64,26.92,56.52,27.94Zm1-4.34a5.35,5.35,0,0,1-1,.11l-4,.31c-.66,0-1.23,0-1.8,0a1.61,1.61,0,0,1-.38-.14c.06-.13.09-.31.19-.39a1.2,1.2,0,0,1,.58-.25c2.13,0,4.27-.09,6.4-.11a1.69,1.69,0,0,1,.49.17C57.8,23.41,57.66,23.57,57.5,23.6Zm.32-1.08-3.16-.08c-.24,0-.48,0-.72,0l-1.42.1-1.27.09a1.12,1.12,0,0,1-.34-.11c.06-.08.1-.2.18-.24a13.36,13.36,0,0,1,1.71-.81c.3-.1.7.12,1,.06a5.48,5.48,0,0,1,4.05.71c.06,0,.11.1.17.15S57.9,22.53,57.82,22.52ZM33.9,10.16a15.86,15.86,0,0,0,2.41-1.85c.73-.75.61-1.27-.4-1.55a3.24,3.24,0,0,0-.66-.18,2.13,2.13,0,0,0-1.79.49,10.64,10.64,0,0,0-1.13,1.67c-.67,1.12-1.3,2.26-2,3.39a2.08,2.08,0,0,1-.27.32c-.05-.15-.16-.32-.12-.45.13-.39.31-.77.48-1.2a5.79,5.79,0,0,1,.42-.71,8.27,8.27,0,0,0,1.68-3.23c.09-.47,0-.67-.46-1a5.55,5.55,0,0,0-2.83-.53,6.94,6.94,0,0,0-2.3.34,1.53,1.53,0,0,0-.67,2.75,10.21,10.21,0,0,1,1.66,2c.49.77.81,1.63,1.22,2.44a1.22,1.22,0,0,0,.26.3,1.37,1.37,0,0,0,.22-.19,1.71,1.71,0,0,0,.2-.27,1.35,1.35,0,0,1,.3.28c.18.34.43.41.7.13s.39-.47.59-.7A12.71,12.71,0,0,1,33.9,10.16ZM29.56,11.9a1.59,1.59,0,0,1-.12.27,1.61,1.61,0,0,1-.17-.28,6.91,6.91,0,0,0-1.62-2.57c-.4-.42-.76-.88-1.12-1.33-.05-.07,0-.21,0-.31.21-.49.68-.54,1.05-.67a3.62,3.62,0,0,1,1-.1,11.18,11.18,0,0,1,1.73-.07,9.07,9.07,0,0,1,1.43.36c.33.08.3.27.18.47a17.61,17.61,0,0,1-1.17,1.9A5.85,5.85,0,0,0,29.56,11.9Zm2-.4c-.07.09-.07.14-.1.16s-.2.14-.3.21c0-.12,0-.25,0-.34.29-.49.61-1,.91-1.44l.86-1.33a2.35,2.35,0,0,1,2.39-1c.14,0,.25.19.37.29a1.54,1.54,0,0,1-.25.26c-1,.73-2,1.43-3,2.18A6.92,6.92,0,0,0,31.55,11.5Zm9.38-2.21a8.92,8.92,0,0,0-4.76,1c-.8.4-1.57.84-2.37,1.28-.46.34-.93.62-1.32,1a.75.75,0,0,0-.2.67c.09.24.39.29.68.14a5.52,5.52,0,0,1,.71-.28,17.64,17.64,0,0,1,4.63-.51c1.18-.07,2.38.13,3.57.16.83,0,1.68-.94,1.46-1.62A2.31,2.31,0,0,0,40.93,9.29ZM41.25,12a38.16,38.16,0,0,0-4.66-.11,19.32,19.32,0,0,0-3,.64.68.68,0,0,1-.27,0c0-.05.09-.14.15-.16A10.78,10.78,0,0,1,37,11.18c1.29-.12,2.56-.36,3.83-.51a2.18,2.18,0,0,1,1.65.47c.1.08.1.26.14.4A1.57,1.57,0,0,1,41.25,12Zm-15.07.66c-.9-.5-1.83-1-2.71-1.5a8.66,8.66,0,0,0-4.25-1.22c-.6,0-1.2,0-1.8,0a2.43,2.43,0,0,0-1.58.58c-.9.84-.33,2.09.36,2.7a.65.65,0,0,0,.21.07,6,6,0,0,0,2.77-.12,15.94,15.94,0,0,1,4.24-.31c.9.11,1.78.39,2.67.59l.5.09c-.05-.23-.08-.46-.15-.68S26.28,12.69,26.18,12.64Zm-3.27-.58c-.31,0-.61-.1-.91-.08-.76,0-1.53.11-2.28.23s-1.78.41-2.68.56a.7.7,0,0,1-.59-.34.72.72,0,0,1,.36-.93,2.28,2.28,0,0,1,.86-.18c.93,0,1.86,0,2.79,0,.34,0,.67.06,1,.1.55.12,1,.24,1.47.38a1.84,1.84,0,0,1,.36.15A1.21,1.21,0,0,1,22.91,12.06Zm4.18-1.21c-.61-.86-1.16-1.76-1.81-2.59a2,2,0,0,0-1.1-.94,3.78,3.78,0,0,0-2,.31.78.78,0,0,0-.6.8,1.24,1.24,0,0,0,.52.75c.62.42,1.29.76,1.92,1.17.83.53,1.64,1.09,2.48,1.66.56.5,1.09,1,1.63,1.43.07.06.2,0,.31.06,0-.3.17-.68,0-.9C28.05,12,27.52,11.44,27.09,10.85Zm-.17.7c-.06,0-.13,0-.17,0L23,9c-.1-.07-.27-.21-.25-.25s.19-.28.3-.28a10.16,10.16,0,0,1,1.83.1c.21,0,.38.39.53.61s.47.71.7,1.07.57.72.82,1.06C27,11.38,26.92,11.47,26.92,11.55ZM47.37,80.63q-.06-3.09-.1-6.19c0-.86,0-1.73,0-2.59,0-.48-.08-1-.09-1.44,0-1.94-.05-3.87-.1-5.8,0-1.46-.13-2.92-.19-4.37,0-1.11-.07-2.22-.1-3.33,0-.67,0-1.35,0-2.08,0-.91-.07-1.77-.09-2.63,0-1.49-.08-3-.1-4.46,0-2-.05-4-.11-6,0-1.28-.13-2.56-.18-3.83,0-1.1-.08-2.19-.1-3.28,0-.58,0-1.17,0-1.75s.08-.93.09-1.4c0-1.09,0-2.18,0-3.27.07-1.65-.38-2.13-2-2.05-.89,0-1.79,0-2.69,0s-2-.16-3-.17c-.66,0-1.32.15-2,.19-1,.05-2,.07-3,.11l-4.92.21-3.13.11c-1.93,0-3.86.07-5.79.12-1.47,0-2.95.08-4.43.1-.57,0-1.14-.08-1.71-.08s-1.42,1-1.27,1.48a4.28,4.28,0,0,1,.09,1.23c0,.76.07,1.52.09,2.27,0,1.43.1,2.85.1,4.28,0,2.8-.07,5.6-.09,8.4,0,.8.09,1.61.09,2.42,0,1.51-.07,3-.09,4.54,0,2.39-.07,4.77-.11,7.15,0,1.19-.11,2.38-.09,3.58,0,1.59.15,3.19.19,4.78,0,.74-.07,1.48-.09,2.22,0,1.35-.07,2.69-.11,4s-.06,2.63-.1,3.95c0,1.14-.08,2.28-.1,3.43,0,2.55-.06,5.1-.1,7.64a1.47,1.47,0,0,1,0,.21,1.32,1.32,0,0,0,1.17,1.36c.89,0,1.78-.1,2.66-.17,1.53-.14,3.06-.37,4.58-.42,3.28-.11,6.54-.16,9.8-.19,1.38,0,2.76.1,4.13.18s2.45.22,3.68.28c1.74.08,3.48.13,5.22.14,1,0,2-.11,3-.18a.47.47,0,0,0,.26-.08c.28-.27.56-.56.82-.85a.57.57,0,0,0,.14-.34c0-.75-.08-1.5-.09-2.25C47.43,84.14,47.4,82.39,47.37,80.63Zm-18.21-32c0,1.18-.06,2.35-.09,3.52-.07,2.89-.15,5.77-.19,8.66,0,1.46.05,2.93.1,4.39s.12,2.71.19,4.06c0,.88.18,1.77.19,2.65,0,2.59,0,5.18,0,7.77,0,.77,0,1.54,0,2.31,0,1.85-.07,3.7-.09,5.55,0,.3-.1.41-.4.41-1.26,0-2.52,0-3.78,0s-2.33,0-3.49,0-2.31.19-3.47.29-2.24.22-3.37.29a7.61,7.61,0,0,1-1.51-.07c-.17,0-.43-.26-.43-.42,0-1.24-.06-2.48,0-3.71.07-1.62.22-3.24.29-4.86.09-1.87.19-3.73.2-5.6,0-3.07-.06-6.15-.09-9.23,0-.57,0-1.15,0-1.72,0-1.06,0-2,0-3,0-1.12.06-2.25.1-3.37s.07-2,.1-3.08c0-1.47.08-3,.09-4.42,0-2.29,0-4.58,0-6.87,0-1.64-.13-3.29-.19-4.94,0-.82-.08-1.64-.1-2.46,0-1.56-.08-3.12-.1-4.68a10,10,0,0,1,.1-1.22,1.36,1.36,0,0,1,1-.9,9.77,9.77,0,0,1,1.32-.1l8.44,0c.89,0,1.79.08,2.69.08.65,0,1.29-.08,1.94-.1s.71,0,.74.71.1,1.4.09,2.1c0,1.47-.05,2.93-.09,4.4,0,1.13-.07,2.27-.1,3.4-.07,2.85-.14,5.7-.19,8.55C29.07,47.55,29.17,48.08,29.16,48.61Zm17.6,39.08a.93.93,0,0,1-1.15.74,16,16,0,0,0-4.2.11,20.27,20.27,0,0,1-2.7,0c-.4,0-.8,0-1.19-.06s-.4-.07-.55-.08c-1.46-.1-2.92-.2-4.38-.28-.66,0-1.32,0-2,0S30,88,30,87.45c0-.87-.09-1.73-.09-2.6s.08-2,.09-3c0-1.55,0-3.1,0-4.66,0-.65.18-1.31.17-2,0-.84-.11-1.67-.18-2.51,0-.48-.07-1-.09-1.45,0-.9-.07-1.8-.1-2.7-.07-2.13-.16-4.26-.19-6.4,0-1.22.05-2.44.09-3.67,0-.52.09-1,.09-1.55,0-4,0-7.95,0-11.92,0-1.65.07-3.3.09-4.95,0-2.93.06-5.86.11-8.78,0-.79.13-1.58.19-2.37a2.33,2.33,0,0,0-.1-.5c-.09-.53,0-.63.52-.63l3.36,0c.92,0,1.84,0,2.76,0l5.12-.11c1,0,1.9,0,2.85,0,.56,0,.73.19.75.74,0,1.59.12,3.18.19,4.77,0,.91.06,1.82.1,2.74.06,1.31.16,2.61.19,3.92.05,2.4.06,4.8.1,7.19,0,1.13.06,2.25.1,3.38s.07,2.12.09,3.18c0,1.73.06,3.47.11,5.2.05,1.94.14,3.88.18,5.81.06,2.56.07,5.12.11,7.68,0,1.2.07,2.38.09,3.58,0,2,.08,4,.09,6,0,1-.08,1.9-.08,2.85,0,.48.13.94.15,1.42A8.2,8.2,0,0,1,46.76,87.69ZM34.41,67c1.83-.12,3.67-.1,5.51-.13a3.58,3.58,0,0,1,.59.08,6.69,6.69,0,0,1,.89,0,.89.89,0,0,0,1.07-.74,2.91,2.91,0,0,0,0-.66c0-1.64-.09-3.29-.09-4.93,0-1,.07-1.9.08-2.85,0-2.78.08-5.56.1-8.34q.06-6.44.1-12.87v-.6c0-1.28.11-2.56.07-3.84a1.16,1.16,0,0,0-.67-.88A8.31,8.31,0,0,0,40,31.1c-.72,0-1.45.17-2.18.19s-1.44-.05-2.17-.08h-.15a5.48,5.48,0,0,0-3,.23c-.89.32-1.06.4-1,1.28q0,.63,0,1.26c0,1.34-.07,2.67-.1,4,0,1.5-.08,3-.1,4.49s0,3.27,0,4.9-.16,3-.18,4.46C31,56,31,60.2,31,64.39a1.51,1.51,0,0,1-.07.37,1.7,1.7,0,0,0,1.43,2.15A11.29,11.29,0,0,0,34.41,67Zm-2.68-1.36a.43.43,0,0,1-.05-.16.69.69,0,0,1,0-.28c0-.52,0-1,0-1.54-.05-1.17-.17-2.34-.18-3.51s.12-2.14.18-3.21c0-.26,0-.53,0-.79,0-1.34.05-2.67.1-4,.05-1.5.13-3,.19-4.5,0-1,.08-2,.1-3,0-1.91.07-3.83.1-5.74,0-1,.09-1.87.09-2.75s-.09-1.83-.08-2.75c0-.7.41-1.06,1.18-.88a2.09,2.09,0,0,0,.43,0l7.33,0c.61,0,.67.06.7.67.06,1.16.14,2.32.19,3.49.05.81.1,1.62.1,2.44,0,1.34-.07,2.68-.09,4,0,.67,0,1.34,0,2,0,2.64-.08,5.27-.1,7.9,0,.8.1,1.59.09,2.39,0,3.21-.06,6.42-.09,9.63,0,.57-.25.79-.79.82-1.9.09-3.81.22-5.72.3-.9,0-1.81,0-2.72,0a.65.65,0,0,1-.3-.09h0a1,1,0,0,1-.34-.09A.78.78,0,0,1,31.73,65.63ZM43,71.44c0-.37-.14-.72-.48-.85a2.46,2.46,0,0,0-1-.18c-1,0-2,.18-3.06.25-1.88.12-3.76.21-5.64.32-.5,0-.72.23-.7.75,0,.88.07,1.76.09,2.64,0,.67,0,1.33,0,2,0,.5.12,1,.09,1.5-.07,1.36-.24,2.71-.27,4.07,0,.92.2,1.13,1.08,1.28a13.26,13.26,0,0,0,1.89.15c.89,0,1.78-.07,2.66-.06,1.19,0,2.37.08,3.56.09a2.93,2.93,0,0,0,1.05-.21,1.54,1.54,0,0,0,.56-.52,4.59,4.59,0,0,0,.4-.8C43.09,78.36,43.33,74.89,43,71.44Zm-.49,9.29a.61.61,0,0,0,0,.19c0,1,0,1-.94,1.19a23.49,23.49,0,0,1-4.88.42c-1.06,0-2.12-.06-3.17-.12-.61,0-.76-.29-.76-1.22,0-.25-.09-.4-.09-.55,0-1.17.09-2.34.08-3.51,0-.84-.13-1.67-.18-2.51a7.39,7.39,0,0,1,0-.94c0-.19,0-.38.05-.58s-.09-.72.06-.87.59-.15.91-.17c1.08-.07,2.17-.11,3.26-.18s2.2-.19,3.31-.25a7.31,7.31,0,0,1,1.62.06c.62.11.65.73.67,1.19.08,1.65.1,3.3.11,5C42.57,78.8,42.51,79.76,42.48,80.73ZM27.38,47.3c0-.56-.07-1.13-.09-1.7s0-1.28,0-1.92c0-.9-.06-1.8-.09-2.7,0-1.25-.08-2.5-.1-3.75q0-1.5,0-3c0-.3.08-.6.09-.9a4,4,0,0,0,0-1.28A1.48,1.48,0,0,0,25.61,31c-1,0-2.06.07-3.09.1s-1.84,0-2.76,0-1.79.29-2.68.28-1.21.41-1.25,1.3A11.41,11.41,0,0,0,16,33.94c.08,1,.2,2.08.2,3.12,0,2.87-.06,5.74-.1,8.6,0,1.71-.08,3.42-.09,5.13,0,.81.09,1.62.09,2.43q0,4.66,0,9.33c0,.34,0,.68,0,1,0,.94,0,1.88.14,2.81A.67.67,0,0,0,17,67c.84,0,1.68,0,2.52-.06,1.36,0,2.72-.06,4.07-.07.85,0,1.7.05,2.55,0a1.8,1.8,0,0,0,.76-.32,1,1,0,0,0,.44-1.29c0-3.38-.08-6.71-.1-10,0-1.27.06-2.54.1-3.8S27.37,48.69,27.38,47.3Zm-.79,17.75c0,.63-.55.55-.89.56-2,.11-4.08.16-6.13.24-.78,0-1.57.09-2.36.14-.35,0-.51-.13-.49-.49,0-.84.08-1.68.09-2.51,0-1.4,0-2.79,0-4.18,0-.57,0-1.13,0-1.69,0-.94-.17-1.88-.18-2.82,0-1.42.06-2.85.09-4.27,0-.44,0-.87,0-1.31,0-1.94.06-3.89.1-5.84,0-2.52,0-4.94,0-7.37,0-.64.14-1.28.18-1.92a1.24,1.24,0,0,0-.19-.71c-.21-.3,0-.33.17-.38a1.5,1.5,0,0,1,.3,0l6.74,0h2.1c.33,0,.48.16.46.48s-.09.75-.09,1.13q0,1.47,0,2.94c0,1.24.07,2.47.09,3.71,0,1,0,1.94,0,2.91,0,2.69.08,5.38.09,8.08,0,1.18-.09,2.37-.08,3.55,0,2.32.07,4.63.08,7C26.69,63.15,26.62,64.1,26.59,65.05Zm.49,6.56c-.17-.59-.72-.36-1.09-.37-2-.06-3.93-.09-5.9-.08-.85,0-1.7.08-2.55.15a1.21,1.21,0,0,0-1.26,1,5,5,0,0,0-.06.94c0,1.8,0,3.59,0,5.39,0,.75.08,1.51.09,2.26,0,.51-.09,1-.09,1.52,0,.92.17,1.14,1,1.36a2.7,2.7,0,0,0,.59,0c.42,0,.79-.12,1.16-.13.74,0,1.48.06,2.22,0,1.07,0,2.13-.11,3.2-.18.51,0,1-.07,1.54-.14a1.82,1.82,0,0,0,1.35-1.59v-6.3c0-.88,0-1.77,0-2.65A6,6,0,0,0,27.08,71.61Zm-.49,10.06c-.07.51-.31.7-.93.75l-1,0-6.76.47a1.51,1.51,0,0,1-.3,0c-.66,0-.74-.23-.71-.9s-.08-1.39-.08-2.08c0-1.26.05-2.52.1-3.77,0-.76.14-1.52.19-2.28,0-.2-.07-.4,0-.59.16-.77.33-.9,1.14-.92l7.13-.15a1,1,0,0,1,1.14,1c0,.78,0,1.57,0,2.35.05,1.62.13,3.25.18,4.87A7,7,0,0,1,26.59,81.67ZM33.8,50a12.87,12.87,0,0,0,2.08,1,7.29,7.29,0,0,0,2.3.12,1.31,1.31,0,0,0,1.13-.61,2.73,2.73,0,0,1,.71-.64c.47-.36,1-.69.89-1.42a.57.57,0,0,1,.07-.27,7.63,7.63,0,0,0,.4-3.54c0-.34-.07-.74-.61-.72-.2,0-.41-.18-.61-.29s-.37-.32-.57-.36a11.08,11.08,0,0,0-1.34-.1c-.88,0-1.72,0-2.55,0a5.09,5.09,0,0,0-1.34.23c-.37.12-.69.42-1.06.54a.72.72,0,0,0-.57.81c0,1.07,0,2.13.12,3.19A2.32,2.32,0,0,0,33.8,50Zm2.28-.2c0,.12-.07.24-.09.36s0,.3,0,.45l-.34-.24a1.3,1.3,0,0,1,0-.68c.07-.16.28-.26.43-.39A4.17,4.17,0,0,1,36.08,49.75Zm1.17.67c-.11.3-.36.25-.57,0-.07-.39-.07-.74-.1-1.08s.24-.41.47-.35a.56.56,0,0,1,.3.4A2.59,2.59,0,0,1,37.25,50.42Zm1,0c0,.09-.19.14-.3.22,0-.09-.15-.18-.15-.28a6.62,6.62,0,0,1,0-.77,1.18,1.18,0,0,0,0-.2c0-.22-.28-.52.1-.61.11,0,.41.29.43.48A4.13,4.13,0,0,1,38.3,50.47Zm.84-.59a2.31,2.31,0,0,1-.24.2,2.56,2.56,0,0,1,0-.27.7.7,0,0,1,0-.25c0-.19.1-.38.15-.57l.24.54A1.07,1.07,0,0,1,39.14,49.88Zm1.19-4.38a3,3,0,0,1,0-.84c0-.12.13-.24.2-.36.13.1.36.2.36.31a6.63,6.63,0,0,1-.36,3.21,3.4,3.4,0,0,0-.12.65,4.18,4.18,0,0,1-.31.76c-.05.08-.2.11-.31.16a3.17,3.17,0,0,1,0-.44c0-.07.11-.12.16-.18A6,6,0,0,0,40.33,45.5Zm-5.9-1.28c.07-.18.26-.43.42-.44.75-.09,1.51-.12,2.27-.14a10.17,10.17,0,0,1,1.09.08,11.76,11.76,0,0,1,1.19,0c.62.06.39.58.42.94s-.27.43-.53.44l-3.65,0a7.53,7.53,0,0,1-1,0c-.1,0-.24-.17-.27-.29A1.22,1.22,0,0,1,34.43,44.22Zm.18,1.53c.44,0,.89,0,1.33,0,.79,0,1.48,0,2.16,0a13.56,13.56,0,0,0,1.43-.12c.45-.06.48.33.47.55,0,.6-.12,1.2-.17,1.8s-.37.75-.81.54a3.49,3.49,0,0,0-2.12,0c-.5.08-1,.24-1.49.28-.72,0-1-.47-1.09-1.09s-.07-1-.11-1.49C34.19,45.83,34.32,45.74,34.61,45.75Zm-1-1.44a.37.37,0,0,1,.29,0s0,.18,0,.27a6.58,6.58,0,0,0,0,3.18,1.36,1.36,0,0,0,1,1.37c.13,0,.17.34.25.52a2,2,0,0,1-.49,0c-.84-.14-1-.83-1.18-1.52-.1-.49-.14-1-.2-1.5,0-.66,0-1.22,0-1.79A.56.56,0,0,1,33.64,44.31Zm-8.35-.87a1,1,0,0,1-.57-.36.82.82,0,0,0-.79-.42c-1.21,0-2.42,0-3.63.05-.34,0-.84,0-1,.22-.33.45-.78.35-1.17.49s-.68.22-.73.64a9,9,0,0,0-.09,1.46,21.2,21.2,0,0,0,.3,2.38,2.06,2.06,0,0,0,1.52,1.72,4.38,4.38,0,0,0,.68.08c-.11.61.16.76.75.89a8.36,8.36,0,0,0,2.06.17,1.72,1.72,0,0,0,1.62-1,.77.77,0,0,1,.34-.35A3.21,3.21,0,0,0,26.07,46a3.63,3.63,0,0,1,0-1.14C26.27,44,26.08,43.64,25.29,43.44Zm-5.07-.24a3.38,3.38,0,0,1,.45,0l3.08,0c.5,0,.59.12.46.64a.71.71,0,0,0,0,.29c.12.56,0,.66-.49.67l-3.33,0c-.17,0-.34.08-.51.08-.33,0-.61-.1-.66-.46C19.12,43.59,19.41,43.36,20.22,43.2ZM18,47.3c-.07-.78-.13-1.55-.18-2.35a4.74,4.74,0,0,0,.08-.6.62.62,0,0,1,.68-.53c.38.06.12.31.12.48a1.62,1.62,0,0,0,0,.54,4,4,0,0,1-.1,1.79,1.7,1.7,0,0,0,.72,1.87.87.87,0,0,1,.52,1,.36.36,0,0,0-.1-.11C19,48.92,18.1,48.19,18,47.3Zm2.8,2.17c0,.05,0,.13,0,.19s-.12.3-.18.45a2,2,0,0,1-.3-.48c0-.12.09-.28.14-.42C20.82,49.06,21,49.09,20.82,49.47Zm.72.79a5.25,5.25,0,0,1-.22-.55.39.39,0,0,1,0-.24c.06-.16.14-.32.21-.48l.18.45v.25a4.7,4.7,0,0,1,0,.53S21.55,50.28,21.54,50.26Zm1.17-.08c-.13.25-.34.29-.38,0a8.5,8.5,0,0,1,0-1.33A1,1,0,0,1,22.71,50.18Zm.95-.41-.28.3a1.17,1.17,0,0,1-.07-.25,2.66,2.66,0,0,1,0-.63.43.43,0,0,1,.22-.3c.06,0,.29.1.28.15A4.66,4.66,0,0,1,23.66,49.77Zm-.76-1.33a5.37,5.37,0,0,0-1.79,0c-.88.23-2.36-.7-1.9-1.82a7.25,7.25,0,0,0,.12-.95.5.5,0,0,1,.34-.29c1.39-.06,2.79-.11,4.19-.15.49-.05.66.13.65.53a9.35,9.35,0,0,0,0,1.4C24.61,48.05,23.64,48.51,22.9,48.44ZM25.6,47a2.81,2.81,0,0,1-1.2,2.15.21.21,0,0,1-.19,0c0-.12-.07-.28,0-.36.2-.28.44-.53.66-.79a8,8,0,0,0-.09-3.55c-.06-.32.09-.53.21-.52a1.77,1.77,0,0,1,.62.4s0,.12,0,.19C25.6,45.3,25.59,46.12,25.6,47Z"/></g></g></svg>