<svg xmlns="http://www.w3.org/2000/svg" viewBox="0 0 39.79 56.09"><defs><style>.cls-1{fill:#56acb2;}.cls-2{fill:#ffe0ae;}</style></defs><g id="Layer_2" data-name="Layer 2"><g id="heritage-window-1-front"><path id="fill3" class="cls-1" d="M32.28,46.38a5.06,5.06,0,0,1-.06.76c-.08,1.21-.15,2.42-.23,3.65,0,.33-.32.45-.7.44-.75,0-1.5,0-2.26,0-.53,0-1.07,0-1.61,0-.05,0-.14-.2-.14-.31,0-.78,0-1.55.06-2.33s0-1.5,0-2.26c0-.27.08-.35.34-.34l3.9.08c.19,0,.32,0,.41,0S32.27,46.26,32.28,46.38Zm-5.63-.49H22.19a.31.31,0,0,0-.22.19c0,.72,0,1.43.05,2.14s0,1.53,0,2.3c0,.47.08.63.53.54a.82.82,0,0,1,.27,0l2.25.07c.52,0,1,0,1.54,0a.43.43,0,0,0,.29-.21A8,8,0,0,0,27,49.83c0-1.2,0-2.4,0-3.59C27,46,26.89,45.89,26.65,45.89Zm-8.88,0c-.86,0-1.72,0-2.59,0h-1a5,5,0,0,1-.66,0c-.2,0-.29,0-.28.2,0,.71,0,1.41.08,2.11a6.8,6.8,0,0,1,0,2.38c-.06.21,0,.31.27.31l3.6.08a4.51,4.51,0,0,1,.53.08.35.35,0,0,0,.46-.36c0-.51.06-1,.07-1.51,0-.82,0-1.63,0-2.52a1.93,1.93,0,0,1,0-.34C18.26,46,18.14,45.87,17.77,45.88Zm-5.45,0H7.9c-.16,0-.33,0-.34.22,0,.42-.07.85-.07,1.28,0,.66,0,1.32.08,2.06,0,.36,0,.7,0,1s0,.27.25.27c.76,0,1.52.06,2.29.06s1.68,0,2.52,0c.09,0,.24-.07.25-.13A6.58,6.58,0,0,0,13,49.45c0-1-.16-2-.21-3.05C12.78,45.88,12.86,45.89,12.32,45.89Zm-4.76-1c0,.6,0,.68.6.68,1.19,0,2.37,0,3.55,0a1.78,1.78,0,0,1,.39.07c.45.11.71-.09.71-.55,0-.62,0-1.23,0-1.85,0-.85-.06-1.7-.07-2.55,0-.55-.05-.6-.61-.59s-1.16.06-1.73.07c-.78,0-1.56,0-2.33,0-.38,0-.45.13-.44.47,0,.81,0,1.62,0,2.5C7.61,43.67,7.6,44.26,7.56,44.84Zm6,.76c1.43,0,2.86-.06,4.28-.08.24,0,.36-.1.36-.35,0-1.57,0-3.15,0-4.72a.36.36,0,0,0-.24-.24c-.41,0-.81,0-1.28,0s-.83-.07-1.24-.08c-.67,0-1.33,0-2,0-.26,0-.34.08-.33.33v3.2c0,.52.07,1,.07,1.55C13.18,45.5,13.23,45.61,13.56,45.6Zm13.12-5.48c-.36,0-.73-.06-1.1-.07-1.11,0-2.22-.06-3.33-.07a.39.39,0,0,0-.28.26,3.83,3.83,0,0,0,0,.83c0,.56.06,1.11.06,1.67S22,44,22,44.66a3.23,3.23,0,0,1,0,.44c0,.32.07.43.4.43,1.18,0,2.35,0,3.52,0a1.78,1.78,0,0,1,.39.07c.59.15.79,0,.79-.62V40.49C27.06,40.24,26.94,40.12,26.68,40.12Zm5.6.47a.34.34,0,0,0-.22-.23A9.45,9.45,0,0,0,31,40.28l-3.3-.09c-.29,0-.37.1-.35.37a10.54,10.54,0,0,1,.08,1.12V45a.82.82,0,0,1,0,.22c-.14.3,0,.38.28.39l2.7.07h1.39c.35,0,.51-.14.52-.49,0-.88.07-1.77.07-2.66C32.37,41.87,32.33,41.23,32.28,40.59Zm-4.66-.76c.39,0,.78.06,1.16.06,1.07,0,2.14,0,3.2,0,.25,0,.33-.08.32-.32,0-.52-.08-1-.08-1.55,0-1.06,0-2.13,0-3.27,0-.14.06-.34-.21-.31s-.28,0-.43,0c-1,0-2,0-3-.08-.34,0-.67-.06-1-.06a.42.42,0,0,0-.29.21c0,.52,0,1,0,1.56,0,1.13.06,2.27.07,3.41C27.34,39.75,27.41,39.83,27.62,39.83Zm-.9-5.47-4.28-.16c-.31,0-.44.11-.41.49v1c0,1.21-.05,2.4-.08,3.6,0,.2.06.29.27.29.36,0,.73.06,1.1.07,1.11,0,2.22,0,3.33.09.27,0,.33-.11.32-.36,0-.94,0-1.89,0-2.83,0-.35-.07-.7-.07-1s.07-.61.06-.91A.36.36,0,0,0,26.72,34.36ZM18,34.2a.54.54,0,0,1-.22,0c-.48,0-1-.07-1.43-.07s-.7.07-1.06.07c-.62,0-1.25-.05-1.88-.07-.18,0-.29,0-.29.25,0,.78,0,1.56-.08,2.41s0,1.72,0,2.58c0,.29.07.39.36.39.62,0,1.24,0,1.85,0,.87,0,1.73.06,2.59.06.13,0,.39,0,.38-.33,0-.74.05-1.47.07-2.21,0-.54,0-1.08,0-1.61a5.15,5.15,0,0,1,.07-.53,2.81,2.81,0,0,1,0-.58C18.44,34.13,18.44,34.11,18,34.2Zm-5.74-.07H8.73c-.31,0-.63-.08-.94-.06a.45.45,0,0,0-.29.31c0,.79.1,1.58.14,2.38,0,.45,0,.91,0,1.45,0,.36,0,.72,0,1.09s.15.45.45.45h4.27c.28,0,.4-.12.39-.4,0-.53-.08-1.05-.08-1.57s.05-1,.08-1.55.06-1,.07-1.51S12.9,34.13,12.25,34.13Zm-4.31-.37a7.12,7.12,0,0,1,.8,0h2.37c.48,0,1,0,1.42,0a.38.38,0,0,0,.27-.22c0-.55.08-1.11.08-1.65s-.06-1.11-.06-1.67c0-.21,0-.43.06-.64a3.11,3.11,0,0,0,0-.61c0-.21.16-.52-.3-.52-1.41,0-2.83-.05-4.24-.07-.7,0-.7,0-.7.78,0,.51-.06,1-.07,1.51,0,.87-.06,1.75-.08,2.62C7.49,33.57,7.57,33.79,7.94,33.76Zm10.38-5.33c-.86,0-1.72-.07-2.57-.07s-1.47.05-2.21.07c-.25,0-.35.12-.35.36,0,1.56,0,3.12,0,4.67,0,.23.09.3.3.3.56,0,1.1.05,1.66.06.84,0,1.7,0,2.54,0,.62,0,.68-.11.68-.75V31.92c0-.58,0-1.15.07-1.73a14.91,14.91,0,0,1,.09-1.5C18.54,28.47,18.52,28.43,18.32,28.43Zm8.34,0c-.57,0-1.14,0-1.71,0-.81,0-1.6.06-2.41.07-.26,0-.33.15-.36.34s-.07.66-.08,1c0,1.15-.05,2.31-.07,3.46a.45.45,0,0,0,0,.26c.06.11.17.26.28.26.79.08,1.58.13,2.37.16.5,0,1,0,1.57,0h.15c.55,0,.57,0,.56-.55,0-.76-.07-1.51-.07-2.27s0-1.6.07-2.4C27,28.51,26.9,28.42,26.66,28.43Zm.61,4.68a4.68,4.68,0,0,1,0,.53c0,.33.07.44.4.42a14.18,14.18,0,0,1,1.46,0c.6,0,1.21.1,1.82.12.31,0,.62-.07.94-.07a2.22,2.22,0,0,1,.41.1,2.36,2.36,0,0,1-.08-.45c0-1.73,0-3.46,0-5.18H30.83l-3.24-.16c-.25,0-.33.07-.33.32,0,.85,0,1.7,0,2.55Zm2.07-9.84a16.56,16.56,0,0,0-1.73.08c-.06,0-.18.1-.18.16,0,.7-.07,1.41-.08,2.12s0,1.4,0,2.1c0,.3.13.41.42.41.9,0,1.78,0,2.67.07.39,0,1.3,0,1.69,0,0,0,0,0,.06,0,0-1.36,0-2.71,0-4.06a7.82,7.82,0,0,1,0-1,.16.16,0,0,1,0,.07,2,2,0,0,1-.71.08C30.75,23.36,30,23.29,29.34,23.27Zm-2.61.06c-1.33,0-2.67,0-4,0a.78.78,0,0,0-.36.14s-.11.06-.11.1c-.05.45.13.92-.16,1.34a.1.1,0,0,1,0,0c.05.65.1,1.3.14,2,0,.3,0,.61,0,.9s.08.33.32.32c.74,0,1.48-.07,2.22-.08h1.79c.28,0,.39-.12.39-.4,0-.52.07-1.05.08-1.57,0-.82,0-1.63,0-2.44C27.06,23.41,27,23.33,26.73,23.33Zm-8.37,0c-1.56,0-3.1-.06-4.65-.07h-.33c0,.25,0,.79,0,1,0,1.18-.05,2.36-.08,3.53,0,.22.07.32.3.3A10.36,10.36,0,0,1,14.68,28c.88,0,1.75.07,2.63.08,1.19,0,1.19,0,1.2-1.17,0-.11,0-.23,0-.35,0-.47,0-.94,0-1.44s.05-1,.07-1.47C18.67,23.4,18.58,23.34,18.36,23.33ZM8,28c.21,0,.42.07.64.07h4.05c.08,0,.2-.13.21-.2.05-.4.07-.81.09-1.21,0-.86,0-1.73.08-2.59a6.93,6.93,0,0,1,.07-.78l-2.48.07-2.22.08a1.08,1.08,0,0,0-.48.08.41.41,0,0,0-.2.3c0,1-.07,2-.09,2.93,0,.31,0,.61,0,.92S7.7,28,8,28Zm.21-6.45c.76,0,1.51-.07,2.26-.07s1.56.05,2.34.07a.5.5,0,0,0,.55-.46c.06-.42.08-.85.15-1.3s0-1,0-1.54c0-.1-.11-.28-.17-.29-.53,0-1.05,0-1.57,0a9.52,9.52,0,0,1-1.69-.05c-.77-.14-.79-.19-1.25.43a5.08,5.08,0,0,0-1,2.84C7.77,21.49,7.9,21.56,8.18,21.54Zm11.68-3.82-1.09.07c-.79,0-1.58.06-2.37.07s-1.52,0-2.28,0c-.26,0-.35.07-.34.33,0,.72,0,1.45,0,2.17,0,.31-.1.61-.14.92,0,.07.08.22.12.22,1.09,0,2.17-.07,3.24-.11l2.48-.08h.38c.19,0,.3,0,.3-.26s0-.62,0-.95c0-.69,0-1.39,0-2.09C20.16,17.79,20.08,17.69,19.86,17.72Zm6.4,3.67c.61,0,.72.06.71-.71S27,18.9,27,18c0-.31-.09-.38-.38-.37H20.93c-.31,0-.52.05-.48.45s.06,1.06.08,1.58v1.42c0,.14,0,.23.18.23.74,0,1.48.06,2.22.06C24,21.4,25.1,21.39,26.26,21.39Zm1.41,0c1.19,0,2.39-.05,3.59-.08.06,0,.12,0,.14,0s.14-.14.13-.19A8.43,8.43,0,0,0,30.28,18a.75.75,0,0,0-.64-.33h-2a.81.81,0,0,0-.35.12c0,1.07,0,2.16,0,3.25C27.26,21.33,27.37,21.4,27.67,21.39Zm-.09-4.06c.62,0,1.23,0,1.85,0a.86.86,0,0,0,.24-.11.6.6,0,0,0-.08-.16l-1.38-1.3a3.16,3.16,0,0,0-.5-.34c-.2-.08-.39-.12-.37.24s0,.93,0,1.39A.38.38,0,0,0,27.58,17.33ZM22.91,13.9a.32.32,0,0,1,0-.3l.14-.22-.22.06a1.43,1.43,0,0,1-.46.07c-.52,0-1.05,0-1.57-.07-.25,0-.33.06-.33.31,0,1.09,0,2.17,0,3.26,0,.26.08.35.34.34.68,0,1.35,0,2,0,1.24,0,2.5,0,3.74,0a.36.36,0,0,0,.41-.42c0-.5,0-1,0-1.49a.56.56,0,0,0-.39-.56,8,8,0,0,0-2.82-.51A1.2,1.2,0,0,1,22.91,13.9Zm-3-.39c-.81,0-1.63.07-2.44.07a1.48,1.48,0,0,0-1.11.34,1.08,1.08,0,0,1-.51.19c-.68.16-1.38.24-2,.45a14.22,14.22,0,0,0-2,.84,9,9,0,0,0-2.39,2,.22.22,0,0,0,0,.16.17.17,0,0,0,.11.06l1.33,0L13,17.56c.43,0,.55-.16.45-.59a3.08,3.08,0,0,1,0-.68c0-.21,0-.41,0-.62a6.43,6.43,0,0,1,0-.76c0-.08.2-.13.31-.19a1.22,1.22,0,0,1,0,.32c0,.1-.06.21-.06.31,0,.62,0,1.25,0,1.87a1.06,1.06,0,0,0,.1.34l4.32-.07c.47,0,.93,0,1.39-.08.24,0,.56,0,.56-.42s0-.72,0-1.07c0-.7,0-1.4,0-2.1C20.16,13.59,20.12,13.5,19.87,13.51Zm.59-.78a.56.56,0,0,0,.18.4,5.21,5.21,0,0,0,.79,0h1.33a1.87,1.87,0,0,1,.36.11l.16-.21A13.81,13.81,0,0,0,25.4,9.92a2.7,2.7,0,0,0,.31-1.26c-.35,0-1.07,0-1.42,0-1.2-.05-2.4-.11-3.61-.15a.32.32,0,0,0-.22.17c0,.26,0,.51,0,.84C20.45,10.59,20.45,11.65,20.46,12.73Zm.35-4.52c1.45,0,2.91,0,4.36.07a3.17,3.17,0,0,1,.55.08c0-.22,0-.44,0-.65a3.11,3.11,0,0,0-.92-2,10.56,10.56,0,0,0-3.05-1.88,3.06,3.06,0,0,0-.8-.22c-.07,0-.22.14-.23.22,0,.57-.07,1.13-.08,1.69,0,.78-.05,1.56-.08,2.33C20.52,8.09,20.56,8.2,20.81,8.21Zm-.36-4.32a.19.19,0,0,0-.08-.15.28.28,0,0,0-.17,0c-.22.11-.43.23-.65.33-.45.22-.92.43-1.42.68-.35.29-.72.56-1.06.87-.66.58-1.5,1-1.79,2,0,.18-.08.38-.12.56l.53,0h.07c.8,0,1.6-.06,2.4-.07h1.76c.11,0,.28-.12.29-.2.06-.41.07-.81.09-1.21A11.59,11.59,0,0,1,20.45,3.89ZM20,8.5c-.83,0-1.68-.08-2.51-.07s-1.39.11-2.08.14c-.48,0-.74.26-.6.72a7.23,7.23,0,0,0,.58,1.34q.62,1.17,1.29,2.31a.56.56,0,0,0,.35.27,5.57,5.57,0,0,0,1,0c.6,0,1.19,0,1.77-.08a.36.36,0,0,0,.3-.24c0-.38,0-.75,0-1.13V10c0-.37.05-.73.06-1.09C20.23,8.78,20.34,8.52,20,8.5Z"/><path id="fill2" class="cls-2" d="M34.38,54.69c0,.51-.17.64-.7.65H32l-4.69-.08-4.43-.08c-1.85,0-3.72,0-5.58-.08-.69,0-1.38-.06-2.07-.06-1.67,0-3.35,0-5,0-1.43,0-2.86.05-4.29.06A1.49,1.49,0,0,1,5.27,55c-.12-.06-.2-.29-.24-.46A1.87,1.87,0,0,1,4.91,54a.27.27,0,0,1,.16-.21c.27,0,.53.06.8.06.68,0,1.37,0,2.06,0l5.18.08c1.64,0,3.28,0,4.92.08.75,0,1.5,0,2.26.07s1.3.06,1.95.07l6,.08,5.17.08a3.13,3.13,0,0,1,.75.08A.42.42,0,0,1,34.38,54.69Zm4.43-2.54a.51.51,0,0,0-.56-.5c-.75,0-1.51,0-2.25-.06-1,0-1.91-.06-2.86-.07-.22,0-.45.07-.67.06-.51,0-1-.06-1.52-.06-1.1,0-2.21,0-3.32,0l-6-.07c-.42,0-.83,0-1.25,0L18,51.36l-2-.07-3.67-.07c-.2,0-.38.07-.57.06-.82,0-1.64-.12-2.45-.13S7.77,51.2,7,51.2c-.53,0-1.06-.06-1.59-.06-1.55,0-3.1,0-4.65.09a.44.44,0,0,0-.31.3,5.66,5.66,0,0,0-.08,1.09A1,1,0,0,0,.57,53c.2-.3.47-.06.69-.06L5.47,53c.7,0,1.42,0,2.21,0h.83c.65,0,1.28.12,1.93.15s1.48.06,2.22.07,1.72,0,2.59,0c1.25,0,2.5,0,3.75.07.74,0,1.48.06,2.22.07,1.08,0,2.15.06,3.22.08l3.31.08c2.56,0,5.12,0,7.68.08,1,0,2,0,3,.07.05,0,.1,0,.14,0,.34.2.36,0,.35-.26C38.87,53,38.86,52.58,38.81,52.15ZM21.43,41c0-1.75.05-3.51.08-5.27,0-.65,0-1.3.07-2,0-1.18.05-2.37.07-3.56,0-.61,0-1.21,0-1.81,0-.85.06-1.68.07-2.52s0-1.41,0-2.11c0-.28-.09-.44-.37-.45l-1.12-.07c0,.19.06.39.06.44a8.48,8.48,0,0,0-.06.87c0,1.27.11,2.54.13,3.8,0,.75,0,1.5-.07,2.26s-.06,1.67-.06,2.51c0,.54.06,1.08.06,1.62,0,2.38,0,4.75,0,7.13,0,.34,0,.68,0,1,0,.81-.12,1.61-.14,2.42,0,.52.13,1,.13,1.56s-.11,1.2-.13,1.81,0,1.39,0,2.09c0,.25.12.36.36.35s.3,0,.4,0,.38-.21.42-.35a5.61,5.61,0,0,0,.15-1.29c0-1.15-.1-2.3-.13-3.45,0-.53.06-1.06.07-1.6C21.43,43.29,21.42,42.15,21.43,41ZM19.94,23.72c0-.06.06-.27.11-.46h0c-.24,0-.48,0-.72.09s-.25.06-.28.14A1.29,1.29,0,0,0,19,24c0,.8-.05,1.61-.08,2.41,0,.57-.05,1.13-.07,1.7,0,1.22-.12,2.45-.15,3.68,0,.88,0,1.75,0,2.64,0,.6,0,1.2-.07,1.82,0,1.44-.06,2.89-.07,4.35,0,.66,0,1.34,0,2,0,.35.06.69.06,1,0,1,0,1.94,0,2.9,0,1.21-.06,2.42-.07,3.64,0,.91,0,.9.9.89.22,0,.3-.07.3-.3,0-.85-.07-1.7-.08-2.56s0-1.81,0-2.72.07-1.63.07-2.44c0-1-.07-2-.07-3s.06-2.15.07-3.23,0-2.33,0-3.5c0-.66-.08-1.33-.07-2,.06-2,.15-3.88.22-5.83C19.88,24.88,19.89,24.3,19.94,23.72Zm8.18-1.06c1.22,0,2.73,0,3.95.09a.42.42,0,0,1,.15.06c0-.3-.06-.61-.08-.9a.19.19,0,0,0-.1-.14,5.16,5.16,0,0,0-.79-.08c-1.38,0-2.76,0-4.13,0H25.25c-1.44,0-2.9-.07-4.35-.07-.55,0-1.1,0-1.65.07l-1.73.07c-.79,0-1.58.06-2.36.07-.21,0-.41-.07-.62-.06-.53,0-1.06.06-1.59.06-1.6,0-3.2,0-4.79,0-.58,0-.4.37-.41.63s.16.26.27.39.08,0,.12,0l.66-.06L11,22.73c.94,0,1.88-.06,2.82-.06.56,0,1.12.06,1.69.06,1,0,2-.05,3-.07s1.81,0,2.71,0c1.1,0,2.19-.07,3.28-.07S26.91,22.63,28.12,22.66Zm4.4,25.16c-.05,1-.09,2.06-.16,3.08,0,.25.09.33.32.32S33,51,33,50.75c0-.89.05-1.78.08-2.67,0-1.06.05-2.13.07-3.19,0-.23,0-.46,0-.69,0-1.62.1-3.25.13-4.88,0-.66,0-1.33-.06-2s0-1.17,0-1.75c0-1.93-.1-3.86-.13-5.78,0-.87,0-1.74.06-2.6,0-1.72,0-3.44,0-5.15,0-.36.06-.74-.29-1-.06-.06-.06-.21-.08-.31a3.71,3.71,0,0,0-.21-1,18.93,18.93,0,0,0-1.15-2.18,8.73,8.73,0,0,0-2.74-2.93,5.27,5.27,0,0,0-2.36-.89c-.54-.05-1.07-.14-1.6-.22-.34-.06-.41-.22-.26-.53a1.24,1.24,0,0,1,.17-.27c.41-.62.86-1.21,1.23-1.85a5,5,0,0,0,.7-3.15A4.09,4.09,0,0,0,25.08,5a10.28,10.28,0,0,0-3.32-2.12c-.57-.18-1.06-.43-1.62,0a1.29,1.29,0,0,1-.68.32,5.07,5.07,0,0,0-2.33,1,8.2,8.2,0,0,0-2.31,2.16,4.57,4.57,0,0,0-1,2.75,5.77,5.77,0,0,0,.67,2.34c.24.53.77.9.77,1.6,0,.29-.14.32-.25.35-.87.26-1.78.45-2.63.77a8.32,8.32,0,0,0-3.17,1.94,17.58,17.58,0,0,0-1.46,1.75,6,6,0,0,0-1.07,2.37A6.62,6.62,0,0,0,6.5,21.6c0,.61-.12,1.23-.12,1.85,0,1.71,0,3.42,0,5.14,0,.46-.06.92-.06,1.39,0,3.38,0,6.77.07,10.16,0,1.65.06,3.3.07,5,0,.52-.06,1-.06,1.56,0,.35.06.69.06,1.05s-.07.78-.06,1.16c0,.54,0,1.06.06,1.59,0,.19,0,.4.28.39s.25-.2.25-.38c0-1.09,0-2.18,0-3.27,0-.69.08-1.38.07-2.07,0-3.11-.05-6.23-.07-9.34,0-1,0-2,0-3,0-1.19,0-2.38.08-3.57,0-.75,0-1.51,0-2.26s0-1.55.07-2.33c0-.38,0-.77,0-1.15V23.2l0-1.35a.91.91,0,0,1,0-.23c.09-.43.19-.85.26-1.28a3.61,3.61,0,0,1,.47-1.49,12.31,12.31,0,0,1,2.49-2.94,8.17,8.17,0,0,1,2.53-1.47c1-.35,2-.57,3-.85.32-.08.39-.21.24-.49s-.39-.67-.59-1L14.8,11a2.75,2.75,0,0,1-.48-2A5.34,5.34,0,0,1,16,5.81a20.88,20.88,0,0,1,1.75-1.35,11.5,11.5,0,0,1,2.62-1.2.72.72,0,0,1,.49-.07c.76.31,1.54.62,2.27,1a8.6,8.6,0,0,1,1.56,1,3.7,3.7,0,0,1,1.09,1.49A5.94,5.94,0,0,1,26,9.15a1.83,1.83,0,0,1-.25.82,13.26,13.26,0,0,1-2,3.12c-.18.18-.12.53.08.57s.68.1,1,.16a9.92,9.92,0,0,1,1.44.29c.61.22,1.18.53,1.78.79A7.53,7.53,0,0,1,31,17.57a9.2,9.2,0,0,1,1.27,3.15.82.82,0,0,1-.07.29l-.23-.17-.11-.05a.18.18,0,0,0,0,.09c0,.31.14.51.43.5s.32.08.32.32c0,2.08.06,4.16.07,6.24,0,.73-.07,1.45-.07,2.17s.07,1.4.07,2.09,0,1.51-.07,2.34c0,.29,0,.58,0,.87,0,.91,0,1.82.07,2.72s.08,1.83.08,2.74c0,2-.05,3.93-.08,5.9C32.59,47.11,32.54,47.47,32.52,47.82ZM4,50.75c.55,0,1.11.07,1.66.08a.32.32,0,0,0,.21-.21c0-.57-.06-1.13-.06-1.7,0-1.4.05-2.8.06-4.2,0-.43-.06-.86-.06-1.29,0-.87,0-1.74,0-2.6,0-1.93.05-3.86.06-5.79,0-.7-.06-1.4-.06-2.1,0-1.7-.07-3.39-.08-5.08,0-.6,0-1.2.07-1.81s.07-1.12.07-1.68c0-.81-.1-1.61-.06-2.41a12.29,12.29,0,0,1,.36-2.17A7.94,7.94,0,0,1,7.5,17.44c.27-.37.51-.75.81-1.09a11.35,11.35,0,0,1,3.54-2.47,12.3,12.3,0,0,1,2.59-.79c.27-.08.24-.16.13-.32a7.84,7.84,0,0,1-1-1.92,5,5,0,0,1,.92-4.79A8.79,8.79,0,0,1,17.2,3.65a18.73,18.73,0,0,1,2.32-1.06,3,3,0,0,1,1.05-.36,2.42,2.42,0,0,1,1.12.23A8.85,8.85,0,0,1,24,3.63a9.07,9.07,0,0,1,2.48,2.46,5.08,5.08,0,0,1,.43,1.28,4.87,4.87,0,0,1-.29,2.77,9.42,9.42,0,0,1-1.43,2.45l-.08.08-.21.5a1.52,1.52,0,0,0,.54.19,6,6,0,0,1,4.25,1.53,11.34,11.34,0,0,1,2.4,2.94,6.54,6.54,0,0,1,1,2.11c.06.22.1.45.16.68a.36.36,0,0,0,.06.19,1.22,1.22,0,0,1,.24,1.09c0,.26.07.53.06.79s-.06.63-.06.94q0,3.82,0,7.62c0,.83,0,1.65.07,2.48,0,.52,0,1,0,1.55,0,1.28,0,2.55.07,3.83,0,.75,0,1.51,0,2.26s-.13,1.23-.14,1.85c0,1.51,0,3,0,4.54,0,1,0,2-.08,3,0,.48,0,.47.46.48l1.43.07c.31,0,.53-.38.32-.74-.35-.59,0-1.19-.07-1.79,0-.06,0-.13,0-.21,0-.66.07-1.32.08-2V37.4c0-.42-.07-.83-.08-1.25s.08-.67.07-1c0-1-.06-2.08-.07-3.12,0-.88,0-1.78.08-2.66,0-.62.07-1.24.07-1.86s0-1.45-.07-2.18-.08-1.56-.16-2.34a14.93,14.93,0,0,0-1-4.13,17.47,17.47,0,0,0-2-3.57A7.86,7.86,0,0,0,29,12.39l-.9-.37c-.26-.1,0-.67,0-.83-.28-.1-.12-.28-.09-.46.1-.64.23-1.29.3-1.94,0-.42,0-.86,0-1.28a6.59,6.59,0,0,0-.78-2.68,6.1,6.1,0,0,0-2.13-2.32,15.74,15.74,0,0,0-2.18-1.34A14.17,14.17,0,0,0,21,.35a1,1,0,0,0-.75.14,5.93,5.93,0,0,1-1.84.72A13.37,13.37,0,0,0,14.88,3a11.12,11.12,0,0,0-1.75,1.81,4.85,4.85,0,0,0-.87,1.33A8.23,8.23,0,0,0,11.51,9a7.13,7.13,0,0,0,.32,2.44c.12.34-.05.56-.42.7-.81.3-1.63.55-2.4.92a8,8,0,0,0-3,2.46c-.29.38-.45.86-.73,1.27a5.69,5.69,0,0,0-.82,1.83A10.5,10.5,0,0,0,4,21.7c0,1,0,2.08,0,3.12,0,.63.06,1.26.07,1.89s0,1.11,0,1.66C4,31.92,4,35.45,4,39c0,.64.08,1.29.07,1.93,0,1.11-.1,2.21-.15,3.31,0,.4,0,.78,0,1.18,0,1.41,0,2.82,0,4.23,0,.29-.06.58-.06.87C3.83,50.59,4,50.75,4,50.75Z"/><path id="fill1" d="M39.72,52.28c0-.36,0-.69-.51-.62a.2.2,0,0,1-.12-.06,1.18,1.18,0,0,0-.93-.31H36.4a.63.63,0,0,1-.34-.11c0-.17-.2-.38.06-.55.09,0,.12-.22.14-.34.06-.43.13-.86.15-1.29,0-.75.08-1.5.08-2.25V34c0-.23-.08-.45-.07-.68,0-.77.12-1.53.14-2.3,0-1,0-2.05,0-3.07,0-.83,0-1.66,0-2.49,0-.5-.09-1-.15-1.51-.07-.7-.13-1.41-.22-2.11a11.16,11.16,0,0,0-.82-2.89,6,6,0,0,0-.31-.85,14.85,14.85,0,0,0-2.25-3.45,7.78,7.78,0,0,0-4-2.67.63.63,0,0,1-.32-.68c.12,0,.22-.07.32-.27a5.31,5.31,0,0,0,.42-2.06,7.18,7.18,0,0,0-.43-3.49,6.89,6.89,0,0,0-1.32-2.11,10.64,10.64,0,0,0-2.46-1.74A22.12,22.12,0,0,0,22,.2a2.33,2.33,0,0,0-1.83,0,5.18,5.18,0,0,1-.63.3A15.76,15.76,0,0,0,14.8,2.66,8.45,8.45,0,0,0,11.62,6.8a7.23,7.23,0,0,0-.15,4.66c.08.26,0,.35-.24.42a11.79,11.79,0,0,0-3,1.26,9.33,9.33,0,0,0-2.52,2.29,7.24,7.24,0,0,0-.62,1.13,11.46,11.46,0,0,0-.81,1.65A9.78,9.78,0,0,0,3.66,22c0,.74,0,1.49,0,2.23,0,1.34,0,2.68,0,4s-.05,2.63-.07,4c0,.66,0,1.31,0,2s.06,1.24.06,1.86c0,.44-.06.89-.06,1.33,0,.61.07,1.21.06,1.82,0,.89-.05,1.77-.07,2.66,0,.53,0,1.06,0,1.59,0,.86,0,1.72,0,2.57,0,.51-.06,1-.07,1.52,0,1-.06,2-.07,3,0,.24-.07.32-.32.32-.83,0-1.65,0-2.48.07-.24,0-.54,0-.57.36A13.55,13.55,0,0,0,0,52.63c0,.62.24,1,.68,1a8.76,8.76,0,0,0,1,.08c.73,0,1.45,0,2.18,0s.75.13.76.77v.38c0,.65.24,1.07,1,1s1.87-.06,2.81-.08c1.32,0,2.63-.07,3.94-.07s2.85,0,4.28.07l3.87.07,6.26.08,3.83.07c.67,0,1.35,0,2,0S34,56,34.59,55.93c.49,0,.63-.23.63-.73a2.8,2.8,0,0,1,0-.41c0-.27.11-.46.47-.44.76,0,1.52,0,2.28,0a3.11,3.11,0,0,0,.32,0,3.21,3.21,0,0,1,.69,0,.69.69,0,0,0,.8-.67C39.77,53.16,39.72,52.72,39.72,52.28ZM3.89,49.64c0-1.41,0-2.82,0-4.23,0-.39,0-.79,0-1.18,0-1.1.12-2.2.15-3.31C4.05,40.28,4,39.64,4,39c0-3.54,0-7.08.07-10.62,0-.55,0-1.11,0-1.66S4,25.45,4,24.82c0-1,0-2.08,0-3.12a10.56,10.56,0,0,1,.53-3.05,5.69,5.69,0,0,1,.82-1.83c.28-.4.44-.88.73-1.27a8.06,8.06,0,0,1,3-2.47c.77-.37,1.6-.61,2.4-.91.37-.14.53-.36.42-.7A6.64,6.64,0,0,1,11.52,9a8.11,8.11,0,0,1,.74-2.93,5,5,0,0,1,.87-1.32A10.72,10.72,0,0,1,14.88,3a13.37,13.37,0,0,1,3.57-1.77A5.69,5.69,0,0,0,20.29.49,1,1,0,0,1,21,.35a14.17,14.17,0,0,1,2.2.82,15.74,15.74,0,0,1,2.18,1.34,6.14,6.14,0,0,1,2.12,2.32,6.16,6.16,0,0,1,.78,2.68,10.93,10.93,0,0,1,0,1.28c-.06.65-.18,1.29-.29,1.94,0,.18-.19.37.09.46h0c0,.16-.28.73,0,.83s.59.26.89.37a7.92,7.92,0,0,1,3.43,2.89,17.74,17.74,0,0,1,2,3.57,14.91,14.91,0,0,1,1,4.14c.08.77.11,1.55.15,2.33s.07,1.45.08,2.18-.05,1.24-.07,1.86c0,.88-.08,1.77-.07,2.66s0,2.08.06,3.12c0,.34-.07.68-.06,1s.06.82.06,1.24c0,1,0,2.09,0,3.13v2.79c0,1.08,0,2.16,0,3.23,0,.67,0,1.33-.07,2,0,.07-.05.14,0,.2.06.6-.28,1.2.07,1.8.21.35,0,.76-.31.74-.48,0-1-.06-1.44-.07s-.47,0-.45-.49c0-1,.06-2,.07-3,0-1.51,0-3,0-4.54,0-.62.12-1.23.14-1.85s0-1.51,0-2.26c0-1.28,0-2.55-.07-3.83,0-.52,0-1,0-1.55,0-.83-.07-1.65-.07-2.48q0-3.81,0-7.62c0-.31.06-.63.06-.94s-.08-.53-.06-.79a1.2,1.2,0,0,0-.24-1.08.59.59,0,0,1-.07-.2c0-.23-.09-.46-.14-.69a6.83,6.83,0,0,0-1-2.1,11.18,11.18,0,0,0-2.41-2.94,6,6,0,0,0-4.24-1.53,1.64,1.64,0,0,1-.55-.19l.23-.51s0-.05.07-.08a9.36,9.36,0,0,0,1.43-2.44,4.88,4.88,0,0,0,.29-2.77,5.08,5.08,0,0,0-.43-1.28A9.21,9.21,0,0,0,24,3.63,9.31,9.31,0,0,0,21.7,2.45a2.48,2.48,0,0,0-1.13-.22,3.42,3.42,0,0,0-1.05.35,22.27,22.27,0,0,0-2.33,1.07,8.87,8.87,0,0,0-2.66,2.41,5,5,0,0,0-.92,4.79,7.84,7.84,0,0,0,1,1.92c.11.17.14.24-.13.31a12.54,12.54,0,0,0-2.59.81A11.2,11.2,0,0,0,8.3,16.35a10.82,10.82,0,0,0-.79,1.09,7.51,7.51,0,0,0-1.29,2.35A10.69,10.69,0,0,0,5.86,22c-.05.8,0,1.6,0,2.4,0,.57,0,1.13-.07,1.69s-.07,1.21-.07,1.81c0,1.69,0,3.38.07,5.08,0,.7.08,1.4.07,2.1,0,1.93,0,3.86-.07,5.79,0,.87,0,1.73,0,2.6,0,.43.08.86.07,1.29,0,1.4,0,2.8-.06,4.2,0,.57.05,1.13.06,1.7a.32.32,0,0,1-.21.21c-.55,0-1.11,0-1.66-.08-.08,0-.21-.15-.21-.24C3.82,50.22,3.89,49.93,3.89,49.64ZM22,48.23c0-.71-.05-1.42-.06-2.14,0-.06.15-.19.23-.19h4.46c.24,0,.33.09.33.35,0,1.19,0,2.39,0,3.59a8,8,0,0,1-.08,1.09.4.4,0,0,1-.29.21c-.51,0-1,0-1.54,0l-2.25-.08a1.11,1.11,0,0,0-.26,0c-.46.08-.56-.07-.54-.54C22.06,49.77,22,49,22,48.23Zm4.24-2.64a1.78,1.78,0,0,0-.39-.07c-1.17,0-2.34,0-3.52,0-.33,0-.44-.1-.4-.43a3.23,3.23,0,0,0,0-.44c0-.69.07-1.31.07-1.92S22,41.63,22,41.07a4.58,4.58,0,0,1,0-.83.39.39,0,0,1,.28-.26c1.11,0,2.22,0,3.34.07.36,0,.72.06,1.09.07s.37.11.37.38c0,.78,0,1.57,0,2.36V45C27.05,45.59,26.85,45.74,26.26,45.59ZM27,33.42c0,.54,0,.56-.56.56h-.15c-.57,0-1.07,0-1.57,0q-1.19,0-2.37-.15c-.11,0-.22-.16-.29-.27s0-.17,0-.26c0-1.15,0-2.31.07-3.46,0-.33,0-.66.08-1s.1-.35.37-.35c.8,0,1.6-.05,2.4-.07.57,0,1.14,0,1.71,0,.25,0,.33.08.32.32,0,.8-.08,1.6-.08,2.4S27,32.66,27,33.42ZM22,35.71v-1c0-.38.1-.5.41-.49l4.28.16a.36.36,0,0,1,.24.25c0,.3-.06.6-.06.91s.07.7.07,1c0,1,0,1.89,0,2.83,0,.25-.06.36-.33.35l-3.34-.08c-.36,0-.73-.06-1.09-.07s-.28-.09-.27-.29C22,38.11,22,36.91,22,35.71Zm5-9.62c0,.52-.05,1.05-.06,1.57,0,.29-.12.4-.4.4h-1.8c-.73,0-1.47,0-2.21.08-.24,0-.34-.07-.32-.32a6.76,6.76,0,0,0,0-.9c0-.65-.09-1.31-.14-2a.1.1,0,0,0,0,0c.29-.42.11-.89.16-1.34,0,0,.07-.07.1-.1a.9.9,0,0,1,.37-.15h4c.24,0,.32.08.31.32C27,24.46,27.06,25.27,27,26.09Zm-2.56-3.5c-1.09,0-2.19.05-3.28.07-.9,0-1.81,0-2.71,0s-2,.06-3,.07c-.57,0-1.13-.07-1.69-.06-.94,0-1.88,0-2.82.07l-2.18.07-.66.06a.19.19,0,0,1-.13,0c-.1-.12-.27-.26-.26-.38s-.17-.65.41-.64c1.6,0,3.2,0,4.79,0,.53,0,1.07,0,1.6-.06.2,0,.4.07.6.06.79,0,1.58,0,2.37-.07l1.73-.07c.55,0,1.1-.08,1.65-.07,1.45,0,2.9.05,4.35.07h1.87c1.37,0,2.75,0,4.13,0a5.29,5.29,0,0,1,.79.08s.1.09.1.14c0,.3.06.6.07.89a.48.48,0,0,0-.14-.05c-1.22-.06-2.73-.05-3.95-.09S25.69,22.59,24.48,22.59Zm-3,26.89a5.61,5.61,0,0,1-.15,1.29c0,.14-.25.28-.42.36s-.27,0-.4,0a.31.31,0,0,1-.37-.35c0-.7,0-1.4,0-2.1s.13-1.2.13-1.81-.13-1-.12-1.55c0-.8.09-1.61.13-2.42,0-.34,0-.67,0-1,0-2.38,0-4.75,0-7.13,0-.54-.07-1.08-.07-1.62,0-.84.05-1.68.07-2.51s.09-1.51.07-2.26c0-1.26-.1-2.53-.14-3.79,0-.29.06-.58.07-.87,0-.06,0-.27-.06-.45l1.12.07c.28,0,.38.17.37.45,0,.7,0,1.41,0,2.11s0,1.68-.07,2.52c0,.6,0,1.2,0,1.81,0,1.19,0,2.37-.07,3.56,0,.65-.06,1.31-.08,2,0,1.75-.05,3.51-.07,5.26,0,1.14,0,2.28,0,3.42,0,.53-.07,1.07-.06,1.6C21.39,47.18,21.47,48.33,21.49,49.48ZM19.7,33.28c0,1.17,0,2.34,0,3.5s-.06,2.15-.07,3.23.07,2,.07,3c0,.81-.06,1.63-.07,2.44s0,1.82,0,2.72,0,1.71.08,2.56c0,.22-.08.29-.3.3-.91,0-.91,0-.9-.89,0-1.22,0-2.43.07-3.64,0-1,0-1.93,0-2.9,0-.35-.07-.7-.07-1,0-.68,0-1.35,0-2,0-1.45,0-2.9.07-4.35,0-.6.06-1.21.07-1.82,0-.87,0-1.75,0-2.63,0-1.23.09-2.46.15-3.68,0-.57.05-1.13.07-1.7,0-.8.05-1.61.08-2.41a1.33,1.33,0,0,1,.08-.49c0-.08.18-.13.28-.15s.48-.05.72-.08h0c-.05.19-.1.4-.11.46-.05.58-.06,1.16-.09,1.73-.07,1.95-.16,3.89-.21,5.83C19.62,32,19.69,32.62,19.7,33.28Zm-1.36,1.85c0,.18-.05.35-.06.53,0,.54,0,1.07,0,1.61,0,.74-.07,1.48-.07,2.21,0,.31-.25.33-.37.33-.87,0-1.73,0-2.59-.06-.62,0-1.24,0-1.85,0-.31,0-.38-.09-.37-.38,0-.86,0-1.72,0-2.58s.06-1.63.08-2.41c0-.22.1-.26.29-.25.63,0,1.26.06,1.88.07.35,0,.71-.07,1.06-.07s.95,0,1.43.07H18c.45-.09.46-.07.36.35A5.61,5.61,0,0,0,18.34,35.13ZM18.2,49.2c0,.5,0,1-.07,1.5a.35.35,0,0,1-.46.36,4.81,4.81,0,0,0-.53-.07c-1.2,0-2.4-.06-3.6-.07-.24,0-.33-.11-.28-.32a6.79,6.79,0,0,0,0-2.38c-.07-.7-.06-1.4-.08-2.1,0-.2.09-.24.28-.22a3.54,3.54,0,0,0,.65,0h1.06c.86,0,1.73,0,2.59,0,.37,0,.49.11.44.46a1.93,1.93,0,0,0,0,.34C18.21,47.57,18.21,48.38,18.2,49.2Zm-5-4c0-.52-.06-1-.07-1.55,0-1.06,0-2.13,0-3.19,0-.26.08-.35.34-.34.66,0,1.32,0,2,0,.41,0,.82,0,1.24.07s.87,0,1.27,0a.36.36,0,0,1,.25.24c0,1.57,0,3.15,0,4.72,0,.25-.13.35-.37.35-1.42,0-2.85,0-4.27.08C13.24,45.61,13.17,45.49,13.18,45.2ZM7.49,47.39c0-.43.06-.86.07-1.28,0-.26.18-.22.34-.22h4.42c.55,0,.47,0,.5.51,0,1,.16,2,.2,3.05a5.85,5.85,0,0,1-.15,1.25c0,.06-.16.13-.25.13-.84,0-1.68,0-2.52,0s-1.53-.06-2.29-.07c-.23,0-.26-.07-.25-.27s0-.7,0-1C7.54,48.71,7.5,48.05,7.49,47.39ZM12.88,29a4.14,4.14,0,0,1,0,.61c0,.21-.07.43-.07.64,0,.56.07,1.11.07,1.67s0,1.1-.08,1.65a.36.36,0,0,1-.27.22c-.47,0-.95,0-1.42,0H8.74a7.12,7.12,0,0,0-.8,0c-.38,0-.46-.19-.45-.49,0-.87,0-1.75.08-2.62,0-.5,0-1,.07-1.51,0-.78,0-.79.7-.78,1.42,0,2.83.06,4.25.07C13,28.43,12.86,28.74,12.88,29ZM7.63,40.58c0-.35.07-.48.44-.47.78,0,1.55,0,2.32,0,.58,0,1.16-.06,1.74-.07s.6.05.61.59c0,.85,0,1.7.07,2.55,0,.62,0,1.23,0,1.85s-.26.66-.71.55a1.8,1.8,0,0,0-.38-.07H8.16c-.57,0-.64-.08-.6-.67s.05-1.18.08-1.77C7.64,42.2,7.65,41.39,7.63,40.58Zm5.18-5.86c0,.5-.05,1-.08,1.51s-.06,1-.06,1.54,0,1.06.07,1.58c0,.28-.11.4-.39.4H8.08c-.3,0-.47-.11-.45-.45s0-.73,0-1.09c0-.53,0-1,0-1.46,0-.79-.11-1.58-.14-2.37a.47.47,0,0,1,.29-.31c.31,0,.63,0,.94,0h3.52C12.9,34.12,12.81,34.08,12.81,34.72ZM13,26.64c0,.4,0,.81-.08,1.21a.33.33,0,0,1-.23.2h-4c-.22,0-.43-.07-.64-.06s-.35-.09-.34-.35,0-.6,0-.91c0-1,0-1.95.08-2.93a.45.45,0,0,1,.2-.3,1.37,1.37,0,0,1,.49-.09l2.22-.07,2.48-.06a6.59,6.59,0,0,0-.07.77C13,24.91,13,25.78,13,26.64Zm5.6-.1c0,.12,0,.24,0,.35,0,1.17,0,1.18-1.2,1.16-.87,0-1.75-.05-2.63-.06a10.88,10.88,0,0,0-1.13.07c-.22,0-.3-.07-.29-.3,0-1.17.05-2.35.08-3.53,0-.17,0-.71,0-1h.33c1.55,0,3.1.05,4.65.06.22,0,.31.07.3.3,0,.49-.05,1-.08,1.47S18.58,26.07,18.56,26.54Zm-.2,5.38v1.16c0,.63-.06.72-.68.74-.85,0-1.7,0-2.54,0-.55,0-1.1,0-1.66-.06-.22,0-.3-.07-.3-.3,0-1.56,0-3.11,0-4.67,0-.25.11-.35.36-.36.74,0,1.47-.07,2.21-.07s1.71.05,2.56.07c.21,0,.23,0,.21.26a14.91,14.91,0,0,0-.09,1.5C18.4,30.77,18.38,31.34,18.36,31.92ZM25.72,8.36a3.17,3.17,0,0,0-.55-.08L20.81,8.2c-.25,0-.29-.11-.28-.31,0-.78,0-1.56.07-2.33,0-.57,0-1.13.09-1.7,0-.08.16-.23.23-.22a2.8,2.8,0,0,1,.8.22,11.13,11.13,0,0,1,3.05,1.87,3,3,0,0,1,.91,2A4.63,4.63,0,0,1,25.72,8.36Zm-5,.15,3.61.14c.35,0,1.07,0,1.42,0h0a2.84,2.84,0,0,1-.32,1.26,14.1,14.1,0,0,1-2.11,3.13,1.57,1.57,0,0,0-.17.21,1.69,1.69,0,0,0-.36-.11H21.44a3.56,3.56,0,0,1-.8,0c-.08,0-.18-.25-.18-.39,0-1.07,0-2.15,0-3.22,0-.33,0-.58,0-.84A.29.29,0,0,1,20.68,8.51Zm.09,4.93c.53,0,1.06.06,1.58.07a1.43,1.43,0,0,0,.46-.07l.22,0c-.05.07-.1.14-.14.21a.35.35,0,0,0,0,.3,1.2,1.2,0,0,0,.86.45,8.19,8.19,0,0,1,2.82.52.56.56,0,0,1,.4.55q0,.75,0,1.5c0,.32-.16.42-.41.42-1.25,0-2.5,0-3.75,0-.67,0-1.35,0-2,0-.26,0-.34-.08-.34-.34,0-1.08,0-2.17,0-3.26C20.45,13.5,20.54,13.43,20.77,13.44Zm.16,4.2h3.78c.63,0,1.26,0,1.89,0,.29,0,.39.07.38.38,0,.89,0,1.78,0,2.67s-.1.74-.71.71c-1.16,0-2.25,0-3.33,0-.74,0-1.48-.05-2.22-.06-.19,0-.19-.09-.18-.22,0-.48,0-1,0-1.43s0-1.05-.08-1.58S20.62,17.64,20.93,17.64ZM20.3,6.71c0,.4,0,.81-.08,1.2a.37.37,0,0,1-.3.2c-.58,0-1.17,0-1.76,0-.8,0-1.6,0-2.4.07h-.07l-.53,0c0-.18.07-.38.12-.56.29-.93,1.13-1.37,1.79-2,.34-.3.71-.57,1.06-.86.5-.25,1-.46,1.42-.67.22-.11.43-.24.65-.34a.27.27,0,0,1,.17,0,.19.19,0,0,1,.08.15A11.59,11.59,0,0,0,20.3,6.71ZM15.45,8.57c.7,0,1.39-.13,2.08-.14s1.68,0,2.51.07c.3,0,.19.28.18.44,0,.37,0,.73-.07,1.09v1.73c0,.38,0,.76,0,1.13a.38.38,0,0,1-.3.24c-.58,0-1.17.07-1.76.09a8.49,8.49,0,0,1-1,0,.6.6,0,0,1-.36-.27c-.44-.76-.87-1.53-1.28-2.32a6.87,6.87,0,0,1-.58-1.33C14.71,8.83,15,8.59,15.45,8.57Zm2,5c.81,0,1.63,0,2.44-.08.26,0,.29.08.29.31,0,.7,0,1.4,0,2.1V17c0,.39-.31.39-.55.42-.46.05-.93.07-1.39.08l-4.31.08a.82.82,0,0,1-.11-.35c0-.62,0-1.25,0-1.87,0-.1.06-.2.06-.31a1.22,1.22,0,0,0,0-.32c-.11.06-.3.11-.31.19a6.43,6.43,0,0,0,0,.76c0,.21,0,.42,0,.62a2.57,2.57,0,0,0,0,.68c.09.43,0,.59-.45.6l-2.18.07c-.45,0-.89,0-1.33,0a.14.14,0,0,1-.11-.07.2.2,0,0,1,0-.15,9,9,0,0,1,2.39-2,14.22,14.22,0,0,1,2-.84,19.81,19.81,0,0,1,2-.44,1.05,1.05,0,0,0,.51-.2A1.49,1.49,0,0,1,17.43,13.59Zm2.73,7.47c0,.22-.11.27-.3.25h-.38L17,21.39l-3.24.12s-.14-.16-.13-.23c0-.31.13-.61.14-.91,0-.73,0-1.45,0-2.18,0-.26.08-.34.34-.33q1.14,0,2.28,0c.79,0,1.58,0,2.37-.07.41,0,.75-.05,1.09-.08s.3.08.3.3c0,.7,0,1.4,0,2.1C20.15,20.42,20.14,20.74,20.16,21.06ZM10.05,17.9a9.5,9.5,0,0,0,1.69,0c.52,0,1,0,1.57,0,.06,0,.16.19.17.29,0,.51,0,1,0,1.54s-.1.88-.15,1.3a.49.49,0,0,1-.55.46c-.78,0-1.56-.07-2.34-.07s-1.5,0-2.25.07c-.3,0-.42-.05-.41-.38a5.11,5.11,0,0,1,1-2.84C9.26,17.7,9.28,17.75,10.05,17.9Zm17.22-.15a1.16,1.16,0,0,1,.35-.11h2a.75.75,0,0,1,.65.33,8.27,8.27,0,0,1,1.25,3.15c0,.05-.07.14-.12.19s-.1,0-.15,0l-3.59.08c-.3,0-.41-.06-.41-.38C27.29,19.92,27.27,18.84,27.27,17.75Zm.07-2.08c0-.36.18-.32.37-.24a2.76,2.76,0,0,1,.5.34l1.38,1.3a.71.71,0,0,1,.08.15.82.82,0,0,1-.25.12c-.61,0-1.23,0-1.84,0-.08,0-.22-.17-.22-.27C27.33,16.6,27.37,16.13,27.34,15.67Zm4.84,12.61s0,0-.06,0c-.38-.05-1.3,0-1.69,0-.89,0-1.78-.06-2.67-.07-.29,0-.42-.11-.42-.41,0-.7,0-1.4,0-2.1s0-1.41.08-2.12c0-.06.11-.16.18-.17.57,0,1.15-.08,1.73-.07s1.4.09,2.11.14a2,2,0,0,0,.7-.08s0,0,.05-.06a5,5,0,0,0-.05.95C32.15,25.57,32.17,26.92,32.18,28.28Zm0,9.74c0,.52,0,1,.08,1.56,0,.24-.07.32-.32.32H28.79c-.39,0-.78-.06-1.17-.06-.21,0-.27-.09-.28-.29,0-1.14,0-2.28-.07-3.41,0-.52,0-1,0-1.56,0-.07.19-.21.29-.21.33,0,.67,0,1,.06,1,0,2,.06,3,.08.15,0,.29,0,.43,0s.2.17.21.31C32.22,35.9,32.21,37,32.22,38ZM27.34,46.3c0-.26.08-.34.34-.34,1.3,0,2.6.06,3.9.08.19,0,.33,0,.41,0s.28.21.29.33a4.84,4.84,0,0,1-.06.75c-.08,1.22-.15,2.44-.23,3.65,0,.35-.32.46-.69.44-.76,0-1.51,0-2.26,0-.54,0-1.08,0-1.61,0-.06,0-.15-.2-.15-.31,0-.78,0-1.55.07-2.33S27.36,47.05,27.34,46.3Zm4.43-.63H30.38l-2.7-.08c-.24,0-.41-.09-.28-.39a.52.52,0,0,0,0-.22c0-1.1,0-2.19,0-3.29,0-.38,0-.76-.07-1.13s0-.38.34-.37c1.1,0,2.2.05,3.3.08a9.45,9.45,0,0,1,1.07.09.32.32,0,0,1,.22.23c0,.64.09,1.28.08,1.92,0,.89,0,1.78-.07,2.67C32.28,45.52,32.12,45.67,31.77,45.67Zm.45-11.89a3.5,3.5,0,0,0,.07.45,2,2,0,0,0-.4-.1c-.31,0-.63.08-.94.07-.61,0-1.21-.1-1.82-.12a14.07,14.07,0,0,0-1.45,0c-.34,0-.45-.1-.41-.42a4.51,4.51,0,0,0,0-.52V31.3c0-.85,0-1.7,0-2.56,0-.24.08-.32.32-.31l3.23.15c.27,0,1.06,0,1.32,0l0,0C32.19,30.32,32.21,32.05,32.22,33.78Zm.3,14c0-.35.07-.71.07-1.06,0-2,.06-3.92.07-5.89,0-.91,0-1.82-.07-2.74s-.05-1.81-.07-2.71c0-.3,0-.59,0-.88,0-.83.07-1.59.07-2.34s-.07-1.39-.07-2.08.07-1.46.07-2.18c0-2.08-.05-4.16-.07-6.24,0-.24-.08-.33-.32-.32s-.45-.19-.43-.49a.29.29,0,0,1,0-.1l.12.06.23.16c0-.09.09-.2.06-.29A9.06,9.06,0,0,0,31,17.57,7.53,7.53,0,0,0,28,14.9c-.6-.26-1.17-.57-1.78-.78a9.81,9.81,0,0,0-1.45-.3l-1-.15c-.2,0-.26-.4-.08-.57A13.9,13.9,0,0,0,25.75,10,2,2,0,0,0,26,9.14a6.07,6.07,0,0,0-.2-2.43,3.75,3.75,0,0,0-1.1-1.49,9.57,9.57,0,0,0-1.56-1c-.73-.38-1.51-.69-2.28-1a.76.76,0,0,0-.48.07,11.24,11.24,0,0,0-2.61,1.2A17.83,17.83,0,0,0,16,5.81,5.34,5.34,0,0,0,14.32,9a2.75,2.75,0,0,0,.48,2c.23.38.47.76.71,1.14s.4.65.58,1,.09.41-.23.5c-1,.27-2,.49-2.95.83a8.54,8.54,0,0,0-2.54,1.48,12.31,12.31,0,0,0-2.49,2.94,3.77,3.77,0,0,0-.47,1.49c-.07.43-.18.85-.26,1.28a1.85,1.85,0,0,0,0,.23l0,1.35v.27c0,.39,0,.77,0,1.15,0,.78-.06,1.55-.07,2.33s0,1.51,0,2.26c0,1.19-.05,2.38-.07,3.57,0,1,0,2,0,3,0,3.11,0,6.22.07,9.33,0,.69-.06,1.38-.07,2.07,0,1.09,0,2.18,0,3.27,0,.18.06.38-.25.38s-.27-.2-.28-.39c0-.53-.06-1.06-.06-1.58s.06-.78.06-1.17-.07-.7-.06-1.06.06-1,.06-1.55c0-1.65,0-3.3-.07-5,0-3.39-.05-6.77-.07-10.16,0-.46.07-.93.07-1.39,0-1.72-.07-3.43-.07-5.14,0-.62.15-1.24.13-1.85a6,6,0,0,1,.16-1.41,5.81,5.81,0,0,1,1.07-2.37,18.8,18.8,0,0,1,1.46-1.75,8.44,8.44,0,0,1,3.17-1.94c.85-.32,1.76-.5,2.64-.77.1,0,.24-.06.24-.35,0-.69-.53-1.06-.77-1.6a5.6,5.6,0,0,1-.66-2.34,4.58,4.58,0,0,1,1-2.75,8.34,8.34,0,0,1,2.31-2.16,5.07,5.07,0,0,1,2.33-1,1.37,1.37,0,0,0,.68-.32c.55-.43,1.06-.17,1.61,0A10.33,10.33,0,0,1,25.08,5a4,4,0,0,1,1.51,2.74,5,5,0,0,1-.69,3.16c-.37.64-.82,1.23-1.24,1.85L24.5,13c-.15.31-.08.47.26.53.53.08,1.06.17,1.59.22a5.31,5.31,0,0,1,2.37.89,8.73,8.73,0,0,1,2.74,2.93,20.63,20.63,0,0,1,1.15,2.18,4.67,4.67,0,0,1,.21,1c0,.11,0,.25.08.3.35.27.29.65.29,1,0,1.71,0,3.43,0,5.14,0,.87-.08,1.74-.07,2.61,0,1.93.1,3.85.15,5.78,0,.58,0,1.17,0,1.75s.08,1.33.07,2c0,1.63-.1,3.26-.15,4.88,0,.23,0,.46,0,.69,0,1.07,0,2.13-.07,3.19,0,.89,0,1.78-.08,2.67,0,.23,0,.46-.35.47s-.34-.07-.32-.32Zm1.16,7.51c-.55,0-1.1,0-1.65,0l-4.69-.07-4.42-.07-5.59-.08c-.69,0-1.38-.07-2.07-.07h-5c-1.43,0-2.86.05-4.29.07A1.63,1.63,0,0,1,5.27,55c-.13-.06-.19-.29-.25-.45A2.36,2.36,0,0,1,4.91,54c0-.07.11-.21.16-.21.27,0,.53.06.8.06H7.93l5.17.07L18,54c.75,0,1.5,0,2.25.07s1.3.06,2,.07l6,.08,5.17.08a3.13,3.13,0,0,1,.75.08.42.42,0,0,1,.22.32C34.37,55.2,34.21,55.33,33.68,55.33Zm4.86-1.64s-.09,0-.14,0l-3-.08c-2.56,0-5.12,0-7.68-.08-1.1,0-2.2,0-3.31-.07l-3.22-.07L19,53.31c-1.25,0-2.5-.06-3.75-.07-.87,0-1.73,0-2.6,0s-1.48,0-2.21-.07-1.29-.1-1.93-.15H7.68c-.79,0-1.5,0-2.21,0l-4.2-.07c-.24,0-.5-.24-.7.06-.07-.13-.19-.25-.19-.38a6.51,6.51,0,0,1,.08-1.09.44.44,0,0,1,.31-.3q2.32-.07,4.65-.09c.53,0,1.06.07,1.59.07.76,0,1.53-.08,2.29-.06s1.63.09,2.45.13c.19,0,.38-.07.57-.06,1.22,0,2.45,0,3.67.07l2,.07,2.37.08c.41,0,.83,0,1.25,0l6,.07H31c.5,0,1,0,1.51.06.23,0,.46-.07.68-.06,1,0,1.9,0,2.86.07.75,0,1.5.06,2.25.07a.5.5,0,0,1,.56.49c0,.43.06.85.08,1.28C38.9,53.67,38.88,53.89,38.54,53.69Z"/></g></g></svg>