<svg xmlns="http://www.w3.org/2000/svg" viewBox="0 0 32.26 44.01"><defs><style>.cls-1{fill:#56acb2;}.cls-2{fill:#ffe0ae;}</style></defs><g id="Layer_2" data-name="Layer 2"><g id="heritage-window-2-front"><path id="fill3" class="cls-1" d="M26.49,13.89c0,1.11-.06,2.22-.07,3.33,0,.63-.1.72-.67.67s-1.09-.08-1.6-.07-1,0-1.58.07c-.33,0-.36-.14-.35-.39,0-.63.06-1.25.08-1.87,0-.44,0-.88,0-1.32s.1-.4.4-.38c.92,0,1.85.05,2.77.08a.8.8,0,0,0,.69-.25,1.19,1.19,0,0,1,.33-.19Zm-4.85,0c-.81,0-1.63,0-2.45-.08-.39,0-.78-.13-1.16-.15s-.63-.08-.71.43c0,.32-.08.63-.07.95,0,.9,0,1.8.08,2.7,0,.09.18.26.26.26q1.92,0,3.84-.09a.64.64,0,0,0,.46-.38A8.88,8.88,0,0,0,22,16.11c0-.62,0-1.22,0-1.82C22,14,21.92,13.93,21.64,13.93Zm4.69,4.71a.46.46,0,0,0-.27-.34c-.67-.06-1.34-.09-2-.09-.46,0-.93.06-1.39.07s-.52-.08-.51.6c0,1.26,0,2.53-.08,3.8,0,.2,0,.36.28.36,1.19,0,2.37,0,3.56,0,.12,0,.31-.2.34-.34a4.35,4.35,0,0,0,.09-1C26.34,20.64,26.35,19.64,26.33,18.64Zm-4.69-.36-1.35.08c-.36,0-.72.07-1.08.08H17.79c-.28,0-.4.12-.39.4s0,.83,0,1.24c0,.83-.07,1.66-.08,2.5V23h.07c1.12,0,2.8.07,3.92.09.27,0,.36-.08.37-.35,0-1,0-2,.07-3.06a4.15,4.15,0,0,1,.1-1.06C21.94,18.28,21.83,18.28,21.64,18.28Zm4,5.14c-1.1,0-2.19,0-3.28,0-.31,0-.43.08-.41.4,0,.67.08,1.33.08,2s0,1.51-.08,2.26c0,.24.05.35.33.35,1.19,0,2.37,0,3.56,0,.27,0,.32-.12.31-.35,0-.67,0-1.33,0-2s.06-1.43.07-2.14C26.27,23.45,26.33,23.41,25.67,23.42Zm-4,3.42V23.72c0-.23-.07-.31-.29-.3-.47,0-.95,0-1.42,0-.66,0-1.88,0-2.55,0h-.09v4.67c0,.29.1.43.41.42s.8-.08,1.19-.08c.78,0,1.55,0,2.33,0,.15,0,.39-.15.4-.24C21.69,27.72,21.67,27.28,21.67,26.84Zm4.15,1.95c-1.13,0-2.27,0-3.4,0-.32,0-.44.12-.44.43,0,1.19,0,2.38,0,3.57,0,.68,0,.68.68.59H25c.35,0,.7.12,1.05.15.05,0,.16-.17.17-.27,0-.4,0-.8,0-1.2,0-1,0-1.93,0-2.88C26.19,28.91,26.12,28.79,25.82,28.79Zm-4.22.58c0-.55,0-.57-.55-.57h-.51l-2.78.08c-.26,0-.46.09-.45.43,0,.76.06,1.53.09,2.3,0,.58,0,1.16.07,1.74l1.23,0c.86,0,1.72.07,2.58.07a.42.42,0,0,0,.3-.26c.05-.82.07-1.64.08-2.46C21.67,30.28,21.59,29.83,21.6,29.37ZM26.19,36c0-.59,0-1.18,0-1.76A.46.46,0,0,0,26,34a11.37,11.37,0,0,0-1.43-.16c-.65,0-1.3,0-1.95,0h-.19c-.28.05-.53.13-.45.5a3.5,3.5,0,0,1,.08.65c0,1.07.06,2.16.08,3.32.05.74.05.76.79.74,1,0,2,0,3.05-.07.3,0,.38-.18.35-.43C26.29,37.68,26.2,36.86,26.19,36Zm-4.44,1.59c0-.37-.06-.74-.08-1.19,0-.77-.05-1.54-.09-2.3a.35.35,0,0,0-.15-.27,2.41,2.41,0,0,0-.6-.08H18.27c-.12,0-.52,0-.79,0,0,.68.05,1.37.07,2.05,0,1,.05,1.93.1,2.9a.38.38,0,0,0,.23.29c.53,0,1.07.08,1.6.08.7,0,1.41,0,2.11-.08a.31.31,0,0,0,.22-.21C21.81,38.4,21.77,38,21.75,37.63Zm-7-3.92c-.49,0-1,0-1.51,0l-1.32,0c-.77,0-1,.14-1,.7,0,1.16-.05,2.33-.07,3.49a1.45,1.45,0,0,0,.08.79c.09.12.45.06.7.08h0l3,.16c.23,0,.31-.08.31-.31,0-1.39.05-2.78.07-4.16a1.67,1.67,0,0,1,0-.39C15.22,33.83,15.09,33.71,14.79,33.71Zm-4.36.16L6.9,33.71c-.32,0-.45.13-.42.45.06.51.13,1,.16,1.55s0,1.22,0,1.83c0,.05.05.1.08.24v.56c0,.41.08.5.51.51s.72,0,1.07,0,.71-.06,1.07-.06.59.06.88,0c.08,0,.25-.13.25-.21.05-.64.07-1.27.1-1.91,0-.14,0-.3,0-.45,0-.72.06-1.45.06-2.18C10.66,34,10.52,33.88,10.43,33.87Zm4.68-2c0-.65,0-1.3,0-2a5,5,0,0,1,0-.55c0-.27-.06-.37-.35-.37-.49,0-1,0-1.48,0s-1.23-.05-1.85-.08c-.28,0-.36.07-.36.35,0,1.24,0,2.47,0,3.71,0,.47.12.56.57.53l2.5-.16c.21,0,.43,0,.64,0s.4-.21.4-.46S15.12,32.21,15.11,31.89Zm-4.43-.44c0-.75,0-1.5,0-2.25,0-.11-.1-.29-.18-.3a3.35,3.35,0,0,0-.83-.09c-1,0-1.92,0-2.89,0-.3,0-.38.1-.37.39,0,1,.06,2,.08,3a5.58,5.58,0,0,0,0,.82.48.48,0,0,0,.32.33c1.16.08,2.32.12,3.49.16.36,0,.47-.13.45-.49S10.7,32,10.68,31.45ZM15,26.65c0-.82,0-1.66,0-2.5a1.22,1.22,0,0,1,0-.27c.1-.46,0-.54-.43-.54H11.79a3.09,3.09,0,0,0-.6.08.22.22,0,0,0-.11.18c0,.19.07.37.07.56,0,.35-.05.69-.08,1.11,0,1,0,1.93,0,2.89,0,.11.13.29.22.3a12.24,12.24,0,0,0,1.35.09c.63,0,1.26,0,1.9,0,.49,0,.59-.12.56-.63S15,27.09,15,26.65Zm-4.38-3.21a3.07,3.07,0,0,0-.8-.09h-3c-.6,0-.65.05-.64.66,0,1.14.06,2.28.07,3.43s-.1,1,1,.94l1.46,0,1.47.08c.21,0,.4,0,.4-.31,0-1.26.05-2.53.08-3.79,0-.22.07-.43.06-.65S10.73,23.46,10.65,23.44Zm4.22-5H11.55c-.51,0-.51,0-.48.5v.2c0,1.17,0,2.34,0,3.52,0,.29.08.38.37.38L14.8,23s0,0,0,0,.25-.16.25-.24c0-1.32.07-2.64.1-4C15.19,18.5,15.1,18.43,14.87,18.44Zm-4.19,2.29c0-.6,0-1.18,0-1.78s0-.57-.56-.59c-1.15,0-2.32,0-3.48,0-.13,0-.37.19-.37.3-.07.74-.09,1.48-.09,2.22,0,.55.05,1.11.06,1.67,0,.19,0,.31.27.32.66,0,1.33,0,2,.07l1.7.08c.46,0,.55-.06.55-.6S10.7,21.3,10.68,20.73Zm4.51-7c-.07-.12-.42-.06-.65-.1h0l-3.1-.14a.34.34,0,0,0-.24.24c0,1.34-.06,2.69-.09,4,0,.21.06.3.28.3h3.57c.08,0,.17-.13.26-.27,0-.43,0-.84,0-1.27,0-.68.06-1.35.07-2A1.45,1.45,0,0,0,15.19,13.71Zm-4.45-.06a.34.34,0,0,0-.22-.26,4.45,4.45,0,0,0-1-.08c-1.05,0-2.11,0-3.17.07a1.67,1.67,0,0,1-.7-.12.88.88,0,0,0,.48.83c.13.07.1.41.13.62s0,.14,0,.21c0,.93,0,1.85,0,2.77,0,.1.13.26.21.26,1.31,0,2.63.08,3.94.09a.34.34,0,0,0,.25-.24,6.35,6.35,0,0,0,.09-1.07C10.76,15.7,10.76,14.67,10.74,13.65Zm15.45-3c-.28-.59-.5-1.22-.81-1.79a6.92,6.92,0,0,0-1.57-2c-.22-.19-.44-.55-.67,0a.92.92,0,0,1-.32.33l-3.76,2.9-.86.7a2,2,0,0,0-.22.27l.36,0h.24L25.93,11h0C26.24,11,26.32,10.92,26.19,10.65ZM22,5.08c-.67-.39-1.35-.76-2-1.11a2.68,2.68,0,0,0-1.66-.38c-.21,0-.57.21-.59.36-.11.73-.13,1.48-.19,2.22s-.09,1.57-.16,2.35c0,.41-.1.82-.14,1.23,0,.05,0,.1.07.15l.08-.1a6,6,0,0,1,.66-.75c.49-.42,1-.81,1.55-1.25.83-.67,1.67-1.33,2.49-2C22.47,5.48,22.44,5.33,22,5.08Zm-6.29-1.2c-.77.12-1.53.18-2.27.37a14.75,14.75,0,0,0-1.74.66c-.26.12-.32.23-.08.47.67.66,1.31,1.35,2,2.07.2.22.39.45.59.66.41.45.83.9,1.26,1.33a.64.64,0,0,0,.21.14.77.77,0,0,0,.11-.27c0-.59.06-1.17.09-1.76,0-1.11.09-2.22.16-3.33C16.07,4,16,3.85,15.73,3.88Zm-1.3,6.81C13.22,9.42,12,8.15,10.75,6.85c-.09-.1-.2-.21-.3-.3a.89.89,0,0,0-1.14-.07A6.91,6.91,0,0,0,7.21,9a9.83,9.83,0,0,0-.48,1.81.32.32,0,0,0,.19.26,5.06,5.06,0,0,0,.87,0c.37,0,.75-.07,1.12-.07s.95.06,1.42.07l3.89.08c.19,0,.37-.06.57-.08Z"/><path id="fill2" class="cls-2" d="M28.4,42.32c0,.26.05.56-.35.56H26.2c-1.68,0-3.35,0-5,0-1.33,0-2.65-.1-4-.16l-2.55-.15c-1.37-.06-2.75-.13-4.12-.16-.72,0-1.43.05-2.14.08l-2.79.08a.42.42,0,0,0-.15,0c-.34,0-.66,0-1,0s-.37-.15-.39-.41.16-.33.37-.31c1.08.08,2.15.19,3.23.23s1.9,0,2.86,0h.12c2,0,4-.06,6.05-.07,1.21,0,2.42,0,3.62.07,1,0,2.09.07,3.13.07,1.31,0,2.61,0,3.92-.07.22,0,.43-.06.65-.08S28.42,42,28.4,42.32ZM32,40.84c0-.11,0-.22,0-.33a8.76,8.76,0,0,1-.26-1.19c0-.38-.08-.47-.45-.39a20.54,20.54,0,0,1-2.17.38c-1.14.08-2.3.07-3.44.09H23.91c-1.2,0-2.4.06-3.61.07-.82,0-1.66-.06-2.49-.07-1.45,0-2.9,0-4.36-.09-.62,0-1.24,0-1.86-.08-.85,0-1.69-.06-2.53-.07-.41,0-.83.07-1.24.07-2.27,0-4.55-.1-6.81-.16-.38,0-.43.1-.36.48a3.66,3.66,0,0,1,0,.74c0,.24-.09.55.24.59A9.37,9.37,0,0,0,2.57,41c.66,0,1.32-.13,2-.13s1,.11,1.52.14c1,.07,1.93.15,2.9.15,1.8,0,3.59,0,5.46-.07.78,0,1.56.07,2.34.08,1.41,0,2.83.07,4.24.07s2.8,0,4.2-.07c1.25,0,2.51-.08,3.76-.07.87,0,1.75.09,2.62.15C31.9,41.25,32,41.13,32,40.84ZM16.69,38.67a2.78,2.78,0,0,1-.08-.49c-.05-1.23-.13-2.46-.16-3.7,0-2.07-.05-4.14-.08-6.21v-.12c0-.27-.05-.53-.08-.8a1.5,1.5,0,0,1,0-.45.18.18,0,0,0,0-.1c0-1.69.06-3.38.07-5.07,0-1.27,0-2.53,0-3.8V15.87c0-.59,0-1.2,0-1.79,0-.23,0-.48-.43-.48s-.42.29-.42.54c-.05,1.64-.06,3.28-.09,4.92,0,.59,0,1.19,0,1.79,0,.9-.07,1.79-.08,2.69,0,1.67,0,3.35,0,5,0,.48,0,1,0,1.44,0,.9.08,1.81.08,2.71,0,1.87-.06,3.74-.07,5.62,0,.67,0,.67.69.67h.24C16.62,39,16.81,39,16.69,38.67Zm9.46-27.28c-.36,0-.72,0-1.08,0-.94,0-1.88.07-2.83.07-2.42,0-4.83.07-7.25.08-.61,0-1.22-.05-1.83-.07-1,0-2-.07-3-.07-.78,0-1.57.05-2.36.06-.54,0-1.07,0-1.61,0-.24,0-.33.06-.33.31a6,6,0,0,1-.08.84,1.7,1.7,0,0,1,0,.22.47.47,0,0,1,.18-.1,12.18,12.18,0,0,1,1.7-.14c.74,0,1.49,0,2.23.06,1.39.06,2.79.13,4.2.16s3.11,0,4.74,0a8.21,8.21,0,0,0,.84.08H21.1c1.46,0,2.93,0,4.39-.09,1,0,1-.15,1-1.1C26.5,11.45,26.39,11.39,26.15,11.39ZM22.89,5.93c-.21-.12-.32,0-.46.08l-2,1.66c-1,.8-1.92,1.6-2.87,2.41-.19.15-.37.46-.63.2a1.09,1.09,0,0,1-.33-.72c0-.88.14-1.75.22-2.71s.08-1.78.16-2.66c0-.15.09-.27-.1-.3s-.36-.07-.39.24c-.06.91-.16,1.83-.23,2.75s-.1,1.77-.16,2.66c0,.5-.31.66-.7.43a2.71,2.71,0,0,1-.57-.44c-.64-.64-1.25-1.3-1.88-1.95-.32-.33-.68-.63-1-1s-.66-.69-1-1c-.08-.07-.29,0-.45.05,0,.14,0,.32.07.4.63.7,1.26,1.41,1.93,2.09.91.94,1.83,1.86,2.76,2.77a.6.6,0,0,0,.35.2c.51,0,1,0,1.54-.08a.7.7,0,0,0,.35-.2c.59-.54,1.17-1.1,1.78-1.61,1.21-1,2.42-2,3.65-2.94C23.17,6.13,23.15,6.06,22.89,5.93Zm4.47,21.21c0-1.27-.05-2.54-.07-3.81,0-2.48-.07-5-.08-7.44,0-1.45,0-2.9.09-4.36A7.62,7.62,0,0,0,26.74,9a6.65,6.65,0,0,0-1.52-2.45,12.67,12.67,0,0,0-4-3.1,8.7,8.7,0,0,0-2.19-.79,13,13,0,0,0-2.5-.1c-.76,0-1.52.08-2.27.16a8.46,8.46,0,0,0-1.41.23A12,12,0,0,0,9.35,4.46,12.44,12.44,0,0,0,7.42,6.09a8.79,8.79,0,0,0-2.2,4.73c-.1.47-.21.94-.32,1.49,0,1.66-.06,3.31-.07,5,0,1,0,2,0,3,0,.7.06,1.39.07,2.08,0,.37-.07.74-.07,1.12,0,.63.07,1.27.07,1.91,0,1.38-.07,2.76-.07,4.13,0,2.08,0,4.16,0,6.24,0,.76,0,1.51.08,2.26a2.25,2.25,0,0,0,.08.64c0,.1.16.17.25.26a1.23,1.23,0,0,0,.13-.29c0-.53,0-1.06,0-1.59,0-.34-.07-.67-.07-1,0-1.46.07-2.93.07-4.39,0-1.8,0-3.59-.07-5.39s-.06-3.69-.08-5.54c0-.65,0-1.3,0-2,0-.45.06-.9.07-1.35q0-2,.09-4c0-.52,0-1.06.08-1.58a12.66,12.66,0,0,1,.24-1.52A6.81,6.81,0,0,1,6.14,8.8,8.14,8.14,0,0,1,8.56,5.65a17.47,17.47,0,0,1,2-1.32A9.87,9.87,0,0,1,12.1,3.8a7.77,7.77,0,0,1,1.39-.45c1.12-.13,2.25-.18,3.38-.25.23,0,.47.12.68.06a3.24,3.24,0,0,1,1.85.16,9.06,9.06,0,0,1,3.82,2.31c.14.14.33.25.47.4.29.32.54.68.84,1a11.54,11.54,0,0,1,2,3.1,2.4,2.4,0,0,1,.31.62,6,6,0,0,1,.09,1.19c0,1.26-.12,2.52-.15,3.77s0,2.54,0,3.81c0,1.07,0,2.14-.08,3.21,0,.67-.06,1.33-.08,2,0,1.73-.06,3.46-.07,5.18,0,.74.06,1.49.07,2.23,0,1.05,0,2.12,0,3.18s.11,2.19.15,3.29c0,.21,0,.35.29.34s.26-.17.27-.36c0-1.34.05-2.67.07-4,0-1.16.08-2.33.07-3.49S27.39,28.46,27.36,27.14ZM29,38.41c0-.31.08-.61.07-.92,0-1.17-.13-2.35-.15-3.53s.07-2.51.08-3.76V24.41c0-.63,0-1.25,0-1.87,0-3.23-.13-6.47.15-9.71A10.93,10.93,0,0,0,29,11.56c-.06-.8-.08-1.62-.17-2.42a5,5,0,0,0-.62-2.07c-.46-.73-.89-1.48-1.37-2.2a7.09,7.09,0,0,0-2.31-2.18c-.9-.57-1.84-1-2.77-1.53A6.28,6.28,0,0,0,18.66.4c-1.44,0-2.89,0-4.33.09a10.17,10.17,0,0,0-1.75.16,15.26,15.26,0,0,0-4.82,2A7.93,7.93,0,0,0,4.61,6.19l-1,2.38a.55.55,0,0,0,0,.22c0,.15.07.34,0,.46A8.83,8.83,0,0,0,2.93,12c-.08.6-.12,1.2-.16,1.8-.06.85-.13,1.69-.16,2.55,0,.53.06,1.06.08,1.58,0,1.7.05,3.41.08,5.11,0,.52,0,1,0,1.56,0,.79.07,1.59.07,2.38q0,3.43,0,6.89v2.54c0,.69,0,1.38,0,2.06,0,.33.16.45.47.38a.39.39,0,0,1,.18,0c.38.06.54-.06.53-.43C4,37.65,4,37,4,36.28c0-4.46-.06-8.9-.08-13.35,0-.75,0-1.49,0-2.23,0-1,.05-2.06.07-3.09,0-1.24,0-2.49.08-3.72a13.49,13.49,0,0,1,.1-2.3c.26-1.25.65-2.47,1-3.69A5.1,5.1,0,0,1,6.46,5.81,19,19,0,0,1,8.74,3.88l1.33-.61a13,13,0,0,1,5.55-1.19c.65,0,1.3.09,1.94,0a7.87,7.87,0,0,1,2.71.45A11,11,0,0,1,23.4,4.27a10.05,10.05,0,0,1,3.46,4,7.49,7.49,0,0,1,.82,3.38c0,.68-.08,1.35-.07,2,0,1.26.06,2.51.07,3.76,0,1.7,0,3.39,0,5.09,0,.84.06,1.68.08,2.53,0,.46,0,.92,0,1.38,0,.94.07,1.88.08,2.82,0,.61-.06,1.21-.08,1.81,0,1.22-.06,2.43-.08,3.64s0,2.64,0,4c0,.31.22.35.44.35a2,2,0,0,0,.55-.08c.16,0,.66.2.28-.32C28.92,38.56,29,38.47,29,38.41Z"/><path id="fill1" d="M32.26,40.25c0-.24,0-.48,0-.72a2.46,2.46,0,0,1,0-.28c0-.06,0-.12,0-.19V39a2.29,2.29,0,0,0-.09-.28s0,0,0-.05L32,38.57a.57.57,0,0,0-.33,0c-.46.06-.93.1-1.38.2-.27.07-.34,0-.32-.24a8.69,8.69,0,0,0,.07-.88c0-1-.12-1.93-.15-2.9s0-1.7,0-2.56c0-1.35,0-2.69,0-4,0-.83.08-1.65.07-2.48,0-2.29,0-4.59-.07-6.88,0-1.18,0-2.35,0-3.52,0-.11,0-.21,0-.32,0-.83.13-1.67.13-2.51a16.17,16.17,0,0,0-.15-2.08c-.07-.58-.2-1.15-.31-1.77a9.5,9.5,0,0,0-.45-1.11c-.32-.59-.67-1.15-1-1.72a9.7,9.7,0,0,0-2.59-2.86,19.69,19.69,0,0,0-3.5-2A6.19,6.19,0,0,0,19.65,0c-.74,0-1.49,0-2.23,0C16,.06,14.53.07,13.1.19a8.42,8.42,0,0,0-2.27.52,16.63,16.63,0,0,0-4,2.12,9.08,9.08,0,0,0-3,4c-.16.4-.3.8-.48,1.19a1.33,1.33,0,0,1-.06.12,5.21,5.21,0,0,1-.08.55c0,.12,0,.24-.07.36v.08a1.09,1.09,0,0,1,0,.26,1.19,1.19,0,0,1-.1.38,5.55,5.55,0,0,0-.42,1.87,23.9,23.9,0,0,0-.31,3c0,2.12,0,4.24.06,6.37,0,.59,0,1.18,0,1.77,0,1.46.06,2.93.08,4.39s0,2.61,0,3.92c0,.47.07.93.07,1.4s-.06,1.06-.07,1.59c0,1.32,0,2.64,0,4,0,.56-.06.63-.6.62-.28,0-.56-.07-.84-.07a3,3,0,0,0-.79.08c-.15,0-.35.18-.1.4a.47.47,0,0,1,.11.3c.06.74.1,1.49.17,2.23a.4.4,0,0,0,.24.29A13,13,0,0,0,2,42c.45,0,.9-.06,1.35-.07a.34.34,0,0,1,.24.18c.07.42.1.85.17,1.27,0,.13.13.32.23.35a2.73,2.73,0,0,0,.76.09c1.31,0,2.62-.12,3.93-.15.5,0,1,.06,1.5.07s.83-.06,1.24-.07c.58,0,1.17,0,1.75,0h2.22c.21,0,.43,0,.64,0,.54,0,1.08.08,1.62.1.3,0,.59-.08.88-.07.83,0,1.65.12,2.48.14.53,0,1.07-.06,1.6-.06,1.6,0,3.19,0,4.79,0h.18a.28.28,0,0,0,.13,0h.18l.09,0,.12,0,.14,0,0,0c.23,0,.56.11.62-.27a11.43,11.43,0,0,0,.16-1.31c0-.23.09-.4.33-.38.53,0,1.07.11,1.6.13.31,0,.66.16.91-.16l.09-.14,0,0,.12-.27,0,0v0l0-.13s0-.2,0-.23,0-.2,0-.31ZM2.77,13.76c0-.6.08-1.2.16-1.79A8.61,8.61,0,0,1,3.6,9.24c.06-.12,0-.3,0-.45a.83.83,0,0,1,0-.22c.34-.79.69-1.58,1-2.38A7.93,7.93,0,0,1,7.76,2.66a15,15,0,0,1,4.82-2A9.27,9.27,0,0,1,14.33.49c1.44,0,2.88,0,4.33-.09a6.28,6.28,0,0,1,3.13.76c.94.49,1.87,1,2.77,1.52a7.19,7.19,0,0,1,2.31,2.18c.47.73.91,1.47,1.37,2.21a5,5,0,0,1,.62,2.07c.1.8.11,1.61.17,2.42a11.1,11.1,0,0,1,.07,1.28c-.28,3.23-.1,6.46-.15,9.7,0,.62,0,1.25,0,1.87,0,1.93,0,3.86,0,5.79,0,1.25-.08,2.51-.06,3.76s.1,2.36.14,3.53c0,.31-.05.62-.07.92a.34.34,0,0,0,0,.2c.38.51-.12.27-.27.31a2.23,2.23,0,0,1-.56.08c-.22,0-.44,0-.44-.35,0-1.32,0-2.63,0-3.95s.05-2.43.08-3.65c0-.6.08-1.21.07-1.81,0-.94,0-1.88-.07-2.82,0-.46,0-.92,0-1.38,0-.85-.07-1.69-.07-2.54,0-1.69,0-3.38,0-5.07,0-1.26-.06-2.51-.07-3.77,0-.67.05-1.35.07-2a7.36,7.36,0,0,0-.82-3.38,10,10,0,0,0-3.46-4,10.88,10.88,0,0,0-3.13-1.69,7.83,7.83,0,0,0-2.71-.45c-.64,0-1.29-.06-1.94-.06a13.11,13.11,0,0,0-5.55,1.2l-1.33.62A18.06,18.06,0,0,0,6.46,5.81,5.13,5.13,0,0,0,5.13,7.89c-.35,1.23-.74,2.45-1,3.7a13.49,13.49,0,0,0-.1,2.3C4,15.13,4,16.37,4,17.61c0,1-.06,2.06-.07,3.09,0,.74,0,1.49,0,2.23,0,4.45,0,8.9.09,13.35C4,37,4,37.65,4,38.34c0,.37-.15.49-.53.43a.39.39,0,0,0-.18,0c-.31.08-.47-.05-.47-.38,0-.68,0-1.37,0-2V33.83c0-2.3,0-4.59,0-6.89,0-.8,0-1.59-.07-2.38,0-.52,0-1,0-1.56,0-1.7,0-3.4-.08-5.11,0-.53-.08-1.06-.06-1.58C2.64,15.46,2.71,14.61,2.77,13.76ZM26.5,29.9c0-1.73,0-3.46.08-5.19,0-.66.05-1.32.07-2,0-1.06.07-2.13.08-3.2,0-1.27,0-2.55,0-3.81s.11-2.52.14-3.78a5.3,5.3,0,0,0-.08-1.19,2.94,2.94,0,0,0-.3-.62,12,12,0,0,0-2-3.1c-.3-.31-.55-.67-.84-1-.14-.15-.33-.25-.47-.4A9.06,9.06,0,0,0,19.4,3.32a3.27,3.27,0,0,0-1.86-.16c-.2.06-.45-.07-.67-.06-1.13.07-2.26.12-3.38.25a7.08,7.08,0,0,0-1.39.46,8.93,8.93,0,0,0-1.56.52,16.3,16.3,0,0,0-2,1.33A8,8,0,0,0,6.14,8.8a6.87,6.87,0,0,0-.44,1.55,13.16,13.16,0,0,0-.24,1.53c0,.52-.07,1-.08,1.58,0,1.32,0,2.64-.09,4,0,.45-.06.9-.07,1.35q0,1,0,1.95c0,1.85,0,3.69.08,5.54s.07,3.59.07,5.39c0,1.46,0,2.93-.07,4.39,0,.33.06.67.07,1,0,.53,0,1.06,0,1.59,0,.1-.09.19-.13.29-.09-.09-.22-.16-.25-.26A2.82,2.82,0,0,1,4.9,38c0-.75-.07-1.51-.07-2.26,0-2.08,0-4.16,0-6.24,0-1.37.06-2.75.07-4.13,0-.64-.07-1.28-.07-1.92,0-.37.07-.74.07-1.11,0-.69-.07-1.39-.07-2.08,0-1,0-2,0-3,0-1.65.06-3.3.08-5,.11-.55.22-1,.32-1.49A8.81,8.81,0,0,1,7.43,6.09,12.36,12.36,0,0,1,9.35,4.46a12,12,0,0,1,3.52-1.52,8.46,8.46,0,0,1,1.41-.23c.75-.08,1.51-.15,2.27-.16a13,13,0,0,1,2.5.1,8.77,8.77,0,0,1,2.2.79,13,13,0,0,1,4,3.09A7,7,0,0,1,26.74,9a7.56,7.56,0,0,1,.56,2.54c-.07,1.45-.09,2.91-.09,4.36,0,2.48.05,5,.08,7.44,0,1.27.05,2.55.08,3.82s.07,2.62.07,3.93-.05,2.33-.07,3.49c0,1.33-.06,2.67-.08,4,0,.19,0,.36-.27.36s-.28-.13-.29-.34c-.05-1.1-.12-2.2-.15-3.29s0-2.12,0-3.18C26.56,31.38,26.5,30.64,26.5,29.9Zm-4.85-1.75c0,.1-.26.24-.4.25-.77,0-1.55,0-2.33,0-.4,0-.79.05-1.19.08s-.41-.13-.41-.42V23.4l.09,0c.66,0,1.89,0,2.55,0,.47,0,.95,0,1.42,0,.22,0,.3.08.29.3v3.12C21.67,27.28,21.69,27.72,21.65,28.15Zm-3.89.73,2.78-.08h.51c.57,0,.56,0,.55.57s.07.91.06,1.37c0,.82,0,1.64-.08,2.46a.43.43,0,0,1-.31.26c-.86,0-1.72,0-2.57-.07l-1.24,0-.06-1.74c0-.77,0-1.54-.08-2.3C17.3,29,17.5,28.89,17.76,28.88Zm.51,4.9h2.57a2,2,0,0,1,.59.09c.08,0,.15.16.15.26,0,.76.06,1.53.09,2.3,0,.45,0,.82.08,1.19s.07.77.07,1.15c0,.08-.15.21-.23.22-.7,0-1.4.08-2.11.08a14.3,14.3,0,0,1-1.6-.09.37.37,0,0,1-.23-.28c0-1-.06-1.93-.09-2.9,0-.68,0-1.36-.08-2.05C17.76,33.78,18.15,33.78,18.27,33.78Zm3.48-14.14c0,1-.06,2-.07,3.05,0,.28-.1.35-.37.34-1.12,0-2.8-.08-3.92-.08h-.07v-.38c0-.83.06-1.66.08-2.49,0-.42,0-.83,0-1.24s.11-.41.39-.4h1.42c.36,0,.72-.05,1.08-.08l1.35-.08c.19,0,.3,0,.21.29A3.78,3.78,0,0,0,21.75,19.64ZM21.43,18c-1.28.06-2.56.07-3.84.08a.38.38,0,0,1-.26-.25c0-.9-.07-1.8-.08-2.7a7.73,7.73,0,0,1,.07-.95c.08-.51.22-.45.71-.43s.77.13,1.16.15c.81,0,1.63.07,2.45.08.28,0,.36.08.35.36,0,.6,0,1.21,0,1.81a10.27,10.27,0,0,1-.09,1.47A.66.66,0,0,1,21.43,18ZM15.42,30c0-.48,0-1,0-1.44,0-1.67,0-3.34,0-5,0-.9.05-1.79.07-2.69,0-.6,0-1.2,0-1.79,0-1.65.05-3.29.09-4.93,0-.23,0-.52.42-.53s.42.25.43.48c0,.6,0,1.2,0,1.79v2.06c0,1.27,0,2.54,0,3.81,0,1.68-.05,3.37-.08,5.06,0,0,0,.07,0,.1a1.5,1.5,0,0,0,0,.45c0,.27.05.53.08.8v.12c0,2.07,0,4.14.08,6.21,0,1.24.1,2.47.16,3.7a1.85,1.85,0,0,0,.08.48c.11.35-.07.38-.33.35h-.24c-.67,0-.7,0-.69-.68,0-1.88.06-3.75.07-5.62C15.5,31.8,15.44,30.9,15.42,30ZM14,12.82c-1.4,0-2.81-.1-4.21-.15-.74,0-1.48-.08-2.22-.07a10.73,10.73,0,0,0-1.7.14.5.5,0,0,0-.17.1l0-.22a6,6,0,0,0,.07-.84c0-.25.11-.31.33-.3H7.8c.78,0,1.56-.08,2.35-.07,1,0,2,0,3,.07.61,0,1.22.08,1.83.07,2.42,0,4.83,0,7.25-.07,1,0,1.89-.06,2.83-.08h1.08c.24,0,.35,0,.35.32,0,.95-.05,1.06-1,1.1-1.46,0-2.93.06-4.39.08H19.62c-.28,0-.56-.05-.84-.07C17.15,12.83,15.59,12.85,14,12.82ZM15.1,34.54c0,1.39,0,2.77-.07,4.16,0,.23-.08.32-.32.31l-3-.16h0c-.25,0-.61,0-.7-.08a1.45,1.45,0,0,1-.08-.79c0-1.16,0-2.33.07-3.5,0-.55.2-.68,1-.69l1.33,0c.52,0,1,0,1.5,0,.3,0,.43.11.32.44A1.67,1.67,0,0,0,15.1,34.54Zm-.32-1.23q-.31,0-.63,0l-2.5.16c-.46,0-.58-.06-.58-.53,0-1.24,0-2.47,0-3.71,0-.28.08-.37.35-.35.62,0,1.25.06,1.87.08h1.47c.28,0,.38.09.35.36a5,5,0,0,0,0,.55c0,.72,0,1.37,0,2,0,.33.06.65.07,1S15.12,33.34,14.78,33.31Zm-3.7-9.7a.21.21,0,0,1,.11-.18,3,3,0,0,1,.6-.08q1.41,0,2.82,0c.46,0,.52.07.42.53a1.22,1.22,0,0,0,0,.27c0,.84,0,1.67,0,2.51,0,.43.05.85.08,1.28s-.07.63-.56.63c-.64,0-1.27,0-1.9,0a12.24,12.24,0,0,1-1.35-.09c-.09,0-.22-.19-.22-.3,0-1,0-1.93,0-2.89,0-.42.07-.77.07-1.11A5.32,5.32,0,0,0,11.08,23.61Zm4-.91c0,.09-.16.17-.24.25s0,0,0,0c-1.12,0-2.25,0-3.37.08-.29,0-.38-.08-.37-.37,0-1.17,0-2.35,0-3.52v-.2c0-.5,0-.5.48-.5h3.32c.23,0,.32.06.32.31C15.15,20.07,15.14,21.38,15.09,22.7Zm.1-6.2c0,.42,0,.85,0,1.27-.08.14-.17.27-.26.27H11.36c-.23,0-.3-.09-.29-.3,0-1.35,0-2.69.09-4a.34.34,0,0,1,.24-.24c1,0,2.07.09,3.1.15h0c.23,0,.58,0,.65.09a1.45,1.45,0,0,1,.07.76C15.24,15.15,15.2,15.82,15.19,16.5Zm-8.54,21c0-.61,0-1.22,0-1.83s-.1-1-.16-1.56c0-.31.1-.46.42-.44l3.53.16c.09,0,.24.14.23.22,0,.72,0,1.45-.06,2.18,0,.15,0,.29,0,.44,0,.64,0,1.27-.09,1.91a.39.39,0,0,1-.26.22c-.3,0-.59-.07-.88-.07s-.72.06-1.07.08H7.23c-.43,0-.51-.09-.51-.52v-.55C6.69,37.65,6.65,37.59,6.65,37.54Zm3.66-4.07c-1.17,0-2.33-.1-3.49-.17A.48.48,0,0,1,6.5,33a5.58,5.58,0,0,1,0-.82c0-1,0-2-.08-3,0-.29.07-.39.37-.38H9.65a3.38,3.38,0,0,1,.84.09c.08,0,.18.19.18.3,0,.75,0,1.5,0,2.25,0,.56,0,1,.08,1.52S10.67,33.48,10.31,33.47Zm.37-5.28c0,.33-.19.31-.4.3l-1.47-.08-1.46,0c-1.13,0-1,.14-1-.95S6.27,25.14,6.25,24c0-.61,0-.65.64-.65,1,0,2,0,3,0a3.07,3.07,0,0,1,.8.09c.08,0,.17.2.17.31s-.06.42-.06.63C10.73,25.65,10.69,26.92,10.68,28.19ZM6.17,14.09a.88.88,0,0,1-.48-.83,1.87,1.87,0,0,0,.7.12l3.17-.08a5.2,5.2,0,0,1,1,.09.36.36,0,0,1,.22.26c0,1,0,2,0,3.08a6.35,6.35,0,0,1-.09,1.07c0,.09-.16.24-.25.23C9.1,18,7.79,18,6.48,18c-.08,0-.22-.16-.22-.26,0-.92,0-1.84,0-2.77,0-.07,0-.14,0-.21C6.27,14.49,6.29,14.16,6.17,14.09Zm.09,4.58c0-.11.25-.29.39-.29,1.15,0,2.31,0,3.47,0,.53,0,.56.06.56.58s0,1.19,0,1.78.05,1.14.07,1.71-.1.62-.55.59L8.5,23c-.66,0-1.32-.06-2-.07-.24,0-.27-.13-.28-.32,0-.56-.07-1.11-.07-1.67C6.18,20.15,6.2,19.41,6.26,18.67Zm5.7-12c.33.32.69.62,1,1,.64.64,1.25,1.31,1.88,1.95a2.71,2.71,0,0,0,.57.44c.39.24.66.07.7-.43.07-.89.1-1.78.16-2.67s.17-1.83.23-2.75c0-.3.23-.25.39-.23s.12.15.11.3c-.09.89-.12,1.78-.17,2.66s-.19,1.83-.22,2.71a1.09,1.09,0,0,0,.33.72c.26.26.44,0,.62-.21l2.88-2.4,2-1.65c.15-.13.26-.21.47-.09s.29.19,0,.39c-1.22,1-2.44,1.94-3.64,2.94-.62.51-1.19,1.08-1.79,1.61a.75.75,0,0,1-.35.21c-.51,0-1,.07-1.54.07a.63.63,0,0,1-.35-.2c-.93-.92-1.86-1.83-2.77-2.77-.66-.68-1.29-1.38-1.92-2.09-.08-.09-.05-.26-.07-.4.16,0,.37-.12.45-.05C11.3,6,11.62,6.3,12,6.63Zm-.24-1.71a12.73,12.73,0,0,1,1.74-.67,21.68,21.68,0,0,1,2.26-.36c.26,0,.35.07.34.33C16,5.33,16,6.44,15.9,7.55c0,.59-.05,1.18-.09,1.76a.77.77,0,0,1-.11.27,1.64,1.64,0,0,1-.22-.14c-.42-.44-.84-.88-1.25-1.33l-.59-.66c-.69-.72-1.33-1.41-2-2.07C11.4,5.14,11.46,5,11.72,4.92Zm5.53,4.83c0-.41.11-.82.15-1.23.06-.79.1-1.57.16-2.35s.07-1.49.18-2.22c0-.15.38-.33.6-.37A2.75,2.75,0,0,1,20,4c.68.35,1.36.72,2,1.11.43.25.44.39.08.71-.82.68-1.66,1.34-2.49,2-.54.44-1.06.83-1.55,1.25a7.87,7.87,0,0,0-.66.75l-.08.1C17.29,9.85,17.24,9.8,17.25,9.75Zm5.89-2.88c.23-.55.45-.2.67,0a7.1,7.1,0,0,1,1.57,2c.31.58.53,1.2.81,1.79.13.27,0,.36-.22.36h0l-7.36.07H18a2,2,0,0,1,.23-.27l.85-.7,3.76-2.89A1,1,0,0,0,23.14,6.87Zm-12.39,0,3.68,3.83.36.4a3.72,3.72,0,0,1-.57.08c-1.3,0-2.59,0-3.88-.08-.48,0-1-.07-1.43-.07s-.74.06-1.12.07a6.46,6.46,0,0,1-.88,0,.34.34,0,0,1-.18-.26A9.83,9.83,0,0,1,7.21,9a6.91,6.91,0,0,1,2.1-2.52.89.89,0,0,1,1.14.07ZM26.17,33.27c0,.09-.12.27-.17.27-.35,0-.7-.1-1.05-.15H22.66c-.67.09-.67.09-.67-.59,0-1.19,0-2.38,0-3.56,0-.32.12-.44.44-.44h3.4c.31,0,.37.11.36.38,0,1,0,1.93,0,2.89C26.18,32.47,26.19,32.87,26.17,33.27Zm0-5.21c0,.23,0,.36-.32.35-1.18,0-2.37,0-3.55,0-.28,0-.34-.11-.33-.35,0-.75.08-1.5.08-2.26s0-1.33-.08-2c0-.32.1-.4.4-.39h3.28c.68,0,.61,0,.6.51,0,.71-.06,1.43-.08,2.14S26.17,27.4,26.18,28.06Zm.06-5.38c0,.13-.22.33-.34.33-1.19,0-2.37,0-3.56,0-.28,0-.28-.15-.28-.35,0-1.27.06-2.54.08-3.8,0-.67,0-.59.51-.6s.93-.07,1.39-.07c.67,0,1.35,0,2,.09.1,0,.26.22.27.34,0,1,0,2,0,3A4.52,4.52,0,0,1,26.24,22.68ZM22.43,33.79a.61.61,0,0,1,.19,0c.65,0,1.3,0,1.95,0A9.79,9.79,0,0,1,26,34a.43.43,0,0,1,.25.32c0,.59-.08,1.17-.06,1.76,0,.82.09,1.64.15,2.46,0,.26-.06.42-.36.43-1,0-2,.06-3.05.07-.74,0-.74,0-.79-.74,0-1.17,0-2.25-.08-3.33a2.8,2.8,0,0,0-.08-.64C21.91,33.92,22.15,33.84,22.43,33.79Zm3.31-15.9c-.58,0-1.08-.08-1.58-.08s-1.06,0-1.59.08c-.33,0-.36-.14-.35-.4,0-.62.06-1.24.08-1.86,0-.44,0-.88,0-1.32s.1-.4.4-.38c.93,0,1.85.05,2.77.08a.8.8,0,0,0,.69-.25,1.19,1.19,0,0,1,.33-.19c0,.11,0,.22,0,.33,0,1.1-.06,2.21-.07,3.32C26.41,17.85,26.32,17.94,25.74,17.89Zm2.31,25H26.2c-1.67,0-3.35,0-5,0-1.33,0-2.66-.1-4-.16l-2.55-.15c-1.37-.06-2.75-.13-4.12-.16-.72,0-1.43.05-2.14.08l-2.79.08a.33.33,0,0,0-.14,0c-.35,0-.66,0-1,0s-.38-.15-.39-.42.15-.31.37-.3c1.08.08,2.15.19,3.23.23s1.9,0,2.86,0h.12c2,0,4-.07,6.05-.07,1.21,0,2.42,0,3.62.07,1,0,2.09.08,3.13.07,1.31,0,2.62,0,3.92-.07.22,0,.43-.05.64-.08s.38,0,.36.31S28.45,42.88,28.05,42.88Zm3.54-1.65c-.87-.07-1.75-.15-2.62-.16-1.26,0-2.51,0-3.77.07s-2.79.08-4.19.08-2.83,0-4.24-.08l-2.34-.08c-1.87,0-3.66.08-5.46.07C8,41.13,7,41,6.07,41c-.5,0-1-.15-1.51-.14-.67,0-1.33.12-2,.14a11.75,11.75,0,0,1-1.68-.09c-.33,0-.26-.35-.25-.59a3.07,3.07,0,0,0,0-.74c-.07-.38,0-.48.36-.47l6.81.15c.41,0,.82-.07,1.23-.07.85,0,1.69,0,2.54.07.62,0,1.24.07,1.86.08l4.36.08c.83,0,1.66.08,2.49.08,1.21,0,2.41-.06,3.61-.08h1.67c1.15,0,2.3,0,3.45-.09a17.92,17.92,0,0,0,2.17-.38c.37-.08.42,0,.45.38a8.28,8.28,0,0,0,.26,1.2c0,.11,0,.22,0,.33C32,41.12,31.89,41.25,31.59,41.23Z"/></g></g></svg>