<svg xmlns="http://www.w3.org/2000/svg" viewBox="0 0 43.25 46.98"><defs><style>.cls-1{fill:#56acb2;}.cls-2{fill:#ffe0ae;}</style></defs><g id="Layer_2" data-name="Layer 2"><g id="heritage-window-3-front"><path id="fill3" class="cls-1" d="M15.72,11.6a13.92,13.92,0,0,1,0,1.6.6.6,0,0,1-.5.47c-1.25.11-2.5.17-3.75.24h-.06c-1.12.13-1.12.13-.77-.94.23-.67.44-1.33.68-2a4.54,4.54,0,0,1,.63-1.14,12.24,12.24,0,0,1,3.28-2.71c.26-.16.5-.21.51.26,0,.74.1,1.48.1,2.21S15.75,10.93,15.72,11.6Zm9.14-4.23a.74.74,0,0,0-.37-.84,5,5,0,0,0-3.13-.72,35.2,35.2,0,0,0-4.65.76c-.13,0-.29.3-.3.47-.06,1-.11,2-.12,3,0,.76.06,1.52.11,2.38-.29.79,0,1.19.79,1.19h4.7c.53,0,1.07,0,1.6,0a6.61,6.61,0,0,0,1.08-.12c.11,0,.31-.18.3-.28,0-1.57-.09-3.15-.1-4.73A9.65,9.65,0,0,1,24.86,7.37Zm6.54,4.49A17.49,17.49,0,0,0,29.79,10a13.62,13.62,0,0,0-3.32-2.49c-1-.47-1.14-.37-1.13.72s.08,2.24.11,3.36c0,.49,0,1,0,1.46,0,.14.17.38.26.38.73,0,1.47,0,2.2,0,1.33,0,2.65-.11,4-.17.08,0,.22,0,.23-.1C32.19,12.81,31.66,12.15,31.4,11.86Zm.85,2.53a.59.59,0,0,0-.63-.59c-1,0-2,.08-2.95.11s-1.93.1-2.89.11c-.41,0-.48.19-.44.63,0,2.36,0,4.73,0,7.09,0,.46.14.61.58.56s1.06-.1,1.59-.12l4.08-.11a.57.57,0,0,0,.56-.53c.07-1,.19-2,.21-3C32.36,17.14,32.27,15.76,32.25,14.39ZM24.66,14c-.8,0-1.59.11-2.39.11s-1.62-.1-2.44-.1c-1,0-2,.09-3.07.1-.41,0-.51.15-.49.53.06.85.1,1.7.12,2.56,0,.22-.11.45-.1.69,0,1,.06,2,.11,3.08,0,.33,0,.66,0,1a.47.47,0,0,0,.49.54c2.34-.05,4.68-.08,7-.12a2.4,2.4,0,0,0,.28,0c.49-.06.62-.31.6-.8-.05-1.49,0-3,0-4.48,0-.22.07-.44.08-.66a19.66,19.66,0,0,1,.11-2C25,14,24.93,14,24.66,14Zm-8.84,7.55c0-1.21-.08-2.42-.1-3.63s0-2.17,0-3.27a.41.41,0,0,0-.45-.42c-.74.05-1.47.08-2.32.12a16.31,16.31,0,0,1-2.06.2c-.63,0-.88.23-.94.78-.12,1.09-.26,2.16-.34,3.26s-.09,2.07-.11,3.12c0,.39.09.7.61.68.83,0,1.65,0,2.48,0s1.48.1,2.22.1C16,22.52,15.84,22.64,15.82,21.57Zm.24,7.91c0-1-.08-2-.12-3.17a3.21,3.21,0,0,1-.11-.52c0-.75,0-1.51,0-2.25a.55.55,0,0,0-.27-.44,7.16,7.16,0,0,0-1.3-.13H10.91a1.18,1.18,0,0,0-1.2,1.3c.14,1.85.24,3.7.34,5.54,0,.85.23,1,1,.78l.26,0,3.8-.11C16,30.43,16.09,30.3,16.06,29.48Zm8.83-3.62v-.34c0-.71-.12-1.41-.1-2.11,0-.48-.11-.64-.57-.5a1.77,1.77,0,0,1-.32.05q-2.52.08-5,.12c-.62,0-1.24,0-1.86,0-.45,0-.65.08-.61.58.07,1.11.08,2.23.12,3.34s.06,2.05.13,3.06a.56.56,0,0,0,.39.37c.84.07,1.7.11,2.55.12,1.64,0,3.29,0,4.93,0a.49.49,0,0,0,.5-.51C25,28.69,24.93,27.33,24.89,25.86Zm7.35-2.45c0-.63.23-.82-.73-.78l-2.61.11c-1.06.05-2.11.06-3.15.14a.39.39,0,0,0-.39.37c0,.48.07.95.09,1.43,0,.77,0,1.55,0,2.32,0,1,.09,1.91.08,2.86,0,.4.3.83.69.81.92,0,1.85-.09,2.78-.11s1.78,0,2.68,0c.45,0,.55-.23.55-.62,0-1.81,0-3.62,0-5.54C32.24,24.06,32.26,23.73,32.24,23.41Zm.24,15.23a2.62,2.62,0,0,1,0-.28V34a22.56,22.56,0,0,0-.14-2.32c0-.2-.33-.47-.55-.54A4.78,4.78,0,0,0,30.47,31c-1,0-2,.07-3.06.11-.49,0-1,0-1.47,0a.47.47,0,0,0-.31.32c0,1.29.11,2.59.16,3.88,0,.23-.11.46-.1.68,0,.4.1.78.1,1.17,0,.56-.1,1.13-.09,1.7a.53.53,0,0,0,.37.37,9.61,9.61,0,0,0,1.42.13c1.4,0,2.79.09,4.19.11a1.46,1.46,0,0,0,.8-.22C32.58,39.21,32.48,38.86,32.48,38.64Zm-7.37-2V31.74c.06-.65-.64-.44-3.31-.62-2-.12-3.45,0-4.72-.07-.15,0-.44.15-.44.29-.07,1.34-.12,2.69-.12,4,0,1,0,2.72,0,3.74a.42.42,0,0,1,0,.15c.65,0,1.3-.09,2-.09q3,0,6,0c.54,0,.73-.21.7-.73S25.11,37.26,25.11,36.66ZM15.3,31c-1.53.06-3.07.17-4.61.21-.48,0-.57.19-.53.6.09.84.18,1.68.23,2.51.1,1.37.14,2.74.26,4.1a.86.86,0,0,0,.55.59c1.6.11,3.21.18,4.82.23a.3.3,0,0,1,0-.15c-.07-1.58,0-3.85,0-5.43,0-.35.08-.69.09-1a4.65,4.65,0,0,1,0-.65C16.23,31.23,16.07,31,15.3,31Z"/><path id="fill2" class="cls-2" d="M35.64,44.42a.87.87,0,0,1-1,1c-1.9,0-3.79,0-5.68,0-2.55,0-5.1-.1-7.65-.1-1.95,0-3.89.07-5.84.1l-7,.12c-.36,0-.72.07-1.08.11s-.72-.13-.68-.62c0-.17,0-.37,0-.51a.55.55,0,0,1,.32-.33c.81-.06,1.62-.09,2.43-.12.56,0,1,.09,1.44.1s.91,0,1.37,0S13.45,44,14,44c1.17,0,2.35.12,3.52.1,2.57,0,5.15-.17,7.72-.21,1.64,0,3.29.13,4.93.09s3-.23,4.5-.32C35.37,43.65,35.64,43.88,35.64,44.42ZM42.09,41c0-1.27-.55-1.54-1.81-1.12a4.71,4.71,0,0,1-2.39.06c-.3-.06-.6.11-.9.1-.71,0-1.43-.09-2.13-.11-4.47-.08-8.92-.16-13.38-.22-1.44,0-2.88,0-4.32,0a10.94,10.94,0,0,1-1.14.09c-.69,0-1.37-.17-2.06-.2-1.43-.06-2.87-.13-4.31-.11-2.38,0-4.77.14-7.15.22-.26,0-.53.07-.8.1a.36.36,0,0,1-.23,0c-.44-.23-.48,0-.47.38a1.7,1.7,0,0,1-.06.31,5.36,5.36,0,0,0-.17,2.39c.07.27.16.36.44.29s.58-.14.87-.18c1.47-.12,2.93-.29,4.4-.34s2.81,0,4.21,0c1.07,0,2.15.1,3.23.11h6.32c2.46,0,4.91-.09,7.36-.11,3,0,6.09,0,9.14,0,.18,0,.37,0,.56,0,1.42,0,2.84.09,4.25.09.22,0,.59-.23.62-.4A3.88,3.88,0,0,0,42.09,41Zm-7.92-2c0-1.89-.06-3.77-.12-5.66-.06-2.24-.16-4.47-.22-6.7,0-1.49,0-3,0-4.46,0-1-.19-2.09-.21-3.13,0-1.74,0-3.47,0-5.2,0-.24.14-.48.1-.69-.13-.65-.32-1.28-.43-1.91a.11.11,0,0,1,0-.08c-.12-.12-.2-.31-.35-.38s0-.07,0-.1A13.29,13.29,0,0,0,28,6.52a20.21,20.21,0,0,0-4.61-2,3,3,0,0,0-1,0c-.42,0-.84.09-1.26.1s-.61-.1-.91-.09a11.89,11.89,0,0,0-1.2.1c-1.13.12-2.26.16-3.36.36a7.69,7.69,0,0,0-3.17,1.38,8.66,8.66,0,0,0-2,2.26,16.46,16.46,0,0,0-1.2,1.71,11.33,11.33,0,0,0-.71,2.08,18.76,18.76,0,0,0-.79,4.82c0,1,0,1.94,0,2.9,0,1.2,0,2.4,0,3.59.07,1.5.24,3,.32,4.5.07,1.32.09,2.65.12,4v.17c.15,1.45.33,2.9.44,4.36,0,.6-.08,1.21-.09,1.82s.37.53.74.49.08-.38.14-.57-.08-.27-.09-.41c-.09-1.23-.18-2.46-.23-3.69s-.07-2.54-.11-3.8l-.12-2.52c-.08-1.84-.17-3.67-.22-5.51a57,57,0,0,1,.34-7.95,6.41,6.41,0,0,1,.14-1.53,8.59,8.59,0,0,1,1.58-3.31l2-2.12a19.41,19.41,0,0,1,2.39-1.34,9.34,9.34,0,0,1,3.83-.88,5.29,5.29,0,0,0,1.37-.11,8.09,8.09,0,0,1,3.21.22,10.87,10.87,0,0,1,2.41,1.14,11.38,11.38,0,0,1,4,2.62,16.64,16.64,0,0,1,1.87,1.91,4,4,0,0,1,.68,1.35,16.52,16.52,0,0,1,.46,3.26c0,2-.15,4.05-.19,6.08,0,.94.09,1.89.1,2.84,0,2,0,4,0,6.05a9.76,9.76,0,0,0,0,1.08c.07.55.15,1.08.17,1.62,0,1.08,0,2.17,0,3.25,0,.77.07,1.55.11,2.32,0,.46.35.45.68.46S34.17,39.25,34.17,39Zm3.62,0c-.07-1-.17-2-.22-3,0-.63,0-1.27,0-1.9-.06-1.73-.15-3.45-.22-5.17,0-.93-.07-1.86-.11-2.78-.08-1.47-.18-2.92-.23-4.39,0-2.21-.08-4.42-.11-6.63a13.23,13.23,0,0,0,0-1.41,21.08,21.08,0,0,0-.39-2.38c-.15-.63-.39-1.23-.6-1.85a4.43,4.43,0,0,0-.41-1.29,21.84,21.84,0,0,0-2.08-2.53,11.65,11.65,0,0,0-2.17-1.72,22.8,22.8,0,0,0-3.4-1.76A17.15,17.15,0,0,0,23.25.89,10.89,10.89,0,0,0,19.88.66,7.24,7.24,0,0,1,19,.78c-.82.08-1.65.09-2.45.24a18.46,18.46,0,0,0-5.9,2.43A13.52,13.52,0,0,0,7.74,6.13a10.87,10.87,0,0,0-1.6,2.2A19.28,19.28,0,0,0,4.79,11.7,10.13,10.13,0,0,0,4.62,14c0,.32,0,.65-.08,1-.12,1.08-.33,2.16-.35,3.24,0,1.26.13,2.5.21,3.76,0,.51.08,1,.11,1.53.07,1.41.2,2.81.21,4.22,0,1.74-.09,3.49-.09,5.23,0,1.93.07,3.85.1,5.78,0,.35.13.47.47.44.5,0,1-.08,1.53-.12.29,0,.82.15.39-.47a.24.24,0,0,1,0-.22,2.82,2.82,0,0,0,.13-.54A25.13,25.13,0,0,0,7,32.33a44.05,44.05,0,0,1-.32-4.6c0-.87-.09-1.75-.11-2.63,0-1.35-.14-2.71-.12-4.06,0-1.87.11-3.74.23-5.62a11.11,11.11,0,0,1,.46-2.35c.27-.89.69-1.72,1-2.59a9.22,9.22,0,0,1,2.15-3.36,8.61,8.61,0,0,1,3.85-2.41,13.55,13.55,0,0,1,4.18-.77,10.71,10.71,0,0,0,1.5-.12,8.48,8.48,0,0,1,3.44.12A24.43,24.43,0,0,1,26.34,5a11.67,11.67,0,0,1,3.95,2.21,10.21,10.21,0,0,1,3.12,3.24,1.58,1.58,0,0,1,.17.32h0c.1.53.32,1,.42,1.57s.09.8.14,1.2a2.7,2.7,0,0,0,0-.28c0,.12,0,.24,0,.36,0,.28,0,.57,0,.85q.11,3.69.23,7.38c.07,2.41.16,4.8.22,7.21.05,2.14.08,4.28.11,6.42,0,1.13,0,2.28,0,3.41a.56.56,0,0,0,.56.56c.7,0,1.4,0,2.1,0C37.77,39.52,37.81,39.3,37.79,39Z"/><path id="fill1" d="M43.22,42.51c0-.67-.15-1.33-.22-2-.11-1.12-.37-1.38-1.5-1.34-.67,0-1.34.15-2,.21-.39,0-.59-.15-.58-.55s0-1.07,0-1.6c0-1,0-1.94,0-2.91-.05-1.16-.16-2.32-.22-3.47-.09-1.52-.16-3.05-.23-4.57-.08-1.74-.16-3.48-.22-5.23,0-1.41-.08-2.83-.12-4.25,0-.4,0-.81,0-1.21-.17-1.34-.35-2.68-.56-4a10.49,10.49,0,0,0-.47-2,8.53,8.53,0,0,0-.93-1.51A14.83,14.83,0,0,0,34.8,6.17,18.22,18.22,0,0,0,26.21,1a27,27,0,0,0-5.08-1A12.66,12.66,0,0,0,19,.21a19.48,19.48,0,0,0-4,.57,14.85,14.85,0,0,0-5.69,2.9,16.08,16.08,0,0,0-4.56,6A8.59,8.59,0,0,0,4,13.15,6.15,6.15,0,0,1,4,14.74a12.21,12.21,0,0,0-.42,3.5c0,1.29.15,2.57.22,3.86,0,.71.08,1.41.11,2.11.08,1.65.18,3.31.22,5,0,.82-.09,1.64-.1,2.46,0,1.48,0,2.95,0,4.42,0,.34.08.68.1,1a5.17,5.17,0,0,0,0,.88c.17.76-.15,1.19-.93,1.21-1,0-1.93.07-2.89.11-.31,0-.45.06-.24.43a1.54,1.54,0,0,1,.2,1,9.49,9.49,0,0,0-.1,2.81c0,.67.18.88.82.83,1.54-.1,3.07-.15,4.61-.24.46,0,.55.27.57.61s0,.87,0,1.31a1.94,1.94,0,0,1,0,.34c-.09.41.17.67.57.57a2.47,2.47,0,0,1,.53-.1c.74,0,1.48,0,2.22,0s1.63-.07,2.45-.11l2.72-.11c2.62-.08,5.24-.2,7.85-.21,2.91,0,5.82.06,8.73.1a1,1,0,0,1,.17,0c1.59.07,3.18.17,4.77.21a.89.89,0,0,0,.92-1.15,4.32,4.32,0,0,1-.07-1.48.5.5,0,0,1,.59-.43c1,0,2,0,2.94,0a3.75,3.75,0,0,0,2.25-.54C43.36,43.07,43.23,42.74,43.22,42.51Zm-39-24.3c0-1.09.23-2.17.35-3.25,0-.33.06-.65.08-1a10.7,10.7,0,0,1,.16-2.28A19.35,19.35,0,0,1,6.15,8.33a10.15,10.15,0,0,1,1.6-2.2,13.24,13.24,0,0,1,2.86-2.68A18.37,18.37,0,0,1,16.51,1C17.31.87,18.14.86,19,.78a7.09,7.09,0,0,0,.91-.12,11,11,0,0,1,3.38.23,16.8,16.8,0,0,1,4.57,1.28,22.3,22.3,0,0,1,3.4,1.75,11.65,11.65,0,0,1,2.17,1.72,21.2,21.2,0,0,1,2.08,2.53,4.76,4.76,0,0,1,.42,1.29c.19.62.44,1.22.59,1.85a23.63,23.63,0,0,1,.4,2.38c0,.46,0,.94,0,1.41,0,2.21,0,4.43.12,6.63,0,1.46.14,2.92.21,4.38.05.93.08,1.86.12,2.79.07,1.72.16,3.44.22,5.16,0,.64,0,1.28,0,1.91,0,1,.15,2,.22,3,0,.3,0,.51-.4.49-.7,0-1.4,0-2.1,0a.56.56,0,0,1-.56-.56c0-1.13,0-2.27,0-3.41,0-2.14-.06-4.28-.11-6.42-.06-2.4-.15-4.81-.22-7.21s-.16-4.92-.23-7.38c0-.28,0-.57,0-.85,0-.12,0-.24,0-.36l0,.28h0L34,12.39c-.09-.54-.31-1-.41-1.57l0,0a1.8,1.8,0,0,0-.17-.31,10.08,10.08,0,0,0-3.12-3.23A11.36,11.36,0,0,0,26.34,5a24.43,24.43,0,0,0-3.11-1.1,8.48,8.48,0,0,0-3.44-.12,10.71,10.71,0,0,1-1.5.12,13.55,13.55,0,0,0-4.18.77,8.7,8.7,0,0,0-3.85,2.41,9.14,9.14,0,0,0-2.15,3.36c-.29.87-.72,1.7-1,2.59a10.49,10.49,0,0,0-.45,2.35c-.13,1.87-.2,3.75-.23,5.62,0,1.36.09,2.71.11,4.06,0,.88.07,1.76.11,2.63A41.32,41.32,0,0,0,7,32.33a25.09,25.09,0,0,1,.26,5.47,2.59,2.59,0,0,1-.13.55.24.24,0,0,0,0,.22c.43.62-.1.45-.39.47l-1.54.12c-.33,0-.46-.09-.46-.44,0-1.92-.1-3.85-.1-5.78,0-1.74.11-3.49.09-5.24,0-1.4-.13-2.8-.21-4.2,0-.52-.08-1-.11-1.54C4.32,20.71,4.17,19.46,4.19,18.21Zm28.62,6.51c0-.95-.12-1.9-.1-2.84,0-2,.2-4.05.19-6.08a16.52,16.52,0,0,0-.46-3.26,4.29,4.29,0,0,0-.68-1.35,15.87,15.87,0,0,0-1.87-1.91,11.43,11.43,0,0,0-4-2.62,11.89,11.89,0,0,0-2.42-1.14,8.12,8.12,0,0,0-3.22-.22,5.18,5.18,0,0,1-1.36.11,9.5,9.5,0,0,0-3.83.88,20.81,20.81,0,0,0-2.39,1.34c-.71.75-1.36,1.43-2,2.13a8.35,8.35,0,0,0-1.58,3.3,7.63,7.63,0,0,0-.15,1.53,58.6,58.6,0,0,0-.33,8c.06,1.84.15,3.67.22,5.51,0,.84.08,1.68.11,2.52C9,31.83,9,33.1,9,34.37s.15,2.46.23,3.7c0,.13.13.29.09.4s.35.52-.14.57-.76,0-.74-.49.14-1.22.09-1.82c-.11-1.46-.29-2.91-.44-4.36V32.2c0-1.32-.05-2.65-.12-4-.08-1.5-.25-3-.32-4.5-.05-1.2,0-2.39,0-3.59,0-1,0-1.94,0-2.9a18.76,18.76,0,0,1,.79-4.82,13.06,13.06,0,0,1,.71-2.08,19.67,19.67,0,0,1,1.2-1.72,8.78,8.78,0,0,1,2-2.25A7.57,7.57,0,0,1,15.6,5c1.11-.2,2.25-.25,3.37-.36.4,0,.8-.1,1.2-.1s.61.09.92.08.83-.07,1.25-.09a3,3,0,0,1,1,0,20,20,0,0,1,4.61,2,13.17,13.17,0,0,1,4.94,4.17s0,.1,0,.1.23.26.34.38a.21.21,0,0,0,0,.08c.11.64.31,1.27.42,1.91,0,.21-.09.45-.09.68,0,1.74,0,3.48,0,5.21,0,1.05.18,2.09.21,3.13,0,1.49,0,3,0,4.46,0,2.23.15,4.46.21,6.69.06,1.89.08,3.78.12,5.67,0,.25,0,.51-.34.5s-.66,0-.68-.45c0-.78-.09-1.56-.11-2.33,0-1.08,0-2.17,0-3.25,0-.54-.1-1.08-.17-1.62a9.76,9.76,0,0,1,0-1.08C32.81,28.75,32.83,26.73,32.81,24.72ZM25.69,36c0-.23.1-.46.1-.69-.05-1.29-.13-2.59-.16-3.88,0-.11.19-.31.31-.31.49,0,1,0,1.47,0,1,0,2-.09,3.06-.11a5.2,5.2,0,0,1,1.31.13c.22.07.53.34.55.54.1.77.1,1.55.14,2.33v4.63c0,.22.11.57,0,.63a1.52,1.52,0,0,1-.81.22c-1.4,0-2.79-.06-4.19-.11a9.74,9.74,0,0,1-1.42-.13.53.53,0,0,1-.37-.37c0-.57.08-1.13.08-1.7C25.79,36.79,25.7,36.4,25.69,36Zm-.35-21.37c0-.44,0-.63.44-.63,1,0,1.93-.07,2.89-.11s2-.06,2.95-.11a.59.59,0,0,1,.63.59c0,1.37.11,2.74.09,4.11,0,1-.13,2-.21,3a.56.56,0,0,1-.55.53c-1.36,0-2.72.06-4.08.11q-.8,0-1.59.12c-.44,0-.59-.1-.58-.56C25.35,19.38,25.34,17,25.34,14.65Zm0-6.41c0-1.09.15-1.18,1.13-.72A13.81,13.81,0,0,1,29.79,10a20,20,0,0,1,1.61,1.85c.26.29.79,1,.72,1.32,0,0-.15.09-.23.09-1.32.07-2.64.14-4,.19-.74,0-1.47,0-2.21,0-.09,0-.25-.24-.26-.38,0-.49,0-1,0-1.47C25.42,10.48,25.36,9.36,25.34,8.24Zm.4,14.63c1.05-.06,2.11-.09,3.16-.13l2.61-.11c1,0,.71.15.73.78,0,.32,0,.65,0,1,0,1.93,0,3.74,0,5.54,0,.4-.11.64-.56.64-.89,0-1.78,0-2.67,0s-1.86.06-2.78.11c-.39,0-.69-.4-.69-.81,0-.95-.06-1.9-.08-2.86,0-.77,0-1.55,0-2.33,0-.47-.1-1-.09-1.42A.42.42,0,0,1,25.74,22.87Zm-10-9.68a.59.59,0,0,1-.5.48c-1.24.11-2.49.17-3.74.24h-.06c-1.12.13-1.12.13-.77-.94.23-.66.44-1.33.68-2a4.54,4.54,0,0,1,.63-1.14A12.16,12.16,0,0,1,15.2,7.13c.27-.16.51-.21.52.26,0,.74.1,1.48.1,2.22s-.07,1.32-.1,2A11.76,11.76,0,0,1,15.69,13.19Zm-4.8,1.38a15.8,15.8,0,0,0,2-.2c.85,0,1.59-.07,2.33-.12a.41.41,0,0,1,.45.43c0,1.09,0,2.17,0,3.26s.09,2.42.11,3.63.18.95-1,.94c-.74,0-1.48-.08-2.21-.1s-1.66,0-2.49,0c-.52,0-.63-.29-.62-.69,0-1,0-2.08.12-3.12s.21-2.17.34-3.25C10,14.8,10.26,14.55,10.89,14.57Zm0,8.4c1.11,0,2.22,0,3.33,0a7,7,0,0,1,1.3.12c.12,0,.26.28.27.43,0,.75,0,1.51,0,2.26a3.18,3.18,0,0,0,.1.52c0,1.13.07,2.15.12,3.17,0,.82-.09.95-.91,1l-3.79.12a1.24,1.24,0,0,0-.27,0c-.81.23-1,.07-1-.77-.09-1.85-.2-3.7-.34-5.54A1.19,1.19,0,0,1,10.92,23Zm-.22,8.25c1.53,0,3.07-.15,4.6-.21.77,0,.93.22.75,1a4.65,4.65,0,0,0,0,.65c0,.34-.1.68-.09,1,0,1.59,0,3.85,0,5.44a.3.3,0,0,0,0,.15c-1.61,0-3.22-.12-4.82-.23a.86.86,0,0,1-.55-.59c-.13-1.36-.17-2.73-.26-4.1-.05-.83-.14-1.67-.22-2.51C10.13,31.42,10.21,31.23,10.7,31.22ZM16.29,10c0-1,.06-2,.12-3,0-.16.17-.43.3-.46a36.93,36.93,0,0,1,4.65-.76,5,5,0,0,1,3.13.72.75.75,0,0,1,.37.84,9.65,9.65,0,0,0-.09,1.07c0,1.58.08,3.15.1,4.73,0,.09-.18.26-.3.28a6.61,6.61,0,0,1-1.08.12c-.54,0-1.07,0-1.61,0H17.19c-.82,0-1.09-.4-.79-1.18C16.36,11.52,16.29,10.76,16.29,10Zm.48,4.13c1,0,2-.09,3.06-.09.82,0,1.63.09,2.44.09s1.6-.06,2.39-.1c.27,0,.36,0,.3.35a17.31,17.31,0,0,0-.11,2c0,.23-.07.45-.07.68,0,1.49,0,3,0,4.47,0,.5-.12.75-.61.8a2.06,2.06,0,0,1-.26,0c-2.35,0-4.69.07-7,.12a.48.48,0,0,1-.5-.54c0-.33,0-.66,0-1,0-1.1-.09-2.09-.11-3.09,0-.22.11-.46.1-.68,0-.86-.06-1.71-.11-2.56C16.25,14.28,16.36,14.13,16.77,14.13ZM25,30.05a.49.49,0,0,1-.5.51c-1.64,0-3.29,0-4.93,0q-1.27,0-2.55-.12a.57.57,0,0,1-.39-.36c-.07-1-.09-2.05-.13-3.07s-.05-2.23-.12-3.34c0-.5.16-.61.61-.59.62,0,1.24,0,1.86,0l5-.11a1.83,1.83,0,0,0,.32-.07c.47-.13.58,0,.57.52,0,.7.06,1.4.1,2.1v.34C24.92,27.33,25,28.69,25,30.05Zm-8.49,5.32c0-1.35.06-2.69.12-4,0-.14.29-.29.44-.29,1.27.06,2.71-.05,4.72.08,2.66.17,3.36,0,3.31.61v4.93c0,.59,0,1.18,0,1.77s-.16.73-.7.73q-3,0-6,0c-.65,0-1.3.11-2,.1a.42.42,0,0,0,0-.15C16.49,38.08,16.51,36.39,16.52,35.37Zm18.15,10c-1.9,0-3.79,0-5.68,0-2.55,0-5.1-.1-7.65-.1-1.95,0-3.89.07-5.84.1l-7,.12c-.36,0-.72.07-1.09.11s-.71-.12-.67-.63c0-.17,0-.35,0-.5s.2-.32.32-.33c.81-.06,1.62-.09,2.44-.12.55,0,1,.09,1.42.1s.92,0,1.38,0S13.45,44,14,44c1.17,0,2.35.12,3.52.1,2.57,0,5.14-.17,7.72-.21,1.64,0,3.29.13,4.93.09s3-.23,4.5-.32c.7,0,1,.2,1,.73A.87.87,0,0,1,34.67,45.38Zm7.51-3a.8.8,0,0,1-.62.41c-1.42,0-2.84-.06-4.26-.09-.19,0-.38,0-.56,0-3.05,0-6.09,0-9.13,0-2.46,0-4.91.09-7.37.11H13.92c-1.08,0-2.15-.09-3.23-.11-1.41,0-2.81-.05-4.21,0s-2.93.22-4.4.35a5.35,5.35,0,0,0-.87.17c-.29.08-.37,0-.44-.29a5.37,5.37,0,0,1,.17-2.39A1.7,1.7,0,0,0,1,40.21c0-.34,0-.61.48-.38a.41.41,0,0,0,.22,0,7.32,7.32,0,0,1,.8-.11c2.38-.08,4.77-.19,7.15-.22,1.44,0,2.88.05,4.31.11.69,0,1.37.17,2.06.21.38,0,.76-.1,1.14-.1,1.44,0,2.88,0,4.32,0q6.69.09,13.37.22c.72,0,1.43.09,2.14.11a4.61,4.61,0,0,1,.91-.1,4.57,4.57,0,0,0,2.38-.06c1.26-.42,1.8-.15,1.81,1.13A4.06,4.06,0,0,1,42.18,42.35Z"/></g></g></svg>