<svg xmlns="http://www.w3.org/2000/svg" viewBox="0 0 24.85 43.71"><defs><style>.cls-1{fill:#56acb2;}.cls-2{fill:#ffe0ae;}</style></defs><g id="Layer_2" data-name="Layer 2"><g id="heritage-window-4-front"><path id="fill3" class="cls-1" d="M11.32,11.89a1.92,1.92,0,0,1-.53.17c-1.74,0-3.48,0-5.21,0-.51,0-.5-.28-.41-.54.46-1.39.71-2.87,2-3.85C8.2,8.77,10,10.44,11,11.46A4.7,4.7,0,0,1,11.32,11.89Zm2.43-7.36a9.54,9.54,0,0,0-2.8.29,4.43,4.43,0,0,0-2.83,1.6c-.18.25-.33.54-.51.79a13.17,13.17,0,0,1,1.18,1c1,1,1.91,1.89,2.82,2.87.43.47.71.5,1.12,0,1.33-1.62,2.7-3.22,4-5A4.16,4.16,0,0,0,13.75,4.53ZM18.32,7c-.35-.43-.84-.58-1.24-.13-.56.64-1,1.37-1.58,2-.74.91-1.51,1.81-2.28,2.7a2,2,0,0,1-.33.24c.15.07.3.21.45.21.61,0,1.21-.12,1.82-.14,1.14,0,2.27,0,3.56,0a2.84,2.84,0,0,0,1,0c.25-.1.58-.43.56-.64A7.43,7.43,0,0,0,18.32,7ZM20.5,30.15c0-1.52.13-3,.11-4.57,0-1.24-.21-2.5-.25-3.74s0-2.44,0-3.66c0-.3.12-.61.1-.92s0-1-.24-1.17a1,1,0,0,0-1.27.23,1.26,1.26,0,0,1-.83.28c-.69,0-1.39,0-2.09,0h-.7c.21,3.22-.11,7.86-.22,11.08-.1,2.75.08,5.5.1,8.26,0,.92-.15,1.83-.19,2.75a.65.65,0,0,0,.34.45c1.44,0,2.88.05,4.32,0a1,1,0,0,0,.74-.62,22.83,22.83,0,0,0,.21-3.2C20.64,33.6,20.51,31.88,20.5,30.15ZM14.63,16.62l-5,.08c0,1.42-.14,3.9-.14,5.29,0,2.55-.06,5.11,0,7.68,0,2.26.16,4.54.22,6.81,0,.61-.08,1.22-.06,1.83,0,.18.25.53.4.54,1.27.09,2.54.15,3.8.15a.78.78,0,0,0,.6-.54,12.69,12.69,0,0,0,.11-2.05c0-1.49,0-3,0-4.48,0-2.73,0-5.46,0-8.2C14.5,21.84,14.61,18.51,14.63,16.62Zm-5.7,21-.12-3.43c-.06-1.61-.14-3.22-.15-4.83,0-1.24.14-2.48.15-3.73,0-1.93,0-3.86,0-5.79,0-.59.06-2.38.1-3.15l-3,.05s-.12,0-.15,0c-.24.23-.66.45-.68.71-.15,1.77-.23,3.56-.29,5.34-.07,1.62-.16,3.24-.13,4.87.07,3.41.21,6.82.37,10.22a1,1,0,0,0,.62.63,15.92,15.92,0,0,0,2.28.18C8.84,38.74,9,38.59,8.93,37.64Z"/><path id="fill2" class="cls-2" d="M23.65,16.68c0-1.21.07-2.43,0-3.64a14.8,14.8,0,0,0-1.75-6.71,11.57,11.57,0,0,0-1.47-1.68A14.93,14.93,0,0,0,16,1.41a7.06,7.06,0,0,0-2-.54,9.74,9.74,0,0,0-5,.31,14.77,14.77,0,0,0-5.22,3.1A11.28,11.28,0,0,0,1,8.78a5.74,5.74,0,0,0-.29,2c0,1.61,0,3.21,0,4.82,0,1.24,0,2.47,0,3.72,0,2.15,0,4.29.07,6.45a29.41,29.41,0,0,1,.09,3.38,80.18,80.18,0,0,0,0,9c0,1,0,2.85,0,4.07a1.94,1.94,0,0,1,.85-.09,13.2,13.2,0,0,0,1.53.15c1.37.07,2.74.1,4.11.16.87,0,1.75.12,2.62.15.64,0,1.28,0,1.92,0,3.29,0,6.58,0,9.87,0,.44,0,1,.05,1.26-.19a1.81,1.81,0,0,0,.5-1.25c0-2,0-3.95,0-5.92,0-1.52,0-3,0-4.56,0-1.87.07-3.74.1-5.62,0-1.35,0-2.69,0-4Zm-.8,11.84c0,1.19,0,2.38,0,3.57q0,3.51-.06,7a6.17,6.17,0,0,1-.11,1.3c-.21.82-.92,1.12-1.87,1.07s-2.19,0-3.29,0h-.6c-2.4,0-4.8,0-7.2,0-1.69,0-3.39-.09-5.08-.16-.64,0-1.28-.08-1.92-.15A1.14,1.14,0,0,1,2.33,41l0,.06c-.13-.22-.37-.46-.36-.68.05-1.75.13-4.49.21-6.25,0-.56,0-1.12-.05-1.69C2,31.2,2,30,2,28.76q0-3.2.08-6.39c0-1.09.18-2.18.16-3.28,0-1.27-.2-2.53-.26-3.8a16.22,16.22,0,0,1,.4-6,9.11,9.11,0,0,1,1.3-2.88A17.93,17.93,0,0,1,6.81,3.72,8.75,8.75,0,0,1,12,2.13a10.71,10.71,0,0,1,9.42,5.29,13.91,13.91,0,0,1,.76,1.88c.21,1.35.4,2.66.55,4a1.13,1.13,0,0,1-.06.57.31.31,0,0,1,0,.13c0,2.28.16,5.74.18,8,0,.61-.07,1.21-.08,1.82C22.83,25.38,22.86,27,22.85,28.52Zm-.69-6.94c0-1.53,0-3.06,0-4.59,0-.55,0-2.06,0-2.79a1,1,0,0,1-.24,0c-1.5-.08-3-.16-4.49-.16-2.25,0-4.49.12-6.74.14-1.07,0-2.14-.09-3.2-.09-1.49,0-3,.05-4.47.12-.18,0-.45.34-.46.53,0,.79.05,1.59.06,2.38q.06,3.63.11,7.28,0,4.79,0,9.57c0,1.82,0,4.64-.09,6.46a.28.28,0,0,1,0,.15l0,0a6.42,6.42,0,0,1,1.44-.16c1.47,0,2.94.09,4.45.18,1.76.06,3.47.1,5.18.11,2,0,4.06,0,6.09,0a7,7,0,0,0,1.66-.18.86.86,0,0,0,.54-.6,10.11,10.11,0,0,0,.11-1.83c0-1.92-.05-3.85,0-5.77s.07-4,.08-5.92C22.18,24.78,22.16,23.18,22.16,21.58ZM21.35,33.4c0,1.68,0,3.36-.14,5-.08,1.25-.49,1.59-2.08,1.51-.77,0-1.53-.12-2.3-.14-1,0-1.92,0-2.87,0-1.38-.06-2.75-.19-4.21-.29l-5-.3a1.07,1.07,0,0,1-1.06-1.1c-.14-3.12-.26-6.22-.33-9.32,0-1.73.09-3.45.11-5.18,0-2.36,0-4.71.06-7.07,0-1.11.52-1.58,1.67-1.56s2.52.14,3.78.14c1.75,0,3.5-.15,5.26-.13,2,0,3.93.19,5.89.29a1.55,1.55,0,0,1,1.13,1.38,7.45,7.45,0,0,0-.11,1.14c.06,3.65.15,7.28.22,10.92C21.37,30.26,21.37,31.84,21.35,33.4ZM22,11.65A8.5,8.5,0,0,0,20.28,6.9a9.34,9.34,0,0,0-4.74-3.48,9.61,9.61,0,0,0-5-.44c-.34.09-.67.19-1,.27C7.45,3.74,6,5.12,4.56,6.52a5.11,5.11,0,0,0-.87,1.2,12.62,12.62,0,0,0-1.23,4.8c-.07.58,0,1,.83.94,3.43-.08,6.87,0,10.31,0h6.66A3.79,3.79,0,0,0,22,13.22C22.26,13.08,22,12.2,22,11.65Zm-2.47,1c-2.9,0-5.81,0-8.7,0-1.57,0-3.14.11-4.71.13a7.82,7.82,0,0,1-1.52-.14c-.67-.13-1-.81-.75-1.62A13.12,13.12,0,0,1,6.22,6.41a7.24,7.24,0,0,1,5.16-2.52l1.22-.15a7.79,7.79,0,0,1,4.85,1.79A7.37,7.37,0,0,1,20.4,8.89,12,12,0,0,1,21,11.61C21.11,12.27,20.44,12.67,19.49,12.67Z"/><path id="fill1" d="M21.12,17.78a7.34,7.34,0,0,1,.11-1.15,1.56,1.56,0,0,0-1.13-1.38c-2-.11-3.93-.26-5.89-.29-1.76,0-3.51.12-5.26.13-1.26,0-2.52-.11-3.78-.14s-1.65.45-1.66,1.57c0,2.35,0,4.71-.07,7.06,0,1.73-.14,3.45-.1,5.18.06,3.1.18,6.21.32,9.31a1.07,1.07,0,0,0,1.06,1.11l5,.3c1.45.1,2.83.23,4.2.3,1,0,1.92,0,2.88,0,.77,0,1.53.11,2.29.14,1.6.07,2-.26,2.09-1.51.11-1.66.12-3.34.14-5s0-3.14,0-4.71C21.28,25.05,21.19,21.42,21.12,17.78ZM7.94,38.72a15.83,15.83,0,0,1-2.29-.18A1,1,0,0,1,5,37.91c-.16-3.41-.29-6.81-.37-10.22,0-1.63.06-3.25.13-4.87.07-1.78.14-3.57.29-5.34,0-.26.44-.48.68-.71,0,0,.1,0,.15,0l3-.05c0,.76-.11,2.56-.1,3.15,0,1.93.06,3.86,0,5.79,0,1.25-.16,2.49-.15,3.74,0,1.6.1,3.21.15,4.82l.12,3.43C9,38.59,8.84,38.74,7.94,38.72Zm6.55-6.79c0,1.5,0,3,0,4.48a15.7,15.7,0,0,1-.1,2.06.84.84,0,0,1-.61.53c-1.26,0-2.53-.06-3.8-.15-.15,0-.39-.35-.4-.54,0-.61.08-1.22.06-1.83-.06-2.27-.19-4.55-.22-6.82,0-2.56,0-5.11,0-7.67,0-1.39.14-3.87.14-5.29l5-.08c0,1.89-.13,5.21-.13,7.11C14.51,26.46,14.49,29.2,14.49,31.93Zm6,6.6a1,1,0,0,1-.75.62c-1.43.06-2.87,0-4.31,0-.12,0-.34-.3-.34-.44,0-.92.19-1.84.18-2.76,0-2.75-.19-5.52-.09-8.26.11-3.22.43-7.86.23-11.09h0c.92,0,1.85,0,2.77,0a1.29,1.29,0,0,0,.84-.28,1,1,0,0,1,1.27-.22c.23.16.21.76.24,1.16s-.1.62-.1.93c0,1.21-.06,2.43,0,3.64s.24,2.5.25,3.75c0,1.53-.12,3.05-.11,4.57,0,1.72.14,3.45.15,5.18A22.83,22.83,0,0,1,20.44,38.53Zm4.32-3c0-2.83,0-5.67,0-8.5,0-.26-.17-.52-.16-.77,0-1.33.12-2.65.15-4s0-2.83,0-4.25c-.05-2.21-.12-4.41-.23-6.62a7.91,7.91,0,0,0-.37-1.84c-.6-1.94-1.26-3.86-2.95-5.21a5.2,5.2,0,0,1-.65-.48A11.14,11.14,0,0,0,14.84.38,10.91,10.91,0,0,0,9.55.28,13.77,13.77,0,0,0,2,5.23a9.26,9.26,0,0,0-1.91,5C0,12.1,0,14,0,15.81c0,.79.07,1.58.07,2.38,0,1.46,0,2.93,0,4.4,0,.65,0,1.3.07,1.95a13.43,13.43,0,0,1,.2,2.08,70.73,70.73,0,0,0-.23,10.5A18.29,18.29,0,0,1,0,39c0,.88.06,3,.13,3.77a.11.11,0,0,0,0,.06v0c-.08.62,1.09.5,1.43.54.51,0,1,.13,1.53.15,1.67.06,3.35.15,5,.14,4,0,8.08-.09,12.12-.14,1.1,0,2.19,0,3.28,0a1.16,1.16,0,0,0,1.29-1.34C24.81,40,24.77,37.76,24.76,35.52ZM23.65,21.09c0,1.34,0,2.69,0,4,0,1.87-.08,3.75-.1,5.63,0,1.51,0,3,0,4.55,0,2,.07,4,0,5.92a1.77,1.77,0,0,1-.5,1.25c-.27.24-.83.18-1.26.19-3.29,0-6.58,0-9.87,0-.64,0-1.28,0-1.92,0-.87,0-1.75-.11-2.62-.15-1.37-.06-2.74-.09-4.11-.15-.51,0-1-.08-1.53-.16a1.94,1.94,0,0,0-.85.09c0-1.22,0-3.11,0-4.07a77.9,77.9,0,0,1,0-9A29.47,29.47,0,0,0,.8,25.8Q.74,22.57.73,19.35c0-1.24,0-2.48,0-3.72,0-1.61,0-3.21,0-4.81A6.36,6.36,0,0,1,1,8.77a11.56,11.56,0,0,1,2.72-4.5A15.14,15.14,0,0,1,9,1.18a9.74,9.74,0,0,1,5-.31,7,7,0,0,1,2,.54,14.93,14.93,0,0,1,4.45,3.24,11.57,11.57,0,0,1,1.47,1.68A14.93,14.93,0,0,1,23.66,13c.07,1.21,0,2.43,0,3.65ZM22.74,14a.31.31,0,0,0,0-.13,1.1,1.1,0,0,0,.06-.56c-.15-1.32-.34-2.63-.55-4a13.91,13.91,0,0,0-.76-1.88,10.71,10.71,0,0,0-9.41-5.29A8.83,8.83,0,0,0,6.81,3.72,17.93,17.93,0,0,0,3.65,6.43,8.87,8.87,0,0,0,2.36,9.31a16,16,0,0,0-.41,6c.06,1.27.24,2.53.26,3.8,0,1.1-.14,2.19-.16,3.28Q2,25.57,2,28.76C2,30,2,31.2,2.09,32.42c0,.56.07,1.13.05,1.69-.07,1.76-.16,4.49-.21,6.25,0,.22.23.46.36.69a.43.43,0,0,1,0-.07,1,1,0,0,0,.36.16c.64.07,1.28.13,1.91.15,1.7.07,3.4.14,5.09.15,2.4,0,4.8,0,7.2,0h.6c1.09,0,2.19-.06,3.29,0,.95,0,1.66-.26,1.87-1.07a5.57,5.57,0,0,0,.11-1.3q0-3.49.06-7c0-1.19,0-2.38,0-3.57,0-1.57,0-3.14,0-4.7,0-.62.09-1.22.08-1.83C22.91,19.71,22.79,16.25,22.74,14ZM2.46,12.52A12.52,12.52,0,0,1,3.69,7.73a5.25,5.25,0,0,1,.87-1.21c1.44-1.4,2.89-2.78,5-3.27l1-.27a9.82,9.82,0,0,1,5,.43A9.42,9.42,0,0,1,20.28,6.9,8.59,8.59,0,0,1,22,11.65c0,.54.29,1.43.07,1.57a3.67,3.67,0,0,1-1.78.2c-2.22,0-4.44,0-6.66,0-3.44,0-6.88,0-10.31,0C2.42,13.48,2.39,13.1,2.46,12.52ZM22.17,26.38c0,2-.08,4-.09,5.93s0,3.85,0,5.77A11.18,11.18,0,0,1,22,39.91a.9.9,0,0,1-.53.61,7.76,7.76,0,0,1-1.67.17q-3,0-6.08,0c-1.72,0-3.43,0-5.19-.11-1.51-.09-3-.16-4.45-.18a6.36,6.36,0,0,0-1.44.16l0,0a.42.42,0,0,0,0-.15c.07-1.83.08-4.64.09-6.46q0-4.78,0-9.57c0-2.43-.06-4.86-.1-7.28,0-.79-.08-1.59-.06-2.37,0-.2.28-.53.45-.54,1.49-.07,3-.11,4.48-.12,1.07,0,2.13.1,3.2.09,2.25,0,4.49-.12,6.74-.13,1.5,0,3,.06,4.49.15h.24c0,.73,0,2.24,0,2.79,0,1.53,0,3.06,0,4.58S22.18,24.78,22.17,26.38ZM4.56,12.67a8.72,8.72,0,0,0,1.53.15c1.56,0,3.13-.13,4.7-.14,2.9,0,5.8,0,8.7,0,1,0,1.62-.41,1.54-1.06a12,12,0,0,0-.63-2.72,7.43,7.43,0,0,0-2.95-3.36A7.79,7.79,0,0,0,12.6,3.74l-1.22.15A7.22,7.22,0,0,0,6.22,6.41a13.12,13.12,0,0,0-2.41,4.64C3.57,11.86,3.89,12.54,4.56,12.67ZM18.32,7a7.43,7.43,0,0,1,1.93,4.23c0,.22-.31.55-.56.65a2.84,2.84,0,0,1-1,0c-1.29,0-2.43,0-3.56,0-.61,0-1.21.11-1.82.14-.15,0-.3-.14-.45-.21a2,2,0,0,0,.33-.24c.76-.89,1.54-1.79,2.28-2.7.55-.66,1-1.39,1.58-2C17.48,6.43,18,6.58,18.32,7ZM11,4.82a9.53,9.53,0,0,1,2.81-.29,4.12,4.12,0,0,1,3,1.56c-1.35,1.76-2.71,3.36-4,5-.4.49-.69.46-1.12,0-.91-1-1.87-1.93-2.81-2.88-.14-.13-.81-.71-1.19-1,.18-.25.33-.54.51-.79A4.43,4.43,0,0,1,11,4.82ZM5.17,11.53c.47-1.38.72-2.87,2-3.84C8.2,8.77,10,10.44,11,11.47c.12.13.22.28.34.42a1.82,1.82,0,0,1-.53.17c-1.74,0-3.48,0-5.21,0C5.07,12.09,5.08,11.8,5.17,11.53Z"/></g></g></svg>