<svg xmlns="http://www.w3.org/2000/svg" viewBox="0 0 34.55 44.82"><defs><style>.cls-1{fill:#56acb2;}.cls-2{fill:#ffe0ae;}</style></defs><g id="Layer_2" data-name="Layer 2"><g id="heritage-window-5-front"><path id="fill3" class="cls-1" d="M29.15,39.55a1.61,1.61,0,0,0,.1.53,1.71,1.71,0,0,0-.66-.24c-1.52-.08-3-.15-4.56-.14a.71.71,0,0,1-.82-.69c-.13-1-.26-2.09-.3-3.14a23.61,23.61,0,0,1,.14-2.51c0-.09,0-.19,0-.29a25.24,25.24,0,0,0,.22-4c-.06-.75.24-.65.64-.62,1.44.08,2.89.2,4.34.29.86.06,1.15.34,1.13,1.22C29.36,32.87,29.19,36.68,29.15,39.55ZM21.78,28.62c-.78,0-1.56,0-2.35,0s-1.47-.13-2.2-.13c-.22,0-.61.25-.62.4-.07,1.18-.06,2.35-.07,3.53,0,.4,0,.81,0,1.21,0,1.9,0,3.81,0,5.71,0,.31.29.65.82.34.81,0,1.61,0,2.42,0a9.47,9.47,0,0,1,1.9-.12c.67.12.78-.14.75-.66,0-.31-.14-.62-.14-.92,0-1.95.07-3.9.16-5.85,0-.78.24-1.57.27-2.37C22.78,28.62,22.87,28.59,21.78,28.62Zm-6.54,0c-1.29,0-2.58,0-3.86,0a3.33,3.33,0,0,0-1.23.15c-.12.06,0,.64,0,1,0,3.19,0,6.36.08,9.62,0,0,.07.09.11.1,1.57.12,3.15.26,4.72.33.38,0,.78-.18.7-.72A7.55,7.55,0,0,1,15.64,38q0-3.15.14-6.3a18.9,18.9,0,0,1,.16-2.13C16.08,28.62,16.11,28.62,15.24,28.62ZM9.42,34.46c0-1.67-.11-3.34,0-5,.08-.87-.21-.87-.86-.86-1.31,0-2.62,0-3.93,0-.55,0-.74.15-.71.72.07,1.92.1,3.84.16,5.75,0,1,.06,2,.17,3,0,.37-.1,1,.53,1,1.4.16,2.8.32,4.2.44a.41.41,0,0,0,.35-.18,3.59,3.59,0,0,0,.19-1.06C9.54,37.05,9.47,35.82,9.42,34.46ZM28.51,13.79a10.22,10.22,0,0,0-2.7-5.66s0,0,0,0c-.58.63-1.93,1.73-2.57,2.29-.31.27-1.08.89-1.52,1.2a8.15,8.15,0,0,1,1.41,2.16,6.6,6.6,0,0,1,.51,1.9c.06.46.27.51.64.51,1.36,0,2.72,0,4.09,0a2,2,0,0,1,.52.06C28.73,15.48,28.59,14.26,28.51,13.79ZM29.26,27c-.05-1.07-.11-2.13-.15-3.2-.06-2-.1-4-.16-6.06a1.13,1.13,0,0,0,0-.45.65.65,0,0,0-.36-.35,4.9,4.9,0,0,0-1.14-.16c-1.21,0-2.42-.06-3.62-.07-.07,0-.19.16-.19.25.05,1.95.17,3.89.16,5.82,0,1.3-.2,2.59-.28,3.89a2.32,2.32,0,0,0,.13,1.15c.07.13.63,0,1,0h.07L28,28a3,3,0,0,1,.77.17,2.51,2.51,0,0,1,.53.34,6.88,6.88,0,0,0,.13-.77A1.9,1.9,0,0,0,29.26,27ZM23,19.12A5.23,5.23,0,0,1,23,17.77c.21-.69-.23-.89-.65-.94-1-.12-2-.12-3-.17a13.42,13.42,0,0,0-1.89-.12.94.94,0,0,0-.65.65c-.11,1.91-.13,3.83-.18,5.91.05,1.26.13,2.52.14,3.79,0,1,0,1,.94,1h4.46c.45,0,.66-.08.68-.61,0-1.27.23-2.53.28-3.8C23.09,22,23.06,20.57,23,19.12Zm-7.71-2.61H10.46c0,1.6-.14,4.27-.14,5.84s0,3.27,0,4.91c0,.61.32.82.93.67a2.86,2.86,0,0,1,.58-.06c1.14,0,2.27,0,3.4,0,.53,0,.74-.14.7-.68-.08-1-.16-2.07-.15-3.11,0-1.36.08-2.72.15-4.07,0-.87.06-1.73.15-2.59S16.07,16.52,15.33,16.51Zm-5.4,0H8.62c-1.34,0-2.69,0-4,0A.81.81,0,0,0,4,17.1c-.15,1.69-.31,3.39-.31,5.09s.17,3.5.31,5.25c0,.15.38.4.58.41,1.47,0,2.93,0,4.39,0,.54,0,.78-.22.76-.76-.06-1-.15-2.08-.14-3.11,0-2.13.08-4.25.15-6.37A10.63,10.63,0,0,1,9.93,16.5ZM22,13.2q-.36-.48-.75-.93c-.52.53-1.56,1.42-1.93,1.83a15.34,15.34,0,0,0-1.17,1.49.59.59,0,0,0,.1.44c1.42.08,2.84.14,4.25.15.13,0,.4-.3.36-.4A7.63,7.63,0,0,0,22,13.2Zm-3.52-2.92A4.18,4.18,0,0,0,16.78,10c0,1.55,0,4.55,0,6,.26.17.5.12.59-.58l0,0c.86-1,2.42-2.5,3.37-3.52A6.78,6.78,0,0,0,18.49,10.28Zm-2.4.84c0-.12,0-.62.09-1a5.24,5.24,0,0,0-1.17.36,9.68,9.68,0,0,0-1.88,1.38c-.05.16-.19.4-.13.45,1.05,1.07,2.13,2.13,3.22,3.17C16.17,14.1,16.12,12.11,16.09,11.12Zm-3.72,1.62a.52.52,0,0,0-.37-.05c-.32.83-.56,1.69-.94,2.49s0,.71.52.73c1.21,0,2.43.1,3.64.13.11,0,.23-.19.26-.36C14.44,14.69,13.42,13.71,12.37,12.74Zm-.79-.94c-1-1.13-2-2.24-3-3.36-.44-.48-.78-.3-1.1.11a11.15,11.15,0,0,0-.9,1.37c-.68,1.3-1.32,2.62-2,3.94,0,.08,0,.2-.08.38-.07.34-.16.69-.22,1s0,.67.55.65c1.51-.05,3,0,4.53,0a.74.74,0,0,0,.85-.6,8.47,8.47,0,0,1,1.31-2.68C11.88,12.2,11.77,12,11.58,11.8ZM22.77,6.22c-1-.45-2-.79-3-1.23a5,5,0,0,0-2.88-.46l-.17,0c0,.77-.09,2.49-.06,3.24.06,1.36.23,1.32,1.22,1.59a7.87,7.87,0,0,1,3.47,1.93c.29-.34.87-1,1.08-1.17.39-.38.8-.75,1.23-1.17s1.3-1.08,1.6-1.32A11.44,11.44,0,0,0,22.77,6.22ZM16.17,4.6c-.56,0-1.13,0-1.67.1a10.53,10.53,0,0,0-4.09,1.66c-.34.21-.67.45-1,.69-.77.56-.75.55-.15,1.21.85.93,1.67,1.88,2.52,2.82.33.37.66.59,1.11.06a5.24,5.24,0,0,1,2.67-1.78c.33-.08.67-.22.56-.86A23.17,23.17,0,0,1,16.17,4.6Z"/><path id="fill2" class="cls-2" d="M33.34,43.73a6.76,6.76,0,0,1-.42-1.63c0-1.45.23-2.9.26-4.35s-.12-2.68-.13-4c0-1.11.16-2.21.13-3.3,0-2-.19-4.05-.29-6.09-.06-1.44-.14-2.88-.14-4.32a19.56,19.56,0,0,0-1.05-6.69C31,11.49,30.7,9.54,29.26,8a18.48,18.48,0,0,0-1.35-1.78c-.64-.65-1.4-1.16-2.05-1.78a13.57,13.57,0,0,0-5.05-3,12.78,12.78,0,0,0-6.44-.5A14.2,14.2,0,0,0,8.67,3,19.46,19.46,0,0,0,5.23,5.85,29.83,29.83,0,0,0,2.68,9.54a9.51,9.51,0,0,0-1.42,4.18,39.11,39.11,0,0,0-.17,4.2Q1,24.78.94,31.64c0,1.34,0,2.67,0,4C.9,37.71.79,39.75.8,41.8c0,1.2.52,1.53,1.73,1.36A11.74,11.74,0,0,1,4.08,43c2.67,0,5.32.1,8,.14h.16c2,.05,4.07.15,6.11.14,2.92,0,5.83-.11,8.75-.13,1.4,0,2.81.12,4.21.13a2.07,2.07,0,0,1,1.77.68c.06.09.2.11.31.15A1.76,1.76,0,0,0,33.34,43.73Zm-2.23-1.51c-1.19.08-3.07.18-4.26.17-2.59,0-5.18,0-7.77-.15-2.16-.09-4.32-.3-6.47-.43-1-.08-2.09-.13-3.12-.16-2.25-.06-4.5-.12-6.76-.15a1,1,0,0,1-1-1c-.08-1-.12-2-.16-3-.05-1.53-.14-3.06-.14-4.58s.1-3.25.14-4.87c.06-2.23.1-4.46.16-6.7a36,36,0,0,1,.19-4.88c.31-2,.32-4,1.4-5.84a17.56,17.56,0,0,1,6-6.47,18.23,18.23,0,0,1,3.84-1.88,15.15,15.15,0,0,1,5.69-.31c2.58.2,4.42,1.87,6.38,3.24A12.89,12.89,0,0,1,30.76,14a44.16,44.16,0,0,1,.6,4.74c.13,2.9.13,5.81.17,8.72q.09,6.59.14,13.19a11.32,11.32,0,0,1,0,1.25.7.7,0,0,1,.14.08A3.13,3.13,0,0,1,31.11,42.22Zm-.17-4.16c0-.61.14-1.22.13-1.83C31,31,31,25.82,30.9,20.62c0-1.69-.44-3.36-.56-5.05a15.09,15.09,0,0,0-1.71-5.81c0-.09-.14-.15-.24-.26a11.32,11.32,0,0,0-4.26-4.34,15.45,15.45,0,0,0-4-2.28,12.31,12.31,0,0,0-5.43-.3c-4.29.78-7.4,3.26-9.86,6.76a19.33,19.33,0,0,0-2,3.74,1.48,1.48,0,0,0-.14.32c-.16,2.18-.39,4.37-.44,6.54-.11,4.52-.14,9-.17,13.53,0,1.9.09,3.81.16,5.71a5.75,5.75,0,0,0,.15,1.23c.1.44.45.5.86.49,1.15,0,2.29,0,3.43,0s2.38,0,3.57,0c2.38.12,4.77.29,7.15.45.79,0,1.58.13,2.37.14,2.58.07,5.15.11,7.73.15.79,0,2.28,0,3.06,0a1.7,1.7,0,0,1,.39,0c0-.56.05-1.69.05-2C31.05,39.13,30.93,38.6,30.94,38.06Zm-1.05,2.19c0,.12-.08.33-.13.33a.48.48,0,0,1-.26,0,1.08,1.08,0,0,1-.33.18c-.11,0-.26-.11-.39-.12-1.37-.05-2.74-.09-4.1-.16-.72,0-1.43-.14-2.14-.14-2.55,0-5.1.12-7.66.13-1,0-2.08-.09-3.19-.13-2-.11-4-.19-5.93-.32a13.12,13.12,0,0,1-1.62-.29,1.11,1.11,0,0,1-.92-1.2c-.08-1.52-.12-3-.16-4.56C3,31,3,28.11,2.9,25.2c0-1.39-.17-2.77-.13-4.15.06-1.54.29-3.08.43-4.61a8,8,0,0,0,0-1A6,6,0,0,1,4,12.27a18.4,18.4,0,0,1,3.49-5,16.77,16.77,0,0,1,6.94-3.89,2.71,2.71,0,0,1,.9,0A18.08,18.08,0,0,1,20,3.84a25.06,25.06,0,0,1,4.37,2.41,9.68,9.68,0,0,1,4.45,5.85c.34,1,.5,3.36.71,4.43a.4.4,0,0,1-.07.22,2,2,0,0,1,.1.85,25.71,25.71,0,0,0,.14,2.9c.09,1.67.23,3.34.28,5,0,.93-.11,1.86-.12,2.79,0,.45.13.91.13,1.37,0,2.63,0,5.25,0,7.88C30,38.15,29.91,39.66,29.89,40.25Z"/><path id="fill1" d="M34.26,38.23c-.08-2.3-.12-4.6-.15-6.9,0-1.76,0-3.52,0-5.28-.05-2.07-.24-4.15-.28-6.23a26,26,0,0,0-1.36-6.93,16.45,16.45,0,0,0-3.3-6.34,29.92,29.92,0,0,0-4.59-4A13.3,13.3,0,0,0,14.41.17,14.33,14.33,0,0,0,9.28,1.84a17.39,17.39,0,0,0-4.63,3.6,22.58,22.58,0,0,0-3,4.53A7.27,7.27,0,0,0,.82,12.4a50,50,0,0,0-.33,5C.41,21.19.37,24.94.33,28.69c0,1.85,0,3.7,0,5.55,0,1-.24,2-.28,3,0,1.44-.06,2.88,0,4.32a4.16,4.16,0,0,0,.51,1.67,5.6,5.6,0,0,0,1,1.06,3.22,3.22,0,0,0,1,.32q8.1.11,16.21.16c1.32,0,2.63-.12,3.95-.14q2.37,0,4.74,0c1.77,0,3.53.12,5.29.13.31,0,.64-.41.93-.37.52.06.62-.17.66-.57a8.61,8.61,0,0,0,.14-1.22C34.47,41.17,34.32,39.7,34.26,38.23Zm-.9,5.9c-.11,0-.25-.06-.31-.14a2,2,0,0,0-1.77-.68c-1.41,0-2.81-.15-4.21-.14-2.91,0-5.83.13-8.74.13-2,0-4.09-.09-6.13-.14h-.15c-2.65,0-5.31-.11-8-.14a10.3,10.3,0,0,0-1.56.15C1.32,43.33.81,43,.8,41.8c0-2,.1-4.1.13-6.15,0-1.33,0-2.67,0-4q.06-6.85.15-13.72a36.78,36.78,0,0,1,.18-4.2A9.25,9.25,0,0,1,2.68,9.54,29.83,29.83,0,0,1,5.23,5.85,19.91,19.91,0,0,1,8.67,3,14.27,14.27,0,0,1,14.36.89a12.81,12.81,0,0,1,6.45.5,13.48,13.48,0,0,1,5,3c.66.63,1.42,1.14,2,1.79A17.07,17.07,0,0,1,29.26,8C30.7,9.54,31,11.5,31.7,13.33A19.32,19.32,0,0,1,32.75,20c0,1.44.08,2.88.15,4.33.09,2,.23,4,.28,6.08,0,1.1-.13,2.2-.12,3.29,0,1.35.15,2.69.12,4s-.24,2.9-.26,4.34a6.53,6.53,0,0,0,.42,1.63A1.41,1.41,0,0,1,33.36,44.13ZM29.87,28.31c0-.93.16-1.86.13-2.79-.05-1.68-.19-3.35-.29-5a28.07,28.07,0,0,1-.13-2.89,2,2,0,0,0-.1-.86.34.34,0,0,0,.07-.22c-.21-1.07-.37-3.4-.71-4.43A9.71,9.71,0,0,0,24.4,6.25,25.9,25.9,0,0,0,20,3.84a18.08,18.08,0,0,0-4.74-.51,3,3,0,0,0-.9,0A16.86,16.86,0,0,0,7.44,7.22,18.65,18.65,0,0,0,4,12.28a5.84,5.84,0,0,0-.75,3.18,5.35,5.35,0,0,1,0,1c-.14,1.53-.37,3.07-.43,4.61,0,1.38.1,2.77.13,4.15C3,28.11,3,31,3.06,33.92c0,1.52.09,3,.15,4.55a1.14,1.14,0,0,0,.93,1.21A13.12,13.12,0,0,0,5.76,40c2,.13,3.9.21,5.93.32,1.11.05,2.15.15,3.19.14,2.56,0,5.11-.11,7.66-.14.71,0,1.42.11,2.13.14l4.1.16c.14,0,.29.15.4.12a1,1,0,0,0,.33-.18.47.47,0,0,0,.25,0c.06,0,.14-.22.14-.33,0-.59.13-2.1.13-2.69,0-2.63,0-5.25,0-7.88C30,29.23,29.87,28.77,29.87,28.31ZM23.63,17c0-.08.12-.25.18-.25,1.21,0,2.42,0,3.63.07a4.9,4.9,0,0,1,1.14.16.65.65,0,0,1,.36.35,1.34,1.34,0,0,1,0,.45c.05,2,.09,4,.15,6.06,0,1.07.1,2.13.15,3.19a1.94,1.94,0,0,1,.14.73,5.16,5.16,0,0,1-.13.77,2.57,2.57,0,0,0-.54-.34A2.8,2.8,0,0,0,28,28c-1.09-.06-2.19-.1-3.29-.15,0,0-.05,0-.07,0-.34,0-.9.12-1,0a2.3,2.3,0,0,1-.13-1.15c.08-1.3.27-2.59.28-3.88C23.8,20.89,23.68,18.94,23.63,17Zm4.88-3.21c.08.47.22,1.69.37,2.48a2,2,0,0,0-.52-.07H24.27c-.37,0-.57-.05-.64-.51a6.94,6.94,0,0,0-.51-1.9,8.57,8.57,0,0,0-1.41-2.16c.44-.31,1.21-.92,1.52-1.2.64-.57,2-1.66,2.57-2.29,0,0,0,0,0,0A10.25,10.25,0,0,1,28.51,13.79ZM13,12.26c-.06,0,.08-.29.13-.45A9.39,9.39,0,0,1,15,10.43a5,5,0,0,1,1.18-.36,8.75,8.75,0,0,0-.1,1c0,1,.08,3,.12,4.31C15.13,14.38,14.06,13.33,13,12.26Zm2.48,3.41c0,.18-.15.37-.26.37-1.21,0-2.43-.1-3.64-.14-.52,0-.82-.06-.51-.72s.62-1.66.94-2.49a.49.49,0,0,1,.36.05C13.42,13.71,14.44,14.69,15.48,15.67Zm1.35.31c0-1.43,0-4.43,0-6a4.06,4.06,0,0,1,1.72.28,6.74,6.74,0,0,1,2.34,1.55c-.95,1-2.51,2.56-3.37,3.51,0,0,0,0,0,.06C17.32,16.09,17.09,16.14,16.83,16Zm1.33-.39a15.34,15.34,0,0,1,1.17-1.49c.37-.41,1.41-1.3,1.93-1.82a9.41,9.41,0,0,1,.75.92,7.86,7.86,0,0,1,.87,2.58c0,.1-.24.41-.37.4-1.41,0-2.83-.07-4.25-.15C18.22,16,18.1,15.67,18.16,15.59ZM19.8,5c1,.44,2,.78,3,1.23a11.15,11.15,0,0,1,2.51,1.43C25,7.89,24,8.67,23.69,9s-.84.79-1.23,1.18c-.21.21-.79.82-1.08,1.16a7.87,7.87,0,0,0-3.47-1.93c-1-.26-1.16-.22-1.22-1.59,0-.75.08-2.47.06-3.24l.18,0A4.91,4.91,0,0,1,19.8,5ZM9.41,7.05c.33-.24.66-.48,1-.7A10.66,10.66,0,0,1,14.5,4.7c.55-.07,1.11-.07,1.67-.1a23.19,23.19,0,0,0,0,3.9.66.66,0,0,1-.56.87,5.26,5.26,0,0,0-2.67,1.77c-.45.53-.77.31-1.11-.06-.85-.94-1.67-1.89-2.52-2.82C8.67,7.6,8.65,7.61,9.41,7.05ZM4.27,15.27c.05-.35.15-.69.23-1,.07-.17,0-.29.08-.37.65-1.32,1.29-2.64,2-3.94a9.48,9.48,0,0,1,.91-1.36c.3-.42.66-.61,1.09-.12,1,1.12,2,2.22,3,3.36.19.22.31.4-.07.82A8.47,8.47,0,0,0,10.2,15.3a.74.74,0,0,1-.85.6c-1.51,0-3,0-4.53,0C4.24,15.94,4.21,15.68,4.27,15.27Zm5.1,24.06c0,.09-.24.2-.35.19-1.4-.14-2.8-.28-4.2-.45-.63-.08-.49-.65-.53-1-.11-1-.14-2-.17-2.95C4.06,33.17,4,31.25,4,29.33c0-.56.17-.73.73-.72,1.3,0,2.62,0,3.92,0,.65,0,.94,0,.86.86-.15,1.65,0,3.32,0,5,.05,1.38.11,2.6.14,3.82A3.59,3.59,0,0,1,9.37,39.33Zm.35-12.22c0,.53-.22.76-.75.76-1.47,0-2.93,0-4.39,0-.21,0-.58-.26-.59-.41-.14-1.75-.3-3.5-.31-5.25s.16-3.4.31-5.09a.85.85,0,0,1,.59-.57c1.35-.05,2.69,0,4,0H9.93a10.14,10.14,0,0,0-.2,1.12c-.07,2.12-.13,4.24-.15,6.37C9.57,25,9.67,26.07,9.72,27.11Zm6.22,2.41a16.82,16.82,0,0,0-.16,2.13c-.06,2.1-.11,4.19-.14,6.29a6.34,6.34,0,0,0,.14,1.15.6.6,0,0,1-.69.72c-1.58-.07-3.16-.21-4.73-.33,0,0-.07-.07-.11-.1-.08-3.26-.07-6.44-.08-9.62,0-.34-.13-.92,0-1a3,3,0,0,1,1.22-.15c1.28,0,2.57,0,3.86,0C16.11,28.62,16.08,28.62,15.94,29.52Zm.15-12.09c-.09.86-.12,1.72-.16,2.58-.06,1.36-.13,2.72-.14,4.08,0,1,.07,2.08.15,3.11,0,.54-.17.69-.69.68-1.14,0-2.27,0-3.41,0a2.28,2.28,0,0,0-.58.05c-.61.16-.93-.06-.93-.66,0-1.64,0-3.28,0-4.92s.14-4.25.13-5.83h2.73c.71,0,1.43,0,2.14,0S16.17,16.7,16.09,17.43Zm6.64,12.33c0,.8-.24,1.58-.28,2.38-.08,1.94-.12,3.89-.15,5.84,0,.31.12.61.14.92,0,.52-.08.78-.75.66a10.25,10.25,0,0,0-1.9.11c-.81,0-1.61,0-2.42,0-.53.31-.81,0-.81-.34,0-1.9,0-3.81,0-5.71,0-.4,0-.81,0-1.21,0-1.18,0-2.35.07-3.53,0-.15.4-.4.62-.4.73,0,1.47.1,2.21.13s1.56,0,2.34,0C22.88,28.59,22.78,28.62,22.73,29.76Zm-.65-1.89c-1.49,0-3,0-4.46,0-1,0-.94,0-.94-1,0-1.27-.09-2.53-.14-3.8.05-2.07.07-4,.18-5.9a.94.94,0,0,1,.65-.65,13.66,13.66,0,0,1,1.9.12c1,.06,2,.05,3,.17.42.05.87.25.66.94A5.21,5.21,0,0,0,23,19.12c0,1.45.05,2.89,0,4.34-.05,1.27-.23,2.53-.28,3.8C22.74,27.79,22.53,27.88,22.08,27.87Zm6.51,12c-1.52-.07-3-.15-4.55-.14-.56,0-.78-.26-.83-.69-.13-1-.26-2.09-.3-3.13,0-.84.09-1.68.14-2.51,0-.1,0-.2,0-.3a25.24,25.24,0,0,0,.22-4c-.06-.76.23-.65.64-.62,1.45.08,2.89.2,4.34.29.86.06,1.15.34,1.14,1.22-.05,2.88-.23,6.68-.26,9.56a1.66,1.66,0,0,0,.1.53A1.71,1.71,0,0,0,28.59,39.84Zm3.08.84q0-6.6-.14-13.19c0-2.91,0-5.82-.17-8.72a45,45,0,0,0-.6-4.75,12.84,12.84,0,0,0-5.54-8.86c-2-1.36-3.8-3-6.38-3.24a15,15,0,0,0-5.69.32A17.72,17.72,0,0,0,9.31,4.11a17.56,17.56,0,0,0-6,6.47c-1.08,1.81-1.09,3.87-1.4,5.84a37.71,37.71,0,0,0-.2,4.88c-.05,2.24-.09,4.47-.15,6.7,0,1.62-.14,3.24-.14,4.86s.08,3.06.14,4.58c0,1,.08,2,.16,3.05a1,1,0,0,0,1,1l6.75.15c1,0,2.08.08,3.11.15,2.16.14,4.32.35,6.48.44,2.59.11,5.17.14,7.76.16,1.19,0,3.08-.11,4.26-.18a2.39,2.39,0,0,0,.67-.22l-.14-.08A11.08,11.08,0,0,0,31.67,40.68Zm-1,1c-.79,0-2.27,0-3.06,0-2.58,0-5.16-.09-7.74-.16-.78,0-1.57-.09-2.36-.14-2.38-.16-4.77-.33-7.15-.45-1.19-.06-2.38,0-3.56,0s-2.29,0-3.44,0c-.41,0-.76,0-.86-.49a7.27,7.27,0,0,1-.16-1.23c-.06-1.9-.15-3.81-.14-5.71,0-4.51,0-9,.16-13.52.05-2.19.28-4.37.44-6.55a1.48,1.48,0,0,1,.14-.32,19.33,19.33,0,0,1,2-3.74c2.45-3.5,5.57-6,9.86-6.76a12.3,12.3,0,0,1,5.43.3c1.52.4,2.68,1.47,4,2.28A11.39,11.39,0,0,1,28.39,9.5a1.32,1.32,0,0,1,.24.25,15,15,0,0,1,1.7,5.82c.14,1.69.53,3.36.57,5.05.12,5.2.13,10.41.17,15.61,0,.61-.13,1.22-.13,1.83s.11,1.07.12,1.6c0,.28-.06,1.41,0,2A2.54,2.54,0,0,0,30.63,41.63Z"/></g></g></svg>