<svg xmlns="http://www.w3.org/2000/svg" viewBox="0 0 26.65 44.07"><defs><style>.cls-1{fill:#ffe0ae;}.cls-2{fill:#56acb2;}</style></defs><g id="Layer_2" data-name="Layer 2"><g id="heritage-window-6-front"><path id="fill3" class="cls-1" d="M25.14,16.21c0-3.9-.09-7.81-.15-11.71a6.56,6.56,0,0,0-.15-.76c-.05-.64-.12-1.27-.14-1.92C24.66.7,24.6.63,23.47.63c-1.56,0-3.12,0-4.69,0-.53,0-1.07-.15-1.6-.12C15.25.57,13.33.7,11.4.77c-.44,0-.87-.14-1.3-.13-.66,0-1.32.13-2,.13C5.84.8,3.57.77,1.3.8,1.07.8.67.93.64,1.07A6.1,6.1,0,0,0,.47,2.66C.53,3.74.7,4.8.74,5.87.78,6.61.6,7.35.63,8.08s.22,1.58.28,2.37,0,1.49,0,2.23c0,5.25.12,10.51.16,15.76,0,2.58,0,5.15,0,7.72V42s.07.08.08.12c.21.78.84.91,1.49.89,1.4-.07,2.8-.26,4.2-.28s3,.12,4.48.13c1,0,2-.12,3-.14q2.31,0,4.62,0c1.57,0,3.14.1,4.71.15,1.25,0,1.28-.32,1.25-1.19-.05-1.24,0-2.49,0-3.74,0-4.22.1-8.43.14-12.65,0-.67,0-1.33,0-2,0-1.06,0-2.11,0-3.16C25,18.84,25.15,17.52,25.14,16.21Zm-1.22-3.62q.07,5.4,0,10.82c0,3.24-.2,6.48-.29,9.72,0,1,0,2,0,3v3.43c0,.46,0,.93,0,1.39s-.38.69-.79.7c-1.79.08-3.6.16-5.39.16-2.27,0-4.55-.09-6.82-.15l-6.1-.14a4.59,4.59,0,0,1-1,0,1.32,1.32,0,0,1-.9-1.25,3.49,3.49,0,0,1,0-.46l-.3-9.64c0-.87,0-1.75,0-2.63,0-3.81-.11-7.63-.14-11.44,0-2.76,0-5.52,0-8.28,0-1.29-.22-3.85-.29-5.15a.92.92,0,0,1,.07-.31l-.07,0c.08-.11.15-.26.23-.37a0,0,0,0,1,0,0c.06-.06.09-.1.14-.11.67,0,1.33,0,2,0,1.72,0,3.44.11,5.17.15.48,0,1-.13,1.45-.14q4.45-.1,8.89-.15c1,0,1.93.08,2.9.15.56,0,.89.72,1,1.62C24.17,6.5,23.88,9.55,23.92,12.59Zm-.49-2.94c-.05-2.15.13-4.36-.52-6.5-.17-.52-.43-.69-.83-.69q-5.88,0-11.76,0c-1.45,0-2.89.11-4.33.15-1.21,0-2.42,0-3.62,0a.7.7,0,0,1,0,.14c.08,1.57.14,4.4.18,6l.15,5.64c0,.64,0,1.28,0,1.92a55.94,55.94,0,0,0,.11,5.79,18.67,18.67,0,0,1-.1,2.69c0,.77.11,1.54.13,2.31s-.08,1.56,0,2.34c0,1.45.13,2.9.21,4.34V34c0,1.55.1,3.09.14,4.64a12.33,12.33,0,0,0,0,1.61c.06.27.4.66.64.68a20.74,20.74,0,0,0,2.08,0c.35,0,.69.07,1.05.08h5.6c1.85,0,3.63.13,5.41.14,1.54,0,3.07-.1,4.61-.14.51,0,.42-.37.42-.7,0-2.09,0-4.18,0-6.28s.19-4.51.29-6.76c0-.62,0-1.23,0-1.85C23.38,20.11,23.55,14.87,23.43,9.65ZM22.28,39.24c0,.57-.26.62-.73.62H11.08c-1.15,0-2.28.16-3.42.13s-2-.18-3.06-.3c-.12,0-.33-.18-.33-.29,0-.67,0-1.34-.06-2C4.14,36.17,4,35,4,33.74c0-.2,0-.4,0-.6V28a7.57,7.57,0,0,1-.14-.77c0-2.7.11-5.4.14-8.11s.06-5.25,0-7.87c-.07-2-.29-4-.44-6A1.4,1.4,0,0,1,5.08,3.64c1.67,0,3.34-.11,5-.13q5.16,0,10.32,0c1,0,1.5.57,1.55,1.72.11,2.43.27,4.86.3,7.29q.12,9.6.15,19.2C22.42,34.23,22.3,36.73,22.28,39.24Z"/><path id="fill2" class="cls-2" d="M21.8,13.8c0,.36-.12.62-.68.49a6.91,6.91,0,0,0-2.13,0,3.34,3.34,0,0,1-2.68-1.22c-1-1-2-2-2.95-3a1.57,1.57,0,0,1-.52-1.41,30.74,30.74,0,0,0,0-3.83h6.93c.22,0,.51.07.65,0,.83-.63.87.14.95.57.12.7.12,1.42.17,2.13.11,1.4.23,2.64.3,3.89A23.82,23.82,0,0,1,21.8,13.8ZM12.32,9.49a42.05,42.05,0,0,1,0-4.62h-.82c-1,0-2.1.1-3.14.14S6.63,5,5.75,5s-1.09.29-1,1.08c.07,1.15.23,2.29.28,3.43S5,12,5,13.17c0,2,.06,2.12,2,2a4.42,4.42,0,0,1,.64,0s0,0,0,0c1-1.14,3.53-4,4.53-5.07a.76.76,0,0,1,.3-.13A1.43,1.43,0,0,1,12.32,9.49Zm.61,29.08a17.48,17.48,0,0,1-.21-3.17c0-.56-.09-1.12-.14-1.83,0-.15,0-.3,0-.45a32.93,32.93,0,0,1,.19-3.86c.1-.62-.07-.65-.49-.61-1.49.18-3,.39-4.45.58a4.87,4.87,0,0,1-1.8.13c-.62-.17-.59.09-.57.47s.13.76.14,1.14c.06,1.74.11,3.49.16,5.23,0,.63,0,1.26,0,1.89A1.13,1.13,0,0,0,7,39.25c1.82,0,3.63,0,5.44,0C12.94,39.27,13.13,39.31,12.93,38.57Zm8.29-9.92a14.76,14.76,0,0,1-5.26.16c-.7-.11-1.41-.12-2.12-.16-.47,0-.7.17-.67.69s0,1.31,0,2.11c.05.58.12,1.17.15,1.76q.09,2.46.15,4.92a1,1,0,0,0,1.09,1.11c2.06,0,4.13,0,6.19,0,.31,0,.86-.48.86-.74.12-3.1.14-6.21.2-9.31C21.83,28.72,21.6,28.57,21.22,28.65Zm.61-12.72c0-.54-.18-.86-.68-.9-1-.09-2-.08-3-.18l-.15,0a.38.38,0,0,1-.05.28c-.58.69-1.77,1.89-2.37,2.55s-1.68,2-2.21,2.51a.79.79,0,0,1-.27.15,1.22,1.22,0,0,1,0,.26c0,2,0,4,0,6.06,0,1,.42,1.39,1.42,1.4.4,0,.81,0,1.21,0,1.77,0,3.55,0,5.32,0,.38,0,.72-.26.71-.88C21.79,23.4,21.8,19.67,21.83,15.93Zm-9.11,8.39c0-1.12-.07-2.25-.16-3.37a1.67,1.67,0,0,0-.41-.95c-.91-1-1.85-2-2.83-3-.49-.49-.84-1.2-1.68-1.23a14.25,14.25,0,0,0-2,0,.72.72,0,0,0-.5.5,17.39,17.39,0,0,0,0,1.91c0,2.93.09,5.86.14,8.79,0,.08,0,.15,0,.23.2,1.36.45,1.58,1.38,1.42,1.71-.27,3.42-.53,5.14-.74.52-.07.77-.24.75-.78s0-1.36,0-2.19A2.9,2.9,0,0,0,12.72,24.32ZM17,14.48c-1.24-1.12-2.46-2.28-3.63-3.47l-.51-.54-2.13,1.94c-.67.65-2,2.16-2.72,2.85a2.89,2.89,0,0,1,1.42.9c1.14,1.25,2.36,2.45,3.51,3.7A.35.35,0,0,1,13,20s0-.08,0-.11.13-.14.24-.25c1-1.19,3.18-3.64,4.27-4.85A1.46,1.46,0,0,1,17,14.48Z"/><path id="fill1" d="M26.36,18.42c0-.32-.08-.65-.08-1,0-.71,0-1.42,0-2.17,0-.17.1-.3.1-.43,0-.86,0-1.73,0-2.6.07-1.75.24-3.49.28-5.25,0-1.4-.06-2.8-.15-4.2A2.92,2.92,0,0,0,23.57,0c-1.34.09-2.69,0-4,0H.86A.77.77,0,0,0,0,.92c0,.51,0,1,0,1.54,0,1,.12,2,.14,3,0,1.18,0,2.37,0,3.56,0,1,.25,2,.27,3s-.13,2.3-.12,3.45c0,1.78.11,3.56.13,5.33s0,3.5,0,5.25c0,.74.14,1.48.13,2.21,0,1.18-.12,2.35-.13,3.52q0,4.39,0,8.79a7.31,7.31,0,0,1,.12,1.22A1.57,1.57,0,0,0,2.23,44c.8,0,1.62.15,2.42.11C6,44,7.41,43.69,8.79,43.67s2.69.25,4,.26c4.21,0,8.42,0,12.64,0,.5,0,.89-.07.89-.7,0-2,0-3.9,0-5.85-.07-2.84-.24-5.67-.27-8.51,0-1.32.24-2.64.27-4C26.39,22.76,26.36,20.59,26.36,18.42ZM25,20.16c0,1.05,0,2.1,0,3.15,0,.67,0,1.33,0,2,0,4.22-.1,8.44-.14,12.66,0,1.24,0,2.49,0,3.73,0,.87,0,1.22-1.25,1.18-1.57,0-3.14-.11-4.71-.14s-3.08,0-4.62,0c-1,0-2,.14-3,.14-1.5,0-3-.15-4.48-.13S4,43,2.64,43c-.65,0-1.28-.11-1.49-.89,0,0-.08-.08-.08-.12V36.16c0-2.57,0-5.15,0-7.72C1,23.19,1,17.93.92,12.68c0-.74,0-1.49,0-2.23S.66,8.87.63,8.08.78,6.61.75,5.87C.71,4.8.53,3.74.47,2.66A6.1,6.1,0,0,1,.64,1.07c0-.14.43-.27.66-.28,2.27,0,4.54,0,6.81,0,.66,0,1.32-.12,2-.13.44,0,.87.15,1.3.13C13.32.7,15.25.57,17.18.5c.53,0,1.07.12,1.6.12,1.56,0,3.13,0,4.69,0,1.13,0,1.18.07,1.23,1.2,0,.63.09,1.27.14,1.9.05.36.15.57.15.78.06,3.9.12,7.8.15,11.7C25.15,17.52,25,18.84,25,20.16ZM22,5.24c-.05-1.15-.52-1.71-1.55-1.72q-5.16,0-10.32,0c-1.67,0-3.34.16-5,.13A1.4,1.4,0,0,0,3.49,5.27c.15,2,.38,4,.43,6,.08,2.62,0,5.25,0,7.87s-.1,5.41-.14,8.11a5.54,5.54,0,0,0,.14.77v5.1c0,.2,0,.4,0,.6.08,1.22.18,2.43.25,3.65,0,.67,0,1.34,0,2a.48.48,0,0,0,.35.29,28.37,28.37,0,0,0,3.05.3c1.14,0,2.28-.12,3.42-.13,3.49,0,7,0,10.47,0,.47,0,.73,0,.73-.63,0-2.5.14-5,.13-7.51q0-9.59-.15-19.19C22.23,10.1,22.07,7.67,22,5.24Zm-2.22-.37c.22,0,.51.07.66,0,.83-.64.86.13.94.56a18.91,18.91,0,0,1,.17,2.13c.1,1.4.23,2.64.3,3.89a21.17,21.17,0,0,1,0,2.39c0,.36-.12.61-.68.5a6.67,6.67,0,0,0-2.14,0,3.32,3.32,0,0,1-2.67-1.23c-1-.94-2-1.94-2.95-2.94a1.59,1.59,0,0,1-.52-1.41,28.93,28.93,0,0,0,0-3.83ZM13,19.84a.36.36,0,0,0,0,.1l-.06-.08c-1.16-1.25-2.37-2.44-3.51-3.7A3,3,0,0,0,8,15.26c.7-.7,2.06-2.19,2.72-2.85l2.14-1.95c.16.19.33.38.5.55,1.18,1.19,2.38,2.35,3.63,3.47a1.5,1.5,0,0,0,.52.26c-1.08,1.21-3.22,3.66-4.26,4.85C13.14,19.7,13,19.76,13,19.84ZM5,9.54c0-1.15-.21-2.29-.28-3.44C4.66,5.31,5,5,5.75,5S7.51,5,8.4,5s2.09-.13,3.14-.14h.83a39.56,39.56,0,0,0,0,4.61,1.3,1.3,0,0,0,.18.47.55.55,0,0,0-.3.13c-1,1.11-3.56,3.93-4.53,5.07,0,0,0,0,0,0a3.34,3.34,0,0,0-.64,0c-2,.13-2,0-2-2C5,12,5,10.74,5,9.54ZM5.31,27c0-2.93-.11-5.86-.15-8.79a17.36,17.36,0,0,1,0-1.91.74.74,0,0,1,.5-.5,16.17,16.17,0,0,1,2,0c.83,0,1.18.75,1.67,1.23,1,1,1.92,2,2.84,3a1.73,1.73,0,0,1,.4.95c.09,1.12.13,2.25.16,3.37a2.31,2.31,0,0,1-.14.62c0,.83,0,1.51,0,2.19s-.23.71-.75.78c-1.72.21-3.43.47-5.14.75-.93.15-1.18-.07-1.38-1.43A1.77,1.77,0,0,1,5.31,27ZM12.4,39.26c-1.81,0-3.62,0-5.44,0a1.13,1.13,0,0,1-1.2-1.16c0-.63,0-1.26,0-1.89,0-1.74-.09-3.49-.16-5.23,0-.38-.11-.76-.14-1.14s0-.64.57-.47a4.86,4.86,0,0,0,1.8-.13c1.48-.19,3-.4,4.45-.57.42-.05.59,0,.49.6a32.93,32.93,0,0,0-.19,3.86c0,.15,0,.3,0,.45.05.71.11,1.27.14,1.83a17.48,17.48,0,0,0,.21,3.17C13.12,39.31,13,39.26,12.4,39.26Zm9.23-.78c0,.27-.56.73-.87.74-2.06.06-4.13,0-6.2,0a1,1,0,0,1-1.08-1.11c0-1.64-.09-3.29-.15-4.93,0-.58-.1-1.16-.15-1.75,0-.81,0-1.46,0-2.11s.2-.71.67-.69c.71,0,1.43.05,2.13.16a14.71,14.71,0,0,0,5.25-.16c.38-.07.61.07.6.52C21.76,32.28,21.74,35.38,21.63,38.48ZM21.13,28c-1.77.06-3.55,0-5.32,0-.4,0-.81,0-1.21,0-1,0-1.42-.43-1.42-1.4,0-2,0-4,0-6.06a1.07,1.07,0,0,0,0-.25.81.81,0,0,0,.27-.16c.53-.55,1.69-2,2.21-2.51s1.79-1.87,2.37-2.54a.51.51,0,0,0,.05-.29l.15,0c1,.1,2,.09,3,.18.5,0,.68.36.68.91,0,3.73,0,7.47,0,11.2C21.85,27.76,21.51,28,21.13,28ZM23.65,3.47c-.16-.9-.49-1.59-1-1.62-1-.07-1.93-.16-2.89-.15-3,0-5.94.09-8.9.15-.49,0-1,.14-1.45.13C7.64,2,5.92,1.89,4.2,1.84a19,19,0,0,0-2,0c-.05,0-.09,0-.13.11h0s0,0,0,0-.15.26-.23.37l.06,0a1.21,1.21,0,0,0-.06.31c.08,1.3.27,3.86.29,5.15.05,2.76,0,5.52,0,8.28,0,3.82.1,7.63.15,11.45,0,.87,0,1.75,0,2.62.09,3.22.2,6.43.3,9.65a3.38,3.38,0,0,0,0,.45,1.35,1.35,0,0,0,.91,1.26,5.29,5.29,0,0,0,1,0l6.09.14c2.28.06,4.56.14,6.83.15,1.8,0,3.59-.08,5.39-.16.41,0,.83-.11.8-.7s0-.93,0-1.39V36.14c0-1,0-2,0-3,.09-3.24.24-6.48.28-9.72,0-3.6.06-7.21,0-10.82C23.88,9.55,24.17,6.5,23.65,3.47Zm-.32,23.71c-.1,2.25-.24,4.51-.29,6.76s0,4.19,0,6.29c0,.31.08.68-.43.69-1.54,0-3.07.14-4.61.14-1.78,0-3.56-.09-5.41-.14H7c-.35,0-.69-.08-1-.08a18.17,18.17,0,0,1-2.08.05,1,1,0,0,1-.63-.68,9.57,9.57,0,0,1,0-1.61C3.14,37,3.09,35.5,3,34c0-.08,0-.15,0-.23-.07-1.44-.16-2.89-.2-4.33,0-.78.06-1.57,0-2.35s-.14-1.54-.14-2.31a17.32,17.32,0,0,0,.11-2.68,56.19,56.19,0,0,1-.11-5.8c0-.64,0-1.28,0-1.92,0-1.88-.1-3.76-.15-5.64-.05-1.57-.1-4.4-.18-6a.7.7,0,0,0,0-.14c1.21,0,2.41,0,3.62,0,1.44,0,2.89-.13,4.33-.14,3.92,0,7.84,0,11.76,0,.41,0,.67.17.83.69.66,2.14.47,4.35.52,6.5.11,5.23-.05,10.46-.1,15.69C23.32,26,23.35,26.57,23.33,27.18Z"/></g></g></svg>