<svg xmlns="http://www.w3.org/2000/svg" viewBox="0 0 86.76 40.51"><defs><style>.cls-1{fill:#e28444;}.cls-2{fill:#ffe0ae;}</style></defs><g id="Layer_2" data-name="Layer 2"><g id="roof-2-front"><path id="fill3" class="cls-1" d="M86.41,36A7.46,7.46,0,0,1,85,37.05a1.06,1.06,0,0,1-.76,0c-.77-.27-1.51-.65-2.29-.88a1.21,1.21,0,0,0-1.06.15,1.56,1.56,0,0,0-.26,1.21c.4,1.68-.28,2.62-2,2.61-1.28,0-2.56,0-3.83,0-1.62-.06-3.24-.19-4.86-.22-1.32,0-2.63.13-4,.13-4.77,0-9.53-.1-14.31-.12-2.56,0-5.12,0-7.68.11-3.37.07-6.74.06-10.08.29-6.89.47-13.79.13-20.68.14-2.2,0-4.41,0-6.61-.06a7,7,0,0,1-1.59,0c-.85-.18-.92-.9-.86-1.63.11-1.33-.13-1.59-1.42-1.54-1,0-2.78-1.4-2.72-2.36A3,3,0,0,1,1,33c1.37-1.16,2.87-2.15,4.3-3.24,2.23-1.7,4.41-3.45,6.65-5.12s4.57-3.35,6.86-5c2.52-1.84,5.06-3.66,7.57-5.53,1.43-1.06,2.8-2.19,4.22-3.27,1.64-1.23,3.32-2.42,5-3.67a11.3,11.3,0,0,0,1.22-1.19l6-4.16c.1-.07.14-.24.19-.37C43.79-.48,47-.39,47.78,1.27a7.35,7.35,0,0,0,2.29,2.44l3.18,2.7c3,2.5,5.88,5,8.82,7.5C63.39,15,64.66,16.2,66,17.32s2.72,2.27,4.09,3.39l5,4c3,2.41,6,4.8,8.91,7.25a27.48,27.48,0,0,1,2.51,2.55A1,1,0,0,1,86.41,36Z"/><path id="fill2" class="cls-2" d="M78.42,37.4c-.33.4-1.21.45-1.85.46-1.89,0-3.78,0-5.66,0-2.66,0-5.31.08-8,.1-1.19,0-2.39,0-3.59,0-3.84,0-7.68,0-11.52.07-.89,0-1.78.1-2.67.15-1.43,0-2.68,0-3.93,0-2.41,0-4.83-.06-7.22.14-6.34.51-12.69.13-19,.15-2.47,0-5,0-7.42-.07a2.53,2.53,0,0,1-.55,0c-.47-.11-1-.25-.84-.9s.65-.62,1.15-.56c.1,0,.19.11.29.18a1.85,1.85,0,0,0,2.4.06,1.63,1.63,0,0,1,1.27,0,4.74,4.74,0,0,0,2.51-.19,2.22,2.22,0,0,1,1.47.12c1,.59,1.47.68,2.31-.09a1.41,1.41,0,0,1,2-.16,1.86,1.86,0,0,0,2,.06,1.68,1.68,0,0,1,1.81.11,1.32,1.32,0,0,0,1.79-.21A2.18,2.18,0,0,1,28,36.37c.54.31.94.45,1.47,0a2.14,2.14,0,0,1,2.32-.18,1.55,1.55,0,0,0,2-.32c.72-.89,1.1-.91,2.38-.2.42.23.82.51,1.25.75s.47.25.5-.3a.55.55,0,0,1,.16-.31,2.68,2.68,0,0,1,2.46-.27,9.51,9.51,0,0,1,1.44.91c.47.41.79.17,1-.17.37-.83,1-.64,1.55-.41,1,.47,1.83.66,2.74-.28.48-.49,1.26-.24,1.82.29.79.72.87.71,1.52-.19a1.63,1.63,0,0,1,2.32-.33,3.63,3.63,0,0,0,1,.57,1.11,1.11,0,0,0,.85-.15,2,2,0,0,1,3,0,1,1,0,0,0,1.33,0,2.88,2.88,0,0,1,3,.21,1.25,1.25,0,0,0,1.56-.18,2.33,2.33,0,0,1,1.74-.13c.88.22,1.65.52,2.51-.12s1.53-.06,2.21.29a1.31,1.31,0,0,0,1.73-.12c.35-.29,1.07-.18,1.63-.14a2.08,2.08,0,0,1,.83.41c.78.54,1.42.64,2.12-.23.21-.27,1.05-.24,1.48,0A1.13,1.13,0,0,1,78.42,37.4Z"/><path id="fill1" d="M86.44,34.49a26.18,26.18,0,0,0-2.5-2.55C81,29.49,78,27.1,75,24.69c-1.65-1.33-3.31-2.64-5-4-1.37-1.12-2.74-2.24-4.09-3.39s-2.6-2.29-3.91-3.41c-2.93-2.51-5.88-5-8.82-7.5-1.06-.91-2.13-1.8-3.19-2.7a7.43,7.43,0,0,1-2.28-2.44C47-.4,43.78-.48,43,1.38c-.05.13-.09.3-.19.37-2,1.38-4,2.74-6,4.16A11.3,11.3,0,0,1,35.53,7.1c-1.64,1.25-3.31,2.44-5,3.68C29.16,11.85,27.79,13,26.36,14c-2.51,1.86-5,3.69-7.57,5.53-2.29,1.67-4.6,3.31-6.86,5S7.51,28,5.28,29.71C3.86,30.8,2.35,31.79,1,33a3,3,0,0,0-1,1.84c-.06,1,1.7,2.41,2.73,2.37,1.29,0,1.51.21,1.41,1.54-.06.73,0,1.44.86,1.63a7,7,0,0,0,1.59,0c2.2,0,4.41.06,6.61.06,6.89,0,13.79.33,20.68-.14C37.23,40,40.59,40,44,40c2.57-.06,5.13-.12,7.69-.11,4.77,0,9.54.09,14.32.12,1.31,0,2.62-.14,3.94-.13,1.62,0,3.24.16,4.86.22,1.27,0,2.55,0,3.83,0,1.7,0,2.39-.93,2-2.62a1.54,1.54,0,0,1,.26-1.2,1.22,1.22,0,0,1,1.06-.15c.78.23,1.52.61,2.29.88a1,1,0,0,0,.76,0A7.73,7.73,0,0,0,86.42,36,1,1,0,0,0,86.44,34.49Zm-11-8.57c1.17,1,2.33,2.07,3.44,3.15.16.16.19.77.08.84-.41.25-.52,1.25-1.31.62s-1.41-1.17-2.11-1.76l-.6-.62c-.88-.89-.9-1.28,0-2.2A.55.55,0,0,1,75.49,25.92Zm-1.95,7.57c-.61-.21-1.21-.43-1.76.14,0,0-.36-.16-.38-.27-.09-.77-.17-1.54-.19-2.32,0-1.17,0-2.35,0-3.52,0-.13-.08-.65-.18-1.15,1,.91,2.08,1.81,3.09,2.75a1.59,1.59,0,0,1,.38.93c.1.89.17,1.79.19,2.68S74.41,33.79,73.54,33.49Zm.51,1.23a1.93,1.93,0,0,1-.44.12c-.61,0-1.22,0-1.83-.08-.08,0-.14-.22-.21-.33a2.11,2.11,0,0,1,2.23-.06C73.91,34.42,74,34.6,74.05,34.72ZM70.55,31a8.87,8.87,0,0,1,.07,1.7,1.05,1.05,0,0,1-.72.67,14.57,14.57,0,0,1-2,.11c-.18-1.62-.24-3.15-.37-4.67-.06-.85-.27-1.68-.32-2.52,0-.31.23-.9.37-.9.83,0,1.68-.6,2.5.15.17.17.36.32.53.48-.06.53-.13,1.19-.13,1.3C70.49,28.55,70.52,29.77,70.55,31Zm-.14,3.85c-.32-.05-.63-.13-.94-.15s-.91,0-1.36,0a1.43,1.43,0,0,1-.38-.13c.11-.1.21-.26.34-.28a9.06,9.06,0,0,1,1-.13c.27,0,.39,0,.45,0C69.85,34.37,70.12,34.61,70.41,34.85Zm-7.12-1.06a1.19,1.19,0,0,1-.42,0c.09-.5.17-1,.2-1.19a5.21,5.21,0,0,0-.08-.87c-.07-1.78-.11-3.57-.19-5.35-.06-1.27.53-2,1.75-1.85a1.35,1.35,0,0,1,.91.4,4.88,4.88,0,0,1,1.38,3.21,26.45,26.45,0,0,0,0,3.21,18.42,18.42,0,0,0,.34,2.06.65.65,0,0,1,0,.39c0,.06-.24,0-.36,0A7.27,7.27,0,0,0,63.29,33.79Zm2.25.85c-.08.07-.15.18-.23.18l-2,.18,0-.37,2-.16C65.37,34.47,65.46,34.58,65.54,34.64Zm-4.37-1.31a7.89,7.89,0,0,0-1.88-.06c-.46,0-.67,0-.7-.51-.05-1.21-.11-2.41-.17-3.61,0-1.37,0-2.57,0-3.76s1-1,1.55-1.37a1.37,1.37,0,0,1,1.29.36A4.41,4.41,0,0,1,62,26.43c.15,2,.15,4.07.21,6.11a1,1,0,0,0,0,.35,3.58,3.58,0,0,1,.16.82A12.24,12.24,0,0,0,61.17,33.33Zm1,1.68a1.13,1.13,0,0,1-.32,0,6.1,6.1,0,0,0-1.39-.37A5.82,5.82,0,0,0,59,35a2.8,2.8,0,0,1-.5,0,1.6,1.6,0,0,1,.06-.5c.43-.84,1.22-.58,1.91-.61.57.33,1.06.56,1.52.82C62.1,34.73,62.1,34.9,62.14,35ZM66.66,24.8c-.13-.06-.29-.08-.38-.18a2.2,2.2,0,0,0-2.61-.84c-.06,0-.15,0-.18,0-1.35,1.23-.81-.27-.84-.64-.07-1,0-2.08,0-3.12a7.51,7.51,0,0,0-.14-.82l1.7,1.46c1.31,1.05,2.54,2,3.75,3,.38.31.71.7,1.06,1.05-.48-.05-1-.08-1.45-.15-.12,0-.22-.18-.34-.26s-.26-.12-.39-.18c0,.13-.1.25-.13.38A1.67,1.67,0,0,0,66.66,24.8Zm-4.58-2.37a3.65,3.65,0,0,1,0,.74,2.27,2.27,0,0,1-.22.54l-.38-.29a1.77,1.77,0,0,0-2.43.15l-.39.3a2.11,2.11,0,0,1-.22-.55c-.07-1.93-.14-3.87-.16-5.8a1.12,1.12,0,0,1,.42-.88,1.07,1.07,0,0,1,1,.16c.8.66,1.59,1.32,2.37,2,0,.54-.08,1.12-.08,1.24C61.92,20.83,62,21.63,62.08,22.43Zm9.5.44a11.33,11.33,0,0,1,1.28.9c.39.34.71.56,1,.83s.68.65.62.8a3.7,3.7,0,0,1-.93,1.16c-.09.08-.45,0-.6-.15-.83-.75-1.59-1.57-2.46-2.27s-.12-1,.16-1.39C70.73,22.62,71.3,22.73,71.58,22.87Zm-5.51-4.44c.07-.05.28,0,.38.12,1.1.93,2.19,1.89,3.31,2.8a.85.85,0,0,1,.13,1.31c-.34.48-.72.29-1.11-.08-.72-.66-1.48-1.27-2.22-1.9-.26-.2-.44-.29-.59-.42A1.19,1.19,0,0,1,66.07,18.43Zm-5.22-4.37,1.15.87c1,.88,2,1.66,3,2.46.36.3.67.65.27,1.13s-.63.68-1.23.15c-1.1-1-2.35-1.81-3.51-2.73-.2-.16-.43-.56-.37-.73A5.63,5.63,0,0,1,60.85,14.06Zm-5.34-2.94a3.48,3.48,0,0,1,.37-.75,4,4,0,0,1,1.24.66c.88.7,1.72,1.44,2.6,2.13a.6.6,0,0,1,.07,1c-.27.27-.47.87-1.06.39-1.07-.87-2.18-1.69-3.22-2.59C55.37,11.85,55.45,11.4,55.51,11.12Zm2.17,20.79a3.88,3.88,0,0,1-.18,1.56c-.09.17-.77,0-1.17,0-.6.06-1.19.22-1.79.25a.69.69,0,0,1-.49-.45c-.09-2.6-.15-5.21-.17-7.81a.84.84,0,0,1,.47-.67,6.74,6.74,0,0,1,2.21-.3,1.23,1.23,0,0,1,1.14,1.34C57.67,27.85,57.69,29.88,57.68,31.91Zm-3.8-8.32c0-1.28,0-2.56,0-3.85,0-.74-.11-1.48-.17-2.22a1.65,1.65,0,0,1,.64-1.74c1.44-.36,2.23.66,3.21,1.08.12.05.16.37.16.56,0,.93,0,1.85,0,2.78s0,2.1,0,3.15c0,.4-.08.49-.55.39a3.26,3.26,0,0,0-2.89.3S53.88,23.75,53.88,23.59Zm2.66-8.33a2,2,0,0,0-2-.21,1.87,1.87,0,0,1-.66-.14c0-.94-.05-1.88-.06-2.82.12,0,.29,0,.38,0L58,15.33a1.32,1.32,0,0,1,.21.37c-.13,0-.28.14-.38.1A8.06,8.06,0,0,1,56.54,15.26Zm-3.4-7.88c.61.61,1.27,1.18,1.9,1.77s.19,1-.18,1.51-.77.22-1.14-.09c-1-.86-2-1.7-3-2.55a.47.47,0,0,1,.09-.38C51.75,6.09,51.84,6.09,53.14,7.38ZM50,33.31c-.12-1.77-.15-3.43-.18-5.1,0-1.1-.32-2.25.22-3.27a1.91,1.91,0,0,1,1.18-.86,1.65,1.65,0,0,1,1.15.53A2.84,2.84,0,0,1,53.14,27c-.07,1.46,0,2.93,0,4.4,0,.57.28,1.39,0,1.65s-1.1.17-1.69.21S50.49,33.28,50,33.31Zm.91,1.11a2.8,2.8,0,0,1-.71.19c0-.12.11-.36.15-.35A2.23,2.23,0,0,1,50.92,34.42ZM53.22,24a1.85,1.85,0,0,1-.37-.19,2.2,2.2,0,0,0-2.73-.21.57.57,0,0,1-.31.05,1.56,1.56,0,0,1-.15-.58c0-.59.18-1.17.17-1.76,0-1.51-.14-3-.14-4.52a3.1,3.1,0,0,1,.43-1.09A1.25,1.25,0,0,1,51.8,16a4,4,0,0,1,1.37,3.23,36.44,36.44,0,0,0,.13,4.42A1.56,1.56,0,0,1,53.22,24ZM49.67,9.82a1.64,1.64,0,0,0,0-.63c0-.08-.11-.43-.2-.79L52,10.47c.18.15.41.24.57.4.38.42.92.65.47,1.51C52.71,13,53,14,53,14.8c0,.2.12.39.13.59A2.38,2.38,0,0,1,53,16c-.13-.13-.28-.25-.41-.39-.59-.64-1.27-1.12-2.15-.72s-.8,0-.78-.61C49.69,12.76,49.67,11.29,49.67,9.82Zm-1,23.55c-.75.14-1.66-.35-2.24.53-.09-.13-.27-.26-.28-.38,0-1.17,0-2.33,0-3.49,0-1.71.06-3.42.09-5.13.57-.93,1.38-.77,2.11-.69a.79.79,0,0,1,.74.9c0,2.59,0,5.19,0,7.79A.61.61,0,0,1,48.7,33.37Zm.21,1.14a7.3,7.3,0,0,0-.81,0,1.27,1.27,0,0,0-.38.17l-1.17-.09c.35-.15.69-.32,1.05-.45a.55.55,0,0,1,.36,0C48.28,34.24,48.59,34.38,48.91,34.51ZM46.07,24a3.21,3.21,0,0,1-.07-.43c0-2,0-4,0-6a7.48,7.48,0,0,1-.14-1,1.68,1.68,0,0,1,.5-1,1.75,1.75,0,0,1,2.57,1.2c.06,2,.09,3.74.19,5.52.05.78-.17,1.13-1,1a1.72,1.72,0,0,0-1.69.53C46.37,23.89,46.2,23.91,46.07,24Zm2.87-13.29c0,1.45.09,2.72.11,4,0,.05-.26.14-.4.14-.75,0-1.51-.06-2.26-.14a.51.51,0,0,1-.36-.35c0-1.75.12-3.51.17-5.26,0-.82,0-1.65,0-2.48,0-.54.22-.59.58-.3.76.6,1.52,1.22,2.27,1.83,0,.47-.09,1.07-.1,1.19C48.92,9.75,48.94,10.21,48.94,10.67ZM47.86,3c.93.71,1.85,1.44,2.72,2.22.23.2.87.35.35,1s-.79,1.29-1.57.84A10.83,10.83,0,0,1,46.9,5c-.45-.5,0-1.15.31-1.65C47.49,3.18,47.79,2.92,47.86,3Zm-3-2a4.38,4.38,0,0,1,1.77.21c.54.22.76.69.23,1.28a7.32,7.32,0,0,0-.65,1.28,3.65,3.65,0,0,1-.45.52,2.9,2.9,0,0,0-1.12-2A5.08,5.08,0,0,1,44,1.49C44.3,1.32,44.57,1,44.85,1Zm-2.5,15.59A1.18,1.18,0,0,1,44,15.39a2.05,2.05,0,0,1,1.33,1.91c0,1.32.12,2.64.16,3.95,0,.72,0,1.43,0,2.14,0,.09-.28.24-.41.22a8.11,8.11,0,0,0-1.83-.36c-.7.07-.87-.19-.83-.77a9,9,0,0,1,.17-1C42.47,19.71,42.42,18.15,42.35,16.59Zm.56,7.57a2.65,2.65,0,0,1,1.61.12,1.69,1.69,0,0,1,.94,1.7q-.15,1.23-.18,2.49a8.42,8.42,0,0,0,.17,1.3c0,1.17,0,2.16,0,3.14,0,.16-.37.36-.61.42-.69.18-1.39.32-2.09.43a.46.46,0,0,1-.36-.27c-.08-1.47-.18-2.94-.18-4.42,0-1.22.12-2.45.17-3.68C42.36,24.88,42.24,24.26,42.91,24.16Zm.26,10.12a13.38,13.38,0,0,1,2.09.08,6.21,6.21,0,0,1,.31,1,3.62,3.62,0,0,1-.62-.18c-1.27-.57-1.37-.55-2.44.46,0,0-.19.12-.21.1a.64.64,0,0,1-.15-.28C42,34.65,42.58,34.34,43.17,34.28ZM45.3,8.59c0,1.65,0,3.31,0,5,0,.26.16.51.16.76a3.78,3.78,0,0,1-.17.74l-.64-.28a2.85,2.85,0,0,0-1.5-.17c-.94.41-.78-.18-.78-.71,0-1.42,0-2.84,0-4.26a4.27,4.27,0,0,0-.17-.85c-.26-1.21.65-1.78,1.34-2.45a7.06,7.06,0,0,1,1.34-1c.21-.12.53,0,.8-.07,0,.23,0,.46,0,.68C45.54,6.86,45.33,7.72,45.3,8.59ZM40.45,4.43c.91-.67,1.72-1.27,2.56-1.81s1.12.32,1.55.68.15.81-.22,1.11c-.82.65-1.64,1.29-2.48,1.9a.64.64,0,0,1-.6,0,13.16,13.16,0,0,1-1.07-1.47C40.16,4.79,40.36,4.57,40.45,4.43Zm1,29.06c0,.52-.14.69-.71.35A3.88,3.88,0,0,0,39,33.49c-.55,0-.93-.06-.88-.78.1-1.41.17-2.82.19-4.23,0-.74-.11-1.48-.17-2.22s0-1.31.62-1.55a2.13,2.13,0,0,1,2,.11,1.64,1.64,0,0,1,.82,1.6c-.09,1.65-.13,3.31-.2,5C41.42,32.21,41.44,32.85,41.42,33.49ZM40,34.41a1.66,1.66,0,0,1-.32.17c-.44.1-.88.18-1.33.27s-.78-.16-.3-.39a4.9,4.9,0,0,1,1.64-.26C39.75,34.19,39.86,34.33,40,34.41Zm.84-10.47a5.63,5.63,0,0,0-1.1-.21c-.25,0-.31,0-.37,0l-1.06.21c0-.44-.11-.88-.12-1.32,0-1.33,0-2.65,0-4A15.56,15.56,0,0,0,38,17,1.34,1.34,0,0,1,39,15.29c1.23-.25,2.39.26,2.57,1.18a18.06,18.06,0,0,1,.21,3c0,1.26,0,2.52,0,3.78C41.79,24.17,41.61,24.26,40.8,23.94ZM38.05,10.8c.11-.56,1-1,1.52-1.41s1-.79,1.52-1.19c.7-.51.73-.08.73.37,0,2,0,4.06,0,6.1a2.07,2.07,0,0,1-.08.42,1.56,1.56,0,0,1-.37-.17,2.54,2.54,0,0,0-2.92-.24.61.61,0,0,1-.45-.13A18,18,0,0,1,38.05,10.8Zm-.76-4.3a7.82,7.82,0,0,1,1.3-.8c.37-.2.69-.93,1.2-.27.94,1.2,1,1.68.26,2.32-.54.48-1.13.9-1.71,1.35-.68,0-2.11-1.11-2-1.54A2.56,2.56,0,0,1,37.29,6.5Zm.29,23.27c0,.59-.11,1.17-.18,1.76-.06.8-.15,1.42-.17,2s-.49.36-.64.24a2.15,2.15,0,0,0-2.82-.15s-.37-.2-.37-.3c0-1.44.12-2.88.16-4.33,0-1,0-2,0-3s.57-1.55,1.61-1.32a6.48,6.48,0,0,1,1.06.32,2.12,2.12,0,0,1,1.33,2.35C37.49,28.14,37.6,29,37.58,29.77Zm-4.73-5.92c0,.43-.06.42-.46.22a3.4,3.4,0,0,0-2.67-.27.62.62,0,0,1-.51-.27c0-2-.08-4,0-6.06.06-1.25,2.42-2.34,3.41-1.62a1.23,1.23,0,0,1,.39.92c0,2.08-.11,4.17-.17,6.25C32.85,23.42,32.84,23.64,32.85,23.85ZM31.44,34a3.92,3.92,0,0,0-1.67,0c-.38.07-.59.13-.59-.35,0-2.73,0-5.45.05-8.18,0-.3.56-.74.93-.84a2.34,2.34,0,0,1,2.68,1.19c-.06,2.58-.12,5-.19,7.37C32.62,34.05,32.25,34.21,31.44,34Zm.11.9-.95.18-.51.09a4.75,4.75,0,0,1-1,.23c.28-.23.56-.48.86-.69a.89.89,0,0,1,.55-.17A8.55,8.55,0,0,1,31.55,34.87Zm1-19.86a1.19,1.19,0,0,1-.46-.13c.09-.14.16-.36.29-.42,1.7-.68,2.91-2.05,4.37-3.07.11-.08.38-.15.42-.1a.92.92,0,0,1,.2.54A8.41,8.41,0,0,1,37.24,13c.06.8.14,1.42.17,2,0,.12-.12.25-.19.37a1.13,1.13,0,0,1-.32-.19,2.11,2.11,0,0,0-2.7-.5A7.09,7.09,0,0,1,32.59,15Zm1.17,1.61c0-1,.59-1.26,1.38-1.39a2.35,2.35,0,0,1,2.1,2.29c.08,2.26.2,4.52.28,6.77,0,.07-.27.24-.3.21A3.65,3.65,0,0,0,34.05,24c-.1,0-.45-.41-.45-.62,0-1.51.11-3,.16-4.52C33.79,18.11,33.78,17.36,33.76,16.62Zm-.38,18c.6-.76,1.46-.64,2.29-.63a1,1,0,0,1,.45.44c-.16,0-.35.13-.47.07a1.76,1.76,0,0,0-2,.38,1,1,0,0,1-.44.11A1.8,1.8,0,0,1,33.38,34.63ZM33.6,9.41l1-.83c.92-.75,1-.74,1.64.24a2.13,2.13,0,0,0,.26.26c.45.54.51.88,0,1.26-.73.58-1.43,1.21-2.19,1.74-.4.28-.89.46-1.17-.3-.18-.48-.79-1-.72-1.33S33.2,9.75,33.6,9.41Zm-4.48,3.53a13.28,13.28,0,0,0,1.29-1.09c.94-.87,1.49-1.29,2.08.5.32.41.38.67,0,.93-.87.62-1.72,1.27-2.59,1.89-.52.37-.83.23-1.17-.35C28.07,13.69,28,13.73,29.12,12.94Zm-.67,20c0,.9-.26,1-1.15.87a5.94,5.94,0,0,0-2.27.34c-.51.17-.61.14-.61-.39,0-2.06,0-4.11,0-6.16a4.19,4.19,0,0,1,.38-2,2,2,0,0,1,2.08-.86,1.73,1.73,0,0,1,1.57,2.07C28.4,28.83,28.46,30.88,28.45,32.94Zm-.24,2.23a5.79,5.79,0,0,1-1.1,0,2.85,2.85,0,0,0-2.23.73c0-1,1.31-1.72,2.25-1.38A6.91,6.91,0,0,1,28.21,35.17Zm-.52-11.09a3.66,3.66,0,0,0-1.33-.29,2.91,2.91,0,0,0-.87.32c-.26.17-.51.39-.76.58a8.93,8.93,0,0,1-.1-1c0-1.08.07-2.16.21-3.22a1.63,1.63,0,0,1,.65-.9c.84-.65,1.72-1.25,2.6-1.86.09-.06.3-.08.35,0a.69.69,0,0,1,.2.46c-.05,1.81-.12,3.62-.18,5.42C28.45,24.08,28.61,24.72,27.69,24.08Zm-3-7.8c.73-.51,1.44-1.06,2.16-1.59.22-.15.43-.29.46-.26a9.33,9.33,0,0,1,1.14,1.45c.06.11-.37.55-.63.77-.56.47-1.13.92-1.72,1.34-.4.29-.91.5-1.17-.12S23.69,17,24.67,16.28Zm-4.18,2.91c.73-.55,1.5-1,2.27-1.54a.87.87,0,0,1,1.3.31c.31.42.73.91.12,1.36-1,.75-2,1.42-3,2.12A5.29,5.29,0,0,1,19.92,20C19.85,19.86,20.23,19.39,20.49,19.19Zm3.21,14c0,.62.11,1.17-.9.88a1.53,1.53,0,0,0-1.83.36c-.07.1-.31.08-.48.12a4.34,4.34,0,0,1-.08-.52c.06-1.57.12-3.14.19-4.71,0-1.17,0-2.14,0-3.12,0-.71.23-1.23.95-1.29a3.89,3.89,0,0,1,1.7.15,1.27,1.27,0,0,1,.62,1C23.85,28.45,23.76,30.83,23.7,33.22Zm.05,2.72-.32,0-2,0c-.24-.19-.37-.52-.33-.55.36-.21.78-.57,1.12-.5a5.1,5.1,0,0,1,1.48.8C23.74,35.66,23.73,35.83,23.75,35.94Zm-1.67-12c-.22,0-.44.11-.65.17-.71,0-.92-.37-.47-1a11.26,11.26,0,0,1,1.9-1.74,10.17,10.17,0,0,1,1.2-.7c0,.47,0,.93,0,1.4a1.35,1.35,0,0,1-.06.34A16,16,0,0,1,22.08,23.94ZM19.22,34.19a6.61,6.61,0,0,1-1.09,0,11.3,11.3,0,0,0-1.14.55c-.06,0-.31-.13-.31-.2,0-1.46,0-2.91.08-4.37,0-1.24.1-2.48.19-3.72a2,2,0,0,1,2.61-1.25,1,1,0,0,1,.3.67c-.05,2.64-.11,5.28-.2,7.91C19.65,33.94,19.39,34.16,19.22,34.19Zm.18,1.12a8.59,8.59,0,0,1-.89.19,12.46,12.46,0,0,0-1.21.61,2.83,2.83,0,0,1-.44.11,1.12,1.12,0,0,1,.12-.5A1.78,1.78,0,0,1,19.4,35.31Zm0-11.22a2.7,2.7,0,0,1,.71-.19l-.1.49ZM16.13,22.4a25,25,0,0,1,2.27-1.66,1.12,1.12,0,0,1,1,.08,1.23,1.23,0,0,1-.08,2.07c-.47.36-.89.78-1.36,1.15s-.87.47-1.22-.19c-.19-.36-.5-.65-.71-1C16,22.75,16.1,22.56,16.13,22.4Zm-4,3.12C13,24.75,14,24,15,23.33c.1-.08.38,0,.52.09s.17.28.27.43c.75,1.13.75,1.13-.16,2-.86.49-1.53,1-2.23,1.46a.58.58,0,0,1-.55-.07A5,5,0,0,1,12,26.22.77.77,0,0,1,12.11,25.52Zm3.74,8.39c0,.57,0,1.08-.85.65a2.29,2.29,0,0,0-1.35,0c-1,.18-.88-.23-.56-.86.05-.09,0-.24,0-.36,0-1.44,0-2.69,0-3.94a1.29,1.29,0,0,1,.38-.84c.64-.53,1.33-1,2-1.48.14-.09.42-.2.48-.14a.76.76,0,0,1,.2.54C16.1,29.61,16,31.76,15.85,33.91Zm.08,2.29a3.11,3.11,0,0,1-.32,0c-.73,0-1.47-.05-2.2-.12-.12,0-.21-.27-.31-.41a2,2,0,0,1,2.75.23C15.91,36,15.91,36.11,15.93,36.2Zm-3.56-3.81A14.1,14.1,0,0,0,12.2,34c0,.66-.3.79-.83.71-.13,0-.25-.15-.38-.18a8.82,8.82,0,0,1-1.47-.26,9.3,9.3,0,0,1,.26-2.53c.11-.41.57-.73.89-1.08a1.79,1.79,0,0,1,.36-.21l1.26-.69c0,.57.06,1.14.08,1.71C12.38,31.76,12.37,32.08,12.37,32.39ZM7.68,28.92c1-.63,1.85-1.41,2.76-2.14.47-.38.74-.49,1.17.18s.74,1.35-.15,1.93c-1,.75-1.92,1.39-2.81,2.08-.44.34-.66.25-.85-.24-.11-.29-.28-.56-.42-.84S7.2,29.23,7.68,28.92Zm1.22,3.9c-.08.48-.19,1-.25,1.45-.11.93-.52.92-1.12.38-.52.05-.86.14-1.2.16-.15,0-.31-.13-.46-.19a1.3,1.3,0,0,1,.25-.35c.75-.59,1.5-1.18,2.26-1.75a2,2,0,0,1,.5-.18A2.57,2.57,0,0,1,8.9,32.82Zm-5.23,2c-1,.79-1.35.68-1.72-.58A1.27,1.27,0,0,0,1.77,34a34.63,34.63,0,0,1,2.9-2.82c.36-.32.81-.55,1.17-.88.52-.48.85-.22,1,.28.56,1.41.34,1.83-1.39,3C4.87,33.94,4.26,34.36,3.67,34.82Zm1.4,1.45a4,4,0,0,1-.92,0l.73-.68a3.56,3.56,0,0,1,2.81,0,2.27,2.27,0,0,0,1.58,0,2.94,2.94,0,0,1,2.66.19c.12.07.17.29.25.44a1.32,1.32,0,0,1-.33.08c-.92,0-1.85-.08-2.76,0a2.17,2.17,0,0,1-1.43-.19A3.17,3.17,0,0,0,5.07,36.27ZM78.42,37.4c-.33.41-1.21.45-1.85.46-1.89,0-3.78,0-5.66,0-2.66,0-5.31.08-8,.1-1.19,0-2.39,0-3.59,0-3.84,0-7.68,0-11.52.08-.89,0-1.78.1-2.67.15-1.43,0-2.68,0-3.93,0-2.41,0-4.83-.06-7.23.14-6.34.51-12.68.13-19,.15-2.47,0-5,0-7.43-.06a2.42,2.42,0,0,1-.54,0c-.47-.11-1-.24-.84-.89s.65-.62,1.15-.56c.1,0,.19.12.29.18a1.82,1.82,0,0,0,2.4.05,1.71,1.71,0,0,1,1.28,0,4.71,4.71,0,0,0,2.5-.19,2.29,2.29,0,0,1,1.47.12c1,.59,1.47.68,2.32-.08a1.39,1.39,0,0,1,2-.17,1.86,1.86,0,0,0,2,.06,1.66,1.66,0,0,1,1.8.11,1.34,1.34,0,0,0,1.8-.21A2.17,2.17,0,0,1,28,36.38c.54.3.94.44,1.48,0a2.14,2.14,0,0,1,2.31-.17,1.54,1.54,0,0,0,2-.33c.72-.89,1.1-.9,2.38-.19.42.23.82.51,1.25.75s.47.26.5-.31a.55.55,0,0,1,.16-.3,2.71,2.71,0,0,1,2.46-.28,11.89,11.89,0,0,1,1.45.92c.46.41.78.17.94-.17.37-.83,1-.64,1.55-.4,1,.46,1.83.65,2.74-.29.48-.48,1.27-.23,1.82.28.79.73.87.72,1.52-.18a1.63,1.63,0,0,1,2.32-.33,3.63,3.63,0,0,0,1,.57,1.11,1.11,0,0,0,.85-.16,2,2,0,0,1,3,0,1,1,0,0,0,1.33,0,2.91,2.91,0,0,1,3,.21,1.25,1.25,0,0,0,1.56-.18,2.33,2.33,0,0,1,1.74-.14c.88.23,1.65.53,2.52-.11.72-.53,1.51-.06,2.2.29a1.32,1.32,0,0,0,1.73-.12c.35-.29,1.08-.18,1.63-.14a2,2,0,0,1,.83.41c.78.53,1.43.64,2.12-.23.21-.27,1.05-.24,1.49,0A1.14,1.14,0,0,1,78.42,37.4ZM76,34.1c.15-.09.22-.1.27-.08l1,.43L76,34.93Zm1-.66c-.29-.09-.74-.23-.9-.09-.59.5-.59.18-.62-.33-.05-.89-.15-1.77-.22-2.65a1.26,1.26,0,0,1,0-.33c.15,0,.34,0,.44.11q1.86,1.58,3.68,3.19c.3.27.87.62,0,.89C78.41,34,77.67,33.68,76.92,33.44Zm3.15,1.89a2.14,2.14,0,0,1-.56-.18c.06-.24.2-.5.35-.5a2.77,2.77,0,0,1,.85.26c.06,0,.06.16.09.25A3.85,3.85,0,0,1,80.07,35.33Zm3.81-.14c-.59.51-1,.05-1.43-.36-1-1-2-1.91-3-2.89a3,3,0,0,1-.4-.75c.71-1.2.85-1.25,1.88-.47s2,1.55,3,2.36A1.49,1.49,0,0,1,83.88,35.19Z"/></g></g></svg>