<svg xmlns="http://www.w3.org/2000/svg" viewBox="0 0 33.46 148.54"><defs><style>.cls-1{fill:#e0d680;}.cls-2{fill:#7f7f7f;}</style></defs><g id="Layer_2" data-name="Layer 2"><g id="street-light-1-front"><polygon id="fill3" class="cls-1" points="6.47 23.75 8.14 29.04 11.07 39.51 16.35 39.85 20.57 39.66 23.72 30.85 26.84 24.15 6.47 23.75"/><path id="fill2" class="cls-2" d="M33.09,25.11a2.63,2.63,0,0,0-2.84-1.45c-.61.06-.61.06-.48-.49a1.58,1.58,0,0,0-1.23-2.05,9.06,9.06,0,0,0-1.3-.15,1.2,1.2,0,0,1-.63-.18A16.69,16.69,0,0,0,20,17.2a.7.7,0,0,1-.32-.63,14.91,14.91,0,0,1,.69-1.66c.3-.69.48-1.84-.36-2.38-.5-.34-1.07-.58-1.6-.89-.17-.1-.45-.27-.43-.38a2.26,2.26,0,0,0-.88-2.4.46.46,0,0,1-.14-.33,26.86,26.86,0,0,1-.35-2.84c0-1.59,0-3.2,0-4.8A3.65,3.65,0,0,0,16.37,0c-.19.31-.38.62-.56.93,0,0,0,.1,0,.16-.14,1.89-.21,3.8-.46,5.69a4.47,4.47,0,0,1-.74,2.63c-.16.19-.09.61,0,.91s.22.64.28,1a.56.56,0,0,1-.25.38,7.74,7.74,0,0,0-1.08,0c-1.17.29-1.66,1.21-1.21,2.1s.79,1.76,1.22,2.63c.25.51,0,.64-.45.69A10.08,10.08,0,0,0,8,19.32a4.69,4.69,0,0,1-3.29,1.32c-1.4,0-1.94,1.12-1.24,2.28a1.9,1.9,0,0,0,1.85,1.21c.12,0,.29.23.34.39a.85.85,0,0,1-.09.53s-.33,0-.35,0c-.26-.67-1-.57-1.48-.8A2.55,2.55,0,0,0,.64,25a2.43,2.43,0,0,0-.33,2.84,1.35,1.35,0,0,0,1.6.59c.56-.08.74-.52.68-1.05-.07-.7.49-1,1-1.15a2,2,0,0,1,2.1.82,2.23,2.23,0,0,1,.5,2.11c-.29.45-.49.81-1.12.57a1.14,1.14,0,0,0-1,.45,1.16,1.16,0,0,0,0,1,1.92,1.92,0,0,0,2.55.22c.52-.47.58-.3.71.25.51,2.24,1.06,4.48,1.62,6.7.15.61.45,1.17-.06,1.84-.17.23,0,.75.1,1.11s.08.52-.33.51H8.11a2.29,2.29,0,0,0-1.94,2.72c.24.62.81.7,1.4.63.36,0,.78.22,1-.36.65-1.52,2-1.79,3-.72a1.37,1.37,0,0,1,.16-.24,2.39,2.39,0,0,1,.09.53l-.05-.05-.2-.24c-.16.33-.34.83-.39.95-.08.28-.17.69,0,.85a9.6,9.6,0,0,0,1.28,1.27A6.57,6.57,0,0,1,9.68,48c-.24,0-.67.09-.7.21a1.18,1.18,0,0,0,.09.85c.41.73,1.38.94,2.51.6.49-.16.82-.2.82.46a1.51,1.51,0,0,0,.3.66c.18.29.39.57.58.86-.26,0-.58-.1-.78,0-.58.32-1.32.52-1.39,1.37s.23,1.53.91,1.72.64.41.6.92c-.19,2.49-.33,5.2-.32,7.7,0,1.42.17,2.84.2,4.27,0,1.19-.09,2.39-.11,3.59,0,3,0,6.07-.05,9.1,0,1.65-.07,3.29-.09,4.93q-.06,3.11-.09,6.21c0,2.71-.05,5.43-.06,8.14,0,3.84,0,7.69,0,11.53,0,.88-.07,1.78-.14,2.67a.73.73,0,0,1-.23.45,1.49,1.49,0,0,0-.48,2.11A2.88,2.88,0,0,1,11.4,118c-.3,1.5-.77,3-1.1,4.44s-.54,2.94-.81,4.41c-.38,2-.78,3.95-1.16,5.94-.3,1.58-.67,3.17-.84,4.77A8.68,8.68,0,0,0,8,142.33c.39.85.43.83-.53.84a4,4,0,0,0-.49,0c-.55.12-1.19.32-1.23.92-.07.8-.48.83-1.1.89a2.28,2.28,0,0,0-2.28,1.55,10.89,10.89,0,0,0-.29,1.8c0,.05.27.19.41.19.33,0,.65-.14,1-.16,2.53-.09,5.07-.2,7.61-.25,1,0,2.05.08,3.07.11,3,.08,6,.17,9,.21,1.59,0,3.17,0,4.75-.08a1.42,1.42,0,0,0,1-.54A2,2,0,0,0,27.14,145a1,1,0,0,1-1.1-.6c-.36-1-1.2-1.07-2-1.14-.59-.05-1.18,0-1.77,0-.26,0-.59,0-.23-.44a6.71,6.71,0,0,0,1.48-4.35,33.5,33.5,0,0,0-.53-5.27c-.32-2.07-.86-4.12-1.16-6.2s-.36-3.94-.59-5.91c-.1-.9-.45-1.79-.47-2.69s-.45-1.63.05-2.56c.63-1.17.16-1.77-1.18-2a.78.78,0,0,1-.4-.59c-.06-1.51-.06-3-.07-4.54-.06-4.11-.12-8.22-.15-12.34,0-1.29.08-2.59.1-3.87,0-2.37.1-4.74.06-7.1-.06-4.46-.19-8.92-.32-13.37,0-1.72-.15-3.44-.22-5.16-.09-2.85-.2-5.92-.12-8.75,0-.7.19-2.49.16-3.19a.39.39,0,0,0-.09-.21,2,2,0,0,1-.58.08h-.19c.1-.16.29-.31.41-.47.1.13.26.26.36.38a1.56,1.56,0,0,0,1-1c.29-.76-.07-1.19-.56-1.65-.15-.16-.08-.58,0-.86a6.66,6.66,0,0,0,.49-1.56c0-.47,0-.41.4-.36a13.3,13.3,0,0,0,2.08.19c.27,0,.74-.2.79-.38a2.52,2.52,0,0,0-.05-1.22,2.76,2.76,0,0,0-.82,0,.8.8,0,0,0-.3,0A1.24,1.24,0,0,1,20,47.5c-.37-.46,0-.83.3-1.21a1.07,1.07,0,0,0,.26-.7,2.23,2.23,0,0,1,1.8-2.16c.4-.08,1-.1,1.21.13s.11.84-.07,1.18c-.34.66,0,.8.48.88a1.5,1.5,0,0,0,1.64-1.1,2.41,2.41,0,0,0-2.88-2.84c-.27,0-.7,0-.8-.09s0,0,0,0a5.75,5.75,0,0,0,.66-1c0-.23-.16-.46-.2-.69a1.48,1.48,0,0,1,0-.72c.68-1.84,1.4-3.66,2.08-5.51.38-1.06.71-2.16,1.08-3.23a3.21,3.21,0,0,1,.42-.64c.12.18.32.34.36.54.12.61.55.78,1.08.94a1.12,1.12,0,0,0,1.47-.52c.23-.51.21-1.18-.71-1.18-.17,0-.44-.4-.43-.61a3.3,3.3,0,0,1,2.15-3.08c.66-.23,1.2-.21,1.46.38s-.1.88-.63,1.17-.69.61-.13,1.06A1.94,1.94,0,0,0,33,27.94,2.7,2.7,0,0,0,33.09,25.11ZM10.88,39.48l-.23-1.09L7.93,28.24,6.47,23.92h4.41l4.84.08.06,1.18v0s0,0,0,.06c.07,1.47.11,2.93.12,4.4a7.09,7.09,0,0,0,0,1.22V31a.43.43,0,0,0,0,.11v.1c0,.23-.07.46-.11.7a10.11,10.11,0,0,0-.06,2.2,29,29,0,0,1-.06,4.47.37.37,0,0,0-.09.24v.52c0,.1,0,.21,0,.31Zm10.46-2.17-.83,2.54-3.46-.13c0-.33,0-.69,0-1a13,13,0,0,0-.12-2.16s0,0,0,0a2.78,2.78,0,0,0,0-.51l0-1.38c0-.39.05-.79.07-1.18,0-1,.05-2,.05-3.05,0-.23,0-.46.06-.69a15.07,15.07,0,0,0,.08-2.42c0-.25,0-.51,0-.76a2.68,2.68,0,0,0-.07-1,.54.54,0,0,0-.1-.16v-.07A3.34,3.34,0,0,0,17,24l9.71.16Z"/><path id="fill1" d="M33.09,25.11a2.63,2.63,0,0,0-2.84-1.45c-.62.06-.62.06-.48-.49a1.58,1.58,0,0,0-1.23-2.05,9.23,9.23,0,0,0-1.3-.15,1.12,1.12,0,0,1-.63-.19A16.73,16.73,0,0,0,20,17.2a.69.69,0,0,1-.32-.63,15,15,0,0,1,.7-1.66c.29-.7.47-1.83-.37-2.38-.5-.34-1.07-.58-1.6-.89-.17-.1-.45-.27-.43-.38a2.26,2.26,0,0,0-.88-2.4.53.53,0,0,1-.14-.33,27,27,0,0,1-.35-2.83c0-1.6,0-3.21,0-4.81A3.68,3.68,0,0,0,16.37,0c-.19.31-.38.62-.56.93a.4.4,0,0,0,0,.16c-.14,1.9-.21,3.8-.46,5.69a4.56,4.56,0,0,1-.74,2.63c-.16.19-.09.61,0,.9s.21.65.27,1c0,.12-.15.37-.25.38a9.54,9.54,0,0,0-1.08.05c-1.17.29-1.66,1.21-1.21,2.1s.79,1.77,1.22,2.63c.25.5,0,.64-.45.69A10,10,0,0,0,8,19.32a4.73,4.73,0,0,1-3.29,1.32c-1.4,0-1.94,1.12-1.24,2.28a1.91,1.91,0,0,0,1.86,1.21c.11,0,.29.23.33.39a.82.82,0,0,1-.09.52s-.33,0-.35,0c-.26-.67-1-.57-1.48-.81A2.55,2.55,0,0,0,.64,25a2.45,2.45,0,0,0-.33,2.85c.31.65,1,.67,1.61.58s.73-.52.67-1.05c-.08-.7.49-1,1-1.16a2,2,0,0,1,2.1.83,2.19,2.19,0,0,1,.51,2.11c-.29.45-.49.81-1.12.57a1.19,1.19,0,0,0-1,.45,1.16,1.16,0,0,0,0,1,1.91,1.91,0,0,0,2.55.22c.52-.47.58-.3.71.25.5,2.24,1.06,4.47,1.62,6.7.15.61.45,1.16-.06,1.84-.17.23,0,.75.09,1.1s.1.53-.32.52H8.11a2.28,2.28,0,0,0-1.94,2.71c.24.63.81.71,1.41.64.35,0,.77.22,1-.36.65-1.52,1.95-1.78,3-.7a7.49,7.49,0,0,0-.37.93c-.1.27-.18.68,0,.85a8.48,8.48,0,0,0,1.28,1.26A6.63,6.63,0,0,1,9.68,48c-.24,0-.66.09-.7.21a1.19,1.19,0,0,0,.09.85,2,2,0,0,0,2.51.6c.49-.15.82-.2.82.46a1.51,1.51,0,0,0,.3.66c.18.29.39.57.58.85-.26,0-.58-.09-.78,0-.58.32-1.32.52-1.39,1.37s.23,1.53.91,1.71.64.42.6.93c-.19,2.48-.33,5.19-.32,7.69,0,1.43.17,2.85.19,4.28,0,1.2-.08,2.39-.1,3.59,0,3,0,6.07-.05,9.1,0,1.65-.07,3.29-.1,4.93q0,3.11-.08,6.21,0,4.08-.06,8.14c0,3.85,0,7.69,0,11.53,0,.89-.07,1.78-.14,2.67a.7.7,0,0,1-.23.45,1.49,1.49,0,0,0-.48,2.11A2.88,2.88,0,0,1,11.4,118c-.31,1.5-.77,3-1.1,4.44s-.53,2.94-.81,4.4c-.38,2-.78,4-1.16,6-.3,1.59-.67,3.17-.85,4.78A8.76,8.76,0,0,0,8,142.33c.39.85.43.83-.54.85a1.92,1.92,0,0,0-.48,0c-.55.12-1.19.32-1.24.92-.06.8-.47.83-1.09.89a2.29,2.29,0,0,0-2.28,1.55,10.72,10.72,0,0,0-.29,1.8c0,.05.27.19.41.19.33,0,.65-.14,1-.16,2.53-.09,5.07-.19,7.6-.25,1,0,2.05.09,3.08.11,3,.08,6,.16,9,.21,1.58,0,3.17,0,4.75-.08a1.42,1.42,0,0,0,1-.54A2,2,0,0,0,27.13,145a1,1,0,0,1-1.09-.6c-.36-1-1.2-1.07-2-1.14-.59-.05-1.18,0-1.77,0-.26,0-.59,0-.23-.44a6.65,6.65,0,0,0,1.47-4.35,32.33,32.33,0,0,0-.52-5.27c-.32-2.07-.86-4.12-1.16-6.2s-.37-3.94-.59-5.91c-.1-.9-.45-1.79-.47-2.69s-.44-1.63.05-2.56c.63-1.17.17-1.77-1.18-2-.17,0-.39-.38-.4-.58-.05-1.51-.06-3-.08-4.54-.05-4.11-.11-8.22-.14-12.34,0-1.29.08-2.58.1-3.88,0-2.36.1-4.73.07-7.09-.08-4.46-.2-8.92-.33-13.37,0-1.72-.15-3.44-.21-5.16-.1-2.85-.21-5.92-.13-8.75,0-.7.19-2.49.16-3.18a.33.33,0,0,0-.09-.21,1.55,1.55,0,0,0,1-1.06c.29-.76-.08-1.19-.56-1.66-.15-.14-.09-.57,0-.85a6.59,6.59,0,0,0,.49-1.57c0-.46,0-.4.4-.34a13.3,13.3,0,0,0,2.08.19c.27,0,.74-.21.79-.39a2.52,2.52,0,0,0-.05-1.22c0-.06-.53,0-.81,0a1,1,0,0,0-.31.06A1.26,1.26,0,0,1,20,47.5c-.37-.47,0-.83.3-1.21a1.14,1.14,0,0,0,.26-.7,2.23,2.23,0,0,1,1.8-2.16c.4-.09,1-.1,1.22.13s.1.84-.08,1.19c-.34.65,0,.79.49.87a1.48,1.48,0,0,0,1.63-1.1,2.41,2.41,0,0,0-2.88-2.84c-.27,0-.7,0-.8-.1l0,0a5.2,5.2,0,0,0,.65-1c0-.24-.15-.46-.19-.7a1.44,1.44,0,0,1,0-.71c.68-1.84,1.4-3.67,2.08-5.51.39-1.07.7-2.16,1.08-3.23a3.21,3.21,0,0,1,.42-.64c.13.18.32.34.36.54.12.61.55.78,1.08.94a1.13,1.13,0,0,0,1.48-.51c.22-.52.2-1.19-.73-1.19-.16,0-.43-.4-.42-.61a3.29,3.29,0,0,1,2.15-3.08c.66-.23,1.19-.21,1.46.38s-.11.88-.64,1.16-.68.62-.13,1.07A1.93,1.93,0,0,0,33,27.94,2.7,2.7,0,0,0,33.09,25.11ZM4.25,25.4a2.55,2.55,0,0,0-2,.51c-.44.37-.87.74-.49,1.39.09.14-.1.45-.16.69-.21-.13-.49-.21-.61-.39a4.31,4.31,0,0,1-.31-1,2.48,2.48,0,0,1,3.39-1.89.81.81,0,0,1,.27.11c.32.22.62.44.93.67C4.93,25.48,4.59,25.42,4.25,25.4ZM15.86,7s.13-.09.19-.08.11.09.12.15c0,.5.06,1,.09,1.51a.72.72,0,0,1-.47.16C15.79,8.13,15.82,7.55,15.86,7ZM15.4,9.4a5.92,5.92,0,0,1,1.19,0c.1,0,.18.17.27.27a5.75,5.75,0,0,1,.12,1.1c-.37,0-.83.22-1.08.07a3,3,0,0,1-.81-1.05S15.28,9.41,15.4,9.4Zm-2.22,4.38c-.55-.64-.44-1,.32-1.3A5.24,5.24,0,0,1,17,12c.16,0,.28.2.44.27a3.9,3.9,0,0,0,1.14.48,1.2,1.2,0,0,1,1,1.81c-.2.44-.41.87-.57,1.32-.42,1.22-.71,1.42-1.85,1.23-.73-.12-1.46-.21-2.2-.3-.89-.11-.82-.94-1.11-1.49S13.4,14.29,13.18,13.78ZM8,20.11a16.6,16.6,0,0,1,4.89-2.35c1.13-.37,2.2,0,3.29-.17.08,0,.21,0,.23,0,.33.7.94.26,1.43.28,2.47-.12,4.26,1.08,6.18,2a7.25,7.25,0,0,1,1.19.72c.11.09.12.31.18.47a.9.9,0,0,1-.34.11c-1.16,0-2.32-.09-3.48-.11-2.25,0-4.51,0-6.76-.09s-4.43-.15-6.65-.24a2.48,2.48,0,0,1-.49-.15A2.18,2.18,0,0,1,8,20.11ZM5.6,23.29c-.69-.05-1.46-.08-1.73-.92-.17-.53-.05-1,.51-1.07,1.25-.07,2.5,0,3.75.06,1.76,0,3.36.05,4.95.1,1.76.07,3.52.21,5.28.24.9,0,1.82-.16,2.72-.16s2.06.09,3.09.1c1.2,0,2.4,0,3.59,0A1.23,1.23,0,0,1,29,23.33a.68.68,0,0,1-.52.33c-2.19.05-4.38.09-6.57.09-1.78,0-3.56-.06-5.35-.09s-3.62-.05-5.43-.11S7.44,23.42,5.6,23.29ZM17.4,39.12a.36.36,0,0,1-.07-.17.62.62,0,0,1,0-.27,2.26,2.26,0,0,0,0-.52s0,0,0-.07,0-.19,0-.29c0-1.44,0-2.88.05-4.33,0-1.29.13-2.58.17-3.86s0-2.8,0-4.2c0-.1,0-.24,0-.29-.54-.56-.06-.51.33-.52l4.53-.05,2.92,0c.3,0,.43,0,.57,0l.46,0c-.09.15-.18.29-.26.44a40.81,40.81,0,0,0-3,6.94c-.68,2-1.49,3.9-2.24,5.85-.64,1.65-.63,1.65-2.47,1.67a1.93,1.93,0,0,1-.48,0,.83.83,0,0,1-.16-.09.25.25,0,0,1-.15,0,.58.58,0,0,1-.14-.13l0,0h0Zm-.59-.55c0,.54,0,1-.8.93h-.29a5.86,5.86,0,0,0,.27-1c0-1.07,0-2.14,0-3.21.09-1.81.22-3.46.22-5.11s-.13-3.39-.18-5.09c0-.13.2-.4.31-.41a1.19,1.19,0,0,1,.61.22c.05,0,0,.2,0,.3,0,1.5,0,3-.05,4.49,0,1.66-.19,3.32-.22,5C16.66,36,16.76,37.26,16.81,38.57Zm-10-7.91a1.5,1.5,0,0,1-1.63.41A1.21,1.21,0,0,1,5,31l-.59-.49a4.66,4.66,0,0,1,.83,0,1.3,1.3,0,0,0,1.33-.85c.06-.11.26-.16.4-.24C7,29.86,7.05,30.41,6.81,30.66Zm.47-2.42c-.1-.12-.25-.22-.3-.36-.21-.65-.4-1.3-.6-1.95a6,6,0,0,1-.26-1.17.78.78,0,0,1,.12-.34c.12.08.32.13.35.24.3,1,.57,2.06.83,3.1C7.45,27.9,7.33,28.08,7.28,28.24Zm0-3c0-.05-.05-.09-.07-.13-.09-.23-.19-.45-.28-.67H8.21c2.13,0,4.26.07,6.4.08.6,0,.91.1.9.83-.06,2.22,0,4.44,0,6.66,0,2-.07,4-.11,5.95a2.11,2.11,0,0,0,0,.56c.05.17.08.65.14,1-1.19,0-2.38,0-3.55-.13a1.12,1.12,0,0,1-.8-.66c-.92-3.2-1.76-6.43-2.66-9.64C8.13,27.74,7.65,26.47,7.23,25.19Zm1.51,9.39c-.32-1.25-.6-2.51-.86-3.78a4.78,4.78,0,0,1,0-1.13,3.63,3.63,0,0,1,.5.87c.4,1.53.74,3.08,1.11,4.63.37,1.26.67,2.44,1,3.62a1.63,1.63,0,0,1-.06.57c-.16-.14-.42-.25-.47-.43C9.52,37.49,9.11,36,8.74,34.58Zm2.4,8.16a7.44,7.44,0,0,0-2,.23,3.22,3.22,0,0,0-1.28,1.21c-.17.24,0,.82-.53.64-.3-.11-.67-.8-.56-1a4.4,4.4,0,0,1,1.38-1.37,4.66,4.66,0,0,1,1.48-.37c.65.11,1.14.2,1.62.33.09,0,.14.14.21.21A1.82,1.82,0,0,1,11.14,42.74Zm.5.18.43,0c.36.37.65.66.92,1,0,0-.08.15-.13.23-.28-.25-.57-.48-.84-.74A3.66,3.66,0,0,1,11.64,42.92Zm.65-.92c.16-.08.38-.26.46-.22a2.79,2.79,0,0,1,.94.7,5,5,0,0,1,.58,1.24c.13.34,0,.47-.39.43-.36-.77-.49-1.57-1.4-1.78C12.39,42.35,12.35,42.13,12.29,42Zm.16,6.41c-.73.46-1.45,1-2.34.59a1.69,1.69,0,0,1-.41-.35,1.77,1.77,0,0,1,.51,0,4.18,4.18,0,0,0,2.5-1.26,3.42,3.42,0,0,0,.73,0l-.51.57A2.91,2.91,0,0,1,12.45,48.41Zm.6,1.42a2.66,2.66,0,0,1,1.85-2.49,8.41,8.41,0,0,1,2.35,0,2.28,2.28,0,0,1,1.43,3.11A2.66,2.66,0,0,1,16,51.84C14.26,51.85,13.73,51.33,13.05,49.83Zm-1.34,70.62-.21.14-.11-.4A.49.49,0,0,1,11.71,120.45Zm.64-.66a2.27,2.27,0,0,1,.19-.34c0,.13.14.27.12.4-.15,1.21-.33,2.42-.5,3.63s-.33,2.42-.53,3.63c-.35,2.12-.74,4.23-1.1,6.35a19.94,19.94,0,0,0-.38,2.4c-.1,2.09-.41,4.21.39,6.24.1.25.23.5.32.75a1,1,0,0,1,0,.35c-.13,0-.33,0-.37,0a12,12,0,0,1-.94-1.62c-.8-1.83-.52-3.72-.24-5.61l.3-1.88c.21-1.14.45-2.11.64-3.1.26-1.39.47-2.79.72-4.19.32-1.79.64-3.58,1-5.37C12.07,120.85,12.21,120.32,12.35,119.79ZM12.06,118l.27.21a.72.72,0,0,1-.26.38Zm1.09-.26c0-.15.28-.29.42-.43.13.17.36.35.35.51-.06,1.3-.15,2.6-.26,3.89-.18,2-.39,4.07-.56,6.1-.11,1.3-.18,2.6-.28,3.89-.18,2.2-.45,4.39-.53,6.58,0,1.38.18,2.77.26,4.16a4.11,4.11,0,0,1-.12.77c-.24-.11-.6-.15-.7-.33a5.25,5.25,0,0,1-.85-2c-.09-1.78,0-3.58.06-5.37,0-.35,0-.7,0-1,.26-1.29.57-2.4.75-3.54q.66-3.91,1.19-7.85c.17-1.21.21-2.43.28-3.65C13.18,118.91,13.11,118.33,13.15,117.77Zm4,12.25c0,1.85,0,3.71-.09,5.56s-.16,3.94-.25,5.9a6.94,6.94,0,0,1-.16,1.38c0,.15-.38.39-.47.34-.25-.11-.57-.33-.61-.55-.16-.81-.21-1.65-.3-2.47-.06-2.39-.06-4.7,0-7,.05-1.73.15-3.45.25-5.18.13-2.13.26-4.27.41-6.4.08-1.22.16-2.44.29-3.65,0-.17.24-.32.37-.47a1.92,1.92,0,0,1,.4.46c.07.13,0,.31,0,.48C17.05,122.28,17.11,126.15,17.14,130Zm-2-6.72c0,.81-.1,1.62-.13,2.42-.05,1.22-.08,2.43-.12,3.64-.07,2.8,0,5.6-.25,8.39a20.44,20.44,0,0,0,.24,4.63c.05.31.22.82-.37.86s-1.07.19-1.23-.61a19.33,19.33,0,0,1-.09-6.57c.17-1.12.2-2.27.3-3.41q.27-3.32.56-6.65c.05-.6.11-1.19.13-1.79.05-1.53.05-3.06.12-4.59a17.25,17.25,0,0,1,.29-1.89c.5-.41.81-.28.79.23C15.32,119.74,15.22,121.52,15.13,123.3Zm-7.07,15c.25-1.43.37-2.89.61-4.32.28-1.61.64-3.21.95-4.82s.56-3,.86-4.45c.24-1.16.5-2.31.77-3.46a1.41,1.41,0,0,1,.17-.35c.05.16.16.33.13.47-.12.74-.29,1.48-.44,2.22-.2,1-.41,1.92-.61,2.88-.32,1.84-.64,3.53-.95,5.22s-.62,3.12-.84,4.7c-.13.95-.09,1.93-.14,2.9a5.84,5.84,0,0,0,.71,3,2.27,2.27,0,0,1,.09.65,2.36,2.36,0,0,1-.44-.38A5.56,5.56,0,0,1,8.06,138.31Zm19.07,7.36a1.21,1.21,0,0,1,1.17,1.26c-.07.69-.61.67-1.1.67l-6.36-.08c-1.59,0-3.18-.08-4.76-.1-2.34,0-4.67,0-7-.08-1.58,0-3,0-4.42.06-.49,0-1,.15-1.46.17s-.59-.22-.32-.63A2.54,2.54,0,0,1,5,145.62c3.89-.05,7.77-.11,11.66-.14,2.25,0,4.51,0,6.76.08C24.66,145.58,25.9,145.62,27.13,145.67Zm-2.55-1.57a.82.82,0,0,1,.49.16,1.74,1.74,0,0,1,.31.47c-.18.11-.37.31-.55.31-1.24,0-2.47-.08-3.71-.1l-6-.09c-1.24,0-2.32-.13-3.39-.11-1.56,0-3.12.16-4.68.2a3.07,3.07,0,0,1-.87-.29c.27-.28.52-.78.8-.79,1.65-.07,3.32,0,5,0,1.05,0,2.1-.1,3.16-.1,1.22,0,2.44.06,3.67.09.56,0,1.14,0,1.7,0C21.88,143.9,23.23,144,24.58,144.1Zm-6.94-25.71a2.73,2.73,0,0,1,0-.64.45.45,0,0,1,.31-.28c.11,0,.27.17.31.29a2.58,2.58,0,0,1,0,.56c.08,2,.14,4,.24,6,.12,2.42.31,4.84.39,7.26A60.55,60.55,0,0,1,19,138a35.38,35.38,0,0,1-.91,4.83c0,.11-.17.19-.27.29-.72,0-.47-.52-.48-.86s.11-.92.13-1.39c.08-2.71.19-5.43.21-8.15C17.68,128,17.65,123.17,17.64,118.39Zm1.93,13c0-1.37-.12-2.74-.21-4.11-.12-2-.26-4.09-.39-6.13-.06-.91-.15-1.83-.18-2.74a2.45,2.45,0,0,1,.23-.76,3.21,3.21,0,0,1,.22.79c0,.94,0,1.88.06,2.81.11,2.18.25,4.36.39,6.54.13,2,.28,3.92.39,5.89.09,1.5.23,3,.2,4.51a26.63,26.63,0,0,1-.42,3.18,12.28,12.28,0,0,1-.78,1.76c0,.08-.28.06-.43.08l.06-.33c.26-1.65.88-3.23.81-5C19.44,135.71,19.58,133.53,19.57,131.35Zm2.06,1a2.65,2.65,0,0,1,.32.5,2.42,2.42,0,0,1,.07.54c.17,1,.38,1.78.5,2.6a9.45,9.45,0,0,1-.42,4.8,2.92,2.92,0,0,1-.37.57,4,4,0,0,1-.1-.67c.08-1.56.24-3.13.24-4.69,0-1-.23-2-.33-3.07A2,2,0,0,1,21.63,132.38Zm-.84-6.47c.11,1.94.15,3.88.24,5.82.12,2.34.36,4.68.37,7a21.1,21.1,0,0,1-.57,3.76,1.38,1.38,0,0,1-.26.53,1.37,1.37,0,0,1-.33.25c-.06-.19-.18-.39-.15-.55a8.63,8.63,0,0,0,.4-1.35c.12-1.88.27-3.77.24-5.66,0-2.13-.26-4.25-.36-6.37-.06-1.22,0-2.43-.06-3.65s-.41-2-.5-3c-.13-1.37-.16-2.74-.22-4.11,0-.12.1-.24.16-.36a1.4,1.4,0,0,1,.15.3c.18,1.38.36,2.76.53,4.14C20.56,123.75,20.72,124.82,20.79,125.91ZM19.54,114.7c.35,0,.9-.13.76.45a1.25,1.25,0,0,1-.83.8c-2.2.14-4.4.19-6.6.28-.74,0-1.22,0-1.23-.79s.5-.82,1-.82c1.59,0,3.17.07,4.76.1C18.13,114.73,18.84,114.69,19.54,114.7ZM12.88,83.86c0-1.89.22-3.78.23-5.67,0-5,0-10,0-15.06,0-2.23,0-4.67.14-6.88,0-.18.09-.4,0-.55-.3-.65.09-.67.57-.69,1.33,0,2.66-.17,4-.18a.46.46,0,0,0-.08.19c0,.5,0,2.09,0,2.61-.08,3.12,0,6.48.11,9.62.1,3.36.24,6.72.28,10.07,0,4.09,0,8.17,0,12.25,0,2.72-.08,5.43-.05,8.14,0,2.93.19,5.86.25,8.79,0,.75-.11,1.51-.11,2.27,0,1.53,0,3.06.06,4.58,0,.57-.16.76-.72.73-1.29-.06-2.59-.11-3.88-.11-.65,0-.91-.23-.9-.88,0-2.07.07-4.14.09-6.21q0-4.12.06-8.23c0-3.1,0-6.2,0-9.3C12.93,87.52,12.85,85.69,12.88,83.86Zm6-30.4c-.13.48-.49.55-.93.56-1.25,0-2.51.15-3.77.19a9.75,9.75,0,0,1-1.62-.14c-.5-.08-.84-.41-.6-.91.16-.34.58-.8.88-.81,1.32-.05,2.65,0,4,.07a4,4,0,0,0,.75-.16,2,2,0,0,1,.73.16C18.67,52.64,19,52.92,18.87,53.46Zm-.32-5.88c-.38-.31-.07-.38.21-.45s.21,0,.22,0l.55,1C19.2,48,18.86,47.82,18.55,47.58Zm.53-1.41c-2.14,0-4.28,0-6.43.07a.82.82,0,0,1-.8-1.09,3.93,3.93,0,0,0,0-.77.59.59,0,0,0,.38.25c1.26.07,2.54.11,3.81.13,1.06,0,2.13,0,3.19,0,.48,0,.57.4.55.84S19.52,46.17,19.08,46.17ZM14.34,42l.44.19A2.85,2.85,0,0,1,15,43a.91.91,0,0,1-.13.33c-.08-.1-.2-.18-.24-.29C14.5,42.71,14.43,42.37,14.34,42Zm1.78.9a1.08,1.08,0,0,1,0-.31,5.43,5.43,0,0,1,.13-.58c.08,0,.24.08.24.13a3,3,0,0,1-.06.59,3.83,3.83,0,0,1-.23.72C16.19,43.3,16.15,43.12,16.12,42.93Zm1,0c.08-.27.18-.52.27-.78a3,3,0,0,1,0,.89.25.25,0,0,1-.2.06A.17.17,0,0,1,17.1,43Zm.84-.23c.06-.19.3-.34.46-.51,0,.1.09.2.06.28a3,3,0,0,1-.24.55C17.6,43.39,17.91,42.87,17.94,42.74Zm5.74-.45a1.82,1.82,0,0,1,1.26,2.43c-.09.16-.3.26-.46.38-.06-.16-.19-.32-.16-.47.23-1.29.12-1.55-1-2A3.47,3.47,0,0,0,20.12,44c-.09.14-.43.13-.65.19a3.75,3.75,0,0,1,.21-.5c.09-.13.26-.22.35-.35s.21-.4.31-.6c-.26-.06-.51-.13-.77-.18a2,2,0,0,0-.35,0c.12-.12.25-.34.36-.34.61,0,1.21.09,1.82.1C22.16,42.3,22.94,42.2,23.68,42.29Zm-1.91-.87c-.44-.49-1.06-.38-1.65-.38-.24,0-.49,0-.73,0-1.38-.08-2.76-.25-4.15-.25-1.72,0-3.45.15-5.18.19-.21,0-.42-.23-.64-.35.31-.25.62-.72.91-.72,2.06,0,4.11.16,6.18.2,1.42,0,2.86,0,4.29,0,.53,0,1.07,0,1.11.71C21.92,40.84,21.8,41.17,21.77,41.42Zm4.12-13.33c-.83,2.09-1.6,4.18-2.4,6.28-.62,1.62-1.22,3.08-1.84,4.54a2.66,2.66,0,0,1-.38.52c0-.19-.14-.39-.09-.56.35-1.1.72-2.2,1.12-3.29.84-2.26,1.69-4.52,2.59-6.77.55-1.37,1.19-2.72,1.81-4.07.05-.11.29-.14.44-.21,0,.2.15.44.08.6C26.8,26.13,26.29,27.09,25.89,28.09Zm6.81-.77a2.31,2.31,0,0,1-.9.91c-.17.11-.49,0-.74,0a2.24,2.24,0,0,0,.47-.45c.22-.37.39-.76.58-1.15-.2-1.43-1.06-1.84-2.43-1.5-2,.49-3.14,3-2.55,4.38a2.89,2.89,0,0,0,.72.77,4.15,4.15,0,0,0,.34.24,1.51,1.51,0,0,1-.48.23c-.64.06-.87-.4-1.1-.87A2.26,2.26,0,0,1,26.55,28c.52-1.28.88-2.65,2.33-3.36a3.63,3.63,0,0,1,3,0A2.49,2.49,0,0,1,32.7,27.32Z"/></g></g></svg>