<svg xmlns="http://www.w3.org/2000/svg" viewBox="0 0 63.5 147.79"><defs><style>.cls-1{fill:#e0d680;}.cls-2{fill:#7f7f7f;}</style></defs><g id="Layer_2" data-name="Layer 2"><g id="street-light-2-front"><path id="fill3" class="cls-1" d="M61.89,44.32a10.67,10.67,0,0,1-1.7,5c-.71,1.09-1.54,2.1-2.34,3.13a1,1,0,0,1-.58.29,2,2,0,0,1-.55,0h-1c.19-.3.4-.58.57-.88s.41-.83.62-1.25a13.34,13.34,0,0,0,1.29-4.55,14.73,14.73,0,0,0-.53-6.3,11.36,11.36,0,0,0-1.11-2,5.4,5.4,0,0,1-.23-.49c.2,0,.45-.16.59-.08a10.94,10.94,0,0,1,3.81,3.06A6.27,6.27,0,0,1,61.89,44.32Zm-5.51-2.13a8.72,8.72,0,0,0-1.14-3.55,1.87,1.87,0,0,0-1.94-1,26.76,26.76,0,0,1-3.23,0l-.75,0a1,1,0,0,1-.07.24,15.46,15.46,0,0,0-2.5,7.43c0,.86,0,1.71,0,2.55a7.5,7.5,0,0,0,1.81,4.62,1.47,1.47,0,0,0,1,.49c1.42,0,2.85,0,4.26,0a1.1,1.1,0,0,0,.69-.54,10.76,10.76,0,0,0,.41-1.17,17,17,0,0,0,1.65-6.81A18.4,18.4,0,0,0,56.38,42.19Zm-9.78,10A10.1,10.1,0,0,1,45,47.07a12.35,12.35,0,0,1,.79-5.58c.4-1.07,1.43-2.89,2-4h-.08A1.76,1.76,0,0,0,46.3,38c-.21.21-.34.5-.56.7a11.77,11.77,0,0,0-3,4.38,7.11,7.11,0,0,0,.2,6.28,14.75,14.75,0,0,0,1.84,2.48,5.63,5.63,0,0,0,1.43,1.07,2.59,2.59,0,0,0,1,.08l-.57-.7Z"/><path id="fill2" class="cls-2" d="M63.19,42.19c-.43-1.63-.9-3.2-2.33-4.23a8.79,8.79,0,0,0-2.51-1.37c-.57-.18-.8-.37-.87-.9a.73.73,0,0,0-.2-.39c-.31-.27-.3-.46.13-.49.84-.08,1.69-.12,2.54-.17a1.84,1.84,0,0,0,1.65-1.4c.08-.84-.23-1.22-1.28-1.43A13.79,13.79,0,0,0,58,31.5c-.56,0-.66-.22-.71-.74A5.72,5.72,0,0,0,56.81,29a3.81,3.81,0,0,0-2.24-1.77c-.36-.16-.47-.28-.32-.67a2.32,2.32,0,0,0-.8-2.37,1.39,1.39,0,0,1-.51-.95c0-1,.17-2,.11-3q-.22-3.19-.62-6.36A12.78,12.78,0,0,0,49,6.79a14.42,14.42,0,0,0-6.09-3.58C41.37,2.65,39.47,2.69,38.7.8c-.05-.14-.27-.24-.43-.29C37.66.35,37,.21,36.41.06A1.53,1.53,0,0,0,34.6.67c-.4.73-1,.7-1.64.82s-1,.05-1.43.17a24.66,24.66,0,0,0-10.59,6c-.59.56-.86,1.43-1.44,2a9.62,9.62,0,0,0-2.4,4.07,16.63,16.63,0,0,0-.82,6.79c0,.16-.12.32-.18.48l-.28-.19a2,2,0,0,0-2.19-.18c-.35.2-.52.18-.5-.28,0-.77,0-1.54,0-2.31,0-1.28.06-2.55,0-3.82s-1-2.47-2.55-1.54a1.87,1.87,0,0,0-.75,1.71c0,1.95,0,3.9,0,5.84,0,.32-.09.63-.12.94-.91.2-2.55.61-3.41.83a.38.38,0,0,0-.2.27c0,.05.13.16.22.19.69.22,1.39.45,2.1.63s1.44.21,1.42,1.2c-.06,2.6-.14,5.21-.16,7.8,0,4.71,0,9.43,0,14.13,0,1.47-.19,1.65-1.66,1.66a7.78,7.78,0,0,0-1.36.17c-.11,0-.2.19-.3.31.08,0,.13.13.21.15a13.45,13.45,0,0,0,2.19.6c.63.08.94.23.92.92-.06,3.14-.11,6.29-.16,9.43,0,.11,0,.24,0,.31a.48.48,0,0,1-.32.17,1.53,1.53,0,0,0-1.73,1A1.7,1.7,0,0,0,8.6,63.19l.75.14c-.07,6.18-.11,14.14-.16,20.29Q9.1,93.24,9,102.84c0,3.92,0,7.86,0,11.79,0,1.42-.13,2.84-.14,4.27,0,.57-.08.83-.74.86S7,120,7,120.71c0,1,.41,1.44,1.24,1.53.46.05.6.21.33.63a1.64,1.64,0,0,0-.17.48c-.58,2.53-1.17,5-1.73,7.43-.47,2.1-.87,4.21-1.35,6.3-.41,1.77-.88,3.53-1.35,5.29a.67.67,0,0,1-.44.38c-1.31.32-1.44.47-1.61,1.77,0,.11-.26.29-.39.28a1.82,1.82,0,0,0-1.49,1A1.27,1.27,0,0,0,1,147.34a12.06,12.06,0,0,0,2.64.45c1.85,0,3.7-.19,5.56-.29,2.21-.11,4.43-.23,6.65-.3,1.47,0,2.95,0,4.42,0a1.64,1.64,0,0,0,1.52-1c.29-.69-.23-1.17-.94-1.39a1,1,0,0,1-.56-.53,2,2,0,0,0-1.66-1.45c-.78-.12-.87-.51-.9-1.12a8.84,8.84,0,0,0-.15-1.36c-.3-1.66-.65-3.31-.94-5s-.51-3.3-.8-5c-.4-2.25-.86-4.49-1.24-6.74-.08-.48-.22-1.12.38-1.4a1.13,1.13,0,0,0,.66-1.43,2.26,2.26,0,0,0-1.19-1.08c-.45-.2-.66-.37-.66-.85,0-3.61-.12-7.22-.15-10.83-.06-7.63-.1-15.27-.17-22.9,0-4.93-.1-9.85-.15-14.77,0-1.66,0-3.32,0-5s.07-1.59,1.57-1.74a1.77,1.77,0,0,0,1.23-1.85c-.32-1.1-.92-1.52-2.21-1.65a.82.82,0,0,1-.58-.47,15.19,15.19,0,0,1-.17-2.14q-.09-4-.15-8c.37.65,1.3.78,2.37.79.47,0,.67.17.62.64,0,.28-.09.55-.11.82a9,9,0,0,0,.1,3.18,1.52,1.52,0,0,0,1.51,1.18c.62,0,1-.51,1-1.16a6.6,6.6,0,0,0,.13-.73c0-1.25-.11-2.49-.14-3.73a1,1,0,0,1,.83-1.16A7.56,7.56,0,0,0,21,48.81a2.5,2.5,0,0,0,.53-.46,2.84,2.84,0,0,0-.74-.44c-.55-.14-1.13-.19-1.67-.34a.67.67,0,0,1-.41-.5c0-3.6,0-7.2,0-10.8,0-.28.33-.6.57-.83a3.54,3.54,0,0,1,1.06-.19c0,.12.06.23.07.35a9.87,9.87,0,0,0,1.75,4.88,5.26,5.26,0,0,0,4,2.22c1.24.09,2.24-.59,3.31-1a3.54,3.54,0,0,0,1.26-5.79,5.32,5.32,0,0,0-1.95-1.17c-1.63-.53-3.33-.53-4.41,1.2a2,2,0,0,0,.45,2.71,2,2,0,0,0,2.6-.59,3.29,3.29,0,0,0,.06-1.63c0-.2-.21-.38-.33-.57.28,0,.62-.12.84,0a5,5,0,0,1,1.26.92,2.64,2.64,0,0,1-.14,2.83c-1.09,1.26-2.21,1.67-3.51,1.24a4.39,4.39,0,0,1-2.46-2.34,9.53,9.53,0,0,1-.87-3.35A6.33,6.33,0,0,1,24,29.68a23.79,23.79,0,0,1,4.1-3.38C31.43,24,35.21,23.14,39,22.17c2.06-.52,4.2-.86,6-2.07a11.39,11.39,0,0,0,2.54-2.25,6.5,6.5,0,0,0,1.14-4.91,1.64,1.64,0,0,1,.11-.56c.16.12.42.21.46.36a30.63,30.63,0,0,1,1.11,4.66,46.76,46.76,0,0,1,0,5.92,1.37,1.37,0,0,1-.68,1c-.8.27-1.23.85-1,1.54.38,1.11,0,1.33-1,1.51s-2.22,2-2.17,3.29c0,.66-.18.84-.84.85a12.08,12.08,0,0,0-2.31.3,1.43,1.43,0,0,0-1.13,1.27c-.13.7.35.93.88,1.1a5.43,5.43,0,0,0,1,.29c.74.09,1.48.11,2.22.18.12,0,.31.23.31.24-.64.86-.33,1.48.47,2a2,2,0,0,1,.31.38c-.16.07-.31.14-.48.2a2.83,2.83,0,0,0-1,.38,23.17,23.17,0,0,0-2.72,2.89A8.84,8.84,0,0,0,40.25,46a9.19,9.19,0,0,0,1.06,4.08A5,5,0,0,0,44.37,53c.39.11.87.31.53,1-.12.23.08.75.29,1a2.13,2.13,0,0,0,2,.75,1.83,1.83,0,0,1,.69.21,9,9,0,0,1-.46.87c-.07.1-.31.07-.39.17-.26.3-.67.62-.69.95a3.31,3.31,0,0,0,1.91,3.26,15,15,0,0,0,1.54.68c.34.14.35.26,0,.47a.87.87,0,0,0-.2,1.49c.19.21.43.37.63.56s.29.24.31.37c.24,1.31.42,2.62.65,3.93a8.65,8.65,0,0,0,.4,1.07,4.32,4.32,0,0,0,.37-1.1c.07-1.81-.13-3.64.48-5.41a10.06,10.06,0,0,0,.31-1.24,5.2,5.2,0,0,0,3.59-1.72,3.66,3.66,0,0,0,.84-2.66c0-.79-.64-.91-1.18-1.13a.23.23,0,0,1-.11-.11c-.1-.22-.19-.45-.28-.67a2.94,2.94,0,0,1,.58-.16,6.85,6.85,0,0,0,1.59-.19c.59-.24,1.38-.46,1.43-1.26a1.72,1.72,0,0,1,.59-1.27,9.45,9.45,0,0,0,1.07-1.21C62.9,48.85,64.12,45.8,63.19,42.19ZM16.44,24.64c0,.58-.13,1.17-.14,1.75,0,1.16,0,2.32,0,3.48-.05,2.5-.13,5-.15,7.51,0,2.89,0,5.79,0,8.67,0,.14,0,.27,0,.41,0,.43-.08.63-.6.33a1.46,1.46,0,0,0-1.2-.12A2.49,2.49,0,0,0,13,47.86q0-1.59,0-3.18c0-4.42.11-8.85.15-13.28,0-2.7,0-5.41,0-8.12a2.08,2.08,0,0,1,.11-.48,2.11,2.11,0,0,1,.31.36,1.76,1.76,0,0,0,1.94.8C16.36,23.81,16.47,23.82,16.44,24.64ZM47.1,14.91a5.77,5.77,0,0,1-2.39,3.15,10.82,10.82,0,0,1-5,2.17A13.05,13.05,0,0,1,35,20.08a11.77,11.77,0,0,0-1.34-.38c-2.38-.28-2.94-3-2.46-4.75.23-.88.35-1.73,1.27-2.24s1.12-.45,1.23.59c.08.72.67.88,1.24,1a1.91,1.91,0,0,0,1.88-1.15A2.29,2.29,0,0,0,36,10.81a3.87,3.87,0,0,0-4.52.35,8.94,8.94,0,0,0-1.62,2,3,3,0,0,0-.18,1.52,11.32,11.32,0,0,0,.17,2.61,4.79,4.79,0,0,0,3.29,3.85,5.47,5.47,0,0,1,.79.42,3,3,0,0,1-.73.43c-2.7.66-5,2.19-7.38,3.51a11.47,11.47,0,0,0-5.5,6.4c0,.1-.12.18-.12.27,0,.32.08.81-.44.7s-1.06,0-1-.89c.13-2.71.15-5.42.17-8.14,0-.65.5-.69.87-.87s1-.43,1.54-.66c.12-.06.19-.21.29-.32-.14-.1-.25-.26-.39-.29a12,12,0,0,1-1.52-.36c-.3-.12-.75-.48-.74-.7.12-2-.13-4.09.52-6.11a11.44,11.44,0,0,1,3.63-4.8,23.22,23.22,0,0,1,3.62-2.68,15.5,15.5,0,0,1,5.93-2.25,3,3,0,0,0,.95-.19c.13-.06.59-.23.94-.41a3,3,0,0,0,2.55,1.21,3.93,3.93,0,0,0,1.26-.56c.25-.16.33-.53.76-.09s1,.35,1.5.51a10.76,10.76,0,0,1,5.6,4,5.6,5.6,0,0,1,.8,2.89A8.08,8.08,0,0,1,47.1,14.91Zm-.85,38a5.63,5.63,0,0,1-1.43-1.07A14.75,14.75,0,0,1,43,49.38a7.11,7.11,0,0,1-.2-6.28,11.77,11.77,0,0,1,3-4.38c.22-.2.35-.49.56-.7a1.76,1.76,0,0,1,1.44-.55h.08c-.56,1.12-1.59,2.94-2,4A12.35,12.35,0,0,0,45,47.07a10.1,10.1,0,0,0,1.56,5.11l.06.13.57.7A2.59,2.59,0,0,1,46.25,52.93Zm8.63-1.71a10.76,10.76,0,0,1-.41,1.17,1.1,1.1,0,0,1-.69.54c-1.41,0-2.84,0-4.26,0a1.47,1.47,0,0,1-1-.49,7.5,7.5,0,0,1-1.81-4.62c0-.84,0-1.69,0-2.55a15.46,15.46,0,0,1,2.5-7.43,1,1,0,0,0,.07-.24l.75,0a26.76,26.76,0,0,0,3.23,0,1.87,1.87,0,0,1,1.94,1,8.72,8.72,0,0,1,1.14,3.55,18.4,18.4,0,0,1,.15,2.22A17,17,0,0,1,54.88,51.22Zm7-6.9a10.67,10.67,0,0,1-1.7,5c-.71,1.09-1.54,2.1-2.34,3.13a1,1,0,0,1-.58.29,2,2,0,0,1-.55,0h-1c.19-.3.4-.58.57-.88s.41-.83.62-1.25a13.34,13.34,0,0,0,1.29-4.55,14.73,14.73,0,0,0-.53-6.3,11.36,11.36,0,0,0-1.11-2,5.4,5.4,0,0,1-.23-.49c.2,0,.45-.16.59-.08a10.94,10.94,0,0,1,3.81,3.06A6.27,6.27,0,0,1,61.89,44.32Z"/><path id="fill1" d="M63.19,42.19c-.43-1.63-.9-3.21-2.33-4.23a8.74,8.74,0,0,0-2.5-1.37c-.58-.18-.81-.37-.88-.9a.67.67,0,0,0-.2-.38c-.31-.28-.3-.47.13-.51.84-.07,1.69-.11,2.54-.16a1.82,1.82,0,0,0,1.64-1.4c.09-.84-.22-1.23-1.26-1.43A15.21,15.21,0,0,0,58,31.5c-.56,0-.66-.22-.71-.74A5.72,5.72,0,0,0,56.81,29a3.85,3.85,0,0,0-2.24-1.77c-.36-.16-.47-.28-.31-.67a2.36,2.36,0,0,0-.81-2.37,1.39,1.39,0,0,1-.51-.95c0-1,.18-2,.11-3-.15-2.12-.35-4.25-.62-6.36A12.78,12.78,0,0,0,49,6.79,14.61,14.61,0,0,0,42.88,3.2c-1.51-.55-3.41-.52-4.18-2.41-.05-.13-.27-.23-.43-.27C37.66.35,37,.21,36.41.06A1.55,1.55,0,0,0,34.6.67c-.4.73-1,.7-1.65.81s-1,.05-1.43.18a24.67,24.67,0,0,0-10.59,6c-.58.56-.85,1.43-1.43,2a9.72,9.72,0,0,0-2.4,4.07,16.66,16.66,0,0,0-.82,6.8c0,.15-.12.31-.18.47l-.28-.19a2,2,0,0,0-2.19-.18c-.34.2-.52.18-.5-.28,0-.77,0-1.54,0-2.31,0-1.28,0-2.55,0-3.82s-1-2.47-2.54-1.54a1.83,1.83,0,0,0-.76,1.71c0,1.95,0,3.89,0,5.84,0,.32-.09.63-.12.95-.91.19-2.55.6-3.41.82a.36.36,0,0,0-.2.27s.13.16.22.19c.7.22,1.39.45,2.1.63s1.44.2,1.42,1.2c-.06,2.6-.14,5.2-.15,7.8,0,4.71,0,9.42,0,14.13,0,1.47-.19,1.65-1.66,1.67a7.77,7.77,0,0,0-1.36.16c-.11,0-.2.2-.3.3a.78.78,0,0,0,.21.16,13.45,13.45,0,0,0,2.19.6c.63.08.94.23.93.92-.07,3.14-.12,6.29-.17,9.43,0,.1,0,.24,0,.31a.39.39,0,0,1-.31.17,1.53,1.53,0,0,0-1.73,1A1.69,1.69,0,0,0,8.6,63.19c.25.06.5.1.75.14-.07,6.18-.11,14.13-.16,20.29Q9.1,93.24,9,102.84c0,3.93,0,7.86,0,11.79,0,1.42-.13,2.85-.14,4.27,0,.57-.08.82-.75.86-.5,0-1.15.23-1.14,1,0,1,.4,1.43,1.24,1.52.46.05.6.21.33.63a1.49,1.49,0,0,0-.16.48c-.58,2.53-1.18,5-1.73,7.43-.48,2.1-.88,4.21-1.36,6.31-.41,1.77-.88,3.52-1.35,5.28a.71.71,0,0,1-.44.39c-1.31.32-1.44.46-1.61,1.76a.51.51,0,0,1-.39.28,1.82,1.82,0,0,0-1.49,1A1.27,1.27,0,0,0,1,147.33a11,11,0,0,0,2.64.46c1.85,0,3.7-.19,5.55-.28,2.22-.12,4.44-.24,6.66-.31,1.47,0,2.95,0,4.42,0a1.66,1.66,0,0,0,1.53-1c.27-.68-.24-1.16-1-1.38a.93.93,0,0,1-.55-.53,1.94,1.94,0,0,0-1.67-1.44c-.77-.12-.87-.52-.89-1.13a9,9,0,0,0-.15-1.36c-.31-1.66-.65-3.31-.94-5s-.51-3.31-.8-5c-.4-2.25-.86-4.49-1.24-6.74-.08-.48-.22-1.12.38-1.4a1.12,1.12,0,0,0,.66-1.42,2.24,2.24,0,0,0-1.19-1.09c-.46-.19-.66-.37-.66-.86,0-3.61-.12-7.21-.15-10.82-.07-7.64-.1-15.27-.16-22.9,0-4.93-.11-9.85-.16-14.78,0-1.65,0-3.31,0-5s.07-1.59,1.57-1.75a1.74,1.74,0,0,0,1.23-1.84c-.32-1.1-.92-1.52-2.2-1.65a.79.79,0,0,1-.58-.46,14,14,0,0,1-.18-2.14q-.09-4-.15-8c.38.65,1.31.79,2.37.79.47,0,.67.17.61.64,0,.27-.08.55-.1.82A9,9,0,0,0,16,55.05a1.54,1.54,0,0,0,1.52,1.18c.62,0,1-.51,1-1.17a4.46,4.46,0,0,0,.13-.73c0-1.24-.11-2.48-.14-3.72a1,1,0,0,1,.83-1.15A8.15,8.15,0,0,0,21,48.81a2.88,2.88,0,0,0,.53-.47,3.47,3.47,0,0,0-.74-.43c-.55-.15-1.13-.19-1.67-.34a.67.67,0,0,1-.41-.49c0-3.61,0-7.21,0-10.81,0-.28.33-.6.57-.83a3.47,3.47,0,0,1,1.06-.19c0,.12.06.23.07.35a9.87,9.87,0,0,0,1.75,4.88,5.26,5.26,0,0,0,4,2.22c1.24.09,2.24-.59,3.31-1a3.55,3.55,0,0,0,1.26-5.8,5.62,5.62,0,0,0-1.95-1.16c-1.63-.53-3.33-.53-4.42,1.2a2,2,0,0,0,.46,2.7,2,2,0,0,0,2.6-.58,3.29,3.29,0,0,0,.06-1.63c0-.2-.22-.38-.33-.56.28,0,.62-.14.84,0a4.78,4.78,0,0,1,1.26.93,2.62,2.62,0,0,1-.14,2.82c-1.09,1.26-2.21,1.67-3.51,1.24a4.43,4.43,0,0,1-2.47-2.34,10,10,0,0,1-.87-3.35A6.36,6.36,0,0,1,24,29.68a25.24,25.24,0,0,1,4.11-3.38C31.43,24,35.21,23.14,39,22.18c2.06-.53,4.2-.86,6-2.08a11.34,11.34,0,0,0,2.53-2.25,6.42,6.42,0,0,0,1.15-4.91,1.92,1.92,0,0,1,.11-.56c.16.12.42.21.46.36a30.91,30.91,0,0,1,1.11,4.66,44.83,44.83,0,0,1,0,5.91,1.31,1.31,0,0,1-.67,1c-.8.28-1.23.85-1,1.54.38,1.11,0,1.33-1,1.51s-2.22,2-2.17,3.29c0,.67-.18.84-.84.85a12.08,12.08,0,0,0-2.31.3,1.41,1.41,0,0,0-1.13,1.27c-.13.69.35.93.88,1.1a5.08,5.08,0,0,0,1,.29c.73.09,1.48.11,2.22.18.11,0,.3.23.3.24-.63.86-.33,1.48.47,2a1.72,1.72,0,0,1,.31.39l-.47.19a2.81,2.81,0,0,0-1,.38,21.74,21.74,0,0,0-2.71,2.89,8.79,8.79,0,0,0-2,5.27,9.19,9.19,0,0,0,1.06,4.08A5,5,0,0,0,44.37,53c.39.11.87.31.53,1-.13.24.08.75.29,1a2.13,2.13,0,0,0,2,.75,2,2,0,0,1,.69.21,9,9,0,0,1-.46.87c-.07.1-.3.07-.39.17-.26.3-.66.62-.69.95a3.29,3.29,0,0,0,1.91,3.26,16.34,16.34,0,0,0,1.54.68c.34.14.36.26,0,.48a.86.86,0,0,0-.2,1.48c.19.21.43.37.63.57s.29.23.31.37c.23,1.3.42,2.61.65,3.91a7.41,7.41,0,0,0,.4,1.08,4.32,4.32,0,0,0,.37-1.1c.07-1.81-.13-3.64.48-5.41a9.83,9.83,0,0,0,.31-1.25,5.16,5.16,0,0,0,3.59-1.72,3.63,3.63,0,0,0,.84-2.65c0-.78-.64-.91-1.18-1.13a.29.29,0,0,1-.11-.11c-.1-.22-.19-.45-.29-.67a3.33,3.33,0,0,1,.6-.16,6.77,6.77,0,0,0,1.58-.19c.6-.24,1.38-.46,1.43-1.26a1.74,1.74,0,0,1,.59-1.27,8.67,8.67,0,0,0,1.06-1.21C62.9,48.85,64.12,45.8,63.19,42.19ZM26.74,35.58c-.48.24-1,.36-1.13,1,0,.21-.15.63.37.3a1.07,1.07,0,0,1,.73-.08c.08,0,.21.42.14.52a1.5,1.5,0,0,1-.73.6c-.46.09-1.08.19-1.28-.39a3.49,3.49,0,0,1,.05-1.32,2,2,0,0,1,1.76-1.1,2.44,2.44,0,0,1,.53.14A3.28,3.28,0,0,1,26.74,35.58Zm1.8,5.36a11.89,11.89,0,0,0,.93-.95,2.92,2.92,0,0,0-.32-4.25c.62-.12,1.61.74,1.82,1.55a3.42,3.42,0,0,1-2.23,3.92,2,2,0,0,1-.43,0A3.45,3.45,0,0,1,28.54,40.94Zm32.14-.61a6.23,6.23,0,0,1,1.21,4,10.71,10.71,0,0,1-1.7,5c-.71,1.09-1.54,2.1-2.34,3.13a1,1,0,0,1-.58.29,2,2,0,0,1-.55,0h-1c.19-.3.4-.58.57-.89s.41-.82.62-1.24a13.72,13.72,0,0,0,1.3-4.55,14.82,14.82,0,0,0-.54-6.29,11.09,11.09,0,0,0-1.11-2c-.09-.16-.15-.33-.23-.49.2,0,.45-.15.59-.07A10.89,10.89,0,0,1,60.68,40.33ZM48.91,37.58a29.16,29.16,0,0,0-1.82,3.27,15.3,15.3,0,0,0-.94,6.46,7.36,7.36,0,0,0,1.39,4.47s0,.1,0,.15c.07.24.15.47.23.7l-.55-.39A5.84,5.84,0,0,1,45.83,49a13.2,13.2,0,0,1-.31-3.18,13.77,13.77,0,0,1,1.36-5.66c.29-.56,1.07-2,1.33-2.6ZM46.76,47.83c0-.86,0-1.71,0-2.56a15.36,15.36,0,0,1,2.5-7.43,1,1,0,0,0,.07-.24l.75,0a24.86,24.86,0,0,0,3.23,0,1.88,1.88,0,0,1,1.94,1,8.72,8.72,0,0,1,1.14,3.55,20.52,20.52,0,0,1,.15,2.22,17,17,0,0,1-1.65,6.81,10.76,10.76,0,0,1-.41,1.17,1.1,1.1,0,0,1-.69.54q-2.13.07-4.26,0a1.45,1.45,0,0,1-1-.49A7.43,7.43,0,0,1,46.76,47.83Zm8.46,3.86c.14-.41.36-.8.53-1.2.27-.68.53-1.36.79-2A15.57,15.57,0,0,0,57,42.74c-.17-1.63-.31-3.34-1.6-4.61a5.32,5.32,0,0,1-.38-.45c.13-.06.26-.2.38-.18s.58.08.67.24a11.94,11.94,0,0,1,1.24,2.7,15.38,15.38,0,0,1,.48,4,12.55,12.55,0,0,1-1.38,6c-.29.5-.52,1-.8,1.55a2,2,0,0,1-.38.39A1.89,1.89,0,0,1,55.22,51.69Zm-20.47-50c.34-.51.48-1.07,1.19-1.12,1.86.33,2.43.32,2.85,1.76a2.57,2.57,0,0,1-1.21,2.44,1.85,1.85,0,0,1-1.93-.39c-.3-.31-.57-.65-.84-1A1.26,1.26,0,0,1,34.75,1.66ZM14.05,20.92a2.59,2.59,0,0,1,2.09.92c.5.74-.34.77-.56,1.12-.37,0-.69.08-.79,0a11.85,11.85,0,0,1-1.12-1.42C13.38,21.09,13.83,21,14.05,20.92ZM10.28,47.15c0-4.32,0-8.63,0-12.94,0-.69.14-1.38.14-2.07s-.14-1.27-.14-1.91q0-5.6,0-11.2c0-1.63.08-3.27.16-4.9,0-.44.09-1,.65-1a1.25,1.25,0,0,1,.89.17,1,1,0,0,1,.38,1.3,4.22,4.22,0,0,0,0,1.51c0,4.58,0,9.16,0,13.73,0,1.64-.1,3.27-.15,4.91s-.11,3.48-.16,5.22c.05,6.52.11,12.89.14,19.26,0,.36.31,1-.44,1s-1.58-.36-1.58-1c0-2,.12-4,.13-5.93,0-1.4-.12-2.8-.14-4.2C10.14,48.42,10.28,47.78,10.28,47.15ZM8.94,22.48a9.15,9.15,0,0,1-1-.3c.34-.11.67-.21,1-.33l.76-.28v0C9.77,22.38,9.66,22.59,8.94,22.48Zm3.88,81.64c0,2.35.12,4.69.15,7,0,2.08,0,4.15,0,6.23,0,.74,0,1.47,0,2.21-.77,0-2.15,0-2.66,0-.7,0-.83-.22-.82-.85.08-3.48.12-7,.17-10.43q.09-6.72.16-13.43Q9.91,85.42,10,76c0-3.58,0-8.9,0-12.55.45.05.9.08,1.35.1.94.06,1,.1,1,1q.08,6.21.17,12.43c0,1.79.11,3.58.15,5.38q.09,5,.16,10c0,.64,0,1.28,0,1.92C12.82,97.58,12.8,100.85,12.82,104.12ZM5.71,138.27c.63-3,1.26-5.9,1.9-8.76.46-2,1-4.08,1.42-6.12a.75.75,0,0,0,0-.15L9,122.4l1.94.08s.11.14.11.22q0,3-.1,6c-.05,3-.09,5.91-.16,8.87,0,1.59-.14,3.17-.14,4.75,0,.69-.36.68-.84.66l-2.72-.17c-.69,0-1.38-.07-2.06-.17-.15,0-.4-.32-.37-.43C5,140.85,5.35,139.56,5.71,138.27Zm15.46,7.6c.39.43.16.68-.38.69-2-.06-4,0-5.9,0h-.23l-5.07.15a48.67,48.67,0,0,0-5.13.21,8,8,0,0,1-3.21-.38c-.23-.06-.39-.38-.59-.58a5.18,5.18,0,0,1,.7-.63,1.36,1.36,0,0,1,.61,0c2.75,0,5.49,0,8.23,0,1.08,0,2.15-.13,3.23-.14.6,0,1.21.13,1.82.14,1.64,0,3.28,0,4.92,0A1.58,1.58,0,0,1,21.17,145.87ZM19.49,144a3.49,3.49,0,0,1,.26.75c-.21,0-.42.06-.63.06-2,0-4-.15-5.94-.15-3.09,0-6.18.1-9.27.15-.51,0-1.19.1-1.32-.54s.64-.92,1.1-.95c1.4-.09,2.81,0,4.21,0,1,0,2,.06,3,.09.7,0,1.4,0,2.11,0,.94,0,3.37-.14,4.5-.21l.21.07C18.32,143.42,19.06,143.38,19.49,144Zm-4.94-16c.24,1.28.46,2.55.68,3.83s.39,2.36.59,3.54.4,2.31.58,3.47a34.46,34.46,0,0,1,.49,3.49,1.53,1.53,0,0,0,.07.36c-1.24,0-3.21.06-4,.06a7.68,7.68,0,0,1-1.36,0c-.15,0-.32-.43-.32-.66,0-2.47.11-5,.14-7.43s0-4.91,0-7.36c0-1.06.1-2.12.15-3.17,0-.14,0-.27,0-.4,0-.42,0-.85,0-1.27l2.17.19a7.87,7.87,0,0,0,0,1.21C14,125.25,14.3,126.63,14.55,128Zm-.34-7.66c.29.26.74.54.78.85.07.71-.46.21-.74.24a3.65,3.65,0,0,1-.47,0c-1.69,0-3.39,0-5.08,0-.37,0-1-.29-1-.55-.09-.43.4-.54.82-.54.25,0,.49-.13.73-.14.91,0,2.84-.09,3.89-.11a.64.64,0,0,0,.64.26C13.9,120.35,14.12,120.29,14.21,120.36ZM14.49,61a1.09,1.09,0,0,1,.83,1.42.75.75,0,0,1-.61.29c-1.74,0-3.48,0-5.2-.19-.51-.05-1-.64-1.41-1-.07-.07.09-.56.25-.64a3.17,3.17,0,0,1,1.37-.45,12.28,12.28,0,0,1,2.07.29C12.8,60.79,13.65,60.87,14.49,61ZM16,48.7a.83.83,0,0,1-1.21.84l-.68-.19c-.67-.32-.59-.64-.55-.89s.67-.91,1-1.16.73-.09,1.08,0c.17,0,.31.38.37.61A3.38,3.38,0,0,1,16,48.7Zm.47-24.06c0,.58-.13,1.17-.14,1.75,0,1.16,0,2.32,0,3.48-.05,2.5-.13,5-.15,7.51,0,2.89,0,5.78,0,8.68,0,.13,0,.26,0,.39,0,.44-.08.64-.6.34a1.5,1.5,0,0,0-1.2-.12A2.49,2.49,0,0,0,13,47.86q0-1.59,0-3.18c0-4.42.11-8.85.15-13.27,0-2.71,0-5.42,0-8.13a2.08,2.08,0,0,1,.11-.48,1.74,1.74,0,0,1,.31.36,1.76,1.76,0,0,0,1.94.8C16.36,23.81,16.47,23.82,16.44,24.64Zm2.33,23.59a6,6,0,0,1,.83.13l-.15.25c-.16.08-.24.1-.32.08l-.61-.22C18.6,48.39,18.69,48.22,18.77,48.23Zm-.58-30.74c0,2.62,0,5.24,0,7.86,0,1.48-.1,3-.15,4.43s-.13,3.12-.16,4.67q-.16,8.46-.31,16.92c0,.84.13,1.69.14,2.54a5.61,5.61,0,0,1-.18,1.34.56.56,0,0,1-.37.36.48.48,0,0,1-.37-.28,20.09,20.09,0,0,1-.32-2.18,11.89,11.89,0,0,1,.07-1.46c0-1.34,0-2.68.08-4,0-1.15.08-2.3.12-3.45,0-.15,0-.31,0-.46.06-4.82.1-9.64.17-14.45,0-.82.14-1.64.14-2.46S17,25,16.93,24c0-.74,0-1.49,0-2.23,0-1.19,0-2.39,0-3.58a12.83,12.83,0,0,1,2.08-7,21,21,0,0,1,8.55-7.37A28.08,28.08,0,0,1,33.26,2c.14,0,.5.3.53.49a3.39,3.39,0,0,0,.51,1.3,4.39,4.39,0,0,0-.71-.07,17.69,17.69,0,0,0-6.23,1.51,15.92,15.92,0,0,0-5,4c-.79,1-1.8,1.86-2.53,2.91A9.31,9.31,0,0,0,18.19,17.49ZM19,23.86c0-.66.5-.69.87-.88s1-.43,1.54-.66c.12-.06.19-.21.29-.32-.13-.1-.25-.26-.39-.29a12,12,0,0,1-1.52-.35c-.31-.13-.75-.49-.74-.72.11-2-.13-4.08.52-6.1a11.44,11.44,0,0,1,3.63-4.8,23.22,23.22,0,0,1,3.62-2.68A15.52,15.52,0,0,1,32.71,4.8a3,3,0,0,0,.95-.17c.13-.07.59-.24.94-.41a3,3,0,0,0,2.55,1.2,3.84,3.84,0,0,0,1.26-.57c.25-.14.33-.52.76-.08s1,.35,1.51.51a10.85,10.85,0,0,1,5.59,4,5.87,5.87,0,0,1,.81,2.9,8.4,8.4,0,0,1,0,2.74,5.78,5.78,0,0,1-2.39,3.14,10.83,10.83,0,0,1-5,2.17A12.89,12.89,0,0,1,35,20.07c-.46-.1-.89-.32-1.34-.37-2.37-.29-2.94-3-2.47-4.75.24-.88.36-1.73,1.28-2.24s1.12-.45,1.23.58c.08.73.67.89,1.24,1a1.91,1.91,0,0,0,1.88-1.15A2.31,2.31,0,0,0,36,10.8a3.91,3.91,0,0,0-4.53.36,9.18,9.18,0,0,0-1.61,2,3,3,0,0,0-.18,1.52,11.32,11.32,0,0,0,.17,2.61,4.83,4.83,0,0,0,3.29,3.86,4.24,4.24,0,0,1,.79.41,2.74,2.74,0,0,1-.73.43c-2.7.66-5,2.19-7.38,3.51a11.47,11.47,0,0,0-5.5,6.4,1.07,1.07,0,0,0-.12.27c0,.32.07.81-.44.7s-1.06,0-1-.88C18.92,29.29,18.94,26.57,19,23.86Zm0-1.74c.07-.09.15-.25.22-.25.33,0,.66,0,1,0l-.37.43A6.77,6.77,0,0,1,19,22.12Zm15.36-10.5a1.54,1.54,0,0,0-1-.11,4.15,4.15,0,0,0-2.24,1.43c-.27.86-.45,1.65-.64,2.44a2.08,2.08,0,0,1-.12.32c-.06-.11-.17-.22-.18-.33a4,4,0,0,1,4.33-4.56A1.67,1.67,0,0,1,36.1,12c.09.34-.24.89-.53,1.21a1,1,0,0,1-1,.16,1.45,1.45,0,0,1-.3-1C34.31,12.1,34.77,11.83,34.36,11.62ZM18.85,34.18c0-.26.26-.53.41-.8.22.14.56.25.64.45a8.07,8.07,0,0,1,.29.87C19.72,34.54,18.85,34.39,18.85,34.18ZM47.65,16a5.67,5.67,0,0,1-2.11,2.88c-2,1.49-4.27,2-6.6,2.54-4.2,1-8.31,2.21-11.92,4.75a17.7,17.7,0,0,0-4.57,4.31A5.22,5.22,0,0,0,21.62,33a11.59,11.59,0,0,0,.66,5.06,5.41,5.41,0,0,0,3.15,3.33,3.54,3.54,0,0,1,.33.19c-.13,0-.28.14-.4.11a4.13,4.13,0,0,1-2.59-1.41,10.68,10.68,0,0,1-1.81-5,7.06,7.06,0,0,1,.54-4.67A13,13,0,0,1,27,25.48c.89-.51,1.77-1.05,2.66-1.57,1.58-.64,3-1.31,4.43-1.88A9.91,9.91,0,0,1,36,21.69c.23,0,.45-.1.68-.15-.23-.1-.46-.32-.68-.3a6.54,6.54,0,0,1-3.3-.81,1.13,1.13,0,0,1-.33-.16,2.75,2.75,0,0,1-.24-.41l.38.1a16.42,16.42,0,0,0,5.45.92,12.67,12.67,0,0,0,7.34-2.64,7.12,7.12,0,0,0,2-2.48c.07-.15.25-.25.37-.37A2,2,0,0,1,47.65,16Zm.52-1.93a.67.67,0,0,1-.13.23c-.06-.09-.16-.17-.17-.26q-.3-1.69-.57-3.39a1.1,1.1,0,0,1,.09-.38c.1.06.27.1.3.19.23.62.43,1.24.64,1.86C48.28,13,48.23,13.52,48.17,14.05Zm1.59-1.82c-1-1.87-1.84-3.85-3.82-5A32,32,0,0,1,43.12,5a6.49,6.49,0,0,0-3.33-1.18A1.43,1.43,0,0,0,39.3,4a2.32,2.32,0,0,0-.4.3A2.37,2.37,0,0,1,39,3.75c.42-1,.61-1,1.84-.63a23.85,23.85,0,0,1,6,2.65,14,14,0,0,1,1.71,1.57A10.27,10.27,0,0,1,51,11.49a21.78,21.78,0,0,1,.84,3.59c.22,1.27.37,2.55.47,3.83.05.57-.12,1.16-.13,1.75,0,.92,0,1.84,0,2.76,0,.62-.29.66-.76.65s-.37-.3-.38-.68c-.1-2.7.3-5.4-.39-8.1A13.25,13.25,0,0,0,49.76,12.23Zm.74,12.44c1-.17,2-.54,2.72.59a2,2,0,0,1,.22,1.16c-.06.46-.47.56-.94.68a3.07,3.07,0,0,1-2.5,0c-.06,0-.11-.1-.17-.15A1.21,1.21,0,0,1,50.5,24.67ZM46.17,30a3.29,3.29,0,0,1,2.88-2.4,7.21,7.21,0,0,1,1.17.21,8.39,8.39,0,0,0,1.8.09c1.38-.17,3.66.63,4.17,2.41.26.94.06,1.22-.91,1.22h-8C46.15,31.48,45.77,31,46.17,30Zm-1.86,3.89a10.55,10.55,0,0,1-1.92-.32c-.19,0-.51-.27-.5-.38s.18-.62.38-.68a6.42,6.42,0,0,1,2-.48c3-.05,6,0,9.07,0,.94,0,1.88,0,2.82,0,1.32.06,2.65.16,4,.33.3,0,.55.48.83.73-.25.22-.47.57-.75.64a13.13,13.13,0,0,1-2,.18c-1.46.06-2.92.13-4.38.15-.83,0-1.66-.11-2.49-.14-.67,0-1.33,0-2,0C47.57,33.85,45.94,33.88,44.31,33.84Zm1.56,1.67a1.08,1.08,0,0,1,1.23-.87c.64,0,1.27.14,1.91.15,2.05,0,4.1,0,6.15,0a3.91,3.91,0,0,1,1.51.53.73.73,0,0,1,.16.68,1.11,1.11,0,0,1-.74.48c-1.42.1-2.85.12-4.27.18-.82,0-1.64.11-2.46.16-1-.21-1.83-.27-2.67-.51C46.35,36.25,45.83,35.74,45.87,35.51ZM43.81,52.29a6.29,6.29,0,0,1-2.17-2.79,8.26,8.26,0,0,1-.87-3.5,7.59,7.59,0,0,1,1.3-4.18,28.71,28.71,0,0,1,2.59-3.26c.08-.1.26-.12.39-.18a1.31,1.31,0,0,1-.14.38,12.27,12.27,0,0,0-3.31,6.43A13.12,13.12,0,0,0,42,48.61c.69,1.21,1.38,2.27,2.06,3.33a2.87,2.87,0,0,1,.17.44A1.49,1.49,0,0,1,43.81,52.29Zm1-.43A15.69,15.69,0,0,1,43,49.39a7.11,7.11,0,0,1-.2-6.28,11.73,11.73,0,0,1,3-4.39c.22-.2.35-.49.57-.7a1.69,1.69,0,0,1,1.43-.55h.09c-.57,1.12-1.6,2.94-2,4A12.22,12.22,0,0,0,45,47.07a10.1,10.1,0,0,0,1.56,5.11.83.83,0,0,0,.07.13c.18.24.37.47.56.7a2.59,2.59,0,0,1-1-.08A5.41,5.41,0,0,1,44.82,51.86Zm6.23,12.81c.13,0,.35,0,.36,0,0,.23.06.47.08.7A2,2,0,0,1,51.05,64.67Zm.34-1.17a1.41,1.41,0,0,1-1,0c-.16,0-.39-.42-.34-.52a1.3,1.3,0,0,1,.63-.69,4.71,4.71,0,0,1,1.41-.18,2.87,2.87,0,0,1-.18.62C51.78,63,51.65,63.37,51.39,63.5Zm5.06-5.91c.16.16,0,.72-.08,1A3.91,3.91,0,0,1,52.62,61a5.89,5.89,0,0,1-4.52-1.41,9.84,9.84,0,0,0-.77-1.36c-.42-.5-.3-.66.27-.69s1,0,1.52,0c2.06-.11,4.13.28,6.18-.28A1.41,1.41,0,0,1,56.45,57.59Zm-8.08-1.24c0-.66.6-.54,1.06-.56l3.09-.16c.68,0,1.21,0,1.73,0s.85.07.86.62-.38.64-.84.64H49.43C49,56.81,48.38,56.92,48.37,56.35Zm9.79-2a13,13,0,0,1-1.54.46c-2.29,0-4.41,0-6.54,0-1,0-2.06.16-3.09.12a2.26,2.26,0,0,1-1.17-.55c-.15-.11-.15-.46-.14-.7,0,0,.33-.13.51-.13,1.35,0,2.7,0,4.05,0,1.7-.06,3.39-.23,5.1-.29a20.33,20.33,0,0,1,2.69.16c.2,0,.38.29.56.44C58.45,54.05,58.35,54.31,58.16,54.38Zm4.64-8.05a15.16,15.16,0,0,1-3,5.83,3.23,3.23,0,0,1-.88.72c-.11.07-.32,0-.48,0,.05-.13.06-.3.15-.39a12.8,12.8,0,0,0,3.78-7,7,7,0,0,0-1.49-5.83,7.82,7.82,0,0,0-2.74-2.14c-.1,0-.16-.18-.24-.28.15,0,.31-.12.43-.07a5.92,5.92,0,0,1,4.09,4.2c.09.33.21.65.32,1A9.65,9.65,0,0,1,62.8,46.33Zm-54.13,95c.25-.43.62-.8.65-1.2.21-2.53.36-5.07.49-7.61.09-1.79.12-3.58.15-5.37a2.76,2.76,0,0,0-.21-.77c-.2.14-.47.25-.59.44a2.1,2.1,0,0,0-.28.82c-.05.28,0,.59,0,.87-.41,2-.86,4-1.25,6-.34,1.81-.57,3.64-1,5.43A1.31,1.31,0,0,0,7,141.41,1.23,1.23,0,0,0,8.67,141.31Zm-1-.88c.13-1,.3-2.07.46-3.11.11-.72.24-1.27.31-1.84.23-1.69.43-3.39.64-5.09,0-.09.12-.17.19-.25,0,.08.12.16.12.23q-.12,2.19-.27,4.38c-.05.86-.14,1.73-.2,2.59s-.09,1.8-.17,2.69a1.32,1.32,0,0,1-.3.73,3.82,3.82,0,0,1-.75.55A4.32,4.32,0,0,1,7.62,140.43Zm5.8-13.4c.47,2.32.89,4.64,1.28,7,.31,1.8.56,3.62.78,5.43a2.3,2.3,0,0,1-.21,1.24c-.16.33-.56.81-.8.78a1.79,1.79,0,0,1-1.15-.7,3.69,3.69,0,0,1-.67-2.33,19.34,19.34,0,0,0,0-2.4c0-.72.05-1.4,0-2.07a26.54,26.54,0,0,0-.21-2.83c-.13-1-.38-1.89-.56-2.84a.7.7,0,0,1,.28-.12c.28.34.72.68.78,1.07.19,1.25.24,2.53.35,3.8.21,2.49.41,5,.65,7.47,0,.24.25.45.39.68a3.7,3.7,0,0,0,.37-.71c.45-1.53-.12-3-.3-4.47-.12-1-.19-2-.33-2.95-.18-1.36-.36-2.72-.65-4.07-.09-.45-.52-.83-.75-1.26a1,1,0,0,1-.15-.64,2.56,2.56,0,0,1,.26-.73C13,126.58,13.37,126.77,13.42,127Z"/></g></g></svg>