<svg xmlns="http://www.w3.org/2000/svg" viewBox="0 0 14.5 88.09"><defs><style>.cls-1{fill:#ffe0ae;}</style></defs><g id="Layer_2" data-name="Layer 2"><g id="wall-edge-2-front"><path id="fill2" class="cls-1" d="M14.49,87c0,1.06-.31,1.15-1.37,1a31.91,31.91,0,0,0-3.8-.22c-1.23-.06-2.46-.19-3.68-.15A16,16,0,0,0,2.4,88,1.21,1.21,0,0,1,1,87.6a2.58,2.58,0,0,1-.39-1.39c0-1.88.72-3.7.31-5.64-.16-.74-.28-1.68.68-2.21a.78.78,0,0,0-.05-.69c-.95-.85-.9-2-.83-3.07.05-.72.66-1,1.3-1.13.4-.1.8-.22,1.19-.36.08,0,.13-.15.18-.23s-.19-.12-.27-.1-.37.14-.56.15C1,73,.46,73,.51,71c.05-1.5-.08-3-.16-4.49A1.33,1.33,0,0,1,1.5,65.05,2,2,0,0,0,2,64.74a2.63,2.63,0,0,0-.41-.35,2,2,0,0,1-1.21-2c.05-1.43,0-2.86,0-4.29a7.41,7.41,0,0,1,.19-1.71,2.47,2.47,0,0,1,.61-.82,3,3,0,0,1,.44-.33c-.16-.12-.32-.36-.48-.37-.68-.06-.78-.54-.76-1C.46,52,.62,50.18.7,48.35c0-.61-.21-1.23-.14-1.84.15-1.38-.29-2.92,1-4.06.08-.07,0-.52-.19-.64a2.42,2.42,0,0,1-.82-2.18c0-1.67,0-3.34,0-5,0-1,.44-1.28,1.4-1a2.21,2.21,0,0,0,.66.1c.09,0,.17-.21.26-.33l-.3-.18c-.05,0-.12,0-.18,0C.24,32.69-.28,31.73.27,29.56a6.7,6.7,0,0,0,0-1.9c0-.91-.12-1.83-.08-2.73,0-.12.1-.22.23-.34,0,.09.09.17.13.25a3.44,3.44,0,0,0,.3-.69.42.42,0,0,0-.06.08,3.18,3.18,0,0,1-.37.36,3.08,3.08,0,0,1-.24-.52c-.05-.16,0-1.68,0-1.85a29.44,29.44,0,0,0,0-3.76,3,3,0,0,1,.38-1.91.2.2,0,0,1,0,.08c.1-.16.27-.3.28-.46s0-.13,0-.2c-.12.19-.23.38-.34.58a.91.91,0,0,1-.19-.45c0-1.31,0-4.37,0-5.69,0-.33-.16-.67-.16-1C.11,7.08.06,4.75,0,2.41A1.36,1.36,0,0,1,1.34.94C3.26.72,5.19.47,7.12.23c.11,0,.19-.13.29-.16a2.94,2.94,0,0,1,3.48,2.39,4.71,4.71,0,0,1-.53,2.27A5.29,5.29,0,0,0,10,9c.57,1.87-.16,3.49-1.09,5s-1.12,1.45-2.61.8a3.52,3.52,0,0,0-3,.61s.11.31.15.31a8.39,8.39,0,0,0,1.33-.22C6,15.26,6.55,15.61,7,16.8a3.27,3.27,0,0,1-.38,3.59c-.06.06-.16.11-.19.19L5.8,22.05c.42,0,.84,0,1.27,0a3.17,3.17,0,0,1,3.14,3.15c0,1.23.15,2.46.17,3.69a2.61,2.61,0,0,1-2.52,2.85,8.28,8.28,0,0,0-1.67.52c-.1,0-.16.2-.24.3.11.08.23.22.35.22,1.3.06,1.66,1.13,2.1,2,1,2,.42,3.68-1,5.21a4.65,4.65,0,0,0-.41.64c-.52.75-1.05,1.45-2.17,1.3a11.76,11.76,0,0,0-2,0c-.11,0-.22.11-.33.16a2,2,0,0,0,.3.2,5.63,5.63,0,0,0,3.84-.19c1.56-.51,2.47,0,3,1.54a11.72,11.72,0,0,0,1.59,3.65c1,1.27.46,3.69-.49,4.78a3.28,3.28,0,0,0-.71,1.49,1.5,1.5,0,0,1-1.94,1.27c-.57-.15-1.15-.26-1.73-.36a1.36,1.36,0,0,0-.47.12,1.77,1.77,0,0,0,.15.46c.52.78,1.07,1.53,1.58,2.31a2.07,2.07,0,0,1-.15,2.24c-.4.7-.87,1.37-1.21,2.1A5.48,5.48,0,0,1,3.8,64c-.19.19-.34.34-.5.48.23,0,.5.09.66,0A15.9,15.9,0,0,0,6.26,63c1.3-1.18,2.58-1,3.24.67.47,1.17,1,2.31,1.43,3.52a5,5,0,0,1,.15,2.07,18.81,18.81,0,0,1-.66,2.86c-.31,1.07-.85,1.25-1.83.75-.44-.22-.9-.4-1.35-.6.09.44.17.89.29,1.34.6,2.18.25,3.16-1.56,4.38a2.46,2.46,0,0,0-.41.44,2,2,0,0,0,.6-.08,7.4,7.4,0,0,0,1.77-.91,1.47,1.47,0,0,1,1.77-.2A24.44,24.44,0,0,1,12.43,79c1.21.87,1.46,2.27,1.69,3.58A34.22,34.22,0,0,1,14.49,87Z"/><path id="fill1" d="M3.81,64l-.5.49c.22,0,.49.08.65,0A15.22,15.22,0,0,0,6.27,63c1.29-1.18,2.57-.95,3.22.66.48,1.18,1,2.32,1.43,3.53a5,5,0,0,1,.16,2.07,19.09,19.09,0,0,1-.66,2.86c-.31,1.07-.85,1.26-1.84.75-.43-.22-.89-.4-1.34-.6.1.44.18.9.3,1.34C8.13,75.76,7.78,76.74,6,78a2.56,2.56,0,0,0-.43.44,2,2,0,0,0,.61-.08,7.58,7.58,0,0,0,1.77-.91,1.45,1.45,0,0,1,1.76-.2A23.67,23.67,0,0,1,12.43,79c1.21.87,1.45,2.27,1.69,3.58A34.22,34.22,0,0,1,14.49,87c0,1.06-.31,1.16-1.37,1a31.91,31.91,0,0,0-3.8-.22c-1.23-.06-2.46-.19-3.69-.16A16.69,16.69,0,0,0,2.4,88,1.21,1.21,0,0,1,1,87.6a2.57,2.57,0,0,1-.39-1.38c0-1.89.72-3.72.31-5.65-.16-.74-.28-1.68.68-2.21a.78.78,0,0,0-.05-.69,3.4,3.4,0,0,1-.83-3.06c.05-.73.66-1,1.3-1.14.4-.1.8-.22,1.19-.36.08,0,.12-.15.18-.22s-.19-.12-.27-.11-.38.14-.56.15C1,73,.46,73,.52,71c0-1.49-.1-3-.16-4.49a1.32,1.32,0,0,1,1.15-1.48c.17,0,.31-.21.46-.31a2.63,2.63,0,0,0-.41-.35,2,2,0,0,1-1.22-2c.06-1.43,0-2.86,0-4.3a7.6,7.6,0,0,1,.19-1.71,2.54,2.54,0,0,1,.61-.81,3,3,0,0,1,.44-.33c-.16-.13-.31-.36-.48-.37-.68-.06-.78-.55-.76-1C.46,52,.62,50.18.7,48.35c0-.61-.21-1.24-.14-1.84.15-1.38-.29-2.92,1-4.06.08-.07,0-.52-.18-.64a2.38,2.38,0,0,1-.83-2.18c0-1.67,0-3.34,0-5,0-1,.44-1.29,1.4-1a2.16,2.16,0,0,0,.66.1c.1,0,.18-.21.27-.32-.11-.07-.21-.14-.31-.19s-.12,0-.18,0C.24,32.69-.28,31.74.27,29.57a6.78,6.78,0,0,0,0-1.91c0-.91-.12-1.82-.08-2.73,0-.24.42-.45.6-.7.85-1.23,2.5-1,3.5-1.9a13,13,0,0,0,1.23-1.44,7.89,7.89,0,0,0,.9-1.42,3.13,3.13,0,0,0,.2-1.22A6.64,6.64,0,0,0,6.44,17c-.16-.83-.64-1.08-1.46-.9a17.48,17.48,0,0,1-2.69.41c-1.35.07-1.84.76-1.57,2.11a12.37,12.37,0,0,1,0,2.11c0,.66.16,2.64.16,3.3a2.49,2.49,0,0,1-.32.81,6,6,0,0,1-.37-.77c-.06-.16,0-1.68,0-1.86a27.58,27.58,0,0,0,0-3.75,4.39,4.39,0,0,1,1-3c.07-.12.29-.15.45-.19a9,9,0,0,0,2.07-.61A3.33,3.33,0,0,1,7,14.58a.72.72,0,0,0,1.05-.34,35.92,35.92,0,0,0,1.57-3.46A1.85,1.85,0,0,0,9.48,9.7,7.65,7.65,0,0,1,10,3.76a2,2,0,0,0-.27-2.32C9,.53,8,.73,7.06.8c-1.21.09-2.42.32-3.63.51a16.77,16.77,0,0,0-2,.37A1,1,0,0,0,.67,3.15a1.16,1.16,0,0,1,0,.42C.78,6.38.85,9.19.88,12c0,.81.06,3.36,0,4.17,0,.16-.18.3-.28.46-.08-.18-.24-.36-.23-.53,0-1.32,0-4.37,0-5.69,0-.33-.15-.66-.16-1Q.07,5.92,0,2.42A1.37,1.37,0,0,1,1.33.94C3.26.72,5.19.47,7.12.23c.1,0,.19-.13.3-.16C8.9-.32,10.86,1,10.89,2.46a4.79,4.79,0,0,1-.53,2.26A5.36,5.36,0,0,0,10,9c.58,1.87-.15,3.5-1.08,5s-1.12,1.46-2.61.81a3.51,3.51,0,0,0-3,.6s.11.31.15.31a8.71,8.71,0,0,0,1.34-.22C6,15.26,6.55,15.61,7,16.8a3.27,3.27,0,0,1-.38,3.59c-.06.06-.15.11-.19.19-.22.49-.43,1-.64,1.47.43,0,.85,0,1.28,0a3.18,3.18,0,0,1,3.14,3.15c0,1.23.15,2.46.17,3.69a2.59,2.59,0,0,1-2.53,2.84,9.41,9.41,0,0,0-1.66.53c-.1,0-.16.2-.24.3.11.08.23.22.35.23,1.3,0,1.66,1.12,2.1,2,1,2,.42,3.68-1,5.21a6.81,6.81,0,0,0-.41.63c-.53.76-1.06,1.46-2.17,1.3a11.78,11.78,0,0,0-2,0c-.11,0-.22.1-.33.15a1.44,1.44,0,0,0,.31.19,5.49,5.49,0,0,0,3.83-.18c1.56-.51,2.46,0,3,1.54a11.82,11.82,0,0,0,1.59,3.65c1,1.27.45,3.69-.49,4.78a3.38,3.38,0,0,0-.71,1.49,1.5,1.5,0,0,1-1.94,1.27c-.57-.14-1.15-.26-1.73-.36a1.39,1.39,0,0,0-.47.11,1.92,1.92,0,0,0,.15.48c.52.77,1.07,1.52,1.57,2.3a2,2,0,0,1-.15,2.24c-.39.71-.87,1.37-1.2,2.1A5.51,5.51,0,0,1,3.81,64m2,22.88,3.5.18c1.21.06,2.42.07,3.62.19.77.08,1.14-.17,1-1-.21-1.46-.4-2.92-.73-4.35a3.46,3.46,0,0,0-1.55-2.66,15.42,15.42,0,0,1-1.75-1.19c-.49-.34-1.06-.6-1.57-.18-1.63,1.37-3.45,1.31-5.33.79-.95-.27-1.4,0-1.42,1s0,2.29,0,3.43A22.11,22.11,0,0,1,1.24,86c-.2,1.15.23,1.53,1.42,1.3,1-.19,2-.25,3.16-.37M5,53.87a24.35,24.35,0,0,1,2.71.22c.84.14,1.41,0,1.61-.56a10,10,0,0,1,1-2.09,3.24,3.24,0,0,0,.07-4.12,6,6,0,0,1-1.1-2.43,7,7,0,0,0-.51-1.39,1.38,1.38,0,0,0-1.91-.84c-1.44.39-2.88.87-4.39.22-.14-.06-.61.21-.67.41a12.2,12.2,0,0,0-.54,2.45c-.07.68.14,1.38.11,2.06-.07,2.05-.22,4.09-.3,6.13,0,.19.25.53.39.54a10,10,0,0,0,1.63-.14A14.46,14.46,0,0,0,5,53.87M9.67,28.44c0-.72,0-1.44,0-2.15a8.76,8.76,0,0,0-.32-1.92c-.57-1.87-3.1-2.23-4.58-1.27a14.89,14.89,0,0,1-3,1.46c-.81.3-1.26.78-1.07,1.63a17.19,17.19,0,0,1,.05,5.26.9.9,0,0,0,.37.77,6.28,6.28,0,0,0,1.71.41,3.78,3.78,0,0,0,2.81-.8,10.29,10.29,0,0,1,2.88-1,1.76,1.76,0,0,0,1.13-2.41m-7.43,37c-.91.33-1.28.66-1.19,1.93s0,2.71,0,4.06c0,.56.46,1.22.87,1.1A11.42,11.42,0,0,0,4,71.85a4.76,4.76,0,0,1,4.88.37.91.91,0,0,0,.71.14c.16-.09.22-.43.26-.67A11.93,11.93,0,0,1,10.06,70c.2-.64.7-1.16.36-2-.62-1.42-1.08-2.9-1.68-4.32A1.06,1.06,0,0,0,7,63.21a7,7,0,0,1-4.73,2.21M1.16,35.87a4.14,4.14,0,0,1,.09.6c0,1.29,0,2.58,0,3.87,0,.82.59,1.2,1.4,1a5.79,5.79,0,0,1,1.5,0c.67,0,1.34.23,1.82-.47s1.2-1.58,1.71-2.43A4,4,0,0,0,7.16,34a1.79,1.79,0,0,0-2-.68c-1.24.31-2.33,1.24-3.72,1-.09,0-.33.27-.33.41a10.41,10.41,0,0,1,.07,1.18M6.63,59.42c.72-.73.7-1,.14-1.85a11.78,11.78,0,0,1-.86-1.7c-.28-.62-.68-1-1.4-.83s-1.36.48-2,.66C1,56.07,1.18,57.31,1.1,58.32c-.11,1.43,0,2.88,0,4.32,0,.84.89,1.65,1.61,1.31a5.53,5.53,0,0,0,2.85-2.26c.37-.71.67-1.45,1.09-2.27M3.31,73.83a1.61,1.61,0,0,0-.44,0c-1.34.34-1.52.6-1.44,2.07.05.82.65,1.36,1.66,1.51a3,3,0,0,1,.38.15,2.81,2.81,0,0,0,3.62-2,5.9,5.9,0,0,0-.22-2.27c-.1-.47-.37-.87-1-.55S4.22,73.42,3.31,73.83Z"/></g></g></svg>