<svg xmlns="http://www.w3.org/2000/svg" viewBox="0 0 35.99 47.36"><defs><style>.cls-1{fill:#e0d680;}.cls-2{fill:#7f7f7f;}</style></defs><g id="Layer_2" data-name="Layer 2"><g id="wall-light-1-front"><path id="fill3" class="cls-1" d="M33.55,23.79a15.23,15.23,0,0,1-1.4,5.87,18.13,18.13,0,0,1-2.55,4.2,1,1,0,0,1-.94.21c-.66-.33.11-.61.12-.94.4-1.24.73-2.4,1-3.57a15.45,15.45,0,0,0,.33-2.25c.07-1.15.07-2.31.1-3.46a14.21,14.21,0,0,0-.35-4.55c0-.08.19-.32.31-.33a6.59,6.59,0,0,1,1.59-.11,1,1,0,0,1,.74.57A17.36,17.36,0,0,1,33.55,23.79Zm-5.3-4.39a.84.84,0,0,0-.57-.49c-.82,0-1.64.06-2.46.07-1.34,0-2.69,0-4,.08a.65.65,0,0,0-.49.32c-.22,1.4-.49,2.8-.57,4.21a31.68,31.68,0,0,0,.2,3.89,13.46,13.46,0,0,0,2.05,6.15c.29.45.62.89,1.3.8.85-.11,1.7-.18,2.64-.34a17.27,17.27,0,0,0,2.35-7.46A17.31,17.31,0,0,0,28.25,19.4Zm-9.89,5.71a14.33,14.33,0,0,1,.54-5.4c0-.13-.21-.5-.37-.55a2.72,2.72,0,0,0-1.1,0c-.38.05-.89.08-1.1.33a7,7,0,0,0-1.59,4.15,16.15,16.15,0,0,0,1.16,7,1.23,1.23,0,0,1,.22.24c1,1.81,2.08,3.53,4.44,3.69a4.81,4.81,0,0,1,.53.07A2.5,2.5,0,0,0,21,34,17.94,17.94,0,0,1,18.36,25.11Z"/><path id="fill2" class="cls-2" d="M35.14,15.3c-.38-.07-.79,0-1.18-.06a1.33,1.33,0,0,1-.73-.3A10.32,10.32,0,0,0,29,12.42a2.1,2.1,0,0,1-.84-.65c-.5-.55-.84-1.33-1.45-1.66-.83-.44-1.65-.67-1.33-1.88.05-.19-.16-.46-.26-.67a3.45,3.45,0,0,1-.46-.92c-.24-2-.43-3.95-.67-5.92A2.52,2.52,0,0,0,23.63,0a2.09,2.09,0,0,0-.25.68c0,.9.11,1.8.06,2.69s-.26,1.86-.36,2.78a1.41,1.41,0,0,1-1.51,1.37,22.66,22.66,0,0,0-9,1.07,34.18,34.18,0,0,0-8.27,3.49c-.89.55-.91.49-.91-.59,0-1.55,0-3.11-.05-4.66,0-.83-.9-1.38-1.9-1.39A1.34,1.34,0,0,0,0,6.68,20.12,20.12,0,0,0,.1,9.25c.1,1.83.25,3.66.33,5.5,0,1.68,0,3.37,0,5.06,0,1,.07,2,.07,2.94a1.26,1.26,0,0,0,.83,1.31c.79.25,1.36,0,1.89-.85.11-.83.2-1.62.23-2.42a13.15,13.15,0,0,1,0-1.78c0-.16.68-.14,1-.28a3,3,0,0,0,.89-.53c.46-.44.89-.92,1.32-1.4,2.11-2.36,4.92-3.68,7.69-5A20.13,20.13,0,0,1,20.7,10a2.26,2.26,0,0,1,.45,0c-.1.14-.18.29-.28.43a11.91,11.91,0,0,1-.8,1.07,4.07,4.07,0,0,1-1,.94C18,13,16.9,13.41,15.9,14s-1.7,1.36-3.06,1.28c-.92,0-1.63,1.53-.81,2.5a2.58,2.58,0,0,0,1.74.93c.82.08.94.31.58,1a10.48,10.48,0,0,0-1,4.24,13.08,13.08,0,0,0,1.86,7.7c.62,1,1,2.19,2.14,2.85a.62.62,0,0,1,.25.51c-.11.41-.41.83.15,1.11a3.64,3.64,0,0,0,1.2.33c.48,0,.54.27.52.66a1.91,1.91,0,0,0,.93,1.77,3.86,3.86,0,0,0,2,.69.35.35,0,0,0,0,.19A11.55,11.55,0,0,0,23.15,41c.15.19.41.37.43.57.2,1.73.35,3.46.53,5.19a2.47,2.47,0,0,0,.19.56c.14-.19.38-.35.42-.55.22-1.48.44-3,.58-4.45a1.13,1.13,0,0,1,.82-1.12,1.1,1.1,0,0,0,.57-.87c-.12-.66.08-.87.69-1a2,2,0,0,0,1.84-2.23c-.11-.68.21-.76.75-.88a2.52,2.52,0,0,0,1.1-.75c.12-.12-.05-.49,0-.75a2,2,0,0,1,.22-.62,29.1,29.1,0,0,0,2.06-3.63A18.06,18.06,0,0,0,34.84,22a4,4,0,0,0-1.05-2.57c-.43-.43-.45-.62.25-.73a2,2,0,0,0,1.75-1.3C36.2,16.33,36,15.45,35.14,15.3ZM28.67,26.63a17.27,17.27,0,0,1-2.35,7.46c-.94.16-1.79.23-2.64.34-.68.09-1-.35-1.3-.8a13.46,13.46,0,0,1-2.05-6.15,31.68,31.68,0,0,1-.2-3.89c.08-1.41.35-2.81.57-4.21a.65.65,0,0,1,.49-.32c1.34,0,2.69,0,4-.08.82,0,1.64-.09,2.46-.07a.84.84,0,0,1,.57.49A17.31,17.31,0,0,1,28.67,26.63Zm-12.55,4.2a1.23,1.23,0,0,0-.22-.24,16.15,16.15,0,0,1-1.16-7,7,7,0,0,1,1.59-4.15c.21-.25.72-.28,1.1-.33a2.72,2.72,0,0,1,1.1,0c.16.05.41.42.37.55a14.33,14.33,0,0,0-.54,5.4A17.94,17.94,0,0,0,21,34a2.5,2.5,0,0,1,.14.57,4.81,4.81,0,0,0-.53-.07C18.2,34.36,17.11,32.64,16.12,30.83Zm16-1.17a18.13,18.13,0,0,1-2.55,4.2,1,1,0,0,1-.94.21c-.66-.33.11-.61.12-.94.4-1.24.73-2.4,1-3.57a15.45,15.45,0,0,0,.33-2.25c.07-1.15.07-2.31.1-3.46a14.21,14.21,0,0,0-.35-4.55c0-.08.19-.32.31-.33a6.59,6.59,0,0,1,1.59-.11,1,1,0,0,1,.74.57,17.36,17.36,0,0,1,1,4.36A15.23,15.23,0,0,1,32.15,29.66Z"/><path id="fill1" d="M35.14,15.3c-.39-.07-.79,0-1.18-.06a1.3,1.3,0,0,1-.73-.3A10.32,10.32,0,0,0,29,12.42a2.27,2.27,0,0,1-.84-.65c-.5-.55-.84-1.33-1.45-1.65-.83-.45-1.65-.68-1.33-1.89.05-.19-.16-.45-.26-.67a3.45,3.45,0,0,1-.46-.92c-.24-2-.43-3.95-.66-5.92A2.85,2.85,0,0,0,23.63,0a2.12,2.12,0,0,0-.25.67c0,.9.11,1.81.06,2.7s-.26,1.85-.36,2.78a1.4,1.4,0,0,1-1.51,1.36,23.1,23.1,0,0,0-9,1.07,34.88,34.88,0,0,0-8.26,3.5c-.89.55-.91.49-.91-.59,0-1.55,0-3.11-.05-4.67,0-.82-.9-1.37-1.9-1.38A1.32,1.32,0,0,0,0,6.68,18.43,18.43,0,0,0,.1,9.25c.1,1.83.26,3.66.32,5.49s0,3.38,0,5.07c0,1,.07,2,.07,2.93a1.23,1.23,0,0,0,.83,1.31c.79.26,1.37,0,1.89-.84.11-.83.19-1.63.23-2.42a13.11,13.11,0,0,1,0-1.78c0-.15.68-.14,1-.28a2.62,2.62,0,0,0,.88-.53c.47-.44.9-.92,1.33-1.4,2.11-2.36,4.92-3.68,7.69-5A19.86,19.86,0,0,1,20.71,10a3.09,3.09,0,0,1,.43,0c-.09.15-.17.3-.27.44-.26.36-.51.74-.8,1.07a4.27,4.27,0,0,1-1,.94C18,13,16.9,13.41,15.9,14s-1.7,1.37-3.06,1.28c-.92-.06-1.63,1.53-.81,2.5a2.56,2.56,0,0,0,1.74.93c.83.08.94.32.58,1a10.48,10.48,0,0,0-1,4.24,13.13,13.13,0,0,0,1.86,7.71c.62,1,1,2.18,2.14,2.84a.63.63,0,0,1,.26.51c-.12.41-.41.83.14,1.1a3.37,3.37,0,0,0,1.2.34c.48,0,.55.27.52.66a1.92,1.92,0,0,0,.93,1.77,4,4,0,0,0,2,.7.28.28,0,0,0,0,.18A10.07,10.07,0,0,0,23.15,41c.15.19.41.36.43.57.2,1.73.35,3.46.53,5.19a2.24,2.24,0,0,0,.19.55c.14-.18.39-.34.42-.54.22-1.48.44-3,.58-4.45a1.13,1.13,0,0,1,.82-1.12,1.06,1.06,0,0,0,.57-.87c-.12-.66.08-.87.69-1a2,2,0,0,0,1.84-2.23c-.11-.69.21-.75.75-.88a2.52,2.52,0,0,0,1.1-.75c.12-.13-.05-.5,0-.75a1.58,1.58,0,0,1,.21-.62,28.4,28.4,0,0,0,2.06-3.63A18,18,0,0,0,34.84,22a4,4,0,0,0-1.05-2.57c-.43-.43-.45-.62.25-.73a2,2,0,0,0,1.75-1.3C36.2,16.33,36,15.46,35.14,15.3ZM2.52,23.23l0,0-.1.13a.71.71,0,0,1-.14.1,1.14,1.14,0,0,1-.3.13.57.57,0,0,1-.18,0,.65.65,0,0,1-.31,0h0a.91.91,0,0,1-.14-.07l-.13-.1a.55.55,0,0,1-.08-.15.25.25,0,0,1,0-.07s0,0,0,0A1.25,1.25,0,0,1,1,23l0-.07v-.09c0-1.27.09-2.53.08-3.79C1.08,17,1,15,1,12.94S.7,9.07.65,7.13A1.5,1.5,0,0,1,1.21,6a1.21,1.21,0,0,1,1.1.33,2.36,2.36,0,0,1,.45,1.33c0,1.25,0,2.51,0,3.76,0,.77-.14,1.54-.16,2.31s0,1.31.06,2c0,1.64,0,3.27,0,4.91,0,.53,0,1.06,0,1.59a1.51,1.51,0,0,0,0,.3,1.4,1.4,0,0,1,0,.35A1.1,1.1,0,0,1,2.52,23.23ZM22.91,8a5.32,5.32,0,0,1,.73-.9c.05,0,.41.13.52.28a11.46,11.46,0,0,1,.59,1.09c-.09.77-.37,1-1,.75-.13-.06-.31,0-.44-.08C23,9,22.39,9,22.91,8.36,23,8.29,22.86,8.08,22.91,8ZM19.12,9.22c-.81.17-1.59.47-2.38.71a21.89,21.89,0,0,0-7.31,3.49,51,51,0,0,0-4.34,4c-.27.26-.83.61-1,.51a1.7,1.7,0,0,1-.7-1.09c-.12-.94-.06-1.9-.13-2.85a1.07,1.07,0,0,1,.63-1.06,36.41,36.41,0,0,1,9-3.81,19.45,19.45,0,0,1,6.56-1c.69,0,1.38.06,2.08.05s.55.36.48.73c0,0-.34,0-.52.07C20.71,9,19.9,9.06,19.12,9.22Zm1.64,2.13A2.55,2.55,0,0,1,23.61,10a22,22,0,0,1,2.89,1,.63.63,0,0,1,.31.17c.2.28.35.59.53.88l-.87.05H26c-.72,0-1.28-.08-1.85-.09s-1.21,0-1.81,0c-.35,0-.69.11-1,.12a1,1,0,0,1-.63-.17C20.59,11.84,20.67,11.52,20.76,11.35Zm-4.6,3.16a13.44,13.44,0,0,1,5.32-1.84,20.85,20.85,0,0,1,5.65.28A22.57,22.57,0,0,1,32,14.78a.75.75,0,0,1,.32.54s0,0,0,0c-2.65-.08-6.18-.16-8.8-.21-.72,0-1.43.06-2.15.1l-5,0a3,3,0,0,1-.71-.18C15.81,14.9,15.94,14.63,16.16,14.51Zm0,16.31a1.19,1.19,0,0,0-.22-.23,16.15,16.15,0,0,1-1.16-7,7,7,0,0,1,1.59-4.15c.21-.25.72-.28,1.1-.33a2.72,2.72,0,0,1,1.1,0c.17.05.41.41.37.55a14.33,14.33,0,0,0-.54,5.4A18,18,0,0,0,20.94,34a1.78,1.78,0,0,1,.15.57,4.51,4.51,0,0,0-.53-.07C18.19,34.35,17.11,32.64,16.12,30.82Zm5,1.78c.24.48.52.94.78,1.42a2.66,2.66,0,0,1,.16.39c-.14-.07-.37-.1-.43-.21-.64-1.34-1.33-2.66-1.86-4-1-2.74-.87-5.61-.74-8.46a10.37,10.37,0,0,1,.34-1.52c.12-.33.11-.6.2-.82s.26-.22.4-.33a1.37,1.37,0,0,1,.05.4,24.94,24.94,0,0,0-.53,3.81C19.56,26.44,19.66,29.65,21.15,32.6Zm8.45-10c0,.11-.13.21-.19.32a1,1,0,0,1-.11-.32,7.24,7.24,0,0,0-.63-3.34s0-.2.07-.21.34,0,.36,0c.19.43.33.86.48,1.3A18.08,18.08,0,0,1,29.6,22.56Zm-.05,4.3c-.08.81-.17,1.62-.27,2.42a13,13,0,0,1-1.54,4.49c-.07.12-.27.17-.41.25a1.61,1.61,0,0,1,0-.58c.36-.93.74-1.85,1.12-2.77.24-1.4.48-2.65.73-3.89a3,3,0,0,1,.1-.43c.07,0,.18,0,.2.07A1.3,1.3,0,0,1,29.55,26.86Zm-.87-.23a17.42,17.42,0,0,1-2.36,7.46c-.94.16-1.79.22-2.64.34-.67.09-1-.35-1.29-.8a13.36,13.36,0,0,1-2.06-6.15,28.16,28.16,0,0,1-.19-3.89,35,35,0,0,1,.57-4.2c0-.14.31-.33.48-.33,1.34,0,2.69,0,4-.08.82,0,1.64-.09,2.46-.07a.84.84,0,0,1,.57.49A17.32,17.32,0,0,1,28.68,26.63ZM24.76,42.5a5.8,5.8,0,0,0-.1.94,2.85,2.85,0,0,1-.13.48c-.11-.17-.32-.33-.33-.5a13,13,0,0,1,0-1.65c0-.13.19-.25.3-.38.1.15.28.28.3.44A1.93,1.93,0,0,1,24.76,42.5ZM26.05,40a1.51,1.51,0,0,1-.59.41c-1.82.27-1.92-.41-2.19-.79.7,0,1.4-.07,2.1,0,.23,0,.46,0,.69.06A.56.56,0,0,1,26.05,40Zm2-1.88a13.79,13.79,0,0,1-2.43.56,25.2,25.2,0,0,1-2.75,0,7.4,7.4,0,0,0-1.18-.11A1.7,1.7,0,0,1,20,37c0-.15.41-.41.65-.43.93-.08,1.85-.09,2.78-.11,1.43,0,2.85,0,4.28,0,.32,0,.82-.18.85.38S28.74,38,28.06,38.15Zm2.16-2.63a2.53,2.53,0,0,1-.55,0c-1.66,0-3.32,0-5,0-1.82,0-3.65.12-5.47.16a2.12,2.12,0,0,1-.73-.15,3.66,3.66,0,0,1-.56-.28l.7-.21c1.74,0,3.33,0,4.9,0s3.29-.25,4.94-.33a9.38,9.38,0,0,1,1.74.2c.13,0,.23.23.34.34C30.44,35.35,30.34,35.49,30.22,35.52Zm.48-1.61c-.08.14-.29.19-.44.28l.09-.55c.8-1.22,1.51-2.36,2.22-3.5.08-.13.1-.28.18-.4s.14-.09.22-.14.09.2.06.26C32.26,31.22,31.49,32.57,30.7,33.91Zm1.45-4.25a17.79,17.79,0,0,1-2.55,4.2,1,1,0,0,1-.94.22c-.66-.34.11-.62.13-.95.39-1.24.72-2.4,1-3.57a14.2,14.2,0,0,0,.33-2.25c.07-1.15.07-2.31.1-3.46a14.23,14.23,0,0,0-.35-4.55c0-.08.19-.32.31-.33a6.12,6.12,0,0,1,1.59-.11,1,1,0,0,1,.74.57,17.36,17.36,0,0,1,1,4.36A15.19,15.19,0,0,1,32.15,29.66Zm1.57-9.48a3.86,3.86,0,0,1,.61,2.56c0,.09-.11.17-.18.26a1.27,1.27,0,0,1-.12-.23c-.06-.21-.1-.43-.15-.65-.15-.69-.3-1.23-.45-1.77a.9.9,0,0,1,0-.28C33.54,20.11,33.68,20.11,33.72,20.18Zm1.47-3.47a2,2,0,0,1-1.85,1.21c-1.83,0-3.66,0-5.49,0-1.22,0-2.44.22-3.66.21-3,0-6-.13-8.94-.22a13.63,13.63,0,0,1-1.9-.21.92.92,0,0,1-.79-1.16.87.87,0,0,1,1-.73q4.39.06,8.77.07c1.85,0,3.7,0,5.54,0,1.19,0,3.34,0,4.53-.07l.08,0a.69.69,0,0,0,.65.23,15.44,15.44,0,0,1,1.67-.11C35.4,15.92,35.39,16.31,35.19,16.71Z"/></g></g></svg>