<svg xmlns="http://www.w3.org/2000/svg" viewBox="0 0 49.74 72.78"><defs><style>.cls-1{fill:#56acb2;}.cls-2{fill:#ffe0ae;}</style></defs><g id="Layer_2" data-name="Layer 2"><g id="door-1-front"><path id="fill2" class="cls-1" d="M22.94,25.6c0,.65.1,1.3.15,1.95a.86.86,0,0,1-.75.9c-1.11,0-2.22,0-3.32,0H18.5c-2.33,0-4.67-.08-7-.09-1.63,0-3.26,0-4.89,0-.52,0-1,.07-1.56.1-.31,0-.39-.17-.39-.44,0-.74,0-1.49,0-2.23,0-.48-.07-1-.07-1.46V18.61c0-.55-.08-1.11-.07-1.67,0-.79.06-1.58.07-2.37s0-1.27,0-1.91c0-1-.07-1.92-.07-2.88s.07-2,.07-3c0-.65,0-1.3,0-2a.23.23,0,0,1,.09-.18A.71.71,0,0,1,5,4.58l3.42,0c.54,0,1.08-.05,1.62,0,1,0,2.07.14,3.1.16q3.51.09,7,.13c.46,0,.92,0,1.38,0a7.34,7.34,0,0,1,1,.11c.13,0,.25.09.21.34a7,7,0,0,0-.13,2.29,7.93,7.93,0,0,1,0,1.46c0,.29,0,.58.05.87,0,.79,0,1.58,0,2.37s0,1.84.08,2.75c0,.48.05,1,.07,1.47s0,1.16,0,1.73c0,1.57.05,3.15.07,4.72C22.88,23.84,22.9,24.72,22.94,25.6Zm3.41,2.71c.81,0,1.63,0,2.45,0l9.81.26h.28c1,0,2-.07,3.07-.06.62,0,1.26.08,1.89.11.37,0,.54-.14.53-.51,0-1.18-.07-2.35-.07-3.53,0-1.37.06-2.75.08-4.11,0-.35-.07-.69-.08-1,0-.6,0-1.19,0-1.79s.08-1.13.08-1.7c0-.74-.06-1.49-.07-2.24,0-.45.07-.91.07-1.37s-.07-1.08-.07-1.62c0-1,.07-1.93.07-2.89,0-.52,0-1-.07-1.58,0-.29-.06-.54-.07-.79a.94.94,0,0,0-1-.88c-.56,0-1.11.08-1.66.1-1,0-1.95,0-2.91.07l-3.31.06-2.3.08c-.91,0-1.84.08-2.75.08-1.45,0-2.9,0-4.34,0,0,0-.09,0-.12,0s-.24.15-.25.24c0,.77-.06,1.55-.08,2.33,0,.29,0,.58,0,.86,0,1-.13,2-.16,3,0,.52.07,1,.07,1.56,0,1.1-.08,2.2-.08,3.3,0,1.27,0,2.55.08,3.82,0,.83,0,1.68.08,2.52.05,1.52.09,3.05.15,4.57a5.32,5.32,0,0,1,0,.89c0,.32,0,.44.35.4C26.17,28.37,26.25,28.31,26.35,28.31ZM44.61,51.13c0-.68.06-1.36.06-2s-.06-1.29-.06-1.93c0-.4.07-.79.06-1.19,0-.78-.06-1.56-.06-2.35,0-1.67,0-3.35,0-5,0-.35-.06-.7-.06-1.06s.07-.52.06-.79-.05-.78-.06-1.18c0-1.69-.06-3.37-.08-5.07,0-.5-.22-.71-.73-.71l-1.56,0H38.91c-.93,0-1.86,0-2.78,0-3.21,0-6.43-.11-9.64-.16-.11,0-.23,0-.31,0s-.29.14-.31.25a2.56,2.56,0,0,0-.09.78c0,1.18.06,2.34.06,3.51,0,1.67,0,3.35,0,5,0,.32.08.64.08.95s-.07.89-.08,1.34c0,.27.08.53.08.8s-.08.74-.08,1.12c0,.65.08,1.31.07,2s-.06,1.41-.07,2.12c0,1.24,0,2.47,0,3.71a13.18,13.18,0,0,0,.08,1.41.71.71,0,0,0,.27.48,2,2,0,0,0,1.41.44c.12,0,.26.05.42.06.71,0,1.4-.09,2.09-.09l9,.11c.88,0,1.75,0,2.62.06a2.61,2.61,0,0,0,.28,0,5.55,5.55,0,0,1,2.22.1c.12,0,.4-.08.43-.18a2.74,2.74,0,0,0,.09-.86C44.72,52.21,44.62,51.68,44.61,51.13ZM22.77,47.42c0-.93-.05-1.86-.09-2.8,0-.68,0-1.36-.07-2a1.09,1.09,0,0,1,.07-.24,1.79,1.79,0,0,0,0-.33c0-.14-.08-.29-.08-.43,0-.87.05-1.74.08-2.6s.06-1.49.08-2.24c0-1.11.07-2.22.08-3.32s0-2.25,0-3.38c0-.27-.11-.42-.39-.41-.52,0-1,.05-1.55,0l-3.47-.09c-.2,0-.4-.09-.6-.09-.48,0-1,.09-1.43.12s-1.17,0-1.76,0L9.3,29.52H5.92c-.25,0-.51,0-.75.05a.51.51,0,0,0-.51.4,1.13,1.13,0,0,1-.24.29,1,1,0,0,0-.15.2s.1.07.13.12.17.22.17.34-.06.37-.06.55c0,1.54-.06,3.08-.09,4.62,0,1,0,2.11-.08,3.16,0,.72-.07,1.43-.08,2.15s0,1.25,0,1.87c0,1,.17,2.09.22,3.14.07,1.23.11,2.45.16,3.68,0,.87.07,1.74.08,2.61s0,.82.86.82c.61,0,1.2-.08,1.79-.09,1.23,0,2.46,0,3.69,0,.16,0,.32.09.48.08.53,0,1.06-.11,1.6-.11q2.67,0,5.34,0c1.22,0,2.45,0,3.67.08a2.75,2.75,0,0,0,.41,0,.05.05,0,0,0,.05,0v0c0-.09.08-.19.11-.28l0,0h0a.19.19,0,0,0,0-.08V51.83c0-1.13,0-2.25,0-3.38,0-.1,0-.24.06-.29.21-.16.18-.31,0-.5A.38.38,0,0,1,22.77,47.42Z"/><path id="fill1" class="cls-2" d="M49.44,67.57c-.09-1.83-.11-3.67-.16-5.49,0-1.26-.05-2.51-.07-3.76,0-1.87-.07-3.73-.07-5.61,0-2.35,0-4.69,0-7.05,0-1.45.07-2.9.07-4.36s0-3.08-.07-4.63c0-1.33-.07-2.67-.06-4,0-.79.12-1.57.14-2.36,0-.6,0-1.21-.07-1.81,0-1.57,0-3.16-.07-4.73,0-.19.06-.37.07-.56,0-.5,0-1,0-1.5,0-1,.15-2.09.14-3.14,0-1.29-.18-2.6-.2-3.89,0-1,.13-2.09.13-3.14,0-.87-.08-1.74-.12-2.61,0-.11,0-.22,0-.34,0-1.66,0-3.32,0-5,0-.86.1-1.72.15-2.59a.46.46,0,0,0-.11-.27,4.68,4.68,0,0,1-.56-.53A.64.64,0,0,0,47.92,0c-.33,0-.66.1-1,.12-.94,0-1.87.09-2.8.06a67.31,67.31,0,0,0-7,0c-.6,0-1.2,0-1.81,0H32.45c-.77,0-1.53.06-2.3.08L26.36.44l-1.19,0c-1.17,0-2.35,0-3.52,0H19.3c-.92,0-1.83,0-2.73,0C14,.48,11.34.41,8.73.36c-1.2,0-2.39,0-3.58,0L1.24.21A.88.88,0,0,0,1,.21C.72.31.29.24.24.65.16,1.38.12,2.11.08,2.83c0,.23.08.48.07.72C.11,4.45,0,5.34,0,6.24c0,.55.05,1.09.08,1.64s0,1.24.07,1.87C.2,11.17.28,12.59.3,14c0,1.2-.06,2.41-.07,3.61,0,1,0,2,0,2.93,0,1.17-.06,2.33-.08,3.51,0,.92,0,1.84,0,2.77,0,.59.07,1.19.07,1.78,0,1-.06,2-.07,3,0,.49.06,1,.06,1.48,0,2.17.06,4.35.08,6.52,0,.44,0,.88,0,1.31,0,.68,0,1.35,0,2C.24,44.32.14,45.68.13,47c0,1.68,0,3.36.07,5.05,0,.47,0,.94,0,1.41,0,1,.1,2,.15,3,0,.47.06.95.08,1.43,0,.89.07,1.77.07,2.66,0,1.84-.06,3.69-.08,5.54,0,1.61,0,3.23,0,4.85A7.61,7.61,0,0,0,.5,72a3.63,3.63,0,0,0,.15.54c.07-.1.21,0,.28,0a.4.4,0,0,0,.18,0c.16,0,.3-.06.45-.06l2.46,0,1.64-.05c1.21,0,2.42-.1,3.62-.08,1.8,0,3.6.11,5.39.16,1.18,0,2.35.06,3.53.06,1,0,1.9,0,2.85,0s2,0,3,0c.53,0,1.06.09,1.59.1,1.92,0,3.83,0,5.74,0,1.32,0,2.64,0,3.95,0l8,.07c.64,0,1.28.09,1.92.1,1.38,0,2.77,0,4.15,0,.09,0,.23-.09.24-.15a15,15,0,0,0,.08-1.77C49.67,69.75,49.49,68.66,49.44,67.57ZM26.35,6.3A.41.41,0,0,1,26.57,6,1.78,1.78,0,0,1,27,6l4.18,0c.11,0,.3.14.3.22,0,.45,0,.9,0,1.35V8.79c0,.61,0,1.13,0,1.66,0,.24-.05.35-.32.34-1.55-.06-3.09-.1-4.64-.14-.32,0-.4-.2-.39-.44,0-.54,0-1.1.07-1.65s.07-.82.08-1.23S26.33,6.63,26.35,6.3Zm5.34,14.15c0,.54,0,1.07.07,1.61,0,.29-.09.43-.4.42l-4.72-.13c-.27,0-.39-.13-.39-.41s0-.65,0-1c0-.59-.08-1.1-.07-1.61,0-.81,0-1.61.08-2.42a.34.34,0,0,1,.17-.23,4.31,4.31,0,0,1,.8-.06c.46,0,.93-.06,1.4,0l2.83.15c.27,0,.22.2.22.36C31.68,18.22,31.67,19.34,31.69,20.45ZM26.2,27.62c.5-.37.27-.91.27-1.38,0-.74-.09-1.49-.14-2.25,0-.31,0-.62,0-.94s.06-.32.3-.31l4.84.13c.26,0,.37.13.37.39,0,.56,0,1.12,0,1.68v2.61c0,.35-.16.5-.51.5L29,28c-.8,0-1.52,0-2.24-.06h-.27c-.09,0-.23,0-.24,0S26.16,27.65,26.2,27.62ZM37.82,10.31c0,.32-.12.42-.44.42-1.33,0-2.68,0-4,0-.38,0-.75,0-1.13,0s-.42-.06-.34-.44a6.72,6.72,0,0,0,0-1.18c0-.41.06-.81.06-1.22,0-.58,0-1.16-.07-1.74,0-.34.15-.43.45-.44l2.53-.07,2.56-.08c.31.05.35.21.35.43V9.4A9,9,0,0,0,37.82,10.31Zm-5.59.81c.42,0,.83,0,1.25,0,.84,0,1.68,0,2.52,0,.54,0,1.08-.08,1.62-.09.08,0,.25.11.26.18,0,.34,0,.68,0,1,0,1.29,0,2.51.07,3.72,0,.36-.12.48-.47.47l-4.87-.07h-.11c-.52.05-.51.05-.52-.48,0-.81,0-1.62-.08-2.43,0-.65-.05-1.31-.07-2C31.83,11.25,31.91,11.09,32.23,11.12Zm5.73,17-1.11,0c-1.41,0-2.82,0-4.24,0-.32,0-.4-.11-.39-.41,0-.66,0-1.31,0-2,0-.85,0-1.7-.08-2.55,0-.21,0-.28.26-.27.9,0,1.79.07,2.67.07s1.68,0,2.52,0c.3,0,.37.1.37.38,0,1.41,0,2.82,0,4.23A3.43,3.43,0,0,0,38,28.13Zm-.07-6.37a3.79,3.79,0,0,1,0,.59.32.32,0,0,1-.27.2c-1.73,0-3.45,0-5.18,0-.28,0-.36-.09-.35-.37,0-.67,0-1.36,0-2,0-1,0-2-.08-3,0-.28.08-.38.37-.36.51,0,1,.05,1.53,0s1.25,0,1.87,0,1.33,0,2,0c.23,0,.33.07.23.3,0,0,0,.05,0,.07C37.94,18.68,37.91,20.22,37.89,21.76ZM32.14,31c0-.32.1-.41.4-.38.53,0,1.07,0,1.61.05.81,0,1.55,0,2.28,0,.41,0,.8-.05,1.2,0,.11,0,.23.14.32.22s0,.1,0,.15c0,1.06,0,2.12.08,3.18,0,.41,0,.82.08,1.23s-.06.41-.38.39c-.73-.06-1.47-.12-2.21-.14-.91,0-1.83,0-2.75,0-.35,0-.49-.13-.48-.48a7.36,7.36,0,0,0,0-1.05C32.25,33.12,32.2,32.07,32.14,31Zm12,4.82-2.73,0c-.58,0-1.15,0-1.73,0-.33,0-.66,0-1,.05s-.32-.08-.32-.31c0-1.49,0-3-.08-4.48,0-.3.06-.4.38-.39,1.44,0,2.88,0,4.32,0,.21,0,.42-.06.63-.06a.43.43,0,0,1,.47.48v2.07C44.15,34.08,44.16,35,44.18,35.86Zm-5.76.67c0-.32.09-.4.39-.38,1.44.05,2.87.08,4.31.1a7.56,7.56,0,0,0,1.06,0c0,1.18,0,2.36,0,3.54,0,.72,0,1.43,0,2.14a1.62,1.62,0,0,0-.44-.07c-.95,0-2.34,0-3.3.06-.56,0-1.13.09-1.69.11-.1,0-.2-.15-.3-.24s0-.05,0-.07C38.47,40,38.45,38.25,38.42,36.53Zm-5.5,11.71,4.25-.14a.43.43,0,0,0,.17-.06c.64-.15.84,0,.84.65s0,1.12,0,1.68.1,1.09.13,1.63a3.92,3.92,0,0,1-.05.59.61.61,0,0,0,.08.32s0,.18.06.33l-5.06-.05h-.08c-.81,0-.81,0-.81-.81V48.72C32.43,48.23,32.43,48.25,32.92,48.24Zm-.55-11.78c-.22-.51.12-.46.45-.46,1.6,0,3.21.09,4.82.12.35,0,.48.13.47.48,0,1.11,0,2.22,0,3.33v1.53c0,.53,0,.55-.56.54H33.9c-.39,0-.77,0-1.16,0s-.37-.08-.37-.37c0-1.66,0-3.32,0-5C32.37,36.62,32.41,36.53,32.37,36.46Zm.39,5.9c.43,0,.87,0,1.29,0a4.48,4.48,0,0,0,.64-.06l2.51.06c.25,0,.5-.06.75-.05a.36.36,0,0,1,.22.23c0,.31,0,.63,0,.95,0,.93-.06,1.85-.08,2.78,0,.3,0,.59,0,.87s0,.56-.41.5a1.91,1.91,0,0,0-.48.05c-.75,0-1.49,0-2.24,0s-1.51.12-2.26.19c-.23,0-.27-.11-.27-.32V45.85c0-1,0-2.08-.08-3.12C32.35,42.42,32.49,42.35,32.76,42.36ZM43.81,53.27a8.48,8.48,0,0,0-1.13,0c-1,0-1.94,0-2.87,0H38.57c0-.17.07-.35.07-.38,0-.66,0-1.31-.08-2a.48.48,0,0,0,0-.12c0-.8,0-1.6-.08-2.4,0-.3.07-.4.39-.39,1.26,0,2.53.06,3.79.09.49,0,1,0,1.48.08,0,0,.14.12.14.17,0,.85-.06,1.71-.06,2.55a11.29,11.29,0,0,0,.1,1.84C44.43,53.3,44.39,53.36,43.81,53.27ZM44,47.79a.42.42,0,0,0-.16,0l-4.59-.17c-.24,0-.63.08-.69,0a1.52,1.52,0,0,1-.09-.78c0-1.38,0-2.76,0-4.15,0-.23,0-.32.3-.32,1.3,0,2.6,0,3.89,0,.31,0,1.06,0,1.38,0a.4.4,0,0,0,.17,0c0,1.77,0,3.54.05,5.31C44.28,47.7,44.46,48.2,44,47.79ZM44,28c0,.07-.13.17-.23.21a1.36,1.36,0,0,1-.35,0l-5.06-.08a3.27,3.27,0,0,0,0-.53c0-1.48-.08-3-.1-4.46,0-.06.12-.15.19-.15.54,0,1.1,0,1.64,0l3.83,0h0c0,.27,0,.54,0,.82,0,.74.11,1.49.13,2.25S44,27.32,44,28Zm0-10.85a3.21,3.21,0,0,0,0,.93v3.84c0,.22,0,.43,0,.65l-.06,0c-1,0-2.31.08-3.29.09-.73,0-1.46,0-2.18-.06-.06,0-.15-.12-.15-.19,0-1.77,0-3.55,0-5.34a.37.37,0,0,1,.26-.24c.83,0,1.65,0,2.47,0h2.67C44,16.78,44.12,16.78,44,17.15Zm0-1.06c0,.23-.08.3-.32.3-.87,0-1.75,0-2.63,0l-2.36.09c-.26,0-.43-.07-.42-.37v-.23c0-1.4-.05-2.8-.08-4.2a1.84,1.84,0,0,0-.05-.25c0-.22,0-.37.26-.37,1,0,2,0,3,0,.73,0,1.45-.05,2.18-.09.3,0,.45.12.44.44,0,.81,0,1.62,0,2.43S44,15.37,44,16.09Zm-.08-5.78c0,.3-.2.35-.41.36-.68,0-1.36,0-2,0H38.65a.49.49,0,0,0-.21,0c-.2.07-.3,0-.31-.2,0-1.49-.06-3-.07-4.47,0-.29.14-.4.46-.4,1.23,0,2.46,0,3.69,0,.53,0,1,0,1.56-.07.08.12.16.19.16.27,0,1,.06,2,.07,3C44,9.3,43.93,9.81,43.93,10.31ZM26.63,44.45c0-.64.06-1.27.07-1.9,0-.26.15-.26.33-.25l3.35.08c.47,0,.95,0,1.42,0,.09,0,.17.18.26.27v0c0,1.56,0,3.11.08,4.67,0,.37-.11.52-.49.49s-1,0-1.45,0c-.22,0-.45.07-.67.06-.75,0-1.51,0-2.25-.15-.53-.08-.6-.25-.58-.8,0-.24,0-.48,0-.72C26.68,45.6,26.63,45,26.63,44.45Zm.07-8.2c0-.31.09-.41.4-.39,1.53,0,3.06.09,4.59.11.29,0,.4.08.38.38s0,.64,0,1v4.36c0,.25-.13.36-.38.35l-1.57,0-2.88-.07a.49.49,0,0,1-.53-.59c.05-.35.06-.68.09-1C26.76,38.89,26.75,37.57,26.7,36.25Zm-.05-5.35c0-.09.17-.2.27-.21.6-.06,1.22-.11,1.82-.11s1,.09,1.5.1.77-.05,1.15,0a.51.51,0,0,1,.35.3c.08.87.12,1.76.17,2.64,0,.61.06,1.13.07,1.66,0,.29,0,.53-.44.34a1,1,0,0,0-.31,0L27,35.47c-.32,0-.39-.1-.4-.4,0-1,0-1.92-.05-2.88A9.31,9.31,0,0,1,26.65,30.9Zm.05,18.34a6.05,6.05,0,0,0,0-.74c-.05-.36.13-.43.42-.39s.72.09,1.07.1l3,.07a5.17,5.17,0,0,0,.68,0c.22,0,.23.08.22.25,0,.79,0,1.57,0,2.36,0,.48,0,1-.07,1.45a1.31,1.31,0,0,0,.09.59c.18.36,0,.3-.25.3l-3.31-.07a12.93,12.93,0,0,0-1.39,0c-.35,0-.38-.23-.4-.4a20,20,0,0,1-.16-2C26.62,50.21,26.67,49.73,26.7,49.24ZM27,11c.67.08,1.35,0,2,.07l2.16.07c.06,0,.14,0,.18,0s.21.13.21.18c0,.76-.07,1.51-.05,2.25s.11,1.51.14,2.25c0,.48-.06.54-.55.53-1.23,0-2.46-.08-3.69-.1a8.65,8.65,0,0,0-.88.05c-.24,0-.31-.09-.31-.32,0-.53,0-1.07,0-1.61s-.06-1.08-.08-1.58,0-.95,0-1.43S26.55,10.91,27,11Zm-4.7,1.79c.05,1,.1,1.87.16,2.77a.6.6,0,0,1-.7.71l-4.81,0c-.32,0-.42,0-.36-.43a13,13,0,0,0,0-2.16c-.05-.85-.15-1.69-.23-2.54,0-.2,0-.32.27-.31l4.38.14c.32,0,.65,0,1,.08s.31.14.29.38C22.31,11.82,22.32,12.29,22.32,12.76Zm.3,14.42a.66.66,0,0,0,0,.2c.09.45,0,.65-.48.66-.64,0-1.27,0-1.91,0L16.86,28v0c0-1.11-.05-2.81-.08-3.93,0-.37,0-.74,0-1.11s.1-.4.38-.4q2.47,0,4.95.06c.34,0,.44.14.45.47C22.56,24.46,22.6,25.82,22.62,27.18ZM16.4,20.62c0,.41.05.84.07,1.26-.13.17-.26.33-.39.33-1.35,0-2.69,0-4,0a1.21,1.21,0,0,0-.19,0c-.6.06-.6.06-.6-.53v-4.6c0-.56,0-.54.58-.54s1.14,0,1.71,0c.83,0,1.67,0,2.5.08.09,0,.2.16.27.27s0,.15,0,.23C16.34,18.25,16.37,19.43,16.4,20.62ZM16.46,26c0,.4,0,1.38,0,1.77a.85.85,0,0,0,0,.23L12.92,28H11.31a.43.43,0,0,1,0-.05c0-.51,0-1.49,0-2s-.05-1-.08-1.47,0-1-.08-1.48c0-.28.16-.33.35-.39s.08,0,.12,0c1.51,0,3,0,4.52,0,.29,0,.34.08.33.35-.05.57-.08,1.15-.08,1.73S16.45,25.58,16.46,26Zm6-4.12c0,.26-.08.36-.36.34-.48,0-1,0-1.45,0h-3.2c-.21,0-.54.08-.6,0a1.48,1.48,0,0,1-.08-.67c0-1-.05-1.9-.08-2.84,0-.49-.06-1-.07-1.46s0-.68.55-.69c.93,0,1.86.12,2.8.14a13.64,13.64,0,0,0,1.92-.06c.49-.06.57,0,.57.41,0,1.23,0,2.46,0,3.69C22.47,21.15,22.45,21.52,22.48,21.89ZM11,49.6a23.86,23.86,0,0,0-.05,3c.06.61-.23.47-.54.46-.56,0-1.13,0-1.71,0-.86,0-1.72.06-2.58.08-.24,0-.43-.07-.44-.39q-.06-1.3-.15-2.61c0-.53-.13-1.06-.14-1.59,0-.1.22-.27.35-.28.57-.05,1.14-.05,1.71-.05,1,0,2.09,0,3.13,0,.32,0,.47,0,.42.41A8,8,0,0,0,11,49.6Zm-.5-1.77c-1,0-2.07,0-3.1,0l-1.55.05c-.35,0-.48-.12-.48-.48,0-.77,0-1.53-.08-2.29s-.09-1.72-.15-2.58c0-.28.08-.36.35-.34,1,0,1.93.05,2.89.06a6.33,6.33,0,0,0,.76,0c.55,0,1,0,1.47,0,.23,0,.31.07.32.31,0,1.61,0,3.21.07,4.81C11,47.73,10.85,47.83,10.49,47.83Zm.43-6.45c0,.37-.09.48-.47.46-1.13,0-2.25,0-3.38,0-.51,0-1,0-1.52,0-.26,0-.43-.11-.42-.45,0-1.27,0-2.55,0-3.83,0-.45,0-.89.08-1.34,0-.25.14-.37.43-.37.9,0,1.8,0,2.7,0,.37,0,.74,0,1.11,0l1.24,0c.19,0,.25,0,.23.23,0,.71-.08,1.42-.08,2.13C10.85,39.16,10.87,40.27,10.92,41.38Zm-.45-6.07-3.73.06-1.16.05A.33.33,0,0,1,5.21,35c0-.46.06-.93.08-1.4V31.32a.85.85,0,0,1,.86-.85l4.16,0c.27,0,.38.07.39.37,0,1.21.09,2.43.14,3.63,0,.1.07.2.08.29C11,35.14,10.85,35.3,10.47,35.31Zm.47-7.38,0,0H6.88C6.6,28,6.32,28,6,28s-.42-.11-.42-.42c0-.76,0-1.52-.08-2.29,0-.34-.15-.67-.15-1a11.29,11.29,0,0,1,.1-1.74c0-.06.3-.14.47-.14.41,0,.81,0,1.22,0l1.07,0c.69,0,1.38,0,2.06.07a2,2,0,0,1,.48.08.27.27,0,0,1,.13.17c0,.85,0,1.69,0,2.54v1.84A4.65,4.65,0,0,0,10.94,27.93ZM22.39,53.08a.14.14,0,0,0,0,.07c-1.09,0-2-.06-3.11-.09-.41,0-.82,0-1.23,0s-.93,0-1.39,0l0,0c0-.63,0-1.72.06-2.35s.06-1.51.08-2.26c0-.25.1-.3.33-.3,1.41,0,2.82,0,4.23,0,.24,0,.48-.07.71,0s.25.16.25.25c0,.62.08,1.24.08,1.86C22.46,51,22.37,52.3,22.39,53.08Zm-6.05,0H15.8c-1.16,0-2.32,0-3.48,0-.09,0-.17,0-.25,0h-.9a2.67,2.67,0,0,0,.13-.4c0-.3,0-.61,0-.91,0-1.1,0-2.18,0-3.27,0-.3.1-.37.38-.37.44,0,.87,0,1.32,0h3.08c.31,0,.39.11.37.39,0,.48-.07,1-.08,1.46s0,1.24,0,1.86c0,.25-.05,1,0,1.21A.43.43,0,0,1,16.34,53.07Zm0-9.8c0,.42.08.77.08,1.11,0,.75-.06,1.51-.08,2.25,0,.23.06.45.08.68s-.1.4-.38.4c-.87,0-1.75,0-2.62,0-.61,0-1.22.08-1.83.1-.18,0-.3-.07-.27-.33a11.82,11.82,0,0,0,0-1.19c0-.1,0-.21,0-.31V43a2.61,2.61,0,0,0,0-.28c-.08-.51,0-.57.5-.56,1.38,0,2.76.08,4.14.09.36,0,.47.12.42.46C16.36,42.9,16.37,43.09,16.37,43.27Zm0-2.55a6.11,6.11,0,0,1-.09,1c0,.08-.17.14-.26.22l-3.67-.09a5,5,0,0,1-.76,0,.5.5,0,0,1-.35-.34c0-1.06,0-2.13,0-3.2,0-.7,0-1.39.08-2.09a.79.79,0,0,0,0-.31c-.14-.25,0-.26.18-.26h.17c.86,0,1.72-.08,2.58-.09s1.54,0,2.3.07c.06,0,.16.14.16.21-.07.82-.17,1.63-.23,2.45S16.41,39.9,16.37,40.72Zm.39,2c0-.35.07-.53.47-.46s.82.09,1.24.1c.85,0,1.69,0,2.53,0,.32,0,.63,0,.95-.06s.39.1.35.36c0,1,0,2,0,2.9,0,.56,0,1.11.07,1.66,0,.31,0,.6-.42.51-.08,0-.17.06-.25.06H17.17c-.19,0-.32,0-.33-.27,0-.68-.06-1.37-.07-2C16.76,44.51,16.78,43.6,16.76,42.69Zm5.53-2.06a8.76,8.76,0,0,1-.08,1,.33.33,0,0,1-.19.21,8.26,8.26,0,0,1-1,.06H17.07c-.28,0-.4-.06-.38-.37,0-.84,0-1.69.09-2.53,0-.57.1-1.14.15-1.7A11.79,11.79,0,0,0,17,36.05c0-.38.18-.5.45-.5,1.59,0,3.18.08,4.78.13.08,0,.21.2.21.3a6.32,6.32,0,0,1-.06.75C22.35,38,22.33,39.33,22.29,40.63ZM22.36,35a.59.59,0,0,1-.48.28c-1.12,0-2.26-.06-3.38-.08-.37,0-.75,0-1.12,0-.22,0-.29-.08-.29-.29q0-2,0-4c0-.27.13-.38.4-.38.6,0,1.18,0,1.78,0,1,0,1.92,0,2.84,0,.27,0,.37.08.36.36,0,1,0,2,0,3A4.56,4.56,0,0,1,22.36,35Zm-11-4.47c.22,0,.45,0,.67,0,1.47,0,2.86,0,4.24,0,.31,0,.39.1.4.4,0,.9.05,1.8.06,2.69A10,10,0,0,1,16.69,35a.34.34,0,0,1-.24.21c-.52,0-1,0-1.58,0-1.11,0-2.22,0-3.33,0-.26,0-.3-.09-.31-.33,0-.85,0-1.72-.07-2.57,0-.51,0-1-.08-1.54C11.07,30.58,11.16,30.5,11.4,30.51Zm4.43-14.34c-1.39,0-2.79,0-4.19-.06a1.46,1.46,0,0,1-.39-.12c0-1.72,0-3.36-.08-5,0-.22.08-.24.27-.23H14.8c.34,0,.66,0,1,0s.29.09.29.3c.05,1.58.1,3.15.16,4.73C16.25,16.08,16.16,16.18,15.83,16.17Zm.27-10c-.06.59,0,1.19,0,1.8,0,.27-.06.54-.07.83s0,.76,0,1.14-.17.42-.43.42c-1.38,0-2.75,0-4.13,0-.27,0-.35-.08-.36-.36,0-.87,0-1.74-.07-2.6,0-.49-.1-1-.15-1.48,0-.24.08-.32.31-.3s.66,0,1,0,.3,0,.41,0c1,0,2,0,3.05,0C16.09,5.61,16.14,5.77,16.1,6.22ZM10.94,16.86c0,.72-.08,1.43-.08,2.15,0,.91.05,1.84.07,2.76,0,.45-.07.47-.51.39a7.1,7.1,0,0,0-1,0c-.66,0-1.24,0-1.82,0-.38,0-.76,0-1.13,0A1.53,1.53,0,0,1,5.62,22c-.17-.1-.21-.43-.23-.67s.07-.58.06-.86c0-1.08,0-2.17-.06-3.24,0-.79,0-.85.78-.85,1.5,0,3,.08,4.52.11C11,16.49,10.94,16.68,10.94,16.86Zm-.48-.77C9.18,16,7.9,16,6.62,16l-1,0c-.25,0-.29-.13-.27-.33v-.15c0-1.42,0-2.85-.08-4.26,0-.26.13-.34.35-.48.53-.37,1.08-.16,1.61-.16,1.07,0,2.14.11,3.22.16.21,0,.3.07.3.29,0,1.57,0,3.13.08,4.7C10.87,16,10.76,16.11,10.46,16.09Zm-.09-5.76-2.74-.15L6,10.13c-.64,0-.71-.12-.66-.75.06-.8.11-1.6.16-2.4,0-.36,0-.72.09-1.07s.34-.36.63-.35l1.63.13c.75-.05,1.46-.07,2.18-.09.35,0,.46.13.48.49.06,1.19.14,2.37.22,3.56,0,.06.05.11.07.18C10.86,10.15,10.71,10.35,10.37,10.33Zm11.88-.2c0,.36-.12.48-.48.46l-5.06-.23c-.23,0-.31-.08-.31-.32,0-1.33,0-2.67,0-4,0-.28.12-.39.39-.37l1.46,0,3.48.19c.3,0,.53.09.52.52C22.23,7.64,22.23,8.89,22.25,10.13Z"/><path id="void" d="M49.44,67.57c-.08-1.83-.11-3.66-.16-5.49,0-1.26-.05-2.51-.07-3.76,0-1.87-.07-3.74-.08-5.6,0-2.35,0-4.71,0-7.06,0-1.45.07-2.9.07-4.35s0-3.09-.07-4.64c0-1.33-.07-2.66-.06-4,0-.78.12-1.56.14-2.35,0-.6,0-1.21-.07-1.81,0-1.58,0-3.16-.07-4.74,0-.18.07-.36.07-.55,0-.5,0-1,0-1.5,0-1,.16-2.09.14-3.14,0-1.29-.18-2.59-.2-3.89,0-1,.12-2.09.13-3.14,0-.87-.07-1.74-.12-2.61,0-.11,0-.23,0-.34,0-1.66,0-3.32,0-5,0-.86.1-1.72.15-2.59a.4.4,0,0,0-.11-.27,5.56,5.56,0,0,1-.56-.52A.67.67,0,0,0,47.92,0c-.33,0-.66.1-1,.12-.93,0-1.87.09-2.8.06-2.32-.06-4.64-.15-7,0-.6.05-1.21,0-1.81,0-1,0-1.94,0-2.91,0-.77,0-1.53.06-2.3.09L26.36.43l-1.19,0-3.52,0H19.3c-.91,0-1.82,0-2.73,0C14,.48,11.34.41,8.72.37c-1.19,0-2.38,0-3.57,0L1.24.21A.88.88,0,0,0,1,.21C.72.3.3.24.25.65.16,1.38.12,2.1.08,2.83c0,.24.08.48.07.72C.11,4.45,0,5.34,0,6.24c0,.55.05,1.09.07,1.64S.13,9.12.15,9.74C.2,11.17.28,12.6.3,14c0,1.2-.06,2.41-.07,3.61,0,1,0,1.95,0,2.93,0,1.17-.06,2.33-.08,3.5,0,.93,0,1.85,0,2.78,0,.59.07,1.19.07,1.78,0,1-.06,2-.07,3,0,.5.06,1,.07,1.48q0,3.27.07,6.52c0,.44,0,.88,0,1.32,0,.67,0,1.35,0,2C.24,44.32.14,45.68.13,47c0,1.69,0,3.38.06,5.06,0,.47,0,.94,0,1.41,0,1,.1,2,.15,3,0,.48.06,1,.08,1.44,0,.89.08,1.77.07,2.66,0,1.84-.06,3.69-.08,5.54,0,1.61,0,3.23,0,4.85A7.77,7.77,0,0,0,.5,72a2.57,2.57,0,0,0,.16.54c.06-.09.2,0,.27,0a.38.38,0,0,0,.18,0c.15,0,.3-.06.45-.06l2.47,0,1.63-.05c1.21,0,2.42-.1,3.62-.08,1.8,0,3.6.11,5.39.16,1.18,0,2.36.06,3.53.06.95,0,1.9,0,2.85,0s2,0,3,0c.53,0,1.06.09,1.59.1,1.91,0,3.83,0,5.75,0,1.31,0,2.63,0,4,0l8,.07c.64,0,1.28.1,1.92.1,1.39,0,2.77,0,4.15,0,.09,0,.24-.1.24-.16a11.66,11.66,0,0,0,.08-1.77C49.66,69.75,49.49,68.66,49.44,67.57ZM22.81,72.14H17.87l-1.52,0c-1.7,0-3.4-.14-5.11-.16-1.31,0-2.62,0-3.93.07l-3,0c-.34,0-.5-.12-.51-.5a59,59,0,0,0-.13-6.09,24.53,24.53,0,0,1-.08-2.71c0-1.5.06-3,.07-4.5,0-.44-.05-.88-.07-1.31,0-.87,0-1.74-.08-2.61,0-.69-.06-1.37-.08-2.06,0-1.19-.06-2.37-.07-3.56,0-.75.05-1.5.08-2.25,0-.32,0-.64,0-1,0-1.58.15-3.16.15-4.74s-.1-3.14-.14-4.71c0-.66,0-1.32,0-2q0-3,.08-6c0-1.75.05-3.5.09-5.26,0-1,.06-2.08.08-3.13,0-2.13.07-4.26.08-6.39,0-2.48,0-5,0-7.45,0-.61-.09-1.22-.15-1.83A.33.33,0,0,1,4,3.61a9.33,9.33,0,0,1,1.4-.11c.64,0,1.27.1,1.91.12s1.09,0,1.63,0l4.21,0h2.65l4.12,0,.8,0c1,0,2,.1,3,.18a.34.34,0,0,1,.25.24c.05.56.08,1.13.09,1.69,0,1,0,1.9,0,2.85v14q0,3.09,0,6.17c0,.24-.09.48-.07.71.06.91.16,1.83.22,2.74.05.64.06,1.29.08,1.93s.06,1.55.08,2.33c0,1.72.06,3.43.07,5.15,0,.34-.07.68-.07,1,0,.73.06,1.47.07,2.2s0,1.27,0,1.9.07,1,.07,1.54-.07.8-.07,1.2.06,1,.07,1.47c0,1.2.06,2.39.08,3.59,0,1.61.05,3.22.08,4.84,0,1.88.05,3.77.07,5.66,0,.54-.07,1.08-.07,1.63s.05,1.34.07,2c0,.92.05,1.84.07,2.76,0,.07,0,.6.05.67h0Zm17,.15c-.16,0-.32.07-.48.06-.58,0-1.16-.09-1.74-.1-.77,0-1.55,0-2.32,0-1.68,0-3.36,0-5,0l-5.08-.09h0c0-.62-.09-1.68-.11-2.29C25,68.91,25,68,25,67c0-2.61-.05-5.23-.08-7.84,0-1.89,0-3.78-.07-5.67,0-.9-.07-1.79-.08-2.68,0-2.68,0-5.36-.07-8,0-1.4-.05-2.8-.08-4.21,0-1.67,0-3.35-.07-5,0-.36-.06-.71-.08-1.07-.05-.87-.12-1.74-.15-2.61,0-.63,0-1.27,0-1.9v-5.1c0-.65.08-1.25.08-1.86s-.07-1.29-.07-1.93c0-.83.07-1.66.07-2.48,0-.57-.07-1.14-.07-1.71,0-.75.07-1.5.07-2.25,0-.91-.05-1.82-.06-2.73s0-2,0-3c0-.23.07-.45.07-.68,0-.68-.06-1.36-.06-2a.37.37,0,0,1,.26-.24c1.15,0,2.29,0,3.43,0,1,0,1.94,0,2.9-.07l3.83,0,2.44-.08c1.34,0,2.68-.09,4-.11.8,0,1.6,0,2.4,0a10.87,10.87,0,0,0,1.14,0c.58-.08.55-.1.54.43,0,1.62-.07,3.24-.08,4.85,0,.65.05,1.3.07,1.94,0,.92.06,1.84.07,2.76,0,3.76,0,7.52.07,11.28,0,1.66.05,3.32.08,5,0,1.93,0,3.87.07,5.8,0,1,.05,2.06.08,3.1s0,1.88.07,2.82c0,.29-.08.58-.07.87,0,.61.07,1.21.06,1.82,0,1.41-.08,2.82-.06,4.23,0,1.75.12,3.51.13,5.26,0,1.46.11,2.91.21,4.37.14,1.94.08,3.89.1,5.83,0,.66,0,1.31,0,2,0,.88.12,1.76.14,2.64s0,1.83,0,2.75c0,.22,0,.86.05,1.14ZM49,72.14c.09.38-.1.31-.32.31l-2.07,0c0-.57,0-1.6,0-2.15.06-1.28-.19-2.55-.22-3.82-.07-3-.06-6-.09-9a2.17,2.17,0,0,0,0-.25c-.07-.67-.14-1.33-.18-2,0-.45,0-.9,0-1.34,0-1-.12-2-.14-3,0-.53.05-1.07.07-1.6,0-.89.07-1.78.07-2.67,0-.66-.06-1.32-.07-2,0-1.08,0-2.16,0-3.24,0-.18.08-.35.07-.52,0-.55-.13-1.1-.15-1.66,0-1.31,0-2.63-.08-4,0-1.07,0-2.14-.07-3.21s-.06-2.15-.08-3.22c0-2.64-.06-5.28-.07-7.92s0-5.38,0-8.08c0-1-.12-2.09-.14-3.14,0-.62,0-1.23.07-1.85s.06-1,.08-1.53c0-.23,0-.46,0-.69a16.89,16.89,0,0,1,0-2c0-.54-.15-.91-.68-.92s-.76,0-1.14,0l-2.64.08-4,.11C36,3,35,3,33.89,3c-.84,0-1.68,0-2.52,0l-2.92.07c-.8,0-1.61,0-2.41,0-.37,0-.74-.09-1.11-.1L17.7,2.76h-.08c-.23,0-.46,0-.69,0-.67,0-1.35.09-2,.09-1.8,0-3.61,0-5.41-.09-1.28,0-2.57-.16-3.85-.17-.65,0-1.29.16-1.94.21a.6.6,0,0,0-.54.39c-.07.15-.16.29-.23.45a1.2,1.2,0,0,0-.15.51c0,.43.14.86.14,1.28q0,5.37-.08,10.73c0,1.71-.06,3.42-.09,5.13,0,1.51,0,3-.08,4.54v.76c0,1.23-.07,2.45-.08,3.67,0,1.68,0,3.35,0,5,0,.56,0,1.11.07,1.67s.06,1.21.08,1.82,0,1,0,1.42c0,.3,0,.61,0,.91,0,.58-.13,1.17-.15,1.76,0,.81,0,1.63,0,2.45s-.07,1.57-.07,2.35,0,1.87.07,2.81,0,1.76.08,2.65.07,2,.07,2.93c0,1.93-.06,3.86-.07,5.79,0,.79,0,1.59.07,2.38,0,1,.12,2.06.15,3.09s0,2,0,3.07c0,.38,0,.75,0,1.12s-.06.58-.42.6-.75,0-1.12,0a.62.62,0,0,0-.36.18s0,0,0,0c0-.4-.07-1.09-.08-1.38,0-.75-.07-1.49-.07-2.23,0-1.9.06-3.79.08-5.69,0-.51-.06-1-.08-1.55,0-.89,0-1.79-.07-2.69S.7,56.85.67,55.9c0-.69-.06-1.38-.08-2.06,0-1.58,0-3.16-.08-4.74a14.57,14.57,0,0,1-.06-1.47c.29-3.41.09-6.84.15-10.27,0-.27-.07-.55-.07-.83,0-2.49,0-5,0-7.47,0-1.15-.07-2.3-.07-3.45,0-.8.06-1.59.08-2.39,0-1.92.07-3.84.08-5.76s0-3.77-.08-5.65c0-.67-.05-1.35-.07-2S.4,8.18.4,7.38s0-1.53.07-2.3c0-1.25.06-2.5.08-3.75C.57.71.69.6,1.32.61L7,.7c1.12,0,2.25,0,3.37,0l1.28,0L17,.85c.7,0,1.4,0,2.1,0h2.18l3.56,0c.78,0,1.55,0,2.33,0l2.1-.09L31.72.6l3.51,0c1.41,0,2.81-.08,4.22-.1,1,0,2,0,3.06,0,1.28,0,2.56,0,3.84,0A13.57,13.57,0,0,0,47.77.39c.44,0,.59,0,.62.44s0,.8,0,1.2c0,.75.1,1.5.07,2.24,0,1.08-.2,2.15-.22,3.22,0,.9.09,1.81.14,2.72a.11.11,0,0,1,0,.08c0,.57,0,1.14-.05,1.71a19.5,19.5,0,0,0-.09,2c0,1,.25,2,.28,2.93s-.12,1.86-.14,2.79q0,1.77,0,3.54c0,1.9.1,3.8.14,5.69,0,.42-.07.84-.07,1.26,0,1,.06,2.09.07,3.13,0,1.91,0,3.82,0,5.73,0,.92,0,1.85-.07,2.78,0,.45,0,.91,0,1.37,0,.15-.06.31-.06.47,0,.33.06.67.06,1s-.07.69-.07,1c0,.79,0,1.57.07,2.36,0,1.23.06,2.46.08,3.68,0,1.77.05,3.53.07,5.29,0,2.68.05,5.35.08,8,0,.33.05.66.07,1,.08,1.27.15,2.55.23,3.82,0,.4.07.81.07,1.22A5.05,5.05,0,0,0,49,72.14ZM23.45,60.41c0-1.07,0-2.15-.07-3.23a1.6,1.6,0,0,0-.05-.21c0-.51-.07-1-.1-1.53,0,0,0-.09.06-.13s.09-.2.13-.3a1.17,1.17,0,0,0-.38-.14c-.43,0-.87,0-1.3,0s-.95-.09-1.43-.1l-8.66-.11L9,54.64c-1.16,0-2.33,0-3.49,0a.76.76,0,0,0-.85.93,3,3,0,0,1,.08.6c0,3.9.11,7.81-.16,11.71a10.59,10.59,0,0,0,.16,2c.09.69.36.88,1.08.9s1.54,0,2.31,0,1.35,0,2,0l4.24-.08H18.3c1.56,0,3.11,0,4.66,0H23l0,0,0,0,.22-.07-.14-.11a.37.37,0,0,0,0-.14c0-.21,0-1,0-1.19,0-1.35,0-2.7.09-4C23.29,63.56,23.41,62,23.45,60.41Zm-.54,2.14c0,.67-.06,1.34-.08,2,0,1-.07,2.07-.08,3.1,0,.73,0,2,.06,2.73a0,0,0,0,0,0,0l-1.28,0H18.26l-7.92,0h-.28c-.62,0-1.25,0-1.87,0-.44,0-.88,0-1.32,0s-.69,0-1,0c-.06,0-.16-.12-.17-.2A7.4,7.4,0,0,1,5.51,69c0-1,.07-1.91.07-2.86s-.07-1.94-.07-2.91.06-2,.08-3c0-1.41,0-2.81.08-4.22,0,0,0-.07,0-.08A1.63,1.63,0,0,1,6,55.68c.41,0,.79-.13,1.16-.13,1.56,0,3.12,0,4.68,0,1.24,0,2.49,0,3.73,0s2.77.1,4.15.16c.95,0,1.9.08,2.85.15a.52.52,0,0,1,.34.35c.06.61.06,1.23.09,1.85,0,.09.07.19.08.28a12.12,12.12,0,0,1,.06,1.34C23.08,60.65,23,61.6,22.91,62.55Zm21.76-3.13c0-.18,0-.35,0-.53,0-.63,0-1.26,0-1.89s0-1.07,0-1.6-.33-.58-.76-.58H36.06l-7.87-.09a2.75,2.75,0,0,0-1.75.31c-.21.14-.31.22-.3.46.06,1.2.13,2.39.15,3.59s0,2.48,0,3.77c0,1.11,0,2.18,0,3.26,0,.44.06.89.07,1.34,0,.8,0,1.61,0,2.41,0,.43.39,1,.78.94.78,0,1.56-.1,2.34-.11.35,0,.71.08,1.06.08s.85,0,1.27,0,1,.09,1.54.09c1,0,1.91,0,2.87,0,.22,0,.45.08.67.08.88,0,1.75-.09,2.62-.1.72,0,1.45,0,2.18,0l2.35,0c.48,0,.69-.22.68-.69s-.07-.92-.07-1.38C44.66,65.62,44.67,62.52,44.67,59.42ZM44,70.4a3.42,3.42,0,0,1-.79.07l-5.56,0c-3.37,0-6.73-.08-10.1-.1-.27,0-.37-.09-.36-.36,0-.63,0-1.26,0-1.88l-.15-7.55c0-1.13-.05-2.18-.08-3.23,0-.46-.05-.92-.08-1.38,0-.2.05-.3.28-.3,1.87,0,3.73,0,5.59,0,1.37,0,2.73.06,4.1.08,1.52,0,3,0,4.55,0,.71,0,1.41.07,2.12.12a2.91,2.91,0,0,1,.59.1.36.36,0,0,1,.19.26c0,1.44,0,2.89,0,4.34,0,.33,0,.66,0,1,0,1.08-.07,2.17-.07,3.25,0,1.49,0,3,.07,4.48a4.91,4.91,0,0,0,.08.67C44.47,70.24,44.25,70.34,44,70.4Zm.63-21.31c0-.64-.06-1.29-.06-1.94,0-.39.07-.78.07-1.18,0-.78-.07-1.57-.07-2.35,0-1.68,0-3.35,0-5,0-.36-.06-.71-.06-1.07s.07-.52.06-.79-.06-.78-.06-1.18c0-1.69,0-3.38-.08-5.07,0-.5-.22-.71-.72-.71s-1.05,0-1.58,0c-1.08,0-2.17,0-3.25,0-.93,0-1.86,0-2.78,0l-9.64-.16c-.1,0-.22,0-.31,0s-.29.14-.31.25a2.56,2.56,0,0,0-.09.78c0,1.17.06,2.34.07,3.51,0,1.67,0,3.35,0,5,0,.32.07.64.07.95s-.07.9-.07,1.34c0,.27.07.53.07.8s-.08.74-.07,1.11c0,.66.06,1.32.06,2s-.06,1.41-.07,2.12c0,1.24,0,2.47,0,3.7a13.71,13.71,0,0,0,.08,1.43.7.7,0,0,0,.27.46,2,2,0,0,0,1.41.45c.12,0,.26.05.42.06.71,0,1.4-.1,2.09-.09l9,.11,2.62.06a2.61,2.61,0,0,0,.28,0,5.37,5.37,0,0,1,2.22.1.47.47,0,0,0,.42-.18,2.48,2.48,0,0,0,.1-.86c0-.54-.14-1.08-.14-1.62S44.67,49.77,44.67,49.09Zm-.39-1.49c0,.1.18.61-.27.19,0,0-.1,0-.15,0l-4.59-.18c-.24,0-.62.09-.69,0a1.63,1.63,0,0,1-.09-.78c0-1.38,0-2.77,0-4.15,0-.23,0-.32.3-.32,1.3,0,2.59,0,3.89,0,.32,0,1.07,0,1.38,0l.18,0C44.25,44.06,44.27,45.83,44.28,47.6Zm-.06-7.81c0,.71,0,1.42,0,2.13a2.13,2.13,0,0,0-.44-.07c-.95,0-2.34,0-3.3.07-.56,0-1.13.08-1.69.1-.1,0-.21-.15-.3-.24s0-.05,0-.08c0-1.72,0-3.45-.08-5.17,0-.32.09-.39.39-.38,1.44.05,2.88.08,4.31.11a9.59,9.59,0,0,0,1.06,0C44.19,37.42,44.2,38.61,44.22,39.79Zm-5.49-9.13c1.43,0,2.87,0,4.31,0,.21,0,.42-.06.63-.06a.43.43,0,0,1,.47.48c0,.69,0,1.38,0,2.07l0,2.67-2.72,0c-.58,0-1.15,0-1.73,0-.32,0-.65,0-1,.05s-.32-.07-.32-.31c0-1.49,0-3-.08-4.48C38.33,30.76,38.4,30.65,38.73,30.66ZM26.63,44.45c0-.64.06-1.27.07-1.9,0-.25.15-.25.34-.25l3.34.08c.47,0,.95,0,1.42,0,.09,0,.17.18.26.28v0c0,1.56,0,3.12.08,4.67,0,.37-.11.52-.49.5s-1,0-1.45,0c-.23,0-.45.07-.68.06-.74,0-1.5,0-2.24-.15-.53-.08-.6-.25-.58-.8,0-.24,0-.48,0-.72C26.68,45.6,26.63,45,26.63,44.45Zm5.44-8.1c0,.32,0,.64,0,.95v4.36c0,.26-.13.37-.38.36l-1.57,0-2.88-.07a.48.48,0,0,1-.52-.59c0-.34.05-.68.08-1,0-1.4,0-2.72-.08-4,0-.31.07-.4.39-.39,1.53,0,3.06.09,4.59.11C32,36,32.09,36.06,32.07,36.35ZM26.56,32.2a11.2,11.2,0,0,1,.09-1.3c0-.09.17-.2.27-.21.6-.06,1.21-.11,1.82-.11s1,.08,1.5.1.77-.05,1.15,0a.51.51,0,0,1,.35.3c.08.88.12,1.76.17,2.64,0,.61.06,1.13.07,1.66,0,.29,0,.53-.44.34a1.06,1.06,0,0,0-.31,0L27,35.48c-.32,0-.39-.11-.39-.41C26.62,34.11,26.57,33.15,26.56,32.2Zm5.33,21-3.31-.07a12.93,12.93,0,0,0-1.39,0c-.35,0-.38-.23-.4-.4-.08-.68-.14-1.37-.16-2,0-.49.05-1,.07-1.46a6.05,6.05,0,0,0,0-.74c-.05-.36.12-.43.43-.39s.71.09,1.06.1c1,0,2,0,3,.07a5.17,5.17,0,0,0,.68,0c.22,0,.23.08.23.25,0,.79,0,1.57,0,2.35,0,.49-.06,1-.08,1.46a1.29,1.29,0,0,0,.09.59C32.33,53.3,32.1,53.25,31.89,53.24ZM32.14,31c0-.32.09-.4.4-.38.54,0,1.07,0,1.61.05.81,0,1.55,0,2.28,0,.4,0,.8,0,1.2,0,.11,0,.22.13.32.22s0,.1,0,.15c0,1.06,0,2.12.07,3.18,0,.41,0,.82.08,1.23s-.06.42-.38.39c-.73-.06-1.47-.12-2.2-.13-.92,0-1.84,0-2.76,0-.35,0-.49-.14-.47-.49s0-.7,0-1.06C32.25,33.11,32.21,32.08,32.14,31Zm.67,5q2.41.07,4.83.12c.35,0,.48.13.47.48,0,1.11,0,2.22,0,3.33,0,.51,0,1,0,1.54s0,.54-.55.53H33.9c-.39,0-.77,0-1.16.06s-.38-.09-.37-.38c0-1.66,0-3.32,0-5a.6.6,0,0,0,0-.23C32.15,36,32.48,36,32.81,36Zm-.05,6.36c.43,0,.86,0,1.3,0a4.48,4.48,0,0,0,.63-.06l2.51.06c.25,0,.5-.06.75-.05a.34.34,0,0,1,.22.23,7.51,7.51,0,0,1,0,.95c0,.93,0,1.85-.08,2.78,0,.29,0,.59,0,.88s0,.55-.41.48a4,4,0,0,0-.47.06c-.75,0-1.5,0-2.24,0s-1.51.11-2.26.18c-.24,0-.28-.12-.28-.32,0-.58,0-1.17,0-1.76,0-1,0-2.08-.08-3.12C32.35,42.42,32.49,42.35,32.76,42.36Zm.5,10.83c-.82,0-.82,0-.82-.81s0-1.93,0-2.9c0-.25,0-.5,0-.76,0-.49,0-.47.48-.48l4.26-.14s.11-.05.16-.06c.64-.16.84,0,.84.65s0,1.12,0,1.68.1,1.09.14,1.63c0,.19-.06.39-.06.59a.63.63,0,0,0,.08.32s0,.18.06.33l-5.06-.05Zm10.55.08a8.49,8.49,0,0,0-1.13,0c-1,0-1.94,0-2.87,0H38.57a3,3,0,0,0,.07-.39c0-.65,0-1.31-.07-2v-.12c0-.8,0-1.6-.08-2.4,0-.29,0-.4.38-.39,1.26,0,2.53.06,3.8.09.49,0,1,0,1.47.07a.26.26,0,0,1,.14.19c0,.85-.07,1.69-.07,2.54a11.23,11.23,0,0,0,.11,1.84C44.42,53.3,44.39,53.36,43.81,53.27ZM4.52,16.94c0,.56.07,1.12.07,1.68,0,1.9,0,3.81,0,5.71,0,.49.06,1,.07,1.47q0,1.11,0,2.22c0,.28.08.46.39.45.52,0,1-.11,1.56-.11,1.63,0,3.26-.05,4.89,0,2.33,0,4.67.07,7,.1h3.84a.86.86,0,0,0,.76-.9c-.06-.64-.12-1.29-.16-1.94,0-.88-.06-1.76-.08-2.64,0-1.57-.05-3.15-.07-4.72,0-.56,0-1.13,0-1.73s-.06-1-.08-1.46c0-.92-.06-1.84-.07-2.76s0-1.58,0-2.37c0-.29-.05-.58,0-.86a8.06,8.06,0,0,0,0-1.47,7,7,0,0,1,.13-2.29c0-.25-.08-.31-.21-.34a7.2,7.2,0,0,0-1-.11c-.47,0-.93,0-1.39,0-2.33,0-4.67-.08-7-.14-1,0-2.06-.12-3.1-.16-.54,0-1.08,0-1.63,0H5a.82.82,0,0,0-.35.09.23.23,0,0,0-.09.18c0,.65.06,1.31.06,2,0,1-.07,2-.07,3s0,1.92.06,2.88c0,.64,0,1.28,0,1.91C4.58,15.36,4.52,16.15,4.52,16.94Zm1.65-.57c1.51,0,3,.08,4.51.11.3,0,.26.21.25.38,0,.72-.07,1.43-.07,2.15,0,.92.05,1.84.07,2.76,0,.44-.07.47-.52.39a6.91,6.91,0,0,0-1,0c-.66,0-1.24,0-1.82,0-.38,0-.76,0-1.13,0A1.62,1.62,0,0,1,5.61,22c-.15-.1-.2-.43-.22-.67s.07-.58.07-.87c0-1.08-.06-2.15-.07-3.23C5.38,16.43,5.4,16.37,6.17,16.37ZM6.88,28C6.6,28,6.32,28,6,28s-.42-.11-.43-.41c0-.77,0-1.53-.08-2.3,0-.33-.14-.67-.14-1a14.49,14.49,0,0,1,.09-1.74c0-.07.31-.13.48-.14.41,0,.82,0,1.22,0l1.07,0,2.06.06a2,2,0,0,1,.48.1.23.23,0,0,1,.13.16c0,.85,0,1.69,0,2.54v1.85a4.54,4.54,0,0,0,0,.74s0,0,0,0H6.88Zm4.43,0s0,0,0-.05c0-.51,0-1.49,0-2s-.06-1-.08-1.48,0-1-.08-1.46c0-.28.16-.34.35-.4a.48.48,0,0,1,.12,0c1.51,0,3,0,4.52,0,.28,0,.34.08.32.35,0,.58-.07,1.15-.08,1.73s.06.88.07,1.32,0,1.37,0,1.77a.93.93,0,0,0,0,.24L12.93,28Zm11.16-6.08c0,.27-.07.37-.34.35-.49,0-1,0-1.46,0H17.46c-.2,0-.53.08-.59,0a1.42,1.42,0,0,1-.08-.66c0-1-.05-1.9-.08-2.84,0-.49-.07-1-.08-1.47s0-.67.55-.67c.94,0,1.87.11,2.81.13a13.64,13.64,0,0,0,1.92-.06c.48-.06.56-.05.56.41V20.7C22.47,21.15,22.45,21.52,22.47,21.88Zm.08,1.21c0,1.37.05,2.73.07,4.1a1.21,1.21,0,0,0,0,.19c.11.45,0,.65-.48.66-.63,0-1.26,0-1.9,0L16.86,28v0c0-1.11-.05-2.81-.08-3.92,0-.37,0-.75,0-1.12s.1-.4.38-.4l4.94.06C22.45,22.62,22.55,22.77,22.55,23.09Zm-.22-11.74c0,.47,0,.94,0,1.41.05,1,.1,1.88.16,2.77a.6.6,0,0,1-.69.71l-4.83,0c-.3,0-.41,0-.35-.43a13,13,0,0,0,0-2.16c-.05-.84-.15-1.69-.23-2.54,0-.19,0-.32.27-.31l4.38.13c.32,0,.65.06,1,.09S22.34,11.12,22.33,11.35ZM16.4,6c0-.27.12-.39.4-.38.49,0,1,0,1.46.05l3.48.19c.3,0,.53.1.52.52,0,1.24,0,2.49,0,3.73,0,.35-.12.48-.48.46-1.68-.08-3.37-.16-5.06-.22-.23,0-.32-.09-.31-.32C16.41,8.71,16.4,7.36,16.4,6Zm-.08,11.05c0,1.18,0,2.36.07,3.54,0,.42.05.85.08,1.27-.13.17-.26.33-.39.33-1.35,0-2.69,0-4,0a1.34,1.34,0,0,0-.2,0c-.59.06-.59.06-.59-.53v-4.6c0-.56,0-.55.58-.54s1.14,0,1.71,0c.83,0,1.67,0,2.5.08.09,0,.2.16.27.27S16.31,17,16.32,17.07Zm-.49-.9c-1.4,0-2.79,0-4.19-.06a1.46,1.46,0,0,1-.39-.12c0-1.72,0-3.36-.08-5,0-.22.08-.24.27-.23l3.36,0c.33,0,.66,0,1,0s.29.08.3.3c0,1.58.09,3.15.15,4.73C16.26,16.08,16.17,16.18,15.83,16.17ZM11.18,5.63c.33,0,.66,0,1,0s.3-.06.4-.06h3.06c.46,0,.51.15.47.61s0,1.2,0,1.8c0,.27-.06.55-.07.82s0,.77,0,1.14-.17.43-.43.43c-1.38,0-2.75,0-4.12,0-.28,0-.36-.08-.37-.36,0-.87,0-1.74-.07-2.6,0-.5-.1-1-.15-1.48C10.84,5.69,11,5.61,11.18,5.63Zm-.72,10.46C9.18,16,7.9,16,6.62,16l-1,0c-.24,0-.28-.13-.26-.32v-.16c0-1.42,0-2.84-.08-4.26,0-.26.13-.34.34-.49.54-.36,1.09-.15,1.62-.14,1.07,0,2.14.1,3.22.15.21,0,.29.07.3.3,0,1.56,0,3.12.07,4.69C10.87,16,10.76,16.11,10.46,16.09ZM5.31,9.39c.07-.81.11-1.61.16-2.41,0-.36,0-.72.09-1.07s.34-.36.62-.34l1.64.12c.75-.05,1.46-.07,2.18-.09.35,0,.46.13.48.48,0,1.19.15,2.38.23,3.57a.58.58,0,0,0,.06.17c.09.33-.06.53-.4.51l-2.74-.15c-.55,0-1.11,0-1.66,0S5.26,10,5.31,9.39Zm20.76,19a2.86,2.86,0,0,1,.28-.07c.82,0,1.63,0,2.45,0,3.27.07,6.54.16,9.81.25h.28c1,0,2-.07,3.07-.06.63,0,1.26.08,1.89.11.37,0,.54-.14.53-.51,0-1.18-.07-2.36-.07-3.53,0-1.37.06-2.74.07-4.11,0-.35-.06-.69-.07-1,0-.6,0-1.19,0-1.79s.07-1.13.07-1.7c0-.74-.06-1.49-.07-2.24,0-.46.07-.91.07-1.37s-.07-1.08-.07-1.61c0-1,.07-1.94.07-2.9,0-.51,0-1-.07-1.58,0-.29-.07-.54-.07-.79a.93.93,0,0,0-1-.88c-.56,0-1.11.08-1.66.1l-2.91.07-3.31.06c-.77,0-1.53.06-2.29.09-.92,0-1.84.07-2.77.07-1.44,0-2.88,0-4.33,0,0,0-.09,0-.12,0s-.24.15-.24.24c0,.77-.07,1.55-.09,2.33,0,.29,0,.58,0,.86,0,1-.12,2-.15,3,0,.51.07,1,.07,1.55,0,1.1-.07,2.2-.07,3.3,0,1.27,0,2.54.07,3.82,0,.84.05,1.68.07,2.52.05,1.52.11,3.05.16,4.57a5.32,5.32,0,0,1,0,.89C25.68,28.3,25.75,28.42,26.07,28.38Zm6.54-.29c-.32,0-.4-.11-.39-.41,0-.66,0-1.31,0-2,0-.85,0-1.71-.08-2.56,0-.22,0-.28.27-.27.89,0,1.78.07,2.66.08s1.68,0,2.52,0c.3,0,.37.11.37.39,0,1.41,0,2.82,0,4.23a3.43,3.43,0,0,0,0,.56l-1.1,0C35.44,28.1,34,28.08,32.61,28.09ZM44,28c0,.08-.14.18-.23.21a1,1,0,0,1-.35,0l-5.06-.07a3.27,3.27,0,0,0,0-.53c0-1.49-.07-3-.1-4.46,0-.05.12-.15.18-.15.55,0,1.11,0,1.66,0l3.82,0h0c0,.28,0,.55,0,.82,0,.75.12,1.5.14,2.25S44,27.32,44,28Zm0-10.84a3.21,3.21,0,0,0,0,.93v3.84c0,.23,0,.44,0,.65l-.06,0c-1,0-2.31.09-3.28.09-.73,0-1.47,0-2.2-.06-.05,0-.14-.12-.14-.18,0-1.78,0-3.56,0-5.34a.36.36,0,0,1,.26-.25c.83,0,1.65,0,2.47,0h2.67C44,16.78,44.12,16.78,44,17.15Zm0-1.06c0,.23-.08.31-.31.31-.88,0-1.76,0-2.63,0s-1.58.06-2.37.09c-.25,0-.43-.08-.42-.38v-.23c0-1.4-.05-2.8-.08-4.2a1.14,1.14,0,0,0-.06-.25c0-.22,0-.37.27-.36,1,0,2,0,3,0,.72,0,1.44-.05,2.16-.09.31,0,.45.12.45.44,0,.81,0,1.62,0,2.44S44,15.37,44,16.09ZM38.52,5.66c1.23,0,2.46,0,3.69,0,.52,0,1,0,1.56-.07.08.12.15.19.16.27,0,1,.06,2,.07,3,0,.51-.06,1-.07,1.51,0,.3-.19.35-.41.36-.68,0-1.36,0-2,0H38.65a.49.49,0,0,0-.21,0c-.2.07-.3,0-.31-.2,0-1.49-.05-3-.07-4.48C38.06,5.77,38.2,5.66,38.52,5.66ZM38,17.06s0,.05,0,.08c0,1.54-.06,3.08-.08,4.62a4,4,0,0,1,0,.6.36.36,0,0,1-.27.2l-5.18,0c-.28,0-.36-.09-.35-.37,0-.67,0-1.35,0-2,0-1,0-2-.07-3,0-.3.08-.39.37-.37.51,0,1,.05,1.53.05l1.87-.06c.68,0,1.33,0,2,0C38,16.77,38.07,16.83,38,17.06ZM32.3,5.79l2.52-.08,2.57-.08a.37.37,0,0,1,.35.44c0,1.11,0,2.22,0,3.33,0,.3,0,.61.08.91s-.12.42-.44.42c-1.33,0-2.67,0-4,0-.38,0-.75,0-1.12,0s-.43-.06-.35-.44a6.72,6.72,0,0,0,0-1.18c0-.41.07-.81.06-1.22,0-.58,0-1.16-.07-1.73C31.82,5.89,32,5.8,32.3,5.79Zm-.07,5.33c.41,0,.83,0,1.25,0,.84,0,1.68,0,2.52,0,.54,0,1.08-.08,1.62-.09.09,0,.26.11.26.18,0,.34,0,.69,0,1,0,1.29,0,2.51.08,3.73,0,.35-.12.46-.47.46-1.62,0-3.24-.05-4.87-.07h-.11c-.52.05-.51.05-.52-.48,0-.81-.05-1.62-.08-2.43s-.05-1.31-.07-2C31.84,11.25,31.91,11.09,32.23,11.12Zm-.39,13.82c0,.87,0,1.74,0,2.61,0,.35-.15.5-.51.5L29,28l-2.24-.05h-.27c-.09,0-.23,0-.24,0s-.05-.25,0-.28c.51-.37.27-.91.27-1.37,0-.75-.09-1.51-.14-2.26,0-.31,0-.63,0-.94s.06-.32.3-.31l4.84.13c.26,0,.37.13.37.39C31.83,23.82,31.84,24.38,31.84,24.94Zm-.15-4.49c0,.53,0,1.07.07,1.61,0,.29-.09.43-.4.42l-4.72-.13c-.28,0-.4-.13-.39-.4s0-.66,0-1c0-.59-.07-1.1-.07-1.61,0-.81.05-1.61.08-2.42,0-.08.1-.22.17-.23a7,7,0,0,1,.8-.06c.46,0,.93-.06,1.39,0,.95,0,1.9.1,2.84.15.27,0,.23.2.23.36C31.69,18.22,31.68,19.33,31.69,20.45ZM26.26,8.56c0-.41.07-.82.08-1.23s0-.69,0-1A.4.4,0,0,1,26.57,6,1.45,1.45,0,0,1,27,6l4.18,0c.11,0,.3.14.3.22,0,.45,0,.9,0,1.35V8.79c0,.61,0,1.13,0,1.66,0,.24-.05.35-.32.34-1.55-.06-3.09-.1-4.64-.14-.32,0-.39-.2-.39-.44C26.2,9.66,26.23,9.11,26.26,8.56Zm-.07,2.81c0-.38.36-.46.83-.4.67.08,1.35,0,2,.07l2.15.08c.06,0,.14,0,.19,0s.19.13.19.2c0,.75-.06,1.49,0,2.24s.11,1.51.14,2.26c0,.47-.07.53-.55.52l-3.7-.1a8.46,8.46,0,0,0-.87.05c-.24,0-.31-.09-.31-.32,0-.54,0-1.07,0-1.61s-.06-1.08-.08-1.58S26.16,11.84,26.19,11.37ZM4.72,52.7c0,.82,0,.82.85.82.62,0,1.21-.09,1.8-.09h3.69c.16,0,.32.08.48.08.54,0,1.07-.11,1.6-.11,1.78,0,3.56,0,5.34,0,1.23,0,2.45,0,3.67.08.21,0,.19,0,.4,0,0,0,0,0,.06,0v0a2.33,2.33,0,0,0,.11-.28l0,0h0a.19.19,0,0,0,0-.08c0-.25,0-1,0-1.29,0-1.13,0-2.26,0-3.38,0-.1,0-.24.06-.28.21-.17.19-.32,0-.51a.36.36,0,0,1-.08-.24c0-.93-.05-1.86-.08-2.79,0-.69-.06-1.37-.08-2.05a1,1,0,0,1,.07-.25,1.74,1.74,0,0,0,0-.32,2.36,2.36,0,0,1-.07-.44c0-.87,0-1.74.07-2.6s.06-1.5.08-2.25c0-1.1.07-2.21.08-3.31s0-2.26,0-3.38c0-.28-.11-.41-.39-.41-.52,0-1,.05-1.55,0l-3.47-.09c-.2,0-.4-.09-.6-.08-.48,0-1,.08-1.44.11s-1.16,0-1.74,0c-1.46,0-2.91-.08-4.37-.1-1.13,0-2.25,0-3.38,0-.25,0-.5.05-.76.05a.51.51,0,0,0-.5.4,1.13,1.13,0,0,1-.25.29,1.21,1.21,0,0,0-.14.2s.1.07.13.12.17.22.17.33a5.35,5.35,0,0,1-.07.56c0,1.54,0,3.08-.08,4.62,0,1,0,2.11-.08,3.17,0,.71-.07,1.43-.08,2.14s0,1.25,0,1.87c.06,1,.17,2.09.23,3.14.06,1.23.11,2.45.15,3.68C4.68,51,4.71,51.83,4.72,52.7Zm7.6.36c-.09,0-.17,0-.25,0h-.9a1.87,1.87,0,0,0,.13-.4c0-.3,0-.61,0-.91,0-1.09,0-2.18,0-3.27,0-.3.1-.37.38-.37.44,0,.88,0,1.31,0,1,0,2.07,0,3.1,0,.3,0,.38.11.36.39,0,.48-.07,1-.08,1.46s0,1.24,0,1.86c0,.25,0,1,0,1.21,0,0,0,0,0,0h-.54C14.64,53.05,13.48,53.05,12.32,53.06Zm-1-17.16c-.14-.25,0-.25.19-.26h.16c.86,0,1.72-.08,2.58-.08s1.54,0,2.3.06c.06,0,.16.14.16.21-.07.81-.17,1.63-.23,2.45s-.05,1.63-.09,2.44a5.76,5.76,0,0,1-.09.94c0,.09-.17.15-.26.23l-3.68-.09a3.82,3.82,0,0,1-.75,0,.49.49,0,0,1-.34-.34c0-1.07,0-2.13,0-3.2,0-.7,0-1.39.07-2.09A.64.64,0,0,0,11.3,35.9Zm0,10.42c0-.11,0-.21,0-.31V43a2.43,2.43,0,0,0,0-.27c-.08-.52,0-.58.49-.57,1.39,0,2.77.08,4.15.09.36,0,.47.12.43.45a3.37,3.37,0,0,0,0,.55c0,.42.08.77.08,1.11,0,.75-.06,1.5-.08,2.26,0,.22.06.45.08.67s-.1.4-.38.4c-.87,0-1.74,0-2.61,0-.62,0-1.22.09-1.84.11-.18,0-.3-.07-.27-.33A11.89,11.89,0,0,0,11.32,46.32Zm8,6.73c-.41,0-.82.05-1.23.05l-1.4,0,0,0c0-.63,0-1.72.06-2.35s.06-1.51.08-2.26c0-.25.1-.3.33-.3,1.41,0,2.82,0,4.23,0,.24,0,.48-.06.71,0a.39.39,0,0,1,.25.25c0,.62.07,1.24.08,1.86,0,.78-.07,2.1-.05,2.88a.19.19,0,0,0,0,.07C21.31,53.1,20.41,53.09,19.3,53.05Zm3-7.52c0,.55,0,1.1.07,1.65,0,.31.05.61-.42.51-.08,0-.16.06-.25.06H17.17c-.19,0-.33,0-.33-.27,0-.69-.06-1.37-.07-2,0-.91,0-1.82,0-2.72,0-.36.07-.53.47-.48a8.65,8.65,0,0,0,1.24.11c.84,0,1.69,0,2.53,0,.32,0,.63,0,.95-.06s.39.09.34.36C22.29,43.64,22.28,44.58,22.3,45.53ZM17.09,30.89c0-.28.13-.38.4-.37l1.78,0c1,0,1.92,0,2.84,0,.27,0,.36.09.36.36,0,1,0,2,0,3a4.65,4.65,0,0,1-.1,1.06c0,.13-.31.26-.48.26-1.13,0-2.26,0-3.39-.06a10.31,10.31,0,0,0-1.11.05c-.22,0-.29-.08-.29-.3Q17.11,32.92,17.09,30.89Zm-.16,6.42A9.7,9.7,0,0,0,17,36c0-.37.18-.49.45-.48q2.39,0,4.77.12c.08,0,.22.2.23.3,0,.25-.06.5-.07.75,0,1.3-.05,2.6-.09,3.9,0,.34,0,.68-.08,1a.3.3,0,0,1-.2.21,8.1,8.1,0,0,1-1,.06c-1.31,0-2.63,0-3.95,0-.28,0-.4-.07-.39-.38.05-.84.05-1.69.1-2.53C16.81,38.44,16.88,37.87,16.93,37.31ZM11.4,30.52c.22,0,.45,0,.67,0,1.47,0,2.86,0,4.24,0,.31,0,.4.1.4.41,0,.89.05,1.79.06,2.68,0,.45,0,.9-.08,1.34a.32.32,0,0,1-.23.21c-.53,0-1.06,0-1.59,0H11.54c-.27,0-.31-.08-.31-.32,0-.86,0-1.71-.07-2.57,0-.51-.05-1-.08-1.54C11.07,30.58,11.16,30.49,11.4,30.52ZM11,49.6a23.86,23.86,0,0,0-.05,3c.06.61-.23.47-.54.46-.57,0-1.14,0-1.7,0-.86,0-1.73.07-2.59.1-.24,0-.43-.08-.44-.4q-.06-1.3-.15-2.61c0-.53-.13-1.06-.14-1.59,0-.1.22-.27.35-.28.57,0,1.14-.05,1.71-.05,1,0,2.09,0,3.13,0,.32,0,.47,0,.43.41A8,8,0,0,0,11,49.6Zm-.5-1.77c-1,0-2.06,0-3.1,0-.51,0-1,0-1.55.05-.35,0-.48-.12-.49-.48,0-.76,0-1.53-.07-2.29s-.09-1.72-.16-2.58c0-.28.09-.35.36-.34l2.89.07c.26,0,.51,0,.76-.06l1.47,0c.23,0,.32.07.32.31,0,1.61,0,3.21.07,4.81C11,47.73,10.85,47.83,10.49,47.83ZM5.3,31.32a.83.83,0,0,1,.85-.85l4.16,0c.28,0,.38.07.39.37,0,1.21.09,2.42.14,3.64,0,.09.06.18.08.28.06.37-.07.52-.45.52l-3.73.07-1.16.05A.33.33,0,0,1,5.21,35c0-.46.06-.93.08-1.39C5.29,32.81,5.29,32.06,5.3,31.32Zm-.16,6.19c0-.45,0-.9.08-1.34,0-.24.13-.37.42-.37.9,0,1.8,0,2.7,0l1.11,0,1.24,0c.19,0,.25,0,.23.23,0,.71-.08,1.42-.08,2.13,0,1.11,0,2.21.08,3.32,0,.37-.09.48-.47.47-1.13,0-2.25,0-3.38,0l-1.52,0c-.27,0-.43-.12-.43-.45C5.14,40.07,5.12,38.79,5.14,37.51Z"/></g></g></svg>