<svg xmlns="http://www.w3.org/2000/svg" viewBox="0 0 59.36 31.67"><defs><style>.cls-1{fill:#56acb2;}.cls-2{fill:#ffe0ae;}</style></defs><g id="Layer_2" data-name="Layer 2"><g id="window-7-front"><path id="fill3" class="cls-1" d="M50.47,27.15l-1.58,0c-1.38,0-2.77-.08-4.15-.09-.52,0-1,.07-1.64.11s-6.23,0-12.87,0a1.18,1.18,0,0,0,.15-.46c-.14-1.86-.4-3.72-.45-5.58-.05-2.1.07-4.19.12-6.36.2-2.33.4-4.59.61-6.84,0-.15.16-.28.25-.42a2.08,2.08,0,0,1,.34.24c2.46,2.46,4.94,4.91,7.38,7.39,1.84,1.87,3.63,3.78,5.45,5.68.46.5.93,1,1.41,1.48C47.14,23.9,48.79,25.54,50.47,27.15ZM26.62,8.45a2.93,2.93,0,0,0-.73.43q-3.11,3-6.17,6-2.32,2.32-4.59,4.69C13.74,21.06,12.34,22.49,11,24c-.75.86-1.31,1.87-2,2.77a4.12,4.12,0,0,1-.33.4l17.77,0A3.1,3.1,0,0,1,26,26c0-.89.13-1.77.18-2.65.1-2,.19-4,.28-6,0-.54,0-1.08,0-1.62.1-2.15.2-4.29.28-6.45A3.09,3.09,0,0,0,26.62,8.45Z"/><path id="fill2" class="cls-2" d="M58.8,29.39c-1.63-1.65-3.3-3.26-4.95-4.89l-5.7-5.64c-1.88-1.86-3.75-3.73-5.64-5.59-1.47-1.44-3-2.87-4.44-4.33q-3-3-6.06-6c-.8-.81-1.57-1.64-2.36-2.46A1.08,1.08,0,0,0,28,.38C27.1,1.18,2.7,27.33,1.13,29h0l-.59.57c-.86.89-.69,1.58.5,1.94a5.92,5.92,0,0,0,1.49.16.48.48,0,0,1,.23-.1c2.63,0,5.26,0,7.89,0,1.8,0,3.6-.13,5.41-.17,1.57,0,3.13,0,4.7,0s2.91,0,4.36-.06c1.2,0,2.39-.05,3.58-.07,2.35,0,4.71-.14,7.07-.14,3.7,0,7.4.05,11.1.08s7.32.06,11,.09a.75.75,0,0,0,.15,0,1.46,1.46,0,0,0,1.34-.84C59.44,30.17,59.07,29.66,58.8,29.39ZM26.54,15.71c0,.54,0,1.08,0,1.62-.09,2-.18,4-.28,6,0,.88-.21,1.76-.18,2.65a3.1,3.1,0,0,0,.41,1.17l-17.77,0a4.12,4.12,0,0,0,.33-.4c.71-.9,1.27-1.91,2-2.77,1.31-1.51,2.71-2.94,4.1-4.39s3-3.14,4.59-4.69q3.06-3,6.17-6a2.93,2.93,0,0,1,.73-.43,3.09,3.09,0,0,1,.2.81C26.74,11.42,26.64,13.56,26.54,15.71ZM48.89,27.12c-1.38,0-2.77-.08-4.15-.09-.52,0-1,.07-1.64.11s-6.23,0-12.87,0a1.18,1.18,0,0,0,.15-.46c-.14-1.86-.4-3.72-.45-5.58-.05-2.1.07-4.19.12-6.36.2-2.33.4-4.59.61-6.84,0-.15.16-.28.25-.42a2.08,2.08,0,0,1,.34.24c2.46,2.46,4.94,4.91,7.38,7.39,1.84,1.87,3.63,3.78,5.45,5.68.46.5.93,1,1.41,1.48,1.65,1.63,3.3,3.27,5,4.88Z"/><path id="fill1" d="M58.8,29.39c-1.63-1.65-3.3-3.26-4.95-4.89l-5.7-5.64c-1.88-1.86-3.75-3.73-5.64-5.59-1.47-1.44-3-2.87-4.44-4.33q-3-3-6.06-6c-.8-.8-1.57-1.64-2.36-2.46A1.08,1.08,0,0,0,28,.38c-.84.8-25.25,27-26.82,28.63h0l-.59.57c-.86.88-.69,1.58.5,1.94a6.4,6.4,0,0,0,1.48.16c.11-.06.17-.11.24-.11,2.63,0,5.26,0,7.89,0,1.8,0,3.6-.13,5.4-.17,1.57,0,3.14,0,4.71,0l4.36-.06,3.58-.07c2.35,0,4.71-.14,7.07-.14,3.7,0,7.4.05,11.09.08l11,.09a.75.75,0,0,0,.15,0,1.46,1.46,0,0,0,1.34-.84C59.44,30.17,59.07,29.66,58.8,29.39ZM58,30a.4.4,0,0,1-.3.17l-2.83-.05c-3.71,0-7.43-.08-11.14-.09-1.82,0-3.63,0-5.45,0-2.23,0-4.46.11-6.69.15-2.8.05-5.59.09-8.39.12-2.24,0-4.48,0-6.73,0-1.62,0-3.24,0-4.86,0-1.87,0-3.74,0-5.62,0-.3,0-.6-.13-.9-.13-1.12,0-2.24,0-3.36,0-.48,0-.66-.2-.24-.62.2-.19.38-.39.58-.59H2C3.89,27.16,27.33,1.53,28.1.8c.17-.16.65-.29.77-.18.59.51,1.09,1.11,1.64,1.66q3.93,3.9,7.89,7.78c1.51,1.48,3,2.95,4.54,4.44,2.48,2.47,5,5,7.42,7.44l4.4,4.44c.09.09.17.18.26.26,1,1,2,1.94,2.92,2.92A.62.62,0,0,1,58,30Zm-5.53-4c-1.17-1.18-2.42-2.28-3.59-3.47-2-2-3.91-4.07-5.86-6.11s-3.93-4.12-5.91-6.17c-.57-.58-1.19-1.12-1.77-1.7L31.48,4.67c-.71-.72-1.37-1.49-2.11-2.16A1,1,0,0,0,27.74,3V3h0C27.27,3.42,8.62,23,8.2,23.44,7.55,24.16,7,25,6.31,25.65c-.91.94-1.89,1.81-2.82,2.73-.13.14-.27.41-.21.55a.69.69,0,0,0,.5.37,16.94,16.94,0,0,0,2.35.2c1.12,0,2.24-.18,3.36-.21,2,0,3.92,0,5.88,0,1,0,15-.25,17.64-.27a.87.87,0,0,0,.28.05c.93,0,1.86-.1,2.79-.07,1.18,0,2.35.18,3.52.2s2.15-.09,3.22-.06c1.8.06,3.59.17,5.38.27.49,0,1,.18,1.45.17,1.51,0,3-.13,4.53-.2.21,0,.42,0,.63,0,0-.29,0-.67-.13-.86A33.14,33.14,0,0,0,52.45,26Zm.87,2.75c-.2,0-.4,0-.6,0-1.55.06-3.1.18-4.65.18-2.36,0-4.72-.09-7.09-.14l-7.19-.16a1.88,1.88,0,0,0-.53,0l-.15.08c-2.48-.06-17.39.14-18.77.11-2.84,0-5.68,0-8.52,0a11.62,11.62,0,0,0-1.31.13,2.29,2.29,0,0,0-.36.07c0-.14,0-.31.1-.4.31-.38.65-.74,1-1.14,1.5-1.69,20.8-22.1,22.6-24.11a.54.54,0,0,0,.19-.08c.49-.42.93-.11,1.28.19.71.61,1.39,1.28,2,2,.86.91,1.64,1.89,2.52,2.76,1.64,1.62,3.35,3.17,5,4.79.91.89,1.72,1.88,2.61,2.86.47.55.88,1.08,1.35,1.56,1.77,1.81,3.54,3.62,5.33,5.41s3.66,3.62,5.48,5.44c.1.11.09.34.13.51Zm-1.65-1.21a2,2,0,0,0-.32-.68c-2-2-4-3.9-5.89-5.87-2.69-2.72-5.35-5.47-8-8.2-.9-.92-1.77-1.87-2.66-2.78q-2.51-2.55-5-5.09a2.45,2.45,0,0,0-.67-.54c-.37-.18-.68-.31-1,.28a8,8,0,0,1-1.44,1.81c-.72.76-1.5,1.47-2.24,2.2s-1.64,1.69-2.52,2.47a.16.16,0,0,1-.09,0c-.09.12-.17.24-.26.34a3.08,3.08,0,0,1-.47.42A.53.53,0,0,1,21,12l-.27.3c-1.19,1.27-2.4,2.51-3.61,3.76s-2.6,2.68-3.89,4Q10,23.48,6.76,26.88a1.66,1.66,0,0,0-.24.52c.24,0,.48.05.72.05l.07,0,.08,0c2.27.11,35.94.11,38.21.2,1.22,0,4.25.12,5.47.13a1.36,1.36,0,0,0,.47-.12l.19.05s0-.07,0-.11h0ZM28.55,12v0a1.21,1.21,0,0,0,0-.19.32.32,0,0,1,.05-.19c0-.24,0-.49,0-.74s.07-.58.1-.82a11.85,11.85,0,0,1,.35-3.15,1.89,1.89,0,0,1,.06-.18h0c0-.05,0-.09,0-.14.18-.48,1-.26.77.23a14.09,14.09,0,0,0-.44,4.49c0,1.69-.12,3.38-.14,5.07-.06,3.45,0,6.9-.05,10.35a.42.42,0,0,1-.13.29l.44.16H28.08c0-.14,0-.29,0-.43s0-.3,0-.45c0-1.85.09-3.71.11-5.56,0-.25-.12-.52-.11-.77.05-1.2.11-2.41.18-3.61s.15-2.12.22-3.18l0-.14a1.83,1.83,0,0,1,0-.47,3.69,3.69,0,0,1,.08-.46S28.54,12,28.55,12Zm-1.26,3.72c.14-2.67.23-5.35.34-8a1.36,1.36,0,0,1,.17-.54c.11-.21.27-.41.4-.61.07.22.15.44.2.67a2.15,2.15,0,0,1,.12.7c-.1,1-.27,2-.35,3-.17,2.23-.33,4.45-.44,6.68-.05.9.08,1.8.07,2.69,0,.62-.16,1.24-.18,1.86-.05,1.44-.07,2.89-.1,4.34,0,.1,0,.22,0,.29a4,4,0,0,0,.32.4h-1c0-.38-.09-.77-.09-1.15,0-1.12,0-2.24.07-3.36C27,20.33,27.17,18,27.29,15.72ZM8.68,27.17c.12-.13.23-.27.33-.4.71-.9,1.27-1.91,2-2.77,1.32-1.51,2.71-2.95,4.1-4.39s3-3.15,4.59-4.69q3.06-3,6.17-6.05a3.24,3.24,0,0,1,.73-.42,3.09,3.09,0,0,1,.2.81c-.07,2.15-.18,4.3-.28,6.45,0,.54,0,1.08,0,1.61-.09,2-.18,4-.29,6,0,.89-.21,1.78-.18,2.66a3.26,3.26,0,0,0,.4,1.17ZM44.74,27c-.52,0-1,.07-1.63.11s-6.24,0-12.88,0a.92.92,0,0,0,.15-.45c-.14-1.87-.4-3.73-.45-5.6-.05-2.09.07-4.18.12-6.35.2-2.33.4-4.59.61-6.84,0-.15.16-.28.24-.42a2.25,2.25,0,0,1,.36.24c2.46,2.46,4.93,4.91,7.37,7.39,1.83,1.87,3.63,3.79,5.44,5.68.48.5.94,1,1.42,1.48,1.65,1.63,3.3,3.28,5,4.88l-1.58,0C47.51,27.09,46.12,27,44.74,27Z"/></g></g></svg>