<svg xmlns="http://www.w3.org/2000/svg" viewBox="0 0 18.84 21.74"><defs><style>.cls-1{fill:#ffe0ae;}</style></defs><g id="Layer_2" data-name="Layer 2"><g id="eaves-holder-1-front"><path id="fill2" class="cls-1" d="M18.83,3.75a5.68,5.68,0,0,0-.19-1.55c-.16-.48,0-1.17-.71-1.38a.25.25,0,0,1,0-.13c.14-.27,0-.32-.24-.32h-.58c-1.87,0-3.72,0-5.58-.1C9.3.23,7.1.15,4.88.1c-1,0-2.09,0-3.13,0a1.33,1.33,0,0,1-.4,0C.77-.1.43.07.31.63a2.77,2.77,0,0,0-.1.9,15.93,15.93,0,0,0,.34,2.9,6.4,6.4,0,0,1,.11,2.1c0,.9-.17,1.8-.27,2.75a2.79,2.79,0,0,1,0,.41c-.12,1.5-.26,3-.36,4.49A16.12,16.12,0,0,0,0,16c0,.5.08,1,.09,1.5,0,.87,0,1.73,0,2.59a1.39,1.39,0,0,1,0,.4c-.22.77.15,1.25.93,1.23a2.78,2.78,0,0,0,2.5-2.5c0-.11.19-.26.32-.31a2.86,2.86,0,0,1,.51,0c.39-.05.72-.21.75-.66a11.1,11.1,0,0,1,1.17-4.11A10.8,10.8,0,0,1,9.17,10.5a16.4,16.4,0,0,1,2.2-1.59A11.63,11.63,0,0,1,15.22,7.6c.36-.08.48-.23.44-.55s.07-.52.48-.5a.94.94,0,0,0,.92-1.14c-.15-.47.13-.33.35-.33a5.57,5.57,0,0,0,.82,0c.1,0,.16-.17.24-.27a0,0,0,0,1,0,0A1.69,1.69,0,0,0,18.83,3.75ZM3.67,8.15c0-.63,0-1.26,0-1.89,0-.06.17-.16.26-.16l3,.08c.23,0,.47,0,.7,0h2.44a2.1,2.1,0,0,1,.33.06,1,1,0,0,1-.29.25A11.34,11.34,0,0,0,7,8.63a22.32,22.32,0,0,0-3.12,4.23l-.31.54a4.81,4.81,0,0,1-.08-.65C3.54,11.21,3.61,9.69,3.67,8.15Z"/><path id="fill1" d="M.39,9.27c.1-.94.23-1.84.27-2.74a6.39,6.39,0,0,0-.11-2.1,15.08,15.08,0,0,1-.33-2.9A2.53,2.53,0,0,1,.31.63C.43.07.77-.1,1.34.06a1.84,1.84,0,0,0,.41,0c1,0,2.09,0,3.14,0,2.2,0,4.41.13,6.62.18l5.58.1h.58c.23,0,.37,0,.24.32a.18.18,0,0,0,0,.13c.7.21.54.9.7,1.38a6.16,6.16,0,0,1,.2,1.55c0,.34-.27,1.14-.63,1.16s-.37-.75-.4-1.07c-.07-.76-.15-1.52-.29-2.27A.73.73,0,0,0,17,1.14c-.6-.08-1.22-.08-1.83-.11-.27,0-.54,0-.81,0l-4-.09L8,.84l-5-.18a14.1,14.1,0,0,0-1.72,0c-.15,0-.42.24-.42.37,0,.91,0,1.82.09,2.73,0,.09.24.24.38.24,1.48,0,3,0,4.44,0s3.1,0,4.65.1,2.94.12,4.42.18c.87,0,1.75.05,2.63.1a4,4,0,0,1,.81.19,1.1,1.1,0,0,1,.26.18c-.08.1-.15.25-.24.27a5.57,5.57,0,0,1-.82,0c-.22,0-.5-.14-.35.33a.94.94,0,0,1-.92,1.14c-.41,0-.53.12-.48.5s-.08.47-.44.55a11.87,11.87,0,0,0-3.85,1.31,15.79,15.79,0,0,0-2.2,1.59,10.8,10.8,0,0,0-2.92,3.65,11.51,11.51,0,0,0-1.18,4.1c0,.46-.34.62-.74.67a2.14,2.14,0,0,0-.51,0c-.13,0-.32.19-.32.3A2.78,2.78,0,0,1,1,21.74c-.78,0-1.15-.46-.93-1.23a1.39,1.39,0,0,0,0-.41c0-.86,0-1.72,0-2.57C.1,17,0,16.52,0,16s0-1.23,0-1.84c.1-1.5.24-3,.36-4.48,0-.13,0-.25,0-.43M.58,19.44v1.21c0,.45.23.61.67.46a1.86,1.86,0,0,0,1.22-1.3c.1-.37,0-.85.42-1.1,0,0,0-.14,0-.21C3,17.33,3,16.17,3,15l.09-4c0-1,.05-2.09.1-3.14a4.45,4.45,0,0,1,.2-1.37c.18-.44-.2-.39-.31-.39-.52,0-1,.07-1.56.06-.33,0-.39.13-.41.44,0,.85-.1,1.7-.18,2.55C.84,10.54.64,11.92.6,13.31c-.06,2,0,4,0,6.13m8.1-9.6c.67-.46,1.32-1,2-1.35a8.68,8.68,0,0,1,3.64-1.28A2.92,2.92,0,0,0,15.1,7c.11,0,.19-.21.28-.32a1,1,0,0,0-.31-.14l-1.46-.1a5.66,5.66,0,0,1-1.17-.1A1.77,1.77,0,0,0,11,6.51L9.47,7.4A9.78,9.78,0,0,0,6.75,9.63c-.85,1.11-1.64,2.27-2.41,3.45a4.07,4.07,0,0,0-.73,1.6,29.12,29.12,0,0,0-.11,3.37.35.35,0,0,0,.23.29.37.37,0,0,0,.3-.21c.07-.28,0-.58.12-.85.26-.85.54-1.71.84-2.55a9.33,9.33,0,0,1,2.1-3.39c.49-.5,1-1,1.59-1.5m-1-3.66c-.23,0-.46,0-.7,0L4,6.1c-.09,0-.26.1-.27.16,0,.63,0,1.26,0,1.89,0,1.53-.13,3.07-.18,4.6a3.61,3.61,0,0,0,.08.65l.31-.54A22.32,22.32,0,0,1,7,8.63,11.68,11.68,0,0,1,10.14,6.5c.11,0,.18-.16.28-.24a1.3,1.3,0,0,0-.33-.07H7.65m3.28-.56c.3,0,.6.08.9.09l4.31.1c.29,0,.38-.1.37-.38s0-.53-.38-.56c-.53,0-1.06-.07-1.59-.09-1.4-.07-2.79-.14-4.19-.18-1.56,0-3.12-.08-4.68-.1H1.55c-.32,0-.53,0-.51.43s.06.61.52.61Z"/></g></g></svg>