<svg xmlns="http://www.w3.org/2000/svg" viewBox="0 0 20.53 21.79"><defs><style>.cls-1{fill:#ffe0ae;}</style></defs><g id="Layer_2" data-name="Layer 2"><g id="eaves-holder-3-front"><path id="fill2" class="cls-1" d="M20.5.1a.45.45,0,0,0-.3,0,9.65,9.65,0,0,1-1.05.12c-.25,0-.52-.16-.79-.16s-.64.08-.95.07C16.19.07,15,0,13.76,0S11.5,0,10.37,0c-3,0-6,0-9,0A1.92,1.92,0,0,0,.58.2.47.47,0,0,0,.4.54c0,.26,0,.52,0,.79v0c0,.72,0,3.87,0,4.52Q.38,9,.27,12.08C.22,13.52.14,15,.09,16.42S0,19.18,0,20.57a1.11,1.11,0,0,0,.44.83,1.69,1.69,0,0,0,1.1.33c.87.15,1.08,0,1.32-.62A2.41,2.41,0,0,0,3,20.4c0-.61,0-1.22,0-1.82,0-.31,0-.46.46-.4A2.38,2.38,0,0,0,4.6,18a3.08,3.08,0,0,0,1.76-2.6c.13-.65.08-.62.76-.67a1.94,1.94,0,0,0,1.07-.34A6.43,6.43,0,0,0,9.38,13a3.5,3.5,0,0,0,.71-3,.27.27,0,0,1,.12-.2,1.13,1.13,0,0,1,.41,0,2.06,2.06,0,0,0,1.82-.38c.34-.25.73-.45,1.06-.72a2.52,2.52,0,0,0,1-1.87c0-.44.09-.65.57-.59a1.09,1.09,0,0,0,.51-.18c.44-.25.87-.53,1.31-.77a1.56,1.56,0,0,0,1-1.74c0-.05.2-.22.26-.2.65.27,1.11-.16,1.63-.4.31-.15.34-.4.38-.71.08-.64.2-1.27.31-1.91C20.54.27,20.54.13,20.5.1Zm-17,15s-.1.08-.16.13-.1-.13-.11-.19V13.79c0-.22,0-.34,0-.46.08.06.21.1.25.18A1.58,1.58,0,0,1,3.45,15.07Zm.37-9.42c0,.07-.09.12-.14.18a1.59,1.59,0,0,1-.13-.22.54.54,0,0,1,0-.18c0-.68,0-1.37,0-2,0-.33.18-.42.41-.45a11.69,11.69,0,0,1,1.19-.1l2.15-.09c.08,0,.17,0,.26.07A1.22,1.22,0,0,1,7.3,3,13.29,13.29,0,0,0,5.19,4,3.07,3.07,0,0,0,3.82,5.65Zm6.91,2.27c-.07,0-.16-.11-.16-.17a.28.28,0,0,1,.15-.19c.72-.26.72-.26.61-1a1.62,1.62,0,0,0-2.68,0,1.35,1.35,0,0,0-.3,1.4c0,.08-.14.32-.25.34a3.29,3.29,0,0,0-1.75.64c-.69.61-1.06,1.82-.3,2.39a.78.78,0,0,0,1.08-.1c.2-.28.34-.63.76-.34s.24.61,0,1a1.56,1.56,0,0,1-2.55-.1A2.79,2.79,0,0,1,5,9.64a6.79,6.79,0,0,1,.57-2.13A4.88,4.88,0,0,1,8.29,5.09a4.2,4.2,0,0,1,2.1-.53c1.23.16,2.1.83,2,2.18A1.52,1.52,0,0,1,10.73,7.92Zm2.9-4.16-1-.67A.74.74,0,0,1,12.56,3c.06,0,.11-.13.17-.13.82,0,1.64,0,2.45,0a.14.14,0,0,1,.11.06l.18.89C15.06,4.3,14.18,4.13,13.63,3.76Z"/><path id="fill1" d="M14.92.55C13.63.49,12.38.38,11.13.38,7.85.38,4.57.43,1.3.45,1,.46.89.53.9.84s0,.86,0,1.28c0,.13.26.31.41.33.39,0,.79,0,1.18,0A11.92,11.92,0,0,1,4,2.67a9.89,9.89,0,0,1-1.41.24c-.57,0-1.15,0-1.72,0-.1,0-.26-.12-.27-.2C.52,2.3.49,1.88.45,1.47S.4.85.4.54A.47.47,0,0,1,.58.2,1.93,1.93,0,0,1,1.32,0h9c1.13,0,2.26,0,3.39,0s2.43.06,3.64.08c.32,0,.65-.09,1-.08s.52.16.79.16a9,9,0,0,0,1-.11.53.53,0,0,1,.31,0,.39.39,0,0,1,0,.27c-.1.64-.24,1.27-.31,1.91,0,.31-.07.56-.38.71-.52.24-1,.67-1.64.4-.05,0-.26.15-.25.2a1.56,1.56,0,0,1-1,1.74c-.45.24-.88.52-1.32.76a1,1,0,0,1-.51.19c-.48,0-.56.15-.57.59a2.52,2.52,0,0,1-1,1.87c-.33.28-.72.47-1.06.73a2.12,2.12,0,0,1-1.82.38,1,1,0,0,0-.41,0c-.05,0-.14.15-.12.2a3.49,3.49,0,0,1-.7,3,6.77,6.77,0,0,1-1.2,1.36,2,2,0,0,1-1.07.34c-.68,0-.63,0-.76.67A3.07,3.07,0,0,1,4.6,18a2.4,2.4,0,0,1-1.14.18c-.41-.06-.46.09-.46.4,0,.6,0,1.21,0,1.82a2.42,2.42,0,0,1-.14.71c-.23.64-.45.77-1.32.63-.36-.06-.76,0-1.09-.34A1.1,1.1,0,0,1,0,20.56c0-1.38.05-2.76.09-4.14s.13-2.89.18-4.34Q.38,9,.45,5.88c0-.66,0-3.9,0-4.55,0-.12.17-.24.26-.36.06.12.17.24.17.35,0,1.9.05,6.37,0,8.27,0,1.55-.11,3.1-.17,4.65S.61,17.13.54,18.58c0,.59-.06,1.19-.08,1.78,0,.33,0,.53.48.41a5.94,5.94,0,0,1,1,0c.1,0,.28-.15.28-.23,0-1.36,0-2.71,0-4.07,0-.67.12-1.34.16-2,0-.23-.08-.46-.08-.69,0-.46,0-.92.09-1.37,0-.3.08-.59.08-.88,0-.83,0-1.67,0-2.5,0-.67.13-1.34.17-2,0-.21-.08-.43-.08-.64,0-.49.08-1,.08-1.46A3.55,3.55,0,0,0,2.63,4c-.15-.73.6-1.44,1.39-1.49s1.83-.17,2.75-.17,1.92.13,2.88.16c.44,0,.88-.06,1.33-.07.17,0,.34.08.51.08.32,0,.64-.09,1-.08l5.33.08a8.63,8.63,0,0,1,1,.1c.36,0,.48-.17.49-.46a11.61,11.61,0,0,0,0-1.18c0-.3-.13-.48-.48-.47-1.28,0-2.56.07-3.88.1M3,8.33A7.71,7.71,0,0,1,3,9.69,4.67,4.67,0,0,0,3.1,12a7.19,7.19,0,0,0,.82,1.48,1.7,1.7,0,0,1-.29,1.93,4.39,4.39,0,0,0-.71.84.49.49,0,0,0,0,.41A.9.9,0,0,0,4,17.28a2,2,0,0,0,1.57-1.86,1.91,1.91,0,0,0-.36-1.31.33.33,0,0,1,0-.29c0-.05.18-.06.27,0s.45.17.68.21a2.35,2.35,0,0,0,1.76-.14A4.2,4.2,0,0,0,9.44,12a4.24,4.24,0,0,0,.28-1.56,9.19,9.19,0,0,0-.16-1c0-.58.07-.59.64-.51a6.12,6.12,0,0,0,1.91,0,3.18,3.18,0,0,0,1.11-.7A2,2,0,0,0,14,6c-.19-.43-.11-.54.36-.56s1.12.13,1.62-.25a2.23,2.23,0,0,1,1.18-.58c.08,0,.18-.15.24-.24a.85.85,0,0,0-.76-1.29c-.66-.05-.66-.05-.7.6a.81.81,0,0,1-.58.75A2,2,0,0,1,13.25,4a3.35,3.35,0,0,0-2.78-1.1A3,3,0,0,1,10,2.83a3,3,0,0,0-1,0A11.62,11.62,0,0,0,5.47,4.38a5.39,5.39,0,0,0-2,2.82c-.1.36-.3.69-.45,1.13m2.14-5.5c-.4,0-.8,0-1.19.09-.23,0-.42.13-.41.45,0,.69,0,1.38,0,2.06a.54.54,0,0,0,0,.18,1,1,0,0,0,.14.22c0-.06.11-.11.13-.18A3.13,3.13,0,0,1,5.19,4,16.49,16.49,0,0,1,7.3,3a1.1,1.1,0,0,0,.25-.19,1.34,1.34,0,0,0-.27-.07l-2.14.09m10.33.95c-.06-.3-.12-.6-.19-.89,0,0-.06-.06-.1-.06-.81,0-1.63,0-2.45,0-.06,0-.12.08-.17.13l.12.13c.32.22.63.46,1,.67.55.37,1.43.54,1.84,0m-12.29,10c0,.41,0,.81,0,1.22,0,.06.06.13.1.19a.53.53,0,0,0,.16-.13,1.6,1.6,0,0,0,0-1.56c0-.08-.16-.12-.25-.18,0,.12,0,.24,0,.46M8.73,7.56c0,.29.08.53.09.78s-.21.55-.59.49A1.81,1.81,0,0,0,6.17,10a.71.71,0,0,0,.08.86c.23.26.43.22.63,0a.92.92,0,0,1,1.22-.35,1,1,0,0,1,.38,1.21A1.81,1.81,0,0,1,6.65,13a2.5,2.5,0,0,1-1.85-.5,2.48,2.48,0,0,1-.86-1.59,6,6,0,0,1,.54-3.26,6.55,6.55,0,0,1,3.91-3.2A5.12,5.12,0,0,1,10.33,4,2.69,2.69,0,0,1,12.9,6.36a1.82,1.82,0,0,1-1,1.79,1.28,1.28,0,0,1-1.5,0,1,1,0,0,1-.36-.7c0-.26.27-.42.59-.39A1,1,0,0,0,11,7c-.05-.09-.1-.19-.16-.28a.92.92,0,0,0-1.08-.38,1.49,1.49,0,0,0-1,1.24m2.6-1c.11.74.11.74-.61,1-.07,0-.16.13-.15.19s.1.14.17.17a1.51,1.51,0,0,0,1.63-1.19c.12-1.35-.75-2-2-2.17a4.23,4.23,0,0,0-2.1.53A4.91,4.91,0,0,0,5.55,7.51,6.79,6.79,0,0,0,5,9.64a2.8,2.8,0,0,0,.39,2.14,1.56,1.56,0,0,0,2.55.1c.21-.41.25-.83,0-1s-.56.06-.76.34a.78.78,0,0,1-1.08.09c-.76-.55-.39-1.77.3-2.38A3.29,3.29,0,0,1,8.1,8.27c.11,0,.28-.27.25-.34a1.35,1.35,0,0,1,.3-1.4A1.61,1.61,0,0,1,11.33,6.56Z"/></g></g></svg>