<svg xmlns="http://www.w3.org/2000/svg" viewBox="0 0 135.82 70.93"><defs><style>.cls-1{fill:#fff;}.cls-2{fill:#e6e6e6;}</style></defs><title>cartoon-cloud-large</title><g id="Layer_2" data-name="Layer 2"><g id="cartoon-cloud-large"><path id="void" class="cls-1" d="M135.65,38.53a9.81,9.81,0,0,0-1.23-2.79,9,9,0,0,0-1-1.4c-.41-.46-.92-.84-1.36-1.28a6.3,6.3,0,0,0-1.7-1c-.42-.23-.92-.33-1.36-.56a2,2,0,0,0-.49-.16c-.6-.14-1.21-.23-1.82-.32a5.57,5.57,0,0,0-2.23.12c-.41.09-.82.21-1.23.3-.18,0-.3,0-.34-.25s-.11-.52-.17-.77c-.11-.41-.19-.83-.33-1.22a16.6,16.6,0,0,0-.89-2.18,4.53,4.53,0,0,0-1.14-1.48,12.48,12.48,0,0,1-1.09-1.18,12.06,12.06,0,0,0-.89-1,14.74,14.74,0,0,0-1.41-1,8.53,8.53,0,0,0-2.14-1.11,9,9,0,0,0-2.76-.6,2.77,2.77,0,0,1-1.21-.09.79.79,0,0,0-.34,0l-.46.08c-.3.06-.6.09-.89.17a7.83,7.83,0,0,0-1.65.73c-.26.16-.36.12-.43-.15a8.93,8.93,0,0,0-.93-1.82,8.8,8.8,0,0,0-.6-.9,16.48,16.48,0,0,0-1.84-2.24,1.34,1.34,0,0,1-.31-.32,4.91,4.91,0,0,0-1.14-1.22c-.61-.54-1.26-1-1.92-1.52A10.13,10.13,0,0,0,99,12.45c-.68-.37-1.41-.64-2.07-1a8.94,8.94,0,0,0-2.07-.93A10.79,10.79,0,0,0,92,10a2.91,2.91,0,0,1-.3,0,8.31,8.31,0,0,0-2-.21,10.36,10.36,0,0,1-1.11-.08c-.66,0-1.32.06-2,.1l-1,.07c-.84.08-1.63.39-2.48.45a7.84,7.84,0,0,0-1.78.52c-.35.12-.66.34-1,.45a13.52,13.52,0,0,0-3.33,1.51c-.14.09-.3.29-.42.27s-.31-.21-.46-.32-.19-.12-.28-.18a8.22,8.22,0,0,0-1.05-.73A8.21,8.21,0,0,0,72.1,11a7.53,7.53,0,0,0-.95,0,4.19,4.19,0,0,0-.87,0c-.68.13-1.38.13-2.07.22a3.15,3.15,0,0,0-1.55.6c-.21.16-.43.32-.63.5s-.24.23-.26-.08c0-.48-.13-.95-.2-1.42A6.68,6.68,0,0,0,65,8.78c-.42-.82-.9-1.6-1.37-2.39a9.09,9.09,0,0,0-1.3-1.65A6.65,6.65,0,0,0,61,3.7a21.61,21.61,0,0,0-5.35-2.55C55,1,54.37.67,53.73.45A5.66,5.66,0,0,0,51.81.12a2,2,0,0,1-.76-.07,1.54,1.54,0,0,0-.74,0c-.5.08-1,.25-1.48.28-.8,0-1.58.14-2.37.2a10.14,10.14,0,0,0-2.66.59,10.86,10.86,0,0,1-1.34.51,11.17,11.17,0,0,0-4,1.87,33.92,33.92,0,0,0-3.78,3.19l-.74.75A7.74,7.74,0,0,0,32.6,9.24a22.76,22.76,0,0,0-1.73,4,4.59,4.59,0,0,0-.34,1.27,6.07,6.07,0,0,1-.16.83,5.23,5.23,0,0,0-.11,1.41c.12.71.16,1.42.27,2.13A9.13,9.13,0,0,0,31,20.86a12,12,0,0,0,1.19,2.51c0,.06,0,.16,0,.24l-.19-.06a8.65,8.65,0,0,1-1-.41,4.69,4.69,0,0,0-1.79-.49,6.62,6.62,0,0,1-1.11-.12,1.59,1.59,0,0,0-.91-.06,8.94,8.94,0,0,1-1.36.08l-1.46.1h-.05c-.81.3-1.68.32-2.51.58-1.09.34-2.19.67-3.27,1.06a3.26,3.26,0,0,0-.62.31l-1.4.85a9,9,0,0,0-2.72,2.25,10.43,10.43,0,0,0-1.41,2.12c-.15.38-.28.41-.67.28s-.64-.26-1-.34a2.53,2.53,0,0,0-.86-.1c-.56.07-1.12.2-1.68.29s-1,.1-1.41.21a7.69,7.69,0,0,0-2.49,1,7.11,7.11,0,0,0-1.41,1c-.26.28-.54.54-.8.82a7.08,7.08,0,0,0-.5.59A6,6,0,0,0,.43,35.42,9.48,9.48,0,0,0,0,37.25a12.57,12.57,0,0,0,.2,2.87,1.28,1.28,0,0,0,.22.6,12.34,12.34,0,0,0,1.37,2.14c.28.28.48.66.78.92a18.26,18.26,0,0,0,1.53,1.13,10.76,10.76,0,0,0,2,1.16,5.8,5.8,0,0,1,.88.4,9,9,0,0,0,2.18.9.42.42,0,0,1,.2.23,3.88,3.88,0,0,1,.11.61,5.81,5.81,0,0,0,.79,2.42,12.26,12.26,0,0,0,1,1.42c.57.69,1.43,1.1,1.85,1.93,0,0,.07.06.11.09.29.23.59.45.86.69.63.58,1.23,1.21,1.88,1.76a7,7,0,0,0,1.13.77,8.05,8.05,0,0,0,1.44.63,9.26,9.26,0,0,0,3,.65.38.38,0,0,1,.15,0,10.32,10.32,0,0,0,1.92.18,3.56,3.56,0,0,0,.91-.09c.11,0,.17.08.32,0a3.7,3.7,0,0,1,1-.12c.44,0,.88,0,1.31-.08A10.61,10.61,0,0,0,29.4,58c.83-.26,1.68-.44,2.48-.78a.45.45,0,0,1,.65.32,8.13,8.13,0,0,0,.92,1.87c.08.13.16.27.25.4a11.23,11.23,0,0,0,1.09,1.5,6.35,6.35,0,0,1,.81.91,7.93,7.93,0,0,0,1.68,1.74c1,.77,2,1.46,3,2.17a6.17,6.17,0,0,0,1.28.76,11.61,11.61,0,0,1,1.15.48,1.9,1.9,0,0,0,.4.14c.68.17,1.34.39,2,.51a9.21,9.21,0,0,0,2,.29c.8,0,1.6-.06,2.41-.1.43,0,.87-.06,1.31-.1,0,0,.08,0,.12-.06l1.61-.34a13.26,13.26,0,0,0,1.53-.41,8.36,8.36,0,0,0,1.07-.56.44.44,0,0,1,.65.1,4.72,4.72,0,0,1,.5.59,6.44,6.44,0,0,0,3.2,2.28,9.88,9.88,0,0,0,1.34.4,16.92,16.92,0,0,0,2.5.62,15.06,15.06,0,0,0,2.44.21c1-.1,2,0,3-.11a11.29,11.29,0,0,0,2.1-.4c.52-.14,1.06-.26,1.57-.42A4.13,4.13,0,0,0,74,69.45a1.68,1.68,0,0,1,.43-.17,3.76,3.76,0,0,0,.55-.23c.37-.21.72-.44,1.08-.66.58-.36,1.18-.7,1.76-1.07s1.26-.83,1.87-1.27a13.44,13.44,0,0,0,1.08-.89c.36-.32.35-.33.74,0,.06,0,.11.13.18.18a5.34,5.34,0,0,0,.86.57,19.69,19.69,0,0,0,1.84.75,14.86,14.86,0,0,0,2.87.56c.35,0,.72,0,1.06.11a6.91,6.91,0,0,0,1.87.19,1,1,0,0,1,.35,0,4.29,4.29,0,0,0,1.92,0,2.88,2.88,0,0,1,.4-.09,4.75,4.75,0,0,0,1.59-.28.48.48,0,0,1,.24,0,1.44,1.44,0,0,0,.91-.22,1.88,1.88,0,0,1,.38-.18c.66-.17,1.33-.3,2-.51A6.42,6.42,0,0,0,100.25,65a12.71,12.71,0,0,1,1.11-.82,10.82,10.82,0,0,0,2.28-1.88l.14-.14a5.29,5.29,0,0,0,1.13-1.48c.08-.17.19-.43.43-.12,0,0,.08,0,.13,0s.38-.07.56-.08c.56,0,1.11,0,1.66-.11s1.22-.19,1.83-.3a7.32,7.32,0,0,0,.79-.15c.34-.1.66-.25,1-.34A5.89,5.89,0,0,0,114,58.16a7.93,7.93,0,0,1,.71-.59,10.57,10.57,0,0,0,1.68-1.35c.54-.62,1.14-1.18,1.64-1.85s1.13-1.31,1.6-2c.3-.47.62-.94.9-1.43.39-.68.76-1.38,1.09-2.09.11-.23.25-.27.42-.23a6.59,6.59,0,0,0,1.47.2,4.42,4.42,0,0,1,.8.12,5.62,5.62,0,0,0,2,0,11.23,11.23,0,0,0,1.42-.17c.48-.1,1-.14,1.45-.26a6.94,6.94,0,0,0,2.42-1.41c.41-.32.85-.62,1.25-1a3.57,3.57,0,0,0,1.14-1.21,4.7,4.7,0,0,1,.52-.74,5.32,5.32,0,0,0,1.08-2.56c.07-.44.12-.89.22-1.31A4,4,0,0,0,135.65,38.53ZM106.6,21s0,0-.06,0Zm-1.9-3c0,.09-.06.07-.1.05A.31.31,0,0,0,104.7,18Zm-8.86-6.84.16,0a.24.24,0,0,1-.18,0S95.83,11.15,95.84,11.15Zm-3.23-.78,0,0h.2a.5.5,0,0,1,.13,0s0,.06-.08.06l-.28,0S92.6,10.38,92.61,10.37Zm-2.12-.28a1,1,0,0,0,.34.05.44.44,0,0,1,.15,0,.33.33,0,0,1-.17,0c-.11,0-.21,0-.32,0a.21.21,0,0,0-.09-.11ZM89.65,10h.09a.11.11,0,0,1-.12.09s-.08,0-.12,0Zm-3.92.11.16,0a.24.24,0,0,1-.18,0Zm49.65,31.31a.21.21,0,0,1,0-.18l.06,0Z"/><path id="fill2" class="cls-2" d="M135.65,38.53a9.81,9.81,0,0,0-1.23-2.79,9,9,0,0,0-1-1.4c-.41-.46-.92-.84-1.36-1.28a6.3,6.3,0,0,0-1.7-1c-.42-.23-.92-.33-1.36-.56a2,2,0,0,0-.49-.16c-.6-.14-1.21-.23-1.82-.32a5.57,5.57,0,0,0-2.23.12c-.41.09-.82.21-1.23.3-.18,0-.3,0-.34-.25s-.11-.52-.17-.77c-.11-.41-.19-.83-.33-1.22a16.6,16.6,0,0,0-.89-2.18,4.53,4.53,0,0,0-1.14-1.48,12.48,12.48,0,0,1-1.09-1.18,12.06,12.06,0,0,0-.89-1,14.74,14.74,0,0,0-1.41-1,8.53,8.53,0,0,0-2.14-1.11,9,9,0,0,0-2.76-.6,2.77,2.77,0,0,1-1.21-.09.79.79,0,0,0-.34,0l-.46.08c-.3.06-.6.09-.89.17a7.83,7.83,0,0,0-1.65.73c-.26.16-.36.12-.43-.15a8.93,8.93,0,0,0-.93-1.82,8.8,8.8,0,0,0-.6-.9,16.48,16.48,0,0,0-1.84-2.24,1.34,1.34,0,0,1-.31-.32,4.91,4.91,0,0,0-1.14-1.22c-.61-.54-1.26-1-1.92-1.52A10.13,10.13,0,0,0,99,12.45c-.68-.37-1.41-.64-2.07-1a8.94,8.94,0,0,0-2.07-.93A10.79,10.79,0,0,0,92,10a2.91,2.91,0,0,1-.3,0,8.31,8.31,0,0,0-2-.21,10.36,10.36,0,0,1-1.11-.08c-.66,0-1.32.06-2,.1l-1,.07c-.84.08-1.63.39-2.48.45a7.84,7.84,0,0,0-1.78.52c-.35.12-.66.34-1,.45a13.52,13.52,0,0,0-3.33,1.51c-.14.09-.3.29-.42.27s-.31-.21-.46-.32-.19-.12-.28-.18a8.22,8.22,0,0,0-1.05-.73A8.21,8.21,0,0,0,72.1,11a7.53,7.53,0,0,0-.95,0,4.19,4.19,0,0,0-.87,0c-.68.13-1.38.13-2.07.22a3.15,3.15,0,0,0-1.55.6c-.21.16-.43.32-.63.5s-.24.23-.26-.08c0-.48-.13-.95-.2-1.42A6.68,6.68,0,0,0,65,8.78c-.42-.82-.9-1.6-1.37-2.39a9.09,9.09,0,0,0-1.3-1.65A6.65,6.65,0,0,0,61,3.7a21.61,21.61,0,0,0-5.35-2.55C55,1,54.37.67,53.73.45A5.66,5.66,0,0,0,51.81.12a2,2,0,0,1-.76-.07,1.54,1.54,0,0,0-.74,0c-.5.08-1,.25-1.48.28-.8,0-1.58.14-2.37.2a10.14,10.14,0,0,0-2.66.59,10.86,10.86,0,0,1-1.34.51,11.17,11.17,0,0,0-4,1.87,33.92,33.92,0,0,0-3.78,3.19l-.74.75A7.74,7.74,0,0,0,32.6,9.24a22.76,22.76,0,0,0-1.73,4,4.59,4.59,0,0,0-.34,1.27,6.07,6.07,0,0,1-.16.83,5.23,5.23,0,0,0-.11,1.41c.12.71.16,1.42.27,2.13A9.13,9.13,0,0,0,31,20.86a12,12,0,0,0,1.19,2.51c0,.06,0,.16,0,.24l-.19-.06a8.65,8.65,0,0,1-1-.41,4.69,4.69,0,0,0-1.79-.49,6.62,6.62,0,0,1-1.11-.12,1.59,1.59,0,0,0-.91-.06,8.94,8.94,0,0,1-1.36.08l-1.46.1h-.05c-.81.3-1.68.32-2.51.58-1.09.34-2.19.67-3.27,1.06a3.26,3.26,0,0,0-.62.31l-1.4.85a9,9,0,0,0-2.72,2.25,10.43,10.43,0,0,0-1.41,2.12c-.15.38-.28.41-.67.28s-.64-.26-1-.34a2.53,2.53,0,0,0-.86-.1c-.56.07-1.12.2-1.68.29s-1,.1-1.41.21a7.69,7.69,0,0,0-2.49,1,7.11,7.11,0,0,0-1.41,1c-.26.28-.54.54-.8.82a7.08,7.08,0,0,0-.5.59A6,6,0,0,0,.43,35.42,9.48,9.48,0,0,0,0,37.25a12.57,12.57,0,0,0,.2,2.87,1.28,1.28,0,0,0,.22.6,12.34,12.34,0,0,0,1.37,2.14c.28.28.48.66.78.92a18.26,18.26,0,0,0,1.53,1.13,10.76,10.76,0,0,0,2,1.16,5.8,5.8,0,0,1,.88.4,9,9,0,0,0,2.18.9.42.42,0,0,1,.2.23,3.88,3.88,0,0,1,.11.61,5.81,5.81,0,0,0,.79,2.42,12.26,12.26,0,0,0,1,1.42c.57.69,1.43,1.1,1.85,1.93,0,0,.07.06.11.09.29.23.59.45.86.69.63.58,1.23,1.21,1.88,1.76a7,7,0,0,0,1.13.77,8.05,8.05,0,0,0,1.44.63,9.26,9.26,0,0,0,3,.65.38.38,0,0,1,.15,0,10.32,10.32,0,0,0,1.92.18,3.56,3.56,0,0,0,.91-.09c.11,0,.17.08.32,0a3.7,3.7,0,0,1,1-.12c.44,0,.88,0,1.31-.08A10.61,10.61,0,0,0,29.4,58c.83-.26,1.68-.44,2.48-.78a.45.45,0,0,1,.65.32,8.13,8.13,0,0,0,.92,1.87c.08.13.16.27.25.4a11.23,11.23,0,0,0,1.09,1.5,6.35,6.35,0,0,1,.81.91,7.93,7.93,0,0,0,1.68,1.74c1,.77,2,1.46,3,2.17a6.17,6.17,0,0,0,1.28.76,11.61,11.61,0,0,1,1.15.48,1.9,1.9,0,0,0,.4.14c.68.17,1.34.39,2,.51a9.21,9.21,0,0,0,2,.29c.8,0,1.6-.06,2.41-.1.43,0,.87-.06,1.31-.1,0,0,.08,0,.12-.06l1.61-.34a13.26,13.26,0,0,0,1.53-.41,8.36,8.36,0,0,0,1.07-.56.44.44,0,0,1,.65.1,4.72,4.72,0,0,1,.5.59,6.44,6.44,0,0,0,3.2,2.28,9.88,9.88,0,0,0,1.34.4,16.92,16.92,0,0,0,2.5.62,15.06,15.06,0,0,0,2.44.21c1-.1,2,0,3-.11a11.29,11.29,0,0,0,2.1-.4c.52-.14,1.06-.26,1.57-.42A4.13,4.13,0,0,0,74,69.45a1.68,1.68,0,0,1,.43-.17,3.76,3.76,0,0,0,.55-.23c.37-.21.72-.44,1.08-.66.58-.36,1.18-.7,1.76-1.07s1.26-.83,1.87-1.27a13.44,13.44,0,0,0,1.08-.89c.36-.32.35-.33.74,0,.06,0,.11.13.18.18a5.34,5.34,0,0,0,.86.57,19.69,19.69,0,0,0,1.84.75,14.86,14.86,0,0,0,2.87.56c.35,0,.72,0,1.06.11a6.91,6.91,0,0,0,1.87.19,1,1,0,0,1,.35,0,4.29,4.29,0,0,0,1.92,0,2.88,2.88,0,0,1,.4-.09,4.75,4.75,0,0,0,1.59-.28.48.48,0,0,1,.24,0,1.44,1.44,0,0,0,.91-.22,1.88,1.88,0,0,1,.38-.18c.66-.17,1.33-.3,2-.51A6.42,6.42,0,0,0,100.25,65a12.71,12.71,0,0,1,1.11-.82,10.82,10.82,0,0,0,2.28-1.88l.14-.14a5.29,5.29,0,0,0,1.13-1.48c.08-.17.19-.43.43-.12,0,0,.08,0,.13,0s.38-.07.56-.08c.56,0,1.11,0,1.66-.11s1.22-.19,1.83-.3a7.32,7.32,0,0,0,.79-.15c.34-.1.66-.25,1-.34A5.89,5.89,0,0,0,114,58.16a7.93,7.93,0,0,1,.71-.59,10.57,10.57,0,0,0,1.68-1.35c.54-.62,1.14-1.18,1.64-1.85s1.13-1.31,1.6-2c.3-.47.62-.94.9-1.43.39-.68.76-1.38,1.09-2.09.11-.23.25-.27.42-.23a6.59,6.59,0,0,0,1.47.2,4.42,4.42,0,0,1,.8.12,5.62,5.62,0,0,0,2,0,11.23,11.23,0,0,0,1.42-.17c.48-.1,1-.14,1.45-.26a6.94,6.94,0,0,0,2.42-1.41c.41-.32.85-.62,1.25-1a3.57,3.57,0,0,0,1.14-1.21,4.7,4.7,0,0,1,.52-.74,5.32,5.32,0,0,0,1.08-2.56c.07-.44.12-.89.22-1.31A4,4,0,0,0,135.65,38.53ZM106.6,21s0,0-.06,0Zm-1.9-3c0,.09-.06.07-.1.05A.31.31,0,0,0,104.7,18Zm-8.86-6.84.16,0a.24.24,0,0,1-.18,0S95.83,11.15,95.84,11.15Zm-3.23-.78,0,0h.2a.5.5,0,0,1,.13,0s0,.06-.08.06l-.28,0S92.6,10.38,92.61,10.37Zm-2.12-.28a1,1,0,0,0,.34.05.44.44,0,0,1,.15,0,.33.33,0,0,1-.17,0c-.11,0-.21,0-.32,0a.21.21,0,0,0-.09-.11ZM89.65,10h.09a.11.11,0,0,1-.12.09s-.08,0-.12,0Zm-3.92.11.16,0a.24.24,0,0,1-.18,0Zm49.65,31.31a.21.21,0,0,1,0-.18l.06,0Z"/><path id="fill1" d="M119.29,24.38a11.23,11.23,0,0,0,1.09,1.17A4.9,4.9,0,0,1,121.52,27a17.18,17.18,0,0,1,.89,2.18c.14.4.22.81.33,1.22s.13.51.17.78.16.28.34.24l1.23-.3a5.75,5.75,0,0,1,2.23-.12c.61.09,1.22.19,1.82.33a2,2,0,0,1,.49.15c.44.23.94.34,1.36.57a6.54,6.54,0,0,1,1.7,1c.44.44.95.82,1.36,1.29a8.49,8.49,0,0,1,1,1.39,9.51,9.51,0,0,1,1.22,2.79,3.86,3.86,0,0,1,.11,1.79c-.1.43-.15.88-.22,1.32a5.32,5.32,0,0,1-1.08,2.55,4.12,4.12,0,0,0-.52.74,3.6,3.6,0,0,1-1.14,1.22c-.4.33-.84.63-1.25,1a7,7,0,0,1-2.42,1.4c-.47.13-1,.16-1.45.26a11.45,11.45,0,0,1-1.42.17,5.62,5.62,0,0,1-2,0,3.75,3.75,0,0,0-.8-.11,7.23,7.23,0,0,1-1.47-.2c-.18,0-.31,0-.42.22-.33.71-.7,1.41-1.09,2.1-.28.49-.6,1-.9,1.43-.47.73-1.08,1.36-1.6,2.05s-1.11,1.22-1.64,1.85a12.41,12.41,0,0,1-1.68,1.35c-.24.19-.49.37-.71.58a5.79,5.79,0,0,1-2.66,1.42c-.35.09-.67.24-1,.34s-.53.11-.79.16c-.61.1-1.21.22-1.83.29s-1.1.07-1.66.11c-.19,0-.37.06-.56.08s-.12,0-.13,0c-.24-.31-.35-.06-.43.11a5.29,5.29,0,0,1-1.13,1.48l-.14.15a10.78,10.78,0,0,1-2.28,1.87,12.71,12.71,0,0,0-1.11.82,6.44,6.44,0,0,1-2.31,1.19c-.66.2-1.33.33-2,.51a1.3,1.3,0,0,0-.38.17,1.48,1.48,0,0,1-.91.23.48.48,0,0,0-.24,0,4.51,4.51,0,0,1-1.59.28,3.38,3.38,0,0,0-.41.09,4.15,4.15,0,0,1-1.92,0,1.28,1.28,0,0,0-.34,0,6.87,6.87,0,0,1-1.87-.19c-.35-.08-.71-.06-1.06-.11a15.64,15.64,0,0,1-2.87-.55c-.63-.23-1.24-.48-1.84-.76a5.91,5.91,0,0,1-.87-.57c-.06,0-.11-.12-.17-.17-.39-.3-.38-.29-.74,0a11.51,11.51,0,0,1-1.08.88c-.62.44-1.24.87-1.88,1.27S76.61,68,76,68.39c-.36.22-.71.46-1.08.67a4.68,4.68,0,0,1-.56.23,1.2,1.2,0,0,0-.42.17,4.11,4.11,0,0,1-1.39.52c-.52.17-1,.29-1.57.42a11.45,11.45,0,0,1-2.1.4c-1,.08-2,0-3,.11a14,14,0,0,1-2.43-.21A15.09,15.09,0,0,1,61,70.08a8.85,8.85,0,0,1-1.33-.4,6.44,6.44,0,0,1-3.2-2.28,4.72,4.72,0,0,0-.5-.59c-.23-.24-.36-.25-.65-.09a9,9,0,0,1-1.07.55,13.82,13.82,0,0,1-1.53.41c-.53.13-1.07.23-1.61.35,0,0-.08,0-.13,0-.43,0-.87.08-1.3.1-.81,0-1.61.08-2.42.1a9.83,9.83,0,0,1-2-.28c-.7-.13-1.36-.35-2.05-.52a2,2,0,0,1-.39-.14c-.37-.18-.76-.33-1.15-.48a6.17,6.17,0,0,1-1.28-.76c-1-.71-2.08-1.39-3-2.17A7.88,7.88,0,0,1,35.6,62.2a6.43,6.43,0,0,0-.81-.92,10.08,10.08,0,0,1-1.09-1.5l-.26-.4a8.52,8.52,0,0,1-.91-1.87.45.45,0,0,0-.65-.31c-.8.33-1.65.51-2.48.77a10,10,0,0,1-2.19.53c-.43,0-.87,0-1.31.08a3.7,3.7,0,0,0-1,.12c-.15,0-.22,0-.33,0a3.94,3.94,0,0,1-.9.1,11.26,11.26,0,0,1-1.92-.19H21.6a9.54,9.54,0,0,1-3-.66,8.48,8.48,0,0,1-1.45-.63,6.73,6.73,0,0,1-1.12-.77c-.65-.55-1.25-1.17-1.88-1.75-.27-.25-.58-.47-.86-.7,0,0-.1,0-.12-.08-.42-.83-1.27-1.24-1.84-1.93a12.05,12.05,0,0,1-1-1.43,5.81,5.81,0,0,1-.79-2.42,4.1,4.1,0,0,0-.11-.61.37.37,0,0,0-.2-.22A9.06,9.06,0,0,1,7,46.47a6.51,6.51,0,0,0-.89-.4,11.55,11.55,0,0,1-2-1.15A19,19,0,0,1,2.6,43.78c-.3-.26-.5-.63-.78-.91A12.39,12.39,0,0,1,.44,40.73a1.48,1.48,0,0,1-.21-.61A12.57,12.57,0,0,1,0,37.25a9.65,9.65,0,0,1,.4-1.83,6,6,0,0,1,1.19-1.91c.16-.2.32-.4.49-.59s.55-.54.81-.81a7.89,7.89,0,0,1,1.4-1,7.83,7.83,0,0,1,2.5-1c.46-.11.94-.13,1.41-.21s1.12-.22,1.68-.28a2.3,2.3,0,0,1,.86.09c.32.09.63.23,1,.34s.52.1.67-.28a10,10,0,0,1,1.41-2.12,9.22,9.22,0,0,1,2.72-2.25l1.4-.85a3.59,3.59,0,0,1,.62-.31c1.08-.38,2.18-.72,3.27-1.06.83-.26,1.7-.27,2.51-.58h.05l1.46-.1a7.82,7.82,0,0,0,1.36-.08,1.59,1.59,0,0,1,.91.06,5.7,5.7,0,0,0,1.1.12,4.87,4.87,0,0,1,1.8.49,7.62,7.62,0,0,0,1,.41l.2.06c0-.08,0-.18,0-.23A12.53,12.53,0,0,1,31,20.87a9.29,9.29,0,0,1-.49-1.95c-.11-.71-.15-1.43-.27-2.14a5.23,5.23,0,0,1,.11-1.41,6.07,6.07,0,0,0,.16-.83,4.68,4.68,0,0,1,.34-1.27,22.76,22.76,0,0,1,1.73-4,8,8,0,0,1,1.3-1.81l.75-.74A32.88,32.88,0,0,1,38.43,3.5a11,11,0,0,1,4-1.87c.46-.11.88-.36,1.34-.52A10.46,10.46,0,0,1,46.46.52C47.25.46,48,.36,48.83.32c.49,0,1-.2,1.48-.28a1.54,1.54,0,0,1,.74,0,2,2,0,0,0,.76.08,5.42,5.42,0,0,1,1.92.33c.64.21,1.26.51,1.91.69a20.35,20.35,0,0,1,3.13,1.28A18.72,18.72,0,0,1,61,3.7a7.47,7.47,0,0,1,1.32,1,8.83,8.83,0,0,1,1.3,1.66c.47.78,1,1.56,1.37,2.38a6.84,6.84,0,0,1,.59,2.06c.07.47.15.94.19,1.42,0,.31.12.21.27.08s.42-.34.63-.5a3.14,3.14,0,0,1,1.55-.59c.69-.09,1.39-.1,2.07-.23a5,5,0,0,1,.87,0,6,6,0,0,1,.95,0,8,8,0,0,1,2.75.83,9.38,9.38,0,0,1,1.05.73c.09.07.19.12.28.18s.29.31.45.33.28-.18.43-.28a13.52,13.52,0,0,1,3.33-1.51c.35-.11.66-.33,1-.45a7.33,7.33,0,0,1,1.78-.51c.85-.07,1.64-.38,2.48-.45l1-.08c.66,0,1.32-.09,2-.09.37,0,.74.11,1.11.08a7.29,7.29,0,0,1,2,.21c.1,0,.2,0,.3,0a11.23,11.23,0,0,1,2.82.46,9.13,9.13,0,0,1,2.07.93c.66.39,1.39.65,2.07,1a12.32,12.32,0,0,1,1.42.92c.65.49,1.31,1,1.92,1.53a4.87,4.87,0,0,1,1.14,1.21,1.34,1.34,0,0,0,.31.32,17.26,17.26,0,0,1,1.84,2.24,8.83,8.83,0,0,1,.59.91,8.42,8.42,0,0,1,.94,1.81c.07.28.17.31.43.16a7.35,7.35,0,0,1,1.65-.73,6.83,6.83,0,0,1,.88-.17l.47-.08a.67.67,0,0,1,.34,0,2.77,2.77,0,0,0,1.21.09,9,9,0,0,1,2.76.61,8.19,8.19,0,0,1,2.14,1.1,13.31,13.31,0,0,1,1.41,1.06,9.4,9.4,0,0,1,.89,1M2,41a2.56,2.56,0,0,0-.05.27.93.93,0,0,0,0,.13A.76.76,0,0,0,2,41.2a.52.52,0,0,1,0-.24.42.42,0,0,1,.1-.2l.15-.23-.06-.06a.85.85,0,0,1-.19.29A.35.35,0,0,1,2,41M90.49,10.09H90.4a.21.21,0,0,1,.09.11l.32.05a1,1,0,0,0,.17,0l-.15-.06a1,1,0,0,1-.34-.05M117,46.27a1.61,1.61,0,0,1,.36-.1c.42,0,.44-.08.5-.5a7.47,7.47,0,0,1,.28-1,.39.39,0,0,1,.11-.17c0,.06.1.12.1.18,0,.4-.06.81-.1,1.21,0,.18.07.38-.08.57s0,.31.09.38a2.39,2.39,0,0,0,1.37.56l.09,0s0-.09-.05-.11c-.35-.26-.24-.62-.18-.94a5.2,5.2,0,0,0,.27-1.29s0-.1.08-.14.19.09.19.13c0,.35-.07.7-.1,1s0,.82-.07,1.22a.1.1,0,0,0,.07.1.11.11,0,0,0,.12,0,.54.54,0,0,0,.1-.2c.17-.68.34-1.37.5-2,.08-.33.13-.68.21-1,0-.07.1-.12.15-.18s0,.13,0,.18a3,3,0,0,1-.11.86,17.51,17.51,0,0,0-.39,2.39.34.34,0,0,1,0,.1c0,.28.24.28.39.36s.24-.12.28-.22c.2-.52.37-1,.53-1.58a1.36,1.36,0,0,0,0-.69c0-.16,0-.2.09-.28.06.08.17.16.17.23,0,.35-.08.7-.14,1s-.18.83-.25,1.25c0,.16-.07.42.17.44s.27-.24.32-.4c.21-.8.39-1.61.58-2.41a8.3,8.3,0,0,0,.22-1c.06-.42.07-.84.11-1.26a.64.64,0,0,1,.1-.26s.09-.06.13-.1.06.11,0,.17,0,.37-.08.56c-.07.41-.15.81-.2,1.22a11.66,11.66,0,0,0-.31,2.12,1.63,1.63,0,0,1-.08.37c0,.3-.08.6-.11.9s.2.21.32.26.36,0,.36-.15c0-.39.33-.71.22-1.12a.7.7,0,0,1,0-.25.14.14,0,0,1,.1-.07s.09,0,.09.08,0,.2,0,.3c0,.35,0,.7,0,1s.22.24.37.25.21-.16.21-.24a3.35,3.35,0,0,1,.18-1c.13-.58.3-1.15.43-1.72s.21-1,.31-1.53a.65.65,0,0,1,0-.13s.06.07,0,.1c0,.31,0,.61-.08.92s-.15.87-.21,1.31A6,6,0,0,1,124.8,47a5.56,5.56,0,0,0-.08,1.22c0,.14,0,.15.18.2a3.88,3.88,0,0,0,.83.07,1.64,1.64,0,0,0,.76-.19.38.38,0,0,0,.22-.21,5,5,0,0,0,.11-.56c.09-.39.22-.78.29-1.17a10.07,10.07,0,0,0,.51-2.3.47.47,0,0,1,.07-.17.16.16,0,0,1,.07-.07s.06.06.06.1a5.11,5.11,0,0,1,0,.78c-.1.49-.26,1-.34,1.45s-.14,1.22-.22,1.82c0,.16-.09.24.16.25s.36,0,.45-.27.21-.61.3-.92c.14-.51.26-1,.4-1.54a1.51,1.51,0,0,1,.09-.18,1.51,1.51,0,0,1,.11.22.34.34,0,0,1,0,.14,7.3,7.3,0,0,1-.19.93c-.14.44,0,.92-.27,1.34-.06.12,0,.17.13.17a.59.59,0,0,0,.55-.55c0-.15,0-.3,0-.44.11-.52.25-1,.36-1.55.05-.23.06-.47.11-.71,0,0,.08-.09.13-.14a.47.47,0,0,1,.06.15c0,.4-.07.8-.11,1.2-.06.56-.13,1.12-.19,1.68a.43.43,0,0,0,.07.16l.16-.08c.12-.08.24-.16.35-.25s.2-.17.21-.26a7,7,0,0,0,.31-1.63s0-.12,0-.14a.37.37,0,0,1,.18,0s.07.07.06.1c-.16.42.1.88-.14,1.29,0,0,.07.1.11.1s.6-.36.58-.52c-.07-.48.26-.88.24-1.35a1.84,1.84,0,0,1,.1-.51l.36-1.4a2.83,2.83,0,0,1,.17-.4l0,.44a.71.71,0,0,1,0,.29,5.23,5.23,0,0,0-.21,1.17,4.67,4.67,0,0,1-.32,1.47l0,.1s.08,0,.09,0c.19-.22.49-.28.62-.58a8,8,0,0,0,.36-1.27c0-.12-.16-.33.12-.34a1.51,1.51,0,0,1,.07.39.46.46,0,0,1,0,.19s0,.07,0,.1.1,0,.13,0a.29.29,0,0,0,.12-.15c.07-.35.15-.71.2-1.06.11-.68.2-1.36.31-2a1.54,1.54,0,0,1,.15-.32,1.45,1.45,0,0,1,0,.29.92.92,0,0,1,0,.44c-.17.36-.07.75-.17,1.13s-.16,1-.28,1.54c0,.16,0,.19.09.28a1.45,1.45,0,0,0,.17-.19,8.29,8.29,0,0,1,.62-1.14,3.63,3.63,0,0,0,.59-1.22c.11-.38.12-.79.22-1.16a5.69,5.69,0,0,0,.18-1.47c0-.18,0-.36.19-.48s0-.29,0-.45,0-.05,0-.08,0,.05,0,.08,0,.07,0,.1a1.6,1.6,0,0,1-.05.21c0-.06,0-.12,0-.18a5.22,5.22,0,0,0-.32-1.06,12.44,12.44,0,0,0-2.18-3.45,13.18,13.18,0,0,0-1.11-1A22.3,22.3,0,0,0,128.69,32c-.05,0-.13,0-.19,0-.59-.16-1.19-.22-1.77-.34a4.81,4.81,0,0,0-1.82.06,11.21,11.21,0,0,0-2.21.57c-.32.12-.68.14-1,.27a11.17,11.17,0,0,0-2.26,1.33c-.24.18-.44.51-.83.41-.07,0-.2,0-.2-.07s0-.27,0-.32a6.44,6.44,0,0,1,.72-.54c.59-.39,1.17-.79,1.77-1.16a4.07,4.07,0,0,1,.82-.31,3.1,3.1,0,0,0,.46-.11c.24-.14,0-.3,0-.46a6.06,6.06,0,0,0-.47-2.05,17.4,17.4,0,0,0-.79-1.83,7.05,7.05,0,0,0-1.22-1.7c-.32-.32-.6-.68-.92-1s-.67-.69-1-1a6.56,6.56,0,0,0-.73-.54c-.45-.3-.9-.63-1.38-.89a8.74,8.74,0,0,0-1.41-.59,6,6,0,0,0-2.47-.42,1.07,1.07,0,0,1-.4,0,3.59,3.59,0,0,0-1.84.1A5.69,5.69,0,0,0,108,22a1.5,1.5,0,0,0-.46.21c-.21.2.22.25.14.44v0c.14.36.27.72.4,1.09l.06.1,0-.08c0-.1-.11-.3.13-.29,0,0,.06.21.07.33a2.68,2.68,0,0,1-.07.27c0,.26-.11.52.07.75a.35.35,0,0,1,0,.13c0-.05.13-.09.14-.14,0-.23.06-.47.12-.7s-.15-.33.12-.34a2,2,0,0,1,.07.38.17.17,0,0,1,0,.1,11.63,11.63,0,0,0-.3,2.35.56.56,0,0,1,0,.23c-.07.12-.13.24,0,.31s.14-.16.2-.26,0-.1,0-.15c.06-.44.12-.88.2-1.32a.71.71,0,0,1,.13-.24,2.1,2.1,0,0,1,.06.24,1.37,1.37,0,0,1,0,.35,16.17,16.17,0,0,0-.28,1.83c0,.9,0,1.8.09,2.71a.21.21,0,0,0,0,.13.35.35,0,0,0,.1.11.84.84,0,0,0,.06-.14c.07-.39.12-.79.19-1.18s.2-1.08.32-1.62.23-.83.35-1.25a.72.72,0,0,1,.11-.19.63.63,0,0,1,0,.19c-.07.46-.15.93-.24,1.4a12.65,12.65,0,0,0-.34,1.6c-.05.65-.12,1.28-.22,1.92-.05.27,0,.55-.05.79a10,10,0,0,0-.11,1.07c-.06.39-.39.78-.14,1.22,0,.06-.09.17-.09.26s-.08.18-.18.14a.4.4,0,0,1-.22-.16.42.42,0,0,1,0-.25c.09-.42.2-.85.29-1.27s.19-.74.25-1.12c0-.13,0-.3-.22-.3s-.1.17-.12.26,0,.07,0,.1,0,.14-.08.14-.18,0-.21-.06a.54.54,0,0,1-.1-.3c0-.92-.12-1.84-.08-2.76,0-.34-.22-.66,0-1-.2-.52,0-1.12-.3-1.62a4.46,4.46,0,0,0-.31-1.88,3.86,3.86,0,0,0-.37-1.15,8.14,8.14,0,0,1-.55-1.32,5.14,5.14,0,0,0-.5-1.09A22.16,22.16,0,0,0,105,19c-.32-.35-.55-.81-.9-1.17s-.41-.46-.6-.7a9.12,9.12,0,0,0-1.34-1.44c-.83-.68-1.62-1.41-2.51-2a9.33,9.33,0,0,0-1.32-.81c-.71-.34-1.39-.74-2.1-1.09-.39-.19-.79-.35-1.19-.51a10,10,0,0,0-3.25-.62,3.61,3.61,0,0,1-1.17-.17,1.25,1.25,0,0,0-.71-.09,3.82,3.82,0,0,1-1.12,0c-1,0-1.94,0-2.91.09a3.82,3.82,0,0,0-.73.16,7.67,7.67,0,0,1-1.06.22,9.5,9.5,0,0,0-2.46.59c-.43.16-.85.36-1.28.52a10.19,10.19,0,0,0-2.44,1c-.25.16-.51.3-.76.47s-.15.15,0,.25a2.36,2.36,0,0,1,.71.59c.42.52.82,1.05,1.2,1.6A6.48,6.48,0,0,1,79.77,17c.18.44.27.92.41,1.38a15.47,15.47,0,0,0,.5,1.89c.08.19-.08.34-.3.34a.6.6,0,0,1-.5-.51,12.15,12.15,0,0,0-.59-2.45,7.91,7.91,0,0,0-1.76-2.92,16.14,16.14,0,0,0-1.89-1.6,9.27,9.27,0,0,0-1.25-.82A7,7,0,0,0,71,11.56a17.12,17.12,0,0,0-2.47.19,2.52,2.52,0,0,0-1.36.46,5.6,5.6,0,0,1-1.11.7c-.24.11-.25.24-.26.45,0,.58,0,1.17-.07,1.76s-.19,1.32-.33,2-.26,1.1-.4,1.64-.34,1.16-.5,1.75-.27,1-.4,1.53a.29.29,0,0,1-.4.24.26.26,0,0,1-.2-.34,4.25,4.25,0,0,0,.32-1.32,1.39,1.39,0,0,1,.13-.44c.18-.59.41-1.18.54-1.78A14.49,14.49,0,0,0,65,15.83c0-.56.25-1.12.28-1.68a13.54,13.54,0,0,0-.1-2c-.06-.59-.19-1.18-.29-1.78a6.39,6.39,0,0,0-.53-1.58c-.23-.51-.59-.95-.87-1.44A9,9,0,0,0,61.65,5a13.18,13.18,0,0,0-2.5-1.71c-.45-.25-.94-.42-1.38-.66a10.81,10.81,0,0,0-1.53-.65c-.13-.05-.25-.19-.37-.19a5.71,5.71,0,0,1-1.72-.57A7.52,7.52,0,0,0,51.72.63,15.15,15.15,0,0,0,49.3.8C48.56.93,47.78.91,47,1c-.41.06-.84.05-1.26.11a7.15,7.15,0,0,0-1.13.27c-.68.22-1.34.49-2,.72a13.9,13.9,0,0,0-1.75.6,16.85,16.85,0,0,0-2.45,1.46A33,33,0,0,0,35.18,7l-.64.64A8.57,8.57,0,0,0,32.8,10a23.48,23.48,0,0,0-1.06,2.41,23,23,0,0,0-.88,3s0,.11,0,.16a.58.58,0,0,0,.14-.13,7.77,7.77,0,0,1,.48-1,11,11,0,0,0,.64-1.23c.11-.22.19-.46.29-.68a.66.66,0,0,1,.14-.15.68.68,0,0,1,0,.22,1.45,1.45,0,0,1-.12.35c-.17.35-.35.69-.53,1s-.51.95-.74,1.44a3.07,3.07,0,0,0-.31,1.58.42.42,0,0,1,0,.18.92.92,0,0,0,.14-.14c.25-.48.48-1,.74-1.45.65-1.21,1.3-2.43,2-3.63.05-.1,0-.33.24-.28,0,.12,0,.25-.09.37a2,2,0,0,1-.1.21c-.22.41-.45.81-.66,1.23a28.92,28.92,0,0,0-2,4.46,1.55,1.55,0,0,0-.07.52,3,3,0,0,0,.13.59c.11-.16.22-.32.32-.49s.09-.23.14-.34c.27-.56.53-1.12.81-1.67.45-.89.91-1.79,1.4-2.67.37-.67.79-1.31,1.19-2l.17-.24c0,.1,0,.2,0,.3a.51.51,0,0,1-.07.17c-.54.94-1.05,1.9-1.58,2.85-.35.62-.58,1.3-1,1.91a6.65,6.65,0,0,0-.32.82,10.83,10.83,0,0,1-.69,1.46,1,1,0,0,0-.1,1,.34.34,0,0,0,.07.11s.1-.07.12-.11,0-.13.05-.18c.32-.6.66-1.19,1-1.79a7.85,7.85,0,0,0,.88-1.64s.09-.06.14-.09.06.09.05.13a.9.9,0,0,1-.08.21l-1,2.23-.81,1.72a.57.57,0,0,0-.07.22s0,.09.07.09.12,0,.12-.05a2.29,2.29,0,0,1,.45-.91c.65-1.11,1.35-2.18,2.06-3.25a28.11,28.11,0,0,0,1.89-3.23s.07-.07.1-.11.12.06.05.18c-.19.34-.29.72-.48,1.05-.75,1.28-1.51,2.55-2.3,3.8a20.7,20.7,0,0,0-1.46,2.65,1.45,1.45,0,0,0,0,.92s.1.14.12.13a.24.24,0,0,0,.17-.14,29.71,29.71,0,0,1,1.57-3.45L35.05,17a3,3,0,0,1,.16-.31V17l0,0c-.22.49-.44,1-.67,1.47s-.63,1.12-.85,1.7c-.34.87-.6,1.76-.88,2.64a1.51,1.51,0,0,0,0,.51,1.22,1.22,0,0,0,.07.17.92.92,0,0,0,.14-.14c.41-.75.85-1.48,1.21-2.25s.85-1.69,1.31-2.51c.29-.52.59-1,.88-1.54s.74-1.26,1.1-1.9.64-1.16.95-1.75c.21-.4.38-.81.57-1.22l.07-.08a.32.32,0,0,1,0,.09,1.26,1.26,0,0,1,0,.28c-.16.37-.31.74-.5,1.1-.46.84-.94,1.67-1.41,2.52-.2.35-.37.71-.57,1.06-.52.95-1.07,1.89-1.58,2.85-.32.61-.61,1.25-.9,1.88-.11.23-.21.48-.3.72a3,3,0,0,1-.62,1.15c-.14.14-.08.23,0,.31a1.85,1.85,0,0,0,.29.13c.35.16.33.15.49-.21a19.25,19.25,0,0,1,1.24-2.54,8.74,8.74,0,0,0,.86-1.8c0-.06.08-.1.12-.15s.09.15.07.2A12.56,12.56,0,0,1,35.88,21c-.29.61-.63,1.21-.91,1.82A11.91,11.91,0,0,0,34.51,24a4.06,4.06,0,0,0-.16.69c0,.06.08.13.12.2s.05-.12.08-.17c.12-.22.26-.43.38-.64l1.35-2.45A5.2,5.2,0,0,1,36.7,21a25,25,0,0,0,1.37-2.19c.46-.74.86-1.51,1.28-2.27a.93.93,0,0,1,.13-.15.85.85,0,0,1,0,.23,32.12,32.12,0,0,1-1.77,3.27c-.58,1-1.19,2-1.76,3.08-.24.43-.39.9-.6,1.35A3.6,3.6,0,0,1,35,25c-.17.24-.2.22,0,.38l.43.3.31.2c0-.12.08-.25.13-.37s.05,0,.07-.07a10.06,10.06,0,0,1,.88-1.88,4.44,4.44,0,0,0,.42-.73c.16-.4.27-.82.41-1.23,0-.05.07-.08.11-.12l.09.14a.17.17,0,0,1,0,.1,13.75,13.75,0,0,1-.61,1.59,14.16,14.16,0,0,0-1,2.51,1.14,1.14,0,0,0,0,.36,1.13,1.13,0,0,0,.24-.25c.57-1.12,1.11-2.28,1.72-3.39s1.2-2,1.82-3a37.86,37.86,0,0,0,2.2-3.8c.15-.32.35-.62.53-.93,0,0,.09,0,.14-.05a.61.61,0,0,1,0,.13c-.62,1.25-1.25,2.5-2,3.69-.3.49-.59,1-.88,1.48-.51.84-1,1.68-1.51,2.53A13.11,13.11,0,0,0,37.8,24c-.35.81-.65,1.63-1,2.45a.22.22,0,0,0,0,.18c.35.39.71.76,1,1.16.15.18.26.1.35,0,.22-.37.43-.75.64-1.13.42-.78.79-1.58,1.26-2.33.58-.91,1.06-1.88,1.65-2.77.72-1.09,1.35-2.24,2-3.39.1-.19.05-.48.35-.54-.08.2-.15.41-.23.62a29.2,29.2,0,0,1-1.7,3.1c-.34.59-.73,1.16-1,1.76-.46.88-1,1.72-1.44,2.6s-.73,1.71-1.18,2.52a.48.48,0,0,0,0,.37c.14.29.32.57.48.85a.34.34,0,0,0,.09.08s.1-.07.11-.12a1.41,1.41,0,0,1,.06-.47c.47-.86,1-1.71,1.44-2.56l.57-1a.3.3,0,0,1,.11-.07s0,.07,0,.09a1.67,1.67,0,0,1-.08.32,9.59,9.59,0,0,1-.57,1.16,10.11,10.11,0,0,0-1.05,2.52c0,.11-.13.28-.2.28-.35,0-.23.3-.17.37s.17.41.27.6.21.15.28,0c.48-.89.94-1.78,1.42-2.66.3-.53.61-1.06.92-1.57s.8-1.27,1.18-1.92c.19-.33.33-.69.51-1a.61.61,0,0,1,.15-.17c0,.09.05.19,0,.26-.22.48-.45,1-.7,1.41-.64,1.12-1.32,2.23-1.94,3.36-.37.67-.67,1.38-1,2.08a2.79,2.79,0,0,1-.29.68.6.6,0,0,0-.13.59c.1.41.14.82.22,1.22s-.08.34-.2.38-.25-.06-.35-.22,0-.43-.09-.62c-.25-.66-.5-1.32-.78-2A9,9,0,0,0,37.3,28a8.78,8.78,0,0,0-1.49-1.37,14,14,0,0,1-1.74-1.23,5.46,5.46,0,0,0-1.8-1.1c-.3-.11-.59-.26-.89-.38s-.79-.35-1.2-.49a10.65,10.65,0,0,0-2.39-.39,6.43,6.43,0,0,0-1.64,0c-.44.08-.89.06-1.33.17a8.85,8.85,0,0,1-.9.11c-.44.08-.87.15-1.29.27-.82.23-1.63.5-2.45.73a10.34,10.34,0,0,0-2.48,1c-.84.49-1.63,1.07-2.44,1.61a1.06,1.06,0,0,0-.27.18c-.32.37-.61.76-.93,1.12a11.59,11.59,0,0,0-1.33,2c0,.08-.1.23-.08.24.35.27,0,.4-.09.58a.89.89,0,0,0-.22.4,5.42,5.42,0,0,0-.29,1.17c0,.52-.19,1.05-.24,1.59a6,6,0,0,0,0,2,5,5,0,0,1,.09.66c0,.1.07.27-.14.23s-.27.11-.37-.17a7.94,7.94,0,0,1-.26-2,6,6,0,0,1,.18-1.56,6.27,6.27,0,0,0,.19-.92A4.07,4.07,0,0,1,12,30.9c.09-.21,0-.27-.1-.34a1.12,1.12,0,0,0-.31-.1l-.82-.2a2.2,2.2,0,0,0-1.27,0,5.47,5.47,0,0,1-1,.12,10.91,10.91,0,0,0-1.41.23,10.11,10.11,0,0,0-1.58.53,13.07,13.07,0,0,0-1.23.65,4.28,4.28,0,0,0-1.32,1c-.27.34-.52.7-.82,1A6.11,6.11,0,0,0,.72,36.46a.62.62,0,0,0,0,.18c.05,0,.12-.06.14-.1.14-.26.26-.53.4-.79,0,0,.13,0,.2-.07s.05.14,0,.18A4.37,4.37,0,0,0,1.16,37a3.58,3.58,0,0,0-.23.65,1.2,1.2,0,0,1-.19.67c-.11.13,0,.42,0,.64a1.06,1.06,0,0,0,.05.23,1.86,1.86,0,0,0,.1-.2,12.6,12.6,0,0,1,1-2A.66.66,0,0,1,2,36.86c0,.08.07.17,0,.22-.08.22-.19.42-.29.63a1.3,1.3,0,0,0-.19.42,3.46,3.46,0,0,1-.3,1.38.17.17,0,0,0,0,.13c.06,0,.14,0,.17,0s.09-.16.15-.24A4.23,4.23,0,0,1,1.89,39a.52.52,0,0,1,.2-.07c0,.08.05.17,0,.23a1.69,1.69,0,0,1-.19.32,8.34,8.34,0,0,0-.54,1.39c-.08.26.12.32.13.49,0,0,.1,0,.11-.05a3.75,3.75,0,0,1,.47-1.2c.28-.62.61-1.22.94-1.81.06-.1,0-.37.24-.27s0,.25,0,.38a1.3,1.3,0,0,1-.1.15c-.27.54-.53,1.08-.8,1.63a.13.13,0,0,0,.06.12.14.14,0,0,0,.12,0,.67.67,0,0,0,.12-.2c.17-.36.33-.73.51-1.09a.58.58,0,0,1,.16-.15.61.61,0,0,1,0,.23c-.09.28-.22.55-.29.83-.13.49-.3,1-.47,1.46a4.55,4.55,0,0,0-.14,1,.58.58,0,0,0,.06.17,1.66,1.66,0,0,0,.13-.14c.08-.14.14-.28.22-.41a.3.3,0,0,1,.34-.15l.13,0a.33.33,0,0,1,0,.17,3.21,3.21,0,0,0-.3.62,1.57,1.57,0,0,0,.07.6s.06.07.09.07.1,0,.1-.07c-.05-.42.21-.76.28-1.13a7.55,7.55,0,0,1,.57-1.48c.26-.59.59-1.15.91-1.72a3.68,3.68,0,0,1,.31-.38c.11.2,0,.33-.12.48a24.16,24.16,0,0,0-1.09,2.3,2.37,2.37,0,0,0-.24.69,2.88,2.88,0,0,0,0,.72,2,2,0,0,1-.11.75s-.14,0-.22,0,0,.07,0,.1l.14.18.12.12a1.09,1.09,0,0,0,.08-.15A5.94,5.94,0,0,1,4,43a4.24,4.24,0,0,1,.44-.81.42.42,0,0,1,.39-.11c.21.09,0,.22-.05.31a2.7,2.7,0,0,0-.39,1.39s0,.12,0,.14c-.35.26,0,.37.12.49a2.44,2.44,0,0,0,.55.35c.43.23.43.22.64-.21s.41-.84.62-1.25c.11-.21.26-.09.4,0s0,0,0,.19-.15.66-.46.86c0,0,0,.06,0,.1A1.38,1.38,0,0,1,6.1,45c-.15.23,0,.28.13.36s.19.05.25.11.28,0,.34-.12c.2-.44.38-.88.58-1.32.09-.19.24-.36.32-.56a2.87,2.87,0,0,1,.78-1.13s.07,0,.1-.06,0,.1,0,.14-.2.35-.29.53a16.65,16.65,0,0,0-1,2.54.52.52,0,0,0,.41.65c.3.08.37-.1.38-.35a.64.64,0,0,1,.09-.21c.13-.28.26-.56.4-.84s.2-.25.38-.15.08.23,0,.36-.24.54-.35.81c-.2.48-.15.65.22.82a6.62,6.62,0,0,0,2,.48.26.26,0,0,0,.32-.19c.22-.59.5-1.16.75-1.74A16.45,16.45,0,0,1,13.33,42a.91.91,0,0,1,.13-.16,2.44,2.44,0,0,1,.06.26s-.07.07-.09.11a25.38,25.38,0,0,0-1.14,2.93,6.19,6.19,0,0,1-.56,1.77.17.17,0,0,0,0,.13.67.67,0,0,0,.66-.17,1.59,1.59,0,0,0,.19-.42,6,6,0,0,1,.62-1.4,1,1,0,0,1,.29-.3s.12,0,.18,0,0,.09,0,.13c-.12.37-.25.73-.39,1.09-.08.2-.2.38-.27.59s0,.32,0,.34a.73.73,0,0,0,.44,0c.08,0,.14-.18.19-.29l.95-2.31c.22-.51.41-1,.66-1.53s.43-.72.65-1.08a1.05,1.05,0,0,1,.11-.07.7.7,0,0,1,0,.14.33.33,0,0,1,0,.13c-.28.65-.56,1.3-.86,1.95a8.7,8.7,0,0,0-.9,2.58c0,.12-.06.23-.09.35l.4-.06a.17.17,0,0,1,.1,0c.27.06.36-.12.46-.32.21-.44.44-.88.62-1.34a.33.33,0,0,1,.35-.25c.17,0,.19,0,.12.21-.2.43-.38.88-.55,1.32,0,.08,0,.19,0,.28a2.65,2.65,0,0,0,.3-.11s0-.12.05-.18a33.21,33.21,0,0,1,1.31-3.21c.31-.68.67-1.33,1-2,.06-.1.1-.34.29-.21s0,.26-.06.38c-.37.74-.76,1.48-1.13,2.23a5,5,0,0,0-.38.89c-.17.6-.3,1.21-.45,1.82,0,.12,0,.2.16.17a2.32,2.32,0,0,0,.76-.22c.13-.09.15-.36.18-.55a5.69,5.69,0,0,1,.58-1.76c.08-.15.07-.46.32-.36s.15.4.07.55a10.29,10.29,0,0,0-.46,1.62c-.06.15,0,.25.2.22a.89.89,0,0,0,.69-.52c.34-.67.68-1.33,1-2,.16-.32.29-.65.44-1,0-.05.09-.07.14-.1a.3.3,0,0,1,0,.13,4.52,4.52,0,0,1-.2.72c-.22.53-.47,1-.69,1.56a1.36,1.36,0,0,0-.07.35c.09-.09.21-.15.26-.26l1-1.93a5.45,5.45,0,0,1,.29-.53s.11,0,.16-.06.05.1,0,.13a4.25,4.25,0,0,1-.2.72c-.25.6-.52,1.19-.8,1.77a2.43,2.43,0,0,1-.33.46.24.24,0,0,1-.41,0c-.05,0-.11-.15-.18,0a.39.39,0,0,0,0,.21c.09.41.08.38-.28.63a2.93,2.93,0,0,1-1.06.45c-.75.16-1.48.43-2.24.52s-1.48.2-2.22.31a15.7,15.7,0,0,1-1.81.11c-.48,0-1,0-1.45,0a5.44,5.44,0,0,0-.58,0c0,.17.07.34.1.51s0,.13,0,.2a5.44,5.44,0,0,0,.15.54s.06.06.1.1,0-.09,0-.13.2-.36.31-.52.11,0,.16,0a.2.2,0,0,1,0,.13,3.16,3.16,0,0,1-.29.68.56.56,0,0,0,0,.7c.11.18.21.38.32.56s.09.07.13.1l.07-.11A2.6,2.6,0,0,1,12,49.27c.06-.05.08-.12.18,0s0,.13,0,.19c-.2.41-.38.85-.61,1.24a.64.64,0,0,0,0,.67c0,.06.13.09.19.13a1.11,1.11,0,0,0,.09-.19,2.37,2.37,0,0,1,.11-.46,6,6,0,0,1,.39-.63,4.59,4.59,0,0,1,.35-.51s.13-.07.2-.11a.63.63,0,0,1,0,.27c-.07.17-.26.33-.25.48a1.67,1.67,0,0,1-.24.81,1.7,1.7,0,0,0-.18.88.25.25,0,0,0,.27.27c.16,0,.24,0,.24-.21s.1-.22.17-.33c.25-.38.48-.77.75-1.14.07-.09.05-.38.27-.26s0,.25,0,.4-.09.16-.13.24c-.19.39-.38.78-.56,1.17a2,2,0,0,0-.17.53c0,.14.18.41.29.39s.17-.15.21-.28a1.87,1.87,0,0,1,.34-.6c.09-.11-.05-.43.25-.31s.06.31.1.47,0,.09-.06.13a5.64,5.64,0,0,1-.29.78.4.4,0,0,0,.14.55c.12.11.17.11.22-.07a8,8,0,0,1,.27-1c.27-.76.49-1.53.81-2.27a19.71,19.71,0,0,1,.85-1.8.36.36,0,0,1,.11-.1c0,.05,0,.1,0,.16a.31.31,0,0,1,0,.19,16.64,16.64,0,0,0-.84,2,12.57,12.57,0,0,0-.74,2.75,3,3,0,0,0-.09.51c0,.08.09.15.14.23a.9.9,0,0,0,.15-.19c.14-.34.26-.69.41-1,0-.1.19-.26.25-.24s.15.23.14.37a1.43,1.43,0,0,1-.08.22,4.82,4.82,0,0,1-.34,1.21c-.17.31.07.41.18.44s.22-.13.25-.31a2.26,2.26,0,0,1,.19-.42c.21-.6.38-1.21.61-1.8s.44-1.12.7-1.66a10,10,0,0,1,.57-1s.11,0,.17-.08.05.12,0,.17c-.13.31-.27.62-.42.92a11.32,11.32,0,0,0-.76,1.84c-.23.77-.47,1.54-.69,2.32a.75.75,0,0,0,.47,1s.11,0,.12,0c.07-.29.15-.57.2-.86A10.9,10.9,0,0,1,17.68,53a1.24,1.24,0,0,1,.17-.27,1.66,1.66,0,0,1,.14-.13,1,1,0,0,1,0,.24s-.05,0-.06.07c-.11.4-.24.8-.33,1.21s-.19,1-.27,1.49c-.06.33-.1.67-.13,1,0,.06.09.12.14.19s.12-.09.14-.15.11-.32.18-.47c.25-.52.42-1.06.72-1.56a14.11,14.11,0,0,0,.73-1.69c.11-.26.23-.51.36-.76s.3-.57.46-.86c0,0,.09-.06.14-.1s0,.14,0,.19a3.28,3.28,0,0,1-.2.52,19.37,19.37,0,0,0-1.22,2.94c-.19.61-.45,1.19-.67,1.78-.13.37-.07.4.33.57.21.1.24,0,.26-.11A8.31,8.31,0,0,1,19.3,55c.06-.15,0-.45.27-.37s0,.27,0,.41c-.06.44-.12.88-.2,1.32s-.14.58-.19.87,0,.37.29.4a3.47,3.47,0,0,1,.77.19,4.21,4.21,0,0,0,1.22.2c.62,0,.63,0,.8-.54.28-.85.56-1.7.89-2.53s.63-1.48.94-2.22.81-1.73,1.22-2.6c.06-.12.11-.25.18-.37s.08,0,.12,0a.57.57,0,0,1,0,.13c-.35.86-.7,1.71-1.06,2.56s-.76,1.76-1.13,2.64a9,9,0,0,0-.33.86c-.06.21-.06.44-.11.66-.09.43-.2.85-.29,1.28,0,.08,0,.23,0,.23a1.63,1.63,0,0,0,.49,0,.37.37,0,0,0,.19-.23,15.3,15.3,0,0,1,1-2.64c0-.05.07-.08.1-.13s.1.13.09.19c-.08.41-.18.82-.26,1.24a10.57,10.57,0,0,0-.37,1.25c0,.33-.08.33.26.33a.44.44,0,0,0,.2,0,.16.16,0,0,0,.07-.14,1.68,1.68,0,0,1,.1-.79c.31-.72.59-1.46,1-2.15.6-1.13,1.33-2.2,1.85-3.38,0-.06.1-.09.15-.14a1.47,1.47,0,0,1,0,.21,16.73,16.73,0,0,1-.9,2c-.17.44-.45.84-.66,1.28s-.48,1.06-.69,1.61-.28.85-.4,1.29c0,.12,0,.28.19.24s.47-.08.7-.1.37-.08.41-.39a1.43,1.43,0,0,1,0-.29c.26-.77.54-1.54.81-2.31a3.11,3.11,0,0,1,.11-.41c0-.08.13-.13.21-.2a1,1,0,0,1,0,.28c-.11.37-.23.74-.34,1.11a2.88,2.88,0,0,0-.15.63,4.78,4.78,0,0,1-.2,1.13.4.4,0,0,0,.07.34c.15.1.49,0,.51-.16a11.41,11.41,0,0,1,.54-1.48,19.14,19.14,0,0,1,1-2.37,13.51,13.51,0,0,0,1.06-2.36,4.71,4.71,0,0,1,.21-.52.36.36,0,0,1,.11-.1s.06.12,0,.16c-.15.45-.29.91-.48,1.35s-.48,1-.69,1.52-.35,1-.53,1.48-.4,1-.57,1.52a2.7,2.7,0,0,0-.12.69c0,.06.06.12.1.18.31-.2.79-.12.95-.6s.37-1,.56-1.47a9.49,9.49,0,0,0,.79-2.08.71.71,0,0,1,.13-.24s.07-.07.1-.11a1.66,1.66,0,0,1,.06.16.41.41,0,0,1,0,.19c-.18.53-.38,1-.56,1.57,0,.13-.16.31-.11.39.17.28-.05.47-.12.69s-.21.51-.29.78c0,0,.05.2.1.21a.67.67,0,0,0,.69-.41c.14-.61.57-1.09.76-1.68a7.18,7.18,0,0,1,.42-.83c.24-.5.49-1,.72-1.5.14-.3.25-.6.38-.9,0,0,.07,0,.1-.05s0,.06,0,.09a20,20,0,0,1-1.14,3.08c-.23.55-.5,1.09-.74,1.64-.06.13,0,.19.14.16a5.16,5.16,0,0,0,.67-.2s.07-.1.07-.15a1.83,1.83,0,0,1,.43-1.12,8.16,8.16,0,0,0,.74-1.55,3,3,0,0,0,0-.43.17.17,0,0,1,.13-.13s.13.07.14.12a.65.65,0,0,1-.05.27,7.77,7.77,0,0,1-.24,1,5.84,5.84,0,0,1-.71,1.71l-.07.11a.36.36,0,0,0,.14,0,2,2,0,0,0,.5-.11.83.83,0,0,0,.34-.3,12.17,12.17,0,0,1,1.28-2.42,2.64,2.64,0,0,0,.23-.51c.08-.18.15-.37.24-.55s.07-.07.1-.1.07.12,0,.17c-.14.37-.28.75-.44,1.11s-.36.76-.52,1.14-.22.61-.34.91a.94.94,0,0,1-.06.15c.06,0,.14,0,.19,0,.31-.12.61-.29.94-.39a.73.73,0,0,0,.57-.65,7,7,0,0,1,.37-1.15s.08-.07.12-.11.08.1.07.15a4.29,4.29,0,0,1-.12,1.2c-.1.27.09.17.12.15.24-.17.55-.26.65-.59s.16-.47.26-.69c.25-.52.51-1,.77-1.53,0,0,.07,0,.1-.06a.26.26,0,0,1,0,.08,3,3,0,0,1-.08.32c-.14.38-.31.75-.41,1.13,0,.19-.31.31-.16.54.16-.1.32-.19.47-.3l1.54-1a1,1,0,0,0,.27-.28c.19-.28.36-.56.54-.83a.36.36,0,0,1,.1-.07A.47.47,0,0,1,40,52c0,.17-.14.38-.08.5s.29.2.44.31,0,.1,0,.12,0,.25,0,.25c-.37,0-.58.24-.83.42a19.66,19.66,0,0,0-2.36,1.56c-.19.19-.52.27-.64.48s-.51,0-.73.19a1.9,1.9,0,0,1-.38.17c-.27.11-.54.21-.81.33a.67.67,0,0,0-.31.26c-.18.44-.32.9-.51,1.34a.94.94,0,0,0,.11.93,1.1,1.1,0,0,0,.09.14s.09-.08.1-.13c.11-.27.2-.55.31-.82a3.57,3.57,0,0,1,.78-1.18s.11-.05.16-.07a.67.67,0,0,1,0,.2l-.7,1.71a6.54,6.54,0,0,0-.24.75c-.06.2.11.29.22.41a1.53,1.53,0,0,0,.17-.27c.12-.22.21-.45.33-.66s.16-.16.24-.23v.37s0,0,0,0c-.1.29-.2.58-.28.88s-.15.47.08.68a.71.71,0,0,0,.14.1.7.7,0,0,1,0-.14,12.23,12.23,0,0,1,.44-1.42c.25-.58.57-1.13.86-1.69,0-.08.1-.15.15-.23a2.74,2.74,0,0,1,0,.28.32.32,0,0,1,0,.09c-.26.7-.53,1.38-.77,2.08A9.47,9.47,0,0,0,35.66,61a.86.86,0,0,0,.08.41.12.12,0,0,0,.12,0s.09-.06.08-.09c0-.56.39-1,.41-1.53,0-.06.1-.13.17-.17s.13.07.12.1c-.11.53-.23,1.07-.34,1.6-.06.27-.15.54.08.78a.71.71,0,0,0,.14.1.7.7,0,0,1,0-.14A12.76,12.76,0,0,1,37,60.8c.26-.59.42-1.22.74-1.79a11,11,0,0,0,.62-1.69c0-.06.09-.1.14-.14a.85.85,0,0,1,.06.17s0,.08,0,.13c-.27.77-.55,1.54-.81,2.31A11.83,11.83,0,0,0,37.35,61a5.71,5.71,0,0,1-.42,1.48c-.08.16-.08.22,0,.32s.13.15.21.21a1.32,1.32,0,0,0,.2.12c0-.07,0-.14.07-.21s0-.21.08-.32c.12-.54.45-1,.53-1.58,0-.07.16-.13.24-.19a.63.63,0,0,1,0,.27c-.18.75-.38,1.51-.57,2.26a.17.17,0,0,0,0,.1c0,.06.06.15.11.16s.17,0,.2-.13a8.87,8.87,0,0,1,.34-1.25c.33-.93.7-1.85,1.05-2.77.17-.45.36-.89.54-1.33,0,0,.09-.06.14-.09a.36.36,0,0,1,0,.14l-.4,1.14c-.2.58-.42,1.16-.59,1.76-.25.85-.45,1.71-.69,2.57a.44.44,0,0,0,.21.54c.09,0,.21.11.28-.11.28-.81.59-1.62.89-2.43,0-.11.1-.22.15-.33a1,1,0,0,1,0,.38c-.08.42-.18.82-.29,1.23s-.24.93-.41,1.38c-.07.2-.08.31.09.45a1.9,1.9,0,0,0,.65.47,1.71,1.71,0,0,1,.43.29c.05-.18.09-.36.14-.55,0,0,0-.07,0-.09.21-.55.42-1.1.64-1.64,0-.05.07-.07.1-.11s.07.11.06.16c-.12.55-.26,1.09-.36,1.65-.05.31-.29.63,0,.94a.55.55,0,0,0,.19.14.82.82,0,0,0,.11-.17c.06-.15.1-.3.15-.44.29-.8.62-1.58.87-2.39a18.2,18.2,0,0,0,.77-2.14c0-.05.11-.09.16-.14a.62.62,0,0,1,0,.18c-.06.23-.12.45-.2.67-.19.59-.42,1.17-.59,1.76-.26.86-.47,1.74-.71,2.61-.07.24,0,.41.19.45a3.13,3.13,0,0,1,.85.39,2.51,2.51,0,0,0,.56.22c.34.1.68.2,1,.28s.53.08.8.12c.11,0,.16,0,.18-.15,0-.34.12-.68.2-1s.19-.92.3-1.37.18-.66.28-1c0-.07.11-.11.17-.17s.06.17,0,.23a6.82,6.82,0,0,0-.3,1.73,2.13,2.13,0,0,1-.12.8,1.62,1.62,0,0,0-.06.92c.06.42.46.17.7.22s.38,0,.38-.25a8.35,8.35,0,0,1,.55-2.13c.24-.84.57-1.66.86-2.49.1-.31.19-.62.3-.93a.85.85,0,0,1,.14-.19l.06.25a.34.34,0,0,1,0,.1c-.13.35-.29.68-.39,1-.29,1.14-.73,2.25-.91,3.43,0,.31-.13.61-.19.92,0,.15,0,.29.22.26a4.28,4.28,0,0,1,.8,0c.23,0,.19-.14.17-.26s-.11-.28-.08-.4c.13-.63.29-1.25.46-1.86,0-.16,0-.38.27-.39,0,.13,0,.25,0,.38a9.28,9.28,0,0,1-.11,1.06A4.57,4.57,0,0,0,49,67.34c0,.09-.09.25.13.25s.32,0,.37-.23.16-.59.26-.89c.17-.5.31-1,.45-1.52s.38-1.07.58-1.61.34-.86.51-1.28c0-.07.07-.12.1-.18s.11.17.09.23-.22.38-.29.58c-.31,1-.61,2-.9,3.08A11.72,11.72,0,0,1,50,67.2c-.06.16,0,.32.24.29s.75,0,1.11-.12c.19,0,.44-.12.46-.43a6.55,6.55,0,0,1,.39-1.74c.09-.28.2-.55.3-.82,0,0,.09-.07.14-.1a.7.7,0,0,1,.06.17c0,.1-.08.2-.1.31-.1.47-.21.95-.3,1.42,0,.29-.07.58-.1.86s.05.18.18.12l.22-.08a6.55,6.55,0,0,0,2.33-.89c.16-.13.26-.24.09-.44a3.25,3.25,0,0,1-.31-.42c-.05-.07.08-.27-.13-.23,0,0,0,.19-.08.29q-.16.45-.36.9s-.14.08-.2.07-.11-.12-.09-.16a3.22,3.22,0,0,1,.28-.69.78.78,0,0,0-.05-1.1,4.89,4.89,0,0,1-1-2.25c0-.28.1-.33.25-.37s.25.07.27.25a5.13,5.13,0,0,0,.72,1.7c0,.07.13.1.19.14a1.11,1.11,0,0,0,.09-.19,3.28,3.28,0,0,1,.11-.45,13.63,13.63,0,0,0,.59-1.66.39.39,0,0,1,.08-.1s.11.07.12.11a1,1,0,0,1,0,.3c-.09.36-.18.72-.3,1.07s-.1.89-.44,1.22a.09.09,0,0,0,0,.1,4,4,0,0,0,.35.46c.09.09.17.08.19-.08a5,5,0,0,1,.13-.65c.44-1.35,1-2.67,1.37-4,0,0,0-.07,0-.08a.1.1,0,0,1,.09,0,.14.14,0,0,1,0,.09,3.55,3.55,0,0,1-.06.47,2.36,2.36,0,0,1-.1.46c-.09.26-.21.52-.29.78s-.14.51-.21.77-.06.34-.1.51a2.37,2.37,0,0,1-.09.36c-.17.66-.34,1.33-.5,2a.4.4,0,0,0,0,.24s.09.08.13.12a.65.65,0,0,0,0-.13A8.07,8.07,0,0,1,56,64.43c.29-.88.5-1.79.84-2.66,0-.1.11-.19.16-.29a2.21,2.21,0,0,1,.08.35c0,.05-.05.11-.06.17-.15.52-.3,1-.43,1.57s-.28,1.16-.38,1.75a1.17,1.17,0,0,0,.06.9c.16.24.34.46.51.69a.41.41,0,0,0,.11.07s.09-.08.09-.13a10.53,10.53,0,0,1,.47-2.16c.26-1,.6-2,.94-3.06.09-.25,0-.57.3-.7,0,.27.1.63,0,.79-.29.32-.25.71-.37,1.05a6.29,6.29,0,0,0-.3.93c-.09.52-.13,1-.21,1.57A13.1,13.1,0,0,1,57.45,67a.65.65,0,0,0,.25.83l.14.09a1.11,1.11,0,0,0,0-.19,7.79,7.79,0,0,1,0-.84,11.27,11.27,0,0,1,.29-1.28c.15-.51.32-1,.5-1.49,0-.08.17-.11.26-.17a2.27,2.27,0,0,0-.06.25,1.92,1.92,0,0,1-.11.55,3.83,3.83,0,0,0-.28,1.29,11.88,11.88,0,0,0-.12,1.35,5,5,0,0,1-.2.62s0,.14,0,.17a1.81,1.81,0,0,0,.27.18c.28.18.54.37.83.53a5.11,5.11,0,0,0,.8.35c.25.08.34,0,.29-.26a2.25,2.25,0,0,1-.08-.62,10,10,0,0,1,.2-1.22c.09-.39.2-.78.32-1.16,0-.09.16-.15.24-.22,0,.1,0,.19,0,.29a1,1,0,0,1,0,.34,8.72,8.72,0,0,0-.29,2,2.39,2.39,0,0,1-.1,1l.9.22s0,0,0,0c.49.14,1,.29,1.48.41.12,0,.24,0,.09-.16s0-.19,0-.29c.06-.31.12-.61.2-.92l.6-2.35c0-.06.1-.11.16-.17s.05.13,0,.18c-.11.71-.24,1.41-.35,2.11-.06.41-.11.83-.15,1.24a.77.77,0,0,0,0,.43c0,.06.24,0,.37,0s0,0,.08,0c.4,0,.79.13,1.19.15.22,0,.44-.08.66-.09.43,0,.87,0,1.3,0s.63-.07.76-.59c0-.11,0-.22.06-.32l.54-2.28c.16-.65.32-1.3.49-1.95s.33-1.3.52-1.94c.11-.4.26-.79.4-1.18a.33.33,0,0,1,.07-.13.36.36,0,0,1,0,.14.85.85,0,0,1,0,.23c-.08.29-.18.57-.25.85-.23.86-.48,1.71-.66,2.58a9.32,9.32,0,0,0-.36,2.11A7.28,7.28,0,0,1,68.7,69c-.07.38-.13.75-.22,1.12,0,0,.12.13.13.13.2-.18.44-.07.66-.09.41,0,.55-.14.67-.52s.29-.91.43-1.37.2-.69.31-1c0-.07.09-.12.14-.19s.06.13.05.18c-.07.44-.14.87-.23,1.31s-.18.72-.26,1.09c0,.14,0,.25.19.23a.79.79,0,0,0,.7-.57c.19-.69.41-1.37.58-2.06.27-1,.59-2.06.89-3.09A4.84,4.84,0,0,1,73,63.7c0,.15,0,.3-.07.45s0,.22,0,.33c-.18.69-.4,1.38-.55,2.07-.19.91-.34,1.83-.5,2.75,0,.21.08.27.3.19a4.84,4.84,0,0,1,.72-.2c.21,0,.27-.12.28-.32a6.59,6.59,0,0,1,.1-.76,7.1,7.1,0,0,1,.2-.76c.2-.65.41-1.3.63-1.94,0-.05.07-.08.1-.11s.06.09.06.14a1,1,0,0,1,0,.3l-.39,1.58a4.22,4.22,0,0,0-.21,1.22,1,1,0,0,1,0,.24,2.14,2.14,0,0,0,.27-.06,2.07,2.07,0,0,1,.51-.22c.21,0,.26-.13.28-.32,0-.52.22-1,.32-1.53.22-1.07.57-2.12.88-3.18.12-.42.26-.82.4-1.24a.42.42,0,0,1,.07-.13.61.61,0,0,1,0,.13A5.06,5.06,0,0,1,76,63.72c-.13.46-.31.91-.4,1.38-.14.7-.21,1.41-.31,2.12,0,.27-.07.54-.1.81a.7.7,0,0,0,0,.14l.11-.07c.22-.14.46-.26.68-.42s.48-.26.54-.6A16.52,16.52,0,0,0,77,65.37c0-.07.09-.12.14-.18a.61.61,0,0,1,.05.18c-.05.48-.12.95-.16,1.43a.55.55,0,0,0,.07.24.91.91,0,0,0,.17-.09,1,1,0,0,0,.41-.93,10.84,10.84,0,0,1,.38-2c.15-.71.35-1.42.53-2.13.13-.49.26-1,.41-1.48,0,0,.09-.05.14-.08s.06.09.05.13c-.06.31-.13.61-.2.92s-.11.62-.2.91a6.48,6.48,0,0,0-.41,2,6.1,6.1,0,0,1-.13.84c0,.34,0,.69-.06,1,0,0,.06.06.1.08a.08.08,0,0,0,.08,0c.21-.38.61-.52.93-.77.49-.39,1.11-.69,1.17-1.43s.4-1.22.43-1.87a6,6,0,0,1,.24-1.1A9.69,9.69,0,0,0,81.59,59s.06-.09.09-.13.1.08.1.12c0,.29-.06.57-.1.86s-.1.62-.16.93a11.13,11.13,0,0,0-.23,1.26A9,9,0,0,1,81,63.59,1.58,1.58,0,0,0,81,64s.08.07.09.06c.3-.29.61-.57.88-.88s.66-.86,1-1.29a2.79,2.79,0,0,0,.42-.57,7.79,7.79,0,0,1,.5-.95c.19-.3.4-.58.23-1a.68.68,0,0,1,0-.48c.18-.5.39-1,.59-1.5A2.32,2.32,0,0,1,85,57s.17-.09.19-.07a.31.31,0,0,1,.13.23c0,.13-.15.25-.16.38,0,.31-.41.57-.13.92a.78.78,0,0,1,.08.23,1.87,1.87,0,0,0,.12-.25c0-.1,0-.2,0-.3s0-.2.1-.22a.21.21,0,0,1,.29.17c0,.17.06.36-.12.51a.82.82,0,0,0-.17.32c-.13.27-.23.54-.37.8-.37.71-.74,1.43-1.14,2.13a7.59,7.59,0,0,1-.7,1c-.4.47-.84.92-1.27,1.37-.16.16-.19.3,0,.45l.67.57c.18.14.33.08.42-.12.2-.47.41-.93.63-1.39,0-.05.09-.08.13-.11s0,.1,0,.14l-.21.91c-.06.26-.13.51-.18.77s.17.22.28.25.1-.11.12-.19c.09-.48.18-1,.3-1.43a1.29,1.29,0,0,1,.22-.37,1.46,1.46,0,0,1,.07.4c0,.31-.15.61-.19.92a2.1,2.1,0,0,0,0,.75c0,.13.22.24.36.32s.2-.11.22-.19c.21-.87.4-1.74.61-2.6s.46-1.84.7-2.76a.28.28,0,0,1,.08-.11c0,.06.07.12.06.17-.08.44-.15.87-.25,1.31-.22,1.07-.47,2.14-.69,3.21a5.43,5.43,0,0,0-.1.81c0,.17,0,.34.21.37s.25-.1.29-.29c.11-.52.26-1,.4-1.54s.17-.73.27-1.09a.78.78,0,0,1,.1-.15s.11.09.12.15a.68.68,0,0,1,0,.23c-.08.48-.17,1-.24,1.44a4.56,4.56,0,0,1-.13,1c-.1.24,0,.29.13.35a4.59,4.59,0,0,0,.51.1c.16,0,.16-.06.2-.19.1-.35,0-.72.17-1.07a9,9,0,0,0,.22-1.17c.12-.6.25-1.19.37-1.79s.21-1,.33-1.57c.08-.35.18-.69.28-1,0,0,.06-.09.1-.14a.62.62,0,0,1,0,.19c-.1.46-.21.92-.3,1.38-.12.62-.2,1.25-.32,1.87s-.27,1.22-.38,1.84c0,.26,0,.54,0,.8s0,.51,0,.77,0,.26.2.23a.63.63,0,0,1,.19,0c.32.1.39,0,.41-.29A12.46,12.46,0,0,1,88.3,65c.1-.61.25-1.22.39-1.83.07-.29.16-.57.24-.85,0,0,.07-.07.11-.11s0,.09,0,.13c0,.23,0,.47-.1.71a7.65,7.65,0,0,0-.3,2.12c0,.17,0,.37,0,.49a1.46,1.46,0,0,0-.07.77c0,.15,0,.36.25.38s.44,0,.54-.29c.23-.76.45-1.52.61-2.3s.34-1.39.52-2.09c0-.21.11-.42.17-.62,0,0,.09-.07.14-.1a1,1,0,0,1,0,.16c0,.09-.07.17-.09.26A6.91,6.91,0,0,1,90.58,63a10,10,0,0,0-.37,1.69c-.13.63-.23,1.27-.39,1.89a.31.31,0,0,0,0,.17c.15.21.37.1.56.11s.18-.13.21-.28c.08-.61.17-1.22.3-1.83a5.6,5.6,0,0,1,.3-.87s.1-.07.15-.11a1,1,0,0,1,0,.17c0,.3-.13.59-.17.88-.06.55-.1,1.1-.15,1.64,0,.18.11.48.22.5a1,1,0,0,0,.63-.32c.17-.48.36-1,.5-1.44a14.45,14.45,0,0,0,.5-2A.81.81,0,0,1,93,63a.56.56,0,0,1,.05-.08s0,0,0,.06a3,3,0,0,1,0,.6c-.11.51-.25,1-.38,1.54s-.19.85-.3,1.28-.08.41.28.41.43,0,.52-.37.2-.89.3-1.33.2-.82.31-1.22c0-.07.1-.11.15-.17a.43.43,0,0,1,0,.19c0,.23-.06.47-.1.7-.06.43-.14.85-.19,1.27a4.69,4.69,0,0,0,0,.75s.07,0,.11,0a2,2,0,0,0,.24,0,.43.43,0,0,0,.45-.45,2.41,2.41,0,0,1,.07-.37c.07-.35.14-.71.23-1.06a7,7,0,0,0,.28-1.07c0-.53.32-1,.33-1.53a4,4,0,0,1,.28-1,.65.65,0,0,0,0-.13s.07.11.06.15a5,5,0,0,1-.1.56,7.32,7.32,0,0,1-.24,1.35,10.88,10.88,0,0,0-.35,1.86C95,65.27,95,65.65,95,66a2.05,2.05,0,0,1-.07.34l.34-.1a1.36,1.36,0,0,0,.21-.1c.14-.08.25-.15.23-.35a2.27,2.27,0,0,1,0-.69c.11-.52.24-1,.38-1.55a2.44,2.44,0,0,1,.25-.48,1.52,1.52,0,0,1,0,.56,15.32,15.32,0,0,0-.26,1.89c0,.21.05.34.29.35s.46-.09.51-.29c.12-.56.24-1.11.32-1.67.1-.76.31-1.51.48-2.25.07-.34.16-.67.25-1a1.14,1.14,0,0,1,.1-.19.47.47,0,0,1,0,.23c-.09.46-.21.91-.29,1.38s-.1,1.08-.22,1.61-.12,1.05-.18,1.57,0,.41.41.24a2.23,2.23,0,0,1,.44-.13c.17,0,.1,0,.06-.16a2.09,2.09,0,0,1-.1-.75,6,6,0,0,1,.19-.92c.09-.42.19-.85.3-1.27a1.13,1.13,0,0,1,.13-.2.76.76,0,0,1,.06.2,1.34,1.34,0,0,1,0,.4,8.25,8.25,0,0,0-.2,1.72c0,.22,0,.45,0,.68a.15.15,0,0,0,0,.13c.16.12.07-.06.11-.09a1.67,1.67,0,0,1,.35-.24c.18-.08.5-.06.15-.37a.31.31,0,0,1,0-.28c.31-.15.17-.44.24-.66.18-.61.31-1.24.46-1.86s.28-1.35.43-2,.38-1.52.57-2.27c0-.15.09-.3.14-.44.13.16,0,.3,0,.46a2,2,0,0,0-.07.43c-.11.54-.22,1.07-.34,1.61s-.23.81-.28,1.23A24.37,24.37,0,0,0,100,63.3a1.92,1.92,0,0,1-.24,1.09s0,.12,0,.17.13,0,.17,0a7.6,7.6,0,0,1,.64-.63c.34-.27.34-.26.43-.64.2-.81.42-1.62.64-2.43,0-.1.13-.24.18-.24.21,0,.12.22.1.31-.11.57-.25,1.13-.36,1.7a5.68,5.68,0,0,0,0,.59s.07.06.07.06c.15-.13.38-.25.41-.41.2-.86.3-1.75.53-2.59s.47-1.94.69-2.92c0-.06.08-.1.12-.15a.58.58,0,0,1,0,.18c0,.06,0,.12-.06.18a16.57,16.57,0,0,1-.31,1.87A10.49,10.49,0,0,0,102.6,62c0,.14,0,.29,0,.43.12-.1.26-.18.38-.29a1.83,1.83,0,0,0,.56-.92,6,6,0,0,1,.38-1.54,3.58,3.58,0,0,0,.22-.81,1.91,1.91,0,0,1,.09-.33c.25,0,0,.24.11.36a.22.22,0,0,1,0,.14l-.3,1.53s0,.11.07.16a.64.64,0,0,0,.13-.1c.21-.33.42-.66.64-1,.09-.13.21-.17.31,0,.21.35.55.31.88.3s.34,0,.38-.36c0-.56.1-1.12.2-1.67s.27-1.09.39-1.64c.08-.37.13-.74.21-1.11,0-.05.07-.09.1-.13s.09.1.09.14c0,.24-.09.48-.09.71,0,.57-.22,1.1-.24,1.67s-.18,1-.17,1.57c0,.11,0,.23,0,.35s0,.34.13.37.43,0,.47-.22c.11-.44.22-.88.3-1.32a8.28,8.28,0,0,0,.31-1.48,2.85,2.85,0,0,1,.11-.65c.19-.76.38-1.51.59-2.26a5.29,5.29,0,0,1,.49-1.55.25.25,0,0,0,0-.13c0,.06.06.13.05.18-.14.57-.3,1.14-.44,1.72s-.24,1.07-.36,1.6c-.07.32-.14.64-.19,1a4.69,4.69,0,0,0-.19,1.21c0,.58-.15,1.12-.13,1.68,0,.08-.13.17.06.15s.63-.08.94-.14c.15,0,.43-.06.13-.33-.07-.06,0-.3.06-.46a9.68,9.68,0,0,0,.33-1.51,2.83,2.83,0,0,1,.1-.71c0-.1.15-.17.23-.25a.82.82,0,0,1,.06.26c-.06.51-.12,1-.2,1.52s-.13.75-.2,1.12a2.93,2.93,0,0,1,0,.29,3.13,3.13,0,0,0,.3-.2s0-.12.05-.18c.13-.51.27-1,.38-1.54s.22-1.08.33-1.62.2-1,.31-1.52a4.17,4.17,0,0,1,.19-.44c.26.16-.13.29,0,.45a.28.28,0,0,1,0,.2,17.53,17.53,0,0,0-.4,2.39c-.06.4-.13.81-.19,1.21s-.06.51-.11.76.1.22.24.19a1.34,1.34,0,0,0,.26-.09,8.92,8.92,0,0,0,1.84-.76c.32-.19.43-.42.26-.7s0-.4.11-.58a10.37,10.37,0,0,0,.37-1.2,9.55,9.55,0,0,0,.34-1.77,4.08,4.08,0,0,1,.19-1,.78.78,0,0,1,0-.14c0,.05,0,.09,0,.13a7.46,7.46,0,0,0-.1.81,9.17,9.17,0,0,1-.2,2,3,3,0,0,1-.56,1.67s0,.14,0,.2.13,0,.18,0a4.19,4.19,0,0,1,1.13-.89c.17-.11.15-.14,0-.24s-.13-.37-.07-.58c.12-.43.23-.87.35-1.3.07-.26.14-.51.22-.76,0,0,.09-.09.14-.13s0,.09,0,.14v.15a12.33,12.33,0,0,1-.36,2c0,.16,0,.23.09.27s.17,0,.23-.08a.41.41,0,0,0,.14-.2,5.08,5.08,0,0,0,.19-.86c.06-.75.38-1.43.44-2.18a14.24,14.24,0,0,1,.47-1.9c.12-.54.2-1.09.31-1.63,0-.08.1-.14.15-.21a.67.67,0,0,1,0,.24,7.92,7.92,0,0,0-.19,1,8.18,8.18,0,0,1-.31,1.47c-.08.39-.15.78-.2,1.17-.08.62-.12,1.25-.21,1.87,0,.12-.2.26,0,.36s.24-.14.33-.24a1.81,1.81,0,0,0,.39-.54,11.85,11.85,0,0,0,.31-1.17c.1-.43.19-.86.31-1.28,0-.1.14-.17.22-.26a.71.71,0,0,1,.06.31c0,.17-.1.33-.13.49a8.46,8.46,0,0,0-.15,1c0,.06.08.13.12.2s.07-.12.11-.17a2.66,2.66,0,0,1,.28-.38c.19-.19.3-.32-.05-.44-.11,0-.12-.19,0-.19.33,0,.32-.21.31-.44a1,1,0,0,1,0-.3,12.47,12.47,0,0,0,.5-2.09,3.64,3.64,0,0,1,.19-.72.51.51,0,0,1,.07-.15.7.7,0,0,1,0,.14c0,.32-.05.64-.1,1s-.14.71-.19,1.07-.08.73-.11,1.1c0,0,0,.07,0,.1s.09,0,.11-.06c.31-.44.65-.86.91-1.32.42-.74.78-1.51,1.16-2.27.15-.29.14-.42-.2-.46a7,7,0,0,1-1.2-.37,3.58,3.58,0,0,1-1.63-.78.67.67,0,0,0-.2-.12.89.89,0,0,1-.62-.8M33.45,57.43c.18-.26.37-.51.55-.76a.22.22,0,0,0,0-.13s0,0-.06,0c-.3.14-.61.27-.91.42a.18.18,0,0,0-.06.17,3.7,3.7,0,0,0,.24.54.61.61,0,0,0,.12.16c0-.09.05-.17.08-.35M1.07,40C.93,39.79.91,39.9.92,40s0,.22.09.22.08-.15.06-.29M92.64,10.34l0,0s0,0,0,0l.28,0s.06,0,.08-.07l-.13,0h-.2m-2.9-.3h-.09l-.15.06a.56.56,0,0,0,.12,0c.06,0,.11,0,.12-.1m15,8-.1.05s.07,0,.1-.05m30.68,23.46,0-.16h-.06a.19.19,0,0,0,0,.17M85.89,10.19l-.16,0,0,.06a.24.24,0,0,0,.18,0M80.18,19.7l-.1.05s.07,0,.1-.05M96,11.19l-.16,0v.06a.22.22,0,0,0,.17,0M106.6,21l-.06,0s0,.06.06,0m2.4,9.81.06,0S109.06,30.79,109,30.81ZM49.78,26.88c-.4.7-.79,1.37-1.15,2.06-.17.34-.26.72-.4,1.08-.19.51-.4,1-.59,1.51-.08.22-.11.45-.19.67a.4.4,0,0,1-.18.25.38.38,0,0,1-.43-.16c-.11-.11-.05-.16,0-.28.19-.45.34-.93.52-1.39s.29-.68.4-1a11.78,11.78,0,0,1,1.34-2.65A13.28,13.28,0,0,1,50,25.6c.2-.24.39-.48.61-.7a1.71,1.71,0,0,0,.35-.56c.22-.47.45-.95.71-1.4s.61-1,.93-1.52c.12-.19.29-.35.41-.53s.19-.39.29-.58a2.07,2.07,0,0,1,.17-.24c0,.11.06.24,0,.33-.21.4-.45.78-.66,1.18a11.36,11.36,0,0,0-1,1.87l-.07.12c-.06.13-.12.25-.17.38.2.06.28-.12.41-.21.3-.21.6-.39.91-.59.07,0,.2-.1.21-.16a5.87,5.87,0,0,1,.71-1.62l.1-.2.17-.41a1.63,1.63,0,0,1,0,.49c-.11.38-.26.75-.39,1.13,0,.11,0,.23-.07.35l.28-.14c.09-.05.2-.08.29-.14a.76.76,0,0,0,.2-.24,12.73,12.73,0,0,1,1.15-2.27c.32-.49.57-1,.85-1.55s.6-1.05.89-1.59c.11-.2.16-.43.26-.64,0-.06.13-.08.19-.12a.53.53,0,0,1,0,.18c-.23.51-.45,1-.7,1.51-.36.72-.73,1.44-1.1,2.15-.14.27-.34.52-.47.8A12,12,0,0,0,54.87,22c-.07.19,0,.21.25.18.77-.09,1.5-.37,2.28-.42.16,0,.36-.22.46-.38.45-.74.87-1.5,1.31-2.26,0-.05.12-.07.18-.11s0,.14,0,.19c-.23.48-.47,1-.72,1.45-.17.33-.38.64-.56,1,0,0,0,.15.05.15.37,0,.74.08,1.11.1,0,0,.11-.09.12-.14a7.63,7.63,0,0,1,1-2.13l.14-.11a.68.68,0,0,1,0,.19.63.63,0,0,1-.1.31c-.4.48-.41,1.13-.69,1.66,0,.08-.06.25.15.23a.47.47,0,0,1,.23,0c.46.13.57.07.72-.35a4.73,4.73,0,0,1,.2-.47c.27-.63.55-1.27.83-1.9a1,1,0,0,1,.18-.28.71.71,0,0,1,.17-.11.88.88,0,0,1,0,.23c-.38.92-.75,1.83-1.14,2.74-.1.21,0,.28.15.34l.31.11c.27.09.26.09.3-.21a2.36,2.36,0,0,1,.18-.57c.26-.51.54-1,.82-1.51,0,0,.11-.07.11-.06s.09.11.08.15a3.69,3.69,0,0,1-.19.56c-.2.46-.41.9-.61,1.35s-.14.43.27.54.83.25,1.24.4.42.11.6-.16.34-.55.5-.84c.47-.89.94-1.78,1.42-2.66a2.36,2.36,0,0,1,.35-.43c.11.22-.07.35-.15.51-.4.81-.84,1.59-1.18,2.42-.2.47-.41.93-.65,1.38s.19.22.26.36.22.09.26-.14a3.31,3.31,0,0,1,.71-1.3c0-.07.15-.09.23-.14a.63.63,0,0,1,0,.27c-.15.44-.32.87-.49,1.3a.68.68,0,0,0-.07.27.32.32,0,0,0,.13.23c.05,0,.16,0,.23-.1a.53.53,0,0,0,.13-.19c.37-.7.75-1.39,1.1-2.1s.73-1.53,1.11-2.29c.1-.21.23-.4.35-.6,0,0,.07-.05.11-.08s0,.1,0,.14c-.1.24-.21.48-.32.72-.22.5-.44,1-.68,1.51-.13.28-.31.54-.45.82s-.16.43-.25.65c-.24.58-.49,1.16-.74,1.74a.4.4,0,0,0,.21.51.22.22,0,0,0,.13-.09c.34-.68.67-1.36,1-2a.33.33,0,0,1,.09-.11,1.09,1.09,0,0,1,.17-.05.33.33,0,0,1,0,.17,7.47,7.47,0,0,0-.38,1A6.7,6.7,0,0,1,67,25.09c0,.05.05.18.11.24s.28.21.42.32c0-.14.09-.29.15-.43.23-.56.45-1.12.71-1.66.62-1.34,1.26-2.68,1.89-4,0,0,0,0,0-.05s.16-.23.25-.34a.42.42,0,0,1,0,.44c-.31.52-.5,1.1-.8,1.62a13,13,0,0,0-1,2.19c-.24.69-.43,1.4-.63,2.1a2,2,0,0,1-.1.21c-.22.48,0,.87.27,1.25,0,0,.09.08.1.07s.12-.09.13-.14a7.65,7.65,0,0,1,.9-2.28c.06-.14.08-.3.15-.44s.12-.08.19-.12a.46.46,0,0,1,0,.2c0,.15-.1.29-.14.44-.11.39-.2.78-.31,1.17s-.2.78-.33,1.16c0,.1-.06.29-.29.25s-.25.09-.07.25a.79.79,0,0,1,.28.38c0,.23.17.18.28.13a.18.18,0,0,0,.1-.28.55.55,0,0,1,0-.4c.34-.92.68-1.85,1.06-2.76.23-.55.52-1.08.78-1.62.41-.84.81-1.67,1.21-2.51a2.55,2.55,0,0,1,.13-.29s.09,0,.13,0,0,0,0,.08a.32.32,0,0,1,0,.09c-.27.57-.55,1.14-.81,1.71-.39.84-.81,1.67-1.13,2.54s-.56,1.84-.82,2.76a.3.3,0,0,0,0,.18l.1-.07a5.37,5.37,0,0,1,2.1-1.1,1,1,0,0,0,.66-.55c.42-.95.79-1.91,1.25-2.83a7,7,0,0,1,.75-1.5.43.43,0,0,0,.1-.25c0-.11,0-.22.15-.17s.07.15,0,.22-.18.39-.26.59c-.33.79-.67,1.59-1,2.39-.14.37-.23.77-.34,1.16A.9.9,0,0,1,73,26l-.12.05a.35.35,0,0,0,.13.05,1.56,1.56,0,0,1,.5-.09c.53.12.68-.29.86-.62a3.51,3.51,0,0,0,.51-1.13c0-.05.11-.09.17-.14s.13.18.11.24a4.94,4.94,0,0,1-.38,1.35s-.11.19.15.13.43-.4.54-.64c.28-.65.46-1.34.8-2,.21-.38.34-.79.52-1.19a.47.47,0,0,1,.14-.14.33.33,0,0,1,.1,0,.17.17,0,0,1,0,.1c-.08.22-.17.43-.24.65-.17.53-.34,1.06-.5,1.6-.12.38-.22.77-.35,1.15s-.09.4.26.4.55,0,.69-.45a8.1,8.1,0,0,1,.68-1.57.78.78,0,0,1,.1-.15c0,.07.12.14.11.2a4,4,0,0,1-.16.68c-.1.35-.21.68-.31,1a1.36,1.36,0,0,0,0,.2c0,.17.11.15.19.21s.18-.05.2-.09A8.29,8.29,0,0,0,78,25a4.4,4.4,0,0,1,.8-1.51s.07,0,.1-.06.06.1.05.14c-.05.23-.1.46-.17.68-.18.53-.39,1-.56,1.57-.1.29,0,.4.3.46a1,1,0,0,1,.18.05c.24.19.3,0,.37-.18.23-.44.43-.89.65-1.33,0-.05.13-.11.17-.09s0,.11,0,.2a6.24,6.24,0,0,1-.44,1.53c-.12.24.16.65.42.61.06,0,.12-.12.15-.19.32-.71.64-1.41,1-2.11a.86.86,0,0,1,.1-.16l.27-.32c0,.14,0,.27-.07.4a10.34,10.34,0,0,1-.56,1.62,7,7,0,0,0-.32,1c0,.06,0,.15.08.21s.23.24.35.35.26.13.35-.09a4.66,4.66,0,0,1,.25-.5.25.25,0,0,1,.23-.06.27.27,0,0,1,.09.23,4.91,4.91,0,0,1-.17.63.72.72,0,0,0,.34,1s.14,0,.16-.08c.14-.29.27-.59.4-.89.24-.5.47-1,.71-1.51,0-.07.13-.17.17-.16s.06.15,0,.25a11.41,11.41,0,0,1-.91,2.53c-.13.24-.19.48.06.69a1.56,1.56,0,0,1,.16.2c0-.09,0-.17.08-.25s.13-.32.21-.47a.25.25,0,0,1,.18-.08.2.2,0,0,1,.11.16,9.4,9.4,0,0,1-.2.92c0,.15-.1.27,0,.42a2.83,2.83,0,0,1,.11.31,2.49,2.49,0,0,0,.15.28c0-.09.09-.19.15-.28a19.29,19.29,0,0,0,.9-2,1,1,0,0,1,.15-.29.67.67,0,0,1,.21-.09,1.52,1.52,0,0,1,0,.21c-.18.64-.34,1.29-.54,1.93-.1.31-.16.7-.6.76a.18.18,0,0,0-.09.13,1.27,1.27,0,0,0,0,.34c0,.23.12.46.17.68,0,0,0,.1,0,.13s.16.19.26.2.13-.14.19-.22.25-.26-.07-.26-.14-.19-.11-.25a1.83,1.83,0,0,1,.31-.42c.12-.14.26-.27.28.07,0,0,0,.06.07.1s.1-.07.12-.11c.14-.26.27-.53.41-.78,0-.05.08-.08.12-.11s.09.14.07.19c-.17.47-.35.93-.53,1.39,0,.08-.1.15-.13.24a.25.25,0,0,0,0,.16,2.45,2.45,0,0,0,.54,0c.08,0,.15-.14.21-.22s.16-.24.24-.35.11-.1.14-.09a.21.21,0,0,1,.12.14.53.53,0,0,1,0,.25c-.07.38-.07.36.31.38a6.27,6.27,0,0,1,1.71.35c.63.22,1.28.38,1.93.55a3.92,3.92,0,0,1,1.66.69,15.49,15.49,0,0,0,1.37.91,7,7,0,0,1,1.64,1.62c.36.51.76,1,1.14,1.48a3.64,3.64,0,0,1,.35.45,14.64,14.64,0,0,1,1.14,2.23c.14.43.31.85.45,1.27a.18.18,0,0,1,0,.13,2.15,2.15,0,0,1-.55.11c-.08,0-.19-.15-.22-.25a9.18,9.18,0,0,0-.32-1.17,12.79,12.79,0,0,0-.84-1.65,16.75,16.75,0,0,0-1-1.4c-.28-.37-.56-.74-.87-1.09s-.69-.68-1-1a11.89,11.89,0,0,0-1.68-1.15,4.94,4.94,0,0,0-1.53-.65c-.63-.19-1.26-.34-1.9-.5a8,8,0,0,0-1.27-.29c-.7-.07-1.41-.08-2.11-.11-.25,0-.49-.06-.51.34,0,.21-.4.22-.57,0s-.18-.21-.43-.17a9.64,9.64,0,0,0-2.83.8,10.76,10.76,0,0,1-1.1.48,5.26,5.26,0,0,0-1.66,1.17c-.79.72-1.59,1.43-2.36,2.17a9.66,9.66,0,0,0-1.44,1.85,6.37,6.37,0,0,0-.21.66.78.78,0,0,1-.28.36c-.06,0-.22-.08-.32-.15s-.09-.22,0-.38a6.68,6.68,0,0,1,.83-1.56c.24-.3.49-.6.74-.89a7.17,7.17,0,0,1,1.36-1.28c.14-.09.2-.29.33-.4.72-.64,1.44-1.27,2.18-1.87a3.06,3.06,0,0,1,.75-.36c.44-.18.9-.33,1.32-.54A7.88,7.88,0,0,1,82,33.36a5.09,5.09,0,0,1,.82-.19c.21,0,.27-.08.23-.26a9.77,9.77,0,0,0-.32-1.32,6.37,6.37,0,0,0-1.05-1.77c-.41-.47-.75-1-1.18-1.45a7.55,7.55,0,0,0-3.61-2,1,1,0,0,0-.25,0,9.22,9.22,0,0,0-2.62.2,6.27,6.27,0,0,1-.77.08,7.65,7.65,0,0,0-2.94,1.23c-.44.29-.82.67-1.24,1a2.07,2.07,0,0,1-.38.28c-.17.07-.26-.08-.38-.17s0-.2,0-.23.05-.34,0-.46a16.57,16.57,0,0,0-1.58-2.4c-.23-.24-.38-.56-.62-.79A5.84,5.84,0,0,0,65,24.18a8.49,8.49,0,0,0-2-1c-.7-.19-1.38-.46-2.08-.65a5.58,5.58,0,0,0-1-.11c-.68-.05-1.36-.13-2-.14a5.91,5.91,0,0,0-1.25.14,11.23,11.23,0,0,0-1.82.44,18.08,18.08,0,0,0-1.82.9,10.92,10.92,0,0,0-2.19,1.76c-.42.38-.61.9-1,1.33m31.8,2.22s-.06,0-.1-.1a1.72,1.72,0,0,1-.2-.3.76.76,0,0,0-.11-.14s0,0-.08,0l.11.13s.06,0,.08.08a1.42,1.42,0,0,1,.2.3,2843326639528.59,2843326639528.59,0,0,0,.2.2.19.19,0,0,1,.1.1h.1a.18.18,0,0,1-.1-.11s-.06,0-.1-.1-.06,0-.1-.1m15,11.61h.1a.27.27,0,0,1-.1-.11l0-.12-.07,0a.77.77,0,0,1,.09.2m-4.4-5.3H92.1a.21.21,0,0,1,.09.11l.24.15,0-.06a1,1,0,0,1-.29-.19M81.83,33.66l-.39.1a.12.12,0,0,0,0,.12s.08.08.08.07c.15-.1.38-.09.36-.29m4.21-.3,0,0a.06.06,0,0,0,0,0l.13,0,.43,0L86,33.36m-5.66,1c0-.19-.11-.16-.21-.15s-.06.09-.09.13a.58.58,0,0,0,.3,0m10.71.4a.81.81,0,0,0-.21-.1.9.9,0,0,0-.16,0c0,.06.07.14.12.17s.13,0,.25,0m3.2,2.5,0,0h0l0,.18a.14.14,0,0,0,0-.15m-2.65-2v-.19l-.16,0,.15.15m5.56,7.05a.33.33,0,0,0,0,.1.88.88,0,0,0,0,.15.33.33,0,0,0,0-.13.12.12,0,0,0-.09-.12M77,36.11l.16,0,0-.06a.24.24,0,0,0-.18,0M75.08,26l-.16,0,0,.07a.34.34,0,0,0,.18,0m4.6,8.41.16,0,0-.07a.34.34,0,0,0-.18,0m-11-6.31-.16,0v.06a.24.24,0,0,0,.17,0m11.46-.35a.75.75,0,0,0,0-.16h-.06a.22.22,0,0,0,0,.17m6.81,5.81,0-.1s0,.06,0,.1M78.28,26.5l.06,0s0-.06-.06,0M58.51,22.15l0-.06s-.06,0,0,.06m1.26,0-.06,0s0,.06.06,0M95.89,39.51l.06,0s0-.06-.06,0M94,37l.06,0s0-.06-.06,0m-15.61-1.9-.06,0s0,.06.06,0m1-.5-.06,0s0,.06.06,0m2.85-1,0,.06s.06,0,0-.06m2.36-.35-.06,0s0,.06.06,0M74.53,25.65l0,.06s.06,0,0-.06m9.91,6.51,0,.06S84.46,32.21,84.44,32.16ZM52.59,35.43l-1.35-.94a5.47,5.47,0,0,0-2.06-.84c-.8-.15-1.62-.16-2.42-.31A7.6,7.6,0,0,0,45,33.16c-.66,0-1.31.06-2,.1-.32,0-.64.06-1,.1h0c-.48.36-1.08.09-1.58.3s-.93.41-1.4.59a8.6,8.6,0,0,0-2,1.11,11.22,11.22,0,0,0-2,1.71,9.32,9.32,0,0,0-1.31,1.8q-.44.85-.84,1.71c-.08.16-.13.34-.21.51s-.46.27-.55.16a.42.42,0,0,1,0-.33,3.82,3.82,0,0,1,.31-.72c.34-.58.57-1.21.9-1.78A8.86,8.86,0,0,1,34.31,37a16.94,16.94,0,0,1,1.34-1.34,6.82,6.82,0,0,1,.62-.43,9.27,9.27,0,0,1,1.6-1.1c.54-.25,1.09-.49,1.65-.73a.58.58,0,0,1,.29,0,.42.42,0,0,0,.53-.39c0-.23.13-.34.23-.51a13.13,13.13,0,0,0,.68-1.22c.35-.69.69-1.38,1-2.07a1.67,1.67,0,0,1,.18-.28s.08,0,.13,0,0,.1,0,.13c-.22.53-.45,1.05-.67,1.58l-.75,1.84s0,.1,0,.14L40.9,33c.24-.07.48-.13.71-.22.06,0,.1-.12.14-.19.44-.84.94-1.64,1.38-2.48s1.09-1.91,1.57-2.9c.37-.77.83-1.49,1.22-2.25.24-.46.43-1,.65-1.43,0,0,.09-.09.14-.14a1.41,1.41,0,0,1,0,.21,23,23,0,0,1-1.2,2.5l-1.25,2.49c-.39.77-.75,1.57-1.21,2.29a18,18,0,0,0-.84,1.71c-.08.16-.07.22.11.21.42,0,.84-.06,1.26-.11.07,0,.19-.18.17-.24a1.21,1.21,0,0,1,.23-.88,27.94,27.94,0,0,1,1.77-3.22,3.43,3.43,0,0,0,.22-.56.85.85,0,0,1,.14-.19.86.86,0,0,1,0,.27,1,1,0,0,1-.09.21c-.33.65-.65,1.3-1,1.95a10.5,10.5,0,0,0-.84,2.25.29.29,0,0,1,0,.09l-.14.32c.15,0,.35,0,.43-.13a6,6,0,0,0,.82-1c.54-.94,1.06-1.9,1.56-2.86.34-.64.64-1.3,1-1.95s.68-1.42,1-2.13c.12-.26.24-.53.37-.79,0-.06.1-.09.15-.13a.72.72,0,0,1,0,.21c-.08.2-.15.4-.24.6-.46.94-.95,1.87-1.38,2.83-.75,1.68-1.6,3.31-2.42,5-.16.31-.15.32.17.32a9.28,9.28,0,0,1,1.88.28,1,1,0,0,0,.64-.1.62.62,0,0,0,.29-.44c0-.22.15-.31.27-.44s.08-.13.18,0,0,.12,0,.18c-.07.24-.14.48-.2.72,0,.06,0,.18,0,.18a2.9,2.9,0,0,0,.7.14c.16,0,.18-.18.2-.34a1.74,1.74,0,0,1,.19-.57c.28-.57.57-1.13.86-1.69,0-.06,0-.14.07-.17a1,1,0,0,1,.24-.1,1.46,1.46,0,0,1,0,.2c-.22.56-.45,1.11-.67,1.68a7.24,7.24,0,0,0-.25.79c0,.16,0,.37.18.4s.37.09.47-.18a2.51,2.51,0,0,1,.55-1s0-.1.09-.13.1,0,.15,0a.61.61,0,0,1,0,.13c-.11.35-.23.71-.35,1.06,0,0-.06.08-.06.12s0,.26,0,.38a1.48,1.48,0,0,0,.21-.3c.29-.67.55-1.34.85-2s.76-1.52,1.14-2.28c0,0,.09-.06.14-.09a.36.36,0,0,1,0,.14,5.49,5.49,0,0,1-.2.57c-.38.86-.83,1.7-1.13,2.58-.18.51-.25,1.06-.46,1.57,0,0,.1.14.15.22a.92.92,0,0,0,.14-.14c.14-.3.27-.59.4-.89a.78.78,0,0,1,.09-.21c.11-.13.3-.36.33-.34.23.14,0,.29,0,.44-.08.45-.25.89-.36,1.34a.26.26,0,0,0,.07.2,2.69,2.69,0,0,1,.27.2c.15.19.28.08.34,0,.16-.32.28-.65.41-1a20.79,20.79,0,0,1,1.4-3.12c0-.06.09-.1.13-.15a.55.55,0,0,1,0,.22c-.28.77-.66,1.5-.88,2.29-.13.47-.29.94-.44,1.42-.06.2-.13.41-.2.61s-.08.2,0,.24a.81.81,0,0,0,.3.21s.13-.07.15-.12l.6-1.55a.53.53,0,0,1,.13-.2,1,1,0,0,1,.24-.1l-.07.19c-.13.55-.27,1.09-.4,1.64a3.4,3.4,0,0,0-.09.46c0,.16.33.54.39.48a.85.85,0,0,0,.2-.39c.22-.79.5-1.56.78-2.33.23-.62.48-1.24.72-1.85.14-.34.3-.68.45-1a2.54,2.54,0,0,1,.16-.38,1.06,1.06,0,0,1,.16-.21,1,1,0,0,1,0,.23.82.82,0,0,1-.1.26,20.42,20.42,0,0,0-1.09,2.85c-.28.82-.55,1.64-.77,2.48-.07.27-.2.6,0,.88a.48.48,0,0,0,.16.09l.07-.15c.07-.17.14-.35.22-.51l.58-1.26a1,1,0,0,1,.13-.25,2.41,2.41,0,0,1,.24-.21c0,.1,0,.2,0,.3-.14.5-.27,1-.43,1.48a2.26,2.26,0,0,1-.4.73.24.24,0,0,0,0,.31,6,6,0,0,0,.56.67c.2.22.23.21.33-.09.47-1.35.92-2.72,1.41-4.07.19-.52.46-1,.69-1.51,0,0,0-.09,0-.13s.06.11,0,.15a4,4,0,0,1-.2.77,16.74,16.74,0,0,0-.8,2.22c-.3,1-.63,2-.95,3.06a.45.45,0,0,0,0,.27,5.36,5.36,0,0,0,.34.62c.06-.16.11-.32.18-.47l.56-1.37a.78.78,0,0,1,.11-.2.31.31,0,0,1,.17,0,.21.21,0,0,1,0,.13,2.42,2.42,0,0,1-.1.36c-.13.46-.26.92-.4,1.38a.46.46,0,0,1-.1.21c-.37.37-.17.77,0,1.06a4.2,4.2,0,0,1,.58.92s.09.07.14.11a.74.74,0,0,1,0-.14c.16-.48.33-1,.5-1.44,0-.05.08-.07.12-.11s.08.11.07.15c-.11.42-.23.84-.35,1.26-.07.24-.17.46-.24.7,0,0,.05.13.08.19a.29.29,0,0,0,.11-.11c.19-.39.37-.78.54-1.18.1-.21.16-.43.27-.63s.17-.11.26-.16l-.06.24a8.79,8.79,0,0,1-.65,1.73c-.09.18-.17.45-.42.4s-.57,0-.74-.35c-.42-.76-.86-1.51-1.28-2.27a8.14,8.14,0,0,0-1.67-2.26,12.75,12.75,0,0,0-2.06-1.67.9.9,0,0,1-.16-.17M58,41.51l.16,0,0-.06A.24.24,0,0,0,58,41.51Zm3,20.77c.16-.48.33-.91.5-1.34l.35-1s.06-.07.1-.1,0,.12,0,.17c-.22.76-.45,1.51-.67,2.27a1.08,1.08,0,0,1-.11.3,7.7,7.7,0,0,0-.86,2.69c-.14.9-.47,1.75-.64,2.64a.82.82,0,0,1-.2.33.2.2,0,0,1-.31,0,.31.31,0,0,1-.08-.24c.13-.45.28-.88.42-1.33s.31-1.06.48-1.6a5.38,5.38,0,0,1,.2-.51C60.43,63.84,60.7,63.09,61,62.28ZM22.26,51.5c-.08.18-.13.34-.2.5-.2.45-.43.89-.62,1.34s-.3.88-.52,1.28a7.53,7.53,0,0,0-.69,2.12,3,3,0,0,1-.2.66c0,.08-.19.18-.26.16s-.23-.16-.22-.24a3.1,3.1,0,0,1,.21-.91c.9-2.06,1.79-4.13,2.88-6.1,0,0,0-.09,0-.13l.11-.11c0,.06.06.13,0,.18-.12.3-.26.59-.39.88A3.09,3.09,0,0,1,22.26,51.5ZM40.75,62.18c-.07.34-.13.63-.2.92l-.3,1.32c0,.07-.09.14-.09.21,0,.24-.18.14-.29.15s-.11-.12-.12-.2a4,4,0,0,1,.39-1.44c.27-.79.6-1.56.82-2.36a13.65,13.65,0,0,1,.49-1.35c.25-.59.52-1.18.77-1.78,0,0,.05-.11.08-.17s.07.15.05.21c-.11.37-.23.74-.37,1.1-.3.8-.61,1.58-.84,2.4A10.62,10.62,0,0,1,40.75,62.18Zm21.92,6.41c-.07.28-.14.52-.2.76s-.13.27-.3.23a.22.22,0,0,1-.2-.28,4.77,4.77,0,0,1,.1-.66c.34-1.1.62-2.21.9-3.32.1-.39.27-.76.4-1.14s.27-.89.4-1.33a1.27,1.27,0,0,1,.06-.18s.07-.05.1-.08,0,.1,0,.14c-.09.33-.19.66-.28,1-.24.82-.5,1.63-.71,2.45a5.37,5.37,0,0,0-.11,1.06,2.76,2.76,0,0,1-.2,1A1.34,1.34,0,0,0,62.67,68.59ZM45.28,63.41c-.13.58-.22,1.14-.33,1.7s-.21.94-.29,1.42c0,.2,0,.37-.29.35s-.24-.28-.2-.46a28,28,0,0,1,1-3.57c.31-.82.56-1.67.84-2.5a.22.22,0,0,1,0-.08l.11-.08c0,.05,0,.1,0,.13-.07.29-.15.57-.24.85-.15.44-.31.88-.45,1.32C45.46,62.78,45.39,63.08,45.28,63.41Zm21,1.77c.13-.46.27-.87.4-1.28a.6.6,0,0,1,.06-.11s0,.09,0,.13c-.14.58-.27,1.16-.42,1.73a9.43,9.43,0,0,0-.49,2.3,3.68,3.68,0,0,1-.19.86c-.1.38-.19.76-.3,1.13-.06.2-.29.33-.44.24s-.17-.22-.09-.44a17.61,17.61,0,0,0,.62-2c.09-.35.27-.66.33-1C65.89,66.22,66.11,65.73,66.27,65.18Zm39.43-6.8v.75c0,.18,0,.33-.24.34s-.27-.13-.26-.32c0-.47,0-.94.11-1.4s.15-.61.19-.92c.09-.72.22-1.43.38-2.14.11-.54.23-1.08.33-1.62a5.77,5.77,0,0,1,.2-.82s.09,0,.14-.08.06.09,0,.13c-.16.6-.33,1.2-.47,1.8a7,7,0,0,0-.13.8c-.07.56-.09,1.12-.21,1.67A10.71,10.71,0,0,0,105.7,58.38ZM10.5,43.64a8.46,8.46,0,0,0-.37,1c-.12.47-.2.94-.3,1.42s-.23.47-.47.42-.27-.06-.17-.32c.33-.85.65-1.72,1-2.56a12.3,12.3,0,0,1,1-2,1.18,1.18,0,0,1,.11-.19s.09,0,.13,0,.06.13,0,.17c-.14.28-.29.55-.42.82ZM6,41.24c.14-.24.25-.47.38-.67s.13-.07.2-.1,0,.15,0,.2c-.23.47-.48.94-.7,1.41a1.94,1.94,0,0,0-.24,1,2.87,2.87,0,0,1-.1.56,4.8,4.8,0,0,0-.09.75c0,.29-.16.22-.31.23s-.34-.09-.29-.29c.14-.52.29-1,.48-1.55S5.75,41.75,6,41.24ZM83.48,59.38c-.06.34-.14.62-.19.91s-.06.58-.11.86a.66.66,0,0,1-.23.3.3.3,0,0,1-.23,0s0-.12,0-.18c.14-.77.3-1.54.45-2.31.08-.43.16-.86.25-1.29,0-.14.06-.27.09-.41s0-.18.08-.27a.88.88,0,0,1,.1.34C83.61,58,83.55,58.67,83.48,59.38ZM38.15,26.05a8.24,8.24,0,0,1-.31.92.3.3,0,0,1-.25.16c-.15,0-.3-.32-.23-.43l1.23-2.24.56-1a2.75,2.75,0,0,1,.19-.28s0,0,.07-.05.05.09,0,.13a2,2,0,0,1-.14.34c-.32.67-.65,1.33-1,2A2.4,2.4,0,0,0,38.15,26.05Zm33-1.4c.2-.4.4-.75.61-1.09a.62.62,0,0,1,.1-.16s.11-.06.12,0,.08.12.07.16-.16.36-.25.54-.14.13-.14.19c.06.66-.35,1.25-.31,1.92,0,.22-.11.31-.33.29a.27.27,0,0,1-.26-.37C70.9,25.62,71,25.16,71.17,24.65ZM57.74,39.24c.13-.43.2-.85.35-1.24.22-.57.5-1.12.76-1.68a.64.64,0,0,1,.11-.2,1.38,1.38,0,0,1,.27-.14c0,.09-.07.18-.11.27-.31.82-.69,1.62-.92,2.46a3.14,3.14,0,0,0-.24,1.4s0,.1-.07.15-.14,0-.16-.08-.29-.32-.09-.55S57.69,39.39,57.74,39.24Zm52.07-8.48c.13-.6.27-1.14.39-1.69.09-.36.16-.73.24-1.1a1.24,1.24,0,0,1,.1-.2c0,.06.07.13.06.19,0,.36,0,.71-.11,1.06a11,11,0,0,0-.29,1.72,9.54,9.54,0,0,1-.2,1.17s-.06.07-.1.1l-.18.11c0-.06-.11-.13-.11-.2a1.59,1.59,0,0,1,.16-1A1,1,0,0,0,109.81,30.76ZM10,46.47c.13-.36.26-.68.4-1a4.47,4.47,0,0,1,.61-1c.14-.17.22,0,.32,0a.54.54,0,0,1,0,.22c-.16.37-.34.73-.49,1.1a4.43,4.43,0,0,0-.13.49,1,1,0,0,1-.05.18c-.08.13-.1.29-.31.32S10.14,46.6,10,46.47ZM21.16,57.1c.24-.73.46-1.44.68-2.14a.38.38,0,0,1,.15-.18.21.21,0,0,1,.14.08.23.23,0,0,1,0,.18,5,5,0,0,0-.28,1.48,11.08,11.08,0,0,1-.21,1.15c0,.06-.2.08-.31.1s-.19,0-.18-.15S21.14,57.29,21.16,57.1Zm33,4.88c.24-.63.47-1.22.7-1.8a1.34,1.34,0,0,0,.07-.18c0,.07.13.14.13.2a3.24,3.24,0,0,1-.13.94,7.55,7.55,0,0,0-.48,1.6.37.37,0,0,1-.24.23A.2.2,0,0,1,54,62.7C54,62.47,54.09,62.25,54.16,62Zm-11,4.4c-.13.05-.34.1-.38,0a.8.8,0,0,1-.1-.5c.18-.87.39-1.73.58-2.6a1.3,1.3,0,0,1,.08-.17l.07-.07s.05.05.05.08a3.13,3.13,0,0,1,0,.75A9.14,9.14,0,0,0,43.15,66.38ZM67.1,67.61c.07-.22.12-.42.18-.61s.07-.08.11-.12.08.1.08.15a4.79,4.79,0,0,1-.11,1c-.12.38-.07.79-.19,1.17a1.47,1.47,0,0,0-.09.5c0,.23-.13.17-.25.19s-.15-.12-.16-.23a4.44,4.44,0,0,1,.26-1.39C67,68.06,67,67.85,67.1,67.61Zm52-23.14c0-.12.08-.19.1-.26s-.07-.28.14-.23c0,0,.09.22.05.3a4.19,4.19,0,0,0-.19,1.57c0,.34-.06.67-.1,1,0,0-.08.11-.12.1s-.22,0-.27-.1a.5.5,0,0,1-.1-.35C118.77,45.84,119,45.18,119.11,44.47ZM80,63.38a8.54,8.54,0,0,1-.12,1.2c0,.08,0,.32-.22.3s-.28-.14-.26-.33.07-.37.1-.55a4.85,4.85,0,0,1,.29-1.18,3.77,3.77,0,0,0,.19-.77.45.45,0,0,1,.11-.13c0,.06.12.14.1.2,0,.25-.13.5-.18.76A2.68,2.68,0,0,0,80,63.38Zm32-4.93c-.13,0-.29,0-.35,0s0-.22,0-.32a6.15,6.15,0,0,0,.42-1.32c0-.16,0-.31.06-.47a.74.74,0,0,1,0-.3,1.36,1.36,0,0,1,.24-.24,1.26,1.26,0,0,1,0,.27A6.86,6.86,0,0,1,112,58.45ZM56.44,21.12c.36-.58.69-1.15,1-1.7a1,1,0,0,1,.16-.19l.1-.06s0,.1,0,.13l-.39.79c-.2.45-.42.89-.6,1.35-.07.17-.18.24-.33.2a.3.3,0,0,1-.17-.2A.84.84,0,0,1,56.44,21.12Zm69.68,25.55c0,.49-.07.93-.1,1.36,0,.1.07.25-.14.24s-.34,0-.36-.23a.73.73,0,0,1,0-.33,4.93,4.93,0,0,0,.38-1.73s0-.07.06-.1.1.07.1.11C126.1,46.2,126.11,46.41,126.12,46.67ZM53.36,60.18a1.53,1.53,0,0,0-.2,1,1,1,0,0,1,0,.34.36.36,0,0,1-.24.19s-.12-.09-.16-.15c-.23-.33,0-.63.07-1a4.27,4.27,0,0,0,.13-.48c0-.19.07-.33.28-.31S53.29,60,53.36,60.18Zm-2.08,6.13a2.69,2.69,0,0,1,0,.32,1.26,1.26,0,0,1-.17.43c-.27,0-.07-.33-.2-.51s0-.43.09-.63a7.58,7.58,0,0,1,.49-.88s.11,0,.17,0a.22.22,0,0,1,0,.13C51.54,65.52,51.42,65.9,51.28,66.31Zm65.63-20.07c-.39,0-.38,0-.4-.35,0-.51.3-.91.41-1.37,0,0,.08-.05.11-.05a.14.14,0,0,1,.08.1c0,.18,0,.36,0,.54s-.07.3-.1.46S116.94,46,116.91,46.24Zm2.6,4.33a2.24,2.24,0,0,1-.25.49c0,.06-.13.08-.2.11s-.06-.22,0-.26c.22-.22.18-.52.28-.78a2.51,2.51,0,0,0,.09-.9,1.48,1.48,0,0,1,0-.3.8.8,0,0,1,.13-.24,1,1,0,0,1,.06.23q0,.53,0,1A5.75,5.75,0,0,1,119.51,50.57ZM82,62.76a.49.49,0,0,1-.25-.65c.15-.39.34-.75.52-1.13,0,0,.07-.07.1-.1s.06.09,0,.13c-.07.38-.14.77-.23,1.15A4.54,4.54,0,0,1,82,62.76Zm34.17-17c-.18.1-.3.16-.33-.12s.2-.55.29-.83c0,0,.11-.05.17-.07a.84.84,0,0,1,0,.17C116.26,45.22,116.21,45.49,116.13,45.79ZM53.26,64.88a.34.34,0,0,1,.19,0,3.22,3.22,0,0,1-.19,1.27.14.14,0,0,1-.1.07s-.1-.07-.09-.08C53.28,65.74,53,65.29,53.26,64.88ZM87.41,32.33c.11.57,0,.79-.49.72,0,0-.13-.13-.13-.14C87,32.71,87.19,32.51,87.41,32.33ZM58.69,60.88s0-.06,0-.09A.11.11,0,0,1,58.69,60.88Zm11.56.87s0,0,0-.06A.07.07,0,0,1,70.25,61.75Z"/></g></g></svg>