<svg xmlns="http://www.w3.org/2000/svg" viewBox="0 0 41.34 69.54"><defs><style>.cls-1{fill:#fff;}.cls-2{fill:#ed1c24;}.cls-3{fill:#f15a24;}.cls-4{fill:#ff931e;}.cls-5{fill:#ff0;}</style></defs><title>flame-large</title><g id="Layer_2" data-name="Layer 2"><g id="flame-large"><path id="void" class="cls-1" d="M27,9.84a5.76,5.76,0,0,1-.17,1.61,6.63,6.63,0,0,1-.6,1.72c-.15.28-.28.57-.41.87-.27.54-.48,1.1-.71,1.67a1.22,1.22,0,0,0-.08.17,6.76,6.76,0,0,0-.18,1,2.28,2.28,0,0,1-.1.59,6.56,6.56,0,0,1-.08-.66.6.6,0,0,0-.05-.24c-.35-.53-.71-1-1-1.58a6,6,0,0,1-.39-.85c-.18-.53-.33-1.08-.46-1.63q-.09-.35-.15-.72t0-.84c0-.26,0-.5,0-.78a11.86,11.86,0,0,1,.19-1.35c.05-.28.14-.56.18-.82s.09-.56.12-.82.08-.43.13-.64.12-.54.16-.82.14-.53.19-.79a1.6,1.6,0,0,0,0-.57.56.56,0,0,1,0-.33,1,1,0,0,0,0-.49c0-.09,0-.54,0-.63a1,1,0,0,0,0-.29c0-.22-.09-.43-.12-.64a.41.41,0,0,0,0-.08.33.33,0,0,0,.1.06l.05.1c.11.25.21.49.32.72s.28.49.43.72c.28.46.54.92.82,1.37s.51.8.74,1.23a5.94,5.94,0,0,1,.53,1.11c.06.23.13.45.19.68a3.91,3.91,0,0,1,.2.9,3.11,3.11,0,0,1,0,.61C26.92,9.54,27,9.69,27,9.84ZM41,46.73a4.71,4.71,0,0,0-.15-1.39,3,3,0,0,1-.13-.79c-.1-.51-.2-1-.28-1.54s-.19-.87-.28-1.3S40,41,39.93,40.66a.09.09,0,0,0,0,0l-.07,0a.2.2,0,0,0,0,.11,4.65,4.65,0,0,1-.44,1.63,8.52,8.52,0,0,1-.58,1.26c-.25.41-.52.79-.8,1.19s-.45.62-.69.91a12.82,12.82,0,0,0-.77,1.2,1.16,1.16,0,0,1-.27.31c-.05,0-.14.17-.23,0s0-.22,0-.25a7.09,7.09,0,0,0,.51-.75,3.46,3.46,0,0,0,.54-1.15,3.66,3.66,0,0,0,.1-.56,13.47,13.47,0,0,0,.05-1.68c0-.42-.06-.85-.11-1.26a8.07,8.07,0,0,0-.22-1.11c-.08-.4-.24-.78-.31-1.19a6.18,6.18,0,0,0-.93-2.23,7.61,7.61,0,0,1-.35-.7c-.21-.38-.43-.76-.61-1.15a3.94,3.94,0,0,1-.32-1c0-.08-.09-.18-.12-.28A4.26,4.26,0,0,1,34,32.55v-.28s0-.05,0-.08-.06.05-.06.07a2.6,2.6,0,0,1-.27.7,5,5,0,0,0-.23,1.84,4.28,4.28,0,0,0,.23.92,2.91,2.91,0,0,1,.18.64,6.74,6.74,0,0,1,.17,1,4.57,4.57,0,0,1,0,.9,4.67,4.67,0,0,1-.18.64,6.7,6.7,0,0,1-.67,1.69c-.12.18-.14.4-.27.58s-.19.46-.32.67a8.23,8.23,0,0,0-.68,1.28c-.1.23-.24.43-.36.66s-.29.61-.44.92c0,0,0,.06,0,.08a2.27,2.27,0,0,0-.42.8,1.78,1.78,0,0,0-.28.82.82.82,0,0,1-.07.33.17.17,0,0,1-.13.08s-.1,0-.1-.09a1,1,0,0,1-.05-.33,2.85,2.85,0,0,0,0-1.09.61.61,0,0,1,0-.14,4.88,4.88,0,0,0-.25-1.43c-.15-.51-.33-1-.48-1.49a5.13,5.13,0,0,1-.16-.87,4.6,4.6,0,0,0-.07-1c.07-.48.1-1,.2-1.42A6.57,6.57,0,0,1,30,37c.27-.49.57-1,.8-1.51a10.43,10.43,0,0,0,.82-2.29c.05-.33.13-.64.16-1a2.68,2.68,0,0,0,0-.69,10.82,10.82,0,0,0-.24-1.1c-.17-.53-.38-1-.54-1.56a1.41,1.41,0,0,1-.05-.95,1.92,1.92,0,0,0,.05-.63,2.34,2.34,0,0,1,.16-.75c.12-.53.26-1,.38-1.58.06-.28.06-.57.13-.87A1.94,1.94,0,0,0,31.42,23a3.2,3.2,0,0,1-.09-.54,1,1,0,0,0-.09-.18l-.07,0s0,0,0,0c0,.36,0,.74-.07,1.1a.53.53,0,0,1,0,.18c-.13.31-.24.63-.36.92,0,.08,0,.2-.16.22s-.07,0-.08.08c-.1.44-.46.72-.68,1.08a7.24,7.24,0,0,0-.6,1,8.91,8.91,0,0,0-.36,1,1.51,1.51,0,0,0-.09.48c0,.57,0,1.15,0,1.72,0,.15,0,.26.05.39a4.87,4.87,0,0,1-.24,1.38c0,.1-.09.2-.1.3a2.48,2.48,0,0,1-.23.61c-.15.31-.35.59-.49.9a3.73,3.73,0,0,1-.53.74c-.29.31-.64.59-.92.93-.46.54-1,1.07-1.39,1.66A7.1,7.1,0,0,1,24,38.13a2.9,2.9,0,0,0-.48.64A13.21,13.21,0,0,0,22.87,40a15.74,15.74,0,0,0-.73,1.87c-.14.45-.31.89-.41,1.33s-.24.81-.29,1.22-.13.65-.15,1a7.54,7.54,0,0,1-.16.93v.1c0,.61-.09,1.22-.05,1.82a5.45,5.45,0,0,0,.26,1.3c.06.3.18.58.26.87,0,.13-.18.43-.31.38a.38.38,0,0,1-.16-.21c-.09-.27-.15-.55-.22-.81,0,0,0,0,0-.08,0-.33,0-.64-.07-1s0-.82-.09-1.23a7.2,7.2,0,0,1-.07-.8c0-.37-.07-.74-.07-1.1,0-.66,0-1.33.07-2,0-.46.07-.9.11-1.34s.07-.69.12-1,.16-.77.25-1.14.06-.6.11-.89.18-.74.28-1.1c.33-1.31.77-2.58,1.2-3.84.23-.71.41-1.44.62-2.17.08-.28.2-.55.28-.83s.2-.78.31-1.15a5,5,0,0,0,.13-1c0-.33,0-.64.05-1,.1-.56,0-1.13.07-1.71,0-.13.05-.26.05-.39,0-.46,0-.94-.07-1.41S24,23.69,24,23.21a10.7,10.7,0,0,0-.29-1.34,4.92,4.92,0,0,0-.27-.79c-.11-.29-.26-.59-.39-.87s-.25-.54-.38-.8c-.06-.1-.16-.2-.21-.3-.13-.26-.23-.52-.36-.79s-.27-.54-.43-.8c-.31-.54-.57-1.08-.84-1.66-.16-.36-.32-.72-.46-1.08A10.23,10.23,0,0,1,20,13.47a4,4,0,0,1-.05-.69,9.05,9.05,0,0,1-.05-1,6.44,6.44,0,0,1,.06-1.24A3.56,3.56,0,0,0,20,9.43q-.08-.69-.18-1.38A.18.18,0,0,0,19.8,8l-.15-.08s0,.1,0,.15c0,.28,0,.56-.06.83s-.17.37-.23.56a1.15,1.15,0,0,0-.13.49c0,.1-.09.22-.12.33-.08.28-.18.56-.23.84s-.23.64-.28,1a2.6,2.6,0,0,0,0,1.24s0,.11,0,.18a4,4,0,0,0,.11.83,4.22,4.22,0,0,1,.07.61l.15.84a6.46,6.46,0,0,1,.16,1,1,1,0,0,0,.05.33c0,.2.05.38.05.57s0,.68,0,1a1.21,1.21,0,0,1-.1.59,1,1,0,0,0-.08.45,5.87,5.87,0,0,0-.07.62,6.34,6.34,0,0,1-.13,1.16c-.08.3-.2.58-.25.86a9,9,0,0,0-.34,1.15.21.21,0,0,1-.1.16,1.1,1.1,0,0,0-.26.64,2.29,2.29,0,0,1-.17.46c-.29.61-.57,1.22-.9,1.79s-.79,1.16-1.15,1.76-1,1.39-1.51,2.1c-.29.44-.61.9-.87,1.37l-.85,1.43c-.13.22-.22.43-.35.64s-.24.4-.37.59a5.07,5.07,0,0,0-.46,1c-.15.49-.28,1-.41,1.47a7.84,7.84,0,0,0-.23.83c0,.16,0,.32-.07.47a6.72,6.72,0,0,0-.18,2c0,.06,0,.11,0,.14a.35.35,0,0,1-.15.12s-.08,0-.1-.1a.12.12,0,0,1-.05-.1c0-.31,0-.64,0-1,0-.11,0-.23,0-.34a1.6,1.6,0,0,0,0-.38,2.45,2.45,0,0,0,0-.38,4.63,4.63,0,0,1-.14-1A5.19,5.19,0,0,0,9.62,36c-.11-.43-.28-.85-.38-1.3s-.09-.78-.19-1.18C9,33.23,9,33,9,32.75a10.53,10.53,0,0,1-.05-1.26c0-.18,0-.37,0-.55A8,8,0,0,1,9,30.11v0c0-.05,0-.11,0-.16s-.09.08-.09.11a3.17,3.17,0,0,1-.26.86q-.16.62-.36,1.23c-.1.29-.25.57-.35.87-.18.49-.49.9-.7,1.37-.33.66-.74,1.27-1,1.92-.15.33-.33.63-.48,1s-.48,1-.67,1.44-.23.74-.35,1.12c0,.19-.11.39-.18.59s-.08.28-.11.42A14,14,0,0,1,4,42.25a4.71,4.71,0,0,0,0,.54c-.06.33-.05.66-.08,1s-.1.64-.15.95a3.78,3.78,0,0,0,0,1.46.38.38,0,0,1,0,.15c0,.36,0,.72,0,1.08a3.93,3.93,0,0,0,0,.49,4.78,4.78,0,0,0,0,.53,4.87,4.87,0,0,0,0,.54,4.8,4.8,0,0,0,.11.76v0c0,.29.05.59.05.87a5.68,5.68,0,0,0,.16,1c.12.43.17.86.27,1.28a5.86,5.86,0,0,0,.19.72c.13.43.25.87.41,1.3a13.16,13.16,0,0,0,.64,1.61c.23.48.43,1,.68,1.43a.28.28,0,0,1-.07.34c-.05.1-.16,0-.28,0l-2.25-.84c-.54-.19-1.1-.36-1.62-.6A15.84,15.84,0,0,1,.55,56,.44.44,0,0,0,.4,56s-.05.08-.05.08c.21.15.24.41.36.63.33.54.59,1.11.92,1.64a12.08,12.08,0,0,1,.62,1.31c.07.17.17.33.23.49a5.05,5.05,0,0,0,.61,1.15,13.08,13.08,0,0,0,.84,1.12,14.3,14.3,0,0,0,1,1c.53.48,1.08.94,1.59,1.43.28.28.63.48.92.72a1.31,1.31,0,0,0,.28.17c.82.42,1.64.87,2.48,1.28a11.19,11.19,0,0,0,1.82.7c.41.12.84.2,1.25.31l1.23.3h.18a3.66,3.66,0,0,1,.79.11,5.8,5.8,0,0,0,.74.07,4.28,4.28,0,0,1,1.28.16,2.27,2.27,0,0,0,.59.07l.08,0s0,0-.05-.06a2.85,2.85,0,0,0-.41-.26.14.14,0,0,0-.13,0c-.2.12-.36,0-.56,0-.41,0-.82-.2-1.25-.22a2.79,2.79,0,0,1-1-.19c-.14-.09-.34,0-.5-.1a8.17,8.17,0,0,1-1.37-.46c-.08,0-.18,0-.26-.1-.44-.23-.92-.43-1.34-.69a11.32,11.32,0,0,1-1.06-.8c-.42-.35-.88-.68-1.28-1.07s-.85-.61-1.19-1-.61-.74-.92-1.08A9.07,9.07,0,0,1,6,61.44c-.26-.38-.47-.77-.72-1.17a.3.3,0,0,1,0-.26.32.32,0,0,1,.23,0c.41.21.84.42,1.25.65A6.77,6.77,0,0,0,8,61.22a9.67,9.67,0,0,1,1.12.55c.39.19.78.39,1.18.57,0,0,.05,0,.06,0a.17.17,0,0,0,0-.07c-.28-.37-.58-.77-.89-1.13a8.86,8.86,0,0,1-.74-1c-.34-.52-.65-1-.95-1.57a7.58,7.58,0,0,1-.52-1.22A6,6,0,0,1,7,56.66a4.45,4.45,0,0,1-.22-1A3.14,3.14,0,0,0,6.67,55a3.43,3.43,0,0,1-.13-1.06,9.24,9.24,0,0,0-.1-1.17c-.05-.28,0-.54-.08-.82-.09-.56,0-1.11-.07-1.67-.08-.74,0-1.48,0-2.22.12-.26,0-.54,0-.82s0-.56,0-.84a1.09,1.09,0,0,1,0-.47c0-.12,0-.28,0-.43.07-.39,0-.79.08-1.16a6.86,6.86,0,0,1,.12-1.12.57.57,0,0,0,0-.13c0-.46,0-.94.06-1.41a2.5,2.5,0,0,1,.07-.54c0-.05.06-.1.13-.12s.08,0,.1.08.08.15.11.23c.22.46.4,1,.63,1.42A9.7,9.7,0,0,0,8.39,44c.31.42.59.88.9,1.32.18.25.4.48.59.71s.18.23.28.33,0,0,0,.08,0,.07.14.18a1.61,1.61,0,0,1,.27.36s0,.08,0,.1a.57.57,0,0,0,.13.1.39.39,0,0,0,0-.15,1.78,1.78,0,0,1,0-1,1.13,1.13,0,0,0,0-.41,7.43,7.43,0,0,1,.33-1.92c.11-.33.16-.65.28-1A7.2,7.2,0,0,1,12.18,41c.18-.28.33-.57.53-.85.39-.56.8-1.1,1.19-1.66a10.81,10.81,0,0,0,.78-1.13,5.84,5.84,0,0,1,.47-.64c.4-.49.77-1,1.17-1.46a12.33,12.33,0,0,0,1-1.35c.2-.31.39-.64.58-1,.39-.76.77-1.53,1.16-2.3A15.1,15.1,0,0,0,19.75,29c.08-.2.16-.38.23-.59a2.42,2.42,0,0,0,.13-.72,4.62,4.62,0,0,1,.11-.61c.07-.26.12-.54.18-.82s.09-.36.12-.54a1.76,1.76,0,0,0,.06-.39,2.81,2.81,0,0,0,0-.58,2.41,2.41,0,0,1-.11-.56,4.65,4.65,0,0,0-.13-.9,1.54,1.54,0,0,0-.2-.64c-.1-.16.05-.2.12-.23s.18,0,.21.12c.15.41.29.8.43,1.21.18.56.34,1.12.47,1.69a6.21,6.21,0,0,1,.12,1.21c0,.46.08.92.05,1.38s0,1.22-.07,1.82c0,.4,0,.79-.11,1.19a14,14,0,0,1-.3,1.46c-.1.39-.15.8-.25,1.21s-.19.84-.29,1.27c-.13.59-.33,1.14-.43,1.73a5,5,0,0,1-.23.89c-.13.48-.28.94-.36,1.41s-.18.68-.25,1-.11.56-.16.84-.08.31-.11.48c-.07.37-.12.75-.18,1.13a3.79,3.79,0,0,0-.12,1.16,4.7,4.7,0,0,1,0,.92c0,.15.09.3,0,.46a1.25,1.25,0,0,0,0,.51c0,.31,0,.63.07.94,0,.14.11.29.14.46l.45,1.64c-.12.15.16.28,0,.41.28.11.16.44.33.64a1.6,1.6,0,0,1,.18.56.31.31,0,0,1-.1.08l.05.05a.27.27,0,0,0,.06-.12c.05,0,.12.05.12.08a3,3,0,0,0,.54,1c.39.63.82,1.22,1.18,1.86.2.36.48.65.67,1,.1.18.22.37.31.56a8.2,8.2,0,0,1,.46.82s.1.07.17.12a1.84,1.84,0,0,1,.18-.56c.11-.31.16-.64.26-1A9.35,9.35,0,0,0,24,53.05c.07-.31.08-.61.13-.92a12.55,12.55,0,0,0,.12-2.21,1.15,1.15,0,0,1,.05-.41c0-.07-.05-.18-.05-.27a2.8,2.8,0,0,1,.06-.28c0-.14,0-.29,0-.44,0-.66,0-1.33.07-2a9.86,9.86,0,0,1,.16-1.33,4.58,4.58,0,0,0,.07-.55c.05-.39.13-.77.21-1.14s.2-.91.33-1.35.34-1.15.54-1.71a10.5,10.5,0,0,1,.53-1.24c.26-.5.55-1,.82-1.43s.39-.79.62-1.18a9.34,9.34,0,0,0,.56-1.25,2.58,2.58,0,0,1,.1-.33c0-.15.13-.2.24-.15s.15.12.05.22a6.36,6.36,0,0,1-.24,1.36,7.61,7.61,0,0,1-.5,1.75c-.18.45-.31.92-.45,1.37a3.66,3.66,0,0,1-.25.62,2.53,2.53,0,0,0-.23.8c-.12.46-.21.92-.3,1.4a5.16,5.16,0,0,0-.06.79v1.28a5.94,5.94,0,0,0,.23,1.47c.08.33.13.64.24,1s.14.44.23.65c.27.63.51,1.23.79,1.86.12.23.3.46.43.69a2.47,2.47,0,0,1,.19.36c.23.42.5.85.69,1.29A8,8,0,0,1,30,53.4a0,0,0,0,0,0,0l0,0a1.91,1.91,0,0,1,.07-.28c.23-.73.49-1.45.78-2.15.17-.45.35-.87.53-1.32a1.36,1.36,0,0,1,.21-.32c.33-.41.53-.91.81-1.33A7.49,7.49,0,0,1,33,47a5.17,5.17,0,0,0,.51-.85c.16-.3.33-.61.48-.91.06-.13.09-.28.14-.42a4.26,4.26,0,0,1,.22-.63,1.87,1.87,0,0,0,.16-.77A13.63,13.63,0,0,1,34.86,42a3.17,3.17,0,0,1,.12-.41,1.16,1.16,0,0,1,.14-.27s.12-.08.14-.06.09.11.08.16a9.61,9.61,0,0,0-.18,1.28c-.07.38-.22.74-.33,1.12s-.13.56-.21.84a4.09,4.09,0,0,0,0,1.05,10.87,10.87,0,0,0,0,1.14,5.31,5.31,0,0,0,.13.89l.15.92c.05.25.08.49.11.74a.12.12,0,0,1,0,.08A9.08,9.08,0,0,0,35,50.61c.07.47,0,1,.07,1.41a4.38,4.38,0,0,1,0,.72,7.43,7.43,0,0,1-.13.93c-.05.28-.1.56-.16.83s-.17.57-.25.85a.61.61,0,0,0,0,.13l.13,0c.28-.38.57-.75.84-1.15.11-.16.16-.34.27-.51.35-.57.73-1.11,1.09-1.67a5.67,5.67,0,0,0,.28-.61,3.83,3.83,0,0,0,.29-.7c.08-.33.27-.59.38-.91,0-.05.07-.1.1-.16s.13-.13.23-.08.1.14.08.23-.11.36-.15.54c-.11.44-.23.88-.33,1.33a.75.75,0,0,0,0,.15c0,.24,0,.47-.06.72s-.08.6-.12.9a3.18,3.18,0,0,1-.06.43c-.12.57-.25,1.15-.36,1.74-.07.37-.09.78-.18,1.16s-.18.79-.3,1.17a4.63,4.63,0,0,0-.11.56A6,6,0,0,1,36.06,60c-.15.3-.23.61-.38.92s-.37.69-.56,1-.37.74-.55,1.1a4.74,4.74,0,0,1-.36.58,5.19,5.19,0,0,0-.37.65c-.19.28-.24.63-.52.86a2,2,0,0,0-.31.44,1.28,1.28,0,0,1-.35.39,3.39,3.39,0,0,0-.47.46s0,.08,0,.13a.24.24,0,0,0,.12-.05l.5-.44c.07,0,.17-.06.23-.13s.07,0,.1,0l0,0a1.73,1.73,0,0,1,.26-.24,5.46,5.46,0,0,0,1.11-.87,16.84,16.84,0,0,1,1.4-1.28,3.25,3.25,0,0,0,.82-1,4.33,4.33,0,0,1,.48-.77,5.94,5.94,0,0,0,.65-1.22,3,3,0,0,1,.45-.8,4.37,4.37,0,0,0,.54-1.3c.06-.21.11-.41.18-.61.16-.47.37-.93.49-1.41s.29-.93.46-1.39c0-.17,0-.35,0-.53.13-.39.23-.82.33-1.23s.14-.71.21-1.05.13-.52.18-.79,0-.33.07-.47c0-.4,0-.77.06-1.15,0-.54,0-1.09.07-1.61A8.13,8.13,0,0,0,41,46.73Zm-3.53,4.63,0,.07c0,.06-.11.13-.1.19a1,1,0,0,1-.19.58,14.81,14.81,0,0,1-.79,1.26,13.46,13.46,0,0,0-.71,1.17,4,4,0,0,1-.46.62,6.07,6.07,0,0,1-.52.64,1.75,1.75,0,0,1-.33.28.17.17,0,0,1-.18,0,.18.18,0,0,1,0-.16c.11-.46.28-.9.37-1.36s.12-.76.2-1.12a2.64,2.64,0,0,0,.12-1,14.71,14.71,0,0,1-.07-1.63c0-.41-.06-.83-.11-1.26s-.07-.72-.12-1.08-.13-.63-.2-.94a.29.29,0,0,1,0-.1c0-.37-.06-.73-.06-1.11s0-.46,0-.69a.11.11,0,0,0,0-.13c-.09,0-.1,0-.14.1s-.19.36-.27.54c-.22.42-.48.8-.74,1.2a9,9,0,0,0-.58,1.06,9,9,0,0,1-.6,1,2.47,2.47,0,0,0-.35.66c-.08.25-.23.46-.31.71l-.54,1.42a5.44,5.44,0,0,0-.31.94,3.23,3.23,0,0,0-.23,1.1c0,.13,0,.23-.17.21s-.11,0-.13-.1-.1-.34-.11-.51a4,4,0,0,0-.27-1.06,12.52,12.52,0,0,0-1.2-2.4c-.26-.41-.44-.87-.67-1.31a15.06,15.06,0,0,1-.74-1.77,4.66,4.66,0,0,1-.29-1.17c0-.23-.15-.46-.2-.69a7.81,7.81,0,0,1-.15-1c0-.21.05-.43,0-.64s0-.48,0-.72a2.54,2.54,0,0,1,.11-.87c0-.1,0-.2,0-.3.05-.29.15-.57.19-.88A3.2,3.2,0,0,1,26.89,40c.13-.3.14-.59.26-.89s.26-.79.39-1.17.28-.65.38-1a1.52,1.52,0,0,0,0-.48s0,0-.05,0,0,0,0,0c0,.2-.11.33-.18.49a3,3,0,0,1-.26.58c-.2.36-.43.7-.63,1.06s-.36.76-.54,1.15a1.36,1.36,0,0,1-.13.3,7.19,7.19,0,0,0-.52,1.43c-.18.57-.35,1.16-.48,1.74s-.16,1-.25,1.46c-.06.34-.08.69-.13,1-.06.48-.06,1-.11,1.42s0,1-.07,1.54,0,1.23-.05,1.85a8.11,8.11,0,0,1-.06,1.1c-.08.45-.13.89-.22,1.32a10.29,10.29,0,0,1-.19,1.11,16,16,0,0,1-.48,1.63.21.21,0,0,1-.1.11s-.06,0-.11,0a2.85,2.85,0,0,1-.3-.16,3.66,3.66,0,0,1-.7-.94c-.17-.33-.38-.61-.58-.92-.29-.47-.61-.95-.9-1.43s-.64-1-.94-1.46c-.18-.33-.32-.67-.49-1,0,0,0-.12,0-.14s.05-.11,0-.16a.24.24,0,0,1-.15-.16c0-.28-.18-.5-.2-.76,0,0,0,0,0-.08s.05-.15.05-.21-.11-.1-.11-.15a3.45,3.45,0,0,0-.27-1c-.08-.33-.18-.68-.23-1-.09-.69,0-1.4-.05-2.1a7.57,7.57,0,0,0,0-.81,2.72,2.72,0,0,1,.08-.8,4.17,4.17,0,0,1,.08-.49c.06-.36.11-.74.18-1.1,0-.17.08-.35.11-.51A4.37,4.37,0,0,0,19,40c.08-.36.16-.74.25-1.1s.21-.69.29-1c.13-.51.25-1,.36-1.52.08-.35.17-.68.25-1s.2-.79.29-1.17.28-1,.4-1.57c.05-.25.08-.5.13-.74s.08-.66.13-1,.08-.89.13-1.33,0-.82,0-1.23a11.45,11.45,0,0,0,0-1.31A6.52,6.52,0,0,0,21,25.35c0-.35-.21-.66-.08-1,0,0,0,0-.07-.08s0,0,0,.05c-.18.13-.1.31-.07.46A2.17,2.17,0,0,1,20.7,26c-.07.25-.1.51-.18.76a3.86,3.86,0,0,1-.17.82c0,.1,0,.23,0,.33-.15.5-.33,1-.46,1.51a3.2,3.2,0,0,0-.26.6,3.38,3.38,0,0,1-.23.63c-.07.16-.15.34-.23.5l-.3.55c-.16.32-.36.65-.52,1a14.16,14.16,0,0,1-1,1.77c-.18.25-.36.48-.54.71s-.51.65-.77,1c-.13.16-.26.31-.39.48s-.55.65-.81,1a.87.87,0,0,0-.13.15s-.1.06-.1.1c.07.26-.18.37-.28.54s-.41.59-.62.89-.56.77-.82,1.18A14.4,14.4,0,0,0,11.93,42a6.88,6.88,0,0,0-.55,1.62,6.14,6.14,0,0,1-.2.66A7.49,7.49,0,0,0,11,45c0,.53,0,1.05-.06,1.59a1.65,1.65,0,0,0,.08.59c0,.12,0,.15-.05.19s-.1,0-.15-.07a.54.54,0,0,0,0-.1.19.19,0,0,0,0,.1.34.34,0,0,1,0,.1c0,.06-.09.13-.17,0a7.8,7.8,0,0,0-.56-.7l-.78-1c-.25-.31-.48-.64-.71-1s-.43-.61-.62-.91-.46-.67-.66-1-.21-.53-.33-.79a.58.58,0,0,0-.06-.17l-.07-.06a.19.19,0,0,0,0,.1c0,.42-.1.83-.06,1.26a5.65,5.65,0,0,1-.07,1.23,4,4,0,0,0-.1,1s0,0,0,.07a1.09,1.09,0,0,0,0,.62.64.64,0,0,1,0,.2c0,1.16,0,2.31,0,3.47,0,.23,0,.46,0,.69a5,5,0,0,0,.11.87,6.42,6.42,0,0,1,0,.76,2.58,2.58,0,0,0,.12.72.38.38,0,0,1,0,.15c0,.41.11.8.11,1.21A8.15,8.15,0,0,0,7,55.4c.1.44.2.87.31,1.31A12.18,12.18,0,0,0,7.82,58a7.31,7.31,0,0,0,.75,1.3c.35.54.72,1.07,1.1,1.58s.66.87,1,1.29a7.75,7.75,0,0,0,.46.66s0,.16,0,.23-.13,0-.18,0c-.31-.16-.59-.34-.91-.49-.54-.26-1.09-.48-1.62-.77-.33-.17-.67-.25-1-.43s-.79-.46-1.19-.69l-.41-.23s0,0-.08,0,0,0,0,.08c.23.38.48.74.71,1.12A8.23,8.23,0,0,0,7.57,63c.2.19.34.44.54.65a3,3,0,0,0,.54.41,5.2,5.2,0,0,1,.63.51c.51.43,1,.87,1.54,1.25.16.11.29.25.46.36a8.54,8.54,0,0,0,2.26,1.13,6.94,6.94,0,0,0,.87.31l.51.1-.28-.11a.15.15,0,0,1-.08,0c-.36-.15-.72-.29-1.08-.46a3.22,3.22,0,0,1-.64-.33c-.2-.11-.36-.28-.56-.41s-.2-.09-.28-.16A5.08,5.08,0,0,1,11,65.59a11.06,11.06,0,0,1-.9-.79c-.49-.51-.94-1.07-1.43-1.59-.1-.1,0-.15,0-.21a.25.25,0,0,1,.18,0l1.08.44a2.48,2.48,0,0,1,.36.23,1.77,1.77,0,0,0,.89.36c.37.09.72.22,1.06.33l1.12.41a2.66,2.66,0,0,0,.38.1,1.93,1.93,0,0,0,.34,0c-.06-.06-.15-.13-.21-.2a8.39,8.39,0,0,1-1.17-1.28c-.31-.44-.6-.9-.93-1.34s-.49-.64-.72-1a2.74,2.74,0,0,1-.3-.51c-.2-.39-.43-.77-.62-1.16a19.94,19.94,0,0,1-.82-2c-.07-.23-.12-.46-.17-.71S9,56,8.93,55.61s0-.44-.06-.67,0-.3,0-.44,0-.37-.07-.55c-.08-.47-.05-1-.16-1.46a1.46,1.46,0,0,1,0-.47,4.84,4.84,0,0,0-.11-1.2c0-.2,0-.4,0-.59a3.51,3.51,0,0,0,0-.56c0-.34-.1-.67-.16-1v-.08c0-.31,0-.64-.07-1S8.08,46.9,8,46.55c0-.2,0-.39-.12-.59,0,0,0-.15.07-.15s.18-.05.24,0,.3.49.45.76c.39.69.74,1.41,1.19,2.07a2.3,2.3,0,0,1,.43.72.58.58,0,0,0,.17.19c.19.18.32.43.5.64l.59.81c.2.26.38.51.58.75s.28.36.43.55h.09a.29.29,0,0,0,0-.08c-.08-.35-.16-.71-.23-1.07a5,5,0,0,1-.06-.54c-.07-.36-.14-.72-.2-1.08,0-.2-.08-.41-.1-.61a6.32,6.32,0,0,1-.07-1c.09-.61,0-1.2.07-1.8a12,12,0,0,1,.25-1.33,5.74,5.74,0,0,1,.23-.81c.19-.51.41-1,.6-1.52s.56-1,.79-1.5a8.82,8.82,0,0,1,.41-.88c.25-.41.44-.84.72-1.24.1-.14.2-.32.3-.49.39-.72.8-1.43,1.25-2.11.18-.27.31-.55.47-.83a.8.8,0,0,0,.15-.21c0-.08.08-.15.15-.1s.15.08.11.23a5.65,5.65,0,0,1-.26.94c-.18.56-.39,1.11-.57,1.67a1.76,1.76,0,0,0-.07.4,14.51,14.51,0,0,1-.34,1.59A14.61,14.61,0,0,0,16,41.41a5.78,5.78,0,0,1-.11,1,7.59,7.59,0,0,0-.12,1.08c-.14.16,0,.43-.16.59,0,0,0,0,0,0,.16.2.09.4,0,.61a.88.88,0,0,0,0,.23,8.46,8.46,0,0,1-.05.87,3.4,3.4,0,0,0,0,.64c0,.21,0,.44,0,.66s.16.64.2.95.21.56.09.85a.22.22,0,0,0,.05.08.64.64,0,0,1,.12.5.32.32,0,0,0,.08.24c.05.07,0,.18.05.26a2.54,2.54,0,0,0,.18.41c.11.32.25.6.34.91a1.85,1.85,0,0,1,.2.74c0,.13.05,0,.08,0a.23.23,0,0,1,.09.12,6.87,6.87,0,0,0,.6,1.29c.08.18.28.3.25.53a.93.93,0,0,1,.26.33c.26.39.53.77.81,1.13a3.81,3.81,0,0,0,1,1c.33.25.63.51.94.77s.36.26.52.4l.68.54a4.45,4.45,0,0,0,.79.47,5.54,5.54,0,0,1,1.08.63c.13.13.24.11.34,0s.25-.48.35-.72.23-.59.33-.89.14-.56.21-.84.2-.85.31-1.28a7.1,7.1,0,0,0,.12-1.13c0-.46.14-.92.16-1.36a2.14,2.14,0,0,0-.05-.94c0-.08.05-.19.07-.31,0-.56,0-1.12,0-1.66,0-.29,0-.59-.05-.88,0-.1,0-.2-.06-.3a.13.13,0,0,1-.05-.06c0-.1,0-.23.09-.25a.17.17,0,0,1,.2.15c.05.18.13.36.18.54.1.41.18.8.3,1.2s.29.74.41,1.11.23.77.36,1.17a6.8,6.8,0,0,0,.44,1c.22.39.46.76.67,1.15a4.37,4.37,0,0,1,.48,1c.07.3.18.57.26.87a2.46,2.46,0,0,1,.17.71c0,.06,0,.16,0,.21s0,.1,0,.1a.13.13,0,0,0,.12-.05l.54-1.23a5.65,5.65,0,0,1,.31-.66c.15-.26.33-.51.49-.77a6.89,6.89,0,0,0,.38-.62c.18-.32.36-.63.53-1s.52-1,.77-1.47c.11-.22.21-.45.31-.68s.07-.18.2-.16.13.13.13.23a6.65,6.65,0,0,1-.13,1.26,4,4,0,0,0,0,.69c0,.41,0,.82-.07,1.23s-.13.58-.18.86c0,.11,0,.24,0,.36a5.56,5.56,0,0,1-.38,2.12c-.06.18-.11.36-.16.55a2.85,2.85,0,0,1-.41.84c-.15.3-.28.59-.43.87,0,0,0,.08,0,.11l.1,0a8.08,8.08,0,0,0,1.1-.64c.39-.25.79-.51,1.16-.79a7.62,7.62,0,0,0,1-.79,5.6,5.6,0,0,0,.6-.69c.1-.13.22-.29.4-.25s.21.27.23.4a3.25,3.25,0,0,1,0,.82,6.45,6.45,0,0,1-.27,1c-.1.28-.23.53-.33.79s-.41.77-.6,1.17-.28.57-.46.85c-.36.61-.72,1.21-1.1,1.81-.23.37-.48.73-.72,1.09s-.4.48-.56.74-.59.58-.82.94a4.89,4.89,0,0,1-1.05,1,3.85,3.85,0,0,1-.38.23.33.33,0,0,0-.11.15c0,.1.09,0,.16,0,.23-.08.48-.2.7-.3,0,0,.09,0,.1,0A4.18,4.18,0,0,1,31,67.1a6.45,6.45,0,0,0,.66-.51c.13-.11.25-.25.36-.36s.33-.31.48-.48.23-.23.32-.34.3-.4.43-.61a5.51,5.51,0,0,0,.38-.67,2.89,2.89,0,0,1,.38-.69,5.64,5.64,0,0,0,.54-1c.21-.53.54-1,.79-1.53a12,12,0,0,0,.75-1.84c.08-.24.11-.5.18-.75s.15-.62.21-.94a12.2,12.2,0,0,0,.27-1.26,6.83,6.83,0,0,1,.18-.9c0-.17.08-.33.11-.5.07-.37.1-.75.18-1.11a4.13,4.13,0,0,0,.12-.76,5.62,5.62,0,0,1,.15-1,1.14,1.14,0,0,0,0-.41A.41.41,0,0,0,37.47,51.36ZM35.4,57.47s0,0-.06-.07-.07.07-.05.08,0,.17,0,.2c-.15.2-.32.36-.46.52a3.49,3.49,0,0,1-.77.63.15.15,0,0,0-.09.06,11.25,11.25,0,0,1-1.28.89,6,6,0,0,1-.75.48c-.28.14-.54.32-.84.44a1.9,1.9,0,0,0-.64.46,1.52,1.52,0,0,1-.51.16.2.2,0,0,1-.13-.1s-.06-.16.07-.19S30,61,30,60.94a1.83,1.83,0,0,0,1-1.13,4,4,0,0,1,.5-.93,2.15,2.15,0,0,0,.26-.64c.1-.31.18-.64.26-1a2.36,2.36,0,0,0,.1-.46c0-.38,0-.77.07-1.13a2.82,2.82,0,0,1,.18-1v-.06c0-.38,0-.76,0-1.13a4.78,4.78,0,0,1,.18-1.25.38.38,0,0,0,0-.15c0-.05,0-.16,0-.16s-.05.1-.07.15a2.76,2.76,0,0,1-.2.47c-.21.43-.42.85-.65,1.26s-.35.53-.51.81c-.26.44-.54.89-.79,1.34s-.39.89-.61,1.33a4.21,4.21,0,0,1-.31.64.79.79,0,0,0-.1.37.85.85,0,0,1-.11.27.19.19,0,0,1-.12.07s-.13-.13-.11-.16c.16-.32,0-.59-.08-.87A14.19,14.19,0,0,0,28.48,56c-.05-.08-.05-.18-.1-.26-.36-.69-.72-1.4-1.15-2.06a4.59,4.59,0,0,1-.56-1.44,4.23,4.23,0,0,0-.31-1,5.17,5.17,0,0,1-.28-.84.19.19,0,0,1,0-.08.19.19,0,0,0-.05.1V52.3a2.44,2.44,0,0,0,.06.26,2.06,2.06,0,0,1-.11.85s0,.07,0,.1c0,.33,0,.67-.07,1,0,.06-.06.15,0,.21s-.15,0-.13.07.12.08.12.13a1,1,0,0,1,0,.34c-.07.35-.15.69-.21,1,0,.15-.09.3-.14.46a11.53,11.53,0,0,1-.29,1.12c-.15.43-.35.82-.51,1.23q-.08.16-.15.36c0,.08-.05.26-.1.26a.57.57,0,0,1-.49-.06,1.65,1.65,0,0,0-.24-.22c-.37-.19-.73-.41-1.1-.59a5.41,5.41,0,0,1-1-.65,9.74,9.74,0,0,0-.78-.63,6,6,0,0,1-.74-.59c-.3-.24-.61-.47-.89-.72a2.22,2.22,0,0,1-.39-.48c-.31-.52-.72-1-1-1.51a11.47,11.47,0,0,1-.55-1.11,1.24,1.24,0,0,0-.18-.21,2.1,2.1,0,0,1-.3-.69,3.3,3.3,0,0,0-.25-.63c-.09-.26-.23-.54-.32-.8a2.67,2.67,0,0,1-.09-.26c0-.1-.09-.2-.11-.3-.07-.48-.2-.94-.25-1.41a8.33,8.33,0,0,0-.26-1.07,3.53,3.53,0,0,1-.15-1.21c0-.1.08-.2.05-.27s0-.19,0-.29,0-.2,0-.3a5.93,5.93,0,0,0,0-.85c0-.08,0-.18,0-.26a3.39,3.39,0,0,0,0-.46c0-.07,0-.15,0-.2a4.43,4.43,0,0,0,0-.72c.05-.38.13-.74.18-1.1s0-.44.06-.66.09-.6.13-.9a1.46,1.46,0,0,0,.1-.34,10.61,10.61,0,0,1,.35-1.48,2.42,2.42,0,0,0,.06-.48A3.65,3.65,0,0,1,16.69,37l.3-.66s0-.09,0-.14-.08,0-.1.08c-.13.2-.24.41-.38.62-.23.41-.46.82-.7,1.23s-.71,1.1-1,1.68c-.15.28-.31.55-.45.87s-.26.55-.39.83-.26.46-.38.69-.28.63-.41.94-.33.74-.46,1.11-.16.69-.26,1a3,3,0,0,0-.13.79c-.07.67,0,1.36-.05,2a6.49,6.49,0,0,0,.21,1.82,7.19,7.19,0,0,1,.15.91q0,.39.12.78c0,.22.13.41.18.61s-.09.28-.25.39-.25.09-.36,0-.36-.42-.53-.64-.44-.62-.67-.91l-.89-1.2c-.31-.45-.64-.9-1-1.36-.1-.15-.19-.3-.28-.45-.14-.36-.37-.67-.54-1-.08-.17-.16-.31-.24-.48H8.18s0,0,0,0a.32.32,0,0,0,0,.09,4.47,4.47,0,0,1,.22,1c0,.07,0,.12,0,.17a2.5,2.5,0,0,1,.07.54,5.68,5.68,0,0,0,.14.92.34.34,0,0,1,0,.16c0,.13,0,.27,0,.4s.08.19,0,.34a.65.65,0,0,0,.07.48,1.23,1.23,0,0,1,.1.6,9.36,9.36,0,0,0,.06,1.2C9,53,9,53.4,9,53.85a3,3,0,0,0,.17.94v.1a4.75,4.75,0,0,0,.06.84c.09.37.1.77.22,1.16a7,7,0,0,0,.19.76c.09.19.2.39.28.59a7.4,7.4,0,0,0,.82,1.67c.05.07.07.15.12.21.29.5.57,1,.88,1.5.09.11.2.21.28.33.32.41.61.82.92,1.23a9.34,9.34,0,0,0,.63.78,3.72,3.72,0,0,0,.46.41l.57.53a.23.23,0,0,1,.11.28c0,.11-.14.11-.24.1A4.7,4.7,0,0,1,12.87,65c-.48-.2-.95-.38-1.44-.53-.32-.08-.63-.2-.92-.29a2.1,2.1,0,0,1-.45-.23,3.77,3.77,0,0,0-.73-.41s-.07,0-.1,0a.16.16,0,0,0,0,.08c.14.15.29.32.44.46.38.33.61.81,1.08,1a.41.41,0,0,1,.15.14,2.65,2.65,0,0,0,.74.51,5.2,5.2,0,0,1,1.11.73,2.14,2.14,0,0,0,.45.24c.1,0,.2.12.31.17l.94.49.21.13a3.45,3.45,0,0,1,.39.25l.13,0a12.33,12.33,0,0,1,2,.41s.08,0,.13,0l-.08-.07-1.07-.52c-.21-.12-.23-.23,0-.33a2.52,2.52,0,0,1,.62-.21,4.78,4.78,0,0,1,1.41-.12.65.65,0,0,1,.2,0,4,4,0,0,1,.82.18h0a.1.1,0,0,0,0-.07,1,1,0,0,0-.18-.18c-.29-.25-.59-.46-.89-.69l-.13-.1c-.55-.59-1.2-1.07-1.72-1.67a7.58,7.58,0,0,1-.72-.89,6,6,0,0,0-.56-.67,4.91,4.91,0,0,1-.82-1.4,1,1,0,0,1-.18-.52s-.08-.1-.12-.17a7.49,7.49,0,0,1-.65-1.69c-.05-.19,0-.41-.07-.6a2.46,2.46,0,0,0-.11-.64v0c0-.46-.07-.91,0-1.35a6.65,6.65,0,0,1,.11-1,.22.22,0,0,1,.1-.18.16.16,0,0,1,.2.11,6.58,6.58,0,0,0,.29.66c.13.28.25.56.38.82s.41.81.64,1.18.59.91.89,1.37a3.9,3.9,0,0,1,.36.5,1.17,1.17,0,0,0,.23.38s.06.1.11.1.08,0,.13,0,0-.08,0-.09-.15-.25-.18-.38c-.1-.41-.18-.84-.25-1.27,0-.26,0-.52-.06-.78a1.11,1.11,0,0,1,0-.13c-.1-.1.06-.15.05-.23a.33.33,0,0,1,.19.06,2.86,2.86,0,0,1,.36.48c.18.37.36.75.53,1.15a3,3,0,0,0,.47.78c.28.45.56.89.89,1.32a8,8,0,0,0,1.28,1.39,5.87,5.87,0,0,0,2.35,1.15,1.82,1.82,0,0,0,1-.11,2.36,2.36,0,0,0,1-.73,4.31,4.31,0,0,1,.43-.42,9.94,9.94,0,0,0,1.31-1.76c.13-.2.21-.44.33-.66s.16-.23.31-.06a1,1,0,0,1,.21.41,1.57,1.57,0,0,1,.07.57,2.35,2.35,0,0,0,0,.38c.05.13,0,.21,0,.33a1.21,1.21,0,0,1,0,.38c0,.31-.08.62-.13.93s-.07.4-.1.58-.08.42-.13.64a.88.88,0,0,1-.09.21c.4-.12.79-.18,1.19-.3a1.86,1.86,0,0,0,.59-.27,6.67,6.67,0,0,1,1-.5,5.6,5.6,0,0,0,.72-.39c.31-.18.62-.36.9-.56a7.52,7.52,0,0,0,.66-.57c.08-.09.16-.17.28-.09s.08.07.06.1a2,2,0,0,1-.16.4A9.33,9.33,0,0,1,30.33,64c-.39.38-.72.82-1.11,1.17A9.49,9.49,0,0,1,28,66c-.36.23-.75.41-1.13.62-.2.12-.38.25-.57.38s-.25.2-.43.2-.05.06,0,.1.06.16.21.09.23,0,.34,0,.23,0,.35.06a3.42,3.42,0,0,0,.64,0,3.26,3.26,0,0,0,1.51-.44c.26-.18.56-.31.82-.46.08,0,.13-.11.21-.16a.23.23,0,0,1,.3,0c.08.08.06.16,0,.26a.71.71,0,0,0-.07.22s0,0,0,.06a.07.07,0,0,0,.07,0c.25-.3.49-.59.72-.89.05,0,.15-.08.18-.13l.4-.49c.16-.25.36-.48.52-.71s.38-.62.58-.93.36-.51.52-.77.33-.58.51-.86a5,5,0,0,0,.36-.62,15.59,15.59,0,0,0,.72-1.41,7,7,0,0,1,.35-.79.89.89,0,0,0,.11-.31c.07-.3.18-.59.23-.89A1.12,1.12,0,0,0,35.4,57.47Zm-4.48,5.2c-.05.16-.23.15-.34.23a6.93,6.93,0,0,1-1.59.9,2,2,0,0,0-.71.39,2.92,2.92,0,0,1-.92.37c-.28.08-.57.13-.85.19l-.21,0c-.1,0-.22,0-.2-.11a.25.25,0,0,1,.11-.17.75.75,0,0,1,0-.31,7,7,0,0,1,.18-1,3.1,3.1,0,0,0,.08-.69,6.72,6.72,0,0,0,.12-1,7,7,0,0,0-.12-1l-.05-.06s-.06,0-.06.06l-.4.77a4.67,4.67,0,0,1-.64.89,9.93,9.93,0,0,1-1.24,1.35,2.57,2.57,0,0,1-1.12.59,2.61,2.61,0,0,1-1.61-.2c-.29-.13-.59-.26-.88-.41a4.69,4.69,0,0,1-.89-.58,7.49,7.49,0,0,1-1.13-1.26A21.68,21.68,0,0,1,17,59.73c-.13-.21-.23-.48-.35-.72l-.34-.81-.05-.08s0,.05,0,.08c0,.22,0,.41.09.63l.09.52c.07.3.14.61.2.91a2.27,2.27,0,0,0,.21.73c.12.2.25.37.37.55s.05.08.06.13,0,.19-.11.19-.15,0-.18-.09a5.24,5.24,0,0,1-.3-.51c-.06-.12-.18-.22-.2-.33a.92.92,0,0,0-.32-.43,6.81,6.81,0,0,1-.81-1c-.18-.35-.44-.64-.64-1s-.26-.41-.38-.62-.28-.55-.41-.82l-.42-1,0-.11a.63.63,0,0,0-.1-.12s0,.1,0,.15c0,.26,0,.54,0,.8a3.23,3.23,0,0,0,.09.92,3.4,3.4,0,0,1,.08.53,4.34,4.34,0,0,0,.31,1.52,7.12,7.12,0,0,0,.41,1,5.91,5.91,0,0,1,.43,1,1.36,1.36,0,0,0,.29.46c.33.44.68.88,1,1.31a3.25,3.25,0,0,0,.38.44c.23.27.44.51.69.76s.44.38.67.56c.05,0,.11.1.16.16a9.56,9.56,0,0,0,1,.89l.79.67a2.5,2.5,0,0,1,.23.23.23.23,0,0,1,0,.2s-.12.06-.17.06c-.21,0-.41-.1-.6-.13s-.63-.13-.95-.16a4.18,4.18,0,0,0-.5,0,5.94,5.94,0,0,0-.93.13,1.25,1.25,0,0,0-.27.12c.05.1.17.08.25.13.28.13.56.28.84.44s.44.3.67.44a.64.64,0,0,1,.2.2c.11.23.34.26.56.28a5.25,5.25,0,0,1,1.14.25h.09a2.73,2.73,0,0,0,.55.15s.1-.1.15-.1a7.36,7.36,0,0,1,1.32,0c.55,0,1.09,0,1.65,0a5.58,5.58,0,0,0,.68-.1.18.18,0,0,1,.11,0,2.34,2.34,0,0,0,1-.18,3.7,3.7,0,0,1,.48-.06c.3,0,.61-.1.9-.17a7.22,7.22,0,0,1,.74-.18.89.89,0,0,0,.38-.18l1.57-1a.72.72,0,0,0,.19-.25c0-.13,0-.2-.15-.15l-.25.13a6,6,0,0,1-1.15.61,2.93,2.93,0,0,1-.6.15,4.33,4.33,0,0,1-.73,0,5.65,5.65,0,0,1-1.62-.3l-.13-.05a.16.16,0,0,1,0-.29,1.29,1.29,0,0,1,.26-.08c.21-.14.41-.25.62-.38l.77-.53c.12-.08.27-.11.4-.18a7.49,7.49,0,0,0,.72-.42,7.21,7.21,0,0,0,.72-.51,4.83,4.83,0,0,0,.87-.82c.25-.33.56-.59.82-.89a6.29,6.29,0,0,0,.48-.67s0-.08,0-.12S30.92,62.64,30.92,62.67Z"/><path id="fill5" class="cls-2" d="M27,9.84a5.76,5.76,0,0,1-.17,1.61,6.63,6.63,0,0,1-.6,1.72c-.15.28-.28.57-.41.87-.27.54-.48,1.1-.71,1.67a1.22,1.22,0,0,0-.08.17,6.76,6.76,0,0,0-.18,1,2.28,2.28,0,0,1-.1.59,6.56,6.56,0,0,1-.08-.66.6.6,0,0,0-.05-.24c-.35-.53-.71-1-1-1.58a6,6,0,0,1-.39-.85c-.18-.53-.33-1.08-.46-1.63q-.09-.35-.15-.72t0-.84c0-.26,0-.5,0-.78a11.86,11.86,0,0,1,.19-1.35c.05-.28.14-.56.18-.82s.09-.56.12-.82.08-.43.13-.64.12-.54.16-.82.14-.53.19-.79a1.6,1.6,0,0,0,0-.57.56.56,0,0,1,0-.33,1,1,0,0,0,0-.49c0-.09,0-.54,0-.63a1,1,0,0,0,0-.29c0-.22-.09-.43-.12-.64a.41.41,0,0,0,0-.08.33.33,0,0,0,.1.06l.05.1c.11.25.21.49.32.72s.28.49.43.72c.28.46.54.92.82,1.37s.51.8.74,1.23a5.94,5.94,0,0,1,.53,1.11c.06.23.13.45.19.68a3.91,3.91,0,0,1,.2.9,3.11,3.11,0,0,1,0,.61C26.92,9.54,27,9.69,27,9.84ZM41,46.73a4.71,4.71,0,0,0-.15-1.39,3,3,0,0,1-.13-.79c-.1-.51-.2-1-.28-1.54s-.19-.87-.28-1.3S40,41,39.93,40.66a.09.09,0,0,0,0,0l-.07,0a.2.2,0,0,0,0,.11,4.65,4.65,0,0,1-.44,1.63,8.52,8.52,0,0,1-.58,1.26c-.25.41-.52.79-.8,1.19s-.45.62-.69.91a12.82,12.82,0,0,0-.77,1.2,1.16,1.16,0,0,1-.27.31c-.05,0-.14.17-.23,0s0-.22,0-.25a7.09,7.09,0,0,0,.51-.75,3.46,3.46,0,0,0,.54-1.15,3.66,3.66,0,0,0,.1-.56,13.47,13.47,0,0,0,.05-1.68c0-.42-.06-.85-.11-1.26a8.07,8.07,0,0,0-.22-1.11c-.08-.4-.24-.78-.31-1.19a6.18,6.18,0,0,0-.93-2.23,7.61,7.61,0,0,1-.35-.7c-.21-.38-.43-.76-.61-1.15a3.94,3.94,0,0,1-.32-1c0-.08-.09-.18-.12-.28A4.26,4.26,0,0,1,34,32.55v-.28s0-.05,0-.08-.06.05-.06.07a2.6,2.6,0,0,1-.27.7,5,5,0,0,0-.23,1.84,4.28,4.28,0,0,0,.23.92,2.91,2.91,0,0,1,.18.64,6.74,6.74,0,0,1,.17,1,4.57,4.57,0,0,1,0,.9,4.67,4.67,0,0,1-.18.64,6.7,6.7,0,0,1-.67,1.69c-.12.18-.14.4-.27.58s-.19.46-.32.67a8.23,8.23,0,0,0-.68,1.28c-.1.23-.24.43-.36.66s-.29.61-.44.92c0,0,0,.06,0,.08a2.27,2.27,0,0,0-.42.8,1.78,1.78,0,0,0-.28.82.82.82,0,0,1-.07.33.17.17,0,0,1-.13.08s-.1,0-.1-.09a1,1,0,0,1-.05-.33,2.85,2.85,0,0,0,0-1.09.61.61,0,0,1,0-.14,4.88,4.88,0,0,0-.25-1.43c-.15-.51-.33-1-.48-1.49a5.13,5.13,0,0,1-.16-.87,4.6,4.6,0,0,0-.07-1c.07-.48.1-1,.2-1.42A6.57,6.57,0,0,1,30,37c.27-.49.57-1,.8-1.51a10.43,10.43,0,0,0,.82-2.29c.05-.33.13-.64.16-1a2.68,2.68,0,0,0,0-.69,10.82,10.82,0,0,0-.24-1.1c-.17-.53-.38-1-.54-1.56a1.41,1.41,0,0,1-.05-.95,1.92,1.92,0,0,0,.05-.63,2.34,2.34,0,0,1,.16-.75c.12-.53.26-1,.38-1.58.06-.28.06-.57.13-.87A1.94,1.94,0,0,0,31.42,23a3.2,3.2,0,0,1-.09-.54,1,1,0,0,0-.09-.18l-.07,0s0,0,0,0c0,.36,0,.74-.07,1.1a.53.53,0,0,1,0,.18c-.13.31-.24.63-.36.92,0,.08,0,.2-.16.22s-.07,0-.08.08c-.1.44-.46.72-.68,1.08a7.24,7.24,0,0,0-.6,1,8.91,8.91,0,0,0-.36,1,1.51,1.51,0,0,0-.09.48c0,.57,0,1.15,0,1.72,0,.15,0,.26.05.39a4.87,4.87,0,0,1-.24,1.38c0,.1-.09.2-.1.3a2.48,2.48,0,0,1-.23.61c-.15.31-.35.59-.49.9a3.73,3.73,0,0,1-.53.74c-.29.31-.64.59-.92.93-.46.54-1,1.07-1.39,1.66A7.1,7.1,0,0,1,24,38.13a2.9,2.9,0,0,0-.48.64A13.21,13.21,0,0,0,22.87,40a15.74,15.74,0,0,0-.73,1.87c-.14.45-.31.89-.41,1.33s-.24.81-.29,1.22-.13.65-.15,1a7.54,7.54,0,0,1-.16.93v.1c0,.61-.09,1.22-.05,1.82a5.45,5.45,0,0,0,.26,1.3c.06.3.18.58.26.87,0,.13-.18.43-.31.38a.38.38,0,0,1-.16-.21c-.09-.27-.15-.55-.22-.81,0,0,0,0,0-.08,0-.33,0-.64-.07-1s0-.82-.09-1.23a7.2,7.2,0,0,1-.07-.8c0-.37-.07-.74-.07-1.1,0-.66,0-1.33.07-2,0-.46.07-.9.11-1.34s.07-.69.12-1,.16-.77.25-1.14.06-.6.11-.89.18-.74.28-1.1c.33-1.31.77-2.58,1.2-3.84.23-.71.41-1.44.62-2.17.08-.28.2-.55.28-.83s.2-.78.31-1.15a5,5,0,0,0,.13-1c0-.33,0-.64.05-1,.1-.56,0-1.13.07-1.71,0-.13.05-.26.05-.39,0-.46,0-.94-.07-1.41S24,23.69,24,23.21a10.7,10.7,0,0,0-.29-1.34,4.92,4.92,0,0,0-.27-.79c-.11-.29-.26-.59-.39-.87s-.25-.54-.38-.8c-.06-.1-.16-.2-.21-.3-.13-.26-.23-.52-.36-.79s-.27-.54-.43-.8c-.31-.54-.57-1.08-.84-1.66-.16-.36-.32-.72-.46-1.08A10.23,10.23,0,0,1,20,13.47a4,4,0,0,1-.05-.69,9.05,9.05,0,0,1-.05-1,6.44,6.44,0,0,1,.06-1.24A3.56,3.56,0,0,0,20,9.43q-.08-.69-.18-1.38A.18.18,0,0,0,19.8,8l-.15-.08s0,.1,0,.15c0,.28,0,.56-.06.83s-.17.37-.23.56a1.15,1.15,0,0,0-.13.49c0,.1-.09.22-.12.33-.08.28-.18.56-.23.84s-.23.64-.28,1a2.6,2.6,0,0,0,0,1.24s0,.11,0,.18a4,4,0,0,0,.11.83,4.22,4.22,0,0,1,.07.61l.15.84a6.46,6.46,0,0,1,.16,1,1,1,0,0,0,.05.33c0,.2.05.38.05.57s0,.68,0,1a1.21,1.21,0,0,1-.1.59,1,1,0,0,0-.08.45,5.87,5.87,0,0,0-.07.62,6.34,6.34,0,0,1-.13,1.16c-.08.3-.2.58-.25.86a9,9,0,0,0-.34,1.15.21.21,0,0,1-.1.16,1.1,1.1,0,0,0-.26.64,2.29,2.29,0,0,1-.17.46c-.29.61-.57,1.22-.9,1.79s-.79,1.16-1.15,1.76-1,1.39-1.51,2.1c-.29.44-.61.9-.87,1.37l-.85,1.43c-.13.22-.22.43-.35.64s-.24.4-.37.59a5.07,5.07,0,0,0-.46,1c-.15.49-.28,1-.41,1.47a7.84,7.84,0,0,0-.23.83c0,.16,0,.32-.07.47a6.72,6.72,0,0,0-.18,2c0,.06,0,.11,0,.14a.35.35,0,0,1-.15.12s-.08,0-.1-.1a.12.12,0,0,1-.05-.1c0-.31,0-.64,0-1,0-.11,0-.23,0-.34a1.6,1.6,0,0,0,0-.38,2.45,2.45,0,0,0,0-.38,4.63,4.63,0,0,1-.14-1A5.19,5.19,0,0,0,9.62,36c-.11-.43-.28-.85-.38-1.3s-.09-.78-.19-1.18C9,33.23,9,33,9,32.75a10.53,10.53,0,0,1-.05-1.26c0-.18,0-.37,0-.55A8,8,0,0,1,9,30.11v0c0-.05,0-.11,0-.16s-.09.08-.09.11a3.17,3.17,0,0,1-.26.86q-.16.62-.36,1.23c-.1.29-.25.57-.35.87-.18.49-.49.9-.7,1.37-.33.66-.74,1.27-1,1.92-.15.33-.33.63-.48,1s-.48,1-.67,1.44-.23.74-.35,1.12c0,.19-.11.39-.18.59s-.08.28-.11.42A14,14,0,0,1,4,42.25a4.71,4.71,0,0,0,0,.54c-.06.33-.05.66-.08,1s-.1.64-.15.95a3.78,3.78,0,0,0,0,1.46.38.38,0,0,1,0,.15c0,.36,0,.72,0,1.08a3.93,3.93,0,0,0,0,.49,4.78,4.78,0,0,0,0,.53,4.87,4.87,0,0,0,0,.54,4.8,4.8,0,0,0,.11.76v0c0,.29.05.59.05.87a5.68,5.68,0,0,0,.16,1c.12.43.17.86.27,1.28a5.86,5.86,0,0,0,.19.72c.13.43.25.87.41,1.3a13.16,13.16,0,0,0,.64,1.61c.23.48.43,1,.68,1.43a.28.28,0,0,1-.07.34c-.05.1-.16,0-.28,0l-2.25-.84c-.54-.19-1.1-.36-1.62-.6A15.84,15.84,0,0,1,.55,56,.44.44,0,0,0,.4,56s-.05.08-.05.08c.21.15.24.41.36.63.33.54.59,1.11.92,1.64a12.08,12.08,0,0,1,.62,1.31c.07.17.17.33.23.49a5.05,5.05,0,0,0,.61,1.15,13.08,13.08,0,0,0,.84,1.12,14.3,14.3,0,0,0,1,1c.53.48,1.08.94,1.59,1.43.28.28.63.48.92.72a1.31,1.31,0,0,0,.28.17c.82.42,1.64.87,2.48,1.28a11.19,11.19,0,0,0,1.82.7c.41.12.84.2,1.25.31l1.23.3h.18a3.66,3.66,0,0,1,.79.11,5.8,5.8,0,0,0,.74.07,4.28,4.28,0,0,1,1.28.16,2.27,2.27,0,0,0,.59.07l.08,0s0,0-.05-.06a2.85,2.85,0,0,0-.41-.26.14.14,0,0,0-.13,0c-.2.12-.36,0-.56,0-.41,0-.82-.2-1.25-.22a2.79,2.79,0,0,1-1-.19c-.14-.09-.34,0-.5-.1a8.17,8.17,0,0,1-1.37-.46c-.08,0-.18,0-.26-.1-.44-.23-.92-.43-1.34-.69a11.32,11.32,0,0,1-1.06-.8c-.42-.35-.88-.68-1.28-1.07s-.85-.61-1.19-1-.61-.74-.92-1.08A9.07,9.07,0,0,1,6,61.44c-.26-.38-.47-.77-.72-1.17a.3.3,0,0,1,0-.26.32.32,0,0,1,.23,0c.41.21.84.42,1.25.65A6.77,6.77,0,0,0,8,61.22a9.67,9.67,0,0,1,1.12.55c.39.19.78.39,1.18.57,0,0,.05,0,.06,0a.17.17,0,0,0,0-.07c-.28-.37-.58-.77-.89-1.13a8.86,8.86,0,0,1-.74-1c-.34-.52-.65-1-.95-1.57a7.58,7.58,0,0,1-.52-1.22A6,6,0,0,1,7,56.66a4.45,4.45,0,0,1-.22-1A3.14,3.14,0,0,0,6.67,55a3.43,3.43,0,0,1-.13-1.06,9.24,9.24,0,0,0-.1-1.17c-.05-.28,0-.54-.08-.82-.09-.56,0-1.11-.07-1.67-.08-.74,0-1.48,0-2.22.12-.26,0-.54,0-.82s0-.56,0-.84a1.09,1.09,0,0,1,0-.47c0-.12,0-.28,0-.43.07-.39,0-.79.08-1.16a6.86,6.86,0,0,1,.12-1.12.57.57,0,0,0,0-.13c0-.46,0-.94.06-1.41a2.5,2.5,0,0,1,.07-.54c0-.05.06-.1.13-.12s.08,0,.1.08.08.15.11.23c.22.46.4,1,.63,1.42A9.7,9.7,0,0,0,8.39,44c.31.42.59.88.9,1.32.18.25.4.48.59.71s.18.23.28.33,0,0,0,.08,0,.07.14.18a1.61,1.61,0,0,1,.27.36s0,.08,0,.1a.57.57,0,0,0,.13.1.39.39,0,0,0,0-.15,1.78,1.78,0,0,1,0-1,1.13,1.13,0,0,0,0-.41,7.43,7.43,0,0,1,.33-1.92c.11-.33.16-.65.28-1A7.2,7.2,0,0,1,12.18,41c.18-.28.33-.57.53-.85.39-.56.8-1.1,1.19-1.66a10.81,10.81,0,0,0,.78-1.13,5.84,5.84,0,0,1,.47-.64c.4-.49.77-1,1.17-1.46a12.33,12.33,0,0,0,1-1.35c.2-.31.39-.64.58-1,.39-.76.77-1.53,1.16-2.3A15.1,15.1,0,0,0,19.75,29c.08-.2.16-.38.23-.59a2.42,2.42,0,0,0,.13-.72,4.62,4.62,0,0,1,.11-.61c.07-.26.12-.54.18-.82s.09-.36.12-.54a1.76,1.76,0,0,0,.06-.39,2.81,2.81,0,0,0,0-.58,2.41,2.41,0,0,1-.11-.56,4.65,4.65,0,0,0-.13-.9,1.54,1.54,0,0,0-.2-.64c-.1-.16.05-.2.12-.23s.18,0,.21.12c.15.41.29.8.43,1.21.18.56.34,1.12.47,1.69a6.21,6.21,0,0,1,.12,1.21c0,.46.08.92.05,1.38s0,1.22-.07,1.82c0,.4,0,.79-.11,1.19a14,14,0,0,1-.3,1.46c-.1.39-.15.8-.25,1.21s-.19.84-.29,1.27c-.13.59-.33,1.14-.43,1.73a5,5,0,0,1-.23.89c-.13.48-.28.94-.36,1.41s-.18.68-.25,1-.11.56-.16.84-.08.31-.11.48c-.07.37-.12.75-.18,1.13a3.79,3.79,0,0,0-.12,1.16,4.7,4.7,0,0,1,0,.92c0,.15.09.3,0,.46a1.25,1.25,0,0,0,0,.51c0,.31,0,.63.07.94,0,.14.11.29.14.46l.45,1.64c-.12.15.16.28,0,.41.28.11.16.44.33.64a1.6,1.6,0,0,1,.18.56.31.31,0,0,1-.1.08l.05.05a.27.27,0,0,0,.06-.12c.05,0,.12.05.12.08a3,3,0,0,0,.54,1c.39.63.82,1.22,1.18,1.86.2.36.48.65.67,1,.1.18.22.37.31.56a8.2,8.2,0,0,1,.46.82s.1.07.17.12a1.84,1.84,0,0,1,.18-.56c.11-.31.16-.64.26-1A9.35,9.35,0,0,0,24,53.05c.07-.31.08-.61.13-.92a12.55,12.55,0,0,0,.12-2.21,1.15,1.15,0,0,1,.05-.41c0-.07-.05-.18-.05-.27a2.8,2.8,0,0,1,.06-.28c0-.14,0-.29,0-.44,0-.66,0-1.33.07-2a9.86,9.86,0,0,1,.16-1.33,4.58,4.58,0,0,0,.07-.55c.05-.39.13-.77.21-1.14s.2-.91.33-1.35.34-1.15.54-1.71a10.5,10.5,0,0,1,.53-1.24c.26-.5.55-1,.82-1.43s.39-.79.62-1.18a9.34,9.34,0,0,0,.56-1.25,2.58,2.58,0,0,1,.1-.33c0-.15.13-.2.24-.15s.15.12.05.22a6.36,6.36,0,0,1-.24,1.36,7.61,7.61,0,0,1-.5,1.75c-.18.45-.31.92-.45,1.37a3.66,3.66,0,0,1-.25.62,2.53,2.53,0,0,0-.23.8c-.12.46-.21.92-.3,1.4a5.16,5.16,0,0,0-.06.79v1.28a5.94,5.94,0,0,0,.23,1.47c.08.33.13.64.24,1s.14.44.23.65c.27.63.51,1.23.79,1.86.12.23.3.46.43.69a2.47,2.47,0,0,1,.19.36c.23.42.5.85.69,1.29A8,8,0,0,1,30,53.4a0,0,0,0,0,0,0l0,0a1.91,1.91,0,0,1,.07-.28c.23-.73.49-1.45.78-2.15.17-.45.35-.87.53-1.32a1.36,1.36,0,0,1,.21-.32c.33-.41.53-.91.81-1.33A7.49,7.49,0,0,1,33,47a5.17,5.17,0,0,0,.51-.85c.16-.3.33-.61.48-.91.06-.13.09-.28.14-.42a4.26,4.26,0,0,1,.22-.63,1.87,1.87,0,0,0,.16-.77A13.63,13.63,0,0,1,34.86,42a3.17,3.17,0,0,1,.12-.41,1.16,1.16,0,0,1,.14-.27s.12-.08.14-.06.09.11.08.16a9.61,9.61,0,0,0-.18,1.28c-.07.38-.22.74-.33,1.12s-.13.56-.21.84a4.09,4.09,0,0,0,0,1.05,10.87,10.87,0,0,0,0,1.14,5.31,5.31,0,0,0,.13.89l.15.92c.05.25.08.49.11.74a.12.12,0,0,1,0,.08A9.08,9.08,0,0,0,35,50.61c.07.47,0,1,.07,1.41a4.38,4.38,0,0,1,0,.72,7.43,7.43,0,0,1-.13.93c-.05.28-.1.56-.16.83s-.17.57-.25.85a.61.61,0,0,0,0,.13l.13,0c.28-.38.57-.75.84-1.15.11-.16.16-.34.27-.51.35-.57.73-1.11,1.09-1.67a5.67,5.67,0,0,0,.28-.61,3.83,3.83,0,0,0,.29-.7c.08-.33.27-.59.38-.91,0-.05.07-.1.1-.16s.13-.13.23-.08.1.14.08.23-.11.36-.15.54c-.11.44-.23.88-.33,1.33a.75.75,0,0,0,0,.15c0,.24,0,.47-.06.72s-.08.6-.12.9a3.18,3.18,0,0,1-.06.43c-.12.57-.25,1.15-.36,1.74-.07.37-.09.78-.18,1.16s-.18.79-.3,1.17a4.63,4.63,0,0,0-.11.56A6,6,0,0,1,36.06,60c-.15.3-.23.61-.38.92s-.37.69-.56,1-.37.74-.55,1.1a4.74,4.74,0,0,1-.36.58,5.19,5.19,0,0,0-.37.65c-.19.28-.24.63-.52.86a2,2,0,0,0-.31.44,1.28,1.28,0,0,1-.35.39,3.39,3.39,0,0,0-.47.46s0,.08,0,.13a.24.24,0,0,0,.12-.05l.5-.44c.07,0,.17-.06.23-.13s.07,0,.1,0l0,0a1.73,1.73,0,0,1,.26-.24,5.46,5.46,0,0,0,1.11-.87,16.84,16.84,0,0,1,1.4-1.28,3.25,3.25,0,0,0,.82-1,4.33,4.33,0,0,1,.48-.77,5.94,5.94,0,0,0,.65-1.22,3,3,0,0,1,.45-.8,4.37,4.37,0,0,0,.54-1.3c.06-.21.11-.41.18-.61.16-.47.37-.93.49-1.41s.29-.93.46-1.39c0-.17,0-.35,0-.53.13-.39.23-.82.33-1.23s.14-.71.21-1.05.13-.52.18-.79,0-.33.07-.47c0-.4,0-.77.06-1.15,0-.54,0-1.09.07-1.61A8.13,8.13,0,0,0,41,46.73Z"/><path id="fill4" class="cls-3" d="M37.44,51.44a1.14,1.14,0,0,1,0,.41,5.62,5.62,0,0,0-.15,1,4.13,4.13,0,0,1-.12.76c-.08.36-.11.74-.18,1.11,0,.17-.08.33-.11.5a6.83,6.83,0,0,0-.18.9,12.2,12.2,0,0,1-.27,1.26c-.06.32-.14.63-.21.94s-.1.51-.18.75a12,12,0,0,1-.75,1.84c-.25.53-.58,1-.79,1.53a5.64,5.64,0,0,1-.54,1,2.89,2.89,0,0,0-.38.69,5.51,5.51,0,0,1-.38.67c-.13.21-.28.41-.43.61s-.21.23-.32.34-.32.32-.48.48-.23.25-.36.36a6.45,6.45,0,0,1-.66.51,4.18,4.18,0,0,0-.69.57s-.06,0-.1,0c-.22.1-.47.22-.7.3-.07,0-.12.13-.16,0a.33.33,0,0,1,.11-.15,3.85,3.85,0,0,0,.38-.23,4.89,4.89,0,0,0,1.05-1c.23-.36.59-.59.82-.94s.38-.47.56-.74.49-.72.72-1.09c.38-.6.74-1.2,1.1-1.81.18-.28.31-.57.46-.85s.44-.76.6-1.17.23-.51.33-.79a6.45,6.45,0,0,0,.27-1,3.25,3.25,0,0,0,0-.82c0-.13,0-.36-.23-.4s-.3.12-.4.25a5.6,5.6,0,0,1-.6.69,7.62,7.62,0,0,1-1,.79c-.37.28-.77.54-1.16.79a8.08,8.08,0,0,1-1.1.64l-.1,0s0-.08,0-.11c.15-.28.28-.57.43-.87a2.85,2.85,0,0,0,.41-.84c.05-.19.1-.37.16-.55a5.56,5.56,0,0,0,.38-2.12c0-.12,0-.25,0-.36,0-.28.15-.56.18-.86s0-.82.07-1.23a4,4,0,0,1,0-.69A6.65,6.65,0,0,0,33,51.41c0-.1,0-.2-.13-.23s-.17.08-.2.16-.2.46-.31.68c-.25.51-.51,1-.77,1.47s-.35.64-.53,1a6.89,6.89,0,0,1-.38.62c-.16.26-.34.51-.49.77a5.65,5.65,0,0,0-.31.66l-.54,1.23a.13.13,0,0,1-.12.05s-.08,0,0-.1,0-.15,0-.21a2.46,2.46,0,0,0-.17-.71c-.08-.3-.19-.57-.26-.87a4.37,4.37,0,0,0-.48-1c-.21-.39-.45-.76-.67-1.15a6.8,6.8,0,0,1-.44-1c-.13-.4-.26-.77-.36-1.17s-.3-.74-.41-1.11-.2-.79-.3-1.2c0-.18-.13-.36-.18-.54a.17.17,0,0,0-.2-.15c-.11,0-.11.15-.09.25a.13.13,0,0,0,.05.06c0,.1,0,.2.06.3,0,.29,0,.59.05.88.05.54,0,1.1,0,1.66,0,.12-.09.23-.07.31a2.14,2.14,0,0,1,.05.94c0,.44-.13.9-.16,1.36a7.1,7.1,0,0,1-.12,1.13c-.11.43-.21.86-.31,1.28s-.13.58-.21.84-.2.59-.33.89-.23.47-.35.72-.21.18-.34,0a5.54,5.54,0,0,0-1.08-.63,4.45,4.45,0,0,1-.79-.47l-.68-.54c-.16-.14-.34-.27-.52-.4s-.61-.52-.94-.77a3.81,3.81,0,0,1-1-1c-.28-.36-.55-.74-.81-1.13a.93.93,0,0,0-.26-.33c0-.23-.17-.35-.25-.53a6.87,6.87,0,0,1-.6-1.29.23.23,0,0,0-.09-.12s-.11.12-.08,0a1.85,1.85,0,0,0-.2-.74c-.09-.31-.23-.59-.34-.91a2.54,2.54,0,0,1-.18-.41c0-.08,0-.19-.05-.26a.32.32,0,0,1-.08-.24.64.64,0,0,0-.12-.5.22.22,0,0,1-.05-.08c.12-.29-.06-.56-.09-.85s-.15-.63-.2-.95,0-.45,0-.66a3.4,3.4,0,0,1,0-.64,8.46,8.46,0,0,0,.05-.87.88.88,0,0,1,0-.23c.06-.21.13-.41,0-.61,0,0,0,0,0,0,.21-.16,0-.43.16-.59a7.59,7.59,0,0,1,.12-1.08,5.78,5.78,0,0,0,.11-1,14.61,14.61,0,0,1,.27-1.47,14.51,14.51,0,0,0,.34-1.59,1.76,1.76,0,0,1,.07-.4c.18-.56.39-1.11.57-1.67a5.65,5.65,0,0,0,.26-.94c0-.15,0-.18-.11-.23s-.12,0-.15.1a.8.8,0,0,1-.15.21c-.16.28-.29.56-.47.83-.45.68-.86,1.39-1.25,2.11-.1.17-.2.35-.3.49-.28.4-.47.83-.72,1.24a8.82,8.82,0,0,0-.41.88c-.23.51-.57,1-.79,1.5s-.41,1-.6,1.52a5.74,5.74,0,0,0-.23.81,12,12,0,0,0-.25,1.33c-.05.6,0,1.19-.07,1.8a6.32,6.32,0,0,0,.07,1c0,.2.07.41.1.61.06.36.13.72.2,1.08a5,5,0,0,0,.06.54c.07.36.15.72.23,1.07a.29.29,0,0,1,0,.08h-.09c-.15-.19-.3-.37-.43-.55s-.38-.49-.58-.75l-.59-.81c-.18-.21-.31-.46-.5-.64a.58.58,0,0,1-.17-.19,2.3,2.3,0,0,0-.43-.72C9.38,48,9,47.31,8.64,46.62c-.15-.27-.3-.51-.45-.76S8,45.8,8,45.81s-.09.12-.07.15c.12.2.07.39.12.59.08.35.09.71.16,1.07s0,.64.07,1v.08c.06.35.13.68.16,1a3.51,3.51,0,0,1,0,.56c0,.19,0,.39,0,.59A4.84,4.84,0,0,1,8.57,52a1.46,1.46,0,0,0,0,.47c.11.48.08,1,.16,1.46,0,.18.05.36.07.55s0,.29,0,.44,0,.44.06.67.12.72.18,1.08.1.48.17.71a19.94,19.94,0,0,0,.82,2c.19.39.42.77.62,1.16A2.74,2.74,0,0,0,11,61c.23.35.49.66.72,1s.62.9.93,1.34a8.39,8.39,0,0,0,1.17,1.28c.06.07.15.14.21.2a1.93,1.93,0,0,1-.34,0,2.66,2.66,0,0,1-.38-.1l-1.12-.41c-.34-.11-.69-.24-1.06-.33a1.77,1.77,0,0,1-.89-.36,2.48,2.48,0,0,0-.36-.23L8.82,63a.25.25,0,0,0-.18,0c0,.06-.12.11,0,.21.49.52.94,1.08,1.43,1.59a11.06,11.06,0,0,0,.9.79,5.08,5.08,0,0,0,1.05.64c.08.07.2.1.28.16s.36.3.56.41a3.22,3.22,0,0,0,.64.33c.36.17.72.31,1.08.46a.15.15,0,0,0,.08,0l.28.11-.51-.1a6.94,6.94,0,0,1-.87-.31,8.54,8.54,0,0,1-2.26-1.13c-.17-.11-.3-.25-.46-.36-.54-.38-1-.82-1.54-1.25a5.2,5.2,0,0,0-.63-.51,3,3,0,0,1-.54-.41c-.2-.21-.34-.46-.54-.65a8.23,8.23,0,0,1-1.1-1.35c-.23-.38-.48-.74-.71-1.12,0,0,0-.06,0-.08s.07,0,.08,0l.41.23c.4.23.78.48,1.19.69s.65.26,1,.43c.53.29,1.08.51,1.62.77.32.15.6.33.91.49.05,0,.13.13.18,0s.05-.2,0-.23a7.75,7.75,0,0,1-.46-.66c-.32-.42-.67-.85-1-1.29s-.75-1-1.1-1.58A7.31,7.31,0,0,1,7.82,58a12.18,12.18,0,0,1-.5-1.31c-.11-.44-.21-.87-.31-1.31a8.15,8.15,0,0,1-.18-1.22c0-.41-.11-.8-.11-1.21a.38.38,0,0,0,0-.15,2.58,2.58,0,0,1-.12-.72,6.42,6.42,0,0,0,0-.76,5,5,0,0,1-.11-.87c0-.23,0-.46,0-.69,0-1.16,0-2.31,0-3.47a.64.64,0,0,0,0-.2,1.09,1.09,0,0,1,0-.62s0,0,0-.07a4,4,0,0,1,.1-1,5.65,5.65,0,0,0,.07-1.23c0-.43.08-.84.06-1.26a.19.19,0,0,1,0-.1l.07.06a.58.58,0,0,1,.06.17c.12.26.2.54.33.79s.43.67.66,1,.41.59.62.91.46.64.71,1l.78,1a7.8,7.8,0,0,1,.56.7c.08.1.13,0,.17,0a.34.34,0,0,0,0-.1.19.19,0,0,1,0-.1.54.54,0,0,1,0,.1c.05,0,.12.08.15.07s.1-.07.05-.19a1.65,1.65,0,0,1-.08-.59c0-.54,0-1.06.06-1.59a7.49,7.49,0,0,1,.15-.8,6.14,6.14,0,0,0,.2-.66A6.88,6.88,0,0,1,11.93,42a14.4,14.4,0,0,1,.91-1.51c.26-.41.54-.79.82-1.18s.44-.58.62-.89.35-.28.28-.54c0,0,.07-.07.1-.1a.87.87,0,0,1,.13-.15c.26-.33.54-.66.81-1s.26-.32.39-.48c.26-.33.51-.66.77-1s.36-.46.54-.71a14.16,14.16,0,0,0,1-1.77c.16-.35.36-.68.52-1l.3-.55c.08-.16.16-.34.23-.5a3.38,3.38,0,0,0,.23-.63,3.2,3.2,0,0,1,.26-.6c.13-.51.31-1,.46-1.51,0-.1,0-.23,0-.33a3.86,3.86,0,0,0,.17-.82c.08-.25.11-.51.18-.76a2.17,2.17,0,0,0,.06-1.21c0-.15-.11-.33.07-.46,0,0,0,0,0-.05s.07.06.07.08c-.13.36.1.67.08,1A6.52,6.52,0,0,1,21.24,27a11.45,11.45,0,0,1,0,1.31c0,.41,0,.82,0,1.23s-.06.89-.13,1.33-.07.64-.13,1-.08.49-.13.74c-.12.52-.27,1-.4,1.57s-.19.77-.29,1.17-.17.65-.25,1c-.11.51-.23,1-.36,1.52-.08.35-.2.69-.29,1S19,39.63,19,40a4.37,4.37,0,0,1-.12.49c0,.16-.08.34-.11.51-.07.36-.12.74-.18,1.1a4.17,4.17,0,0,0-.08.49,2.72,2.72,0,0,0-.08.8,7.57,7.57,0,0,1,0,.81c0,.7,0,1.41.05,2.1.05.34.15.69.23,1a3.45,3.45,0,0,1,.27,1s.09.1.11.15-.05.14-.05.21,0,0,0,.08c0,.26.22.48.2.76a.24.24,0,0,0,.15.16c.1,0,.13.07,0,.16s0,.1,0,.14c.17.34.31.68.49,1,.3.5.63,1,.94,1.46s.61,1,.9,1.43c.2.31.41.59.58.92a3.66,3.66,0,0,0,.7.94,2.85,2.85,0,0,0,.3.16c.05,0,.08,0,.11,0a.21.21,0,0,0,.1-.11,16,16,0,0,0,.48-1.63A10.29,10.29,0,0,0,24.24,53c.09-.43.14-.87.22-1.32a8.11,8.11,0,0,0,.06-1.1c0-.62,0-1.24.05-1.85s0-1,.07-1.54.05-.94.11-1.42c.05-.32.07-.67.13-1,.09-.5.13-1,.25-1.46s.3-1.17.48-1.74a7.19,7.19,0,0,1,.52-1.43,1.36,1.36,0,0,0,.13-.3c.18-.39.35-.78.54-1.15s.43-.7.63-1.06a3,3,0,0,0,.26-.58c.07-.16.2-.29.18-.49,0,0,0,0,0,0s.05,0,.05,0a1.52,1.52,0,0,1,0,.48c-.1.33-.26.64-.38,1s-.24.79-.39,1.17-.13.59-.26.89a3.2,3.2,0,0,0-.32,1.05c0,.31-.14.59-.19.88,0,.1,0,.2,0,.3a2.54,2.54,0,0,0-.11.87c0,.24,0,.47,0,.72s-.05.43,0,.64a7.81,7.81,0,0,0,.15,1c.05.23.17.46.2.69a4.66,4.66,0,0,0,.29,1.17,15.06,15.06,0,0,0,.74,1.77c.23.44.41.9.67,1.31a12.52,12.52,0,0,1,1.2,2.4,4,4,0,0,1,.27,1.06c0,.17.09.35.11.51s.07.1.13.1.18-.08.17-.21a3.23,3.23,0,0,1,.23-1.1,5.44,5.44,0,0,1,.31-.94l.54-1.42c.08-.25.23-.46.31-.71a2.47,2.47,0,0,1,.35-.66,9,9,0,0,0,.6-1,9,9,0,0,1,.58-1.06c.26-.4.52-.78.74-1.2.08-.18.19-.36.27-.54s0-.14.14-.1a.11.11,0,0,1,0,.13c0,.23,0,.46,0,.69s0,.74.06,1.11a.29.29,0,0,0,0,.1c.07.31.15.63.2.94s.08.72.12,1.08.09.85.11,1.26a14.71,14.71,0,0,0,.07,1.63,2.64,2.64,0,0,1-.12,1c-.08.36-.1.74-.2,1.12s-.26.9-.37,1.36a.18.18,0,0,0,0,.16.17.17,0,0,0,.18,0,1.75,1.75,0,0,0,.33-.28,6.07,6.07,0,0,0,.52-.64,4,4,0,0,0,.46-.62,13.46,13.46,0,0,1,.71-1.17,14.81,14.81,0,0,0,.79-1.26,1,1,0,0,0,.19-.58c0-.06.07-.13.1-.19l0-.07A.41.41,0,0,1,37.44,51.44Z"/><path id="fill3" class="cls-4" d="M35.45,58.12c-.05.3-.16.59-.23.89a.89.89,0,0,1-.11.31,7,7,0,0,0-.35.79A15.59,15.59,0,0,1,34,61.52a5,5,0,0,1-.36.62c-.18.28-.34.58-.51.86s-.34.52-.52.77-.38.62-.58.93-.36.46-.52.71l-.4.49S31,66,31,66c-.23.3-.47.59-.72.89a.07.07,0,0,1-.07,0s0,0,0-.06a.71.71,0,0,1,.07-.22c.06-.1.08-.18,0-.26a.23.23,0,0,0-.3,0c-.08,0-.13.13-.21.16-.26.15-.56.28-.82.46a3.26,3.26,0,0,1-1.51.44,3.42,3.42,0,0,1-.64,0c-.12,0-.23,0-.35-.06s-.26-.08-.34,0-.17,0-.21-.09-.14-.12,0-.1.29-.12.43-.2.37-.26.57-.38c.38-.21.77-.39,1.13-.62a9.49,9.49,0,0,0,1.22-.85c.39-.35.72-.79,1.11-1.17a9.33,9.33,0,0,0,1.25-1.67,2,2,0,0,0,.16-.4s0-.08-.06-.1-.2,0-.28.09a7.52,7.52,0,0,1-.66.57c-.28.2-.59.38-.9.56a5.6,5.6,0,0,1-.72.39,6.67,6.67,0,0,0-1,.5,1.86,1.86,0,0,1-.59.27c-.4.12-.79.18-1.19.3a.88.88,0,0,0,.09-.21c.05-.22.1-.43.13-.64s.06-.38.1-.58.09-.62.13-.93a1.21,1.21,0,0,0,0-.38c0-.12.06-.2,0-.33a2.35,2.35,0,0,1,0-.38,1.57,1.57,0,0,0-.07-.57,1,1,0,0,0-.21-.41c-.15-.17-.21-.15-.31.06s-.2.46-.33.66a9.94,9.94,0,0,1-1.31,1.76,4.31,4.31,0,0,0-.43.42,2.36,2.36,0,0,1-1,.73,1.82,1.82,0,0,1-1,.11,5.87,5.87,0,0,1-2.35-1.15,8,8,0,0,1-1.28-1.39c-.33-.43-.61-.87-.89-1.32a3,3,0,0,1-.47-.78c-.17-.4-.35-.78-.53-1.15a2.86,2.86,0,0,0-.36-.48.33.33,0,0,0-.19-.06c0,.08-.15.13-.05.23a1.11,1.11,0,0,0,0,.13c0,.26,0,.52.06.78.07.43.15.86.25,1.27,0,.13,0,.29.18.38s0,.06,0,.09-.09,0-.13,0-.08,0-.11-.1a1.17,1.17,0,0,1-.23-.38,3.9,3.9,0,0,0-.36-.5c-.3-.46-.61-.91-.89-1.37s-.43-.77-.64-1.18-.25-.54-.38-.82a6.58,6.58,0,0,1-.29-.66.16.16,0,0,0-.2-.11.22.22,0,0,0-.1.18,6.65,6.65,0,0,0-.11,1c0,.44,0,.89,0,1.35v0a2.46,2.46,0,0,1,.11.64c0,.19,0,.41.07.6A7.49,7.49,0,0,0,14,60.76c0,.07.12.12.12.17a1,1,0,0,0,.18.52,4.91,4.91,0,0,0,.82,1.4,6,6,0,0,1,.56.67,7.58,7.58,0,0,0,.72.89c.52.6,1.17,1.08,1.72,1.67l.13.1c.3.23.6.44.89.69a1,1,0,0,1,.18.18.1.1,0,0,1,0,.07h0a4,4,0,0,0-.82-.18.65.65,0,0,0-.2,0,4.78,4.78,0,0,0-1.41.12,2.52,2.52,0,0,0-.62.21c-.2.1-.18.21,0,.33l1.07.52.08.07c-.05,0-.1.07-.13,0a12.33,12.33,0,0,0-2-.41l-.13,0a3.45,3.45,0,0,0-.39-.25l-.21-.13-.94-.49c-.11,0-.21-.12-.31-.17a2.14,2.14,0,0,1-.45-.24,5.2,5.2,0,0,0-1.11-.73,2.65,2.65,0,0,1-.74-.51.41.41,0,0,0-.15-.14c-.47-.23-.7-.71-1.08-1-.15-.14-.3-.31-.44-.46a.16.16,0,0,1,0-.08s.08,0,.1,0a3.77,3.77,0,0,1,.73.41,2.1,2.1,0,0,0,.45.23c.29.09.6.21.92.29.49.15,1,.33,1.44.53a4.7,4.7,0,0,0,1.61.31c.1,0,.21,0,.24-.1a.23.23,0,0,0-.11-.28L14,64.37a3.72,3.72,0,0,1-.46-.41,9.34,9.34,0,0,1-.63-.78c-.31-.41-.6-.82-.92-1.23-.08-.12-.19-.22-.28-.33-.31-.49-.59-1-.88-1.5,0-.06-.07-.14-.12-.21a7.4,7.4,0,0,1-.82-1.67c-.08-.2-.19-.4-.28-.59a7,7,0,0,1-.19-.76c-.12-.39-.13-.79-.22-1.16a4.75,4.75,0,0,1-.06-.84v-.1A3,3,0,0,1,9,53.85c0-.45-.06-.9-.13-1.36a9.36,9.36,0,0,1-.06-1.2,1.23,1.23,0,0,0-.1-.6.65.65,0,0,1-.07-.48c.07-.15,0-.23,0-.34s0-.27,0-.4a.34.34,0,0,0,0-.16,5.68,5.68,0,0,1-.14-.92,2.5,2.5,0,0,0-.07-.54c0-.05,0-.1,0-.17a4.47,4.47,0,0,0-.22-1,.32.32,0,0,1,0-.09s0,0,0,0h.05c.08.17.16.31.24.48.17.36.4.67.54,1,.09.15.18.3.28.45.31.46.64.91,1,1.36l.89,1.2c.23.29.44.6.67.91s.35.43.53.64.21.14.36,0,.28-.26.25-.39-.14-.39-.18-.61-.09-.52-.12-.78a7.19,7.19,0,0,0-.15-.91,6.49,6.49,0,0,1-.21-1.82c0-.67,0-1.36.05-2a3,3,0,0,1,.13-.79c.1-.35.15-.69.26-1s.3-.75.46-1.11.27-.64.41-.94.25-.46.38-.69.28-.55.39-.83.3-.59.45-.87c.29-.58.65-1.12,1-1.68s.47-.82.7-1.23c.14-.21.25-.42.38-.62,0,0,.07-.05.1-.08s0,.11,0,.14l-.3.66a3.65,3.65,0,0,0-.36,1.31,2.42,2.42,0,0,1-.06.48,10.61,10.61,0,0,0-.35,1.48,1.46,1.46,0,0,1-.1.34c0,.3-.09.59-.13.9s0,.45-.06.66-.13.72-.18,1.1a4.43,4.43,0,0,1,0,.72s0,.13,0,.2a3.39,3.39,0,0,1,0,.46c0,.08,0,.18,0,.26a5.93,5.93,0,0,1,0,.85c0,.1,0,.2,0,.3s-.07.18,0,.29-.05.17-.05.27a3.53,3.53,0,0,0,.15,1.21,8.33,8.33,0,0,1,.26,1.07c0,.47.18.93.25,1.41,0,.1.08.2.11.3a2.67,2.67,0,0,0,.09.26c.09.26.23.54.32.8a3.3,3.3,0,0,1,.25.63,2.1,2.1,0,0,0,.3.69,1.24,1.24,0,0,1,.18.21,11.47,11.47,0,0,0,.55,1.11c.32.53.73,1,1,1.51a2.22,2.22,0,0,0,.39.48c.28.25.59.48.89.72a6,6,0,0,0,.74.59,9.74,9.74,0,0,1,.78.63,5.41,5.41,0,0,0,1,.65c.37.18.73.4,1.1.59a1.65,1.65,0,0,1,.24.22.57.57,0,0,0,.49.06s.07-.18.1-.26.1-.25.15-.36c.16-.41.36-.8.51-1.23a11.53,11.53,0,0,0,.29-1.12c.05-.16.1-.31.14-.46.06-.36.14-.7.21-1a1,1,0,0,0,0-.34s-.1-.08-.12-.13.15.08.13-.07,0-.15,0-.21c0-.35,0-.69.07-1,0,0,0-.07,0-.1a2.06,2.06,0,0,0,.11-.85A2.44,2.44,0,0,1,26,52.3V50.51a.19.19,0,0,1,.05-.1.19.19,0,0,0,0,.08,5.17,5.17,0,0,0,.28.84,4.23,4.23,0,0,1,.31,1,4.59,4.59,0,0,0,.56,1.44c.43.66.79,1.37,1.15,2.06.05.08.05.18.1.26a14.19,14.19,0,0,1,.46,1.61c.08.28.24.55.08.87,0,0,.07.11.11.16a.19.19,0,0,0,.12-.07.85.85,0,0,0,.11-.27.79.79,0,0,1,.1-.37,4.21,4.21,0,0,0,.31-.64c.22-.44.4-.9.61-1.33s.53-.9.79-1.34c.16-.28.36-.53.51-.81s.44-.83.65-1.26a2.76,2.76,0,0,0,.2-.47s-.05-.17.07-.15,0,.11,0,.16a.38.38,0,0,1,0,.15,4.78,4.78,0,0,0-.18,1.25c0,.37,0,.75,0,1.13v.06a2.82,2.82,0,0,0-.18,1c-.05.36,0,.75-.07,1.13a2.36,2.36,0,0,1-.1.46c-.08.33-.16.66-.26,1a2.15,2.15,0,0,1-.26.64,4,4,0,0,0-.5.93,1.83,1.83,0,0,1-1,1.13c-.05,0-.1.09-.16.09s-.09.14-.07.19a.2.2,0,0,0,.13.1,1.52,1.52,0,0,0,.51-.16,1.9,1.9,0,0,1,.64-.46c.3-.12.56-.3.84-.44a6,6,0,0,0,.75-.48,11.25,11.25,0,0,0,1.28-.89.15.15,0,0,1,.09-.06,3.49,3.49,0,0,0,.77-.63c.14-.16.31-.32.46-.52,0,0,.13-.12,0-.2s0-.06.05-.08,0,0,.06.07A1.12,1.12,0,0,1,35.45,58.12Z"/><path id="fill2" class="cls-5" d="M31,62.6s0,.08,0,.12a6.29,6.29,0,0,1-.48.67c-.26.3-.57.56-.82.89a4.83,4.83,0,0,1-.87.82,7.21,7.21,0,0,1-.72.51,7.49,7.49,0,0,1-.72.42c-.13.07-.28.1-.4.18l-.77.53c-.21.13-.41.24-.62.38a1.29,1.29,0,0,0-.26.08.16.16,0,0,0,0,.29l.13.05a5.65,5.65,0,0,0,1.62.3,4.33,4.33,0,0,0,.73,0,2.93,2.93,0,0,0,.6-.15A6,6,0,0,0,29.56,67l.25-.13c.11-.05.19,0,.15.15a.72.72,0,0,1-.19.25l-1.57,1a.89.89,0,0,1-.38.18,7.22,7.22,0,0,0-.74.18c-.29.07-.6.12-.9.17a3.7,3.7,0,0,0-.48.06,2.34,2.34,0,0,1-1,.18.18.18,0,0,0-.11,0,5.58,5.58,0,0,1-.68.1c-.56,0-1.1,0-1.65,0a7.36,7.36,0,0,0-1.32,0c-.05,0-.1.07-.15.1a2.73,2.73,0,0,1-.55-.15h-.09A5.25,5.25,0,0,0,19,68.92c-.22,0-.45,0-.56-.28a.64.64,0,0,0-.2-.2c-.23-.14-.44-.29-.67-.44s-.56-.31-.84-.44c-.08,0-.2,0-.25-.13a1.25,1.25,0,0,1,.27-.12,5.94,5.94,0,0,1,.93-.13,4.18,4.18,0,0,1,.5,0c.32,0,.64.1.95.16s.39.08.6.13c.05,0,.15,0,.17-.06a.23.23,0,0,0,0-.2,2.5,2.5,0,0,0-.23-.23l-.79-.67a9.56,9.56,0,0,1-1-.89c-.05-.06-.11-.11-.16-.16-.23-.18-.46-.36-.67-.56s-.46-.49-.69-.76a3.25,3.25,0,0,1-.38-.44c-.34-.43-.69-.87-1-1.31a1.36,1.36,0,0,1-.29-.46,5.91,5.91,0,0,0-.43-1,7.12,7.12,0,0,1-.41-1,4.34,4.34,0,0,1-.31-1.52,3.4,3.4,0,0,0-.08-.53,3.23,3.23,0,0,1-.09-.92c0-.26,0-.54,0-.8,0-.05,0-.1,0-.15a.63.63,0,0,1,.1.12l0,.11.42,1c.13.27.28.55.41.82s.25.42.38.62.46.62.64,1a6.81,6.81,0,0,0,.81,1,.92.92,0,0,1,.32.43c0,.11.14.21.2.33a5.24,5.24,0,0,0,.3.51s.11.11.18.09.13-.09.11-.19-.05-.09-.06-.13-.25-.35-.37-.55a2.27,2.27,0,0,1-.21-.73c-.06-.3-.13-.61-.2-.91l-.09-.52c0-.22-.05-.41-.09-.63,0,0,0-.05,0-.08l.05.08.34.81c.12.24.22.51.35.72a21.68,21.68,0,0,0,1.38,1.92,7.49,7.49,0,0,0,1.13,1.26,4.69,4.69,0,0,0,.89.58c.29.15.59.28.88.41a2.61,2.61,0,0,0,1.61.2,2.57,2.57,0,0,0,1.12-.59,9.93,9.93,0,0,0,1.24-1.35,4.67,4.67,0,0,0,.64-.89l.4-.77s.05,0,.06-.06l.05.06a7,7,0,0,1,.12,1,6.72,6.72,0,0,1-.12,1,3.1,3.1,0,0,1-.08.69,7,7,0,0,0-.18,1,.75.75,0,0,0,0,.31.25.25,0,0,0-.11.17c0,.1.1.13.2.11l.21,0c.28-.06.57-.11.85-.19a2.92,2.92,0,0,0,.92-.37A2,2,0,0,1,29,63.8a6.93,6.93,0,0,0,1.59-.9c.11-.08.29-.07.34-.23S31,62.62,31,62.6Z"/><path id="fill1" d="M19.87,50.17s.1,0,.11.08a3.48,3.48,0,0,0,.53,1c.4.62.83,1.22,1.19,1.86.2.36.48.65.67,1l.31.56c.16.27.32.54.47.82,0,.05.26.14.27.19a1.52,1.52,0,0,1-.06.2,2.82,2.82,0,0,1-.29-.18,3.28,3.28,0,0,1-.71-.93c-.16-.32-.39-.61-.58-.92l-.9-1.42c-.31-.49-.64-1-.93-1.47a10.67,10.67,0,0,1-.49-1s0-.11,0-.13,0-.12-.06-.16-.14-.11-.13-.17c0-.28-.19-.49-.21-.76,0,0,0-.05,0-.07a.54.54,0,0,0,0-.21c0-.06-.1-.11-.1-.16a4.33,4.33,0,0,0-.26-1,8.26,8.26,0,0,1-.24-1c-.1-.7,0-1.4-.05-2.1a7.44,7.44,0,0,0,0-.81,3.17,3.17,0,0,1,.07-.8c0-.17.06-.33.09-.5.06-.36.12-.72.19-1.09,0-.17.07-.34.11-.52L19,40c.08-.36.15-.73.24-1.09s.21-.69.3-1l.36-1.52c.08-.34.15-.68.24-1s.2-.77.29-1.16.29-1,.4-1.57c.05-.25.08-.5.14-.75s.08-.64.12-1,.08-.89.14-1.33,0-.82,0-1.23a11.43,11.43,0,0,0,0-1.31A5.57,5.57,0,0,0,21,25.34c0-.33-.21-.65-.07-1,0,0,0-.06-.06-.09l-.05,0c-.17.14-.09.32-.05.46A2.4,2.4,0,0,1,20.71,26c-.07.25-.12.51-.19.76a4.08,4.08,0,0,1-.17.83c0,.08,0,.22,0,.32-.15.5-.33,1-.47,1.51-.05.22-.22.37-.25.61a2.9,2.9,0,0,1-.23.62c-.07.17-.16.33-.24.5l-.28.54c-.18.33-.36.66-.53,1a12.61,12.61,0,0,1-1,1.77c-.17.24-.36.47-.54.7l-.78,1c-.12.16-.26.31-.38.47l-.81,1-.14.15s-.1.08-.09.1c.07.27-.18.37-.28.54s-.42.59-.62.88-.57.78-.82,1.19a15.36,15.36,0,0,0-.91,1.5,6.66,6.66,0,0,0-.55,1.63c0,.22-.14.44-.19.66A4.53,4.53,0,0,0,11,45c0,.53,0,1.06-.06,1.59a1.91,1.91,0,0,0,.08.59c0,.11,0,.15-.05.19s-.1,0-.14-.07,0-.07,0-.1a.45.45,0,0,0,0,.11s0,.06,0,.09-.08.12-.16,0-.37-.47-.55-.7-.54-.67-.8-1l-.69-1-.64-.9c-.22-.34-.45-.67-.65-1s-.22-.52-.33-.79a.94.94,0,0,0-.06-.15.16.16,0,0,0-.07-.07s0,.06,0,.09c0,.43-.1.84-.07,1.27a5.06,5.06,0,0,1-.07,1.23,5.25,5.25,0,0,0-.11,1s0,0,0,0a1.13,1.13,0,0,0,0,.63.71.71,0,0,1,0,.2c0,1.16,0,2.31,0,3.47,0,.23,0,.46,0,.69a4.41,4.41,0,0,0,.11.88,3.66,3.66,0,0,1,0,.74,2.59,2.59,0,0,0,.12.73.75.75,0,0,1,0,.15c0,.41.11.81.11,1.21A6.3,6.3,0,0,0,7,55.4c.1.43.19.87.31,1.31A10.38,10.38,0,0,0,7.82,58a8.43,8.43,0,0,0,.75,1.3c.35.54.72,1.06,1.1,1.58s.66.86,1,1.29a3,3,0,0,0,.46.65.34.34,0,0,1,0,.24c0,.11-.13,0-.19,0-.3-.17-.59-.35-.9-.5-.53-.26-1.1-.48-1.62-.77-.32-.17-.67-.25-1-.42s-.78-.46-1.18-.69l-.41-.23s0,0-.08,0a.2.2,0,0,0,0,.08c.23.38.47.74.7,1.12A7.79,7.79,0,0,0,7.56,63c.2.2.36.45.56.66a2.45,2.45,0,0,0,.54.42,3.75,3.75,0,0,1,.61.51c.51.42,1,.87,1.55,1.24.16.11.29.25.45.35a9.21,9.21,0,0,0,2.28,1.15c.29.08.56.24.86.3l.82.17a11.05,11.05,0,0,1,2,.41s.1,0,.15,0a.39.39,0,0,0-.1-.08l-1.06-.53c-.2-.1-.22-.22,0-.32a3.62,3.62,0,0,1,.63-.22,4.78,4.78,0,0,1,1.41-.12l.19,0a4.7,4.7,0,0,1,.83.17s0,0,0,0,0,0,0-.06-.11-.13-.18-.19l-.88-.68a1.7,1.7,0,0,1-.14-.1c-.55-.59-1.19-1.07-1.73-1.67a7.78,7.78,0,0,1-.72-.89,7,7,0,0,0-.55-.67,5.14,5.14,0,0,1-.82-1.39,1.08,1.08,0,0,1-.18-.53s-.08-.1-.11-.16a7.31,7.31,0,0,1-.66-1.7c-.05-.19,0-.4-.07-.6a2.32,2.32,0,0,0-.11-.64s0,0,0-.06c0-.44-.06-.89-.06-1.34a8.27,8.27,0,0,1,.12-1,.25.25,0,0,1,.1-.18c.09,0,.16,0,.2.12s.19.44.29.65.25.56.39.83.4.79.63,1.17.59.91.89,1.37a2.44,2.44,0,0,1,.35.51,2.45,2.45,0,0,0,.24.38.35.35,0,0,0,.11.1s.09,0,.14,0,0-.08,0-.09-.15-.25-.18-.38c-.1-.42-.18-.84-.25-1.27,0-.26-.05-.52-.07-.78a.18.18,0,0,0,0-.13c-.09-.11.07-.15.05-.23s.16,0,.2.06a2.67,2.67,0,0,1,.36.47,12.06,12.06,0,0,1,.52,1.16,4.07,4.07,0,0,0,.48.79c.29.44.57.89.89,1.3a7.86,7.86,0,0,0,1.29,1.41,6,6,0,0,0,2.33,1.14,1.68,1.68,0,0,0,1-.11,2.36,2.36,0,0,0,1-.73,5.55,5.55,0,0,1,.42-.42,9.85,9.85,0,0,0,1.33-1.75c.12-.21.21-.45.32-.67s.16-.23.3-.06a1.2,1.2,0,0,1,.23.41,3.7,3.7,0,0,1,.07.57,1.27,1.27,0,0,0,0,.39c0,.12,0,.2,0,.31a1,1,0,0,1,0,.39c0,.31-.08.62-.13.93s-.07.39-.1.58-.08.43-.13.64a2.74,2.74,0,0,1-.18.38c-.06,0-.08-.4-.08-.45a5.6,5.6,0,0,1,.2-1,5.2,5.2,0,0,0,.07-.69,6.66,6.66,0,0,0,.12-1,5.8,5.8,0,0,0-.12-1,.43.43,0,0,0,0-.07s-.07,0-.08.06c-.13.26-.25.52-.38.77a5.81,5.81,0,0,1-.65.89,9.29,9.29,0,0,1-1.24,1.34,2.43,2.43,0,0,1-1.12.59,2.62,2.62,0,0,1-1.61-.2c-.3-.12-.59-.26-.88-.4a4.59,4.59,0,0,1-.9-.58,8,8,0,0,1-1.13-1.26,21.47,21.47,0,0,1-1.36-1.92A4.79,4.79,0,0,1,16.7,59l-.36-.81,0-.08s0,.06,0,.08l.09.62.09.53c.07.3.14.6.2.9a2.71,2.71,0,0,0,.22.75c.11.19.24.36.35.54a.33.33,0,0,1,.07.13c0,.09,0,.19-.11.2a.3.3,0,0,1-.19-.1c-.1-.16-.19-.34-.29-.51a1.61,1.61,0,0,1-.2-.33c0-.21-.2-.3-.32-.43a6.31,6.31,0,0,1-.81-1,10.11,10.11,0,0,0-.65-1c-.13-.2-.24-.41-.36-.62s-.29-.54-.42-.82-.28-.66-.42-1a.34.34,0,0,0-.06-.12.87.87,0,0,0-.09-.11.78.78,0,0,0,0,.14c0,.27,0,.54,0,.82a3.6,3.6,0,0,0,.09.91,5.15,5.15,0,0,1,.07.53,4.91,4.91,0,0,0,.32,1.52,7.73,7.73,0,0,0,.42,1,5.73,5.73,0,0,1,.41,1,1.5,1.5,0,0,0,.3.47c.34.44.67.88,1,1.32.12.15.25.29.38.44s.45.51.69.75.44.37.66.56a1.29,1.29,0,0,1,.17.16,9.46,9.46,0,0,0,1,.89l.8.67a1.58,1.58,0,0,1,.22.23.23.23,0,0,1,0,.2.2.2,0,0,1-.17.06c-.2,0-.4-.1-.6-.13s-.63-.13-.95-.16l-.49,0a7.58,7.58,0,0,0-.94.13,1.53,1.53,0,0,0-.27.11c.06.1.16.1.25.14.28.13.56.28.83.44s.46.29.68.45a.5.5,0,0,1,.19.19.57.57,0,0,0,.57.27,5.62,5.62,0,0,1,1.15.25l.08,0c.05.06.82.19.8.22s-.79,0-.87,0c-.29-.06-.6-.09-.9-.14l-.88-.16A1.19,1.19,0,0,0,18,69a3.91,3.91,0,0,1-1-.14,11.46,11.46,0,0,0-1.17-.06,5.29,5.29,0,0,1-.79-.17h-.18a6.11,6.11,0,0,1-1.27-.2c-.41-.08-.81-.2-1.22-.29a6.82,6.82,0,0,1-1-.31c-.52-.2-1-.42-1.53-.64-.27-.12-.52-.28-.78-.42s-.56-.33-.85-.47a7.83,7.83,0,0,1-1.83-1.23c-.46-.42-1-.79-1.4-1.23l-.73-.74a3.27,3.27,0,0,1-.35-.3,7.33,7.33,0,0,1-.57-.68,7.71,7.71,0,0,1-.61-.92c-.25-.44-.46-.9-.69-1.36s-.35-.74-.55-1.11S1,57.7.69,57.19L0,55.85c0-.07,0-.12,0-.19s0-.15,0-.22a.7.7,0,0,1,0-.14l.16.05,0,0a4.36,4.36,0,0,0,1.26.91,7.44,7.44,0,0,0,.79.42l.93.34,1.63.61,1,.4.11,0A.29.29,0,0,0,6,58c-.15-.32-.29-.64-.47-1a12.07,12.07,0,0,1-.68-1.62,11.6,11.6,0,0,1-.39-1.13c-.14-.52-.27-1-.39-1.57s-.19-.83-.29-1.25c0,0,0-.12,0-.14s0-.19,0-.29a3.74,3.74,0,0,1-.12-.45c0-.23-.05-.46-.06-.7,0-.43,0-.86-.07-1.28a28.25,28.25,0,0,1,0-2.91,7.42,7.42,0,0,1,.11-1.24c.07-.42.09-.85.13-1.27A11.89,11.89,0,0,1,3.84,42,8.17,8.17,0,0,0,4,41.17a5.06,5.06,0,0,1,.18-.77c.17-.6.32-1.21.55-1.8s.56-1.26.86-1.88c.18-.38.39-.73.56-1.11s.53-.86.76-1.3.42-.82.61-1.24.36-.87.54-1.3a5.61,5.61,0,0,0,.23-.65,13.15,13.15,0,0,0,.49-1.54c.2-.26.17-.6.29-.89a.48.48,0,0,0,0-.12c0-.17,0-.34.06-.51s.06-.2.17-.17a.26.26,0,0,1,.13.19,8.74,8.74,0,0,1-.14.87c0,.13,0,.37,0,.5a2.44,2.44,0,0,1-.05.81.49.49,0,0,0,0,.21c0,.8,0,1.6.08,2.39a10.11,10.11,0,0,0,.26,1.62c.11.44.23.88.37,1.31.08.27.07.57.14.84a5.08,5.08,0,0,0,.17,1.16.67.67,0,0,1,0,.2.45.45,0,0,0,0,.11s.08-.08.09-.12,0-.24.06-.36a7.22,7.22,0,0,1,.29-1.22A6.26,6.26,0,0,1,11,35.12a5,5,0,0,1,.38-.77c.43-.72.77-1.49,1.25-2.17.33-.46.57-1,.88-1.43s.8-1.1,1.2-1.65l.89-1.25q.49-.71.93-1.47c.1-.18.21-.36.31-.55.19-.35.38-.7.54-1.06s.29-.68.43-1c.06-.16.14-.3.19-.46a17.4,17.4,0,0,0,.52-1.84c0-.14.08-.27.12-.4a3.08,3.08,0,0,0,0-.43,9.79,9.79,0,0,1,.23-1.52,1.89,1.89,0,0,0,0-.63,3.25,3.25,0,0,1,0-.54A3.11,3.11,0,0,0,18.8,17a5.79,5.79,0,0,1-.07-.6c-.08-.43-.16-.87-.25-1.3,0-.16-.08-.31-.1-.46s0-.48-.07-.72-.09-.59-.11-.88a2.45,2.45,0,0,1,.06-.6c0-.27.11-.53.17-.79a2.09,2.09,0,0,1,.13-.52A11.46,11.46,0,0,0,19,9.77c.09-.26.21-.52.28-.78s.1-.35.13-.52a5.64,5.64,0,0,0,.06-1.16,2,2,0,0,0-.2-.93.16.16,0,0,1,0-.12s.12-.08.14-.06.23.17.23.25a2.22,2.22,0,0,0,.23.77,11.54,11.54,0,0,1,.36,1.37,8.33,8.33,0,0,1,.07,1.5c0,.33-.16.67-.16,1a4.3,4.3,0,0,0,0,1.29,1,1,0,0,1,0,.24,7.51,7.51,0,0,0,.15,1.06A12.21,12.21,0,0,0,20.73,15a8.67,8.67,0,0,0,.38.82c.25.73.72,1.35,1,2.05s.59,1.13.86,1.7A13.09,13.09,0,0,1,24,21.92a6.3,6.3,0,0,1,.2,1c.08.54.16,1.08.2,1.63a14.53,14.53,0,0,1,.1,1.62c0,.12,0,.24-.05.36a.37.37,0,0,0,0,.18,2.11,2.11,0,0,1,0,1,5.37,5.37,0,0,0-.06.9,8.22,8.22,0,0,1-.28,2.09c-.11.45-.28.86-.42,1.3s-.21.72-.32,1.09-.17.55-.24.82c-.14.59-.34,1.16-.53,1.72s-.29.9-.43,1.35a17.39,17.39,0,0,0-.48,1.75c-.09.54-.24,1.07-.34,1.61s-.12.89-.19,1.33-.07.91-.13,1.35c-.1.71-.08,1.42-.12,2.13,0,.33-.05.65,0,1a.35.35,0,0,0,.05.13s.13-.11.12-.14,0-.35,0-.53a3.82,3.82,0,0,1,.11-.55,2,2,0,0,0,.06-.42,3.38,3.38,0,0,1,.2-1.14,21.82,21.82,0,0,1,.76-2.5q.15-.4.33-.81a6.28,6.28,0,0,1,.39-.83A9,9,0,0,1,23.73,38a15.46,15.46,0,0,0,1.07-1.35,5.18,5.18,0,0,1,.44-.51l1.26-1.38c.18-.2.34-.4.53-.58a3.48,3.48,0,0,0,.67-1c.13-.29.31-.55.44-.84a6,6,0,0,0,.2-.6,4.56,4.56,0,0,0,.18-1.83c-.06-.46,0-.92-.05-1.38a2.84,2.84,0,0,1,.25-1.18c.11-.24.2-.48.29-.72a3.82,3.82,0,0,1,.54-.94c.28-.39.56-.78.82-1.19a4.94,4.94,0,0,0,.31-.7A6.86,6.86,0,0,0,31,22.47a1.56,1.56,0,0,0-.06-.83c0-.1-.07-.27.07-.31s.21.05.28.17a4.78,4.78,0,0,1,.41,1.15,5.33,5.33,0,0,1,.2.81,2.91,2.91,0,0,1,0,.66c0,.06,0,.13,0,.19a5,5,0,0,1-.21,1.23l-.39,1.66a5.21,5.21,0,0,0-.13.79,3.29,3.29,0,0,0,.33,1.57,9,9,0,0,1,.4,1.24,4.38,4.38,0,0,1,.17,1.48,6.8,6.8,0,0,1-.21,1.25c-.13.37-.21.77-.35,1.14a13.69,13.69,0,0,1-.67,1.46c-.3.61-.6,1.22-.93,1.82A4.26,4.26,0,0,0,29.54,39a7.52,7.52,0,0,0-.17,1.63,2.78,2.78,0,0,0,.11,1,3.24,3.24,0,0,1,.05.46A12.74,12.74,0,0,0,30,43.56a5.81,5.81,0,0,1,.23,1.1c0,.11,0,.22.06.33s-.07.42-.08.63a.49.49,0,0,0,0,.12.48.48,0,0,0,.09-.11c.15-.26.22-.56.36-.83.45-.89.88-1.79,1.33-2.68.17-.34.4-.67.58-1s.2-.43.3-.65.11-.34.19-.49a7.73,7.73,0,0,0,.5-1.23,5.14,5.14,0,0,0,.15-.8,1.57,1.57,0,0,0,0-.37,4.81,4.81,0,0,0-.07-.53c0-.18-.06-.35-.1-.53s-.16-.61-.26-.91-.09-.48-.17-.7c-.14-.41.05-.79,0-1.18a2.42,2.42,0,0,1,.17-.73,8,8,0,0,1,.77-1.65c.05-.08.1-.13.19-.11a.14.14,0,0,1,.11.17,10,10,0,0,1,0,1.09,2.36,2.36,0,0,0,.09.73,9.13,9.13,0,0,0,.48,1.62,12.83,12.83,0,0,0,.64,1.35A7.88,7.88,0,0,0,36,37a8.63,8.63,0,0,1,.78,1.62c.07.21.11.43.16.65s.18.68.26,1,.1.54.16.8c.1.43.09.87.18,1.3a.48.48,0,0,1,0,.12c0,.22,0,.44,0,.66s0,.41,0,.61,0,.42,0,.62l-.06.64a.18.18,0,0,0,0,.09l.06-.06c.34-.5.7-1,1-1.5a10,10,0,0,0,.57-1.19c.1-.23.17-.47.27-.7a2.73,2.73,0,0,0,.21-.84,2.1,2.1,0,0,1,.06-.24,8.15,8.15,0,0,0,.06-1.48,1,1,0,0,1,0-.24s.06-.08.1-.09a.12.12,0,0,1,.11,0c.14.13.1.31.13.47.07.42.13.83.18,1.24.07.65.29,1.27.37,1.92.06.44.21.87.29,1.31s.08.6.13.9.09.48.14.72a.38.38,0,0,1,0,.1l.06,1.14a3.83,3.83,0,0,0,0,.76.43.43,0,0,1,0,.42s0,.08,0,.12c0,.79,0,1.58-.07,2.36A5,5,0,0,1,41,51.45a6.2,6.2,0,0,0-.14.75c-.1.5-.21,1-.31,1.48a10,10,0,0,0-.29,1.23,3.33,3.33,0,0,1-.23.74,9.8,9.8,0,0,0-.35,1.17c-.18.64-.43,1.25-.63,1.89-.09.27-.17.54-.28.81a2.34,2.34,0,0,1-.3.47,4.13,4.13,0,0,0-.47.94A4.3,4.3,0,0,1,37.42,62a5,5,0,0,0-.45.77,2.76,2.76,0,0,1-.74.92,5.62,5.62,0,0,0-.53.46l-1.07,1a5.11,5.11,0,0,1-1,.78c-.1.07-.47.2-.51.12s.23-.33.33-.38a6.7,6.7,0,0,0,1.1-.89,18.65,18.65,0,0,1,1.4-1.27,3.18,3.18,0,0,0,.82-1,4.58,4.58,0,0,1,.47-.76,5.14,5.14,0,0,0,.66-1.22,3.53,3.53,0,0,1,.44-.81,3.77,3.77,0,0,0,.54-1.29c.07-.21.12-.41.19-.61a14.79,14.79,0,0,0,.5-1.41c.12-.48.29-.93.44-1.4.06-.16,0-.34.06-.51.13-.41.23-.83.33-1.24s.14-.7.22-1.05.12-.52.17-.79a3.93,3.93,0,0,0,.06-.48q0-.57.06-1.14c0-.54,0-1.09.08-1.62a7.23,7.23,0,0,0,0-1.47,4.72,4.72,0,0,0-.16-1.39,4.88,4.88,0,0,1-.13-.78c-.09-.52-.19-1-.28-1.56s-.19-.86-.27-1.3-.14-.69-.22-1c0,0,0,0,0-.05s-.05,0-.06,0a.21.21,0,0,0,0,.11,4.41,4.41,0,0,1-.45,1.63,8,8,0,0,1-.57,1.26c-.24.41-.53.8-.81,1.19s-.44.62-.68.91-.51.81-.78,1.2a1.26,1.26,0,0,1-.25.31c-.05,0-.16.18-.23,0a.27.27,0,0,1,0-.26,5.43,5.43,0,0,0,.5-.75,3,3,0,0,0,.54-1.15,3.53,3.53,0,0,0,.1-.55,15.71,15.71,0,0,0,.05-1.68c0-.42-.07-.84-.11-1.26a9.9,9.9,0,0,0-.21-1.11c-.1-.4-.26-.78-.32-1.18a6,6,0,0,0-.94-2.24,6.44,6.44,0,0,1-.34-.7c-.2-.38-.43-.76-.61-1.15a3.76,3.76,0,0,1-.33-1,1.62,1.62,0,0,0-.11-.28A4,4,0,0,1,34,32.55a2.44,2.44,0,0,0,0-.27.32.32,0,0,0,0-.09s-.06,0-.06.07a3.7,3.7,0,0,1-.26.7,4.25,4.25,0,0,0-.23,1.84,3.74,3.74,0,0,0,.22.92,3.36,3.36,0,0,1,.18.64,8.37,8.37,0,0,1,.18,1,4.55,4.55,0,0,1-.07.9,4.61,4.61,0,0,1-.16.64,6.75,6.75,0,0,1-.69,1.69,6,6,0,0,1-.25.58c-.15.2-.2.46-.33.67a7.75,7.75,0,0,0-.68,1.27c-.09.23-.24.44-.35.67s-.3.61-.45.91c0,0,0,.07,0,.09a2.48,2.48,0,0,0-.43.8,2,2,0,0,0-.27.82,1,1,0,0,1-.07.33.15.15,0,0,1-.13.08s-.09-.05-.1-.09a.78.78,0,0,1-.05-.33,2.85,2.85,0,0,0,0-1.09.76.76,0,0,1,0-.15,4.87,4.87,0,0,0-.25-1.42c-.14-.5-.33-1-.48-1.5a6.21,6.21,0,0,1-.16-.86,4.6,4.6,0,0,0-.06-1c.06-.47.1-1,.19-1.42A6.29,6.29,0,0,1,30,37c.28-.5.57-1,.81-1.52a10.94,10.94,0,0,0,.81-2.29c.06-.32.14-.65.17-1a2.65,2.65,0,0,0-.06-.69,10.3,10.3,0,0,0-.25-1.1c-.16-.52-.37-1-.54-1.56a1.54,1.54,0,0,1,0-.95,1.49,1.49,0,0,0,.06-.63,2.7,2.7,0,0,1,.15-.75c.12-.53.27-1,.39-1.57.07-.29.07-.59.13-.88A2,2,0,0,0,31.42,23a3.2,3.2,0,0,1-.09-.54.47.47,0,0,0-.1-.18l-.07,0,.06,0-.06,1.09a1.27,1.27,0,0,1-.06.18l-.36.93c0,.07,0,.19-.16.2s-.07,0-.08.08c-.1.45-.46.73-.68,1.1a7.09,7.09,0,0,0-.6,1,9.41,9.41,0,0,0-.37,1,2,2,0,0,0-.08.48c0,.57,0,1.15,0,1.73a2.63,2.63,0,0,0,.06.39,4.6,4.6,0,0,1-.25,1.37c0,.1-.09.2-.11.31a2.1,2.1,0,0,1-.22.59c-.14.32-.34.6-.49.9a3,3,0,0,1-.53.74c-.3.32-.64.6-.92.94-.46.55-1,1.07-1.39,1.66A7.73,7.73,0,0,1,24,38.14a3,3,0,0,0-.47.64c-.23.4-.47.8-.66,1.22a15.83,15.83,0,0,0-.72,1.88,12.57,12.57,0,0,0-.41,1.32c-.08.42-.25.81-.29,1.22s-.14.66-.15,1a6.16,6.16,0,0,1-.16.94s0,.06,0,.09c0,.61-.08,1.22-.05,1.82a8.31,8.31,0,0,0,.26,1.3c.07.29.18.58.27.87s-.18.42-.31.37a.3.3,0,0,1-.16-.21c-.09-.26-.15-.53-.22-.8l0-.08c0-.32,0-.64-.06-1s0-.83-.11-1.24a7.17,7.17,0,0,1-.07-.81c0-.36-.06-.73-.05-1.09q0-1,.06-2c0-.45.07-.9.11-1.35s.07-.69.13-1,.16-.77.23-1.16.07-.59.12-.88.18-.74.28-1.11c.33-1.3.77-2.56,1.19-3.83.24-.71.41-1.45.62-2.17.09-.28.21-.55.3-.83s.19-.77.3-1.16a4.8,4.8,0,0,0,.13-1c0-.33,0-.65.06-1a16.44,16.44,0,0,0,.05-1.71,2.91,2.91,0,0,0,0-.4c0-.47,0-.94-.06-1.41S24,23.69,24,23.22a8.66,8.66,0,0,0-.3-1.34,5.19,5.19,0,0,0-.25-.79c-.12-.3-.26-.59-.4-.88s-.25-.54-.38-.8c-.06-.11-.16-.19-.21-.3s-.24-.52-.36-.78-.27-.55-.42-.81c-.31-.54-.59-1.09-.85-1.65-.16-.36-.32-.72-.46-1.1A8.19,8.19,0,0,1,20,13.46a4,4,0,0,1-.05-.69c0-.34-.06-.68-.06-1a6.61,6.61,0,0,1,.07-1.26A4.19,4.19,0,0,0,20,9.43c0-.46-.11-.92-.18-1.39,0,0,0-.06-.06-.09l-.14-.08a.7.7,0,0,0,0,.14,7.71,7.71,0,0,1-.07.84,4.41,4.41,0,0,1-.23.56,1.61,1.61,0,0,0-.13.49,1.22,1.22,0,0,1-.11.34,7.66,7.66,0,0,0-.23.82c-.07.34-.23.65-.28,1a2.52,2.52,0,0,0,0,1.22.54.54,0,0,1,0,.18,4.05,4.05,0,0,0,.12.85,5.8,5.8,0,0,1,.06.6c0,.28.1.56.14.84a4.46,4.46,0,0,1,.17,1,2,2,0,0,0,.05.33c0,.19.05.38.06.57,0,.34,0,.68,0,1a1.35,1.35,0,0,1-.09.59,1.28,1.28,0,0,0-.09.44l-.06.63a8.91,8.91,0,0,1-.13,1.17c-.08.28-.19.56-.25.85a7.6,7.6,0,0,0-.34,1.15.28.28,0,0,1-.09.17c-.21.16-.21.41-.27.64a2.19,2.19,0,0,1-.18.46c-.29.59-.56,1.2-.9,1.77S16,27.7,15.61,28.29c-.45.74-1,1.39-1.5,2.1a16,16,0,0,0-.88,1.37c-.27.48-.57.95-.85,1.44-.13.2-.22.42-.35.63l-.37.59a5,5,0,0,0-.47,1c-.14.49-.27,1-.4,1.48-.08.28-.16.55-.23.83s0,.32-.07.48a7,7,0,0,0-.18,2s0,.11,0,.14a.3.3,0,0,1-.14.11s-.07-.06-.1-.09a.24.24,0,0,1-.05-.1c0-.32,0-.64,0-1,0-.12,0-.22,0-.34a1.27,1.27,0,0,0,0-.39,1.49,1.49,0,0,0,0-.36,4.72,4.72,0,0,1-.12-1A6.11,6.11,0,0,0,9.63,36c-.12-.44-.29-.87-.39-1.31s-.1-.79-.19-1.17S9,33,9,32.75a8.86,8.86,0,0,1-.06-1.26c0-.18,0-.36,0-.54s0-.56.07-.84c0,0,0,0,0,0a1,1,0,0,1-.05-.16s-.08.08-.08.12a3.63,3.63,0,0,1-.26.85c-.12.4-.23.82-.37,1.22S8,32.7,7.86,33a15,15,0,0,1-.71,1.38c-.31.66-.73,1.26-1,1.93-.14.32-.32.62-.47.94-.24.48-.48,1-.68,1.45s-.22.74-.34,1.12l-.18.58a3,3,0,0,0-.11.43c-.1.48-.16,1-.3,1.43a4.71,4.71,0,0,0,0,.54c-.06.33,0,.66-.08,1s-.1.63-.14.95a3.32,3.32,0,0,0,0,1.47.75.75,0,0,1,0,.15c0,.35,0,.71,0,1.07,0,.17,0,.33,0,.49v.54a4.68,4.68,0,0,0,0,.53c0,.26.08.51.12.76v0c0,.29.05.58.05.87a4.52,4.52,0,0,0,.17,1c.11.42.17.85.26,1.27,0,.24.12.48.19.72.13.44.25.88.41,1.3a13.16,13.16,0,0,0,.64,1.61c.24.47.43,1,.67,1.43a.31.31,0,0,1,0,.35c-.07.09-.17,0-.28,0l-2.25-.85c-.55-.2-1.11-.36-1.63-.61A17,17,0,0,1,.55,56,.47.47,0,0,0,.4,56s-.06.08-.06.08c.23.15.25.42.38.62.31.55.58,1.12.92,1.66a11.65,11.65,0,0,1,.6,1.29c.08.17.17.33.24.5a5.54,5.54,0,0,0,.6,1.16c.27.38.55.76.85,1.11s.68.7,1,1c.53.49,1.08.94,1.59,1.43.29.27.63.47.93.73a1.61,1.61,0,0,0,.26.15c.83.43,1.65.87,2.49,1.28a9.85,9.85,0,0,0,1.82.72c.41.11.84.2,1.25.3l1.22.29a.55.55,0,0,0,.18,0,3,3,0,0,1,.79.11,3.74,3.74,0,0,0,.75.06,4.19,4.19,0,0,1,1.27.18,2.4,2.4,0,0,0,.6.06.11.11,0,0,0,.08,0s0,0-.06-.06a4.56,4.56,0,0,0-.39-.27s-.11,0-.14,0c-.19.13-.37,0-.55,0-.43,0-.83-.19-1.26-.22a2.81,2.81,0,0,1-1-.2c-.15-.07-.34,0-.5-.09a7.05,7.05,0,0,1-1.36-.47c-.08,0-.18,0-.26-.08-.46-.23-.92-.44-1.35-.71a11.52,11.52,0,0,1-1.05-.79A16.26,16.26,0,0,1,9,64.72c-.37-.37-.85-.6-1.2-1s-.6-.73-.92-1.08A10.88,10.88,0,0,1,6,61.44c-.26-.38-.47-.78-.71-1.17a.28.28,0,0,1,0-.25.23.23,0,0,1,.23,0c.43.21.84.43,1.26.65a7.67,7.67,0,0,0,1.22.6,10.3,10.3,0,0,1,1.11.54l1.17.57h.08s0,0,0-.06c-.28-.39-.57-.77-.88-1.13a8.68,8.68,0,0,1-.74-1c-.34-.51-.66-1-.95-1.58a6.79,6.79,0,0,1-.52-1.21A4.89,4.89,0,0,1,7,56.67a4.67,4.67,0,0,1-.22-1.05A2.63,2.63,0,0,0,6.66,55a4.21,4.21,0,0,1-.12-1.06,7.72,7.72,0,0,0-.11-1.17c0-.27,0-.54-.07-.81-.08-.56,0-1.13-.06-1.68-.09-.74,0-1.48,0-2.22.11-.27,0-.54,0-.81s0-.56,0-.84a1.65,1.65,0,0,1,0-.49c0-.11,0-.27,0-.42,0-.39,0-.79.08-1.17a7.06,7.06,0,0,1,.1-1.12s0-.08,0-.12c0-.47,0-.93.06-1.4a4.87,4.87,0,0,1,.06-.55c0-.05.08-.1.13-.12s.1,0,.11.09.08.14.11.22c.21.47.4.95.63,1.41A9.48,9.48,0,0,0,8.38,44c.32.43.6.88.92,1.32.18.25.39.47.59.71l.27.34s0,0,0,.07,0,.07.15.18a2,2,0,0,1,.27.36s0,.08,0,.1a.58.58,0,0,0,.12.1.92.92,0,0,0,0-.16,1.62,1.62,0,0,1,0-1,1.46,1.46,0,0,0,0-.42,6.61,6.61,0,0,1,.33-1.92c.1-.32.16-.65.27-1A7.22,7.22,0,0,1,12.18,41c.18-.28.33-.59.52-.86.39-.56.81-1.1,1.21-1.65a12.7,12.7,0,0,0,.76-1.15,5.05,5.05,0,0,1,.49-.63c.38-.49.76-1,1.16-1.46a11.94,11.94,0,0,0,1-1.34,9.75,9.75,0,0,0,.57-1c.4-.76.78-1.53,1.17-2.29.26-.52.45-1.07.66-1.61.07-.2.16-.39.22-.6a2.43,2.43,0,0,0,.15-.72,2.11,2.11,0,0,1,.11-.6c.05-.28.12-.55.17-.83s.09-.36.12-.54a1.84,1.84,0,0,0,.06-.4,2.81,2.81,0,0,0,0-.58,2.08,2.08,0,0,1-.11-.54,5.54,5.54,0,0,0-.13-.91,1.55,1.55,0,0,0-.2-.63c-.09-.17.05-.21.11-.25s.18,0,.21.12c.15.41.3.81.43,1.23a14,14,0,0,1,.47,1.68,5.46,5.46,0,0,1,.12,1.21A12.73,12.73,0,0,1,21.53,28c-.05.61,0,1.22-.05,1.83A9.3,9.3,0,0,1,21.35,31a14.46,14.46,0,0,1-.28,1.46c-.11.4-.16.81-.25,1.21s-.21.86-.3,1.28a17.61,17.61,0,0,0-.42,1.74,7.34,7.34,0,0,1-.24.89A13.05,13.05,0,0,0,19.5,39c-.05.34-.17.67-.25,1s-.1.56-.16.83-.09.33-.12.49c-.06.37-.1.75-.18,1.12a4.26,4.26,0,0,0-.11,1.18c0,.3,0,.61,0,.91s.07.3,0,.47a1.66,1.66,0,0,0,0,.5c0,.31,0,.62.07.93a4.34,4.34,0,0,0,.16.47c.15.55.29,1.1.43,1.64-.11.14.18.27,0,.41.28.12.16.44.32.64a1.38,1.38,0,0,1,.19.56l-.1.08.05.05.07-.11m7-15.6v.06a.14.14,0,0,1,.07-.06v0a.08.08,0,0,1-.06,0m13.11,5,0-.07h0s0,.06,0,.06M10.61,47.27l0-.08h0s0,.07.06.07M8.1,43.86l0,0s0,0,0,0m14.72-4.21,0,0s0,0,0,0m1-1.55,0,0s0,0,0,0m2.48-2.9,0,0s0,0,0,0m-2.9,28.53,0,0s0,0,0,0m3.71-29.4,0,0s0,0,0,0m7-2.47,0,0s0,0,0,0m-9.8-3.17,0,0s0,0,0,0M20.79,46.82l0,0S20.78,46.79,20.79,46.82Zm16.64,4.6c0,.07-.12.14-.11.2a1,1,0,0,1-.19.58,13.3,13.3,0,0,1-.78,1.26,11.86,11.86,0,0,0-.72,1.17,4.44,4.44,0,0,1-.45.62c-.17.22-.34.44-.53.65a1.76,1.76,0,0,1-.33.27.23.23,0,0,1-.18,0,.23.23,0,0,1,0-.18c.13-.45.28-.9.39-1.36s.12-.75.2-1.11a2.83,2.83,0,0,0,.11-1,14.62,14.62,0,0,1-.06-1.62c0-.42-.08-.84-.12-1.26s-.06-.73-.12-1.09-.13-.62-.2-.93c0,0,0-.07,0-.11,0-.37-.06-.74-.06-1.11s0-.46,0-.69a.16.16,0,0,0-.06-.13c-.08,0-.1,0-.13.1s-.2.35-.28.54a9.73,9.73,0,0,1-.73,1.19,11.06,11.06,0,0,0-.58,1.07,10.18,10.18,0,0,1-.6,1,2.47,2.47,0,0,0-.35.66c-.08.25-.22.47-.31.71-.17.47-.36.94-.54,1.42-.11.31-.24.62-.32.94a3.53,3.53,0,0,0-.22,1.11c0,.12,0,.21-.17.21s-.12,0-.13-.1-.1-.35-.11-.52a4.16,4.16,0,0,0-.27-1.05,12.31,12.31,0,0,0-1.2-2.41c-.25-.41-.45-.87-.66-1.3a14.58,14.58,0,0,1-.75-1.78,6.48,6.48,0,0,1-.3-1.17c0-.23-.14-.46-.19-.69a6.06,6.06,0,0,1-.15-1c0-.21.06-.43,0-.63s0-.49,0-.74a2.37,2.37,0,0,1,.11-.87,2.48,2.48,0,0,0,0-.29c.05-.29.14-.58.19-.88A4.31,4.31,0,0,1,26.88,40c.14-.28.15-.59.27-.87s.26-.79.4-1.18.27-.65.37-1a1.92,1.92,0,0,0,0-.48s0,0,0,0l0,0c0,.19-.11.33-.17.5a5,5,0,0,1-.27.57c-.21.36-.44.7-.63,1.06s-.36.76-.54,1.15c-.05.1-.07.21-.12.3a6.33,6.33,0,0,0-.53,1.43,17.21,17.21,0,0,0-.48,1.74c-.11.48-.16,1-.25,1.45s-.07.69-.12,1-.08.94-.13,1.41,0,1-.05,1.53,0,1.24,0,1.86a8.17,8.17,0,0,1-.07,1.11c-.08.43-.13.87-.22,1.31s-.09.75-.19,1.11a13.23,13.23,0,0,1-.48,1.63.31.31,0,0,1-.09.11.45.45,0,0,1-.12.06l0-.11a1.21,1.21,0,0,1,.16-.72c.11-.31.17-.64.26-1s.17-.71.24-1.07.07-.6.12-.9a12.72,12.72,0,0,0,.12-2.22,1.15,1.15,0,0,1,.05-.41c0-.08-.05-.18-.05-.27a2.61,2.61,0,0,1,.06-.27c0-.15,0-.3,0-.45,0-.66,0-1.32.07-2a8.62,8.62,0,0,1,.16-1.33,4.68,4.68,0,0,0,.07-.54,11.3,11.3,0,0,1,.22-1.16c.09-.45.2-.9.32-1.34s.34-1.15.54-1.71a10.5,10.5,0,0,1,.53-1.24c.25-.49.55-.95.81-1.43s.41-.79.63-1.18a7.92,7.92,0,0,0,.56-1.26,3,3,0,0,0,.09-.32c.05-.15.13-.2.25-.15s.16.11.05.21a5.42,5.42,0,0,1-.25,1.37,6.89,6.89,0,0,1-.49,1.76c-.18.44-.3.91-.46,1.36a3.32,3.32,0,0,1-.24.62,2.82,2.82,0,0,0-.23.8c-.12.46-.21.93-.3,1.4a6.83,6.83,0,0,0-.06.78c0,.43,0,.86,0,1.29A5.71,5.71,0,0,0,26.79,46c.09.31.14.64.25.95s.13.44.22.65c.26.62.52,1.24.8,1.85a7.06,7.06,0,0,0,.42.69c.07.12.13.25.19.37.24.43.49.85.69,1.3a6.79,6.79,0,0,1,.6,1.63s0,0,0,0,0,0,0,0,0-.18.07-.27q.35-1.09.78-2.16c.18-.43.35-.87.53-1.3a1.42,1.42,0,0,1,.21-.33c.32-.42.53-.9.81-1.34A7.93,7.93,0,0,1,33,47a6.71,6.71,0,0,0,.51-.86l.47-.91a3,3,0,0,0,.15-.42,3,3,0,0,1,.22-.62,1.93,1.93,0,0,0,.16-.77A14,14,0,0,1,34.86,42l.12-.4a1.38,1.38,0,0,1,.14-.27.17.17,0,0,1,.13-.06c0,.05.1.12.08.17a11.05,11.05,0,0,0-.17,1.27,7.54,7.54,0,0,1-.33,1.12c-.09.27-.14.56-.21.84a4.6,4.6,0,0,0-.06,1.05c0,.38-.06.76-.05,1.14a7,7,0,0,0,.13.9c0,.3.11.61.16.92l.12.72v.09A11.31,11.31,0,0,0,35,50.61c.07.47,0,.94.06,1.41a4.36,4.36,0,0,1,.05.72c0,.32-.08.63-.13.93s-.1.56-.17.83-.17.57-.25.85a.25.25,0,0,0,0,.12.42.42,0,0,0,.12,0c.28-.38.57-.76.84-1.15.11-.16.17-.35.27-.51.36-.56.73-1.11,1.08-1.68a9.7,9.7,0,0,0,.58-1.31c.08-.32.27-.58.38-.89a.54.54,0,0,1,.1-.16c.06-.08.13-.14.23-.09a.19.19,0,0,1,.07.23c0,.18-.1.36-.14.54l-.33,1.32a.75.75,0,0,0,0,.15l-.06.73-.12.9c0,.14,0,.29-.06.42-.12.58-.25,1.16-.36,1.74a11.6,11.6,0,0,1-.19,1.18c-.11.38-.18.77-.28,1.16a4.88,4.88,0,0,0-.12.55A5.89,5.89,0,0,1,36.06,60c-.14.3-.23.63-.37.92s-.38.7-.57,1l-.56,1.12a3.27,3.27,0,0,1-.35.56,6.15,6.15,0,0,0-.37.66c-.19.28-.24.63-.53.86a1.94,1.94,0,0,0-.3.43,1.12,1.12,0,0,1-.35.4,2.55,2.55,0,0,0-.47.46s0,.09,0,.14a.53.53,0,0,0,.1-.06c.17-.14.33-.3.51-.44S33,66.06,33,66s.15-.11.2,0a.24.24,0,0,1,0,.23,1,1,0,0,1-.39.33,1.58,1.58,0,0,0-.54.37.52.52,0,0,1-.1.11l-.15.06s0-.11,0-.16a.13.13,0,0,1,0-.06H32a.23.23,0,0,0-.06.12c0,.33-.26.45-.51.56l-.27.14a6.78,6.78,0,0,1-1,.39l-2.07.7a4.51,4.51,0,0,1-.53.1l-.84.19a3.68,3.68,0,0,1-.65.11,2,2,0,0,0-.68.14,1.17,1.17,0,0,1-.41.1,14.51,14.51,0,0,1-2.28.11,7.24,7.24,0,0,0-1.14,0h-.61c-.06,0-.11-.08-.17-.12s.1-.11.15-.11a7.32,7.32,0,0,1,1.32,0c.55.06,1.1,0,1.65,0a4.07,4.07,0,0,0,.67-.11h.11a2.48,2.48,0,0,0,1-.17,3.7,3.7,0,0,1,.48-.07c.3,0,.61-.11.91-.18s.48-.13.73-.17a.75.75,0,0,0,.38-.18l1.57-1A.54.54,0,0,0,30,67c0-.12,0-.19-.15-.14l-.25.13a5.77,5.77,0,0,1-1.15.61,3.08,3.08,0,0,1-.6.14,2.92,2.92,0,0,1-.72.06,6.14,6.14,0,0,1-1.64-.29l-.12-.06a.16.16,0,0,1,0-.29c.08,0,.18,0,.26-.09l.62-.38c.26-.17.51-.36.77-.52s.27-.11.4-.18.49-.27.72-.42.49-.33.72-.51a4.61,4.61,0,0,0,.88-.83c.24-.32.55-.58.81-.89a8.05,8.05,0,0,0,.49-.66s0-.08,0-.12-.08,0-.09.06-.23.16-.34.24a6.28,6.28,0,0,1-1.6.9,2.55,2.55,0,0,0-.7.39,2.62,2.62,0,0,1-.92.37l-.85.2-.22,0c-.09,0-.2,0-.2-.11a.26.26,0,0,1,.16-.18c.42-.11.85-.19,1.27-.31a2.19,2.19,0,0,0,.6-.28,6.22,6.22,0,0,1,1-.5,7.33,7.33,0,0,0,.73-.39c.3-.18.61-.36.9-.56s.44-.38.66-.58.15-.16.27-.07a.18.18,0,0,1,.07.09,1.44,1.44,0,0,1-.18.4A10.06,10.06,0,0,1,30.34,64c-.4.37-.73.81-1.13,1.16A10,10,0,0,1,28,66c-.37.23-.77.41-1.15.62-.19.11-.37.25-.56.38s-.25.2-.42.19-.05.07,0,.11.06.16.21.09.23,0,.35,0,.22,0,.33.06a3.42,3.42,0,0,0,.64,0,3.26,3.26,0,0,0,1.52-.44,9.37,9.37,0,0,1,.83-.46c.07,0,.13-.11.2-.16a.23.23,0,0,1,.3,0c.08.07.06.16,0,.25a.76.76,0,0,0-.08.21.1.1,0,0,0,0,.07s.06,0,.07,0L31,66c.05,0,.13-.07.18-.13s.25-.33.38-.5.36-.46.53-.7.38-.62.58-.93l.52-.77c.17-.28.33-.58.5-.86a4.06,4.06,0,0,0,.38-.63,15.47,15.47,0,0,0,.71-1.41,5.89,5.89,0,0,1,.35-.77,1.52,1.52,0,0,0,.12-.32c.06-.3.17-.58.22-.89a1.16,1.16,0,0,0-.05-.66s0,0-.07-.07l0,.09c.11.08,0,.16,0,.2s-.31.36-.46.53a3.5,3.5,0,0,1-.76.62s-.07,0-.09.06a12.22,12.22,0,0,1-1.28.89,5.41,5.41,0,0,1-.76.48,7.26,7.26,0,0,1-.83.44,2.3,2.3,0,0,0-.65.45c-.14.13-.33.12-.49.18s-.13-.06-.14-.11-.07-.16.06-.19A1,1,0,0,0,30,61a1.88,1.88,0,0,0,1-1.14,4,4,0,0,1,.48-.94,1.88,1.88,0,0,0,.27-.63q.15-.48.27-1a2.6,2.6,0,0,0,.09-.47c0-.38,0-.77.07-1.14a3.32,3.32,0,0,1,.17-.94s0,0,0-.06c0-.38.05-.76.06-1.14a4.65,4.65,0,0,1,.18-1.24.38.38,0,0,0,0-.15c0-.06,0-.17,0-.17s-.05.09-.07.14-.12.33-.19.49c-.22.42-.43.84-.66,1.25s-.34.54-.5.81c-.27.44-.55.88-.79,1.34s-.4.89-.61,1.34c-.1.21-.2.43-.32.64a.83.83,0,0,0-.1.35.82.82,0,0,1-.11.28s-.1.08-.12.06-.13-.12-.12-.15c.17-.31,0-.6-.07-.88a11.66,11.66,0,0,0-.47-1.6c0-.08,0-.18-.09-.26-.36-.7-.73-1.39-1.15-2.06a4.85,4.85,0,0,1-.56-1.44,3.53,3.53,0,0,0-.31-1,6.36,6.36,0,0,1-.28-.84s0-.05,0-.08,0,.06,0,.09v1.79c0,.09.05.18.06.28a2.46,2.46,0,0,1-.11.85.19.19,0,0,0,0,.08l-.06,1c0,.08-.06.15,0,.22s-.14,0-.12.07.1.08.11.12a1.36,1.36,0,0,1,0,.35c-.07.35-.15.7-.23,1,0,.15-.08.3-.12.45-.1.38-.17.77-.3,1.13s-.34.82-.51,1.23a3,3,0,0,0-.14.36c0,.09-.05.26-.1.27a.63.63,0,0,1-.5-.07,1.57,1.57,0,0,0-.24-.21c-.36-.21-.72-.41-1.1-.59a4.88,4.88,0,0,1-.95-.66c-.27-.2-.5-.44-.79-.62a8.43,8.43,0,0,1-.74-.6c-.29-.25-.6-.48-.89-.73a2,2,0,0,1-.4-.46c-.31-.53-.72-1-1-1.51a11.61,11.61,0,0,1-.55-1.12c0-.08-.13-.14-.18-.22a2.1,2.1,0,0,1-.31-.68,4.16,4.16,0,0,0-.23-.62c-.11-.27-.23-.54-.34-.82a2.58,2.58,0,0,1-.08-.26,2,2,0,0,1-.11-.28c-.07-.48-.2-.94-.26-1.43a5.71,5.71,0,0,0-.25-1,3.38,3.38,0,0,1-.15-1.22c0-.09.08-.2.05-.27s0-.19,0-.29a1.4,1.4,0,0,1,0-.29,6,6,0,0,0,0-.85c0-.09,0-.18,0-.28s0-.3,0-.46a.46.46,0,0,1,0-.2,2.48,2.48,0,0,0,.06-.72c.05-.36.12-.73.17-1.09s0-.44.07-.66.09-.6.14-.9c0-.12.08-.23.09-.35a10.82,10.82,0,0,1,.35-1.47,1.84,1.84,0,0,0,.07-.47A3.17,3.17,0,0,1,16.7,37c.09-.22.2-.44.29-.66,0,0,0-.09,0-.14s-.09,0-.11.08l-.36.62c-.24.41-.47.82-.72,1.23s-.7,1.1-1,1.68c-.14.28-.31.56-.43.86s-.26.57-.41.85-.26.45-.37.68-.28.62-.41.93-.33.75-.45,1.13-.16.69-.28,1a3.6,3.6,0,0,0-.12.79c-.07.68,0,1.36-.05,2a6,6,0,0,0,.22,1.83c.07.29.09.6.14.9s.07.52.12.78.12.41.18.62-.09.28-.25.38-.25.09-.36,0-.36-.43-.53-.65-.45-.61-.67-.92-.59-.79-.88-1.19l-1-1.36A3.07,3.07,0,0,1,9,48c-.16-.35-.39-.67-.55-1l-.24-.47s0,0-.06,0a.43.43,0,0,1,0,.05.35.35,0,0,0,0,.11,3.44,3.44,0,0,1,.21,1,.94.94,0,0,0,0,.16,2.5,2.5,0,0,1,.07.54,5.8,5.8,0,0,0,.14.93s0,.1,0,.16,0,.26,0,.39.09.2,0,.35a.6.6,0,0,0,.07.46,1.68,1.68,0,0,1,.1.62,9.65,9.65,0,0,0,.06,1.2C9,53,9,53.4,9,53.85a3.86,3.86,0,0,0,.16.95s0,.06,0,.09a7.93,7.93,0,0,0,.07.84c.08.38.1.77.22,1.16a6.87,6.87,0,0,0,.19.75c.09.21.21.4.28.61a7.16,7.16,0,0,0,.83,1.66c0,.06.06.15.1.22l.89,1.48c.08.12.2.22.29.33L13,63.18c.2.26.39.53.61.78a4.49,4.49,0,0,0,.46.41c.19.17.39.36.59.52a.28.28,0,0,1,.11.29c0,.12-.15.11-.25.1A4.9,4.9,0,0,1,12.87,65a13.88,13.88,0,0,0-1.45-.53c-.31-.09-.62-.19-.92-.3a1.42,1.42,0,0,1-.44-.23,7.53,7.53,0,0,0-.73-.41s-.06,0-.1,0l0,.09c.15.15.28.31.44.45.37.34.61.81,1.08,1a.7.7,0,0,1,.16.14,2.42,2.42,0,0,0,.74.52,5.7,5.7,0,0,1,1.11.72,1.61,1.61,0,0,0,.43.23c.11.06.21.13.32.18l.93.48.22.13a5.1,5.1,0,0,1,.51.36s-.54-.25-.57-.25a.11.11,0,0,1-.08,0l-1.1-.46a5.46,5.46,0,0,1-.64-.32c-.19-.12-.36-.28-.54-.42a2.8,2.8,0,0,0-.3-.15,5.72,5.72,0,0,1-1.05-.65c-.29-.27-.62-.5-.89-.79-.49-.51-.94-1.06-1.42-1.58-.1-.11,0-.16,0-.23a.3.3,0,0,1,.17,0c.37.14.73.29,1.1.45a1.59,1.59,0,0,1,.35.22,1.89,1.89,0,0,0,.89.37,7.26,7.26,0,0,1,1.06.33l1.12.4a2.59,2.59,0,0,0,.37.11c.12,0,.24,0,.36,0l-.22-.19a9.46,9.46,0,0,1-1.16-1.29c-.32-.44-.62-.89-.94-1.34l-.73-1a5.05,5.05,0,0,1-.28-.51c-.21-.39-.44-.77-.62-1.18a13.92,13.92,0,0,1-.83-2,6,6,0,0,1-.16-.71c-.07-.37-.13-.73-.18-1.09s0-.44-.07-.67,0-.3,0-.45,0-.36-.07-.54c-.09-.48-.05-1-.17-1.45a2.57,2.57,0,0,1,0-.48,6.11,6.11,0,0,0-.12-1.2,4,4,0,0,1,0-.59,5.09,5.09,0,0,0,0-.56c0-.34-.1-.68-.16-1,0,0,0-.06,0-.08,0-.32,0-.65-.07-1S8.07,46.9,8,46.55c0-.19,0-.4-.11-.58s0-.15.07-.16.18,0,.24.06l.45.74c.4.69.74,1.42,1.19,2.07a2.21,2.21,0,0,1,.42.73c0,.07.12.13.18.19a8,8,0,0,1,.5.65c.2.26.39.54.6.8s.37.5.57.75l.42.54s.07,0,.1,0,0,0,0-.08c-.08-.35-.16-.71-.23-1.07,0-.17,0-.36-.07-.54-.06-.36-.13-.72-.19-1.08s-.09-.41-.11-.61a5.32,5.32,0,0,1,0-1c.07-.6,0-1.21.06-1.8a12,12,0,0,1,.25-1.33,7.27,7.27,0,0,1,.22-.8c.2-.52.42-1,.62-1.54s.55-1,.78-1.5c.14-.29.25-.6.41-.87s.44-.84.72-1.23a4.08,4.08,0,0,0,.29-.5c.41-.72.81-1.43,1.26-2.11.18-.26.31-.55.47-.82,0-.07.11-.14.15-.21s.07-.15.15-.1.15.07.12.23c-.07.32-.16.63-.26.94-.19.55-.4,1.11-.59,1.66a1.84,1.84,0,0,0-.06.4,13.86,13.86,0,0,1-.34,1.58A10.8,10.8,0,0,0,16,41.42a6.69,6.69,0,0,1-.12,1,5.68,5.68,0,0,0-.11,1.09c-.15.17,0,.43-.17.59,0,0,0,0,0,0a.55.55,0,0,1,0,.59,1.93,1.93,0,0,0,0,.24,8.77,8.77,0,0,1,0,.88,3.27,3.27,0,0,0,0,.63c0,.22,0,.44,0,.66s.17.63.2.95.22.55.11.85c0,0,0,.06,0,.09a.65.65,0,0,1,.11.49.37.37,0,0,0,.08.24c.05.06,0,.18.05.27s.12.27.17.41c.12.3.26.59.35.9a1.68,1.68,0,0,1,.19.73c0,.13.06,0,.09,0s.07.06.09.1a7.76,7.76,0,0,0,.6,1.31c.09.17.28.29.24.53.14.07.19.2.28.32.25.39.51.77.79,1.14a5.1,5.1,0,0,0,1,1c.33.23.63.5.94.75l.52.41.67.55a6.25,6.25,0,0,0,.79.46,4.91,4.91,0,0,1,1.09.63c.13.13.24.11.34-.06s.25-.47.35-.71.23-.59.33-.88.15-.56.21-.84.2-.86.3-1.28a5.55,5.55,0,0,0,.13-1.15c0-.45.14-.9.16-1.36a2.44,2.44,0,0,0,0-.93c0-.08.05-.2.05-.3,0-.56,0-1.12,0-1.67,0-.29,0-.59-.05-.88a1.63,1.63,0,0,0-.07-.3s0,0,0-.06,0-.23.1-.25a.18.18,0,0,1,.2.14c.05.19.13.37.18.56.1.39.18.79.3,1.18s.3.74.4,1.12.24.78.37,1.17a5.83,5.83,0,0,0,.44,1c.22.39.46.76.67,1.15a4.6,4.6,0,0,1,.48,1c.07.3.18.58.26.88a2.24,2.24,0,0,1,.16.69c0,.07,0,.17,0,.21s0,.1,0,.11a.1.1,0,0,0,.1-.05c.19-.41.37-.82.55-1.23a6.49,6.49,0,0,1,.31-.65c.15-.27.33-.52.5-.78l.38-.62.52-1c.26-.49.51-1,.76-1.48.12-.22.22-.44.32-.67s.07-.19.2-.17.12.13.12.23a6.72,6.72,0,0,1-.12,1.26c0,.23,0,.46-.06.7,0,.4,0,.82-.06,1.22s-.12.57-.17.86a2,2,0,0,0,0,.35,5.67,5.67,0,0,1-.37,2.12,3.58,3.58,0,0,0-.16.56,3.71,3.71,0,0,1-.41.85c-.15.28-.29.57-.43.87,0,0,0,.07,0,.11l.09-.05a6.86,6.86,0,0,0,1.11-.65c.4-.24.78-.51,1.16-.78a11,11,0,0,0,1-.78,7.92,7.92,0,0,0,.6-.7c.11-.13.22-.29.4-.25s.21.27.22.4a2.77,2.77,0,0,1,0,.81,8.14,8.14,0,0,1-.26,1c-.1.27-.24.52-.34.79a11.38,11.38,0,0,1-.6,1.15c-.15.29-.29.58-.46.86L33,63.92c-.23.38-.48.74-.73,1.1s-.38.48-.55.73-.6.58-.83.94a4.65,4.65,0,0,1-1.05,1,2.45,2.45,0,0,1-.38.24s-.12.12-.11.14.11,0,.16,0l.72-.3.09,0A4.24,4.24,0,0,1,31,67.1c.23-.16.44-.33.66-.51s.24-.24.36-.36l.48-.47a3.59,3.59,0,0,0,.32-.36,6.51,6.51,0,0,0,.43-.6,5.63,5.63,0,0,0,.38-.68,5,5,0,0,1,.37-.68,5.1,5.1,0,0,0,.55-1c.22-.52.54-1,.78-1.52a12.33,12.33,0,0,0,.77-1.84c.07-.25.11-.51.17-.76l.21-.93c.09-.42.22-.83.27-1.27s.11-.6.17-.91.09-.32.12-.49c.07-.37.11-.75.19-1.12a6.5,6.5,0,0,0,.12-.75,5.48,5.48,0,0,1,.13-1,1,1,0,0,0,0-.43.2.2,0,0,0,0-.07l0,.06M27.27,39.26l.06,0s0,0-.06,0m0,.09a.36.36,0,0,1,0,.1h0a.17.17,0,0,0,0-.11m-2.53,5.47,0,0s0,0,0,0m1-4.12,0,0s0,0,0,0m.18,12.42,0,0s0,0,0,0m1.7-14.66,0,0s0,0,0,0m.12-.48,0,0s0,0,0,0m.93,25.78,0,0s0,0,0,0m-.24.18,0,0s0,0,0,0M31.7,67l0,0s0,0,0,0m-4.57.69,0,0S27.11,67.7,27.13,67.73Zm-2.05-52c.23-.57.45-1.13.7-1.67.14-.29.27-.59.42-.87a7.1,7.1,0,0,0,.6-1.73A6.06,6.06,0,0,0,27,9.85c0-.15-.06-.31,0-.46a4,4,0,0,0,0-.6,4.12,4.12,0,0,0-.2-.91c-.07-.22-.12-.44-.19-.67A7.14,7.14,0,0,0,26,6.09c-.23-.42-.49-.81-.74-1.22s-.55-.9-.82-1.36c-.14-.24-.29-.47-.42-.72s-.22-.49-.33-.73L23.63,2l-.09-.07,0,.09c0,.21.09.42.12.63a.92.92,0,0,1,0,.29c0,.08,0,.54,0,.63s.05.31,0,.48a.92.92,0,0,0,0,.34,2.24,2.24,0,0,1,0,.57c-.05.26-.12.53-.18.79l-.18.82L23,7.18c0,.27-.07.54-.12.81s-.12.55-.17.83a10.22,10.22,0,0,0-.2,1.35c0,.27,0,.53,0,.79a5.89,5.89,0,0,0,0,.84,3.66,3.66,0,0,0,.14.72c.14.54.28,1.09.46,1.63a4.31,4.31,0,0,0,.4.84c.33.54.69,1,1,1.58a.4.4,0,0,1,.05.24c0,.05.17.94.14,1s-.28-.95-.3-1c-.13-.21-.25-.42-.38-.62s-.47-.66-.69-1a4.82,4.82,0,0,1-.56-1.32c-.12-.45-.28-.88-.4-1.33a4.76,4.76,0,0,1-.06-.66,4.07,4.07,0,0,1-.06-.6c0-.23,0-.47,0-.7a5.15,5.15,0,0,1,.17-1.51c.05-.18,0-.38.06-.57.16-.55.15-1.13.36-1.67a.74.74,0,0,0,0-.21A3,3,0,0,1,23,6a5.89,5.89,0,0,0,.31-1.82,2.49,2.49,0,0,1,.06-.6,2.11,2.11,0,0,0,0-.26c0-.12,0-.23,0-.35s-.05-.2-.06-.3,0-.18,0-.27-.08-.36,0-.5-.05-.35-.05-.53a1.45,1.45,0,0,0-.11-.49A4.27,4.27,0,0,0,23,.23c-.07-.13,0-.16.09-.21s.12,0,.14.08a1.89,1.89,0,0,1,.21.51,5.88,5.88,0,0,0,.74,1.9A13.37,13.37,0,0,0,25,3.94c.45.68.87,1.37,1.27,2.07a7.68,7.68,0,0,1,.92,3.09c0,.46,0,.92,0,1.38a3,3,0,0,1-.15,1c-.07.27-.12.55-.21.81a5,5,0,0,1-.5,1.23,3.18,3.18,0,0,0-.32.67c-.15.34-.3.67-.43,1a7.35,7.35,0,0,0-.4,1.2,4.23,4.23,0,0,0-.14,1.23.65.65,0,0,1,0,.24.23.23,0,0,1-.15.1c-.05,0-.15.05-.15-.08s-.06-.18-.05-.27a6.45,6.45,0,0,0,.11-.73,5.69,5.69,0,0,1,.19-1A.38.38,0,0,1,25.08,15.71Z"/></g></g></svg>