<svg xmlns="http://www.w3.org/2000/svg" viewBox="0 0 30.72 54.42"><defs><style>.cls-1{fill:#fff;}.cls-2{fill:#ed1c24;}.cls-3{fill:#f15a24;}.cls-4{fill:#ff931e;}.cls-5{fill:#ff0;}</style></defs><title>flame-small</title><g id="Layer_2" data-name="Layer 2"><g id="flame-small"><path id="void" class="cls-1" d="M15,11.35A2.58,2.58,0,0,1,15,12,9.37,9.37,0,0,1,14.48,14a2.16,2.16,0,0,1-.41.76c-.08.07-.15.15-.23.23a1.55,1.55,0,0,0-.23.21l-.38.54c-.08.11-.19.2-.18.35l-.06,0a.07.07,0,0,1,0,0c0-.12,0-.26,0-.38,0-.48-.06-1-.12-1.43a8.84,8.84,0,0,0-.25-.88c-.05-.18-.08-.38-.14-.56-.24-.72-.48-1.44-.74-2.16-.08-.26-.22-.52-.33-.79s-.2-.67-.29-1-.07-.75-.15-1.12A2,2,0,0,1,11,7.23a.61.61,0,0,0,0-.13,1.72,1.72,0,0,1,.17-.83,6.86,6.86,0,0,1,.28-.8,9.58,9.58,0,0,1,.62-1.07c.15-.23.27-.43.38-.63a3.26,3.26,0,0,0,.4-.87s.06-.06.09-.08,0,.07,0,.1c0,.41.06.83.12,1.25,0,.1,0,.18,0,.28s0,.2.06.28a5.66,5.66,0,0,0,.21,1c.08.27.1.55.18.82a8.78,8.78,0,0,0,.33.85c0,.13.15.25.16.37a1.68,1.68,0,0,0,.26.63,2.24,2.24,0,0,1,.14.36c.1.18.12.41.28.55s0,.12,0,.2a2.73,2.73,0,0,1,.15.56,4.25,4.25,0,0,0,.12.62C15.1,10.92,15,11.13,15,11.35ZM29.89,25.66a2,2,0,0,0-.1.21c-.31.63-.57,1.28-.83,1.93s-.58,1.27-.9,1.9c-.18.35-.41.66-.6,1s-.49.84-.74,1.25l-.25.38c-.06.1,0,.22-.1.33a1.8,1.8,0,0,0-.2.47,2.2,2.2,0,0,1-.32.51,2.22,2.22,0,0,0-.29.72,6,6,0,0,0-.28,1c0,.13-.1.15-.18.21a.1.1,0,0,1-.17-.07.89.89,0,0,1,0-.29c.09-.34.25-.65.32-1a3.32,3.32,0,0,0,.21-1.12,2.79,2.79,0,0,1,.07-.4v-.22a2.51,2.51,0,0,0,0-.27,7.6,7.6,0,0,1,.11-1.17.36.36,0,0,0,0-.27.71.71,0,0,1,0-.38c0-.26,0-.52,0-.79a6.82,6.82,0,0,0-.1-.79v-.12a7.46,7.46,0,0,0-.06-.95,7.33,7.33,0,0,0-.27-1.3,1,1,0,0,1,0-.18,1.51,1.51,0,0,0-.14-.7s0-.05,0-.07c0-.32-.19-.59-.19-.89,0-.05-.07-.08-.09-.13a6,6,0,0,1-.4-1.07,3.08,3.08,0,0,0-.16-.38c-.12-.25-.23-.52-.33-.78a2.7,2.7,0,0,1-.14-.4,8.2,8.2,0,0,0-.48-1.28c-.09-.21-.16-.44-.23-.66a.83.83,0,0,0-.09-.16s-.08,0-.12-.05,0,.09,0,.13a3.77,3.77,0,0,1,.05.82.8.8,0,0,0,0,.37c0,.07,0,.19,0,.28s0,.34,0,.5a.11.11,0,0,1-.1.06l0-.08h0l.06.09c0,.21,0,.42,0,.63s-.13.5-.15.76-.17.52-.21.78c-.05.42-.28.78-.35,1.2a2,2,0,0,1-.18.43,1.68,1.68,0,0,1-.31.61c-.15.17-.18.44-.39.58.07.18-.14.2-.16.34a1.44,1.44,0,0,1-.19.37c-.06.12-.14.24-.2.36s-.23.51-.36.75-.3.45-.41.7-.2.26-.15.44a.19.19,0,0,1-.08.16.62.62,0,0,0-.14.39,2.54,2.54,0,0,1-.13.45s0,.08,0,.1-.05.34,0,.51a.26.26,0,0,1-.09.19.22.22,0,0,1-.16,0s-.07-.09-.08-.13a1,1,0,0,1,0-.17,3.16,3.16,0,0,0-.14-.92.47.47,0,0,1,0-.17s0-.06,0-.07c-.2-.22-.1-.54-.27-.76s0-.25-.06-.37-.06-.29-.1-.43a2.64,2.64,0,0,0-.12-.4c0-.06.19,0,.05-.13a.34.34,0,0,1-.09-.14.31.31,0,0,1,0-.08c0-.71-.18-1.4-.11-2.11a1.86,1.86,0,0,1,.06-.34c0-.11,0-.21.05-.32s0-.45.05-.67A6.51,6.51,0,0,1,18.5,23c.11-.39.23-.79.35-1.17A6.71,6.71,0,0,0,19,21c0-.07.05-.14,0-.2s.12-.21,0-.36.08-.22.1-.33c.07-.34.18-.68.28-1s.21-.77.29-1.16.1-.52.16-.77.12-.5.19-.75a3.6,3.6,0,0,0,.15-.74c0-.34.11-.67.16-1a1,1,0,0,1,0-.17c.05-.14-.07-.27,0-.43a.82.82,0,0,0,0-.44,7.73,7.73,0,0,0-.21-1.51.61.61,0,0,1,0-.19,2.43,2.43,0,0,0-.35-1.23c-.05-.12-.1-.24-.14-.36a.64.64,0,0,0-.17-.29c-.14-.14-.22-.35-.45-.4H19c0,.05,0,.12.05.12.24,0,.2.24.26.38a3.17,3.17,0,0,1,.25.83,9.55,9.55,0,0,1,.09,1.52c0,.32-.12.64-.16,1a3.53,3.53,0,0,1-.24.8c-.08.18-.15.38-.22.56a4.87,4.87,0,0,1-.37.6c-.15.26-.3.53-.46.79a1.4,1.4,0,0,1-.39.45.34.34,0,0,0-.06.06c-.2.26-.39.52-.61.78s-.53.57-.8.85c0,0-.06,0-.08,0a.25.25,0,0,1,0-.09,2.73,2.73,0,0,1,.25-.23l.16-.13s0-.05,0-.08h0a3.88,3.88,0,0,0-.33.23c-.11.1-.25.19-.14.38s-.06.14-.11.19l-.58.53a2.44,2.44,0,0,1-.23.22,1.34,1.34,0,0,1,.09-.26,1.62,1.62,0,0,0-.18.19c-.06.09-.08.21-.23.18s-.07.08-.08.13a.34.34,0,0,0-.05.14.94.94,0,0,1,.1-.1.31.31,0,0,1,.09-.07l.07,0v.07c0,.05-.07.07-.1.11-.33.35-.67.68-1,1.05A6.62,6.62,0,0,0,13,22c-.27.5-.65.93-.94,1.43s-.57.86-.8,1.32c-.11.22-.16.48-.25.71s-.12.25-.17.38c-.13.36-.27.71-.39,1.07s-.14.44-.23.66a12.15,12.15,0,0,0-.33,1.18,5.52,5.52,0,0,0-.29,1.34c0,.31-.08.62-.11.93a5.14,5.14,0,0,0,.07,1.36c0,.26.07.52.1.77a2.86,2.86,0,0,0,.23.77,1,1,0,0,0,.17.2v0a.2.2,0,0,0-.06-.12c-.06-.06-.09-.15,0-.18s.17,0,.26,0,0,.06.05.09c.14.33.3.66.41,1a3.65,3.65,0,0,1,.21,1,5.24,5.24,0,0,1,.1.77c0,.56,0,1.11,0,1.66,0,.31-.09.62-.1.93a6.34,6.34,0,0,0,.07.75s0,.09,0,.13a.8.8,0,0,0,.18.54c.1.12.05.24-.11.36s-.18.05-.27-.08-.23-.32-.36-.47a8.13,8.13,0,0,0-1.07-.87s-.07,0-.08-.06c-.19-.36-.49-.65-.7-1a3.85,3.85,0,0,1-.47-.74,7,7,0,0,1-.42-1.3,6.79,6.79,0,0,1-.12-.89,8.34,8.34,0,0,0-.16-.87c-.05-.32-.08-.64-.12-.94s-.09-.43-.12-.66A4.32,4.32,0,0,0,7,32.24a11.56,11.56,0,0,0-1-2.11,8.38,8.38,0,0,0-1.5-1.9,13.58,13.58,0,0,1-1.34-1.59,7.69,7.69,0,0,1-.63-1,5.53,5.53,0,0,1-.35-1A5.42,5.42,0,0,1,2,23.75a11.71,11.71,0,0,1,0-1.32A2.93,2.93,0,0,1,2,22.14a.67.67,0,0,0,0-.18.91.91,0,0,1-.07.14l-.08.14a11.44,11.44,0,0,0-.57,1,6.35,6.35,0,0,0-.36,1c-.1.33-.18.66-.26,1a4.7,4.7,0,0,0-.2,1.18c0,.36,0,.73,0,1.09a6,6,0,0,0,.29,1.73c.11.37.28.71.4,1.07a5.24,5.24,0,0,0,.49.94,4.29,4.29,0,0,1,.56,1.21c.12.4.17.84.29,1.25a5.16,5.16,0,0,1,.09,1.66c0,.33,0,.68,0,1s0,.64,0,1-.07.81-.11,1.21a1,1,0,0,1-.07.23s0,.09,0,.12,0,.26,0,.4a12.21,12.21,0,0,0,.07,1.35c0,.3,0,.6,0,.9a13,13,0,0,0,.46,2.33c.09.36.21.7.28,1.07a1.64,1.64,0,0,0,.18.51c.31.61.7,1.18,1,1.78l.17.21,1.13,1.29c.15.17.31.32.46.47a2,2,0,0,1,.13.18s0,0,.06,0,0-.06,0-.07A3.37,3.37,0,0,0,6,49a5.37,5.37,0,0,1-.35-.45c-.22-.38-.42-.78-.62-1.17a6.13,6.13,0,0,1-.51-1.27,6.1,6.1,0,0,0-.33-.84,5,5,0,0,1-.28-1c0-.38-.16-.74-.23-1.11,0,0,0-.07,0-.09,0-.29,0-.57-.06-.85a1.89,1.89,0,0,1,0-.23,7.72,7.72,0,0,1-.12-.82c0-.51,0-1-.06-1.52a4.86,4.86,0,0,1,0-.54c0-.19,0-.39,0-.59a2,2,0,0,0,0-.54,1.24,1.24,0,0,1,0-.47c0-.08,0-.16,0-.24a5.57,5.57,0,0,1,.11-1.08.81.81,0,0,0,0-.22,6.61,6.61,0,0,1,.11-.88,7,7,0,0,0,0-1.37c0-.37-.07-.74-.1-1.11a6.77,6.77,0,0,0-.22-1,9.71,9.71,0,0,0-.57-1.47,2.66,2.66,0,0,1-.16-.5,2.72,2.72,0,0,0-.2-.61c-.09-.2-.16-.42-.24-.63s-.2-.52-.29-.77-.07-.3,0-.34.21,0,.34.17.33.45.49.67c.37.54.9.94,1.27,1.48.1.16.26.29.36.44s.3.44.44.66.45.69.66,1.05a3.82,3.82,0,0,1,.36.92c0,.1.08.21.1.31a9.19,9.19,0,0,1,.29,1.26c0,.36.15.73.17,1.11a4.35,4.35,0,0,0,.13.58l.15.87a2.38,2.38,0,0,0,0,.26A4.07,4.07,0,0,0,7,38.15s0,.1,0,.16v0a4.63,4.63,0,0,1,.28.54,6.17,6.17,0,0,0,.64,1.19,2.56,2.56,0,0,0,.48.64c.33.29.67.56,1,.84l.49.43c.31.29.62.56.9.86a4.34,4.34,0,0,1,.44.54c0,.06,0,.14,0,.21a.11.11,0,0,0,.06.07s0,0,0-.08c0-.26,0-.51,0-.77a6.94,6.94,0,0,1,.17-1.2c.06-.28.06-.59.12-.87a4.75,4.75,0,0,1,.14-.84,2.84,2.84,0,0,0,.08-.42,3.92,3.92,0,0,1,.23-1.11c-.08-.36.15-.67.17-1s.16-.81.21-1.23A10.51,10.51,0,0,0,12.55,35c0-.24,0-.49,0-.73s-.07-.44-.1-.66a.19.19,0,0,1,0-.08,21,21,0,0,1,0-2.86,3.73,3.73,0,0,1,.15-1.14c.06-.19,0-.41.07-.61s.13-.54.17-.82a6.51,6.51,0,0,1,.45-1.33,10.81,10.81,0,0,1,.48-1.18c.17-.33.24-.72.41-1.06a14.5,14.5,0,0,1,1.06-1.83c.31-.43.55-.91.84-1.35a4.39,4.39,0,0,1,.51-.63.25.25,0,0,1,.3,0c.1.08.12.15,0,.25s0,.08-.05.11c-.14.42-.3.84-.42,1.26s-.2.81-.31,1.22c-.06.22-.13.45-.2.68a3.63,3.63,0,0,0-.14.8q0,.31-.06.63a.34.34,0,0,1,0,.1l0,.32a.86.86,0,0,0,0,.16c0,.15,0,.3,0,.45s0,.61,0,.92a1.27,1.27,0,0,0,.07.44.78.78,0,0,1,0,.29,5.76,5.76,0,0,0,.26,1.6c.08.33.15.65.25,1a4.28,4.28,0,0,0,.17.46l.44,1c.06.15.11.31.17.47.2.51.38,1.05.58,1.57l.39,1.13c.23.7.45,1.4.65,2.11a2.51,2.51,0,0,1,0,.39.12.12,0,0,0,0,.08s.06,0,.06-.06a6.51,6.51,0,0,1,.36-1.16,5.57,5.57,0,0,1,.54-1.13c.23-.41.41-.85.62-1.28a1.62,1.62,0,0,1,.17-.32,5.33,5.33,0,0,0,.49-1c.15-.25.3-.51.44-.77a3.64,3.64,0,0,0,.37-.77c.07-.29.24-.55.34-.84a5.53,5.53,0,0,0,.33-1.07,2.16,2.16,0,0,1,.21-.78c.1-.14,0-.3.06-.45s.08-.24.25-.22.17.1.13.18,0,.29,0,.44a1.08,1.08,0,0,1,0,.59s0,.07,0,.08,0,.33.05.48a4.05,4.05,0,0,0,.1.92,1,1,0,0,1,0,.3c0,.12,0,.25.09.33s0,0,0,.07c0,.28,0,.56.05.85a3.15,3.15,0,0,0,.11.74,4.19,4.19,0,0,1,.11.51,2,2,0,0,0,.11.6s0,.05,0,.08a2.44,2.44,0,0,1,.05.53,5,5,0,0,0,0,.55,1,1,0,0,0,.05.37,2.6,2.6,0,0,1,.06.56c0,.31,0,.61.06.91,0,.12-.09.26,0,.34a.84.84,0,0,1,0,.35,4.43,4.43,0,0,1-.17,1.3c-.06.24-.07.49-.11.74s-.07.27-.1.41a1.12,1.12,0,0,0,0,.13.87.87,0,0,0,.08-.1,3.44,3.44,0,0,1,1-1.25,3.52,3.52,0,0,0,.67-.61,3,3,0,0,0,.35-.63c.15-.29.27-.59.43-.86a9,9,0,0,0,.58-1c.07-.13.12-.27.19-.39s.14-.13.17-.12.21.06.21.21a5.85,5.85,0,0,1-.14,1.18,1.26,1.26,0,0,0,0,.27,4.06,4.06,0,0,1-.15,1.1,1.27,1.27,0,0,0,0,.2c0,.2-.06.38-.1.57,0,0,0,.06,0,.08a5,5,0,0,1-.21,1.43c0,.11,0,.24-.1.35s0,.14,0,.21c-.06.31-.16.61-.19.93a3.88,3.88,0,0,1-.18.82c-.05.21-.13.41-.18.62a3.11,3.11,0,0,1-.21.5,4,4,0,0,0-.34,1.07.19.19,0,0,1,0,.1c-.09.18-.16.36-.26.54a4.61,4.61,0,0,0-.41,1,5.34,5.34,0,0,1-.73,1.4,7.32,7.32,0,0,0-.63,1.25.22.22,0,0,0,0,.14s.05,0,.06,0a2.42,2.42,0,0,0,.25-.31c.22-.34.47-.67.71-1s.55-.85.82-1.28a3.46,3.46,0,0,1,.7-.91c0-.15.16-.2.19-.32a2.3,2.3,0,0,1,.35-.61,2,2,0,0,0,.1-.26c.16-.35.31-.69.48-1s.36-.82.51-1.22.39-1,.6-1.58c.06-.16.1-.33.16-.5a2.11,2.11,0,0,1,.17-.48,2.18,2.18,0,0,0,.15-.66c.11-.46.15-.92.28-1.38a5.86,5.86,0,0,0,.12-.84c.05-.3.12-.59.16-.88a.5.5,0,0,0,0-.17c0-.24.1-.46.1-.68a7.64,7.64,0,0,1,.13-1c0-.14,0-.28,0-.43a5.54,5.54,0,0,0,.05-.56,8.06,8.06,0,0,1,.1-1c0-.2-.05-.41,0-.62a12,12,0,0,1,0-1.47c0-.2-.05-.43,0-.64s.06-.42.09-.63a.14.14,0,0,0,0-.09.79.79,0,0,1,0-.13,1.23,1.23,0,0,0,0-.71c.08-.5.09-1,.12-1.53a7.54,7.54,0,0,1,.16-.93v0C29.91,25.84,29.9,25.76,29.89,25.66Zm-3,11s0,0,0,0-.05,0-.06,0-.09.25-.15.36-.33.46-.47.7a2.41,2.41,0,0,0-.25.57,1.58,1.58,0,0,1-.62,1c-.14.1-.27.21-.4.32s-.22.26-.35.39a3.51,3.51,0,0,0-.37.4c-.22.32-.42.66-.62,1a2.19,2.19,0,0,0-.37.69,2,2,0,0,1-.21.44.26.26,0,0,1-.29.13c-.07,0-.08-.22,0-.34a2,2,0,0,0,.17-.32,6.81,6.81,0,0,0,.26-.76A8.62,8.62,0,0,0,23.5,40a2.53,2.53,0,0,1,0-.48,7.53,7.53,0,0,0,.16-1.42,4.34,4.34,0,0,0,0-.51,7.74,7.74,0,0,0-.05-1.07,5.17,5.17,0,0,0-.11-.54,1.57,1.57,0,0,1,0-.43c0-.15-.05-.31,0-.42a.69.69,0,0,0,0-.38.79.79,0,0,1-.05-.37c0-.13-.12-.25,0-.37-.18-.13-.09-.33-.11-.48s0-.1-.06-.15l-.06-.26c0-.09,0-.19-.05-.34a1.82,1.82,0,0,0,.05-.45,8.63,8.63,0,0,0-.2-.88,3.29,3.29,0,0,1-.12-.61,2.27,2.27,0,0,1,0-.9.13.13,0,0,0,0-.12c-.05-.1-.12-.21-.18-.31,0,.09,0,.18,0,.28a.81.81,0,0,0,0,.22,1.08,1.08,0,0,1-.1.51,1.23,1.23,0,0,0-.18.55.17.17,0,0,1,0,.05.2.2,0,0,0,0-.08s-.05,0-.08,0,0,.08,0,.09.1.19-.05.26a.22.22,0,0,0-.08.13,3.17,3.17,0,0,1-.06.35A1.6,1.6,0,0,1,22,32c0,.08,0,.19-.16.16s0,.06,0,.1a.38.38,0,0,1,0,.15c0,.11-.07.25-.16.31a.54.54,0,0,0-.19.32s-.06,0-.06,0-.1,0-.07,0,0,.12,0,.15a3.36,3.36,0,0,1-.16.33c-.19.37-.38.74-.56,1.11s-.29.57-.43.86l-.16.32c-.13.25-.28.48-.39.74a5.48,5.48,0,0,0-.22.61c-.08.21-.18.41-.24.63a1.57,1.57,0,0,0-.06.53c0,.23.05.23-.15.34,0,0-.08,0-.1.06a.18.18,0,0,1-.25,0c-.05,0-.06-.12-.08-.19-.05-.31-.09-.63-.16-.94s-.2-.78-.33-1.15c-.2-.65-.41-1.29-.63-1.93-.16-.48-.35-.95-.53-1.43s-.33-.77-.49-1.17a7.31,7.31,0,0,1-.48-1.28c-.1-.36-.2-.71-.28-1.06a2.46,2.46,0,0,1-.07-.29,2.2,2.2,0,0,0-.06-.58,3.85,3.85,0,0,1-.09-.67,5.26,5.26,0,0,1-.06-.89.28.28,0,0,1,0-.09,1.33,1.33,0,0,1,0-.34c0-.15,0-.31,0-.46a5.81,5.81,0,0,1,.05-1c.06-.24,0-.51.07-.75s.09-.43.14-.64c.1-.38.21-.75.3-1.11a4.71,4.71,0,0,1,.25-.91c.07-.15.19-.3.14-.49a.14.14,0,0,0,0-.06s0,0,0,0a1.92,1.92,0,0,0-.17.26,3.67,3.67,0,0,1-.35.81,1.37,1.37,0,0,1-.17.23c-.15.24-.28.49-.45.72A11,11,0,0,0,14.3,25c-.19.37-.27.8-.43,1.19A11.73,11.73,0,0,0,13.2,28a6.8,6.8,0,0,0-.27,1.1c0,.18,0,.37,0,.54a6,6,0,0,0-.12.85,4.25,4.25,0,0,1,0,1.07c.14.08,0,.16,0,.24a1.5,1.5,0,0,0,0,.3,3.23,3.23,0,0,1,0,.93.4.4,0,0,1,0,.11c.06.42.15.85.17,1.28s0,.91,0,1.38c-.12.06,0,.13,0,.2-.09.38-.16.76-.22,1.14s-.05.61-.12.91a11.81,11.81,0,0,0-.29,1.34c-.07.37-.14.76-.22,1.14A3.91,3.91,0,0,0,12,41c-.05.28-.13.55-.16.83s-.08.66-.11,1a3,3,0,0,0,.17,1.51c0,.08,0,.26-.13.27s-.13,0-.18-.12-.3-.49-.44-.73a6.52,6.52,0,0,0-.83-1c-.29-.3-.62-.57-.93-.84s-.82-.65-1.22-1a.9.9,0,0,1-.19-.2c-.18-.26-.35-.53-.52-.79a7.09,7.09,0,0,1-.58-1.13c-.09-.23-.16-.46-.26-.68a10.61,10.61,0,0,1-.39-1.47c-.06-.25-.07-.52-.11-.79s-.14-.78-.23-1.16a3.21,3.21,0,0,0-.15-.83.71.71,0,0,1-.07-.26A5.45,5.45,0,0,0,5,31.86c-.27-.46-.57-.9-.84-1.36-.14-.23-.35-.39-.49-.61-.26-.44-.73-.71-1-1.17,0,0-.06,0-.09,0s0,.07,0,.1a3.86,3.86,0,0,1,.3.8c.13.59.48,1.09.62,1.67a9.19,9.19,0,0,1,.31,1.28c0,.37.08.74.09,1.1a10.39,10.39,0,0,1-.09,1.58c0,.39-.07.8-.12,1.19s0,.76-.06,1.15c0,.21,0,.41,0,.62a4.56,4.56,0,0,1,0,.64,5.42,5.42,0,0,0,0,.57,14.44,14.44,0,0,0,0,1.47c.07.43.12.87.16,1.29A9.94,9.94,0,0,0,4,43.23c0,.23.09.47.14.69a6.4,6.4,0,0,1,.14.63,1.57,1.57,0,0,0,.16.6,2.75,2.75,0,0,1,.17.43c.1.29.18.58.29.86a8.93,8.93,0,0,0,.61,1.29c.13.25.23.51.38.74s.45.65.69,1a3.68,3.68,0,0,0,.39.4s0,0,.08,0,0,0,0-.07-.19-.3-.28-.45c-.23-.38-.46-.78-.7-1.16a5.39,5.39,0,0,1-.68-1.51,6.88,6.88,0,0,1-.49-1.28A.73.73,0,0,1,4.77,45c0-.24-.06-.49-.12-.74a5.4,5.4,0,0,1-.15-.88c0-.42,0-.85-.11-1.27a5.81,5.81,0,0,1-.06-.93,6.05,6.05,0,0,1,0-1.41c0-.3,0-.61,0-.93s0-.43,0-.65A6,6,0,0,0,4.53,37a5.69,5.69,0,0,0,0-1,.24.24,0,0,1,0-.12c0-.09.1-.16.22-.16s.15.09.17.16a2.4,2.4,0,0,1,.06.4,3,3,0,0,0,.1.59c.11.5.32,1,.45,1.45a7.91,7.91,0,0,0,.52,1.29c.1.22.17.45.28.67a2.77,2.77,0,0,0,.26.48c.3.38.52.8.8,1.18a6.79,6.79,0,0,0,1,1.28c.36.31.73.61,1.09.94s.61.57.94.82.49.46.77.64a2.71,2.71,0,0,1,.75.72.6.6,0,0,1,.09.13l.08-.13c0-.09.09-.21.05-.26s0-.23,0-.35a6.42,6.42,0,0,1,.19-.87c.11-.34.2-.69.3-1s.28-.93.41-1.4a10.87,10.87,0,0,1,.36-1.1,9.55,9.55,0,0,0,.54-1.8c.1-.56.28-1.11.34-1.68a9.32,9.32,0,0,0,.1-1.05V34.92a.43.43,0,0,0,0-.16,5.15,5.15,0,0,1-.09-1.11c-.06-.34-.07-.7-.14-1a.34.34,0,0,1,0-.28s0-.12.14-.12.11.09.17.15,0,.11.07.14.28.23.36.39.13.21.2.32.3.43.43.65.38.74.56,1.12.23.56.34.84.23.59.33.9.32.87.46,1.32c.21.67.46,1.32.62,2,0,.15.08.3.1.46s.1.48.14.73a1.27,1.27,0,0,1,.06.28,2.12,2.12,0,0,1,.09.9s0,.07,0,.1.07,0,.09-.07c.13-.31.27-.63.39-1A14,14,0,0,1,19.44,40a6.46,6.46,0,0,0,.49-.9c.1-.33.33-.63.46-1s.33-.74.51-1.11.28-.69.42-1a2.7,2.7,0,0,1,.09-.36.18.18,0,0,1,.33,0,.71.71,0,0,1,.05.26,8.81,8.81,0,0,1,0,.89,4,4,0,0,1,0,.85.11.11,0,0,0,0,.11,2.86,2.86,0,0,1,.15,1A11.86,11.86,0,0,1,22,40.3c0,.86,0,1.71-.05,2.57A.25.25,0,0,1,22,43a5.13,5.13,0,0,0-.1,1,4,4,0,0,1-.21.84.38.38,0,0,0,0,.1l.07,0a2,2,0,0,1,.47-.57c.1-.1.22-.18.32-.28a7,7,0,0,0,.67-.79,1.86,1.86,0,0,0,.27-.46,2.77,2.77,0,0,1,.37-.57,1.05,1.05,0,0,0,.07-.11l.49-.86c.06-.08.25-.15.32-.1s.1.16,0,.27-.14.31-.2.47,0,.27-.09.35a.47.47,0,0,0-.08.32,1.09,1.09,0,0,1,0,.18c0,.19-.06.39-.1.58s-.07.38-.1.58-.13.52-.17.79a8.7,8.7,0,0,1-.47,1.58s0,.08,0,.11a1.5,1.5,0,0,1-.26.74,1.89,1.89,0,0,0-.13.33,3.46,3.46,0,0,1-.43,1c-.12.19-.17.43-.36.58a4.94,4.94,0,0,1-.75,1.2,4.34,4.34,0,0,0-.55.9.71.71,0,0,1-.16.26l-1,1-.14.12a4.6,4.6,0,0,1-.91.53c-.09,0-.1.12-.16.18s0,0,0,.05h.06l.71-.38.67-.34a4.89,4.89,0,0,0,.51-.26,2.88,2.88,0,0,0,.59-.45c.07-.08.13-.18.2-.25a1.81,1.81,0,0,1,.32-.3.39.39,0,0,0,.24-.38s0,0,.05,0c.22-.26.45-.5.65-.77a6.37,6.37,0,0,0,.41-.72c.19-.35.35-.72.54-1.07a5.62,5.62,0,0,0,.58-1,9.85,9.85,0,0,1,.56-1.29c.11-.22.17-.47.3-.68a1.39,1.39,0,0,0,.1-.33,2.54,2.54,0,0,1,.21-.66,1.73,1.73,0,0,0,.27-.68c.05-.27.17-.51.22-.78s.05-.26.08-.38.11-.13.11-.15c-.14-.17,0-.33,0-.49s.15-.4.11-.62c0,0,0,0,0,0s.07-.15.07-.24,0-.15,0-.23c.06-.29.11-.59.16-.88a3,3,0,0,0,.1-.49,6,6,0,0,1,.12-.74,9.05,9.05,0,0,0,.12-.91.74.74,0,0,0,0-.3c0-.09,0-.22,0-.33S26.88,36.8,26.9,36.7Zm-3,5.87s-.06,0-.06,0a1.31,1.31,0,0,1-.28.58,3.89,3.89,0,0,1-.69.92l-.45.45a2,2,0,0,0-.35.36c-.21.43-.58.75-.76,1.2a.78.78,0,0,1-.1.15.19.19,0,0,1-.28.06c-.1-.07-.07-.16,0-.27a1.85,1.85,0,0,0,.12-.33c.1-.26.12-.54.21-.81a4.85,4.85,0,0,0,.24-1.41,7.78,7.78,0,0,1,.11-1,.5.5,0,0,0,0-.21s0-.07,0-.09c0-.17,0-.33,0-.49a3,3,0,0,0,.06-.51c0-.61,0-1.24-.06-1.86a2.89,2.89,0,0,0,0-.29c0-.44-.11-.88-.14-1.32s0-.9-.06-1.35c0-.08,0-.16,0-.24,0,.08-.08.17-.07.24a1.19,1.19,0,0,1-.21.85c-.15.34-.32.66-.46,1l-.1.21c-.08.26-.32.45-.3.75,0,.05-.07.11-.12.17l-.1.19c-.07.13-.15.27-.21.41s-.33.36-.3.64l-.06,0c-.15.06-.15.18-.17.32a.86.86,0,0,1-.09.27.91.91,0,0,1-.07.14c0,.13-.07.27-.12.4a2.37,2.37,0,0,0-.26.56c-.11.42-.32.8-.4,1.23a.17.17,0,0,1-.27.1C18,43.6,18,43.5,18,43.39a.18.18,0,0,0,0-.16,2,2,0,0,1-.05-.72,2.24,2.24,0,0,0-.05-.59,6.54,6.54,0,0,0-.2-.9c-.05-.27-.1-.55-.16-.83s-.15-.61-.25-.91l-.31-.9c-.06-.17-.08-.34-.14-.51s-.21-.47-.31-.71-.06-.25-.11-.37c-.2-.51-.35-1-.56-1.53a9.28,9.28,0,0,0-.82-1.6,2.75,2.75,0,0,1-.19-.28,3.7,3.7,0,0,0-.21-.33.16.16,0,0,0-.09,0s0,.08,0,.11a.75.75,0,0,1,.05.62.49.49,0,0,0,0,.12.5.5,0,0,1,.08.14c0,.32.09.64.11,1s0,.69,0,1,0,.67,0,1,0,.49-.07.74a2.09,2.09,0,0,1-.06.56c-.15.56-.25,1.13-.38,1.69,0,0,0,.1,0,.11s-.07.18-.07.27a.37.37,0,0,1,0,.18,9.67,9.67,0,0,1-.33.95,13.15,13.15,0,0,1-.52,1.41c0,.23-.15.4-.17.61s-.13.4-.16.6c-.1.52-.27,1-.35,1.54A10.84,10.84,0,0,0,12.39,47c0,.13-.09.26-.19.27A.26.26,0,0,1,12,47.1a2.88,2.88,0,0,0-.63-.94,4.19,4.19,0,0,0-.81-.61c-.15-.12-.33-.23-.49-.37s-.61-.58-.92-.87l-.1-.1c-.32-.26-.63-.51-.94-.78a5.18,5.18,0,0,1-.88-1.14c-.28-.41-.55-.82-.82-1.23A2.47,2.47,0,0,1,6,40.45c-.08-.21-.17-.41-.27-.62a4.44,4.44,0,0,1-.24-.49c-.13-.33-.22-.67-.34-1A2.4,2.4,0,0,0,5,37.7l-.1-.16a.9.9,0,0,1,0,.16,2,2,0,0,0-.06.23,5.14,5.14,0,0,1-.05.87c0,.2,0,.41,0,.62a5.76,5.76,0,0,0-.06,1c0,.23,0,.46,0,.68s0,.59,0,.88.09.72.09,1.08.11.81.14,1.22a5.31,5.31,0,0,0,.37,1.31,3.85,3.85,0,0,0,.28.66c.08.13.06.28.11.4a6.49,6.49,0,0,0,.57,1.26c.19.26.31.57.47.84a5.6,5.6,0,0,0,.5.82,3,3,0,0,1,.42.59,3.92,3.92,0,0,1,.55.72c.07.15.24.25.36.38s.59.39.85.63a.38.38,0,0,0,.1,0,.36.36,0,0,0,0-.11,1,1,0,0,0-.14-.17c-.27-.27-.54-.54-.81-.86A4,4,0,0,1,8,50a10.88,10.88,0,0,1-1-1.69,4.81,4.81,0,0,1-.35-1c-.08-.34-.09-.68-.14-1a9.08,9.08,0,0,1-.07-1v-.08c0-.2-.09-.39-.11-.58s0-.58,0-.87c0-.09,0-.18.12-.2a.22.22,0,0,1,.27.14,1.28,1.28,0,0,0,.13.29,6.69,6.69,0,0,0,.8,1,7.3,7.3,0,0,1,.62.72c.08.1.2.17.27.27a3.2,3.2,0,0,0,.72.79.16.16,0,0,1,.08.08c.16.16.3.35.47.51s.57.46.85.69a4.82,4.82,0,0,1,.55.44c.13.16.42.21.4.5,0,0,0,0,.07.07s.12,0,.16.06a4.31,4.31,0,0,1,.59.81l.08.09s0-.06,0-.09a4.64,4.64,0,0,1,.32-1.16c.13-.35.27-.69.41-1s.22-.52.34-.79.34-.68.47-1a1.66,1.66,0,0,0,.14-.37,2,2,0,0,1,.33-.93.19.19,0,0,1,.23-.09c.09,0,.11.1.11.19s0,.43.06.65a4.6,4.6,0,0,0,.13.5,3.55,3.55,0,0,1,.31,1.44.61.61,0,0,0,0,.14.31.31,0,0,0,0,.1.33.33,0,0,0,.06-.1,1.8,1.8,0,0,0,.06-.22,8.64,8.64,0,0,0,.5-1.4c.11-.41.21-.82.34-1.22A6.49,6.49,0,0,0,16.76,43s0-.11,0-.14a1.3,1.3,0,0,0,0-.85.23.23,0,0,1,.16-.27c.14,0,.17,0,.21.18.1.44.19.89.28,1.34s.19,1.16.34,1.73a6,6,0,0,1,.22,1.31s0,.07,0,.1a.69.69,0,0,0,0,.1.32.32,0,0,0,0-.09,5.43,5.43,0,0,1,.69-1,3.61,3.61,0,0,0,.54-.78c.15-.25.24-.54.38-.79A3.87,3.87,0,0,0,20,43c.08-.3.18-.59.28-.89,0-.1.09-.12.19-.12s.11.07.15.16a4.84,4.84,0,0,1,0,.76c0,.21-.06.44,0,.67s-.13.59,0,.88a.17.17,0,0,1,0,.14c-.13.31,0,.65-.09,1a3.91,3.91,0,0,0,0,.49,4.16,4.16,0,0,0,0,.5.7.7,0,0,1,0,.25l-.21,1.3c0,.15-.08.29-.1.44a2.39,2.39,0,0,1-.25.68c-.15.43-.31.87-.49,1.29a3.69,3.69,0,0,1-.67,1,5,5,0,0,0-.48.55,2.53,2.53,0,0,1-.83.7c-.35.19-.7.34-1,.52s-.49.27-.72.41c-.08.06-.12.21-.25.14s-.11,0-.14,0a.29.29,0,0,0,.13.09.53.53,0,0,0,.2-.05,2.44,2.44,0,0,0,.26-.06c.16,0,.31-.05.46-.09l1.42-.36.49-.17s0-.08,0-.09-.06-.07-.1-.11a.18.18,0,0,1,.05-.3.53.53,0,0,1,.37-.12.24.24,0,0,0,.2,0,5.31,5.31,0,0,0,1-.72l.22-.22c.2-.21.41-.4.6-.61a1.53,1.53,0,0,0,.17-.27c.17-.26.34-.51.49-.79s.5-.66.68-1.05.32-.54.45-.82A5.17,5.17,0,0,0,22.82,47c.05-.23.22-.42.28-.66a4.06,4.06,0,0,1,.25-.66.08.08,0,0,1,0,0,2.76,2.76,0,0,1,.21-.81,3.8,3.8,0,0,1,.22-.8.67.67,0,0,0,.07-.35,3.12,3.12,0,0,1,0-.52c0-.18.05-.35.07-.53A.14.14,0,0,0,23.93,42.57Zm-3.61.75s0,0-.05,0a.13.13,0,0,0-.05.07,2.07,2.07,0,0,1-.14.42c-.13.26-.29.5-.41.78a3.78,3.78,0,0,1-.58,1,3.12,3.12,0,0,0-.44.59c-.14.21-.26.44-.39.66a1.76,1.76,0,0,0-.21.44.41.41,0,0,1-.14.25c-.05,0-.14.08-.16.06a.23.23,0,0,1-.1-.17c0-.39,0-.77,0-1.16s-.14-.65-.19-1-.11-.48-.16-.71-.07-.46-.12-.69a.66.66,0,0,0-.08-.13.75.75,0,0,0-.07.12c0,.15,0,.3-.07.45a2.31,2.31,0,0,1-.08.47c-.12.47-.27.92-.38,1.39s-.37,1-.54,1.56a6.39,6.39,0,0,0-.41,1.21.34.34,0,0,1-.15.22.16.16,0,0,1-.22-.07c-.06-.06,0-.1,0-.17,0-.47.06-.94.07-1.41,0-.12-.1-.24-.1-.35a7.82,7.82,0,0,0-.21-1c0-.17-.11-.35-.13-.52a.77.77,0,0,0-.12-.33s0,0,0,0l0,.05c0,.06-.11.12,0,.19a.21.21,0,0,1,0,.14,5.93,5.93,0,0,1-.3.93c-.15.27-.2.55-.38.84s-.38.81-.54,1.23c0,.13,0,.27-.17.38s0,.09,0,.14a1.13,1.13,0,0,1,0,.18c-.14.42-.2.86-.37,1.27a.33.33,0,0,1-.17.18s-.13,0-.18-.1a.84.84,0,0,1-.12-.23,1.12,1.12,0,0,0-.25-.42,1.42,1.42,0,0,1-.22-.28,4.16,4.16,0,0,0-1.14-1.15A6,6,0,0,1,10,48c-.61-.59-1.19-1.2-1.77-1.81-.13-.14-.25-.29-.37-.43l-.34-.39c-.15-.19-.29-.36-.43-.55s-.17-.25-.26-.36-.12-.05-.11,0,0,.27,0,.41c0,.35.09.7.12,1.06s0,.57,0,.85a3.21,3.21,0,0,0,.18.77c.13.35.27.69.41,1a2.21,2.21,0,0,0,.18.34c.2.32.42.63.61.95a5.11,5.11,0,0,0,1,1.2,2.16,2.16,0,0,1,.37.43,5.14,5.14,0,0,0,.82.92,1.44,1.44,0,0,1,.47.59.31.31,0,0,0,.15.12l1,.41a4.83,4.83,0,0,0,1.44.36,5.79,5.79,0,0,0,1.44,0c.09,0,.11,0,.09-.12s0-.27.22-.28a.51.51,0,0,0,.17-.07,6.1,6.1,0,0,1,.7-.41l1-.52a2.52,2.52,0,0,0,.73-.51c.29-.34.59-.65.87-1a3.19,3.19,0,0,0,.38-.6c.19-.4.34-.8.51-1.21a3.81,3.81,0,0,0,.3-.9c0-.16,0-.32,0-.48.07-.38.15-.75.22-1.14a.39.39,0,0,0,0-.15c0-.15-.07-.29,0-.41a2.46,2.46,0,0,0,0-.54,5,5,0,0,0,0-.53c0-.22,0-.43,0-.65a2.09,2.09,0,0,1,.12-.9A.25.25,0,0,0,20.32,43.32Z"/><path id="fill5" class="cls-2" d="M15,11.35A2.58,2.58,0,0,1,15,12,9.37,9.37,0,0,1,14.48,14a2.16,2.16,0,0,1-.41.76c-.08.07-.15.15-.23.23a1.55,1.55,0,0,0-.23.21l-.38.54c-.08.11-.19.2-.18.35l-.06,0a.07.07,0,0,1,0,0c0-.12,0-.26,0-.38,0-.48-.06-1-.12-1.43a8.84,8.84,0,0,0-.25-.88c-.05-.18-.08-.38-.14-.56-.24-.72-.48-1.44-.74-2.16-.08-.26-.22-.52-.33-.79s-.2-.67-.29-1-.07-.75-.15-1.12A2,2,0,0,1,11,7.23a.61.61,0,0,0,0-.13,1.72,1.72,0,0,1,.17-.83,6.86,6.86,0,0,1,.28-.8,9.58,9.58,0,0,1,.62-1.07c.15-.23.27-.43.38-.63a3.26,3.26,0,0,0,.4-.87s.06-.06.09-.08,0,.07,0,.1c0,.41.06.83.12,1.25,0,.1,0,.18,0,.28s0,.2.06.28a5.66,5.66,0,0,0,.21,1c.08.27.1.55.18.82a8.78,8.78,0,0,0,.33.85c0,.13.15.25.16.37a1.68,1.68,0,0,0,.26.63,2.24,2.24,0,0,1,.14.36c.1.18.12.41.28.55s0,.12,0,.2a2.73,2.73,0,0,1,.15.56,4.25,4.25,0,0,0,.12.62C15.1,10.92,15,11.13,15,11.35ZM29.89,25.66a2,2,0,0,0-.1.21c-.31.63-.57,1.28-.83,1.93s-.58,1.27-.9,1.9c-.18.35-.41.66-.6,1s-.49.84-.74,1.25l-.25.38c-.06.1,0,.22-.1.33a1.8,1.8,0,0,0-.2.47,2.2,2.2,0,0,1-.32.51,2.22,2.22,0,0,0-.29.72,6,6,0,0,0-.28,1c0,.13-.1.15-.18.21a.1.1,0,0,1-.17-.07.89.89,0,0,1,0-.29c.09-.34.25-.65.32-1a3.32,3.32,0,0,0,.21-1.12,2.79,2.79,0,0,1,.07-.4v-.22a2.51,2.51,0,0,0,0-.27,7.6,7.6,0,0,1,.11-1.17.36.36,0,0,0,0-.27.71.71,0,0,1,0-.38c0-.26,0-.52,0-.79a6.82,6.82,0,0,0-.1-.79v-.12a7.46,7.46,0,0,0-.06-.95,7.33,7.33,0,0,0-.27-1.3,1,1,0,0,1,0-.18,1.51,1.51,0,0,0-.14-.7s0-.05,0-.07c0-.32-.19-.59-.19-.89,0-.05-.07-.08-.09-.13a6,6,0,0,1-.4-1.07,3.08,3.08,0,0,0-.16-.38c-.12-.25-.23-.52-.33-.78a2.7,2.7,0,0,1-.14-.4,8.2,8.2,0,0,0-.48-1.28c-.09-.21-.16-.44-.23-.66a.83.83,0,0,0-.09-.16s-.08,0-.12-.05,0,.09,0,.13a3.77,3.77,0,0,1,.05.82.8.8,0,0,0,0,.37c0,.07,0,.19,0,.28s0,.34,0,.5a.11.11,0,0,1-.1.06l0-.08h0l.06.09c0,.21,0,.42,0,.63s-.13.5-.15.76-.17.52-.21.78c-.05.42-.28.78-.35,1.2a2,2,0,0,1-.18.43,1.68,1.68,0,0,1-.31.61c-.15.17-.18.44-.39.58.07.18-.14.2-.16.34a1.44,1.44,0,0,1-.19.37c-.06.12-.14.24-.2.36s-.23.51-.36.75-.3.45-.41.7-.2.26-.15.44a.19.19,0,0,1-.08.16.62.62,0,0,0-.14.39,2.54,2.54,0,0,1-.13.45s0,.08,0,.1-.05.34,0,.51a.26.26,0,0,1-.09.19.22.22,0,0,1-.16,0s-.07-.09-.08-.13a1,1,0,0,1,0-.17,3.16,3.16,0,0,0-.14-.92.47.47,0,0,1,0-.17s0-.06,0-.07c-.2-.22-.1-.54-.27-.76s0-.25-.06-.37-.06-.29-.1-.43a2.64,2.64,0,0,0-.12-.4c0-.06.19,0,.05-.13a.34.34,0,0,1-.09-.14.31.31,0,0,1,0-.08c0-.71-.18-1.4-.11-2.11a1.86,1.86,0,0,1,.06-.34c0-.11,0-.21.05-.32s0-.45.05-.67A6.51,6.51,0,0,1,18.5,23c.11-.39.23-.79.35-1.17A6.71,6.71,0,0,0,19,21c0-.07.05-.14,0-.2s.12-.21,0-.36.08-.22.1-.33c.07-.34.18-.68.28-1s.21-.77.29-1.16.1-.52.16-.77.12-.5.19-.75a3.6,3.6,0,0,0,.15-.74c0-.34.11-.67.16-1a1,1,0,0,1,0-.17c.05-.14-.07-.27,0-.43a.82.82,0,0,0,0-.44,7.73,7.73,0,0,0-.21-1.51.61.61,0,0,1,0-.19,2.43,2.43,0,0,0-.35-1.23c-.05-.12-.1-.24-.14-.36a.64.64,0,0,0-.17-.29c-.14-.14-.22-.35-.45-.4H19c0,.05,0,.12.05.12.24,0,.2.24.26.38a3.17,3.17,0,0,1,.25.83,9.55,9.55,0,0,1,.09,1.52c0,.32-.12.64-.16,1a3.53,3.53,0,0,1-.24.8c-.08.18-.15.38-.22.56a4.87,4.87,0,0,1-.37.6c-.15.26-.3.53-.46.79a1.4,1.4,0,0,1-.39.45.34.34,0,0,0-.06.06c-.2.26-.39.52-.61.78s-.53.57-.8.85c0,0-.06,0-.08,0a.25.25,0,0,1,0-.09,2.73,2.73,0,0,1,.25-.23l.16-.13s0-.05,0-.08h0a3.88,3.88,0,0,0-.33.23c-.11.1-.25.19-.14.38s-.06.14-.11.19l-.58.53a2.44,2.44,0,0,1-.23.22,1.34,1.34,0,0,1,.09-.26,1.62,1.62,0,0,0-.18.19c-.06.09-.08.21-.23.18s-.07.08-.08.13a.34.34,0,0,0-.05.14.94.94,0,0,1,.1-.1.31.31,0,0,1,.09-.07l.07,0v.07c0,.05-.07.07-.1.11-.33.35-.67.68-1,1.05A6.62,6.62,0,0,0,13,22c-.27.5-.65.93-.94,1.43s-.57.86-.8,1.32c-.11.22-.16.48-.25.71s-.12.25-.17.38c-.13.36-.27.71-.39,1.07s-.14.44-.23.66a12.15,12.15,0,0,0-.33,1.18,5.52,5.52,0,0,0-.29,1.34c0,.31-.08.62-.11.93a5.14,5.14,0,0,0,.07,1.36c0,.26.07.52.1.77a2.86,2.86,0,0,0,.23.77,1,1,0,0,0,.17.2v0a.2.2,0,0,0-.06-.12c-.06-.06-.09-.15,0-.18s.17,0,.26,0,0,.06.05.09c.14.33.3.66.41,1a3.65,3.65,0,0,1,.21,1,5.24,5.24,0,0,1,.1.77c0,.56,0,1.11,0,1.66,0,.31-.09.62-.1.93a6.34,6.34,0,0,0,.07.75s0,.09,0,.13a.8.8,0,0,0,.18.54c.1.12.05.24-.11.36s-.18.05-.27-.08-.23-.32-.36-.47a8.13,8.13,0,0,0-1.07-.87s-.07,0-.08-.06c-.19-.36-.49-.65-.7-1a3.85,3.85,0,0,1-.47-.74,7,7,0,0,1-.42-1.3,6.79,6.79,0,0,1-.12-.89,8.34,8.34,0,0,0-.16-.87c-.05-.32-.08-.64-.12-.94s-.09-.43-.12-.66A4.32,4.32,0,0,0,7,32.24a11.56,11.56,0,0,0-1-2.11,8.38,8.38,0,0,0-1.5-1.9,13.58,13.58,0,0,1-1.34-1.59,7.69,7.69,0,0,1-.63-1,5.53,5.53,0,0,1-.35-1A5.42,5.42,0,0,1,2,23.75a11.71,11.71,0,0,1,0-1.32A2.93,2.93,0,0,1,2,22.14a.67.67,0,0,0,0-.18.91.91,0,0,1-.07.14l-.08.14a11.44,11.44,0,0,0-.57,1,6.35,6.35,0,0,0-.36,1c-.1.33-.18.66-.26,1a4.7,4.7,0,0,0-.2,1.18c0,.36,0,.73,0,1.09a6,6,0,0,0,.29,1.73c.11.37.28.71.4,1.07a5.24,5.24,0,0,0,.49.94,4.29,4.29,0,0,1,.56,1.21c.12.4.17.84.29,1.25a5.16,5.16,0,0,1,.09,1.66c0,.33,0,.68,0,1s0,.64,0,1-.07.81-.11,1.21a1,1,0,0,1-.07.23s0,.09,0,.12,0,.26,0,.4a12.21,12.21,0,0,0,.07,1.35c0,.3,0,.6,0,.9a13,13,0,0,0,.46,2.33c.09.36.21.7.28,1.07a1.64,1.64,0,0,0,.18.51c.31.61.7,1.18,1,1.78l.17.21,1.13,1.29c.15.17.31.32.46.47a2,2,0,0,1,.13.18s0,0,.06,0,0-.06,0-.07A3.37,3.37,0,0,0,6,49a5.37,5.37,0,0,1-.35-.45c-.22-.38-.42-.78-.62-1.17a6.13,6.13,0,0,1-.51-1.27,6.1,6.1,0,0,0-.33-.84,5,5,0,0,1-.28-1c0-.38-.16-.74-.23-1.11,0,0,0-.07,0-.09,0-.29,0-.57-.06-.85a1.89,1.89,0,0,1,0-.23,7.72,7.72,0,0,1-.12-.82c0-.51,0-1-.06-1.52a4.86,4.86,0,0,1,0-.54c0-.19,0-.39,0-.59a2,2,0,0,0,0-.54,1.24,1.24,0,0,1,0-.47c0-.08,0-.16,0-.24a5.57,5.57,0,0,1,.11-1.08.81.81,0,0,0,0-.22,6.61,6.61,0,0,1,.11-.88,7,7,0,0,0,0-1.37c0-.37-.07-.74-.1-1.11a6.77,6.77,0,0,0-.22-1,9.71,9.71,0,0,0-.57-1.47,2.66,2.66,0,0,1-.16-.5,2.72,2.72,0,0,0-.2-.61c-.09-.2-.16-.42-.24-.63s-.2-.52-.29-.77-.07-.3,0-.34.21,0,.34.17.33.45.49.67c.37.54.9.94,1.27,1.48.1.16.26.29.36.44s.3.44.44.66.45.69.66,1.05a3.82,3.82,0,0,1,.36.92c0,.1.08.21.1.31a9.19,9.19,0,0,1,.29,1.26c0,.36.15.73.17,1.11a4.35,4.35,0,0,0,.13.58l.15.87a2.38,2.38,0,0,0,0,.26A4.07,4.07,0,0,0,7,38.15s0,.1,0,.16v0a4.63,4.63,0,0,1,.28.54,6.17,6.17,0,0,0,.64,1.19,2.56,2.56,0,0,0,.48.64c.33.29.67.56,1,.84l.49.43c.31.29.62.56.9.86a4.34,4.34,0,0,1,.44.54c0,.06,0,.14,0,.21a.11.11,0,0,0,.06.07s0,0,0-.08c0-.26,0-.51,0-.77a6.94,6.94,0,0,1,.17-1.2c.06-.28.06-.59.12-.87a4.75,4.75,0,0,1,.14-.84,2.84,2.84,0,0,0,.08-.42,3.92,3.92,0,0,1,.23-1.11c-.08-.36.15-.67.17-1s.16-.81.21-1.23A10.51,10.51,0,0,0,12.55,35c0-.24,0-.49,0-.73s-.07-.44-.1-.66a.19.19,0,0,1,0-.08,21,21,0,0,1,0-2.86,3.73,3.73,0,0,1,.15-1.14c.06-.19,0-.41.07-.61s.13-.54.17-.82a6.51,6.51,0,0,1,.45-1.33,10.81,10.81,0,0,1,.48-1.18c.17-.33.24-.72.41-1.06a14.5,14.5,0,0,1,1.06-1.83c.31-.43.55-.91.84-1.35a4.39,4.39,0,0,1,.51-.63.25.25,0,0,1,.3,0c.1.08.12.15,0,.25s0,.08-.05.11c-.14.42-.3.84-.42,1.26s-.2.81-.31,1.22c-.06.22-.13.45-.2.68a3.63,3.63,0,0,0-.14.8q0,.31-.06.63a.34.34,0,0,1,0,.1l0,.32a.86.86,0,0,0,0,.16c0,.15,0,.3,0,.45s0,.61,0,.92a1.27,1.27,0,0,0,.07.44.78.78,0,0,1,0,.29,5.76,5.76,0,0,0,.26,1.6c.08.33.15.65.25,1a4.28,4.28,0,0,0,.17.46l.44,1c.06.15.11.31.17.47.2.51.38,1.05.58,1.57l.39,1.13c.23.7.45,1.4.65,2.11a2.51,2.51,0,0,1,0,.39.12.12,0,0,0,0,.08s.06,0,.06-.06a6.51,6.51,0,0,1,.36-1.16,5.57,5.57,0,0,1,.54-1.13c.23-.41.41-.85.62-1.28a1.62,1.62,0,0,1,.17-.32,5.33,5.33,0,0,0,.49-1c.15-.25.3-.51.44-.77a3.64,3.64,0,0,0,.37-.77c.07-.29.24-.55.34-.84a5.53,5.53,0,0,0,.33-1.07,2.16,2.16,0,0,1,.21-.78c.1-.14,0-.3.06-.45s.08-.24.25-.22.17.1.13.18,0,.29,0,.44a1.08,1.08,0,0,1,0,.59s0,.07,0,.08,0,.33.05.48a4.05,4.05,0,0,0,.1.92,1,1,0,0,1,0,.3c0,.12,0,.25.09.33s0,0,0,.07c0,.28,0,.56.05.85a3.15,3.15,0,0,0,.11.74,4.19,4.19,0,0,1,.11.51,2,2,0,0,0,.11.6s0,.05,0,.08a2.44,2.44,0,0,1,.05.53,5,5,0,0,0,0,.55,1,1,0,0,0,.05.37,2.6,2.6,0,0,1,.06.56c0,.31,0,.61.06.91,0,.12-.09.26,0,.34a.84.84,0,0,1,0,.35,4.43,4.43,0,0,1-.17,1.3c-.06.24-.07.49-.11.74s-.07.27-.1.41a1.12,1.12,0,0,0,0,.13.87.87,0,0,0,.08-.1,3.44,3.44,0,0,1,1-1.25,3.52,3.52,0,0,0,.67-.61,3,3,0,0,0,.35-.63c.15-.29.27-.59.43-.86a9,9,0,0,0,.58-1c.07-.13.12-.27.19-.39s.14-.13.17-.12.21.06.21.21a5.85,5.85,0,0,1-.14,1.18,1.26,1.26,0,0,0,0,.27,4.06,4.06,0,0,1-.15,1.1,1.27,1.27,0,0,0,0,.2c0,.2-.06.38-.1.57,0,0,0,.06,0,.08a5,5,0,0,1-.21,1.43c0,.11,0,.24-.1.35s0,.14,0,.21c-.06.31-.16.61-.19.93a3.88,3.88,0,0,1-.18.82c-.05.21-.13.41-.18.62a3.11,3.11,0,0,1-.21.5,4,4,0,0,0-.34,1.07.19.19,0,0,1,0,.1c-.09.18-.16.36-.26.54a4.61,4.61,0,0,0-.41,1,5.34,5.34,0,0,1-.73,1.4,7.32,7.32,0,0,0-.63,1.25.22.22,0,0,0,0,.14s.05,0,.06,0a2.42,2.42,0,0,0,.25-.31c.22-.34.47-.67.71-1s.55-.85.82-1.28a3.46,3.46,0,0,1,.7-.91c0-.15.16-.2.19-.32a2.3,2.3,0,0,1,.35-.61,2,2,0,0,0,.1-.26c.16-.35.31-.69.48-1s.36-.82.51-1.22.39-1,.6-1.58c.06-.16.1-.33.16-.5a2.11,2.11,0,0,1,.17-.48,2.18,2.18,0,0,0,.15-.66c.11-.46.15-.92.28-1.38a5.86,5.86,0,0,0,.12-.84c.05-.3.12-.59.16-.88a.5.5,0,0,0,0-.17c0-.24.1-.46.1-.68a7.64,7.64,0,0,1,.13-1c0-.14,0-.28,0-.43a5.54,5.54,0,0,0,.05-.56,8.06,8.06,0,0,1,.1-1c0-.2-.05-.41,0-.62a12,12,0,0,1,0-1.47c0-.2-.05-.43,0-.64s.06-.42.09-.63a.14.14,0,0,0,0-.09.79.79,0,0,1,0-.13,1.23,1.23,0,0,0,0-.71c.08-.5.09-1,.12-1.53a7.54,7.54,0,0,1,.16-.93v0C29.91,25.84,29.9,25.76,29.89,25.66Z"/><path id="fill4" class="cls-3" d="M26.83,37c0,.11-.07.24,0,.33a.74.74,0,0,1,0,.3,9.05,9.05,0,0,1-.12.91,6,6,0,0,0-.12.74,3,3,0,0,1-.1.49c-.05.29-.1.59-.16.88,0,.08,0,.15,0,.23s0,.18-.07.24,0,0,0,0c0,.22-.11.41-.11.62s-.15.32,0,.49c0,0-.09.09-.11.15s-.06.25-.08.38-.17.51-.22.78a1.73,1.73,0,0,1-.27.68,2.54,2.54,0,0,0-.21.66,1.39,1.39,0,0,1-.1.33c-.13.21-.19.46-.3.68a9.85,9.85,0,0,0-.56,1.29,5.62,5.62,0,0,1-.58,1c-.19.35-.35.72-.54,1.07a6.37,6.37,0,0,1-.41.72c-.2.27-.43.51-.65.77,0,0-.05,0-.05,0a.39.39,0,0,1-.24.38,1.81,1.81,0,0,0-.32.3c-.07.07-.13.17-.2.25a2.88,2.88,0,0,1-.59.45,4.89,4.89,0,0,1-.51.26l-.67.34-.71.38h-.06s0,0,0-.05.07-.14.16-.18a4.6,4.6,0,0,0,.91-.53l.14-.12,1-1a.71.71,0,0,0,.16-.26,4.34,4.34,0,0,1,.55-.9A4.94,4.94,0,0,0,22.3,49c.19-.15.24-.39.36-.58a3.46,3.46,0,0,0,.43-1,1.89,1.89,0,0,1,.13-.33,1.5,1.5,0,0,0,.26-.74s0-.08,0-.11A8.7,8.7,0,0,0,24,44.62c0-.27.13-.52.17-.79s.07-.39.1-.58.07-.39.1-.58a1.09,1.09,0,0,0,0-.18.47.47,0,0,1,.08-.32c.07-.08.06-.23.09-.35s.13-.31.2-.47.05-.2,0-.27-.26,0-.32.1l-.49.86a1.05,1.05,0,0,1-.07.11,2.77,2.77,0,0,0-.37.57,1.86,1.86,0,0,1-.27.46,7,7,0,0,1-.67.79c-.1.1-.22.18-.32.28a2,2,0,0,0-.47.57l-.07,0a.38.38,0,0,1,0-.1,4,4,0,0,0,.21-.84,5.13,5.13,0,0,1,.1-1,.25.25,0,0,0,0-.09c0-.86,0-1.71.05-2.57A11.86,11.86,0,0,0,22,38.72a2.86,2.86,0,0,0-.15-1,.11.11,0,0,1,0-.11,4,4,0,0,0,0-.85,8.81,8.81,0,0,0,0-.89.71.71,0,0,0-.05-.26.18.18,0,0,0-.33,0,2.7,2.7,0,0,0-.09.36c-.14.34-.27.7-.42,1s-.36.72-.51,1.11-.36.62-.46,1a6.46,6.46,0,0,1-.49.9,14,14,0,0,0-.67,1.54c-.12.32-.26.64-.39,1,0,0-.06,0-.09.07s0-.07,0-.1a2.12,2.12,0,0,0-.09-.9,1.27,1.27,0,0,0-.06-.28c0-.25-.08-.49-.14-.73s-.07-.31-.1-.46c-.16-.69-.41-1.34-.62-2-.14-.45-.31-.88-.46-1.32s-.21-.61-.33-.9-.22-.56-.34-.84-.36-.75-.56-1.12-.29-.43-.43-.65-.14-.21-.2-.32-.16-.34-.36-.39,0-.11-.07-.14,0-.16-.17-.15-.1.07-.14.12a.34.34,0,0,0,0,.28c.07.34.08.7.14,1a5.15,5.15,0,0,0,.09,1.11.43.43,0,0,1,0,.16v1.91a9.32,9.32,0,0,1-.1,1.05c-.06.57-.24,1.12-.34,1.68a9.55,9.55,0,0,1-.54,1.8,10.87,10.87,0,0,0-.36,1.1c-.13.47-.28.94-.41,1.4s-.19.69-.3,1a6.42,6.42,0,0,0-.19.87c0,.12-.11.22,0,.35s0,.17-.05.26L12,46.5a.6.6,0,0,0-.09-.13,2.71,2.71,0,0,0-.75-.72c-.28-.18-.5-.44-.77-.64s-.63-.54-.94-.82-.73-.63-1.09-.94A6.79,6.79,0,0,1,7.4,42c-.28-.38-.5-.8-.8-1.18a2.77,2.77,0,0,1-.26-.48c-.11-.22-.18-.45-.28-.67a7.91,7.91,0,0,1-.52-1.29c-.13-.49-.34-1-.45-1.45a3,3,0,0,1-.1-.59,2.4,2.4,0,0,0-.06-.4c0-.07,0-.17-.17-.16s-.17.07-.22.16a.24.24,0,0,0,0,.12,5.69,5.69,0,0,1,0,1,6,6,0,0,1-.06,1.12c0,.22,0,.44,0,.65s0,.63,0,.93a6.05,6.05,0,0,0,0,1.41,5.81,5.81,0,0,0,.06.93c.07.42.07.85.11,1.27a5.4,5.4,0,0,0,.15.88c.06.25.07.5.12.74a.73.73,0,0,0,.14.42,6.88,6.88,0,0,0,.49,1.28,5.39,5.39,0,0,0,.68,1.51c.24.38.47.78.7,1.16.09.15.2.3.28.45s0,0,0,.07-.06,0-.08,0a3.68,3.68,0,0,1-.39-.4c-.24-.32-.48-.64-.69-1s-.25-.49-.38-.74a8.93,8.93,0,0,1-.61-1.29c-.11-.28-.19-.57-.29-.86a2.75,2.75,0,0,0-.17-.43,1.57,1.57,0,0,1-.16-.6,6.4,6.4,0,0,0-.14-.63c0-.22-.09-.46-.14-.69a9.94,9.94,0,0,1-.13-1.08c0-.42-.09-.86-.16-1.29a14.44,14.44,0,0,1,0-1.47,5.42,5.42,0,0,1,0-.57,4.56,4.56,0,0,0,0-.64c0-.21,0-.41,0-.62,0-.39,0-.77.06-1.15s.08-.8.12-1.19A10.39,10.39,0,0,0,4,33.64c0-.36-.06-.73-.09-1.1a9.19,9.19,0,0,0-.31-1.28c-.14-.58-.49-1.08-.62-1.67a3.86,3.86,0,0,0-.3-.8s0-.07,0-.1.08,0,.09,0c.23.46.7.73,1,1.17.14.22.35.38.49.61.27.46.57.9.84,1.36a5.45,5.45,0,0,1,.62,1.79.71.71,0,0,0,.07.26,3.21,3.21,0,0,1,.15.83c.09.38.16.77.23,1.16s0,.54.11.79a10.61,10.61,0,0,0,.39,1.47c.1.22.17.45.26.68A7.09,7.09,0,0,0,7.45,40c.17.26.34.53.52.79a.9.9,0,0,0,.19.2c.4.34.81.66,1.22,1s.64.54.93.84a6.52,6.52,0,0,1,.83,1c.14.24.31.48.44.73s.12.13.18.12.16-.19.13-.27a3,3,0,0,1-.17-1.51c0-.33.06-.67.11-1s.11-.55.16-.83a3.91,3.91,0,0,1,0-.48c.08-.38.15-.77.22-1.14a11.81,11.81,0,0,1,.29-1.34c.07-.3.07-.61.12-.91s.13-.76.22-1.14c0-.07-.12-.14,0-.2,0-.47.07-.92,0-1.38s-.11-.86-.17-1.28a.4.4,0,0,0,0-.11,3.23,3.23,0,0,0,0-.93,1.5,1.5,0,0,1,0-.3c0-.08.14-.16,0-.24a4.25,4.25,0,0,0,0-1.07,6,6,0,0,1,.12-.85c0-.17,0-.36,0-.54A6.8,6.8,0,0,1,13.2,28a11.73,11.73,0,0,1,.67-1.85c.16-.39.24-.82.43-1.19a11,11,0,0,1,.81-1.51c.17-.23.3-.48.45-.72a1.37,1.37,0,0,0,.17-.23,3.67,3.67,0,0,0,.35-.81,1.92,1.92,0,0,1,.17-.26s0,0,0,0a.14.14,0,0,1,0,.06c.05.19-.07.34-.14.49a4.71,4.71,0,0,0-.25.91c-.09.36-.2.73-.3,1.11,0,.21-.11.42-.14.64s0,.51-.07.75a5.81,5.81,0,0,0-.05,1c0,.15,0,.31,0,.46a1.33,1.33,0,0,0,0,.34.28.28,0,0,0,0,.09,5.26,5.26,0,0,0,.06.89,3.85,3.85,0,0,0,.09.67,2.2,2.2,0,0,1,.06.58,2.46,2.46,0,0,0,.07.29c.08.35.18.7.28,1.06a7.31,7.31,0,0,0,.48,1.28c.16.4.33.78.49,1.17s.37,1,.53,1.43c.22.64.43,1.28.63,1.93.13.37.23.76.33,1.15s.11.63.16.94c0,.07,0,.16.08.19a.18.18,0,0,0,.25,0s.07,0,.1-.06c.2-.11.19-.11.15-.34a1.57,1.57,0,0,1,.06-.53c.06-.22.16-.42.24-.63a5.48,5.48,0,0,1,.22-.61c.11-.26.26-.49.39-.74l.16-.32c.14-.29.29-.57.43-.86s.37-.74.56-1.11a3.36,3.36,0,0,0,.16-.33s.1-.08,0-.15,0-.12.07,0,.06,0,.06,0a.54.54,0,0,1,.19-.32c.09-.06.12-.2.16-.31a.38.38,0,0,0,0-.15s0-.1,0-.1S22,32.1,22,32a1.6,1.6,0,0,0,.05-.21,3.17,3.17,0,0,0,.06-.35.22.22,0,0,1,.08-.13c.15-.07.18-.14.05-.26s0-.05,0-.09.06,0,.08,0a.2.2,0,0,1,0,.08.17.17,0,0,0,0-.05,1.23,1.23,0,0,1,.18-.55,1.08,1.08,0,0,0,.1-.51.81.81,0,0,1,0-.22c0-.1,0-.19,0-.28.06.1.13.21.18.31a.13.13,0,0,1,0,.12,2.27,2.27,0,0,0,0,.9,3.29,3.29,0,0,0,.12.61,8.63,8.63,0,0,1,.2.88,1.82,1.82,0,0,1-.05.45c0,.15,0,.25.05.34l.06.26s.05.09.06.15-.07.35.11.48c-.11.12,0,.24,0,.37a.79.79,0,0,0,.05.37.69.69,0,0,1,0,.38c0,.11,0,.27,0,.42a1.57,1.57,0,0,0,0,.43,5.17,5.17,0,0,1,.11.54,7.74,7.74,0,0,1,.05,1.07,4.34,4.34,0,0,1,0,.51,7.53,7.53,0,0,1-.16,1.42,2.53,2.53,0,0,0,0,.48,8.62,8.62,0,0,1-.38,1.25,6.81,6.81,0,0,1-.26.76,2,2,0,0,1-.17.32c-.05.12,0,.31,0,.34a.26.26,0,0,0,.29-.13,2,2,0,0,0,.21-.44,2.19,2.19,0,0,1,.37-.69c.2-.34.4-.68.62-1a3.51,3.51,0,0,1,.37-.4c.13-.13.23-.27.35-.39s.26-.22.4-.32a1.58,1.58,0,0,0,.62-1,2.41,2.41,0,0,1,.25-.57c.14-.24.32-.46.47-.7s.09-.24.15-.36,0,0,.06,0,0,0,0,0S26.85,36.89,26.83,37Z"/><path id="fill3" class="cls-4" d="M24,42.65c0,.18,0,.35-.07.53a3.12,3.12,0,0,0,0,.52.67.67,0,0,1-.07.35,3.8,3.8,0,0,0-.22.8,2.76,2.76,0,0,0-.21.81.08.08,0,0,0,0,0,4.06,4.06,0,0,0-.25.66c-.06.24-.23.43-.28.66a5.17,5.17,0,0,1-.42,1.07c-.13.28-.33.54-.45.82s-.48.69-.68,1.05-.32.53-.49.79a1.53,1.53,0,0,1-.17.27c-.19.21-.4.4-.6.61l-.22.22a5.31,5.31,0,0,1-1,.72.24.24,0,0,1-.2,0,.53.53,0,0,0-.37.12.18.18,0,0,0-.05.3s.08.06.1.11,0,.08,0,.09l-.49.17-1.42.36c-.15,0-.3.06-.46.09a2.44,2.44,0,0,1-.26.06.53.53,0,0,1-.2.05.29.29,0,0,1-.13-.09c0-.07.08,0,.14,0s.17-.08.25-.14c.23-.14.47-.28.72-.41s.7-.33,1-.52a2.53,2.53,0,0,0,.83-.7,5,5,0,0,1,.48-.55,3.69,3.69,0,0,0,.67-1c.18-.42.34-.86.49-1.29a2.39,2.39,0,0,0,.25-.68c0-.15.07-.29.1-.44l.21-1.3a.7.7,0,0,0,0-.25,4.16,4.16,0,0,1,0-.5,3.91,3.91,0,0,1,0-.49c.08-.33,0-.67.09-1a.17.17,0,0,0,0-.14c-.12-.29,0-.59,0-.88s.06-.46,0-.67a4.84,4.84,0,0,0,0-.76c0-.09-.06-.15-.15-.16s-.17,0-.19.12c-.1.3-.2.59-.28.89a3.87,3.87,0,0,1-.36.84c-.14.25-.23.54-.38.79a3.61,3.61,0,0,1-.54.78,5.43,5.43,0,0,0-.69,1,.32.32,0,0,1,0,.09.69.69,0,0,1,0-.1s0-.07,0-.1A6,6,0,0,0,17.71,45c-.15-.57-.23-1.15-.34-1.73s-.18-.9-.28-1.34c0-.17-.07-.2-.21-.18a.23.23,0,0,0-.16.27,1.3,1.3,0,0,1,0,.85s0,.09,0,.14a6.49,6.49,0,0,1-.28,1.68c-.13.4-.23.81-.34,1.22a8.64,8.64,0,0,1-.5,1.4,1.8,1.8,0,0,1-.06.22.33.33,0,0,1-.06.1.31.31,0,0,1,0-.1.61.61,0,0,1,0-.14,3.55,3.55,0,0,0-.31-1.44,4.6,4.6,0,0,1-.13-.5c0-.22,0-.43-.06-.65s0-.17-.11-.19a.19.19,0,0,0-.23.09,2,2,0,0,0-.33.93,1.66,1.66,0,0,1-.14.37c-.13.35-.32.69-.47,1s-.22.53-.34.79-.28.68-.41,1A4.64,4.64,0,0,0,12.61,50s0,.06,0,.09L12.49,50a4.31,4.31,0,0,0-.59-.81s-.06-.17-.16-.06-.07-.05-.07-.07c0-.29-.27-.34-.4-.5a4.82,4.82,0,0,0-.55-.44c-.28-.23-.58-.46-.85-.69s-.31-.35-.47-.51a.16.16,0,0,0-.08-.08,3.2,3.2,0,0,1-.72-.79c-.07-.1-.19-.17-.27-.27a7.3,7.3,0,0,0-.62-.72,6.69,6.69,0,0,1-.8-1,1.28,1.28,0,0,1-.13-.29.22.22,0,0,0-.27-.14c-.12,0-.12.11-.12.2,0,.29,0,.58,0,.87s.07.38.11.58v.08a9.08,9.08,0,0,0,.07,1c0,.34.06.68.14,1a4.81,4.81,0,0,0,.35,1A10.88,10.88,0,0,0,8,50a4,4,0,0,0,.54.76c.27.32.54.59.81.86a1,1,0,0,1,.14.17.36.36,0,0,1,0,.11.38.38,0,0,1-.1,0c-.26-.24-.61-.37-.85-.63s-.29-.23-.36-.38a3.92,3.92,0,0,0-.55-.72,3,3,0,0,0-.42-.59,5.6,5.6,0,0,1-.5-.82c-.16-.27-.28-.58-.47-.84a6.49,6.49,0,0,1-.57-1.26c0-.12,0-.27-.11-.4a3.85,3.85,0,0,1-.28-.66A5.31,5.31,0,0,1,5,44.29c0-.41-.14-.81-.14-1.22s-.1-.71-.09-1.08,0-.59,0-.88,0-.45,0-.68a5.76,5.76,0,0,1,.06-1c0-.21,0-.42,0-.62a5.14,5.14,0,0,0,.05-.87,2,2,0,0,1,.06-.23.9.9,0,0,0,0-.16l.1.16a2.4,2.4,0,0,1,.21.64c.12.33.21.67.34,1a4.44,4.44,0,0,0,.24.49c.1.21.19.41.27.62a2.47,2.47,0,0,0,.35.61c.27.41.54.82.82,1.23a5.18,5.18,0,0,0,.88,1.14c.31.27.62.52.94.78l.1.1c.31.29.61.59.92.87s.34.25.49.37a4.19,4.19,0,0,1,.81.61,2.88,2.88,0,0,1,.63.94.26.26,0,0,0,.25.19c.1,0,.18-.14.19-.27a10.84,10.84,0,0,1,.21-1.39c.08-.52.25-1,.35-1.54,0-.2.13-.4.16-.6s.19-.38.17-.61a13.15,13.15,0,0,0,.52-1.41,9.67,9.67,0,0,0,.33-.95.37.37,0,0,0,0-.18c0-.09-.06-.2.07-.27s0-.07,0-.11c.13-.56.23-1.13.38-1.69a2.09,2.09,0,0,0,.06-.56c0-.25,0-.49.07-.74s0-.66,0-1,0-.69,0-1-.07-.64-.11-1a.5.5,0,0,0-.08-.14.49.49,0,0,1,0-.12.75.75,0,0,0-.05-.62s0-.07,0-.11a.16.16,0,0,1,.09,0,3.7,3.7,0,0,1,.21.33,2.75,2.75,0,0,0,.19.28,9.28,9.28,0,0,1,.82,1.6c.21.5.36,1,.56,1.53,0,.12.07.25.11.37s.22.48.31.71.08.34.14.51l.31.9c.1.3.18.61.25.91s.11.56.16.83a6.54,6.54,0,0,1,.2.9,2.24,2.24,0,0,1,.05.59,2,2,0,0,0,.05.72.18.18,0,0,1,0,.16c-.05.11,0,.21.11.28a.17.17,0,0,0,.27-.1c.08-.43.29-.81.4-1.23a2.37,2.37,0,0,1,.26-.56c.05-.13.08-.27.12-.4a.91.91,0,0,0,.07-.14.86.86,0,0,0,.09-.27c0-.14,0-.26.17-.32l.06,0c0-.28.21-.42.3-.64s.14-.28.21-.41l.1-.19c.05-.06.12-.12.12-.17,0-.3.22-.49.3-.75l.1-.21c.14-.33.31-.65.46-1a1.19,1.19,0,0,0,.21-.85c0-.07,0-.16.07-.24,0,.08,0,.16,0,.24,0,.45,0,.91.06,1.35s.1.88.14,1.32a2.89,2.89,0,0,1,0,.29c0,.62.05,1.25.06,1.86a3,3,0,0,1-.06.51c0,.16,0,.32,0,.49,0,0,0,.06,0,.09a.5.5,0,0,1,0,.21,7.78,7.78,0,0,0-.11,1,4.85,4.85,0,0,1-.24,1.41c-.09.27-.11.55-.21.81a1.85,1.85,0,0,1-.12.33c-.05.11-.08.2,0,.27a.19.19,0,0,0,.28-.06.78.78,0,0,0,.1-.15c.18-.45.55-.77.76-1.2a2,2,0,0,1,.35-.36l.45-.45a3.89,3.89,0,0,0,.69-.92,1.31,1.31,0,0,0,.28-.58s.05,0,.06,0A.14.14,0,0,1,24,42.65Z"/><path id="fill2" class="cls-5" d="M20.34,43.49a2.09,2.09,0,0,0-.12.9c0,.22,0,.43,0,.65a5,5,0,0,1,0,.53,2.46,2.46,0,0,1,0,.54c-.05.12,0,.26,0,.41a.39.39,0,0,1,0,.15c-.07.39-.15.76-.22,1.14,0,.16,0,.32,0,.48a3.81,3.81,0,0,1-.3.9c-.17.41-.32.81-.51,1.21a3.19,3.19,0,0,1-.38.6c-.28.34-.58.65-.87,1a2.52,2.52,0,0,1-.73.51l-1,.52a6.1,6.1,0,0,0-.7.41.51.51,0,0,1-.17.07c-.19,0-.24.12-.22.28s0,.11-.09.12a5.79,5.79,0,0,1-1.44,0A4.83,4.83,0,0,1,12,53.58l-1-.41a.31.31,0,0,1-.15-.12,1.44,1.44,0,0,0-.47-.59,5.14,5.14,0,0,1-.82-.92,2.16,2.16,0,0,0-.37-.43,5.11,5.11,0,0,1-1-1.2c-.19-.32-.41-.63-.61-.95a2.21,2.21,0,0,1-.18-.34c-.14-.35-.28-.69-.41-1a3.21,3.21,0,0,1-.18-.77c0-.28,0-.57,0-.85s-.07-.71-.12-1.06c0-.14,0-.27,0-.41s.06-.09.11,0,.16.24.26.36.28.36.43.55l.34.39c.12.14.24.29.37.43C8.76,46.8,9.34,47.41,10,48a6,6,0,0,0,.74.57,4.16,4.16,0,0,1,1.14,1.15,1.42,1.42,0,0,0,.22.28,1.12,1.12,0,0,1,.25.42.84.84,0,0,0,.12.23c.05.05.13.11.18.1a.33.33,0,0,0,.17-.18c.17-.41.23-.85.37-1.27a1.13,1.13,0,0,0,0-.18s0-.11,0-.14.12-.25.17-.38c.16-.42.36-.82.54-1.23s.23-.57.38-.84a5.93,5.93,0,0,0,.3-.93.21.21,0,0,0,0-.14c-.1-.07,0-.13,0-.19l0-.05s0,0,0,0a.77.77,0,0,1,.12.33c0,.17.12.35.13.52a7.82,7.82,0,0,1,.21,1c0,.11.1.23.1.35,0,.47,0,.94-.07,1.41,0,.07,0,.11,0,.17a.16.16,0,0,0,.22.07.34.34,0,0,0,.15-.22,6.39,6.39,0,0,1,.41-1.21c.17-.52.41-1,.54-1.56s.26-.92.38-1.39a2.31,2.31,0,0,0,.08-.47c0-.15,0-.3.07-.45a.75.75,0,0,1,.07-.12.66.66,0,0,1,.08.13c.05.23.07.46.12.69s.13.47.16.71.15.65.19,1,0,.77,0,1.16a.23.23,0,0,0,.1.17s.11,0,.16-.06a.41.41,0,0,0,.14-.25,1.76,1.76,0,0,1,.21-.44c.13-.22.25-.45.39-.66a3.12,3.12,0,0,1,.44-.59,3.78,3.78,0,0,0,.58-1c.12-.28.28-.52.41-.78a2.07,2.07,0,0,0,.14-.42.13.13,0,0,1,.05-.07s.05,0,.05,0A.25.25,0,0,1,20.34,43.49Z"/><path id="fill1" d="M7,38.32a5.44,5.44,0,0,1,.27.54,6.91,6.91,0,0,0,.64,1.2,3,3,0,0,0,.48.64l1,.83c.17.14.33.29.49.44s.62.55.91.85a3.87,3.87,0,0,1,.43.55c0,.05,0,.14,0,.21s0,0,.05.06,0,0,0-.07c0-.26,0-.53,0-.79a6,6,0,0,1,.16-1.19c.06-.29.06-.59.12-.88a4.8,4.8,0,0,1,.14-.83,2,2,0,0,0,.08-.42,4.2,4.2,0,0,1,.22-1.11c-.07-.36.15-.67.18-1s.16-.82.21-1.23A10.51,10.51,0,0,0,12.55,35a5.93,5.93,0,0,0,0-.73c0-.22-.07-.44-.1-.66a.19.19,0,0,1,0-.08,22.75,22.75,0,0,1,0-2.86,4.09,4.09,0,0,1,.14-1.14,4.07,4.07,0,0,0,.07-.61c.05-.28.13-.55.18-.82a6.72,6.72,0,0,1,.45-1.33,9.13,9.13,0,0,1,.48-1.18c.18-.33.25-.72.41-1.06a12.7,12.7,0,0,1,1.06-1.82c.31-.45.55-.92.84-1.37a7.4,7.4,0,0,1,.51-.63.25.25,0,0,1,.31,0,.15.15,0,0,1,0,.25.26.26,0,0,0-.05.12c-.14.41-.3.83-.42,1.25s-.21.81-.31,1.22c-.06.23-.12.45-.19.67a3.3,3.3,0,0,0-.15.81c0,.21,0,.42-.06.63a.34.34,0,0,1,0,.1c0,.11,0,.21,0,.32s0,.11,0,.16,0,.29,0,.45,0,.61,0,.92a1.12,1.12,0,0,0,.07.45.73.73,0,0,1,0,.29,6.29,6.29,0,0,0,.26,1.6c.09.32.16.64.25,1a2.54,2.54,0,0,0,.17.46c.14.35.3.7.44,1,.06.15.11.31.17.46.2.53.38,1.06.57,1.58s.27.75.4,1.13c.23.7.45,1.4.65,2.11a2.51,2.51,0,0,1,0,.39.12.12,0,0,0,0,.08s.06,0,.06-.06a6,6,0,0,1,.37-1.16,5.07,5.07,0,0,1,.53-1.13c.23-.41.41-.85.62-1.28a1.26,1.26,0,0,1,.18-.32,7.73,7.73,0,0,0,.49-1c.15-.25.29-.51.43-.77a3.18,3.18,0,0,0,.36-.77c.08-.29.25-.55.35-.84a5.53,5.53,0,0,0,.33-1.07,2,2,0,0,1,.21-.78c.1-.14,0-.3.06-.45s.09-.24.25-.22.18.1.13.19,0,.28,0,.43a1.08,1.08,0,0,1,0,.59s0,.07,0,.08,0,.33.05.49a3.47,3.47,0,0,0,.11.9,1.61,1.61,0,0,1,0,.31c0,.12,0,.24.09.33s0,0,0,.07c0,.28.05.57.06.85a3.15,3.15,0,0,0,.11.74,4.64,4.64,0,0,1,.11.51,2.05,2.05,0,0,0,.11.6s0,.05,0,.08a3.27,3.27,0,0,1,0,.54,4.87,4.87,0,0,0,0,.54,1.22,1.22,0,0,0,.05.37,2.6,2.6,0,0,1,.06.56c0,.31,0,.61.06.91,0,.12-.09.26,0,.34a.84.84,0,0,1,0,.35,4.78,4.78,0,0,1-.16,1.3,6,6,0,0,0-.12.74c0,.13-.07.27-.09.41s0,.09,0,.13l.08-.09a3.5,3.5,0,0,1,1-1.26,3.24,3.24,0,0,0,.67-.61,4.29,4.29,0,0,0,.36-.63,8.62,8.62,0,0,1,.43-.86c.2-.33.4-.65.57-1,.07-.13.12-.27.2-.39s.14-.13.16-.12.21.06.21.21a5.85,5.85,0,0,1-.14,1.18,1.24,1.24,0,0,0,0,.27A3.83,3.83,0,0,1,27,38.52c0,.06,0,.13,0,.19s-.07.38-.1.58c0,0,0,.05,0,.07a5.33,5.33,0,0,1-.22,1.43c0,.11,0,.24-.1.35s0,.14,0,.21c-.06.31-.16.61-.19.92a3.84,3.84,0,0,1-.18.83c-.05.21-.13.41-.19.63a2.9,2.9,0,0,1-.2.5,3.35,3.35,0,0,0-.33,1.06,1,1,0,0,1,0,.1c-.09.18-.16.37-.26.53a5.11,5.11,0,0,0-.41,1A5.9,5.9,0,0,1,24,48.37a6.37,6.37,0,0,0-.63,1.25.19.19,0,0,0,0,.13l.05,0a2.51,2.51,0,0,0,.26-.31c.22-.35.47-.67.71-1s.55-.85.82-1.28a3.15,3.15,0,0,1,.71-.91c0-.15.15-.2.18-.31a2.36,2.36,0,0,1,.35-.62,2,2,0,0,0,.1-.26c.16-.35.31-.7.48-1s.36-.8.52-1.21.38-1.06.59-1.58c.06-.16.1-.33.15-.49a2.36,2.36,0,0,1,.18-.49,1.92,1.92,0,0,0,.15-.66c.11-.46.15-.92.28-1.37a6.21,6.21,0,0,0,.12-.85c.05-.3.11-.59.17-.89v-.16c0-.24.09-.46.1-.68s.09-.64.12-1l.06-.42a5.48,5.48,0,0,0,.05-.57c0-.33.07-.66.1-1s0-.41,0-.62a10.2,10.2,0,0,1,0-1.46c0-.21,0-.43,0-.65a4.52,4.52,0,0,1,.08-.63.17.17,0,0,0,0-.1s0-.08,0-.12a1.23,1.23,0,0,0,0-.71c.08-.51.09-1,.12-1.52a6,6,0,0,1,.16-.94v0l0-.27-.1.21c-.31.63-.58,1.28-.83,1.93a19.37,19.37,0,0,1-.9,1.9c-.19.34-.42.66-.59,1s-.5.84-.75,1.26c-.08.13-.18.24-.26.37s0,.22-.09.33a1.67,1.67,0,0,0-.2.47,2.2,2.2,0,0,1-.32.51,2.82,2.82,0,0,0-.3.72,9.17,9.17,0,0,0-.27,1c0,.13-.1.15-.18.21s-.15,0-.16-.07a.76.76,0,0,1,0-.3c.09-.33.25-.64.32-1a3.48,3.48,0,0,0,.22-1.11,1.9,1.9,0,0,1,.05-.4c0-.07,0-.15,0-.23a2.34,2.34,0,0,0,0-.26,7.72,7.72,0,0,1,.11-1.17.42.42,0,0,0,0-.27.63.63,0,0,1-.05-.38c0-.26,0-.53,0-.79a7.11,7.11,0,0,0-.1-.79.48.48,0,0,1,0-.12,6.08,6.08,0,0,0-.07-.95,7,7,0,0,0-.25-1.29.41.41,0,0,1,0-.19,1.51,1.51,0,0,0-.14-.7s0-.05,0-.07c0-.32-.19-.59-.18-.9,0,0-.08-.07-.1-.12a5.48,5.48,0,0,1-.4-1.07,2.11,2.11,0,0,0-.17-.38l-.33-.78c-.05-.13-.09-.26-.13-.4a7.31,7.31,0,0,0-.48-1.28c-.1-.21-.15-.44-.23-.66a.51.51,0,0,0-.09-.16s-.08,0-.11-.05,0,.09,0,.13a2.83,2.83,0,0,1,.05.82.81.81,0,0,0,.05.37c0,.07,0,.19-.05.28s0,.34,0,.51-.06,0-.1.05a.41.41,0,0,1,0-.08h0l.05.09a4.44,4.44,0,0,1,0,.63c0,.27-.12.5-.14.76s-.17.52-.21.78c-.05.42-.28.79-.35,1.2a2.62,2.62,0,0,1-.18.43,1.72,1.72,0,0,1-.31.6c-.15.18-.17.45-.38.6.06.17-.15.19-.17.33a1.81,1.81,0,0,1-.18.37c-.07.12-.15.24-.21.36s-.23.51-.36.75-.3.45-.41.7-.2.26-.15.44a.21.21,0,0,1-.07.16.56.56,0,0,0-.15.39,2.32,2.32,0,0,1-.13.45s0,.08,0,.1,0,.34,0,.51a.26.26,0,0,1-.09.19.23.23,0,0,1-.16,0s-.07-.08-.08-.13a.49.49,0,0,1,0-.17,3.16,3.16,0,0,0-.14-.92,1,1,0,0,1,0-.17s0-.07,0-.08c-.2-.21-.1-.52-.27-.75s0-.25-.06-.37-.06-.29-.1-.43a2.64,2.64,0,0,0-.12-.4c0-.07.19,0,.06-.12a.44.44,0,0,1-.1-.16.19.19,0,0,1,0-.07,18.64,18.64,0,0,1-.11-2.11c0-.12,0-.23,0-.34s.05-.21.06-.32.05-.45.05-.67A6.51,6.51,0,0,1,18.5,23c.11-.39.23-.78.35-1.17A5.1,5.1,0,0,0,19,21a.89.89,0,0,0,.06-.2c0-.12.11-.21,0-.36s.08-.22.1-.33c.07-.34.18-.67.28-1s.2-.77.29-1.16.1-.52.16-.78.11-.49.18-.74a3.61,3.61,0,0,0,.16-.74c0-.34.11-.67.16-1,0,0,0-.12,0-.16s-.07-.28,0-.44a.93.93,0,0,0,0-.44,7.73,7.73,0,0,0-.21-1.51.61.61,0,0,1,0-.19,2.54,2.54,0,0,0-.35-1.23c-.05-.12-.1-.24-.14-.36a.56.56,0,0,0-.17-.29c-.14-.15-.23-.35-.45-.39h-.12s0,.1,0,.11c.25,0,.21.24.27.39a3.3,3.3,0,0,1,.25.81,11.22,11.22,0,0,1,.09,1.53,8.59,8.59,0,0,1-.17,1,3.11,3.11,0,0,1-.23.79c-.08.19-.15.37-.22.56a5.39,5.39,0,0,1-.37.6c-.15.26-.3.53-.46.79a1.4,1.4,0,0,1-.39.45l-.06.06c-.2.26-.4.53-.61.78s-.53.57-.79.85a.33.33,0,0,1-.1,0s0-.07,0-.09l.25-.23.16-.13s0-.05,0-.08h0c-.11.08-.23.14-.33.22s-.25.2-.14.39-.06.14-.11.19l-.58.53-.23.22a1.34,1.34,0,0,1,.09-.26,1.62,1.62,0,0,0-.18.19c-.06.08-.08.21-.23.19s-.06.07-.09.12a.57.57,0,0,0,0,.14.47.47,0,0,1,.1-.1l.1-.07.05,0a.12.12,0,0,1,0,.08l-.1.1c-.33.35-.68.68-1,1.05A6.74,6.74,0,0,0,13,22c-.27.5-.65.93-.94,1.43s-.56.86-.8,1.32c-.11.23-.16.48-.25.71s-.12.25-.17.38l-.39,1.07c-.08.22-.14.45-.23.66-.15.38-.21.79-.33,1.18a6.16,6.16,0,0,0-.29,1.34c0,.31-.08.62-.11.93a5.62,5.62,0,0,0,.06,1.36c0,.26.08.51.11.77a2.86,2.86,0,0,0,.23.77c0,.1.2.2.22.3s-.09.19-.21.22-.15,0-.18-.12-.16-.39-.22-.58a5.14,5.14,0,0,1-.24-1c0-.33-.1-.65-.1-1,0-.09,0-.19,0-.28a3.37,3.37,0,0,1,.1-1,4,4,0,0,0,.06-.5,8.73,8.73,0,0,1,.33-1.41c.13-.48.24-1,.4-1.46s.42-1.13.64-1.69a6.9,6.9,0,0,1,.3-.75c.17-.34.35-.67.55-1s.46-.71.7-1.06l.86-1.29a5.12,5.12,0,0,1,.44-.49c.35-.39.69-.79,1.05-1.16.68-.7,1.38-1.37,2.05-2.06a6.41,6.41,0,0,0,.7-.86c.17-.25.4-.47.59-.71a1.21,1.21,0,0,0,.25-.46,1.16,1.16,0,0,1,.23-.4,4.38,4.38,0,0,0,.55-1.23,8.41,8.41,0,0,0,.23-1.11,3.74,3.74,0,0,0,0-.88c0-.18,0-.36,0-.54s-.13-.33-.1-.51a.08.08,0,0,0,0-.05,3.7,3.7,0,0,1-.36-1.11,1.13,1.13,0,0,0-.27-.48l0,0c-.11-.12-.14-.23-.06-.31a.35.35,0,0,1,.33,0,3.92,3.92,0,0,1,1,.9,3,3,0,0,1,.37.6c.06.09.06.22.12.31a2.62,2.62,0,0,1,.28.9c.07.43.15.86.18,1.3a5.09,5.09,0,0,1,0,.56c0,.18,0,.36,0,.55a5.82,5.82,0,0,1,0,.59,4,4,0,0,1-.1.77,2.84,2.84,0,0,0-.06.51,2.81,2.81,0,0,1-.14.7c0,.12-.05.25-.08.38a4.72,4.72,0,0,0-.13.54,4,4,0,0,1-.21.83c-.11.35-.17.71-.31,1.05a2.68,2.68,0,0,0-.13.56c0,.21-.08.42-.12.63s-.08.32-.11.48c-.08.36-.13.73-.23,1.09s-.28.82-.38,1.24-.08.64-.12,1-.05.46-.1.68l-.06,0,0,0c0,.21,0,.43,0,.64,0,.37-.06.75,0,1.12s.07.88.11,1.32c0,.08,0,.17,0,.27a.56.56,0,0,0,0,.17l0-.13v0a.26.26,0,0,1,.08.35.15.15,0,0,0,0,.11.78.78,0,0,1,.15.44,3.79,3.79,0,0,0,.18.66c0,.15.15.37,0,.54,0,0,0,.07,0,.11a.24.24,0,0,1,0,.08s.07,0,.08-.06,0-.25.08-.36.19-.46.3-.69a11.45,11.45,0,0,1,.57-1.1c.12-.19.19-.41.3-.61s.29-.57.45-.84a7.07,7.07,0,0,0,.84-1.67c.09-.33.27-.64.38-1s.12-.48.18-.71a2.36,2.36,0,0,1,.12-.54,4,4,0,0,0,.19-1,2.21,2.21,0,0,0,.09-.85.41.41,0,0,1,0-.32c.05-.09,0-.23,0-.34a2,2,0,0,1,0-.88.25.25,0,0,0,0-.08c0-.16,0-.15.05-.36l-.05,0c-.1-.09-.13-.19-.07-.28s.33-.24.39-.16a.56.56,0,0,1,.13.28,4.61,4.61,0,0,0,.57,1.44,3.76,3.76,0,0,1,.44,1.24,4.2,4.2,0,0,0,.26.65c.21.48.36,1,.54,1.46.05.16.11.33.15.51s-.07.1,0,.14v.06a.31.31,0,0,1,0,.08l0-.08v-.08a4.44,4.44,0,0,1,.29.87,9.43,9.43,0,0,0,.2,1.06,1.06,1.06,0,0,1,0,.43s0,.1,0,.1a.21.21,0,0,1,.11.26,1.13,1.13,0,0,0,.07.52,1.22,1.22,0,0,1,0,.33.58.58,0,0,0,0,.31,1.34,1.34,0,0,1,.07.39,1.87,1.87,0,0,1,0,.48c0-.11,0-.21,0-.31h0a3,3,0,0,0,0,.31h0c0,.2.08.39.09.58a3.18,3.18,0,0,1,0,.69c0,.08.09.21-.07.26s0,.05,0,.07a3,3,0,0,1,0,1.15,3.42,3.42,0,0,1-.17,1.1s0,0,0,.06.06,0,.07,0,.2-.15.2-.31.11-.19.16-.29a5.38,5.38,0,0,1,.24-.55c.17-.29.35-.58.53-.87a15.27,15.27,0,0,0,.86-1.47c.16-.33.36-.65.53-1,.37-.73.67-1.5,1-2.25a6,6,0,0,1,.4-.85,12.43,12.43,0,0,0,.65-1.32s0-.07.06-.09.13-.2.27-.11a.21.21,0,0,1,0,.29,4.5,4.5,0,0,0-.31.94,3,3,0,0,0-.11.43c-.07.41-.12.83-.17,1.25a.4.4,0,0,0,0,.11,11.9,11.9,0,0,1-.07,1.2c-.07.46,0,.91-.05,1.36s0,.86,0,1.29a1.08,1.08,0,0,0,0,.44c.06.15-.05.27,0,.41a1.26,1.26,0,0,1,.06.42,4.09,4.09,0,0,1,0,.5c-.08.31,0,.62-.08.94a7.18,7.18,0,0,0-.13.93c0,.21-.07.42-.1.63,0,0,0,0,0,0a2.94,2.94,0,0,1-.12.93,3.43,3.43,0,0,1-.14.84,2.61,2.61,0,0,0-.08.5c0,.23-.08.47-.13.7l-.09.47c-.07.36-.12.73-.21,1.09-.05.2-.06.42-.13.62-.13.38-.3.75-.41,1.14s-.25.59-.33.91-.19.31-.16.52c-.17.1-.16.3-.23.46a3.65,3.65,0,0,1-.28.64,7.66,7.66,0,0,1-.43.86,1.43,1.43,0,0,0-.12.31c-.08.2-.23.38-.31.57s-.36.5-.47.79l-.05.06a4.38,4.38,0,0,0-.66,1c-.16.28-.35.55-.53.81s-.36.55-.56.81a4.77,4.77,0,0,1-.45.54c-.23.21-.48.39-.7.59s-.43.44-.65.65-.46.4-.67.61a6.11,6.11,0,0,1-.91.85.85.85,0,0,1-.29.17,6.78,6.78,0,0,0-1,.49,6.48,6.48,0,0,0-.57.33c-.18.12-.22.12-.39,0a.12.12,0,0,0-.1,0c-.1,0-.18.11-.28.14a2.84,2.84,0,0,1-.49.17,8.19,8.19,0,0,0-1,.28,2.26,2.26,0,0,1-.43.11,6.51,6.51,0,0,0-.77.13,2,2,0,0,1-.48,0,4.91,4.91,0,0,0-.85,0,.52.52,0,0,1-.45,0s-.05,0-.08,0a3.5,3.5,0,0,1-1.44-.24,4.28,4.28,0,0,1-1.36-.57,2.65,2.65,0,0,0-.54-.25,3.83,3.83,0,0,1-.86-.49,3.19,3.19,0,0,1-.75-.54,7.08,7.08,0,0,0-.59-.5c-.34-.3-.71-.58-1.05-.9a4.23,4.23,0,0,1-.51-.44c-.16-.19-.35-.34-.51-.52s-.59-.65-.88-1-.61-.68-.91-1a5.31,5.31,0,0,1-.71-1c-.19-.36-.42-.68-.6-1a8.06,8.06,0,0,1-.43-1.22c-.12-.38-.21-.76-.29-1.14s-.18-.63-.23-.95a10.83,10.83,0,0,1-.1-1.39c0-.44,0-.88-.06-1.32a4.28,4.28,0,0,1-.05-.49c0-.4.05-.81.11-1.21s.08-1,.12-1.44,0-.88.05-1.32c0-.12,0-.24,0-.37A4.62,4.62,0,0,0,2,33.62a7.21,7.21,0,0,0-.34-1.29,6.29,6.29,0,0,0-.43-.91A10.11,10.11,0,0,1,.51,30c0-.07,0-.14-.07-.2a3.73,3.73,0,0,1-.27-.92C.11,28.57.06,28.3,0,28a.47.47,0,0,1,0-.17V26.68a7.8,7.8,0,0,1,.2-1.37c.07-.35.15-.69.25-1s.15-.5.25-.74a14.23,14.23,0,0,1,1-1.93c.15-.26.27-.52.41-.78a.86.86,0,0,1,.17-.24.16.16,0,0,1,.24,0c0,.06.09.08.06.2a4.8,4.8,0,0,0-.25,1.41c0,.14-.05.29-.05.43a6.45,6.45,0,0,0,.42,2.29,5.55,5.55,0,0,0,1,1.64c.27.31.49.66.76,1s.49.51.75.76A7.57,7.57,0,0,1,6.43,30c.15.27.29.54.43.82a8.82,8.82,0,0,1,.59,1.55c.09.34.11.7.17,1a9.45,9.45,0,0,1,.18,1.3,4.32,4.32,0,0,0,.11.88,6,6,0,0,0,.42,1.56,1.5,1.5,0,0,1,.11.34,1.59,1.59,0,0,0,.3.5c.26.35.5.71.76,1a1.27,1.27,0,0,0,.35.3,2.8,2.8,0,0,1,.57.46s.06,0,.09,0,0-.06,0-.1a3.47,3.47,0,0,1,0-.72,3.9,3.9,0,0,0,0-.59l.06-.85a3,3,0,0,1,.05-.84c-.09-.11,0-.25-.05-.37a6.87,6.87,0,0,0-.34-1.62,1.41,1.41,0,0,1-.17-.69.15.15,0,0,0-.05-.12c-.06-.06-.09-.15,0-.18s.17,0,.26,0,0,.06.05.09c.14.33.3.66.42,1a4.06,4.06,0,0,1,.2,1,5.24,5.24,0,0,1,.1.77c-.06.55,0,1.1,0,1.66,0,.31-.09.62-.1.93a4.76,4.76,0,0,0,.07.75s0,.09,0,.13a.76.76,0,0,0,.19.54c.09.12,0,.24-.12.36s-.17.05-.27-.08-.23-.32-.36-.47a8.13,8.13,0,0,0-1.07-.87s-.07,0-.08-.06c-.19-.36-.49-.65-.7-1a4,4,0,0,1-.47-.73,7.41,7.41,0,0,1-.42-1.31,8.47,8.47,0,0,1-.12-.88c0-.29-.11-.58-.16-.88s-.08-.62-.11-.93-.11-.43-.13-.66A4.22,4.22,0,0,0,7,32.25a13.17,13.17,0,0,0-1-2.12,8.15,8.15,0,0,0-1.52-1.89,15.67,15.67,0,0,1-1.33-1.6,7.08,7.08,0,0,1-.63-1A6.82,6.82,0,0,1,2,23.75a11.64,11.64,0,0,1,0-1.32c0-.09,0-.19.05-.29a.55.55,0,0,0,0-.17l-.08.13a1,1,0,0,1-.08.14c-.19.34-.4.67-.56,1a7.22,7.22,0,0,0-.36,1c-.1.32-.18.65-.25,1A4.3,4.3,0,0,0,.39,26.4c0,.36,0,.73,0,1.09a6.27,6.27,0,0,0,.29,1.73c.1.37.28.71.41,1.07a4.21,4.21,0,0,0,.49.94,4.64,4.64,0,0,1,.55,1.2c.12.41.17.84.29,1.26a4.89,4.89,0,0,1,.09,1.66,8.44,8.44,0,0,1,0,1c-.06.32,0,.64,0,1s-.07.81-.11,1.21a2,2,0,0,1-.07.23s0,.09,0,.12,0,.27,0,.4a12.08,12.08,0,0,0,.07,1.35c0,.3,0,.6,0,.9a9.35,9.35,0,0,0,.2,1.29c.07.35.16.7.25,1A9.16,9.16,0,0,1,3,44.93a3,3,0,0,0,.19.5c.3.62.7,1.19,1,1.79l.17.21,1.13,1.29c.15.17.31.31.47.47l.12.18.06,0s0-.06,0-.07A2.36,2.36,0,0,0,6,49a3,3,0,0,1-.35-.45c-.22-.38-.42-.77-.62-1.17a5.85,5.85,0,0,1-.52-1.27,6.1,6.1,0,0,0-.33-.84,4.56,4.56,0,0,1-.28-1c0-.37-.16-.73-.24-1.1a.29.29,0,0,1,0-.1l-.06-.84A2,2,0,0,0,3.53,42c0-.27-.09-.55-.11-.82,0-.51,0-1-.06-1.52,0-.18,0-.36,0-.54s0-.39,0-.59a2,2,0,0,0,0-.54,1.56,1.56,0,0,1,0-.48c0-.07,0-.15,0-.23a6.59,6.59,0,0,1,.11-1.08.79.79,0,0,0,0-.22,5.16,5.16,0,0,1,.1-.88,7,7,0,0,0,0-1.37c0-.37-.07-.74-.11-1.11a6.73,6.73,0,0,0-.21-1,9.71,9.71,0,0,0-.57-1.47,2.91,2.91,0,0,1-.16-.5,3.35,3.35,0,0,0-.2-.61c-.09-.2-.16-.42-.25-.63s-.18-.52-.29-.77-.06-.3,0-.35.22,0,.33.18.34.44.5.67c.37.53.9.94,1.27,1.49.1.16.26.28.37.43l.44.66c.22.35.44.69.65,1.05a3.67,3.67,0,0,1,.36.92c0,.1.07.21.1.31a9.19,9.19,0,0,1,.29,1.26c0,.37.15.73.17,1.11a4,4,0,0,0,.13.58c0,.29.09.58.14.87a2.44,2.44,0,0,1,.06.26A4,4,0,0,0,7,38.15a.23.23,0,0,1,0,.16s0,0,0,.06l0,0m16.13-5.57a1.8,1.8,0,0,0,.05-.46c-.05-.29-.13-.58-.2-.87a2.63,2.63,0,0,1-.12-.61,2.33,2.33,0,0,1,0-.91.11.11,0,0,0,0-.11c-.05-.1-.12-.21-.18-.31a2.36,2.36,0,0,0,0,.28,1.62,1.62,0,0,0,0,.22,1,1,0,0,1-.11.52,1.14,1.14,0,0,0-.17.54s0,0,0,.05a.2.2,0,0,0,0-.08s-.05,0-.07,0,0,.08,0,.09.11.19,0,.26a.22.22,0,0,0-.08.14c0,.11,0,.23-.06.35A1.46,1.46,0,0,1,22,32c0,.08,0,.19-.16.16a.29.29,0,0,0,0,.1s0,.1,0,.15a.69.69,0,0,1-.16.32.54.54,0,0,0-.19.31s-.05,0-.06,0-.1,0-.06,0,0,.12,0,.15a3.36,3.36,0,0,1-.16.33l-.56,1.11c-.15.29-.29.57-.43.86-.06.11-.1.22-.16.32-.13.25-.28.49-.39.74s-.15.4-.23.61-.17.41-.23.63a1.54,1.54,0,0,0-.06.52c0,.24.06.24-.14.35a.45.45,0,0,0-.12.06.17.17,0,0,1-.24,0c-.05,0-.06-.12-.07-.19-.06-.31-.1-.63-.18-.94s-.19-.77-.31-1.15c-.21-.65-.42-1.29-.64-1.93-.16-.48-.34-.95-.53-1.43l-.49-1.17a9.39,9.39,0,0,1-.49-1.28l-.28-1.06a2.5,2.5,0,0,1-.05-.29,3,3,0,0,0-.07-.59,4.84,4.84,0,0,1-.09-.65c-.05-.3-.05-.6-.07-.9V27.2a2.11,2.11,0,0,1,0-.35c0-.15,0-.31,0-.46a7,7,0,0,1,.05-1c.06-.24,0-.5.07-.75s.09-.43.14-.64c.1-.37.21-.74.3-1.11a4.71,4.71,0,0,1,.25-.91.73.73,0,0,0,.14-.5.43.43,0,0,1,0-.05l0,0a.8.8,0,0,0-.16.26,4.54,4.54,0,0,1-.36.81,1.88,1.88,0,0,1-.18.24c-.14.23-.27.48-.44.71A11,11,0,0,0,14.3,25c-.19.38-.27.8-.43,1.19A12.52,12.52,0,0,0,13.2,28a6.68,6.68,0,0,0-.27,1.09,3.19,3.19,0,0,1,0,.54,6.15,6.15,0,0,0-.1.85,4.77,4.77,0,0,1-.06,1.07c.14.08,0,.16,0,.23s0,.22,0,.31a3.64,3.64,0,0,1,.06.93.4.4,0,0,0,0,.11c.05.43.14.85.16,1.28s0,.92,0,1.38c-.11.06,0,.13,0,.2q-.12.57-.21,1.14a8.86,8.86,0,0,1-.13.9c-.11.45-.2.89-.28,1.34s-.14.77-.22,1.15c0,.16,0,.32,0,.48s-.12.55-.16.82-.08.67-.11,1a3.07,3.07,0,0,0,.17,1.53c0,.07,0,.25-.13.26s-.13,0-.18-.12c-.13-.25-.3-.49-.45-.74a6.29,6.29,0,0,0-.82-1A9.52,9.52,0,0,0,9.37,42L8.16,41a.9.9,0,0,1-.19-.2c-.18-.26-.35-.53-.52-.79a6.07,6.07,0,0,1-.57-1.14c-.1-.22-.17-.45-.27-.67a8.14,8.14,0,0,1-.38-1.47,6.52,6.52,0,0,1-.12-.79c-.07-.39-.14-.78-.23-1.16s0-.58-.16-.83a1.1,1.1,0,0,1-.06-.26A5.37,5.37,0,0,0,5,31.86c-.27-.46-.56-.9-.84-1.36-.13-.23-.35-.39-.48-.61-.27-.44-.73-.71-1-1.17,0,0-.06,0-.09,0s0,.07,0,.1a3.83,3.83,0,0,1,.29.8c.13.59.48,1.09.62,1.68a8.72,8.72,0,0,1,.31,1.27c0,.37.08.74.1,1.1a11.87,11.87,0,0,1-.1,1.58c0,.4-.07.79-.12,1.19s0,.77-.06,1.15c0,.21,0,.41,0,.62a4.56,4.56,0,0,1,0,.64,3.62,3.62,0,0,0,0,.57,10.14,10.14,0,0,0,0,1.46c.06.44.12.87.16,1.31A7.63,7.63,0,0,0,4,43.23c0,.23.09.47.14.7s.11.41.13.61a1.78,1.78,0,0,0,.17.61,2.75,2.75,0,0,1,.17.43c.1.29.18.58.29.86a10.13,10.13,0,0,0,.61,1.29c.13.24.23.51.38.74s.45.66.69,1a3.68,3.68,0,0,0,.39.4.11.11,0,0,0,.08,0s0,0,0-.07-.2-.3-.29-.45c-.23-.38-.46-.78-.7-1.16a5.39,5.39,0,0,1-.68-1.51,7.66,7.66,0,0,1-.49-1.28A.73.73,0,0,1,4.77,45c0-.25-.06-.5-.12-.74a4.5,4.5,0,0,1-.15-.88c0-.43,0-.85-.12-1.27s0-.62,0-.93a6.65,6.65,0,0,1,0-1.41c.06-.3,0-.62.06-.93s0-.43,0-.65A6.88,6.88,0,0,0,4.54,37a8.68,8.68,0,0,0,0-1,.41.41,0,0,1,0-.11.26.26,0,0,1,.23-.17c.13,0,.14.1.16.17A1.76,1.76,0,0,1,5,36.3a3,3,0,0,0,.1.6c.11.5.32,1,.45,1.44a7.35,7.35,0,0,0,.52,1.3c.1.22.18.45.28.67a1.72,1.72,0,0,0,.26.48c.3.37.52.8.8,1.18a6.79,6.79,0,0,0,1,1.28c.36.31.74.61,1.09.93s.61.58.94.83.49.46.77.64a2.9,2.9,0,0,1,.76.72l.08.13a1,1,0,0,0,.08-.14c0-.08.09-.2.05-.24s0-.25,0-.36a6.42,6.42,0,0,1,.19-.87c.11-.34.2-.68.3-1s.28-.94.41-1.4a8,8,0,0,1,.36-1.11,9.55,9.55,0,0,0,.54-1.8c.1-.56.27-1.11.34-1.68a9.32,9.32,0,0,0,.1-1.05v-1.9a.48.48,0,0,0,0-.17,5.88,5.88,0,0,1-.1-1.11c-.05-.34-.06-.7-.13-1a.34.34,0,0,1,0-.28s0-.12.14-.12.11.1.17.14,0,.12.07.15.28.22.36.39a2,2,0,0,0,.2.31c.14.22.3.43.43.66s.38.74.55,1.12.24.55.35.83.22.6.33.91.32.87.45,1.32c.22.67.47,1.33.62,2,0,.15.08.31.11.46l.15.73c0,.09,0,.18.05.28a2.12,2.12,0,0,1,.09.9s0,.07,0,.1a.31.31,0,0,0,.09-.07l.39-1A13.26,13.26,0,0,1,19.44,40a4.85,4.85,0,0,0,.48-.9c.11-.33.34-.62.47-1s.34-.74.51-1.11.28-.68.42-1c0-.11,0-.24.09-.35a.19.19,0,0,1,.33,0,.75.75,0,0,1,.05.26,8.81,8.81,0,0,1,0,.89,4,4,0,0,1,0,.85.17.17,0,0,0,0,.12,3,3,0,0,1,.15,1A11.79,11.79,0,0,1,22,40.29c0,.87,0,1.73-.06,2.59,0,0,0,.06,0,.08a5.13,5.13,0,0,0-.1,1,5,5,0,0,1-.2.85.13.13,0,0,0,0,.09s.06,0,.08,0a1.88,1.88,0,0,1,.45-.56c.11-.1.24-.18.33-.28a7,7,0,0,0,.67-.79,2.2,2.2,0,0,0,.26-.45,2.57,2.57,0,0,1,.38-.57.67.67,0,0,0,.06-.12c.17-.28.33-.57.5-.86a.3.3,0,0,1,.32-.1c.1.07.09.16,0,.27s-.14.31-.2.48,0,.26-.09.35a.49.49,0,0,0-.08.3,1.15,1.15,0,0,1,0,.19c0,.2-.07.39-.1.58s-.07.38-.1.58-.12.53-.17.79a11,11,0,0,1-.46,1.58s-.05.07-.05.11a1.5,1.5,0,0,1-.26.74,1.51,1.51,0,0,0-.13.33,3.74,3.74,0,0,1-.43,1c-.13.19-.17.43-.36.58a4.83,4.83,0,0,1-.75,1.2,4.13,4.13,0,0,0-.54.9.68.68,0,0,1-.18.26c-.31.33-.64.65-1,1l-.14.12a4.6,4.6,0,0,1-.91.53c-.09,0-.11.12-.16.18s0,0,0,.05l.06,0,.72-.37.67-.34a4.89,4.89,0,0,0,.51-.26,2.56,2.56,0,0,0,.59-.45l.2-.25a1.81,1.81,0,0,1,.32-.3.43.43,0,0,0,.25-.38s0,0,0,0c.21-.26.45-.5.64-.77a5.2,5.2,0,0,0,.42-.72c.19-.35.35-.72.54-1.07a5.38,5.38,0,0,0,.58-1,10.34,10.34,0,0,1,.56-1.28c.11-.22.18-.47.29-.69a1.21,1.21,0,0,0,.11-.32,2.74,2.74,0,0,1,.21-.67,1.67,1.67,0,0,0,.28-.66c0-.28.16-.52.21-.79s.05-.26.08-.38.11-.14.1-.15c-.14-.17,0-.33,0-.49s.15-.4.11-.63c0,0,0,0,0,0s.07-.16.08-.25a1.62,1.62,0,0,1,0-.22c0-.29.11-.59.16-.88a2.92,2.92,0,0,0,.09-.5c0-.25.09-.48.13-.73s.09-.61.12-.91a.71.71,0,0,0,0-.29.8.8,0,0,1,.05-.34c0-.1,0-.19.05-.29a.43.43,0,0,1,0-.05s-.05,0-.06,0a3.88,3.88,0,0,1-.15.36c-.15.24-.32.46-.46.7a2.09,2.09,0,0,0-.26.57,1.69,1.69,0,0,1-.62,1,3.9,3.9,0,0,0-.4.31c-.12.12-.22.26-.34.39a3.55,3.55,0,0,0-.38.4c-.22.32-.42.66-.63,1a2.52,2.52,0,0,0-.36.69,1.78,1.78,0,0,1-.21.44.23.23,0,0,1-.29.12c-.07,0-.08-.21,0-.33a3.24,3.24,0,0,0,.17-.32c.09-.25.19-.5.26-.76A7.5,7.5,0,0,0,23.49,40a1.91,1.91,0,0,1,.05-.48,8.46,8.46,0,0,0,.16-1.42,4.38,4.38,0,0,0,0-.51,7.67,7.67,0,0,0-.05-1.07c0-.18-.07-.36-.1-.54a1.64,1.64,0,0,1,0-.43c0-.15,0-.31,0-.42a.69.69,0,0,0,0-.38.79.79,0,0,1-.05-.37c0-.13-.13-.25,0-.37-.19-.13-.08-.32-.11-.49a.84.84,0,0,0-.06-.14,2.38,2.38,0,0,1-.05-.26c0-.1,0-.19-.06-.34m-14.57,18A4.54,4.54,0,0,1,8,50a10.22,10.22,0,0,1-1-1.7,6,6,0,0,1-.35-.95c-.08-.34-.09-.68-.14-1a8.93,8.93,0,0,1-.07-1,.25.25,0,0,0,0-.08c0-.19-.08-.38-.1-.57s0-.58,0-.87c0-.1,0-.18.12-.2a.23.23,0,0,1,.27.14,1.28,1.28,0,0,0,.13.29,7.2,7.2,0,0,0,.8,1,8.67,8.67,0,0,1,.62.72c.08.09.19.17.27.27a2.89,2.89,0,0,0,.73.79s.05,0,.08.07a5.57,5.57,0,0,0,.46.51c.27.25.57.47.85.7a3.34,3.34,0,0,1,.54.44c.14.16.43.21.41.5,0,0,.05,0,.07.07s.12,0,.16.06a4.36,4.36,0,0,1,.6.81l.07.09,0-.09a4.76,4.76,0,0,1,.32-1.16c.13-.34.27-.69.41-1l.34-.78c.16-.35.33-.69.47-1a1.36,1.36,0,0,0,.13-.37,2.06,2.06,0,0,1,.34-.92.18.18,0,0,1,.23-.1c.1,0,.11.1.11.19s0,.43.06.65a2.85,2.85,0,0,0,.14.5,3.79,3.79,0,0,1,.3,1.44.61.61,0,0,0,0,.14.19.19,0,0,0,0,.1l.07-.09a1.55,1.55,0,0,1,.06-.23,10,10,0,0,0,.49-1.39l.33-1.24A5.62,5.62,0,0,0,16.75,43s0-.11,0-.14a1.34,1.34,0,0,0,0-.84.24.24,0,0,1,.16-.28c.14,0,.17,0,.21.18.09.44.19.89.28,1.34s.2,1.16.34,1.73a5,5,0,0,1,.22,1.31.18.18,0,0,0,0,.1.69.69,0,0,0,0,.1.36.36,0,0,1,0-.09,5.37,5.37,0,0,1,.68-1,3.29,3.29,0,0,0,.54-.78c.15-.25.24-.54.39-.79A3.37,3.37,0,0,0,20,43c.09-.3.19-.59.28-.89,0-.1.1-.12.2-.11s.12.07.14.16a3.64,3.64,0,0,1,.05.74c0,.22-.06.45-.05.68s-.12.58,0,.88a.29.29,0,0,1,0,.13c-.13.32,0,.66-.09,1a2.63,2.63,0,0,0,0,.49,4.16,4.16,0,0,0,0,.5.53.53,0,0,1,0,.25c-.07.43-.14.87-.22,1.31,0,.14-.07.29-.09.43a2.82,2.82,0,0,1-.24.69c-.17.42-.32.86-.5,1.28a3.48,3.48,0,0,1-.67,1,6.55,6.55,0,0,0-.49.56,2.34,2.34,0,0,1-.83.7c-.33.19-.69.34-1,.52s-.49.27-.72.42c-.08,0-.11.2-.25.14s-.11-.05-.13,0,.07.08.12.09a.78.78,0,0,0,.21,0l.25-.07.47-.09,1.41-.36a4,4,0,0,0,.49-.17.11.11,0,0,0,0-.1s-.07-.06-.1-.1a.19.19,0,0,1,0-.3.58.58,0,0,1,.38-.12.3.3,0,0,0,.21,0,4.78,4.78,0,0,0,1-.73l.21-.21.61-.62a1.7,1.7,0,0,0,.18-.26c.16-.26.33-.52.48-.78s.5-.67.68-1.06.32-.54.46-.82a5.11,5.11,0,0,0,.4-1.07c.06-.23.23-.42.29-.66a3.64,3.64,0,0,1,.25-.65.43.43,0,0,1,0-.05,2.86,2.86,0,0,1,.22-.81,3.31,3.31,0,0,1,.23-.8.78.78,0,0,0,.05-.34,3.17,3.17,0,0,1,.05-.53c0-.17.05-.35.07-.53s0-.06-.05-.09-.06,0-.06,0a1.29,1.29,0,0,1-.28.59,3.89,3.89,0,0,1-.69.92l-.45.45a1.7,1.7,0,0,0-.35.36c-.21.43-.58.75-.75,1.2l-.11.15c-.08.1-.18.14-.28.06s-.07-.16,0-.26.09-.23.13-.34c.09-.26.11-.54.21-.81a5.62,5.62,0,0,0,.23-1.42,6.27,6.27,0,0,1,.11-1,.52.52,0,0,0,0-.21.3.3,0,0,1,0-.1c0-.16,0-.32.05-.48s.05-.34.05-.51c0-.62,0-1.24-.05-1.85,0-.1,0-.21,0-.31-.05-.43-.11-.87-.14-1.31s0-.9-.06-1.35c0-.08,0-.16,0-.24,0,.08-.08.17-.06.24a1.28,1.28,0,0,1-.21.86c-.16.32-.33.65-.47,1l-.1.21c-.09.26-.32.45-.3.75,0,.05-.08.11-.11.17a1.74,1.74,0,0,0-.11.18c-.07.14-.15.28-.21.42s-.32.36-.3.63c0,0,0,0-.06.06s-.15.19-.16.32a1.43,1.43,0,0,1-.09.27s-.06.09-.08.14-.07.27-.12.4a3.15,3.15,0,0,0-.26.56c-.1.42-.33.8-.41,1.23a.16.16,0,0,1-.27.1c-.07-.07-.15-.17-.1-.28a.22.22,0,0,0,0-.16,2.22,2.22,0,0,1-.06-.72,1.63,1.63,0,0,0,0-.59,9,9,0,0,0-.19-.9c-.06-.28-.11-.55-.17-.83s-.16-.61-.25-.91-.21-.6-.31-.9-.08-.34-.14-.5l-.31-.72c-.05-.12-.06-.25-.11-.37-.19-.51-.35-1-.56-1.53A8.24,8.24,0,0,0,15,33.67l-.19-.29-.21-.33s-.06,0-.09,0a.22.22,0,0,0,0,.11.75.75,0,0,1,.05.62.17.17,0,0,0,0,.12.91.91,0,0,1,.07.14c0,.32.09.64.11,1s0,.69,0,1a6.54,6.54,0,0,1,0,1c0,.25,0,.49,0,.74a3.43,3.43,0,0,1-.06.56c-.17.56-.26,1.13-.39,1.69,0,0,0,.1,0,.12s-.07.17-.07.26a.58.58,0,0,1,0,.18c-.11.32-.2.64-.34.95a10.33,10.33,0,0,1-.51,1.41c0,.23-.15.39-.17.61s-.13.39-.16.6c-.1.52-.27,1-.36,1.54s-.18.92-.21,1.39c0,.14-.08.26-.18.26A.25.25,0,0,1,12,47.1a2.88,2.88,0,0,0-.63-.94,4.44,4.44,0,0,0-.8-.61c-.17-.12-.34-.24-.49-.37l-.93-.87-.1-.1-.94-.77a5.48,5.48,0,0,1-.88-1.15c-.28-.4-.55-.82-.82-1.23A2.67,2.67,0,0,1,6,40.45c-.08-.21-.17-.42-.27-.62s-.18-.32-.24-.48c-.13-.34-.22-.68-.35-1a2.57,2.57,0,0,0-.2-.65l-.1-.15a.44.44,0,0,1,0,.16c0,.07,0,.15,0,.23a5.08,5.08,0,0,1-.05.87c0,.2,0,.41,0,.62a5.65,5.65,0,0,0-.06,1c0,.23,0,.45,0,.68s0,.59,0,.88.09.71.09,1.08.12.81.14,1.22a5.44,5.44,0,0,0,.37,1.31,3.54,3.54,0,0,0,.28.66,2.28,2.28,0,0,1,.11.41,6.69,6.69,0,0,0,.57,1.25c.19.26.31.56.48.84a4.28,4.28,0,0,0,.5.82,4.86,4.86,0,0,1,.42.59,4.37,4.37,0,0,1,.54.72c.07.15.24.25.36.38s.59.39.86.63c0,0,.06,0,.09,0a.35.35,0,0,0,0-.11l-.14-.16c-.27-.28-.54-.55-.82-.87m5.33-3.42c-.19.41-.39.81-.55,1.23a1.06,1.06,0,0,1-.16.38s0,.09,0,.13a1.25,1.25,0,0,1,0,.19c-.14.42-.2.86-.37,1.27a.33.33,0,0,1-.17.18s-.14,0-.18-.1a.84.84,0,0,1-.12-.23A1,1,0,0,0,12,50a1.37,1.37,0,0,1-.21-.28,4.3,4.3,0,0,0-1.14-1.15A6.92,6.92,0,0,1,10,48c-.6-.59-1.18-1.2-1.77-1.81-.13-.14-.25-.29-.37-.43l-.34-.39c-.15-.18-.29-.36-.43-.55s-.17-.25-.27-.37-.1,0-.1,0,0,.26.06.39c0,.36.08.72.1,1.08s0,.56,0,.84a3.21,3.21,0,0,0,.18.77c.13.35.27.69.41,1a2.21,2.21,0,0,0,.18.34c.2.32.42.63.61.95a5.11,5.11,0,0,0,1,1.2,2.16,2.16,0,0,1,.37.43,5.14,5.14,0,0,0,.82.92,1.55,1.55,0,0,1,.47.58c0,.06.09.1.15.13l1,.41a4.83,4.83,0,0,0,1.44.36,5.35,5.35,0,0,0,1.44,0c.08,0,.11,0,.1-.12s0-.27.21-.28a.36.36,0,0,0,.17-.07,8,8,0,0,1,.7-.41l1-.52a2.08,2.08,0,0,0,.73-.52c.29-.32.59-.64.87-1a2.9,2.9,0,0,0,.38-.6c.19-.4.35-.81.51-1.22a3.79,3.79,0,0,0,.29-.88c0-.17,0-.33.05-.49.07-.38.15-.76.22-1.14a.47.47,0,0,0,0-.16,1.1,1.1,0,0,1,0-.4,2,2,0,0,0,.05-.54,4.93,4.93,0,0,0,0-.54c0-.21,0-.42,0-.64a2,2,0,0,1,.11-.91.5.5,0,0,0,0-.16s0,0-.05-.06a.3.3,0,0,0,0,.08,2.86,2.86,0,0,1-.15.41c-.13.27-.28.52-.41.78a3.6,3.6,0,0,1-.59,1,3.64,3.64,0,0,0-.43.6c-.14.21-.26.43-.38.65a1.81,1.81,0,0,0-.22.44.35.35,0,0,1-.14.25c-.05,0-.14.08-.16.06a.27.27,0,0,1-.1-.17c0-.39,0-.77,0-1.16s-.15-.65-.19-1-.11-.47-.16-.71-.07-.46-.12-.68a.61.61,0,0,0-.07-.14.42.42,0,0,0-.08.12c0,.15,0,.3-.07.45a4,4,0,0,1-.07.48c-.13.46-.28.91-.39,1.38s-.37,1-.55,1.56a8.17,8.17,0,0,0-.4,1.21.32.32,0,0,1-.16.22.17.17,0,0,1-.22-.06c-.05-.07,0-.11,0-.18.05-.47.06-.94.07-1.41,0-.12-.1-.24-.1-.35,0-.34-.17-.63-.2-1s-.12-.35-.13-.53a.71.71,0,0,0-.13-.31s0,0,0-.05l0,.06s-.11.1,0,.18a.18.18,0,0,1,0,.13,5.44,5.44,0,0,1-.3.94c-.14.26-.21.55-.37.84M2.44,20.68l-.08.09.05,0a.13.13,0,0,0,0-.11M20.28,42.83l-.05,0s0,0,.05,0M14.57,24l0,0s0,0,0,0m.11,12.66.06,0s0,0-.06,0m-4.37-2.18.06,0s0,0-.06,0M6.17,30l0,0s0,0,0,0m8-9.63,0,0s0,0,0,0m.28,12.1,0,0s0,0,0,0M14.48,35l0,0s0,0,0,0m-1.62-6.28,0,0s0,0,0,0m14,7.65,0,0s0,0,0,0m-6.31-21.2,0,0s0,0,0,0M10.17,27.29l0,0s0,0,0,0m9.1-13.59,0,0s0,0,0,0m6.78,23.87,0,0s0,0,0,0m-5.29,0,0,0s0,0,0,0M13.39,26.7l0,0s0,0,0,0M25.16,39.25l0,0s0,0,0,0m-15.52.28,0,0s0,0,0,0m9.41,1.57,0,0s0,0,0,0M.62,24.35l0,0s0,0,0,0m2.24,1.51,0,0s0,0,0,0m4.82,16.8,0,0s0,0,0,0M19.78,44l0,0s0,0,0,0M14.6,45.1l0,0s0,0,0,0M13.32,16.29c-.15.31-.32.58-.45.87a3.16,3.16,0,0,0-.27.82.35.35,0,0,1-.31.31c-.06,0-.1,0-.1,0s-.1-.2,0-.34c.15-.37.26-.75.38-1.13a.44.44,0,0,0,0-.16,6.4,6.4,0,0,0,0-1,2.74,2.74,0,0,0-.1-.8s0,0,0-.08a4,4,0,0,0-.29-1.48c-.13-.51-.35-1-.5-1.5s-.37-1-.57-1.53A6.66,6.66,0,0,1,10.7,9c0-.31-.12-.62-.16-.93a1.22,1.22,0,0,1,0-.33c0-.32,0-.64.09-1a5.16,5.16,0,0,1,.25-.85,3.66,3.66,0,0,1,.43-.89,5.12,5.12,0,0,0,.22-.47c.08-.14.19-.27.28-.41a5.4,5.4,0,0,0,.3-.47,4.74,4.74,0,0,0,.42-.88c0-.15.13-.29.17-.44s0-.3.06-.45,0-.45.05-.68A5.05,5.05,0,0,0,12.7.3c0-.13,0-.27.13-.29a.25.25,0,0,1,.28.16,1.6,1.6,0,0,1,.11.43,11.61,11.61,0,0,1,.12,1.77,2.61,2.61,0,0,0,.05.48c0,.15,0,.31.06.46s0,0,0,.08c0,.33,0,.66.06,1s.07.44.11.66.08.32.11.48a4.79,4.79,0,0,0,.25,1c.13.34.24.69.36,1,.06.15.11.31.17.46.14.31.31.62.43.94a2.41,2.41,0,0,1,.25.8c0,.17.12.32.12.51a2.23,2.23,0,0,0,0,.23,3.24,3.24,0,0,1,.05.62,8.55,8.55,0,0,1-.2,1.66,10.21,10.21,0,0,1-.64,1.78,1.11,1.11,0,0,1-.43.57s-.06,0-.06.06c.06.29-.3.31-.36.55a1.85,1.85,0,0,1-.39.58M12.1,4.4a8.09,8.09,0,0,0-.6,1.07c-.14.24-.18.54-.3.8A2,2,0,0,0,11,7.1a.79.79,0,0,1,0,.13,1.51,1.51,0,0,0-.07.46c.08.37.06.75.15,1.11a7.14,7.14,0,0,0,.29,1c.09.27.23.52.33.79.25.72.49,1.44.73,2.16.06.18.09.37.14.56a6.74,6.74,0,0,1,.24.88c.07.47.08.95.13,1.43,0,.13,0,.25,0,.38s0,0,0,0l.06,0c0-.15.1-.24.17-.35l.4-.54a2.18,2.18,0,0,1,.22-.21l.22-.24a2,2,0,0,0,.42-.75A9.2,9.2,0,0,0,15,12a2.15,2.15,0,0,0,0-.67c0-.22.1-.43,0-.66s-.07-.42-.12-.62a2.48,2.48,0,0,0-.15-.55c0-.08.08-.13,0-.21s-.19-.36-.28-.55a3.88,3.88,0,0,0-.15-.36,1.57,1.57,0,0,1-.25-.63,2.5,2.5,0,0,0-.18-.37c-.11-.28-.23-.56-.32-.85s-.1-.55-.18-.82a5.74,5.74,0,0,1-.21-1,2.47,2.47,0,0,0-.06-.29c0-.1,0-.18,0-.29-.06-.41-.08-.82-.12-1.24a.36.36,0,0,0,0-.1s-.08,0-.09.08a3.57,3.57,0,0,1-.39.87c-.12.2-.25.4-.4.63M25,24.43a.31.31,0,0,1,.05.1H25Zm-9.87-5s0,0,0,.05S15.16,19.41,15.17,19.39Z"/></g></g></svg>