<svg xmlns="http://www.w3.org/2000/svg" viewBox="0 0 119.97 47.17"><defs><style>.cls-1{fill:#fff;}.cls-2{fill:#999;}</style></defs><title>flat-stone-large</title><g id="Layer_2" data-name="Layer 2"><g id="stone-flat-large"><path id="void" class="cls-1" d="M119.89,21.71a2.07,2.07,0,0,1-.15-1.22,3.12,3.12,0,0,0-.71-1.92c-.55-.7-1.17-1.32-1.78-2a4,4,0,0,0-.47-.33c-.24-.17-.51-.26-.67-.54a1.77,1.77,0,0,0-1.25-.88,1.88,1.88,0,0,1-.59-.28,29.26,29.26,0,0,0-3.08-1.64c-.42-.21-.88-.33-1.31-.55a12.61,12.61,0,0,1-1.62-.77,2.66,2.66,0,0,0-1.08-.49c-.26-.06-.52-.15-.79-.24a7.05,7.05,0,0,1-1.32-.54,4,4,0,0,0-.79-.42c-.51-.2-1-.35-1.54-.54a3.5,3.5,0,0,1-.51-.26c-.35-.18-.71-.34-1.07-.5s-.68-.23-1-.38c-.51-.27-1.08-.38-1.57-.7a1.75,1.75,0,0,0-1-.39,1.21,1.21,0,0,1-.45-.07,12.22,12.22,0,0,0-1.74-.57,5.39,5.39,0,0,0-1.55-.3,2.41,2.41,0,0,1-.67-.1,9.89,9.89,0,0,0-1.93-.34c-.47-.1-1-.13-1.43-.19L88.1,5.41a2.67,2.67,0,0,0-.69,0,3.62,3.62,0,0,1-.67-.07l-1.85-.09A.61.61,0,0,1,84.33,5a.46.46,0,0,0-.27-.16c-.38-.08-.78-.12-1.17-.19-.07,0-.17,0-.17-.11a.37.37,0,0,0-.3-.41A3,3,0,0,1,82,3.9a.16.16,0,0,1-.08-.15s.06-.1.09-.1c.33,0,.15-.18,0-.25A6.06,6.06,0,0,0,81.28,3a31.16,31.16,0,0,0-3.1-1.15l-.81-.19-1.31-.25c-.66-.12-1.33-.26-2-.36C73.6.94,73.14.94,72.68.9c-.28,0-.57,0-.85-.08-.44-.08-.86-.2-1.3-.26A15.38,15.38,0,0,0,68.88.39C68.41.37,68,.27,67.5.22c-.66-.07-1.31-.16-2-.18a11.78,11.78,0,0,0-2.65.07l-1,.18c-.16,0-.33.08-.5.09A14.26,14.26,0,0,1,59.56.29c-.51,0-1,.08-1.56,0a9.37,9.37,0,0,0-1.06,0c-.81,0-1.63,0-2.44.08-1.45,0-2.89,0-4.33.06-1.6.12-3.22.08-4.82.11a7.65,7.65,0,0,0-1.51.08A13.73,13.73,0,0,1,41.65,1c-.23,0-.45.07-.67.1s-.6.12-.9.16-.66.05-1,.09l-1.65.26c-.25,0-.5.08-.74.15-1,.32-1.9.66-2.85,1a1,1,0,0,0-.46.37c-.09.13,0,.31,0,.48a.6.6,0,0,1-.36.73l-1.69.71c-.21.09-.43.16-.64.26a.65.65,0,0,0-.4.5A1.42,1.42,0,0,1,29.49,7c-.54.23-1.09.41-1.65.6-1.3.41-2.6.82-3.91,1.21a2,2,0,0,1-.76.17,4,4,0,0,0-.68.09,9.93,9.93,0,0,1-1.3.25,7.49,7.49,0,0,0-1.54.36c-.92.3-1.88.47-2.83.71-.51.12-1,.15-1.52.29-.77.2-1.55.45-2.31.68l-.92.25c-.4.11-.82.22-1.21.37a7.3,7.3,0,0,0-1.1.33,10.54,10.54,0,0,1-1.2.51,4.5,4.5,0,0,1-.44.22c-.59.43-1.12.88-1.69,1.28-.86.64-1.63,1.4-2.43,2.09-.39.34-.73.74-1.09,1.1a2.18,2.18,0,0,0-.22.21,4.53,4.53,0,0,0-.49.49A7.71,7.71,0,0,1,.91,19.72c-.06.05-.1.11-.15.16a.54.54,0,0,0-.24.56A9.45,9.45,0,0,1,.6,21.5c0,.41-.07.81-.07,1.2A1.59,1.59,0,0,1,.1,24.09c-.23.19,0,.59.29.65s.53.18.57.61c0,.21.1.3.3.28a.94.94,0,0,1,.85.3.4.4,0,0,0,.21.12c.26.06.27.17.07.32s-.12.29-.1.43.19.16.33.16a1.13,1.13,0,0,1,.89.19s.08,0,.13,0,.19.08.27.15,0,.13-.08.18a.21.21,0,0,0,.07.33,1,1,0,0,0,.35.11.88.88,0,0,1,.67.29,1.37,1.37,0,0,0,.89.43,1.65,1.65,0,0,1,.75.1,1.74,1.74,0,0,0,.86.16,1,1,0,0,1,.17,0c0,.05-.08.12-.12.12s-.18.11-.15.21a.4.4,0,0,0,.22.15,1.54,1.54,0,0,0,1.28-.25.26.26,0,0,1,.36,0c.2.13.41.24.59.38a.32.32,0,0,1,.12.42.48.48,0,0,0-.08.39.59.59,0,0,1,0,.56,1.81,1.81,0,0,0-.09.58c0,.33,0,.67,0,1a1,1,0,0,0,.72,1.07,1.56,1.56,0,0,1,.95.91,2.2,2.2,0,0,0,1.18.94c.11.06.23.08.34.15a2.69,2.69,0,0,0,1.17.48,3.55,3.55,0,0,1,.51.14c.94.22,1.72.83,2.67,1,.33.06.64.22,1,.25a4.22,4.22,0,0,1,1.49.49,4.59,4.59,0,0,0,2.05.59,5.05,5.05,0,0,1,1.19.25,4.85,4.85,0,0,0,1.74.28h.57a.63.63,0,0,1,.23.08l.42.28c.15.09.4.21.4.32,0,.29.19.46.29.68a2.51,2.51,0,0,0,1.67,1.36,1.43,1.43,0,0,1,.47.26,3.47,3.47,0,0,0,.7.45c.58.24,1.17.46,1.75.67a9.82,9.82,0,0,0,1.06.3c.26.07.53.09.79.15.06,0,.16.06.19,0,.22-.15.43,0,.65,0a7,7,0,0,1,1.14.21,6.52,6.52,0,0,0,1.24.35,15.41,15.41,0,0,0,1.79.25,2.9,2.9,0,0,1,.41.06,6,6,0,0,0,.94.19c.57.05,1.14.06,1.72.1a4.18,4.18,0,0,1,.71.09,2.66,2.66,0,0,1,.93.33,3.92,3.92,0,0,0,2.39.72h2.25l1,.17c.29,0,.58,0,.89.07a11.68,11.68,0,0,0,1.78.19c1.16.05,2.32.06,3.49.1h.22a15.6,15.6,0,0,0,2,.17,4.28,4.28,0,0,1,1.51.09c.15-.17.31.05.44,0A4.12,4.12,0,0,1,60,46.64s.11.06.15.09l-.11.09c-.17.07-.15.17,0,.26s.15.1.22.08a3.51,3.51,0,0,0,.73-.16,4.19,4.19,0,0,1,1.75-.36,2.09,2.09,0,0,0,.56,0,2.27,2.27,0,0,1,1.34,0,.19.19,0,0,0,.12,0c.29-.25.66-.2,1-.29s.49-.09.6,0a.67.67,0,0,0,.85.08h0a10.39,10.39,0,0,0,2.36-.18c.28,0,.58,0,.86-.1.08,0,.17-.1.22-.07.34.18.66,0,1,0a17.65,17.65,0,0,0,2.18-.19l1.2-.18a11,11,0,0,1,1.59-.33c.77-.06,1.54-.17,2.31-.29a6.2,6.2,0,0,0,1.06-.2,16.79,16.79,0,0,1,1.72-.32,14.05,14.05,0,0,0,1.47-.2,9.87,9.87,0,0,0,2.24-.76c.61-.3,1.23-.59,1.82-.94s1.43-1,2.14-1.43c.08,0,.15-.12.22-.11a.31.31,0,0,0,.37-.24c.1-.29.37-.32.58-.44s.36-.46.69-.21c0,0,.06-.05.09-.07a3.8,3.8,0,0,0,.73-.35c.64-.24,1.23-.55,1.83-.82a4.16,4.16,0,0,1,1.72-.43c.18,0,.35,0,.39-.23,0-.05.17-.11.25-.12a5.37,5.37,0,0,1,.89-.09A7.24,7.24,0,0,0,98.85,38a9.13,9.13,0,0,0,.93-.1,11.92,11.92,0,0,1,2.57-.5,6.63,6.63,0,0,0,1.68-.45,1.64,1.64,0,0,1,.53-.17.82.82,0,0,0,.61-.27.74.74,0,0,1,.22-.1c.49-.18,1-.34,1.49-.54.14,0,.22-.23.34-.25a8.37,8.37,0,0,0,1.68-.73,10.73,10.73,0,0,1,1.12-.42,3.39,3.39,0,0,0,1.16-.48l1.24-.76a3.08,3.08,0,0,0,1.11-1.1,1.12,1.12,0,0,0,.16-.5,1,1,0,0,1,.41-.85c.37-.32.77-.62,1.16-.9a1,1,0,0,0,.47-1.37c-.12-.39-.31-.79.23-1a.41.41,0,0,0,.22-.21c.1-.16.29-.29.1-.52,0-.05,0-.2.07-.26a1.34,1.34,0,0,1,.31-.22,2.29,2.29,0,0,0,.87-.68,2.57,2.57,0,0,1,.78-.76,3.56,3.56,0,0,0,1.09-.95,6.78,6.78,0,0,0,.48-.78C120.13,22.64,119.77,22.17,119.89,21.71ZM81.56,3.77s.07.07.1.1-.13,0-.16,0a.35.35,0,0,1-.08-.13Zm-36.4,41.9a5.33,5.33,0,0,1-.79-.1,5.56,5.56,0,0,1-.82-.25l-.12,0s.07-.06.11-.05l.7.13.74.13a.43.43,0,0,0,.15.09l.15.05A.28.28,0,0,1,45.16,45.67Z"/><path id="fill2" class="cls-2" d="M119.89,21.71a2.07,2.07,0,0,1-.15-1.22,3.12,3.12,0,0,0-.71-1.92c-.55-.7-1.17-1.32-1.78-2a4,4,0,0,0-.47-.33c-.24-.17-.51-.26-.67-.54a1.77,1.77,0,0,0-1.25-.88,1.88,1.88,0,0,1-.59-.28,29.26,29.26,0,0,0-3.08-1.64c-.42-.21-.88-.33-1.31-.55a12.61,12.61,0,0,1-1.62-.77,2.66,2.66,0,0,0-1.08-.49c-.26-.06-.52-.15-.79-.24a7.05,7.05,0,0,1-1.32-.54,4,4,0,0,0-.79-.42c-.51-.2-1-.35-1.54-.54a3.5,3.5,0,0,1-.51-.26c-.35-.18-.71-.34-1.07-.5s-.68-.23-1-.38c-.51-.27-1.08-.38-1.57-.7a1.75,1.75,0,0,0-1-.39,1.21,1.21,0,0,1-.45-.07,12.22,12.22,0,0,0-1.74-.57,5.39,5.39,0,0,0-1.55-.3,2.41,2.41,0,0,1-.67-.1,9.89,9.89,0,0,0-1.93-.34c-.47-.1-1-.13-1.43-.19L88.1,5.41a2.67,2.67,0,0,0-.69,0,3.62,3.62,0,0,1-.67-.07l-1.85-.09A.61.61,0,0,1,84.33,5a.46.46,0,0,0-.27-.16c-.38-.08-.78-.12-1.17-.19-.07,0-.17,0-.17-.11a.37.37,0,0,0-.3-.41A3,3,0,0,1,82,3.9a.16.16,0,0,1-.08-.15s.06-.1.09-.1c.33,0,.15-.18,0-.25A6.06,6.06,0,0,0,81.28,3a31.16,31.16,0,0,0-3.1-1.15l-.81-.19-1.31-.25c-.66-.12-1.33-.26-2-.36C73.6.94,73.14.94,72.68.9c-.28,0-.57,0-.85-.08-.44-.08-.86-.2-1.3-.26A15.38,15.38,0,0,0,68.88.39C68.41.37,68,.27,67.5.22c-.66-.07-1.31-.16-2-.18a11.78,11.78,0,0,0-2.65.07l-1,.18c-.16,0-.33.08-.5.09A14.26,14.26,0,0,1,59.56.29c-.51,0-1,.08-1.56,0a9.37,9.37,0,0,0-1.06,0c-.81,0-1.63,0-2.44.08-1.45,0-2.89,0-4.33.06-1.6.12-3.22.08-4.82.11a7.65,7.65,0,0,0-1.51.08A13.73,13.73,0,0,1,41.65,1c-.23,0-.45.07-.67.1s-.6.12-.9.16-.66.05-1,.09l-1.65.26c-.25,0-.5.08-.74.15-1,.32-1.9.66-2.85,1a1,1,0,0,0-.46.37c-.09.13,0,.31,0,.48a.6.6,0,0,1-.36.73l-1.69.71c-.21.09-.43.16-.64.26a.65.65,0,0,0-.4.5A1.42,1.42,0,0,1,29.49,7c-.54.23-1.09.41-1.65.6-1.3.41-2.6.82-3.91,1.21a2,2,0,0,1-.76.17,4,4,0,0,0-.68.09,9.93,9.93,0,0,1-1.3.25,7.49,7.49,0,0,0-1.54.36c-.92.3-1.88.47-2.83.71-.51.12-1,.15-1.52.29-.77.2-1.55.45-2.31.68l-.92.25c-.4.11-.82.22-1.21.37a7.3,7.3,0,0,0-1.1.33,10.54,10.54,0,0,1-1.2.51,4.5,4.5,0,0,1-.44.22c-.59.43-1.12.88-1.69,1.28-.86.64-1.63,1.4-2.43,2.09-.39.34-.73.74-1.09,1.1a2.18,2.18,0,0,0-.22.21,4.53,4.53,0,0,0-.49.49A7.71,7.71,0,0,1,.91,19.72c-.06.05-.1.11-.15.16a.54.54,0,0,0-.24.56A9.45,9.45,0,0,1,.6,21.5c0,.41-.07.81-.07,1.2A1.59,1.59,0,0,1,.1,24.09c-.23.19,0,.59.29.65s.53.18.57.61c0,.21.1.3.3.28a.94.94,0,0,1,.85.3.4.4,0,0,0,.21.12c.26.06.27.17.07.32s-.12.29-.1.43.19.16.33.16a1.13,1.13,0,0,1,.89.19s.08,0,.13,0,.19.08.27.15,0,.13-.08.18a.21.21,0,0,0,.07.33,1,1,0,0,0,.35.11.88.88,0,0,1,.67.29,1.37,1.37,0,0,0,.89.43,1.65,1.65,0,0,1,.75.1,1.74,1.74,0,0,0,.86.16,1,1,0,0,1,.17,0c0,.05-.08.12-.12.12s-.18.11-.15.21a.4.4,0,0,0,.22.15,1.54,1.54,0,0,0,1.28-.25.26.26,0,0,1,.36,0c.2.13.41.24.59.38a.32.32,0,0,1,.12.42.48.48,0,0,0-.08.39.59.59,0,0,1,0,.56,1.81,1.81,0,0,0-.09.58c0,.33,0,.67,0,1a1,1,0,0,0,.72,1.07,1.56,1.56,0,0,1,.95.91,2.2,2.2,0,0,0,1.18.94c.11.06.23.08.34.15a2.69,2.69,0,0,0,1.17.48,3.55,3.55,0,0,1,.51.14c.94.22,1.72.83,2.67,1,.33.06.64.22,1,.25a4.22,4.22,0,0,1,1.49.49,4.59,4.59,0,0,0,2.05.59,5.05,5.05,0,0,1,1.19.25,4.85,4.85,0,0,0,1.74.28h.57a.63.63,0,0,1,.23.08l.42.28c.15.09.4.21.4.32,0,.29.19.46.29.68a2.51,2.51,0,0,0,1.67,1.36,1.43,1.43,0,0,1,.47.26,3.47,3.47,0,0,0,.7.45c.58.24,1.17.46,1.75.67a9.82,9.82,0,0,0,1.06.3c.26.07.53.09.79.15.06,0,.16.06.19,0,.22-.15.43,0,.65,0a7,7,0,0,1,1.14.21,6.52,6.52,0,0,0,1.24.35,15.41,15.41,0,0,0,1.79.25,2.9,2.9,0,0,1,.41.06,6,6,0,0,0,.94.19c.57.05,1.14.06,1.72.1a4.18,4.18,0,0,1,.71.09,2.66,2.66,0,0,1,.93.33,3.92,3.92,0,0,0,2.39.72h2.25l1,.17c.29,0,.58,0,.89.07a11.68,11.68,0,0,0,1.78.19c1.16.05,2.32.06,3.49.1h.22a15.6,15.6,0,0,0,2,.17,4.28,4.28,0,0,1,1.51.09c.15-.17.31.05.44,0A4.12,4.12,0,0,1,60,46.64s.11.06.15.09l-.11.09c-.17.07-.15.17,0,.26s.15.1.22.08a3.51,3.51,0,0,0,.73-.16,4.19,4.19,0,0,1,1.75-.36,2.09,2.09,0,0,0,.56,0,2.27,2.27,0,0,1,1.34,0,.19.19,0,0,0,.12,0c.29-.25.66-.2,1-.29s.49-.09.6,0a.67.67,0,0,0,.85.08h0a10.39,10.39,0,0,0,2.36-.18c.28,0,.58,0,.86-.1.08,0,.17-.1.22-.07.34.18.66,0,1,0a17.65,17.65,0,0,0,2.18-.19l1.2-.18a11,11,0,0,1,1.59-.33c.77-.06,1.54-.17,2.31-.29a6.2,6.2,0,0,0,1.06-.2,16.79,16.79,0,0,1,1.72-.32,14.05,14.05,0,0,0,1.47-.2,9.87,9.87,0,0,0,2.24-.76c.61-.3,1.23-.59,1.82-.94s1.43-1,2.14-1.43c.08,0,.15-.12.22-.11a.31.31,0,0,0,.37-.24c.1-.29.37-.32.58-.44s.36-.46.69-.21c0,0,.06-.05.09-.07a3.8,3.8,0,0,0,.73-.35c.64-.24,1.23-.55,1.83-.82a4.16,4.16,0,0,1,1.72-.43c.18,0,.35,0,.39-.23,0-.05.17-.11.25-.12a5.37,5.37,0,0,1,.89-.09A7.24,7.24,0,0,0,98.85,38a9.13,9.13,0,0,0,.93-.1,11.92,11.92,0,0,1,2.57-.5,6.63,6.63,0,0,0,1.68-.45,1.64,1.64,0,0,1,.53-.17.82.82,0,0,0,.61-.27.74.74,0,0,1,.22-.1c.49-.18,1-.34,1.49-.54.14,0,.22-.23.34-.25a8.37,8.37,0,0,0,1.68-.73,10.73,10.73,0,0,1,1.12-.42,3.39,3.39,0,0,0,1.16-.48l1.24-.76a3.08,3.08,0,0,0,1.11-1.1,1.12,1.12,0,0,0,.16-.5,1,1,0,0,1,.41-.85c.37-.32.77-.62,1.16-.9a1,1,0,0,0,.47-1.37c-.12-.39-.31-.79.23-1a.41.41,0,0,0,.22-.21c.1-.16.29-.29.1-.52,0-.05,0-.2.07-.26a1.34,1.34,0,0,1,.31-.22,2.29,2.29,0,0,0,.87-.68,2.57,2.57,0,0,1,.78-.76,3.56,3.56,0,0,0,1.09-.95,6.78,6.78,0,0,0,.48-.78C120.13,22.64,119.77,22.17,119.89,21.71ZM81.56,3.77s.07.07.1.1-.13,0-.16,0a.35.35,0,0,1-.08-.13Zm-36.4,41.9a5.33,5.33,0,0,1-.79-.1,5.56,5.56,0,0,1-.82-.25l-.12,0s.07-.06.11-.05l.7.13.74.13a.43.43,0,0,0,.15.09l.15.05A.28.28,0,0,1,45.16,45.67Z"/><path id="fill1" d="M8.12,13c.17-.07.3-.15.44-.21a11.56,11.56,0,0,0,1.19-.52A6.36,6.36,0,0,1,10.86,12c.39-.15.8-.26,1.21-.38l.91-.25c.78-.22,1.54-.48,2.32-.68.5-.13,1-.17,1.52-.29.94-.24,1.9-.41,2.84-.71a6.44,6.44,0,0,1,1.53-.36A11.47,11.47,0,0,0,22.49,9,3.14,3.14,0,0,1,23.16,9a2.48,2.48,0,0,0,.77-.18l3.91-1.21q.84-.27,1.65-.6a1.44,1.44,0,0,0,.86-1.14.67.67,0,0,1,.4-.5l.64-.26,1.69-.71a.59.59,0,0,0,.36-.73.49.49,0,0,1,0-.48,1,1,0,0,1,.46-.37c.94-.35,1.9-.68,2.85-1a4.48,4.48,0,0,1,.73-.14c.55-.1,1.11-.19,1.66-.27.32,0,.65-.05,1-.09s.6-.11.9-.16.44-.09.67-.1A14.71,14.71,0,0,0,43.84.64,6.93,6.93,0,0,1,45.35.56c1.6,0,3.21,0,4.82-.11,1.44-.1,2.89,0,4.33-.07.81,0,1.62-.08,2.44-.08A9.55,9.55,0,0,1,58,.3c.52.06,1-.06,1.56,0A12.46,12.46,0,0,0,61.4.37a2.89,2.89,0,0,0,.5-.08l1-.18A11.83,11.83,0,0,1,65.54,0c.65,0,1.3.11,1.95.18.46.05.92.15,1.39.17a15.38,15.38,0,0,1,1.65.17c.43.06.86.18,1.3.26.28,0,.56.06.85.09.46,0,.92,0,1.37.09.68.1,1.34.24,2,.36l1.31.26.81.18A28,28,0,0,1,81.27,3a4.08,4.08,0,0,1,.79.44c.12.07.29.21,0,.25a.13.13,0,0,0-.09.1A.18.18,0,0,0,82,3.9a3,3,0,0,0,.41.19c.22.08.28.16.29.42s.11.09.19.11l1.16.18a.43.43,0,0,1,.28.17.6.6,0,0,0,.54.26c.62,0,1.25,0,1.87.1a3.43,3.43,0,0,0,.65,0,3.19,3.19,0,0,1,.69,0c.58.06,1.16.11,1.74.18s1,.09,1.43.18a9.76,9.76,0,0,1,1.93.34,1.84,1.84,0,0,0,.67.09,5.15,5.15,0,0,1,1.55.31,12.32,12.32,0,0,1,1.75.57,1,1,0,0,0,.44.07,1.81,1.81,0,0,1,1,.39,11.51,11.51,0,0,0,1.57.69c.31.16.66.25,1,.39s.72.33,1.08.5c.17.08.33.19.51.26.51.19,1,.34,1.54.54a4.07,4.07,0,0,1,.8.42,6.1,6.1,0,0,0,1.32.54,4.35,4.35,0,0,0,.78.23,2.81,2.81,0,0,1,1.08.49,11.47,11.47,0,0,0,1.62.78c.42.21.89.34,1.32.55a28.36,28.36,0,0,1,3.07,1.65,2.11,2.11,0,0,0,.59.27,1.78,1.78,0,0,1,1.26.88c.15.29.43.38.66.54a3.06,3.06,0,0,1,.47.33c.61.65,1.23,1.27,1.77,2a3,3,0,0,1,.71,1.92,2.17,2.17,0,0,0,.15,1.23c-.11.46.25.92,0,1.38a8.93,8.93,0,0,1-.48.77,3.47,3.47,0,0,1-1.1.95,2.65,2.65,0,0,0-.77.76,2.13,2.13,0,0,1-.87.68,1.11,1.11,0,0,0-.3.22c-.06.07-.11.22-.08.26.19.22,0,.36-.1.52a.6.6,0,0,1-.21.21c-.55.25-.36.65-.23,1a1.06,1.06,0,0,1-.47,1.37c-.4.28-.8.58-1.18.89a1,1,0,0,0-.4.86.93.93,0,0,1-.17.49,3,3,0,0,1-1.11,1.11l-1.23.77a3.7,3.7,0,0,1-1.17.48,9.13,9.13,0,0,0-1.1.41,9.37,9.37,0,0,1-1.69.73c-.12,0-.21.2-.33.25l-1.5.54a.65.65,0,0,0-.22.11.85.85,0,0,1-.61.25,2.28,2.28,0,0,0-.54.18,6,6,0,0,1-1.67.44,12.58,12.58,0,0,0-2.57.51,7,7,0,0,1-.93.1,8.49,8.49,0,0,1-1.74.18,5.48,5.48,0,0,0-.89.09c-.09,0-.23.07-.24.12,0,.25-.23.22-.4.23a4.53,4.53,0,0,0-1.72.42c-.61.28-1.19.6-1.82.83a5.64,5.64,0,0,1-.74.36s-.09.07-.1.06c-.32-.25-.48.09-.68.21s-.48.15-.58.44a.33.33,0,0,1-.37.24c-.07,0-.15.07-.22.11-.71.48-1.41,1-2.14,1.43-.58.35-1.21.63-1.82.94a11.19,11.19,0,0,1-2.24.77c-.47.13-1,.1-1.47.2a14.42,14.42,0,0,0-1.72.31,9,9,0,0,1-1.06.21c-.77.11-1.54.23-2.32.28a12.64,12.64,0,0,0-1.58.32c-.4.08-.8.13-1.2.19a15.9,15.9,0,0,1-2.18.19c-.33,0-.65.18-1,0,0,0-.14.07-.22.08a8.08,8.08,0,0,0-.86.09,9.36,9.36,0,0,1-2.36.17h0a.66.66,0,0,1-.85-.07c-.12-.1-.41,0-.6,0s-.7,0-1,.29c0,0-.08,0-.12,0a2.16,2.16,0,0,0-1.33,0,2.17,2.17,0,0,1-.57,0,4.39,4.39,0,0,0-1.75.36,4.3,4.3,0,0,1-.73.16.37.37,0,0,1-.22-.08c-.15-.09-.17-.19,0-.27s.08-.05.12-.09-.11-.08-.17-.08a4,4,0,0,0-1.24.08c-.14.06-.3-.16-.46,0a4,4,0,0,0-1.5-.08,17.55,17.55,0,0,1-2-.19h-.22c-1.17,0-2.33,0-3.5-.09a11.68,11.68,0,0,1-1.77-.19c-.31-.06-.6,0-.9-.07s-.63-.12-.94-.17H45.12a4,4,0,0,1-2.39-.73,3,3,0,0,0-.93-.33,2.76,2.76,0,0,0-.71-.09c-.57,0-1.15,0-1.73-.1-.31,0-.62-.12-.93-.18a2.07,2.07,0,0,0-.41-.07,13.31,13.31,0,0,1-1.79-.26A5.59,5.59,0,0,1,35,43.84a8.5,8.5,0,0,0-1.16-.21c-.21-.05-.41-.15-.63,0,0,0-.13,0-.2,0-.26,0-.53-.07-.79-.13s-.71-.19-1.06-.31c-.59-.21-1.18-.42-1.75-.67a3.47,3.47,0,0,1-.7-.45,1.12,1.12,0,0,0-.47-.25,2.51,2.51,0,0,1-1.66-1.37c-.11-.22-.3-.39-.3-.68,0-.11-.25-.22-.4-.33l-.42-.26a.65.65,0,0,0-.23-.09,3.62,3.62,0,0,0-.57,0,4.85,4.85,0,0,1-1.74-.28,5.48,5.48,0,0,0-1.19-.25,4.65,4.65,0,0,1-2.06-.58,3.82,3.82,0,0,0-1.47-.49c-.33,0-.63-.2-.95-.26-1-.17-1.74-.78-2.68-1a3.23,3.23,0,0,0-.51-.14,2.58,2.58,0,0,1-1.17-.48,2.44,2.44,0,0,0-.34-.14,2.18,2.18,0,0,1-1.17-1,1.65,1.65,0,0,0-1-.9A1,1,0,0,1,9.7,32.5c0-.34,0-.68,0-1a1.79,1.79,0,0,1,.09-.57.59.59,0,0,0,0-.56c-.05-.09,0-.27.08-.39a.32.32,0,0,0-.12-.42c-.18-.14-.39-.25-.59-.38a.27.27,0,0,0-.36,0,1.58,1.58,0,0,1-1.28.26.3.3,0,0,1-.21-.17c0-.09,0-.19.13-.2s.08-.07.12-.11a.42.42,0,0,0-.16,0,1.76,1.76,0,0,1-.86-.16,1.67,1.67,0,0,0-.75-.11,1.33,1.33,0,0,1-.88-.42.89.89,0,0,0-.68-.29.72.72,0,0,1-.35-.11.21.21,0,0,1-.07-.33c0-.05.2-.08.08-.19s-.12-.22-.28-.14a.13.13,0,0,1-.12,0,1.17,1.17,0,0,0-.89-.2c-.14,0-.29,0-.32-.14s-.08-.32.09-.44.19-.26-.07-.32a.55.55,0,0,1-.21-.12,1,1,0,0,0-.85-.3c-.19,0-.28-.06-.3-.27,0-.45-.12-.52-.58-.62s-.51-.45-.28-.66a1.58,1.58,0,0,0,.43-1.37c0-.4.07-.8.07-1.2a7.71,7.71,0,0,0-.08-1.07.56.56,0,0,1,.24-.57l.15-.15A7.93,7.93,0,0,0,2.2,18.18a3.85,3.85,0,0,1,.49-.5l.22-.22c.36-.36.7-.74,1.09-1.08.8-.71,1.57-1.46,2.43-2.1.56-.41,1.1-.85,1.69-1.28m93.8,23.4a.19.19,0,0,1-.09.09.15.15,0,0,1-.09.09l-.36.17-.44.19s0,.07,0,.11a.14.14,0,0,0,.09,0c.2-.05.4-.09.59-.15s.27-.14.25-.33a.19.19,0,0,1,.09-.09.15.15,0,0,1,.09-.09v-.08a.18.18,0,0,1-.09.08M12.31,31.54v.08a.31.31,0,0,1,.1-.08v-.08a.12.12,0,0,1-.09.08m-9-6.09v.08a.18.18,0,0,1,.09-.08v-.08a.17.17,0,0,1-.1.08m111.07.71v-.08a.18.18,0,0,1-.09.08.19.19,0,0,1-.09.09s-.09,0-.12,0a7.53,7.53,0,0,1-2,1.29l-.19.09,0,.05.07,0a.5.5,0,0,0,.17,0,5.69,5.69,0,0,0,2.18-1.47.15.15,0,0,1,.09-.09m-9.71,9.53.11,0,0-.06-.18.08v.08a.22.22,0,0,1,.1-.08M80.47,42.05l.11,0,0-.05a1.78,1.78,0,0,1-.18.08.19.19,0,0,1-.09.09A6.26,6.26,0,0,0,79,43a1.17,1.17,0,0,1-.26.18v.08a.17.17,0,0,1,.1-.08,1.46,1.46,0,0,1,.26-.18,5.68,5.68,0,0,0,1.33-.88.15.15,0,0,1,.09-.09m-6.63,2.82a1.59,1.59,0,0,1,.27-.17,1.46,1.46,0,0,1,.26-.18.19.19,0,0,1,.09-.09.94.94,0,0,0,.24-.06c.78-.54,1.55-1.09,2.33-1.62.45-.3.91-.57,1.37-.84.09,0,.23,0,.34,0,0,.12.1.26-.12.39-.62.37-1.21.8-1.79,1.22-.27.21-.64.3-.87.62l-.11,0,0,.06a.43.43,0,0,1,.18-.08.42.42,0,0,0,.12,0l3-1.91c.41-.26.81-.53,1.21-.8.1-.06.21-.16.35,0a.21.21,0,0,1,0,.3s0,.06,0,.09a.53.53,0,0,0,.12,0c.23-.14.47-.28.7-.44a.21.21,0,0,1,.33,0c.09.11,0,.21,0,.3s-.2.22-.32.31c-.65.45-1.3.9-2,1.34l-.73.47a1.62,1.62,0,0,0-.17.19A1.41,1.41,0,0,1,79,43.9a1.62,1.62,0,0,0,.72-.38c.41-.27.8-.57,1.19-.85s.77-.53,1.11-.83.81-.81,1.22-1.21c.07-.07.2-.16.27-.14s.14.21.11.33a.52.52,0,0,1-.16.29c-.45.38-.92.74-1.38,1.13-.07,0-.09.16-.17.25v.08a.22.22,0,0,1,.1-.08,7.91,7.91,0,0,0,.66-.52,12.22,12.22,0,0,1,1.34-1c.37-.26.76-.49,1.16-.72.08,0,.27-.12.31.06a.36.36,0,0,1-.14.45,9.29,9.29,0,0,0-1,.7,16,16,0,0,1-1.89,1.5l-.08.06.12,0,.12,0a3.79,3.79,0,0,0,1.08-.59c.46-.34.93-.66,1.39-1s.68-.56,1-.84a2.61,2.61,0,0,0,.27-.19c.17-.14.31-.31.47-.45a.2.2,0,0,1,.18,0,.35.35,0,0,0,.46-.07c.1-.09.26-.17.36.08s.17.34.45.06.33-.34.51-.5a.8.8,0,0,1,.27-.18.42.42,0,0,1,.29,0s.06.17,0,.23a1.42,1.42,0,0,1-.26.29l-.26.24a.73.73,0,0,0,0,.09s.11,0,.14,0c.39-.35.79-.69,1.14-1.07.11-.11.19-.21.35-.22s.3.06.29.27c0,0,0,0,.07.06.17-.22.47-.34.5-.68l0-.14-.06,0a.27.27,0,0,1-.06.16l-.13-.07a1.83,1.83,0,0,1,.14-.47c.18-.27.19-.26,0-.55a1.11,1.11,0,0,1-.09-.19s.17-.14,0-.13a1.43,1.43,0,0,0-.28.07l-.63.19c-.21.08-.41.2-.63.28-.45.16-.92.28-1.35.48A14.14,14.14,0,0,1,85,39l-1.59.31-1.11.22a3.4,3.4,0,0,0-1.44.47.4.4,0,0,1-.54,0,.46.46,0,0,0-.51-.1,1.4,1.4,0,0,1-.28.06,1.87,1.87,0,0,0-1,.21.62.62,0,0,1-.53.09,1.22,1.22,0,0,0-.94-.14,13.3,13.3,0,0,1-1.56.2c-.37,0-.74.11-1.12.17l-1.07.17L72,40.81a2.39,2.39,0,0,1-.45.09c-.48,0-.93.19-1.42.2a12,12,0,0,0-1.44.24c-.3,0-.6,0-.89.09-.53.08-1,.22-1.57.25s-1,.1-1.47.18c-.71.12-1.43.2-2.14.27s-1.4.13-2.09.18-1.18,0-1.78.07c-.86.1-1.74,0-2.61.09s-1.6,0-2.4.1c-.47.06-1,0-1.43.08-.79.09-1.59.07-2.38.11a7.14,7.14,0,0,0-.78.15,3.18,3.18,0,0,1-1,.11.23.23,0,0,1-.13-.11s0-.09.07-.12a.38.38,0,0,1,.17-.12c.33-.07.66-.11,1-.18s.71-.15,1.07-.2c.2,0,.31-.06.44.09a.23.23,0,0,0,.33.07,1.17,1.17,0,0,1,.38-.05c.54,0,1.09,0,1.64,0s1.16-.1,1.74-.14c.27,0,.53,0,.8,0a4.88,4.88,0,0,0,.76-.07,4.33,4.33,0,0,1,.72,0c1.24-.06,2.47-.07,3.71-.1a.8.8,0,0,0,.31,0,9.42,9.42,0,0,1,1.3-.16c.38-.07.78,0,1.15-.11s.57,0,.85-.08a8,8,0,0,1,1.21-.18,2.59,2.59,0,0,0,.88-.1,5.31,5.31,0,0,1,.67-.08c.29,0,.57-.12.86-.16s.68-.05,1-.1c.72-.1,1.44-.23,2.15-.35a2.57,2.57,0,0,0,.48-.11c.05,0,.07-.08.1-.12l-.12,0a11.13,11.13,0,0,0-1.64.19c-.7.19-1.41.18-2.11.33-.21,0-.45-.09-.67-.07A8.86,8.86,0,0,1,65,40.52a13.46,13.46,0,0,0-1.79-.22,8.06,8.06,0,0,0-2.08.06,8.18,8.18,0,0,1-1.11.1,5.75,5.75,0,0,0-.93.1,12.79,12.79,0,0,1-1.35.25c-.27,0-.53.06-.8.11s-.75.17-1.13.24a6.89,6.89,0,0,0-1.15.21c-.63.26-1.32.18-2,.4a12.45,12.45,0,0,1-1.42.2,11.78,11.78,0,0,1-1.78.16c-.45,0-.91,0-1.37,0a3.23,3.23,0,0,1-.53-.08l-.12,0s.06-.1.11-.12a.74.74,0,0,1,.26,0,4.89,4.89,0,0,0,.53.09c.49,0,1-.06,1.47-.06.73,0,1.44-.19,2.18-.21a6.7,6.7,0,0,0,1-.17,5.63,5.63,0,0,1,.68-.17c.71-.07,1.4-.26,2.1-.36A6.24,6.24,0,0,0,57,40.8a14,14,0,0,1,2.12-.43c.25,0,.51,0,.76-.09A11.53,11.53,0,0,1,62.47,40c.34,0,.68,0,1,0a2.25,2.25,0,0,1,.26,0l1.62.26c.53.09,1.07.16,1.6.29a6.76,6.76,0,0,0,1.74,0c.43,0,.86-.19,1.3-.24a14.47,14.47,0,0,0,1.59-.33c.48-.11,1-.26,1.44-.36a.89.89,0,0,1,.44.15c.15.08.19.21,0,.34,0,0,.08.1.11.1l1-.26a13.69,13.69,0,0,0,1.75-.56,8.53,8.53,0,0,0,.84-.32.54.54,0,0,1,.69.06c.11.14.18,0,.27,0a7.08,7.08,0,0,1,.77-.28,6.16,6.16,0,0,0,.74-.33,3.14,3.14,0,0,0,.74-.35c.11-.09.26-.12.35-.21s.18-.06.25,0,.12.33-.1.45l-.79.44a.5.5,0,0,0-.12.13l.21,0s0,0,.06-.05l1.55-.84c.42-.22.84-.46,1.28-.65.21-.09.46,0,.64-.28s.35,0,.4.2,0,.12.14.05a4.67,4.67,0,0,1,.58-.41.3.3,0,0,1,.26,0,.24.24,0,0,1,.08.22.49.49,0,0,1-.14.24c-.14.11-.3.19-.45.29a.43.43,0,0,0-.09.13s.11,0,.14,0c.64-.36,1.27-.72,1.89-1.1.14-.08.25-.19.36,0s.33.16.53,0a4,4,0,0,1,.54-.28,2,2,0,0,1,.68-.25,1.29,1.29,0,0,0,.87-.4c.15-.13.34-.37.59-.21s.2,0,.28-.06l.34-.34a.27.27,0,0,1,.39,0c.13.1.11.21,0,.33s-.13.21-.24.32v.08a.17.17,0,0,1,.1-.08l.4-.41a4.92,4.92,0,0,1,.66-.63c.17-.13.3,0,.31.21v.35c0,.19.06.09.13,0s.17-.1.24-.16a3.86,3.86,0,0,0,.53-.54,5,5,0,0,0,.38-.63,1,1,0,0,0-.21-1.17.19.19,0,0,0-.18,0c-.46.16-.93.3-1.38.5a10.88,10.88,0,0,1-1.81.73c-.31.08-.59.2-.89.3s-.66.26-1,.37-.53.14-.78.25a5,5,0,0,1-1.84.43c-.56,0-1.09.32-1.65.12a5.56,5.56,0,0,1-1.21.2,8.64,8.64,0,0,1-1.43.13,22.18,22.18,0,0,1-3.36,0,12.64,12.64,0,0,0-1.63,0c-.1,0-.23,0-.3,0a.82.82,0,0,0-.63-.06,17.51,17.51,0,0,1-2,.16H72.32a5.15,5.15,0,0,0-.88,0,9.88,9.88,0,0,1-1.79.18,5.29,5.29,0,0,0-1,.08,9.21,9.21,0,0,1-1.56.18,4.65,4.65,0,0,0-1.06.1c-.26.06-.53,0-.76.08-.53.17-1.1.19-1.62.35-.26.09-.52,0-.76.09a10.68,10.68,0,0,1-1.25.16c-.47.1-1,.12-1.43.19a13.05,13.05,0,0,1-1.39.25c-.57,0-1.13.14-1.69.17a18.08,18.08,0,0,1-2.08-.08.53.53,0,0,1-.25-.12.43.43,0,0,1-.1-.09s.08,0,.11,0a5.31,5.31,0,0,0,.67.08,6.7,6.7,0,0,0,2.36-.17s.08,0,.13,0a.45.45,0,0,0,.2,0c.61-.05,1.22-.08,1.82-.19a3.51,3.51,0,0,0,.66-.08,15.74,15.74,0,0,1,2-.33,6.92,6.92,0,0,1,1-.11s.07-.06.1-.09-.08-.08-.12-.07l-.62.08a3.62,3.62,0,0,0-.66,0c-.64.13-1.29.13-1.92.25l-1.18.23A11.92,11.92,0,0,1,58,37.5c.23-.07.46-.16.7-.21.49-.11,1-.17,1.47-.29a9.34,9.34,0,0,1,2.16-.33,9,9,0,0,1,1.64,0,.14.14,0,0,0,.09,0c.6-.08,1.19-.2,1.79-.26s1.21-.06,1.82-.09h.22A15.82,15.82,0,0,1,69.72,36a4.18,4.18,0,0,0,.79-.11,7.63,7.63,0,0,1,2.28-.24,3.44,3.44,0,0,0,.63.06,7,7,0,0,1,1.44-.15.42.42,0,0,0,.19-.06,1.14,1.14,0,0,0,.16-.15.67.67,0,0,0-.19,0c-.4,0-.8.08-1.2.08s-.78-.06-1.17-.08a6.85,6.85,0,0,0-1.36,0c-.44.08-.92-.07-1.31.24-.35-.05-.63.18-1,.24-.18,0-.35.08-.53.12l-.94.17s-.07,0-.1,0l.11,0,1.09-.36c.57-.17,1.14-.3,1.71-.45A7.24,7.24,0,0,1,72.15,35h1.19a3.67,3.67,0,0,0,.88,0,6.39,6.39,0,0,1,1.57-.16c.26,0,.44,0,.49.35,0,.14.1.23.3.11a3.69,3.69,0,0,1,.81-.28c.5-.18,1-.29,1.51-.52a5.56,5.56,0,0,1,1-.28.24.24,0,0,1,.31.16.23.23,0,0,1-.19.29,3.47,3.47,0,0,0-.61.23c-.14.07-.35.06-.41.27l.46-.15a2,2,0,0,0,.23-.06c.78-.33,1.56-.65,2.32-1,.16-.07.26-.07.3.05s.12.25-.11.34a11.34,11.34,0,0,0-1.21.6.66.66,0,0,0-.15.14l.18,0c.22-.07.44-.16.67-.21A17,17,0,0,0,84,34c.62-.24,1.2-.57,1.81-.84a1.17,1.17,0,0,1,.45-.09c.13,0,.17.18.07.29a.7.7,0,0,1-.16.14c-.34.16-.68.29-1,.45s-.68.35-1,.53c0,0-.08.08-.12.12l.19.05h0l1.06-.53.84-.43L88,32.72c.2-.09.41-.24.61,0,0,0,.12,0,.17,0a4.2,4.2,0,0,0,.53-.22c.28-.15.53-.35.81-.49.13-.07.26-.22.46-.06a.28.28,0,0,0,.38-.08c.06-.06.15-.08.21-.13a1.74,1.74,0,0,1,1.14-.39s.09-.06.14-.09c.2-.14.41-.41.61-.41.36,0,.54-.23.78-.38s.17-.11.28,0,.33.13.48,0,.21-.21.32-.31.17-.19.27-.28a.29.29,0,0,1,.42,0c.14.15,0,.25-.08.36a2.12,2.12,0,0,1-.26.26v.09a.18.18,0,0,1,.1-.09,2,2,0,0,0,.83-.89c.08-.13.2-.23.3-.16s.46-.15.65.08c0,0,.08,0,.11,0a2.86,2.86,0,0,0,.75-.61c.22-.34.4-.72.65-1.05a1.15,1.15,0,0,1,.3-.32c.39-.26.8-.49,1.19-.74,0,0,.07-.08.1-.12l-.16,0c-.06,0-.15,0-.17.07a.42.42,0,0,1-.38.2.5.5,0,0,0-.27.07,1.28,1.28,0,0,1-.5.2,11.28,11.28,0,0,0-1.13.34c-.42.14-.82.32-1.24.44-.76.22-1.53.41-2.3.62-.18.05-.36.13-.54.18a6,6,0,0,0-.64.16l-2.11.68a2.93,2.93,0,0,0-.41.07,4.25,4.25,0,0,1-1.68.42,1.57,1.57,0,0,0-.61.11c-.63.27-1.34.11-1.95.41a.08.08,0,0,1-.08,0,.47.47,0,0,0-.52,0,1.51,1.51,0,0,1-.53.1c-.35,0-.71,0-1.06.09-.68.11-1.34.27-2,.34s-1.1.22-1.66.28c-.13,0-.27.06-.4.08-.46.07-.93.11-1.38.19s-.72.18-1.09.25c-.59.13-1.2.24-1.79.36-.22,0-.42.13-.64.17-.45.08-.89.19-1.34.29L72.4,33c-.48.13-1,.21-1.44.37a9.09,9.09,0,0,0-1.41.42,1.58,1.58,0,0,1-.49.09s-.08,0-.12,0l.12,0c.41-.15.81-.33,1.23-.44.6-.15,1.21-.27,1.8-.44.81-.23,1.63-.42,2.44-.62l.31-.09,1.54-.33c.73-.16,1.46-.32,2.2-.46.53-.11,1.08-.14,1.6-.28.75-.19,1.5-.28,2.25-.43.31-.06.63,0,.94-.09.54-.11,1.07-.25,1.62-.35s1-.09,1.42-.19a22.44,22.44,0,0,0,2.29-.55c.93-.31,1.88-.55,2.79-.92.24-.1.51-.12.76-.2a5.46,5.46,0,0,0,.77-.28,6.55,6.55,0,0,1,1.68-.52,4.25,4.25,0,0,0,1.2-.31,2.33,2.33,0,0,1,.89-.29,7.57,7.57,0,0,0,1.76-.44,15,15,0,0,0,1.84-.68c.56-.24,1.18-.36,1.73-.61s1.42-.47,2.09-.82c.4-.22.85-.36,1.27-.55.15-.07.27-.19.42-.26.4-.18.81-.33,1.2-.51s.89-.42,1.33-.65a4.65,4.65,0,0,1,.56-.34c.77-.24,1.44-.7,2.19-1a9.26,9.26,0,0,0,1.32-.77l1-.53a8.54,8.54,0,0,0,1.1-.64,4.8,4.8,0,0,0,.88-.92,3.14,3.14,0,0,1,.33-.48.61.61,0,0,0,.21-.53,1.3,1.3,0,0,0-.52-.92,7.27,7.27,0,0,1-1.27-1,6.73,6.73,0,0,0-.88-.63q-.73-.45-1.5-.87c-.4-.23-.81-.45-1.23-.64-.76-.33-1.54-.63-2.3-1-.43-.19-.84-.46-1.28-.62-.78-.28-1.56-.56-2.32-.9-.59-.25-1.15-.57-1.74-.81a3.46,3.46,0,0,0-1.06-.34,2,2,0,0,1-.59-.26c-.36-.17-.7-.37-1.07-.52s-1-.39-1.54-.63a8.54,8.54,0,0,0-1.43-.61c-.43-.13-.88-.23-1.31-.36a11.61,11.61,0,0,0-1.85-.45c-.66-.08-1.29-.34-2-.41-.4,0-.79-.16-1.2-.19s-1-.11-1.56-.17c-.78-.1-1.56-.13-2.35-.19a10.34,10.34,0,0,1-1.11-.07,13.46,13.46,0,0,0-1.69-.1l-2.56-.1c-.12,0-.24,0-.35,0a16.78,16.78,0,0,1-1.87,0l-1.52-.15a4.14,4.14,0,0,0-1.16.07,11,11,0,0,1-1.29.07c-.49,0-1,.24-1.52-.06-.08,0-.2,0-.31,0-1,0-2,0-3.05-.07s-1.78,0-2.67-.1a12.77,12.77,0,0,0-1.38.08h0l-.82.08c-.31,0-.62,0-.93.09s-.58.1-.87.15l-1,.11c-.25,0-.21-.22-.33-.32a1,1,0,0,1,.22-.2.73.73,0,0,1,.32-.09c.13,0,.27,0,.39,0A8.94,8.94,0,0,1,65.22,5a1.55,1.55,0,0,0,.31,0,9.22,9.22,0,0,1,1.74-.14c.29,0,.6,0,.9,0,1.07,0,2.15,0,3.23.08.24,0,.49-.1.71,0a1.8,1.8,0,0,0,.72.08c.86,0,1.71,0,2.56,0a4.91,4.91,0,0,0,.85-.09l1.35-.26.17-.05-.16,0a7.22,7.22,0,0,0-.93,0,8,8,0,0,1-.85,0H73a2.56,2.56,0,0,0-.47,0c-.87.12-1.74,0-2.61,0-.23,0-.5-.06-.75-.07a2.5,2.5,0,0,1-.9-.08c-.19-.08-.42.18-.63,0-1.25,0-2.5,0-3.75,0-.61,0-1.21.14-1.83.16l-.38,0a1.9,1.9,0,0,1,.4-.14,2.57,2.57,0,0,1,.48,0c.09,0,.2,0,.26,0,.25-.15.51,0,.77-.08a5.29,5.29,0,0,1,.8-.08c1.65,0,3.3,0,5,.06s3.53,0,5.3,0a2,2,0,0,0,.52-.12s.06-.06.09-.09-.06,0-.09,0c-.24,0-.48-.08-.71-.09l-2.92-.09c-.12,0-.26,0-.35,0-.31-.17-.63,0-.94-.07-.09,0-.18,0-.26,0a4.15,4.15,0,0,0-1,0,4.43,4.43,0,0,1-1.74,0s-.07-.06-.11-.09.08-.08.12-.08l1.42-.07,2.84-.19c1.32-.08,2.65-.07,4-.1h.26a.56.56,0,0,0,.12,0s-.07,0-.11,0A6.56,6.56,0,0,0,75,3c-.49,0-1,0-1.47-.08-.74-.09-1.5-.07-2.25-.1h-.18a8.61,8.61,0,0,0-1.6-.17,14.06,14.06,0,0,1-2-.08c-.22.23-.46-.08-.73,0a1,1,0,0,1-.92-.06.71.71,0,0,1-.17-.21c.07-.05.14-.13.21-.13a5.63,5.63,0,0,1,.59,0c.09,0,.19,0,.25,0,.48-.19,1,0,1.48-.15a8.79,8.79,0,0,1,1.36,0c.42,0,.84-.08,1.26-.08,1.2,0,2.39,0,3.58,0,.12,0,.24.07.36.08s.11-.08.17-.12A.39.39,0,0,0,74.71,2l-1.42-.18c-.65-.07-1.31-.09-2-.16s-1.15,0-1.73-.09-1.15-.07-1.73-.1a.27.27,0,0,1-.09,0,3.08,3.08,0,0,0-1.2-.16c-1.25-.06-2.5,0-3.76,0a1.88,1.88,0,0,0-.33.05,2.09,2.09,0,0,1-1.39-.17S61,1.07,61,1s.07,0,.11,0c.56,0,1.12-.09,1.68-.08A15.24,15.24,0,0,1,64.7,1a17.29,17.29,0,0,0,2.16,0c.14,0,.3-.11.4-.07A3.53,3.53,0,0,0,68.38,1a.75.75,0,0,0,.2,0l-.22,0c-.08,0-.15,0-.22,0C67.6.82,67.06.71,66.52.65S65.66.6,65.23.58A9,9,0,0,0,62.4.73,3,3,0,0,1,62,.82c-1.49,0-3-.06-4.48.08-.15,0-.32-.11-.45-.07-.33.11-.66,0-1,.06a5.81,5.81,0,0,1-1.18,0,11,11,0,0,1-1.15,0c-.38,0-.74.08-1.12,0a3.6,3.6,0,0,0-1.13,0,10.74,10.74,0,0,1-1.51.1c-1.57.07-3.15.07-4.73.11-.47,0-.94.05-1.42.08,0,0-.06,0-.08,0a10.21,10.21,0,0,1-2.12.42,11.51,11.51,0,0,1-1.95.2,4.83,4.83,0,0,0-.94.1c-.46.13-.94.14-1.41.32s-.75.15-1.11.29l-1.87.7c-.19.07-.31.16-.27.39a.81.81,0,0,1,0,.22A1.3,1.3,0,0,1,33.39,5c-.65.3-1.34.52-2,.81a.73.73,0,0,0-.51.57,1.66,1.66,0,0,1-.65,1,2.53,2.53,0,0,1-.33.16s0,0-.06.06.07,0,.1,0a3.8,3.8,0,0,1,.55-.16c.44,0,.89-.07,1.33-.1l1.73-.09h.13a4.52,4.52,0,0,1,1-.17c.18,0,.35,0,.53,0A9.22,9.22,0,0,0,37.06,7a.46.46,0,0,1,.35.09.41.41,0,0,1,.18.28.34.34,0,0,1-.18.23c-.59.19-1.17.38-1.77.53s-1.43.3-2.15.46a7.75,7.75,0,0,1-1.66.25,1.68,1.68,0,0,0-.39,0A6.39,6.39,0,0,1,29.7,9c-.42,0-.83.06-1.25.09a.76.76,0,0,0-.18.09l-.11,0a.21.21,0,0,0,.11,0,17.46,17.46,0,0,1,2.89.17c.4.07.77.2,1.16.28a.21.21,0,0,1,.15.31.36.36,0,0,1-.21.21,3.09,3.09,0,0,1-.53.09c-.41.06-.8.16-1.21.2-.6.06-1.19.24-1.8.33a14,14,0,0,1-1.59.09h-2c-.3,0-.62-.06-.82.26,0,.06-.14.08-.22.09a15.48,15.48,0,0,1-1.66.26c-.61,0-1.22.1-1.82.18s-1.24.07-1.86.09c-.4,0-.8,0-1.19,0a6.51,6.51,0,0,0-1.25.19,12.79,12.79,0,0,0-1.29.51l-.68.26c-.05,0-.11,0-.17,0s.07-.12.12-.15a15.35,15.35,0,0,1,2.37-1,7,7,0,0,1,1.7-.26,8.92,8.92,0,0,0,1.79,0c.45-.08.91-.06,1.37-.1a.41.41,0,0,0,.32-.2.49.49,0,0,1,.33-.22c.35,0,.69-.14,1-.18.56-.07,1.12-.08,1.68-.1.2,0,.39.08.58.08s.51-.08.76-.08a14.18,14.18,0,0,0,3.25-.26c.54-.12,1.1-.18,1.65-.27A2.83,2.83,0,0,0,31.5,10l-.42,0H31a8.42,8.42,0,0,0-1.65-.18,1.4,1.4,0,0,1-.76-.08c-.06,0-.14,0-.21,0a2.66,2.66,0,0,1-.37.07,5.47,5.47,0,0,0-1.46.1,6.05,6.05,0,0,0-1.18.25,2.06,2.06,0,0,1-.75.09c-.18,0-.4-.22-.32-.31a1.35,1.35,0,0,1,.45-.38c.45-.14.94-.11,1.39-.27A2.79,2.79,0,0,1,27.07,9a14.47,14.47,0,0,0,1.47-.22,7.9,7.9,0,0,0,1.17-.13c.38-.07.77,0,1.16-.08s.94,0,1.41-.1,1-.17,1.53-.28.93-.22,1.39-.35a2,2,0,0,1,.73-.18s.08,0,.1-.06a.69.69,0,0,0,.07-.15c-.05,0-.1,0-.15,0-.23,0-.47.07-.71.09a8.63,8.63,0,0,0-1.15.1,9.33,9.33,0,0,1-1.74.17A8.41,8.41,0,0,0,31,7.89c-.62.09-1.23.22-1.84.35L28,8.48a13.45,13.45,0,0,1-2,.38,4.72,4.72,0,0,0-.88.22,9,9,0,0,1-1.25.38c-.67.09-1.34.22-2,.37s-1.14.31-1.72.42l-1.3.27c-.42.1-.86.13-1.28.21s-.73.15-1.1.24l-1.14.32c-.53.16-1,.33-1.57.47-.68.18-1.33.44-2,.59a9.92,9.92,0,0,0-1.25.38,9.34,9.34,0,0,0-2.36,1.14c-.88.65-1.68,1.4-2.52,2.1-.23.19-.47.37-.69.57a4.24,4.24,0,0,0-.93.91,1.84,1.84,0,0,1-.85.73,4.21,4.21,0,0,0-.77.68.47.47,0,0,0,0,.12l.1,0s.1,0,.11,0c.26-.38.72-.51,1-.83A.33.33,0,0,1,4.08,18a8.4,8.4,0,0,1,1.55,1,2.48,2.48,0,0,0,.59.49,10.32,10.32,0,0,1,1.6,1.26c.4.28.77.61,1.19.86s1,.48,1.55.73a7.24,7.24,0,0,1,.73.38,16.88,16.88,0,0,0,1.82,1.14,17.58,17.58,0,0,0,2,.67,1,1,0,0,0,.36.08,2.39,2.39,0,0,1,1.18.25,11,11,0,0,0,1.88.37c.35.06.71.05,1.06.1a16.19,16.19,0,0,0,1.66.24,16.94,16.94,0,0,1,2.36.19l.78.14c.44.07.88.17,1.32.21s1.06,0,1.6.08c.76.1,1.53.07,2.3.11a2,2,0,0,1,.81.07c.11.05.27,0,.41,0s.11,0,.15,0a4.37,4.37,0,0,0,1.44.16c.29,0,.35,0,.44.35a3.73,3.73,0,0,0,.23.69c.08.14.35.17.43.3s.14.32.3.43a1.59,1.59,0,0,0,1.24.13c.39-.05.76-.16,1.15-.22a.49.49,0,0,1,.31.09c.11.08,0,.18,0,.3s-.06.24.16.23.45.06.67.08a4.6,4.6,0,0,1,.84.1,13.93,13.93,0,0,0,2.56.41c.56.09,1.14.14,1.71.2s1.09.06,1.64.09a2.51,2.51,0,0,1,1,.08c.06,0,.16,0,.24,0h.27a1.13,1.13,0,0,0,.25,0,3.34,3.34,0,0,1,1.55.08c.31.08.66-.06,1,.1.34-.21.69,0,1,0s.72,0,1.08,0a2.65,2.65,0,0,1,.62,0,6.16,6.16,0,0,0,1.35.17,3.64,3.64,0,0,1,.66,0c.2,0,.39,0,.59,0s.36.13.48.07a1.29,1.29,0,0,1,.64-.06c.69,0,1.38,0,2.07,0a2.38,2.38,0,0,0,.37-.06L58.49,30c.07,0,.17.1.22.07.45-.2.93,0,1.4-.14a10,10,0,0,1,1.46-.09c.62-.07,1.24-.1,1.86-.19s1.1-.13,1.65-.19a3.29,3.29,0,0,0,.71-.09c.7-.24,1.45-.16,2.16-.34.31-.08.65,0,1-.1a13.28,13.28,0,0,1,1.88-.26,8.65,8.65,0,0,0,.89-.09,10.1,10.1,0,0,1,1.82-.17,1.42,1.42,0,0,1,.2,0,.6.6,0,0,1-.21.13,4.48,4.48,0,0,1-1,.08,6.18,6.18,0,0,0-1.77.22c-.73.11-1.48.14-2.2.31-.48.11-1,.12-1.47.19a2.57,2.57,0,0,0-.7.11,1.92,1.92,0,0,1-.91.15.81.81,0,0,0-.22,0,4,4,0,0,1-1.27.25c-.66.1-1.34.14-2,.28a2.89,2.89,0,0,1-.58.08,6,6,0,0,0-1.26.18,5.27,5.27,0,0,1-.89.09,8.8,8.8,0,0,0-1.36,0,12.16,12.16,0,0,1-1.8.16c-.84,0-1.68,0-2.52,0-.18,0-.35.07-.53.08a2.69,2.69,0,0,1-.75,0c-.59-.14-1.2-.13-1.79-.24a6.76,6.76,0,0,0-1.19,0c-.36,0-.72-.06-1.09-.08s-.5,0-.74,0a13.26,13.26,0,0,0-1.87-.17l-3.85-.09a.49.49,0,0,1-.21,0,1.54,1.54,0,0,0-.87-.15,1.27,1.27,0,0,1-.39,0,19.65,19.65,0,0,0-2.15-.35,8,8,0,0,0-1.3-.2,2.8,2.8,0,0,0-.58,0,4,4,0,0,1-.68-.05s-.1.06-.13.11a.26.26,0,0,0,.2.41.91.91,0,0,0,.58-.07c.06,0,.18,0,.28.05-.08.06-.15.18-.23.19s-.41-.06-.52,0-.39,0-.5-.13A.47.47,0,0,1,35,29.4c0-.08.15-.17-.06-.16a.76.76,0,0,1-.21,0,1.85,1.85,0,0,0-1.27-.05.84.84,0,0,1-1.09-.28s-.15-.07-.18,0-.35,0-.45-.08a.4.4,0,0,0-.53-.05.55.55,0,0,1-.43.05c-.15-.06-.26-.23-.37-.36s0-.07,0-.12a1.09,1.09,0,0,0,0-.18l-.15.06-1.93.78a.49.49,0,0,1-.24,0c-.3,0-.34-.16-.18-.41l.05-.09s-.1,0-.12,0c-.3.32-.74.36-1.1.56a1.91,1.91,0,0,1-.65.21c-.12,0-.25-.11-.37-.16l.14-.22a1.42,1.42,0,0,0,.08-.18.52.52,0,0,0-.18,0,1.87,1.87,0,0,0-.39.22.35.35,0,0,1-.47,0c-.16-.19-.28-.06-.41,0s-.33.13-.5.16-.17-.08-.24-.14a.56.56,0,0,1,.09-.17l.7-.65L24.6,28l-.07,0a2.13,2.13,0,0,0-.35.14c-.11.06-.2.19-.31.2-.35,0-.58.3-.87.45a1.91,1.91,0,0,1-.49.21.61.61,0,0,1-.33-.15,1.28,1.28,0,0,1,.08-.2.41.41,0,0,1,0-.09.27.27,0,0,0-.12,0,2.47,2.47,0,0,0-.36.19c-.15.09-.3.12-.42,0s.05-.27.12-.39a.81.81,0,0,1,.16-.16,6.38,6.38,0,0,1,.6-.51,2.92,2.92,0,0,1,1.2-.83c.34-.11.7-.38,1.1-.15,0,0,.09,0,.12-.08s0-.08-.06-.09c-.22,0-.44-.07-.67-.09s-.34,0-.48,0a4.63,4.63,0,0,0-1.61-.16c-.22,0-.45-.05-.56.23,0,.06-.14.09-.21.12a7.77,7.77,0,0,0-2.2,1.08,1.34,1.34,0,0,0-.2.21,2.23,2.23,0,0,0,.27,0l.9-.29.13-.06s0,.12,0,.15a3,3,0,0,1-1.19.53.33.33,0,0,1-.4-.2.44.44,0,0,1,.06-.37,4.43,4.43,0,0,1,.51-.45,3.74,3.74,0,0,1,1.6-.84.85.85,0,0,0,.25-.13s0-.06,0-.08,0,0-.06,0c-.24,0-.48,0-.72.07a.48.48,0,0,0-.27.15.47.47,0,0,1-.33.2,5.09,5.09,0,0,0-2.2,1.07c-.05,0-.07.1-.1.15a.74.74,0,0,0,.21,0l.6-.25.13-.05c0,.05,0,.13-.06.15a6.68,6.68,0,0,1-.79.42.34.34,0,0,1-.44-.19c0-.08,0-.23.1-.32a4,4,0,0,1,.94-.89,1.72,1.72,0,0,1,1.06-.45s.07,0,.07-.07,0-.09-.06-.09-.27,0-.34,0c-.29.28-.7.31-1,.51-.56.33-1.14.65-1.71,1l-.1.07a.32.32,0,0,0,.13,0l.26-.11.55-.28h.09s0,.07,0,.08a1.71,1.71,0,0,1-1.18.66.36.36,0,0,1-.31-.15s.05-.22.13-.28q.72-.59,1.47-1.14c.23-.17.49-.3.74-.45l.12-.08a1.19,1.19,0,0,0-.15-.09c-.31-.12-.54.13-.81.19a4.46,4.46,0,0,0-1.1.42c-.46.24-.9.53-1.35.81a1.36,1.36,0,0,0-.12.12,1.42,1.42,0,0,0,.2,0,.4.4,0,0,0,.15,0,.69.69,0,0,1-.07.15c-.05,0-.1.13-.16.14s-.3.23-.41,0a.53.53,0,0,1,0-.46A4.92,4.92,0,0,1,16,25.63a3.88,3.88,0,0,0,.36-.15,1.43,1.43,0,0,0-.39-.11,2.06,2.06,0,0,0-1,.12L13.93,26a.41.41,0,0,0-.26.41.36.36,0,0,1-.13.28.46.46,0,0,1-.41,0c-.15-.1-.09-.26,0-.41s.11-.28.2-.35c.35-.26.71-.49,1.07-.72l.15-.07c-.06,0-.11-.13-.17-.12a4.85,4.85,0,0,0-.53.08,7.54,7.54,0,0,0-1.86.62c-.11.05-.18.2-.26.31a1.69,1.69,0,0,1,.31-.13.09.09,0,0,1,.11,0,.11.11,0,0,1,0,.11,1.14,1.14,0,0,1-.19.19c-.13.07-.53,0-.56-.1a.49.49,0,0,1,0-.29c0-.09.15-.14.21-.21a3.66,3.66,0,0,1,1.44-.8l.27-.14a1.09,1.09,0,0,1-.25,0l-.34-.11a.45.45,0,0,0-.24-.05l-2,.87a1.49,1.49,0,0,0-.14.12c.06,0,.13.07.18.05a6,6,0,0,0,.94-.29c.12,0,.19-.06.24,0s-.08.14-.14.17l-1.09.35c-.35.12-.36.11-.51-.25a.27.27,0,0,1,0-.2,2.07,2.07,0,0,1,.39-.34,9.25,9.25,0,0,1,1.47-.83s.06-.13,0-.14a6.52,6.52,0,0,0-1.26-.89c-.11,0-.21-.13-.33-.17l-.62-.2c-.06,0-.14-.06-.18,0-.62.38-1.35.51-2,.84-.39.2-.84.29-.87.85,0,0-.06.19-.18.07a.52.52,0,0,1,0-.67,5.16,5.16,0,0,1,1.42-.94,5.13,5.13,0,0,1,.87-.36l.12-.08-.1-.1a.45.45,0,0,0-.55,0,4.29,4.29,0,0,1-.5.19l-1.92.91s-.06.08-.09.12a.37.37,0,0,0,.15,0c.1,0,.21-.12.27,0s-.08.18-.17.23l-.15.06a.61.61,0,0,1-.55-.14c-.07-.2.08-.31.2-.39.76-.48,1.52-1,2.29-1.41.26-.15.27-.17,0-.35s-.68-.55-1-.84-.39-.34-.59-.49-.4-.3-.61-.44a4.78,4.78,0,0,1-.5-.33c-.4-.38-.53-.39-1-.13s-.75.4-1.1.63a11.56,11.56,0,0,0-.95.78.66.66,0,0,0-.14.29s0,.1,0,.15.07-.05.09-.09a3,3,0,0,1,.76-.7,5.92,5.92,0,0,1,1.51-.8c.26-.1.5-.22.78,0s0,.19-.09.22c-.52.13-1,.47-1.46.64a3.27,3.27,0,0,0-1.09.78,1.33,1.33,0,0,0-.54.88.25.25,0,0,1,0,.07s-.08,0-.09-.07,0-.28-.05-.42.11-.22,0-.37a.6.6,0,0,1,.15-.83A8.62,8.62,0,0,1,4,18.83s.06-.08.08-.12a.19.19,0,0,0-.1-.05.17.17,0,0,0-.12,0,5.75,5.75,0,0,0-2.3,1.68,1.42,1.42,0,0,0-.29.5c-.06.48-.08,1-.1,1.46A8.6,8.6,0,0,0,1.22,24c.06.31.16.38.43.21A1.57,1.57,0,0,0,1.84,24c.11-.12.23-.22.33-.34s.33-.22.14-.47a.28.28,0,0,1,.09-.38c.22-.18.43-.38.66-.54.52-.37,1.06-.72,1.58-1.08a4.1,4.1,0,0,1,1.28-.66c.21-.05.29,0,.34.17s.09.34-.3.34c0,0-.06.06-.09.07A7.89,7.89,0,0,0,4,22.06c-.41.28-.82.58-1.22.87-.13.09-.24.19,0,.29a1,1,0,0,1-.09.2s-.1,0-.16.06a1.13,1.13,0,0,0,.18.12l.25.08a1.64,1.64,0,0,1-.16.29,1.75,1.75,0,0,1-.2.16c-.27.23-.55.45-.81.69,0,0,0,.15,0,.2s.13,0,.18,0a4.11,4.11,0,0,1,1.31-.87,4.83,4.83,0,0,0,.41-.49s0,0,0-.06a2.32,2.32,0,0,1,1-1.1,13.48,13.48,0,0,1,1.57-.89.78.78,0,0,1,.78-.12c.14.07.29.13.23.29a.33.33,0,0,1-.29.17,1.33,1.33,0,0,0-.59.19,4,4,0,0,1-.56.25,4.22,4.22,0,0,0-1.22.56A3,3,0,0,0,4,23.6c-.1.11-.06.17.09.18s.09,0,.13.07a.94.94,0,0,1-.1.1l-.22.17c.14.17,0,.21-.12.27s-.17.08-.26.13l.27.05s.07,0,.09,0l.25.13a.74.74,0,0,1-.13.21,3.4,3.4,0,0,1-.3.23s0,.08-.07.12a.66.66,0,0,0,.15,0l.43-.34c.14-.1.5-.05.53.08s0,.24-.2.32a4.19,4.19,0,0,0-.75.52.25.25,0,0,0-.09.19c0,.11.28.16.37.09a2.4,2.4,0,0,1,.47-.37,3,3,0,0,1,.73-.26.31.31,0,0,1,.26.14c.06.13,0,.23-.16.3s-.5.29-.75.43l-.12.07c.06,0,.13,0,.17,0L6,25.8a3.56,3.56,0,0,1,.61-.25c.09,0,.18,0,.25.13s0,.19-.09.22c-.2.14-.43.24-.63.38-.36.25-.7.51-1,.78a.68.68,0,0,0-.1.21.73.73,0,0,0,.21-.06c.25-.15.48-.32.74-.46s.64-.36,1-.53a1.1,1.1,0,0,1,.42-.14c.1,0,.2.08.3.12a1.28,1.28,0,0,1-.13.21,1.07,1.07,0,0,1-.28.19c-.5.31-1,.61-1.52.91a.32.32,0,0,0-.08.12s.12,0,.16,0c.38-.15.76-.29,1.13-.47s.85-.51,1.28-.74a1.13,1.13,0,0,1,.49-.1c.18,0,.23.17.1.29a2,2,0,0,1-.46.37c-.6.36-1.22.69-1.82,1,0,0-.06.08-.09.12s.12,0,.16,0l.69-.26a4.66,4.66,0,0,0,1.33-.64A1.73,1.73,0,0,1,9,27a1.42,1.42,0,0,1,.4-.08c.12,0,.26.11.18.22a1.81,1.81,0,0,1-.52.43c-.38.21-.78.38-1.17.58a.92.92,0,0,0-.14.14c.07,0,.15.05.21,0a13,13,0,0,0,1.81-.74,3.11,3.11,0,0,1,.52-.25,1,1,0,0,1,.41-.05c.07,0,.23.12.08.26a2.4,2.4,0,0,1-.37.28,4.54,4.54,0,0,1-1.12.51s-.08.1-.11.15l.21.09s0,0,0,0l2.07-.76c.36-.14.47-.13.7.16,0,.07.08.14.19,0a.58.58,0,0,1,.29-.12,2.19,2.19,0,0,1,.36,0,1.2,1.2,0,0,1-.05.33.52.52,0,0,1-.18.18c-.15.09-.31.16-.47.25l-.71.41s-.05.06-.07.09a.53.53,0,0,0,.12,0,.24.24,0,0,0,.12,0,4.34,4.34,0,0,1,1.07-.5c.34-.16.66-.34,1-.5a1.19,1.19,0,0,1,.75-.21c.13,0,.15.06.09.17s-.11.21-.19.27c-.27.16-.56.3-.83.45l-.9.49a.31.31,0,0,0-.07.09s.08,0,.12,0a4.22,4.22,0,0,0,.45-.18c.37-.19.72-.4,1.1-.55.15-.07.45-.08.5,0s-.12.29-.23.41a2.07,2.07,0,0,1-.25.15l-.67.51c-.11.08,0,.14,0,.15a.61.61,0,0,0,.27,0l1.15-.53a1.73,1.73,0,0,1,1-.21c.13,0,.15.12.07.23a1.39,1.39,0,0,1-.59.39l-1,.39s-.07.06-.1.09a.31.31,0,0,0,.15,0,5.75,5.75,0,0,0,.71-.2c.51-.2,1-.42,1.51-.61a1.19,1.19,0,0,1,.46-.06.31.31,0,0,1,.17.17c0,.07,0,.12-.1.19a4.15,4.15,0,0,1-.78.47c-.21.11-.41.23-.61.35,0,0-.05.08-.07.12l.15,0c.72-.25,1.45-.47,2.15-.76a1.81,1.81,0,0,1,.55-.07s.12,0,.12.07,0,.16-.06.19-.39.24-.6.35-.38.2-.57.32-.06.12-.08.18a.45.45,0,0,0,.16,0c.39-.13.8-.16,1.19-.32.21-.09.49-.2.72.06s.19.15-.06.19a1.77,1.77,0,0,0-.59.28.47.47,0,0,0-.18.19c0,.05,0,.13,0,.2l.15,0a14.43,14.43,0,0,0,2.27-.93.49.49,0,0,1,.22-.08c.18,0,.43-.09.5.14s-.15.27-.28.35c-.34.23-.7.42-1.06.63a1,1,0,0,0-.14.15c.06,0,.14.06.2,0,.5-.13,1-.29,1.5-.42a3.76,3.76,0,0,1,.75-.1.36.36,0,0,1,.27.15c.08.13-.05.17-.15.24a1.44,1.44,0,0,1-.71.32c-.06,0-.11.07-.17.11l.16.06a.79.79,0,0,0,.25,0c.54-.12,1.08-.27,1.62-.37a3,3,0,0,1,1.1-.21c.07,0,.19.05.2.09s.05.23-.14.29a3.72,3.72,0,0,0-.7.33l-.3.13a2.5,2.5,0,0,0,.35.21.44.44,0,0,0,.25,0c.24-.06.47-.21.73,0a.36.36,0,0,0,.32-.07,2.5,2.5,0,0,1,1.18-.57c.16,0,.17.06.25.11-.23,0,.12.24-.11.32s-.69.32-1,.48a.44.44,0,0,0-.08.1s.09,0,.12,0a5.34,5.34,0,0,1,1.18-.35,3.56,3.56,0,0,1,.41-.17,8.84,8.84,0,0,0,1.5-.43,1.81,1.81,0,0,1,1-.2c.18,0,.14.13.12.21s-.11.11-.19.14c-.3.13-.6.25-.91.36a5.1,5.1,0,0,0-1.46.62s0,.08-.08.12.07,0,.11,0a3.13,3.13,0,0,1,.53,0,2.28,2.28,0,0,0,2-.27,1.48,1.48,0,0,1,.21-.13.8.8,0,0,1,.6-.13c.19,0,.23.15.11.3s-.23.28-.34.43,0,.1.07.19a2.71,2.71,0,0,0,.41,0s.07,0,.11,0a.39.39,0,0,0-.14,0,1.2,1.2,0,0,1-.38-.05.62.62,0,0,1,.77-.18,1.17,1.17,0,0,0,.9-.07c.17-.09.35-.14.52-.23.39-.21.85-.25,1.18-.58.16-.17.39-.13.6-.12,0,0,.08,0,.08.07s.07.35-.14.46a1.29,1.29,0,0,0-.3.22.61.61,0,0,0-.07.1l.12,0a2.75,2.75,0,0,0,.9-.08c.57-.18,1.19-.19,1.76-.43a2.09,2.09,0,0,1,1.11-.19c.06,0,.15.06.15.09s.09.35-.08.49,0,.12-.08.18l.21,0a3.23,3.23,0,0,0,1.76-.23.55.55,0,0,1,.42,0c.08,0,.14.16.2.25a.38.38,0,0,0,.49.17c.33-.17.51,0,.68.21a1.29,1.29,0,0,0,1.07.41c.18,0,.36-.06.54-.08l1-.09s.07-.18.13,0-.06.09-.09.1l-1,.18-.32.08a.52.52,0,0,0-.13.06l.11,0c.39,0,.77,0,1.16-.09a.79.79,0,0,0,.36-.19c.23-.24.55-.16.82-.24,0,0,.07,0,.1.06a.36.36,0,0,1-.1.11l-.43.13s-.06.06-.09.09,0,0,.07,0a1.67,1.67,0,0,1,1.11.51,1.27,1.27,0,0,0,.49.2,5.76,5.76,0,0,0,1.66.19,8.91,8.91,0,0,0,1.65-.31,12.29,12.29,0,0,1,1.8-.22,11.21,11.21,0,0,1,2.52.07,3.48,3.48,0,0,0,.79,0c.26,0,.51.16.77,0a.15.15,0,0,1,.13,0,.75.75,0,0,0,.59,0c.18,0,.41.07.62.07h1.59a.76.76,0,0,0,.26,0A11,11,0,0,1,61,34.9a.85.85,0,0,1,.26.05,2.06,2.06,0,0,1-.26.12,1.21,1.21,0,0,1-.31.09c-.53,0-1.07.09-1.6.08a11.49,11.49,0,0,1-2.62-.08l-.12,0h-.81c-.1,0-.22.08-.28,0a.93.93,0,0,0-.59-.07l-2.78.08a6.54,6.54,0,0,0-.89.09c-.47.1-.93.28-1.4.34a10.2,10.2,0,0,1-2,.08,2.7,2.7,0,0,1-1.35-.46,1.75,1.75,0,0,0-1.42-.39,6.92,6.92,0,0,1-1.2.08,1.59,1.59,0,0,1-.92-.24,1.57,1.57,0,0,0-.88-.21c-.65,0-1.3,0-1.94,0-.15,0-.29,0-.3-.18a1.07,1.07,0,0,1,.31,0c.19.07.32-.12.56,0a5.32,5.32,0,0,0,1.27.13s.07-.05.11-.08-.07-.08-.12-.09L41,34.19c-.2,0-.4-.18-.59-.16a4,4,0,0,0-.83.21s0,.08,0,.13c-.22,0-.44.07-.67.08a2.83,2.83,0,0,1-.4-.08l-.49-.09c-.25,0-.2.26-.35.31a.83.83,0,0,1-.35,0s-.05,0-.07-.06l.27,0h0l.12-.08a.32.32,0,0,0-.1-.1,1.79,1.79,0,0,0-1.38.11c-.61.27-.63.2-.93-.19-.09-.11-.16-.13-.28,0a.83.83,0,0,1-.83.14.74.74,0,0,0-.41,0c-.47.23-1,.25-1.48.48-.25.12-.43,0-.62-.22a.4.4,0,0,0-.49-.17,2,2,0,0,1-.64.15,1.74,1.74,0,0,0-1.09.44.41.41,0,0,1-.23.09,1.79,1.79,0,0,1-.4-.09c-.07,0-.16,0-.17-.1-.07-.27-.27-.25-.47-.25a3.17,3.17,0,0,0-1.06.31c-.05,0-.07.09-.14.13s-.12,0-.13.07a3.93,3.93,0,0,0-.06.48A12.83,12.83,0,0,1,26.4,37s0,.1.08.11a2.16,2.16,0,0,1,.74.34s.13,0,.14,0a.67.67,0,0,0,.07-.35c-.09-.39-.1-.78-.16-1.17a4.63,4.63,0,0,0-.09-.49.6.6,0,0,0-.09-.15c0,.07-.1.16-.07.2a.94.94,0,0,1,0,.82.33.33,0,0,0,0,.24c.29.06,0,.41.26.48,0,.08.18.17,0,.23s-.14,0-.18-.08a1.62,1.62,0,0,1-.27-.34h-.08a.18.18,0,0,1,.08.09l0,.21c-.05,0-.14-.09-.14-.13s.06-.21.06-.32.17-.17,0-.27c.24-.41.07-.87.2-1.3.41-.15.61-.07.66.27s.07.66.09,1c0,.15,0,.3,0,.44a1.08,1.08,0,0,0,.11.4s.19,0,.29,0h.27c.41,0,.41,0,.38-.43,0-.05,0-.11,0-.16,0-.3-.06-.6-.05-.9,0-.11.1-.22.18-.32s.15,0,.15,0a2.35,2.35,0,0,1,.09.53,6.07,6.07,0,0,0,.09,1.2.65.65,0,0,0,.88.55,1.58,1.58,0,0,0,.38-.15c.13-.09.33-.15.17-.42a1.88,1.88,0,0,1-.15-.64.54.54,0,0,1,.05-.21c.05,0,.13,0,.15.07a1.58,1.58,0,0,1,.2.36c.13.33.24.66.37,1a1.33,1.33,0,0,0,.94.88c.21.05.26,0,.34-.15a2.35,2.35,0,0,1,.19-.25.87.87,0,0,1,.2.23c.1.19.21.26.43.18a5.17,5.17,0,0,1,.88-.23.38.38,0,0,1,.26.05c0,.19-.12.09-.2.12l-.5.17c-.12,0-.25,0-.36.1s-.25.14-.24.17a3.11,3.11,0,0,0,.22.53l.11,0a2.56,2.56,0,0,0,1-.7c.13-.15.28-.13.36,0s.29.1.44,0l.39-.22c.27-.14.33-.11.34.19s0,.36.39.23a8.53,8.53,0,0,0,.84-.32c.19-.1.22,0,.27.14a.54.54,0,0,1,0,.18c0,.27.07.33.33.23.49-.19,1-.27,1.51-.41a1,1,0,0,1,.37,0c0,.15.07.32-.1.44l-.06.06-.08.13.12,0a4.5,4.5,0,0,0,1.08-.27,7,7,0,0,1,.77-.16c.32,0,.32,0,.39.34,0,.06,0,.17.06.17a3.49,3.49,0,0,0,.71.07c.27,0,.54-.1.82-.15s.87-.09,1.29-.2a3.62,3.62,0,0,1,1-.15l1.2.09a6.38,6.38,0,0,1,1,.09,8.69,8.69,0,0,0,1.61.15,3.69,3.69,0,0,0,1.55-.06s.11.06.17.1l-.15.07a4.26,4.26,0,0,1-1.66.16,14.27,14.27,0,0,0-1.46-.07H48a14.19,14.19,0,0,0-1.83-.19c-.59,0-1.15.18-1.74.19a4.85,4.85,0,0,0-.63.16,4.11,4.11,0,0,1-1.47.19c-.17,0-.35-.11-.49-.07a7,7,0,0,1-1.51.07.23.23,0,0,1-.16-.09.75.75,0,0,0,.26,0c.31-.19.65-.06,1-.07.08,0,.18.11.3,0,0-.09-.14-.18-.15-.27s-.1-.14-.2-.14a5.15,5.15,0,0,0-1.16.27s0,.11-.11.17c-.27,0-.54.06-.8.07a6.8,6.8,0,0,1-1.91-.06.76.76,0,0,0-.3,0,1.54,1.54,0,0,1-.63.06,3.35,3.35,0,0,0-.89-.07c-.35,0-.71,0-1.06,0s-.65-.12-1,.08c-.06,0-.19,0-.28,0s-.2,0-.29,0a15.91,15.91,0,0,1-2.58-.18,4.18,4.18,0,0,1-.71-.09,2.52,2.52,0,0,0-1.25,0c-.13,0-.34,0-.4-.07s-.41-.19-.64-.19-.4.07-.32.37A1.82,1.82,0,0,0,28.18,41a2.48,2.48,0,0,1,.87.48,2.92,2.92,0,0,0,.72.48c.43.21.88.36,1.32.54A4.72,4.72,0,0,0,33.3,43a4.69,4.69,0,0,1,1,.08,1.79,1.79,0,0,1,.62.1,5,5,0,0,0,1.26.36,8.88,8.88,0,0,0,1.53.25,2.32,2.32,0,0,1,.46.06c.36.06.71.16,1.07.19.56.06,1.12.07,1.68.1l.21,0,.19,0c0-.06,0-.14-.07-.18s-.16-.21-.26-.23c-.38-.08-.77-.13-1.16-.18s-.62,0-.93-.1-.9-.17-1.35-.26a7,7,0,0,1-.76-.18c-.1,0-.19-.13,0-.25s.17-.14.29,0a.67.67,0,0,0,.26.1,12.59,12.59,0,0,0,2.28.36c.18,0,.36.07.54.08s.26.23.41,0a3.53,3.53,0,0,1-.32-.21s-.06-.1-.09-.15.16-.09.21-.06a3.07,3.07,0,0,1,.46.27,2.12,2.12,0,0,0,.72.4c1.1.31,2.19.68,3.31,1a5.69,5.69,0,0,0,1.55.21c1.16,0,2.33,0,3.49,0a1.36,1.36,0,0,1,.35,0,12.14,12.14,0,0,0,1.17.36c.28.07.54.24.88.08a.64.64,0,0,1,.79.33.29.29,0,0,0,.34.18l.54-.08c.32-.06.63-.1.94-.18s.56-.22.85-.31a1.18,1.18,0,0,1,.42,0,.27.27,0,0,1,.22.36c-.07.15,0,.18.12.17s.48,0,.71-.09.71-.2,1.07-.3l1.1-.32a.31.31,0,0,1,.36.19s-.09.17-.16.24a.74.74,0,0,1-.22.1l-.8.31s-.06.06-.09.09.11,0,.16,0c.79-.22,1.54-.54,2.3-.83.46-.17.9-.38,1.36-.55.1,0,.27-.13.32.06a.26.26,0,0,1-.16.35l-.41.18-1.28.53s-.06.08-.08.12.1.06.13,0a8.16,8.16,0,0,0,1.11-.41,18.72,18.72,0,0,0,2.22-1.05c.13-.08.42,0,.47.07s-.06.26-.19.38a3.54,3.54,0,0,1-.86.4c-.53.26-1.09.49-1.63.74,0,0-.06.08-.09.13l.13,0a1.41,1.41,0,0,0,.85-.17l2.5-1.33c.5-.27,1-.52,1.51-.83.22-.14.25.06.34.13s0,.18-.08.24a1.48,1.48,0,0,1-.21.13l-.81.51a.48.48,0,0,0-.09.14.35.35,0,0,1,.13,0c.32,0,.52-.24.78-.37A4.73,4.73,0,0,0,68,44a1.64,1.64,0,0,1,.63-.28.78.78,0,0,1,.29,0,1.65,1.65,0,0,1-.06.32.38.38,0,0,1-.15.16,13.07,13.07,0,0,1-1.49.76,5,5,0,0,0-.93.53c-.11.06-.16.2-.24.3a2.61,2.61,0,0,1,.28-.17c.07,0,.15-.05.23-.09.47-.23,1-.46,1.42-.71a2.58,2.58,0,0,1,.37-.19,7.45,7.45,0,0,0,.83-.45c.6-.35,1.23-.67,1.81-1,.21-.13.25,0,.35.09s0,.2-.07.27a.64.64,0,0,1-.19.18,15.84,15.84,0,0,0-1.76,1,10.54,10.54,0,0,0-1.18.67c-.12.08-.4.08-.35.36l.53-.15h0a2.57,2.57,0,0,1,.79-.45c.33-.16.63-.39,1-.58l1.49-.87,1.28-.74c.2-.11.36-.1.46.07s.09.12.21,0c.31-.19.64-.37,1-.53.18-.09.45,0,.46.16a.39.39,0,0,1-.18.33c-.45.21-.77.58-1.21.81a17.43,17.43,0,0,0-1.57,1,.73.73,0,0,0-.08.09s.12,0,.15,0c.49-.3,1-.62,1.48-.91.7-.38,1.29-.91,2-1.3.51-.28,1-.58,1.5-.87.1-.06.19-.17.29,0s.13.29,0,.41-.41.28-.61.44A15.76,15.76,0,0,1,74.92,44c-.19.11-.34.29-.55.43a.16.16,0,0,1-.08.09,1.58,1.58,0,0,1-.27.18,1.46,1.46,0,0,1-.26.17V45a.19.19,0,0,1,.09-.09M25,34.37l.18-.09.2-.16a1.18,1.18,0,0,0-.27.06c-.06,0-.1.12-.2.19l-.11,0,0,.06.18-.08m84-.44-.44.27s0,0,0,.06.06,0,.07,0a3.72,3.72,0,0,1,.48-.35v-.09a.22.22,0,0,1-.1.09m-1.76.53.48-.09s.06,0,.09-.07-.06-.1-.1-.1a.56.56,0,0,0-.56.26v.08a.14.14,0,0,1,.1-.08m-8.13,2.91a.68.68,0,0,0,.6-.24.36.36,0,0,0,0-.09s-.06,0-.07,0c-.17.17-.49.09-.65.35v.08a.18.18,0,0,1,.09-.08M18.62,32.2c.13.1.11.19,0,.28a.73.73,0,0,0-.08.09l.12,0,.74-.09a.19.19,0,0,0,.1,0l-.12,0a6.07,6.07,0,0,1-.76-.31,3.93,3.93,0,0,0-.6-.33.58.58,0,0,0-.45,0c-.09.06.1.31.31.36a1.62,1.62,0,0,0,.22,0,2.28,2.28,0,0,1,.52,0m8.7,6.23c.13-.16,0-.26-.1-.36s-.18-.09-.3,0a2.32,2.32,0,0,1-.46.06l-.33,0a1.74,1.74,0,0,0,.36.3c.09,0,.23,0,.34,0s.33.29.49,0m84.84-6.8c-.48.31-1,.61-1.45.93a3.3,3.3,0,0,0-.93.75l-.22.2v0l.22-.17s0-.05.07-.07H110a13,13,0,0,1,1.42-1c.29-.17.68-.29.88-.67v-.08s0,.05-.09.08m-.75-9.31a3.06,3.06,0,0,0-.43-.13s-.11.07-.17.11a.44.44,0,0,0,.16.06,1.65,1.65,0,0,1,.44.05,2,2,0,0,0,.25.13c.54.18.62.3.64.82,0,.11-.13.28.09.31,0,0,0-.18.08-.28a.83.83,0,0,0-.18-.82c-.26-.27-.57-.2-.88-.25M112.6,27a.42.42,0,0,0,.12,0L114,26c.25-.18.49-.37.73-.56,0,0,0-.1.06-.15l-.12.05h-.09l-1.44,1.09c-.19.15-.37.33-.6.5l-.13.1,0,.07.12-.1s0,0,.07-.07m-.4-5.07s-.07-.06-.09-.1c-.11-.22-.26,0-.39,0l0,.05a2.14,2.14,0,0,0,.27.09.73.73,0,0,1,.24.07c.38.31.79.58.82,1.16,0,.1.24.21.39.28a.49.49,0,0,0,.2-.25,3.31,3.31,0,0,0-.09-.77c-.06-.25-.43-.53-.59-.45a.79.79,0,0,1-.73-.05m-7.63,8.43a.72.72,0,0,0,.47-.13c.55-.28,1.11-.54,1.64-.84s1.12-.7,1.67-1.06a.92.92,0,0,0,.22-.22s0-.07,0-.11l-.09,0-1.64.93c-.45.26-.92.49-1.35.78s-.73.27-1,.61h-.13l-.08.05s0,0,.06,0l.24-.08M75.92,2h.26L76,2s0,0,0-.05a14.81,14.81,0,0,0-1.5-.33c-.58-.11-1.16-.16-1.74-.22s-1.16-.11-1.74-.18a20.9,20.9,0,0,0-2.24,0s-.07,0-.11.05,0,0,.08,0c.22,0,.44.07.66.09.7,0,1.39,0,2.08.1a1.48,1.48,0,0,0,.63,0,.54.54,0,0,1,.22,0c.31.06.63.13.94.17s.74.06,1.11.09a5.38,5.38,0,0,1,.7.12,7,7,0,0,0,.91.19M98.56,36.75a.42.42,0,0,0,.12,0l1.93-1.22,1.4-.87,1.8-1.09a6.58,6.58,0,0,1,.67-.4c.08,0,.2,0,.29,0a1.86,1.86,0,0,1,0,.33s-.06.06-.08.09c-.18.31-.56.29-.82.5a5.9,5.9,0,0,1-.89.51c-.64.34-1.26.72-1.89,1.09s-1.16.68-1.73,1a1.07,1.07,0,0,0-.19.18.36.36,0,0,0-.07.1.37.37,0,0,0,.15,0l1.3-.59a2.55,2.55,0,0,0,.39-.13c.2-.12.39-.26.58-.4s.33-.36.53-.42a4.86,4.86,0,0,0,1.3-.72c.5-.32,1-.64,1.49-1a7.18,7.18,0,0,1,.91-.68,6.58,6.58,0,0,0,1.25-.82,2,2,0,0,1,.61-.34c.07,0,.22,0,.29.12s0,.19-.07.25a.73.73,0,0,1-.57.33.52.52,0,0,0-.19.08c-.27.16-.55.29-.81.47-.78.53-1.6,1-2.37,1.54s-1.79,1.14-2.69,1.7a1.71,1.71,0,0,0-.25.22s0,.06,0,.09h.1a6.05,6.05,0,0,1,1.23-.66,10.28,10.28,0,0,0,1.31-.78c.87-.51,1.71-1.09,2.63-1.53a6.89,6.89,0,0,0,.73-.46c.43-.26.86-.5,1.28-.76s.68-.47,1-.67c.18-.1.37-.27.61-.21a.91.91,0,0,1,.22.11l-.11.16a5.85,5.85,0,0,1-1.69,1c-.34.2-.71.36-1.05.56l-1.21.7c-.41.24-.82.49-1.25.7a9.88,9.88,0,0,0-1,.56A5.77,5.77,0,0,0,103,36a.75.75,0,0,1-.13.06s.12,0,.15,0a3.26,3.26,0,0,1,.91-.26.88.88,0,0,0,.28-.17,2.65,2.65,0,0,1,.7-.46,5,5,0,0,0,1.39-.78.26.26,0,0,1,.18-.09c.3,0,.49-.2.7-.33.64-.39,1.25-.84,1.86-1.26.43-.29.84-.61,1.28-.88s.86-.47,1.3-.68c.19-.1.42-.12.62-.21s.45-.27.68-.39a3.33,3.33,0,0,0,.92-.65.69.69,0,0,1,.34-.25,2.71,2.71,0,0,0,1-.46c.19-.11.23-.28.16-.4a4.4,4.4,0,0,1-.25-1.13c-.06-.28-.27-.38-.53-.2-.09.06-.16.17-.26.21-.38.17-.75.32-1.13.47a3,3,0,0,1-.74.23,2.11,2.11,0,0,0-1.11.41.5.5,0,0,1-.58,0c-.12,0-.34-.11-.38-.06a.59.59,0,0,1-.61.13c-.33,0-.51.2-.75.34-.06,0,0,.21-.19.15s-.27,0-.36-.11a.48.48,0,0,0-.62,0c-.47.26-.9.59-1.39.8-.23.1-.49.48-.81.12,0,0-.08,0-.12,0-.24.09-.49.18-.72.28a4.33,4.33,0,0,0-1,.48.88.88,0,0,1-.94.11l-.23-.08-.25-.13c.05-.09.08-.2.16-.24.41-.27.84-.52,1.26-.78a2.14,2.14,0,0,0,.32-.2s0-.07,0-.11l-.09,0a6.22,6.22,0,0,0-1.25.58c-.37.27-.86.28-1.16.66-.09.12-.4,0-.49-.12s0-.2.14-.3l.06-.06s0-.07,0-.1-.06,0-.08,0l-.28.07c-.69.18-1.31.55-2,.7a8.32,8.32,0,0,0-2.2.86.36.36,0,0,1-.15,0c0-.06,0-.15.05-.17a3.08,3.08,0,0,1,.77-.5,18.42,18.42,0,0,1,1.81-.63,4.37,4.37,0,0,0,.7-.22l2.26-.94c.29-.12.36-.1.38.2s.13.19.26.14c.74-.3,1.48-.62,2.23-.9a4.49,4.49,0,0,1,.83-.13c.12.37.38.08.47,0,.83-.46,1.64-1,2.45-1.45a.42.42,0,0,1,.54,0,.23.23,0,0,0,.21,0l1.29-.93c.17-.12.34-.26.58-.11a.31.31,0,0,0,.39-.06,12.42,12.42,0,0,1,1.05-.87c.24-.16.5-.47.81-.35s.53,0,.73-.23a2,2,0,0,1,.18-.23,1.63,1.63,0,0,1,.4-.24s.13.16.18.26.1.21.25.08a2.47,2.47,0,0,0,.28-.28c.17-.22.34-.44.5-.68s.2,0,.31,0c0,.19.18.31,0,.55a3.23,3.23,0,0,1-.48.72c-.32.32-.67.6-1,.93-.11.11-.41.12-.31.3s.26-.11.42-.14.11-.08.16-.13a5.74,5.74,0,0,1,.53-.32,3.21,3.21,0,0,0,1.15-.92,1.1,1.1,0,0,1,.22-.21,6.2,6.2,0,0,0,1.57-1.22c.13-.16.36-.3.4-.48a1.33,1.33,0,0,0,0-.88,1.57,1.57,0,0,1-.12-.65c0-.23-.06-.41-.28-.48s-.23-.32-.16-.49a.59.59,0,0,0-.08-.7,7,7,0,0,1-1.07-1.41l-.06,0s0,.1,0,.12c.25.26.26.62.4.94a.61.61,0,0,0,.09.18,1.41,1.41,0,0,1,.29,1.2c0,.1-.11.27-.18.27s-.24.15-.26.33-.1.23-.24.1a1.07,1.07,0,0,1-.16-.14,1.52,1.52,0,0,0,0,.21c0,.05,0,.12,0,.17s0,.21-.06.22a.49.49,0,0,1-.29,0,.36.36,0,0,1-.15-.15c-.27-.32-.52-.64-.79-.95a.31.31,0,0,0-.09-.07s0,.09,0,.12a3.33,3.33,0,0,1,.16,1.47.23.23,0,0,1-.08.16c-.18.06-.17.19-.18.34,0,.39-.21.5-.49.25s-.46-.11-.7-.14c0,0-.08.05-.12,0-.35,0-.38,0-.45.31a2.17,2.17,0,0,1,0,.25c-.15.4-.29.45-.68.28h0c-.17-.18-.25,0-.3.1-.15.49-.17.51-.61.3-.13,0-.15-.07-.19.09a.54.54,0,0,1-.61.38.6.6,0,0,0-.56.19.58.58,0,0,1-.7.12.44.44,0,0,0-.27.05,2.53,2.53,0,0,0-.49.31.68.68,0,0,1-.89,0,.47.47,0,0,0-.5,0,1.08,1.08,0,0,1-.9,0,.61.61,0,0,0-.51.1,1.38,1.38,0,0,1-.93.33,1.08,1.08,0,0,0-.57.11c-.24.15-.41,0-.57-.08s-.25-.18-.41,0a.42.42,0,0,1-.27.09,6.37,6.37,0,0,0-2.15.77,10.53,10.53,0,0,0-2.08,1.27,1.73,1.73,0,0,0-.68.82,2.06,2.06,0,0,1-.65,1c-.56.45-1,1-1.63,1.42a3.17,3.17,0,0,1-1.25.68.76.76,0,0,0-.46.36,1.35,1.35,0,0,1-.66.55c-.29.18-.3.17-.14.49a1.43,1.43,0,0,1,.16,1.16,3,3,0,0,0-.23.61,1.08,1.08,0,0,1-.42.67l0,0a2,2,0,0,1-1.12.89l-.69.26c-.18.08-.21.15-.1.31s.3.41.45.6c0,0,.14,0,.17,0l1-.77a7,7,0,0,1,.81-.62c.11-.07.29,0,.44,0s.12,0,0,.15a4,4,0,0,0-.32.57,2.07,2.07,0,0,0-.15.34s0,.08,0,.12l.06,0c.22-.15.42-.33.65-.46s.46-.47.82-.48c.08,0,.17-.09.24-.15.37-.28.74-.57,1.11-.84a5.34,5.34,0,0,1,1.19-.76,2.7,2.7,0,0,1,.41-.08s.09.09.08.11c-.09.17-.16.41-.3.48A10.18,10.18,0,0,0,97,36.31a3,3,0,0,0-.47.47.14.14,0,0,0,0,.11.11.11,0,0,0,.12,0c.22-.12.45-.26.67-.4l1.13-.68c.37-.21.75-.39,1.12-.6s.46-.37.71-.41.56-.34.86-.47c.48-.22.9-.54,1.36-.79a.8.8,0,0,1,.44-.06c.06,0,.2.14.07.23-.32.24-.6.56-1,.55-.07,0-.15.06-.22.11s-.35.28-.54.41l-1.11.71c-.32.23-.64.46-1,.7s-.39.36-.63.53v.08a.24.24,0,0,1,.09-.08M85.67,43.11a4.49,4.49,0,0,1,.7-.34,9.82,9.82,0,0,0,1.72-.85.43.43,0,0,0,.1-.09s-.11-.06-.15,0a11.83,11.83,0,0,0-1.55.54c-.6.28-1.16.67-1.74,1-.31.17-.66.28-1,.45s-.32-.18-.51,0-.34.1-.52.11-.37.11-.22-.2c-.05,0-.1-.06-.14-.05s-.3.14-.45.18a2.59,2.59,0,0,1-.48,0,7.35,7.35,0,0,0-1.39.39l-1.81.53s-.09.09-.13.14a.51.51,0,0,0,.17,0c.43-.08.86-.19,1.3-.26a5.27,5.27,0,0,0,1.28-.2A14.26,14.26,0,0,1,83.46,44a4.33,4.33,0,0,0,1-.26l.69-.36c.16-.08.32-.14.52-.26M95,37.86c0-.08,0-.19.07-.22.2-.13.38-.24.38-.52,0-.06.14-.18.23-.18a.83.83,0,0,0,.51-.27c.08-.08.19-.12.27-.19s.25-.27.38-.41c-.21,0-.34.15-.49.26s0,0-.06.06a2.67,2.67,0,0,1-.66.43.77.77,0,0,0-.43.32.69.69,0,0,1-.4.33A4.08,4.08,0,0,0,94,38c-.28.2-.52.24-.68,0s-.19-.08-.29,0l-.1,0s0-.08,0-.12a.5.5,0,0,1,0-.13s-.09,0-.11,0c-.22.24-.52.4-.56.78A1.82,1.82,0,0,1,92,39l.5-.17a5.44,5.44,0,0,0,.79-.32.62.62,0,0,1,.39-.12,1.28,1.28,0,0,0,.56,0,4.77,4.77,0,0,1,.92-.23.6.6,0,0,0,.16-.08L95.19,38a.31.31,0,0,1-.2-.13M16.33,34.41c0-.26.08-.56-.22-.75a.2.2,0,0,1,0-.17c0-.07.13-.12.18-.19a.37.37,0,0,0,0-.15c-.05,0-.12,0-.15,0a.57.57,0,0,1-.57.22.19.19,0,0,0-.13.1,7.21,7.21,0,0,0-.09,1.67c0,.09.08.17.13.26.16-.2.22,0,.34.06a.35.35,0,0,0,.5-.33v-.75m7.41.53c-.09.42-.18.84-.26,1.26a.44.44,0,0,0,.32.56c.2.08.49.17.54.32.14.42.51.69.64,1.1a.25.25,0,0,0,.31.16c.14,0,.27-.06.41-.09s0-.08,0-.1-.15-.22-.24-.23a.44.44,0,0,1-.41-.31.29.29,0,0,0-.14-.15c-.44-.18-.48-.6-.55-1a13.36,13.36,0,0,1-.1-1.42c0-.06-.07-.12-.1-.18a.88.88,0,0,1,0,.16c0,.1-.1.2-.14.3l-.05.07s0,0,0-.07A2.93,2.93,0,0,0,24,35c0-.08-.09-.15-.13-.23a.53.53,0,0,0-.12.22m-6.4-1.45a.42.42,0,0,0-.48.39,5.4,5.4,0,0,0-.09.58,2.54,2.54,0,0,1,0,.39,1.67,1.67,0,0,0,.1.81c0,.09.09.21.17.23s.34.08.43,0a.46.46,0,0,0,.09-.42c-.19-.47,0-1-.16-1.43a.39.39,0,0,1,0-.26c0-.08.12-.21.17-.21.39.07.58-.29.89-.41,0,0,.05-.06.08-.09s-.09,0-.12,0l-1,.36-.08.08M32.13,27c-.41-.17-.81-.3-1.17.1a.42.42,0,0,1-.22.11,3.26,3.26,0,0,0-1,.51,3.7,3.7,0,0,1-1.09.66c-.05,0-.08.08-.11.12s.15.06.2,0L30,28a2.62,2.62,0,0,1,.45-.21,1.65,1.65,0,0,0,.74-.44,2.08,2.08,0,0,1,.4-.32.2.2,0,0,1,.32.08c0,.1.09.22-.1.34a4.7,4.7,0,0,0-.75.73s0,.12.05.13a.2.2,0,0,0,.17,0l.79-.43c.1-.07.24-.16.25-.25s-.06-.26-.11-.39a.58.58,0,0,0-.1-.19M19.68,34a1.78,1.78,0,0,0-.43.23,2.43,2.43,0,0,0-.53.58,3.31,3.31,0,0,0-.19.72.67.67,0,0,0,.51.83c.3.1.35.06.38-.26a4.24,4.24,0,0,1,.12-.88c0-.11,0-.16,0-.25-.21-.28-.19-.31,0-.58a3.2,3.2,0,0,0,.3-.45s0,0-.06,0,0,0-.11.1m-.75,2.69a2.62,2.62,0,0,1-.48-.22c-.37-.27-.26-.72-.35-1.09,0-.14.06-.3.08-.46s0-.38,0-.57a.8.8,0,0,1,.05-.21.72.72,0,0,0-.21.12.49.49,0,0,0-.1.26,4.28,4.28,0,0,0,0,.62A6.54,6.54,0,0,0,18,36c.06.25.16.55.41.64a1.73,1.73,0,0,1,.39.25,1,1,0,0,0,.25.12,6.62,6.62,0,0,1,1.16.4,5.06,5.06,0,0,0,.9.38.29.29,0,0,0,.23,0c.08-.08-.14-.54-.26-.56A3,3,0,0,0,20,37a.32.32,0,0,1-.25-.1c-.18-.26-.43-.27-.79-.25M50.1,45.32l-.81-.09c-.2,0-.43.07-.62-.09a.25.25,0,0,0-.17,0,6.28,6.28,0,0,1-1.73.07,5,5,0,0,1-.94-.17L45.25,45l-.13,0a.58.58,0,0,0,.1.12s.05,0,.07,0c.49.09,1,.19,1.48.26s1.07.14,1.6.18l1.82.09a1.53,1.53,0,0,1,.76.08.61.61,0,0,0,.3,0l.12,0s-.07-.1-.11-.12a1,1,0,0,0-.17,0c-.3-.09-.61-.18-1-.26M27.49,27.92a7.16,7.16,0,0,0-1.16.82s0,.1-.08.15.14,0,.18,0c.46-.3,1-.42,1.47-.7a1.86,1.86,0,0,1,.56-.25,2.07,2.07,0,0,0,.76-.41c.25-.17.5-.35.76-.5a2.12,2.12,0,0,1,.36-.1s.07-.08.1-.12-.08,0-.12,0l-.49.08c-.27,0-.58-.11-.73.25,0,0,0,0,0,0a8.55,8.55,0,0,0-1.57.79M71.11,2.59l1.64.09c.16,0,.33.07.49.08.44,0,.89.06,1.33.09,0,0,.07,0,.11-.05l-.12,0A1,1,0,0,1,74,2.43a.35.35,0,0,0-.26-.1c-1.56,0-3.13-.11-4.69.08l-.14,0,.12,0,2.13.09m2.56.88a20.54,20.54,0,0,0-2.83.09.53.53,0,0,0-.12,0,.34.34,0,0,0,.14.05,7.06,7.06,0,0,0,.92,0c.28,0,.54.06.82,0a4.34,4.34,0,0,1,.88.06c.71,0,1.42,0,2.13.07a8.65,8.65,0,0,0,1.6-.07.45.45,0,0,0,.11,0l-.14-.05a6.74,6.74,0,0,0-1.61-.18c-.61,0-1.21,0-1.9,0m5.21,1.41a.67.67,0,0,0-.57,0s-.06.06-.09.09a.24.24,0,0,0,.1,0c.43,0,.86.06,1.29.07,1.33,0,2.67,0,4,0a.75.75,0,0,0,.16,0A.84.84,0,0,0,83.63,5a1.29,1.29,0,0,0-.28-.08c-.29,0-.6.06-.86-.16a.3.3,0,0,0-.29,0,1.53,1.53,0,0,1-.76.08H79.28a4,4,0,0,0-.4.08M96.4,37.41l-.77.58-.11,0s.08,0,.12,0l.68-.14a1,1,0,0,0,.53-.24c.28-.24.54-.5.83-.73a7.78,7.78,0,0,1,1.47-1l.07,0a.24.24,0,0,0-.1-.05.49.49,0,0,0-.21,0,4.72,4.72,0,0,0-.82.47,12.77,12.77,0,0,1-1.69,1.06m12-14a.57.57,0,0,0-.39.11,3.06,3.06,0,0,1-.65.33c-.11.05-.23.09-.34.15s0,.08,0,.12c.37.07.2.36.21.56s0,.26.24.23.15,0,.22,0c.37,0,.51-.24.41-.6a2.41,2.41,0,0,1-.07-.37c0-.12,0-.18.16-.18s.38-.09.24-.35M27.85,38.34c.13.46.13.44.54.45.18,0,.23,0,.21-.22s0-.09.06-.14a.45.45,0,0,1,.11.13.56.56,0,0,0,.61.4l.26,0c0-.08,0-.17-.07-.26s-.11-.37-.18-.54-.48-.47-.66-.4a1,1,0,0,1-1.11-.14s-.07,0-.08,0-.06.09,0,.12a6.08,6.08,0,0,0,.35.62M111.72,24a1.06,1.06,0,0,0,.14-.61.34.34,0,0,0-.26-.35,3.31,3.31,0,0,0-.63-.1c-.13,0-.33,0-.39-.1-.24-.32-.49-.09-.73-.05,0,0-.07.07-.11.12a.53.53,0,0,0,.12,0,2.83,2.83,0,0,1,.81.15.78.78,0,0,1,.6.56c0,.11,0,.25.06.37a1.49,1.49,0,0,0,.13.25l.26-.27M22.37,38a2.52,2.52,0,0,0,.54.08.64.64,0,0,0,.35-.19s-.08-.2-.15-.29-.22-.29-.33-.44-.26-.2-.43,0a.71.71,0,0,1-.28.16c-.12,0-.24,0-.36.07a1.31,1.31,0,0,1,.17.36c.06.29.32.13.49.28m84.36-13.38c.09-.09.2-.2,0-.21a1.19,1.19,0,0,0-.78.13,3.81,3.81,0,0,1-.85.38.26.26,0,0,0-.18.37s.21,0,.32,0a.71.71,0,0,0,.24-.06,3.41,3.41,0,0,0,1.28-.66M23,28.28l-.31.31a.15.15,0,0,0,0,.09s.06,0,.09,0c.64-.32,1.28-.65,1.94-.95a2.63,2.63,0,0,0,.61-.34,7.19,7.19,0,0,1,.78-.54l.1-.09a.44.44,0,0,0-.15,0c-.26,0-.57-.09-.59.34,0,0,0,.07-.09.09a3.26,3.26,0,0,1-.88.43,3.71,3.71,0,0,0-1.51.73M86.12,34.9s.09-.09.14-.09a3,3,0,0,0,1.31-.44s.06-.08.09-.11-.1-.07-.14-.06a5,5,0,0,0-.65.22c-.17.06-.39.24-.48.19-.3-.17-.5.06-.73.13a2.67,2.67,0,0,1-1,.24,4.14,4.14,0,0,0-1.42.41s0,.06-.07.09.08,0,.11,0a3.69,3.69,0,0,1,.42-.17L85.58,35l.54-.09m-64.32.57c0,.19,0,.41,0,.55-.21.36.21.57.15.88l.11,0c.25,0,.41-.15.3-.38a1.12,1.12,0,0,1-.08-.5c0-.35,0-.7,0-1.06a3.25,3.25,0,0,0-.12-.52c-.05.16-.1.32-.14.48a4.07,4.07,0,0,1-.18.52m-7.37.22h.13l.17.05c0-.07-.06-.16-.11-.2s-.14,0-.21,0a.91.91,0,0,1-.82-1,2.14,2.14,0,0,0,0-.44,2.9,2.9,0,0,0-.14-.48c-.1.16-.2.32-.29.49a.35.35,0,0,0-.07.23c.05.25,0,.59.2.73a2.5,2.5,0,0,0,1.15.65m3.71,1.15,0,0s0,0,0,0-.26-.13-.29-.22a.53.53,0,0,0-.74-.32.45.45,0,0,1-.58-.21.4.4,0,0,0-.47-.25,2.17,2.17,0,0,0-.44,0c0,.24.22.14.33.2.39.22.84.34,1.21.58s.6.06,1,.23m8.07-.93a1.42,1.42,0,0,0,.06-.91,0,0,0,0,0,0,0s-.1,0-.11,0-.1.18-.07.23c.21.39,0,.76,0,1.14a.44.44,0,0,1-.29.42s-.13,0-.08-.1c.1-.34.15-.7.22-1s-.07-.41.09-.59c0,0,0-.09,0-.1a.11.11,0,0,0-.12,0s-.11.12-.1.17c.07.52-.22,1-.24,1.49a1,1,0,0,0,.1.33l.27-.08c.41-.14.37-.51.39-.93M26,27.75l.85-.62a3.88,3.88,0,0,0,.31-.26,3,3,0,0,0-.42.14c-.69.42-1.38.84-2.07,1.28a1.74,1.74,0,0,0-.29.31c.17,0,.27-.1.4-.15a3.64,3.64,0,0,0,.47-.14,7.64,7.64,0,0,0,.75-.56m-11.69,6s0-.07,0-.08c.18-.18.08-.39.07-.58s.19-.37.26-.56c0,0-.05-.06-.08,0a.57.57,0,0,0-.43.4c0,.54-.07,1.07-.08,1.6a1.71,1.71,0,0,0,.1.53c0,.05.11.07.17.11s.07-.11.07-.17c0-.37-.06-.74-.08-1.2m.13-2.16c-.15.12-.28.24-.43.34s-.4.2-.57.32-.2.24-.18.26,0,.34.07.5a1.24,1.24,0,0,1,0,.16s.1-.06.12-.11a5.07,5.07,0,0,1,1.27-1.38.74.74,0,0,0,.08-.13s-.08-.05-.11,0a.64.64,0,0,0-.29.08m95.65-7.9a4.21,4.21,0,0,1,.09.49c0,.14,0,.31.17.34a.34.34,0,0,0,.4-.26c.2-.65.08-.81-.56-.88-.26,0-.26,0-.1.31M22.68,35.56a4.69,4.69,0,0,1,0,.53c0,.18.08.27.19.36s.14,0,.17-.07a5.13,5.13,0,0,0,.26-1.65l0-.26a1.13,1.13,0,0,1-.15.21,1.38,1.38,0,0,0-.44.88m-10.9-3.49c-.3-.1-.32-.11-.41.16a3.32,3.32,0,0,0-.16.76c0,.17.24.34.42.32s.2-.17.2-.32,0-.58-.05-.92m9.62,2.39c-.15.33-.29.67-.47,1a.49.49,0,0,0,.1.67,1.65,1.65,0,0,1,.19.27l.09.1a.61.61,0,0,0,.05-.12c0-.47.05-.94.09-1.41,0-.17.06-.33.08-.5,0,0-.05,0-.13,0m95-14.53c-.12-.15-.26-.3-.37-.46s-.17,0-.25,0-.12.24,0,.37a4.65,4.65,0,0,1,.8,1c.05.07.08.14.13.21a.31.31,0,0,0,.09.07s0-.08,0-.11a2.51,2.51,0,0,0-.44-1.07M12.57,34.28a1,1,0,0,0,.14-.52c0-.29.07-.58.11-.87l0-.27c-.07.06-.17.11-.21.19a3.58,3.58,0,0,0-.11.35,3.37,3.37,0,0,1-.19.32s-.07.06-.07.09c0,.26,0,.53,0,.79,0,0,.06.08.1.09s.18,0,.2-.17M115.43,21.13l.06.06s.07-.08.06-.1c-.1-.26-.23-.52-.32-.78s-.1-.18-.25-.08a4,4,0,0,1-.59.28l-.15,0c0,.05.08.12.12.12.4,0,.68.29,1.07.46M81.08,4.44l.13-.13-.14,0a13.93,13.93,0,0,1-2.14-.08.35.35,0,0,0-.35.1c-.08.09-.22.11-.33.16l-.12,0c.05,0,.1,0,.14,0,.45,0,.89,0,1.33-.08.24,0,.49.08.71-.09.22.14.48-.15.77.09m28.56,20c0-.08,0-.17,0-.22.17-.25,0-.36-.19-.44a1.37,1.37,0,0,0-.4-.09s-.08,0-.12,0l.09.1c.08.08.22.14.25.24a.65.65,0,0,1,0,.41,1.8,1.8,0,0,1-.32.36.61.61,0,0,0-.07.14s.08,0,.11,0a.84.84,0,0,0,.31-.12,1.46,1.46,0,0,0,.37-.45M38.18,39.67c.07,0,.16,0,.21,0,.21.14.45.07.67.08s.15,0,.06-.12,0-.2,0-.3-.09-.23-.26-.16l-1.05.41-.1.05s.06.09.09.08.2,0,.39,0m-13.25-3a2.22,2.22,0,0,0,.31-1.4s0-.06,0-.08-.06,0-.06.07a3.24,3.24,0,0,0-.09.4c0,.13,0,.26,0,.38s-.06.07-.09.1-.05-.07-.05-.1c0-.2-.07-.38,0-.59a1,1,0,0,0,0-.43s-.08-.07-.12-.1a.56.56,0,0,0,0,.12c0,.35,0,.7,0,1a.71.71,0,0,0,.22.58M36,33.79l-.17.14S36,34,36,34l.58-.08c.31-.06.63-.1.94-.19.1,0,.32,0,.25-.25s-.17-.05-.29,0a8.11,8.11,0,0,1-1.47.33m-8.52-6.4a1.87,1.87,0,0,0,.77-.5.7.7,0,0,0,.06-.09c-.06,0-.12,0-.15,0l-1.61,1-.53.32a.31.31,0,0,0-.07.09s.05,0,.07,0a1.81,1.81,0,0,0,.54-.18,8.64,8.64,0,0,0,.92-.7m3,11.22a1.36,1.36,0,0,0,0-.3,1.82,1.82,0,0,0-.31-.31s-.18-.09-.2-.07a.43.43,0,0,0-.11.25,4.1,4.1,0,0,0,.19.66c0,.08.14.13.21.2l.12-.21a1.8,1.8,0,0,1,.14-.22m82.28-12.54-1.25.9c-.23.16-.45.32-.67.5,0,0,0,.09-.07.14a.67.67,0,0,0,.15-.06c.73-.4,1.34-1,2-1.42a.76.76,0,0,0,.17-.22l-.3.08-.07.08m-89,1.32c0-.05.1-.18,0-.13a8.92,8.92,0,0,1-.86.47,7.65,7.65,0,0,0-.93.52s0,.06-.05.09a.11.11,0,0,0,.08,0,2.93,2.93,0,0,0,.78-.23c.33-.21.62-.49,1-.74M15,33.18a.89.89,0,0,1,.23-.3c.11-.07.25-.07.19-.25a1,1,0,0,0-.27.14c-.12.1-.31.15-.24.38,0,.05-.05.12-.07.19a3.54,3.54,0,0,0,0,1.77.69.69,0,0,0,.05.13.53.53,0,0,0,0-.12A10.83,10.83,0,0,1,15,33.18m-4.06-1.59s.06,0,.06-.07a.1.1,0,0,0-.05-.06c-.06,0-.11.09-.17.11-.28.06-.31.31-.36.51a.79.79,0,0,0,.12.69s.06.06.09.09l0-.1c.08-.36.17-.72.26-1.17M42.86,44.52l1,.26s.08,0,.12,0l-.06-.07-.19-.07-1.9-.6s-.1,0-.14,0a.49.49,0,0,0,.11.14,3.19,3.19,0,0,0,1.08.35M20.61,34.63l.11-.24-.21.08a.38.38,0,0,0-.18.09,1,1,0,0,0-.29.66c0,.15.18.17.3.21s.12.15.14,0a1.48,1.48,0,0,1,.14-.42.36.36,0,0,0,0-.35m10.11,4.46a3.38,3.38,0,0,0,.42.13c.15,0,.23,0,.19-.18a3.17,3.17,0,0,0-.18-.62c0-.11-.2-.18-.32-.25s-.11,0-.07.1a1,1,0,0,1,0,.82m49.39-3.22s.06-.08.1-.09c.37,0,.74-.05,1.1-.09a4.13,4.13,0,0,0,.61-.13s.06-.06.09-.09-.08,0-.11,0c-.31,0-.63,0-.93.09s-.69.11-1,.18c0,0,0,.09,0,.1s.08.05.21.07m36.68-16.38a1.42,1.42,0,0,0,.13.12l.4.33c-.06-.15-.12-.3-.17-.45s-.45-.57-.63-.57a.42.42,0,0,0-.16,0,.38.38,0,0,0,0,.15l.38.38M23.3,32.73s-.08,0-.11,0a3.42,3.42,0,0,0-1.12.36c-.06,0-.1.11-.14.17a.39.39,0,0,0,0,.15.38.38,0,0,0,.15,0c.4-.19.8-.39,1.24-.63m88.59.14a.89.89,0,0,0,.52-.34c.07-.09.13-.19.19-.28l-.33.15,0,0-1,.7c-.09.07-.16.15-.25.23a1.59,1.59,0,0,0,.33-.08,7.17,7.17,0,0,0,.59-.41M20.34,36.75c.05,0,.13-.08.13-.11s-.11-.28-.13-.43-.16-.2-.28-.16a.34.34,0,0,0-.19.22c-.06.29.05.42.47.48m4.06,1.41A1.18,1.18,0,0,0,24,37.5s-.16,0-.25,0a1.31,1.31,0,0,0,.15.46c.1.13.2.39.51.18m90.32-16.24c.18.17.33.39.6.44.1,0,.18,0,.15-.13a1.74,1.74,0,0,0-.89-.66.15.15,0,0,0-.07,0,.43.43,0,0,1,0,.07l.17.25M103.33,36.49a2.47,2.47,0,0,0,.9-.38.82.82,0,0,0,.19-.22l-.25.11-.34.13-1,.37c-.05,0-.08.08-.12.12a.34.34,0,0,0,.16,0c.14,0,.28-.11.5-.17M45,45.49l-.74-.12-.69-.14s-.07,0-.11,0l.12,0c.27.08.54.19.81.25a7.28,7.28,0,0,0,.8.1.56.56,0,0,0,.12,0l-.15-.05a.55.55,0,0,1-.16-.09M29.83,34.32l.6-.13s.1-.06.1-.09-.17-.21-.3-.17-.32.13-.49.17-.18,0-.17.16.14.08.26.06m76.81.8c-.28.1-.5.34-.83.31,0,0,0,.07,0,.11s.06.07.09.06a2.22,2.22,0,0,0,1.32-.83.11.11,0,0,0,0-.08.08.08,0,0,0-.08,0l-.45.44M74.11,45.49l-.76.18-.16,0s.1,0,.14,0l.58-.08,1-.18.14-.05a.51.51,0,0,0-.17,0l-.75.08m2.21-9.62,1.15-.09a.28.28,0,0,0,.12,0l-.1-.05a2.36,2.36,0,0,0-.45-.08c-.28,0-.56,0-.84.08l-.1.05a.39.39,0,0,0,.22.13M32.92,34a3.45,3.45,0,0,0-.42.14s-.07.06-.11.09.12.09.16.07A8.34,8.34,0,0,0,33.4,34s.05-.07.05-.1a.13.13,0,0,0-.08-.07,2,2,0,0,0-.45.13M79.85,3.56l.2,0s-.08-.06-.12-.06c-.31,0-.61-.07-.92-.08-.05,0-.16-.27-.18,0s.08.15.19.15h.83m-45.47,36h.92a.55.55,0,0,0,.17,0s-.12-.12-.17-.11c-.32.05-.65,0-1,0h0a1.34,1.34,0,0,0,.1.17M64.88,46a3.45,3.45,0,0,0,.34-.14s.07-.09.1-.13a.32.32,0,0,0-.16,0c-.22,0-.45.11-.67.18,0,0-.08.07-.12.11l.16.06a.92.92,0,0,0,.35,0M36.23,39.49c0,.06,0,.17,0,.17a5.23,5.23,0,0,0,.56,0s.1-.07.09-.09a.75.75,0,0,0-.13-.25s-.11.06-.17.08a2,2,0,0,1-.36.09m-2.47-5.65a.41.41,0,0,0,.4-.2l-.39-.07s-.06,0-.09,0l-.21.14a.82.82,0,0,0,.29.12m-5.38.09h.48s.06-.06.09-.1-.06-.07-.09-.07h-.69s-.06,0-.09,0l.09.09a.52.52,0,0,0,.21,0m57.21,4.59h.08l.22-.21a2,2,0,0,0-.24,0l-.63.18-.09,0s.08,0,.12,0l.54-.08m-53,.62c-.23.23-.23.24.07.33a.47.47,0,0,0,.17,0s.07-.06.07-.07,0-.32-.31-.27M32,38.69H32l-.25,0,.09.39.09,0a1.94,1.94,0,0,0,.24-.15c.24-.18-.08-.11-.12-.23M20.08,32.51l-.22.07c0,.07.08.16.14.19a.39.39,0,0,0,.26,0,.79.79,0,0,0,.27-.14c-.07-.2-.19,0-.3,0a.55.55,0,0,1-.15-.09m-8.43-1.28c.14-.11.29-.22.42-.34a.11.11,0,0,0,0-.11.13.13,0,0,0-.11,0,1.9,1.9,0,0,0-.31.48M14.83,31l.16-.19a1.05,1.05,0,0,0-.24,0,2.13,2.13,0,0,0-.35.14c.09.16.24.12.43.08m63.52,4.72-.39.06.39.12a.57.57,0,0,0,.13,0c.08,0,.2,0,.17-.11s-.14,0-.3-.07M3.13,24.83l-.52.35s0,0,0,.06.09.05.11,0a1.92,1.92,0,0,0,.46-.44m100.2,5.83-.41.27s0,0,0,.07H103a.49.49,0,0,0,.37-.35m-67.93-2a2.2,2.2,0,0,0,.36,0s.08-.06.07-.07-.06-.1-.09-.09a1,1,0,0,0-.34.12M10.72,30.4a1.53,1.53,0,0,0,.11-.16s-.07-.09-.09-.08a.31.31,0,0,0-.15.1.71.71,0,0,0,0,.21.34.34,0,0,0,0,.1,1.49,1.49,0,0,1,.15-.17m97.6-6c.16.12.26,0,.35-.1s0-.05,0-.08l-.28,0s0,0-.07.14m-75,4.37c0-.22-.14-.19-.26-.17s-.09.07-.13.11l.39.06M16.81,31.1s.05-.09,0-.11-.4,0-.42.06a.12.12,0,0,0,.08.05h.3m91.91-2.38a2,2,0,0,0-.26.09s0,.07,0,.1a.14.14,0,0,0,.08.07c.06,0,.26-.17.23-.26M26,37.15a1.53,1.53,0,0,0-.25.16s0,.1,0,.15a.73.73,0,0,0,.09.08c0-.06,0-.11,0-.16a1,1,0,0,0,.09-.23M115.6,27c-.17,0-.14.1-.12.19s.07.05.11.08a.48.48,0,0,0,0-.27M78.35,2.5a1.51,1.51,0,0,0-.18-.09.14.14,0,0,0-.09,0,.11.11,0,0,0,0,.06.17.17,0,0,0,.3,0m35.93,19.77-.21,0c.05.05.08.12.14.14s.11,0,.17,0a1.34,1.34,0,0,0-.1-.17m-4.9.84-.24,0a.36.36,0,0,0-.11,0s.07,0,.1,0a.23.23,0,0,0,.25,0M26.08,34.72l.3-.12s0-.06-.05-.05a.49.49,0,0,0-.25.17M63.82,46l-.23,0s0,0,0,0,.12.18.23,0m49.8-24.9h.17l-.05-.13c0,.05-.2-.1-.12.13m-76,13h0l.07-.06a.22.22,0,0,0-.3.07s0,0,0,.08a.45.45,0,0,0,.16-.09M70.44,45.45c.12.12.18,0,.25-.07a.21.21,0,0,0,0-.06l-.23.13M81.66,3.87a.21.21,0,0,0-.1-.09.36.36,0,0,0-.15,0,.54.54,0,0,0,.09.12s.07,0,.16,0M95.39,27.92l.3-.05-.32,0s0,0,0,.07m-79,3.58.11.13.07-.07a.2.2,0,0,0-.18-.06M39.77,1.7l0,0s0,0,0,0l-.2,0s0,0,0,0l.21,0M77.51,3.16l-.19,0s0,0-.07,0l.09.05s.08,0,.17,0M75.34,45.4s0,0,0,0,0,0,0,0l-.2,0s0,0,0,.06l.2,0m-72.12-19H3.13l-.13,0a.3.3,0,0,0,.11,0c.05,0,.1,0,.11-.09M102,36.8l.19,0a.13.13,0,0,0,.07,0l-.09,0a.3.3,0,0,0-.17,0M95,28l-.18.09A.18.18,0,0,0,95,28M10.54,29.25v.17c0-.06.06-.11,0-.17M25.11,35,25,35v.05s.1,0,.1-.07m59.73,7.28-.15,0v0a.2.2,0,0,0,.16,0m7.28-9.14,0,.09s0-.06,0-.09m-7,8.92,0,0s-.05,0,0,0M117,17.37l0,0s0-.05,0,0M96,27.79l.05,0s0-.06-.05,0M76.62,3.07l-.05,0s0,0,.05,0M24.8,28.67l.05,0S24.85,28.66,24.8,28.67Zm67.54-12a1.22,1.22,0,0,0-.24-.1,10.18,10.18,0,0,0-1.22-.26,6.45,6.45,0,0,1-.86-.15,2.06,2.06,0,0,0-.35,0c-.35,0-.7,0-1,0s-.73,0-1.09,0h-3c-.13,0-.27,0-.35-.11s-.11-.2-.09-.27.14-.11.23-.14a.36.36,0,0,1,.18,0,16.94,16.94,0,0,0,2.25.1c.6.07,1.19,0,1.77.1a9.78,9.78,0,0,0,1.43.06,6.54,6.54,0,0,1,1.81.31,3.18,3.18,0,0,0,.61.14l1.56.18a2.77,2.77,0,0,1,.62.19,4.63,4.63,0,0,0,1.27.26c.5.06,1,.07,1.52.15a2.67,2.67,0,0,1,1.26.37c.08,0,.2.08.24.16.26.46.77.54,1.17.79.1.06.29,0,.3.17a.54.54,0,0,1-.08.4c-.18.18-.19.29,0,.48s.11.28-.13.48a3.51,3.51,0,0,1-1,.45c-.49.19-1,.29-1.49.44s-1.12.29-1.68.42c-.19.05-.39.06-.58.1s-.09.07-.14.1.1.07.14.06c.28,0,.55-.08.83-.12l.16-.05c.24,0,.36.13.24.34a.93.93,0,0,1-.32.36,2.89,2.89,0,0,1-1,.38,8.15,8.15,0,0,0-1.25.38l-.48.13s-.22,0,0,.09.23.3,0,.44a2.24,2.24,0,0,1-1.18.36,6.49,6.49,0,0,0-1,.09c-.07,0-.12.09-.19.13a1.55,1.55,0,0,0,.21,0H92c.16,0,.3,0,.32.2s-.13.2-.28.25c-.38.12-.82,0-1.18.24-.07.05-.2,0-.3,0-.39.05-.78.1-1.16.18-.07,0-.15.13-.16.21s-.14.22-.31.22a11.57,11.57,0,0,0-3.07.58,3.5,3.5,0,0,1-.56.13c-.38.06-.75.11-1.12.18s-.84.2-1.26.25a15.11,15.11,0,0,1-1.51.09,3.39,3.39,0,0,0-1,.17h-.12c-.43,0-.86.05-1.29.1-.68.08-1.37.09-2,.2a6.81,6.81,0,0,0-1.35.23.41.41,0,0,1-.22,0c-.15,0-.33.05-.42-.13l.38,0c.2,0,.39-.05.58-.09a7.17,7.17,0,0,1,1.52-.18,2.33,2.33,0,0,0,.36-.08,1.93,1.93,0,0,1,.58-.08,1.57,1.57,0,0,0,.57-.07,5.88,5.88,0,0,1,.6,0c.65-.11,1.31-.12,2-.2a10.09,10.09,0,0,0,1.71-.32,6.15,6.15,0,0,1,.75-.1q1-.18,1.92-.39a8.94,8.94,0,0,0,1.23-.33c.17-.06.43,0,.48-.36s.31-.21.49-.23c.43-.06.86-.07,1.29-.1a1.43,1.43,0,0,0,.27-.09l.12-.06-.12,0h-.22c-.07,0-.15-.09-.22-.09s0-.53-.39-.27c-.15.1-.38,0-.58.07s-.71.15-1.07.19a5,5,0,0,0-1,.24l-1.92.57h-.09c-.15-.06-.34.11-.45-.1l.39-.08.12,0,.54-.18c-.19-.13-.37,0-.55,0-.52.08-1,.11-1.56.19-.67.1-1.34.23-2,.34-.18,0-.37,0-.55.06-.46.06-.91.14-1.37.21l-1,.16-.79.1c-.49.06-1,.09-1.47.19-.7.15-1.42.11-2.11.33a5.86,5.86,0,0,1-.76.09c-.51.1-1,.12-1.55.19s-1,.18-1.48.26c-.31.05-.63.05-.94.09s-.85.14-1.28.21a2.1,2.1,0,0,1-.24.06,13.1,13.1,0,0,0-2,.25,7.46,7.46,0,0,1-1.06.1,10,10,0,0,0-1.24.1c-.54.1-1.08.1-1.61.16,0,0-.1,0-.15,0a.94.94,0,0,1,.15-.06,1,1,0,0,1,.23-.07c.63-.06,1.26-.09,1.87-.19s1.09,0,1.6-.18A11.2,11.2,0,0,0,66.76,27c.08,0,.2.06.3,0,.45-.07.9-.17,1.35-.24.29-.05.59-.06.89-.09l1.2-.19c.26-.05.51-.13.77-.16.62-.07,1.25-.11,1.87-.19.4,0,.79-.14,1.19-.21l.87-.14,1.44-.23c.31-.05.62-.06.93-.12.7-.14,1.41-.16,2.11-.34.44-.12.92-.1,1.38-.2a11.18,11.18,0,0,0,1.52-.24,3,3,0,0,1,.67-.1l1.66-.27c.44-.06.89-.09,1.33-.18a4.21,4.21,0,0,0,1.34-.39c.37-.2.78-.31,1.17-.49.24-.12.47-.28.7-.42,0,0,0-.1.06-.15l-.11,0a4.5,4.5,0,0,0-1.16,0,.61.61,0,0,1-.45-.2s0-.13,0-.2.09,0,.14,0c.61-.07,1.22-.12,1.83-.18s1.24-.24,1.87-.28a13.54,13.54,0,0,0,1.53-.25s.05,0,.08-.06,0,0-.08,0h-.31a.27.27,0,0,1-.31-.21c-.1-.27-.13-.27.16-.32a7.22,7.22,0,0,1,1.12-.17,7.91,7.91,0,0,0,2.3-.42c.67-.21,1.34-.46,2-.65a7.18,7.18,0,0,0,.87-.35c.18-.07.15-.17,0-.27a11.91,11.91,0,0,0-1.16-.8,9.32,9.32,0,0,0-1-.38,5.94,5.94,0,0,0-1-.24c-.83-.13-1.65-.34-2.47-.51h-.13c-.52,0-1,0-1.56-.09a3,3,0,0,1-.7-.22c-.05,0-.09-.15-.08-.22s.12-.07.2-.08a.38.38,0,0,1,.21,0,2.09,2.09,0,0,0,1.06.17c.53.1,1,.17,1.55.25l.53.08s.09,0,.14,0l-.12,0a7.29,7.29,0,0,0-2.08-.27m6.22,3.27a8.48,8.48,0,0,0-1,.32,14.4,14.4,0,0,1-2.42.65c-.27.05-.56.06-.84.09,0,0-.06,0-.08.06l.06.06a.65.65,0,0,0,.2.05,4,4,0,0,0,1.58-.21,6,6,0,0,1,.83-.22c.61-.13,1.17-.4,1.79-.49a4,4,0,0,0,1.06-.51s.08-.13.06-.15-.13-.1-.17-.08c-.33.13-.65.28-1.06.43m-3.88,2.29c.25-.05.51-.11.76-.18.06,0,.11-.08.17-.13s-.14-.05-.21,0c-.35.07-.72.11-1.06.19s-1,.25-1.45.33-.75.06-1.12.09l-.12,0a.33.33,0,0,0,0,.06,1.14,1.14,0,0,1,.73.26s0,0,.08,0c.7-.25,1.45-.28,2.19-.61m2-4.94h-.53a.53.53,0,0,0-.12,0,.67.67,0,0,0,.12.06c.38.09.76.16,1.12.27a3.66,3.66,0,0,1,1.53.78,6.52,6.52,0,0,0,.75.5c.15.1.24,0,.34-.08a.9.9,0,0,0-.22-.14,2,2,0,0,1-.94-.6,2,2,0,0,0-.58-.39c-.46-.23-1-.23-1.47-.43m-6.36,5.39s-.13,0-.14.06a1.46,1.46,0,0,1-.95.68s0,0-.07.05l-.11,0a.24.24,0,0,0,.1.05l.25-.05.79-.22,1.09-.34a.59.59,0,0,0,.14-.06s-.1-.11-.16-.12c-.28,0-.57-.06-.94-.09m0-.45c-.1,0-.29.06-.29.07,0,.24.2.07.3.11a.46.46,0,0,0,.26,0,12.6,12.6,0,0,1,2-.34c.39-.08.78-.12,1.16-.18,0,0,.09-.08.13-.12s-.09-.06-.13-.05l-1.07.17L91,22.1c-.18,0-.36.06-.63.08m1.06,1.15-1.22.36-.14,0c.06,0,.11,0,.16,0l1.24-.21.87-.14c.07,0,.12-.09.19-.14s-.15-.05-.21,0a2.26,2.26,0,0,1-.89.08M89.56,24l0,0v0l-.25,0s0,0-.07.05l.11,0ZM58.88,12.56a4.24,4.24,0,0,0,.61.17c.37,0,.74,0,1.11.1.54.07,1.07.17,1.61.26h.22a5.72,5.72,0,0,1,1.3.17,7.71,7.71,0,0,0,.84.1c.73.06,1.46.07,2.18.19a10.43,10.43,0,0,0,1.24.07.51.51,0,0,1,.16.09c-.05,0-.11.08-.16.08a12.62,12.62,0,0,1-2.22-.16c-.34-.06-.69-.07-1-.1L63,13.35c-.1,0-.21-.08-.31-.08a4.23,4.23,0,0,0-.5.05,2,2,0,0,1,.43,0,12.55,12.55,0,0,0,2,.35.16.16,0,0,1,.11,0,.73.73,0,0,1,.08.09s-.05,0-.08,0a.33.33,0,0,1-.17,0,12.87,12.87,0,0,1-1.49-.25,2.39,2.39,0,0,0-.66-.1c-.55-.06-1.11-.09-1.65-.18a15.6,15.6,0,0,0-3.41-.15c-.62,0-1.24.07-1.87.07-.24,0-.33-.11-.28-.32a.48.48,0,0,1,.17-.21s.1,0,.16-.06-.15,0-.21,0a2.71,2.71,0,0,1-1,.09c-.59,0-1.18,0-1.77.09l-.85.08c-.06,0-.13,0-.17,0a.9.9,0,0,1-.2-.19c.06-.05.11-.13.18-.15a.75.75,0,0,1,.26,0,1.06,1.06,0,0,0,.31,0,1.25,1.25,0,0,0,.3-.12c-.11,0-.21,0-.32,0H49a5.31,5.31,0,0,0-.67.08c-.22,0-.46-.07-.67.08a.2.2,0,0,1-.2,0,1.2,1.2,0,0,0-.78-.15,6.35,6.35,0,0,1-1.51-.08c-.17,0-.16-.09-.06-.19a.4.4,0,0,1,.33-.17,8.51,8.51,0,0,0,1.33-.1,8.47,8.47,0,0,1,1.33-.07l.12,0a.84.84,0,0,0-.14-.06,1.67,1.67,0,0,0-.32-.08c-.45,0-.91,0-1.36,0a9.34,9.34,0,0,0-1,.16c-.22,0-.46-.06-.67.09,0,0-.07,0-.08-.07-.07-.21,0-.35.28-.37l1.87-.17c.05,0,.14,0,.14-.06a.79.79,0,0,0-.08-.32.38.38,0,0,0-.28-.14,4.68,4.68,0,0,1-1.12-.18,5.87,5.87,0,0,0-.84,0,7.53,7.53,0,0,1-.8-.09.54.54,0,0,1-.32-.66c0-.07,0-.15.09-.23s.11-.28.19-.3c.41-.11.68-.47,1.09-.58A12.19,12.19,0,0,1,46,8.25c.76-.12,1.47-.44,2.24-.56s1.43-.39,2.15-.57C50.9,7,51.47,6.86,52,6.74s1-.21,1.56-.3a9.77,9.77,0,0,0,1.1-.33c.32-.1.64-.23,1-.33a.59.59,0,0,1,.32,0c.07,0,.12.09.17.14S56,6,56,6a1.81,1.81,0,0,0-.68.18c-.24.09-.51.12-.76.19-.05,0-.09.07-.13.11l.12.06a1.68,1.68,0,0,1,.32.09.22.22,0,0,1,.07.17s-.06.08-.1.09a.81.81,0,0,1-.31,0,3,3,0,0,0-1.11-.08,6,6,0,0,0-.9.19c-.46,0-.9.26-1.36.32a10.12,10.12,0,0,0-1.23.33c-1.19.27-2.37.61-3.55.92a5.71,5.71,0,0,0-1.59.62,1.53,1.53,0,0,0-.33.29.31.31,0,0,0,.18.5,4.31,4.31,0,0,0,.81.17c.63.05,1.27.07,1.9.09a.5.5,0,0,1,.48.24.39.39,0,0,0,.26.19c.68.16,1.35.29,2,.46a17.19,17.19,0,0,0,1.75.27c.43.07.84.29,1.27.32.59,0,1.13.3,1.74.31a14.22,14.22,0,0,1,1.43.24c.55.06,1.1.06,1.64.1.17,0,.35-.08.5.08a.15.15,0,0,0,.13,0c.23-.3.51-.05.77-.09l.5-.07a.74.74,0,0,1,.21,0,2.7,2.7,0,0,0,.41.06,8.67,8.67,0,0,1,1.83.18c.32.06.65.06,1,.09l.54.09,1.79.26a9.09,9.09,0,0,0,2,.27.27.27,0,0,1,.15.05.31.31,0,0,1,.07.09s0,0-.07,0a5.38,5.38,0,0,1-1.2-.07,6.12,6.12,0,0,0-1-.11,16.55,16.55,0,0,0-1.7-.24c-.67,0-1.29-.33-2-.3-.24,0-.48-.14-.72,0-.22-.18-.48,0-.72-.09a8.55,8.55,0,0,0-1.53-.11l-.1,0,.08.05M51,12.12a7.85,7.85,0,0,1,.84,0,6.61,6.61,0,0,1,.76,0c.44.1.84.4,1.33.32a6.78,6.78,0,0,1,.78,0s0,0,0,0l.18-.09a.61.61,0,0,0-.18,0,2.82,2.82,0,0,1-1.41-.23l-.12,0-1.43-.26c-.07,0-.17,0-.2,0s-.31.12-.48.13a3.43,3.43,0,0,0-1.15.09l-.13.06.12,0H51m8.3.79s-.06-.08-.1-.08l-2-.18c-.07,0-.16,0-.22,0-.32-.17-.65-.05-1-.07-.06,0-.17.13-.19.22s.11.12.2.12h2.59l1.51.16s.06,0,.09-.05a.21.21,0,0,1-.11,0c-.22-.18-.48,0-.8-.09M50,11.68c-.43,0-.86.07-1.29,0h-.13l-.12,0a1.31,1.31,0,0,0,.11.12.16.16,0,0,0,.12,0c.49,0,1,0,1.46-.09.05,0,.1-.09.15-.13l-.07,0a1,1,0,0,1-.23.09m-2.3.26-.88.1s-.09.06-.13.1.09.07.13.06q.48,0,1-.09a.17.17,0,0,0-.08-.17M61.4,13.27l.47,0a1.39,1.39,0,0,0-.47,0M48.68,11.33h.22s.08-.05.07-.05-.27,0-.29.06m-.26,0-.05-.09s0,.06.05.09m12.75,1.81.06,0S61.22,13.12,61.17,13.14ZM2.09,23.05c-.3,0-.23-.22-.28-.35a.57.57,0,0,1,.08-.41A4.21,4.21,0,0,1,3.16,21a7.48,7.48,0,0,0,.71-.5A4.61,4.61,0,0,1,5,19.93a.52.52,0,0,1,.68.17c0,.09.08.24-.13.23a1.83,1.83,0,0,0-.78.25,7.83,7.83,0,0,0-1.87,1.11c-.26.2-.43.51-.67.72S2,22.81,2.09,23.05Zm20.15,4.59c-.11.06-.23.09-.34.14l-1.18.56a.39.39,0,0,1-.48-.18c-.09-.13,0-.28.1-.42a4.51,4.51,0,0,1,2.11-1.3l.08,0c.17,0,.44-.09.49.15s-.23.24-.39.29a6.3,6.3,0,0,0-2,1c-.05,0-.06.14-.08.21l.18,0L22,27.5C22.1,27.47,22.24,27.4,22.24,27.64Zm-11-3.54c-.73.3-1.45.56-2.15.84a2.53,2.53,0,0,0-.49.31c-.09.06-.08.09,0,.12s.07.21,0,.23a.36.36,0,0,1-.29.08c-.13,0-.2-.31-.12-.44a.76.76,0,0,1,.22-.3,8.15,8.15,0,0,1,1-.69,10.78,10.78,0,0,1,1.14-.53,1,1,0,0,1,.43,0C11.38,23.7,11.42,23.8,11.27,24.1Zm-3.84.8c.27,0,.17.19.1.28a.58.58,0,0,1-.27.09.16.16,0,0,1-.11,0c0-.19-.13-.4,0-.57a2.7,2.7,0,0,1,.58-.49,7.78,7.78,0,0,1,2-.94,1.34,1.34,0,0,1,.27-.07c.1,0,.25-.1.28.1s0,.28-.13.33a8.56,8.56,0,0,1-1,.36A4,4,0,0,0,7.43,24.9Zm21,10.2a.44.44,0,0,1,.25.11s0,.16-.05.2-.13,0-.2,0a1.87,1.87,0,0,0,0,.47,2.75,2.75,0,0,0,.13.47c0,.15-.09.3,0,.46s0,.11,0,.11a2.26,2.26,0,0,1-.45,0s0-.11-.05-.17a2.17,2.17,0,0,1,0-.25l.12-.13.18-.09a.66.66,0,0,1-.15-.05.69.69,0,0,1-.11-.13.84.84,0,0,1,0-.74.44.44,0,0,1,.18-.26s.16.09.24.14a.81.81,0,0,0,.06-.13m-.22.5c.06-.07.09-.15-.05-.17a.7.7,0,0,0-.17.06.4.4,0,0,0,.22.11m.18.8,0,0S28.36,36.35,28.38,36.4Zm13.28-7.51a11.7,11.7,0,0,1,1.92.26c.48.1,1,.13,1.47.19a1,1,0,0,1,.24.05s.05.06.07.09,0,0-.08,0a5.9,5.9,0,0,1-1-.07,9,9,0,0,0-1.38-.19l-1.29-.18L41.5,29A.8.8,0,0,1,41.66,28.89Zm20.66,6.89c0,.24-.29.2-.46.26-.73.22-1.47.41-2.21.6a5.52,5.52,0,0,1-.71.11.44.44,0,0,1-.15,0l.12-.12c.05,0,.09-.09.14-.09a13.62,13.62,0,0,0,2.52-.61A4.13,4.13,0,0,1,62.32,35.78ZM44,39.84h2.1a.67.67,0,0,1,.19,0l-.16,0a2.32,2.32,0,0,1-1.38,0c-.23.18-.5.06-.75.08S43.85,39.92,44,39.84ZM59.59,4.7c.49-.08.93-.17,1.38-.26,0,0,.07,0,.11,0s0,.12-.06.13a2.59,2.59,0,0,1-.4.09l-1.84.23-.08,0s0-.08,0-.11,0,0,.08,0ZM29.48,8.5h-.09l-.25,0,.22-.06,1-.17s.07,0,.11,0-.06.09-.09.09Zm44.85,20c-.21,0-.23-.07-.12-.17a.35.35,0,0,1,.23-.07l.53.05s0,0,.07.06c-.16,0-.31.13-.49.06S74.43,28.42,74.33,28.45ZM5.53,21.72c-.22.13-.38.35-.65.29,0,0-.06-.05-.09-.07l0,0c.26.09.19-.3.41-.27A1.2,1.2,0,0,1,5.53,21.72Zm55.2,6,.25,0a.26.26,0,0,1-.12,0c-.23,0-.46.07-.7.09,0,0-.08,0-.12-.06s.08-.1.13-.11S60.52,27.75,60.73,27.75Zm-32.31,7.3c-.18-.1-.36-.29-.56,0,0,0-.11,0-.16,0s-.07,0-.07,0,0-.1,0-.11a1,1,0,0,1,.73-.09S28.41,35,28.42,35.05Zm19.93,4.77a3.78,3.78,0,0,1,.46,0c-.1.17-.27.13-.43.13h-.22a1.21,1.21,0,0,1-.14-.1.41.41,0,0,1,.17-.07C48.24,39.76,48.28,39.81,48.35,39.82Zm-21,.09c-.09,0-.26-.08-.12-.25s.19-.26.38-.13c0,0,.06.06.09.09s-.08,0-.1.05S27.34,39.7,27.36,39.91Zm1.48-6.54a.6.6,0,0,1-.23-.1l.18-.05.35-.08s.07,0,.07.08,0,.08-.06.08ZM58.09,4.88h.08l.43.06-.38.11a.33.33,0,0,1-.17,0,.29.29,0,0,1-.13,0A.5.5,0,0,1,58.09,4.88Zm-26.16,33L32,38l.14.12a.45.45,0,0,1-.2,0A.62.62,0,0,1,31.8,38a1.24,1.24,0,0,1-.1-.2ZM6.06,21.41c0,.07-.11.15-.18.15s-.15-.09-.23-.13,0,0,.06-.07.17-.05.25,0Zm.73-.28a.46.46,0,0,1-.24.08.11.11,0,0,1-.08-.07A1.3,1.3,0,0,1,6.55,21s0,.09.07.1S6.73,21.08,6.79,21.13ZM67.44,34.28h.13c0,.13-.13.13-.22.17s-.1,0-.15,0l.16-.15ZM2.84,22a.29.29,0,0,1,.14,0,1.62,1.62,0,0,1-.19.18s-.09,0-.14,0a.39.39,0,0,1,.08-.1Zm54.1,18.25a.82.82,0,0,1-.11.18c0-.06-.07-.12-.06-.17S56.86,40.18,56.94,40.28ZM4.56,21s0,.05,0,.05l-.39.08v0A2.46,2.46,0,0,1,4.56,21Zm4.59,3.25s0,.06,0,.07l-.38.08,0,0ZM29.86,36.51a0,0,0,0,1,.05,0l.19.18,0,0C30,36.65,29.82,36.72,29.86,36.51Zm17.45,3.33.25,0a.76.76,0,0,1-.16.06h-.21s0,0,0-.06Zm-18.43,0a.47.47,0,0,1-.19,0s0-.11,0-.11h.23v0Zm-23-17.17a.18.18,0,0,1,.11,0,.54.54,0,0,1-.16.1s-.07,0-.11,0Zm17.26,4a.07.07,0,0,1,0-.07l.27-.07v0A.26.26,0,0,1,23.15,26.67ZM59.74,27.9l-.22.09,0-.12A.83.83,0,0,1,59.74,27.9ZM82.12,41.41a.4.4,0,0,1,.08-.16l.08.08A.4.4,0,0,1,82.12,41.41ZM6.68,22.34a.29.29,0,0,1-.14,0c.08-.05.12-.19.24-.07Zm-2.16-.4c.06,0,.13.06.14.11s-.07.08-.1.12A.79.79,0,0,1,4.52,21.94ZM26.77,10A1,1,0,0,1,27,10l.09.05s-.05,0-.07,0A.66.66,0,0,1,26.77,10Zm-1,22.41c.16,0,.2,0,.17.14l-.24-.09v0S25.72,32.44,25.77,32.43ZM79,42.05a.19.19,0,0,1,.17,0v.08A.28.28,0,0,1,79,42.05ZM37,34.48a.19.19,0,0,1,0,.13l-.13-.13A.19.19,0,0,1,37,34.48ZM29.59,10.07a.21.21,0,0,1,.13-.07s.07,0,.11,0l-.13.05A.16.16,0,0,1,29.59,10.07Zm.13,25.07h-.13l.13-.13A.19.19,0,0,1,29.72,35.14Zm85.82-18.45a.27.27,0,0,1-.16-.08l0-.06A.44.44,0,0,1,115.54,16.69ZM29.75,41.52c.09.18-.05,0-.1.08l-.07-.05ZM3.68,21.46a.19.19,0,0,1,.11.05l-.16,0s0,0,0,0ZM28.44,40.7a.19.19,0,0,1-.05.11l0-.16h0Zm62.64-2a.28.28,0,0,1-.15-.08s0,0,0-.06A.32.32,0,0,1,91.08,38.67ZM29.75,33a.25.25,0,0,1,0,.17C29.76,33.07,29.73,33,29.75,33ZM89,24.24a.32.32,0,0,1,.14.12l-.07,0A.35.35,0,0,1,89,24.24ZM81.57,38.08l.16,0s0,.06,0,.06l-.2,0s0,0,0,0S81.51,38.09,81.57,38.08Zm-52-.78a.38.38,0,0,1,.17.08l0,.07A1.06,1.06,0,0,1,29.57,37.3Zm-7.22-10a.28.28,0,0,1,.08-.15l.06,0A.32.32,0,0,1,22.35,27.28Zm51.54,1.17c0-.06,0-.11,0-.17A.27.27,0,0,1,73.89,28.45Zm-7.35,6.18a.36.36,0,0,1-.12.08l0-.05Zm-37.15,2s.06,0,.09,0S29.42,36.69,29.39,36.66ZM30,34.9S30,35,30,35,30,34.93,30,34.9ZM29,8.5s0,.06,0,.09S28.92,8.53,29,8.5Zm3.53,24.9s.06,0,.09,0S32.51,33.43,32.48,33.4ZM18.53,27.13s.06,0,.09,0S18.56,27.16,18.53,27.13Zm11.81,10a.19.19,0,0,1-.13,0v-.06A.2.2,0,0,1,30.34,37.17Zm-3,2.78a.43.43,0,0,1,.16,0l0,.06A.33.33,0,0,1,27.36,40ZM21.65,26.51s.07-.05.11-.08l0,.06ZM8,23.69l.12-.09,0,.06Zm17.48,2.09a.06.06,0,0,1,.06,0A0,0,0,0,1,25.44,25.78Zm1.06,6.36s0,0,.06,0A.06.06,0,0,1,26.5,32.14Zm6.71,6s0,0,0,.05A0,0,0,0,1,33.21,38.19ZM5.36,25.12s0,0-.06,0S5.32,25.12,5.36,25.12Zm83.25-.79s0,0-.06,0A0,0,0,0,1,88.61,24.33ZM30.43,32.89s0,0-.06,0A0,0,0,0,1,30.43,32.89ZM9.2,24.22s0-.06,0-.09A.32.32,0,0,1,9.2,24.22ZM29.33,35.36s0,0,0,.06A0,0,0,0,1,29.33,35.36ZM7.48,24s0,0-.06,0A.07.07,0,0,1,7.48,24Zm-6-.09s0,0,0,.06A0,0,0,0,1,1.52,23.88Zm32.18,15s0,0-.06,0A.07.07,0,0,1,33.7,38.89ZM7.92,23.69a.16.16,0,0,1,0,.08A.08.08,0,0,1,7.92,23.69Zm.39-.11s0,0,.06,0A.06.06,0,0,1,8.31,23.58Zm.4-.18a.06.06,0,0,1,0-.06A0,0,0,0,1,8.71,23.4Zm-2-.16s0,.06,0,.09A.16.16,0,0,1,6.68,23.24ZM21.6,26.51a.08.08,0,0,1,0,.08A.16.16,0,0,1,21.6,26.51ZM6.73,23.24s0,0,0-.08A.11.11,0,0,1,6.73,23.24ZM29.24,39.73s0,0,.06,0S29.27,39.74,29.24,39.73ZM1.43,23.09s0,0,0,.06A0,0,0,0,1,1.43,23.09Zm8.08,0s0,0,0-.06A.07.07,0,0,1,9.51,23.05Zm-5.79-.53s0,0,.06,0A.06.06,0,0,1,3.72,22.52ZM28.44,40.08s0,0,.06,0A0,0,0,0,1,28.44,40.08ZM6.37,22.45a.11.11,0,0,1,0-.08A.1.1,0,0,1,6.37,22.45ZM29.5,33.07s0,0,0,0A.06.06,0,0,1,29.5,33.07ZM91,37.39a.06.06,0,0,1,0,.06A0,0,0,0,1,91,37.39ZM4.83,20.77a.11.11,0,0,1,0,.08A.1.1,0,0,1,4.83,20.77Zm0,0a.13.13,0,0,1,0-.08A.09.09,0,0,1,4.87,20.77Zm24.7,16.49a.11.11,0,0,1-.08,0Zm2.23,5.16a.06.06,0,0,1,0,.06A0,0,0,0,1,31.8,42.42Zm-26.66-24s0,0,.05,0A.06.06,0,0,1,5.14,18.37Zm20.3-8s0,0,0,0A0,0,0,0,1,25.44,10.38Zm.18-.18s0,0,0,.06A0,0,0,0,1,25.62,10.2Zm5.07-1.85s0,0-.05,0S30.66,8.34,30.69,8.35Zm.53-2.08s0,0,0-.06S31.23,6.24,31.22,6.27ZM56.61,5.21s0,0,0,0S56.64,5.22,56.61,5.21Zm-.53,0s0,0,.05,0S56.11,5.22,56.08,5.21ZM21.78,31.43s0,0,0-.05A.06.06,0,0,1,21.78,31.43ZM38.55,34.7a.06.06,0,0,1,0-.06A0,0,0,0,1,38.55,34.7Zm-9.22,1.68s0,0,.05,0A.06.06,0,0,1,29.33,36.38Zm37.25-1.75a.16.16,0,0,1,0-.08A.08.08,0,0,1,66.58,34.63Zm-36.42-6s0,0,0-.06A0,0,0,0,1,30.16,28.61ZM6.33,22.45a.13.13,0,0,1,0,.08A.09.09,0,0,1,6.33,22.45ZM118.45,20a.2.2,0,0,1-.06-.11l.06,0A.28.28,0,0,1,118.45,20ZM92.34,37.13s0,0,.08,0ZM92.25,37s.06,0,.09,0S92.28,37.08,92.25,37Zm0,0s0,0-.08,0A.12.12,0,0,1,92.25,37Zm2.41,1a.15.15,0,0,1-.11-.06l.16,0v0Zm-2.06.51s0,0-.08,0S92.58,38.49,92.6,38.52Zm.16-.11s0,0,0-.06S92.76,38.37,92.76,38.41ZM24.25,36.82a2.09,2.09,0,0,1-.42-.29s-.06-.1,0-.12a.14.14,0,0,1,.13-.09c.16,0,0,.07,0,.11s0,.06,0,0C24.21,36.46,24.23,36.64,24.25,36.82Zm-.31-1.28a.14.14,0,0,1,.11.07.32.32,0,0,1,0,.14.17.17,0,0,1-.1,0,.35.35,0,0,1-.06-.14S23.92,35.59,23.94,35.54Zm0,.44a.22.22,0,0,1,0,.15l-.14,0Zm1.24,2.12a.19.19,0,0,1,.13,0v0C25.25,38.14,25.2,38.13,25.18,38.1ZM19,35s0,0,.05,0S19,35,19,35Zm1.94,2.43a.24.24,0,0,1,.15.08s0,0,0,.06A.32.32,0,0,1,20.94,37.39Zm7.41-9.64c.07-.24.35-.21.5-.35s0,0,.08,0,0,0,0,0C28.73,27.55,28.62,27.78,28.35,27.75Zm0,0s0,.05,0,.08A.11.11,0,0,1,28.31,27.75Zm-.26.15s0,0,0-.06S28.05,27.87,28.05,27.9Zm.37,10.44c0,.09.09.21-.11.28s-.2,0-.24-.08-.05-.22-.08-.32L27.92,38l.24,0,.65,0c.05,0,.07-.17.15,0a3.49,3.49,0,0,0,.48.68.64.64,0,0,1,0,.07s-.06,0-.07,0c-.16-.09-.35-.11-.44-.31s-.16-.27-.51-.15a.3.3,0,0,0-.13,0,.16.16,0,0,0,0,.08l.07-.08Zm83.1-15.16a.2.2,0,0,1,.06.12h-.06A.28.28,0,0,1,111.52,23.18Zm-88.9,14.3c.18.1.2.21.05.29s-.07,0-.07-.06A.47.47,0,0,1,22.62,37.48Zm.26.18c.19,0,.16.07.15.16s-.07,0-.11.08A.86.86,0,0,1,22.88,37.66Zm-.82-1.53a.28.28,0,0,1,.09.2,1.83,1.83,0,0,1-.13.24,1,1,0,0,1,0-.24A.37.37,0,0,1,22.06,36.13Zm0,.62a.08.08,0,0,1,0,.08A.41.41,0,0,1,22,36.75Zm.05,0s0,0,0-.08A.26.26,0,0,1,22.09,36.75ZM23,35.69c0-.21-.08-.43.07-.62l0-.07s.05,0,.05,0a.37.37,0,0,1,0,.21C23,35.39,23.2,35.59,23,35.69Zm0,.51a.09.09,0,0,1-.07-.08.77.77,0,0,1,.07-.16L23,36Zm0-.51a.19.19,0,0,1,0,.08A.1.1,0,0,1,22.93,35.69Zm-1.77.16s-.05,0-.05,0,0-.21,0-.32A1.61,1.61,0,0,1,21.16,35.85Zm94.77-16.16a.27.27,0,0,1,.12-.06l0,.06ZM30.25,38.41s0,0,0-.06A0,0,0,0,1,30.25,38.41ZM20.3,35a.24.24,0,0,1,.17-.05A.26.26,0,0,1,20.3,35Zm0,.19s0,0-.06,0A.06.06,0,0,1,20.28,35.18ZM31,38.72c.06,0,.11,0,.11.07a1.75,1.75,0,0,1,0,.24h-.21a1.6,1.6,0,0,0,.05-.21A.65.65,0,0,1,31,38.72ZM20.1,36.24l.11.21h-.06C20.09,36.39,20,36.34,20.1,36.24ZM24,37.83a.06.06,0,0,1,0,.06A0,0,0,0,1,24,37.83Zm3.24.58a2.75,2.75,0,0,1-.42,0,1.26,1.26,0,0,1,0-.27,2,2,0,0,1,.26.11C27.2,38.29,27.23,38.34,27.27,38.41Zm-9.42-6.49s0,0,0,.06S17.84,32,17.85,31.92Zm72.7-9a.1.1,0,0,1-.06,0l-.26,0,.08-.06C90.42,22.79,90.5,22.82,90.55,23Z"/></g></g></svg>