<svg xmlns="http://www.w3.org/2000/svg" viewBox="0 0 74.58 37.54"><defs><style>.cls-1{fill:#fff;}.cls-2{fill:#999;}</style></defs><title>flat-stone-medium</title><g id="Layer_2" data-name="Layer 2"><g id="stone-flat-medium"><path id="void" class="cls-1" d="M74.57,15.44c0,.42,0,.84,0,1.25a1,1,0,0,1-.07.3,4.91,4.91,0,0,1-.58,1.17c-.17.24-.46.39-.53.69-.31.16-.44.49-.67.72s-.2.27-.35.4a8.29,8.29,0,0,1-1.25.88l-.08,0a1.82,1.82,0,0,1,.14,1,2,2,0,0,0,0,.35,1.16,1.16,0,0,1-.36.91c-.09.09-.1.14,0,.25a.41.41,0,0,1,0,.43,6.37,6.37,0,0,1-.45.66c-.18.26-.44.44-.63.68,0,0-.08,0-.11,0a1.88,1.88,0,0,0-.56.37.24.24,0,0,1-.13.07,2.23,2.23,0,0,0-1,.72.38.38,0,0,0-.09.25.77.77,0,0,1-.31.64A8.71,8.71,0,0,1,66,28.34a5.69,5.69,0,0,0-1.06.68.34.34,0,0,0-.13.33c0,.16,0,.28-.22.3a.64.64,0,0,0-.38.21,1.8,1.8,0,0,1-.52.34,10.74,10.74,0,0,0-1.58,1c-.3.23-.58.49-.89.71l-.39.27a.18.18,0,0,0-.05.08l-1.46,1c-.18.15-.34.31-.52.45a.28.28,0,0,1-.09.07c-.13,0-.46-.05-.44-.1a1.12,1.12,0,0,1,.2-.33c.11-.1.24-.19.36-.28l.07,0s-.07,0-.09,0l-.36.15-.89.4c-.24.09-.36,0-.45-.22,0-.08,0-.09-.12,0a2.86,2.86,0,0,1-.86.17,13.13,13.13,0,0,0-1.42.14,1.14,1.14,0,0,0-.76.27,1.82,1.82,0,0,1-.5.26.48.48,0,0,1-.18,0,.75.75,0,0,1-.12-.07.62.62,0,0,1,.08-.12.28.28,0,0,1,.11,0,.1.1,0,0,0,0-.05.1.1,0,0,0-.07,0h-1A.47.47,0,0,0,52,34a2.07,2.07,0,0,1-.56.41s-.08,0-.1.06-.24,0-.3,0,0-.18,0-.26a.51.51,0,0,1,.12-.2,2.13,2.13,0,0,0-.25,0,1.58,1.58,0,0,0-.88.12.28.28,0,0,1-.18,0,1.15,1.15,0,0,0-.86-.18A5.65,5.65,0,0,0,48,34a.6.6,0,0,1-.33,0c-.36-.08-.67.12-1,.19a5,5,0,0,1-1,.19,3.6,3.6,0,0,0-1.08.18,4.1,4.1,0,0,0-1.18.64.93.93,0,0,1-.39.22c-.21,0-.35.26-.55.35a.31.31,0,0,0-.11.2c0,.16,0,.33-.18.42,0,0,0,.09,0,.15s0,.2,0,.22-.23.14-.33.11a.62.62,0,0,0-.5,0,.31.31,0,0,1-.19,0c-.13-.09-.27,0-.38,0a.51.51,0,0,0-.37,0,3.16,3.16,0,0,1-.81.06c-.18,0-.35,0-.52.06a9.11,9.11,0,0,1-1.17.14,5.81,5.81,0,0,0-.69.11H37a2.75,2.75,0,0,0-.9.06.69.69,0,0,0-.58,0,2.15,2.15,0,0,0-.38.15c-.15.06-.27.08-.33-.09a.17.17,0,0,0-.19-.13,9.92,9.92,0,0,0-1.22,0A13.23,13.23,0,0,1,31,37.4a1.69,1.69,0,0,1-.39-.08,5.36,5.36,0,0,0-.6-.1c-.68,0-1.37,0-2.05-.09a2.68,2.68,0,0,1-.69,0,3.28,3.28,0,0,0-.77,0c-.24,0-.49-.13-.73-.17a11.33,11.33,0,0,0-1.3-.2,7,7,0,0,0-1.21,0,3.16,3.16,0,0,1-1.14-.21,3.79,3.79,0,0,1-.58-.22,4.94,4.94,0,0,0-.49-.19c-.29-.07-.56-.22-.84-.3a5.1,5.1,0,0,1-.94-.37,2.41,2.41,0,0,0-1.08-.25c-.4,0-.81-.1-1.2-.12a11.74,11.74,0,0,0-1.21-.21c-.07,0-.15-.09-.23-.12a3.28,3.28,0,0,0-.82-.2,1.81,1.81,0,0,1-.4-.19s-.07-.07-.1-.06c-.31.07-.58-.12-.88-.13A3,3,0,0,1,12.9,34c-.23-.06-.43-.23-.69-.2-.06,0-.13,0-.2-.06l-1.37-.31-.78-.22-1.32-.3s0,0-.06,0l-.9-.38a6.67,6.67,0,0,1-.79-.27c-.33-.17-.68-.27-1-.42A12.89,12.89,0,0,1,4.44,31c-.56-.36-1.19-.59-1.74-1-.2-.16-.44-.29-.63-.47s-.58-.56-.86-.85c-.13-.11-.27-.2-.38-.31a1.55,1.55,0,0,1-.43-.66c-.05-.2-.18-.37-.24-.57a.72.72,0,0,1,0-.5c0-.11,0-.23,0-.33s.05-.19.05-.29c0-.32,0-.64,0-1a1.55,1.55,0,0,1,0-.57c.07-.21-.09-.35-.09-.53a5.42,5.42,0,0,0,0-.57A.91.91,0,0,1,.23,23,4.77,4.77,0,0,1,1.07,22a.64.64,0,0,0,.21-.34,3.56,3.56,0,0,1,.63-1.08l.16-.23c.1-.15.1-.18-.07-.22-.33-.07-.66-.16-1-.2a1.33,1.33,0,0,1-1-.9,1.82,1.82,0,0,1,.1-1c.09-.25.15-.51.23-.77a2.11,2.11,0,0,1,.53-1,4.39,4.39,0,0,1,1.32-1.14,4.48,4.48,0,0,0,1.08-.71A5.66,5.66,0,0,0,4,13.6c.29-.36.55-.75.82-1.13A.86.86,0,0,0,5,12a.3.3,0,0,0-.19-.32l-.26-.16c-.09,0-.23-.08-.19-.23A.44.44,0,0,1,4.66,11h.06c.24-.09.26-.13.19-.39s-.16-.3-.14-.49.08-.32.32-.33.17,0,.1-.16a8.18,8.18,0,0,1-.37-.93A1.43,1.43,0,0,1,5.2,7.24.5.5,0,0,0,5.36,7c.08-.36.4-.48.68-.58A2.94,2.94,0,0,0,6.71,6,3.71,3.71,0,0,1,8,5.26a4.15,4.15,0,0,1,.69-.19A1.19,1.19,0,0,0,8.87,5C8.92,5,9,4.9,9,4.9a2.38,2.38,0,0,0,.89-.32l.87-.3a6.33,6.33,0,0,1,1-.37.63.63,0,0,0,.24-.13l1.07-.44a8.49,8.49,0,0,0,1.55-.68,5,5,0,0,1,.67-.29l.22-.1a2.78,2.78,0,0,1,.51-.33,2.7,2.7,0,0,0,.52-.3,1.89,1.89,0,0,1,.6-.22,6.55,6.55,0,0,1,1.29-.31A14.82,14.82,0,0,1,20.11.83a1.13,1.13,0,0,0,.32-.06,14.13,14.13,0,0,1,1.7-.32c.38-.07.76-.06,1.13-.14s.61,0,.9,0c.68-.08,1.36,0,2-.07.43,0,.84-.09,1.26-.12.24,0,.47,0,.72,0l1-.06c.2,0,.4.12.59,0a1.15,1.15,0,0,0,.58.06c.21,0,.44,0,.64,0s.57.12.86.18H32l1.1.06c.27,0,.56.06.84.07a4.6,4.6,0,0,1,.52-.06c.24,0,.48-.09.72.06.39-.15.81,0,1.22-.11a.6.6,0,0,1,.23,0c.07,0,.13,0,.18,0a2.22,2.22,0,0,1,.68,0,2.22,2.22,0,0,0,.73,0c.3-.08.59.12.86,0,.19.16.41-.07.64,0s.34,0,.52,0a.62.62,0,0,1,.13,0c.37.18.75-.05,1.13,0a11.61,11.61,0,0,0,1.18,0c.19,0,.36-.12.57,0a1.63,1.63,0,0,0,.58,0c.2,0,.4,0,.6,0s.41,0,.61,0a10.71,10.71,0,0,1,1.37.12,6.29,6.29,0,0,0,.77.07L48,.45c.11,0,.15.06.17.18,0,.35-.23.52-.44.72a.71.71,0,0,1-.14.1c-.07,0-.2,0-.13.16a.38.38,0,0,0,.19.13c.24,0,.49,0,.74.06A7.58,7.58,0,0,1,49.69,2c.17.06.36.06.53.11.63.18,1.26.25,1.9.38a11,11,0,0,0,1.17.19c.39.06.78.16,1.17.26s.7.17,1,.25a1.68,1.68,0,0,1,.32.09c.25.07.49.14.74.23s.72.25,1.08.41.92.54,1.4.8a.71.71,0,0,1,.44.73c0,.27.16.33.33.37A6.72,6.72,0,0,0,61.37,6a8.08,8.08,0,0,1,1.3.14c.14,0,.25.15.38.24l.47.41c.15.13.33.25.33.46s.14.24.27.28.18,0,.18.13.1.16.18.13a9,9,0,0,1,2.07-.2,5.68,5.68,0,0,1,1.74.3,6,6,0,0,1,1.28.49c.1.05.19.14.29.2s.38.19.56.31a11,11,0,0,1,1.07.71,2,2,0,0,1,.46.62c.09.15.16.22.33.21a1,1,0,0,1,.36.06c.13.06.28.15.26.32a.34.34,0,0,0,.21.36,2.31,2.31,0,0,1,.82,1.13c.17.31.14.68.37,1a.75.75,0,0,1,.07.35,6.17,6.17,0,0,1,.07.74,3.13,3.13,0,0,0,.13.91A.6.6,0,0,1,74.57,15.44Z"/><path id="fill2" class="cls-2" d="M74.57,15.44c0,.42,0,.84,0,1.25a1,1,0,0,1-.07.3,4.91,4.91,0,0,1-.58,1.17c-.17.24-.46.39-.53.69-.31.16-.44.49-.67.72s-.2.27-.35.4a8.29,8.29,0,0,1-1.25.88l-.08,0a1.82,1.82,0,0,1,.14,1,2,2,0,0,0,0,.35,1.16,1.16,0,0,1-.36.91c-.09.09-.1.14,0,.25a.41.41,0,0,1,0,.43,6.37,6.37,0,0,1-.45.66c-.18.26-.44.44-.63.68,0,0-.08,0-.11,0a1.88,1.88,0,0,0-.56.37.24.24,0,0,1-.13.07,2.23,2.23,0,0,0-1,.72.38.38,0,0,0-.09.25.77.77,0,0,1-.31.64A8.71,8.71,0,0,1,66,28.34a5.69,5.69,0,0,0-1.06.68.34.34,0,0,0-.13.33c0,.16,0,.28-.22.3a.64.64,0,0,0-.38.21,1.8,1.8,0,0,1-.52.34,10.74,10.74,0,0,0-1.58,1c-.3.23-.58.49-.89.71l-.39.27a.18.18,0,0,0-.05.08l-1.46,1c-.18.15-.34.31-.52.45a.28.28,0,0,1-.09.07c-.13,0-.46-.05-.44-.1a1.12,1.12,0,0,1,.2-.33c.11-.1.24-.19.36-.28l.07,0s-.07,0-.09,0l-.36.15-.89.4c-.24.09-.36,0-.45-.22,0-.08,0-.09-.12,0a2.86,2.86,0,0,1-.86.17,13.13,13.13,0,0,0-1.42.14,1.14,1.14,0,0,0-.76.27,1.82,1.82,0,0,1-.5.26.48.48,0,0,1-.18,0,.75.75,0,0,1-.12-.07.62.62,0,0,1,.08-.12.28.28,0,0,1,.11,0,.1.1,0,0,0,0-.05.1.1,0,0,0-.07,0h-1A.47.47,0,0,0,52,34a2.07,2.07,0,0,1-.56.41s-.08,0-.1.06-.24,0-.3,0,0-.18,0-.26a.51.51,0,0,1,.12-.2,2.13,2.13,0,0,0-.25,0,1.58,1.58,0,0,0-.88.12.28.28,0,0,1-.18,0,1.15,1.15,0,0,0-.86-.18A5.65,5.65,0,0,0,48,34a.6.6,0,0,1-.33,0c-.36-.08-.67.12-1,.19a5,5,0,0,1-1,.19,3.6,3.6,0,0,0-1.08.18,4.1,4.1,0,0,0-1.18.64.93.93,0,0,1-.39.22c-.21,0-.35.26-.55.35a.31.31,0,0,0-.11.2c0,.16,0,.33-.18.42,0,0,0,.09,0,.15s0,.2,0,.22-.23.14-.33.11a.62.62,0,0,0-.5,0,.31.31,0,0,1-.19,0c-.13-.09-.27,0-.38,0a.51.51,0,0,0-.37,0,3.16,3.16,0,0,1-.81.06c-.18,0-.35,0-.52.06a9.11,9.11,0,0,1-1.17.14,5.81,5.81,0,0,0-.69.11H37a2.75,2.75,0,0,0-.9.06.69.69,0,0,0-.58,0,2.15,2.15,0,0,0-.38.15c-.15.06-.27.08-.33-.09a.17.17,0,0,0-.19-.13,9.92,9.92,0,0,0-1.22,0A13.23,13.23,0,0,1,31,37.4a1.69,1.69,0,0,1-.39-.08,5.36,5.36,0,0,0-.6-.1c-.68,0-1.37,0-2.05-.09a2.68,2.68,0,0,1-.69,0,3.28,3.28,0,0,0-.77,0c-.24,0-.49-.13-.73-.17a11.33,11.33,0,0,0-1.3-.2,7,7,0,0,0-1.21,0,3.16,3.16,0,0,1-1.14-.21,3.79,3.79,0,0,1-.58-.22,4.94,4.94,0,0,0-.49-.19c-.29-.07-.56-.22-.84-.3a5.1,5.1,0,0,1-.94-.37,2.41,2.41,0,0,0-1.08-.25c-.4,0-.81-.1-1.2-.12a11.74,11.74,0,0,0-1.21-.21c-.07,0-.15-.09-.23-.12a3.28,3.28,0,0,0-.82-.2,1.81,1.81,0,0,1-.4-.19s-.07-.07-.1-.06c-.31.07-.58-.12-.88-.13A3,3,0,0,1,12.9,34c-.23-.06-.43-.23-.69-.2-.06,0-.13,0-.2-.06l-1.37-.31-.78-.22-1.32-.3s0,0-.06,0l-.9-.38a6.67,6.67,0,0,1-.79-.27c-.33-.17-.68-.27-1-.42A12.89,12.89,0,0,1,4.44,31c-.56-.36-1.19-.59-1.74-1-.2-.16-.44-.29-.63-.47s-.58-.56-.86-.85c-.13-.11-.27-.2-.38-.31a1.55,1.55,0,0,1-.43-.66c-.05-.2-.18-.37-.24-.57a.72.72,0,0,1,0-.5c0-.11,0-.23,0-.33s.05-.19.05-.29c0-.32,0-.64,0-1a1.55,1.55,0,0,1,0-.57c.07-.21-.09-.35-.09-.53a5.42,5.42,0,0,0,0-.57A.91.91,0,0,1,.23,23,4.77,4.77,0,0,1,1.07,22a.64.64,0,0,0,.21-.34,3.56,3.56,0,0,1,.63-1.08l.16-.23c.1-.15.1-.18-.07-.22-.33-.07-.66-.16-1-.2a1.33,1.33,0,0,1-1-.9,1.82,1.82,0,0,1,.1-1c.09-.25.15-.51.23-.77a2.11,2.11,0,0,1,.53-1,4.39,4.39,0,0,1,1.32-1.14,4.48,4.48,0,0,0,1.08-.71A5.66,5.66,0,0,0,4,13.6c.29-.36.55-.75.82-1.13A.86.86,0,0,0,5,12a.3.3,0,0,0-.19-.32l-.26-.16c-.09,0-.23-.08-.19-.23A.44.44,0,0,1,4.66,11h.06c.24-.09.26-.13.19-.39s-.16-.3-.14-.49.08-.32.32-.33.17,0,.1-.16a8.18,8.18,0,0,1-.37-.93A1.43,1.43,0,0,1,5.2,7.24.5.5,0,0,0,5.36,7c.08-.36.4-.48.68-.58A2.94,2.94,0,0,0,6.71,6,3.71,3.71,0,0,1,8,5.26a4.15,4.15,0,0,1,.69-.19A1.19,1.19,0,0,0,8.87,5C8.92,5,9,4.9,9,4.9a2.38,2.38,0,0,0,.89-.32l.87-.3a6.33,6.33,0,0,1,1-.37.63.63,0,0,0,.24-.13l1.07-.44a8.49,8.49,0,0,0,1.55-.68,5,5,0,0,1,.67-.29l.22-.1a2.78,2.78,0,0,1,.51-.33,2.7,2.7,0,0,0,.52-.3,1.89,1.89,0,0,1,.6-.22,6.55,6.55,0,0,1,1.29-.31A14.82,14.82,0,0,1,20.11.83a1.13,1.13,0,0,0,.32-.06,14.13,14.13,0,0,1,1.7-.32c.38-.07.76-.06,1.13-.14s.61,0,.9,0c.68-.08,1.36,0,2-.07.43,0,.84-.09,1.26-.12.24,0,.47,0,.72,0l1-.06c.2,0,.4.12.59,0a1.15,1.15,0,0,0,.58.06c.21,0,.44,0,.64,0s.57.12.86.18H32l1.1.06c.27,0,.56.06.84.07a4.6,4.6,0,0,1,.52-.06c.24,0,.48-.09.72.06.39-.15.81,0,1.22-.11a.6.6,0,0,1,.23,0c.07,0,.13,0,.18,0a2.22,2.22,0,0,1,.68,0,2.22,2.22,0,0,0,.73,0c.3-.08.59.12.86,0,.19.16.41-.07.64,0s.34,0,.52,0a.62.62,0,0,1,.13,0c.37.18.75-.05,1.13,0a11.61,11.61,0,0,0,1.18,0c.19,0,.36-.12.57,0a1.63,1.63,0,0,0,.58,0c.2,0,.4,0,.6,0s.41,0,.61,0a10.71,10.71,0,0,1,1.37.12,6.29,6.29,0,0,0,.77.07L48,.45c.11,0,.15.06.17.18,0,.35-.23.52-.44.72a.71.71,0,0,1-.14.1c-.07,0-.2,0-.13.16a.38.38,0,0,0,.19.13c.24,0,.49,0,.74.06A7.58,7.58,0,0,1,49.69,2c.17.06.36.06.53.11.63.18,1.26.25,1.9.38a11,11,0,0,0,1.17.19c.39.06.78.16,1.17.26s.7.17,1,.25a1.68,1.68,0,0,1,.32.09c.25.07.49.14.74.23s.72.25,1.08.41.92.54,1.4.8a.71.71,0,0,1,.44.73c0,.27.16.33.33.37A6.72,6.72,0,0,0,61.37,6a8.08,8.08,0,0,1,1.3.14c.14,0,.25.15.38.24l.47.41c.15.13.33.25.33.46s.14.24.27.28.18,0,.18.13.1.16.18.13a9,9,0,0,1,2.07-.2,5.68,5.68,0,0,1,1.74.3,6,6,0,0,1,1.28.49c.1.05.19.14.29.2s.38.19.56.31a11,11,0,0,1,1.07.71,2,2,0,0,1,.46.62c.09.15.16.22.33.21a1,1,0,0,1,.36.06c.13.06.28.15.26.32a.34.34,0,0,0,.21.36,2.31,2.31,0,0,1,.82,1.13c.17.31.14.68.37,1a.75.75,0,0,1,.07.35,6.17,6.17,0,0,1,.07.74,3.13,3.13,0,0,0,.13.91A.6.6,0,0,1,74.57,15.44Z"/><path id="fill1" d="M6.7,6A3.85,3.85,0,0,1,8,5.26a5.91,5.91,0,0,1,.69-.19A.48.48,0,0,0,8.87,5C8.92,5,9,4.9,9,4.9a2.38,2.38,0,0,0,.89-.32l.87-.29a6.37,6.37,0,0,1,1-.38c.09,0,.16-.09.24-.12.36-.15.71-.31,1.07-.45a8.8,8.8,0,0,0,1.54-.68,4.15,4.15,0,0,1,.69-.28l.21-.11a3.08,3.08,0,0,1,.5-.33,2.94,2.94,0,0,0,.52-.3,2.12,2.12,0,0,1,.61-.22,7.45,7.45,0,0,1,1.28-.31A15,15,0,0,1,20.11.83a.87.87,0,0,0,.32-.06,14.13,14.13,0,0,1,1.7-.32c.37-.07.76-.06,1.13-.14s.61,0,.91,0c.67-.09,1.35,0,2-.07.42,0,.84-.09,1.26-.12.24,0,.48,0,.71,0l1-.07c.2,0,.39.13.59,0,.18.12.39.06.58.07a4.56,4.56,0,0,1,.64,0c.29,0,.57.12.86.18H32l1.1.06c.28,0,.56.06.84.06s.35-.07.51,0,.5-.09.73.06c.39-.15.81,0,1.21-.11a.65.65,0,0,1,.24,0c.06,0,.13,0,.18,0a2.22,2.22,0,0,1,.68,0,2.61,2.61,0,0,0,.74,0c.29-.08.58.12.85,0,.2.16.41-.08.64,0s.34,0,.52,0a.27.27,0,0,1,.12,0c.38.18.76-.05,1.14,0a11.61,11.61,0,0,0,1.18,0c.19,0,.36-.11.58,0s.37,0,.56,0,.41,0,.61,0,.41,0,.61,0a10.26,10.26,0,0,1,1.36.12c.26,0,.52,0,.78.07L48,.45c.11,0,.15.07.16.18,0,.35-.22.52-.42.72,0,0-.1.06-.15.1s-.19,0-.13.16a.28.28,0,0,0,.18.12l.75.07A7.58,7.58,0,0,1,49.69,2c.17.06.36,0,.53.1.62.19,1.26.26,1.89.39.39.08.78.13,1.18.19s.78.16,1.17.25l1,.26.32.09c.25.07.5.14.73.23s.73.26,1.09.41.92.54,1.4.8a.72.72,0,0,1,.45.73c0,.27.16.34.32.38A8.15,8.15,0,0,0,61.38,6a9.4,9.4,0,0,1,1.29.13,1.05,1.05,0,0,1,.38.24,6,6,0,0,1,.47.41c.14.13.33.25.33.46s.15.24.27.28.19,0,.18.13.1.15.18.13a9.56,9.56,0,0,1,2.07-.2,5.73,5.73,0,0,1,1.74.3,6.92,6.92,0,0,1,1.27.48c.11.06.2.14.31.2l.54.32a10.06,10.06,0,0,1,1.08.71,2.18,2.18,0,0,1,.46.62c.09.15.16.22.34.21a.86.86,0,0,1,.35.06c.13.06.28.15.26.32a.34.34,0,0,0,.21.36,2.44,2.44,0,0,1,.82,1.13c.16.31.14.69.37,1a.75.75,0,0,1,.07.35c0,.24.06.49.07.74a2.82,2.82,0,0,0,.13.91.61.61,0,0,1,0,.19v1.25a1.63,1.63,0,0,1-.07.3,4.91,4.91,0,0,1-.58,1.17c-.17.24-.46.39-.53.7-.31.15-.44.48-.67.7s-.21.28-.35.41a9.72,9.72,0,0,1-1.25.88l-.85.49c-.07,0-.16.1-.18.17s-.28.11-.34.27a.45.45,0,0,1-.32.29.79.79,0,0,0-.25.17s-.12.07,0,.08a.48.48,0,0,1,.41.32s.11,0,.11,0,.2-.22.19-.41a.28.28,0,0,1,.21-.32.34.34,0,0,1,.3.28.34.34,0,0,0,0,.1.46.46,0,0,0,.07.07.47.47,0,0,0,.06-.09,1.11,1.11,0,0,0,0-.26,1.76,1.76,0,0,1,0-.46c0-.22.1-1,.32-.89s.4.89.33,1.21a2,2,0,0,0,0,.35,1.16,1.16,0,0,1-.36.91c-.09.09-.1.14,0,.25a.42.42,0,0,1,0,.43,5.91,5.91,0,0,1-.45.66c-.18.26-.44.44-.64.68,0,0-.07,0-.1.05a1.85,1.85,0,0,0-.56.36.33.33,0,0,1-.13.07,2.34,2.34,0,0,0-1,.72.44.44,0,0,0-.08.25.77.77,0,0,1-.31.64A8.12,8.12,0,0,1,66,28.34a6.14,6.14,0,0,0-1.07.68.39.39,0,0,0-.13.33c0,.16,0,.28-.22.3a.65.65,0,0,0-.36.21,2.09,2.09,0,0,1-.53.34,10,10,0,0,0-1.58,1c-.31.23-.59.48-.89.71l-.4.28s0,0-.05.06l-1.45,1-.52.45a.23.23,0,0,1-.1.07c-.12,0-.45-.06-.43-.1a1,1,0,0,1,.2-.33,3.17,3.17,0,0,1,.36-.28l.06,0s-.06,0-.08,0l-.35.16-.9.38c-.24.1-.36.05-.45-.21,0-.08,0-.09-.12,0a2.86,2.86,0,0,1-.86.17,13.38,13.38,0,0,0-1.42.14,1.16,1.16,0,0,0-.76.27,1.31,1.31,0,0,1-.5.25.33.33,0,0,1-.17,0,.35.35,0,0,1-.13-.08.38.38,0,0,1,.08-.11l.1,0a.1.1,0,0,0,0,0s0,0-.07,0c-.33,0-.66,0-1,0A.34.34,0,0,0,52,34a2.94,2.94,0,0,1-.57.43s-.08,0-.1,0-.23,0-.3,0,0-.18,0-.27a.82.82,0,0,1,.12-.2,1.07,1.07,0,0,0-.25,0,1.58,1.58,0,0,0-.88.12.19.19,0,0,1-.18,0,1.19,1.19,0,0,0-.86-.18A6.59,6.59,0,0,0,48,34a.61.61,0,0,1-.33,0c-.36-.09-.67.11-1,.19a5.63,5.63,0,0,1-1,.19,3.26,3.26,0,0,0-1.07.19,3.89,3.89,0,0,0-1.19.63.93.93,0,0,1-.39.22c-.22,0-.35.25-.55.35a.31.31,0,0,0-.11.21c0,.16,0,.33-.18.41,0,0,0,.09,0,.14s0,.21,0,.23a.46.46,0,0,1-.33.1.72.72,0,0,0-.5,0,.19.19,0,0,1-.18,0c-.13-.08-.28,0-.39,0a.51.51,0,0,0-.37,0,3.16,3.16,0,0,1-.81.06A4.34,4.34,0,0,0,39,37a11.31,11.31,0,0,1-1.17.13,5.5,5.5,0,0,0-.69.11H37a2.55,2.55,0,0,0-.91.07.63.63,0,0,0-.58,0l-.39.15c-.14.06-.26.08-.32-.1a.17.17,0,0,0-.19-.12,8.27,8.27,0,0,0-1.22,0A14.24,14.24,0,0,1,31,37.4a1.8,1.8,0,0,1-.39-.08,4.08,4.08,0,0,0-.59-.11c-.69,0-1.38,0-2.06-.08a2.38,2.38,0,0,1-.7,0,4.76,4.76,0,0,0-.76,0c-.25,0-.49-.12-.73-.16-.43-.08-.86-.17-1.29-.21a9.93,9.93,0,0,0-1.22,0,3.64,3.64,0,0,1-1.14-.2,4.12,4.12,0,0,1-.58-.23l-.5-.19c-.28-.08-.55-.23-.83-.3a6.33,6.33,0,0,1-.94-.37,2.56,2.56,0,0,0-1.08-.26c-.41,0-.8-.09-1.2-.11a10.05,10.05,0,0,0-1.2-.21c-.08,0-.16-.09-.24-.12a3.78,3.78,0,0,0-.82-.2,1.62,1.62,0,0,1-.4-.19s-.07-.07-.1-.06c-.31.06-.58-.12-.88-.14A2.19,2.19,0,0,1,12.9,34c-.23-.07-.43-.23-.69-.2-.06,0-.13,0-.2-.06l-1.37-.32-.78-.21-1.32-.3s0,0-.06,0l-.9-.38a6.67,6.67,0,0,1-.79-.27c-.33-.17-.68-.26-1-.42A10.48,10.48,0,0,1,4.45,31c-.57-.36-1.2-.59-1.74-1-.21-.16-.45-.29-.64-.46s-.58-.57-.87-.85c-.12-.12-.26-.21-.38-.32a1.4,1.4,0,0,1-.41-.67c-.06-.19-.19-.36-.26-.56a.81.81,0,0,1,0-.51c0-.1,0-.21,0-.32s0-.19,0-.29c0-.32,0-.64,0-1a1.81,1.81,0,0,1,0-.57C.25,24.31.09,24.17.1,24v-.58A.72.72,0,0,1,.23,23a5.58,5.58,0,0,1,.84-1,.61.61,0,0,0,.21-.33,3.44,3.44,0,0,1,.63-1.08l.16-.23c.1-.14.1-.18-.06-.22A9,9,0,0,0,1,20a1.33,1.33,0,0,1-1-.9,1.82,1.82,0,0,1,.1-1c.09-.25.15-.51.22-.77a2.5,2.5,0,0,1,.54-1,4.54,4.54,0,0,1,1.32-1.14,4.8,4.8,0,0,0,1.08-.71A5.66,5.66,0,0,0,4,13.6c.29-.36.56-.75.82-1.13A.79.79,0,0,0,5,12a.31.31,0,0,0-.19-.32l-.26-.16c-.1,0-.24-.08-.19-.23A.44.44,0,0,1,4.66,11h.06c.25-.09.26-.13.19-.4s-.16-.29-.14-.49.08-.31.32-.33.18,0,.1-.15a8.18,8.18,0,0,1-.37-.93A1.39,1.39,0,0,1,5.2,7.25.65.65,0,0,0,5.35,7c.09-.36.41-.48.68-.59A2.09,2.09,0,0,0,6.7,6M36.18,35.47v0a.08.08,0,0,1-.07,0v.06a.11.11,0,0,1,.07-.06M5.45,14.88v.06a.11.11,0,0,1,.07-.06v-.05s0,0-.07.05M59,4.85h-.06a.14.14,0,0,1,.06.07l.1,0V4.89a.19.19,0,0,1-.11,0m-46-1,.08,0v0a.64.64,0,0,1-.14.06.17.17,0,0,1-.06.07,1.91,1.91,0,0,0-.63.26s0,.06,0,.09.08,0,.11,0,.2-.15.31-.16a.44.44,0,0,0,.31-.2A.16.16,0,0,1,13,3.85m57.41,8.28A.32.32,0,0,1,70.5,12c.19,0,.06-.18.09-.27a.52.52,0,0,0,0-.17.83.83,0,0,0,0,.15,1.66,1.66,0,0,1-.1.29c-.11,0-.1.06-.13.13v.06a.11.11,0,0,1,.07-.06M5.84,14.63A.4.4,0,0,1,6,14.5a2.58,2.58,0,0,0,.79-.82.8.8,0,0,0,.07-.36s-.06-.07-.1-.09-.07,0-.09.09,0,.23-.09.34a2.76,2.76,0,0,1-.65.84c-.11,0-.09.06-.13.13v.06a.11.11,0,0,1,.07-.06m60.49,1a.45.45,0,0,0-.37.18s0,0,0,.06l0,0c.11-.11.31-.09.41-.26v-.06a.22.22,0,0,1-.07.06m-3.85-8,.09-.12c.08-.1,0-.28.13-.36a.34.34,0,0,0,0-.1.53.53,0,0,0-.1-.06.47.47,0,0,0-.05.1,2.56,2.56,0,0,1-.1.54v.06a.11.11,0,0,1,.07-.06m-22,27.71c.28,0,.47-.16.7-.32a4.8,4.8,0,0,0,.75-.09.89.89,0,0,0,.69-.39l.07-.06s-.08,0-.12,0l-.92.16a.88.88,0,0,1-.32,0l-.44-.08s-.06,0-.06,0a.09.09,0,0,0,0,.07c.2,0,.19.14.18.26a.71.71,0,0,1-.39.33c-.08,0-.14.08-.25.12l-.08,0v0a.64.64,0,0,1,.14-.06m32.36-18.5-.11,0v0a.21.21,0,0,1,.11.05c0,.21.2.33.34.47a.11.11,0,0,0,.08,0,.07.07,0,0,0,0-.08.56.56,0,0,0-.44-.45M52.92,32.52l-1.2.7s0,0-.07.06l0,0s0,0,.08,0a.64.64,0,0,0,.42-.15l.38-.3c.16-.13.31-.26.49-.39v-.06a.14.14,0,0,1-.07.06m13.92-7.69a1.66,1.66,0,0,0,.13-.14c.11-.19.22-.38.32-.57,0,0,0-.06,0-.09s-.06,0-.07,0l-.09.19s0,.08-.07.13a.8.8,0,0,0,0-.15,1.07,1.07,0,0,1-.12-.27c0-.19.21,0,.24-.17s.07,0,.1-.06,0-.06,0-.07-.07-.06-.09-.05l-.42.23c-.09.05,0,.09,0,.14.07.28.22.55,0,.85v.06a.14.14,0,0,1,.07-.06m2.63-4-.1-.08.18-.18.08,0-.08,0s0-.05-.08-.06-.07-.15-.09-.24l.14.09a.11.11,0,0,0,.08,0s0-.06,0-.08a.23.23,0,0,0-.06-.13l-.49-.37-.13,0a.56.56,0,0,0,0,.12.94.94,0,0,1,.09.12c.1.26.3.49.18.81a.73.73,0,0,0,0,.39s0,0,0,.06a2.41,2.41,0,0,1,.23-.36l0-.1h0a.18.18,0,0,1,0,.11M59.33,31c-.23.11-.47.21-.7.33s-.35.22-.53.33l-.85.5s0,.06-.06.08.07.05.1,0a3,3,0,0,0,.48-.23c.46-.28.92-.56,1.37-.85.09-.06.15-.13.26-.2v-.05s0,0-.07.05M65,24.89c0-.08-.11-.18.07-.2s.1-.05.15-.09,0-.08,0-.08a.32.32,0,0,0-.34.32,1.73,1.73,0,0,1-.32.92c-.19.21-.28.5-.56.63,0,0,0,.05,0,.08l0,.09s.07,0,.09,0c.2-.2.42-.39.6-.61a2.11,2.11,0,0,0,.46-1v-.06a.14.14,0,0,1-.07.06M68,21l.16.15.11.1c0-.05,0-.12,0-.15-.17-.23-.36-.45-.54-.67h-.06s0,0,0,.06c.06.35.11.7.16,1a2,2,0,0,0,.07.26s.09,0,.14,0,.06-.07,0-.09-.1-.06,0-.11a.22.22,0,0,0,.08-.31l-.07-.06,0,.06,0,.12S68,21.4,68,21.35A.81.81,0,0,1,68,21m1,2.18s-.07,0-.09,0-.12.15-.19.16,0-.16-.12-.2-.09-.09,0-.16.07-.05.15,0A.23.23,0,0,0,69,23a.11.11,0,0,0,0-.1c-.19-.06-.39-.1-.58-.14,0,0-.1,0-.1.07s0,.35.05.52.18.4,0,.61a.21.21,0,0,0,0,.06l.06,0a1.26,1.26,0,0,0,.2-.27c.08-.19.3-.29.33-.52v-.06a.22.22,0,0,1-.07.06M6,15.14c.3-.17.61-.34.9-.52a4,4,0,0,0,.45-.39.49.49,0,0,0,.16-.38c0-.18-.06-.38.06-.55s0-.07,0-.08a.08.08,0,0,0-.08,0,.37.37,0,0,0-.07.16,1.72,1.72,0,0,1-.55,1,4.6,4.6,0,0,1-.7.53c-.07.05-.11.13-.2.19v.06A.11.11,0,0,1,6,15.14M8.15,25a.63.63,0,0,1,.47,0c.12,0,.2,0,.24-.06a2.19,2.19,0,0,1,.5-.55c.17-.17.36-.31.54-.48s.26,0,.19-.22a2.18,2.18,0,0,0-.27.11c-.35.21-.7.42-1,.66s-.53.23-.71.5a.11.11,0,0,1-.06.06,3.82,3.82,0,0,0-.64.32,1.77,1.77,0,0,0-.55,1c-.08.37-.17.75-.25,1.12a3.46,3.46,0,0,0-.13,1.06c0,.13,0,.21.18.2s.25,0,.27-.17S7,28,7,27.69c0-.12.06-.24.06-.35a8.2,8.2,0,0,1,.13-1.11,1,1,0,0,1,.13-.39A1.27,1.27,0,0,1,8,25.18s0-.06.1-.1A.14.14,0,0,1,8.15,25M61.9,27.26c.31-.33.65-.65.93-1s.52-.74.77-1.11c0,0,0,0,0-.07a.84.84,0,0,1,.19.07c.17.13.17.14.23-.06,0,0,.09-.06.12-.1s0,0,0-.06l0,0c-.16.14-.42,0-.57.18a1.75,1.75,0,0,0-.63.26s0,.09,0,.12a.56.56,0,0,1-.11.57c-.24.31-.54.56-.78.86-.08.09-.23.2-.2.37v.06a.14.14,0,0,1,.07-.06m-55.23-3c.3-.17.61-.33.9-.52s.82-.55,1.23-.83l.43-.25s.06-.07.09-.11l-.12,0a1.84,1.84,0,0,1-.47,0c-.16,0-.23,0-.23.14a.37.37,0,0,1-.2.35,3.18,3.18,0,0,0-.6.41c-.3.24-.62.44-.94.65a.29.29,0,0,0-.15.19v.06a.22.22,0,0,1,.07-.06m4.24,1.93c-.2.11-.2.11-.23.26s0,.06,0,.06l-.27-.11a.74.74,0,0,1,.15-.19.73.73,0,0,1,.22-.09l.2-.06S11,26.06,11,26s-.06-.06-.09-.06a1.19,1.19,0,0,0-.83.39.54.54,0,0,0-.16.5,1.3,1.3,0,0,1,0,.78A.77.77,0,0,0,10,28a.54.54,0,0,1,0,.25c-.09.16,0,.32-.06.49s0,.2-.05.3a.18.18,0,0,0,.05.12s.07,0,.11,0,.15-.21.21-.33a4.14,4.14,0,0,0,.19-.53,2.66,2.66,0,0,0,.21-.84,2.75,2.75,0,0,1,.1-.56,1.82,1.82,0,0,1,.24-.62v-.06a.11.11,0,0,1-.06.06m44.51-7.12a2.1,2.1,0,0,0,1-.18c.05,0,.12,0,.18,0a3.18,3.18,0,0,0,.43-.06l1-.26a3.71,3.71,0,0,0,1.33-.36,1.21,1.21,0,0,1,.34-.08c.22-.07.44-.12.66-.2s.56-.2.83-.32a6.27,6.27,0,0,0,.58-.29s0,0,.06-.06a.19.19,0,0,0-.08,0,.17.17,0,0,0-.1,0l-.16.06a.39.39,0,0,0,0-.15s-.08,0-.09,0a4.8,4.8,0,0,1-.93.54c-.12.06-.23.14-.37.07l.24-.2s0-.05.06-.07-.08,0-.11,0a.58.58,0,0,0-.15.11.81.81,0,0,1-.49.3.9.9,0,0,0-.43.25,1,1,0,0,1-.57.17.15.15,0,0,1-.1-.08,2.64,2.64,0,0,1-.15-.29s-.07,0-.11,0l.09-.1a.13.13,0,0,0,0-.07s0-.05-.06-.05a.65.65,0,0,0-.21,0,10.33,10.33,0,0,1-1.17.66c-.06,0-.14,0-.19.07a4.06,4.06,0,0,1-.88.45c-.19.05-.38.12-.6.19l-.08,0v0l.13-.06M9.69,15.27a.48.48,0,0,0-.17.05c-.26.14-.52.29-.8.41a6.29,6.29,0,0,0-1,.47,4,4,0,0,1-.84.44.78.78,0,0,1-.39.06c-.13,0-.34-.1-.36-.18-.06-.29-.23-.07-.28-.05a4,4,0,0,1-1,.4c-.25.05-.49.1-.75.13s-.43-.24-.41-.32.19-.15.3-.21l.05,0A5.29,5.29,0,0,0,5.27,16c.06,0,.1-.08.18-.12v-.06a.14.14,0,0,1-.07.06H5.3c-.58.22-1.15.45-1.72.65a.8.8,0,0,1-.53,0,.67.67,0,0,0-.36-.06,1.12,1.12,0,0,0-.45.08c-.1,0-.16,0-.2,0s-.19-.17-.34,0a2.6,2.6,0,0,0-.25.31A5.12,5.12,0,0,0,.87,18c-.05.11,0,.26-.07.36a.81.81,0,0,0-.05.55.61.61,0,0,0,.39.49c.29.12.58.14.87.23s.39.08.58.13c.37.09.77.11.92.55,0,.1.12.13.22,0a.22.22,0,0,1,.33,0c.18.17.19.18,0,.51l0,.08.09,0a1.4,1.4,0,0,1,.29,0s.14.09.13.1.16.24,0,.38.06.14.1.15a.8.8,0,0,0,.3-.06c.19-.07.38-.16.57-.24a.31.31,0,0,1,.37.16c.07.11.1.21-.08.26s-.09.07-.11.11,0,.08,0,.08a2.54,2.54,0,0,0,.55,0,2.11,2.11,0,0,0,.38-.17c.24-.09.34,0,.39.22a.19.19,0,0,0,.27.14,1.52,1.52,0,0,0,.28-.09c.13-.07.22-.11.32.06s.16.07.25.08a8.46,8.46,0,0,1,.87.05,8.39,8.39,0,0,0,1,.06c.38,0,.74.11,1.11.14a6.15,6.15,0,0,0,.74.06.37.37,0,0,1,.33.15.28.28,0,0,0,.27.12.76.76,0,0,1,.2.06,4.94,4.94,0,0,0,.85.18.83.83,0,0,0,.58-.22c.2-.16.32-.11.42.12s0,.19-.1.26-.11.09,0,.14.4.23.66.13.33-.05.4.1.43.3.65.37a3,3,0,0,1,.76.26.49.49,0,0,0,.52,0l.16-.09c.16-.07.38,0,.43.05a.42.42,0,0,1-.18.49,1.94,1.94,0,0,1-.3.13,6.32,6.32,0,0,0-.6.25c-.31.15-.6.32-.89.49l-.44.32a.16.16,0,0,0-.05.09l.11,0,.59-.28.82-.42a1.19,1.19,0,0,1,.35-.15.85.85,0,0,0,.22-.09c.42-.24.85-.48,1.29-.68a8.08,8.08,0,0,1,1-.37.39.39,0,0,1,.26,0c.16.1.17.25,0,.41a6.75,6.75,0,0,1-.76.56c-.28.18-.57.32-.86.49l-.06.06s.07,0,.09,0a4.48,4.48,0,0,0,.89-.4,8.12,8.12,0,0,1,1-.43,5.45,5.45,0,0,1,.9-.36c.2-.07.41-.11.61-.16s.18.1.24.19,0,.14-.06.2a2.84,2.84,0,0,1-.78.51c-.32.17-.66.32-1,.49a.38.38,0,0,0-.11.11.11.11,0,0,0,0,.08.1.1,0,0,0,.09,0,1.41,1.41,0,0,1,.37-.18,9.44,9.44,0,0,0,1.64-.68c.26-.27.64-.27.94-.46a.32.32,0,0,1,.32.07.26.26,0,0,1-.05.34,1.92,1.92,0,0,1-.63.57c-.06,0-.1.1-.16.15l0,.05.06,0,.14,0,.89-.4a4.8,4.8,0,0,0,.66-.27c.13-.07.24,0,.36-.05s.15.15.22.24.09.19.27.09.35,0,.41.28.06.24.32.19a5.33,5.33,0,0,0,.88-.29c.31-.1.62-.21.93-.3s.3,0,.3.21a1.76,1.76,0,0,1-.06.39c-.08.29,0,.39.3.41a3.56,3.56,0,0,0,1.25-.24c.23-.06.48-.16.66.11a.75.75,0,0,0,.69.32A6.13,6.13,0,0,0,32.32,26a6.85,6.85,0,0,1,.78-.07,2.86,2.86,0,0,0,.67-.08,2.71,2.71,0,0,1,.56-.05,5.14,5.14,0,0,1,.55-.06,5.52,5.52,0,0,1,1.07.05,2.42,2.42,0,0,0,.76,0c.24,0,.44.23.69.08,0,0,.05,0,.07.07s0,.05,0,.05a5.43,5.43,0,0,1-.55.06c-.23,0-.46,0-.68-.05-.74,0-1.48,0-2.22.06,0,0,0,0-.07,0a4.28,4.28,0,0,1-1.07.18c-.35.08-.72.06-1.07.15a2.21,2.21,0,0,1-1.14.05.94.94,0,0,1-.59-.28.25.25,0,0,0-.33-.09c-.19.14-.41.07-.61.17a1.8,1.8,0,0,1-.52.13,1,1,0,0,1-.76-.24c-.25-.17-.33-.31-.24-.6,0,0,0-.07,0-.11H27.5l-.19.07a12.27,12.27,0,0,1-1.18.5.19.19,0,0,0-.11.12,4.13,4.13,0,0,0-.07.49,3.7,3.7,0,0,1-.07.48c-.07.3-.17.6-.25.89a.25.25,0,0,0,0,.12.35.35,0,0,0,.11,0c.15-.11.29-.24.45-.35a.59.59,0,0,1,.14-.06c0,.05,0,.11,0,.14a2,2,0,0,1-.85.79.2.2,0,0,1-.17,0,.41.41,0,0,1-.27-.52c.12-.5.33-1,.4-1.48,0-.18,0-.42.16-.57,0,0,0-.09,0-.1a1.86,1.86,0,0,0-.42-.29,1.74,1.74,0,0,1-.49-.3.38.38,0,0,0-.47-.06c-.33.19-.67.36-1,.53s-.45.22-.41.53c-.23.48-.33,1-.53,1.51a4.87,4.87,0,0,0-.23.74,1.06,1.06,0,0,0,0,.29l.2-.15s0,0,.07,0a1.15,1.15,0,0,1,.17.06.39.39,0,0,1-.06.11,2,2,0,0,1-.2.21.36.36,0,0,1-.45.11.56.56,0,0,1-.21-.44,3.59,3.59,0,0,1,.22-.84,2.44,2.44,0,0,0,.15-.48c.08-.24.14-.5.24-.73a1.58,1.58,0,0,0,.09-.42c0-.13-.07-.17-.15-.19s-.35-.09-.5.07-.29.3-.45.45a3.49,3.49,0,0,0-.77,1.08A8,8,0,0,0,20,29.09c0,.09.06.21.11.3s.11.05.17,0,.09,0,.13.06,0,.05,0,.07a.38.38,0,0,1-.68-.06c-.06-.1-.1-.22-.27-.1s-.18.17-.3.05-.27-.16-.3-.26a1.28,1.28,0,0,1-.06-.64,6.27,6.27,0,0,1,.3-1.13c.09-.2.13-.42.23-.63s.06-.23.1-.35,0,0,.06-.07a.25.25,0,0,0-.12,0,.71.71,0,0,0-.39.31,3.78,3.78,0,0,0-.48,1.06c-.08.34-.18.69-.24,1a.35.35,0,0,0,.16.41.8.8,0,0,1,.16.08s-.11.07-.15.11-.15.06-.25,0a.44.44,0,0,1-.29-.45,6.18,6.18,0,0,1,.22-1.42,1.83,1.83,0,0,1,.17-.53c.1-.17.11-.37.27-.5,0,0,0-.06,0-.06a1.2,1.2,0,0,0-.79.19c-.34.18-.39.57-.49.91a4.94,4.94,0,0,0-.13.52s0,.89,0,.91c-.06.17.09.27.15.39s0,.12,0,.14-.23,0-.3-.08a1.94,1.94,0,0,1-.13-.3,2.7,2.7,0,0,1,0-1.2,5.35,5.35,0,0,1,.23-1l0-.13s-.08.05-.11.09a.39.39,0,0,0-.06.13,5.17,5.17,0,0,1-.26.69,11.52,11.52,0,0,0-.7,1.61c0,.12-.1.29-.05.38s0,.19-.08.23-.2-.06-.19-.21a3.19,3.19,0,0,1,.11-.63c.09-.31.21-.6.31-.9s.31-.73.41-1.11c0-.16,0-.34.16-.48.3-.31.59-.63.88-.95.05-.05.1-.12.17-.14a6.56,6.56,0,0,0,.83-.54c.14-.08.27-.18.4-.27l.05-.07a.41.41,0,0,0-.11,0c-.2.11-.39.24-.59.33a3.76,3.76,0,0,1-.86.41c-.15,0-.27.08-.28.2s-.16.2-.26.25a2.13,2.13,0,0,1-.43.13.58.58,0,0,0-.49.5,6.91,6.91,0,0,1-.22.74,14.72,14.72,0,0,0-.63,2,1.08,1.08,0,0,0,0,.4s.19,0,.29,0l.09,0s.07.06,0,.12a.66.66,0,0,1-.48.15c-.07,0-.16-.16-.23-.26s0-.1,0-.15c0-.22.11-.42.11-.62a4.15,4.15,0,0,1,.25-.87,6.85,6.85,0,0,0,.29-1.1c0-.12,0-.18-.11-.19l-.09,0,.1-.05s0,0,.07-.05l.08,0-.08,0a1.55,1.55,0,0,1-.37,0c-.14,0-.2,0-.25.12s-.17.38-.26.57a3.72,3.72,0,0,0-.19.34c-.12.28-.22.57-.34.85a1.08,1.08,0,0,0-.11.47c0,.29.19.39.46.28l.24-.11a.29.29,0,0,1,.13,0,.36.36,0,0,1,0,.11.79.79,0,0,1-.83.3.48.48,0,0,1-.27-.27.66.66,0,0,1,0-.44,5.86,5.86,0,0,1,.47-1.25c.24-.42.37-.9.64-1.31,0,0,0-.07,0-.1s-.08,0-.11,0A.49.49,0,0,1,14,26a.41.41,0,0,0-.4.09c-.17.13-.14.31-.2.47a13.37,13.37,0,0,0-.17,1.4c-.06.26,0,.54-.08.77-.15.39-.07.8-.18,1.18l-.06.12s-.13-.07-.13-.11a1.51,1.51,0,0,1,0-.6c.09-.3,0-.59.1-.89s0-.86.08-1.28c0-.23.11-.46.11-.69s.08-.27,0-.37a1,1,0,0,0-.6,0A1.08,1.08,0,0,0,12,27a3,3,0,0,1-.12,1.3c0,.07,0,.18,0,.27l.2-.14a.93.93,0,0,0,.14-.14.75.75,0,0,1,.09-.15s.1,0,.15,0,0,.09,0,.12c-.15.19-.29.38-.45.55a.88.88,0,0,0-.25.57c0,.42,0,.42.34.24a.49.49,0,0,1,.16,0c0,.07,0,.15-.05.19a2.57,2.57,0,0,1-.4.34.13.13,0,0,1-.12,0c-.14,0-.27-.26-.25-.43a1.37,1.37,0,0,0,0-.19l-.13.1-.32.25a.47.47,0,0,1-.51,0,.23.23,0,0,0-.38,0c-.09.12-.17.1-.29,0a.39.39,0,0,0-.44,0,.55.55,0,0,1-.42,0c-.2,0-.5-.41-.43-.58a2.23,2.23,0,0,0,.05-.5c0-.15.09-.3.13-.46.09-.32.17-.65.26-1A2.07,2.07,0,0,1,9,27c.15-.37.09-.82.38-1.15,0,0,0,0,0-.06H9.33s-.1,0-.11,0c0,.19-.19,0-.22.09a.94.94,0,0,1-.09-.12A.1.1,0,0,1,9,25.73l.26-.07a.73.73,0,0,0,.22-.09s.05-.08.08-.13l-.13.06a.57.57,0,0,1-.18,0c-.21,0-.41,0-.61,0a.89.89,0,0,0-.59.28,2.14,2.14,0,0,0-.55,1.24c0,.34-.1.67-.14,1a8.9,8.9,0,0,0,0,1.15c0,.08.1.23.16.23s.31.08.45-.05a1.23,1.23,0,0,1,.31-.19s.11,0,.16,0a.29.29,0,0,1-.08.13,3.51,3.51,0,0,1-.4.27.69.69,0,0,1-.29.13A.58.58,0,0,1,7,29.33a.28.28,0,0,0-.31-.21c-.24,0-.49,0-.55-.36,0-.06-.14-.12-.22-.15a.84.84,0,0,1-.43-.4.68.68,0,0,1-.09-.46c0-.27.09-.54.12-.82s.14-.76.22-1.14v-.13s-.11,0-.13.07a2.57,2.57,0,0,0-.2.65.72.72,0,0,0,0,.26s0,.05-.06,0,0,0-.06-.05a1.52,1.52,0,0,1,.18-.86c0-.06,0-.14.08-.18s.12,0,.18,0,0-.07,0-.08-.13-.13-.2-.13-.12.08-.16.14a2.21,2.21,0,0,1-.16.35.71.71,0,0,0-.17.42,1.43,1.43,0,0,1-.07.28,1.68,1.68,0,0,0-.12.83.37.37,0,0,1,0,.17.53.53,0,0,1,0,.18c-.1.16,0,.3,0,.45s0,.2.19.29c0,0,.08,0,.08,0s0,.11,0,.13a.38.38,0,0,1-.47,0,.57.57,0,0,1-.19-.47c0-.34,0-.69.06-1a3.56,3.56,0,0,1,.09-.57c.07-.29.15-.58.23-.87a.76.76,0,0,0,0-.15l-.12.07s-.06,0-.06,0,0-.14.09-.13.22,0,.24-.17l0-.13c-.06,0-.14,0-.17,0a2.56,2.56,0,0,0-.39.48A5.47,5.47,0,0,0,4.09,27c-.09.35-.14.72-.21,1.07a.18.18,0,0,0,.23.22s.09-.06.13-.06.09.08.09.08-.17.25-.29.29-.32.06-.38-.12a.47.47,0,0,0-.44-.38s-.05,0-.07-.06a.21.21,0,0,0-.33,0,.21.21,0,0,1-.28,0,2.29,2.29,0,0,1-.27-.14.27.27,0,0,0-.33-.05.48.48,0,0,1-.62-.21c0-.17-.14-.34,0-.53a.53.53,0,0,0,.07-.26,1,1,0,0,0,0-.24l-.18.08s-.06,0-.09,0c-.21,0-.23,0-.22.21a1,1,0,0,0,.08.28,2.81,2.81,0,0,1,.17.35.69.69,0,0,0,.21.36l.52.45c.25.23.48.47.75.68a5.55,5.55,0,0,0,1.17.81,4.77,4.77,0,0,1,.55.29,11.61,11.61,0,0,1,1,.63,8,8,0,0,0,2.06,1,13.4,13.4,0,0,0,1.54.55c.39.08.75.25,1.16.3a13.51,13.51,0,0,1,1.36.34c.13,0,.28,0,.4,0,.45.13.89.29,1.33.42l1.11.28a6.45,6.45,0,0,1,1,.21,9.56,9.56,0,0,0,1.07.35c.25.06.5.15.75.2s.44,0,.65.08a1.33,1.33,0,0,0,.88.06.41.41,0,0,1,.19,0l.53.11s.08,0,.12,0-.06-.1-.09-.11a8.1,8.1,0,0,0-1.22-.37c-.46-.07-.87-.25-1.32-.32a5.79,5.79,0,0,1-.71-.21L16,33.61s.1-.06.15,0,.24.09.36.12l1.23.29A.87.87,0,0,0,18,34a1.24,1.24,0,0,0-.18-.14.58.58,0,0,0-.14,0l-.72-.19c-.42-.11-.84-.21-1.25-.33a.67.67,0,0,1-.35-.17c-.05-.06-.16-.06-.25-.08a6.36,6.36,0,0,1-.78-.2,12.51,12.51,0,0,0-2.08-.64l-.13,0,.12,0a4.54,4.54,0,0,1,1.31.25,8.9,8.9,0,0,0,1.26.43,4.51,4.51,0,0,1,.88.28,9.47,9.47,0,0,0,1.08.27c.29.05.56.18.86.24s.59.17.91.22a8.89,8.89,0,0,1,1.48.43c.2.06.21.11.25.34s0,.28.14.29a3.57,3.57,0,0,0,.8,0,6.64,6.64,0,0,1,1.26-.12.6.6,0,0,0,.19,0,1,1,0,0,1,.91.08c.27.12.29.27.07.48a1,1,0,0,1-.29.14l-.17.07-.09,0,.09,0,1.73-.06s.08,0,.11,0c.29-.09.56-.2.85-.27a3.75,3.75,0,0,0,.81-.23,7.42,7.42,0,0,1,1.39-.34c.11,0,.22,0,.28.13s.09.22.3.16l.68-.23,1.09-.38a.28.28,0,0,1,.32.05.32.32,0,0,1,0,.37.52.52,0,0,1-.2.14c-.35.14-.7.27-1.06.39a6.19,6.19,0,0,1-.62.13,4.56,4.56,0,0,0-1.25.45,1.86,1.86,0,0,0-.32.23s0,.07,0,.09a.1.1,0,0,0,.09,0c.33-.08.66-.17,1-.23a5.64,5.64,0,0,0,.86-.33c.35-.13.7-.28,1.06-.38s.62-.36,1-.39c0,0,.06-.07.1-.09a.81.81,0,0,1,.77-.08s0,0,0,.06a.62.62,0,0,1,0,.13l.11,0,.19-.08.25-.1s0-.05.06-.07l-.09,0a2.3,2.3,0,0,1-.78-.07,2.84,2.84,0,0,1-1.18-.61s-.05,0-.08,0l-.6-.19c-.27.18-.62-.07-.89.18,0,0-.1,0-.15,0a.91.91,0,0,1-.14-.07s.08-.1.13-.12a2.16,2.16,0,0,1,.27,0,2.12,2.12,0,0,1,1.6.15c.24.14.48.29.73.41a2.78,2.78,0,0,0,1.77.1c.3-.08.62-.11.93-.16.06,0,.16,0,.18,0s.26-.11.41-.12.27,0,.41,0a5.44,5.44,0,0,1,1.14,0c.39.08.79,0,1.18.1a2.32,2.32,0,0,0,.58,0,3.65,3.65,0,0,1,.74,0c.26,0,.47-.13.71-.14s.25,0,.23.19,0,.12.08.11a5.33,5.33,0,0,0,1-.28,2.48,2.48,0,0,1,1-.21c.06,0,.17,0,.19.06.07.2.24.16.36.12l1-.27a7.24,7.24,0,0,0,.79-.25.45.45,0,0,1,.45.06c.19.15.34.07.51,0l.2-.14a9.14,9.14,0,0,0,1.66-1c.14-.12.34-.13.41,0a.44.44,0,0,1-.1.5l-.11,0L47,33s0,0,0,.07S47,33,47,33a2.17,2.17,0,0,0,.35-.15c.25-.14.48-.28.73-.41s.64-.27.94-.44.73-.46,1.09-.69c.2-.13.4-.23.59-.36A.21.21,0,0,1,51,31c.1.1.06.18,0,.26s-.17.18-.27.27-.18.13-.26.21a.3.3,0,0,0-.07.11c.05,0,.11,0,.15,0,.27-.17.52-.35.78-.51s.78-.47,1.15-.71c.12-.08.16,0,.2.06a.45.45,0,0,1-.11.41,14.53,14.53,0,0,1-1.36.9,3.68,3.68,0,0,0-.39.3s0,0,0,.07.06,0,.09,0a.21.21,0,0,0,.11,0l1.36-.91c.3-.2.6-.4.91-.59s.32-.08.39,0a.37.37,0,0,1-.06.48,13.16,13.16,0,0,1-1.14.82,4.35,4.35,0,0,1-.74.46,1.06,1.06,0,0,0-.44.4.15.15,0,0,0,0,.07h.06c.06,0,.15,0,.19-.07.41-.35.91-.56,1.33-.91s1-.71,1.48-1c.27-.19.53-.38.81-.54a.44.44,0,0,1,.32,0s.06.16.08.24a.24.24,0,0,1-.1.25c-.22.2-.43.41-.66.59s-.51.35-.77.52a3.84,3.84,0,0,0-.85.65c-.15.16-.33.29-.49.43l-.07.09a.25.25,0,0,0,.12,0,1.37,1.37,0,0,0,.51-.32c.45-.32.92-.62,1.37-.95s.72-.57,1.1-.83.76-.48,1.14-.72a3.21,3.21,0,0,1,.3-.21.42.42,0,0,1,.25,0c.05,0,.13.1.12.13a1.47,1.47,0,0,1-.22.41c-.37.35-.74.68-1.12,1a3.23,3.23,0,0,1-.43.29c-.06,0-.16,0-.21.1a4.53,4.53,0,0,1-.88.75c-.05,0-.08.1-.12.15l.24,0s.08-.06.12-.09c.28-.14.57-.27.85-.43a10.8,10.8,0,0,1,1.17-.72,2.74,2.74,0,0,0,.36-.23c.34-.21.68-.43,1-.63s1-.54,1.46-.81c.19-.1.36-.07.4.12s.12.15.24.07A1.56,1.56,0,0,1,61,30a.3.3,0,0,1,.25,0,.31.31,0,0,1,0,.25,1.23,1.23,0,0,1-.52.64c-.26.12-.42.38-.7.47,0,0,0,.05,0,.08s.06,0,.08,0l1.33-.67a2,2,0,0,0,.47-.34c.29-.29.6-.56.89-.84.09-.09.14-.1.23,0s.16.12.36.06.45-.34.62-.57a2.19,2.19,0,0,1,.66-.73c.31-.17.62-.34.94-.48l.1,0v0a.18.18,0,0,1-.11-.05c0-.1,0-.09.11-.1s.25,0,.27,0,.21-.17.32-.23.41-.33.64-.45a.42.42,0,0,0,.26-.44.58.58,0,0,1,.26-.53c.13-.09.21-.26.41-.24,0,0,.09-.06.1-.11,0-.24.21-.29.41-.33a1.13,1.13,0,0,0,.41-.16,7.72,7.72,0,0,0,.61-.53c.14-.13.28-.27.41-.41s0-.06,0-.09-.09,0-.1,0a.32.32,0,0,1-.41,0,.22.22,0,0,0-.27,0,.7.7,0,0,0-.38.34s-.06.07-.1.1c-.36.27-.65.61-1,.86s-.46.43-.7.62a5,5,0,0,1-.69.44.5.5,0,0,1-.28.05s-.08-.05-.11,0a4.87,4.87,0,0,0-.72.28c-.21.11-.38.3-.59.44a.59.59,0,0,1-.39.13.62.62,0,0,0-.55.17,2.24,2.24,0,0,1-.66.48c-.13.05-.25.09-.35,0s-.19-.14-.32,0a.38.38,0,0,1-.24,0,1,1,0,0,0-.79.34c-.23.16-.5.21-.67,0s-.07-.1-.15,0-.39.23-.55.37a.36.36,0,0,1-.41.09c-.18-.11-.31,0-.45.06a4.62,4.62,0,0,0-.57.24c-.15.09-.25,0-.35-.09s0-.17,0-.25l.1-.15a.2.2,0,0,0,0-.08.27.27,0,0,0-.12,0s-.05,0-.08,0c-.2.09-.41.2-.62.28a.45.45,0,0,1-.28,0c-.08,0-.19-.19-.17-.22a2.07,2.07,0,0,1,.44-.53,4.11,4.11,0,0,0,.45-.38l0-.06s-.07,0-.09,0a2.46,2.46,0,0,0-.42.23,4.79,4.79,0,0,1-1.56.71c-.13,0-.29-.05-.43-.09a.18.18,0,0,1,0-.15c.06-.11,0-.13-.08-.13l-.15,0a1.31,1.31,0,0,1-1-.11.57.57,0,0,0-.26,0,4,4,0,0,1-.73.16,4.44,4.44,0,0,1-1.36-.06s-.1,0-.15,0H51s-.07,0-.09,0a.45.45,0,0,1-.46,0,.51.51,0,0,0-.27,0c-.12,0-.23.06-.35.09l-.65.13c-.25,0-.5.09-.75.12a.11.11,0,0,1-.11-.06c0-.05,0-.1.07-.13a6.39,6.39,0,0,1,1-.19c.25,0,.5-.07.75-.13a2.59,2.59,0,0,1,.78-.12.7.7,0,0,0,.29,0,1.79,1.79,0,0,1,.79-.12,7.39,7.39,0,0,0,1.33-.11,7.59,7.59,0,0,0,1-.36c.12-.06.19,0,.26,0a1.84,1.84,0,0,0,.17.22.18.18,0,0,0,.15.06,5.23,5.23,0,0,0,1-.44c.1-.07.27-.18.4-.06s.22.19.45.09.76-.21,1.12-.4a5.35,5.35,0,0,1,.67-.24l.26-.07c.5-.17,1-.35,1.51-.54l2.1-.81,1.22-.46.76-.32a8.48,8.48,0,0,0,.86-.41,1.1,1.1,0,0,1,.54-.24s0-.08.09-.12l.37-.19L67,23a.12.12,0,0,0,0-.08.26.26,0,0,0,0-.05,1.25,1.25,0,0,0-.31.11,2.38,2.38,0,0,1-.79.41.8.8,0,0,0-.37.22.48.48,0,0,1-.31.15,1.63,1.63,0,0,0-.66.19.48.48,0,0,1-.2.07,3.27,3.27,0,0,0-1,.31,10.24,10.24,0,0,1-1,.33c-.35.12-.69.25-1,.36a4.52,4.52,0,0,1-.61.15,1.12,1.12,0,0,0-.68.3.64.64,0,0,1-.52.22,6,6,0,0,0-.74.07c-.17,0-.33.09-.5.12l-.84.13-.65.07c-.41.06-.82.14-1.23.18s-.95.06-1.42.07c-.31,0-.62-.08-.93-.05a2.82,2.82,0,0,1-.82,0c-.18-.05-.4,0-.57,0s-.35,0-.53,0l-.68,0c-.65-.06-1.3-.06-2-.08-.1,0-.22.07-.32.05a1.51,1.51,0,0,0-.79,0,1.22,1.22,0,0,1-.46,0c-.09,0-.22-.05-.27,0a.51.51,0,0,1-.43,0c-.11,0-.2,0-.3,0a1.49,1.49,0,0,0-.36.05l-.64.07c-.09,0-.11,0-.11-.11s0-.1.12-.06a.22.22,0,0,0,.16,0,.81.81,0,0,1,.22-.07L46.75,26a16.63,16.63,0,0,0,2.12-.06,5.14,5.14,0,0,1,.55.06c.61,0,1.2,0,1.81.06s1.19,0,1.79,0,1.14,0,1.7,0,1.12-.12,1.68-.14a5.26,5.26,0,0,0,.78-.12,1.11,1.11,0,0,0,.19-.09,1,1,0,0,1-.07-.15c-.09-.21-.06-.22.12-.36s.56-.14.84-.23c.08,0,.11,0,.06.11a1.2,1.2,0,0,1-.23.22,1.59,1.59,0,0,1-.26.14.46.46,0,0,1-.07.07l.08,0,.33-.06,1.4-.26s0,0,0-.06,0-.06,0-.06h-.12a.18.18,0,0,1-.08-.07s.06-.06.08-.05a1.36,1.36,0,0,0,.79-.21c.39-.18.82-.27,1.2-.49s.51-.18.75-.3a9,9,0,0,0,1.34-.61c.13-.09.27,0,.4-.15s.56-.27.77-.53c0,0,.08,0,.12,0a.39.39,0,0,0,.32-.32.55.55,0,0,1,.48-.47.49.49,0,0,0,.34-.25.49.49,0,0,1,.26-.27c.08-.05.18-.11.19-.17,0-.29.3-.31.48-.35s.31.11.42.25a.91.91,0,0,1,.11.16,1.66,1.66,0,0,0,0-.22s0-.07,0-.11-.11-.21-.08-.28a1,1,0,0,0,0-.53.35.35,0,0,1,.17-.26.26.26,0,0,1,.34.1l.11.17,0,0s0,0,0-.05l0-.21c0-.16,0-.32-.09-.48s.13-.21.15-.21c.26.11.49-.08.73-.06a1.49,1.49,0,0,1,.39.13h.07c0-.12-.12-.44-.24-.46l-.75-.13a4,4,0,0,1-.46-.13l-.06-.05s.06-.08.09-.07a2.25,2.25,0,0,1,.36.06,4.61,4.61,0,0,0,1.11.19.44.44,0,0,1,.25.08,3.34,3.34,0,0,1,.65.59c.21.3.57.57.35,1,0,0,0,.1.06.12a.13.13,0,0,0,.12,0,1.6,1.6,0,0,0,.23-.16c.07-.06.18-.11.21-.19S71,20,71,19.93s0-.12-.08-.19l-.12-.27c-.18-.33-.39-.65-.54-1a.65.65,0,0,0-.42-.38,6.28,6.28,0,0,0-.86-.31c-.22-.08-.43-.15-.65-.21l-1.22-.3a3.33,3.33,0,0,0-1-.22A.68.68,0,0,1,65.8,17s0,0,0,0,0-.07,0-.06a3.3,3.3,0,0,1,.64.08,9.36,9.36,0,0,0,1.15.23c.26,0,.53.08.78.15.66.2,1.32.42,2,.64a1.07,1.07,0,0,1,.22.15l.22.16a2.06,2.06,0,0,1,.51.4c.16.23.46.39.44.74a.17.17,0,0,0,.1,0,.6.6,0,0,0,.09-.6,5.58,5.58,0,0,1-.5-1c-.11-.34-.13-.33.17-.53h0s.12-.07,0-.16a4.46,4.46,0,0,0-.71-.52,12,12,0,0,0-1.75-1,4.73,4.73,0,0,0-.85-.29,1.36,1.36,0,0,0-.8,0l-.1,0s.08.07.12.07a3.32,3.32,0,0,1,1.13.3,8.54,8.54,0,0,1,1.9.92,1.53,1.53,0,0,1,.54.7.72.72,0,0,1,0,.33,1.09,1.09,0,0,1-.26-.21,2.7,2.7,0,0,0-1-.85,7.62,7.62,0,0,0-.9-.46l-1.51-.55a.83.83,0,0,0-.62,0c-.48.17-.91.44-1.4.58-.07,0-.12.13-.18.2a.49.49,0,0,0-.06.17c0,.15-.13,0-.2.07s0,0-.06,0l.14-.07,0,0s0,0,0,0a1.79,1.79,0,0,0-.47,0c-.39.16-.77.35-1.17.51-.24.1-.46.3-.74.29,0,0-.08,0-.07,0,.06.22-.17.16-.24.2l-.24.12a2.67,2.67,0,0,1-.72.35,1.84,1.84,0,0,0-.81.29s-.1,0-.11,0-.22,0-.33,0l-.63.17c-.21.05-.45.05-.61.24s-.18.09-.28.06a.55.55,0,0,0-.5,0,.75.75,0,0,1-.33.07,2.87,2.87,0,0,0-.86.18l-.86.14a6,6,0,0,1-.61.09,4.66,4.66,0,0,1-1,.17,1.7,1.7,0,0,0-.54.09c-.37.12-.77.11-1.16.21a8.54,8.54,0,0,1-1.25.15c-.21,0-.42,0-.62.06s-.63.14-1,.19-.79.08-1.19.13c-.18,0-.35.1-.53.13a2.76,2.76,0,0,1-.64,0c-.07,0-.12,0-.18,0s-.05,0-.08,0,0-.05,0-.06a.3.3,0,0,1,.11,0,2.51,2.51,0,0,0,.62-.08A15.08,15.08,0,0,1,50,20.08a3.09,3.09,0,0,0,.63-.09,2.39,2.39,0,0,1,.77-.15c.5-.06,1-.13,1.49-.21a4.48,4.48,0,0,0,.64-.08,4.51,4.51,0,0,1,.89-.17c.11,0,.26,0,.27-.13s-.12-.14-.23-.13,0,0-.07,0,0-.06.07-.06.13,0,.15,0a2,2,0,0,0,.09-.22l-.15,0a.6.6,0,0,0-.19.06c-.28.13-.56.27-.84.38a.42.42,0,0,1-.31,0c-.06,0-.07-.16-.11-.23A.18.18,0,0,0,53,19a2.36,2.36,0,0,1-.75.07.35.35,0,0,1-.35-.15.25.25,0,0,0-.33-.09,14.06,14.06,0,0,1-2.3.57,2.26,2.26,0,0,1-1.11-.15,1.24,1.24,0,0,0-.53-.12h-.26a1.5,1.5,0,0,0-.63,0,5.13,5.13,0,0,0-.66.13.58.58,0,0,1-.61-.08c.19-.09.41,0,.6-.11.34-.11.68-.2,1-.29a1.11,1.11,0,0,1,1,0,1,1,0,0,0,.53.19,3,3,0,0,0,1.33-.11c.11-.05.24,0,.35-.07s.43-.17.63-.26a4.23,4.23,0,0,0,.57-.27.47.47,0,0,1,.72.14c0,.06.11.13.15.13a2.13,2.13,0,0,0,.5-.11c.24-.07.46-.19.69-.27s.41-.23.66-.19a.46.46,0,0,1,.22.15s0,.11-.07.17l-.16.22a.36.36,0,0,1,0,.09s.09,0,.12,0l.38-.19.56-.26c.27-.14.54-.3.81-.45.44-.25.91-.45,1.33-.74a.73.73,0,0,1,.54-.15c.06,0,.1.08.15.13-.16.07-.07.31-.26.38a4.71,4.71,0,0,0-.58.32c-.3.17-.61.33-.91.51a2.34,2.34,0,0,0-.3.25s0,.08,0,.12.08,0,.11,0,.35-.14.51-.22c.43-.21.87-.41,1.27-.65L59,17c.33-.21.67-.41,1-.59a7,7,0,0,0,.8-.54.67.67,0,0,1,.36-.14c.14,0,.15.06.13.16a.79.79,0,0,1-.39.49,5.35,5.35,0,0,0-1.17.95.49.49,0,0,0,0,.11.22.22,0,0,0,.11,0l.58-.31a4.93,4.93,0,0,0,.63-.5c.35-.26.74-.47,1.1-.73s.9-.68,1.34-1a.32.32,0,0,1,.31,0c.07,0,.16.08.2,0a2.24,2.24,0,0,0,.65-.48.32.32,0,0,1,.33-.14c.18,0,.18,0,.1.19a.49.49,0,0,0,0,.17.41.41,0,0,0,.19,0c.15-.13.29-.27.43-.41s.51-.52.77-.77c.08-.08.19-.13.27-.21A1.38,1.38,0,0,0,67,12.9c.13-.22.12-.22.37-.15s.21.05.29-.05a5.57,5.57,0,0,0,.52-.78c.07-.15.08-.14.18-.05s.11.1.15.15.14.16.23,0a1.33,1.33,0,0,1,.33-.34,2.53,2.53,0,0,0,.54-.68.16.16,0,0,1,.09-.08c.23,0,.28-.1.29-.29a.26.26,0,0,1,.09-.15.44.44,0,0,0,.29-.48c0-.09,0-.11.11-.11a1,1,0,0,0,.22-.06l-.2-.1-.25-.16c-.08-.06-.15-.14-.24-.2s-.45-.29-.68-.43a.42.42,0,0,0-.13-.07c-.34-.07-.59-.33-.94-.37a4.44,4.44,0,0,1-.71-.21,4.68,4.68,0,0,0-1.23-.13c-.32,0-.63.07-.94.06a4.78,4.78,0,0,0-1.4.34c-.16.21-.3.08-.44,0s-.12-.07-.17,0l-.75.27c-.23.1-.43.28-.71.24,0,0,0,0-.07,0-.43.22-.9.3-1.33.53a2.36,2.36,0,0,0-.73.45.73.73,0,0,1-.55.2l-.14,0,.08-.09a.2.2,0,0,0,0-.11s0,0,0,0a.8.8,0,0,0-.31.09,4.17,4.17,0,0,1-.72.29c-.24.12-.51.19-.77.29s-.57.24-.85.34c-.51.19-1,.4-1.5.57-.72.24-1.4.6-2.13.83a14,14,0,0,0-1.34.55l-.57.24s-.1,0-.15,0,0-.07.09-.09a8,8,0,0,1,.94-.44c.36-.15.74-.28,1.11-.41s.7-.37,1.08-.49a12,12,0,0,1,1.61-.6s.1-.11.09-.16a.1.1,0,0,0-.17-.06.48.48,0,0,1-.18,0,2.94,2.94,0,0,0-.82.18,1,1,0,0,1-.35.07c-.25.05-.5.09-.74.15a6.08,6.08,0,0,1-1.64.24,1,1,0,0,0-.25,0,5.75,5.75,0,0,1-1.17.13.87.87,0,0,0-.42.05.87.87,0,0,1-.45.07.61.61,0,0,0-.27,0c-.1,0-.22-.05-.33-.06a2.08,2.08,0,0,0-.35,0c-.13,0-.27.08-.39.05s-.41.06-.62,0c-.32.19-.68,0-1,.12a.69.69,0,0,1-.24,0l.22-.09h.06l1-.13.55-.07a5.7,5.7,0,0,1,.58-.06,12.8,12.8,0,0,0,1.52-.12c.29,0,.58,0,.87-.06s.76-.07,1.14-.13a2.11,2.11,0,0,0,1-.26c.1-.07.26-.05.39-.07a1.67,1.67,0,0,0,.32-.08c.08,0,.16-.1.24-.11a3.26,3.26,0,0,0,.81-.29,2.39,2.39,0,0,1,.44-.18,1.42,1.42,0,0,1,.41,0c.28,0,.46-.24.72-.28.28-.29.7-.37,1-.64A2.21,2.21,0,0,0,57.82,9c.12-.14.31,0,.42-.16A6.39,6.39,0,0,0,59,8.14c.1-.12.24-.16.3-.11s.25,0,.35-.07A3.92,3.92,0,0,1,60,7.71c.1-.08.32-.12.36,0s.18.06.25,0,.13-.17.2-.24,0-.2.17-.18.21,0,.28.1.15.07.19,0a.84.84,0,0,0,.06-.14c.11-.33.12-.34.44-.2C62,7,62,7,62,6.93A.15.15,0,0,0,62,6.68a1.85,1.85,0,0,0-.52-.06c-.15,0-.28,0-.43,0s-.34,0-.51,0a2.35,2.35,0,0,1-1.17-.21.54.54,0,0,0-.61.08.53.53,0,0,0-.11.14c-.14.26-.51.26-.61.57,0,0,0,0,0,0l-1.35.54a.91.91,0,0,1-.31.09,1.21,1.21,0,0,0-.69.2c-.07,0-.18.09-.23.06-.26-.16-.44.17-.68.09-.1.16-.26.1-.41.11a1.31,1.31,0,0,0-.28,0c-.34.08-.69.15-1,.26s-.75.1-1.12.23a9.52,9.52,0,0,1-1.43.28l-.88.19a5.63,5.63,0,0,1-.91.18c-.3,0-.58.13-.87.17-.51.07-1,.26-1.52.36L45.9,10c-.17,0-.35.06-.53.11a6.07,6.07,0,0,1-1,.21.25.25,0,0,1-.11,0s.06-.07.09-.08c.2-.05.39-.1.59-.13s.6-.27,1-.2c.44-.2.93-.22,1.38-.38a1.4,1.4,0,0,1,.52-.12c.43,0,.8-.21,1.22-.24.26,0,.49-.2.77-.16a1.39,1.39,0,0,0,.38-.09l-.37-.1a.28.28,0,0,0-.16,0c-.17.16-.37,0-.53.06-.41-.16-.86-.06-1.27-.18,0,0-.07,0-.11,0l.06.09.06,0a.28.28,0,0,1,.12.35.29.29,0,0,1-.37,0,2.15,2.15,0,0,0-1-.22c-.11,0-.25-.09-.32-.05s-.22,0-.34,0a1.14,1.14,0,0,0-.54-.05,2.31,2.31,0,0,1-1.11,0,12.06,12.06,0,0,1-1.33-.16.82.82,0,0,0-.46,0A.74.74,0,0,1,42,8.59a2,2,0,0,1-.86-.25L41,8.3s0-.07.07-.07l.58,0s.07,0,.11,0l-.11,0-.08,0,.06,0,.61.06.09,0-.09,0-.17-.06-.05,0s0,0,.05,0,.27,0,.37,0a1.67,1.67,0,0,0,.73.11,1.62,1.62,0,0,1,.44,0,3.68,3.68,0,0,0,1.23.12,11,11,0,0,0,1.9-.06c.19.09.22,0,.22-.17s.08-.12.2-.09a6.84,6.84,0,0,0,2.07.26l.34,0,.53,0s0,0,.06,0,0-.07-.07-.07l-.8-.07h-.48a.21.21,0,0,1-.12,0,.32.32,0,0,1,.21-.42c.17,0,.34.05.49-.06a.3.3,0,0,1,.18,0l.93.23H52l.14,0C52.06,8,52,8,52,8a7,7,0,0,1-1.27-.26c-.09,0-.22-.06-.26-.13a.53.53,0,0,1,0-.33s.12-.11.19-.11a1,1,0,0,1,.66.11.78.78,0,0,0,.35.07c.23,0,.47,0,.71.07l1.17.26.1,0s0-.08-.06-.08c-.31-.12-.59-.27-.89-.41s-.26-.1-.25-.35.16-.33.39-.19l.53.27c.08,0,.13,0,.09-.09s0-.21,0-.31.12-.17.27-.11c.38.16.77.3,1.16.45l.57.25a.51.51,0,0,0,.17,0,1.09,1.09,0,0,0,0-.17,0,0,0,0,0,0,0c-.35-.17-.57-.53-1-.65a.12.12,0,0,1,0-.1c0-.06,0-.11,0-.17,0-.25.05-.28.29-.24a1.51,1.51,0,0,1,.48.16c.23.13.43.3.65.45,0,0,0,0,.08-.07s.07,0,.11,0h.06a.14.14,0,0,1-.06-.07c-.11-.09-.22-.19-.34-.27a1.52,1.52,0,0,0-.56-.32c-.34,0,0-.31-.19-.38,0-.07.09-.14.14-.2a.22.22,0,0,1,.11,0c.4.2.86.23,1.25.47,0,0,.1,0,.15,0l-.12-.09a3.62,3.62,0,0,1-.32-.22c-.05,0-.1,0-.12-.1-.12-.28,0-.48.35-.47,0,0,.11,0,.12,0s.19.05.22,0a.2.2,0,0,0-.07-.28,2.39,2.39,0,0,0-.43-.2,6.5,6.5,0,0,0-.86-.25,7.2,7.2,0,0,0-1.31-.34,1,1,0,0,1-.38-.08,3.41,3.41,0,0,0-1.09-.22,12.45,12.45,0,0,1-1.36-.23,10.3,10.3,0,0,1-1.21-.23l-.52-.13c-.1,0-.2,0-.3-.06a2.09,2.09,0,0,1-.25,0,3.35,3.35,0,0,1-.54-.16,1.7,1.7,0,0,0-.55,0,3.59,3.59,0,0,1-1.3-.26c-.19-.07-.26-.19-.19-.37a.66.66,0,0,1,.15-.22L47.25,1a.44.44,0,0,0,.06-.1l-.1-.05L46.82.77c-.36,0-.73-.07-1.1-.13A8.79,8.79,0,0,0,44.37.52a2,2,0,0,0-.91.06c-.24-.15-.51.14-.75,0a3.41,3.41,0,0,1-1,0c-.3,0-.61.07-.91.06a5.23,5.23,0,0,1-1,0,.25.25,0,0,0-.12,0c-.05,0-.1,0-.13,0-.27-.14-.52.05-.78,0s-.51.05-.75,0a.26.26,0,0,0-.21,0c-.09,0-.25.08-.31,0s0-.09.09-.12,0,0,0,0-.1,0-.12,0A.32.32,0,0,1,37,.73s-.11,0-.17,0-.13,0-.17,0-.29,0-.44,0-.17.08-.19.06c-.16-.18-.32,0-.49,0H34.4a2.22,2.22,0,0,1-.45,0,3,3,0,0,0-.73,0,2.85,2.85,0,0,1-.4,0c-.1,0-.2-.12-.3,0C32.43.79,32.3.84,32.2.84c-.85,0-1.7,0-2.54.06-.37,0-.76-.05-1.12,0a7.36,7.36,0,0,1-1.4.12A1.2,1.2,0,0,0,27,1c-.25,0-.5.1-.75.12s-.41,0-.56,0-.36-.06-.48.12a8.15,8.15,0,0,0-1.3.19c-.4.08-.8.13-1.2.19l-.29.06-.93.18a8,8,0,0,0-.81.2,8.64,8.64,0,0,1-.85.19,3.12,3.12,0,0,1-.65.13c-.4,0-.74.2-1.13.23a1.7,1.7,0,0,0-.37.1c-.12,0-.28.16-.36.12s-.23.06-.34.08a3.67,3.67,0,0,0-1,.34c-.37.17-.74.34-1.12.48s-.66.21-1,.34a2,2,0,0,1-.92.25c-.06,0-.11,0-.17.06l-.27.13c-.19.08-.39.14-.58.23a7.44,7.44,0,0,0-1.37.78l-.29.22c-.11.08-.24.1-.3,0a.5.5,0,0,1,0-.32s.08-.09.13-.12a6.87,6.87,0,0,1,1.4-.72s.06-.06.08-.09-.06,0-.08,0l-.65.13s0,.06,0,.08l-.18.1a1.54,1.54,0,0,1-.34.17c-.31.08-.57.32-.92.29A.48.48,0,0,0,9,5.35c-.25.29-.64.26-.93.48s-.68.36-1,.59a4.24,4.24,0,0,1-.79.51,1.74,1.74,0,0,0-.75.77,1.17,1.17,0,0,0,0,1.2c.15.27.18.58.31.87a3.9,3.9,0,0,1,.2.71.88.88,0,0,1,0,.35c0,.1-.15.17-.23.25s-.16.26,0,.33a3.16,3.16,0,0,1,.53.42,7.84,7.84,0,0,0,.93.55c.6.31,1.22.61,1.84.9.36.17.75.3,1.12.46s.49.13.71.22a3.43,3.43,0,0,0,.81.2c.45.06.9.18,1.36.2s.93.08,1.39.13.64,0,1,.06a8.92,8.92,0,0,0,1.16.08.48.48,0,0,1,.12,0,2.74,2.74,0,0,0,.85.13c.23,0,.46.08.69.11l.37.05c.09,0,.16.09.29,0s.23,0,.35,0a1.85,1.85,0,0,0,.9-.16c.27-.1.36,0,.38.27a.28.28,0,0,1-.21.33,16.84,16.84,0,0,0-1.68,1s0,.06,0,.08h.09c.54-.22,1.09-.44,1.64-.68l1.05-.47c.13-.05.22,0,.24.16a.26.26,0,0,1-.1.28l-.22.16s-.13.09,0,.1.12.05.15,0,.19,0,.21.12a1.62,1.62,0,0,0,0,.22s.07.07.1.06l1.49-.65.48-.23a.16.16,0,0,1,.23.14.45.45,0,0,1-.15.42,2.12,2.12,0,0,0-.47.6,1.11,1.11,0,0,0-.07.16h.17l.14,0c.21-.09.48,0,.64-.23a.09.09,0,0,1,.06,0c.31,0,.54-.18.81-.28a1.86,1.86,0,0,1,.86-.17.27.27,0,0,1,.18.1.89.89,0,0,1,.08.29c0,.1,0,.24,0,.3s.2,0,.3,0a.66.66,0,0,0,.2,0c.42-.15.87-.2,1.3-.33a.72.72,0,0,1,.81.19,1.17,1.17,0,0,0,.86.4c.61,0,1.22,0,1.83-.06,0,0,.05,0,.07,0a2.65,2.65,0,0,1,1-.13A1.2,1.2,0,0,0,33,17l1.19-.32s.08,0,.12,0-.05.1-.08.11-.31.09-.46.14a5,5,0,0,1-1.37.32.8.8,0,0,0-.21,0c-.12,0-.25.06-.38.07a3.2,3.2,0,0,0-.64.08c-.38.14-.77,0-1.13.1A2.45,2.45,0,0,1,28.69,17a.2.2,0,0,0-.25-.05A1.13,1.13,0,0,1,28,17a2.13,2.13,0,0,0-.82.26.19.19,0,0,0-.1.12c-.06.33-.39.35-.59.52,0,0-.06,0-.08,0a.14.14,0,0,1,0-.09l.33-.27s.05-.09.07-.14-.12,0-.15,0a.49.49,0,0,1-.41,0c-.07,0-.15-.08-.2-.06-.47.18-1,.27-1.46.42a3.82,3.82,0,0,1-.71.21,9.11,9.11,0,0,0-1.26.37c-.36.1-.7.28-1.06.39a2.3,2.3,0,0,1-1.13.21c-.44-.08-.58-.22-.37-.64a2.15,2.15,0,0,1,.6-.78.08.08,0,0,0,0-.08s0,0-.07,0h-.09c-.34.11-.68.22-1,.31a.57.57,0,0,1-.36-.06.35.35,0,0,0-.32,0,7.87,7.87,0,0,0-1.08.56,4.26,4.26,0,0,1-.78.37.62.62,0,0,1-.38,0,.56.56,0,0,1-.33-.28c-.08-.15,0-.2.07-.29a1,1,0,0,1,.15-.29,7.18,7.18,0,0,1,1.07-1.2c.07-.08.21-.21.19-.25s-.18,0-.29,0a.7.7,0,0,0-.34.1c-.46.25-.91.53-1.37.78a5.85,5.85,0,0,1-.68.3c-.24.09-.32,0-.45-.18a.42.42,0,0,1,.05-.51c.17-.21.36-.41.54-.61s.52-.55.77-.83a.25.25,0,0,0,0-.07s-.07,0-.09,0-.26.18-.4.26a6.91,6.91,0,0,0-.83.53c-.33.28-.7.46-1,.7a.12.12,0,0,1-.1,0,.3.3,0,0,1-.18-.5l.75-1a.11.11,0,0,0,0-.06.14.14,0,0,0-.09,0l-.12.08c-.26.16-.5.35-.76.49a4.72,4.72,0,0,0-.73.41,4.43,4.43,0,0,1-1,.73.48.48,0,0,1-.58-.08.22.22,0,0,1,0-.34l.61-.74.07-.09s-.09,0-.12,0a1.39,1.39,0,0,0-.21.11,3.56,3.56,0,0,1-.62.36,10.14,10.14,0,0,0-1.08.58,9.44,9.44,0,0,0-.9.45.36.36,0,0,1-.41-.09c-.13-.12,0-.25.07-.35a1.59,1.59,0,0,0,.13-.13l.79-.72c.17-.15.34-.28.51-.41a.29.29,0,0,0,.15-.19v-.06a.22.22,0,0,1-.07.06m12.25,2.95a1.32,1.32,0,0,0,.33,0c.25-.11.53-.17.79-.26.51-.17,1-.31,1.55-.43a4.7,4.7,0,0,1,1.1-.29.46.46,0,0,0,.26-.13s0-.12,0-.18a.37.37,0,0,1,0-.14c0-.12,0-.21-.15-.17s-.46.14-.68.23-.63.27-1,.37-.52.28-.85.22a.52.52,0,0,1-.42-.26c0-.07-.1-.13,0-.24a3.64,3.64,0,0,0,.35-.52.45.45,0,0,0,0-.11l-.09,0c-.28.1-.55.2-.83.32a6.74,6.74,0,0,0-.72.34c-.43.23-.65.66-1,1a1.61,1.61,0,0,0-.24.34c0,.07-.08.17.08.18a3.23,3.23,0,0,0,1.41-.26M22.58.77,22.06.9,21.43,1a5.16,5.16,0,0,1-.77.13,1.8,1.8,0,0,0-.81.14c-.17.1-.32,0-.47.06a.47.47,0,0,1-.2.06,3.24,3.24,0,0,0-1,.2c-.11,0-.22.09-.33.12a2.32,2.32,0,0,0-1,.32,3.19,3.19,0,0,1-.38.26c-.38.21-.78.39-1.17.57s-1,.44-1.53.65l-.08,0a.18.18,0,0,0,.09,0,.41.41,0,0,0,.19,0l.65-.22c.45-.14.87-.37,1.31-.54A5.65,5.65,0,0,1,17,2.45,14,14,0,0,0,18.87,2c.37-.1.75-.16,1.12-.24l.76-.17a6.59,6.59,0,0,1,.9-.23c.53,0,1.05-.16,1.57-.25A2.44,2.44,0,0,0,23.69,1,5.42,5.42,0,0,1,25.14.77a.61.61,0,0,0,.19,0,3.35,3.35,0,0,1,.84-.13,2.63,2.63,0,0,0,.39-.06l.09,0-.1,0a9.24,9.24,0,0,0-1.17,0A12.63,12.63,0,0,1,24,.64c-.07,0-.16,0-.22,0a3.31,3.31,0,0,1-1.2.12m-9.3,14.5.62-.36s0-.07,0-.11-.06,0-.1,0a8.68,8.68,0,0,1-1.35-.12,6.79,6.79,0,0,1-1.11-.2.81.81,0,0,0-.41,0s0,.17,0,.26v0c-.23.28-.38.61-.72.79a2.55,2.55,0,0,0-.4.27l-.76.57-.21.18.32-.05a.42.42,0,0,0,.13-.07,8.05,8.05,0,0,1,.91-.5,5.88,5.88,0,0,0,1.06-.62c.17-.12.33-.26.51-.38a.46.46,0,0,1,.28-.09c.06,0,.09.17.1.26a1,1,0,0,1-.39.92c-.12.11-.26.19-.39.29l0,0s0,0,.05,0a.36.36,0,0,0,.18,0c.2-.12.39-.26.59-.36a6.24,6.24,0,0,0,1.13-.71m57.09.58c.4.22.8.44,1.18.7.21.15.44.28.48.58a.37.37,0,0,0,.33.33h.12s0-.07,0-.09-.14-.31-.25-.44a.29.29,0,0,1,0-.33.33.33,0,0,0-.09-.4,2.6,2.6,0,0,1-.33-.4c0-.06-.09-.15-.15-.19-.25-.18-.5-.34-.76-.5,0,0,0,0-.08,0a5.83,5.83,0,0,0-.89-.23,3.82,3.82,0,0,0-.69-.11,3.47,3.47,0,0,0-1,.34l-.07,0,.08,0,.33.06c.27.06.53.16.8.24a5.87,5.87,0,0,1,1,.41m-53.88-.64c-.18.21-.34.44-.53.64s-.6.65-.9,1A.59.59,0,0,0,15,17a1.23,1.23,0,0,0,.19,0,7,7,0,0,0,1.52-.82A2.69,2.69,0,0,1,17,16c.27-.15.54-.29.82-.42s.4-.28.6-.21.36-.06.53,0,.09-.05.13-.08l-.11,0c-.08,0-.2-.09-.22-.06s-.22-.05-.34,0a.86.86,0,0,1-.42,0,5.54,5.54,0,0,0-.91-.13c-.07,0-.16,0-.21,0s-.13,0-.18,0l-.19.2M11.61,27.07a.72.72,0,0,1,0-.54s0-.11,0-.16a.48.48,0,0,0-.17.05s0,.08,0,.11a4.36,4.36,0,0,0-.5,1.36,7.36,7.36,0,0,0-.24.8c0,.23-.18.45-.09.71s0,.17.2.11a.92.92,0,0,0,.24-.13,1.07,1.07,0,0,0,.52-.59,4.68,4.68,0,0,0,.07-.84c0-.28,0-.56,0-.88m8.76-.16a4.67,4.67,0,0,1,.76-.95,1.63,1.63,0,0,1,.62-.37,1.29,1.29,0,0,0,.35-.22.15.15,0,0,0,0-.07l-.11,0s-.06,0-.08,0a5.58,5.58,0,0,0-.63.35,2.85,2.85,0,0,1-.74.37,1.67,1.67,0,0,0-.92,1,6.66,6.66,0,0,0-.37,1.06,5,5,0,0,0-.15.77.23.23,0,0,0,.24.24c.11,0,.28-.09.27-.2a1.72,1.72,0,0,1,.13-.71,4.27,4.27,0,0,1,.58-1.3M72.48,14.56l-.08,0a8.2,8.2,0,0,0-1.49-.65c-.19-.06-.41-.17-.61,0s-.12.19.06.26c.51.21,1,.4,1.55.65a2,2,0,0,1,1,1.24.19.19,0,0,0,.22.15c.1,0,.12-.13.1-.23a.16.16,0,0,0,0-.1.59.59,0,0,1-.14-.46,1,1,0,0,0,0-.33c-.09-.27-.33-.36-.56-.54M9.56,26.88c-.05,0,0-.25-.13-.05a3,3,0,0,0-.25.67,3.32,3.32,0,0,0-.29,1.28s0,0,0,.06-.05.33-.05.49.06.26.25.24a1.87,1.87,0,0,0,.4-.13s0-.06,0-.1c0-.35.05-.7.06-1.06,0-.15-.05-.31-.05-.46s0-.28.05-.43a2.28,2.28,0,0,0,0-.51m50.9,0,.72-.86s0,0,0-.06a.14.14,0,0,0-.09,0,1.41,1.41,0,0,1-.37.18c-.2,0-.39.11-.58.16a13.82,13.82,0,0,0-1.36.49c-.12,0-.23.12-.2.25a.73.73,0,0,1-.11.54s0,.07,0,.11l.09,0c.36-.35.86-.53,1.19-.93a1.64,1.64,0,0,1,.28-.23.16.16,0,0,1,.27.12.52.52,0,0,1-.16.48l-1,.9a.64.64,0,0,0-.1.18l.16,0a.34.34,0,0,0,.12-.09c.24-.21.49-.43.72-.65a2.72,2.72,0,0,0,.39-.51M33.23,35.22l.68-.36.42-.23s.05-.1.08-.15l-.15,0c-.1,0-.19.06-.29.06a1,1,0,0,0-.61.21,2.66,2.66,0,0,1-.7.42,7.21,7.21,0,0,1-.69.33c-.25.1-.56.06-.74.32,0,0-.06,0-.09,0l-.43.19c-.14.06-.14.07-.29.31,0,0,0,.07-.05.1s.11.05.15,0a4.41,4.41,0,0,1,.7-.23c.53-.2,1-.48,1.53-.7a4.2,4.2,0,0,0,.48-.28M6.38,26.85a2.29,2.29,0,0,0,.07-.36A2.11,2.11,0,0,1,7,25.09s0,0,0,0S7,25,7,25a.08.08,0,0,0-.08,0,2.12,2.12,0,0,0-.35.23.92.92,0,0,0-.31.41c-.06.23-.22.43-.26.66s-.21.5-.14.78c-.17.25-.07.55-.12.82a.61.61,0,0,0,.06.32.58.58,0,0,0,.14.17.72.72,0,0,0,.11-.19,5,5,0,0,1,.25-.86,1.37,1.37,0,0,0,.07-.45M17.87,16.58c-.13.15-.24.29-.37.43s-.35.34-.52.52a2.77,2.77,0,0,0-.31.45c-.05.08-.07.18.1.18a1.33,1.33,0,0,0,.58-.16l1-.49a1.36,1.36,0,0,0,.38-.24s0-.12,0-.19l-.13,0a4,4,0,0,0-.57.32c-.15.11-.26.15-.41,0a2.36,2.36,0,0,0-.23-.13s0-.06,0-.07c.17-.2.34-.4.52-.59s.31-.27.47-.4l.44-.35a.45.45,0,0,0,.1-.13l0-.06c-.17.11-.4.1-.54.31a4.63,4.63,0,0,1-.54.55m-6.23,6.61s-.08.11-.13.13c-.63.35-1.13.87-1.72,1.27a.16.16,0,0,0,0,.22s.1,0,.15-.06l0,0,1.6-.77a7.32,7.32,0,0,1,1.18-.61.16.16,0,0,0,.07-.07l-.06,0a1.35,1.35,0,0,0-.34-.11c-.24,0-.49-.19-.75.08M72.2,13.25c0-.15,0-.31-.06-.46s0-.18.07-.25.11,0,.17,0h.13l.26,0a1.28,1.28,0,0,0-.15-.25c-.23-.28-.25-.28-.55-.06a.1.1,0,0,1,0,0,1.6,1.6,0,0,0-.8.74s-.08.06-.12.1l-.06.08s0,0,.07,0a3.68,3.68,0,0,1,1,.33c.16.09.1,0,.1-.07a.58.58,0,0,1-.06-.16M8.31,15.56a6,6,0,0,0,.78-.35A4.31,4.31,0,0,1,9.56,15l.84-.52a.17.17,0,0,0,.06-.11s-.06-.06-.09-.07l-.69-.2c-.17,0-.25,0-.19.17s0,.08,0,.12a.84.84,0,0,1-.38.45,12.29,12.29,0,0,1-1.4,1,1.39,1.39,0,0,0-.19.15,1.09,1.09,0,0,0,.26,0c.1,0,.19-.11.29-.16s.16-.07.27-.14M72.87,13,72.74,13a2.4,2.4,0,0,0-.28,0,1.22,1.22,0,0,0,.06.26,2.16,2.16,0,0,0,.25.44A8.91,8.91,0,0,1,73.62,15a.83.83,0,0,1,.18.5.7.7,0,0,0,.06.17l0,.05,0-.05a1.84,1.84,0,0,0-.05-.53,5.65,5.65,0,0,0-.35-.75.84.84,0,0,1-.18-.56.59.59,0,0,0-.16-.48,3.19,3.19,0,0,0-.32-.33m-38,21.85-.45.22c-.34.18-.69.34-1,.55a5,5,0,0,1-.47.33l-.11.05.13,0c.29,0,.48-.22.73-.33s.54-.34.84-.43c.6-.17,1.1-.52,1.68-.73,0,0,0-.05.07-.07s-.07,0-.1,0h-.73a.24.24,0,0,0-.14,0c-.14.1-.27.22-.44.37M8.63,24c-.08.08-.17.16-.25.25s0,0,0,.08h0c.27-.22.6-.32.87-.51s.65-.32.94-.52A2.73,2.73,0,0,1,11,22.9s.06-.07.09-.11a1.48,1.48,0,0,0-.13-.08c-.07,0-.14.05-.24,0-.33-.11-.34-.11-.65.12a8.83,8.83,0,0,0-1.17.95c-.08.08-.18.14-.3.24M5.45,14l-.35.29c-.25.21-.6.27-.81.54,0,0-.07,0-.1,0-.32.12-.56.4-.92.41a3.58,3.58,0,0,1-.91.52.31.31,0,0,0-.07.09.25.25,0,0,0,.12,0l.46-.13a5.53,5.53,0,0,0,.81-.28,3.65,3.65,0,0,0,.87-.6c.19-.19.42-.33.62-.51a1.12,1.12,0,0,0,.28-.4M3.66,27.59a2.12,2.12,0,0,1,0-.44,4.13,4.13,0,0,0,.13-1.26A.79.79,0,0,1,4,25.32a.4.4,0,0,0,.08-.16s0-.05,0-.05-.07,0-.08,0a1.84,1.84,0,0,0-.28.36,5.39,5.39,0,0,0-.22.88,10.76,10.76,0,0,0-.17,1.27c0,.1,0,.21.1.23s.13-.08.19-.13,0-.05.06-.11m10.9-3.34-.73.41-1,.56-.22.16,0,.07.09,0,.22-.1a6.43,6.43,0,0,1,.79-.39,15.1,15.1,0,0,1,1.55-.67c.09,0,.15-.1.23-.16a2,2,0,0,0-.29-.15A.22.22,0,0,0,15,24a3.21,3.21,0,0,0-.41.21m46.19,3.14.78-.78,1-1a.67.67,0,0,0,.06-.15.47.47,0,0,0-.17,0c-.26.09-.51.21-.78.28s-.16,0-.08.17,0,.22-.05.31a2.26,2.26,0,0,1-.58.85l-.24.25s0,0,.09,0M1.54,26.05c.05-.18.09-.35.13-.52a4.73,4.73,0,0,0,.16-1.12s0-.08,0-.08-.09,0-.11,0a1.09,1.09,0,0,0-.13.17,3.11,3.11,0,0,0-.31.67c-.05.26-.24.48-.21.78s.06.34.34.2a1,1,0,0,0,.15-.12m2-2.44a7.12,7.12,0,0,0-.94.6.68.68,0,0,0-.26.44,1,1,0,0,1-.15.45,2.09,2.09,0,0,0-.16.57c0,.07,0,.16.09.11a.89.89,0,0,0,.52-.57s-.08-.13-.11-.12,0,.06,0,.1-.1.19-.16.28l-.08,0c0-.09,0-.22,0-.27a.79.79,0,0,0,.18-.61.28.28,0,0,1,.09-.18,2.15,2.15,0,0,1,.24-.18c.27-.18.52-.38.81-.54a4.59,4.59,0,0,0,.5-.24L4.74,23s0,0,0-.06H4.69l-.2.13c-.31.19-.6.39-1,.58M2.86,27c.06.05.09.1,0,.18s-.19.24-.29.35,0,.14,0,.2.09.09.18,0A.43.43,0,0,0,3,27.36c0-.11,0-.23,0-.35s0-.23,0-.34a5.4,5.4,0,0,0,.11-.58,4.3,4.3,0,0,1,.17-.95s0-.08,0-.12-.07.06-.08.1c-.08.24-.16.49-.23.74s-.24.75-.35,1.13a.12.12,0,0,0,0,.08s.06,0,.08,0,0-.08,0-.11.06,0,.09,0m32.55,8.88c.17,0,.3-.11.44-.18s.09,0,0-.14,0-.06,0-.06a.91.91,0,0,1,.22-.11c.06,0,.15-.16.2,0h.08l.42-.22c.26-.15.51-.31.77-.45l.16-.07a.83.83,0,0,0-.22-.08.64.64,0,0,0-.17.05,2.42,2.42,0,0,1-.69.27s0,0-.07.05c-.28.15-.56.3-.83.46a2.1,2.1,0,0,0-.3.22c-.05,0-.09.12-.16.15s-.26.14-.29.31a3.63,3.63,0,0,0,.41-.23M5.81,24A11.16,11.16,0,0,1,7,23.18a7.43,7.43,0,0,1,.73-.44c.09-.06.16-.14.24-.2-.13,0-.26,0-.38,0a.37.37,0,0,0-.16.09c-.15.12-.28.31-.46.36a2.35,2.35,0,0,0-.75.48c-.33.25-.65.52-1,.75L5,24.44l0,0s0,0,0,0a.44.44,0,0,0,.16-.06L5.81,24M2.15,26.14a.84.84,0,0,0-.31.45,2.13,2.13,0,0,0-.13.83c0,.06.07.15.1.14a.72.72,0,0,0,.3-.11s0-.13,0-.2a.28.28,0,0,1,0-.09c.1-.36.21-.72.31-1.09,0,0-.07-.09-.08-.08a1.14,1.14,0,0,0-.24.15m6-12.06a.73.73,0,0,1-.25.7c-.14.11-.3.2-.44.31a4.58,4.58,0,0,1-.91.59s0,.06,0,.09.06,0,.08,0c.22-.11.45-.22.66-.35a3.14,3.14,0,0,0,.57-.38,2.29,2.29,0,0,0,.51-.52.65.65,0,0,0,.05-.46c0-.1-.24-.2.06-.22,0,0,0-.06,0-.1,0-.19-.15-.18-.25-.23a.53.53,0,0,0-.17,0s0,.12,0,.15,0,.26.07.45M33.36,36.82a.36.36,0,0,0,.24-.17,1.66,1.66,0,0,1,.86-.68,1,1,0,0,0,.29-.16s0,0,0-.07h-.06a5.41,5.41,0,0,0-.89.38,1,1,0,0,1-.56.19.89.89,0,0,0-.46.14c-.16.09-.3.19-.45.29a.15.15,0,0,0,0,.07l.09,0h1m6.54-2a3.43,3.43,0,0,0-1.2.58.89.89,0,0,1-.33.14,1.27,1.27,0,0,0-.53.17c-.32.22-.66.42-1,.62l-.05.07s.06,0,.08,0l.29-.15.48-.23c.06,0,.14-.07.16-.12a.19.19,0,0,1,.21-.14.77.77,0,0,0,.26-.07c.23-.1.45-.24.69-.34l1.44-.62a1.3,1.3,0,0,0,.15-.1h-.17a2.87,2.87,0,0,0-.49.17m15.75-2.86L56,31.6a.25.25,0,0,0,0-.09l-.1,0-.46.29-1.22.77a2.15,2.15,0,0,1-.49.28,1.85,1.85,0,0,0-.44.31s0,.06,0,.09h0a2.64,2.64,0,0,0,.56-.19c.34-.22.66-.5,1-.73l.7-.45M14.72,15.56l1-.57s0-.05.07-.08l-.09,0h-.44c-.26,0-.5,0-.57.31,0,.06-.1.1-.15.16l-.48.54s0,.06,0,.09l.09,0,.58-.39M14,24.12s0,0,0,0l0,0-.64.32c-.13.06-.23.18-.39.21a1.06,1.06,0,0,0-.48.22,2.57,2.57,0,0,1-.67.41,4.72,4.72,0,0,0-.55.36s0,.07-.06.1a.3.3,0,0,0,.11,0c.09,0,.17-.11.26,0a2.39,2.39,0,0,1,.23-.22l1.27-.79.93-.58m34.25,9.05.18-.19a.3.3,0,0,0,0-.1s-.08,0-.11,0a3,3,0,0,0-.53.19,2.46,2.46,0,0,1-.93.39,2,2,0,0,0-.4.18l-.08,0,.09,0a4,4,0,0,0,.48-.09,4.94,4.94,0,0,1,1-.17c.2,0,.2,0,.24-.25M5.13,23.42,5.77,23l.68-.45s0-.06.06-.09-.08,0-.1,0a10.68,10.68,0,0,0-1,.59,14.34,14.34,0,0,1-1.4.88,2.78,2.78,0,0,0-.33.27s0,.06,0,.09l.07,0L4.13,24l1-.62m6.74,1.41c.26-.15.51-.32.77-.45l1.4-.65s0,0,0-.07,0,0-.06-.05a.52.52,0,0,0-.55.07c-.56.33-1.11.68-1.66,1,0,0,0,.08.06.13m-1.25.09s0,.1.05.09a1,1,0,0,0,.34-.1c.27-.17.53-.35.8-.54l.75-.56s0-.07,0-.11l-.09,0-.3.18a5.43,5.43,0,0,1-.81.46,2.06,2.06,0,0,0-.78.55m13.76,11.2h.38a.18.18,0,0,0,.09,0s-.06-.07-.1-.08-.22.08-.33,0l-.07,0,.08,0h.06a.94.94,0,0,0,.1-.1.25.25,0,0,0-.12,0l-.7.06H22.71s-.06,0-.1.08l.06.05,1.16.12a4.7,4.7,0,0,0,.55,0M1.06,23.38c.11-.07,0-.13,0-.15a.25.25,0,0,0-.16,0,2.57,2.57,0,0,0-.06.67,3.8,3.8,0,0,1,.12,1S1,25,1,25L1,25l.3-.86c.05-.15,0-.22-.15-.31a.19.19,0,0,1-.09-.12,2.71,2.71,0,0,1,0-.29m3.21-.77c-.07,0-.15,0-.2.07a8.45,8.45,0,0,1-1.13.74.7.7,0,0,0-.14.16l.16-.1.19-.07A3.28,3.28,0,0,1,3.8,23a6.2,6.2,0,0,0,1-.54c.09-.05.16-.13.28-.11l.05,0s0-.05,0-.05a1.74,1.74,0,0,0-.32,0,1,1,0,0,0-.52.32m15.42,2.54c-.1.15-.29.17-.43.26s-.64.22-.9.44a.41.41,0,0,1-.11.07l.12.06c.06,0,.14,0,.18,0s.24,0,.33-.05c.46-.29.84-.69,1.33-.94,0,0,0-.05,0-.08h-.06a3.26,3.26,0,0,1-.49.23m8.15,11.29-.2.06-.08,0s0,0,.06,0c.41-.06.79.14,1.2.08a1.18,1.18,0,0,0,.61-.19l.11,0c-.05,0-.1,0-.14,0s-.36.09-.51,0a1.65,1.65,0,0,0-.7,0c-.09,0-.2-.11-.35,0m-7.5-19.63-.64.31-.1.05a.25.25,0,0,0,.12,0,6.15,6.15,0,0,0,1.33-.39c.09,0,.15-.14.22-.22s0-.08,0-.12h-.09a1,1,0,0,1-.32.14,1.78,1.78,0,0,0-.52.2M7.15,24.41l-.22.16-.1.08a.34.34,0,0,0,.16,0,1.17,1.17,0,0,0,.2-.05s.06,0,.09,0l-.06.07a.36.36,0,0,0,0,.09l.11,0a.1.1,0,0,0,0-.05,4.12,4.12,0,0,1,1-.94l.12-.11H8.25a.38.38,0,0,0-.15.09,4.72,4.72,0,0,1-.95.62M3,22.33c-.21.12-.41.25-.61.38a1.53,1.53,0,0,0-.25.16s0,.1-.05.15a.35.35,0,0,0,.11,0c.5-.26,1-.53,1.51-.81A.46.46,0,0,0,3.88,22s0,0,0-.06h0a.85.85,0,0,0-.22.09c-.18.08-.35.18-.59.27m69-7c-.18-.12-.36-.25-.55-.36a.69.69,0,0,0-.13,0,.41.41,0,0,0,.07.11l.1.07a2.08,2.08,0,0,1,.9,1.14.35.35,0,0,0,.08.13h.08a.17.17,0,0,0,0-.07c-.09-.12-.2-.23,0-.33,0,0,0-.07,0-.08-.17-.18-.36-.36-.57-.57M59.88,32a.54.54,0,0,0,.13-.07.52.52,0,0,0,.06-.13.51.51,0,0,0-.13,0,5.52,5.52,0,0,0-.71.28,6.11,6.11,0,0,0-.67.46.08.08,0,0,0,0,.08.08.08,0,0,0,.08,0c.19-.1.38-.19.57-.3a1.83,1.83,0,0,1,.69-.37m-43.33-7.6.13-.07a.31.31,0,0,0,.1,0s-.05-.07-.08-.07-.26-.08-.37.07a.81.81,0,0,1-.31.24c-.38.21-.77.41-1.16.61,0,0,0,.06-.06.09s.07,0,.09,0c.22-.19.55-.19.76-.43,0,0,.1-.05.15-.07.24-.1.48-.19.75-.32m50.26-2.21s.07,0,.08,0a1.16,1.16,0,0,0,.23-.68c0-.07-.13-.17-.22-.2s-.12.08-.16.17,0,.42.07.69m-1.38,3.49a5.42,5.42,0,0,0-.6.67s0,.06,0,.09l.06,0c.14-.14.28-.27.41-.41s.29-.22.3-.42c.23-.05.16-.27.24-.41a.22.22,0,0,1,.05-.08c.11-.07.07-.18.07-.29s0,0,0-.07l0,.09c-.15.28-.3.56-.48.87m7.92-13.18c0-.09-.08-.18-.13-.27a3.51,3.51,0,0,0-.27-.4s-.06,0-.09-.06a.4.4,0,0,0,0,.11,4.42,4.42,0,0,1,.27.53,1.58,1.58,0,0,0,.28.62.2.2,0,0,1,0,.08.32.32,0,0,0,0-.09.71.71,0,0,0-.13-.52m-4.94,7.89c.09.26.17.53.26.79a.16.16,0,0,0,.07.07.22.22,0,0,0,.05-.08.14.14,0,0,0,0-.09,4,4,0,0,1-.25-1c0-.08-.07-.16-.11-.24s0,0,0,0a.08.08,0,0,0,0,.05c0,.16,0,.32.06.55M13.25,25.56l-.05,0c-.08,0-.2,0-.11.19s.12.05.2,0a1.23,1.23,0,0,1,.29-.08.2.2,0,0,0,.11-.06c.09-.11.17-.23.25-.34s0-.06,0-.09l-.07,0-.62.3m44,7.35c.18,0,.29-.12.43-.2s.22,0,.17-.15-.17,0-.26,0-.09,0-.13.06a1.85,1.85,0,0,1-.56.19s-.08.06-.12.09l.12,0h.35m7.25-9.62a2,2,0,0,1-.73.32s0,0-.06,0,0,.06.07.06h.11a4.11,4.11,0,0,0,.57-.17,3.78,3.78,0,0,0,.43-.26s0-.1,0-.15l-.12,0a2.39,2.39,0,0,1-.3.13M5.87,12.42c0-.06,0-.15,0-.16s-.13,0-.15.09a1.2,1.2,0,0,1-.2.39c-.07.12-.18.23-.26.34a.36.36,0,0,0,0,.11l.12,0a1.7,1.7,0,0,0,.58-.73m64.24,2.14.49.13s.08,0,.12,0,0-.07-.09-.08c-.23-.08-.47-.14-.71-.21a.29.29,0,0,0-.16,0,.12.12,0,0,0-.06.1s0,.08.06.08h.35M41,36.28l.49-.1a.49.49,0,0,0,.14-.06c0-.08-.05-.15-.17-.12s-.41.12-.62.18a.72.72,0,0,0-.15.11l.15,0a.39.39,0,0,0,.16,0M67.58,22v-.25s0,0,0,0-.08,0-.08,0a1.1,1.1,0,0,1-.18.63.11.11,0,0,0,0,.06l.07,0a.38.38,0,0,0,.2-.46M31.05,36.69s.06,0,.08,0a.47.47,0,0,0,.47,0s0-.1.06-.15-.09,0-.13,0-.14.1-.17.08a.46.46,0,0,0-.44,0l-.09,0a1,1,0,0,0,.22,0M71.43,19.54c0-.06,0-.12-.07-.17s-.18-.28-.36-.31c.06.13.1.27.17.39s.1.23.26.09M4.33,24.47l.29-.22s0,0,0,0-.07,0-.08,0-.31.22-.48.31-.1.06,0,.13.1.12.17,0,.06-.1.12-.19M51.48,8.57l.62-.05s0,0,0,0a.12.12,0,0,0,0-.05c-.21,0-.44-.11-.62.15M64.15,16c-.18.11-.36.21-.53.33a.57.57,0,0,0-.11.11s0,0,0,.07,0,0,.06,0c.21-.16.47-.25.59-.51M15.72,23.8a1.52,1.52,0,0,0-.2-.06.58.58,0,0,0-.16.05c.05,0,.09.12.14.13a1.93,1.93,0,0,0,.34,0s0-.07,0-.08-.06,0-.15-.05M14,23.38l.26.07a1.12,1.12,0,0,0,.31.05,1,1,0,0,0-.27-.19.35.35,0,0,0-.3.07m57.12-9.84.24.11s.07,0,.11,0a.44.44,0,0,0-.08-.1l-.22-.07L71,13.42c-.06,0-.1-.15-.17,0a.46.46,0,0,0,.12.1.49.49,0,0,0,.17,0M10.43,25.44c-.14-.11-.21,0-.28.09a1.15,1.15,0,0,0-.14.19,1.2,1.2,0,0,0,.27-.08c.05,0,.08-.11.15-.2M49.2,33.1l-.09.09-.13.13a.6.6,0,0,0,.23,0c.06,0,.1-.1.15-.16a.44.44,0,0,0-.16-.08M21.81,35.35h-.35a.28.28,0,0,0-.12,0s.08.08.12.08l.5-.08s0,0,0,0h-.13M73.93,16.71a.83.83,0,0,0-.07-.13l0-.08s-.13.06-.14.1.07.18.14.25.07-.05.11-.14M9.88,29.51c0,.06-.07.12,0,.12a.23.23,0,0,0,.16-.06.49.49,0,0,0,.1-.15H10s-.05.05-.1.1M72.26,11.58v.16a.08.08,0,0,0,0,0,.1.1,0,0,0,0,0c0-.06.05-.14.1-.18s0-.15,0-.18,0,.17-.11.2M26.08,35.76l.49-.09.08,0s0,0-.08,0a1.32,1.32,0,0,0-.49.15M70.05,20l.13.12c0-.05,0-.1,0-.15s0-.05,0-.06a2.43,2.43,0,0,0-.25-.2,2.3,2.3,0,0,0,.16.29M5.29,8.5a.27.27,0,0,0,0-.09.56.56,0,0,0,0-.12s-.08.05-.08.09,0,.21.08.27a.48.48,0,0,0,0-.15M26.11,36.24l-.21,0,.2.05h.16l.07,0,0,0c-.05-.08-.07,0-.17,0M66,24.35a1.39,1.39,0,0,0-.06.19s0,.06,0,.09.08-.05.09-.08a.3.3,0,0,0,0-.2m1.15-9.11h-.32s0,0-.06.07.06,0,.09,0a1,1,0,0,0,.29-.09M13.6,3.72a0,0,0,0,0,0,0v0l-.24,0s-.05,0-.07.08,0,0,.06,0l.23-.06M68.76,14.31l.1-.08s-.09,0-.12,0-.06.06,0,.1M30.73.45l0,0a.1.1,0,0,0,0,0H31a.07.07,0,0,0,.05,0L31,.45h-.22m35.21,23.8.15,0-.15-.09c0,.05,0,.09,0,.13M20.59,16.49l0,0a0,0,0,0,0,0,0h-.17l0,.11a.26.26,0,0,1,.13-.06M56.22,27.75l.08.09.05-.05a.13.13,0,0,0-.13,0M53.59,8.12a1.2,1.2,0,0,0-.2,0l0,0s0,0,.07,0a.45.45,0,0,0,.18,0M72.26,18.57s0-.06,0-.08l-.09-.06a.45.45,0,0,0,0,.11.09.09,0,0,0,.1,0M66.17,22l0,.08a1.47,1.47,0,0,0,.1-.13s0,0,0,0a.45.45,0,0,0-.1.1m8-8,.11,0L74.22,14s0,0,0,.09M15.27,34.26l.09-.08s0,0,0,0-.07,0-.07.12M41.44,8.34l-.09,0s0,0,.06,0,.07,0,0-.06M11.87,33.17l-.09,0,.05,0s.14.06,0-.06M11.8,4.3l0,0v0h.12a.09.09,0,0,0-.1,0M10.43,32.94l.1,0v0a.11.11,0,0,0-.11,0m.38.13.1,0v0a.17.17,0,0,0-.11,0M26.88.58l0-.06s0,0,0,.06m39.54,22,.07,0s0,0-.07,0M49.94,2.34l.1,0v0a.15.15,0,0,0-.11,0m18.63,12.1h-.08v0s.07,0,.07-.05M.84,27.59l0,0s0,0,0,0M22.2,25.21l0,0s0,0,0,0M15,34.13l0,0s0,0,0,0M5.42,22.55l0,0s0,0,0,0m14.66-5.93,0,0s0,0,0,0m53.14-5.17,0,0s0,0,0,0M66.29,8l0,0s0,0,0,0m-60-1.22,0,0s0,0,0,0m45.41-4.1,0,0s0,0,0,0M35,37.34l0,0s0,0,0,0M49.81,2.28l0,0S49.84,2.27,49.81,2.28ZM69.65,22.21c.13,0,.11.05.11.12s0,0,0,.05A.45.45,0,0,1,69.65,22.21ZM4.57,12.56s0,0,0,0S4.58,12.53,4.57,12.56Zm27.58,15-.54.29a.33.33,0,0,1-.37,0c-.17-.11-.23-.28-.1-.42s.2-.2.29-.3a.49.49,0,0,0,.1-.15c0-.14,0-.21-.17-.15s-.43.25-.64.38a2,2,0,0,1-.25.18,4.05,4.05,0,0,0-.84.52,3.11,3.11,0,0,1-.38.25c-.18.09-.46-.11-.48-.32a1,1,0,0,1,.11-.47s0-.11,0-.17a.4.4,0,0,0-.13.07c-.22.17-.43.36-.66.51s-.2.17-.37.07a.35.35,0,0,1-.23-.36c0-.23,0-.44.29-.55.08,0,.11-.17.17-.25a.47.47,0,0,1,.15-.13c.06,0,.14,0,.09.1s0,.42-.17.57c0,0,0,.08,0,.08s.11,0,.14,0l.52-.31a1.56,1.56,0,0,1,.28-.16c.16-.07.27,0,.25.13s.09.39,0,.6,0,.08.11,0l.77-.38c.3-.16.59-.34.89-.48a3.16,3.16,0,0,1,.59-.2c.14,0,.28.16.24.31s0,.13-.07.2a1.6,1.6,0,0,0,0,.23l.2-.08c.33-.08.61-.29.94-.36s.56-.26.9-.12.33.18.32.42a2.63,2.63,0,0,1-.06.39.08.08,0,0,1-.08,0s0,0-.05-.06a1.17,1.17,0,0,0,0-.2c-.08-.26-.18-.28-.44-.26A3.35,3.35,0,0,0,32.15,27.57Zm-7.44.06c.08-.07.13-.14.2-.19a.19.19,0,0,1,.15,0c.09,0,0,.07,0,.11a4.06,4.06,0,0,1-1.22,1.22.39.39,0,0,1-.43.08.46.46,0,0,1-.22-.42,3.52,3.52,0,0,1,.26-1.12,8.79,8.79,0,0,1,.4-1.08,1.06,1.06,0,0,1,.47-.58c.16-.09.22,0,.31.06s0,.19-.05.27a2,2,0,0,0-.41.76A6.31,6.31,0,0,0,23.73,28s0,0,0,0,0,.23,0,.34a2.15,2.15,0,0,0,.26-.14l.58-.46A.78.78,0,0,0,24.71,27.63ZM36,8.41c.38,0,.72-.06,1.06-.06s.47,0,.7,0l.73,0s.05,0,.08.06-.06.06-.08.06a2.71,2.71,0,0,1-.94-.06.26.26,0,0,0-.15,0,1.18,1.18,0,0,1-.36.06,2.11,2.11,0,0,0-.71,0,15,15,0,0,1-1.77.06c-.1,0-.2.05-.29.06s-.08-.06-.12-.09a.35.35,0,0,1,.11,0,7.71,7.71,0,0,0,.84-.08A5.26,5.26,0,0,1,36,8.41ZM47.56,28.68c.22-.07.41-.14.6-.19,0,0,.07,0,.11,0s0,.12-.07.13a1.6,1.6,0,0,1-.31.1,1.81,1.81,0,0,0-.35.07,7.88,7.88,0,0,1-1,.31,2.19,2.19,0,0,1-.34.1,1.11,1.11,0,0,1-.17,0,.38.38,0,0,1,.11-.11l.2-.07c.4-.09.79-.25,1.18-.38Zm-4.17-8.86a4.26,4.26,0,0,1-1,.2H42.2l-.15-.09a.4.4,0,0,1,.15,0c.44.06.85-.16,1.28-.13,0,0,.07-.13.1,0s-.06.08-.12.08ZM32.88,8.73l-.12-.05a.48.48,0,0,1,.16-.08h.34a1.28,1.28,0,0,0,.55-.06s.06,0,.09.05,0,.07-.07.07ZM44.53,19.62c-.17,0-.33.08-.48.1l-.39,0a1.61,1.61,0,0,1,.33-.15,2.24,2.24,0,0,1,.57-.08C44.68,19.51,44.55,19.57,44.53,19.62Zm-1.14,6.75h-.15l-.09,0s0-.08.07-.09a.36.36,0,0,1,.15,0h.51l.27,0a.64.64,0,0,0-.24,0C43.75,26.4,43.59,26.35,43.39,26.37Zm-27-.08-.08-.12-.13-.1c.06,0,.14,0,.17,0s.08,0,.12,0l.2-.12s0,0,.06,0,0,.06,0,.07A2.27,2.27,0,0,1,16.41,26.29ZM38.9,8.53a.28.28,0,0,1-.13,0,1.13,1.13,0,0,1-.12-.18.68.68,0,0,0,.2.07l.4,0a.26.26,0,0,1,.1,0s-.06.08-.09.08Zm6,17.66c-.09.22-.33,0-.46.17,0,0,0-.05,0-.07s0-.11.06-.11A2.08,2.08,0,0,1,44.85,26.19Zm-25.72.5a.37.37,0,0,1-.11.38s-.07,0-.11.05,0-.08,0-.1A2.3,2.3,0,0,1,19.13,26.69ZM40.38,8.28l.38,0-.32,0,0,0-.25-.11s.07,0,.1,0A.63.63,0,0,1,40.38,8.28Zm-.63.21a2.11,2.11,0,0,0,.15-.15.28.28,0,0,0,.26.14s0,0,0,0S39.86,8.5,39.75,8.49ZM4.46,25.79a.21.21,0,0,1,.13,0,1.74,1.74,0,0,1,0,.22s-.08,0-.12.06a.51.51,0,0,1,0-.13A1,1,0,0,1,4.46,25.79ZM14,26.3c0-.06,0-.14.07-.13l.17,0s0,.07,0,.08-.05.11-.12,0S14.08,26.31,14,26.3Zm17.16,8.29c-.06-.07-.08-.13,0-.14a.76.76,0,0,1,.2.06l.05,0-.07,0A.64.64,0,0,1,31.19,34.59ZM4.84,21.11a.61.61,0,0,1,.18.11s-.11.08-.16.07S4.85,21.17,4.84,21.11Zm40.74,8.21h.09c0,.1-.1.09-.16.12s-.08,0-.11,0l.11-.11S45.53,29.32,45.58,29.32Zm5-16.22.06.11h-.06l-.23,0A1.23,1.23,0,0,1,50.56,13.1ZM17.37,34.3l-.13-.06s.05-.05.07,0a1.15,1.15,0,0,1,.17.06l.12,0-.15,0Zm-2.2-2.1c-.07.09-.22.08-.24,0l.05,0Zm-3-4.87a.28.28,0,0,1,.09.13s-.07,0-.08,0S12,27.41,12.16,27.33Zm33,2.23a.42.42,0,0,1-.16,0c.06,0,.13-.11.19-.1S45.19,29.51,45.17,29.56Zm.26-10.31c0,.13-.12.13-.23.12l-.07,0,.06,0ZM9,26.11A1.05,1.05,0,0,1,9.09,26a.35.35,0,0,1,.05.13C9.13,26.21,9.07,26.19,9,26.11ZM32.19,8.77a.08.08,0,0,1,0-.07.23.23,0,0,1,.11,0s0,.07,0,.08l-.1,0S32.22,8.79,32.19,8.77Zm22.94-2,.19.08,0,0A.42.42,0,0,1,55.13,6.75ZM21.89,26.25l.14.08-.13,0A.26.26,0,0,1,21.89,26.25ZM1.17,27a.2.2,0,0,1-.11-.06l.05-.05A.2.2,0,0,1,1.17,27Zm11.68-.8.07.08-.14,0s0,0,0-.06A.19.19,0,0,1,12.85,26.19ZM64.1,24.3l-.15.07s0,0,0,0S64,24.2,64.1,24.3ZM18,34.4a.3.3,0,0,1,.16,0l.1,0-.08,0A.61.61,0,0,1,18,34.4ZM2.07,28.05s0,.07,0,.08-.07,0-.11,0,0-.07.06-.09A.11.11,0,0,1,2.07,28.05ZM18.2,26.61a.2.2,0,0,1,.11,0l0,.1ZM11.79,5.05a.37.37,0,0,1,.05-.11l.05,0S11.83,5,11.79,5.05ZM18,26.67a.2.2,0,0,1,.11,0l0,.1Zm1.27.07-.12,0a.46.46,0,0,1,.07-.07A1,1,0,0,0,19.28,26.74Zm-2-1.26a.33.33,0,0,1-.05.12l0,0A.43.43,0,0,1,17.27,25.48Zm-2.47,1a.33.33,0,0,1,.1,0l-.1.1A.33.33,0,0,1,14.8,26.51Zm0-10.33a.2.2,0,0,1,0,.11l-.1,0Zm-10.34,10s0,0,.06,0S4.48,26.2,4.46,26.17Zm3.61,0a.17.17,0,0,1,0-.1l0,0A.2.2,0,0,1,8.07,26.22Zm.69-.3s0,0,0,.06S8.74,25.94,8.76,25.92Zm55.82-1.8a.23.23,0,0,1,.09-.06A.17.17,0,0,1,64.58,24.12ZM55.13,6.72a.14.14,0,0,1-.12,0A.18.18,0,0,1,55.13,6.72Zm-8.4,13.94s0-.05,0-.07S46.75,20.64,46.73,20.66ZM71.31,18.2a.25.25,0,0,1,.09,0v0A.17.17,0,0,1,71.31,18.2ZM30.9,34.69s.05,0,.09,0v0A.33.33,0,0,1,30.9,34.69Zm-16.75-8.2s0,0,.06,0S14.17,26.52,14.15,26.49Zm3-10s0,0,0,.06S17.14,16.51,17.16,16.49ZM28.4,34.79a.12.12,0,0,1,.1,0v0A.19.19,0,0,1,28.4,34.79Zm-9.83-6.56s0,0,.07,0S18.59,28.25,18.57,28.23Zm9.77,7.5s.05,0,.08-.06v0Zm-10.27-8.9a.1.1,0,0,1,0,.09h0A.16.16,0,0,1,18.07,26.83Zm10.24,8.9-.09.06v0Zm-24-8.39a.11.11,0,0,1,0,.09h0A.33.33,0,0,1,4.28,27.34ZM39.55,8.28s0,0,0,.06S39.52,8.3,39.55,8.28ZM61.28,6.91s0,0-.05-.08h0A.13.13,0,0,1,61.28,6.91ZM18.84,27.31s0,0,.05,0S18.87,27.32,18.84,27.31Zm-2.59-.25s0,0,0,0A0,0,0,0,1,16.25,27.06Zm-7.38-.68s0,0,0,0S8.84,26.38,8.87,26.38ZM14,26.3a.14.14,0,0,1,0,.06A.07.07,0,0,1,14,26.3Zm-6.12,0s0,0,0,0S7.87,26.34,7.88,26.32Zm4.61-.07s0,0,0,.05A0,0,0,0,1,12.49,26.25Zm1.38-.12s0,0,0,0S13.85,26.12,13.87,26.13Zm50.68-2a.14.14,0,0,1,0,.06A.07.07,0,0,1,64.55,24.12Zm.16-.06s0,0,0-.06A.14.14,0,0,1,64.71,24.06Zm.35-.15s0,0,0,0A.05.05,0,0,1,65.06,23.91Zm-32,10.23s0,0,0,0A0,0,0,0,1,33.08,34.14ZM18,34.37l-.06,0A.07.07,0,0,1,18,34.37ZM65.85,23.59s0,0-.06,0A.07.07,0,0,1,65.85,23.59ZM8.39,21.83s0,0,0,0A.05.05,0,0,1,8.39,21.83ZM4.8,21.38s0,0,0,0S4.79,21.4,4.8,21.38Zm-.4-.83a0,0,0,0,1,0,0Zm0,0s0,0-.06,0Zm67.17-2s0,0,0,0A.05.05,0,0,1,71.57,18.56ZM15.22,15.89s0,0,0,0A.05.05,0,0,1,15.22,15.89ZM28.85,35.56s0,0,0,0A.05.05,0,0,1,28.85,35.56Zm-.13.06s0,0,0,0A.05.05,0,0,1,28.72,35.62ZM55,6.66l-.06,0A.07.07,0,0,1,55,6.66ZM22.72,1s0,0,0,0S22.73,1,22.72,1Zm-12,14.37s0,0,0,0A.05.05,0,0,1,10.73,15.38Zm58.11-.32s0,0,0,0S68.85,15,68.84,15.06ZM58.08,18s0,0,0,.06S58.06,18.05,58.08,18ZM11.37,27.18a.17.17,0,0,1-.1,0l.09-.18.07-.05a.4.4,0,0,1,0,.11A.45.45,0,0,1,11.37,27.18ZM10.92,29s0,0,0,0A.05.05,0,0,1,10.92,29Zm9.59-2.71s0-.1.08-.11.09,0,.14,0,0,.12-.05.14S20.58,26.32,20.51,26.3Zm0,0a0,0,0,0,1,0,.05l-.09.07,0,0Zm-.77,1.35s0,0,0,0a.75.75,0,0,0,0,.16A.58.58,0,0,1,19.71,27.65Zm.66-1s0,0,0-.06S20.39,26.6,20.37,26.62Zm-.63,1a.14.14,0,0,1,0-.06A.07.07,0,0,1,19.74,27.65ZM72.15,14.71a.14.14,0,0,1,.09,0v0A.2.2,0,0,1,72.15,14.71Zm-1.56-.64a.16.16,0,0,1,.13,0A.31.31,0,0,1,70.59,14.07Zm0,0a.21.21,0,0,1-.11,0v0Zm1.17.52a0,0,0,0,1,0,0S71.79,14.55,71.76,14.55ZM71,14.2s0,0,.06,0Zm0,0s0,0-.06,0Zm-.32,0,.06,0A.07.07,0,0,1,70.72,14.13ZM10.43,27.59a.06.06,0,0,1-.07,0A0,0,0,0,1,10.43,27.59Zm-.25-.25s0,0,0,.05A0,0,0,0,1,10.18,27.34Zm21.43,8.52a.2.2,0,0,1,0-.09c.5-.13.91-.45,1.4-.62,0,.14-.16.15-.27.2l-.95.49A.7.7,0,0,1,31.61,35.86Zm0,0a.18.18,0,0,1-.1.07L31.1,36v0a.61.61,0,0,1,.41-.15Zm-1,.27a.85.85,0,0,1,.16,0l-.1.11A.29.29,0,0,1,30.58,36.13Zm2.7-1.1s0,0,.08-.06v0Zm0,0a.17.17,0,0,1-.09.06A.23.23,0,0,1,33.24,35Zm-.12.06-.1.06A.29.29,0,0,1,33.12,35.09Zm-2.23,1a.06.06,0,0,1,0-.07A.06.06,0,0,1,30.89,36.12Zm2.77-1.3s0,0,0,0S33.69,34.82,33.66,34.82ZM6.27,26s0,0,0-.05l.15-.19,0,0C6.41,25.91,6.42,26,6.27,26Zm0,.16a1.46,1.46,0,0,1-.07.3s0,0,0,0S6.18,26.24,6.3,26.19Zm-.22.64a.11.11,0,0,1,.08.05.36.36,0,0,1,0,.1l-.07,0a.24.24,0,0,1-.05-.1A.15.15,0,0,1,6.08,26.83Zm.13-.13c-.15.06,0-.05-.08-.08l0-.05A.5.5,0,0,1,6.21,26.7Zm.29-1.12c-.11-.07,0-.11,0-.16h0Zm4.13-1.39c.12-.13.22-.3.43-.33.06,0,.11-.1.17-.12a.76.76,0,0,1,.26-.06s.06.06.09.09l-.11,0-.73.36A.29.29,0,0,1,10.63,24.19Zm1.61-.92a.44.44,0,0,1-.12.15l-.27.17s0-.05,0-.06a3.06,3.06,0,0,1,.21-.29S12.16,23.25,12.24,23.27Zm-1.7,1a.14.14,0,0,1,0,.06A.07.07,0,0,1,10.54,24.25Zm.06-.06s0,0,0,.06S10.57,24.21,10.6,24.19ZM71.89,13.1a.29.29,0,0,1,.11.06l0,.06A.27.27,0,0,1,71.89,13.1Zm.39-.83h.09v0S72.29,12.3,72.28,12.27Zm-62.9,2.6a.29.29,0,0,1-.1,0c.06,0,.09-.14.18-.05Zm.36-.51s.06,0,.1,0l0,.1Zm.16.19s0,0,0,0S9.9,14.52,9.9,14.55Zm-.26-.1s0,0,0,0S9.61,14.45,9.64,14.45ZM35.2,34.83l.25-.23h.11s0,.12,0,.13A1.51,1.51,0,0,1,35.2,34.83Zm.45-.24a.33.33,0,0,1,.1,0v0A.1.1,0,0,1,35.65,34.59Zm-.48.24a.14.14,0,0,1,0,.06A.07.07,0,0,1,35.17,34.83Zm-.26.18s0,0,0,0S34.92,35,34.91,35ZM9.8,23.35c.12-.26.41-.32.61-.51,0,0,.09,0,.14,0s0,.11-.06.12C10.27,23.12,10,23.23,9.8,23.35Zm0,0s-.06.11-.11.13a1.58,1.58,0,0,1-.25.05c0-.12.12-.11.21-.12S9.71,23.37,9.77,23.35Zm-.55.27s0,0,0,.05A.06.06,0,0,1,9.22,23.62Zm-5.59,3a.23.23,0,0,1,0-.11s0,0,0,0,0,.1,0,.15h0S3.63,26.66,3.63,26.62Zm0,.44A.2.2,0,0,1,3.5,27l0-.05A.24.24,0,0,1,3.61,27.06Zm.06-.74a.17.17,0,0,1,0,.1l0,0A.2.2,0,0,1,3.67,26.32Zm-.09.45s0,0,0,0S3.57,26.79,3.58,26.77ZM14.87,24.2s0,0,0,0S14.86,24.23,14.87,24.2ZM1.44,25.47a.57.57,0,0,1,0-.13s.05,0,.07-.06.05,0,.05.06,0,.19-.06.29a2.55,2.55,0,0,1-.13.29.54.54,0,0,1-.09.12.65.65,0,0,1,0-.13.55.55,0,0,1,.18-.43l.07,0Zm.2-.51c0,.1,0,.18,0,.25s-.05,0-.05,0a.21.21,0,0,1,0-.27A0,0,0,0,1,1.64,25Zm7.07-2.17a.1.1,0,0,1-.08,0l.12,0v0ZM2.78,27.63s0-.05,0-.08h0A.13.13,0,0,1,2.78,27.63Zm32.87,7.93a.15.15,0,0,1,0,.1l-.1,0ZM36.9,35a.19.19,0,0,1-.09,0v0Zm-.29.11a.14.14,0,0,1,0-.06A.07.07,0,0,1,36.61,35.09Zm0,0a.14.14,0,0,1,0,.06A.07.07,0,0,1,36.58,35.09ZM2,26.83a3.1,3.1,0,0,1,.05.45s-.06,0-.06,0-.07-.06-.06-.08A3.34,3.34,0,0,1,2,26.83ZM32.8,36.61l.06-.06a7,7,0,0,0,.76-.18.19.19,0,0,1,.08,0l-.06,0c-.24.18-.24.18-.66.2a1.46,1.46,0,0,0-.22,0,0,0,0,0,1,0,0Zm30.34-11s0,0,0,0S63.14,25.56,63.14,25.58Zm-51.58,0s0,0,0,0S11.57,25.56,11.56,25.58Zm30.23,9.06h.1l.08,0s0,0,0,0l-.18,0a0,0,0,0,1,0,0Zm-.64.31a.29.29,0,0,1-.06-.1.25.25,0,0,1,.12,0A.28.28,0,0,0,41.15,35Zm1.2-.39s0,0,0,0S42.36,34.54,42.35,34.56ZM8.56,24.83c.07,0,.09-.08.13-.09a.26.26,0,0,1,.15,0c.1.07,0,.1-.05.13S8.63,25,8.56,24.83Zm-7.48-.95a.42.42,0,0,1,.16,0s0,.06,0,.06A.19.19,0,0,1,1.08,23.88Zm0,.35a.2.2,0,0,1,0-.1.16.16,0,0,1,0-.07l0,.05A.21.21,0,0,1,1.08,24.23Zm17.7,1.51a.17.17,0,0,1,.1,0c-.05,0-.09.14-.17.05S18.74,25.78,18.78,25.74ZM68,21l-.06,0A.07.07,0,0,1,68,21Zm-1,.64a.24.24,0,0,1-.11-.06l0-.05A.23.23,0,0,1,67,21.67Z"/></g></g></svg>