<svg xmlns="http://www.w3.org/2000/svg" viewBox="0 0 50.94 28.86"><defs><style>.cls-1{fill:#fff;}.cls-2{fill:#999;}</style></defs><title>flat-stone-small</title><g id="Layer_2" data-name="Layer 2"><g id="stone-flat-small"><path id="void" class="cls-1" d="M50.71,11.75s-.08-.06-.1-.1a.23.23,0,0,1,0-.14c.07-.32.08-.32-.13-.58,0,0,0,0,0,0a.15.15,0,0,1,.09,0c.06.06.11.1.1,0s-.07-.15-.06-.21c0-.43-.27-.64-.53-.89a5.71,5.71,0,0,0-.94-.59,22.37,22.37,0,0,0-2.42-1.28,2.06,2.06,0,0,0-.61-.23c-.61-.09-1.2-.26-1.82-.29-.34,0-.51-.08-.51-.54,0-.22,0-.42-.07-.64A2.62,2.62,0,0,0,43,4.72a3.51,3.51,0,0,0-.69-.47c-.3-.2-.59-.43-.9-.62s-.5-.22-.73-.38a8.39,8.39,0,0,0-1.3-.67,10.55,10.55,0,0,0-1.66-.49c-.4-.12-.83-.15-1.24-.23s-.93-.23-1.4-.35-.76-.15-1.14-.23-1-.18-1.58-.25S31.46,1,31,1a.34.34,0,0,1-.1,0A11.45,11.45,0,0,0,28.83.53c-.21,0-.43,0-.64-.07a4.56,4.56,0,0,0-1.1-.15,1.22,1.22,0,0,1-.5,0,.58.58,0,0,0-.45,0,.87.87,0,0,1-.5,0c-.26,0-.5-.09-.75-.13a.5.5,0,0,0-.17,0,1.77,1.77,0,0,1-.5,0A5,5,0,0,0,22.83.11a.49.49,0,0,1-.21,0,1.28,1.28,0,0,0-.88,0,11.2,11.2,0,0,1-1.29.1c-.88.09-1.78.06-2.67.09a.33.33,0,0,0-.1,0c-.48.06-.95.15-1.43.21-.33,0-.66,0-1,0s-.78,0-1.17.08a6.43,6.43,0,0,1-.78.08l-.49.09-1,.19-.94.18a8.52,8.52,0,0,1-.85.17,5.3,5.3,0,0,0-.9.17c-.23.06-.45.13-.68.17s-.6.15-.9.2a9.63,9.63,0,0,1-1,.25,1.67,1.67,0,0,0-.68.2c-.58.24-1.13.54-1.69.84a1.4,1.4,0,0,0-.57.47A2.78,2.78,0,0,1,2.47,4.67c-.22.13-.37.27-.35.53a.41.41,0,0,1-.07.22l-.49.68a3.12,3.12,0,0,1-.49.63C.88,6.88.88,7,1,7.13a.18.18,0,0,1,.05.15c-.1.24,0,.37.19.5s.21.2.09.43a6.89,6.89,0,0,0-.4.64,6.52,6.52,0,0,1-.6.94A1.88,1.88,0,0,0,0,10.4a1.51,1.51,0,0,0,.23,1.09,4.31,4.31,0,0,0,.89,1.11c.21.19.4.44.6.66a2.69,2.69,0,0,1,.33.35c.16.27.5.22.69.47a1.45,1.45,0,0,0,.72.36c.44.1.91.13,1.35.23a1.4,1.4,0,0,1,.62.19c.11.07.1.07.06.18s-.28.4-.1.64c0,0,0,.1,0,.12a3,3,0,0,1-.81.48.42.42,0,0,0-.31.59.93.93,0,0,1,0,.43,1.89,1.89,0,0,0,.61,1.22c.18.21.45.34.65.54a3.63,3.63,0,0,0,.84.51,5.28,5.28,0,0,1,.6.27,1.67,1.67,0,0,0,.46.16c.18.06.38.09.56.17a10.7,10.7,0,0,0,1.15.52,3.52,3.52,0,0,0,1.26.37s.07.06.11.07.09,0,.07.13,0,.34,0,.36c.21.1.17.28.24.44s0,.29,0,.44c0,.57,0,1.14,0,1.72,0,.1,0,.2-.05.3a1.47,1.47,0,0,0,.07.93,3.67,3.67,0,0,0,1,1.31,1.47,1.47,0,0,0,.54.28,3.49,3.49,0,0,1,.69.23,13.52,13.52,0,0,0,1.51.66c.39.14.79.26,1.18.39a4.62,4.62,0,0,0,1.26.25l1.06.08.1,0,1.25,0c.1,0,.2-.06.3-.06s.49.06.74.07c.57,0,1.15,0,1.73.08a1.24,1.24,0,0,0,.43,0c.06,0,.13,0,.2,0s.24.07.33,0a1.29,1.29,0,0,1,.67-.05c.14,0,.24-.09.38,0a.43.43,0,0,0,.4,0c.15-.08.27,0,.4-.05l.38-.06a6.17,6.17,0,0,1,1.21-.16c.59,0,1.18,0,1.76-.07.05,0,.11,0,.14,0s.4-.12.61-.14a4.91,4.91,0,0,0,.68-.06,6.47,6.47,0,0,1,1.24-.15A4.53,4.53,0,0,0,31.8,28a3.05,3.05,0,0,1,1.47-.07.2.2,0,0,0,.17,0,1.88,1.88,0,0,1,1-.28s.08,0,.08,0c0-.17.12-.09.2-.08s.12.07.15.05.38-.05.57-.07a.27.27,0,0,0,.15-.05.79.79,0,0,1,.53-.16,4.16,4.16,0,0,0,.71,0c.4-.07.81-.1,1.21-.13a2.14,2.14,0,0,0,.43-.07.17.17,0,0,0,.13-.2c.14-.08.3-.15.41-.22s0,0,0,0a.28.28,0,0,0,.2,0c.32-.11.66-.17,1-.25a3.58,3.58,0,0,0,.73-.29c.27-.11.57-.2.85-.3.55-.2,1.1-.42,1.67-.58.15,0,.3-.1.47-.14a1.33,1.33,0,0,0,.83-.36.26.26,0,0,1,.12,0c.21,0,.31-.14.39-.28a2.59,2.59,0,0,0,.21-1.29,3.07,3.07,0,0,0-.07-.42,2.84,2.84,0,0,0-.07-.92c-.07-.2.13-.28.24-.3a3.29,3.29,0,0,0,.85-.34,4.61,4.61,0,0,0,1.11-.65s.09,0,.12,0,.34-.17.49-.25.13-.07,0-.1l-.13,0a.34.34,0,0,1,.14-.05,1.09,1.09,0,0,0,.85-.33.6.6,0,0,1,.13-.09.91.91,0,0,0,.63-.63.66.66,0,0,1,.05-.15,5,5,0,0,0,.42-.74c0-.12.14-.2.16-.33a4.81,4.81,0,0,0,.13-.68,1,1,0,0,0-.12-.75c-.27-.31-.39-.73-.73-1-.06,0-.15-.11-.17-.18a.33.33,0,0,0-.23-.2c-.25-.06-.29-.3-.11-.48a.86.86,0,0,1,.18-.14,2.8,2.8,0,0,0,.91-.87.78.78,0,0,0,.14-.46.29.29,0,0,1,.17-.34c.24-.1.24-.32.32-.5S50.83,11.9,50.71,11.75ZM41,3.57l.11.1-.09,0C40.94,3.62,40.94,3.6,41,3.57Zm-17,25s0,0,0,0S24,28.55,24,28.55Zm26.26-12a.37.37,0,0,1,0,.09s-.05,0-.06-.08Zm0-5.47h.06a.14.14,0,0,0,.07.08h-.07A.18.18,0,0,0,50.29,11Z"/><path id="fill2" class="cls-2" d="M50.71,11.75s-.08-.06-.1-.1a.23.23,0,0,1,0-.14c.07-.32.08-.32-.13-.58,0,0,0,0,0,0a.15.15,0,0,1,.09,0c.06.06.11.1.1,0s-.07-.15-.06-.21c0-.43-.27-.64-.53-.89a5.71,5.71,0,0,0-.94-.59,22.37,22.37,0,0,0-2.42-1.28,2.06,2.06,0,0,0-.61-.23c-.61-.09-1.2-.26-1.82-.29-.34,0-.51-.08-.51-.54,0-.22,0-.42-.07-.64A2.62,2.62,0,0,0,43,4.72a3.51,3.51,0,0,0-.69-.47c-.3-.2-.59-.43-.9-.62s-.5-.22-.73-.38a8.39,8.39,0,0,0-1.3-.67,10.55,10.55,0,0,0-1.66-.49c-.4-.12-.83-.15-1.24-.23s-.93-.23-1.4-.35-.76-.15-1.14-.23-1-.18-1.58-.25S31.46,1,31,1a.34.34,0,0,1-.1,0A11.45,11.45,0,0,0,28.83.53c-.21,0-.43,0-.64-.07a4.56,4.56,0,0,0-1.1-.15,1.22,1.22,0,0,1-.5,0,.58.58,0,0,0-.45,0,.87.87,0,0,1-.5,0c-.26,0-.5-.09-.75-.13a.5.5,0,0,0-.17,0,1.77,1.77,0,0,1-.5,0A5,5,0,0,0,22.83.11a.49.49,0,0,1-.21,0,1.28,1.28,0,0,0-.88,0,11.2,11.2,0,0,1-1.29.1c-.88.09-1.78.06-2.67.09a.33.33,0,0,0-.1,0c-.48.06-.95.15-1.43.21-.33,0-.66,0-1,0s-.78,0-1.17.08a6.43,6.43,0,0,1-.78.08l-.49.09-1,.19-.94.18a8.52,8.52,0,0,1-.85.17,5.3,5.3,0,0,0-.9.17c-.23.06-.45.13-.68.17s-.6.15-.9.2a9.63,9.63,0,0,1-1,.25,1.67,1.67,0,0,0-.68.2c-.58.24-1.13.54-1.69.84a1.4,1.4,0,0,0-.57.47A2.78,2.78,0,0,1,2.47,4.67c-.22.13-.37.27-.35.53a.41.41,0,0,1-.07.22l-.49.68a3.12,3.12,0,0,1-.49.63C.88,6.88.88,7,1,7.13a.18.18,0,0,1,.05.15c-.1.24,0,.37.19.5s.21.2.09.43a6.89,6.89,0,0,0-.4.64,6.52,6.52,0,0,1-.6.94A1.88,1.88,0,0,0,0,10.4a1.51,1.51,0,0,0,.23,1.09,4.31,4.31,0,0,0,.89,1.11c.21.19.4.44.6.66a2.69,2.69,0,0,1,.33.35c.16.27.5.22.69.47a1.45,1.45,0,0,0,.72.36c.44.1.91.13,1.35.23a1.4,1.4,0,0,1,.62.19c.11.07.1.07.06.18s-.28.4-.1.64c0,0,0,.1,0,.12a3,3,0,0,1-.81.48.42.42,0,0,0-.31.59.93.93,0,0,1,0,.43,1.89,1.89,0,0,0,.61,1.22c.18.21.45.34.65.54a3.63,3.63,0,0,0,.84.51,5.28,5.28,0,0,1,.6.27,1.67,1.67,0,0,0,.46.16c.18.06.38.09.56.17a10.7,10.7,0,0,0,1.15.52,3.52,3.52,0,0,0,1.26.37s.07.06.11.07.09,0,.07.13,0,.34,0,.36c.21.1.17.28.24.44s0,.29,0,.44c0,.57,0,1.14,0,1.72,0,.1,0,.2-.05.3a1.47,1.47,0,0,0,.07.93,3.67,3.67,0,0,0,1,1.31,1.47,1.47,0,0,0,.54.28,3.49,3.49,0,0,1,.69.23,13.52,13.52,0,0,0,1.51.66c.39.14.79.26,1.18.39a4.62,4.62,0,0,0,1.26.25l1.06.08.1,0,1.25,0c.1,0,.2-.06.3-.06s.49.06.74.07c.57,0,1.15,0,1.73.08a1.24,1.24,0,0,0,.43,0c.06,0,.13,0,.2,0s.24.07.33,0a1.29,1.29,0,0,1,.67-.05c.14,0,.24-.09.38,0a.43.43,0,0,0,.4,0c.15-.08.27,0,.4-.05l.38-.06a6.17,6.17,0,0,1,1.21-.16c.59,0,1.18,0,1.76-.07.05,0,.11,0,.14,0s.4-.12.61-.14a4.91,4.91,0,0,0,.68-.06,6.47,6.47,0,0,1,1.24-.15A4.53,4.53,0,0,0,31.8,28a3.05,3.05,0,0,1,1.47-.07.2.2,0,0,0,.17,0,1.88,1.88,0,0,1,1-.28s.08,0,.08,0c0-.17.12-.09.2-.08s.12.07.15.05.38-.05.57-.07a.27.27,0,0,0,.15-.05.79.79,0,0,1,.53-.16,4.16,4.16,0,0,0,.71,0c.4-.07.81-.1,1.21-.13a2.14,2.14,0,0,0,.43-.07.17.17,0,0,0,.13-.2c.14-.08.3-.15.41-.22s0,0,0,0a.28.28,0,0,0,.2,0c.32-.11.66-.17,1-.25a3.58,3.58,0,0,0,.73-.29c.27-.11.57-.2.85-.3.55-.2,1.1-.42,1.67-.58.15,0,.3-.1.47-.14a1.33,1.33,0,0,0,.83-.36.26.26,0,0,1,.12,0c.21,0,.31-.14.39-.28a2.59,2.59,0,0,0,.21-1.29,3.07,3.07,0,0,0-.07-.42,2.84,2.84,0,0,0-.07-.92c-.07-.2.13-.28.24-.3a3.29,3.29,0,0,0,.85-.34,4.61,4.61,0,0,0,1.11-.65s.09,0,.12,0,.34-.17.49-.25.13-.07,0-.1l-.13,0a.34.34,0,0,1,.14-.05,1.09,1.09,0,0,0,.85-.33.6.6,0,0,1,.13-.09.91.91,0,0,0,.63-.63.66.66,0,0,1,.05-.15,5,5,0,0,0,.42-.74c0-.12.14-.2.16-.33a4.81,4.81,0,0,0,.13-.68,1,1,0,0,0-.12-.75c-.27-.31-.39-.73-.73-1-.06,0-.15-.11-.17-.18a.33.33,0,0,0-.23-.2c-.25-.06-.29-.3-.11-.48a.86.86,0,0,1,.18-.14,2.8,2.8,0,0,0,.91-.87.78.78,0,0,0,.14-.46.29.29,0,0,1,.17-.34c.24-.1.24-.32.32-.5S50.83,11.9,50.71,11.75ZM41,3.57l.11.1-.09,0C40.94,3.62,40.94,3.6,41,3.57Zm-17,25s0,0,0,0S24,28.55,24,28.55Zm26.26-12a.37.37,0,0,1,0,.09s-.05,0-.06-.08Zm0-5.47h.06a.14.14,0,0,0,.07.08h-.07A.18.18,0,0,0,50.29,11Z"/><path id="fill1" d="M45.85,20.21a1.82,1.82,0,0,0,.94-.62c.17-.2.36-.38.51-.59a8,8,0,0,0,.55-.83c0-.09.16-.27-.1-.28,0,0,0-.06,0-.07s.56-.11.58,0,.16.19,0,.34a1.2,1.2,0,0,0-.17.42s0,.07,0,.1.06,0,.07,0c.21-.26.42-.51.61-.77.07-.09.15-.2.13-.29s-.13-.17-.2-.26,0-.08,0-.1a.23.23,0,0,1,.11-.07l.37.13a.32.32,0,0,1,.26.38,1.31,1.31,0,0,0,0,.28.75.75,0,0,0,.07.12l.07-.09.21-.69a.88.88,0,0,0-.17-.74,6.3,6.3,0,0,0-.69-.84c-.21-.23-.34-.23-.58,0s-.5.42-.76.61a1.25,1.25,0,0,1-.54.29c-.16,0-.1.17-.22.16h-.28l0,0c0,.23-.21.16-.34.2s-.39.15-.58.22c0,0-.12,0-.14,0s-.14,0-.2,0a.69.69,0,0,1-.48.21,2.67,2.67,0,0,0-.66.17c-.3.1-.62.17-.91.26-.53.18-1.07.25-1.6.38a6.57,6.57,0,0,1-1.35.24,5.19,5.19,0,0,0-.72.2c-.22.06-.45.1-.68.15l-1,.16c-.29.05-.58.12-.86.19a1.64,1.64,0,0,0-.33.14,1,1,0,0,1-.88.15,1.55,1.55,0,0,0-.63.06,6.63,6.63,0,0,0-.75.15,1.33,1.33,0,0,0-.47.21.43.43,0,0,1-.55.07.55.55,0,0,0-.47,0,9.66,9.66,0,0,1-1.07.22l-.43.07s-.07,0-.1,0,0-.07.07-.08c.18-.05.35-.12.53-.16l1.07-.18.08,0a1.14,1.14,0,0,0-.16-.39c-.1-.11-.22,0-.35.07a2.05,2.05,0,0,1-1.35.3c-.06,0-.12-.09-.18-.15a.94.94,0,0,1,.18-.12,1,1,0,0,1,.25,0,1.53,1.53,0,0,0,1.1-.41.38.38,0,0,0,.15-.32c0-.27,0-.54,0-.81a2,2,0,0,1,.1-.49c0-.06.09-.1.13-.15s.06.14,0,.19a1.85,1.85,0,0,0-.06.74.88.88,0,0,0,0,.28.47.47,0,0,0,.12.19s.09-.05.13-.08a1.59,1.59,0,0,0,.51-.81.49.49,0,0,0-.07-.38,2.79,2.79,0,0,0-.46-.61c-.07-.07-.21,0-.24.16s0,.07-.08.11a.78.78,0,0,1,0-.14.34.34,0,0,1,.24-.42,1.62,1.62,0,0,1,1.24-.07,1.35,1.35,0,0,1,.79,1A3.52,3.52,0,0,1,35,18.67s0,.08,0,.1-.21.18-.12.28.22.05.33,0c.32,0,.63-.12.94-.19s.47-.11.71-.15.13,0,.11-.12a1.65,1.65,0,0,0-.07-.32,1.81,1.81,0,0,0-.56-.72,8.49,8.49,0,0,0-1.39-1s-.18-.08-.11-.19.14-.19.28-.12.52.25.75.41.6.48.89.74a1.3,1.3,0,0,1,.5,1,.24.24,0,0,0,.17.17.81.81,0,0,0,.43-.05,1.51,1.51,0,0,1,.53-.08s.14,0,.17,0c.24-.29.59-.25.91-.28l.09,0a.36.36,0,0,0-.07-.1l-1-.44-.36-.14c-.58-.17-1.1-.52-1.7-.64a.19.19,0,0,1-.13-.13.21.21,0,0,1,.07-.18.42.42,0,0,1,.49-.06,17.46,17.46,0,0,0,1.6.72c.39.19.8.33,1.2.5.11.05.2.15.31.2s.19.11.33,0,.2-.17.1-.29a2.51,2.51,0,0,0-.93-.71c-.53-.22-1.09-.36-1.64-.53l-.06,0-.41,0,.31.19a.67.67,0,0,1,.12.06.1.1,0,0,1,0,.05l0,0a1.07,1.07,0,0,1-.32-.08,1.76,1.76,0,0,1-.4-.32.33.33,0,0,1-.12-.21c0-.1.3-.24.38-.22a15.45,15.45,0,0,1,1.69.42,7.5,7.5,0,0,1,1.16.6c.08,0,.14.11.22.15a.85.85,0,0,1,.47.46c.09.2.21.23.43.14l.33-.12c.18-.08.22-.22.08-.36a3.94,3.94,0,0,0-.62-.53A4.84,4.84,0,0,0,39.75,16c-.06,0-.11,0-.16,0s-.31-.07-.43-.15a.29.29,0,0,1-.12-.21.29.29,0,0,1,.2-.13,1.22,1.22,0,0,1,.7.17c.36.15.69.38,1.05.51a2.24,2.24,0,0,1,.61.43,2.72,2.72,0,0,1,.46.32c.25.31.28.31.65.13s.26-.28.08-.43a2,2,0,0,0-.48-.35c-.38-.19-.77-.36-1.16-.53a.43.43,0,0,0-.22,0,.67.67,0,0,1-.52-.28.23.23,0,0,1,0-.16s.09,0,.13-.06a1.44,1.44,0,0,1,.88.19c.27.17.62.2.88.4,0,0,.05,0,.08,0s0-.06,0-.07-.13-.15-.2-.17-.11-.24-.21-.33.25-.16.36-.12a4.64,4.64,0,0,1,2,1.14s.08.06.1.05.15-.12.23-.18-.06-.06-.09-.07l-.39-.17s0-.06-.07-.09l.09,0,.64.07.09,0-.08,0a10.28,10.28,0,0,0-1.47-.68s-.08,0-.12,0a.41.41,0,0,0,.07.11l.25.16s0,.07,0,.09a.1.1,0,0,1-.09,0c-.28-.19-.57-.37-.85-.57,0,0-.07-.11-.1-.16s.18-.16.26-.15a6.75,6.75,0,0,1,1.58.44,2.5,2.5,0,0,1,.82.47c.17.15.26-.06.36-.14s.07-.15,0-.22a1.55,1.55,0,0,0-1-.44,1.89,1.89,0,0,1-.89-.33c-.12-.05,0-.1,0-.15s.13-.18.26-.14a2.25,2.25,0,0,0,.73-.08c.11,0,.16-.1,0-.21s-.26-.17-.17-.33.29-.09.45-.09.28,0,.43.06.06,0,.09-.07l-.09-.07a.47.47,0,0,0-.15-.06c-.13,0-.14-.09-.1-.16s.15-.11.19-.09c.35.19.54,0,.76-.25a.75.75,0,0,0,.24-.58.22.22,0,0,1,.07-.19,1.55,1.55,0,0,1,.31-.07,1.24,1.24,0,0,1,0,.27,1.17,1.17,0,0,1-.07.25c0,.06,0,.16,0,.16a.49.49,0,0,0,.25.08.23.23,0,0,0,.14-.15c.06-.24.1-.48.15-.72,0,0,0-.08,0-.09.18-.1.08-.22,0-.34s-.06-.08-.06-.12a1,1,0,0,1,0-.17l.17.05a1,1,0,0,1,.33.15c.12.11.2-.08.3,0s0-.09,0-.12-.23-.32-.33-.49c-.18-.32,0-.56.3-.66a1.57,1.57,0,0,1,1,.12,2.14,2.14,0,0,1,.94.44h.1s0-.1,0-.12l-.64-.64c-.09-.09-.2-.15-.29-.23a1.17,1.17,0,0,0-.88-.19s0,0-.06.07a.47.47,0,0,1-.47.12s-.08-.06-.07-.07a.11.11,0,0,1,.07-.1c.1,0,.26,0,.24-.16s-.17-.17-.27-.18c-.38-.06-.73-.31-1.13-.25l-.13,0s.07.09.1.09.14.1.11.16a.26.26,0,0,1-.18.13s-.15-.08-.16-.13,0-.23-.11-.27a1,1,0,0,0-.46-.16c-.34,0-.68,0-1,0a1.12,1.12,0,0,1-.36,0,1.24,1.24,0,0,0-.53.06s0,.06,0,.07a4.19,4.19,0,0,0,.75.71.87.87,0,0,1,.4.74.47.47,0,0,0,.07.25.29.29,0,0,0,.11.11c0-.05,0-.1,0-.14a.44.44,0,0,1,0-.1.32.32,0,0,1,0-.09l.05,0c.26.33.59.62.55,1.11a1.29,1.29,0,0,1-.65,1c-.13.06-.18.25-.37.21s-.2,0-.31,0l.32,0,.09,0-.06.07a5.49,5.49,0,0,1-.52.65,1.59,1.59,0,0,1-.54.3,4,4,0,0,0-1.05.6c-.27.19-.52.39-.79.57-.09.07-.16,0-.24,0s-.31-.22-.51-.07l-.07,0,.09,0a1.08,1.08,0,0,1,.31,0c.06,0,.1.1.15.15l-.14,0a6,6,0,0,1-1,.08,5.71,5.71,0,0,0-.8.17.55.55,0,0,1-.17,0,2.7,2.7,0,0,0-1.43.21l-.36.07-.39.08c-.18,0-.36.1-.54.13-.38.06-.76.08-1.14.15s-.9.19-1.36.27c-.21,0-.43,0-.64.08-.54.15-1.1.12-1.64.27a11.33,11.33,0,0,1-1.17.15,11.89,11.89,0,0,1-1.88.21.74.74,0,0,1-.21,0s-.07-.06-.1-.09a.28.28,0,0,1,.12,0c.53-.05,1.06-.08,1.59-.15s1-.19,1.54-.27c.25,0,.52,0,.78-.08s.59-.09.88-.16a4,4,0,0,1,1.33-.26.59.59,0,0,0,.29-.07,4.48,4.48,0,0,1,1.26-.25,6.35,6.35,0,0,1,1.18-.29A6.17,6.17,0,0,0,38.46,15a3.34,3.34,0,0,0,.68-.21,3.17,3.17,0,0,1,.87-.25,2,2,0,0,0,.59-.16s.08-.07.11-.07c.26,0,.41-.12.6-.26.4-.31.84-.58,1.26-.85a1.06,1.06,0,0,1,.25-.09l.35-.16a5.51,5.51,0,0,0,.73-.54.88.88,0,0,0,.12-.15c.17-.17.25-.39.51-.5a.53.53,0,0,0,.12-.87,2.22,2.22,0,0,1-.36-.45c-.07-.14-.3-.19-.29-.41,0,0-.1,0-.11.06s-.14.25-.21.37-.24.3-.24.54-.15.3-.25.44-.2.31-.31.32a1.38,1.38,0,0,1-.78,0,.67.67,0,0,0-.18-.07.13.13,0,0,0-.16.08,2,2,0,0,1-.37.4c-.18.17-.56.1-.85-.13s-.14-.12-.25.07a2,2,0,0,1-.25.35.24.24,0,0,1-.18.06s-.08,0-.1-.08,0-.07.05-.09a1.17,1.17,0,0,0,.36-.53,1,1,0,0,0-.32-1l-1.15-.71a2.35,2.35,0,0,1-.29-.26,1.12,1.12,0,0,1,.38.06,14.77,14.77,0,0,1,1.24.82,1,1,0,0,1,.41.92.21.21,0,0,0,.05.14c.21,0,.33.16.52.19,0,0,.06,0,.09,0s.17,0,.17-.05-.08-.06-.13-.09a1.21,1.21,0,0,1-.3-.2s0-.07-.05-.11.09,0,.13,0l.3.11c.16.06.26,0,.27-.15a.68.68,0,0,0-.16-.53,3.43,3.43,0,0,0-1.67-1c-.28-.09-.55-.21-.83-.3a2,2,0,0,0-.4-.12c-.12,0-.11-.07-.1-.14a.14.14,0,0,1,.12-.07,1.72,1.72,0,0,1,.51.11c.51.26,1.07.36,1.59.59.15.07.3.17.46.25h.12c0-.05,0-.11-.05-.14a.82.82,0,0,0-.2-.12c-.49-.22-1-.43-1.48-.66-.09,0-.15-.14-.23-.21a1,1,0,0,1,.33,0c.22.08.43.19.65.29,0,0,0,0,0,0h.26l-.22-.11-.27-.12s-.13-.08-.13-.11.06-.17.11-.19l1-.36c.2-.07.4-.17.6-.25a1.89,1.89,0,0,0,.33-.13c.12-.06.19-.09.25.08s.15.12.24,0,.28-.33.42-.5a.18.18,0,0,0-.05-.12c-.08,0-.18,0-.14-.12s.06-.26.22-.3.22,0,.24-.09a.92.92,0,0,0,0-.37c0-.06-.05-.12-.06-.19a2.07,2.07,0,0,0-1-1.61c-.63-.42-1.22-.9-1.85-1.33a5.58,5.58,0,0,0-.69-.35c-.13-.07-.33-.05-.37-.26a.13.13,0,0,1,.12,0,.1.1,0,0,0,.07,0,.19.19,0,0,1-.07-.06c-.06-.06-.11-.09-.14,0a1.82,1.82,0,0,1-.85-.25.79.79,0,0,0-.34-.1,6.91,6.91,0,0,1-1-.19,7.73,7.73,0,0,1-1-.29C35.61,2,35.31,2,35,1.94s-.66-.18-1-.24-.46-.05-.69-.1l-1.07-.22a5.78,5.78,0,0,0-.6-.08c-.3,0-.61,0-.92-.07s-.79-.17-1.19-.25c-.21,0-.42-.08-.63-.1A6.58,6.58,0,0,1,28,.75a5,5,0,0,0-.78-.08,1.43,1.43,0,0,1-.5-.06c-.12,0-.28,0-.42,0h-.76c-.17,0-.35.06-.5-.07a.2.2,0,0,0-.17,0,2.11,2.11,0,0,1-.79,0c-.25,0-.52-.15-.77,0a.1.1,0,0,1-.09,0,2,2,0,0,0-1.1-.13,14.22,14.22,0,0,0-1.73.08A14.09,14.09,0,0,1,18.82.6a8.55,8.55,0,0,0-1.24.13c-.31.06-.62.05-.92.08l-.78.07s-.06.14-.11,0,0-.06.06-.09a.67.67,0,0,0,.06-.12h-.12s-.08,0-.09,0c-.13.3-.39.18-.61.21a7.24,7.24,0,0,0-1.6.21.2.2,0,0,1-.11,0c-.48-.07-.91.21-1.38.24a3.1,3.1,0,0,0-.51.11c-.21,0-.42.06-.64.07s-.46,0-.65.13c-.55,0-1,.34-1.6.3a.58.58,0,0,0-.31.08,1,1,0,0,1-.6.13s-.1,0-.12,0c-.16.21-.42.14-.63.22,0,0,0,0-.07-.06l0-.11,0,0,.06.11c0,.24-.26.22-.39.34s-.17,0-.25.08-.12.08-.18,0-.07-.06-.09,0-.06.17-.11.19c-.35.14-.64.39-1,.55A1,1,0,0,0,4.36,4a2.59,2.59,0,0,1-.48.61,1.7,1.7,0,0,1-.19.19l-.64.43c-.18.12-.22.27-.08.42A3.37,3.37,0,0,1,3.26,6a.37.37,0,0,0,.32.18c.13,0,.22.13.33.23a1.77,1.77,0,0,0,.63.31c.43.18.89.28,1.34.43s1,.28,1.58.42A1.66,1.66,0,0,0,8,7.49c.12,0,.21,0,.18.16s0,.12.11.13.12.08.17.12,0,.08.05.08c.26-.05.4.14.54.28a.81.81,0,0,0,.59.22,4.19,4.19,0,0,1,1.06,0c.14,0,.31,0,.46,0s.52,0,.77,0a.31.31,0,0,1,.12,0,.87.87,0,0,1-.11.09,1.36,1.36,0,0,1-.33.14,7.17,7.17,0,0,0-.81.08c-.4.12-.82,0-1.21.13-.08,0-.2,0-.3,0s-.32-.11-.42.14c0,.08-.17.12-.26.19-.28.22-.57.43-.85.66s-.56.46-.83.7a.31.31,0,0,0-.07.09.34.34,0,0,0,.13,0l.5-.25a1.7,1.7,0,0,1,.22-.15,1.69,1.69,0,0,1,.24-.08c-.06.09-.08.21-.16.27a5.17,5.17,0,0,1-1,.63c-.24.1-.38,0-.4-.2s0-.16-.2-.08a6.24,6.24,0,0,1-.91.42c-.2.07-.35-.08-.37-.32s0-.21-.18-.09a.9.9,0,0,1-.65.2A.32.32,0,0,1,3.85,11,.23.23,0,0,0,3.61,11c-.22.06-.46.19-.6-.14,0-.05-.16-.06-.24-.09s-.25-.22-.15-.37a3.66,3.66,0,0,1,1-1.18c.11-.08.17-.23.28-.33l.7-.58.05,0a.1.1,0,0,0-.05,0,.59.59,0,0,0-.55.08c-.24.18-.47.37-.71.57s-.6.48-.88.74a4.51,4.51,0,0,0-.9,1.18c-.05.07-.09.1,0,.2s0,.2-.11.28-.14,0-.2,0l-.09,0c0-.16,0-.32.05-.47a.52.52,0,0,1,.06-.13.86.86,0,0,0-.17,0s-.05.05-.08.07-.25.11-.27.19.08.22.14.32a8.52,8.52,0,0,0,.55.75c.24.3.54.55.76.85a3.46,3.46,0,0,0,1,.85,3.79,3.79,0,0,0,1.28.47,5.87,5.87,0,0,1,1.65.36.47.47,0,0,0,.35,0,.28.28,0,0,1,.36.08c.08.09.16.14.29.06s.18,0,.27,0,.26.1.18.26,0,.17.14.25a3,3,0,0,0,.82.16c.27.07.56.06.83.11s.63.13.94.2h.81c.36,0,.73.07,1.09.07.53,0,1.06,0,1.59-.07a.92.92,0,0,0,.38-.08,1.44,1.44,0,0,1,.76-.13h2.67c.33,0,.66,0,1-.07.09,0,.18,0,.21.12s.13.1.19.09c.35-.1.72-.07,1.07-.14A11.76,11.76,0,0,0,21.81,15l.12,0H22L22,15s-.08.1-.13.12l-1,.28-.7.17s-.09.05-.12,0c-.49-.07-.73.24-1,.59a2.42,2.42,0,0,1-.31.33l-.11.09c.07,0,.14.06.19,0a2.25,2.25,0,0,0,.5-.29,2.38,2.38,0,0,1,.56-.35c.15-.07.28-.19.42-.27s.16-.06.21,0a.25.25,0,0,1,.09.2.9.9,0,0,1-.31.54.6.6,0,0,0-.11.06.52.52,0,0,0-.06.13c.06,0,.13,0,.17,0a2.34,2.34,0,0,0,.39-.25c.22-.19.51-.29.75-.46a1.23,1.23,0,0,1,.42-.19s.14.08.15.14a.47.47,0,0,1-.09.41l-.13.2,0,.07s.08,0,.09,0c.32-.24.76-.14,1.07-.41a.84.84,0,0,1,.43-.14.29.29,0,0,1,.36.26c.05.23.11.3.33.29a2.54,2.54,0,0,0,.61-.07c.42-.11.86-.13,1.29-.25s1-.25,1.54-.37c.34-.08.69-.07,1-.16a2.85,2.85,0,0,1,.92,0,2.31,2.31,0,0,1,.84.18,3.42,3.42,0,0,0,.81.16c.11,0,.23,0,.35,0s.2-.08.21.07a.46.46,0,0,1-.23.06,4.33,4.33,0,0,1-1.85-.29,1.71,1.71,0,0,0-.84,0c-.44.06-.87.16-1.3.26s-.6.2-.91.25c-.74.1-1.37.51-2.1.62-.25,0-.49.18-.78,0a.63.63,0,0,1-.35-.33c-.06-.16-.16-.23-.3-.17s-.31.17-.47.24c-.34.16-.68.32-1,.45-.1,0-.27.07-.34-.08s-.19-.25,0-.39a.22.22,0,0,0,.05-.14s-.1-.08-.11-.07a7.39,7.39,0,0,1-1,.64.85.85,0,0,1-.62.19c-.21,0-.3-.13-.22-.32a1.48,1.48,0,0,1,.21-.3.16.16,0,0,0,0-.07s-.08,0-.1,0l-.36.23-.93.65c-.1.06-.23.07-.33.13s-.21.07-.26,0a.34.34,0,0,1,0-.28,4.64,4.64,0,0,1,.78-.93.53.53,0,0,0,.06-.1.5.5,0,0,0-.12,0c-.45.27-.91.52-1.35.8s-.68.45-1,.66a1.78,1.78,0,0,1-.48.19.25.25,0,0,1-.29-.32c0-.08.1-.14.14-.22s.07-.15.11-.22a1.69,1.69,0,0,0-.24.08,9.41,9.41,0,0,0-1,.62,4.05,4.05,0,0,1-.84.52l0,0c-.21.1-.43.11-.49,0s0-.31.1-.45.22-.44.46-.54c.05,0,.07-.11.1-.17a.59.59,0,0,0-.2,0,3.87,3.87,0,0,0-.59.36c-.34.26-.75.38-1.07.67a.67.67,0,0,1-.56.17c-.15,0-.2-.1-.11-.24a1,1,0,0,1,.2-.25,2.31,2.31,0,0,1,.24-.2s0-.05,0-.07-.07,0-.09,0a1.19,1.19,0,0,0-.15.09l-1,.64a2,2,0,0,1-.45.17c-.1,0-.25-.11-.25-.25a1,1,0,0,1,.23-.64.42.42,0,0,0,0-.12l-.1,0a8.74,8.74,0,0,1-1.08.6c-.18.07-.27,0-.39-.11a.14.14,0,0,1,0-.11c.09-.11.19-.21.29-.31l.11-.11s-.13-.05-.16,0-.26,0-.39.06-.14,0-.15-.05c-.09-.26-.22-.13-.35-.05a.54.54,0,0,1-.24.09c-.13,0-.27.05-.38-.08a.34.34,0,0,1,0-.38A4.67,4.67,0,0,1,7,16.79a.25.25,0,0,1,0-.07s-.07,0-.1,0c-.53.31-1.1.55-1.65.83-.12.06-.15.11-.07.26s.35.27.49.44.1.06.13.1a3.32,3.32,0,0,0,1.5.88c.48.19,1,.3,1.44.52a4.06,4.06,0,0,0,.85.39,11.55,11.55,0,0,0,1.4.37c.39.05.77.13,1.15.21l.46,0a5.22,5.22,0,0,0,1.24.17,7,7,0,0,1,1,0,5.14,5.14,0,0,1,.55.06.37.37,0,0,0,.21,0,1.63,1.63,0,0,1,1,.07c.17,0,.35-.06.54,0a1.87,1.87,0,0,0,.47,0c.15,0,.3,0,.45,0h.46a2.66,2.66,0,0,0,.49,0,13.47,13.47,0,0,1,2.1-.14,8.69,8.69,0,0,0,1.45-.15c.28-.05.56,0,.82-.07a6.14,6.14,0,0,0,1-.12c.08,0,.19,0,.28,0a3.54,3.54,0,0,0,.79,0,1.23,1.23,0,0,1,.55.08s0,0,.08.07-.08.05-.1,0a3.28,3.28,0,0,0-1.21,0,3.87,3.87,0,0,0-1.16.16.92.92,0,0,1-.44,0,.28.28,0,0,0-.31.22,3.8,3.8,0,0,1-.55.93.86.86,0,0,0-.23.5.22.22,0,0,1-.05.11.39.39,0,0,1-.11-.06.53.53,0,0,1-.13-.6,2,2,0,0,1,.73-.89s0-.07,0-.1-.07,0-.1,0c-.36,0-.73.08-1.1.14a.64.64,0,0,0-.25.15c-.3.27-.6.54-.89.82s-.28.28-.42.42,0,.05,0,.07a.33.33,0,0,0,.1,0c.08-.08.15-.18.29-.1a2.09,2.09,0,0,0-.2.22,7.17,7.17,0,0,1-1.33,1.19c-.09.08-.22.12-.3,0s-.19-.2-.09-.34a1.21,1.21,0,0,1,.15-.22l.86-.8c.16-.14.33-.25.47-.4a7.32,7.32,0,0,0,.59-.66c.08-.11.32-.07.27-.29a2.47,2.47,0,0,0-.62.16c-.08.2-.28.26-.44.38L17.9,23c-.35.26-.71.51-1,.77s-.42.39-.65.57-.05.16,0,.2a.91.91,0,0,0,.81.17.28.28,0,0,1,.25,0c.27.14.55.24.83.36s.5.09.7.27l.1-.07-.05-.06a2.41,2.41,0,0,1-.21-.24,1.79,1.79,0,0,1-.12-.24,1,1,0,0,1,.3,0l1.09.52.1,0,.09,0L20,25.2a.35.35,0,0,1-.1-.08s0-.07,0-.09A.09.09,0,0,1,20,25l.15.06.67.32a3.47,3.47,0,0,0,.73.29,5,5,0,0,1,1.5.53,2.39,2.39,0,0,0,.48.19,5.51,5.51,0,0,1,.75.33c.15.06.32.07.47.13l1.08.44a.25.25,0,0,0,.12,0,1,1,0,0,1-.08-.11h0L25.68,27c.07,0,.15,0,.21,0a1.49,1.49,0,0,1,.43.24,1.4,1.4,0,0,0,.74.34,1.52,1.52,0,0,1,.28.09.68.68,0,0,0,.74,0c.05,0,.13,0,.19,0a.91.91,0,0,1-.09.17s-.07.06-.09.1a.11.11,0,0,0,0,.09.09.09,0,0,0,.09,0,5.21,5.21,0,0,0,.56-.34c.1-.07,0-.14-.06-.14a7.29,7.29,0,0,1-1.94-.66c-.4-.15-.81-.25-1.21-.4a5.71,5.71,0,0,0-.58-.21,5.15,5.15,0,0,0-.93-.2,2.59,2.59,0,0,1-.94-.38c-.25-.13-.53-.18-.77-.33h-.07c-.07-.08-.28,0-.23-.2s.2,0,.28,0l1.29.45s.06,0,.09,0a6,6,0,0,1,1.5.3,1.42,1.42,0,0,1,.63.25,1,1,0,0,0,.43.16l.31,0a3,3,0,0,0-.25-.25c-.14-.09-.31-.16-.45-.25s-.05-.1-.07-.14.14,0,.19,0c.21.12.41.26.61.39a2,2,0,0,0,.37.21s.14-.05.21-.07-.06-.12-.11-.15-.16-.06-.23-.11-.09-.08-.13-.12a.45.45,0,0,1,.16,0,1.18,1.18,0,0,1,.38.09,5.67,5.67,0,0,0,1.35.56c.37.07.71.22,1.09.28a10.22,10.22,0,0,1,1.29.27,3.32,3.32,0,0,0,1.39.27l.68-.07a.09.09,0,0,0,0,0,.1.1,0,0,0,0-.05.67.67,0,0,0-.12-.06,16.41,16.41,0,0,1-2.05-.47,14.05,14.05,0,0,1-2.18-.94s-.05-.08-.08-.12.1-.09.14-.08a2.24,2.24,0,0,1,.34.11c.37.16.73.33,1.11.47s.8.27,1.2.4l1.11.3.73.19s.08,0,.13-.06l-.12-.08a2.91,2.91,0,0,1-1.57-.81s0-.09-.07-.14a.45.45,0,0,1,.16,0A1.06,1.06,0,0,1,32,26a8,8,0,0,0,1.82.67,5.05,5.05,0,0,0,.68.08,1.58,1.58,0,0,0,.71-.14,1.9,1.9,0,0,1,1.22-.15,1,1,0,0,0,.71-.16c.18-.07.37-.12.55-.18,0,0,.06,0,.08,0l0,.05a.91.91,0,0,0-.14.07l-.2.17a.76.76,0,0,0,.3,0c.2-.05.38-.14.58-.21s.26,0,.29.15c1.14,0,.57.26.07.5a.17.17,0,0,1-.13.21,3.21,3.21,0,0,1-.43.07,9.74,9.74,0,0,0-1.21.14,3.28,3.28,0,0,1-.7,0,.86.86,0,0,0-.54.16.25.25,0,0,1-.15.05c-.19,0-.39-.05-.57.07s-.1,0-.15,0-.18-.1-.2.07c0,0-.05,0-.08,0a1.9,1.9,0,0,0-1,.28.2.2,0,0,1-.17,0,3.13,3.13,0,0,0-1.46.07,4.76,4.76,0,0,1-.75.07,7.36,7.36,0,0,0-1.24.14,3.81,3.81,0,0,1-.67.07c-.22,0-.44,0-.62.13s-.09,0-.13,0c-.59,0-1.18.06-1.77.06a6.17,6.17,0,0,0-1.21.16l-.38.06c-.13,0-.26,0-.4.06a.51.51,0,0,1-.4,0c-.15-.07-.25,0-.37,0a1.42,1.42,0,0,0-.68.05c-.09,0-.22,0-.33,0a.75.75,0,0,0-.2,0,1.3,1.3,0,0,1-.44,0c-.57,0-1.15-.05-1.72-.08-.25,0-.5-.06-.75-.07-.09,0-.19.06-.29.06l-1.25,0-.1,0-1.06-.07a5,5,0,0,1-1.26-.26l-1.18-.38c-.52-.19-1-.43-1.52-.67a2.8,2.8,0,0,0-.67-.23,1.64,1.64,0,0,1-.56-.28,3.76,3.76,0,0,1-1-1.31,1.47,1.47,0,0,1-.07-.93c0-.1.05-.2.05-.3,0-.57,0-1.15,0-1.72,0-.15.11-.26,0-.44s0-.34-.24-.44c0,0,0-.24,0-.36s0-.12-.07-.14-.08-.06-.11-.06a3.52,3.52,0,0,1-1.26-.37A10.7,10.7,0,0,1,8,20.17c-.18-.08-.38-.11-.56-.17A1.67,1.67,0,0,1,7,19.84a4.59,4.59,0,0,0-.6-.27,3.35,3.35,0,0,1-.84-.52,8.34,8.34,0,0,1-.65-.53A1.89,1.89,0,0,1,4.3,17.3a1.08,1.08,0,0,0,0-.43.42.42,0,0,1,.31-.59,3.46,3.46,0,0,0,.81-.48s.07-.1,0-.12c-.18-.24,0-.44.1-.64s.06-.11,0-.19a1.67,1.67,0,0,0-.63-.18c-.44-.11-.91-.13-1.35-.23a1.33,1.33,0,0,1-.72-.36c-.19-.24-.53-.2-.69-.47s-.22-.23-.33-.35-.38-.46-.6-.66a4.48,4.48,0,0,1-.89-1.11A1.51,1.51,0,0,1,0,10.4a1.46,1.46,0,0,1,.32-.6,5.24,5.24,0,0,0,.6-1c.11-.23.28-.43.4-.65s.1-.25-.09-.42-.28-.27-.19-.5A.18.18,0,0,0,1,7.13c-.14-.16-.14-.25.05-.4a3.42,3.42,0,0,0,.49-.63c.17-.23.33-.45.48-.68a.34.34,0,0,0,.08-.21.58.58,0,0,1,.35-.54A2.84,2.84,0,0,0,3.68,3.6a1.37,1.37,0,0,1,.57-.46,17.79,17.79,0,0,1,1.69-.85,2.12,2.12,0,0,1,.68-.2,9.63,9.63,0,0,0,1-.25c.3,0,.6-.15.9-.2s.45-.11.67-.17a7,7,0,0,1,.91-.18,6.07,6.07,0,0,0,.85-.16L11.85,1l1-.19c.16,0,.32-.07.49-.09a6.48,6.48,0,0,0,.77-.08c.39-.08.79,0,1.17-.07s.66,0,1-.07c.48,0,.95-.13,1.43-.2a.34.34,0,0,1,.1,0c.89,0,1.79,0,2.68-.09A11.25,11.25,0,0,0,21.74.05a1.34,1.34,0,0,1,.88.05.49.49,0,0,0,.21,0,5.42,5.42,0,0,1,1.39.13,1.77,1.77,0,0,0,.5,0,.47.47,0,0,1,.17,0c.25,0,.5.11.75.13a.87.87,0,0,0,.5,0,.58.58,0,0,1,.45,0,1.43,1.43,0,0,0,.5.06,5,5,0,0,1,1.1.13c.21,0,.43,0,.64.08A12.37,12.37,0,0,1,30.91,1,.34.34,0,0,0,31,1c.45,0,.9,0,1.34.08s1.06.13,1.58.25.76.14,1.14.23.93.25,1.4.35.84.11,1.25.22a10.84,10.84,0,0,1,1.65.51,9.45,9.45,0,0,1,1.31.66c.22.15.48.24.71.38s.61.42.91.62a3.51,3.51,0,0,1,.69.47,2.62,2.62,0,0,1,.68,1.44,4.64,4.64,0,0,1,.07.64c0,.46.17.52.51.54a16.06,16.06,0,0,1,1.82.3,2.35,2.35,0,0,1,.61.22A18.65,18.65,0,0,1,49.1,9.14a5.61,5.61,0,0,1,.95.6c.25.24.55.46.52.88,0,.07,0,.14.06.21s0,.1-.1,0-.06,0-.1,0l0,0c.21.26.2.26.13.58a.23.23,0,0,0,0,.14s.07.06.1.1.3.29.2.53-.08.4-.32.49a.31.31,0,0,0-.17.35.71.71,0,0,1-.15.47,2.74,2.74,0,0,1-.9.86,1.24,1.24,0,0,0-.18.14c-.18.18-.14.41.1.48a.33.33,0,0,1,.24.2.57.57,0,0,0,.17.18c.34.26.46.68.72,1a.94.94,0,0,1,.13.76,5.43,5.43,0,0,1-.13.68c0,.12-.12.2-.16.32a5,5,0,0,1-.42.74.66.66,0,0,0-.05.15.91.91,0,0,1-.62.63.67.67,0,0,0-.14.09,1.08,1.08,0,0,1-.85.33.39.39,0,0,0-.14.05l.13,0c.13,0,0,.08,0,.1l-.49.25s-.11,0-.13,0a4.53,4.53,0,0,1-1.11.63,2.61,2.61,0,0,1-.85.34c-.11,0-.31.11-.24.31a3.15,3.15,0,0,1,.07.92c0,.14.06.28.07.43a2.45,2.45,0,0,1-.21,1.28c-.09.14-.18.3-.39.28a.26.26,0,0,0-.12,0c-.21.27-.54.28-.83.36s-.32.1-.47.15a15.46,15.46,0,0,0-1.66.57c-.29.11-.59.18-.86.3a3.09,3.09,0,0,1-.73.29c-.33.08-.67.14-1,.25a.26.26,0,0,1-.19,0,.83.83,0,0,1-.14-.22s.08-.1.09-.09c.4.18.73-.08,1.08-.15.08,0,.17,0,.25,0s.29.06.14-.17a1.27,1.27,0,0,1,.16-.11,1.73,1.73,0,0,1,.24-.1c-.11-.11-.18,0-.27,0-.33.11-.66.23-1,.32a3.38,3.38,0,0,1-.71.1c-.07,0-.14-.1-.2-.17s0-.1,0-.1a1.31,1.31,0,0,1,.28,0,1.41,1.41,0,0,0,.78-.16c.26-.13.54-.22.81-.34s.39-.26.65-.21c.23-.33.69-.34.91-.69,0,0,.07-.06.1-.08a3.74,3.74,0,0,0,1-.77,2.23,2.23,0,0,0,.27-.41c.1-.2.06-.29-.12-.44l-.13-.12c-.1-.08,0-.14,0-.14a1.47,1.47,0,0,1,.42.06c.08,0,.14.14.19.23a1,1,0,0,1-.09.95,2.61,2.61,0,0,1-1.07.81,6.63,6.63,0,0,0-1.08.7l-.39.25s0,0,0,.08,0,0,.07,0,.21-.2.37-.07a.27.27,0,0,0,.15-.11.38.38,0,0,1,.32-.25,6.05,6.05,0,0,0,1-.48,1.13,1.13,0,0,0,.26-.23c.2-.24.39-.5.6-.74s.36-.35.33-.64c0,0,0-.09.06-.14s0-.14.05-.21a.81.81,0,0,0-.31,0c-.11,0-.14.06-.15,0s-.23-.13-.12-.28a.36.36,0,0,1,.36-.15,1.36,1.36,0,0,0,.35,0s.07-.08.11-.12l-.12-.08a.43.43,0,0,0-.44,0c-.07.05-.18,0-.28,0a5.64,5.64,0,0,0-1.15.19,1.39,1.39,0,0,1-.38.09,2.52,2.52,0,0,0-.9.21,3.45,3.45,0,0,1-.86.2c-.36,0-.67.2-1,.18a5.45,5.45,0,0,0-.68.05.21.21,0,0,0-.15,0c-.09.09-.17.06-.29.05a2.57,2.57,0,0,0-.73.05,1.89,1.89,0,0,1-.23.05,3.69,3.69,0,0,0-1.32.21.49.49,0,0,1-.21,0,1.35,1.35,0,0,0-.66.1.65.65,0,0,1-.19,0,8.24,8.24,0,0,0-1.32.2c-.23.06-.48,0-.71.08a7.69,7.69,0,0,0-1.15.2,3.19,3.19,0,0,1-.7.08l-.47.07a10.88,10.88,0,0,0-1.37.32c-.2.07-.42,0-.61.16s-.19,0-.22-.13c-.08-.32-.3-.39-.6-.35s-.73.05-1.1.07h-.14c-.11,0-.26,0-.26-.11s.15-.1.26-.1a2.12,2.12,0,0,0,.75-.14h.14a5,5,0,0,0,1.71-.38,1.32,1.32,0,0,0,.34-.2c.1-.08.24-.1.29,0s-.07.21-.13.29a2.73,2.73,0,0,1-.25.23.1.1,0,0,0,0,.09s.07.05.08,0c.17-.11.42,0,.56-.19,0,0,.09,0,.13,0,.67-.26,1.34-.51,2-.78.36-.15.69-.36,1-.54a.26.26,0,0,1,.39.17c0,.14.13.11.18.09.2-.09.4-.22.61-.31L35.69,22l.87-.35s.1-.07.15-.07a2.14,2.14,0,0,0,1.14-.39,2.58,2.58,0,0,1,.55-.2s.12,0,.17.09a.17.17,0,0,1,0,.14.3.3,0,0,1-.12.13l-1.05.51-.27.11c-.33.17-.66.34-1,.53s-.63.18-.89.41a.15.15,0,0,1-.16,0c-.18-.13-.3,0-.45.06a8.13,8.13,0,0,1-1.16.44s-.05.05-.08.07.08.07.09.06c.25-.14.53-.06.8-.12a6.42,6.42,0,0,1,1.31-.23,1.8,1.8,0,0,0,.45-.09l.16,0A2.8,2.8,0,0,1,36.5,23a2.44,2.44,0,0,1-.06-.26c0-.17.17-.39.33-.31a.56.56,0,0,0,.61-.08c.51-.3,1-.59,1.53-.9a5.31,5.31,0,0,1,.66-.43,5.18,5.18,0,0,0,.69-.4c.1-.07.27,0,.4,0a.23.23,0,0,1,0,.19,1.08,1.08,0,0,1-.24.18l-.71.5a2.88,2.88,0,0,1-.46.24,1.73,1.73,0,0,0-.68.4s0,0,0,0c-.33,0-.51.3-.8.38a.74.74,0,0,0-.22.14,1.85,1.85,0,0,0-.14.14.45.45,0,0,0,.22,0,2.53,2.53,0,0,0,.65-.29c.52-.36,1-.7,1.59-1,.23-.13.42-.33.66-.44a4.81,4.81,0,0,0,.62-.47,6.12,6.12,0,0,1,.79-.54c.14-.06.26-.11.36,0s0,.26-.11.35a4,4,0,0,1-.4.28l-.47.32a.59.59,0,0,1-.17.1,19.22,19.22,0,0,0-1.69,1c-.06,0-.09.11-.14.17s.18,0,.24,0A8.34,8.34,0,0,0,41,21.57a8.49,8.49,0,0,1,1-.65,6.7,6.7,0,0,0,1.36-1.13,1.59,1.59,0,0,0,.15-.21c.08-.12,0-.14-.08-.14a.29.29,0,0,1-.1,0s0-.07.07-.07a4.55,4.55,0,0,1,.52,0c.07,0,.11.24.08.35-.16.51-.61.75-1,1.05a5.22,5.22,0,0,1-.8.52A13.63,13.63,0,0,1,41,22s-.08.09-.12.13a1,1,0,0,0,.21.08c.12-.2.42-.13.52-.36a.1.1,0,0,1,.08-.06c.25,0,.4-.16.6-.24a4.46,4.46,0,0,0,.86-.54c.34-.26.7-.48,1.05-.73s.73-.62,1.13-.9a1.11,1.11,0,0,0,.36-.51c.07-.19.19-.09.28-.09s.12.1.16.17,0,.11,0,.17,0,0,0,.06a.1.1,0,0,0,.05,0c.19-.18.16-.32-.09-.45a.07.07,0,0,1,0-.06s0-.07,0-.07h.14c.17,0,.4-.14.47,0a.74.74,0,0,1,0,.63,2,2,0,0,1-.62.76,1.84,1.84,0,0,0-.26.24.18.18,0,0,0,0,.09l0-.07m4.5-9.1h.07a.1.1,0,0,1-.07-.07h-.06a.18.18,0,0,1,.06.08M5.18,3.2v.06a.11.11,0,0,1,.07-.06V3.13a.14.14,0,0,1-.08.07M18.64,26h.07a.3.3,0,0,1-.07-.08.15.15,0,0,1-.07-.07l-.7-.42a2,2,0,0,0-.29-.14,1,1,0,0,0-.18,0,.68.68,0,0,0,.12.12,1.38,1.38,0,0,0,.42.24c.23.05.37.31.63.29a.12.12,0,0,1,.07.07M48.91,13.46v.07a.3.3,0,0,1,.08-.07V13.4a.11.11,0,0,1-.07.06m-5.84,4.08-.09,0,0,.05a.37.37,0,0,1,.14-.07v-.06a.14.14,0,0,1-.08.06M45.25,23l0-.11h0a.23.23,0,0,1-.06.12l0,.12h0a.27.27,0,0,1,0-.13M2.93,4.68l-.17.09s0,.05,0,0a.39.39,0,0,0,.14-.08s0,0,.06-.05V4.61a.3.3,0,0,1-.08.07m40,4.18H43a.11.11,0,0,1-.06-.07s0-.08,0-.09a.56.56,0,0,0-.16-.07s-.05,0-.08.07l.14.1s.09,0,.13.06M12.7,22.39,12,23s0,0,0,.07.08,0,.11,0,.26-.22.4-.31a.91.91,0,0,0,.34-.36l.11-.08,0,0-.09.08a.1.1,0,0,1-.06.05m31.22-5.13c.38-.1.76-.19,1.13-.3.09,0,.16-.11.23-.16-.1,0-.21-.06-.3,0l-.9.35c-.07,0-.13.09-.23.14v.06a.18.18,0,0,1,.08-.06m-4.36,1.12a1.58,1.58,0,0,0-.38,0,10.3,10.3,0,0,1-1.65.35,2,2,0,0,0-.45.16A.36.36,0,0,0,37,19l.1,0,.73-.18,1.2-.25c.19,0,.42,0,.59-.21a.34.34,0,0,0,.1,0,.13.13,0,0,0,.07,0s0,0-.06,0l-.18.06M5,8.4H5c-.37.32-.75.63-1.1,1s-.56.6-.84.91a.25.25,0,0,0,0,.07s.07,0,.09,0a1.58,1.58,0,0,0,.31-.26,6.22,6.22,0,0,1,.7-.75c.32-.33.66-.64,1-1l.09,0v0L5,8.4M46.38,20.56l.18-.07a4.39,4.39,0,0,0,1.07-.62c.34-.34.66-.7,1-1.06a.69.69,0,0,0,.1-.19,1.09,1.09,0,0,0-.17.13A7.57,7.57,0,0,1,47,20a2.07,2.07,0,0,0-.72.57v.07a.3.3,0,0,1,.08-.07M15,26.79h.06a.14.14,0,0,1-.06-.07l-1.35-1.14a2,2,0,0,0-.41-.2s-.06,0-.07,0a.37.37,0,0,0,.18.52l.84.42a8.32,8.32,0,0,1,.81.46m4.18-5.38c-.24-.05-.42.1-.62.19a5.26,5.26,0,0,0-1,.7c-.31.24-.6.51-.91.76l-1,.82a1.61,1.61,0,0,0-.22.23.12.12,0,0,0,.1.18.48.48,0,0,0,.4-.13l.89-.74c.42-.36.83-.73,1.28-1.06s.81-.61,1.22-.95v-.07s0,.05-.08.07m-.1,4.39H19a.15.15,0,0,1,.07.07,2.12,2.12,0,0,1,.36.3,2.32,2.32,0,0,0,.93.58c.32.16.68.26,1,.43a15.51,15.51,0,0,0,2.22.82,4.06,4.06,0,0,0,.7.08s.08,0,.11,0l-.09,0a1.39,1.39,0,0,1-.68-.4.4.4,0,0,0-.17-.09,2.81,2.81,0,0,1-.75-.33L22.36,27c-.47-.18-.94-.38-1.42-.55s-1.23-.49-1.87-.68m.66,1.86c.12,0,.26,0,.3-.1s-.14-.12-.21-.18h0c-.41-.25-.82-.52-1.24-.75s-.92-.44-1.37-.67-.7-.37-1.05-.53c-.2-.1-.42-.27-.64-.2a.43.43,0,0,1-.48-.17c-.06-.06-.11-.12-.17-.17s-.08,0-.12,0l0,.07c.17.14.32.29.5.42a12.92,12.92,0,0,0,1.24,1,3.73,3.73,0,0,1,.39.25,2.78,2.78,0,0,0,1.67.65c.05,0,.1,0,.14.05a.64.64,0,0,1-.08.14l-.11.08a1.22,1.22,0,0,0,.17.07c.07,0,.16-.06.21,0a1.82,1.82,0,0,0,.83.11M34,16.66c-.11,0-.22,0-.34,0a.42.42,0,0,0-.15,0,.68.68,0,0,1,.12.12,3.24,3.24,0,0,1,.41.63A.8.8,0,0,1,34,18a2.26,2.26,0,0,1-.53.84c-.28.26-.28.31,0,.62.07.1.08.27.28.25a.63.63,0,0,0,.39-.17,1.73,1.73,0,0,0,.55-.75,2.71,2.71,0,0,0,.18-1.13,1.2,1.2,0,0,0-.85-.95M42.72,11c.19,0,.38,0,.46-.21a.59.59,0,0,0-.25-.49h0A6.12,6.12,0,0,0,41,9.53s-.1,0-.15,0a.45.45,0,0,0,.06.12l.49.42a1.32,1.32,0,0,1,.44.91c0,.35.16.48.51.47a4.09,4.09,0,0,0,.6-.07s.09-.06.14-.09-.09-.11-.14-.11-.26,0-.24-.22M20.37,25.77l-.09.05a1.51,1.51,0,0,0,.28.15c.22.08.44.13.65.22s.58.31.88.41a11.08,11.08,0,0,1,1.48.69c.38.18.74.41,1.11.61a2,2,0,0,0,.46.18,1.39,1.39,0,0,0,.49.07,3.69,3.69,0,0,1,.47,0l1-.07.09,0s0-.06-.07-.07c-.26-.07-.49-.27-.8-.06a.5.5,0,0,1-.49,0c-.18-.17-.42-.14-.6-.27a6.28,6.28,0,0,0-.59-.27c-.45-.23-.91-.43-1.37-.61s-.88-.3-1.32-.44-1-.35-1.54-.56M2.86,8.05a.47.47,0,0,0-.38.17c-.25.27-.51.54-.74.82a1.72,1.72,0,0,0-.31.54,2.45,2.45,0,0,1-.32.57c-.06.08-.14.14-.1.26l.21-.11a.83.83,0,0,0,.48-.37,2.37,2.37,0,0,1,.41-.49c.26-.25.52-.49.79-.72s.45-.36.68-.55a.44.44,0,0,0,.08-.1l-.13,0H2.86M8,8.79c-.18.11-.36.2-.53.32L5.86,10.32l-.64.47-.07.09.11,0H5.4a5.84,5.84,0,0,0,1.81-1c.3-.28.59-.57.91-.83a2.57,2.57,0,0,1,.5-.24s.06.14.11,0,0-.08-.06-.11-.12-.06-.17-.1-.23-.1-.34,0L8,8.79M7.4,8.72c-.09-.08-.16-.17-.25-.24a.19.19,0,0,0-.17,0,3.7,3.7,0,0,0-.51.29c-.35.26-.69.54-1,.82A2.16,2.16,0,0,0,5,10a2.66,2.66,0,0,1-.7.68s-.06.07-.1.1.11.05.16,0a1.32,1.32,0,0,0,.42-.23A3,3,0,0,0,5.61,10a2.43,2.43,0,0,1,.57-.49,5.29,5.29,0,0,0,1-.77s.09,0,.18,0m6.89,8.22c-.23.22-.45.44-.66.67,0,0,0,.12,0,.19a.66.66,0,0,0,.15,0c.62-.33,1.24-.67,1.85-1a2.5,2.5,0,0,0,.47-.39.26.26,0,0,0,.05-.12c-.05,0-.11,0-.15,0a3.13,3.13,0,0,1-1,.21.25.25,0,0,0-.12,0l-.55.48m-.43,6.19.43-.42a6.17,6.17,0,0,1,1.12-.92,4.84,4.84,0,0,0,.44-.3s0,0,0-.07a.09.09,0,0,0-.07,0,3.77,3.77,0,0,0-.65.37c-.5.39-1,.82-1.46,1.23-.1.09-.21.16-.32.25l-1.13,1c-.07.06-.12.12,0,.2a.35.35,0,0,0,.46,0l1.17-1.32m.43.49.14-.07c.44-.37.87-.77,1.34-1.11.31-.23.51-.58.89-.71,0,0,.06-.09.09-.14a.76.76,0,0,0-.16,0,1.28,1.28,0,0,0-.27.11,6.12,6.12,0,0,0-1.2.83,10.66,10.66,0,0,1-.88.76c-.22.2-.43.42-.64.64a.07.07,0,0,0,0,.09s.06,0,.09,0c.25-.06.39-.26.6-.46M3.57,10.44l-.13.13a1.17,1.17,0,0,0,0,.11h.14c.4-.06.62-.4.89-.63.54-.46,1-1,1.53-1.49,0-.05.11-.06.17-.09l.08-.08s-.1-.07-.13-.05a2.26,2.26,0,0,0-.43.24c-.35.26-.69.54-1,.81a4.47,4.47,0,0,0-1,1m13,6-.52.59s0,.08,0,.12a.36.36,0,0,0,.15,0l.78-.5c.39-.24.84-.36,1.24-.57l.33-.15a.18.18,0,0,0,.07-.05s-.05-.07-.07-.07-.08,0-.12,0c-.32.06-.63.14-.95.17a.89.89,0,0,0-.87.46m-4.89.25a4,4,0,0,0-.87.59l-.77.62A.61.61,0,0,0,10,18a.58.58,0,0,0,.14,0l.32-.17c.21-.12.42-.24.63-.34s.37-.12.54-.21c.32-.18.62-.37.93-.56a.94.94,0,0,0,.1-.1.56.56,0,0,0-.12,0,7.2,7.2,0,0,0-.83.14m2.74,7.52.26-.14a.67.67,0,0,0,.15-.06l1.5-1.28,1.09-.91a.53.53,0,0,0,.06-.1s-.09,0-.12,0c-.38.29-.77.57-1.15.87a8.63,8.63,0,0,1-.81.66c-.42.24-.74.61-1.14.88-.06,0,0,.12.16.11m16.63,3.69,1.15-.11s.08-.05.11-.08a.19.19,0,0,0-.1,0c-.28,0-.56-.06-.85-.07a2,2,0,0,1-1-.14s-.11,0-.17,0l-.12,0s.08.09.12.1.2,0,.28,0,.11.1.16.15l-.15.06a.59.59,0,0,1-.47,0,1,1,0,0,0-.86.13A1.42,1.42,0,0,1,29,28l-.1,0s.08,0,.12,0l.91-.07c.11,0,.24,0,.33,0a4.18,4.18,0,0,1,.82-.1M45,20.14c-.48.33-.95.68-1.45,1-.33.2-.58.52-1,.61,0,0,0,0-.08.07l0,.07a.32.32,0,0,0,.09,0,2.14,2.14,0,0,0,.65-.18l.62-.47c.46-.33.91-.69,1.36-1a.41.41,0,0,0,.07-.11,1.41,1.41,0,0,1-.24,0M49.61,11l.27.2s.08,0,.12,0,0-.08,0-.1a3,3,0,0,0-1.49-.71,3.41,3.41,0,0,0-.43-.06c-.22,0-.28.14-.2.34a.39.39,0,0,0,.08.14c.07.08.13.22.25,0a.4.4,0,0,1,.44-.21c.32.11.62.27,1,.41m-4.36,3.24a2.41,2.41,0,0,1,.88.16,2.47,2.47,0,0,0,.47.11s.11,0,.17-.06l-.12-.08a4.73,4.73,0,0,0-1-.41.8.8,0,0,0-.46-.06,1.29,1.29,0,0,0-.37.24l.45.1M33.06,23.41a.22.22,0,0,0-.27-.09l-.48.2a1.94,1.94,0,0,1-.5.2,1.15,1.15,0,0,0-.43.15l-.07,0s0,0,.06,0h.21c.47-.11,1-.15,1.44-.27.26-.06.09-.13,0-.26m10-13.92a1.71,1.71,0,0,1-.27-.2c-.11-.11-.19,0-.21.06a.26.26,0,0,0,.08.31c.23.19.45.38.66.59s.19,0,.21-.05a.31.31,0,0,0,0-.25c-.13-.15-.28-.28-.45-.46m-29.42,7a.94.94,0,0,0-.66.33c-.13.14-.31.23-.44.37a1.09,1.09,0,0,0-.13.17,1.08,1.08,0,0,0,.19,0,2.52,2.52,0,0,0,.4-.21,3.34,3.34,0,0,1,.88-.5s.05-.05.07-.08,0-.05-.07-.05h-.24m21.76,2.84a6.42,6.42,0,0,0,1.22-.24l.17-.1-.17,0a.45.45,0,0,0-.2,0,4.38,4.38,0,0,1-1.64.27.32.32,0,0,0-.25.14s0,.08,0,.12.09,0,.12,0a2.41,2.41,0,0,1,.79-.16M49.58,14c.15-.15.31-.3.46-.47a.8.8,0,0,0,.1-.23.15.15,0,0,0-.06-.1s-.07,0-.08,0a2.25,2.25,0,0,1-.85.74.61.61,0,0,0-.17.15.38.38,0,0,0,0,.16c.07,0,.14.05.19,0a3.49,3.49,0,0,0,.45-.3M47.5,12.34a.65.65,0,0,1,.48.12c.08.06.17,0,.23-.06s0-.14-.06-.19-.17-.18-.32-.16-.15-.08-.23-.1-.18,0-.19,0a2.46,2.46,0,0,0-.15.53c0,.06.07.12.11.18a.9.9,0,0,1,0-.16.68.68,0,0,1,.1-.18M16.57,27.45h.14s0-.1-.05-.12l-.34-.2-.87-.59a.47.47,0,0,0-.17,0s0,.11.06.14l.76.69a.53.53,0,0,0,.47.12m4.85.28c.22.07.43.15.65.21,0,0,0,0,.07,0s0-.06,0-.07a.59.59,0,0,0-.2-.12,2.77,2.77,0,0,1-.93-.36,3.29,3.29,0,0,1-.68-.33s-.12,0-.18,0,.07.06.09.1.31.09.41.2a1.14,1.14,0,0,0,.44.22,1.42,1.42,0,0,0,.36.14M19,28H19l.17,0-.14,0-1-.22c-.13,0-.26-.09-.4-.13s-.05,0-.08,0,0,0,.05.05a1.44,1.44,0,0,0,.91.34c.12,0,.25,0,.41,0m-6.54-2-.56-.42s-.06,0-.09,0,0,0,0,0a1.86,1.86,0,0,0,1.07.78s.07,0,.08,0a.08.08,0,0,0,0-.09,2.89,2.89,0,0,0-.51-.29m-2.28-8.9.64-.31.06,0s0,0-.05,0a1.12,1.12,0,0,0-.6.07l-.56.41s0,.07-.05.11a.65.65,0,0,0,.14,0c.15,0,.21-.22.42-.21m4.67,10-.8-.42-.52-.27a.48.48,0,0,0-.17,0,.43.43,0,0,0,.09.13,5.94,5.94,0,0,0,1.13.56c.1,0,.19.14.27,0m29.88-6a1.59,1.59,0,0,0-.21.15s-.11.14-.1.16.13,0,.19-.05a.38.38,0,0,1,.15-.05,1.34,1.34,0,0,0,.69-.35.25.25,0,0,1,.09,0l-.09,0a1.13,1.13,0,0,0-.72.21M7.92,16.7c-.32,0-.45.27-.65.44,0,0,0,.07,0,.09s.07,0,.09,0l.84-.49,0-.05-.06,0H7.92m35.44-.64-.82-.46s-.08,0-.12,0,0,.09.06.11a4.18,4.18,0,0,0,.87.5c.09,0,.15.1.24,0l-.23-.19M11.72,21.34c-.09,0-.21-.09-.28-.06s0,.15,0,.23,0,.13,0,.2,0,.24,0,.25.05-.13.11-.18.16-.17.25-.25,0-.17-.16-.19m.07,2.74a1.92,1.92,0,0,0-.11-.31.36.36,0,0,0-.11-.1s-.09.08-.09.13a4.51,4.51,0,0,0,0,.52.25.25,0,0,0,0,.11.43.43,0,0,0,.09-.1l.18-.25m2.78,1.3.88.66s.06,0,.09,0a.56.56,0,0,0,0-.08l-1-.74s-.07,0-.11,0l.14.13m-1.69-2.46-.27.27-.07.09a.58.58,0,0,0,.14,0,1.18,1.18,0,0,0,.22-.14l.38-.37.33-.27s0-.08,0-.12l-.1,0-.67.53m-.53,2.56.15.07-.06-.12-.11-.09c-.2-.13-.2-.13-.07-.32,0,0,0-.1.05-.15l-.14.05-.22.14c-.08.07-.09.15,0,.21a1.64,1.64,0,0,0,.4.21m29-7.45.21-.07.31-.1s0-.05.07-.07a.18.18,0,0,0-.09,0L41,17.9S41,18,41,18,41,18,41,18h.28m-7.24,9.42h-.6s0,.05-.07.08,0,.05.07.05l.71,0a2.5,2.5,0,0,0,.26-.07l-.37,0M20.58,28h.31S21,28,21,28a.11.11,0,0,0,0-.09c-.2,0-.4-.17-.6,0a.27.27,0,0,0-.07.08s.07.05.11.05h.21m-7.81-6.33.08-.07.1-.1a.56.56,0,0,0-.12,0l-.18.05c-.24,0-.23.32-.4.43,0,0,0,0,0,.06a.2.2,0,0,0,.08,0,2.89,2.89,0,0,1,.43-.29m4.08,6.19a0,0,0,0,0,0,0v0c.21,0,.42-.05.62,0,0,0,.06,0,.07-.05a.1.1,0,0,0,0-.08c-.22-.16-.34-.16-.63.07m33.64-15.3a.83.83,0,0,0,.19-.27c0-.06,0-.15-.07-.23s-.11,0-.11,0a3.53,3.53,0,0,0-.15.46c0,.12,0,.15.14,0M29.72,27.24,29,27s-.07,0-.1,0,0,.08.06.09c.23.09.47.17.71.24a.08.08,0,0,0,.09-.07M46.06,14.83l-.4-.1a.18.18,0,0,0-.09,0l0,0c.17.07.35.15.53.21,0,0,.09-.07.13-.11a.53.53,0,0,1-.2-.06M33.16,27.66s-.07-.12-.11-.13a2.41,2.41,0,0,0-.38,0l-.09,0s0,.09.07.09a3.79,3.79,0,0,0,.51,0m9-18.59c-.15.11,0,.14,0,.19s.12.05.14,0,0-.11.08-.16a.72.72,0,0,0-.27-.06M6.38,16.49a2.64,2.64,0,0,0-.29.15s0,.06,0,.09h.07l.38-.17.08-.07H6.38M2.33,6V5.84s-.09,0-.11,0-.15.2-.23.3L2.33,6M14,24.92c.14-.17-.09-.12-.13-.18s-.11,0-.18,0a1.08,1.08,0,0,0,.11.18s.08,0,.2,0M40.89,9l-.3,0-.07,0a.09.09,0,0,0,0,.07.21.21,0,0,0,.38,0m-3,17.72,0,0v0l.16,0,.32-.05v-.06l-.35,0-.1,0M14.46,15.92l-.25.05s0,.06,0,.09c.14,0,.3.07.42-.07a.35.35,0,0,0-.14-.07m34.13-4-.19-.09c0,.06.05.13.08.19a.67.67,0,0,0,.15.14s.06,0,.09,0a.3.3,0,0,1,0-.08l-.09-.15m0-.74c.06-.09.06-.13-.07-.14s-.1.11-.11.19,0,.12.12.08,0-.06.06-.13m.42.64h-.1a.37.37,0,0,1-.14,0,.45.45,0,0,0,.06.14c.11.12.15,0,.18-.09m.56,1.47-.1.09s.08.06.1.05a.71.71,0,0,0,.15-.15s0,0,0-.06l-.13.07m-9,4.85,0,0v0l.19,0s0-.05.08-.07S40.73,18,40.7,18s-.08,0-.16.06m-3.09,8.72.18-.05s0-.08-.07-.09-.16,0-.11.14m7.31-2.88c-.16,0-.09.1-.1.18a.45.45,0,0,0,.12-.06.07.07,0,0,0,0-.12M20.61,28.4c0,.2.17.07.25.1l0,0-.06,0a.33.33,0,0,0-.21,0M43.46,16.59l.19,0a.1.1,0,0,0,0-.05c-.06,0-.13,0-.15,0M13.27,24.5c.13,0,.1-.07.1-.15s0,0,0-.05l-.12.1s0,0,0,.1m34.51-9v-.14h-.06a.11.11,0,0,0,.06.14m-7.17-.63.08.07v-.19a.19.19,0,0,0-.09.12m1.27-5.34,0-.14-.14,0,.17.11m2.57.38,0,0h0a1,1,0,0,0-.05-.16h0a.33.33,0,0,0,.06.15m2.17,3.31c0-.13-.07-.11-.14-.11l-.06,0,.15.09s0,0,0,0m-1.37-2.15-.09,0,.14.11s0,0,.06,0a1.08,1.08,0,0,1-.11-.11m3.48,8.76,0,0h0a.85.85,0,0,0-.06-.17h0a.34.34,0,0,0,0,.16m-2.7,1V21h.06a.11.11,0,0,0-.06-.14M20,28a.8.8,0,0,0-.15,0l0,0a.1.1,0,0,0,.07,0s.06,0,.13,0M41,3.69l.08,0-.1-.1a.14.14,0,0,0,0,.12m5.23,10-.11-.1,0,.06a.2.2,0,0,0,.14,0M4.69,7.21v.14s0-.1,0-.14m7.94,18.35.1-.12s-.05,0-.05,0a.14.14,0,0,0,0,.14M45.11,10.72l-.09,0,.06,0s.15.07,0-.07m-.31.11,0,.09.1-.11a.14.14,0,0,0-.12,0m.73,9,.11-.08,0-.05a.21.21,0,0,0-.08.13m-8.68,3,0-.09h0s0,.08.06.08m8.47-11.28,0-.07s0,0,0,.07m5,5,0-.09,0,0s0,.07.06.07M19.63,28l-.11,0,0,.05a.23.23,0,0,0,.13,0M43.71,13.32l0,.07s0,0,0-.07M3.53,4.57l.11,0v0a.2.2,0,0,0-.12,0M39.45,15.05l.12,0v0s-.06,0-.13,0M19.63,26.86l0-.09h0s0,.07.06.08m23.73-13.4-.09,0v0s.07,0,.08-.07m1.86,9.25,0,.09,0,0s0-.07-.06-.07M42,17.26l0,0s0,0,0,0m-5,5.66,0,0s0-.05,0,0M44,9.84l0,0s0,0,0,0M13.79,22.22l.05,0s0,0-.05,0m23.34,4.85,0,0s0,0,0,0m4.92-5.14.05,0s0,0-.05,0M6.55,10.83l0,0s0,0,0,0M49.4,18.45l0,0s0,0,0,0m0-5.72,0,0s0,0,0,0M17.27,28.3l0,0s0,0,0,0m30.2-12.69,0,0s0-.05,0,0M24,28.51l0,0s.05,0,0,0m-.84-12.16,0,0s0,0,0,0m23.3,0,.05,0S46.52,16.3,46.48,16.31ZM8.75,9.83a5.08,5.08,0,0,1,1.1-.72,1.34,1.34,0,0,1,.35,0c-.06.11-.09.26-.18.33-.43.36-.88.7-1.32,1-.11.08-.23.13-.34.2s0,.08,0,.12.09,0,.12,0l.41-.19,1.35-.65c.11,0,.23-.07.34-.12l.22-.15c.15-.11.3-.22.46-.32s.12,0,.12,0,0,.24-.09.35a6.75,6.75,0,0,1-1.14,1,.18.18,0,0,0-.07.08A1.15,1.15,0,0,0,10,11a.52.52,0,0,0,.13-.06,2.43,2.43,0,0,1,.88-.44A10.33,10.33,0,0,0,12,10l.59-.28s.1,0,.15,0l-.06.12c-.12.27-.38.38-.61.54a.54.54,0,0,0-.09.12.33.33,0,0,0,.17,0,1.07,1.07,0,0,0,.22-.15,2.56,2.56,0,0,1,.71-.33c.1,0,.2,0,.15.14s-.18.35-.27.52a.85.85,0,0,0-.06.17c.07,0,.15,0,.19,0a2.13,2.13,0,0,1,.9-.45c.15,0,.27-.15.41-.21a.39.39,0,0,1,.25-.06c.07,0,.16.06.1.2a1.18,1.18,0,0,1-.53.63.31.31,0,0,0-.07.09s.1.06.13.05l1.26-.44,1.22-.45c.15-.06.21,0,.29.11s0,.13,0,.2a1.38,1.38,0,0,1-.4.53,4.54,4.54,0,0,0-.42.56c-.06.08,0,.11.07.13a4.31,4.31,0,0,0,1.43-.16,4.22,4.22,0,0,1,1-.2.5.5,0,0,0,.28-.1.76.76,0,0,1,.55-.1s.06,0,.09.07a.33.33,0,0,1-.1.06L18,11.71c-.36.1-.7.25-1.06.33a4.24,4.24,0,0,1-.88.08.4.4,0,0,1-.31-.64,3.1,3.1,0,0,1,.64-.71.61.61,0,0,0,.07-.1.34.34,0,0,0-.13,0l-.69.31-.15,0-1.29.55c-.17.07-.35.12-.52.18s-.43-.11-.43-.27.1-.15.14-.22a.88.88,0,0,0,0-.15l-.15,0a4.48,4.48,0,0,1-.58.29,1.68,1.68,0,0,1-.5.07.24.24,0,0,1-.18-.36c0-.08.11-.15.15-.23s0-.11,0-.16,0,.09-.08.11c-.21.13-.43.25-.65.37s-.33.24-.55.2-.2,0-.23-.1,0-.15.07-.23a.61.61,0,0,1,0-.12.61.61,0,0,0-.13,0l-.72.39-.14.08a.46.46,0,0,1-.48-.07.58.58,0,0,1,.09-.53c.08-.09.17-.16.25-.25a1.77,1.77,0,0,0,.12-.17,1.8,1.8,0,0,0-.22.06c-.44.23-.88.48-1.33.7a.75.75,0,0,1-.42.06c-.07,0-.15-.14-.18-.23a.4.4,0,0,1,.17-.38Zm27.19,2.09a.64.64,0,0,1-.6.51,1.24,1.24,0,0,1-.74-.06c-.08,0-.19-.06-.13-.18a.19.19,0,0,1,.16-.06c.24.1.48,0,.72,0a.4.4,0,0,0,.21-.07c.18-.15.15-.16,0-.37s-.5-.39-.73-.61-.35-.33-.52-.51c0,0,0-.11,0-.11a.43.43,0,0,1,.23,0c.32.24.64.48,1,.74A.88.88,0,0,1,35.94,11.92Zm-5.7,7.87c-.24.09-.44.19-.66.27a.81.81,0,0,1-.27,0s0-.05,0-.08,0,0,0,0a4.17,4.17,0,0,0,1-.43c.21-.09.41-.19.61-.3a5.35,5.35,0,0,0,.64-.41c.2-.14.45-.24.45-.55a.14.14,0,0,1,.19-.14c.06,0,.15.13.14.18a.54.54,0,0,1-.15.35,3.14,3.14,0,0,1-.84.6,1.42,1.42,0,0,0-.43.24A2.68,2.68,0,0,1,30.24,19.79Zm5.28-9.63a1.22,1.22,0,0,1-.3-.13s0-.07,0-.11.08-.05.12,0a1.58,1.58,0,0,1,.49.17,1,1,0,0,0,.42.17,2.19,2.19,0,0,1,.72.39,1,1,0,0,1,.19.93c-.11.23-.17.51-.46.61a.38.38,0,0,1-.23,0,.19.19,0,0,1-.12-.13c0-.05.08-.14.12-.14.42,0,.39-.4.56-.62,0,0,0-.22-.1-.29a1.67,1.67,0,0,0-.74-.57C35.94,10.37,35.75,10.25,35.52,10.16Zm1.26.14-.37-.21a.58.58,0,0,1,0-.11s.07,0,.09,0a1.68,1.68,0,0,1,.32.09c.21.12.4.26.61.4a1.28,1.28,0,0,1,.38,1.8.7.7,0,0,1-.68.14.16.16,0,0,1-.08-.1s0-.07.08-.08a.59.59,0,0,1,.25-.07c.19,0,.25-.1.32-.21a1,1,0,0,0-.12-1.05A2.7,2.7,0,0,0,36.78,10.3ZM32.21,13a1.12,1.12,0,0,1-.3-.2s0-.12-.05-.19.14,0,.19,0,.3.18.46.24a.34.34,0,0,0,.47-.27c0-.34.06-.68.07-1a2.84,2.84,0,0,0-.06-.5A.32.32,0,0,1,33,11s.11,0,.12.06a1.31,1.31,0,0,1,.12.33,2.8,2.8,0,0,1-.07,1.38.66.66,0,0,1-.38.39A.6.6,0,0,1,32.21,13Zm6.87-2.23a1,1,0,0,1,.37.89,1.19,1.19,0,0,1-.42.74.3.3,0,0,1-.19,0c-.05,0-.09-.05-.14-.08s0-.1.09-.12a.72.72,0,0,0,.44-.61.77.77,0,0,0-.33-.73,3.9,3.9,0,0,0-1.11-.71l-.38-.17L37.35,10l.1,0a1.37,1.37,0,0,1,.29.07A3.4,3.4,0,0,1,39.08,10.81Zm-14.83-.49a.64.64,0,0,1,.06.11.6.6,0,0,1-.21.08,6.61,6.61,0,0,0-1.1.12c-.4.06-.78.17-1.18.24l-1.6.27c-.12,0-.24.15-.37,0l-.08-.07.09,0a12.4,12.4,0,0,0,1.81-.29c.28,0,.57-.15.86-.2A5.67,5.67,0,0,1,24,10.37C24,10.37,24.14,10.32,24.25,10.32Zm24.22-.71a1,1,0,0,1-.28.05s-.06,0-.09-.07l.06-.06a1,1,0,0,1,.29-.07C48.56,9.46,48.54,9.53,48.47,9.61ZM3.44,9a.22.22,0,0,1-.09.07l0,0ZM3.51,9s0,0,0,.07S3.48,9,3.51,9Zm0,0s0,0,0-.06A.07.07,0,0,1,3.55,9Zm-.88-.51a.13.13,0,0,1,0-.09h0A.33.33,0,0,1,2.67,8.45ZM3,8.28s0,0,0,0S3,8.31,3,8.28ZM6.82,9.86a.09.09,0,0,1,.08.05H6.77s0,0,0,0ZM7,8.67a.15.15,0,0,1,.09,0l-.18,0s0-.05,0-.06S6.92,8.68,7,8.67Zm4.81,8.19a.14.14,0,0,1,.11,0v0A.23.23,0,0,1,11.77,16.86Zm-.31.24s0,0,0,0S11.46,17.07,11.46,17.1Zm2,8.6s0,0,0,.07S13.42,25.72,13.44,25.7Zm-1.81-4.2a.14.14,0,0,1,.11,0l-.11.1A.33.33,0,0,1,11.63,21.5Z"/></g></g></svg>