<svg xmlns="http://www.w3.org/2000/svg" viewBox="0 0 145.32 62.82"><defs><style>.cls-1{fill:#fff;}.cls-2{fill:#e6e6e6;}</style></defs><title>mountain-1</title><g id="Layer_2" data-name="Layer 2"><g id="mountain-1"><path id="void" class="cls-1" d="M145.16,55.41a11.71,11.71,0,0,0-1.5-1.15c-.61-.54-1.26-1-1.82-1.62a1.53,1.53,0,0,1-.31-.37c-.32-.72-1.11-1.14-1.34-2a5.25,5.25,0,0,0-.9-1.3c-.4-.59-.78-1.2-1.2-1.78a11.84,11.84,0,0,1-.88-1A3,3,0,0,0,135.73,45a26,26,0,0,1-3.48-2.08,12.28,12.28,0,0,1-1.66-1.38c-.65-.64-1.24-1.32-1.87-2a29.77,29.77,0,0,1-2-2.17c-.58-.76-1.18-1.51-1.84-2.22a7.24,7.24,0,0,1-1-1,5.66,5.66,0,0,0-2-1.61,6.67,6.67,0,0,0-1.54-.61,38.37,38.37,0,0,1-3.61-1.54l-1.25-.56-.87-.44c-.12-.07-.25-.13-.36-.21a18.06,18.06,0,0,1-1.74-1.4,24.38,24.38,0,0,1-2.61-3.12,11.79,11.79,0,0,1-.89-2.71,2.86,2.86,0,0,0-.36-1.1,19,19,0,0,1-1.28-1.93,26.16,26.16,0,0,0-1.43-2.22,4.28,4.28,0,0,0-.63-.72,4.46,4.46,0,0,0-.5-.35,21.86,21.86,0,0,0-1.8-1.41,4.34,4.34,0,0,0-1.54-.65c-1.09-.2-2.15-.53-3.22-.82a7.88,7.88,0,0,1-1.47-.47,20.86,20.86,0,0,1-2.17-1.22c-1.07-.7-2.12-1.43-3.15-2.16C90.67,8.35,90,7.73,89.2,7.24a2.37,2.37,0,0,1-.67-.71c-.09-.12-.11-.28-.19-.41A.88.88,0,0,0,87.56,6s0,.08,0,.08c.61.15.47.74.71,1.11a1,1,0,0,1,.08.15c-.07,0-.15,0-.2,0-.46-.28-.92-.58-1.36-.88-.23-.15-.45-.32-.67-.49-.46-.37-1.12-.54-1.28-1.21a.81.81,0,0,0-.26-.38c-.2-.18-.35-.55-.75-.26,0,0-.14-.07-.2-.1s.07-.11.12-.12.35-.1.52-.15.45-.33.29-.5c-.35-.35-.66-.79-1.27-.75a1.87,1.87,0,0,1-1.13-.27,1,1,0,0,0-.45-.14,2,2,0,0,1-1.65-1,5,5,0,0,0-.47-.72A.94.94,0,0,0,78.74,0c-.43.31-.87.61-1.27.94a.65.65,0,0,1-.82.16,1,1,0,0,0-.8,0,9.37,9.37,0,0,0-1.1,1c-.2.2-.38.48-.62.56s-.46-.14-.69-.22a1,1,0,0,0-.9.24c-.55.4-1,.89-1.62,1.27a2.88,2.88,0,0,1-2,.69,8.38,8.38,0,0,0-3.33.57,2,2,0,0,0-1.1.62,4.87,4.87,0,0,1-2.23,1.58,2.35,2.35,0,0,0-.42.21A25.16,25.16,0,0,1,59,9.24a1.13,1.13,0,0,1-.51.16,4.84,4.84,0,0,0-2.26.83c-.56.33-1,.81-1.57,1.11C53.37,12,52.19,12.8,51,13.58a2.23,2.23,0,0,0-.48.38c-.28.31-.51.66-1,.69A.82.82,0,0,0,49,15a10.44,10.44,0,0,0-1.39,2,6,6,0,0,1-.73,1.37,9.41,9.41,0,0,1-1.83,2,8.84,8.84,0,0,0-2.4,2.52,12.19,12.19,0,0,1-1.34,1.76,6.52,6.52,0,0,1-1.82,1.17c-.83.39-1.68.74-2.51,1.12s-1.49.72-2.24,1.06c-.59.27-1.22.45-1.79.75a9.51,9.51,0,0,1-2.13.83c-.61.16-1.22.32-1.84.46A13.44,13.44,0,0,0,26,31.15a4.93,4.93,0,0,0-1.92,1.48,10.49,10.49,0,0,1-1.35,1.2,12.6,12.6,0,0,1-1.69,1.32,17.72,17.72,0,0,1-3.41,1.75,6.53,6.53,0,0,0-3.2,2.39A2.6,2.6,0,0,0,14,40a5.39,5.39,0,0,1-1.61,2.49A15.72,15.72,0,0,1,8.5,44.7c-.48.23-1,.36-1.48.63-1.47.88-2.91,1.8-4.37,2.71A6.2,6.2,0,0,0,.13,50.33a.17.17,0,0,0,0,.34c.65,0,1.27-.19,1.92-.19.22,0,.43,0,.65,0a3.8,3.8,0,0,1,.51-.13c.32.08.25.28.33.47.34.76.75.61,1.49.78.49.11.54.44.73.86.06.12.09.23.16.35s.16.11.21.19c.37.59.06.5,0,.94s.21.76.21,1.18-.22.79-.13,1.18c.19.78,1.31.59,1.87.55s.89,0,1.33-.11a2.78,2.78,0,0,1,1.31-.06c.3.08.57.23.85.33a4.1,4.1,0,0,0,1.39.19A19.51,19.51,0,0,1,15,57a28.38,28.38,0,0,0,3.68.54,8.25,8.25,0,0,0,1.64-.19c.64-.13,1.3-.1,1.93-.25a6.47,6.47,0,0,1,1.13-.29c.27,0,.55,0,.82,0A3.3,3.3,0,0,1,25,56.7a2,2,0,0,1,1,.48,5.28,5.28,0,0,0,2.81,1A8.21,8.21,0,0,0,30.28,58c.64-.11,1.28-.09,1.92-.21,1.12-.21,1.48.25,2.37.72a3.25,3.25,0,0,0,1.47.32c1.5,0,3,0,4.52,0,1.33,0,2.62.14,3.94.17.74,0,1.08.52,1.65.9a4.53,4.53,0,0,0,1.72.49c1.11.25,1.89.86,3.09.62.63-.13,1.22-.34,1.85-.43a18,18,0,0,1,2.32-.07c1.35,0,2.66.22,4,.19.69,0,1.4,0,2.09,0a19.79,19.79,0,0,1,2.28.52,10.72,10.72,0,0,0,3.66-.08,5.88,5.88,0,0,1,2.5-.21,12.46,12.46,0,0,1,1.69.81,20.2,20.2,0,0,0,4,.75,5.67,5.67,0,0,0,3.16.11A22.43,22.43,0,0,1,83,61.54a16.66,16.66,0,0,1,4.78-.21c1.16.14,2-.5,3-.93A14.62,14.62,0,0,1,95,59.58c1.24-.11,2.49-.31,3.72-.51a37.22,37.22,0,0,1,4-.94c1.29-.06,2.58.16,3.87,0a9.7,9.7,0,0,0,1.51-.34,16.17,16.17,0,0,1,2.2-.17c1.36-.15,2.74-.17,4.08-.39.73-.11,1.45-.31,2.17-.44a6.29,6.29,0,0,1,2.42-.27c.56.14,1,.53,1.6.71a10.61,10.61,0,0,0,2,.39,25,25,0,0,0,4.33-.07,29.69,29.69,0,0,0,3.76-.35,11,11,0,0,1,2.14-.27,8.33,8.33,0,0,0,1.92-.18c.64-.14,1.27-.12,1.92-.21a10.58,10.58,0,0,0,1.82-.47,4.81,4.81,0,0,1,2.08-.39c.58.07,1.11.16,1.7.18a3.9,3.9,0,0,0,2.56-.41s0,0,0,0l.16.11a1.18,1.18,0,0,0,.27.06Zm-4.58-3.69c.08.1.14.21.21.31l-.2,0-.14-.27C140.5,51.73,140.57,51.71,140.58,51.72Zm-2.24-3.25-.06-.09C138.36,48.38,138.35,48.43,138.34,48.47Zm-1.32-2-.08.06C136.93,46.47,137,46.48,137,46.49Zm-.4-.36-.07-.08C136.64,46.05,136.63,46.09,136.62,46.13Zm-27.8-23.38s-.06.08-.09.11,0-.12,0-.18C109,22.45,108.77,22.69,108.82,22.75ZM108.39,21c-.08,0-.08,0-.09-.05Zm-1.62-2.29a1.66,1.66,0,0,1,.16.21.26.26,0,0,0,.14.14h-.14c0-.08-.09-.08-.11-.11s-.11-.12-.17-.18S106.76,18.71,106.77,18.72Zm-.68-1.08.24.3a1.21,1.21,0,0,0-.2.09A.81.81,0,0,1,106.09,17.64Zm-.84-1.14a.27.27,0,0,1-.15-.28Zm-.82-.62-.09,0,0-.18C104.39,15.74,104.42,15.81,104.43,15.88Zm-.48-.23-.09-.06C103.94,15.57,104,15.61,104,15.65ZM79.1.66a.33.33,0,0,1,0,.24L78.92.69ZM39.3,26.43c-.08,0-.09,0-.09-.05Z"/><path id="fill2" class="cls-2" d="M145.16,55.41a11.71,11.71,0,0,0-1.5-1.15c-.61-.54-1.26-1-1.82-1.62a1.53,1.53,0,0,1-.31-.37c-.32-.72-1.11-1.14-1.34-2a5.25,5.25,0,0,0-.9-1.3c-.4-.59-.78-1.2-1.2-1.78a11.84,11.84,0,0,1-.88-1A3,3,0,0,0,135.73,45a26,26,0,0,1-3.48-2.08,12.28,12.28,0,0,1-1.66-1.38c-.65-.64-1.24-1.32-1.87-2a29.77,29.77,0,0,1-2-2.17c-.58-.76-1.18-1.51-1.84-2.22a7.24,7.24,0,0,1-1-1,5.66,5.66,0,0,0-2-1.61,6.67,6.67,0,0,0-1.54-.61,38.37,38.37,0,0,1-3.61-1.54l-1.25-.56-.87-.44c-.12-.07-.25-.13-.36-.21a18.06,18.06,0,0,1-1.74-1.4,24.38,24.38,0,0,1-2.61-3.12,11.79,11.79,0,0,1-.89-2.71,2.86,2.86,0,0,0-.36-1.1,19,19,0,0,1-1.28-1.93,26.16,26.16,0,0,0-1.43-2.22,4.28,4.28,0,0,0-.63-.72,4.46,4.46,0,0,0-.5-.35,21.86,21.86,0,0,0-1.8-1.41,4.34,4.34,0,0,0-1.54-.65c-1.09-.2-2.15-.53-3.22-.82a7.88,7.88,0,0,1-1.47-.47,20.86,20.86,0,0,1-2.17-1.22c-1.07-.7-2.12-1.43-3.15-2.16C90.67,8.35,90,7.73,89.2,7.24a2.37,2.37,0,0,1-.67-.71c-.09-.12-.11-.28-.19-.41A.88.88,0,0,0,87.56,6s0,.08,0,.08c.61.15.47.74.71,1.11a1,1,0,0,1,.08.15c-.07,0-.15,0-.2,0-.46-.28-.92-.58-1.36-.88-.23-.15-.45-.32-.67-.49-.46-.37-1.12-.54-1.28-1.21a.81.81,0,0,0-.26-.38c-.2-.18-.35-.55-.75-.26,0,0-.14-.07-.2-.1s.07-.11.12-.12.35-.1.52-.15.45-.33.29-.5c-.35-.35-.66-.79-1.27-.75a1.87,1.87,0,0,1-1.13-.27,1,1,0,0,0-.45-.14,2,2,0,0,1-1.65-1,5,5,0,0,0-.47-.72A.94.94,0,0,0,78.74,0c-.43.31-.87.61-1.27.94a.65.65,0,0,1-.82.16,1,1,0,0,0-.8,0,9.37,9.37,0,0,0-1.1,1c-.2.2-.38.48-.62.56s-.46-.14-.69-.22a1,1,0,0,0-.9.24c-.55.4-1,.89-1.62,1.27a2.88,2.88,0,0,1-2,.69,8.38,8.38,0,0,0-3.33.57,2,2,0,0,0-1.1.62,4.87,4.87,0,0,1-2.23,1.58,2.35,2.35,0,0,0-.42.21A25.16,25.16,0,0,1,59,9.24a1.13,1.13,0,0,1-.51.16,4.84,4.84,0,0,0-2.26.83c-.56.33-1,.81-1.57,1.11C53.37,12,52.19,12.8,51,13.58a2.23,2.23,0,0,0-.48.38c-.28.31-.51.66-1,.69A.82.82,0,0,0,49,15a10.44,10.44,0,0,0-1.39,2,6,6,0,0,1-.73,1.37,9.41,9.41,0,0,1-1.83,2,8.84,8.84,0,0,0-2.4,2.52,12.19,12.19,0,0,1-1.34,1.76,6.52,6.52,0,0,1-1.82,1.17c-.83.39-1.68.74-2.51,1.12s-1.49.72-2.24,1.06c-.59.27-1.22.45-1.79.75a9.51,9.51,0,0,1-2.13.83c-.61.16-1.22.32-1.84.46A13.44,13.44,0,0,0,26,31.15a4.93,4.93,0,0,0-1.92,1.48,10.49,10.49,0,0,1-1.35,1.2,12.6,12.6,0,0,1-1.69,1.32,17.72,17.72,0,0,1-3.41,1.75,6.53,6.53,0,0,0-3.2,2.39A2.6,2.6,0,0,0,14,40a5.39,5.39,0,0,1-1.61,2.49A15.72,15.72,0,0,1,8.5,44.7c-.48.23-1,.36-1.48.63-1.47.88-2.91,1.8-4.37,2.71A6.2,6.2,0,0,0,.13,50.33a.17.17,0,0,0,0,.34c.65,0,1.27-.19,1.92-.19.22,0,.43,0,.65,0a3.8,3.8,0,0,1,.51-.13c.32.08.25.28.33.47.34.76.75.61,1.49.78.49.11.54.44.73.86.06.12.09.23.16.35s.16.11.21.19c.37.59.06.5,0,.94s.21.76.21,1.18-.22.79-.13,1.18c.19.78,1.31.59,1.87.55s.89,0,1.33-.11a2.78,2.78,0,0,1,1.31-.06c.3.08.57.23.85.33a4.1,4.1,0,0,0,1.39.19A19.51,19.51,0,0,1,15,57a28.38,28.38,0,0,0,3.68.54,8.25,8.25,0,0,0,1.64-.19c.64-.13,1.3-.1,1.93-.25a6.47,6.47,0,0,1,1.13-.29c.27,0,.55,0,.82,0A3.3,3.3,0,0,1,25,56.7a2,2,0,0,1,1,.48,5.28,5.28,0,0,0,2.81,1A8.21,8.21,0,0,0,30.28,58c.64-.11,1.28-.09,1.92-.21,1.12-.21,1.48.25,2.37.72a3.25,3.25,0,0,0,1.47.32c1.5,0,3,0,4.52,0,1.33,0,2.62.14,3.94.17.74,0,1.08.52,1.65.9a4.53,4.53,0,0,0,1.72.49c1.11.25,1.89.86,3.09.62.63-.13,1.22-.34,1.85-.43a18,18,0,0,1,2.32-.07c1.35,0,2.66.22,4,.19.69,0,1.4,0,2.09,0a19.79,19.79,0,0,1,2.28.52,10.72,10.72,0,0,0,3.66-.08,5.88,5.88,0,0,1,2.5-.21,12.46,12.46,0,0,1,1.69.81,20.2,20.2,0,0,0,4,.75,5.67,5.67,0,0,0,3.16.11A22.43,22.43,0,0,1,83,61.54a16.66,16.66,0,0,1,4.78-.21c1.16.14,2-.5,3-.93A14.62,14.62,0,0,1,95,59.58c1.24-.11,2.49-.31,3.72-.51a37.22,37.22,0,0,1,4-.94c1.29-.06,2.58.16,3.87,0a9.7,9.7,0,0,0,1.51-.34,16.17,16.17,0,0,1,2.2-.17c1.36-.15,2.74-.17,4.08-.39.73-.11,1.45-.31,2.17-.44a6.29,6.29,0,0,1,2.42-.27c.56.14,1,.53,1.6.71a10.61,10.61,0,0,0,2,.39,25,25,0,0,0,4.33-.07,29.69,29.69,0,0,0,3.76-.35,11,11,0,0,1,2.14-.27,8.33,8.33,0,0,0,1.92-.18c.64-.14,1.27-.12,1.92-.21a10.58,10.58,0,0,0,1.82-.47,4.81,4.81,0,0,1,2.08-.39c.58.07,1.11.16,1.7.18a3.9,3.9,0,0,0,2.56-.41s0,0,0,0l.16.11a1.18,1.18,0,0,0,.27.06Zm-4.58-3.69c.08.1.14.21.21.31l-.2,0-.14-.27C140.5,51.73,140.57,51.71,140.58,51.72Zm-2.24-3.25-.06-.09C138.36,48.38,138.35,48.43,138.34,48.47Zm-1.32-2-.08.06C136.93,46.47,137,46.48,137,46.49Zm-.4-.36-.07-.08C136.64,46.05,136.63,46.09,136.62,46.13Zm-27.8-23.38s-.06.08-.09.11,0-.12,0-.18C109,22.45,108.77,22.69,108.82,22.75ZM108.39,21c-.08,0-.08,0-.09-.05Zm-1.62-2.29a1.66,1.66,0,0,1,.16.21.26.26,0,0,0,.14.14h-.14c0-.08-.09-.08-.11-.11s-.11-.12-.17-.18S106.76,18.71,106.77,18.72Zm-.68-1.08.24.3a1.21,1.21,0,0,0-.2.09A.81.81,0,0,1,106.09,17.64Zm-.84-1.14a.27.27,0,0,1-.15-.28Zm-.82-.62-.09,0,0-.18C104.39,15.74,104.42,15.81,104.43,15.88Zm-.48-.23-.09-.06C103.94,15.57,104,15.61,104,15.65ZM79.1.66a.33.33,0,0,1,0,.24L78.92.69ZM39.3,26.43c-.08,0-.09,0-.09-.05Z"/><path id="fill1" d="M57.88,20.8a.17.17,0,0,0,0-.13A.27.27,0,0,0,57.88,20.8ZM67,31.5l.06-.08C67,31.42,67,31.43,67,31.5ZM69.89,20s0,.09.08.06Zm-30.68,6.4s0,.08.09.05Zm6.44,1.79-.06.08S45.68,28.24,45.65,28.17ZM68.07,17.81a.47.47,0,0,0,.09.06S68.15,17.79,68.07,17.81ZM108.3,21s0,.08.09.05Zm-4.44-5.37.09.06S103.94,15.57,103.86,15.59Zm32.69,30.46.07.08S136.64,46.05,136.55,46.05Zm.39.5.08-.06C137,46.48,136.93,46.47,136.94,46.55ZM90,21.15l.08.06C90.07,21.16,90.06,21.12,90,21.15Zm48.29,27.23.06.09S138.36,48.38,138.28,48.38ZM44,38l.09.06S44.05,37.93,44,38ZM57.05,14.27a.35.35,0,0,0,.05-.08S57,14.2,57.05,14.27ZM73,14l.06-.08S72.94,13.92,73,14ZM59.81,12.06s0,.09.08.06Zm75.92,40.51c0-.41,0-.76,0-1.11a8.54,8.54,0,0,0-.14-1.94,2.32,2.32,0,0,0-1.27-1.62.91.91,0,0,1-.61-.74c-.16-.73-.36-.87-1.12-.95a7,7,0,0,1-1.43-.29,8.18,8.18,0,0,1-1.09-.5c-.33-.16-.39-.36-.16-.63a1.58,1.58,0,0,1,.23-.22c.2-.14.19-.23-.06-.32a5,5,0,0,0-2-.18c-.75,0-1.51.09-2.26.17-.25,0-.5-.23-.74,0a.28.28,0,0,1-.18-.08c-.16-.15,0-.19.11-.21.49-.13,1-.27,1.5-.37a15.71,15.71,0,0,0,2.2-.72c.09,0,.15-.14.23-.21-.09-.06-.19-.17-.29-.17a12.13,12.13,0,0,0-2.48-.11h-.2a.53.53,0,0,0,.14.12,1.68,1.68,0,0,0,1.16.17c.06,0,.16,0,.24.05a.76.76,0,0,1-.18.24c-.09,0-.22,0-.33,0l-2.14.67a.48.48,0,0,0-.37.57c0,.29.34.3.56.37s.18,0,.26,0a23.5,23.5,0,0,0,3.14-.14c.61,0,.65,0,.76.57a1.17,1.17,0,0,0,.49.76,6.59,6.59,0,0,0,1.17.51,1.93,1.93,0,0,0,1.29.34,2.4,2.4,0,0,1,.6,0c.27.07.52.08.5.55,0,1,.16,1,.91,1.23a1.16,1.16,0,0,1,.8.72,3.94,3.94,0,0,1,.36,1.54c0,.76,0,1.52,0,2.27,0,.24-.22.47,0,.69.09-.25.18-.49.25-.75C135.75,52.82,135.72,52.72,135.73,52.57ZM99.48,33.94a1.44,1.44,0,0,0-.15-.36,3.33,3.33,0,0,1-.44-1.77c0-.46,0-.93,0-1.39s-.33-.83-.92-.86a2.62,2.62,0,0,1-.28,0c-.14,0-.27-.3-.38,0,0,.1.08.27.15.41s.37.19.58.18.43.14.42.42,0,.51,0,.83,0,.58,0,.83a3,3,0,0,0,.59,1.65.92.92,0,0,0,.22.17l.16.11C99.44,34.06,99.49,34,99.48,33.94Zm-3.07-5.77c-.59.17-.69-.27-.87-.62a.75.75,0,0,0-.15-.28,1.57,1.57,0,0,1-.59-1.09c0-.34-.25-.48-.62-.53a1.74,1.74,0,0,0-1.26.48.28.28,0,0,1-.44-.25c.15-.59.33-1.16.54-1.78a1.91,1.91,0,0,0-.31-.38,1.93,1.93,0,0,0-.23.38c-.1.29-.13.6-.25.88a2.48,2.48,0,0,0-.2,1.17c0,.35.2.47.56.49a2.08,2.08,0,0,0,1.13-.42c.39-.2.58-.09.65.35a2.62,2.62,0,0,0,0,.28.66.66,0,0,0,.34.5,1.2,1.2,0,0,1,.38.45c.12.18.19.39.3.57a.8.8,0,0,0,1,.31.54.54,0,0,0,.18-.34S96.44,28.17,96.41,28.17Zm-9.4-4a7.84,7.84,0,0,0,1.86-2.32c.11-.2.11-.31-.06-.38a.53.53,0,0,0-.43,0c-.63.52-1.24,1.06-1.84,1.6-.07.07,0,.21-.06.32a.76.76,0,0,0,.26-.11c.28-.25.54-.51.82-.77.12-.12.23-.23.36-.34s.1,0,.15,0a.29.29,0,0,1,0,.13.62.62,0,0,1-.08.24c-.55.62-1.09,1.25-1.66,1.85a2.23,2.23,0,0,0-.58,1,.36.36,0,0,0,.14.3c.1.07.22.18.39,0,.38-.34.84-.62,1.19-1,.1-.1.51-.24.23-.52a3.54,3.54,0,0,0-.49.31c-.3.2-.43.62-.88.64a2.61,2.61,0,0,0-.17.28L86,25.27l.26-.2A6,6,0,0,1,87,24.14ZM56.2,22.44c.55-.54,1.1-1.09,1.61-1.64-.51.36-1,.72-1.46,1.09a2.85,2.85,0,0,0-.61.59c-.13.18-.39.44-.17.63s.47-.05.71-.08c0,0,.06,0,.06,0a1.29,1.29,0,0,0,0-.19l-.15,0-.25.1-.16,0c0-.06,0-.14,0-.18S56.08,22.56,56.2,22.44Zm19.07,28.2a2.06,2.06,0,0,0-.25-.22,1.64,1.64,0,0,0-.29-.16.78.78,0,0,0,.07.31c.37.48.76.94,1.14,1.41l.11.08c0-.07.07-.14,0-.19A2.81,2.81,0,0,0,75.27,50.64Zm63-2.26.06.09S138.36,48.38,138.28,48.38Zm-1.34-1.83.08-.06C137,46.48,136.93,46.47,136.94,46.55Zm-.39-.5.07.08S136.64,46.05,136.55,46.05Zm-.82,6.52c0-.41,0-.76,0-1.11a8.54,8.54,0,0,0-.14-1.94,2.32,2.32,0,0,0-1.27-1.62.91.91,0,0,1-.61-.74c-.16-.73-.36-.87-1.12-.95a7,7,0,0,1-1.43-.29,8.18,8.18,0,0,1-1.09-.5c-.33-.16-.39-.36-.16-.63a1.58,1.58,0,0,1,.23-.22c.2-.14.19-.23-.06-.32a5,5,0,0,0-2-.18c-.75,0-1.51.09-2.26.17-.25,0-.5-.23-.74,0a.28.28,0,0,1-.18-.08c-.16-.15,0-.19.11-.21.49-.13,1-.27,1.5-.37a15.71,15.71,0,0,0,2.2-.72c.09,0,.15-.14.23-.21-.09-.06-.19-.17-.29-.17a12.13,12.13,0,0,0-2.48-.11h-.2a.53.53,0,0,0,.14.12,1.68,1.68,0,0,0,1.16.17c.06,0,.16,0,.24.05a.76.76,0,0,1-.18.24c-.09,0-.22,0-.33,0l-2.14.67a.48.48,0,0,0-.37.57c0,.29.34.3.56.37s.18,0,.26,0a23.5,23.5,0,0,0,3.14-.14c.61,0,.65,0,.76.57a1.17,1.17,0,0,0,.49.76,6.59,6.59,0,0,0,1.17.51,1.93,1.93,0,0,0,1.29.34,2.4,2.4,0,0,1,.6,0c.27.07.52.08.5.55,0,1,.16,1,.91,1.23a1.16,1.16,0,0,1,.8.72,3.94,3.94,0,0,1,.36,1.54c0,.76,0,1.52,0,2.27,0,.24-.22.47,0,.69.09-.25.18-.49.25-.75C135.75,52.82,135.72,52.72,135.73,52.57ZM108.3,21s0,.08.09.05Zm-4.44-5.37.09.06S103.94,15.57,103.86,15.59ZM99.48,33.94a1.44,1.44,0,0,0-.15-.36,3.33,3.33,0,0,1-.44-1.77c0-.46,0-.93,0-1.39s-.33-.83-.92-.86a2.62,2.62,0,0,1-.28,0c-.14,0-.27-.3-.38,0,0,.1.08.27.15.41s.37.19.58.18.43.14.42.42,0,.51,0,.83,0,.58,0,.83a3,3,0,0,0,.59,1.65.92.92,0,0,0,.22.17l.16.11C99.44,34.06,99.49,34,99.48,33.94Zm-3.07-5.77c-.59.17-.69-.27-.87-.62a.75.75,0,0,0-.15-.28,1.57,1.57,0,0,1-.59-1.09c0-.34-.25-.48-.62-.53a1.74,1.74,0,0,0-1.26.48.28.28,0,0,1-.44-.25c.15-.59.33-1.16.54-1.78a1.91,1.91,0,0,0-.31-.38,1.93,1.93,0,0,0-.23.38c-.1.29-.13.6-.25.88a2.48,2.48,0,0,0-.2,1.17c0,.35.2.47.56.49a2.08,2.08,0,0,0,1.13-.42c.39-.2.58-.09.65.35a2.62,2.62,0,0,0,0,.28.66.66,0,0,0,.34.5,1.2,1.2,0,0,1,.38.45c.12.18.19.39.3.57a.8.8,0,0,0,1,.31.54.54,0,0,0,.18-.34S96.44,28.17,96.41,28.17Zm-6.42-7,.08.06C90.07,21.16,90.06,21.12,90,21.15Zm-3,3a7.84,7.84,0,0,0,1.86-2.32c.11-.2.11-.31-.06-.38a.53.53,0,0,0-.43,0c-.63.52-1.24,1.06-1.84,1.6-.07.07,0,.21-.06.32a.76.76,0,0,0,.26-.11c.28-.25.54-.51.82-.77.12-.12.23-.23.36-.34s.1,0,.15,0a.29.29,0,0,1,0,.13.62.62,0,0,1-.08.24c-.55.62-1.09,1.25-1.66,1.85a2.23,2.23,0,0,0-.58,1,.36.36,0,0,0,.14.3c.1.07.22.18.39,0,.38-.34.84-.62,1.19-1,.1-.1.51-.24.23-.52a3.54,3.54,0,0,0-.49.31c-.3.2-.43.62-.88.64a2.61,2.61,0,0,0-.17.28L86,25.27l.26-.2A6,6,0,0,1,87,24.14ZM75.27,50.64a2.06,2.06,0,0,0-.25-.22,1.64,1.64,0,0,0-.29-.16.78.78,0,0,0,.07.31c.37.48.76.94,1.14,1.41l.11.08c0-.07.07-.14,0-.19A2.81,2.81,0,0,0,75.27,50.64ZM73,14l.06-.08S72.94,13.92,73,14Zm-3.08,6s0,.09.08.06Zm-1.82-2.17a.47.47,0,0,0,.09.06S68.15,17.79,68.07,17.81ZM67,31.5l.06-.08C67,31.42,67,31.43,67,31.5ZM59.81,12.06s0,.09.08.06ZM57.88,20.8a.17.17,0,0,0,0-.13A.27.27,0,0,0,57.88,20.8Zm-.83-6.53a.35.35,0,0,0,.05-.08S57,14.2,57.05,14.27Zm-.85,8.17c.55-.54,1.1-1.09,1.61-1.64-.51.36-1,.72-1.46,1.09a2.85,2.85,0,0,0-.61.59c-.13.18-.39.44-.17.63s.47-.05.71-.08c0,0,.06,0,.06,0a1.29,1.29,0,0,0,0-.19l-.15,0-.25.1-.16,0c0-.06,0-.14,0-.18S56.08,22.56,56.2,22.44ZM45.65,28.17l-.06.08S45.68,28.24,45.65,28.17ZM44,38l.09.06S44.05,37.93,44,38ZM39.21,26.38s0,.08.09.05Zm106,29a11.71,11.71,0,0,0-1.5-1.15c-.61-.54-1.26-1-1.82-1.62a1.53,1.53,0,0,1-.31-.37c-.32-.72-1.11-1.14-1.34-2a5.25,5.25,0,0,0-.9-1.3c-.4-.59-.78-1.2-1.2-1.78a11.84,11.84,0,0,1-.88-1A3,3,0,0,0,135.73,45a26,26,0,0,1-3.48-2.08,12.28,12.28,0,0,1-1.66-1.38c-.65-.64-1.24-1.32-1.87-2a29.77,29.77,0,0,1-2-2.17c-.58-.76-1.18-1.51-1.84-2.22a7.24,7.24,0,0,1-1-1,5.66,5.66,0,0,0-2-1.61,6.67,6.67,0,0,0-1.54-.61,38.37,38.37,0,0,1-3.61-1.54l-1.25-.56-.87-.44c-.12-.07-.25-.13-.36-.21a18.06,18.06,0,0,1-1.74-1.4,24.38,24.38,0,0,1-2.61-3.12,11.79,11.79,0,0,1-.89-2.71,2.86,2.86,0,0,0-.36-1.1,19,19,0,0,1-1.28-1.93,26.16,26.16,0,0,0-1.43-2.22,4.28,4.28,0,0,0-.63-.72,4.46,4.46,0,0,0-.5-.35,21.86,21.86,0,0,0-1.8-1.41,4.34,4.34,0,0,0-1.54-.65c-1.09-.2-2.15-.53-3.22-.82a7.88,7.88,0,0,1-1.47-.47,20.86,20.86,0,0,1-2.17-1.22c-1.07-.7-2.12-1.43-3.15-2.16C90.67,8.35,90,7.73,89.2,7.24a2.37,2.37,0,0,1-.67-.71c-.09-.12-.11-.28-.19-.41A.88.88,0,0,0,87.56,6s0,.08,0,.08c.61.15.47.74.71,1.11a1,1,0,0,1,.08.15c-.07,0-.15,0-.2,0-.46-.28-.92-.58-1.36-.88-.23-.15-.45-.32-.67-.49-.46-.37-1.12-.54-1.28-1.21a.81.81,0,0,0-.26-.38c-.2-.18-.35-.55-.75-.26,0,0-.14-.07-.2-.1s.07-.11.12-.12.35-.1.52-.15.45-.33.29-.5c-.35-.35-.66-.79-1.27-.75a1.87,1.87,0,0,1-1.13-.27,1,1,0,0,0-.45-.14,2,2,0,0,1-1.65-1,5,5,0,0,0-.47-.72A.94.94,0,0,0,78.74,0c-.43.31-.87.61-1.27.94a.65.65,0,0,1-.82.16,1,1,0,0,0-.8,0,9.37,9.37,0,0,0-1.1,1c-.2.2-.38.48-.62.56s-.46-.14-.69-.22a1,1,0,0,0-.9.24c-.55.4-1,.89-1.62,1.27a2.88,2.88,0,0,1-2,.69,8.38,8.38,0,0,0-3.33.57,2,2,0,0,0-1.1.62,4.87,4.87,0,0,1-2.23,1.58,2.35,2.35,0,0,0-.42.21A25.16,25.16,0,0,1,59,9.24a1.13,1.13,0,0,1-.51.16,4.84,4.84,0,0,0-2.26.83c-.56.33-1,.81-1.57,1.11C53.37,12,52.19,12.8,51,13.58a2.23,2.23,0,0,0-.48.38c-.28.31-.51.66-1,.69A.82.82,0,0,0,49,15a10.44,10.44,0,0,0-1.39,2,6,6,0,0,1-.73,1.37,9.41,9.41,0,0,1-1.83,2,8.84,8.84,0,0,0-2.4,2.52,12.19,12.19,0,0,1-1.34,1.76,6.52,6.52,0,0,1-1.82,1.17c-.83.39-1.68.74-2.51,1.12s-1.49.72-2.24,1.06c-.59.27-1.22.45-1.79.75a9.51,9.51,0,0,1-2.13.83c-.61.16-1.22.32-1.84.46A13.44,13.44,0,0,0,26,31.15a4.93,4.93,0,0,0-1.92,1.48,10.49,10.49,0,0,1-1.35,1.2,12.6,12.6,0,0,1-1.69,1.32,17.72,17.72,0,0,1-3.41,1.75,6.53,6.53,0,0,0-3.2,2.39A2.6,2.6,0,0,0,14,40a5.39,5.39,0,0,1-1.61,2.49A15.72,15.72,0,0,1,8.5,44.7c-.48.23-1,.36-1.48.63-1.47.88-2.91,1.8-4.37,2.71A6.2,6.2,0,0,0,.13,50.33a.17.17,0,0,0,0,.34c.65,0,1.27-.19,1.92-.19.22,0,.43,0,.65,0a3.8,3.8,0,0,1,.51-.13c.32.08.25.28.33.47.34.76.75.61,1.49.78.49.11.54.44.73.86.06.12.09.23.16.35s.16.11.21.19c.37.59.06.5,0,.94s.21.76.21,1.18-.22.79-.13,1.18c.19.78,1.31.59,1.87.55s.89,0,1.33-.11a2.78,2.78,0,0,1,1.31-.06c.3.08.57.23.85.33a4.1,4.1,0,0,0,1.39.19A19.51,19.51,0,0,1,15,57a28.38,28.38,0,0,0,3.68.54,8.25,8.25,0,0,0,1.64-.19c.64-.13,1.3-.1,1.93-.25a6.47,6.47,0,0,1,1.13-.29c.27,0,.55,0,.82,0A3.3,3.3,0,0,1,25,56.7a2,2,0,0,1,1,.48,5.28,5.28,0,0,0,2.81,1A8.21,8.21,0,0,0,30.28,58c.64-.11,1.28-.09,1.92-.21,1.12-.21,1.48.25,2.37.72a3.25,3.25,0,0,0,1.47.32c1.5,0,3,0,4.52,0,1.33,0,2.62.14,3.94.17.74,0,1.08.52,1.65.9a4.53,4.53,0,0,0,1.72.49c1.11.25,1.89.86,3.09.62.63-.13,1.22-.34,1.85-.43a18,18,0,0,1,2.32-.07c1.35,0,2.66.22,4,.19.69,0,1.4,0,2.09,0a19.79,19.79,0,0,1,2.28.52,10.72,10.72,0,0,0,3.66-.08,5.88,5.88,0,0,1,2.5-.21,12.46,12.46,0,0,1,1.69.81,20.2,20.2,0,0,0,4,.75,5.67,5.67,0,0,0,3.16.11A22.43,22.43,0,0,1,83,61.54a16.66,16.66,0,0,1,4.78-.21c1.16.14,2-.5,3-.93A14.62,14.62,0,0,1,95,59.58c1.24-.11,2.49-.31,3.72-.51a37.22,37.22,0,0,1,4-.94c1.29-.06,2.58.16,3.87,0a9.7,9.7,0,0,0,1.51-.34,16.17,16.17,0,0,1,2.2-.17c1.36-.15,2.74-.17,4.08-.39.73-.11,1.45-.31,2.17-.44a6.29,6.29,0,0,1,2.42-.27c.56.14,1,.53,1.6.71a10.61,10.61,0,0,0,2,.39,25,25,0,0,0,4.33-.07,29.69,29.69,0,0,0,3.76-.35,11,11,0,0,1,2.14-.27,8.33,8.33,0,0,0,1.92-.18c.64-.14,1.27-.12,1.92-.21a10.58,10.58,0,0,0,1.82-.47,4.81,4.81,0,0,1,2.08-.39c.58.07,1.11.16,1.7.18a3.9,3.9,0,0,0,2.56-.41s0,0,0,0l.16.11a1.18,1.18,0,0,0,.27.06Zm-4.58-3.69c.08.1.14.21.21.31l-.2,0-.14-.27C140.5,51.73,140.57,51.71,140.58,51.72Zm-2.24-3.25-.06-.09C138.36,48.38,138.35,48.43,138.34,48.47Zm-.41-1c0,.08.06.16.1.25a.25.25,0,0,0,.08.18l-.13,0a.3.3,0,0,0-.07-.15,1.47,1.47,0,0,1-.1-.22S137.92,47.46,137.93,47.47Zm-.91-1-.08.06C136.93,46.47,137,46.48,137,46.49Zm-.4-.36-.07-.08C136.64,46.05,136.63,46.09,136.62,46.13Zm-6.83-4.29a.28.28,0,0,1,.18,0l.71.88a5.5,5.5,0,0,1,1.74,1.13,19.06,19.06,0,0,0,2.64,1.59A6,6,0,0,1,137,47.13c.58.7,1,1.49,1.57,2.21a12.48,12.48,0,0,0,1.49,1.77s0,.16,0,.23-.16,0-.19,0a7.38,7.38,0,0,0-.62-.63c-.93-.78-1.76-1.66-2.72-2.42-1.34-1.06-2.54-2.27-3.79-3.44-.22-.21-.31-.53-.52-.74a3.06,3.06,0,0,0-1.15-.85,2.24,2.24,0,0,1-.47-.37,2.4,2.4,0,0,1-.9-.83S129.75,41.91,129.79,41.84Zm-2.2-1.22-.12-.21-.19-.42a1.36,1.36,0,0,1,.5.18c.42.33.8.71,1.19,1.07a.69.69,0,0,1,.13.2c-.08,0-.18.08-.22.05C128.44,41.21,128,40.91,127.59,40.62Zm.8,1.09c-.07,0-.13.09-.19.09l-.49-.11-.73-.3a2.42,2.42,0,0,1,.69-.11,2.06,2.06,0,0,1,.59.3C128.31,41.61,128.34,41.67,128.39,41.71Zm.37-1.64a.4.4,0,0,0,.21.18.35.35,0,0,1-.05.08l-.2-.13c0-.07,0-.08,0-.09a3.37,3.37,0,0,1-.32-.19Zm-3.33-2.9s.3.15.42.27a5.27,5.27,0,0,1,.65.78,3.43,3.43,0,0,0,1.31,1.17s.07.12.11.18c-.66.11-1-.45-1.47-.85a10.28,10.28,0,0,1-.8-.93s-.09-.06-.1-.09C125.52,37.52,125.19,37.37,125.43,37.17Zm.64,2.93c0-.45-.37-.52-.63-.71a.88.88,0,0,1,1.25.43c0,.06,0,.13,0,.19s.1.34.15.51C126.69,40.54,126.06,40.23,126.07,40.1Zm.52.77a2,2,0,0,1-.81,0s-.09-.12-.14-.18.15-.1.2-.08C126.1,40.7,126.34,40.79,126.59,40.87Zm-1.46-2.68c.5,0,.63.36.88.58,0,0,0,.07,0,.11s-.09,0-.13,0c-.23-.06-.48-.21-.68-.17s-.47,0-.53-.28S125,38.36,125.13,38.19Zm-4.27-2.33a20.87,20.87,0,0,1-2.09-1,1,1,0,0,1-.16-.12l.12-.06a1.67,1.67,0,0,1,1.52-.19,11.66,11.66,0,0,1,1.86.64,4.35,4.35,0,0,1,2.14,1.43c.2.2.2.35,0,.28C123.1,36.54,122,36.25,120.86,35.86ZM123,38.3a2.81,2.81,0,0,1-.58,0c-.08,0-.13-.2-.2-.3l.2,0c.25.08.37.11.48.16S123,38.26,123,38.3Zm-.93-1.14a.75.75,0,0,1-.24-.22s-.11-.07-.16-.11.1-.06.14,0S122.2,36.9,122.07,37.16Zm-4.41-3.39c.26.09.55.08.81.16.11,0,.19.17.29.27a1.4,1.4,0,0,0-.29,0,1.31,1.31,0,0,1-1.38-.33,2.33,2.33,0,0,1-.27-.52c.26-.16.41-.28.58-.38s.15,0,.22,0a1,1,0,0,1-.13.2C117.13,33.53,117.14,33.6,117.66,33.77Zm1-.55a2.07,2.07,0,0,1,1.39.48c.08,0,.14.11.22.17-.11,0-.23.1-.32.08l-1.31-.44C118.42,33.32,118.41,33.23,118.63,33.22Zm-1.53,1.42a.4.4,0,0,1-.56.08c0-.1,0-.11,0-.12l.51-.14C117.09,34.52,117.13,34.6,117.1,34.64Zm-.68-2.45a1.31,1.31,0,0,1-.28-.09.27.27,0,0,1,0-.3,2,2,0,0,1,.41.13l.58.29C116.86,32.21,116.64,32.21,116.42,32.19Zm0,.46s0,.17,0,.18a1.65,1.65,0,0,1-.32.07c-.09-.18-.14-.26-.18-.34Zm1.15,3.15a1.74,1.74,0,0,1-.75.32,1.59,1.59,0,0,1-.53,0L115.9,36c.12-.09.23-.25.36-.26C116.7,35.73,117.14,35.55,117.59,35.8Zm-.85.52c.51,0,1,0,1.53-.11.3,0,.69.25,1,.46a18.82,18.82,0,0,0,1.74.87,1.19,1.19,0,0,1,.42.34c.09.16-.1.32-.3.28A9.1,9.1,0,0,1,120,37.9a3.16,3.16,0,0,1-.69-.43c-.35-.14-.72-.18-1.07-.3-.51-.18-1-.42-1.5-.64a1,1,0,0,1-.16-.12C116.62,36.38,116.67,36.32,116.74,36.32Zm2.91.08.06,0c.66-.11,1,.35,1.5.51,0,0,0,.11,0,.12s-.22.1-.24.07c-.35-.41-.93-.33-1.33-.62C119.64,36.44,119.64,36.41,119.65,36.4Zm5,1.12c.08,0,.1.17.06.18a.82.82,0,0,1-.45.1,5.4,5.4,0,0,1-.84-.26.42.42,0,0,1,0-.12l.8,0A3,3,0,0,1,124.65,37.52Zm-1.45,2a1.68,1.68,0,0,1,1.42.09,5.08,5.08,0,0,1,.61.42,2.94,2.94,0,0,1-1.77-.08,1.19,1.19,0,0,1-.29-.18C123.09,39.71,123,39.62,123.2,39.54Zm-.82-5.78a14.38,14.38,0,0,1,1.17,1.11L124.64,36c.06.07.16.12.18.2a3,3,0,0,1,.09.43l-.34-.28c-.46-.43-.9-.88-1.39-1.28a3.67,3.67,0,0,0-1-.61,21,21,0,0,1-1.91-1.09c-.12-.06-.34-.05-.22-.26,0,0,.2,0,.3,0C121,33.3,121.71,33.53,122.38,33.76Zm-10.9-5.6a.27.27,0,0,1,.23,0,5.65,5.65,0,0,0,1.91,1.41c.62.35,1.27.67,1.88,1a11.83,11.83,0,0,0,2.19.89,1.23,1.23,0,0,1,.45.3,1.26,1.26,0,0,0,1.07.35c.22.39.48.16.65.22s.34.15.51.23a3.15,3.15,0,0,1-.52,0,4.83,4.83,0,0,1-1.15-.11c-.28-.09-.87.16-.83-.52,0,0-.28-.13-.44-.18a11.38,11.38,0,0,1-3.11-1.57,16.25,16.25,0,0,0-1.64-.9l-.94-.47A.72.72,0,0,1,111.48,28.16Zm4.06,3.66a.41.41,0,0,1-.26-.05l0-.07Zm-4.4-2.64a14.19,14.19,0,0,1,1.41.55c.76.37,1.5.79,2.25,1.19,0,0,.06.13,0,.18a.16.16,0,0,1-.16.06,9.77,9.77,0,0,1-1-.35,5,5,0,0,1-.59-.34l-1.14-.53c-.3-.39-.68-.3-.94-.46-.07-.05-.1-.16-.15-.24C110.93,29.22,111.05,29.15,111.14,29.18ZM114,31.41a.82.82,0,0,1-.22,0l-1.62-.25a2.67,2.67,0,0,0-.87-.11c-.22,0-.22-.06-.29-.16.1-.06.21-.16.31-.15A4.08,4.08,0,0,1,113,31a3.58,3.58,0,0,0,.55.19C113.75,31.31,113.85,31.36,114,31.41Zm-5.13-8.66s-.06.08-.09.11,0-.12,0-.18C109,22.45,108.77,22.69,108.82,22.75ZM108.39,21c-.08,0-.08,0-.09-.05Zm-1.62-2.29a1.66,1.66,0,0,1,.16.21.26.26,0,0,0,.14.14h-.14c0-.08-.09-.08-.11-.11s-.11-.12-.17-.18S106.76,18.71,106.77,18.72Zm-.68-1.08.24.3a1.21,1.21,0,0,0-.2.09A.81.81,0,0,1,106.09,17.64Zm-.84-1.14a.27.27,0,0,1-.15-.28Zm-.82-.62-.09,0,0-.18C104.39,15.74,104.42,15.81,104.43,15.88Zm-.48-.23-.09-.06C103.94,15.57,104,15.61,104,15.65ZM92.62,10.94l-.08-.14C92.66,10.85,92.64,10.89,92.62,10.94Zm-4.3-3c1.12.73,2.23,1.47,3.33,2.21,0,0,0,.15.06.22l-.15-.05c-.55-.08-.9-.49-1.35-.73a11.4,11.4,0,0,1-2-1.49.69.69,0,0,1-.07-.15C88.19,7.91,88.28,7.88,88.32,7.9ZM79.1.66a.33.33,0,0,1,0,.24L78.92.69Zm-.22,1a.93.93,0,0,1,.58.08,2.05,2.05,0,0,1,.4.38c-.14,0-.29-.07-.44-.09a3,3,0,0,0-.42,0C78.47,2.08,79,1.78,78.88,1.7ZM79.54,3c0,.09-.19.17-.24.13s-.35.31-.39,0,.27-.09.42-.14A.74.74,0,0,1,79.54,3Zm-2.19-.28.15-.14a.67.67,0,0,1,.31-.11s.07.16,0,.17a1.58,1.58,0,0,1-.39.24c-.2.09-.4.15-.59.22Zm.64.78s-.07.06-.11,0a1.73,1.73,0,0,1-.31-.07.37.37,0,0,1,.28-.06A.39.39,0,0,1,78,3.52ZM75.21,5.21a3.24,3.24,0,0,1,.65-.63,5.85,5.85,0,0,1,.86-.53,1.62,1.62,0,0,1,.56-.19,2.69,2.69,0,0,1,.56,0l-.41.29-.81.64-.94.74c-.09.07-.25.17-.29.14S75.07,5.4,75.21,5.21ZM74.2,10c0,.34-.31.25-.47.36-.36.26-.74.51-1.12.76,0,0-.1,0-.15,0s0-.12,0-.14l1-.84A4,4,0,0,1,74.2,10Zm-2.69-.33c0-.14,0-.24,0-.27.38-.2.85-.21,1.14-.56,0,0,.09,0,.14,0s0,.13,0,.14Zm-.18-5.14c.55-.24,1.11-.47,1.66-.69.05,0,.13,0,.19.05L73,4.2c-.6.25-1.12.44-1.65.62-.06,0-.16-.05-.25-.07C71.21,4.68,71.26,4.58,71.33,4.55ZM62.08,8.44l2-1.13a1.9,1.9,0,0,0,.21-.19,8.54,8.54,0,0,1,1.1-1,4,4,0,0,1,1.14-.4c.61-.17,1.23-.3,1.85-.45a.72.72,0,0,1,.29,0,.19.19,0,0,1,.14.1c0,.05,0,.16-.08.16-.78.16-1.42.74-2.31.58a1.34,1.34,0,0,0-1.3.67,2.14,2.14,0,0,1-1,.79,13.12,13.12,0,0,0-1.68,1,.75.75,0,0,1-.25.09,1.33,1.33,0,0,1-.28,0C62,8.56,62,8.48,62.08,8.44Zm3.3-.38c0-.16,0-.21.07-.24a.37.37,0,0,1,.29,0s0,.16,0,.24c0,.41-.18.81-.55.74s-.56.08-.83,0A1.31,1.31,0,0,1,64,8.68a1.73,1.73,0,0,1,.28-.19.67.67,0,0,1,.19-.05,2.08,2.08,0,0,1,.37,0C65.37,8.58,65.52,8.49,65.38,8.06ZM63,9.48c-.21.19-.33.34-.48.45s-.16,0-.24,0l.08-.2C62.6,9.77,62.63,9.22,63,9.48Zm-2.81.1,0,.09-.24-.05A.39.39,0,0,1,60.15,9.58Zm-.26,2.54c-.07,0-.08,0-.08-.06Zm-1.46,2.64a2.24,2.24,0,0,1,.5-.62s.13,0,.2,0a.42.42,0,0,1,0,.1,7.66,7.66,0,0,1-.46.7c-.05.07-.22,0-.34.07C58.34,15,58.39,14.85,58.43,14.76Zm-.6-1.68a.15.15,0,0,1,0,.13c-.05.07-.11.17-.18.19-.34.12-.67.22-1,.31a2.19,2.19,0,0,1-.11-.2c.45-.2.83-.32,1.2-.45C57.76,13.05,57.82,13.06,57.83,13.08Zm-3.36,5.08c.24-.11.48-.23.73-.32a1.6,1.6,0,0,1,.44,0c-.06.11-.09.28-.18.33a3.61,3.61,0,0,1-1.63.59,10.74,10.74,0,0,0-1.15.53s-.13,0-.19,0a.67.67,0,0,1,.12-.2A9.36,9.36,0,0,1,54.47,18.16Zm-1.73.07c.11-.11.22-.22.34-.32s.06,0,.09.05A.79.79,0,0,1,52.74,18.23Zm1.93-1.16a4.58,4.58,0,0,0-1.09.49.53.53,0,0,1-.25,0c0-.08,0-.2.08-.23a3.25,3.25,0,0,1,1.08-.52,4.28,4.28,0,0,0,2-.86s.1,0,.15,0a3.72,3.72,0,0,1,.65-.41c.07,0,.18,0,.27,0s0,.19-.06.23a3.7,3.7,0,0,1-.5.35A5.47,5.47,0,0,1,54.67,17.07Zm-.62-2.24c0,.05.05.09.07.14S54,14.88,54.05,14.83Zm.3.2h.14a.33.33,0,0,0,.13.15h-.13C54.44,15.08,54.4,15.05,54.35,15Zm2.75-.84a.35.35,0,0,1-.05.08C57,14.2,57.06,14.2,57.1,14.19Zm-.57-2.95-.12.11c-.06-.07-.11-.14-.17-.2A.32.32,0,0,1,56.53,11.24Zm-.1,3.21a2.48,2.48,0,0,1,.39-.1c-.08.12-.14.3-.26.37a12.06,12.06,0,0,1-1.16.52.14.14,0,0,1-.12-.25c.19-.11.39-.2.6-.3A3.1,3.1,0,0,0,56.43,14.45ZM41.85,25.12a7.51,7.51,0,0,0,1.69-2,3.52,3.52,0,0,0,.56-.74c.16-.37.45-.29.72-.28s.37,0,.32-.3.11-.46.41-.6a12.62,12.62,0,0,0,1.27-.77c.7-.48,1.32-.89,1.94-1.3a.56.56,0,0,0,.14-.2,1,1,0,0,0-.25,0L47,20c-.06,0-.1.12-.16.14a2.79,2.79,0,0,1-.35.11c.05-.11.07-.26.16-.33a6.76,6.76,0,0,0,1.67-2.4,6,6,0,0,1,2.59-2.78,1.55,1.55,0,0,0,.41-.25,15.44,15.44,0,0,1,2.76-1.88c.29-.19.71-.27,1-.46a.58.58,0,0,1,.41,0,3.73,3.73,0,0,1,.57.34l-.49.2c-.83.3-1.54.83-2.36,1.14a.85.85,0,0,0-.48.49,2.52,2.52,0,0,0,.15.83s.08,0,.12,0l.41.06-.38.36c-.25.27-.65.52-.73.83a1.22,1.22,0,0,1-.93.81c-.36.13-.44.27-.42.58s-.09.43-.38.61c-.94.61-1.81,1.33-2.72,2-.58.43-1.18.85-1.77,1.28s-.88.66-1.33,1c-.16.11-.37.17-.53.29a1.27,1.27,0,0,0-.27.34,2.23,2.23,0,0,0-.16.43c0,.09-.08.19-.13.28.15,0,.35,0,.44,0a22.7,22.7,0,0,1,3.09-1.81,8.06,8.06,0,0,1,.71-.39,2.26,2.26,0,0,1,1.16-.35,4.11,4.11,0,0,0,1.65-.57c1.24-.44,2.44-1,3.66-1.48.1,0,.25,0,.38.06-.05.09-.08.22-.17.27a3.73,3.73,0,0,1-.7.4c-.63.23-1.28.42-1.92.64-.82.28-1.63.59-2.46.88A9.94,9.94,0,0,0,48.2,22c-1.29.67-2.53,1.43-3.84,2.08-.7.35-1.43.64-2.1,1.05a1.51,1.51,0,0,1-.32.11l-.13,0S41.83,25.13,41.85,25.12Zm10.6-7.42c-.05.06-.09.17-.13.18s-.36.06-.32-.2A.93.93,0,0,1,52.45,17.7Zm-.81,1.58a.44.44,0,0,1-.23.34,1,1,0,0,1-.39,0,1.73,1.73,0,0,1,.28-.19Zm-1.39.53A2.21,2.21,0,0,1,50,20a24,24,0,0,1-3.87,2.16.32.32,0,0,0-.16.13.57.57,0,0,0,0-.13c.53-.37,1-.75,1.46-1.09.68-.5,1.38-1,2.08-1.43.13-.09.31-.22.44-.2S50.14,19.69,50.25,19.81Zm-11,6.62c-.08,0-.09,0-.09-.05ZM141.45,55.51a7.64,7.64,0,0,0-1.43-.16,8.42,8.42,0,0,0-1.89.52,36.19,36.19,0,0,1-3.58.62,11.89,11.89,0,0,1-2.15.14,10.8,10.8,0,0,0-1.78.28,38,38,0,0,1-4,.36,20.6,20.6,0,0,1-4.3,0,7.05,7.05,0,0,1-2.26-.59,4,4,0,0,0-1.27-.52,5.27,5.27,0,0,0-1.48.19c-.7.13-1.39.24-2.07.4a39,39,0,0,1-5.05.53c-.31-.43-.61-.86-.95-1.26a28.08,28.08,0,0,1-2-2.6,2.06,2.06,0,0,0-.39-.39,3.39,3.39,0,0,1-.48-.44c-.31-.48-.59-1-.88-1.46a1.65,1.65,0,0,0-1.22-.89.94.94,0,0,1-.86-.74,4.28,4.28,0,0,1-.1-1.06,1.11,1.11,0,0,0-.48-.92c-.63-.44-1.43-.72-1.73-1.51a.23.23,0,0,0-.15-.14.36.36,0,0,1-.25-.57c.27-.4,0-.61-.22-.87s-.25-.36-.4-.53c-.33-.39,0-.77.07-1.12s.14-.62-.16-.91a1,1,0,0,1-.33-.63c0-.46-.27-.67-.64-.87a1.07,1.07,0,0,1-.39-.45c-.18-.37-.34-.52-.67-.33s-.39,0-.52-.13a1.34,1.34,0,0,1-.27-.44,7.2,7.2,0,0,1-.6-2.27,1.57,1.57,0,0,0-.14-.5c-.14-.43-.32-.54-.67-.44s-.58.5-.48.76c.28.79.56,1.59.89,2.36.09.21.19.35,0,.53s-.36.06-.56,0a1.79,1.79,0,0,1-1-1c-.2-.61-.41-.64-1-.38a1.19,1.19,0,0,1-.32.1,5.34,5.34,0,0,1-2.93-.49.65.65,0,0,1-.46-.51,4.45,4.45,0,0,0-.61-1.07,5.17,5.17,0,0,1-.83-1.34,3.14,3.14,0,0,0-.21-.61A5.48,5.48,0,0,0,86,32.22a3.52,3.52,0,0,1-1.53-1.32,6.38,6.38,0,0,0-.77-1.29,2.82,2.82,0,0,1-.55-1.53,1.18,1.18,0,0,0-.22-.47c0-.09-.14-.18-.25,0s-.25.17-.24.24a5.66,5.66,0,0,0,.26,1.35,10.59,10.59,0,0,0,.87,1.67,4.36,4.36,0,0,0,1.1,1.42c.73.46,1.43,1,2.17,1.39a2,2,0,0,1,.85,1.12,4.08,4.08,0,0,0,.76,1.44,7.8,7.8,0,0,1,.7,1.18c.3.47.5,1.06,1.26,1.06.08,0,.16.08.24.11a3.17,3.17,0,0,0,1.55.31c.26,0,.52,0,.61.3,0,.18.19.18.28,0l.09-.15a5.22,5.22,0,0,1,.6.45s-.09.21-.13.33a1.21,1.21,0,0,0-.11.37,1.19,1.19,0,0,0,.09.36,1.25,1.25,0,0,0,.43-.17c.15-.13.24-.32.38-.46s.15,0,.24,0,0,.14,0,.18a1.55,1.55,0,0,1-.26.25c-.17.14-.22.29-.09.47a.37.37,0,0,0,.5.12l.15,0c0,.06,0,.14,0,.19-.15.24-.32.47-.45.72a.35.35,0,0,0,0,.32c.13.06.34.11.43,0a3.71,3.71,0,0,0,.47-.5,5.92,5.92,0,0,1,.45-.41s.14,0,.21,0a1.17,1.17,0,0,0-.06.2c-.07.41-.41.63-.67.91a3.74,3.74,0,0,0-.46.59.26.26,0,0,0,.07.27.32.32,0,0,0,.28.06,1.21,1.21,0,0,0,.46-.29c.26-.31.49-.64.74-1a.3.3,0,0,1,.17-.08.16.16,0,0,1,.12.12c0,.28.12.58-.18.83a8.67,8.67,0,0,0-.64.72c-.17.18-.32.35-.09.58s.41.09.6-.08.53-.63,1-.71a.45.45,0,0,0,.33-.55c-.13-.51.33-.72.61-1a.33.33,0,0,1,.33,0,.28.28,0,0,1,.07.3c-.4.56-.51,1.32-1.25,1.66-.18.08-.31.29-.47.43s-.27.32-.08.52.4.16.6,0c.44-.43.89-.85,1.35-1.28a2.35,2.35,0,0,1,.25-.19.91.91,0,0,1,0,.33,1,1,0,0,1-.14.29,10.82,10.82,0,0,1-1.61,2.49c-.06.08-.1.29-.06.32s.34.19.43.14a4.36,4.36,0,0,0,.76-.58c.13-.12.21-.3.33-.43s.16,0,.24-.08-.07.14-.09.2a1.85,1.85,0,0,1-.9,1,4.47,4.47,0,0,0-1.18,1,13,13,0,0,0-1.58,2.43,4.27,4.27,0,0,1-.61.87,1.09,1.09,0,0,0-.26.73,2,2,0,0,1-.06.81,3.58,3.58,0,0,1-1.28,1.64,17.8,17.8,0,0,0-2.86,2.32,9,9,0,0,0-1.37,2.1c-.22.44-.28.91-.5,1.33a4.08,4.08,0,0,0-.22.54l.54-.18c.18-.51.39-1,.6-1.49a8.57,8.57,0,0,1,3.1-3.45c.6-.43,1.17-.88,1.8-1.36a3,3,0,0,0,1-1.74,2.33,2.33,0,0,1,.24-.94,25.65,25.65,0,0,1,2.11-3.27c.09-.12.18-.25.38-.07s.28,0,.42,0,.25.08.16.25a6.73,6.73,0,0,0-.38.82.34.34,0,0,0,.13.31c.1.06.2.2.39,0a7.35,7.35,0,0,0,1.22-1.82l.27-.45s.07,0,.1-.08.06.07.06.11a.82.82,0,0,1,0,.35,12,12,0,0,1-.78,1.84c-.16.27,0,.4.08.53s.29,0,.48,0c.51-.19.62-.69,1-1a1.37,1.37,0,0,1,.2-.13c0,.07.11.18.08.22A7.8,7.8,0,0,0,101,50.4a.69.69,0,0,0,.12.74.58.58,0,0,0,.77,0c.05,0,.14,0,.19-.06.2-.11.38-.24.56-.36,0,.22.05.44.06.67a.65.65,0,0,1,0,.14c0,.67.39.89,1,.62a1.55,1.55,0,0,0,.36-.19c.33-.25.32-.25.46.16a1.11,1.11,0,0,1,0,.25c.1.57.19,1.13.3,1.69,0,.14.06.36.14.38a1.34,1.34,0,0,0,.56,0c.06,0,.1-.12.16-.14s.25-.06.29,0a3.88,3.88,0,0,1,.73,1,9.1,9.1,0,0,0,.4.9,5.35,5.35,0,0,1,.74.41,2,2,0,0,0-.13-.34c-.11-.25-.3-.48-.4-.74a5.27,5.27,0,0,1-.16-.77.25.25,0,0,0-.13-.15h.13c.2.37.41.66.59,1,.37.64,1,1,1.45,1.64a1.44,1.44,0,0,0,.18.25,16.57,16.57,0,0,0-2.09.35,15.65,15.65,0,0,1-3.87.06,11.33,11.33,0,0,0-3.37.66c-2.44.72-5.07.7-7.56,1.1a13.46,13.46,0,0,0-3.39,1.26,4,4,0,0,1-2,.15q-1.11,0-2.22,0A22.71,22.71,0,0,0,81,61.6c-.65.14-1.33.21-2,.4a5,5,0,0,1-1.91.47c-.69,0-1.37-.26-2-.35a20.17,20.17,0,0,1-2.19-.28A8.47,8.47,0,0,1,71,61.21a4.46,4.46,0,0,0-1.52-.65c-1.17-.15-2.33.33-3.5.38a13.38,13.38,0,0,1-2.1,0c-.74-.08-1.42-.4-2.14-.51a29.47,29.47,0,0,0-3.76,0c-.6,0-1.18-.16-1.78-.19s-1.44,0-2.15,0a9.26,9.26,0,0,0-1.58.11,16.42,16.42,0,0,1-2.08.46,4.66,4.66,0,0,1-1.88-.53c-.61-.23-1.28-.18-1.88-.45s-.82-.7-1.3-.94A2.94,2.94,0,0,0,44,58.71c-.6,0-1.18-.2-1.78-.21s-1.41,0-2.11,0c-1.4,0-2.8.07-4.19,0s-2.07-1.3-3.34-1.11a33.32,33.32,0,0,1-3.44.43,6.13,6.13,0,0,1-3.35-1.29,1.42,1.42,0,0,0-.93-.28c-.34,0-.59.2-1,.22a6.18,6.18,0,0,0-.86,0,17.55,17.55,0,0,1-1.78.37c-.64,0-1.25.24-1.89.3a12.87,12.87,0,0,1-3.9-.42c-1.18-.26-2.29.3-3.48,0-.49-.1-.92-.4-1.41-.5a4.79,4.79,0,0,0-1.5.15,12,12,0,0,1-1.59.11c-.35,0-.85,0-1-.45,0-.21.1-.54.12-.76a2.46,2.46,0,0,0-.12-.89c-.1-.51.33-.8.24-1.26s-.5-.61-.63-1-.08-.55-.33-.76a1.24,1.24,0,0,0-.73-.2c-.43,0-.66,0-.94-.37s-.16-.43-.24-.77A.18.18,0,0,0,3.71,50c-.58,0-1.18.13-1.77.13a14.76,14.76,0,0,0-1.49.17l.1-.06c.31-.33.19-.37.55-.66A19.58,19.58,0,0,1,3,48.32c.93-.58,1.88-1.13,2.85-1.67A11.39,11.39,0,0,1,8,45.57a27.31,27.31,0,0,0,3.94-1.86,5.91,5.91,0,0,0,2.78-3,6.06,6.06,0,0,1,.67-1.26,3.39,3.39,0,0,1,1.36-1.29,9.1,9.1,0,0,0,1.51-.72c1-.59,2-1,3-1.57a15.92,15.92,0,0,0,3.09-2.41,14.76,14.76,0,0,1,1.61-1.35,9.78,9.78,0,0,1,3.49-1.51c.65-.17,1.35-.27,2-.48a19.71,19.71,0,0,0,3.92-1.54l.48-.24c.33-.16.65-.31,1-.45.84-.34,1.56-1,2.58-.95a1.26,1.26,0,0,0,.5-.18c1.14-.57,2.28-1.15,3.42-1.71,1.32-.66,2.64-1.33,4-2,.41-.2.77-.7,1.35-.32,0,0,.16-.07.24-.1l.51-.17a12.74,12.74,0,0,0,2.89-1.09A5.43,5.43,0,0,1,53.5,21c.07,0,.17,0,.26.06a.72.72,0,0,1-.12.21,7.32,7.32,0,0,1-.93.55c-.62.25-1.26.46-1.9.65a17.72,17.72,0,0,0-2.14.63c-.8.36-1.82.51-2.08,1.56a.66.66,0,0,1-.34.34c-.49.21-1,.39-1.5.58s-1,.3-1.53.51c-1.36.58-2.68,1.22-4,1.79-1.66.69-3.37,1.23-5,1.88a8.73,8.73,0,0,0-1.28.75c-.28.16.08.28,0,.43s.2,0,.24,0a4.33,4.33,0,0,1,1.95-1c1.82-.58,3.62-1.2,5.42-1.81.58-.19,1.15-.38,1.72-.59l3.7-1.39c.32-.12.61-.28.92-.41a10.55,10.55,0,0,0,1.42-.58,2,2,0,0,1,1.07-.42l.19,0c0,.06-.07.17-.13.19a5.29,5.29,0,0,0-1.21.55c-1.08.48-2.16.95-3.26,1.39-.48.19-1,.28-1.48.46a14,14,0,0,0-1.54.67c-.34.16-.33.18-.07.55,0,0,0,.12,0,.13l-.47.1a19.69,19.69,0,0,0-3.36,1c-1.47.55-3,.94-4.45,1.51-1.13.44-2.3.74-3.41,1.24-.89.41-1.63,1-2.53,1.4a.68.68,0,0,0-.35.34,1.48,1.48,0,0,0,0,.51,1.31,1.31,0,0,0,.35-.19,5.35,5.35,0,0,1,2.21-1.3c1.34-.44,2.73-.76,4.08-1.2.6-.19,1.22-.32,1.83-.49L41.1,30c.08,0,.13-.28.23,0,0,0-.08.15-.14.17a15.75,15.75,0,0,0-3,1.23,8.68,8.68,0,0,0-.95.51,1.49,1.49,0,0,1-.8.37,6.1,6.1,0,0,0-1.63.41c-1.2.52-2.5.74-3.7,1.23s-2.38.92-3.56,1.39a5.23,5.23,0,0,0-1.45.68A9,9,0,0,1,24.32,37a.64.64,0,0,0-.36.7c0,.07.1.17.14.17s.28-.05.29-.1c.05-.32.32-.45.55-.6a5.41,5.41,0,0,1,1.17-.66,25.29,25.29,0,0,1,3.39-1.1c1.26-.28,2.46-.75,3.73-1s2.15-.82,3.35-.71c.1,0,.2-.1.31-.13a20.48,20.48,0,0,0,4.79-1.91,4.15,4.15,0,0,1,1-.31.86.86,0,0,1,.27,0,2.14,2.14,0,0,1-.13.19A6.92,6.92,0,0,1,40,33.4a5.32,5.32,0,0,1-1,.19,11.77,11.77,0,0,0-1.34.27c-1.31.4-2.6.85-3.91,1.25s-2.55.73-3.82,1.12a26.91,26.91,0,0,0-3.4,1.09c-.74.35-1.57.54-2.32.87-.31.14-.73.44-.76.7-.07.5-.41.63-.74.8-.6.3-1.23.54-1.82.86a.81.81,0,0,0-.39.5c0,.23.18.34.44.32,0,0,.08.08.13.12s-.12.15-.17.15a4,4,0,0,0-1.56.63.71.71,0,0,0-.47.78c.05.32-.25.41-.5.56a3.79,3.79,0,0,0-.87.68.31.31,0,0,0,.23.54,1.27,1.27,0,0,0,.46-.1l.25-.1c-.07-.06-.14-.18-.21-.19-.35,0-.19-.16-.06-.25a16.18,16.18,0,0,1,3.34-1.57c1.06-.41,2.13-.79,3.21-1.18s1.94-.69,2.9-1,1.71-.66,2.58-1a3.35,3.35,0,0,1,.79-.09c.05,0,.1.1.15.15l-.17.07c-.36.19-.71.39-1.07.56a23.17,23.17,0,0,1-2.29,1.13,16.67,16.67,0,0,0-2.32.87c-.62.33-1.34.51-2,.78-1.14.45-2.3.88-3.4,1.4S17.79,45.37,16.78,46a14.61,14.61,0,0,0-1.44,1,.38.38,0,0,0-.06.6.49.49,0,0,0,.66,0l.13-.13c-.06-.05-.11-.14-.18-.14s-.38,0-.1-.22c.65-.45,1.29-.93,2-1.32a32.24,32.24,0,0,1,2.92-1.51c1.08-.48,2.21-.84,3.32-1.27l2.55-1A1.68,1.68,0,0,1,27,42a1.1,1.1,0,0,0-.31.2.38.38,0,0,0-.1.3c.07.3-.14.46-.32.64a3.47,3.47,0,0,1-1.36.74,17.16,17.16,0,0,0-1.93.75,13.18,13.18,0,0,1-2.32,1.07,7.51,7.51,0,0,0-.94.34c-.69.33-1.36.69-2,1s-1.6.81-2.37,1.25a5,5,0,0,0-1.46,1,.44.44,0,0,0,.23.76,3,3,0,0,0,1.53-.64s0-.09,0-.14l-.16,0-.84.24a2.66,2.66,0,0,1-.39.07,2,2,0,0,1,.2-.3,2,2,0,0,1,.33-.24c.72-.45,1.48-.85,2.21-1.28,1.79-1,3.73-1.73,5.59-2.6.05,0,.13,0,.2,0s-.09.09-.09.15-.07.37,0,.45c.21.23,0,.32-.1.44a2.18,2.18,0,0,1-.38.3c-1.43.79-2.85,1.61-4.31,2.35-1,.52-2,1.1-3.08,1.65a42.55,42.55,0,0,0-5.25,3.52L8.08,55.28l-1.19.9c-.07.06.09.07.05.16a.69.69,0,0,0,.25-.1c.4-.27.49-.24.88-.53,1.3-1,2.56-2,3.91-2.91a57.67,57.67,0,0,1,5.54-3.24,13.31,13.31,0,0,1,1.54-.81,13.11,13.11,0,0,1,2.27-1l.08-.13a.3.3,0,0,1,0,.16c-.28.21-.52.39-.75.58s-.3.24-.3.36a.61.61,0,0,1-.38.54,13.92,13.92,0,0,0-2.24,2c-.4.39-.77.8-1.14,1.22l-2.38,2.67c-.4.45-.34.25-.74.7a11,11,0,0,0-.75.91l.59-.14A19.73,19.73,0,0,1,15,54.82c.38-.39.75-.8,1.12-1.21.62-.68,1.23-1.36,1.86-2a4.5,4.5,0,0,1,.93-.87,8.83,8.83,0,0,0,1.62-1.29c.41-.39.81-.79,1.23-1.17.58-.51,1.15-1,1.75-1.52a.68.68,0,0,0,.24-.9c-.16-.29-.07-.44.21-.58.8-.4,1.58-.84,2.38-1.24a3.43,3.43,0,0,1,1.58-.58.55.55,0,0,0,.58-.55c0-.45-.34-.19-.5-.27a2.28,2.28,0,0,1-.39-.24c.08-.1.15-.22.24-.32A.32.32,0,0,1,28,42a38.18,38.18,0,0,1,3.82-2s.13,0,.19,0a.48.48,0,0,1-.09.14c-.53.46-1.06.93-1.6,1.38-.22.19-.48.35-.71.54a7.76,7.76,0,0,0-.63.65c0,.05,0,.17,0,.26a.67.67,0,0,0,.15-.06c.69-.55,1.37-1.11,2-1.67a6.64,6.64,0,0,1,1.35-1.1c.62-.27.93-.81,1.44-1.17.2-.14.3-.35.61-.45s.32-.36.56-.52a9.78,9.78,0,0,0,1.39-1.17,1.34,1.34,0,0,1,1.19-.5,1.12,1.12,0,0,0,.57-.18,16.13,16.13,0,0,0,3.66-2.5,7.13,7.13,0,0,1,1.72-1.4,6.17,6.17,0,0,0,1-1c-.12-.57.32-.85.66-1.2a5.45,5.45,0,0,0,.67-.85,6.27,6.27,0,0,1,2.57-2.19,17.78,17.78,0,0,0,2.05-1.16c.48-.32.92-.69,1.39-1,0,0,.16,0,.24,0a1.19,1.19,0,0,1-.09.15,7.93,7.93,0,0,1-.82.91c-.82.68-1.67,1.32-2.5,2-.33.25-.66.51-1,.79a.31.31,0,0,0,0,.32c.41.32,0,.49-.15.63-.46.32-1,.58-1.44.88a1.3,1.3,0,0,0-.41.36,2.55,2.55,0,0,0-.14.56,2.07,2.07,0,0,0,.49,0,1,1,0,0,0,.44-.14c.32-.18.61-.39.92-.58.14-.09.21-.37.44-.17,0,0-.17.27-.27.42l0,.05a29.66,29.66,0,0,0-2.66,1.74c-.47.38-1.2.69-1.09,1.51,0,.06-.13.19-.23.23a12.1,12.1,0,0,0-2.35,2,.42.42,0,0,0-.17.54c.31.41-.07.5-.27.68-.47.46-1,.92-1.42,1.4-.07.08,0,.25-.05.37a2.48,2.48,0,0,0,.39,0,5.55,5.55,0,0,0,.56-.24,1.25,1.25,0,0,1,.19,0,.56.56,0,0,1-.07.18,1.06,1.06,0,0,1-.15.15c-.45.38-.91.74-1.32,1.14-.12.11-.3.32,0,.53s.06.35-.1.52c-.39.4-.76.81-1.13,1.22-.2.2-.14.44.14.47a1.12,1.12,0,0,0,.47-.09,4.36,4.36,0,0,0,.41-.24,3.11,3.11,0,0,0-.31.43c-.06.13-.14.32-.08.41a.47.47,0,0,0,.41.18c.29,0,.59-.09.71-.42a.4.4,0,0,1,.44-.27.46.46,0,0,0,.32-.09c.9-.83,2.09-1.32,2.86-2.3a.65.65,0,0,1,.21-.19,1.05,1.05,0,0,1,.19,0c0,.08.07.2,0,.24a7.47,7.47,0,0,0-.8.79A4.81,4.81,0,0,1,41.37,43c-.71.43-1.29,1-2,1.44a1.62,1.62,0,0,0-.46.71c0,.08,0,.31.1.31a1.37,1.37,0,0,0,.73,0,10.29,10.29,0,0,0,1-.82c.2-.16.41-.3.62-.44,0,0,.12,0,.19,0s0,.12-.07.15a19.15,19.15,0,0,1-2.6,2.22A19.76,19.76,0,0,0,37,48.06a1,1,0,0,0-.2.33,1.3,1.3,0,0,0,.42.19.87.87,0,0,0,.52-.14c.54-.39,1.06-.8,1.59-1.22.1-.09.18-.21.31,0s.11.18-.07.29a8.25,8.25,0,0,0-.65.67c-.83.76-1.68,1.5-2.51,2.26-.42.38-.81.78-1.23,1.16s-.88.76-1.33,1.13c-.19.15-.37.34-.26.58s0,.51-.22.71l-2.26,2.15A.87.87,0,0,1,30,56.4a.68.68,0,0,0-.88.26c-.28.4-.33.46-.6.86-.13.2.25,0,.13.19.48-.31.24.14.72-.18a.6.6,0,0,1,.25-.16,1.53,1.53,0,0,1,1-.27h0A16.63,16.63,0,0,0,32.14,56c.58-.48,1.14-1,1.7-1.47a5.68,5.68,0,0,1,.67-.63,11,11,0,0,0,2-1.81c.23-.24.4-.44.17-.77-.13-.17-.07-.33.11-.47l.86-.69a7.83,7.83,0,0,0,2.37-2.39s.07-.08.11-.09l.24-.06c0,.09.07.18.05.25a1,1,0,0,1-.15.23c-.24.41-.49.82-.72,1.24-.15.26-.27.54-.42.81a6.93,6.93,0,0,0-1.08,2.28c0,.1,0,.21,0,.31.08-.09.19-.16.23-.26.16-.31.26-.64.43-1,.29-.53.62-1,.92-1.58s.46-.94.73-1.38c.54-.88,1.13-1.73,1.67-2.61s1-1.87,1.66-2.74c.27-.37.29-.81.56-1.18A4.62,4.62,0,0,0,45,40.32a14.47,14.47,0,0,0,.17-2.08c0-.37,0-.75,0-1.12a.94.94,0,0,1,.16-.55A10.16,10.16,0,0,1,48.08,34a8.25,8.25,0,0,0,1.52-1.21,7,7,0,0,0,.77-.87,10.71,10.71,0,0,0,1.17-1.7c.34-.69.48-1.47.77-2.19a1,1,0,0,0,0-.82,2.13,2.13,0,0,1-.16-1,2.64,2.64,0,0,1,.5-.91c.62-.89,1.27-1.77,1.9-2.65.07-.09.2-.19.18-.27-.14-.79.6-1.31.68-2,0-.21.4-.38.57-.59s.52-.26.3-.52c-.36-.43,0-.68.22-.91.69-.76,1.42-1.5,2.16-2.21a7.3,7.3,0,0,0,1.63-2.63,3.4,3.4,0,0,1,1.45-2,12.05,12.05,0,0,0,1.08-.73,6,6,0,0,1,2.43-1.27c.21,0,.61-.32.6.25,0,.26.24.3.47.3s.36-.13.41-.37a2.51,2.51,0,0,1,1-1.62A7,7,0,0,1,70.28,6.4l.56-.13a3.81,3.81,0,0,1-.29.57c-.09.1-.28.13-.42.21s-.39.21-.58.34-.25.1-.06.24.17.25.24.24a2.73,2.73,0,0,0,.8-.18c.67-.29,1.33-.62,2-.92.33-.15.66-.29,1-.41.06,0,.16,0,.24.07a1.39,1.39,0,0,0-.19.06L71,7.88c-.4.22-.8.42-1.17.67s-.35.4,0,.61a.69.69,0,0,0,.49,0c.17-.05.3-.2.46-.27s.16,0,.25,0-.07.17-.13.2l-1.52.7c-.24.12-.39.28-.09.5a1.34,1.34,0,0,1,.21.2c.11.14.1.2-.1.28a14.82,14.82,0,0,0-1.45.69c-.12.07-.29.3-.27.33.35.4,0,.43-.28.54a3.43,3.43,0,0,1-1.07.4c-.59.07-.71.42-.39.9.07.1.17.12,0,.2-.44.15-.87.36-1.3.54a8.86,8.86,0,0,1-2.43,1.14c-.07,0-.15.11-.2.19s-.15.2-.12.28a.4.4,0,0,0,.26.19,1.22,1.22,0,0,0,.78-.23c.41-.21.84-.4,1.27-.6.17-.09.34-.18.55-.27s.18-.1.29-.14a.46.46,0,0,0,.12-.13A.2.2,0,0,1,65,15c-.11,0-.18.09-.29.14-.11.26-.31.3-.58.31a25.18,25.18,0,0,1-3.54,1.89c-.42.24-.64.42-.6.91,0,.68.17.75.85.48.44-.19.78-.52,1.23-.7a15.24,15.24,0,0,0,2-1c.28-.15.53-.33.82-.48.09-.05.22,0,.34,0a1,1,0,0,1-.16.24c-.35.25-.7.51-1.06.73-.54.33-1.08.66-1.64.94a2.77,2.77,0,0,0-1.19.86,3.8,3.8,0,0,1-.69.81c-.66.54-1.35,1-2,1.55a18.47,18.47,0,0,1-2.32,1.74,11.6,11.6,0,0,0-1.81,1.51,1.19,1.19,0,0,0-.3.51c-.05.12-.05.27.19.26s.61,0,.72-.38a1.15,1.15,0,0,1,.46-.57c.41-.26.87-.46,1.3-.7a29.71,29.71,0,0,0,3.49-2c1.06-.81,2.22-1.5,3.34-2.23.53-.34,1.07-.66,1.62-1,.06,0,.16,0,.24,0a.38.38,0,0,1-.11.14c-.63.45-1.25.91-1.9,1.33a9.83,9.83,0,0,0-1.91,1.32c-.11.11-.29.15-.4.26s-.63.12-.72.48c.29-.08.59-.15.88-.25s.38-.33.66-.22a3.17,3.17,0,0,1-.55.49c-1.28.71-2.59,1.36-3.82,2.12-.4.24-1,.35-1.15.87a1.18,1.18,0,0,1-.11.19c.12.05.26.15.35.12a1.82,1.82,0,0,0,.51-.34,6.77,6.77,0,0,1,.56-.52c.73-.44,1.48-.86,2.22-1.28.58-.33,1.19-.63,1.76-1,.89-.58,1.6-1.38,2.5-1.94.7-.45,1.42-.86,2.15-1.27a1.74,1.74,0,0,1,.42-.08,1.5,1.5,0,0,1-.26.38c-.38.28-.79.54-1.18.81s-.89.55-1.29.87-.26.5.12.65l.27.13-.24.17c-.25.21-.71.27-.63.71.05.29-.15.37-.33.49s-.37.26-.56.39a35.33,35.33,0,0,1-4,2.15c-.56.28-1.17.46-1.74.71a3.51,3.51,0,0,0-.75.44c-.09.06-.11.22-.16.33a1.26,1.26,0,0,0,.39,0c.73-.35,1.43-.75,2.17-1.05a38.1,38.1,0,0,0,5.26-2.85c1.11-.67,2.11-1.52,3.17-2.28a1,1,0,0,1,.35-.11c0,.09-.06.19-.11.28-.44.82-1.34,1.13-2,1.66s-1.33.74-1.65,1.49c0,.11-.23.17-.33.28s-.57.34-.55.75c0,.11-.19.28-.33.35-.66.32-1.34.59-2,.93s-1.41.77-2.12,1.16c-.87.47-1.75.92-2.61,1.4-.1.05-.15.21-.23.31a1.46,1.46,0,0,0,.39.09.72.72,0,0,0,.43-.16,7.85,7.85,0,0,1,2-1.26,15.23,15.23,0,0,1,1.62-.8,13.74,13.74,0,0,1,2.45-1.24c.85-.49,1.72-.94,2.58-1.39a2.77,2.77,0,0,1,.63-.15s.06-.09.09-.11a1.64,1.64,0,0,1,.29-.16s0,.05.08.08c-.12.06-.24.13-.39.19-.38.23-.71.49-1.07.69a21.45,21.45,0,0,1-3.7,1.8l-.93.33c-.05.22,0,.28.21.21l2.4-.88a1,1,0,0,1,.28,0c0,.07-.06.18-.13.22s-.36.16-.54.26c-.52.26-1,.58-1.54.81-1.26.53-2.53,1-3.79,1.53a10.86,10.86,0,0,0-1.11.47c-.11.06-.12.3-.17.46a2.3,2.3,0,0,0,.35-.1l2.84-1.18a15.62,15.62,0,0,0,2.21-1,8.05,8.05,0,0,1,1.36-.72,6.22,6.22,0,0,0,1.3-.7,15.76,15.76,0,0,1,2.47-1.55c.18-.07.34-.16.52-.24a3.22,3.22,0,0,1-.16.61.7.7,0,0,1-.3.29c-1,.61-2,1.25-3.09,1.81-.28.15-.42.28-.36.54s-.1.29-.28.38c-.82.4-1.64.79-2.5,1.14-1.65.67-3.27,1.42-4.9,2.15a2.16,2.16,0,0,0-.51.34c-.18.15-.44.34-.25.56s.45-.07.68-.15c.07,0,.09-.14.16-.2a2.75,2.75,0,0,1,.56-.46c.6-.28,1.22-.53,1.84-.8.3-.13.6-.29.91-.41a35.07,35.07,0,0,0,3.82-1.63,12.91,12.91,0,0,0,3.41-2.07s.13,0,.19-.06l.21-.08c0,.08,0,.18-.08.23A6,6,0,0,1,63.59,29c-.63.29-1.15.71-1.74,1-.19.11-.3.34-.18.46a1,1,0,0,0,.63.2c.13,0,.26-.14.4-.22.59-.34,1.16-.7,1.76-1,.26-.14.46-.43.81-.38a6.6,6.6,0,0,1-.76.64c-1,.57-2,1.08-3,1.57a31.23,31.23,0,0,0-3.75,1.63,12,12,0,0,0-2.18.7,14.33,14.33,0,0,0-3,1.25c-.18.11-.23.21,0,.4s.38,0,.51,0a6.07,6.07,0,0,1,.9-.63c1.12-.44,2.27-.8,3.4-1.24s2.35-1,3.55-1.39c.39-.14.85-.62,1.3,0,0,.05.24,0,.33,0,.27-.13.59-.16.77-.43a1,1,0,0,1,.41-.22s.15,0,.17.08,0,.16,0,.17c-.51.2-.88.63-1.45.72a3.55,3.55,0,0,0-.7.22c-1,.46-2,1-3.08,1.47s-2,.72-3,1.08c-1.26.45-2.56.82-3.81,1.3a2.4,2.4,0,0,0-1,.73c-.29.38,0,.36.15.46a.32.32,0,0,0,.51-.18c0-.35,0-.34.34-.5a6.58,6.58,0,0,1,1.55-.64c.74-.2,1.44-.51,2.16-.74A44.61,44.61,0,0,0,60,33.7c.37-.16.73-.34,1.1-.48.11,0,.34,0,.38,0s-.08.17-.2.24a6.74,6.74,0,0,0-.91.59c-.37.27-.69.61-1.08.86a3.49,3.49,0,0,1-1.43.71,16.23,16.23,0,0,0-2.1.57,12.51,12.51,0,0,0-2.89,1.23c-1.22.62-2.44,1.22-3.65,1.86a5.55,5.55,0,0,0-.88.65c-.08.08-.08.24-.12.37a1.29,1.29,0,0,0,.31.08,12.09,12.09,0,0,0,1.19-.28c.48-.14.95-.29,1.4-.47.73-.29,1.44-.61,2.16-.91a.71.71,0,0,1,.14,0s0,.13,0,.15a8.6,8.6,0,0,1-1.11.63c-1.35.59-2.72,1.14-4.07,1.71a3.24,3.24,0,0,0-.81.47.8.8,0,0,0-.31.55c0,.27.36.24.61.23a.65.65,0,0,0,.14,0l1.81-.56c.84-.25,1.67-.51,2.52-.74a4.27,4.27,0,0,1,.88,0l-.55.54s-.13.05-.18.1a8.93,8.93,0,0,1-2.74,1.09,16.91,16.91,0,0,0-2.49.83c-.18.1-.19.19-.16.3a.54.54,0,0,0,.7.36c1.16-.47,2.44-.52,3.62-.91.23-.08.58.18.64.42s0,.59-.36.69l-2.13.63c-.87.25-1.74.47-2.59.76-.45.16-1,.17-1.22.74-.05.14-.1.19,0,.31.35.34.76.22,1.14.14s1-.36,1.54-.5c.81-.21,1.63-.38,2.46-.56a1.07,1.07,0,0,1,.91,0,.6.6,0,0,0,.7-.08,6.44,6.44,0,0,1,.72-.54c.05,0,.16,0,.24,0s0,.18,0,.23a1.64,1.64,0,0,1-.31.28,8.49,8.49,0,0,1-2.13.83c-.74.24-1.55.34-2.28.63a24.72,24.72,0,0,1-3.4.92,6.36,6.36,0,0,0-1.36.55c-.14.06-.22.25-.33.38a4.3,4.3,0,0,0,.62.43.7.7,0,0,0,.43,0l1.72-.41c1.1-.26,2.21-.52,3.32-.76.32-.07.75,0,1-.12.53-.42,1.2-.25,1.76-.51a.21.21,0,0,1,.18.06s0,.16,0,.18a10.07,10.07,0,0,1-1.28.73c-1.06.32-2.1.68-3.16,1s-1.82.54-2.76.71a4.08,4.08,0,0,0-1.05.29c-.6.28-1.36.16-1.91.66-.15.14-.37.21-.31.45s.26.28.5.27.43,0,.64,0l-.59.37a2.46,2.46,0,0,1-.38.14,6.32,6.32,0,0,0-2.19,1.16c-.08.07-.19.23-.16.27a.52.52,0,0,0,.31.23,1.58,1.58,0,0,0,.65,0c.78-.26,1.56-.56,2.34-.83.45-.15.91-.26,1.36-.39l.08-.13a.34.34,0,0,1-.05.16c-.3.32-.69.3-1,.43-1,.4-2.1.77-3.12,1.22a4.38,4.38,0,0,0-1,.8c-.17.16-.1.59,0,.55s.4.35.64.08a1.27,1.27,0,0,1,.2.09s-.06.11-.11.13l-1.92,1c-.7.37-.83.45-1.51.83-.19.1,0,0,0,.19.34-.18.23,0,.58-.17.17-.09,0,0,.2,0l1.07-.5,2.79-1.32a4.32,4.32,0,0,1,1.65-.57c.08,0,.2-.24.22-.38s-.17-.16-.29-.15a1.41,1.41,0,0,0-.61.11c-.4.21-.93.06-1.28.43a.37.37,0,0,1-.34,0c-.18-.17-.31-.17-.48,0,0,0-.15,0-.18-.06a.2.2,0,0,1,0-.18,2.21,2.21,0,0,1,1-.6,27.82,27.82,0,0,1,2.77-1.19c1.19-.34,2.34-.8,3.52-1.16,0,0,.13,0,.14,0s.15-.31.22-.47a1.72,1.72,0,0,0-.38-.08c-.22,0-.39.27-.65.07-.08-.07-.27-.11-.32-.07-.32.27-.74.22-1.11.33a21,21,0,0,0-3,1,5.87,5.87,0,0,1-1,.32c-.07,0-.16-.06-.24-.09s.08-.15.14-.18a3.08,3.08,0,0,1,.54-.28c.8-.29,1.6-.57,2.41-.84l2.5-.8c.6-.19,1.18-.41,1.79-.57a1.91,1.91,0,0,1,.76,0c.21,0,.44-.27.69-.38A2.32,2.32,0,0,0,51,49.62c.05-.1.22-.15.36-.19s.19-.07.13.16c-.14.49,0,.61.52.44a2.56,2.56,0,0,0,.6-.29c.85-.56,1.69-1.14,2.56-1.69.07,0,.33-.31.42,0a.41.41,0,0,1-.17.37c-.24.15-.54.21-.79.36-.89.52-1.77,1.07-2.66,1.59a.46.46,0,0,0-.27.5c0,.25.18.35.43.34a.81.81,0,0,1,.22,0s0,.08,0,.13a.47.47,0,0,0,.66.48,5.19,5.19,0,0,0,.66-.35c.34-.22.67-.47,1-.68a1.89,1.89,0,0,1,.44-.14,2,2,0,0,1-.23.34,1.15,1.15,0,0,1-.27.21c-.35.26-.7.51-1,.78a.23.23,0,0,0,0,.24.49.49,0,0,0,.55.23c.26-.06.52-.15.78-.21s.34-.08.38,0c.25.33.61.21.93.23l.09-.13a.51.51,0,0,1,0,.17c-.29.2-.07.29,0,.37s.32.33,0,.54-.34.33-.51.48-.27.46-.1.51a5.34,5.34,0,0,0,.88.13,2.42,2.42,0,0,0,.45-.1,3.89,3.89,0,0,1-.32.39.76.76,0,0,1-.3.14,19.18,19.18,0,0,0-3.26,1.4,1.3,1.3,0,0,0-.31.31l.52.09c.05,0,.1-.1.16-.13l2.54-1c.18-.07.36-.11.55-.17-.14.15-.26.3-.41.44A1.13,1.13,0,0,1,56,56a7.68,7.68,0,0,0-1.3.7,19.23,19.23,0,0,1-3.26,1.58c-.78.42-1.61.76-2.41,1.16-.09.05-.18.29-.15.31a.62.62,0,0,0,.41.19,4.26,4.26,0,0,0,.76-.26,31.57,31.57,0,0,1,3.75-1.45,1.48,1.48,0,0,1,.3,0c0,.09-.08.23-.16.27a18.74,18.74,0,0,1-1.72.9c-.85.39-1.72.76-2.59,1.12a2,2,0,0,1,.65.09L52,59.87c.66-.28,1.27-.64,1.91-1,.45-.24.92-.48,1.35-.75.11-.07.14-.26.21-.39a1,1,0,0,0-.34-.13,2.71,2.71,0,0,0-.55.08l-1.16.19-.22.13,0-.09a.75.75,0,0,0,.22-.08c.69-.37,1.35-.7,2-1.06s1.28-.75,1.92-1.13c.1-.06.16-.2.26-.23a1.31,1.31,0,0,1,.39,0c-.05.09-.08.22-.16.28-.33.29-.67.56-1,.84-.16.13-.18.23,0,.39s.44.23.81,0c.59-.44,1.16-.91,1.74-1.37l.2-.15a.93.93,0,0,1,0,.33.48.48,0,0,1-.15.28c-.56.45-1.13.87-1.68,1.34a11.43,11.43,0,0,0-1.12,1.08.5.5,0,0,0,0,.46c.12.23.27.06.4,0a3.69,3.69,0,0,0,.55-.4,31.75,31.75,0,0,1,2.87-2.3s.07,0,.1-.05.05.14,0,.19-.09.1-.15.15l-2.17,1.72c-.47.37-.94.74-1.4,1.13-.06,0,0,.18-.11.23s0,.22.06.24a.73.73,0,0,0,.79-.07c.41-.37.85-.72,1.28-1.08s.64-.53,1-.78a.21.21,0,0,1,.2,0,.21.21,0,0,1,0,.19c0,.06-.09.1-.15.15-.9.76-1.26,1.21-2.15,2-.09.08.23,0,.21.11a27.87,27.87,0,0,1,3.43-1.09.19.19,0,0,1,0-.07s0,0,0,.06l1.64-.5a1.07,1.07,0,0,0-.33-1,.4.4,0,0,1,.09-.65,5.74,5.74,0,0,0,1.46-1.49,2.64,2.64,0,0,0,.32-2.48c-.06-.38-.42-.52-.5-.85-.14-.5-.14-1.06-.7-1.39-.15-.09,0-.34.2-.36a1,1,0,0,1,1.14.54,6.47,6.47,0,0,1,.6,1.28c.14.53.53,1,.55,1.54a2.94,2.94,0,0,0,.62,1.2.43.43,0,0,0,.36.14S67,55.06,67,55c0-.35,0-.69,0-1,0-.11.09-.21.14-.32.1.12.29.31.28.32-.23.24,0,.45,0,.67a10.21,10.21,0,0,0,.14,1.74,1.25,1.25,0,0,0,.32.57c.24.28.29.26.4-.1l.29-1.07.07-.18c0,.06.07.12.07.17,0,1,0,2.1-.07,3.13,0,.23,0,.36.15.42s.31-.11.35-.22c.13-.42.21-.85.31-1.27s.19-.85.29-1.27c0,0,.09-.09.13-.13s.16.12.15.17c0,.4-.11.79-.13,1.19a4.79,4.79,0,0,1-.27,2.05c0,.09.21.32.33.47a1.34,1.34,0,0,0,.22-.31c.11-.32.19-.66.3-1,.23-.7.49-1.39.71-2.08.07-.23.17-.42.42-.34A.74.74,0,0,1,72,57a1.34,1.34,0,0,1,0,.49c0,.37-.1.75-.15,1.12,0,.11-.06.21-.07.32-.08.52-.16,1-.21,1.58a.39.39,0,0,0,.2.32c.07,0,.23-.07.34-.14s0-.14.05-.18a7.07,7.07,0,0,0,.72-1.32,1.33,1.33,0,0,1,.21-.26,3.62,3.62,0,0,1,.22.32.17.17,0,0,1,0,.14c-.43.54.14,1.08,0,1.63,0,.06.2.22.34.25.34.1.54-.14.66-.39s.19-.61.3-.92a1.67,1.67,0,0,1,.21-.33c.12.08.29.13.37.24.26.4.48.83.73,1.24s.53.68.84,1.14c.09.14.07.11.25.13l.38.07a11.11,11.11,0,0,1-1.34-2.18,5,5,0,0,0-.91-1.17.86.86,0,0,0-.5-.17c-.31,0-.12.23-.18.35A4,4,0,0,0,74,60.41a.49.49,0,0,1-.11.23s-.13,0-.19,0,0-.06,0-.09c0-.57.09-1.14.09-1.7a1,1,0,0,0-.21-.54.39.39,0,0,0-.66,0,2.72,2.72,0,0,1-.29.3l-.19.21c0-.09-.12-.21-.09-.28a4.3,4.3,0,0,0,.14-1.47c0-.32.12-.12.22,0a1.73,1.73,0,0,0,.31.14l1.08.35a4.34,4.34,0,0,1,1.56,1.1c.77.69,1.47,1.45,2.18,2.19l1.22.73c-.69-.74-1.39-1.48-2.06-2.24a6.5,6.5,0,0,0-2.56-2.16c-.08,0-.13-.13-.2-.19-.62-.44-1.22-.89-1.84-1.32a13.72,13.72,0,0,1-3-2.4c-.33-.4-.7-.84-1.22-.85s-.84-.63-1.36-.77c-.21-.06-.44-.09-.66-.14a.93.93,0,0,1-.32-.1,5.61,5.61,0,0,1-.84-.85A1.39,1.39,0,0,0,63.93,50c-.31,0-.69.19-1,.09s-.45-.49-.71-.69a6.65,6.65,0,0,0-2.44-1.09,10.33,10.33,0,0,1-3.19-1.24c-.91-.6-.94-1.29-.19-2l.32-.28c.27-.26.53-.53.8-.78a2.78,2.78,0,0,0,.79-1c0-.08.19-.1.28-.16a1.44,1.44,0,0,1,.08.25c.06.37.09.75.15,1.12s.39.72.69.56c.57-.3.63.08.77.4a2,2,0,0,1,.15.29c.1.39.42.36.67.26s.59-.15.5-.54c0,0,.09-.1.14-.11s.14.07.14.1c-.08.56.34,1,.45,1.5a.56.56,0,0,0,.58.49c.36,0,.49-.22.58-.49s.1-.38.15-.57a2.12,2.12,0,0,1,.12-.2c.06.08.15.15.17.23a2.76,2.76,0,0,0,1,1.71.72.72,0,0,0,.94,0c.08-.11-.11-.38.19-.34.1,0,.19.21.27.34s.18.34.28.51a.65.65,0,0,0,.84.23c.39-.27.55,0,.75.21s.21.38.37.46a3.59,3.59,0,0,0,1,.31.69.69,0,0,0,.75-.32c.1-.16.31-.14.47,0a9.83,9.83,0,0,0,.88.83,8.21,8.21,0,0,0,1.42.92,1,1,0,0,0,1.45-.81c0-.22,0-.4-.25-.5-.08,0-.12-.14-.18-.21.09,0,.19-.08.26-.06a7.13,7.13,0,0,1,1.23.53,14.08,14.08,0,0,1,1.78,1.28c1.13,1,2.36,1.86,3.54,2.78a.88.88,0,0,0,.3.1c0-.09,0-.21-.07-.28a2.19,2.19,0,0,0-.42-.38c-.53-.39-1.1-.74-1.61-1.15-1-.82-2.06-1.67-3.08-2.5A3.46,3.46,0,0,0,73.79,49a1.9,1.9,0,0,1-1.14-.42,7.8,7.8,0,0,0-1.46-.84,30.7,30.7,0,0,1-2.86-1.28,14,14,0,0,0-2.7-1.19,3.16,3.16,0,0,1-1.8-1.22,4.71,4.71,0,0,0-.62-.72,1.07,1.07,0,0,0-1.64-.16c-.31.21-.51.15-.65-.1a7.87,7.87,0,0,0-1.51-1.7c-.08-.07-.27-.17-.28-.15a1.05,1.05,0,0,0-.25.37.61.61,0,0,0,0,.27c0,.33-.15.1-.23,0a1.09,1.09,0,0,1-.24-.24,2.71,2.71,0,0,0-2-1.16c-.24,0-.65-.23-.66-.37a1.24,1.24,0,0,0-.41-.75.41.41,0,0,1,.09-.61c.87-.51,1.73-1,2.63-1.51.65-.34,1.37-.56,2-.85.43-.19.83-.45,1.27-.61a6.94,6.94,0,0,0,2-1A10.26,10.26,0,0,1,64.67,34a8.23,8.23,0,0,0,2-1.67,7,7,0,0,0,1-1.21,5.18,5.18,0,0,0,1-2.74c0-.61-.09-1.21-.15-1.82,0-.08-.09-.15-.12-.23a3.15,3.15,0,0,1-.29-1.12,2.7,2.7,0,0,1,.69-1.67,5,5,0,0,0,.45-.58c.34-.49.63-1,1-1.48A1.23,1.23,0,0,0,70.36,20a9.56,9.56,0,0,1-.86-1.61,1.77,1.77,0,0,0-1.39-1.23c-.19,0-.36-.2-.55-.23s-.35-.22-.37-.48.19-.79,0-1.21a.34.34,0,0,1,.1-.29c.42-.37.84-.73,1.28-1.08a25.77,25.77,0,0,1,3.22-1.66,2.15,2.15,0,0,1,.73-.14,1.57,1.57,0,0,1-.25.48c-.17.16-.06.24,0,.29a.32.32,0,0,0,.29-.06c.11-.15.16-.35.27-.51a2.2,2.2,0,0,1,1.32-1.12,1.06,1.06,0,0,1,.25,0,.85.85,0,0,1,0,.23c-.33.59-.65,1.18-1,1.77a3.11,3.11,0,0,1-.31.43.31.31,0,0,1-.17-.1,1,1,0,0,1-.09-.24,1,1,0,0,0-.25.15.53.53,0,0,0-.16.29c0,.22-.07.48.2.6s.41,0,.55-.21.23-.33.36-.48a5.65,5.65,0,0,0,1.52-2.88.68.68,0,0,1,.15-.36,1.38,1.38,0,0,0,.46-.86c0-.07.13-.12.2-.18a2.27,2.27,0,0,1,.06.25c.06.46-.31.72-.56,1s-.28.61.09.77.22.29.17.36c-.44.69-.91,1.36-1.38,2a5.52,5.52,0,0,0-1,1.68.36.36,0,0,0,.1.32.37.37,0,0,0,.32-.06,3.54,3.54,0,0,0,.25-.52,2,2,0,0,1,.15-.43c.52-.77,1.05-1.53,1.59-2.29a.5.5,0,0,1,.39-.2.56.56,0,0,0,.57-.16,6.26,6.26,0,0,1,.66-.49c.1-.07.15-.32.36-.09s.23.23.08.42a6.48,6.48,0,0,0-.51.84.79.79,0,0,0-.06.45c0,.06.23.07.35.11a1.55,1.55,0,0,1,.22.12l-.17.16-1.44,1.33c-.26.25-.51.51-.77.75s-.63.56-.92.86c-.07.07,0,.24,0,.37.1,0,.23,0,.3-.1.27-.24.52-.49.77-.73l2.58-2.46a1.48,1.48,0,0,1,.21-.13,2,2,0,0,0,0,.26c0,.29.22.36.46.17a1.63,1.63,0,0,0,.27-.31c.17-.23.33-.47.51-.7,0-.05.13-.06.2-.1s0,.14,0,.19a7.56,7.56,0,0,1-.68,1C78,15.21,77,16.37,76,17.54a8,8,0,0,0-.71.83,1.7,1.7,0,0,0-.11.61c.17-.11.41-.17.5-.32a17.62,17.62,0,0,1,2-2.46l1.4-1.75c.31-.38.61-.78.93-1.15.06-.07.2-.09.3-.12s.07.18,0,.25a1.16,1.16,0,0,1-.2.4c-.19.22-.43.39-.61.6a1.52,1.52,0,0,0-.2.47,3.11,3.11,0,0,0,.68,0c.12,0,.21-.18.31-.28.26-.25.52-.5.78-.73a.42.42,0,0,1,.2-.05c0,.08.06.18,0,.23-.2.34-.39.69-.62,1A37.54,37.54,0,0,1,77,19.48c-.43.42-.82.86-1.23,1.3a.19.19,0,0,0,0,.19c.06.06.18.13.23.1a.74.74,0,0,0,.27-.23l2.17-2.34c.08-.09.18-.16.25-.25.54-.69,1.07-1.39,1.61-2.07.07-.1.16-.22.26-.23a2,2,0,0,0,1.32-1,2.64,2.64,0,0,1,.51-.49s.16,0,.25,0,0,.14,0,.18c-.34.47-.66.95-1,1.4a.5.5,0,0,0-.07.66c.17.22.07.29-.05.45a13.45,13.45,0,0,1-1.23,1.61c-.82.81-1.52,1.71-2.29,2.56-.47.52-1,1-1.44,1.52a.46.46,0,0,0-.12.23.41.41,0,0,0,0,.19.67.67,0,0,0,.15-.06,4,4,0,0,0,.61-.45c.85-.93,1.71-1.87,2.53-2.82.68-.79,1.31-1.61,2-2.42l1-1.21a1.79,1.79,0,0,1,.26-.2c0,.12.07.24,0,.33a4.2,4.2,0,0,1-.26.52c-.24.42-.5.83-.72,1.25s0,.44.32.37a.76.76,0,0,0,.35-.19c.2-.16.37-.38.58-.52s.33-.57.57-.31-.28.25-.42.4c-.85.91-1.74,1.78-2.62,2.66-.14.13-.28.25-.41.39L78.7,22.71a6.88,6.88,0,0,0-.54.54c-.06.09,0,.25,0,.38.16,0,.39.06.49,0,1.27-1,2.53-2,3.8-3,.66-.52,1.35-1,2-1.52a.85.85,0,0,1,.33-.05c0,.11,0,.25-.07.32-.47.44-.7,1-1.14,1.5-.67.73-1.21,1.57-1.92,2.29a6,6,0,0,0-.59.94c0,.08-.12.22-.17.22a.29.29,0,0,0-.33.4c.14.38.38,0,.58,0s.17-.16.26-.23l.61-.59a2.23,2.23,0,0,0,.19-.24l-.34,0a.72.72,0,0,0-.21,0c0-.08,0-.2.11-.23a2.64,2.64,0,0,0,1.12-1.22,1.07,1.07,0,0,1,.16-.14,13.15,13.15,0,0,0,2-2.57,1.24,1.24,0,0,1,.19-.21c.08.07.21.13.25.22s0,.22,0,.34c.06.52.48.7,1,.4l.35-.2a.2.2,0,0,1,.14,0c0,.2.16.46.07.6-.37.6-.8,1.17-1.23,1.74-.68.9-1.38,1.78-2,2.67a.78.78,0,0,0-.13.43,1,1,0,0,0,.06.32c.12-.07.29-.11.35-.21.23-.37.38-.78.63-1.13.74-1,1.51-2,2.27-3,.12-.16.25-.28.5-.13.06,0,.29-.1.41-.19a.72.72,0,0,1,.94-.07c.57.36,1.14.74,1.7,1.12a.24.24,0,0,1,.09.24c-.29.39-.6.78-.92,1.16a7.39,7.39,0,0,0-1.14,1.78c-.23.52,0,.87.58.84a1.75,1.75,0,0,0,1.11-.65,2.31,2.31,0,0,0,.24-.29,2.11,2.11,0,0,0-.45.09c-.26.13-.5.3-.76.43a2.65,2.65,0,0,1-.49.09,1.76,1.76,0,0,1,.18-.47,28.7,28.7,0,0,1,1.95-2.72c.41-.42.45-.49.91-.16a14.28,14.28,0,0,0,2,1.09,27.52,27.52,0,0,1,3.58,1.85,10,10,0,0,1,1.06.74c.38.34.7.75,1,1.11a.49.49,0,0,0,.21.08.67.67,0,0,0,0-.2,1,1,0,0,0-.14-.22,13.38,13.38,0,0,0-1.69-1.76,11.47,11.47,0,0,0-3.1-2,15.56,15.56,0,0,1-3.76-2.44,2.25,2.25,0,0,0-1.87-.73.51.51,0,0,1-.39-.08,8.8,8.8,0,0,1-1.29-1.3A3.49,3.49,0,0,0,86,17.45a1.28,1.28,0,0,1-.72-.71,1.68,1.68,0,0,0-.64-.78A1.63,1.63,0,0,1,84,15a3.94,3.94,0,0,1-.16-1,1.33,1.33,0,0,0-1.36-1.17h-.66c-.46,0-.6-.07-.59-.51a.78.78,0,0,0-.41-.74c-.25-.14-.63-.1-.81-.28s-.37-.41-.7-.41l-.08.13a.31.31,0,0,1,0-.17c0-.09,0-.2,0-.21a3.78,3.78,0,0,0-.8-.16c-.4,0-.74,0-.81-.52,0-.18-.41-.34-.63-.49a1.25,1.25,0,0,1-.65-.85,2.07,2.07,0,0,0-.44-1c-.31-.36.18-.7-.09-1,.3-.18.32-.55.53-.76a6.36,6.36,0,0,1,1.67-1.33c.35-.18.75-.29,1.11-.45l1.53-.7a1.66,1.66,0,0,1,1.74.25,3,3,0,0,0,.72.53,2,2,0,0,1,.85.84,3.65,3.65,0,0,0,.64.85c.62.5,1.45.74,1.92,1.43.78.15,1.17.8,1.7,1.24a21,21,0,0,0,2.88,2c.35.21.75.29.81.78,0,.12.29.2.44.3s.31.19.46.3l1.68,1.32a.49.49,0,0,1,.1.15.71.71,0,0,1-.2,0c-.28-.09-.56-.17-.83-.28A7.32,7.32,0,0,1,92,12.48a11.2,11.2,0,0,1-2-1.76c-.58-.67-1.36-1.07-2-1.68-.16-.15-.52-.14-.79-.18-.06,0-.12,0-.19.07a.85.85,0,0,1,.19.06,11.63,11.63,0,0,1,2.57,2,4.39,4.39,0,0,0,1.48,1.14c.06,0,.09.09.14.14s-.14.08-.19.06a1.19,1.19,0,0,0-.91,0,.49.49,0,0,1-.43-.14c-.24-.26-.42-.58-.66-.84-.56-.62-1.14-1.22-1.72-1.81a.69.69,0,0,0-.35-.2,1.28,1.28,0,0,0-.39,0c.06.11.09.25.18.32s.37.1.48.21c.55.58,1.06,1.2,1.61,1.79s.91,1,1.39,1.46a4.51,4.51,0,0,0,.61.44s.13,0,.2,0,0-.1-.07-.15-.11-.09-.15-.14l-.28-.35.44.11.06,0c.82.51,1.65,1,2.47,1.53,0,0,0,.12,0,.18a.13.13,0,0,1-.11.06,2.13,2.13,0,0,1-.45-.13c-.62-.27-1.22-.56-1.83-.83-.11,0-.29-.13-.35-.08-.27.18-.43,0-.61-.13l-1.54-1.33a1,1,0,0,0-.83-.26c-.09,0-.17.13-.26.2a1.63,1.63,0,0,0,.25.1,3,3,0,0,1,1.47,1c.57.58,1.13,1.18,1.71,1.75a1.76,1.76,0,0,0,.5.22c-.08-.13-.16-.26-.25-.38s-.11-.1-.14-.15,0-.13,0-.19l.16.05a7.91,7.91,0,0,1,2.18,1.52.75.75,0,0,1,.09.15c-.07,0-.15.05-.2,0a7,7,0,0,1-.79-.35,2.53,2.53,0,0,0-1.4-.47,1.61,1.61,0,0,0-.35.12c.06.14-.09.29.16.45a8.82,8.82,0,0,1,1.21,1.08.36.36,0,0,1,.07.1.65.65,0,0,1-.19,0,.42.42,0,0,1-.25-.09,3.89,3.89,0,0,0-1.11-.8,1,1,0,0,1-.49-.77,13.72,13.72,0,0,0-.51-1.53c0-.05-.1-.08-.15-.12s-.07.13,0,.19a12,12,0,0,0,.42,1.64c.26.66.64,1.27,1,1.91a4.56,4.56,0,0,1,.18.52L90.81,18c-.13-.08-.26-.26-.4,0a.58.58,0,0,0-.09.42,1.14,1.14,0,0,0,.25.38c.38.51.79,1,1.13,1.51a2.84,2.84,0,0,0,2,1.44,1.9,1.9,0,0,0,.53,0c-.13-.13-.25-.26-.39-.38l-.17-.11a3.3,3.3,0,0,1-1.33-1.15c-.1-.17-.31-.3.09-.41.23-.07.27-.3.11-.56A7.52,7.52,0,0,1,92,18c0-.06,0-.13,0-.19a.48.48,0,0,1,.16.08,2,2,0,0,0,1.06.57.46.46,0,0,0,.33-.11,1.53,1.53,0,0,0-.14-.64A6,6,0,0,0,93,17.1c-.09-.14-.15-.29-.23-.44a2.64,2.64,0,0,1,.5.15c.59.31,1.17.66,1.77,1,.25.14.42,0,.47-.22a.54.54,0,0,0-.25-.53L94,15.8c-.05-.05,0-.16-.05-.24s.18,0,.24,0,.17.18.27.23a2,2,0,0,0,1.14.41c.31,0,.22-.2.21-.33s-.11-.14-.18-.21a12.94,12.94,0,0,0-2.19-1.84s-.06-.14-.09-.21l.2.07a7.69,7.69,0,0,1,1.91,1,1.65,1.65,0,0,0,.47.25c.14,0,.39,0,.45-.07a.44.44,0,0,0,0-.44c-.48-.53-1-1.06-1.5-1.55s-.91-.7-1.36-1.06a.58.58,0,0,1-.13-.14.68.68,0,0,1,.27,0c.1,0,.18.13.28.18a14,14,0,0,0,1.65.91c.83.33,1.69.58,2.55.84a11.38,11.38,0,0,0,2.1.54,5.32,5.32,0,0,1,3.13,1.39c.4.37.87.66,1.32,1a2.41,2.41,0,0,1,.94,1.21,3.54,3.54,0,0,0,.66,1.13c.11.17.25.32.36.49.28.44.56.88.82,1.34a8,8,0,0,1,.65,1.27c.16.45.09,1,.39,1.38,0,0,0,.09,0,.09s-.11.05-.13,0l-.37-.31a2.48,2.48,0,0,0-.43-.37c-.07,0-.22,0-.33,0a.91.91,0,0,0,.18.21,3.53,3.53,0,0,1,1.28,1.7c0,.16,1.75,1.43,1.82,1.59a18.17,18.17,0,0,1,.51,2c.1.32,0,.3-.26.24a4.66,4.66,0,0,0-.82-.13,1.73,1.73,0,0,0-.43.12,1.19,1.19,0,0,0,.22.38,17.31,17.31,0,0,0,1.38,1.19c.25.17.11.18,0,.22a2.52,2.52,0,0,0-.7.25.92.92,0,0,0-.28.62c0,.27.31.33.55.35s.67,0,1,.08a17.33,17.33,0,0,1,2,.26,2.38,2.38,0,0,1,1.88,1.06c.2.36.46.71.69,1.06.08.13.09.16-.11.16a4.22,4.22,0,0,1-2.06-.77A9.63,9.63,0,0,0,111.21,32a11.46,11.46,0,0,0-2.39-.33,7.91,7.91,0,0,1-1.08-.11c-.33-.06-.69-.06-.77.24s.35.48.57.59c1,.49,2.07.94,3.13,1.35a2.6,2.6,0,0,1,1,.74c.08.09.14.2-.09.16a13.82,13.82,0,0,1-1.72-.37l-.76-.57a4.79,4.79,0,0,0-1.86-1c-.35-.08-.56.08-.48.41a1.82,1.82,0,0,0,.11.3,2,2,0,0,1-.41-.1,8.69,8.69,0,0,0-.81-.4c-.13-.05-.3,0-.45,0,0,.16.08.31.13.45a.32.32,0,0,0,.13.15c.31.2.62.4.91.61.05,0,.06.1.09.16s-.15.08-.22.07a1.13,1.13,0,0,1-.33-.13c-.52-.26-1-.55-1.56-.78s-.68,0-.67.44a1.1,1.1,0,0,0,.06.26c0,.16.11.23-.17.23a4,4,0,0,1-2.2-.57c-.39-.24-.84-.35-1-.19-.25.32.06.57.19.82.22.41.33.45.69.18.12-.1.12-.15.21,0s.12.07.18.1a5.88,5.88,0,0,0,2.11.31c.51,0,.63-.16.7-.75a.29.29,0,0,1,.23-.14A9.59,9.59,0,0,0,106,35a1.43,1.43,0,0,0,1.13,0c.07,0,.25,0,.13-.22a2.48,2.48,0,0,1-.15-.55c.15.08.29.17.45.24s.28.09.41.15a5.84,5.84,0,0,0,1.32.52c.22,0,.6.34.84-.07,0-.07.34,0,.51,0a12.85,12.85,0,0,0,1.36.15c.36,0,.43-.16.34-.49-.19-.65-.15-.68.52-.52l.21.07,2,.65c.13.05.24.13.37.19l-.38.08c-.13,0-.27,0-.4,0a17,17,0,0,0-2.7.35c-.85.26-1.72.37-2.56.65a9.54,9.54,0,0,0-1.9.86.29.29,0,0,0-.09.16.51.51,0,0,0,.23.14c.06,0,.14,0,.21-.09a8.35,8.35,0,0,1,2.73-1c.79-.16,1.58-.32,2.37-.44.64-.11,1.28-.17,1.92-.23.09,0,.22.13.28.23s-.06.21-.14.24a1.94,1.94,0,0,1-.58.17,10,10,0,0,0-4.14,1.28c-.19.11-.37.19-.32.45.19,0,.44,0,.56-.12a5.12,5.12,0,0,1,2-.89,5.76,5.76,0,0,1,1.24-.3,4.28,4.28,0,0,0,1.51-.25.38.38,0,0,1,.21,0c.54.17.92.73,1.58.61.07,0,.18.19.27.28-.09,0-.19.15-.28.14a18.16,18.16,0,0,0-4,.59c-.16,0-.3.19-.44.29s-.28.13-.09.28a.33.33,0,0,0,.26,0,8.82,8.82,0,0,1,2.49-.61c.55-.08,1.09-.21,1.64-.31a2.78,2.78,0,0,1,2.29.2c.47.18.87.56,1.42.48.06,0,.14.13.21.2-.09.06-.18.17-.28.18s-.46-.08-.67,0c-1.35.17-2.7.33-4,.55a11.36,11.36,0,0,0-1.69.52c-.09,0-.23.16-.21.21a.68.68,0,0,0,.26.3.26.26,0,0,0,.24,0,3.57,3.57,0,0,1,2.07-.74c.49,0,1-.24,1.45-.3s1,0,1.53-.09a5.86,5.86,0,0,0,1.64-.24,1.4,1.4,0,0,1,1.15,0c.12.05.24.13.37.19a3,3,0,0,1-.37.28c-.07,0-.18,0-.26,0-.7.15-1.39.26-2.11.35-1.26.15-2.5.48-3.74.75a1.27,1.27,0,0,0-.33.2.93.93,0,0,0,.31.22,3.46,3.46,0,0,0,.46,0c.55.08,1-.26,1.43-.39,1.06-.3,2.19-.39,3.28-.61a1.89,1.89,0,0,1,1.52.16,5.73,5.73,0,0,0,1,.34s0,.11,0,.17a.14.14,0,0,1-.09.09,4.89,4.89,0,0,0-1.33.13,17.16,17.16,0,0,0-2.16.41.94.94,0,0,0-.53.3c-.07.09-.29.32,0,.45s.4.25.48-.12a.5.5,0,0,1,.31-.31c1.24-.27,2.48-.55,3.74-.75.28,0,.62.19.92.31.06,0,.08.12.11.18l-.18,0a5.93,5.93,0,0,0-2.34.73c-.18.09-.4.11-.58.19a3.79,3.79,0,0,0-.67.42s0,.22,0,.3a.69.69,0,0,0,.82.18,4.17,4.17,0,0,0,.44-.29l-.52-.29q-.13.19-.27.36s-.09,0-.13.06,0-.1,0-.13a4.27,4.27,0,0,1,.37-.33c1.07-.32,2.1-.6,3.12-.92a1,1,0,0,1,1.2.19.59.59,0,0,0,.4.15c.59,0,1.15.29,1.76.18.2,0,.46.13.69.22a.24.24,0,0,1,.08.21c-.23.51-.18.62.33.8s.83.3,1.25.42a1.12,1.12,0,0,1,.84.85,1,1,0,0,0,.46.64c.77.58,1.47,1.25,2.2,1.88a16.43,16.43,0,0,0,1.78,1.46A33.49,33.49,0,0,1,139.1,51c.8.62,1.51,1.36,2.26,2a1.77,1.77,0,0,0,.39.26c.14.09.32.12.43.23a15.82,15.82,0,0,0,2.39,1.76A5.18,5.18,0,0,1,141.45,55.51Zm-35.76-2.06c-.17,0-.2,0-.2,0,0-.22-.35-.4-.09-.65a.19.19,0,0,1,.13,0C105.6,53,105.92,53.17,105.69,53.45ZM104,51.1l-.29.2c-.36.11-.32-.1-.28-.22s.21-.12.33-.12S103.93,51.05,104,51.1ZM101.22,48a1,1,0,0,1-.25,0,2.36,2.36,0,0,1,0-.46s.18-.07.25,0a2.19,2.19,0,0,1,1.13.73,1.2,1.2,0,0,1,.07,1.19c-.09.23-.09.48-.32.64s-.34,0-.26-.17a3,3,0,0,0,.26-1.28C102.09,48.09,101.76,47.86,101.22,48ZM97.6,41.4c0,.05-.15.07-.23.11a.75.75,0,0,1-.08-.24c0-.11,0-.21.07-.32s.21-.39.32-.1A.91.91,0,0,1,97.6,41.4Zm-1.07-1.11-.34.24a.65.65,0,0,1,.18-.38Zm-43-18H53.4a2.53,2.53,0,0,1,0-.28A.25.25,0,0,1,53.53,22.33Zm-3.81,3.21c-.16.12-.32.22-.49.33a.33.33,0,0,1-.29-.1l.67-.51a.6.6,0,0,1,.14.14A.14.14,0,0,1,49.72,25.54Zm-5.78.78-.19,0c-.1,0-.13.08-.15.13a.53.53,0,0,1,0-.13,1,1,0,0,0,.3-.13Zm-.61,2.1a.37.37,0,0,1-.21,0,2,2,0,0,1-.31-.08c.1-.06.18-.16.28-.19a24,24,0,0,0,2.67-1.07c.27-.1.52-.34.84-.11C45.46,27.51,44.4,28,43.33,28.42Zm2.26-.17.06-.08C45.68,28.24,45.63,28.24,45.59,28.25ZM44.11,29s0,.1-.07.11l-.77.1.63-.38C44.07,28.92,44.1,29,44.11,29Zm-5,.86a2.2,2.2,0,0,1-.38.24c-.65.24-1.31.45-2,.68A34.31,34.31,0,0,0,33,32c-.68,0-1.26.37-1.92.43a.38.38,0,0,0-.16.13s0-.08,0-.13a6,6,0,0,1,2.07-.8c1.82-.64,3.68-1.14,5.52-1.7.07,0,.11-.13.16-.13A3.87,3.87,0,0,1,39.14,29.89Zm-2.21,2.76c0,.07-.08.17-.14.19l-2,.75c-.08,0-.15.09-.23.13-.75.19-1.34.39-1.94.56l-2.8.76c-.39.11-.77.25-1.16.34a1.44,1.44,0,0,1-.44-.07,1.78,1.78,0,0,1,.36-.19c.65-.22,1.32-.42,2-.65.92-.3,1.82-.63,2.74-.91s2.15-.64,3.22-.94a.54.54,0,0,1,.22,0ZM39,34.77c-.23.06-.4.33-.69.16,0,0,0,0,0,0a.12.12,0,0,1,.05,0,3.49,3.49,0,0,1,.62-.25A.77.77,0,0,1,39,34.77ZM34,37c-.33.15-.64.31-1,.43-2,.7-3.92,1.4-5.89,2.07-.85.28-1.77.41-2.6.74s-1.72.51-2.54.86c-.41.18-.66-.2-1,0,0-.06,0-.17.05-.19A31.59,31.59,0,0,1,25.45,39c1.55-.46,3.08-1,4.63-1.44S33.31,36.5,34.94,36c1-.29,1.91-.53,2.87-.79l.16,0c0,.07,0,.19-.08.21-.21.09-.43.15-.64.22a1.52,1.52,0,0,0-1.09.38A7.34,7.34,0,0,1,34,37Zm1.5.21-.06.23a.34.34,0,0,1,0-.25Zm-.76.48s-.15-.08-.15-.1a1.51,1.51,0,0,1,.13-.29A.76.76,0,0,1,34.72,37.73Zm-1.83.58a.79.79,0,0,1-.16-.08l.19-.06,1-.42c.27-.2.41-.17.36.07s-.44.39-.71.48A2.47,2.47,0,0,1,32.89,38.31Zm.55.33c0,.08,0,.2-.08.22a2.41,2.41,0,0,1-.59.14,8.42,8.42,0,0,1-.87,0,.6.6,0,0,1-.19-.06l.24-.08.19-.07c.41-.13.79.08,1.11-.2C33.27,38.57,33.37,38.62,33.44,38.64Zm-2-.13c-.06.06-.11.16-.19.19-.75.29-1.49.58-2.25.86l-3.66,1.3-3.53,1.27c-.7.3-1.33.53-2,.77-.08,0-.15.13-.23.13a.91.91,0,0,1-.3-.11c.06-.05.1-.12.16-.16a13.5,13.5,0,0,1,3.42-1.53l2.68-.88,5.67-1.9C31.26,38.44,31.33,38.49,31.4,38.51Zm-7.56.6a1.52,1.52,0,0,1,.15-.34,1.2,1.2,0,0,1,.3-.15A26.16,26.16,0,0,1,28.52,37c1.66-.49,3.32-1,5-1.43.35-.09.64-.36,1.05-.28l.19.06c-.07,0-.16,0-.21.1a3.7,3.7,0,0,0-.21.33c-1.25.49-2.42.93-3.61,1.31s-2.62.8-3.92,1.22a23.44,23.44,0,0,0-2.61.86A.85.85,0,0,1,23.84,39.11Zm12-4.36.43,0a1.74,1.74,0,0,1-.41.16A1.24,1.24,0,0,0,35.8,34.75Zm12.72-3.34c0-.08.13-.28.25-.37a8.77,8.77,0,0,0,1.3-1c.31-.37.89-.73.51-1.37,0-.06,0-.21.1-.28s.44-.43.67-.64a.32.32,0,0,0,.16-.13v.13a2,2,0,0,0-.23.57,5.91,5.91,0,0,1-.87,1.87c-.41.54-.82,1.06-1.24,1.58a12,12,0,0,1-2.25,2,1.82,1.82,0,0,1-.25.07c0-.09,0-.23,0-.28.44-.39.9-.75,1.33-1.14S48.73,31.93,48.52,31.41Zm-7.6,7.41c.06-.07.1-.17.17-.2.59-.24.89-.81,1.51-1.06a5.79,5.79,0,0,0,1.24-1,.59.59,0,0,1,.2-.06.87.87,0,0,1,0,.19l-.31.44a5.4,5.4,0,0,1-1.8,1.3c-.22.11-.4.31-.62.43S41,38.83,40.92,38.82Zm.28,1.23a.28.28,0,0,1-.3.13v-.13Zm2.86-2L44,38C44.05,37.93,44.05,38,44.06,38Zm-3.5,2.54c0,.06-.09.12-.09.19,0,.25-.11.26-.3.13,0-.19.1-.25.15-.28A1,1,0,0,1,40.56,40.56Zm.9,5c0,.12,0,.25,0,.37l-.28.26c0-.07-.09-.14-.08-.2a.34.34,0,0,1,.1-.23A3.13,3.13,0,0,1,41.46,45.58ZM64,18.52a1.88,1.88,0,0,1-.36.33c-.31.22-.63.43-.95.63-.41.46-1,.25-1.34.49,0,0-.11,0-.11-.07a.21.21,0,0,1,0-.18.77.77,0,0,1,.36-.16c.63,0,1-.41,1.52-.66a4.23,4.23,0,0,1,.4-.24A3.73,3.73,0,0,1,64,18.52Zm-2.85,2c0,.72-.65.91-1.09,1.19-1.15.76-2.39,1.41-3.6,2.11-.31.18-.6.4-.91.6a.37.37,0,0,1-.15,0c0-.06,0-.15,0-.19a4,4,0,0,1,.56-.53c.45-.32.91-.6,1.37-.89s.85-.63,1.24-.91c.65-.47,1.28-.95,1.94-1.42a1.4,1.4,0,0,1,.51-.17C61.17,20.37,61.12,20.42,61.13,20.56ZM65,21.77l-.23-.07.14-.13C64.94,21.59,64.94,21.68,65,21.77ZM67,31.42,67,31.5C67,31.43,67,31.42,67,31.42Zm-1.47-1.35a1.92,1.92,0,0,1,.45-.29.7.7,0,0,1,.29,0c0,.12,0,.26-.09.35a1.4,1.4,0,0,1-.34.21.84.84,0,0,1-.41,0C65.5,30.25,65.51,30.13,65.57,30.07Zm-.23-1.24c.07-.09.15-.16.23-.25l.17.21A.87.87,0,0,1,65.34,28.83ZM66.07,31c.22-.16.43-.33.66-.48a.41.41,0,0,1,.15-.07c0,.07,0,.15,0,.19-.18.23-.37.45-.56.67a2.44,2.44,0,0,1-.7,0ZM64.24,32.7c-.4.33-1,.33-1.3.84,0,0-.13-.12-.12-.13a2.06,2.06,0,0,1,.4-.51,6,6,0,0,1,.84-.43C64.22,32.55,64.27,32.68,64.24,32.7ZM54.09,46.14s.17.1.25.16a.29.29,0,0,0,.14.15h-.14c-.44.28-.88.65-1.34,1a1.67,1.67,0,0,1-.5.19l-.6.14-.13,0a.38.38,0,0,1,0-.15c.06-.07.12-.16.2-.19A8.88,8.88,0,0,0,54.09,46.14Zm-.8-6.07c-.37,0-.51.22-.66.49s-.55.33-.85.38a18.63,18.63,0,0,0-2.22.6c-.56.16-1.11.35-1.67.51-.07,0-.17,0-.26,0s.11-.16.19-.19c.83-.34,1.67-.65,2.48-1s1.58-.73,2.36-1.1c.35-.28.49-.06.68.08S53.36,40.07,53.29,40.07Zm-.21-1.59c-.62.19-1.22.44-1.82.66s-1.21.47-1.82.69c-.09,0-.22,0-.33,0a1,1,0,0,1,.22-.23l2.75-1.39c.68-.41,1.39-.53,1.94-.9.34-.22.51.12.79.08a1.6,1.6,0,0,1,.55.12,2.83,2.83,0,0,0-.47.29A5.29,5.29,0,0,1,53.08,38.48Zm1.84-1.43s-.12-.07-.13-.11.05-.15.09-.15a8.06,8.06,0,0,0,1.93-.56.92.92,0,0,1,.37,0s0,.05.06.08,0,0-.05,0c-.5,0-.77.45-1.24.49A4.89,4.89,0,0,1,54.92,37.05ZM51.7,43a1.32,1.32,0,0,1-.34.2c-1,.19-1.93.38-2.89.55-.08,0-.18,0-.26-.06a1,1,0,0,0,.18-.07,1.53,1.53,0,0,1,1-.29,1.47,1.47,0,0,0,.52-.13c.57-.13,1-.3,1.42-.4C51.42,42.75,51.57,42.9,51.7,43ZM51.54,45c0,.13,0,.28-.06.37a.69.69,0,0,1-.34.2,5.53,5.53,0,0,1-1.23.35,23.42,23.42,0,0,0-3.11.73c-.11,0-.21.1-.31.11a1.14,1.14,0,0,1-.32-.07c.07-.07.12-.16.21-.19a5.66,5.66,0,0,1,.59-.15c1-.42,2-.54,2.9-.92A6,6,0,0,0,51.2,45C51.27,45,51.43,45,51.54,45Zm-.89,2.21a.36.36,0,0,1-.08.15,4.71,4.71,0,0,1-1.84,1,8.46,8.46,0,0,0-2.35.64c-.21.12-.48,0-.74.13a6.34,6.34,0,0,1-1.46.16.49.49,0,0,1-.2-.05c.05,0,.08-.12.13-.14a1.83,1.83,0,0,1,.5-.21c1-.2,1.89-.44,2.83-.71l1-.27.6-.14c.58-.18,1-.37,1.45-.54C50.51,47.2,50.59,47.23,50.65,47.23Zm-.12,2.39a3.79,3.79,0,0,1-.62.35,9.43,9.43,0,0,1-.9.29,5.4,5.4,0,0,0-2,.68,14.3,14.3,0,0,0-3.29.83,3.1,3.1,0,0,1-1,0s-.1-.05-.15-.08l.19-.05a12.16,12.16,0,0,0,1.49-.43c1.15-.48,2.42-.55,3.59-1,.66-.22,1.33-.42,2-.6A3.54,3.54,0,0,1,50.53,49.62Zm4.92,2.18a.49.49,0,0,0,0,.12.32.32,0,0,0-.16.14c0-.05,0-.09,0-.14A.31.31,0,0,0,55.45,51.8Zm.38-1.68a8.07,8.07,0,0,1,1.59-1,.61.61,0,0,1,.24,0c0,.1,0,.24-.08.28-.46.33-.94.63-1.41.94a3.71,3.71,0,0,0-.5.08C55.72,50.27,55.77,50.19,55.83,50.12Zm-.14-.87a.85.85,0,0,1,0-.23c0-.06.1-.1.15-.15,0,.13.06.21,0,.25A.74.74,0,0,1,55.69,49.25Zm2,3.73a.23.23,0,0,1-.12.06c-.19,0-.52.12-.54.08-.17-.32.22-.25.35-.35a10.85,10.85,0,0,1,1.14-.7c.51-.4,1-.72,1.38-1,.08-.06.13-.15.21-.19a2.35,2.35,0,0,1,.35-.11c0,.1-.07.19-.09.29a1.2,1.2,0,0,1-.72.79C59,52.16,58.34,52.58,57.68,53Zm1.63.34-.15.07C59.21,53.27,59.26,53.29,59.31,53.32ZM62,58.17s.11-.08.16-.13c0,.15,0,.25,0,.3s-.26.1-.28.07S61.8,58.18,62,58.17Zm1.22-2.94a.42.42,0,0,1,.15-.07c0,.06,0,.15,0,.18-.28.33-.57.64-.86,1a.14.14,0,0,1-.06-.2C62.7,55.8,63,55.52,63.22,55.23Zm-.33-2.75V52.2a.89.89,0,0,0,.11-.38.67.67,0,0,1,.1.23.39.39,0,0,1,0,.26A.71.71,0,0,1,62.89,52.48Zm-.29,1.67a.32.32,0,0,0-.08.21c-.05,0-.15-.13-.14-.15l.26-.3C62.63,54,62.61,54.07,62.6,54.15ZM63.86,54l.12.12-.21.16A.31.31,0,0,1,63.86,54Zm2.9-.56a.34.34,0,0,1,0,.2c-.07.16-.16.32-.24.47-.24-.12-.17-.34-.19-.54a4.85,4.85,0,0,0-.16-.63c-.08-.31-.17-.62-.24-.93,0,0,.12-.08.19-.09.42-.08.54.31.79.48a3.49,3.49,0,0,1,.33.32c.21.27.16.41-.21.44S66.73,53.25,66.76,53.45Zm3.7,1.64a4.37,4.37,0,0,1-.48-.25,5.92,5.92,0,0,1-1.8-1.5,2.39,2.39,0,0,1-.2-.57l.46.27c.21.15.36.21.47.31l1.48,1.41a.77.77,0,0,1,.16.15,1.74,1.74,0,0,1,.1.19C70.59,55.1,70.51,55.12,70.46,55.09Zm.54.8c.29.39-.19.53-.15.81-.08,0-.21,0-.23-.07a6.85,6.85,0,0,1-.2-.81s.13-.14.16-.13A2.3,2.3,0,0,1,71,55.89Zm-.91-.45s0,.07,0,.1a1.21,1.21,0,0,0-.5.2.54.54,0,0,0-.1.2.64.64,0,0,1-.06-.18c0-.25,0-.5,0-.75ZM68,54c.1.05.24.07.29.15a1.11,1.11,0,0,1,.08.89,2.77,2.77,0,0,1-.21.61l-.09-.56c0-.28-.1-.56-.14-.84A.59.59,0,0,1,68,54Zm3.43,1.6a.32.32,0,0,1,.26,0l0,.08Zm.88.69c.32-.12.88.3.87.52a.3.3,0,0,1-.17,0ZM57.46,42.5c.06-.09.12-.19.19-.28a.22.22,0,0,1,.05.11c0,.14,0,.33-.22.29C57.43,42.53,57.45,42.52,57.46,42.5ZM59,42.28c.06-.09.15-.33.35-.09s.34.33.51.5a5,5,0,0,1-.36,1.73c0,.06-.1.09-.15.14s-.07-.12-.07-.18A5.24,5.24,0,0,0,59,42.62.44.44,0,0,1,59,42.28Zm1.46,1.48s.13-.11.21-.17c.26.25.44.43.63.6s.22.24,0,.44a3.71,3.71,0,0,0-.36.75l-.24-.77C60.68,44.33,60.57,44.05,60.49,43.76ZM62.3,45c0-.18-.07-.35,0-.38s.19,0,.25.17a1.42,1.42,0,0,0,.41.4c.14.13.44.27.42.36A6.09,6.09,0,0,1,63,46.69s-.12.06-.14,0-.18-.17-.16-.2C63,45.91,62.48,45.48,62.3,45Zm.73-.42-.89-1a.32.32,0,0,1,0-.18c.08,0,.18-.1.26-.07a1.63,1.63,0,0,1,.91.68c.18.28.41.53.6.8a.92.92,0,0,1,.09.28,1.24,1.24,0,0,1-.29-.1C63.44,44.85,63.24,44.7,63,44.56Zm1.18.7c.12.07.29.11.34.2.23.48.22.51.6.49a2.25,2.25,0,0,1,1.76.65.89.89,0,0,0,.65.19c.17.05.24.15.22.17a1.61,1.61,0,0,0-.44,1.15c0,.07-.08.14-.12.2s-.16-.1-.16-.15c0-.6-.45-1-.74-1.45-.19-.29-.35-.12-.47,0s-.11.33-.21.47c-.24.33-.43.35-.65,0a7.48,7.48,0,0,1-.56-1.09,3.73,3.73,0,0,1-.22-.61A1.31,1.31,0,0,1,64.21,45.26Zm8,3.74a1.47,1.47,0,0,1-1.39-.47c-.16-.18-.31-.4-.65-.37-.11,0-.25-.2-.35-.32s0-.13,0-.19a.8.8,0,0,0,.16.08l.39.1c.68.34,1.29.62,1.89.9.06,0,.1.11.16.17S72.31,49,72.24,49Zm.5.29a1.51,1.51,0,0,1,1.37.81c.1.26-.1.42-.27.57s-.54.09-.69,0a13.94,13.94,0,0,1-1.33-.95s-.1-.13-.08-.16a.35.35,0,0,1,.19-.12C72.2,49.37,72.47,49.33,72.74,49.29Zm-2.66-.47c0,.13-.66.31-.83.27-.41-.1-.52-.48-.72-.75a2.92,2.92,0,0,1-.35-.83,2.83,2.83,0,0,1-.06-.42,1.18,1.18,0,0,1,.49.15c.4.34.77.71,1.14,1.07C69.92,48.53,70.08,48.67,70.08,48.82ZM67.75,28.35c0,.08,0,.16,0,.23a.21.21,0,0,1-.21-.07Zm-.22-2s.09,0,.09,0l-.06.22A.34.34,0,0,1,67.53,26.39ZM68,27.47h.15a.34.34,0,0,1,.07.2l0,.6s-.1,0-.1,0Zm.07-9.66c.08,0,.09,0,.09.06A.47.47,0,0,1,68.07,17.81Zm.34.24s0,0,0,0l.05,0a.72.72,0,0,1,.12.31s-.09,0-.1,0Zm1.3,2.77a1.44,1.44,0,0,1-.68,0s-.06-.24,0-.36a4.52,4.52,0,0,1,.12-.64.87.87,0,0,1,.15-.24l.14.19.29.57C69.54,20.59,70,20.73,69.71,20.82Zm.18-.84L70,20C69.9,20.07,69.89,20,69.89,20ZM73,13.91,73,14C72.94,13.92,73,13.92,73,13.91Zm3.08-2.5c.2-.3.41-.58.63-.86,0,0,.13,0,.19,0a.38.38,0,0,1-.05.15c-.13.22-.27.44-.41.66l-.27.27C76.17,11.55,76.09,11.45,76.11,11.41ZM78.22,13a.68.68,0,0,1,.07-.2,4.33,4.33,0,0,1,.42-.52.37.37,0,0,1,.34,0c.23.11,0,.2-.06.28l-.25.24a1.27,1.27,0,0,1-.3.21A.81.81,0,0,1,78.22,13Zm2.17-.94s0,0,0,0l0,0a.86.86,0,0,1,.12.3h-.1C80.46,12.3,80.43,12.19,80.39,12.08Zm2,1.6.29-.24c0,.06.13.11.14.18a.64.64,0,0,1-.07.24A.83.83,0,0,1,82.39,13.68ZM83,15.31l.14-.27c.1,0,.15.05.14.09a1.15,1.15,0,0,1-.12.25Zm.82,1.46-.23-.07a1.84,1.84,0,0,1,.15-.28.68.68,0,0,1,.2.07l.3.14c.1.11.16.13.16.17s0,.11-.06.11ZM84,18.25a3.37,3.37,0,0,1-1.12,1.5,9.89,9.89,0,0,0-1.08.88L80,22.14a.42.42,0,0,1-.2.05.26.26,0,0,0-.14.14.86.86,0,0,0-.24.28l-.11-.05.2-.23a.29.29,0,0,0,.15-.14,10.92,10.92,0,0,0,.84-.8c.65-.62,1.32-1.22,2-1.86.43-.44.82-.92,1.23-1.39a.64.64,0,0,1,.2-.11C83.93,18.1,84,18.2,84,18.25Zm.76-.75a.48.48,0,0,1,.08-.16.6.6,0,0,1,.06.11c.17.57.83.61,1.18,1,0,0,.13.06.17.11a.93.93,0,0,1,.26.79s-.1.07-.11.07l-.47-.51a1,1,0,0,1-.08-.18,4.43,4.43,0,0,0-.63-.46C84.75,18,84.67,17.94,84.73,17.5ZM90,21.15c.07,0,.08,0,.08.06Zm21.23,11.48s0-.07,0-.1.1,0,.14,0l1.45.48a1.73,1.73,0,0,0,.28.25.74.74,0,0,1,.13.12.3.3,0,0,1-.13,0Zm.63.94a4.39,4.39,0,0,1-.61-.21,1.48,1.48,0,0,1-.36-.3,3,3,0,0,1,.42,0c.16,0,.32.11.48.16A1,1,0,0,1,111.85,33.57Zm-2.32-.82-.33-.06a3.77,3.77,0,0,1-.48-.17s-.07-.14-.1-.21.12-.06.17-.05a3.14,3.14,0,0,1,.61.21C109.47,32.51,109.49,32.65,109.53,32.75Z"/></g></g></svg>