<svg xmlns="http://www.w3.org/2000/svg" viewBox="0 0 92.09 52.81"><defs><style>.cls-1{fill:#fff;}.cls-2{fill:#e6e6e6;}</style></defs><title>cartoon-cloud-medium</title><g id="Layer_2" data-name="Layer 2"><g id="cartoon-cloud-medium"><path id="void" class="cls-1" d="M92.07,32.93c0-.37-.13-.74-.16-1.11a3.59,3.59,0,0,0-.17-1.16A13.48,13.48,0,0,0,90.47,28a28.61,28.61,0,0,0-1.8-2.31,28.87,28.87,0,0,0-2.07-2.07,2.76,2.76,0,0,0-1-.6A14.72,14.72,0,0,0,83,22.52c-.34,0-.38-.09-.38-.44V21.3a2.56,2.56,0,0,1,0-.74.94.94,0,0,0,.06-.63,3.68,3.68,0,0,1-.08-.8A3.57,3.57,0,0,0,82.4,18a2.3,2.3,0,0,1-.12-.34c-.07-.54-.15-1.07-.17-1.6s-.16-.88-.2-1.32a9.51,9.51,0,0,0-.51-1.88,4.39,4.39,0,0,0-.78-1.48,15.13,15.13,0,0,1-1-1.3c-.29-.38-.56-.77-.87-1.13a13.57,13.57,0,0,0-2.28-2c-.52-.39-1.07-.73-1.6-1.09s-.86-.63-1.28-.93a1.59,1.59,0,0,0-.43-.22L71,3.9a9.07,9.07,0,0,0-2.07-.36,8.57,8.57,0,0,1-1.23-.22,2.55,2.55,0,0,0-1-.12,7.54,7.54,0,0,1-.81.06,2.62,2.62,0,0,1-.74,0,2.49,2.49,0,0,0-.67,0c-.2,0-.38.08-.58.09a3.44,3.44,0,0,0-1.18.23,3.7,3.7,0,0,1-.52.2,6.2,6.2,0,0,0-1.53.55,5.25,5.25,0,0,0-.58.38c-.25.18-.32.17-.54,0s-.68-.61-1-.93a12.71,12.71,0,0,0-1.81-1.46,13,13,0,0,0-2.34-1.22c-.43-.15-.87-.3-1.29-.47a5.12,5.12,0,0,0-2.2-.49,1.06,1.06,0,0,1-.31,0A3.41,3.41,0,0,0,49.44,0c-.13,0-.3.13-.4.08-.53-.23-1,0-1.55,0S46.5.37,46,.38a2,2,0,0,0-.89.28,4.14,4.14,0,0,1-1.6.6,2.86,2.86,0,0,0-1.35.53c-.47.33-1,.65-1.42,1a.9.9,0,0,0-.28.27c-.34.53-.76,1-1.06,1.58s-.59.8-.79,1.24c-.33.73-.6,1.48-.86,2.24a9.11,9.11,0,0,0-.26,1.2,5.4,5.4,0,0,1-.11.82,2,2,0,0,0,0,1.11c.08.41,0,.83.13,1.25a9.28,9.28,0,0,0,.22.91,3.35,3.35,0,0,1,.42,1.54c0,.07.1.22.15.21.21,0,.25.14.32.28.19.38.38.78.55,1.16,0,0,0,.09,0,.13l-.1,0c-.35-.3-.69-.62-1.07-.89a6.15,6.15,0,0,0-1.15-.69,13,13,0,0,0-2.16-.71c-.25-.05-.51-.14-.76-.18-.54-.06-1.09-.09-1.63-.18a10.55,10.55,0,0,0-1.86-.17c-.32,0-.65.06-1,.09s-.65,0-1,.09a3.53,3.53,0,0,0-.64.16c-.4.15-.8.31-1.21.44a10.85,10.85,0,0,0-2.26,1.06c-.57.36-1.11.76-1.63,1.16-.36.27-.7.57-1,.87s-.46.38-.68.59-.32.39-.5.57-.59.55-.84.86c-.47.59-.89,1.18-1.34,1.78-.24.31-.34.73-.61,1.05,0,0,0,.09,0,.13s0,.14-.07.19a5.3,5.3,0,0,0-.73,1.37,2.78,2.78,0,0,0-.16.4c0,.17-.08.17-.19.08a1.4,1.4,0,0,1-.17-.09,6.6,6.6,0,0,0-2.81-1.18c-.51,0-1-.23-1.51-.24a12.78,12.78,0,0,0-1.85.05,12.63,12.63,0,0,0-1.63.29A11.58,11.58,0,0,0,7,24.1a8.12,8.12,0,0,0-1.34.7A7.68,7.68,0,0,0,4,26c-.3.34-.66.65-1,1-.15.17-.29.35-.42.52-.27.38-.53.75-.78,1.12a2.14,2.14,0,0,0-.34.74,3.88,3.88,0,0,1-.26.9C1,31.09.64,31.93.37,32.8A5.58,5.58,0,0,0,0,34.4a12.17,12.17,0,0,0,.13,3,8.12,8.12,0,0,0,.73,2.11,7.89,7.89,0,0,0,.43.74,3.39,3.39,0,0,0,1.11,1.24c.49.31,1,.64,1.49.94s.75.43,1.15.62.67.26,1,.42a9.19,9.19,0,0,0,4,1,3.71,3.71,0,0,1,.47,0,5.9,5.9,0,0,0,.59.06c.44,0,.88-.11,1.32-.17s.65-.13,1-.18a2.78,2.78,0,0,1,.49-.08c.08,0,.22.08.23.13a5.53,5.53,0,0,0,.53,1.06,11.73,11.73,0,0,0,2.09,2.94,10.74,10.74,0,0,0,1.11,1,6.41,6.41,0,0,0,1,.8c.74.43,1.51.79,2.27,1.2a7.78,7.78,0,0,0,1.73.56c.5.12,1,.25,1.52.34a8.62,8.62,0,0,0,1.14.1c.11,0,.28-.06.34,0,.27.23.57-.17.82.08.37-.22.8,0,1.2-.17a12.76,12.76,0,0,1,1.37-.27c.27-.07.52-.18.77-.27a11.05,11.05,0,0,0,1.51-.48,10.19,10.19,0,0,0,2.85-1.87.3.3,0,0,1,.39-.06c.26.15.49.34.76.5a8.49,8.49,0,0,0,1.66.92,7.27,7.27,0,0,0,2.09.56,26.39,26.39,0,0,0,2.91.61c.7.16,1.43.24,2.13.43a15.22,15.22,0,0,0,2.41.43l1.84.18a5.89,5.89,0,0,0,.84,0h.78c.26,0,.51,0,.76,0a27.14,27.14,0,0,0,3-.08c.41-.07.85,0,1.27-.11a6.75,6.75,0,0,0,.8-.09c.67-.24,1.38-.29,2.07-.49s1.29-.38,2-.55a12.57,12.57,0,0,0,1.34-.35,3.68,3.68,0,0,0,.8-.29,14.43,14.43,0,0,1,1.86-1.1,2.91,2.91,0,0,0,.58-.3l1.21-.75c.06,0,.14-.09.21-.15.24-.21.48-.44.73-.63a7,7,0,0,0,1.48-1.39.37.37,0,0,1,.44-.19c.86.25,1.71.54,2.56.77a9,9,0,0,0,1.7.35c.79.08,1.61.08,2.41.09s1.61,0,2.41,0a2.73,2.73,0,0,0,.62-.09,2.88,2.88,0,0,1,.63-.15,7,7,0,0,0,1.12-.24,9.88,9.88,0,0,1,1.33-.31,3.84,3.84,0,0,0,1-.26c.45-.17.89-.38,1.34-.56a2.11,2.11,0,0,0,.36-.09,2.11,2.11,0,0,1,1-.43c.29,0,.43-.3.68-.4a5,5,0,0,0,1.69-1.19,16.73,16.73,0,0,0,1.55-1.71,8.05,8.05,0,0,0,1.24-1.77,15.91,15.91,0,0,0,.61-1.54,19.38,19.38,0,0,0,.68-2.12,4.66,4.66,0,0,0,.23-1.18,2.5,2.5,0,0,1,.15-.85A6.21,6.21,0,0,0,92.07,32.93ZM59.29,5.11l.14,0a.19.19,0,0,1-.15,0A.22.22,0,0,1,59.29,5.11Z"/><path id="fill2" class="cls-2" d="M92.07,32.93c0-.37-.13-.74-.16-1.11a3.59,3.59,0,0,0-.17-1.16A13.48,13.48,0,0,0,90.47,28a28.61,28.61,0,0,0-1.8-2.31,28.87,28.87,0,0,0-2.07-2.07,2.76,2.76,0,0,0-1-.6A14.72,14.72,0,0,0,83,22.52c-.34,0-.38-.09-.38-.44V21.3a2.56,2.56,0,0,1,0-.74.94.94,0,0,0,.06-.63,3.68,3.68,0,0,1-.08-.8A3.57,3.57,0,0,0,82.4,18a2.3,2.3,0,0,1-.12-.34c-.07-.54-.15-1.07-.17-1.6s-.16-.88-.2-1.32a9.51,9.51,0,0,0-.51-1.88,4.39,4.39,0,0,0-.78-1.48,15.13,15.13,0,0,1-1-1.3c-.29-.38-.56-.77-.87-1.13a13.57,13.57,0,0,0-2.28-2c-.52-.39-1.07-.73-1.6-1.09s-.86-.63-1.28-.93a1.59,1.59,0,0,0-.43-.22L71,3.9a9.07,9.07,0,0,0-2.07-.36,8.57,8.57,0,0,1-1.23-.22,2.55,2.55,0,0,0-1-.12,7.54,7.54,0,0,1-.81.06,2.62,2.62,0,0,1-.74,0,2.49,2.49,0,0,0-.67,0c-.2,0-.38.08-.58.09a3.44,3.44,0,0,0-1.18.23,3.7,3.7,0,0,1-.52.2,6.2,6.2,0,0,0-1.53.55,5.25,5.25,0,0,0-.58.38c-.25.18-.32.17-.54,0s-.68-.61-1-.93a12.71,12.71,0,0,0-1.81-1.46,13,13,0,0,0-2.34-1.22c-.43-.15-.87-.3-1.29-.47a5.12,5.12,0,0,0-2.2-.49,1.06,1.06,0,0,1-.31,0A3.41,3.41,0,0,0,49.44,0c-.13,0-.3.13-.4.08-.53-.23-1,0-1.55,0S46.5.37,46,.38a2,2,0,0,0-.89.28,4.14,4.14,0,0,1-1.6.6,2.86,2.86,0,0,0-1.35.53c-.47.33-1,.65-1.42,1a.9.9,0,0,0-.28.27c-.34.53-.76,1-1.06,1.58s-.59.8-.79,1.24c-.33.73-.6,1.48-.86,2.24a9.11,9.11,0,0,0-.26,1.2,5.4,5.4,0,0,1-.11.82,2,2,0,0,0,0,1.11c.08.41,0,.83.13,1.25a9.28,9.28,0,0,0,.22.91,3.35,3.35,0,0,1,.42,1.54c0,.07.1.22.15.21.21,0,.25.14.32.28.19.38.38.78.55,1.16,0,0,0,.09,0,.13l-.1,0c-.35-.3-.69-.62-1.07-.89a6.15,6.15,0,0,0-1.15-.69,13,13,0,0,0-2.16-.71c-.25-.05-.51-.14-.76-.18-.54-.06-1.09-.09-1.63-.18a10.55,10.55,0,0,0-1.86-.17c-.32,0-.65.06-1,.09s-.65,0-1,.09a3.53,3.53,0,0,0-.64.16c-.4.15-.8.31-1.21.44a10.85,10.85,0,0,0-2.26,1.06c-.57.36-1.11.76-1.63,1.16-.36.27-.7.57-1,.87s-.46.38-.68.59-.32.39-.5.57-.59.55-.84.86c-.47.59-.89,1.18-1.34,1.78-.24.31-.34.73-.61,1.05,0,0,0,.09,0,.13s0,.14-.07.19a5.3,5.3,0,0,0-.73,1.37,2.78,2.78,0,0,0-.16.4c0,.17-.08.17-.19.08a1.4,1.4,0,0,1-.17-.09,6.6,6.6,0,0,0-2.81-1.18c-.51,0-1-.23-1.51-.24a12.78,12.78,0,0,0-1.85.05,12.63,12.63,0,0,0-1.63.29A11.58,11.58,0,0,0,7,24.1a8.12,8.12,0,0,0-1.34.7A7.68,7.68,0,0,0,4,26c-.3.34-.66.65-1,1-.15.17-.29.35-.42.52-.27.38-.53.75-.78,1.12a2.14,2.14,0,0,0-.34.74,3.88,3.88,0,0,1-.26.9C1,31.09.64,31.93.37,32.8A5.58,5.58,0,0,0,0,34.4a12.17,12.17,0,0,0,.13,3,8.12,8.12,0,0,0,.73,2.11,7.89,7.89,0,0,0,.43.74,3.39,3.39,0,0,0,1.11,1.24c.49.31,1,.64,1.49.94s.75.43,1.15.62.67.26,1,.42a9.19,9.19,0,0,0,4,1,3.71,3.71,0,0,1,.47,0,5.9,5.9,0,0,0,.59.06c.44,0,.88-.11,1.32-.17s.65-.13,1-.18a2.78,2.78,0,0,1,.49-.08c.08,0,.22.08.23.13a5.53,5.53,0,0,0,.53,1.06,11.73,11.73,0,0,0,2.09,2.94,10.74,10.74,0,0,0,1.11,1,6.41,6.41,0,0,0,1,.8c.74.43,1.51.79,2.27,1.2a7.78,7.78,0,0,0,1.73.56c.5.12,1,.25,1.52.34a8.62,8.62,0,0,0,1.14.1c.11,0,.28-.06.34,0,.27.23.57-.17.82.08.37-.22.8,0,1.2-.17a12.76,12.76,0,0,1,1.37-.27c.27-.07.52-.18.77-.27a11.05,11.05,0,0,0,1.51-.48,10.19,10.19,0,0,0,2.85-1.87.3.3,0,0,1,.39-.06c.26.15.49.34.76.5a8.49,8.49,0,0,0,1.66.92,7.27,7.27,0,0,0,2.09.56,26.39,26.39,0,0,0,2.91.61c.7.16,1.43.24,2.13.43a15.22,15.22,0,0,0,2.41.43l1.84.18a5.89,5.89,0,0,0,.84,0h.78c.26,0,.51,0,.76,0a27.14,27.14,0,0,0,3-.08c.41-.07.85,0,1.27-.11a6.75,6.75,0,0,0,.8-.09c.67-.24,1.38-.29,2.07-.49s1.29-.38,2-.55a12.57,12.57,0,0,0,1.34-.35,3.68,3.68,0,0,0,.8-.29,14.43,14.43,0,0,1,1.86-1.1,2.91,2.91,0,0,0,.58-.3l1.21-.75c.06,0,.14-.09.21-.15.24-.21.48-.44.73-.63a7,7,0,0,0,1.48-1.39.37.37,0,0,1,.44-.19c.86.25,1.71.54,2.56.77a9,9,0,0,0,1.7.35c.79.08,1.61.08,2.41.09s1.61,0,2.41,0a2.73,2.73,0,0,0,.62-.09,2.88,2.88,0,0,1,.63-.15,7,7,0,0,0,1.12-.24,9.88,9.88,0,0,1,1.33-.31,3.84,3.84,0,0,0,1-.26c.45-.17.89-.38,1.34-.56a2.11,2.11,0,0,0,.36-.09,2.11,2.11,0,0,1,1-.43c.29,0,.43-.3.68-.4a5,5,0,0,0,1.69-1.19,16.73,16.73,0,0,0,1.55-1.71,8.05,8.05,0,0,0,1.24-1.77,15.91,15.91,0,0,0,.61-1.54,19.38,19.38,0,0,0,.68-2.12,4.66,4.66,0,0,0,.23-1.18,2.5,2.5,0,0,1,.15-.85A6.21,6.21,0,0,0,92.07,32.93ZM59.29,5.11l.14,0a.19.19,0,0,1-.15,0A.22.22,0,0,1,59.29,5.11Z"/><path id="fill1" d="M82.63,21.29v.79c0,.34,0,.41.38.43a16.9,16.9,0,0,1,2.54.55,2.69,2.69,0,0,1,1,.6,28.87,28.87,0,0,1,2.07,2.07c.64.73,1.22,1.52,1.8,2.32a12.44,12.44,0,0,1,1.27,2.62,3.49,3.49,0,0,1,.17,1.15c0,.38.15.74.16,1.11A6.21,6.21,0,0,1,92,34.65a3.12,3.12,0,0,0-.16.84,4.33,4.33,0,0,1-.23,1.19c-.17.72-.42,1.42-.66,2.13-.18.52-.4,1-.63,1.53a7.69,7.69,0,0,1-1.23,1.77,15.74,15.74,0,0,1-1.55,1.72A5.46,5.46,0,0,1,85.83,45c-.24.1-.38.36-.66.4a2.21,2.21,0,0,0-1,.42c-.09.07-.23.06-.35.1-.45.18-.89.39-1.34.55a3.49,3.49,0,0,1-1,.27,11.66,11.66,0,0,0-1.33.3,6.05,6.05,0,0,1-1.12.25,2.43,2.43,0,0,0-.63.16,3.4,3.4,0,0,1-.62.08c-.8,0-1.61,0-2.41,0s-1.61,0-2.41-.1a9.76,9.76,0,0,1-1.69-.35c-.87-.23-1.71-.52-2.57-.77a.38.38,0,0,0-.44.18,6.11,6.11,0,0,1-1.48,1.39l-.74.65-.2.14-1.22.75a5.18,5.18,0,0,1-.57.31,12.45,12.45,0,0,0-1.86,1.1,4.24,4.24,0,0,1-.8.28c-.44.15-.89.24-1.34.36-.66.16-1.31.36-2,.55s-1.39.24-2.07.48a4.89,4.89,0,0,1-.79.09c-.41.09-.85,0-1.27.11a24.83,24.83,0,0,1-3,.08c-.25,0-.5,0-.75,0h-.79a7.66,7.66,0,0,1-.83,0c-.62-.08-1.24-.12-1.86-.19a16.21,16.21,0,0,1-2.39-.44c-.71-.18-1.44-.25-2.15-.42a28.54,28.54,0,0,1-2.89-.61,7.1,7.1,0,0,1-2.09-.56,7.45,7.45,0,0,1-1.67-.93c-.26-.15-.5-.34-.76-.49a.31.31,0,0,0-.39.05,10,10,0,0,1-2.85,1.88,13.29,13.29,0,0,1-1.51.49c-.26.08-.5.19-.77.25-.45.11-.93.13-1.37.28s-.82,0-1.2.17c-.25-.24-.55.15-.82-.08-.06-.06-.22,0-.34,0a10.73,10.73,0,0,1-1.14-.1c-.52-.09-1-.22-1.52-.34a7.1,7.1,0,0,1-1.74-.57c-.75-.4-1.52-.77-2.26-1.19a7,7,0,0,1-1-.79,13.28,13.28,0,0,1-1.1-1,11.55,11.55,0,0,1-2.09-2.94,5.17,5.17,0,0,1-.53-1.05c0-.06-.15-.13-.23-.13a2.63,2.63,0,0,0-.49.07c-.33.06-.65.13-1,.18s-.88.13-1.33.17a4,4,0,0,1-.58-.07h-.47a9.34,9.34,0,0,1-4-1c-.32-.16-.68-.27-1-.43a12.64,12.64,0,0,1-1.15-.61c-.5-.3-1-.63-1.49-.94A3.39,3.39,0,0,1,1.32,40.2C1.18,40,1,39.72.88,39.46a8.09,8.09,0,0,1-.72-2.11,13.3,13.3,0,0,1-.14-3,6.37,6.37,0,0,1,.35-1.6c.27-.86.6-1.71.88-2.57a3.75,3.75,0,0,0,.26-.9,2,2,0,0,1,.34-.73c.24-.39.51-.76.77-1.12A4.42,4.42,0,0,1,3.06,27c.32-.33.67-.64,1-1A7.06,7.06,0,0,1,5.66,24.8,8.44,8.44,0,0,1,7,24.1a10.82,10.82,0,0,1,1.58-.52,14.63,14.63,0,0,1,1.63-.3,12.74,12.74,0,0,1,1.85-.05c.51,0,1,.2,1.51.24a6.46,6.46,0,0,1,2.8,1.18,1,1,0,0,1,.18.09c.11.09.16.09.19-.07a2.17,2.17,0,0,1,.17-.42,5.07,5.07,0,0,1,.72-1.36.6.6,0,0,0,.06-.19s0-.1,0-.13c.27-.31.38-.73.62-1.05.44-.59.86-1.2,1.33-1.77a11.63,11.63,0,0,1,.85-.87c.17-.18.31-.4.49-.57s.45-.4.68-.59.68-.6,1-.87c.53-.4,1.06-.8,1.62-1.15a10.19,10.19,0,0,1,2.27-1.06c.41-.14.81-.31,1.22-.45a3.42,3.42,0,0,1,.63-.16c.32,0,.65-.06,1-.09s.65-.08,1-.08a9.67,9.67,0,0,1,1.86.16c.54.09,1.09.11,1.63.19.25,0,.5.12.76.17a12.31,12.31,0,0,1,2.15.71,5.92,5.92,0,0,1,1.16.69c.38.27.72.59,1.08.89l.09,0s0-.09,0-.12c-.18-.39-.36-.78-.55-1.17-.07-.14-.1-.29-.32-.28-.05,0-.16-.14-.15-.21a3.14,3.14,0,0,0-.42-1.53,8.16,8.16,0,0,1-.22-.92c-.1-.42-.05-.84-.14-1.25a2.11,2.11,0,0,1,0-1.11,5.37,5.37,0,0,0,.11-.83,7.17,7.17,0,0,1,.27-1.2,23.2,23.2,0,0,1,.85-2.23c.2-.44.55-.82.79-1.25s.72-1,1.06-1.57a1.24,1.24,0,0,1,.28-.28l1.42-1a3,3,0,0,1,1.36-.53A4,4,0,0,0,45.09.67,1.84,1.84,0,0,1,46,.38c.52,0,1-.22,1.51-.25s1-.26,1.55,0c.1,0,.26-.08.4-.07a2.92,2.92,0,0,1,1.1.07,1,1,0,0,0,.3,0,5.23,5.23,0,0,1,2.21.48c.42.19.86.32,1.29.48a12.36,12.36,0,0,1,4.14,2.68c.33.32.68.62,1,.93s.29.21.54,0a5.45,5.45,0,0,1,.58-.4,6.33,6.33,0,0,1,1.53-.54,3.82,3.82,0,0,0,.53-.2,3.59,3.59,0,0,1,1.17-.24c.19,0,.38-.06.58-.07a2.14,2.14,0,0,1,.67,0,3,3,0,0,0,.74,0,7.18,7.18,0,0,0,.8-.06,2.6,2.6,0,0,1,1,.12,10.22,10.22,0,0,0,1.23.22A9.35,9.35,0,0,1,71,3.9c.74.25,1.48.5,2.22.77a1.75,1.75,0,0,1,.43.22l1.28.92c.53.37,1.08.71,1.6,1.09a14.52,14.52,0,0,1,2.28,2c.31.36.58.75.87,1.13s.61.9,1,1.3a4.18,4.18,0,0,1,.78,1.47,8.54,8.54,0,0,1,.51,1.89c0,.45.2.87.21,1.32s.1,1.06.17,1.59a1.61,1.61,0,0,0,.12.35,4.19,4.19,0,0,1,.23,1.17,4.33,4.33,0,0,0,.07.8,1,1,0,0,1,0,.62,2,2,0,0,0,0,.74M18.25,23.13v.08s0-.05.09-.08v-.08a.22.22,0,0,1-.1.08m-.26.52-.27.54s0,0,0,.08.1,0,.1,0a5.36,5.36,0,0,1,.23-.58l0-.14h-.05a.26.26,0,0,1-.07.15M65.78,45.36a.33.33,0,0,0-.1-.45L65,44.36c-.08-.07-.15-.15-.22-.22,0,.11,0,.21,0,.32-.06.39-.12.77-.17,1.15a6,6,0,0,1-.07.72,5.45,5.45,0,0,0,0,.71,4.3,4.3,0,0,1-.22,1.22.45.45,0,0,0,0,.2c0,.15,0,.18.17.1.28-.17.57-.32.84-.5a6.94,6.94,0,0,0,.67-.51c.39-.34.77-.69,1.14-1a.09.09,0,0,0-.12-.13c-.09.07-.16.16-.25.24a.37.37,0,0,1-.14,0s0-.06,0-.07c.19-.24,0-.36-.13-.54s0-.25,0-.37.17,0,.24,0c.22.08.42.18.64.27,0,0,.09,0,.14,0s0-.12-.08-.14l-.85-.38c-.21-.09-.31-.06-.36.15s-.11.63-.18.93a2.84,2.84,0,0,1-.2.58c-.08.16-.23.14-.48,0s-.09-.18,0-.29c.13-.33.26-.65.37-1a3,3,0,0,1,.14-.49m-63.72-9A3.36,3.36,0,0,1,2.22,36a2.68,2.68,0,0,1,.18-.28l.06.36v0c-.15.58-.27,1.17-.46,1.74a3.76,3.76,0,0,0-.15,1.25s0,.07,0,.1.08-.06.09-.09.06-.24.1-.36c.3-.92.62-1.84,1-2.74s.64-1.7,1-2.51c.29-.59.55-1.2.84-1.79.06-.13.14-.25.21-.37a1.57,1.57,0,0,1,0,.44c-.13.36-.29.7-.43,1.05a7.64,7.64,0,0,1-.29.8,14.11,14.11,0,0,0-.91,2.16,5.09,5.09,0,0,0-.49,2c0,.06-.06.12-.07.19-.16.68-.3,1.36-.47,2a.3.3,0,0,0,.14.36c.07,0,.19.09.23-.11.09-.43.23-.84.35-1.26a15.42,15.42,0,0,1,.71-1.81c0-.06.13-.08.2-.13s.07.15,0,.2a2,2,0,0,0-.25,1.16s0,0,0,0c-.11.44-.22.87-.32,1.31a6.15,6.15,0,0,1-.22.87c-.07.18,0,.25.08.37s.43.15.57.32.29.06.4-.06a1.19,1.19,0,0,0,.13-.25c.23-.53.46-1.07.7-1.59a19.75,19.75,0,0,0,1-2.4c.06-.17.1-.38.31-.47a1.2,1.2,0,0,1,0,.56c-.08.33-.36.6-.29,1-.35,1-.68,2.08-1,3.11-.07.18-.09.45-.37.5,0,0,0,.12,0,.14.34.2.41.18.6-.19s.39-.79.58-1.2.25-.57.38-.85c.3-.66.55-1.35.91-2a12.4,12.4,0,0,0,1-1.9,1.65,1.65,0,0,1,.33-.43s.06,0,.09,0,0,.06,0,.08a2.14,2.14,0,0,1-.09.27c-.37.72-.74,1.44-1.1,2.17a6.47,6.47,0,0,1-.39.89,3.35,3.35,0,0,0-.52,1.32,9.28,9.28,0,0,1-.22.91c-.13.4-.3.78-.45,1.17,0,.07,0,.2,0,.23s.24.19.35.17a.43.43,0,0,0,.3-.24c.37-.89.7-1.79,1.07-2.67A3.68,3.68,0,0,1,8,39.05a.53.53,0,0,1,.1-.06.5.5,0,0,1,0,.12.33.33,0,0,1,0,.17c-.2.67-.4,1.35-.61,2a9.16,9.16,0,0,1-.42,1.18c-.09.19-.18.33,0,.49a.49.49,0,0,0,.68,0,6.74,6.74,0,0,0,.69-1.15c.31-.71.58-1.43.92-2.12a5.55,5.55,0,0,0,.42-1.14,12,12,0,0,1,.39-1.15c.07-.22.14-.44.22-.65,0,0,.07,0,.11,0s0,0,0,.08c-.06.27-.14.53-.18.8A5.42,5.42,0,0,1,10,38.69a16.17,16.17,0,0,1-.69,2,2.56,2.56,0,0,0-.26.81,3.29,3.29,0,0,1-.58,1.55c-.12.18,0,.27.13.3s.3,0,.46.06.25,0,.25-.22a3.39,3.39,0,0,1,.15-.77c.14-.49.28-1,.46-1.47a8.24,8.24,0,0,1,.47-.94s.08-.06.12-.08,0,.08,0,.12l-.18.67c-.11.47-.21.93-.33,1.4a3.9,3.9,0,0,0-.1,1.18s0,.07,0,.1l.09-.09a.28.28,0,0,0,0-.12,3.23,3.23,0,0,1,.18-1.11c.05-.24.1-.48.16-.72,0,0,.06-.07.09-.11s.1.12.09.13c-.17.19-.12.44-.15.66s0,.26,0,.4a3.72,3.72,0,0,1-.23.9.88.88,0,0,1-.05.15c.07,0,.17,0,.21-.08a.72.72,0,0,0,.09-.27c.1-.46.19-.94.31-1.4.17-.61.37-1.22.57-1.82s.37-.9.5-1.37a9.88,9.88,0,0,1,.54-1.3c.24-.52.46-1,.68-1.56.14-.35.25-.72.38-1.07a.44.44,0,0,1,.09-.18.21.21,0,0,1,.14,0,.18.18,0,0,1,0,.12,18.56,18.56,0,0,1-.82,2.19c-.3.7-.56,1.41-.83,2.11s-.36,1.16-.53,1.75a2.83,2.83,0,0,0-.16.84c0,.39-.22.72-.12,1.13.06.24-.1.53-.15.8,0,0,0,.11,0,.11a.19.19,0,0,0,.15,0c.07,0,.16-.08.18-.13s.06-.39.09-.58.09-.51.16-.76c.11-.41.22-.81.37-1.21.21-.56.46-1.12.68-1.68.05-.12.07-.25.24-.23a2.38,2.38,0,0,1-.05.26l-.12.43a3.45,3.45,0,0,0-.14.42c-.11.51-.23,1-.32,1.53a5.21,5.21,0,0,0-.21,1.36,1.78,1.78,0,0,1-.08.45c0,.15,0,.23.18.18a2.3,2.3,0,0,1,.9-.18c.06,0,.12-.05.18-.08l.12-.06-.12,0c-.15,0-.25,0-.21-.2s0-.24.08-.36l.18-.76a10.94,10.94,0,0,1,.35-1.31l.84-2.36c.15-.42.34-.83.47-1.26s.29-1.19.44-1.78a1.19,1.19,0,0,1,.11-.26.54.54,0,0,1,.12-.09.53.53,0,0,1,0,.12,4.07,4.07,0,0,1-.1.7c-.31,1-.66,2-.94,3a5.39,5.39,0,0,0-.36,1.86,4.58,4.58,0,0,1,.08.62c0,.2.11.39,0,.59,0,0,0,.07,0,.11l0-.11c.17-.32.35-.64.5-1,.06-.12.09-.24.25-.23s.12,0,.07.11c-.2.66-.38,1.33-.56,2a1.94,1.94,0,0,0,.09.86l0,.1s0-.08,0-.12a5.16,5.16,0,0,1-.05-.54A2.78,2.78,0,0,1,15,42c.06-.24.09-.15.13,0,.05,0,.13,0,.15-.06s.12-.32.18-.49a13.24,13.24,0,0,1,1.05-2.63A3.25,3.25,0,0,0,17,37.74c0-.08.12-.15.19-.22s.07,0,.11,0,0,.11,0,.15c-.22.57-.44,1.13-.68,1.69a7.61,7.61,0,0,0-.53,1.4c-.1.48-.41.92-.25,1.44-.22.25-.15.58-.24.86a11.05,11.05,0,0,0-.28,1.24,1.08,1.08,0,0,0,0,.31.21.21,0,0,0,0,.07s.05,0,.06-.07.07-.18.09-.27a13.07,13.07,0,0,1,.58-2.21A21,21,0,0,0,16.84,40c0-.11.14-.2.21-.3l.06-.07a.34.34,0,0,1,.05.11,2,2,0,0,0,0,.24,3.32,3.32,0,0,1-.25.83c-.09.27-.11.56-.19.83a16.34,16.34,0,0,0-.66,3c0,.17,0,.17-.38.33a.13.13,0,0,0-.05.14c.14.23.29.46.44.69,0,0,.1,0,.15,0-.07-.28.22-.41.28-.63s.23-.75.35-1.12c.26-.81.51-1.63.79-2.43s.52-1.3.79-2a1.06,1.06,0,0,1,.19-.23c0,.11,0,.22,0,.34s0,0-.05.06c-.12.33-.24.66-.35,1s-.27.91-.45,1.35c-.1.24-.16.5-.27.72a.88.88,0,0,0-.07.77.29.29,0,0,1,0,.13c-.08.41-.16.81-.26,1.21s-.14,1-.56,1.34c-.11.09-.06.2,0,.3.3.34.57.7.88,1s.26.22.38-.1a7.72,7.72,0,0,0,.41-1.23c.2-.9.55-1.76.78-2.66.17-.65.42-1.28.61-1.93.14-.46.24-.92.37-1.38,0-.06.09-.11.13-.16a.65.65,0,0,1,0,.19,2.07,2.07,0,0,0-.16.5,7.13,7.13,0,0,1-.22,1c-.09.62-.35,1.22-.49,1.84a11.6,11.6,0,0,0-.44,1.92c-.22.11.06.24,0,.36a1.33,1.33,0,0,0-.17.76,1.9,1.9,0,0,1-.09.58,2.37,2.37,0,0,1-.25.64c-.15.24-.17.23.06.43l.22.22a1.27,1.27,0,0,0,.27.18c.18.07.11,0,.08-.12s.05-.24.06-.36c0-.31,0-.62.1-.92.12-.59.28-1.17.43-1.75a3,3,0,0,1,.14-.42s.09-.06.14-.09.07.09.07.13a1.45,1.45,0,0,1,0,.47,2.74,2.74,0,0,0-.15.9,4.75,4.75,0,0,1-.1,1.14,7,7,0,0,0-.06,1.37c0,.06.07.12.1.17a.67.67,0,0,0,.09-.14,3,3,0,0,0,.15-.42c.08-.33.14-.67.23-1,.15-.56.33-1.12.47-1.68A21.06,21.06,0,0,1,21.37,44c.15-.44.36-.87.51-1.31.05-.15,0-.32.16-.42l.15-.06,0,.16c0,.19-.09.38-.15.56-.18.53-.37,1.07-.55,1.61A12.58,12.58,0,0,0,20.92,47c0,.15-.07.29-.08.44a8.24,8.24,0,0,1-.26,1.47c0,.27-.06.56-.09.84,0,.13,0,.24.16.25s.15-.11.18-.19a4.64,4.64,0,0,0,.26-.9,23.17,23.17,0,0,1,.63-2.45c0-.11.14-.2.22-.3,0,.12,0,.23,0,.34a.69.69,0,0,1,0,.25A3.9,3.9,0,0,0,21.72,48c-.07.36,0,.73-.1,1.1a4,4,0,0,1-.17.76c-.14.48-.15.47.33.69a3.49,3.49,0,0,0,.34.15c.21.06.29,0,.38-.26.26-.74.52-1.48.77-2.22s.51-1.51.78-2.26.45-1.22.61-1.85c.05-.2.05-.41.22-.56s.08,0,.12,0l0,.09c0,.22-.06.44-.12.65-.2.7-.48,1.38-.64,2.1a14.5,14.5,0,0,1-.58,1.68c-.06.18-.18.38-.14.53a1.87,1.87,0,0,1-.1,1.1c-.11.32-.19.65-.28,1s0,.37.2.4c.39.06.79.12,1.19.22h.08a.31.31,0,0,1-.08-.1,1.24,1.24,0,0,1-.17-.32,3.86,3.86,0,0,1,.14-1.39A8,8,0,0,1,24.93,48a3.72,3.72,0,0,0,.11-.48s.12-.06.19-.1.07.12.07.17a2.44,2.44,0,0,1-.1.63c-.11.26,0,.51-.08.76a6.79,6.79,0,0,0-.18,1.63,1.77,1.77,0,0,0,.14.66v.09a.22.22,0,0,1,.1-.09c0-.13,0-.31.06-.39.25-.26.25-.6.37-.9.35-.86.54-1.76.9-2.61a9.47,9.47,0,0,0,.82-2.68c0-.09.12-.16.18-.24,0,.1.09.21.07.3-.1.45-.23.89-.35,1.34a5.28,5.28,0,0,1-.3,1.05,6,6,0,0,0-.48,1.64c-.05.27-.11.54-.18.8s-.16.22-.16.33a6.09,6.09,0,0,1-.19,1.28c0,.2,0,.29.25.27a7.69,7.69,0,0,1,.83,0c.11,0,.16,0,.15-.14a7.51,7.51,0,0,1,.29-1.82,14.15,14.15,0,0,0,.32-1.6.48.48,0,0,1,.09-.19.32.32,0,0,1,.1-.1s.07.08.07.12c0,.51,0,1-.09,1.54A17.39,17.39,0,0,0,27.74,51c0,.22.07.25.27.25s.29-.19.34-.31c.15-.42.25-.86.36-1.29.21-.85.41-1.7.62-2.55a8.11,8.11,0,0,1,.3-1.1,5.68,5.68,0,0,0,.4-1.45,5.47,5.47,0,0,1,.19-.8,1.06,1.06,0,0,1,.12-.2.75.75,0,0,1,0,.2c-.08.51-.15,1-.26,1.51s-.28,1.31-.48,1.95a5.49,5.49,0,0,0-.31,1.88,1.7,1.7,0,0,1,0,.39c-.1.45-.22.9-.32,1.35,0,.09,0,.19.13.15a14.77,14.77,0,0,1,1.44-.42c.38-.08.69-.35,1.08-.37,0,0,.06,0,.06-.05s0-.09,0-.11-.15-.1-.22-.09-.19-.08-.18-.21,0-.23,0-.35c.08-.46.18-.92.26-1.38s.16-.95.27-1.42a1.32,1.32,0,0,0,0-1.05,1.74,1.74,0,0,1-.12-.61c0-.32.18-.46.46-.32.09,0,.13.11.17-.06.08-.34.2-.67.3-1s.19-.74.29-1.1.13-.48.21-.71c0-.05.11-.07.17-.1l0,.15c0,.17,0,.35-.08.53-.1.44-.19.88-.3,1.32s-.3.84-.39,1.28a.93.93,0,0,0,.12.69c.36.57.83,1.07,1.17,1.65a.64.64,0,0,0,.25.24c.1.07.22.1.28-.06a.51.51,0,0,0,.09-.22,8.33,8.33,0,0,1,.2-1.11,17.25,17.25,0,0,1,.44-2,20.89,20.89,0,0,1,.68-2.43c.1-.32.23-.63.35-1,0,0,.06-.06.1-.1s.06.09.07.13a.37.37,0,0,1,0,.18,12.26,12.26,0,0,0-.61,2,8.16,8.16,0,0,0-.37,2.26,6.5,6.5,0,0,1-.17,1.37c-.07.49-.18,1-.24,1.47,0,.09.13.2.2.3a2.15,2.15,0,0,0,.14-.26,6.17,6.17,0,0,1,.09-.62,14,14,0,0,0,.53-2,1.18,1.18,0,0,1,.17-.36s.07-.05.11,0,.06,0,.06.08a1.62,1.62,0,0,1,0,.44A9,9,0,0,0,36,47.41a6.73,6.73,0,0,1-.12,1.09c-.05.3-.05.39.17.54s.27.13.39.22.16,0,.19-.1.11-.44.16-.67c.16-.68.25-1.38.47-2A16.24,16.24,0,0,0,37.91,44s.06-.06.09-.1.08.09.07.13-.06.38-.08.58a4.85,4.85,0,0,1-.24,1.25,6.42,6.42,0,0,0-.19,1.23,12,12,0,0,1-.25,1.48,7,7,0,0,0-.1.92c0,.22.14.33.41.37s.31,0,.32-.26a1.84,1.84,0,0,1,.06-.41,20.27,20.27,0,0,0,.52-2.46,1.59,1.59,0,0,1,.17-.38c.06.13.12.26.17.39a.49.49,0,0,1,0,.17c0,.39-.07.77-.09,1.15a6.31,6.31,0,0,1-.08,1.37,2.1,2.1,0,0,0-.09.66c0,.14.17.18.3.2s.12-.12.13-.2a9.68,9.68,0,0,1,.19-1.33,30.43,30.43,0,0,1,.86-2.92c.2-.52.37-1.05.55-1.57.11-.3.09-.65.31-.92l.15-.15a.67.67,0,0,1,0,.24c0,.11-.14.22-.15.33a9.69,9.69,0,0,1-.58,2A8.56,8.56,0,0,0,40,47.64a7.34,7.34,0,0,1-.1.93c0,.33-.13.65-.15,1s.13.44.06.61c-.11.33.14.29.28.36s.18,0,.24,0c.21.13.25,0,.29-.16.08-.31.17-.63.23-.95a14.26,14.26,0,0,0,.47-2.34,1.09,1.09,0,0,1,.13-.34s.08-.1.08-.09.13.08.12.12a2.46,2.46,0,0,0-.06.53c.08.58-.23,1.13-.12,1.73a3.07,3.07,0,0,1-.21,1.39.45.45,0,0,0,0,.16s0,.08.07.08a.12.12,0,0,0,.1,0c.15-.51.3-1,.44-1.53s.23-.89.34-1.34.18-.69.28-1,.25-.77.34-1.17a15,15,0,0,0,.45-1.87,1.18,1.18,0,0,1,.11-.35l.09-.09s.06.09,0,.13a3.69,3.69,0,0,1-.09.58c-.1.48-.22,1-.34,1.43s-.2.68-.26,1c-.13.77-.28,1.53-.34,2.31s-.3,1.26-.37,1.91c0,.07-.18.18,0,.2s.34.26.49,0a3.93,3.93,0,0,0,.3-.66c.19-.58.36-1.17.52-1.75s.3-1.2.45-1.79a.61.61,0,0,1,.07-.17,1.34,1.34,0,0,1,.11.14c0,.07.09.17.07.23a5.37,5.37,0,0,0-.19,1.65,10.09,10.09,0,0,1-.34,1.95c0,.15-.21.28-.34.4s-.21,0-.16.11.13.13.22.15a1.64,1.64,0,0,0,.44.09c.15,0,.34.06.3-.22,0,0,.07-.08.1-.13a1.22,1.22,0,0,0,.15-.27c.12-.51.24-1,.37-1.52.29-1.06.68-2.1,1-3.15a1.88,1.88,0,0,1,.21-.31A1,1,0,0,1,46,46a7.51,7.51,0,0,0-.36,1.47,2.79,2.79,0,0,1-.26,1c-.16.33,0,.68-.16,1a1.67,1.67,0,0,0-.09.4c-.06.37-.11.74-.18,1.11s-.08.34.22.48c.07,0,.16.07.21,0s.12-.17.08-.29a.48.48,0,0,1-.06-.28,4.8,4.8,0,0,0,.16-.71c0-.7.38-1.31.36-2A.37.37,0,0,1,46,48s.1-.05.15,0a.15.15,0,0,1,.09.1,10.9,10.9,0,0,1,0,1.4,15.07,15.07,0,0,0-.17,1.9.31.31,0,0,0,.3.35c.52,0,1,.07,1.58.09a.19.19,0,0,0,.13-.1c.18-.6.36-1.2.53-1.8.11-.38.16-.77.3-1.14a2.7,2.7,0,0,0,.23-1,1.15,1.15,0,0,1,.11-.39s.08-.07.12-.1a.42.42,0,0,0,0,.12c.14.17,0,.33,0,.49s0,.36-.07.54a4.33,4.33,0,0,0-.1.71,5.66,5.66,0,0,1-.27,2.16,1.14,1.14,0,0,0-.08.4A.36.36,0,0,0,49,52a.4.4,0,0,0,.32,0,.69.69,0,0,0,.18-.31c0-.11,0-.23,0-.34.28-.89.55-1.78.85-2.67.23-.67.44-1.36.68-2a4.73,4.73,0,0,0,.46-1.48,2.36,2.36,0,0,1,.17-.67c0-.06.11-.11.17-.16s.1.12.08.16c-.18.51-.22,1.05-.37,1.55-.25.85-.58,1.67-.78,2.53a3.87,3.87,0,0,0-.16.89,1.83,1.83,0,0,1,0,.47c-.15.55-.33,1.09-.48,1.64-.1.37,0,.46.39.46h.22c.17,0,.19,0,.18-.19a6.57,6.57,0,0,1,.35-2c.11-.46.24-.92.34-1.39,0-.11.05-.13.16-.14s.11.1.11.18a11.1,11.1,0,0,1-.07,1.41c-.12.61-.11,1.24-.21,1.85,0,.17,0,.24.12.24a8.32,8.32,0,0,0,1.58,0c.41-.07.83-.05,1.24-.14s1.05-.1,1.56-.21c.13,0,.39,0,.42-.26,0-.46.11-.91.18-1.37a8.46,8.46,0,0,1,.26-1.42,6.52,6.52,0,0,0,.27-1.16,8.42,8.42,0,0,1,.25-1.08c0-.06,0-.11.07-.17a.49.49,0,0,1,.1.22c0,.29,0,.59-.08.88s-.13.53-.17.8-.06.56-.1.84a2,2,0,0,0-.06.32c0,.27-.19.58.14.8,0,0,0,.09,0,.12a1.72,1.72,0,0,0-.08.84c0,.32.06.38.36.31l.28-.08c.62-.13.63-.13.67-.78a.57.57,0,0,1,0-.13c.23-.61.26-1.26.43-1.88s.32-1.15.44-1.74.29-1.08.43-1.62.24-1.33.36-2a.76.76,0,0,1,.06-.16s.11.11.11.17a7.32,7.32,0,0,1-.09,1c-.12.62-.29,1.22-.43,1.84s-.29,1.45-.44,2.18a1.73,1.73,0,0,0-.07.31,2.79,2.79,0,0,1,.07.4,14.38,14.38,0,0,1-.25,1.6.41.41,0,0,0,0,.29c0,.09.72-.12.75-.23.12-.49.21-1,.35-1.47a8.62,8.62,0,0,1,.43-1.66,1.08,1.08,0,0,0,.09-.44c0-.35.06-.71.09-1.06a.54.54,0,0,1,0-.11c.05,0,.12,0,.14.06a.41.41,0,0,1,.07.23c0,.49-.08,1-.11,1.44,0,.11,0,.23,0,.33a2.2,2.2,0,0,1-.07.37c0,.08-.08.18-.06.26a1.19,1.19,0,0,1,.06.77.28.28,0,0,0,0,.2c.11.21.05.34-.18.36s-.15.08-.12.16,0,.32.12.35a.78.78,0,0,0,.47-.11.49.49,0,0,0,.1-.34A8.41,8.41,0,0,1,61.69,48c.07-.34.14-.68.2-1a8.2,8.2,0,0,1,.2-1,5.09,5.09,0,0,0,.41-1.89,1.44,1.44,0,0,1,.09-.4s.07-.06.1-.09a.28.28,0,0,1,.07.09,5.67,5.67,0,0,1-.13,1.48,7.66,7.66,0,0,0-.31,2,1.74,1.74,0,0,1-.07.71,2.32,2.32,0,0,0-.1.7,2.16,2.16,0,0,1-.08.8.6.6,0,0,0,0,.35s.11.07.12.06.19-.16.21-.26c.11-.47.18-1,.27-1.42s.22-1,.33-1.48a6.71,6.71,0,0,0,.38-1.82.34.34,0,0,1,0-.19.18.18,0,0,1,.12,0c.06.13.18.28.16.4-.09.46-.21.9-.34,1.35a2.51,2.51,0,0,0-.09,1.51c0,.13.13.31.08.39s0,.4-.08.59.09.19.21.16a.71.71,0,0,0,.18-.08l.14-.11-.13-.06c-.27-.06-.28-.11-.11-.34A1.37,1.37,0,0,0,63.8,48a5.76,5.76,0,0,0,.26-1.07,12.16,12.16,0,0,0,.28-1.6,2.35,2.35,0,0,1,.1-.92c.17-.4,0-.63-.26-.88L63,42.32a6.27,6.27,0,0,0-.87-.84,2,2,0,0,1-.47-.6.27.27,0,0,1,0-.26c.2-.28.34-.29.6-.06.1.09.19.19.28.28.25.24.26.23.37-.07s.27-.59.36-.9A12.13,12.13,0,0,0,63.82,38c0-.06.09-.11.14-.17s.12.12.11.17c-.07.35-.14.7-.22,1s-.16.59-.21.88a9.55,9.55,0,0,1-.2,1.32.46.46,0,0,0,.17.53l.09.05a.24.24,0,0,0,0-.08c.09-.48.17-.95.27-1.42,0-.23.12-.45.17-.68s.12-.62.17-.93.17-.2.32-.2.12.14.12.22,0,.44-.09.66c-.05.37-.11.74-.18,1.1s-.17.87-.25,1.3a2.16,2.16,0,0,0,0,.44c0,.23.13.31.39.31,0,0,.08,0,.12,0l.1,0a3.65,3.65,0,0,1,.26-1.12c.18-.58.32-1.18.48-1.77a4.77,4.77,0,0,0,.13-.51c.07-.47.12-.94.18-1.41,0,0,.07-.07.11-.1s.06.06.06.08c0,.44-.07.88-.12,1.31a2.07,2.07,0,0,1-.06.5,6.48,6.48,0,0,0-.34,2.05.81.81,0,0,1,0,.22c-.16.49-.09,1-.26,1.51-.06.17.1.25.2.35s.14,0,.14-.07c.1-.52.2-1,.27-1.56s.12-1.2.18-1.8c0,0,0-.07,0-.09s0,0,.06,0l.11,0c-.05.25.13.42.18.63s0,.41,0,.62a11.51,11.51,0,0,1-.13,1.43,4.51,4.51,0,0,0-.08.53c0,.18.07.35.08.53a.65.65,0,0,0,.33.59c.3.18.62.35.93.52.12.06.23,0,.23-.17A5.92,5.92,0,0,1,68,43.27a7.51,7.51,0,0,0,.26-2.12.81.81,0,0,1,0-.22.75.75,0,0,1,.07-.12s.1.08.09.1c-.06.24.08.4.2.57s.09.19.06.23c-.16.23,0,.48-.07.71s0,.66-.1,1a5.25,5.25,0,0,0-.16,1.42.47.47,0,0,0,.26.47,1,1,0,0,1,.29.25c0-.14,0-.27,0-.41s0,0,0,0c.25-.61.28-1.28.53-1.88a3,3,0,0,0,.09-.32c.14-.56.28-1.13.44-1.7a7.73,7.73,0,0,0,.34-2.08c0-.09,0-.19,0-.26a.87.87,0,0,1,.17-.22c0,.08.09.17.08.24,0,.42-.11.83-.17,1.24s-.1.54-.15.82c-.09.54-.19,1.08-.28,1.63,0,.26-.08.52-.12.78l-.15.86a4.85,4.85,0,0,0-.08.53c0,.15-.05.3.09.44s.11.15-.06.39c0,.08-.13.21.07.25a2.76,2.76,0,0,0,.27.08c.12,0,.25,0,.25-.18a5.62,5.62,0,0,1,.23-1.34,5.58,5.58,0,0,0,.28-1.9.29.29,0,0,1,0-.13.2.2,0,0,1,.12-.12c.19,0,.31.08.3.33s0,.71-.08,1.06a5.83,5.83,0,0,1-.09.84,5.06,5.06,0,0,0-.17,1.28.76.76,0,0,0,.46.6c.36.07.71.13,1.07.17.12,0,.45.15.24-.25,0-.08.11-.26.15-.4.13-.44.24-.89.36-1.34a3.75,3.75,0,0,0,.17-1.33.57.57,0,0,1,0-.13.68.68,0,0,1,.12-.12.34.34,0,0,1,0,.14,1,1,0,0,0,.2.62.32.32,0,0,1,.06.23c0,.26-.12.51-.16.76a8,8,0,0,0-.09.84,2.45,2.45,0,0,1-.11.83c-.18.36.07.23.21.25s.25,0,.26-.22a7.37,7.37,0,0,1,.16-.76,21.5,21.5,0,0,1,.53-2.1A14.5,14.5,0,0,0,75,41.07c0-.13,0-.34.16-.31s0,.2,0,.3a9.07,9.07,0,0,1-.09,1.28c-.09.6-.23,1.19-.34,1.78,0,.21-.06.41-.09.62-.06.6-.11,1.21-.19,1.81,0,.09-.09.13.06.12a1,1,0,0,1,.39,0c.31.18.29,0,.27-.21a5.24,5.24,0,0,1-.08-.53,2.2,2.2,0,0,1,.08-.58,20.43,20.43,0,0,0,.44-2.31s0-.08.05-.12.12.08.12.12a1,1,0,0,0,.17.72s0,.11,0,.16-.06.25-.07.37a2.82,2.82,0,0,1-.11.83c-.1.25,0,.5-.08.71s0,.48,0,.72.16.18.3.2.11-.08.12-.16c.06-.42.24-.81.32-1.23s.32-1.12.47-1.69.27-1.17.41-1.75c.06-.25.16-.5.2-.75.07-.48.12-1,.18-1.46a.32.32,0,0,1,.06-.15s.07-.06.08,0,.11.08.1.12c0,.47-.1,1-.16,1.42a1.79,1.79,0,0,1-.09.57,7.72,7.72,0,0,0-.34,1.57c-.06.24,0,.5-.12.74a2.5,2.5,0,0,0-.15.9A3.51,3.51,0,0,1,77,46a1.12,1.12,0,0,0,0,.6s.27,0,.41,0,.07,0,.1.06a.32.32,0,0,0,.43-.28,5.45,5.45,0,0,1,.18-.8,4,4,0,0,0,.26-1.08,2.8,2.8,0,0,1,.08-.57s0,0,.07,0l.1,0a1.71,1.71,0,0,0,.17.89c0,.06,0,.13,0,.2a4.86,4.86,0,0,0-.13,1.26s0,.12.07.13.46-.13.46-.26a9.5,9.5,0,0,1,.17-2c.07-.38.12-.76.21-1.14a10.14,10.14,0,0,0,.41-2,.87.87,0,0,1,.14-.33s.06,0,.09-.06a.41.41,0,0,1,0,.08l-.09.8c0,.3,0,.62-.09.92a12.41,12.41,0,0,0-.26,2.78.78.78,0,0,1,0,.38c-.14.22.12.39,0,.59l.45-.12a2.5,2.5,0,0,0,.39-.11c.11-.06.27-.15.28-.24,0-.47.33-.89.27-1.38a.46.46,0,0,1,0-.2.19.19,0,0,1,.09-.09s.08,0,.09.07a.3.3,0,0,1,.05.16l.09,1.18s0,.1.05.15.1-.07.12-.12c.21-.52.41-1,.62-1.54v0c.13-.6.27-1.2.4-1.8,0,0,0-1.11.06-1.15s.07-.22.11-.33A1.51,1.51,0,0,1,83,41a.55.55,0,0,1,0,.25c0,.06-.07.13,0,.19s.15.22,0,.38,0,.24,0,.35L82.63,44l-.18,1.15a2.76,2.76,0,0,1-.08.27c0,.16.08.17.18.14a3.48,3.48,0,0,0,.63-.26.42.42,0,0,0,.24-.42,4,4,0,0,1,.09-.92,7.4,7.4,0,0,0,.26-1.87c0-.11,0-.23,0-.35s0-.07.08-.11.08.07.09.11a5.83,5.83,0,0,0,.06.71,3,3,0,0,1,.1,1.14,7.28,7.28,0,0,0-.07.93,2.42,2.42,0,0,0,0,.25c0-.09,0-.18,0-.26s0-.16.13-.18.11-.15.13-.23.06-.33.1-.49c.17-.88.34-1.75.52-2.63.15-.71.3-1.42.44-2.14,0-.26,0-.53.09-.79,0-.06.07-.11.11-.17a.52.52,0,0,1,.06.16,5,5,0,0,1-.07,1c-.11.46-.08.95-.2,1.41-.2.76-.21,1.54-.34,2.31C85,43.16,85,43.57,85,44c0,0,0,.09,0,.13l-.06.35.33-.11.07,0a1,1,0,0,0,.65-.79,5.07,5.07,0,0,1,.35-1.25c.12-.28,0-.57.13-.84-.18-.18,0-.3.07-.44a1.69,1.69,0,0,1,.13.42c0,.48,0,1,0,1.45,0,.19,0,.38,0,.58l.42-.35a.52.52,0,0,0,.23-.48c0-.09.07-.2.11-.3a1.28,1.28,0,0,0,.14-.29c.13-.69.24-1.39.36-2.08,0-.28.1-.54.15-.82s.14-.82.2-1.23.05-.56.09-.84c0,0,.07-.06.1-.09s.06,0,.07.09a1,1,0,0,1,0,.17,6.23,6.23,0,0,1-.08,1.06c-.08.48-.06,1-.1,1.45,0,.29-.06.59-.1.88s-.11.59-.15.89a.42.42,0,0,0,0,.25c0,.07.1.15.19,0s.28-.32.39-.49.26-.33.19-.6a1.47,1.47,0,0,1,0-.78c.21-.59.25-1.21.43-1.8.06-.2.13-.41.21-.61,0,0,.07-.06.12-.08a.94.94,0,0,1,.06.15,1.94,1.94,0,0,0,0,.24s.08.07.12.1a.53.53,0,0,0,0-.12,4.14,4.14,0,0,1,0-.61c0-.27.12-.53.16-.8s.06-.56.1-.84.11-.6.17-.89c0,0,.07-.1.11-.14s.06.09.06.13c0,.6,0,1.2-.08,1.8a.06.06,0,0,1,0,0c-.23.5.07,1.05-.16,1.55,0,0,.07.09.1.13a.86.86,0,0,0,.07-.1.94.94,0,0,1,.06-.24,3.86,3.86,0,0,0,.37-1.24,19.49,19.49,0,0,0,.36-2c0-.14.08-.27.08-.4,0-.75-.05-1.5-.09-2.24a4.22,4.22,0,0,0-.14-.69c-.15-.66-.54-1.23-.75-1.88a.94.94,0,0,0-.15-.32l-1.4-2a13.66,13.66,0,0,0-1.35-1.59c-.13-.13-.28-.26-.4-.39a4.49,4.49,0,0,0-1.64-1.22c-.63-.25-1.31-.26-1.94-.5a1.23,1.23,0,0,0-.71,0c-.17,0-.38.06-.37.38a4.82,4.82,0,0,1-.22.95c-.1.39-.17.8-.3,1.19A7.21,7.21,0,0,1,81.41,27c-.26.52-.57,1-.83,1.54a5,5,0,0,1-.9,1.25c-.3.32-.58.66-.89,1-.69.7-1.38,1.39-2.08,2.07a.33.33,0,0,1-.26.08.66.66,0,0,1-.1-.93,11.79,11.79,0,0,0,1.49-1.33c.51-.47,1-1,1.43-1.51a2.61,2.61,0,0,0,.46-.59A15.94,15.94,0,0,0,81,26q.24-.82.45-1.65c.08-.35.11-.71.18-1.07a14.36,14.36,0,0,0,.25-1.46c0-.8,0-1.61,0-2.41,0-.11,0-.21-.06-.32,0-.45-.26-.86-.3-1.33,0-.26,0-.53-.08-.79s-.22-.77-.24-1.16a13.32,13.32,0,0,0-.38-2,5.39,5.39,0,0,0-1-2A9.58,9.58,0,0,0,79,10.68c-.4-.43-.67-1-1-1.44a12.28,12.28,0,0,0-.95-1c-.07-.06-.18-.09-.24-.16a10,10,0,0,0-1.7-1.27c-.43-.31-.85-.63-1.29-.92s-.71-.45-1.08-.65A6.38,6.38,0,0,0,72,5.06a8.23,8.23,0,0,0-3-.75c-.28-.19-.62-.06-.94-.15A3.39,3.39,0,0,0,66.68,4a.27.27,0,0,1-.09,0A17.26,17.26,0,0,0,64,4.05a7.13,7.13,0,0,0-.8.18,15.28,15.28,0,0,0-1.66.53,4.08,4.08,0,0,0-1.89,1.45,4.72,4.72,0,0,1-1.21,1.42.7.7,0,0,0-.14.16,9.25,9.25,0,0,0-.74,1.14,1.11,1.11,0,0,0-.23.52,4.14,4.14,0,0,1-.18.93,5.39,5.39,0,0,0-.25,1.87c0,.26,0,.52,0,.78s-.19.41-.45.3a.25.25,0,0,1-.16-.27,10.21,10.21,0,0,1,.17-2.47,2.16,2.16,0,0,0,.09-.62A3.5,3.5,0,0,1,57,8.41a6,6,0,0,1,1.17-1.57,7,7,0,0,0,.62-.71,3.46,3.46,0,0,0,.29-.45.17.17,0,0,0,0-.15A3.6,3.6,0,0,0,58.68,5q-.51-.5-1-1c-.4-.36-.8-.72-1.22-1a9.51,9.51,0,0,0-1-.65,5.85,5.85,0,0,0-.79-.4c-.63-.25-1.28-.45-1.89-.72A5.6,5.6,0,0,0,50.89.81a2.19,2.19,0,0,1-.76-.08.76.76,0,0,0-.47,0,1.27,1.27,0,0,1-.86,0,.81.81,0,0,0-.51,0,10.5,10.5,0,0,1-1.83.33,3.74,3.74,0,0,0-1.14.33,3.12,3.12,0,0,1-.71.29c-.48.15-1,.28-1.46.4a2.84,2.84,0,0,0-1,.57,5.58,5.58,0,0,0-1.61,1.49c-.31.5-.66,1-1,1.47a3.27,3.27,0,0,0-.35.56,10.9,10.9,0,0,0-.52,1.27,6.45,6.45,0,0,0-.45,1.3,9.53,9.53,0,0,0-.26,1.6,14.2,14.2,0,0,0,.07,1.59,9.25,9.25,0,0,0,.28,1.37.48.48,0,0,0,.09.11.28.28,0,0,0,.08-.11c.36-1,.7-2.05,1.06-3.06A9.61,9.61,0,0,1,40,9.33a2.12,2.12,0,0,1,.12-.2,1.13,1.13,0,0,1,0,.25s-.06.09-.08.14a24.13,24.13,0,0,0-1,2.62c-.16.53-.31,1.07-.43,1.62,0,.17-.1.4.07.57a.47.47,0,0,1,.07.12s.1-.08.11-.13,0-.33.08-.49a10.8,10.8,0,0,0,.45-1.57s.09-.1.13-.16.13.15.12.21-.1.4-.14.6a3.15,3.15,0,0,0-.2,1.18.65.65,0,0,1,0,.2c-.05.29-.09.58-.13.87,0,0,0,.05.05.08s0,0,.06-.06a5,5,0,0,0,.16-.64c.24-.9.51-1.8.81-2.68s.67-1.8,1-2.69a2.39,2.39,0,0,1,.28-.45c0-.05.08-.08.12-.11s.05.15,0,.2l-.43,1c-.18.42-.37.84-.52,1.27s-.27.88-.4,1.32-.21.76-.31,1.15-.17.77-.25,1.16a.83.83,0,0,0,0,.15c0-.05.1-.08.12-.13l.36-1s0-.07.08-.11.08.07.08.11a.93.93,0,0,1,0,.44A12.8,12.8,0,0,0,40,16.22c0,.21-.17.41-.07.63s.17.33.25.5c.07-.16.15-.32.21-.48.21-.55.4-1.12.63-1.67s.44-1.35.75-2,.49-1.29.73-1.93a2.67,2.67,0,0,1,.25-.43s0,0,.06,0a.15.15,0,0,1,0,.07.44.44,0,0,1,0,.16c-.36,1-.74,1.89-1.08,2.84-.21.58-.38,1.18-.55,1.78-.07.23,0,.48-.11.7a10.11,10.11,0,0,1-.43,1.35c-.16.35,0,.54.2.78a.46.46,0,0,0,.63.1,2.37,2.37,0,0,1,.36-.09.27.27,0,0,0,.13-.07,3.59,3.59,0,0,0,.32-.57c.2-.54.38-1.1.55-1.65s.33-1.12.51-1.67c.33-1,.68-2,1-2.95.13-.35.29-.7.44-1,0,0,.08,0,.12-.07a.4.4,0,0,1,0,.11c-.12.36-.24.72-.37,1.08-.31.86-.63,1.72-.92,2.59-.11.31-.17.63-.26.95-.14.55-.3,1.1-.47,1.64s-.07.94-.24,1.39c0,0,0,.15,0,.15a2.26,2.26,0,0,0,.52,0s0-.16.06-.25,0-.36.07-.55a6.57,6.57,0,0,1,.54-1.48,2.84,2.84,0,0,0,.17-.49c0-.15,0-.35.2-.35a.83.83,0,0,1,.06.42c-.14.65-.33,1.29-.48,1.94a1,1,0,0,0,.06.82.74.74,0,0,0,.21.13,1.52,1.52,0,0,1,0-.21A1,1,0,0,1,44,18c.28-1,.56-1.92.86-2.88s.64-1.92,1-2.87c.17-.47.4-.92.61-1.37,0-.05.09-.07.13-.11a.47.47,0,0,1,0,.16s0,.07,0,.11c-.23.62-.52,1.22-.69,1.85a5.53,5.53,0,0,0-.48,1.51A4.57,4.57,0,0,0,45,16a8.72,8.72,0,0,0-.3,1.85.78.78,0,0,1-.25.64.76.76,0,0,0-.09.09l.16,0c.21,0,.34,0,.38-.28a4.54,4.54,0,0,1,.28-1c.21-.58.44-1.16.67-1.74a.76.76,0,0,1,.08-.11s.09.07.09.11a1.26,1.26,0,0,1,0,.33c-.07.38-.3.73-.21,1.14a.28.28,0,0,1,0,.13c-.12.44-.24.89-.34,1.34a.2.2,0,0,0,.09.18c.47.1.95.18,1.42.27.16,0,.3,0,.32-.2a7.54,7.54,0,0,1,.34-1.26,12.57,12.57,0,0,0,.45-1.35s.12-.07.14-.05.16.1.08.24a2.49,2.49,0,0,0-.22.65,12.07,12.07,0,0,1-.35,1.87.34.34,0,0,0,.08.3,2.75,2.75,0,0,0,.56.23s0-.06.06-.1c.12-.28.24-.57.38-.84.46-.94.75-1.94,1.14-2.9,0-.12.13-.23.19-.35a2.13,2.13,0,0,1,0,.44c-.12.39-.29.77-.37,1.16s-.37.79-.28,1.25c0,0-.07.06-.08.09A5.29,5.29,0,0,1,49,19.2c-.18.4-.15.41.26.6.19.09.29.06.34-.13.09-.34.15-.69.27-1a4.45,4.45,0,0,1,.39-.75c0-.05.11-.07.17-.1a.51.51,0,0,1,0,.2,2.33,2.33,0,0,1-.08.36l-.33,1.48a1,1,0,0,0-.09.43c0,.08.23.1.35.16a.41.41,0,0,1,.13.1c.15.17.24,0,.28-.08.22-.58.41-1.18.62-1.76.36-1,.74-1.94,1.11-2.91,0-.06.11-.17.13-.16s0,.1,0,.18a.59.59,0,0,1-.06.28c-.2.57-.39,1.15-.59,1.72-.05.14-.07.3-.13.43a4,4,0,0,0-.34,1.34,8.21,8.21,0,0,1-.21,1c0,.15,0,.31-.06.46a.21.21,0,0,0,0,.07.22.22,0,0,0,0-.08l.18-.58c.08-.26.17-.52.27-.77,0-.06.13-.09.2-.13s.1.16.14.24,0,.08,0,.12a9.12,9.12,0,0,0-.21,1,.93.93,0,0,0,.08.71,1.36,1.36,0,0,0,.17.17,1.76,1.76,0,0,0,.09-.2,1.36,1.36,0,0,1,0-.21c.19-.64.4-1.27.59-1.9a20.06,20.06,0,0,1,.78-2.3c.21-.47.36-1,.53-1.45l.14-.42c0,.14,0,.28,0,.42a.65.65,0,0,1-.05.2c-.22.78-.57,1.52-.81,2.29a9.59,9.59,0,0,0-.52,2A17.61,17.61,0,0,1,52.61,22a.39.39,0,0,0,.06.24,5.37,5.37,0,0,0,.44.51c.2.22.42.43.64.65s.13.09.17,0c.12-.37.24-.74.35-1.12.26-.9.55-1.79.78-2.7.16-.66.52-1.25.64-1.92a3.41,3.41,0,0,1,.24-.6,1.5,1.5,0,0,1,.11-.13c0,.06.08.12.06.17-.09.33-.19.65-.31,1-.18.52-.38,1-.55,1.56-.08.25-.1.51-.19.76a5.5,5.5,0,0,0-.26,1.33c0,.25-.1.49-.14.73s-.08.55-.11.83c0,0,0,.08.07.12s.08-.06.09-.1c.07-.27.1-.54.19-.8.19-.61.4-1.21.61-1.8,0-.08.13-.13.2-.19s.07.16,0,.23a4.43,4.43,0,0,1-.17.72c-.17.44-.11.93-.26,1.38a.12.12,0,0,0,0,.11.11.11,0,0,0,.11,0,.61.61,0,0,0,.11-.21c0-.12,0-.24,0-.35.16-.53.35-1.05.51-1.58.23-.76.48-1.52.78-2.26s.47-1.21.68-1.81c.16-.44.29-.88.44-1.31a.75.75,0,0,1,.15-.16c0,.08.05.17,0,.23-.07.23-.16.46-.24.69-.35,1-.67,2.11-1.07,3.14a4.4,4.4,0,0,0-.23.82q-.15.64-.27,1.29a6.54,6.54,0,0,0-.09.89s.05.09.06.09a1,1,0,0,0,.38-.13.49.49,0,0,0,.16-.27c0-.16,0-.33.1-.49q.45-1.47.93-2.94c0-.08-.07-.28.13-.24a.5.5,0,0,1,0,.32,13.63,13.63,0,0,0-.31,1.67c0,.3-.12.59-.17.89s-.07.5-.09.75c0,0,.05.11.08.11s.39-.19.44-.33c.25-.67.49-1.35.74-2,.39-1,.79-2.06,1.19-3.09l0-.15c0,.06,0,.11,0,.16a6.86,6.86,0,0,1-.44,1.61,10.33,10.33,0,0,0-.52,1.54c-.1.51-.23,1-.35,1.52,0,.13-.06.26-.08.4s0,.19.17.2.37,0,.44-.28c.17-.68.46-1.32.68-2a3.24,3.24,0,0,0,.38-1.34c0-.12.11-.26.19-.39s.08,0,.11,0a.14.14,0,0,1,0,.11,14,14,0,0,0-.35,1.56,2.46,2.46,0,0,0-.17.5,14.06,14.06,0,0,1-.29,1.55c0,.12-.12.24,0,.32a.8.8,0,0,0,.35,0,7.36,7.36,0,0,1,1.05,0c.33,0,.42,0,.53-.3.15-.5.27-1,.44-1.52a7.19,7.19,0,0,0,.44-1.57,2.46,2.46,0,0,1,.19-.58s.08-.07.12-.1S63,18,63,18a5.07,5.07,0,0,1-.09.54c-.06.33-.14.67-.21,1a6,6,0,0,0-.23,1.27,3.14,3.14,0,0,1-.1.87c0,.15-.12.29,0,.38s.26.08.39.11.15,0,.18-.16c.1-.44.21-.87.35-1.3a5.62,5.62,0,0,0,.33-.82,5,5,0,0,1,.37-1c.2-.53.44-1.05.63-1.58.11-.31.16-.63.24-1s.08-.37.14-.55.12-.06.18-.08a.75.75,0,0,1,0,.15,2.69,2.69,0,0,0-.14.46,8.11,8.11,0,0,1-.66,2.27,12.37,12.37,0,0,0-.57,2c-.07.39-.1.8-.18,1.19s-.12.52.32.66c0,0,.13,0,.17,0,.2.17.25,0,.31-.14.1-.32.23-.63.33-1s.32-.95.45-1.43.17-.86.27-1.29c0-.05,0-.09.07-.13s.1.1.09.14c0,.22,0,.45-.08.67s-.08.51-.14.77a7.66,7.66,0,0,0-.3,1.71,1.25,1.25,0,0,1-.08.32c-.19.61-.19.59.38.87.14.06.17,0,.22-.06a1.57,1.57,0,0,0,.1-.26c.17-.48.34-1,.52-1.45A7.22,7.22,0,0,0,66.74,20c.08-.45.37-.88.23-1.37,0-.05,0-.12.08-.18a.48.48,0,0,1,.11-.09s.06.09.06.13A7.89,7.89,0,0,1,67,19.81c-.11.51-.25,1-.38,1.51-.06.25-.12.5-.17.76l-.09.35a2.11,2.11,0,0,1-.09.36c-.17.39-.11.55.26.74.14.07.15,0,.19-.1.11-.4.27-.79.39-1.19a2.73,2.73,0,0,0,.31-1.19s.08-.1.12-.1.19,0,.17.18,0,.56-.06.83c-.11.66-.28,1.31-.41,2,0,.22.23.17.27.31a.7.7,0,0,0,.16-.19,4.13,4.13,0,0,0,.15-.5,17.62,17.62,0,0,1,.59-1.73,4,4,0,0,0,.32-1s.07-.08.11-.12.06.09,0,.13a2.74,2.74,0,0,1-.07.5c-.08.36-.2.71-.27,1.07-.13.63-.22,1.27-.36,1.91s-.07.66.29.9a.17.17,0,0,0,.15-.05,7.38,7.38,0,0,0,.53-1.79c0-.12,0-.17.14-.14s.21,0,.15.2a3.41,3.41,0,0,0-.11.78c0,.24-.11.46-.13.69a3.32,3.32,0,0,1-.11.63.59.59,0,0,0,.06.56l.09.11s.07-.07.08-.11.06-.18.09-.27c.21-.63.44-1.25.64-1.88a3.37,3.37,0,0,0,.14-.77c0-.15.1-.13.18-.11s.09.07.09.1c-.08.43-.15.87-.27,1.29A12.26,12.26,0,0,1,69.81,26a1.18,1.18,0,0,0-.12.73,6,6,0,0,0,.52,1s.07,0,.11,0,.05,0,.05-.05c0-.46.37-.85.27-1.33a.19.19,0,0,1,0-.13,1.5,1.5,0,0,1,.11-.13.75.75,0,0,0,.07.12,1.08,1.08,0,0,1,.05.79c0,.1,0,.15,0,.18a.22.22,0,0,0,.15-.1c.07-.28.12-.56.18-.85s.13-.61.2-.92c0,0,.08-.07.12-.1a.53.53,0,0,1,0,.12A5.73,5.73,0,0,1,71.37,27c-.08.48-.26.94-.38,1.41,0,.19,0,.44-.12.55s-.38.12-.57.18c0,0,0,0,0,0-.19,0-.4,0-.5-.21s-.18-.4-.27-.59a7.87,7.87,0,0,0-.56-1.17A13.54,13.54,0,0,0,67.16,25a8,8,0,0,0-2.88-1.71,6,6,0,0,0-1.51-.37c-.51,0-1-.23-1.52-.23a20.22,20.22,0,0,0-3.11.06c-.48.07-.92.26-1.38.37a1,1,0,0,0-.33.16c-.36.23-.69.5-1.07.7a3.58,3.58,0,0,0-1.09.84l-.9,1a4.43,4.43,0,0,0-.64.66,20.55,20.55,0,0,0-1.26,2.18,2.68,2.68,0,0,1-.21.49,2.7,2.7,0,0,0-.4,1.1c0,.25-.17.43-.33.41s-.29-.22-.28-.46a1.09,1.09,0,0,1,0-.25c0-.17.09-.34.13-.51a6.16,6.16,0,0,1,.83-2c.16-.25.34-.5.48-.77a4.52,4.52,0,0,1,1-1.42c.25-.21.45-.46.69-.67s.16-.24,0-.41a32.84,32.84,0,0,0-2.6-2.4,11.91,11.91,0,0,0-1.07-.8c-.14-.1-.33-.13-.47-.23a6.77,6.77,0,0,0-2-1,16.49,16.49,0,0,0-2.69-.48c-.45-.06-.91-.06-1.36-.09l-.13,0a2,2,0,0,0-.53-.06,8,8,0,0,0-2,.67c-.4.21-.75.49-1.14.72A10.42,10.42,0,0,0,37,22.45a14.7,14.7,0,0,0-1.64,2.11,5.81,5.81,0,0,0-.79,1.91,5.92,5.92,0,0,1-.09.75,6,6,0,0,0-.33,2.05,1.92,1.92,0,0,1-.09.4.26.26,0,0,1-.31.18c-.08,0-.21-.13-.2-.2a5.32,5.32,0,0,1,.06-1.32,4.6,4.6,0,0,0,.18-1.11,7.57,7.57,0,0,1,.27-1.42,3.56,3.56,0,0,1,.28-.89,15.94,15.94,0,0,1,1-1.63c.09-.12.24-.19.3-.31.13-.28.39-.45.52-.75a1.88,1.88,0,0,1,.64-.73,5.59,5.59,0,0,0,.88-.73,2,2,0,0,1,.33-.25l2-1.41a.34.34,0,0,0,.11-.12,10,10,0,0,0-.82-1c-.44-.39-.87-.78-1.32-1.14a7.38,7.38,0,0,0-1.39-1,7.06,7.06,0,0,0-2-.71c-.5-.06-1-.27-1.48-.32s-.94-.1-1.41-.19a2.89,2.89,0,0,0-.58-.08q-1,0-2,.09a3.29,3.29,0,0,0-.68.14c-.31.09-.62.18-.93.29-.6.22-1.22.43-1.8.71a7.54,7.54,0,0,0-1.45.85A13.65,13.65,0,0,0,22.59,18c-.06.06-.15.08-.2.14-.33.41-1,.61-.86,1.3,0,0,0,.07-.05.11-.16.39-.37.75-.54,1.13A22.13,22.13,0,0,1,20,23a.58.58,0,0,0-.08.31c0,.52-.27,1-.31,1.5a8.1,8.1,0,0,1-.47,1.55.68.68,0,0,0,.23.87c.11.08.14.11.2-.05.28-.74.58-1.48.87-2.22.06-.17.11-.33.18-.5a.11.11,0,0,1,.09-.05s.08.05.07.07-.06.3-.08.45a9.56,9.56,0,0,1-.7,2.38,2.64,2.64,0,0,0-.07.3c.17,0,.11-.18.17-.27A20.46,20.46,0,0,0,21,25.11c.3-.68.53-1.39.8-2.08L22.61,21l.15-.33c0-.08.09-.14.13-.21a.7.7,0,0,1,0,.28,6,6,0,0,1-.29.84,20.47,20.47,0,0,0-1.08,2.92c-.12.45-.26.89-.36,1.34a12.2,12.2,0,0,1-.57,2c-.09.21-.19.41-.27.63a.23.23,0,0,0,0,.2c.16.12.1-.09.11-.11.29-.61.58-1.22.85-1.84.12-.28.2-.59.3-.88a1.17,1.17,0,0,1,.05-.11.31.31,0,0,1,.09-.07s.08.07.08.11a2.62,2.62,0,0,1-.13,1c-.26.74-.47,1.5-.76,2.22a1,1,0,0,0,0,.84.16.16,0,0,1-.11.24.3.3,0,0,1-.4-.14,2.39,2.39,0,0,0-.32-.56c-.55-.63-1.1-1.24-1.67-1.85A14.08,14.08,0,0,0,15.42,25a5,5,0,0,0-1.32-.61c-.34-.08-.69-.1-1-.19a12.46,12.46,0,0,0-1.61-.22,3.87,3.87,0,0,0-.83.06,8.53,8.53,0,0,0-1.82.29,4.89,4.89,0,0,0-1.68.59,4.88,4.88,0,0,1-.75.4A7.26,7.26,0,0,0,4.11,27a.57.57,0,0,0-.16.28,3.92,3.92,0,0,1-.44,1.18c-.14.33-.37.63-.52,1-.28.58-.52,1.19-.8,1.77a5.28,5.28,0,0,0-.61,2.21s0,.08-.05.11L.91,35.22a.75.75,0,0,0,0,.15.58.58,0,0,0,.12-.1s0-.05,0-.08c.2-.47.4-.94.61-1.4,0-.06.11-.08.17-.12s.07.15,0,.21a4.23,4.23,0,0,1-.13.51,9.55,9.55,0,0,1-.46,1.43,2,2,0,0,0-.24,1,2.11,2.11,0,0,0,.05.35c0-.11,0-.22,0-.34s0-.07.05-.1c.19-.58.35-1.17.56-1.74a12.42,12.42,0,0,1,.56-1.3c.17-.35.4-.68.58-1s.35-.7.54-1.05c0,0,.13-.08.2-.11s0,.17,0,.23a17.64,17.64,0,0,1-.87,1.74,2.23,2.23,0,0,0-.31.92,4.57,4.57,0,0,1-.25,1.08c-.13.25-.14.56-.25.84v.08a.12.12,0,0,1,.09-.08M18.87,25.23l.3-.75c.27-.64.53-1.29.79-1.94s.46-1.18.7-1.76.45-1,.67-1.43c0,0,0-.1,0-.15s-.1,0-.12,0l-.55.6-.9,1.12-.65.82s0,.09,0,.12c.17.23,0,.4-.09.59-.13.43-.25.86-.4,1.28-.2.58-.44,1.15-.65,1.73-.11.31-.09.36.15.57.07.06.13.16.21.2s.23,0,.24,0c.11-.31.19-.62.32-1M32.35,49.65c.36-.19.75-.36.66-.89,0,0,.05-.06.06-.1.07-.44.26-.88-.15-1.29a7.47,7.47,0,0,1-.68-.89.25.25,0,0,0-.09,0,.19.19,0,0,0,0,.08.37.37,0,0,0,0,.21c.24.43,0,.86,0,1.28s-.16,1-.15,1.45c0,.24.05.26.4.19M3,28.25a9.68,9.68,0,0,0-.52.88A10.07,10.07,0,0,0,2,30.47c-.06.23-.34.41-.2.71a5,5,0,0,0,.39-.66,6.5,6.5,0,0,1,.6-1.28c.37-.57.66-1.19,1-1.78,0,0,0-.06,0-.09H3.68l-.7.87M89.67,39.93c.22-.32.06-.7.13-1a1.3,1.3,0,0,0,0-.34c0,.1,0,.19-.07.29s0,0,0,.06a6,6,0,0,1-.2,1.2s0,.06.05.09l.06-.06a1.19,1.19,0,0,1,.1-.2M33.53,48.21c0,.15,0,.31,0,.47a.11.11,0,0,0,.06.09.12.12,0,0,0,.11,0c.06-.11.17-.24.15-.35s-.18-.15-.32-.17m-18.3-6c-.28,0-.13.26-.24.38s0,.29,0,.45l.13-.39a2.72,2.72,0,0,0,.08-.44m-14-4.07.06.14s.07-.06.07-.09,0-.27,0-.41,0-.14,0-.16a.16.16,0,0,0-.16,0s0,.1,0,.15a1.08,1.08,0,0,0,.12.36m12.43,5,.13-.1s0-.05,0-.07a.23.23,0,0,0-.1.17M59.43,5.14l-.14,0v0a.17.17,0,0,0,.15,0m7.84,41,0,.09s0-.06,0-.09m3.59-18.64a.57.57,0,0,0,0,.14h.06a.3.3,0,0,0,0-.15m-51,.3-.05,0s0,0,.05,0m-2.58-2.58,0,.05S17.31,25.28,17.29,25.23Zm-.72-.85s0,0,0,.05S16.56,24.41,16.57,24.38Zm-.22-.18s0,0-.06,0S16.32,24.2,16.35,24.2Zm.48-.44s0,0,0,.06S16.83,23.8,16.83,23.76Zm5.73,6.63c.07.09.1.27.24.09a2,2,0,0,0,.14-.29c.19-.46.37-.92.57-1.38.37-.84.75-1.67,1.11-2.51.1-.24.16-.49.25-.73a1.12,1.12,0,0,1,.16-.28.15.15,0,0,1,.06-.05.15.15,0,0,1,0,.07.41.41,0,0,1,0,.22c-.21.54-.42,1.07-.64,1.61A13.14,13.14,0,0,0,24,28.63a6.06,6.06,0,0,1-.48,1.81,1.6,1.6,0,0,0-.18.75,3.53,3.53,0,0,0,.08.79.1.1,0,0,0,0,.07l.06,0a1.86,1.86,0,0,0,.21-.39c.1-.47.4-.86.53-1.32.07-.27.14-.55.2-.83,0-.08,0-.18,0-.25A1.12,1.12,0,0,1,24.6,29c0,.09.09.17.08.25,0,.35-.08.7-.1,1.05A9.55,9.55,0,0,1,24,32.08a7.07,7.07,0,0,1-.3.92.61.61,0,0,1-.32.27c-.06,0-.24-.12-.25-.19a1.34,1.34,0,0,1,.08-.48c.1-.38,0-.67-.41-.71s-.33-.12-.31-.34a1.61,1.61,0,0,1,0-.22c0-.12-.07-.11-.13-.17s-.14,0-.2,0a.37.37,0,0,1-.33.16c-.14,0-.25,0-.22-.2s-.06-.15-.11-.22c-.24-.3-.22-.41.11-.64a2.08,2.08,0,0,0,.32-.27c0-.05,0-.14,0-.23a11.62,11.62,0,0,0,.5-1.09c.26-.8.61-1.55.82-2.37a.6.6,0,0,1,.09-.15c0,.07.09.14.08.21-.05.25-.14.49-.19.75a17.61,17.61,0,0,1-.42,1.74c-.12.42-.28.84-.41,1.27C22.42,30.22,22.51,30.31,22.56,30.39ZM56.11,49.21c-.12.52-.24,1-.35,1.48a.31.31,0,0,0,.11.35.58.58,0,0,1,.15.24s-.05.1-.07.09a8.7,8.7,0,0,1-.89-.15c-.12,0-.21-.08-.13-.27.19-.48.35-1,.5-1.46.24-.8.46-1.62.68-2.43.16-.62.28-1.25.47-1.86.26-.84.44-1.71.67-2.56.08-.3.16-.6.25-.9a.52.52,0,0,1,.06-.13s0,.07,0,.11a3.74,3.74,0,0,1-.18,1.11c-.1.45-.24.9-.35,1.34s-.11.6-.18.89c-.14.57-.26,1.14-.44,1.7a15.08,15.08,0,0,1-.34,1.65.26.26,0,0,0,0,.21C56.29,48.81,56.15,49,56.11,49.21Zm-2.8.26-.25,1.61c0,.15,0,.32,0,.47s-.06.29-.31.29-.29-.06-.3-.27a5.13,5.13,0,0,1,.15-1.16c.11-.48.19-1,.29-1.45a4.46,4.46,0,0,1,.18-.72c.3-.78.34-1.62.6-2.42.16-.46.27-.94.39-1.41s.15-.76.23-1.13c0-.19.1-.37.14-.56s.08-.37.12-.56l.08-.13a.6.6,0,0,1,.09.15.57.57,0,0,1,0,.26,11.42,11.42,0,0,0-.43,2,5.54,5.54,0,0,1-.18.67c-.2.66-.25,1.37-.5,2a5.92,5.92,0,0,0-.09.75A4.32,4.32,0,0,0,53.31,49.47ZM22,29.76a1.48,1.48,0,0,1-.26.24.26.26,0,0,1-.43-.23.89.89,0,0,1,.07-.36c.26-.73.53-1.45.8-2.16s.46-1.24.7-1.86.52-1.33.79-2l.39-1c.16-.38.3-.76.49-1.11A11.83,11.83,0,0,0,25,20s.08-.06.09-.06.09.09.08.12a3.8,3.8,0,0,1-.18.54c-.16.38-.35.76-.52,1.14a14.39,14.39,0,0,0-.64,1.52c-.21.69-.52,1.33-.75,2s-.37,1.13-.52,1.71-.17.95-.28,1.42S22.09,29.3,22,29.76ZM48.38,45.08a2.77,2.77,0,0,0,.11-.51l.09-.54c0-.05,0-.12.05-.15a.68.68,0,0,1,.17-.09.31.31,0,0,1,0,.15c-.08.43-.16.87-.26,1.29-.14.57-.29,1.14-.44,1.7,0,.15-.09.29-.12.43s-.1.52-.14.78-.05.47-.09.7a23,23,0,0,1-.52,2.36,2.18,2.18,0,0,0-.09.23c0,.23-.16.26-.32.23s-.32-.07-.3-.31a5.5,5.5,0,0,1,.27-.9c.2-.73.4-1.46.62-2.19.28-1,.58-1.92.87-2.87C48.34,45.29,48.35,45.19,48.38,45.08ZM4.8,37.81c.28-.65.55-1.28.8-1.92s.59-1.54.88-2.31c.14-.36.29-.72.44-1.08,0,0,0,0,.06-.08a.41.41,0,0,1,0,.08,5.25,5.25,0,0,1-.13.69c-.12.34-.27.67-.4,1-.23.64-.46,1.27-.7,1.9-.32.83-.67,1.65-1,2.49-.19.56-.29,1.16-.44,1.74q-.08.27-.18.54c0,.11,0,.27-.21.29A.58.58,0,0,1,3.46,41s0-.12,0-.18C3.91,39.81,4.34,38.82,4.8,37.81Zm67.59,4c-.06.3-.14.55-.17.8a11.25,11.25,0,0,1-.2,1.45c-.11.39,0,.78-.14,1.17a3.08,3.08,0,0,0,0,.62.33.33,0,0,1-.3.34.4.4,0,0,1-.31-.35,2.18,2.18,0,0,1,0-.57c.06-.39.2-.77.24-1.16A15.41,15.41,0,0,1,72,42.39c.2-.75.41-1.49.58-2.25.09-.42.11-.86.18-1.28a1,1,0,0,1,.19-.33,1.12,1.12,0,0,1,.06.35c-.07.56-.15,1.13-.26,1.68S72.5,41.4,72.39,41.86ZM54.53,49c0,.3-.06.57-.08.83s0,.45,0,.67-.05.48-.08.71v0c0,.48,0,.48-.38.47-.21,0-.33-.09-.33-.31s.06-.42.06-.63a5.48,5.48,0,0,1,.19-1.39c.16-.51.21-1,.37-1.55.11-.35,0-.76.25-1.07a.61.61,0,0,0,.07-.1s.08,0,.09.09a1,1,0,0,1,0,.3c-.07.38-.2.76-.24,1.16A3.84,3.84,0,0,0,54.53,49Zm7.55-32a11.28,11.28,0,0,0,.77-2.2.11.11,0,0,1,0-.07.43.43,0,0,1,.09-.1s.06.09.05.13c-.05.22-.11.45-.17.67s-.1.42-.17.63c-.19.52-.39,1-.59,1.55a9.28,9.28,0,0,0-.56,1.95c-.08.51-.23,1-.34,1.52,0,.11,0,.24,0,.34s0,.28-.22.29a.47.47,0,0,1-.45-.19.07.07,0,0,1,0-.06c.12-.45.22-.9.37-1.33.23-.67.49-1.32.73-2C61.77,17.8,61.91,17.42,62.08,17ZM67,42.39c.15-.63.31-1.21.44-1.79a7.49,7.49,0,0,0,.26-1.94s0-.08.08-.13.09.1.09.15a7.21,7.21,0,0,1-.15,1.67c-.13.53-.11,1.09-.2,1.63a15.12,15.12,0,0,0-.08,2.23.37.37,0,0,1-.22.34.32.32,0,0,1-.31,0,.4.4,0,0,1-.15-.44.86.86,0,0,0,.06-.23A5.23,5.23,0,0,1,67,42.6,1.43,1.43,0,0,0,67,42.39ZM24.77,33a3.75,3.75,0,0,1-.18.75.55.55,0,0,1-.31.29c-.26.07-.28,0-.3-.24a2.88,2.88,0,0,1,.32-1.23c.25-.68.58-1.33.85-2a6.87,6.87,0,0,0,.41-1.26s0-.07,0-.09L25.8,29a1,1,0,0,1,0,.29c-.3,1-.62,2.08-.92,3.12C24.85,32.6,24.82,32.79,24.77,33ZM47.53,14.46c-.13.53-.31,1-.39,1.5a8.39,8.39,0,0,0-.29,1.23,2.6,2.6,0,0,1-.2,1.08,1.24,1.24,0,0,1-.4.39s-.18-.08-.23-.16a.34.34,0,0,1,0-.26,16.45,16.45,0,0,0,1-2.53c.18-.61.39-1.21.58-1.81.12-.38.23-.75.36-1.13,0,0,.09-.09.14-.13a.44.44,0,0,1,0,.16,6.43,6.43,0,0,1-.17.76C47.78,13.85,47.65,14.13,47.53,14.46ZM33.61,46.41c-.47-.27-.36-.21-.29-.71A18.72,18.72,0,0,1,34,43.52s0-.1,0-.12a1.5,1.5,0,0,1,.24-.2c0,.09.1.18.1.26,0,.33-.06.67-.1,1,0,.14-.05.27-.07.41,0,.31-.1.63-.14.94,0,0,0,.08,0,.12,0,.32,0,.32-.25.42A.32.32,0,0,1,33.61,46.41Zm-3,1.34a9.17,9.17,0,0,1-.45,2.55c-.05.17-.12.23-.29.23h-.39a1.38,1.38,0,0,0-.2,0l.06-.23s0-.06,0-.08c.48-.44.5-1.07.7-1.63a6.73,6.73,0,0,0,.35-1.6c0-.06.05-.11.07-.17s.16.09.18.15a1.36,1.36,0,0,1,0,.35A2.25,2.25,0,0,1,30.57,47.75Zm-13-2.83c.11-.39.23-.73.35-1.08,0,0,0-.09,0-.12s.18-.19.26-.28c0,.12,0,.24,0,.37-.06.59-.28,1.15-.3,1.76a6.47,6.47,0,0,1-.25,1.37c-.06.29-.24.41-.39.34s-.24-.29-.16-.54.2-.73.29-1.1S17.54,45.19,17.6,44.92Zm23.45-26.6c-.09,0-.12.11-.2,0s-.2-.19-.14-.33c.17-.44.33-.89.53-1.31s.46-.86.67-1.3c.1-.21.14-.44.22-.65,0,0,.08-.06.12-.09l0,.12a1.41,1.41,0,0,1-.18.8c-.26.8-.53,1.59-.77,2.39A.78.78,0,0,1,41.05,18.32Zm22.06,20a3.2,3.2,0,0,1-.07.49,11.65,11.65,0,0,0-.19,1.32,1.43,1.43,0,0,1-.05.28.89.89,0,0,1-.4-.06.38.38,0,0,1-.07-.31c0-.28.11-.56.17-.84s.2-.74.25-1.12c0-.21.12-.35.32-.27s.15.27,0,.42S63.11,38.21,63.11,38.27ZM53.75,20.15c0,.12-.1.21-.09.27a3,3,0,0,1,0,.89,6.87,6.87,0,0,1-.17,1,.29.29,0,0,1-.5.18c-.09-.07-.12-.13,0-.28a6.88,6.88,0,0,0,.29-1c.12-.46.24-.92.37-1.37,0-.05.07-.08.12-.12a.45.45,0,0,1,0,.16C53.73,20,53.91,20,53.75,20.15ZM22.59,49.3a.21.21,0,0,1,.08.16c-.08.28-.17.56-.26.85s-.09.28-.31.14a.71.71,0,0,1-.39-.67c0-.17.07-.33.09-.49s0-.31,0-.46a.48.48,0,0,1,.09-.21.16.16,0,0,1,.12,0,.59.59,0,0,1,0,.45c-.05,0-.12.06-.05.19C22.13,49.58,22.24,49.6,22.59,49.3ZM61.91,38.73a2.52,2.52,0,0,1-.17,1,1,1,0,0,0,0,.3v.22c0,.17-.17.35-.31.33a.26.26,0,0,1-.21-.33c.07-.35.16-.69.26-1s.23-.75.35-1.12a1,1,0,0,1,.15-.21c0,.09.11.18.1.26A3.89,3.89,0,0,1,61.91,38.73ZM26.26,50.79c-.06-.14.22-.27,0-.42a1.81,1.81,0,0,0,.09-.17s0-.12,0-.14-.11-.13,0-.19.11-.19.23,0,.2.2.24-.06a1.43,1.43,0,0,1,.28,0,1.6,1.6,0,0,0-.05.21v.18c0,.3,0,.58-.38.66,0,0,0,.09-.05.14s.11,0,.15,0a.93.93,0,0,0,.19-.11.71.71,0,0,0-.08.18c0,.13.06.37-.22.15a.21.21,0,0,0-.19,0c-.14.1-.29.13-.37,0a.24.24,0,0,1,.14-.35c0,.19.12.15.21.15l.07,0a.93.93,0,0,0-.14-.14s-.08,0-.12,0m.57-.27v-.16l-.14,0,.13.12m-.13-.3.05,0S26.75,50.2,26.7,50.22Zm4-.92a.57.57,0,0,1,.25-.78c.09,0,.21,0,.19.13s-.08.53-.1.79-.05.38.1.51,0,.19-.05.21a1.67,1.67,0,0,1-.4.1,1.45,1.45,0,0,1-.22.09.38.38,0,0,1-.15,0,.49.49,0,0,1,0-.12c0-.15.07-.29.1-.44s.07-.23.09-.35.24.13.2-.13a.93.93,0,0,0,0-.1l-.05.08m.13-.44,0,.14h.06a.21.21,0,0,1,.07-.15v-.08a.18.18,0,0,1-.09.08m-.27,1,0,.05S30.61,50,30.59,49.91Zm-6.52-.26c.12,0,.23,0,.17.15s0,.54-.22.73c0,.45-.29.34-.53.34s-.27,0-.13-.22a5,5,0,0,0,.37-1.28s.08,0,.1,0a1.18,1.18,0,0,1,.22.27l-.11.11a1.3,1.3,0,0,0-.1.15.42.42,0,0,0,.17,0A.6.6,0,0,0,24.07,49.65Zm-7.61-6.3c.06-.22.12-.4.17-.58a.56.56,0,0,0,0-.12s0,.07,0,.1c0,.22.07.44.09.66s.05.29-.16.33,0,.12,0,.17a7.18,7.18,0,0,1-.2.92c-.05.17,0,.38-.27.45,0,0,0,.07,0,.11s0,.15-.05.23a.88.88,0,0,1-.12-.17c0-.07-.14-.13,0-.23a.84.84,0,0,0,.27-.63c.05-.4.16-.8.25-1.24m.17.22-.05,0S16.59,43.58,16.63,43.57Zm11.73,6.25c-.08.06-.15.14-.14.15.28.38,0,.68-.12,1a.17.17,0,0,1-.1,0c0-.06-.08-.13-.07-.19.05-.31.13-.62.16-.93a5.87,5.87,0,0,0,0-.94.36.36,0,0,1,.26-.38s.08,0,.12.05-.05.09-.06.08c-.19,0-.16.1-.17.21s.1.16.19.14c.25,0,.08.11.08.18S28.57,49.65,28.36,49.82ZM19,47.88c0,.22-.05.41-.07.61s-.07.14-.16.08-.24-.3-.1-.55a1.44,1.44,0,0,0,.15-.41,1.46,1.46,0,0,0,.1-.57c-.06-.36.17-.64.19-1a.14.14,0,0,1,.05-.11l.18-.06a.76.76,0,0,1,0,.15c0,.29-.09.58-.14.87A3,3,0,0,0,19,47.88Zm.63-22.39v-.13h.08c0,.16,0,.36.23.13,0,0,.07,0,.11,0s-.05.06-.05.09l-.2.71a.71.71,0,0,1-.08.18l-.18.45s-.05.11-.07.11-.13,0-.14-.08a1.14,1.14,0,0,1,0-.41C19.37,26.22,19.5,25.88,19.61,25.49Zm2.52.94s.06,0,.08,0,0,.09,0,.11a12,12,0,0,0-.49,1.3,12.23,12.23,0,0,0-.5,1.36c0,.08,0,.16-.06.24a.47.47,0,0,1-.06.09s-.11-.09-.1-.13a.58.58,0,0,1,.08-.22A26.36,26.36,0,0,1,22.13,26.43ZM20.31,46.67a2.09,2.09,0,0,1-.09.36A8.66,8.66,0,0,0,20,48.28a1.65,1.65,0,0,1,0,.21c-.06.18-.14.35-.21.53l.06-.52c.05-.56.11-1.12.17-1.67a.75.75,0,0,1,.05-.16C20.07,46.4,20.19,46.49,20.31,46.67Zm15.76,1.58a.83.83,0,0,1,.12-.25s.14.17.13,0,.17-.15.27-.15a.36.36,0,0,1,.07.23c0,.29-.12.57-.15.86s0,.13-.13.05-.12-.17-.19-.18-.15-.17-.1-.24S36.15,48.37,36.07,48.25ZM5.76,40c.09-.24.16-.46.24-.67s.12-.12.17-.18l0,.21a4.17,4.17,0,0,1-.13.42c-.13.59-.51,1.07-.67,1.64a1.46,1.46,0,0,1-.24.33,1.59,1.59,0,0,1,.09-.39A9.24,9.24,0,0,0,5.76,40Zm28.31,7.26-.33-.5c-.05-.08-.08-.16.06-.17.36,0,.48-.23.43-.57,0-.13.06-.13.15-.14a.11.11,0,0,1,.1.18,3.5,3.5,0,0,0-.27,1.2A.19.19,0,0,1,34.07,47.26ZM6.15,42.36a.68.68,0,0,1-.1-.19,1.5,1.5,0,0,0,.35-.78.52.52,0,0,1,.17-.27c.1-.08.06-.12,0-.19s0-.08,0-.11.13,0,.13,0,.37.32,0,.4c0,0,0,.1,0,.15a3.34,3.34,0,0,1-.31.87C6.33,42.34,6.24,42.35,6.15,42.36Zm12.17,2.32c.16.18.27.38.09.61,0,.51-.37.89-.38,1.38,0,0,0,0-.05.08s0,0,0-.08a7,7,0,0,1,.13-.78c.06-.21,0-.47.2-.65,0,0,0-.1,0-.15A.32.32,0,0,1,18.32,44.68Zm-5.78-1.49c-.27.06-.33,0-.28-.15a2.91,2.91,0,0,0,.12-.39s-.12-.11-.11-.16a.89.89,0,0,1,.08-.31c0-.11.09-.2.14-.31,0,.1,0,.2,0,.3s0,.27.12.39,0,.25-.08.35-.18,0-.07.09.1,0,.15,0,.12,0,.14,0a.89.89,0,0,1,.08.17l-.16,0A1.15,1.15,0,0,0,12.54,43.19Zm12.85,6.28-.16-.15.22-.18c0,.06.11.12.11.17a2.35,2.35,0,0,1-.35,1.24l-.05.06s0,0,0-.07c0-.36-.09-.75.28-1,0-.07,0-.12.06-.17h-.06ZM23.9,30H24a3.22,3.22,0,0,1-.1.54c-.09.25-.2.5-.31.74,0,.05-.08.08-.12.12s-.05-.11,0-.16c.06-.23.13-.47.2-.7A2.5,2.5,0,0,1,23.9,30ZM9.11,43c0,.11,0,.25-.07.25a2.31,2.31,0,0,1-.37,0A2.1,2.1,0,0,1,8.73,43c.1-.22.2-.44.31-.65,0,0,.07-.08.12-.12s0,.11,0,.16C9.17,42.57,9.14,42.76,9.11,43ZM4.73,40.2a.55.55,0,0,1-.12.16s-.06-.09-.05-.13c.07-.25.14-.5.23-.74A1.09,1.09,0,0,0,4.91,39,.41.41,0,0,1,5,38.79c0-.06.12-.14.15-.13s.06.14,0,.22-.21.24-.1.41c-.18.11-.16.28-.17.45S4.65,40,4.73,40.2Zm2.89,2.71c-.18,0-.34,0-.42-.12s-.06-.21.09-.07c0-.1.4,0,.13-.25,0,0,0-.21,0-.32l0,0c.11.12.23.22.33.34s0,.1,0,.15A.88.88,0,0,1,7.62,42.91ZM37.79,49c0,.13-.22.2-.07.33s.16.14,0,.24l-.09.05c-.06-.08-.15-.16-.15-.25a7.63,7.63,0,0,1,0-.82s0-.05,0-.05.11,0,.11,0A1.77,1.77,0,0,1,37.79,49ZM21.1,47.72c0,.28-.06.52-.09.75a3.58,3.58,0,0,1-.09.35l0,.12a.35.35,0,0,1-.05-.13.76.76,0,0,1,0-.26c.08-.46.17-.92.26-1.37a.59.59,0,0,1,0-.13,1.31,1.31,0,0,1,.12-.11.53.53,0,0,1,0,.12A1,1,0,0,1,21.1,47.72Zm1.51-17.33a3.19,3.19,0,0,1,.23-.8c.09-.19,0-.45.25-.6a1.36,1.36,0,0,1-.25,1C22.74,30.13,22.89,30.38,22.61,30.39Zm46,14.25c.1,0,0-.35.25-.2s.24.16.1.33a.76.76,0,0,0-.11.22,1.29,1.29,0,0,0,0,.19,1.12,1.12,0,0,1-.13-.24C68.6,44.85,68.59,44.76,68.56,44.64Zm-39,4.92a3,3,0,0,0,0-.84c0-.2.07-.21.14-.2s.21.08.13.24S29.64,49.3,29.52,49.56Zm45.41-3.15c0,.18-.14.05-.23.09a.55.55,0,0,0,0-.17,4.51,4.51,0,0,1,0-.52c0-.06.07-.11.11-.17a.49.49,0,0,1,0,.16C74.91,46,75,46.22,74.93,46.41ZM7,40.57a1.86,1.86,0,0,0-.09.24c-.06-.05-.18-.08-.19-.14a2.46,2.46,0,0,1,0-.47s.06-.07.11-.09.08,0,.12,0a.52.52,0,0,0-.06.13.89.89,0,0,0-.08.17,1.09,1.09,0,0,1,.18,0C7.17,40.42,7.08,40.49,7,40.57ZM2.87,39.15a4.62,4.62,0,0,1-.07.65,1.57,1.57,0,0,1-.08.31.89.89,0,0,1-.08.17s-.07,0-.07,0a.68.68,0,0,1,0-.2c.05-.21.12-.41.18-.62A1.28,1.28,0,0,1,2.87,39.15ZM54.62,51.49a1.49,1.49,0,0,1,.06-.28s.08,0,.12,0c-.08.3.25.16.33.3l.1,0-.11,0A1.74,1.74,0,0,1,54.62,51.49Zm12-7.88c0,.12,0,.24-.07.25s-.1-.08-.1-.16a5.23,5.23,0,0,1,0-.56.22.22,0,0,1,.1-.14c.16,0,0,.09,0,.13S66.58,43.42,66.61,43.61ZM33.07,45.27c.09.07-.17.12,0,.18s-.08.21,0,.31-.07,0-.08,0a1.53,1.53,0,0,1-.17-.27c-.09-.15-.06-.23.13-.2ZM79,45.89a.94.94,0,0,1,0,.17c0,.09.1.26-.11.25a.52.52,0,0,1-.06-.25,2.58,2.58,0,0,1,.08-.26c0-.14,0-.28.06-.42C78.93,45.53,78.94,45.69,79,45.89Zm-76.52-9c0-.09,0-.16.06-.23s.13-.34.2-.52c0,.2,0,.4-.06.6a.88.88,0,0,1-.16.28s-.07,0-.1,0ZM4,38.73c.06,0,.15-.19.13,0a3.56,3.56,0,0,1-.25.76l-.05,0s0-.08,0-.11.1-.28.14-.41A1.31,1.31,0,0,1,4,38.73Zm9.08,2.69a.83.83,0,0,1,.12-.25s.08,0,.12,0a.14.14,0,0,0,0,.06c0,.17-.09.34-.14.51s0,.07,0,.11,0-.09-.05-.12A.2.2,0,0,1,13.05,41.42Zm4,4.71.08-.05c-.05.2-.09.4-.15.6,0,0-.08.06-.12.08s-.06-.1-.05-.14S17,46.31,17.05,46.13Zm53-.86c0-.14-.06-.24-.08-.35s0-.06.07-.08.07,0,.07,0c0,.21.09.42.11.64,0,0-.09.08-.14.12a1,1,0,0,1,0-.16A.87.87,0,0,1,70,45.27Zm-60.67-4c0-.05,0-.08,0-.1s0,0,.06,0a2.68,2.68,0,0,1,0,.49.75.75,0,0,1-.18.27,2.36,2.36,0,0,0,0-.28A2.7,2.7,0,0,1,9.35,41.31Zm17.2,8.23a.59.59,0,0,1,0-.23l.15.08s.08,0,.09,0,.1-.1.15-.14l.1,0s0,.09,0,.11-.1.27-.29.21A1.76,1.76,0,0,1,26.55,49.54Zm37.61-5s-.11,0-.16-.06l.06-.06c.08-.16,0-.41.24-.49C64.25,44.07,64.21,44.25,64.16,44.49ZM3.07,38.27a.45.45,0,0,1,0-.16l.12-.17c0,.08.11.15.1.22a.69.69,0,0,1-.13.29s-.11,0-.17.08S3.05,38.39,3.07,38.27Zm73,7.64c0,.07.11.1,0,.17l-.14.07s-.07-.1-.06-.14a1.37,1.37,0,0,1,.16-.32s.11-.08.17-.13a1.87,1.87,0,0,1-.07.22ZM53.48,51.4c0,.12,0,.2,0,.25a.49.49,0,0,1-.19.1s-.06-.11,0-.15a4,4,0,0,1,.17-.36A.68.68,0,0,1,53.48,51.4ZM41.6,18c.21,0,.14.14.22.21a1.06,1.06,0,0,1-.21.11.75.75,0,0,1-.2,0C41.47,18.19,41.52,18.1,41.6,18Zm16,23.17a.43.43,0,0,1,.09-.18l.11-.08s.06.09.05.13a.71.71,0,0,1-.08.18l-.12.29A2.49,2.49,0,0,1,57.6,41.16ZM23.13,29c0-.13-.08-.29.07-.39s.08-.05.12,0,.06.07.05.1S23.35,29,23.13,29Zm-5.38,18.3c.05.07.11.15.1.22s-.07.13-.11.2l-.23-.22.16-.14Zm22.69,2.88c0,.16-.12.22-.18.17a.56.56,0,0,1-.16-.21s0-.08,0-.12l.1.07A.77.77,0,0,0,40.44,50.17ZM22.78,32.74c0-.06,0-.09,0-.11a1.6,1.6,0,0,0-.05-.21c.07,0,.18.07.22.14s0,.17,0,.25,0,.07-.06.1A.71.71,0,0,0,22.78,32.74ZM15.15,41.6c.06-.24.11-.44.17-.63l0-.07s.05,0,.05.06a1,1,0,0,1-.23.71S15.16,41.65,15.15,41.6Zm14.61,6c0-.11,0-.18,0-.25a.55.55,0,0,1,.14.12.11.11,0,0,1,0,.12c-.06.08.19.12,0,.18S29.74,47.85,29.76,47.64ZM53.5,22.85c0-.06.11-.08.16-.12s.19,0,.17.11a.84.84,0,0,1-.08.2.49.49,0,0,0-.11-.14Zm-19,22.75-.2.11s0-.08,0-.12,0-.06,0-.08.13-.2.16-.19S34.45,45.49,34.47,45.6ZM19.09,28.71s-.09,0-.09-.05-.2-.2,0-.31a.1.1,0,0,1,.09,0A.23.23,0,0,1,19.09,28.71ZM44,50.55a2.37,2.37,0,0,1-.28.4s-.08,0-.12,0a.73.73,0,0,1,0-.09A2,2,0,0,1,44,50.55Zm29.76-5.28a1.42,1.42,0,0,1,0,.79A5.32,5.32,0,0,1,73.77,45.27Zm-6.13-1.64a.51.51,0,0,1,0,.38.33.33,0,0,1-.06.1s-.11-.09-.11-.12A1.14,1.14,0,0,1,67.64,43.63ZM39.28,18.43a.62.62,0,0,1-.06-.18s.05-.05.07-.08a2.58,2.58,0,0,1,.18.32s0,.06-.06.09A.81.81,0,0,0,39.28,18.43ZM64.75,41.66s-.07,0-.06-.08,0-.22.07-.33.07,0,.07,0S64.91,41.54,64.75,41.66Zm-3.5,8.27c0,.09,0,.18-.07.2a1.15,1.15,0,0,1-.26,0,1.07,1.07,0,0,1,.16-.14A.29.29,0,0,1,61.25,49.93ZM21.12,30.37a.8.8,0,0,1,.1-.23c.05.05.14.1.13.13a.5.5,0,0,1-.12.21ZM31.45,47.26a.21.21,0,0,1-.07.11.28.28,0,0,1,0-.12.81.81,0,0,1,.06-.31c0-.07.11.06.06.18A.21.21,0,0,0,31.45,47.26Zm-21.8-23a.26.26,0,0,1,.11,0l.37,0s0,.05,0,.05l-.49.06A.26.26,0,0,1,9.65,24.29Zm5,16.52s0-.06,0-.09a2.21,2.21,0,0,0,0-.25.44.44,0,0,1,.17.07C14.89,40.68,14.72,40.73,14.64,40.81Zm20.81,5.43c0,.08-.09.17-.1.16s-.1-.29,0-.33S35.42,46.15,35.45,46.24ZM64.58,42s0,.06,0,.08.18.21,0,.32h-.06C64.56,42.23,64.34,42.08,64.58,42Zm-33.83,6.1c0-.14,0-.19.12-.13s.07.11.09.17a.38.38,0,0,1,0,.15l-.12-.1Zm50.06-2.93-.23.23,0-.08.3-.26,0,0ZM24.36,31.88a.09.09,0,0,1,0-.08c.05-.12.12-.34.15-.34.24,0-.09.14,0,.21a.86.86,0,0,1-.07.1A.34.34,0,0,1,24.36,31.88ZM66.55,42.41l.14-.08v.47c0-.11-.08-.23-.13-.34S66.53,42.44,66.55,42.41ZM2.92,39.15a.23.23,0,0,1,0-.18c0-.11.08-.23.12-.34,0,.08,0,.17,0,.25s0,0,0,.07S3,39.08,2.92,39.15ZM2,33.22a.24.24,0,0,1-.07.15c-.06.07.2.11,0,.17,0,0-.08-.09-.09-.14a.41.41,0,0,1,0-.22C1.9,33,1.93,33.2,2,33.22Zm5.79,8.64a1.15,1.15,0,0,1,.27.07V42a.59.59,0,0,1-.23,0S7.77,41.91,7.79,41.86ZM24.05,48.8c0,.06.2.11,0,.14s-.17.22-.27,0c0,0,.12-.11.18-.17S24,48.78,24.05,48.8Zm-13.48-8,.2.19c-.06,0-.13.06-.18,0S10.5,40.91,10.57,40.83Zm-.94,0a.77.77,0,0,1-.09.22H9.46l.15-.4.08.08A.21.21,0,0,0,9.63,40.81ZM16,25.65a.34.34,0,0,1-.16-.07l-.14-.16a.85.85,0,0,1,.23,0C16,25.48,16,25.56,16,25.65ZM59.67,50.42c-.09,0-.24.09-.23-.08s.13-.07.19-.07S59.84,50.27,59.67,50.42Zm1.58-1.36c0,.13.23.23,0,.35l-.06.06s0,0,0-.06A1.28,1.28,0,0,1,61.25,49.06ZM48,51.16a2.46,2.46,0,0,1-.1.41s-.05,0-.05,0S47.78,51.23,48,51.16ZM43.24,16.92a.55.55,0,0,1-.12.16c0-.06-.07-.13,0-.16a.55.55,0,0,1,.17-.13Zm-25.71,10a.11.11,0,0,1,.07,0l.17.21-.05,0A.82.82,0,0,1,17.53,26.92Zm4.64,4.55s.07-.09.08-.08c.21.08,0,.14,0,.22s-.06.06-.07.06S22,31.55,22.17,31.47Zm.61.7a.43.43,0,0,1,.24,0s0,.1,0,.16a.47.47,0,0,1-.12-.07A.3.3,0,0,1,22.78,32.17ZM49.11,51.66c0-.08,0-.13,0-.17s.07-.06.1-.09.08.09.07.12a.84.84,0,0,1-.11.21h0S49.12,51.72,49.11,51.66Zm-25-21.77L24,30a.85.85,0,0,1,0-.23s.09,0,.14,0A.41.41,0,0,1,24.1,29.89ZM72.39,46.15a.23.23,0,0,1,.17,0c-.17,0,.11.24-.11.23S72.23,46.32,72.39,46.15ZM28.3,15.06s.13-.09.16-.06.21-.2.24,0-.17.06-.26.09A.26.26,0,0,1,28.3,15.06Zm1.62,33s0,.08,0,.1l-.14.21s0,0,0-.06S29.65,48.07,29.92,48.1ZM12.87,24.44a.61.61,0,0,1-.19-.06s0-.05-.06-.08.05,0,.08,0S12.94,24.26,12.87,24.44Zm9.52-1.84a.1.1,0,0,1,0,.09l-.09.31s-.07-.07-.07-.1a1.34,1.34,0,0,1,.07-.18A.37.37,0,0,1,22.39,22.6ZM67.46,44.55c.21,0,.07.1.11.14l-.13.05A.72.72,0,0,1,67.46,44.55ZM50.68,50.79c-.11-.09-.12-.2,0-.26a.12.12,0,0,1,.08,0l0,.09A.91.91,0,0,0,50.68,50.79Zm21.95-4.93c-.13,0-.19,0-.14-.11s.09-.07.14-.1A.74.74,0,0,1,72.63,45.86Zm5.16-.26.14-.15s0,.08,0,.11l-.14.15,0,0A.14.14,0,0,1,77.79,45.6Zm-60,1.69a.34.34,0,0,1,0-.22s.09-.08.15-.11,0,.1,0,.15A.63.63,0,0,1,17.79,47.29Zm-6.23-5.61c-.11-.08-.12-.2,0-.26s.05,0,.07,0a.44.44,0,0,1,0,.1A.75.75,0,0,0,11.56,41.68Zm6,2.72a.34.34,0,0,1,0-.22s.09-.07.14-.11a.39.39,0,0,1,0,.15A.58.58,0,0,1,17.53,44.4Zm31.86,5.88.11-.11v.26l-.14-.08S49.37,50.32,49.39,50.28ZM16.44,40.61a.08.08,0,0,1-.06-.09,1,1,0,0,1,.1-.21s0,0,.06,0a2.09,2.09,0,0,1-.08.23A.1.1,0,0,1,16.44,40.61Zm57.24,5.45a1,1,0,0,1,0,.3.69.69,0,0,1,0,.13.4.4,0,0,1,0-.15A.71.71,0,0,1,73.68,46.06Zm.13-.79a1.57,1.57,0,0,1,0-.43A1.26,1.26,0,0,1,73.81,45.27ZM70.88,26a.18.18,0,0,1-.11-.07.32.32,0,0,1,0-.14.17.17,0,0,1,.1,0,.52.52,0,0,1,.06.13A.16.16,0,0,1,70.88,26ZM26.63,48.88l.12-.1s0,.06,0,.07a1.15,1.15,0,0,1-.14.17A.31.31,0,0,1,26.63,48.88Zm-12-8.07a.38.38,0,0,1,0,.34s0-.07,0-.11A.49.49,0,0,1,14.6,40.81Zm38.82,9.91a.13.13,0,0,1,.06.09.44.44,0,0,1,0,.15s0-.05-.06-.06S53.35,50.79,53.42,50.72ZM20.73,49.39a1.1,1.1,0,0,1-.05.35A1,1,0,0,1,20.73,49.39Zm.63-2.63a.68.68,0,0,1,.06-.16l.09.15A.16.16,0,0,1,21.36,46.76Zm48.73-2.21a.29.29,0,0,1-.14,0c.08,0,.12-.19.24-.07ZM53.57,50.09a1.16,1.16,0,0,1,0,.16v-.32A.91.91,0,0,1,53.57,50.09ZM24.16,29.61c-.06,0-.08-.08-.08-.11a.42.42,0,0,1,0-.15.58.58,0,0,1,.05.14A.09.09,0,0,1,24.16,29.61ZM22.3,26.17a.29.29,0,0,1-.14,0L22.3,26A.54.54,0,0,1,22.3,26.17ZM12.59,41.66a.19.19,0,0,1-.06-.16s.07,0,.11-.08l0,.14A.22.22,0,0,1,12.59,41.66Zm2.91-1.38a.52.52,0,0,1,.14-.15s0,.06,0,.06A.26.26,0,0,1,15.5,40.28ZM7,39.93s.08,0,.08,0,0,.14.06.2A.46.46,0,0,1,7,39.93Zm52.84,10c-.14-.1,0-.15,0-.22l.06,0A2.19,2.19,0,0,1,59.85,49.89ZM12.89,42a.3.3,0,0,1,.16.08l-.08.07A.36.36,0,0,1,12.89,42Zm26-24.16A2.19,2.19,0,0,1,39,18s-.05,0-.06,0S38.7,17.91,38.84,17.81ZM20.77,49.39a.5.5,0,0,1,0-.21A.78.78,0,0,1,20.8,49s0,.08,0,.11A.53.53,0,0,1,20.77,49.39Zm26.7,2.16a.1.1,0,0,1,.09-.06.48.48,0,0,1,.14,0,.34.34,0,0,0-.06.06C47.57,51.7,47.53,51.62,47.47,51.55ZM36.79,47.4a.21.21,0,0,1-.11-.07l.16-.1A1.28,1.28,0,0,1,36.79,47.4ZM17,42.8a.1.1,0,0,1-.06-.09.83.83,0,0,1,0-.15s0,0,.07.06S17,42.73,17,42.8Zm63.76,2.93-.17.05s0-.05,0-.06l.21-.07v0ZM24.14,32.32a.59.59,0,0,1,0,.26A.48.48,0,0,1,24.14,32.32ZM21,21.14a.23.23,0,0,1,.06.12.21.21,0,0,1,0,.11,1.12,1.12,0,0,0,0-.13A.17.17,0,0,1,21,21.14ZM4.88,26.46a.47.47,0,0,1-.07.17l-.07,0A.62.62,0,0,1,4.88,26.46ZM59,21.62a.32.32,0,0,1,0-.15l.13,0Zm-1.13.18a.31.31,0,0,1-.14,0l.13-.13A.31.31,0,0,1,57.84,21.8Zm-3.9.21a.24.24,0,0,1,.15.08s0,0,0,.07A.47.47,0,0,1,53.94,22Zm-11-3.8a.21.21,0,0,1-.07-.13s0-.07,0-.11a1.12,1.12,0,0,1,0,.13A.16.16,0,0,1,43,18.21Zm-26.17,8,.11.1-.14,0A.21.21,0,0,1,16.79,26.22Zm7.26,6.36s0,0,0,0a1.42,1.42,0,0,1-.05.22A2.3,2.3,0,0,1,24.05,32.58ZM50.44,51.73a.41.41,0,0,1,.12-.14s0,.06,0,.06A.24.24,0,0,1,50.44,51.73Zm-14.18-4.2a.24.24,0,0,1,.15,0l0,.13ZM22.52,22.43a0,0,0,0,1,0,0c0-.07,0-.14.05-.22A1.15,1.15,0,0,1,22.52,22.43Zm1.75,9.71a.5.5,0,0,1,.05-.26A.58.58,0,0,1,24.27,32.14Zm.4-1.13a0,0,0,0,1,0,0,1.6,1.6,0,0,0-.05.21A.72.72,0,0,1,24.67,31ZM40.16,16.57s0,0,0,0,0,.14,0,.21A.72.72,0,0,1,40.16,16.57Zm0,0a.48.48,0,0,1,.08-.18l.06,0A1,1,0,0,1,40.2,16.57ZM39,48.25a.33.33,0,0,1,.17,0A.28.28,0,0,1,39,48.25Zm-5.93-3a.51.51,0,0,1,.08-.17l.06,0A.62.62,0,0,1,33.11,45.27Zm6,2.56a.55.55,0,0,1,.14.12s-.06,0-.06,0A.24.24,0,0,1,39.06,47.83Zm1.75.4a.55.55,0,0,1,.12-.14s0,.06,0,.06A.24.24,0,0,1,40.81,48.23Zm8.49,3s0,0,0,0,0-.14,0-.21A.72.72,0,0,1,49.3,51.22ZM66.46,44a.2.2,0,0,1,.06.13.61.61,0,0,1,0,.11,1.12,1.12,0,0,1,0-.13A.16.16,0,0,1,66.46,44Zm11.2,2.32a.28.28,0,0,1,.08-.15l.06,0A.32.32,0,0,1,77.66,46.3ZM64.05,37.55a.41.41,0,0,1-.14-.12l.06,0A.24.24,0,0,1,64.05,37.55Zm-36-22.32a.28.28,0,0,1-.15,0l-.08-.05s0,0,.06,0A.29.29,0,0,1,28.08,15.23Zm-9.28,13-.11.11,0-.13A.32.32,0,0,1,18.8,28.18Zm3.76,20.7.11.11-.13,0A.34.34,0,0,1,22.56,48.88Zm19.92,1.56a.67.67,0,0,1,.07-.18l.07,0A1,1,0,0,1,42.48,50.44Zm40.61-6a.28.28,0,0,1,.13,0l-.13.13A.19.19,0,0,1,83.09,44.42ZM42.56,49.8a.39.39,0,0,1,0-.14s0-.06.05-.09a.13.13,0,0,1,0,.07A.29.29,0,0,1,42.56,49.8ZM18.32,44.55a.15.15,0,0,1,.12,0v0A.19.19,0,0,1,18.32,44.55Zm-.83.05a.56.56,0,0,1,0,.13l-.06,0S17.45,44.62,17.49,44.6Zm15.45.21s.07,0,.11-.05l0,.05A.19.19,0,0,1,32.94,44.81Zm42.1,0s0,.07,0,.12h0A.19.19,0,0,1,75,44.77ZM25.85,16s.07,0,.11-.08L26,16Zm59.34,28s0,.07,0,.12h0A.19.19,0,0,1,85.19,44.07ZM52,51.68s-.07,0-.11.06l0-.05A.27.27,0,0,1,52,51.68ZM41.73,17.73a.19.19,0,0,1,0,.13l0,0S41.7,17.75,41.73,17.73ZM82.82,45.16a.28.28,0,0,1,0-.13l0,0S82.86,45.14,82.82,45.16ZM64,43.72h.13l0,.06A.2.2,0,0,1,64,43.72ZM22.5,18.32s0,.05,0,.08S22.47,18.35,22.5,18.32Zm22.67,32.9s-.06,0-.09,0A.1.1,0,0,1,45.17,51.22ZM85.71,43.5a.17.17,0,0,1,.12,0l0,0A.22.22,0,0,1,85.71,43.5ZM51.23,22.36a.17.17,0,0,1,.05.12l-.05,0A.22.22,0,0,1,51.23,22.36Zm-28.75.07a.26.26,0,0,1-.05.17A.3.3,0,0,1,22.48,22.43Zm24,28.42a.19.19,0,0,1-.13,0V50.8A.22.22,0,0,1,46.46,50.85ZM64,45.47s0,.07,0,.12h0A.19.19,0,0,1,64,45.47Zm2.51-22.6a.05.05,0,0,1,0,.08S66.49,22.9,66.52,22.87Zm-9.56.5h-.13v-.06A.2.2,0,0,1,57,23.37Zm-44,19.26a.17.17,0,0,1-.06-.12l.06,0A.65.65,0,0,1,12.94,42.63ZM46.59,50a.23.23,0,0,1,.06.12h-.06A.28.28,0,0,1,46.59,50ZM20,24.18A.75.75,0,0,1,20,24H20A.28.28,0,0,1,20,24.18ZM17.14,45.8a.38.38,0,0,1,0,.15h-.06A.28.28,0,0,1,17.14,45.8Zm12.34,3.76a.38.38,0,0,1,0,.15h-.06A.53.53,0,0,1,29.48,49.56Zm-20.7-25a.41.41,0,0,1,.12-.08v.06ZM55.23,49.39s-.06,0-.08,0A.05.05,0,0,1,55.23,49.39Zm-38.4-7.2a.55.55,0,0,1,0-.13h.06A.17.17,0,0,1,16.83,42.19ZM8.74,24.53l-.12.08,0-.06Zm2.88,16.54a.29.29,0,0,1,0,.16l0,0A.48.48,0,0,1,11.62,41.07Zm28.91,8.14s0,.06,0,.09S40.5,49.24,40.53,49.21ZM7.47,25a.31.31,0,0,1,.11-.08l0,.05Zm7.92.19a.17.17,0,0,1-.12.06v0A.25.25,0,0,1,15.39,25.16ZM5.1,26.37a.36.36,0,0,1,.12-.08l0,.05Zm-.17.09a.29.29,0,0,1,.13-.09A.36.36,0,0,1,4.93,26.46ZM61.34,48.58a.17.17,0,0,1-.06-.12l.06,0A.65.65,0,0,1,61.34,48.58ZM11.8,40.7a.2.2,0,0,1-.06-.12h.06A.28.28,0,0,1,11.8,40.7Zm48.36,7.79a.19.19,0,0,1,0-.13h.05C60.2,48.42,60.19,48.47,60.16,48.49Zm-22.37-.26a.22.22,0,0,1,0-.12l0,0A.22.22,0,0,1,37.79,48.23ZM63.7,46.74h-.13v-.06A.2.2,0,0,1,63.7,46.74ZM23.4,28.45a.22.22,0,0,1,0-.14l.05,0A.22.22,0,0,1,23.4,28.45ZM36.31,46.78a.31.31,0,0,1,0,.14l0,0A.17.17,0,0,1,36.31,46.78ZM22.74,48.14h-.13v-.06A.2.2,0,0,1,22.74,48.14Zm1.44-15.82a.31.31,0,0,1,.05-.18A.31.31,0,0,1,24.18,32.32ZM61.43,47.66a.27.27,0,0,1,0,.13h-.05C61.38,47.73,61.39,47.68,61.43,47.66Zm-30.55,0a.28.28,0,0,1,0,.13h-.06A.2.2,0,0,1,30.88,47.66ZM2.63,35.82s.06,0,.09,0S2.66,35.85,2.63,35.82Zm21.6,11.62s-.05-.07-.06-.12h.06A.55.55,0,0,1,24.23,47.44Zm-20-9s0-.07,0-.11l0,0A.19.19,0,0,1,4.18,38.42ZM63.7,47.18h-.13v-.06C63.63,47.13,63.68,47.14,63.7,47.18Zm-27-.22a.06.06,0,0,1-.06,0A0,0,0,0,1,36.66,47Zm-.22,0s0,0,.05,0S36.47,47,36.44,47ZM4.36,38.12s0,0-.06,0A0,0,0,0,1,4.36,38.12ZM7.2,39s0,0,.06,0A.07.07,0,0,1,7.2,39Zm-3.5.65s0,0,0,.06A.07.07,0,0,1,3.7,39.69Zm7.4,0s0,0-.06,0A.09.09,0,0,1,11.1,39.69Zm52.6,8s0,0,0-.05S63.71,47.67,63.7,47.7ZM9.83,40.35s0,0,.06,0A.06.06,0,0,1,9.83,40.35ZM24.71,31a.08.08,0,0,1,0-.08A.16.16,0,0,1,24.71,31ZM20.9,30.5s0,0-.06,0S20.87,30.5,20.9,30.5Zm-1.49-1.66s0,0-.05,0A0,0,0,0,1,19.41,28.84ZM41.91,48s0,0,0-.05A.06.06,0,0,1,41.91,48Zm21.66,0s0,0,.06,0S63.6,48,63.57,48ZM19.09,28.75l.08,0A.08.08,0,0,1,19.09,28.75ZM36.61,46.83s0,0,.06,0A.07.07,0,0,1,36.61,46.83Zm-1.4,0s0,0,.06,0A.07.07,0,0,1,35.21,46.83ZM31.1,48.14s0,0,.06,0A.07.07,0,0,1,31.1,48.14ZM11.84,40.37a.13.13,0,0,1,0-.08A.09.09,0,0,1,11.84,40.37ZM69.08,28.05s0,0,0,.06A.07.07,0,0,1,69.08,28.05ZM10.92,40.44s0,0,0-.06A0,0,0,0,1,10.92,40.44Zm11,7.92s0,0-.05,0S21.92,48.35,22,48.36Zm6.7,0s0,0,0,.06S28.64,48.39,28.65,48.36ZM80.24,27.09s0,0,0,0A0,0,0,0,1,80.24,27.09ZM11.8,40.37a.11.11,0,0,1,0,.08A.16.16,0,0,1,11.8,40.37Zm65.64,6a.08.08,0,0,1,0,.08A.41.41,0,0,1,77.44,46.41ZM25.67,48.53s0,0,0,.06S25.67,48.57,25.67,48.53ZM17.25,26.65l.08,0A.08.08,0,0,1,17.25,26.65Zm-.09-.13s-.05,0-.08,0Zm58.75,20s0,0,.06,0A.09.09,0,0,1,75.91,46.48ZM11.67,41.07s0,0,0-.08S11.69,41.05,11.67,41.07Zm65.82,5.34s0,0,0-.08A.12.12,0,0,1,77.49,46.41Zm-36.85,2.3s0,0,0,.06S40.63,48.74,40.64,48.71ZM21.43,26s0,0-.06,0A.07.07,0,0,1,21.43,26ZM6.81,25.38s0,0,0-.05A0,0,0,0,1,6.81,25.38Zm5.86,15.67s0,0,0-.06S12.68,41,12.67,41.05Zm9-15.89s0,0,0,.06A0,0,0,0,1,21.65,25.16ZM16.22,41s0,0,0,.05S16.21,41,16.22,41ZM7.42,25s0,.05,0,.08S7.4,25,7.42,25Zm46.3,24.18s0,0,0,0S53.69,49.14,53.72,49.15ZM14.86,25a.06.06,0,0,1,0-.06A0,0,0,0,1,14.86,25ZM72.15,46.21s0,0,0,0S72.18,46.22,72.15,46.21Zm-8.19,0s0,0,0-.05S64,46.18,64,46.21ZM12.63,41.27s0,0,0,.06A.07.07,0,0,1,12.63,41.27Zm52,.68a.08.08,0,0,1,0-.08A.16.16,0,0,1,64.62,42ZM19.81,24.46a.07.07,0,0,1,0,.06A0,0,0,0,1,19.81,24.46ZM20.2,46a.06.06,0,0,1,0-.06A0,0,0,0,1,20.2,46Zm39.47,3.28s0,0-.05,0A0,0,0,0,1,59.67,49.32Zm12.56-3.41s0,0,0,.05S72.23,45.94,72.23,45.91ZM40.29,49.47s0,0,0-.08S40.31,49.45,40.29,49.47Zm0,0s0,.06,0,.09A.15.15,0,0,1,40.24,49.47ZM8,42.36s0,0,0,0A0,0,0,0,1,8,42.36Zm34.92,7.22s0,0-.06,0A.09.09,0,0,1,42.87,49.58ZM13.46,24.38s0,0-.05,0S13.43,24.37,13.46,24.38ZM22,24.33s0,0,0,0S22,24.3,22,24.33Zm22.1,25.39s0,0,.06,0A.06.06,0,0,1,44.05,49.72ZM19.94,24.18a.13.13,0,0,1,0,.08A.09.09,0,0,1,19.94,24.18Zm.7,25.56a.16.16,0,0,1,0,.08A.11.11,0,0,1,20.64,49.74Zm-9.28-7.33s0,0-.06,0S11.33,42.4,11.36,42.41ZM61.25,49.8s0,0,0,0A0,0,0,0,1,61.25,49.8Zm-44.07-4a.11.11,0,0,1,0-.08A.1.1,0,0,1,17.18,45.8Zm67.13-2.91s0,0,.06,0S84.35,42.89,84.31,42.89Zm-20.87.17s0,0,0-.05A0,0,0,0,1,63.44,43.06ZM43.92,50.28s0,0-.06,0S43.89,50.28,43.92,50.28Zm-1.53.24s0-.05,0-.08A.06.06,0,0,1,42.39,50.52Zm0,0a.32.32,0,0,1,0,.09A.11.11,0,0,1,42.35,50.52ZM75,45.47s0,0,0,.06A0,0,0,0,1,75,45.47ZM24.4,22.52s0,.05,0,.08S24.38,22.54,24.4,22.52ZM17.62,43.37s0,0,0,.06A.07.07,0,0,1,17.62,43.37Zm6.83-20.85a.11.11,0,0,1,0-.08A.13.13,0,0,1,24.45,22.52ZM82.69,45.34s0,0,0-.06A0,0,0,0,1,82.69,45.34Zm-15-1.93s0,0,.06,0A0,0,0,0,1,67.68,43.41Zm14-21.61s0,0,0,0S81.72,21.8,81.69,21.8Zm-21.53-.57s0,0,0,.05S60.15,21.26,60.16,21.23Zm-39-.66s0,0,0-.06A0,0,0,0,1,21.16,20.57ZM46.24,51.25s0,0,0,0A0,0,0,0,1,46.24,51.25Zm3,0a.16.16,0,0,1,0,.09A.16.16,0,0,1,49.26,51.22Zm3-30.74s0,0,0-.05S52.24,20.45,52.24,20.48ZM17.79,43.68s0,0,.06,0A.07.07,0,0,1,17.79,43.68Zm34.14,7.79s0,0,.06,0S52,51.47,51.93,51.47ZM50.57,20.26s0,0,0,0A.06.06,0,0,1,50.57,20.26Zm13.35,24.9s0,0,.06,0S64,45.17,63.92,45.16ZM17.66,43.81s0,0-.05,0S17.63,43.8,17.66,43.81ZM32.76,45s0,0,0,0A0,0,0,0,1,32.76,45ZM45.89,17.59s0,0,.06,0A0,0,0,0,1,45.89,17.59Zm-3.81,0s0,0,0-.05S42.09,17.56,42.08,17.59Zm-4-.26s0,0,.06,0A0,0,0,0,1,38.1,17.33ZM25.8,16s0,.05,0,.08A.26.26,0,0,1,25.8,16Zm44.55,28s0,0,0,0A0,0,0,0,1,70.35,44.07ZM33.2,44.9s0,0,.06,0S33.23,44.91,33.2,44.9ZM35,15.58s0,0,.06,0S35,15.59,35,15.58Zm39,29.26s0-.06,0-.09A.32.32,0,0,1,73.9,44.84Zm-55.1-.68s0,0-.06,0S18.77,44.15,18.8,44.16Zm14.75-29s0,0,0,.05S33.54,15.22,33.55,15.19ZM72.19,5.34s0,0,0-.06S72.2,5.31,72.19,5.34ZM17.49,44.4a.13.13,0,0,1,0,.08A.09.09,0,0,1,17.49,44.4Zm1.18,0s0,0,0,.06A.06.06,0,0,1,18.67,44.42ZM17.25,26.61s-.06,0-.09,0S17.22,26.57,17.25,26.61Zm1.49-1.9a1,1,0,0,1-.12.41,1.4,1.4,0,0,0-.15.77s0,.11,0,.11a.26.26,0,0,1-.15,0c-.21-.16-.19-.2-.06-.45s.22-.54.33-.82S18.65,24.71,18.74,24.71Zm-.09-.53a.55.55,0,0,1,.12-.16.61.61,0,0,1,.05.12s0,.09,0,.13-.08.17-.17.21-.06,0-.09,0A2.25,2.25,0,0,0,18.65,24.18Zm.87-2.45c0,.16,0,.2-.14.16s0-.11,0-.14A.12.12,0,0,1,19.52,21.73Zm.62-.79.16,0H20Zm-1.05,3.13A.41.41,0,0,1,19,24h.06A.86.86,0,0,1,19.09,24.07Zm0,0,.08,0A.08.08,0,0,1,19.09,24.11Zm-.2-.26s0,0-.06,0A.06.06,0,0,1,18.89,23.85Zm1.75-3.46s0,0,0-.05A0,0,0,0,1,20.64,20.39ZM64.86,46.15c0-.35,0-.66.09-1,0-.09.11-.24.17-.24s.17.14.18.27a6.57,6.57,0,0,1-.18,1.72.27.27,0,0,1-.16.17s-.14-.05-.17-.11A.85.85,0,0,1,64.86,46.15Zm.88-.81c-.06.07-.15.17-.16.15s-.12-.23-.08-.37a.19.19,0,0,1,.14,0A.54.54,0,0,1,65.74,45.34Zm-.81-.7.13-.07a.4.4,0,0,1,0,.11.26.26,0,0,1-.09.09h-.11A.88.88,0,0,1,64.93,44.64Zm0,3a.27.27,0,0,1,0,.13l-.13-.13A.22.22,0,0,1,64.93,47.66Zm-.24.5c0-.06,0-.11,0-.17A.27.27,0,0,1,64.69,48.16Zm1.57-1.75s.06,0,.09,0S66.29,46.44,66.26,46.41Zm-.15.55s0,0,0,.06S66.1,47,66.11,47Zm-.57.61s0,0-.06,0A.06.06,0,0,1,65.54,47.57Zm-33,1c.16,0,.27,0,.26.2s.13.3-.15.32a.27.27,0,0,1,0-.13s-.13,0-.15.07,0,.33-.16.42l-.18.08c0-.06,0-.11,0-.16a1.94,1.94,0,0,1,.11-.78.76.76,0,0,0,.06-.38c0-.15.06-.31.08-.46s0-.35,0-.52a.5.5,0,0,1,0-.12.47.47,0,0,1,.12.07c.14.16.27.32.4.49a.84.84,0,0,1,0,.79,1.82,1.82,0,0,1-.34.09.27.27,0,0,1-.13,0l0,.06Zm.07.52s0,.06,0,.09A.16.16,0,0,1,32.63,49.12Z"/></g></g></svg>