<svg xmlns="http://www.w3.org/2000/svg" viewBox="0 0 64.45 54"><defs><style>.cls-1{fill:#ccc;}.cls-2{fill:#999;}.cls-3{fill:#666;}.cls-4{fill:#b3b3b3;opacity:0.25;}</style></defs><title>rough-stone-medium</title><g id="Layer_2" data-name="Layer 2"><g id="rough-stone-medium"><path id="void" class="cls-1" d="M20.1,28c-.18.64-.39,1.27-.61,1.89a.22.22,0,0,1-.25.19,4.16,4.16,0,0,0-1.27.07,4.64,4.64,0,0,1-.64.17c-.58.11-1.16.19-1.74.28,0,0-.09.1-.09,0,0-.31-.16-.28-.36-.19s-.14,0-.17,0c-.3-.21-.69-.32-.92-.67a24,24,0,0,0-1.59-2.62c-.46-.57-.87-1.16-1.35-1.71s-1.22-1.27-1.82-1.91c0,0-.08-.12-.06-.14a.28.28,0,0,1,.16-.09,3.34,3.34,0,0,0,1.36-.5,1.66,1.66,0,0,1,.54-.29,8.29,8.29,0,0,0,1.24-.68,1.3,1.3,0,0,1,.66-.22,4.21,4.21,0,0,0,.61-.16,3,3,0,0,0,.71-.43h0l0,.05c.3.29.61.58.89.89a3.78,3.78,0,0,1,.86,1.2,5.74,5.74,0,0,0,1,1.68,13.3,13.3,0,0,1,.86,1.12,7,7,0,0,0,.86.94c.32.29.64.56.95.87C20.06,27.77,20.13,27.91,20.1,28ZM52.84,8.15a8.87,8.87,0,0,0-.54-.71.94.94,0,0,0-.25-.18,6.63,6.63,0,0,0-1.12-.43,6.22,6.22,0,0,1-1.71-.75,4,4,0,0,0-1.46-.74,8.57,8.57,0,0,0-.86-.27c-.49-.07-1-.11-1.49-.17-.36-.06-.72-.16-1.08-.22s-.83-.24-1.26-.29a4.28,4.28,0,0,1-1.27-.3,6,6,0,0,0-1.11-.36c-.69-.16-1.4-.28-2.09-.42L38,3.13A7.77,7.77,0,0,1,37,3c-.54-.08-1.06-.2-1.59-.32a2.6,2.6,0,0,1-.59-.21,4.28,4.28,0,0,1-1.36-1.35,1,1,0,0,0-1.2-.45,15.93,15.93,0,0,0-1.66.66A8.08,8.08,0,0,1,28.47,2a10.4,10.4,0,0,0-1.08.23,3.87,3.87,0,0,1-1.66.27c-.34,0-.7,0-1.05,0a.67.67,0,0,0-.19,0,2.12,2.12,0,0,0,.2.12,4.71,4.71,0,0,1,.69.27c1.08.69,2.15,1.4,3.21,2.11a2.91,2.91,0,0,0,1.11.56,5.58,5.58,0,0,1,1.67.62.25.25,0,0,0,.1,0c0-.13,0-.29.12-.33a.73.73,0,0,1,.36,0l1.58.36c.53.12,1.06.13,1.59.22a2.9,2.9,0,0,0,1,0,4.6,4.6,0,0,1,1,0c.38,0,.77,0,1.15.08s.47.16.71.21a1.83,1.83,0,0,1,1.07.66.58.58,0,0,0,.11,0,6.28,6.28,0,0,0,1.36.77c.37.17.37.18.21.56a.36.36,0,0,1,0,.09s.06,0,.07,0c.29-.16.6,0,.9-.07s.59-.07.89-.09A5.72,5.72,0,0,1,45.54,9c.3.09.61.13.9.19s.6.19.91.25.62.12.94.17a3.9,3.9,0,0,0,1.46-.31,19.74,19.74,0,0,1,1.88-.63c.37-.06.68-.3,1.08-.24.06,0,.14,0,.22-.06S52.88,8.21,52.84,8.15Zm-12,.35a3.68,3.68,0,0,1-1.34-.83,1.42,1.42,0,0,0-.71-.41c-.25-.06-.52-.13-.77-.17s-.31-.2-.48,0a4.84,4.84,0,0,1-1.14,0,1.56,1.56,0,0,0-.57,0c-.07,0-.13,0-.19,0a5.54,5.54,0,0,0-1.28-.16,5.19,5.19,0,0,1-.79-.12l-1.23-.3s-.07,0-.1,0a.56.56,0,0,0,0,.08c.11.15.27.27.32.42a4.27,4.27,0,0,1,.19.93c0,.73,0,1.46.07,2.19a2.41,2.41,0,0,0,.29.94,6.7,6.7,0,0,0,.63.8c.15.17.33.33.49.5.49.53,1,1.09,1.46,1.62.23.24.54.41.79.63s.16,0,.24,0a11.79,11.79,0,0,1,.83-.9c.4-.4.82-.77,1.23-1.17a.34.34,0,0,0,.12-.12,11,11,0,0,0,.24-1.11.65.65,0,0,1,.14-.37c.2-.22.36-.46.58-.73.33-.46.66-.92,1-1.37,0,0,.07-.06.07-.1S41,8.57,40.85,8.5ZM62.53,30.37c0-.11-.06-.23,0-.31h0l-.17-.33a7.75,7.75,0,0,1-.68-1.91.52.52,0,0,0-.18-.33,11.06,11.06,0,0,0-1-.63c-.12-.07-.26-.1-.39-.17a2.53,2.53,0,0,1-.86-.49,1.23,1.23,0,0,0-.4-.23.36.36,0,0,0-.47.14,3.94,3.94,0,0,1-1.41,1.25,8.1,8.1,0,0,0-1.37,1.31c-.18.17-.31.37-.48.55a2.53,2.53,0,0,1-.39.31,6.91,6.91,0,0,1-1.37,1.57,5.36,5.36,0,0,0-1.49,1.51,2.31,2.31,0,0,1-.94.83,3.84,3.84,0,0,0-1.34.91c-.35.41-.65.85-1,1.27a1.16,1.16,0,0,0-.36.74s.06.55.08.63.09.27.16.39a.24.24,0,0,1,0,.3,4.71,4.71,0,0,0-.72,1.3c-.11.35,0,.43.31.51a5.69,5.69,0,0,0,1.48.16c.13,0,.27,0,.4-.07a.31.31,0,0,1,.19,0c.27.15.6.19.82.46s.2.13.34-.07a12.34,12.34,0,0,1,1.18-1.54c.54-.52,1-1.11,1.52-1.67a2,2,0,0,1,1.28-.66,2.83,2.83,0,0,0,1-.12c.46-.26.9-.56,1.34-.83a3.1,3.1,0,0,0,.81-.88,6.85,6.85,0,0,1,.84-.77c.23-.21.45-.41.69-.6a3.84,3.84,0,0,1,.73-.56,6.87,6.87,0,0,0,1.08-.83c.08-.07.13-.15.21-.21a1.48,1.48,0,0,1,.79-.07v-.12A3.22,3.22,0,0,0,62.53,30.37Z"/><path id="void-2" data-name="void" class="cls-2" d="M39,46.6c0-.14,0-.33-.06-.48-.17-.54-.35-1.06-.51-1.6-.08-.34-.13-.69-.21-1s-.21-.79-.32-1.17-.23-.81-.35-1.2a.28.28,0,0,0,0-.11s-.1.06-.11.11a.86.86,0,0,0,0,.28,2.11,2.11,0,0,1-.17.82,4.83,4.83,0,0,0-.1.59c-.06.35-.12.71-.2,1.05-.27.91-.54,1.82-.8,2.74a4.48,4.48,0,0,0-.09.64c0,.37,0,.76-.07,1.14,0,.54,0,1.1-.1,1.65a7,7,0,0,1-.17,1,.32.32,0,0,1-.32.3A.33.33,0,0,1,35,51a4.35,4.35,0,0,1,.05-.48c0-.29.09-.58.11-.87,0-.48.08-1,.08-1.44a10.65,10.65,0,0,1,.16-1.37,7.83,7.83,0,0,1,.18-1.06,4.33,4.33,0,0,1,.18-.73,11.58,11.58,0,0,0,.42-1.42c.18-.6.17-1.24.35-1.83a8.6,8.6,0,0,0,.23-2.47.81.81,0,0,0-.09-.42,4,4,0,0,1-.42-1.51,6.18,6.18,0,0,1,.17-2c.07-.6.07-1.21.08-1.81,0-.34-.21-.46-.52-.3a3.67,3.67,0,0,0-1.07.93,5.88,5.88,0,0,0-.75,1.28,3.68,3.68,0,0,1-1.36,1.24c-.59.37-1.21.68-1.81,1-.33.18-.63.41-1,.62a.49.49,0,0,1-.14,0c0-.05,0-.12,0-.16a.76.76,0,0,1,.18-.22,18.26,18.26,0,0,1,1.68-1.2,8.11,8.11,0,0,0,1.11-.72,3.56,3.56,0,0,0,1-1.52,1.17,1.17,0,0,1,.17-.26,10,10,0,0,1,1.65-1.48c.1-.06.22-.09.33-.15s.23-.14.11-.38A6.11,6.11,0,0,1,35.38,31a6.84,6.84,0,0,1-.27-1.19,5.51,5.51,0,0,1,.08-1.21c.06-.42.15-.84.24-1.25s.24-.91.35-1.37a5.83,5.83,0,0,0,.41-2.11c-.12-.89,0-1.8-.1-2.7A17.85,17.85,0,0,1,36,19.35a11.89,11.89,0,0,1,.09-1.69,5.86,5.86,0,0,0,.07-1.1.42.42,0,0,0-.63-.38,11.44,11.44,0,0,1-1.62.95,7,7,0,0,1-1.62.49,3.77,3.77,0,0,0-1,.4.35.35,0,0,0-.12.2A11.42,11.42,0,0,0,31,20a12.16,12.16,0,0,1-.12,1.33,4.21,4.21,0,0,0,0,.5,8.75,8.75,0,0,1-.24,1.84c-.05.23,0,.48-.08.72a17.29,17.29,0,0,1-.35,1.71c-.08.33-.1.68-.17,1,0,.12-.05.23-.08.35-.08.38-.16.76-.26,1.15,0,.07-.09.12-.13.18a1.08,1.08,0,0,1,0-.19,2.29,2.29,0,0,1,0-.53c.11-.49.24-1,.32-1.48A11.29,11.29,0,0,1,30.2,25a2.9,2.9,0,0,0,.09-.72A6.38,6.38,0,0,1,30.45,23a1.94,1.94,0,0,0,0-.34c.1-1.22.07-2.45.08-3.68a2.33,2.33,0,0,1,0-.37,2.76,2.76,0,0,0-.29.3,7.53,7.53,0,0,1-1.63,1.45,4.43,4.43,0,0,0-.89,1.09,18.52,18.52,0,0,0-1,2,2.22,2.22,0,0,1-.69,1.14.66.66,0,0,1-.19.09.85.85,0,0,1,0-.17c.27-.72.51-1.44.82-2.15a8,8,0,0,1,.58-1,6.32,6.32,0,0,1,1.29-1.53c.3-.28.64-.53,1-.81a1.21,1.21,0,0,0,.27-.35,2.33,2.33,0,0,1,.75-.68c.31-.22.63-.4.93-.59a2.29,2.29,0,0,1,1-.32A5.86,5.86,0,0,0,34,16.56a5,5,0,0,0,1.13-.63c.27-.2.54-.37.82-.57a.19.19,0,0,0,0-.32l-.57-.47a3.06,3.06,0,0,1-.29-.21,22.23,22.23,0,0,0-1.66-1.84A7.06,7.06,0,0,1,32.35,11a2,2,0,0,1-.12-.46,22.2,22.2,0,0,1-.09-2.45A2.79,2.79,0,0,0,32,7.32a.7.7,0,0,0-.33-.39c-.51-.23-1-.43-1.58-.62-.23-.08-.46-.11-.69-.19a6.05,6.05,0,0,1-1.43-.79c-.75-.49-1.5-1-2.27-1.44L24,2.88c-.1-.07-.2-.13-.29,0a3.09,3.09,0,0,1-1.19.59c-.44.17-.87.39-1.32.54s-1,.29-1.47.43a1.71,1.71,0,0,0-.88.51c-.13.15-.28.27-.41.42a6.46,6.46,0,0,0-.79.93,17.75,17.75,0,0,1-1.3,1.57,1.08,1.08,0,0,0-.31.72c0,.15-.07.3-.07.47s.08.26.07.38a9.08,9.08,0,0,1-.07,1.73c-.08.3-.05.63-.1.93-.07.5-.18,1-.27,1.49a7.39,7.39,0,0,0-.14.82c-.05.55,0,1.1-.1,1.64,0,.39-.21.75-.22,1.13s-.16.81-.2,1.22A11.8,11.8,0,0,0,14.73,20s0,.2,0,.36a.43.43,0,0,1,.47.38c0,.17.24.33.4.42.35.17.49.52.75.79a6.62,6.62,0,0,1,.85,1.49A13.43,13.43,0,0,0,18,24.65c.41.54.81,1.07,1.26,1.59a11.9,11.9,0,0,0,1,.87c.18.14.42.24.52.41a1.06,1.06,0,0,1,0,.59,3,3,0,0,1-.13.61c-.08.26-.19.49-.28.74a4.62,4.62,0,0,0-.29,1c-.05.27-.18.3-.37.3s-.33,0-.49,0l-.45,0-.68.09-1.58.25-1.16.25a.42.42,0,0,0-.25.37,6.58,6.58,0,0,1-.45,1.81.53.53,0,0,0,0,.18,9.55,9.55,0,0,1-.17,1.4,1.71,1.71,0,0,0,.12.62c.18.44.18.44.63.78a.86.86,0,0,1,.26.31,6,6,0,0,0,.92,1.39,5.42,5.42,0,0,1,.88,1.48,6,6,0,0,1,.22.83c0,.05,0,.1,0,.14.36.45.25,1.05.49,1.56a10.8,10.8,0,0,1,.46,1.32.59.59,0,0,1,.05.23.55.55,0,0,1-.12.19.4.4,0,0,1-.08-.16,5.55,5.55,0,0,0-.69-1.35,1.31,1.31,0,0,1-.09-.34l-.57-1.5A6.28,6.28,0,0,0,16.07,39a5.88,5.88,0,0,0-.62-.84c-.26-.28-.36-.65-.59-.93-.1-.12-.21-.23-.31-.34s-.33-.31-.48-.47-.05-.13-.07-.2-.08.14-.11.21c-.44,1-.88,1.93-1.31,2.91a3.15,3.15,0,0,0-.27.89c-.05.39-.32.69-.36,1.08,0,.05-.08.08-.11.11s-.12-.1-.12-.15,0-.16.06-.25c.09-.53.14-1.06.28-1.59a6.85,6.85,0,0,1,.44-1.19c.39-.88.81-1.74,1.18-2.63a3.73,3.73,0,0,0,.21-1c0-.36,0-.73.09-1.1a.43.43,0,0,1,.1-.25,2,2,0,0,0,.41-1.14,3.39,3.39,0,0,1,.22-.83.35.35,0,0,0-.12-.43c-.23-.17-.46-.32-.68-.5a1,1,0,0,1-.27-.22A11.39,11.39,0,0,1,13,28.93,14.06,14.06,0,0,0,11.71,27a15.48,15.48,0,0,0-1.89-2.16c-.32-.3-.61-.61-.92-.91,0,0-.12-.06-.17-.1s-.19-.17-.27-.15-.16.13-.24.22c-.19.25-.4.5-.59.76s-.39.57-.6.85-.62.78-.91,1.17c-.7.92-1.4,1.84-2.08,2.77a11.29,11.29,0,0,0-.69,1.1.41.41,0,0,0-.05.3,3.45,3.45,0,0,1,.14,1.74,12.43,12.43,0,0,1-.55,2.63c-.15.47-.18,1-.36,1.45a3.28,3.28,0,0,1-.28.6c-.17.31-.37.61-.56.9s-.43.69-.62,1a9.8,9.8,0,0,0-.36,1s0,.07.06.12c.19.5.38,1,.6,1.52s.43,1,.61,1.59a1.07,1.07,0,0,0,.57.7s.05,0,.06,0a24.12,24.12,0,0,1,1.81,2c.49.68,1,1.35,1.46,2.05a12,12,0,0,1,.61,1c.07.16.15.2.34.14.62-.17,1.24-.33,1.86-.46.3-.06.6,0,.9-.09a19.21,19.21,0,0,1,2.74-.08l2-.1,2.19-.17a7,7,0,0,1,1.12,0,7.12,7.12,0,0,1,1.1.16c.28.06.57.1.86.17a5.85,5.85,0,0,1,1.07.23c.4.15.86.16,1.27.29s1.09.43,1.62.64c.68.28,1.31.64,2,.89a7.81,7.81,0,0,1,1.54,1c.16.1.29.25.45.34a4.35,4.35,0,0,0,1.26.62,4.72,4.72,0,0,1,.83.32,1,1,0,0,0,.89,0,21.12,21.12,0,0,1,2.32-.92,1.48,1.48,0,0,0,.51-.27c.24-.2.56-.21.82-.37l0,0a15.4,15.4,0,0,1,1.8,0,6.74,6.74,0,0,0,1.67.11c.2,0,.38-.21.57-.33,0,0,0-.13,0-.19-.19-.41-.18-.39.11-.7a3,3,0,0,0,.77-.94,3.39,3.39,0,0,0,.23-1A5.49,5.49,0,0,0,39,46.6Zm12.16,3.91a3.51,3.51,0,0,1-.07-.72,1.29,1.29,0,0,0,0-.34,5,5,0,0,1-.15-1.15c-.07-.4,0-.83-.11-1.22a3.78,3.78,0,0,0-.35-1.2,2.29,2.29,0,0,1-.22-.67c-.1-.41-.19-.83-.26-1.24a.89.89,0,0,1,0-.28,16.94,16.94,0,0,0,.59-1.91,1.85,1.85,0,0,0-.21-1.24.52.52,0,0,0-.56-.26,4.54,4.54,0,0,1-2-.19.29.29,0,0,0-.32.08c-.11.09-.31.25-.35.22-.3-.22-.26.08-.33.19a1.77,1.77,0,0,0-.19.68,2.42,2.42,0,0,1-.27,1.07,4.89,4.89,0,0,0-.54,1.07,6.45,6.45,0,0,1-1.12,2A4.31,4.31,0,0,0,44,46.65a5.59,5.59,0,0,1-.51,1.23,4.45,4.45,0,0,0-.26.48c-.12.25-.11.29.15.37l1.34.34a2.46,2.46,0,0,0,.29.07c.34,0,.69,0,1,.1a3,3,0,0,1,1,.33,9.21,9.21,0,0,1,.93.51,5.57,5.57,0,0,1,1.18.72,6.16,6.16,0,0,0,1,.79c.19.13.42.36.67.22s.2-.4.21-.62A2.3,2.3,0,0,0,51.14,50.51ZM48.5,48.82c-.09-.09-.25-.16-.28-.26-.13-.48-.24-1-.34-1.46s-.08-.74-.18-1.1-.08-.63-.16-.94-.11-.55-.15-.82a3.44,3.44,0,0,1-.1-.63,5,5,0,0,0-.17-.94c-.06-.35-.11-.71-.17-1.06,0-.19-.06-.37-.08-.56a.62.62,0,0,1,0-.23c.07-.15.19-.29.34-.23a.31.31,0,0,1,.18.4,2.06,2.06,0,0,0,0,.78,5.77,5.77,0,0,0,.17.94,9.11,9.11,0,0,0,.23,1.45A2.65,2.65,0,0,1,48,45a14.24,14.24,0,0,0,.18,1.6c0,.22.06.43.09.67s.24.74.35,1.1l0,0C48.58,48.54,48.54,48.67,48.5,48.82Z"/><path id="void-3" data-name="void" class="cls-3" d="M58.44,25.1c-.17,0-.32,0-.58.36a5,5,0,0,1-1.19,1.15,4.41,4.41,0,0,0-1.42,1.23,5.42,5.42,0,0,1-.71.8,7.75,7.75,0,0,0-.75.77,5.23,5.23,0,0,1-1.29,1.36,2.56,2.56,0,0,0-.44.36c-.41.48-.8,1-1.22,1.46a1.11,1.11,0,0,1-.37.32,4.5,4.5,0,0,0-1.55,1,10.76,10.76,0,0,0-1.05,1.29,1.5,1.5,0,0,0-.41,1.17,4.54,4.54,0,0,0,.14.66.7.7,0,0,1-.08.62,2.92,2.92,0,0,0-.4.88,2.23,2.23,0,0,1-.63,1.09,1.06,1.06,0,0,0-.37.39c-.12.36-.17.74-.27,1.11a3.55,3.55,0,0,1-.33,1.08c-.17.3-.27.65-.42,1a7.5,7.5,0,0,1-.85,1.58,6.13,6.13,0,0,0-.92,1.64A10.89,10.89,0,0,1,42.59,48a1.07,1.07,0,0,0-.18.47,1,1,0,0,1-.63.86l-.07,0c-.67.64-1.35,1.26-2,1.88l-.21.21c-.07.06-.54,0-.55-.06a.71.71,0,0,1,0-.48c.14-.2.37-.36.53-.56a1.27,1.27,0,0,0,.43-.79c0-.19.13-.35.14-.54a6,6,0,0,0,0-1.2,13,13,0,0,0-.32-1.3c-.12-.49-.2-1-.36-1.48-.26-.82-.47-1.64-.65-2.47a17.53,17.53,0,0,0-.92-2.73c-.2-.47-.33-1-.58-1.41a7.6,7.6,0,0,1-.18-.88,3.72,3.72,0,0,1,0-1.66c0-.29.1-.6.13-.9a9.08,9.08,0,0,0,0-1.38,4.36,4.36,0,0,0-.17-.86,5.7,5.7,0,0,0-.66-1.36,3.79,3.79,0,0,1-.42-1.21,2,2,0,0,1-.08-.72,3.25,3.25,0,0,1,.08-.45c.08-.58.14-1.17.26-1.75s.29-1.05.44-1.58a3.51,3.51,0,0,0,.23-1.25c0-.8-.06-1.6-.07-2.41,0-1.77,0-3.54.06-5.31v-.07a.6.6,0,0,0,0-.12,2,2,0,0,0,0-.54c0-.22-.07-.42.14-.61s.24-.31.38-.46.6-.52.88-.8.64-.64,1-.94a1.84,1.84,0,0,0,.53-.88,4,4,0,0,0,.12-.66.89.89,0,0,1,.21-.52c.22-.27.42-.58.64-.86s.52-.71.79-1.06c0,0,.06-.17.14,0s.38.26.63.22a1.8,1.8,0,0,1,.32-.06,5.71,5.71,0,0,0,.83,0,6.54,6.54,0,0,1,.77,0,4.61,4.61,0,0,1,1.11.19c.25.05.49.17.74.24.43.11.87.2,1.31.29s.7.16,1.05.21A3,3,0,0,0,49.8,10a11.16,11.16,0,0,0,1.43-.52,8.5,8.5,0,0,1,1.25-.33.47.47,0,0,1,.63.27c.46.94,1,1.84,1.48,2.76.06.13.11.28.17.43a5.69,5.69,0,0,1,.26.56,3.71,3.71,0,0,0,.57,1,3.18,3.18,0,0,1,.66,1.16c.1.4.2.82.29,1.22a4.06,4.06,0,0,1,.08.68c0,.18-.07.37-.08.55a1.88,1.88,0,0,1-.13.75,5.56,5.56,0,0,0-.36,1.23.78.78,0,0,1-.44.67c-.23.11-.42.25-.64.38a5.43,5.43,0,0,1-2.2.92,2.52,2.52,0,0,0-.89.25,7.91,7.91,0,0,0-1.9,1.3c-.34.29-.68.59-1,.85a18.51,18.51,0,0,0-2.08,1.77c-.09.07-.18.17-.28.26-.47.45-.95.88-1.42,1.34a.64.64,0,0,0-.06.22.56.56,0,0,0,.17-.09.75.75,0,0,0,.21-.12c.7-.59,1.32-1.26,2.06-1.81.45-.33.85-.7,1.3-1,.72-.54,1.47-1.06,2.19-1.6a4,4,0,0,1,1.57-.69,3.58,3.58,0,0,0,1.1-.29c.73-.43,1.46-.86,2.2-1.28.25-.14.37-.11.39.14A2.11,2.11,0,0,0,56.73,22c.35.56.72,1.1,1.06,1.66a4.94,4.94,0,0,1,.26.57A8.84,8.84,0,0,0,58.44,25.1Zm5.18,11.34a5.46,5.46,0,0,1-.18-1c-.12-.7-.18-1.4-.36-2.09a9.62,9.62,0,0,1-.38-1.69l-.26.2c-.34.3-.66.62-1,.89-.53.4-1.07.79-1.59,1.22a6.81,6.81,0,0,0-1.25,1.32,1.59,1.59,0,0,1-.46.39c-.4.27-.81.55-1.22.81a1.56,1.56,0,0,1-.8.23,3.7,3.7,0,0,0-.88.08,1.92,1.92,0,0,0-.84.6c-.32.35-.62.7-.95,1a7.78,7.78,0,0,0-1.2,1.43,8.16,8.16,0,0,1-.79,1,.23.23,0,0,0-.07.31.71.71,0,0,1,0,.41,8.57,8.57,0,0,1-.54,1.92,2,2,0,0,0,0,1.36c.13.47.31.93.47,1.4a2.55,2.55,0,0,1,.15.52c.05.3.05.6.1.89.09.5.06,1,.16,1.49a12.81,12.81,0,0,1,.09,1.39c0,.25.05.49.08.73s.08,0,.1,0c.23-.35.64-.41,1-.61.81-.47,1.63-.89,2.43-1.34.46-.25.9-.54,1.37-.77.78-.38,1.46-.89,2.25-1.27a11.38,11.38,0,0,0,1.37-.93c.55-.37.91-1,1.5-1.27.1,0,.16-.21.2-.33.07-.35.12-.71.17-1.07.08-.6.25-1.18.37-1.76s.37-.87.48-1.33a7.76,7.76,0,0,1,.24-.86A5.94,5.94,0,0,0,63.74,38,3.66,3.66,0,0,0,63.62,36.44Z"/><path id="fill2" class="cls-4" d="M20.1,28c-.18.64-.39,1.27-.61,1.89a.22.22,0,0,1-.25.19,4.16,4.16,0,0,0-1.27.07,4.64,4.64,0,0,1-.64.17c-.58.11-1.16.19-1.74.28,0,0-.09.1-.09,0,0-.31-.16-.28-.36-.19s-.14,0-.17,0c-.3-.21-.69-.32-.92-.67a24,24,0,0,0-1.59-2.62c-.46-.57-.87-1.16-1.35-1.71s-1.22-1.27-1.82-1.91c0,0-.08-.12-.06-.14a.28.28,0,0,1,.16-.09,3.34,3.34,0,0,0,1.36-.5,1.66,1.66,0,0,1,.54-.29,8.29,8.29,0,0,0,1.24-.68,1.3,1.3,0,0,1,.66-.22,4.21,4.21,0,0,0,.61-.16,3,3,0,0,0,.71-.43h0l0,.05c.3.29.61.58.89.89a3.78,3.78,0,0,1,.86,1.2,5.74,5.74,0,0,0,1,1.68,13.3,13.3,0,0,1,.86,1.12,7,7,0,0,0,.86.94c.32.29.64.56.95.87C20.06,27.77,20.13,27.91,20.1,28ZM52.84,8.15a8.87,8.87,0,0,0-.54-.71.94.94,0,0,0-.25-.18,6.63,6.63,0,0,0-1.12-.43,6.22,6.22,0,0,1-1.71-.75,4,4,0,0,0-1.46-.74,8.57,8.57,0,0,0-.86-.27c-.49-.07-1-.11-1.49-.17-.36-.06-.72-.16-1.08-.22s-.83-.24-1.26-.29a4.28,4.28,0,0,1-1.27-.3,6,6,0,0,0-1.11-.36c-.69-.16-1.4-.28-2.09-.42L38,3.13A7.77,7.77,0,0,1,37,3c-.54-.08-1.06-.2-1.59-.32a2.6,2.6,0,0,1-.59-.21,4.28,4.28,0,0,1-1.36-1.35,1,1,0,0,0-1.2-.45,15.93,15.93,0,0,0-1.66.66A8.08,8.08,0,0,1,28.47,2a10.4,10.4,0,0,0-1.08.23,3.87,3.87,0,0,1-1.66.27c-.34,0-.7,0-1.05,0a.67.67,0,0,0-.19,0,2.12,2.12,0,0,0,.2.12,4.71,4.71,0,0,1,.69.27c1.08.69,2.15,1.4,3.21,2.11a2.91,2.91,0,0,0,1.11.56,5.58,5.58,0,0,1,1.67.62.25.25,0,0,0,.1,0c0-.13,0-.29.12-.33a.73.73,0,0,1,.36,0l1.58.36c.53.12,1.06.13,1.59.22a2.9,2.9,0,0,0,1,0,4.6,4.6,0,0,1,1,0c.38,0,.77,0,1.15.08s.47.16.71.21a1.83,1.83,0,0,1,1.07.66.58.58,0,0,0,.11,0,6.28,6.28,0,0,0,1.36.77c.37.17.37.18.21.56a.36.36,0,0,1,0,.09s.06,0,.07,0c.29-.16.6,0,.9-.07s.59-.07.89-.09A5.72,5.72,0,0,1,45.54,9c.3.09.61.13.9.19s.6.19.91.25.62.12.94.17a3.9,3.9,0,0,0,1.46-.31,19.74,19.74,0,0,1,1.88-.63c.37-.06.68-.3,1.08-.24.06,0,.14,0,.22-.06S52.88,8.21,52.84,8.15Zm-12,.35a3.68,3.68,0,0,1-1.34-.83,1.42,1.42,0,0,0-.71-.41c-.25-.06-.52-.13-.77-.17s-.31-.2-.48,0a4.84,4.84,0,0,1-1.14,0,1.56,1.56,0,0,0-.57,0c-.07,0-.13,0-.19,0a5.54,5.54,0,0,0-1.28-.16,5.19,5.19,0,0,1-.79-.12l-1.23-.3s-.07,0-.1,0a.56.56,0,0,0,0,.08c.11.15.27.27.32.42a4.27,4.27,0,0,1,.19.93c0,.73,0,1.46.07,2.19a2.41,2.41,0,0,0,.29.94,6.7,6.7,0,0,0,.63.8c.15.17.33.33.49.5.49.53,1,1.09,1.46,1.62.23.24.54.41.79.63s.16,0,.24,0a11.79,11.79,0,0,1,.83-.9c.4-.4.82-.77,1.23-1.17a.34.34,0,0,0,.12-.12,11,11,0,0,0,.24-1.11.65.65,0,0,1,.14-.37c.2-.22.36-.46.58-.73.33-.46.66-.92,1-1.37,0,0,.07-.06.07-.1S41,8.57,40.85,8.5ZM62.53,30.37c0-.11-.06-.23,0-.31h0l-.17-.33a7.75,7.75,0,0,1-.68-1.91.52.52,0,0,0-.18-.33,11.06,11.06,0,0,0-1-.63c-.12-.07-.26-.1-.39-.17a2.53,2.53,0,0,1-.86-.49,1.23,1.23,0,0,0-.4-.23.36.36,0,0,0-.47.14,3.94,3.94,0,0,1-1.41,1.25,8.1,8.1,0,0,0-1.37,1.31c-.18.17-.31.37-.48.55a2.53,2.53,0,0,1-.39.31,6.91,6.91,0,0,1-1.37,1.57,5.36,5.36,0,0,0-1.49,1.51,2.31,2.31,0,0,1-.94.83,3.84,3.84,0,0,0-1.34.91c-.35.41-.65.85-1,1.27a1.16,1.16,0,0,0-.36.74s.06.55.08.63.09.27.16.39a.24.24,0,0,1,0,.3,4.71,4.71,0,0,0-.72,1.3c-.11.35,0,.43.31.51a5.69,5.69,0,0,0,1.48.16c.13,0,.27,0,.4-.07a.31.31,0,0,1,.19,0c.27.15.6.19.82.46s.2.13.34-.07a12.34,12.34,0,0,1,1.18-1.54c.54-.52,1-1.11,1.52-1.67a2,2,0,0,1,1.28-.66,2.83,2.83,0,0,0,1-.12c.46-.26.9-.56,1.34-.83a3.1,3.1,0,0,0,.81-.88,6.85,6.85,0,0,1,.84-.77c.23-.21.45-.41.69-.6a3.84,3.84,0,0,1,.73-.56,6.87,6.87,0,0,0,1.08-.83c.08-.07.13-.15.21-.21a1.48,1.48,0,0,1,.79-.07v-.12A3.22,3.22,0,0,0,62.53,30.37ZM39,46.6c0-.14,0-.33-.06-.48-.17-.54-.35-1.06-.51-1.6-.08-.34-.13-.69-.21-1s-.21-.79-.32-1.17-.23-.81-.35-1.2a.28.28,0,0,0,0-.11s-.1.06-.11.11a.86.86,0,0,0,0,.28,2.11,2.11,0,0,1-.17.82,4.83,4.83,0,0,0-.1.59c-.06.35-.12.71-.2,1.05-.27.91-.54,1.82-.8,2.74a4.48,4.48,0,0,0-.09.64c0,.37,0,.76-.07,1.14,0,.54,0,1.1-.1,1.65a7,7,0,0,1-.17,1,.32.32,0,0,1-.32.3A.33.33,0,0,1,35,51a4.35,4.35,0,0,1,.05-.48c0-.29.09-.58.11-.87,0-.48.08-1,.08-1.44a10.65,10.65,0,0,1,.16-1.37,7.83,7.83,0,0,1,.18-1.06,4.33,4.33,0,0,1,.18-.73,11.58,11.58,0,0,0,.42-1.42c.18-.6.17-1.24.35-1.83a8.6,8.6,0,0,0,.23-2.47.81.81,0,0,0-.09-.42,4,4,0,0,1-.42-1.51,6.18,6.18,0,0,1,.17-2c.07-.6.07-1.21.08-1.81,0-.34-.21-.46-.52-.3a3.67,3.67,0,0,0-1.07.93,5.88,5.88,0,0,0-.75,1.28,3.68,3.68,0,0,1-1.36,1.24c-.59.37-1.21.68-1.81,1-.33.18-.63.41-1,.62a.49.49,0,0,1-.14,0c0-.05,0-.12,0-.16a.76.76,0,0,1,.18-.22,18.26,18.26,0,0,1,1.68-1.2,8.11,8.11,0,0,0,1.11-.72,3.56,3.56,0,0,0,1-1.52,1.17,1.17,0,0,1,.17-.26,10,10,0,0,1,1.65-1.48c.1-.06.22-.09.33-.15s.23-.14.11-.38A6.11,6.11,0,0,1,35.38,31a6.84,6.84,0,0,1-.27-1.19,5.51,5.51,0,0,1,.08-1.21c.06-.42.15-.84.24-1.25s.24-.91.35-1.37a5.83,5.83,0,0,0,.41-2.11c-.12-.89,0-1.8-.1-2.7A17.85,17.85,0,0,1,36,19.35a11.89,11.89,0,0,1,.09-1.69,5.86,5.86,0,0,0,.07-1.1.42.42,0,0,0-.63-.38,11.44,11.44,0,0,1-1.62.95,7,7,0,0,1-1.62.49,3.77,3.77,0,0,0-1,.4.35.35,0,0,0-.12.2A11.42,11.42,0,0,0,31,20a12.16,12.16,0,0,1-.12,1.33,4.21,4.21,0,0,0,0,.5,8.75,8.75,0,0,1-.24,1.84c-.05.23,0,.48-.08.72a17.29,17.29,0,0,1-.35,1.71c-.08.33-.1.68-.17,1,0,.12-.05.23-.08.35-.08.38-.16.76-.26,1.15,0,.07-.09.12-.13.18a1.08,1.08,0,0,1,0-.19,2.29,2.29,0,0,1,0-.53c.11-.49.24-1,.32-1.48A11.29,11.29,0,0,1,30.2,25a2.9,2.9,0,0,0,.09-.72A6.38,6.38,0,0,1,30.45,23a1.94,1.94,0,0,0,0-.34c.1-1.22.07-2.45.08-3.68a2.33,2.33,0,0,1,0-.37,2.76,2.76,0,0,0-.29.3,7.53,7.53,0,0,1-1.63,1.45,4.43,4.43,0,0,0-.89,1.09,18.52,18.52,0,0,0-1,2,2.22,2.22,0,0,1-.69,1.14.66.66,0,0,1-.19.09.85.85,0,0,1,0-.17c.27-.72.51-1.44.82-2.15a8,8,0,0,1,.58-1,6.32,6.32,0,0,1,1.29-1.53c.3-.28.64-.53,1-.81a1.21,1.21,0,0,0,.27-.35,2.33,2.33,0,0,1,.75-.68c.31-.22.63-.4.93-.59a2.29,2.29,0,0,1,1-.32A5.86,5.86,0,0,0,34,16.56a5,5,0,0,0,1.13-.63c.27-.2.54-.37.82-.57a.19.19,0,0,0,0-.32l-.57-.47a3.06,3.06,0,0,1-.29-.21,22.23,22.23,0,0,0-1.66-1.84A7.06,7.06,0,0,1,32.35,11a2,2,0,0,1-.12-.46,22.2,22.2,0,0,1-.09-2.45A2.79,2.79,0,0,0,32,7.32a.7.7,0,0,0-.33-.39c-.51-.23-1-.43-1.58-.62-.23-.08-.46-.11-.69-.19a6.05,6.05,0,0,1-1.43-.79c-.75-.49-1.5-1-2.27-1.44L24,2.88c-.1-.07-.2-.13-.29,0a3.09,3.09,0,0,1-1.19.59c-.44.17-.87.39-1.32.54s-1,.29-1.47.43a1.71,1.71,0,0,0-.88.51c-.13.15-.28.27-.41.42a6.46,6.46,0,0,0-.79.93,17.75,17.75,0,0,1-1.3,1.57,1.08,1.08,0,0,0-.31.72c0,.15-.07.3-.07.47s.08.26.07.38a9.08,9.08,0,0,1-.07,1.73c-.08.3-.05.63-.1.93-.07.5-.18,1-.27,1.49a7.39,7.39,0,0,0-.14.82c-.05.55,0,1.1-.1,1.64,0,.39-.21.75-.22,1.13s-.16.81-.2,1.22A11.8,11.8,0,0,0,14.73,20s0,.2,0,.36a.43.43,0,0,1,.47.38c0,.17.24.33.4.42.35.17.49.52.75.79a6.62,6.62,0,0,1,.85,1.49A13.43,13.43,0,0,0,18,24.65c.41.54.81,1.07,1.26,1.59a11.9,11.9,0,0,0,1,.87c.18.14.42.24.52.41a1.06,1.06,0,0,1,0,.59,3,3,0,0,1-.13.61c-.08.26-.19.49-.28.74a4.62,4.62,0,0,0-.29,1c-.05.27-.18.3-.37.3s-.33,0-.49,0l-.45,0-.68.09-1.58.25-1.16.25a.42.42,0,0,0-.25.37,6.58,6.58,0,0,1-.45,1.81.53.53,0,0,0,0,.18,9.55,9.55,0,0,1-.17,1.4,1.71,1.71,0,0,0,.12.62c.18.44.18.44.63.78a.86.86,0,0,1,.26.31,6,6,0,0,0,.92,1.39,5.42,5.42,0,0,1,.88,1.48,6,6,0,0,1,.22.83c0,.05,0,.1,0,.14.36.45.25,1.05.49,1.56a10.8,10.8,0,0,1,.46,1.32.59.59,0,0,1,.05.23.55.55,0,0,1-.12.19.4.4,0,0,1-.08-.16,5.55,5.55,0,0,0-.69-1.35,1.31,1.31,0,0,1-.09-.34l-.57-1.5A6.28,6.28,0,0,0,16.07,39a5.88,5.88,0,0,0-.62-.84c-.26-.28-.36-.65-.59-.93-.1-.12-.21-.23-.31-.34s-.33-.31-.48-.47-.05-.13-.07-.2-.08.14-.11.21c-.44,1-.88,1.93-1.31,2.91a3.15,3.15,0,0,0-.27.89c-.05.39-.32.69-.36,1.08,0,.05-.08.08-.11.11s-.12-.1-.12-.15,0-.16.06-.25c.09-.53.14-1.06.28-1.59a6.85,6.85,0,0,1,.44-1.19c.39-.88.81-1.74,1.18-2.63a3.73,3.73,0,0,0,.21-1c0-.36,0-.73.09-1.1a.43.43,0,0,1,.1-.25,2,2,0,0,0,.41-1.14,3.39,3.39,0,0,1,.22-.83.35.35,0,0,0-.12-.43c-.23-.17-.46-.32-.68-.5a1,1,0,0,1-.27-.22A11.39,11.39,0,0,1,13,28.93,14.06,14.06,0,0,0,11.71,27a15.48,15.48,0,0,0-1.89-2.16c-.32-.3-.61-.61-.92-.91,0,0-.12-.06-.17-.1s-.19-.17-.27-.15-.16.13-.24.22c-.19.25-.4.5-.59.76s-.39.57-.6.85-.62.78-.91,1.17c-.7.92-1.4,1.84-2.08,2.77a11.29,11.29,0,0,0-.69,1.1.41.41,0,0,0-.05.3,3.45,3.45,0,0,1,.14,1.74,12.43,12.43,0,0,1-.55,2.63c-.15.47-.18,1-.36,1.45a3.28,3.28,0,0,1-.28.6c-.17.31-.37.61-.56.9s-.43.69-.62,1a9.8,9.8,0,0,0-.36,1s0,.07.06.12c.19.5.38,1,.6,1.52s.43,1,.61,1.59a1.07,1.07,0,0,0,.57.7s.05,0,.06,0a24.12,24.12,0,0,1,1.81,2c.49.68,1,1.35,1.46,2.05a12,12,0,0,1,.61,1c.07.16.15.2.34.14.62-.17,1.24-.33,1.86-.46.3-.06.6,0,.9-.09a19.21,19.21,0,0,1,2.74-.08l2-.1,2.19-.17a7,7,0,0,1,1.12,0,7.12,7.12,0,0,1,1.1.16c.28.06.57.1.86.17a5.85,5.85,0,0,1,1.07.23c.4.15.86.16,1.27.29s1.09.43,1.62.64c.68.28,1.31.64,2,.89a7.81,7.81,0,0,1,1.54,1c.16.1.29.25.45.34a4.35,4.35,0,0,0,1.26.62,4.72,4.72,0,0,1,.83.32,1,1,0,0,0,.89,0,21.12,21.12,0,0,1,2.32-.92,1.48,1.48,0,0,0,.51-.27c.24-.2.56-.21.82-.37l0,0a15.4,15.4,0,0,1,1.8,0,6.74,6.74,0,0,0,1.67.11c.2,0,.38-.21.57-.33,0,0,0-.13,0-.19-.19-.41-.18-.39.11-.7a3,3,0,0,0,.77-.94,3.39,3.39,0,0,0,.23-1A5.49,5.49,0,0,0,39,46.6Zm12.16,3.91a3.51,3.51,0,0,1-.07-.72,1.29,1.29,0,0,0,0-.34,5,5,0,0,1-.15-1.15c-.07-.4,0-.83-.11-1.22a3.78,3.78,0,0,0-.35-1.2,2.29,2.29,0,0,1-.22-.67c-.1-.41-.19-.83-.26-1.24a.89.89,0,0,1,0-.28,16.94,16.94,0,0,0,.59-1.91,1.85,1.85,0,0,0-.21-1.24.52.52,0,0,0-.56-.26,4.54,4.54,0,0,1-2-.19.29.29,0,0,0-.32.08c-.11.09-.31.25-.35.22-.3-.22-.26.08-.33.19a1.77,1.77,0,0,0-.19.68,2.42,2.42,0,0,1-.27,1.07,4.89,4.89,0,0,0-.54,1.07,6.45,6.45,0,0,1-1.12,2A4.31,4.31,0,0,0,44,46.65a5.59,5.59,0,0,1-.51,1.23,4.45,4.45,0,0,0-.26.48c-.12.25-.11.29.15.37l1.34.34a2.46,2.46,0,0,0,.29.07c.34,0,.69,0,1,.1a3,3,0,0,1,1,.33,9.21,9.21,0,0,1,.93.51,5.57,5.57,0,0,1,1.18.72,6.16,6.16,0,0,0,1,.79c.19.13.42.36.67.22s.2-.4.21-.62A2.3,2.3,0,0,0,51.14,50.51ZM48.5,48.82c-.09-.09-.25-.16-.28-.26-.13-.48-.24-1-.34-1.46s-.08-.74-.18-1.1-.08-.63-.16-.94-.11-.55-.15-.82a3.44,3.44,0,0,1-.1-.63,5,5,0,0,0-.17-.94c-.06-.35-.11-.71-.17-1.06,0-.19-.06-.37-.08-.56a.62.62,0,0,1,0-.23c.07-.15.19-.29.34-.23a.31.31,0,0,1,.18.4,2.06,2.06,0,0,0,0,.78,5.77,5.77,0,0,0,.17.94,9.11,9.11,0,0,0,.23,1.45A2.65,2.65,0,0,1,48,45a14.24,14.24,0,0,0,.18,1.6c0,.22.06.43.09.67s.24.74.35,1.1l0,0C48.58,48.54,48.54,48.67,48.5,48.82ZM58.44,25.1c-.17,0-.32,0-.58.36a5,5,0,0,1-1.19,1.15,4.41,4.41,0,0,0-1.42,1.23,5.42,5.42,0,0,1-.71.8,7.75,7.75,0,0,0-.75.77,5.23,5.23,0,0,1-1.29,1.36,2.56,2.56,0,0,0-.44.36c-.41.48-.8,1-1.22,1.46a1.11,1.11,0,0,1-.37.32,4.5,4.5,0,0,0-1.55,1,10.76,10.76,0,0,0-1.05,1.29,1.5,1.5,0,0,0-.41,1.17,4.54,4.54,0,0,0,.14.66.7.7,0,0,1-.08.62,2.92,2.92,0,0,0-.4.88,2.23,2.23,0,0,1-.63,1.09,1.06,1.06,0,0,0-.37.39c-.12.36-.17.74-.27,1.11a3.55,3.55,0,0,1-.33,1.08c-.17.3-.27.65-.42,1a7.5,7.5,0,0,1-.85,1.58,6.13,6.13,0,0,0-.92,1.64A10.89,10.89,0,0,1,42.59,48a1.07,1.07,0,0,0-.18.47,1,1,0,0,1-.63.86l-.07,0c-.67.64-1.35,1.26-2,1.88l-.21.21c-.07.06-.54,0-.55-.06a.71.71,0,0,1,0-.48c.14-.2.37-.36.53-.56a1.27,1.27,0,0,0,.43-.79c0-.19.13-.35.14-.54a6,6,0,0,0,0-1.2,13,13,0,0,0-.32-1.3c-.12-.49-.2-1-.36-1.48-.26-.82-.47-1.64-.65-2.47a17.53,17.53,0,0,0-.92-2.73c-.2-.47-.33-1-.58-1.41a7.6,7.6,0,0,1-.18-.88,3.72,3.72,0,0,1,0-1.66c0-.29.1-.6.13-.9a9.08,9.08,0,0,0,0-1.38,4.36,4.36,0,0,0-.17-.86,5.7,5.7,0,0,0-.66-1.36,3.79,3.79,0,0,1-.42-1.21,2,2,0,0,1-.08-.72,3.25,3.25,0,0,1,.08-.45c.08-.58.14-1.17.26-1.75s.29-1.05.44-1.58a3.51,3.51,0,0,0,.23-1.25c0-.8-.06-1.6-.07-2.41,0-1.77,0-3.54.06-5.31v-.07a.6.6,0,0,0,0-.12,2,2,0,0,0,0-.54c0-.22-.07-.42.14-.61s.24-.31.38-.46.6-.52.88-.8.64-.64,1-.94a1.84,1.84,0,0,0,.53-.88,4,4,0,0,0,.12-.66.89.89,0,0,1,.21-.52c.22-.27.42-.58.64-.86s.52-.71.79-1.06c0,0,.06-.17.14,0s.38.26.63.22a1.8,1.8,0,0,1,.32-.06,5.71,5.71,0,0,0,.83,0,6.54,6.54,0,0,1,.77,0,4.61,4.61,0,0,1,1.11.19c.25.05.49.17.74.24.43.11.87.2,1.31.29s.7.16,1.05.21A3,3,0,0,0,49.8,10a11.16,11.16,0,0,0,1.43-.52,8.5,8.5,0,0,1,1.25-.33.47.47,0,0,1,.63.27c.46.94,1,1.84,1.48,2.76.06.13.11.28.17.43a5.69,5.69,0,0,1,.26.56,3.71,3.71,0,0,0,.57,1,3.18,3.18,0,0,1,.66,1.16c.1.4.2.82.29,1.22a4.06,4.06,0,0,1,.08.68c0,.18-.07.37-.08.55a1.88,1.88,0,0,1-.13.75,5.56,5.56,0,0,0-.36,1.23.78.78,0,0,1-.44.67c-.23.11-.42.25-.64.38a5.43,5.43,0,0,1-2.2.92,2.52,2.52,0,0,0-.89.25,7.91,7.91,0,0,0-1.9,1.3c-.34.29-.68.59-1,.85a18.51,18.51,0,0,0-2.08,1.77c-.09.07-.18.17-.28.26-.47.45-.95.88-1.42,1.34a.64.64,0,0,0-.06.22.56.56,0,0,0,.17-.09.75.75,0,0,0,.21-.12c.7-.59,1.32-1.26,2.06-1.81.45-.33.85-.7,1.3-1,.72-.54,1.47-1.06,2.19-1.6a4,4,0,0,1,1.57-.69,3.58,3.58,0,0,0,1.1-.29c.73-.43,1.46-.86,2.2-1.28.25-.14.37-.11.39.14A2.11,2.11,0,0,0,56.73,22c.35.56.72,1.1,1.06,1.66a4.94,4.94,0,0,1,.26.57A8.84,8.84,0,0,0,58.44,25.1Zm5.18,11.34a5.46,5.46,0,0,1-.18-1c-.12-.7-.18-1.4-.36-2.09a9.62,9.62,0,0,1-.38-1.69l-.26.2c-.34.3-.66.62-1,.89-.53.4-1.07.79-1.59,1.22a6.81,6.81,0,0,0-1.25,1.32,1.59,1.59,0,0,1-.46.39c-.4.27-.81.55-1.22.81a1.56,1.56,0,0,1-.8.23,3.7,3.7,0,0,0-.88.08,1.92,1.92,0,0,0-.84.6c-.32.35-.62.7-.95,1a7.78,7.78,0,0,0-1.2,1.43,8.16,8.16,0,0,1-.79,1,.23.23,0,0,0-.07.31.71.71,0,0,1,0,.41,8.57,8.57,0,0,1-.54,1.92,2,2,0,0,0,0,1.36c.13.47.31.93.47,1.4a2.55,2.55,0,0,1,.15.52c.05.3.05.6.1.89.09.5.06,1,.16,1.49a12.81,12.81,0,0,1,.09,1.39c0,.25.05.49.08.73s.08,0,.1,0c.23-.35.64-.41,1-.61.81-.47,1.63-.89,2.43-1.34.46-.25.9-.54,1.37-.77.78-.38,1.46-.89,2.25-1.27a11.38,11.38,0,0,0,1.37-.93c.55-.37.91-1,1.5-1.27.1,0,.16-.21.2-.33.07-.35.12-.71.17-1.07.08-.6.25-1.18.37-1.76s.37-.87.48-1.33a7.76,7.76,0,0,1,.24-.86A5.94,5.94,0,0,0,63.74,38,3.66,3.66,0,0,0,63.62,36.44Z"/><path id="fill1" d="M54.67,29.53a6.87,6.87,0,0,1-1.38,1.56,5.6,5.6,0,0,0-1.48,1.51,2.25,2.25,0,0,1-.94.83,3.84,3.84,0,0,0-1.34.91c-.35.41-.65.85-1,1.27a1.22,1.22,0,0,0-.37.74,5.12,5.12,0,0,0,.1.63c0,.13.09.27.15.39a.26.26,0,0,1,0,.3,3.86,3.86,0,0,0-.72,1.3c-.11.34-.06.43.3.51a5.72,5.72,0,0,0,1.49.16c.13,0,.25,0,.39-.07a.31.31,0,0,1,.19,0c.27.17.6.2.82.47s.2.13.35-.07a10.69,10.69,0,0,1,1.17-1.53c.53-.53,1-1.12,1.52-1.67a1.9,1.9,0,0,1,1.28-.67,2.45,2.45,0,0,0,1-.13c.46-.24.89-.55,1.34-.82a3.19,3.19,0,0,0,.81-.87,6.41,6.41,0,0,1,.85-.79l.68-.59a3.23,3.23,0,0,1,.74-.55,6.77,6.77,0,0,0,1.07-.85c.08-.05.13-.14.21-.19s1-.16,1,.08c0,.08-.45.39-.51.45-.33.3-.65.62-1,.89-.55.39-1.08.79-1.6,1.22a6.75,6.75,0,0,0-1.24,1.32,1.78,1.78,0,0,1-.47.39c-.4.28-.81.54-1.22.8a1.46,1.46,0,0,1-.79.23,3.74,3.74,0,0,0-.89.09,1.94,1.94,0,0,0-.84.61l-.95,1a7.85,7.85,0,0,0-1.2,1.43,7.37,7.37,0,0,1-.79,1c-.09.1-.14.18-.07.32a.61.61,0,0,1,0,.4,8.61,8.61,0,0,1-.52,1.93,1.93,1.93,0,0,0,0,1.36c.14.47.31.93.47,1.4a3.84,3.84,0,0,1,.16.52c0,.3,0,.6.09.89.09.5.05,1,.15,1.49a10.85,10.85,0,0,1,.1,1.4q0,.36.09.72c0,.11.07,0,.09,0,.23-.35.64-.42,1-.61.8-.46,1.62-.89,2.43-1.34.46-.26.9-.54,1.37-.77.77-.38,1.47-.9,2.25-1.27a15.16,15.16,0,0,0,1.38-.93c.54-.37.9-1,1.49-1.26a.56.56,0,0,0,.2-.34c.07-.35.12-.7.17-1.06.08-.6.25-1.19.37-1.78s.37-.86.49-1.31a6.2,6.2,0,0,1,.24-.87A5.84,5.84,0,0,0,63.74,38a3.42,3.42,0,0,0-.12-1.55,5,5,0,0,1-.18-1c-.12-.7-.18-1.4-.36-2.08a7.45,7.45,0,0,1-.41-2.24,3.29,3.29,0,0,0-.13-.74c0-.14-.1-.32.05-.39s.65,0,.68.27c.06.52.09,1.05.17,1.57s.21,1,.34,1.54A7.38,7.38,0,0,1,64,34.6a10.72,10.72,0,0,0,.25,1.7,4.6,4.6,0,0,1,.16,1c0,.22,0,.45,0,.67a4.08,4.08,0,0,1-.32,1.76c-.13.31-.15.67-.25,1-.17.52-.36,1-.53,1.55a2.59,2.59,0,0,0-.16.52c0,.66-.32,1.27-.34,1.92a1.22,1.22,0,0,1-.1.51,1.73,1.73,0,0,1-.45.52,7.56,7.56,0,0,0-.69.58,6.28,6.28,0,0,1-1.16.94c-.77.54-1.66.87-2.44,1.42a10.92,10.92,0,0,1-1.26.69,2.36,2.36,0,0,0-.52.28,5.56,5.56,0,0,1-1.38.74,8.29,8.29,0,0,0-.91.53c-.33.19-.66.37-1,.57l-1,.62a5.34,5.34,0,0,1-1.29.45.36.36,0,0,1-.25-.08c-.35-.22-.69-.44-1-.68-.16-.11-.31-.26-.47-.38a5.24,5.24,0,0,0-.61-.44c-.58-.32-1.17-.64-1.77-.92a6,6,0,0,0-.76-.19,10.21,10.21,0,0,1-1.52-.3c-.31-.15-.72-.11-1.07-.26,0,0,0,0-.09,0a4,4,0,0,0-1.22.8c-.68.65-1.38,1.28-2.07,1.91-.15.14-.32.25-.47.39a.46.46,0,0,1-.71-.07c-.1-.18-.14-.15-.28-.07a1.53,1.53,0,0,1-1.24.1,7.15,7.15,0,0,0-.93-.1,2.77,2.77,0,0,0-.56-.07,4.64,4.64,0,0,0-1.93.4c-.37.2-.81.3-1.2.47s-.76.31-1.14.5a4.68,4.68,0,0,1-.79.33,1,1,0,0,1-.57,0A9.54,9.54,0,0,1,28,53.18c-.53-.31-1-.66-1.56-1-.26-.17-.52-.37-.79-.53s-.52-.24-.77-.36c-.64-.32-1.33-.53-1.95-.88a5.32,5.32,0,0,0-1.6-.5s-.09,0-.12,0a3.72,3.72,0,0,0-1.13-.31c-.65-.14-1.31-.23-2-.33a15.1,15.1,0,0,0-2-.1,9.16,9.16,0,0,0-1.74.16c-.1,0-.2,0-.3,0-1.23,0-2.47,0-3.7.1A12.09,12.09,0,0,0,7.29,50a2.62,2.62,0,0,1-.8.1.52.52,0,0,1-.59-.38A6.76,6.76,0,0,0,5,48.16c-.34-.46-.66-.94-1-1.4a7.73,7.73,0,0,0-1.24-1.5c-.32-.28-.63-.57-.94-.86a2,2,0,0,1-.52-.84C1.07,42.75.73,42,.41,41.17c-.12-.3-.29-.58-.38-.89a1,1,0,0,1,.12-.74,19.85,19.85,0,0,1,1.49-2.66,4.17,4.17,0,0,0,.47-1.32c.17-.63.32-1.27.48-1.9a4.48,4.48,0,0,0,.11-.5q.06-.46.09-.93a2.92,2.92,0,0,0-.21-1.43.35.35,0,0,1,0-.33A14.09,14.09,0,0,1,3.54,29c.35-.42.66-.88,1-1.31l1.21-1.61c.25-.32.51-.62.76-.95.51-.67,1-1.35,1.52-2A.47.47,0,0,1,8.25,23l1.42-.43a3.52,3.52,0,0,0,.51-.19c.53-.27,1.06-.55,1.6-.81a3.65,3.65,0,0,1,1.33-.43c.21,0,.38-.22.61-.16s1-.49,1.06-.29-.8.67-1,.71a4.21,4.21,0,0,1-.61.16,1.52,1.52,0,0,0-.67.22,6.37,6.37,0,0,1-1.23.67,2,2,0,0,0-.55.3,3.12,3.12,0,0,1-1.35.5.4.4,0,0,0-.17.09s0,.11.07.15c.61.63,1.23,1.25,1.81,1.9s.9,1.14,1.36,1.7a28.27,28.27,0,0,1,1.59,2.63c.24.35.61.45.92.68a.22.22,0,0,0,.16,0c.21-.1.36-.13.36.18,0,.11.06,0,.1,0l1.74-.29c.21,0,.43-.1.64-.16a3.89,3.89,0,0,1,1.27-.08.22.22,0,0,0,.25-.19c.22-.62.43-1.25.62-1.89A.39.39,0,0,0,20,27.7l-.94-.86a7,7,0,0,1-.87-.94,12.83,12.83,0,0,0-.86-1.12,6,6,0,0,1-1-1.68,3.94,3.94,0,0,0-.86-1.2c-.28-.31-.59-.6-.89-.89a.48.48,0,0,1-.18-.35c0-.15,0-.28.16-.28s.55,0,.64.38c0,.16.24.33.4.41.35.18.49.54.75.79a6.52,6.52,0,0,1,.85,1.5A11.59,11.59,0,0,0,18,24.65c.4.54.8,1.08,1.25,1.58a9.17,9.17,0,0,0,1,.88c.17.14.42.24.53.42a1,1,0,0,1,0,.58,3.25,3.25,0,0,1-.13.62c-.08.24-.19.48-.28.72a4.9,4.9,0,0,0-.29,1c0,.27-.17.3-.37.3l-.49,0a3.42,3.42,0,0,0-.45,0l-.68.08c-.53.08-1.06.16-1.58.26s-.77.15-1.16.25c-.18,0-.23.22-.25.37a7.33,7.33,0,0,1-.44,1.79.7.7,0,0,0-.06.19,11.11,11.11,0,0,1-.16,1.4,1.25,1.25,0,0,0,.12.62c.17.44.17.44.62.78a1,1,0,0,1,.26.31,6.06,6.06,0,0,0,.91,1.39,5.08,5.08,0,0,1,.89,1.48,4,4,0,0,1,.21.84s0,.09,0,.12c.36.46.25,1.06.49,1.57a11.42,11.42,0,0,1,.46,1.32.64.64,0,0,1,.05.23c0,.07-.08.13-.12.2a1.4,1.4,0,0,1-.09-.17,5.41,5.41,0,0,0-.68-1.36c-.06-.09-.05-.23-.09-.34-.19-.49-.38-1-.56-1.49a8,8,0,0,0-.81-1.6,7.25,7.25,0,0,0-.63-.83c-.26-.28-.36-.65-.59-.93-.1-.12-.21-.23-.31-.34s-.33-.3-.48-.47-.05-.13-.07-.19a2,2,0,0,0-.11.2c-.44,1-.88,1.94-1.31,2.91a3.15,3.15,0,0,0-.27.89c-.05.39-.32.69-.36,1.08,0,0-.08.08-.12.12s-.12-.1-.12-.16a1.53,1.53,0,0,1,.08-.26c.08-.52.13-1.06.26-1.57a7.56,7.56,0,0,1,.45-1.2c.39-.88.81-1.74,1.18-2.63a4.2,4.2,0,0,0,.21-1c0-.36,0-.73.09-1.1a.43.43,0,0,1,.1-.25,2,2,0,0,0,.41-1.14,4,4,0,0,1,.21-.83.33.33,0,0,0-.11-.43l-.68-.49a1,1,0,0,1-.27-.24A9.12,9.12,0,0,1,13,28.93,13.48,13.48,0,0,0,11.71,27a15.48,15.48,0,0,0-1.89-2.16c-.32-.29-.61-.61-.92-.91a.75.75,0,0,0-.17-.1c-.09-.06-.19-.17-.26-.15s-.17.14-.24.22c-.21.25-.41.51-.6.76s-.39.57-.6.85-.61.78-.92,1.18c-.69.91-1.39,1.83-2.07,2.75a11.44,11.44,0,0,0-.69,1.11.41.41,0,0,0-.05.3,3.6,3.6,0,0,1,.15,1.75,13.29,13.29,0,0,1-.55,2.62c-.16.47-.2,1-.37,1.45a3.28,3.28,0,0,1-.28.6c-.17.31-.37.6-.56.9s-.43.69-.62,1a9.8,9.8,0,0,0-.36,1s0,.07.06.12c.2.5.38,1,.59,1.52s.44,1,.62,1.59a1.1,1.1,0,0,0,.57.7l.07,0a25.92,25.92,0,0,1,1.8,2c.5.67,1,1.35,1.46,2.05a8.37,8.37,0,0,1,.6,1,.25.25,0,0,0,.35.15c.61-.18,1.24-.33,1.86-.47.29-.06.6,0,.89-.09a20.9,20.9,0,0,1,2.74-.08l2-.1c.74-.06,1.47-.11,2.2-.18a10.2,10.2,0,0,1,1.11,0,7.07,7.07,0,0,1,1.11.16l.86.16a6.86,6.86,0,0,1,1.07.24c.41.15.86.16,1.27.29s1.09.43,1.63.65,1.3.63,2,.87a7.86,7.86,0,0,1,1.54,1c.15.1.29.25.45.34a4.35,4.35,0,0,0,1.26.62,4.78,4.78,0,0,1,.83.33,1.06,1.06,0,0,0,.89,0,19.9,19.9,0,0,1,2.31-.93,1.5,1.5,0,0,0,.52-.26c.24-.21.56-.22.82-.38l0,0a13.38,13.38,0,0,1,1.79,0,7.22,7.22,0,0,0,1.67.11,1.39,1.39,0,0,0,.57-.33s0-.13,0-.19c-.19-.4-.18-.4.1-.7s.64-.53.78-.94a3.15,3.15,0,0,0,.22-1,5.1,5.1,0,0,0-.32-2c0-.15,0-.32-.06-.48-.16-.53-.35-1.06-.5-1.6-.1-.34-.14-.7-.22-1s-.21-.79-.32-1.17-.23-.81-.35-1.21c0,0,0-.07,0-.11s-.1.07-.11.11a1.46,1.46,0,0,0,0,.29,1.79,1.79,0,0,1-.16.82,2.8,2.8,0,0,0-.09.59c-.07.35-.12.71-.22,1.05-.25.92-.53,1.82-.79,2.74a4.48,4.48,0,0,0-.08.64q-.06.57-.09,1.14c0,.55,0,1.1-.09,1.65a9,9,0,0,1-.17,1,.31.31,0,0,1-.33.3c-.15,0-.33-.14-.33-.29a4.07,4.07,0,0,1,.05-.49c0-.29.09-.58.11-.87,0-.48.08-1,.08-1.44a9.13,9.13,0,0,1,.16-1.37,7.83,7.83,0,0,1,.18-1.06,5.41,5.41,0,0,1,.18-.72,10.54,10.54,0,0,0,.41-1.43c.2-.6.18-1.24.35-1.83a8.26,8.26,0,0,0,.24-2.47.84.84,0,0,0-.09-.42,4,4,0,0,1-.41-1.52,5.88,5.88,0,0,1,.16-2c.07-.6.07-1.21.09-1.82,0-.33-.23-.45-.53-.29a3.67,3.67,0,0,0-1.07.93,7.2,7.2,0,0,0-.76,1.28,3.6,3.6,0,0,1-1.35,1.25c-.59.36-1.21.67-1.81,1-.33.19-.64.41-1,.62a.58.58,0,0,1-.14,0c0-.05,0-.12,0-.16a.63.63,0,0,1,.18-.22,13.49,13.49,0,0,1,1.69-1.19,9.42,9.42,0,0,0,1.09-.73,3.49,3.49,0,0,0,1-1.52.68.68,0,0,1,.18-.26,8.92,8.92,0,0,1,1.65-1.48c.09-.06.21-.09.32-.15s.23-.14.11-.38A6.33,6.33,0,0,1,35.38,31a8.09,8.09,0,0,1-.28-1.18,6.21,6.21,0,0,1,.09-1.22c.06-.42.14-.84.24-1.25s.25-.91.35-1.37a5.77,5.77,0,0,0,.41-2.1c-.13-.9,0-1.81-.11-2.71,0-.6-.07-1.2-.06-1.79a10.51,10.51,0,0,1,.1-1.69,8.2,8.2,0,0,0,.06-1.1.43.43,0,0,0-.63-.38,11.55,11.55,0,0,1-1.63.95,7.49,7.49,0,0,1-1.61.49,4.2,4.2,0,0,0-1,.41.33.33,0,0,0-.13.19A12.81,12.81,0,0,0,31,20c0,.45-.08.89-.12,1.34,0,.17,0,.33,0,.5a8.67,8.67,0,0,1-.25,1.83c-.05.24,0,.48-.08.73-.1.57-.2,1.14-.34,1.71-.09.33-.12.68-.18,1,0,.12-.06.23-.08.34-.09.39-.17.78-.26,1.16,0,.07-.08.12-.13.18a1.25,1.25,0,0,1,0-.19,2.42,2.42,0,0,1,0-.54c.11-.48.24-1,.31-1.46A13.19,13.19,0,0,1,30.2,25a2.45,2.45,0,0,0,.09-.72A5.14,5.14,0,0,1,30.46,23a1.93,1.93,0,0,0,0-.34c.12-1.22.08-2.45.09-3.68,0-.12,0-.24,0-.37a2.06,2.06,0,0,0-.29.3,7.23,7.23,0,0,1-1.62,1.45,4.33,4.33,0,0,0-.91,1.09,18.44,18.44,0,0,0-1,2,2.35,2.35,0,0,1-.68,1.15,1.19,1.19,0,0,1-.2.08.48.48,0,0,1,.05-.17c.26-.72.51-1.45.81-2.15a10.29,10.29,0,0,1,.58-1,6.47,6.47,0,0,1,1.28-1.53c.32-.28.65-.53,1-.81a1.36,1.36,0,0,0,.27-.35,2.48,2.48,0,0,1,.75-.69c.31-.22.63-.39.94-.59a2.5,2.5,0,0,1,1-.31A6.47,6.47,0,0,0,34,16.56a5.23,5.23,0,0,0,1.13-.64c.27-.19.55-.37.81-.56s.11-.22,0-.32-.37-.31-.56-.46a2.09,2.09,0,0,1-.28-.22,24.3,24.3,0,0,0-1.67-1.84A6.34,6.34,0,0,1,32.35,11a1.43,1.43,0,0,1-.12-.45,20.07,20.07,0,0,1-.09-2.45A2.86,2.86,0,0,0,32,7.32a.74.74,0,0,0-.32-.39c-.52-.23-1.06-.43-1.59-.62-.22-.08-.46-.11-.68-.18a6.19,6.19,0,0,1-1.44-.81c-.75-.48-1.5-1-2.27-1.43-.56-.34-1.15-.67-1.72-1-.1-.06-.2-.14-.29,0a3,3,0,0,1-1.18.6c-.45.17-.88.38-1.33.54s-1,.29-1.47.43a1.61,1.61,0,0,0-.88.51c-.12.15-.28.28-.41.42a6.37,6.37,0,0,0-.79.93,17.75,17.75,0,0,1-1.3,1.57,1.07,1.07,0,0,0-.31.71c0,.16-.07.32-.07.47s.08.26.07.39a9.08,9.08,0,0,1-.07,1.73c-.08.3-.05.63-.1.93-.08.5-.18,1-.27,1.49a7.39,7.39,0,0,0-.14.82c0,.55,0,1.1-.1,1.65,0,.37-.21.74-.22,1.12s-.16.81-.2,1.23A11.38,11.38,0,0,0,14.73,20a3.91,3.91,0,0,1-.07.62c-.15.06-.31-.4-.46-.37s-.13-.07-.13-.11a2.91,2.91,0,0,1,0-.59,2.05,2.05,0,0,0,.07-.34,6,6,0,0,1,.2-1.27c0-.23.09-.46.14-.69a7.53,7.53,0,0,0,.22-1.21c0-.24,0-.48,0-.72a14.55,14.55,0,0,1,.15-1.62c0-.58.19-1.13.28-1.7a13,13,0,0,0,.16-2.41c0-.3-.09-.6-.07-.89a2.39,2.39,0,0,1,.23-1,1.22,1.22,0,0,1,.35-.4,2.85,2.85,0,0,0,.45-.52,9.47,9.47,0,0,0,1-1.34A1.49,1.49,0,0,1,17.71,5a2.82,2.82,0,0,0,.65-.73.66.66,0,0,1,.34-.21,12.06,12.06,0,0,1,1.42-.41,5.53,5.53,0,0,0,1-.35c.52-.18,1-.38,1.53-.59a1.3,1.3,0,0,0,.71-.49.3.3,0,0,1,.13-.09c.22-.08.47-.06.66-.25,0,0,.16,0,.24,0a1,1,0,0,0,.82,0,.22.22,0,0,1,.16,0c.15.07.3,0,.44,0a5.3,5.3,0,0,0,1.67-.35,3.87,3.87,0,0,1,.81-.16A5.76,5.76,0,0,0,30.47.75,9.9,9.9,0,0,1,32.27,0,1.6,1.6,0,0,1,34,.81,2.93,2.93,0,0,0,35.2,2a2.14,2.14,0,0,0,.56.17c.48.12,1,.23,1.46.33.27,0,.54.06.8.1s.71.1,1.07.17,1,.2,1.46.33,1.18.33,1.75.54a3.47,3.47,0,0,0,.7.14A5,5,0,0,1,44.23,4c.3.13.62.11.92.21s.57,0,.85.1a5.77,5.77,0,0,1,1.73.38,1.54,1.54,0,0,0,.63.19,2.58,2.58,0,0,1,1.12.56,3,3,0,0,0,.86.47c.67.22,1.34.48,2,.75a2.05,2.05,0,0,1,1,1.12,1.28,1.28,0,0,1,0,.62.58.58,0,0,0,.13.37,7.37,7.37,0,0,1,.8,1.39c.25.53.55,1,.81,1.56s.39.82.58,1.23a11.64,11.64,0,0,0,.91,1.51,4.28,4.28,0,0,1,.49,1.24,9,9,0,0,1,.15,2.2,2.44,2.44,0,0,1-.18.93,10.4,10.4,0,0,0-.31,1.09,1.11,1.11,0,0,0,.07.43c0,.18.1.35.13.53a3.33,3.33,0,0,0,.63,1.21,8.27,8.27,0,0,1,.89,1.4,4.1,4.1,0,0,1,.2.59c0,.14.2,1.24,0,1.26s-.52-.88-.61-1.09a3.57,3.57,0,0,0-.26-.56c-.35-.56-.71-1.11-1.07-1.67A2.34,2.34,0,0,1,56.28,21c0-.26-.14-.29-.38-.14l-2.2,1.28a3.53,3.53,0,0,1-1.1.3,3.8,3.8,0,0,0-1.57.68c-.73.54-1.47,1.06-2.19,1.61-.44.33-.85.71-1.3,1-.74.55-1.37,1.22-2.06,1.82a1.43,1.43,0,0,1-.21.12l-.17.08c0-.07,0-.17.07-.22.46-.45.94-.89,1.42-1.34l.26-.27a20.7,20.7,0,0,1,2.09-1.76,12,12,0,0,0,1-.86A8.44,8.44,0,0,1,51.88,22a2.59,2.59,0,0,1,.9-.26A5.17,5.17,0,0,0,55,20.82c.21-.13.42-.27.64-.39a.73.73,0,0,0,.44-.65,5.49,5.49,0,0,1,.36-1.24,2.14,2.14,0,0,0,.13-.74c0-.19.08-.37.08-.56a4.06,4.06,0,0,0-.08-.68c-.09-.41-.19-.82-.29-1.22a3.18,3.18,0,0,0-.66-1.16,4,4,0,0,1-.57-1c-.07-.19-.17-.37-.26-.56a3.25,3.25,0,0,0-.18-.43c-.49-.92-1-1.82-1.47-2.76a.48.48,0,0,0-.63-.28,7.2,7.2,0,0,0-1.25.35,10.46,10.46,0,0,1-1.42.51,3.06,3.06,0,0,1-1.39.3q-.53-.09-1.05-.21c-.44-.09-.88-.18-1.31-.29-.25-.07-.49-.18-.74-.24a6.35,6.35,0,0,0-1.88-.19,5.87,5.87,0,0,1-.84,0c-.1,0-.2.05-.3.07-.26,0-.52,0-.64-.22s-.11-.05-.14,0c-.27.35-.53.7-.79,1.06s-.42.59-.64.87a.83.83,0,0,0-.21.5,3,3,0,0,1-.12.67,1.72,1.72,0,0,1-.53.87c-.33.31-.63.64-.95.95s-.6.53-.89.81-.24.32-.39.46-.14.38-.12.6a4.86,4.86,0,0,1,0,.54s0,.08,0,.12,0,.05,0,.08c0,1.77-.1,3.54-.07,5.31,0,.8,0,1.6.07,2.4a3.79,3.79,0,0,1-.23,1.25c-.15.53-.33,1-.44,1.59S36,28.44,35.93,29c0,.15-.07.29-.08.44a2.27,2.27,0,0,0,.07.73,4.37,4.37,0,0,0,.43,1.21A5.06,5.06,0,0,1,37,32.77a3.58,3.58,0,0,1,.18.85,8,8,0,0,1,0,1.38c0,.3-.11.61-.13.9a3.58,3.58,0,0,0,0,1.66c.1.28,0,.63.19.89a14.15,14.15,0,0,1,.57,1.4,17.53,17.53,0,0,1,.92,2.73c.19.83.39,1.65.65,2.47.15.48.24,1,.37,1.48s.25.86.31,1.3A7,7,0,0,1,40,49c0,.18-.13.35-.14.52a1.3,1.3,0,0,1-.42.8,7.4,7.4,0,0,0-.55.57.74.74,0,0,0,0,.47c0,.08.48.12.56.06l.21-.21,2-1.87s0-.05.06-.06a1,1,0,0,0,.63-.86,1.31,1.31,0,0,1,.17-.48,8.46,8.46,0,0,0,.75-1.58,6.56,6.56,0,0,1,.91-1.64,7.58,7.58,0,0,0,.86-1.58c.15-.31.25-.66.43-1a3.83,3.83,0,0,0,.32-1.08c.1-.37.15-.75.27-1.11.05-.16.23-.28.37-.39a2.31,2.31,0,0,0,.63-1.09,2.92,2.92,0,0,1,.4-.88.67.67,0,0,0,.08-.62,4.83,4.83,0,0,1-.14-.66,1.5,1.5,0,0,1,.41-1.17,10.76,10.76,0,0,1,1.05-1.29,4.36,4.36,0,0,1,1.55-1,1.2,1.2,0,0,0,.37-.31c.41-.49.81-1,1.22-1.47a3,3,0,0,1,.44-.36,5.3,5.3,0,0,0,1.28-1.35,8,8,0,0,1,.76-.78,6.66,6.66,0,0,0,.71-.8,4.51,4.51,0,0,1,1.42-1.23,5,5,0,0,0,1.19-1.15c.41-.48.54-.4.94-.25s.54.32.81.47.59.27.88.42c.47.25.94.5,1.4.78a.93.93,0,0,1,.45.65,7.67,7.67,0,0,0,.59,1.81c.15.3.29,1.18,0,1.23-.14,0-.5-.69-.57-.85a7.63,7.63,0,0,1-.68-1.91.49.49,0,0,0-.18-.33c-.34-.23-.69-.43-1-.63a3.33,3.33,0,0,0-.4-.16,2.93,2.93,0,0,1-.85-.5,1.23,1.23,0,0,0-.4-.23.34.34,0,0,0-.47.15,3.89,3.89,0,0,1-1.41,1.23,8.17,8.17,0,0,0-1.37,1.32c-.18.17-.31.38-.48.55s-.25.2-.39.32M38,3.13c-.32,0-.65,0-1-.08-.53-.1-1.06-.22-1.59-.34a1.92,1.92,0,0,1-.58-.21,4,4,0,0,1-1.38-1.34A1,1,0,0,0,32.28.7c-.56.2-1.12.42-1.66.67a8.1,8.1,0,0,1-2.15.6,8.27,8.27,0,0,0-1.08.22,4.24,4.24,0,0,1-1.66.28c-.35,0-.7,0-1.05,0a.77.77,0,0,0-.19,0,2.12,2.12,0,0,0,.2.12,3.81,3.81,0,0,1,.69.27c1.08.69,2.14,1.4,3.21,2.11a2.76,2.76,0,0,0,1.11.55,5.87,5.87,0,0,1,1.68.63s.09,0,.09,0,0-.27.12-.32a.63.63,0,0,1,.36,0l1.58.36c.53.12,1.06.12,1.59.21a2.68,2.68,0,0,0,1,0,4.1,4.1,0,0,1,1,0,8.62,8.62,0,0,1,1.14.09c.25,0,.48.15.72.2a1.81,1.81,0,0,1,1.07.66s.07,0,.1.06a6.51,6.51,0,0,0,1.37.75c.37.18.37.19.21.57l0,.09s.06,0,.08,0c.28-.17.59,0,.89-.08l.89-.08A5.54,5.54,0,0,1,45.55,9c.29.09.59.12.89.19s.6.18.9.25.63.12.94.17a3.91,3.91,0,0,0,1.47-.31c.65-.15,1.21-.54,1.88-.64.36-.05.69-.29,1.08-.23.07,0,.14,0,.21-.06a.53.53,0,0,0-.08-.22c-.17-.24-.34-.48-.53-.7a1,1,0,0,0-.26-.19,6.13,6.13,0,0,0-1.13-.43,5.9,5.9,0,0,1-1.7-.76,4.2,4.2,0,0,0-1.46-.74,8.47,8.47,0,0,0-.86-.25c-.49-.09-1-.11-1.48-.18s-.72-.17-1.09-.21-.83-.25-1.27-.31a4,4,0,0,1-1.26-.29,6,6,0,0,0-1.11-.36c-.69-.16-1.4-.28-2.09-.43-.18,0-.35-.11-.61-.17m9.09,46.44c.31.17.62.32.92.51a5.38,5.38,0,0,1,1.18.73,7.13,7.13,0,0,0,1,.78c.21.14.43.36.68.22s.19-.39.21-.62.12-.48.06-.68a3.58,3.58,0,0,1-.07-.72,1.29,1.29,0,0,0,0-.34,6.37,6.37,0,0,1-.16-1.15c-.06-.4,0-.83-.1-1.23a3.88,3.88,0,0,0-.35-1.19,3.12,3.12,0,0,1-.23-.67c-.09-.41-.17-.82-.25-1.24a.67.67,0,0,1,0-.28c.2-.63.45-1.24.59-1.9a1.91,1.91,0,0,0-.21-1.26.56.56,0,0,0-.56-.26,4.53,4.53,0,0,1-2-.17.27.27,0,0,0-.32.07c-.11.09-.31.25-.35.21-.3-.21-.27.1-.33.2a1.61,1.61,0,0,0-.19.68,2.49,2.49,0,0,1-.27,1.07,5.41,5.41,0,0,0-.55,1.07,6.43,6.43,0,0,1-1.11,2A4.37,4.37,0,0,0,44,46.66a5.4,5.4,0,0,1-.5,1.22c-.09.16-.18.32-.26.48s-.11.29.15.36c.44.13.89.23,1.33.34.1,0,.2.07.3.09.34,0,.68,0,1,.09a3,3,0,0,1,1,.33M39.93,10.2l1-1.36s.07-.07.07-.1.06-.17-.11-.23a3.73,3.73,0,0,1-1.34-.83,1.37,1.37,0,0,0-.71-.42A7,7,0,0,0,38,7.1c-.16,0-.32-.21-.48,0A5.58,5.58,0,0,1,36.4,7a1.53,1.53,0,0,0-.56,0c-.06,0-.14,0-.19,0a6.16,6.16,0,0,0-1.28-.17,5.36,5.36,0,0,1-.79-.11c-.41-.09-.81-.2-1.22-.3,0,0-.08,0-.12,0l.07.09a1.7,1.7,0,0,1,.31.41,3.75,3.75,0,0,1,.19.93c0,.73,0,1.46.07,2.2a2.27,2.27,0,0,0,.3.93,5.13,5.13,0,0,0,.61.8c.16.17.34.33.5.5.49.54,1,1.09,1.46,1.62.23.24.54.41.79.63s.16.06.23,0c.28-.31.54-.62.83-.9s.83-.78,1.24-1.17a.34.34,0,0,0,.12-.12c.09-.37.18-.74.24-1.11a.73.73,0,0,1,.14-.37C39.54,10.72,39.71,10.48,39.93,10.2ZM16.73,7.87s0,0-.05,0S16.7,7.86,16.73,7.87ZM15.17,32.43s0,0,0,0A.06.06,0,0,1,15.17,32.43Zm6.4-14.09s0,0,.05,0A0,0,0,0,1,21.57,18.34ZM48.23,47.28c.13.38.24.74.35,1.1l0,0-.1.4c-.1-.08-.26-.15-.29-.25-.13-.48-.24-1-.34-1.45s-.08-.75-.18-1.11-.08-.63-.16-.94a7.4,7.4,0,0,1-.15-.82,3.44,3.44,0,0,1-.1-.63,4.32,4.32,0,0,0-.17-.94c-.06-.35-.11-.71-.17-1.06,0-.19-.06-.37-.08-.56a.47.47,0,0,1,0-.23c.07-.15.18-.3.34-.23a.31.31,0,0,1,.18.4,2.29,2.29,0,0,0,0,.78,6,6,0,0,0,.17.94,10.78,10.78,0,0,0,.23,1.46A2.81,2.81,0,0,1,48,45c.06.53.08,1.08.18,1.6C48.19,46.83,48.2,47,48.23,47.28Z"/></g></g></svg>