<svg xmlns="http://www.w3.org/2000/svg" viewBox="0 0 44.73 33.6"><defs><style>.cls-1{fill:#ccc;}.cls-2{fill:#999;}.cls-3{fill:#666;}.cls-4{fill:#b3b3b3;opacity:0.25;}</style></defs><title>rough-stone-small</title><g id="Layer_2" data-name="Layer 2"><g id="rough-stone-small"><path id="void" class="cls-1" d="M32.3,17.9l-.14.07c-.42.31-.85.61-1.26.94s-.54.53-.8.8a5,5,0,0,1-.83.88,8.47,8.47,0,0,0-1.6,1.5,1.86,1.86,0,0,1-.61.44,1.19,1.19,0,0,1,.28.56.54.54,0,0,0,.08.21c.2.29.42.57.61.86a3.36,3.36,0,0,1,.37.67,2.56,2.56,0,0,0,.56.92c.12.14.24.28.35.43.35.49.73.95,1,1.47.14.24.48.33.45.67a.42.42,0,0,0,.12,0c.21-.13.11-.35.13-.52.09-.54.34-1.05.44-1.6a11.75,11.75,0,0,0,.3-2.13,6.92,6.92,0,0,1,.16-1.2c.08-.4.11-.81.18-1.22s.13-.71.17-1.07a3.18,3.18,0,0,0,0-.69c0-.3-.1-.6-.1-.9a4.5,4.5,0,0,1,.18-.79,1.8,1.8,0,0,0,.06-.22C32.47,17.75,32.36,17.86,32.3,17.9Zm-1.48,9.81a.07.07,0,0,1,0,.06S30.83,27.74,30.82,27.71ZM26.49,8.22c0,.11-.15.13-.27.12A1,1,0,0,0,26,8.4a11.14,11.14,0,0,0-2.06.89,2.91,2.91,0,0,1-.83.28c-.48.06-1,.06-1.45.09a.44.44,0,0,0-.16,0,6.6,6.6,0,0,1-1.6.41c-.46,0-.92.19-1.39.23a3,3,0,0,0-.74.09,2.56,2.56,0,0,1-1.55-.1,1,1,0,0,1-.82-.76,3.12,3.12,0,0,0-.35-.89.89.89,0,0,0-.43-.39,1,1,0,0,0-.84.15c-.07,0-.19,0-.24.09s-.18,0-.21-.09a.45.45,0,0,1,0-.2c.09-.37.18-.75.29-1.11a2.43,2.43,0,0,0,.2-1,.37.37,0,0,1,0-.15c.26-.61.39-1.26.71-1.85L14.64,4c.17-.61.33-1.22.49-1.82.07-.31.12-.64.17-1a2,2,0,0,0,0-.24c.16.07.47.13.55.16a2.93,2.93,0,0,0,.92.17c.12,0,.24.08.35.06.27-.05.52.23.79,0,0,0,.1,0,.16,0A2.38,2.38,0,0,1,19.4,2,6.43,6.43,0,0,1,21,3.29c.27.24.49.54.74.8a4.11,4.11,0,0,1,.81,1.11,1.93,1.93,0,0,0,1.24,1,1.51,1.51,0,0,1,.32.11c.4.26.81.51,1.19.8S26,7.7,26.37,8C26.43,8.05,26.51,8.16,26.49,8.22Zm16.69,6.64a7.31,7.31,0,0,1-.64-.93,3.81,3.81,0,0,1-.45-1,4.39,4.39,0,0,0-.6-1.23,2.54,2.54,0,0,0-.93-.88.67.67,0,0,1-.2-.12c-.1-.1-.15-.36-.28,0-.06.2-.23.16-.35,0s-.1-.21-.15-.22c-.26,0-.45-.2-.68-.26a8.47,8.47,0,0,1-1.51-.53.52.52,0,0,0-.34-.05c-.51.18-1.07.07-1.56.32a.37.37,0,0,1-.23,0,5.83,5.83,0,0,1-1.13-.46,1.45,1.45,0,0,0-.67-.17,3.5,3.5,0,0,1-1.87-.47,1.61,1.61,0,0,0-.75-.26,4.37,4.37,0,0,0-1.53.06s-.1,0-.15,0a2.24,2.24,0,0,0-1.23,0c-.11,0-.22.12-.34.16-.37.12-.75.18-1.12.27a7.47,7.47,0,0,0-2.15.89l-.1.05s.05.08.09.09a.41.41,0,0,0,.15,0,1.32,1.32,0,0,1,.83.3,1.43,1.43,0,0,0,1.09.37.41.41,0,0,1,.44.28c0,.34.29.41.5.56a12.27,12.27,0,0,1,1,.88c.33.31.59.71.94,1,.5.38.87.87,1.37,1.24a11.16,11.16,0,0,0,1.42,1.24,6.37,6.37,0,0,0,.84.47c.14.05.29.1.31.2s.21.12.4.15a.92.92,0,0,1,.17.27,2.63,2.63,0,0,1,.63,0,1.17,1.17,0,0,1,.32,0c.14,0,.29,0,.43,0s.28-.06.42-.07.53-.05.79-.09a5.52,5.52,0,0,0,1.72-.52,1.1,1.1,0,0,1,.26-.06,1.75,1.75,0,0,0,.24,0c.31-.11.62-.21.93-.35a6.94,6.94,0,0,1,2-.52c.1,0,.21.06.31.05.37,0,.71.16,1.08.12a.59.59,0,0,1,.55.22s0,.07.05.1,0-.08,0-.11A3.63,3.63,0,0,0,43.18,14.86Z"/><path id="void-2" data-name="void" class="cls-2" d="M6.24,23.12c-.12.51-.28,1-.41,1.51a6.21,6.21,0,0,0-.16.84,1.77,1.77,0,0,0,0,.51s0,.05,0,.07c0,.31.07.61.08.92a2.59,2.59,0,0,1-.44,1.29c-.13.32-.3.62-.46.93,0,0,0,.07-.06.07a.12.12,0,0,1-.1,0A12.76,12.76,0,0,0,3.33,27.3c-.19-.21-.27-.54-.48-.7a3.85,3.85,0,0,1-1-1.47,4.34,4.34,0,0,1-.43-1,2.43,2.43,0,0,1,0-.76c0-.12.05-.23.05-.35a7.78,7.78,0,0,1,.16-1.74,5.53,5.53,0,0,0,0-.91,1.24,1.24,0,0,1,.08-.63c.08-.13-.2-.27,0-.43a6.66,6.66,0,0,0-.36-2,6.12,6.12,0,0,0-.46-.71.92.92,0,0,1-.1-1.09c0-.29.17-.49.23-.71s.27-.54.38-.83a2.66,2.66,0,0,0,.17-.63c.08-.41.15-.84.24-1.25a5.52,5.52,0,0,0,.07-.55s0-.1,0-.15a.39.39,0,0,1,.05.14,3.75,3.75,0,0,0,.26,1.33c.13.34.35.66.51,1a7.44,7.44,0,0,0,.94,1.42A5.18,5.18,0,0,1,4.51,17c.07.25.15.51.25.77A10.14,10.14,0,0,1,5,19.25a6.31,6.31,0,0,0,.63,1.91,10.52,10.52,0,0,1,.64,1.55A.68.68,0,0,1,6.24,23.12Zm9.14,1.94c0-.28,0-.56.09-.83.07-.46.16-.92.25-1.38,0-.16.12-.35.06-.45s-.29-.15-.43-.22a.66.66,0,0,0-.53-.05,5.64,5.64,0,0,1-1.45.38,2.17,2.17,0,0,1-.5.08,1.21,1.21,0,0,0-.73.24c-.18.11-.37.24-.56.34-.4.21-.79,0-1.19,0a11.43,11.43,0,0,0-1.54-.05,5.42,5.42,0,0,0-1.25.39c-.21,0-.41.09-.64,0s-.2.06-.23.2-.14.46-.2.7a4.37,4.37,0,0,0-.21,1.19c0,.39,0,.77.08,1.16,0,0,0,.09.06.14a.59.59,0,0,1,0,.32,5.7,5.7,0,0,1-.59,1.28,1.91,1.91,0,0,0-.4,1.44c0,.2.08.25.27.16A1.36,1.36,0,0,1,6.17,30c.15,0,.22.06.23.21a.46.46,0,0,0,.29.45l.15.06a3.79,3.79,0,0,0,.84.34,13,13,0,0,0,1.41.09,1.69,1.69,0,0,1,.32,0,5,5,0,0,0,1.22.25,2.21,2.21,0,0,1,.83.28,3.12,3.12,0,0,0,.87.39,7.35,7.35,0,0,0,1.13.12c.49.07,1,.19,1.46.27a1.07,1.07,0,0,0,.37.08c.2-.05.05-.23.09-.35s0-.05,0-.08a3.47,3.47,0,0,0,.1-1.36c0-.55-.12-1.11-.11-1.67a.38.38,0,0,0,0-.21,2.44,2.44,0,0,1-.15-1,1,1,0,0,0,0-.24,2.2,2.2,0,0,1-.06-1C15.19,26.09,15.31,25.57,15.38,25.06Zm16.67-7.82-.72.57a3.12,3.12,0,0,1-.61.49,2.39,2.39,0,0,0-1.06.89A6.77,6.77,0,0,1,28.1,20.7a1.86,1.86,0,0,0-.27.22c-.26.28-.41.66-.78.86a1.38,1.38,0,0,0-.28.36c-.1-.14-.14-.29-.3-.4a1.61,1.61,0,0,0-.83-.28,9.68,9.68,0,0,0-2,.08,1.74,1.74,0,0,1-1.17-.15c-.31-.16-.65-.27-1-.45a3.86,3.86,0,0,0-1.1-.23c-.46-.11-.95-.06-1.4-.2s-.82,0-1.21-.11a3,3,0,0,0-1.58.76.87.87,0,0,1-.71.29,1.77,1.77,0,0,0-.91.08,4.47,4.47,0,0,1-1.6.39,2.81,2.81,0,0,0-1.48.54.81.81,0,0,1-.56.12c-.29,0-.58-.12-.87-.14a4.68,4.68,0,0,0-1.89.22c-.33.11-.69.18-1,.26C7,23,7,22.91,7,22.77a2.12,2.12,0,0,0-.36-1.2,14.41,14.41,0,0,1-.81-1.85,2.29,2.29,0,0,1-.16-.81,2.89,2.89,0,0,0-.08-.58c0-.2-.07-.41-.12-.61-.12-.36-.27-.72-.36-1.08a4.18,4.18,0,0,0-.61-1.36c-.22-.34-.49-.64-.71-1s-.54-1-.8-1.44a5.06,5.06,0,0,1-.44-1.79c0-.27,0-.3-.2-.33a4.28,4.28,0,0,0,.43-.36c.39-.38.77-.77,1.15-1.17A.38.38,0,0,0,4,9.09,8.15,8.15,0,0,1,5.18,7.63a12.76,12.76,0,0,0,1-1A7,7,0,0,1,8,4.86,3.93,3.93,0,0,1,9.38,4.2a2.49,2.49,0,0,0,1-.42,5.14,5.14,0,0,1,1.1-.61A12.09,12.09,0,0,0,13,2.34c.54-.31,1-.7,1.55-1a.24.24,0,0,1,.14,0,.61.61,0,0,0,0,.12c-.09.29-.19.59-.25.88A8.22,8.22,0,0,1,13.87,4c-.2.49-.35,1-.52,1.5-.29.83-.42,1.7-.67,2.53a1.64,1.64,0,0,0,0,1,.61.61,0,0,1-.06.65,5,5,0,0,1-.59.63c-.08.09-.23.27-.21.3.16.21,0,.38,0,.56a1.55,1.55,0,0,1-1,1.29,1.75,1.75,0,0,0-.55.38,2.6,2.6,0,0,0-.63,1.3c0,.08.08.19.12.29a.73.73,0,0,0,.18-.17c.07-.11.11-.24.18-.35a3.19,3.19,0,0,1,.52-.81,3.64,3.64,0,0,1,.66-.32A2.15,2.15,0,0,0,12.4,11a1.06,1.06,0,0,1,.44-.77c.08-.08.15,0,.16.07a2.79,2.79,0,0,0,.63,1.46,5,5,0,0,1,.83,2.12c.12.6.12,1.22.19,1.83a8.28,8.28,0,0,0,.16.84c0,.13.06.25.08.37s0,.36.17.35.17-.2.16-.35c0-.46,0-.92-.09-1.37A9.41,9.41,0,0,1,15,14a3.8,3.8,0,0,0-.31-1.4A7.44,7.44,0,0,0,14,11.29c-.08-.14-.21-.25-.28-.38a5.65,5.65,0,0,1-.3-1.4c0-.09,0-.14.12-.2s.46-.22.68-.34.17,0,.24,0a1.19,1.19,0,0,1,.26.71,1.12,1.12,0,0,0,.45.8,2.77,2.77,0,0,0,1.71.69,5.3,5.3,0,0,0,1.49-.09c.6-.13,1.21-.16,1.8-.31a5.68,5.68,0,0,0,.84-.17,2.86,2.86,0,0,1,1.26-.24,2.25,2.25,0,0,0,.22-.05,3.18,3.18,0,0,1,1,0,8.79,8.79,0,0,0,.88.24c.24.05.55,0,.7.31.33,0,.56.51,1,.26a.19.19,0,0,1,.08.08.14.14,0,0,1-.06.08l-.15.08c.05,0,.09.08.15.09l.38.07a.86.86,0,0,1,.28.11,14,14,0,0,1,1.54,1.44c.52.59,1.12,1.13,1.68,1.69a4.49,4.49,0,0,1,.46.39,2.83,2.83,0,0,0,1.07,1,.15.15,0,0,1,0,.09s0,.06-.08.07a7.47,7.47,0,0,0-1.07.18,2.89,2.89,0,0,1-1.49-.07c-.28,0-.57-.15-.86-.18a10.26,10.26,0,0,0-1.24,0,.94.94,0,0,0-.41.18.21.21,0,0,0-.07.21c0,.05.16.11.19.09.25-.21.52-.06.77-.08a3.69,3.69,0,0,1,.93.15,14.67,14.67,0,0,0,1.5.26,4.09,4.09,0,0,0,1.51-.21.88.88,0,0,1,.84.2C32.12,17.11,32.16,17.16,32.05,17.24ZM14.46,9.46a.32.32,0,0,0-.12-.11.19.19,0,0,0,.07.14Zm17.31,7.73s-.08-.08-.13-.1a.51.51,0,0,0,0,.22S31.77,17.22,31.77,17.19Z"/><path id="void-3" data-name="void" class="cls-3" d="M30.44,28.8c-.05-.07-.12-.12-.18-.19-.22-.27-.45-.54-.66-.83-.32-.44-.6-.92-1-1.34a6.61,6.61,0,0,1-1-1.37c-.37-.75-.85-1.46-1.26-2.19a1.25,1.25,0,0,0-.87-.76,2.57,2.57,0,0,0-.91.05c-.51.08-1,.06-1.57.1a2,2,0,0,1-1.17-.36,2,2,0,0,0-.54-.28,6,6,0,0,0-1.66-.27.9.9,0,0,0-.21-.08,7.27,7.27,0,0,1-.95-.1,2.06,2.06,0,0,0-1.87.41.46.46,0,0,0-.14.23l-.33,1.76a5.77,5.77,0,0,0-.08.58c0,.38-.05.75-.09,1.12s-.12.5-.16.76a3.14,3.14,0,0,0-.07.91,4.76,4.76,0,0,1,.07.75.88.88,0,0,0,0,.28A3.13,3.13,0,0,1,16,29.07a4.25,4.25,0,0,0,.11,1.24c.17.48-.12.93.06,1.38-.21.4-.07.86-.25,1.26,0,0,0,.07,0,.11s.12,0,.12-.06a.35.35,0,0,1,.31-.36l1.67-.44c.69-.19,1.39-.35,2.08-.55a7.31,7.31,0,0,0,1.12-.36c.33-.15.62-.38.94-.53.6-.29,1.2-.54,1.81-.8a3.12,3.12,0,0,1,.53-.11c.43-.06.86-.08,1.29-.17a4.5,4.5,0,0,1,1.2-.16,2.7,2.7,0,0,0,.39-.08,1.37,1.37,0,0,1,.19,0,3,3,0,0,0,.52,0c.36-.07.7-.21,1-.25A7.25,7.25,0,0,0,30.34,29l.2,0C30.5,28.93,30.48,28.85,30.44,28.8Zm-.29.12V28.8s.05.06.06.11ZM43.94,22a8.53,8.53,0,0,1-.5,1.39,3.94,3.94,0,0,1-.66,1,10.88,10.88,0,0,0-1.61,2.09,4,4,0,0,1-.66.76,6.89,6.89,0,0,0-.85,1,1,1,0,0,1-.8.46,9.07,9.07,0,0,0-1,.06c-.58.13-1.18.09-1.75.23a1.4,1.4,0,0,1-.41,0c-.22,0-.44,0-.66,0s-.35.07-.51.07S34,29,33.74,29a2.6,2.6,0,0,1-1.1-.15,1.51,1.51,0,0,0-.61-.09c-.2,0-.42,0-.42.27,0,0-.07.08-.11.12a1.56,1.56,0,0,1-.05-.16.76.76,0,0,1,.14-.44,2.44,2.44,0,0,0,.19-.74,1.84,1.84,0,0,1,.1-.53,5.42,5.42,0,0,0,.36-1.53,6.58,6.58,0,0,0,.22-1.41,5.58,5.58,0,0,1,.21-1.56,2.63,2.63,0,0,0,.1-.7A8.14,8.14,0,0,1,33,20.72,2,2,0,0,0,33,20a3.63,3.63,0,0,1-.11-1.27,5.62,5.62,0,0,1,.32-1,.32.32,0,0,1,.32-.29.57.57,0,0,0,.23-.07,1,1,0,0,0,.68.25,8,8,0,0,0,1.2,0,7.29,7.29,0,0,0,2.44-.56,4,4,0,0,1,.7-.19c.51-.17,1-.34,1.51-.53a5,5,0,0,1,1.33-.28c.24,0,.42.17.69,0s.41.08.62.13.45.1.67.17c.06,0,.15.11.14.16s.11.33,0,.52,0,.33.06.5a.46.46,0,0,1,0,.2,1.49,1.49,0,0,0,0,.63c0,.46.1.9.14,1.33a6.41,6.41,0,0,1,0,.88,1.72,1.72,0,0,0,0,.71A1.22,1.22,0,0,1,43.94,22Z"/><path id="fill2" class="cls-4" d="M32.3,17.9l-.14.07c-.42.31-.85.61-1.26.94s-.54.53-.8.8a5,5,0,0,1-.83.88,8.47,8.47,0,0,0-1.6,1.5,1.86,1.86,0,0,1-.61.44,1.19,1.19,0,0,1,.28.56.54.54,0,0,0,.08.21c.2.29.42.57.61.86a3.36,3.36,0,0,1,.37.67,2.56,2.56,0,0,0,.56.92c.12.14.24.28.35.43.35.49.73.95,1,1.47.14.24.48.33.45.67a.42.42,0,0,0,.12,0c.21-.13.11-.35.13-.52.09-.54.34-1.05.44-1.6a11.75,11.75,0,0,0,.3-2.13,6.92,6.92,0,0,1,.16-1.2c.08-.4.11-.81.18-1.22s.13-.71.17-1.07a3.18,3.18,0,0,0,0-.69c0-.3-.1-.6-.1-.9a4.5,4.5,0,0,1,.18-.79,1.8,1.8,0,0,0,.06-.22C32.47,17.75,32.36,17.86,32.3,17.9Zm-1.48,9.81a.07.07,0,0,1,0,.06S30.83,27.74,30.82,27.71ZM26.49,8.22c0,.11-.15.13-.27.12A1,1,0,0,0,26,8.4a11.14,11.14,0,0,0-2.06.89,2.91,2.91,0,0,1-.83.28c-.48.06-1,.06-1.45.09a.44.44,0,0,0-.16,0,6.6,6.6,0,0,1-1.6.41c-.46,0-.92.19-1.39.23a3,3,0,0,0-.74.09,2.56,2.56,0,0,1-1.55-.1,1,1,0,0,1-.82-.76,3.12,3.12,0,0,0-.35-.89.89.89,0,0,0-.43-.39,1,1,0,0,0-.84.15c-.07,0-.19,0-.24.09s-.18,0-.21-.09a.45.45,0,0,1,0-.2c.09-.37.18-.75.29-1.11a2.43,2.43,0,0,0,.2-1,.37.37,0,0,1,0-.15c.26-.61.39-1.26.71-1.85L14.64,4c.17-.61.33-1.22.49-1.82.07-.31.12-.64.17-1a2,2,0,0,0,0-.24c.16.07.47.13.55.16a2.93,2.93,0,0,0,.92.17c.12,0,.24.08.35.06.27-.05.52.23.79,0,0,0,.1,0,.16,0A2.38,2.38,0,0,1,19.4,2,6.43,6.43,0,0,1,21,3.29c.27.24.49.54.74.8a4.11,4.11,0,0,1,.81,1.11,1.93,1.93,0,0,0,1.24,1,1.51,1.51,0,0,1,.32.11c.4.26.81.51,1.19.8S26,7.7,26.37,8C26.43,8.05,26.51,8.16,26.49,8.22Zm16.69,6.64a7.31,7.31,0,0,1-.64-.93,3.81,3.81,0,0,1-.45-1,4.39,4.39,0,0,0-.6-1.23,2.54,2.54,0,0,0-.93-.88.67.67,0,0,1-.2-.12c-.1-.1-.15-.36-.28,0-.06.2-.23.16-.35,0s-.1-.21-.15-.22c-.26,0-.45-.2-.68-.26a8.47,8.47,0,0,1-1.51-.53.52.52,0,0,0-.34-.05c-.51.18-1.07.07-1.56.32a.37.37,0,0,1-.23,0,5.83,5.83,0,0,1-1.13-.46,1.45,1.45,0,0,0-.67-.17,3.5,3.5,0,0,1-1.87-.47,1.61,1.61,0,0,0-.75-.26,4.37,4.37,0,0,0-1.53.06s-.1,0-.15,0a2.24,2.24,0,0,0-1.23,0c-.11,0-.22.12-.34.16-.37.12-.75.18-1.12.27a7.47,7.47,0,0,0-2.15.89l-.1.05s.05.08.09.09a.41.41,0,0,0,.15,0,1.32,1.32,0,0,1,.83.3,1.43,1.43,0,0,0,1.09.37.41.41,0,0,1,.44.28c0,.34.29.41.5.56a12.27,12.27,0,0,1,1,.88c.33.31.59.71.94,1,.5.38.87.87,1.37,1.24a11.16,11.16,0,0,0,1.42,1.24,6.37,6.37,0,0,0,.84.47c.14.05.29.1.31.2s.21.12.4.15a.92.92,0,0,1,.17.27,2.63,2.63,0,0,1,.63,0,1.17,1.17,0,0,1,.32,0c.14,0,.29,0,.43,0s.28-.06.42-.07.53-.05.79-.09a5.52,5.52,0,0,0,1.72-.52,1.1,1.1,0,0,1,.26-.06,1.75,1.75,0,0,0,.24,0c.31-.11.62-.21.93-.35a6.94,6.94,0,0,1,2-.52c.1,0,.21.06.31.05.37,0,.71.16,1.08.12a.59.59,0,0,1,.55.22s0,.07.05.1,0-.08,0-.11A3.63,3.63,0,0,0,43.18,14.86ZM6.24,23.12c-.12.51-.28,1-.41,1.51a6.21,6.21,0,0,0-.16.84,1.77,1.77,0,0,0,0,.51s0,.05,0,.07c0,.31.07.61.08.92a2.59,2.59,0,0,1-.44,1.29c-.13.32-.3.62-.46.93,0,0,0,.07-.06.07a.12.12,0,0,1-.1,0A12.76,12.76,0,0,0,3.33,27.3c-.19-.21-.27-.54-.48-.7a3.85,3.85,0,0,1-1-1.47,4.34,4.34,0,0,1-.43-1,2.43,2.43,0,0,1,0-.76c0-.12.05-.23.05-.35a7.78,7.78,0,0,1,.16-1.74,5.53,5.53,0,0,0,0-.91,1.24,1.24,0,0,1,.08-.63c.08-.13-.2-.27,0-.43a6.66,6.66,0,0,0-.36-2,6.12,6.12,0,0,0-.46-.71.92.92,0,0,1-.1-1.09c0-.29.17-.49.23-.71s.27-.54.38-.83a2.66,2.66,0,0,0,.17-.63c.08-.41.15-.84.24-1.25a5.52,5.52,0,0,0,.07-.55s0-.1,0-.15a.39.39,0,0,1,.05.14,3.75,3.75,0,0,0,.26,1.33c.13.34.35.66.51,1a7.44,7.44,0,0,0,.94,1.42A5.18,5.18,0,0,1,4.51,17c.07.25.15.51.25.77A10.14,10.14,0,0,1,5,19.25a6.31,6.31,0,0,0,.63,1.91,10.52,10.52,0,0,1,.64,1.55A.68.68,0,0,1,6.24,23.12Zm9.14,1.94c0-.28,0-.56.09-.83.07-.46.16-.92.25-1.38,0-.16.12-.35.06-.45s-.29-.15-.43-.22a.66.66,0,0,0-.53-.05,5.64,5.64,0,0,1-1.45.38,2.17,2.17,0,0,1-.5.08,1.21,1.21,0,0,0-.73.24c-.18.11-.37.24-.56.34-.4.21-.79,0-1.19,0a11.43,11.43,0,0,0-1.54-.05,5.42,5.42,0,0,0-1.25.39c-.21,0-.41.09-.64,0s-.2.06-.23.2-.14.46-.2.7a4.37,4.37,0,0,0-.21,1.19c0,.39,0,.77.08,1.16,0,0,0,.09.06.14a.59.59,0,0,1,0,.32,5.7,5.7,0,0,1-.59,1.28,1.91,1.91,0,0,0-.4,1.44c0,.2.08.25.27.16A1.36,1.36,0,0,1,6.17,30c.15,0,.22.06.23.21a.46.46,0,0,0,.29.45l.15.06a3.79,3.79,0,0,0,.84.34,13,13,0,0,0,1.41.09,1.69,1.69,0,0,1,.32,0,5,5,0,0,0,1.22.25,2.21,2.21,0,0,1,.83.28,3.12,3.12,0,0,0,.87.39,7.35,7.35,0,0,0,1.13.12c.49.07,1,.19,1.46.27a1.07,1.07,0,0,0,.37.08c.2-.05.05-.23.09-.35s0-.05,0-.08a3.47,3.47,0,0,0,.1-1.36c0-.55-.12-1.11-.11-1.67a.38.38,0,0,0,0-.21,2.44,2.44,0,0,1-.15-1,1,1,0,0,0,0-.24,2.2,2.2,0,0,1-.06-1C15.19,26.09,15.31,25.57,15.38,25.06Zm16.67-7.82-.72.57a3.12,3.12,0,0,1-.61.49,2.39,2.39,0,0,0-1.06.89A6.77,6.77,0,0,1,28.1,20.7a1.86,1.86,0,0,0-.27.22c-.26.28-.41.66-.78.86a1.38,1.38,0,0,0-.28.36c-.1-.14-.14-.29-.3-.4a1.61,1.61,0,0,0-.83-.28,9.68,9.68,0,0,0-2,.08,1.74,1.74,0,0,1-1.17-.15c-.31-.16-.65-.27-1-.45a3.86,3.86,0,0,0-1.1-.23c-.46-.11-.95-.06-1.4-.2s-.82,0-1.21-.11a3,3,0,0,0-1.58.76.87.87,0,0,1-.71.29,1.77,1.77,0,0,0-.91.08,4.47,4.47,0,0,1-1.6.39,2.81,2.81,0,0,0-1.48.54.81.81,0,0,1-.56.12c-.29,0-.58-.12-.87-.14a4.68,4.68,0,0,0-1.89.22c-.33.11-.69.18-1,.26C7,23,7,22.91,7,22.77a2.12,2.12,0,0,0-.36-1.2,14.41,14.41,0,0,1-.81-1.85,2.29,2.29,0,0,1-.16-.81,2.89,2.89,0,0,0-.08-.58c0-.2-.07-.41-.12-.61-.12-.36-.27-.72-.36-1.08a4.18,4.18,0,0,0-.61-1.36c-.22-.34-.49-.64-.71-1s-.54-1-.8-1.44a5.06,5.06,0,0,1-.44-1.79c0-.27,0-.3-.2-.33a4.28,4.28,0,0,0,.43-.36c.39-.38.77-.77,1.15-1.17A.38.38,0,0,0,4,9.09,8.15,8.15,0,0,1,5.18,7.63a12.76,12.76,0,0,0,1-1A7,7,0,0,1,8,4.86,3.93,3.93,0,0,1,9.38,4.2a2.49,2.49,0,0,0,1-.42,5.14,5.14,0,0,1,1.1-.61A12.09,12.09,0,0,0,13,2.34c.54-.31,1-.7,1.55-1a.24.24,0,0,1,.14,0,.61.61,0,0,0,0,.12c-.09.29-.19.59-.25.88A8.22,8.22,0,0,1,13.87,4c-.2.49-.35,1-.52,1.5-.29.83-.42,1.7-.67,2.53a1.64,1.64,0,0,0,0,1,.61.61,0,0,1-.06.65,5,5,0,0,1-.59.63c-.08.09-.23.27-.21.3.16.21,0,.38,0,.56a1.55,1.55,0,0,1-1,1.29,1.75,1.75,0,0,0-.55.38,2.6,2.6,0,0,0-.63,1.3c0,.08.08.19.12.29a.73.73,0,0,0,.18-.17c.07-.11.11-.24.18-.35a3.19,3.19,0,0,1,.52-.81,3.64,3.64,0,0,1,.66-.32A2.15,2.15,0,0,0,12.4,11a1.06,1.06,0,0,1,.44-.77c.08-.08.15,0,.16.07a2.79,2.79,0,0,0,.63,1.46,5,5,0,0,1,.83,2.12c.12.6.12,1.22.19,1.83a8.28,8.28,0,0,0,.16.84c0,.13.06.25.08.37s0,.36.17.35.17-.2.16-.35c0-.46,0-.92-.09-1.37A9.41,9.41,0,0,1,15,14a3.8,3.8,0,0,0-.31-1.4A7.44,7.44,0,0,0,14,11.29c-.08-.14-.21-.25-.28-.38a5.65,5.65,0,0,1-.3-1.4c0-.09,0-.14.12-.2s.46-.22.68-.34.17,0,.24,0a1.19,1.19,0,0,1,.26.71,1.12,1.12,0,0,0,.45.8,2.77,2.77,0,0,0,1.71.69,5.3,5.3,0,0,0,1.49-.09c.6-.13,1.21-.16,1.8-.31a5.68,5.68,0,0,0,.84-.17,2.86,2.86,0,0,1,1.26-.24,2.25,2.25,0,0,0,.22-.05,3.18,3.18,0,0,1,1,0,8.79,8.79,0,0,0,.88.24c.24.05.55,0,.7.31.33,0,.56.51,1,.26a.19.19,0,0,1,.08.08.14.14,0,0,1-.06.08l-.15.08c.05,0,.09.08.15.09l.38.07a.86.86,0,0,1,.28.11,14,14,0,0,1,1.54,1.44c.52.59,1.12,1.13,1.68,1.69a4.49,4.49,0,0,1,.46.39,2.83,2.83,0,0,0,1.07,1,.15.15,0,0,1,0,.09s0,.06-.08.07a7.47,7.47,0,0,0-1.07.18,2.89,2.89,0,0,1-1.49-.07c-.28,0-.57-.15-.86-.18a10.26,10.26,0,0,0-1.24,0,.94.94,0,0,0-.41.18.21.21,0,0,0-.07.21c0,.05.16.11.19.09.25-.21.52-.06.77-.08a3.69,3.69,0,0,1,.93.15,14.67,14.67,0,0,0,1.5.26,4.09,4.09,0,0,0,1.51-.21.88.88,0,0,1,.84.2C32.12,17.11,32.16,17.16,32.05,17.24ZM14.46,9.46a.32.32,0,0,0-.12-.11.19.19,0,0,0,.07.14Zm17.31,7.73s-.08-.08-.13-.1a.51.51,0,0,0,0,.22S31.77,17.22,31.77,17.19ZM30.44,28.8c-.05-.07-.12-.12-.18-.19-.22-.27-.45-.54-.66-.83-.32-.44-.6-.92-1-1.34a6.61,6.61,0,0,1-1-1.37c-.37-.75-.85-1.46-1.26-2.19a1.25,1.25,0,0,0-.87-.76,2.57,2.57,0,0,0-.91.05c-.51.08-1,.06-1.57.1a2,2,0,0,1-1.17-.36,2,2,0,0,0-.54-.28,6,6,0,0,0-1.66-.27.9.9,0,0,0-.21-.08,7.27,7.27,0,0,1-.95-.1,2.06,2.06,0,0,0-1.87.41.46.46,0,0,0-.14.23l-.33,1.76a5.77,5.77,0,0,0-.08.58c0,.38-.05.75-.09,1.12s-.12.5-.16.76a3.14,3.14,0,0,0-.07.91,4.76,4.76,0,0,1,.07.75.88.88,0,0,0,0,.28A3.13,3.13,0,0,1,16,29.07a4.25,4.25,0,0,0,.11,1.24c.17.48-.12.93.06,1.38-.21.4-.07.86-.25,1.26,0,0,0,.07,0,.11s.12,0,.12-.06a.35.35,0,0,1,.31-.36l1.67-.44c.69-.19,1.39-.35,2.08-.55a7.31,7.31,0,0,0,1.12-.36c.33-.15.62-.38.94-.53.6-.29,1.2-.54,1.81-.8a3.12,3.12,0,0,1,.53-.11c.43-.06.86-.08,1.29-.17a4.5,4.5,0,0,1,1.2-.16,2.7,2.7,0,0,0,.39-.08,1.37,1.37,0,0,1,.19,0,3,3,0,0,0,.52,0c.36-.07.7-.21,1-.25A7.25,7.25,0,0,0,30.34,29l.2,0C30.5,28.93,30.48,28.85,30.44,28.8Zm-.29.12V28.8s.05.06.06.11ZM43.94,22a8.53,8.53,0,0,1-.5,1.39,3.94,3.94,0,0,1-.66,1,10.88,10.88,0,0,0-1.61,2.09,4,4,0,0,1-.66.76,6.89,6.89,0,0,0-.85,1,1,1,0,0,1-.8.46,9.07,9.07,0,0,0-1,.06c-.58.13-1.18.09-1.75.23a1.4,1.4,0,0,1-.41,0c-.22,0-.44,0-.66,0s-.35.07-.51.07S34,29,33.74,29a2.6,2.6,0,0,1-1.1-.15,1.51,1.51,0,0,0-.61-.09c-.2,0-.42,0-.42.27,0,0-.07.08-.11.12a1.56,1.56,0,0,1-.05-.16.76.76,0,0,1,.14-.44,2.44,2.44,0,0,0,.19-.74,1.84,1.84,0,0,1,.1-.53,5.42,5.42,0,0,0,.36-1.53,6.58,6.58,0,0,0,.22-1.41,5.58,5.58,0,0,1,.21-1.56,2.63,2.63,0,0,0,.1-.7A8.14,8.14,0,0,1,33,20.72,2,2,0,0,0,33,20a3.63,3.63,0,0,1-.11-1.27,5.62,5.62,0,0,1,.32-1,.32.32,0,0,1,.32-.29.57.57,0,0,0,.23-.07,1,1,0,0,0,.68.25,8,8,0,0,0,1.2,0,7.29,7.29,0,0,0,2.44-.56,4,4,0,0,1,.7-.19c.51-.17,1-.34,1.51-.53a5,5,0,0,1,1.33-.28c.24,0,.42.17.69,0s.41.08.62.13.45.1.67.17c.06,0,.15.11.14.16s.11.33,0,.52,0,.33.06.5a.46.46,0,0,1,0,.2,1.49,1.49,0,0,0,0,.63c0,.46.1.9.14,1.33a6.41,6.41,0,0,1,0,.88,1.72,1.72,0,0,0,0,.71A1.22,1.22,0,0,1,43.94,22Z"/><path id="fill1" d="M42.49,25.56a.66.66,0,0,1-.09.29,5,5,0,0,0-.59.78,4.11,4.11,0,0,1-.77,1c-.2.2-.41.4-.6.61s-.32.42-.47.63a1.22,1.22,0,0,1-.83.47,5,5,0,0,1-.87.09,10.19,10.19,0,0,0-1.46.16,7.45,7.45,0,0,1-1,.09,3.74,3.74,0,0,1-.58,0c-.19,0-.36.07-.55,0a2.79,2.79,0,0,0-.58,0c-.52,0-1,0-1.57-.09a5.49,5.49,0,0,1-.78-.18.16.16,0,0,0-.1,0c0,.11.08.25-.09.35a.85.85,0,0,1-.62.06,2.35,2.35,0,0,0-1.32,0A11.3,11.3,0,0,1,27,30.2a2.3,2.3,0,0,0-1,.13,2.7,2.7,0,0,1-.75.09,6,6,0,0,0-1.7.48,11.28,11.28,0,0,0-1.88.92,3.09,3.09,0,0,1-1.27.43,4.86,4.86,0,0,0-.89.23l-1.89.5c-.3.08-.58.18-.88.28l-.22.05a.58.58,0,0,1-.47-.16,1.48,1.48,0,0,1-.27.4c-.17.12-.36,0-.51-.08A4,4,0,0,0,13.84,33c-.28-.05-.57,0-.85-.07a3.5,3.5,0,0,1-1.83-.55,2.48,2.48,0,0,0-.88-.26c-.34-.09-.71-.08-1-.18a4.88,4.88,0,0,0-1-.08,7.83,7.83,0,0,1-1.08-.17,4.35,4.35,0,0,1-.65-.32c-.38-.16-.73-.38-1.09-.56a3.63,3.63,0,0,1-1.16-1.18c-.38-.49-.75-1-1.14-1.5s-1-1.12-1.38-1.74a6.17,6.17,0,0,1-.92-2,1.32,1.32,0,0,1,0-.79.92.92,0,0,0,0-.37A12.49,12.49,0,0,1,1,21.69c0-.33.21-.67,0-1,0-.06.06-.18.06-.28a10.09,10.09,0,0,0,0-1.65,3.54,3.54,0,0,0-.72-1.84A1.35,1.35,0,0,1,.2,15.31c.29-.62.53-1.26.76-1.91a9,9,0,0,0,.33-1.26c.1-.48.16-1,.26-1.46a.28.28,0,0,1,.16-.19c.07,0,.22-.1.26.1s.15.12.25.13c.3,0,.29,0,.31.34A4.86,4.86,0,0,0,3,12.86c.26.48.51,1,.8,1.44s.49.65.71,1a4.51,4.51,0,0,1,.61,1.36c.1.37.24.72.35,1.09a5.82,5.82,0,0,1,.14.6,5.77,5.77,0,0,1,.08.58,2.18,2.18,0,0,0,.15.8,13.25,13.25,0,0,0,.81,1.86A2.23,2.23,0,0,1,7,22.77c0,.14,0,.18.16.15.35-.08.71-.15,1-.26a4.61,4.61,0,0,1,1.88-.22c.29,0,.58.13.88.15a1,1,0,0,0,.56-.13A2.74,2.74,0,0,1,13,21.92a4.49,4.49,0,0,0,1.6-.4,1.92,1.92,0,0,1,.92-.07.89.89,0,0,0,.71-.29,2.9,2.9,0,0,1,1.57-.76c.39.16.8,0,1.2.12s.95.08,1.41.19a3.86,3.86,0,0,1,1.1.23c.3.18.65.29,1,.45a1.74,1.74,0,0,0,1.15.16,9.1,9.1,0,0,1,2-.09,1.56,1.56,0,0,1,.83.28c.19.12.22.3.36.46s.06.15.11.19a1.39,1.39,0,0,1,.41.7.54.54,0,0,0,.08.21c.2.29.42.57.61.86a3.36,3.36,0,0,1,.37.67,2.43,2.43,0,0,0,.56.92,3.65,3.65,0,0,1,.35.43,16.82,16.82,0,0,1,1,1.47c.14.24.49.33.45.67a.42.42,0,0,0,.12,0c.21-.13.1-.35.13-.52.1-.55.34-1.05.43-1.6A11,11,0,0,0,31.78,24a7,7,0,0,1,.16-1.21c.08-.4.11-.8.17-1.2s.14-.72.19-1.08a4,4,0,0,0,0-.69,6.86,6.86,0,0,1-.09-.9,3.1,3.1,0,0,1,.17-.79c0-.07,0-.15.06-.22s-.07-.09-.14-.05l-.14.07c-.42.31-.85.6-1.25.94a10.32,10.32,0,0,0-.82.8,4.32,4.32,0,0,1-.82.88,8.21,8.21,0,0,0-1.6,1.51c-.3.3-.76.66-1.11.4a3.5,3.5,0,0,1,.49-.72c.37-.2.52-.58.78-.86a2.88,2.88,0,0,1,.27-.22,6.77,6.77,0,0,0,1.56-1.51,2.45,2.45,0,0,1,1.06-.89,3.51,3.51,0,0,0,.62-.49c.23-.19.47-.39.71-.57s.07-.12,0-.18a.84.84,0,0,0-.84-.2,4.09,4.09,0,0,1-1.51.21,14.67,14.67,0,0,1-1.5-.26,3.69,3.69,0,0,0-.93-.15c-.25,0-.52-.13-.77.08,0,0-.18,0-.19-.09a.21.21,0,0,1,.07-.21.84.84,0,0,1,.41-.18,10.26,10.26,0,0,1,1.24,0c.29,0,.57.14.86.19a3.08,3.08,0,0,0,1.48.06,7.85,7.85,0,0,1,1.08-.18s.08,0,.08-.07,0-.08-.05-.09a3,3,0,0,1-1.07-1A4.11,4.11,0,0,0,30,14.8c-.57-.56-1.15-1.11-1.68-1.7a13.81,13.81,0,0,0-1.54-1.43.61.61,0,0,0-.28-.11c-.13,0-.26,0-.39-.08s-.09-.06-.14-.09l.15-.09s.07-.06.06-.07-.07-.09-.08-.08c-.42.25-.64-.23-1-.26-.15-.27-.45-.26-.69-.31s-.59-.15-.89-.24a3.12,3.12,0,0,0-1,0c-.07,0-.15.05-.22.05a3,3,0,0,0-1.26.24,7.34,7.34,0,0,1-.84.17c-.59.15-1.2.18-1.8.32a5.69,5.69,0,0,1-1.49.08,2.77,2.77,0,0,1-1.71-.69,1.16,1.16,0,0,1-.45-.81,1.08,1.08,0,0,0-.27-.7c-.06-.08-.1-.11-.23,0s-.46.23-.68.35-.13.11-.12.2a5.65,5.65,0,0,0,.3,1.4,3.28,3.28,0,0,0,.27.38,6.87,6.87,0,0,1,.68,1.32A4,4,0,0,1,15,14a9.39,9.39,0,0,0,.15,1.58c.06.45.06.91.09,1.36,0,.15,0,.35-.16.36s-.16-.2-.17-.34-.06-.25-.08-.38a8.28,8.28,0,0,1-.16-.84c-.07-.61-.07-1.23-.18-1.82a5.1,5.1,0,0,0-.84-2.13A2.79,2.79,0,0,1,13,10.34c0-.12-.08-.15-.16-.07a1.08,1.08,0,0,0-.44.77,2.14,2.14,0,0,1-1.1,1.83,3.64,3.64,0,0,0-.66.32,3.53,3.53,0,0,0-.53.81c-.06.11-.1.24-.17.35a1.49,1.49,0,0,1-.18.17c0-.1-.14-.21-.12-.3a2.61,2.61,0,0,1,.63-1.29,1.56,1.56,0,0,1,.54-.38,1.55,1.55,0,0,0,1-1.29c0-.18.18-.36,0-.56,0,0,.13-.21.21-.3a4.89,4.89,0,0,0,.59-.62.59.59,0,0,0,0-.66,1.71,1.71,0,0,1,0-1c.25-.84.38-1.71.66-2.53.18-.5.32-1,.53-1.5a8.48,8.48,0,0,0,.53-1.76,9,9,0,0,1,.24-.89l.06-.12s-.1,0-.14,0c-.52.35-1,.73-1.55,1a12.09,12.09,0,0,1-1.55.83,5.14,5.14,0,0,0-1.1.61,2.49,2.49,0,0,1-1,.42A4.27,4.27,0,0,0,8,4.85,7.37,7.37,0,0,0,6.21,6.58a13,13,0,0,1-1,1.06A8.11,8.11,0,0,0,4,9.09a.6.6,0,0,1-.09.13L2.76,10.38c-.23.22-.68.63-.9.49s.09-.53.25-.67.1-.19.18-.25A6.2,6.2,0,0,0,3.85,8.17.83.83,0,0,1,4,8c.56-.59,1.13-1.17,1.69-1.77C6,5.84,6.34,5.38,6.74,5a5.5,5.5,0,0,1,2-1.31,8.7,8.7,0,0,0,1.42-.55c1-.55,2-1.08,3-1.66.5-.3.94-.71,1.41-1.06a1.27,1.27,0,0,0,.29-.21c.14-.21.31-.11.45,0s.16.19.06.37a2.36,2.36,0,0,0-.1.61c-.05.32-.1.64-.18,1-.15.61-.31,1.21-.48,1.82a.65.65,0,0,1-.08.17A17.21,17.21,0,0,0,13.85,6a.37.37,0,0,0,0,.15,2.36,2.36,0,0,1-.2,1c-.11.37-.2.75-.29,1.12a.37.37,0,0,0,0,.21c0,.09.06.21.21.08s.17,0,.24-.1a1,1,0,0,1,.84-.13.77.77,0,0,1,.43.39,3,3,0,0,1,.35.88,1,1,0,0,0,.82.76,2.72,2.72,0,0,0,1.55.1,3,3,0,0,1,.74-.09c.47,0,.93-.19,1.39-.23a6.72,6.72,0,0,0,1.6-.41.44.44,0,0,1,.16,0c.48,0,1,0,1.45-.09a3.1,3.1,0,0,0,.83-.27A10.46,10.46,0,0,1,26,8.4a.9.9,0,0,1,.22-.06c.12,0,.24,0,.27-.12s-.06-.17-.12-.22c-.35-.31-.7-.61-1.08-.89s-.79-.54-1.19-.8a1.51,1.51,0,0,0-.32-.11,1.94,1.94,0,0,1-1.24-1,4,4,0,0,0-.81-1.11c-.25-.26-.47-.56-.74-.8A6.39,6.39,0,0,0,19.4,2a2.25,2.25,0,0,0-1.31-.63c-.05,0-.12-.05-.15,0-.27.21-.53-.06-.79,0-.11,0-.23-.06-.34-.06a2.83,2.83,0,0,1-.92-.17c-.12-.05-.67-.15-.68-.22s-.1-.27,0-.41.66-.29.8-.41.29,0,.31.16,0,.28.31.31.58.11.88.15.33,0,.49,0a3,3,0,0,1,1.88.72,2.33,2.33,0,0,0,.41.31,4.35,4.35,0,0,1,1,.85,14.28,14.28,0,0,1,1.09,1.23c.33.41.64.84.94,1.29a.89.89,0,0,0,.57.42,3.51,3.51,0,0,1,1.26.71A8.1,8.1,0,0,1,27,7.68s0,.05.06.05.1.41.37.34a1.82,1.82,0,0,0,.45-.2,1.57,1.57,0,0,1,1-.09,3.13,3.13,0,0,0,1.22,0,2.47,2.47,0,0,1,1.11.09,9.65,9.65,0,0,1,1.16.46,1.84,1.84,0,0,0,.75.16,3.11,3.11,0,0,1,1.58.39A1.54,1.54,0,0,0,35.8,9a8,8,0,0,1,1.69-.09c.2,0,.4.16.6.23a7.38,7.38,0,0,1,1.12.38.41.41,0,0,0,.32,0,.3.3,0,0,1,.35,0,2.52,2.52,0,0,1,.92.66.4.4,0,0,0,.15.14,2.47,2.47,0,0,1,1.08.94,2.74,2.74,0,0,1,.44.76c.22.53.41,1.07.62,1.6a.35.35,0,0,0,.09.17,3.77,3.77,0,0,1,.63.89,1.37,1.37,0,0,1,.26.59,6.86,6.86,0,0,0,.32.86.6.6,0,0,1-.13.66c-.08.07-.22.15,0,.15s.08.14.11.23c.1.34-.07.66,0,1s0,.7.08,1a7.23,7.23,0,0,1,.07.79,5.41,5.41,0,0,1,.07.68,3,3,0,0,0,.09.89,2.31,2.31,0,0,1-.3,1.23c0,.1-.08.19-.11.29a2.8,2.8,0,0,1-.35.83,1.37,1.37,0,0,0-.41.74c-.34.31-.68.62-1,.91l-.09,0,.07,0m-8.85-8.82c.31.42.28.68-.12.73a.35.35,0,0,0-.34.29,9.26,9.26,0,0,0-.32,1A4.14,4.14,0,0,0,33,20a1.76,1.76,0,0,1,0,.68,8.25,8.25,0,0,0-.24,1.39,2.75,2.75,0,0,1-.1.7,5.09,5.09,0,0,0-.21,1.55,7.27,7.27,0,0,1-.21,1.41,5.54,5.54,0,0,1-.38,1.53,2.17,2.17,0,0,0-.09.53,2.52,2.52,0,0,1-.19.74.74.74,0,0,0-.14.44,1.15,1.15,0,0,0,.06.17s.1-.08.1-.12c0-.31.22-.3.42-.28a1.56,1.56,0,0,1,.61.09,2.78,2.78,0,0,0,1.1.16c.25,0,.49.06.74.07S34.83,29,35,29s.44,0,.66,0a1.87,1.87,0,0,0,.41,0c.57-.15,1.17-.11,1.75-.23a8.93,8.93,0,0,1,1-.08,1,1,0,0,0,.8-.45,6.89,6.89,0,0,1,.85-1,4,4,0,0,0,.66-.76,10.5,10.5,0,0,1,1.61-2.09,3.94,3.94,0,0,0,.66-1,9.3,9.3,0,0,0,.5-1.4,1.15,1.15,0,0,0,.1-.64,1.78,1.78,0,0,1,0-.72,5,5,0,0,0,0-.87c0-.45-.13-.89-.15-1.34a1.49,1.49,0,0,1,0-.63.46.46,0,0,0,0-.2c0-.17-.11-.37,0-.5s0-.34,0-.52-.08-.14-.14-.16c-.22-.07-.45-.11-.67-.17s-.47-.21-.62-.13-.46-.06-.69-.05a5.37,5.37,0,0,0-1.32.29c-.5.19-1,.36-1.52.53a4,4,0,0,0-.7.19,7.11,7.11,0,0,1-2.44.56,9.59,9.59,0,0,1-1.2,0c-.31,0-.75-.16-.76-.45s.48-.2.77-.21c.11,0,.21,0,.32,0a2.09,2.09,0,0,0,.43,0c.14,0,.28-.06.42-.08s.53,0,.79-.08a5.12,5.12,0,0,0,1.72-.52,1.18,1.18,0,0,1,.27-.06.91.91,0,0,0,.23,0c.31-.11.63-.21.93-.35a6.94,6.94,0,0,1,2-.52c.1,0,.21.05.31.05.37,0,.71.16,1.08.12a.57.57,0,0,1,.55.22.93.93,0,0,1,.05.1s0-.08,0-.11a3.63,3.63,0,0,0-.38-1,7.31,7.31,0,0,1-.64-.93,3.23,3.23,0,0,1-.44-1,4.87,4.87,0,0,0-.61-1.23,2.54,2.54,0,0,0-.93-.88,1,1,0,0,1-.2-.12c-.1-.1-.15-.36-.28,0-.06.2-.23.16-.35,0s-.1-.21-.15-.22c-.26,0-.45-.2-.68-.25a9.06,9.06,0,0,1-1.51-.54.51.51,0,0,0-.34-.05c-.51.18-1.07.07-1.56.32a.37.37,0,0,1-.23,0,5.83,5.83,0,0,1-1.13-.46,1.33,1.33,0,0,0-.67-.16,3.6,3.6,0,0,1-1.87-.48,1.61,1.61,0,0,0-.75-.26,4.37,4.37,0,0,0-1.53.06s-.1,0-.15,0a2.2,2.2,0,0,0-1.22,0c-.12,0-.23.12-.35.16-.37.12-.75.18-1.12.27a7.36,7.36,0,0,0-2.15.89l-.1.06s.05.07.09.08a.39.39,0,0,0,.15,0,1.32,1.32,0,0,1,.83.3,1.43,1.43,0,0,0,1.09.37.39.39,0,0,1,.43.28c0,.34.31.4.51.56.35.29.71.57,1,.88s.59.72.94,1,.87.87,1.37,1.24a12.09,12.09,0,0,0,1.42,1.25,8.72,8.72,0,0,0,.84.46c.14.05.29.1.32.21s.2.11.4.13M19.71,21.36a.9.9,0,0,0-.21-.08,7.27,7.27,0,0,1-.95-.1,2,2,0,0,0-1.87.42.4.4,0,0,0-.14.22l-.33,1.76c0,.19-.06.39-.08.58,0,.38-.05.75-.09,1.12s-.12.5-.16.76a2.81,2.81,0,0,0-.06.91,6.32,6.32,0,0,1,.06.75c0,.09,0,.2,0,.28a3.4,3.4,0,0,1,.17,1.09,4.22,4.22,0,0,0,.1,1.24c.17.47-.12.93.06,1.38-.2.4-.07.86-.25,1.26,0,0,0,.07,0,.11s.12,0,.12-.06a.33.33,0,0,1,.31-.35l1.67-.45c.69-.18,1.39-.35,2.08-.54a8.64,8.64,0,0,0,1.12-.37c.33-.14.61-.38.94-.53.59-.28,1.2-.54,1.81-.8a2.27,2.27,0,0,1,.53-.11c.43-.06.86-.08,1.28-.18a5.59,5.59,0,0,1,1.22-.16,2.41,2.41,0,0,0,.37-.07,1.36,1.36,0,0,1,.2,0,3,3,0,0,0,.52,0c.36-.07.7-.21,1-.25A7.06,7.06,0,0,0,30.34,29l.2,0c0-.07-.06-.14-.1-.2l-.17-.17c-.23-.28-.46-.55-.67-.84-.32-.44-.59-.92-.94-1.33a6.72,6.72,0,0,1-1-1.38c-.37-.75-.85-1.46-1.26-2.19a1.27,1.27,0,0,0-.87-.76,2.82,2.82,0,0,0-.91.05c-.51.08-1,.06-1.57.1a1.89,1.89,0,0,1-1.17-.36,2.31,2.31,0,0,0-.54-.28,6.07,6.07,0,0,0-1.66-.27M7.6,23.5c-.21,0-.42.09-.64,0s-.2.06-.23.2-.14.46-.2.7a4,4,0,0,0-.21,1.19c0,.39,0,.77.09,1.16,0,0,0,.09,0,.14a.59.59,0,0,1,0,.32A6.14,6.14,0,0,1,5.9,28.5a1.83,1.83,0,0,0-.41,1.44c0,.2.07.25.27.16A1.36,1.36,0,0,1,6.17,30c.15,0,.22.07.24.21a.44.44,0,0,0,.28.45l.14.06a4.08,4.08,0,0,0,.85.34,10.85,10.85,0,0,0,1.4.09,1.79,1.79,0,0,1,.33,0,6.31,6.31,0,0,0,1.22.26,2,2,0,0,1,.83.27,3.44,3.44,0,0,0,.87.39,7.35,7.35,0,0,0,1.13.12c.5.07,1,.19,1.46.27a1.08,1.08,0,0,0,.38.08c.19-.05,0-.23.08-.35s0-.05,0-.08a3.88,3.88,0,0,0,.11-1.36c0-.55-.13-1.11-.12-1.67a.45.45,0,0,0,0-.2,2.33,2.33,0,0,1-.16-1,.63.63,0,0,0,0-.24,2.16,2.16,0,0,1,0-1c0-.52.16-1,.23-1.55,0-.27,0-.55.09-.83.07-.46.16-.92.24-1.38,0-.15.13-.35.07-.45s-.28-.15-.43-.21a.62.62,0,0,0-.53-.06,6.08,6.08,0,0,1-1.45.38,2.26,2.26,0,0,1-.5.08,1.21,1.21,0,0,0-.73.24c-.18.11-.36.24-.56.34-.4.21-.8,0-1.2,0a13.09,13.09,0,0,0-1.53,0,5.42,5.42,0,0,0-1.25.39m-6.84-8a.94.94,0,0,0,.1,1.09,4.61,4.61,0,0,1,.46.72,6.54,6.54,0,0,1,.36,2c-.19.15.1.3,0,.43a1.25,1.25,0,0,0-.07.63,5.39,5.39,0,0,1,0,.9A8.56,8.56,0,0,0,1.46,23c0,.12,0,.23-.05.35a2.5,2.5,0,0,0,0,.77,4.27,4.27,0,0,0,.43,1,3.85,3.85,0,0,0,1,1.47c.21.15.29.49.48.7a12.76,12.76,0,0,1,1.43,1.92.08.08,0,0,0,.09,0s.05,0,.07-.07c.16-.31.33-.61.46-.92A2.89,2.89,0,0,0,5.83,27l-.09-.92s0,0,0-.07a2.92,2.92,0,0,1,0-.51,6.21,6.21,0,0,1,.16-.84c.13-.5.28-1,.42-1.51a.87.87,0,0,0,0-.41,11.78,11.78,0,0,0-.65-1.55A7,7,0,0,1,5,19.24a9.1,9.1,0,0,0-.25-1.46c-.1-.25-.17-.5-.25-.76a5.18,5.18,0,0,0-.85-1.75,7.94,7.94,0,0,1-.94-1.42c-.16-.34-.38-.64-.51-1A3.75,3.75,0,0,1,2,11.53a.74.74,0,0,0,0-.14.94.94,0,0,0-.06.15,5.14,5.14,0,0,1-.06.55c-.11.41-.18.83-.25,1.25a3.25,3.25,0,0,1-.17.63c-.11.29-.3.54-.38.83s-.25.41-.23.71m1.48-4.2-.1.14.18,0a.16.16,0,0,0-.08-.16m41.9,7.12,0,0s0,0,0,0M42,25.93l0,0S42,25.92,42,25.93ZM31.64,17.09c.06,0,.12.06.13.1s-.06.08-.1.12A1.3,1.3,0,0,1,31.64,17.09ZM14.33,9.35a.38.38,0,0,1,.14.11l-.06,0A.25.25,0,0,1,14.33,9.35ZM38.87,24.12l.05,0S38.91,24.1,38.87,24.12ZM30.15,28.8s.05.06.06.11h-.05A.23.23,0,0,1,30.15,28.8ZM30,22.49s.07,0,.11,0v0A.16.16,0,0,1,30,22.49Zm.87,5.28s0,0,0-.06A.07.07,0,0,1,30.86,27.77ZM39,21.3s0,0,0,.05A0,0,0,0,1,39,21.3Z"/></g></g></svg>