<svg xmlns="http://www.w3.org/2000/svg" viewBox="0 0 117.7 38.12"><defs><style>.cls-1{fill:#fff;}</style></defs><title>snow-large</title><g id="Layer_2" data-name="Layer 2"><g id="snow-large"><path id="void" class="cls-1" d="M117.34,21.91a.3.3,0,0,1,.08-.08c.06,0,.07,0,.11,0a1.77,1.77,0,0,1,.17-.12c0-.15,0-.44,0-.5a3.49,3.49,0,0,0-.33-1.38c-.31-.54-.55-1.12-.89-1.63a8.65,8.65,0,0,0-1-1.35c-.39-.43-.85-.8-1.27-1.21-.26-.22-.49-.47-.77-.67-1-.69-2-1.36-2.94-2-.47-.35-.93-.75-1.41-1.11s-.71-.55-1.07-.81a15.17,15.17,0,0,0-1.37-.88,9.88,9.88,0,0,0-1.88-.85,11.92,11.92,0,0,0-2.24-.6,9.88,9.88,0,0,0-2.11-.23c-.12,0-.27,0-.37,0s-.44-.06-.66-.08-.43-.07-.66-.07c-.49,0-1-.05-1.48-.08a4.78,4.78,0,0,1-.76-.08c-.51-.1-1-.23-1.55-.34s-.8-.14-1.2-.23-1-.25-1.54-.38a5,5,0,0,1-.92-.31c-.57-.28-1.11-.63-1.66-1a19.7,19.7,0,0,1-2.42-1.63,7.3,7.3,0,0,0-1.46-.91,10.62,10.62,0,0,0-2-.72A7.37,7.37,0,0,0,81,2.3c-.43.05-.86,0-1.27.13A6.08,6.08,0,0,0,78,3c-.66.37-1.32.71-2,1.09s-1,.64-1.54.95-.93.58-1.4.84a8.81,8.81,0,0,1-2.83.8,13.42,13.42,0,0,1-1.91.13c-.44,0-.9,0-1.35-.06l-1.3-.08h-.1a5.38,5.38,0,0,0-1-.14,5,5,0,0,1-2-.3A13.68,13.68,0,0,1,60,5.36a21,21,0,0,1-2.08-.51c-1-.23-1.89-.46-2.8-.77s-1.56-.66-2.38-.91-1.48-.54-2.22-.82-1.27-.48-1.9-.7-1.45-.49-2.19-.71C45.94.8,45.48.7,45,.59L43.12.19A6.24,6.24,0,0,0,41.92,0c-1.12,0-2.23,0-3.36.12s-2,.05-3,.14C34.74.35,33.89.39,33,.5A8.38,8.38,0,0,0,31.13,1a14.86,14.86,0,0,0-3.35,1.64,16.45,16.45,0,0,0-2.09,1.56c-.33.33-.6.73-.91,1.08A9.56,9.56,0,0,1,22.36,7a11.31,11.31,0,0,1-1.49.6,2.92,2.92,0,0,1-.64.27c-.51.08-1,.1-1.54.14a17.38,17.38,0,0,0-2.29.15,13.21,13.21,0,0,1-2.34.2c-.41,0-.81,0-1.21,0a10.08,10.08,0,0,0-1.22.12c-.68.11-1.36.27-2,.39a7.12,7.12,0,0,0-1.74.47c-.26.12-.54.21-.81.32l-2,.87a12,12,0,0,0-1.92,1.06c-.24.16-.51.33-.57.64a1.36,1.36,0,0,0,.16.89,3.71,3.71,0,0,0,.42.7.56.56,0,0,1,0,.61,4.7,4.7,0,0,1-.53.81c-.34.42-.71.8-1,1.23a4.41,4.41,0,0,0-.77,1.14c-.18.54-.44,1-.59,1.61a6.42,6.42,0,0,0-.1,2.22A1.33,1.33,0,0,0,.32,22c.21.28.48.51.66.8a4,4,0,0,0,1.09,1,9,9,0,0,0,1.24.73,13,13,0,0,0,1.62.83,4.22,4.22,0,0,1,1.33,1,11.54,11.54,0,0,1,1,1.09,1,1,0,0,1,.21.41,3.31,3.31,0,0,1,.19,1.25,2.36,2.36,0,0,0,0,.75A3,3,0,0,0,7.87,31a.28.28,0,0,0,.37.15,1.12,1.12,0,0,0,.53-.3,6.42,6.42,0,0,0,.76-1.11,12,12,0,0,1,.91-1.79,2.15,2.15,0,0,1,.63-.61.85.85,0,0,1,.7,0,1.78,1.78,0,0,1,.73,1c.05.19.12.38.16.58l.42,2c.11.48.23.95.34,1.43a6.52,6.52,0,0,1,.3,1.56c0,.72.19,1.42.16,2.15a.68.68,0,0,0,.57.58.59.59,0,0,0,.34-.07,3,3,0,0,0,.66-.72,6,6,0,0,0,.61-2.33,1.89,1.89,0,0,0,.06-.67,2.45,2.45,0,0,1,.09-.7,13.46,13.46,0,0,1,.11-1.55c.09-.45.22-.89.34-1.32a.62.62,0,0,1,.55-.41c.28,0,.42.17.62.26a3.35,3.35,0,0,1,1,.73c.19.16.32.4.49.57a.71.71,0,0,0,1.16,0,6.51,6.51,0,0,0,.84-1.25,14.82,14.82,0,0,1,1.32-2.07,5.92,5.92,0,0,1,1.09-.83,4.14,4.14,0,0,1,1-.63c.46-.22.95-.36,1.42-.54A7.53,7.53,0,0,1,28,24.79a10.61,10.61,0,0,1,1.59.05l.87.1a14.47,14.47,0,0,0,1.61.21A14.13,14.13,0,0,0,33.52,25a3.68,3.68,0,0,0,1.58-.48,3.9,3.9,0,0,1,2-.53c.78,0,1.57,0,2.37,0,.28,0,.58-.05.69.32a.45.45,0,0,0,.16,0c0-.39.26-.22.44-.22a14.32,14.32,0,0,0,1.46-.1,14.43,14.43,0,0,0,1.7-.23c.69-.17,1.41-.27,2.12-.41.17-.24.33.07.52,0a3.52,3.52,0,0,1,1.53-.3c.45,0,.9,0,1.34,0,.17,0,.39-.14.52-.09a1.53,1.53,0,0,0,.66.07c.39,0,.79,0,1.17.09.56.1,1.12.26,1.69.35a10.09,10.09,0,0,1,2.32.79A6.69,6.69,0,0,1,58.26,26a7.59,7.59,0,0,1,.62,1,5.7,5.7,0,0,1,.59,1.68c.17.76.29,1.54.43,2.31,0,.26.06.53.09.79s.11.66.14,1,0,.6.08.89.23.57.59.56a.78.78,0,0,0,.71-.65,7.59,7.59,0,0,1,.14-.92,4.39,4.39,0,0,0,.19-1c0-.11.06-.23.06-.34a4.48,4.48,0,0,1,.23-.89c.09-.3.07-.6.13-.9a3.12,3.12,0,0,1,.59-1.31,3.67,3.67,0,0,1,1.72-1.31,2.75,2.75,0,0,0,.82-.46s-.07-.09,0-.18.12,0,.13.05,0,.09-.09.13a.49.49,0,0,0,.3.08c.33,0,.65,0,1,0a4.31,4.31,0,0,1,.88.09,1.9,1.9,0,0,0,.85.16c.07,0,.15.08.23.12A5.59,5.59,0,0,1,70.41,28a1.22,1.22,0,0,0,1,.48A2.75,2.75,0,0,0,72.72,28a6.25,6.25,0,0,1,2.5-1.4.81.81,0,0,1,.51,0,.56.56,0,0,0,.23,0c0-.26.24-.15.37-.16a12.37,12.37,0,0,1,1.35.05,7,7,0,0,1,1.36.28,9.6,9.6,0,0,1,2.1,1,2.54,2.54,0,0,0,1,.42,4.66,4.66,0,0,0,2-.2,2.88,2.88,0,0,1,1.32-.2,1.71,1.71,0,0,1,.72.14c.11,0,.11.27.16.42l0,0a1.45,1.45,0,0,1,.17.19c0-.1.14-.23.11-.28-.17-.24.06-.14.13-.16s.07.07.11.08a3.54,3.54,0,0,1,1.29,1c.48.6.93,1.22,1.37,1.85a5,5,0,0,1,.79,1.23A4.79,4.79,0,0,1,90.67,34a6.07,6.07,0,0,0,.07,1.71,8.45,8.45,0,0,1,.12,1.65,1,1,0,0,0,.08.29.51.51,0,0,0,.44.43c.26,0,.41-.12.52-.36a5,5,0,0,1,.39-.59c.06-.06.14-.14.14-.22,0-.46.29-.88.24-1.37a5,5,0,0,1,.11-.93c0-.11.09-.23.1-.34,0-.37.18-.75,0-1.13a.55.55,0,0,1,.06-.37c.25-.06,0,.23.18.28s.09.14.12.22a7.78,7.78,0,0,1,.25.86c.06.3,0,.63.09.93A1.43,1.43,0,0,0,94,36a.49.49,0,0,0,.79-.14,2,2,0,0,1,.29-.45,1.66,1.66,0,0,0,.36-1.08c0-.15,0-.34,0-.46a1.16,1.16,0,0,0,.09-.85,7.81,7.81,0,0,1,0-1.08,2.32,2.32,0,0,0-.08-.7A3.41,3.41,0,0,1,95.32,30a1.37,1.37,0,0,1,1-1.18,12.92,12.92,0,0,1,1.36-.24,1.94,1.94,0,0,0,.42,0,10.79,10.79,0,0,1,2.17-.3c.59-.05,1.19-.06,1.77-.13a10.65,10.65,0,0,0,1.61-.31,5,5,0,0,0,1.52-.57.63.63,0,0,1,.57-.12c.05,0,.18-.07.18-.08-.11-.29.19-.36.3-.52a5.3,5.3,0,0,1,.53-.53,2.6,2.6,0,0,1,1.14-.56,2.49,2.49,0,0,1,.58-.2c.52-.06,1-.07,1.58-.12a6.06,6.06,0,0,0,.74-.15c.43-.11.85-.27,1.27-.34a21.37,21.37,0,0,0,2.74-.89,5.85,5.85,0,0,0,1.76-1c.24-.18.5-.29.72-.44s.18-.17.38-.4a.53.53,0,0,0,0-.11c-.09,0-.22.2-.3.17ZM85.87,3.66a.13.13,0,0,0,.09.1h-.09a.31.31,0,0,0-.08-.1ZM84.3,3l0,.05S84.26,3,84.3,3Zm-.61-.2.16,0a.23.23,0,0,1-.17,0A.35.35,0,0,1,83.69,2.83ZM79.85,2.7a.36.36,0,0,0,0-.09C79.88,2.64,79.87,2.67,79.85,2.7Zm-.59.09-.06,0S79.25,2.77,79.26,2.79ZM78.5,3a1,1,0,0,0,.2-.09s0,0,0,.06a.35.35,0,0,0-.12,0,.17.17,0,0,0-.1.08ZM76.33,4.15c0,.07,0,.08-.1.09l0-.07ZM61.93,6.21a1.25,1.25,0,0,0,.37.09.24.24,0,0,0,.08.09h-.09a1.11,1.11,0,0,0-.36-.08c0-.06,0-.08-.09-.09Zm-.38-.1a.21.21,0,0,1,0,.06S61.52,6.12,61.55,6.11Zm-1.74-.56.08.06a.34.34,0,0,0-.12,0C59.71,5.56,59.74,5.54,59.81,5.55Zm-.93-.23a.21.21,0,0,0,0,.06S58.85,5.32,58.88,5.32ZM57.82,5l.14,0a.24.24,0,0,0,.08.09H58a.23.23,0,0,0-.16-.07S57.81,5.05,57.82,5ZM57.5,5l0,.06S57.46,5,57.5,5Zm-1.26-.3.24,0a.48.48,0,0,0,.09.1h-.09a.39.39,0,0,0-.21,0,.46.46,0,0,1-.14,0S56.2,4.67,56.24,4.67Zm-.4-.13a.38.38,0,0,0,.08.11h-.08a.13.13,0,0,0-.09-.1Zm-.7-.21.15,0c0,.07.05.09.09.1h-.09a.28.28,0,0,0-.16-.07A.35.35,0,0,0,55.14,4.33Zm-2-.72a.1.1,0,0,0-.05,0C53.13,3.54,53.13,3.58,53.13,3.61Zm-.57-.25.15,0a.25.25,0,0,1-.16,0A.2.2,0,0,1,52.56,3.36Zm-1.7-.63.2,0c-.1.05-.14.06-.18.05a.26.26,0,0,1-.09-.05A.15.15,0,0,1,50.86,2.73Zm-1.52-.62.16,0a1,1,0,0,0,.27.14s0,0,.07.06-.07,0-.08,0l-.27-.12a.23.23,0,0,0-.16-.08A.43.43,0,0,1,49.34,2.11ZM48,1.74a.09.09,0,0,0-.06,0C48,1.68,48,1.71,48,1.74Zm-.46-.25s0,0,0,.05a.3.3,0,0,1-.12,0C47.42,1.51,47.47,1.5,47.52,1.49Zm-.33,0,0-.09C47.23,1.42,47.2,1.45,47.19,1.48ZM45,.78l.15,0a.67.67,0,0,0,.33.14l.39.07a4.17,4.17,0,0,1-.5,0c-.07,0-.15-.08-.22-.12A.22.22,0,0,0,45,.85.15.15,0,0,0,45,.78Zm-3.4-.6h.09a.11.11,0,0,1-.11.09c-.05,0-.08,0-.12,0A.35.35,0,0,1,41.61.18ZM40,.29,40,.25C40,.24,40,.26,40,.29ZM39,.4l0,0S39,.37,39,.4ZM58.58,26l.05,0C58.58,26.09,58.58,26.06,58.58,26Z"/><path id="fill2" class="cls-1" d="M117.34,21.91a.3.3,0,0,1,.08-.08c.06,0,.07,0,.11,0a1.77,1.77,0,0,1,.17-.12c0-.15,0-.44,0-.5a3.49,3.49,0,0,0-.33-1.38c-.31-.54-.55-1.12-.89-1.63a8.65,8.65,0,0,0-1-1.35c-.39-.43-.85-.8-1.27-1.21-.26-.22-.49-.47-.77-.67-1-.69-2-1.36-2.94-2-.47-.35-.93-.75-1.41-1.11s-.71-.55-1.07-.81a15.17,15.17,0,0,0-1.37-.88,9.88,9.88,0,0,0-1.88-.85,11.92,11.92,0,0,0-2.24-.6,9.88,9.88,0,0,0-2.11-.23c-.12,0-.27,0-.37,0s-.44-.06-.66-.08-.43-.07-.66-.07c-.49,0-1-.05-1.48-.08a4.78,4.78,0,0,1-.76-.08c-.51-.1-1-.23-1.55-.34s-.8-.14-1.2-.23-1-.25-1.54-.38a5,5,0,0,1-.92-.31c-.57-.28-1.11-.63-1.66-1a19.7,19.7,0,0,1-2.42-1.63,7.3,7.3,0,0,0-1.46-.91,10.62,10.62,0,0,0-2-.72A7.37,7.37,0,0,0,81,2.3c-.43.05-.86,0-1.27.13A6.08,6.08,0,0,0,78,3c-.66.37-1.32.71-2,1.09s-1,.64-1.54.95-.93.58-1.4.84a8.81,8.81,0,0,1-2.83.8,13.42,13.42,0,0,1-1.91.13c-.44,0-.9,0-1.35-.06l-1.3-.08h-.1a5.38,5.38,0,0,0-1-.14,5,5,0,0,1-2-.3A13.68,13.68,0,0,1,60,5.36a21,21,0,0,1-2.08-.51c-1-.23-1.89-.46-2.8-.77s-1.56-.66-2.38-.91-1.48-.54-2.22-.82-1.27-.48-1.9-.7-1.45-.49-2.19-.71C45.94.8,45.48.7,45,.59L43.12.19A6.24,6.24,0,0,0,41.92,0c-1.12,0-2.23,0-3.36.12s-2,.05-3,.14C34.74.35,33.89.39,33,.5A8.38,8.38,0,0,0,31.13,1a14.86,14.86,0,0,0-3.35,1.64,16.45,16.45,0,0,0-2.09,1.56c-.33.33-.6.73-.91,1.08A9.56,9.56,0,0,1,22.36,7a11.31,11.31,0,0,1-1.49.6,2.92,2.92,0,0,1-.64.27c-.51.08-1,.1-1.54.14a17.38,17.38,0,0,0-2.29.15,13.21,13.21,0,0,1-2.34.2c-.41,0-.81,0-1.21,0a10.08,10.08,0,0,0-1.22.12c-.68.11-1.36.27-2,.39a7.12,7.12,0,0,0-1.74.47c-.26.12-.54.21-.81.32l-2,.87a12,12,0,0,0-1.92,1.06c-.24.16-.51.33-.57.64a1.36,1.36,0,0,0,.16.89,3.71,3.71,0,0,0,.42.7.56.56,0,0,1,0,.61,4.7,4.7,0,0,1-.53.81c-.34.42-.71.8-1,1.23a4.41,4.41,0,0,0-.77,1.14c-.18.54-.44,1-.59,1.61a6.42,6.42,0,0,0-.1,2.22A1.33,1.33,0,0,0,.32,22c.21.28.48.51.66.8a4,4,0,0,0,1.09,1,9,9,0,0,0,1.24.73,13,13,0,0,0,1.62.83,4.22,4.22,0,0,1,1.33,1,11.54,11.54,0,0,1,1,1.09,1,1,0,0,1,.21.41,3.31,3.31,0,0,1,.19,1.25,2.36,2.36,0,0,0,0,.75A3,3,0,0,0,7.87,31a.28.28,0,0,0,.37.15,1.12,1.12,0,0,0,.53-.3,6.42,6.42,0,0,0,.76-1.11,12,12,0,0,1,.91-1.79,2.15,2.15,0,0,1,.63-.61.85.85,0,0,1,.7,0,1.78,1.78,0,0,1,.73,1c.05.19.12.38.16.58l.42,2c.11.48.23.95.34,1.43a6.52,6.52,0,0,1,.3,1.56c0,.72.19,1.42.16,2.15a.68.68,0,0,0,.57.58.59.59,0,0,0,.34-.07,3,3,0,0,0,.66-.72,6,6,0,0,0,.61-2.33,1.89,1.89,0,0,0,.06-.67,2.45,2.45,0,0,1,.09-.7,13.46,13.46,0,0,1,.11-1.55c.09-.45.22-.89.34-1.32a.62.62,0,0,1,.55-.41c.28,0,.42.17.62.26a3.35,3.35,0,0,1,1,.73c.19.16.32.4.49.57a.71.71,0,0,0,1.16,0,6.51,6.51,0,0,0,.84-1.25,14.82,14.82,0,0,1,1.32-2.07,5.92,5.92,0,0,1,1.09-.83,4.14,4.14,0,0,1,1-.63c.46-.22.95-.36,1.42-.54A7.53,7.53,0,0,1,28,24.79a10.61,10.61,0,0,1,1.59.05l.87.1a14.47,14.47,0,0,0,1.61.21A14.13,14.13,0,0,0,33.52,25a3.68,3.68,0,0,0,1.58-.48,3.9,3.9,0,0,1,2-.53c.78,0,1.57,0,2.37,0,.28,0,.58-.05.69.32a.45.45,0,0,0,.16,0c0-.39.26-.22.44-.22a14.32,14.32,0,0,0,1.46-.1,14.43,14.43,0,0,0,1.7-.23c.69-.17,1.41-.27,2.12-.41.17-.24.33.07.52,0a3.52,3.52,0,0,1,1.53-.3c.45,0,.9,0,1.34,0,.17,0,.39-.14.52-.09a1.53,1.53,0,0,0,.66.07c.39,0,.79,0,1.17.09.56.1,1.12.26,1.69.35a10.09,10.09,0,0,1,2.32.79A6.69,6.69,0,0,1,58.26,26a7.59,7.59,0,0,1,.62,1,5.7,5.7,0,0,1,.59,1.68c.17.76.29,1.54.43,2.31,0,.26.06.53.09.79s.11.66.14,1,0,.6.08.89.23.57.59.56a.78.78,0,0,0,.71-.65,7.59,7.59,0,0,1,.14-.92,4.39,4.39,0,0,0,.19-1c0-.11.06-.23.06-.34a4.48,4.48,0,0,1,.23-.89c.09-.3.07-.6.13-.9a3.12,3.12,0,0,1,.59-1.31,3.67,3.67,0,0,1,1.72-1.31,2.75,2.75,0,0,0,.82-.46s-.07-.09,0-.18.12,0,.13.05,0,.09-.09.13a.49.49,0,0,0,.3.08c.33,0,.65,0,1,0a4.31,4.31,0,0,1,.88.09,1.9,1.9,0,0,0,.85.16c.07,0,.15.08.23.12A5.59,5.59,0,0,1,70.41,28a1.22,1.22,0,0,0,1,.48A2.75,2.75,0,0,0,72.72,28a6.25,6.25,0,0,1,2.5-1.4.81.81,0,0,1,.51,0,.56.56,0,0,0,.23,0c0-.26.24-.15.37-.16a12.37,12.37,0,0,1,1.35.05,7,7,0,0,1,1.36.28,9.6,9.6,0,0,1,2.1,1,2.54,2.54,0,0,0,1,.42,4.66,4.66,0,0,0,2-.2,2.88,2.88,0,0,1,1.32-.2,1.71,1.71,0,0,1,.72.14c.11,0,.11.27.16.42l0,0a1.45,1.45,0,0,1,.17.19c0-.1.14-.23.11-.28-.17-.24.06-.14.13-.16s.07.07.11.08a3.54,3.54,0,0,1,1.29,1c.48.6.93,1.22,1.37,1.85a5,5,0,0,1,.79,1.23A4.79,4.79,0,0,1,90.67,34a6.07,6.07,0,0,0,.07,1.71,8.45,8.45,0,0,1,.12,1.65,1,1,0,0,0,.08.29.51.51,0,0,0,.44.43c.26,0,.41-.12.52-.36a5,5,0,0,1,.39-.59c.06-.06.14-.14.14-.22,0-.46.29-.88.24-1.37a5,5,0,0,1,.11-.93c0-.11.09-.23.1-.34,0-.37.18-.75,0-1.13a.55.55,0,0,1,.06-.37c.25-.06,0,.23.18.28s.09.14.12.22a7.78,7.78,0,0,1,.25.86c.06.3,0,.63.09.93A1.43,1.43,0,0,0,94,36a.49.49,0,0,0,.79-.14,2,2,0,0,1,.29-.45,1.66,1.66,0,0,0,.36-1.08c0-.15,0-.34,0-.46a1.16,1.16,0,0,0,.09-.85,7.81,7.81,0,0,1,0-1.08,2.32,2.32,0,0,0-.08-.7A3.41,3.41,0,0,1,95.32,30a1.37,1.37,0,0,1,1-1.18,12.92,12.92,0,0,1,1.36-.24,1.94,1.94,0,0,0,.42,0,10.79,10.79,0,0,1,2.17-.3c.59-.05,1.19-.06,1.77-.13a10.65,10.65,0,0,0,1.61-.31,5,5,0,0,0,1.52-.57.63.63,0,0,1,.57-.12c.05,0,.18-.07.18-.08-.11-.29.19-.36.3-.52a5.3,5.3,0,0,1,.53-.53,2.6,2.6,0,0,1,1.14-.56,2.49,2.49,0,0,1,.58-.2c.52-.06,1-.07,1.58-.12a6.06,6.06,0,0,0,.74-.15c.43-.11.85-.27,1.27-.34a21.37,21.37,0,0,0,2.74-.89,5.85,5.85,0,0,0,1.76-1c.24-.18.5-.29.72-.44s.18-.17.38-.4a.53.53,0,0,0,0-.11c-.09,0-.22.2-.3.17ZM85.87,3.66a.13.13,0,0,0,.09.1h-.09a.31.31,0,0,0-.08-.1ZM84.3,3l0,.05S84.26,3,84.3,3Zm-.61-.2.16,0a.23.23,0,0,1-.17,0A.35.35,0,0,1,83.69,2.83ZM79.85,2.7a.36.36,0,0,0,0-.09C79.88,2.64,79.87,2.67,79.85,2.7Zm-.59.09-.06,0S79.25,2.77,79.26,2.79ZM78.5,3a1,1,0,0,0,.2-.09s0,0,0,.06a.35.35,0,0,0-.12,0,.17.17,0,0,0-.1.08ZM76.33,4.15c0,.07,0,.08-.1.09l0-.07ZM61.93,6.21a1.25,1.25,0,0,0,.37.09.24.24,0,0,0,.08.09h-.09a1.11,1.11,0,0,0-.36-.08c0-.06,0-.08-.09-.09Zm-.38-.1a.21.21,0,0,1,0,.06S61.52,6.12,61.55,6.11Zm-1.74-.56.08.06a.34.34,0,0,0-.12,0C59.71,5.56,59.74,5.54,59.81,5.55Zm-.93-.23a.21.21,0,0,0,0,.06S58.85,5.32,58.88,5.32ZM57.82,5l.14,0a.24.24,0,0,0,.08.09H58a.23.23,0,0,0-.16-.07S57.81,5.05,57.82,5ZM57.5,5l0,.06S57.46,5,57.5,5Zm-1.26-.3.24,0a.48.48,0,0,0,.09.1h-.09a.39.39,0,0,0-.21,0,.46.46,0,0,1-.14,0S56.2,4.67,56.24,4.67Zm-.4-.13a.38.38,0,0,0,.08.11h-.08a.13.13,0,0,0-.09-.1Zm-.7-.21.15,0c0,.07.05.09.09.1h-.09a.28.28,0,0,0-.16-.07A.35.35,0,0,0,55.14,4.33Zm-2-.72a.1.1,0,0,0-.05,0C53.13,3.54,53.13,3.58,53.13,3.61Zm-.57-.25.15,0a.25.25,0,0,1-.16,0A.2.2,0,0,1,52.56,3.36Zm-1.7-.63.2,0c-.1.05-.14.06-.18.05a.26.26,0,0,1-.09-.05A.15.15,0,0,1,50.86,2.73Zm-1.52-.62.16,0a1,1,0,0,0,.27.14s0,0,.07.06-.07,0-.08,0l-.27-.12a.23.23,0,0,0-.16-.08A.43.43,0,0,1,49.34,2.11ZM48,1.74a.09.09,0,0,0-.06,0C48,1.68,48,1.71,48,1.74Zm-.46-.25s0,0,0,.05a.3.3,0,0,1-.12,0C47.42,1.51,47.47,1.5,47.52,1.49Zm-.33,0,0-.09C47.23,1.42,47.2,1.45,47.19,1.48ZM45,.78l.15,0a.67.67,0,0,0,.33.14l.39.07a4.17,4.17,0,0,1-.5,0c-.07,0-.15-.08-.22-.12A.22.22,0,0,0,45,.85.15.15,0,0,0,45,.78Zm-3.4-.6h.09a.11.11,0,0,1-.11.09c-.05,0-.08,0-.12,0A.35.35,0,0,1,41.61.18ZM40,.29,40,.25C40,.24,40,.26,40,.29ZM39,.4l0,0S39,.37,39,.4ZM58.58,26l.05,0C58.58,26.09,58.58,26.06,58.58,26Z"/><path id="fill1" d="M21.44,27.4c0-.66,0-1.32-.05-2a14.85,14.85,0,0,1-.13-1.88c0-.19-.06-.37-.07-.56s0-.1,0-.15a.76.76,0,0,1,.06.16c.05.24.11.48.14.72s0,.66.07,1c0,.74.06,1.5.14,2.24a1.24,1.24,0,0,1,0,.76s0,.08,0,.13l.1-.08a.39.39,0,0,0,.16-.36c0-.53,0-1.06,0-1.58a1.13,1.13,0,0,1,.06-.31s.06-.05.1-.08,0,0,0,.08a3.24,3.24,0,0,1,0,1.42s0,.09.08.13.07,0,.09,0a.72.72,0,0,0,.18-.63c-.07-.6-.15-1.2-.24-1.79a15.26,15.26,0,0,1-.11-2.53s0-.06,0-.09a.47.47,0,0,1,.06-.09s0,.05,0,.08c0,.32.05.65.07,1,0,.66.07,1.31.14,2,0,.47.15.94.24,1.41a.23.23,0,0,0,.15.07c.16-.16.37-.29.33-.57s-.09-.67-.14-1a.88.88,0,0,1,0-.17c0-.09.05-.26.08-.26.19,0,.09.14.1.22.06.39.1.79.16,1.18a.89.89,0,0,0,.09.16c.07-.08.19-.17.18-.23a4.91,4.91,0,0,0-.17-.76,10.92,10.92,0,0,1-.24-1.41,11.19,11.19,0,0,1-.13-1.83A6.34,6.34,0,0,0,23,21a.56.56,0,0,1,0-.12.47.47,0,0,1,.05.1.82.82,0,0,1,.09.19,10.2,10.2,0,0,0,.07,1.12c.1.53.11,1.08.21,1.61s.17,1,.26,1.46c.05.25.12.26.35.12s.37-.17.54-.28a.22.22,0,0,0,.1-.29,14.11,14.11,0,0,1-.29-1.44.21.21,0,0,1,0-.14c.06-.06.14-.11.2-.16a.45.45,0,0,1,.07.18,9.57,9.57,0,0,0,.24,1.42c0,.3.22.12.33.15s.14-.13.14-.22l-.06-1.07a.59.59,0,0,1,0-.23c0-.06.07-.1.11-.15s.08.1.06.13c-.1.25,0,.48,0,.72a3,3,0,0,0,.07.66s.06.06.09.06.09,0,.09-.08c0-.3,0-.61,0-.92s0-.57,0-.85c0,0,.07-.07.11-.1s.07.06.07.09c0,.36,0,.72.07,1.08a1.31,1.31,0,0,0,0,.28,1,1,0,0,0,.13.3,3.26,3.26,0,0,0,.48-.2s0-.1,0-.15a5.7,5.7,0,0,1-.11-1.75.51.51,0,0,1,.09-.13c0,.05.09.11.09.16a7.47,7.47,0,0,0,.14,1.64c0,.32.26.22.44.24s.32-.08.31-.3l0-.93c0-.11,0-.23,0-.35s0-.07.06-.1.1.05.11.09a1.25,1.25,0,0,1,.09.37c0,.28,0,.56,0,.84s.12.28.31.27.19,0,.14-.16a3.28,3.28,0,0,1-.13-1.46c0-.05,0-.09.06-.14s.1.09.12.14a.37.37,0,0,1,0,.18,4.13,4.13,0,0,0,.16,1.22.28.28,0,0,0,.49.13.19.19,0,0,0,0-.13c-.08-.64-.17-1.28-.25-1.92-.06-.4-.11-.81-.15-1.22,0-.06,0-.12.07-.18s.1.09.1.15a29.42,29.42,0,0,0,.48,3.24.37.37,0,0,0,.57.14s0-.08,0-.12c0-.22,0-.43,0-.64,0,0,0-.07.07-.1s.1.06.11.1c0,.25,0,.5.08.75,0,.06.08.11.13.17s.06-.12.05-.17c-.08-.34-.07-.69-.18-1a5.16,5.16,0,0,1-.23-1.05c-.11-.8-.21-1.6-.31-2.4-.05-.34-.11-.69-.16-1a1,1,0,0,1,0-.16.76.76,0,0,1,.06.16,4.31,4.31,0,0,1,.15.62c.13,1,.28,2,.47,3a13.86,13.86,0,0,0,.43,1.8.67.67,0,0,0,.06.15c.09.11.19.25.34.16s0-.19,0-.3a6,6,0,0,1-.17-1.68.5.5,0,0,1,0-.13.52.52,0,0,1,.06.13c.08.45.16.91.25,1.36a2.48,2.48,0,0,0,.17.48.38.38,0,0,0,.11.14c0-.06.08-.13.07-.19-.09-.4-.21-.8-.29-1.21-.13-.62-.24-1.24-.37-1.86-.08-.38-.18-.76-.24-1.14s-.05-.59-.08-.89c0-.14-.06-.28-.08-.43a.38.38,0,0,1,.05-.12s.08.06.09.1a5.23,5.23,0,0,1,.12.54c.14.83.24,1.68.42,2.5a15.61,15.61,0,0,0,.63,2.44,1.55,1.55,0,0,1,0,.31.25.25,0,0,0,.12.13c.11,0,.18,0,.16-.15s-.05-.23-.07-.34c-.06-.42-.11-.84-.17-1.26a.32.32,0,0,1,0-.14s.07-.05.11-.06a.1.1,0,0,1,.07,0c0,.16.06.31.08.47.05.39.1.79.16,1.18a.36.36,0,0,0,.11.22s.14,0,.21,0,0-.08,0-.13c-.08-.53-.15-1.07-.24-1.6A11.37,11.37,0,0,1,32,21.79c0-.38-.12-.75-.14-1.13s-.1-.73-.14-1.09-.05-.59-.06-.88c0,0,.06-.06.1-.1a.67.67,0,0,1,.06.12c.05.52.08,1,.15,1.55.09.68.23,1.35.31,2s.24,1.45.4,2.17c0,.17.12.13.22.14a1.47,1.47,0,0,0,0-.21c0-.42-.12-.84-.17-1.26,0-.23-.06-.47-.07-.7,0-.05.07-.1.11-.15a.54.54,0,0,1,.07.13c.08.57.15,1.13.24,1.7a1.43,1.43,0,0,0,.17.43s.1,0,.15,0a.17.17,0,0,0,0-.12,14.1,14.1,0,0,1-.39-1.8,12.57,12.57,0,0,1-.25-2.2,3.21,3.21,0,0,0-.07-.43c0-.05.06-.11.1-.16s.07.08.08.12c.08.69.13,1.38.23,2.07s.27,1.35.42,2a.5.5,0,0,0,.15.25.42.42,0,0,0,.29.05s.1-.13.1-.2c0-.32-.06-.65-.09-1s0-.45,0-.67c0,0,0-.07.07-.1s.11.06.11.1c.06.42.11.84.16,1.27,0,.18.06.49.17.46s.1-.33.08-.51-.09-.61-.13-.91-.11-.75-.16-1.13v-.09c0-.2,0-.39.07-.59.2.14.08.37.12.55a15.72,15.72,0,0,0,.3,1.8,1.67,1.67,0,0,1,0,.5,1.6,1.6,0,0,0,.05.21c.08,0,.18,0,.24-.08s0-.14,0-.21c0-.3-.07-.59-.09-.88,0-.07.09-.15.13-.22a.64.64,0,0,1,.1.18c0,.26.07.52.12.78,0,.08.1.14.15.22,0-.12.2-.09.16-.31a9.12,9.12,0,0,1-.09-1.48.84.84,0,0,1,.07-.26l.07-.07a.47.47,0,0,1,.05.1,2.92,2.92,0,0,1,.07,1,2.57,2.57,0,0,0,.09.61.29.29,0,0,0,.23.14c.14,0,.28-.07.43-.08a.24.24,0,0,0,.26-.3c0-.22,0-.44-.07-.66a12.16,12.16,0,0,1-.13-2.34c0-.2-.06-.4-.07-.61,0-.05.08-.12.13-.18s0,.13,0,.19c.05.5.1,1,.14,1.5s0,.75.07,1.12.1.73.16,1.09c0,.06.09.11.13.17s.14-.14.14-.21a2.65,2.65,0,0,0-.07-.48.83.83,0,0,1,.13-.5,1.53,1.53,0,0,1,.14.41,4.81,4.81,0,0,1,.07.53c0,.21.15.27.35.24h.18c.42,0,.56-.14.41-.51s-.08-.75-.21-1.1c0,0,.06-.09.09-.13s.06.05.07.09c.06.22.12.44.17.67s.1.53.17.8c0,.07.15.12.23.15s.13-.09.13-.12c-.1-.47-.24-.94-.32-1.42,0-.26,0-.53-.07-.8a8,8,0,0,1-.07-1.3c0-.6,0-1.19,0-1.78a.79.79,0,0,1,0-.13,1.39,1.39,0,0,1,.06.13,3.72,3.72,0,0,1,.08.57A12.48,12.48,0,0,0,39,20.34c.07.54.07,1.1.16,1.64a12.43,12.43,0,0,0,.33,1.37c.05.22.25.07.37.11s.08-.19.06-.26a2.1,2.1,0,0,1-.13-.86.71.71,0,0,1,.08-.18.42.42,0,0,1,.1.2,3.54,3.54,0,0,0,.19,1.07s.08.07.12.1,0-.09,0-.13-.06-.25-.07-.37a8.79,8.79,0,0,0-.3-1.35.28.28,0,0,1,0-.12c0-.45,0-.91-.06-1.36s-.1-.78-.15-1.17V19l0-2.33a.49.49,0,0,1,.05-.16c0,.06,0,.11,0,.17,0,.33,0,.66.07,1,.11.72,0,1.45.21,2.16a3.94,3.94,0,0,1,.07,1,11.37,11.37,0,0,0,.34,2,1,1,0,0,0,.07.25c0,.12.06.26.15.34a.43.43,0,0,0,.32.08s.09-.18.08-.26c0-.28-.15-.56-.2-.84s-.08-.7-.12-1.05a.47.47,0,0,1,.06-.15l0,.17A2.87,2.87,0,0,1,41,22a8.15,8.15,0,0,0,.33,1.38c0,.15.06.21.21.18h0c.5,0,.48,0,.34-.5s-.19-.78-.27-1.17c0-.06.05-.13.08-.19a.78.78,0,0,1,.1.15c.15.46.28.92.44,1.38,0,.09.14.22.21.21a7.91,7.91,0,0,0,1.08-.11s.11-.2.09-.29a6.14,6.14,0,0,0-.22-.73,2.52,2.52,0,0,1-.1-.46.7.7,0,0,1,.08-.27c.06.07.17.14.17.22a2.34,2.34,0,0,0,.18.79c.08.19.11.39.18.57a.18.18,0,0,0,.17.07s.09-.09.1-.15,0-.08,0-.12a5.69,5.69,0,0,1-.47-1.73A11.66,11.66,0,0,1,43.48,19a4.93,4.93,0,0,0-.07-.66.56.56,0,0,1,0-.12.75.75,0,0,1,.13.11.53.53,0,0,1,0,.18A16.89,16.89,0,0,0,44,21.32a3.8,3.8,0,0,0,.27,1c.1.21.2.43.31.65,0,0,.08.13.16,0s.16-.12.15-.16c-.07-.38-.17-.75-.25-1.13a4.52,4.52,0,0,1-.06-.53c0-.05,0-.1.05-.15s.11.08.12.13c.1.38.18.76.26,1.13,0,.13.06.25.08.38s.18.21.34.2.15-.06.1-.17a5.06,5.06,0,0,1-.4-1.63,13.56,13.56,0,0,1-.22-2.2c0-.3-.05-.6-.06-.9,0,0,0-.07,0-.11A.43.43,0,0,1,45,18a.24.24,0,0,1,0,.12c0,.39,0,.79.08,1.17a13.18,13.18,0,0,0,.2,1.52c.14.45.18.94.28,1.4a1.91,1.91,0,0,0,.18.47.23.23,0,0,0,.31.12c.15-.06.09-.16.06-.28a8.74,8.74,0,0,1-.17-.89c-.06-.33-.13-.66-.16-1a8.7,8.7,0,0,0-.08-1.26,5.62,5.62,0,0,1,0-1.08.93.93,0,0,1,0-.13l.06.14c0,.05.08.1.08.15,0,.36.06.72.07,1.08A8.21,8.21,0,0,0,46.27,22c0,.16.06.34.1.5a.28.28,0,0,0,.42.18c.07,0,.17-.1.11-.25a6.3,6.3,0,0,1-.48-2.1c0-.16-.05-.31-.06-.47s.09-.12.13-.12a.24.24,0,0,1,.13.13.56.56,0,0,1,0,.13A7.27,7.27,0,0,0,47,22.21c0,.15.09.43.29.36s0-.3,0-.41a7.22,7.22,0,0,1-.39-1.9c0-.47-.09-.94-.13-1.42,0,0,.07-.08.1-.13a.16.16,0,0,1,.07.07c0,.17.06.35.08.52a9.92,9.92,0,0,0,.36,2.37c.07.19.07.4.13.59s.28.33.56.25a.57.57,0,0,1,.18,0c.21,0,.19-.11.18-.23a2.8,2.8,0,0,0-.12-.5A7.89,7.89,0,0,1,48,20.08c-.06-.53-.1-1.06-.14-1.59a1.21,1.21,0,0,1,0-.19l0-.08a.31.31,0,0,1,.09.07.34.34,0,0,1,0,.17c.05.57.07,1.16.15,1.73.06.42.18.84.28,1.26s.15.55.21.83.15.2.3.19.2,0,.14-.18c-.15-.41-.27-.84-.39-1.26,0-.06,0-.15.07-.23s.12.1.14.17a6.08,6.08,0,0,0,.49,1.31.83.83,0,0,0,.17.15c0-.08.11-.16.1-.24a2.62,2.62,0,0,0-.07-.79c-.13-.4,0-.83-.14-1.23a1.14,1.14,0,0,1,0-.32,2.56,2.56,0,0,1,0-.27,1.14,1.14,0,0,1,.13.3c0,.34,0,.68.08,1s.09.81.15,1.22a.39.39,0,0,0,.49.22.2.2,0,0,0,.05-.15,2.25,2.25,0,0,1-.14-1c0-.19-.14-.46.19-.57,0-.23,0-.45,0-.68,0,0-.06-.08-.05-.11s0-.26.08-.27.08.15.1.23A6.19,6.19,0,0,0,51,22s0,.1,0,.12-.09,0-.12,0-.12-.13-.19-.19-.07,0-.1,0,0,.06,0,.09c.09.38.14.42.53.43.19,0,.38.06.57.07s.23,0,.16-.19a4.82,4.82,0,0,1-.13-.86,13.62,13.62,0,0,1,0-2.12,1.09,1.09,0,0,1,.05-.17.42.42,0,0,1,0,.16c0,.76.08,1.53.14,2.29a3.16,3.16,0,0,0,.11.6s.06.06.09.09.06-.07.05-.1,0-.32-.06-.48a.83.83,0,0,1,0-.15s.11,0,.13.08a.79.79,0,0,1,0,.64c0,.1,0,.2-.07.3s0,.22.17.07.08,0,.12,0c.27,0,.31,0,.25-.23A1.32,1.32,0,0,1,52.7,22c0-.26-.11-.56,0-.76a1.52,1.52,0,0,0,.11-.8,4.74,4.74,0,0,0-.06-.75c0-.25.08-.52-.07-.76,0-.06,0-.18,0-.27s.05-.31.07-.47a2.37,2.37,0,0,1,.11.46c.06.57.06,1.16.16,1.73a8.15,8.15,0,0,0,.21,1.7c.06.14,0,.34,0,.5s.1.23.16.23c.58,0,1.07.33,1.64.38.13,0,.14,0,.12-.08a6,6,0,0,0-.18-.84,16.83,16.83,0,0,1-.48-2.24A18.35,18.35,0,0,1,54.19,18c0-.09-.06-.18-.07-.28a.6.6,0,0,1,0-.22.85.85,0,0,1,.13.22,3.55,3.55,0,0,1,.08.47c.08.58.14,1.17.25,1.74a12.38,12.38,0,0,0,.64,2.48,7.06,7.06,0,0,1,.19.89c0,.06,0,.15,0,.17a.43.43,0,0,0,.21,0s0-.08,0-.12c0-.37,0-.74-.07-1.11,0,0,0-.11.05-.16s.11.08.12.13a6.36,6.36,0,0,1,.08.75.93.93,0,0,0,.32.79.3.3,0,0,1,.12.32l.12,0a.41.41,0,0,0,0-.08c-.19-.87-.36-1.75-.58-2.61-.14-.53-.21-1.08-.3-1.62s-.16-1.13-.23-1.7c0-.07,0-.15,0-.23a3.24,3.24,0,0,0-.05-1.12s.06-.1.1-.16.07.09.07.14c0,.47,0,.94.07,1.4.1.68.18,1.36.28,2s.37,1.6.54,2.4c.12.6.33,1.18.5,1.77a.12.12,0,0,0,.11,0s.07-.05.07-.08A1.23,1.23,0,0,0,57,24c-.14-.69-.29-1.38-.43-2.07,0,0,0-.08.06-.13s.07,0,.08.07a6,6,0,0,1,.25.9,8.17,8.17,0,0,0,.4,1.49,1.42,1.42,0,0,0,.32.42c.24.26.5.51.76.77l.09.09s.05-.09,0-.13c0-.28-.1-.56-.16-.85s-.19-.87-.24-1.32c-.07-.67-.09-1.34-.14-2a.61.61,0,0,1,0-.14.19.19,0,0,1,0-.08s.05,0,.06.08a.75.75,0,0,1,.08.24c0,.41,0,.82.07,1.22.13.81.29,1.62.45,2.43,0,.26.17.52.2.78a2.58,2.58,0,0,0,.41.89.73.73,0,0,0,.09.08.38.38,0,0,0,0-.17c-.09-.41-.21-.81-.28-1.22s-.14-1-.2-1.48c0-.05,0-.11.06-.17a.71.71,0,0,1,.12.18,2.43,2.43,0,0,1,.08.47,15.26,15.26,0,0,0,.47,2.33A10.62,10.62,0,0,1,59.88,28a3.94,3.94,0,0,0,.32,1.3c.08.46.12.91.19,1.36,0,.27.13.54.14.81a3,3,0,0,0,.16,1,.81.81,0,0,1,0,.27,4.38,4.38,0,0,0,0,.51,3.45,3.45,0,0,0,.12.46c.17-.08.12-.25.16-.39a9,9,0,0,0,.32-1.71,1.05,1.05,0,0,1,.08-.34c0-.13,0-.28-.08-.31s-.15-.21-.17-.34a17.36,17.36,0,0,0-.27-2.6c0-.06,0-.15.08-.22s.12.09.13.15c.07.4.11.81.2,1.21a6.08,6.08,0,0,1,.06,1.35c0,.05,0,.09.08.13s.09-.07.1-.12a3.17,3.17,0,0,0,0-1.7,10.62,10.62,0,0,1-.17-1.49c0-.38-.11-.76-.15-1.13a10.69,10.69,0,0,1-.06-1.13,4.71,4.71,0,0,0-.15-1.18,1.21,1.21,0,0,1,0-.49,3.06,3.06,0,0,1,.13.43c.06.42.08.85.16,1.27.15.81.07,1.65.3,2.45a9.2,9.2,0,0,1,.16,1.31.66.66,0,0,0,.06.2s0,.05.06.07A.47.47,0,0,0,61.9,29a2.92,2.92,0,0,0-.1-1.77,2,2,0,0,1,0-.35c-.06-.47-.13-.93-.19-1.39,0,0,0-.08,0-.12s0-.36.06-.54a3.51,3.51,0,0,0,.13.49c.16.45.12.95.3,1.39a6.07,6.07,0,0,1,.2,1c0,.07.07.12.11.18s.12-.13.13-.2a3,3,0,0,0,0-.73c0-.52-.15-1-.23-1.55s-.22-1.29-.32-1.94c0-.29-.05-.59-.07-.89a.58.58,0,0,1,.06-.15l.06.16c0,.21.11.42.14.63.11.72.2,1.45.32,2.16.08.42.23.83.31,1.25a2.9,2.9,0,0,1,0,.59.61.61,0,0,0,0,.12.48.48,0,0,0,.16-.08.35.35,0,0,0,.07-.15A4.29,4.29,0,0,0,63,25.78c0-.2-.09-.39-.11-.6s-.06-.71-.09-1.06a.22.22,0,0,1,0-.11s.08,0,.1.09a2.37,2.37,0,0,1,.11.5,12.16,12.16,0,0,0,.34,1.93c0,.06,0,.32.23.23a.53.53,0,0,0,.31-.42c-.16-.7-.33-1.39-.47-2.1-.08-.41-.12-.84-.18-1.26,0-.26-.09-.51-.13-.77a.78.78,0,0,1,0-.26s0-.08.08-.09a.13.13,0,0,1,.1.06c.06.36.1.72.16,1.08.09.52.19,1.05.29,1.57s.32.92.38,1.41a.66.66,0,0,0,.09.28c.05.07.09.16.23,0s1-.2,1,0-.71.53-.91.58a3.63,3.63,0,0,0-1.72,1.32,3,3,0,0,0-.59,1.3,8.28,8.28,0,0,1-.13.89,4.57,4.57,0,0,0-.23.9c0,.11-.06.23-.06.34a5,5,0,0,1-.19,1,7.19,7.19,0,0,0-.14.93.77.77,0,0,1-.71.63c-.36,0-.54-.13-.59-.55s-.05-.59-.08-.89-.1-.66-.14-1-.05-.53-.09-.79c-.14-.77-.25-1.55-.43-2.3A5.94,5.94,0,0,0,58.89,27a7,7,0,0,0-.63-1,6.8,6.8,0,0,0-2.41-1.87,10.14,10.14,0,0,0-2.33-.78c-.57-.09-1.13-.25-1.69-.35a11.3,11.3,0,0,0-1.17-.09,1.65,1.65,0,0,1-.66-.06c-.13-.06-.34.07-.52.08-.44,0-.89,0-1.34,0a3.5,3.5,0,0,0-1.53.28c-.19.1-.35-.21-.52,0-.71.14-1.43.24-2.13.42a14,14,0,0,1-1.69.22,14.32,14.32,0,0,1-1.45.1c-.19,0-.44-.16-.45.22a.45.45,0,0,1-.16,0c-.11-.37-.41-.32-.69-.32-.79,0-1.59.05-2.37,0a3.93,3.93,0,0,0-2,.53,3.82,3.82,0,0,1-1.59.48c-.47,0-.94.19-1.41.18a11.09,11.09,0,0,1-1.61-.21c-.29,0-.58-.08-.88-.1A10.47,10.47,0,0,0,28,24.79a7.54,7.54,0,0,0-1.94.3,14.41,14.41,0,0,0-1.43.53,5.36,5.36,0,0,0-1,.63,5.43,5.43,0,0,0-1.07.84,13.07,13.07,0,0,0-1.33,2.05,5.59,5.59,0,0,1-.84,1.25.71.71,0,0,1-1.16,0c-.18-.18-.3-.41-.49-.57a3.9,3.9,0,0,0-1-.74c-.21-.08-.35-.3-.63-.25a.63.63,0,0,0-.55.4c-.12.44-.25.88-.33,1.33a11.56,11.56,0,0,0-.12,1.55,2.86,2.86,0,0,0-.09.7,2.1,2.1,0,0,1-.05.67,6.5,6.5,0,0,1-.62,2.33,3,3,0,0,1-.66.72c-.07.07-.22.06-.34.06a.66.66,0,0,1-.57-.57c0-.73-.17-1.42-.15-2.15a7,7,0,0,0-.31-1.56c-.11-.48-.23-1-.34-1.43-.14-.67-.27-1.35-.42-2,0-.2-.11-.39-.16-.58a1.69,1.69,0,0,0-.73-1,.76.76,0,0,0-.69,0,2,2,0,0,0-.64.61,12.61,12.61,0,0,0-.92,1.79,5.85,5.85,0,0,1-.75,1.11,1.12,1.12,0,0,1-.53.3A.28.28,0,0,1,7.87,31a3.19,3.19,0,0,1-.24-1.14,2.63,2.63,0,0,1,0-.74,3.3,3.3,0,0,0-.19-1.26.91.91,0,0,0-.22-.41,10.34,10.34,0,0,0-1-1.09,4.22,4.22,0,0,0-1.33-1,13.73,13.73,0,0,1-1.62-.83,7.39,7.39,0,0,1-1.24-.74,3.81,3.81,0,0,1-1.09-1C.8,22.53.52,22.31.32,22a1.3,1.3,0,0,1-.27-.57,6.41,6.41,0,0,1,.1-2.22c.14-.56.4-1.07.59-1.61a4.17,4.17,0,0,1,.77-1.14c.33-.42.7-.81,1-1.23a4.47,4.47,0,0,0,.54-.82.54.54,0,0,0,0-.6,4.89,4.89,0,0,1-.42-.69,1.34,1.34,0,0,1-.16-.9,1.12,1.12,0,0,1,.57-.64A12.82,12.82,0,0,1,5,10.56l2.05-.87c.26-.11.54-.2.81-.32A6.93,6.93,0,0,1,9.59,8.9c.68-.12,1.36-.28,2-.4a9.88,9.88,0,0,1,1.22-.11c.4,0,.8,0,1.21,0a13.21,13.21,0,0,0,2.34-.2A17.38,17.38,0,0,1,18.69,8c.51,0,1-.06,1.54-.13a3,3,0,0,0,.64-.28A10.78,10.78,0,0,0,22.36,7a9.34,9.34,0,0,0,2.41-1.73c.32-.35.59-.75.93-1.08a14.63,14.63,0,0,1,2.09-1.57A15.23,15.23,0,0,1,31.13,1,9.47,9.47,0,0,1,33.05.5c.84-.12,1.68-.15,2.53-.24s2,0,3-.14S40.8,0,41.92,0a5.55,5.55,0,0,1,1.2.19c.64.12,1.27.26,1.9.4.46.1.92.21,1.37.35.73.22,1.46.46,2.18.71s1.27.47,1.91.71,1.47.58,2.22.81,1.58.62,2.38.9a28.92,28.92,0,0,0,2.8.78A20.36,20.36,0,0,0,60,5.36a15.37,15.37,0,0,0,2.67.85,5,5,0,0,0,1.95.29,4.83,4.83,0,0,1,1,.15h.08L67,6.73c.45,0,.9.07,1.35.06a12.31,12.31,0,0,0,1.92-.13,8.45,8.45,0,0,0,2.81-.8c.48-.26.94-.56,1.41-.84s1-.65,1.54-.95S77.31,3.35,78,3a6,6,0,0,1,1.74-.56c.41-.09.84-.07,1.26-.13a7.63,7.63,0,0,1,2.65.32,11,11,0,0,1,2,.72,6.78,6.78,0,0,1,1.44.92,21.83,21.83,0,0,0,2.43,1.62c.55.32,1.09.66,1.66,1a4.84,4.84,0,0,0,.93.31c.51.14,1,.26,1.54.38s.79.14,1.19.23l1.56.34a5.94,5.94,0,0,0,.75.08l1.49.07.65.08c.22,0,.45-.05.66.07s.25,0,.37,0a9.88,9.88,0,0,1,2.11.22,13.84,13.84,0,0,1,2.23.61,10.32,10.32,0,0,1,1.89.85,13.36,13.36,0,0,1,1.37.89c.36.25.72.53,1.08.8s.92.76,1.41,1.1c1,.7,2,1.36,2.93,2.05a8.15,8.15,0,0,1,.77.68c.42.39.87.77,1.27,1.2a9.61,9.61,0,0,1,1,1.34c.34.52.58,1.1.89,1.64a3.33,3.33,0,0,1,.33,1.38,2.42,2.42,0,0,1,0,.58c-.09,0-.23.22-.32.18a3.59,3.59,0,0,1-.17-.7,5.3,5.3,0,0,0-.65-1.94c-.26-.4-.5-.8-.76-1.19a4.44,4.44,0,0,0-.61-.75c-.7-.7-1.41-1.4-2.14-2.07-.32-.29-.71-.49-1.06-.75l-2.2-1.6c-.75-.55-1.47-1.13-2.23-1.67a9.59,9.59,0,0,0-1.25-.71c-.29-.15-.53-.37-.85-.5-.58-.24-1.18-.38-1.77-.59a12,12,0,0,0-2-.43,14,14,0,0,0-2-.16c-.72,0-1.44-.1-2.15-.15a15.64,15.64,0,0,1-2.16-.33,26,26,0,0,1-3.92-1c-.25-.1-.49-.22-.73-.34a13.53,13.53,0,0,1-1.77-1c-.59-.4-1.2-.77-1.79-1.17-.25-.17-.49-.36-.73-.55a8.34,8.34,0,0,0-2.53-1.17,7.53,7.53,0,0,0-3.19-.39,10.16,10.16,0,0,0-1.94.41,10.28,10.28,0,0,0-1.37.68c-1,.54-2,1.18-3,1.81a9.13,9.13,0,0,1-1.82,1A9.3,9.3,0,0,1,71,7.05a16.21,16.21,0,0,1-3,.21,17.64,17.64,0,0,1-1.78-.06C65.45,7.13,64.63,7,63.8,7a12,12,0,0,1-2.5-.61c-1.17-.32-2.3-.73-3.5-1a14.08,14.08,0,0,1-2-.53C55,4.59,54.25,4.26,53.48,4l-1.24-.43c-.17-.07-.35-.12-.52-.18-.73-.27-1.48-.51-2.18-.82A22.23,22.23,0,0,0,47,1.61a14,14,0,0,0-2-.54C44.09,1,43.3.71,42.48.55A4.66,4.66,0,0,0,41.36.47c-1.41,0-2.83.05-4.24.18-.73.07-1.47,0-2.19.13S33.51.86,32.8,1A19.67,19.67,0,0,0,30,2a17.08,17.08,0,0,0-2.61,1.46A8,8,0,0,0,25.68,5,7.93,7.93,0,0,1,23.21,7,9.07,9.07,0,0,1,22,7.67a4.31,4.31,0,0,0-1,.42,1.48,1.48,0,0,1-.59.16c-.44.06-.87.09-1.31.12-.7.05-1.4.06-2.1.14s-1.32.2-2,.3h-.27c-.73,0-1.46,0-2.19,0a10.36,10.36,0,0,0-1.09.19l-.84.12a11.67,11.67,0,0,0-1.46.22,11.3,11.3,0,0,0-1.48.52c-.77.3-1.55.59-2.3.93a14,14,0,0,0-1.3.74c-.22.12-.43.27-.64.4-.45.3-.5.52-.24,1,.15.26.24.54.38.81a1,1,0,0,1-.18,1.12c-.48.7-1,1.35-1.55,2A7.47,7.47,0,0,0,1,18.4a4.48,4.48,0,0,0-.43,2.13,2,2,0,0,0,.38,1.31c.26.29.48.63.76.91,0,0,.1,0,.16,0a.22.22,0,0,0,0-.12,2.52,2.52,0,0,1,.06-1.51.56.56,0,0,0,0-.44s0-.1.07-.15.11.09.11.14a4,4,0,0,0,.06,1c0,.13.06.22.18.28s.06.08.05.08c-.19.13-.15.33-.14.51a2.32,2.32,0,0,0,.08.7c.07.15.26.25.4.36s.14-.11.13-.11c-.17-.23,0-.51-.07-.76s-.06-.25-.07-.38a.51.51,0,0,1,0-.21s.07-.07.1-.1a.41.41,0,0,1,0,.09,1.17,1.17,0,0,1,.09.24c0,.41,0,.81.07,1.22a.39.39,0,0,0,.15.28c.36.22.74.4,1.12.6a.88.88,0,0,0,.16,0,1.13,1.13,0,0,0,0-.18c0-.37-.1-.75-.16-1.13-.07-.54-.16-1.09-.23-1.64a.59.59,0,0,1,0-.23c0-.06.08-.09.13-.14a.88.88,0,0,1,.05.15c0,.35.11.69.16,1,.07.55.12,1.1.23,1.65,0,.1,0,.22,0,.32s0,.38.27.45l.23.08a1.89,1.89,0,0,1,0-.23l0-1.16s0-.05,0-.08a.19.19,0,0,1,0,.1c0,.43,0,.87.07,1.3,0,.06.05.11.08.17s.1-.12.09-.17c0-.5-.1-1-.17-1.49,0-.24-.1-.48-.13-.72s0-.66-.07-1a.58.58,0,0,1,0-.16c0,.06.11.11.13.18a3.55,3.55,0,0,1,.08.47c.06.46.09.94.16,1.4A10.74,10.74,0,0,1,5.72,25c0,.24.18.37.42.46l.17.05,0-.06-.17,0A2.86,2.86,0,0,1,6.07,24a4.58,4.58,0,0,0,0-1.23c0-.23,0-.45,0-.67,0,0,0-.07,0-.1l.1.1,0,.08c0,.34,0,.68.07,1a10.45,10.45,0,0,0,.14,1.36,5.45,5.45,0,0,1,.06,1.07.43.43,0,0,0,.19.38s.1,0,.15,0v-.16l0-1s.06-.06.09-.08.09.07.09.11c0,.33,0,.66,0,1a.89.89,0,0,0,.2.65.43.43,0,0,0,.13.09c0-.06,0-.13,0-.17a3.07,3.07,0,0,1,0-1.13c0-.05.06-.11.09-.17s.08.11.08.17c0,.46,0,.94.08,1.39a2,2,0,0,0,.36.9,1.87,1.87,0,0,1,.31,1.11c0,.45,0,.9,0,1.35,0,.11.06.22.07.33s.06.18.17.1.11-.21.09-.22c-.25-.18-.13-.44-.14-.68a7,7,0,0,1,0-.79,2.36,2.36,0,0,0-.23-1.28,4.87,4.87,0,0,1-.26-1.08,5.51,5.51,0,0,1-.08-.71.28.28,0,0,1,0-.12s.11.06.12.11a2.49,2.49,0,0,1,.17.79c0,.38.25.58.35.87a1.19,1.19,0,0,1,.1.28c0,.75,0,1.49,0,2.24V30a.51.51,0,0,0,0,.13s.12-.05.13-.09c.09-.26.31-.48.17-.81-.08-.17.08-.44.08-.66,0-.54,0-1.09,0-1.63a.61.61,0,0,1,0-.13s.12.06.12.1a3.28,3.28,0,0,1,.1.7c0,.37,0,.74,0,1.11,0,0,.06.08.09.12a.73.73,0,0,0,.09-.08,2,2,0,0,0,.26-1.48,1.26,1.26,0,0,1,.16-1.19c.09-.1.05-.33,0-.5,0-.52-.09-1-.14-1.55s-.1-1-.14-1.54a.85.85,0,0,1,0-.32s.08-.09.13-.13a.56.56,0,0,1,0,.12c0,.45,0,.9.06,1.35a14.09,14.09,0,0,1,.21,1.7c0,.35.25.68,0,1,0,0,0,.12.07.19a.59.59,0,0,1-.15.8c-.05,0-.05.17-.06.26a.34.34,0,0,0,.05.11,1.48,1.48,0,0,0,.13-.08c.14-.15.24-.37.41-.44s.27-.28.27-.5a8.29,8.29,0,0,0-.23-1.93c-.05-.21,0-.44-.05-.66a10.47,10.47,0,0,1-.08-1.49s0-.08.05-.11a.56.56,0,0,1,0,.12,4.53,4.53,0,0,1,.16.71c.05.36,0,.72.08,1.08s.1.93.17,1.4c0,.27.12.54.13.81s.08.25.26.23a.89.89,0,0,1,.23,0c.11,0,.17,0,.17-.15a8.81,8.81,0,0,0-.13-1.46c-.05-.42-.06-.84-.08-1.26,0,0,.07-.07.1-.11s.08.08.08.13c.08.78.13,1.56.24,2.34,0,.3,0,.67.36.85a1.18,1.18,0,0,1,.19.11.89.89,0,0,0,.06-.2c0-.47,0-.93,0-1.4a.56.56,0,0,1,.09-.17c0,.05.09.1.09.15,0,.55,0,1.09,0,1.63a1,1,0,0,0,.08.47,9.67,9.67,0,0,1,.59,1.82,4.6,4.6,0,0,1,.08.84c0,.06.08.12.12.18s.08-.14.06-.2c-.15-.47,0-1-.14-1.45a.89.89,0,0,1,0-.23,7.27,7.27,0,0,0-.14-1.55,8.91,8.91,0,0,1-.07-1c0-.3-.05-.59-.06-.89,0,0,0-.09.08-.13s.09.07.09.12c.06.57.09,1.15.15,1.73s.16,1.19.23,1.79a3.53,3.53,0,0,1,0,.46,6.46,6.46,0,0,0,.14,1.46c.05.26,0,.53.06.8a8.49,8.49,0,0,0,.16,1.22,9.19,9.19,0,0,1,.17,1.49c0,.1,0,.2,0,.3,0,.44,0,.87.06,1.31a.84.84,0,0,0,.15.3.15.15,0,0,0,.13,0,.54.54,0,0,0,.27-.63,4.8,4.8,0,0,1-.14-1.25,7.84,7.84,0,0,0-.14-1.68c-.07-.34,0-.69-.08-1-.06-.52-.17-1-.23-1.56a6.15,6.15,0,0,1,0-.74s0-.06.06-.1,0,0,0,.08l.15,1.22a5.42,5.42,0,0,1,.19,1.08c0,.27.12.53.13.81A15.68,15.68,0,0,0,15.14,34a.76.76,0,0,1,0,.45c-.18.25,0,.45,0,.68,0,0,0,.06.06.09l0-.13a1.82,1.82,0,0,0,.17-.44,3.91,3.91,0,0,0,.09-1.83,2.68,2.68,0,0,1-.08-.7c0-.42,0-.85-.08-1.26a8.39,8.39,0,0,0-.13-1,4,4,0,0,1-.08-1c0-.48,0-1-.06-1.45-.06-.79-.13-1.57-.18-2.36a.71.71,0,0,1,.06-.23.61.61,0,0,1,.05-.12s0,.07,0,.11a5.39,5.39,0,0,1,.08.56c0,.38.06.75.06,1.13a11.34,11.34,0,0,0,.14,1.64c.06.33.05.68.08,1,0,.68.08,1.37.13,2,0,.27,0,.54.08.8,0,.07.07.12.11.18a.64.64,0,0,0,.06-.18c0-.43,0-.86,0-1.3,0-.25.14-.51,0-.76a6,6,0,0,1-.32-1.52A9.19,9.19,0,0,1,15.42,27s.05-.08.08-.12.09.07.1.11c0,.37,0,.75.07,1.12s.09.91.15,1.36c0,.07.08.12.12.18s.13-.1.15-.16a6.36,6.36,0,0,0,.19-.62.55.55,0,0,0,0-.22c0-.12-.05-.23-.05-.34a10.13,10.13,0,0,0-.14-1.74A12.09,12.09,0,0,1,16,25.19a.31.31,0,0,1,.05-.12s.08.06.09.1a2.15,2.15,0,0,1,.12.5c0,.48,0,1,.06,1.45a1.77,1.77,0,0,0,0,.23l.12.59a3.34,3.34,0,0,0,.06-.62c0-.28.11-.58-.05-.85,0,0,.07-.12.11-.18l.16.13s0,.06,0,.09c0,.54,0,1.09.05,1.63,0,.08,0,.22.07.22a.44.44,0,0,0,.37-.32,7.32,7.32,0,0,1,0-.81A8.87,8.87,0,0,0,17,25.31s0-.11,0-.16.13.06.14.11a6.78,6.78,0,0,1,.16.9c0,.62,0,1.24.05,1.86a.47.47,0,0,0,0,.17.32.32,0,0,0,.1.1s.05-.07.05-.1c0-.25,0-.51-.05-.76a5,5,0,0,1,0-.55s.06-.07.09-.07.08.05.08.08c0,.4.07.81.06,1.21a.49.49,0,0,0,.19.43l.64.45.06,0s0-.11,0-.12c-.38-.3-.27-.75-.33-1.15s-.13-.93-.2-1.39-.11-.9-.2-1.34a5.22,5.22,0,0,0-.15-1,.45.45,0,0,1,0-.23s.05-.08.08-.08.1,0,.1.05a2.57,2.57,0,0,1,.08.47,13.66,13.66,0,0,0,.24,1.56c.09.4.1.81.16,1.22s.11.56.16.85c0,.1,0,.17.13.23s.11.28.13.43,0,.45.06.67c.08.47.53.65.79,1,.07-.06.2-.13.19-.17-.06-.41-.09-.82-.13-1.23a13.31,13.31,0,0,1-.13-1.55.32.32,0,0,1,0-.14.54.54,0,0,1,.1-.16.89.89,0,0,1,.08.17,18.54,18.54,0,0,0,.22,2,5.3,5.3,0,0,1,0,.69c0,.08.08.15.12.23s.12-.11.14-.18.26-.38.14-.68a3.77,3.77,0,0,1-.09-1c0-.24,0-.47-.07-.71s.05-.44-.07-.66a.27.27,0,0,1,.12-.36l.14-.1c0,.05,0,.09,0,.13a9.18,9.18,0,0,0,.27,2.15c0,.12-.1.15-.07.26s0,.24-.07.36l.12.05a3.53,3.53,0,0,0,.51-.87,2,2,0,0,0-.11-.82c0-.24-.07-.49-.1-.73,0-.06.05-.13.08-.19s.09.1.1.15c.05.23.08.46.15.71l.11,0-.09-.05M10,26.75v-.08a.17.17,0,0,1-.1.08v.09a.22.22,0,0,1,.1-.09m47.38-2h.09a.17.17,0,0,1-.08-.1h-.09a.17.17,0,0,1,.08.1M85.87,3.67h-.09a.22.22,0,0,1,.09.1H86s0,0-.08-.09m-30,.87h-.08a.22.22,0,0,1,.08.1h.09a.18.18,0,0,1-.09-.1m-.55-.08h.08a.22.22,0,0,1-.08-.1l-.15,0v.06a.31.31,0,0,1,.16.07m2.67.7h.09A.12.12,0,0,1,58,5.07l-.15,0,0,.06a.26.26,0,0,1,.16.07M78.59,3l.12,0V2.91a.77.77,0,0,1-.2.09v.09a.22.22,0,0,1,.1-.09M62.3,6.39h.08s-.05,0-.08-.1a1,1,0,0,1-.37-.08h-.09a.22.22,0,0,1,.09.1,1.05,1.05,0,0,1,.37.09M56.49,4.81h.08a.17.17,0,0,1-.08-.1,1.09,1.09,0,0,0-.25,0,.28.28,0,0,0-.12,0l.14,0a.47.47,0,0,1,.23,0m-7-2.67-.14,0,0,.06a.2.2,0,0,1,.16.06l.27.14.08,0-.06-.06a1,1,0,0,1-.29-.14M45.16.82,45,.78V.84a.28.28,0,0,1,.16.07c.07,0,.14.12.22.12s.33,0,.5,0L45.49,1a.91.91,0,0,1-.33-.13m5.43,20.09,0,0h0a.28.28,0,0,0,0,.13c0,.13,0,.26,0,.39l.07-.49m2.3,1s0,0,0,0h0a1.42,1.42,0,0,0-.07-.22h-.06a.47.47,0,0,0,.07.2M51.06,2.76l-.2,0s0,0-.07,0,.06.05.09.05a.25.25,0,0,0,.18-.05M41.7.18h-.09l-.14.06.11,0A.11.11,0,0,0,41.7.18M2.19,23l-.09-.09L2.05,23c.06,0,.12,0,.14-.05M59.76,5.64l.13,0s0-.05-.08-.06-.1,0-.05.09M47.42,1.57l.12,0,0-.05c-.05,0-.1,0-.1.08m-.27-.18,0,.09s0-.06,0-.09M79.81,2.61l0,.09s0-.06,0-.09m-27.1.78-.14,0,0,.06a.19.19,0,0,0,.16,0m31.14-.53-.15,0,0,.06a.24.24,0,0,0,.17,0M76.34,4.15l-.12,0v.06s.1,0,.11-.09M39,.36,39,.4s0-.05-.06,0M53,23l0,0s0,.05,0,0m-2.65-1.44,0,0s0-.06,0,0M57.46,5l0-.06s-.05,0,0,.06m26.8-1.94,0-.06s-.06,0,0,.06m-31.18.48.06,0s0-.05-.06,0m5.55,22.5-.05,0s0,.05.05,0M40,.25l.05,0s0,0-.05,0M58.84,5.38l0-.06s-.06,0,0,.06m2.67.79,0-.06s0,0,0,.06M79.2,2.76l.06,0s0,0-.06,0M47.93,1.7l0,0S48,1.68,47.93,1.7ZM68.82,26.34l.52.25a3,3,0,0,1-.11-.5c0-.5,0-1-.06-1.5,0-.27.07-.54-.07-.8,0-.06.05-.18.08-.27a1.92,1.92,0,0,1,.18.22s0,.09,0,.13a3.33,3.33,0,0,1,.07.7,4.59,4.59,0,0,0,.24,1.61,1.94,1.94,0,0,0,.51,1c.17.15.36.28.54.42,0-.24,0-.48-.09-.72-.11-.61-.24-1.21-.37-1.82A5.79,5.79,0,0,1,70,24c0-.45-.15-.87-.18-1.31s-.11-.66-.15-1a1.41,1.41,0,0,1,.05-.35c.13.08.12.21.14.35a11.33,11.33,0,0,0,.15,1.17c.07.37.17.73.25,1.09.11.57.2,1.14.34,1.7s.32,1.09.47,1.64a1.76,1.76,0,0,1,0,.4.29.29,0,0,0,.41.21s0-.11,0-.15c-.07-.23-.17-.45-.23-.68a2.13,2.13,0,0,1-.08-.61c0-.2-.09-.37,0-.58s-.08-.25-.06-.37.13-.14.2-.2a1.06,1.06,0,0,1,.06.19A9.45,9.45,0,0,0,71.71,27c.06.14.11.29.17.43a.41.41,0,0,0,.53.16c.31-.16.38-.28.26-.55a6.3,6.3,0,0,1-.47-1.74c-.08-.71-.27-1.41-.39-2.12,0-.33,0-.66-.07-1-.07-.52-.15-1-.21-1.56,0,0,0-.11.06-.17s.09.07.09.11c.06.43.1.85.16,1.27.13.83.28,1.66.42,2.49.07.37.15.73.23,1.1,0,0,0,.07,0,.09.45.41.34,1,.43,1.52,0,0,.1.05.15.08.06-.13.29-.14.16-.41a2.84,2.84,0,0,1-.18-1,1.33,1.33,0,0,1,.08-.67.81.81,0,0,0,0-.63c-.2-.44.06-.86,0-1.28,0,0,0,0,0-.07s.06,0,.06.07a.72.72,0,0,1,.07.25c0,.31,0,.62,0,.93a8.59,8.59,0,0,0,.23,2.15c0,.22.12.23.33.12a4.59,4.59,0,0,1,.69-.29c.17,0,.15-.12.11-.27a12.34,12.34,0,0,1-.18-1.36c-.07-.56,0-1.12,0-1.68a.28.28,0,0,1,0-.12l0,.1c0,.05.08.1.08.15a2.2,2.2,0,0,1,.06.84c-.1.4.17.71.15,1.06s.21.67.1,1c0,.13,0,.12.13.07.32-.14.32-.11.26-.44a1.09,1.09,0,0,1,0-.36c0-.38.07-.75.12-1.13a.67.67,0,0,1,.13-.23,1.16,1.16,0,0,1,.14.24.88.88,0,0,1,0,.23,7,7,0,0,0,0,.79,1.06,1.06,0,0,0,.18.6c.08.1.33.06.51.07l1.31.07c.23,0,.21-.07.19-.27,0-.5,0-1,0-1.51,0,0,.1,0,.16-.06a2,2,0,0,1,.1.32,4.27,4.27,0,0,0,.06,1.13c.09.29.13.58.54.56a.78.78,0,0,1,.24.09l.13.05s0-.1,0-.12c-.17-.2-.12-.44-.14-.68s-.11-.66-.16-1,0-.47-.06-.71l-.06-1.54s0-.06.05-.09a.3.3,0,0,1,0,.08c0,.16,0,.31.08.47.07.5.15,1,.22,1.51s.12.85.17,1.27a3.4,3.4,0,0,0,.09.65c0,.08,0,.27.21.28s.54.24.81.36a2.63,2.63,0,0,1,.75.41,3.3,3.3,0,0,0,.9.45.79.79,0,0,0,.31,0,2.16,2.16,0,0,0,0-.27,4.51,4.51,0,0,1-.24-1.46,14.89,14.89,0,0,1-.12-2.67c0-.11-.07-.22-.08-.33a.48.48,0,0,1,.08-.18c0,.05.11.1.1.14-.08.29,0,.57,0,.86a3.58,3.58,0,0,0,.14.9c0,.29,0,.59.08.89.07.56.14,1.13.23,1.69a.85.85,0,0,0,.21.41c.07.06.24,0,.36,0a5.45,5.45,0,0,0,1.81-.4c.21-.06.19-.12.14-.3a3.4,3.4,0,0,1-.08-.65s.06-.07.09-.08a.13.13,0,0,1,.09.07,2.42,2.42,0,0,1,.13.58c0,.34.24.37.44.44s.44,0,.43-.34A5.26,5.26,0,0,0,86,25.58s0,0,0,0c0-.76,0-1.53,0-2.3a.55.55,0,0,1,0-.17.83.83,0,0,1,0,.15,3.78,3.78,0,0,1,.08.56,10.63,10.63,0,0,0,.14,1.79c0,.3,0,.62.07.93a3.62,3.62,0,0,0,.09.66c0,.1.16.19.27.26.3.18.62.35.93.52a.1.1,0,0,0,.16-.11l-.33-1.23c-.11-.39-.22-.77-.31-1.16,0,0,0-.12.07-.12a.24.24,0,0,1,.16.08c.08.26.13.53.21.78s.27.72.41,1.07a.9.9,0,0,1,0,.8s0,.09,0,.13a1.81,1.81,0,0,0,.19.29,2.35,2.35,0,0,0,.25.19c0-.11,0-.23,0-.34s-.09-.46-.11-.69c0-.4-.06-.81-.06-1.21a15.92,15.92,0,0,0-.13-1.83,17.54,17.54,0,0,1-.06-1.78.47.47,0,0,1,.06-.15l.06.16a.44.44,0,0,1,.06.16c0,.43.06.87.06,1.3a4.19,4.19,0,0,0,.15,1.32.27.27,0,0,1,0,.09c0,.55,0,1.09.06,1.64a10,10,0,0,0,.18,1.07c.06.24.15.48.23.73,0,0,0,.07,0,.09s.16.19.24.29c.07-.13,0-.21,0-.33-.15-.47-.27-1-.4-1.43a.57.57,0,0,1,0-.18c0-.09,0-.26.08-.26.2,0,.08.14.11.22.12.41.23.82.37,1.22a1.73,1.73,0,0,1,.13,1,.58.58,0,0,0,.09.28,3.79,3.79,0,0,0,.34.45s.1.05.15.07a.45.45,0,0,0,0-.16c0-.05-.06-.1-.06-.15,0-.5-.06-1-.06-1.5a12.42,12.42,0,0,0-.13-1.83c0-.35,0-.71,0-1.07s.1-.45-.06-.66c0,0,0-.14,0-.21s.06-.06.1-.09l0,.08s0,0,0,.05c0,.6,0,1.22.06,1.81A4,4,0,0,0,90.07,28c0,.06,0,.15,0,.23a6.17,6.17,0,0,0,.13,1.87,2.64,2.64,0,0,1,0,.56,1,1,0,0,0,.23.64A4,4,0,0,1,91.15,33c.06.31.13.62.16.94,0,.14-.1.29-.09.43a3.79,3.79,0,0,0,.07,1.07,4.81,4.81,0,0,1,.13,1.51,1.76,1.76,0,0,0,0,.23s0,.07,0,.11.11,0,.13-.08A3.91,3.91,0,0,0,92,36.14c.14-.55,0-1.14.3-1.66,0-.37.08-.75,0-1.13a6.51,6.51,0,0,0-.06-1.17c0-.11.06-.23,0-.39-.09-.34,0-.72-.1-1.07a6.26,6.26,0,0,0-.14-1.23.54.54,0,0,1,0-.18A13.41,13.41,0,0,0,92,27.63c-.07-.49,0-1,0-1.45a10.6,10.6,0,0,1-.13-1.69s0,0,0,0l0-.08a.47.47,0,0,1,.06.09,3.55,3.55,0,0,1,.08.47c0,.4,0,.81.07,1.21a9.92,9.92,0,0,0,.13,1.55,1,1,0,0,1,0,.24,7.58,7.58,0,0,0,.14,1.64,9.45,9.45,0,0,1,.07,1.07c0,.25,0,.5.08.75,0,.05.09.12.13.11a.36.36,0,0,1,.38.2,4.36,4.36,0,0,1,.66,1.15,4.32,4.32,0,0,0,.26.53,5.21,5.21,0,0,1,.24,1.41,6.32,6.32,0,0,0,.18.62s.15,0,.16,0a2.05,2.05,0,0,0,.42-1.05c0-.3.06-.6.09-.9a11,11,0,0,0-.06-1.9,6.59,6.59,0,0,1-.2-1.47c0-.06,0-.14,0-.18-.28-.45-.18-1-.31-1.45a.69.69,0,0,1,0-.13c0-.55,0-1.09-.05-1.64,0-.19-.06-.37-.07-.56s.06-.11.1-.16.07.08.07.13c0,.64.09,1.28.15,1.92,0,.43.09.85.15,1.27,0,0,.06.08.09.11a.34.34,0,0,0,.09-.08,3,3,0,0,0,.16-.31,1.8,1.8,0,0,1,1.3-.84c.2-.06.51-.09.55-.21a1.37,1.37,0,0,0,0-.8,12.06,12.06,0,0,0-.41-1.29c0-.07-.07-.14-.06-.2s0-.37.07-.37c.26,0,.06.2.11.3.18.37.33.75.53,1.11a1.32,1.32,0,0,1,.16,1c0,.12,0,.3.19.24h.28a.24.24,0,0,0,.27-.29c0-.2,0-.41-.08-.61a22.7,22.7,0,0,0-.39-2.45.22.22,0,0,1,0-.14l0-.12s.12.06.13.1c.07.29.14.59.19.89.11.69.21,1.38.32,2.07a.52.52,0,0,0,.09.28c.07.08.2.17.28.15s.36-.22.58-.19c0,0,.08-.14.06-.19-.08-.21-.19-.41-.28-.62-.17-.4-.34-.81-.5-1.21a.14.14,0,0,1,0-.09c0-.07,0-.13.07-.2a.67.67,0,0,1,.11.14c0,.1.08.21.13.31.21.44.42.87.62,1.3a3.81,3.81,0,0,0,.23.5c0,.07.16.09.24.13l.12-.32s0,0,0,0a5.9,5.9,0,0,1-.3-1.57c0-.53-.15-1-.23-1.56a.27.27,0,0,0,0-.09c0-.53,0-1.06,0-1.59,0-.14-.06-.28-.08-.43s0-.09.07-.14.11.06.11.09c0,.27.05.54.08.8.09.66.08,1.32.2,2,.08.41.11.84.19,1.26s.21.92.33,1.37c0,.07.13.13.21.15a1.71,1.71,0,0,0,.32,0c.4,0,.44-.08.3-.44s-.27-.78-.4-1.17l-.49-1.44s-.06-.09,0-.12.08-.16.12-.24.11.11.12.17a11.94,11.94,0,0,0,.92,2.46c.07.15.09.33.16.48a.37.37,0,0,0,.21.18c.19.06.22,0,.18-.21s-.06-.52-.09-.79c-.07-.5-.15-1-.21-1.52s-.12-1-.17-1.53c0,0,0-.08,0-.12a.56.56,0,0,1,0,.12c.06.22.13.44.17.67.09.53.13,1.07.25,1.59a9.34,9.34,0,0,1,.25,1.28.38.38,0,0,0,.44.33,4.82,4.82,0,0,0,2-.51.59.59,0,0,0,.33-.73,10,10,0,0,0-.76-1.74,6.09,6.09,0,0,1-.35-1,.38.38,0,0,1,0-.17c0,.05.12.08.14.14.13.31.22.64.36.95a6.73,6.73,0,0,0,.44.73,5,5,0,0,1,.43,1.38s.07.07.1.11.09-.1.08-.14c0-.31-.1-.63-.16-.94l-.24-1.41c-.11-.66-.2-1.33-.33-2,0-.28-.17-.54-.24-.81,0-.05,0-.12,0-.18s.11.06.12.1a7.79,7.79,0,0,1,.28.94c.15.81.26,1.63.41,2.45.09.49.22,1,.33,1.47,0,0,0,.08,0,.12a.94.94,0,0,0,.1-.1,4.14,4.14,0,0,0,.37-.46,1.71,1.71,0,0,0,.33-.66c0-.18-.13-.39-.22-.58s-.23-.49-.34-.73a.3.3,0,0,1,0-.16s.12.05.14.09a11.13,11.13,0,0,1,.57,1,1.33,1.33,0,0,1,0,.53c0,.14.06.15.18.09.3-.14.38-.38.28-.8-.06-.26-.09-.54-.14-.81-.07-.52-.16-1-.22-1.56,0-.17,0-.35,0-.51a7.51,7.51,0,0,0-.37-1.31c0-.05,0-.12,0-.18s.1.08.12.13a5.78,5.78,0,0,1,.34,1,3.35,3.35,0,0,0,.56,1.19c.23.38.5.73.72,1.12a1.52,1.52,0,0,1,.18.85c0,.27.06.36.33.36H109l.4-.05a2.63,2.63,0,0,1-.15-.35c-.13-.53-.27-1.06-.35-1.6a3.68,3.68,0,0,0-.37-1.22,1.29,1.29,0,0,1,0-.19c.08,0,.2,0,.22.09.13.38.26.78.37,1.17.18.65.34,1.3.51,2,0,.19.19.2.35.18s.19-.15.22-.3a1.83,1.83,0,0,0-.35-1.24,2.38,2.38,0,0,1-.17-.47s0-.08.05-.12,0,0,.06.06l.6,1.08c.15.26,0,.49-.08.73a.37.37,0,0,0,0,.16,4.61,4.61,0,0,0,.63-.2c.25-.11.28-.22.2-.45-.22-.65-.43-1.31-.66-2a3.51,3.51,0,0,0-.41-.93,1.1,1.1,0,0,1-.11-.32s0-.06,0-.09.08,0,.1,0,.1.19.16.29.16.58.5.65.18.26.27.39c.39.49.75,1,1.12,1.5.06.08.15.17.15.25,0,.31.17.29.38.21,0,0,0-.06.07-.06s.36,0,.4-.15a1.13,1.13,0,0,0-.07-.51c-.19-.54-.41-1.06-.58-1.59a1.8,1.8,0,0,0-.41-.8s0-.12,0-.19.13,0,.16.06a4.86,4.86,0,0,1,.4.7c.29.69.54,1.39.82,2.09a.15.15,0,0,0,.1.09,1.08,1.08,0,0,0,.36-.05c.64-.23,1.28-.46,1.91-.73.41-.18.8-.42,1.2-.64,0,0,0-.12,0-.15s-.26-.32-.38-.49,0-.11,0-.16.1,0,.13,0,.21.22.32.32.11.42.36.2c0,0,.06,0,.11,0s.12-.11.16-.11a.84.84,0,0,1-.07.19c-.2.24-.13.24-.38.41s-.48.26-.71.44a5.57,5.57,0,0,1-1.77,1,20.41,20.41,0,0,1-2.74.9c-.43.07-.84.23-1.27.34a4.7,4.7,0,0,1-.73.14c-.53.05-1.07.07-1.59.13a2.46,2.46,0,0,0-.58.19,2.9,2.9,0,0,0-1.14.56,6.57,6.57,0,0,0-.52.54c-.12.16-.43.23-.32.53,0,0-.12.09-.17.08a.6.6,0,0,0-.58.11,5,5,0,0,1-1.51.57,10.9,10.9,0,0,1-1.61.31c-.59.07-1.18.09-1.77.13a10,10,0,0,0-2.17.31c-.13,0-.28,0-.42,0-.45.07-.91.13-1.35.24a1.36,1.36,0,0,0-1,1.18,3.43,3.43,0,0,0,.14,1.27,2.68,2.68,0,0,1,.08.7,7.81,7.81,0,0,0,0,1.08,1.27,1.27,0,0,1-.08.85c-.07.12,0,.3,0,.46a1.56,1.56,0,0,1-.36,1.07,2.6,2.6,0,0,0-.28.45A.49.49,0,0,1,94,36a1.5,1.5,0,0,1-.43-.88c0-.3,0-.63-.08-.93a6.5,6.5,0,0,0-.25-.86c0-.08-.06-.19-.12-.22s.07-.34-.17-.28c0,0-.11.26-.07.37.14.38,0,.75,0,1.13a2.56,2.56,0,0,1-.1.34,4.27,4.27,0,0,0-.1.93c0,.49-.24.91-.25,1.37,0,.08-.08.15-.13.23a3.9,3.9,0,0,0-.41.59c-.11.24-.25.38-.51.35a.51.51,0,0,1-.44-.43,1,1,0,0,1-.08-.28,7,7,0,0,0-.13-1.65A6.55,6.55,0,0,1,90.67,34a4.88,4.88,0,0,0-.36-1.79A5.19,5.19,0,0,0,89.52,31c-.45-.62-.89-1.25-1.37-1.85a3.57,3.57,0,0,0-1.3-1s-.07-.08-.1-.07-.3-.09-.13.15c0,.05-.07.18-.1.28l-.17-.19,0,0c-.06-.15-.07-.38-.17-.43a2.36,2.36,0,0,0-.72-.13,2.74,2.74,0,0,0-1.32.21,4.79,4.79,0,0,1-2,.19,2.45,2.45,0,0,1-1-.41,10.15,10.15,0,0,0-2.1-1,7.8,7.8,0,0,0-1.36-.27,12.46,12.46,0,0,0-1.36-.05c-.12,0-.32-.1-.36.16a.5.5,0,0,1-.24,0,.86.86,0,0,0-.5,0A6.1,6.1,0,0,0,72.72,28a2.72,2.72,0,0,1-1.28.53,1.24,1.24,0,0,1-1-.46,5.71,5.71,0,0,0-1.78-1.22c-.08,0-.16-.12-.23-.11a1.9,1.9,0,0,1-.85-.16,3.74,3.74,0,0,0-.89-.09c-.32,0-.65,0-1,0s-.44-.12-.25-.44a.53.53,0,0,0,.07-.2c0-.31-.06-.62-.11-.92s-.14-.86-.2-1.29a6.77,6.77,0,0,0-.08-.8c-.15-.52-.1-1.08-.23-1.6a1.21,1.21,0,0,1,0-.19.61.61,0,0,1,0-.12s.11.07.12.12a2.63,2.63,0,0,1,.1.47c0,.26,0,.53.07.8,0,.42.1.84.17,1.26s.15.82.23,1.23.15.71.24,1c0,.07.1.11.15.16V25.8a.77.77,0,0,1,0-.26c.08-.29-.09-.55,0-.85a4.12,4.12,0,0,0,0-.93.32.32,0,0,1,0-.14c0-.08.09-.15.13-.23a.73.73,0,0,1,0,.2c0,.26,0,.53,0,.79a10.36,10.36,0,0,0,.07,1.12.64.64,0,0,0,.24.4.72.72,0,0,0,.42.06s.08-.21.07-.32c-.07-.43-.16-.85-.24-1.27s-.18-.76-.25-1.14c-.11-.58-.22-1.17-.32-1.75a.88.88,0,0,1,0-.28,2.07,2.07,0,0,1,0-.22,1,1,0,0,1,.14.23c.14.73.27,1.45.41,2.17s.33,1.61.5,2.41a.52.52,0,0,0,.09.2.54.54,0,0,0,.13.07s0-.11,0-.15a7.52,7.52,0,0,1-.22-1.57c0-.11,0-.23,0-.34a.7.7,0,0,1,.08-.23c.06.06.15.12.17.19.09.53.15,1.07.24,1.6a.82.82,0,0,0,.32.59.68.68,0,0,0,.24.08.55.55,0,0,0,.07-.23c-.07-.46-.15-.92-.24-1.37l-.24-1.32c-.08-.51-.17-1-.24-1.51,0-.34,0-.69-.07-1a.19.19,0,0,1,0-.08s.06,0,.06.07c.06.23.12.47.17.71a4.34,4.34,0,0,1,.08.52,25.56,25.56,0,0,0,.8,3.89c0,.14,0,.29.09.46m12.53,1.21h.09a.15.15,0,0,1-.09-.09h-.08a.14.14,0,0,1,.08.1m26.83-3a2.11,2.11,0,0,0,0-.56,9,9,0,0,0-1.08-2.14s-.08,0-.12,0,0,.07,0,.1c0,.23.07.46.11.68.11.58.23,1.16.32,1.74s.17.53.62.34a.22.22,0,0,0,.12-.14M110.94,22a3.62,3.62,0,0,0-.22-.32.52.52,0,0,0-.13-.06.29.29,0,0,0,0,.13,22.7,22.7,0,0,1,.8,2.13c.09.29.17.31.52.19.11,0,.22-.09.13-.3A14.32,14.32,0,0,0,110.94,22M86.78,27.88l-.14-.19-.07,0a.42.42,0,0,0,.21.16m2.76,2.6-.14-.13,0,.07a.2.2,0,0,0,.18.06m.81,1.29-.1.05s.06,0,.1-.05M87.47,28.1l-.15,0,0,.06a.22.22,0,0,0,.17,0M90,31.22l0,0S89.94,31.24,90,31.22Zm-29.74-2A7.9,7.9,0,0,0,60.08,28a15.44,15.44,0,0,1-.16-1.54.27.27,0,0,0,0-.09,8.71,8.71,0,0,1-.27-1.44l-.21-1.38c-.08-.6-.16-1.19-.23-1.78,0-.24-.06-.47-.07-.71,0,0,0-.09.07-.14s.1.06.11.1c0,.54.09,1.09.15,1.63a16.55,16.55,0,0,0,.24,1.74c.09.45.16.91.24,1.36s.14.71.18,1.08c.06.56.2,1.1.29,1.66a7,7,0,0,1,.08.79c0,.06-.06.12-.09.18A1,1,0,0,0,60.25,29.25Zm34.1,3a14.59,14.59,0,0,1,.39,1.47,1.16,1.16,0,0,1-.12.56s-.17.06-.2,0-.16-.2-.13-.25c.2-.4,0-.74-.08-1.1A12.07,12.07,0,0,0,94,31.63c-.18-.69-.4-1.37-.59-2.05a3.74,3.74,0,0,1-.07-.75s0-.09.08-.14.09.07.1.11a8.13,8.13,0,0,0,.57,2.43C94.18,31.56,94.24,31.91,94.35,32.28Zm-2.74.09c.14.47.28.9.37,1.34a2.78,2.78,0,0,1,0,.76c0,.07-.16.14-.25.2s-.11-.11-.1-.13a1.38,1.38,0,0,0,0-.94c-.14-.73-.4-1.44-.6-2.17-.14-.49-.26-1-.38-1.48a.59.59,0,0,1,0-.23,1.42,1.42,0,0,1,.07-.22.8.8,0,0,1,.11.23A10.43,10.43,0,0,0,91.61,32.37ZM42.42,19.81a9,9,0,0,0,.26,1.67A6.26,6.26,0,0,0,43.22,23a.47.47,0,0,0,.05.1c-.05,0-.11,0-.13,0a.79.79,0,0,1-.22-.18,3.81,3.81,0,0,1-.43-1.24c-.16-.76-.24-1.53-.33-2.3,0-.4,0-.78,0-1.17a1.67,1.67,0,0,0,0-.31.76.76,0,0,1,0-.15s.07,0,.08,0a.35.35,0,0,1,.06.14C42.28,18.52,42.34,19.16,42.42,19.81Zm-1.66.29a7,7,0,0,0-.13-1.6,3.19,3.19,0,0,1,0-.69.56.56,0,0,1,0-.12s.11.07.12.11,0,.17,0,.26c0,.32.07.64.1,1a11.85,11.85,0,0,0,.72,3.69.92.92,0,0,1,.06.25.21.21,0,0,1,0,.12.15.15,0,0,1-.13,0,.51.51,0,0,1-.15-.21c-.18-.67-.35-1.35-.51-2a3.57,3.57,0,0,1,0-.46C40.84,20.3,40.79,20.22,40.76,20.1Zm-3.11-1.72c0,.19.07.33.08.47a11.66,11.66,0,0,0,.14,1.68c.1.62.15,1.25.24,1.87,0,.24.11.47.16.71,0,.06-.05.13-.07.19l-.12-.14a2.44,2.44,0,0,1-.24-1,21.74,21.74,0,0,1-.25-2.43c0-.46,0-.93,0-1.4a0,0,0,0,1,0,0S37.63,18.33,37.65,18.38ZM104,25.63a3.13,3.13,0,0,1,0,.48,4.5,4.5,0,0,1-.08.51.24.24,0,0,1-.15,0,.38.38,0,0,1-.11-.18c0-.33,0-.65-.07-1s-.09-.84-.16-1.26-.16-.79-.25-1.18c0-.2-.11-.41-.16-.61,0,0,0-.08,0-.12s0,0,.06.07a4.8,4.8,0,0,1,.24.63c.18.84.35,1.68.52,2.52C103.92,25.55,104,25.56,104,25.63Zm-19.51.15c.06.29.11.55.17.8a1.05,1.05,0,0,1,.06.24c0,.09,0,.22-.08.24a.18.18,0,0,1-.26-.15,5,5,0,0,1-.08-.66c0-.53-.13-1.05-.16-1.59A15.63,15.63,0,0,1,84,23v-.09c0-.09,0-.18,0-.26a1.23,1.23,0,0,1,.13.29c0,.34,0,.69.07,1l.15,1.59C84.39,25.6,84.44,25.67,84.46,25.78ZM77,22c.07.63.1,1.24.17,1.84a6.56,6.56,0,0,0,.34,1.64.87.87,0,0,1,0,.19c-.09,0-.22,0-.25,0a2.09,2.09,0,0,1-.26-.57c-.06-.29,0-.6-.09-.88a12.16,12.16,0,0,1,0-2.09A.12.12,0,0,1,77,22Zm38.17-1.34c-.24-.53-.45-1-.67-1.54,0-.09-.1-.17-.14-.26a.12.12,0,0,1,0-.11.13.13,0,0,1,.12,0c.24.48.49.95.72,1.44.11.24.21.49.3.74q.25.63.48,1.26c0,.06,0,.19,0,.21s-.12-.05-.16-.13c-.13-.34-.28-.68-.42-1S115.28,20.9,115.18,20.68ZM54,18.87s.07,0,.07,0c0,.4,0,.81.09,1.21s.14,1,.2,1.47a3.25,3.25,0,0,0,.36,1.22s0,.14-.09.19a.22.22,0,0,1-.15-.06,1.22,1.22,0,0,1-.2-.37c-.14-.57-.15-1.16-.25-1.73A12.53,12.53,0,0,1,54,18.87Zm41.87,7.92c0,.35.09.65.14.95A.55.55,0,0,1,96,28a.22.22,0,0,1-.12.13.19.19,0,0,1-.14-.1,5.49,5.49,0,0,1-.17-.9c0-.71,0-1.42,0-2.13,0,0,0-.07,0-.11l.1.1a.24.24,0,0,1,0,.12c0,.4,0,.8.07,1.21C95.8,26.43,95.84,26.59,95.86,26.79ZM3.37,21.93a7.38,7.38,0,0,1-.14-1.53.5.5,0,0,1,0-.13s.11.07.12.11a.58.58,0,0,1,0,.23,11.05,11.05,0,0,0,.28,1.89c.1.46.18.93.25,1.4,0,0-.09.07-.09.07a1,1,0,0,1-.23-.31,1.05,1.05,0,0,1-.09-.46A8.48,8.48,0,0,0,3.37,21.93Zm109.7-2.15a8.9,8.9,0,0,1,1.3,1.73,3.3,3.3,0,0,1,.27,1c0,.05,0,.12-.08.18s-.09-.09-.1-.14a3.48,3.48,0,0,0-.72-1.57c-.24-.33-.5-.64-.75-1a.68.68,0,0,1-.12-.22s0-.1.06-.15ZM83.42,26.54c-.09-.46-.2-.88-.28-1.3a2.36,2.36,0,0,1,0-.46,2.24,2.24,0,0,1,.22.4c.14.42.28.83.38,1.26.05.24.24.47.08.74a1.39,1.39,0,0,1-.15.19c-.06-.08-.14-.14-.16-.23A4.5,4.5,0,0,1,83.42,26.54Zm-2.67-.79c.08.31.16.58.23.86,0,0,0,.08-.06.09a.15.15,0,0,1-.13,0c-.26-.16-.22-.48-.32-.73a8.34,8.34,0,0,1-.28-1.12,2.61,2.61,0,0,1,0-.48.13.13,0,0,1,.07-.09s.11,0,.11.05A4.88,4.88,0,0,0,80.75,25.75Zm-15.68-.67c.05.27.12.49.16.71a.86.86,0,0,1,0,.21C65.1,26,65,26,65,26a1.13,1.13,0,0,1-.17-.39,4.62,4.62,0,0,1-.08-.65,2.51,2.51,0,0,0-.16-1,.67.67,0,0,1,0-.28.28.28,0,0,1,0-.12s.11.06.12.11c.07.26.12.52.19.79S65,24.83,65.07,25.08Zm-11.5-4.46c.08.38.16.71.23,1.05s.12.71.18,1.07a.31.31,0,0,1,0,.08l-.1,0c-.25-.1-.17-.37-.22-.54-.13-.53-.17-1.09-.26-1.63,0-.13-.06-.25-.07-.38s0-.1,0-.16.1.08.12.13A3,3,0,0,1,53.57,20.62ZM103,26.67c-.25-.61-.5-1.18-.74-1.75a1,1,0,0,1,0-.16.29.29,0,0,1,0-.09l.1,0c.05.05.14.09.15.16.15.65.56,1.17.75,1.79,0,.16.1.29,0,.42a.18.18,0,0,0-.07.05C103.1,27,103.06,26.85,103,26.67ZM47.91,21.35c.09.27.17.51.23.76a.55.55,0,0,1,0,.17c-.06,0-.17,0-.18-.06a6.2,6.2,0,0,1-.23-.69,2,2,0,0,1-.08-.42c0-.06,0-.13.06-.2s.15.05.17.11A2.19,2.19,0,0,1,47.91,21.35ZM54,18.83a.16.16,0,0,1-.09,0A.11.11,0,0,1,54,18.83Z"/></g></g></svg>