<svg xmlns="http://www.w3.org/2000/svg" viewBox="0 0 80.75 41.58"><defs><style>.cls-1{fill:#fff;}</style></defs><title>snow-medium</title><g id="Layer_2" data-name="Layer 2"><g id="snow-medium"><path id="void" class="cls-1" d="M80.63,14.67c-.09-.42-.2-.86-.29-1.28,0-.18,0-.37-.13-.56a1.91,1.91,0,0,1-.16-.51c-.13-.34-.23-.7-.38-1a7.2,7.2,0,0,0-.8-1.18,9.71,9.71,0,0,0-1.93-2c-.23-.18-.48-.32-.72-.48-.6-.39-1.2-.78-1.81-1.16a8.3,8.3,0,0,0-1.54-.79c-.45-.17-.87-.42-1.33-.56a24.57,24.57,0,0,0-2.91-.85l-1.55-.33-1.49-.28c-.48-.08-1-.16-1.47-.22s-1-.13-1.6-.2c-.07,0-.12-.09-.15-.09-.35.17-.73-.31-1.07-.06,0,0-.07-.06-.11-.08l-.49-.08c-.19,0-.37.05-.59-.06a1.18,1.18,0,0,0-.64,0,1.66,1.66,0,0,1-.63,0c-.36-.11-.7,0-1.06-.12-.1,0-.21.05-.32.07a.64.64,0,0,1-.2,0,4.22,4.22,0,0,0-1.11-.14,2.48,2.48,0,0,1-.86,0,.7.7,0,0,0-.68.15c-.15.09-.17.06-.26-.07a.39.39,0,0,0-.31-.1c-.48.21-1.12,0-1.58.3,0,0,0,0-.07,0a6.6,6.6,0,0,0-1.19.24,4.42,4.42,0,0,1-2,.14c-.23,0-.45-.13-.68-.17S47.82,3,47.47,3a5.3,5.3,0,0,1-1.37-.28c-.78-.23-1.55-.5-2.32-.76-.46-.16-.92-.35-1.4-.49A17.57,17.57,0,0,0,40.52,1c-.65-.1-1.3-.36-2-.44C38.17.48,37.79.4,37.41.36s-.77,0-1.15,0c-.12,0-.33-.1-.35-.06s-.22,0-.33,0-.16-.07-.23-.07C34.63.23,33.89,0,33.17.06c-.14,0-.31-.07-.44,0A6.18,6.18,0,0,0,32,.19a2.35,2.35,0,0,0-.62.13c-.31.18-.63.3-.94.45-.11,0-.19.18-.29.28s0,.06-.06.06c-.35,0-.48.28-.66.46s-.31.51-.52.71-.6.69-1,1a5.22,5.22,0,0,1-.62.46,5.16,5.16,0,0,1-.68.42,5.26,5.26,0,0,1-.72.33c-.33.09-.67.13-1,.22a4.06,4.06,0,0,1-1.25.08c-.34,0-.68-.1-1-.1a6,6,0,0,1-1.17-.22l-1.77-.52a6,6,0,0,1-1.51-.6,2.78,2.78,0,0,0-1.81-.39c-.22,0-.47,0-.69,0s-.68,0-.94.25c0,0-.09,0-.14,0a.55.55,0,0,0-.24,0A11.36,11.36,0,0,0,12.44,4c-.48.33-1,.56-1.51.87a1.31,1.31,0,0,0-.64,1.06c0,.56,0,1.13,0,1.69a2.12,2.12,0,0,1-.81,1.65c-.17.13-.34.28-.5.43a.47.47,0,0,0-.21.28v0a6.39,6.39,0,0,1-.59.25l0,0a1.23,1.23,0,0,1-.7.44A9.72,9.72,0,0,1,6,11.24a4.3,4.3,0,0,0-1.29.57l-.15,0a7.74,7.74,0,0,0-2,1A11.69,11.69,0,0,0,1.15,14.3c-.13.18-.23.39-.37.56A2.64,2.64,0,0,0,0,16.58a3.81,3.81,0,0,0,.27,1.65A3.42,3.42,0,0,0,.67,19c.21.27.41.56.64.84.52.62,1,1.26,1.57,1.86a1.23,1.23,0,0,1,.36,1.05c-.05.52-.18,1-.25,1.54,0,.27,0,.55-.06.83,0,.46-.09.93-.1,1.38a5.14,5.14,0,0,0,0,1.3,5.41,5.41,0,0,1,0,1.27,2.09,2.09,0,0,0,0,.83,7.4,7.4,0,0,1,.24,1.21,2.6,2.6,0,0,0,.16.44A4.23,4.23,0,0,0,4.86,33a1.26,1.26,0,0,0,.92.16A3.28,3.28,0,0,0,7.66,31.7c.23-.34.4-.71.61-1.06.09-.16.22-.19.42-.13a.73.73,0,0,1,.63.7,8.74,8.74,0,0,1,.09,1,9.93,9.93,0,0,1,0,1.22c-.07.4-.06.8-.11,1.2a5.64,5.64,0,0,0,0,1.48,2.81,2.81,0,0,0,0,.29,1.94,1.94,0,0,0,.3,1.26c.23.25.4.26.53,0a6.93,6.93,0,0,1,.86-1.4.73.73,0,0,1,.19-.2,1.39,1.39,0,0,0,.62-.6.9.9,0,0,1,.35-.37.24.24,0,0,0,.14-.33.86.86,0,0,1,.14-.65c.32-.59.67-1.16,1-1.74.09-.14.15-.42.47-.21a.3.3,0,0,0,.11-.1c0-.13.1-.26.13-.4a4.42,4.42,0,0,1,.14-.52c.1-.28.41-.28.65-.38a.44.44,0,0,1,.51.13s.11,0,.16,0A2.16,2.16,0,0,0,17,30.54a1.73,1.73,0,0,0,.52-.61,7.67,7.67,0,0,0,.64-.86c.14-.23.25-.47.5-.58.06,0,.17,0,.25,0-.16.21.06.12.09.12a.16.16,0,0,0,.07-.16.31.31,0,0,1,.21-.41,1.81,1.81,0,0,1,.9-.25.48.48,0,0,0,.24,0,1.61,1.61,0,0,1,1.42-.05.09.09,0,0,0,.08,0c.27-.17.54,0,.82.07a12.39,12.39,0,0,0,1.38.2,5,5,0,0,1,1.47.22,3.33,3.33,0,0,0,.83.23,1.15,1.15,0,0,1,.86.57A3.4,3.4,0,0,1,28,31c0,.22-.07.44-.08.66s0,.65,0,1-.09.56-.15.85c-.07.47-.12,1-.21,1.41a3.67,3.67,0,0,0,.29,2.59.45.45,0,0,0,.23.2.2.2,0,0,0,.28-.15c.21-.77.95-1.19,1.22-1.93,0-.07.17-.09.26-.12s0,.17,0,.25a.11.11,0,0,0,0,.08c.24-.06.2-.24.17-.41a1.1,1.1,0,0,1,.05-.65c.33-.6.64-1.21.94-1.83s.45-1,.71-1.44a1.79,1.79,0,0,1,1.69-1.22,1.27,1.27,0,0,0,.34,0A10.52,10.52,0,0,1,35.28,30a1.77,1.77,0,0,0,1.11-.53c.25-.29.54-.55.83-.83l1.48-1.39c.12-.08.26-.16.31-.29a3.4,3.4,0,0,1,.72-1c.27-.31.48-.71.9-.86a1.42,1.42,0,0,1,.78-.67,7.89,7.89,0,0,1,.87-.15c.2,0,.4-.06.55.17,0,0,.1,0,.16,0l.32,0c.44.08.88.18,1.33.24s1.16.72,1.09,1.19a2.9,2.9,0,0,0,.05.78,4.39,4.39,0,0,1,.07.61c-.11.9-.26,1.78-.33,2.69a1.83,1.83,0,0,0,.32,1.37c.25.33.47.34.59,0s.39-.54.33-.93c0,0,.05-.07.08-.1a1.34,1.34,0,0,0,.06.12c0,.05,0,.18.12.08s.24-.1.21-.29a.57.57,0,0,1,.25-.48,3.19,3.19,0,0,0,.69-1.13,9.92,9.92,0,0,1,.57-1.35,5.1,5.1,0,0,1,.52-.91,1,1,0,0,0,.11-.36s0-.05.05-.08,0,0,0,.08c0,.23.09.17.16,0s.15,0,.24,0c0-.11,0-.2.08-.3s.06-.11.11-.13a5.62,5.62,0,0,1,.58-.19.35.35,0,0,1,.45.22,2.83,2.83,0,0,0,.27.47,4.81,4.81,0,0,1,.59,2.28c0,.36,0,.7.08,1.06s.06.78.09,1.17a1,1,0,0,0,.36.65c.14.15.34.33.58.12.08-.06.24-.07.35-.14.34-.24.7-.47,1-.73a5,5,0,0,0,.81-.84c.35-.51.77-1,1.08-1.51a10.72,10.72,0,0,1,1.24-1.54.47.47,0,0,1,.14-.14,2.63,2.63,0,0,1,1.52-.57c.1,0,.2-.07.29-.08a3.74,3.74,0,0,1,.42-.11,4,4,0,0,0,.86-.17,2.29,2.29,0,0,1,.92-.12c.24,0,.46,0,.68,0s.46,0,.7.07a3.41,3.41,0,0,1,1.3.38c.36.23.68.53,1,.79a2,2,0,0,1,.81,1c.12.5.32,1,.42,1.49a4.65,4.65,0,0,0,.11.8c.13.37.18.77.28,1.16,0,.19.18.37.24.57s.4.4.61.58c.61.54,1.2,1.09,1.79,1.68a.92.92,0,0,1,.24.81,14.67,14.67,0,0,0-.16,1.47,8,8,0,0,1,0,1.1c-.05.21.07.39,0,.59a1.56,1.56,0,0,0,0,.57,2.32,2.32,0,0,1,.1.7c0,.14.12.32.13.48a1.5,1.5,0,0,0,.29.7,6.49,6.49,0,0,0,.36.55,2.86,2.86,0,0,0,.41.36.86.86,0,0,0,.49.25c.29,0,.24-.24.35-.37a1.82,1.82,0,0,0,.38-.79c.11-.37.18-.73.32-1.08s.19-.47.27-.71a9.93,9.93,0,0,1,.4-1.2c.19-.42.38-.84.55-1.27.1-.21.14-.43.24-.65s.23-.31.26-.48a.65.65,0,0,1,.15-.35q.07-.12.15-.27a10.26,10.26,0,0,1,.49-1c.41-.66.84-1.3,1.26-1.95A2.31,2.31,0,0,0,76.72,30,15.74,15.74,0,0,1,76.54,28c0-.44-.26-.9,0-1.32a1.72,1.72,0,0,1,.34-1.13,10.3,10.3,0,0,1,1-1.86c.28-.39.36-.92.73-1.26.13-.57.57-.93.78-1.44s.45-.81.6-1.25a13,13,0,0,1,.58-1.62,2.09,2.09,0,0,0,.15-.75,6.84,6.84,0,0,0,0-2c0-.11,0-.22,0-.33l-.07-.28-.06,0c0-.09,0-.15,0-.17s0,.11,0,.22l.06,0S80.66,14.71,80.63,14.67ZM51.57,26.1s0-.08,0-.11-.06-.08-.09-.09h.07c.05.1.09.14.11.19ZM52.23,30c0,.05,0,.05,0,.05A.09.09,0,0,0,52.23,30Zm0-1.82.08-.05C52.25,28.2,52.22,28.19,52.19,28.17Zm1.32,1.39c0-.08.05-.07.08,0ZM70.86,40.9c0,.06.06.12.1.17A.21.21,0,0,1,70.86,40.9Zm.65.42a.5.5,0,0,1,0-.16h.07ZM76.44,29.4a.18.18,0,0,1,0-.15h.06A.34.34,0,0,0,76.44,29.4Z"/><path id="fill2" class="cls-1" d="M80.63,14.67c-.09-.42-.2-.86-.29-1.28,0-.18,0-.37-.13-.56a1.91,1.91,0,0,1-.16-.51c-.13-.34-.23-.7-.38-1a7.2,7.2,0,0,0-.8-1.18,9.71,9.71,0,0,0-1.93-2c-.23-.18-.48-.32-.72-.48-.6-.39-1.2-.78-1.81-1.16a8.3,8.3,0,0,0-1.54-.79c-.45-.17-.87-.42-1.33-.56a24.57,24.57,0,0,0-2.91-.85l-1.55-.33-1.49-.28c-.48-.08-1-.16-1.47-.22s-1-.13-1.6-.2c-.07,0-.12-.09-.15-.09-.35.17-.73-.31-1.07-.06,0,0-.07-.06-.11-.08l-.49-.08c-.19,0-.37.05-.59-.06a1.18,1.18,0,0,0-.64,0,1.66,1.66,0,0,1-.63,0c-.36-.11-.7,0-1.06-.12-.1,0-.21.05-.32.07a.64.64,0,0,1-.2,0,4.22,4.22,0,0,0-1.11-.14,2.48,2.48,0,0,1-.86,0,.7.7,0,0,0-.68.15c-.15.09-.17.06-.26-.07a.39.39,0,0,0-.31-.1c-.48.21-1.12,0-1.58.3,0,0,0,0-.07,0a6.6,6.6,0,0,0-1.19.24,4.42,4.42,0,0,1-2,.14c-.23,0-.45-.13-.68-.17S47.82,3,47.47,3a5.3,5.3,0,0,1-1.37-.28c-.78-.23-1.55-.5-2.32-.76-.46-.16-.92-.35-1.4-.49A17.57,17.57,0,0,0,40.52,1c-.65-.1-1.3-.36-2-.44C38.17.48,37.79.4,37.41.36s-.77,0-1.15,0c-.12,0-.33-.1-.35-.06s-.22,0-.33,0-.16-.07-.23-.07C34.63.23,33.89,0,33.17.06c-.14,0-.31-.07-.44,0A6.18,6.18,0,0,0,32,.19a2.35,2.35,0,0,0-.62.13c-.31.18-.63.3-.94.45-.11,0-.19.18-.29.28s0,.06-.06.06c-.35,0-.48.28-.66.46s-.31.51-.52.71-.6.69-1,1a5.22,5.22,0,0,1-.62.46,5.16,5.16,0,0,1-.68.42,5.26,5.26,0,0,1-.72.33c-.33.09-.67.13-1,.22a4.06,4.06,0,0,1-1.25.08c-.34,0-.68-.1-1-.1a6,6,0,0,1-1.17-.22l-1.77-.52a6,6,0,0,1-1.51-.6,2.78,2.78,0,0,0-1.81-.39c-.22,0-.47,0-.69,0s-.68,0-.94.25c0,0-.09,0-.14,0a.55.55,0,0,0-.24,0A11.36,11.36,0,0,0,12.44,4c-.48.33-1,.56-1.51.87a1.31,1.31,0,0,0-.64,1.06c0,.56,0,1.13,0,1.69a2.12,2.12,0,0,1-.81,1.65c-.17.13-.34.28-.5.43a.47.47,0,0,0-.21.28v0a6.39,6.39,0,0,1-.59.25l0,0a1.23,1.23,0,0,1-.7.44A9.72,9.72,0,0,1,6,11.24a4.3,4.3,0,0,0-1.29.57l-.15,0a7.74,7.74,0,0,0-2,1A11.69,11.69,0,0,0,1.15,14.3c-.13.18-.23.39-.37.56A2.64,2.64,0,0,0,0,16.58a3.81,3.81,0,0,0,.27,1.65A3.42,3.42,0,0,0,.67,19c.21.27.41.56.64.84.52.62,1,1.26,1.57,1.86a1.23,1.23,0,0,1,.36,1.05c-.05.52-.18,1-.25,1.54,0,.27,0,.55-.06.83,0,.46-.09.93-.1,1.38a5.14,5.14,0,0,0,0,1.3,5.41,5.41,0,0,1,0,1.27,2.09,2.09,0,0,0,0,.83,7.4,7.4,0,0,1,.24,1.21,2.6,2.6,0,0,0,.16.44A4.23,4.23,0,0,0,4.86,33a1.26,1.26,0,0,0,.92.16A3.28,3.28,0,0,0,7.66,31.7c.23-.34.4-.71.61-1.06.09-.16.22-.19.42-.13a.73.73,0,0,1,.63.7,8.74,8.74,0,0,1,.09,1,9.93,9.93,0,0,1,0,1.22c-.07.4-.06.8-.11,1.2a5.64,5.64,0,0,0,0,1.48,2.81,2.81,0,0,0,0,.29,1.94,1.94,0,0,0,.3,1.26c.23.25.4.26.53,0a6.93,6.93,0,0,1,.86-1.4.73.73,0,0,1,.19-.2,1.39,1.39,0,0,0,.62-.6.9.9,0,0,1,.35-.37.24.24,0,0,0,.14-.33.86.86,0,0,1,.14-.65c.32-.59.67-1.16,1-1.74.09-.14.15-.42.47-.21a.3.3,0,0,0,.11-.1c0-.13.1-.26.13-.4a4.42,4.42,0,0,1,.14-.52c.1-.28.41-.28.65-.38a.44.44,0,0,1,.51.13s.11,0,.16,0A2.16,2.16,0,0,0,17,30.54a1.73,1.73,0,0,0,.52-.61,7.67,7.67,0,0,0,.64-.86c.14-.23.25-.47.5-.58.06,0,.17,0,.25,0-.16.21.06.12.09.12a.16.16,0,0,0,.07-.16.31.31,0,0,1,.21-.41,1.81,1.81,0,0,1,.9-.25.48.48,0,0,0,.24,0,1.61,1.61,0,0,1,1.42-.05.09.09,0,0,0,.08,0c.27-.17.54,0,.82.07a12.39,12.39,0,0,0,1.38.2,5,5,0,0,1,1.47.22,3.33,3.33,0,0,0,.83.23,1.15,1.15,0,0,1,.86.57A3.4,3.4,0,0,1,28,31c0,.22-.07.44-.08.66s0,.65,0,1-.09.56-.15.85c-.07.47-.12,1-.21,1.41a3.67,3.67,0,0,0,.29,2.59.45.45,0,0,0,.23.2.2.2,0,0,0,.28-.15c.21-.77.95-1.19,1.22-1.93,0-.07.17-.09.26-.12s0,.17,0,.25a.11.11,0,0,0,0,.08c.24-.06.2-.24.17-.41a1.1,1.1,0,0,1,.05-.65c.33-.6.64-1.21.94-1.83s.45-1,.71-1.44a1.79,1.79,0,0,1,1.69-1.22,1.27,1.27,0,0,0,.34,0A10.52,10.52,0,0,1,35.28,30a1.77,1.77,0,0,0,1.11-.53c.25-.29.54-.55.83-.83l1.48-1.39c.12-.08.26-.16.31-.29a3.4,3.4,0,0,1,.72-1c.27-.31.48-.71.9-.86a1.42,1.42,0,0,1,.78-.67,7.89,7.89,0,0,1,.87-.15c.2,0,.4-.06.55.17,0,0,.1,0,.16,0l.32,0c.44.08.88.18,1.33.24s1.16.72,1.09,1.19a2.9,2.9,0,0,0,.05.78,4.39,4.39,0,0,1,.07.61c-.11.9-.26,1.78-.33,2.69a1.83,1.83,0,0,0,.32,1.37c.25.33.47.34.59,0s.39-.54.33-.93c0,0,.05-.07.08-.1a1.34,1.34,0,0,0,.06.12c0,.05,0,.18.12.08s.24-.1.21-.29a.57.57,0,0,1,.25-.48,3.19,3.19,0,0,0,.69-1.13,9.92,9.92,0,0,1,.57-1.35,5.1,5.1,0,0,1,.52-.91,1,1,0,0,0,.11-.36s0-.05.05-.08,0,0,0,.08c0,.23.09.17.16,0s.15,0,.24,0c0-.11,0-.2.08-.3s.06-.11.11-.13a5.62,5.62,0,0,1,.58-.19.35.35,0,0,1,.45.22,2.83,2.83,0,0,0,.27.47,4.81,4.81,0,0,1,.59,2.28c0,.36,0,.7.08,1.06s.06.78.09,1.17a1,1,0,0,0,.36.65c.14.15.34.33.58.12.08-.06.24-.07.35-.14.34-.24.7-.47,1-.73a5,5,0,0,0,.81-.84c.35-.51.77-1,1.08-1.51a10.72,10.72,0,0,1,1.24-1.54.47.47,0,0,1,.14-.14,2.63,2.63,0,0,1,1.52-.57c.1,0,.2-.07.29-.08a3.74,3.74,0,0,1,.42-.11,4,4,0,0,0,.86-.17,2.29,2.29,0,0,1,.92-.12c.24,0,.46,0,.68,0s.46,0,.7.07a3.41,3.41,0,0,1,1.3.38c.36.23.68.53,1,.79a2,2,0,0,1,.81,1c.12.5.32,1,.42,1.49a4.65,4.65,0,0,0,.11.8c.13.37.18.77.28,1.16,0,.19.18.37.24.57s.4.4.61.58c.61.54,1.2,1.09,1.79,1.68a.92.92,0,0,1,.24.81,14.67,14.67,0,0,0-.16,1.47,8,8,0,0,1,0,1.1c-.05.21.07.39,0,.59a1.56,1.56,0,0,0,0,.57,2.32,2.32,0,0,1,.1.7c0,.14.12.32.13.48a1.5,1.5,0,0,0,.29.7,6.49,6.49,0,0,0,.36.55,2.86,2.86,0,0,0,.41.36.86.86,0,0,0,.49.25c.29,0,.24-.24.35-.37a1.82,1.82,0,0,0,.38-.79c.11-.37.18-.73.32-1.08s.19-.47.27-.71a9.93,9.93,0,0,1,.4-1.2c.19-.42.38-.84.55-1.27.1-.21.14-.43.24-.65s.23-.31.26-.48a.65.65,0,0,1,.15-.35q.07-.12.15-.27a10.26,10.26,0,0,1,.49-1c.41-.66.84-1.3,1.26-1.95A2.31,2.31,0,0,0,76.72,30,15.74,15.74,0,0,1,76.54,28c0-.44-.26-.9,0-1.32a1.72,1.72,0,0,1,.34-1.13,10.3,10.3,0,0,1,1-1.86c.28-.39.36-.92.73-1.26.13-.57.57-.93.78-1.44s.45-.81.6-1.25a13,13,0,0,1,.58-1.62,2.09,2.09,0,0,0,.15-.75,6.84,6.84,0,0,0,0-2c0-.11,0-.22,0-.33l-.07-.28-.06,0c0-.09,0-.15,0-.17s0,.11,0,.22l.06,0S80.66,14.71,80.63,14.67ZM51.57,26.1s0-.08,0-.11-.06-.08-.09-.09h.07c.05.1.09.14.11.19ZM52.23,30c0,.05,0,.05,0,.05A.09.09,0,0,0,52.23,30Zm0-1.82.08-.05C52.25,28.2,52.22,28.19,52.19,28.17Zm1.32,1.39c0-.08.05-.07.08,0ZM70.86,40.9c0,.06.06.12.1.17A.21.21,0,0,1,70.86,40.9Zm.65.42a.5.5,0,0,1,0-.16h.07ZM76.44,29.4a.18.18,0,0,1,0-.15h.06A.34.34,0,0,0,76.44,29.4Z"/><path id="fill" d="M64.88,25.44c.21.21.41.43.63.64a.65.65,0,0,0,.22.11s.14,0,.06-.1a2.73,2.73,0,0,1-.19-1.16,8.56,8.56,0,0,1,0-1.24,20.13,20.13,0,0,1,.1-2.2,5.1,5.1,0,0,0,0-.87,1.27,1.27,0,0,1,0-.2s0-.07.07-.1.06.06.06.09c0,.39.06.78.07,1.17a6.47,6.47,0,0,1,0,.88,5.64,5.64,0,0,1,0,1s0,.06,0,.09c0,.46.08.92.11,1.38,0,.22,0,.44,0,.66a4.28,4.28,0,0,0,0,.62.82.82,0,0,0,.19.4c.24.29.59.53.44,1,0,.05.09.17.16.23a.8.8,0,0,1,.29.6,7.61,7.61,0,0,1,.07,1,1.36,1.36,0,0,0,.19.77,1,1,0,0,1,.13.48,4.33,4.33,0,0,0,.31.92s0,.07,0,.07c.5.2.74.73,1.22.95a.29.29,0,0,1,.12.1,2.33,2.33,0,0,0,.48.46,3.26,3.26,0,0,1,.73.92,1.44,1.44,0,0,1,.06.75c0,.6-.06,1.19-.1,1.79,0,.29-.06.58-.09.87a3.16,3.16,0,0,0,.06.81q.07.45.12.9a2.2,2.2,0,0,0,.94,1.74c.16.11.2-.08.22-.13.1-.29.17-.59.26-.89,0,0,0-.11,0-.15a2.43,2.43,0,0,0,.29-1.36c0-.17,0-.34,0-.51A10.88,10.88,0,0,1,72,36.74a12.09,12.09,0,0,0-.09-1.21c0-.57,0-1.13-.07-1.7s0-1,0-1.44a13.82,13.82,0,0,0-.06-1.57,5.09,5.09,0,0,1,0-.78.86.86,0,0,1,0-.27h.08s0,.06,0,.09c0,.24,0,.49,0,.74a3,3,0,0,1,0,.74,8,8,0,0,0,0,.83A7.07,7.07,0,0,0,72,33.28c0,.24,0,.47,0,.7s0,.44,0,.66,0,.67,0,1c0,.53.1,1.07.13,1.6a7.16,7.16,0,0,1-.05.8.89.89,0,0,0,.06.2l.19-.11s0,0,0,0a9.76,9.76,0,0,1,.75-2,1.18,1.18,0,0,0,0-.85,1.07,1.07,0,0,1-.06-.43c0-.11.12-.21.1-.31s-.17-.21-.19-.32,0-.43,0-.64a1.71,1.71,0,0,1,0-.39c.05-.14,0-.26,0-.39A5.38,5.38,0,0,1,73,31.55a3.4,3.4,0,0,0-.1-.82,3.31,3.31,0,0,1,0-.44.92.92,0,0,1,0-.16c0,.05.08.09.11.15s.09.14.07.18c-.12.26,0,.53,0,.79,0,1,.21,1.94.31,2.91a1.31,1.31,0,0,1,.06.52,2.07,2.07,0,0,0-.06.5c0,.06,0,.12.07.18a.37.37,0,0,1,0-.14,2.47,2.47,0,0,0,.34-1c.24-.09.13-.24,0-.41s0-.23,0-.35l-.06-1.57a11.67,11.67,0,0,1,0-1.56,15.25,15.25,0,0,0-.07-1.66,14.78,14.78,0,0,1,0-1.88c0-.13-.25-.23,0-.36,0,0,0-.08,0-.11s.06.06.06.08c0,.31.19.62,0,.92,0,0,0,.05,0,.08,0,.58.1,1.16.17,1.73a2.71,2.71,0,0,1,0,1.1.3.3,0,0,0,0,.13c0,.58.09,1.15.17,1.73a3.5,3.5,0,0,1,0,1,2.25,2.25,0,0,0,.07.68.11.11,0,0,0,.1,0,.29.29,0,0,0,.1-.12c.2-.43.39-.87.58-1.3a1,1,0,0,0,.06-.51,7.24,7.24,0,0,1,0-1.47,3,3,0,0,0,0-.68,8.43,8.43,0,0,1,0-1.12c0-.12-.09-.14-.08-.24,0-.36,0-.72-.06-1.08a.24.24,0,0,1,0-.08.91.91,0,0,1,.07.14c.1.66.2,1.32.28,2s.11,1.12.16,1.68a.25.25,0,0,1-.05.19c-.09.1-.09.15.07.15a2.17,2.17,0,0,0,0,.26.8.8,0,0,0,0,.15c.05,0,.12,0,.14-.05a2.28,2.28,0,0,0,.49-1.46c-.06-.66,0-1.33-.12-2,0-.3,0-.62-.06-.93s0-.49,0-.74a.2.2,0,0,1,0-.11,1,1,0,0,0,.29-.75.59.59,0,0,1,.14-.27,1,1,0,0,0,.07-1,.92.92,0,0,1-.13-.48.31.31,0,0,0-.06-.37s.06-.13.12-.18a.3.3,0,0,1,.06.13l.06,0-.1-.13a1.58,1.58,0,0,1-.13-.31c0-.19,0-.38-.08-.57s.14-.13.13-.19-.12-.12-.19-.18a.11.11,0,0,1,0-.08c.12-.24-.12-.47-.11-.71a5.92,5.92,0,0,1,0-.73c0-.17-.09-.27-.08-.41a1.58,1.58,0,0,0-.05-.43,1.52,1.52,0,0,1,0-.21s.06-.05.09-.06a.1.1,0,0,1,.07,0,.12.12,0,0,1,0,.08c.08.58.17,1.15.24,1.72,0,.15-.06.32,0,.44a2.72,2.72,0,0,1,.19.87c0,.15,0,.31,0,.46s.08.33.11.5.06.34.08.51,0,.25,0,.37,0,.07,0,.08a.08.08,0,0,0,.08,0,.43.43,0,0,0,.15-.18,4.38,4.38,0,0,1,.53-.95,4.17,4.17,0,0,0,.22-.68c.1,0,.19,0,.26-.17a7.06,7.06,0,0,1,.56-1c.12-.2.26-.4.39-.59l.06-.12s.07.11.11.15.08.11.1.1,0-.08,0-.11a.27.27,0,0,1,.07-.14c0-.08.08-.15.12-.25s0-.16,0-.16c-.23-.13-.13-.31-.09-.45.11-.33.25-.64.37-1a11.26,11.26,0,0,0,.45-1.27,6,6,0,0,0,.13-1.05,11.67,11.67,0,0,0,0-1.56s0-.07,0-.11.09.11.08.15a1,1,0,0,0,.1.56c.08.14,0,.34,0,.51s0,.08.07.12,0-.07,0-.11c0-.38,0-.76,0-1.14,0,0,0-.44,0-.48a4.77,4.77,0,0,1,.13.51c0,.1,0,.21,0,.32a6.46,6.46,0,0,1,0,2,2,2,0,0,1-.15.75A11.7,11.7,0,0,0,80,19.78c-.16.44-.43.82-.6,1.25s-.66.87-.77,1.43c-.38.34-.46.88-.74,1.27a10.29,10.29,0,0,0-1,1.85,1.82,1.82,0,0,0-.33,1.14c-.23.42,0,.88,0,1.31,0,.65.14,1.3.19,1.95a2.32,2.32,0,0,1-.4,1.48c-.43.65-.86,1.29-1.27,1.95a8.48,8.48,0,0,0-.5,1,2.34,2.34,0,0,1-.15.27.68.68,0,0,0-.14.36c0,.17-.19.31-.26.47s-.15.44-.23.65c-.18.43-.37.85-.55,1.27a12.15,12.15,0,0,0-.42,1.2,6.86,6.86,0,0,1-.27.71,10.77,10.77,0,0,0-.31,1.07,2,2,0,0,1-.38.8c-.11.12-.06.38-.35.37s-.34-.14-.49-.25a2.29,2.29,0,0,1-.4-.36,4.81,4.81,0,0,1-.37-.55,1.33,1.33,0,0,1-.28-.7c0-.16-.16-.33-.14-.48a2.05,2.05,0,0,0-.11-.7,1.56,1.56,0,0,1,0-.57c.05-.2-.07-.38,0-.59a7.89,7.89,0,0,0,0-1.09c0-.5.09-1,.17-1.49a.91.91,0,0,0-.24-.8c-.58-.59-1.18-1.14-1.79-1.68-.21-.19-.51-.28-.61-.58s-.19-.38-.24-.57c-.11-.39-.14-.79-.28-1.17a5.55,5.55,0,0,1-.11-.79c-.11-.5-.3-1-.42-1.49a2,2,0,0,0-.8-1,11.14,11.14,0,0,0-1-.78,3.12,3.12,0,0,0-1.29-.39l-.71-.07c-.22,0-.43,0-.66,0a2.25,2.25,0,0,0-.92.12,5.06,5.06,0,0,1-.86.18,1.57,1.57,0,0,0-.43.09c-.1,0-.19.1-.29.09a2.51,2.51,0,0,0-1.51.57.62.62,0,0,0-.14.14,11.38,11.38,0,0,0-1.25,1.54c-.31.55-.73,1-1.08,1.51a4.55,4.55,0,0,1-.81.83,12,12,0,0,1-1,.74c-.11.07-.27.07-.36.15s-.42,0-.57-.12a1,1,0,0,1-.37-.66c0-.39,0-.78-.08-1.17s-.05-.7-.08-1.06a4.93,4.93,0,0,0-.59-2.28,2.78,2.78,0,0,1-.28-.47.34.34,0,0,0-.44-.22,4.1,4.1,0,0,0-.59.2.24.24,0,0,0-.1.12c0,.1,0,.2-.08.3s-.16-.14-.24,0-.15.18-.17-.05c0,0,0-.05,0-.08a.35.35,0,0,0-.05.08c0,.12,0,.27-.11.36a5.1,5.1,0,0,0-.52.91,10.7,10.7,0,0,0-.57,1.35,3.07,3.07,0,0,1-.7,1.13.63.63,0,0,0-.24.48c0,.19-.12.2-.21.28s-.09,0-.11-.07l-.07-.12s-.08.07-.08.1c.06.39-.23.62-.33.94s-.34.36-.59,0a1.86,1.86,0,0,1-.32-1.37c.08-.9.23-1.79.33-2.69a3.19,3.19,0,0,0-.08-.6,4,4,0,0,1,0-.78c.07-.48-.58-1.12-1.09-1.19s-.89-.16-1.33-.24a1.84,1.84,0,0,0-.33,0s-.13,0-.14,0a.5.5,0,0,0-.56-.16,8.32,8.32,0,0,0-.87.15,1.42,1.42,0,0,0-.78.65c-.43.17-.63.56-.9.88A3.24,3.24,0,0,0,39,27c0,.13-.2.2-.3.3l-1.49,1.38c-.29.27-.57.54-.84.83a1.75,1.75,0,0,1-1.1.54,10.5,10.5,0,0,0-1.58.2,1,1,0,0,1-.34,0,1.8,1.8,0,0,0-1.7,1.22c-.25.47-.47,1-.71,1.45s-.6,1.23-.93,1.82a1,1,0,0,0,0,.64c0,.18.06.36-.18.43a.16.16,0,0,1,0-.09c0-.08,0-.17,0-.25s-.24,0-.27.12c-.26.74-1,1.15-1.21,1.92a.2.2,0,0,1-.28.16.45.45,0,0,1-.23-.2,3.76,3.76,0,0,1-.3-2.58c.1-.47.16-.95.23-1.42.05-.29.11-.57.13-.85s0-.65,0-1S28,31.19,28,31A3.25,3.25,0,0,0,27.28,29a1.16,1.16,0,0,0-.86-.57,3.68,3.68,0,0,1-.83-.23A5.34,5.34,0,0,0,24.12,28a9.53,9.53,0,0,1-1.39-.21c-.27-.05-.54-.22-.81-.06,0,0-.05,0-.08,0a1.64,1.64,0,0,0-1.42,0,.64.64,0,0,1-.24,0,1.87,1.87,0,0,0-.91.24.32.32,0,0,0-.2.42.14.14,0,0,1-.06.15s-.26.09-.1-.12a.67.67,0,0,0-.25,0,1.35,1.35,0,0,0-.5.58,10.06,10.06,0,0,1-.63.87,2.37,2.37,0,0,1-.52.61,2.31,2.31,0,0,1-1.42.41c-.06,0-.14,0-.17,0a.41.41,0,0,0-.51-.12c-.23.1-.55.09-.66.37s-.08.35-.13.52a1.9,1.9,0,0,1-.14.4s-.09.1-.1.09c-.31-.2-.38.08-.47.22-.36.57-.71,1.16-1,1.75a.82.82,0,0,0-.14.64.24.24,0,0,1-.14.33,1.13,1.13,0,0,0-.35.37,1.46,1.46,0,0,1-.62.61c-.08,0-.13.12-.19.19a6.66,6.66,0,0,0-.86,1.4c-.14.26-.31.24-.52,0a2,2,0,0,1-.32-1.25c0-.09,0-.19,0-.28a6.27,6.27,0,0,1,0-1.5c.05-.39,0-.8.1-1.18a6.32,6.32,0,0,0,0-1.23,7.18,7.18,0,0,0-.09-1,.72.72,0,0,0-.62-.7.33.33,0,0,0-.43.14c-.2.35-.37.71-.6,1a3.22,3.22,0,0,1-1.89,1.44A1.35,1.35,0,0,1,4.86,33a4.36,4.36,0,0,1-1.6-1.42,1.57,1.57,0,0,1-.15-.43,7.44,7.44,0,0,0-.25-1.21,2,2,0,0,1,0-.82,4.92,4.92,0,0,0,0-1.27,5.64,5.64,0,0,1,0-1.3c0-.46.08-.92.11-1.39,0-.28,0-.56.06-.83.07-.52.2-1,.25-1.54a1.28,1.28,0,0,0-.35-1.05c-.55-.6-1.06-1.23-1.58-1.86-.22-.28-.42-.57-.64-.85a3.32,3.32,0,0,1-.4-.77A4,4,0,0,1,0,16.58a2.75,2.75,0,0,1,.76-1.72c.15-.17.24-.38.38-.56A13.15,13.15,0,0,1,2.6,12.86a8.46,8.46,0,0,1,2-1l.15,0A5.26,5.26,0,0,1,6,11.23a12.46,12.46,0,0,0,1.39-.54,1.44,1.44,0,0,0,.7-.45s0,0,0,0,.79-.49.95-.29-.6.49-.7.57a3.07,3.07,0,0,1-1.08.63c-.46.13-.86.39-1.31.54-.74.26-1.39.68-2.12.95a4.29,4.29,0,0,0-1.64,1.2c-.23.24-.47.47-.68.72a9.19,9.19,0,0,0-.84,1.13,2.38,2.38,0,0,0-.23.81,3.35,3.35,0,0,0,.71,2.38A1.24,1.24,0,0,0,1.4,19c0-.09,0-.18,0-.26,0-.43.06-.85.11-1.27s.12-1,.18-1.52c0-.06,0-.12,0-.15a.67.67,0,0,1,.17-.08c0,.05,0,.09,0,.13a5.71,5.71,0,0,1-.16,1.7s0,.05,0,.07c.19.47,0,.87-.08,1.29a1,1,0,0,0,.2.71c.32.42.65.82,1,1.23A.8.8,0,0,0,3,21c.1.07.16,0,.16-.08,0-.67,0-1.34,0-2a7.22,7.22,0,0,0,0-1.23c0-.06.08-.11.13-.17s.09.14.09.2c0,.3,0,.6,0,.89,0,.67.08,1.35,0,2a1.63,1.63,0,0,0,.31,1.28.7.7,0,0,1,.09.5c-.08.81-.2,1.61-.29,2.42-.05.46-.06.93-.1,1.39s-.06.63-.08.95a.78.78,0,0,0,0,.16c0,.44.09.89.11,1.34a10.77,10.77,0,0,0,0,1.27,12.05,12.05,0,0,0,.35,1.31.79.79,0,0,0,.13.26,2.41,2.41,0,0,0,.24.21v-.29c0-.47-.1-1,0-1.44,0-.27,0-.55,0-.83s0-.85.06-1.28c0-.19,0-.37,0-.56,0,0,0-.07,0-.09a3.16,3.16,0,0,0,.27-1.53c.08-.72.18-1.43.23-2.16a.4.4,0,0,1,.07-.18s.06,0,.1-.05a.4.4,0,0,1,0,.11c-.07.67-.17,1.33-.22,2s0,1.29-.09,1.93a3.87,3.87,0,0,0-.06.84c0,.26-.06.52,0,.79a15,15,0,0,0,0,2.22c0,.22,0,.44,0,.66a1.13,1.13,0,0,0,.86.68s0-.08,0-.08c-.18-.1-.16-.27-.18-.42-.08-.52-.18-1-.22-1.55s-.11-1.31-.11-1.95A12.65,12.65,0,0,1,5,27.19c0-.05.07-.08.1-.13s.08.12.07.17a4.25,4.25,0,0,1,0,.88A5.67,5.67,0,0,0,5,29a15.85,15.85,0,0,0,.29,2.47,5.5,5.5,0,0,0,.3,1,.45.45,0,0,0,.1.14s.09.06.1,0a.16.16,0,0,0,.07-.12c0-.41.05-.82.08-1.23a18.1,18.1,0,0,0,.15-1.82,10.59,10.59,0,0,1,0-1.13,9.55,9.55,0,0,0,.07-1.2c0-.35,0-.7,0-1.05,0-.67,0-1.34.06-2a.39.39,0,0,1,.1-.16c0,.05.07.11.07.17a5.48,5.48,0,0,1,0,.7c0,.66-.1,1.32-.13,2,0,.44,0,.9,0,1.35s-.06,1.2-.08,1.81a6.15,6.15,0,0,0,0,.74A3.08,3.08,0,0,1,6.25,32c0,.07,0,.17,0,.26s0,.1,0,.1a.23.23,0,0,0,.14,0c.45-.4.45-.4.51-1.19a20.16,20.16,0,0,1,.19-2.21,1.6,1.6,0,0,0,0-.3.57.57,0,0,1,.07-.22s.08,0,.11,0a.13.13,0,0,1,0,.11,14.58,14.58,0,0,0-.1,2.29,1,1,0,0,1,0,.39c0,.11-.09.19,0,.31a1.51,1.51,0,0,0,.21-.23.92.92,0,0,0,.11-.33c0-.24,0-.49,0-.74s0-.72-.07-1.08a.5.5,0,0,1,0-.12c0-.12.27.25.22-.08a1.38,1.38,0,0,1,0-.35,18.82,18.82,0,0,1,.13-2c0-.4,0-.82,0-1.22s.07-.69.11-1c0,0,.07-.08.11-.12a.44.44,0,0,1,.05.15c0,.41,0,.82-.07,1.24S8,26.35,8,26.73s0,.47,0,.69c0,.67.07,1.36,0,2a4.43,4.43,0,0,0,0,.52.15.15,0,0,0,0,.08s.11,0,.12,0c.15-.23.36-.22.62-.1.08,0,.17,0,.17-.14s0-.59,0-.89c0-.47,0-1,0-1.44,0-.28,0-.55.05-.83A.76.76,0,0,1,9,26.5c0,.06.11.13.11.19s0,.43,0,.64,0,.19,0,.28a7.43,7.43,0,0,1,0,1.49,7.63,7.63,0,0,0,0,.95.24.24,0,0,0,0,.12s.1.11.13.11a.17.17,0,0,0,.11-.12c0-.42.05-.85.08-1.28s0-.66.05-1,0-.77.07-1.15,0-.83.07-1.24c0-.2-.14-.43,0-.61l.1-.14a.48.48,0,0,1,.08.18c0,.36,0,.73,0,1.09s0,.62,0,.93-.07.47-.07.7c0,.72.07,1.44,0,2.14a7.22,7.22,0,0,1-.06,1.32.19.19,0,0,0,0,.13c.3.46.06.93.19,1.4a1,1,0,0,1,0,.39c0,.45-.09.89-.13,1.34a10.05,10.05,0,0,0,0,2.57,1,1,0,0,0,0,.16A.52.52,0,0,0,10,37l.6-1a.63.63,0,0,0,.09-.25c-.08-.77,0-1.52,0-2.28s.07-1.46.06-2.19,0-1.18.08-1.76a.56.56,0,0,1,.09-.17c0,.06.08.12.08.17,0,.39,0,.79,0,1.18s-.06.77-.07,1.15a9.74,9.74,0,0,0,0,1.62A10.84,10.84,0,0,0,11,35.55s0,.08,0,.12l.08-.07a2.59,2.59,0,0,0,.53-.91,5.62,5.62,0,0,0,.25-.56,3.62,3.62,0,0,0,.09-.66c.07-.77.13-1.53.2-2.29s.18-1.52.26-2.28c0-.43,0-.88.07-1.31a1.2,1.2,0,0,1,.17-.34c0,.13.11.27.08.37-.21.89-.13,1.84-.27,2.76-.07.49-.08,1-.12,1.5a6.25,6.25,0,0,1-.07.87c0,.22-.11.43-.16.64,0,0,0,.11,0,.16s.09,0,.11-.08l.17-.31c.19-.33.36-.66.56-1a.68.68,0,0,0,.16-.55,5.28,5.28,0,0,1,.05-1.82c0-.27.06-.55.1-.82,0,0,.06-.08.1-.12a.94.94,0,0,1,.06.15c0,.09,0,.19,0,.28,0,.35-.05.69-.06,1a3.76,3.76,0,0,1,0,.82c0,.16.06.15.11.21a.6.6,0,0,0,.09-.13s0-.1,0-.11c.39-.3.24-.79.3-1.2s0-1,.05-1.53.07-1.2.08-1.81c0-.45,0-.9,0-1.35a.48.48,0,0,1,0-.17c0-.1.08-.19.12-.29.11.1,0,.19,0,.3a6.41,6.41,0,0,1,0,1.75c0,.25,0,.52,0,.78,0,.41,0,.81,0,1.22a1.23,1.23,0,0,0,0,.27,4,4,0,0,1,0,1.1,1.22,1.22,0,0,0,0,.26c0,.12.08.13.18.08a1.31,1.31,0,0,1,.43-.16c.3,0,.37-.09.36-.41,0-.51-.05-1-.05-1.52a6,6,0,0,0,0-1.27.11.11,0,0,1,0-.08l.15-.19a1,1,0,0,1,.05.24,1.34,1.34,0,0,1,0,.2c0,.47,0,.93,0,1.4,0,.16.15.26.09.45a2.56,2.56,0,0,0,0,.73,1.28,1.28,0,0,0,.07.39.36.36,0,0,0,.22.19c.08,0,.16-.12.19-.2a7.58,7.58,0,0,0,.19-1.73c0-.7.09-1.4.12-2.11,0-.46,0-.93,0-1.4s0-.94,0-1.4c0,0,0-.06.07-.08s.1.07.1.1,0,.32,0,.48c-.06.67,0,1.36,0,2a6.22,6.22,0,0,0,0,1c0,.12,0,.23,0,.35,0,.29,0,.58,0,.87s0,.57,0,.85a3.69,3.69,0,0,1-.05,1s.1.11.13.1a.91.91,0,0,0,.6-1,11.43,11.43,0,0,1,0-1.17,4.46,4.46,0,0,1,.07-.51s0-.06.06-.09a.58.58,0,0,1,.06.15c0,.51,0,1,0,1.52a.89.89,0,0,0,.06.2.57.57,0,0,0,.11-.16.55.55,0,0,0,.06-.22c0-.38,0-.75-.08-1.13a4.83,4.83,0,0,1,0-1.14,6.8,6.8,0,0,0,0-.78,21.47,21.47,0,0,1,.1-2.78c.07-.51,0-1,.05-1.57,0,0,.06-.06.09-.09s.07.06.07.09c0,.35,0,.7,0,1.05,0,.52,0,1.05,0,1.58s0,1.31-.06,2c0,0,0,0,0,.05.08.72.15,1.44.23,2.16a.94.94,0,0,0,0,.16s.09-.05.11-.09a1.52,1.52,0,0,1,.56-.62c.08-.05.11-.23.1-.35,0-.5-.13-1-.11-1.51a12.47,12.47,0,0,1,0-1.37c0-.2,0-.41,0-.61s.07-.08.1-.12a.47.47,0,0,1,.06.15,4.63,4.63,0,0,1,0,.91,7.23,7.23,0,0,0,0,1.14c0,.45.08.9.13,1.35,0,.08.09.12.18.09l.61-.22c.28-.08.32-.17.31-.46,0-.47,0-.94,0-1.41s.06-.94.08-1.4,0-.65,0-1A.56.56,0,0,1,20.3,23a.6.6,0,0,1,.08.16c0,.28,0,.55,0,.82s0,.65,0,1c0,.51.05,1,0,1.51a4,4,0,0,0,.05.59c0,.13.06.18.19.16.31,0,.62-.07.93-.12,0,0,.07-.1.07-.15,0-.58-.05-1.17,0-1.75a6.7,6.7,0,0,0-.05-1c0-.18,0-.35,0-.53s.05-.07.07-.11.09.07.1.1c0,.21,0,.41,0,.62,0,.06,0,.11,0,.17.06.6.12,1.21.17,1.81,0,.25,0,.5,0,.75a.22.22,0,0,0,.24.24c.15,0,.34.05.37-.16.06-.43.12-.85.16-1.29.05-.64,0-1.29.06-1.93a5.59,5.59,0,0,0,0-.91,10.39,10.39,0,0,1,0-1.58c0-.45,0-.9,0-1.36a.65.65,0,0,1,0-.13c.05,0,.12.09.12.13,0,.29,0,.58,0,.87s0,.64,0,1a4,4,0,0,1,0,.69,2.35,2.35,0,0,0,0,.75,13.85,13.85,0,0,1,0,1.44c0,.31.06.64,0,.95a8.07,8.07,0,0,1,0,1.3c-.07.27,0,.35.29.46a2.15,2.15,0,0,0,.79.1c.16,0,.16-.07.15-.21-.07-.56-.12-1.13-.16-1.7,0-.23,0-.47,0-.7,0-.06.07-.11.1-.16l.12.17a.27.27,0,0,1,.05.11,10.59,10.59,0,0,0,.24,2.16.56.56,0,0,0,.21.38c.29.17.36.11.4-.24a13,13,0,0,0,.12-2.16,15.25,15.25,0,0,1,0-1.79,9.49,9.49,0,0,1,.1-1.6,3.68,3.68,0,0,0,0-.74c0-.05,0-.09.08-.14a.7.7,0,0,1,.09.17q0,.39,0,.78l0,1a11.37,11.37,0,0,0,.05,1.65c.06.67,0,1.34,0,2,0,.38,0,.75,0,1.14,0,.16.09.18.2.22a2.42,2.42,0,0,0,.35.12c.36.07.42,0,.4-.36s0-.73,0-1.09V26a2,2,0,0,1,0-.34c0-.05.06-.11.12-.13s.11.07.12.11a7.13,7.13,0,0,1,.11.77,4,4,0,0,1,0,.49,5.56,5.56,0,0,1-.05.92c0,.16-.16.22.11.3a3.05,3.05,0,0,1,.54.37l.13.08c0-.05,0-.13,0-.14-.33-.17-.1-.41-.12-.6s0-.59,0-.88a16.13,16.13,0,0,1,0-1.84c0-.33,0-.66-.05-1a10.5,10.5,0,0,0,0-1.48c0-.05.06-.11.1-.17a1.46,1.46,0,0,1,.07.19,6.31,6.31,0,0,1,0,1.44.11.11,0,0,0,0,.08c.05.54.13,1.08.13,1.6a4.92,4.92,0,0,1,0,1.15s0,.11,0,.17l.09,1.25s0,.07,0,.09c-.27.32,0,.64.15.93a3.85,3.85,0,0,1,.35,2c0,.36-.05.71-.09,1.07s-.08.67-.13,1c-.11.71-.23,1.41-.33,2.12a3.21,3.21,0,0,0,.07.68c0,.19.11.4-.07.55s0,.13,0,.19a.48.48,0,0,0,.14-.09l.8-1.17a4.43,4.43,0,0,0,.29-.46c.05-.1.19-.23,0-.37-.05,0-.07-.15-.08-.23-.08-.53-.16-1.06-.22-1.59a2.74,2.74,0,0,1,0-.7,8.46,8.46,0,0,0,0-1c0-.47,0-.94,0-1.41,0-.1,0-.2,0-.3a.56.56,0,0,1,.07-.19.7.7,0,0,1,.09.17,3.43,3.43,0,0,1,0,1.06.86.86,0,0,0,0,.16,22,22,0,0,0,.19,2.56c-.15.46.19.9.18,1.38a.19.19,0,0,0,0,.1l0-.08c.05,0,.14,0,.14,0a4.42,4.42,0,0,0,.13-1.1,3,3,0,0,1,.07-.66c0-.3,0-.59,0-.88,0-.8,0-1.6.06-2.39,0-.16,0-.38,0-.56,0-.45,0-.89,0-1.33,0-.24,0-.49,0-.73a3.68,3.68,0,0,1,0-.74,8.83,8.83,0,0,0,0-.89c0-.51,0-1,0-1.54,0-.08,0-.17,0-.25a.34.34,0,0,1,0-.14.31.31,0,0,1,.05.12c0,.42,0,.85,0,1.27,0,.09,0,.17,0,.25a3.61,3.61,0,0,1,0,1.5A1.07,1.07,0,0,0,30,27a9.3,9.3,0,0,1,0,1.67,7.73,7.73,0,0,0,0,.83c0,.32,0,.64,0,1s0,.52,0,.78c0,.53,0,1.05,0,1.58a1.27,1.27,0,0,1-.08.7l.09.06c.09-.06.19-.11.23-.2.2-.37.33-.79.56-1.13a1.59,1.59,0,0,0,.2-.75c0-.32,0-.67,0-1s0-.62,0-.92,0-.5,0-.74c0-.49,0-1,.05-1.45,0-.17-.05-.34-.05-.51s.06-.08.1-.11a.37.37,0,0,1,0,.11,4.7,4.7,0,0,1,0,1.4.73.73,0,0,0,0,.25,4.6,4.6,0,0,1,0,1.23,2,2,0,0,0,.05.34c0,.24.12.47,0,.71,0,.06.05.18.09.27s.08,0,.12,0c-.08-.34.2-.5.33-.74a2.51,2.51,0,0,0,.2-.9c.08-.68.11-1.38.14-2.07,0-.46-.06-.94,0-1.4s-.13-.91.12-1.3c0,0,0-.1,0-.16,0-.36-.05-.72-.07-1.08a.29.29,0,0,1,0-.1.6.6,0,0,0,.06.11c.2.2,0,.4.07.62s0,.29,0,.44a1.16,1.16,0,0,1,0,.64.48.48,0,0,0,0,.24,4.79,4.79,0,0,1,0,1.31,7,7,0,0,0,0,.91q0,1.05,0,2.1c0,.07-.12.13-.19.19L32,30s.08,0,.12,0a4.25,4.25,0,0,0,.62-.12c.43-.14.44-.2.45-.68s.07-.79.07-1.19,0-.64,0-1a.72.72,0,0,1,0-.25,2.23,2.23,0,0,1,.13-.44,1.46,1.46,0,0,1,.11.41c0,.37,0,.73,0,1.1,0,.15,0,.31.07.47a3.36,3.36,0,0,1,0,1.05.24.24,0,0,0,.27.3,2.33,2.33,0,0,0,.69-.08,1.91,1.91,0,0,1,.76,0c.15,0,.19,0,.16-.19-.06-.35-.09-.69-.15-1a8.76,8.76,0,0,1-.11-1.91,3.07,3.07,0,0,0-.06-.51.64.64,0,0,1,0-.24s.08-.06.12-.09.09.08.09.12c0,.26,0,.53,0,.79s.19.73.07,1.08c.17.26.05.53.11.79s.08.58.13.86a1,1,0,0,0,.07.15l.13-.07a2.41,2.41,0,0,0,.24-.21.58.58,0,0,0,.17-.29c0-.35,0-.7,0-1,0-.5,0-1,0-1.49,0-.29,0-.58,0-.87a5.3,5.3,0,0,0,0-.69c-.07-.54.12-1.05,0-1.6,0-.19.11-.42,0-.56s0-.4,0-.6c0,0,0-.07.06-.11s.1.1.1.14c0,.48,0,1,0,1.44a17.21,17.21,0,0,0,.08,1.75c0,.48,0,1,0,1.44,0,.17-.16.36.07.53-.13.17,0,.38,0,.57a1.43,1.43,0,0,1,0,.55c-.06.14,0,.2.07.29l.16.18a.74.74,0,0,0,0-.21.39.39,0,0,1,.18-.48c.33-.21.39-.34.25-.69a2.61,2.61,0,0,1-.08-1.07s0,0,0,0a8.7,8.7,0,0,1-.05-1.61,2.83,2.83,0,0,1,0-.65s0-.06.07-.09.07.07.07.11a14.22,14.22,0,0,1,.14,2,7.54,7.54,0,0,0,.17,1.24c0,.11.19.17.25.07a1.64,1.64,0,0,0,.26-.59,8.44,8.44,0,0,0,0-1c0-.6,0-1.2.11-1.8a.91.91,0,0,0,0-.33,1.45,1.45,0,0,1,0-.77,4.82,4.82,0,0,0,0-.93c.06-.63-.05-1.29,0-1.92,0-.33,0-.67-.05-1s0-.64,0-1c0,0,.06-.06.09-.09s.07.07.07.1c0,.38,0,.76,0,1.14s0,.49,0,.74c0,.49.09,1,.12,1.47a5.42,5.42,0,0,1,0,.57,10.79,10.79,0,0,0,.07,2c.11.57,0,1.1.1,1.66a1.78,1.78,0,0,1,0,.69c0,.11,0,.13.07.18l.13.1c0-.05,0-.11,0-.16,0-.39.27-.61.5-.83a.55.55,0,0,0,.18-.47c0-.32-.19-.64-.06-.95-.3-.3.06-.65-.21-1-.09-.12,0-.37,0-.56s0-.59,0-.88a.54.54,0,0,1,0-.1l.11.09a.49.49,0,0,1,.05.16,10.25,10.25,0,0,0,.17,2.34l.06.43c0,.12,0,.31,0,.32s.24-.08.32-.18a3.37,3.37,0,0,0,.29-.35.6.6,0,0,0,.12-.66.53.53,0,0,1,0-.39c.11-.24-.22-.5,0-.72a5.66,5.66,0,0,1,0-1.48,6.77,6.77,0,0,1,0-.78c0-.1,0-.2,0-.29a.76.76,0,0,1,.06-.16s.07.06.07.09c0,.3.17.61,0,.91,0,.11,0,.26,0,.39a2.26,2.26,0,0,1,0,.52,4.76,4.76,0,0,0,.1,1.3.57.57,0,0,1,0,.35c-.13.16,0,.28.06.41s.18.21.33.07a1.4,1.4,0,0,1,.41-.19c.21-.09.31-.23.21-.4a.7.7,0,0,1-.09-.59c0-.09-.05-.22-.06-.32,0-.38,0-.75,0-1.12s0-.79,0-1.18A.52.52,0,0,1,41.6,20c0,.06.07.14.06.2-.13.44.15.91,0,1.35,0,.12,0,.26.05.39a2.53,2.53,0,0,1,0,.62c0,.13.13.32.07.53s.09.34.17.5a.23.23,0,0,0,.18.09c.13,0,.26,0,.39,0s.19,0,.17-.19a1.93,1.93,0,0,1,0-.48s0-.07,0-.09c-.21-.3,0-.57,0-.85a7.71,7.71,0,0,0,0-1c0-.37-.05-.75-.07-1.13,0,0,0-.07.06-.11s.1.07.1.11a3.63,3.63,0,0,1,.09,1.09.75.75,0,0,0,.06.46c.07.14-.14.25.05.36-.15.43.16.91,0,1.35-.05.11.06.3.09.45s.19.21.36.22a5.6,5.6,0,0,0,1.21.22c.15,0,.18,0,.2-.2a6,6,0,0,0,.08-1.2,8.36,8.36,0,0,1,0-1c0-.16,0-.33,0-.49s-.11-.22.06-.22.1.15.11.23a3.67,3.67,0,0,1,.08,1.09,1.41,1.41,0,0,0,.08.56,5.43,5.43,0,0,1,0,1.14s-.1.07-.1.07-.15-.08-.18,0,.09.07.14.11l.76.65a1,1,0,0,1,.3.85,2.82,2.82,0,0,0,.09.71,3.57,3.57,0,0,1,0,1.22c-.09.77-.23,1.52-.34,2.28a.8.8,0,0,0,0,.3c0,.16.08.33.12.49.21,0,.11-.27.21-.37s.12-.15.18-.22a.82.82,0,0,0,.23-.77,7.22,7.22,0,0,1,0-.93v-.17l-.18-1.82c0-.12,0-.24,0-.35s-.11-.41-.16-.61c0,0,0-.09,0-.13s.11.06.11.09c0,.26.24.5.14.79s.08.44.08.66a.21.21,0,0,0,0,.07S47,27,47,27s.12-.23.08-.29c-.23-.34,0-.66-.1-1s0-.74,0-1.1.06-1,0-1.48a2.57,2.57,0,0,1,0-.48s0,0,0-.06l0,.06a3,3,0,0,1,.1.82,5,5,0,0,0,0,1.1,8.84,8.84,0,0,1,0,.89,1.41,1.41,0,0,0,0,.2c0,.58,0,1.16.08,1.74,0,.17-.26-.05-.16.15a1.08,1.08,0,0,1,.13.35,2.17,2.17,0,0,1,0,.36c0,.12,0,.26.05.38s0,.19,0,.28a3.52,3.52,0,0,0,.13.43s.1,0,.15,0a.37.37,0,0,1-.07-.12.25.25,0,0,1,0-.12c.22-.53.44-1.06.65-1.6,0,0,0-.13,0-.14-.25-.11-.13-.28-.12-.42,0-.51.06-1,.14-1.51s-.11-.92,0-1.37a2.51,2.51,0,0,0,0-.86c0-.42-.08-.84-.09-1.26s0-1.11,0-1.67a4,4,0,0,0-.06-.47,1,1,0,0,1,0-.29s.06-.08.1-.11,0,.07.05.11a.52.52,0,0,1,0,.17,3.85,3.85,0,0,0,.08,1.17c0,.24,0,.47,0,.7s.14.45,0,.66c0,0,0,.11,0,.17a9.68,9.68,0,0,1,.08,1.7,5.6,5.6,0,0,0,.07,1.08,5.12,5.12,0,0,1,0,1.3s0,.08,0,.11a.28.28,0,0,0,.12.12.12.12,0,0,0,.11-.07,1.93,1.93,0,0,1,.79-1.05.48.48,0,0,0,.15-.48,19.65,19.65,0,0,1-.2-2c0-.63,0-1.27-.11-1.91,0-.05,0-.1.06-.16a.7.7,0,0,1,.1.16,13.83,13.83,0,0,1,.26,1.89c0,.61.14,1.21.2,1.82a.52.52,0,0,0,.1.26s.31-.17.33-.23a3.71,3.71,0,0,0,.09-1.11c0-.72,0-1.45,0-2.18a.36.36,0,0,1,0-.11.39.39,0,0,1,.08-.1s.06.07.06.11a4.62,4.62,0,0,1,.09,1.17,1.87,1.87,0,0,0,.07.56,4.29,4.29,0,0,1-.07,1.6c0,.15,0,.09.1.1h.08c.4-.12.52-.09.77.21A2.84,2.84,0,0,1,52,26.19a8.78,8.78,0,0,1,.33.85c0,.14.12.3.09.41a2,2,0,0,0,0,.83,12.47,12.47,0,0,1,.07,1.61,1.07,1.07,0,0,0,.17.74c.1.15.2.25.33.18s.26-.19.25-.29c0-.62.09-1.21,0-1.84,0-.43,0-.87,0-1.31s0-1.05,0-1.58c0-.19-.12-.39,0-.57a.35.35,0,0,0,0-.11s.06.08.06.11c0,.28,0,.55,0,.83s.16.56,0,.83c0,.08,0,.2,0,.3.07.66.17,1.33.19,2a5.69,5.69,0,0,0,.06.92,1.52,1.52,0,0,0,.06.2.68.68,0,0,0,.17-.09l.62-.75a.32.32,0,0,1,.16-.09.54.54,0,0,0,.34-.53c0-.56.14-1.12.18-1.68,0-.37,0-.77,0-1.13.09-.68,0-1.38.11-2a2.54,2.54,0,0,0-.06-.6c0-.05,0-.09.07-.14s.09.08.09.12a3.4,3.4,0,0,1,0,.95c-.06.33,0,.65,0,1,0,.65,0,1.32-.07,2a2.49,2.49,0,0,0,0,.61c0,.17,0,.31-.1.42s-.06.11-.08.17a.44.44,0,0,0,.15.05c.09,0,.16,0,.19-.13a2.69,2.69,0,0,1,1-1.4.58.58,0,0,0,.11-.47.49.49,0,0,1,0-.24,5.08,5.08,0,0,0,0-.78,7.61,7.61,0,0,0,.06-1,3.48,3.48,0,0,1,0-.72,7.61,7.61,0,0,1,.09-1.72c0-.12,0-.28,0-.43s0-.07.07-.11.09.07.1.11a2.56,2.56,0,0,1,0,.78,4.82,4.82,0,0,0,0,.93,14,14,0,0,0,0,1.83,3.15,3.15,0,0,0,0,.43c0,.17,0,.16-.16.44,0,.08,0,.21,0,.32.08-.06.21.07.31-.1a1.21,1.21,0,0,1,.55-.44.71.71,0,0,0,.39-.66c0-.62,0-1.25.08-1.87,0,0,0,0,0-.08s.11.06.11.09a7,7,0,0,1,.05.79c0,.39,0,.78,0,1.17,0,.2.11.21.25.17s.11-.08.17-.08c.23,0,.29-.11.24-.32a1,1,0,0,1,0-.17s0-.08,0-.12.05.1.07.14a.44.44,0,0,0,.09.13.45.45,0,0,1,.06.13l0,0L59.23,25l.09-.17a.48.48,0,0,1,.08.18c0,.22.09.26.29.24a1.69,1.69,0,0,0,.79-.3s0-.08,0-.11-.07,0-.08,0-.18,0-.19-.1a4.87,4.87,0,0,1-.08-1.08,3.32,3.32,0,0,0-.1-.81.94.94,0,0,1,0-.29s0-.09.07-.09a.15.15,0,0,1,.1.09,1.29,1.29,0,0,1,.08.28c.05.26,0,.52.11.79s.08.57.13.85a3,3,0,0,0,.1.32c.07.2.14.37.35.15,0,0,.08,0,.13,0,.23.06.25-.1.29-.24l.19.12,0-.2-.15.05a6.12,6.12,0,0,1-.06-1.48,10.17,10.17,0,0,0-.09-1.34,3.5,3.5,0,0,1,.07-.45c.2.11.19.3.18.46a8.32,8.32,0,0,0,.07,1.65,3.24,3.24,0,0,1,0,.44c0,.15,0,.42,0,.44.28.1.09.31.18.43s.08.09.12.09a5.58,5.58,0,0,0,.57.08c.19,0,.28-.07.25-.28s-.09-.54-.12-.81-.11-.35,0-.47,0-.05,0-.06c-.29-.39,0-.79-.15-1.19a.53.53,0,0,1,0-.3s.06-.07.09-.1.08.09.08.13c0,.41.07.81.07,1.21,0,.09-.06.15,0,.25a.33.33,0,0,1,0,.24c-.1.37.12.75.09,1.12,0,.09.16.27.26.3s.17-.1.17-.25,0-.53,0-.79,0-.52,0-.79,0-.66,0-1a8.93,8.93,0,0,1-.09-1c0-.06.06-.11.09-.17a1,1,0,0,1,.07.15,5.41,5.41,0,0,1,.19,1.43,3.25,3.25,0,0,0,.13.92,1.77,1.77,0,0,1,0,.65c0,.24,0,.47,0,.7s-.05.23.1.29a3.6,3.6,0,0,0,.83.33.1.1,0,0,0,.1,0m.66,1h-.08a.19.19,0,0,1,.09.09h.08s0,0-.09-.09m-5.11-1.09-.1,0,0,0a.54.54,0,0,1,.17-.08l.1,0,0-.06a.52.52,0,0,1-.17.09m-8.91.58h-.08a.15.15,0,0,1,.09.09l0,.11,0,0a1.3,1.3,0,0,1-.1-.18M46,28.19l0,.25c0-.07,0-.14,0-.21s0,0,0,0v-.08s0,.05-.08.08m-.43-3.31,0,.11,0,0a1.18,1.18,0,0,1-.11-.18l-.11-.12s0,0-.06,0a.57.57,0,0,0,.11.11s.05,0,.08.07m34.89-7.36c.23,0,0-.18.08-.27s0,0,0-.07a1.47,1.47,0,0,0-.1.22s0,.08,0,.12v.14h0a.18.18,0,0,1,0-.15M67.32,31.33s.08-.07.08-.09c-.05-.27-.11-.53-.16-.8l0-.06s0,0,0,.07-.06.17,0,.22c.13.22.08.44.21.66M48.15,26.74c0,.12-.09.24-.12.36s0,.08.06.12l.08,0c-.07-.23.1-.17.22-.18s.12,0,0-.11a.83.83,0,0,0-.26-.14M52.4,30.8l.13.12a.32.32,0,0,0,0-.13.87.87,0,0,0-.1-.19l-.18-.35a2.23,2.23,0,0,0,0,.37s.06.06.11.18m14.43-2c.15-.15,0-.35,0-.52,0,0,0,0,0,0s0,.31,0,.47a.07.07,0,0,0,.09.06m-.41-1.63L66.25,27l-.17-.15c0,.07,0,.14.07.2a.9.9,0,0,0,.13.26c.11.11.18.08.14-.17m3.52,11s-.11.05-.11.07c0,.17.1.34.15.51l.06.1a.3.3,0,0,0,0-.13,2.11,2.11,0,0,0-.12-.55M80.49,16.61s0-.2-.09-.07a1.26,1.26,0,0,0,0,.48s0,0,0,.06a.3.3,0,0,0,0-.1,1.25,1.25,0,0,1,0-.37M53.58,30.07s-.1,0-.11,0,0,.21,0,.31l.06,0a1.5,1.5,0,0,0,.06-.38m16.5,6,0-.17S70,36,69.94,36a.31.31,0,0,0,0,.16s.06.1.08.14a.62.62,0,0,1,0-.24m-.08-2,.14.35h.06L70.07,34s0,0-.07,0m-2.9-4c0-.1-.06-.2-.1-.3h-.07c0,.1.07.2.1.31s0,0,.07,0m9.12-1.54,0,.26.11,0s-.11-.27-.15-.23m0-.47,0,.2a.53.53,0,0,0,0-.16.47.47,0,0,0,0-.17.48.48,0,0,0-.08-.16c0,.07,0,.14,0,.29m-24,1.53.12.12.06-.08c-.06,0-.13-.09-.18,0m11.37-5.07v.23h.06c.05-.07.15-.13-.06-.23M45.78,30.92l.07.11c.19-.08,0-.19,0-.28l-.07,0s0,0,0,.13m24.41,9,.11,0-.15-.31s0,.06,0,.1a.47.47,0,0,0,.07.24M63.65,23.45l0,0h0a1.93,1.93,0,0,0,0,.24s0,.05.06.07a.41.41,0,0,0,0-.11.81.81,0,0,0,0-.17M52.22,29l0,0h0a2,2,0,0,0,0-.25s0,0-.06-.07a.49.49,0,0,0,0,.12.81.81,0,0,0,0,.17m16,3.43.11-.1-.08-.07a.16.16,0,0,0,0,.17m1.79,4.4L70,36.53c0,.1,0,.2,0,.3s0,0,.07,0M79.64,20s0,0,0,0,0,0,0,0l-.19.08s0,0,0,.06a.42.42,0,0,0,.18-.08M70,37.64v-.27s0,0,0-.07a.29.29,0,0,0,0,.1.51.51,0,0,0,.08.24M45.87,29.71s0-.06,0-.08a.52.52,0,0,0-.06-.13s0,.07,0,.11a.12.12,0,0,0,.1.1m19.95-4.95,0-.11s0,.05,0,.07,0,.09.09,0m11.5-.88,0,.11.11-.13a.21.21,0,0,0-.15,0m-9.84,7.66,0,0h0l0,.16a.11.11,0,0,0,0-.13m2.06,2.05.11,0-.15-.13a.27.27,0,0,0,0,.15M65.8,26.71l.09.08,0-.14s-.11,0-.11.06m14-7.49-.07.09.14,0c0-.06,0-.12-.07-.13M71,41.07l-.12-.17a.2.2,0,0,0,.12.17M64,25.51a.63.63,0,0,0-.11-.12s0,0-.06,0a.24.24,0,0,0,.17.09m7.49,15.8c0-.05,0-.09,0-.14h-.06a.23.23,0,0,0,0,.15m8.84-23.23-.14,0v.05a.19.19,0,0,0,.15,0m-17,7.19-.15,0v.06a.25.25,0,0,0,.15,0m5.89,8,0-.11,0,0s0,.09.09.09m-1.24-1.13L68,32.08s0,.06.06.09M67.8,32l-.14,0V32a.23.23,0,0,0,.15,0m8.52-5.45,0-.11,0,0s0,.09.09.09m.11,2.89s0-.09,0-.14h-.06a.27.27,0,0,0,0,.15m-22.92.16.08,0s-.06,0-.08,0m-1.24-1.43-.08,0s.06,0,.08,0M66.55,28l.08,0s-.06,0-.08,0m-20.62.91-.08,0s.06,0,.08,0m14.42-4.52,0,.11h0c0-.05,0-.09-.08-.1m1.6.69s0,.09,0,.14H62s0-.07,0-.15m-6.64,3.49,0,.05s0,0,0-.05m8.31-4.19.05,0s0-.05-.05,0m13.29.27.06,0s0-.05-.06,0m-16,.59.05,0s0-.05-.05,0M52.24,30l0,.06s0,0,0-.06m14.62-.41,0,0s0-.05,0,0M52.13,27.78l.06,0s0-.06-.06,0M65.76,24l0,0s0,0,0,0m11.84-.59.05,0s0-.06-.05,0m-34.25.73-.06,0s0,.05.06,0m2.84,3,0,0s0,.05,0,0m29.07,5.45,0-.06s-.05,0,0,.06m3.23-10.78-.06,0s0,.05.06,0m.38-.36-.06,0s0,.05.06,0M65.25,26.16l0,0s0-.06,0,0M74.64,34l-.06,0s0,0,.06,0M9.58,37.24l.06,0s0-.05-.06,0M64.35,25.63l0-.05s0,0,0,.05m5.77,13.74,0-.06s0,0,0,.06m-6.49-14,0-.05s0,0,0,.05m-1.36-.17.06,0S62.31,25.2,62.27,25.22Zm.26-22c.55.08,1.07.13,1.59.19l1.47.23,1.5.28,1.53.33a25.49,25.49,0,0,1,2.92.84c.45.14.88.41,1.33.58a7.69,7.69,0,0,1,1.54.78l1.81,1.16c.25.16.5.3.73.47a10.86,10.86,0,0,1,1.92,2,6.31,6.31,0,0,1,.79,1.19,8.73,8.73,0,0,1,.38,1,1.72,1.72,0,0,0,.18.51c.14.19.08.37.12.56l.3,1.28a.86.86,0,0,1,0,.16.85.85,0,0,1-.14-.11,2,2,0,0,1-.09-.22c0,.07,0,.14,0,.2a.13.13,0,0,1-.13.05s-.12,0-.12-.07c0-.3-.28-.57-.17-.89,0-.12-.07-.31-.12-.46-.1-.32-.21-.64-.3-1a4.51,4.51,0,0,0-.87-1.61c-.24-.3-.49-.59-.7-.91a6.61,6.61,0,0,0-1.9-1.75c-.51-.35-1-.7-1.56-1s-.91-.51-1.37-.74a14.46,14.46,0,0,0-2-.84c-.59-.19-1.17-.41-1.76-.58-.4-.11-.81-.16-1.21-.24-.68-.14-1.37-.3-2.05-.42A2.45,2.45,0,0,1,65,3.86h0c0,.37-.27,0-.37.05-.32,0-.65-.1-1-.12A7.49,7.49,0,0,1,62,3.49a2.13,2.13,0,0,0-.44-.07c-.13,0-.28.05-.35-.15,0,0-.22-.17-.29,0,0,0,0,0-.08,0l-.8,0c-.33,0-.66-.09-1-.13-.14,0-.28,0-.42,0a1.08,1.08,0,0,1-.7-.11s-.16-.06-.19,0c-.27.24-.59.09-.9,0a2.48,2.48,0,0,0-.47,0A.44.44,0,0,1,56.23,3s0-.06,0-.08h.17s.06,0,.08,0a.15.15,0,0,0,.07,0s0,0,0-.06-.44-.13-.49,0-.34.17-.57.15a2.72,2.72,0,0,0-.57,0c-.11,0-.21.08-.31.06a2.12,2.12,0,0,0-.91.05,6.12,6.12,0,0,0-1,.1,4,4,0,0,1-1,.26,6.54,6.54,0,0,1-1.77.35,9.07,9.07,0,0,1-1.7-.31.77.77,0,0,0-.24-.06,5.39,5.39,0,0,1-1.43-.22c-1-.22-1.89-.55-2.83-.86-.22-.08-.43-.2-.65-.29a3.84,3.84,0,0,0-1.5-.42h0a3.71,3.71,0,0,0-1.64-.4,5.5,5.5,0,0,1-1-.24c-.28-.08-.6,0-.86-.25a.18.18,0,0,0-.12,0c-.48.21-1-.09-1.47-.11-.06,0-.13,0-.17,0-.23.14-.5,0-.74,0a4.31,4.31,0,0,1-.77-.14,1.7,1.7,0,0,0-.22,0,6.71,6.71,0,0,1-1.09,0,3.93,3.93,0,0,0-1.13.13c-.51,0-.86.41-1.36.45,0,0-.08,0-.08,0-.11.41-.61.36-.81.66a6.5,6.5,0,0,1-.66.9c-.38.39-.79.75-1.21,1.11a8.33,8.33,0,0,1-1.73,1,4.66,4.66,0,0,1-.85.26A5.55,5.55,0,0,1,24,5.28c-.18,0-.36,0-.54-.07a5.51,5.51,0,0,0-.57-.06,6,6,0,0,1-2.31-.45,6,6,0,0,0-.64-.16c-.46-.11-.9-.33-1.38-.41a1.94,1.94,0,0,1-.59-.3,2.58,2.58,0,0,0-1.07-.34,2.54,2.54,0,0,0-.95,0,5.58,5.58,0,0,0-1.34.26c-.22.12-.56.08-.84.21s-.82.34-1.21.56-.91.59-1.38.88a.79.79,0,0,0-.3.55,3.39,3.39,0,0,0,0,1,4.88,4.88,0,0,1-.14,1.58A2.32,2.32,0,0,1,9.8,9.71c-.23.17-.57.28-.47.71,0,.05-.1.16-.14.15a.5.5,0,0,1-.28-.14c-.29-.33-.28-.54,0-.79s.33-.28.51-.41a2.08,2.08,0,0,0,.79-1.67c0-.56,0-1.12.06-1.68a1.27,1.27,0,0,1,.65-1c.48-.31,1-.55,1.5-.88a12.86,12.86,0,0,1,1.92-.78c.06,0,.16,0,.24,0s.12,0,.14,0c.25-.26.64-.15.95-.24a5.07,5.07,0,0,1,.68,0,2.73,2.73,0,0,1,1.81.4,6.16,6.16,0,0,0,1.5.59c.59.17,1.18.36,1.78.52a5.22,5.22,0,0,0,1.18.21c.33,0,.68.13,1,.12a4.76,4.76,0,0,0,1.25-.09c.31-.09.65-.13,1-.21a4.36,4.36,0,0,0,.72-.35,5.9,5.9,0,0,0,.69-.4l.61-.46c.37-.28.63-.67,1-1s.31-.5.52-.7.31-.46.65-.46c0,0,.05,0,.08-.07s.17-.22.28-.27c.31-.16.64-.27.94-.44A2.35,2.35,0,0,1,32,.19c.25-.06.5-.15.76-.19s.31.08.44.06c.73-.1,1.47.18,2.19.12.07,0,.15.06.23.07s.22.17.33,0,.23.06.35.06c.38,0,.77,0,1.15.06s.76.12,1.14.16c.67.08,1.31.33,2,.44a15.6,15.6,0,0,1,1.87.49c.47.14.93.34,1.4.5.76.25,1.53.52,2.3.74a5.42,5.42,0,0,0,1.37.3,9.47,9.47,0,0,1,1.07.13c.23,0,.44.15.68.17a4.48,4.48,0,0,0,2-.14,7.25,7.25,0,0,1,1.18-.24s.06,0,.08,0c.45-.34,1.08-.09,1.58-.3a.37.37,0,0,1,.3.09c.09.15.11.18.26.07a.76.76,0,0,1,.69-.14,2.7,2.7,0,0,0,.85,0,4.7,4.7,0,0,1,1.12.13.47.47,0,0,0,.2,0c.1,0,.21-.09.3-.06.36.11.71,0,1.08.11a1.55,1.55,0,0,0,.61,0,1.35,1.35,0,0,1,.66.07,1.65,1.65,0,0,0,.58,0l.49.08s.09.08.1.07c.34-.23.72.23,1.07.07,0,0,.09,0,.17.09M71.29,40c-.19.15,0,.32,0,.47s0,.08,0,.12a.53.53,0,0,1-.1-.06.78.78,0,0,1-.16-.76A2.36,2.36,0,0,0,71,39,6.86,6.86,0,0,1,71,37c0-.17-.1-.31-.09-.49,0-.39-.06-.78-.06-1.17s-.08-.94,0-1.4a4,4,0,0,0-.11-.82s0-.08.06-.12.1.07.11.11c0,.29.16.59,0,.87a.3.3,0,0,0,0,.13c.05.57.1,1.15.16,1.73s.15,1.32.19,2c0,.32,0,.64,0,1a3.46,3.46,0,0,0,.14.53c0,.2.08.4.1.59C71.53,40,71.4,40,71.29,40ZM34,25.89A5.44,5.44,0,0,0,34,25l0-.27c0-.18,0-.35,0-.52,0-.42,0-.85,0-1.27,0,0,0-.05,0-.08s0,.05,0,.07A6.59,6.59,0,0,1,34.22,24c-.07.45,0,.93,0,1.39a12.78,12.78,0,0,1,0,1.75.8.8,0,0,0,0,.3,11.5,11.5,0,0,1,0,1.66.45.45,0,0,1-.07.18.2.2,0,0,1-.27.12.25.25,0,0,1-.15-.32,8.57,8.57,0,0,0,.17-1.69c0-.38.06-.76.08-1.15a2.09,2.09,0,0,0,0-.38m34,3.95c-.07.13-.14.27-.29.1s-.12-.38,0-.4.17,0,.09-.15a1.74,1.74,0,0,1,0-.72c0-.11,0-.21,0-.32s0-.07.17-.17a.29.29,0,0,0,0-.19c-.29-.14-.17-.35-.17-.55,0-.43,0-.87,0-1.3s.06-.77.07-1.16,0-.9,0-1.35a1,1,0,0,1,0-.25,2.6,2.6,0,0,1,.13-.36c.13.14.06.25,0,.4a3.19,3.19,0,0,0,0,.69c0,.54,0,1.08,0,1.61S68,26.55,68,27a1.32,1.32,0,0,0,0,.34,4.13,4.13,0,0,1,0,1.4,5.27,5.27,0,0,1,0,.69c0,.13-.16.23-.09.45m-.09-.65s0,0,0,0,0,0,0,0a1.34,1.34,0,0,0,0-.2l-.06,0S67.83,29.07,67.84,29.19Zm1.64,3.22c-.1-.29-.25-.57,0-.81,0,0,0-.09,0-.11a.57.57,0,0,1,0-.69s0-.09,0-.14a1,1,0,0,1-.07-.72.21.21,0,0,0,0-.08c0-.36-.06-.73-.07-1.09a8.57,8.57,0,0,1,0-1.43,4.06,4.06,0,0,0,0-.7c0-.11,0-.23,0-.34a.54.54,0,0,1,.08-.21.71.71,0,0,1,.08.18,5.13,5.13,0,0,1,.07,1.61,4.37,4.37,0,0,0,0,.95c0,.23.14.48,0,.7,0,0,0,.06,0,.08a10.92,10.92,0,0,1,.18,2.05c.06.39.06.8.11,1.21,0,0,0,.07-.07.11s-.07,0-.09-.06-.06-.1-.1-.13-.12-.14,0-.17,0-.13,0-.21m0-1.15,0-.05S69.44,31.22,69.47,31.26Zm-2.26-2.8a.11.11,0,0,1-.09-.05c-.12-.6-.25-1.21-.34-1.82a7.55,7.55,0,0,1-.11-1.42,9.07,9.07,0,0,0-.06-.91.48.48,0,0,1,0-.17c0,.06.11.12.12.18,0,.4.07.81.11,1.22,0,.07.09.14.09.21a2.86,2.86,0,0,1,0,.83c-.07.42.17.86.18,1.3ZM51.83,22.65c0,.61,0,1.18,0,1.75.24.29,0,.58.1.87,0,0,0,.09,0,.14s0-.09,0-.11a.8.8,0,0,1-.3-.76c.06-.48-.08-1,0-1.47a4.31,4.31,0,0,0,0-1.19s.06-.06.09-.09.07.06.07.09C51.75,22.12,51.78,22.36,51.83,22.65Zm7.57-1.19c0,.61-.08,1.18-.08,1.76,0,.41.06.83.08,1.25a1.45,1.45,0,0,1,0,.28c-.06-.15-.3-.13-.3-.33s0-.45,0-.68a11.13,11.13,0,0,0,.08-1.64,1.21,1.21,0,0,1,0-.19c0-.22,0-.44.05-.65,0-.05,0-.09.08-.14l.09.17S59.39,21.38,59.4,21.46Zm-5,4.89a1,1,0,0,1,.1.75c0,.07.07.19.09.29l.18,1.7s-.06.1-.1.12-.12.2-.13,0a13.75,13.75,0,0,1-.24-2,1.7,1.7,0,0,0-.06-.62C54.16,26.44,54.19,26.44,54.36,26.35Zm23.81-9.71c.09.33,0,.63.21.91,0,.06,0,.18,0,.26.14.8.29,1.6.43,2.4,0,0,.18.08,0,.12a.3.3,0,0,1-.18,0c0-.33-.37-.66-.1-1,0,0,0-.17-.06-.25s-.34-1-.24-1.15-.11-.27-.11-.42a8.36,8.36,0,0,0-.12-1c0-.07-.08-.19.07-.17s.07.1.09.16A.52.52,0,0,1,78.17,16.64ZM64.8,25.44a6,6,0,0,1-.18-.7c0-.25-.16-.5,0-.75,0-.06,0-.16,0-.25,0-.4-.06-.81-.08-1.21,0,0,0-.07.08-.11s.08.08.09.12c.08.55.16,1.09.23,1.63,0,.08-.05.15-.08.22a.15.15,0,0,0,0,.09,1.09,1.09,0,0,1,.08.94A.1.1,0,0,1,64.8,25.44ZM69,30.76c0,.47.07.9.1,1.33a.39.39,0,0,1-.06.18.6.6,0,0,1-.09.13.5.5,0,0,1-.08-.14c0-.4,0-.81-.07-1.21,0-.09,0-.18,0-.28,0-.41-.07-.83-.1-1.25,0,0,0-.08,0-.11s.07-.07.1-.1a.37.37,0,0,1,.05.11A4.93,4.93,0,0,1,69,30.76ZM43.94,23.5c0,.1,0,.16,0,.22s-.15.19-.22.21-.11-.14-.12-.21c0-.24-.15-.48,0-.7,0,0,0-.14-.07-.2-.19-.3,0-.59-.08-.89,0,0,.08-.06.13-.05s.11,0,.12.06a.85.85,0,0,1,0,.22,4.44,4.44,0,0,0,.08.61A7.05,7.05,0,0,1,43.94,23.5Zm33.71-.9c-.05,0-.14.08-.15.07s-.15-.22-.13-.25c.16-.19.09-.38,0-.59a.06.06,0,0,1,0,0A5.76,5.76,0,0,0,77.19,20s0-.08,0-.12a.43.43,0,0,1,.13.09c.17.2.13.2.07.5,0,.14.08.33.12.49s0,.26.06.38,0,.34,0,.53a.31.31,0,0,1,0,.39C77.47,22.36,77.52,22.48,77.65,22.6ZM75.76,25c0-.47-.08-.91-.11-1.34a.5.5,0,0,1,0-.12s.06.07.06.1a4.91,4.91,0,0,1,.09,1.09,2.94,2.94,0,0,0,.1.81c0,.19,0,.38,0,.57l0,.09a.13.13,0,0,1,0-.07A3.25,3.25,0,0,1,75.76,25Zm1.47-6.94a9.4,9.4,0,0,1,.15,1.47,1.21,1.21,0,0,1,0,.18s0,0,0,.06,0-.05,0-.07a1.65,1.65,0,0,1,0-.3,4.72,4.72,0,0,0-.09-1.24S77.17,18.09,77.23,18.07Zm-1.61,4.18c0,.29.14.54,0,.78a.93.93,0,0,0,0,.24,2.1,2.1,0,0,1-.06-.24c0-.26-.08-.51-.11-.77S75.53,22.15,75.62,22.25ZM43.46,21.2c.14,0,.16,0,.17.12v.28c-.05,0-.13,0-.14,0A1.94,1.94,0,0,1,43.46,21.2Zm5.66-.63a.71.71,0,0,1,0-.15c.15,0,.25.29.17.39s-.07,0-.07,0A.94.94,0,0,1,49.12,20.57Zm30.2-.1s0,.05-.06.05l-.26,0a1.3,1.3,0,0,0,.1-.15C79.19,20.25,79.25,20.42,79.32,20.47Zm-.62,0a.2.2,0,0,1,0,.13h0A.15.15,0,0,1,78.7,20.45ZM67.22,28.5s0,0,.08,0Zm-19.37-1s0,0-.05,0S47.81,27.46,47.85,27.46ZM29.76,35.79s0,.05,0,.08A.11.11,0,0,1,29.76,35.79Z"/></g></g></svg>