<svg xmlns="http://www.w3.org/2000/svg" viewBox="0 0 54.37 42.9"><defs><style>.cls-1{fill:#fff;}</style></defs><title>snow-small</title><g id="Layer_2" data-name="Layer 2"><g id="snow-small"><path id="void" class="cls-1" d="M54.19,12.7A8.06,8.06,0,0,0,54,11.07a8.55,8.55,0,0,1-.28-1.51,2.47,2.47,0,0,0-.09-.71,14.65,14.65,0,0,0-.54-1.44A10.52,10.52,0,0,0,52,5.8,3.37,3.37,0,0,0,51.28,5,.74.74,0,0,1,51,4.54c0-.19-.15-.22-.32-.23a.67.67,0,0,0-.39.15c-.22-.18-.9-.44-1-.56-.23-.39-1.36-.71-1.69-1A6.89,6.89,0,0,0,45.72,1.8c-.33-.15-.68-.22-1-.36a15.67,15.67,0,0,0-3.42-1A13.63,13.63,0,0,0,39.11.2c-1-.06-2-.06-3-.1A5,5,0,0,1,34.65,0a.57.57,0,0,0-.26,0c-.5.06-1,.13-1.51.18-.34,0-.69,0-1,.09-.64.12-1.28.29-1.92.35a21.41,21.41,0,0,0-2.64.58c-1,.24-2,.58-2.95.86-.58.17-1.16.31-1.72.5-.83.28-1.65.61-2.46.92-.57.21-1.14.41-1.7.66-.32.14-.59.37-.89.52a20.82,20.82,0,0,1-2.29,1.2,11.72,11.72,0,0,0-1.1.6,6.61,6.61,0,0,0-.76.36c-.72.47-1.47.93-2.19,1.42S9.67,9.33,8.91,9.89a9.45,9.45,0,0,1-.76.66A7.17,7.17,0,0,0,6.49,12a3.61,3.61,0,0,0-.76,1.35,3.51,3.51,0,0,0-.18,1.51c0,.31,0,.64.1.95a1.79,1.79,0,0,1,0,1.38s0,.09,0,.13A5.56,5.56,0,0,1,5,18.81a16.12,16.12,0,0,1-1.12,1.55c-.44.52-.91,1-1.37,1.54l-.18.19c-.43.55-.89,1.07-1.27,1.63A5.06,5.06,0,0,0,0,25.66,1.46,1.46,0,0,0,.39,27,2.23,2.23,0,0,0,2,27.74c1,.05,2,.06,2.92.09a3.31,3.31,0,0,1,.77.09c.51.16.81.36.85,1A5.57,5.57,0,0,0,6.64,30a9.84,9.84,0,0,1,.15,1.33,1.77,1.77,0,0,0,.53,1.21c.21.18.38.39.58.56a1.64,1.64,0,0,1,.51,1.09,3.89,3.89,0,0,1-.15,1.69,5.33,5.33,0,0,0-.19.9c0,.36-.06.73-.1,1.09a5.3,5.3,0,0,1-.1.8,11.45,11.45,0,0,0-.34,2.24c0,.15-.08.3-.09.46a7,7,0,0,0,0,1.12.46.46,0,0,0,.36.43.42.42,0,0,0,.44-.27.31.31,0,0,1,.13-.17,3.77,3.77,0,0,0,1.4-1.66c.15-.4.35-.78.53-1.17a3.12,3.12,0,0,1,.23-.49,18.89,18.89,0,0,0,.92-1.86A7.63,7.63,0,0,0,12,35.76c.07-.2.16-.25.35-.19s.39.17.58.23a.6.6,0,0,0,.61-.14,2.18,2.18,0,0,0,.71-.9c.09-.26.25-.5.35-.76a7.51,7.51,0,0,0,.44-1.2c.12-.5.32-.95.4-1.46A7.47,7.47,0,0,1,16,29.25a9.14,9.14,0,0,1,.9-1.83,1.24,1.24,0,0,1,1.25-.57.51.51,0,0,1,.3.13,1.64,1.64,0,0,1,.44,1.16c0,.52-.05,1.05-.08,1.57,0,.28.19.62.37.62a.66.66,0,0,0,.54-.35,5.4,5.4,0,0,1,.86-1,4.74,4.74,0,0,0,1-1.42,6.77,6.77,0,0,1,.67-1.12c.34-.38.61-.82,1-1.2a8.49,8.49,0,0,1,1-1,5.32,5.32,0,0,1,1.14-.58,4.26,4.26,0,0,1,1.68-.3.86.86,0,0,1,.8.34,1.56,1.56,0,0,1,.24.35c.16.44.32.89.45,1.34A3.94,3.94,0,0,1,28.79,27c0,.15-.07.28-.09.42,0,.43,0,.86,0,1.3a.68.68,0,0,0,.72.69,2,2,0,0,0,.93-.15c.27-.13.41,0,.57.25s.21.4.32.59a6.21,6.21,0,0,0,1.11,1.29c.08.08.19.17.2.27s.14.24,0,.43.11.41,0,.58a5,5,0,0,0-.17,1.67.86.86,0,0,1,0,.17l-.15.8a4,4,0,0,1-.1.85c-.17.55-.41,1.08-.6,1.63a1.71,1.71,0,0,0-.1.49c0,.23.12.32.34.28a.73.73,0,0,0,.29-.15c.27-.27.53-.56.81-.84l-.16,0a.13.13,0,0,1,0-.06.7.7,0,0,1,.17.06c.29-.15.63-.28.77-.6s.5-.83.67-1.29a6.19,6.19,0,0,1,.45-1,9,9,0,0,0,.52-1A3.37,3.37,0,0,1,36,32.27s0-.06,0-.09c.13-.34.22-.68.36-1a4.6,4.6,0,0,0,.44-1.39A14.34,14.34,0,0,1,37.25,28c.1-.39.2-.78.31-1.17A12.51,12.51,0,0,1,38.33,25a5.37,5.37,0,0,1,.88-1.2,1.82,1.82,0,0,1,.53-.43c.25-.15.54-.23.45-.63,0,0,0,0,.05-.06l0,.06c.07.31.33.23.5.18s.39-.13.58,0a2.53,2.53,0,0,1,.52.39,3.65,3.65,0,0,1,.37.8,8.45,8.45,0,0,1,.55,2.72.78.78,0,0,0,0,.22,4,4,0,0,1,.2.89,3.63,3.63,0,0,0,.5,1.33.65.65,0,0,0,.42.27,1.71,1.71,0,0,0,1.09-.15,9.62,9.62,0,0,0,1.27-.84c.1-.06.11-.27.18-.4s.08-.09.11-.13a3.71,3.71,0,0,0,.75-1.27,5.34,5.34,0,0,0,.44-1.07,12.33,12.33,0,0,1,.37-1.28,6.07,6.07,0,0,1,.53-1.44c.09-.12.24-.24.28-.38a3.38,3.38,0,0,0,.17-1,3.17,3.17,0,0,1,.28-1.33.22.22,0,0,1,.35-.13c.18.1.34.23.52.35a9.16,9.16,0,0,0,.92.5c.13.05.32,0,.49-.07a1.5,1.5,0,0,0,.75-.56,6.38,6.38,0,0,0,1.17-1.91,2.18,2.18,0,0,0,.19-.8,11.3,11.3,0,0,1,.37-2c.12-.53.09-1.06.17-1.59a.11.11,0,0,0,0-.08A2.44,2.44,0,0,1,54.19,12.7Z"/><path id="fill2" class="cls-1" d="M54.19,12.7A8.06,8.06,0,0,0,54,11.07a8.55,8.55,0,0,1-.28-1.51,2.47,2.47,0,0,0-.09-.71,14.65,14.65,0,0,0-.54-1.44A10.52,10.52,0,0,0,52,5.8,3.37,3.37,0,0,0,51.28,5,.74.74,0,0,1,51,4.54c0-.19-.15-.22-.32-.23a.67.67,0,0,0-.39.15c-.22-.18-.9-.44-1-.56-.23-.39-1.36-.71-1.69-1A6.89,6.89,0,0,0,45.72,1.8c-.33-.15-.68-.22-1-.36a15.67,15.67,0,0,0-3.42-1A13.63,13.63,0,0,0,39.11.2c-1-.06-2-.06-3-.1A5,5,0,0,1,34.65,0a.57.57,0,0,0-.26,0c-.5.06-1,.13-1.51.18-.34,0-.69,0-1,.09-.64.12-1.28.29-1.92.35a21.41,21.41,0,0,0-2.64.58c-1,.24-2,.58-2.95.86-.58.17-1.16.31-1.72.5-.83.28-1.65.61-2.46.92-.57.21-1.14.41-1.7.66-.32.14-.59.37-.89.52a20.82,20.82,0,0,1-2.29,1.2,11.72,11.72,0,0,0-1.1.6,6.61,6.61,0,0,0-.76.36c-.72.47-1.47.93-2.19,1.42S9.67,9.33,8.91,9.89a9.45,9.45,0,0,1-.76.66A7.17,7.17,0,0,0,6.49,12a3.61,3.61,0,0,0-.76,1.35,3.51,3.51,0,0,0-.18,1.51c0,.31,0,.64.1.95a1.79,1.79,0,0,1,0,1.38s0,.09,0,.13A5.56,5.56,0,0,1,5,18.81a16.12,16.12,0,0,1-1.12,1.55c-.44.52-.91,1-1.37,1.54l-.18.19c-.43.55-.89,1.07-1.27,1.63A5.06,5.06,0,0,0,0,25.66,1.46,1.46,0,0,0,.39,27,2.23,2.23,0,0,0,2,27.74c1,.05,2,.06,2.92.09a3.31,3.31,0,0,1,.77.09c.51.16.81.36.85,1A5.57,5.57,0,0,0,6.64,30a9.84,9.84,0,0,1,.15,1.33,1.77,1.77,0,0,0,.53,1.21c.21.18.38.39.58.56a1.64,1.64,0,0,1,.51,1.09,3.89,3.89,0,0,1-.15,1.69,5.33,5.33,0,0,0-.19.9c0,.36-.06.73-.1,1.09a5.3,5.3,0,0,1-.1.8,11.45,11.45,0,0,0-.34,2.24c0,.15-.08.3-.09.46a7,7,0,0,0,0,1.12.46.46,0,0,0,.36.43.42.42,0,0,0,.44-.27.31.31,0,0,1,.13-.17,3.77,3.77,0,0,0,1.4-1.66c.15-.4.35-.78.53-1.17a3.12,3.12,0,0,1,.23-.49,18.89,18.89,0,0,0,.92-1.86A7.63,7.63,0,0,0,12,35.76c.07-.2.16-.25.35-.19s.39.17.58.23a.6.6,0,0,0,.61-.14,2.18,2.18,0,0,0,.71-.9c.09-.26.25-.5.35-.76a7.51,7.51,0,0,0,.44-1.2c.12-.5.32-.95.4-1.46A7.47,7.47,0,0,1,16,29.25a9.14,9.14,0,0,1,.9-1.83,1.24,1.24,0,0,1,1.25-.57.51.51,0,0,1,.3.13,1.64,1.64,0,0,1,.44,1.16c0,.52-.05,1.05-.08,1.57,0,.28.19.62.37.62a.66.66,0,0,0,.54-.35,5.4,5.4,0,0,1,.86-1,4.74,4.74,0,0,0,1-1.42,6.77,6.77,0,0,1,.67-1.12c.34-.38.61-.82,1-1.2a8.49,8.49,0,0,1,1-1,5.32,5.32,0,0,1,1.14-.58,4.26,4.26,0,0,1,1.68-.3.86.86,0,0,1,.8.34,1.56,1.56,0,0,1,.24.35c.16.44.32.89.45,1.34A3.94,3.94,0,0,1,28.79,27c0,.15-.07.28-.09.42,0,.43,0,.86,0,1.3a.68.68,0,0,0,.72.69,2,2,0,0,0,.93-.15c.27-.13.41,0,.57.25s.21.4.32.59a6.21,6.21,0,0,0,1.11,1.29c.08.08.19.17.2.27s.14.24,0,.43.11.41,0,.58a5,5,0,0,0-.17,1.67.86.86,0,0,1,0,.17l-.15.8a4,4,0,0,1-.1.85c-.17.55-.41,1.08-.6,1.63a1.71,1.71,0,0,0-.1.49c0,.23.12.32.34.28a.73.73,0,0,0,.29-.15c.27-.27.53-.56.81-.84l-.16,0a.13.13,0,0,1,0-.06.7.7,0,0,1,.17.06c.29-.15.63-.28.77-.6s.5-.83.67-1.29a6.19,6.19,0,0,1,.45-1,9,9,0,0,0,.52-1A3.37,3.37,0,0,1,36,32.27s0-.06,0-.09c.13-.34.22-.68.36-1a4.6,4.6,0,0,0,.44-1.39A14.34,14.34,0,0,1,37.25,28c.1-.39.2-.78.31-1.17A12.51,12.51,0,0,1,38.33,25a5.37,5.37,0,0,1,.88-1.2,1.82,1.82,0,0,1,.53-.43c.25-.15.54-.23.45-.63,0,0,0,0,.05-.06l0,.06c.07.31.33.23.5.18s.39-.13.58,0a2.53,2.53,0,0,1,.52.39,3.65,3.65,0,0,1,.37.8,8.45,8.45,0,0,1,.55,2.72.78.78,0,0,0,0,.22,4,4,0,0,1,.2.89,3.63,3.63,0,0,0,.5,1.33.65.65,0,0,0,.42.27,1.71,1.71,0,0,0,1.09-.15,9.62,9.62,0,0,0,1.27-.84c.1-.06.11-.27.18-.4s.08-.09.11-.13a3.71,3.71,0,0,0,.75-1.27,5.34,5.34,0,0,0,.44-1.07,12.33,12.33,0,0,1,.37-1.28,6.07,6.07,0,0,1,.53-1.44c.09-.12.24-.24.28-.38a3.38,3.38,0,0,0,.17-1,3.17,3.17,0,0,1,.28-1.33.22.22,0,0,1,.35-.13c.18.1.34.23.52.35a9.16,9.16,0,0,0,.92.5c.13.05.32,0,.49-.07a1.5,1.5,0,0,0,.75-.56,6.38,6.38,0,0,0,1.17-1.91,2.18,2.18,0,0,0,.19-.8,11.3,11.3,0,0,1,.37-2c.12-.53.09-1.06.17-1.59a.11.11,0,0,0,0-.08A2.44,2.44,0,0,1,54.19,12.7Z"/><path id="fill1" d="M32.92,37.52c-.26.28-.52.57-.8.84a.61.61,0,0,1-.29.14c-.22.06-.35,0-.34-.26a1.71,1.71,0,0,1,.1-.5c.19-.55.43-1.08.6-1.63a4.82,4.82,0,0,0,.11-.86c0-.26.09-.53.14-.79a1,1,0,0,0,0-.17,5.25,5.25,0,0,1,.17-1.67c0-.17-.13-.44-.06-.58s0-.3,0-.43-.12-.19-.2-.27a6.21,6.21,0,0,1-1.11-1.29c-.11-.19-.22-.39-.32-.59s-.3-.38-.58-.25a2,2,0,0,1-.92.15.67.67,0,0,1-.71-.69c0-.44,0-.87,0-1.3,0-.14.07-.28.08-.42a4.18,4.18,0,0,0-.18-1.49c-.14-.45-.29-.9-.45-1.34a2,2,0,0,0-.24-.35.87.87,0,0,0-.8-.35,4.38,4.38,0,0,0-1.67.31,5.63,5.63,0,0,0-1.15.58,7.19,7.19,0,0,0-1,1c-.35.38-.63.82-1,1.21a6.64,6.64,0,0,0-.67,1.12,4.71,4.71,0,0,1-1,1.41,5.4,5.4,0,0,0-.86,1,.69.69,0,0,1-.54.36c-.18,0-.37-.35-.36-.63,0-.52.09-1.05.07-1.57A1.62,1.62,0,0,0,18.47,27a.58.58,0,0,0-.3-.13,1.22,1.22,0,0,0-1.24.57A8.22,8.22,0,0,0,16,29.25a8.11,8.11,0,0,0-.57,2.09c-.08.51-.29,1-.4,1.46A8,8,0,0,1,14.61,34c-.1.25-.26.49-.35.75a2.3,2.3,0,0,1-.72.91.62.62,0,0,1-.6.13c-.2-.06-.39-.15-.58-.22s-.29,0-.35.18a8.59,8.59,0,0,1-.55,1.52c-.35.6-.51,1.29-.92,1.86a2.19,2.19,0,0,0-.23.49c-.18.39-.38.77-.53,1.17a3.78,3.78,0,0,1-1.4,1.66.37.37,0,0,0-.13.17.4.4,0,0,1-.44.26c-.22,0-.34-.25-.36-.42a8.37,8.37,0,0,1,0-1.12c0-.16.08-.31.08-.46a12.14,12.14,0,0,1,.35-2.24,5.3,5.3,0,0,0,.1-.8c0-.37,0-.73.1-1.09a4.92,4.92,0,0,1,.19-.91,3.81,3.81,0,0,0,.15-1.67,1.62,1.62,0,0,0-.51-1.09c-.21-.17-.37-.39-.58-.57a1.78,1.78,0,0,1-.53-1.22A9.88,9.88,0,0,0,6.64,30a6.38,6.38,0,0,1-.1-1.08,1,1,0,0,0-.85-1,3.23,3.23,0,0,0-.76-.1L2,27.74A2.26,2.26,0,0,1,.39,27,1.51,1.51,0,0,1,0,25.66,5,5,0,0,1,1.1,23.73c.39-.57.84-1.09,1.26-1.64.06-.07.13-.12.19-.19.46-.51.92-1,1.36-1.54A16.79,16.79,0,0,0,5,18.82a5,5,0,0,0,.61-1.46s0-.1,0-.13a1.79,1.79,0,0,0,0-1.38c-.07-.31-.05-.64-.1-.95a3.51,3.51,0,0,1,.18-1.51A3.48,3.48,0,0,1,6.49,12a7.36,7.36,0,0,1,1.66-1.49,9.45,9.45,0,0,0,.76-.66c.76-.57,1.53-1.11,2.32-1.64l2.2-1.43a7.41,7.41,0,0,1,.75-.35,11.72,11.72,0,0,1,1.1-.6,19.74,19.74,0,0,0,2.28-1.19c.31-.17.59-.39.9-.53.56-.25,1.14-.45,1.7-.67.82-.3,1.63-.63,2.45-.91.57-.19,1.15-.33,1.73-.49,1-.29,2-.63,3-.87A21.25,21.25,0,0,1,29.93.63c.64-.06,1.28-.24,1.92-.34.34-.06.69-.06,1-.1L34.38,0a.61.61,0,0,1,.27,0A5,5,0,0,0,36.09.1c1,0,2,0,3,.1a13.63,13.63,0,0,1,2.21.28,15.13,15.13,0,0,1,3.42,1c.3.15.65.21,1,.36a6.79,6.79,0,0,1,1.88,1.09c.34.3,1.47.61,1.7,1,.07.14,1,.49,1,.65a1.39,1.39,0,0,1-.19.51A9.89,9.89,0,0,1,49,4.27c-.21-.3-.9-.34-1.11-.63a3.38,3.38,0,0,0-1-.66,11.3,11.3,0,0,0-2.3-1,17.91,17.91,0,0,0-2.24-.66c-.75-.14-1.49-.33-2.26-.4-.47,0-.94,0-1.4-.08C38,.69,37.24.78,36.53.72c-.24,0-.46,0-.69,0a4.65,4.65,0,0,1-.75,0c-.22,0-.46.15-.67,0-.4.21-.86,0-1.27.17a1.89,1.89,0,0,1-.63.1,10.67,10.67,0,0,0-1.87.27c-.6.11-1.21.16-1.81.28a8.1,8.1,0,0,0-.79.26l-1.79.45c-.86.23-1.72.46-2.57.72-.59.18-1.17.42-1.76.62a21.21,21.21,0,0,1-2.07.74,4,4,0,0,0-.9.44c-.69.38-1.38.78-2.08,1.15-1,.52-2,1-2.95,1.53a26.49,26.49,0,0,0-2.38,1.5c-.5.33-1,.68-1.47,1a5.58,5.58,0,0,0-.56.39c-.69.6-1.41,1.17-2.06,1.82a3.08,3.08,0,0,0-1,1.48,3.36,3.36,0,0,0-.22,1.25c.06.5.19,1,.25,1.5a3.1,3.1,0,0,1-.1,1.17A7,7,0,0,1,5.13,20c-.28.37-.59.72-.89,1.07A20.47,20.47,0,0,1,2.9,22.7a16.89,16.89,0,0,0-1.44,1.84,4.88,4.88,0,0,0-.64,1.08,1,1,0,0,0,.88,1.31,1.62,1.62,0,0,0,.22,0c.4,0,.4,0,.4-.39A.91.91,0,0,1,2.44,26c0-.07,0-.19,0-.28.11-.54.24-1.08.31-1.63,0-.09-.07-.19-.07-.29s.08-.15.12-.23.13.12.12.17c0,.25,0,.49,0,.74a1.52,1.52,0,0,0,0,.21,9,9,0,0,1-.24,1.94c-.06.36,0,.42.32.43.14,0,.27,0,.4,0,.48,0,.51,0,.59-.48,0-.26,0-.53.1-.78a10.86,10.86,0,0,1,.25-1.6,3.57,3.57,0,0,0,.1-1,1.09,1.09,0,0,1,.17-.58s.08,0,.08,0a4,4,0,0,1,0,.6c0,.21-.11.41-.13.61-.07.68-.12,1.36-.18,2,0,.06,0,.14,0,.17.16.19.07.4.08.6A1.56,1.56,0,0,1,4.3,27l.53,0a1.62,1.62,0,0,0,.22,0c.13,0,.14,0,.15-.15s.06-.45.08-.68,0-.23,0-.34a1.48,1.48,0,0,1,0-.42s.11-.07.17-.11l.06.14a1.71,1.71,0,0,1,0,1.18c0,.15,0,.25.09.34s.1.05.11,0a.27.27,0,0,0,.07-.14,9.08,9.08,0,0,1,.21-1.66,7.75,7.75,0,0,0,.16-1.15A10.17,10.17,0,0,1,6.4,23s0,0,0-.07a3.87,3.87,0,0,1,0-.48c0-.15.09-.28,0-.45s.07-.29.11-.44a.33.33,0,0,1,.14.39,8.82,8.82,0,0,1-.33,2,.84.84,0,0,0,0,.39,7.16,7.16,0,0,1-.26,1.78c0,.1,0,.21,0,.31s.07.35-.08.51,0,.21.09.26c.3.23.62.45,1,.69l.12.16.08-.08-.18-.1c0-.15.07-.3.09-.46s0-.23,0-.37-.05-.33-.07-.5,0-.36,0-.54,0-.27.12-.35l.15.3a.56.56,0,0,0,0,.12c0-.05.05-.1,0-.14a10.69,10.69,0,0,1,.2-2c0-.66.23-1.3.34-2,.08-.44.13-.88.19-1.31a.44.44,0,0,1,0-.17c0-.05.08-.07.12-.1s0,.08,0,.12a8.08,8.08,0,0,1-.09.86c0,.28-.13.55-.17.82s-.06.67-.1,1c0,.11-.07.21-.08.32,0,.3-.06.6-.1.9s0,.4-.08.6-.07.36-.09.54.07.65-.09,1a0,0,0,0,0,0,0c.13.27,0,.54,0,.82a1.67,1.67,0,0,1-.07.73c0,.12,0,.3,0,.46a.79.79,0,0,1,0,.3,3.94,3.94,0,0,0-.07,1.45,10.53,10.53,0,0,0,.17,1.36.68.68,0,0,0,.18.32c.35.37.72.72,1.07,1.08a.31.31,0,0,1,.09.14,5.41,5.41,0,0,1,.27,1.59c-.06.46-.16.9-.2,1.35a14.27,14.27,0,0,0-.25,1.43,11.9,11.9,0,0,1-.24,1.78,3.57,3.57,0,0,0-.13,1.14,4.52,4.52,0,0,1-.16,1,.75.75,0,0,0,0,.21l.16-.12A6.05,6.05,0,0,0,9.32,40c.14-.26.31-.5.44-.76a6,6,0,0,0,.34-.89c0-.12-.07-.27-.06-.4.12-1.12.08-2.25.09-3.37,0-.05,0-.09.06-.14s.1.08.11.13a1.69,1.69,0,0,1,0,.32v2.64c0,.11,0,.21,0,.32s0,.07.08.08.09,0,.09-.06A3.48,3.48,0,0,1,11,36.43a2,2,0,0,0,.17-.82c0-.25.12-.47,0-.74a1.67,1.67,0,0,1,0-.8,17.19,17.19,0,0,1,.17-1.9c-.13-.19,0-.37,0-.56a5.33,5.33,0,0,1,.07-.54c0-.2.11-.38,0-.61s0-.32.07-.49c.1-.68.17-1.37.28-2,.07-.4.14-.79.19-1.18s.17-.65.18-1a7.48,7.48,0,0,1,.16-1c.07-.46.12-.91.18-1.37a.43.43,0,0,0,0-.07.24.24,0,0,1,.05.1c0,.46-.07.93-.11,1.39a3.81,3.81,0,0,1-.07.47l-.24,1.46q-.08.45-.12.9c0,.57-.14,1.14-.2,1.72s-.13,1-.17,1.54a4.49,4.49,0,0,0-.16,1.09,11.2,11.2,0,0,1-.09,1.64c0,.18,0,.35,0,.53s0,.37,0,.56a.69.69,0,0,0,0,.25l.15-.14.07-.07c.1-.13.21-.19.35-.05a.29.29,0,0,0,.14.08c.1,0,.27.09.3.06s.14-.29.1-.35a.66.66,0,0,1-.07-.51,5.17,5.17,0,0,1,.08-1.57c-.22-.32.18-.7-.09-1a.12.12,0,0,1,0-.13c.16-.19.07-.42.08-.63,0-.66,0-1.33.11-2,.06-.37,0-.73.07-1.09l.09-1.13a.13.13,0,0,1,.09-.07.15.15,0,0,1,.09.06,1.09,1.09,0,0,1,0,.36,4.06,4.06,0,0,0-.09,1.1,13.78,13.78,0,0,1-.1,1.82A11.45,11.45,0,0,0,12.84,32a7.39,7.39,0,0,0,0,1.33c0,.12,0,.25.07.37s0,.17,0,.22c-.23.32.05.64,0,1,0,.07.1.15.15.23a1,1,0,0,0,.2-.15,5,5,0,0,0,.79-2,5.09,5.09,0,0,1,0-.58c.09-.53,0-1.08.12-1.63a7,7,0,0,0,.13-1.14A10.17,10.17,0,0,1,14.56,28c0-.15,0-.31,0-.46a6.19,6.19,0,0,0,.13-1.43.33.33,0,0,1,0-.17,2.21,2.21,0,0,1,.12-.27.85.85,0,0,1,.05.26c0,.66,0,1.33-.09,2,0,.48-.18.94-.26,1.42,0,.3,0,.61-.1.9a9.78,9.78,0,0,0-.09,1.62,4.85,4.85,0,0,1-.08.55s.09.11.13.16,0-.1,0-.16c.11-.55.26-1.1.32-1.65a21.44,21.44,0,0,1,.64-2.25,4.9,4.9,0,0,0,.08-.94c0-.06-.12-.13-.11-.18.07-.33.15-.66.23-1s.26-.44.09-.7c.16-.43-.06-.93.25-1.33.05-.06,0-.18,0-.26s.06-.25.08-.37a2.18,2.18,0,0,0,0-.51,2.14,2.14,0,0,1,.17-.46,5.18,5.18,0,0,0,.14-.53,4.55,4.55,0,0,0,0-.52.86.86,0,0,1,0-.17s.06-.06.09-.1a1.39,1.39,0,0,1,.06.13A3.05,3.05,0,0,1,16.38,23a8.14,8.14,0,0,0-.24,1.29c0,.11,0,.25,0,.34a.76.76,0,0,0-.07.49,3.25,3.25,0,0,1-.1,1,3.54,3.54,0,0,0-.15.92c0,.1,0,.19-.06.29a4.61,4.61,0,0,0,0,.53,1,1,0,0,0,.12.26,1.11,1.11,0,0,0,0-.25,1.91,1.91,0,0,1,.89-1.44.84.84,0,0,0,.37-.63,19.37,19.37,0,0,1,.27-2.4.56.56,0,0,1,0-.12s.11.07.12.12a.51.51,0,0,1,0,.3,2.27,2.27,0,0,0-.08.86c0,.4-.06.8-.1,1.19,0,.18.05.24.22.22h.23c.21,0,.28-.1.28-.3a2.57,2.57,0,0,1,0-.48s.06-.07.09-.1a.6.6,0,0,1,.06.11,2.08,2.08,0,0,1,.18.51c0,.28,0,.26.18.39s.42.39.63.58l.12.09a.35.35,0,0,0,.06-.14,6.71,6.71,0,0,1,0-1,3.48,3.48,0,0,1,.16-1.23,1.39,1.39,0,0,1,.06-.13c0,.05.1.08.12.13a.37.37,0,0,1,0,.18,1.21,1.21,0,0,0-.07.37,4.07,4.07,0,0,1,0,.78,8,8,0,0,0,0,.85.58.58,0,0,1-.1.37c-.07.08,0,.29,0,.41a2.42,2.42,0,0,1,.07,1,1.1,1.1,0,0,0,.19.64l.05.1a.28.28,0,0,0,0-.12c0-.24,0-.5.15-.7,0,0,0-.06,0-.08-.2-.29.12-.6-.05-.89l0,0c.28-.3.11-.69.2-1a2.71,2.71,0,0,0,.06-.38,6.88,6.88,0,0,1,.11-1.45,8.14,8.14,0,0,0,.19-1,1.58,1.58,0,0,0,.05-.38,3,3,0,0,1,.11-.94s.06-.08.06-.09c-.17-.24,0-.47,0-.7s0-.63,0-.94a1.77,1.77,0,0,1,0-.23.16.16,0,0,1,.11,0s.06,0,.06,0a1.77,1.77,0,0,1,0,.23c0,.72,0,1.44-.1,2.16,0,.54-.11,1.08-.18,1.63a4.47,4.47,0,0,1-.14.61.76.76,0,0,0,0,.21,5.13,5.13,0,0,1,0,1,3.28,3.28,0,0,1-.08.41c0,.14,0,.28,0,.42a6.63,6.63,0,0,1-.13,1,.72.72,0,0,0,0,.25c0,.07.09.12.13.17s0-.1.05-.15a6.1,6.1,0,0,1,.37-.92,1.05,1.05,0,0,0,0-.9s0-.1,0-.12c.24-.27,0-.59.09-.88a5.11,5.11,0,0,1,.18-.64.48.48,0,0,0,0-.29,4.78,4.78,0,0,1,.08-1s.13,0,.14,0a.49.49,0,0,1,.11.27c-.05.35-.12.69-.17,1a1.35,1.35,0,0,0,0,.29c0,.09.06.19,0,.26-.16.32,0,.72-.24,1,0,0,0,.14,0,.21s.06.11.09.11.16,0,.17-.07a4.33,4.33,0,0,1,.95-1.36,1.73,1.73,0,0,0,.43-.73,1,1,0,0,0,0-.54c0-.14.07-.27.23-.31s.08.05.08.07-.06.25-.07.38a.22.22,0,0,0,.07.17s.11,0,.15-.05a8.26,8.26,0,0,1,.76-.56A.61.61,0,0,0,24.4,23q0-.63,0-1.26a3,3,0,0,1,.08-.41.28.28,0,0,0,0-.18c-.17-.36.09-.73,0-1.09,0,0,.05-.08.08-.13a.87.87,0,0,1,.09.11c.11.15,0,.31,0,.46a6.74,6.74,0,0,0,0,.78c0,.29,0,.57,0,.85a1.09,1.09,0,0,1-.07.56c-.05.1,0,.34.14.46s.27,0,.39-.08a.56.56,0,0,0,.36-.59c0-.12.07-.24.08-.37s.1-.31,0-.51a1.13,1.13,0,0,1,.08-.67,2.41,2.41,0,0,0,.09-.64c0-.15.11-.3.12-.45s-.07-.33,0-.47.13-.24,0-.38,0-.12,0-.17A.94.94,0,0,1,26,18.6c.05.06.13.12.13.19a3.78,3.78,0,0,1-.06.76l-.1,0,.08.06a3.58,3.58,0,0,1-.1,1.49s-.08.08-.07.1c.24.5-.11,1,0,1.49,0,.2.16.17.24.13s.18-.19.34-.17.31,0,.36-.09a.81.81,0,0,0,.13-.55.92.92,0,0,1,0-.52,2.44,2.44,0,0,0-.05-.65,1.9,1.9,0,0,1,.07-1,.76.76,0,0,0,0-.11.43.43,0,0,1,.1.09s.05.09,0,.12c-.18.33.05.66,0,1s0,.69,0,1,.21.4,0,.6c0,0,.11.11.17.12s.21,0,.31,0a.23.23,0,0,0,.29-.22c0-.13.19-.24.05-.39a.3.3,0,0,0,0-.11L27.9,22c-.18-.11-.12-.32-.08-.43a2.28,2.28,0,0,0,.07-.86,17.19,17.19,0,0,1,.12-2,7.57,7.57,0,0,0,0-1.26c0-.16.09-.34,0-.5s0-.07,0-.11.11,0,.13.06a.71.71,0,0,1,.09.28c0,.34,0,.68-.05,1,0,.13.05.26.05.4s0,.43,0,.65.1.37,0,.54c.27.37-.17.79.06,1.2.1.17-.05.47-.06.71a3.92,3.92,0,0,1-.05.9.56.56,0,0,0,.22.44,2.93,2.93,0,0,1,.71,1,3.93,3.93,0,0,1,.23.71,6,6,0,0,1,.3,2.64c0,.31-.06.61-.07.91s0,.31.21.32.24-.16.24-.34,0-.56,0-.85-.05-.4.08-.59,0-.15,0-.22a13.07,13.07,0,0,1,0-1.77,2,2,0,0,1,.06-.83c.07-.17-.16-.37,0-.55a5.94,5.94,0,0,1-.09-1.63.7.7,0,0,1,0-.12s.11.06.12.1a.82.82,0,0,1,0,.31,1.34,1.34,0,0,0,.08.79c.1.17,0,.34,0,.51,0,.37.14.73,0,1.08A6,6,0,0,0,30.24,26c0,.23-.09.47.07.69,0,0,0,.1,0,.15a2.93,2.93,0,0,0,0,1.5c.05.12.06.06.13,0a1.61,1.61,0,0,1,.59-.18c.11,0,.22.17.33.26l.07.06.22.17a2.61,2.61,0,0,1-.06-.27,1.22,1.22,0,0,1,0-.27,4.1,4.1,0,0,0,0-.7,1.51,1.51,0,0,1,.06-.67,1.05,1.05,0,0,0,0-.3s-.05,0-.05-.06c0-.35.05-.71.09-1.06,0,0,.06,0,.1-.05a.1.1,0,0,1,.07,0,.27.27,0,0,1,0,.09c0,1.08.07,2.16.09,3.24,0,.08-.06.16-.06.24a2.26,2.26,0,0,0,.07.53,1.69,1.69,0,0,0,.27.47.61.61,0,0,0,.25.14.17.17,0,0,0,.06-.08,3.82,3.82,0,0,1,0-1.39,8.16,8.16,0,0,0,0-.86,5,5,0,0,0,0-.78,4.42,4.42,0,0,1,.14-.78c0-.21-.19-.43,0-.64-.2-.2.13-.41,0-.6s.06-.42,0-.64a2.51,2.51,0,0,1,0-.67c0-.17-.08-.34,0-.51s0-.08,0-.12a.69.69,0,0,0,.05.13,4.7,4.7,0,0,1,.09,1.4c-.17.12,0,.25,0,.37a9.42,9.42,0,0,0,0,1.5c.05.33-.11.6-.07.91a5.06,5.06,0,0,1-.06.76.81.81,0,0,0,.08.38c.1.24,0,.46,0,.69,0,.05-.07.1-.07.15s0,.35,0,.52,0,.38,0,.57,0,.17.08.18c.38.1.37.53.63.73,0,0,0,.09,0,.11a2.43,2.43,0,0,0,.28.2,1.31,1.31,0,0,1-.09-.28,2.32,2.32,0,0,1,0-.74,1.46,1.46,0,0,0,0-1,.33.33,0,0,1,0-.17,3.07,3.07,0,0,0,.07-.42c0-.17,0-.35,0-.52s0-.38,0-.57V27a.48.48,0,0,1,0-.14s.1.08.12.13a.53.53,0,0,1,0,.18c0,1.08,0,2.16.1,3.24a9.39,9.39,0,0,1,0,1.06c0,.4,0,.81,0,1.21a.77.77,0,0,1,0,.22s-.07.09-.12.13-.13-.09-.13-.14c0-.27,0-.54,0-.81a.34.34,0,0,0-.08-.19.2.2,0,0,0-.18.25,1.47,1.47,0,0,0,.1.53c.09.15,0,.23,0,.34,0,.35-.06.7-.09,1,0,.17-.06.34-.09.5L33,36.14v.08c0,.08,0,.15,0,.22s.19-.09.22-.16c.35-.74.68-1.48,1-2.23.13-.28.23-.56.35-.84a1.31,1.31,0,0,1,.09-.28c.12-.16.23-.28.1-.53s.1-.36.06-.53a6.71,6.71,0,0,1,0-.78,3.66,3.66,0,0,1,0-.81,22.8,22.8,0,0,0,.18-3.6c0-.45,0-.91.09-1.36a.31.31,0,0,1,0-.08s.06.05.06.08c0,.25.2.49,0,.74,0,0,0,.1,0,.16s.06.17,0,.24a20.06,20.06,0,0,0-.09,2.79c0,.22,0,.44,0,.65,0,.46-.15.91-.13,1.37,0,.26-.07.51,0,.77,0,0,0,.06.06.1s.1,0,.11-.09a9.65,9.65,0,0,0,.49-1.9,1.6,1.6,0,0,1,.07-.62c.06-.13.12-.17,0-.24a.23.23,0,0,1-.06-.15,1.62,1.62,0,0,1,0-.22,8.77,8.77,0,0,1,0-1.36c0-.58,0-1.15.07-1.72,0-.23.18-.46,0-.69,0,0,.13-.13.19-.19s.08.12.07.18c0,.31.1.65-.08.95,0,.05,0,.14,0,.21s0,.07,0,.11a2,2,0,0,0-.06.58c.05.19.12.35,0,.52s0,.09,0,.14a12.34,12.34,0,0,1,0,1.49.56.56,0,0,0,0,.12s.08-.05.09-.08a3.28,3.28,0,0,0,.22-.67,7.84,7.84,0,0,1,.34-1.17A1.9,1.9,0,0,0,36.7,26c-.06-.16,0-.37.06-.55s0-.12,0-.17a2.41,2.41,0,0,1,0-1.07c0-.06,0-.12,0-.18a3.41,3.41,0,0,1,.08-1,1.38,1.38,0,0,0,0-.54A5.32,5.32,0,0,1,37,20.88c-.17-.24,0-.48,0-.73l0-.12a.84.84,0,0,1,.06.14,4.26,4.26,0,0,1-.08,1.51.52.52,0,0,0,0,.21c0,.14.09.3.05.42a4.16,4.16,0,0,0-.08,1.22c0,.58-.06,1.15-.09,1.73,0,.08-.08.15-.09.23a.82.82,0,0,0,.06.19c.07,0,.18-.05.2-.1.15-.39.43-.71.55-1.12a1.55,1.55,0,0,0,.08-.36c0-.53,0-1.05,0-1.57a7.32,7.32,0,0,1,.16-1.32,1.06,1.06,0,0,0-.06-.78.33.33,0,0,1,0-.26c0-.06.13-.1.2-.15s.08.14.06.18a2,2,0,0,0,0,.78c0,.43-.17.85,0,1.28-.28.23-.06.46,0,.7,0,.06,0,.14,0,.21a3,3,0,0,0,0,.42c0,.07.08.13.13.2a.9.9,0,0,0,.2-.14s0-.1,0-.11c.65-.31.48-.94.6-1.46s0-1.18.1-1.75a15.37,15.37,0,0,0,.07-2,2.26,2.26,0,0,0-.08-1s0-.1.05-.15.1.05.12.09a1.17,1.17,0,0,1,.09.32c0,.32,0,.66,0,1s0,.61,0,.92,0,.65,0,1a4.58,4.58,0,0,0-.07.55c0,.19.19.42,0,.6s0,.4-.08.6a.29.29,0,0,0,0,.13c0,.11-.21.23,0,.33s.23-.08.34-.12.33-.35.62-.38.23-.22.16-.44a5.45,5.45,0,0,1-.12-.81,3.1,3.1,0,0,0,0-.75c-.08-.23.18-.47-.06-.66.21-.24,0-.52.07-.8s0-.53-.07-.8c0-.07.06-.13.1-.2s.16.12.16.18c0,.5,0,1,0,1.51,0,0-.07.08-.06.11.07.2.29.36.09.61s.2.4,0,.6c.29.32.14.72.18,1.09a.5.5,0,0,0,.09.23s.15.05.16,0,.24-.14.39-.15.32-.16.35-.37-.1-.7.08-1c-.23-.54.11-1.08,0-1.63a1.1,1.1,0,0,1,.06-.73c.06-.11,0-.28,0-.43s-.07-.2-.05-.29a6.65,6.65,0,0,0,0-1.18,2.61,2.61,0,0,0-.08-.46s.07-.08.11-.13a.67.67,0,0,1,.06.12c0,.19.07.37.09.55s0,.49.1.72-.09.36,0,.56a1.88,1.88,0,0,1,0,.58c0,.21,0,.42,0,.63a1.83,1.83,0,0,1-.07.69c-.06.15,0,.36,0,.55s0,.56,0,.84a3,3,0,0,1-.09.41,4.33,4.33,0,0,0-.08.5.67.67,0,0,0,.2.63,2.54,2.54,0,0,1,1,1.31.29.29,0,0,0,.18.18.15.15,0,0,0,.1,0,4.88,4.88,0,0,0-.07-1.66.79.79,0,0,1,0-.31c0-.15.12-.33.07-.45s.05-.25,0-.38a2.57,2.57,0,0,1-.08-.38c0-.5-.07-1-.1-1.5a1,1,0,0,1,0-.17c0,.05.12.1.14.16a3.82,3.82,0,0,1,.09.59,10.72,10.72,0,0,0,.17,1.78,2.24,2.24,0,0,1,0,.45c0,.19-.06.4.08.59s0,.18,0,.27a.88.88,0,0,0,0,.64.31.31,0,0,1,0,.25.77.77,0,0,0-.07.63.76.76,0,0,1-.11.49c-.08.18,0,.45.06.68a3.88,3.88,0,0,1,.14.66,2.75,2.75,0,0,0,.26,1.38c.1.19,0,.44.1.67.17.39.3.49.69.36a1.82,1.82,0,0,0,1.12-.95c.07-.16.07-.15-.12-.25,0,0-.08-.11-.06-.14a1.08,1.08,0,0,0-.13-1,1.16,1.16,0,0,1-.05-.53c0-.2.14-.44.06-.58s0-.34,0-.52-.1-.29,0-.4a.32.32,0,0,0,0-.35.46.46,0,0,1,0-.35c0-.08.1-.21.16-.22s.09.15.1.23a1.45,1.45,0,0,1,.07.67,1.57,1.57,0,0,0-.06.6c0,.4.09.8.14,1.2a1.13,1.13,0,0,1,0,.18.63.63,0,0,0,0,.5,1.29,1.29,0,0,1,.1.45,1.76,1.76,0,0,0,.09.2c.06-.05.15-.1.18-.17.13-.29.24-.59.38-.87a14.05,14.05,0,0,0,.63-1.63,11,11,0,0,0,.33-1.12,1.3,1.3,0,0,1,.17-.38c.14-.28.06-.64.29-.91v0c-.32-.28-.09-.67-.22-1a.91.91,0,0,1,.08-1l0-.06c-.36-.22,0-.5-.06-.75-.06-.61-.07-1.21-.1-1.82a1.22,1.22,0,0,1,0-.27s.06-.06.09-.06.08,0,.08.06,0,.18,0,.27c0,.7.05,1.39.09,2.09,0,.29.16.62.06.85-.16.4.14.74,0,1.1,0,.05.07.12.11.18a.52.52,0,0,0,.06-.16c.07-.41.12-.82.19-1.23,0-.15,0-.35.11-.44.29-.27.24-.6.24-.93,0-.5,0-1,0-1.48a2.74,2.74,0,0,0-.1-1.24c-.06-.14,0-.23,0-.38a11.13,11.13,0,0,1-.11-1.53s0-.08.07-.13.1.08.1.1.3.37-.07.47v0c.27.42,0,.91.17,1.34s0,.87.17,1.27c0,.05,0,.14,0,.21S49,17.9,49,18A5.67,5.67,0,0,1,49,19c0,.24.06.26.28.12a.22.22,0,0,1,.16,0,5.36,5.36,0,0,1,.71.23c.14.06.21.06.19-.1s.09-.5-.08-.74c0,0-.14-.28.12-.31a.56.56,0,0,0,0-.34,1.26,1.26,0,0,1-.12-.66,2.46,2.46,0,0,0-.07-.6c0-.14.15-.33,0-.5.17-.19,0-.37,0-.56s0-.42,0-.62-.06-.28-.08-.42,0-.1.06-.14.09,0,.1.05a.62.62,0,0,1,.09.32,4.15,4.15,0,0,0,.18,1.56c0,.05,0,.12-.08.18s-.1.07,0,.16a.66.66,0,0,1,.11.36,1.85,1.85,0,0,0,.1.87.54.54,0,0,1,0,.18c0,.49,0,1,.09,1.46a1,1,0,0,0,.71.6c.06,0,.16-.08.16-.12,0-.22.16-.25.31-.33.3-.16.36-.49.52-.75a5.45,5.45,0,0,0,.66-2c.05-.37,0-.74.05-1.1,0-.11-.06-.24-.1-.36s-.07-.08-.06-.1c.14-.3-.06-.59,0-.89a1.24,1.24,0,0,0-.07-.5c-.08-.32,0-.63-.06-1s0-.8-.1-1.21-.12-.82-.2-1.22c0,0,0-.12.07-.18s.09.09.1.15c.07.32.14.63.18.95.07.67.08,1.34.19,2a7.74,7.74,0,0,1,.17,1.59s0,.1,0,.13a1.35,1.35,0,0,0,.16.19c.07-.08.05-.18.07-.25.09-.28,0-.57.1-.86a1.65,1.65,0,0,0-.08-.9,4.24,4.24,0,0,1-.08-1.18,4.87,4.87,0,0,0-.17-1c-.12-.45-.2-.91-.28-1.37,0-.25,0-.51-.09-.77a4.8,4.8,0,0,0-.18-.77c-.12-.31-.32-.59-.43-.9a1.77,1.77,0,0,0-.36-.53c-.25-.31-.49-.63-.73-.95a1.92,1.92,0,0,0-.84-.73A.73.73,0,0,1,50,5c-.18-.19-.16-.3.06-.45s.32-.28.56-.27.28,0,.32.21a.73.73,0,0,0,.32.46A3.59,3.59,0,0,1,52,5.8,9.64,9.64,0,0,1,53.1,7.41a12.43,12.43,0,0,1,.53,1.44,2.16,2.16,0,0,1,.1.72,8.44,8.44,0,0,0,.28,1.5,7.47,7.47,0,0,1,.18,1.63,2.39,2.39,0,0,0,.18,1.18.27.27,0,0,1,0,.09c-.08.53-.07,1.06-.18,1.59a11.19,11.19,0,0,0-.37,2,2.29,2.29,0,0,1-.19.82,6.65,6.65,0,0,1-1.16,1.9,1.57,1.57,0,0,1-.76.56c-.16,0-.36.12-.49.07a6.23,6.23,0,0,1-.91-.51c-.19-.11-.35-.24-.53-.34s-.28,0-.35.13a3.17,3.17,0,0,0-.28,1.33,3.45,3.45,0,0,1-.18,1c0,.14-.17.26-.26.39a5.24,5.24,0,0,0-.53,1.43,10.34,10.34,0,0,0-.38,1.28,4.65,4.65,0,0,1-.45,1.08A3.56,3.56,0,0,1,46.62,28s-.11.08-.13.13-.07.33-.17.41a9.55,9.55,0,0,1-1.27.83,1.77,1.77,0,0,1-1.09.15.61.61,0,0,1-.41-.28,3.21,3.21,0,0,1-.5-1.32,4.88,4.88,0,0,0-.21-.9.65.65,0,0,1-.05-.2,8.29,8.29,0,0,0-.54-2.74,3.49,3.49,0,0,0-.37-.78,3,3,0,0,0-.52-.4c-.2-.16-.37-.08-.58,0s-.43.13-.5-.17a.18.18,0,0,0-.05-.07s0,.05,0,.07c.1.39-.2.47-.45.61a1.86,1.86,0,0,0-.53.44,5.07,5.07,0,0,0-.88,1.2,13,13,0,0,0-.77,1.84c-.11.38-.2.78-.31,1.16a16.41,16.41,0,0,0-.48,1.83,5.74,5.74,0,0,1-.43,1.39c-.15.32-.25.67-.37,1,0,0,0,.08,0,.09-.38.34-.42.85-.61,1.28a7.7,7.7,0,0,1-.53,1,6.65,6.65,0,0,0-.44,1c-.18.46-.48.84-.67,1.29s-.47.45-.78.6a.46.46,0,0,0-.16-.06l0,.06.16,0M51.5,5.44h-.09a.15.15,0,0,1,.09.09h.08a.17.17,0,0,1-.08-.1M17.89,4.77V4.69a.31.31,0,0,1-.1.08v.08a.22.22,0,0,1,.1-.08M52.39,7h-.08a.17.17,0,0,1,.08.1h.09A.15.15,0,0,1,52.39,7M1.07,24.65H1a.19.19,0,0,1,.09.09h.08a.15.15,0,0,1-.08-.09M25.88,2V1.9a.15.15,0,0,1-.09.09v.08a.22.22,0,0,1,.1-.08m7,33.69h.08a.31.31,0,0,1-.08-.1.48.48,0,0,0,0-.12.26.26,0,0,0,0-.09s0,0,0,.07a1.1,1.1,0,0,1,.09.23M17.4,5.26h.08a.17.17,0,0,1-.08-.1l-.06-.12-.11.12a.31.31,0,0,1,.17.09M12.24,7.91h.12s.06,0,.09,0l-.06,0a1.54,1.54,0,0,1-.24.09V8a.31.31,0,0,1,.1-.08M5.82,14.24l0-.12-.06,0a.71.71,0,0,1,.08.19h.26l-.22-.05s0,0,0,0m17-11.31h.08a.31.31,0,0,1-.08-.1V2.76l-.23.05s0,0,0,0l.16,0a.15.15,0,0,1,.08.05m-3.54,1.3a.56.56,0,0,0-.13,0,1.39,1.39,0,0,0-.19.06s0,.08,0,.08a.62.62,0,0,0,.23,0c.05,0,.08-.1.17-.16V4.15s0,0-.09.08m34.32,6.42v.08l0,.14s.12-.06.11-.08,0-.12-.08-.23l-.09-.5a1.42,1.42,0,0,0-.08-.18,1.86,1.86,0,0,0-.1.2.46.46,0,0,0,0,.26c.05.11.05.3.26.31m-.45-2.16-.21-.22-.06.06.23.21s0,0,0,0c-.1.25.07.65.28.67,0,0,0,0,.07,0-.17-.11,0-.22,0-.33s-.08,0-.1,0-.16,0-.17-.12-.06-.13-.09-.25M28.79,25.09l.18.73,0,.12a.24.24,0,0,0,0-.1,6.72,6.72,0,0,0-.27-1.54s0,0-.05-.05,0,.05,0,.08c0,.22.05.45.08.76m.27,3.32s0-.58,0-.61,0-.1,0-.15-.11,0-.11,0A3,3,0,0,0,29,28.77l.06,0a.21.21,0,0,0,0-.07c0-.08,0-.15,0-.32M5.91,16.3l.09.23.07.06s.1-.1.09-.12c-.12-.2-.06-.43-.1-.64A.66.66,0,0,0,6,15.64a1.15,1.15,0,0,0-.06.17v.49m42.85,5c0-.19.1-.38,0-.58s0-.2-.06-.31c0,.12,0,.23,0,.34a2.67,2.67,0,0,0,0,.49.65.65,0,0,0,.11.22.2.2,0,0,0,0-.16M52.62,7.82l.18.09,0-.13c0-.13-.06-.26-.1-.4a.41.41,0,0,0,0-.09s-.09.07-.09.09a1.31,1.31,0,0,0,.1.44M42.75,24.69a2.17,2.17,0,0,0,0,.25c0,.12.1.25.14.37a1.69,1.69,0,0,0,0-.38,1.17,1.17,0,0,0-.12-.31s-.1,0-.1.07M20.27,3.83l.36-.14c-.14-.24-.26,0-.4,0s-.07,0-.08,0L20,3.84a.59.59,0,0,0,.26,0M7.12,31.51c-.14.22.09.35.14.53a.41.41,0,0,0,0,.09s0-.09,0-.12a2.84,2.84,0,0,0-.22-.5m0-1.62.09-.09L7,29.64l-.14-.1c0,.06,0,.13,0,.17a.47.47,0,0,0,.26.18m0,.68,0-.3-.06.3a.27.27,0,0,0,0,.09l0,.39c0-.13,0-.26.06-.48M19,29.31l0,.21c.05,0,.14-.08.15-.12a2,2,0,0,0,0-.35s0,0-.06,0,0,0,0,.07a.67.67,0,0,0-.09.23M11.39,8.67h.17c-.14-.11-.08-.19,0-.28a.24.24,0,0,0,.05-.1c-.05,0-.13,0-.14,0a1,1,0,0,0-.1.36m42.48,5.52h-.08c0,.12,0,.24,0,.35h.08a.84.84,0,0,0,0-.36m-.49,1.75c-.07.2.13.21.21.3l.06,0L53.49,16s0,0-.11,0M5.46,27.52l.06.12c0-.07.11-.14.11-.21s-.07-.14-.11-.21a1.69,1.69,0,0,0-.06.3m23.83,0a1.17,1.17,0,0,0-.12.31c0,.06.06.14.1.21a1,1,0,0,0,.06-.16,1,1,0,0,0,0-.36m-6.51-2.47c-.06,0-.15,0-.17,0a.59.59,0,0,0-.07.2,1.27,1.27,0,0,0,.18-.06s0,0,.06-.15m31-13-.06.21c.08,0,.22,0,.22,0s.09-.24-.16-.19M4.07,27.47l.18-.09.12,0-.12-.06H4a.17.17,0,0,0,.08.17m15.21.94-.05-.48a1.45,1.45,0,0,0,.05.48M50.78,5.08s-.19.1,0,.13.17-.09.26-.14a.54.54,0,0,0-.25,0M18.52,4.5l0-.15-.25.19.11.12a.64.64,0,0,1,.11-.16m24.54,21c-.08-.06-.16-.09-.17.05s0,.12.06.18a.53.53,0,0,0,.11-.23M8.83,10.24l.16.25.06-.06c-.05-.08-.05-.21-.22-.19M27,23.07l.05-.11A.4.4,0,0,0,27,23a.76.76,0,0,0-.09.18s0,.08,0,.11l.15-.18M5.91,27.52l.17.13s0,0,.07,0,0-.05,0-.06l-.27-.19a.26.26,0,0,0,0,.14M14.3,6.92l0,0s0,0,0,0a1.77,1.77,0,0,0-.23,0s0,.07,0,.11a.42.42,0,0,0,.22,0M6.67,28.37c.11-.14,0-.24-.06-.34l-.07,0a2.15,2.15,0,0,0,.13.32M14.93,6.29l0,0v0a.38.38,0,0,0,.2,0c.05,0,.07-.12.1-.17a1,1,0,0,1-.27.08m36.16-.71a.41.41,0,0,0,.07.15.17.17,0,0,0,.14,0c.05-.11,0-.16-.21-.14M10,9.57H9.77l0,.21A.42.42,0,0,0,10,9.57m9.15,18a.47.47,0,0,0,0,.17.26.26,0,0,0,.05.12s.08-.1.08-.15a.16.16,0,0,0-.14-.14M8.33,10.74s0,0,0,0a.84.84,0,0,1-.05.17c.05,0,.13,0,.14-.09s.24-.18-.09-.12m8.48,16.1c.17,0,.14-.09.14-.18a.15.15,0,0,0,0-.07.93.93,0,0,0-.15.13s0,.05,0,.12m-16-1.7L1,25,.9,25a.23.23,0,0,0-.06.18M53.34,9.7c0-.09,0-.18,0-.28s0,0,0-.07a.93.93,0,0,0-.05.1.52.52,0,0,0,.05.25M7.62,11.63s0-.09,0-.11a.54.54,0,0,0-.12-.09.68.68,0,0,0,0,.15s.06.07.14.05m42.08,7.9s0,.1,0,.12a.45.45,0,0,0,.14.1.56.56,0,0,0,0-.12c0-.05,0-.1-.1-.1M24.08,24,24,24l.18.15s.05,0,.07,0L24.08,24M29,27.47c0-.09,0-.19,0-.28a.21.21,0,0,0,0-.07s-.05.06-.05.09a.44.44,0,0,0,0,.26m-1.39-4.35.15,0a1.72,1.72,0,0,0-.07-.21s-.06,0-.08,0,0,.05,0,.17M4.12,27,4,26.84l-.07.08a.23.23,0,0,0,.18.06m39,0c.05-.05.13-.09,0-.16l-.06-.06a.88.88,0,0,0,0,.15s0,.07.09.07M11.61,35.46a.3.3,0,0,0,0,.11.83.83,0,0,0,0,.15l.07-.06c.1-.07,0-.11-.07-.2m12.92-33,.12-.15-.21.06s0,.06.09.09m-17.32,24,.12,0-.14-.13a.22.22,0,0,0,0,.15M5.91,15.31l0,.12L6,15.36s.09-.19-.09,0m.54-2.42h.18c-.06,0-.12-.06-.18,0m.27-.72H6.55l0,.14.13-.14m-.9,5.12L6,17.2a.18.18,0,0,0-.18.09m47.92-5.75,0-.11-.13.13a.19.19,0,0,0,.16,0M7.89,39.36a.27.27,0,0,0,0,.09,1.12,1.12,0,0,0,.05.13s0-.08,0-.11a.1.1,0,0,0-.08-.11m14.4-36.3.12,0L22.34,3c-.05,0-.2-.1-.05.08M10.4,9.12a.64.64,0,0,0,.1.13l.07,0a.25.25,0,0,0-.17-.1m.54-.45.1.14.06,0a.26.26,0,0,0-.16-.1M6.9,29l0,0h0l0,.21s0,0,.06,0a1.06,1.06,0,0,0,0-.21M15.74,6.21V6l-.14,0,.14.14M28.39,23.79c0-.06,0-.13,0-.19a.21.21,0,0,0,0-.07s0,.06,0,.09a.21.21,0,0,0,0,.17m19.52-.13v-.09l-.06-.13a.61.61,0,0,0,0,.11.11.11,0,0,0,.09.11M31.49,29.85s0,.06,0,.08a.78.78,0,0,0,.05.14.61.61,0,0,0,0-.11c0-.06,0-.11-.08-.11M26.37,23l0,.12s.05,0,.06-.08,0-.09-.09,0M7.71,42.14l0-.11h0c0,.05,0,.1.08.1M53.65,11.81l.14,0,0-.06a.25.25,0,0,0-.16,0M28.26,23.39l.08-.05s-.06,0-.08.05M11.65,35.23l0-.11-.05,0s0,.09.07.09m2.61-2.15,0,.11h.06s0-.1-.08-.1m20.81-.18L35,33s.06,0,.09-.05M24.85,23.48l0,.11h.05s0-.1-.07-.1m.26,0,0,.11h.05s0-.1-.08-.1m-5.38,6.19,0-.11h-.06c0,.05,0,.1.08.1m29.48-9.29,0-.14-.05,0a.19.19,0,0,0,0,.16m1.39-.22.14,0,0-.05a.19.19,0,0,0-.16,0M28.52,24l0-.12-.06,0s0,.09.08.1M14.8,6.61l.09-.05s-.06,0-.09.05m5.83,22,0,.12.06,0c0-.05,0-.09-.08-.1M16,28.5l0-.11-.06,0s0,.09.08.09M13.9,7.06l-.14,0,0,.06a.25.25,0,0,0,.16,0M43.11,24.24l.11,0,0-.06s-.09,0-.09.08M53.69,11l0,.14.06,0a.27.27,0,0,0,0-.16M5.82,13.7l0,.11H5.9c0-.05,0-.1-.08-.1m.09,1.16,0-.11-.06,0s0,.09.08.09m37.24,11.4-.14,0,0,.05a.19.19,0,0,0,.16,0M.26,26.08l.14,0,0-.06a.19.19,0,0,0-.16,0m23-1.17,0,.12.06,0c0-.05,0-.09-.08-.1M5.87,17.51l0,.06s0,0,0-.06M21.08,3.56l.05,0s0,0-.05,0M19.82,4l-.05,0s0,0,.05,0M17.53,26.39l0,.06s.05,0,0-.06M29.51,1l.06,0s0-.05-.06,0M53.78,15.09l0-.06s0,0,0,.06M22,3.11l0,0s0,.06,0,0M5.78,14.55l0-.05s0,0,0,.05m17.9-12,.05,0s0-.06-.05,0M7.93,11.32l0-.05s-.06,0,0,.05M4.84,19.8l0,0s0-.06,0,0M53.07,9.7l0,0s-.05,0,0,0M43.2,27.56l0,0s0,0,0,0M11.83,8.31l-.05,0s0,.05.05,0M21.26,27.7l0,0s0-.05,0,0m3-25.22-.06,0s0,0,.06,0M42.52,24l.06,0s0-.05-.06,0M20.85,28.28l0-.05s-.06,0,0,.05M52.21,20l.06,0s0-.05-.06,0M15.92,28.64l0,.05s0,0,0-.05M30.5,29l-.06,0s0,0,.06,0M1.34,24l0,0s0-.05,0,0m42.71,5.11.05,0s0-.06-.05,0M1.69,23.66l.06,0s0-.05-.06,0M51.45,5.94l0-.06s-.06,0,0,.06M32.92,32.36l-.05,0s0,.05.05,0m-24.76.45.05,0s0-.06-.05,0m32.7-10.63,0,.05s.05,0,0-.05M32.74,34.61l-.05,0s0,0,.05,0M4,21l0,0s0-.05,0,0m4.89,14.4,0-.06s0,0,0,.06M50.33,4.81l.05,0s0,0-.05,0M32.11,37.12l0,0s0,.06,0,0m-.36,1.07-.05,0s0,.05.05,0M41.89,22.76l.06,0s0-.06-.06,0M18.16,4.68l0,.05S18.18,4.73,18.16,4.68ZM46.38,22.45c0-.23-.07-.42.08-.6s0-.2,0-.31,0-.47,0-.71a1.27,1.27,0,0,1,0-.43,2.81,2.81,0,0,0,0-1.29c0-.05,0-.11,0-.17s.14-.4.07-.54.05-.37,0-.46c-.17-.33.05-.66-.06-1,0-.11.06-.27.06-.4a2.38,2.38,0,0,0-.06-.37s.05-.08.08-.11.08.07.09.12,0,.2,0,.31a3.19,3.19,0,0,0,0,1c.11.29-.11.56,0,.84.07.12,0,.33-.07.5a5.23,5.23,0,0,0-.07.68c0,.21.06.42.06.63a3.4,3.4,0,0,1-.07.46.49.49,0,0,0,0,.24,1.2,1.2,0,0,1,.06.91,5.13,5.13,0,0,0-.11,1c0,.06.06.12.08.19a1.42,1.42,0,0,1,.08.41,5.58,5.58,0,0,1-.09.81c0,.08-.08.14-.13.21l-.15-.15c-.1-.1-.21-.19-.16-.34a1.59,1.59,0,0,1,.13-.22c0,.06,0,.13.05.19l0,.07,0-.06a2.47,2.47,0,0,0-.09-.41A1.19,1.19,0,0,1,46.38,22.45ZM9.77,27.38a6.24,6.24,0,0,0-.27,1.5,2.73,2.73,0,0,1-.1.81,2.56,2.56,0,0,0-.08.77,1.57,1.57,0,0,1-.14.88.21.21,0,0,0,0,.17c.16.42-.17.81-.1,1.23,0,0,0,.08,0,.11s-.13,0-.15-.06-.1-.22-.07-.28c.18-.3,0-.66.17-1-.08-.44.17-.84.18-1.26A4.92,4.92,0,0,1,9.31,29a6.7,6.7,0,0,0,.1-.9c.05-.34.12-.67.18-1s.14-.58.18-.87.06-.81.09-1.22a.49.49,0,0,1,0-.17.75.75,0,0,1,.14-.17,1.24,1.24,0,0,1,0,.16,6.66,6.66,0,0,1-.18,1.72C9.81,26.82,9.8,27.08,9.77,27.38ZM44.41,22.2s.08.05.08.09c0,.21,0,.42,0,.63,0,.42.07.84.08,1.27,0,.15-.08.3-.07.45a3.71,3.71,0,0,0,.11.58c0,.08.07.17.05.24-.12.62.08,1.24,0,1.86a.45.45,0,0,0,0,.25c.15.27-.06.46-.15.66,0,0-.14,0-.2.05s0-.12,0-.15c.17-.22.05-.43,0-.65s-.26-.35.06-.48c0,0,0,0,0,0s0-.29-.1-.35.2-.18.06-.33a.72.72,0,0,1-.1-.36,2,2,0,0,0,0-.26c-.05-.17.08-.33,0-.51s0-.37,0-.53.12-.41,0-.66a2.1,2.1,0,0,1,0-.71c0-.24,0-.48,0-.72S44.38,22.33,44.41,22.2Zm-36.52,6A3,3,0,0,0,8,27.64c0-.26.17-.51,0-.78,0,0,0-.15.09-.22a.12.12,0,0,1,.1-.06.11.11,0,0,1,.07.08c0,.27,0,.55-.05.83s0,.47,0,.71c0,.67,0,1.33-.11,2a5.2,5.2,0,0,0,0,.69,1.22,1.22,0,0,0,.08.73s0,.12,0,.18,0,.08-.07.08a.1.1,0,0,1-.1-.05,3.25,3.25,0,0,1-.18-.68c0-.55,0-1.11,0-1.66a1.32,1.32,0,0,1,.08-.33A5,5,0,0,0,7.89,28.19Zm15.16-6.82c0-.21.06-.38.09-.55a11.39,11.39,0,0,0,.09-2s.06-.08.09-.12.08.07.09.11a6.36,6.36,0,0,1,0,1.07c0,.12,0,.19,0,.29-.05.5-.11,1-.15,1.51,0,.11.06.23.06.35,0,.38-.05.76-.1,1.13,0,.1-.12.18-.19.27s-.05,0-.06,0-.07-.08-.06-.12c0-.28.22-.55.05-.85a.11.11,0,0,1,0-.08C23.19,22.05,23,21.72,23.05,21.37ZM18.47,24a3.33,3.33,0,0,0,.19-1,.41.41,0,0,1,0-.22,1.52,1.52,0,0,0,.11-.76c0-.24.16-.49,0-.72v0c0-.13.05-.27.08-.4.2.08.08.25.1.37a4.69,4.69,0,0,1,.09.64,4.56,4.56,0,0,1-.16,1.27,3.74,3.74,0,0,0-.1.81,1.08,1.08,0,0,1-.18.74s.06.15.06.23a1.3,1.3,0,0,1,0,.34s-.06.06-.09.08a.1.1,0,0,1,0-.07,6.48,6.48,0,0,1-.09-.77A3.91,3.91,0,0,1,18.47,24Zm33-6.08c0-.25,0-.48,0-.72s0-.48-.06-.73a.64.64,0,0,1,.06-.18c.07.06.19.12.19.18a1.36,1.36,0,0,1,0,.41c0,.14-.09.23,0,.34a.14.14,0,0,1,0,.09c-.16.38.06.75,0,1.14a3.78,3.78,0,0,0,.08.94c0,.18-.09.21-.2.27s-.17.05-.16-.08c0-.3-.09-.61.07-.91a.2.2,0,0,0,0-.2C51.3,18.25,51.48,18.09,51.47,17.89Zm-7.06,4.27a.24.24,0,0,1-.17-.37,1,1,0,0,0,0-.74c-.06-.17,0-.39,0-.59,0-.76,0-1.52,0-2.28a.53.53,0,0,1,0-.12s.11.06.12.11a.53.53,0,0,1,0,.25c0,.19-.06.37-.06.55a2.87,2.87,0,0,0,.07.5c0,.13.06.27.07.41a.76.76,0,0,1,0,.3c0,.07-.07.14-.06.19A4.32,4.32,0,0,1,44.41,22.16ZM29.24,24a1,1,0,0,1-.17-.37,7.59,7.59,0,0,1,0-1.43,10.42,10.42,0,0,0,.07-1.36.94.94,0,0,1,.06-.15l.06-.07s.06.06.06.09c0,.57,0,1.15-.07,1.72a.4.4,0,0,0,0,.15c0,.06.05.12,0,.16a3.09,3.09,0,0,0,0,1A1.42,1.42,0,0,1,29.24,24Zm22.08-9.58c0-.42-.07-.8-.09-1.17,0-.06.05-.12.07-.18s.1.1.1.15a7,7,0,0,0,.11,1,9.86,9.86,0,0,1,.07,1.8s0,.1,0,.15L51.47,16a1.91,1.91,0,0,1-.06-.33c0-.35,0-.69,0-1A1.56,1.56,0,0,0,51.32,14.37ZM3.42,26.82c-.12-.37-.3-.7-.13-1.08,0-.12.09-.2.2-.15s.18.16.17.21a.94.94,0,0,0,0,.7C3.68,26.56,3.52,26.73,3.42,26.82Zm43.16-1.93c-.2.07.27.22,0,.25a.25.25,0,0,0,0,.12l.08.12c-.07,0-.17.05-.2,0a.66.66,0,0,1-.14-.26c0-.19.07-.4-.08-.59s.06-.15.15-.13S46.63,24.62,46.58,24.89Zm-2.26-8c0,.33-.07.63.08.9,0,0,0,.12-.06.18s-.1-.08-.11-.13c0-.34-.07-.69-.09-1a.61.61,0,0,1,0-.18A2.09,2.09,0,0,1,44.32,16.88ZM5,25.16a.06.06,0,0,1,0,.06A0,0,0,0,1,5,25.16Zm2.64,3.1s0,0,0-.06A0,0,0,0,1,7.68,28.26ZM29.24,24a.32.32,0,0,1,.09,0A.11.11,0,0,1,29.24,24Z"/></g></g></svg>