<svg xmlns="http://www.w3.org/2000/svg" viewBox="0 0 64.78 36.56"><defs><style>.cls-1{fill:#fff;}.cls-2{fill:#e6e6e6;}</style></defs><title>cartoon-cloud-small</title><g id="Layer_2" data-name="Layer 2"><g id="cartoon-cloud-small"><path id="void" class="cls-1" d="M64.75,24.74a13.28,13.28,0,0,0-.11-1.53,2.55,2.55,0,0,0-.16-.83,5.08,5.08,0,0,1-.2-.74,10.33,10.33,0,0,0-.26-1,5.79,5.79,0,0,0-.76-1.4c-.28-.33-.49-.73-.79-1.05s-.37-.35-.55-.53a14.55,14.55,0,0,0-1.3-1.05,3.13,3.13,0,0,0-.6-.37,21.49,21.49,0,0,0-2.21-.93c-.22-.07-.48,0-.63-.15-.36-.3-.81-.13-1.21-.27a2.13,2.13,0,0,0-1,0,7.43,7.43,0,0,0-1,.27c-.17.05-.23,0-.26-.14a1.39,1.39,0,0,1,0-.41c.09-.73-.31-1.43-.15-2.17,0,0,0,0,0-.06,0-.28-.13-.53-.11-.82a5.15,5.15,0,0,0-.12-.84c0-.22-.11-.14-.21-.06a.58.58,0,0,0-.1.12c0-.07,0-.17,0-.21s.18-.17.15-.29c-.08-.29-.18-.58-.28-.87s-.14-.27-.17-.41a4.82,4.82,0,0,0-.51-1.34l-.27-.46A10.27,10.27,0,0,0,50.7,5.29c-.31-.34-.63-.69-1-1-.14-.14-.3-.26-.45-.39a11.66,11.66,0,0,0-1.47-1,13.11,13.11,0,0,0-1.88-1l-1.2-.47c-.61-.24-1.24-.44-1.84-.71a4.62,4.62,0,0,0-1.3-.38C40.83.21,40,.13,39.25,0a2.64,2.64,0,0,0-.84,0,12.86,12.86,0,0,1-1.74.19,1.93,1.93,0,0,0-.73.11,5.63,5.63,0,0,1-1.6.41,5.23,5.23,0,0,0-1,.21c-.4.12-.78.3-1.17.45a2.86,2.86,0,0,0-.89.49,24.13,24.13,0,0,0-2,1.67c-.36.35-.69.74-1,1.12s-.66.86-1,1.29-.62.91-.91,1.38a6.09,6.09,0,0,1-.74,1.15.41.41,0,0,1-.44.11c-.16,0-.31-.11-.47-.13-1.09-.14-2.18-.27-3.28-.39a2.62,2.62,0,0,0-.56,0,7,7,0,0,0-.92.13,6.26,6.26,0,0,0-1.3.37,9.77,9.77,0,0,1-1.38.67,2.65,2.65,0,0,0-.54.25,9.87,9.87,0,0,0-.88.54c-.51.37-1,.74-1.52,1.16a7.93,7.93,0,0,0-.93,1.07,4,4,0,0,0-.85,1.3,3.42,3.42,0,0,0-.27.84c0,.28,0,.55-.05.82a15,15,0,0,0-.08,2.12,9.73,9.73,0,0,0,.1,1.43c0,.27-.06.18-.18.17a3.5,3.5,0,0,0-1.25,0,3.57,3.57,0,0,1-1.42,0,2.46,2.46,0,0,0-.26,0,11.56,11.56,0,0,0-1.73.36,7.36,7.36,0,0,0-1,.25c-.49.18-1,.38-1.43.6a5.4,5.4,0,0,0-1.52.85c-.37.37-.77.71-1.11,1.1a11,11,0,0,0-1.5,2.32A12.83,12.83,0,0,0,.33,25.8a4.54,4.54,0,0,0-.28,1A4.21,4.21,0,0,0,.11,28.4a2.17,2.17,0,0,1,.08.51,4.42,4.42,0,0,0,.43,1.82c.08.16.24.29.32.45a5.33,5.33,0,0,0,1.18,1.68,12.27,12.27,0,0,0,1.11.94,11.23,11.23,0,0,0,3.51,1.49,2.12,2.12,0,0,0,.54.13,4.43,4.43,0,0,1,.89.12,11.1,11.1,0,0,0,1.29,0,8.28,8.28,0,0,0,1.93-.22,7.94,7.94,0,0,0,1.95-.63c.76-.35,1.54-.61,2.29-1a15.09,15.09,0,0,0,2.55-1.58,19.73,19.73,0,0,0,1.63-1.55c.25-.19.25-.19.42,0s.45.62.71.9a9,9,0,0,0,1.11,1c.56.42,1.16.78,1.75,1.15.36.23.74.43,1.11.65.6.34,1.25.57,1.87.86s1,.39,1.48.59a8.13,8.13,0,0,0,2.33.58l.22.06a2,2,0,0,0,.75.12,6.37,6.37,0,0,1,1.69,0,7.89,7.89,0,0,0,2.06-.14c.49-.11,1-.25,1.45-.4.66-.21,1.38-.23,2.06-.41.18-.05.39,0,.56,0,.37-.15.76-.2,1.13-.33a7.33,7.33,0,0,0,1.59-.72c.31-.21.66-.37,1-.57a12.44,12.44,0,0,0,1.4-1c.43-.38.79-.85,1.18-1.27.17-.19.25-.18.44,0a8.41,8.41,0,0,0,1.1,1c.29.19.61.33.89.51a10.27,10.27,0,0,0,1.84.78,9.13,9.13,0,0,0,1.68.38c.17,0,.33,0,.32.28a.3.3,0,0,0,.32.28c.16,0,.28,0,.3-.2a.14.14,0,0,1,.11-.07h.8l1.24.07s.11,0,.15,0c.26-.18.6,0,.87-.17,0,0,.09,0,.13,0a.4.4,0,0,0,.53-.06.4.4,0,0,1,.2-.08c.5-.11,1-.32,1.48-.42a6.16,6.16,0,0,0,2-.83,8,8,0,0,0,2-1.74,15.37,15.37,0,0,0,1-1.3c.34-.52.61-1.08.91-1.63a3.85,3.85,0,0,0,.48-1.24,3.41,3.41,0,0,0,.22-1.08A2.42,2.42,0,0,0,64.75,24.74Z"/><path id="fill2" class="cls-2" d="M64.75,24.74a13.28,13.28,0,0,0-.11-1.53,2.55,2.55,0,0,0-.16-.83,5.08,5.08,0,0,1-.2-.74,10.33,10.33,0,0,0-.26-1,5.79,5.79,0,0,0-.76-1.4c-.28-.33-.49-.73-.79-1.05s-.37-.35-.55-.53a14.55,14.55,0,0,0-1.3-1.05,3.13,3.13,0,0,0-.6-.37,21.49,21.49,0,0,0-2.21-.93c-.22-.07-.48,0-.63-.15-.36-.3-.81-.13-1.21-.27a2.13,2.13,0,0,0-1,0,7.43,7.43,0,0,0-1,.27c-.17.05-.23,0-.26-.14a1.39,1.39,0,0,1,0-.41c.09-.73-.31-1.43-.15-2.17,0,0,0,0,0-.06,0-.28-.13-.53-.11-.82a5.15,5.15,0,0,0-.12-.84c0-.22-.11-.14-.21-.06a.58.58,0,0,0-.1.12c0-.07,0-.17,0-.21s.18-.17.15-.29c-.08-.29-.18-.58-.28-.87s-.14-.27-.17-.41a4.82,4.82,0,0,0-.51-1.34l-.27-.46A10.27,10.27,0,0,0,50.7,5.29c-.31-.34-.63-.69-1-1-.14-.14-.3-.26-.45-.39a11.66,11.66,0,0,0-1.47-1,13.11,13.11,0,0,0-1.88-1l-1.2-.47c-.61-.24-1.24-.44-1.84-.71a4.62,4.62,0,0,0-1.3-.38C40.83.21,40,.13,39.25,0a2.64,2.64,0,0,0-.84,0,12.86,12.86,0,0,1-1.74.19,1.93,1.93,0,0,0-.73.11,5.63,5.63,0,0,1-1.6.41,5.23,5.23,0,0,0-1,.21c-.4.12-.78.3-1.17.45a2.86,2.86,0,0,0-.89.49,24.13,24.13,0,0,0-2,1.67c-.36.35-.69.74-1,1.12s-.66.86-1,1.29-.62.91-.91,1.38a6.09,6.09,0,0,1-.74,1.15.41.41,0,0,1-.44.11c-.16,0-.31-.11-.47-.13-1.09-.14-2.18-.27-3.28-.39a2.62,2.62,0,0,0-.56,0,7,7,0,0,0-.92.13,6.26,6.26,0,0,0-1.3.37,9.77,9.77,0,0,1-1.38.67,2.65,2.65,0,0,0-.54.25,9.87,9.87,0,0,0-.88.54c-.51.37-1,.74-1.52,1.16a7.93,7.93,0,0,0-.93,1.07,4,4,0,0,0-.85,1.3,3.42,3.42,0,0,0-.27.84c0,.28,0,.55-.05.82a15,15,0,0,0-.08,2.12,9.73,9.73,0,0,0,.1,1.43c0,.27-.06.18-.18.17a3.5,3.5,0,0,0-1.25,0,3.57,3.57,0,0,1-1.42,0,2.46,2.46,0,0,0-.26,0,11.56,11.56,0,0,0-1.73.36,7.36,7.36,0,0,0-1,.25c-.49.18-1,.38-1.43.6a5.4,5.4,0,0,0-1.52.85c-.37.37-.77.71-1.11,1.1a11,11,0,0,0-1.5,2.32A12.83,12.83,0,0,0,.33,25.8a4.54,4.54,0,0,0-.28,1A4.21,4.21,0,0,0,.11,28.4a2.17,2.17,0,0,1,.08.51,4.42,4.42,0,0,0,.43,1.82c.08.16.24.29.32.45a5.33,5.33,0,0,0,1.18,1.68,12.27,12.27,0,0,0,1.11.94,11.23,11.23,0,0,0,3.51,1.49,2.12,2.12,0,0,0,.54.13,4.43,4.43,0,0,1,.89.12,11.1,11.1,0,0,0,1.29,0,8.28,8.28,0,0,0,1.93-.22,7.94,7.94,0,0,0,1.95-.63c.76-.35,1.54-.61,2.29-1a15.09,15.09,0,0,0,2.55-1.58,19.73,19.73,0,0,0,1.63-1.55c.25-.19.25-.19.42,0s.45.62.71.9a9,9,0,0,0,1.11,1c.56.42,1.16.78,1.75,1.15.36.23.74.43,1.11.65.6.34,1.25.57,1.87.86s1,.39,1.48.59a8.13,8.13,0,0,0,2.33.58l.22.06a2,2,0,0,0,.75.12,6.37,6.37,0,0,1,1.69,0,7.89,7.89,0,0,0,2.06-.14c.49-.11,1-.25,1.45-.4.66-.21,1.38-.23,2.06-.41.18-.05.39,0,.56,0,.37-.15.76-.2,1.13-.33a7.33,7.33,0,0,0,1.59-.72c.31-.21.66-.37,1-.57a12.44,12.44,0,0,0,1.4-1c.43-.38.79-.85,1.18-1.27.17-.19.25-.18.44,0a8.41,8.41,0,0,0,1.1,1c.29.19.61.33.89.51a10.27,10.27,0,0,0,1.84.78,9.13,9.13,0,0,0,1.68.38c.17,0,.33,0,.32.28a.3.3,0,0,0,.32.28c.16,0,.28,0,.3-.2a.14.14,0,0,1,.11-.07h.8l1.24.07s.11,0,.15,0c.26-.18.6,0,.87-.17,0,0,.09,0,.13,0a.4.4,0,0,0,.53-.06.4.4,0,0,1,.2-.08c.5-.11,1-.32,1.48-.42a6.16,6.16,0,0,0,2-.83,8,8,0,0,0,2-1.74,15.37,15.37,0,0,0,1-1.3c.34-.52.61-1.08.91-1.63a3.85,3.85,0,0,0,.48-1.24,3.41,3.41,0,0,0,.22-1.08A2.42,2.42,0,0,0,64.75,24.74Z"/><path id="fill1" d="M19.81,30.59c-.56.53-1,1.1-1.63,1.55a14.94,14.94,0,0,1-2.56,1.58c-.75.37-1.53.64-2.28,1a8.57,8.57,0,0,1-1.95.64,8.85,8.85,0,0,1-1.93.21,11.29,11.29,0,0,1-1.3,0,4.24,4.24,0,0,0-.88-.12,1.83,1.83,0,0,1-.55-.13,11.06,11.06,0,0,1-3.5-1.48,12.63,12.63,0,0,1-1.11-1A5.4,5.4,0,0,1,.93,31.18C.85,31,.7,30.9.61,30.73a4.76,4.76,0,0,1-.43-1.82,3,3,0,0,0-.07-.51,4,4,0,0,1-.06-1.58,4,4,0,0,1,.27-1,12.9,12.9,0,0,1,.56-1.33,10.6,10.6,0,0,1,1.49-2.31c.35-.4.74-.74,1.12-1.11A5.49,5.49,0,0,1,5,20.2q.71-.33,1.44-.6a7,7,0,0,1,1-.25A11.31,11.31,0,0,1,9.2,19a2.46,2.46,0,0,1,.26,0,3.72,3.72,0,0,0,1.41,0,3.81,3.81,0,0,1,1.26,0c.12,0,.23.1.17-.17a13.55,13.55,0,0,1-.1-1.43,15,15,0,0,1,.08-2.12c0-.27.06-.54.06-.82a3.42,3.42,0,0,1,.27-.84,4.15,4.15,0,0,1,.84-1.3,8.67,8.67,0,0,1,.94-1.07c.47-.42,1-.78,1.52-1.16a9.87,9.87,0,0,1,.88-.54,3.32,3.32,0,0,1,.54-.25A10.21,10.21,0,0,0,18.7,8.6,6.54,6.54,0,0,1,20,8.23a7.12,7.12,0,0,1,.91-.13,2.72,2.72,0,0,1,.57,0l3.27.39c.16,0,.32.1.48.13a.41.41,0,0,0,.44-.11,6.63,6.63,0,0,0,.74-1.15c.29-.47.58-.93.91-1.38s.63-.89,1-1.29.65-.76,1-1.12c.62-.61,1.3-1.13,2-1.67a3.1,3.1,0,0,1,.89-.49c.39-.14.77-.33,1.17-.45a6.73,6.73,0,0,1,1-.21A5.61,5.61,0,0,0,35.94.33a1.91,1.91,0,0,1,.72-.11A11.16,11.16,0,0,0,38.4,0a2.63,2.63,0,0,1,.84,0c.79.08,1.59.16,2.37.28a4.71,4.71,0,0,1,1.3.38c.59.28,1.22.47,1.83.71L46,1.89a13.56,13.56,0,0,1,1.87,1,10.38,10.38,0,0,1,1.47,1,5.9,5.9,0,0,1,.46.39l.94,1A9.82,9.82,0,0,1,51.91,7.2c.08.15.18.3.26.46A5.18,5.18,0,0,1,52.69,9a3.56,3.56,0,0,0,.17.41c.1.29.2.58.27.87,0,.13-.05.21-.15.3s0,.13,0,.2l.1-.12c.1-.08.19-.16.22.07a4.83,4.83,0,0,1,.11.84c0,.28.14.53.11.81,0,0,0,0,0,.06-.17.74.24,1.44.15,2.18a1.09,1.09,0,0,0,0,.4c0,.19.08.19.26.14a7.43,7.43,0,0,1,1-.27,2.28,2.28,0,0,1,1,0c.4.14.84,0,1.21.27.15.13.41.08.62.15a21.66,21.66,0,0,1,2.22.93,2.69,2.69,0,0,1,.59.38,13,13,0,0,1,1.31,1c.18.18.37.35.54.53s.52.72.8,1.05a6.15,6.15,0,0,1,.76,1.4,10.34,10.34,0,0,1,.25,1,5.65,5.65,0,0,0,.21.75,2.44,2.44,0,0,1,.15.82,11.36,11.36,0,0,1,.11,1.53c0,.47.16,1-.14,1.43a3.63,3.63,0,0,1-.21,1.08,4.26,4.26,0,0,1-.48,1.24c-.3.55-.58,1.11-.91,1.63s-.66.87-1,1.3a8.16,8.16,0,0,1-2,1.74,6,6,0,0,1-2,.83c-.49.1-1,.31-1.48.42a.37.37,0,0,0-.2.09.41.41,0,0,1-.53,0s-.1,0-.13,0c-.27.17-.6,0-.87.18,0,0-.09,0-.14,0l-1.24-.06c-.27,0-.54,0-.81,0,0,0-.1,0-.1.07,0,.2-.14.21-.31.2a.29.29,0,0,1-.31-.27c0-.26-.15-.26-.33-.29a8.7,8.7,0,0,1-1.68-.38,10.49,10.49,0,0,1-1.83-.78c-.29-.18-.6-.32-.9-.51a9,9,0,0,1-1.09-1c-.2-.17-.27-.18-.45,0A14.19,14.19,0,0,1,44.47,33a11.6,11.6,0,0,1-1.4,1c-.31.2-.66.36-1,.57a7.12,7.12,0,0,1-1.59.72c-.36.13-.76.18-1.13.33-.16.06-.38,0-.55,0-.68.18-1.4.2-2.06.41-.48.15-1,.29-1.45.4a8,8,0,0,1-2.07.14,6.3,6.3,0,0,0-1.68,0,2.11,2.11,0,0,1-.76-.12,1.42,1.42,0,0,0-.22,0,8.16,8.16,0,0,1-2.32-.59c-.49-.2-1-.37-1.48-.59s-1.27-.52-1.87-.86l-1.12-.64C23.2,33.32,22.6,33,22,32.55a9,9,0,0,1-1.1-1c-.26-.27-.48-.6-.72-.9s-.17-.21-.41,0m-.18-1h.07a.23.23,0,0,1-.06-.09l-.57-1.33a.16.16,0,0,0-.07-.07s-.07.06-.08.1a5.59,5.59,0,0,1-.29.93,16.06,16.06,0,0,1-.86,2s0,.05,0,.07h.09a.84.84,0,0,0,.18-.15l1.15-1.12c.08-.07.19-.18.19-.26,0-.3.16-.13.26-.08M63.36,26.2c0,.08.17.13,0,.26a.82.82,0,0,0-.16.34s0,.08,0,.12.09-.05.1-.08c.07-.27.11-.56.2-.82a3.84,3.84,0,0,0,.27-1.11,1.09,1.09,0,0,0-.07-.24s-.12,0-.14.06a.17.17,0,0,0,0,.14.36.36,0,0,1,0,.47s-.06.06,0,.07c.15.25-.16.34-.18.53l-.11,0s0-.06,0-.08a.48.48,0,0,0,.11-.51c0-.05,0-.21.12-.19a.58.58,0,0,0,0-.14c-.29-.14.08-.37-.06-.52l.1,0c.18.09.24,0,.24-.16s0-.33,0-.49a9,9,0,0,0-.11-1c-.1-.52-.23-1-.35-1.54a2.3,2.3,0,0,0-.09-.47c-.1-.26-.26-.49-.35-.75a5.4,5.4,0,0,0-1.45-2c-.19-.2-.46-.34-.66-.54a4.48,4.48,0,0,0-.89-.6c-.46-.25-1-.45-1.42-.69a11.13,11.13,0,0,0-1.86-.58c-.16-.05-.36,0-.52,0a3.19,3.19,0,0,0-1.41.15c-.33.06-.62.28-1,.24,0,0-.12.13-.13.21a3.23,3.23,0,0,1,0,.44c-.1.5-.23,1-.32,1.48s-.29.8-.36,1.22-.28.58-.18.92c0,.05,0,.23-.17.21a4.18,4.18,0,0,1-.51-.07c-.24-.05-.33-.19-.28-.45s.13-.4.2-.6c.18-.51.38-1,.52-1.52a3.56,3.56,0,0,0,.12-1c0-.31.2-.59.13-.92s.09-.43,0-.63c-.1-.59,0-1.18-.1-1.76,0-.18-.07-.36-.09-.55,0-.57,0-1.15-.13-1.72a3.85,3.85,0,0,0-.11-.88,21.23,21.23,0,0,0-1.31-3.25,7.13,7.13,0,0,0-.91-1.46l-.58-.63a5.08,5.08,0,0,0-1.12-1l-1.4-.88L46.62,3a7.3,7.3,0,0,0-1.25-.55c-.37-.13-.73-.29-1.1-.45-.55-.24-1.13-.41-1.69-.65A2.92,2.92,0,0,0,41.42,1c-.37,0-.73,0-1.09-.05l-1-.12a2,2,0,0,0-.84,0A4.51,4.51,0,0,1,37.21,1a4,4,0,0,0-1.09.19c-.79.27-1.62.36-2.42.59a6.33,6.33,0,0,0-1.47.61A5.67,5.67,0,0,0,31,3.27c-.21.21-.45.39-.66.6s-.38.42-.59.59a6.53,6.53,0,0,0-1.5,1.69.78.78,0,0,1-.1.15,9.93,9.93,0,0,0-1.47,2.16c-.15.23-.08.37.19.42a4.46,4.46,0,0,0,.51.07c.35,0,.35,0,.47-.35L28,8.45c.37-.58.75-1.15,1.1-1.74.08-.13.12-.26.27-.31a.62.62,0,0,1-.09.43c-.18.28-.26.62-.45.88s-.38.91-.65,1.32a.14.14,0,0,0,0,.11c.09.22.35.14.48.27a1.25,1.25,0,0,0,.26-.3c.13-.29.23-.6.35-.89a1.8,1.8,0,0,1,.21-.35s.07,0,.1,0a.1.1,0,0,1,0,.09c-.13.4-.27.8-.4,1.2a2.24,2.24,0,0,0-.1.37s0,.08,0,.12a.3.3,0,0,0,.11-.07c.18-.29.34-.59.54-.87.29-.44.61-.86.91-1.3.17-.26.31-.53.46-.79a.26.26,0,0,1,.1-.07s0,.08,0,.11c-.09.21-.17.43-.27.65s-.19.37-.27.56-.17.44-.27.65a11.18,11.18,0,0,1-.62,1.25c-.15.24,0,.24.12.33s.2,0,.27-.1c.25-.38.52-.76.78-1.13,0,0,.08-.06.12-.1s0,.1,0,.14a3,3,0,0,1-.16.59,2.52,2.52,0,0,1-.5.94s0,.06,0,.1l.19-.13,0,.22s.08,0,.1,0,0-.07,0-.1c.31-.57.61-1.15.92-1.71s.73-1.25,1.1-1.87c.08-.15.18-.29.28-.44s0,0,.08,0a.09.09,0,0,1,0,.07,1.41,1.41,0,0,1-.06.22c-.23.43-.46.86-.68,1.3s-.3.7-.44,1.06-.2.56-.31.83-.31.67-.46,1a.71.71,0,0,0,0,.14s.11,0,.12-.05c.15-.57.66-1,.75-1.56,0,0,.08-.07.12-.1a.36.36,0,0,0,0,.11.62.62,0,0,1,0,.59c-.19.47-.39.93-.59,1.4a.19.19,0,0,0,0,.13,4.34,4.34,0,0,0,.28.46l.7,1a.56.56,0,0,1,0,.12.49.49,0,0,0,0-.11c.07-.19-.1-.27-.17-.4s0-.12,0-.14a3.58,3.58,0,0,1,.39-.39c0,.19-.1.37-.14.56,0,0,0,.07,0,.1a.93.93,0,0,0,.05-.1c0-.14.09-.28.15-.42a6,6,0,0,0,.7-1.33s.11-.07.16-.1a1,1,0,0,1,.07.15.56.56,0,0,1-.06.53c-.14.3-.22.63-.36.93A4.73,4.73,0,0,1,33,13.61s0,.05,0,.08.11,0,.13,0,.21-.3.3-.46c.41-.77.8-1.54,1.24-2.3.28-.48.56-1,.81-1.47s.5-1,.77-1.42a1.18,1.18,0,0,1,.3-.29.15.15,0,0,1,.06,0s0,0,0,0c-.26.51-.52,1-.79,1.53a12.47,12.47,0,0,0-.61,1.14c-.19.46-.33.95-.57,1.4A18.84,18.84,0,0,1,33.58,14a.66.66,0,0,0,0,.78,1.55,1.55,0,0,1,.13.46s.06.09.09.09a2.29,2.29,0,0,0,.89-.22.74.74,0,0,0,.25-.21c.42-.73.77-1.5,1.22-2.22.33-.52.56-1.09.85-1.63,0-.06.14-.07.22-.1a.71.71,0,0,1,0,.21A16.88,16.88,0,0,0,36.3,13a5.46,5.46,0,0,1-.6,1.3,2.48,2.48,0,0,0-.24.66.15.15,0,0,0,0,.13s.35-.14.37-.2c.19-.41.36-.83.56-1.24s.4-.76.61-1.13c0,0,.08-.07.12-.1a.61.61,0,0,1,0,.13,2.93,2.93,0,0,1-.23,1c-.19.44-.36.89-.52,1.35,0,0,.07.18.1.18a1.58,1.58,0,0,0,.62-.09c.13-.06.2-.26.27-.41.25-.52.53-1,.82-1.52a14.78,14.78,0,0,0,.83-1.51,2.07,2.07,0,0,1,.31-.42s.08,0,.1,0a.13.13,0,0,1,0,.1c-.17.12-.15.34-.25.49a6.79,6.79,0,0,0-.71,1.49,2.35,2.35,0,0,1-.15.47,12.38,12.38,0,0,0-.56,1.16,1.29,1.29,0,0,0,0,.21l.22-.13s0-.1,0-.14c.21-.52.44-1,.64-1.54s.53-.85.7-1.33a.54.54,0,0,1,.1-.16c0,.07.09.13.09.2a.87.87,0,0,1,0,.36c-.14.35-.31.7-.44,1-.21.57-.41,1.15-.6,1.73-.06.15,0,.23.2.25a1.29,1.29,0,0,1,.53.1c.16.11.16,0,.21-.07.2-.37.4-.74.59-1.11l.62-1.2c.23-.43.46-.84.69-1.26a6.53,6.53,0,0,1,.35-.56c0-.05.13-.05.2-.07a.94.94,0,0,1,0,.16c-.11.2-.24.4-.34.61s-.25.53-.37.8a4.87,4.87,0,0,0-.38.88c-.12.55-.43,1-.57,1.58,0,.17-.25.34-.22.48s.26.25.4.37,0,.07.07.09c.2.18.23.17.37-.07a.75.75,0,0,0,.06-.13c.24-.35.28-.79.53-1.14a5.43,5.43,0,0,0,.34-.73A.29.29,0,0,1,41.8,14a1,1,0,0,0,.09.13c.16.19,0,.33-.06.49a7.9,7.9,0,0,1-.7,2,.29.29,0,0,0,0,.15s.09.08.1.07a.58.58,0,0,0,.14-.17c.07-.14.12-.29.19-.44.29-.6.59-1.21.88-1.82s.64-1.32,1-2a.83.83,0,0,1,.19-.23.11.11,0,0,1,.11,0s0,.07,0,.1a1.47,1.47,0,0,1-.15.34,10.46,10.46,0,0,0-.78,1.7c-.08.22-.21.43-.27.65-.16.62-.4,1.2-.62,1.8,0,.11-.1.27-.19.31s-.12.16,0,.26a1.84,1.84,0,0,1,.17.22c.1.17.19.07.28,0a.47.47,0,0,0,.1-.2,4.48,4.48,0,0,1,.7-1.29.88.88,0,0,1,.15-.12c0,.07.1.14.09.2a1.45,1.45,0,0,1-.12.35,9.48,9.48,0,0,1-.61,1.47.37.37,0,0,0,0,.31,1.57,1.57,0,0,1,.29.54c0,.08.1.1.15,0a.86.86,0,0,1,.1-.16,10.87,10.87,0,0,0,.84-1.67,4,4,0,0,1,.22-.47c.2-.39.42-.77.64-1.15,0,0,.13,0,.2-.06l-.06.16c-.19.48-.43.94-.61,1.43s-.28.84-.45,1.25-.29.63-.43.94a.42.42,0,0,1-.12.14c-.08.06-.22.11-.22.16a.52.52,0,0,0,.12.3,1.83,1.83,0,0,1,.26.5c.06.23.23.24.38.05a.54.54,0,0,0,.07-.13l.86-1.62c0-.07.13-.1.19-.16s0,.16,0,.24-.05.06-.06.09c-.1.26-.18.52-.28.77-.23.56-.3,1.2-.9,1.57a.64.64,0,0,1-.51.12.65.65,0,0,1-.51-.33,11.33,11.33,0,0,1-.68-1.56,5.6,5.6,0,0,0-.84-1.39,4.08,4.08,0,0,0-.77-.72,3.46,3.46,0,0,0-1.27-.8c-.19-.06-.4,0-.57-.11a4.53,4.53,0,0,0-1.7-.25,11.59,11.59,0,0,0-1.31.06,3.9,3.9,0,0,0-1.67.43l-.62.35a12.4,12.4,0,0,0-1.57,1c-.13.1-.29.17-.42.27a4.72,4.72,0,0,0-.63.44c-.23.18-.41.42-.63.61a8.44,8.44,0,0,0-1.56,1.6c-.14.2-.32.2-.54,0a.42.42,0,0,1-.08-.42A4.77,4.77,0,0,1,28.82,19c.33-.34.66-.68,1-1a7.87,7.87,0,0,1,.82-.71c.25-.19.56-.31.8-.51a9.58,9.58,0,0,1,1.23-.8s.12-.08.11-.11a5.65,5.65,0,0,0-.66-1.94c-.27-.44-.49-.92-.79-1.34a7.6,7.6,0,0,0-.93-1.11,5,5,0,0,0-1.75-1.23,9.09,9.09,0,0,0-1.28-.49c-.67-.12-1.33-.27-2-.4-1-.19-2-.3-3-.45l-.44-.05a4.78,4.78,0,0,0-.53,0c-.32,0-.63.08-.95.12A4.76,4.76,0,0,0,19,9.43c-.68.35-1.37.65-2.05,1a7.42,7.42,0,0,0-1,.65c-.3.23-.57.5-.86.74a3.32,3.32,0,0,0-.68.67c-.14.22-.33.4-.49.61a3.45,3.45,0,0,0-.67,1.47c-.14.81-.16,1.64-.23,2.46,0,0,0,.09,0,.14,0,.31.07.62.08.93a3.39,3.39,0,0,0,.38,1.65.37.37,0,0,1-.1.47.35.35,0,0,1-.48,0,.59.59,0,0,0-.43-.21c-.13,0-.22-.07-.21-.19s-.08-.13-.16-.19c-.27-.18-.53-.05-.79,0a5,5,0,0,1-1.58.08,2.21,2.21,0,0,0-1.14.14l-.36.08c-.56.15-1.13.26-1.67.45s-1.11.47-1.66.73a2.72,2.72,0,0,0-1,.74c-.22.27-.51.5-.76.75a3.29,3.29,0,0,0-.5.56c-.23.38-.47.75-.69,1.13a17,17,0,0,0-.75,1.55s0,.09,0,.13.09,0,.11-.07a2.78,2.78,0,0,1,.24-.49c.34-.46.7-.9,1.06-1.35.1-.12.19-.25.3-.37s.11,0,.17,0a.61.61,0,0,1,0,.19s-.06,0-.08.08l-.79,1.28a.69.69,0,0,0-.1.18c.17.19,0,.32-.07.45a9.92,9.92,0,0,1-.52,1.31,2.65,2.65,0,0,0-.38,1.69.32.32,0,0,0,0,.09s.09-.05.09-.07c0-.25.24-.38.33-.57a21.06,21.06,0,0,1,1.1-1.91l.62-1a17.48,17.48,0,0,1,1-1.53c.21-.25.4-.51.59-.77a1.66,1.66,0,0,1,.26-.27.09.09,0,0,1,.1,0,.12.12,0,0,1,0,.1c-.11.19-.22.38-.34.56-.32.47-.65.93-1,1.41s-.41.69-.61,1l-.6,1.05c-.16.29-.33.57-.47.87C2,28.37,1.72,29,1.42,29.6c-.1.2-.17.34,0,.53a1.21,1.21,0,0,1,.09.2,1.46,1.46,0,0,1,.07-.19c.1-.22.22-.44.32-.66a11.47,11.47,0,0,1,.83-1.64l.2-.31c.22-.29.44-.6.67-.88,0,0,.19,0,.29,0a1.46,1.46,0,0,0-.07.19c-.15.31-.31.61-.45.92s-.42.57-.42,1c0,0-.06,0-.07.08a17.05,17.05,0,0,0-.71,1.84,2.06,2.06,0,0,0-.08.66c0,.09.1.18.15.27s.11-.12.15-.18a2.56,2.56,0,0,0,.11-.24c.3-.56.6-1.12.89-1.68s.43-.83.66-1.23.53-.86.79-1.28.49-.77.75-1.15a1,1,0,0,1,.23-.24s.08,0,.13,0a.4.4,0,0,1,0,.11c-.11.19-.23.37-.35.56s-.3.42-.42.65-.35.64-.52,1c-.31.55-.62,1.11-.92,1.67a6.29,6.29,0,0,0-.32.7c-.19.46-.37.92-.55,1.38s-.2.65.14.94c.19.17.28.15.38-.09s.11-.38.2-.56c.29-.63.59-1.27.89-1.89a1.58,1.58,0,0,1,.29-.39s.14,0,.21,0,0,.1,0,.16l-.4,1.2c-.17.48-.34,1-.5,1.45,0,.17-.09.34-.14.51a.89.89,0,0,0,0,.14S4,33,4,32.93s0-.08,0-.12c.26-.55.52-1.11.79-1.66.36-.71.72-1.42,1.11-2.11s.73-1.28,1.1-1.91l1-1.72c.08-.13.16-.27.25-.4s.08-.05.12-.07,0,.11,0,.15c-.23.44-.47.86-.69,1.3L6.64,28.44c-.29.57-.6,1.13-.88,1.7s-.54,1.15-.8,1.73c0,0,0,.14,0,.15.22.1.18.15,0,.2s-.1.11-.13.18c-.1.26-.19.53-.31.79a.33.33,0,0,0,.07.42.47.47,0,0,0,.12.07s.06-.08.06-.13a5.72,5.72,0,0,1,.62-1.84c.19-.48.5-.9.66-1.4,0-.07.12-.13.19-.18s.13,0,.13.07a.8.8,0,0,1,0,.27c-.11.32-.25.62-.35.94s-.14.59-.23.88a9.45,9.45,0,0,0-.38,1.48c0,.22.15.26.25.33A.26.26,0,0,0,6,34a3.45,3.45,0,0,0,.6-.93,5.72,5.72,0,0,1,.44-.8c.27-.5.52-1,.78-1.5s.49-.9.73-1.36a7.2,7.2,0,0,0,.63-1.2c0-.06.13-.09.2-.14a.76.76,0,0,1,0,.21c-.33.72-.65,1.43-1,2.14s-.62,1.17-.9,1.77c-.15.32-.23.68-.37,1s-.32.64-.47.95a.35.35,0,0,0-.06.18c0,.15.5.23.61.1a1.79,1.79,0,0,0,.22-.38C7.8,33,8.27,32,8.75,30.94a.73.73,0,0,1,.2-.19c0,.1.07.2.09.3S9,31.1,9,31.13c-.17.52-.33,1.05-.51,1.57,0,.1-.08.2-.11.31-.11.38-.21.75-.31,1.13,0,.1-.08.19-.1.28s-.09.22.07.21.3.2.4-.1c.21-.61.44-1.21.7-1.8.38-.87.79-1.74,1.21-2.6.2-.42.44-.82.65-1.23s.24-.59.39-.88a8.29,8.29,0,0,0,1-2.07,1.66,1.66,0,0,1,.31-.5.12.12,0,0,1,.1,0,.1.1,0,0,1,0,.1,3.54,3.54,0,0,0-.39.89c-.12.33-.25.66-.4,1s-.43.85-.61,1.3-.48,1-.68,1.47c-.28.68-.62,1.33-.91,2a6,6,0,0,0-.63,2.19c0,.26,0,.26.27.25a.4.4,0,0,1,.15,0l.56,0a1,1,0,0,1-.18-.23.37.37,0,0,1,0-.23c.11-.25.23-.49.33-.75s.3-.81.47-1.21a13,13,0,0,1,.63-1.49,7.45,7.45,0,0,0,.6-1.47,1.38,1.38,0,0,1,.17-.29c0-.08.11,0,.13,0a.28.28,0,0,1,0,.18,11.89,11.89,0,0,1-.41,1.28,4.79,4.79,0,0,0-.21.64c-.07.24-.11.5-.19.74s-.23.6-.32.91c-.18.55-.33,1.11-.48,1.66,0,0,0,.1,0,.15a2.27,2.27,0,0,0,.7-.27c.14-.1.17-.34.25-.52.17-.42.34-.85.52-1.27s.49-1.07.72-1.62c.37-.89.81-1.75,1.23-2.63.18-.36.39-.71.55-1.08s.26-.8.39-1.21c.08-.23.16-.47.25-.7a.25.25,0,0,1,.18-.11c.12.05.05.11,0,.17s0,.1,0,.15c-.13.47-.24.95-.41,1.41s-.48,1.1-.72,1.65L13.74,30c-.25.58-.52,1.14-.75,1.72a9.84,9.84,0,0,0-.6,1.56,8.51,8.51,0,0,1-.29.85l-.06.13c.06,0,.14.07.18,0,.22-.09.44-.18.65-.29,0,0,.07-.1.09-.15.09-.26.22-.5.29-.77a7.88,7.88,0,0,1,.42-1.11l.57-1.49a3.64,3.64,0,0,0,.14-.47c.06-.22.09-.45.17-.66,0-.06.14-.1.22-.11s.1.09.08.16a3.88,3.88,0,0,1-.21,1,6.24,6.24,0,0,0-.35,1.19c-.15.61-.27,1.23-.47,1.84,0,0,0,.07,0,.11l.09-.06.14-.13A5.87,5.87,0,0,0,15,31.66c.21-.4.35-.84.54-1.26.29-.65.6-1.29.89-1.93a12.32,12.32,0,0,0,.82-2c.05-.23.19-.43.23-.67,0-.06.13-.09.2-.14a1.49,1.49,0,0,1,0,.21s0,.07,0,.1a2.88,2.88,0,0,0-.18.49,4.29,4.29,0,0,1-.34,1l-.6,1.47-.75,1.81c-.15.34-.33.66-.46,1s-.27.83-.39,1.25c0,0,0,.07,0,.1s.06,0,.08,0c.24-.15.47-.31.7-.48a.12.12,0,0,0,0-.09,4.09,4.09,0,0,1,.25-.91c.27-.76.51-1.53.85-2.27a4.12,4.12,0,0,0,.23-.58c.07-.27.12-.55.18-.83s.09-.35.14-.52a.2.2,0,0,1,.13-.09s.11.07.1.11a5.53,5.53,0,0,1-.28,1.39A5.12,5.12,0,0,0,17,30a.9.9,0,0,1,0,.28,11,11,0,0,0-.31,1.29c0,.16-.09.32-.13.48s0,.1,0,.15l.12-.06.37-.29s0,0,.06-.05l0-.13-.09,0a1,1,0,0,1-.16.12h-.05l.06-.37c.25.2.28-.14.29-.17a14.27,14.27,0,0,1,.95-1.87,5.27,5.27,0,0,0,.62-1.84.83.83,0,0,0,0-.44c-.07-.17,0-.36-.09-.51a.88.88,0,0,1,0-.51A3.59,3.59,0,0,1,19,25.05c.21-.37.6-.64.65-1.11,0,0,.13-.05.19,0A.16.16,0,0,1,20,24a1.11,1.11,0,0,1-.08.37c-.13.31-.3.6-.41.91s-.38.52-.09.84c0,0,0,.15,0,.17-.28.16-.09.29,0,.43a.88.88,0,0,1,.12.15c.08.18.15.36.22.55a1,1,0,0,0,0,.14l.06-.13c0-.16,0-.38.15-.45s.13-.11.17-.2c.16-.32.35-.62.52-.93.27-.47.56-.93.79-1.41s.39-1,.58-1.53c.05-.11.09-.22.22-.25a.74.74,0,0,1,0,.33c-.24.59-.49,1.18-.75,1.76S21,26,20.69,26.61s-.39,1-.56,1.5a.6.6,0,0,0,.11.61.43.43,0,0,0,.1.09l0-.1c.22-.56.47-1.11.73-1.65A5.24,5.24,0,0,0,22,24.92s0-.12.06-.12a.2.2,0,0,1,.17.05.22.22,0,0,1,.06.2c0,.18,0,.38-.13.52,0,.48-.38.85-.41,1.33a2.21,2.21,0,0,1-.16.54c-.15.48-.3,1-.47,1.46-.09.25,0,.58-.37.71,0,0,0,.11,0,.16q.18.35.39.69c.09.14.16.11.2,0s.07-.11.09-.16a12.24,12.24,0,0,1,.85-2c.3-.65.65-1.29,1-1.93.16-.32.34-.63.51-.93,0,0,.08,0,.12-.06s0,.07,0,.1a3.35,3.35,0,0,1-.19.53c-.1.23-.24.45-.35.68s-.32.69-.47,1a5.55,5.55,0,0,0-.4,1A10.49,10.49,0,0,0,22,30.12a1.12,1.12,0,0,1-.12.35.72.72,0,0,1-.2.28c-.21.13-.22.12-.07.31a1.94,1.94,0,0,0,.23.27.2.2,0,0,0,.14.08c.15,0,.42-.23.48-.38.2-.52.41-1,.62-1.55a6,6,0,0,0,.65-1.74.2.2,0,0,1,.13-.08s.08.07.1.12,0,0,0,.07a7,7,0,0,1-.37,1.57,4.42,4.42,0,0,1-.14.63,4.53,4.53,0,0,0-.42,1.53c0,.42-.15.45-.51.19,0,0,0,0-.06,0h-.15s0,.1.07.12c.27.21.55.41.83.61a.17.17,0,0,0,.11,0,.21.21,0,0,0,0-.14c-.08-.07-.2-.1-.26-.19s.13-.14.15-.28c.05-.39,0-.82.43-1.09,0,0,0-.06,0-.07a.47.47,0,0,1,.12-.07s0,.12,0,.13c-.19.15,0,.5-.29.6,0,0,0,.07,0,.1s0,.16,0,.19,0,.31-.15.44.05.11.08.16,0-.08.07-.13a.88.88,0,0,1,0-.16c.4-.87.66-1.81,1.08-2.68a13.09,13.09,0,0,0,1-2.28c0-.06.1-.11.15-.16l.07,0s0,.07,0,.1a1.59,1.59,0,0,1-.13.52c-.18.39-.32.8-.47,1.21s-.32.88-.51,1.31a5.29,5.29,0,0,0-.5,1.7,10.05,10.05,0,0,1-.2,1.07.32.32,0,0,0,.23.39c.06,0,.1.07.16.09.29.14.33.11.38-.19a2.32,2.32,0,0,1,.07-.38c.14-.36.27-.72.42-1.07a5.34,5.34,0,0,1,.41-1,3.29,3.29,0,0,0,.26-.61,3,3,0,0,0,.26-.83s.11-.09.16-.13.08.12.07.18q-.09.45-.21.9c-.12.44-.25.89-.38,1.34a7.15,7.15,0,0,0-.23.79c-.07.46-.1.93-.15,1.4,0,0,0,0,0,0,.23.19.29-.06.33-.17.29-.78.57-1.55.92-2.3.42-.92.8-1.85,1.21-2.77a5.73,5.73,0,0,0,.47-1.21c0-.06.08-.11.13-.17s.1.15.09.22a2.39,2.39,0,0,1-.13.51c-.27.67-.54,1.35-.82,2a16.93,16.93,0,0,0-1,2.7,9.87,9.87,0,0,0-.31,1.41s0,.1.05.19.06.1.11.13c.23.17.28.15.38-.14s.12-.29.18-.44l.6-1.43a6.26,6.26,0,0,0,.4-1.34c0-.07.1-.13.15-.2a.9.9,0,0,1,.08.25,5,5,0,0,1-.14.67c-.09.38-.21.76-.3,1.14-.14.58-.19,1.18-.31,1.76-.05.26.21.14.24.27,0-.06.13-.11.15-.17a16.62,16.62,0,0,1,.93-2c.38-.78.79-1.54,1.19-2.32a12.3,12.3,0,0,0,.55-1.16c0-.06.14-.08.21-.12a.52.52,0,0,1,0,.22c-.13.32-.26.63-.4.95-.26.56-.5,1.12-.77,1.67A4.06,4.06,0,0,0,29,33.29c0,.07-.06.13-.09.2a3.65,3.65,0,0,1-.15.5,2.47,2.47,0,0,1-.44.89c-.06.06-.09.07,0,.11l.86.34a.16.16,0,0,0,.13-.08c.07-.25.12-.5.17-.75a2.29,2.29,0,0,1,.17-.66c.3-.42.41-.92.68-1.34a2.34,2.34,0,0,0,.25-.5c0-.12,0-.3.2-.31s.1.08,0,.36-.22.78-.33,1.16a16.13,16.13,0,0,0-.46,2.06.23.23,0,0,0,.44.11,4.14,4.14,0,0,1,.38-.92c.24-.57.46-1.15.71-1.71s.48-1,.71-1.46c.12-.25.22-.52.33-.77,0-.05.1-.08.14-.11s.09.11.09.16a.75.75,0,0,1-.09.25,1.51,1.51,0,0,0-.12.26A14,14,0,0,1,31.88,33a4.4,4.4,0,0,0-.37,1.13c0,.45-.26.83-.33,1.26,0,.07-.12.13-.19.19l-.16.11.18.05a1.65,1.65,0,0,0,.31,0c.39,0,.46-.05.51-.44a5.17,5.17,0,0,1,.1-.79,11.82,11.82,0,0,1,.47-1.25c.21-.49.45-1,.69-1.46a.13.13,0,0,1,.09-.07.13.13,0,0,1,.07.09.87.87,0,0,1,0,.23c-.06.31-.13.62-.19.94,0,0,0,0,0,0a4.47,4.47,0,0,0-.43,1.57c0,.08-.06.17-.07.25,0,.25,0,.5-.05.75,0,0,0,0,0,0a3.09,3.09,0,0,0,.43.14.36.36,0,0,0,.24-.07,1.08,1.08,0,0,0,.21-.3c.24-.6.46-1.2.7-1.79s.49-1.24.76-1.85.66-1.42,1-2.13A.6.6,0,0,1,36,29.5c0,.05.07.1.06.15a1.17,1.17,0,0,1-.07.25c-.17.41-.34.82-.5,1.23-.27.66-.54,1.3-.79,2A6.07,6.07,0,0,0,34.1,35a2.06,2.06,0,0,1-.13.47,2,2,0,0,1-.11.2,1.36,1.36,0,0,0,.25.07c.22,0,.44-.07.66-.07s.29,0,.21-.22c0,0,0-.07,0-.11.09-.27.17-.54.27-.81.2-.53.39-1.07.62-1.59a7.9,7.9,0,0,1,.48-.91.16.16,0,0,1,.14-.07.16.16,0,0,1,.09.12.63.63,0,0,1,0,.31c-.31.45-.26,1-.48,1.5a8.17,8.17,0,0,0-.32,1.25c-.1.34-.1.34.24.27l.21-.05c.44-.09.57-.24.65-.69a3.84,3.84,0,0,1,.18-.83c.24-.6.51-1.2.77-1.8.16-.37.28-.76.47-1.12a5.14,5.14,0,0,1,.56-1,.94.94,0,0,0,.1-.1c0,.06.07.14,0,.19-.07.2-.18.38-.26.57L38.14,32a10,10,0,0,0-.39,1.13c-.14.57-.26,1.15-.35,1.73,0,.09,0,.12.1.08a4.92,4.92,0,0,1,.77-.11l.59-.07a2.66,2.66,0,0,0,.47-.11.16.16,0,0,0,.1-.11c.07-.23.11-.47.18-.7.19-.54.38-1.07.58-1.61s.44-1.15.67-1.73c.16-.4.31-.8.49-1.2a2.78,2.78,0,0,1,.28-.47s.09,0,.14,0a.65.65,0,0,1,0,.14c-.18.44-.37.88-.54,1.34s-.43,1.19-.63,1.79c-.14.44-.28.89-.38,1.34,0,.25,0,.51-.1.76s-.1.35.2.15.43-.1.63-.19.29-.12.19-.36a.88.88,0,0,1,.06-.55c.16-.44.19-.91.39-1.33s.36-.81.55-1.21a.38.38,0,0,1,.16-.11.87.87,0,0,1,.07.17.25.25,0,0,1,0,.15,3.89,3.89,0,0,0-.29,1.1,1.87,1.87,0,0,1-.08.59,3.75,3.75,0,0,0-.18,1s0,.08.05.12l.09,0,.36-.23c.11-.07.25-.12.31-.23a4.76,4.76,0,0,0,.53-1c.27-.7.42-1.43.74-2.11a3.65,3.65,0,0,0,.16-.59.4.4,0,0,0-.13-.46c-.3-.23-.21-.64-.43-.91,0,0,0-.08,0-.12.08-.42.13-.84.24-1.25a1.81,1.81,0,0,1,.33-.57.28.28,0,0,1,.24-.07.2.2,0,0,1,.11.17,2,2,0,0,1-.18.53A2.7,2.7,0,0,0,44,28a.69.69,0,0,0,.13.31c0,.07.1.08.16,0a4.77,4.77,0,0,0,.4-.82,4.07,4.07,0,0,1,.43-.86.9.9,0,0,1,.16-.19,1.11,1.11,0,0,1,.07.29,4.67,4.67,0,0,1-.17.74,5.78,5.78,0,0,0-.29,1.14.52.52,0,0,1-.05.23c-.16.16,0,.29.06.39a5.68,5.68,0,0,0,.47.51c0,.07.07.1.11,0,.08-.28.17-.55.27-.82.21-.5.42-1,.64-1.49a.78.78,0,0,1,.16-.2s.06,0,.09,0,0,.05,0,.07c-.07.25-.13.51-.21.76s-.29.74-.41,1.12a4.46,4.46,0,0,1-.2.82.37.37,0,0,0,.07.46,3.65,3.65,0,0,0,.24.31l0,.06a.41.41,0,0,0,0-.09c.05-.2.09-.4.15-.59.12-.34.27-.67.4-1a.19.19,0,0,1,.29-.12s.07.15,0,.22c-.08.54-.19,1.08-.26,1.62a2.44,2.44,0,0,0,0,.6.65.65,0,0,0,.09.16c0-.05.1-.09.12-.15.34-.81.67-1.64,1-2.45a5.86,5.86,0,0,1,.3-.55.45.45,0,0,1,.1-.09.31.31,0,0,1,0,.12.58.58,0,0,1,0,.23c-.12.3-.27.59-.38.89s-.31.89-.44,1.35a6.69,6.69,0,0,1-.2.77c-.05.12-.09.17,0,.26a1.45,1.45,0,0,0,.22.21c.07,0,.13,0,.16-.09a2.53,2.53,0,0,1,.21-.44c.14-.32.27-.66.41-1a1.06,1.06,0,0,1,.16-.21c.06.1.17.19.17.28,0,.3-.07.6-.12.9s-.12.58-.16.88c0,.05.13.12.19.18s.1-.09.12-.15A1.93,1.93,0,0,0,49,32a6.23,6.23,0,0,1,.22-.95c.13-.61.42-1.17.58-1.77.21-.79.55-1.52.78-2.31a14.93,14.93,0,0,1,.76-1.75,1.56,1.56,0,0,1,.23-.34,1.18,1.18,0,0,1,0,.42c-.23.61-.49,1.21-.73,1.81-.05.12-.06.25-.1.37-.16.46-.32.92-.47,1.38s-.17.71-.29,1.06a7.09,7.09,0,0,0-.41,1.45,3.12,3.12,0,0,1-.09.56,3.17,3.17,0,0,0-.13.67.32.32,0,0,0,.1.27.89.89,0,0,0,.47.2c.18,0,.17-.2.22-.34a7.38,7.38,0,0,1,.33-.82c.17-.37.35-.73.53-1.1,0,0,.1-.08.15-.12a.58.58,0,0,1,.07.21.63.63,0,0,1,0,.27A7.16,7.16,0,0,0,51,32c-.06.38-.21.75-.29,1.14,0,.1-.06.18,0,.23a.2.2,0,0,0,.28-.13c.05-.12.09-.26.13-.39.18-.59.43-1.16.65-1.74.29-.77.54-1.56.87-2.33s.48-1.33.73-2c0-.08.12-.13.18-.2,0,.09.07.2,0,.27-.34.82-.6,1.66-.86,2.51-.18.61-.4,1.2-.61,1.8-.05.13-.22.28-.19.34.12.23,0,.39-.08.58-.11.43-.21.86-.35,1.28,0,.09,0,.12,0,.14a.34.34,0,0,0,.57-.19,7.35,7.35,0,0,1,.53-1.47,2.59,2.59,0,0,0,.17-.33A5.31,5.31,0,0,1,53.57,30c0-.07.06-.16.15-.09a.24.24,0,0,1,.08.2c-.09.22-.22.44-.3.67a10,10,0,0,0-.31,1,4.93,4.93,0,0,1-.24,1,3.3,3.3,0,0,0-.19.78c0,.12,0,.2.14.2a1.87,1.87,0,0,1,.32,0,.36.36,0,0,0,.41-.24c.28-.64.54-1.3.8-2,.16-.39.33-.77.45-1.17s.23-.69.37-1,.28-.74.43-1.1a1.75,1.75,0,0,1,.18-.29v.34s0,.09-.06.13c-.1.4-.28.78-.35,1.2a4.85,4.85,0,0,1-.26.9,5.88,5.88,0,0,1-.36,1c-.16.27-.11.57-.23.84a5.7,5.7,0,0,0-.23,1.19s.1.16.18.19.1-.07.12-.14c.12-.4.25-.79.37-1.18,0-.06,0-.15,0-.19-.19-.25,0-.46.08-.67,0-.06,0-.13,0-.19.12-.38.24-.76.37-1.13,0-.05.07-.08.11-.12s.05.1,0,.16a2,2,0,0,1-.26.94s0,.1,0,.15.1-.05.12-.09.16-.39.25-.58.08-.09.12-.14a.51.51,0,0,1,.07.15A1.07,1.07,0,0,1,56,31a2.22,2.22,0,0,0-.18.68,2.61,2.61,0,0,1-.18.89c-.08.32-.15.65-.22,1,0,0,0,.06.06.08.1-.16.21,0,.32,0s.25,0,.29-.22a5.91,5.91,0,0,1,.3-1.17c.24-.55.35-1.14.59-1.69s.32-.83.47-1.25.32-1,.51-1.53c.12-.33.27-.65.42-1,0-.05.07-.08.11-.12s.06.11.05.16c-.06.21-.13.42-.2.64s-.2.56-.29.85-.19.59-.29.89-.23.57-.32.87A9,9,0,0,1,57,31.63c-.28.55-.16,1.16-.42,1.7,0,.07,0,.14.1.16a.86.86,0,0,0,.91-.55c.11-.35.24-.7.36-1.06s.19-.57.26-.86a8.82,8.82,0,0,1,.49-1.33s.07-.07.12-.1.1.09.1.14a1.67,1.67,0,0,1,0,.39q-.12.46-.27.9a.61.61,0,0,0,0,.17,4.28,4.28,0,0,1-.21,1.27,2.62,2.62,0,0,0-.12.57,4.58,4.58,0,0,0,.56-.17c.2-.09.39-.18.37-.46a1,1,0,0,1,.11-.35c.15-.39.32-.78.46-1.17s.2-.7.31-1.05.15-.48.22-.72.1-.44.17-.66c.12-.4.24-.79.37-1.18a5.89,5.89,0,0,1,.24-.58s.09-.06.14-.08a.75.75,0,0,1,0,.15c-.1.45-.21.9-.32,1.35,0,.18-.1.36-.14.55a3.55,3.55,0,0,1-.17.66A14.22,14.22,0,0,0,60,31.09c-.12.4-.23.8-.38,1.18a.3.3,0,0,0,0,.13s.08,0,.1,0c.32-.24.63-.48.94-.74a.43.43,0,0,0,.14-.21c.07-.23.12-.47.21-.7s.24-.68.32-1a7.93,7.93,0,0,1,.42-1.44,2.14,2.14,0,0,1,.2-.4.1.1,0,0,1,.1,0s.06.05.06.07c-.07.57-.12,1.13-.22,1.69,0,.13-.1.23-.07.38s-.06.26-.08.38a.76.76,0,0,0,0,.15.55.55,0,0,0,.14-.12c.18-.31.33-.65.53-1A2.49,2.49,0,0,0,63,27.58a2.31,2.31,0,0,1,.23-1.14,1.15,1.15,0,0,1,.13-.24M43.54,32.36a.54.54,0,0,0-.07.13c0,.07,0,.14,0,.21a.59.59,0,0,0,.2-.07c.12-.1.21-.22.33-.32s.32-.2.08-.39a.19.19,0,0,1,0-.18c.08-.25.16-.49.25-.74,0-.09.07-.18.11-.27a3.45,3.45,0,0,0,.12-.43c0-.19.16-.39-.08-.56s-.16-.13-.24,0,0,.16,0,.23a4.92,4.92,0,0,1-.18.78,8.55,8.55,0,0,0-.42,1.57m1.28-1.29c0,.16-.1.31-.14.47s0,.07,0,.11.07,0,.09-.06l.49-.6s0-.09,0-.1l-.36-.4c0,.13-.08.26-.11.39a1.13,1.13,0,0,0,0,.19m18.47-3.95h-.08c-.05.18-.1.35-.14.53l0,.05s.08-.05.09-.08.06-.28.09-.49M53.23,16.51l.06.24,0-.37a.33.33,0,0,1-.09.13m-.18-4.78,0,0h0c0,.07,0,.14,0,.21a.27.27,0,0,0,.07-.18m-.36-.36.16.06.07,0-.08-.05a.22.22,0,0,0-.15,0m.16-1,0-.15-.13,0,.11.13m-.41,9.47,0-.08s0,0,0,.08m.77-7.47.12,0,0,0A.21.21,0,0,0,53.21,12.39ZM11.92,18.56s0,0,0,.06A.08.08,0,0,1,11.92,18.56ZM25.42,8.39a.1.1,0,0,1,0,.07A.17.17,0,0,1,25.42,8.39Zm0,0a.09.09,0,0,1,0-.07A.11.11,0,0,1,25.46,8.4Zm7.19,3.8a.21.21,0,0,1-.32.13.59.59,0,0,1-.25-.29c0-.06,0-.18.09-.25.56-.79,1-1.65,1.48-2.48.19-.31.4-.59.58-.89a9.06,9.06,0,0,0,.42-.82s0,0,0-.07l.23-.24a3,3,0,0,1-.06.32,6,6,0,0,1-.54,1A12.67,12.67,0,0,0,33.64,10c-.2.51-.43,1-.66,1.52C32.89,11.77,32.77,12,32.65,12.2ZM62.88,25.69a13.22,13.22,0,0,1,.27-1.34c0-.15.21-.25.32-.37s.05,0,.07,0,0,.05,0,.05c-.29.27-.12.7-.33,1,0,.07,0,.18,0,.27-.07.36-.13.72-.19,1.07a10.4,10.4,0,0,0-.22,2,.24.24,0,0,1-.05.1,4.12,4.12,0,0,0-.13.47.35.35,0,0,1-.18.28,1.43,1.43,0,0,1-.22,0,.58.58,0,0,1,0-.18c.1-.65.17-1.3.32-1.93.06-.23.08-.48.16-.71A3.63,3.63,0,0,1,62.88,25.69Zm-23.75,8.1a4.46,4.46,0,0,0-.14.59.34.34,0,0,1-.25.31.36.36,0,0,1-.39-.11.33.33,0,0,1,0-.39,1.57,1.57,0,0,0,.18-.48c0-.46.37-.79.5-1.2a4.07,4.07,0,0,1,.28-.55.59.59,0,0,1,.18-.13.73.73,0,0,1,0,.2,4.25,4.25,0,0,1-.33,1.45A1.23,1.23,0,0,0,39.13,33.79Zm-9.76.68c0,.22-.25.36-.09.57,0,0,0,.05-.06.05l-.24,0c-.12,0-.28-.05-.34-.13s0-.22.07-.33a4.61,4.61,0,0,0,.22-.51c0-.12,0-.28.21-.21a.42.42,0,0,0,0-.15,2.07,2.07,0,0,1,0-.43c0-.06,0-.27.2-.19s.15-.16.24-.22a.26.26,0,0,1,.12,0l0,.1a.07.07,0,0,0,0,.05.23.23,0,0,1,0,.32,2.62,2.62,0,0,0-.43,1.16m-.1-.53,0,0S29.32,33.93,29.27,33.94Zm4.81-18.83c-.28-.08-.39-.24-.27-.38a2.45,2.45,0,0,0,.62-1.08c.22-.11.24-.36.34-.56a1,1,0,0,0,0-.18l0-.1s.1.07.1.11c0,.24.11.46,0,.72s-.25.73-.4,1.08C34.44,14.89,34.36,15.1,34.08,15.11ZM28.57,32.59c0,.25-.17.38-.22.57A5.88,5.88,0,0,1,28,34c-.06.17-.07.34-.12.51s-.07,0-.1.07-.06-.06,0-.08,0-.31.07-.46.06-.23.08-.35c.08-.38.15-.76.24-1.14,0-.05.07-.1.11-.15s.12.16.1.21-.12.11,0,.13.08,0,.11.06,0-.08,0-.1,0-.15.13-.12m-.32.51-.12-.05,0,.05A.21.21,0,0,0,28.25,33.1Zm2.19,1.1c.11-.16.1-.35.25-.46s0-.18,0-.26a1.05,1.05,0,0,1,.13-.26c.09.06.21.11.25.2s.09.25-.13.28-.19.11,0,.22,0,.07,0,.11a7.76,7.76,0,0,0-.49,1.27s-.07.05-.1.08-.06-.06-.06-.08l.12-.57C30.38,34.57,30.41,34.4,30.44,34.2Zm2.83,1.06a1.46,1.46,0,0,1-.09.15.24.24,0,0,1-.33.11c-.07,0-.1-.15-.13-.24a.26.26,0,0,1,0-.15,3.44,3.44,0,0,0,.1-.84s0-.07,0-.11a.36.36,0,0,0,0,.11s0,0,.05.07c.1.25.1.25.36.18,0,0,.13-.14.11,0s0,.48-.16.71m-.25.09,0,0h0c0-.08,0-.15,0-.22a.33.33,0,0,0-.07.19m0-.4,0,0S33,35,33.07,35ZM26.4,34c0-.12.07-.24.1-.36.09-.31.18-.62.28-.93,0,0,.09-.1.12-.09.27.05.31-.11.32-.31a.67.67,0,0,1,.06-.12.74.74,0,0,0,0,.14c.12.19-.06.3-.16.35s-.22.13-.12.3a.26.26,0,0,1,0,.23,1.35,1.35,0,0,0-.27.76c0,.11-.1.14-.21.1ZM37.21,13.72c0,.23.1.16.19.17s0-.22.12-.08,0,0-.07.19a1.08,1.08,0,0,0-.14.44.46.46,0,0,1-.41.44l-.23,0a.75.75,0,0,1,0-.26c.07-.13.26-.31.23-.35S37,14,37,13.87a.74.74,0,0,1,.13-.22h0S37.2,13.67,37.21,13.72Zm-5.69,21c.14-.46.25-.9.38-1.33a.61.61,0,0,1,.11-.23.14.14,0,0,1,.13,0,.19.19,0,0,1,0,.14,7.1,7.1,0,0,0-.39,1.12,2.54,2.54,0,0,0-.15,1,.16.16,0,0,1-.08.14.57.57,0,0,1-.26,0c-.09,0,0-.08,0-.13C31.4,35.18,31.44,35,31.52,34.75ZM34.43,13a.17.17,0,0,0,.09-.11s.06.07,0,.1a2.77,2.77,0,0,1-.28.71,2.39,2.39,0,0,0-.17.37,2.36,2.36,0,0,1-.35.48s0,.22-.11.09-.19-.07-.07-.24.3-.61.51-.88a2.44,2.44,0,0,0,.26-.57h0ZM26.19,31.45c.24.23,0,.46,0,.69-.28.07-.17.37-.28.54a5.5,5.5,0,0,0-.34.86,11.54,11.54,0,0,1,.24-1.45.88.88,0,0,1,.37-.64m0,.2,0,0S26.14,31.66,26.18,31.65Zm-1.86.4a.1.1,0,0,1,.07,0c.09-.14.23-.1.36-.11s.07-.08.1-.12,0,.15,0,.18c-.26.26-.14.63-.25.93s-.09.08-.15,0a.32.32,0,0,0-.12-.08c-.15,0-.2-.09-.19-.24s.05-.22.19-.24a.54.54,0,0,0,.13-.07s0,0,0,0-.05,0-.06,0c-.22.12-.14-.05-.13-.14A.13.13,0,0,1,24.32,32.05Zm29,.66c.28.07.35-.14.44-.32s.09-.12.1-.11,0,.1,0,.17c-.07.28-.34.47-.3.8,0,0-.1.12-.17.17a1.89,1.89,0,0,1-.25.11s0,.06-.06.09a.38.38,0,0,0,0-.1c-.14-.23,0-.41.1-.59s.11-.13.16-.22m.18.16a.36.36,0,0,0-.11.1s0,.08,0,.13.1,0,.13-.08S53.55,33,53.52,32.87ZM32.32,10.42c0-.15.1-.2.14-.12s.17.23,0,.36-.19.19.06.18c0,0,0,.07,0,.09-.14.26-.28.52-.44.77,0,0-.11,0-.17.06s-.21-.09-.06-.24.29-.29.29-.45S32.3,10.67,32.32,10.42Zm3,2.61c.36.13.36.25.15.55s-.38.68-.58,1c-.07.11-.16.22-.24.33,0-.12.06-.25.1-.36.17-.4.35-.79.52-1.18,0,0,0-.09,0-.11S35.38,13.15,35.29,13ZM22.18,30.33c.13-.11.17-.07.15.07s0,.07,0,.1l.06-.08a3.48,3.48,0,0,1,.22-.43s0,.12-.14.5a2.74,2.74,0,0,0-.15.51c0,.16-.11.25-.26.19s-.22-.12-.06-.28,0-.23.06-.34A1.8,1.8,0,0,1,22.18,30.33ZM32,14.56a1.42,1.42,0,0,1,.3.25.52.52,0,0,0,.06.13c.22.21.18.51.22.77a.82.82,0,0,1-.06.25c-.08-.15-.14,0-.2,0l-.25.15a1.57,1.57,0,0,1,.1-.26c.12-.13,0-.28.05-.41l.06-.07a.19.19,0,0,0,0,.07c0,.08,0,.17,0,.25a.18.18,0,0,0,.05.07.21.21,0,0,0,0-.07c-.08-.18,0-.39-.18-.56S32.06,14.77,32,14.56ZM1.92,27a.46.46,0,0,1-.09.42,1.64,1.64,0,0,0-.45.92s-.08.06-.12.09,0-.08,0-.12a1.7,1.7,0,0,1,.32-.85.12.12,0,0,0,.09,0l-.07-.05A2.8,2.8,0,0,1,1.7,27S1.83,27,1.92,27ZM30.24,9.69c0,.05,0,.05,0,.06L30,10a.9.9,0,0,1,0-.33c.11-.27.37-.46.41-.78,0,0,.19,0,.29,0l0,0c-.29,0,0,.25-.16.34A1.42,1.42,0,0,0,30.24,9.69ZM20.77,26.9a1.26,1.26,0,0,1,.13-.16.12.12,0,0,1,.11,0s.07.05,0,.14c-.19.34-.35.69-.51,1-.07.16-.12.32-.19.49a.69.69,0,0,1,0,.13c0-.05,0-.1,0-.14.07-.2.15-.39.22-.59S20.66,27.2,20.77,26.9ZM2.4,28c0-.31.24-.52.38-.77s.11-.44.38-.54c.06,0,.06-.23.12-.35-.07.15.14.31,0,.47s-.06.15-.17.18-.12.12-.17.2C2.74,27.43,2.58,27.7,2.4,28Zm32.47,6.86a2.33,2.33,0,0,0,.05-.34.24.24,0,0,0,0-.08l.1.05c0,.16,0,.33-.12.47a.72.72,0,0,0-.12.31.47.47,0,0,1-.62.28s0,0,0-.05a.15.15,0,0,1,.06,0c.32,0,.53-.17.51-.54C34.71,34.87,34.8,34.86,34.87,34.83ZM30.74,12.25a5.71,5.71,0,0,1,.55.55c.08.09.11.23.19.32s-.15.19,0,.3c-.15,0-.26,0-.18-.26s-.11-.35-.22-.39S30.79,12.47,30.74,12.25ZM15.36,32.66a.46.46,0,0,1-.17,0,3.11,3.11,0,0,0,.35-1l.09,0s.07.11.06.11-.09.2,0,.34A.57.57,0,0,1,15.36,32.66ZM5.7,33.81a5.59,5.59,0,0,1,0-.57s0,0,0-.06a.59.59,0,0,1,0,.08.43.43,0,0,0,0,.17c.06.1.16.15.17,0s.15-.1.21-.17.06,0,.07,0a.2.2,0,0,1,0,.08C6.07,33.5,6,33.83,5.7,33.81Zm8.54-1.31.13-.46c0-.07,0-.15.06-.22a.7.7,0,0,1,.14-.16l.07,0a.64.64,0,0,1-.1.18.2.2,0,0,0-.06.26.39.39,0,0,1-.1.45c-.05,0-.06.14-.09.2l-.16.18.06-.24C14.2,32.66,14.22,32.6,14.24,32.5ZM39.63,16.67c.11.12.16.28.35.27L40,17h-.09a.62.62,0,0,1-.25-.15.86.86,0,0,0-.59-.29.6.6,0,0,1-.43-.18,1.72,1.72,0,0,1,.46,0A2.36,2.36,0,0,1,39.63,16.67ZM55.9,32.93c0,.08.1.14.1.2a.74.74,0,0,1-.1.27.1.1,0,0,1-.08.06.14.14,0,0,1-.08-.05.61.61,0,0,1,0-.51.87.87,0,0,0,.07-.17l.06-.21a2.67,2.67,0,0,1,.09.26S55.94,32.87,55.9,32.93Zm4.62-1.52c-.16-.29-.15-.34.09-.47s.21,0,.21.12a.46.46,0,0,1-.24.48l-.06-.13m.07-.1.13-.07-.06-.08A.18.18,0,0,0,60.59,31.31Zm-57.47.35c0,.13.06.27.09.4a1.05,1.05,0,0,1,0,.31c0,.07,0,.13-.11,0a2.09,2.09,0,0,0-.22-.2s0-.08,0-.08C3.11,32,3,31.79,3.12,31.66Zm23.11-.21c-.07-.15-.25-.26-.06-.46s.07-.07.13,0a.39.39,0,0,1,.17.4C26.44,31.63,26.32,31.45,26.23,31.45ZM12.71,33.12c0,.18-.06.34.09.52s0,.24-.31.26c.07-.07-.16-.18,0-.25s0-.2.06-.29S12.52,33.14,12.71,33.12ZM21.1,30c0-.11.38-.22,0-.35,0,0,0-.08,0-.11a.54.54,0,0,1,.09-.12c0,.11.28,0,.22.18s-.12.29-.18.44a1.67,1.67,0,0,0-.08.2A.64.64,0,0,1,21.1,30ZM6.84,34.18c.13-.23.25-.43.38-.62l.07-.12c0,.06,0,.13,0,.18-.07.2-.15.38-.22.58S7,34.4,6.84,34.18Zm23.9-22a8.31,8.31,0,0,1-.63-.57s0-.09,0-.14a.68.68,0,0,1,.14,0A1.08,1.08,0,0,1,30.74,12.21ZM27.82,8.58a.65.65,0,0,1-.87.07s-.06-.08-.08-.13H27a.41.41,0,0,1,.2.09c.17.16.28.15.39-.06s.09-.08.14-.12A1,1,0,0,1,27.82,8.58ZM52.09,32.3a.79.79,0,0,1,0,.62c0,.08-.25.21-.08.36l-.13.1c0-.05-.07-.12-.05-.14A7.32,7.32,0,0,0,52.09,32.3ZM39,15l.14,0c0,.06-.12.13,0,.14a.61.61,0,0,1,.18.05l-.21,0h0c-.44-.05-.44-.05-.26-.46l.06-.12,0,.14A.29.29,0,0,1,39,15l-.13,0v0Zm-36,14.88L2.79,30c-.1.07-.18.07-.16-.08a.94.94,0,0,1,.1-.23c0-.07,0-.27.15-.18A.21.21,0,0,1,2.93,29.85Zm6.86,4.58,0,.06s-.09,0-.11,0a.51.51,0,0,0-.32,0l-.12,0s0-.08,0-.1.11-.08.14-.13,0-.23.12-.17S9.85,34.23,9.79,34.43Zm15.06-2.82a2,2,0,0,1,.12-.47.46.46,0,0,1,.1-.18,1.81,1.81,0,0,1,.21-.18,2.29,2.29,0,0,0-.1.23,1.37,1.37,0,0,0-.07.29C25.08,31.45,25.05,31.59,24.85,31.61ZM28.58,8.75l.08-.05.09.13c-.26,0,.15.34-.16.34l-.15,0c-.18,0-.09-.06,0-.14S28.5,8.85,28.58,8.75ZM17,30.91a4.31,4.31,0,0,1,.25-.44s.08,0,.12,0,0,.09,0,.12-.1.16-.15.24-.1.14-.14.22a2.63,2.63,0,0,0-.09.3C17,31.18,17,31.07,17,30.91ZM2.18,26.12c0-.19.1-.18.2-.15s.14.12.13.16a.38.38,0,0,1-.16.22c-.06,0-.17,0-.25-.05a.61.61,0,0,0,.08-.18m.17,0,0,0S2.31,26.18,2.35,26.16Zm37.11,7.37c0,.3-.1.57-.16.84,0,0,0,0-.06.06s-.09-.09-.08-.12Q39.3,33.91,39.46,33.53Zm-26.71-.4a2.1,2.1,0,0,1,.13-.55s.09-.08.14-.12l.06.27C12.84,32.76,12.92,33,12.75,33.13ZM3.8,30.32l-.08.06-.17,0a.61.61,0,0,1,0-.13A1.58,1.58,0,0,1,3.73,30s.11-.07.16-.11.13.16,0,.25S3.84,30.26,3.8,30.32Zm53.5,2.76c-.07.07-.16.15-.2.13a1.71,1.71,0,0,1-.26-.21s0,0,.08,0l.36,0s.1-.14.11,0S57.33,33,57.3,33.08ZM11,34.35c0-.09,0-.15,0-.19a.26.26,0,0,1,.31-.08s0,0,.08.05a1.07,1.07,0,0,1-.2.22A.24.24,0,0,1,11,34.35ZM4.8,30.66a1.34,1.34,0,0,1,.11-.39s.12,0,.19-.06,0,.13,0,.15S5.06,30.7,4.8,30.66Zm-2.42.19a2.92,2.92,0,0,1,0-.51s.08-.07.12-.1a.36.36,0,0,0,0,.11A.41.41,0,0,1,2.38,30.85Zm35-14.73a1.17,1.17,0,0,1-.36,0s-.06-.13-.11,0-.07,0-.11.06,0-.09,0-.12.07-.11.11-.1A2.61,2.61,0,0,1,37.38,16.12Zm-5.9-2.66a.58.58,0,0,1,.12-.08c.08.15.16.3.23.46s0,.08-.07.11-.07,0-.07,0C31.73,13.73,31.54,13.63,31.48,13.46ZM8.45,34a1.15,1.15,0,0,0-.08.15l-.06.17c0-.07-.11-.17-.09-.23a2.79,2.79,0,0,1,.24-.45s0,0,.06,0,0,.05,0,.07A1.32,1.32,0,0,1,8.45,34Zm50.37-1.57c0,.07.08.16,0,.18a1,1,0,0,1-.27.17s-.05,0-.05,0S58.55,32.36,58.82,32.38ZM2,26.79c-.23.06,0-.15-.13-.19L2,26.43a.41.41,0,0,1,.12.11.15.15,0,0,1,0,.13S2.08,26.74,2,26.79Zm21.79,3.64c-.16,0-.23.08-.25.21s0,.06,0,.09,0-.08,0-.11c0-.18.09-.36.14-.54,0,0,0,0,.06,0s0,.05,0,.07S23.68,30.36,23.83,30.43Zm-2.67-4.3a1.72,1.72,0,0,1,.14-.22.75.75,0,0,1,0,.21c0,.06-.06.1-.1.16s0,.09-.08.14C21,26.32,21,26.24,21.16,26.13ZM53.42,32.2a.47.47,0,0,1,0-.21s.08-.08.1-.07,0,.07,0,.11a.28.28,0,0,0,.07.09c0,.05.13.1.13.14s-.1-.08-.14,0C53.41,32.61,53.5,32.17,53.42,32.2ZM15.94,30.87a.29.29,0,0,1,0,.16c0,.15-.1.3-.16.45l0,0c0-.15.06-.31.1-.47A.24.24,0,0,1,15.94,30.87ZM35.69,16.2c.1-.14.27-.06.4-.13v.14C36,16.2,35.84,16.37,35.69,16.2ZM8,31.92a1.09,1.09,0,0,1,0,.15c0,.1-.06.21-.08.31A1.13,1.13,0,0,1,7.83,32C7.83,32,7.93,31.93,8,31.92ZM32,14.27a1,1,0,0,1-.08-.19.65.65,0,0,1,.16,0,.26.26,0,0,1,.09.12.43.43,0,0,1,0,.16A1.1,1.1,0,0,1,32,14.27ZM61.07,29.61a3.08,3.08,0,0,1,.13-.34h.07a1.45,1.45,0,0,1,0,.3S61.12,29.63,61.07,29.61Zm0,1.1a.17.17,0,0,1-.21-.16.77.77,0,0,1,.06-.24c0,.07.07.14.09.2A1,1,0,0,1,61,30.71ZM29.74,17.79c0,.21-.2.13-.26.25s-.08,0-.13,0,0-.08.08-.1A1.79,1.79,0,0,1,29.74,17.79ZM46.07,30a.36.36,0,0,1,0-.26s.09-.08.13-.13a.39.39,0,0,1,0,.15A.5.5,0,0,1,46.07,30ZM30.45,17.22s0-.12,0-.14a1.64,1.64,0,0,1,.29-.16h.08s0,.09,0,.1Zm10.1-1.52a.56.56,0,0,1,.21,0,.15.15,0,0,1,0,.09c0,.07-.24.14-.31.08S40.51,15.76,40.55,15.7ZM30,11.28a.55.55,0,0,1,.05.13.29.29,0,0,1-.13-.05l-.27-.28c.18-.09.16.17.29.17A.08.08,0,0,1,30,11.28Zm4.22,5.12a2,2,0,0,1,.35-.11s.07,0,.11.05-.08.09-.12.1A2.23,2.23,0,0,1,34.18,16.4ZM43.3,30.55c.06,0,.13,0,.13.05s0,.26,0,.38l0,0s0,0,0-.05A2.74,2.74,0,0,1,43.3,30.55ZM35.16,16.12l.3.08a.27.27,0,0,1-.32.07C35,16.24,35.06,16.18,35.16,16.12Zm2.76,18.57a.36.36,0,0,1-.08-.15c.07,0,.16-.09.21-.07s.06.13.1.19Zm14.21-2.38a.57.57,0,0,1,0-.12l.06-.26a1.09,1.09,0,0,1,.14.23C52.38,32.33,52.15,32.2,52.13,32.31Zm-44.57.36a1.84,1.84,0,0,1,0,.33.57.57,0,0,1,0,.13s-.06,0-.07,0-.06-.08,0-.11A1.36,1.36,0,0,1,7.56,32.67Zm6.75-3.44a.27.27,0,0,1,0,.18,2.54,2.54,0,0,1-.16.28c-.08-.13,0-.2.08-.29S14.25,29.28,14.31,29.23Zm2.94.83.22.05s-.07.1-.12.12a.63.63,0,0,1-.19,0A.45.45,0,0,1,17.25,30.06ZM9.59,33.77a1.21,1.21,0,0,0,.07-.2s0,.11,0,.15-.07.13-.09.2.13.09,0,.1-.06-.06-.07-.1A.37.37,0,0,1,9.59,33.77ZM34.15,16.4a.5.5,0,0,1-.4.25.23.23,0,0,1,0,0A.53.53,0,0,1,34.15,16.4ZM8.64,33.2c.08.09.08.09,0,.2a.67.67,0,0,1-.15.06l.09-.15A1.33,1.33,0,0,0,8.64,33.2ZM54,31.91a.67.67,0,0,1,0,.25s-.08,0-.12,0-.07,0-.1,0l.07-.08Zm7-1.82c-.07-.06-.08-.28,0-.31l0,0C61.14,29.9,61.14,30,61,30.09ZM33.25,11.33c0-.07.07-.08.09-.12s0-.11.08-.17a.61.61,0,0,1,0,.19,2,2,0,0,1-.13.25A.39.39,0,0,1,33.25,11.33ZM2.34,30.84a.29.29,0,0,1,.07.18,1.28,1.28,0,0,1-.14.21,1.48,1.48,0,0,1,0-.21A.36.36,0,0,1,2.34,30.84Zm34.47,2.82c.14,0,.14,0,.11.05l-.09.28A1.72,1.72,0,0,1,36.81,33.66ZM31.32,8.92a.18.18,0,0,1,.07-.1.42.42,0,0,0,0-.1.18.18,0,0,1,0,.09.63.63,0,0,1,0,.19s0,.06-.07.08A.71.71,0,0,0,31.32,8.92ZM2.41,23.81c0-.17.13-.2.21-.29l0,.05A1.93,1.93,0,0,1,2.41,23.81ZM2.36,28a.08.08,0,0,1,0,.08l-.12.27s-.06-.08,0-.1a.83.83,0,0,1,.09-.16A.28.28,0,0,1,2.36,28Zm.46-4.83c0-.17.12-.2.2-.29l0,0A2.72,2.72,0,0,1,2.82,23.14Zm59.3,6.6a.08.08,0,0,1,0-.08c0-.09.08-.18.11-.27s.06.07.06.09a.83.83,0,0,1-.09.16A.3.3,0,0,1,62.12,29.74ZM31,33a.13.13,0,0,1,.07-.09,1.62,1.62,0,0,1,.22,0l-.2.11S31,33.07,31,33Zm-8.89-5s-.06,0-.05,0a2.53,2.53,0,0,1,.13-.22l0,0A2,2,0,0,1,22.11,28.06ZM42.05,16.88s.06.06.05.09-.09.17-.13.26l0,0,.1-.27A.33.33,0,0,1,42.05,16.88Zm-2.41-2.29c0,.05,0,.09-.07.09h-.22l.2-.12S39.6,14.57,39.64,14.59Zm-35.71,16A1.73,1.73,0,0,1,4,30.24h.07C4.17,30.41,4,30.44,3.93,30.55Zm34,4.14s0,.06,0,.06l-.29,0V34.7Zm-1.22-.31c0-.1,0-.16.05-.22s0,.1,0,.15a.88.88,0,0,1,0,.16c0,.05,0,.09-.07.14ZM2.88,29.31A1.4,1.4,0,0,1,3,28.93C3,29.07,3.07,29.23,2.88,29.31ZM25.4,30.37a.1.1,0,0,1,0-.06l.14-.21,0,0a1.13,1.13,0,0,1-.09.2A.06.06,0,0,1,25.4,30.37ZM8.68,33a.12.12,0,0,1,0-.1l.06-.26,0,0C8.71,32.8,8.91,33,8.68,33ZM28.25,10.33c-.09,0-.14,0-.18,0S28,10.3,28,10.27s.05,0,.08,0l.29.06v0S28.3,10.33,28.25,10.33Zm17,18.89a1.32,1.32,0,0,1-.08-.19.46.46,0,0,1,.13.08.5.5,0,0,1,.08.12s0,.05-.07.07Zm-15-24.9a.31.31,0,0,1,.12-.13.17.17,0,0,1,.1,0s0,.06,0,.07A.27.27,0,0,1,30.17,4.32ZM16,30.87a.11.11,0,0,1,0-.08.94.94,0,0,1,.06-.15l.1,0-.08.15S16,30.86,16,30.87Zm21.5-17.34s0,0,0,0l.19,0-.08.15A.72.72,0,0,1,37.47,13.53ZM57.07,32.8c-.17,0-.13-.08-.12-.17l0-.05A.63.63,0,0,1,57.07,32.8Zm-21.8,1a.33.33,0,0,1,0,.2s-.1.06-.15.09a.57.57,0,0,1,0-.14A.4.4,0,0,1,35.27,33.81ZM5.22,29.67a.18.18,0,0,1,.16,0l-.16.16Zm29.47,4.65a1.21,1.21,0,0,0-.07.2.74.74,0,0,1,0-.14c0-.09,0-.23.16-.12v0Zm-22.24-.43s0,.09,0,.11a.76.76,0,0,1-.14.11.25.25,0,0,1,0-.07C12.31,34,12.29,33.85,12.45,33.89ZM3.78,31a.57.57,0,0,1-.16.13V31A.24.24,0,0,1,3.78,31Zm44.28.23-.15.11-.06,0s0-.06,0-.07S47.93,31.09,48.06,31.24ZM30.16,7.76a.57.57,0,0,1-.1.11s0,.07,0,.1,0,0,0-.07S30,7.68,30.16,7.76Zm30.23,23a.06.06,0,0,1,0-.05,1.24,1.24,0,0,1,.18-.14l0,0C60.53,30.67,60.57,30.85,60.39,30.79Zm-32.69.7a0,0,0,0,1,0,.05l-.18.15,0,0C27.56,31.61,27.52,31.43,27.7,31.49Zm-.47.08a.3.3,0,0,1,0-.16l.18.05A.41.41,0,0,1,27.23,31.57Zm4.06,1.07.11-.09,0,.23-.12-.09S31.26,32.67,31.29,32.64Zm8.3.15c0-.06.06-.11.11-.11s.06.06.1.1A.72.72,0,0,1,39.59,32.79ZM61.13,29a.6.6,0,0,1,0,.2L61,29A.31.31,0,0,1,61.13,29ZM3.89,30.55a.19.19,0,0,1,0,.15.4.4,0,0,1-.13.07s0-.07.05-.1A.42.42,0,0,1,3.89,30.55Zm12.67-1.27s.05,0,.05,0,0,.19-.05.28A1.4,1.4,0,0,1,16.56,29.28ZM4.76,30.65s0,0,0,0l.06.17s0,0-.06,0S4.62,30.74,4.76,30.65ZM20,26.49a.27.27,0,0,0-.12-.06l.18,0v.15h0ZM3.43,31.21a.09.09,0,0,1,0,.11l-.07.12s0-.09,0-.14A.19.19,0,0,1,3.43,31.21Zm60.14-7.78a.4.4,0,0,0,.06.13H63.5l0-.21h0S63.57,23.38,63.57,23.43Zm-55.34,11a.6.6,0,0,1-.09.13l-.06-.08A.33.33,0,0,1,8.23,34.45Zm18.05-4.09s0,0,0,0a2.33,2.33,0,0,1-.05.28A1,1,0,0,1,26.28,30.36Zm-23-1.46a.27.27,0,0,0-.06.12l0-.18h.15v0Zm42.76,1.38a.2.2,0,0,1-.06-.11.36.36,0,0,0,0-.11.36.36,0,0,1,.11.1S46.12,30.23,46.09,30.28Zm1.77,1.44-.07.14-.06-.15A.15.15,0,0,1,47.86,31.72ZM40.51,17.56a.75.75,0,0,1-.13-.15s.06,0,.07,0A.35.35,0,0,1,40.51,17.56Zm9.38,14.56s-.08,0-.08,0a1.25,1.25,0,0,1,0-.19A.41.41,0,0,1,49.89,32.12ZM2.38,25.25c0,.14,0,.17-.14.13a1.24,1.24,0,0,1,.1-.2h0S2.38,25.2,2.38,25.25Zm14.45,3.64c0,.14,0,.18-.15.13s.07-.13.11-.2h0S16.83,28.84,16.83,28.89Zm1.74-1.33s-.05,0,0,0a2.33,2.33,0,0,1,0-.28A1.45,1.45,0,0,1,18.57,27.56Zm10.78,5.25.11-.17,0,.17ZM28.79,8.32a.6.6,0,0,1-.09.15l-.06-.08A.52.52,0,0,1,28.79,8.32Zm7.57,25.36s0,0,0,0l.28,0A1,1,0,0,1,36.36,33.68ZM56.14,32.2a.43.43,0,0,1,0-.12l.1.14A.3.3,0,0,1,56.14,32.2ZM14.12,30a.13.13,0,0,1,.07-.09V30h0Zm26.63,3.18s0,.08,0,.13l-.12,0Zm19.33-1.24c0,.08,0,.11,0,.14l0,0a1.21,1.21,0,0,1,0-.18h0S60.08,31.84,60.08,31.89ZM24.81,31.6c0,.06,0,.11.06.15h-.1A.28.28,0,0,1,24.81,31.6Zm7.41,1.13c.05,0,.1,0,.15.06A.22.22,0,0,1,32.22,32.73ZM3.32,26.32s0,0,0,0l.07-.19A1,1,0,0,1,3.32,26.32Zm51.51,6.13a.28.28,0,0,1,0-.13s0,0,.05-.08l0,.06A.31.31,0,0,1,54.83,32.45Zm8.67-9.73a.6.6,0,0,1,0,.16s0,0,0,.06,0-.06,0-.09A.83.83,0,0,1,63.5,22.72ZM40.56,33.88a.25.25,0,0,1-.06.16A.25.25,0,0,1,40.56,33.88ZM63.44,22.51a.91.91,0,0,1-.06-.16s0,0,0-.05,0,.05,0,.08A.3.3,0,0,1,63.44,22.51ZM11.28,33.83s-.1,0-.15-.06A.24.24,0,0,1,11.28,33.83Zm20-17.15-.12,0,.13-.1A.17.17,0,0,1,31.31,16.68ZM38,16.39a.33.33,0,0,1,0,.12l-.1-.13Zm.11-.08c-.07-.17,0,0,.09-.07l.05.06ZM7.5,33.3a.62.62,0,0,1,0,.14s0,0,0,0a1.21,1.21,0,0,1,0-.18h0S7.5,33.25,7.5,33.3Zm35.66-1.75c-.17.07,0,0-.07-.09l.06-.05S43.16,31.48,43.16,31.55Zm-6.84,2.53a.34.34,0,0,1,.12-.12s0,.06,0,.07A.29.29,0,0,1,36.32,34.08Zm1.46-21a.59.59,0,0,1,.16-.06s0,0,.06,0l-.09,0A.31.31,0,0,1,37.78,13.07ZM33,11.86a.62.62,0,0,1-.07.23A.39.39,0,0,1,33,11.86Zm-4-1.14a.41.41,0,0,1-.11-.12l.06,0A.25.25,0,0,1,29,10.72ZM2,26.83s0,.05.06.08L2,27A.38.38,0,0,1,2,26.83ZM34.18,10.94a.08.08,0,0,1-.07,0,.75.75,0,0,0-.07-.12l.06,0A1,1,0,0,1,34.18,10.94Zm-6.69-1,0,0-.19-.07A.86.86,0,0,1,27.49,10ZM37.85,34.5a.29.29,0,0,1-.15-.09l0,0A.87.87,0,0,1,37.85,34.5ZM22.91,29.38a0,0,0,0,1,0,0c0,.06-.05.12-.07.19A.86.86,0,0,1,22.91,29.38Zm27,3.38a.25.25,0,0,1-.16-.06A.25.25,0,0,1,49.9,32.76Zm-44-.13a.62.62,0,0,1,0,.14l-.05,0a1.21,1.21,0,0,1,.05-.18h0S5.9,32.58,5.9,32.63ZM28.83,8.32c0-.11.08-.09.13,0s0,.08,0,.12A.76.76,0,0,0,28.83,8.32ZM3.16,31.66a.42.42,0,0,1,0-.15l.09.12Zm4.44,1a0,0,0,0,1,0,0,1.07,1.07,0,0,0,.07-.19A.86.86,0,0,1,7.6,32.67Zm13.26-2.88a.16.16,0,0,1,.07-.09v.15h0Zm-2.95-.35a.24.24,0,0,1-.1-.06H18v0Zm8.89.9a.15.15,0,0,1,0,.12l0,0A.17.17,0,0,1,26.8,30.34Zm15.91,2.28s0,0,0-.08S42.74,32.6,42.71,32.62Zm-16-1.89s-.06,0-.11,0v-.05A.27.27,0,0,1,26.67,30.73ZM16.4,29.8s0,0-.08,0S16.38,29.77,16.4,29.8ZM23,29.38a.59.59,0,0,1,0-.13H23A.37.37,0,0,1,23,29.38Zm30.4,3.29s0-.07-.06-.11h.05S53.35,32.62,53.35,32.67ZM18.23,28.36a.23.23,0,0,1,0,.12l0,0S18.2,28.38,18.23,28.36Zm6.37.32a.15.15,0,0,1,0-.11h.05A.26.26,0,0,1,24.6,28.68ZM52.43,31.8a.21.21,0,0,1,0,.11h0A.17.17,0,0,1,52.43,31.8ZM16.31,30.05a.15.15,0,0,1,0,.11H16.3A.26.26,0,0,1,16.31,30.05Zm30.75.83a.21.21,0,0,1,0-.11h0A.17.17,0,0,1,47.06,30.88Zm-7.52,2.3a.43.43,0,0,1,0-.12l0,0S39.58,33.17,39.54,33.18ZM3.08,28.93a.68.68,0,0,1,0-.14l0,0A.37.37,0,0,1,3.08,28.93Zm40.61.85s.05,0,.08,0S43.71,29.81,43.69,29.78Zm16.72,1.85a.14.14,0,0,1-.11,0v-.05A.26.26,0,0,1,60.41,31.63ZM2,24.4a.24.24,0,0,1,.06-.15A.2.2,0,0,1,2,24.4Zm11.75,6.05s.05,0,.07,0S13.79,30.48,13.77,30.45ZM2.12,24.26a.32.32,0,0,1,0-.14l0,0A.37.37,0,0,1,2.12,24.26ZM41,33.7s0,0-.08,0S41,33.67,41,33.7ZM2.38,23.81a.59.59,0,0,1,0,.13h0A.25.25,0,0,1,2.38,23.81Zm43.4,4.36a.14.14,0,0,1,0-.11h0A.3.3,0,0,1,45.78,28.17ZM3.6,22.27a.34.34,0,0,1,0,.14l-.05,0A.37.37,0,0,1,3.6,22.27ZM27,32.12a.33.33,0,0,1,0,.12l0,0S27,32.14,27,32.12Zm1.54.19a.19.19,0,0,1,.11,0v0C28.58,32.36,28.54,32.34,28.53,32.31Zm35.23-7.92a.21.21,0,0,1-.12,0l0-.05A.17.17,0,0,1,63.76,24.39ZM28.14,19.28s.05,0,.08,0S28.16,19.31,28.14,19.28Zm-26.38,10a.16.16,0,0,1,0,.12H1.75A.27.27,0,0,1,1.76,29.27ZM28.82,18.78a.23.23,0,0,1-.12,0l0-.05A.17.17,0,0,1,28.82,18.78Zm34.62,3.77a.53.53,0,0,1,.06.13A.31.31,0,0,1,63.44,22.55Zm-.22-.7a.15.15,0,0,1,0-.12l0,0A.17.17,0,0,1,63.22,21.85Zm-21.73-3s0,.07,0,.12h-.05A.17.17,0,0,1,41.49,18.89Zm-.24,0a.33.33,0,0,1,.12,0l0,.05S41.27,18.9,41.25,18.86ZM12.73,30.94a.14.14,0,0,1,0-.11h.05A.53.53,0,0,1,12.73,30.94ZM32.5,17.42a.21.21,0,0,1,0,.12l-.05,0A.17.17,0,0,1,32.5,17.42ZM31,16.71a.18.18,0,0,1,.11,0v.05A.27.27,0,0,1,31,16.71Zm31.67,3.46a.19.19,0,0,1,0-.11h0C62.67,20.12,62.65,20.16,62.62,20.17Zm-22-4.12s0,0,.08,0S40.63,16.08,40.61,16.05ZM13.73,31.22s0-.07,0-.11h.05A.27.27,0,0,1,13.73,31.22ZM40.38,15.76a.24.24,0,0,1-.12,0l0-.05A.17.17,0,0,1,40.38,15.76Zm-.11-.23s0,0,.08,0S40.29,15.56,40.27,15.53ZM35.7,14.9s-.05,0-.07,0S35.68,14.87,35.7,14.9Zm2.44,19.34a.32.32,0,0,1,0-.14l.05,0A.34.34,0,0,1,38.14,34.24Zm-.48-21.11a.35.35,0,0,1-.12.07v-.06Zm.44,21.1a.34.34,0,0,1,0,.14l0,0A.37.37,0,0,1,38.1,34.23ZM25.36,9.57l-.12,0,0-.05S25.34,9.53,25.36,9.57Zm-.61-.14s0,.06,0,.08A.08.08,0,0,1,24.75,9.43Zm-2-.25-.11,0V9.11C22.71,9.13,22.75,9.14,22.76,9.18Zm9.75.32a.54.54,0,0,1,.06.11h0A.41.41,0,0,1,32.51,9.5Zm-2.95-.77s0,0-.08,0S29.54,8.7,29.56,8.73ZM13.4,32s0-.06,0-.11h.05A.17.17,0,0,1,13.4,32ZM29.6,8.55a.23.23,0,0,1,0-.12l0,0A.17.17,0,0,1,29.6,8.55Zm1.68,0,.12,0,0,0S31.3,8.59,31.28,8.55Zm5.33,26.22s0,0-.08,0S36.59,34.74,36.61,34.77ZM29.84,8.22a.15.15,0,0,1-.11,0v0A.26.26,0,0,1,29.84,8.22Zm6.35,26.9.11-.06v.06Zm0,0-.11.06v0Zm-24.3-2.2a.21.21,0,0,1,0-.11h0A.17.17,0,0,1,11.85,32.92ZM6.6,32.33s0,0,0,.06S6.59,32.36,6.6,32.33ZM3.45,31.6s0,0,0-.06A.06.06,0,0,1,3.45,31.6Zm4.4,1s0,0,0,.06S7.84,32.59,7.85,32.56Zm.27-.89s0,0,.05,0S8.15,31.68,8.12,31.67Zm17.37,1.94a.08.08,0,0,1,.05-.08S25.53,33.58,25.49,33.61ZM36.2,34.7s0,0,0-.05S36.21,34.68,36.2,34.7ZM12.91,33.44s0,0,0,0A.08.08,0,0,1,12.91,33.44Zm22.22.86s0,0-.06,0S35.1,34.29,35.13,34.3Zm-1.78-.21s0,0,0,0A.05.05,0,0,1,33.35,34.09ZM2.69,30.23s0,0,.05,0A0,0,0,0,1,2.69,30.23Zm-1.24-.35s0,0,0,.05S1.44,29.91,1.45,29.88ZM6.09,33s0,0,0-.05A0,0,0,0,1,6.09,33Zm29.22.87s0,0,0-.07A.11.11,0,0,1,35.31,33.82ZM4.05,29.93S4,30,4,30,4,30,4.05,29.93Zm0,0a.13.13,0,0,1,0-.07S4.11,29.91,4.08,29.93ZM27,32.48s0,0,.06,0A0,0,0,0,1,27,32.48ZM11.5,33.84s0,0,0-.06A.06.06,0,0,1,11.5,33.84Zm18.18-1.31s.05,0,.07,0A.11.11,0,0,1,29.68,32.53Zm-2.23-.23s0,0,0,0A0,0,0,0,1,27.45,32.3Zm-24.61-3a.15.15,0,0,1,0,.07A.11.11,0,0,1,2.84,29.3Zm26.84,3.19s0,0-.07,0S29.66,32.46,29.68,32.49ZM4.08,29.31s0,0,0,.06S4.07,29.34,4.08,29.31Zm-.87-.1s0,0,0,.05S3.2,29.24,3.21,29.21Zm26.68,3s0,0,0,.06A.07.07,0,0,1,29.89,32.23ZM16.14,30.51s0,0-.06,0S16.11,30.5,16.14,30.51Zm11,1.23s0,0-.05,0S27.08,31.73,27.11,31.74ZM5.66,33.8s0,.05,0,.07A.11.11,0,0,1,5.66,33.8ZM3.2,28.65s0,0,0,.05S3.19,28.68,3.2,28.65Zm.28,0s0,0,0-.06S3.49,28.61,3.48,28.64ZM40.93,33s0,0,.06,0S41,33,40.93,33Zm1.51.06s0,0,0,.05A0,0,0,0,1,42.44,33Zm-1.36-.28s0,0,0-.06A.06.06,0,0,1,41.08,32.73ZM14.51,29.08s0,0,.05,0A0,0,0,0,1,14.51,29.08Zm28.11,2.79s0,0,0-.05S42.63,31.84,42.62,31.87Zm-21-2.59s0,0,0-.06A.07.07,0,0,1,21.57,29.28Zm28.26,3.23a.1.1,0,0,1,0,.07S49.8,32.53,49.83,32.51Zm0,0s0,0,0-.07S49.89,32.49,49.86,32.51Zm7,.7s0,0,0,.06A.06.06,0,0,1,56.9,33.21ZM42.69,31.32s0,0,0-.06A.07.07,0,0,1,42.69,31.32ZM21.51,28.39s0,0,0-.05S21.52,28.36,21.51,28.39Zm35.92,4.07a.11.11,0,0,1,0,.07A.09.09,0,0,1,57.43,32.46Zm-35.5-4.24a.09.09,0,0,1,0,.07A.11.11,0,0,1,21.93,28.22Zm35.54,4.24s0,0,0-.07S57.5,32.44,57.47,32.46ZM22,28.23a.1.1,0,0,1,0-.07A.17.17,0,0,1,22,28.23Zm26.16,2.7s0,0,.06,0A.06.06,0,0,1,48.13,30.93ZM3,25.34s0,0,0,.05A.06.06,0,0,1,3,25.34Zm44.3,4.92s0,0,.06,0A0,0,0,0,1,47.25,30.26ZM18.39,26.74s0,0,.05,0S18.42,26.75,18.39,26.74Zm25.44,2.67s0,0,0,.06A.06.06,0,0,1,43.83,29.41Zm-.23,0s0,0,0,.05S43.59,29.42,43.6,29.39ZM2.85,24.56s0,0,0,0A0,0,0,0,1,2.85,24.56ZM2,24.4s0,.05,0,.07S2,24.42,2,24.4Zm57.47,6.28s0,0,0,0S59.48,30.69,59.45,30.68ZM21.52,25.61s0,.05,0,.07A.11.11,0,0,1,21.52,25.61Zm0,0s0-.05,0-.07A.08.08,0,0,1,21.56,25.62Zm0-.1s0,0-.07,0S21.53,25.49,21.55,25.52ZM2.78,23.13a.1.1,0,0,1,0,.07A.17.17,0,0,1,2.78,23.13Zm59.3,6.6a.1.1,0,0,1,0,.07S62.05,29.75,62.08,29.73ZM3.64,22.28s0-.05,0-.08S3.67,22.25,3.64,22.28Zm57.68,6.78s0,0,0,0S61.35,29.07,61.32,29.06ZM3.73,22.21s0-.05,0-.07A.11.11,0,0,1,3.73,22.21Zm.85-.78a.21.21,0,0,1,0,.07A.11.11,0,0,1,4.58,21.43Zm0,0s0,0,0-.07A.09.09,0,0,1,4.62,21.43Zm.43-.28s0,0,.06,0A.06.06,0,0,1,5.05,21.15Zm58.27,5-.07,0A.09.09,0,0,1,63.32,26.18Zm.14-3s0,0,.06,0A.06.06,0,0,1,63.46,23.16Zm-34.35-4.8s0,0,0,.07A.09.09,0,0,1,29.11,18.36Zm0,0a.21.21,0,0,1,0-.07A.11.11,0,0,1,29.15,18.36Zm34.19,3.78s0,0,0,.06A.07.07,0,0,1,63.34,22.14ZM29.78,17.8a.09.09,0,0,1,0-.07A.13.13,0,0,1,29.78,17.8Zm11.64.84a.13.13,0,0,1,.07,0S41.44,18.67,41.42,18.64Zm0,0s0,0-.07,0S41.4,18.58,41.42,18.61ZM31.7,16.08s0,0,0,0S31.71,16.05,31.7,16.08Zm3.22.19s0,0,0,.05S34.91,16.3,34.92,16.27Zm1.7-.2s0,0,0,.06A.07.07,0,0,1,36.62,16.07ZM32,14.52a.1.1,0,0,1-.07,0S32,14.49,32,14.52Zm7.2.18s0,0,0,.05S39.18,14.73,39.19,14.7Zm-.09-.57s0,0,0,0S39.09,14.16,39.1,14.13Zm-1.63-.64a.11.11,0,0,1-.07,0A.09.09,0,0,1,37.47,13.49ZM35.63,13s0,0,0,0S35.66,13,35.63,13Zm-.34,0a.11.11,0,0,1-.07,0A.09.09,0,0,1,35.29,13Zm2.45.08s0,0-.05.07S37.71,13.09,37.74,13.07Zm-3.07-.39s0,0,0-.06S34.68,12.65,34.67,12.68Zm.1-.55s0,0,.06,0A.06.06,0,0,1,34.77,12.13Zm-1.72-.27s0,0,0-.07A.09.09,0,0,1,33.05,11.86Zm1.13-.44s0,0,0-.06S34.19,11.39,34.18,11.42Zm-5-.6s0,0,0,0S29.2,10.83,29.17,10.82ZM19.29,9.48s0,0,0-.05S19.3,9.45,19.29,9.48ZM34.17,11a.09.09,0,0,1,.07,0A.11.11,0,0,1,34.17,11Zm-6.68-1,.07,0S27.51,10.05,27.49,10Zm6.29.35s0,0,0,.06A.07.07,0,0,1,33.78,10.37Zm-1.27-.91-.07,0A.09.09,0,0,1,32.51,9.46ZM28,6.84s0,0,0,0S28,6.81,28,6.84Zm1.14-1.46s0,0,0-.06A.06.06,0,0,1,29.14,5.38Zm1.6-1.65s0,0,.05,0A.06.06,0,0,1,30.74,3.73Zm1.1-.89a.11.11,0,0,1,0,.07A.11.11,0,0,1,31.84,2.84Zm0,0s0,0,0-.07S31.91,2.82,31.88,2.84Zm1.24-.65a.15.15,0,0,1,0,.07A.11.11,0,0,1,33.12,2.19Zm0,0a.15.15,0,0,1,0-.07A.13.13,0,0,1,33.16,2.2ZM18.67,30.09a.08.08,0,0,1-.05.07l-.18.18a.74.74,0,0,1,0-.3C18.53,29.88,18.59,30,18.67,30.09Zm.24-1.19c0-.08,0-.12,0-.15a.36.36,0,0,1,.1-.07s.06.09,0,.11A1.13,1.13,0,0,1,19,29h0S18.91,29,18.91,28.9Zm.33.1a.71.71,0,0,1,.05.16.41.41,0,0,1,0,.11s-.09,0-.1-.05a1.83,1.83,0,0,1-.06-.25l0,0S19.2,29,19.24,29Zm24.55,3.11a.09.09,0,0,1,0,.07A.11.11,0,0,1,43.79,32.11Zm0,0s0,0,0-.07S43.86,32.09,43.83,32.11Zm1.24-1.19a.1.1,0,0,1,.07,0A.17.17,0,0,1,45.07,30.92Zm0,0s0,0-.07,0A.11.11,0,0,1,45.08,30.88Z"/></g></g></svg>