<svg xmlns="http://www.w3.org/2000/svg" viewBox="0 0 245.24 110.88"><defs><style>.cls-1{fill:#fff;}.cls-2{fill:#15a600;}.cls-3{fill:#754c24;}.cls-4{fill:#b3b3b3;}.cls-5{fill:#e6e6e6;}</style></defs><title>cartoon-mountain-large</title><g id="Layer_2" data-name="Layer 2"><g id="cartoon-mountain-2"><path id="void" class="cls-1" d="M244.84,103a1.21,1.21,0,0,1-.37.28c-.84.19-1.69.37-2.54.53-.31.06-.4-.1-.19-.33s0-.36-.16-.45a.39.39,0,0,0-.35.1c-.26.42-.69.38-1.1.37a15.94,15.94,0,0,1-2.17-.11,7.48,7.48,0,0,0-2.25.12c-1.3.16-2.63,0-4,.22a10,10,0,0,1-2.25-.08c-1.55-.12-3.12-.08-4.67-.13-2.18,0-4.37.13-6.55.21a2.9,2.9,0,0,0-.55.17,3.42,3.42,0,0,1-.82.17,11.73,11.73,0,0,0-2.71.38,9.38,9.38,0,0,0-3,1.22c-.16.1-.33.44-.27.53.42.63.71,1.37,1.55,1.64a1.25,1.25,0,0,1,.24.16c-.07.06-.14.16-.22.17-.87.13-1.77.18-2.62.39a10.89,10.89,0,0,1-2.89.35,2.26,2.26,0,0,0-.45,0l-2.91.52c-.57.11-1.15.25-1.72.35-.39.08-.79.14-1.18.18s-.65-.08-.88,0a3.54,3.54,0,0,1-1.67.13c-1,0-1.26-.48-.8-1.28a2.22,2.22,0,0,0,.12-.79c-.25,0-.51-.07-.77-.07s-.24.14-.37.16l-3.8.55c-1.32.19-2.66.34-4,.56s-2.48.37-3.72.54a7.53,7.53,0,0,0-1.52.2,12,12,0,0,1-2.8.18c-.25,0-.15-.07-.08-.22a3.46,3.46,0,0,1,1.56-1.67c.12-.07.26-.29.23-.4s-.25-.19-.4-.25a.87.87,0,0,0-.36,0c-.81.06-1.62.1-2.43.2-1.15.15-2.29.43-3.44.52-1.79.14-3.59.17-5.39.24-.74,0-1.49,0-2.23,0-3,0-5.92,0-8.88-.08-.28,0-.59-.21-.82-.13a10.11,10.11,0,0,1-2.05.15,15.23,15.23,0,0,1-1.79,0l-1.79,0h-1.79c-.55,0-1.09.06-1.64,0-1.86-.08-3.71-.09-5.57-.13a1.22,1.22,0,0,1-.27,0,.32.32,0,0,1-.21-.54,12.49,12.49,0,0,1,2.51-2.18c.6-.5,1.37-.82,1.64-1.65.14-.42-.16-.53-.34-.54a15.38,15.38,0,0,0-3.58-.09c-.88.16-1.72-.17-2.57.11-.28.1-.66-.14-1-.12a4.14,4.14,0,0,1-2.06-.41,1.85,1.85,0,0,0-1-.22,8.21,8.21,0,0,1-1.39.15,18.63,18.63,0,0,1-2-.15c-1.11-.17-2.14.38-3.27.25a23.77,23.77,0,0,0-3.58,0,7.62,7.62,0,0,0-1.79.21,7.3,7.3,0,0,1-3.18.12,12.54,12.54,0,0,0-2.28-.26c-.4,0-.79-.23-1.2,0-.09,0-.27-.06-.4-.07s-.4-.1-.48,0-.34.11-.51,0-.27-.19-.37-.16c-.57.2-1-.19-1.52-.28-.3-.05-1.21.07-.37-.63,0,0,0-.16,0-.22-.29-.65-.55-1.31-.88-1.94a.85.85,0,0,0-.58-.43,12.66,12.66,0,0,0-3.07.16c-.86.27-1.15,0-1.18-.85a.47.47,0,0,0,0-.17c0-.1-.06-.19-.09-.29l-.19.18-.19.13c0-.08-.08-.17-.05-.22s.21-.31.3-.48a.43.43,0,0,0-.25-.61c-.35-.17-.49-.25-.42-.34.24-.35,0-.52-.25-.62a5.12,5.12,0,0,0-1.46-.53,20.21,20.21,0,0,0-4-.33c-1.07.06-2.15,0-3.22,0-.22,0-.44-.09-.67-.1-.9-.05-1.7-.5-2.62-.58a3.24,3.24,0,0,0-1.94.41,15,15,0,0,0-1.67,1,5.91,5.91,0,0,0-2.12,2.6,7.76,7.76,0,0,0-.14,2,2,2,0,0,0,.72,1.75c.4.37.79.74,1.2,1.1a2.26,2.26,0,0,0,.43.24l-.45.13a2.79,2.79,0,0,1-.47.14c-1.77.08-3.53.07-5.3.19a76.67,76.67,0,0,0-7.72.45c-1.32.23-2.65.43-4,.54-1.52.14-3,.16-4.58.23a1.32,1.32,0,0,1-.34,0l-1.39-.27c-.37.5-.93-.33-1.32.17,0,0-.25-.06-.39-.08a2.3,2.3,0,0,0-.68-.06,3.83,3.83,0,0,1-1.75-.17c-.1,0-.24-.16-.23-.23a1.65,1.65,0,0,1,.23-.74,14.45,14.45,0,0,1,1-1c1.65-1.58,3.26-3.19,5-4.74a13.24,13.24,0,0,1,1.83-1.1,4.86,4.86,0,0,0,.6-.6,4,4,0,0,0-.84,0c-.71.13-1.4.38-2.12.46-1.1.13-2.21.15-3.32.23-.81,0-1.62.1-2.43.2a18.12,18.12,0,0,1-1.91.32c-.68,0-1.26.34-1.9.37-1.25,0-2.47.21-3.7.37s-2.52.16-3.77.23l-3.33.2c-.35,0-.69.12-1,.14-.76.06-1.53.1-2.29.13a2,2,0,0,1-.59-.07.39.39,0,0,1-.09-.25c.16-.1.34-.16.51-.25.44-.22.89-.44,1.31-.68.07,0,.07-.19.07-.28s-.15-.07-.23-.06a18,18,0,0,0-2.33.22,10.63,10.63,0,0,1-2.18.33l-2.24,0a2.07,2.07,0,0,0-1.4.28c-.06.05-.19.1-.23.07-.59-.34-1.22-.07-1.82-.14a2.86,2.86,0,0,1-.93-.13c-.29-.13-.73,0-1.11,0a5.08,5.08,0,0,0-1,0,7.38,7.38,0,0,1-3.33.1c-1-.22-2.09-.13-3.11-.39a5.7,5.7,0,0,0-1.43,0c-.46,0-.91.2-1.38,0-.08,0-.2.06-.31.08a2.46,2.46,0,0,1-.59.08.37.37,0,0,1-.25-.21c0-.06.09-.21.17-.23.28-.06.28-.23.33-.46a1.68,1.68,0,0,1,.51-1.07,1,1,0,0,0,.32-.7c0-.56.37-.94.55-1.4,0,0,.08-.08.13-.11a.83.83,0,0,1,0,.15c0,.08,0,.19,0,.24-.19.18-.24.36-.05.57l.31-.47c0-.07.13-.15.12-.21-.1-.59.25-.72.78-.69.09,0,.18-.06.26-.1-.08-.07-.16-.2-.26-.22a3.94,3.94,0,0,0-.77-.06c-.89,0-1.77-.07-2.66,0a14,14,0,0,1-1.38.27,2.3,2.3,0,0,0-.95.19,3.83,3.83,0,0,1-1.18.17c-.4,0-.91.1-1.17-.09a.5.5,0,0,0-.71.06.74.74,0,0,1-.82.16A2.49,2.49,0,0,0,15.12,94a21.71,21.71,0,0,1-3.42.39c-.93,0-1.86-.1-2.79-.12a9.66,9.66,0,0,1-2-.3c-.77-.17-1.57-.23-2.36-.33a8.44,8.44,0,0,1-1.61-.2,4,4,0,0,0-1.45-.07l-.23,0c0-.07,0-.19.08-.21.46-.19.92-.36,1.38-.53a8.23,8.23,0,0,0,1.23-.47,5.38,5.38,0,0,1,3.26-.93,4.39,4.39,0,0,0,2-.36.4.4,0,0,0,.24-.6,1.16,1.16,0,0,0-.87-.66,1.6,1.6,0,0,1-.86-.45c-.9-1-2.21-1.32-3.21-2.11l-.28-.21c.14,0,.33-.18.43-.13a4.49,4.49,0,0,0,1.92.32A8.46,8.46,0,0,1,8,87.3,7.65,7.65,0,0,1,9.82,88a2.2,2.2,0,0,1,1.08,1c.26.53.43.94,0,1.42a.57.57,0,0,0-.14.28,2.31,2.31,0,0,0,.05.46c.16,0,.39,0,.48-.13a11.87,11.87,0,0,0,1.19-1.48c.46-.74.84-1.53,1.23-2.31a2.2,2.2,0,0,0,.18-.68c.07-.43-.27-.86,0-1.3a10.46,10.46,0,0,0-1.15-3,1,1,0,0,1-.14-.36s.13-.11.16-.11a9,9,0,0,1,3.07,2.43,4.82,4.82,0,0,1,.53,2.07,16.12,16.12,0,0,1-.27,2.13c0,.94-.72,1.47-1.13,2.19-.79.13-.57.63-.46,1.1a1.59,1.59,0,0,0,.12.27c.12-.06.31-.1.34-.2a2.05,2.05,0,0,1,1.08-1,3.13,3.13,0,0,1,1.63-.37c.48,0,1-.2,1.45-.15.8.09,1.58.35,2.38.44.39,0,.91.21,1.21-.16s-.06-.77-.22-1.12A4.11,4.11,0,0,1,22,86.7a1.35,1.35,0,0,1,.19-.43c.15.1.36.17.44.31.18.32.22.73.46,1a2.62,2.62,0,0,1,.73,2.18c0,.1.07.29.15.31a.43.43,0,0,0,.39-.09c.48-.53.92-1.11,1.41-1.64.73-.78,1.21-1.81,2.38-2.16.45-.14.91-.25,1.37-.36a1.13,1.13,0,0,1,.26,0,3,3,0,0,1-.1.32c-.28.65-.87,1.09-1.21,1.73a29.37,29.37,0,0,1-1.83,2.67,1.57,1.57,0,0,0-.12.45A1.59,1.59,0,0,0,27,91a11.08,11.08,0,0,0,1.84-.5c.55-.25,1.12,0,1.63-.19A23.79,23.79,0,0,1,35,89.79h.09c2.63,0,5.26-.12,7.89.09.09,0,.19,0,.27,0,1.35.49,2.82.26,4.19.61.58.15,1.21.07,1.8.18a19.88,19.88,0,0,1,2.66.66c.35.12.57,0,.65-.17s0-.5-.36-.53a1.55,1.55,0,0,1-1-.54c-.42-.42-.3-.83.21-1.17a2.11,2.11,0,0,1,1.21-.33c.25,0,.49-.12.74-.15a2,2,0,0,1,.88,0c.77.31,1.68-.09,2.38.46a18.86,18.86,0,0,0,3.6-.19c.26-.07.56-.06.55-.37,0-.06-.43-.12-.67-.14a1,1,0,0,0-.35.11c0-.16,0-.35.08-.45a1.63,1.63,0,0,1,1.21-.7A4.69,4.69,0,0,0,62.4,87a7.85,7.85,0,0,1,3.51,0,3.13,3.13,0,0,0,1.58,0,.71.71,0,0,1,.4,0c.06.35.24.15.43.14s.67.17,1,0c0,0,.19,0,.22.07.27.43.71.42,1.15.42a4.48,4.48,0,0,1,1,0c.75.17,1.49.39,2.23.6s.78.21,1.26-.3c.26-.28-.1-.17-.14-.24-.35-.68-.68-1.37-1-2.06-.08-.18,0-.33.27-.26A6.22,6.22,0,0,1,78,87.92c.07.11.11.26.21.33s.29,0,.32,0a7.16,7.16,0,0,0,.73-2.76,19.22,19.22,0,0,1,.63-2.27c.11-.42.38-.32.55-.17a2.76,2.76,0,0,1,1.29,2.27c0,.91-.1,1.81-.14,2.72a2,2,0,0,0,.09.47,2.42,2.42,0,0,0,.42-.24c1.11-1,2.19-2,3.32-3a5.12,5.12,0,0,1,1.59-1,10.63,10.63,0,0,0,1.41-.66c.26-.14.5-.33.74-.49-.09.23-.18.46-.29.68a11.13,11.13,0,0,1-1.22,2.73c-.56.69-1.13,1.37-1.72,2-.28.32-.64.59-.92.91s-.13.58.26.57.9-.17,1.35-.16c2.22,0,4.43-.16,6.65,0,1.63.16,3.26.17,4.89.48,1.31.24,2.66.29,4,.44a18.1,18.1,0,0,1,3,.68l2.59.82a11.64,11.64,0,0,1,2.72.73.19.19,0,0,0,.18,0,2.21,2.21,0,0,1,.34-.1,2,2,0,0,0,.06.26c.1.32.47.57.61.94a.51.51,0,0,0,.71.3c.34-.18.32-.5.17-.79-.24-.47-.53-.92-.77-1.39a12.77,12.77,0,0,0-.63-1.35,4.54,4.54,0,0,1-.72-1.31c-.07-.28-.56-.39-.35-.78.22.15.43.31.66.44.86.48,1.74.93,2.58,1.45.25.15.33.24.4-.09a.66.66,0,0,1,.23,0s0,.09,0,.11c-.31.31,0,.3.19.42a7.81,7.81,0,0,1,1.43,1c.17.17.35.39.49.25s.33-.65.22-.76c-.48-.49-.46-1.12-.7-1.68a5.74,5.74,0,0,0-1.23-2.22,3.54,3.54,0,0,1-.68-1.08c-.06-.12,0-.29,0-.45a1.73,1.73,0,0,1,.37.16c.61.43,1.2.92,1.84,1.32a10.34,10.34,0,0,1,3.32,3c.26.4.41.4.7,0a.81.81,0,0,0,.17-.52c0-.26-.23-.56-.15-.76a6.87,6.87,0,0,0,.12-2.3,2.29,2.29,0,0,0-.36-1.72,2.93,2.93,0,0,1-.37-.7.65.65,0,0,1,0-.24,1,1,0,0,1,.26.09,8.26,8.26,0,0,1,2,2.74,3.35,3.35,0,0,1,.29,2.72c-.12.36-.41.8,0,1.21.06.06.11.15.17.22s.17-.13.18-.21,0-.35.27-.28a.88.88,0,0,1-.08.39,4.91,4.91,0,0,0-.7,1.67c0,.08,0,.18,0,.23-.53.59-.29,1.19-.16,1.84s.61,1.07.76,1.65a2.25,2.25,0,0,0,.83,1.11c.14.14.32.25.45.4a6.27,6.27,0,0,0,2,1.27c1.62-.08,3.24-.08,4.84-.26a4.87,4.87,0,0,1,1.66,0,3.88,3.88,0,0,0,1.72-.13,5.37,5.37,0,0,1,2.31-.18,4.06,4.06,0,0,0,1.46.09,8.28,8.28,0,0,1,2.72,0c1.46.2,2.94.22,4.42.32a1.36,1.36,0,0,1,.35,0,9.42,9.42,0,0,0,3.08.3,4.1,4.1,0,0,1,1,0,9.8,9.8,0,0,0,3.7,0,3.44,3.44,0,0,0,1.06-.27,5.86,5.86,0,0,0,.13.73,2.11,2.11,0,0,0,1.47,1.7l1.61.41a4.35,4.35,0,0,0,1.06.22,11.62,11.62,0,0,1,3.27.5,7.71,7.71,0,0,0,1.91.32c1,0,2.05-.06,3.08-.05a5.43,5.43,0,0,0,1.65-.32c1.07-.3,2-.86,3-1.2a8.27,8.27,0,0,0,2.48-1.65,7.66,7.66,0,0,0,1.58-2c.44-.66.76-1.4,1.17-2.08s.84-1.3,1.26-2a7.29,7.29,0,0,1,1.54-1.84c.35-.28.41-.28.75,0a1.83,1.83,0,0,1,.5,2,15.93,15.93,0,0,1-1,2.88c-.12.27-.27.57-.07.73s.51-.08.76-.16c.1,0,.17-.16.26-.23.38-.33.77-.65,1.16-1,.64-.51,1.28-1,1.93-1.51.49-.37,1-.73,1.49-1.09,0,0,.17,0,.17.07a.86.86,0,0,1,0,.42,16.91,16.91,0,0,1-.88,2.1c-.61,1.1-1.3,2.15-2,3.21-.22.35-.12.67.3.7a1,1,0,0,0,.88-.26,3.81,3.81,0,0,1,1-.59,13.86,13.86,0,0,0,1.51-.84,16.35,16.35,0,0,1,3.51-2,9.45,9.45,0,0,1,1.68-.45c.22,0,.48.05.36.33a7.67,7.67,0,0,1-.68,1.34,9.63,9.63,0,0,1-1.87,2.31c-.36.3-.1.56,0,.79s.34.13.57,0c.69-.33,1.4-.62,2.1-.92s1.1-.48,1.67-.69,1.11-.32,1.64-.54a6.29,6.29,0,0,1,2.72-.34.6.6,0,0,1,.6.6,3.06,3.06,0,0,1-.57,2c-.26.42-.09.59.18.83s.49,0,.75-.12a5.67,5.67,0,0,1,1.53-.78,5.65,5.65,0,0,0,2.31-.87,3.54,3.54,0,0,1,.91-.37,36.09,36.09,0,0,0,3.67-1.41,20.89,20.89,0,0,1,6.22-1.55,11,11,0,0,0,1.42,0c.42-.12.82,0,1.23-.13.2-.09.5,0,.75.07s.44.11.59.05a3.32,3.32,0,0,1,2.64.18.6.6,0,0,0,.57,0c.74-.38,1-.46,1.41-.15a4.32,4.32,0,0,0-.73.87c0,.07,0,.22,0,.33a.75.75,0,0,0,.61,1,8.13,8.13,0,0,0,1.39-.1,13.66,13.66,0,0,0,2.19-.71,10.43,10.43,0,0,0,2.7-1.21c.19-.13.37-.57.77-.34-.15.27-.29.55-.45.82a1,1,0,0,1-.18.18l-2,2.1c-.26.29-.5.59-.75.9,0,0,0,.11-.06.17a.93.93,0,0,0,.24,0s.08-.08.13-.11l.25-.13a.69.69,0,0,1,0,.24.46.46,0,0,1-.19.2.39.39,0,0,1-.26,0c-.44-.12-.71.19-1,.36s-.23.49,0,.7.27.52.61.18a3.9,3.9,0,0,1,1.95-.85,13.79,13.79,0,0,1,3.78-.63,8.59,8.59,0,0,0,1.89-.18,18.36,18.36,0,0,1,3.7-.37l.42.06a1.89,1.89,0,0,1-.34.35,1.67,1.67,0,0,1-.4.1c-.7.26-1.4.5-2.08.78-.18.08-.28.24-.07.47a2.33,2.33,0,0,0,2.21.54,1.53,1.53,0,0,1,.93-.08,2.88,2.88,0,0,0,1.19.12,5.27,5.27,0,0,1,.7,0,6.09,6.09,0,0,0,1.85.27,9.47,9.47,0,0,1,1.84.25c.48.08,1,.55,1.52,0a.48.48,0,0,1,.36-.08C244.71,102.85,244.77,103,244.84,103ZM108,99.6c0-.31-.15-.62-.17-.94a2.07,2.07,0,0,0-.45-1.52s0-.16.06-.17c.28-.07.2-.19.08-.35s-.25-.06-.38,0-.4.32-.57.3a6.22,6.22,0,0,1-1.37-.32c-.63-.23-.74-.23-1.16.21a1.19,1.19,0,0,1-.34.16,2.82,2.82,0,0,0-.55.26,7.57,7.57,0,0,0-1.6,2.33,3.24,3.24,0,0,1-2.81,2.16,14.9,14.9,0,0,0-2.9.58,4.94,4.94,0,0,0-1.3.69c-.15.1-.18.36-.27.55a2.84,2.84,0,0,0,.57.1,20.51,20.51,0,0,1,3.32.15,14.43,14.43,0,0,0,3,.26,24.92,24.92,0,0,0,2.64-.49,6.62,6.62,0,0,0,3.93-2.23c.07-.07.14-.24.1-.27-.38-.41-.06-.75.1-1.11A.75.75,0,0,0,108,99.6Zm-4.9-3.21a.71.71,0,0,1-.11.17,10,10,0,0,0-2.14,3.22,2.41,2.41,0,0,1-2.22,1.36,9.94,9.94,0,0,0-4.11,1c-.37.43-.47.89-1.05,1a1.19,1.19,0,0,1-1.18-.09,3.51,3.51,0,0,1-1.71-1.93,3.28,3.28,0,0,1,.52-2.74,9.29,9.29,0,0,1,3-2.5,2.62,2.62,0,0,1,2.08-.11,17.2,17.2,0,0,0,2.89.58,11.33,11.33,0,0,0,3.34-.08,2.14,2.14,0,0,1,.44,0Zm10.64,5.75a.2.2,0,0,0-.14.08c-.54.69-.67.57-1.31,1.15s-1.75.58-2.45,1.16c-.5.42-1,.09-1.53,0a10,10,0,0,1-1.17-.39c-.07,0-.18-.08-.23-.05a2.92,2.92,0,0,0-.38.32.61.61,0,0,1-.07-.14.86.86,0,0,1,.38-1c.14-.07.24-.27.39-.31.49-.12.31-.59.51-.79s.59-.16.72-.55.16-.64-.3-.89c0,0,0-.13,0-.2s-.14-.38.26-.21c.64.27,1.27-.12,1.91-.19a13.4,13.4,0,0,1,1.74-.23c.31,0,.59.4.89.61a.26.26,0,0,0,.08-.25c0-.14-.07-.27-.11-.4.14.06.36.1.42.2s.21.45-.22.45a.86.86,0,0,0,.11.52c0,.07.17.16.23.14.28,0,.26-.06.3.13a.9.9,0,0,0,.17.44C114.25,102,114.28,102.14,113.76,102.14Zm60.46-3.94c-.21,1-1.17,1.61-2,2.12a23,23,0,0,1-3.53,1.71,8.88,8.88,0,0,1-2.43.38c-.8.07-1.61,0-2.41,0a10.89,10.89,0,0,1-2.72-.51,5.94,5.94,0,0,0-1.66-.27,10.77,10.77,0,0,1-3.6-.75c-.71-.22-.9-.82-1.07-1.41a2.89,2.89,0,0,1,0-.59c0-.53-.12-1,.08-1.21.5-.44.46-1.19,1.13-1.53a1.23,1.23,0,0,1,.79-.23l3.75.59a4.53,4.53,0,0,0,.52,0,10.52,10.52,0,0,1,2.44.13c.29.08.66-.11,1-.13a2.09,2.09,0,0,1,.66.06,1.79,1.79,0,0,0,1.88-.47,3.22,3.22,0,0,0,1-1.91,3,3,0,0,1,2-2,4.35,4.35,0,0,1,1.65,0c.33,0,.32,0,.31-.25a.45.45,0,0,1,.1-.25,3.51,3.51,0,0,1,1.25.37,3.82,3.82,0,0,1,1.4,2.4A8.27,8.27,0,0,1,174.22,98.2Zm-3.83-6.73a1.35,1.35,0,0,1-.34.11,2.63,2.63,0,0,0-2.67,2.31,3.2,3.2,0,0,1-.63,1.52,1.4,1.4,0,0,1-1.36.62c-1.19,0-2.39,0-3.58,0a6,6,0,0,1-1.18-.13c-1.22-.23-2.47-.33-3.71-.5-.14,0-.39-.09-.4-.15a.57.57,0,0,1,.17-.43c.95-.72,1.9-1.45,2.9-2.11a19.65,19.65,0,0,1,1.88-1,15.84,15.84,0,0,1,2.37-.6c.85-.13,1.73-.13,2.6-.22a19.75,19.75,0,0,1,3.6.32C170.17,91.27,170.28,91.4,170.39,91.47Zm-3-1.15-.83,0c-.75,0-1.5.13-2.25.17a14.14,14.14,0,0,0-3.35.75,13.24,13.24,0,0,0-2.33,1.22,15.18,15.18,0,0,0-3.22,2.77c-.18.24-.39.47-.56.71a3.87,3.87,0,0,0-1,2.73c0,.13,0,.27,0,.4a2.47,2.47,0,0,0-1.13-.19,8.28,8.28,0,0,0-.87.12,5.66,5.66,0,0,1-1.79-.08c-1.4-.07-2.81-.08-4.22-.14a11.88,11.88,0,0,1-2.07-.16c-1-.19-2-.13-2.9-.29-.29,0-.64.17-.87-.15l.73-.28c.94-.37,1.85-.81,2.82-1.1a5.16,5.16,0,0,0,3.29-2.93,2.47,2.47,0,0,0-.22-2.59,13.39,13.39,0,0,0-1.51-1.67c-.25-.26-.22-.5.13-.6a15.21,15.21,0,0,1,4.54-.91,11.19,11.19,0,0,0,2.16-.19,7.85,7.85,0,0,0,2.13-.65,1.36,1.36,0,0,0,.44-2.33c-.55-.49-1.14-.94-1.71-1.42-.11-.1-.26-.28-.24-.39a.54.54,0,0,1,.4-.26,14.58,14.58,0,0,1,2.88-.39c.72,0,1.44,0,2.15,0a8.66,8.66,0,0,1,4.64,1.26,16.93,16.93,0,0,0,1.54.76,1.5,1.5,0,0,0,.37,0c0-.13,0-.27,0-.4s-.08-.08-.13-.11a16.05,16.05,0,0,0-3.91-1.89,5,5,0,0,0-1.09-.17,2.69,2.69,0,0,0-1.17-.12c-.39.13-.68-.08-1-.05-1.07.12-2.17.08-3.23.25a5.11,5.11,0,0,0-2.1.51c-.43.28-.71.15-1-.18-1.47-1.52-3.52-2-5.48-2.6a5.75,5.75,0,0,1-1-.26c.28-.16.57-.31.84-.49a8,8,0,0,1,4.06-1.35c.14,0,.28-.05.42-.07a4.36,4.36,0,0,1,.94-.1c1,.13,2.06.35,3.1.45a5.79,5.79,0,0,1,1.7.41c.61.25,1.2.53,1.82.74a12.49,12.49,0,0,1,3.09,1.33c.32.24.59.55.91.78A31.11,31.11,0,0,1,164.82,84a1.4,1.4,0,0,1,.32.37c.41.77,1,1.46,1.33,2.26a11.1,11.1,0,0,1,.89,2.7C167.37,89.4,167.37,90,167.41,90.32ZM153.26,87a18.23,18.23,0,0,1-3.61.57,6.41,6.41,0,0,0-1.7,0c-1.12.28-2.21.67-3.3,1-.92.29-1,.43-.27,1a12.07,12.07,0,0,1,1.93,2.11,1.16,1.16,0,0,1,.3,1,4.87,4.87,0,0,1-1.1,2,5.71,5.71,0,0,1-2.33,1.41c-.89.26-1.69.77-2.57,1.06s-1.55.29-2.28.54a8.88,8.88,0,0,1-3,.48,4,4,0,0,1-1.89-.15c-.58.39-1.23.05-1.84.17-.88.17-1.8.12-2.7.23-.34,0-.67.3-1,0a8.51,8.51,0,0,1-2.47-.11c-.66,0-.88-.49-1.27-.79a2.33,2.33,0,0,1-.27-.4,11.31,11.31,0,0,0-1.21-1.53c-.35-.32.2-1.12-.7-1.06,0,0,0-.06,0-.08.08-.37-.1-.73.14-1.13.48-.81.85-1.69,1.25-2.54a1.18,1.18,0,0,0,.15-.69c-.06-.26-.12-.49.06-.69s.13-.21-.09-.22h-.23a4.35,4.35,0,0,0,.73-.54c.31-.55.91-.87,1.24-1.37a10.56,10.56,0,0,1,3.19-3c.92-.6,1.8-1.28,2.78-1.79A14.17,14.17,0,0,1,134,81.46a23.57,23.57,0,0,1,3-.9c.43-.06.88,0,1.3-.13a17.64,17.64,0,0,1,3.7-.35.88.88,0,0,1,.56.27c.41.48.48.53.89.12a.93.93,0,0,1,.88-.25,4.62,4.62,0,0,1,.95.26c.83.29,1.64.62,2.48.87a5.8,5.8,0,0,1,3.75,3,1.65,1.65,0,0,0,.39.51,1.35,1.35,0,0,0,.48.13,1.18,1.18,0,0,0,0-.45c-.07-.22-.22-.42-.31-.64,0-.06,0-.15,0-.23l.19.12a6.1,6.1,0,0,1,.82.59,8.89,8.89,0,0,1,1,1.11C154.48,86,154,86.91,153.26,87Zm64.63,8.91a.7.7,0,0,0-.19-.06,5.48,5.48,0,0,0-.7,0,32.58,32.58,0,0,0-5,.22c-.69.14-1.4.2-2.08.37a14.34,14.34,0,0,0-3.63,1.31,16.13,16.13,0,0,1-2.08.77c-1.31.48-2.62,1-3.92,1.46-.91.36-.91.38-.92-.5a1.47,1.47,0,0,0,0-.42,3,3,0,0,0-.35-1c-.18-.24-.64-.19-.92-.32a2.06,2.06,0,0,0-1.39,0,40,40,0,0,0-5.13,1.58c-.36.12-.72.21-1.09.31.21-.29.41-.6.64-.89a4.29,4.29,0,0,1,.43-.42,4.87,4.87,0,0,0,1.14-2.25c.15-.49-.19-.76-.71-.83s-1,.26-1.45.39a13.3,13.3,0,0,0-2.63,1c-1.25.63-2.42,1.4-3.64,2.1a1.1,1.1,0,0,1-.41,0,.93.93,0,0,1,.12-.33,14,14,0,0,0,2-3.87,5.17,5.17,0,0,0,.26-1.41c0-.45-.34-.59-.75-.32-.63.41-1.25.83-1.85,1.27-.86.64-1.7,1.29-2.55,1.93a.46.46,0,0,1-.23.09,1.09,1.09,0,0,1-.25,0l.09-.18a10.84,10.84,0,0,0,.62-1.85,2.58,2.58,0,0,0-1.15-2.88c-.45-.37-.71-.41-1.1,0a16.77,16.77,0,0,0-1.37,1.66c-.63.85-1.21,1.72-1.8,2.6a5.6,5.6,0,0,0-.35.74c-.54-.27,0-.55,0-.83a4.24,4.24,0,0,0-1-3.14c-.48-.49-.85-1.49-1.95-.91-.07,0-.21,0-.32-.07a18.3,18.3,0,0,0-4.06-.77,4.34,4.34,0,0,0-.09-1.59c-.1-.41-.18-.83-.3-1.23a12,12,0,0,0-3.09-4.7A21.82,21.82,0,0,0,162.34,81a11.27,11.27,0,0,0-3.82-2.35c-1.07-.32-2.08-.83-3.14-1.19a10,10,0,0,0-1.88-.4,25.66,25.66,0,0,0-2.9-.29,12.38,12.38,0,0,0-2.43.19,7.42,7.42,0,0,0-2,.54c-1,.45-1.81,1-2.72,1.55a2.07,2.07,0,0,1-.85.3c-1.08.08-2.16.1-3.24.18a20.62,20.62,0,0,0-5.07.93,12.23,12.23,0,0,0-2.55.91c-.89.56-1.82,1-2.7,1.62a23.23,23.23,0,0,0-4,3.15c-.67.69-.92,1.63-1.71,2.23a4.41,4.41,0,0,0-.45.89c-.12-.08-.14-.23-.17-.52s-.15-.79-.22-1.18a5.41,5.41,0,0,0-1.09-2.1,3.88,3.88,0,0,0-2.46-2c-.38-.06-.73-.24-1,.08s.05.65.15,1c0,.07.14.11.19.18a4.49,4.49,0,0,1,1.06,3,6.64,6.64,0,0,0,0,1.18c0,.22.33.4.11.66-.19-.17-.4-.32-.57-.5s-.18-.27-.31-.45l-1.68-1.21-2.33-1.65-.29-.17a9.21,9.21,0,0,1-.94-.48c-.21-.15-.41-.29-.62-.12a.69.69,0,0,0-.26.7,4.43,4.43,0,0,0,.75,1.65c.64,1,1.3,2.08,1.93,3.13a.69.69,0,0,1,0,.51.18.18,0,0,1-.35,0c.05-.66-.55-.74-.95-1s-1-.44-1.49-.67c-.92-.42-1.82-.88-2.75-1.27-.27-.12-.59-.46-.92,0s.11.57.19.86c0,0,.09.07.12.12a12.57,12.57,0,0,1,1.88,3.22,1.09,1.09,0,0,1,0,.26,4.07,4.07,0,0,0-.91-.39c-1.66-.33-3.2-1-4.83-1.43-.84-.21-1.68-.39-2.54-.53s-1.71-.15-2.53-.35c-.55-.13-1.09-.06-1.63-.14-.8-.12-1.58-.38-2.38-.45-1.2-.11-2.4-.12-3.6-.14-.84,0-1.67,0-2.51,0a9.35,9.35,0,0,0-1.4,0,9.66,9.66,0,0,0-2.34.2.22.22,0,0,1-.2-.1.21.21,0,0,1,.06-.21c.35-.35.68-.7,1.06-1a8.38,8.38,0,0,0,2.55-4.82c.12-.55-.13-.76-.72-.62a1.92,1.92,0,0,0-.52.25c-.31.17-.6.39-.93.54a13.88,13.88,0,0,0-3.76,2.6c-.39.37-.83.7-1.25,1,0,0-.16,0-.23,0s-.08-.11-.06-.14c.34-.6.1-1.25.15-1.88A1.65,1.65,0,0,0,82,83.55c-.54-.54-1.06-1.11-1.61-1.64s-.63-.47-1,.17a1.61,1.61,0,0,0-.17.43c-.18.61-.38,1.21-.52,1.82s-.23,1.26-.34,1.89l-.06.4a1.32,1.32,0,0,1-.43-.2,7.59,7.59,0,0,0-3.49-1.86A9.71,9.71,0,0,0,73,84.34c-.07,0-.24.14-.24.22a1.52,1.52,0,0,0,.1.63c.25.58.51,1.15.81,1.7a5.68,5.68,0,0,0,.57.64,1,1,0,0,1,.15.25c-.1,0-.25.08-.3,0a2.08,2.08,0,0,0-1.32-.46,4.27,4.27,0,0,1-1.06-.23c-.25-.08-1.88-.58-2.07-.57-1,.06-1.83-.32-2.79-.26A19.57,19.57,0,0,1,64,86.12a.68.68,0,0,0-.35,0,3.12,3.12,0,0,1-1.54.17,6.26,6.26,0,0,0-2,.55,3.37,3.37,0,0,0-1,.63c-.08.06,0,.27,0,.39a.62.62,0,0,1-.26.31c-.09,0-.24-.05-.36-.08.22-.19,0-.35-.1-.22-.48.43-1-.25-1.48.13a13.51,13.51,0,0,0-3.8-.23,3.46,3.46,0,0,0-2.56.93c-.47.56-.58.52-.3,1.2a.91.91,0,0,1,0,.33,1.34,1.34,0,0,0-.26-.09c-.63-.06-1.27-.08-1.89-.16s-1.39-.21-2.08-.35c-.21,0-.39-.27-.59-.28-1-.07-2-.1-3.06-.15q-1.12-.06-2.25-.15a.45.45,0,0,1-.24-.06,1.85,1.85,0,0,0-2,0,1.43,1.43,0,0,1-.94.08c-.63-.14-.62-.17-1-.07a1.53,1.53,0,0,1-.41.1,19.66,19.66,0,0,0-4.05.4c-1.08.24-2.25-.06-3.27.52-.07,0-.21,0-.32-.06a1.42,1.42,0,0,1,.1-.29,2.5,2.5,0,0,1,.25-.41c.34-.49.7-1,1-1.46a11.69,11.69,0,0,1,2-2.5,3.23,3.23,0,0,0,.37-.37.35.35,0,0,0-.3-.61,4.18,4.18,0,0,0-1.67.17c-1.48.66-3.1,1.13-4.24,2.34-.28.31-.37.06-.46-.12s-.23-.59-.38-.86a.51.51,0,0,0-.77,0s.09.23.16.33c.35.47.85.88.46,1.54a1.58,1.58,0,0,0-.09.31,1.42,1.42,0,0,1-.25-.24c-.37-.55-.74-1.11-1.09-1.68,0-.07.06-.26.15-.34a5.94,5.94,0,0,1,1.2-.93,17.55,17.55,0,0,0,2.38-1.68l.63-.45c.64-.13,1.84-.43,1.95-.46.76-.18,1.48-.51,2.21-.67,1.31-.29,2.55-.73,3.84-1.07s2.45-.66,3.66-1.06c1.46-.49,3-.83,4.43-1.32,1.85-.63,3.64-1.38,5.49-2a13,13,0,0,1,3.79-.94,14.56,14.56,0,0,0,2.48-.39c1.3-.25,2.57-.67,3.86-1,1.7-.41,3.37-.9,5-1.4a16.25,16.25,0,0,0,2.85-1c.79-.41,1.67-.68,2.49-1,2-.86,3.91-1.69,5.84-2.6,1.36-.65,2.64-1.43,4-2.1A33.33,33.33,0,0,1,83,64a6.14,6.14,0,0,1,2.52-.6c.84.06,1.13.42.87,1.22a6,6,0,0,0-.22.93c-.16,1-.4,2-.54,3a22.94,22.94,0,0,0-.46,3.51,3.41,3.41,0,0,1,0,1,5.68,5.68,0,0,0,.06,3,1.62,1.62,0,0,0,2,1.1,9.09,9.09,0,0,0,1.35-.78c.56-.38,1.06-.83,1.63-1.19,2-1.27,4.08-2.5,6.1-3.79a31.75,31.75,0,0,0,3.38-2.28c.8-.67,1.71-1.23,2.58-1.83,1.11-.76,2.25-1.48,3.42-2.15a19.66,19.66,0,0,1,2.78-1.24,1.52,1.52,0,0,1,1.94.74c.26.52.44,1.07.71,1.58a11.4,11.4,0,0,0,1.06,1.69,1,1,0,0,0,1.44,0,5.24,5.24,0,0,0,.72-.91c.62-1,1-2.13,1.75-3.11a2.07,2.07,0,0,1,2.77-.51c.86.56,1.7,1.16,2.58,1.69a2.62,2.62,0,0,0,1.86.6A3,3,0,0,0,125,64.56a14.43,14.43,0,0,0,1.91-4.66c.18-.61.32-1.22.52-1.82.27-.79.59-1.57.86-2.36s.27-.82.95-.19L131,57.18a1.54,1.54,0,0,0,.39.34,15.74,15.74,0,0,1,3,2.12,6.41,6.41,0,0,0,1.06.65c.46.21.51.13.73-.33a6.4,6.4,0,0,0,.51-2.59,29.91,29.91,0,0,1,.08-3.9,7.55,7.55,0,0,0-.2-2.79c-.25-1.07-.34-2.17-.54-3.25-.11-.64-.08-1.31-.23-2s-.28-1.47-.38-2.22a20.54,20.54,0,0,0-.46-2.44c-.25-1-.6-2.08-.83-3.13s-.32-2.29-.62-3.41c-.17-.64-.19-1.4-1-1.79-.29-.14-.4-.61-.59-.93-.06-.09-.12-.17-.17-.26l.11,0a1.11,1.11,0,0,0,.1.26c.31.18.77.27.82.46.14.53.61.77.92,1.15A10.67,10.67,0,0,1,135.17,35a18.33,18.33,0,0,0,1.3,2.53A4.84,4.84,0,0,0,138,39.11a12.83,12.83,0,0,1,1.37,1.19c.54.45,1.11.86,1.66,1.29.73.59,1.47,1.17,2.17,1.8.55.49,1,1,1.54,1.58s1.17,1.27,1.73,1.93c.23.26.34.62.6.85a4.21,4.21,0,0,1,1,1.38,13.27,13.27,0,0,0,.93,1.75,7.63,7.63,0,0,0,2.41,2.42,8,8,0,0,1,2.73,2.33c.82,1.2,1.42,2.54,2.74,3.38a6.22,6.22,0,0,1,.9.81c.31.29.64.57.94.87a23,23,0,0,1,2.71,2.89,18.24,18.24,0,0,1,2.64,4.69c.07.23.34.39.52.54a1.06,1.06,0,0,0,0-.31c-.79-1.46-1.52-3-2.4-4.37a14.42,14.42,0,0,0-1.94-2.35c-1.16-1.19-2.37-2.33-3.57-3.47a9.09,9.09,0,0,1-1.61-2.15,6,6,0,0,0-2.52-2.55,8.3,8.3,0,0,1-2-1.33,7.43,7.43,0,0,1-1.4-2c-.58-1.13-1.21-2.23-1.86-3.32-.92-1.54-2.4-2.65-3.6-4a11.72,11.72,0,0,0-1.57-1.31c-.72-.55-1.44-1.08-2.16-1.62a10.5,10.5,0,0,1-3.32-3.51,14.57,14.57,0,0,0-1.31-2.43,21.09,21.09,0,0,0-3.62-3.88c-.08-.06-.11-.18-.16-.27a3.87,3.87,0,0,1-.56-2l.06-.65c.1.17.19.35.3.52a.89.89,0,0,0,.29.29,11.71,11.71,0,0,0,3,1.42c.32.07.83.31.93.21a3.11,3.11,0,0,0,.48-1.06.53.53,0,0,0,0-.25,12.15,12.15,0,0,0-.19-2.47,13.83,13.83,0,0,0-.94-2.76,2.64,2.64,0,0,1-.19-.68c0-.05,0-.1.06-.15s.09,0,.11.08a7.5,7.5,0,0,0,1.85,1.88,14.33,14.33,0,0,0,3.14,1.85c.22.09.57.21.7.11.29-.21.42-.09.58.09a21.28,21.28,0,0,1,2,2.24,27.6,27.6,0,0,0,2.61,3A7.83,7.83,0,0,0,147,32.75c1.21.84,2.53,1.57,3.65,2.51A47.8,47.8,0,0,1,154.5,39c.88.92,1.62,1.95,2.46,2.91,1,1.13,2,2.23,3.08,3.34s1.94,2,3,3c1.28,1.27,2.6,2.51,3.9,3.77a13,13,0,0,1,1.4,1.47A28.58,28.58,0,0,0,171.43,57q1.69,1.65,3.4,3.29c1.59,1.54,3.2,3.07,4.8,4.6s2.93,2.83,4.42,4.24c1.13,1.07,2.27,2.14,3.44,3.17,1.79,1.57,3.61,3.11,5.42,4.66.23.2.51.35.75.53.87.69,1.75,1.36,2.59,2.07.62.52,1.17,1.11,1.79,1.63.94.78,1.91,1.51,2.87,2.27a1.81,1.81,0,0,1,.21.18c.91.85,1.77,1.74,2.71,2.55S206,87.81,207,88.66a12,12,0,0,0,2.1,1.58c.22.12.42.28.63.41l3,1.84c.82.5,1.66,1,2.47,1.51a11.84,11.84,0,0,0,2.4,1.48,1,1,0,0,1,.35.22S217.89,95.85,217.89,95.92ZM49.83,89.12c0-.05,0-.11-.07-.11S49.79,89.09,49.83,89.12Zm.4-.6s-.11,0-.11.06A.09.09,0,0,0,50.23,88.52ZM165.89,71.73a6.35,6.35,0,0,0-1.28-2.83,3,3,0,0,0,.13.66c.31.74.65,1.47,1,2.21l.11.27A1.16,1.16,0,0,0,165.89,71.73ZM136.12,53.21a12,12,0,0,0-.56-3.75,6.83,6.83,0,0,1-.2-1.28c-.08-.7-.08-1.42-.23-2.11a14.9,14.9,0,0,0-.34-2,13.22,13.22,0,0,1-.23-1.69c-.17-.91-.4-1.81-.61-2.72-.17-.75-.35-1.5-.51-2.25-.26-1.23-.49-2.46-.77-3.68a2.75,2.75,0,0,0-.46-1,7.51,7.51,0,0,1-1.1-2.19,12.23,12.23,0,0,1-.84-3.3.34.34,0,0,0-.16-.23c-.78-.47-1.56-.94-2.35-1.4-.09-.05-.24,0-.37,0,0,.1.08.2.13.29a15.81,15.81,0,0,1,1.29,2.61,5.25,5.25,0,0,1,0,2.43,7.43,7.43,0,0,1-.65,2.43,1.17,1.17,0,0,1-.34.41c-.08,0-.31-.14-.4-.26a64.47,64.47,0,0,1-4.14-5.62,33.67,33.67,0,0,0-2-2.74c0-.07-.13-.12-.18-.18s-.39-.53-.44-.5c-.38.15-.27.52-.24.81a29,29,0,0,0,.37,3.06c.2,1,.23,2,.42,3a29.89,29.89,0,0,1,.21,5.75,9.8,9.8,0,0,1-1.07,4c-.3.63-.69.71-1.1.17a13.55,13.55,0,0,1-1.17-2c-.88-1.7-1.58-3.49-2.55-5.16A32,32,0,0,0,112,29.19a.45.45,0,0,0-.37-.1c-.08,0-.15.2-.15.31a7.88,7.88,0,0,1-1.09,3.37,14.43,14.43,0,0,1-1.18,1.91c-.13.2-.26.41-.51.32a.74.74,0,0,1-.38-.45c-.22-1-.36-2-.59-3a16.67,16.67,0,0,1-.41-3.06,3.67,3.67,0,0,0-1-2.29c-.22-.24-.38-.1-.49.07-.34.49-.67,1-1,1.49-.54.94-1,1.91-1.61,2.83a9.53,9.53,0,0,1-1,1.14,26.67,26.67,0,0,0-2.16,2.63,21.24,21.24,0,0,1-2.78,3,1.37,1.37,0,0,1-1,.5c-.52,0-.74-.19-.64-.65A55.74,55.74,0,0,1,97,31.67a10.71,10.71,0,0,0,.69-3.1c0-.49.11-1,.15-1.46a.46.46,0,0,0-.06-.22,1.13,1.13,0,0,0-.18.12A40.46,40.46,0,0,1,94,30.32c-.81.62-1.58,1.29-2.36,1.93l-2.49,2c-.13.11-.3.15-.43.25s-.3.26-.26-.07a7.6,7.6,0,0,1,.29-1.32c.28-.87.61-1.73.9-2.59a.22.22,0,0,0-.06-.22.4.4,0,0,0-.24,0s-.08.08-.12.12l-2.62,2.35-3.19,2.9C82.25,36.81,81,37.88,79.88,39c-1.36,1.31-2.65,2.7-4,4-1.19,1.16-2.45,2.26-3.67,3.39-.61.57-1.22,1.15-1.81,1.74A54.13,54.13,0,0,1,65.91,52c-.6.48-1.18,1-1.75,1.51-.84.74-1.64,1.51-2.5,2.22-1.35,1.11-2.74,2.17-4.09,3.28-.72.59-1.42,1.23-2.11,1.86-1.42,1.3-2.8,2.63-4.25,3.9-.68.6-1.47,1.1-2.21,1.65a2.58,2.58,0,0,0-.38.36,40.15,40.15,0,0,1-3.4,2.8C43.21,71.11,41,72.44,39,74c-.78.6-1.51,1.28-2.3,1.86-1.23.91-2.5,1.78-3.74,2.66a2.55,2.55,0,0,0-.4.32,15.23,15.23,0,0,1-2.85,2.24l-1.76,1.28c.43-.14.86-.27.95-.32a4.29,4.29,0,0,1,1.34-.59,6.27,6.27,0,0,0,1.27-.39c.88-.27,1.79-.38,2.67-.65s1.68-.55,2.54-.77c2.19-.58,4.35-1.24,6.51-1.91,1.17-.37,2.3-.87,3.48-1.25q2.46-.81,5-1.52a15,15,0,0,1,1.8-.21c.61-.09,1.22-.2,1.82-.35,1.52-.4,3-.83,4.57-1.22,1-.27,2.05-.51,3.07-.76A46.5,46.5,0,0,0,69.73,70c1-.41,2-1,3-1.53,1.32-.65,2.68-1.24,4-1.9s2.68-1.5,4.07-2.14a26.79,26.79,0,0,1,4.73-1.66,1.23,1.23,0,0,1,1.33.95,5.86,5.86,0,0,1-.25,2.08c-.15.62-.3,1.24-.42,1.86-.18.94-.34,1.89-.5,2.84a.86.86,0,0,0,0,.16c0,1.42-.08,2.83-.13,4.24a2.76,2.76,0,0,0,.53,1.39c.24.46,1.14.41,1.68,0a46.67,46.67,0,0,1,4.4-2.79c2.22-1.35,4.4-2.76,6.56-4.19s4.08-2.87,6.19-4.22a13.41,13.41,0,0,1,3.23-1.57c1.34-.4,2.29-.31,2.89,1.07.35.79.73,1.57,1.1,2.36a2.5,2.5,0,0,0,.25.41c.33.44.46.45.87.07a8.08,8.08,0,0,0,.88-1.25c.62-.86,1-1.85,1.61-2.68a3.25,3.25,0,0,1,1.77-1c.68-.17,1.24.29,1.77.61.89.52,1.74,1.1,2.58,1.69a2.08,2.08,0,0,0,2.79-.49A12.77,12.77,0,0,0,126.39,60c.39-1.52,1-3,1.47-4.48.1-.33.33-.62.4-.94s.33-.28.5-.18a5.16,5.16,0,0,1,.89.64c.82.74,1.6,1.51,2.44,2.23s1.88,1.55,2.85,2.3c.59.45.68.35.93-.34a5.41,5.41,0,0,0,.13-1.74C136,56.09,136.12,54.65,136.12,53.21Zm4.65-28.58a9.08,9.08,0,0,0-1-1.79,38.78,38.78,0,0,0-3.39-4.32c-.37-.36-.66-.81-1-1.19-.64-.69-1.25-1.39-1.95-2-1-.87-2.05-1.63-3-2.5-.73-.64-1.37-1.36-2.06-2l-.13-.12c-1.11-1.19-2.18-2.42-3.34-3.57s-2.31-1.95-3.44-2.94c-1.41-1.23-3.07-2.1-4.53-3.24a.33.33,0,0,0-.29,0,30.52,30.52,0,0,0-2.33,2.21c-1,1.19-1.91,2.48-2.92,3.68-.87,1-1.79,2-2.75,3-1.27,1.25-2.16,2.77-3.51,4s-2.59,2.71-3.91,4-2.58,2.48-3.85,3.73c-.59.58-1.12,1.21-1.7,1.79-1.35,1.36-2.81,2.62-4.06,4.07a5.9,5.9,0,0,0-1.35,3.45,8.62,8.62,0,0,1-.42,1.52c0,.17-.19.32-.25.49a.74.74,0,0,0,0,.32l.25-.16c.68-.6,1.33-1.25,2.06-1.8a32.44,32.44,0,0,0,2.92-2.3c1-1,2.07-1.9,3.11-2.85,0,0,.08-.1.13-.11s.29-.12.4-.08.12.22.13.34a10.75,10.75,0,0,1-.31,3.24c-.21.8-.33,1.61-.52,2.41s-.88,1.81-.69,2.85c0,0-.08.08-.1.13-.16.61-.33,1.22-.48,1.83a.26.26,0,0,0,.06.23.29.29,0,0,0,.24,0c.88-.84,1.78-1.65,2.6-2.53.68-.73,1.27-1.54,1.9-2.3s1.16-1.29,1.63-2c.65-1,1.18-2.06,1.77-3.1.22-.39.47-.78.7-1.16.38-.64.76-.71,1.29-.23a3.81,3.81,0,0,1,1.23,2.63,26.61,26.61,0,0,0,.41,3.07c0,.23.15.45.18.68.08.68.14,1.36.21,2,0,.07,0,.18.11.2a.26.26,0,0,0,.22-.06A24,24,0,0,0,110.3,32,7.3,7.3,0,0,0,111,29a3.68,3.68,0,0,1,.16-1,.35.35,0,0,1,.6-.12c.31.31.6.64.89,1,.61.73,1.21,1.47,1.76,2.25a3.08,3.08,0,0,1,.74,1.74c0,.33.12.22.28.08a.85.85,0,0,1,.26.2,4.57,4.57,0,0,1,.29.47,32.77,32.77,0,0,1,2,3.86,15.21,15.21,0,0,0,1.75,3.28,1,1,0,0,1,.08.22s.09-.07.1-.11a15.13,15.13,0,0,0,.85-3.62c0-.37-.11-.79,0-1.08a1.57,1.57,0,0,0,.08-1.21,6.65,6.65,0,0,1-.16-1.71c-.08-1-.15-2-.22-3a1,1,0,0,0,0-.17,13.05,13.05,0,0,1-.56-3.5c0-.43-.05-.89-.1-1.29s.16-1,.07-1.47.38-.55.71-.32a2.89,2.89,0,0,1,.32.29A19.79,19.79,0,0,1,124.21,28c1.07,1.59,2.25,3.11,3.38,4.66a.59.59,0,0,0,.19.11.66.66,0,0,0,0-.15c.17-.8.39-1.6.49-2.41a2.48,2.48,0,0,0-.24-1.75,14.25,14.25,0,0,1-1.16-2.59,5.66,5.66,0,0,1-.42-1.1c-.07-.42.09-.52.49-.33a27.54,27.54,0,0,1,2.47,1.29c1.19.74,2.3,1.57,3.47,2.33a3.55,3.55,0,0,0,1.59.67c.77.09.81.15.95-.5a2.06,2.06,0,0,0,0-.43,9.32,9.32,0,0,0-.82-3.31,11.3,11.3,0,0,0-1.17-2.33c-.34-.49-.77-.87-1.12-1.33-.08-.1-.1-.39,0-.43a.61.61,0,0,1,.52-.05c.37.21.69.49,1.2.75.87.74,1.7,1.52,2.61,2.21s2,1.49,3.09,2.17a1.12,1.12,0,0,0,.88,0C141,25.3,140.88,24.87,140.77,24.63Z"/><path id="fill6" class="cls-2" d="M244.84,103a1.21,1.21,0,0,1-.37.28c-.84.19-1.69.37-2.54.53-.31.06-.4-.1-.19-.33s0-.36-.16-.45a.39.39,0,0,0-.35.1c-.26.42-.69.38-1.1.37a15.94,15.94,0,0,1-2.17-.11,7.48,7.48,0,0,0-2.25.12c-1.3.16-2.63,0-4,.22a10,10,0,0,1-2.25-.08c-1.55-.12-3.12-.08-4.67-.13-2.18,0-4.37.13-6.55.21a2.9,2.9,0,0,0-.55.17,3.42,3.42,0,0,1-.82.17,11.73,11.73,0,0,0-2.71.38,9.38,9.38,0,0,0-3,1.22c-.16.1-.33.44-.27.53.42.63.71,1.37,1.55,1.64a1.25,1.25,0,0,1,.24.16c-.07.06-.14.16-.22.17-.87.13-1.77.18-2.62.39a10.89,10.89,0,0,1-2.89.35,2.26,2.26,0,0,0-.45,0l-2.91.52c-.57.11-1.15.25-1.72.35-.39.08-.79.14-1.18.18s-.65-.08-.88,0a3.54,3.54,0,0,1-1.67.13c-1,0-1.26-.48-.8-1.28a2.22,2.22,0,0,0,.12-.79c-.25,0-.51-.07-.77-.07s-.24.14-.37.16l-3.8.55c-1.32.19-2.66.34-4,.56s-2.48.37-3.72.54a7.53,7.53,0,0,0-1.52.2,12,12,0,0,1-2.8.18c-.25,0-.15-.07-.08-.22a3.46,3.46,0,0,1,1.56-1.67c.12-.07.26-.29.23-.4s-.25-.19-.4-.25a.87.87,0,0,0-.36,0c-.81.06-1.62.1-2.43.2-1.15.15-2.29.43-3.44.52-1.79.14-3.59.17-5.39.24-.74,0-1.49,0-2.23,0-3,0-5.92,0-8.88-.08-.28,0-.59-.21-.82-.13a10.11,10.11,0,0,1-2.05.15,15.23,15.23,0,0,1-1.79,0l-1.79,0h-1.79c-.55,0-1.09.06-1.64,0-1.86-.08-3.71-.09-5.57-.13a1.22,1.22,0,0,1-.27,0,.32.32,0,0,1-.21-.54,12.49,12.49,0,0,1,2.51-2.18c.6-.5,1.37-.82,1.64-1.65.14-.42-.16-.53-.34-.54a15.38,15.38,0,0,0-3.58-.09c-.88.16-1.72-.17-2.57.11-.28.1-.66-.14-1-.12a4.14,4.14,0,0,1-2.06-.41,1.85,1.85,0,0,0-1-.22,8.21,8.21,0,0,1-1.39.15,18.63,18.63,0,0,1-2-.15c-1.11-.17-2.14.38-3.27.25a23.77,23.77,0,0,0-3.58,0,7.62,7.62,0,0,0-1.79.21,7.3,7.3,0,0,1-3.18.12,12.54,12.54,0,0,0-2.28-.26c-.4,0-.79-.23-1.2,0-.09,0-.27-.06-.4-.07s-.4-.1-.48,0-.34.11-.51,0-.27-.19-.37-.16c-.57.2-1-.19-1.52-.28-.3-.05-1.21.07-.37-.63,0,0,0-.16,0-.22-.29-.65-.55-1.31-.88-1.94a.85.85,0,0,0-.58-.43,12.66,12.66,0,0,0-3.07.16c-.86.27-1.15,0-1.18-.85a.47.47,0,0,0,0-.17c0-.1-.06-.19-.09-.29l-.19.18-.19.13c0-.08-.08-.17-.05-.22s.21-.31.3-.48a.43.43,0,0,0-.25-.61c-.35-.17-.49-.25-.42-.34.24-.35,0-.52-.25-.62a5.12,5.12,0,0,0-1.46-.53,20.21,20.21,0,0,0-4-.33c-1.07.06-2.15,0-3.22,0-.22,0-.44-.09-.67-.1-.9-.05-1.7-.5-2.62-.58a3.24,3.24,0,0,0-1.94.41,15,15,0,0,0-1.67,1,5.91,5.91,0,0,0-2.12,2.6,7.76,7.76,0,0,0-.14,2,2,2,0,0,0,.72,1.75c.4.37.79.74,1.2,1.1a2.26,2.26,0,0,0,.43.24l-.45.13a2.79,2.79,0,0,1-.47.14c-1.77.08-3.53.07-5.3.19a76.67,76.67,0,0,0-7.72.45c-1.32.23-2.65.43-4,.54-1.52.14-3,.16-4.58.23a1.32,1.32,0,0,1-.34,0l-1.39-.27c-.37.5-.93-.33-1.32.17,0,0-.25-.06-.39-.08a2.3,2.3,0,0,0-.68-.06,3.83,3.83,0,0,1-1.75-.17c-.1,0-.24-.16-.23-.23a1.65,1.65,0,0,1,.23-.74,14.45,14.45,0,0,1,1-1c1.65-1.58,3.26-3.19,5-4.74a13.24,13.24,0,0,1,1.83-1.1,4.86,4.86,0,0,0,.6-.6,4,4,0,0,0-.84,0c-.71.13-1.4.38-2.12.46-1.1.13-2.21.15-3.32.23-.81,0-1.62.1-2.43.2a18.12,18.12,0,0,1-1.91.32c-.68,0-1.26.34-1.9.37-1.25,0-2.47.21-3.7.37s-2.52.16-3.77.23l-3.33.2c-.35,0-.69.12-1,.14-.76.06-1.53.1-2.29.13a2,2,0,0,1-.59-.07.39.39,0,0,1-.09-.25c.16-.1.34-.16.51-.25.44-.22.89-.44,1.31-.68.07,0,.07-.19.07-.28s-.15-.07-.23-.06a18,18,0,0,0-2.33.22,10.63,10.63,0,0,1-2.18.33l-2.24,0a2.07,2.07,0,0,0-1.4.28c-.06.05-.19.1-.23.07-.59-.34-1.22-.07-1.82-.14a2.86,2.86,0,0,1-.93-.13c-.29-.13-.73,0-1.11,0a5.08,5.08,0,0,0-1,0,7.38,7.38,0,0,1-3.33.1c-1-.22-2.09-.13-3.11-.39a5.7,5.7,0,0,0-1.43,0c-.46,0-.91.2-1.38,0-.08,0-.2.06-.31.08a2.46,2.46,0,0,1-.59.08.37.37,0,0,1-.25-.21c0-.06.09-.21.17-.23.28-.06.28-.23.33-.46a1.68,1.68,0,0,1,.51-1.07,1,1,0,0,0,.32-.7c0-.56.37-.94.55-1.4,0,0,.08-.08.13-.11a.83.83,0,0,1,0,.15c0,.08,0,.19,0,.24-.19.18-.24.36-.05.57l.31-.47c0-.07.13-.15.12-.21-.1-.59.25-.72.78-.69.09,0,.18-.06.26-.1-.08-.07-.16-.2-.26-.22a3.94,3.94,0,0,0-.77-.06c-.89,0-1.77-.07-2.66,0a14,14,0,0,1-1.38.27,2.3,2.3,0,0,0-.95.19,3.83,3.83,0,0,1-1.18.17c-.4,0-.91.1-1.17-.09a.5.5,0,0,0-.71.06.74.74,0,0,1-.82.16A2.49,2.49,0,0,0,15.12,94a21.71,21.71,0,0,1-3.42.39c-.93,0-1.86-.1-2.79-.12a9.66,9.66,0,0,1-2-.3c-.77-.17-1.57-.23-2.36-.33a8.44,8.44,0,0,1-1.61-.2,4,4,0,0,0-1.45-.07l-.23,0c0-.07,0-.19.08-.21.46-.19.92-.36,1.38-.53a8.23,8.23,0,0,0,1.23-.47,5.38,5.38,0,0,1,3.26-.93,4.39,4.39,0,0,0,2-.36.4.4,0,0,0,.24-.6,1.16,1.16,0,0,0-.87-.66,1.6,1.6,0,0,1-.86-.45c-.9-1-2.21-1.32-3.21-2.11l-.28-.21c.14,0,.33-.18.43-.13a4.49,4.49,0,0,0,1.92.32A8.46,8.46,0,0,1,8,87.3,7.65,7.65,0,0,1,9.82,88a2.2,2.2,0,0,1,1.08,1c.26.53.43.94,0,1.42a.57.57,0,0,0-.14.28,2.31,2.31,0,0,0,.05.46c.16,0,.39,0,.48-.13a11.87,11.87,0,0,0,1.19-1.48c.46-.74.84-1.53,1.23-2.31a2.2,2.2,0,0,0,.18-.68c.07-.43-.27-.86,0-1.3a10.46,10.46,0,0,0-1.15-3,1,1,0,0,1-.14-.36s.13-.11.16-.11a9,9,0,0,1,3.07,2.43,4.82,4.82,0,0,1,.53,2.07,16.12,16.12,0,0,1-.27,2.13c0,.94-.72,1.47-1.13,2.19-.79.13-.57.63-.46,1.1a1.59,1.59,0,0,0,.12.27c.12-.06.31-.1.34-.2a2.05,2.05,0,0,1,1.08-1,3.13,3.13,0,0,1,1.63-.37c.48,0,1-.2,1.45-.15.8.09,1.58.35,2.38.44.39,0,.91.21,1.21-.16s-.06-.77-.22-1.12A4.11,4.11,0,0,1,22,86.7a1.35,1.35,0,0,1,.19-.43c.15.1.36.17.44.31.18.32.22.73.46,1a2.62,2.62,0,0,1,.73,2.18c0,.1.07.29.15.31a.43.43,0,0,0,.39-.09c.48-.53.92-1.11,1.41-1.64.73-.78,1.21-1.81,2.38-2.16.45-.14.91-.25,1.37-.36a1.13,1.13,0,0,1,.26,0,3,3,0,0,1-.1.32c-.28.65-.87,1.09-1.21,1.73a29.37,29.37,0,0,1-1.83,2.67,1.57,1.57,0,0,0-.12.45A1.59,1.59,0,0,0,27,91a11.08,11.08,0,0,0,1.84-.5c.55-.25,1.12,0,1.63-.19A23.79,23.79,0,0,1,35,89.79h.09c2.63,0,5.26-.12,7.89.09.09,0,.19,0,.27,0,1.35.49,2.82.26,4.19.61.58.15,1.21.07,1.8.18a19.88,19.88,0,0,1,2.66.66c.35.12.57,0,.65-.17s0-.5-.36-.53a1.55,1.55,0,0,1-1-.54c-.42-.42-.3-.83.21-1.17a2.11,2.11,0,0,1,1.21-.33c.25,0,.49-.12.74-.15a2,2,0,0,1,.88,0c.77.31,1.68-.09,2.38.46a18.86,18.86,0,0,0,3.6-.19c.26-.07.56-.06.55-.37,0-.06-.43-.12-.67-.14a1,1,0,0,0-.35.11c0-.16,0-.35.08-.45a1.63,1.63,0,0,1,1.21-.7A4.69,4.69,0,0,0,62.4,87a7.85,7.85,0,0,1,3.51,0,3.13,3.13,0,0,0,1.58,0,.71.71,0,0,1,.4,0c.06.35.24.15.43.14s.67.17,1,0c0,0,.19,0,.22.07.27.43.71.42,1.15.42a4.48,4.48,0,0,1,1,0c.75.17,1.49.39,2.23.6s.78.21,1.26-.3c.26-.28-.1-.17-.14-.24-.35-.68-.68-1.37-1-2.06-.08-.18,0-.33.27-.26A6.22,6.22,0,0,1,78,87.92c.07.11.11.26.21.33s.29,0,.32,0a7.16,7.16,0,0,0,.73-2.76,19.22,19.22,0,0,1,.63-2.27c.11-.42.38-.32.55-.17a2.76,2.76,0,0,1,1.29,2.27c0,.91-.1,1.81-.14,2.72a2,2,0,0,0,.09.47,2.42,2.42,0,0,0,.42-.24c1.11-1,2.19-2,3.32-3a5.12,5.12,0,0,1,1.59-1,10.63,10.63,0,0,0,1.41-.66c.26-.14.5-.33.74-.49-.09.23-.18.46-.29.68a11.13,11.13,0,0,1-1.22,2.73c-.56.69-1.13,1.37-1.72,2-.28.32-.64.59-.92.91s-.13.58.26.57.9-.17,1.35-.16c2.22,0,4.43-.16,6.65,0,1.63.16,3.26.17,4.89.48,1.31.24,2.66.29,4,.44a18.1,18.1,0,0,1,3,.68l2.59.82a11.64,11.64,0,0,1,2.72.73.19.19,0,0,0,.18,0,2.21,2.21,0,0,1,.34-.1,2,2,0,0,0,.06.26c.1.32.47.57.61.94a.51.51,0,0,0,.71.3c.34-.18.32-.5.17-.79-.24-.47-.53-.92-.77-1.39a12.77,12.77,0,0,0-.63-1.35,4.54,4.54,0,0,1-.72-1.31c-.07-.28-.56-.39-.35-.78.22.15.43.31.66.44.86.48,1.74.93,2.58,1.45.25.15.33.24.4-.09a.66.66,0,0,1,.23,0s0,.09,0,.11c-.31.31,0,.3.19.42a7.81,7.81,0,0,1,1.43,1c.17.17.35.39.49.25s.33-.65.22-.76c-.48-.49-.46-1.12-.7-1.68a5.74,5.74,0,0,0-1.23-2.22,3.54,3.54,0,0,1-.68-1.08c-.06-.12,0-.29,0-.45a1.73,1.73,0,0,1,.37.16c.61.43,1.2.92,1.84,1.32a10.34,10.34,0,0,1,3.32,3c.26.4.41.4.7,0a.81.81,0,0,0,.17-.52c0-.26-.23-.56-.15-.76a6.87,6.87,0,0,0,.12-2.3,2.29,2.29,0,0,0-.36-1.72,2.93,2.93,0,0,1-.37-.7.65.65,0,0,1,0-.24,1,1,0,0,1,.26.09,8.26,8.26,0,0,1,2,2.74,3.35,3.35,0,0,1,.29,2.72c-.12.36-.41.8,0,1.21.06.06.11.15.17.22s.17-.13.18-.21,0-.35.27-.28a.88.88,0,0,1-.08.39,4.91,4.91,0,0,0-.7,1.67c0,.08,0,.18,0,.23-.53.59-.29,1.19-.16,1.84s.61,1.07.76,1.65a2.25,2.25,0,0,0,.83,1.11c.14.14.32.25.45.4a6.27,6.27,0,0,0,2,1.27c1.62-.08,3.24-.08,4.84-.26a4.87,4.87,0,0,1,1.66,0,3.88,3.88,0,0,0,1.72-.13,5.37,5.37,0,0,1,2.31-.18,4.06,4.06,0,0,0,1.46.09,8.28,8.28,0,0,1,2.72,0c1.46.2,2.94.22,4.42.32a1.36,1.36,0,0,1,.35,0,9.42,9.42,0,0,0,3.08.3,4.1,4.1,0,0,1,1,0,9.8,9.8,0,0,0,3.7,0,3.44,3.44,0,0,0,1.06-.27,5.86,5.86,0,0,0,.13.73,2.11,2.11,0,0,0,1.47,1.7l1.61.41a4.35,4.35,0,0,0,1.06.22,11.62,11.62,0,0,1,3.27.5,7.71,7.71,0,0,0,1.91.32c1,0,2.05-.06,3.08-.05a5.43,5.43,0,0,0,1.65-.32c1.07-.3,2-.86,3-1.2a8.27,8.27,0,0,0,2.48-1.65,7.66,7.66,0,0,0,1.58-2c.44-.66.76-1.4,1.17-2.08s.84-1.3,1.26-2a7.29,7.29,0,0,1,1.54-1.84c.35-.28.41-.28.75,0a1.83,1.83,0,0,1,.5,2,15.93,15.93,0,0,1-1,2.88c-.12.27-.27.57-.07.73s.51-.08.76-.16c.1,0,.17-.16.26-.23.38-.33.77-.65,1.16-1,.64-.51,1.28-1,1.93-1.51.49-.37,1-.73,1.49-1.09,0,0,.17,0,.17.07a.86.86,0,0,1,0,.42,16.91,16.91,0,0,1-.88,2.1c-.61,1.1-1.3,2.15-2,3.21-.22.35-.12.67.3.7a1,1,0,0,0,.88-.26,3.81,3.81,0,0,1,1-.59,13.86,13.86,0,0,0,1.51-.84,16.35,16.35,0,0,1,3.51-2,9.45,9.45,0,0,1,1.68-.45c.22,0,.48.05.36.33a7.67,7.67,0,0,1-.68,1.34,9.63,9.63,0,0,1-1.87,2.31c-.36.3-.1.56,0,.79s.34.13.57,0c.69-.33,1.4-.62,2.1-.92s1.1-.48,1.67-.69,1.11-.32,1.64-.54a6.29,6.29,0,0,1,2.72-.34.6.6,0,0,1,.6.6,3.06,3.06,0,0,1-.57,2c-.26.42-.09.59.18.83s.49,0,.75-.12a5.67,5.67,0,0,1,1.53-.78,5.65,5.65,0,0,0,2.31-.87,3.54,3.54,0,0,1,.91-.37,36.09,36.09,0,0,0,3.67-1.41,20.89,20.89,0,0,1,6.22-1.55,11,11,0,0,0,1.42,0c.42-.12.82,0,1.23-.13.2-.09.5,0,.75.07s.44.11.59.05a3.32,3.32,0,0,1,2.64.18.6.6,0,0,0,.57,0c.74-.38,1-.46,1.41-.15a4.32,4.32,0,0,0-.73.87c0,.07,0,.22,0,.33a.75.75,0,0,0,.61,1,8.13,8.13,0,0,0,1.39-.1,13.66,13.66,0,0,0,2.19-.71,10.43,10.43,0,0,0,2.7-1.21c.19-.13.37-.57.77-.34-.15.27-.29.55-.45.82a1,1,0,0,1-.18.18l-2,2.1c-.26.29-.5.59-.75.9,0,0,0,.11-.06.17a.93.93,0,0,0,.24,0s.08-.08.13-.11l.25-.13a.69.69,0,0,1,0,.24.46.46,0,0,1-.19.2.39.39,0,0,1-.26,0c-.44-.12-.71.19-1,.36s-.23.49,0,.7.27.52.61.18a3.9,3.9,0,0,1,1.95-.85,13.79,13.79,0,0,1,3.78-.63,8.59,8.59,0,0,0,1.89-.18,18.36,18.36,0,0,1,3.7-.37l.42.06a1.89,1.89,0,0,1-.34.35,1.67,1.67,0,0,1-.4.1c-.7.26-1.4.5-2.08.78-.18.08-.28.24-.07.47a2.33,2.33,0,0,0,2.21.54,1.53,1.53,0,0,1,.93-.08,2.88,2.88,0,0,0,1.19.12,5.27,5.27,0,0,1,.7,0,6.09,6.09,0,0,0,1.85.27,9.47,9.47,0,0,1,1.84.25c.48.08,1,.55,1.52,0a.48.48,0,0,1,.36-.08C244.71,102.85,244.77,103,244.84,103Z"/><path id="fill5" class="cls-3" d="M108,100c-.16.36-.48.7-.1,1.11,0,0,0,.2-.1.27a6.62,6.62,0,0,1-3.93,2.23,24.92,24.92,0,0,1-2.64.49,14.43,14.43,0,0,1-3-.26,20.51,20.51,0,0,0-3.32-.15,2.84,2.84,0,0,1-.57-.1c.09-.19.12-.45.27-.55a4.94,4.94,0,0,1,1.3-.69,14.9,14.9,0,0,1,2.9-.58,3.24,3.24,0,0,0,2.81-2.16,7.57,7.57,0,0,1,1.6-2.33,2.82,2.82,0,0,1,.55-.26,1.19,1.19,0,0,0,.34-.16c.42-.44.53-.44,1.16-.21a6.22,6.22,0,0,0,1.37.32c.17,0,.39-.18.57-.3s.22-.27.38,0,.2.28-.08.35c0,0-.09.15-.06.17a2.07,2.07,0,0,1,.45,1.52c0,.32.13.63.17.94A.75.75,0,0,1,108,100Zm-5.08-3.65a2.14,2.14,0,0,0-.44,0,11.33,11.33,0,0,1-3.34.08,17.2,17.2,0,0,1-2.89-.58,2.62,2.62,0,0,0-2.08.11,9.29,9.29,0,0,0-3,2.5,3.28,3.28,0,0,0-.52,2.74,3.51,3.51,0,0,0,1.71,1.93,1.19,1.19,0,0,0,1.18.09c.58-.16.68-.62,1.05-1a9.94,9.94,0,0,1,4.11-1,2.41,2.41,0,0,0,2.22-1.36A10,10,0,0,1,103,96.56a.71.71,0,0,0,.11-.17ZM114,101.68a.9.9,0,0,1-.17-.44c0-.19,0-.18-.3-.13-.06,0-.19-.07-.23-.14a.86.86,0,0,1-.11-.52c.43,0,.3-.28.22-.45s-.28-.14-.42-.2c0,.13.08.26.11.4a.26.26,0,0,1-.08.25c-.3-.21-.58-.59-.89-.61a13.4,13.4,0,0,0-1.74.23c-.64.07-1.27.46-1.91.19-.4-.17-.11.22-.26.21s0,.18,0,.2c.46.25.46.39.3.89s-.52.36-.72.55,0,.67-.51.79c-.15,0-.25.24-.39.31a.86.86,0,0,0-.38,1,.61.61,0,0,0,.07.14,2.92,2.92,0,0,1,.38-.32s.16,0,.23.05a10,10,0,0,0,1.17.39c.5.11,1,.44,1.53,0,.7-.58,1.73-.49,2.45-1.16s.77-.46,1.31-1.15a.2.2,0,0,1,.14-.08C114.28,102.14,114.25,102,114,101.68Zm60.68-7.16a3.82,3.82,0,0,0-1.4-2.4,3.51,3.51,0,0,0-1.25-.37.45.45,0,0,0-.1.25c0,.3,0,.26-.31.25a4.35,4.35,0,0,0-1.65,0,3,3,0,0,0-2,2,3.22,3.22,0,0,1-1,1.91,1.79,1.79,0,0,1-1.88.47,2.09,2.09,0,0,0-.66-.06c-.34,0-.71.21-1,.13a10.52,10.52,0,0,0-2.44-.13,4.53,4.53,0,0,1-.52,0L156.75,96a1.23,1.23,0,0,0-.79.23c-.67.34-.63,1.09-1.13,1.53-.2.17-.06.68-.08,1.21a2.89,2.89,0,0,0,0,.59c.17.59.36,1.19,1.07,1.41a10.77,10.77,0,0,0,3.6.75,5.94,5.94,0,0,1,1.66.27,10.89,10.89,0,0,0,2.72.51c.8,0,1.61,0,2.41,0a8.88,8.88,0,0,0,2.43-.38,23,23,0,0,0,3.53-1.71c.86-.51,1.82-1.12,2-2.12A8.27,8.27,0,0,0,174.63,94.52ZM170,91.26a19.75,19.75,0,0,0-3.6-.32c-.87.09-1.75.09-2.6.22a15.84,15.84,0,0,0-2.37.6,19.65,19.65,0,0,0-1.88,1c-1,.66-2,1.39-2.9,2.11a.57.57,0,0,0-.17.43c0,.06.26.13.4.15,1.24.17,2.49.27,3.71.5a6,6,0,0,0,1.18.13c1.19,0,2.39,0,3.58,0a1.4,1.4,0,0,0,1.36-.62,3.2,3.2,0,0,0,.63-1.52,2.63,2.63,0,0,1,2.67-2.31,1.35,1.35,0,0,0,.34-.11C170.28,91.4,170.17,91.27,170,91.26Zm-2.68-1.93a11.1,11.1,0,0,0-.89-2.7c-.38-.8-.92-1.49-1.33-2.26a1.4,1.4,0,0,0-.32-.37,31.11,31.11,0,0,0-3.61-2.84c-.32-.23-.59-.54-.91-.78a12.49,12.49,0,0,0-3.09-1.33c-.62-.21-1.21-.49-1.82-.74a5.79,5.79,0,0,0-1.7-.41c-1-.1-2.07-.32-3.1-.45a4.36,4.36,0,0,0-.94.1c-.14,0-.28.06-.42.07A8,8,0,0,0,145.17,79c-.27.18-.56.33-.84.49a5.75,5.75,0,0,0,1,.26c2,.59,4,1.08,5.48,2.6.32.33.6.46,1,.18A5.11,5.11,0,0,1,154,82c1.06-.17,2.16-.13,3.23-.25.35,0,.64.18,1,.05a2.69,2.69,0,0,1,1.17.12,5,5,0,0,1,1.09.17A16.05,16.05,0,0,1,164.42,84c.05,0,.12.07.13.11s0,.27,0,.4a1.5,1.5,0,0,1-.37,0,16.93,16.93,0,0,1-1.54-.76,8.66,8.66,0,0,0-4.64-1.26c-.71,0-1.43,0-2.15,0a14.58,14.58,0,0,0-2.88.39.54.54,0,0,0-.4.26c0,.11.13.29.24.39.57.48,1.16.93,1.71,1.42a1.36,1.36,0,0,1-.44,2.33,7.85,7.85,0,0,1-2.13.65,11.19,11.19,0,0,1-2.16.19,15.21,15.21,0,0,0-4.54.91c-.35.1-.38.34-.13.6a13.39,13.39,0,0,1,1.51,1.67,2.47,2.47,0,0,1,.22,2.59,5.16,5.16,0,0,1-3.29,2.93c-1,.29-1.88.73-2.82,1.1l-.73.28c.23.32.58.1.87.15.95.16,1.94.1,2.9.29a11.88,11.88,0,0,0,2.07.16c1.41.06,2.82.07,4.22.14a5.66,5.66,0,0,0,1.79.08,8.28,8.28,0,0,1,.87-.12,2.47,2.47,0,0,1,1.13.19c0-.13,0-.27,0-.4a3.87,3.87,0,0,1,1-2.73c.17-.24.38-.47.56-.71a15.18,15.18,0,0,1,3.22-2.77A13.24,13.24,0,0,1,161,91.21a14.14,14.14,0,0,1,3.35-.75c.75,0,1.5-.19,2.25-.17l.83,0C167.37,90,167.37,89.4,167.36,89.33Zm-13.21-3.81a8.89,8.89,0,0,0-1-1.11,6.1,6.1,0,0,0-.82-.59l-.19-.12c0,.08-.07.17,0,.23.09.22.24.42.31.64a1.18,1.18,0,0,1,0,.45,1.35,1.35,0,0,1-.48-.13,1.65,1.65,0,0,1-.39-.51,5.8,5.8,0,0,0-3.75-3c-.84-.25-1.65-.58-2.48-.87a4.62,4.62,0,0,0-.95-.26.93.93,0,0,0-.88.25c-.41.41-.48.36-.89-.12a.88.88,0,0,0-.56-.27,17.64,17.64,0,0,0-3.7.35c-.42.09-.87.07-1.3.13a23.57,23.57,0,0,0-3,.9,14.17,14.17,0,0,0-2.81,1.15c-1,.51-1.86,1.19-2.78,1.79a10.56,10.56,0,0,0-3.19,3c-.33.5-.93.82-1.24,1.37a4.35,4.35,0,0,1-.73.54h.23c.22,0,.24,0,.09.22s-.12.43-.06.69a1.18,1.18,0,0,1-.15.69c-.4.85-.77,1.73-1.25,2.54-.24.4-.06.76-.14,1.13,0,0,0,.08,0,.08.9-.06.35.74.7,1.06a11.31,11.31,0,0,1,1.21,1.53,2.33,2.33,0,0,0,.27.4c.39.3.61.75,1.27.79a8.51,8.51,0,0,0,2.47.11c.34.3.67,0,1,0,.9-.11,1.82-.06,2.7-.23.61-.12,1.26.22,1.84-.17a4,4,0,0,0,1.89.15,8.88,8.88,0,0,0,3-.48c.73-.25,1.54-.29,2.28-.54s1.68-.8,2.57-1.06a5.71,5.71,0,0,0,2.33-1.41,4.87,4.87,0,0,0,1.1-2,1.16,1.16,0,0,0-.3-1,12.07,12.07,0,0,0-1.93-2.11c-.69-.6-.65-.74.27-1,1.09-.36,2.18-.75,3.3-1a6.41,6.41,0,0,1,1.7,0,18.23,18.23,0,0,0,3.61-.57C154,86.91,154.48,86,154.15,85.52Z"/><path id="fill4" class="cls-4" d="M217.88,95.7a1,1,0,0,0-.35-.22,11.84,11.84,0,0,1-2.4-1.48c-.81-.52-1.65-1-2.47-1.51l-3-1.84c-.21-.13-.41-.29-.63-.41a12,12,0,0,1-2.1-1.58c-1-.85-2.13-1.58-3.14-2.43s-1.8-1.7-2.71-2.55a1.81,1.81,0,0,0-.21-.18C200,82.74,199,82,198,81.23c-.62-.52-1.17-1.11-1.79-1.63-.84-.71-1.72-1.38-2.59-2.07-.24-.18-.52-.33-.75-.53-1.81-1.55-3.63-3.09-5.42-4.66-1.17-1-2.31-2.1-3.44-3.17-1.49-1.41-3-2.83-4.42-4.24s-3.21-3.06-4.8-4.6q-1.71-1.63-3.4-3.29a28.58,28.58,0,0,1-3.14-3.55,13,13,0,0,0-1.4-1.47c-1.3-1.26-2.62-2.5-3.9-3.77-1-1-2-2-3-3S158,43,157,41.86c-.84-1-1.58-2-2.46-2.91a47.8,47.8,0,0,0-3.84-3.69c-1.12-.94-2.44-1.67-3.65-2.51a7.83,7.83,0,0,1-1.24-1.05,27.6,27.6,0,0,1-2.61-3,21.28,21.28,0,0,0-2-2.24c-.16-.18-.29-.3-.58-.09-.13.1-.48,0-.7-.11a14.33,14.33,0,0,1-3.14-1.85,7.5,7.5,0,0,1-1.85-1.88s-.07-.05-.11-.08-.07.1-.06.15a2.64,2.64,0,0,0,.19.68,13.83,13.83,0,0,1,.94,2.76A12.15,12.15,0,0,1,136,28.5a.53.53,0,0,1,0,.25,3.11,3.11,0,0,1-.48,1.06c-.1.1-.61-.14-.93-.21a11.71,11.71,0,0,1-3-1.42.89.89,0,0,1-.29-.29c-.11-.17-.2-.35-.3-.52L131,28a3.87,3.87,0,0,0,.56,2c.05.09.08.21.16.27a21.09,21.09,0,0,1,3.62,3.88,14.57,14.57,0,0,1,1.31,2.43A10.5,10.5,0,0,0,140,40.09c.72.54,1.44,1.07,2.16,1.62A11.72,11.72,0,0,1,143.7,43c1.2,1.32,2.68,2.43,3.6,4,.65,1.09,1.28,2.19,1.86,3.32a7.43,7.43,0,0,0,1.4,2,8.3,8.3,0,0,0,2,1.33,6,6,0,0,1,2.52,2.55,9.09,9.09,0,0,0,1.61,2.15c1.2,1.14,2.41,2.28,3.57,3.47a14.42,14.42,0,0,1,1.94,2.35c.88,1.42,1.61,2.91,2.4,4.37a1.06,1.06,0,0,1,0,.31c-.18-.15-.45-.31-.52-.54a18.24,18.24,0,0,0-2.64-4.69,23,23,0,0,0-2.71-2.89c-.3-.3-.63-.58-.94-.87a6.22,6.22,0,0,0-.9-.81c-1.32-.84-1.92-2.18-2.74-3.38a8,8,0,0,0-2.73-2.33A7.63,7.63,0,0,1,149,50.88a13.27,13.27,0,0,1-.93-1.75,4.21,4.21,0,0,0-1-1.38c-.26-.23-.37-.59-.6-.85-.56-.66-1.14-1.3-1.73-1.93s-1-1.09-1.54-1.58c-.7-.63-1.44-1.21-2.17-1.8-.55-.43-1.12-.84-1.66-1.29A12.83,12.83,0,0,0,138,39.11a4.84,4.84,0,0,1-1.54-1.58,18.33,18.33,0,0,1-1.3-2.53,10.67,10.67,0,0,0-1.45-1.87c-.31-.38-.78-.62-.92-1.15-.05-.19-.51-.28-.82-.46a1.11,1.11,0,0,1-.1-.26l-.11,0c0,.09.11.17.17.26.19.32.3.79.59.93.83.39.85,1.15,1,1.79.3,1.12.37,2.28.62,3.41s.58,2.08.83,3.13a20.54,20.54,0,0,1,.46,2.44c.1.75.21,1.49.38,2.22s.12,1.31.23,2c.2,1.08.29,2.18.54,3.25a7.55,7.55,0,0,1,.2,2.79,29.91,29.91,0,0,0-.08,3.9,6.4,6.4,0,0,1-.51,2.59c-.22.46-.27.54-.73.33a6.41,6.41,0,0,1-1.06-.65,15.74,15.74,0,0,0-3-2.12,1.54,1.54,0,0,1-.39-.34l-1.79-1.65c-.68-.63-.67-.63-.95.19s-.59,1.57-.86,2.36c-.2.6-.34,1.21-.52,1.82A14.43,14.43,0,0,1,125,64.56a3,3,0,0,1-1.76,1.16,2.62,2.62,0,0,1-1.86-.6c-.88-.53-1.72-1.13-2.58-1.69a2.07,2.07,0,0,0-2.77.51c-.7,1-1.13,2.09-1.75,3.11a5.24,5.24,0,0,1-.72.91,1,1,0,0,1-1.44,0,11.4,11.4,0,0,1-1.06-1.69c-.27-.51-.45-1.06-.71-1.58a1.52,1.52,0,0,0-1.94-.74,19.66,19.66,0,0,0-2.78,1.24c-1.17.67-2.31,1.39-3.42,2.15-.87.6-1.78,1.16-2.58,1.83a31.75,31.75,0,0,1-3.38,2.28c-2,1.29-4.08,2.52-6.1,3.79-.57.36-1.07.81-1.63,1.19a9.09,9.09,0,0,1-1.35.78,1.62,1.62,0,0,1-2-1.1,5.68,5.68,0,0,1-.06-3,3.41,3.41,0,0,0,0-1,22.94,22.94,0,0,1,.46-3.51c.14-1,.38-2,.54-3a6,6,0,0,1,.22-.93c.26-.8,0-1.16-.87-1.22A6.14,6.14,0,0,0,83,64a33.33,33.33,0,0,0-3.67,1.63c-1.35.67-2.63,1.45-4,2.1-1.93.91-3.89,1.74-5.84,2.6-.82.36-1.7.63-2.49,1a16.25,16.25,0,0,1-2.85,1c-1.67.5-3.34,1-5,1.4-1.29.31-2.56.73-3.86,1a14.56,14.56,0,0,1-2.48.39,13,13,0,0,0-3.79.94c-1.85.61-3.64,1.36-5.49,2-1.46.49-3,.83-4.43,1.32-1.21.4-2.44.73-3.66,1.06s-2.53.78-3.84,1.07c-.73.16-1.45.49-2.21.67-.11,0-1.31.33-1.95.46l-.63.45a17.55,17.55,0,0,1-2.38,1.68,5.94,5.94,0,0,0-1.2.93c-.09.08-.19.27-.15.34.35.57.72,1.13,1.09,1.68a1.42,1.42,0,0,0,.25.24,1.58,1.58,0,0,1,.09-.31c.39-.66-.11-1.07-.46-1.54-.07-.1-.19-.29-.16-.33a.51.51,0,0,1,.77,0c.15.27.24.58.38.86s.18.43.46.12c1.14-1.21,2.76-1.68,4.24-2.34a4.18,4.18,0,0,1,1.67-.17.35.35,0,0,1,.3.61,3.23,3.23,0,0,1-.37.37,11.69,11.69,0,0,0-2,2.5c-.34.49-.7,1-1,1.46a2.5,2.5,0,0,0-.25.41,1.42,1.42,0,0,0-.1.29c.11,0,.25.1.32.06,1-.58,2.19-.28,3.27-.52a19.66,19.66,0,0,1,4.05-.4A1.53,1.53,0,0,0,36,89c.36-.1.35-.07,1,.07a1.43,1.43,0,0,0,.94-.08,1.85,1.85,0,0,1,2,0,.45.45,0,0,0,.24.06q1.13.09,2.25.15c1,.05,2,.08,3.06.15.2,0,.38.24.59.28.69.14,1.38.26,2.08.35s1.26.1,1.89.16a1.34,1.34,0,0,1,.26.09.91.91,0,0,0,0-.33c-.28-.68-.17-.64.3-1.2a3.46,3.46,0,0,1,2.56-.93,13.51,13.51,0,0,1,3.8.23c.45-.38,1,.3,1.48-.13.15-.13.32,0,.1.22.12,0,.27.12.36.08a.62.62,0,0,0,.26-.31c.05-.12,0-.33,0-.39a3.37,3.37,0,0,1,1-.63,6.26,6.26,0,0,1,2-.55,3.12,3.12,0,0,0,1.54-.17.68.68,0,0,1,.35,0,19.57,19.57,0,0,0,2.85.18c1-.06,1.84.32,2.79.26.19,0,1.82.49,2.07.57a4.27,4.27,0,0,0,1.06.23,2.08,2.08,0,0,1,1.32.46s.2,0,.3,0a1,1,0,0,0-.15-.25,5.68,5.68,0,0,1-.57-.64c-.3-.55-.56-1.12-.81-1.7a1.52,1.52,0,0,1-.1-.63c0-.08.17-.22.24-.22a9.71,9.71,0,0,1,1.33.22,7.59,7.59,0,0,1,3.49,1.86,1.32,1.32,0,0,0,.43.2l.06-.4c.11-.63.2-1.26.34-1.89s.34-1.21.52-1.82a1.61,1.61,0,0,1,.17-.43c.36-.64.47-.67,1-.17S81.42,83,82,83.55a1.65,1.65,0,0,1,.47,1.33c-.05.63.19,1.28-.15,1.88,0,0,0,.13.06.14s.19,0,.23,0c.42-.33.86-.66,1.25-1a13.88,13.88,0,0,1,3.76-2.6c.33-.15.62-.37.93-.54a1.92,1.92,0,0,1,.52-.25c.59-.14.84.07.72.62a8.38,8.38,0,0,1-2.55,4.82c-.38.32-.71.67-1.06,1a.21.21,0,0,0-.06.21.22.22,0,0,0,.2.1,9.66,9.66,0,0,1,2.34-.2A9.35,9.35,0,0,1,90,89c.84,0,1.67,0,2.51,0,1.2,0,2.4,0,3.6.14.8.07,1.58.33,2.38.45.54.08,1.08,0,1.63.14.82.2,1.69.21,2.53.35s1.7.32,2.54.53c1.63.41,3.17,1.1,4.83,1.43a4.07,4.07,0,0,1,.91.39,1.09,1.09,0,0,0,0-.26A12.57,12.57,0,0,0,109,89s-.11-.08-.12-.12c-.08-.29-.48-.5-.19-.86s.65-.07.92,0c.93.39,1.83.85,2.75,1.27.5.23,1,.4,1.49.67s1,.31.95,1a.18.18,0,0,0,.35,0,.69.69,0,0,0,0-.51c-.63-1-1.29-2.08-1.93-3.13a4.43,4.43,0,0,1-.75-1.65.69.69,0,0,1,.26-.7c.21-.17.41,0,.62.12a9.21,9.21,0,0,0,.94.48l.29.17,2.33,1.65,1.68,1.21c.13.18.2.33.31.45s.38.33.57.5c.22-.26-.08-.44-.11-.66a6.64,6.64,0,0,1,0-1.18,4.49,4.49,0,0,0-1.06-3c0-.07-.16-.11-.19-.18-.1-.32-.47-.62-.15-1s.65-.14,1-.08a3.88,3.88,0,0,1,2.46,2,5.41,5.41,0,0,1,1.09,2.1c.07.39.18.78.22,1.18s0,.44.17.52a4.41,4.41,0,0,1,.45-.89c.79-.6,1-1.54,1.71-2.23a23.23,23.23,0,0,1,4-3.15c.88-.58,1.81-1.06,2.7-1.62a12.23,12.23,0,0,1,2.55-.91,20.62,20.62,0,0,1,5.07-.93c1.08-.08,2.16-.1,3.24-.18a2.07,2.07,0,0,0,.85-.3c.91-.51,1.77-1.1,2.72-1.55a7.42,7.42,0,0,1,2-.54,12.38,12.38,0,0,1,2.43-.19,25.66,25.66,0,0,1,2.9.29,10,10,0,0,1,1.88.4c1.06.36,2.07.87,3.14,1.19A11.27,11.27,0,0,1,162.34,81a21.82,21.82,0,0,1,2.33,1.83,12,12,0,0,1,3.09,4.7c.12.4.2.82.3,1.23a4.34,4.34,0,0,1,.09,1.59,18.3,18.3,0,0,1,4.06.77c.11,0,.25.11.32.07,1.1-.58,1.47.42,1.95.91a4.24,4.24,0,0,1,1,3.14c0,.28-.55.56,0,.83a5.6,5.6,0,0,1,.35-.74c.59-.88,1.17-1.75,1.8-2.6A16.77,16.77,0,0,1,179,91.09c.39-.42.65-.38,1.1,0A2.58,2.58,0,0,1,181.26,94a10.84,10.84,0,0,1-.62,1.85l-.09.18a1.09,1.09,0,0,0,.25,0,.46.46,0,0,0,.23-.09c.85-.64,1.69-1.29,2.55-1.93.6-.44,1.22-.86,1.85-1.27.41-.27.77-.13.75.32a5.17,5.17,0,0,1-.26,1.41,14,14,0,0,1-2,3.87.93.93,0,0,0-.12.33,1.1,1.1,0,0,0,.41,0c1.22-.7,2.39-1.47,3.64-2.1a13.3,13.3,0,0,1,2.63-1c.47-.13.88-.47,1.45-.39s.86.34.71.83a4.87,4.87,0,0,1-1.14,2.25,4.29,4.29,0,0,0-.43.42c-.23.29-.43.6-.64.89.37-.1.73-.19,1.09-.31a40,40,0,0,1,5.13-1.58,2.06,2.06,0,0,1,1.39,0c.28.13.74.08.92.32a3,3,0,0,1,.35,1,1.47,1.47,0,0,1,0,.42c0,.88,0,.86.92.5,1.3-.5,2.61-1,3.92-1.46a16.13,16.13,0,0,0,2.08-.77,14.34,14.34,0,0,1,3.63-1.31c.68-.17,1.39-.23,2.08-.37a32.58,32.58,0,0,1,5-.22,5.48,5.48,0,0,1,.7,0,.7.7,0,0,1,.19.06C217.89,95.85,217.92,95.74,217.88,95.7ZM49.76,89c.05,0,.06.06.07.11S49.75,89.07,49.76,89Zm.36-.43s.06,0,.11-.06A.09.09,0,0,1,50.12,88.58ZM165.82,72l-.11-.27c-.32-.74-.66-1.47-1-2.21a3,3,0,0,1-.13-.66,6.35,6.35,0,0,1,1.28,2.83A1.16,1.16,0,0,1,165.82,72Z"/><path id="fill3" class="cls-5" d="M136,57.53a5.41,5.41,0,0,1-.13,1.74c-.25.69-.34.79-.93.34-1-.75-1.93-1.51-2.85-2.3s-1.62-1.49-2.44-2.23a5.16,5.16,0,0,0-.89-.64c-.17-.1-.42-.21-.5.18s-.3.61-.4.94c-.51,1.48-1.08,3-1.47,4.48a12.77,12.77,0,0,1-1.75,4.22,2.08,2.08,0,0,1-2.79.49c-.84-.59-1.69-1.17-2.58-1.69-.53-.32-1.09-.78-1.77-.61a3.25,3.25,0,0,0-1.77,1c-.65.83-1,1.82-1.61,2.68a8.08,8.08,0,0,1-.88,1.25c-.41.38-.54.37-.87-.07a2.5,2.5,0,0,1-.25-.41c-.37-.79-.75-1.57-1.1-2.36-.6-1.38-1.55-1.47-2.89-1.07a13.41,13.41,0,0,0-3.23,1.57c-2.11,1.35-4.11,2.84-6.19,4.22s-4.34,2.84-6.56,4.19a46.67,46.67,0,0,0-4.4,2.79c-.54.42-1.44.47-1.68,0a2.76,2.76,0,0,1-.53-1.39c0-1.41.08-2.82.13-4.24a.86.86,0,0,1,0-.16c.16-1,.32-1.9.5-2.84.12-.62.27-1.24.42-1.86a5.86,5.86,0,0,0,.25-2.08,1.23,1.23,0,0,0-1.33-.95,26.79,26.79,0,0,0-4.73,1.66c-1.39.64-2.7,1.44-4.07,2.14s-2.67,1.25-4,1.9c-1,.5-2,1.12-3,1.53a46.5,46.5,0,0,1-6.83,2.41c-1,.25-2,.49-3.07.76-1.53.39-3,.82-4.57,1.22-.6.15-1.21.26-1.82.35a15,15,0,0,0-1.8.21q-2.51.7-5,1.52c-1.18.38-2.31.88-3.48,1.25-2.16.67-4.32,1.33-6.51,1.91-.86.22-1.69.53-2.54.77s-1.79.38-2.67.65a6.27,6.27,0,0,1-1.27.39,4.29,4.29,0,0,0-1.34.59c-.09,0-.52.18-.95.32l1.76-1.28a15.23,15.23,0,0,0,2.85-2.24,2.55,2.55,0,0,1,.4-.32c1.24-.88,2.51-1.75,3.74-2.66.79-.58,1.52-1.26,2.3-1.86,2-1.55,4.25-2.88,6.26-4.46a40.15,40.15,0,0,0,3.4-2.8,2.58,2.58,0,0,1,.38-.36c.74-.55,1.53-1.05,2.21-1.65,1.45-1.27,2.83-2.6,4.25-3.9.69-.63,1.39-1.27,2.11-1.86,1.35-1.11,2.74-2.17,4.09-3.28.86-.71,1.66-1.48,2.5-2.22.57-.51,1.15-1,1.75-1.51a54.13,54.13,0,0,0,4.47-3.81c.59-.59,1.2-1.17,1.81-1.74,1.22-1.13,2.48-2.23,3.67-3.39,1.37-1.31,2.66-2.7,4-4,1.16-1.12,2.37-2.19,3.55-3.27l3.19-2.9,2.62-2.35s.07-.1.12-.12a.4.4,0,0,1,.24,0,.22.22,0,0,1,.06.22c-.29.86-.62,1.72-.9,2.59a7.6,7.6,0,0,0-.29,1.32c0,.33.11.2.26.07s.3-.14.43-.25l2.49-2c.78-.64,1.55-1.31,2.36-1.93A40.46,40.46,0,0,0,97.62,27a1.13,1.13,0,0,1,.18-.12.46.46,0,0,1,.06.22c0,.49-.14,1-.15,1.46a10.71,10.71,0,0,1-.69,3.1,55.74,55.74,0,0,0-1.36,5.53c-.1.46.12.64.64.65a1.37,1.37,0,0,0,1-.5,21.24,21.24,0,0,0,2.78-3,26.67,26.67,0,0,1,2.16-2.63,9.53,9.53,0,0,0,1-1.14c.58-.92,1.07-1.89,1.61-2.83.29-.51.62-1,1-1.49.11-.17.27-.31.49-.07a3.67,3.67,0,0,1,1,2.29,16.67,16.67,0,0,0,.41,3.06c.23,1,.37,2,.59,3a.74.74,0,0,0,.38.45c.25.09.38-.12.51-.32a14.43,14.43,0,0,0,1.18-1.91,7.88,7.88,0,0,0,1.09-3.37c0-.11.07-.28.15-.31a.45.45,0,0,1,.37.1,32,32,0,0,1,3.49,4.95c1,1.67,1.67,3.46,2.55,5.16a13.55,13.55,0,0,0,1.17,2c.41.54.8.46,1.1-.17a9.8,9.8,0,0,0,1.07-4,29.89,29.89,0,0,0-.21-5.75c-.19-1-.22-2-.42-3a29,29,0,0,1-.37-3.06c0-.29-.14-.66.24-.81,0,0,.28.32.44.5s.13.11.18.18a33.67,33.67,0,0,1,2,2.74,64.47,64.47,0,0,0,4.14,5.62c.09.12.32.29.4.26a1.17,1.17,0,0,0,.34-.41,7.43,7.43,0,0,0,.65-2.43,5.25,5.25,0,0,0,0-2.43,15.81,15.81,0,0,0-1.29-2.61c0-.09-.08-.19-.13-.29.13,0,.28,0,.37,0,.79.46,1.57.93,2.35,1.4a.34.34,0,0,1,.16.23,12.23,12.23,0,0,0,.84,3.3,7.51,7.51,0,0,0,1.1,2.19,2.75,2.75,0,0,1,.46,1c.28,1.22.51,2.45.77,3.68.16.75.34,1.5.51,2.25.21.91.44,1.81.61,2.72a13.22,13.22,0,0,0,.23,1.69,14.9,14.9,0,0,1,.34,2c.15.69.15,1.41.23,2.11a6.83,6.83,0,0,0,.2,1.28,12,12,0,0,1,.56,3.75C136.12,54.65,136,56.09,136,57.53Z"/><path id="fill2" class="cls-1" d="M140.63,25.46a1.12,1.12,0,0,1-.88,0c-1.06-.68-2.1-1.4-3.09-2.17s-1.74-1.47-2.61-2.21c-.51-.26-.83-.54-1.2-.75a.61.61,0,0,0-.52.05c-.07,0-.05.33,0,.43.35.46.78.84,1.12,1.33a11.3,11.3,0,0,1,1.17,2.33,9.32,9.32,0,0,1,.82,3.31,2.06,2.06,0,0,1,0,.43c-.14.65-.18.59-.95.5a3.55,3.55,0,0,1-1.59-.67c-1.17-.76-2.28-1.59-3.47-2.33A27.54,27.54,0,0,0,127,24.42c-.4-.19-.56-.09-.49.33a5.66,5.66,0,0,0,.42,1.1,14.25,14.25,0,0,0,1.16,2.59,2.48,2.48,0,0,1,.24,1.75c-.1.81-.32,1.61-.49,2.41a.66.66,0,0,1,0,.15.59.59,0,0,1-.19-.11c-1.13-1.55-2.31-3.07-3.38-4.66a19.79,19.79,0,0,0-3.31-4.17,2.89,2.89,0,0,0-.32-.29c-.33-.23-.77-.06-.71.32s-.13,1-.07,1.47.08.86.1,1.29a13.05,13.05,0,0,0,.56,3.5,1,1,0,0,1,0,.17c.07,1,.14,2,.22,3a6.65,6.65,0,0,0,.16,1.71,1.57,1.57,0,0,1-.08,1.21c-.15.29,0,.71,0,1.08a15.13,15.13,0,0,1-.85,3.62s-.06.08-.1.11a1,1,0,0,0-.08-.22,15.21,15.21,0,0,1-1.75-3.28,32.77,32.77,0,0,0-2-3.86,4.57,4.57,0,0,0-.29-.47.85.85,0,0,0-.26-.2c-.16.14-.28.25-.28-.08a3.08,3.08,0,0,0-.74-1.74c-.55-.78-1.15-1.52-1.76-2.25-.29-.34-.58-.67-.89-1a.35.35,0,0,0-.6.12,3.68,3.68,0,0,0-.16,1A7.3,7.3,0,0,1,110.3,32,24,24,0,0,1,109,34.1a.26.26,0,0,1-.22.06c-.06,0-.1-.13-.11-.2-.07-.68-.13-1.36-.21-2,0-.23-.13-.45-.18-.68a26.61,26.61,0,0,1-.41-3.07,3.81,3.81,0,0,0-1.23-2.63c-.53-.48-.91-.41-1.29.23-.23.38-.48.77-.7,1.16-.59,1-1.12,2.1-1.77,3.1-.47.71-1.09,1.33-1.63,2s-1.22,1.57-1.9,2.3c-.82.88-1.72,1.69-2.6,2.53a.29.29,0,0,1-.24,0,.26.26,0,0,1-.06-.23c.15-.61.32-1.22.48-1.83,0,0,.11-.09.1-.13-.19-1,.46-1.9.69-2.85s.31-1.61.52-2.41a10.75,10.75,0,0,0,.31-3.24c0-.12,0-.3-.13-.34s-.27,0-.4.08S98,26,97.91,26c-1,.95-2.11,1.87-3.11,2.85a32.44,32.44,0,0,1-2.92,2.3c-.73.55-1.38,1.2-2.06,1.8l-.25.16a.74.74,0,0,1,0-.32c.06-.17.2-.32.25-.49a8.62,8.62,0,0,0,.42-1.52,5.9,5.9,0,0,1,1.35-3.45c1.25-1.45,2.71-2.71,4.06-4.07.58-.58,1.11-1.21,1.7-1.79,1.27-1.25,2.59-2.46,3.85-3.73s2.51-2.79,3.91-4,2.24-2.72,3.51-4c1-1,1.88-2,2.75-3,1-1.2,1.89-2.49,2.92-3.68A30.52,30.52,0,0,1,116.58.89a.33.33,0,0,1,.29,0c1.46,1.14,3.12,2,4.53,3.24,1.13,1,2.37,1.89,3.44,2.94s2.23,2.38,3.34,3.57l.13.12c.69.68,1.33,1.4,2.06,2,1,.87,2,1.63,3,2.5.7.62,1.31,1.32,1.95,2,.35.38.64.83,1,1.19a38.78,38.78,0,0,1,3.39,4.32,9.08,9.08,0,0,1,1,1.79C140.88,24.87,141,25.3,140.63,25.46Z"/><path id="fill1" d="M164.61,68.81c-.18-.15-.45-.32-.53-.54a18.57,18.57,0,0,0-2.63-4.7,23.67,23.67,0,0,0-2.71-2.88c-.3-.31-.63-.59-1-.88a6.13,6.13,0,0,0-.89-.8c-1.32-.84-1.93-2.19-2.75-3.38a8,8,0,0,0-2.73-2.33,7.73,7.73,0,0,1-2.4-2.43,11.63,11.63,0,0,1-.93-1.74,4.24,4.24,0,0,0-1-1.38,8.56,8.56,0,0,1-.59-.85c-.57-.66-1.15-1.3-1.73-1.94s-1-1.08-1.55-1.58-1.44-1.2-2.17-1.79c-.54-.44-1.11-.84-1.65-1.29A11,11,0,0,0,138,39.11a4.74,4.74,0,0,1-1.53-1.59A16.76,16.76,0,0,1,135.17,35a10.17,10.17,0,0,0-1.45-1.88c-.31-.37-.77-.61-.92-1.14-.05-.19-.5-.29-.81-.46a.88.88,0,0,1-.1-.26l-.12,0,.17.26c.19.32.31.78.6.92.82.4.85,1.16,1,1.8.29,1.11.37,2.28.61,3.4s.58,2.09.84,3.14a22.78,22.78,0,0,1,.46,2.44,18.38,18.38,0,0,0,.38,2.22c.15.64.11,1.31.23,2,.19,1.08.28,2.17.53,3.25a7.32,7.32,0,0,1,.2,2.79,31.78,31.78,0,0,0-.08,3.9,6.26,6.26,0,0,1-.5,2.59c-.22.46-.28.54-.73.32a6.63,6.63,0,0,1-1.06-.64,15.61,15.61,0,0,0-3-2.12c-.16-.06-.26-.23-.39-.35l-1.79-1.65c-.69-.62-.67-.62-1,.2s-.59,1.56-.85,2.36c-.2.6-.35,1.21-.53,1.82a14.27,14.27,0,0,1-1.9,4.65,2.92,2.92,0,0,1-1.76,1.17,2.65,2.65,0,0,1-1.87-.6c-.88-.54-1.72-1.13-2.58-1.7a2.07,2.07,0,0,0-2.76.51c-.71,1-1.14,2.1-1.76,3.12a5.11,5.11,0,0,1-.71.9,1,1,0,0,1-1.45,0,12.18,12.18,0,0,1-1.06-1.68c-.27-.51-.45-1.07-.7-1.58a1.53,1.53,0,0,0-1.95-.74,20.68,20.68,0,0,0-2.77,1.23c-1.18.68-2.32,1.39-3.43,2.16a31.56,31.56,0,0,0-2.58,1.83,32.25,32.25,0,0,1-3.38,2.28c-2,1.29-4.07,2.52-6.1,3.79-.57.36-1.07.81-1.63,1.18a7.57,7.57,0,0,1-1.35.79,1.6,1.6,0,0,1-2-1.1,5.62,5.62,0,0,1-.06-3,3,3,0,0,0,0-1,23.07,23.07,0,0,1,.46-3.52c.14-1,.38-2,.54-3a5.86,5.86,0,0,1,.22-.92c.27-.8,0-1.16-.86-1.22A6.3,6.3,0,0,0,83,64a34.25,34.25,0,0,0-3.66,1.63c-1.35.67-2.64,1.46-4,2.1-1.92.91-3.88,1.75-5.83,2.6-.83.37-1.7.64-2.5,1.05a16,16,0,0,1-2.85,1c-1.67.5-3.34,1-5,1.4-1.3.31-2.57.72-3.87,1a16.65,16.65,0,0,1-2.48.39,13.09,13.09,0,0,0-3.79.94c-1.84.61-3.64,1.36-5.48,2-1.46.5-3,.84-4.44,1.33-1.21.4-2.43.72-3.66,1s-2.53.79-3.84,1.08c-.73.16-1.45.48-2.2.67a23.59,23.59,0,0,1-2.36.51c-.29-.08,1.67-.65,1.88-.76a4.17,4.17,0,0,1,1.34-.58,6.49,6.49,0,0,0,1.27-.4c.87-.27,1.79-.38,2.67-.64s1.68-.55,2.53-.77c2.19-.58,4.35-1.24,6.51-1.92,1.18-.37,2.31-.86,3.48-1.24,1.65-.54,3.3-1.06,5-1.52a15.08,15.08,0,0,1,1.79-.21,16.26,16.26,0,0,0,1.82-.36c1.53-.39,3.05-.82,4.57-1.22,1-.26,2.05-.51,3.08-.75A47.56,47.56,0,0,0,69.73,70c1-.42,2-1,3-1.53,1.32-.65,2.67-1.24,4-1.91s2.67-1.49,4.06-2.14a26.07,26.07,0,0,1,4.74-1.65,1.22,1.22,0,0,1,1.32.94,5.94,5.94,0,0,1-.25,2.09c-.15.62-.29,1.24-.41,1.86-.18.94-.34,1.89-.51,2.83a1,1,0,0,0,0,.17c0,1.41-.08,2.83-.13,4.24a2.79,2.79,0,0,0,.53,1.39c.25.45,1.14.41,1.69,0a46.61,46.61,0,0,1,4.39-2.8c2.22-1.35,4.4-2.75,6.56-4.19s4.09-2.86,6.19-4.21a13.48,13.48,0,0,1,3.24-1.57c1.33-.41,2.28-.32,2.89,1.07.35.79.73,1.57,1.1,2.35a1.84,1.84,0,0,0,.24.41c.34.45.47.46.87.08a8,8,0,0,0,.89-1.25c.62-.86,1-1.86,1.6-2.68a3.18,3.18,0,0,1,1.78-1c.67-.18,1.23.29,1.77.61.89.52,1.74,1.1,2.57,1.69a2.07,2.07,0,0,0,2.79-.5A12.39,12.39,0,0,0,126.39,60c.4-1.51,1-3,1.47-4.48a8.55,8.55,0,0,0,.4-.94c.08-.39.34-.27.5-.17a4.67,4.67,0,0,1,.89.64c.82.73,1.6,1.51,2.44,2.23s1.89,1.55,2.85,2.3c.59.45.69.35.93-.34a5.42,5.42,0,0,0,.14-1.74c0-1.44.12-2.88.11-4.32a12,12,0,0,0-.56-3.75,6.83,6.83,0,0,1-.2-1.28c-.08-.7-.07-1.43-.22-2.12a19.32,19.32,0,0,0-.34-2,11.85,11.85,0,0,1-.23-1.69c-.18-.92-.41-1.82-.61-2.72s-.35-1.5-.52-2.26c-.26-1.22-.49-2.45-.77-3.67a2.83,2.83,0,0,0-.45-1,7,7,0,0,1-1.1-2.19,12.22,12.22,0,0,1-.85-3.31.31.31,0,0,0-.16-.22c-.78-.48-1.56-.94-2.35-1.4-.09-.05-.24,0-.36,0a2.52,2.52,0,0,0,.12.29,15.12,15.12,0,0,1,1.3,2.61,5.08,5.08,0,0,1,0,2.42,7.18,7.18,0,0,1-.65,2.44c-.09.15-.19.34-.34.4s-.3-.13-.4-.26a63,63,0,0,1-4.14-5.62,33,33,0,0,0-2-2.74c0-.06-.13-.11-.19-.18s-.38-.52-.44-.5c-.38.16-.26.52-.23.81a26.51,26.51,0,0,0,.37,3.07c.2,1,.23,2,.42,3a29.91,29.91,0,0,1,.2,5.75,9.69,9.69,0,0,1-1.07,4c-.29.63-.69.7-1.09.17a13.61,13.61,0,0,1-1.18-2c-.88-1.71-1.58-3.49-2.55-5.16A30.91,30.91,0,0,0,112,29.19a.43.43,0,0,0-.36-.1c-.08,0-.16.2-.16.3a7.79,7.79,0,0,1-1.09,3.37,14.36,14.36,0,0,1-1.17,1.91c-.14.21-.27.42-.52.32a.7.7,0,0,1-.37-.45c-.22-1-.36-2-.6-3a16.76,16.76,0,0,1-.4-3.07,3.68,3.68,0,0,0-1-2.28c-.22-.24-.38-.1-.49.07-.33.48-.66,1-.95,1.48-.55.94-1,1.91-1.61,2.84a10.49,10.49,0,0,1-1,1.14,25.56,25.56,0,0,0-2.16,2.63,21.69,21.69,0,0,1-2.77,3,1.38,1.38,0,0,1-1,.49c-.52,0-.73-.19-.63-.64A52.48,52.48,0,0,1,97,31.67a11.48,11.48,0,0,0,.69-3.11c0-.48.1-1,.15-1.45a1.12,1.12,0,0,0-.06-.23,1.27,1.27,0,0,0-.19.13A42,42,0,0,1,94,30.32c-.8.62-1.58,1.28-2.36,1.93l-2.49,2c-.12.1-.3.15-.42.25s-.31.26-.26-.07a8.62,8.62,0,0,1,.28-1.32c.29-.87.61-1.73.91-2.6a.24.24,0,0,0-.07-.21s-.16,0-.23,0-.09.08-.13.11l-2.62,2.36-3.18,2.9C82.25,36.81,81,37.88,79.89,39c-1.37,1.32-2.66,2.7-4,4-1.2,1.16-2.46,2.25-3.68,3.39q-.91.85-1.8,1.74a52.56,52.56,0,0,1-4.48,3.8c-.6.49-1.17,1-1.75,1.51-.83.74-1.64,1.52-2.5,2.23-1.34,1.11-2.73,2.17-4.08,3.28-.73.59-1.42,1.22-2.11,1.85-1.42,1.3-2.81,2.63-4.25,3.91-.69.6-1.48,1.09-2.22,1.64-.14.11-.25.24-.38.36a39.67,39.67,0,0,1-3.39,2.8C43.21,71.11,41,72.44,39,74c-.79.6-1.51,1.27-2.31,1.86-1.23.91-2.49,1.77-3.74,2.66a1.71,1.71,0,0,0-.39.32,15.9,15.9,0,0,1-2.85,2.24c-1,.68-1.93,1.42-2.92,2.11a17.55,17.55,0,0,1-2.38,1.68,5.55,5.55,0,0,0-1.19.93c-.09.08-.19.27-.15.34.34.57.71,1.13,1.09,1.68a1.1,1.1,0,0,0,.25.23,1,1,0,0,1,.09-.3c.38-.66-.12-1.08-.46-1.54-.08-.1-.2-.3-.16-.33.24-.24.64-.25.76,0s.24.59.38.87.18.42.47.12c1.13-1.21,2.76-1.68,4.24-2.35a4.37,4.37,0,0,1,1.67-.17.36.36,0,0,1,.3.62,2.6,2.6,0,0,1-.38.36,11.7,11.7,0,0,0-2,2.51c-.34.49-.7,1-1.05,1.45-.09.13-.17.27-.25.41s-.06.2-.1.29c.11,0,.26.1.32.06,1-.58,2.19-.28,3.28-.52a19.52,19.52,0,0,1,4-.39A1.47,1.47,0,0,0,36,89c.36-.11.35-.07,1,.07a1.43,1.43,0,0,0,.94-.08,1.85,1.85,0,0,1,2,0,.51.51,0,0,0,.24.07c.75,0,1.5.11,2.25.15,1,.05,2,.07,3.06.15.21,0,.38.24.59.28.69.14,1.38.26,2.08.35s1.26.1,1.9.16a.81.81,0,0,1,.25.08.91.91,0,0,0,0-.33c-.28-.67-.17-.63.31-1.2a3.47,3.47,0,0,1,2.55-.92,13.6,13.6,0,0,1,3.81.23c.45-.38,1,.3,1.48-.13.15-.14.32,0,.09.21.13,0,.27.12.36.09a.53.53,0,0,0,.26-.31c.05-.12,0-.33.05-.39a3.43,3.43,0,0,1,1-.64,6.82,6.82,0,0,1,2-.55,3,3,0,0,0,1.54-.17.72.72,0,0,1,.36,0,19.45,19.45,0,0,0,2.84.19c1-.07,1.85.31,2.79.26.19,0,1.82.49,2.07.57a4.9,4.9,0,0,0,1.06.23,2.11,2.11,0,0,1,1.33.46s.19,0,.3,0a1.5,1.5,0,0,0-.15-.25,4.22,4.22,0,0,1-.57-.64c-.3-.55-.57-1.13-.82-1.7a1.72,1.72,0,0,1-.1-.64.34.34,0,0,1,.25-.21,10.24,10.24,0,0,1,1.33.22,7.56,7.56,0,0,1,3.48,1.86,1.89,1.89,0,0,0,.43.2c0-.14,0-.27.07-.4.11-.63.2-1.26.34-1.89s.33-1.21.51-1.82a2.35,2.35,0,0,1,.17-.44c.36-.64.48-.66,1-.16S81.42,83,82,83.55a1.61,1.61,0,0,1,.47,1.33c0,.63.2,1.27-.14,1.88,0,0,0,.13,0,.13a.34.34,0,0,0,.24,0c.42-.34.85-.66,1.24-1a14.19,14.19,0,0,1,3.77-2.61c.32-.15.61-.36.92-.54a2.21,2.21,0,0,1,.52-.24c.59-.14.85.07.72.62a8.41,8.41,0,0,1-2.55,4.82c-.37.31-.71.67-1,1a.27.27,0,0,0-.07.22.23.23,0,0,0,.2.1,9.7,9.7,0,0,1,2.34-.2A9.49,9.49,0,0,1,90,89c.83,0,1.67,0,2.5,0,1.2,0,2.41,0,3.6.15.8.07,1.58.33,2.38.45.54.08,1.08,0,1.64.14.82.19,1.69.2,2.53.34s1.7.33,2.53.54c1.63.41,3.17,1.09,4.83,1.43a4.07,4.07,0,0,1,1.36.69s-.68.14-.74.19a.26.26,0,0,1-.19,0,11.53,11.53,0,0,0-2.72-.74c-.86-.26-1.72-.55-2.59-.81a17.88,17.88,0,0,0-3-.68c-1.33-.16-2.68-.2-4-.45-1.62-.3-3.26-.32-4.89-.47-2.22-.21-4.43,0-6.64,0-.45,0-.9.15-1.36.16s-.51-.28-.25-.58.63-.58.91-.9c.59-.67,1.16-1.35,1.73-2a11.7,11.7,0,0,0,1.22-2.73l.29-.69a6.87,6.87,0,0,1-.75.49,10.57,10.57,0,0,1-1.4.67,4.84,4.84,0,0,0-1.59,1c-1.13,1-2.21,2-3.32,3a3,3,0,0,1-.43.24,2.7,2.7,0,0,1-.09-.48c0-.9.1-1.81.15-2.71A2.77,2.77,0,0,0,80.44,83c-.18-.15-.45-.25-.55.17a17.1,17.1,0,0,0-.64,2.27,7.38,7.38,0,0,1-.72,2.76.39.39,0,0,1-.32,0c-.1-.07-.14-.22-.21-.33a6.2,6.2,0,0,0-3.69-2.57c-.25-.08-.35.08-.27.26.31.69.65,1.38,1,2,0,.08.39,0,.13.25-.48.51-.47.51-1.25.29s-1.49-.42-2.24-.6a4.39,4.39,0,0,0-1,0c-.44,0-.88,0-1.16-.41a.23.23,0,0,0-.22-.07c-.34.19-.68,0-1,0-.18,0-.37.22-.42-.13a.64.64,0,0,0-.4,0,3.13,3.13,0,0,1-1.58,0,7.75,7.75,0,0,0-3.52,0,4.59,4.59,0,0,1-1.35.19,1.69,1.69,0,0,0-1.21.69c-.09.1-.05.3-.07.45a.88.88,0,0,1,.34-.1,2,2,0,0,1,.67.13c0,.32-.28.3-.54.38a18.86,18.86,0,0,1-3.6.19c-.71-.55-1.62-.15-2.39-.46a1.87,1.87,0,0,0-.88,0c-.25,0-.49.14-.74.15a1.92,1.92,0,0,0-1.2.33c-.51.34-.63.74-.22,1.16a1.57,1.57,0,0,0,1,.55.37.37,0,0,1,.36.53c-.08.16-.31.28-.65.17a19.88,19.88,0,0,0-2.66-.66c-.59-.12-1.23,0-1.8-.18-1.38-.35-2.85-.12-4.2-.61a.75.75,0,0,0-.26,0c-2.63-.21-5.26-.11-7.9-.09H35a23.21,23.21,0,0,0-4.61.54c-.5.17-1.07-.06-1.63.18A10.08,10.08,0,0,1,27,91a1.64,1.64,0,0,1-.49,0,1.57,1.57,0,0,1,.12-.45,27.6,27.6,0,0,0,1.83-2.68c.34-.63.94-1.07,1.21-1.72a1.7,1.7,0,0,0,.1-.32.76.76,0,0,0-.26,0c-.46.12-.92.23-1.37.36-1.16.35-1.64,1.39-2.37,2.17-.5.53-.93,1.1-1.42,1.64a.48.48,0,0,1-.39.09c-.08,0-.15-.21-.14-.32A2.59,2.59,0,0,0,23,87.57a6,6,0,0,1-.46-1c-.08-.14-.28-.21-.43-.31a1.29,1.29,0,0,0-.2.43,4.06,4.06,0,0,0,.53,2.78c.16.34.5.73.21,1.11s-.82.21-1.2.17c-.81-.09-1.59-.36-2.39-.44-.47,0-1,.16-1.44.15a3.09,3.09,0,0,0-1.64.37,2,2,0,0,0-1.07,1c0,.09-.23.13-.35.2a1.36,1.36,0,0,1-.11-.28c-.11-.46-.33-1,.45-1.1.41-.71,1.15-1.24,1.14-2.18a16,16,0,0,0,.26-2.14,4.89,4.89,0,0,0-.53-2.07,9,9,0,0,0-3.07-2.42s-.16.08-.15.11a.93.93,0,0,0,.14.36,10.33,10.33,0,0,1,1.14,3c-.26.43.08.86,0,1.29a2.58,2.58,0,0,1-.17.69,25.64,25.64,0,0,1-1.24,2.31,11.09,11.09,0,0,1-1.19,1.47c-.09.1-.31.1-.47.14a2.4,2.4,0,0,1-.05-.46.48.48,0,0,1,.13-.28c.44-.48.28-.89,0-1.43a2.27,2.27,0,0,0-1.09-1A7.16,7.16,0,0,0,8,87.3a7.66,7.66,0,0,0-1.42-.24,4.49,4.49,0,0,1-1.92-.31c-.09,0-.28.08-.43.13l.29.21c1,.79,2.31,1.16,3.21,2.1a1.52,1.52,0,0,0,.86.46,1.18,1.18,0,0,1,.87.66.41.41,0,0,1-.24.6,4.58,4.58,0,0,1-2,.36,5.33,5.33,0,0,0-3.27.92,7.16,7.16,0,0,1-1.22.47l-1.38.53c-.05,0-.06.14-.09.22l.23,0a3.81,3.81,0,0,1,1.46.07,9.33,9.33,0,0,0,1.61.2c.78.1,1.58.16,2.35.33a10.49,10.49,0,0,0,2,.3c.93,0,1.87.16,2.79.12A21.57,21.57,0,0,0,15.12,94a2.49,2.49,0,0,1,1.27.09.76.76,0,0,0,.83-.17.49.49,0,0,1,.7,0c.27.19.78.11,1.18.09a3.81,3.81,0,0,0,1.17-.17,2.3,2.3,0,0,1,.95-.19c.46,0,.92-.25,1.39-.27.88,0,1.77,0,2.65,0a5.14,5.14,0,0,1,.78.07c.1,0,.17.14.26.22-.09,0-.18.11-.26.1-.53,0-.88.09-.79.69,0,.06-.07.14-.12.2s-.2.32-.31.48c-.19-.21-.13-.39.05-.58.05,0,0-.15,0-.24a.88.88,0,0,0,0-.15s-.11.07-.13.12c-.17.46-.56.84-.54,1.39a1,1,0,0,1-.33.7,1.76,1.76,0,0,0-.51,1.08c0,.23,0,.4-.33.46-.07,0-.19.17-.17.22s.16.21.25.21a2.88,2.88,0,0,0,.59-.07c.11,0,.24-.11.32-.08a3.32,3.32,0,0,0,1.37,0,6.2,6.2,0,0,1,1.43,0c1,.25,2.08.17,3.12.38a7.33,7.33,0,0,0,3.32-.09,5.08,5.08,0,0,1,1,0c.38,0,.82-.17,1.12,0a2.54,2.54,0,0,0,.93.12c.6.08,1.23-.19,1.81.15a.31.31,0,0,0,.23-.07,2,2,0,0,1,1.4-.28l2.24,0A10.85,10.85,0,0,0,44.19,98a17.85,17.85,0,0,1,2.33-.21.39.39,0,0,1,.23,0c0,.1,0,.25-.07.28-.43.24-.87.46-1.31.69a4.81,4.81,0,0,0-.51.25s0,.23.09.25a1.91,1.91,0,0,0,.59.07c.76,0,1.52-.07,2.28-.13.35,0,.7-.11,1-.14,1.1-.08,2.21-.14,3.32-.2,1.26-.08,2.53-.07,3.77-.23s2.45-.33,3.7-.38c.64,0,1.22-.37,1.91-.36a16.09,16.09,0,0,0,1.9-.33c.81-.1,1.62-.14,2.43-.2,1.11-.07,2.23-.09,3.33-.22.71-.08,1.41-.33,2.12-.46a4,4,0,0,1,.84,0,3.78,3.78,0,0,1-.61.59,14.22,14.22,0,0,0-1.82,1.11c-1.69,1.54-3.31,3.16-5,4.74a11.24,11.24,0,0,0-1,1,1.62,1.62,0,0,0-.24.74c0,.06.14.2.24.23a3.8,3.8,0,0,0,1.74.17,2.33,2.33,0,0,1,.69.06c.13,0,.36.12.39.08.38-.51,1,.33,1.31-.17l1.4.27a1.86,1.86,0,0,0,.34,0c1.52-.07,3-.1,4.57-.23,1.34-.12,2.66-.31,4-.54a76.67,76.67,0,0,1,7.72-.45c1.77-.13,3.54-.12,5.3-.19a2.14,2.14,0,0,0,.47-.15l.46-.12a2.52,2.52,0,0,1-.43-.24c-.41-.36-.81-.74-1.21-1.11a2,2,0,0,1-.71-1.74,7.72,7.72,0,0,1,.13-2,5.93,5.93,0,0,1,2.13-2.6,12.26,12.26,0,0,1,1.67-1,3.15,3.15,0,0,1,1.94-.41c.92.08,1.71.53,2.62.57.22,0,.44.11.66.11,1.08,0,2.15,0,3.23,0a20.33,20.33,0,0,1,4,.32,5.73,5.73,0,0,1,1.46.54c.2.1.48.27.24.61-.07.1.07.18.43.35a.42.42,0,0,1,.24.61c-.08.16-.22.31-.3.47s0,.15.05.23l.19-.13.19-.18.1.28a1,1,0,0,1,0,.17c0,.89.32,1.12,1.19.86a12.08,12.08,0,0,1,3.06-.16.85.85,0,0,1,.58.43c.33.63.6,1.28.88,1.93,0,.07.08.2,0,.22-.84.7.07.58.37.64.51.09,1,.47,1.53.28.09,0,.27.07.36.16s.29.24.52,0,.31,0,.47,0,.31.12.4.07c.41-.23.81,0,1.2,0a12.64,12.64,0,0,1,2.29.25,7.29,7.29,0,0,0,3.18-.11,7.56,7.56,0,0,1,1.79-.21,23.65,23.65,0,0,1,3.57,0c1.14.14,2.16-.41,3.27-.24a19,19,0,0,0,2,.15,8.11,8.11,0,0,0,1.39-.16,2,2,0,0,1,1,.22,4.31,4.31,0,0,0,2.06.42c.33,0,.71.21,1,.12.85-.28,1.7,0,2.57-.11a14.94,14.94,0,0,1,3.59.09c.18,0,.47.12.33.53-.27.83-1,1.16-1.64,1.66a12.13,12.13,0,0,0-2.5,2.18.32.32,0,0,0,.21.54,1.22,1.22,0,0,0,.27,0c1.85,0,3.71.05,5.56.12.56,0,1.1,0,1.65,0l1.79,0,1.79,0a13.19,13.19,0,0,0,1.78,0,10.93,10.93,0,0,0,2.06-.15c.22-.08.54.13.81.13l8.88.08c.75,0,1.49,0,2.24,0,1.79-.06,3.59-.1,5.38-.23,1.16-.1,2.29-.37,3.45-.52.8-.11,1.62-.14,2.43-.2a.83.83,0,0,1,.35,0c.15,0,.37.14.4.25a.46.46,0,0,1-.23.39,3.55,3.55,0,0,0-1.56,1.67c-.06.16-.17.25.09.22a11.42,11.42,0,0,0,2.79-.17,8.54,8.54,0,0,1,1.53-.21c1.24-.16,2.48-.32,3.71-.53s2.65-.37,4-.56l3.8-.55c.13,0,.24-.16.37-.16a6.88,6.88,0,0,1,.77.07,2.56,2.56,0,0,1-.13.79c-.45.8-.21,1.3.8,1.28a3.42,3.42,0,0,0,1.67-.14c.23-.11.59,0,.88,0a11.58,11.58,0,0,0,1.18-.18l1.73-.35,2.91-.52a2.13,2.13,0,0,1,.44,0,11.4,11.4,0,0,0,2.9-.35c.85-.21,1.74-.26,2.61-.39.09,0,.15-.11.23-.17a1.11,1.11,0,0,0-.24-.16c-.84-.27-1.14-1-1.55-1.64-.07-.09.11-.43.26-.53a9.24,9.24,0,0,1,3-1.22,11.81,11.81,0,0,1,2.71-.38,3.33,3.33,0,0,0,.82-.17,3.14,3.14,0,0,1,.55-.17c2.19-.09,4.37-.27,6.55-.21,1.56,0,3.12,0,4.67.13a10.67,10.67,0,0,0,2.25.08c1.32-.21,2.65-.06,4-.22a7.74,7.74,0,0,1,2.24-.13,13.33,13.33,0,0,0,2.18.11c.41,0,.83.06,1.1-.36a.38.38,0,0,1,.34-.11c.15.1.39.21.16.46s-.11.38.19.33c.86-.16,1.7-.34,2.55-.54.13,0,.24-.18.36-.27-.06-.06-.13-.16-.19-.17a.58.58,0,0,0-.36.08c-.52.52-1,.06-1.52,0a8.24,8.24,0,0,0-1.85-.25,6,6,0,0,1-1.84-.27,5.37,5.37,0,0,0-.7,0,2.76,2.76,0,0,1-1.2-.13,1.59,1.59,0,0,0-.92.09,2.32,2.32,0,0,1-2.21-.54c-.22-.23-.12-.39.07-.47.68-.28,1.38-.53,2.07-.78.13-.05.3,0,.4-.1a1.88,1.88,0,0,0,.34-.35,3,3,0,0,0-.42-.06,17.65,17.65,0,0,0-3.7.36,8,8,0,0,1-1.89.19,14,14,0,0,0-3.77.62,3.91,3.91,0,0,0-2,.85c-.34.35-.46,0-.62-.18s-.3-.51,0-.69.57-.48,1-.36a.46.46,0,0,0,.26,0,.41.41,0,0,0,.19-.2c0-.07,0-.16,0-.24a1.92,1.92,0,0,0-.25.12s-.08.1-.13.12a1.94,1.94,0,0,1-.24,0,.55.55,0,0,1,.06-.18c.24-.3.48-.61.75-.89.65-.71,1.33-1.4,2-2.1.06-.06.15-.11.19-.18.16-.27.3-.55.45-.82-.41-.23-.58.21-.78.33A10.07,10.07,0,0,1,225.36,98a14.11,14.11,0,0,1-2.2.71,8,8,0,0,1-1.38.1.75.75,0,0,1-.61-1c0-.11,0-.26,0-.33s.69-1.08,1.11-1,0,.58,0,1c0,.22-.12.35.35.27a25.89,25.89,0,0,0,3.83-1.1c1-.3,1.9-.7,2.86-1,.35-.11.59.1.64.47.08.64-.42,1-.74,1.49a13.3,13.3,0,0,1-.93,1.08,3,3,0,0,1-1.11.36c-.21,0-.73.57-.75.89a6.82,6.82,0,0,0,0,1s.11.08.18.13.17-.21.16-.22c-.42-.45,0-.38.29-.51a3.84,3.84,0,0,1,1.57-.32c.24,0,.48-.15.73-.16a7.94,7.94,0,0,1,1.55,0,4.6,4.6,0,0,0,1.8-.17,13.44,13.44,0,0,1,3-.18c.68,0,1.37,0,2.06,0a.7.7,0,0,1,.68.28.86.86,0,0,1,.14.6c-.06.15-.33.26-.53.3-.85.19-1.7.35-2.55.53a1.51,1.51,0,0,0-.26.12l.24.06c.53,0,1.05.14,1.57.15a13.12,13.12,0,0,1,3.18.28,24.74,24.74,0,0,0,3,.34,7.39,7.39,0,0,1,1.55.34,1.05,1.05,0,0,1,.46.63c.11.33-.15.46-.46.57a17.77,17.77,0,0,1-1.84.52c-.55.12-1.24-.09-1.68.45,0,0-.24-.06-.36-.12s-.37-.31-.57-.33a22.7,22.7,0,0,0-2.61-.14c-1.55,0-3.12.06-4.66.24a14.48,14.48,0,0,1-2.17.15c-1.12,0-2.24-.17-3.37-.22-.47,0-1,.1-1.42.1a3.23,3.23,0,0,1-1.63-.14.53.53,0,0,0-.35,0c-.94.34-1.87,0-2.81,0a23.44,23.44,0,0,0-3.25.38c-.23.05-.48,0-.72,0s-.66.12-1,.19c-.16,0-.32.17-.46.15a3.62,3.62,0,0,0-2,.53c-.34.17-.79.14-1,.48,0,0-.18,0-.25,0s-.37-.34-.46,0a.84.84,0,0,0,.16.68,10.12,10.12,0,0,0,1,1,2.54,2.54,0,0,1,.5.48,1,1,0,0,1,.17.67c-.08.29-.41.26-.68.26l-2,0a6.68,6.68,0,0,0-1.83.31,3.05,3.05,0,0,1-.52.05c-1.29.13-2.59.24-3.88.39-.84.09-1.69.22-2.53.36a18.24,18.24,0,0,0-1.9.38,10.22,10.22,0,0,1-3.16.33,1.28,1.28,0,0,1-1.16-1.63c.11-.44,0-.53-.45-.43a3.17,3.17,0,0,1-.69.07,11.31,11.31,0,0,0-2.45.35c-.52.13-1.08.11-1.62.21a16.26,16.26,0,0,0-2.46.5,13.84,13.84,0,0,1-1.62.18c-1.1.21-2.23.27-3.34.41-.79.1-1.56.28-2.35.34a4,4,0,0,1-1.33-.21c-.7-.22-.78-.85-.2-1.38.19-.18.38-.35.55-.54a.9.9,0,0,0,.13-.28.93.93,0,0,0-.3-.09,20.68,20.68,0,0,0-2.62.39c-.31.08-.61.1-.92.15-1.51.24-3.06,0-4.57.25a34.61,34.61,0,0,1-6.1.16c-4.91-.23-9.8,0-14.7.06-1.43,0-2.87.17-4.31.17s-3.18-.06-4.76-.13a1.39,1.39,0,0,1-.65-.33.27.27,0,0,1,0-.27,13.81,13.81,0,0,1,1.38-1.66c.69-.65,1.48-1.21,2.24-1.8.32-.25.69-.46,1-.7a.22.22,0,0,0,.08-.21.28.28,0,0,0-.2-.11,40.72,40.72,0,0,0-5.74-.11c-.72.43-1.45-.09-2.18,0a.83.83,0,0,1-.46-.16,2.69,2.69,0,0,0-2.22-.19c-.2.07-.47-.09-.71-.11a10.51,10.51,0,0,1-2.8-.13c-.06,0-.18.13-.28.15a4.77,4.77,0,0,1-2.22.13l-.19,0c0,.47-.39.26-.58.25-.52,0-1,0-1.55-.07s-.9,0-1.37,0a9,9,0,0,0-1.79.17c-.28,0-.59.21-.82.15-.67-.19-1.36,0-2-.15-1.41-.31-2.9.15-4.27-.44-.15-.06-.35,0-.53,0-.75,0-1.51-.08-2.26-.15-.15,0-.28-.16-.43-.24-.32-.17-.33-.07-.56.27a1.43,1.43,0,0,1-.9.63c-.36,0-.73.5-1.11.07l-.25.21.25.11a2.1,2.1,0,0,0,.24.06s-.06.09-.09.1c-.73.2-1.37.7-2.19.54a4.26,4.26,0,0,1-.82-.17c-.84-.4-1.85-.46-2.54-1.15-.29-.29-.64-.18-1-.08-1,.33-2.16.39-3.21.65a15.72,15.72,0,0,1-2.91,0c-1,.07-2,0-2.95,0-.51,0-1,.11-1.53.18s-1.06-.14-1.54.18c-1-.15-1.9.47-2.91.06-.29-.12-.72.06-1.09.11l-.43,0a25.55,25.55,0,0,0-2.89.15,8.49,8.49,0,0,1-1.45.07c-.54,0-1.07,0-1.61,0a27.28,27.28,0,0,0-5.41.55,15.77,15.77,0,0,1-2.07.2c-.85.08-1.7.24-2.54.33a4.71,4.71,0,0,1-2.44-.09c-.12-.06-.29,0-.44,0a17.77,17.77,0,0,1-2.63-.28,16.88,16.88,0,0,0-1.71.14,5.15,5.15,0,0,1-2.49-.63,1.17,1.17,0,0,1-.36-1.62,17.49,17.49,0,0,1,3.2-3.57,3.86,3.86,0,0,1,.81-.58,2.92,2.92,0,0,0,1.24-1,.79.79,0,0,1,1-.39c.22.07.64-.36,1-.57,0,0-.09-.22-.15-.23a1.88,1.88,0,0,0-.71,0,15.07,15.07,0,0,1-2.39.47c-.56.1-1.15.11-1.69.25a15.32,15.32,0,0,0-2.48.49,4.71,4.71,0,0,1-1.43.21c-1.11.13-2.24.17-3.33.4-.88.19-1.78,0-2.6.21s-1.84,0-2.73.31a4.59,4.59,0,0,1-1.34,0,14.57,14.57,0,0,0-2.36.33,10.75,10.75,0,0,1-2.26-.07c-.27,0-.53,0-.79,0s-.56-.1-.84-.13-.65,0-.64-.39-.23-.8.33-1c.06,0,.09-.08.14-.12a.34.34,0,0,0-.16,0,1.94,1.94,0,0,0-.33.07,5.24,5.24,0,0,1-1.76.29,6.49,6.49,0,0,0-2.27.34,2.13,2.13,0,0,1-.62,0c-1.49,0-3-.07-4.47.08a34.34,34.34,0,0,1-3.81-.2c-1.14,0-2.29-.18-3.44-.29a29,29,0,0,0-3.09-.1,2.55,2.55,0,0,0-1.75.31c-.12.09-.39,0-.59,0,0-.14.17-.33.11-.42-.26-.44-.08-.62.34-.84.21-.11.24-.51.38-.76.53-1,1.06-2,1.63-3,.14-.23.05-.21-.11-.21a8.76,8.76,0,0,0-3.56.48.5.5,0,0,1-.33.06c-.87-.37-1.61.35-2.45.24a3,3,0,0,0-.67,0c-.22,0-.42.13-.64.17a16.65,16.65,0,0,1-1.83.31c-.7,0-1.4,0-2.1,0-.11,0-.21-.07-.32-.07-1.11,0-2.22,0-3.33-.15-1-.09-1.89-.31-2.85-.41a11.68,11.68,0,0,0-1.8-.33c-1.32.11-2.49-.45-3.75-.52-.17,0-.33-.17-.5-.26A2.77,2.77,0,0,1,.36,93c.26-.2.56-.35.82-.56a2,2,0,0,1,1.21-.32c.21,0,.59-.17.58-.23-.06-.58.39-.38.69-.46.62-.15,1.21-.37,1.82-.56a3.39,3.39,0,0,1,.57-.13c.81-.07,1.62-.12,2.43-.2a1.3,1.3,0,0,0,.45-.17c.08-.05.11-.16.16-.24-.1,0-.23-.1-.29-.06-.63.43-1.14,0-1.51-.32A18.49,18.49,0,0,0,5,88.22a20,20,0,0,0-1.76-1.11C3.07,87,2.9,87,3,86.81s.23-.38.36-.38c1,0,1.93,0,2.89.09a14.43,14.43,0,0,1,1.61.19A10.93,10.93,0,0,1,9,87a1.91,1.91,0,0,0,.55.16,2.22,2.22,0,0,1,1.66.9c.19.18.26.47.42.67a6.9,6.9,0,0,0,.6.61,5.52,5.52,0,0,1,.11-.71c.09-.27.32-.52.33-.79,0-.42.73-.56.41-1.1-.2-.33.32-.75-.06-1.1a6.39,6.39,0,0,0-.61-2.38c-.2-.68-.64-1.22-.89-1.85-.07-.19-.3-.33-.44-.5s0-.7.29-.66.83,0,1.05.42a3,3,0,0,0,1.5,1.08c.74.36,1.59.6,2,1.5.23.53.85.91.9,1.59a5,5,0,0,1,0,2.35,11,11,0,0,0-.14,1.45,5.18,5.18,0,0,1-.39,1l-.13.25a.7.7,0,0,0,.3,0c.57-.41,1.11-.85,1.68-1.26,1-.71,1.94-1.41,2.9-2.13a.57.57,0,0,0,.21-.41c-.08-.45.18-.61.56-.73a.92.92,0,0,1,.68,0c.14,0,.41,0,.43,0,.22-.71,1-.64,1.53-1a10.4,10.4,0,0,1,2-1.63c.9-.41,1.36-1.33,2.33-1.62l.07,0c.7-.57,1.4-1.14,2.11-1.69.44-.35.89-.67,1.34-1a.78.78,0,0,0,.26-.21c.5-.92,1.55-1.21,2.31-1.83s1.37-1.06,2.09-1.54c1.21-.8,2.23-1.83,3.5-2.57a26,26,0,0,0,2.42-1.6c.76-.56,1.53-1.11,2.3-1.66.16-.12.33-.22.47-.34a11.4,11.4,0,0,1,2.36-2c.37-.19.61-.6.94-.88l2.53-2.11c.33-.28.61-.6.93-.89,1.39-1.23,2.78-2.47,4.18-3.68a25.05,25.05,0,0,0,2.09-1.71,32.65,32.65,0,0,1,2.51-2.2C62.42,54,63.72,52.89,65,51.78s2.82-2.37,4.22-3.57c.87-.75,1.73-1.5,2.56-2.3s1.73-1.82,2.64-2.69c1.39-1.33,2.84-2.61,4.23-3.93.74-.71,1.39-1.51,2.14-2.21,1.42-1.31,2.85-2.62,4.36-3.84.88-.72,1.79-1.41,2.6-2.19.51-.49,1.07-.93,1.59-1.41a1.16,1.16,0,0,0,.29-.46,10.44,10.44,0,0,1,2.77-3.83q3.35-3.18,6.64-6.39c2-1.93,3.94-3.86,5.86-5.84.81-.83,1.5-1.77,2.24-2.67A17.64,17.64,0,0,1,108.31,9,42.18,42.18,0,0,0,112,4.8c.77-1,1.54-2,2.38-3a5.53,5.53,0,0,1,1.35-1c.25-.14.47-.11.31-.52s.3-.46.67-.27a15.84,15.84,0,0,1,1.5.87c.87.56,1.73,1.12,2.57,1.71.51.36,1,.77,1.46,1.17.84.7,1.67,1.41,2.48,2.13a6.59,6.59,0,0,1,.65.75,3,3,0,0,0,.34.44c.36.31.78.58,1.11.92.92.92,1.82,1.86,2.7,2.81.35.38.61.84,1,1.21a10.51,10.51,0,0,0,1.26,1A26.61,26.61,0,0,1,136,17c.63.71,1.32,1.38,1.91,2.12a35.26,35.26,0,0,1,2.8,3.79c.49.81,1.14,1.7.73,2.8-.06.16.22.47.39.67.93,1.1,1.85,2.2,2.83,3.27.7.77,1.46,1.51,2.24,2.23a8.56,8.56,0,0,0,2,1.41,10.55,10.55,0,0,1,1.72,1.19c.82.66,1.65,1.33,2.4,2.06a31.53,31.53,0,0,1,3.17,3.37,24.11,24.11,0,0,0,2.23,2.41A26.59,26.59,0,0,1,160.8,45a15,15,0,0,0,1.46,1.53c1.12,1.1,2.24,2.21,3.4,3.29a32.86,32.86,0,0,1,4,4.39,13,13,0,0,0,1.4,1.47l8.07,7.78c1.05,1,2.08,2,3.14,3.06,2.06,2,4.11,4,6.22,5.88,1.1,1,2.4,1.86,3.46,2.91,1.4,1.39,3.14,2.41,4.54,3.8.66.66,1.43,1.23,2.15,1.83,1.27,1.07,2.55,2.12,3.81,3.19a19.69,19.69,0,0,0,1.57,1.3c.59.41,1,1.08,1.62,1.44,1.54.88,2.59,2.31,4.21,3.09s3.14,1.92,4.77,2.81c.8.45,1.52,1,2.3,1.51s1.57.92,2.37,1.35a1,1,0,0,0,.57.11,6.2,6.2,0,0,0,1.91-.15c.27-.12.71.06,1.06.16s.35.55.18.79a2.94,2.94,0,0,1-.31.3c-.14.16-.22.24-.45.05-.75-.64-.88-.62-1.79-.15a.6.6,0,0,1-.57,0,3.36,3.36,0,0,0-2.64-.18c-.16.07-.39,0-.59,0s-.56-.15-.76-.07c-.4.18-.81,0-1.22.14s-1,0-1.42,0a21,21,0,0,0-6.23,1.55,35.21,35.21,0,0,1-3.67,1.41,3.54,3.54,0,0,0-.91.37,5.59,5.59,0,0,1-2.31.87,5.4,5.4,0,0,0-1.53.78c-.25.16-.44.37-.74.11s-.44-.41-.18-.82a3.05,3.05,0,0,0,.56-2,.59.59,0,0,0-.6-.6,6.1,6.1,0,0,0-2.71.34c-.54.21-1.11.34-1.65.54s-1.11.45-1.67.68-1.41.59-2.1.92c-.22.11-.43.22-.57,0s-.39-.5,0-.79a10.09,10.09,0,0,0,1.86-2.32,7.25,7.25,0,0,0,.68-1.33c.12-.29-.13-.38-.35-.33a9.55,9.55,0,0,0-1.69.45,16.41,16.41,0,0,0-3.51,2,12.85,12.85,0,0,1-1.5.84,4,4,0,0,0-1,.58,1,1,0,0,1-.87.27c-.42,0-.53-.36-.31-.71.68-1.05,1.37-2.11,2-3.2a16.86,16.86,0,0,0,.87-2.1.85.85,0,0,0,0-.42s-.15-.09-.18-.07c-.5.35-1,.71-1.49,1.09-.64.49-1.28,1-1.92,1.51l-1.17,1c-.09.08-.15.2-.25.24-.26.08-.65.26-.76.16s-.05-.46.06-.73a16.25,16.25,0,0,0,1-2.88,1.85,1.85,0,0,0-.5-2c-.35-.28-.41-.28-.75,0a7.13,7.13,0,0,0-1.54,1.85c-.42.65-.87,1.29-1.27,2s-.73,1.41-1.17,2.07a7.51,7.51,0,0,1-1.57,2,8.6,8.6,0,0,1-2.48,1.65c-1,.33-2,.9-3,1.2a5.55,5.55,0,0,1-1.66.32c-1,0-2,.09-3.07,0a7.79,7.79,0,0,1-1.92-.32,12,12,0,0,0-3.27-.49,4.45,4.45,0,0,1-1.06-.22c-.54-.13-1.07-.28-1.6-.42a2.09,2.09,0,0,1-1.47-1.7,8.75,8.75,0,0,1-.21-1.36,3.89,3.89,0,0,1,1-2.72c.18-.25.38-.47.56-.72a15.56,15.56,0,0,1,3.23-2.77A13.46,13.46,0,0,1,161,91.21a14.14,14.14,0,0,1,3.35-.75c.75,0,1.51-.2,2.25-.18a20.16,20.16,0,0,1,5.63.86c.11,0,.25.11.32.07,1.11-.58,1.48.42,2,.9a4.31,4.31,0,0,1,1,3.15c0,.27-.55.55,0,.82a6.32,6.32,0,0,1,.36-.74c.58-.87,1.17-1.75,1.79-2.6A19.45,19.45,0,0,1,179,91.08c.39-.41.65-.38,1.11,0A2.58,2.58,0,0,1,181.26,94a10,10,0,0,1-.61,1.85c0,.06-.06.12-.1.18a1.15,1.15,0,0,0,.26,0,.45.45,0,0,0,.23-.08c.85-.64,1.68-1.3,2.54-1.93.6-.44,1.23-.86,1.85-1.27.41-.28.78-.14.76.32a5.25,5.25,0,0,1-.27,1.41,13.77,13.77,0,0,1-2,3.87,1.18,1.18,0,0,0-.12.33c.14,0,.31,0,.42,0,1.21-.69,2.39-1.46,3.64-2.1a13.6,13.6,0,0,1,2.62-.94c.48-.13.89-.47,1.45-.39s.87.34.72.82a4.88,4.88,0,0,1-1.15,2.26,5.7,5.7,0,0,0-.43.42c-.22.29-.42.59-.63.89.36-.1.73-.19,1.09-.32a40.61,40.61,0,0,1,5.13-1.58,2.06,2.06,0,0,1,1.39,0c.27.13.73.08.91.32a3.21,3.21,0,0,1,.36,1,2.91,2.91,0,0,1,0,.42c0,.88,0,.86.91.5,1.3-.51,2.61-1,3.92-1.47a13.88,13.88,0,0,0,2.08-.76,14.27,14.27,0,0,1,3.64-1.31c.68-.18,1.39-.23,2.08-.38a32.47,32.47,0,0,1,5-.21c.23,0,.46,0,.69,0a1.07,1.07,0,0,1,.19.07c0-.07,0-.18,0-.22a1,1,0,0,0-.35-.22,11.35,11.35,0,0,1-2.4-1.49c-.82-.51-1.65-1-2.48-1.51-1-.6-2-1.22-3-1.83a5.23,5.23,0,0,0-.63-.41A11.59,11.59,0,0,1,207,88.66c-1-.85-2.13-1.58-3.14-2.44s-1.81-1.69-2.71-2.54a1.24,1.24,0,0,0-.22-.18c-1-.76-1.93-1.5-2.86-2.27-.62-.52-1.17-1.11-1.79-1.63-.85-.71-1.73-1.39-2.6-2.07-.24-.19-.52-.34-.75-.53-1.81-1.55-3.62-3.09-5.41-4.66-1.17-1-2.31-2.1-3.45-3.18-1.48-1.4-2.94-2.82-4.42-4.23l-4.8-4.6q-1.71-1.63-3.39-3.29a28.57,28.57,0,0,1-3.15-3.55,11.4,11.4,0,0,0-1.4-1.47c-1.29-1.27-2.61-2.5-3.9-3.78-1-1-2-2-3-3.05S158,43,157,41.85c-.84-1-1.58-2-2.46-2.9a49.86,49.86,0,0,0-3.85-3.7c-1.12-.93-2.43-1.66-3.64-2.5a8.48,8.48,0,0,1-1.25-1.05,28.73,28.73,0,0,1-2.61-3,21.28,21.28,0,0,0-2-2.25c-.17-.18-.3-.29-.58-.08-.13.09-.48,0-.71-.11a14.56,14.56,0,0,1-3.14-1.85,7.63,7.63,0,0,1-1.84-1.88.32.32,0,0,0-.12-.08s-.07.1-.06.14a3.2,3.2,0,0,0,.19.69,14.07,14.07,0,0,1,1,2.76,12,12,0,0,1,.18,2.46.57.57,0,0,1,0,.26,3.06,3.06,0,0,1-.48,1.05c-.1.11-.6-.13-.93-.2a12.42,12.42,0,0,1-3-1.42.84.84,0,0,1-.29-.3c-.11-.16-.2-.34-.3-.51L131,28a3.89,3.89,0,0,0,.57,2,.67.67,0,0,0,.16.27,21,21,0,0,1,3.61,3.88,14.57,14.57,0,0,1,1.31,2.43,10.47,10.47,0,0,0,3.32,3.5c.72.55,1.45,1.08,2.16,1.63a12.56,12.56,0,0,1,1.58,1.3,27.46,27.46,0,0,1,3.59,4q1,1.64,1.86,3.33a7.22,7.22,0,0,0,1.4,2,8.2,8.2,0,0,0,2,1.34,5.88,5.88,0,0,1,2.51,2.55,9.51,9.51,0,0,0,1.61,2.15c1.21,1.14,2.42,2.28,3.57,3.47a13.93,13.93,0,0,1,1.94,2.35c.88,1.41,1.61,2.91,2.4,4.37,0,.07,0,.18,0,.31M113,100.45c-.29-.21-.58-.59-.88-.61a11.52,11.52,0,0,0-1.74.23c-.64.06-1.27.46-1.92.18-.4-.17-.1.22-.25.21s0,.18,0,.2c.46.26.46.39.29.89s-.51.37-.72.56,0,.67-.5.79c-.15,0-.25.23-.4.31a.86.86,0,0,0-.38,1,.61.61,0,0,0,.07.14,2.72,2.72,0,0,1,.38-.31s.16,0,.24.05a9.88,9.88,0,0,0,1.16.39c.5.1,1,.44,1.53,0,.71-.59,1.73-.49,2.46-1.16s.77-.46,1.31-1.16a.2.2,0,0,1,.14-.08c.51,0,.48-.15.18-.45a.93.93,0,0,1-.16-.44c0-.19,0-.18-.3-.13a.31.31,0,0,1-.24-.15.84.84,0,0,1-.1-.51c.42,0,.3-.28.21-.45s-.27-.14-.42-.21a3.11,3.11,0,0,1,.11.41.24.24,0,0,1-.08.25m21.09-79.38c.86.75,1.7,1.52,2.6,2.22s2,1.48,3.09,2.17a1.12,1.12,0,0,0,.88,0c.36-.16.26-.58.15-.82a8.85,8.85,0,0,0-1-1.79,36.94,36.94,0,0,0-3.38-4.32c-.38-.37-.66-.81-1-1.2-.63-.68-1.25-1.39-1.95-2-1-.86-2.05-1.63-3-2.49-.73-.64-1.38-1.36-2.06-2.05l-.13-.11c-1.11-1.2-2.19-2.42-3.35-3.57s-2.31-1.95-3.44-2.94c-1.4-1.23-3.07-2.1-4.52-3.24a.32.32,0,0,0-.3,0,30.42,30.42,0,0,0-2.33,2.21c-1,1.18-1.91,2.48-2.92,3.67s-1.78,2-2.75,3c-1.26,1.25-2.16,2.77-3.5,4s-2.6,2.72-3.92,4.05-2.57,2.48-3.85,3.73c-.58.57-1.11,1.2-1.69,1.79-1.35,1.36-2.82,2.61-4.07,4.07a6,6,0,0,0-1.35,3.45,7.56,7.56,0,0,1-.42,1.51c0,.18-.19.32-.25.49a.71.71,0,0,0,0,.32,1.32,1.32,0,0,0,.25-.16c.69-.6,1.34-1.24,2.07-1.79a29.5,29.5,0,0,0,2.91-2.31c1-1,2.07-1.89,3.11-2.84,0,0,.08-.1.13-.12s.3-.11.4-.07.13.22.13.34a10.44,10.44,0,0,1-.31,3.24c-.21.79-.32,1.61-.52,2.41s-.87,1.81-.68,2.85c0,0-.09.08-.1.13q-.25.91-.48,1.83a.24.24,0,0,0,.06.23.29.29,0,0,0,.24,0c.87-.84,1.77-1.66,2.6-2.54.68-.72,1.26-1.53,1.89-2.3a21.79,21.79,0,0,0,1.63-2c.65-1,1.18-2.07,1.77-3.1.23-.4.47-.78.7-1.17.38-.63.76-.7,1.3-.23a3.82,3.82,0,0,1,1.22,2.64,26.17,26.17,0,0,0,.42,3.06c0,.23.15.46.18.69.08.68.13,1.36.21,2,0,.07,0,.17.1.19a.23.23,0,0,0,.23-.06c.35-.74,1-1.33,1.27-2.12A7.31,7.31,0,0,0,111,29a3.35,3.35,0,0,1,.16-1,.34.34,0,0,1,.59-.13c.31.32.6.65.89,1,.62.72,1.21,1.46,1.77,2.24a3.05,3.05,0,0,1,.73,1.75c0,.33.12.21.28.08a.64.64,0,0,1,.26.2,2.88,2.88,0,0,1,.3.47,36.1,36.1,0,0,1,2,3.86,14.74,14.74,0,0,0,1.74,3.28.85.85,0,0,1,.09.22s.08-.07.09-.11a14.76,14.76,0,0,0,.86-3.63c0-.36-.12-.78,0-1.07a1.58,1.58,0,0,0,.09-1.21,7.14,7.14,0,0,1-.17-1.71l-.21-3a1,1,0,0,0,0-.17,13.39,13.39,0,0,1-.56-3.49c0-.43,0-.89-.09-1.29s.15-1,.07-1.47.37-.56.7-.33c.12.09.22.2.33.3a19.75,19.75,0,0,1,3.3,4.17c1.08,1.59,2.25,3.11,3.39,4.66,0,0,.12.07.18.11a.88.88,0,0,0,0-.15c.18-.8.4-1.6.5-2.41a2.57,2.57,0,0,0-.25-1.76,14.88,14.88,0,0,1-1.16-2.58,5.87,5.87,0,0,1-.41-1.1c-.08-.42.09-.52.48-.33a25.33,25.33,0,0,1,2.48,1.29c1.18.74,2.3,1.57,3.47,2.33a3.51,3.51,0,0,0,1.59.67c.76.09.81.14.95-.51a2,2,0,0,0,0-.42,9.12,9.12,0,0,0-.83-3.31,10.82,10.82,0,0,0-1.17-2.33c-.34-.49-.76-.88-1.12-1.33-.08-.1-.09-.4,0-.43a.67.67,0,0,1,.53-.06,11.18,11.18,0,0,0,1.2.75m20.7,77.85a2.25,2.25,0,0,0,0,.58c.17.59.37,1.2,1.08,1.41a10.44,10.44,0,0,0,3.6.76,5.94,5.94,0,0,1,1.66.27,10.9,10.9,0,0,0,2.71.51c.81,0,1.62,0,2.42,0a8.81,8.81,0,0,0,2.42-.38,22.59,22.59,0,0,0,3.53-1.72c.86-.51,1.82-1.12,2-2.11a8.17,8.17,0,0,0,.4-3.69,3.78,3.78,0,0,0-1.39-2.39,3.57,3.57,0,0,0-1.26-.38.6.6,0,0,0-.1.26c0,.3,0,.25-.31.25a4.34,4.34,0,0,0-1.65,0,3,3,0,0,0-2,2,3.29,3.29,0,0,1-1,1.91,1.8,1.8,0,0,1-1.88.47,2.18,2.18,0,0,0-.67-.06c-.33,0-.7.21-1,.12a10.43,10.43,0,0,0-2.43-.12c-.18,0-.35,0-.52,0-1.25-.2-2.5-.41-3.75-.59a1.25,1.25,0,0,0-.8.23c-.66.34-.63,1.08-1.12,1.53-.2.17-.07.68-.08,1.21m-60.21,3.24a9.89,9.89,0,0,1,4.1-1,2.4,2.4,0,0,0,2.22-1.36A10.18,10.18,0,0,1,103,96.56a.67.67,0,0,0,.11-.18,2,2,0,0,0-.24,0,1.35,1.35,0,0,0-.45,0,11.67,11.67,0,0,1-3.34.07,15.15,15.15,0,0,1-2.88-.58,2.64,2.64,0,0,0-2.09.12,9.5,9.5,0,0,0-3,2.49,3.34,3.34,0,0,0-.52,2.75,3.55,3.55,0,0,0,1.71,1.93,1.24,1.24,0,0,0,1.18.09c.59-.16.68-.62,1.06-1.06m8.62-4.9a7.76,7.76,0,0,0-1.59,2.34,3.3,3.3,0,0,1-2.82,2.16,15.4,15.4,0,0,0-2.89.57,5.23,5.23,0,0,0-1.3.69c-.16.11-.19.37-.27.56a3.75,3.75,0,0,0,.57.09,21.72,21.72,0,0,1,3.32.16,15,15,0,0,0,3,.26c.89,0,1.75-.37,2.64-.5a6.66,6.66,0,0,0,3.94-2.22c.06-.07.13-.24.09-.28-.38-.41,0-.74.1-1.1a.67.67,0,0,0,.08-.39c0-.31-.16-.62-.18-.94a2,2,0,0,0-.45-1.52s0-.16.07-.17c.28-.07.19-.2.08-.35s-.25-.06-.39,0-.39.32-.57.3a5.93,5.93,0,0,1-1.37-.32c-.63-.23-.73-.23-1.16.22a.88.88,0,0,1-.34.15,4.08,4.08,0,0,0-.55.26m58.31-5.5a18.77,18.77,0,0,0-1.89,1c-1,.66-1.94,1.39-2.9,2.11a.51.51,0,0,0-.16.42c0,.07.25.14.4.16,1.23.16,2.48.26,3.7.5a6,6,0,0,0,1.19.12c1.19,0,2.38,0,3.57,0a1.4,1.4,0,0,0,1.36-.62,3.21,3.21,0,0,0,.64-1.53,2.63,2.63,0,0,1,2.67-2.3,1.67,1.67,0,0,0,.34-.11c-.12-.08-.23-.21-.35-.22a19.77,19.77,0,0,0-3.61-.31c-.86.08-1.74.09-2.6.21a15.52,15.52,0,0,0-2.36.61M17.68,89.55l-.33.36h.48c.91,0,1.83,0,2.75,0a9.5,9.5,0,0,1,1.15.19c.08,0,.33.09.15-.18a3.21,3.21,0,0,1-.55-2.65c.07-.29-.09-.2-.18-.18a.71.71,0,0,0-.36.17c-.46.37-.89.78-1.37,1.13s-1.1.73-1.74,1.17m153.55,2-.09-.17c0,.06-.06.12.09.17m-31.75-66-.23.05,0,.1c.09,0,.19,0,.19-.15m1,.41-.11-.06S140.37,26,140.47,26ZM118.6,88.62c.14.18.2.33.31.44s.38.34.57.5c.22-.25-.08-.44-.1-.66a6.63,6.63,0,0,1,0-1.18,4.53,4.53,0,0,0-1.06-3c0-.07-.16-.11-.18-.18-.1-.31-.47-.62-.15-1s.65-.15,1-.08a3.9,3.9,0,0,1,2.46,2,5.53,5.53,0,0,1,1.08,2.1,11.68,11.68,0,0,1,.22,1.18c.06.54.1.6.69.61.22,0,.25,0,.09.22a.71.71,0,0,0-.06.68,1.21,1.21,0,0,1-.14.69,26.24,26.24,0,0,1-1.26,2.55c-.23.4-.06.76-.14,1.13,0,0,0,.07,0,.07.9,0,.35.75.69,1.06a11.24,11.24,0,0,1,1.21,1.54,2.33,2.33,0,0,0,.27.4c.39.3.61.75,1.28.79a8.81,8.81,0,0,0,2.46.11c.34.3.67,0,1,0,.89-.11,1.81-.07,2.69-.24.62-.12,1.27.23,1.84-.16a3.94,3.94,0,0,0,1.9.14,8.59,8.59,0,0,0,3-.48c.74-.24,1.55-.28,2.28-.53s1.68-.81,2.57-1.06a5.56,5.56,0,0,0,2.33-1.42,4.83,4.83,0,0,0,1.1-2,1.18,1.18,0,0,0-.29-1.06,12,12,0,0,0-1.94-2.1c-.68-.61-.64-.74.27-1,1.1-.35,2.19-.75,3.31-1a6,6,0,0,1,1.69,0,19.22,19.22,0,0,0,3.62-.57c.73-.1,1.22-1,.88-1.49a8.19,8.19,0,0,0-1-1.11,8.08,8.08,0,0,0-.81-.6l-.19-.11c0,.08-.07.17,0,.23a5.46,5.46,0,0,1,.32.64,1.2,1.2,0,0,1-.05.45,1.3,1.3,0,0,1-.47-.13,1.52,1.52,0,0,1-.39-.52,5.91,5.91,0,0,0-3.75-3c-.84-.25-1.65-.58-2.48-.86a4.54,4.54,0,0,0-1-.26.93.93,0,0,0-.88.24c-.41.42-.47.37-.89-.11a.91.91,0,0,0-.56-.28,17.72,17.72,0,0,0-3.7.36c-.42.09-.86.07-1.29.13a23.57,23.57,0,0,0-3,.9,14.5,14.5,0,0,0-2.81,1.14c-1,.52-1.86,1.2-2.79,1.8a10.56,10.56,0,0,0-3.19,3c-.32.5-.92.82-1.24,1.36a4.19,4.19,0,0,1-1.08.74,3.86,3.86,0,0,1,.52-1.16c.78-.6,1-1.54,1.7-2.23a23.3,23.3,0,0,1,4-3.15c.87-.58,1.81-1.07,2.7-1.62a11.6,11.6,0,0,1,2.54-.91,20.17,20.17,0,0,1,5.08-.94c1.08-.08,2.16-.09,3.24-.17a2.12,2.12,0,0,0,.84-.3c.92-.51,1.78-1.11,2.72-1.55a7.5,7.5,0,0,1,2-.55,14.1,14.1,0,0,1,2.42-.19,28.21,28.21,0,0,1,2.9.3,10.63,10.63,0,0,1,1.88.39c1.06.36,2.07.88,3.15,1.19A11.31,11.31,0,0,1,162.34,81a20.73,20.73,0,0,1,2.34,1.83,12,12,0,0,1,3.09,4.69c.12.41.2.83.3,1.24s.26,1.55,0,1.73a2,2,0,0,1-.65-.05,8.23,8.23,0,0,1-.08-1.13,10.94,10.94,0,0,0-.88-2.7c-.38-.8-.92-1.49-1.33-2.26a2,2,0,0,0-.33-.38,32,32,0,0,0-3.6-2.83c-.33-.23-.59-.55-.92-.78a12.13,12.13,0,0,0-3.09-1.33c-.62-.21-1.21-.49-1.82-.75a5.71,5.71,0,0,0-1.7-.4c-1-.11-2.06-.32-3.1-.45a3.73,3.73,0,0,0-.93.1c-.14,0-.28.06-.42.07A8,8,0,0,0,145.17,79c-.26.18-.56.32-.84.49a5,5,0,0,0,1,.25c2,.6,4,1.09,5.48,2.61.33.33.61.45,1,.17A5.18,5.18,0,0,1,154,82c1.06-.17,2.15-.13,3.23-.25.35,0,.64.18,1,0a2.82,2.82,0,0,1,1.16.13,5.4,5.4,0,0,1,1.09.16A16.49,16.49,0,0,1,164.43,84s.11.07.12.12a2.57,2.57,0,0,1,0,.4,1,1,0,0,1-.36,0,14.82,14.82,0,0,1-1.55-.76,8.62,8.62,0,0,0-4.63-1.25c-.72,0-1.44,0-2.15,0a14,14,0,0,0-2.89.38c-.15,0-.37.15-.39.26s.12.3.24.4c.56.48,1.16.93,1.71,1.42a1.37,1.37,0,0,1-.44,2.33,8.07,8.07,0,0,1-2.13.65,11.19,11.19,0,0,1-2.16.19,14.84,14.84,0,0,0-4.54.91c-.36.1-.39.33-.14.6a12.12,12.12,0,0,1,1.52,1.67,2.45,2.45,0,0,1,.22,2.58,5.17,5.17,0,0,1-3.29,2.94c-1,.29-1.89.73-2.83,1.1-.24.1-.48.18-.72.27.23.33.57.11.86.16,1,.16,1.94.09,2.9.29a12.94,12.94,0,0,0,2.07.16c1.41.06,2.82.07,4.23.14a5.58,5.58,0,0,0,1.78.07,8.13,8.13,0,0,1,.88-.11c.24,0,1.25.05,1.21.34s-.78.3-1.12.35a10.06,10.06,0,0,1-3.71,0,4,4,0,0,0-1,0,9.4,9.4,0,0,1-3.08-.31,2.16,2.16,0,0,0-.36,0c-1.47-.09-3-.11-4.41-.31a8.34,8.34,0,0,0-2.73,0,4.24,4.24,0,0,1-1.45-.09,5.42,5.42,0,0,0-2.32.18,3.74,3.74,0,0,1-1.72.12,5.07,5.07,0,0,0-1.65,0c-1.61.17-3.23.18-4.85.25a6.19,6.19,0,0,1-2-1.26,5.82,5.82,0,0,0-.45-.4,2.31,2.31,0,0,1-.83-1.11c-.14-.58-.62-1-.75-1.65s-.38-1.25.15-1.84c.05,0,0-.16,0-.24a4.94,4.94,0,0,1,.7-1.66.73.73,0,0,0,.07-.39c-.27-.07-.26.1-.27.28s-.12.14-.18.21a1.24,1.24,0,0,0-.17-.23c-.39-.4-.11-.84,0-1.2a3.33,3.33,0,0,0-.29-2.73,8.19,8.19,0,0,0-2-2.73.69.69,0,0,0-.25-.1c0,.09,0,.18,0,.25a3.6,3.6,0,0,0,.37.7,2.28,2.28,0,0,1,.37,1.71,6.92,6.92,0,0,1-.13,2.31c-.08.2.14.5.16.76a.83.83,0,0,1-.17.52c-.29.37-.45.36-.71,0a10.3,10.3,0,0,0-3.31-3c-.65-.41-1.23-.89-1.85-1.33a1.79,1.79,0,0,0-.37-.15c0,.15-.07.33,0,.45a4,4,0,0,0,.68,1.08,5.76,5.76,0,0,1,1.24,2.22c.24.55.22,1.19.7,1.68.1.11-.05.57-.23.76s-.31-.09-.48-.25a7.67,7.67,0,0,0-1.43-1c-.2-.12-.51-.12-.19-.42,0,0,0-.08,0-.12s-.23,0-.23,0c-.08.33-.16.23-.4.08-.84-.51-1.73-1-2.59-1.45a6.64,6.64,0,0,1-.65-.43c-.22.39.27.5.35.78a4.4,4.4,0,0,0,.71,1.31,14,14,0,0,1,.64,1.35c.24.47.52.92.76,1.38.16.3.18.62-.16.8a.53.53,0,0,1-.72-.3c-.14-.38-.5-.63-.61-.94s0-.6-.14-.91A13.11,13.11,0,0,0,109,89s-.11-.07-.12-.12c-.08-.28-.49-.5-.19-.86s.64-.06.91.05c.93.4,1.84.85,2.76,1.28.49.22,1,.4,1.49.67s1,.31.94,1a.18.18,0,0,0,.35,0,.62.62,0,0,0,0-.5c-.63-1-1.29-2.08-1.92-3.13a4.42,4.42,0,0,1-.76-1.66.68.68,0,0,1,.27-.7c.2-.17.4,0,.61.12a7.73,7.73,0,0,0,1,.49,1.61,1.61,0,0,1,.28.17l2.33,1.64,1.68,1.22m46-19.72a6.25,6.25,0,0,1,1.28,2.83.73.73,0,0,1-.07.31c0-.09-.06-.18-.1-.27-.33-.74-.66-1.47-1-2.21A2.57,2.57,0,0,1,164.61,68.9ZM68.44,47.75a.23.23,0,0,1,0-.15A.18.18,0,0,1,68.44,47.75Zm82.94,34.11c.05,0,.06.06.06.11A.1.1,0,0,1,151.38,81.86ZM49.77,89s0,.06.06.11A.09.09,0,0,1,49.77,89Zm.35-.42s.06-.06.12-.06S50.19,88.59,50.12,88.58Z"/></g></g></svg>