<svg xmlns="http://www.w3.org/2000/svg" viewBox="0 0 186.13 74.39"><defs><style>.cls-1{fill:#fff;}.cls-2{fill:#e6e6e6;}</style></defs><title>cloud-large</title><g id="Layer_2" data-name="Layer 2"><g id="cloud-large"><path id="void" class="cls-1" d="M186,43.68c-.54-1.07-1.67-1.1-2.63-1.44a.06.06,0,0,0-.06,0c-.18.2-.4,0-.55,0a2.6,2.6,0,0,0-1.61,0,.68.68,0,0,1-.88-.35,1.26,1.26,0,0,0-.31-.4c-1.15-.75-2.29-1.56-3.8-1.08a2.83,2.83,0,0,0-2.09,1,2.44,2.44,0,0,0-.86,1.13c-.2.71-.69.77-1.06.13A2.49,2.49,0,0,0,170,41.44a7.59,7.59,0,0,1-1.26-.14,5.44,5.44,0,0,0-2.83.09c-.49.12-1,.33-1.44.5l-.14,0c0-.06,0-.17,0-.17.33-.07.46-.52.85-.47A4.2,4.2,0,0,0,167,38.8a4.68,4.68,0,0,0,.06-2.38,5.24,5.24,0,0,0-5.59-4,.3.3,0,0,1-.21-.09s0-.11,0-.16c.19-.34.41-.67.6-1a2,2,0,0,0-.09-2.05,3.62,3.62,0,0,0-.58-.81,8.57,8.57,0,0,0-1-.89c-.1-.09-.28-.09-.43-.13a2.69,2.69,0,0,0,.38-.2,10.55,10.55,0,0,0,1.3-1.19,18.71,18.71,0,0,0,1.4-1.91,1.63,1.63,0,0,0,.33-.85c0-1.21-.09-2.42-1.35-3.11a2.56,2.56,0,0,0-2.41-.36c-.33.16-.31,0-.32-.2,0-.88-.36-1.23-1.24-1.57a3.46,3.46,0,0,0-1.34-.25c-.47,0-.93,0-1.39,0a6,6,0,0,0-2.92.77,6.42,6.42,0,0,0-1.67,1.4,3.19,3.19,0,0,0-.77,2.95,2.14,2.14,0,0,0,.06.27c-.1,0-.22,0-.31,0a12.9,12.9,0,0,0-1.48-.39,8.17,8.17,0,0,0-3,.05,20.43,20.43,0,0,0-2,.37,13.2,13.2,0,0,0-1.37.37,4.25,4.25,0,0,0-2.11,1.84,6,6,0,0,0-1,3.21,4.78,4.78,0,0,0,.13.74c0,.09,0,.22-.16.1a6.13,6.13,0,0,0-3.21-.85c-.25,0-.5.12-.74.12a2.15,2.15,0,0,0-1,.26c-.32.15-.66.28-1,.41-.51.19-.65.36-.65.87,0,.34,0,.66,0,1s-.05.26-.25.24a3.47,3.47,0,0,0-1.68.27,4.26,4.26,0,0,1-.62.26A2.52,2.52,0,0,0,128,33.27a3.22,3.22,0,0,0-.07,2.58,1.85,1.85,0,0,1,0,.24,1.83,1.83,0,0,1-.25-.06,8.89,8.89,0,0,0-.88-.26,1.86,1.86,0,0,0-1.48.55c-.16.14-.23.12-.37,0-.39-.35-.76-.71-1.17-1-.17-.12-.26-.13,0-.29.49-.4,1-.77,1.46-1.21.64-.63,1.25-1.28,1.82-2,.44-.52.79-1.12,1.18-1.68a4.48,4.48,0,0,0,.75-2,3.81,3.81,0,0,0-.09-1.89,6.18,6.18,0,0,0-.86-1.42c-.13-.17-.21-.23,0-.43a9,9,0,0,0,.93-1.2,2.54,2.54,0,0,0,.48-2.28c-.17-.61-.49-1.16-.7-1.75s-.9-.92-1.3-1.42c-.06-.06-.24-.05-.36,0l-.06,0s0,.06,0,.07a.83.83,0,0,1-.53.13.41.41,0,0,1,.29-.12c.1,0,.19-.06.29-.08,0-.19.07-.65.12-.75a6.71,6.71,0,0,0,.82-3.28c0-.51-.1-1-.12-1.53a2,2,0,0,0-.25-1,3.37,3.37,0,0,1-.28-.61,7.3,7.3,0,0,0-2.67-3.76,5.18,5.18,0,0,0-1.47-.73,10.17,10.17,0,0,0-2.46-.1,4.47,4.47,0,0,0-1.56.2A5.33,5.33,0,0,0,117,7.43c-.4.4-.84.76-.69,1.44.07.27-.13.38-.39.37a6.17,6.17,0,0,0-.86,0,2,2,0,0,0-1.08.41.35.35,0,0,1,0,.2s-.1,0-.17,0a1,1,0,0,1,.21-.21c0-.17,0-.41,0-.52a4.82,4.82,0,0,0-.38-1.88,2,2,0,0,0-1.59-1.45c-.74-.14-.75-.19-.79-1,0-.17-.1-.35-.13-.54a3.12,3.12,0,0,0-1.4-2.17,3,3,0,0,1-.41-.29,8,8,0,0,0-2.68-1.5A9.3,9.3,0,0,0,103.29,0a7.31,7.31,0,0,0-1.54.27,6.88,6.88,0,0,0-1.16.39,3.3,3.3,0,0,0-2.14,1.92,2,2,0,0,0,.06,1.71,2.22,2.22,0,0,0,1.35,1,7,7,0,0,1,.85.36c.2.07.17.16.07.28s-.16.1-.19.18c-.11.27-.12.63-.3.78s-.6.13-.89.23a3.31,3.31,0,0,0-2.33,2,2.93,2.93,0,0,0-.17,1.51,2.55,2.55,0,0,0,.91,1.45,17.29,17.29,0,0,0,2.61,1.8c.21.12.21.12,0,.27-.49.39-.87.84-.54,1.53,0,.1.08.28-.19.32a7.41,7.41,0,0,0-3.6,1.63,3.33,3.33,0,0,0-1,1.58,4.39,4.39,0,0,0,.17,2.41,4.13,4.13,0,0,0,.22.49l-.52.09-.67.13a11.66,11.66,0,0,0-1.53.45c-.61.25-.6.28-.95-.27,0,0,0-.09,0-.12A3.51,3.51,0,0,0,90,20.86c-.65-.23-1.31-.43-2-.62A2.07,2.07,0,0,0,87,20.09a10.56,10.56,0,0,1-1.86.11c-.13,0-.25.06-.37.07a7.09,7.09,0,0,0-1.68.57,3.09,3.09,0,0,0-1.86,1.45.49.49,0,0,1-.5.29,6.6,6.6,0,0,0-1.33.14,1.82,1.82,0,0,0-1.61,2q.07.64.21,1.29c.08.39.1.37-.31.39a8.91,8.91,0,0,0-1.46.14,11.72,11.72,0,0,0-2.86,1.06,4.82,4.82,0,0,0-2.27,2.65,9.52,9.52,0,0,0-.56,2.4A6.23,6.23,0,0,0,71,35.14a4.19,4.19,0,0,0,1.6,2.3,2.1,2.1,0,0,1,.47.47s0,.21-.06.22a5.57,5.57,0,0,0-2.22,1.19A2.07,2.07,0,0,0,70,41.64a1.35,1.35,0,0,1,0,.53.26.26,0,0,1-.16.19,7.49,7.49,0,0,1-1.06.13,16.33,16.33,0,0,0-2.2.13,5.44,5.44,0,0,0-2.17.81c-.42.26-.47.41-.34.85,0,.1.24.16,0,.21-.58.1-1.13.27-1.69.38a3.44,3.44,0,0,0-2.6,1.64c-.07.12-.19.31-.14.4A3.76,3.76,0,0,0,60.24,48a10.7,10.7,0,0,0,1.49,1,3.48,3.48,0,0,0,.71.38c.33.12.67.17,1,.27.12,0,.3.13.3.2,0,.46.34.46.61.59a1.12,1.12,0,0,1,.2.17.48.48,0,0,1-.21.09,5.22,5.22,0,0,0-2.19.62,6,6,0,0,0-2.42,1.78,1,1,0,0,1-1.16.35A5.69,5.69,0,0,0,57,53.21a36.54,36.54,0,0,0-7.89.37c-.76.17-1.52.23-2.27.42l-.33.12.35.07s-.71.44-.74.47a.9.9,0,0,1-.61.18.4.4,0,0,1,.18-.29,5.34,5.34,0,0,1,.82-.43l-.8-.14c-.28,0-.54-.1-.81-.13-.42-.05-.86-.05-1.26-.14a7.45,7.45,0,0,0-1.81-.25,28.34,28.34,0,0,0-3.05.1,16.61,16.61,0,0,0-2.34.42,3.5,3.5,0,0,0-1.55,1c-.22.24-.1.52-.2.72A1,1,0,0,0,34.86,57a3.24,3.24,0,0,0,.94.91,10.76,10.76,0,0,0,2.68.86c.82.15.81.17,1.36,1a1.44,1.44,0,0,0,.47.45,5.08,5.08,0,0,0,.85.31c.06,0,.11.09.16.14s-.13.12-.19.12a3.77,3.77,0,0,0-1.61.41,1.16,1.16,0,0,1-.34.12A5,5,0,0,1,37.69,61c-.81-.23-1.64-.38-2.48-.55a5,5,0,0,1-1.11-.18,3,3,0,0,0-1.36-.22c-.53,0-1.06,0-1.58,0-.23,0-.47-.16-.67-.12a14.6,14.6,0,0,1-3,.39,1.67,1.67,0,0,0-.3.08c-1,.32-2,.6-2.95,1a12.21,12.21,0,0,0-3.62,2.27,1.62,1.62,0,0,1-.78.46,3,3,0,0,1-1.3-.17,3.54,3.54,0,0,0-1.31-.2,3,3,0,0,1-1.14-.12c-.18-.07-.45.06-.67.1l-.8.15a6.16,6.16,0,0,0-2.31.79c-.35.25-.75.42-1,.86a.77.77,0,0,1-.92.46,3.78,3.78,0,0,0-.81-.12c-1.32-.05-2.64-.11-4-.13a12.17,12.17,0,0,0-1.59.13c-.44,0-.86.14-1.29.21a2.56,2.56,0,0,0-.75.11,19,19,0,0,0-1.76,1,.69.69,0,0,0-.24.73c0,.23.19.27.4.34a10.74,10.74,0,0,1,1.11.49A3,3,0,0,0,2.79,69c.76,0,1.54,0,2.31,0a4,4,0,0,1,1.18-.08c.35.11.63.49.94.74,0,0,0,0,.06,0a4.53,4.53,0,0,0,3.68.47c.58-.14,1.18-.22,1.77-.34l1.52-.32c.3-.06.64-.24.88-.16a13,13,0,0,0,1.64.38,7.22,7.22,0,0,0,2.45.06c.89-.13,1.79,0,2.67-.2,1.09-.16,2.22-.11,3.33-.16a1.9,1.9,0,0,0,.29-.09,2.69,2.69,0,0,1,1.77.27,10.45,10.45,0,0,1,1.44,1.14,2,2,0,0,0,.51.37,9.75,9.75,0,0,0,2.07.42,2,2,0,0,0,.68,0c.72-.15,1.43.21,2.14,0,.23.24.59.11.84.39a1.84,1.84,0,0,0,.87.4c.6.13,1.2.19,1.81.27a4.46,4.46,0,0,1,1,.16,6.3,6.3,0,0,0,2.42.38c.64,0,1.28,0,1.92,0a4.77,4.77,0,0,0,1.79-.21,2.25,2.25,0,0,1,2,.08,3.31,3.31,0,0,0,2.91.27,23.55,23.55,0,0,0,3-1.15A19.51,19.51,0,0,0,55.9,70.2a.6.6,0,0,1,.59-.06,4,4,0,0,1,.67.29c1.07.65,2.34.62,3.49,1,.08,0,.22,0,.26,0,.22-.23.5-.08.74-.11.58-.1,1.17-.14,1.74-.28s.68-.19.89.44a1.7,1.7,0,0,0,.74,1,4.43,4.43,0,0,0,2.29.67,27.21,27.21,0,0,0,3.12-.43.52.52,0,0,1,.46.14,8.64,8.64,0,0,0,4.5,1.08,3.22,3.22,0,0,0,.93-.13,10,10,0,0,0,2.07-.58c.27-.14.45-.06.69.12a3.38,3.38,0,0,0,1.67.74,1.11,1.11,0,0,1,.52.17.87.87,0,0,0,.85.1,2.38,2.38,0,0,1,.79-.13A7.41,7.41,0,0,0,85.22,74a9.81,9.81,0,0,0,2.26-.91,2,2,0,0,1,2-.26,3.32,3.32,0,0,0,2.07,0c.44-.13.94-.43,1.44,0,0,0,.19,0,.26-.12.27-.25.51-.54.8-.78.12-.1.32-.23.45-.19a11.1,11.1,0,0,0,1.1.2,7.72,7.72,0,0,0,3-.09,15.88,15.88,0,0,0,2.11-.82,1.17,1.17,0,0,0,.73-.59,1,1,0,0,1,.78-.63,8.57,8.57,0,0,0,2.19-.79c.35-.21.7-.43,1.06-.63a1.17,1.17,0,0,0,.65-1.54c-.08-.39-.38-.84,0-1.25,0,0,0-.15-.07-.23a1,1,0,0,0-.18.09c-.08.06-.15.19-.18.19a.26.26,0,0,1,0-.45.6.6,0,0,1,.8,0,.82.82,0,0,0,1.09.1,1.92,1.92,0,0,1,1.43-.41c.57,0,1.14,0,1.71,0a9.28,9.28,0,0,0,3.42-.53,10.3,10.3,0,0,0,1.56-.54A6.08,6.08,0,0,0,118,61.73a3.83,3.83,0,0,0,.33-.46c.34-.76.67-1.52,1-2.27.08-.17.38-.4.44-.38.4.25.82,0,1.21.12s.82-.08.9.5c0,0,.15.07.22.07.53,0,1-.34,1.53-.33a3.08,3.08,0,0,0,1.59-.11c.41.27.73,0,1.1-.13.66-.27,1.29-.78,2.09-.41,0,0,.11-.07.17-.07a1,1,0,0,0,.64-.37.35.35,0,0,1,.46-.12,2.47,2.47,0,0,0,1.41.08c.52-.13,1-.38,1.52-.48.21,0,.31-.15.31.14a3.87,3.87,0,0,0,.48,1.91.32.32,0,0,1-.07.23c-.34.06-.67.11-1,.14s-.89,0-1.34.1a8.08,8.08,0,0,0-2.27.75c-.68.32-1.32.74-2,1.13A4.49,4.49,0,0,0,124.59,64a3.37,3.37,0,0,1-.19.38,1.7,1.7,0,0,0,.25,1.85,2,2,0,0,0,1.84.64c.6-.08,1.17-.36,1.76-.5s.9-.19,1.35-.28c.24,0,.36.08.27.29-.2.5.1,1,0,1.48,0,.07,0,.15.07.23A4.11,4.11,0,0,0,131.74,70a4.2,4.2,0,0,0,1.26.29,7.3,7.3,0,0,0,2.59.06,9.79,9.79,0,0,0,2.22-.83c.74-.33,1.47-.69,2.22-1,.41-.18.54-.13.54.24a2.53,2.53,0,0,0,2,2.59,12.2,12.2,0,0,0,3.88.65,12.83,12.83,0,0,0,1.52,0c.79-.12,1.57-.33,2.35-.52a11.84,11.84,0,0,0,5.75-3,6.37,6.37,0,0,1,1-.71c.49-.33.61-.32,1,0a4,4,0,0,0,2.4.91,8.66,8.66,0,0,0,2.86-.23A11.79,11.79,0,0,0,167,66.84c.09-.06.17-.17.26-.18.43,0,.58-.42.72-.71a1.15,1.15,0,0,0-.09-.82c-.06-.17-.17-.29,0-.46.14.25.27,0,.42,0a8.41,8.41,0,0,0,1.87-.24c.32,0,.51-.43.88-.28.22-.26.55,0,.79-.14a19.16,19.16,0,0,0,3.1-1.3,2.29,2.29,0,0,0,.48-3.45,5.17,5.17,0,0,0-3-1.28c-1.12-.18-1.22-.28-.65-1.24a.52.52,0,0,0,0-.18.82.82,0,0,0-.22,0c-.19,0-.42.12-.53,0a3.08,3.08,0,0,1-.81-.84,1.26,1.26,0,0,0-.77-.56,4.36,4.36,0,0,0-2-.06.55.55,0,0,1-.22,0,5.69,5.69,0,0,0-2.53.09,17.25,17.25,0,0,0-3,1.18.66.66,0,0,1-.78,0,3.21,3.21,0,0,0-2.38-.77,11.51,11.51,0,0,0-2.48.68,2.55,2.55,0,0,0-1.5,1.45.81.81,0,0,1-.19.31c-.1.14-.17.22-.41.1a13.84,13.84,0,0,0-1.33-.45,5.48,5.48,0,0,1-.6-.38,6.54,6.54,0,0,0,.51-.41c.23-.21.6-.42.64-.67.06-.44.3-.46.61-.52a1.6,1.6,0,0,0,.89-.44,4.34,4.34,0,0,0,.65-1c.34-.63.4-.63,1.12-.42a5.24,5.24,0,0,0,2.26.27c.87-.11,1.74-.24,2.61-.4a12,12,0,0,0,1.52-.45,9.84,9.84,0,0,0,1.85-1,5,5,0,0,0,1-1.06,2.22,2.22,0,0,0,.4-1c.09-.43.15-.54.57-.47a8.24,8.24,0,0,1,1.39.32,6.84,6.84,0,0,0,2.1.34c.21,0,.41.1.61.11a6,6,0,0,0,1.2,0c.71-.14,1.39-.41,2.1-.5a9.3,9.3,0,0,0,3.12-1.1c.51-.25,1.12-.56,1.07-1.33a.49.49,0,0,1,.21-.35,1.65,1.65,0,0,1,.86-.12,2.07,2.07,0,0,0,1,0,18,18,0,0,0,3.32-.93A4.25,4.25,0,0,0,186,44.52.78.78,0,0,0,186,43.68ZM167.43,66.26a1.1,1.1,0,0,0-.28.12l0-.09.18,0a.26.26,0,0,0,.14-.13C167.44,66.18,167.43,66.22,167.43,66.26Z"/><path id="fill2" class="cls-2" d="M186,43.68c-.54-1.07-1.67-1.1-2.63-1.44a.06.06,0,0,0-.06,0c-.18.2-.4,0-.55,0a2.6,2.6,0,0,0-1.61,0,.68.68,0,0,1-.88-.35,1.26,1.26,0,0,0-.31-.4c-1.15-.75-2.29-1.56-3.8-1.08a2.83,2.83,0,0,0-2.09,1,2.44,2.44,0,0,0-.86,1.13c-.2.71-.69.77-1.06.13A2.49,2.49,0,0,0,170,41.44a7.59,7.59,0,0,1-1.26-.14,5.44,5.44,0,0,0-2.83.09c-.49.12-1,.33-1.44.5l-.14,0c0-.06,0-.17,0-.17.33-.07.46-.52.85-.47A4.2,4.2,0,0,0,167,38.8a4.68,4.68,0,0,0,.06-2.38,5.24,5.24,0,0,0-5.59-4,.3.3,0,0,1-.21-.09s0-.11,0-.16c.19-.34.41-.67.6-1a2,2,0,0,0-.09-2.05,3.62,3.62,0,0,0-.58-.81,8.57,8.57,0,0,0-1-.89c-.1-.09-.28-.09-.43-.13a2.69,2.69,0,0,0,.38-.2,10.55,10.55,0,0,0,1.3-1.19,18.71,18.71,0,0,0,1.4-1.91,1.63,1.63,0,0,0,.33-.85c0-1.21-.09-2.42-1.35-3.11a2.56,2.56,0,0,0-2.41-.36c-.33.16-.31,0-.32-.2,0-.88-.36-1.23-1.24-1.57a3.46,3.46,0,0,0-1.34-.25c-.47,0-.93,0-1.39,0a6,6,0,0,0-2.92.77,6.42,6.42,0,0,0-1.67,1.4,3.19,3.19,0,0,0-.77,2.95,2.14,2.14,0,0,0,.06.27c-.1,0-.22,0-.31,0a12.9,12.9,0,0,0-1.48-.39,8.17,8.17,0,0,0-3,.05,20.43,20.43,0,0,0-2,.37,13.2,13.2,0,0,0-1.37.37,4.25,4.25,0,0,0-2.11,1.84,6,6,0,0,0-1,3.21,4.78,4.78,0,0,0,.13.74c0,.09,0,.22-.16.1a6.13,6.13,0,0,0-3.21-.85c-.25,0-.5.12-.74.12a2.15,2.15,0,0,0-1,.26c-.32.15-.66.28-1,.41-.51.19-.65.36-.65.87,0,.34,0,.66,0,1s-.05.26-.25.24a3.47,3.47,0,0,0-1.68.27,4.26,4.26,0,0,1-.62.26A2.52,2.52,0,0,0,128,33.27a3.22,3.22,0,0,0-.07,2.58,1.85,1.85,0,0,1,0,.24,1.83,1.83,0,0,1-.25-.06,8.89,8.89,0,0,0-.88-.26,1.86,1.86,0,0,0-1.48.55c-.16.14-.23.12-.37,0-.39-.35-.76-.71-1.17-1-.17-.12-.26-.13,0-.29.49-.4,1-.77,1.46-1.21.64-.63,1.25-1.28,1.82-2,.44-.52.79-1.12,1.18-1.68a4.48,4.48,0,0,0,.75-2,3.81,3.81,0,0,0-.09-1.89,6.18,6.18,0,0,0-.86-1.42c-.13-.17-.21-.23,0-.43a9,9,0,0,0,.93-1.2,2.54,2.54,0,0,0,.48-2.28c-.17-.61-.49-1.16-.7-1.75s-.9-.92-1.3-1.42c-.06-.06-.24-.05-.36,0l-.06,0s0,.06,0,.07a.83.83,0,0,1-.53.13.41.41,0,0,1,.29-.12c.1,0,.19-.06.29-.08,0-.19.07-.65.12-.75a6.71,6.71,0,0,0,.82-3.28c0-.51-.1-1-.12-1.53a2,2,0,0,0-.25-1,3.37,3.37,0,0,1-.28-.61,7.3,7.3,0,0,0-2.67-3.76,5.18,5.18,0,0,0-1.47-.73,10.17,10.17,0,0,0-2.46-.1,4.47,4.47,0,0,0-1.56.2A5.33,5.33,0,0,0,117,7.43c-.4.4-.84.76-.69,1.44.07.27-.13.38-.39.37a6.17,6.17,0,0,0-.86,0,2,2,0,0,0-1.08.41.35.35,0,0,1,0,.2s-.1,0-.17,0a1,1,0,0,1,.21-.21c0-.17,0-.41,0-.52a4.82,4.82,0,0,0-.38-1.88,2,2,0,0,0-1.59-1.45c-.74-.14-.75-.19-.79-1,0-.17-.1-.35-.13-.54a3.12,3.12,0,0,0-1.4-2.17,3,3,0,0,1-.41-.29,8,8,0,0,0-2.68-1.5A9.3,9.3,0,0,0,103.29,0a7.31,7.31,0,0,0-1.54.27,6.88,6.88,0,0,0-1.16.39,3.3,3.3,0,0,0-2.14,1.92,2,2,0,0,0,.06,1.71,2.22,2.22,0,0,0,1.35,1,7,7,0,0,1,.85.36c.2.07.17.16.07.28s-.16.1-.19.18c-.11.27-.12.63-.3.78s-.6.13-.89.23a3.31,3.31,0,0,0-2.33,2,2.93,2.93,0,0,0-.17,1.51,2.55,2.55,0,0,0,.91,1.45,17.29,17.29,0,0,0,2.61,1.8c.21.12.21.12,0,.27-.49.39-.87.84-.54,1.53,0,.1.08.28-.19.32a7.41,7.41,0,0,0-3.6,1.63,3.33,3.33,0,0,0-1,1.58,4.39,4.39,0,0,0,.17,2.41,4.13,4.13,0,0,0,.22.49l-.52.09-.67.13a11.66,11.66,0,0,0-1.53.45c-.61.25-.6.28-.95-.27,0,0,0-.09,0-.12A3.51,3.51,0,0,0,90,20.86c-.65-.23-1.31-.43-2-.62A2.07,2.07,0,0,0,87,20.09a10.56,10.56,0,0,1-1.86.11c-.13,0-.25.06-.37.07a7.09,7.09,0,0,0-1.68.57,3.09,3.09,0,0,0-1.86,1.45.49.49,0,0,1-.5.29,6.6,6.6,0,0,0-1.33.14,1.82,1.82,0,0,0-1.61,2q.07.64.21,1.29c.08.39.1.37-.31.39a8.91,8.91,0,0,0-1.46.14,11.72,11.72,0,0,0-2.86,1.06,4.82,4.82,0,0,0-2.27,2.65,9.52,9.52,0,0,0-.56,2.4A6.23,6.23,0,0,0,71,35.14a4.19,4.19,0,0,0,1.6,2.3,2.1,2.1,0,0,1,.47.47s0,.21-.06.22a5.57,5.57,0,0,0-2.22,1.19A2.07,2.07,0,0,0,70,41.64a1.35,1.35,0,0,1,0,.53.26.26,0,0,1-.16.19,7.49,7.49,0,0,1-1.06.13,16.33,16.33,0,0,0-2.2.13,5.44,5.44,0,0,0-2.17.81c-.42.26-.47.41-.34.85,0,.1.24.16,0,.21-.58.1-1.13.27-1.69.38a3.44,3.44,0,0,0-2.6,1.64c-.07.12-.19.31-.14.4A3.76,3.76,0,0,0,60.24,48a10.7,10.7,0,0,0,1.49,1,3.48,3.48,0,0,0,.71.38c.33.12.67.17,1,.27.12,0,.3.13.3.2,0,.46.34.46.61.59a1.12,1.12,0,0,1,.2.17.48.48,0,0,1-.21.09,5.22,5.22,0,0,0-2.19.62,6,6,0,0,0-2.42,1.78,1,1,0,0,1-1.16.35A5.69,5.69,0,0,0,57,53.21a36.54,36.54,0,0,0-7.89.37c-.76.17-1.52.23-2.27.42l-.33.12.35.07s-.71.44-.74.47a.9.9,0,0,1-.61.18.4.4,0,0,1,.18-.29,5.34,5.34,0,0,1,.82-.43l-.8-.14c-.28,0-.54-.1-.81-.13-.42-.05-.86-.05-1.26-.14a7.45,7.45,0,0,0-1.81-.25,28.34,28.34,0,0,0-3.05.1,16.61,16.61,0,0,0-2.34.42,3.5,3.5,0,0,0-1.55,1c-.22.24-.1.52-.2.72A1,1,0,0,0,34.86,57a3.24,3.24,0,0,0,.94.91,10.76,10.76,0,0,0,2.68.86c.82.15.81.17,1.36,1a1.44,1.44,0,0,0,.47.45,5.08,5.08,0,0,0,.85.31c.06,0,.11.09.16.14s-.13.12-.19.12a3.77,3.77,0,0,0-1.61.41,1.16,1.16,0,0,1-.34.12A5,5,0,0,1,37.69,61c-.81-.23-1.64-.38-2.48-.55a5,5,0,0,1-1.11-.18,3,3,0,0,0-1.36-.22c-.53,0-1.06,0-1.58,0-.23,0-.47-.16-.67-.12a14.6,14.6,0,0,1-3,.39,1.67,1.67,0,0,0-.3.08c-1,.32-2,.6-2.95,1a12.21,12.21,0,0,0-3.62,2.27,1.62,1.62,0,0,1-.78.46,3,3,0,0,1-1.3-.17,3.54,3.54,0,0,0-1.31-.2,3,3,0,0,1-1.14-.12c-.18-.07-.45.06-.67.1l-.8.15a6.16,6.16,0,0,0-2.31.79c-.35.25-.75.42-1,.86a.77.77,0,0,1-.92.46,3.78,3.78,0,0,0-.81-.12c-1.32-.05-2.64-.11-4-.13a12.17,12.17,0,0,0-1.59.13c-.44,0-.86.14-1.29.21a2.56,2.56,0,0,0-.75.11,19,19,0,0,0-1.76,1,.69.69,0,0,0-.24.73c0,.23.19.27.4.34a10.74,10.74,0,0,1,1.11.49A3,3,0,0,0,2.79,69c.76,0,1.54,0,2.31,0a4,4,0,0,1,1.18-.08c.35.11.63.49.94.74,0,0,0,0,.06,0a4.53,4.53,0,0,0,3.68.47c.58-.14,1.18-.22,1.77-.34l1.52-.32c.3-.06.64-.24.88-.16a13,13,0,0,0,1.64.38,7.22,7.22,0,0,0,2.45.06c.89-.13,1.79,0,2.67-.2,1.09-.16,2.22-.11,3.33-.16a1.9,1.9,0,0,0,.29-.09,2.69,2.69,0,0,1,1.77.27,10.45,10.45,0,0,1,1.44,1.14,2,2,0,0,0,.51.37,9.75,9.75,0,0,0,2.07.42,2,2,0,0,0,.68,0c.72-.15,1.43.21,2.14,0,.23.24.59.11.84.39a1.84,1.84,0,0,0,.87.4c.6.13,1.2.19,1.81.27a4.46,4.46,0,0,1,1,.16,6.3,6.3,0,0,0,2.42.38c.64,0,1.28,0,1.92,0a4.77,4.77,0,0,0,1.79-.21,2.25,2.25,0,0,1,2,.08,3.31,3.31,0,0,0,2.91.27,23.55,23.55,0,0,0,3-1.15A19.51,19.51,0,0,0,55.9,70.2a.6.6,0,0,1,.59-.06,4,4,0,0,1,.67.29c1.07.65,2.34.62,3.49,1,.08,0,.22,0,.26,0,.22-.23.5-.08.74-.11.58-.1,1.17-.14,1.74-.28s.68-.19.89.44a1.7,1.7,0,0,0,.74,1,4.43,4.43,0,0,0,2.29.67,27.21,27.21,0,0,0,3.12-.43.52.52,0,0,1,.46.14,8.64,8.64,0,0,0,4.5,1.08,3.22,3.22,0,0,0,.93-.13,10,10,0,0,0,2.07-.58c.27-.14.45-.06.69.12a3.38,3.38,0,0,0,1.67.74,1.11,1.11,0,0,1,.52.17.87.87,0,0,0,.85.1,2.38,2.38,0,0,1,.79-.13A7.41,7.41,0,0,0,85.22,74a9.81,9.81,0,0,0,2.26-.91,2,2,0,0,1,2-.26,3.32,3.32,0,0,0,2.07,0c.44-.13.94-.43,1.44,0,0,0,.19,0,.26-.12.27-.25.51-.54.8-.78.12-.1.32-.23.45-.19a11.1,11.1,0,0,0,1.1.2,7.72,7.72,0,0,0,3-.09,15.88,15.88,0,0,0,2.11-.82,1.17,1.17,0,0,0,.73-.59,1,1,0,0,1,.78-.63,8.57,8.57,0,0,0,2.19-.79c.35-.21.7-.43,1.06-.63a1.17,1.17,0,0,0,.65-1.54c-.08-.39-.38-.84,0-1.25,0,0,0-.15-.07-.23a1,1,0,0,0-.18.09c-.08.06-.15.19-.18.19a.26.26,0,0,1,0-.45.6.6,0,0,1,.8,0,.82.82,0,0,0,1.09.1,1.92,1.92,0,0,1,1.43-.41c.57,0,1.14,0,1.71,0a9.28,9.28,0,0,0,3.42-.53,10.3,10.3,0,0,0,1.56-.54A6.08,6.08,0,0,0,118,61.73a3.83,3.83,0,0,0,.33-.46c.34-.76.67-1.52,1-2.27.08-.17.38-.4.44-.38.4.25.82,0,1.21.12s.82-.08.9.5c0,0,.15.07.22.07.53,0,1-.34,1.53-.33a3.08,3.08,0,0,0,1.59-.11c.41.27.73,0,1.1-.13.66-.27,1.29-.78,2.09-.41,0,0,.11-.07.17-.07a1,1,0,0,0,.64-.37.35.35,0,0,1,.46-.12,2.47,2.47,0,0,0,1.41.08c.52-.13,1-.38,1.52-.48.21,0,.31-.15.31.14a3.87,3.87,0,0,0,.48,1.91.32.32,0,0,1-.07.23c-.34.06-.67.11-1,.14s-.89,0-1.34.1a8.08,8.08,0,0,0-2.27.75c-.68.32-1.32.74-2,1.13A4.49,4.49,0,0,0,124.59,64a3.37,3.37,0,0,1-.19.38,1.7,1.7,0,0,0,.25,1.85,2,2,0,0,0,1.84.64c.6-.08,1.17-.36,1.76-.5s.9-.19,1.35-.28c.24,0,.36.08.27.29-.2.5.1,1,0,1.48,0,.07,0,.15.07.23A4.11,4.11,0,0,0,131.74,70a4.2,4.2,0,0,0,1.26.29,7.3,7.3,0,0,0,2.59.06,9.79,9.79,0,0,0,2.22-.83c.74-.33,1.47-.69,2.22-1,.41-.18.54-.13.54.24a2.53,2.53,0,0,0,2,2.59,12.2,12.2,0,0,0,3.88.65,12.83,12.83,0,0,0,1.52,0c.79-.12,1.57-.33,2.35-.52a11.84,11.84,0,0,0,5.75-3,6.37,6.37,0,0,1,1-.71c.49-.33.61-.32,1,0a4,4,0,0,0,2.4.91,8.66,8.66,0,0,0,2.86-.23A11.79,11.79,0,0,0,167,66.84c.09-.06.17-.17.26-.18.43,0,.58-.42.72-.71a1.15,1.15,0,0,0-.09-.82c-.06-.17-.17-.29,0-.46.14.25.27,0,.42,0a8.41,8.41,0,0,0,1.87-.24c.32,0,.51-.43.88-.28.22-.26.55,0,.79-.14a19.16,19.16,0,0,0,3.1-1.3,2.29,2.29,0,0,0,.48-3.45,5.17,5.17,0,0,0-3-1.28c-1.12-.18-1.22-.28-.65-1.24a.52.52,0,0,0,0-.18.82.82,0,0,0-.22,0c-.19,0-.42.12-.53,0a3.08,3.08,0,0,1-.81-.84,1.26,1.26,0,0,0-.77-.56,4.36,4.36,0,0,0-2-.06.55.55,0,0,1-.22,0,5.69,5.69,0,0,0-2.53.09,17.25,17.25,0,0,0-3,1.18.66.66,0,0,1-.78,0,3.21,3.21,0,0,0-2.38-.77,11.51,11.51,0,0,0-2.48.68,2.55,2.55,0,0,0-1.5,1.45.81.81,0,0,1-.19.31c-.1.14-.17.22-.41.1a13.84,13.84,0,0,0-1.33-.45,5.48,5.48,0,0,1-.6-.38,6.54,6.54,0,0,0,.51-.41c.23-.21.6-.42.64-.67.06-.44.3-.46.61-.52a1.6,1.6,0,0,0,.89-.44,4.34,4.34,0,0,0,.65-1c.34-.63.4-.63,1.12-.42a5.24,5.24,0,0,0,2.26.27c.87-.11,1.74-.24,2.61-.4a12,12,0,0,0,1.52-.45,9.84,9.84,0,0,0,1.85-1,5,5,0,0,0,1-1.06,2.22,2.22,0,0,0,.4-1c.09-.43.15-.54.57-.47a8.24,8.24,0,0,1,1.39.32,6.84,6.84,0,0,0,2.1.34c.21,0,.41.1.61.11a6,6,0,0,0,1.2,0c.71-.14,1.39-.41,2.1-.5a9.3,9.3,0,0,0,3.12-1.1c.51-.25,1.12-.56,1.07-1.33a.49.49,0,0,1,.21-.35,1.65,1.65,0,0,1,.86-.12,2.07,2.07,0,0,0,1,0,18,18,0,0,0,3.32-.93A4.25,4.25,0,0,0,186,44.52.78.78,0,0,0,186,43.68ZM167.43,66.26a1.1,1.1,0,0,0-.28.12l0-.09.18,0a.26.26,0,0,0,.14-.13C167.44,66.18,167.43,66.22,167.43,66.26Z"/><path id="fill1" d="M132.91,56.49c.12,0,.23-.1.35-.13a5.54,5.54,0,0,1,.57-.07c0,.23.16.39,0,.69a2,2,0,0,0,.18,2,.69.69,0,0,0,.64.37h.39c.19,0,.4,0,.36.29s0,.36-.33.39c-.72.08-1.43.26-2.15.37a5.19,5.19,0,0,1-.79,0,6.36,6.36,0,0,0-2.93.73,20.37,20.37,0,0,0-2.39,1.39,4.07,4.07,0,0,0-1.61,2.06c0,.08-.11.16-.1.23,0,.26-.17.63.14.77.13.06.43-.2.63-.35l3.59-2.79a.67.67,0,0,1,.23-.1c.16,0,.3-.33.5-.07,0,0,0,.14-.09.17s-.16.06-.22.11l-1,.88-1.76,1.63c-.32.29-.65.56-1,.84,0,0,0,.1-.08.14s.09,0,.12,0a1,1,0,0,0,.41-.11c.63-.52,1.23-1.07,1.86-1.58,1-.79,2-1.58,3-2.31.24-.18.56-.59,1-.22a5,5,0,0,0,.72-.48.59.59,0,0,1,.52-.17s.07.11.06.13l-2.1,2.1-.64.65-1,1-.09.14a.58.58,0,0,0,.18,0c.39,0,.62-.26.86-.48.44-.39.82-.85,1.27-1.24.73-.65,1.5-1.26,2.26-1.87a.7.7,0,0,1,.27-.14.22.22,0,0,1,.18,0,.19.19,0,0,1,0,.18,9.83,9.83,0,0,1-.79.92c-.38.38-.81.71-1.2,1.08s-1,1-1.49,1.49a1.19,1.19,0,0,0-.24.36s0,.15.08.22a.4.4,0,0,0,.16-.06,1.62,1.62,0,0,0,.19-.18,29.12,29.12,0,0,1,3.43-3c.18-.14.36-.29.55-.41a.84.84,0,0,1,.32-.08c0,.09-.06.21-.13.27-.33.29-.68.57-1,.86s-.37.38-.56.57l-.36.38-3,3.17a.6.6,0,0,0,0,.89s.11,0,.17,0c-.21-.24.07-.3.16-.42a4.4,4.4,0,0,1,.37-.38L135,63.94c.42-.4.86-.78,1.3-1.16a.57.57,0,0,1,.22-.07c0,.09,0,.21,0,.26a7.71,7.71,0,0,1-.71.69c-1.22,1-2,2.47-3.19,3.49a5,5,0,0,0-.38.5c-.26.28-.55.55-.82.83,0,0-.1.14-.08.16a.26.26,0,0,0,.17.12,1.75,1.75,0,0,0,1.45-.5c.63-.57,1.29-1.12,1.94-1.68a.81.81,0,0,0,.18-.19,8.45,8.45,0,0,1,1.64-1.89c.11-.13.18-.29.29-.41a.88.88,0,0,1,.3-.2c.05,0,.12,0,.18,0a.59.59,0,0,1-.06.14,3,3,0,0,1-.28.41,6.17,6.17,0,0,0-1.63,2,19.34,19.34,0,0,1-2.85,2.8,1.14,1.14,0,0,0-.15.16c.06,0,.13.1.19.1a2,2,0,0,0,1.72-.64c.25-.34.55-.66.83-1s.46-.47.69-.7A7.75,7.75,0,0,0,137.07,66c0-.07.13-.22.22,0s.1.21.06.26a12.82,12.82,0,0,1-.83,1.11c-.63.73-1.27,1.45-1.91,2.18a.49.49,0,0,0,0,.19,1.85,1.85,0,0,0,.23,0c.3-.07.51-.48.9-.17.05,0,.3-.11.41-.22A13.92,13.92,0,0,0,138.22,67a10.43,10.43,0,0,1,.74-.88c.42-.51.84-1,1.27-1.52a4.32,4.32,0,0,1,.61-.6c.08-.07.23,0,.35-.05-.05.07-.1.16-.16.23-.5.65-1,1.3-1.52,1.94-.33.42-.67.82-1,1.24s-.48.64-.7,1c0,.07,0,.2,0,.3s.22,0,.27-.06c.57-.58,1.12-1.17,1.69-1.74.24-.25.53-.47.77-.72s.39-.5.61-.73L143.48,63c.16-.15.31-.31.48-.44s.17,0,.25,0,0,.14-.09.18a8.54,8.54,0,0,0-.73.62,12.4,12.4,0,0,0-2.3,2.6,5,5,0,0,1-.69.9c-.38.45-.78.87-1.17,1.3l-.09.14c.07,0,.16,0,.22,0a7.1,7.1,0,0,1,1.33-.76c.89-.26,1.4-1,2.09-1.48.25-.18.39-.5.62-.72.68-.67,1.39-1.31,2.08-2a1.45,1.45,0,0,1,.26-.17c.09,0,.2-.22.29,0a.31.31,0,0,1-.08.23c-.77.83-1.55,1.64-2.33,2.47-.44.47-.87,1-1.3,1.44-.09.09-.17.22-.29.27a1,1,0,0,0-.66.77,1.7,1.7,0,0,0,.26,1.4,2.73,2.73,0,0,0,.81.63,4.39,4.39,0,0,0,1.39.43,2.55,2.55,0,0,0,1.19-.29,3.42,3.42,0,0,0,.79-.64,11.86,11.86,0,0,0,1.88-1.79c.71-1,1.73-1.79,2.47-2.79a13.48,13.48,0,0,0,1.2-1.49c0-.05.14-.07.22-.1s0,.2,0,.26c-.36.51-.73,1-1.12,1.52a4.07,4.07,0,0,1-.41.42,14.83,14.83,0,0,0-2.14,2.41,19,19,0,0,1-2,2.23,2.49,2.49,0,0,0-.35.5l.58-.08a.48.48,0,0,0,.18-.05c.73-.73,1.46-1.45,2.17-2.18.35-.36.66-.74,1-1.11.9-1,1.8-2.07,2.71-3.1.07-.09.23-.11.31-.19s.18-.06.23,0a.21.21,0,0,1-.05.18,3.33,3.33,0,0,1-.42.42,14.28,14.28,0,0,0-2,2.42c-.41.53-.82,1.07-1.25,1.59s-1,1.21-1.53,1.81a.78.78,0,0,0-.09.27l.27-.06a4.91,4.91,0,0,0,.66-.17,1.65,1.65,0,0,0,.59-.3c.85-.91,1.68-1.83,2.46-2.8.49-.61.95-1.24,1.41-1.87a12.22,12.22,0,0,0,.67-1.17c0-.07.17-.15.22-.13s.13.12,0,.28a7.19,7.19,0,0,1-.7,1.23,1.87,1.87,0,0,0-.41.75,2.55,2.55,0,0,1-.58.87c-.43.54-.87,1-1.3,1.58,0,0,0,.15,0,.22s.18,0,.22,0c.54-.56,1.06-1.14,1.59-1.71a1.85,1.85,0,0,0,.14-.14l2-2.14,2.19-2.32a2.23,2.23,0,0,1,.24-.19c0,.12,0,.29,0,.35-.32.33-.66.64-1,1-.13.11-.32.18-.39.32a5.67,5.67,0,0,1-1.22,1.61c-.25.25-.34.65-.69.83,0,0,0,.14,0,.17a.17.17,0,0,0,.17,0,1.66,1.66,0,0,0,.37-.38,4.57,4.57,0,0,1,1.24-1.39,9.63,9.63,0,0,0,1.08-1,3.17,3.17,0,0,1,.51-.37s.14,0,.21,0-.06.14-.12.18A6.07,6.07,0,0,0,156,65.44c-.55.93-1.46,1.5-2,2.38-.39.58-.9,1.08-1.34,1.63,0,0,0,.14,0,.22s.14,0,.18,0a10,10,0,0,0,1.5-1.13c.77-.8,1.41-1.72,2.18-2.52s1.21-1.5,1.88-2.19a9.39,9.39,0,0,0,.71-1c.06-.07.11-.25.29-.08s0,.18-.06.24c-.73,1.08-1.55,2.09-2.34,3.13-.23.3-.5.58-.74.88a.79.79,0,0,0-.06.22c.09,0,.22,0,.26,0,.45-.5.87-1,1.3-1.51.07-.08.13-.17.2-.24a36.86,36.86,0,0,0,3-3.52.54.54,0,0,1,.2-.17s.12,0,.18,0a.73.73,0,0,1-.05.09,26.66,26.66,0,0,1-1.76,2.58c-.55.58-1,1.25-1.5,1.88a.34.34,0,0,0,0,.31,1.51,1.51,0,0,0,.43.37c.41.26.41.24.67-.19a1,1,0,0,1,.23-.24c.65-.7,1.31-1.38,2-2.1.37-.4.67-.87,1-1.28a8.72,8.72,0,0,1,1-.88c.07-.06.23,0,.35,0a1.09,1.09,0,0,1-.11.27c-.79.93-1.65,1.8-2.36,2.79-.51.71-1.15,1.3-1.66,2-.14.2,0,.11.1.16a2.15,2.15,0,0,0,1.34.26.38.38,0,0,0,.17,0c-.07-.58.58-.58.78-1a6.34,6.34,0,0,1,1-1.17c.41-.49.81-1,1.22-1.47a1.94,1.94,0,0,1,.41-.27c0,.18.05.4,0,.53-.31.49-.66,1-1,1.43s-.86,1.14-1.31,1.7c-.14.17,0,.15.08.16a.44.44,0,0,0,.51-.28,3.11,3.11,0,0,1,.56-.76c.59-.68,1.19-1.36,1.8-2a1.33,1.33,0,0,1,.54-.24c.24-.06.5-.06.73-.14s.29-.22.29-.33a.62.62,0,0,1,.26-.5l1.11-1a13,13,0,0,0,1.87-2c.09-.12.21-.45.43-.24s.06.38-.11.57c-.38.43-.71.89-1.08,1.33s-.7.82-1.08,1.2a6.08,6.08,0,0,1-.69.54,1,1,0,0,0-.15.21,1.24,1.24,0,0,0,.27,0,.81.81,0,0,0,.47-.3,4.07,4.07,0,0,1,1-.85,8.32,8.32,0,0,0,2-2.14l.09-.09c.17-.12.47-.36.49-.33.22.23,0,.5-.08.68-.2.34-.53.61-.76.95-.11.16-.43.34-.16.62s.47,0,.68-.23c.42-.45.87-.87,1.3-1.31A6.15,6.15,0,0,1,174,59.8c.06,0,.09-.13.14-.13a3.15,3.15,0,0,1,.44,0c-.08.07-.2.13-.24.22-.31.72-1.09.93-1.56,1.48s-1,1.07-1.57,1.6a1.24,1.24,0,0,0-.14.18c.11,0,.22.06.31,0,.6-.21,1.19-.42,1.78-.65a3.66,3.66,0,0,0,1.71-1.12,1.34,1.34,0,0,0-.37-2.06,8.34,8.34,0,0,0-2.24-.65,9.65,9.65,0,0,1-1.21-.27,1.54,1.54,0,0,1-.52-.47s.05-.21.1-.31.1-.11.09-.12c-.27-.37-.55-.75-.84-1.11a1.86,1.86,0,0,0-1.39-.62c-.33,0-.67-.08-1-.13a3,3,0,0,0-.94,0,7.36,7.36,0,0,0-2.77.63,14.52,14.52,0,0,1-1.57.67,4.22,4.22,0,0,0-.61.28c-.49.3-.55.3-1-.06a5.13,5.13,0,0,0-.8-.61,3.53,3.53,0,0,0-2.52-.09A3.71,3.71,0,0,0,155,58.27a3.32,3.32,0,0,0-.27.68c-.07.22-.12.43-.43.22a29.92,29.92,0,0,0-3-1.31.62.62,0,0,0-.7.1,10.94,10.94,0,0,1-2.42,1c-.16.08-.38.08-.52.18s-.38.09-.55-.09-.22-.37.11-.54a20.48,20.48,0,0,1,3.1-1.29,8.66,8.66,0,0,0,1.87-1s0-.23,0-.25a1,1,0,0,0-.48-.11.64.64,0,0,1-.5-.23c-.22-.19-.08-.34.07-.4a2,2,0,0,1,.72-.16c.35,0,.71,0,1.06,0a1.28,1.28,0,0,0,1.22-1,1.26,1.26,0,0,1,.18-.32c.09-.14.24-.27.27-.42a.58.58,0,0,1,.63-.53.6.6,0,0,0,.37-.2c.86-.85,1.72-1.7,2.57-2.57.1-.11.11-.3.2-.43s.21-.21.3-.2a.37.37,0,0,1,.21.27,1.07,1.07,0,0,1-.16.59A7.28,7.28,0,0,1,158,51c-.19.17-.4.33-.58.51s-.56.64-.84,1c-.12.15-.22.31-.33.46l-.06.14c.06,0,.14,0,.17,0a3.43,3.43,0,0,0,.33-.33c.8-.79,1.59-1.59,2.39-2.37a6.32,6.32,0,0,1,.74-.61.38.38,0,0,1,.25-.06,1,1,0,0,1,.16.39c0,.06-.1.13-.16.2-.73.77-1.45,1.55-2.19,2.32-.19.19-.43.34-.64.52,0,0-.06.15-.09.23s.26.1.31.06c.46-.39.92-.79,1.35-1.21s.74-.84,1.12-1.25l1.31-1.31a1,1,0,0,1,.29-.25c.12,0,.31-.08.3.19a.6.6,0,0,1-.19.46c-.77.84-1.53,1.69-2.29,2.55-.13.15-.24.33-.38.48a1.41,1.41,0,0,1-.31.21,1.58,1.58,0,0,0,.43.05.49.49,0,0,0,.32-.16c.7-.81,1.37-1.64,2.07-2.44a4.89,4.89,0,0,1,.78-.65.3.3,0,0,1,.26.08.36.36,0,0,1,0,.55c-.47.5-.92,1-1.38,1.55l-.56.56-.29.23a1.62,1.62,0,0,0,.44,0,2.28,2.28,0,0,0,1.11-.66c.76-.79,1.62-1.49,2.44-2.21a.56.56,0,0,1,.28-.13c.05,0,.14,0,.16,0a.17.17,0,0,1,0,.17c-.1.12-.21.22-.32.33l-1.77,1.77a.67.67,0,0,0-.09.14c.06,0,.14,0,.18,0a6.24,6.24,0,0,0,2.39-2,1.11,1.11,0,0,0,.17-.39c0-.28-.1-.66,0-.84a12.08,12.08,0,0,1,1.09-1.41c.91-.87,1.75-1.82,2.63-2.73a.37.37,0,0,1,.31-.1c.19.06.1.2,0,.33a3.55,3.55,0,0,1-.23.43,8,8,0,0,1-.65.79c-.69.7-1.39,1.39-2.08,2.1,0,0-.09.14-.07.15s.14.12.2.1a.77.77,0,0,0,.31-.19c.69-.76,1.37-1.54,2.06-2.31.31-.34.64-.66,1-1a.78.78,0,0,1,.38-.2,1.28,1.28,0,0,1,.42.07c-.09.1-.17.22-.26.32a9.33,9.33,0,0,1-.68.73c-.73.65-1.23,1.51-2,2.14,0,.05,0,.17-.07.26a.74.74,0,0,0,.26-.1c.43-.41.86-.81,1.27-1.24s1.09-1.17,1.63-1.76a5.84,5.84,0,0,1,.51-.49c.08-.06.24,0,.36,0s0,.24,0,.35a.77.77,0,0,1-.14.27c-.35.36-.72.7-1.06,1.07-.59.66-1.15,1.33-1.73,2-.14.15-.34.24-.5.38a.2.2,0,0,0-.06.16.17.17,0,0,0,.14.09,1.36,1.36,0,0,0,.59-.16c.39-.34.75-.73,1.12-1.1l2.33-2.32a.3.3,0,0,1,.21-.1,4,4,0,0,1,.48.07,2.25,2.25,0,0,1-.24.36,13.37,13.37,0,0,0-1.54,1.65A12.37,12.37,0,0,1,170,49.16a3.43,3.43,0,0,0-.33.33.39.39,0,0,0-.06.29c0,.06.16.11.25.11a9.46,9.46,0,0,0,3.08-.36c.6-.2,1.25-.27,1.87-.44a7.32,7.32,0,0,0,2.46-1.2c.13-.1.13-.53,0-.75s.05-.36.21-.41a3.58,3.58,0,0,1,.86-.13.85.85,0,0,0,.82-.43,10.06,10.06,0,0,1,1-1.37,7,7,0,0,1,.95-.72c.14-.12.34-.22.43-.07a.53.53,0,0,1-.09.51c-.36.42-.77.79-1.15,1.18a3.92,3.92,0,0,0-.37.51c-.15.21,0,.25.16.25a.62.62,0,0,0,.63-.38,1.15,1.15,0,0,1,.28-.41c.7-.68,1.42-1.34,2.13-2a1,1,0,0,1,.71-.37s.08-.07.12-.11-.1-.14-.15-.15c-.69-.05-1.37-.11-2.06-.13a6.53,6.53,0,0,0-.87.13,1,1,0,0,1-.95-.41,4.31,4.31,0,0,0-2.36-1.46,3.67,3.67,0,0,0-1.92.07A3.09,3.09,0,0,0,174,42.76a7,7,0,0,0-.55,1.09c-.1.23-.22.32-.41.19-.47-.3-1.06-.37-1.4-.95a2.29,2.29,0,0,0-1.94-1,20.4,20.4,0,0,0-2.34-.25,6.24,6.24,0,0,0-2.64.66,3.35,3.35,0,0,0-.85.63c-.1.1-.21.3-.36.1s-.27-.16-.24-.46a3.07,3.07,0,0,1,.7-1.42c.65-.94,1.42-1.79,2.12-2.7a1.29,1.29,0,0,0,.3-.66,4.2,4.2,0,0,0-.78-3,4.73,4.73,0,0,0-1.83-1.42,5.22,5.22,0,0,0-2.67-.4c-.38,0-.76.08-1.13.14a.49.49,0,0,0-.3.21c-.49.74-1,1.49-1.47,2.22-.1.14-.2.41-.5.29s-.4-.4-.19-.63a35.47,35.47,0,0,1,2.32-2.87c.44-.39.84-.83,1.26-1.25a1.5,1.5,0,0,0,.07-1.7c-.16-.24-.3-.49-.47-.73a1.65,1.65,0,0,0-2.42-.4c-.7.41-1.31,1-2,1.43s-1.11.7-1.67,1.05l-.7.4a2.18,2.18,0,0,1-.27.11c0-.08.07-.18.14-.23.51-.41,1-.81,1.55-1.21.8-.61,1.58-1.25,2.41-1.82a17.06,17.06,0,0,0,2.41-2c.48-.47,1-.87,1.54-1.31a.48.48,0,0,0,.09-.16l.36-.61c-.34-.08-.4.26-.59.4-.7.5-1.38,1-2.08,1.53s-1.47,1.1-2.25,1.58a18.2,18.2,0,0,1-2.5,1.59,2.58,2.58,0,0,1-.67.14c-.06,0-.13-.07-.19-.11a1.06,1.06,0,0,1,.15-.15c.51-.31,1-.59,1.53-.93.91-.63,1.8-1.28,2.69-1.93s1.74-1.25,2.57-1.92c.32-.26.71-.51.75-1,0-.1,0-.19,0-.28s-.18.06-.27.11c-.24.15-.49.3-.73.47-.92.65-1.79,1.38-2.76,1.93-.74.41-1.26,1.05-2,1.47a.72.72,0,0,1-.27.05c0-.09,0-.2.11-.26.41-.39.82-.76,1.25-1.12s.76-.6,1.14-.9.93-.74,1.39-1.1a8.47,8.47,0,0,0,2.09-2c.08-.12.2-.47.5-.19,0-.05.11-.12.1-.14s-.13-.3-.23-.34a.53.53,0,0,0-.58.19,10.84,10.84,0,0,1-.82.84c-.51.47-1,.95-1.54,1.39-.81.68-1.65,1.32-2.49,2-.09.07-.26,0-.4,0,0-.13,0-.31.13-.4.27-.26.57-.5.87-.75.46-.38.93-.74,1.38-1.12.21-.18.39-.4.6-.6l1.49-1.35c.17-.16.15-.18-.09-.23s-.15-.3-.12-.49a2.4,2.4,0,0,0,0-.28c-.09.05-.21.06-.27.13-.27.3-.51.63-.8.92s-.75.64-1.1,1c-.64.61-1.25,1.24-1.88,1.86-.11.1-.2.32-.41.1a.31.31,0,0,1,0-.5l2.62-2.61a.74.74,0,0,1,.22-.1l.32-.18-.33-.09a.59.59,0,0,1-.44-.73c.17-1-.14-1.29-.88-1.49a7.35,7.35,0,0,0-3.23-.11,4.67,4.67,0,0,0-3.43,2.37,1.72,1.72,0,0,0-.28,1.51,5.55,5.55,0,0,1,.15,1.59.49.49,0,0,1-.16.38c-.15.13-.29,0-.45-.1a4.69,4.69,0,0,0-2.11-.77,4.8,4.8,0,0,0-1.4-.12,20.08,20.08,0,0,0-2.29.34,10.28,10.28,0,0,1-1.6.29,3.12,3.12,0,0,0-2.06,1.21,4.67,4.67,0,0,0-1,1.69c-.08.3-.2.58-.25.88a3.37,3.37,0,0,0,.29,2.14.65.65,0,0,1,.08.42c0,.16-.11.34-.4.2a15,15,0,0,0-2.25-.92,3.94,3.94,0,0,0-2.14-.24,9,9,0,0,0-1.6.44c-.75.35-.89.66-.66,1.44a8.45,8.45,0,0,1,.19.84.26.26,0,0,1-.13.22,1.45,1.45,0,0,1-.72,0c-.62-.29-1.19,0-1.78.1a2.42,2.42,0,0,0-1.45,1.07,2.07,2.07,0,0,0-.34,1.86,3.62,3.62,0,0,0,.67,1.64c.08.09,0,.31,0,.48-.21,0-.5.05-.61-.06-.54-.53-1.31-.47-1.91-.82a.35.35,0,0,0-.3,0c-.4.32-1,.42-1.11,1-.07.35-.41.25-.65.24s-.18-.13-.14-.45a1.09,1.09,0,0,0-.48-1,3.41,3.41,0,0,0-1-.6.68.68,0,0,0-.68.06A22,22,0,0,1,120,37.16a.61.61,0,0,1-.48,0c-.12-.05-.27-.19-.08-.36a6.49,6.49,0,0,1,2-1.49,5.16,5.16,0,0,0,1.88-.86,13.47,13.47,0,0,0,2.13-1.87c.48-.7,1.11-1.3,1.66-2,.19-.24.34-.52.51-.78a.33.33,0,0,0,0-.14c-.06,0-.14,0-.17,0-.17.19-.3.41-.47.6a24.17,24.17,0,0,1-2.18,1.87c-.39.33-.82.62-1.18,1a27.76,27.76,0,0,1-3.42,2.6c-.4.29-.81.58-1.23.84a2.75,2.75,0,0,1-.79.33c-.1,0-.25-.1-.38-.16a1.16,1.16,0,0,1,.27-.18,9.46,9.46,0,0,0,3.23-1.92A25.26,25.26,0,0,0,124,32.36c1-1,2-2,3-3,.28.07.36-.58.74-.21,0,0,.16-.05.18-.1a5.34,5.34,0,0,0,.18-.52,3,3,0,0,0,0-2.43,2.79,2.79,0,0,0-.54-.7c-.06-.06-.28,0-.37,0s-.35.33-.53.49c-1.18,1.08-2.54,2-3.76,3a17.7,17.7,0,0,1-2,1.57c-.45.28-.93.5-1.4.75a.52.52,0,0,1-.25,0,1.42,1.42,0,0,1-.25-.12,1.42,1.42,0,0,1,.23-.14,7.88,7.88,0,0,0,2.3-1.29c.76-.6,1.43-1.31,2.19-1.9a25.39,25.39,0,0,0,2.5-2.25,1.94,1.94,0,0,0,.33-.51,4.38,4.38,0,0,1,.76-.91c0-.05.12-.05.16-.09.17-.21.33-.43.5-.65-.39-.15-.45.25-.63.41-.42.35-.77.78-1.18,1.14s-1.1.94-1.66,1.4-1,.78-1.43,1.17a24.4,24.4,0,0,1-2.93,2.31,12,12,0,0,1-1.43.86c-.06,0-.15,0-.22,0s.07-.17.14-.21a20.71,20.71,0,0,0,3.32-2.34,31.17,31.17,0,0,0,2.35-2.1c.81-.79,1.64-1.56,2.47-2.33a6.86,6.86,0,0,0,1.16-1.57c.28-.45.34-.48.82-.2a.33.33,0,0,0,.14,0s0-.08,0-.12-.1-.32-.13-.48-.18-.37-.4-.2c-.42.32-.82.66-1.24,1l-2.67,2-2,1.5a.61.61,0,0,1-.24.08,20.37,20.37,0,0,1,1.55-1.36c.34-.27.66-.54,1-.83.56-.54,1.21-1,1.81-1.51s1.16-1,1.73-1.54c.11-.1.06-.76-.06-.8a.55.55,0,0,0-.59.12,26.89,26.89,0,0,1-3.16,2.55c-.56.4-1.05.92-1.62,1.35s-1.29,1-2,1.44a19.78,19.78,0,0,1-1.94,1.23,2.2,2.2,0,0,1-.73.13s-.1-.07-.1-.12a.18.18,0,0,1,.09-.13,7.41,7.41,0,0,0,2.41-1.22,29.87,29.87,0,0,0,3.12-2.49c.63-.57,1.3-1.12,1.94-1.69s1.15-1.05,1.71-1.59c.1-.09.35-.17.16-.4a.44.44,0,0,0-.63,0c-.27.21-.52.43-.79.65-1.06.84-2.16,1.63-3.16,2.53a25.71,25.71,0,0,1-3.06,2.36,9,9,0,0,1-1.41.74,2,2,0,0,1-.69.07s-.09-.08-.09-.13.07-.12.11-.12c1,0,1.67-.67,2.42-1.16s1.27-.88,1.88-1.36c.41-.31.78-.67,1.16-1L126,18.89c.21-.19.41-.37.35-.71s.1-.35.34-.36.24-.09.36-.1.29,0,.34,0c.41.5,1.06.77,1.3,1.42s.53,1.13.72,1.75a2.56,2.56,0,0,1-.49,2.28,8.36,8.36,0,0,1-.93,1.2c-.19.2-.11.26,0,.43a6,6,0,0,1,.87,1.42,3.93,3.93,0,0,1,.08,1.89,4.57,4.57,0,0,1-.75,2c-.39.56-.74,1.16-1.18,1.69a25.63,25.63,0,0,1-1.81,2c-.46.44-1,.82-1.47,1.22-.21.16-.12.17,0,.29a14.24,14.24,0,0,1,1.17,1c.13.13.21.15.37,0a1.82,1.82,0,0,1,1.48-.54,6.78,6.78,0,0,1,.88.25,1,1,0,0,0,.24,0,.89.89,0,0,0,0-.23,3.22,3.22,0,0,1,.07-2.58,2.51,2.51,0,0,1,1.47-1.33c.21-.07.41-.17.62-.26a3.29,3.29,0,0,1,1.67-.26c.2,0,.26-.05.25-.26s0-.66,0-1c0-.52.14-.69.65-.88a9,9,0,0,0,1-.42,2.16,2.16,0,0,1,1-.24c.25,0,.49-.12.74-.12a6.13,6.13,0,0,1,3.21.83c.2.12.17,0,.16-.09a3.93,3.93,0,0,1-.12-.74,5.88,5.88,0,0,1,1-3.21,4.27,4.27,0,0,1,2.12-1.84,13.2,13.2,0,0,1,1.37-.37,19.91,19.91,0,0,1,2-.37,8.34,8.34,0,0,1,3-.05,10.88,10.88,0,0,1,1.49.39c.09,0,.21,0,.31,0a2.61,2.61,0,0,1-.06-.27,3.17,3.17,0,0,1,.78-2.95,6.61,6.61,0,0,1,1.66-1.41,6.08,6.08,0,0,1,2.92-.76c.46,0,.92,0,1.38,0a3.3,3.3,0,0,1,1.35.25c.88.34,1.2.69,1.24,1.57,0,.24,0,.36.32.2a2.56,2.56,0,0,1,2.41.36c1.26.69,1.34,1.9,1.35,3.11a1.67,1.67,0,0,1-.33.85,21.9,21.9,0,0,1-1.4,1.92,11.07,11.07,0,0,1-1.29,1.17,1.87,1.87,0,0,1-.39.22,1,1,0,0,1,.44.12,10.49,10.49,0,0,1,1,.88,3.93,3.93,0,0,1,.58.82,1.94,1.94,0,0,1,.09,2.05c-.19.34-.4.67-.6,1a.4.4,0,0,0-.06.16.41.41,0,0,0,.22.09,5.24,5.24,0,0,1,5.59,4A4.68,4.68,0,0,1,167,38.8a4.27,4.27,0,0,1-1.81,2.47c-.4,0-.53.4-.87.47,0,0,0,.11,0,.17a.32.32,0,0,0,.14,0c.48-.17.95-.38,1.44-.5a5.69,5.69,0,0,1,2.84-.09,7.36,7.36,0,0,0,1.26.14,2.47,2.47,0,0,1,2.16,1.16c.37.63.86.58,1.06-.13a2.38,2.38,0,0,1,.86-1.13,2.84,2.84,0,0,1,2.1-1c1.5-.47,2.64.33,3.79,1.08a1.38,1.38,0,0,1,.31.4.69.69,0,0,0,.88.35,2.61,2.61,0,0,1,1.61,0c.15.05.37.23.55,0a.08.08,0,0,1,.07,0c.94.34,2.07.37,2.62,1.44a.8.8,0,0,1,0,.84,4.25,4.25,0,0,1-2.39,1.69,18.91,18.91,0,0,1-3.31.93,1.9,1.9,0,0,1-1,0,1.53,1.53,0,0,0-.85.13.44.44,0,0,0-.22.34c.05.78-.56,1.08-1.08,1.34A9.37,9.37,0,0,1,174,50c-.71.09-1.39.36-2.1.5a5.37,5.37,0,0,1-1.2,0c-.2,0-.4-.09-.61-.1a6.3,6.3,0,0,1-2.1-.35,8.19,8.19,0,0,0-1.39-.3c-.43-.07-.48,0-.57.46a2.08,2.08,0,0,1-.41,1,4.35,4.35,0,0,1-1,1.06,9.84,9.84,0,0,1-1.85,1,11.66,11.66,0,0,1-1.53.45c-.86.17-1.73.29-2.6.4a5.42,5.42,0,0,1-2.26-.27c-.72-.22-.78-.21-1.12.42a4.57,4.57,0,0,1-.65,1,1.61,1.61,0,0,1-.88.44c-.32.06-.56.09-.62.53,0,.24-.41.45-.64.66a6.54,6.54,0,0,1-.51.41,3.19,3.19,0,0,0,.6.38,13.84,13.84,0,0,1,1.33.45c.23.12.31,0,.42-.09a1.11,1.11,0,0,0,.18-.32,2.52,2.52,0,0,1,1.5-1.45,11.67,11.67,0,0,1,2.48-.68,3.17,3.17,0,0,1,2.37.77.71.71,0,0,0,.8.06,15.49,15.49,0,0,1,3-1.19,5.69,5.69,0,0,1,2.53-.09.55.55,0,0,0,.22,0,4.23,4.23,0,0,1,2,.06,1.24,1.24,0,0,1,.77.56,3.08,3.08,0,0,0,.81.84c.1.08.35,0,.52,0a.9.9,0,0,1,.23,0,.53.53,0,0,1,0,.18c-.56,1-.45,1.06.66,1.23a5.25,5.25,0,0,1,3,1.29,2.29,2.29,0,0,1-.48,3.45,20.85,20.85,0,0,1-3.09,1.3c-.25.1-.57-.12-.8.14-.37-.16-.56.24-.88.28a8.41,8.41,0,0,1-1.87.24c-.14,0-.28.26-.42,0-.13.17,0,.29,0,.46A1.23,1.23,0,0,1,168,66c-.14.28-.28.67-.73.7-.08,0-.16.12-.25.18a11.79,11.79,0,0,1-3.65,1.55,8.42,8.42,0,0,1-2.86.22,3.89,3.89,0,0,1-2.4-.89c-.42-.36-.54-.37-1,0a6,6,0,0,0-1,.7,11.67,11.67,0,0,1-3.32,2.21,10.74,10.74,0,0,1-2.44.8c-.78.19-1.56.39-2.35.52a12.83,12.83,0,0,1-1.52,0,12.2,12.2,0,0,1-3.88-.65,2.53,2.53,0,0,1-2-2.59c0-.37-.13-.42-.54-.24-.75.34-1.47.7-2.22,1a9,9,0,0,1-2.22.84,7.29,7.29,0,0,1-2.59-.06,3.46,3.46,0,0,1-3-2.13c0-.08-.09-.16-.08-.23.09-.5-.21-1,0-1.48.08-.21,0-.33-.27-.29-.45.09-.9.16-1.34.27a14.73,14.73,0,0,1-1.77.51,2,2,0,0,1-1.83-.65,1.68,1.68,0,0,1-.26-1.84c.06-.13.15-.25.2-.38a4.43,4.43,0,0,1,2.15-2.26c.65-.39,1.29-.81,2-1.13A7.75,7.75,0,0,1,131,59.9c.45-.07.89-.08,1.34-.11s.67-.08,1-.14a.28.28,0,0,0,.06-.23,4.22,4.22,0,0,1-.48-1.91c0-.3-.09-.19-.3-.15-.53.11-1,.36-1.52.49a2.47,2.47,0,0,1-1.41-.08c-.26-.08-.34,0-.47.11a.89.89,0,0,1-.63.38c-.06,0-.13.09-.17.07-.8-.37-1.43.14-2.1.41-.36.15-.69.4-1.09.13a3.08,3.08,0,0,1-1.59.11c-.55,0-1,.3-1.52.33-.08,0-.22,0-.23-.07-.08-.57-.57-.41-.9-.5s-.81.13-1.21-.11c-.06,0-.36.2-.44.36-.36.75-.69,1.52-1,2.28a3.46,3.46,0,0,1-.32.46,6.16,6.16,0,0,1-2.25,2.14,10,10,0,0,1-1.57.54,9.16,9.16,0,0,1-3.41.53c-.57,0-1.14,0-1.71,0a1.88,1.88,0,0,0-1.42.41.83.83,0,0,1-1.1-.1.61.61,0,0,0-.8,0,.26.26,0,0,0,0,.46s.12-.13.19-.19a1,1,0,0,1,.18-.09c0,.08.09.2.06.23-.38.41-.09.85,0,1.25a1.17,1.17,0,0,1-.66,1.54l-1.06.63a8.36,8.36,0,0,1-2.18.79,1,1,0,0,0-.79.62,1.08,1.08,0,0,1-.72.6,17.38,17.38,0,0,1-2.11.82,7.72,7.72,0,0,1-3,.09,10.59,10.59,0,0,1-1.1-.2c-.12,0-.33.08-.45.19-.28.24-.53.53-.8.78-.07.07-.23.14-.26.12-.5-.39-1-.08-1.44,0a3.28,3.28,0,0,1-2.06,0,2.06,2.06,0,0,0-2,.26,9.39,9.39,0,0,1-2.26.91,7.14,7.14,0,0,1-2.31.18,3.18,3.18,0,0,0-.8.13.78.78,0,0,1-.84-.09.92.92,0,0,0-.52-.17,3.46,3.46,0,0,1-1.68-.74.53.53,0,0,0-.68-.11,10.39,10.39,0,0,1-2.07.57,3.67,3.67,0,0,1-.93.14,8.72,8.72,0,0,1-4.5-1.09.51.51,0,0,0-.46-.14,25.15,25.15,0,0,1-3.12.42A4.35,4.35,0,0,1,65,72.44a1.7,1.7,0,0,1-.74-1c-.21-.63-.24-.6-.89-.44s-1.16.18-1.74.27c-.24,0-.52-.11-.74.13,0,0-.18,0-.26,0-1.15-.35-2.42-.32-3.49-1a4,4,0,0,0-.67-.29.56.56,0,0,0-.59.07,20.17,20.17,0,0,1-3.23,1.91,25.24,25.24,0,0,1-3,1.16A3.31,3.31,0,0,1,46.8,73a2.31,2.31,0,0,0-2-.07,5,5,0,0,1-1.79.21c-.64,0-1.28,0-1.91,0a6.23,6.23,0,0,1-2.42-.37,4.65,4.65,0,0,0-1-.16c-.61-.09-1.21-.15-1.81-.27a1.72,1.72,0,0,1-.87-.41c-.25-.27-.62-.15-.85-.37-.7.21-1.41-.13-2.12,0a2,2,0,0,1-.69,0,9.06,9.06,0,0,1-2.07-.42,2,2,0,0,1-.51-.36,10.37,10.37,0,0,0-1.44-1.15,2.69,2.69,0,0,0-1.77-.27c-.1,0-.19.09-.29.09a28.35,28.35,0,0,0-3.33.17c-.89.14-1.78.06-2.67.19a7.22,7.22,0,0,1-2.45-.06,9.9,9.9,0,0,1-1.63-.38c-.25-.09-.59.1-.89.16l-1.52.32c-.59.12-1.19.19-1.77.34a4.51,4.51,0,0,1-3.67-.47s-.06,0-.07,0c-.31-.26-.58-.64-.94-.75A4,4,0,0,0,5.1,69c-.77,0-1.54,0-2.31,0a3,3,0,0,1-1.27-.29c-.38-.15-.73-.38-1.12-.5-.2-.06-.36-.1-.39-.33a.73.73,0,0,1,.23-.73c.58-.36,1.16-.7,1.77-1a2.56,2.56,0,0,1,.75-.11c.43-.07.86-.16,1.29-.21a10.65,10.65,0,0,1,1.59-.13c1.33,0,2.65.07,4,.13a3.8,3.8,0,0,1,.81.13.77.77,0,0,0,.91-.47,2.49,2.49,0,0,1,1-.86,6.34,6.34,0,0,1,2.31-.79l.8-.15c.22,0,.49-.17.67-.09a3.16,3.16,0,0,0,1.14.11,3.43,3.43,0,0,1,1.3.2,2.89,2.89,0,0,0,1.3.17,1.6,1.6,0,0,0,.79-.46,12.34,12.34,0,0,1,3.62-2.27c1-.39,2-.67,2.95-1a1.11,1.11,0,0,1,.3-.08,14.6,14.6,0,0,0,3-.39c.2,0,.44.11.67.12.52,0,1.05,0,1.58,0a3.07,3.07,0,0,1,1.36.22,5,5,0,0,0,1.11.18c.83.17,1.67.32,2.48.55a5.1,5.1,0,0,0,1.49.24,1.16,1.16,0,0,0,.34-.12,3.77,3.77,0,0,1,1.61-.41c.06,0,.13-.07.19-.11a.75.75,0,0,0-.16-.15,6.8,6.8,0,0,1-.86-.31,1.32,1.32,0,0,1-.46-.45c-.55-.79-.54-.81-1.36-.95a10.78,10.78,0,0,1-2.68-.87,3.24,3.24,0,0,1-.94-.91,1,1,0,0,1-.15-1.22c.1-.2,0-.48.2-.71a3.39,3.39,0,0,1,1.55-1,15.53,15.53,0,0,1,2.34-.43,28.34,28.34,0,0,1,3.05-.1,7,7,0,0,1,1.81.25,10.56,10.56,0,0,0,1.26.14l.8.14s1.14.17,1.16.2-.71.45-.74.47c-.6.49-1.74-.21-2.41-.31a5.34,5.34,0,0,0-.8-.13c-1.38,0-2.76,0-4.14,0a11,11,0,0,0-1.72.29A2.09,2.09,0,0,0,35.28,56c0,.12,0,.27.08.4a1.87,1.87,0,0,0,1.29,1.13,19,19,0,0,0,2.1.67c.32.09.68.06,1,.15a.58.58,0,0,1,.5.59.55.55,0,0,0,.35.57c.86.33,1.64.94,2.64.82a.82.82,0,0,1,.47.13.43.43,0,0,1,.11.31.27.27,0,0,1-.16.2,2.73,2.73,0,0,1-.8.13,9.12,9.12,0,0,0-2.33.28,1,1,0,0,0-.34.13,2.85,2.85,0,0,1-2.59.18c-.61-.18-1.25-.26-1.85-.46a7,7,0,0,0-1.31-.33,8.07,8.07,0,0,0-2.58-.3,4.48,4.48,0,0,1-1.55,0,3.86,3.86,0,0,0-1.24.15,2.07,2.07,0,0,1-.42.08,8.61,8.61,0,0,0-2.47.44,18.56,18.56,0,0,0-2.35,1A10.84,10.84,0,0,0,21.23,64c-.27.2-.5.46-.79.64a2,2,0,0,1-1.42.13,13,13,0,0,0-2.16-.35,2.89,2.89,0,0,1-1-.09,2.27,2.27,0,0,0-1,.15c-.44.1-.87.24-1.31.34a2.62,2.62,0,0,0-1.5,1,2.63,2.63,0,0,1-.79.77,1.68,1.68,0,0,1-.87.05c-.45-.05-.9-.21-1.35-.22-1.5,0-3-.07-4.49,0a6.26,6.26,0,0,0-3.24.77c-.4.26-.46.34-.1.54a3.52,3.52,0,0,0,2.12.79,12.83,12.83,0,0,1,1.52,0,4.21,4.21,0,0,0,1.61-.25.71.71,0,0,1,.85.31,2.46,2.46,0,0,0,2.1,1.12,7.6,7.6,0,0,0,2.87-.37c.56-.17,1.16-.17,1.73-.29.38-.08.74-.24,1.12-.33a.89.89,0,0,1,.85.07,1.44,1.44,0,0,0,.74.26,7.1,7.1,0,0,0,2,0A4.8,4.8,0,0,1,20.42,69a5.68,5.68,0,0,0,1.41-.12c.51,0,1,.14,1.53-.12.07,0,.18,0,.27,0a29.79,29.79,0,0,0,3.4-.11,1.09,1.09,0,0,1,.66.29c.43.35.82.77,1.26,1.1a4.15,4.15,0,0,0,1.82.72,11.56,11.56,0,0,1,1.94.24c.11,0,.31.08.3-.19s.15-.35.38-.33c.66.08,1.09-.38,1.55-.7.73-.51,1.38-1.13,2.09-1.67s1.65-1.22,2.48-1.82a9,9,0,0,1,.82-.55c.07,0,.21,0,.31,0a1,1,0,0,1-.15.19L39.1,67.05c-.24.18-.48.34-.71.53l-1.58,1.27-2.18,1.76c-.08.06-.18.09-.26.16s0,.12,0,.18l.14,0,1.29.12a2.26,2.26,0,0,0,.45,0,7.35,7.35,0,0,0,3-1.59c.49-.35,1-.72,1.46-1.08.15-.12.28-.27.42-.4.62-.62,1.23-1.25,1.86-1.86a1.26,1.26,0,0,1,.36-.24s.17,0,.17,0a.25.25,0,0,1,0,.21c-.55.57-1.11,1.12-1.67,1.68l-.18.19a23.57,23.57,0,0,1-3.34,2.63,14.61,14.61,0,0,1-1.26.77,4.64,4.64,0,0,1-.53.16,1.43,1.43,0,0,0-.22.15c.07,0,.13.11.2.1a12.53,12.53,0,0,1,3.21.53,3.53,3.53,0,0,0,.46,0c.42,0,.86.06,1.27.08a16.54,16.54,0,0,0,1.87.06,11.46,11.46,0,0,0,1.84-.34c.26-.06.51-.15.78-.19.52-.09.93.28,1.41.41.22.07.41.34.63.36a3.71,3.71,0,0,0,1.52,0c.6-.2,1.2-.39,1.79-.61.17-.07.44-.22.44-.32,0-.33.23-.35.4-.47.62-.41,1.26-.81,1.86-1.25,1-.75,2-1.54,3-2.31.05,0,.14,0,.17-.07.93-1.14,2.34-1.77,3.18-3,0-.06.14-.07.21-.1l.14-.1c0,.06,0,.13,0,.18a.68.68,0,0,1-.13.27l-1.3,1.3c-.36.34-.74.65-1.11,1s-1,.88-1.44,1.3-.93.74-1.4,1.1c-.28.21-.57.41-.85.64,0,0-.06.14-.09.22a1.06,1.06,0,0,1,.19-.06c.54-.13.83-.63,1.28-.89.27-.17.48-.44.88-.2.17.1.51,0,.72-.12a5.27,5.27,0,0,0,.8-.63c.86-.73,1.69-1.51,2.6-2.17a4.29,4.29,0,0,0,1.29-1.18.82.82,0,0,1,.4-.27c.31-.11.58-.21.6-.6,0-.1.16-.21.28,0a.35.35,0,0,0,.19-.09,12.05,12.05,0,0,1,1.23-1.32,1.08,1.08,0,0,1,.31,0c0,.07-.08.16-.14.23-.59.59-1.15,1.2-1.77,1.76S61.81,66,61.14,66.58c-1.1,1-2.15,2-3.22,3.07-.2.19-.11.23.1.33a2.71,2.71,0,0,0,1.24.37,1.62,1.62,0,0,1,.41.13,5.71,5.71,0,0,0,1-.12,2.53,2.53,0,0,0,1.16-.25,9.55,9.55,0,0,0,1.22-.86,15.92,15.92,0,0,1,1.78-1.58,6.42,6.42,0,0,0,1.29-1.48,1.25,1.25,0,0,1,.33-.32c.39-.23.84-.38.92-.93,0-.08.14-.16.22-.23.37-.33.74-.66,1.12-1a.39.39,0,0,1,.14-.08c0,.07,0,.17,0,.22-.31.33-.64.65-1,1a1.13,1.13,0,0,0-.19.19,7.69,7.69,0,0,1-1.44,1.57c-.89,1-1.8,1.89-2.7,2.83l-.92.93s0,.11-.06.17a.86.86,0,0,0,.17,0,5.72,5.72,0,0,0,2.55-1.34c.41-.45.9-.81,1.34-1.22l2.28-2.15c.45-.44.89-.9,1.35-1.34,0-.06.15-.07.23-.11s0,.23-.06.31a3.06,3.06,0,0,1-.34.39c-.57.64-1.11,1.31-1.71,1.92s-1.34,1.24-2,1.88c-.46.46-.85,1-1.32,1.42-.13.13-.27.19-.27.42a.55.55,0,0,0,.25.49.34.34,0,0,0,.31,0c.41-.29.81-.6,1.2-.92A9.36,9.36,0,0,1,68,69.14a12.73,12.73,0,0,0,1.08-.89c.64-.47,1.31-.88,2-1.34.36-.26.69-.58,1-.86,0,0,.15,0,.23,0s0,.17,0,.22a4.75,4.75,0,0,1-1.58,1.42,13.2,13.2,0,0,0-2.8,2.17c-.66.62-1.34,1.22-2,1.83-.06.06-.14.15-.13.22s.11.13.19.17a2.72,2.72,0,0,0,1.33.13.91.91,0,0,0,.44-.19c.37-.3.72-.61,1.07-.93,1-.93,2-1.86,2.92-2.81.49-.48.93-1,1.4-1.51s1-1,1.49-1.49a9.93,9.93,0,0,0,1.31-1.64.66.66,0,0,1,.14-.2s.14,0,.22,0,0,.14,0,.18a2.3,2.3,0,0,1-.23.37c-.59.68-1.17,1.36-1.78,2s-1.34,1.42-2,2.14-1.13,1.33-1.73,2-1.32,1.34-2,2a1.28,1.28,0,0,0-.14.23,1.15,1.15,0,0,0,.26,0,6.16,6.16,0,0,1,1-.24,1.6,1.6,0,0,0,1-.58,24.92,24.92,0,0,0,2.23-2.25A33.54,33.54,0,0,0,75.66,66a.38.38,0,0,1,.09-.09c.71-.38.94-1.13,1.35-1.74a.62.62,0,0,1,.14-.14,1,1,0,0,1,.18,0c0,.08.06.19,0,.22-.53.53-.7,1.34-1.43,1.73a1.27,1.27,0,0,0-.5.69,2.18,2.18,0,0,1-.69.9,7.88,7.88,0,0,0-.91,1.2c0,.06-.08.14-.13.21-.79.92-1.58,1.85-2.38,2.77-.11.13-.21.23,0,.37a3.07,3.07,0,0,0,1.53.75c.16,0,.35.08.38-.21,0-.1.16-.22.27-.27a7.85,7.85,0,0,0,2.27-2.14c.53-.65,1.08-1.27,1.63-1.9.71-.83,1.42-1.66,2.14-2.48a6,6,0,0,1,.65-.58c.15-.12.3-.22.46-.33a3.17,3.17,0,0,1-.24.49,1.85,1.85,0,0,1-.36.38,17.33,17.33,0,0,0-2.33,2.73c-.51.64-1,1.3-1.45,2S75,71.74,74.64,72.59c0,0-.09.09-.13.13l-.41.38c.25,0,.59.06.74-.07.73-.67,1.7-1,2.43-1.64.9-.82,1.74-1.72,2.61-2.58l.33-.33c.74-.75,1.51-1.48,2.23-2.25a21,21,0,0,0,1.5-1.75c.57-.75,1.11-1.54,1.69-2.31,0,.66-.51,1.09-.78,1.63a17.73,17.73,0,0,1-1.38,2.07,9.44,9.44,0,0,1-.75,1c-.76.84-1.55,1.65-2.33,2.47-.45.47-.93.93-1.39,1.39a11.81,11.81,0,0,1-2.75,2.12c-.08,0-.13.14-.2.22.11,0,.22.06.31,0a2.23,2.23,0,0,0,1-.58,1.42,1.42,0,0,1,.8-.42,3.59,3.59,0,0,0,1.39-.78c.71-.51,1.34-1.14,2-1.71.42-.35.87-.67,1.28-1s.54-.62.83-.91.48-.4.71-.62a37.84,37.84,0,0,0,3-3.29,14.35,14.35,0,0,1,1.16-1.3,14.55,14.55,0,0,0,1.75-2.32c.14-.22.18-.48.48-.59.06,0,.07-.17.11-.27a1.73,1.73,0,0,1,.18-.39,3.5,3.5,0,0,1,.46-.39c.13.27-.09.38-.22.54a.48.48,0,0,0-.1.23,1.62,1.62,0,0,0,0,.22l.14-.09a33.71,33.71,0,0,0,3.25-2.84c.26-.28.59-.49.87-.76a10.78,10.78,0,0,0,1.92-2.43.81.81,0,0,1,.18-.19c0,.1.1.24.06.3a13.44,13.44,0,0,1-1.06,1.6c-.59.68-1.26,1.3-1.91,1.92-.43.42-.9.79-1.32,1.22s-.91,1-1.36,1.47a1.79,1.79,0,0,1-1.13.63.53.53,0,0,0-.34.23,24.84,24.84,0,0,1-2.08,2.7c-.66.82-1.24,1.69-1.89,2.51a7.54,7.54,0,0,1-.67.58c-.51.49-1,1-1.5,1.49a19,19,0,0,1-2.16,2c-.31.22-.59.49-.88.74-.6.51-1.21,1-1.8,1.55-.11.1-.38.17-.16.46a.41.41,0,0,0,.64.08c.36-.27.69-.58,1-.88.91-.82,1.83-1.64,2.73-2.47.69-.63,1.37-1.27,2-1.91a20.85,20.85,0,0,0,2.38-2.77c.31-.42.69-.77,1-1.17s.78-.95,1.15-1.43.79-1,1.18-1.55a1.37,1.37,0,0,1,.23-.19c0,.12.05.26,0,.35-.26.42-.54.84-.83,1.24l-2.41,3.36a13.61,13.61,0,0,1-.95,1.18c-.64.71-1.29,1.42-2,2.09-.42.42-.92.74-1.37,1.14-.18.16-.29.42-.47.58l-3,2.62a.92.92,0,0,0-.16.27l.22.08a2.29,2.29,0,0,0,1.13.13.35.35,0,0,0,.23-.07c.33-.27.67-.54,1-.84s.53-.62.8-.92c.42-.47.82-.94,1.27-1.39s.92-.78,1.33-1.22a31.61,31.61,0,0,0,3-3.64c.76-1.09,1.5-2.2,2.24-3.3.12-.18.19-.4.3-.59a2.5,2.5,0,0,1,.31-.4.17.17,0,0,1,.17,0,.18.18,0,0,1,0,.17c-.4.62-.81,1.24-1.2,1.87-.23.37-.43.75-.64,1.13a3.08,3.08,0,0,1-.76,1.06.49.49,0,0,0-.16.2,6.63,6.63,0,0,1-1.43,2.32,18,18,0,0,1-2.1,2.35c-.28.27-.61.48-.88.76-.65.67-1.28,1.35-1.91,2a2.25,2.25,0,0,0-.24.36c-.1.16-.06.23.13.25a1.65,1.65,0,0,0,1.36-.4c1-1,2-1.82,2.91-2.82a22.17,22.17,0,0,0,2.4-2.89,12.66,12.66,0,0,1,.83-1,9.9,9.9,0,0,0,1.47-2.49c.32-.79.85-1.49,1.17-2.28.23-.57.79-1,.64-1.72v-.06c.44,0,.5-.42.67-.69a.15.15,0,0,1,.1,0c0,.06,0,.12,0,.17s0,.21,0,.32l.27-.15a17.46,17.46,0,0,0,2.58-2c.84-.8,1.74-1.54,2.59-2.34.66-.61,1.27-1.26,1.91-1.9a3.57,3.57,0,0,1,.28-.27.17.17,0,0,1,.17,0s0,.12,0,.18,0,.06-.08.09c-.8.84-1.55,1.72-2.4,2.5s-1.83,1.62-2.72,2.47c-.44.43-.95.77-1.42,1.18-.29.25-.55.55-.84.82a.55.55,0,0,1-.31.18c-.61,0-.68.5-.86.88-.65,1.4-1.23,2.83-1.92,4.21a8.72,8.72,0,0,1-1.67,2.42,13.63,13.63,0,0,0-1.09,1.39c-.06.08-.11.18-.18.26l-2,2.09c-.36.38-.74.74-1.1,1.11,0,0,0,.12-.06.18l.19,0a10.06,10.06,0,0,0,2.26-1.22A9.64,9.64,0,0,0,90,70.44a19.54,19.54,0,0,0,1.79-2.16c.41-.63,1-1.18,1.38-1.81a14.47,14.47,0,0,0,.67-1.3C94.4,64.09,95,63,95.6,62c.11-.2,0-.21-.08-.29-.34-.41-.33-.45.15-.73a9.22,9.22,0,0,0,2.07-1.54c.77-.77,1.61-1.5,2.31-2.33a25.92,25.92,0,0,0,2.59-3,1.43,1.43,0,0,1,.32-.33c.1-.08.18-.32.35-.14s0,.28-.1.38a16.37,16.37,0,0,1-1.1,1.39c-.87,1-1.77,1.87-2.65,2.8s-1.87,1.9-2.75,2.89A10.2,10.2,0,0,0,95,63.83a8,8,0,0,1-.43.94A17.17,17.17,0,0,1,92.83,68c-.44.51-.87,1-1.3,1.57s-.83,1-1.27,1.52a5.38,5.38,0,0,1-.78.65c-.18.14,0,.23,0,.28a1.87,1.87,0,0,0,.52.17c.19,0,.19,0,.35-.29.07-.13.18-.33.29-.35a2.47,2.47,0,0,0,1.24-.82,17.31,17.31,0,0,0,1.92-1.91,10,10,0,0,0,1.87-3.12c.25-.74.62-1.45.94-2.18.21-.5.4-1,.64-1.51s.48-.7.4-1.17c0-.07.09-.19.17-.24a4.37,4.37,0,0,0,1.44-1.3,9.91,9.91,0,0,1,1-1c.67-.67,1.33-1.35,2-2,.48-.47,1-.9,1.47-1.36.19-.18.31-.41.48-.59s.15,0,.22,0a.25.25,0,0,1,0,.18,1.23,1.23,0,0,1-.19.31c-.76.77-1.48,1.57-2.29,2.28a18.64,18.64,0,0,0-2.85,3.23c-.29.39-.59.88-1.17,1,0,0-.07.09-.09.14-.7,1.67-1.36,3.35-2,5a8.19,8.19,0,0,1-2.18,3.45c-.29.24-.49.6-.76.87s-.81.7-1.21,1c0,0-.1,0-.12,0s-.19.3-.29.45a3.63,3.63,0,0,0,.45-.1c.2-.05.39-.13.58-.18a3.17,3.17,0,0,0,1.86-1.43c.32-.43.7-.81,1-1.21.62-.71,1.28-1.4,1.85-2.14a9.2,9.2,0,0,0,.85-1.5c.3-.57.57-1.17.85-1.76s.43-1,.68-1.43a.58.58,0,0,0,0-.64s0-.12.07-.22a1.83,1.83,0,0,0,1.47-.64l3-3.12c.66-.69,1.32-1.38,2-2.09s1-1.21,1.55-1.8a2,2,0,0,1,.45-.27c.15.26,0,.39-.2.54-1,1-1.92,2-2.84,3-.75.82-1.43,1.7-2.16,2.54-.36.42-.74.83-1.11,1.26-.06.06-.06.17-.09.26s.21,0,.27-.06c.29-.27.56-.55.83-.83q1.74-1.78,3.46-3.59c.46-.48.9-1,1.35-1.48.08-.08.14-.19.24-.23a1.68,1.68,0,0,1,.4-.06,1.11,1.11,0,0,1-.14.31c-1.12,1.17-2.26,2.32-3.35,3.51-.63.68-1.18,1.44-1.77,2.17l-.34.45c-.28.32-.58.58-1,.26a.47.47,0,0,0-.42,0c-.3.51-1.09.11-1.34.77-.4,1.07-.91,2.09-1.32,3.15a8,8,0,0,1-.81,1.84c-.27.38-.59.73-.89,1.09-.52.62-1.06,1.23-1.58,1.85-.07.08-.1.18-.17.26s-.06.29.11.35a2.74,2.74,0,0,0,.43.08c.24.06.21.06.3-.24,0-.14.19-.33.31-.34a1.74,1.74,0,0,0,.94-.61,18.09,18.09,0,0,0,3.59-4.57l1.45-2.5a1.22,1.22,0,0,1,.2-.25.76.76,0,0,1,.18-.09c0,.06,0,.14,0,.19-.09.22-.2.44-.3.67s-.26.64-.43.94c-.59,1-1.2,2.1-1.81,3.14a13.64,13.64,0,0,1-2.57,3.09c-.19.18-.4.31-.59.48s-.07.14-.1.22.17.08.24.06a3.19,3.19,0,0,0,1.84-1.16c.55-.79,1.21-1.51,1.73-2.33.68-1,1.33-2.13,2-3.19.24-.39.5-.76.77-1.14,0,0,.14-.06.22-.09s0,.19,0,.26l-1.77,3.1c-.32.55-.64,1.1-1,1.64-.45.69-.93,1.37-1.39,2.06a3.37,3.37,0,0,0-.19.32.61.61,0,0,0,0,.14s.11,0,.13,0c.31-.27.76-.29.91-.85s.63-.83.94-1.26c.85-1.18,1.68-2.38,2.52-3.57,0-.08,0-.23.06-.3a1.11,1.11,0,0,1,.3-.22c0,.12.11.25.07.34a4,4,0,0,1-.42,1c-.36.58-.77,1.13-1.15,1.7-.26.37-.51.75-.74,1.14,0,.08,0,.21,0,.31l.25-.08c.38-.09.77-.17,1.15-.27.11,0,.29-.14.29-.2,0-.63.55-.88.82-1.31s.51-.54.67-.85a1.05,1.05,0,0,0,0-.7c0-.17-.21-.31-.31-.46-.32-.45-.23-.7.29-.83a4.27,4.27,0,0,1,.48-.13,2,2,0,0,0,1.51-1.11,5.77,5.77,0,0,1,.69-.71c.61-.65,1.2-1.31,1.81-1.94s1.36-1.38,2-2,1.39-1.3,2.09-2c.22-.21.42-.43.65-.64,0,0,.14,0,.22,0s0,.14,0,.18c-.64.67-1.28,1.34-1.93,2-.13.14-.3.24-.43.37-1,1-2,2-3,3-.66.68-1.25,1.41-1.87,2.13A.39.39,0,0,0,107,64a.34.34,0,0,0,.16.2.61.61,0,0,1,.6,0c.28.15.52-.07.71-.27.37-.39.7-.82,1.08-1.2,1.47-1.49,3-3,4.43-4.43a1.87,1.87,0,0,1,.41-.25c0,.17,0,.38-.15.49-.4.44-.83.84-1.24,1.27-1,1-2,2.07-3,3.11-.21.22-.46.42-.65.66a1.94,1.94,0,0,0-.2.51s0,.08,0,.11.08,0,.1-.09a.5.5,0,0,1,.57-.42.91.91,0,0,0,.59-.3c1-1,2-2,2.94-3.07.78-.83,1.54-1.69,2.29-2.55.33-.38.62-.8.94-1.19a3.6,3.6,0,0,1,.41-.37c-.18,0-.42,0-.52-.17-.26-.3-.57-.24-.89-.25s-.42-.16-.4-.47c0-.08.07-.23-.15-.12a1.73,1.73,0,0,1-.71.18c-.1,0-.26-.18-.31-.31s0-.46.23-.45c.67,0,1-.48,1.52-.8s1.16-.8,1.75-1.19a.4.4,0,0,1,.35,0c.21.15,0,.2-.1.27-.39.4-.79.8-1.2,1.19-.22.21-.47.38-.68.58s-.09.21-.13.31c.12,0,.27,0,.35,0a11.43,11.43,0,0,0,.93-.79c.51-.48,1-1,1.5-1.48a8,8,0,0,1,.82-.57c.08-.06.11-.15.24,0s0,.18-.06.24l-2.42,2.56c-.1.11-.34.19-.13.41s.28.35.57.13a9.3,9.3,0,0,0,1.27-.92c.84-.84,1.72-1.65,2.59-2.47a1,1,0,0,1,.32-.17s.12,0,.18,0a.61.61,0,0,0-.07.1c-.55.55-1,1.19-1.57,1.72s-1.3,1.3-2,1.93a4.62,4.62,0,0,1-.68.43,1.45,1.45,0,0,0-.19.17c.1.06.12.14.31.14a3.71,3.71,0,0,0,2.35-1.21c.69-.56,1.3-1.2,2-1.8l1.11-1a.58.58,0,0,1,.21-.15.69.69,0,0,1,.24,0c0,.08,0,.17,0,.23a4,4,0,0,1-1,.93,1.16,1.16,0,0,0-.34.28A4.57,4.57,0,0,1,121,55a11.88,11.88,0,0,0-1.13,1.21c-.33.32-.74.56-1.1.85a3.58,3.58,0,0,0-.64.65c-.68,1-1.35,2-2,3.06-.46.71-.88,1.44-1.36,2.14a5.43,5.43,0,0,1-.83.83c-.07,0-.23,0-.35,0s0-.27.07-.35c.31-.43.66-.83,1-1.25.49-.7,1-1.4,1.44-2.11s1.06-1.58,1.59-2.38a1.34,1.34,0,0,0,.13-.27c-.1,0-.22-.08-.3-.05a1.07,1.07,0,0,0-.42.26c-.42.53-.8,1.08-1.22,1.61-1,1.21-1.83,2.48-2.67,3.77-.2.31-.4.63-.59,1,0,.06,0,.15,0,.22a.53.53,0,0,0,.24,0,15.15,15.15,0,0,0,2.23-.68,2.14,2.14,0,0,0,1.17-1,10.4,10.4,0,0,1,1.51-2.08,5.33,5.33,0,0,0,1.11-2c0-.1.09-.26,0-.3-.39-.41.18-.58.23-.87,0,0,.25-.11.29-.07.6.52,1,.09,1.45-.25s.81-.81,1.22-1.21.62-.53.92-.79c.09-.07.2-.14.23-.24.26-.65.9-1,1.23-1.6a.93.93,0,0,1,.28-.28c.05,0,.14,0,.22,0a.78.78,0,0,1-.07.23c-.35.49-.68,1-1.07,1.46-.89,1-1.8,2-2.7,3l-.19.18-.26.24c.15,0,.3,0,.44,0s.07-.06.1-.09l2.31-2.4c.27-.28.54-.56.8-.85.53-.57,1.07-1.14,1.59-1.72.17-.18.3-.4.47-.59s.18-.06.27-.09.06.23,0,.31-.18.18-.27.28l-.65.79c-.53.61-1,1.24-1.59,1.84-.74.85-1.5,1.67-2.23,2.51a1,1,0,0,0-.13.35,2.46,2.46,0,0,0,.34.09,1.72,1.72,0,0,0,1.77-.69,25,25,0,0,1,1.74-1.83c.85-.89,1.52-1.93,2.42-2.76.38-.35.69-.77,1-1.15,0,0,.11,0,.17,0a.34.34,0,0,1,0,.14l-.66.89a16.38,16.38,0,0,0-1.37,1.61,11.15,11.15,0,0,1-1.22,1.54L124.06,58a.62.62,0,0,0-.09.27,1.16,1.16,0,0,0,.37,0c.26,0,0-.15,0-.18.19-.2.07-.71.58-.6.51-.49,1-1,1.53-1.46s.73-1,1.3-1.37a1.19,1.19,0,0,0,.28-.34c.43-.59.86-1.18,1.3-1.76a1.65,1.65,0,0,1,.24-.22s.11,0,.12,0,.07.13.05.17c-.35.54-.7,1.08-1.07,1.6-.71,1-1.59,1.91-2.29,2.94a5.85,5.85,0,0,1-1,.9.48.48,0,0,0-.09.14.62.62,0,0,0,.18,0A3.1,3.1,0,0,0,127,57.07c.46-.55.88-1.13,1.32-1.69l1.86-2.4a2,2,0,0,1,.33-.32.9.9,0,0,1,.27-.11l-.13.23a18.92,18.92,0,0,1-1.86,2.66.47.47,0,0,0,0,.68l.14.14c.44.45.45.46.79-.06l2.19-3.38a.49.49,0,0,0,.08-.23.62.62,0,0,1,.43-.72,1.13,1.13,0,0,0,.33-.16c.35-.38.69-.76,1-1.16s.67-.86,1-1.28c.5-.61,1-1.19,1.52-1.82a6.25,6.25,0,0,0,.55-1c.17-.31.33-.64.71-.76a1.42,1.42,0,0,1-.22,1,10.05,10.05,0,0,1-1.57,2.26c-.85,1-1.65,2-2.49,2.92-.25.3-.58.54-.86.82a2.11,2.11,0,0,0-.28.41c-.72,1.19-1.43,2.39-2.15,3.59,0,0-.08.06-.09.1a1.62,1.62,0,0,0,0,.22c.07,0,.17,0,.21-.07.29-.36.57-.72.85-1.09s.45-.66.71-1c.39-.47.81-.89,1.2-1.36a7.37,7.37,0,0,0,.7-1,29.69,29.69,0,0,1,2.48-3,21.09,21.09,0,0,0,2.28-3,3.21,3.21,0,0,1,.75-1,.56.56,0,0,1,.23,0,1.55,1.55,0,0,1,0,.22c-.11.24-.22.49-.35.72a8.65,8.65,0,0,1-.78,1.32c-.68.82-1.38,1.62-2.07,2.44s-1.39,1.75-2.06,2.65a17.69,17.69,0,0,1-1.15,1.44c-.76.83-1.39,1.78-2.07,2.69a.19.19,0,0,0,0,.17.2.2,0,0,0,.16.07c.59-.25,1.27-.2,1.84-.62a.88.88,0,0,0,.1-.17m34.38,9.77-.16,0,0,.09a1.1,1.1,0,0,1,.28-.12v-.13a.28.28,0,0,1-.15.13m-51.07-8.45-3,3.25c-.28.3-.58.58-.87.88a.7.7,0,0,0-.16.19,5.67,5.67,0,0,1-1.34,1.7c-.12.13-.23.27-.35.41a1.27,1.27,0,0,0,.58,0,2.25,2.25,0,0,0,.89-.52c.59-.77,1.09-1.62,1.67-2.4.79-1.07,1.63-2.1,2.44-3.15a3.24,3.24,0,0,1,.26-.38l.33-.45-.08-.06c-.12.16-.37.24-.38.51m66.91-12.27a3.62,3.62,0,0,0,1.73-1.08c.54-.54.51-.68-.12-1a.49.49,0,0,0-.74.16,3.41,3.41,0,0,1-.46.6c-.61.58-1.23,1.15-1.85,1.72l-.06.09c.06,0,.13.07.17.05.43-.15.85-.3,1.33-.52m-51.6,16.89-3.39,3.12a2.92,2.92,0,0,0-.21.28,1.42,1.42,0,0,0,.36,0,1.05,1.05,0,0,0,.36-.23L131,63.33a5.23,5.23,0,0,0,.73-.76c.13-.2.5-.16.47-.49a6.48,6.48,0,0,0-.7.35m32.4,4.95c.17-.13.46-.23.48-.38.05-.43.4-.6.63-.86s.62-.62.93-.94c0,0,0-.15,0-.22a.53.53,0,0,0-.24,0,.76.76,0,0,0-.25.19q-.95,1.07-1.86,2.13s0,.12-.06.18a.79.79,0,0,0,.33-.06m2-1.26c-.16.14-.33.26-.48.4a.64.64,0,0,0-.11.2c.07,0,.18.07.22,0,.35-.29.83-.36,1.14-.73a2.61,2.61,0,0,1,.45-.33c.06,0,.1-.12.16-.18-.09-.06-.17-.17-.25-.18a.66.66,0,0,0-.42.09c-.23.19-.43.42-.71.69M161.75,22.7c.2.11.4.21.58.33s.07.12.1.18.18-.17.17-.25c0-.35-.11-.69-.18-1,0-.06-.09-.1-.14-.14a1,1,0,0,1-.07.15,3.21,3.21,0,0,0-.46.76M105.46,67.38c0-.13,0-.26,0-.39a1.16,1.16,0,0,0,0-.18.48.48,0,0,0-.14.09c-.28.36-.56.72-.82,1.1-.06.07,0,.2,0,.3a.88.88,0,0,0,.22-.1,4.26,4.26,0,0,0,.83-.82M127.9,56.69l-.56.69s0,.09-.07.13.14.06.18,0c.25-.15.49-.3.72-.47a1.64,1.64,0,0,0,.23-.28c-.17-.07-.2-.43-.5-.1m41.64,7.06c.36-.15.44-.5.58-.8,0-.06,0-.16,0-.24l-.14.11c-.25.25-.5.49-.74.75,0,0,0,.12-.06.18h.4M173.3,63c-.27-.2-.44.09-.66.14l.56.06s.06,0,.1-.2m-22,7.2.29-.37-.4.22a1.2,1.2,0,0,0-.21.17s0,.07.05.1a.56.56,0,0,1,.27-.12m-1.25.06-.08.32c.11,0,.25-.08.31-.17s0-.23-.23-.15m24.81-7.92c0-.4-.17-.06-.24,0s-.09.13-.14.2l.14,0a.85.85,0,0,0,.24-.12m-5.47-6.93-.18,0c.09.07.17.15.26.21s.07,0,.11,0l-.19-.21m-32.14,13.8.12-.27s-.08,0-.09,0S137,69.11,137.27,69.23ZM76,37.49a4.27,4.27,0,0,0,.61-.29c.94-.7,1.87-1.42,2.81-2.14l.74-.61a1,1,0,0,1,.18-.08c0,.09,0,.19,0,.25a1,1,0,0,1-.26.29l-2.59,2.18c-.07.06-.12.13-.18.19a2.85,2.85,0,0,1-2.09,1A6.41,6.41,0,0,0,71,40a1.56,1.56,0,0,0-.42,1,3.85,3.85,0,0,0,.27,1.54c.16.5,0,.71-.47.55a3.09,3.09,0,0,0-1.53-.09c-1,.22-2.1-.1-3.08.37-.22.11-.46.17-.67.29s-.32.37-.07.69c.1.13.29.3.26.4-.07.25-.33.21-.55.21a13,13,0,0,0-2.56.5,3.14,3.14,0,0,0-1.71,1,.46.46,0,0,0,0,.72,5.43,5.43,0,0,0,3,1.75,1.3,1.3,0,0,1,.88.6,2,2,0,0,0,.8.56,1,1,0,0,0,.95.07,3.82,3.82,0,0,1,1.19-.13,2.3,2.3,0,0,0,1.16-.56,13.38,13.38,0,0,1,2.27-1.36c.31-.15.42,0,.61.11s0,.25,0,.28a9,9,0,0,0-2.88,1.82,3.32,3.32,0,0,1-1.39.46c-.87.16-1.75.21-2.61.41A7.18,7.18,0,0,0,59.8,54a.47.47,0,0,1-.56.21,12.87,12.87,0,0,0-3.43-.45c-.61,0-1.26-.32-1.87,0-.43-.32-.83.12-1.27,0a3.4,3.4,0,0,0-1.31,0,10.66,10.66,0,0,0-2.17.34,4.1,4.1,0,0,1-1.12.17,3.34,3.34,0,0,0-1.92.63.58.58,0,0,1-.44.12.31.31,0,0,1,0-.57A4.23,4.23,0,0,1,46.86,54c.74-.19,1.52-.26,2.27-.42A35.91,35.91,0,0,1,57,53.22a5.54,5.54,0,0,1,1.54.21,1,1,0,0,0,1.17-.35,6,6,0,0,1,2.42-1.78,5.22,5.22,0,0,1,2.19-.62c.07,0,.14-.06.21-.09a1.06,1.06,0,0,0-.2-.17c-.27-.13-.64-.13-.61-.59,0-.06-.18-.16-.29-.2-.34-.1-.68-.16-1-.27a3.6,3.6,0,0,1-.7-.37,10.3,10.3,0,0,1-1.5-1,3.63,3.63,0,0,1-.69-1.08c0-.09.06-.27.13-.4a3.47,3.47,0,0,1,2.61-1.64c.56-.11,1.12-.28,1.68-.38.29-.05.09-.11.06-.21-.14-.44-.09-.58.33-.86a5.57,5.57,0,0,1,2.18-.8,17.87,17.87,0,0,1,2.19-.13,7.67,7.67,0,0,0,1.06-.13.26.26,0,0,0,.16-.2,1.51,1.51,0,0,0,0-.52,2.06,2.06,0,0,1,.85-2.32A5.49,5.49,0,0,1,73,38.14s.08-.19,0-.23a2.05,2.05,0,0,0-.46-.47,4.14,4.14,0,0,1-1.6-2.3,6.42,6.42,0,0,1-.52-2.49,9.44,9.44,0,0,1,.57-2.4,4.88,4.88,0,0,1,2.27-2.66,11.67,11.67,0,0,1,2.86-1,7.16,7.16,0,0,1,1.46-.15c.42,0,.39,0,.31-.39s-.16-.86-.21-1.3a1.84,1.84,0,0,1,1.61-2,7.4,7.4,0,0,1,1.33-.13.49.49,0,0,0,.5-.29,3.09,3.09,0,0,1,1.86-1.45,7.09,7.09,0,0,1,1.68-.57c.12,0,.24-.06.37-.07A10.62,10.62,0,0,0,87,20.09a2.17,2.17,0,0,1,1.05.15c.66.18,1.33.39,2,.62a3.57,3.57,0,0,1,1.87,1.51s0,.09,0,.13c.35.54.34.51.95.26a11.66,11.66,0,0,1,1.53-.45c.22-.06.45-.09.67-.13l.52-.09a2.81,2.81,0,0,1-.22-.5,4.38,4.38,0,0,1-.17-2.41,3.17,3.17,0,0,1,1-1.56A7.17,7.17,0,0,1,99.73,16c.26,0,.22-.22.18-.31-.33-.71,0-1.14.54-1.54.18-.14.18-.15,0-.27a18.09,18.09,0,0,1-2.62-1.79,2.6,2.6,0,0,1-.91-1.47,2.91,2.91,0,0,1,.17-1.5,3.29,3.29,0,0,1,2.33-2c.29-.11.67,0,.89-.23s.2-.51.3-.78c0-.07.13-.12.18-.19s.13-.2-.07-.27a6.71,6.71,0,0,0-.83-.36,2.19,2.19,0,0,1-1.35-1,2,2,0,0,1-.07-1.71A3.27,3.27,0,0,1,100.6.67a6.81,6.81,0,0,1,1.15-.4A8.11,8.11,0,0,1,103.29,0a9.56,9.56,0,0,1,3.23.29,8.15,8.15,0,0,1,2.68,1.51,2.71,2.71,0,0,0,.41.28A3.16,3.16,0,0,1,111,4.29a5.23,5.23,0,0,1,.12.54c.05.79.06.84.8,1a2,2,0,0,1,1.59,1.46,4.89,4.89,0,0,1,.38,1.88c0,.16.1.6,0,.72s-.42-.09-.54-.1-.26-.19-.25-.4a4.67,4.67,0,0,0-.24-1.74,2,2,0,0,0-.65-.92.49.49,0,0,0-.68.08c-.45.48-.91,1-1.39,1.39s-.87.68-1.28,1c-.56.48-1.09,1-1.63,1.48a1.2,1.2,0,0,1-.37.23c-.06,0-.15,0-.22,0s0-.14,0-.17c.26-.23.53-.44.78-.66.48-.43,1-.86,1.44-1.31.66-.64,1.3-1.3,2-1.95a.84.84,0,0,0,.08-.19c-.06,0-.14,0-.19,0a1.06,1.06,0,0,0-.26.17L107.81,9.2c-.29.26-.58.5-.88.75a.57.57,0,0,1-.23.08.18.18,0,0,1-.16-.06.15.15,0,0,1,0-.17,4.86,4.86,0,0,1,.6-.6,18.63,18.63,0,0,0,2.67-2.58c.19-.22.55-.43.51-.83a1.68,1.68,0,0,0-.06-.24l-.14.13c-.87.78-1.72,1.57-2.6,2.33-.33.29-.7.54-1.06.8,0,0-.14,0-.22,0s0-.17.09-.2a8.74,8.74,0,0,0,1.38-1.27c.25-.29.6-.49.87-.76s.63-.7,1-1a4.17,4.17,0,0,1,.41-.43c.11-.11.35-.18.36-.29a1.45,1.45,0,0,0-.11-.6c-.07,0-.16,0-.21.06l-2.39,2.37c-.1.1-.19.37-.39.19s0-.3.1-.44a1.37,1.37,0,0,1,.35-.45,15.41,15.41,0,0,0,2-2.31.75.75,0,0,0,.11-.28.16.16,0,0,0-.08-.15.17.17,0,0,0-.16,0c-.51.67-1,1.35-1.5,2a.43.43,0,0,1-.14.13c-.15.06-.38.18-.44.12s0-.29.09-.44c.5-.64,1-1.32,1.46-2,.12-.15.15-.23,0-.38a7.66,7.66,0,0,0-1.5-1.15A4.29,4.29,0,0,0,105.77.9c-.14,0-.27-.09-.41-.1a7.33,7.33,0,0,1-1.14-.11c-.33-.08-.71.12-1.06.09A6,6,0,0,0,101,1.2a2.88,2.88,0,0,0-1.67,1.19,1.37,1.37,0,0,0,.47,2.2,3.09,3.09,0,0,0,1.8.43,4.8,4.8,0,0,0,1.6-.13.29.29,0,0,1,.39.25c0,.22-.06.36-.29.41a7.1,7.1,0,0,1-1.09.24A1.43,1.43,0,0,0,101,7.35c0,.27-.08.32-.33.32s-.21-.09-.21-.24a.58.58,0,0,0-.06-.17,1.34,1.34,0,0,1-.07.18.61.61,0,0,1-.61.37,2.07,2.07,0,0,0-1.68,1,2.15,2.15,0,0,0-.32,1.64,1.81,1.81,0,0,0,.53.95,14.79,14.79,0,0,0,1.58,1.26c.26.2.56.35.83.53a1,1,0,0,0,1.17.16,1.28,1.28,0,0,1,.4-.14c.22,0,.44-.07.59.15s.17.21.14.26a.58.58,0,0,1-.28.23,3,3,0,0,1-.82.24c-.53.05-.81.43-1.13.76s-.16.56-.07.84.23.48.32.73,0,.48-.34.46-.45-.12-.67-.12a3.94,3.94,0,0,0-1.39.15,5.3,5.3,0,0,0-2.28,1.47,2.47,2.47,0,0,0-.5,2.23c.11.35.2.7.31,1.05a2.53,2.53,0,0,0,.13.22c.23.43.4.5.92.42a1.26,1.26,0,0,1,.38,0,1.84,1.84,0,0,1,0,.35c-.24.6-.42.66-1,.4A1.51,1.51,0,0,0,96,23c-.33,0-.67.07-1-.12-.12-.06-.34.1-.53.11a4.37,4.37,0,0,0-1.62.54.87.87,0,0,0-.34.37c-.05.1,0,.25,0,.38.1,0,.24-.05.31-.12s.27-.15.36,0,0,.21-.12.27c-.93.82-1.86,1.63-2.83,2.42-.13.11-.43,0-.65,0-.06,0-.2-.1,0-.22s.59-.49.88-.75c.13-.12.36-.24.1-.46,0,0,0-.17.06-.22.21-.22.4-.53.66-.63s.35-.36.31-.6a3,3,0,0,0-1.21-2.13,7.93,7.93,0,0,0-1.34-.57,9,9,0,0,0-4.12-.39,5.33,5.33,0,0,0-2.42,1,1.3,1.3,0,0,0-.68,1.29c0,.37-.22.51-.57.34a3.13,3.13,0,0,0-.48-.25,2.25,2.25,0,0,0-1.91.39.69.69,0,0,0-.34.71c0,.33,0,.66,0,1,0,.51.2.67.71.67a3,3,0,0,1,.52,0,.32.32,0,0,1,.21.23c0,.08-.09.17-.16.26s-.08,0-.11,0c-.34.23-.81-.08-1,.11a1.57,1.57,0,0,1-1,.29,10.27,10.27,0,0,0-4.19,1.34,3.9,3.9,0,0,0-1.74,2.21A6.26,6.26,0,0,0,71.28,33a5.67,5.67,0,0,0,.86,2.81,5.4,5.4,0,0,0,.78,1,.63.63,0,0,0,.39.15,2.59,2.59,0,0,0,1.91-.7c.79-.59,1.59-1.15,2.39-1.72a.45.45,0,0,1,.23-.08c.11,0,.24,0,.08.16s-.13.27-.24.36l-2,1.64c-.22.17-.44.33-.65.51,0,0,0,.12,0,.18s.18,0,.23,0l2.39-1.72c.64-.47,1.28-.94,1.93-1.4a.54.54,0,0,1,.22-.09h.49l-.34.24c-.78.6-1.57,1.2-2.34,1.82-.52.41-1,.84-1.56,1.29a.54.54,0,0,0,0,.16Zm44.51-17.92a2.42,2.42,0,0,1-1.37.62,1,1,0,0,1-.24-.05c.06-.07.11-.17.17-.18a5.24,5.24,0,0,0,2.27-1.37c.62-.48,1.16-1.05,1.73-1.58s1.17-1,1.71-1.59a14.55,14.55,0,0,0,1-1.29.71.71,0,0,0,.06-.22.76.76,0,0,0-.18.09c-1,.88-1.94,1.78-2.92,2.65-.82.72-1.67,1.4-2.5,2.1l0,.05-.68.26c.16-.15.31-.31.47-.45l2-1.78c.44-.37.91-.72,1.31-1.13.79-.81,1.54-1.66,2.31-2.49a.43.43,0,0,0,.09-.1,9.74,9.74,0,0,1,1-1.64c0-.05,0-.14,0-.22s-.25,0-.27.09c-.35.88-1.31,1.14-1.88,1.82a21.43,21.43,0,0,1-1.81,1.61c-.8.75-1.55,1.55-2.34,2.31a5.28,5.28,0,0,1-.69.56s-.15,0-.22,0,0-.18.06-.22L122,15.31c.13-.12.26-.24.38-.37,1.21-1.3,2.43-2.6,3.63-3.91a1,1,0,0,0,.27-.41,1.34,1.34,0,0,0,0-.44l-.22.34c-.16.24-.19.57-.61.59-.18,0-.36.22-.5.37s-.48.6-.75.87c-1,1-2,2.06-3.09,3.08a2.63,2.63,0,0,1-.59.35,3.81,3.81,0,0,1,.37-.5c.71-.72,1.45-1.41,2.13-2.16s1.23-1.47,1.83-2.21a2.08,2.08,0,0,0,.28-.48,2.11,2.11,0,0,0,.09-.38,2.76,2.76,0,0,0-.49.07c-.09,0-.16.14-.23.22-.32.4-.61.81-.94,1.2-.6.7-1.21,1.39-1.82,2.08a2.06,2.06,0,0,1-.33.33c-.14.11-.3.19-.45.29-.17-.29.14-.33.24-.46.64-.79,1.32-1.56,2-2.36.49-.62.94-1.28,1.4-1.93a.43.43,0,0,0,.06-.17,1.16,1.16,0,0,0,0-.18l-.14.08c-.24.24-.5.48-.73.73s-.5.58-.75.88c-.37.46-.74.93-1.12,1.38a.92.92,0,0,1-.31.2,1.87,1.87,0,0,1-.32.08.74.74,0,0,1,.1-.26c.35-.46.7-.91,1.07-1.34a2.58,2.58,0,0,0,.54-.9,6.55,6.55,0,0,1,.53-1c0-.09.08-.25,0-.31a1.36,1.36,0,0,1-.11-1.29c.07-.33.05-.43-.26-.57a2.14,2.14,0,0,0-1-.25c-.51,0-1,0-1.52,0a4.16,4.16,0,0,0-3.35,1.46,1,1,0,0,0-.19,1.2c.23.51.12.71-.41.63a6.39,6.39,0,0,0-.88,0c-.31,0-.62,0-.93,0a1.06,1.06,0,0,0-.8.45c-.09.09-.17.22-.28.25s-.24,0-.35-.07a.49.49,0,0,1,0-.26,1.73,1.73,0,0,1,1.54-1,8.26,8.26,0,0,1,.86,0c.26,0,.46-.1.4-.37-.16-.68.28-1,.68-1.44a5.33,5.33,0,0,1,2.12-1.27A4.73,4.73,0,0,1,120.64,6a11.21,11.21,0,0,1,2.45.11,4.76,4.76,0,0,1,1.48.73,7.3,7.3,0,0,1,2.67,3.76,3.37,3.37,0,0,0,.28.61,2,2,0,0,1,.25,1c0,.51.11,1,.12,1.53a6.71,6.71,0,0,1-.82,3.28c-.06.12-.07.75-.17.82-.35.27-.8,0-1.16.25-.7.53-1.41,1.05-2.11,1.59-.29.22-.56.46-.84.68-.9.69-1.79,1.4-2.71,2.06a9.21,9.21,0,0,1-2.5,1.46c-.06,0-.12,0-.17,0a1.24,1.24,0,0,1-.2-.1c.05-.06.08-.13.14-.16l.74-.29a11.16,11.16,0,0,0,2.06-1.4c.91-.67,1.82-1.35,2.71-2.06.68-.55,1.33-1.14,2-1.72.34-.3.7-.58,1-.89a3,3,0,0,0,.63-.79c.09-.19,0-.47-.06-.71,0,0-.11,0-.13,0L125,17c-.25.24-.5.5-.77.72L122,19.6a22.55,22.55,0,0,1-2.76,2.1.53.53,0,0,1-.17.08l-.63.06c.06-.28.33-.23.51-.33.61-.38,1.22-.78,1.81-1.2s.9-.7,1.34-1.08c.27-.24.52-.52.79-.78.5-.47,1-.9,1.52-1.4.62-.65,1.19-1.35,1.78-2,0,0,0-.11,0-.17a.49.49,0,0,0-.14,0l-.28.28-2.87,2.47-1.8,1.54c-.16.14-.34.25-.54.41m6-6c.2-.35.4-.7.59-1.06,0,0,0-.16,0-.24s-.15.08-.18.14a3.67,3.67,0,0,0-.38,1.16m-1.38-5.22-.22-.31s0,.07,0,.1,0,.32.27.21m-.93-.66,0,0h0c0,.1,0,.2,0,.31l.09,0A1.77,1.77,0,0,0,124.2,7.72ZM96.65,42.14a.86.86,0,0,1,.3,0c0,.07,0,.15-.06.19a4.19,4.19,0,0,1-.89.85,20,20,0,0,0-2.92,2.32s0,.15-.07.23a1.69,1.69,0,0,0,.23,0,4.72,4.72,0,0,0,1.83-1.16C96,43.69,97,42.9,97.89,42.1a.25.25,0,0,1,.22,0c0,.08.07.22,0,.26-.22.2-.47.37-.68.57-.69.63-1.37,1.28-2,1.91-.14.12-.32.2-.45.33a1.77,1.77,0,0,0-.31.46c0,.07-.05.15.15.12a2.68,2.68,0,0,0,1.11-.5c.61-.42,1.16-.91,1.76-1.34a18.07,18.07,0,0,0,2.58-2.2,1.62,1.62,0,0,1,.19-.18.59.59,0,0,1,.22-.05c0,.08.08.19,0,.24a3.49,3.49,0,0,1-.56.75c-.62.54-1.28,1-1.93,1.55l-2.53,2c-.45,0-.62.62-1.13.45-.08,0-.22,0-.25,0-.25-.4-.51-.25-.87-.14a.83.83,0,0,1-1-.25c0-.06-.21,0-.31,0a2.22,2.22,0,0,1-.57,0c-.13,0-.31-.18-.32-.29s.17-.34.27-.34a3.47,3.47,0,0,0,1.91-1c.81-.55,1.6-1.12,2.4-1.69Zm5.74,5.47c.42-.37.81-.71,1.19-1.06,1-.91,2-1.84,3-2.74.66-.57,1.35-1.1,2-1.64.08-.06.19-.08.26-.14s.35-.35.52-.53a2.57,2.57,0,0,1-.41.68c-.72.63-1.47,1.22-2.2,1.83-.35.28-.7.57-1,.88-1.14,1.09-2.27,2.17-3.4,3.27-.1.1-.36.19-.15.4s.33.45.63.17.62-.51.92-.79c1-.92,1.94-1.87,2.93-2.79s2.13-2,3.2-2.94a.77.77,0,0,1,.27-.07c0,.09,0,.21-.08.27l-1.57,1.45c-.27.25-.52.53-.79.78-.88.84-1.79,1.66-2.64,2.53-.63.64-1.19,1.35-1.78,2a1.54,1.54,0,0,1-.34.29.77.77,0,0,1-1.21-.58c0-.06,0-.12,0-.18a.67.67,0,0,0-.19.14,3.53,3.53,0,0,1-1,.57.5.5,0,0,1-.65-.17c-.13-.19-.33-.48,0-.75.06-.05.09-.13.15-.19l.3-.29a1.53,1.53,0,0,1,.09.4c0,.33.18.32.36.23a10.42,10.42,0,0,0,1-.61A5.1,5.1,0,0,0,102.39,47.61Zm23.5-20.06.73-.73c.15-.17.35-.28.37-.58s.32-.3.51-.22a.66.66,0,0,1,.25.42c-.26.27,0,.38.12.52s.23.23,0,.42-.29.51-.48.72c-.45.49-.91,1-1.4,1.4s-.77.59-1.14.89c-.53.43-1,.89-1.58,1.31a20.48,20.48,0,0,1-3.89,2.7,3.69,3.69,0,0,1-.65.18.19.19,0,0,1-.11-.12.17.17,0,0,1,.08-.14c.34-.14.7-.24,1-.4a10.78,10.78,0,0,0,2.35-1.67c.49-.44,1-.82,1.53-1.23.08-.06.18-.1.26-.17.75-.7,1.51-1.38,2.22-2.11a18.58,18.58,0,0,0,1.27-1.52c0-.06,0-.18.06-.27s-.13.09-.18.14a19.13,19.13,0,0,1-2,1.66c-1.11.72-2,1.7-3,2.47-.7.5-1.38,1-2.1,1.5a9,9,0,0,1-1.44.66c-.08,0-.3,0-.32-.08-.06-.22.14-.14.25-.17a10.29,10.29,0,0,0,2.61-1.5c.58-.41,1.15-.84,1.72-1.27a3.83,3.83,0,0,0,.44-.36Zm-12.74-16.3c.23,0,.56-.17.5.28,0,0,.13.06.2.09a1.2,1.2,0,0,1,.35.1c.17.11.21.12.34,0s.19-.21.29-.22.47,0,.54.09a1.12,1.12,0,0,1,.07.66c0,.14-.17.28-.26.41A23.44,23.44,0,0,1,113,15.25a11.63,11.63,0,0,0-.8,1.05c-.09.11-.26.14-.36.24s-.19,0-.16-.07a1.47,1.47,0,0,1,.26-.55c.59-.71,1.22-1.39,1.81-2.1.38-.46.72-1,1.07-1.47,0,0-.11-.2-.12-.19-.25.08-.54,0-.71.35a4.13,4.13,0,0,1-.68.71l-2.48,2.61a1.79,1.79,0,0,1-.28.27,2.24,2.24,0,0,1-.52.24c-.17-.27.13-.35.26-.49.66-.72,1.33-1.42,2-2.14.37-.41.74-.84,1.1-1.26a1.19,1.19,0,0,0,.11-.26.76.76,0,0,0-.27.06,27.13,27.13,0,0,0-2.66,2.37c-.58.56-1.22,1.07-1.84,1.58-.09.07-.24.06-.35.09s0-.27.1-.35l1.15-1,1.82-1.68a9.39,9.39,0,0,1,.84-.83C112.69,12.11,112.78,11.62,113.15,11.25Zm-7.72,14.59a5.43,5.43,0,0,1-.62.11,4.25,4.25,0,0,1,.37-.47c.34-.33.71-.63,1-1,.65-.67,1.28-1.37,1.92-2,.16-.17,0-.15-.08-.16l0,0a2.54,2.54,0,0,1,.4-.46.35.35,0,0,1,.33,0c.09.09.18.33.14.38s-.1.27,0,.43c.32.42.3.43,0,.91a2.24,2.24,0,0,0-.13.27.57.57,0,0,0,0,.13.58.58,0,0,0,.14,0c.12-.07.21-.32.35-.12a.62.62,0,0,1,.1.56,3.8,3.8,0,0,1-.68.71,14.58,14.58,0,0,1-1.25,1.11c-.82.6-1.67,1.17-2.52,1.72a2.07,2.07,0,0,1-.71.19c-.06,0-.13-.07-.19-.11s.1-.14.15-.14a3,3,0,0,0,1.55-.87c.8-.6,1.55-1.27,2.32-1.91a9,9,0,0,0,.69-.69.29.29,0,0,0,0-.22.24.24,0,0,0-.18-.1,1.26,1.26,0,0,0-.32.18c-.46.42-.92.85-1.39,1.26-.76.65-1.53,1.29-2.32,1.9a1.68,1.68,0,0,1-.7.15c.15-.14.3-.29.47-.42.34-.27.73-.5,1-.8,1-.88,1.9-1.79,2.84-2.7a1.85,1.85,0,0,0,.28-.28.54.54,0,0,0,0-.22c-.08,0-.17,0-.22,0s-.22.22-.33.32c-.43.39-.88.77-1.3,1.17S105.85,25.42,105.43,25.84Zm27.35,30.78a2.54,2.54,0,0,0-.39,0,2.63,2.63,0,0,1-.39.06,1.28,1.28,0,0,1,.29-.59,5.92,5.92,0,0,0,1.39-1.1c.4-.39.84-.73,1.24-1.12s.43-.64.72-.8a3.63,3.63,0,0,0,.86-.64,34.55,34.55,0,0,0,2.3-2.66,22.56,22.56,0,0,0,1.94-2.63.9.9,0,0,1,.28-.27c.06,0,.17,0,.25,0a.85.85,0,0,0,0,.22c.06.56-.35.94-.61,1.33a24.53,24.53,0,0,1-1.7,2.14c-.56.69-1.08,1.42-1.69,2.05-.3.31-.51.86-1.13.74-.09,0-.22.12-.3.2-.66.7-1.3,1.4-2,2.09-.28.29-.61.53-1,.83ZM82.07,39.56c.77-.68,1.54-1.31,2.24-2,.52-.5.94-1.1,1.41-1.65a.66.66,0,0,1,.19-.09c0,.06,0,.13,0,.18a5.12,5.12,0,0,1-.44.8c-.3.39-.65.75-1,1.12L83,39.72a.33.33,0,0,0-.06.1c.06,0,.14.06.18,0a3.08,3.08,0,0,0,.59-.33c.3-.26.55-.57.84-.83l2.32-2.05a.63.63,0,0,1,.27-.14.19.19,0,0,1,.18,0,.17.17,0,0,1,0,.17c-.51.48-1,.92-1.52,1.41S85,39,84.67,39.46a10.77,10.77,0,0,1-.83,1,.69.69,0,0,1-1.2-.24c-.06-.2,0-.18-.21-.07a9.88,9.88,0,0,1-1,.56.61.61,0,0,1-.34.1.43.43,0,0,1-.32-.16A.38.38,0,0,1,81,40.3C81.3,40.05,81.67,39.83,82.07,39.56Zm2.51-4.35c.17-.22.3-.41.45-.58s.12,0,.18,0,.05.17,0,.22a3.46,3.46,0,0,1-.32.46,20.65,20.65,0,0,1-3.19,3.08,15.5,15.5,0,0,0-1.23,1.33c-.2.21-.36.49-.74.45a.57.57,0,0,1-.53-.75,2.44,2.44,0,0,1,.14-.28c.08-.12.16-.24.23-.36-.14.09-.35.16-.4.29-.23.59-.79.62-1.25.83h-.13c-.37,0-.59-.06-.59-.31s.3-.32.49-.34a2.31,2.31,0,0,0,1.43-.69c1.1-1,2.18-2.08,3.27-3.12a.29.29,0,0,1,.22-.08c.2.1.06.19,0,.28l-1.49,1.62a2.65,2.65,0,0,1-.56.55c-.61.32-.46,1-.79,1.47,0,0,0,.08,0,.08a.31.31,0,0,0,.17,0c.36-.26.72-.51,1.06-.79.92-.77,1.83-1.54,2.72-2.34A11.56,11.56,0,0,0,84.58,35.21Zm71,5.21c.14.58-.33.84-.59,1.15-.58.69-1.24,1.3-1.77,2-.2.28-.61.42-.89.67s-.81.79-1.2,1.2c-.11.11-.17.28-.29.4a14.37,14.37,0,0,0-2.1,2.62,2.06,2.06,0,0,1-.51.51c-.08.07-.23.06-.35.08s-.08-.27,0-.37a1.89,1.89,0,0,1,.31-.53c.61-.76,1.21-1.53,1.86-2.25.45-.49,1-.91,1.47-1.36.1-.09.28-.19.27-.27,0-.51.35-.66.65-.92.53-.48,1-1,1.5-1.55s.85-.91,1.3-1.35C155.27,40.41,155.43,40.42,155.58,40.42Zm-43-23.56c.4-.36.8-.65,1.13-1,.58-.63,1.14-1.28,1.68-1.94.24-.28.22-.4,0-.85a.14.14,0,0,1,0-.14,1,1,0,0,1,.23-.23c.12-.07.29-.17.39-.13a.45.45,0,0,1,.2.35c0,.23-.09.45-.11.67s0,.39.2.25.39-.19.49,0a1.33,1.33,0,0,1,0,.66c0,.09-.12.17-.19.25a11.53,11.53,0,0,1-1.92,2,5.77,5.77,0,0,0-.71.69c-.35.3-.72.58-1.09.86a.61.61,0,0,1-.24.07c0-.09,0-.21,0-.26s.37-.38.55-.56c.79-.79,1.59-1.58,2.37-2.37a9.73,9.73,0,0,0,.65-.79.67.67,0,0,0,.09-.14l-.18,0c-.49-.1-.68.32-1,.54s-.41.35-.61.53a2.5,2.5,0,0,0-.23.23l-1.86,1.85a6.06,6.06,0,0,1-.74.6c-.09.06-.24,0-.35,0s0-.24.12-.31C111.87,17.45,112.2,17.18,112.56,16.86Zm63.15,31.48a5.27,5.27,0,0,0-.41.41c-.2.26-.32-.13-.5-.06,0-.13,0-.32,0-.39,1-.93,1.69-2.13,2.91-2.8.15-.08.24-.26.38-.36s.25-.15.33-.12c.35.13.47,0,.63-.31a9.24,9.24,0,0,1,.82-1.18.48.48,0,0,1,.38-.09c.06,0,.13.19.13.29,0,.49-.38.81-.64,1.18s-.58.78-.88,1.16c-.06.08-.14.21-.23.22a4.36,4.36,0,0,1-.62,0l.23-.36.39-.6c-.35,0-.46.28-.64.47C177.25,46.6,176.5,47.46,175.71,48.34Zm-37.29,4.42a8.75,8.75,0,0,1-.69.68.45.45,0,0,1-.53,0c-.16-.13-.08-.3.06-.44.3-.29.6-.57.88-.88.5-.58,1-1.15,1.48-1.76s1.1-1.52,1.64-2.28c.3-.42.58-.86.9-1.27a2.65,2.65,0,0,1,.52-.48s.16,0,.24,0,0,.16,0,.22c-1,1.5-2,3-3,4.47a14.59,14.59,0,0,1-1.1,1.26C138.63,52.44,138.55,52.59,138.42,52.76Zm-88,18c.42-.33.81-.61,1.18-.92L53.73,68c.13-.11.35-.13.49-.24s.37-.37.56-.54l.92-.8,1.39-1.26c.07-.06.1-.18.24,0s0,.18,0,.24l-1.35,1.21c-.28.27-.54.57-.83.83L52,70.33a3.39,3.39,0,0,1-.69.56c-.41.22-.59.74-1.09.84-.32.06-.64.15-1,.19s-.42-.35-.35-.54a.21.21,0,0,1,.18-.1A2.21,2.21,0,0,0,50.46,70.78Zm40.35-13.5a17.57,17.57,0,0,0,1.69-1.64,21.16,21.16,0,0,0,2.67-3.57c.13-.23.27-.46.42-.68a.15.15,0,0,1,.17,0,.17.17,0,0,1,.06.16c-.12.21-.27.41-.39.63a16.07,16.07,0,0,1-2,2.81c-.36.42-.65.9-1,1.28-.66.64-1.38,1.22-2.06,1.84a9,9,0,0,0-1.12,1.11,3.51,3.51,0,0,1-1.52,1.09.93.93,0,0,1-.57,0,.48.48,0,0,1-.29-.33c0-.08.14-.25.25-.3a1.17,1.17,0,0,1,.6-.13,1,1,0,0,0,.84-.36C89.31,58.58,90,57.92,90.81,57.28Zm2.54,3.07a3.74,3.74,0,0,1-.69.35c-.22.07-.37-.06-.39-.29s0-.28.26-.39a2.14,2.14,0,0,0,1.33-1.36c0-.07.12-.12.18-.19a2,2,0,0,1,.07.23c0,.14,0,.21.17.07.68-.61,1.4-1.2,2.07-1.82,1-.9,1.92-1.84,2.89-2.75a4.77,4.77,0,0,0,.94-1.25,2.18,2.18,0,0,1,.22-.31.64.64,0,0,1,.14-.08c0,.06,0,.14,0,.18a4.53,4.53,0,0,1-.52,1c-.53.63-1.09,1.23-1.68,1.81s-1.34,1.29-2,1.91-1.45,1.26-2.16,1.91C93.89,59.67,93.65,60,93.35,60.35Zm11,2c.07-.15.17-.35.28-.35a1.33,1.33,0,0,0,1.1-.69c.36-.48.79-.9,1.2-1.35,1-1.11,2.08-2.2,3.07-3.35.58-.68,1.05-1.45,1.57-2.17a1.08,1.08,0,0,1,.16-.2.22.22,0,0,1,.17,0,.17.17,0,0,1,.06.16,2.1,2.1,0,0,1-.21.51,32,32,0,0,1-2.45,3,27.87,27.87,0,0,0-2.78,3.25c-.28.44-.65.83-1,1.25a.66.66,0,0,1-.55.25A.67.67,0,0,1,104.31,62.4ZM77.58,65.56l.17-.17c.1-.11.21-.21.32-.32a2.35,2.35,0,0,1-.14.4c-.57.89-1.13,1.78-1.72,2.65s-1.49,1.7-2.07,2.7a6.92,6.92,0,0,1-1.2,1.35,1.51,1.51,0,0,1-.6.28.29.29,0,0,1-.39-.23.61.61,0,0,1,.16-.39c.7-.72,1.43-1.42,2.13-2.14a14.58,14.58,0,0,0,1.11-1.25C76.1,67.5,76.82,66.55,77.58,65.56Zm34.35-17.12a2.1,2.1,0,0,1,.15-.6c.06-.13.21-.21.31-.32a1.6,1.6,0,0,1,.19.45c0,.31.17.24.32.09,1-1,2.12-2,3.1-3.13s2.07-2.48,3.1-3.72c.12-.15.27-.28.4-.43a4.49,4.49,0,0,1-.26.54c-.65.88-1.29,1.76-2,2.62-.32.41-.69.77-1,1.16-.66.76-1.31,1.53-2,2.29l-1,1.17a1.16,1.16,0,0,1-1,.41C112,49,111.91,48.78,111.93,48.44Zm.76-4.39a8.91,8.91,0,0,0,1.48-1.67.39.39,0,0,1,.17-.14s.12,0,.18,0a.39.39,0,0,1,0,.14,16,16,0,0,1-1,1.28c-1.36,1.4-2.76,2.76-4.13,4.15-.62.63-1.2,1.3-1.82,1.94a1.32,1.32,0,0,1-1.1.52c-.38,0-.5-.2-.32-.54a3,3,0,0,1,.47-.59s.19,0,.21,0c.22.29.41.12.6,0a9.86,9.86,0,0,0,.79-.66C109.65,47,111.15,45.54,112.69,44.05Zm-3.76,1.65-2.65,2.77a8.84,8.84,0,0,1-1.15,1.14.66.66,0,0,1-1.07-.26c-.16-.35.11-.54.27-.77a3.57,3.57,0,0,1,.28-.27c0,.13,0,.25.06.38s0,.4.31.17.48-.25.67-.42c1-.95,2.07-1.88,3-2.9a16.63,16.63,0,0,0,2.91-3.66c0-.07.12-.1.18-.15,0,.1.08.23,0,.3a5.73,5.73,0,0,1-.56,1C110.49,43.89,109.72,44.78,108.93,45.7Zm5.28-1.05c-.41.53-.76,1.05-1.16,1.54-.6.72-1.23,1.42-1.86,2.13-.49.54-1,1.09-1.49,1.62a.75.75,0,0,1-1.16-.08c-.07-.1-.14-.28-.1-.36s.3-.39.53-.24.58,0,.82-.19.74-.59,1-.94A41.81,41.81,0,0,0,114,44.49c.6-.86,1.29-1.66,2-2.49a.83.83,0,0,1,.18-.13c0,.08.07.18,0,.24-.17.26-.34.52-.53.77C115.17,43.46,114.7,44,114.21,44.65ZM95,54.87c.5-.45,1-.85,1.42-1.29s.69-.77,1-1.15a.8.8,0,0,1,.19-.13c0,.1.06.24,0,.3a5.45,5.45,0,0,1-.61.74c-.38.37-.8.71-1.19,1.08s-.51.54-.79.78c-.89.77-1.79,1.51-2.68,2.29-.28.25-.46.7-.77.81a2.53,2.53,0,0,0-.88.72c-.38.36-.7.77-1,1.15a1.14,1.14,0,0,1-.19.19c-.2.16-.65.14-.75-.06s.15-.38.32-.51.55-.39.81-.6c.79-.64,1.57-1.3,2.35-1.95.61-.51,1.2-1,1.8-1.54Zm41.25-4a3.12,3.12,0,0,1,.22-.35c.49-.55,1-1,1.48-1.63a20.62,20.62,0,0,0,1.83-2.33,3.06,3.06,0,0,1,.5-.52.57.57,0,0,1,.23-.08c0,.1.08.22.05.3a3.91,3.91,0,0,1-.45.86c-.4.51-.87,1-1.26,1.48a16,16,0,0,0-1.49,1.78,9.43,9.43,0,0,1-1.19,1.36c-.24.27-.46.55-.7.82-.05.07-.11.17-.19.18s-.38.11-.47,0,0-.3.1-.44Zm-35.57-3.63c-.53.48-1,1-1.53,1.37a2.32,2.32,0,0,1-.83.37c-.22.06-.38,0-.54-.3s0-.37.13-.52.33-.36.56,0c0,0,.22,0,.3,0a12.75,12.75,0,0,0,1.1-.7,48.48,48.48,0,0,0,5.51-5.11,2.47,2.47,0,0,0,.75-1.34s.07-.08.11-.13.14.11.14.16a1,1,0,0,1-.1.28,4.34,4.34,0,0,1-1.07,1.6c-.58.56-1.14,1.15-1.72,1.71Zm60-3.37c.67-.8,1.32-1.56,1.94-2.34.3-.37.53-.8.8-1.19s.79-1.08,1.19-1.61a.75.75,0,0,1,.3-.26.29.29,0,0,1,.26.07.28.28,0,0,1,0,.26,8.61,8.61,0,0,1-.84,1.23,13.9,13.9,0,0,0-1,1.56c-.35.53-.73,1-1.12,1.52s-.64.75-1,1.11-.56.11-.69-.22C160.53,44,160.6,43.92,160.66,43.85ZM110.18,58.44c.61-.61,1.19-1.18,1.75-1.76.25-.26.47-.55.7-.83a1.22,1.22,0,0,1,.19-.12c0,.08.06.18,0,.25a2.74,2.74,0,0,1-.39.69c-.68.71-1.4,1.39-2.08,2.1-.85.87-1.69,1.75-2.51,2.64-.53.58-1,1.2-1.54,1.79a1.63,1.63,0,0,1-.45.33.5.5,0,0,1-.67-.25.29.29,0,0,1,.13-.26c.8-.25,1.24-1,1.91-1.41.22-.14.34-.44.53-.63.66-.68,1.33-1.34,2-2A6.58,6.58,0,0,0,110.18,58.44ZM60.06,69c.79-.55,1.52-1.08,2.22-1.64,1-.78,1.94-1.58,2.91-2.37l1-.83s.14,0,.22,0,0,.14,0,.18c-.44.45-.89.91-1.35,1.35-.23.22-.5.39-.73.61a11.42,11.42,0,0,1-1.88,1.51,3.37,3.37,0,0,0-.48.45c-.53.45-1.07.91-1.62,1.34a1.07,1.07,0,0,1-.54.27.73.73,0,0,1-.56-.14c-.09-.08-.06-.33,0-.49s.15-.09.24-.12A6.68,6.68,0,0,1,60.06,69Zm95.12-33.69c.27-.35.5-.67.74-1a3.2,3.2,0,0,1,.42-.55,12,12,0,0,0,1.58-2c.05-.07.18-.09.27-.15s.14-.18.23,0a.62.62,0,0,1,.05.27.33.33,0,0,1-.09.16,9.55,9.55,0,0,1-.93,1.24,15,15,0,0,0-1.31,1.77c-.6.79-1.23,1.55-1.84,2.33a.5.5,0,0,1-.51.2c-.26,0-.33-.23-.17-.44s.39-.5.6-.74Zm-12.1,35.14c-.16-.55-.15-.54.34-.81a5.85,5.85,0,0,0,1.47-1.06c.62-.63,1.3-1.2,1.94-1.82s1.3-1.29,1.93-1.94c.21-.21.37-.46.57-.68a1.49,1.49,0,0,1,.34-.28c.06,0,.16,0,.24,0a.67.67,0,0,1-.09.14c-.35.36-.71.7-1.06,1.07s-.6.67-.88,1-.67.87-1,1.28A16.23,16.23,0,0,1,145.36,69a6.75,6.75,0,0,1-2,1.45A1.08,1.08,0,0,1,143.08,70.48Zm6.5-33.09c-.21.15-.38.27-.54.4a.32.32,0,0,1-.5,0,.3.3,0,0,1,.08-.45c.19-.16.41-.29.59-.47s.36-.47.56-.68c.44-.46.91-.9,1.35-1.36a13.48,13.48,0,0,0,2-2.46s.06-.13.1-.15.24-.06.36-.1c0,.12.08.28,0,.36-.28.43-.56.87-.88,1.28s-.86,1-1.25,1.52A16.61,16.61,0,0,1,149.58,37.39Zm-78,13.46L69.33,52.7a1.08,1.08,0,0,1-.44.22c-.22,0-.51.09-.63-.19s.13-.43.31-.58a1.05,1.05,0,0,1,.49-.23c.5,0,.79-.44,1.17-.67a8.85,8.85,0,0,0,.89-.73l2.49-2.1A1,1,0,0,1,74,48.2a.28.28,0,0,1,.26.11.3.3,0,0,1,0,.26c-.33.31-.67.6-1,.89C72.69,49.92,72.15,50.36,71.58,50.85Zm79.71-13.73c-.09.1-.17.15-.22.22-.19.29-.34.23-.57,0s-.1-.24,0-.38c.65-.72,1.29-1.44,1.91-2.17.84-1,1.65-2,2.48-3a.62.62,0,0,1,.18-.18,2.1,2.1,0,0,1,.36,0,1.34,1.34,0,0,0-.07.27c-.1.57-.58.89-.91,1.26-.75.84-1.31,1.81-2,2.66C152.08,36.22,151.7,36.65,151.29,37.12Zm8.05,6.6c.38-.46.69-.91,1.06-1.31.79-.87,1.61-1.71,2.41-2.56.12-.12.18-.28.29-.41a.27.27,0,0,1,.48,0s-.06.18-.12.27l-1.12,1.44a5.07,5.07,0,0,1-.37.44,16.81,16.81,0,0,0-1.91,2.29,8,8,0,0,1-1,1c-.06.06-.16.14-.2.12s-.41-.13-.5-.27.15-.22.26-.33Zm-.92-1.32c.58-.58,1.13-1.11,1.66-1.67.31-.32.6-.67.89-1,.12-.15.26-.19.36,0a.34.34,0,0,1,0,.31c-.61.72-1.24,1.42-1.85,2.14s-1.17,1.46-1.78,2.16c-.32.36-.62.84-1.23.68a1,1,0,0,1-.27-.15,1.3,1.3,0,0,1,.15-.23c.5-.5,1-1,1.49-1.5C158,42.91,158.2,42.66,158.42,42.4ZM141.1,51.34c-.27.46-.53.86-.79,1.25-.12.18-.22.4-.38.49a.67.67,0,0,1-.57,0c-.24-.15-.12-.36.06-.52a12.26,12.26,0,0,0,2.07-2.83c.27-.39.59-.76.85-1.16s.58-1,.87-1.48c.06-.11.08-.26.16-.32a1.72,1.72,0,0,1,.45-.16,2.71,2.71,0,0,1,0,.4,8.4,8.4,0,0,1-1.7,2.78A8.73,8.73,0,0,0,141.1,51.34Zm4.05,16.2L143.68,69a3.41,3.41,0,0,1-1.38.79c-.12,0-.27,0-.41-.07.08-.19-.19-.47.18-.58a7.08,7.08,0,0,0,2.71-2c.79-.78,1.57-1.58,2.37-2.36.26-.25.55-.47.83-.69a.25.25,0,0,1,.17,0,1.13,1.13,0,0,1,.18,0,.48.48,0,0,1-.09.14c-.45.41-.92.79-1.33,1.22-.26.27-.43.62-.67.9S145.54,67.11,145.15,67.54Zm.4-18.21c-.58.79-1.12,1.56-1.7,2.3-.09.12-.38.07-.58.1,0-.09,0-.2,0-.26.35-.5.71-1,1.07-1.47.49-.68,1-1.33,1.48-2s.9-1.43,1.36-2.14a1.62,1.62,0,0,1,.37-.37c.05,0,.15,0,.22,0a1.64,1.64,0,0,1,0,.23,8.56,8.56,0,0,1-1.49,2.67C146.05,48.66,145.82,49,145.55,49.33ZM52.17,66.16a3.75,3.75,0,0,0,.35-.22c.49-.48,1-1,1.45-1.44a1.51,1.51,0,0,1,.37-.22s.08,0,.13,0,0,.1,0,.14a7.34,7.34,0,0,1-.56.69c-1.21,1.21-2.41,2.43-3.63,3.63-.65.63-1.32,1.24-2,1.86-.15.13-.32.28-.5.16s-.3-.37.05-.64c.61-.48,1.25-.93,1.83-1.45s1.24-1.23,1.86-1.85Zm90.25-15.61c.46-.71.92-1.35,1.39-2s.86-1.13,1.3-1.69c.27-.34.56-.65.84-1a2.65,2.65,0,0,1,.41-.41,1.27,1.27,0,0,1,.36-.08c-.06.1-.11.2-.17.28-1.13,1.55-2.34,3-3.32,4.68a9.51,9.51,0,0,1-1,1.49.41.41,0,0,1-.56.16c-.22-.1-.21-.14-.08-.3C141.86,51.36,142.14,51,142.42,50.55Zm-23.1-7.39a30.87,30.87,0,0,0,2.25-2.82,9.6,9.6,0,0,1,.64-.79s.14,0,.22-.08-.06.13-.07.19c-.11.53-.56.83-.85,1.22-.9,1.22-1.85,2.4-2.78,3.6l-2.28,2.93a1,1,0,0,1-1.23.3c-.14-.12-.19-.23,0-.37s.15-.19.24-.21c.87-.21,1.29-.92,1.79-1.54.23-.3.49-.6.74-.88C118.42,44.21,118.87,43.72,119.32,43.16ZM158.22,41c0-.08,0-.14,0-.17.19-.2.39-.39.59-.59a2.87,2.87,0,0,1,0,.93,4,4,0,0,1-.69,1.09c-.87.95-1.76,1.87-2.66,2.8a.72.72,0,0,1-.9.14c-.19-.14-.21-.31,0-.41a5.51,5.51,0,0,0,1.56-1.32c.67-.72,1.31-1.47,2-2.22A2.73,2.73,0,0,0,158.22,41Zm-22.3,6.33c-.68.68-1.33,1.31-2,2s-1.25,1.35-1.9,2a4.63,4.63,0,0,1-.69.55c-.09.07-.27.14-.34.1a1.41,1.41,0,0,1-.47-.44c-.05-.1.52-.5.61-.43.29.24.46,0,.59-.15,1.09-1.1,2.14-2.23,3.23-3.33a4.46,4.46,0,0,0,1.16-1.56.57.57,0,0,1,.28-.27c.08,0,.2,0,.31,0s0,.17-.07.22a.66.66,0,0,0-.23.61C136.44,46.88,136.12,47.1,135.92,47.35Zm20-5.74.89-1.13c.1-.11.2-.23.31-.33s.27-.19.41-.29c0,.2.12.45,0,.6a4.39,4.39,0,0,1-.69,1c-1,1.1-2.07,2.17-3.12,3.26a2,2,0,0,1-.39.31c-.07,0-.18.1-.24.07a1.6,1.6,0,0,1-.4-.28s0-.16.09-.21ZM87.22,59.23l-.49.22a.52.52,0,0,1-.76-.22c-.12-.19,0-.38.21-.36a1.33,1.33,0,0,0,1.07-.45c1-.88,2-1.67,3-2.6.76-.74,1.62-1.38,2.43-2.06l1.81-1.53s.09,0,.13,0,0,.14,0,.17c-.44.46-.87.92-1.35,1.35s-1,.77-1.42,1.17S91,55.6,90.59,56a15.48,15.48,0,0,1-1.75,1.49,5.52,5.52,0,0,0-.67.77C87.87,58.58,87.56,58.88,87.22,59.23ZM101.6,43l-1.87,1.48c-.38.31-.74.65-1.11,1A7.5,7.5,0,0,1,96,47a2.81,2.81,0,0,1-.49.09c-.24,0-.49,0-.43-.32s.31-.47.42-.45a2.61,2.61,0,0,0,1.75-.47,9.4,9.4,0,0,0,1.52-1.09c.68-.5,1.38-1,2-1.51A2.73,2.73,0,0,0,101.85,42c0-.09,0-.36.26-.23s.1.18.08.33A1.64,1.64,0,0,1,101.6,43Zm-3.69,4.88c-.29.14-.52.24-.79,0s-.33-.3-.22-.46.19-.53.54-.26a.39.39,0,0,0,.35,0,5.21,5.21,0,0,0,1-.65c1.06-1,2.08-2,3.13-3a6.23,6.23,0,0,0,1.37-1.81c.08-.15.12-.2.26-.18s.1.09.09.12a1.85,1.85,0,0,1-.23.62A18.37,18.37,0,0,1,102.06,44c-1.06,1.11-2.16,2.19-3.26,3.26A8.2,8.2,0,0,1,97.91,47.88ZM42.34,69.66a8.91,8.91,0,0,1-1,.72c-.54.28-.83.91-1.46,1.09-.36.1-.62.07-.76-.23a.53.53,0,0,1,0-.35c.06-.15.15-.06.28,0,.49.12.82-.26,1.16-.51Q42.37,69,44.1,67.57c.44-.35.82-.78,1.23-1.16a1.65,1.65,0,0,1,.41-.28,2.67,2.67,0,0,1,.4-.13c-.07.11-.14.21-.2.32A7.76,7.76,0,0,1,44.09,68C43.51,68.55,43,69.09,42.34,69.66ZM88.07,56.13c1-.69,1.88-1.32,2.78-2,.74-.56,1.45-1.17,2.17-1.76,0,0,.09-.11.14-.14a2.16,2.16,0,0,1,.27,0c0,.08,0,.17-.06.22a5.76,5.76,0,0,1-.6.61c-.81.64-1.62,1.27-2.44,1.89s-1.59,1.24-2.43,1.78-1.46,1.38-2.3,1.91c-.37.23-.78.45-1.22.14a1.54,1.54,0,0,1-.17-.19c-.1-.11-.22-.23.05-.2a1.86,1.86,0,0,0,1.35-.4c.31-.21.61-.44.92-.66ZM46.5,67.87c-.61.65-1.19,1.26-1.75,1.89-.42.48-.8,1-1.22,1.47a3.19,3.19,0,0,1-.64.51.93.93,0,0,1-1.17-.45c-.07-.2.09-.38.28-.27.51.29.82,0,1.15-.32l1.76-1.77L47,66.8a2.5,2.5,0,0,0,.23-.23c.18-.18.35-.35.64-.26a3.75,3.75,0,0,1-.36.5C47.22,67.17,46.87,67.5,46.5,67.87ZM153.6,36.53l-1,1c-.23.24-.39.12-.59-.06s-.09-.18,0-.29c.78-.86,1.6-1.69,2.32-2.61a7.89,7.89,0,0,0,1.38-1.86c0-.1.24-.17.37-.19s.38.1.25.34a6.59,6.59,0,0,1-.56.82q-.75,1-1.53,2C154.08,35.93,153.85,36.21,153.6,36.53Zm-3.66,6a2.46,2.46,0,0,0-1.17.69c-.23.25-.42.22-.59,0a.3.3,0,0,1,.06-.5,9,9,0,0,1,1.37-.82c.21-.09.6-.18.73.27,0,.16.16.14.26,0a3.72,3.72,0,0,1,1.22-.9.39.39,0,0,1,.39.07,1.16,1.16,0,0,1,.1.47s-.08.08-.1.07-.28-.15-.37.12-.27.18-.39.29c-.47.41-.93.83-1.39,1.25-.29.27-.45.26-.68,0s-.24-.37.12-.45a1.59,1.59,0,0,0,.49-.24S150,42.59,149.94,42.5ZM34,68.2a31.44,31.44,0,0,0,4-3.33.66.66,0,0,1,.15-.14.67.67,0,0,1,.17-.06,1.16,1.16,0,0,1,0,.18A4.06,4.06,0,0,1,37,66.39c-.77.72-1.71,1.23-2.48,2A13.68,13.68,0,0,1,33,69.53c-.08.06-.21.07-.26.15-.4.51-1,.4-1.48.4a.39.39,0,0,1-.27-.15.49.49,0,0,1-.05-.3s.14-.06.22-.07a6,6,0,0,0,.74-.12A7.51,7.51,0,0,0,34,68.2Zm72.32-9c-.49.61-.95,1.19-1.42,1.76a7.49,7.49,0,0,0-1,1.43c-.06.13-.19.44-.5.17s-.15-.38,0-.56a17.64,17.64,0,0,1,1.17-1.42c1.6-1.67,3.22-3.33,4.84-5,.06-.06.12-.3.27-.1a.43.43,0,0,1,0,.35,2.58,2.58,0,0,1-.36.38Zm49.49-9.9c-.54.5-1.06,1-1.55,1.43s-.95,1.06-1.45,1.56a12.29,12.29,0,0,1-1,.87.84.84,0,0,1-.21.11c-.28.1-.68,0-.75-.2s.17-.45.54-.58a2.55,2.55,0,0,0,.79-.47c.38-.33.7-.73,1.08-1.06.88-.77,1.78-1.53,2.68-2.28.07-.06.2-.06.31-.09-.06.16.18.39-.13.49C156,49.13,156,49.23,155.84,49.33Zm.07,1.91c-.48.44-.94.82-1.36,1.24a9.44,9.44,0,0,0-.78,1,1.27,1.27,0,0,1-1.09.64.22.22,0,0,1-.19-.37,1.7,1.7,0,0,1,.19-.19c.65-.65,1.28-1.31,1.95-1.94s1.41-1.25,2.12-1.86a3.37,3.37,0,0,1,.32-.19.22.22,0,0,1,.37.16c0,.13.19.36-.17.45A2.12,2.12,0,0,0,155.91,51.24ZM50.33,66a3.42,3.42,0,0,1,.27-.27s.11,0,.17,0,0,.18,0,.22a10.59,10.59,0,0,1-1.65,1.83c-.75.6-1.33,1.42-2,2.1-.37.37-.83.65-1.22,1s-.5.1-.75.1c-.08,0-.19-.19-.23-.31s.12-.21.21-.22c.65-.07,1-.57,1.53-.91.12-.09.17-.29.29-.38.86-.7,1.6-1.53,2.52-2.16A5.65,5.65,0,0,0,50.33,66Zm96-1.13c-.76.81-1.5,1.57-2.21,2.36a5.16,5.16,0,0,1-1.66,1.38c-.05,0-.11.13-.14.12-.19-.05-.47.17-.56-.12a.63.63,0,0,1,.43-.66,1.48,1.48,0,0,0,1-.56c.69-.67,1.37-1.36,2.05-2,.41-.42.83-.84,1.25-1.25a1.26,1.26,0,0,1,.36-.24s.12,0,.18,0a.61.61,0,0,1-.07.14C146.75,64.32,146.56,64.6,146.34,64.9ZM130.83,49.53l.91-.91.28-.28,2.28-2.14a1.13,1.13,0,0,1,.27-.13c0,.12.07.26,0,.35a2.46,2.46,0,0,1-.41.55l-3.07,3.08a5.29,5.29,0,0,0-.47.59.75.75,0,0,1-.88.31c-.31-.1-.38-.32-.17-.57a3.58,3.58,0,0,1,.52-.51c.09-.08.3-.54.3.06,0,.13.08.09.13,0A2.78,2.78,0,0,1,130.83,49.53Zm-63,1.81A7,7,0,0,0,70.23,50c.63-.49,1.24-1,1.89-1.47.14-.1.41-.38.6-.09s-.11.4-.28.53c-1.06.86-2.12,1.73-3.22,2.54a4.88,4.88,0,0,1-1.28.54.37.37,0,0,1-.48-.22C67.4,51.55,67.5,51.36,67.85,51.34ZM151.09,34c-.76.76-1.48,1.5-2.22,2.22a7.6,7.6,0,0,1-.92.65c-.36.25-.22-.23-.4-.29s0-.2,0-.27c.9-.78,1.82-1.54,2.72-2.33.23-.21.39-.5.61-.73s.29-.17.4-.29.28-.18.36,0a.52.52,0,0,1,0,.44A4.59,4.59,0,0,1,151.09,34ZM99.65,61.6a.46.46,0,0,1-.56-.19c-.17-.23-.13-.31.13-.44a1.74,1.74,0,0,0,.62-.4c.4-.43.75-.92,1.14-1.37.22-.26.48-.49.73-.74l4.05-4.05s.12-.09.18-.14.08.23,0,.3a1.67,1.67,0,0,1-.32.33c-.93.94-1.87,1.86-2.79,2.81a12.66,12.66,0,0,0-2.31,2.93C100.37,61,100,61.26,99.65,61.6ZM74.05,50.42c-.65.59-1.23,1.19-1.84,1.76A8.79,8.79,0,0,1,71,53.1a.63.63,0,0,1-.52,0c-.09,0-.12-.25-.13-.39s.09-.14.16-.19a7.27,7.27,0,0,0,.91-.5c.47-.37.89-.8,1.34-1.2L75,48.92s.06-.07.1-.08l.4-.13c0,.15,0,.35-.09.45A17.58,17.58,0,0,1,74.05,50.42Zm45.24-4c-.23.18-.34.49-.66.42a.5.5,0,0,1-.32-.17c0-.06,0-.23.11-.3a26.32,26.32,0,0,0,3.27-4.65c.44-.75.8-1.55,1.2-2.33,0-.08.11-.13.17-.2a.77.77,0,0,1,0,.25,13,13,0,0,1-1.81,3.67A24.81,24.81,0,0,0,119.29,46.43Zm36.82-9.37c-.58-.2-.55-.19-.28-.66.8-1.39,1.83-2.62,2.76-3.92a1.63,1.63,0,0,1,.56-.4.32.32,0,0,1,.28.07.3.3,0,0,1,0,.29,7.17,7.17,0,0,0-1.13,1.45,18.15,18.15,0,0,0-1,1.54c-.22.34-.43.7-.65,1S156.28,36.84,156.11,37.06ZM49.27,59.82c.48-.34.93-.64,1.36-1L53.07,57c0-.05.15,0,.22-.05s.06.19,0,.25a.92.92,0,0,1-.23.29L51,59.13c-.54.45-1.06.92-1.62,1.35A3.33,3.33,0,0,1,48,61.3a.46.46,0,0,1-.43-.17c-.16-.14-.09-.41.09-.41C48.32,60.72,48.72,60.19,49.27,59.82Zm103.67-9.3a8.32,8.32,0,0,0-1.39,1.31c-.27.4-.69.5-1,.79a.59.59,0,0,1-.83,0c-.1-.08-.2-.36-.14-.42s.2-.45.48-.27.34.07.5-.08c.52-.49,1-1,1.57-1.44s1.07-.91,1.62-1.34a.29.29,0,0,1,.3,0,.45.45,0,0,1,0,.31.4.4,0,0,1-.14.24C153.62,49.92,153.29,50.2,152.94,50.52ZM107.41,28.35c.66-.58,1.3-1.12,1.92-1.67.17-.15.38-.28.37-.58,0-.12.13-.31.38-.18s.39.22.21.45a5,5,0,0,1-.93,1.06c-1.38,1-2.8,2-4.2,3-.34.24-.68.47-1,.68a1,1,0,0,1-.47.13,3.43,3.43,0,0,1-.56-.05c.12-.19.33-.15.5-.22a3.91,3.91,0,0,0,1.15-.54A24,24,0,0,0,107.41,28.35Zm41.18,17.28a1,1,0,0,1,.22-.21,2.83,2.83,0,0,1,.31-.11c0,.11,0,.26,0,.3-.3.26-.25.66-.42,1-.55.94-1.13,1.86-1.71,2.78-.23.35-.49.67-.74,1a.58.58,0,0,1-.25.19.29.29,0,0,1-.24,0s0-.15,0-.21l1.53-2.59C147.71,47,148.14,46.35,148.59,45.63ZM107.74,30.79c-1.17.9-2.28,1.79-3.44,2.63-.48.33-1.06.51-1.57.81-.15.09-.17,0-.24,0s.09-.11.15-.13a13.92,13.92,0,0,0,2.83-1.91c.72-.58,1.48-1.11,2.2-1.69A13.94,13.94,0,0,0,109,29.24c.28-.29.76-.4.82-.9a.59.59,0,0,1,.37,0,.28.28,0,0,1,.1.44,4.56,4.56,0,0,1-.7.69C109,29.9,108.38,30.32,107.74,30.79Zm63.35,18.08c.39-.52.71-1,1.11-1.49.62-.69,1.29-1.32,1.94-2a4.66,4.66,0,0,1,.51-.48.27.27,0,0,1,.43.11c0,.09-.08.29-.18.37a15.63,15.63,0,0,0-2,2.15,9.7,9.7,0,0,0-1.25,1.67.41.41,0,0,1-.61.14C170.81,49.21,170.9,49.05,171.09,48.87ZM167.66,46l-2.51,2.51c-.09.09-.17.24-.28.27a.85.85,0,0,1-.57,0c-.22-.15,0-.33.13-.43.38-.43.79-.83,1.2-1.22.66-.63,1.33-1.25,2-1.87.05,0,.08-.12.14-.13s.42-.36.61-.14-.07.39-.22.54ZM72.17,53.29c.89-.89,1.73-1.74,2.59-2.59.32-.31.67-.6,1-.88a.64.64,0,0,1,.38-.18c.12,0,.25.11.38.17-.05.1-.07.26-.16.31A11.84,11.84,0,0,0,74,52.32c-.46.42-.84.93-1.27,1.37a.52.52,0,0,1-.44.11C72.06,53.72,72,53.53,72.17,53.29ZM50.66,57.12c.08-.08.12-.16.17-.17a2.19,2.19,0,0,1,.36,0c-.06.08-.12.15-.17.23a8,8,0,0,1-2,2.19c-.37.26-.68.59-1,.87a2.25,2.25,0,0,1-1.71.64c-.07,0-.16,0-.19,0s-.23-.18-.22-.27a.33.33,0,0,1,.24-.24A4.4,4.4,0,0,0,48.66,59,25.89,25.89,0,0,0,50.66,57.12ZM174.45,48c-.32.37-.63.7-.91,1.05a.48.48,0,0,1-.58.15.23.23,0,0,1-.11-.4c.87-1,1.71-2.05,2.56-3.07a4.08,4.08,0,0,1,.55-.55.3.3,0,0,1,.45.09c.16.19,0,.27-.12.36A16.81,16.81,0,0,0,174.45,48ZM54.12,57.81c.39-.33.71-.66,1.05-1a1.23,1.23,0,0,1,.37-.21s.08,0,.12,0,0,.11,0,.14c-.68.73-1.35,1.46-2,2.17a10.17,10.17,0,0,1-1.29,1.16,12.27,12.27,0,0,1-1.55.86.49.49,0,0,1-.42-.07,1.24,1.24,0,0,1-.25-.4c.12-.06.25-.17.38-.17a2.46,2.46,0,0,0,1.45-.63C52.63,59.1,53.33,58.44,54.12,57.81ZM153.07,42.2c-.59.55-1.13,1.08-1.71,1.56a.43.43,0,0,1-.65,0c-.27-.23-.14-.33-.05-.48s.21-.12.31-.2a12,12,0,0,0,1.05-.79c.62-.54,1.21-1.12,1.82-1.67a.8.8,0,0,1,.36-.22.41.41,0,0,1,.35.1c.15.13.11.25-.05.39C154,41.32,153.57,41.75,153.07,42.2Zm-1.32,7.26c.54-.4,1.05-.77,1.54-1.15.18-.14.34-.22.5,0s.06.25,0,.28c-.73.55-1.49,1.07-2.22,1.62a8.5,8.5,0,0,0-1.06.93,6.26,6.26,0,0,1-1.35.88,1.36,1.36,0,0,1-.67.13c-.13,0-.26-.1-.39-.16.12-.12.22-.33.34-.34,1.06-.06,1.67-.88,2.44-1.43C151.18,50,151.44,49.73,151.75,49.46Zm-43-23.09a5.89,5.89,0,0,0-.76.5,39.71,39.71,0,0,1-3.23,2.4c-.19.15-.51.12-.78.16-.06,0-.13-.05-.2-.08s.12-.16.19-.17a7.21,7.21,0,0,0,2.47-1.53,22.29,22.29,0,0,0,2.39-2.16c.25-.24.49-.49.74-.74,0,0,.09-.12.14-.13a.77.77,0,0,1,.4,0c.16.08.16.2,0,.36s-.36.47-.57.68S109,26.12,108.73,26.37ZM95,27.16c-.42.37-.83.69-1.18,1.06s-.76.91-1.16,1.36A3.91,3.91,0,0,1,91,31c-.34.11-.34-.17-.51-.24.11-.11.06-.29.29-.38a3.87,3.87,0,0,0,1.09-.69c.54-.48,1-1,1.55-1.52s.84-.73,1.23-1.12a7.65,7.65,0,0,0,.43-.67c0-.06.11-.3.27-.12a.34.34,0,0,1,0,.31A4,4,0,0,1,95,27.16Zm66.92,36.16c-.81.92-1.57,1.82-2.35,2.7a4.91,4.91,0,0,1-.81.7c-.11.08-.32,0-.48,0a1.79,1.79,0,0,1,.09-.4,2.09,2.09,0,0,1,.33-.45c.56-.58,1.14-1.15,1.71-1.72.36-.36.72-.71,1.07-1.08s.43-.52.66-.78a.52.52,0,0,1,.18-.1c0,.08.05.18,0,.25C162.22,62.74,162.08,63,161.92,63.32ZM76.79,51.05c-.81.85-1.58,1.68-2.37,2.49a2.19,2.19,0,0,1-.55.41c-.14.07-.28.09-.38-.16s-.1-.3.06-.43c.31-.26.63-.51.92-.79.71-.69,1.4-1.4,2.1-2.1a2.78,2.78,0,0,1,.56-.41c.08,0,.26,0,.35.1s.12.27-.06.39S77,50.86,76.79,51.05ZM48,58.5a4.61,4.61,0,0,0-.44.32,13.15,13.15,0,0,1-2,1.58c-.59.4-1.07.39-1.43,0a.38.38,0,0,1-.06-.31c.07-.19.18,0,.28,0a1.61,1.61,0,0,0,1.2-.28c.73-.57,1.45-1.15,2.21-1.67a9.93,9.93,0,0,1,1.82-1.34,1.76,1.76,0,0,0,.2-.09c0,.07,0,.17,0,.22a7.4,7.4,0,0,1-.56.56C48.76,57.79,48.37,58.13,48,58.5Zm74.77-15.24c-.19.28-.33.53-.5.76s-.32.31-.54.11-.14-.3,0-.5a20.66,20.66,0,0,0,1.88-3.3c.31-.7.69-1.38,1.06-2.06,0-.08.2-.09.3-.12s0,.18,0,.25c-.37.82-.75,1.63-1.12,2.43s-.65,1.36-1,2C122.8,43,122.78,43.11,122.72,43.26ZM90.91,31.78c.16-.22.22-.45.57-.26.13.07.48-.18.68-.35.51-.42,1-.87,1.48-1.34a11.41,11.41,0,0,0,1.91-2s.14-.06.22-.08a.55.55,0,0,1,0,.22,3.44,3.44,0,0,1-.89,1.27c-.39.45-.89.79-1.32,1.21s-.76.88-1.17,1.29a1.27,1.27,0,0,1-1.11.49C91.05,32.17,90.91,32.06,90.91,31.78Zm-.46-2.18a1.32,1.32,0,0,1-.82.36c-.27.06-.37-.18-.51-.33s.12-.3.21-.31a5.34,5.34,0,0,0,2.57-1.58c.48-.41.91-.89,1.35-1.34a2.25,2.25,0,0,0,.76-1c0-.06.17-.14.22-.11s0,.15,0,.27a1.32,1.32,0,0,1-.46.8c-1,1.07-2.1,2.12-3.15,3.17C90.62,29.55,90.54,29.55,90.45,29.6Zm-34,28.31a26.35,26.35,0,0,1-3,2.67,3.44,3.44,0,0,1-1,.57c-.26.1-.38,0-.56-.06s-.19-.2-.18-.29a.38.38,0,0,1,.29-.21,2.16,2.16,0,0,0,1.26-.6c1-.77,2-1.6,2.95-2.4.09-.07.28-.17.3-.15S56.66,57.75,56.46,57.91ZM92.3,25.64c.56-.56,1.08-1.09,1.61-1.6.07-.07.21-.07.31-.1a.8.8,0,0,1,0,.31,1.25,1.25,0,0,1-.23.23L90.49,28a1.29,1.29,0,0,1-1,.53,1.7,1.7,0,0,1-.35-.14c.08-.17.14-.47.26-.5.8-.2,1.26-.89,1.89-1.33A11.75,11.75,0,0,0,92.3,25.64Zm54.11,9.63c-.14.15-.23.3-.37.35s-.41.31-.58,0-.22-.47.09-.64c1-.52,1.64-1.43,2.61-2a.54.54,0,0,1,.78.12.24.24,0,0,1-.12.41,4.23,4.23,0,0,0-1.69,1.17A9.11,9.11,0,0,1,146.41,35.27ZM149.77,34c-.84.76-1.65,1.5-2.48,2.21-.32.27-.55.22-.72-.07a.58.58,0,0,1,0-.36c0-.08.17-.11.27-.16a8.28,8.28,0,0,0,.83-.53c.62-.51,1.23-1,1.84-1.57a.94.94,0,0,1,.81-.27s.06.1.06.16C150.32,33.76,150.05,33.87,149.77,34Zm17.42,28.9c-.28.29-.51.55-.78.78s-.76.23-.74.13a1.61,1.61,0,0,1,.3-.71,5.4,5.4,0,0,1,.68-.57l2.08-2a4.27,4.27,0,0,0,.29-.41c.14-.16.29-.37.53-.22,0,0,0,.35-.14.47-.4.52-.82,1-1.25,1.53C167.87,62.29,167.54,62.58,167.19,62.92Zm-80.5-24a4.78,4.78,0,0,1-1.93,1.93,1.06,1.06,0,0,1-.43.08.32.32,0,0,1-.2-.5c.06-.09.14-.21.23-.22a2.3,2.3,0,0,0,1.15-.73c.17-.14.29-.33.45-.48.75-.77,1.51-1.52,2.27-2.28,0,0,.06-.08.1-.09h.22a.55.55,0,0,1,0,.18s-.06.06-.08.09C87.87,37.55,87.3,38.21,86.69,38.9Zm-5.78-3.26a14.16,14.16,0,0,0-1.85,1.46,15.9,15.9,0,0,0-1.5,1.57,1.29,1.29,0,0,1-1.22.39.47.47,0,0,1-.29-.26.33.33,0,0,1,.13-.32.82.82,0,0,1,.5-.19,1.16,1.16,0,0,0,1-.39c.59-.5,1.15-1,1.72-1.57.3-.27.61-.54.93-.78a1.28,1.28,0,0,1,.52-.17A.62.62,0,0,1,80.91,35.64Zm79.69,31c.6-.74,1.17-1.45,1.75-2.15a7.37,7.37,0,0,1,.8-.78c.07-.07.23,0,.35,0a1.31,1.31,0,0,1,0,.35,1.65,1.65,0,0,1-.28.41l-1.9,2.31c-.14.18-.26.37-.4.56a.7.7,0,0,1-.13.16c-.22.15-.79.17-.77.09a3.55,3.55,0,0,1,.34-.64A2.27,2.27,0,0,1,160.6,66.62Zm-55.11-32.8c-.49.36-.94.69-1.4,1l-.19.1c0-.08-.05-.18,0-.25a.58.58,0,0,1,.21-.23l3-2.06a6.36,6.36,0,0,1,1.86-.93,1,1,0,0,1,1,.09l.18.12s-.1.12-.16.14c-.32.09-.63.2-1,.26a6.82,6.82,0,0,0-2.12.93C106.4,33.25,106,33.53,105.49,33.82ZM77.18,52a5.44,5.44,0,0,1-1.09,1.36.4.4,0,0,1-.28.11c-.15,0-.38-.09-.42-.2s.07-.32.18-.43.44-.33.63-.52c.52-.54,1-1.13,1.54-1.65a5.66,5.66,0,0,1,1.07-.74c.09,0,.25,0,.37,0a1.07,1.07,0,0,1-.16.32C78.43,50.82,77.82,51.38,77.18,52Zm12-13.73c-.57.57-1.12,1.07-1.61,1.63a.8.8,0,0,1-.82.24.46.46,0,0,1-.29-.33c0-.08.15-.3.23-.3.53,0,.79-.37,1.12-.66.85-.74,1.72-1.46,2.58-2.19.15-.13.28-.29.43-.42a1.24,1.24,0,0,1,.23-.12c0,.1,0,.25,0,.31-.36.38-.74.75-1.11,1.12Zm23.22-18.47,2.69-2.7a4.19,4.19,0,0,0,1-1.28.35.35,0,0,1,.23-.2c.13,0,.35-.07.28.19a1.67,1.67,0,0,1-.28.67c-1,1-2,2.06-3.08,3.08a5.29,5.29,0,0,1-.59.47C112.58,20.1,112.57,20.1,112.42,19.77Zm-2.64-7.66L108,13.49a3.38,3.38,0,0,1-.51.36c-.08,0-.2,0-.3,0s0-.21.1-.26c.38-.31.76-.59,1.14-.89s.87-.67,1.29-1c.62-.52,1.23-1.05,1.84-1.59.12-.1.16-.31.29-.39a.66.66,0,0,1,.52-.13c.17.08.05.26,0,.43-.2.43-.64.57-1,.86C110.89,11.26,110.34,11.66,109.78,12.11ZM32.44,65.3a4.54,4.54,0,0,1,.67-.1s.1,0,.15.07-.08.11-.14.14c-.41.24-.84.44-1.22.71A17.37,17.37,0,0,0,29.64,68c-.1.1-.23.25-.35.25s-.54.14-.73-.14.09-.42.23-.59a4.94,4.94,0,0,1,.55-.57s.13,0,.19,0,0,.09-.05.14-.19.3-.28.46c.29.11.35-.19.51-.3Zm79.85-54.64.22-.22c.11-.11.24-.26.36,0s.1.36,0,.43c-.36.37-.76.71-1.15,1l-1.33,1.07-2.07,1.67s0,.05,0,.05a2.08,2.08,0,0,1-.56.07c-.1-.29.21-.28.36-.4.33-.25.7-.47,1-.75C110.17,12.62,111.21,11.66,112.29,10.66ZM58.44,58.11a1.49,1.49,0,0,1-.72,1c-.77.65-1.58,1.26-2.38,1.87a1.24,1.24,0,0,1-.5.22c-.21,0-.5.06-.56-.19s.16-.39.3-.43a6.87,6.87,0,0,0,2.14-1.37c.45-.34.88-.72,1.34-1.07A.57.57,0,0,1,58.44,58.11Zm-.23,1.55c.63-.44,1.2-.87,1.76-1.3.05,0,.09-.13.14-.13a2.14,2.14,0,0,1,.44,0,1.39,1.39,0,0,1-.21.27c-.75.67-1.48,1.36-2.26,2a8.52,8.52,0,0,1-1.36.83.47.47,0,0,1-.43-.12.31.31,0,0,1,.13-.48c.36-.2.73-.36,1.08-.57S57.93,59.83,58.21,59.66ZM85.3,57.32a6,6,0,0,0-1,.6c-.27.23-.54.13-.8.14a.33.33,0,0,1-.22-.26.35.35,0,0,1,.23-.24c.93-.12,1.51-.83,2.25-1.26s1.51-.91,2.28-1.34a.59.59,0,0,1,.35,0s.09.09.14.14l-.15.07c-.25.13-.5.28-.76.39a5.67,5.67,0,0,0-1.54,1.07C85.87,56.86,85.6,57.06,85.3,57.32Zm26.1-35.14c-.13,0-.35,0-.18-.13a6.49,6.49,0,0,1,.62-.39,20.5,20.5,0,0,0,2.65-2.37,3.39,3.39,0,0,0,.9-1.27c0-.13.21-.45.48-.27a.38.38,0,0,1,.06.61c-.45.52-.9,1.05-1.4,1.53A16.94,16.94,0,0,1,113,21.15,4.84,4.84,0,0,1,111.4,22.18ZM34.75,65.76c-.35.27-.68.48-1,.73-.83.69-1.67,1.38-2.48,2.1a.88.88,0,0,1-.78.16.26.26,0,0,1-.18-.39c.05-.11,0-.42.31-.19s.3.07.45,0c.62-.51,1.25-1,1.88-1.49s1.37-1,2.06-1.53c0,0,.12,0,.18,0s0,.17,0,.22A6.35,6.35,0,0,1,34.75,65.76ZM92.56,37.25c-.22.18-.41.31-.58.46-.44.38-.86.78-1.3,1.16s-.64.26-.86-.07,0-.53.16-.51c.8.07,1.23-.56,1.79-.92a27,27,0,0,1,2.29-1.63,5.83,5.83,0,0,0,.79-.64A.55.55,0,0,1,95,35a.48.48,0,0,1,0,.18l-.92.79Zm.4,5.94c.54-.23,1-.45,1.56-.62a2,2,0,0,1,.65,0,2.41,2.41,0,0,1-.47.44c-.47.25-1,.42-1.43.68s-.73.55-1.11.81a.67.67,0,0,1-.8.05c-.12-.08-.19-.16,0-.28s.14-.26.25-.32C92,43.7,92.48,43.47,93,43.19Zm74.8,17.52a16.48,16.48,0,0,1-1.51,1.68,5.84,5.84,0,0,1-1.13.75c-.08,0-.21,0-.32,0s0-.16.07-.24a2.79,2.79,0,0,1,1-1,15.46,15.46,0,0,0,1.23-1.2,1.31,1.31,0,0,1,.39-.32c.08,0,.14-.24.3,0S167.89,60.54,167.76,60.71ZM108.6,11.32l-1,.77s-.14,0-.22,0,0-.18,0-.22c.59-.53,1.2-1,1.78-1.59s1.32-1.31,2-2c0,0,0-.1,0-.11s.19-.41.46-.25.16.4,0,.6a1.36,1.36,0,0,1-.27.35c-.35.29-.74.54-1.09.85C109.73,10.25,109.18,10.78,108.6,11.32Zm21.54,38a10.81,10.81,0,0,0-.92,1c-.17.22-.36.39-.65.23a.68.68,0,0,1-.26-.27s.13-.14.2-.22c.81-.8,1.61-1.6,2.43-2.39a1.16,1.16,0,0,1,.34-.24,2.88,2.88,0,0,1,.4-.09c0,.18,0,.41-.06.52A16.8,16.8,0,0,1,130.14,49.36Zm35.34-3.73c.16-.09.29-.22.41-.21a.62.62,0,0,1,.4.22c.06.08,0,.2-.17.32a10.69,10.69,0,0,0-1.26,1.09,1.5,1.5,0,0,1-1.18.46c-.09,0-.17-.11-.26-.17a1.39,1.39,0,0,1,.15-.19Zm-87.6,7.16c-.26,0-.45,0-.5-.18a.41.41,0,0,1,.19-.35c.83-.41,1.34-1.22,2.15-1.63a2,2,0,0,1,.57-.2.21.21,0,0,1,.22.32.84.84,0,0,1-.33.32c-.64.23-1,.79-1.55,1.17C78.39,52.41,78.17,52.61,77.88,52.79Zm86.35,8.75a8.68,8.68,0,0,0,1.94-1.34,2.64,2.64,0,0,1,.29-.15c0,.11.12.24.1.33a1.82,1.82,0,0,1-.27.54,5,5,0,0,1-1.82,1.29.63.63,0,0,1-.23.08c-.29,0-.39-.08-.27-.35A1.92,1.92,0,0,1,164.23,61.54ZM93.48,32.9c.39-.25.75-.45,1.08-.69A10.44,10.44,0,0,1,96.43,31a1.59,1.59,0,0,1,.27-.12c.06,0,.13.07.18.12s0,.11-.09.14a9.94,9.94,0,0,0-2.15,1.78,2.07,2.07,0,0,1-.72.48c-.19.08-.31.17-.5,0S93.53,33.1,93.48,32.9ZM59.37,60.42A7.6,7.6,0,0,1,61.5,59a.37.37,0,0,1,.31,0c.21.15,0,.23-.09.26a11.74,11.74,0,0,0-2.3,1.91.61.61,0,0,1-.37.21.62.62,0,0,1-.42-.2c-.05,0,0-.3.12-.38A5.68,5.68,0,0,1,59.37,60.42Zm53.22-37.58c.61-.59,1.14-1.18,1.69-1.76a9.57,9.57,0,0,1,.79-.77c.06-.06.2,0,.31,0s0,.21,0,.29a1.9,1.9,0,0,1-.3.4,24.67,24.67,0,0,1-2.62,2.38,8.93,8.93,0,0,1-1.16.86s-.09,0-.13,0,0-.1,0-.13a2.5,2.5,0,0,1,.23-.23C111.75,23.52,112.14,23.18,112.59,22.84ZM93.75,31.32c.43-.35.84-.64,1.22-1,.18-.17.31-.15.4,0a.33.33,0,0,1-.08.31c-.64.61-1.29,1.22-2,1.82a1.05,1.05,0,0,1-.31.18.33.33,0,0,1-.49-.15.31.31,0,0,1,.17-.44A2.6,2.6,0,0,0,93.75,31.32ZM30.07,65.7a1.37,1.37,0,0,1,.4-.1c.05,0,.11.05.16.07s-.06.16-.12.19a11,11,0,0,0-2.33,1.7,1.93,1.93,0,0,1-.81.4c-.25.07-.63-.39-.56-.66,0,0,.15-.13.18-.11.67.45,1-.15,1.49-.44A5.86,5.86,0,0,1,30.07,65.7Zm16.1-7.4a1.49,1.49,0,0,1-1.19.42c-.13,0-.25-.16-.35-.28s.07-.22.11-.22c.85,0,1.43-.61,2.11-1l.86-.46s.12,0,.18,0,0,.18,0,.22c-.23.21-.48.41-.73.61Zm34.31-6.86c.46-.32.88-.62,1.32-.9a1.09,1.09,0,0,1,.4-.12s.08,0,.12,0a.22.22,0,0,1-.06.14l-.68.56c-.52.43-1,.87-1.56,1.29a1.28,1.28,0,0,1-.37.23.33.33,0,0,1-.43-.19c0-.14-.08-.27.18-.37A5.7,5.7,0,0,0,80.48,51.44Zm27.13-29.23-1.06,1.19a.81.81,0,0,1-.19.18c-.19.11-.39.2-.58.3-.09-.26.1-.42.22-.59.3-.41.63-.79.93-1.2.14-.2.26-.42.38-.63s.29-.49.55-.31c.1.07,0,.44,0,.66S107.72,22.05,107.61,22.21ZM62.21,61c-.38.2-.72.42-1.06.06-.07-.07-.18-.2-.15-.25a.47.47,0,0,1,.27-.23,1.27,1.27,0,0,1,.39,0,.79.79,0,0,0,.52-.18,5,5,0,0,1,1.38-.77c.15-.06.2,0,.3,0s.23.05.06.17Zm-37,6c-.06-.07-.1-.09-.12-.13s-.27-.39-.22-.5c.15-.3.39-.07.6,0,.44.15.8-.09,1.18-.23s.63-.27.95-.41a.54.54,0,0,1,.18,0c0,.08,0,.18,0,.22a3.53,3.53,0,0,1-1.59.94A3.21,3.21,0,0,1,25.25,67Zm41.38-6.74a11,11,0,0,1-1.66.87s0,0,0,0h-.48c.09-.16.15-.37.29-.45.36-.22.77-.36,1.14-.57s.89-.59,1.34-.87a2,2,0,0,1,.39-.18c.05,0,.13,0,.19,0a.48.48,0,0,1-.07.18C67.37,59.64,67,59.94,66.63,60.28ZM106.88,21c.2.19.21.33.07.53a10.15,10.15,0,0,1-1.48,1.59c-.07.07-.23.06-.35.08s-.07-.28,0-.35c.52-.63,1.07-1.26,1.61-1.88C106.74,21,106.8,21,106.88,21Zm31.54,43.36c.26-.22.49-.41.73-.58,0,0,.14,0,.21,0s0,.14,0,.17c-.52.53-1,1.06-1.57,1.57a.27.27,0,0,1-.18,0l-.17,0a.64.64,0,0,1,.08-.14c.23-.23.47-.46.69-.7S138.33,64.51,138.42,64.38ZM122.06,25.74c-.4.59-1.11.82-1.63,1.31a3.85,3.85,0,0,1-.77.52,2.83,2.83,0,0,1-.31.11,1.28,1.28,0,0,1,.18-.35,2,2,0,0,1,.4-.29C120.63,26.6,121.33,26.17,122.06,25.74ZM86.23,61.37a2.24,2.24,0,0,1,.23-.53,3.79,3.79,0,0,1,.31-.39l.07.08c-.29.09.1.53-.3.59C86.43,61.14,86.35,61.29,86.23,61.37Zm-.53.8c-.12-.32.11-.48.33-.66C86.14,61.82,85.92,62,85.7,62.17Zm2-3.07.26-.2c0,.07,0,.16,0,.21a1,1,0,0,1-.22.23.18.18,0,0,1-.11,0A.65.65,0,0,1,87.74,59.1Zm-1.65,2.41s0-.09.07-.14S86.15,61.46,86.09,61.51Z"/></g></g></svg>