<svg xmlns="http://www.w3.org/2000/svg" viewBox="0 0 160.01 57.45"><defs><style>.cls-1{fill:#fff;}.cls-2{fill:#e6e6e6;}</style></defs><title>cloud-medium</title><g id="Layer_2" data-name="Layer 2"><g id="cloud-medium"><path id="void" class="cls-1" d="M159.89,47.92c-.09-.1-.22-.17-.26-.29a1.34,1.34,0,0,0-1.22-.86c-.82-.13-1.64-.27-2.47-.34a4.54,4.54,0,0,1-.53-.12c-.4-.08-.82.14-1.2-.12,0,0-.09.11-.14.11-.73.09-1.45.21-2.18.25a5.52,5.52,0,0,1-1.46-.13,3.06,3.06,0,0,1-1.28-.51,9.65,9.65,0,0,0-2-1.2,5.44,5.44,0,0,0-2-.52,6.37,6.37,0,0,0-2,.31c-.21.06-.26,0-.33-.1-.36-.48-.68-1-1.07-1.44s-.61-.77-1-.82c-1-.14-2-.6-3.07-.33a15.76,15.76,0,0,0-2.33.55,3.85,3.85,0,0,1-.88.25.89.89,0,0,1-.61-.07,13.91,13.91,0,0,1-1.51-1.25,2.68,2.68,0,0,0-1.85-.75,6,6,0,0,0-2.37.46,18.38,18.38,0,0,0-2.4,1.18c-.35.19-.34.22-.54-.16a1.13,1.13,0,0,0-.89-.71.82.82,0,0,1-.33-.12c-.51-.24-1-.52-1.54-.74-.37-.14-.79-.17-1.17-.31a6.44,6.44,0,0,0-2.8-.53h-.07s-.06-.11,0-.13a1.16,1.16,0,0,1,.29-.25c.66-.41,1.33-.79,2-1.19l.57-.37c.56-.34,1-.72,1-1.48,0-.06,0-.15,0-.18a.59.59,0,0,0-.11-.83,6.35,6.35,0,0,0-1.76-1.59c-.44-.21-.84-.5-1.29-.71a4.2,4.2,0,0,0-2.17-.61c-.6,0-1.23,0-1.83,0-.14,0-.31,0-.39,0-.3-.25-.64-.13-.93-.11-.74,0-1.47.14-2.19.25a9.64,9.64,0,0,0-2.25.42A8.82,8.82,0,0,0,106,34.65a.3.3,0,0,1-.54-.06,2.7,2.7,0,0,0-1.48-1.13c-.29-.13-.34-.26-.12-.46s.5-.39.72-.61a8.32,8.32,0,0,0,1.06-1.08,1.92,1.92,0,0,0,.43-1,2.54,2.54,0,0,0-1.66-2.8.43.43,0,0,0-.56.22,1.54,1.54,0,0,1-.08.19c-.06-.11-.18-.25-.16-.3a2.52,2.52,0,0,1,.41-.56c.47-.53,1-1,1.42-1.57.14-.17.18-.43.34-.57s.18-.43.17-.66a2.15,2.15,0,0,0-.13-.6,3.61,3.61,0,0,0-.52-1.29,14,14,0,0,0-2.38-2,3.8,3.8,0,0,0-.75-.39,7.78,7.78,0,0,0-2.41-.66,11.91,11.91,0,0,0-1.2-.14,8.34,8.34,0,0,0-1.92.24,7,7,0,0,0-3.74,1.75,17.59,17.59,0,0,0-1.29,1.3.78.78,0,0,1-1,.19c-.43-.19-.87-.31-1.32-.46-1-.31-2-.44-3-.78a2.38,2.38,0,0,0-.79-.13,11.49,11.49,0,0,0-2.92.24,6.44,6.44,0,0,0-3,1.6A4.49,4.49,0,0,0,78,25.75c0,.2-.08.25-.27.23h-.26v.18c0,.25-.29.25-.49.24,0,0-.11-.13-.17-.33a2.92,2.92,0,0,1,.66-.09c0-.83,0-2.83-.54-3.35s-.35-.53.18-.84c.22-.13.43-.32.65-.48a3.39,3.39,0,0,1,.5-.37,9.64,9.64,0,0,0,1.95-1.66A4.51,4.51,0,0,0,81,17.78a6.33,6.33,0,0,0,.75-3.09c0-.45-.08-.88-.12-1.33A3.92,3.92,0,0,0,81,11.61a11,11,0,0,0-1.7-2,7.28,7.28,0,0,0-2.74-1.79A1.92,1.92,0,0,0,75,7.73c-.52.23-.91,0-1.25-.49l-.27-.34A6.91,6.91,0,0,0,70.65,5,7.23,7.23,0,0,0,69,4.51a1,1,0,0,1-.67-.4c-.32-.43-.56-.92-.88-1.33A7.23,7.23,0,0,0,64.12.43,5.26,5.26,0,0,0,61.6,0a15.62,15.62,0,0,0-2.06.4,4.82,4.82,0,0,0-2.83,1.68c-.19.3-.33.31-.62.15a12.88,12.88,0,0,0-1.31-.6,5.23,5.23,0,0,0-2.51-.58c-.25,0-.5.11-.74.13a15.17,15.17,0,0,0-2.88.65,16.42,16.42,0,0,0-2.71,1.2,2.4,2.4,0,0,0-.85.74c-.32.42-.57.89-.87,1.34s-.47.68-.71,1a.4.4,0,0,1-.55.16L42.23,6a9.93,9.93,0,0,0-2.52-.73,12.16,12.16,0,0,0-4.56.5A8.56,8.56,0,0,0,32.5,7c-.35.25-.61.61-1,.87a7.38,7.38,0,0,0-2.77,3.69,4.61,4.61,0,0,0-.34,3c-.21.19-.17.36,0,.54-.07.06-.14.18-.19.17-.3,0-.58-.11-.87-.11a12.44,12.44,0,0,0-2.27.34,2.73,2.73,0,0,0-1.56.83,4,4,0,0,0-1.16,3.34c0,.14-.11.3-.17.44a1.86,1.86,0,0,0-.1-.31.65.65,0,0,0-.18-.19,5.63,5.63,0,0,0-1.17-.8A8.47,8.47,0,0,0,18,18.13a13.7,13.7,0,0,0-3.5.23,13.28,13.28,0,0,0-2.78,1.05A3.64,3.64,0,0,0,10.38,21a2.39,2.39,0,0,0,.14,2.44,5.68,5.68,0,0,0,2.37,2.26c.76.42,1.55.78,2.33,1.16a1.67,1.67,0,0,0,.18.05.13.13,0,0,1,0,.11c0,.05-.06.13-.09.14a4.47,4.47,0,0,0-2,.93c-.68.47-1.35,1-2,1.51a4.39,4.39,0,0,0-.87,1c-.35.55-.1,1.2-.17,1.79a2,2,0,0,0,.07.42,4,4,0,0,0,.85,1.87,3,3,0,0,0,.61.57,6.18,6.18,0,0,1-1.05.15c-.95,0-1.81.48-2.78.44-.58,0-1.16.3-1.74.33a6.48,6.48,0,0,0-1.84.49c-1.18.43-2.35.87-3.55,1.24a1.45,1.45,0,0,0-.86.77c-.2.38.19.67.07,1,.39.37.63.86,1.19,1.07,1.15.43,2.3.88,3.49,1.21a2.16,2.16,0,0,0,.41.13,7.52,7.52,0,0,1,2.47.52c.13,0,.21,0,.06.17a3.17,3.17,0,0,0-.36.23A4.76,4.76,0,0,0,6,44.54a1.3,1.3,0,0,1-.14.26A7.05,7.05,0,0,0,4.77,47a2.14,2.14,0,0,0-.19.64A9.57,9.57,0,0,0,4.93,51a6.12,6.12,0,0,0,2.24,2.91,6.86,6.86,0,0,0,.83.52c1,.45,1.94.88,2.93,1.3a3.69,3.69,0,0,0,1.08.39,20,20,0,0,1,2,.5c.62.14,1.23.3,1.85.43s1.06.18,1.6.27c.2,0,.42.16.6.12a3.71,3.71,0,0,1,1.93,0,2.18,2.18,0,0,0,.86-.1c.93-.17,1.85-.41,2.79-.52a6.43,6.43,0,0,0,2.27-.73c.26-.15.52-.43.79-.43s.52.26.79.42c.05,0,.09.11.14.14a1.87,1.87,0,0,0,2.39-.36.55.55,0,0,1,.68-.21,7.71,7.71,0,0,0,3.12.35,3.5,3.5,0,0,0,1-.21c.69-.22,1.38-.49,2.06-.74a.92.92,0,0,0,.68-1v-.18c0-.22-.11-.47.33-.24.69.37,1.48.55,2.17.92a8.53,8.53,0,0,0,4.47,1.08,9.32,9.32,0,0,0,2-.11c.54-.13,1.14,0,1.64-.17,1.25-.42,2.46-.94,3.67-1.42.19-.08.33-.28.52-.34a.64.64,0,0,1,.49.06c.27.19.46.46.73.66a6.7,6.7,0,0,0,3,1.31c.81.12,1.63.1,2.45.14.26,0,.53,0,.77.21a.62.62,0,0,0,.59,0,2.1,2.1,0,0,1,1-.2c.39,0,.9,0,1.14-.18a1.16,1.16,0,0,1,.94-.2,1.8,1.8,0,0,0,1-.25,1.07,1.07,0,0,1,.46-.14,3.79,3.79,0,0,0,1.36-.51,3.24,3.24,0,0,0,1.11-.83.28.28,0,0,1,.21-.1,6,6,0,0,1,2.2.22,3.29,3.29,0,0,0,1.83.14A12.81,12.81,0,0,1,75,53.36a4.53,4.53,0,0,1,1.47.18c.4.14.78.31,1.2.43a10.77,10.77,0,0,0,2.76.46c.45,0,.92,0,1.37,0s.85-.12,1.28-.12c1,0,2.07-.15,3.11-.26a9.43,9.43,0,0,0,1.94-.4c.85-.26.86-.24.84-1,0-.43-.15-.59-.58-.66l-.49-.09c-.61-.1-1.23-.19-1.84-.31a17.25,17.25,0,0,1-1.87-.39,23.83,23.83,0,0,0-4.22-1,.58.58,0,0,1-.58-.47,2,2,0,0,0-.47-.73A4,4,0,0,0,76,48c-.08,0-.18.3-.24,0,0-.12,0-.24.17-.27a8.17,8.17,0,0,0,2.66-1.19,1.43,1.43,0,0,0,.44-.32,1,1,0,0,1,1.38-.35,4.54,4.54,0,0,0,1.59.29,11.71,11.71,0,0,1,2,.13c.68.17,1.38.26,2.06.4s1.16.29,1.74.39,1.37.17,2.06.26a1.05,1.05,0,0,0,.24,0,1.93,1.93,0,0,1,.8-.08,3.43,3.43,0,0,0,1.14.11h1.44A1.27,1.27,0,0,0,94,47.3a.82.82,0,0,1,1.07.25.45.45,0,0,0,.63.15,2.12,2.12,0,0,0,.66-.56c.09-.14.16-.13.26-.19.36-.2.77,0,1.12-.13a11.59,11.59,0,0,1,2.86-.39,2.31,2.31,0,0,0,1.29-.34c.51-.31.68-.23.92.34a1.59,1.59,0,0,0,1.14,1.08,5.58,5.58,0,0,1,1,.12A16.3,16.3,0,0,0,107,48a2.94,2.94,0,0,0,1.37-.16.38.38,0,0,1,.4.1c.41.35.77.77,1.17,1.13a1.72,1.72,0,0,0,.63.38A27.54,27.54,0,0,1,113.91,51a5.53,5.53,0,0,0,2.34.7c.1,0,.22.09.34.12a4.81,4.81,0,0,0,.72.14,12.13,12.13,0,0,0,4.11-.39,8.71,8.71,0,0,0,2.57-1c.31-.22.6-.46.91-.66.51-.31,1-.59,1.52-.92.18-.12.24-.11.42,0a10.47,10.47,0,0,0,1.4.91,8.26,8.26,0,0,0,3.22,1.23,7.11,7.11,0,0,0,1.66.07c.53-.06,1.06-.24,1.6-.25.21,0,.4-.1.61-.1.46,0,.91-.17,1.27.41a1.78,1.78,0,0,0,1.84.89,3,3,0,0,1,.52,0,7.33,7.33,0,0,0,3-1,3.93,3.93,0,0,1,1.59-.93.33.33,0,0,1,.45.07,8.49,8.49,0,0,0,1.84,1.24c.75.43,1.49.16,2.23.2a.91.91,0,0,1,.94-.23c.46.12.54-.4.89-.42.06,0,.12,0,.18,0s.25,0,.26,0c.06.19-.05.21-.21.21a.7.7,0,0,0-.17.06,1.22,1.22,0,0,0,.17.07c.29,0,.6.06.82-.26a.46.46,0,0,1,.32-.13,1.56,1.56,0,0,0,1.19-.55,2.29,2.29,0,0,1,.83-.48c.1,0,.27.09.4.09.86,0,1.62.49,2.54.32a5.48,5.48,0,0,0,2.45-1.07,2.49,2.49,0,0,1,1.09-.69C160,48.48,160.08,48.11,159.89,47.92Z"/><path id="fill2" class="cls-2" d="M159.89,47.92c-.09-.1-.22-.17-.26-.29a1.34,1.34,0,0,0-1.22-.86c-.82-.13-1.64-.27-2.47-.34a4.54,4.54,0,0,1-.53-.12c-.4-.08-.82.14-1.2-.12,0,0-.09.11-.14.11-.73.09-1.45.21-2.18.25a5.52,5.52,0,0,1-1.46-.13,3.06,3.06,0,0,1-1.28-.51,9.65,9.65,0,0,0-2-1.2,5.44,5.44,0,0,0-2-.52,6.37,6.37,0,0,0-2,.31c-.21.06-.26,0-.33-.1-.36-.48-.68-1-1.07-1.44s-.61-.77-1-.82c-1-.14-2-.6-3.07-.33a15.76,15.76,0,0,0-2.33.55,3.85,3.85,0,0,1-.88.25.89.89,0,0,1-.61-.07,13.91,13.91,0,0,1-1.51-1.25,2.68,2.68,0,0,0-1.85-.75,6,6,0,0,0-2.37.46,18.38,18.38,0,0,0-2.4,1.18c-.35.19-.34.22-.54-.16a1.13,1.13,0,0,0-.89-.71.82.82,0,0,1-.33-.12c-.51-.24-1-.52-1.54-.74-.37-.14-.79-.17-1.17-.31a6.44,6.44,0,0,0-2.8-.53h-.07s-.06-.11,0-.13a1.16,1.16,0,0,1,.29-.25c.66-.41,1.33-.79,2-1.19l.57-.37c.56-.34,1-.72,1-1.48,0-.06,0-.15,0-.18a.59.59,0,0,0-.11-.83,6.35,6.35,0,0,0-1.76-1.59c-.44-.21-.84-.5-1.29-.71a4.2,4.2,0,0,0-2.17-.61c-.6,0-1.23,0-1.83,0-.14,0-.31,0-.39,0-.3-.25-.64-.13-.93-.11-.74,0-1.47.14-2.19.25a9.64,9.64,0,0,0-2.25.42A8.82,8.82,0,0,0,106,34.65a.3.3,0,0,1-.54-.06,2.7,2.7,0,0,0-1.48-1.13c-.29-.13-.34-.26-.12-.46s.5-.39.72-.61a8.32,8.32,0,0,0,1.06-1.08,1.92,1.92,0,0,0,.43-1,2.54,2.54,0,0,0-1.66-2.8.43.43,0,0,0-.56.22,1.54,1.54,0,0,1-.08.19c-.06-.11-.18-.25-.16-.3a2.52,2.52,0,0,1,.41-.56c.47-.53,1-1,1.42-1.57.14-.17.18-.43.34-.57s.18-.43.17-.66a2.15,2.15,0,0,0-.13-.6,3.61,3.61,0,0,0-.52-1.29,14,14,0,0,0-2.38-2,3.8,3.8,0,0,0-.75-.39,7.78,7.78,0,0,0-2.41-.66,11.91,11.91,0,0,0-1.2-.14,8.34,8.34,0,0,0-1.92.24,7,7,0,0,0-3.74,1.75,17.59,17.59,0,0,0-1.29,1.3.78.78,0,0,1-1,.19c-.43-.19-.87-.31-1.32-.46-1-.31-2-.44-3-.78a2.38,2.38,0,0,0-.79-.13,11.49,11.49,0,0,0-2.92.24,6.44,6.44,0,0,0-3,1.6A4.49,4.49,0,0,0,78,25.75c0,.2-.08.25-.27.23h-.26v.18c0,.25-.29.25-.49.24,0,0-.11-.13-.17-.33a2.92,2.92,0,0,1,.66-.09c0-.83,0-2.83-.54-3.35s-.35-.53.18-.84c.22-.13.43-.32.65-.48a3.39,3.39,0,0,1,.5-.37,9.64,9.64,0,0,0,1.95-1.66A4.51,4.51,0,0,0,81,17.78a6.33,6.33,0,0,0,.75-3.09c0-.45-.08-.88-.12-1.33A3.92,3.92,0,0,0,81,11.61a11,11,0,0,0-1.7-2,7.28,7.28,0,0,0-2.74-1.79A1.92,1.92,0,0,0,75,7.73c-.52.23-.91,0-1.25-.49l-.27-.34A6.91,6.91,0,0,0,70.65,5,7.23,7.23,0,0,0,69,4.51a1,1,0,0,1-.67-.4c-.32-.43-.56-.92-.88-1.33A7.23,7.23,0,0,0,64.12.43,5.26,5.26,0,0,0,61.6,0a15.62,15.62,0,0,0-2.06.4,4.82,4.82,0,0,0-2.83,1.68c-.19.3-.33.31-.62.15a12.88,12.88,0,0,0-1.31-.6,5.23,5.23,0,0,0-2.51-.58c-.25,0-.5.11-.74.13a15.17,15.17,0,0,0-2.88.65,16.42,16.42,0,0,0-2.71,1.2,2.4,2.4,0,0,0-.85.74c-.32.42-.57.89-.87,1.34s-.47.68-.71,1a.4.4,0,0,1-.55.16L42.23,6a9.93,9.93,0,0,0-2.52-.73,12.16,12.16,0,0,0-4.56.5A8.56,8.56,0,0,0,32.5,7c-.35.25-.61.61-1,.87a7.38,7.38,0,0,0-2.77,3.69,4.61,4.61,0,0,0-.34,3c-.21.19-.17.36,0,.54-.07.06-.14.18-.19.17-.3,0-.58-.11-.87-.11a12.44,12.44,0,0,0-2.27.34,2.73,2.73,0,0,0-1.56.83,4,4,0,0,0-1.16,3.34c0,.14-.11.3-.17.44a1.86,1.86,0,0,0-.1-.31.65.65,0,0,0-.18-.19,5.63,5.63,0,0,0-1.17-.8A8.47,8.47,0,0,0,18,18.13a13.7,13.7,0,0,0-3.5.23,13.28,13.28,0,0,0-2.78,1.05A3.64,3.64,0,0,0,10.38,21a2.39,2.39,0,0,0,.14,2.44,5.68,5.68,0,0,0,2.37,2.26c.76.42,1.55.78,2.33,1.16a1.67,1.67,0,0,0,.18.05.13.13,0,0,1,0,.11c0,.05-.06.13-.09.14a4.47,4.47,0,0,0-2,.93c-.68.47-1.35,1-2,1.51a4.39,4.39,0,0,0-.87,1c-.35.55-.1,1.2-.17,1.79a2,2,0,0,0,.07.42,4,4,0,0,0,.85,1.87,3,3,0,0,0,.61.57,6.18,6.18,0,0,1-1.05.15c-.95,0-1.81.48-2.78.44-.58,0-1.16.3-1.74.33a6.48,6.48,0,0,0-1.84.49c-1.18.43-2.35.87-3.55,1.24a1.45,1.45,0,0,0-.86.77c-.2.38.19.67.07,1,.39.37.63.86,1.19,1.07,1.15.43,2.3.88,3.49,1.21a2.16,2.16,0,0,0,.41.13,7.52,7.52,0,0,1,2.47.52c.13,0,.21,0,.06.17a3.17,3.17,0,0,0-.36.23A4.76,4.76,0,0,0,6,44.54a1.3,1.3,0,0,1-.14.26A7.05,7.05,0,0,0,4.77,47a2.14,2.14,0,0,0-.19.64A9.57,9.57,0,0,0,4.93,51a6.12,6.12,0,0,0,2.24,2.91,6.86,6.86,0,0,0,.83.52c1,.45,1.94.88,2.93,1.3a3.69,3.69,0,0,0,1.08.39,20,20,0,0,1,2,.5c.62.14,1.23.3,1.85.43s1.06.18,1.6.27c.2,0,.42.16.6.12a3.71,3.71,0,0,1,1.93,0,2.18,2.18,0,0,0,.86-.1c.93-.17,1.85-.41,2.79-.52a6.43,6.43,0,0,0,2.27-.73c.26-.15.52-.43.79-.43s.52.26.79.42c.05,0,.09.11.14.14a1.87,1.87,0,0,0,2.39-.36.55.55,0,0,1,.68-.21,7.71,7.71,0,0,0,3.12.35,3.5,3.5,0,0,0,1-.21c.69-.22,1.38-.49,2.06-.74a.92.92,0,0,0,.68-1v-.18c0-.22-.11-.47.33-.24.69.37,1.48.55,2.17.92a8.53,8.53,0,0,0,4.47,1.08,9.32,9.32,0,0,0,2-.11c.54-.13,1.14,0,1.64-.17,1.25-.42,2.46-.94,3.67-1.42.19-.08.33-.28.52-.34a.64.64,0,0,1,.49.06c.27.19.46.46.73.66a6.7,6.7,0,0,0,3,1.31c.81.12,1.63.1,2.45.14.26,0,.53,0,.77.21a.62.62,0,0,0,.59,0,2.1,2.1,0,0,1,1-.2c.39,0,.9,0,1.14-.18a1.16,1.16,0,0,1,.94-.2,1.8,1.8,0,0,0,1-.25,1.07,1.07,0,0,1,.46-.14,3.79,3.79,0,0,0,1.36-.51,3.24,3.24,0,0,0,1.11-.83.28.28,0,0,1,.21-.1,6,6,0,0,1,2.2.22,3.29,3.29,0,0,0,1.83.14A12.81,12.81,0,0,1,75,53.36a4.53,4.53,0,0,1,1.47.18c.4.14.78.31,1.2.43a10.77,10.77,0,0,0,2.76.46c.45,0,.92,0,1.37,0s.85-.12,1.28-.12c1,0,2.07-.15,3.11-.26a9.43,9.43,0,0,0,1.94-.4c.85-.26.86-.24.84-1,0-.43-.15-.59-.58-.66l-.49-.09c-.61-.1-1.23-.19-1.84-.31a17.25,17.25,0,0,1-1.87-.39,23.83,23.83,0,0,0-4.22-1,.58.58,0,0,1-.58-.47,2,2,0,0,0-.47-.73A4,4,0,0,0,76,48c-.08,0-.18.3-.24,0,0-.12,0-.24.17-.27a8.17,8.17,0,0,0,2.66-1.19,1.43,1.43,0,0,0,.44-.32,1,1,0,0,1,1.38-.35,4.54,4.54,0,0,0,1.59.29,11.71,11.71,0,0,1,2,.13c.68.17,1.38.26,2.06.4s1.16.29,1.74.39,1.37.17,2.06.26a1.05,1.05,0,0,0,.24,0,1.93,1.93,0,0,1,.8-.08,3.43,3.43,0,0,0,1.14.11h1.44A1.27,1.27,0,0,0,94,47.3a.82.82,0,0,1,1.07.25.45.45,0,0,0,.63.15,2.12,2.12,0,0,0,.66-.56c.09-.14.16-.13.26-.19.36-.2.77,0,1.12-.13a11.59,11.59,0,0,1,2.86-.39,2.31,2.31,0,0,0,1.29-.34c.51-.31.68-.23.92.34a1.59,1.59,0,0,0,1.14,1.08,5.58,5.58,0,0,1,1,.12A16.3,16.3,0,0,0,107,48a2.94,2.94,0,0,0,1.37-.16.38.38,0,0,1,.4.1c.41.35.77.77,1.17,1.13a1.72,1.72,0,0,0,.63.38A27.54,27.54,0,0,1,113.91,51a5.53,5.53,0,0,0,2.34.7c.1,0,.22.09.34.12a4.81,4.81,0,0,0,.72.14,12.13,12.13,0,0,0,4.11-.39,8.71,8.71,0,0,0,2.57-1c.31-.22.6-.46.91-.66.51-.31,1-.59,1.52-.92.18-.12.24-.11.42,0a10.47,10.47,0,0,0,1.4.91,8.26,8.26,0,0,0,3.22,1.23,7.11,7.11,0,0,0,1.66.07c.53-.06,1.06-.24,1.6-.25.21,0,.4-.1.61-.1.46,0,.91-.17,1.27.41a1.78,1.78,0,0,0,1.84.89,3,3,0,0,1,.52,0,7.33,7.33,0,0,0,3-1,3.93,3.93,0,0,1,1.59-.93.33.33,0,0,1,.45.07,8.49,8.49,0,0,0,1.84,1.24c.75.43,1.49.16,2.23.2a.91.91,0,0,1,.94-.23c.46.12.54-.4.89-.42.06,0,.12,0,.18,0s.25,0,.26,0c.06.19-.05.21-.21.21a.7.7,0,0,0-.17.06,1.22,1.22,0,0,0,.17.07c.29,0,.6.06.82-.26a.46.46,0,0,1,.32-.13,1.56,1.56,0,0,0,1.19-.55,2.29,2.29,0,0,1,.83-.48c.1,0,.27.09.4.09.86,0,1.62.49,2.54.32a5.48,5.48,0,0,0,2.45-1.07,2.49,2.49,0,0,1,1.09-.69C160,48.48,160.08,48.11,159.89,47.92Z"/><path id="fill1" d="M141.28,47.35c-.39.4-.81.78-1.21,1.18-.6.58-1.18,1.18-1.77,1.76a3.12,3.12,0,0,1-.45.34c-.23.17-.37.36.07.52a3,3,0,0,0,1.61.19,5.9,5.9,0,0,0,2.33-1.21c.62-.43,1.16-1,1.75-1.47a6.58,6.58,0,0,1,.63-.38c.14-.08.28-.18.41-.27,0,.07,0,.21,0,.21-.24.11,0,.65-.51.52-.17,0-.38.12-.58.19,0,0,0,.06,0,.09l.11,0a3.81,3.81,0,0,1,1.36.36.32.32,0,0,0,.51-.17c.08-.22.47-.3.69-.48s.59-.58.88-.87a1.43,1.43,0,0,1,.28-.27c.08,0,.2,0,.3,0l-.12.19a8.18,8.18,0,0,0-.74,1,2.69,2.69,0,0,1-1,1s-.1,0-.13,0-.21.21-.31.32c.13.1.25.23.39.32a3.91,3.91,0,0,0,2,.48,11.32,11.32,0,0,0,2.18-.42,2.1,2.1,0,0,1,.24-.06,2.63,2.63,0,0,0,2-.83,6,6,0,0,1,1.09-.7.71.71,0,0,1,.72.08,4.43,4.43,0,0,0,1.74.51,1.61,1.61,0,0,0,.9-.18,7.82,7.82,0,0,0,1.79-.93.64.64,0,0,0,.33-.59c0-.25,0-.35.29-.17.07.06.23,0,.34,0l-.15-.32a.45.45,0,0,0-.46-.3,14.09,14.09,0,0,1-1.44-.16s-.1-.05-.14,0c-.22,0-.45.12-.67.19.18.34.5.07.74.15l.17.06c-.05,0-.11.07-.16.07l-1.5-.16a.39.39,0,0,1-.27-.14c-.17-.38-.38-.27-.63-.09a.73.73,0,0,1-.41.12,9.24,9.24,0,0,0-2.45.25,3.42,3.42,0,0,1-1.26-.07,5.2,5.2,0,0,1-1.6-.43,8,8,0,0,1-.91-.49,7.37,7.37,0,0,0-2.83-1.25,3.65,3.65,0,0,0-2.25.36c-.73.32-.82.31-1.06-.43a4.56,4.56,0,0,0-1.48-1.93,1.67,1.67,0,0,0-.79-.29,7,7,0,0,0-3.21,0,22.15,22.15,0,0,0-2.43.77c-.35.16-.48,0-.69-.16q-.88-.78-1.8-1.53a2.5,2.5,0,0,0-1.91-.42,3.79,3.79,0,0,0-1.26.28,9,9,0,0,0-2.63,1.42,3.17,3.17,0,0,1-.36.23c-.27.18-.45.13-.63-.18s-.33-.53-.52-.77a1.29,1.29,0,0,0-.46-.44c-.08,0-.37-.2-.46.14s-.42.22-.66.22c0,0-.11-.07-.11-.11-.07-.54-.59-.59-.91-.85a1.78,1.78,0,0,0-1.18-.48,1.3,1.3,0,0,1-.77-.18,1.52,1.52,0,0,0-1.18-.34c-.43,0-.87,0-1.31,0a6.44,6.44,0,0,0-2.77.58.63.63,0,0,1-.81-.12c-.21-.25-.17-.49.14-.58a13.31,13.31,0,0,1,2.55-.67,1.13,1.13,0,0,0,.57-.18c.79-.56,1.67-1,2.49-1.44a7.24,7.24,0,0,0,1.83-1.43.93.93,0,0,0,0-1.1,11.17,11.17,0,0,0-1.47-1.2,8.87,8.87,0,0,0-2.34-1.13A4.61,4.61,0,0,0,114.9,33c-.15.05-.35-.11-.53-.1a25.31,25.31,0,0,0-2.89.14,9.08,9.08,0,0,0-3.07,1,8.38,8.38,0,0,0-1.21.58A5.13,5.13,0,0,0,106,35.7c0,.07-.14.12-.18.19a.4.4,0,0,1-.51.17.68.68,0,0,1-.26-.48,1.08,1.08,0,0,0-.37-1,8.61,8.61,0,0,0-1.26-.76.35.35,0,0,0-.49.27c-.07.24-.22.33-.48.12s-.45-.18-.65-.31-.17-.11-.17.07a5.14,5.14,0,0,1-.45,1.54c-.26.55-.48,1.11-.74,1.66a1.48,1.48,0,0,1-.43.53c-.28.2-.59,0-.61-.36A3.46,3.46,0,0,0,99.22,36a.41.41,0,0,0-.1-.13c0,.07-.09.16-.08.23a2.23,2.23,0,0,1-.91,1.8.62.62,0,0,1-.87-.47c0-.39,0-.79,0-1.18,0-.05,0-.1.07-.16a1.77,1.77,0,0,1,.06.17c0,.23.08.45.13.67l.1.34c.1-.07.24-.12.3-.21.27-.41.55-.82.78-1.25.5-1,1-2,1.43-3,.27-.61.45-1.26.66-1.89,0-.06-.08-.15-.08-.22a2,2,0,0,1,.1-.32.9.9,0,0,1,.12.24,8,8,0,0,1-.9,3.82,4.15,4.15,0,0,0-.54,2.4,1.2,1.2,0,0,0,.13.31,1.14,1.14,0,0,0,.15-.23c.73-1.68,1.47-3.37,2.18-5.06.19-.47.28-1,.43-1.46,0-.08.1-.14.16-.2a1.09,1.09,0,0,1,0,.25c-.06.36-.13.73-.21,1.09s-.17.72-.25,1.08a1.15,1.15,0,0,0,0,.32c0,.26.26.34.44.15s.72-.56.74-1.07a.17.17,0,0,1,.06-.11,2,2,0,0,0,.47-1.31s.1-.09.16-.14.1.1.09.14c-.08.42-.18.84-.27,1.26a.88.88,0,0,0,0,.23c.08,0,.19,0,.23-.08.35-.42.68-.85,1-1.28a1.65,1.65,0,0,0-.38-2.09,1.28,1.28,0,0,0-1-.28l-1.21.25c-.09,0-.19,0-.25,0a1.49,1.49,0,0,1-.46-.31s.09-.25.18-.35a1.72,1.72,0,0,1,.35-.25,6,6,0,0,0,2.32-2.4,1.15,1.15,0,0,1,.14-.27c.25-.27.49-.58.37-.95a3.49,3.49,0,0,0-.62-1.25,8.9,8.9,0,0,0-2.33-1.94,5.91,5.91,0,0,0-1.63-.65A14,14,0,0,0,98.29,20a8,8,0,0,0-3.25.7,9.36,9.36,0,0,0-3.11,2.47c-.1.1-.11.3-.19.44-.23.36-.46.39-.86.17a6.08,6.08,0,0,0-1.1-.5c-.79-.25-1.6-.46-2.41-.66a22.09,22.09,0,0,0-2.28-.51,4.41,4.41,0,0,0-1.39.08,13.34,13.34,0,0,0-1.79.43,4.27,4.27,0,0,0-1.74,1,3.46,3.46,0,0,0-1.3,2,3.71,3.71,0,0,0-.08.87c0,.33-.21.4-.39.46a1.77,1.77,0,0,1-.65,0,6.07,6.07,0,0,0-2.39.4,2.06,2.06,0,0,0-.57.37,3.67,3.67,0,0,0-1.65,2,.36.36,0,0,1-.52.24c-.23-.07-.23-.26-.15-.5a3.68,3.68,0,0,1,.74-1.34,5.85,5.85,0,0,1,2.69-1.74A4.58,4.58,0,0,1,77.73,26c.18,0,.24,0,.27-.23a4.59,4.59,0,0,1,1.51-2.65,6.36,6.36,0,0,1,3-1.59,11.38,11.38,0,0,1,2.91-.24,2.38,2.38,0,0,1,.79.13c1,.35,2,.47,3,.78a11.42,11.42,0,0,1,1.32.46.76.76,0,0,0,1-.19c.42-.46.85-.89,1.3-1.3a6.87,6.87,0,0,1,3.74-1.74,7.85,7.85,0,0,1,1.93-.24,11.7,11.7,0,0,1,1.19.13,8.19,8.19,0,0,1,2.42.65c.24.14.52.24.75.4a14.36,14.36,0,0,1,2.37,2,3.61,3.61,0,0,1,.52,1.29,3.22,3.22,0,0,1,.13.6c0,.23.06.46-.17.66s-.2.41-.34.57c-.46.53-1,1-1.42,1.57a3.15,3.15,0,0,0-.41.55c0,.06.1.2.16.31a1.08,1.08,0,0,0,.08-.19.44.44,0,0,1,.55-.23A2.56,2.56,0,0,1,106,30.32a2,2,0,0,1-.43,1,9.64,9.64,0,0,1-1,1.07c-.23.22-.5.39-.73.61s-.16.33.12.46a2.76,2.76,0,0,1,1.49,1.14.29.29,0,0,0,.53,0,8.61,8.61,0,0,1,3.31-1.82,9.15,9.15,0,0,1,2.25-.42c.72-.11,1.45-.2,2.18-.25.31,0,.64-.13.94.11.08.06.25,0,.39,0,.61,0,1.22,0,1.83,0a4.12,4.12,0,0,1,2.17.62c.44.2.85.49,1.29.69a6.48,6.48,0,0,1,1.75,1.59c.15.15.42.51.11.83,0,0,0,.13,0,.19,0,.75-.44,1.14-1,1.48-.19.12-.37.26-.57.37l-2,1.19a1.32,1.32,0,0,0-.28.25s0,.09,0,.14h.07a6.15,6.15,0,0,1,2.8.52c.38.13.8.17,1.18.32s1,.48,1.53.73a1.4,1.4,0,0,0,.34.13,1.13,1.13,0,0,1,.88.7c.2.38.19.35.55.16A19.7,19.7,0,0,1,128.1,41a6.13,6.13,0,0,1,2.37-.45,2.67,2.67,0,0,1,1.85.76,13.82,13.82,0,0,0,1.51,1.24.89.89,0,0,0,.61.07,3.85,3.85,0,0,0,.88-.25,14.6,14.6,0,0,1,2.33-.55,7.52,7.52,0,0,1,3.07.34c.35.05.68.48,1,.8s.71,1,1.08,1.45c.06.09.12.15.32.1a6.45,6.45,0,0,1,2-.31,5.44,5.44,0,0,1,2,.52,9.92,9.92,0,0,1,2,1.2,3.12,3.12,0,0,0,1.29.51,5.06,5.06,0,0,0,1.45.13c.73,0,1.45-.16,2.18-.25.05,0,.13-.12.14-.12.38.27.8,0,1.19.13a5.23,5.23,0,0,0,.54.12c.83.08,1.65.21,2.47.34a1.31,1.31,0,0,1,1.21.86c0,.11.19.19.27.28s.14.57-.12.61a2.54,2.54,0,0,0-1.09.69,5.58,5.58,0,0,1-2.45,1.07c-.93.16-1.69-.32-2.54-.32-.14,0-.3-.13-.4-.09a2.54,2.54,0,0,0-.83.48,1.54,1.54,0,0,1-1.18.55A.45.45,0,0,0,151,51c-.22.32-.52.25-.82.25a.58.58,0,0,1-.17-.06.7.7,0,0,1,.17-.06c.15,0,.27,0,.2-.21,0,0-.17,0-.25,0a1.16,1.16,0,0,1-.18,0c-.35,0-.43.54-.89.41a.91.91,0,0,0-.94.24c-.74,0-1.48.23-2.23-.21A7.89,7.89,0,0,1,144,50.23a.34.34,0,0,0-.46-.07c-.54.28-1.18.39-1.58.93a7.23,7.23,0,0,1-3,1,3,3,0,0,0-.52,0,1.79,1.79,0,0,1-1.84-.89c-.36-.59-.82-.41-1.27-.41-.2,0-.41.1-.61.11a14,14,0,0,0-1.6.24,7.13,7.13,0,0,1-1.66-.07,8.51,8.51,0,0,1-3.23-1.22,15.8,15.8,0,0,1-1.39-.91c-.17-.13-.24-.14-.42,0-.49.33-1,.61-1.52.93-.31.2-.6.43-.91.65a8.55,8.55,0,0,1-2.58,1,12,12,0,0,1-4.09.39,4.48,4.48,0,0,1-.73-.14c-.12,0-.23-.12-.35-.12a5.49,5.49,0,0,1-2.33-.7,27.54,27.54,0,0,0-3.36-1.54,1.64,1.64,0,0,1-.63-.38c-.4-.37-.76-.77-1.16-1.13a.38.38,0,0,0-.41-.1A3,3,0,0,1,107,48a16.42,16.42,0,0,1-2.08-.35,5.47,5.47,0,0,0-1-.12,1.56,1.56,0,0,1-1.13-1.08c-.25-.57-.42-.64-.92-.34a2.43,2.43,0,0,1-1.3.34,11.94,11.94,0,0,0-2.85.39c-.37.08-.76-.07-1.13.13-.1.06-.17,0-.26.18a2,2,0,0,1-.67.57.44.44,0,0,1-.62-.15A.81.81,0,0,0,94,47.3a1.27,1.27,0,0,1-.44.05H92.08A3.11,3.11,0,0,1,91,47.24c-.23-.08-.54,0-.81.08a1,1,0,0,1-.24,0c-.69-.08-1.38-.15-2.06-.27s-1.16-.26-1.74-.38-1.38-.23-2.06-.41A12.83,12.83,0,0,0,82,46.16a4.34,4.34,0,0,1-1.58-.28,1,1,0,0,0-1.37.35,1.32,1.32,0,0,1-.45.32,8.17,8.17,0,0,1-2.66,1.19c-.21,0-.19.14-.17.26.06.31.16,0,.24,0a4,4,0,0,1,3,.93,1.93,1.93,0,0,1,.46.72.58.58,0,0,0,.58.47,23.62,23.62,0,0,1,4.22,1,17.25,17.25,0,0,0,1.87.39c.61.12,1.23.21,1.84.31l.49.09c.43.07.57.23.58.66,0,.81,0,.79-.85,1a9.75,9.75,0,0,1-1.93.41c-1,.11-2.07.23-3.11.25-.43,0-.85.1-1.28.12s-.92,0-1.37,0A10.37,10.37,0,0,1,77.7,54c-.41-.11-.8-.28-1.2-.42A4.78,4.78,0,0,0,75,53.37a12.72,12.72,0,0,0-3.19.51A3.39,3.39,0,0,1,70,53.74a6,6,0,0,0-2.2-.22.32.32,0,0,0-.21.1,3.48,3.48,0,0,1-1.11.83,3.68,3.68,0,0,1-1.36.51,1.25,1.25,0,0,0-.46.15,1.9,1.9,0,0,1-1,.24c-.31,0-.6-.09-.93.2s-.76.15-1.15.19a1.89,1.89,0,0,0-1,.2.65.65,0,0,1-.59,0c-.24-.25-.51-.19-.78-.21-.81,0-1.63,0-2.43-.14a6.69,6.69,0,0,1-3.06-1.31c-.26-.2-.47-.47-.73-.66a.64.64,0,0,0-.49-.06c-.19.06-.33.26-.52.33-1.21.49-2.42,1-3.67,1.43-.5.17-1.11,0-1.63.17a10.11,10.11,0,0,1-2.05.11,8.53,8.53,0,0,1-4.47-1.08c-.69-.37-1.48-.55-2.17-.92-.43-.22-.32,0-.33.23V54a.94.94,0,0,1-.68,1c-.69.24-1.36.51-2.06.73a4,4,0,0,1-1,.22,7.7,7.7,0,0,1-3.12-.37.57.57,0,0,0-.68.22,1.88,1.88,0,0,1-2.39.36c-.06,0-.09-.1-.14-.14-.27-.15-.53-.43-.8-.42s-.52.28-.79.43a6.27,6.27,0,0,1-2.25.73c-.94.11-1.87.34-2.8.52a2.18,2.18,0,0,1-.86.1,3.75,3.75,0,0,0-1.94,0c-.17,0-.39-.08-.59-.11-.53-.09-1.07-.16-1.6-.27s-1.23-.29-1.85-.43a19.4,19.4,0,0,0-2-.5,4,4,0,0,1-1.08-.38c-1-.43-2-.86-2.93-1.31a7.19,7.19,0,0,1-.83-.52A6,6,0,0,1,4.94,51a9.35,9.35,0,0,1-.36-3.39A2.56,2.56,0,0,1,4.76,47,7.31,7.31,0,0,1,5.87,44.8,1.15,1.15,0,0,0,6,44.53,4.94,4.94,0,0,1,7.39,43a2.74,2.74,0,0,1,.36-.23c.15-.12.07-.12-.06-.17a8.09,8.09,0,0,0-2.47-.53A1.59,1.59,0,0,1,4.81,42c-1.19-.33-2.34-.78-3.49-1.21-.56-.21-.81-.7-1.19-1.07.11-.35-.27-.64-.07-1a1.4,1.4,0,0,1,.86-.76c1.2-.38,2.37-.82,3.55-1.25a6.24,6.24,0,0,1,1.84-.48c.58,0,1.16-.37,1.74-.35,1,0,1.83-.47,2.78-.43a5.42,5.42,0,0,0,1.05-.15,3.3,3.3,0,0,1-.61-.56,4.24,4.24,0,0,1-.85-1.88,2.17,2.17,0,0,1-.07-.42c.07-.6-.18-1.24.16-1.79a4.7,4.7,0,0,1,.88-1c.64-.53,1.31-1,2-1.51a4.53,4.53,0,0,1,2-.93s.07-.09.09-.14a.1.1,0,0,0,0-.1,1,1,0,0,0-.18-.05c-.78-.39-1.57-.74-2.33-1.17a5.74,5.74,0,0,1-2.37-2.26A2.39,2.39,0,0,1,10.38,21a3.5,3.5,0,0,1,1.36-1.58,12.25,12.25,0,0,1,2.78-1.05,13.74,13.74,0,0,1,3.5-.25,9.1,9.1,0,0,1,2.75.64,5.63,5.63,0,0,1,1.17.8.47.47,0,0,1,.18.19,1.7,1.7,0,0,1,.1.32c.06-.15.19-.31.17-.45a4,4,0,0,1,1.17-3.34,2.7,2.7,0,0,1,1.54-.83,12.68,12.68,0,0,1,2.28-.34c.29,0,.58.09.86.11.06,0,.13-.11.19-.16-.17-.19-.21-.37,0-.55a4.58,4.58,0,0,1,.34-3,7.36,7.36,0,0,1,2.77-3.7c.35-.26.61-.62,1-.87a8.56,8.56,0,0,1,2.65-1.19,12.2,12.2,0,0,1,4.57-.51A10.18,10.18,0,0,1,42.23,6l.73.3a.4.4,0,0,0,.55-.16c.24-.34.49-.67.71-1s.55-.92.87-1.34a2.4,2.4,0,0,1,.85-.74,16.46,16.46,0,0,1,2.71-1.21,16.67,16.67,0,0,1,2.88-.65c.25,0,.49-.09.73-.12a5.32,5.32,0,0,1,2.51.58,10.6,10.6,0,0,1,1.33.6c.28.16.41.15.62-.15A4.72,4.72,0,0,1,59.54.43,14.41,14.41,0,0,1,61.6,0a5.3,5.3,0,0,1,2.52.4A7.16,7.16,0,0,1,67.4,2.77c.31.43.56.91.88,1.34A.9.9,0,0,0,69,4.5a7.15,7.15,0,0,1,1.7.47A6.77,6.77,0,0,1,73.52,6.9c.09.11.19.23.27.35.34.5.72.71,1.25.48a2,2,0,0,1,1.51.12,7.59,7.59,0,0,1,2.74,1.78,11.47,11.47,0,0,1,1.7,2,4,4,0,0,1,.67,1.76c0,.44.11.88.13,1.32A6.31,6.31,0,0,1,81,17.78a4.34,4.34,0,0,1-.82,1.49,9.69,9.69,0,0,1-1.95,1.66,3.59,3.59,0,0,0-.5.37,7.24,7.24,0,0,1-.65.48c-.53.31-.58.43-.18.84.56.57.55,2.87.54,3.54,0,.24-.29.24-.49.23s-.46-1.66-.44-1.91a1.47,1.47,0,0,0-.22-1.15,4.15,4.15,0,0,0-.44-.49c-.56-.39-.55-.8,0-1.14a8.23,8.23,0,0,0,.75-.57,20.6,20.6,0,0,0,2.42-1.78,9.28,9.28,0,0,0,1.67-2.78,6,6,0,0,0,.21-3,3.94,3.94,0,0,0-1-2.06A10.49,10.49,0,0,0,77.22,9a2.79,2.79,0,0,0-1.5-.49,4.23,4.23,0,0,0-1.46.12c-.31.11-.56-.07-.73-.37a6,6,0,0,0-2.92-2.46,8.07,8.07,0,0,0-1.73-.54c-.25,0-.54.15-.8.25,0,0,0,.06,0,.09a4.11,4.11,0,0,0,.37.76c.47.58.51.9,0,1.48-.68.84-1.39,1.66-2.08,2.48s-1.32,1.61-2,2.38-1.29,1.4-1.95,2.08a.71.71,0,0,1-.31.11,1,1,0,0,1,.14-.31,5.1,5.1,0,0,1,.46-.47,23.3,23.3,0,0,0,2.18-2.57c.47-.6,1-1.14,1.47-1.75S67.22,8.6,67.63,8c.13-.19.28-.36.39-.56s0-.2,0-.3a.61.61,0,0,0-.27.12c-.27.29-.53.61-.79.91-.46.53-.9,1.08-1.38,1.59s-.86.81-1.29,1.22l-.28.27-1,1a1.58,1.58,0,0,0-.42.48c-.08.24-.23.11-.35.13s0-.25.08-.31c.68-.66,1.39-1.29,2.06-2A6.18,6.18,0,0,0,65,9.82a22.11,22.11,0,0,0,2.36-3.15,1.46,1.46,0,0,0,.15-.46c0-.08,0-.18-.06-.28-.06.06-.13.12-.19.19-.4.53-.79,1.07-1.2,1.59-.66.85-1.33,1.69-2,2.52a6.76,6.76,0,0,0-.58.62c-.08.1-.08.26-.23.15s-.06-.26,0-.33c.26-.34.56-.64.82-1,.83-1,1.65-2.07,2.46-3.11a1.15,1.15,0,0,0,.14-.27.7.7,0,0,1,.83-.52c.08,0,.19-.09.28-.14-.11-.08-.27-.26-.31-.23-.39.22-1.08-.06-1.15.7,0,.22-.26.24-.44.07-.49-.47-.44-.76.17-1.09a2.48,2.48,0,0,1,1-.37c.39,0,.41-.18.24-.59a5.38,5.38,0,0,0-2.39-2.55A5.42,5.42,0,0,0,61.18.84a9.17,9.17,0,0,0-3.13,1A3.08,3.08,0,0,0,57,3.05c-.3.47-.27.48-.73.18a9.53,9.53,0,0,0-3.11-1.34A4.85,4.85,0,0,0,51.26,2c-1,.22-2.06.49-3.08.81A6.58,6.58,0,0,0,45.89,4a4.08,4.08,0,0,0-.79,1c-.42.65-.81,1.32-1.22,2a.52.52,0,0,1-.72.18.66.66,0,0,0-.8,0A21.46,21.46,0,0,0,38.92,9.9c-.54.57-1.19,1-1.78,1.55a1,1,0,0,1-.82.24s-.09,0-.14-.07a1.15,1.15,0,0,0,.17-.06,4.82,4.82,0,0,0,1.2-.91q1.56-1.49,3.18-2.92c.35-.31.79-.52,1.17-.8.09-.06.3-.13,0-.24a8.07,8.07,0,0,0-2.69-.63c-.5,0-1,0-1.5,0a11.24,11.24,0,0,0-3.36.77,9.22,9.22,0,0,0-2.74,1.92c-.42.39-.79.85-1.18,1.28a5.63,5.63,0,0,0-1.18,2.46A4.13,4.13,0,0,0,29.08,15a4.14,4.14,0,0,1,.13,1.12.56.56,0,0,1-.18.43c-.09.06-.31,0-.43-.13A3.09,3.09,0,0,0,26,16a7.56,7.56,0,0,0-1.06.3,2.5,2.5,0,0,0-1.46,1.19A5.85,5.85,0,0,0,23,18.63c-.06.22.3.4,0,.62-.09.07-.08.42.09.65a1.94,1.94,0,0,1,.15.66c0,.09.12.18.1.26a.81.81,0,0,1-.19.43c-.05,0-.26-.07-.38-.14a2.8,2.8,0,0,1-1-.85,3.69,3.69,0,0,0-2.23-1.21,10.71,10.71,0,0,0-3-.28A9.9,9.9,0,0,0,12.06,20a2.35,2.35,0,0,0-1.18,2.48,2.3,2.3,0,0,0,.35.7,6.82,6.82,0,0,0,2.71,2.29,9.32,9.32,0,0,0,2.43,1.09.33.33,0,0,1,.27.37.39.39,0,0,1-.3.42c-.66.31-1.31.64-1.94,1s-1,.63-1.5,1a8,8,0,0,0-1.05.79A2.24,2.24,0,0,0,11,31.6,3.3,3.3,0,0,0,12,34.4a3,3,0,0,0,1.1.65c.22.07.54.14.5.54s0,.37-.51.37a7.08,7.08,0,0,0-2,.09,3.36,3.36,0,0,1-1.37.13c-.4,0-.76.34-1.14,0-.13.53-.61.12-.91.34a2.2,2.2,0,0,1-1,.17c-.36.05-.71.07-1.06.14a9,9,0,0,0-1.9.64A10.52,10.52,0,0,1,2,38.16a4.88,4.88,0,0,0-1.15.55c-.23.13-.17.42-.07.62a1.56,1.56,0,0,0,.48.54A18.21,18.21,0,0,0,4.13,41.1c.59.22,1.23.13,1.77.48a2.62,2.62,0,0,0,1.33.29c.4,0,.76.26,1.2.26s.42.47.16.75-.5.54-.78.77a7.87,7.87,0,0,0-1.48,1.88c-.12.18-.26.33-.37.51a.71.71,0,0,0-.06.22c.08,0,.17,0,.22,0,.4-.25.78-.54,1.19-.78A3.9,3.9,0,0,1,9,45c.32,0,.11.12.08.23-.1.43-.54.46-.81.6a8.07,8.07,0,0,0-1.46.9.9.9,0,0,1-.94.2c-.23-.1-.31,0-.32.11-.06.55-.1,1.1-.13,1.65,0,0,.11,0,.14,0,.29-.2.58-.39.86-.6l3.1-2.33a1.62,1.62,0,0,0,.19-.18l.23-.21c0,.1.08.22,0,.3-.11.24-.21.57-.41.67a7.47,7.47,0,0,0-1.11.91c-.62.46-1.13,1-1.72,1.55a7.89,7.89,0,0,1-1,.63.92.92,0,0,0-.25.17.26.26,0,0,0,0,.22.32.32,0,0,0,.17.08c.19-.29.3-.09.48,0a.62.62,0,0,0,.47-.06A12.25,12.25,0,0,0,8.93,48c.45-.4.9-.8,1.34-1.21a2.15,2.15,0,0,0,.19-.22c.1.11.19.18.07.38a2.11,2.11,0,0,1-.33.58c-.59.56-1.13,1.16-1.73,1.7A13.89,13.89,0,0,1,7,50.47c-.27.19-.56.43-1,.17-.2-.12-.39.08-.3.3a2.1,2.1,0,0,0,.32.59c.12.15.26.46.54.15,1.11,0,1.79-.73,2.51-1.37s1.62-1.59,2.42-2.4A6.2,6.2,0,0,0,13,46.36a.18.18,0,0,1,.17,0,.2.2,0,0,1,.07.16.37.37,0,0,1-.07.23,7,7,0,0,1-1,1.24,7.77,7.77,0,0,0-.8.91A26.2,26.2,0,0,0,9,51.38a1,1,0,0,1-.39.29c-.44.22-.46.67-.62,1a.14.14,0,0,0,0,.11.23.23,0,0,0,.18,0,5.74,5.74,0,0,0,.5-.36c.56-.51,1.1-1,1.66-1.53L13,48.71c.64-.55,1.29-1.1,1.93-1.67.24-.21.45-.46.69-.68,0,0,.11,0,.17-.06s.08.17.05.22a2.94,2.94,0,0,1-.37.5,24.68,24.68,0,0,1-2.09,1.87,14.36,14.36,0,0,0-1.5,1.31c-.6.67-1.3,1.24-2,1.85-.11.11-.22.21-.32.33-.25.28-.49.58-.75.86s-.36.24-.39.38.77.48,1,.41a.35.35,0,0,0,.13-.16c.08-.12.14-.25.22-.37s.24-.33.36-.5c0,.2.06.4.08.6s0,.24.16.09.46-.36.68-.56c1.11-1,2.2-2.05,3.33-3.05.69-.62,1.43-1.19,2.15-1.77a1.63,1.63,0,0,1,.23-.11c0,.13.16.3.11.39s-.24.23-.37.34c-.33.26-.66.52-1,.79-.49.39-1,.79-1.47,1.21-.2.17-.32.43-.51.63l-2.17,2.17c-.26.25-.56.46-.82.7s-.14.19,0,.27a1.66,1.66,0,0,0,1.74-.06A24.62,24.62,0,0,0,16,51.31c.59-.58,1.09-1.24,1.63-1.87.12-.14.21-.31.33-.45s.15-.1.22-.15,0,.23,0,.3a11,11,0,0,1-.84,1.36c-.59.73-1.22,1.42-1.85,2.12a10.51,10.51,0,0,1-1.06,1.05,3.92,3.92,0,0,0-1,1.51l-.07.14c.06,0,.14,0,.17,0a7.56,7.56,0,0,0,.69-.55c.8-.78,1.56-1.59,2.37-2.36s1.64-1.5,2.49-2.22a9.33,9.33,0,0,1,1.18-.79c.07,0,.18,0,.27,0s0,.25,0,.3a7.91,7.91,0,0,1-.63.52c-.43.34-.88.66-1.28,1-.56.51-1.07,1.07-1.62,1.6-.18.18-.42.29-.59.47l-1.67,1.93c-.12.13-.32.2-.45.33s-.11.24-.07.3c.16.27.86.21,1-.06a2,2,0,0,0,.38-.9c0-.06.12-.12.18-.18s.05.13.08.2V55l.06.63a4.32,4.32,0,0,0,.67-.28,5.94,5.94,0,0,0,.69-.55c.91-.86,1.8-1.75,2.73-2.59s1.77-1.51,2.65-2.27c.33-.29.61-.62.94-.91.07-.06.22,0,.33-.07a1.83,1.83,0,0,1-.08.25c0,.12-.07.3-.14.32-.46.14-.59.74-1.13.78-.12,0-.2.31-.33.43-.95.87-1.91,1.73-2.85,2.6a8.81,8.81,0,0,0-.66.71,10.56,10.56,0,0,1-2.09,2,.92.92,0,0,1-.21.13,1.73,1.73,0,0,1-.32.11c.12.1.23.27.35.28.62,0,1.23,0,1.84,0,.14,0,.28-.17.4-.29l4.69-4.68c.39-.39.82-.74,1.24-1.11.05,0,.14,0,.22,0a1.62,1.62,0,0,1,0,.22c-.05.57-.59.72-.92,1l-.73.74-.37.37A15.64,15.64,0,0,0,21,54.69a8.91,8.91,0,0,1-.86.88,7.12,7.12,0,0,0-.5.66c-.13.1-.26.15-.38.23s0,.12,0,.17a.13.13,0,0,0,.11,0c.42-.27.88,0,1.32-.14a1.51,1.51,0,0,0,.67-.25c.56-.47,1.1-1,1.62-1.48,1-1,2-2,3-3,.24-.23.53-.41.76-.64s.65-.73,1-1.09c.06-.07.2-.15.27-.12.25.1,0,.28,0,.33a6.64,6.64,0,0,1-.56.63c-.38.41-.73.83-1.12,1.23-.17.18-.41.3-.59.47a24.18,24.18,0,0,0-1.79,2A13.24,13.24,0,0,1,22.43,56c-.07.06-.19.06-.29.1a.87.87,0,0,0-.11.09s.08,0,.12,0a8.79,8.79,0,0,0,1.45-.14c.58-.14,1.24,0,1.76-.5a6.07,6.07,0,0,1,.8-.43,1.18,1.18,0,0,0,.43-.86c.06-.25.21-.21.26,0s.25.16.35.12a2.19,2.19,0,0,0,.5-.36c.49-.48.95-1,1.44-1.44.9-.87,1.8-1.74,2.73-2.59.43-.4.91-.74,1.37-1.11a.67.67,0,0,1,.14-.09c0,.06,0,.14,0,.18a6.37,6.37,0,0,1-.9,1.09,10.14,10.14,0,0,0-1.92,1.84,17.2,17.2,0,0,1-1.47,1.62c-.43.46-.88.9-1.33,1.34-.18.16-.17.28,0,.41a2,2,0,0,0,1.44.3c.1,0,.17-.16.25-.25a1.71,1.71,0,0,1-.23-.13c-.15-.14-.43-.37-.4-.41a1.66,1.66,0,0,1,.55-.62c.15-.08.35-.08.49-.23,1.09-1.17,2.17-2.34,3.27-3.5a4.46,4.46,0,0,1,.57-.47.2.2,0,0,1,.17,0s.05.14,0,.17c-.26.27-.21.75-.63.91a7.51,7.51,0,0,1-1.43,1.7c-.43.47-.81,1-1.21,1.46-.15.18-.32.28-.55.1,0,0-.15.09-.26.18a.37.37,0,0,0,0,.15l.07-.12c.05,0,.1,0,.13,0,.54.26.9-.06,1.24-.39l3.19-3.06c.34-.32.71-.62,1.06-.92a.85.85,0,0,1,.22-.09.8.8,0,0,1,0,.27.89.89,0,0,1-.23.36,11.48,11.48,0,0,0-1.71,1.84,14.1,14.1,0,0,0-1.16,1.27c-.2.31-.58.49-.85.76s-.17.41.13.48a3.41,3.41,0,0,0,.54.1c.05,0,.17-.17.15-.22-.15-.36,0-.52.34-.55a.63.63,0,0,0,.38-.19c1-1.12,1.92-2.26,2.89-3.38a7,7,0,0,1,1-.88,1,1,0,0,1,.4-.1,1.67,1.67,0,0,1-.06.39.46.46,0,0,1-.26.21.41.41,0,0,0-.16,0l.13.08a1.14,1.14,0,0,1-.52.66,2.05,2.05,0,0,0-.4.38c-.41.51-.79,1-1.2,1.53s-.83,1-1.25,1.51c-.18.21-.35.46-.7.38,0,0-.09.07-.13.1s.1.15.14.15c.38,0,.79.1,1.05-.32.1-.16.22-.27.47-.09s.47,0,.64-.13a18.61,18.61,0,0,0,1.46-1.2c.11-.09.11-.3.18-.45s.16-.59.61-.57.67-.46,1-.76.45-.51.69-.76c0,0,.11,0,.17,0a.58.58,0,0,1,0,.14,3.72,3.72,0,0,1-1,1.48c-.34.24-.15.25,0,.34l1.43.65a5.44,5.44,0,0,1,.54.27,11,11,0,0,0,2.72,1,3.93,3.93,0,0,0,.91,0,4.42,4.42,0,0,1,1.4.11c.18.06.43-.11.65-.11a9.69,9.69,0,0,0,2.64-.3c.51-.13,1.1-.09,1.54-.56.21-.23.64-.22,1-.35a3.24,3.24,0,0,0,1.06-.78c.31-.34.54-.34.93-.06a3.8,3.8,0,0,1,.55.42.46.46,0,0,0,.72,0c.37-.3.77-.57,1.14-.88.82-.72,1.63-1.43,2.43-2.18.37-.34.66-.76,1-1.13s1-1,1.46-1.47c.2-.21.37-.45.57-.67,0-.05.13-.06.2-.08s0,.17,0,.22a9.17,9.17,0,0,1-.7.82c-.81.85-1.57,1.75-2.36,2.61s-1.68,1.7-2.52,2.56c-.15.14-.24.34-.38.49s-.35.31-.52.47l.63.37.27.14c.56.23.58.26,1.06-.09A18.14,18.14,0,0,0,58.3,53.2c1-.9,1.94-1.8,2.86-2.74.51-.51.94-1.09,1.4-1.64a.87.87,0,0,1,.24-.23c.08-.05.1-.29.27-.09s-.16.08-.17.23-.2.22-.24.35a4.78,4.78,0,0,1-1.4,1.84c-.53.5-1,1.08-1.49,1.6-.67.69-1.35,1.36-2,2,0,0-.07,0-.09.09a2.12,2.12,0,0,0-.11.21.48.48,0,0,0,.21.09h1.76A3.49,3.49,0,0,1,60,55c.14,0,.3.13.39.09a1.29,1.29,0,0,0,.55-.41c.67-1.1,1.62-2,2.36-3s1.65-1.92,2.42-2.93a5.36,5.36,0,0,0,.28-.53.59.59,0,0,1,.18-.13c0,.08.07.19,0,.24-.22.35-.45.69-.7,1-.59.78-1.22,1.54-1.8,2.34-.44.61-.84,1.26-1.25,1.9,0,.05,0,.15,0,.22.27,0,.56.14.8-.11.5-.56,1-1.1,1.5-1.67s.94-1.19,1.42-1.77c.59-.74,1.2-1.47,1.8-2.21a1.64,1.64,0,0,0,.14-.39s.09-.07.14-.11.06.13,0,.18a6.55,6.55,0,0,1-.56,1.2c-1,1.52-2.1,3-3.2,4.51a2.85,2.85,0,0,1-1,.9,1.15,1.15,0,0,1-1.17.05c-.26-.15-.44-.13-.6.12l-.51.77s0,.08,0,.09a.15.15,0,0,0,.11,0l.2-.16a1.27,1.27,0,0,1,.69-.24,2.86,2.86,0,0,0,2.23-1c.66-.77,1.38-1.49,2.07-2.23s1.13-1.18,1.67-1.8,1.11-1.37,1.67-2.06a1.66,1.66,0,0,1,.19-.18,1,1,0,0,1,.13-.09c0,.06.05.13,0,.18a1.2,1.2,0,0,1-.18.31c-.62.84-1.18,1.73-1.87,2.5a29.5,29.5,0,0,1-2.62,3.18.72.72,0,0,0-.18.32c0,.06,0,.15,0,.23s.15,0,.18,0a2.42,2.42,0,0,1,1-.67c.2-.09.35-.19.29-.41s.13-.4.33-.51A4.44,4.44,0,0,0,68.1,52c.91-.85,1.42-2,2.29-2.87.08-.08.1-.24.2-.31s.18-.42.44-.2,0,.33-.1.49a.12.12,0,0,1-.12.07.43.43,0,0,0-.15,0l.12.08a5.4,5.4,0,0,1-.91,1.62c-.13.23-.27.45-.44.7-.43.1-.44.5-.61.75a1.3,1.3,0,0,0-.14.39l.41.08c.29.05.25-.15.24-.32s-.06-.2,0-.22c.25-.17.15-.42.17-.64,0,0,.12.05.15.09a4.92,4.92,0,0,1,.26.43c.1-.12.2-.25.29-.38l1.66-2.13s.1-.11.12-.1a2.43,2.43,0,0,1,.25.2c.08-.11.16-.23.25-.34s.14,0,.15.07a.19.19,0,0,1,0,.17c-.35.49-.75.95-1,1.47a6.9,6.9,0,0,1-1.12,1.5c-.12.11-.24.25,0,.35a.58.58,0,0,0,.43,0c.07,0,.07-.22.12-.33s.15-.24.22-.36c.07.08.13.21.22.23a.47.47,0,0,0,.35,0,7.23,7.23,0,0,0,.69-.55l2.4-2.27a.79.79,0,0,1,.27-.1c0,.09,0,.21-.06.27a37.94,37.94,0,0,1-2.63,3,.67.67,0,0,0-.11.18c.08,0,.19.06.25,0a4.2,4.2,0,0,1,2.13-.39c.22,0,.44-.1.67-.12a4.48,4.48,0,0,1,2,.47,11.65,11.65,0,0,0,2.25.59,20.61,20.61,0,0,0,3.68.1c1,0,2-.15,3-.25.53-.06,1.06-.18,1.59-.25.2,0,.36-.08.36-.28s-.19-.21-.31-.24c-.5-.11-1-.2-1.52-.27a20,20,0,0,1-3.6-.81A9.09,9.09,0,0,0,80.36,51c-.4,0-.8-.1-1.2-.12s-.36-.12-.39-.39a1.89,1.89,0,0,0-1.54-1.59A8.9,8.9,0,0,0,75,48.8c-.77,0-1.54.08-2.31.13-.07,0-.15.06-.22.08s-.24.08-.37.12a2.55,2.55,0,0,1-.12-.6c0-.19.16-.26.37-.27.61,0,1.23-.08,1.84-.12l.25,0c-.07-.07-.12-.17-.2-.21-.23-.11-.5-.14-.6-.47,0-.16-.19-.31,0-.44a1.36,1.36,0,0,1,.47-.14s.07,0,.1.05c1,.73,2,.25,2.92-.2.59-.28,1.1-.7,1.67-1a1.38,1.38,0,0,0,.67-.85c.09-.29.42-.41.58-.2a2.64,2.64,0,0,0,1.71.78,6.77,6.77,0,0,0,1.19.13,4.16,4.16,0,0,1,1.74.25,4,4,0,0,0,1.11.15,29.4,29.4,0,0,1,3,.58,1.73,1.73,0,0,0,.5.07c.68,0,1.35,0,2,0,.46,0,.93.09,1.39.12a.76.76,0,0,0,.42-.08c.6-.3,1.25-.48,1.87-.72A7.19,7.19,0,0,0,96.4,45c.11-.08.13-.29.21-.43a.16.16,0,0,1,.14-.08.15.15,0,0,1,.11.11,1,1,0,0,1-.26.87,3.42,3.42,0,0,1-1.08.85s-.06.13-.09.2.13.07.17.05a2.86,2.86,0,0,0,.64-.36c.38-.35.73-.73,1.1-1.09a11.6,11.6,0,0,1,2.75-2.23c.13-.07.21-.22.33-.32s.36-.05.48.12,0,.14,0,.22c-.4-.16-.53.21-.74.39-.62.54-1.23,1.08-1.81,1.65a2.69,2.69,0,0,0-.37.67,1.83,1.83,0,0,0,.69-.33c.45-.44,1-.72,1.47-1.19.7-.74,1.53-1.36,2.28-2.06.34-.32.61-.7.93-1a1,1,0,0,1,.31-.19c0,.13,0,.3,0,.39a5.69,5.69,0,0,1-.54.56c-.23.26-.44.56-.69.81s-.61.53-1,.83a.53.53,0,0,1-.13.16.15.15,0,0,0,0,.12.3.3,0,0,1,.11-.12.34.34,0,0,0,.09-.13l.67-.13s.11,0,.1,0c0-.43.38-.36.55-.55.37-.4.72-.84,1.11-1.23A8.28,8.28,0,0,1,105.69,40c.19-.1.27-.07.33.06s0,.19-.19.22a.82.82,0,0,0-.35.24A18.81,18.81,0,0,0,104,41.87c-.59.61-1.09,1.29-1.68,1.9s-1.19,1.12-1.79,1.67c0,0-.09,0-.13-.06l-.22-.09c-.17.29-.45.2-.7.24-.1,0-.18.15-.26.23a1.08,1.08,0,0,0,.28.15,6.16,6.16,0,0,0,2-.31,2.13,2.13,0,0,0,.81-.55c.15-.12.2-.37.47-.2,0,0,.15,0,.2-.08l1.76-1.87c.29-.3.6-.57.87-.87.46-.53.9-1.07,1.35-1.61a3.34,3.34,0,0,1,.47-.45s.17,0,.26,0-.07.32-.08.32c-.51-.06-.24.53-.54.63.12.35-.16.5-.35.68A24.58,24.58,0,0,0,104.68,44a6.48,6.48,0,0,1-1.11,1.11.56.56,0,0,0-.15.82l.18.32c.14.23.31.07.31,0,0-.38.33-.48.56-.69.39-.35.71-.79,1.07-1.18s.78-.75,1.15-1.15c.71-.77,1.39-1.57,2.11-2.33a9.73,9.73,0,0,1,1-.89c.07.41-.2.66-.43.92-.75.85-1.53,1.68-2.26,2.54-.48.56-.89,1.16-1.34,1.74-.21.26-.44.52-.66.77s-.27.2-.31.33a1.81,1.81,0,0,0,0,.52c.15-.07.4-.11.43-.2.16-.65.84-.89,1.08-1.46a.1.1,0,0,1,.05,0c.79-.4,1.19-1.21,1.81-1.78.83-.76,1.48-1.67,2.28-2.45.24-.24.43-.53.66-.77,0-.06.17-.06.26-.09s0,.29,0,.35c-.61.57-1,1.3-1.66,1.85s-.73,1.07-1.19,1.54-.85,1-1.25,1.51-.78,1-1.16,1.55c0,.06,0,.15,0,.22a.37.37,0,0,0,.18,0,1.51,1.51,0,0,0,.36-.24c.42-.4.84-.81,1.24-1.24a15.27,15.27,0,0,1,1.08-1.18c.82-.71,1.41-1.63,2.2-2.37a10.26,10.26,0,0,0,.75-.86c.09-.1.18-.22.29-.24s.26-.3.44-.06l.08.14a1.46,1.46,0,0,1-.39.16c-.12,0-.25,0-.24.2a1.18,1.18,0,0,1-.51.9,18.61,18.61,0,0,0-2.31,2.7c-.48.65-1,1.23-1.56,1.85a1.49,1.49,0,0,0-.17.36,1.34,1.34,0,0,0,.39-.11,2.21,2.21,0,0,0,.33-.29c.08-.07.17-.22.24-.21.52.08.7-.37,1-.63.45-.41.88-.85,1.3-1.29.6-.64,1.18-1.31,1.81-1.92a7.45,7.45,0,0,1,1-.75s.18.09.19.15,0,.24-.11.27c-.61.22-.76.87-1.19,1.26s-.8.84-1.19,1.26-.52.61-.78.92c-.06.07-.07.19-.14.26s-.22.32,0,.44.31,0,.44-.16c.39-.46.79-.91,1.19-1.34s1-1,1.46-1.5l.51-.53c0-.06.08-.17.15-.19a.35.35,0,0,1,.26,0s0,.16,0,.22a.51.51,0,0,1-.24.2c-.19,0-.2.11-.11.26a.19.19,0,0,1,0,.18,8.45,8.45,0,0,0-1.19,1.34c-.24.25-.39.58-.61.85-.36.47-.74.91-1.1,1.37a.49.49,0,0,1-.51.2c-.22,0-.44-.08-.66-.13-.06,0-.15-.14-.14-.15.17-.22.09-.26-.15-.25a1.76,1.76,0,0,1-.38-.06,2,2,0,0,1,.13.34c.11.54.68.65,1,1,0,0,.17,0,.19-.07.14-.24.22-.58.62-.32.18-.19.38-.36.55-.56s.2-.32.33-.45l3.13-3.14a1.54,1.54,0,0,1,.35-.28c.06,0,.18,0,.27.07s-.11.15-.18.18c-.38.14-.62.37-.52.81a.22.22,0,0,1-.1.18,14.71,14.71,0,0,0-2.47,2.64c-.37.41-.68.87-1,1.27-.2.23,0,.29.11.34a1.12,1.12,0,0,0,1-.33A5.58,5.58,0,0,0,114.33,47a1,1,0,0,1,.23-.24,21,21,0,0,0,2.24-2.47c0-.07.22-.06.33-.08a1.18,1.18,0,0,1,0,.27c-.07.17,0,.46-.35.38a1.44,1.44,0,0,0-.09.2,1.36,1.36,0,0,1-.23.41,1.21,1.21,0,0,1,.06-.34c-.11,0-.25.07-.3.15s-.13.32-.22.49a.19.19,0,0,0,0,.12.4.4,0,0,1,.11-.12c.14-.09.25-.18.36-.26,0,.38-.37.53-.53.83a3.43,3.43,0,0,1-.62.65c-.62.65-1.23,1.32-1.86,2a2.12,2.12,0,0,1-.37.21c-.06,0-.15.09-.15.13s0,.22.1.25c.71.35,1.42.69,2.14,1a.33.33,0,0,0,.31-.1,13.8,13.8,0,0,1,2.16-2.3c.88-.76,1.67-1.65,2.5-2.48.07-.06.16-.09.23-.14a1.11,1.11,0,0,1,.14.34s-.13.12-.21.14a.8.8,0,0,0-.63.79.28.28,0,0,1-.06.18c-.2.22-.43.43-.63.65-.43.45-.84.92-1.26,1.38l-1.32,1.46c-.13.13-.22.28-.35,0-.07-.16-.21.08-.29.16s0,.1.09.14a1.78,1.78,0,0,0,.95.27,5.94,5.94,0,0,1,.93.13,1.28,1.28,0,0,0,1.06-.44c.7-.59,1.4-1.18,2.06-1.81s.95-1.06,1.45-1.56,1.16-1.08,1.75-1.61a.63.63,0,0,1,.22-.09.77.77,0,0,1,0,.27,3.45,3.45,0,0,1-.26.28,1.22,1.22,0,0,0-.3.46c-.05.31-.14,0-.22.05s-.14.1-.18.17-.08.33-.18.44c-.55.61-1.11,1.21-1.66,1.81-.41.44-.8.89-1.2,1.33-.16.17-.34.33-.5.5s-.23.19,0,.2a1.71,1.71,0,0,0,1.24-.47c.72-.73,1.36-1.53,2-2.29.32-.35.68-.67,1-1,.13-.14.25-.29.37-.44a6.78,6.78,0,0,1,2.06-1.74c.15-.09.18,0,.23,0s0,.14-.06.18A14.84,14.84,0,0,0,125,47.18c-.38.49-.83.92-1.24,1.39s-.92,1.11-1.4,1.65c-.06.07-.2.08-.31.1s-.21,0-.3,0-.08.12-.12.18.11.08.16.08a5.36,5.36,0,0,0,.9-.21c.39-.17.75-.39,1.13-.6,0,0,.12-.08.13-.14.19-.67.77-1,1.24-1.38s1.07-1.1,1.64-1.61c.91-.82,1.86-1.61,2.8-2.4.08-.07.23,0,.35-.06,0,.1,0,.24-.09.31-.25.27-.52.53-.79.78a14,14,0,0,0-1.53,1.45,2.55,2.55,0,0,1-1.34,1,1,1,0,0,0-.32.19s0,.06-.07.09.14.06.17,0,.23-.22.37,0a.68.68,0,0,1,1,0,.4.4,0,0,0,.2-.13A11.89,11.89,0,0,1,130,45.65c.2-.15.36-.37.56-.54a1.25,1.25,0,0,1,.41-.28,2.27,2.27,0,0,1,.53,0l-.12.52a.24.24,0,0,1-.16,0c-.14-.15-.27-.25-.41,0a.79.79,0,0,0-.06.22l.19-.08H131s0,.11,0,.14c-.44.41-.91.79-1.33,1.21-.57.58-1.1,1.19-1.66,1.78a.2.2,0,0,0,.08.35,1,1,0,0,0,.61,0,3,3,0,0,0,.69-.54L131.84,46a9.24,9.24,0,0,1,.84-.68c.07-.06.23,0,.34,0a1.22,1.22,0,0,1-.09.27,4.12,4.12,0,0,1-.51.77c-.74.81-1.5,1.61-2.27,2.4-.12.12-.34.14-.48.25s-.3.31-.26.39a.82.82,0,0,0,.42.33c.1,0,.28,0,.11-.17s0-.32.09-.39c.48-.39,1-.75,1.49-1.14a4.56,4.56,0,0,0,.48-.5c.34-.36.68-.72,1-1.09.18-.21.33-.44.51-.64s.25-.33.48-.25a.35.35,0,0,1,.19.17s-.07.12-.12.18-.23.16-.22.21c.09.4-.2.59-.41.82s-.54.67-.84,1c-.56.54-1.13,1.07-1.71,1.58a3.32,3.32,0,0,1-.6.28s0,.12,0,.12a13.63,13.63,0,0,0,1.48.51.71.71,0,0,0,.87-.26.23.23,0,0,1,.15-.11c.58.05.86-.4,1.21-.73.95-.91,1.88-1.85,2.87-2.72a18.89,18.89,0,0,1,1.89-1.27,1,1,0,0,1,.28-.13c.05,0,.12,0,.18,0l-.09.14a7.62,7.62,0,0,1-1.23,1.11,10.15,10.15,0,0,0-2.5,2.35,6.51,6.51,0,0,1-.69.7,1.93,1.93,0,0,0-.31.33,1.63,1.63,0,0,0-.13.39,1.79,1.79,0,0,1,.4,0,5.49,5.49,0,0,1,1.15.15.44.44,0,0,0,.5-.09c.38-.34.43-.36.76,0s.33.08.46-.1a3.88,3.88,0,0,1,.26-.31c.41-.39.8-.79,1.23-1.15.73-.63,1.48-1.24,2.24-1.85a1.18,1.18,0,0,1,.4-.14s.07.12.06.16-.17.22-.35.13-.19.07-.26.14a.51.51,0,0,0-.11.22h.3M64.09.75H64a.25.25,0,0,1,.12.14h.12a.29.29,0,0,1-.12-.14m-6.23.72v.12A.28.28,0,0,1,58,1.47V1.35a.25.25,0,0,1-.14.12M28.37,54v-.12a.29.29,0,0,1-.14.12v.12a.25.25,0,0,1,.14-.12M49.47,2v.12A.28.28,0,0,1,49.61,2V1.87a.25.25,0,0,1-.14.12M47,2.91V3a.29.29,0,0,1,.14-.12V2.79a.25.25,0,0,1-.14.12m-1.31.79a.26.26,0,0,1-.13.13.58.58,0,0,0-.13.14c-.06.07-.11.15-.16.22s.21,0,.26-.08.07-.19.16-.28a.23.23,0,0,1,.13-.13.23.23,0,0,1,.13-.13,2,2,0,0,1,.4-.27V3.18a.29.29,0,0,1-.14.12,2,2,0,0,1-.4.27.26.26,0,0,1-.13.13M29.94,9.86V10a.29.29,0,0,1,.14-.12V9.74a.25.25,0,0,1-.14.12m-1.57,5.77v.12a.25.25,0,0,1,.14-.12v-.12a.29.29,0,0,1-.14.12m89.14,33.16v-.12a.25.25,0,0,1-.14.12v.13a.36.36,0,0,1,.14-.13m-5.9-.91a.26.26,0,0,1,.14-.13v-.13a.28.28,0,0,1-.15.13.26.26,0,0,1-.13.13V48a.29.29,0,0,1,.14-.12m.53-.53v-.12a.29.29,0,0,1-.14.12v.12a.25.25,0,0,1,.14-.12m-16.26-.26V47a.25.25,0,0,1-.14.12v.12a.29.29,0,0,1,.14-.12m42.48-1.31a.23.23,0,0,1,.13-.13v-.12a.29.29,0,0,1-.14.12.23.23,0,0,1-.13.13v.12a.25.25,0,0,1,.14-.12M71,51.15l0,.21.09,0a.36.36,0,0,1,.1-.23V51a.25.25,0,0,1-.14.12m-29.3-45h-.12a.29.29,0,0,1,.12.14.56.56,0,0,1,.27.13.1.1,0,0,0,0,0l.43.13.05-.16-.4-.08s-.08,0-.12-.07a.48.48,0,0,1-.27-.13m74.66,43.72,0,.21.09,0a.36.36,0,0,1,.1-.23v-.12a.32.32,0,0,1-.15.12M33.22,7a1.23,1.23,0,0,1,.26-.13h.19s.08,0,.13-.07-.08-.06-.11,0a3.06,3.06,0,0,1-.34.12.78.78,0,0,1-.26.13V7.1A.23.23,0,0,1,33.22,7M104.8,45.91c.06,0,.13-.09.19-.15s0-.06,0-.1l-.17.15s0,.07-.1.1V46a.25.25,0,0,1,.14-.12M63.17.62l.21.05,0-.09a.36.36,0,0,1-.23-.1.86.86,0,0,1-.39-.13h-.12a.29.29,0,0,1,.12.14,1,1,0,0,1,.39.14m56.25,33,.21.06v-.09a.32.32,0,0,1-.22-.1l-.32-.19-.06.07a1.55,1.55,0,0,1,.38.25M67.24,3.37h.12a.29.29,0,0,1-.12-.14l-.19-.32S67,3,67,3a1.82,1.82,0,0,0,.15.27.27.27,0,0,1,.11.11M56.68,2.65c-.06.1-.13.2-.19.31s0,0,.08.07a1.09,1.09,0,0,1,.25-.38V2.53a.32.32,0,0,1-.15.12M99.82,45l.31-.18s-.06-.08-.07-.08l-.26.15s0,.08-.12.11v.12a.25.25,0,0,1,.14-.12M31.38,8.42c-.1.06-.21.11-.31.18a.54.54,0,0,0-.11.18c.07,0,.17,0,.21,0a3.61,3.61,0,0,1,.34-.33V8.29a.23.23,0,0,1-.14.13M158.94,48.53l-.58.45.07.07.53-.41s0-.07.11-.11l.14-.13c.07-.06.17-.11.18-.17s-.1-.13-.16-.19a1.48,1.48,0,0,0-.13.21.67.67,0,0,1-.16.28M64.62,1h-.13a.25.25,0,0,1,.13.14,1.26,1.26,0,0,0,.26.13c.22.07.39.29.65.24-.07-.31-.43-.23-.6-.43s-.21,0-.31-.07m54.86,49.62c-.29,0-.48.06-.52.39v.12a.25.25,0,0,1,.14-.12c.11,0,.29.08.31,0s.1-.28.21-.43v-.12a.25.25,0,0,1-.14.12M44.62,5.27c.19-.23.38-.45.55-.69,0,0,0-.11,0-.17s-.1,0-.13,0a1.6,1.6,0,0,0-.58.83l-.13.27c-.06.12-.11.24-.16.36l0,0a1.34,1.34,0,0,0,.3-.33c0-.08,0-.21.07-.32m57.23,15.14h.38l0-.17-.3.1s0,0-.06-.07c-.17-.54-.62-.45-1-.45a1,1,0,0,0-.28.06,1.73,1.73,0,0,0,.31.19.57.57,0,0,0,.26,0c.3,0,.29,0,.48.16s.17.07.26.17m52.83,29.37c.08,0,.18,0,.22.09.23.31.41-.18.63,0l.05-.08-.51,0a.89.89,0,0,1-.39-.06,2.46,2.46,0,0,1-.89-.36,1.23,1.23,0,0,0-.39-.07c.13.21,0,.25-.16.24,0,0-.14.12-.12.15.09.23.12,0,.2,0s.49-.08.63,0,.49.06.73.18M54.26,1.8c-.23-.3-.6-.23-.91-.32a1.85,1.85,0,0,0-.65.07c.18,0,.35.1.53.13a6.43,6.43,0,0,1,1,.25c.55.37,1.26.45,1.74,1,0,0,.12,0,.17,0s0-.17,0-.22c-.13-.24-.39-.28-.62-.37a4.2,4.2,0,0,0-1.3-.51m93,43.26L147,45l0,.08a.34.34,0,0,1,.23.1c.63.46,1.26.93,1.91,1.38a1.29,1.29,0,0,0,.53.12c.06,0,.12-.08.18-.12s-.1-.12-.16-.13a3,3,0,0,1-1.33-.75,1.91,1.91,0,0,0-1.13-.63M103.36,21.13l-.27-.12a.48.48,0,0,0,.07.18,2,2,0,0,0,.41.41,5.25,5.25,0,0,1,1.69,1.85.85.85,0,0,1,.06.17c0-.05.08-.12.06-.16a2.62,2.62,0,0,0-.36-.87,11.46,11.46,0,0,0-1.66-1.46M6.87,52.47a1.53,1.53,0,0,1,.18.18c.18.24.35.28.54,0,0,0,.13,0,.16-.07s.18-.2.16-.24-.21-.26-.34-.06-.34.14-.52,0l-.27-.12s-.07.07-.06.1,0,.06.15.16m137.59-2.95-.58.06s0,.12,0,.13.32.17.39.12c.31-.22.42,0,.53.2,0,.06.1.14.14.13a1.05,1.05,0,0,0,.26-.13c-.06-.06-.11-.13-.18-.19s-.28-.33-.6-.32m-4.13-7c.13.09.26.19.4.27a2.18,2.18,0,0,0,.27.11c-.05-.12-.06-.31-.14-.35a4.41,4.41,0,0,0-.65-.16c-.05,0-.09-.1-.14-.12-.25-.07-.51,0-.4.11a2.12,2.12,0,0,0,.66.14M40.17,5.66l-.8-.12a.41.41,0,0,0-.18,0l.12.13s0,0,0,0l1.11.15c.05,0,.1,0,.14-.07a1.15,1.15,0,0,1-.17-.06.81.81,0,0,0-.27-.13M142.29,44.6c.2-.5-.21-.71-.47-1a.11.11,0,0,0-.09,0s0,.08,0,.11a1.24,1.24,0,0,0,.15.33,6.07,6.07,0,0,0,.43.57m1.18,4.85a.4.4,0,0,0-.45.19,1.59,1.59,0,0,1,.33.09s0,.14.06.17a.51.51,0,0,0,.22.05.57.57,0,0,0,0-.18.41.41,0,0,0-.19-.32m13.11.52a4.51,4.51,0,0,0,.52,0s.08-.16.05-.19-.56,0-.57.2M99.16,19.82l.57-.18c-.19,0-.38-.05-.57-.09,0,0,0,0,0,0-.17-.16-.18.09-.27.11a3.33,3.33,0,0,1,.32.2M97.65,46.24a2.13,2.13,0,0,0-.26-.26.46.46,0,0,0-.21,0c0,.07-.07.17,0,.22a.35.35,0,0,0,.2.15.51.51,0,0,0,.31-.06m56.44.19.28.28c.16.2.27-.08.41,0a.83.83,0,0,0-.25-.18,1.62,1.62,0,0,0-.44-.06M146,44.86h.2l.24,0c-.06-.08-.12-.19-.2-.21a1.61,1.61,0,0,0-.38,0,1.43,1.43,0,0,0,.14.25m11.67,4.46-.18.18c.06,0,.14.09.19.07a.89.89,0,0,0,.31-.19s0-.16,0-.16-.15,0-.29.1M153.3,46.7l0,.21a1.77,1.77,0,0,1,.31-.08c.17,0,.24-.06.16-.21s-.19.05-.43.08M66.19,2.19l.27.27a1.42,1.42,0,0,0,.23.14c0-.08,0-.2-.1-.26a.43.43,0,0,0-.4-.15M36.69,54.1a2,2,0,0,0-.35.1.66.66,0,0,0-.16.17.55.55,0,0,0,.22,0c.05,0,.1-.09.15-.08a.81.81,0,0,1,.25.08.38.38,0,0,0-.11-.29M123,41.45l-.34.14s-.06.06-.09.09l.45.15a.72.72,0,0,0,0-.38m-110.25,14c.26,0,.2-.16.18-.29s-.16-.11-.17-.1-.33.18,0,.39M121.45,34.9c-.17,0-.27,0-.09.17a3.81,3.81,0,0,0,.41.29c-.09-.13-.17-.26-.32-.46m-1.25-1.12-.16-.06s-.06.1-.05.11.24.24.36.36.08,0,.08,0,0-.09,0-.11a3.52,3.52,0,0,0-.26-.31m25.37,17.11h.32a.42.42,0,0,0,.12-.08,2.32,2.32,0,0,0-.44-.16s-.09.16,0,.24M51,1.66,50.5,1.6a1,1,0,0,0-.16,0,.7.7,0,0,0,.2.08A1,1,0,0,0,51,1.66m-9.9,4.4.31.08A.79.79,0,0,0,41.25,6c-.11-.08-.12-.07-.17.09M61.54.42c.1,0,.21,0,.32,0s.07-.06.11-.09c-.2,0-.41-.17-.43.09M97.91,46c.06.05.11.14.18.16s.14,0,.21,0a.67.67,0,0,0-.14-.19s-.12,0-.25.06M85.53,21.79a1.74,1.74,0,0,0,.32,0s.08-.05.11-.08c-.19,0-.41-.17-.43.09m58.53,22.87c.06.06.11.14.18.17s.14,0,.21,0a1,1,0,0,0-.14-.2s-.12,0-.25.06m8.26,5.51-.26.2s0,.07,0,.11a.63.63,0,0,0,.22-.31m-95,5.18.18-.05-.27-.21s-.06,0-.1.06l.19.2M125.45,49a.1.1,0,0,0,0,0h.05c0-.1-.07-.21-.11-.31s-.06,0-.09,0a.71.71,0,0,0,.11.29m-45-37.3.14.12c.17-.18,0-.24-.11-.35a.27.27,0,0,0,0,.23m-42.08-6,.45-.07c-.16,0-.31,0-.47,0s0,0,0,.1m82.59,29a1.21,1.21,0,0,0,0-.18,1.8,1.8,0,0,0-.08-.21.9.9,0,0,0-.06.22c0,.06,0,.11.19.17m-108.48.45c0-.24-.14-.19-.28-.19s-.06,0-.1.05l.27.17s0,0,.11,0M66,5.53l0,0s0,0,0,0l.24,0a.2.2,0,0,0-.2,0m38.35,41.1c0-.06-.09-.13-.15-.19s-.06,0-.1,0a.31.31,0,0,0,.25.15M115,51l-.12-.13-.06.21c.08,0,.16,0,.18-.08m37-4.13-.13.13.2.06c0-.08,0-.17-.07-.19M61.93,53.78l.19-.15s0-.07,0-.1a.31.31,0,0,0-.15.25M5,41.65a2.3,2.3,0,0,0,.28.06s.06,0,.1-.05-.09-.06-.13-.07-.13,0-.25.06M44,6.06v.26c0-.09.09-.18,0-.26M2.61,40.86l-.15-.19s-.07,0-.1,0a.29.29,0,0,0,.25.15m125.72.53.21,0,0-.08a.29.29,0,0,0-.23,0M58.65,1.07l.07.14c0-.05,0-.09-.07-.14M30.53,9.4l-.21-.05,0,.08a.34.34,0,0,0,.23,0m-22.35,33-.07-.13s0,.09.07.13m131.23,0-.07-.13s0,.09.07.13M36.76,5.93l-.07-.14s0,.09.07.14m68.5,29,0,.17.08,0c0-.07,0-.14-.11-.15m50.8,11.74-.07-.13s0,.08.07.13m1.18,2.75-.17,0,0,.09c.07,0,.14,0,.15-.12m-42.61,1.31-.17,0,0,.08c.07,0,.14,0,.14-.12m35.2-3.87.21,0,0-.08a.34.34,0,0,0-.23,0m-3.41,4.2,0-.17-.08,0c0,.07,0,.13.11.14M6.6,44.34a1.6,1.6,0,0,0,.05-.21l-.08,0a.34.34,0,0,0,0,.23m145,2.75-.07-.13s0,.09.07.13M98.31,19.63l0-.17-.08,0c0,.07,0,.14.12.15m-28,32.57-.17,0,0,.08c.07,0,.13,0,.14-.12m20-29.3-.21,0,0,.08a.29.29,0,0,0,.23,0M71.83,52.79l.21.05,0-.08a.34.34,0,0,0-.23,0m-4.59.79,0-.17-.08,0c0,.07,0,.14.12.14M118,48.07l.21,0,0-.08a.34.34,0,0,0-.23,0m25-3,.05-.07s-.08,0-.05.07m-37.43-.06-.08-.05s0,.07.08.05m39.53-.59-.06.08s.08,0,.06-.08m-44-.59-.08-.05s0,.07.08.05m55.33,2.88.07.05s0-.07-.07-.05m-37.63-13.5.08.05s0-.08-.08-.05m-.79-.39.08.05s0-.08-.08-.05M15.45,26.57l-.07-.05s0,.08.07.05M12.9,25.2l-.06.08s.08,0,.06-.08M114.3,47.68l-.08,0s0,.08.08,0m26.42.07.05-.08s-.08,0-.05.08M76.94,24.08l.08.05s0-.07-.08-.05m13.63-.92.08.06s0-.08-.08-.06m-4.39-1.37-.05.08s.08,0,.05-.08m9.11-1.64-.08,0s0,.08.08,0m4.85-.26-.07-.06s0,.08.07.06m-2.23-.26-.07-.06s0,.08.07.06m28.45,28.84.08.05s0-.08-.08-.05m-13.3.32,0-.07s-.08,0,0,.07m-.46.33.08.05s0-.07-.08-.05m8.19.33,0-.08s-.07,0,0,.08m-8.72.07.08,0s0-.08-.08,0M31.71,8.09l.08.05s0-.08-.08-.05m38.22,42-.06.07s.08,0,.06-.07m43.39,0,0,.07s.08,0,0-.07M43.71,6.58l0-.08s-.08,0,0,.08m28.77-.2-.08,0s0,.08.08,0m-1.37-.72,0-.08s-.08,0,0,.08m-23.34-3,0-.08s-.08,0,0,.08m9.44-.53,0-.08s-.08,0,0,.08M41.41,54.76l.08.05s0-.08-.08-.05m15.14.33.06-.08s-.08,0-.06.08M65.8,1.66l-.08,0S65.73,1.69,65.8,1.66ZM60.32,38.6a16.13,16.13,0,0,1-2.69,2.16.74.74,0,0,1-1,0,.51.51,0,0,0-.44,0c-.45.17-.89.37-1.34.56,0,0-.09.1-.14.12a1.57,1.57,0,0,1-.83-.15,1.6,1.6,0,0,1,.54-.47A7.62,7.62,0,0,0,57.3,39q.42-.45.87-.87c.39-.37.82-.69,1.19-1.08a13.77,13.77,0,0,0,2.55-3.18c0-.06.12-.09.18-.13s.06.18,0,.24c-.21.35-.43.7-.65,1a16.85,16.85,0,0,1-2.07,2.55c-.51.5-.92,1.1-1.41,1.63a6.09,6.09,0,0,1-.77.66c-.12.09-.28-.24-.41,0l-.06.17h.17c.07,0,.17,0,.22,0,.21.15.34,0,.5-.1L61.2,37.2a3.7,3.7,0,0,0,.28-.28,25,25,0,0,0,1.92-2.08,6.05,6.05,0,0,0,1.48-2.53.46.46,0,0,1,.07-.16c0,.05.07.12,0,.17a3.78,3.78,0,0,1-.36,1.15,19,19,0,0,1-2.06,2.76c-.34.33-.57.78-.9,1.13s-.88.81-1.36,1.24m-3.24,1.94,0,.07S57.1,40.61,57.08,40.54ZM19.42,47.65c.13.05.25.23.31.21a2.59,2.59,0,0,0,.84-.33,25.29,25.29,0,0,0,3.09-2.67c.58-.6,1.25-1.12,1.83-1.73A5.43,5.43,0,0,0,27,40.88c0-.12.14-.21.21-.32.06.15.18.32.14.44a2.46,2.46,0,0,1-.36.77A7.47,7.47,0,0,1,26,43c-.59.52-1,1.18-1.56,1.72a15.18,15.18,0,0,1-1.55,1.44c-.44.32-.76.79-1.24,1.1-.09.06-.12.25-.13.39a1.11,1.11,0,0,0,.11.32,1,1,0,0,0,.14-.29c.05-.34.39-.41.58-.59.51-.46,1.09-.85,1.63-1.27.78-.6,1.56-1.19,2.33-1.8.34-.27.66-.55,1-.84.67-.61,1.33-1.23,2-1.85a.47.47,0,0,1,.14-.14.86.86,0,0,1,.17,0c0,.07.05.17,0,.22a3.94,3.94,0,0,1-1,1.15c-.44.32-.86.67-1.28,1a10.85,10.85,0,0,0-1.46,1.22c-.7.83-1.67,1.32-2.4,2.11A13.62,13.62,0,0,1,22.1,48.1a1.56,1.56,0,0,1-.67.29c-.09,0-.27-.11-.33-.22s-.08-.22-.27-.1a2.93,2.93,0,0,1-.93.44c-.54.1-.68-.12-.52-.63C19.4,47.82,19.39,47.75,19.42,47.65ZM71.66,14.81c-.76.8-1.53,1.53-2.2,2.35a38.12,38.12,0,0,1-2.65,2.89,2.77,2.77,0,0,1-1,.65.81.81,0,0,1-.22,0c0-.07.07-.18.14-.21a8.83,8.83,0,0,0,2.73-2.54c.12-.15.27-.28.4-.43,1-1.11,2-2.23,2.93-3.44.36-.48.78-.93,1.14-1.42a4.47,4.47,0,0,0,.5-.91c0-.12,0-.29,0-.43l-.31.17s-.06.07-.1.09l-.27.11a1.65,1.65,0,0,1,0-.31,1.31,1.31,0,0,1,1-.73,1,1,0,0,1,.51.94,1.46,1.46,0,0,1-.2.5c-.1.14-.22.19,0,.39a1,1,0,0,1-.08,1c-.32.44-.61.89-.93,1.32s-.83,1.16-1.3,1.69c-1.74,1.92-3.49,3.84-5.36,5.63l-.74.73s-.06,0-.09.06,0-.08,0-.11a.7.7,0,0,1,.13-.33c.51-.49,1.06-.94,1.55-1.44a32.76,32.76,0,0,0,2.36-2.5c.81-1,1.68-2,2.45-3,.56-.77,1-1.59,1.54-2.38a.37.37,0,0,0,0-.14.2.2,0,0,0-.13,0,1,1,0,0,0-.36.22c-.28.33-.52.7-.8,1a6.61,6.61,0,0,1-.53.54m2-2.13-.21-.18s-.06.09,0,.09A.3.3,0,0,0,73.66,12.68Zm-5.14.42c.4-.62.78-1.2,1.14-1.8a3.07,3.07,0,0,0,.31-.72c.07-.21.15-.35.39-.33s.3.2.29.42c0,.4.13.22.33.11.46-.24.61-.18.94.15a.6.6,0,0,1,.1.76,5.33,5.33,0,0,1-.5.77c-.46.6-.91,1.2-1.4,1.78S69,15.44,68.46,16s-.83,1-1.3,1.42A7.5,7.5,0,0,0,66,18.79a.32.32,0,0,1-.14.08c0-.08-.06-.19,0-.24a7,7,0,0,1,.57-.75c.54-.61,1.14-1.17,1.65-1.8a39.77,39.77,0,0,0,3-3.93.47.47,0,0,0,0-.17c0-.19.36-.4.15-.51a.66.66,0,0,0-.78.09,17.35,17.35,0,0,0-1.91,2.28,11.16,11.16,0,0,1-.77.93L65,17.89,64.11,19A.73.73,0,0,1,64,19c0-.06-.07-.13,0-.17a3.18,3.18,0,0,1,.45-.73A33.12,33.12,0,0,0,67.05,15c.4-.52.83-1,1.25-1.52C68.37,13.36,68.42,13.24,68.52,13.1ZM58.16,44.57c-.66.52-1.31,1-1.9,1.52-.43.38-.83.78-1.28,1.15-.63.51-1.2,1.11-1.81,1.65s-1.36,1.22-2.07,1.8a3.81,3.81,0,0,1-.8.42c-.27.13-.47,0-.63-.21s-.37-.5-.55-.76c0-.07-.09-.2-.06-.26s.2-.18.24-.16c.75.39,1.19-.22,1.62-.57a30.1,30.1,0,0,0,2.27-2.25c.31-.31.59-.67.89-1a.21.21,0,0,1,.18,0c.08,0,.11.1,0,.23a6.66,6.66,0,0,1-1.45,2c-.12.11-.34,0-.47.2s-.13.35,0,.5.28,0,.39-.15a10.31,10.31,0,0,1,.75-.73c1-.81,2-1.6,3.06-2.41l1.42-1.15c.06,0,.18,0,.27,0l-.16.31m-6.59,4.75a3.31,3.31,0,0,0,.26-.27s0-.08,0-.12a1.66,1.66,0,0,0-.37.14s0,.16.12.25m-1.18.79-.16,0,0,.08c.07,0,.14,0,.14-.11M52,49.32l-.05.08S52,49.39,52,49.32ZM83.85,38.8c.73-.82,1.42-1.61,2.13-2.38a4.09,4.09,0,0,1,.68-.55c.06,0,.19,0,.27,0s0,.14,0,.23c-.19.26-.35.55-.55.81-.52.66-1,1.31-1.57,2a11.1,11.1,0,0,1-.84,1c-.36.36-.53.36-.89,0s-.41-.15-.61,0a.73.73,0,0,1-1-.11.49.49,0,0,1-.23-.5c0-.1,0-.2.06-.3s.28,0,.35.08c.31.3.44.11.65-.14.41-.47.88-.9,1.32-1.35.06-.05.07-.14.12-.21s.12-.1.13-.09.13.12.12.18a1.88,1.88,0,0,1-.39,1.08,3.59,3.59,0,0,0-.37.5c0,.06,0,.19.12.26s.17,0,.22-.09S83.74,39,83.85,38.8ZM50.62,40.17a6.58,6.58,0,0,1,.41-.53c.65-.67,1.32-1.32,2-2a20.45,20.45,0,0,0,2.22-2.6,2,2,0,0,1,.56-.55,3,3,0,0,0,.86-1c.44-.63.9-1.25,1.35-1.87,0-.05.09-.08.13-.12s.09.18.06.23c-.33.54-.65,1.09-1,1.61S56.37,34.4,56,34.93a1.21,1.21,0,0,1-.21.24,20.54,20.54,0,0,0-2.08,2.48c-.53.6-1,1.23-1.58,1.83-.39.44-.82.84-1.25,1.25a.84.84,0,0,1-.43.19.39.39,0,0,1-.31-.17c0-.07.06-.23.13-.31a3.69,3.69,0,0,1,.39-.27m5-5.14,0-.08S55.61,35,55.64,35Zm-3.48,5.64c.13.06.33.11.38,0,.63-.72,1.21-1.46,1.84-2.18.19-.22.46-.36.67-.57.64-.62,1.28-1.25,1.9-1.89s1.46-1.47,2.11-2.27c.28-.34.72-.62.71-1.15,0,0,.12-.07.18-.11s.1.17.07.22a6.14,6.14,0,0,1-.53.89c-.39.52-.81,1-1.25,1.52-.16.18-.42.28-.58.47-.42.47-.8,1-1.21,1.46s-.85.91-1.25,1.39c-.59.71-1.15,1.44-1.73,2.16a5,5,0,0,1-.69.76.61.61,0,0,1-.89,0,1,1,0,0,1-.22-.93.43.43,0,0,1,.24-.17A1.09,1.09,0,0,1,52.16,40.67Zm14-7.48a1,1,0,0,1-.46.78,1.8,1.8,0,0,0-.62.91,2.36,2.36,0,0,1-.72.9.36.36,0,0,0-.2,0,.15.15,0,0,0,0,.12.3.3,0,0,1,.11-.12h.09c-.1.21-.16.5-.33.63-.45.35-.56.93-1,1.3s-.69.9-1.08,1.31a9,9,0,0,1-1.18.94,1.13,1.13,0,0,1-.46.14c-.22,0-.41,0-.4-.29a.62.62,0,0,1,.27-.36c.16-.11.39-.14.53-.27.7-.68,1.4-1.36,2.06-2.08.42-.45.72-1,1.16-1.47a27,27,0,0,0,1.92-2.49,8.27,8.27,0,0,0,.73-1.26,1.31,1.31,0,0,1,.11-.12c0,.06.13.15.11.18-.22.39-.18.89-.58,1.18a.37.37,0,0,0-.15,0Zm-9.47,20c.38-.34.74-.64,1.08-1s.86-.86,1.29-1.28.79-.75,1.14-1.16c.74-.84,1.46-1.7,2.18-2.56a2.92,2.92,0,0,0,.19-.44s.09-.07.13-.1.06.12.05.17a3.63,3.63,0,0,1-.28.67c-.37.55-.77,1.08-1.16,1.61-.22.3-.45.61-.69.9-.48.58-.95,1.19-1.48,1.73-.69.71-1.42,1.37-2.15,2a2.1,2.1,0,0,1-.59.32c-.32.12-.44-.18-.63-.34s.08-.26.09-.4.14-.06.22-.08A5.7,5.7,0,0,0,56.72,53.22Zm-26.45-3.9a1,1,0,0,1,.31-.26c0,.13.07.29,0,.38a5.31,5.31,0,0,1-.64.91c-.67.74-1.32,1.49-2.05,2.16-.91.83-1.6,1.86-2.51,2.69a4,4,0,0,1-1,.52.66.66,0,0,1-.61-.18c-.08-.14.05-.42.1-.64,0,0,0,0,.08,0,1-.14,1-.14,1.58-.71l3.33-3.33C29.32,50.34,29.79,49.86,30.27,49.32Zm65.25-12c.34-.61.63-1.19,1-1.75.5-.84,1-1.66,1.56-2.49,0-.06.06-.15.11-.18.43-.24.43-.24.3-.71a.41.41,0,0,1,0-.19.55.55,0,0,1,.08-.15s.08.06.08.1a2.84,2.84,0,0,1,0,1.09c-.34.76-.79,1.46-1.2,2.19-.66,1.17-1.31,2.34-2,3.5a1.62,1.62,0,0,1-.51.5.59.59,0,0,1-.47,0c-.09,0-.17-.24-.18-.37a11.41,11.41,0,0,1,0-1.17c0-.09.12-.17.18-.25s0,.14.08.22c.08.26-.17.58.13.82.14-.21.28-.43.43-.63Zm-46.08.19L48,38.84c-.22.18-.64.25-.77.14-.31-.27-.3-.35.06-.54a3.52,3.52,0,0,0,.68-.39c.42-.39.85-.77,1.28-1.15,1-.86,1.94-1.78,2.87-2.72.67-.69,1.29-1.42,1.89-2.17a9.31,9.31,0,0,0,.75-1.26,1,1,0,0,1,.18-.18c0,.1.1.22.07.29a4.1,4.1,0,0,1-.44.86c-.58.8-1.17,1.59-1.81,2.33s-1.17,1.17-1.74,1.77S50,37,49.44,37.55Zm-1.11-2a3.4,3.4,0,0,0,.74-.5c.68-.9,1.7-1.4,2.41-2.25s1.43-1.68,2.12-2.54a2.34,2.34,0,0,0,.27-.6c0-.05.08-.07.13-.11s.13.14.12.17a7,7,0,0,1-.58,1c-.6.76-1.23,1.51-1.85,2.25-.17.2-.36.37-.54.55-.5.49-.95,1-1.49,1.46-.88.74-1.65,1.59-2.59,2.25a6.13,6.13,0,0,1-1.43,1,.79.79,0,0,1-.41.09A.52.52,0,0,1,45,38c-.06-.14,0-.18.19-.23a8.51,8.51,0,0,0,2.19-1.52C47.65,36,48,35.79,48.33,35.52ZM30.27,44.34c.4-.39.73-.78,1.08-1.15s.67-.62,1-1c.51-.61,1-1.25,1.49-1.87,0-.05.15,0,.22-.06s0,.17,0,.22a11.06,11.06,0,0,1-.93,1.31c-.74.8-1.53,1.55-2.3,2.32S29,46,28.07,46.85c-.68.65-1.39,1.26-2.12,1.85a1.31,1.31,0,0,1-.69.22c-.47,0-.45-.05-.39-.54s.18-.1.28-.12a1,1,0,0,0,.47-.13c.63-.48,1.25-1,1.87-1.48l2.11-1.71C29.82,44.75,30,44.54,30.27,44.34Zm36.8-10c.44-.61.84-1.18,1.24-1.76a5.24,5.24,0,0,1,.42-.54.88.88,0,0,1,.31-.13,2,2,0,0,1-.1.26A14.37,14.37,0,0,1,67.36,35c-.37.55-.79,1.08-1.21,1.59a16.88,16.88,0,0,1-1.21,1.33,3.78,3.78,0,0,1-.86.6.57.57,0,0,1-.78-.21c-.13-.19-.08-.35.09-.37,1-.1,1.56-1,2.21-1.6a16.67,16.67,0,0,0,1.3-1.68c.06-.08.1-.18.17-.3m-.55,1.21-.2.31.08.07a1.3,1.3,0,0,1,.25-.38l0-.21-.09,0a.35.35,0,0,1-.09.23m.59-.72.08.05s0-.07-.08-.05m.32-.59-.05.08S67.46,34.31,67.43,34.24Zm-34.25,12a3.46,3.46,0,0,1-1.49,1.09.5.5,0,0,1-.63-.33c0-.31.14-.37.42-.42a2.43,2.43,0,0,0,1.23-.8c1.06-1,2.1-2,3.09-3.12.2-.21.63,0,.63-.45.31-.1.16-.5.48-.66s.42-.46.61-.71a.35.35,0,0,0,.08-.29c-.09-.28.2-.22.29-.33H38a1.24,1.24,0,0,1-.1.39c-.26.42-.54.83-.83,1.23s-.77,1-1.16,1.55a.89.89,0,0,1-.13.14c-.31.31-.62.61-.92.92-.55.58-1.08,1.17-1.66,1.79m-.68.29,0-.17-.08,0C32.39,46.43,32.41,46.5,32.5,46.5Zm39-27.63c-.65.7-1.26,1.37-1.89,2S68.26,22.28,67.56,23a1.11,1.11,0,0,1-.27.12c0-.11,0-.25.09-.32.43-.45.89-.89,1.33-1.35.74-.76,1.49-1.51,2.17-2.31.54-.63,1-1.36,1.51-2a9.69,9.69,0,0,0,1.15-1.69c.11-.22.31-.43-.06-.59a.12.12,0,0,1-.06-.08.91.91,0,0,1,.73-.44c.11,0,.28.14.28.21,0,.42.12.87-.18,1.22C73.36,16.79,72.46,17.81,71.53,18.87ZM52.29,36c.91-.94,1.8-1.84,2.58-2.82.25-.31.7-.53.71-1,0,0,.08-.06.13-.1s.13.14.11.18a2.35,2.35,0,0,1-.48,1c-.63.65-1.28,1.28-1.84,2a45.66,45.66,0,0,1-3.62,3.87,4.07,4.07,0,0,1-.69.55,1.51,1.51,0,0,1-.61.11c-.07,0-.19-.13-.21-.21s.08-.24.15-.25c.54-.13.82-.63,1.26-.91a8.06,8.06,0,0,0,1.07-1C51.31,36.87,51.77,36.41,52.29,36ZM22.8,43.55A21.32,21.32,0,0,0,24.51,42c.39-.41.69-.89,1-1.33l.21-.27a2.47,2.47,0,0,1,0,.38,1.58,1.58,0,0,1-.56,1c-.92.89-1.89,1.73-2.83,2.59l-.19.18c-.75.76-1.56,1.46-2.36,2.16-.37.32-.75.62-1.11,1a.76.76,0,0,1-.64.19c-.1,0-.28-.06-.29-.12s0-.48.16-.5c.71,0,1.06-.62,1.57-1s1-.94,1.63-1.31S22.18,44,22.8,43.55Zm1.47,4.16c-.12-.17-.28-.32-.26-.43s.24-.22.43-.19a1.08,1.08,0,0,0,.75-.23,7.68,7.68,0,0,0,1.92-1.38c.39-.42.87-.75,1.26-1.16.63-.66,1.19-1.38,1.81-2a4.59,4.59,0,0,0,1-1.41s.11,0,.16-.06.09.16.07.2a11.45,11.45,0,0,1-1.07,1.71C29.28,44,28.15,45.18,27,46.35a4,4,0,0,1-1.93,1.3A3.29,3.29,0,0,1,24.27,47.71Zm16.45-6a4.47,4.47,0,0,1-.36.49,20.88,20.88,0,0,0-1.64,2,23,23,0,0,1-2.39,2.55A.75.75,0,0,1,35,46.42a.62.62,0,0,1,0-.4c.12-.25.33,0,.34,0,.24.21.41.13.61-.07s.44-.33.63-.52c1-1,2-1.91,2.91-2.92s1.62-1.86,2.42-2.79c.06-.06.11-.15.19-.18a2,2,0,0,1,.35-.09,1.56,1.56,0,0,1-.16.28C41.84,40.4,41.3,41,40.72,41.68ZM53.18,52.37c-.31,0-.27-.23-.22-.33a.93.93,0,0,1,.35-.36,9.6,9.6,0,0,0,1.86-1.37c.2-.17.44-.3.66-.47.51-.39,1-.77,1.53-1.2.77-.69,1.51-1.42,2.26-2.13a1.14,1.14,0,0,0,.27-.35c0-.1,0-.3.18-.23s.11.22.08.32a.74.74,0,0,1-.31.47,7,7,0,0,0-.76.85,20.49,20.49,0,0,1-1.81,1.8,38.06,38.06,0,0,1-3.61,3C53.5,52.45,53.38,52.53,53.18,52.37Zm-8.1-20.49a16.06,16.06,0,0,1-2.89,2.17,4.32,4.32,0,0,1-.67.28c-.22.08-.7-.1-.75-.29s-.13-.35.15-.32a1.72,1.72,0,0,0,1.14-.41c1.07-.65,2.12-1.32,3.15-2,.71-.47,1.39-1,2-1.52a10.61,10.61,0,0,0,1.06-1.06c.17-.18.52-.22.47-.59,0,0,.19-.11.22-.09s.14.19.12.26a.77.77,0,0,1-.23.36c-.51.48-1,.94-1.57,1.41,0,0-.09,0-.12,0C46.52,30.68,45.84,31.28,45.08,31.88Zm3.25,0c.67-.63,1.32-1.22,2-1.83a2.27,2.27,0,0,0,.84-1.09c0-.07.12-.12.18-.19,0,.1.1.22.07.28a3.31,3.31,0,0,1-.49.78c-.43.46-.89.87-1.36,1.29s-1.12,1-1.66,1.49a25.48,25.48,0,0,1-3.51,2.88,6.7,6.7,0,0,1-1.05.64c-.06,0-.1.09-.16.11-.25.07-.72-.1-.66-.21a1.22,1.22,0,0,1,.46-.44c.5-.31,1-.59,1.52-.9A28,28,0,0,0,48,32.07,3.12,3.12,0,0,1,48.33,31.85ZM67,36.5A29.6,29.6,0,0,0,69.61,33,16.55,16.55,0,0,1,71,31.24a.52.52,0,0,1,.18-.1.72.72,0,0,1,0,.25,4.92,4.92,0,0,1-.4.94c-.83,1.3-1.66,2.59-2.54,3.85a8.28,8.28,0,0,1-1.29,1.29c-.27.26-.44.2-.67-.06s0-.27.07-.36Zm-14,14.23c.51-.41,1-.78,1.47-1.15.31-.24.64-.47.93-.74a16.26,16.26,0,0,1,1.87-1.64A7.16,7.16,0,0,0,58.41,46a6,6,0,0,1,.73-.6s.12,0,.18,0a.84.84,0,0,1-.08.19c-.27.28-.55.56-.83.83-1.37,1.38-2.73,2.76-4.12,4.11a16,16,0,0,1-1.78,1.39.77.77,0,0,1-1-.19c-.2-.25-.1-.59.19-.55C52.2,51.25,52.57,50.91,53.05,50.73ZM93.36,34.41c-.3.58-.56,1.12-.82,1.67s-.41.92-.66,1.36a6.85,6.85,0,0,1-1.33,1.87.46.46,0,0,1-.76,0c-.12-.12-.15-.19-.05-.37a5.33,5.33,0,0,0,.31-1l.07-.15a1.27,1.27,0,0,1,.06.18l.09.47a3.39,3.39,0,0,0,.31-.34c.39-.55.81-1.09,1.15-1.68.52-.91,1-1.86,1.5-2.78.09-.17.12-.25,0-.37a.57.57,0,0,1-.1-.19c.1,0,.26,0,.29,0a.93.93,0,0,1,.18.45A1.06,1.06,0,0,1,93.36,34.41ZM40.53,43.58l2-2.36A3.71,3.71,0,0,1,43,40.8c.2.29-.09.46-.2.63q-.62.93-1.32,1.8a17.27,17.27,0,0,1-1.28,1.42c-.64.63-1.29,1.26-2,1.83a1.12,1.12,0,0,1-1,.34A1.2,1.2,0,0,1,37,46.6c.07-.1.12-.24.22-.29A12.88,12.88,0,0,0,40.53,43.58ZM92.77,38.4a32.38,32.38,0,0,0,2.44-4.27c.11-.25.23-.51.34-.77a1.33,1.33,0,0,1,.17-.38,2.31,2.31,0,0,1,.45-.29,3.26,3.26,0,0,1-.09.45,18.65,18.65,0,0,1-.78,1.91c-.51.94-1,1.91-1.45,2.86a12.15,12.15,0,0,1-.7,1.15.84.84,0,0,1-.79.29.64.64,0,0,1-.35-.69c.06-.42.09-.84.14-1.26,0,0,0-.08.08-.13a.61.61,0,0,1,0,.12c0,.33.08.66.13,1,0,.1,0,.2,0,.3ZM49.51,29.13c0,.15,0,.36-.12.46-.36.36-.76.68-1.14,1l-.32.32c-1.09,1-2.19,1.9-3.25,2.88A7.9,7.9,0,0,1,43.12,35a3.3,3.3,0,0,1-.72.32.7.7,0,0,1-.47-.07c-.15-.07-.37-.24-.36-.34s.25-.23.45-.23a2.5,2.5,0,0,0,1.59-.72,23.46,23.46,0,0,0,3.09-2.37,22.16,22.16,0,0,1,1.76-1.41C48.82,29.83,49.14,29.47,49.51,29.13ZM66.62,11.46c.55-.73,1.07-1.43,1.6-2.12a1.75,1.75,0,0,0,.47-1.06c0-.09.09-.17.12-.27a.36.36,0,0,1,.51-.23.71.71,0,0,1,.26.48.49.49,0,0,1-.12.4c-.37.37-.56.88-1,1.23a10.89,10.89,0,0,0-1.21,1.32c-.41.48-.78,1-1.21,1.45-.76.81-1.57,1.57-2.34,2.36-.48.49-.92,1-1.39,1.51,0,0-.12.07-.18.11s0-.19,0-.25a1.37,1.37,0,0,1,.25-.29l1.71-1.71a22.18,22.18,0,0,0,2.17-2.57A3,3,0,0,1,66.62,11.46ZM47.7,34.11a24.2,24.2,0,0,1,2-1.58,15,15,0,0,0,1.2-1.19,1.79,1.79,0,0,1,.28-.27c.15-.09.33-.16.49-.24a3.07,3.07,0,0,1-.28.42c-.55.55-1.08,1.13-1.66,1.65-.84.75-1.71,1.45-2.56,2.18-.6.51-1.19,1-1.8,1.52a11.08,11.08,0,0,1-1.08.7l0,0c-.25.17-.41-.09-.62-.14.1-.15.18-.4.31-.44a6.4,6.4,0,0,0,1.85-1.22c.6-.42,1.16-.89,1.74-1.34A.44.44,0,0,1,47.7,34.11ZM69.56,22.54c-.13.1-.26.14-.34.22l-1.67,1.66a.67.67,0,0,1-.26.1c0-.1,0-.24.09-.31.61-.58,1.28-1.1,1.83-1.73a33.54,33.54,0,0,0,2.66-3.15c.51-.74,1.14-1.4,1.7-2.11a4.92,4.92,0,0,0,.72-1c.1-.22.2-.17.33-.19,0,.15.23.18.14.44A4.19,4.19,0,0,1,74,17.71c-.57.68-1.2,1.3-1.79,1.95-.44.49-.85,1-1.29,1.5-.17.2-.42.33-.6.53S69.83,22.23,69.56,22.54Zm21.11,14a2.07,2.07,0,0,0-.54.93c-.46.13-.52.6-.78.9a5.28,5.28,0,0,1-.72.61c-.28.23-.42,0-.59-.15s0-.3.1-.41.33-.34.5-.5.22-.21.31-.32c.92-1.1,1.74-2.27,2.55-3.45a1.88,1.88,0,0,1,.44-.33,2.63,2.63,0,0,1,.07.49c0,.43-.33.69-.53,1S91,36.14,90.67,36.57Zm-3.54,2.1a6.3,6.3,0,0,1-1.19,1.58.53.53,0,0,1-.86-.16.4.4,0,0,1,.34-.59.69.69,0,0,0,.56-.36c.63-.88,1.19-1.81,1.89-2.62a10.9,10.9,0,0,1,1.72-1.35s.14,0,.17,0a.17.17,0,0,1,0,.17,8,8,0,0,1-.7.82A10.94,10.94,0,0,0,87.13,38.67ZM29.06,48.24l-.52.29c-.13.07-.27.25-.42,0s-.21-.3-.18-.35.06-.43.37-.33a.27.27,0,0,0,.23,0c.37-.34.71-.7,1.07-1,.17-.16.38-.26.53-.43.34-.35.64-.74,1-1.09.62-.64,1.26-1.26,1.88-1.89.36-.35.7-.71,1.06-1,0,0,.15,0,.22-.07s0,.21,0,.27c-.48.54-1,1.06-1.46,1.61-.86,1-1.68,2-2.55,3A15.27,15.27,0,0,1,29.06,48.24Zm-5.84-6.62c.13-.17.2-.35.33-.41s.23-.28.34,0a.36.36,0,0,1-.05.3c-.22.26-.46.5-.7.74a18.39,18.39,0,0,1-1.54,1.52c-1,.83-1.91,1.82-3,2.6a1.41,1.41,0,0,1-1.16.34.43.43,0,0,1-.29-.31c0-.11.2-.32.29-.31a1.12,1.12,0,0,0,.85-.34c1-.71,1.92-1.42,2.83-2.18C21.86,43,22.51,42.28,23.22,41.62Zm98.26,4.45c.06.48-.33.68-.54,1-.62.87-1.29,1.7-2,2.52a2.27,2.27,0,0,1-1.09.84c-.08,0-.14.08-.22.1s-.42,0-.46-.23a.58.58,0,0,1,.2-.42c.38-.33.83-.59,1.17-1a16.1,16.1,0,0,0,1.92-2.21c.34-.51.8-.9,1.1-1.43,0-.07.17-.09.26-.13a1.16,1.16,0,0,1-.08.32c-.09.2-.21.39-.29.62m-1.08,1.28a.26.26,0,0,1,.13-.13l0-.21-.08,0a.37.37,0,0,1-.1.23.23.23,0,0,1-.13.13v.12a.25.25,0,0,1,.14-.12m.52-.92,0,.21.09,0a.4.4,0,0,1,.09-.23v-.12a.25.25,0,0,1-.14.12m-1,1.45,0,0v0l.24,0a.18.18,0,0,0-.2,0m-2.16,2.42-.21,0,0,.08A.29.29,0,0,0,117.71,50.3Zm-53-34.44c.9-1.08,1.79-2.1,2.62-3.16.51-.65,1-1.35,1.39-2a7.4,7.4,0,0,0,.48-1c0-.06,0-.14,0-.18s.26-.37.53-.3a.91.91,0,0,1,.15.66c-.22.36-.44.74-.69,1.08-.61.8-1.24,1.59-1.86,2.38l-.13.14-3.71,4a2,2,0,0,1-.4.29l-.19.1c0-.08,0-.17,0-.22.19-.21.4-.41.6-.61Zm-22.64-7a2.05,2.05,0,0,0-1.31.62,18,18,0,0,0-2.91,2.68,7.38,7.38,0,0,1-1.53,1.15s-.16,0-.24,0a.52.52,0,0,1,.1-.18c.51-.47,1-.91,1.52-1.4s.95-1.12,1.49-1.6a15.83,15.83,0,0,1,2.32-1.83A2.27,2.27,0,0,1,42.73,8s.08.11.12.17c-.29,0-.1.39-.32.47A3.74,3.74,0,0,1,42.07,8.81ZM20.21,42.27c.51-.51,1-1,1.47-1.46a.82.82,0,0,1,.26-.14,2.1,2.1,0,0,0-.06.24A1.36,1.36,0,0,1,21.12,42c-.22.11-.33.43-.52.62-.46.44-.93.88-1.42,1.29s-1.12.8-1.62,1.26a1,1,0,0,1-.79.16c-.09,0-.24-.18-.25-.29s.12-.33.21-.33a3.26,3.26,0,0,0,1.6-.89C19,43.4,19.56,42.83,20.21,42.27Zm50-17.63,2-2c.06-.06.2-.13.22-.11a.36.36,0,0,1,.14.26.63.63,0,0,1-.13.39c-.71.65-1.44,1.26-2.15,1.91-.46.42-.88.89-1.34,1.33s-.72.66-1.1,1c-.55.44-1.15.84-1.68,1.31a2.4,2.4,0,0,1-1,.39s-.11-.08-.1-.1.1-.23.12-.22c.52.12.78-.31,1.09-.54a18,18,0,0,0,1.53-1.37c.44-.42.85-.87,1.29-1.29S69.85,25,70.22,24.64Zm.13-2.1,2.71-3a1.07,1.07,0,0,1,.19-.18c.12-.08.18-.35.41-.17a.45.45,0,0,1,0,.62c-.32.32-.67.6-1,.9s-.72.69-1.07,1.05c-.88.92-1.73,1.87-2.64,2.75a6,6,0,0,1-1.26.74s-.1-.1-.09-.13.12-.29.22-.34a7.18,7.18,0,0,0,2.39-2.13A1.36,1.36,0,0,0,70.35,22.54ZM41.05,11.73a4.5,4.5,0,0,1,.62-.35,1,1,0,0,1,.48-.05c.07,0,.12.16.18.25l-.18.11c-1,.74-2,1.43-3,2.22s-1.55,1.53-2.32,2.3a4.36,4.36,0,0,1-.55.41c-.05,0-.15,0-.22,0s0-.18,0-.22a20.86,20.86,0,0,0,2-2.12A19.81,19.81,0,0,1,41.05,11.73ZM19.81,41.49a22.88,22.88,0,0,1-2.72,2.06,8.44,8.44,0,0,0-.91.66c-.29.24-.62.1-.93.1-.06,0-.14-.27-.18-.42a.26.26,0,0,1,.15-.2,4.63,4.63,0,0,0,2.11-1c.91-.62,1.77-1.32,2.66-2a1.56,1.56,0,0,1,.26-.11,1.16,1.16,0,0,1-.08.32C20.07,41.07,20,41.26,19.81,41.49ZM40,46a1.46,1.46,0,0,1-.46-.15s0-.21,0-.23a7.75,7.75,0,0,0,2.22-2.16,7.13,7.13,0,0,0,1.51-2c.12-.29.43-.49.66-.73a1.22,1.22,0,0,1,.19-.12.55.55,0,0,1,0,.22,5.27,5.27,0,0,1-1,1.75c-.52.71-1.14,1.35-1.64,2.07A4.4,4.4,0,0,1,40,46ZM41,13.53a2.13,2.13,0,0,1,.63.1c0,.34-.32.24-.49.35a9.63,9.63,0,0,0-1.13.75c-.74.65-1.47,1.33-2.16,2-.4.4-.71.88-1.07,1.31a4.91,4.91,0,0,1-.51.51s-.15,0-.22,0a.73.73,0,0,1,0-.22,4.38,4.38,0,0,1,.82-1.24c.56-.57,1-1.24,1.59-1.81a18.76,18.76,0,0,1,1.73-1.48,2.69,2.69,0,0,1,.78-.33m-.85.65v.13a.25.25,0,0,1,.14-.13v-.12A.29.29,0,0,1,40.17,14.18ZM51.93,46.86c-.12.08-.22.11-.3.17-.58.49-1.15,1-1.75,1.47a2.4,2.4,0,0,1-.87.41c-.27.08-.44-.16-.51-.38s.08-.33.3-.39a6.58,6.58,0,0,0,2-1.19c.73-.53,1.43-1.08,2.15-1.61.09-.07.23-.05.35-.07a1.27,1.27,0,0,1-.08.31,7.65,7.65,0,0,1-.56.69C52.44,46.47,52.19,46.64,51.93,46.86ZM73.76,30.54l1.1-1.23a.86.86,0,0,1,.23-.13,2.18,2.18,0,0,1-.11.27c-.29.47-.57.94-.88,1.4-.49.74-1,1.47-1.49,2.19a5.11,5.11,0,0,1-1.35,1.47.91.91,0,0,1-.61.11c-.09,0-.21-.13-.25-.23s.08-.2.16-.25a9.19,9.19,0,0,0,2.18-2.22C73.11,31.52,73.4,31,73.76,30.54Zm-33.43-19c-.45.4-.88.75-1.27,1.15s-.86,1-1.35,1.45a3.79,3.79,0,0,1-1.36,1l-.18.06c0-.08,0-.19.09-.22.68-.3,1.05-.94,1.55-1.44.82-.82,1.61-1.68,2.41-2.52a4.76,4.76,0,0,1,2-1.2.7.7,0,0,1,.17-.06l.48.08c-.11.15-.2.4-.33.42a5.14,5.14,0,0,0-2,1.2Zm91.9,38.15a2.37,2.37,0,0,1-.71.28c-.14,0-.29-.16-.44-.25a3.88,3.88,0,0,0,.31-.26l1.06-.91L134.1,47a10.7,10.7,0,0,1,.83-.68c.07-.05.2,0,.3,0a2.51,2.51,0,0,1,0,.27,3.34,3.34,0,0,1-1.2,1.55Zm-61.09-24c-.64.51-1.26,1-1.85,1.48-.4.34-.74.73-1.12,1.09l-2.49,2.36c-.36.35-.7.71-1.06,1.05a.38.38,0,0,1-.22.06,1,1,0,0,1,.09-.18c1.19-1.23,2.37-2.47,3.56-3.69.66-.67,1.32-1.33,2-2a5,5,0,0,1,.64-.5,1.7,1.7,0,0,1,.45-.15A2.38,2.38,0,0,1,71.14,25.69ZM117.55,46.3c-.17.27-.36.53-.56.79,0,0-.11.13-.13.12a1.69,1.69,0,0,1-.32-.19,1.15,1.15,0,0,1,.11.39.6.6,0,0,1-.17.31,4.42,4.42,0,0,1-.57.65c0-.21-.1-.3-.25-.2s-.11.2-.16.31l.13,0,.25-.05c-.18.63-.84.81-1.21,1.26-.09.11-.54,0-.62-.13a.48.48,0,0,1,.22-.59,1.89,1.89,0,0,0,.85-.64c.58-.69,1.14-1.41,1.72-2.1.34-.41.71-.8,1.06-1.2a.3.3,0,0,1,.45-.08.25.25,0,0,1,.1.18s-.08.11-.13.13a2,2,0,0,0-1,.72,1.28,1.28,0,0,1-.51.63s0,.12-.06.18a1,1,0,0,0,.18,0c.19-.13.36-.27.58-.41m-2.85,3,.07.06S114.77,49.23,114.7,49.25ZM42.46,31.62a13,13,0,0,0-1.54.71c-.25.14-.43.08-.54-.11s0-.38.21-.49a7.92,7.92,0,0,1,.9-.5c.56-.24,1.14-.43,1.69-.67s1.1-.52,1.65-.77c.07,0,.18-.25.29,0a.88.88,0,0,1,.09.21c-.12.07-.33.19-.35.16-.15-.2-.2.11-.31.05s-.07,0-.11.05l.14.08.23.06c-.05.06-.1.15-.17.18-.75.28-1.42.7-2.18,1.07m-1,.13a.38.38,0,0,0,.44-.18s0-.05,0-.05a2.38,2.38,0,0,0-.38.11c-.05,0-.07.08-.17.12v.12A.25.25,0,0,1,41.48,31.75Zm97.9,15.9a1.87,1.87,0,0,1-.89.78,13.51,13.51,0,0,0-1.55,1,7.8,7.8,0,0,1-.77.5.41.41,0,0,1-.38-.05c-.07-.1-.1-.35,0-.42a5,5,0,0,1,.82-.7A12.07,12.07,0,0,1,139,47.42a1.61,1.61,0,0,1,.49-.06c.05,0,.1,0,.14.07ZM38.1,17.82c.64-.68,1.21-1.35,1.85-2a7.49,7.49,0,0,1,1.17-.79c.05,0,.1-.1.15-.09a2.59,2.59,0,0,1,.4.09l-.24.21c-1,.91-1.92,1.81-2.85,2.74a4.08,4.08,0,0,0-.45.73,3.17,3.17,0,0,1-.45.52s-.2,0-.25-.1,0-.11.11-.14.22-.07.27-.14a2.17,2.17,0,0,0,.19-.44l-.32.19s-.08.1-.14.13-.08,0-.13,0,0-.1,0-.13C37.63,18.37,37.85,18.11,38.1,17.82Zm4.59,27.8-.53.4c-.25.2-.52.21-.68,0s-.09-.47.23-.62a5.3,5.3,0,0,0,1.51-1.27c.44-.48.83-1,1.26-1.5a.76.76,0,0,1,.26-.16c0,.12.09.25.06.34a4.44,4.44,0,0,1-1.06,1.72C43.41,44.91,43.06,45.24,42.69,45.62Zm3.8-2.46a.33.33,0,0,1,0,.24,1.37,1.37,0,0,1-.19.23l.32-.08h.12c0,.05,0,.11,0,.14a2.35,2.35,0,0,1-.19.25c-.58.7-1.17,1.4-1.76,2.09a.91.91,0,0,1-.93.26c-.16,0-.28-.26-.41-.4s.06-.26.15-.36.26-.38.43,0a.53.53,0,0,0,.33-.11c.44-.46.87-.95,1.3-1.42C45.9,43.7,46.18,43.43,46.49,43.16Zm95.51,5c.12-.07.21-.15.3-.15s.37,0,.42,0-.15.17-.23.26c-.3.31-.6.62-.92.92s-.6.51-.9.78c-.07.06-.09.18-.15.26a1.71,1.71,0,0,1-1.13.72s-.18-.13-.17-.17a1.07,1.07,0,0,1,.22-.37c.52-.53,1-1.06,1.57-1.57C141.3,48.64,141.65,48.44,142,48.17ZM14.4,41.85c.29-.41.72-.2,1.07-.33.64-.25,1.31-.41,1.94-.67.21-.08.32,0,.35.11s-.13.35-.13.34c-.41-.14-.17.49-.56.44a2,2,0,0,0-.87.24,5.5,5.5,0,0,1-.82.38,1.07,1.07,0,0,1-1.05-.27S14.38,42,14.4,41.85ZM47,46a19.28,19.28,0,0,0,3.51-2.33.56.56,0,0,1,.18-.07.48.48,0,0,1-.08.22c-.42.39-.84.79-1.28,1.15s-1.1.89-1.69,1.29a14.14,14.14,0,0,1-1.29.65.32.32,0,0,1-.48-.16c0-.08.1-.28.21-.34C46.38,46.27,46.69,46.16,47,46Zm-5.35-29.2a1.23,1.23,0,0,1-.27.58,8.93,8.93,0,0,0-1.23,1.38c-.12.21-.21.44-.33.65s-.24.39-.37.57a.17.17,0,0,1-.18,0,.17.17,0,0,1,0-.17,3.73,3.73,0,0,1,.28-.38,1.07,1.07,0,0,0,.15-.22s0-.08,0-.12a.49.49,0,0,0-.14,0,1.57,1.57,0,0,1-.19.18,1.28,1.28,0,0,1-.27.11,1.71,1.71,0,0,0,.13-.23,12.25,12.25,0,0,1,.88-1.33,7.74,7.74,0,0,1,1.11-1c.08-.07.26,0,.45,0m-.59.39a12937136209819.67,12937136209819.67,0,0,1-.26.26.2.2,0,0,1-.13.13v.12a.29.29,0,0,1,.14-.12.31.31,0,0,1,.13-.13.27.27,0,0,1,.13-.13.32.32,0,0,1,.13-.13v-.12A.25.25,0,0,1,41.08,17.2Zm1.77,3c.09-.2.21-.33.26-.48a1.14,1.14,0,0,1,.74-.71.89.89,0,0,1,.23,0,.52.52,0,0,1,0,.18c-.15.46-.31.92-.46,1.38-.05.16,0,.33-.1.48a2.43,2.43,0,0,1-.33.71,1.35,1.35,0,0,1-.52.27c0-.17.05-.34.07-.51.05-.41.09-.83.13-1.32m.2,1.18c.07-.36.14-.72.19-1.09,0-.06-.05-.14-.07-.2a.55.55,0,0,0-.05.17A5.71,5.71,0,0,0,43.05,21.39ZM81.79,38.18a6.12,6.12,0,0,0-1.22,1,.4.4,0,0,1-.56.11.62.62,0,0,1,0-.54,2.16,2.16,0,0,1,1.59-1C81.86,37.77,81.78,38,81.79,38.18ZM41.41,19.69a.57.57,0,0,0-.2.14l-.14.11c0-.06-.07-.14,0-.17a3.39,3.39,0,0,1,1.43-1.52c.06,0,.16,0,.24,0a1.13,1.13,0,0,1-.12.18,3.12,3.12,0,0,0-.77,1.25c-.09.27-.22.07-.39,0m.26-.33-.08-.05S41.6,19.39,41.67,19.36ZM35,41.58a.69.69,0,0,1,.24-.74,2.07,2.07,0,0,0,.8-1s0-.07.09-.09a2,2,0,0,1,.22-.09c0,.08.05.17,0,.22A3.61,3.61,0,0,1,35.61,41C35.41,41.19,35.24,41.4,35,41.58ZM147.9,50.2a.63.63,0,0,1,.21-.35c.27-.22.55-.42.83-.62a1,1,0,0,1,.23-.11c0,.1,0,.24,0,.29a6.43,6.43,0,0,1-.73.56A1.64,1.64,0,0,1,147.9,50.2ZM64.12,47.09c.19-.32.41-.65.63-1a.2.2,0,0,1,.14-.08c0,.05.12.12.11.18A1.17,1.17,0,0,1,64.12,47.09Zm-.06,0a1.05,1.05,0,0,1-.39.87c-.07,0-.2,0-.3,0a.8.8,0,0,1,.1-.23A7.45,7.45,0,0,1,64.06,47.09Zm31.4-14.65c.1-.12.14-.24.23-.29s.21-.22.34,0,0,.21-.15.28S95.62,32.79,95.46,32.44ZM109.88,40a.44.44,0,0,1,.47-.52c.05,0,.13.07.13.07A.69.69,0,0,1,109.88,40Zm-68.37-20c.32-.06.09.16.16.23a3.27,3.27,0,0,1-.37.28.79.79,0,0,1-.14-.17A3.85,3.85,0,0,1,41.51,20.05Zm8.06,9.08c-.09-.27.15-.37.29-.5s.2,0,.3,0a.94.94,0,0,1-.16.23A2.45,2.45,0,0,1,49.57,29.13ZM61.47,46.3a.48.48,0,0,1,.19-.24.18.18,0,0,1,.16,0,.17.17,0,0,1,0,.17l-.32.32a.54.54,0,0,1-.19.07A1.27,1.27,0,0,0,61.47,46.3Zm96.88.92c-.1.28-.1.28-.53.26a1.85,1.85,0,0,1-.23,0l.24-.09ZM35,41.58c0,.08,0,.19,0,.24a2.86,2.86,0,0,1-.4.28L34.48,42l.35-.35A.31.31,0,0,1,35,41.58ZM52,29.65c.11-.15.24-.2.26,0a1.23,1.23,0,0,1-.08.38l-.27-.22A.31.31,0,0,0,52,29.65Zm7.83,14.79a1.13,1.13,0,0,1,.3,0l-.32.32A1,1,0,0,1,59.86,44.44ZM47,43.06c.21-.05.29,0,.2.18s-.21.11-.31.17A2.28,2.28,0,0,1,47,43.06Zm70.66,3.24s0-.08,0-.12A.15.15,0,0,1,117.61,46.3Zm-71-3.14a.15.15,0,0,1,0-.12A.19.19,0,0,1,46.56,43.16Zm94.78,4.19s0-.08,0-.12A.15.15,0,0,1,141.34,47.35ZM19.65,56.3s.08,0,.12,0A.15.15,0,0,1,19.65,56.3Z"/></g></g></svg>