<svg xmlns="http://www.w3.org/2000/svg" viewBox="0 0 129.28 46.95"><defs><style>.cls-1{fill:#fff;}.cls-2{fill:#e6e6e6;}</style></defs><title>cloud-small</title><g id="Layer_2" data-name="Layer 2"><g id="cloud-small"><path id="void" class="cls-1" d="M126.73,23.92A7.36,7.36,0,0,0,129,20.26a5.83,5.83,0,0,0,0-3.53,5.62,5.62,0,0,0-1.52-2.52,10.94,10.94,0,0,0-2.43-1.59,24.1,24.1,0,0,0-4.72-1.79,9.15,9.15,0,0,0-3-.42c-1,.1-2.1,0-3.16.1s-1.81.45-2.73.57a3.89,3.89,0,0,0-.66.21c0-.29,0-.58,0-.86,0,0,.06-.06.07-.1a5.58,5.58,0,0,0,.12-1A12.71,12.71,0,0,0,110.87,8s-.05-.11-.07-.17a7.42,7.42,0,0,1-.44-1.1,4,4,0,0,0-1.25-2,11.3,11.3,0,0,1-1.57-1.18.21.21,0,0,0-.16-.07c-.43,0-.67-.27-.95-.52a2,2,0,0,0-.55-.39,11.26,11.26,0,0,0-2.16-.81c-.35-.09-.62-.39-1-.52a11.23,11.23,0,0,0-2.53-.72,20.47,20.47,0,0,1-2.8-.38A6.82,6.82,0,0,0,95.63,0c-.56,0-1.12.08-1.68.12s-1,.07-1.49.14a8.12,8.12,0,0,0-.81.22A6,6,0,0,0,90,1.35,2.84,2.84,0,0,0,88.76,3a3.79,3.79,0,0,0,0,1.3,5.61,5.61,0,0,0,.73,2.92c.26.47.53.94.78,1.42a14.55,14.55,0,0,0,2.09,3.51,8.3,8.3,0,0,1,.78,1.15c0,.07.27.18,0,.21-.14,0-.27.11-.4.12a17.33,17.33,0,0,0-2.94.56A6.85,6.85,0,0,0,87,15.49c-.37.28-.44.24-.85,0a4.43,4.43,0,0,0-1.74-.92c-.5-.08-1-.21-1.5-.25-.84-.07-1.68-.1-2.53-.13a11.93,11.93,0,0,0-3,.25,7.91,7.91,0,0,1-.85.13,5.14,5.14,0,0,0-2.55.83c-.41.27-.55.28-.76-.09A2.17,2.17,0,0,0,71,14.14,5.13,5.13,0,0,1,69.62,14,4.09,4.09,0,0,0,68,13.91a7.26,7.26,0,0,0-1.65.5c-.56.2-1,.59-1.6.79a2.83,2.83,0,0,0-.71.51.9.9,0,0,0-.12.24,1.13,1.13,0,0,1-.2-.26,4.1,4.1,0,0,1-.06-.49,3.63,3.63,0,0,0-.18-1,3.57,3.57,0,0,0-1.74-1.77.83.83,0,0,1-.27-.19c-.43-.38-.84-.78-1.27-1.16a3.23,3.23,0,0,0-.76-.5,9.91,9.91,0,0,0-2.3-.71,20.54,20.54,0,0,1-2.51-.42,6.79,6.79,0,0,0-2.31-.16,11.94,11.94,0,0,0-1.44.22c-.69.08-1.35.26-2,.39a14,14,0,0,0-2.69.81c-1,.44-2,1-3,1.51a2.35,2.35,0,0,0-1,.85,13.89,13.89,0,0,0-1.48,2.35.92.92,0,0,1-.33.4s-.22-.16-.34-.23-.13,0-.19,0l-1.65-.51c-.94-.27-1.89-.51-2.83-.78a7,7,0,0,0-2.35-.37,13.76,13.76,0,0,0-1.38.24,8,8,0,0,0-2.71.91c-.53.3-1.08.61-1.07,1.36,0,.15-.1.31-.1.46s-.09.25-.26.23L27,17.05a6.86,6.86,0,0,0-1.26-.19,13.46,13.46,0,0,0-1.88.25,7,7,0,0,0-1.22.31c-.88.33-1,.75-.46,1.49a15.31,15.31,0,0,0,1.26,1.29s0,.13.06.2l-.14,0a4.78,4.78,0,0,0-.76,0c-.46.06-.91.19-1.37.24a20.3,20.3,0,0,1-2.46.25,35.83,35.83,0,0,0-4.4.25,12.57,12.57,0,0,0-2,.27,3.41,3.41,0,0,1-.85.11c-.06,0-.13-.1-.19-.09s-.48.17-.59.1a.68.68,0,0,0-.66-.09,4.85,4.85,0,0,1-1.37.11,1.06,1.06,0,0,0-.31,0A27.78,27.78,0,0,0,5,22.71c-.55.26-1.19.36-1.74.62-.39.18-.81.11-1.17.27a4.69,4.69,0,0,0-2,1.62.3.3,0,0,0,0,.26l.09.11a.4.4,0,0,1,.27-.33.51.51,0,0,1,.39.13l-.05.06c-.26.27-.42.33-.61.14a1.36,1.36,0,0,0,.26,1.14,3.5,3.5,0,0,0,1.42,1.06,10.51,10.51,0,0,1,1.41.64,12.51,12.51,0,0,0,3,.88,11.16,11.16,0,0,0,2,.15c.53,0,1,0,1.55,0,.24,0,.51.11.72-.12a7,7,0,0,0,2.14-.25c.11,0,.24,0,.31,0,.61-.47,1.36,0,2-.36.18.22.35,0,.53,0a3.87,3.87,0,0,0,.67-.1c.07,0,.18,0,.22.06.27.33.65.22.94.17s.64-.32,1-.13c.05,0,.15,0,.22-.06a.84.84,0,0,1,1.06.16.44.44,0,0,0,.31.17,2,2,0,0,1,1.62.47,1.48,1.48,0,0,0,.5.18,5.1,5.1,0,0,1,.63.2,3.41,3.41,0,0,0,1.47.31c.46,0,.92-.08,1.37-.13.19,0,.23.06.25.24.06.44.16.48.56.29a1.53,1.53,0,0,0,.3-.19l1.28-1.12c.1-.1.23-.24.35-.23a10,10,0,0,0,1.53-.36,1.72,1.72,0,0,1,1.53.27,3.81,3.81,0,0,0,1.83.87c.09,0,.37,0,.34.33s0,.68.35.78.56-.19.79-.41.32-.41.51-.45A3.05,3.05,0,0,1,37,30a.43.43,0,0,0,.37,0c.42-.32.94-.24,1.4-.35a5.67,5.67,0,0,1,1.43,0c.94.05,1.89,0,2.83,0a9.56,9.56,0,0,0,1.39-.22l1.49-.28c.35-.07.7-.29,1.05,0a9,9,0,0,0,1.62-.43,5.13,5.13,0,0,1,1.32-.39.8.8,0,0,1,.15,0s0,.13-.09.14a3.47,3.47,0,0,0-1.26.52,1,1,0,0,1-.59.12.74.74,0,0,0-.8.39,1.59,1.59,0,0,0-.2.93,3.85,3.85,0,0,0,1.15,1.84,9.9,9.9,0,0,0,3,1.46,10,10,0,0,0,2,.41c.38.06.78,0,1.16.14,1.1.23,2.18.54,3.28.79a17.58,17.58,0,0,0,3.46.48h2.31c.45,0,.91,0,1.36,0,.64,0,.75.17.91.83a2.64,2.64,0,0,0,.92,1.36c1,.88,2.33.86,3.56,1a.32.32,0,0,0,.24,0c.3-.24.56,0,.79.1a1,1,0,0,0,1.37-.07,1.23,1.23,0,0,1,.75-.38,2.43,2.43,0,0,0,1-.17.71.71,0,0,1,.75.07,1.27,1.27,0,0,0,1.62-.11,1.19,1.19,0,0,1,.71-.32A12.47,12.47,0,0,0,79,37.43c.63-.18.67-.19.9.32a9.45,9.45,0,0,0,2.24,3.14,6.14,6.14,0,0,0,2.31,1.39c.61.19,1.25.3,1.87.48a10.46,10.46,0,0,0,2.89.47,2.74,2.74,0,0,1,1.3.12.5.5,0,0,0,.38,0,2.55,2.55,0,0,1,1.25-.13c1.51.06,3,.1,4.52.13.37,0,.65,0,.78.45.09.3.41.51.61.77a5.33,5.33,0,0,0,2.68,1.62c.68.23,1.41.21,2.09.39a16.06,16.06,0,0,0,3,.36c.29,0,.58-.13.85-.1a4.66,4.66,0,0,0,1.18,0c.65-.07,1.3-.09,1.94-.14a1.33,1.33,0,0,0,.28-.1,1.85,1.85,0,0,1,.39-.15l1.43-.13c.22,0,.43-.11.65-.12a1.83,1.83,0,0,0,.83-.18c.63-.35,1.27-.66,1.9-1s1.1-.49,1.62-.77a1.27,1.27,0,0,0,.61-2,5,5,0,0,0-1.2-1.24c-.78-.55-1.62-1-2.45-1.53-.6-.34-1.27-.59-1.86-.93a6.49,6.49,0,0,0-.65-.31c.31,0,.56,0,.62,0a13.54,13.54,0,0,1,1.44.26,21.28,21.28,0,0,1,3.18.24,13.9,13.9,0,0,0,2.14.26,17.23,17.23,0,0,0,2.59,0c.73-.09,1.47-.09,2.2-.14.16,0,.31-.09.46-.12a8.1,8.1,0,0,0,2.58-1.24c.6-.34.54-1,1-1.35.05,0,0-.17,0-.25a6.07,6.07,0,0,0-.29-1.24,9.2,9.2,0,0,0-1.68-2.45c-.64-.65-1.38-1.22-2.07-1.83l-.21-.16a1.63,1.63,0,0,1,.31-.11c.44-.06.87-.17,1.32-.23a8.92,8.92,0,0,0,1.44-.55,3.2,3.2,0,0,0,.91-.44,1,1,0,0,0,.19-1.36c-.61-.71-1.24-1.42-1.86-2.12a3.79,3.79,0,0,0-.38-.32,2.42,2.42,0,0,1-.25-.31,1.68,1.68,0,0,1,.29-.2A4.16,4.16,0,0,0,126.73,23.92ZM24,20.31l-.08,0C24,20.23,24,20.27,24,20.31ZM35.34,24c.07,0,.07,0,.08.06ZM56.9,30s0,0,0-.08S56.9,29.92,56.9,30ZM109.33,6.23a.15.15,0,0,1,.12,0A.28.28,0,0,1,109.33,6.23Zm1,1.61a1.49,1.49,0,0,1,.15.2.32.32,0,0,1-.24-.16Zm-.25-.9.14.19a.27.27,0,0,1-.25-.08Zm-.89-1.66s0,.06,0,.1l-.21-.18A.26.26,0,0,1,109.19,5.28Zm-4-2.66.26.14a1.52,1.52,0,0,1,.68.28.54.54,0,0,1,.07.13c-.06,0-.13,0-.17,0a6.45,6.45,0,0,1-.58-.31c-.1-.06-.22,0-.31-.07S105,2.67,105,2.6A.82.82,0,0,1,105.2,2.62ZM77.8,15c-.07,0-.07,0-.08-.05Zm47.61,17.75c-.07,0-.07,0-.08-.06Z"/><path id="fill2" class="cls-2" d="M126.73,23.92A7.36,7.36,0,0,0,129,20.26a5.83,5.83,0,0,0,0-3.53,5.62,5.62,0,0,0-1.52-2.52,10.94,10.94,0,0,0-2.43-1.59,24.1,24.1,0,0,0-4.72-1.79,9.15,9.15,0,0,0-3-.42c-1,.1-2.1,0-3.16.1s-1.81.45-2.73.57a3.89,3.89,0,0,0-.66.21c0-.29,0-.58,0-.86,0,0,.06-.06.07-.1a5.58,5.58,0,0,0,.12-1A12.71,12.71,0,0,0,110.87,8s-.05-.11-.07-.17a7.42,7.42,0,0,1-.44-1.1,4,4,0,0,0-1.25-2,11.3,11.3,0,0,1-1.57-1.18.21.21,0,0,0-.16-.07c-.43,0-.67-.27-.95-.52a2,2,0,0,0-.55-.39,11.26,11.26,0,0,0-2.16-.81c-.35-.09-.62-.39-1-.52a11.23,11.23,0,0,0-2.53-.72,20.47,20.47,0,0,1-2.8-.38A6.82,6.82,0,0,0,95.63,0c-.56,0-1.12.08-1.68.12s-1,.07-1.49.14a8.12,8.12,0,0,0-.81.22A6,6,0,0,0,90,1.35,2.84,2.84,0,0,0,88.76,3a3.79,3.79,0,0,0,0,1.3,5.61,5.61,0,0,0,.73,2.92c.26.47.53.94.78,1.42a14.55,14.55,0,0,0,2.09,3.51,8.3,8.3,0,0,1,.78,1.15c0,.07.27.18,0,.21-.14,0-.27.11-.4.12a17.33,17.33,0,0,0-2.94.56A6.85,6.85,0,0,0,87,15.49c-.37.28-.44.24-.85,0a4.43,4.43,0,0,0-1.74-.92c-.5-.08-1-.21-1.5-.25-.84-.07-1.68-.1-2.53-.13a11.93,11.93,0,0,0-3,.25,7.91,7.91,0,0,1-.85.13,5.14,5.14,0,0,0-2.55.83c-.41.27-.55.28-.76-.09A2.17,2.17,0,0,0,71,14.14,5.13,5.13,0,0,1,69.62,14,4.09,4.09,0,0,0,68,13.91a7.26,7.26,0,0,0-1.65.5c-.56.2-1,.59-1.6.79a2.83,2.83,0,0,0-.71.51.9.9,0,0,0-.12.24,1.13,1.13,0,0,1-.2-.26,4.1,4.1,0,0,1-.06-.49,3.63,3.63,0,0,0-.18-1,3.57,3.57,0,0,0-1.74-1.77.83.83,0,0,1-.27-.19c-.43-.38-.84-.78-1.27-1.16a3.23,3.23,0,0,0-.76-.5,9.91,9.91,0,0,0-2.3-.71,20.54,20.54,0,0,1-2.51-.42,6.79,6.79,0,0,0-2.31-.16,11.94,11.94,0,0,0-1.44.22c-.69.08-1.35.26-2,.39a14,14,0,0,0-2.69.81c-1,.44-2,1-3,1.51a2.35,2.35,0,0,0-1,.85,13.89,13.89,0,0,0-1.48,2.35.92.92,0,0,1-.33.4s-.22-.16-.34-.23-.13,0-.19,0l-1.65-.51c-.94-.27-1.89-.51-2.83-.78a7,7,0,0,0-2.35-.37,13.76,13.76,0,0,0-1.38.24,8,8,0,0,0-2.71.91c-.53.3-1.08.61-1.07,1.36,0,.15-.1.31-.1.46s-.09.25-.26.23L27,17.05a6.86,6.86,0,0,0-1.26-.19,13.46,13.46,0,0,0-1.88.25,7,7,0,0,0-1.22.31c-.88.33-1,.75-.46,1.49a15.31,15.31,0,0,0,1.26,1.29s0,.13.06.2l-.14,0a4.78,4.78,0,0,0-.76,0c-.46.06-.91.19-1.37.24a20.3,20.3,0,0,1-2.46.25,35.83,35.83,0,0,0-4.4.25,12.57,12.57,0,0,0-2,.27,3.41,3.41,0,0,1-.85.11c-.06,0-.13-.1-.19-.09s-.48.17-.59.1a.68.68,0,0,0-.66-.09,4.85,4.85,0,0,1-1.37.11,1.06,1.06,0,0,0-.31,0A27.78,27.78,0,0,0,5,22.71c-.55.26-1.19.36-1.74.62-.39.18-.81.11-1.17.27a4.69,4.69,0,0,0-2,1.62.3.3,0,0,0,0,.26l.09.11a.4.4,0,0,1,.27-.33.51.51,0,0,1,.39.13l-.05.06c-.26.27-.42.33-.61.14a1.36,1.36,0,0,0,.26,1.14,3.5,3.5,0,0,0,1.42,1.06,10.51,10.51,0,0,1,1.41.64,12.51,12.51,0,0,0,3,.88,11.16,11.16,0,0,0,2,.15c.53,0,1,0,1.55,0,.24,0,.51.11.72-.12a7,7,0,0,0,2.14-.25c.11,0,.24,0,.31,0,.61-.47,1.36,0,2-.36.18.22.35,0,.53,0a3.87,3.87,0,0,0,.67-.1c.07,0,.18,0,.22.06.27.33.65.22.94.17s.64-.32,1-.13c.05,0,.15,0,.22-.06a.84.84,0,0,1,1.06.16.44.44,0,0,0,.31.17,2,2,0,0,1,1.62.47,1.48,1.48,0,0,0,.5.18,5.1,5.1,0,0,1,.63.2,3.41,3.41,0,0,0,1.47.31c.46,0,.92-.08,1.37-.13.19,0,.23.06.25.24.06.44.16.48.56.29a1.53,1.53,0,0,0,.3-.19l1.28-1.12c.1-.1.23-.24.35-.23a10,10,0,0,0,1.53-.36,1.72,1.72,0,0,1,1.53.27,3.81,3.81,0,0,0,1.83.87c.09,0,.37,0,.34.33s0,.68.35.78.56-.19.79-.41.32-.41.51-.45A3.05,3.05,0,0,1,37,30a.43.43,0,0,0,.37,0c.42-.32.94-.24,1.4-.35a5.67,5.67,0,0,1,1.43,0c.94.05,1.89,0,2.83,0a9.56,9.56,0,0,0,1.39-.22l1.49-.28c.35-.07.7-.29,1.05,0a9,9,0,0,0,1.62-.43,5.13,5.13,0,0,1,1.32-.39.8.8,0,0,1,.15,0s0,.13-.09.14a3.47,3.47,0,0,0-1.26.52,1,1,0,0,1-.59.12.74.74,0,0,0-.8.39,1.59,1.59,0,0,0-.2.93,3.85,3.85,0,0,0,1.15,1.84,9.9,9.9,0,0,0,3,1.46,10,10,0,0,0,2,.41c.38.06.78,0,1.16.14,1.1.23,2.18.54,3.28.79a17.58,17.58,0,0,0,3.46.48h2.31c.45,0,.91,0,1.36,0,.64,0,.75.17.91.83a2.64,2.64,0,0,0,.92,1.36c1,.88,2.33.86,3.56,1a.32.32,0,0,0,.24,0c.3-.24.56,0,.79.1a1,1,0,0,0,1.37-.07,1.23,1.23,0,0,1,.75-.38,2.43,2.43,0,0,0,1-.17.71.71,0,0,1,.75.07,1.27,1.27,0,0,0,1.62-.11,1.19,1.19,0,0,1,.71-.32A12.47,12.47,0,0,0,79,37.43c.63-.18.67-.19.9.32a9.45,9.45,0,0,0,2.24,3.14,6.14,6.14,0,0,0,2.31,1.39c.61.19,1.25.3,1.87.48a10.46,10.46,0,0,0,2.89.47,2.74,2.74,0,0,1,1.3.12.5.5,0,0,0,.38,0,2.55,2.55,0,0,1,1.25-.13c1.51.06,3,.1,4.52.13.37,0,.65,0,.78.45.09.3.41.51.61.77a5.33,5.33,0,0,0,2.68,1.62c.68.23,1.41.21,2.09.39a16.06,16.06,0,0,0,3,.36c.29,0,.58-.13.85-.1a4.66,4.66,0,0,0,1.18,0c.65-.07,1.3-.09,1.94-.14a1.33,1.33,0,0,0,.28-.1,1.85,1.85,0,0,1,.39-.15l1.43-.13c.22,0,.43-.11.65-.12a1.83,1.83,0,0,0,.83-.18c.63-.35,1.27-.66,1.9-1s1.1-.49,1.62-.77a1.27,1.27,0,0,0,.61-2,5,5,0,0,0-1.2-1.24c-.78-.55-1.62-1-2.45-1.53-.6-.34-1.27-.59-1.86-.93a6.49,6.49,0,0,0-.65-.31c.31,0,.56,0,.62,0a13.54,13.54,0,0,1,1.44.26,21.28,21.28,0,0,1,3.18.24,13.9,13.9,0,0,0,2.14.26,17.23,17.23,0,0,0,2.59,0c.73-.09,1.47-.09,2.2-.14.16,0,.31-.09.46-.12a8.1,8.1,0,0,0,2.58-1.24c.6-.34.54-1,1-1.35.05,0,0-.17,0-.25a6.07,6.07,0,0,0-.29-1.24,9.2,9.2,0,0,0-1.68-2.45c-.64-.65-1.38-1.22-2.07-1.83l-.21-.16a1.63,1.63,0,0,1,.31-.11c.44-.06.87-.17,1.32-.23a8.92,8.92,0,0,0,1.44-.55,3.2,3.2,0,0,0,.91-.44,1,1,0,0,0,.19-1.36c-.61-.71-1.24-1.42-1.86-2.12a3.79,3.79,0,0,0-.38-.32,2.42,2.42,0,0,1-.25-.31,1.68,1.68,0,0,1,.29-.2A4.16,4.16,0,0,0,126.73,23.92ZM24,20.31l-.08,0C24,20.23,24,20.27,24,20.31ZM35.34,24c.07,0,.07,0,.08.06ZM56.9,30s0,0,0-.08S56.9,29.92,56.9,30ZM109.33,6.23a.15.15,0,0,1,.12,0A.28.28,0,0,1,109.33,6.23Zm1,1.61a1.49,1.49,0,0,1,.15.2.32.32,0,0,1-.24-.16Zm-.25-.9.14.19a.27.27,0,0,1-.25-.08Zm-.89-1.66s0,.06,0,.1l-.21-.18A.26.26,0,0,1,109.19,5.28Zm-4-2.66.26.14a1.52,1.52,0,0,1,.68.28.54.54,0,0,1,.07.13c-.06,0-.13,0-.17,0a6.45,6.45,0,0,1-.58-.31c-.1-.06-.22,0-.31-.07S105,2.67,105,2.6A.82.82,0,0,1,105.2,2.62ZM77.8,15c-.07,0-.07,0-.08-.05Zm47.61,17.75c-.07,0-.07,0-.08-.06Z"/><path id="fill1" d="M50.52,32.16c-.06-.08-.1-.21-.18-.24-.52-.17-.56-.73-.89-1.05,0,0,.1-.34.19-.36a.67.67,0,0,1,.52.08,1.47,1.47,0,0,0,1.82.07c.65-.37,1.38-.62,2.05-.95a14.57,14.57,0,0,0,1.77-1c.27-.18.4-.22.51.08s.13.16.26.08a21.83,21.83,0,0,1,2.06-1.26,3.57,3.57,0,0,1,1.73-.48c.17,0,.22.06.2.22s.07.28-.19.31a5.26,5.26,0,0,0-2.25.94,19.25,19.25,0,0,0-4.44,3.55,1.39,1.39,0,0,0-.16.35,2.21,2.21,0,0,0,.35-.16c1.33-.9,2.64-1.8,4-2.68.58-.38,1.2-.72,1.81-1.05s1.14-.56,1.72-.84c0,0,.06-.06.09-.07.21-.08.46-.14.55.08s-.08.37-.3.44a5.42,5.42,0,0,0-.87.36c-.37.24-.83.32-1.13.71s-.64.4-1,.61c-.76.49-1.53,1-2.27,1.51-.54.38-1,.84-1.54,1.26a6.25,6.25,0,0,1-.61.38.22.22,0,0,0-.08.15.18.18,0,0,0,.12.1,2.42,2.42,0,0,0,.46.13.53.53,0,0,0,.68-.38c0-.29.23-.4.39-.55a.4.4,0,0,1,.38,0,.62.62,0,0,1,.14.38c0,.06-.1.13-.11.2a.67.67,0,0,0,0,.24l.14-.1,2.91-2.28,4.09-3.18a.9.9,0,0,1,.43-.2,1.37,1.37,0,0,1,.45.14c-.09.08-.19.15-.27.23a27.56,27.56,0,0,1-2.73,2.22c-.88.7-1.73,1.44-2.58,2.18-.54.47-1.06,1-1.58,1.46a.71.71,0,0,0-.13.26l.23.06a1.74,1.74,0,0,0,.34.12c.13,0,.43.13.22-.24,0,0,.24-.32.4-.39A8.22,8.22,0,0,0,60.58,32c.93-.8,2-1.5,2.9-2.3A23.57,23.57,0,0,1,67,27.41c.05,0,.18-.27.28-.05s.09.37,0,.43a5.1,5.1,0,0,1-1.1.75,8.44,8.44,0,0,0-1.52,1L62.77,31a15.12,15.12,0,0,0-1.44,1.33c-.56.57-1.15,1.11-1.76,1.64a2.59,2.59,0,0,1-.66.25c-.06,0-.1.1-.15.15s.12.09.18.1c.83.09,1.66.12,2.47.28a5,5,0,0,0,2.1,0,1.7,1.7,0,0,1,.39,0c.31,0,.62,0,.94,0l1,0c.66,0,.77.11.82.79v.19a1.1,1.1,0,0,0,.36.88c.21.23.34.24.55,0s.42-.23.5.17.19.37.43.17c.68-.58,1.36-1.17,2-1.77S72,33.73,72.78,33c.58-.58,1.11-1.21,1.69-1.79a3,3,0,0,1,.79-.57c.13-.07.31,0,.18.22a1.34,1.34,0,0,1-.52.7,5.39,5.39,0,0,0-1,1.1c-.33.37-.64.76-1,1.12-1,1-2,2-3,3-.11.11-.22.21-.32.32s0,.12,0,.17l.14,0a4.72,4.72,0,0,0,.61-.37c.44-.36.86-.74,1.27-1.13,1.12-1,2.26-2,3.47-3,.64-.49,1.26-1,1.89-1.5a2.16,2.16,0,0,1,.36-.22.31.31,0,0,1,.46.18c.06.16,0,.36-.24.31,0,0-.09.1-.13.15-.2.21-.32.5-.68.5-.08,0-.16.13-.24.19l-2.29,1.92s-.06.06-.1.09l-2.16,2c-.39.36-.76.75-1.13,1.13,0,.05-.06.14-.1.21s.12.08.17.07a15.08,15.08,0,0,0,2-.3.66.66,0,0,0,.26-.14c.95-.77,1.9-1.53,2.84-2.32s2-1.79,3.07-2.67a5.57,5.57,0,0,0,1.17-1.05c.11-.17.2,0,.21.06.07.24.17.49-.07.7l-1.7,1.47-.24.21-3.38,3a2.69,2.69,0,0,0-.3.37,2.07,2.07,0,0,0,.43,0c.51-.07,1-.16,1.51-.25A.72.72,0,0,0,77,36.8c.45-.41.91-.81,1.35-1.23.92-.86,1.83-1.71,2.72-2.6.65-.64,1.24-1.34,1.88-2,.49-.49,1-.95,1.53-1.41,0,0,.16-.07.17,0s.15.19.12.25A3.11,3.11,0,0,1,83.92,31c-.26.24-.56.44-.81.69-.67.7-1.32,1.43-2,2.12-.87.89-1.75,1.76-2.63,2.64a1.24,1.24,0,0,0-.14.18c.1,0,.23.08.29,0,.48-.32.94-.65,1.39-1l1.51-1.18q1-.76,2-1.5c.72-.54,1.44-1.07,2.18-1.59.41-.29.84-.55,1.26-.82a.94.94,0,0,1,.22-.07,1,1,0,0,1,0,.3c0,.07-.11.13-.17.18l-1.16.92c-.71.57-1.4,1.16-2.12,1.72A35.83,35.83,0,0,1,81,35.9c-.56.34-.6.59-.22,1.31A15.5,15.5,0,0,0,81.79,39a11.45,11.45,0,0,0,1.08,1.23,5.47,5.47,0,0,0,.54.41.44.44,0,0,0,.69-.09c.15-.25.25-.54.4-.79a1.28,1.28,0,0,1,.28-.29c.07.16.25.38.2.45a.78.78,0,0,0,0,.71c.15-.15.3-.31.45-.45,1.06-1,2.1-2,3.17-2.9.82-.73,1.67-1.44,2.52-2.14.41-.33.86-.61,1.29-.91.17-.12.33-.25.5-.36a1.39,1.39,0,0,1,.31-.18.13.13,0,0,1,.16.21,13.25,13.25,0,0,1-1.19,1.18,20.39,20.39,0,0,0-1.74,1.36c-.85.83-1.73,1.62-2.57,2.46s-1.46,1.53-2.18,2.31c-.08.09-.09.26-.14.39.16,0,.37.09.47,0a20.72,20.72,0,0,0,2.21-1.53c.25-.23.57-.39.84-.6,1-.78,2-1.59,3-2.35.56-.42,1.18-.75,1.77-1.14.24-.16.44-.38.68-.54a.35.35,0,0,1,.3,0c.21.11,0,.19,0,.26a9.53,9.53,0,0,1-1.82,1.47,10.19,10.19,0,0,0-1.5,1.21c-.92.85-1.8,1.74-2.73,2.58a13.83,13.83,0,0,1-1.24.88c-.07.05-.09.17-.14.26a.58.58,0,0,0,.17.06c.84.09,1.69.17,2.53.27.33,0,.66-.22,1,0,0,0,.14-.1.17-.17a2.25,2.25,0,0,0,.09-.35c0-.22.06-.39.4-.4a1.31,1.31,0,0,0,.8-.39c.71-.66,1.49-1.26,2.23-1.9.56-.48,1.07-1,1.63-1.47s1.26-1,1.9-1.48a2.07,2.07,0,0,1,.39-.29.53.53,0,0,1,.43,0c.25.17,0,.24-.11.3-.22.19-.31.48-.66.57s-.48.37-.72.58a3.45,3.45,0,0,0-.28.26A22.69,22.69,0,0,1,95.08,40a19.41,19.41,0,0,1-2.37,2.16s-.06.09-.09.13a.59.59,0,0,0,.17,0c.26,0,.52,0,.78,0a.75.75,0,0,0,.9-.48c.14-.3.6-.46.91-.68a3.12,3.12,0,0,0,.35-.25A15,15,0,0,1,98,39.05c.36-.23.65-.59,1-.85s.63-.35.93-.55l1.25-.86a1.46,1.46,0,0,1,.41-.25,1.26,1.26,0,0,1,.42.06,1.23,1.23,0,0,1-.19.31,17.21,17.21,0,0,1-2.18,1.7,9.57,9.57,0,0,0-1.49,1.22c-.7.66-1.37,1.36-2,2-.13.12-.3.21-.44.33a1.9,1.9,0,0,0-.19.21,1.15,1.15,0,0,0,.31,0l1.44-.26s.14,0,.15-.07c.33-.85,1.22-1.16,1.74-1.83.31-.41.73-.73,1.08-1.11a32.34,32.34,0,0,1,2.93-2.41s.06-.07.09-.08c.19,0,.49-.18.55-.11s-.13.31-.24.43c-.56.54-1.16,1-1.71,1.6s-.86,1.08-1.35,1.55c-.75.71-1.21,1.73-2.22,2.17-.21.09-.33.28-.15.51s.28.29.3.45c.07.37.2.08.24,0a4.8,4.8,0,0,1,1.31-1.46A7.85,7.85,0,0,0,101,40.79a35.06,35.06,0,0,1,3.43-2.9s.14,0,.22,0l0,.24s0,0,0,.06c-.45.49-.9,1-1.37,1.47s-1,1-1.57,1.48c-.1.1-.14.25-.24.35-.75.81-1.5,1.62-2.27,2.4-.18.18-.19.29,0,.42a3.3,3.3,0,0,0,1.76.87c.29,0,.58.35.87.06s.39-.49.6-.71A29.6,29.6,0,0,1,105,41.88a6.87,6.87,0,0,1,2.07-1.5c.18-.06.27-.15.41,0s0,.26-.12.36a13.59,13.59,0,0,1-1.75,1.64,5.13,5.13,0,0,0-.56.66c-.5.52-1,1-1.53,1.55a4.17,4.17,0,0,0-.41.53c-.07.11-.13.24-.19.36a3.43,3.43,0,0,0,.45.16,4.88,4.88,0,0,0,.84.13c1,.06,1.94.11,2.91.12a.74.74,0,0,0,.47-.24c.71-.69,1.38-1.41,2.1-2.08s1.22-1.08,1.85-1.6a1.46,1.46,0,0,1,.53-.26.31.31,0,0,1,.29.1.32.32,0,0,1-.08.3c-.29.27-.6.51-.89.78-.7.65-1.4,1.29-2.08,2-.26.26-.49.57-.73.86a.18.18,0,0,0,0,.16s.11,0,.16,0c.2,0,.4-.09.6-.11.84-.06,1.66-.22,2.48-.36a7.65,7.65,0,0,0,1.84-.54c.31-.14.61-.28.91-.44.53-.28,1.06-.55,1.58-.86a2.4,2.4,0,0,0,.55-.51.25.25,0,0,0,0-.25,1.62,1.62,0,0,0-.27-.41,7.77,7.77,0,0,0-1.8-1.38c-1-.57-2-1.11-3-1.61-.61-.29-1.26-.49-1.89-.72-.23-.08-.75-.6-.67-.74a1.42,1.42,0,0,1,.56-.53.48.48,0,0,1,.57.15c.45.54,1.15.65,1.72,1s1.25.6,1.86,1a27,27,0,0,1,2.45,1.52,4.92,4.92,0,0,1,1.2,1.25,1.27,1.27,0,0,1-.61,2c-.52.27-1.08.5-1.61.76s-1.28.63-1.91,1a1.74,1.74,0,0,1-.83.19c-.22,0-.43.09-.65.12-.48,0-1,.08-1.43.14a1.53,1.53,0,0,0-.39.14.74.74,0,0,1-.27.1c-.65.05-1.3.07-1.94.15a5.26,5.26,0,0,1-1.19,0c-.27,0-.57.13-.84.11a17.93,17.93,0,0,1-3-.36c-.68-.19-1.41-.16-2.09-.4A5.38,5.38,0,0,1,98,44.58c-.2-.26-.52-.48-.61-.78-.14-.46-.41-.45-.78-.45-1.5,0-3-.07-4.51-.13a2.46,2.46,0,0,0-1.26.13.5.5,0,0,1-.38,0,2.62,2.62,0,0,0-1.3-.12,10.11,10.11,0,0,1-2.89-.48c-.62-.16-1.26-.27-1.87-.46a6.26,6.26,0,0,1-2.31-1.41,9.21,9.21,0,0,1-2.23-3.12c-.23-.51-.28-.51-.91-.33a9.54,9.54,0,0,1-1.58.37,1.24,1.24,0,0,0-.71.31,1.24,1.24,0,0,1-1.62.11.73.73,0,0,0-.75-.07,2.47,2.47,0,0,1-1,.18,1.23,1.23,0,0,0-.75.38,1,1,0,0,1-1.37.07c-.23-.14-.48-.34-.79-.1a.3.3,0,0,1-.23,0c-1.24-.17-2.53-.15-3.57-1a2.62,2.62,0,0,1-.92-1.37c-.16-.64-.27-.78-.91-.81-.45,0-.9,0-1.35,0-.78,0-1.55,0-2.32,0A17.58,17.58,0,0,1,57.67,35c-1.1-.25-2.18-.56-3.28-.8-.38-.08-.78-.07-1.17-.13a10.74,10.74,0,0,1-5-1.87,3.9,3.9,0,0,1-1.14-1.84,1.59,1.59,0,0,1,.2-.93.72.72,0,0,1,.8-.39,1,1,0,0,0,.58-.13,4,4,0,0,1,1.27-.51s.06-.09.09-.14a.39.39,0,0,0-.15,0,4.75,4.75,0,0,0-1.32.38,8.78,8.78,0,0,1-1.62.43c-.35-.28-.7-.06-1.05,0l-1.49.29a10.86,10.86,0,0,1-1.39.22c-.94,0-1.89,0-2.83,0a5.67,5.67,0,0,0-1.43,0c-.46.11-1,0-1.4.35A.43.43,0,0,1,37,30a3.05,3.05,0,0,0-1.89,0c-.19,0-.35.29-.52.45s-.45.52-.78.41-.39-.45-.35-.78-.25-.32-.34-.34a3.57,3.57,0,0,1-1.82-.87,1.79,1.79,0,0,0-1.55-.26,8.6,8.6,0,0,1-1.52.35c-.12,0-.25.14-.35.23l-1.27,1.14a1.92,1.92,0,0,1-.31.18c-.4.19-.5.15-.56-.29,0-.18-.06-.26-.25-.24-.46.05-.91.1-1.36.13a3.42,3.42,0,0,1-1.48-.31,4.61,4.61,0,0,0-.63-.2,1.48,1.48,0,0,1-.5-.18,2,2,0,0,0-1.61-.48.48.48,0,0,1-.32-.15.83.83,0,0,0-1.06-.16c-.07,0-.18.08-.23.06-.37-.19-.67.05-1,.11s-.68.17-1-.16a.29.29,0,0,0-.21-.05,3.87,3.87,0,0,1-.66.09c-.19,0-.36.23-.54,0-.62.32-1.38-.12-2,.35-.07.05-.2,0-.31,0a7,7,0,0,1-2.14.26c-.21.23-.48.11-.72.12-.51,0-1,0-1.54,0a10.19,10.19,0,0,1-2-.14,12.45,12.45,0,0,1-3-.88,10.45,10.45,0,0,0-1.41-.63A3.61,3.61,0,0,1,.39,26.73c-.33-.35-.46-1.32,0-1.47.29-.09.77.52,1.07.48.13,0,.28.12.42.19a1.1,1.1,0,0,1-.15.26c-.23.24-.13.34.13.49a13.82,13.82,0,0,0,3.82,1.5c.52.13,1,.18,1.57.27a30.07,30.07,0,0,0,3.55.1,5,5,0,0,0,1.57-.24,1.61,1.61,0,0,1,.44,0c.2,0,.44.07.57,0s.06-.35.08-.53.23-.43.56-.37a1.6,1.6,0,0,0,1.13-.2l2.58-1.54.66-.41a2.08,2.08,0,0,0,.34-.24,2.83,2.83,0,0,0,.25-.24c0,.16,0,.37-.08.46a14.61,14.61,0,0,1-1.17,1.19c-.48.43-1,.83-1.48,1.23l-.45.37c.25.16.41-.09.61-.14s.15-.08.23-.07c.91.12,1.48-.5,2.09-1,.79-.62,1.5-1.34,2.28-2,.4-.34.87-.59,1.29-.9.22-.16.41-.35.63-.52a1,1,0,0,1,.26-.1c0,.12.05.27,0,.34a6.34,6.34,0,0,1-.63.64L20.62,26.1,19,27.56a1.73,1.73,0,0,0-.26.28.15.15,0,0,0,0,.16.26.26,0,0,0,.16,0c.14-.4.54-.28.81-.36a3.79,3.79,0,0,1,1.31-.29c.17,0,.36-.23.54-.37a7.71,7.71,0,0,0,1.46-1.28,3.57,3.57,0,0,1,.67-.55c.79-.58,1.58-1.16,2.37-1.72.08-.05.23,0,.35,0,0,.09-.05.2-.11.26l-1.28,1.1c-.07.07-.17.11-.25.18-1,.95-2,1.91-3,2.86a.56.56,0,0,0-.2.66c0,.05.19.35.23,0,0,0,.13-.08.15-.06.25.2.27,0,.36-.16s.29-.32.55,0,.34,0,.44,0c.32-.23.61-.5.91-.76.75-.67,1.51-1.32,2.25-2,.47-.44.91-.91,1.36-1.36l.1-.07s0,.07.05.11a.8.8,0,0,1-.23.68Q26,26.73,24.19,28.57a5.58,5.58,0,0,1-.48.37c-.05,0-.05.15-.05.22a.27.27,0,0,0,.17,0,3.22,3.22,0,0,0,.61-.24c.26-.14.49-.36.77-.48a3.54,3.54,0,0,0,.85-.6C27,27,28,26.21,28.94,25.37c.42-.37.87-.73,1.26-1.14A8.51,8.51,0,0,1,31.87,23a.55.55,0,0,1,.38,0c.1,0,.16.11,0,.22q-1.89,1.65-3.77,3.31c-.18.16-.3.38-.48.55L26.36,28.6c-.05,0-.1.17-.07.22s.18.05.26,0a1,1,0,0,1,.48-.26A4.36,4.36,0,0,0,28,28a1,1,0,0,0,.18-.18c1-.94,2-1.89,3-2.81.66-.61,1.35-1.19,2-1.78a.58.58,0,0,1,.22-.08c0,.09,0,.2,0,.26a8.71,8.71,0,0,1-.78,1c-.42.43-.9.81-1.34,1.24a9.9,9.9,0,0,0-.73.85.17.17,0,0,0,0,.17.56.56,0,0,0,.93.18c.9-.77,1.78-1.58,2.71-2.3a10.9,10.9,0,0,1,2.19-1.7c.25-.54,1-.5,1.23-1.07,0,0,.17,0,.24,0s.13.09,0,.22a6.93,6.93,0,0,1-1.77,1.77c-.32.26-.64.52-1,.81L32.57,27c-.27.25-.57.49-.86.72s-.12.26,0,.36a3.15,3.15,0,0,0,.57.31c.07,0,.19-.05.26-.11a3.76,3.76,0,0,0,1.23-1.48c0-.07.12-.12.18-.18a2.5,2.5,0,0,1,.07.26c0,.06,0,.13,0,.19a.84.84,0,0,0,0,.17l.14-.12c.86-.71,1.68-1.46,2.6-2.11s1.78-1.41,2.66-2.12c.05,0,.09-.12.14-.13s.24,0,.29,0a.28.28,0,0,1,0,.28,1.14,1.14,0,0,1-.26.28c-.77.73-1.52,1.48-2.32,2.18s-1.74,1.35-2.52,2.11a17.41,17.41,0,0,1-1.46,1.14l-.1.07s.07.06.11.06c.87,0,1.68.07,2.29-.86a13.28,13.28,0,0,1,1.93-2l.75-.76c.33-.34.65-.67,1-1s.9-.82,1.36-1.22,1.16-1,1.76-1.49a.51.51,0,0,1,.35-.08,3.12,3.12,0,0,1,.5.14l-.38.35c-.78.65-1.58,1.28-2.33,2-.53.48-1,1.06-1.46,1.57-.29.29-.64.53-.93.82s-.45.55-.69.8c-.44.46-.9.91-1.35,1.36a.51.51,0,0,0-.19.25c0,.1-.07.29.15.26s.73.17,1-.2c1-.19,1.61-1,2.33-1.68,1.14-1,2.28-2.05,3.44-3a2.87,2.87,0,0,1,1-.47c.17-.07.31,0,.15.23A12,12,0,0,1,43,25c-.42.39-.9.72-1.34,1.1-.7.6-1.39,1.2-2.08,1.82-.31.28-.6.6-.9.9a.16.16,0,0,0,0,.12s.09.05.11,0a2.19,2.19,0,0,1,1-.22c.1,0,.21-.11.29-.2s.15-.24.24-.34c.3-.32.3-.32.59,0,.11.13.18.19.36.05a15.36,15.36,0,0,0,1.4-1.13c.87-.81,1.79-1.56,2.7-2.33.38-.32.79-.6,1.16-.92.15-.13.24-.33.38-.48s.14,0,.21,0a.22.22,0,0,1,0,.17,1.86,1.86,0,0,1-.28.52c-.6.68-1.22,1.35-1.86,2s-1.15,1.06-1.71,1.6c-.3.27-.58.56-.86.85a.14.14,0,0,0,0,.11s.07.12.11.12c.21,0,.42,0,.53-.22.19-.42.36-.85.95-.82.09,0,.19-.16.28-.25.75-.71,1.49-1.44,2.27-2.13.59-.52,1.22-1,1.84-1.45a1.43,1.43,0,0,1,.52-.14c-.05.18-.05.4-.16.52-.61.66-1.26,1.28-1.89,1.92a3.45,3.45,0,0,1-.28.26l-1.94,1.83a.16.16,0,0,0,0,.16.17.17,0,0,0,.16.06c.4-.18.88-.19,1.17-.61.07-.11.3-.11.42-.19l1.39-1L50.17,25c.25-.18.48-.39.73-.56a1.4,1.4,0,0,1,.43-.2.24.24,0,0,1,.22.4c-.31.31-.63.59-1,.88s-.65.58-1,.86L47.94,27.6a.71.71,0,0,0-.1.14c.06,0,.13.06.17,0a4.09,4.09,0,0,0,1.51-.57,13.47,13.47,0,0,1,1.65-1q.82-.51,1.62-1c.17-.12.34-.39.51-.18s0,.44-.06.63a2.33,2.33,0,0,1-1.11,1,2.29,2.29,0,0,0-.27.14.22.22,0,0,0,0,.17s.11.08.15.07.19-.13.27-.12A5,5,0,0,0,55,26l1.94-.9a1,1,0,0,1,.3,0,.73.73,0,0,1-.07.3A3.35,3.35,0,0,1,56,26.47a32,32,0,0,1-3.48,1.7,7.75,7.75,0,0,0-1.4.65,15.41,15.41,0,0,1-2.41,1c-.54.2-.66.37-.37.84a3,3,0,0,0,2.14,1.51,2,2,0,0,1,.29.13.46.46,0,0,0,.21.08l0-.08a.65.65,0,0,1-.23-.06.64.64,0,0,0-.26-.1m-8.81-9.52a6468568104906.7,6468568104906.7,0,0,0-.26.26.22.22,0,0,1-.13.12,7.49,7.49,0,0,1-.77.65.26.26,0,0,1-.13.13.67.67,0,0,0-.21.09c-.51.49-1,1-1.5,1.49a.88.88,0,0,0-.12.19c.09,0,.21,0,.26-.08.55-.56,1.09-1.13,1.7-1.69a.23.23,0,0,1,.13-.13,8.74,8.74,0,0,1,.77-.65.26.26,0,0,1,.13-.12.2.2,0,0,1,.13-.13,6468568104911,6468568104911,0,0,0,.26-.26l.16,0,0-.08a1.18,1.18,0,0,1-.27.12.26.26,0,0,1-.13.13m13.77,6.82-.61.38L53.1,31a2.53,2.53,0,0,0-1.19,1.51.84.84,0,0,1-.06.14c.06,0,.14,0,.17,0,.31-.25.61-.5.9-.77s.51-.51.79-.75a14.76,14.76,0,0,0,1.9-1.67v-.12a.29.29,0,0,1-.14.12M35.34,24l.08.05S35.41,24,35.34,24ZM109.45,6.33c.15,0,.34,0,.23-.25a.29.29,0,0,0-.13-.14,6.72,6.72,0,0,1-2.2-1.68.75.75,0,0,0-.2-.15c-.48-.24-1-.46-1.43-.72s-.78-.51-1.17-.77a.36.36,0,0,0-.23-.05,1,1,0,0,1-.78-.31,1.55,1.55,0,0,0-.49-.21l-1.74-.61a1.66,1.66,0,0,0-1-.18,1,1,0,0,1-.93-.2C99.31,1,99.3,1,99,1.14h-.12c-.31.06-.61-.07-.93,0a5.22,5.22,0,0,1-1-.08,11.47,11.47,0,0,0-3,.09,7,7,0,0,1-1,.14A4.56,4.56,0,0,0,90,2.62a1.25,1.25,0,0,0-.39.87,6.89,6.89,0,0,0,.39,3c.22.51.51,1,.77,1.48a21.65,21.65,0,0,0,1.8,3.18c.38.51.8,1,1.14,1.53a10.83,10.83,0,0,1,.73,1.49.35.35,0,0,1-.3.49,6.13,6.13,0,0,1-.73-.11,2.38,2.38,0,0,0-.38,0c-.57.06-1.13.19-1.69.23a16.93,16.93,0,0,0-1.9.44,6.37,6.37,0,0,0-1.71.66,2.5,2.5,0,0,0-.69.72.54.54,0,0,1-.87.11,5,5,0,0,0-2.44-1.41,8.66,8.66,0,0,0-1.32-.22c-.94,0-1.89,0-2.83,0a7.2,7.2,0,0,0-1.87.15,18.54,18.54,0,0,0-2.57.63,2.23,2.23,0,0,0-1.24.92.73.73,0,0,1-.41.34c-.18.05-.55-.32-.61-.54A1.88,1.88,0,0,0,71.08,15c-.2,0-.39-.09-.59-.12a9.81,9.81,0,0,0-1.32-.12,7.29,7.29,0,0,0-1.48.15,10.52,10.52,0,0,0-1.32.4A5.62,5.62,0,0,0,63.78,17,.47.47,0,0,1,63,17a.67.67,0,0,1-.07-.35c0-.37,0-.73,0-1.09A2.71,2.71,0,0,0,62,13.4c-.59-.53-1.29-.93-1.9-1.44-.2-.18-.41-.35-.62-.51a12,12,0,0,0-2.28-1,.85.85,0,0,0-.32,0,4.75,4.75,0,0,1-1.63-.25,2.25,2.25,0,0,0-.45,0,4.8,4.8,0,0,1-1.3-.11c-.23-.08-.52.08-.79.08s-.46-.05-.69-.06a5.62,5.62,0,0,0-1.92.39,10.4,10.4,0,0,0-1.75.43c-.52.24-1.07.41-1.62.6-1.06.36-2,1-3,1.42-.55.24-.72.72-1.09,1.05a14.32,14.32,0,0,0-.95,1.2c-.21.23-.24.62-.42.91a1.58,1.58,0,0,0-.36.89c0,.39-.43.51-.72.24-.06-.06-.15-.11-.18-.19-.42-.87-1.29-1-2.07-1.18s-1.84-.42-2.75-.68a5.59,5.59,0,0,0-2.35-.35,9.05,9.05,0,0,0-3.23.9,2.6,2.6,0,0,0-.9.74,2.09,2.09,0,0,0-.25.92c0,.27,0,.55,0,.83s-.18.38-.44.21a3.9,3.9,0,0,0-3.22-.53c-.45.11-.91.17-1.37.27a1,1,0,0,0-.32.14c-.18.13-.24.24-.05.45A15.26,15.26,0,0,0,25,20.62a11.63,11.63,0,0,0,1,.61,1,1,0,0,1,.42.36.7.7,0,0,1,0,.55c-.11.21-.28.1-.47,0a8.67,8.67,0,0,0-2.09-1A2.49,2.49,0,0,0,22,21.08c-.33-.23-.66,0-1,0-.6.07-1.2.2-1.8.31-.24.05-.5.23-.66-.13,0,0-.1,0-.11,0-.15.32-.44.29-.71.3-.84,0-1.69.07-2.52.13a22.45,22.45,0,0,0-2.6.27,10.71,10.71,0,0,1-2.33.1,11.16,11.16,0,0,0-4.12.77c-.37.15-.74.28-1.1.46a9.84,9.84,0,0,1-2.63.94A3.25,3.25,0,0,0,.74,25.45c-.3.31-.47.35-.7,0a.3.3,0,0,1,0-.26A4.84,4.84,0,0,1,2,23.6c.36-.16.78-.09,1.17-.27C3.77,23.07,4.4,23,5,22.71A27.78,27.78,0,0,1,8.37,21.5a1.67,1.67,0,0,1,.32,0,4.81,4.81,0,0,0,1.36-.11.73.73,0,0,1,.67.09c.11.08.37-.08.57-.1s.14.1.2.1a4.05,4.05,0,0,0,.85-.12,12.57,12.57,0,0,1,2-.27,37.92,37.92,0,0,1,4.4-.25,20.5,20.5,0,0,0,2.46-.25c.46-.05.92-.18,1.38-.24a4.75,4.75,0,0,1,.75,0l.14,0c0-.07,0-.16-.07-.2a16.75,16.75,0,0,1-1.24-1.29c-.57-.74-.43-1.17.44-1.49a6.33,6.33,0,0,1,1.23-.31,14.89,14.89,0,0,1,1.88-.25,7.13,7.13,0,0,1,1.27.2l.36.05c.18,0,.28,0,.27-.23s.11-.32.1-.47c0-.75.53-1.06,1.07-1.36a8.17,8.17,0,0,1,2.72-.91c.46-.07.91-.21,1.37-.24a7,7,0,0,1,2.35.37c.94.27,1.89.51,2.83.78l1.65.51c.06,0,.14,0,.19,0s.3.26.34.23a.88.88,0,0,0,.33-.41,14.64,14.64,0,0,1,1.48-2.34,2.27,2.27,0,0,1,1-.84c1-.49,2-1.09,3-1.52a14.64,14.64,0,0,1,2.69-.81c.68-.13,1.34-.3,2-.39a14.32,14.32,0,0,1,1.44-.22,6.79,6.79,0,0,1,2.31.16,18.66,18.66,0,0,0,2.52.42,11.05,11.05,0,0,1,2.29.7,3.43,3.43,0,0,1,.75.51c.44.38.85.78,1.28,1.16a.86.86,0,0,0,.27.2,3.51,3.51,0,0,1,1.74,1.76,3.69,3.69,0,0,1,.18,1,2.76,2.76,0,0,0,.07.49c0,.09.13.17.19.26a.7.7,0,0,1,.13-.24,2.61,2.61,0,0,1,.7-.51c.57-.2,1-.58,1.6-.79a7.11,7.11,0,0,1,1.65-.5,4.09,4.09,0,0,1,1.63.07,4.8,4.8,0,0,0,1.42.16,2.22,2.22,0,0,1,2.17,1.12c.2.38.34.37.75.09a5.27,5.27,0,0,1,2.55-.82,8.32,8.32,0,0,0,.85-.13,11.93,11.93,0,0,1,3-.25c.84,0,1.68.06,2.52.13.5.05,1,.17,1.5.25a4.43,4.43,0,0,1,1.74.92c.41.28.48.32.85,0a6.83,6.83,0,0,1,2.8-1.3,17,17,0,0,1,2.93-.56c.13,0,.26-.11.39-.12.31,0,.09-.14,0-.21a8.36,8.36,0,0,0-.79-1.15,14.84,14.84,0,0,1-2.08-3.51c-.25-.48-.52-1-.77-1.42a5.53,5.53,0,0,1-.74-2.92,3.79,3.79,0,0,1,0-1.3A3,3,0,0,1,90,1.34,6.42,6.42,0,0,1,91.65.48c.28,0,.54-.18.81-.22.49-.07,1-.1,1.49-.14S95.07,0,95.63,0a6.79,6.79,0,0,1,1.81.14,19,19,0,0,0,2.8.38,11.78,11.78,0,0,1,2.53.72c.33.12.61.43.94.52a10.87,10.87,0,0,1,2.17.81,2.38,2.38,0,0,1,.55.39c.28.25.52.55.95.51a.27.27,0,0,1,.16.08,12.53,12.53,0,0,0,1.56,1.18,3.86,3.86,0,0,1,1.26,2,9.41,9.41,0,0,0,.43,1.11s.07.1.08.16c0,.45.11.91.12,1.36a8.19,8.19,0,0,1-.12,1s-.07.06-.07.09c0,.29,0,.58,0,.87a3.16,3.16,0,0,1,.66-.21c.92-.12,1.79-.48,2.73-.57s2.12,0,3.17-.1a8.78,8.78,0,0,1,3,.42A24,24,0,0,1,125,12.62a10.24,10.24,0,0,1,2.44,1.59A5.48,5.48,0,0,1,129,16.73a5.87,5.87,0,0,1,0,3.52,7.56,7.56,0,0,1-2.3,3.68,4.21,4.21,0,0,1-1.54.77,1.43,1.43,0,0,0-.3.2,3.88,3.88,0,0,0,.26.31c.11.11.27.2.38.32.62.7,1.25,1.4,1.86,2.12A1,1,0,0,1,127.2,29a3.09,3.09,0,0,1-.91.45,8.68,8.68,0,0,1-1.45.55c-.43.06-.87.17-1.31.23a2.83,2.83,0,0,0-.31.11l.21.16c.69.61,1.43,1.18,2.07,1.83a9.36,9.36,0,0,1,1.68,2.45,5.64,5.64,0,0,1,.28,1.23c0,.09,0,.22,0,.25-.43.37-.37,1-1,1.36a8.26,8.26,0,0,1-2.57,1.24,4,4,0,0,1-.47.11c-.73.06-1.47.06-2.2.15a17.21,17.21,0,0,1-2.59,0,13.9,13.9,0,0,1-2.14-.26,20,20,0,0,0-3.18-.24,13.1,13.1,0,0,0-1.44-.27,7.73,7.73,0,0,1-2-.27c-.14-.17,1.24-.49,1.37-.72a.85.85,0,0,1,.83-.1,7.44,7.44,0,0,0,2.64.62,11.26,11.26,0,0,1,2.53.26c.91.22,1.84.14,2.74.35.26.06.56-.11.84-.11a13.72,13.72,0,0,0,3.06-.39,3.42,3.42,0,0,0,1.54-.78c.34-.31.84-.48.83-1.06a3.2,3.2,0,0,0-.67-2,14.78,14.78,0,0,0-2.93-2.82,10.84,10.84,0,0,1-1-.95c-.21-.2-.42-.19-.57.06a7.11,7.11,0,0,1-1.44,1.7c-.17.15-.26.38-.42.53-.47.44-1,.77-1.63.34-.29-.19-.54,0-.69.21a1,1,0,0,1-1.33.21c-.3-.15-.49-.17-.69.19a1.75,1.75,0,0,1-.69.6c-.26.14-.53.28-.84,0a.87.87,0,0,0-.82-.35s-.06,0-.09-.08c-.53-.45-1-.32-1.43.15a1.67,1.67,0,0,1-1,.46c-.32,0-.51-.12-.52-.39a.82.82,0,0,1,.25-.52,2.18,2.18,0,0,1,.52-.29A11.22,11.22,0,0,0,112.84,31c.26-.27.48-.58.73-.85.1-.11.2-.34.4-.12s.38.3.17.58-.43.59-.64.89l-.57.79s-.07.11-.11.15-.28.23-.26.25c.14.27.25-.07.4-.05a.37.37,0,0,0,.27-.1,8.17,8.17,0,0,0,1.64-2,6.25,6.25,0,0,1,.51-.82c.06-.08.23-.11.35-.13s.15.15.15.26a2.42,2.42,0,0,1-.59,1.56.69.69,0,0,0-.05.17c.06,0,.15,0,.18-.06l1-1.39a4,4,0,0,1,.3-.39,1.05,1.05,0,0,1,.31-.12c0,.15.43.14.17.41,0,.78-.64,1.22-.87,1.89,0,.16-.21.29-.3.45s0,.15,0,.22.17,0,.22-.07A7.24,7.24,0,0,0,117.43,31a11.66,11.66,0,0,0,1-1.82c.07-.16.14-.34.35-.23s.08.24.09.39a4.73,4.73,0,0,1-.7,2.3.65.65,0,0,0-.06.23c0,.11,0,.25.06.3a.3.3,0,0,0,.3,0c.55-.53,1.09-1.08,1.63-1.62l2.42-2.41c0-.05.17,0,.26-.06s0,.23,0,.3c-.21.28-.45.54-.68.82,0,0-.08.14-.06.15a.3.3,0,0,0,.19.1,7.71,7.71,0,0,0,3.19-.52,3.19,3.19,0,0,0,.81-.52c.22-.17.24-.34,0-.58a10.1,10.1,0,0,0-2.88-2.49c-.11-.06-.25-.17-.27-.28,0-.29-.24-.22-.41-.24a.56.56,0,0,1-.34-.12c-.26-.27-.45-.12-.62.09s-.46.63-.69.94a5,5,0,0,1-.45.58c-.56.57-.86.61-1.49.15-.21-.15-.29-.22-.47,0-.32.39-.66.76-1,1.13a1.39,1.39,0,0,1-.71.47c-.22.05-.58,0-.66-.18a.4.4,0,0,1,0-.34,1.73,1.73,0,0,1,.4-.41,12.41,12.41,0,0,0,2-2.31,26.16,26.16,0,0,0,1.55-2.19,22.31,22.31,0,0,0,1.09-2.05c.11-.21.24-.14.35-.09s.2.08.09.27a1.88,1.88,0,0,0-.17.76,3.46,3.46,0,0,1-.63,1.41c-.49.79-1,1.55-1.54,2.33a.71.71,0,0,0-.13.26.26.26,0,0,0,.13.2c.34.1.58-.17.73-.35a8.91,8.91,0,0,0,.85-1.31c.4-.65.79-1.3,1.18-2,.15-.25.28-.52.44-.78s.46-.76.71-1.12a.31.31,0,0,1,.29-.07.33.33,0,0,1,.11.29,19.12,19.12,0,0,1-.92,2.26,1.51,1.51,0,0,0-.33,1.09c0,.19.13.22.25.1a4.09,4.09,0,0,0,.92-1.1c.37-.81.77-1.61,1.18-2.4a7.15,7.15,0,0,1,.59-.85c.11-.17.17,0,.22,0a.31.31,0,0,1,.06.22,9.22,9.22,0,0,1-.34,1.47c-.49.89-1,1.8-1.41,2.7a.47.47,0,0,0,0,.17c.09,0,.21.08.29.06a5.17,5.17,0,0,0,3-2.07,8.5,8.5,0,0,0,1-2.2,6.77,6.77,0,0,0,.05-1A4.69,4.69,0,0,0,128.1,17a4.06,4.06,0,0,0-.89-1.69l-.48-.43a6.71,6.71,0,0,0-1.56-1.06,28.61,28.61,0,0,0-4.4-1.8c-.65-.2-1.33-.3-2-.46a10.17,10.17,0,0,0-3.16-.1,14.25,14.25,0,0,0-2.89.45,10.72,10.72,0,0,1-1.3.31,2.71,2.71,0,0,0-.79.41.87.87,0,0,1-.87,0c-.38-.33-.35-.38-.2-.85a5.28,5.28,0,0,0,.4-1.83A7,7,0,0,1,110,9a11.18,11.18,0,0,0-.29-2,3,3,0,0,0-.25-.65m-4-3.57a1.26,1.26,0,0,0-.26-.13.78.78,0,0,0-.22,0c.06.07.1.18.17.21s.21,0,.31.08l.57.3s.12,0,.17,0,0-.11-.07-.13a1.31,1.31,0,0,0-.67-.29m4.77,4.37-.15-.19-.11.11a.29.29,0,0,0,.26.08M108.94,5.2l.21.18s0-.09,0-.1a.3.3,0,0,0-.25-.08M110.48,8l-.14-.19-.1,0a.3.3,0,0,0,.24.14m14.93,24.71-.08-.05s0,.07.08.05M23.89,20.26l.08,0s0-.08-.08,0M77.8,15l-.08-.05S77.73,15,77.8,15Zm38,10.23c-.46.65-.91,1.23-1.36,1.82a.36.36,0,0,0-.05.23s0,.08,0,.11l.09-.1c.8-.95,1.61-1.88,2.39-2.85.64-.8,1.21-1.65,1.87-2.43a22,22,0,0,0,1.12-1.93c.1-.14.1-.31.31-.25a.31.31,0,0,1,.23.39,4.66,4.66,0,0,1-.4,1.12c-.5.81-1.06,1.58-1.61,2.36-.43.6-.88,1.18-1.34,1.76s-.89,1.13-1.34,1.69-.65.85-1,1.26a1.18,1.18,0,0,1-.92.54c-.43-.05-.8-.28-1.29,0-.34.17-1-.59-1-1a.48.48,0,0,1,.18-.36c.09,0,.28,0,.38.1.38.27.37.28.68,0a13.77,13.77,0,0,0,1.6-2c.33-.49.75-.93,1.12-1.4.59-.74,1.18-1.48,1.72-2.25.38-.54.66-1.14,1-1.7a2.7,2.7,0,0,1,.51-.56.33.33,0,0,1,.26,0c.18.09.06.18,0,.27a.39.39,0,0,0-.11.21,3.09,3.09,0,0,1-.65,1.56,5.91,5.91,0,0,1-.49.63,2.66,2.66,0,0,0-.65.89,4.82,4.82,0,0,1-.62.9C116.21,24.52,116,24.83,115.76,25.21Zm-5.44-4.53c.12-.24.19-.44.3-.63s.17-.16.25-.24c.09.1.22.19.25.31a1.66,1.66,0,0,1-.49,1.4A9.9,9.9,0,0,1,109.35,23c-1,.86-1.52,2.13-2.48,3-.07.07-.07.2-.14.26-.25.2-.33.38,0,.59a.62.62,0,0,1,.14.14c.25.39.37.44.7.12a11.71,11.71,0,0,0,1.6-1.7,9.63,9.63,0,0,1,.89-.92c.35-.4.67-.84,1-1.25s.83-1,1.22-1.49c.28-.35.52-.73.79-1.09.08-.12.15-.27.27-.33a.5.5,0,0,1,.38,0c.22.08,0,.18,0,.28a4,4,0,0,1-1.17,2c-.55.7-1.12,1.38-1.68,2.07l-1.73,2.11c-.29.36-.6.7-.91,1a1.36,1.36,0,0,1-.35.24c-.93.45-1.26.41-1.75-.67-.11-.23-.22-.26-.39,0s-.23.19-.31.32c-.28.5-.76.43-1.19.37a.63.63,0,0,1-.4-.45c0-.2.07-.51.42-.43s.54-.19.69-.34c.56-.55,1-1.18,1.57-1.77.28-.31.61-.59.88-.91a9.53,9.53,0,0,1,.93-1.15c.44-.35.66-.86,1.06-1.24A10.63,10.63,0,0,0,110.32,20.68ZM94.79,27.24c-.25.17-.5.29-.73.44a1.1,1.1,0,0,1-.84.26c-.61-.12-.75-.41-.58-1a2.27,2.27,0,0,0,0-.52c-.12.11-.23.24-.36.34-.42.31-.86.62-1.28.94a.39.39,0,0,1-.63-.08L90,27a.17.17,0,0,1,0-.17s.15-.06.17,0c.18.23.31.2.5,0s.61-.56.91-.84c0,0,.06-.13.09-.13.75-.07,1.11-.73,1.67-1.08a22.07,22.07,0,0,0,2.06-1.54,4.11,4.11,0,0,1,1.08-.82.4.4,0,0,0,.22-.22c.07-.19.14-.42.35-.29s.09.44,0,.57a5.63,5.63,0,0,1-.8.82l-1,.91c-.6.52-1.19,1.05-1.81,1.54-.43.33-.24.77-.28,1.17,0,0,.18.07.24,0a12.11,12.11,0,0,0,1.37-.86c1.14-.89,2.24-1.83,3.38-2.72s2.57-2,3.86-2.95a.85.85,0,0,1,.34-.1c0,.13,0,.3,0,.39a4.16,4.16,0,0,1-.62.64c-.36.3-.75.57-1.12.86l-1.17.9c-.58.46-1.2.88-1.74,1.38C96.67,25.37,95.74,26.3,94.79,27.24ZM61,25.05a48.23,48.23,0,0,0-4.35,2.8c-.1.08-.24.23-.39.1a.51.51,0,0,1-.16-.69,1.37,1.37,0,0,1,.36-.36c1-.59,2-1.16,3-1.73.18-.1.38-.14.56-.22a3.24,3.24,0,0,0,.36-.2,1.07,1.07,0,0,1-.26-.26.87.87,0,0,1-.11-.46.28.28,0,0,1,.38-.23c.38.1.63-.17.89-.33a21.61,21.61,0,0,0,4.1-3.59c.4-.42.72-.9,1.1-1.33.15-.18.34-.32.59-.16a.53.53,0,0,1,.06.65,3.57,3.57,0,0,1-.27.28L65.32,20.9c-.65.65-1.29,1.3-1.95,1.94-.19.19-.43.32-.62.51s-.5.61-.78.89S61.38,24.76,61,25.05ZM94.79,27.3c.11,0,.26,0,.18.24a.6.6,0,0,0,0,.35c.11.35.17.35.44.12.58-.51,1.18-1,1.75-1.52.16-.14.26-.36.42-.52.91-.88,1.8-1.8,2.77-2.62a23.67,23.67,0,0,1,3.17-2.56,4.37,4.37,0,0,0,.68-.68c.09-.09.17-.22.28-.26a.52.52,0,0,1,.38.07c.21.12-.15.21,0,.34-.34.11-.25.57-.58.71a6.14,6.14,0,0,0-.81.51,3,3,0,0,0-.43.36,15.44,15.44,0,0,1-2.25,1.86,2.42,2.42,0,0,0-.32.32c-.65.64-1.32,1.27-1.94,1.95s-1.26,1.44-1.89,2.16c-.18.2-.33.43-.52.61a1.07,1.07,0,0,1-1.35,0c-.13-.13-.14-.2-.08-.39A5.84,5.84,0,0,0,94.79,27.3ZM108,19.07a2,2,0,0,1-.86,1.59c-.35.22-.56.66-.87,1-.52.52-1.1,1-1.61,1.5a23.94,23.94,0,0,0-2.6,2.82,12.23,12.23,0,0,1-1.54,1.68,1.31,1.31,0,0,1-1.29.4,1.68,1.68,0,0,1-.67-.53s.07-.23.14-.34.07-.12.23-.06a1.1,1.1,0,0,0,1.22-.36c.75-.74,1.55-1.44,2.29-2.18s1.47-1.58,2.23-2.34,1.4-1.29,2.07-2a5,5,0,0,0,.88-1.18C107.79,18.78,107.85,18.91,108,19.07ZM89.77,42.2a3.3,3.3,0,0,1-.41-.26.59.59,0,0,1-.18-.76c0-.07.21-.16.25-.13.53.35.77-.11,1-.39.56-.6,1.07-1.23,1.6-1.84s.84-.94,1.27-1.39c.2-.21.47-.35.67-.56.42-.43.79-.92,1.23-1.34.73-.69,1.51-1.34,2.25-2,.18-.16.33-.34.51-.49a.17.17,0,0,1,.17,0s0,.12,0,.17a.49.49,0,0,1-.09.22l-1.49,1.5a3.57,3.57,0,0,0-.28.27c-.81.9-1.58,1.85-2.46,2.69A10.18,10.18,0,0,0,92.11,40c-.36.59-.82,1.07-1.19,1.62A1.16,1.16,0,0,1,89.77,42.2ZM106.46,24a12.35,12.35,0,0,0-2,2.18c-.41.47-.77,1-1.22,1.41s-.71.65-1.08,1a1,1,0,0,1-1.31-.31c-.07-.14.15-.5.31-.47.55.13.86-.3,1.17-.58.61-.55,1.13-1.2,1.71-1.78.43-.43.9-.82,1.33-1.24.18-.17.3-.39.47-.57s.57-.58.86-.85.4-.3.57-.48.53-.63.82-.93a7.7,7.7,0,0,1,.76-.63c.09-.07.28-.13.3-.1s.18.27.15.37a1.28,1.28,0,0,1-.34.5c-.39.37-.82.71-1.2,1.09S106.92,23.52,106.46,24ZM115.63,21c.12.07.23.17.21.22a4.54,4.54,0,0,1-.8,1.6c-.52.61-1,1.26-1.47,1.89l-1.35,1.69c-.45.57-.89,1.14-1.35,1.69a3.69,3.69,0,0,1-1.68,1.34,1.08,1.08,0,0,1-1.22-.48.29.29,0,0,1,.08-.29.65.65,0,0,1,.43-.19c.68.11,1.09-.33,1.5-.74.81-.82,1.64-1.65,2.39-2.53a29,29,0,0,0,2.88-3.82A1.25,1.25,0,0,1,115.63,21ZM65.1,32.71a10.74,10.74,0,0,1-1.65,1.53,1.58,1.58,0,0,1-1.26.22.58.58,0,0,1-.47-.6c0-.19.3-.64.49-.66s.3,0,.32.11c.12.39.37.23.54.12a9.63,9.63,0,0,0,1-.77c.64-.53,1.25-1.1,1.9-1.63s1.46-1,2.08-1.61,1.3-.78,1.86-1.29a.6.6,0,0,1,.49,0,.43.43,0,0,1-.15.56c-1.31.69-2.34,1.76-3.58,2.55l-.09.09C66.12,31.76,65.63,32.22,65.1,32.71ZM85.36,38.3c-.46.46-.87.89-1.31,1.3a.77.77,0,0,1-1.23,0c-.24-.26-.16-.41.17-.59a4,4,0,0,0,1.39-1,8,8,0,0,1,1-.93l1.27-1.13a34,34,0,0,1,3.41-2.79c.23-.15.64-.11.67-.52.07,0,.2,0,.2.07a.68.68,0,0,1-.1.33c-.6.56-1.22,1.1-1.83,1.64A15.57,15.57,0,0,0,86.52,37,13.72,13.72,0,0,1,85.36,38.3Zm-16-18.14-.48.48c-.4.39-.8.78-1.18,1.18s-.8.92-1.23,1.35c-.59.58-1.19,1.14-1.81,1.68a1.42,1.42,0,0,1-1.79.09c-.11-.1-.13-.16-.06-.34a2.51,2.51,0,0,1,.67-.87l.31-.32c0,.14,0,.28.07.43s.16.3.37.16.64-.44.94-.69c.45-.37.87-.78,1.31-1.17s.81-.67,1.16-1.05c.61-.66,1.17-1.35,1.74-2,.18-.21.46-.35.61-.25a.61.61,0,0,1,0,.7C69.86,19.72,69.65,19.92,69.41,20.16ZM69,31.48c-.48.4-1,.74-1.37,1.13A7.24,7.24,0,0,1,66,34c-.29.15-.59.34-.93.13l-.52-.3c.18-.16.33-.38.54-.46a12.69,12.69,0,0,0,2.71-1.81c1-.73,2-1.47,3-2.17a4.9,4.9,0,0,1,1.5-.88c.22-.06.38,0,.47.14s-.08.27-.18.34c-.44.31-.91.59-1.36.89A8.67,8.67,0,0,0,69.58,31,3.9,3.9,0,0,1,69,31.48Zm-1.54-6.56a2.06,2.06,0,0,1-1-.08.43.43,0,0,1-.22-.58c.08-.19.3-.47.54-.32s.59,0,.8-.17c.8-.77,1.61-1.53,2.35-2.36s1.13-1.46,1.7-2.18a.53.53,0,0,1,.37-.18c.26,0,.12.21.14.33a1.22,1.22,0,0,1-.28.92,8.88,8.88,0,0,1-.85,1c-.58.59-1,1.31-1.58,1.9A6.64,6.64,0,0,1,67.48,24.92Zm3.28,8,.66-.53c.66-.53,1.31-1.06,2-1.58a.29.29,0,0,1,.3,0,.3.3,0,0,1,0,.29A7.45,7.45,0,0,1,73,32c-.24.24-.52.42-.76.64a28.53,28.53,0,0,1-3.07,2.54,5.28,5.28,0,0,1-1,.5.8.8,0,0,1-1-.28c-.16-.22-.07-.52.18-.52a4.35,4.35,0,0,0,2.17-1A9.1,9.1,0,0,0,70.76,33Zm1.67-11.83c.35-.46.68-.88,1-1.31a2,2,0,0,1,.22-.29.29.29,0,0,1,.21,0c.1.31.26.63.08.95a9.29,9.29,0,0,1-.72,1.12,15.91,15.91,0,0,1-2,2.3,7,7,0,0,1-.94.68.77.77,0,0,1-1-.3.39.39,0,0,1,.3-.48,1.64,1.64,0,0,0,.92-.59c.49-.46,1-.89,1.47-1.36A6.17,6.17,0,0,0,72.43,21.13Zm.45,3.66c-.37.37-.7.72-1.24.68-.23,0-.45-.08-.52-.3s.09-.35.31-.51a9.44,9.44,0,0,0,1.68-1.36c.45-.52,1-.93,1.52-1.42s.75-.84,1.14-1.26c.08-.09.16-.27.35-.12s.06.25,0,.41a3.84,3.84,0,0,1-1.29,1.91c-.5.51-1,1.06-1.46,1.57A3.92,3.92,0,0,1,72.88,24.79ZM82.47,38c-.07.18-.06.43-.15.46s-.32,0-.41-.25-.3-.39-.41-.6c-.2-.39-.15-.52.26-.7a7.22,7.22,0,0,0,1.38-.71c.82-.61,1.7-1.14,2.56-1.69.46-.29.91-.58,1.38-.86.09-.05.23,0,.34,0a2.76,2.76,0,0,1-.08.27c-.14.46-.58.6-.91.85s-.91.63-1.32,1a11.16,11.16,0,0,1-2,1.59A4.15,4.15,0,0,0,82.47,38Zm24.7-4.5c.69-.51,1.36-1,2-1.45s1.3-1,1.95-1.48c.41-.3.85-.56,1.24-.87.22-.18.32-.05.4.08s0,.19-.17.23-.11.21-.19.29c-.32.34-.68.64-1,1a18.28,18.28,0,0,1-1.54,1.38,9.21,9.21,0,0,1-1.22.91c-.28.2-.59.35-.86.55a.32.32,0,0,1-.49,0C107.19,33.93,106.91,33.8,107.17,33.48Zm-47.48-10c-.28.2-.53.38-.79.53s-.52.21-.74.37-.58,0-.83-.12c-.08,0-.31-.12-.16-.31s.22-.35.35-.36a4,4,0,0,0,2.06-1.05,19.84,19.84,0,0,0,2.38-2,4,4,0,0,0,1.31-1.62.45.45,0,0,1,.15-.19.21.21,0,0,1,.17,0,.18.18,0,0,1,0,.16,4,4,0,0,1-1.07,1.86C61.64,21.61,60.67,22.5,59.69,23.44ZM104.47,40.3a6.31,6.31,0,0,1,.57-.44,1.59,1.59,0,0,1,.39-.08.92.92,0,0,1,0,.34,3.21,3.21,0,0,1-.4.67c-.37.43-.75.85-1.14,1.27-.66.71-1.31,1.43-2,2.12-.24.24-.6.36-.83.6s-.38,0-.53-.05-.14-.27-.17-.43,0-.13.1-.17a23.38,23.38,0,0,0,2.73-2.53ZM78.35,21.77l.66-.53a2.2,2.2,0,0,1,.26-.15c0,.12.1.26.07.35a3.4,3.4,0,0,1-.48.95A13.94,13.94,0,0,1,75.72,25a.88.88,0,0,1-1.13,0c-.09-.09-.21-.23-.19-.31s.18-.39.26-.38c.48,0,.75-.3,1.07-.54C76.6,23.14,77.46,22.47,78.35,21.77Zm12.8,1A19.42,19.42,0,0,0,89,24.4c-.29.25-.62.46-.93.68a4,4,0,0,0-.4.28c-.46.48-1.13.61-1.65,1-.09.06-.25,0-.38,0s-.42,0-.45-.23.1-.29.19-.42a1.06,1.06,0,0,1,.37-.36c.74-.36,1.51-.69,2.26-1.05a13.89,13.89,0,0,0,1.3-.73c.9-.58,1.78-1.18,2.68-1.77.06,0,.17,0,.26,0s-.07.23-.14.26A2.45,2.45,0,0,0,91.15,22.73ZM107.94,42c.3,0,.44-.39.76-.3s.34.2.19.37a16.54,16.54,0,0,1-1.46,1.56c-.54.48-1.18.86-1.76,1.29a.52.52,0,0,1-.84-.19.36.36,0,0,1,.09-.31l2.59-2.11C107.64,42.17,107.78,42.09,107.94,42ZM81,23a2.89,2.89,0,0,1,1.14-1.16c.18-.1.28-.11.36,0a.48.48,0,0,1,0,.3,6.28,6.28,0,0,1-1,1.58,1.94,1.94,0,0,1-1.53.81,2,2,0,0,1-1.26-.22c-.21-.13-.21-.26-.17-.37a.51.51,0,0,1,.32-.29,7.34,7.34,0,0,0,1.06-.08A6.12,6.12,0,0,0,81,23Zm8.39,2.09a10,10,0,0,0,2.2-.9c.28-.14.58-.26.85-.42a.48.48,0,0,1,.67.08c.23.25.21.43-.08.6l-1.42.77c-.24.14-.58.23-.3.62,0,0-.11.15-.12.15-.38-.25-.79-.05-1.17-.14a2,2,0,0,1-.64-.32C89.21,25.41,89.19,25.25,89.38,25.08ZM85,23.31c.06.62-.42.91-.78,1.1a5.42,5.42,0,0,1-1.62.4,1,1,0,0,1-.64-.13c-.12-.07-.45-.07-.33-.34s.26-.39.41-.4a5.19,5.19,0,0,0,2.68-1c.24-.16.38,0,.49.17C85.26,23.14,85.14,23.23,85,23.31ZM113.7,44.13c-.34.17-.6.34-.88.51s-.52.28-.78.44a2.15,2.15,0,0,1-1.32.19c-.2,0-.45-.52-.35-.7s.24-.2.29-.18a2.06,2.06,0,0,0,1.87-.21,8.24,8.24,0,0,0,2.89-1.84s.06-.08.09-.09a1.64,1.64,0,0,1,.22,0c0,.07,0,.18,0,.22-.52.47-1,.95-1.59,1.42A1.73,1.73,0,0,1,113.7,44.13ZM56.86,29.88s0,0,0,.08S56.85,29.92,56.86,29.88ZM109.45,6.27a.21.21,0,0,1-.12,0A.21.21,0,0,1,109.45,6.27Z"/></g></g></svg>