<svg xmlns="http://www.w3.org/2000/svg" viewBox="0 0 24.12 31.26"><defs><style>.cls-1{fill:#aafff9;}.cls-2{opacity:0.25;}.cls-3{opacity:0.5;}</style></defs><g id="Layer_2" data-name="Layer 2"><g id="crystal-1"><path id="fill4" class="cls-1" d="M22.94,23.34a4.09,4.09,0,0,0-.83,1.91c-.19,1.77-1.51,2.8-2.45,4.08a1.61,1.61,0,0,1-.65.51c-2.7,1-5.41,2-8.38,1-1.87-.58-3.81-.92-5.69-1.44a1.46,1.46,0,0,1-.81-.81C3.28,26.32,2.35,24,1.67,21.69S.55,16.94,0,14.55a1.08,1.08,0,0,1,.07-.61C1.21,9.81,2.34,5.69,3.52,1.59,3.85.42,4.13.19,5.13.5A6.74,6.74,0,0,0,9.23.19a3.31,3.31,0,0,1,3.18.53c2.92,2.19,5.87,4.35,8.79,6.53a3.63,3.63,0,0,1,1.58,3c.12,2.15.59,4.29.89,6.44.14.9.27,1.81.4,2.71A5.14,5.14,0,0,1,22.94,23.34Z"/><path id="fill3" class="cls-2" d="M21.6,24.2a6.1,6.1,0,0,0-.6,1.33c-.2.61-.59.73-.91.66-2.69-.49-5.15-.94-7.61-1.41-.7-.14-.81-.5-.43-1.24,1-1.93,2-3.84,3-5.76.32-.61.65-.62,1.1-.15.72.76,1.41,1.55,2.15,2.28a37,37,0,0,0,2.93,2.69A1.07,1.07,0,0,1,21.6,24.2ZM6.18,8.43c0-1.88,0-3.78,0-5.68,0-1-.26-1.2-1.15-1.38S4,1.91,3.81,2.47c-.48,1.68-.93,3.36-1.35,5.06-.47,1.89-.89,3.8-1.32,5.7A1.35,1.35,0,0,0,1.9,15c1.06.55,2,1.28,3,1.91.38.23.82.38,1.23.58,0-.41.12-.82.14-1.23,0-2.1,0-4.21,0-6.31H6.18Z"/><path id="fill2" class="cls-3" d="M5.63,27.49c-.51.31-.86.39-1.07-.33-.44-1.41-1-2.78-1.4-4.18-.1-.34-.14-.92.06-1.11.95-.91,2-1.74,3-2.59,0-.05.11-.07.2-.14a2,2,0,0,1,.49.32C8,21,9.12,22.52,10.19,24.07c.26.35.12.61-.25.84C8.49,25.75,7.06,26.62,5.63,27.49ZM19.43,27c-2.25-.53-4.49-1.07-6.74-1.58a3.63,3.63,0,0,0-3.35.69c-.81.67-1.78,1.12-2.64,1.71a7.92,7.92,0,0,0-1.07.94c.41.12.82.26,1.25.36,1.09.25,2.17.49,3.26.72l3.32.68c.76-.17,1.51-.31,2.24-.51a20,20,0,0,1,2.59-.84c.85-.11,1.18-.65,1.57-1.23S20.18,27.14,19.43,27Zm-14-8.15c.29-.32.2-.54-.17-.78C4,17.21,2.83,16.35,1.62,15.52a5.53,5.53,0,0,0-.69-.34c-.05.31-.18.58-.11.78.29,1,.65,2,1,3,.73,2.46.87,2.5,2.74.75A12.57,12.57,0,0,0,5.42,18.81Zm1.81-6.45c.09-.36.18-.73.26-1.09s.15-.82.23-1.24c.39-1.84.72-3.7,1.17-5.53C9,3.92,9,3.57,8.48,3.28c-.31-.17-.59-.38-.9-.56-.49-.29-.81-.15-.82.43,0,.85,0,1.69,0,2.54H6.68c.12,1.88.22,3.77.35,5.66A9,9,0,0,0,7.23,12.36Z"/><path id="fill1" d="M24.07,19.39a5.15,5.15,0,0,1-1.13,3.95,4.09,4.09,0,0,0-.83,1.91c-.2,1.77-1.52,2.8-2.45,4.08a1.55,1.55,0,0,1-.65.51c-2.71,1-5.4,2-8.38,1-1.87-.59-3.81-.93-5.69-1.45a1.46,1.46,0,0,1-.81-.81C3.27,26.32,2.36,24,1.68,21.69S.55,16.94,0,14.55a1.33,1.33,0,0,1,.06-.62C1.22,9.82,2.34,5.69,3.52,1.59,3.86.42,4.13.2,5.13.5A6.7,6.7,0,0,0,9.24.19a3.27,3.27,0,0,1,3.17.53c2.92,2.19,5.86,4.35,8.8,6.53a3.65,3.65,0,0,1,1.57,3c.12,2.16.58,4.3.9,6.45Zm-.54.91c-.07-.54-.09-.82-.14-1.1-.5-3.32-1-6.63-1.51-10A1.79,1.79,0,0,0,21,8c-2.78-2-5.54-4.07-8.32-6.09-1.32-1-1.5-.9-2,.7a2.22,2.22,0,0,0,0,1.2,15.09,15.09,0,0,0,.79,2.16c1.18,2.7,2.31,5.41,3.59,8.06a14.93,14.93,0,0,0,2.35,3.69c1.41,1.54,3.09,2.85,4.65,4.26.34.31.63.25.82-.13C23.16,21.24,23.38,20.66,23.53,20.3ZM7.08,17.63a3.49,3.49,0,0,0,.33,1.06c1,1.5,2.11,3,3.2,4.43.23.3.51.4.75-.1,1.12-2.34,2.29-4.65,3.39-7a1.59,1.59,0,0,0-.07-1.15q-1.9-4.56-3.88-9.08a8.92,8.92,0,0,0-.63-1,4.09,4.09,0,0,0-.58,1C8.74,9.71,7.93,13.61,7.08,17.63ZM6.29,9.91h-.1V8.44c0-1.9,0-3.79,0-5.68,0-1-.27-1.21-1.16-1.39S4,1.91,3.82,2.47c-.49,1.68-.94,3.36-1.36,5.06-.47,1.89-.89,3.8-1.32,5.7A1.36,1.36,0,0,0,1.91,15c1.05.55,2,1.29,3,1.91a10.64,10.64,0,0,0,1.23.58,10.26,10.26,0,0,0,.13-1.23C6.3,14.11,6.29,12,6.29,9.91Zm13.8,16.28c.32.07.71-.05.9-.65a7.27,7.27,0,0,1,.61-1.33,1.07,1.07,0,0,0-.34-1.6,39.22,39.22,0,0,1-2.92-2.7c-.75-.73-1.44-1.52-2.16-2.29-.45-.47-.78-.46-1.1.17-1,1.92-2,3.82-3,5.74-.39.75-.27,1.11.42,1.25C14.93,25.26,17.4,25.7,20.09,26.19Zm-6.63,4.29c.76-.17,1.51-.3,2.24-.52a19.4,19.4,0,0,1,2.59-.82,2.15,2.15,0,0,0,1.56-1.24c.4-.62.33-.77-.42-.94-2.25-.53-4.49-1.06-6.74-1.57a3.65,3.65,0,0,0-3.36.68,31.27,31.27,0,0,1-2.64,1.7,12,12,0,0,0-1.06.95c.41.12.82.26,1.24.36q1.63.38,3.27.72Zm-7-11.34a1.51,1.51,0,0,0-.21.14c-1,.85-2.06,1.67-3,2.59-.2.19-.16.77-.06,1.12.43,1.4,1,2.77,1.39,4.17.23.72.57.64,1.08.33,1.43-.87,2.86-1.74,4.31-2.59.37-.22.51-.48.26-.83q-1.62-2.31-3.28-4.61C6.81,19.31,6.59,19.24,6.44,19.14Zm-5.5-4A2.09,2.09,0,0,0,.81,16c.3,1,.66,2,1,3,.74,2.45.87,2.5,2.75.76q.47-.43.9-.9c.29-.32.21-.54-.17-.79C4,17.21,2.83,16.34,1.62,15.51A4.85,4.85,0,0,0,.94,15.18Zm5.81-9.5H6.69c.11,1.88.22,3.77.34,5.66a6.94,6.94,0,0,0,.2,1c.09-.36.19-.72.26-1.09s.15-.82.24-1.23c.37-1.85.71-3.71,1.16-5.54C9,3.92,9,3.57,8.47,3.28c-.3-.17-.58-.39-.89-.56-.49-.29-.8-.14-.82.44C6.74,4,6.75,4.84,6.75,5.68Zm.91-4c.52.35,1,.7,1.53,1s.8.25.92-.33.13-.91.2-1.36c-.46,0-.92.05-1.37.1a7.35,7.35,0,0,0-1,.2C7.84,1.36,7.79,1.51,7.66,1.7Z"/></g></g></svg>