<svg xmlns="http://www.w3.org/2000/svg" viewBox="0 0 44.27 55.91"><defs><style>.cls-1{fill:#aafff9;}.cls-2{opacity:0.25;}.cls-3{opacity:0.5;}</style></defs><g id="Layer_2" data-name="Layer 2"><g id="crystal-8"><path id="fill4" class="cls-1" d="M44.19,8C42.82,16.11,41.44,24.22,40,32.32c-.75,4-1.67,8.06-2.48,12.09a3.55,3.55,0,0,1-1.58,2.4c-4.07,2.78-8.1,5.58-12.15,8.39a3.36,3.36,0,0,1-2,.59c-2.55,0-5.11,0-7.66,0v.12c-2.51,0-5,0-7.54,0-1.4,0-1.57-.15-2-1.47C3.09,50.14,1.62,45.85.1,41.57A1.35,1.35,0,0,1,.44,40c1.82-2,3.59-4,5.4-6q9.69-10.58,19.42-21.11C28.82,9,32.44,5.24,36,1.32,37,.15,38.31.08,39.66,0a1.28,1.28,0,0,1,.89.58C41.74,2.39,43,4.19,44,6.08A3,3,0,0,1,44.19,8Z"/><path id="fill3" class="cls-2" d="M43.38,7.29c-.71,4.05-1.43,8.1-2.19,12.15C40.49,23.19,39.75,27,39,30.7c-.46,2.36-1,4.69-1.41,7-.23,1.19-.34,2.41-.51,3.61,0,.23,0,.55-.09.67a2,2,0,0,0-.58,1.65c-.12-.24-.28-.49-.37-.73-.6-1.55-1.16-3.1-1.78-4.64a4,4,0,0,1-.19-2.36c1-5.15,1.88-10.31,2.87-15.46,1-5.37,2.14-10.71,3.22-16.06.11-.58.29-1.17.43-1.76l.32-.12c.82,1.31,1.65,2.61,2.44,4A1.21,1.21,0,0,1,43.38,7.29ZM15.67,34.84c-1.81-.11-2.74.45-3.3,2-2,5.49-4,11-6,16.52a7.91,7.91,0,0,0-.07.84l1.41-1c2.85-2,5.67-4,8.57-5.82C21.57,44,26.88,40.64,32.2,37.29a2.47,2.47,0,0,0,.95-1c-1.4-.1-7.89-.73-8.74-.79C21.5,35.3,18.59,35.05,15.67,34.84Z"/><path id="fill2" class="cls-3" d="M35.52,44.68c.25.91.18,1.09-.76,1.28C29.23,47.1,24,49.13,18.58,50.78l-8.37,2.55a4.17,4.17,0,0,1-.8.09,1.74,1.74,0,0,1-.14-.27,5.77,5.77,0,0,1,.69-.62L26.32,42.39l6.14-3.82c1-.63,1-.62,1.39.55C34.42,41,35,42.82,35.52,44.68ZM33.72,5.09a3.85,3.85,0,0,1-.47.67c-.77.74-1.6,1.42-2.33,2.2-1.55,1.65-3,3.36-4.56,5-2.54,2.75-5.08,5.51-7.64,8.24-1.92,2.06-3.89,4.07-5.8,6.15-2.08,2.24-4.1,4.51-6.13,6.78C6,35.05,5.26,36,4.49,37c-.52.24-1,.51-.9,1.18l1.28-.58a.52.52,0,0,0,.06-.13C6,36.83,7.15,36.22,8.25,35.6a18.73,18.73,0,0,0,5.83-4.86c.5-.68,1.08-1.32,1.62-2,3.07-3.73,6.16-7.43,9.18-11.19,1.31-1.6,2.49-3.3,3.73-5a43.92,43.92,0,0,1,3.35-4c1.44-1.48,2.66-3.19,4-4.79a2.17,2.17,0,0,0,.15-.6A4.76,4.76,0,0,0,33.72,5.09Zm-22.87,32c.23-.85,0-1.1-.8-.87A10.94,10.94,0,0,0,8,37.06C6.36,38,4.82,39,3.22,39.88.8,41.23.77,41.22,1.89,43.76c.5,1.13,1.17,2.18,1.57,3.33.57,1.64.94,3.36,1.4,5a12.79,12.79,0,0,0,.45,1.23,4.09,4.09,0,0,0,.39-.55L9.93,40C10.25,39,10.59,38.07,10.85,37.07Z"/><path id="fill1" d="M44,6.08C43,4.2,41.75,2.39,40.55.58A1.28,1.28,0,0,0,39.66,0C38.31.09,37,.14,36,1.33,32.44,5.24,28.81,9,25.25,12.91Q15.53,23.46,5.85,34C4,36,2.26,38.05.44,40a1.33,1.33,0,0,0-.33,1.52c1.51,4.28,3,8.57,4.45,12.87.44,1.32.61,1.47,2,1.48h7.53v-.13c2.55,0,5.11,0,7.66,0a3.38,3.38,0,0,0,2-.59c4.05-2.8,8.09-5.61,12.15-8.39a3.62,3.62,0,0,0,1.59-2.4c.81-4,1.73-8,2.46-12.09C41.44,24.22,42.82,16.11,44.2,8A3.18,3.18,0,0,0,44,6.08ZM38.89,1.46a6.89,6.89,0,0,1,0,1q-1.29,7.69-2.6,15.39Q35,26,33.59,34.22c-.08.47-.19.93-.23,1.4a2.35,2.35,0,0,1-.11.49C31,35.79,22.8,34.88,20.7,34.55q-2.6-.4-5.16-.93c-1.25-.25-1.5-.95-.76-1.89,1.71-2.18,3.41-4.37,5.14-6.53,4.2-5.23,8.42-10.43,12.6-15.66,1.8-2.26,3.53-4.57,5.29-6.86C38.09,2.33,38.4,2,38.89,1.46ZM4.48,37C5.25,36,6,35.05,6.8,34.14q3-3.42,6.11-6.78c1.91-2.07,3.89-4.09,5.81-6.15q3.84-4.09,7.64-8.24c1.53-1.66,3-3.36,4.55-5,.73-.78,1.57-1.46,2.34-2.2a2.88,2.88,0,0,0,.47-.67,4.72,4.72,0,0,1,2.36-1.87c-.08.35-.07.51-.15.6-1.3,1.61-2.52,3.31-4,4.79a40,40,0,0,0-3.34,4c-1.25,1.65-2.43,3.35-3.73,5-3,3.75-6.12,7.45-9.19,11.18-.54.65-1.11,1.29-1.62,2a18.43,18.43,0,0,1-5.83,4.85c-1.1.64-2.21,1.24-3.32,1.85,0,.05,0,.11-.06.12l-1.28.58C3.53,37.48,4,37.2,4.48,37Zm.83,16.39c-.2-.55-.36-.89-.45-1.24-.47-1.68-.84-3.39-1.4-5-.39-1.16-1.07-2.21-1.57-3.33C.77,41.22.8,41.24,3.21,39.87,4.81,39,6.36,38,8,37.06A9.7,9.7,0,0,1,10,36.2c.81-.23,1,0,.82.87s-.61,2-.93,3L5.7,52.8A3.63,3.63,0,0,1,5.31,53.36Zm1,.86a4.22,4.22,0,0,1,.08-.83q3-8.26,6-16.53c.57-1.57,1.5-2.14,3.31-2,2.92.2,5.83.45,8.74.67.84.07,7.35.69,8.74.8a2.52,2.52,0,0,1-.95,1C26.88,40.65,21.56,44,16.28,47.42c-2.89,1.87-5.71,3.87-8.56,5.82Zm24.53-5.78a6.46,6.46,0,0,0-1.31.89l1.3-.12c-.2.23-.28.39-.41.46-1.14.64-2.32,1.23-3.43,1.92a36,36,0,0,0-3.07,2.15,4.7,4.7,0,0,1-3,1.13c-3.21,0-6.42.22-9.64.34-.63,0-1.27,0-1.91,0l-.06-.3c7.49-2.62,15-5.15,22.67-7.45A13.62,13.62,0,0,1,30.84,48.44ZM34.76,46c-5.53,1.15-10.8,3.16-16.18,4.82l-8.37,2.55a5.28,5.28,0,0,1-.81.09l-.14-.28a5.69,5.69,0,0,1,.7-.6L26.32,42.39c2.05-1.27,4.08-2.56,6.13-3.82,1-.63,1-.62,1.4.55q.85,2.77,1.66,5.57C35.78,45.59,35.7,45.76,34.76,46ZM43.39,7.3c-.72,4.05-1.44,8.09-2.19,12.14C40.49,23.2,39.75,27,39,30.71c-.47,2.34-1,4.68-1.42,7-.22,1.19-.34,2.4-.5,3.61,0,.23,0,.55-.09.66a2,2,0,0,0-.59,1.66c-.12-.25-.27-.48-.37-.74-.6-1.54-1.16-3.1-1.78-4.63A4,4,0,0,1,34.07,36C35,30.79,36,25.62,37,20.47c1-5.35,2.13-10.7,3.21-16,.12-.59.29-1.17.43-1.76l.32-.12c.82,1.31,1.65,2.62,2.44,3.94A1.33,1.33,0,0,1,43.39,7.3Z"/></g></g></svg>