<svg xmlns="http://www.w3.org/2000/svg" viewBox="0 0 19.77 57.66"><defs><style>.cls-1{fill:#aafff9;}.cls-2{opacity:0.25;}.cls-3{opacity:0.5;}</style></defs><g id="Layer_2" data-name="Layer 2"><g id="crystal-9"><path id="fill4" class="cls-1" d="M19.77,47.36a4.36,4.36,0,0,1-1,3.08c-1,1.25-2.06,2.45-3.1,3.68-.82,1-1.62,2-2.48,2.9s-1,.86-1.6-.05a28.74,28.74,0,0,1-1.76-2.82,51.66,51.66,0,0,0-4.69-7.23,9,9,0,0,1-1.34-4.37c-.45-2.89-.88-5.79-1.25-8.68-.29-2.25-.5-4.5-.78-6.76S1.22,22.86,1,20.72C.6,18,.24,15.25,0,12.49a3.78,3.78,0,0,1,.58-2.17C2.37,7.4,4.23,4.51,6.07,1.63a6.83,6.83,0,0,1,.6-.79C7.58-.23,7.81-.27,8.9.67a105.55,105.55,0,0,1,9.19,8.88,2.1,2.1,0,0,1,.6,1.48c.12,2.82.31,5.64.4,8.46.15,5.14.24,10.29.38,15.43.07,2.48.2,5,.27,6.71C19.74,44,19.68,45.7,19.77,47.36Z"/><path id="fill3" class="cls-2" d="M16.59,50.05c-1.15,1.8-2.31,3.61-3.5,5.39-.37.58-.54.57-.86-.08-.78-1.52-1.48-3.06-2.23-4.59-.11-.25-.07-.4.22-.45l6.22-1C16.73,49.3,16.88,49.56,16.59,50.05Zm.59-22.69c-.36-3.85-.33-7.73-.46-11.59,0-.78,0-1.55,0-2.33s-.29-1-1-.91c-3.27.5-6.54,1-9.79,1.54-1.07.18-1.12.22-1.1,1.26,0,1.42.1,2.85.24,4.26.27,2.41.6,4.82.92,7.23.26,2,.54,3.92.81,5.89.18,1.36.32,2.73.51,4.1.37,2.62.77,5.23,1.17,7.84.21,1.43.45,2.84.66,4.26a.84.84,0,0,0,1.07.75c.21,0,.45,0,.65,0,1.83-.41,3.66-.81,5.48-1.24,1.09-.26,1.09-.28,1.09-1.45V37.41C17.28,34.65,17.51,31,17.18,27.36Z"/><path id="fill2" class="cls-3" d="M1.09,11.74A.79.79,0,0,1,1,10.69c1.41-2.17,2.8-4.36,4.2-6.54a1.9,1.9,0,0,1,.38-.29c0,.19.16.42.09.59-.34,1-.77,1.93-1.1,2.93C4,9.2,3.44,11.05,2.87,12.88a4.81,4.81,0,0,1-.25.51,3.62,3.62,0,0,1-.37-.25C1.86,12.67,1.47,12.21,1.09,11.74ZM11,53.89c-.51-1.09-1-2.16-1.58-3.24,0,0-.24-.06-.34,0s-.16.2-.13.25c.57,1,1.16,2.09,1.77,3.13,0,.08.15.11.23.17s.05-.09.07-.14A.7.7,0,0,0,11,53.89ZM7.39,41.45C7.25,40.25,7.2,39,7,37.84c-.41-3-.83-6-1.29-9-.3-1.89-.68-3.79-1-5.69,0-.09-.1-.16-.15-.24,0,.09-.13.18-.13.28,0,.34,0,.67,0,1.34s.2,1.74.33,2.78c.37,3.06.73,6.12,1.12,9.18s.82,6.13,1.25,9.18c.17,1.14.41,2.26.66,3.38,0,.18.28.32.43.47A1.61,1.61,0,0,0,8.38,49c0-.43-.08-.87-.14-1.3C8,45.6,7.66,43.53,7.39,41.45Zm-3.19-27c-.15.12-.45.25-.45.35.1,1,.23,2.07.37,3.1,0,.13.14.24.21.36a1.47,1.47,0,0,0,.14-.45c0-.44,0-.89,0-1.33h0c0-.55,0-1.11,0-1.66C4.43,14.69,4.29,14.57,4.2,14.44Zm.27,15.79c0-.36-.09-.72-.14-1.09a.27.27,0,0,0,0-.09.58.58,0,0,0,0-.19c-.07-.57-.15-1.13-.24-1.7s0-1.37,0-2.05-.21-1.24-.28-1.87a.75.75,0,0,1,0-.21.28.28,0,0,0,0-.12c-.29-2.63-.56-5.25-.93-7.87a2.55,2.55,0,0,0-.77-1.2A11.29,11.29,0,0,0,.83,12.9a8,8,0,0,0,0,1.47,47.43,47.43,0,0,1,.69,6.4c0,1.27.22,2.54.38,3.79.27,2,.58,4,.88,6.05s.58,4.15.89,6.22c.37,2.46.78,4.9,1.12,7.35A5.46,5.46,0,0,0,6,47a2.69,2.69,0,0,0,.27.2c0-.13.13-.26.17-.4a.15.15,0,0,0,0-.09v0c-.3-2.41-.55-4.59-.82-6.77C5.25,36.68,4.83,33.47,4.47,30.23Z"/><path id="fill1" d="M19.74,41.64c-.07-1.75-.2-4.24-.27-6.72-.14-5.15-.23-10.29-.38-15.43-.09-2.82-.28-5.64-.39-8.45a2.29,2.29,0,0,0-.61-1.49A105.55,105.55,0,0,0,8.9.67C7.81-.27,7.58-.23,6.67.83a6.68,6.68,0,0,0-.6.8C4.23,4.52,2.36,7.39.59,10.32A3.87,3.87,0,0,0,0,12.5C.24,15.25.6,18,.94,20.73c.27,2.13.59,4.25.85,6.39s.48,4.5.78,6.74c.38,2.9.8,5.8,1.24,8.69a9.25,9.25,0,0,0,1.35,4.38,49.52,49.52,0,0,1,4.68,7.22A31.45,31.45,0,0,0,11.6,57c.61.91.83.92,1.61,0s1.66-1.93,2.48-2.89c1-1.22,2.11-2.43,3.11-3.68a4.32,4.32,0,0,0,1-3.08C19.68,45.7,19.74,44,19.74,41.64ZM10.88,3.26a1.44,1.44,0,0,1,.4.23l3.07,3c1.05,1.06,2.11,2.12,3.16,3.19.15.16.28.34.48.58a10.28,10.28,0,0,1-1,1c-.1.07-.51-.13-.65-.3Q13.58,7.37,10.9,3.67C10.83,3.58,10.89,3.4,10.88,3.26ZM7.71,1.05c.23-.58.4-.32.61,0,2.38,3.25,4.77,6.49,7.14,9.75.51.69.42.88-.44,1q-5.28,1-10.57,1.89c-.61.11-.72,0-.84-1C4.06,11.08,4.41,9.4,5,7.8,5.81,5.52,6.82,3.31,7.71,1.05ZM4.48,16.47c0,.44,0,.89,0,1.33a2,2,0,0,1-.15.45c-.07-.12-.19-.23-.21-.36-.14-1-.27-2.06-.36-3.1,0-.1.29-.23.44-.34.09.12.24.24.24.37,0,.55,0,1.1,0,1.65ZM1,10.69c1.41-2.17,2.8-4.36,4.2-6.53.08-.13.26-.2.39-.3,0,.2.14.42.09.58-.35,1-.78,1.95-1.11,2.94C4,9.2,3.45,11,2.86,12.88a3.82,3.82,0,0,1-.23.51,2.1,2.1,0,0,1-.38-.26c-.39-.45-.78-.92-1.17-1.39A.8.8,0,0,1,1,10.69ZM6.46,46.82a3.52,3.52,0,0,1-.18.4A2.56,2.56,0,0,1,6,47a5.54,5.54,0,0,1-1.24-2.83c-.34-2.46-.75-4.91-1.12-7.36-.31-2.07-.59-4.15-.89-6.22s-.6-4-.87-6.05a32.26,32.26,0,0,1-.38-3.78,45.88,45.88,0,0,0-.71-6.41,8.9,8.9,0,0,1,0-1.46A9.24,9.24,0,0,1,2,13.84,2.53,2.53,0,0,1,2.82,15c.36,2.62.64,5.25.93,7.88,0,0,0,.07,0,.11s0,.14,0,.21c.07.63.24,1.24.28,1.87s0,1.37,0,2.06.17,1.12.24,1.69l0,.19a.27.27,0,0,1,0,.09c0,.36.09.73.14,1.09.36,3.23.78,6.46,1.18,9.69.27,2.19.53,4.38.82,6.81C6.47,46.6,6.49,46.71,6.46,46.82Zm1.75,2.7c-.15-.16-.39-.29-.43-.47-.25-1.12-.49-2.25-.65-3.39-.44-3-.86-6.11-1.26-9.16s-.75-6.13-1.12-9.19c-.12-1-.25-2.08-.33-2.78s0-1,0-1.34c0-.1.09-.19.13-.28.05.08.14.16.15.25.35,1.89.74,3.78,1,5.69.47,3,.88,6,1.29,9,.16,1.2.22,2.42.37,3.62.26,2.08.56,4.15.84,6.22.06.44.12.87.14,1.31A1.61,1.61,0,0,1,8.21,49.52ZM7.3,36.81c-.2-1.36-.33-2.73-.51-4.1-.26-2-.55-3.93-.81-5.9-.32-2.4-.66-4.8-.92-7.21-.15-1.42-.21-2.85-.24-4.28,0-1,0-1.07,1.09-1.25,3.27-.53,6.53-1,9.8-1.54.73-.11,1,.13,1,.92s0,1.55,0,2.32c.13,3.87.1,7.75.46,11.59.34,3.65.11,7.29.24,10.06,0,3.75,0,6.63,0,9.5,0,1.16,0,1.19-1.08,1.45-1.83.43-3.66.83-5.48,1.24-.22,0-.45,0-.66.06a.85.85,0,0,1-1.07-.77c-.22-1.41-.45-2.83-.66-4.24C8.07,42,7.67,39.43,7.3,36.81Zm3.63,17.38c-.08,0-.19-.09-.23-.17-.6-1-1.19-2.08-1.77-3.13,0,0,.06-.23.13-.26s.32,0,.35,0c.53,1.08,1.05,2.16,1.57,3.24a.88.88,0,0,1,0,.16Zm2.17,1.26c-.38.56-.54.56-.87-.09-.77-1.51-1.49-3.06-2.22-4.59-.12-.25-.08-.4.21-.45l6.22-1c.3,0,.45.26.14.74C15.44,51.85,14.28,53.66,13.1,55.45Zm5.47-5.87c-1.06,1.41-2.14,2.81-3.22,4.2,0,.08-.18.1-.28.15,0-.12-.05-.27,0-.35C16,52,17,50.49,18,49c.08-.11.36-.11.55-.11s.11.17.18.3A1.85,1.85,0,0,1,18.57,49.58Zm.56-3.89c0,.61,0,1.22-.08,1.82,0,.15-.23.28-.36.43-.1-.17-.22-.34-.31-.51a.32.32,0,0,1,0-.17c-.09-2.15-.2-4.3-.28-6.45-.15-4.15-.27-8.29-.41-12.44q-.15-4.05-.31-8.11c-.11-2.37-.23-4.75-.35-7.12a1.88,1.88,0,0,1,.8-1.87c.29-.19.52-.15.56.24a1.83,1.83,0,0,1,0,.33c.1,3,.22,6.08.3,9.12.16,5.81.3,11.61.45,17.42C19.14,40.82,19.14,43.25,19.13,45.69Z"/></g></g></svg>