<svg xmlns="http://www.w3.org/2000/svg" viewBox="0 0 58.13 73.76"><defs><style>.cls-1{fill:#ff5f99;}.cls-2{opacity:0.25;}.cls-3{opacity:0.5;}</style></defs><g id="Layer_2" data-name="Layer 2"><g id="crystal-shards-1"><path id="fill4" class="cls-1" d="M58.09,44.81A18.34,18.34,0,0,1,56,51.29c-1.77,2.92-3.11,6.1-4.62,9.18a3.05,3.05,0,0,0,0,.56c1.21-.28,2,.41,2.92,1a1.49,1.49,0,0,1,.67,1.23c.18,2.59.05,2.73-2.24,3.75s-4.35,2-6.47,3.16a2.34,2.34,0,0,1-2.33.06c-1.29-.63-2.62-1.11-3.93-1.69a2.65,2.65,0,0,0-2.12-.05,32.62,32.62,0,0,0-8.91,4.74,1.69,1.69,0,0,1-2,.33c-1.16-.54-2.35-1-3.49-1.56a2.08,2.08,0,0,1-.66-.89c-.34-.7-.59-1.44-.94-2.15a1.12,1.12,0,0,0-1.46-.64,18.8,18.8,0,0,1-2,.48,21.16,21.16,0,0,1-2.74.26,2.85,2.85,0,0,0-1.64.43,17.78,17.78,0,0,1-2.59,1.38c-.58.28-.87,0-.82-.55.07-1-.5-1.41-1.22-1.82C6.69,67,4.08,65.45,1.44,64a1.44,1.44,0,0,1-.91-1.21C.39,60.81.21,58.85,0,56.91a1,1,0,0,1,.71-1.12,7.07,7.07,0,0,0,1.09-.43,3,3,0,0,1,3.86.33A5.42,5.42,0,0,0,7,56.47l.32-.21c-.11-.9-.2-1.81-.34-2.72-.76-5.09-1.58-10.16-2.29-15.25A148.52,148.52,0,0,0,1.76,22a4.1,4.1,0,0,1,.58-3.45c2-3.19,3.88-6.46,5.79-9.71.63-1.05.68-1.13,1.54-.18,3.2,3.51,6.36,7.06,9.53,10.61.61.68,1.18,1.42,2,2.37A23.05,23.05,0,0,0,22,19.26c.5-2.35,1-4.7,1.37-7.07a2.66,2.66,0,0,1,1.09-1.79C28.71,7.13,32.9,3.82,37.11.54c1-.74,1-.76,1.71.21.94,1.31,1.83,2.66,2.78,4,2.71,3.72,5.42,7.43,8.18,11.11a2.32,2.32,0,0,1,.41,2.43Q46.47,29.17,42.8,40.1c-.36,1-.65,2.12-1,3.17l.28.13c.54-.9,1.11-1.77,1.63-2.69a3,3,0,0,1,1.92-1.45c1.74-.5,3.47-1,5.17-1.61a1.69,1.69,0,0,1,2,.41c1.58,1.68,3.17,3.34,4.77,5A1.86,1.86,0,0,1,58.09,44.81Z"/><path id="fill3" class="cls-2" d="M45.12,57.35a9.86,9.86,0,0,1-.78.8c-.3.25-.68.41-1,.68-1.4,1.38-2.9.92-4.76.18,1.48-.95,2.66-1.72,3.85-2.46a1.57,1.57,0,0,1,1.68,0A7.22,7.22,0,0,1,45.12,57.35ZM27.21,65.2c-.07-.76-.32-1.17-1.1-1.25-1.47-.15-2.93-.36-4.39-.47-1-.09-1.29.33-.92,1.33s.63,1.76,1,2.59c.52,1.13,1.14,2.23,1.75,3.39a24.53,24.53,0,0,1,2-1.64A3.91,3.91,0,0,0,27.21,65.2ZM3.81,55.87a2,2,0,0,0-.47-.34c-.63.25-1.22.49-1.82.68a1.07,1.07,0,0,0-.83,1.32c.14,1.27.19,2.54.26,3.81.08,1,.53,1.31,1.38.72A2.65,2.65,0,0,0,3,61.27c.39-.61.74-1.26,1.12-1.88A3.4,3.4,0,0,0,3.81,55.87ZM8.72,61A18.47,18.47,0,0,1,7,59.92c-2-1.17-2.05-1.16-3.17.88-.57,1-.55,1.31.48,1.88,1.65.94,3.35,1.81,5.07,2.66.79.39,1,.23,1.09-.7,0-.14,0-.29,0-.76A2.73,2.73,0,0,0,8.72,61Zm12.79-5.12c-1.49-1.33-3-2.68-4.46-4a.88.88,0,0,0-1.31-.05c-1.46,1.28-2.93,2.58-4.41,3.86-.46.4-.42.77-.1,1.27.78,1.24,1.56,2.48,2.23,3.78a1.65,1.65,0,0,0,1.83,1.1,3.73,3.73,0,0,1,.59,0c.9-.1,1.71.19,2.32-.56,1.09-1.32,2.2-2.62,3.36-3.89C22.06,56.8,22.06,56.35,21.51,55.87Zm3.16,15.47c.5.9,1.45,1.09,2.29,1.47a.84.84,0,0,0,1.13-.39c.71-1.15,1.4-2.3,2.1-3.48C28.17,68,27,68.37,24.67,71.34ZM42,64.25c-.92-.59-2.3-.52-3.5-.61-.23,0-.56.5-.73.84-.34.69-.61,1.42-.93,2.15l6.54.74A3.34,3.34,0,0,0,42,64.25Zm-4.3-52.5c-1.67-2.46-1.14-2.57-3.55-.61a5.6,5.6,0,0,0-.78.65,5.48,5.48,0,0,0-1,1.54Q29.08,23.16,25.89,33a2.48,2.48,0,0,0-.12,1c.23,1.94.5,3.87.73,5.81.35,2.86.67,5.73,1,8.58a5.42,5.42,0,0,0,.23.78c.75-.69.71-1.53.94-2.23Q31,40.05,33.2,33.13c.89-2.73,1.66-5.51,2.53-8.26s1.82-5.58,2.69-8.39C39.19,14,39.19,13.92,37.73,11.75ZM21.75,52a17.5,17.5,0,0,0,.78,3.56A3.27,3.27,0,0,1,22.62,58c-.2.55-.35,1.12-.54,1.67-.37,1-.31,1.11.76,1a7.69,7.69,0,0,0,1.15-.2c1-.19,1.88-.42,2.85-.58,1.21-.18,1.29-.18,1.12-1.47-.51-4-1.06-7.93-1.59-11.9-.58-4.5-1.14-9-1.73-13.5-.26-2-.57-4-.85-6.06-.12-.07-.22-.14-.34-.2-1.41,1.27-2.84,2.5-4.2,3.83a2,2,0,0,0-.43,1.46c.17,1.94.44,3.88.74,5.82C20.26,42.59,21,47.28,21.75,52ZM9.5,28.82a7.73,7.73,0,0,0,.86.22c2.06.4,4.12.77,6.19,1.15.55.1.74-.14.57-.65s-.28-.83-.46-1.24c-.63-1.44-1.3-2.85-1.89-4.31-1.58-3.89-3.1-7.83-4.65-11.74-.16-.38-.35-.74-.53-1.11l-.28.06c0,.48-.05.94-.08,1.41-.16,2.78-.32,5.56-.51,8.36-.14,2-.36,4-.51,6C8.1,28.33,8.16,28.39,9.5,28.82Z"/><path id="fill2" class="cls-3" d="M53.68,62.91a12.59,12.59,0,0,1-1.1,1.72,1.62,1.62,0,0,1-1,.37c-1.65.14-3.3.23-5,.36-1.47.12-1.47.13-2.56-1.29a30.61,30.61,0,0,1,7.91-2.33c.73-.16,1.17.32,1.61.79C53.64,62.62,53.72,62.84,53.68,62.91ZM11.05,57.7l-.27.06c.19,4,.37,8,.57,12.12,1.93-.62,2.1-.83,2.15-2.56,0-.68-.07-1.37,0-2,.23-2.62-.8-4.86-2-7.05A4.25,4.25,0,0,0,11.05,57.7ZM9.59,66.22c-2.08-1-4.13-2.11-6.2-3.18a1.89,1.89,0,0,0-.82-.24c-.21,0-.41.2-.62.32.15.17.23.41.41.51.59.32,1.25.55,1.84.89,2,1.15,3.9,2.33,6.06,3.61C10.37,67.23,10.38,66.62,9.59,66.22Zm8.11-.82c.88-.61,2-.88,2.37-2.05.5-1.47,1-3,1.65-4.73C18.78,60.86,17.26,63.47,17.7,65.4Zm15.43-5.24c-.66-.58-.85-.53-1.43.14a19.49,19.49,0,0,1-2.52,2.82c-.95.77-1.45,1.55-1.28,2.38,0,.75,0,1.14,0,1.53a1.1,1.1,0,0,0,.28.64A2.08,2.08,0,0,0,31,67.26a2.61,2.61,0,0,1,1.77-1.4c.83-.28,1.65-.59,2.49-.87.62-.22.83-.51.53-1.22A9.81,9.81,0,0,0,33.13,60.16Zm14.42-8.51c-.82,1.09-1.66,2.17-2.46,3.27-.55.77-.59,1,.17,1.41,1.28.67,1.42,1.7,1.36,3a4.92,4.92,0,0,0,.22,2.46c2-3.89,3.94-7.54,6-11.45-1,0-1.65,0-2.31,0A3.78,3.78,0,0,0,47.55,51.65ZM45.18,41.59c.14,1.26.25,2.52.39,3.76,0,.5.27.58.69.29.05,0,.37.25.38.37a2.5,2.5,0,0,1-.19.81l.28.14a10.74,10.74,0,0,0,4.6-7.89c0-.6-.16-.72-.84-.5L46.18,40C45.17,40.33,45.06,40.52,45.18,41.59ZM35,9.31a3,3,0,0,0,1-1.53c.52-2,.9-4.08,1.41-6.53-.51.31-.73.41-.91.55-1.66,1.36-3.3,2.74-5,4.1s-3.61,2.84-5.4,4.28a1.76,1.76,0,0,0-.35.58,1.89,1.89,0,0,0,.63.25c.82.07,1.66.05,2.48.13C33.15,11.51,32.1,11.46,35,9.31Zm13.17,7.45L41.62,14.5c-1.47-.52-1.64-.43-2.06,1.06-1.31,4.51-2.54,9-3.93,13.53-2.38,7.62-4.85,15.21-7.27,22.81-.14.42-.24.84-.33,1.16.22,1.53.43,2.92.61,4.33.3,2.37.28,2.39,2.6,1.57a1.58,1.58,0,0,1,1.52.06c.71.44.89.31,1.3-.5l4.11-7.93A15.15,15.15,0,0,0,39,48.86C40.2,45.4,41.42,42,42.57,38.47c2.19-6.59,4.34-13.2,6.5-19.81C49.51,17.3,49.49,17.25,48.14,16.76ZM11.46,11.45a4.57,4.57,0,0,0-.69-.63l-.19.11A12.11,12.11,0,0,0,11,12.14c1.2,3,2.42,6.08,3.64,9.12,1,2.59,2.05,5.18,3.12,7.75.53,1.27.63,1.28,1.72.36s2-1.84,3.06-2.73,1-.86.19-1.84Q17.1,18.11,11.46,11.45ZM12,52.86c-.17-1.07-.41-2.12-.57-3.18A142.44,142.44,0,0,0,7.87,30.81c-.93-3.32-2.89-6.06-5-8.73A2.29,2.29,0,0,0,2.58,22a4,4,0,0,0,0,.65,149.59,149.59,0,0,1,2.8,15.84q1.37,9,2.75,18C8.35,57.71,8.68,58,10,58.2a3.18,3.18,0,0,1,1.43-3.77C12.08,54.06,12,53.45,12,52.86Z"/><path id="fill1" d="M7.36,56.26c-.11-.9-.21-1.82-.34-2.72-.76-5.08-1.58-10.16-2.28-15.25A153,153,0,0,0,1.76,22a4.06,4.06,0,0,1,.58-3.44c2-3.19,3.88-6.47,5.79-9.72.63-1.06.68-1.12,1.54-.18,3.2,3.51,6.36,7.06,9.53,10.6.61.69,1.17,1.42,2,2.38A18.83,18.83,0,0,0,22,19.26c.51-2.35,1-4.7,1.38-7.07a2.63,2.63,0,0,1,1.09-1.79C28.7,7.13,32.9,3.83,37.11.54c1-.74,1-.76,1.7.21,1,1.3,1.84,2.66,2.79,4,2.71,3.71,5.42,7.44,8.19,11.11a2.33,2.33,0,0,1,.4,2.43Q46.47,29.17,42.8,40.1c-.35,1-.65,2.12-1,3.18l.29.12c.54-.89,1.11-1.77,1.62-2.69a3,3,0,0,1,1.93-1.45c1.74-.5,3.46-1,5.18-1.62a1.7,1.7,0,0,1,2,.42c1.58,1.68,3.17,3.34,4.77,5a1.9,1.9,0,0,1,.49,1.76,18.17,18.17,0,0,1-2.15,6.47c-1.76,2.93-3.09,6.11-4.6,9.18a2.17,2.17,0,0,0-.06.56c1.21-.28,2,.41,2.93,1a1.46,1.46,0,0,1,.65,1.23c.19,2.59.06,2.73-2.24,3.76s-4.34,2-6.46,3.14a2.33,2.33,0,0,1-2.34.07c-1.27-.63-2.61-1.12-3.91-1.69a2.72,2.72,0,0,0-2.13-.06,33.21,33.21,0,0,0-8.91,4.75,1.72,1.72,0,0,1-2,.34c-1.15-.54-2.34-1-3.48-1.57a2,2,0,0,1-.66-.89c-.34-.7-.6-1.45-.94-2.15a1.12,1.12,0,0,0-1.45-.64,17.24,17.24,0,0,1-2,.47,23.13,23.13,0,0,1-2.74.28,2.63,2.63,0,0,0-1.64.42,19.4,19.4,0,0,1-2.59,1.38c-.57.29-.86,0-.82-.56.07-1-.5-1.39-1.22-1.81C6.69,67,4.08,65.46,1.44,64a1.39,1.39,0,0,1-.9-1.2Q.32,59.84,0,56.91a1,1,0,0,1,.72-1.12,10.28,10.28,0,0,0,1.09-.43,3,3,0,0,1,3.85.33A6.06,6.06,0,0,0,7,56.48ZM28,53.06c.22,1.52.44,2.92.61,4.33.29,2.37.28,2.38,2.6,1.56a1.59,1.59,0,0,1,1.51.07c.72.43.9.31,1.32-.51,1.36-2.64,2.74-5.28,4.1-7.92A14.3,14.3,0,0,0,39,48.86c1.21-3.45,2.44-6.91,3.6-10.39,2.19-6.59,4.33-13.2,6.49-19.81.44-1.36.42-1.41-.93-1.9C46,16,43.79,15.25,41.62,14.5c-1.48-.51-1.64-.43-2.06,1.06-1.31,4.51-2.54,9-3.94,13.53-2.36,7.62-4.84,15.21-7.26,22.81C28.22,52.32,28.12,52.74,28,53.06Zm-.3-3.91c.74-.69.7-1.53.94-2.23Q31,40,33.2,33.13c.88-2.74,1.66-5.51,2.52-8.26s1.83-5.58,2.69-8.39c.78-2.53.78-2.56-.69-4.73-1.66-2.46-1.13-2.57-3.54-.61a5.64,5.64,0,0,0-.79.66,5.5,5.5,0,0,0-1,1.53Q29.07,23.16,25.88,33a2.41,2.41,0,0,0-.11,1c.23,1.93.51,3.86.74,5.79.34,2.87.66,5.73,1,8.6A5.76,5.76,0,0,0,27.73,49.15ZM21,54.41l.28-.22c-.2-1.43-.37-2.87-.61-4.3-.63-3.65-1.31-7.29-1.94-11q-.58-3.31-1.07-6.65a1.23,1.23,0,0,0-1.09-1.17l-3.88-.79c-.92-.19-1.82-.4-2.74-.54s-1,.06-.91,1c0,.14.09.28.11.42.45,2.75.9,5.5,1.33,8.26.57,3.67,1.11,7.35,1.67,11,.09.58.16,1.17.28,1.74.22,1,.42,1.06,1.23.39s1.33-1.15,2-1.74a.76.76,0,0,1,1.16,0c.76.67,1.55,1.31,2.33,2ZM23.79,27l-.33-.21c-1.41,1.27-2.86,2.51-4.2,3.84a2,2,0,0,0-.45,1.45c.19,1.95.45,3.89.74,5.82q1.08,7,2.2,14.05a17,17,0,0,0,.78,3.56A3.34,3.34,0,0,1,22.62,58c-.2.54-.34,1.11-.54,1.66-.37,1-.3,1.11.76,1,.39,0,.77-.14,1.15-.21,1-.19,1.89-.43,2.84-.57,1.23-.19,1.3-.19,1.13-1.48-.5-4-1.06-7.94-1.58-11.91-.59-4.49-1.15-9-1.74-13.49C24.38,31.05,24.07,29,23.79,27ZM2.58,22a4,4,0,0,0,0,.65A157.38,157.38,0,0,1,5.42,38.5q1.35,9,2.74,18c.19,1.24.52,1.53,1.89,1.73a3.17,3.17,0,0,1,1.42-3.77c.61-.37.57-1,.48-1.58-.17-1.06-.41-2.11-.56-3.17A143.8,143.8,0,0,0,7.87,30.81c-.93-3.32-2.89-6.06-5-8.73C2.88,22.05,2.81,22.06,2.58,22Zm22.66,9,.37,0c.12-.31.26-.61.36-.93,1.2-3.66,2.39-7.33,3.6-11,.63-1.9,1.33-3.78,1.94-5.69.34-1,.19-1.23-.88-1.24q-2.64,0-5.28,0c-1.14,0-1.21.08-1.45,1.21-.5,2.3-.81,4.64-1.49,6.88-.5,1.65-.38,2.91.93,4a4,4,0,0,1,1.25,2.88C24.7,28.42,25,29.69,25.24,31ZM9.59,11.14l-.28.06c0,.47-.05.94-.08,1.41-.17,2.78-.31,5.57-.51,8.35-.14,2-.36,4-.52,6-.1,1.37,0,1.43,1.31,1.85a6.56,6.56,0,0,0,.84.23l6.19,1.15c.56.1.75-.14.58-.65a10.84,10.84,0,0,0-.46-1.24c-.63-1.44-1.31-2.85-1.89-4.3-1.57-3.91-3.1-7.83-4.65-11.75C10,11.87,9.76,11.51,9.59,11.14Zm1.17-.32-.18.12c.12.4.22.81.37,1.2,1.21,3,2.42,6.08,3.64,9.12,1,2.59,2.05,5.18,3.12,7.75.53,1.28.64,1.29,1.72.36s2-1.84,3.06-2.72,1-.86.19-1.85Q17.1,18.11,11.46,11.45A6,6,0,0,0,10.76,10.82Zm33.68,31-.39,0c-.56,1.07-1.1,2.15-1.67,3.22-2.28,4.32-4.55,8.64-6.87,12.93a3,3,0,0,0,.07,3.54A11.52,11.52,0,0,1,36.37,63c.4.78.42.78,1.07.12.89-.91.88-.91.36-2-.21-.44-.36-.92-.59-1.34a.87.87,0,0,1,.29-1.27c.31-.23.65-.42,1-.63,3.8-2.42,3.75-2.44,5.47-6.64a13,13,0,0,0,.85-6.89Zm-28.55,20c.88-.1,1.69.19,2.31-.56,1.08-1.32,2.21-2.61,3.35-3.88a.9.9,0,0,0,0-1.49l-4.46-4a.87.87,0,0,0-1.3-.06q-2.21,1.93-4.42,3.86c-.46.4-.42.77-.11,1.27.79,1.24,1.57,2.48,2.23,3.78a1.68,1.68,0,0,0,1.84,1.1A5.82,5.82,0,0,1,15.89,61.8ZM48.72,15.89,38.57,1.57l-.31.07c-.26,1.27-.55,2.53-.76,3.81-.62,3.77-.6,3.76,1.59,6.88a3,3,0,0,0,1.59,1.22l7.15,2.24A7.24,7.24,0,0,0,48.72,15.89ZM7.19,27l.3-.06a97.12,97.12,0,0,0,.87-16.77c-.32.22-.47.28-.54.39-1.73,3-3.45,5.91-5.2,8.85A1.25,1.25,0,0,0,2.81,21C3.89,22.41,4.92,23.89,6,25.35,6.37,25.9,6.79,26.43,7.19,27ZM37.39,1.25c-.51.31-.73.41-.9.55-1.67,1.36-3.31,2.75-5,4.1s-3.61,2.84-5.4,4.27c-.17.14-.23.39-.35.58a2,2,0,0,0,.63.27c.82.06,1.66.05,2.48.12,4.28.37,3.23.32,6.1-1.83a3,3,0,0,0,1-1.53C36.49,5.75,36.88,3.69,37.39,1.25Zm15,37.4-.42.13c-.27,1.37-.53,2.74-.79,4.11a1.37,1.37,0,0,0,0,.57,40.69,40.69,0,0,0,1.43,4.11c.74,1.6,1,1.62,2.69,1.22a3,3,0,0,1,.43-.08,1.17,1.17,0,0,0,1.11-1c.2-1,.44-1.9.57-2.86a1.46,1.46,0,0,0-.28-1.08C55.59,42,54,40.35,52.41,38.65Zm.43,11.64c-1,0-1.64,0-2.31,0a3.81,3.81,0,0,0-3,1.35c-.82,1.09-1.66,2.17-2.46,3.27-.55.77-.58,1,.17,1.4,1.28.67,1.43,1.71,1.35,3a5.11,5.11,0,0,0,.22,2.45C48.87,57.85,50.79,54.21,52.84,50.29ZM27.9,65.5c0,.75,0,1.14,0,1.53a1.13,1.13,0,0,0,.28.64A2.07,2.07,0,0,0,31,67.25a2.63,2.63,0,0,1,1.77-1.39c.83-.28,1.66-.59,2.49-.87.62-.21.82-.52.54-1.21a9.93,9.93,0,0,0-2.68-3.62c-.65-.58-.85-.52-1.42.14a20.19,20.19,0,0,1-2.53,2.83C28.23,63.88,27.74,64.66,27.9,65.5Zm-4.32,5.29c.72-.6,1.31-1.18,2-1.64a3.91,3.91,0,0,0,1.64-4c-.07-.76-.33-1.18-1.11-1.25-1.46-.15-2.92-.35-4.38-.48-1-.08-1.29.34-.91,1.34s.62,1.75,1,2.59C22.36,68.53,23,69.63,23.58,70.79Zm22.87-24,.29.14a10.75,10.75,0,0,0,4.59-7.89c0-.6-.16-.72-.84-.5L46.19,40c-1,.34-1.13.53-1,1.6.14,1.25.25,2.51.38,3.76.06.5.28.58.69.29,0,0,.38.23.39.37A3.06,3.06,0,0,1,46.45,46.82Zm-36,17A2.71,2.71,0,0,0,8.72,61,18.62,18.62,0,0,1,7,59.92c-2-1.18-2-1.16-3.16.87-.57,1-.55,1.32.47,1.89,1.67.94,3.37,1.81,5.08,2.66.8.4,1,.23,1.09-.7C10.46,64.5,10.45,64.35,10.45,63.87ZM44,64.06c1.1,1.43,1.09,1.41,2.56,1.3,1.65-.13,3.31-.21,5-.35a1.65,1.65,0,0,0,1-.38,10.93,10.93,0,0,0,1.1-1.72c0-.08,0-.29-.12-.39-.44-.46-.88-.94-1.62-.79A31.06,31.06,0,0,0,44,64.06ZM11.35,69.88c1.93-.62,2.1-.83,2.14-2.56,0-.68-.05-1.36,0-2,.22-2.62-.8-4.86-2-7.05a3.62,3.62,0,0,0-.42-.53l-.26.07Zm36.38-8.16c2,.17,2.4-.07,3-1.61a9,9,0,0,0,.91-2.29c.1-.82.66-1.32,1-2,.53-1.15,1.18-2.23,1.78-3.34.5-.91,1-1.81,1.61-2.87C54.83,49.7,54.1,50,53.7,51a25.29,25.29,0,0,1-1.22,2.3c-.4.72-.82,1.43-1.22,2.14A14.52,14.52,0,0,0,50,57.69a9.58,9.58,0,0,1-1.2,2C48.44,60.32,48.11,61,47.73,61.72ZM37.51,67.63c-1.66-.27-1.09-1.08-.91-1.83s-.05-.84-.67-.61c-1,.37-2,.82-3,1.19a2.44,2.44,0,0,0-1.5,1.46c-.44,1-1,2-1.5,3-.14.27-.26.55-.44.92ZM3.34,55.54c-.63.23-1.22.48-1.82.67a1.08,1.08,0,0,0-.84,1.32c.14,1.27.19,2.54.28,3.81.07,1,.51,1.3,1.37.72A2.58,2.58,0,0,0,3,61.28c.39-.62.74-1.27,1.12-1.89a3.44,3.44,0,0,0-.27-3.53A2.5,2.5,0,0,0,3.34,55.54Zm27.72,4.67-.16-.33c-1.09.21-2.18.44-3.27.63-1.87.33-3.75.64-5.63,1-.44.07-.78.34-.69.77a1,1,0,0,0,.73.52c1.64.24,3.29.43,4.94.59a1.76,1.76,0,0,0,1.11-.22A10.55,10.55,0,0,0,31.06,60.21Zm5.81,6.42,6.54.74A3.35,3.35,0,0,0,42,64.25c-.92-.59-2.3-.51-3.49-.6-.23,0-.57.5-.74.83C37.45,65.17,37.18,65.9,36.87,66.63ZM30.2,68.94c-2-.9-3.24-.56-5.54,2.41.51.89,1.46,1.09,2.3,1.45a.84.84,0,0,0,1.13-.38C28.8,71.27,29.49,70.11,30.2,68.94ZM15.66,62.38h-.43c-1.29,0-1.33.08-1.25,1.34.06,1,.18,2,.31,3a4.16,4.16,0,0,0,.3.88,3.55,3.55,0,0,0,.89-.37,2.22,2.22,0,0,0,.56-.82c.31-.76.57-1.54.86-2.31C17.46,62.61,17.29,62.36,15.66,62.38Zm23-3.38c1.87.75,3.35,1.21,4.76-.17.28-.27.66-.43,1-.68a9.86,9.86,0,0,0,.78-.8,7.44,7.44,0,0,0-1-.81,1.59,1.59,0,0,0-1.68,0C41.27,57.29,40.09,58.06,38.62,59Zm7-.42-.34-.24c-.7.51-1.41,1-2.1,1.51-1,.75-1,.86-.49,1.93.14.31.33.6.48.9a.85.85,0,0,0,1.22.42c.54-.2,1.21-.25,1.22-1C45.61,60.9,45.6,59.74,45.6,58.58Zm-23.88,0c-2.95,2.25-4.46,4.84-4,6.78.88-.61,2-.88,2.36-2.05C20.57,61.87,21.1,60.41,21.72,58.62Zm27.09-8.81c1.09-.12,2-.19,2.83-.32.64-.1.76-.46.42-1.06a2.6,2.6,0,0,0-3.57-1.2,1.34,1.34,0,0,0-.94,1.84C47.7,49.47,48.48,49.63,48.81,49.81ZM10.25,68.13c.12-.9.13-1.51-.65-1.9-2.08-1-4.14-2.13-6.21-3.18a1.74,1.74,0,0,0-.82-.25c-.2,0-.41.2-.61.32.13.17.23.41.4.51.6.32,1.25.55,1.83.89C6.16,65.67,8.1,66.84,10.25,68.13ZM43.2,55l.23.21a3,3,0,0,0,.68-.45c.72-.86,1.4-1.74,2.09-2.62,1-1.22,1-1.32-.44-2.13a2.42,2.42,0,0,0-.47-.12ZM20.72,66.82c-.21-.64-.33-1.16-.55-1.65-.06-.13-.47-.28-.56-.21a12.28,12.28,0,0,0-2.13,1.71c-.23.25-.16.93,0,1.33s.65.12,1,0a12.8,12.8,0,0,0,1.65-.56C20.38,67.33,20.54,67,20.72,66.82ZM4.67,56a3,3,0,0,0,1.11,2.3c1.36.91,2.82,1.69,4.26,2.53.39-.66,0-1-.38-1.28-1.37-1-2.71-2.07-4.08-3.1A6.38,6.38,0,0,0,4.67,56Zm37,7.37c.32,0,.75.06.59-.57a4.28,4.28,0,0,0-3.06-2.62c-.14,0-.42.27-.41.4A3,3,0,0,0,41.69,63.32Zm8,2.87-.11-.25c-.61,0-1.23,0-1.84,0-2.13.21-2.24.41-1.48,2.42,0,.07.14.11.33.25Zm3.14.1,0-.35a3.22,3.22,0,0,0-1.18-.08,6.39,6.39,0,0,0-3.2,2.31Zm1.35-3.05c-.41.69-.73,1.19-1,1.72,0,.06.28.36.48.42s.54,0,.58-.14a6,6,0,0,0,.35-1.38C54.64,63.75,54.45,63.6,54.2,63.24ZM41.73,68.49c.77.37,1.44.72,2.13,1a.52.52,0,0,0,.48-.08.61.61,0,0,0,0-.54A2.39,2.39,0,0,0,41.73,68.49Zm2-3.45-.26.17,1.31,2.22C45,66.31,44.33,65.71,43.76,65Zm3-15.61c.18-.25.42-.44.4-.58s-.36-.47-.43-.44a2.49,2.49,0,0,0-.56.52ZM16.24,67.37l-.63.69c.16.14.35.42.48.39a.73.73,0,0,0,.52-.43C16.66,67.88,16.41,67.65,16.24,67.37ZM49.8,45.49c.34-.26.59-.44.83-.64a1.26,1.26,0,0,0-.13-.22l-.74.5S49.76,45.21,49.8,45.49Z"/></g></g></svg>