<svg xmlns="http://www.w3.org/2000/svg" viewBox="0 0 44.29 52.81"><defs><style>.cls-1{fill:#ff5f99;}.cls-2{opacity:0.25;}.cls-3{opacity:0.5;}</style></defs><g id="Layer_2" data-name="Layer 2"><g id="crystal-shards-6"><path id="fill4" class="cls-1" d="M41.7,16.69l-2.84-.36C36.61,19.2,34.45,22,32,25.09c-.18-1.19-.32-1.92-.4-2.65-.39-3.38-.74-6.77-1.19-10.12a6.36,6.36,0,0,0-.86-2.44C27.93,7.23,26.12,4.67,24.49,2a3.89,3.89,0,0,0-3.58-2C20.27,1,19.66,2,19,3a7.84,7.84,0,0,0-1.43,4c-.26,2.75-.58,5.51-.89,8.25-.37,3.36-.77,6.71-1.15,10.07l-.41,0c-.17-1.56-1.26-2.4-2.31-3.3-1.84-1.58-3.72-3.11-5.51-4.75S3.11,15.84.73,15.44C.48,18.83.25,22,0,25.07c-.08.9.55,1.35,1.08,1.87,4.51,4.48,9,8.94,13.53,13.45,1.46,1.47,2.89,2.92,5,3.39.16,0,.27.23.55.48-1,2,0,3.7.68,5.51.95,2.55,1.76,3.11,4.36,3a3.44,3.44,0,0,0,1.08-.24c1.94-.6,3.88-1.28,5.85-1.84A3.4,3.4,0,0,0,34.21,49c3.15-5.62,6.35-11.23,9.52-16.86a3.55,3.55,0,0,0,.56-1.56C44.37,25.81,42.88,21.32,41.7,16.69Z"/><path id="fill3" class="cls-2" d="M32.4,49.63l-3.08,1.11c.36-1.28.62-2.19.89-3.12C31.71,47.65,32,48.5,32.4,49.63ZM18.63,36.72c.73.93,1.47,1.85,2.2,2.77l.35-.15c-.08-.37,0-.9-.25-1.07C20.22,37.7,19.41,37.24,18.63,36.72Zm-.27,5.69,2.15.67c0-.91-.08-1.61-.13-2.77C19.54,41.2,19,41.72,18.36,42.41ZM24,40c-.36,1.82-.68,3.64-1.06,5.67l2.9.34V38.71C24.85,38.75,24.21,39.11,24,40Zm11.06-4-1.58-.29c-1,3.68-2,7.25-3,10.86,1.06.39,1.22-.23,1.4-.73q1.68-4.59,3.29-9.21C35.22,36.47,35.13,36.26,35.09,36ZM18.34,7c-.66,6.75-1.46,13.47-2.22,20.2-.13,1.14.44,1.87,1.11,2.88.22-.69.38-1.15.5-1.61.83-3.55,1.67-7.09,2.49-10.64.43-1.88,1.2-3.77,1.22-5.67.07-3.31-.33-6.63-.53-9.93A7.37,7.37,0,0,0,18.34,7Zm5.53,15c-.31,2.69-.55,5.38-.81,8.07-.19,2-.36,3.93-.54,5.91l.3.09c.88-1.26,1.76-2.51,2.6-3.69h2c.14-2,.14-3.94.46-5.83.5-3-1.05-5.15-2.42-7.43C24.08,19.88,24,20.59,23.87,22ZM12.1,25.91Q8.38,22.13,4.57,18.4a6,6,0,0,0-3.14-1.69c-.22,3-.42,5.77-.63,8.7L13.73,32c.1-.1.22-.19.32-.3-.34-1.44-.65-2.92-1.07-4.34A3.61,3.61,0,0,0,12.1,25.91Z"/><path id="fill2" class="cls-3" d="M19.06,33.53c.46.88.89,1.79,1.32,2.67l-.28.28-4.42-3.37C17.54,31.63,18.1,31.71,19.06,33.53ZM30.53,22.09v5.46C31.71,25.44,30.79,23.77,30.53,22.09Zm6.08,13.65A3,3,0,0,0,36,36.87c-1.14,3.11-2.25,6.24-3.4,9.34a1.89,1.89,0,0,0,.64,2.42c.3-.55.58-1,.81-1.5,1.68-3.64,3.37-7.27,5-10.91.6-1.33,1.14-2.7,1.72-4C39.38,33.35,38,34.51,36.61,35.74Zm-6.12-2.45c-.31,4-.61,8-.92,11.92l.38,0c.87-3.06,1.77-6.13,2.59-9.21C32.89,34.75,32.19,33.8,30.49,33.29ZM22.83,46.71c-1.39,1.43-.6,3-.37,4.66,2.85.83,3.6.74,5.33-.51C26.53,47,26.2,46.71,22.83,46.71Zm.43-7.46a3.94,3.94,0,0,0-.55-1.08c-.23.17-.38.22-.39.3-.58,2.44-1.18,4.88-1.66,7.34-.09.46.31,1,.55,1.74C21.93,46.3,23.41,40.17,23.26,39.25ZM21.56,36a8.46,8.46,0,0,0,.24-1.06c.55-5.81,1.07-11.61,1.67-17.42a5.24,5.24,0,0,0-1.42-3.89C21,18.17,19.92,22.49,19,26.82a14.23,14.23,0,0,0-.14,3.33C18.88,32.39,20.38,34.05,21.56,36Zm-7.75-3L3.39,27.65c-.06.09-.11.18-.18.27C7.94,32.6,12.67,37.26,17.45,42L20,39.63l-5.67-6.39A1.6,1.6,0,0,0,13.81,32.93Z"/><path id="fill1" d="M15.51,25.3c.38-3.35.77-6.7,1.15-10.06.3-2.75.62-5.5.87-8.26A8,8,0,0,1,19,3c.69-1,1.29-2,1.93-3a3.87,3.87,0,0,1,3.59,2c1.64,2.67,3.44,5.23,5.1,7.89a6.33,6.33,0,0,1,.86,2.42c.45,3.37.79,6.75,1.19,10.12.09.74.22,1.47.4,2.66l6.81-8.76,2.85.35c1.18,4.65,2.66,9.13,2.59,13.91a3.39,3.39,0,0,1-.56,1.56C40.56,37.78,37.36,43.38,34.2,49a3.32,3.32,0,0,1-2.08,1.71c-2,.56-3.89,1.23-5.84,1.85a4.11,4.11,0,0,1-1.08.24c-2.61.07-3.41-.5-4.36-3-.67-1.81-1.69-3.57-.68-5.52-.27-.23-.39-.43-.55-.46-2.1-.48-3.53-1.92-5-3.4-4.48-4.51-9-9-13.53-13.45C.57,26.42-.07,26,0,25.07c.25-3.12.47-6.25.72-9.63,2.38.4,4.67.1,6.54,1.83s3.67,3.19,5.52,4.76c1.05.89,2.13,1.74,2.3,3.3ZM8.16,19.22l0,0L7,18.51c-.69-.94-.69-.94-1.6-.7l1.62.67ZM18.54,36.67l-.05-.11.08.08,2.26,2.85.34-.16c-.07-.36,0-.88-.23-1.06C20.19,37.67,19.34,37.2,18.54,36.67Zm22.29-4.54c-1.41,1.19-2.83,2.37-4.21,3.61A2.87,2.87,0,0,0,36,36.86c-1.14,3.11-2.25,6.24-3.4,9.35a1.89,1.89,0,0,0,.64,2.42c.3-.55.58-1,.81-1.5q2.52-5.44,5-10.91c.62-1.35,1.17-2.75,1.75-4.12L40.9,32Zm.34-14.5a2.14,2.14,0,0,0-3,.82c-1.78,2.41-3.69,4.72-5.43,7.16A49.17,49.17,0,0,0,30.25,30c1,1.49,1.87,2.87,2.86,4.14a2.51,2.51,0,0,0,3.61.32c1.59-1.39,3.17-2.8,4.7-4.26A5.21,5.21,0,0,0,43,25.59C42.57,22.88,41.79,20.23,41.17,17.63ZM29.31,23.26a4.64,4.64,0,0,0,.3-1c0-3.39,0-6.78,0-10.18a2.87,2.87,0,0,0-.43-1.4C27.28,7.78,25.39,4.91,23.51,2c-.4-.61-.86-1.07-1.7-.81a1.38,1.38,0,0,0-.16.51c.22,3.26.43,6.52.7,9.77a3.66,3.66,0,0,0,.49,1.41q2.64,4.75,5.33,9.47C28.37,22.72,28.83,22.9,29.31,23.26ZM13.73,32l.33-.3c-.36-1.45-.67-2.91-1.09-4.34a3.39,3.39,0,0,0-.86-1.41Q8.38,22.13,4.57,18.4a5.93,5.93,0,0,0-3.14-1.69c-.21,3-.41,5.77-.63,8.7Zm7.18-29.7A7.33,7.33,0,0,0,18.34,7c-.67,6.74-1.46,13.47-2.23,20.21-.13,1.12.46,1.86,1.12,2.88.22-.7.39-1.16.5-1.62l2.49-10.63c.44-1.89,1.2-3.78,1.23-5.68C21.51,8.88,21.11,5.57,20.91,2.26ZM21.56,36a10.1,10.1,0,0,0,.24-1.06c.55-5.81,1.07-11.62,1.67-17.42a5.16,5.16,0,0,0-1.42-3.89C21,18.18,19.91,22.49,19,26.82a13.69,13.69,0,0,0-.15,3.33C18.89,32.4,20.38,34,21.56,36ZM3.39,27.65l-.17.27L17.45,42,20,39.63c-2-2.22-3.81-4.31-5.67-6.39a1.51,1.51,0,0,0-.47-.3Zm24,4.76c.14-2,.14-3.94.46-5.84.5-3-1.05-5.14-2.42-7.42-1.34.73-1.4,1.44-1.56,2.88-.3,2.68-.55,5.38-.81,8.07-.19,2-.35,3.94-.53,5.9l.29.1,2.61-3.69Zm.51,3.07-.45,0a19.48,19.48,0,0,0-.65,3.25c-.1,2.25,0,4.52,0,6.77,0,1.45.67,2.56,1.63,4,.19-2.54.29-4.72.55-6.87A14.54,14.54,0,0,0,27.89,35.48ZM22.45,51.36c2.86.84,3.61.76,5.34-.51-1.26-3.87-1.6-4.15-5-4.15C21.45,48.14,22.23,49.74,22.45,51.36Zm7.11-6.16.4.06c.86-3.07,1.76-6.13,2.58-9.21.35-1.3-.35-2.25-2.05-2.76C30.18,37.3,29.87,41.25,29.56,45.2Zm3.95-9.49-3,10.85c1.05.4,1.21-.22,1.39-.73,1.11-3.06,2.21-6.14,3.3-9.21a1.75,1.75,0,0,0-.07-.63Zm-7.65,3c-1,0-1.65.39-1.83,1.33-.36,1.82-.68,3.65-1.05,5.66l2.88.35ZM29.23,24c-.67.4-.54,1.07-.58,1.65-.12,1.82-.17,3.64-.36,5.45a10.34,10.34,0,0,0,.85,5.17C29.58,34.86,29.66,25.19,29.23,24Zm-6.52,14.2c-.22.16-.38.21-.4.29-.57,2.44-1.17,4.88-1.65,7.34-.09.46.31,1,.56,1.74.71-1.25,2.19-7.38,2-8.3A3.76,3.76,0,0,0,22.71,38.18Zm1.31.1c2.51-.57,2.61-2.66,3.13-5-.73.16-1.37.1-1.61.38a24.44,24.44,0,0,0-1.93,2.77C23.15,37.19,23.44,37.77,24,38.28ZM20.1,36.49l.28-.29c-.44-.89-.86-1.79-1.32-2.66-1-1.83-1.53-1.91-3.38-.43ZM13.63,23.94,8.48,20.67A26.74,26.74,0,0,0,13,25.49ZM30.21,47.62c-.27.94-.52,1.84-.89,3.12l3.08-1.12C32,48.49,31.71,47.65,30.21,47.62ZM14,27.7,15,32.12l1.58-.8C15.93,29.22,15.55,28.67,14,27.7Zm28.88,3.06a28.71,28.71,0,0,0-3.52,7.4C42.34,33.54,43.19,31.74,42.85,30.76ZM20.5,43.08l-.11-2.76-2,2.09Zm10-21v5.46C31.7,25.44,30.78,23.77,30.53,22.09ZM14.26,26.67l.31-.13-.34-.95-.37.15Zm10-8.2.26.09.24-.61-.3-.11Zm19.09,11.1,0-.15-.18,0c0,.05,0,.1.05.14S43.28,29.58,43.31,29.57Z"/></g></g></svg>