<svg xmlns="http://www.w3.org/2000/svg" viewBox="0 0 97.84 105.75"><defs><style>.cls-1{fill:#c894ff;}.cls-2{fill:#854bb7;}.cls-3{fill:#491d66;}.cls-4{fill:#ffdeaa;}.cls-5{opacity:0.5;}.cls-6{opacity:0.25;}</style></defs><g id="Layer_2" data-name="Layer 2"><g id="geode-medium-2"><path id="fill4" class="cls-1" d="M97.63,2.93c-1-.93-2.38-.6-3.42-1.29-.36-.35.06-1.37-.71-1.31-1.43-.22-3,.39-4.35,0-.94-.74-2,.24-3.06,0-2.28,1.27-4.57.87-7,.69-1.11.2-2.31.07-3.3.71-.48,0-.33,1-.9.92-.71.15-2-.46-2.24.47,0,.09,0,.18-.12.06-.4-.69-1.1-.73-1.81-.73-1.57-.17-3,2.42-4.45.93-.29-.39-1.15,0-1.39.27-.28.51-.81.25-1.24.12-.62-.32-1.22.13-1.84-.11s-1,.44-1.25.88c-.51.23-2,0-2.53.44-.84.7-1-1.43-2.09-1.22-1.92-.37-1.7,3.16-4,2-.94-.4-1.94.32-2.78.21-.43-.25-1,.09-1.31.43-1.33,1-3.53,1.14-5.16,1.36-1.29-.42-2.24-1.2-3.47-.39-1.47.37-3,.3-4.29,1.11-1.19.18-.78,1.59-1.45,2-.41,0-.66.33-1,.46-1,.77-2.15-.3-3.3-.16-.69.25-1.57-.38-2.07.4-.61,1.4-2.59,1.35-3.54.35-2-.63-3.89,1.49-5.43,2.58-1.49-.41-3.08.43-4.69.62-.51.05-.51,0-.65.52s-.54.85-.62,1.36c-.9.54-2.5,0-3.61.45-1.45,1.6,2.57,3.14,2.74,4.87a1,1,0,0,0,.59.75c.42.47,0,1.52-.25,2.06-.76.78,0,1.76.42,2.5-.29,1.33-2.45,2.88-.71,4,.27.34.87,1,.44,1.42-1.86,1.91.21,3.45.5,5.46,0,.54-.82.57-.91,1.17s-.76.19-.91.64c-.29.6-.46,1.76-1.19,1.88-.55-.07-.72.44-.9.83-.3,2,1.29,2.55-.67,4.51-.72.46-1.15,2.1-.3,2.64.32.21.82.48.73,1C6,53.07,4.82,54.32,8,56.4c-.71.29-1.63-.64-2.21.29-1.06,1.44-3.87,2.91-2.38,4.92-.16,1.22-2.11.85-1.89,2.62-.68,1.85.7,3.31.73,5,0,2.49-.52,5.69,1.6,7.5a32.6,32.6,0,0,0-1.79,5,12,12,0,0,0-.42,4c-.09,1.13,1.77,2.46.66,3.41-1.18,1.3.56,3,.15,4.56C1,95,1,97.21.07,99a4.24,4.24,0,0,0,1.73,3.9c.44.23,1.06.17,1.18.78.31,1.13,2,1.58,3,1.64,1.25,1,3.9.15,4.14-1.49,0-.19,0-.5.31-.38,1.29-.15,3.07.6,4.1-.45.25-.22.59-1,1-.78,1.9.56,3.83.42,4.58-1.7-.27-2.38,3.33-2.59,3.33-4.91-.34-1.08,1.14-1.81.37-2.9.56-.26,1.26.5,1.9.29,1.16-.42,2.77-.26,3.49-1.39,0-.7.75-1.69.18-2.29-.53-.45,0-1.25-.73-1.58-.22-.06-.86-.75-.4-.78.76.07,1-.93,1.73-1,.08,0,.21-.13.21-.18-.12-.6.56-.66.91-.92s.4-.17.52.09c.21.56.82.49,1.26.75,2.4,1.14-1.34-5.56,1.2-5.06.54.58,1.82,0,1.8,1.18.24.61.71,1.07,1.35.54.61-.75,2-1.32,2.25-2.13-.15-.28.06-.39.15-.58.29-1.15,1.34-1.82,1.52-3,.68-1-.87-1.59-.82-2.6,0-.62.84-1.21.74-1.86-.38-.56,0-1.13-.09-1.7s.39,0,.4-.25c.24-.7,1.62-.12,2-.85a7.38,7.38,0,0,1,3-3.4,13.53,13.53,0,0,1,4.33-4.45c2-2.58-1.74-2.41.69-4.2.58,0,.5-.87,1.17-.62.88,0,1.32-1.41,1.41-2.14-.06-.89,1-1.48.54-2.42-.24-.46.06-.76.36-1.12.52-1,1,.77,1.57.25.41-.51,1.15.13,1.43-.35.11-.5.68-.6.91-.91.46-1.58.85-3,2.23-4.05.87-.64-.11-1.67.45-2.47.1-.47-.41-.88-.44-1.37-.34-1.37,3.23.09,3.34-1.67a1.92,1.92,0,0,1,.79-1.75c.46-.82.53-1.85.94-2.79.37-1.28,1.64.83,2.29.38.56-1,1.73-1.31,2.48-2,0-3-1.07-4.66,2.93-5.35,2.44.4,1.9-1,2.38-2.49.5-.56,1.34-1.18,1.19-2a1.35,1.35,0,0,1,.4-1.58c.32-.24.27-.56.23-1.14a13.15,13.15,0,0,0-.37-2.52c1-.18,2.74-.3,2.49-1.71.33-1.09,2.29-.39,2.68-1.53.24-.87,2.84-.13,2.63-1.25.09-1.06-1.92-1-1.33-1.8a3.13,3.13,0,0,1,1.43-.56c1-.25,1.62-1.46,2.66-.89.82.25,1.34-1,2.26-.9.67-.38,1-1.24,1.91-1.2s2.45-.88,1.51-1.88c.52-.13,1.06.3,1.52-.12s1.09-1,.72-1.7C97,5.07,98.38,4.22,97.63,2.93Z"/><path id="fill3" class="cls-2" d="M73.33,12c.12.5-.73,1.55-1.08,2.15-.39.88-.68,1.93-1.61,2.36a3.35,3.35,0,0,1-2.43.71c-2.24-1.58,1-2.53,2.05-3.73.26-.21.25-.26.28-.65.26-.62,1.19-.89,1.77-1.1C72.55,11.24,73.4,11.4,73.33,12ZM70.48,8.7h0c-.94-.07-2.65,1.57-.66,1.3,1-.07,2.09-.48,3.1-.62.31.07,1-.11,1-.39C73.29,8.14,71.46,8.35,70.48,8.7ZM67.9,10.27c-.2,1.05,1,.86,1.62,1.32,1,.84,1.83-.47,2.9-.48.14,0,.34-.08.43,0,.47.34.65-.79,1-1-.43-1.38-4.44,1.08-5.4-.06C68.26,9.82,68,10.1,67.9,10.27ZM23.09,28.2c-.3.29-.26,1-.94,1.16-1.09.37-1,.89-.7,1.89.27,1.37,1.48.26,2.32.36.9-.16-.09-1.26.35-1.81a.35.35,0,0,1,.19-.48c.39-.14,0-.22,0-.22C23.73,29.12,23.56,28.35,23.09,28.2Zm.4-1.41c-.39.22-.16.91.23,1.2s.74.92,1.18.82c.18-.41.52-.45.89-.42a20.21,20.21,0,0,0,2-2.11c-1,.55-2.58-1.44-3.42,0A1,1,0,0,1,23.49,26.79Zm.85-2.54c.05.13.15.24.23.45,1.39,1.08,1.17.46.81-.76C25.18,23.54,24,23.64,24.34,24.25Zm2.45-1.34c-.43,1-1.42,1-.5,2.23.13.41.11.43.52.41s.42.44.74.52a9.93,9.93,0,0,1,.07-1.8c-.08-.09,0-.36,0-.52.35-.6-.52-.65-.79-1.09A2.3,2.3,0,0,1,26.79,22.91Zm-6.86,17.5c-.49,0-.21.67-.42,1a26.31,26.31,0,0,1-1.31,2.39c.43,0,1,0,1.18-.52.1-.21.29-.29.44-.15s.4.16.67,0c1.46.29,2.25.37,3.11-1,1-1-1.12-2.14-1.78-2.65C22.24,40.27,20.59,40.44,19.93,40.41Zm3.18-8.15c-.61.43-1.7,0-1.83.89-.79,1.46.4,2.76.61,4.21.21.49.85,1.28.16,1.72,1.59,1.52,1.66.49,2.91-.73.37-1-.05-2.26-.06-3.33C24.49,34,24.89,31.72,23.11,32.26ZM16,70.66c1.15-.17,1.29-1.43,2.17-2,.36-.24-.68-.41-.29-.91,0,0-.12-.21-.21-.29-.73-.88-1.55.21-2.45.27-.72.19-1.62-.91-2.26-.35-.58.82-.68,2.09-1.86,2.27-.93.15-1.07,2.15,0,2.33a2.86,2.86,0,0,1,2.12,2.86c0,.95.9,1.15,1.5,1.71,1.31.27,2.16-2.34,3.66-2.6.59-.5-.45-1.41-.73-1.91C17.28,71.37,16.33,71.26,16,70.66ZM13.22,88.87c-.45.31-.08.7-.17,1.11-.15.22,0,.34.13.47,1.44,2.15,3-4.15,1-3.17C13.74,87.88,12.86,88,13.22,88.87Zm-.57-1.25a2.69,2.69,0,0,0,1.75-2c.47-2.15-3.69-.1-4.23,1C11.1,86.59,11.77,87.48,12.65,87.62Zm-4-9.31c.31,1,1.37,1.49,1.69,2.46,0,.59.51,1.32-.05,1.73-1,.51-1.28,3-.15,3.29a8.73,8.73,0,0,1,4-1.64c.68.15.7-1.18,1-1.68.4-.81-.56-.88-1.07-1.19-.25-.59,1.13-1.28,1.27-2.06.83-.79-1.68-3.83-1.8-2.28C12.64,78.25,10.07,77.72,8.64,78.31Zm8.72,3.87c-2.13-.6-2.19,2.13-2.28,3.59-.36.63.29,1.61.85,1.81a29.19,29.19,0,0,0,4.78-2c-.88-1-1.91-1.9-1.88-3.36C18.69,81.76,17.76,82.53,17.36,82.18Zm.73-3.68c-.3-.08-.57.17-.8.35-.44.62-1.39,0-1.64.82-.7,1.3-1,1.27,0,2.42a1.39,1.39,0,0,1,1.61-.5c.56.14,2,.1,2.17-.57a1.77,1.77,0,0,1,.86-1.24c.17-.08.16-.21,0-.29C19.49,79.09,19,78.43,18.09,78.5Zm17-13.74c-.65.35-1,.43,0,.58,1,.39,1.24-1,2-1.39,0-.49.07-1.5-.58-1.73C36,63,34.18,64.17,35.07,64.76Zm3.15-6.14c-.35.58-1.45,1.06-1.14,1.82,0,.49-.42.87,0,1.36a4.6,4.6,0,0,1,.46,1.68c.9.51,2.12-1.58,2.6-2.33.37-1.28,2.61-1.25,2.26-2.73C41.49,56.81,39.45,58,38.22,58.62Zm2.42-3.34a2.06,2.06,0,0,1-1.72.27c-.69-.14-.21.31-.41.65A1.79,1.79,0,0,0,37.89,58c.73.12,1.32-.52,2-.73.78-.51,2.16.53,1.84-1-.34-.4.16-.62.37-.88s.37-.31,0-.53C41.73,52.77,40.9,54,40.64,55.28Zm-2.33-2c.15.56-.13,1.44.3,1.81.68.07,1.54-.1,1.74-.85a7.25,7.25,0,0,1-.46-2.66C39.2,52,38.23,52.41,38.31,53.33Zm4.34-.56a1.84,1.84,0,0,0,0,1.57,5,5,0,0,1,2.85-1.74c.4-.18.69.06.84-.44.33-.42.34-1.34.91-1.58-1.17-1.39-2.91.66-4.3.76A2,2,0,0,1,42.65,52.77Zm-.51-2.91c-.53-.57-1,.83-1.51,1.1-.18.7-.37,1.75.15,2.26.35-.19.87-.12,1.16-.31-.08-.52.6-.9.39-1.43S42.72,50.27,42.14,49.86Zm8-3.09c-.6.26-1.21-1.08-1.57-.19-.42.68-3.12.92-2.52,2.16h0c.18.22.37.45.57.66.45.35,1,1.2,1.43.38a4.06,4.06,0,0,1,2.77-1.53s.2-.1.11-.3C50.66,47.48,50.91,46.56,50.09,46.77Zm-4.31-.15a2.49,2.49,0,0,0-.2.32c-.28,1.13,1.23-.09,1.76-.14S48,46,48.59,46C47.67,45.41,46.7,46.32,45.78,46.62Zm-.65,1.07c-.35,1-1.7.85-2.54,1.2-.49.4.53,1.24.58,1.81.67-.34,2.7-.67,2.61-1.47C45.44,48.74,45.63,48.1,45.13,47.69Zm1.54-5.77c-.69.17-1.84-.93-1.94.21C45.45,43.05,46.66,42.93,46.67,41.92Zm.53-.05c.32,1.06-1.23,1.37-1.32,1.92,0,3,.27,1.66,2.44,1.2a22.06,22.06,0,0,0,1.17-3.4C49.34,40.16,46.67,40,47.2,41.87Zm-.92-3.44c.42.73,1.38-.89,2.09-1.07.37-.22-.27-1.86-.83-1.27C47.57,37.1,46.22,37.33,46.28,38.43Zm19.85-26c.17,1.22-2,2.12-2.17,3.27.4-.29.83.12,1.35-.11,2.1-.14,3.22-1.34,4.67-2.66.44-.83-1.47-1-2.07-1.31A11.25,11.25,0,0,0,66.13,12.43Zm-.92,3.73c-1.95.55-2.89-2.38-4.54-1.1-.83.52.31,1.5,0,2.22-.13.4-.3,1,.29,1.11a4,4,0,0,1,2,1.18c1.24-.46,2.63-.62,3.81-1,1.08-.77.81-1.22.24-2.25C66.56,15.39,65.9,16.24,65.21,16.16Zm-3.7-2.1c.87-.24,1.66,1.5,2.06.9a11.61,11.61,0,0,0,2.12-2.5c.08-.48-1.32-1-1.83-1.24C63.27,11.51,61,13.49,61.51,14.06Zm2.23,11.1a9.15,9.15,0,0,0,.86-1.11,1,1,0,0,1,.85-.51c1.19-1-1.22-2.87-2.35-2.93C59.52,24.23,62.68,20.39,63.74,25.16ZM61,22.87c-.85-.44-2.37.61-3.32.78-.11,1.72,3.17,1.8,4.38,2.44.71.51.74.08,1.1-.52.13-.57-.49-1.09-.45-1.69C62.59,23.11,61.63,23.15,61,22.87Zm-4-3.06c-1.87,1.1-2.48,2.34-.1,3.33,1.3,0,2.45-.78,3.73-1.07.47-.44,1.12-.47,1.52-1,1.3-1-.8-2.13-1.73-2.32C59,18,58.55,20.07,57,19.81Zm2-7.21c.2.7-.55,1.38.09,2s.56,1,1.08.12c.11-.18.48-.26.24-.59a2.92,2.92,0,0,0,.69-.9c.2-1,1.87-1.54,2-2.38C61.69,10.77,58.81,10.47,59,12.6Zm.52,17c-.37.4-1,0-1.41.48-1,.58.09,1.71-.59,2.33-.87.7-2.12.84-1.15,2.23a3.55,3.55,0,0,1,.48,1.47c0-2.42,6.38-2.5,5.05-4.77C61.42,30.63,60.59,29.18,59.54,29.62Zm-.27-2.06c0,1.11,1.33,1.5,1.86,2.34a25.35,25.35,0,0,1,1.16-2.82C61.43,26,59.16,25.73,59.27,27.56ZM58.05,15.37c-.57.1-.22.72-.37,1.06a3.73,3.73,0,0,1-2.14,1.27c-.72.58-1.3,1.44-2.33,1.61a2.2,2.2,0,0,0,3.32.32c.76-.63,1.71-.43,2.22-1.41a.8.8,0,0,1,.87,0,1.79,1.79,0,0,0-.48-2.82C58.83,15,58.46,15.33,58.05,15.37ZM56.63,13.2c-.88.49-1.24,1.54-2.1,2.17-.23.33.69.62.95.55.48-.1,1.06-.74,1.58-.59.35-.39,1.69-.16,1.58-.7-.4-.59.08-1.27,0-1.87-.25-.38.12-.66.08-1A8.42,8.42,0,0,1,56.63,13.2Zm1.73,12.18c-.7-.11-1.21.7-1.77,1a7.4,7.4,0,0,1-3.2.54c-.67-.24-1.07.81-1,1.32s.86.91.75,1.49c-.09.73-.72,1.5-.15,2.15.33.81,4.61.86,4.18-.47-.49-.91.44-1.61,1.08-2.16a8.8,8.8,0,0,0,1.15-.13c-.75-1.06-1.1-2.53.11-3.31A5.47,5.47,0,0,1,58.36,25.38ZM46,21.09c0,.42,1.06.28,1.38.62,1,.36,1.47-.32,2.1-.77a1.07,1.07,0,0,0,.83-.71A2.43,2.43,0,0,1,52.61,19,3.55,3.55,0,0,0,54,18.19a.59.59,0,0,0,.42-.25.06.06,0,0,0,0,0c.64-.9,1.8-.93,2.65-1.64.64-1.71-2.55,1.09-3.37.76C51,18.23,46.89,17.72,46,21.09Zm9.95,3.13c-.68.56-1.73-.4-2.08.59-1.08,2.33-1.35.88-3.21.66-1.16-.3-3.06.17-3.14,1.55.33.28.93.22,1.27.66.51.61,1.31.12,2,.39,1.33.44,1-1,1.54-1.54,1.84-.29,4.53.06,5.27-1.92-.19-.22-.53-.36-.54-.73C56.69,23.87,56.32,24.17,55.94,24.22ZM52.26,14c.25-.22.58-.23.68,0,1.22,2.12,1.47.34,2.76-.67a1,1,0,0,1,.18-.1C55.63,12.85,52,13.5,52.26,14ZM55.5,33.29c-.14-.51-1.37-.43-1.92-.37-.4.12-.56.2-.41.52.44,1.24-1,1.91-1.34,3-1.25,1.79,1.16,2,.72,3.43-.33.53,0,.8-.2,1.42.67-.91,2.07-1,2.42-2.08a4.25,4.25,0,0,1,.94-1.87c.24-.4.73-.47.94-.85C56.23,35.33,55.42,34.47,55.5,33.29Zm-.83-11.72c-.24-.33,0-.5.2-.67a3.18,3.18,0,0,1-2-1.39c-.3.22-.8,0-1.12.13-.43.32-1.81,1.22-1.25,1.7,1.83.84,3.28,3.24,5.63,2.18A10.44,10.44,0,0,1,54.67,21.57ZM53,15.07c-.13-.4-.36-.72-.91-.52-.48-.33-.76.44-1.1.66-.75.77-1.85-.38-2.65-.05-.11.16,0,.4.11.55.39.54-.48,2.39.64,2.11.34,0,1.29-.56,1.25,0,.26-.16.29-.43.7-.51.61.27,1.31-.19,1.83-.5.71-.14,1.42-.35,2.15-.46C54.31,16.05,53.42,16,53,15.07Zm-3.76,9.37c-1.37-.82,1.94-.72,2.49-1,.78-.62-1.7-2.23-2.43-1.61-.24.32-.92.43-.61.86,0,3.48,1,1.61,3.48,2.67.67.4.93-.82,1.16-1.27-.27-1.1-1.83.2-2.6.07C50.31,24.42,49.77,24.29,49.28,24.44Zm3.22,5c-.53-.9-1.85-1-2.77-.83-.63.43-.4,1.29-.91,1.77-.67.51.28,1.26.17,1.93.14,1.45,1.91,1.33,2.87,2,1.21.37.57-1.39.76-2C51.93,31.39,52.2,30.37,52.5,29.4ZM49.25,40.5c1.67,1-.58,3.59-.32,5.07,1.31,1.19,1.6.79,1.71-.86a.93.93,0,0,1,.41-.83c.93-.53.27-1.7,1-2.33a1.46,1.46,0,0,1-.15-1.75c.29-.75-.53-1.3-1.08-1.61C49.34,38.11,49.46,39.47,49.25,40.5Zm-.31-6.74c-.22.62-1.26,1.36-.48,1.9.24,1.09.72,2,2,1.63.83-.16.85-1.75,1.48-2.39C50.92,34.79,49.85,33.64,48.94,33.76Zm-.37-5.67c-.35-.8-1.15-.08-1.66-.3-.56.15-1.45.24-1.67,1,0,.8-1.46.21-1.06,1,.59,1.19-.73,2.27-1.5,3-.58.71-.1,1.79-.41,2.59.54.17,1.43,1,1.91.4,1.23-1.33,3.23-1.7,4.4-3a1.64,1.64,0,0,0-.35-1.5c-.25-.23-.62-.55-.15-.81.72-.39.32-1.25,1-1.71,0,0-.06-.06-.09-.07A.5.5,0,0,0,48.57,28.09ZM47.16,40.2c.6-.29,1.21-.51,1.68,0a.86.86,0,0,0,0-.21c-.5-.76.6-1.52.11-2.19A1.94,1.94,0,0,0,47.16,40.2ZM46,21.72c-1-.4-1.69.77-1.37,1.62.26,1.13,2.44.85,3.22,1.76,1.07.7.25-2.32.47-2.86C47.56,22.49,46.8,21.93,46,21.72Zm0-7.27c-.78-.21-.87,1-1.63,1.18a.83.83,0,0,0-.7,1.14c-.22,1.12-.5,2,.21,3.05.39,1.05,1.13-.07,1.6.53.3.2.49-.82.52-1.12.41-.52,1.23-.75,1.79-1.13s.18-.76.23-1.2c.28-.63-.26-1.2-.11-1.89C47.75,14.12,46.64,14.8,46,14.45ZM41.76,26.34c.22.48,0,1.22.62,1.35s1.14.88,1.76,1.1c.8.1.72-.88,1.32-1.11.43-.43,1.42-.38,1.47-1,.41-.25.6-.82,1.07-1.08-1-.37-1.7.73-2.49.83C44.39,26.4,42.58,26,41.76,26.34Zm2.52,10c-.34,0-.52.77-.5,1.14.55.23,1.32-.39,1.94-.06.6-.21.85-1.2,1.44-1.48s.3-1.42.92-1.9C46.62,34.24,45.54,35.77,44.28,36.37Zm0-12.15c-.21-.45-.56-.31-.91-.28-.67.44-1.41.33-2,.91-1,1.09,3.2.76,3.79.9s.77-.61,1.35-.5c0,0,.09-.05.14-.08A8.78,8.78,0,0,0,44.3,24.22Zm0,13.93s.09.11.14.13c.92.54.53,1.83,1.12,2.73,1.14,1.09,1-.27,1-1.08.21-.45-.29-.36-.42-.6C45.67,38,45.82,37.72,44.27,38.15ZM42.35,21.57c.66.07.81.82,1.3,1.05.5-.33,1-1.13,1.67-1.6,0,0,.1,0,.14-.06C44.68,20.8,42.43,20.23,42.35,21.57ZM42,44.63c-.22.13.32.69.46.44.69-.42,1.35.94,2,1.18,1.42.82,1-3.16.2-3.43C43.38,41.78,42.42,43.79,42,44.63Zm2.8-3.52c.22-.64-.59-3.74-1.57-2C42.61,40,44.05,41.23,44.81,41.11Zm-3-.12c-1.09-.1-1.4,2.29-2.57,1.86-.45.2.2.37.43.28.76-.18,1.18.48,1.82.69.68-.34.83-1.53,1.71-1.5.49.1.13-.61.57-.51.15,0,.17,0,.06-.14C43,40.21,43,41,41.85,41Zm1,4.84c-.41.4-.71-.15-1.05-.27-.28.86.79,1.58.64,2.47,0,.09-.15.17.05.14,2.27-.05,2.48-1.11.64-2.37A.31.31,0,0,0,42.85,45.83Zm-.27-23.49c-1.1-.29-3.31,1-1.62,1.88,1-.38,2.15-.56,3.1-1-.26-.17-.56-.1-.9-.23S42.81,22.48,42.58,22.34ZM40.12,36.45s-.28-.07-.13.12c.65.87,2,1.28,2.46,2.32.19.21.51-.55.75-.7.43-.43-.34-1.06.28-1.48C43,35.66,41.07,36,40.12,36.45Zm.18-6.52c.6.46-.14,1.48.74,1.78.44.27.69,1.12,1.36.51,2.33-1.26,1-5.27-1.51-3.83C40.48,28.73,39.75,29.36,40.3,29.93Zm-.92-11.07c0,1.55-2.51,1.2-3.49,1.94-.23.12-.23.22,0,.32.27.63,1.07,0,1.61,0,1.27-.21,2.37-.61,3.67-.89a.65.65,0,0,1,.71.12c.49.13,1.09-.2,1.61-.2C42.47,16.65,42,18.53,39.38,18.86Zm.95,20.29c.74.17,1,1.22,1.68,1.25,1.38-.14-.64-2.31-1.27-2.26C40.64,38.47,39.83,38.94,40.33,39.15Zm1.16-17.32c.42-.21.46-.39.2-.91C34.87,21.05,34.56,25.15,41.49,21.83ZM39,32.94a2.34,2.34,0,0,0-1.26,1c.08.9.41,1.94,1.4,2.08.63.35,1.1-.53,1.77-.41.36.07.62-.25.76-.54.27-.89.56-2.24-.58-2.54C40.45,32,39.48,32.46,39,32.94Zm2.31,11.3c-.74-.25-1.17.84-1.58,1.14a1.7,1.7,0,0,1,.14,1.38c-.15.76,1.15,1,1.62,1.38.3.22.34-.25.49-.52A4.35,4.35,0,0,1,41.27,44.24ZM36.13,25c-.27.5-1.22.68-1.26,1.22.62.16,1,.87,1.59,1a1.31,1.31,0,0,1,1.27.42,1.9,1.9,0,0,0,2.31.84c.47-.52,1.79-.92,1.29-1.76C40.59,24.09,38,25.58,36.13,25Zm2,24.82a7.87,7.87,0,0,1,2.29-.48c2.35-.19.21-.75-.56-1.5C39,47.38,38.84,49.33,38.16,49.77Zm1.89.92a2.88,2.88,0,0,1,.87-.76c-1.29-.22-2.55.45-3.82.21C38.1,51.17,38.77,52,40.05,50.69Zm-.54-21.45c.12-.38-1.52-.58-1.5,0a4.81,4.81,0,0,1-.91,2.91c-.29.36-.26.38.16.65.73.65,1.57-.76,2.37-.89.65-.13.52-1.42.1-1.78A.57.57,0,0,1,39.51,29.24Zm-.33-5.7c-.38-.31-.76-.09-1.09,0-2.6.33-3.27.55-.14,1.08a5,5,0,0,1,3.07.24c-.37-.31-1.17-.59-1.2-1.24S39.42,23.42,39.18,23.54Zm2,17.21c-1-2.46-3.48-1.16-2.31,1.2C39.36,43.17,40.53,41.18,41.13,40.75Zm-4.84-4.18c-.61.35-.53,1.61-1.25,2.13.81,1.1,1.43,1.67,2.77,1.55.8-.06.34-1.1.95-1.25.28,0,.46,0,.5-.39.3-.18.89-.14,1-.63-.11-1-1.25-1.52-2.24-1.72C37.38,35.85,37,36.65,36.29,36.57Zm2,10.18c.29.2.62.33.93.51.13-.26.35-1.58-.07-1.45C38.87,46.09,37.79,46.34,38.25,46.75Zm0-1.08a13.58,13.58,0,0,0,2.09-2c-.55,0-1.12-.26-1.64-.29C37.52,43.93,35.69,46.8,38.24,45.67ZM34.37,19.86c.16.3.39.53.3.93,0,.14.08.17.19.09,1.16-1.06,2.58-1.08,4-1.58.37-.27-1.84-.19-2.08,0C35.92,18.91,35.2,20.14,34.37,19.86Zm2,26.26c-.21-.13-.23,0-.22.13-.06,1.22-2.08,3.25-.17,3.92.1,0,.33-.06.32-.1.11-.75,1.08-.37,1.54-.26A4.07,4.07,0,0,1,38.52,48c.13-.28.09-.35-.16-.55C37.67,47,37.28,46.24,36.41,46.12ZM36,41.44c-1.07,1.15-3,1.26-3.15,3.26a1.42,1.42,0,0,1,1.07.06c.76.1,1.55,1,2.19.34.79-.89,2.9-1.74,2.22-3.18C38.42,40.71,36.45,40.36,36,41.44Zm-.52-14.32c-1-.75-1.58-.8-2.38.18-.51.8-2,.32-2,1.33-.09.57.63.55.92.87.78.29,1.06,1.15,1.54,1.7,3.67.71,3.5,1.19,4.2-2.5.4-.45-.62-1.13-1.15-1S35.88,27.51,35.46,27.12Zm1.61,30.37a2.5,2.5,0,0,0,.6-1.62c.57-2.74-.41-1.79-1,.12A1.27,1.27,0,0,0,37.07,57.49Zm-.25-6.66c.3.87-.31,1.45-.63,2.22.44.17.84,1,1.3.53s.09-1.12.62-1.72A1.77,1.77,0,0,0,36.82,50.83Zm.06-17.54c-.43.11-.55-.32-.59-.65-.33-.83-2.35-1-3.16-.82-1,2.45-1.5,4.06,1.85,3.29,1.35.71.91,1.17,2.52.44.29-.64-.73-1.31-.41-2C37.15,33.23,37.15,33.22,36.88,33.29Zm-.75,24.3a11.86,11.86,0,0,0-2.75.29c-1.4,3.1.21,3.63,2.71,1.76.65,0,1-.6,1.32-1s-.61-.49-.68-.79A.42.42,0,0,0,36.13,57.59Zm-2.47,5c-.11,2.89,1.48-.07,2.28-.79.59-.33.19-.86.4-1.24a.17.17,0,0,0-.11-.29C35.18,61.05,33.31,61,33.66,62.63Zm1.84-9.27c-.76.73-2.28.68-2.36,1.78-1,0,0,2,.43,2.12.73-.08,1.39-.47,2.15-.21.35.12.43,0,.31-.38-.33-.91,1.21-2.3.16-2.94C36,53.56,35.83,53.09,35.5,53.36ZM35.17,50a1.54,1.54,0,0,0-1.28.13c-.26.29-.65.86-.43,1.24s-.43,1-.54,1.47c-.85,2.28,1.57.61,2.51.1.16-.09.38-.23.35-.5,0-.65.78-.86.46-1.61C35.87,50.53,35.28,50.59,35.17,50Zm.2-28.92H35.3c0,.4-1.13,1-.49,1.26s.35,1.66,1.06.93a1.41,1.41,0,0,0-.25-1.5C35.14,21.75,35.32,21.33,35.37,21.05Zm-.7,19c-2.41,1.76,0,2.67,1.08.56.17-.5-.7-.86-.88-1.44A2,2,0,0,1,34.67,40.05Zm.2-16.42c-.32.31-1.08,0-1.42-.19-1.46.23-3.78.79-1.7,2.3.67-.47,1.35-.06,1.84.53.23-.25.1-.62.51-.59.51-.15,2.19-.82,1.2-1.32C34.91,24.26,34.84,24,34.87,23.63Zm-.8,22.05c-.49,1.39-.49,1.26.58,2.29a1.63,1.63,0,0,0,.63-2.12C35,45.77,34.06,45,34.07,45.68ZM33,36.1c.38.47-.54.65-.41,1.08a1.6,1.6,0,0,1,.08,1.5c-.12.74.77,1.17.61,2,.39-.75,1.29-1.15,1-2.07.62-.66,1.78-2,.94-2.88C34.77,35.38,33.15,35.63,33,36.1ZM32.12,65c-.55.37-1.38,0-2,.55-.69.28.09,1.21-.08,1.77.18.71-.53,2.65.65,2.57A4.73,4.73,0,0,0,33,70.4c1,.07,1.18-1.4,1.84-1.94,0-1.13.72-2.71-.49-2.87C33.67,65.27,33,64.27,32.12,65Zm1.2-43.46A3.55,3.55,0,0,1,30.84,21c-.92-.63-1.45.8-1.79,1.44-.47.45.62,1.11,1,1.19.35-.14.6.32.81,0s1-.09,1.39-.3a3,3,0,0,1,2.61-.06,1,1,0,0,0-.5-.6C34,22.39,34,21.52,33.32,21.53Zm-2.17-1.05c.67,1,2,.12,2.72.8.53.22.23-.77.3-1.08C34,18.86,31.63,19.71,31.15,20.48ZM32.28,49a1.58,1.58,0,0,0,.54,1.66c.31.14.22-1,.65-1,2.21-.34.67-1.35-.15-2.32C32.84,47.73,32.16,48.24,32.28,49Zm.79,12.57c-.07-.55-.84-.61-.82-1.27S29,61.41,28.8,61.74c.14,1.06-.64,2.95.74,3.36a12.34,12.34,0,0,1,2.34-.63,1.2,1.2,0,0,1,1.71,0,.69.69,0,0,0,.07-.24C32.71,63.42,33.08,62.58,33.07,61.52ZM30.58,46.67c-1.65,2.39.08,6.06,1.18,1.51.15-.8,3.29-3.29.87-2.93C31.69,45.7,31,45.38,30.58,46.67Zm1.25-6.12c0,1.62-2.07,1.9-2.2,3.32a3.54,3.54,0,0,1,1.25,1.27c.45-.31,1.13,0,1.38-.65.06-.79.94-1.37.92-2.08C32.64,41.86,32.89,38.26,31.83,40.55Zm1.53-14.08a1.23,1.23,0,0,0-1.61,0C29.18,28.07,32.68,27.64,33.36,26.47Zm-2.51,3c-.17.06-.33,1-.3,1.23.25.84-.74,1.11-1,1.75-.21.34-.53-.14-.83-.16-.1,1-1.92,2.26-1.25,3.1,2,1.13,2.3,1.25,4.27,0,.65-.6-.11-1.68.45-2.39-.18-.88.82-1.55.42-2.38C32.32,30,31.44,29.79,30.85,29.51Zm1.36,23.61c-.38-1.18-1.8,1.5-2.7.82-.09,0-.21,0-.32,0,0,1,.62,2,1.48,1,.68-.14,1.41.5,1.84-.33.17-.11.13-.18,0-.28C32.12,54.09,32.17,53.56,32.21,53.12ZM29.92,37c-.48.24-.17.39-.09.8.23.42-.64,1.07-.07,1.22.92.15,1.81,1.16,2.39,0,.42-.8-.33-1.74,0-2.38.26-.22.54-.54.39-.9C31.74,36.25,30.68,36.3,29.92,37Zm1.64,15c1.26.84,1.57-.95.61-1.51C31,50.05,30.59,51.27,31.56,52.08Zm.05,6.32c1.6,2.14,1.59-3.49-.35-2.95C29.85,55.85,30.23,58.13,31.61,58.4ZM29.3,71.16c-.63.1-1.17.65-1.87.41s-1.08,1.12-2,1.24c-.87.44-1.19,1.45-1.87,2.12,0,1,1.13.8,1.76,1.08a2.74,2.74,0,0,1,2.89-.49c.59.2,1-.91,1.7-.58.25,0,.27-.14.33-.27a7.64,7.64,0,0,1,.92-2.56A1.41,1.41,0,0,0,32.2,70.7c-.62.51-1-.33-1.54-.16C30.25,70.91,29.54,70.54,29.3,71.16Zm.47-13.39c-.65,0-1.05.75-.55,1.15s.74,1,1.12,1.31c.3-.43,1.65-.43,1.42-1A7.5,7.5,0,0,0,29.77,57.77Zm-1-17.89C27.64,39.7,27,41.07,26.91,42c.16,1.22,1.38,1.61,1.9,2.62a11.81,11.81,0,0,0,.41-1.68c.41-.86,1.69-1,1.92-2.09.51-1-1-.91-1.59-1.24S29.23,39.89,28.76,39.88Zm1.3,11a.94.94,0,0,0-.12.3c-.23.73-1.31.82-1.92,1.26.81.24.94,1.07,1.81,1,.38-.21,1.64-.72,1.27-1.21S30.61,51.17,30.06,50.92ZM27.94,25.28c-.13,1.15,1.11,1.31,1.93,1.6.51.32.71-.55,1.12-.68.36-.67-.88-1.67-1.45-2.09C28.26,22.73,28.08,24,27.94,25.28Zm.31,1.57c-.77-.15-2.77,2.34-.66,1.81.45-.07.79.21,1.27.05s.93-1,1.42-.81c.07.1.39.55.31.09C30.11,27.34,29,27.26,28.25,26.85Zm1.84,3.78a2.31,2.31,0,0,1,.38-1.93,2,2,0,0,0-1.86,1.35C28.22,32.1,29.28,32.7,30.09,30.63Zm-.57,17c.43-.72,1.48-3,.11-3C28.73,46,27,47,29.52,47.62ZM26.39,59a2.28,2.28,0,0,0-.27,0c0,1.12,2.57,2.06,3.44,1.59.12-.68-.66-1.23-1-1.8C27.92,58.49,27.12,59.36,26.39,59Zm1.8,5.63c-.41.1-1.29,0-1.3.61s-.5,1-.2,1.6c.7,1.12-.71,4.66,1.43,4.23.48-.44,1.49-.69,1.44-1.46C29.18,68,30.11,65.55,28.19,64.66Zm-.86-7.79c-1.27.73-1.55,2.26.41,1.44.73,0,1-.87,1.65-1,.44-.07.5-.34.54-.78C29.66,54.46,28.23,56.5,27.33,56.87Zm1.18-9.1c-1.11,0-2.55,1.15-1.54,2.35.54.76,0,1.69.23,2.4.2-.19.15-.49.53-.51.56,0,.68-.68,1.2-.6.79-.66.41-2.33.43-3.36A2.74,2.74,0,0,0,28.51,47.77ZM25.87,35.61c-.81-.07-.3,1.71,0,2.16.76.69,2.87,2.56,3.21.74.51-1.3-.14-2-1.34-2.44C27,36,26.51,35.09,25.87,35.61Zm.7,18c-1.28.58.31,1.78.33,2.7.53,0,2.51-1.29,1.62-2.15C28.27,52.24,27.81,53,26.57,53.64Zm.71,7.17c-1.79-.15-1.47-2.71-3.29-2.52-.7.11-.19,1-.39,1.51C23.51,60.91,22,61.23,22,62.24c-.05.67.85.82.72,1.43s-.24.5.22.83a4.57,4.57,0,0,0,2.21.73c.59,0,.76-.58,1.26-.71s1.84-.28,1.77-1.24C27.8,62.37,28.88,60.88,27.28,60.81ZM24.28,42c-.53.89-2.68,2.58-.89,3.35.3.21.33.33.2.65-.75,1.22,0,1.31.93,1.86a3.49,3.49,0,0,1,1.27.48c.6.15,1.16-.71,1.77-.86.19-.1.25-.19.11-.39A1.18,1.18,0,0,1,28,45.53c1.52-1-2.07-2.3-1.77-4.11A7,7,0,0,1,24.28,42ZM25.9,28.88c-.75.11-1.89,1.13-1.35,2,.28.65-.33,1.31.45,2,.51.6-.27,2.22.89,2.27.16-.31.42-.63.75-.61s.35-.55.73-.54c.16-.73.9-1.35.54-2.1C28.08,28.47,29.07,29.87,25.9,28.88Zm-.4,9.74c-.77.82-2.08,1.7-1,2.8.73-.39,2-.43,2.27-.71.12-.38.53-.8.47-1.18C26.77,39.24,26.11,38.2,25.5,38.62Zm.69,11.12c-.17-1.44-1.86-1.19-2.72-2-.37-.35-.6.53-1,.58a1.1,1.1,0,0,0-.06,1.79c.82.76-.24,1.41-.34,2.16,1,.52,2.33.48,3.26,1.15.34.44.78-.53,1.37-.44.43-.15-.2-.42-.24-.6C26.39,51.48,26.9,50.55,26.19,49.74ZM23.46,70.82c.44,2.53,1.19,2.25,2.87.7.34-1.71-.15-4-.36-5.67C22.15,64.36,22.71,68.36,23.46,70.82ZM22,52.65c-.81-.14-2.46.74-2.53,1.73-.5.73,0,1.61.23,2.36.33-1,.86-.36,1.54,0,.85.2,1.44,1.52,2.27,1.15.45-.2.9-.44,1.35.05.81.71,1-.29,1.42-.92.57-1.13-.77-2.08-1.18-3C24.42,52.9,22.68,53.76,22,52.65ZM19.53,73.77c-.19-.12-.38,0-.39.13-.85,1.22-4.32,2.1-3.25,4.16.59,1.35,1.95-.89,3,0a5.52,5.52,0,0,1,1.82,1c.2.45.73-.28,1.11,0,.56-.07,1.18.59,1.6.38.45-.5,1.19-.5,1.34-1.24.07-.49.83-1.86-.05-1.77C22.83,76,21.42,74.39,19.53,73.77Zm2.79-5.28c-.22-.83-1.41-.31-2.05-.31a4.51,4.51,0,0,0-3.18,2.46,6,6,0,0,0,3.59,3.09c1,.06,2.06,2,2.62.5.16-.26.62-.47.17-.88A28,28,0,0,0,22.32,68.49Zm0-24.82a1.87,1.87,0,0,1-1.3-.05c-1.12-.13-1.49.64-.7,1.48.65,1.19-1.65,2.82-.8,3.78,1.13-.25,2.24-.13,2.93-1.27,0-.67,1.12-1.79.27-2.12A1.16,1.16,0,0,1,22.33,43.67ZM22,64c.43-.72-.69-1.49-.65-2.3-.14-.28,0-.32.17-.35a2.35,2.35,0,0,0,1.59-2c-.12-1.08-1.81-1.86-2.69-2.54-.58,0-.61.53-.84.9-.45.54-1.12,1.38-1,2.07.29.75,1.19,1.65.24,2.28-1,.95-.34,2.3-.94,3.47-.56,1.69.06,1.06.62,2.26.47.71,2.52-.57,3.55-.3.33,0,.36,0,.37-.36-.08-.75.84-1.19.84-1.87C22.85,64.74,21.5,64.7,22,64ZM17.29,52.05c-.17.36-.58.62-.89,1-.08.59,1.35.08,1.83.42a1,1,0,0,0,1.15-.37c.81-.69,1.95-.76,2.57-1.68.8-.8-.45-1.45-.69-2.14C19.48,49,18.21,50.66,17.29,52.05Zm-.88,2c-.86,1.52-.74,3.71.85,4.68.37.5.64.47.95-.08,1.39-1.54.48-2.55.54-4.29C18.79,53.69,16.85,53.64,16.41,54.09Z"/><path id="fill2" class="cls-3" d="M30.85,29.51c.59.28,1.47.49,1.72,1.17.4.83-.6,1.5-.42,2.38-.56.71.2,1.79-.45,2.39-2,1.23-2.31,1.11-4.27,0-.67-.84,1.15-2.13,1.25-3.1.3,0,.62.5.83.16.3-.64,1.29-.91,1-1.75C30.52,30.5,30.68,29.57,30.85,29.51Zm-1.63,13.4c.41-.86,1.69-1,1.92-2.09.51-1-1-.91-1.59-1.24s-.32.31-.79.3C27.64,39.7,27,41.07,26.91,42c.16,1.22,1.38,1.61,1.9,2.62A11.81,11.81,0,0,0,29.22,42.91Zm.61-5.07c.23.42-.64,1.07-.07,1.22.92.15,1.81,1.16,2.39,0,.42-.8-.33-1.74,0-2.38.26-.22.54-.54.39-.9-.76.49-1.82.54-2.58,1.28C29.44,37.28,29.75,37.43,29.83,37.84Zm19,2.41a.86.86,0,0,0,0-.21c-.5-.76.6-1.52.11-2.19a1.94,1.94,0,0,0-1.76,2.35C47.76,39.91,48.37,39.69,48.84,40.25Zm-1.3-4.16c0,1-1.32,1.24-1.26,2.34.42.73,1.38-.89,2.09-1.07C48.74,37.14,48.1,35.5,47.54,36.09Zm2.91,1.2c.83-.16.85-1.75,1.48-2.39-1-.11-2.08-1.26-3-1.14-.22.62-1.26,1.36-.48,1.9C48.7,36.75,49.18,37.68,50.45,37.29ZM31,28.63c-.09.57.63.55.92.87.78.29,1.06,1.15,1.54,1.7,3.67.71,3.5,1.19,4.2-2.5.4-.45-.62-1.13-1.15-1s-.66-.17-1.08-.56c-1-.75-1.58-.8-2.38.18C32.57,28.1,31.11,27.62,31,28.63Zm6.7-1.06a1.9,1.9,0,0,0,2.31.84c.47-.52,1.79-.92,1.29-1.76-.74-2.56-3.29-1.07-5.2-1.7-.27.5-1.22.68-1.26,1.22.62.16,1,.87,1.59,1A1.31,1.31,0,0,1,37.73,27.57Zm9-2.4a8.78,8.78,0,0,0-2.39-1c-.21-.45-.56-.31-.91-.28-.67.44-1.41.33-2,.91-1,1.09,3.2.76,3.79.9s.77-.61,1.35-.5C46.59,25.26,46.64,25.2,46.69,25.17Zm1.67-2.93c-.8.25-1.56-.31-2.32-.52-1-.4-1.69.77-1.37,1.62.26,1.13,2.44.85,3.22,1.76C49,25.8,48.14,22.78,48.36,22.24Zm8.58.9c1.3,0,2.45-.78,3.73-1.07.47-.44,1.12-.47,1.52-1,1.3-1-.8-2.13-1.73-2.32C59,18,58.55,20.07,57,19.81,55.17,20.91,54.56,22.15,56.94,23.14Zm-2.27-1.57c-.24-.33,0-.5.2-.67a3.18,3.18,0,0,1-2-1.39c-.3.22-.8,0-1.12.13-.43.32-1.81,1.22-1.25,1.7,1.83.84,3.28,3.24,5.63,2.18A10.44,10.44,0,0,1,54.67,21.57Zm-1.3,2.52c-.27-1.1-1.83.2-2.6.07-.46.26-1,.13-1.49.28-1.37-.82,1.94-.72,2.49-1,.78-.62-1.7-2.23-2.43-1.61-.24.32-.92.43-.61.86,0,3.48,1,1.61,3.48,2.67C52.88,25.76,53.14,24.54,53.37,24.09ZM49,32.27c.14,1.45,1.91,1.33,2.87,2,1.21.37.57-1.39.76-2-.69-.87-.42-1.89-.12-2.86-.53-.9-1.85-1-2.77-.83-.63.43-.4,1.29-.91,1.77C48.15,30.85,49.1,31.6,49,32.27Zm1.81-4.2c1.33.44,1-1,1.54-1.54,1.84-.29,4.53.06,5.27-1.92-.19-.22-.53-.36-.54-.73-.38,0-.75.29-1.13.34-.68.56-1.73-.4-2.08.59-1.08,2.33-1.35.88-3.21.66-1.16-.3-3.06.17-3.14,1.55.33.28.93.22,1.27.66C49.29,28.29,50.09,27.8,50.8,28.07Zm-9-1.73c.22.48,0,1.22.62,1.35s1.14.88,1.76,1.1c.8.1.72-.88,1.32-1.11.43-.43,1.42-.38,1.47-1,.41-.25.6-.82,1.07-1.08-1-.37-1.7.73-2.49.83C44.39,26.4,42.58,26,41.76,26.34Zm-2.13,5.52c.65-.13.52-1.42.1-1.78a.57.57,0,0,1-.22-.84c.12-.38-1.52-.58-1.5,0a4.81,4.81,0,0,1-.91,2.91c-.29.36-.26.38.16.65C38,33.4,38.83,32,39.63,31.86Zm.67-1.93c.6.46-.14,1.48.74,1.78.44.27.69,1.12,1.36.51,2.33-1.26,1-5.27-1.51-3.83C40.48,28.73,39.75,29.36,40.3,29.93ZM49,28.7a.5.5,0,0,0-.42-.61c-.35-.8-1.15-.08-1.66-.3-.56.15-1.45.24-1.67,1,0,.8-1.46.21-1.06,1,.59,1.19-.73,2.27-1.5,3-.58.71-.1,1.79-.41,2.59.54.17,1.43,1,1.91.4,1.23-1.33,3.23-1.7,4.4-3a1.64,1.64,0,0,0-.35-1.5c-.25-.23-.62-.55-.15-.81.72-.39.32-1.25,1-1.71C49.05,28.75,49,28.71,49,28.7Zm-.91,5.37c-1.46.17-2.54,1.7-3.8,2.3-.34,0-.52.77-.5,1.14.55.23,1.32-.39,1.94-.06.6-.21.85-1.2,1.44-1.48S47.46,34.55,48.08,34.07Zm-2,5.26c-.42-1.29-.27-1.61-1.82-1.18,0,0,.09.11.14.13.92.54.53,1.83,1.12,2.73,1.14,1.09,1-.27,1-1.08C46.72,39.48,46.22,39.57,46.09,39.33Zm-2.85-.18c-.63.81.81,2.08,1.57,2C45,40.47,44.22,37.37,43.24,39.15Zm-1.79,9c.3.22.34-.25.49-.52a4.35,4.35,0,0,1-.67-3.38c-.74-.25-1.17.84-1.58,1.14a1.7,1.7,0,0,1,.14,1.38C39.68,47.52,41,47.71,41.45,48.14Zm-2.27-.88c.13-.26.35-1.58-.07-1.45-.24.28-1.32.53-.86.94C38.54,47,38.87,47.08,39.18,47.26Zm4.63-5.45c.15,0,.17,0,.06-.14C43,40.21,43,41,41.85,41s-1.4,2.29-2.57,1.86c-.45.2.2.37.43.28.76-.18,1.18.48,1.82.69.68-.34.83-1.53,1.71-1.5C43.73,42.42,43.37,41.71,43.81,41.81Zm-3.48,1.88c-.55,0-1.12-.26-1.64-.29-1.17.53-3,3.4-.45,2.27A13.58,13.58,0,0,0,40.33,43.69Zm.8-2.94c-1-2.46-3.48-1.16-2.31,1.2C39.36,43.17,40.53,41.18,41.13,40.75Zm-.8-1.6c.74.17,1,1.22,1.68,1.25,1.38-.14-.64-2.31-1.27-2.26C40.64,38.47,39.83,38.94,40.33,39.15Zm3.15-2.44c-.45-1.05-2.41-.67-3.36-.26,0,0-.28-.07-.13.12.65.87,2,1.28,2.46,2.32.19.21.51-.55.75-.7C43.63,37.76,42.86,37.13,43.48,36.71Zm-6-1.16c.29-.64-.73-1.31-.41-2,.06-.27.06-.28-.21-.21-.43.11-.55-.32-.59-.65-.33-.83-2.35-1-3.16-.82-1,2.45-1.5,4.06,1.85,3.29C36.33,35.82,35.89,36.28,37.5,35.55Zm3.37.1c.36.07.62-.25.76-.54.27-.89.56-2.24-.58-2.54-.6-.62-1.57-.11-2.09.37a2.34,2.34,0,0,0-1.26,1c.08.9.41,1.94,1.4,2.08C39.73,36.41,40.2,35.53,40.87,35.65ZM38.76,39c.28,0,.46,0,.5-.39.3-.18.89-.14,1-.63-.11-1-1.25-1.52-2.24-1.72-.66-.41-1.08.39-1.75.31-.61.35-.53,1.61-1.25,2.13.81,1.1,1.43,1.67,2.77,1.55C38.61,40.19,38.15,39.15,38.76,39Zm-6.06-.32c-.12.74.77,1.17.61,2,.39-.75,1.29-1.15,1-2.07.62-.66,1.78-2,.94-2.88-.46-.38-2.08-.13-2.2.34.38.47-.54.65-.41,1.08A1.6,1.6,0,0,1,32.7,38.68Zm2.17.49a2,2,0,0,1-.2.88c-2.41,1.76,0,2.67,1.08.56C35.92,40.11,35.05,39.75,34.87,39.17Zm-1.69,3.24c-.54-.55-.29-4.15-1.35-1.86,0,1.62-2.07,1.9-2.2,3.32a3.54,3.54,0,0,1,1.25,1.27c.45-.31,1.13,0,1.38-.65C32.32,43.7,33.2,43.12,33.18,42.41Zm-3.55,2.22c-.9,1.32-2.66,2.34-.11,3C30,46.9,31,44.66,29.63,44.63Zm-.27,3.42a2.74,2.74,0,0,0-.85-.28c-1.11,0-2.55,1.15-1.54,2.35.54.76,0,1.69.23,2.4.2-.19.15-.49.53-.51.56,0,.68-.68,1.2-.6C29.72,50.75,29.34,49.08,29.36,48.05Zm7,2c.11-.75,1.08-.37,1.54-.26A4.07,4.07,0,0,1,38.52,48c.13-.28.09-.35-.16-.55-.69-.5-1.08-1.23-2-1.35-.21-.13-.23,0-.22.13-.06,1.22-2.08,3.25-.17,3.92C36.12,50.19,36.35,50.11,36.34,50.07Zm1.15,3.51c.38-.43.09-1.12.62-1.72a1.77,1.77,0,0,0-1.29-1c.3.87-.31,1.45-.63,2.22C36.63,53.22,37,54,37.49,53.58Zm-1.77,3.47c.35.12.43,0,.31-.38-.33-.91,1.21-2.3.16-2.94-.21-.17-.36-.64-.69-.37-.76.73-2.28.68-2.36,1.78-1,0,0,2,.43,2.12C34.3,57.18,35,56.79,35.72,57.05ZM31.61,58.4c1.6,2.14,1.59-3.49-.35-2.95C29.85,55.85,30.23,58.13,31.61,58.4Zm-2.39.52c.46.36.74,1,1.12,1.31.3-.43,1.65-.43,1.42-1a7.5,7.5,0,0,0-2-1.48C29.12,57.76,28.72,58.52,29.22,58.92Zm.32,6.18a12.34,12.34,0,0,1,2.34-.63,1.2,1.2,0,0,1,1.71,0,.69.69,0,0,0,.07-.24c-.95-.86-.58-1.7-.59-2.76-.07-.55-.84-.61-.82-1.27S29,61.41,28.8,61.74C28.94,62.8,28.16,64.69,29.54,65.1Zm-1.35-.44c-.41.1-1.29,0-1.3.61s-.5,1-.2,1.6c.7,1.12-.71,4.66,1.43,4.23.48-.44,1.49-.69,1.44-1.46C29.18,68,30.11,65.55,28.19,64.66ZM26,65.85c-3.82-1.49-3.26,2.51-2.51,5,.44,2.53,1.19,2.25,2.87.7C26.67,69.81,26.18,67.52,26,65.85Zm-2-7.56c-.7.11-.19,1-.39,1.51C23.51,60.91,22,61.23,22,62.24c-.05.67.85.82.72,1.43s-.24.5.22.83a4.57,4.57,0,0,0,2.21.73c.59,0,.76-.58,1.26-.71s1.84-.28,1.77-1.24c-.42-.91.66-2.4-.94-2.47C25.49,60.66,25.81,58.1,24,58.29Zm2.4.74a2.28,2.28,0,0,0-.27,0c0,1.12,2.57,2.06,3.44,1.59.12-.68-.66-1.23-1-1.8C27.92,58.49,27.12,59.36,26.39,59Zm.51-2.69c.53,0,2.51-1.29,1.62-2.15-.25-1.95-.71-1.19-1.95-.55S26.88,55.42,26.9,56.34Zm3,.17c-.27-2-1.7,0-2.6.36-1.27.73-1.55,2.26.41,1.44.73,0,1-.87,1.65-1C29.83,57.22,29.89,57,29.93,56.51Zm-.74-2.59c0,1,.62,2,1.48,1,.68-.14,1.41.5,1.84-.33.17-.11.13-.18,0-.28-.39-.26-.34-.79-.3-1.23-.38-1.18-1.8,1.5-2.7.82C29.42,53.89,29.3,53.93,29.19,53.92Zm.87-3a.94.94,0,0,0-.12.3c-.23.73-1.31.82-1.92,1.26.81.24.94,1.07,1.81,1,.38-.21,1.64-.72,1.27-1.21S30.61,51.17,30.06,50.92Zm2.11-.35c-1.22-.52-1.58.7-.61,1.51C32.82,52.92,33.13,51.13,32.17,50.57Zm3.61,1.84c0-.65.78-.86.46-1.61-.37-.27-1-.21-1.07-.83a1.54,1.54,0,0,0-1.28.13c-.26.29-.65.86-.43,1.24s-.43,1-.54,1.47c-.85,2.28,1.57.61,2.51.1C35.59,52.82,35.81,52.68,35.78,52.41ZM33.47,49.6c2.21-.34.67-1.35-.15-2.32-.48.45-1.16,1-1,1.67a1.58,1.58,0,0,0,.54,1.66C33.13,50.75,33,49.66,33.47,49.6Zm1.81-3.75c-.33-.08-1.22-.85-1.21-.17-.49,1.39-.49,1.26.58,2.29A1.63,1.63,0,0,0,35.28,45.85Zm-2.65-.6c-.94.45-1.68.13-2.05,1.42-1.65,2.39.08,6.06,1.18,1.51C31.91,47.38,35.05,44.89,32.63,45.25Zm1.27-.49c.76.1,1.55,1,2.19.34.79-.89,2.9-1.74,2.22-3.18.11-1.21-1.86-1.56-2.33-.48-1.07,1.15-3,1.26-3.15,3.26A1.42,1.42,0,0,1,33.9,44.76Z"/><path id="fill1" class="cls-4" d="M18.55,14.48c5.75-5.27,4.7,0,8.45-2.24.63-1.23,2.41-.83,3.61-.73,1.08.87,2.1-.21,3.17-.49a.55.55,0,0,0,.48-.57,1.1,1.1,0,0,1,.47-1.24c.43-.24,1-.67,1.49-.59.24.12.28,0,.38-.12.36-.49,1-.41,1.56-.32.93-.25,2-.95,3-.56a3.73,3.73,0,0,0,3.69.27c.82-.32,1.8,0,2.55-.43.58-.26,1-1.17,1.77-.87.68,0,1.35-.53,2.11-.32.31-.2.55,0,.77.14.49.38,1,0,1.56.06,1.22.06.87-2.19,2.13-2.11.37.07,1,.15,1.07.54-.07.31.18.38.32.52.48.6,1,.12,1.56,0,1,.1,1-.32,2-.11.34-1.25,1.31-1,2.26-1,.68-.18,1.54.82,2,.13.75-1.2,1.25.15,2.16,0,.28-.08.63-.3,1,0l.08.35a1.48,1.48,0,0,0-1.14.74c-.89.16-2.57-.74-3.44.22-.38.32-.52-.52-1,0-.91.5-2.29.19-3,1-.52.87-.85-.13-1.48-.13s-1.36-.16-1.76.31-.26.83-.7,1c-1,.12-1.14,1.64-2.11,1-.36-.37-.77.2-1.17,0-1-.11-1.84-1.53-2.93-.79a33.52,33.52,0,0,1-4.1,1.26c-.91-.52-1.64.55-2.57.45a2.42,2.42,0,0,1-3-.16c-.87.64-2,.88-2.54,2-.14.23-.27.38-.53.31-1.66-1-2.85.71-4.58.82-.29.12-.46.48-.79.2-.61-.49-1.27.11-1.91-.19-.42-.05-1.14.11-1.09.62a13.6,13.6,0,0,1-2.4,1.34c-.61.7-1.8.22-2.24.9-.77.19-.55,1-1.15,1.16s-1.65,0-1.88.62c0,.4,0,.37-.44.4-.81-.08-1.4.68-2.27.31a4.63,4.63,0,0,1-3.19.51c-.57.27-.59,1.19-1.26,1.1-.48,0-1.36,0-1.41.59.52,3,2.19.57,3.7,1.66-.39.51,0,1.8-.92,2s-.49,1.32-.5,2c-.28.87.77,1.23,1.14,1.85-1,.32-.71,1.18-1.21,1.9-.81.76-.12,2.53.82,3-1.85,1,.84,2.73-.35,4.1-.29.25-.21.62-.28.9a.89.89,0,0,0-.89,1.27c.46,1.7.91,2.9-.93,4-.33.2.07.64-.34.5-1.45-.81-1.32,1-2.36,1.45-.4,1.09.37,2,.9,2.76-2.81,3.44-1.11,1.85.87,5,1.22,1.29-2.35,1.39-1.61,2.89a4.57,4.57,0,0,1,.3,1.81c-1.25-.63-3.4-1.8-3.88-3.08.12-1.55,2.1-2.25,2-3.7-1.85-2.06-1.05-2.11.44-4,.9-1.35-1.2-3.41.57-4.19,1.06-.36,1-1.85,2-2.29,3.24-2.65-1.89-4.23.76-6.94.95-1.06-1.36-1.94-1.12-2.92s1.16-1.68,1.28-2.61h0c-1.16-1.52.09-2.76.07-4.36.08-.79-.89-.92-1-1.6,0-.44-.48-.54-.6-.91-.23-1.05-2.89-2.16-2-3.11,1.92-.6,3.55.83,4.13-1.81a5.87,5.87,0,0,1,4.4-1A.84.84,0,0,0,18.55,14.48Zm51-9.94c.67.18,1.38-.89,2-.11,1.32,1.24,2.8-.47,4.28-.57,1.49-.69,2.72.55,4.23.21.25-.11.66-.16.58-.54,0-.22,0-.36.3-.4s.79-.8,1.24-.31c.78.85,1.76,0,2.54.52a11.91,11.91,0,0,0,4.74-.7c.39-.17.47-.18.72.12.9,1.11,4.22.41,3.4,2.5-.7.49-1.69.52-2.11,1.43-.62.34-.16,1.37-1,1.3a9.59,9.59,0,0,0-2.28,1.3c-1,0-1.7.8-2.68.87-.4.06-.9,0-1,.48.29.42-.38.87-.72,1.1a2.85,2.85,0,0,1-1.27.59c-1.08-.08-1.31,1.35-2.36,1.22-.64,0-1.35-.08-1.69.55-.56.47-.56,1.93-1.32,2-.87-.18-2.31.31-2.54,1.24a.29.29,0,0,1-.39.24,7.19,7.19,0,0,0-2.21.64.27.27,0,0,1-.38,0c-.63-.25-1,.82-1.44,1.09-1.14.42-2.8.56-3.47,1.78-1.58,1.58.06,1.34,1.35,1.34.6,0,.77.67.78,1.15.38.52,2.35,0,2.62-.62.66-1.43,1.48-3.21,2.7-4.05,1.25.28,2.49-.48,3.72-.19,3-.86.77-1.11,2-1.95.73-.51,2-.39,2.41-1.2s1.75-.4,2.31-.81c.51-.11.18-.7-.26-.72-.21,0-.43.07-.6-.14-.37-.71-.32-1.63.6-1.79a6.9,6.9,0,0,0,2.1-.91c.67-.9,1.71.07,2.44-.5,1.07-.57,2-1.36,3.07-1.86a2.55,2.55,0,0,0,1.64-.76c-.1-.45-.71-1.37.36-1.3.4.06.85.37,1.18,0,.94-.46.08-1.66,1.09-1.91a1.5,1.5,0,0,0,1.05-1.35c.12-.65-1.09-.76-1.57-.77a1.13,1.13,0,0,1-1.19-.4C93.19,2.11,94,.59,92.3.84c-1-.08-2.34.45-3.24,0-.53-.42-1-.23-1.55-.14-1.72.08-3.08,1.19-4.81,1.19-2.32-.08-5.42-1.06-7.13,1.08-.29.43-.38.53-1,.33-1-.6-1.46,1-2.26.46-.41-.64-.92-.5-1.55-.65-.3-.08-.53.32-.89.11-.72-.09-1.13,1.14-1.79,1.18l.08.35A12.81,12.81,0,0,1,69.56,4.54ZM39.42,79c-.14-1,1.12-1.18,1.12-2.06-.17-.46.62-.74.13-1.18-.34-.19-.53-1.31-1-.7-.28.43-.93.59-1.05,1.12.23,1.13-.48,2.11-1.68,1.74-1.11,0-1.61-1.43-2.84-1a4,4,0,0,1-1.51,0c-.44-.32-.44-.32-.8.05s-1.14,1.16-.49,1.49c.23.25.33,1.07.8.94,1.14,0,2,1,3.14,1.13.9.05.84,1.2,1.45,1.59.55-.68,1.86-1.23,2.09-2.08C38.69,79.44,39.43,79.46,39.42,79ZM50.31,61c.17-.38.57-.76.57-1.14-.44-.52-1.21-.8-.76-1.64.26-.84-1.82-1-2.35-.6-.08.18.07.57.16.77.47.73-.28,1.46.06,2.23.54,1.38-1.26,1.33-1.71,2.23-.26.52.24,1.68-.72,1.54a5.69,5.69,0,0,1-2.81,1c-.53.36-.53.73-.19,1.24,0,.85-1.37,1.53-1.41,2.52-.07.67.87.11,1.28.27,1.16-.32.61-2.22,2-2.42a17.71,17.71,0,0,0,3.47-3.86c.56-.23.81-.79,1.29-1.1.22-.17.56-.23.57-.62S50.16,61.17,50.31,61ZM20.52,91.52c.09.5-.51.9-.22,1.41-.54.69.61,1.52-.17,2a3.09,3.09,0,0,1-2.27.51c-.84.46-1.18,1.94-2.33,2.21-.44.25-.47.3-.87.08-1.48-.19-2.22,1.28-3.17,2.16-1,.09-2.21-.33-3.32,0-.77.21-1,1.37-1.92,1.21-.27-.13-.48.16-.76.09-1.3-.51-5.85-3-2.53-4-.49-.54.17-1.72.9-1.61,1.39-.12.43-1.38,1.05-2.14,1.09-.11,1.69-1,1.09-2,.45-.64-.53-.76.09-1.4-.23-.75-1.77-1.09-2.51-1.58-.2-.1-.29,0-.3.13-.07.59-.69.86-.7,1.47,0,1.08.69,2.06.59,3.15C2,96.13-1.59,101,3.23,102.83a3.42,3.42,0,0,0,2.78,2c1.08.36,3.21.19,3.44-1.14,0-.37.25-1.14.72-1,.37.36.8.18,1.14.07,1.5.16,2.62.38,3.61-1,1.08-.33,2.86.65,3.82-.13.39-.71,1.24-1.52.88-2.37-.07-.34-.09-.45.21-.56,1.06-.39,1.67-1.35,2.56-2s.05-1.92.93-2.66c.77-1-.7-1.84-1.41-2.32-.32-.28-.19-1-.66-1.09A.77.77,0,0,0,20.52,91.52ZM6.4,77.6c-.32-.41-.06-.81.08-1.16.37-1.49-1-3-.68-4.43.24-.37.35-1,.73-1.2.53,0,.11-.33.08-.54,0-2.12-2.17-3.42-2.32-5.5-.2-.55.3-2.64-.74-2-1.77.43-1.68,2.52-1.47,4,0,.78,1,1,.86,1.78-.07,2.78-.7,6.16,1.59,8.28.31.35.32.39-.06.68A13.4,13.4,0,0,0,2.39,86.3c.42,1.64,1.95,1.88,3.3,2.54-.28-.34-.43-.83.21-.83a12.84,12.84,0,0,0-1.19-2.57c.46-1.51,2.07-1.1,1.76-3.09.29-.39.42-1.07,1-1.06s.81-.69.21-.94-.7-1-1-1.57C6.72,78.35,6.31,78,6.4,77.6Z"/><path id="void" class="cls-5" d="M28.25,26.85c.72.41,1.86.49,2.34,1.14.08.46-.24,0-.31-.09-.49-.21-.86.73-1.42.81s-.82-.12-1.27-.05C25.48,29.19,27.48,26.7,28.25,26.85Zm14.2,12c.19.21.51-.55.75-.7.43-.43-.34-1.06.28-1.48-.45-1.05-2.41-.67-3.36-.26,0,0-.28-.07-.13.12C40.64,37.44,42,37.85,42.45,38.89Zm-.51,14c-.08-.52.6-.9.39-1.43s.39-1.21-.19-1.62c-.53-.57-1,.83-1.51,1.1-.18.7-.37,1.75.15,2.26C41.13,53,41.65,53.1,41.94,52.91Zm5.94-42.18a2.07,2.07,0,0,0,1.3-.06c.23,0,.6-1.17.09-1-.7.34-1.74.31-2.43.84C46.66,10.81,47.64,10.93,47.88,10.73Zm4.74.12a1.52,1.52,0,0,1,.16-1.22c0-.45-1.62-.89-2-.73-.14.3-.16.73-.61.74,0,0-.15.18-.11.23.22.52-.6.88,0,1.35C50.62,12.2,52.57,12,52.62,10.85ZM89.76,5.24c.57-.24.82.43,1.32.4,3.54-1.09,1.64-1.28-.66-1.94-.77-1-1.4,0-2.35-.05-.39.28-1,.12-1.19.74.27.8,1.47.34,2.09.76A1.23,1.23,0,0,0,89.76,5.24ZM84,8.32C83.46,8,82.88,7,82.13,6.78c-.6.2-1.32-.41-1.81-.14,0,.3.29.74-.06.93-2.23,2.63,1.5,3.14,3,1.48A10.42,10.42,0,0,1,84,8.32ZM69,7.51a.6.6,0,0,1,.36.74c.38.88,1.63-.13,2.27-.16.61-.2,1.1.27,1.7.2,1.09-.28,2-1.13,3.15-1.4.81-.18,2.37-.06,1.24-1.11-.39-.42-.85-2.41-1.38-1.08.29,1.73-1.45,2-2.76,1.88-.18-.21-.28,0-.4.06-1,1.08-1.78-.47-2.68-.44C70,6.5,67.78,6.7,69,7.51Zm3.81,3.6c.47.34.65-.79,1-1-.43-1.38-4.44,1.08-5.4-.06-.18-.19-.48.09-.54.26-.2,1.05,1,.86,1.62,1.32,1,.84,1.83-.47,2.9-.48C72.56,11.08,72.76,11,72.85,11.11ZM63.15,10c-.73-1.48,2.61-1.64,2-3-1.35-1.75-1.47,0-2.81.45-.47.55-1.38.14-1.75.87-.83,1.2-2-.23-3-.17,0,.23.06.48.34.55,1,.19,1.42,1.29,2.24,1.72a11.32,11.32,0,0,1,2.72-.11C63.3,10.32,63.3,10.31,63.15,10Zm-2.52,7.31c-.13.4-.3,1,.29,1.11a4,4,0,0,1,2,1.18c1.24-.46,2.63-.62,3.81-1,1.08-.77.81-1.22.24-2.25-.41-.95-1.07-.1-1.76-.18-1.95.55-2.89-2.38-4.54-1.1C59.84,15.58,61,16.56,60.63,17.28ZM46,21.72c-1-.4-1.69.77-1.37,1.62.26,1.13,2.44.85,3.22,1.76,1.07.7.25-2.32.47-2.86C47.56,22.49,46.8,21.93,46,21.72Zm8.63-.15c-.24-.33,0-.5.2-.67a3.18,3.18,0,0,1-2-1.39c-.3.22-.8,0-1.12.13-.43.32-1.81,1.22-1.25,1.7,1.83.84,3.28,3.24,5.63,2.18A10.44,10.44,0,0,1,54.67,21.57Zm7.42,4.52c.71.51.74.08,1.1-.52.13-.57-.49-1.09-.45-1.69-.15-.77-1.11-.73-1.71-1-.85-.44-2.37.61-3.32.78C57.6,25.37,60.88,25.45,62.09,26.09Zm3.38,3.36c.37-.27.07-.82.5-1.11,1.25-1.07-.26-1.25-1-.58-.93,1-2,2.36-1.49,3.81C64.59,32,64.72,30,65.47,29.45ZM58.63,40.91c-1,.1-3.45.61-1.62,1.58,1,.37,1.73-.94,2.61-1.23s1.31-.08,1-1.26A19.19,19.19,0,0,0,58.63,40.91Zm-.5-10.81c-1,.58.09,1.71-.59,2.33-.87.7-2.12.84-1.15,2.23a3.55,3.55,0,0,1,.48,1.47c0-2.42,6.38-2.5,5.05-4.77-.5-.73-1.33-2.18-2.38-1.74C59.17,30,58.53,29.62,58.13,30.1ZM49,32.27c.14,1.45,1.91,1.33,2.87,2,1.21.37.57-1.39.76-2-.69-.87-.42-1.89-.12-2.86-.53-.9-1.85-1-2.77-.83-.63.43-.4,1.29-.91,1.77C48.15,30.85,49.1,31.6,49,32.27ZM32.7,38.68c-.12.74.77,1.17.61,2,.39-.75,1.29-1.15,1-2.07.62-.66,1.78-2,.94-2.88-.46-.38-2.08-.13-2.2.34.38.47-.54.65-.41,1.08A1.6,1.6,0,0,1,32.7,38.68Zm9.7-6.46c2.33-1.26,1-5.27-1.51-3.83-.41.34-1.14,1-.59,1.54s-.14,1.48.74,1.78C41.48,32,41.73,32.83,42.4,32.22Zm-5.86-4.54c-.62.09-.66-.17-1.08-.56-1-.75-1.58-.8-2.38.18-.51.8-2,.32-2,1.33-.09.57.63.55.92.87.78.29,1.06,1.15,1.54,1.7,3.67.71,3.5,1.19,4.2-2.5C38.09,28.25,37.07,27.57,36.54,27.68Zm5-5.85c.42-.21.46-.39.2-.91C34.87,21.05,34.56,25.15,41.49,21.83Zm7.64-4c.34,0,1.29-.56,1.25,0,.26-.16.29-.43.7-.51.61.27,1.31-.19,1.83-.5.71-.14,1.42-.35,2.15-.46-.75-.27-1.64-.34-2-1.25-.13-.4-.36-.72-.91-.52-.48-.33-.76.44-1.1.66-.75.77-1.85-.38-2.65-.05-.11.16,0,.4.11.55C48.88,16.25,48,18.1,49.13,17.82Zm-12.54-3.1C36.52,17.06,38,17,39.25,18.36a10.8,10.8,0,0,0,2.51-.76c.45-.33,1.11.37,1.3-.34.69-1.32-2.84-4.48-4.05-4.62C37.78,12.92,35.5,13.14,36.59,14.72Zm-8.71.71c.47-.16.1-.58,0-.87,0-.73-2.22.47-1.35,1C26.9,16.15,27.42,15.52,27.88,15.43Zm-4.79,5.08c.66.07,2-.26,1.17-1.07-.31-.24.32-.81-.23-.84-.7-.14-1.38.37-2-.11-1.24-.78-2.7.31-4.11.1-.6,0-.43.7-.67,1.11-.36.64.49.61.82.95s.88-.32,1.32,0,1.24,0,1.73.44C21.79,21.63,22.21,20.24,23.09,20.51Zm3.72,5c.43-.05.42.44.74.52a9.93,9.93,0,0,1,.07-1.8c-.08-.09,0-.36,0-.52.35-.6-.52-.65-.79-1.09a2.3,2.3,0,0,1-.08.25c-.43,1-1.42,1-.5,2.23C26.42,25.55,26.4,25.57,26.81,25.55Zm-8,.24c-.52.76-2.9,1.67-2.24,2.72.4.52,1.31.34,1.55,1a4.31,4.31,0,0,0,4.33-.94c.38-.74-.13-1.6.41-2.32.24-.68-.73-2-1.47-1.75a3.78,3.78,0,0,1-2.06,1C19.07,25.48,18.87,25.46,18.81,25.79ZM14.29,41.86c-.25.23-.22.3,0,.53.85,1.1,2.26,2.06,3.52,1,.28-1.12,2.17-2.13,1.11-3.24-.08-.14-.21-.27.09-.34.27-.91-.8-1.24-1.47-1.5-.63-.49-2-.92-1.57-1.92.11-.22,0-.42-.19-.58a6.8,6.8,0,0,1-1.26,2.21c-.75.12-.47.81-.36,1.39C14.5,40.12,15.05,41.21,14.29,41.86Zm7.6-4.5c.21.49.85,1.28.16,1.72,1.59,1.52,1.66.49,2.91-.73.37-1-.05-2.26-.06-3.33-.41-1,0-3.3-1.79-2.76-.61.43-1.7,0-1.83.89C20.49,34.61,21.68,35.91,21.89,37.36ZM23.59,46c-.75,1.22,0,1.31.93,1.86a3.49,3.49,0,0,1,1.27.48c.6.15,1.16-.71,1.77-.86.19-.1.25-.19.11-.39A1.18,1.18,0,0,1,28,45.53c1.52-1-2.07-2.3-1.77-4.11a7,7,0,0,1-1.93.57c-.53.89-2.68,2.58-.89,3.35C23.69,45.55,23.72,45.67,23.59,46Zm9.24-1.29a1.42,1.42,0,0,1,1.07.06c.76.1,1.55,1,2.19.34.79-.89,2.9-1.74,2.22-3.18.11-1.21-1.86-1.56-2.33-.48C34.91,42.59,33,42.7,32.83,44.7ZM36,50.17c.1,0,.33-.06.32-.1.11-.75,1.08-.37,1.54-.26A4.07,4.07,0,0,1,38.52,48c.13-.28.09-.35-.16-.55-.69-.5-1.08-1.23-2-1.35-.21-.13-.23,0-.22.13C36.13,47.47,34.11,49.5,36,50.17Zm9.86-6.38c0,3,.27,1.66,2.44,1.2a22.06,22.06,0,0,0,1.17-3.4c-.15-1.43-2.82-1.58-2.29.28C47.52,42.93,46,43.24,45.88,43.79Zm5.39,6.76c.17-.25.34-.59.76-.55.3-.37,0-.89.4-1.31a5.87,5.87,0,0,0-5,2.41,2.74,2.74,0,0,1-2.11,2.2v0c.31,0,.52.33.81,0s.64-.53,1-.13a2.93,2.93,0,0,0,2.37-.86c.19-.32.77-.38.78-.82S51,51,51.27,50.55ZM45,57.78c1.61-.28,1.23-.56.25-1.47a2.16,2.16,0,0,1,0-3v0l-.1,0c-2,.35-3.95,3.38-2.22,5C43.65,58.65,44.3,57.66,45,57.78Zm-8.3,0a.42.42,0,0,0-.6-.23,11.86,11.86,0,0,0-2.75.29c-1.4,3.1.21,3.63,2.71,1.76.65,0,1-.6,1.32-1S36.8,58.12,36.73,57.82ZM35.5,53.36c-.76.73-2.28.68-2.36,1.78-1,0,0,2,.43,2.12.73-.08,1.39-.47,2.15-.21.35.12.43,0,.31-.38-.33-.91,1.21-2.3.16-2.94C36,53.56,35.83,53.09,35.5,53.36ZM28.57,58.8c-.65-.31-1.45.56-2.18.23a2.28,2.28,0,0,0-.27,0c0,1.12,2.57,2.06,3.44,1.59C29.68,59.92,28.9,59.37,28.57,58.8ZM22,62.24c-.05.67.85.82.72,1.43s-.24.5.22.83a4.57,4.57,0,0,0,2.21.73c.59,0,.76-.58,1.26-.71s1.84-.28,1.77-1.24c-.42-.91.66-2.4-.94-2.47-1.79-.15-1.47-2.71-3.29-2.52-.7.11-.19,1-.39,1.51C23.51,60.91,22,61.23,22,62.24ZM17.29,52.05c-.17.36-.58.62-.89,1-.08.59,1.35.08,1.83.42a1,1,0,0,0,1.15-.37c.81-.69,1.95-.76,2.57-1.68.8-.8-.45-1.45-.69-2.14C19.48,49,18.21,50.66,17.29,52.05Zm-3.18.35c.39.29,1.66,1.33,2,1-.73-.78-.06-1.92-.77-2.7-.16-.17-.31-.42-.18-.64,1.07-1.77,3-3.07-.41-1.74-1.78-.26-2.92,3-1.07,3.58C14,51.84,13.93,52.22,14.11,52.4Zm-.35,8.43c-.2-2.61-2.49-1.16-3.82-.59-.51.88-1.29,1.94,0,2.51C11.82,64.42,12.47,61.61,13.76,60.83ZM6.9,74.28c0-.44,1-.8.41-1.11-.34,0-.63-1-.9-.91-.26.56.44,1.28.31,1.94C6.72,74.24,6.8,74.29,6.9,74.28Zm-1.78-9c1.14-1.24,1.93-1.52.12-2.73C4.32,62.27,5,64.75,5,65.34A.67.67,0,0,0,5.12,65.26Zm3.71,1.55c-.29.58,0,.85.55,1.07.12.08.12.1.16,0,.58-1.24.18-3.33,1.39-4-.77-.48-.81.47-1.42.65C9.05,65.11,9.31,66,8.83,66.81ZM11.05,72a2.86,2.86,0,0,1,2.12,2.86c0,.95.9,1.15,1.5,1.71,1.31.27,2.16-2.34,3.66-2.6.59-.5-.45-1.41-.73-1.91-.32-.7-1.27-.81-1.6-1.41,1.15-.17,1.29-1.43,2.17-2,.36-.24-.68-.41-.29-.91,0,0-.12-.21-.21-.29-.73-.88-1.55.21-2.45.27-.72.19-1.62-.91-2.26-.35-.58.82-.68,2.09-1.86,2.27C10.17,69.83,10,71.83,11.05,72Zm17.13,3.51c.59.2,1-.91,1.7-.58.25,0,.27-.14.33-.27a7.64,7.64,0,0,1,.92-2.56A1.41,1.41,0,0,0,32.2,70.7c-.62.51-1-.33-1.54-.16-.41.37-1.12,0-1.36.62-.63.1-1.17.65-1.87.41s-1.08,1.12-2,1.24c-.87.44-1.19,1.45-1.87,2.12,0,1,1.13.8,1.76,1.08A2.74,2.74,0,0,1,28.18,75.52Zm8.32-4.24c-.82,1.48-.08,4-1.71,4.83.83.29,3.56,2.26,3.34.1,0-1.29,1.92-2,2.3-3.3.45-.6-.33-1.31.17-1.93-.56-.47-2.25-.14-3.12,0C37.08,71.19,36.67,70.81,36.5,71.28ZM22.16,91.12c.42.66,1.34.76,2,1.07,3.09.63,6.24-.68,4.28-4.17-.74-1.25-1.43-.87-2.64-.82-1.23.6-1.42,2.44-3.07,2.36C21.47,89.82,22,90.27,22.16,91.12Zm3.43-7.5c.91.14,1.26-1,2.23-.71.83-.58.87-2.18,2.17-1.82a1.39,1.39,0,0,0,.54-2.57c-.18-.6-1.22,0-1.52.31-1.05.32-1.2,1.73-2.43,1.77a10.5,10.5,0,0,0-4,4.39C23.69,85,24.6,83.89,25.59,83.62Zm-11.19,2c.47-2.15-3.69-.1-4.23,1,.93,0,1.6.85,2.48,1A2.69,2.69,0,0,0,14.4,85.67Zm2.86-4.08c.56.14,2,.1,2.17-.57a1.77,1.77,0,0,1,.86-1.24c.17-.08.16-.21,0-.29-.76-.4-1.22-1.06-2.16-1-.3-.08-.57.17-.8.35-.44.62-1.39,0-1.64.82-.7,1.3-1,1.27,0,2.42A1.39,1.39,0,0,1,17.26,81.59Zm6.81,5.86a12.3,12.3,0,0,0-3.4,1.31,6.56,6.56,0,0,0-2,1.25c.29.24.67.19,1,.4,1.15.26,2-1.63,2.83-1.34C23.16,89.06,24.78,88,24.07,87.45ZM7.72,78a.33.33,0,0,1-.33.35c-.31.41.1,1.35.49,1.63s.63.37.54.83c.55,1-1.15.89-1.28,1.61-.41.53.26.81.16,1.38-2.55,1.84-1.86,1.27-.79,4,.07.35-.18.52-.38.71a2,2,0,0,1,0,.28c1.1-.76,2.66-1,3.42-2.12,0-.72-.72-1.13-.7-1.83.12-4.68,3.07-.52-.85-6.7ZM7.16,97.65c.26-.07,1.52-.38,1.14-.66s-.76-2.52-1.63-3.26a.62.62,0,0,1-.76,0c-1.1.42-.53,1.53,0,2.13C6.74,96.38,6.08,97.7,7.16,97.65Zm5.56-2.39c1.83.28,2.86-.5.58-1.26-1.58-.8-3.08.21-3.47,1.89,0,.25-.46,1.1.11.86C10.67,96,11.83,96.09,12.72,95.26Z"/><path id="void-2" data-name="void" class="cls-6" d="M34.34,22.62a1,1,0,0,1,.5.6,3,3,0,0,0-2.61.06c-.41.21-1.07-.17-1.39.3s-.46-.1-.81,0c-.36-.08-1.45-.74-1-1.19.34-.64.87-2.07,1.79-1.44a3.55,3.55,0,0,0,2.48.54C34,21.52,34,22.39,34.34,22.62Zm-3.19-2.14c.67,1,2,.12,2.72.8.53.22.23-.77.3-1.08C34,18.86,31.63,19.71,31.15,20.48ZM84.35,7.13c-.86.54.14.94.68,1.15,1.48-.48,3.09-1,3.62-2.61-.62-.2-1.24-.41-1.66.23C86.2,6.64,84.68,5.74,84.35,7.13ZM82.69,3.85c-.39,0-.58-.63-1-.44-.18.19-.59.16-.58.54-.44,1.3-2.1.91-3.09.52-.88.23.74,1.26.58,1.87.44.37,1.24-.09,1.49-.47,2.7.92,2.38-.35,4.1-1.92l.11-.08C83.86,3.57,83.32,4.22,82.69,3.85Zm-7.5,7.79c-1.56.26-2.46,2.42-2.75,3.81,0,.67-1,.8-1,1.59.06.43.28.7.66.35,1.37,0,2-1,3-1.53a4.29,4.29,0,0,1,1.77-.49,2.64,2.64,0,0,0,.93-1.86c-.48-1.09,1.36-1.32,1.45-2.39.26-1-1.27-.16-1.75-.49C76.66,10.61,76.17,11.76,75.19,11.64Zm-9.06.79c.17,1.22-2,2.12-2.17,3.27.4-.29.83.12,1.35-.11,2.1-.14,3.22-1.34,4.67-2.66.44-.83-1.47-1-2.07-1.31A11.25,11.25,0,0,0,66.13,12.43ZM67.64,7.2c-.7.28-1.61.06-2.17.57-.39.87-1.75,1.19-1.95,2A3.42,3.42,0,0,0,66,11.53a1.31,1.31,0,0,0,1.46-.48c-.37-1.09.12-1.38,1.16-1.64.86-.59,0-1.43-.36-2C68.2,7,67.83,7.15,67.64,7.2ZM66.66,23c-1-.11-.08.9-.75,1s-.54.06-.55.6c-.09,2.43-1.5,2,1.48,2.32.06-1.08,1.49-1.66,1.44-2.72C68.28,22.8,67.91,22.92,66.66,23Zm-1.1-1.88c.33.15.5.06.62-.28s1.12-1.16.31-1.45C64.48,19.5,62.31,19.9,65.56,21.15ZM62.69,31.62c.37-.85.18-2.38-.71-1C62.27,30.92,62.36,31.41,62.69,31.62Zm-5.9,8.86c.41.7,1.9-.67,2.69-.59.51,0,.65-.65.77-1.07.55-1.63,3.62-6.17-.26-4.63C56.2,35.57,57.9,37.61,56.79,40.48ZM56.63,13.2c-.88.49-1.24,1.54-2.1,2.17-.23.33.69.62.95.55.48-.1,1.06-.74,1.58-.59.35-.39,1.69-.16,1.58-.7-.4-.59.08-1.27,0-1.87-.25-.38.12-.66.08-1A8.42,8.42,0,0,1,56.63,13.2Zm.55-2.72c-.48.81-1.6.8-2.31,1.39,1.86,1.82,2.76-.5,4.53-1.2-.38-.5-.68-1.1-1.32-1.33C57.21,9.05,57.21,9.92,57.18,10.48Zm-8,.85c-.85.34-3.1-.6-3.31.45.38.5-.42,1.07-.26,1.63.53.91,1.72.5,2.52.64a1.16,1.16,0,0,0,1.35.58,1.58,1.58,0,0,0,2-2.28C50.39,12.85,49.94,11.56,49.17,11.33Zm.92,35.44c-.6.26-1.21-1.08-1.57-.19-.42.68-3.12.92-2.52,2.16h0c.18.22.37.45.57.66.45.35,1,1.2,1.43.38a4.06,4.06,0,0,1,2.77-1.53s.2-.1.11-.3C50.66,47.48,50.91,46.56,50.09,46.77ZM42,44.63c-.22.13.32.69.46.44.69-.42,1.35.94,2,1.18,1.42.82,1-3.16.2-3.43C43.38,41.78,42.42,43.79,42,44.63ZM39.17,10.51c-.83.43-1.54,1-1.43,2,.65-.12,1.22-.66,1.89-.26.25.14.63.48.93,0,.74-.27,1.89-.33,1.89-1.34.19-.89-1,0-1.43-.11C40.34,10.82,39.83,9.87,39.17,10.51Zm.21,8.35c0,1.55-2.51,1.2-3.49,1.94-.23.12-.23.22,0,.32.27.63,1.07,0,1.61,0,1.27-.21,2.37-.61,3.67-.89a.65.65,0,0,1,.71.12c.49.13,1.09-.2,1.61-.2C42.47,16.65,42,18.53,39.38,18.86Zm1.26,36.42a2.06,2.06,0,0,1-1.72.27c-.69-.14-.21.31-.41.65A1.79,1.79,0,0,0,37.89,58c.73.12,1.32-.52,2-.73.78-.51,2.16.53,1.84-1-.34-.4.16-.62.37-.88s.37-.31,0-.53C41.73,52.77,40.9,54,40.64,55.28ZM39,32.94a2.34,2.34,0,0,0-1.26,1c.08.9.41,1.94,1.4,2.08.63.35,1.1-.53,1.77-.41.36.07.62-.25.76-.54.27-.89.56-2.24-.58-2.54C40.45,32,39.48,32.46,39,32.94Zm-5.3,29.69c-.11,2.89,1.48-.07,2.28-.79.59-.33.19-.86.4-1.24a.17.17,0,0,0-.11-.29C35.18,61.05,33.31,61,33.66,62.63Zm-3.08-16c-1.65,2.39.08,6.06,1.18,1.51.15-.8,3.29-3.29.87-2.93C31.69,45.7,31,45.38,30.58,46.67Zm1.63,6.45c-.38-1.18-1.8,1.5-2.7.82-.09,0-.21,0-.32,0,0,1,.62,2,1.48,1,.68-.14,1.41.5,1.84-.33.17-.11.13-.18,0-.28C32.12,54.09,32.17,53.56,32.21,53.12Zm-1.58-39c-.25.59,1.22,1.75,1.32.81-.18-.52.74-.34.3-.77C31.88,13.31,30.21,12.67,30.63,14.16Zm-1.51,1.35a1.12,1.12,0,0,1,0,1.25c.7-.22,1.33-.65,2.15-1,.05-.3-.18-.18-.35-.25C30.58,15.21,29.18,14.79,29.12,15.51Zm1,15.12a2.31,2.31,0,0,1,.38-1.93,2,2,0,0,0-1.86,1.35C28.22,32.1,29.28,32.7,30.09,30.63ZM26.45,86.35a3.06,3.06,0,0,0,3.11-.8c.72-.66-1-1.9-1.38-.94C27.66,85.3,26.39,85.22,26.45,86.35Zm1.74-21.69c-.41.1-1.29,0-1.3.61s-.5,1-.2,1.6c.7,1.12-.71,4.66,1.43,4.23.48-.44,1.49-.69,1.44-1.46C29.18,68,30.11,65.55,28.19,64.66Zm-2.69-26c-.77.82-2.08,1.7-1,2.8.73-.39,2-.43,2.27-.71.12-.38.53-.8.47-1.18C26.77,39.24,26.11,38.2,25.5,38.62Zm.69,11.12c-.17-1.44-1.86-1.19-2.72-2-.37-.35-.6.53-1,.58a1.1,1.1,0,0,0-.06,1.79c.82.76-.24,1.41-.34,2.16,1,.52,2.33.48,3.26,1.15.34.44.78-.53,1.37-.44.43-.15-.2-.42-.24-.6C26.39,51.48,26.9,50.55,26.19,49.74ZM21.25,17.61c1.08.7,2.2.11,3.31.63.56.52,1.48.24,2.1,0,.77-.56-1.38-1.06-1.86-1C23.64,17.7,22.19,16.55,21.25,17.61ZM19.53,73.77c-.19-.12-.38,0-.39.13-.85,1.22-4.32,2.1-3.25,4.16.59,1.35,1.95-.89,3,0a5.52,5.52,0,0,1,1.82,1c.2.45.73-.28,1.11,0,.56-.07,1.18.59,1.6.38.45-.5,1.19-.5,1.34-1.24.07-.49.83-1.86-.05-1.77C22.83,76,21.42,74.39,19.53,73.77ZM23.09,28.2c-.3.29-.26,1-.94,1.16-1.09.37-1,.89-.7,1.89.27,1.37,1.48.26,2.32.36.9-.16-.09-1.26.35-1.81a.35.35,0,0,1,.19-.48c.39-.14,0-.22,0-.22C23.73,29.12,23.56,28.35,23.09,28.2ZM22,64c.43-.72-.69-1.49-.65-2.3-.14-.28,0-.32.17-.35a2.35,2.35,0,0,0,1.59-2c-.12-1.08-1.81-1.86-2.69-2.54-.58,0-.61.53-.84.9-.45.54-1.12,1.38-1,2.07.29.75,1.19,1.65.24,2.28-1,.95-.34,2.3-.94,3.47-.56,1.69.06,1.06.62,2.26.47.71,2.52-.57,3.55-.3.33,0,.36,0,.37-.36-.08-.75.84-1.19.84-1.87C22.85,64.74,21.5,64.7,22,64Zm-4.69,23.7c-1.42.32-1.66.92-1.89,2.21,0,0,0,.12,0,.19,1.18-.49,2.47-.26,3.55-1,.56-.57,3.09-1.32,1.69-2.15C19.76,86.06,18.37,87.51,17.29,87.66ZM18.72,21.5c-.19,1-.53,3,.62,3.34.1-1.09.14-2.41,1.15-3.21l.14-.14C20.08,21.46,18.84,20.66,18.72,21.5Zm1.1,71.35a10.26,10.26,0,0,0-1.84.84A4.27,4.27,0,0,0,15.19,95a18.6,18.6,0,0,0,2.67-.14c.91.24,2.42-.09,1.74-1.27C19.34,93.17,19.7,93.14,19.82,92.85ZM16.19,49.44c-.85.83.2,1.45.11,2.39.24.9.91-1.12,1.37-1.25,1.13-.95.94-2.28,1.55-3.47A4.8,4.8,0,0,0,16.19,49.44ZM14.58,30.53c.1.52-.07,1.4.69,1.4.18.07.09.22.14.44a2.9,2.9,0,0,0,2-2.46c.25-.79-1.19-.67-1.46-1.38C15.27,27.78,14.79,30.08,14.58,30.53ZM13,43.37c-.29.2.09.13.14.27.87.47,2.32,1.89,1.64-.18C14.17,42.71,13.65,42.75,13,43.37Zm-.1,23.26c.23-.72-1-1.72-1.58-2.4C9.39,66.86,9.6,72.65,12.88,66.63ZM9.73,87.41a7.15,7.15,0,0,1-2.1,1.24c-.35.14-1.36.22-1,.78.31.41.13,1.16.6,1.44,1.57.88,2.76-.94,4.28-1a1.05,1.05,0,0,0,1-.94c.39-1.06-1.22-1.26-1.86-1.75C10.17,87,10.15,87,9.73,87.41ZM9.39,97.83c-.5.63-1.33,0-1.91.53-.48,1.63,2.44.51,3.32.91.5.07.7-.51,1.11-.81.06-.09.1-.18-.07-.2C11,98.26,10.19,97.32,9.39,97.83Zm1.37-39.59c-1-.91-1.28-1-1.56.39-.2.48.65.46.87.76.43.23.75-.57,1.26-.44C11.11,58.74,11,58.45,10.76,58.24ZM7.07,75.49A1.39,1.39,0,0,1,7,76.87a.65.65,0,0,0,0,.29c.76.16,1.48-.81,2-1.31.24-.27,1-.33.73-.78C9.21,72.73,7.14,73.55,7.07,75.49Z"/><path id="fill0" d="M97.63,2.94c-1-.95-2.38-.62-3.42-1.3-.36-.35.06-1.36-.71-1.32-1.43-.22-3,.4-4.36,0-.93-.75-2,.22-3,0-2.28,1.28-4.57.88-7,.71-1.11.19-2.32.06-3.29.7-.5,0-.34,1-.91.91-.71.16-2-.45-2.24.48,0,.09,0,.18-.12,0a1.82,1.82,0,0,0-1.81-.72c-1.58-.17-3,2.42-4.46.92-.28-.38-1.14,0-1.37.29-.29.51-.82.24-1.25.12-.62-.33-1.21.11-1.84-.11s-1,.44-1.26.86c-.5.24-2,0-2.52.45-.84.71-1-1.43-2.09-1.21-1.93-.38-1.7,3.15-4,2-.94-.4-2,.32-2.79.21-.43-.25-1,.09-1.29.44-1.34,1-3.54,1.13-5.18,1.35-1.28-.42-2.23-1.21-3.46-.38-1.47.36-3,.29-4.29,1.1-1.19.18-.78,1.59-1.46,2-.41,0-.64.34-1,.47-1,.77-2.15-.29-3.29-.17-.7.26-1.57-.36-2.08.41-.62,1.39-2.59,1.35-3.53.35-2-.63-3.9,1.48-5.44,2.58-1.49-.41-3.08.43-4.69.62-.51.05-.51,0-.65.52s-.54.85-.62,1.36c-.9.53-2.5,0-3.61.45-1.44,1.6,2.57,3.13,2.73,4.87a1.08,1.08,0,0,0,.61.76c.41.46,0,1.52-.26,2.05-.77.78,0,1.76.42,2.5-.28,1.32-2.46,2.88-.71,4,.26.35.87,1,.45,1.43-1.87,1.92.21,3.45.49,5.46,0,.53-.81.57-.91,1.16s-.76.21-.91.64c-.29.61-.46,1.77-1.2,1.89-.53-.08-.71.44-.89.83-.3,2,1.29,2.55-.67,4.5-.72.47-1.15,2.11-.3,2.64.32.22.82.49.73,1C6,53.06,4.81,54.33,8,56.4c-.71.29-1.64-.64-2.21.29-1.06,1.44-3.87,2.91-2.38,4.92-.16,1.21-2.11.85-1.89,2.62-.67,1.85.7,3.32.73,5,0,2.5-.53,5.7,1.6,7.52a30.72,30.72,0,0,0-1.79,5,11.44,11.44,0,0,0-.42,4c-.09,1.12,1.77,2.46.66,3.41-1.18,1.3.57,3,.14,4.56C1,95,1,97.21.07,99a4.22,4.22,0,0,0,1.74,3.9c.44.23,1.06.17,1.17.78.31,1.13,2,1.58,3,1.64,1.25,1,3.9.15,4.14-1.5,0-.18,0-.49.31-.37,1.29-.15,3.07.6,4.09-.45.25-.22.6-1,1-.77,1.89.54,3.83.41,4.58-1.7-.27-2.4,3.33-2.6,3.32-4.92-.33-1.08,1.15-1.81.38-2.9.56-.25,1.26.5,1.9.29,1.17-.42,2.77-.26,3.49-1.38,0-.72.75-1.7.17-2.31-.52-.43,0-1.24-.73-1.57-.21-.06-.85-.75-.39-.78C29,87,29.24,86,30,86c.08,0,.22-.15.21-.2-.12-.59.55-.64.9-.91s.39-.17.52.09c.21.56.82.5,1.25.75,2.41,1.14-1.33-5.56,1.21-5.06.54.58,1.83,0,1.8,1.18.24.61.71,1.07,1.35.54.6-.74,2-1.32,2.26-2.13-.17-.29.05-.4.15-.58.28-1.15,1.33-1.82,1.51-3,.68-1-.87-1.59-.82-2.6,0-.62.83-1.2.74-1.85-.38-.57,0-1.14-.08-1.7-.27-.55.37,0,.39-.26.25-.69,1.62-.12,2-.85a7.31,7.31,0,0,1,3-3.4,13.47,13.47,0,0,1,4.33-4.46c2-2.56-1.73-2.4.69-4.18.58,0,.5-.88,1.17-.62.87,0,1.32-1.42,1.4-2.15-.05-.9,1-1.48.54-2.42-.22-.46.07-.76.37-1.12.52-1,1,.77,1.57.25.41-.51,1.15.13,1.43-.35.12-.5.68-.6.91-.91.46-1.58.85-3,2.23-4.05.87-.64-.11-1.67.45-2.47.1-.47-.41-.88-.44-1.37-.34-1.37,3.23.08,3.34-1.67a2,2,0,0,1,.79-1.75c.47-.83.53-1.85.94-2.79.37-1.28,1.65.83,2.28.38.57-1,1.74-1.31,2.49-2,0-3-1.07-4.66,2.92-5.33,2.45.4,1.91-1,2.39-2.51.5-.56,1.34-1.17,1.2-2a1.33,1.33,0,0,1,.39-1.58c.32-.25.27-.57.23-1.13a11.67,11.67,0,0,0-.37-2.52c1-.2,2.74-.32,2.49-1.71.33-1.1,2.29-.4,2.68-1.55.24-.87,2.85-.13,2.63-1.24.09-1-1.92-1-1.33-1.8a3.24,3.24,0,0,1,1.44-.56c.94-.24,1.6-1.46,2.65-.88.82.24,1.34-1,2.26-.91.67-.38,1-1.23,1.91-1.21s2.45-.86,1.5-1.87c.53-.13,1.07.3,1.54-.13s1.07-1,.72-1.7C97,5.07,98.38,4.22,97.63,2.94ZM4.28,59.24c1-.76,1.69-2.86,3.11-2.34.54.38,1.09-.07,1.58.24.46.09-.54,1.86-.9,1.63s-.81,0-1.11-.37a.27.27,0,0,0-.48.05C6,59.09,5.32,59.37,4.9,60c-.12.66.32,2-.67,2.07C4,61.12,3,60.06,4.28,59.24ZM12,52.16c-1.2-3-3.14-1-.55-4.3.14-1-2.06-2.11-.58-3.14.61-.27.59-1.28,1.41-.9.58.11.82.62,1.32.83.24.14.7.22.56.59-1.11.61-.55,1.51-.55,2.39-2.52,3.44-1.46,4.38,2,6.24.35.17.34.17.12.53-1.29,2.48.68,4.63,2.54,5.86,1.12,1.26-.7,1.64-.55,2.93.2,1.84-1.11,4.64-3.32,3.8-1.15-.41-1.5-2.2-2.51-3-.27-.49.86-.8,1.1-1.21.21-.73,1-1.14,1.41-1.71-.1-3.38-3.44-.63-3.66-5.58-.1-1.3,1.63-.83,1.86-2.1C12.47,52.85,12.46,52.4,12,52.16Zm4.85-31.68.26.1c-1,1-2.37.16-3.61.64-.77.36-.83-1.12-.19-.95s1.07,0,1.29-.53c.32-.94,1.47-.46,2.23-.5C16.57,19.59,16.46,20.27,16.82,20.48ZM16,22.89c.29-.58.36-1.3,1.1-1.58.36,0,.29-.26.3-.58,1.58.37-.12,2.48.84,3.69.62,1.44-1.15,1.86-1.88,2.74-1,.41-1.54-1-1.49-1.76C14.36,24.1,16.74,24.3,16,22.89ZM43,10.54c-.13-.29.19-.25.35-.32.63,0,1.92-1.18,2.13-.06.85.29,1,.44.09.92-.34.11-.51.55-.87.46-.61.3-1.19,0-1.84.05A1.11,1.11,0,0,0,43,10.54ZM76.38,4.7c.53-1.34,1,.66,1.38,1.08,1.12,1-.43.94-1.24,1.11-1.15.27-2.07,1.12-3.16,1.4-.59.06-1.08-.4-1.69-.2-.64,0-1.89,1-2.26.16A.62.62,0,0,0,69,7.51c-1.26-.81,1-1,1.5-1.3.91,0,1.64,1.51,2.68.44.13-.11.22-.28.4-.07C74.94,6.75,76.67,6.44,76.38,4.7Zm14.7.94c-.5,0-.76-.64-1.31-.4A1.36,1.36,0,0,1,89,5.16c-.61-.43-1.81,0-2.07-.76.14-.63.78-.47,1.18-.75,1,.06,1.59-1,2.34.05C92.72,4.36,94.63,4.55,91.08,5.64Zm0,.58c-.59.12-.32.92-.74,1.14a16.52,16.52,0,0,0-1.64.72A1.55,1.55,0,0,1,91.11,6.22ZM87,5.9c.43-.64,1-.43,1.66-.23C88.12,7.32,86.51,7.8,85,8.28c-.54-.21-1.53-.6-.67-1.15C84.68,5.74,86.2,6.65,87,5.9Zm-9.16,7.61a2.64,2.64,0,0,1-.93,1.86,4.11,4.11,0,0,0-1.76.5c-1,.56-1.67,1.56-3,1.51-.37.37-.6.08-.66-.35,0-.78,1-.92,1-1.58.29-1.39,1.2-3.55,2.74-3.82,1,.12,1.47-1,2.35-1,.48.33,2-.52,1.76.49S77.35,12.42,77.83,13.51ZM66.66,23c1.25-.11,1.61-.23,1.62,1.22,0,1.06-1.39,1.64-1.44,2.72-3-.37-1.57.12-1.47-2.32,0-.53,0-.53.54-.6S65.72,22.92,66.66,23ZM45.28,56.31c1,.91,1.36,1.2-.25,1.47-.73-.12-1.38.88-2,.59-1.74-1.66.19-4.68,2.23-5a2.76,2.76,0,0,0,2.2-2.23,5.87,5.87,0,0,1,5-2.41c-.36.42-.09.94-.4,1.3-.41,0-.59.32-.76.56-.24.47-1,.41-1,1s-.6.5-.78.82a2.94,2.94,0,0,1-2.36.86c-.41-.39-.75-.14-1,.13s-.49,0-.8,0A2.16,2.16,0,0,0,45.28,56.31ZM23.89,86.83c-.66-.21-1.23.41-1.8.63-.65.52-.58-.78-1.06-1.07.36-1,2.6-.76,3.53-1.49.5-.09.82-.56,1.29-.67.83.17,1.14-.78,1.88-.81s-.12.73-.27,1c-.6.33-1.77.76-1.66,1.68S24.48,87,23.89,86.83ZM19.6,93.54c.68,1.19-.83,1.52-1.74,1.27a17.29,17.29,0,0,1-2.67.15A4.27,4.27,0,0,1,18,93.69a10.66,10.66,0,0,1,1.84-.84C19.7,93.14,19.34,93.17,19.6,93.54Zm-15,6.61,0,.11c-.5,0-.38-.81-.85-.91-1.24-.24-2-1.56-.24-1.54C5.84,98.27,4.22,98.79,4.61,100.15Zm-1-3c-.14-.72,1.38-1.91,2.11-.62C6.24,98.35,4.61,97.61,3.64,97.16Zm1.87,1.58c.33-.74,1.13-.6,1.3.17.16.25.56.4.31.8-.25.91-1.07.59-1.67.84C4.66,100.57,5.46,99.2,5.51,98.74Zm1.65-1.09c-1.08,0-.42-1.27-1.25-1.75-.53-.6-1.1-1.71,0-2.14a.63.63,0,0,0,.76,0C7.54,94.48,8,96.65,8.3,97S7.43,97.58,7.16,97.65ZM6.5,87.77c-1.06-2.69-1.75-2.11.8-4,.1-.57-.57-.85-.17-1.38.14-.72,1.84-.64,1.29-1.62.09-.45-.23-.62-.54-.83s-.8-1.2-.49-1.62A.32.32,0,0,0,7.72,78l.26.09c3.91,6.18,1,2,.84,6.7,0,.7.71,1.11.71,1.83C8.77,87.8,7.21,88,6.11,88.76a2.16,2.16,0,0,0,0-.28C6.33,88.28,6.59,88.12,6.5,87.77ZM6.4,72.26c.29-.13.57.86.91.91.62.31-.44.67-.4,1.11-.1,0-.2,0-.2-.08C6.85,73.53,6.15,72.81,6.4,72.26Zm-.66-6.7c.78-.66,3.89-4.37,3.84-1.93-1.67,1.29-1.17,4.42-2.32,6.26C7.15,68.5,4.84,66.48,5.74,65.56Zm-.62-.3a.45.45,0,0,1-.17.08c.06-.6-.63-3.06.29-2.81C7.05,63.74,6.26,64,5.12,65.26ZM18.5,59.75a3.52,3.52,0,0,1,1.06-2.06c.23-.39.26-.92.84-.92.88.69,2.57,1.48,2.69,2.55a2.38,2.38,0,0,1-1.59,2c-.2,0-.31.07-.18.35,0,.81,1.09,1.57.66,2.31s.87.77,1.21,1.27c0,.66-.92,1.11-.84,1.86,0,.33,0,.34-.37.37-1-.28-3.09,1-3.55.29-.56-1.2-1.18-.58-.61-2.27.6-1.17-.07-2.51.93-3.46C19.71,61.4,18.79,60.5,18.5,59.75ZM16.62,35.93c.9-.14,4-1.44,4.22-.3.38.75.38,1.55.81,2.3.37.57-.19,1-.29,1.46,0,.27-.14.33-.3.41-.36.16-1.61.49-1.52-.13.24-.31-.09-.39-.13-.64-.44-1.23-3-1-2.86-2.46C16.51,36.32,16.87,36.14,16.62,35.93ZM45.86,11.77c.21-1,2.46-.1,3.31-.45.77.23,1.21,1.53,2.31,1a1.59,1.59,0,0,1-2,2.28,1.15,1.15,0,0,1-1.35-.57c-.8-.15-2,.26-2.52-.65C45.44,12.85,46.23,12.27,45.86,11.77Zm1-1.25c.68-.52,1.73-.49,2.43-.84.51-.18.14,1-.08,1a2.18,2.18,0,0,1-1.31.05C47.64,10.93,46.66,10.81,46.84,10.52ZM59,12.59c-.21-2.13,2.67-1.81,4.13-1.71-.16.83-1.83,1.35-2,2.37a3.08,3.08,0,0,1-.69.9c.24.33-.12.41-.24.58-.52.87-.48.39-1.08-.11S59.22,13.3,59,12.59ZM70.49,8.7c1-.35,2.8-.57,3.45.29,0,.3-.73.47-1,.4-1,.14-2.07.54-3.11.62-2,.27-.27-1.37.66-1.3h0ZM75,8.12a11.73,11.73,0,0,1,4.73-1.23c.45.34-.42,1.28-.6,1.76-.47.38-.09.81,0,1.25-1.69.64-2.39-.41-3.94-.39-.32-.15-1-.2-.75-.68C74.34,8.37,74.72,8.25,75,8.12Zm-.6,2.21c.59-.48,1.5-.1,2.17,0-.66.9-1.8.44-2.61,1.06-.08.07-.24.23-.36,0A6.89,6.89,0,0,1,74.4,10.33Zm-4.88,1.26c-.59-.46-1.82-.28-1.61-1.32,0-.17.36-.44.53-.25,1,1.13,5-1.33,5.41.05-.35.25-.53,1.38-1,1-.09-.07-.29,0-.44,0C71.35,11.12,70.52,12.43,69.52,11.59ZM70,12.93c-1.46,1.33-2.57,2.51-4.67,2.66-.52.23-1-.18-1.35.1.14-1.14,2.34-2,2.17-3.26a10.07,10.07,0,0,1,1.78-.8C68.51,11.89,70.42,12.1,70,12.93ZM68.64,9.4c-1,.27-1.53.56-1.16,1.65a1.29,1.29,0,0,1-1.45.48,3.48,3.48,0,0,1-2.52-1.79c.21-.78,1.58-1.09,2-2,.56-.51,1.47-.28,2.16-.57.21,0,.56-.16.65.17C68.68,8,69.5,8.82,68.64,9.4Zm-4.78,1.81c.51.27,1.91.77,1.83,1.25A11.85,11.85,0,0,1,63.58,15c-.41.6-1.2-1.14-2.07-.9C61,13.5,63.28,11.51,63.86,11.21ZM61.64,29.86a7.32,7.32,0,0,0,.8-1.82,11.81,11.81,0,0,1,2.39-3.26c.31.51-.6,1.36-.3,2C64.48,28.25,62.91,29.42,61.64,29.86Zm1,1.76c-.32-.21-.41-.7-.69-1C62.86,29.24,63.07,30.77,62.68,31.62Zm-5.52-.18c.44,1.34-3.84,1.29-4.16.48-.59-.65,0-1.43.13-2.15s-.54-1-.75-1.5.33-1.56,1-1.31a7.53,7.53,0,0,0,3.19-.54c.56-.34,1.07-1.15,1.77-1a6.26,6.26,0,0,0,1.15.46c-1.21.78-.86,2.25-.11,3.3a11,11,0,0,1-1.15.15C57.61,29.84,56.69,30.54,57.16,31.44Zm-4.61,8.39c.44-1.45-2-1.64-.71-3.43.35-1,1.77-1.72,1.33-3-.16-.32,0-.4.41-.52.55-.06,1.78-.14,1.93.37-.09,1.18.72,2,1.14,3.16-.21.38-.7.45-.94.84a4.34,4.34,0,0,0-.94,1.88c-.35,1.13-1.76,1.18-2.41,2.08C52.49,40.63,52.22,40.36,52.55,39.83ZM42.33,51.48c.2.53-.47.92-.39,1.43-.28.18-.81.12-1.16.31-.52-.51-.33-1.55-.15-2.26.55-.27,1-1.67,1.51-1.09C42.72,50.27,42.13,50.86,42.33,51.48Zm-.59,4.73c.33,1.54-1.06.51-1.85,1-.68.21-1.28.84-2,.73a1.8,1.8,0,0,1,.63-1.76c.19-.34-.28-.79.4-.65a2,2,0,0,0,1.72-.27c.27-1.28,1.1-2.51,1.53-.48.32.22.13.37,0,.53S41.4,55.81,41.74,56.21Zm-4.67,1.28a1.27,1.27,0,0,1-.35-1.5c.54-1.9,1.52-2.86.94-.12A2.43,2.43,0,0,1,37.07,57.49Zm-1.13,4.36c-.81.72-2.39,3.67-2.28.78-.36-1.6,1.52-1.58,2.57-2.32a.17.17,0,0,1,.11.28C36.14,61,36.53,61.51,35.94,61.85Zm-9.25,5c-.3-.57.12-1.07.2-1.59s.89-.51,1.3-.61c1.92.89,1,3.38,1.37,5,.05.77-.95,1-1.44,1.46C26,71.53,27.39,68,26.69,66.86Zm-1.17,9.39a4.48,4.48,0,0,1,2.69-.2c.48.64,1.42-.81,1.32-.14a6.09,6.09,0,0,1-3.39,4.27c-1,.28-1.12,1.62-2.33,1.66.39-.7-.66-1.87.29-2.26C25.25,79.54,26.18,76.93,25.52,76.25Zm-.75,2c-.15.73-.9.74-1.33,1.24-.43.21-1.06-.44-1.61-.38-.38-.24-.91.48-1.11,0a5.39,5.39,0,0,0-1.83-1.05c-1.05-.9-2.41,1.34-3,0-1.07-2.07,2.39-2.95,3.25-4.17,0-.16.19-.26.38-.13,1.9.62,3.31,2.24,5.2,2.68C25.6,76.36,24.84,77.74,24.77,78.22ZM6.86,92c-.59-1.16,1.2-.47,1.47,0a1,1,0,0,0,.39.69,4,4,0,0,1-.64,2.28c-.32-.56-.44-1.22-1-1.63C6.63,93,7.05,92.46,6.86,92Zm3.47-11.23c-.32-1-1.38-1.49-1.7-2.46,1.44-.58,4,0,4.85-1.38.12-1.54,2.65,1.49,1.81,2.29-.13.78-1.51,1.47-1.28,2.06.53.3,1.48.38,1.08,1.2-.26.48-.28,1.82-1,1.66a9,9,0,0,0-4,1.66c-1.13-.31-.82-2.79.15-3.29C10.84,82.09,10.34,81.36,10.33,80.77Zm2.89,8.1c-.36-.92.52-1,1-1.59,1.95-1,.42,5.32-1,3.17-.14-.13-.28-.25-.12-.48C13.15,89.57,12.77,89.18,13.22,88.87Zm-.58-1.25c-.86-.14-1.53-1-2.47-1,.54-1.06,4.7-3.11,4.23-.95A2.67,2.67,0,0,1,12.64,87.62Zm2.44-1.85c.1-1.45.15-4.2,2.28-3.59.4.35,1.33-.42,1.47,0,0,1.46,1,2.39,1.88,3.36a29.24,29.24,0,0,1-4.78,2C15.38,87.38,14.73,86.4,15.08,85.77Zm2.18-4.18a1.38,1.38,0,0,0-1.61.5c-1-1.16-.69-1.12,0-2.42.26-.84,1.21-.2,1.65-.83.21-.17.49-.42.79-.34.94-.07,1.4.59,2.16,1,.2.08.22.21,0,.28A1.78,1.78,0,0,0,19.43,81C19.23,81.68,17.83,81.74,17.26,81.59Zm-6.65,5.59c.65.5,2.25.7,1.86,1.76a1.05,1.05,0,0,1-1,.94c-1.53.06-2.72,1.87-4.29,1-.47-.29-.29-1-.59-1.44-.32-.55.69-.65,1-.78a7.23,7.23,0,0,0,2.09-1.24C10.15,87,10.17,87,10.61,87.18ZM9,91.83a4.57,4.57,0,0,1,2.47-1.45c1-.45,1.19.72,1.95,1-.63.65-1.16,1.77-2.09,2C10,93.5,9.2,95.46,9,96.71c0,.3-.21,0-.3-.11C8.18,95,10.17,93.28,9,91.83Zm.8,4.06c.39-1.68,1.89-2.69,3.46-1.9,2.29.77,1.26,1.55-.57,1.27-.89.82-2.05.72-2.77,1.48C9.36,97,9.79,96.14,9.83,95.89Zm2.78-2.69a6.56,6.56,0,0,1,4.2-3c.84.51,3.18.05,3,1.43C19.12,93.18,17,93,15.74,93.75,14.71,94.42,13.64,93.35,12.61,93.2Zm2.81-3.14c0-.06-.05-.15,0-.19.24-1.29.49-1.9,1.9-2.21,1.08-.15,2.47-1.6,3.37-.74,1.4.83-1.13,1.58-1.69,2.15C17.89,89.8,16.6,89.57,15.42,90.06Zm5.45-5c-3.78-2.51,1.76-8.64,2.77-3.1A17.81,17.81,0,0,1,22,84.55c-.12.57-.37,1-1,1A2.17,2.17,0,0,0,20.87,85Zm-.19-11.3a6,6,0,0,1-3.59-3.09,4.47,4.47,0,0,1,3.18-2.45c.64,0,1.83-.53,2.05.3a29,29,0,0,1,1.15,4.86c.45.4,0,.62-.17.89C22.74,75.73,21.72,73.79,20.68,73.73Zm2.78-2.91c-.75-2.46-1.3-6.45,2.52-5,.2,1.67.69,4,.35,5.67C24.65,73.07,23.9,73.35,23.46,70.82Zm1.74-5.59A4.67,4.67,0,0,1,23,64.51c-.46-.33-.47-.33-.22-.84S22,62.92,22,62.24c0-1,1.47-1.34,1.56-2.44.19-.47-.31-1.4.39-1.51,1.82-.19,1.49,2.37,3.28,2.52,1.61.07.53,1.57.94,2.46.08,1-1.13,1-1.76,1.24S25.77,65.25,25.2,65.23ZM17.3,52c.92-1.38,2.18-3,4-2.73.25.69,1.49,1.34.69,2.14-.63.92-1.76,1-2.57,1.68a1,1,0,0,1-1.15.36c-.48-.32-1.91.18-1.83-.41C16.7,52.67,17.11,52.41,17.3,52Zm-1-.21c.09-.94-1-1.56-.1-2.39a4.78,4.78,0,0,1,3-2.33c-.61,1.19-.42,2.52-1.55,3.47C17.21,50.72,16.54,52.73,16.3,51.83Zm4-6.73c-.8-.83-.43-1.61.68-1.48a1.79,1.79,0,0,0,1.31,0,1.17,1.17,0,0,0,.4,1.83c.85.33-.28,1.45-.26,2.12-.7,1.14-1.81,1-2.95,1.27C18.67,47.92,21,46.29,20.34,45.1Zm4.21-14.25c-.54-.84.59-1.85,1.35-2,3.17,1,2.18-.42,2,2.95.36.74-.38,1.36-.54,2.09-.38,0-.27.57-.73.54s-.58.3-.76.61c-1.15,0-.37-1.66-.88-2.27C24.21,32.17,24.82,31.5,24.55,30.85Zm-.43-1.05c-.44.56.55,1.65-.35,1.81-.84-.1-2.05,1-2.32-.37-.31-1-.39-1.51.71-1.88.67-.14.63-.87.93-1.17.46.17.64.92,1.19.91,0,0,.42.08,0,.23A.34.34,0,0,0,24.12,29.8Zm.22-3.53c.84-1.42,2.46.56,3.42,0a20.36,20.36,0,0,1-2,2.12c-.37,0-.72,0-.89.42-.44.1-.94-.46-1.18-.83s-.62-1-.23-1.2A1,1,0,0,0,24.34,26.27Zm1-2.34c.38,1.23.59,1.86-.79.77-.09-.21-.19-.32-.25-.45C24,23.64,25.18,23.53,25.37,23.93Zm2.25.34a9,9,0,0,0-.06,1.79c-.32-.07-.31-.56-.74-.51s-.41,0-.53-.41c-.93-1.2.07-1.27.5-2.23a1.07,1.07,0,0,0,.07-.25c.28.44,1.14.49.8,1.09C27.6,23.91,27.54,24.18,27.62,24.27Zm6.25-3c-.76-.67-2.06.18-2.72-.79.48-.77,2.86-1.62,3-.27C34.1,20.51,34.4,21.49,33.87,21.27Zm-.56.26c.64,0,.66.86,1,1.1a.88.88,0,0,1,.5.59,3,3,0,0,0-2.61.06c-.41.21-1.07-.17-1.39.3s-.46-.1-.82,0c-.35-.08-1.44-.75-1-1.19.34-.64.86-2.07,1.8-1.44A3.5,3.5,0,0,0,33.31,21.53Zm21.36,0a9.3,9.3,0,0,0,1.49,1.93c-2.36,1.07-3.8-1.33-5.64-2.17-.56-.49.82-1.38,1.25-1.7.31-.15.81.09,1.13-.13a3.14,3.14,0,0,0,2,1.39C54.63,21.07,54.43,21.25,54.67,21.58ZM52.62,32.26c-.19.64.46,2.4-.77,2-1-.7-2.72-.58-2.86-2,.1-.67-.85-1.42-.17-1.93.5-.48.27-1.34.91-1.77.93-.14,2.24-.07,2.76.83C52.2,30.38,51.93,31.39,52.62,32.26ZM38.31,53.33c-.08-.92.89-1.36,1.58-1.71a7.31,7.31,0,0,0,.46,2.67c-.2.76-1.06.91-1.74.85C38.17,54.76,38.46,53.89,38.31,53.33Zm1.75-2.63c-1.29,1.3-2,.47-3-.56,1.27.24,2.53-.43,3.82-.21A2.75,2.75,0,0,0,40.06,50.7Zm-4,6c.12.38,0,.51-.31.39-.77-.27-1.43.14-2.16.22-.4-.14-1.42-2.12-.43-2.13.07-1.1,1.6-1,2.36-1.78.34-.27.48.2.69.37C37.23,54.37,35.7,55.76,36,56.66ZM22.46,50.15c-.53-.56-.65-1.32,0-1.78.37-.07.6-.94,1-.59.86.77,2.55.51,2.73,2,.7.81.19,1.74.31,2.68,0,.18.65.44.23.6-.59-.09-1,.88-1.37.44-.93-.67-2.23-.62-3.26-1.14C22.21,51.56,23.27,50.92,22.46,50.15Zm7.63-19.53c-.82,2.08-1.87,1.47-1.47-.57a2,2,0,0,1,1.85-1.36A2.36,2.36,0,0,0,30.09,30.62Zm-1.41,1.71c.29,0,.62.49.83.16.3-.64,1.29-.92,1-1.76,0-.24.12-1.16.31-1.22.58.28,1.47.49,1.7,1.17.42.83-.59,1.51-.42,2.38-.55.72.2,1.79-.44,2.39-2,1.22-2.31,1.1-4.26,0C26.76,34.59,28.58,33.3,28.68,32.33Zm6.63-8c1,.52-.7,1.17-1.21,1.33-.41,0-.28.35-.51.59-.49-.59-1.17-1-1.84-.53-2.08-1.51.24-2.06,1.7-2.3.34.2,1.1.49,1.43.19C34.84,24,34.91,24.26,35.31,24.35Zm13.77,4.42c-.68.46-.29,1.31-1,1.72-.47.24-.1.57.15.8a1.64,1.64,0,0,1,.35,1.5c-1.17,1.27-3.17,1.64-4.4,3-.49.66-1.37-.23-1.91-.39.31-.81-.17-1.89.41-2.6.78-.73,2.08-1.81,1.5-3-.39-.81,1.06-.22,1.07-1,.21-.72,1.09-.81,1.66-1,.5.22,1.31-.5,1.66.29a.5.5,0,0,1,.41.62A.61.61,0,0,1,49.08,28.77ZM48.81,40s0,.14,0,.22c-.48-.56-1.09-.33-1.69,0a1.94,1.94,0,0,1,1.76-2.35C49.4,38.52,48.31,39.29,48.81,40Zm-.44-2.67c-.71.18-1.67,1.8-2.08,1.08-.07-1.11,1.28-1.35,1.25-2.35C48.1,35.5,48.74,37.15,48.37,37.36ZM38.24,45.67c-2.55,1.13-.71-1.73.46-2.26.51,0,1.07.27,1.63.28A13.11,13.11,0,0,1,38.24,45.67Zm.94,1.59c-.3-.18-.64-.31-.93-.51-.46-.41.62-.66.86-.94C39.54,45.68,39.31,47,39.18,47.26Zm-9.35-9.42c-.08-.41-.39-.57.09-.79.75-.75,1.81-.8,2.58-1.29.16.36-.13.67-.39.9-.3.64.45,1.58,0,2.38-.58,1.18-1.47.16-2.39,0C29.19,38.91,30.05,38.26,29.83,37.84Zm9.91-7.76c.41.36.54,1.65-.11,1.78-.8.12-1.65,1.54-2.37.89-.42-.27-.45-.29-.16-.65A4.75,4.75,0,0,0,38,29.19c0-.53,1.63-.33,1.5,0A.57.57,0,0,0,39.74,30.08Zm.56-.14c-.54-.58.18-1.21.6-1.55C43.44,27,44.74,31,42.4,32.22c-.66.6-.92-.24-1.36-.51C40.16,31.41,40.9,30.39,40.3,29.94Zm.75,2.63c1.15.3.84,1.65.58,2.54-.14.29-.4.61-.76.54-.68-.12-1.13.76-1.77.41-1-.15-1.33-1.18-1.4-2.07A2.38,2.38,0,0,1,39,32.93C39.48,32.46,40.45,32,41.05,32.57ZM32.7,38.68a1.6,1.6,0,0,0-.08-1.5c-.13-.44.78-.61.41-1.07.13-.49,1.74-.74,2.2-.35.84.83-.33,2.22-.94,2.88.31.93-.58,1.32-1,2.06C33.48,39.84,32.58,39.42,32.7,38.68Zm2,1.37a1.92,1.92,0,0,0,.2-.88c.18.58,1.05.95.87,1.44C34.7,42.72,32.25,41.82,34.67,40.05ZM35,38.7c.72-.52.64-1.78,1.24-2.13.69.08,1.1-.72,1.76-.31,1,.2,2.14.69,2.24,1.72-.13.49-.72.45-1,.64,0,.33-.21.37-.49.38-.6.15-.16,1.19-.95,1.24C36.47,40.37,35.84,39.81,35,38.7Zm2.65-10c-.7,3.7-.53,3.21-4.19,2.51-.49-.56-.77-1.43-1.55-1.7-.28-.33-1-.3-.92-.88.08-1,1.53-.53,2-1.33.8-1,1.4-.93,2.38-.19.41.41.47.66,1.09.56S38.08,28.26,37.69,28.7Zm-1.4,3.94c0,.33.16.76.6.65.25-.06.26-.06.21.21-.33.74.69,1.41.4,2-1.61.73-1.17.27-2.51-.44-3.37.77-2.89-.84-1.86-3.29C33.94,31.63,36,31.8,36.29,32.64Zm-4.47,7.92c1.07-2.3.83,1.3,1.36,1.85,0,.71-.85,1.3-.92,2.08-.25.63-.93.33-1.38.65a3.54,3.54,0,0,0-1.25-1.27C29.76,42.46,31.78,42.17,31.82,40.56Zm-1.24,6.11c.37-1.29,1.11-1,2.05-1.42,2.42-.36-.71,2.13-.87,2.93C30.65,52.73,28.93,49.06,30.58,46.67Zm-.65,4.55a1.3,1.3,0,0,1,.13-.3c.55.25.55.95,1,1.29.37.51-.89,1-1.27,1.22-.88.12-1-.7-1.81-1C28.64,52,29.71,52,29.93,51.22Zm-.42,2.72c.9.68,2.31-2,2.7-.82,0,.44-.09,1,.3,1.22.13.11.17.19,0,.29-.44.83-1.17.19-1.86.33-.86,1-1.5-.07-1.47-1A.84.84,0,0,1,29.51,53.94Zm2-1.85c-1-.83-.61-2,.6-1.52C33.13,51.14,32.82,52.92,31.56,52.09ZM32.28,49c-.12-.71.57-1.22,1-1.67.82,1,2.35,2,.16,2.32-.44.06-.35,1.14-.66,1A1.58,1.58,0,0,1,32.28,49Zm1.79-3.27c0-.67.89.09,1.21.18A1.63,1.63,0,0,1,34.65,48C33.58,46.94,33.58,47.07,34.07,45.68Zm-.17-.92a1.52,1.52,0,0,0-1.07-.07c.14-2,2.08-2.1,3.15-3.25.48-1.08,2.44-.73,2.33.48.68,1.44-1.42,2.29-2.22,3.18C35.45,45.76,34.67,44.86,33.9,44.76Zm4.91-2.82c-1.17-2.35,1.28-3.65,2.33-1.18C40.52,41.19,39.35,43.17,38.81,41.94Zm1.52-2.79c-.5-.21.31-.69.4-1,.64,0,2.66,2.12,1.28,2.27C41.36,40.37,41.07,39.32,40.33,39.15Zm2.12-.26c-.5-1-1.82-1.44-2.46-2.32-.15-.19.09-.07.13-.13,1-.4,2.91-.78,3.35.27-.62.42.15,1-.27,1.49C43,38.33,42.63,39.09,42.45,38.89Zm.8.26c1-1.78,1.79,1.32,1.56,2C44.05,41.23,42.62,40,43.25,39.15ZM45.53,41c-.58-.9-.2-2.18-1.12-2.73a.86.86,0,0,1-.14-.13c1.54-.44,1.4-.11,1.82,1.18.14.24.64.16.42.6C46.58,40.74,46.67,42.1,45.53,41Zm.19-3.55c-.62-.34-1.39.28-1.94,0,0-.36.16-1.1.5-1.14,1.26-.6,2.34-2.13,3.8-2.29-.62.47-.48,1.63-.91,1.89C46.57,36.25,46.32,37.24,45.72,37.46Zm.94,4.46c0,1-1.2,1.13-1.93.21C44.83,41,46,42.1,46.66,41.92Zm.28-15.23c-.06.62-1,.56-1.48,1-.61.23-.52,1.21-1.33,1.11-.61-.22-1-1-1.74-1.1s-.41-.88-.63-1.35c.82-.36,2.64.06,3.74.1.8-.09,1.47-1.2,2.5-.83C47.52,25.87,47.34,26.44,46.94,26.69Zm-.39-1.44c-.57-.11-.81.73-1.36.5s-4.82.18-3.78-.89c.57-.59,1.32-.48,2-.92.35,0,.7-.16.91.28a8.91,8.91,0,0,1,2.39,1S46.59,25.26,46.55,25.25Zm-5.22,1.4c.5.85-.83,1.24-1.29,1.76a1.9,1.9,0,0,1-2.31-.84,1.29,1.29,0,0,0-1.27-.42c-.6-.11-1-.82-1.58-1,0-.53,1-.71,1.26-1.2C38,25.58,40.59,24.09,41.33,26.65Zm-9.58-.14a1.24,1.24,0,0,1,1.61-.05C32.67,27.63,29.18,28.07,31.75,26.51ZM27.7,36.07c1.19.45,1.85,1.14,1.34,2.44-.34,1.83-2.45,0-3.21-.74-.27-.45-.77-2.23.05-2.16C26.51,35.09,27,36,27.7,36.07Zm1.05,3.81c.48,0,.34-.65.8-.29s2.1.23,1.59,1.23c-.23,1.06-1.51,1.23-1.92,2.08a13.58,13.58,0,0,1-.4,1.69c-.52-1-1.75-1.4-1.91-2.62C27,41.07,27.64,39.71,28.75,39.88Zm.88,4.75c1.37,0,.32,2.27-.12,3C27,47,28.74,46,29.63,44.63Zm-1.12,3.14a2.74,2.74,0,0,1,.85.28c0,1,.35,2.69-.42,3.36-.53-.08-.64.58-1.21.59-.38,0-.34.32-.53.52-.24-.72.31-1.65-.23-2.4C26,48.93,27.39,47.82,28.51,47.77Zm-1.94,5.87c1.24-.64,1.7-1.4,2,.55.88.87-1.1,2.2-1.63,2.16C26.88,55.42,25.29,54.22,26.57,53.64Zm.77,3.24c.89-.38,2.32-2.43,2.59-.37,0,.44-.1.7-.55.78-.63.15-.91,1-1.64,1C25.77,59.13,26.06,57.61,27.34,56.88ZM26.39,59c.73.33,1.53-.55,2.18-.24.33.58,1.12,1.13,1,1.81-.87.47-3.44-.47-3.44-1.59A2.45,2.45,0,0,1,26.39,59Zm2.83-.12c-.49-.39-.09-1.15.56-1.14a7.46,7.46,0,0,1,2,1.48c.23.55-1.11.55-1.42,1C30,59.94,29.68,59.28,29.22,58.91Zm2.38-.51c-1.38-.27-1.75-2.55-.33-2.95C33.19,54.91,33.21,60.54,31.6,58.4Zm4.18-6c0,.27-.19.41-.35.5-1,.51-3.36,2.18-2.51-.1.11-.48.72-1,.54-1.46s.16-1,.43-1.25A1.5,1.5,0,0,1,35.17,50c.11.62.7.55,1.07.83C36.56,51.55,35.81,51.77,35.78,52.41ZM36,50.17c-1.91-.67.11-2.7.17-3.92,0-.16,0-.27.22-.14.87.13,1.26.86,2,1.36.25.2.29.28.15.55a3.94,3.94,0,0,0-.63,1.79c-.45-.11-1.43-.49-1.53.26A.46.46,0,0,1,36,50.17Zm4.43-.88a7.44,7.44,0,0,0-2.28.49c.67-.45.81-2.4,1.71-2C40.66,48.54,42.81,49.11,40.45,49.29Zm1-1.15c-.48-.42-1.78-.62-1.63-1.38a1.66,1.66,0,0,0-.15-1.38c.41-.3.85-1.39,1.59-1.13a4.3,4.3,0,0,0,.67,3.37C41.79,47.89,41.76,48.36,41.46,48.14Zm-1.75-5c-.23.08-.88-.08-.43-.28,1.17.43,1.48-2,2.58-1.86s1.12-.78,2,.68c.1.13.08.16-.07.15-.44-.11-.08.6-.57.5-.87,0-1,1.16-1.7,1.5C40.89,43.61,40.48,43,39.71,43.13ZM42,44.62c.4-.83,1.36-2.84,2.7-1.81.76.29,1.21,4.26-.2,3.45-.69-.25-1.35-1.61-2-1.19C42.32,45.33,41.79,44.76,42,44.62Zm3.13,3.07c.49.4.3,1.05.64,1.54.09.79-1.94,1.12-2.62,1.47,0-.57-1.07-1.41-.56-1.81C43.43,48.54,44.78,48.66,45.14,47.69Zm.44-.76a2.8,2.8,0,0,1,.2-.32c.92-.3,1.91-1.2,2.82-.6-.65,0-.67.69-1.26.8S45.3,48.07,45.58,46.93ZM48.33,45c-2.18.46-2.44,1.8-2.45-1.2.1-.55,1.64-.87,1.31-1.92-.52-1.85,2.15-1.71,2.3-.28A22.73,22.73,0,0,1,48.33,45Zm.13-9.33c-.78-.54.26-1.28.48-1.89.91-.13,2,1,3,1.13-.63.65-.66,2.23-1.49,2.38C49.19,37.69,48.7,36.75,48.46,35.66Zm2.34-7.6c-.71-.26-1.5.23-2-.38-.34-.45-1-.37-1.28-.66.1-1.38,2-1.85,3.16-1.55,1.85.22,2.12,1.66,3.2-.67.35-1,1.39,0,2.08-.57.37-.06.76-.36,1.13-.35,0,.37.35.5.54.73-.74,2-3.44,1.63-5.26,1.93C51.82,27.1,52.14,28.5,50.8,28.06Zm-1.52-3.61c.49-.16,1,0,1.49-.3.77.14,2.33-1.16,2.6-.06-.24.45-.48,1.66-1.15,1.27-2.53-1.05-3.46.81-3.49-2.68-.31-.42.37-.54.61-.85.72-.62,3.22,1,2.43,1.61C51.21,23.72,47.92,23.61,49.28,24.45ZM52.61,19a2.44,2.44,0,0,0-2.31,1.22,1.06,1.06,0,0,1-.83.71c-.62.44-1.15,1.13-2.09.77-.33-.34-1.41-.21-1.39-.62.89-3.37,5-2.87,7.71-4,.81.33,4-2.49,3.36-.77-.84.71-2,.73-2.64,1.65l0,0a.57.57,0,0,1-.42.25A3.69,3.69,0,0,1,52.61,19ZM46,21.72c.76.21,1.52.77,2.32.51-.22.54.61,3.57-.47,2.86-.78-.9-3-.62-3.23-1.75C44.34,22.49,45.05,21.32,46,21.72ZM45.32,21c-.67.45-1.17,1.27-1.67,1.59-.49-.22-.64-1-1.3-1.05.07-1.34,2.33-.77,3.11-.62C45.42,21,45.36,21,45.32,21Zm-2.74,1.31c.23.14.38.44.58.65s.64.06.9.23c-1,.44-2.1.61-3.1,1C39.27,23.32,41.48,22,42.58,22.34Zm-1.09-.52c-6.92,3.33-6.61-.77.2-.9C42,21.44,41.91,21.62,41.49,21.82Zm-3.41,1.74c.34-.11.72-.33,1.1,0,.25-.11.68-.43.64.11s.83.93,1.21,1.24A4.94,4.94,0,0,0,38,24.65C34.82,24.11,35.49,23.89,38.08,23.56Zm-2.21-.33c-.71.73-.46-.75-1.06-.93s.46-.85.49-1.26l.07,0c0,.27-.24.69.25.66A1.4,1.4,0,0,1,35.87,23.23Zm-1-2.35c-.11.07-.19.06-.18-.09.09-.4-.15-.63-.31-.93.83.28,1.55-.95,2.37-.56.24-.19,2.45-.27,2.08,0C37.44,19.79,36,19.82,34.86,20.88Zm-5.32,3.24c.58.42,1.81,1.41,1.44,2.08-.41.13-.6,1-1.11.69-.81-.3-2.06-.46-1.93-1.61S28.26,22.73,29.54,24.12Zm-1.29,2.73c.72.41,1.86.48,2.33,1.13.09.47-.23,0-.3-.08-.48-.2-.86.73-1.43.81s-.81-.13-1.26-.05C25.48,29.2,27.47,26.7,28.25,26.85ZM25.5,38.62c.61-.42,1.27.62,1.77.91.06.38-.35.8-.47,1.18-.31.27-1.55.32-2.27.7C23.42,40.32,24.73,39.44,25.5,38.62ZM24.28,42a6.77,6.77,0,0,0,1.93-.58c-.3,1.82,3.28,3.11,1.77,4.13a1.17,1.17,0,0,0-.31,1.54c.13.2.08.29-.11.39-.62.15-1.16,1-1.77.86a3.15,3.15,0,0,0-1.27-.47c-1-.56-1.68-.64-.93-1.88.14-.31.1-.43-.2-.65C21.6,44.57,23.75,42.89,24.28,42ZM19.44,54.38c.07-1,1.72-1.86,2.53-1.74.72,1.12,2.44.26,3.1,1.44.41.89,1.76,1.83,1.18,3-.38.63-.61,1.63-1.42.92-.44-.49-.9-.24-1.35-.05-.83.36-1.41-.94-2.26-1.15-.69-.38-1.22-1-1.56,0C19.46,56,18.94,55.11,19.44,54.38ZM29.54,65.1c-1.38-.41-.59-2.3-.74-3.36.24-.33,3.4-2.24,3.44-1.49s.76.72.83,1.27c0,1.06-.36,1.9.59,2.76a.52.52,0,0,1-.07.24,1.21,1.21,0,0,0-1.71,0A11.64,11.64,0,0,0,29.54,65.1Zm6.55-5.46c-2.5,1.88-4.11,1.34-2.7-1.76a11.19,11.19,0,0,1,2.74-.28.41.41,0,0,1,.6.23c.06.29,1,.38.69.78S36.74,59.66,36.09,59.64Zm1.4-6c-.46.45-.86-.37-1.3-.54.31-.77.93-1.35.63-2.22a1.79,1.79,0,0,1,1.29,1C37.58,52.45,37.87,53.16,37.49,53.59ZM42.43,48c.16-.89-.91-1.62-.63-2.48.34.13.64.68,1,.28a.3.3,0,0,1,.3,0c1.82,1.26,1.62,2.32-.65,2.38C42.29,48.2,42.43,48.11,42.43,48Zm.22,4.74a1.94,1.94,0,0,0,.25-1.42c1.39-.11,3.12-2.16,4.29-.76-.56.23-.57,1.16-.9,1.57-.15.5-.44.27-.84.44a5,5,0,0,0-2.85,1.74A1.87,1.87,0,0,1,42.65,52.77Zm3.92-3.36c-.2-.21-.39-.44-.57-.67h0c-.6-1.24,2.1-1.48,2.52-2.16.35-.9,1,.44,1.57.19.82-.21.57.71.8,1.19.08.2-.07.32-.11.31A4,4,0,0,0,48,49.79C47.58,50.62,47,49.76,46.57,49.41Zm4.08-4.71c-.12,1.66-.4,2.06-1.72.87-.27-1.48,2-4.11.32-5.07.21-1,.09-2.39,1.56-2.31.55.31,1.36.86,1.07,1.61A1.47,1.47,0,0,0,52,41.55c-.73.63-.06,1.8-1,2.33A.9.9,0,0,0,50.65,44.7Zm7.06-21.05c.95-.17,2.47-1.22,3.33-.78.59.28,1.55.24,1.7,1,0,.59.58,1.11.45,1.68-.36.6-.39,1-1.09.52C60.88,25.45,57.59,25.37,57.71,23.65Zm1.56,3.91c-.11-1.84,2.16-1.54,3-.48a22,22,0,0,0-1.15,2.82C60.6,29.06,59.29,28.68,59.27,27.56Zm5.68.2c.76-.66,2.26-.49,1,.58-.42.28-.12.84-.49,1.11-.75.6-.88,2.53-2,2.12C63,30.12,64,28.79,65,27.76ZM64.6,24a7.16,7.16,0,0,1-.87,1.12c-1-4.77-4.21-.93-.63-4.55,1.14.06,3.54,1.92,2.35,2.93A1,1,0,0,0,64.6,24ZM62.19,21.1c-.39.49-1,.53-1.52,1-1.28.29-2.43,1-3.74,1.07-2.37-1-1.76-2.23.11-3.33,1.5.26,1.94-1.81,3.42-1C61.38,19,63.5,20.11,62.19,21.1Zm-3-5.74a1.78,1.78,0,0,1,.46,2.82.79.79,0,0,0-.86,0c-.51,1-1.46.78-2.22,1.41a2.18,2.18,0,0,1-3.31-.32c1-.17,1.6-1,2.32-1.62a3.56,3.56,0,0,0,2.13-1.26c.16-.35-.19-1,.38-1.07C58.46,15.34,58.83,15,59.15,15.36Zm-.45-2.6c0,.59-.46,1.28-.06,1.87.11.54-1.23.31-1.58.71-.52-.16-1.1.49-1.59.58-.24.06-1.18-.23-.94-.55.86-.63,1.22-1.68,2.1-2.17a8,8,0,0,0,2.14-1.46C58.81,12.1,58.44,12.38,58.7,12.76Zm-3,.58c-1.29,1-1.54,2.8-2.76.68-.1-.23-.44-.22-.67,0-.22-.53,3.36-1.18,3.61-.79ZM53,15.07c.38.91,1.27,1,2,1.24-.73.12-1.43.33-2.16.47-.51.31-1.21.78-1.82.5-.4.07-.44.35-.71.5.05-.53-.9,0-1.24,0-1.12.28-.25-1.57-.64-2.11-.1-.15-.22-.39-.12-.55.82-.33,1.9.82,2.66.06.35-.23.62-1,1.1-.67C52.68,14.36,52.9,14.67,53,15.07Zm-7-.62c.65.35,1.76-.33,1.91.56-.15.69.39,1.26.11,1.89,0,.44.39.91-.23,1.19s-1.38.62-1.79,1.14c0,.3-.22,1.31-.52,1.12-.48-.6-1.21.52-1.6-.53-.72-1.09-.42-1.93-.21-3.05a.84.84,0,0,1,.7-1.14C45.12,15.49,45.21,14.24,46,14.45Zm-.93-.15c-1.48,1.46-2.14,1.3-3.27-.36.83-.33,1.62-1.25,2.39-1.49.33.18.39,0,.49-.24s.87-.42.77,0C44.89,12.87,45.46,13.79,45.06,14.3Zm-1.6,5.85c-.53,0-1.13.33-1.62.19a.7.7,0,0,0-.7-.12c-1.31.29-2.41.69-3.68.9-.55,0-1.34.63-1.61,0-.19-.1-.19-.19,0-.31,1-.75,3.46-.39,3.48-1.95C42,18.53,42.47,16.65,43.46,20.15Zm-4.65-1.31c-1.37-.82-3.12.34-4.51.43-.35-.16-.8-.07-1.09-.44A8.42,8.42,0,0,0,30.57,20c.08-1.18-1.54-2.7,0-3.4,2.36-1.23,2.07-2.9,5.22-2.47.53.73.3,1.65.64,2.46.22,1.34,2.35,1.15,2.65,2.4A1.46,1.46,0,0,1,38.81,18.84Zm-8.88.31A1.77,1.77,0,0,1,29.07,21c-.52.53-.11,1.43-.85,1.7s-4.06-3.12-3.13-3.52C29.51,19.05,28.7,15.35,29.93,19.15Zm-5,1.7a7.94,7.94,0,0,1,1.71,1.62.62.62,0,0,0-.21.08c-.59,1-1.84.53-2.88.68-.64-.9-1.7-1-2.63-1.22C22.23,21.57,23.46,20.72,25,20.85Zm-2,2.57c.29.73,1.52,1.27,1.2,2.08-.68.5-1.19-.61-1.51-1-1.05-1.24-1.84-.21-2.83.3C19.83,22.66,21.46,22,23,23.42Zm-2.49-1.8c-1,.82-1,2.13-1.15,3.22-1.15-.35-.81-2.36-.62-3.34s1.36,0,1.91,0Zm-1.68,4.17c.06-.33.27-.3.52-.34a3.69,3.69,0,0,0,2.06-1c.74-.22,1.71,1.08,1.47,1.76-.54.72,0,1.58-.4,2.32a4.36,4.36,0,0,1-4.34.94c-.24-.63-1.15-.46-1.55-1C15.92,27.46,18.29,26.55,18.81,25.79Zm2.47,7.36c.13-.92,1.21-.46,1.83-.89C24.89,31.72,24.5,34,24.9,35c0,1.06.43,2.28.06,3.32-1.25,1.23-1.32,2.25-2.91.72.68-.42.05-1.22-.16-1.71C21.68,35.91,20.49,34.62,21.28,33.15Zm-1.76,8.21c.2-.27-.09-1,.41-1,.66,0,2.31-.15,1.89-1,.67.53,2.78,1.65,1.78,2.66-.86,1.35-1.64,1.27-3.11,1-.27.2-.43.3-.67,0s-.33-.06-.44.15c-.21.5-.75.49-1.18.52C18.72,43,19.08,42.15,19.52,41.36Zm-1.29,2.7c.1.5,1.08-.18,1.09.39C20.64,46.2,19.23,46.17,18,47c-.56.51-1.17-.08-1.81.09-.64,0-1.77,1.18-2.08.22-.44-1.14.64-2.53,1.64-2.9.72-.29,1.9.06,2.36-.47Zm-3.51,4.22c3.4-1.33,1.48,0,.41,1.74-.13.22,0,.47.18.64.72.78,0,1.91.77,2.71-.31.36-1.58-.68-2-1-.18-.2-.14-.57-.46-.55C11.79,51.26,12.94,48,14.72,48.28Zm1.7,5.81c.44-.45,2.37-.39,2.33.32-.07,1.73.86,2.74-.54,4.28-.31.54-.58.58-.95.08C15.67,57.81,15.55,55.6,16.42,54.09Zm1.25,13.4c.09.08.24.25.21.3-.38.49.66.65.29.9-.87.54-1,1.8-2.17,2,.34.61,1.29.72,1.6,1.42.28.5,1.32,1.41.73,1.91-1.49.27-2.34,2.87-3.66,2.61-.6-.56-1.52-.77-1.51-1.71A2.85,2.85,0,0,0,11,72c-1-.18-.87-2.18.06-2.32,1.18-.2,1.28-1.47,1.85-2.28.65-.57,1.55.54,2.27.35C16.12,67.7,16.94,66.61,17.67,67.49Zm-4.79-.87c-3.28,6-3.49.23-1.58-2.39C11.85,64.91,13.11,65.9,12.88,66.62Zm-3,4.47c-2.81-.35-2.14-.6-1.46-3,.87-.46,1.69,2,1.41,2.71A1,1,0,0,0,9.89,71.09Zm-.35-3.27c0,.17,0,.14-.16.06-.52-.21-.84-.49-.55-1.07.48-.79.21-1.7.68-2.37.6-.18.65-1.13,1.42-.65C9.72,64.5,10.12,66.59,9.54,67.82Zm.38-5.07c-1.27-.58-.49-1.63,0-2.51,1.32-.57,3.62-2,3.83.59C12.47,61.61,11.81,64.41,9.92,62.75Zm-2.6,8.5c.79,0,1.51.47,2.31.37.59-.09.51.94,1.17.88,2,.15,1.44,2.5,2.16,3.8s-4.5,1.33-5.23,1.49c1-1,3.11-1.73,2.41-3.43-.55-.3-.58-1-1.18-1.16C8.12,73,6.29,72.3,7.32,71.25ZM7,76.87a1.39,1.39,0,0,0,.06-1.38c.07-1.94,2.15-2.76,2.65-.42.25.46-.48.51-.73.78-.55.5-1.27,1.47-2,1.31A.65.65,0,0,1,7,76.87Zm.47,21.49c.58-.54,1.41.09,1.91-.53.8-.51,1.65.43,2.46.43.16,0,.13.11.05.2-.4.29-.6.88-1.09.81C9.92,98.86,7,100,7.48,98.36Zm4.22-.8c-1.5-.18-1-.89.18-1a3,3,0,0,1,2.2-.7c.52.17.71.33,1.17,0a5.19,5.19,0,0,1,1.54-.21c-.62,1.73-2.55,1.3-3.88,1.88A1.06,1.06,0,0,1,11.7,97.56Zm8-7.15c-.32-.21-.71-.16-1-.39a6,6,0,0,1,2-1.25,11.5,11.5,0,0,1,3.41-1.32c.7.54-.92,1.61-1.56,1.62C21.65,88.78,20.85,90.67,19.71,90.41Zm8.11-7.5c-1-.26-1.31.86-2.23.71-1,.27-1.9,1.36-3,1.37a10.5,10.5,0,0,1,4-4.39c1.22,0,1.38-1.45,2.43-1.77.29-.35,1.34-.91,1.52-.31A1.39,1.39,0,0,1,30,81.09C28.69,80.73,28.64,82.33,27.82,82.91Zm.36-7.38a2.72,2.72,0,0,0-2.89.48c-.63-.28-1.79-.08-1.76-1.08.67-.67,1-1.68,1.87-2.12,1-.12,1.25-1.35,2-1.24s1.24-.31,1.87-.4c.24-.62.94-.26,1.36-.63.5-.17.92.66,1.54.16a1.41,1.41,0,0,1-1.07,1.41,7.19,7.19,0,0,0-.91,2.57c-.07.11-.09.31-.34.26C29.15,74.61,28.77,75.73,28.18,75.53Zm2.5-5.65C29.5,70,30.21,68,30,67.31c.17-.57-.61-1.5.09-1.77.62-.54,1.46-.18,2-.54.83-.72,1.55.27,2.27.59,1.22.17.48,1.75.49,2.86-.65.55-.83,2-1.84,2A4.84,4.84,0,0,1,30.68,69.88Zm4.39-4.53c-1-.16-.65-.24,0-.59-.9-.59,1-1.79,1.36-2.55.65.24.55,1.24.58,1.74C36.31,64.31,36.09,65.73,35.07,65.35Zm2-4.91c-.31-.76.79-1.24,1.14-1.82,1.23-.65,3.27-1.81,4.14-.19.35,1.47-1.89,1.44-2.26,2.72-.48.75-1.71,2.83-2.59,2.33A4.75,4.75,0,0,0,37,61.8C36.66,61.31,37.11,60.92,37.08,60.44Zm7.49-2c3.32-.72,2.75-.91,2.92,2.31-.15.94-1.85,1-1.81,2.08,0,.45,0,.93-.5,1-1,.32-1.7,1.08-2.86.9a1.92,1.92,0,0,0-1.87-.63,2.26,2.26,0,0,0-1.81-.28C40.54,61.86,42,59.53,44.57,58.48Zm7.32-10.4c-.69,0-.43-.92-.66-1.37-.77-1.43.89-2.65,1-4,0-1.33,1.68-1.68,2.46-2.4.82-.25,1.14-3.51,2.08-2.67.32,1.93-2.67,4.42.23,5.29a.31.31,0,0,1,.13.49c-.73,1.21-1.89,2.1-2.26,3.48C54.82,48.54,53,48.07,51.89,48.08ZM57,42.49c-1.84-1,.62-1.48,1.6-1.58.6-.38,1.3-.58,1.94-.91.37,1.18,0,1-.94,1.26S58,42.86,57,42.49Zm3.23-3.67c-.12.42-.26,1-.77,1.07-.79-.07-2.27,1.3-2.69.59,1.11-2.88-.6-4.91,3.2-6.28C63.87,32.65,60.81,37.18,60.25,38.82Zm-3.38-2.69a3.32,3.32,0,0,0-.48-1.47c-1-1.39.28-1.53,1.16-2.24.67-.61-.39-1.74.57-2.32.41-.48,1.05-.08,1.43-.48,1-.44,1.87,1,2.37,1.73C63.25,33.63,56.92,33.71,56.87,36.13Zm7.09-4c.6-.49,1.22-.19,1.7.24-.57,1.13-2.73.69-3.06,2-.27-.29-.1-.79-.63-.94C62,32.68,63.37,32.64,64,32.17Zm1.13-.92c.22-.86.53-.86,1.09-1.27.58-.93,2.25-.43,1.81.78,0,.66-1,.51-1.47.78C66.32,32.22,65.25,31.71,65.09,31.25Zm2.79-2.39c-.45.39-1.2-.05-1.79.3,1.35-1.17,1.53-3.09,2.81-4.32,0-.72,1.26-.46,1.79-.69.64.23-.42,1.45-.47,2A24,24,0,0,0,67.88,28.86Zm-2.32-7.7c-3.25-1.27-1.08-1.67.93-1.74.81.28-.3,1-.31,1.44S65.89,21.29,65.56,21.16Zm1.17-2.57c-1.18.35-2.58.52-3.81,1a4,4,0,0,0-2-1.18c-.6-.11-.41-.71-.29-1.11.35-.72-.79-1.71,0-2.22,1.66-1.28,2.6,1.65,4.54,1.11.69.07,1.35-.78,1.77.17S67.82,17.82,66.73,18.59Zm.42.4c.84-1.44,2.35-1,3.62-1.89.58.27-.89,1.69-1.32,1.8-.91-.29-1.57,1.22-2.36.35A.29.29,0,0,1,67.15,19Zm3.49-2.52a3.35,3.35,0,0,1-2.43.71c-2.24-1.59,1-2.53,2.05-3.73.26-.21.24-.26.28-.66.27-.61,1.19-.87,1.77-1.08.24-.47,1.09-.31,1,.24.12.51-.74,1.56-1.09,2.16C71.86,15,71.56,16,70.64,16.47Zm7.62-3.34c1-.5,1.91-1.56,1.51-2.72.83-.05,1.72.69,2.48,0,.39-.12.74-.45,1.06-.57-.27,1-.5,2-1.64,2.19-.43-.09-.64.23-.86.48-.67.67-1.77.43-2.62.8A1.47,1.47,0,0,1,78.26,13.13Zm5-4.08c-1.5,1.66-5.23,1.15-3-1.47.36-.2,0-.64.07-.94.49-.27,1.2.33,1.82.14C82.89,7,83.46,8,84,8.33A10.06,10.06,0,0,0,83.25,9.05Zm-.41-2.71c.48-.15.82.2,1.28,0C83.88,7.13,83.17,7.09,82.84,6.34ZM83.75,10c.29-.45.16-1.46,1-1.11,1.18.46,2.2-1.28,3.35-1,.41.33.14.63-.22.79-1.18.2-2.19.93-3.4.92-.43.14-.59.74-.82,1.1C83.58,10.5,83.71,10.21,83.75,10ZM86.2,5.57c-.83.31-1.83-.1-2.52.29.16-1,1.38-2.4,2.54-2C86.51,4.37,87.1,5.45,86.2,5.57ZM84.21,4c-1.73,1.57-1.4,2.84-4.09,1.92-.26.38-1.06.84-1.5.47.16-.62-1.45-1.64-.59-1.87,1,.38,2.66.78,3.1-.52,0-.38.39-.35.58-.54.4-.19.59.4,1,.44.63.36,1.17-.28,1.63,0ZM75.3,5.87c-.58,0-1.06.45-1.65.11-.35-.19-.39-.17-.67.11-.9,1-1.35-.56-2-.58A32.53,32.53,0,0,0,67,6.91c-1.09.42-1.55-.51-2.36-1a4.63,4.63,0,0,1,2,0c.44.12.54.35.87,0,.69-1.19,2.21-.35,3.21-1.1.37-.19.68.11.91.35,1.35,1.18,2.63-.57,4.13-.61C76.19,4.39,75.74,6,75.3,5.87ZM65.12,7c.64,1.34-2.69,1.5-2,3,.14.34.15.35-.25.34a11.32,11.32,0,0,0-2.72.11C59.37,10,59,8.89,57.94,8.7c-.28-.07-.3-.32-.34-.56,1-.05,2.13,1.38,3,.18.37-.72,1.28-.32,1.75-.87C63.65,7,63.77,5.26,65.12,7ZM63,6.49a1.7,1.7,0,0,0-.87.45c-.38.43-1.21,0-1.48.57-.76,1.34-2.22.18-3.14-.33a.81.81,0,0,1,1,.05c.69,1,1.36-.46,2.15-.52s1.69-.57,2.59-.6C63.15,6.24,63.07,6.37,63,6.49Zm-4.9,2.85c.64.23,1,.83,1.32,1.34-1.77.69-2.67,3-4.52,1.19.69-.58,1.82-.58,2.3-1.39C57.21,9.92,57.21,9.05,58.08,9.34Zm-1.39.56c0,.26,0,.47-.31.58-.92.33-2.79,1.72-3.25.37-.24-.49.2-1.09.56-1.41.61,0,1.06.28,1.31-.5s1.31-.64,1.56-1.39c.7-.71.59.57.73,1C57.25,9,56.52,9.28,56.69,9.9Zm-2.21,2.73c-.72,0-1.65.53-2.3.3-.17-.22.11-.32.16-.51-.08-.48.35-.5.71-.58S55.26,12.06,54.48,12.63Zm-1.86-1.77c0,1.16-2,1.34-2.56.36-.61-.47.2-.83,0-1.35,0,0,.07-.23.11-.23.46,0,.48-.44.63-.74.39-.15,2,.29,2,.73A1.58,1.58,0,0,0,52.62,10.86ZM49.52,9c-.6,0-1.12.41-1.74.41a2.4,2.4,0,0,1-2.1.35c.94-.57,2.19-.39,3.11-.9.42-.15,1.46-.82,1.66-.37C50.12,8.77,50.05,9.15,49.52,9Zm-6.47,3.24c1.1.1-.43.59-.65.9C39.62,13.63,41.49,12,43.05,12.24Zm-.6-1.33c0,1-1.15,1.07-1.89,1.35-.3.49-.68.15-.92,0-.68-.4-1.25.15-1.9.27-.11-1.06.6-1.59,1.43-2,.66-.63,1.17.32,1.86.29C41.41,10.94,42.63,10,42.45,10.91ZM39,12.64c1.19.14,4.74,3.3,4,4.62-.2.71-.85,0-1.29.34a10.89,10.89,0,0,1-2.52.76C38,17,36.52,17.05,36.58,14.72,35.5,13.13,37.78,12.92,39,12.64Zm-1.83-.15c-.21.16-.69.12-.7.43s-.23.31-.38.42c-1,.19-3.14.9-4,0,1.67-.68,3-1.47,4.76-1.11C37.06,12.21,37.46,12.34,37.19,12.49Zm-4.95,1.7c.45.43-.46.26-.29.78-.1.94-1.57-.22-1.31-.8C30.22,12.68,31.88,13.31,32.24,14.19ZM31,15.52c.17.07.4,0,.34.25-.82.34-1.44.76-2.14,1a1.12,1.12,0,0,0,0-1.25C29.17,14.79,30.57,15.21,31,15.52Zm-2.42-.7c-.3-1.37,1.67-2.49,1.5-.76C30.07,14.85,29,14.47,28.53,14.82Zm.39,1.63c-.35.36-.61,1-1.05,1.32-.54.52-1.35-1.3-.57-1.4C27.84,16.19,28.83,15.38,28.92,16.45Zm-1-1c-.47.08-1,.71-1.32.15-.87-.56,1.34-1.76,1.34-1C28,14.85,28.35,15.27,27.89,15.44ZM26.4,16.85c-.15.2-.74-.22-1.09-.16s-2.18.21-1.69-.52C24.62,15.22,26.63,15,26.4,16.85Zm-1.59.34c.46-.06,2.62.44,1.85,1-.62.28-1.54.56-2.1,0-1.12-.52-2.23.07-3.32-.63C22.18,16.55,23.64,17.7,24.81,17.19ZM22,18.5c.67.47,1.35,0,2.05.1.55,0-.08.6.23.84.84.81-.5,1.14-1.17,1.07-.88-.28-1.31,1.12-2,.61-.51-.44-1.17-.2-1.74-.44s-.87.25-1.32,0-1.18-.32-.83-.95c.25-.41.08-1.08.68-1.1C19.3,18.8,20.75,17.71,22,18.5Zm-6,10c.26.71,1.7.58,1.45,1.38a2.91,2.91,0,0,1-2,2.46c0-.22,0-.38-.13-.44-.76,0-.6-.88-.69-1.4C14.79,30.07,15.27,27.78,16,28.53Zm.06,4.1a3.15,3.15,0,0,0,1.71-2c0-.17.12-.58.52-.33,2.46-.68,3,.59,2.45,2.81-.09,2.16-2.61,1.74-4.3,2.16A1.34,1.34,0,0,1,16.06,32.63Zm-.28,3.23c.15.16.3.35.19.58-.42,1,.94,1.43,1.57,1.92.67.26,1.75.6,1.46,1.5-.29.06-.16.2-.08.34,1.06,1.11-.83,2.13-1.11,3.24-1.25,1-2.66.05-3.52-1.06-.22-.23-.25-.29,0-.52.75-.65.2-1.74-.14-2.4-.11-.58-.39-1.27.36-1.39A6.7,6.7,0,0,0,15.78,35.86Zm-1,7.6c.68,2.07-.77.65-1.64.18,0-.14-.43-.07-.14-.27C13.65,42.75,14.17,42.71,14.76,43.46Zm-4,14.79c.21.21.35.49.57.7-.51-.13-.82.67-1.25.44-.23-.29-1.08-.28-.88-.76C9.47,57.19,9.78,57.33,10.76,58.25ZM9.48,59.61a8.23,8.23,0,0,1-2.27,3.77c-.58,0-.8-.43-1.11-.75s-.69-.5-.66-1c0-.74-.12-1.52.62-1.94.4-.15.65-.8,1.15-.44C8,59.34,8.82,59.17,9.48,59.61ZM2.38,86.3a13.53,13.53,0,0,1,2.09-8.78c.38-.29.37-.32.06-.68-2.29-2.12-1.65-5.5-1.59-8.28.18-.76-.88-1-.86-1.78-.22-1.48-.3-3.56,1.47-4,1-.65.53,1.44.73,2,.16,2.08,2.33,3.38,2.33,5.5,0,.21.44.59-.08.54C6.15,71,6,71.64,5.8,72c-.35,1.49,1,2.94.68,4.43-.14.35-.4.75-.09,1.16-.08.42.33.76.21,1.18.33.54.35,1.29,1,1.57s.3.81-.2.94c-.54,0-.67.68-1,1.06.3,2-1.31,1.57-1.78,3.09A12.34,12.34,0,0,1,5.9,88c-.64,0-.49.49-.21.84C4.35,88.18,2.81,87.94,2.38,86.3Zm21,7.71c-.89.74,0,1.94-.95,2.66s-1.48,1.61-2.55,2c-.3.11-.29.22-.21.56.36.85-.49,1.66-.88,2.37-1,.78-2.74-.21-3.82.12-1,1.44-2.11,1.22-3.61,1.06-.34.11-.77.29-1.14-.07-.47-.12-.72.65-.71,1-.23,1.33-2.37,1.49-3.45,1.15H6a3.45,3.45,0,0,1-2.78-2C-1.59,101,2,96.13,3.17,93.26c.1-1.09-.62-2.07-.6-3.15,0-.6.64-.88.71-1.47,0-.1.1-.23.3-.13.74.48,2.27.83,2.51,1.58-.62.64.36.77-.09,1.4.6,1,0,1.86-1.09,2-.62.76.34,2-1.05,2.15-.73-.12-1.4,1.07-.9,1.61-3.32,1,1.23,3.47,2.53,4,.27.08.49-.22.76-.08.94.16,1.15-1,1.92-1.2,1.11-.34,2.3.08,3.32,0,.95-.87,1.69-2.34,3.17-2.16.4.22.43.17.87-.08,1.15-.27,1.49-1.75,2.32-2.21a3.09,3.09,0,0,0,2.29-.51c.77-.48-.39-1.3.16-2-.29-.51.31-.91.22-1.4a.77.77,0,0,1,.73-.93c.47.14.34.82.67,1.09C22.62,92.17,24.09,93.06,23.33,94Zm5.1-6c2,3.49-1.18,4.8-4.27,4.17-.66-.32-1.58-.41-2-1.08-.13-.84-.69-1.28.57-1.55,1.65.08,1.85-1.76,3.07-2.36C27,87.15,27.7,86.77,28.43,88Zm1.13-2.47a3,3,0,0,1-3.12.8c-.05-1.13,1.22-1.06,1.74-1.74C28.54,83.66,30.29,84.89,29.56,85.55ZM33,80.64c-1,1.31.43,3.06.26,4.59-.54-.31-1.27-.21-1.47-.88-.07-.29-.29-.61-.58-.31-.31.15-.64.85-1,.45s-1.86-.57-1.56-1.45c.25-.5.63-1.55,1.36-1.3a.44.44,0,0,0,.53,0c.94-.36,1.17-2.07,2.26-1.62C33.24,80.2,33.42,80.34,33,80.64Zm7.71-4.93c.48.44-.3.72-.14,1.18,0,.88-1.25,1.09-1.11,2,0,.52-.73.51-.61,1.06-.21.85-1.53,1.4-2.08,2.09-.61-.41-.56-1.55-1.45-1.6-1.12-.1-2-1.17-3.15-1.13-.46.13-.55-.69-.79-.94-.65-.33.11-1.13.49-1.5s.36-.36.8,0a3.88,3.88,0,0,0,1.52,0c1.22-.47,1.72.93,2.83,1,1.2.38,1.91-.6,1.68-1.73.12-.53.77-.69,1.05-1.13C40.15,74.39,40.33,75.53,40.67,75.71Zm-.24-2.81c-.37,1.33-2.27,2-2.3,3.31.22,2.17-2.5.19-3.34-.1,1.63-.83.89-3.35,1.7-4.82.19-.48.59-.11,1-.29.87-.16,2.56-.48,3.12,0C40.1,71.61,40.88,72.31,40.43,72.9Zm-.08-3c-1.26.29-2.54.29-3.85.51-.8.09-.75,1.21-.87,1.8-.62.94-.07,2.4-.87,3.09-1,2.1-2,.24-3.2,1-1,1-2.39,2.75-1.51.09a.55.55,0,0,1,.44-.57c.54-.71.43-3,1.37-3.4,1-.26.54-1.71,1.74-1.62,1.66-.7,2-2.76,2.1-4.39.61-.8,1.4-2.19,2.49-2.23-1,.51-.34,1.15.41.51,1-.81,2.1.14,3.22.2.5.32-.67.9,0,1.48.37.51-.55.94-.72,1.41C40.22,68.37,41.06,69.41,40.35,69.9ZM50.89,59.81c0,.37-.41.76-.57,1.14-.16.22-.64.1-.59.44s-.33.45-.55.62c-.5.31-.74.87-1.3,1.1A18.4,18.4,0,0,1,44.42,67c-1.37.2-.84,2.1-2,2.41-.41-.15-1.35.41-1.29-.26,0-1,1.46-1.67,1.41-2.52-.33-.5-.33-.88.2-1.25a5.71,5.71,0,0,0,2.82-1c1,.14.44-1,.71-1.53.45-.92,2.25-.86,1.71-2.24-.34-.77.41-1.49-.06-2.22-.09-.21-.24-.61-.16-.78.53-.4,2.6-.24,2.35.6C49.66,59,50.44,59.29,50.89,59.81Zm3-6.51c-.61.79-.4,2-1.13,2.8-.44.09-1,0-1.27.46-1.13,1.32-2.94-.45-4.24.42-1,.36-3-2.72-1.27-2.84.52.09.6-.72,1.11-.41a2.07,2.07,0,0,0,1.45,0c1.65-.47,2.24-1.91,3.45-2.91.76-.29,1.19,1.11,2.14,1.06C54.15,52.38,54.3,52.85,53.87,53.3Zm6.74-7.7c-.41.74-1.6.94-1.57,1.8-.22,1.19-.69,2.9-1.94,3.13-.39-.21-1,.56-1.32.13-.85-.83-1.64-.06-1.69.91-1.31-1.11-1.42-1.18-1.25-2.88.3,0,.6-.07.81.22.65,0,1.44-.77,1.64-1.41.34-1.4,1.37-2.28,2.06-3.47,0-.72,2.9-2.94,3.16-2C60.8,43.09,61.18,44.63,60.61,45.6Zm5.32-10.45a6.75,6.75,0,0,0-1,2.28c.18,1-1.17,1.28-1.18,2.29.39,1.34-1,1.44-2,1.39A3.31,3.31,0,0,1,60.83,39a36.34,36.34,0,0,1,2-4.33c1.67-.49,2.55-2.11,3.24.43Zm4.48-1.53c-.19,1-1.64,1.09-2.16,1.93-.61.45-1.35-.84-1.94-.62a2.66,2.66,0,0,0-.43-1.52,3.81,3.81,0,0,1,.87-1.2c.37-.77,1.73-.2,1.76-1.22,0-.76,1.23-.76,1.79-.95A4.8,4.8,0,0,1,70,31.92C70,32.53,70.56,33,70.41,33.62Zm6.83-11c-.82.56-.32,1.37-.43,2.14s-1,1.13-1.35,1.73a2.37,2.37,0,0,1-.1,1.64c-.51.9-1.56-.17-2.16.54-1,.06-1.84.94-2.77,1-.5-.4-1.09.11-1.64.15-1.26-.56,1.42-2.4,1.87-3.13.8-1.06.6-2.53,1.36-3.57a12,12,0,0,1,1.47-2.68c.28-.24.48-1.12.93-.82.63-.21,1.36.07,2-.14.28-.09.56-.31.87-.26a8.72,8.72,0,0,0,.13,2.34C77.41,22,77.75,22.34,77.24,22.62Zm19-17.76c-1,.24-.15,1.46-1.09,1.9-.33.39-.79.08-1.19,0-1.06,0-.44.86-.34,1.31a2.55,2.55,0,0,1-1.66.76c-1.1.5-2,1.3-3.06,1.86-.73.57-1.77-.41-2.44.51a7.13,7.13,0,0,1-2.1.9c-.92.15-1,1.09-.6,1.79.17.21.39.15.6.15.44,0,.77.6.25.71-.55.41-1.81.1-2.3.81s-1.68.69-2.41,1.2c-1.27.84,1,1.09-2.05,1.95-1.22-.3-2.46.46-3.72.19-1.21.84-2,2.62-2.69,4.05-.27.64-2.24,1.15-2.61.63,0-.49-.2-1.12-.78-1.16-1.3,0-2.94.24-1.36-1.34.67-1.22,2.33-1.36,3.47-1.78.47-.27.8-1.34,1.44-1.1a.28.28,0,0,0,.38,0,7.39,7.39,0,0,1,2.21-.64.3.3,0,0,0,.39-.24c.23-.93,1.66-1.42,2.54-1.24.76,0,.76-1.49,1.33-2,.33-.63,1-.58,1.68-.55,1.05.13,1.29-1.3,2.37-1.22a2.78,2.78,0,0,0,1.26-.6c.34-.21,1-.67.73-1.09.12-.45.61-.42,1-.48,1-.07,1.67-.92,2.68-.86A9.11,9.11,0,0,1,90.43,8c.86.06.41-1,1-1.3.42-.91,1.4-1,2.11-1.42.81-2.1-2.5-1.4-3.4-2.51-.25-.3-.33-.29-.72-.12a11.73,11.73,0,0,1-4.74.7c-.77-.55-1.76.33-2.55-.51-.44-.51-.82.17-1.23.3s-.34.18-.3.4c.08.38-.33.43-.58.54-1.5.34-2.74-.9-4.23-.21-1.48.1-3,1.82-4.28.57-.59-.78-1.3.29-2,.1-1.3.13-2.11.16-2.5.91-.9.16-2.57-.74-3.44.22-.38.32-.52-.52-1,0-.9.49-2.28.18-3,1-.52.88-.85-.13-1.48-.13s-1.36-.15-1.76.31-.26.82-.71,1c-.95.12-1.13,1.65-2.1,1-.35-.37-.77.2-1.17,0-1-.12-1.84-1.53-2.93-.79a30.21,30.21,0,0,1-4.09,1.26c-.92-.52-1.65.55-2.58.46a2.44,2.44,0,0,1-3-.17c-.87.64-2,.88-2.53,2-.14.22-.29.38-.54.31-1.67-1-2.85.71-4.58.82-.29.13-.47.48-.79.2-.61-.49-1.28.11-1.91-.19-.43-.06-1.14.11-1.09.63a13.19,13.19,0,0,1-2.4,1.32c-.61.72-1.81.23-2.25.92-.76.18-.54.94-1.14,1.15s-1.65,0-1.88.62c0,.39,0,.38-.44.4-.81-.09-1.41.68-2.26.3a4.63,4.63,0,0,1-3.2.52c-.57.27-.6,1.18-1.25,1.1-.49,0-1.38,0-1.42.6.52,3,2.19.55,3.7,1.65-.39.51,0,1.8-.92,2s-.5,1.33-.5,2c-.28.86.77,1.22,1.15,1.84-1.05.32-.72,1.18-1.22,1.9-.81.76-.12,2.53.82,3-1.85,1,.83,2.72-.34,4.1-.3.25-.21.62-.29.9a.9.9,0,0,0-.89,1.27c.46,1.7.91,2.89-.93,4-.32.2.07.64-.34.5-1.45-.8-1.32,1-2.36,1.46-.4,1.08.37,2,.9,2.75-2.81,3.44-1.11,1.85.86,5,1.23,1.3-2.34,1.39-1.6,2.9a4.39,4.39,0,0,1,.3,1.81c-1.25-.63-3.4-1.8-3.88-3.08.11-1.55,2.1-2.25,2.05-3.7-1.87-2.07-1.06-2.1.43-4,.9-1.35-1.21-3.41.56-4.18,1.07-.37,1-1.86,2-2.3,3.24-2.65-1.89-4.23.75-6.94.95-1.06-1.35-1.94-1.11-2.92s1.16-1.68,1.29-2.61h0c-1.16-1.52.09-2.77.06-4.37.08-.77-.9-.91-1-1.6,0-.43-.47-.53-.6-.9-.23-1.05-2.9-2.16-2-3.11,1.93-.6,3.55.83,4.13-1.81a5.87,5.87,0,0,1,4.4-1,.85.85,0,0,0,1-.22c5.74-5.28,4.69,0,8.45-2.25.63-1.23,2.4-.83,3.61-.73,1.08.86,2.1-.21,3.17-.5a.53.53,0,0,0,.48-.56,1.11,1.11,0,0,1,.47-1.24c.43-.24,1-.67,1.5-.59.23.13.26,0,.37-.12.36-.48,1-.41,1.56-.32.93-.26,2-1,3-.56a3.73,3.73,0,0,0,3.69.27c.82-.32,1.8,0,2.55-.43.58-.27,1-1.17,1.77-.87.69.06,1.35-.53,2.11-.32.3-.2.55,0,.77.14.48.37,1,0,1.56.06,1.22.07.87-2.18,2.13-2.11.38.06,1,.16,1.07.54-.07.31.18.38.32.52.47.6,1,.12,1.56,0,1,.1,1-.33,2-.12.34-1.25,1.31-1,2.26-1,.68-.18,1.54.81,2,.14.76-1.21,1.26.13,2.17,0,.28-.07.63-.29,1,0,.66,0,1.07-1.27,1.79-1.18.36.2.59-.19.9-.12.63.16,1.13,0,1.54.66.8.57,1.31-1.07,2.26-.45.58.19.66.1,1-.34,1.7-2.13,4.81-1.16,7.13-1.07,1.73,0,3.09-1.13,4.81-1.2.52-.09,1-.28,1.55.15.9.49,2.21,0,3.25,0,1.68-.25.88,1.27,2.19,1.5a1.15,1.15,0,0,0,1.19.4c.48,0,1.69.12,1.58.77A1.55,1.55,0,0,1,96.21,4.86Z"/></g></g></svg>