<svg xmlns="http://www.w3.org/2000/svg" viewBox="0 0 72.57 128.45"><defs><style>.cls-1{fill:#c894ff;}.cls-2{fill:#854bb7;}.cls-3{fill:#491d66;}.cls-4{fill:#ffdeaa;}.cls-5{opacity:0.5;}.cls-6{opacity:0.25;}</style></defs><g id="Layer_2" data-name="Layer 2"><g id="geode-medium-5"><path id="fill4" class="cls-1" d="M72.4,93.89c.1.39.21.93-.25,1.08-.16.07-.14.14-.13.24.56.94-.36,1.05-.47,1.83a4.71,4.71,0,0,1-.1,2,3.2,3.2,0,0,1,0,2.2c0,.41,0,.8-.49,1a.89.89,0,0,0-.47.89c-.22.67-.93,1.1-1.19,1.8A25.31,25.31,0,0,1,66.23,111c-1.07,1.68-.84,4-2.52,5.41-2.07,1.21-3.22,3.48-5.58,4.24a3.6,3.6,0,0,0-.92.68c-.26.39.12,1.34-.75,1-.51-.19-.77,1.46-.56,1.72.49,1.36-1.29,2.47-1.78,3.68a2.33,2.33,0,0,1-1.78.68c-.38-.51-1.05-.54-1.66-.69-.84-.24-2.28,0-2.59-1.1,0-.4-.09-.48-.51-.57s-.71-.46-1-.17a2.81,2.81,0,0,1-2.81.07c-2.09-.44-1.66,1.08-3.66-1.14-.23,3.28-2.22,1.45-4.1,1.79-1.11,1.78-2.25-.43-3.49-.17a3.75,3.75,0,0,1-4.15-.69c-1.14-.5-2.43-.82-3.55-1.31-.54-.23-2.09.73-2-.17.18-.16,0-.29-.11-.38-.84-.55-.48.81-1.27.64-1.23.2-1.85-.63-2.2-1.61-.37-.3.16-.67.41-.8,1.21-.69.86-2.85,2.79-2.88.51-1.1,2.56-1.7,1.51-2.91-.27-.29-.29-.3-.08-.63a3.51,3.51,0,0,0,.35-3.71c-.1-1.48,3.11-1.65,2.15-3.45.37-1.12-.65-2.06-.39-3.08,1.51-1.76-1.36-2.42-1.61-3.89-.34-1,1.12-1.49.65-2.33-.3-.48.78-.83.06-1.28-1.11-.85-.86-2.88-2.47-3.07a.81.81,0,0,1-.71-.43c-1-2.29,1.67-2-.6-4.81-.15-2.57-2.46-4-3.35-6.36-.4-.7.61-1.45-.12-2.06-.38-.41-.07-1.36-.85-1.36-.75-.3-.51-1.42-1-2-1.24-1.59-1-3.55-3.25-4.38-.28-.36-1-.13-1-.72a21.73,21.73,0,0,0-1-3.51c.17-.93.2-2.25-.86-2.65a14.13,14.13,0,0,1-4-7.12c.08-1.53.78-3,.15-4.56-.59-1.83-1.89-3.41-2.54-5.19C3.38,48.35,2,47.69,2.7,46c-.56-1.65-1.87-3.4-1.85-5.3-.28-.94.71-1.62.44-2.63C.51,36.25.91,34.4,1,32.43c-.72-2-1.44-4.24-.58-6.35.14-1.79,1-3.72.5-5.43-.09-1.19.64-2.41.26-3.72,0-1.76,1.7-3.34.51-5.08,0-.71.17-1.55.07-2.34C1.89,8,.49,6.39,1.64,5c1.08-.69.21-2.33,1.65-2.4a8,8,0,0,1,2.38-.29c.86.13.81-1,1.64-1,1.74.08,3.39-.9,5-.62C13,1,13.38.25,13.94.39A3.46,3.46,0,0,1,16.42.13a5,5,0,0,1,2.2.18C19.4.43,20.22,0,21,.19s1.6.75,2.28.39c.36-.44.84.12,1.23-.17.28-.08.54-.19.81.06s.72-.11,1,.2c.45.29,1-.31,1.42.22.52.25,1-.38,1.53-.11a.69.69,0,0,0,.69-.16c.43-.35,1.14,0,1.7-.19a2.86,2.86,0,0,1,1.67.69,2,2,0,0,1-.56,2.3c-.92,1-1.75,3-3.38,2-.82.43-1.92.37-2.8.83a.53.53,0,0,1-.63-.16,2.1,2.1,0,0,0-2.6,0c-.07.64-1,.63-.84,1.3.14.92-1.24,1.24-1.31,2.21.39,1.3,2.1,1.84,2.27,3.39.19.64-.38,1.49-.13,2a1.21,1.21,0,0,1,.1,1.37c-1,3.57,3.18.74,2.63,6.18-.25,1,1.09,1.14,1.24,2-.41,2.3,1.81,3.13,2.67,5-.78,1.92.32,3.41,1.67,4.8,1.21.89.69,1.81.75,2.94.42.41.32,1.31.89,1.5.25.16-.1.5.26.61.77.79.92,1.7,1.7,2.43.55,2,3,2,3.84,3.6.06,1.31,1.61,1.84,1.87,3.21.35.6,1,.06,1.47.18,1.1.89,3.2,1.3,3.24,3-.54,1.4,1,1.47,2,1.92,1.41.53,1.5,2.51,3,3-.24,2,2.17,1.9,3.74,3.42,1.5.73,1.53,2.21,2.39,3.4.7,1.82,2.35,1.86,3.76,2.6,1.44,1.51,2.05,3.3,3.5,4.81,1.77,1.51,2.33,3.56,3.55,5.4C68.24,77.62,70,79,69.2,80.55c-.28.34,0,.81,0,1.25.44.94,1.68,1.32,2.23,2.25.29.68,0,1.44.46,2.16.26,1.05-.43,1.92-.38,3-.12.83.77,1.45,1,2.2C71.93,92.12,72.52,93,72.4,93.89Z"/><path id="fill3" class="cls-2" d="M53.72,107.5c-1.14.39-1.83-1-1.77-2,.56-1.54,1.88-2.12,3.09-.76C55.86,105.61,54.17,106.76,53.72,107.5Zm4.86-6.3c1.65-.22.86-2.12-.38-2.57-1-.37-1.22,1-1.91,1.36C55.68,101.07,58,100.92,58.58,101.2Zm-.62-12c0,.34.37.29.57.32.56,0,1.87-.35,1.55-1.09a.63.63,0,0,1,.05-.53c.32-.44-.1-.79-.16-1.17.16-.21.06-.45.09-.68.75-1.49-1.65-3.33-3.05-3.94-1.13-.21-1.37-2.1-2.2-2.24-.44,1.19.89,1.52,1.23,2.46C55.88,84.8,57.37,87,58,89.21Zm-42.09-60c.53,1.15,1.07,1.94,2.39,1.65.75.32.9,1.64,1.53,1.76.23-.89.42-2.28-.43-2.9a17.21,17.21,0,0,1-1.61-2.65C16.73,26.94,15.74,28.41,15.87,29.24Zm2.77,5c.29-.14.44,0,.61.18a3,3,0,0,0,1.64.88c.2-.19.45-.06.72-.15a2.2,2.2,0,0,1-.84-.92c-.72-.66-1.94-1.23-2.07-2.36C18,30.4,15.94,32,17,33.16,17.5,33.49,18,34.3,18.64,34.26Zm1.78,1.34c-.85.09-1.41-1.35-2.21-.84-1.26,1.76.74.82,1.68,1.55C20.24,36.5,21,35.88,20.42,35.6Zm-.23,1.3c-.76-.17-2-1.24-2.21.19a1.28,1.28,0,1,0,2.19,1.3A10.61,10.61,0,0,1,20.19,36.9Zm4.2,4.31c-.92-.25-1.49-1.1-2.22-1.66-.25-.37-1.36-1.07-1.74-.61-.42.29-1.05.15-1.35.68-3,2,4.51,2.7,4.91,4.21C25,43.09,24.57,42.19,24.39,41.21Zm11.2,17.68c.59-.55,1.6-.12,2.29-.63.53-1.68-2-1.47-3-1.6-.78.44-.45-.29-1-.19C34,57.22,35.1,58.14,35.59,58.89ZM33,56.83c.05,0,.12-.06.17-.08-.42-.47-1.29-.24-1.86-.49s-.78-1.33-1.49-1.19c-.41.46-.3,1.11-.71,1.58-.1.14-.06.17.1.19.91.11,1.41.83,2.22,1.26C31.91,57.67,32.37,57,33,56.83Zm-7.85-8.14c-.05.43.5.68.29,1.1a.31.31,0,0,0,.09.25,3.26,3.26,0,0,1,2,2.13c.6.85.5,2.7,1.91,2.48.25-.31,1.13.34,1-.4a3.63,3.63,0,0,0-.76-2.16c-.38-1-.45-2.46-1.63-2.89a1.09,1.09,0,0,1-.87-.84c-.55-.78.51-1.65-.27-2.38-.27-.48,0-1.16-.41-1.55a3.53,3.53,0,0,1-1.39-1.22c-1.17,1-1.83,2.9-.24,3.89C25.4,47.44,25,48.15,25.16,48.69ZM19.22,58c0-.14-.06-.17-.17-.08-.72.53-1.42-.15-2.15-.14-.52-.38-1.06,0-1.58.1-3.2,1.11.91,3.08,2.24,3.8l.09-.07c.92,0,1.13-.71,1.19-1.51S19.43,58.79,19.22,58Zm-.32-.51c1.63-2.3-2.24-2.85-3.75-1.87h0c.3.47,0,2,.82,1.66C16.92,56.76,17.93,57.9,18.9,57.5Zm4.41-11.26c-.47-.25-1.23.44-1.84.08.2.94,2.45,3.16,3.07,1.61C24.73,47.19,23.68,46.79,23.31,46.24Zm.65,6c.14-2.22-1.12-.9-2.31-.59C20.85,53.7,23.06,54.21,24,52.23ZM19.17,55c-.3-.56.63-1.05.89-1.52.36-.3,1.61-1.95.71-2.09-.41-.18-.4-.82-1-.68-1.29-.14-2.18,0-2.76-1.51-.79-.32-3.09-.27-2.51,1a6.81,6.81,0,0,0,0,4.12c-.26,2.23,3-.84,4.46.86C19.05,55.34,19.34,55.22,19.17,55Zm-5.48-6.28c1.09.49,2-.4,3.11-.05.28-1,1.42-2.14.57-3.1-1.14-.59-3.19.52-3.89-1.11-.74,0-.73,1.11-1.16,1.55C10.73,47.68,11.69,48.58,13.69,48.71Zm-.54-4.6s.25-.13.09-.29c.58-1.3-.52-2.21-1.77-2.55-.2-.06-.31-.05-.28.2-.14.93-1.65,1-2.1,1.94-.18,1.21,1.11,2.31,1.92,3.15C12.12,46.43,12,44.34,13.15,44.11ZM9.75,37c1.25,0,1.76-2,2.54-2.87.06-.1.08-.14-.06-.19-.39-.09-.57-.62-.9-.75-1-.09-2.44.52-2.33,1.84.25,1-.93,1.4-.94,2.33A5.8,5.8,0,0,1,9.75,37ZM6.86,32.17c.8.92.85,3.64,2.35,1.35.48-.66-.66-1.09,0-1.88,0-.81,1.17-1.37.46-2.12-.27-.53-.45-.21-.87-.13-1,.21-2.37-.31-2.16,1.21C6.67,31.16,6.33,31.78,6.86,32.17Zm3,.74c.33.35.74-.21,1.15-.08,1.79-.73.89-5-1.38-3.86a2.13,2.13,0,0,1,.73.73c.31.66-.61,1.54-.75,2.26C9.29,32.31,9.69,32.61,9.89,32.91ZM9.3,28.82c0-.77-.22-2.21-1-2.54-.44.14-1-.5-1.26,0a3,3,0,0,0,.56,2.84A5,5,0,0,0,9.3,28.82ZM7.4,25.67c1.67.72,1.27-1.33,1.06-2.36-.56-.74-1.19-1.51-2.22-1.07a.58.58,0,0,0,.06.21c.62.71.13,1.51-.16,2.21C6.69,24.86,6.67,25.74,7.4,25.67Zm1.19-2.76c2.31,1.3,2.43-2.36,2-3.63-.6-.45-1.3-.34-2-.5-.24-.09-1-.39-1,0-.19,1.1-.72,1.62.56,2.25A3.22,3.22,0,0,0,8.59,22.91ZM5.23,10c-.35.23.42.73.57,1s.36.32.65.21.4.31.64.08c.72-.8,2.5-.52,2.76-1.57-.13-.29.18-.41,0-.68C9.29,8.68,8.6,8.23,8,8.78c-.24.23-.37.2-.56-.08-.34-.5-.65.28-.9.49C6.26,9.63,5.68,9.68,5.23,10Zm5.35-1c-1.08,1.54.94.38,1.71.38C12.22,8.52,11.1,8.83,10.58,8.93Zm1.58-2.5c1.16.08,3.44.9,3.11-1.13-.62-1.71-2.09.38-3.28-.51-.55-.29-.54.35-.84.7S11.82,6.42,12.16,6.43ZM8,8.35c.61-.57,1.35.07,2,.19,1.46,0,3.13.22,3.86-1.32a3.87,3.87,0,0,0-1.75-.4c-.7.16-.92-.9-1.54-.75-.91.5-2.2-1.05-2.81-.48-.09.4-.48.47-.77.66C6.76,7,8.16,7.57,8,8.35ZM14.73,11c.23-.91,1.28-.89,1.34-1.85a11.4,11.4,0,0,0,.47-2.38c-.57-1.11-1.31-.24-1.86.47a15.76,15.76,0,0,0-1.84,1.64C11.83,9.21,14.56,11.63,14.73,11ZM12,12.47c.36-.41.87-.07,1.32-.19.71,0,1.39-.87.38-1.09-.65-.4-1.11-1.56-1.9-1.49a19,19,0,0,0-3,1.25c.5,1.13,1.66,1.33,2.76,1.56A.32.32,0,0,0,12,12.47ZM8.11,16.28c1.55-.24,2.36-2.11,3.66-2.3.06,0,.19-.2.17-.22-.47-1.58-2.57-.83-3.28-2.34-.57-.67-1.3.25-1.94.34-.19.58.33,1.26-.11,1.83C6,14.59,7.07,16.21,8.11,16.28Zm-.36,1.17c-.12,1.52,2.83.81,3.83,1.85a4.09,4.09,0,0,0,4.25.06c.75-.53-1.09-1.43-1.31-2.07a.78.78,0,0,1,.07-1.41c.45-.2.08-.86.37-1.22,0-.85-2.15-.18-2.88-.31-1.07,0-1.26,1.26-2.21,1.55C9.21,16.42,7.79,16.52,7.75,17.45ZM13.83,22c.76.21,2.46-1.59,1.52-1.81a6.77,6.77,0,0,1-3.94-.43c-.32.52-.54,1.7.42,1.78C12.51,21.68,13.09,22.19,13.83,22Zm-.71,5.62c.18-.81,2-1,1.22-1.84-.42-.85,1-3.56-.56-3.36-1,.6-2-1.23-2.77-.36-.22.5-.39,1.54-1.09,1.56C7.8,22.47,9.41,27,9.65,28S12.56,28.09,13.12,27.64Zm-.56,6c1.45.25,2.45,1.53,4,1.44.58.08.8.49,1.08-.27.22-1-2.74-1.92-1-3.35a.24.24,0,0,0-.06-.39c-.86-.4-.8-1.41-1.5-1.92s-2.85-1.28-3.31-.29C13.48,31.07,11.15,33.3,12.56,33.6ZM14,38c.07-.81-.28-1.64.07-2.46s-1.12-1.94-1.56-.92c-.29.48-.41,1.15-.86,1.51-2.24,1.74-1.28,3.73,1.42,2.76C13.64,38.93,13.69,38.24,14,38Zm1.55,2.85a2,2,0,0,0-.9-2.32c-.3-.34-.52.17-.75.35-.62,1-2.48.06-2.75,1-.06,1.28,2.3,2.1,3.32,1.67C14.85,41.19,15.68,41.38,15.59,40.82ZM17.25,38c-.09-.31-.16-.57.16-.84.91-1.35-1.83-2.19-2.76-1.84-.31,1-.5,2.63.6,3.16C15.61,39.33,17.57,39,17.25,38Zm-.92,1.35c-.18,0-.26.08-.26.26-.07,1.31,0,2.65,1.53,1.51.38-.13.08-.46.17-.69s.25-.44.31-.75C18,38.44,17,39.33,16.33,39.34ZM14,42c-.64.1,0,1-.17,1.44C13.54,45.4,16,45,17.2,44.88c.47-1.41,1.31-1.81,2.54-2.38,1-.22-1-.6-1.21-1-.14-.17-.31-.28-.5,0-.61.23-1.31,1.06-1.93.46S14.73,41.93,14,42Zm7.39,4.07c1.17-.23,2-.22,2.15-1.67-.46-2.67-6.35-1.77-5.65,1.13C18.76,46.48,20.32,45.84,21.42,46.08Zm-2.66,4.1c.43-.39.91.06,1.36.13a.93.93,0,0,1,.83.53c.51-.15-.14-1.45.57-1.89.42-1-.06-2.55-1.26-2.54a3,3,0,0,1-1.85-.08c-.08,0-.28-.07-.23.14-.19,1.68-1.68,2.11,0,3.65C18.35,50.22,18.57,50.36,18.76,50.18Zm3,1.24a2.6,2.6,0,0,1,2.2-.89c2.51-.76-.18-1.9-1.37-2.17C21.43,48.54,21.84,50.51,21.72,51.42Zm7.75,31.63c.19.68,1.28.86,1.24,1.63.12,1.26-.36,2.54.07,3.8a18.23,18.23,0,0,1,2.5-3.15c0-1.5.67-3.1-.22-4.47A18.1,18.1,0,0,1,32,77.52c0-.35-.84,0-1.12-.21.2.71.28,1.87-.64,2.29a.42.42,0,0,0-.29.48C30,81.14,28.94,82,29.47,83.05Zm.43-3.77c.67-.16.81-1.63.36-2S29.07,75.55,28.52,76c-.12.7-1.57,1.17-.65,1.88C28.64,78.22,29,79.43,29.9,79.28Zm-2.88-2c.06-.63,1.27-1,.76-1.63a7.36,7.36,0,0,1-1.39-3.39c0-.12-.18-.16-.26,0a4.72,4.72,0,0,1-1.26,3.65c-.31.83.15,2.47,1.23,2.26C26.22,77.66,26.74,77.63,27,77.29Zm-.53-5.73c.44-.28.77-.66,1.28-.93.35-.61-.9-1.29-1-2-.46-1.45-2.17-1.52-3.48-1.22a2.12,2.12,0,0,1,.13,1c.07.64-.33.93-.67,1.39-.07,1.51-.65,3.07-.68,4.5,2.18-.32,2.81,3.53,3.54-1.81C25.65,71.73,26,71.68,26.49,71.56Zm-5.31-7.84c-3.48,0,1.82,5.4,1.57,2C22.78,64.62,22.36,63.76,21.18,63.72ZM23,62.22c-1-.3-.6-1.94-1.56-1.95-.46-.14-.91-.17-1.19-.64-.23-.26-.47-.8-.67-.19-.42,1.24-.16,2.54-1.85,2.65-.81.43.77,1.33,1.17,1.53,1.19.16,2.35-.68,3.49,0C22.8,63.94,23.17,62.41,23,62.22Zm-3.12-3.74c1,1.87,2.69,1.67,2.15-.65,0-.47-.36-1.5.29-1.57.33.08.42-.22.73-.37-.46-.92-.06-2-1.31-2.29-.79-1.08-1.31.27-1.95.82-.48.46-.12,1.32-.15,1.95C19.94,57,19.41,57.84,19.91,58.48Zm6.46-3.23c.5.18.51-.85.85-1.08C28,53,25.85,49.4,24.41,50.88c.16.14-.14.58.08.88.31.64-.5,1.17-.83,1.63-1.05.78-.05,3.36,1.22,3.18C25.28,56,25.5,55.13,26.37,55.25Zm.12.74c-.22-.94-1,.44-1.18.84.13,1,1.86,3,1.23.58A2,2,0,0,1,26.49,56Zm-3.84.66c-.44.28,0,1.31-.17,1.85-.12,1.27.07,4.47,2,2.64.76-.47,1.61-.84,1.75-1.78.32-.5-.66-.56-.84-.94-.27-1.51-1.28-1.27-2.11-2.26C23.05,56.46,23,56.71,22.65,56.65Zm5-2.06c-1.35,2-.44,5,1.08,1.68C29.61,55.64,28.39,54.17,27.64,54.59ZM29.56,62c.73.16.12-.78.62-1.07.12-.86,1.21-.59,1.18-1.47a4,4,0,0,0,0-1c-1-.34-1.55-1.2-2.5-1.12a4.72,4.72,0,0,0-2.14,2.12c.15,1-1.3,1.11-.7,2,.21.84,1.39.14,1.81.94C28.57,63,28.75,61.63,29.56,62ZM23.16,67c1.45.06,3.51-.29,4.08,1.4,1,1.8.75,2.32,2.51.9-1.11-1.24,1-1.53,1.14-2.63.32-.56-.41-1.18-.44-1.78-.13-.8-.39-3.19-1.64-2.16-.9.89-1.64-.64-2.58-.4-.5.08-.67-.41-.79-.8s-.12-.32-.35-.14c-2.26,1-1.78,3.43-1.9,5.42A.42.42,0,0,0,23.16,67Zm10.18-1.42c.9-.19.73-1.37,1-2.05a1.25,1.25,0,0,0-.84-.82,9.92,9.92,0,0,1-2-1.9c-1-.5-1.09,1.27-1.09,1.89.63.79.43,1.9,1,2.77C31.6,66.38,32.64,65.33,33.34,65.54Zm-.35-4a2.3,2.3,0,0,0,2.1,1.06c.25-.24.91,0,.87-.35-.36-1.19.08-2.69-1-3.54-1.69-2.8-3.28-.87-3.14,1.52C32.27,60.83,32.19,61,33,61.54Zm7.49,1.62c1.56-.47,1.06-.17.47-1.28s.23-2.23-1.41-2c-1.08.23-1.39-1.16-2.31-1-.3.22-1.38,0-1.07.56C35.66,62.2,38.06,63.52,40.48,63.16Zm1.88-.38c-.74,1.92.52,3.09,2.17,3.8a7.48,7.48,0,0,0-.06-1.25c.19-.22.08-.45,0-.69.44-1.34-.85-1-.78-2.15-.37-1.07-1.83-1-2.44-2h-.09c.07.65.12,1.69.82,1.94C42.33,62.44,42.39,62.46,42.36,62.78Zm2.1,7.91c1.24.3,2.27.07,1.51-1.41-.16-.69-1-.19-1.39-.63-.6-.65.88-1.29-.85-2-.73-.23-.89,1.46-.11,1.65C44.08,69,44,70,44.46,70.69Zm-2.89.3c.61.07.73.66,1.37.38,1.35-.48.39-1.78.28-2.7-.35-.28-.75-.4-.65-1,.38-2,.15-1.3-.9-2.82-.51-.35.28-1.41-.18-1.59-.39.17-.73.59-1.18.32C39.6,63.25,38.38,67,39,67.56,39.7,68.93,39.51,71,41.57,71Zm-6.2-5.88c-.23,1.93.8,1.36,2,1.41,1.17.2,1.4-1.63,1.76-2.5.06-.72-1.31-.49-1.77-1-.84-.67-1.36-.16-2.25,0-.53-.06-.16.28-.31.59C34.41,64.47,35.59,64.44,35.37,65.11Zm1.52,6.52c.24.48,1.45.1,1.54-.37-.11-.74,1-.54.8-1.16-.39-1.46-.58-3.89-2.27-3-.29-.1-.56.19-.88,0-.56-.18-1.13,1.31-.7,1.76C35.67,70,35.78,71.08,36.89,71.63Zm-2-6.64c.1-.15-.14-.09-.27-.08-.38.4-.52.77-.28,1,.5.61.18,1.37.34,2.07C35.7,67.06,34.37,66,34.89,65Zm-.49,5.35c.28,0,.75.52.93.27-.56-.77,0-2.28-1.45-1.92A1.43,1.43,0,0,0,34.4,70.34Zm-.66-2c.95,0,.12-1.08.3-1.6,0-1.27-2.22-.64-2.56,0-.11.87-1.59,1.22-1.44,2.07C31,69.77,32.45,67.59,33.74,68.3Zm-2.18,2.59c.6-.22,1.15-.71,1.89-.57.06-.22-.11-.63-.1-.92-.23-.2.22-.89-.1-.73A7.26,7.26,0,0,0,29,70.49C29.86,70.74,30.69,70.71,31.56,70.89Zm2.05,4.9c.21-.09.14-.17.11-.31-.36-.75,0-1.81-1.16-1.82-.39,0-.62-.21-.61-.52,0-.68-.33-1.72-.86-2-.92.29-1.91-.37-2.81-.38-.48.32-1.27.72-1.49,1.31.46,1.14.41,2.92,1.82,3.33.39,0,1,0,1.12.49.4,1.13,1.59,1,2.49,1.07C32.76,76.84,32.94,75.93,33.61,75.79ZM36,75.73A3.59,3.59,0,0,1,35.68,74c-.08-.73-1.11-.89-1.48-1.47-.46-.35-.29-.83-.24-1.29-.08-.82-1.28-.55-1.73-.18-.27.56.31,1.26.2,1.88.11.64,1.28.18,1.39,1,.15.41.11,1.34.6,1.56C34.9,75.21,35.82,76.52,36,75.73Zm-3.25,2.6c0,.47.46,1.92,1,1.36a.93.93,0,0,0,.64.06c.79.49,2.71-1,2.72-2-.08-1.49-1.8-1.14-2.72-2a.35.35,0,0,1,0,.06.54.54,0,0,0-.5.31C33.07,76.3,32.23,77.56,32.71,78.33Zm4.87-1c.05,1.41.7.13,1.1-.41A2.79,2.79,0,0,0,38,74.67a4.08,4.08,0,0,0-1.25-2.33,6,6,0,0,0-2-1.34c-.13-.13-.3,0-.3.23,0,2,2.45,1.72,1.92,4.23C36.54,76.2,37.53,76.45,37.58,77.32Zm5,.27c.5-.06-.08-.7,0-1,.16-1-.54-1.68-1.07-2.44s-2.3,0-3.15-.1c.74.89.68,2.1,1.32,2.68A2.8,2.8,0,0,0,42.56,77.59Zm-4.84-5c.41.37.53,1.39,1.25,1s2.52.48,2.4-.64c0-.62,1.37-1,.19-1.46-.47.28-.9-.3-1.33-.47-1.52-1-1,1.42-2.61,1.23C37.3,72.24,37.64,72.52,37.72,72.61Zm9-1.54c.68,1,2,1.37,2.64,2.41.22.19.76.11.79-.15,0-.49.55-.28.86-.46-.16-.33-.74-.42-.65-.81a.81.81,0,0,0-.26-.7c-1.09-1.18-1.39-3.19-3.4-2.47-.39.13.14.74.14,1C47,70.33,46.4,70.74,46.67,71.07Zm2.29,7c.3.79.45,1.62,1.44,1.68,1,.54,1.05-.41,1.14-1.2s-.63-.64-1-.76a.79.79,0,0,1-.72-.42c-.36-.64-1.13-.24-1.73-.45-.33.07.07.34.22.37C48.69,77.39,48.81,77.75,49,78.07Zm-4.67-3c.8-.06,1.33.85,2.18.87.39.27.84-.37,1.07.14s.62.43,1.07.42c.7,0,.66-.19.35-.74.14-2.13-.44-2.7-2.2-3.89-2.28-2.12-6.88,1-3.7,3.37C43.42,75.54,43.88,75.09,44.29,75.11ZM47,80.83c1.62.36.75-.14,1.54-.9.61-.37.25-.7,0-1.18,0-.91-.82-1.19-1.42-1.77.06-.44-.13-.5-.49-.44-.54-.4-1.4-.06-1.78-.67s-1.17-.28-1.67-.1c-.64.35,0,2.17.9,2C45.82,77.71,45.52,80.34,47,80.83Zm11.18,11.1c.45,0,.88.45,1.31.38.62-.35,1.31-.31,1.79-.87,1.26-.79-.49-2.36-1.47-1.8-.65.64-1.49,0-2.18.42-.64.86-1.72-.19-2.38.49-2,2.1,0,3,2,2.24C57.75,92.65,57.86,92.08,58.22,91.93Zm-2,4.8A.56.56,0,0,0,57,96.5c.15-.39,1.05-.78.94-1-1.31-1.18,0-2.51-2.86-2-1.35-1.14-1,0-1.21,1.13C52.82,96.24,54.93,96.87,56.22,96.73ZM34.24,93c-.65-.37-.42-1.37-1.27-1.52-.68-.35-.95-.4-1.51.07-.89.25-.53,1.71-1,2.38s.28,1.6-.43,2.29c-.6.92.79,1.48,1.24,2,.16.32.32.68.71.74s.61-.71,1.15-.39a3.83,3.83,0,0,0,2.41-.09C35.92,95.43,38.27,95.64,34.24,93Zm.29,13.16a1.35,1.35,0,0,1,.22.14c.4-.47,1.27-.94,1.27-1.62-.2-.34,0-.61.19-.87s.18-.23-.09-.29a2.64,2.64,0,0,1-1.16-1c-.39.46,0,1.14-.13,1.72.06.4-.54.59-.31.89A2.16,2.16,0,0,0,34.53,106.14Zm-2.35,5.21c-.09.27.29.44.45.63.55.43,0,1.22.45,1.77.37.91,1.23-.36,1.86-.38.56-.55,1.11-1,1.76-1.57s-.34-.85-.4-1.48-1.14-.69-1.67-.84c-.78.61-1.3-.87-2-.77C31.15,109.48,32.3,110.13,32.18,111.35Zm4.38-2c1.52-.35.63-2.18,2.32-2.2.18,0,.12-.22.09-.27-.64-.23-2.37-2-2.86-1.26-.57,1.33-2.39,1.44-3.29,2.53.61.23,1,1.09,1.74.83C35.23,108.88,35.94,109.55,36.56,109.33Zm-5.34,7.55a.49.49,0,0,1,.33.67c0,1.15,1.53.8,2.29.84-.79-1.32-.13-2.93-1.09-4.27-.49-.66-.15-1.75-.91-2.28-.33-.27-.61.35-.78.55a3.26,3.26,0,0,0-.63,2.27c.17.46-.61,1.12-.12,1.37C30.73,116.1,30.89,116.64,31.22,116.88Zm1.65,7.45c.32-.67-1.35-2.18-1.86-2.67-3.06-.63-.69,3.14.84,3.59C32.24,125.36,32.35,124.42,32.87,124.33Zm-.45,1.7c1.13-.57,2.3,1.67,3.3.23.28-.31-.57-.72-.53-1.19-.2-.4-.81-.32-1.17-.58C33.39,124.23,31.78,125.4,32.42,126ZM32,121.42c-.25,1,2.14,3,3.2,3,.28.25.35,0,.42-.2a1.05,1.05,0,0,1,1-.67c2.69.09.62-2.2-.35-2.9-.34.31-.35.3-.57-.11s-1-.59-1.1-1.2c-.25-.81-2-.76-2.25-.09S32.32,120.8,32,121.42Zm6.84,4.94c1-.08.62-1.51,1-2.12.13-.45-1.1-1-1.46-.72-.71.84-2,0-2.45,1.1C35,125.78,37.83,126.49,38.79,126.36Zm-.18-3.57c.2-.2.21,0,.27.13a1.1,1.1,0,0,0,1.1.42c.94-.2,2.38-.28,1.28-1.47-.59-.44-.31-1.53-1.17-1.63-1.4.22-.52-1.9-1.37-1.76-1.72.5-3.7,1-1.52,2.66C37.82,121.54,38.09,122.42,38.61,122.79Zm3,2.74c.61.35,1.45-.47,2.21-.08,1.23-1.54.08-1.74-1.24-2.06-.26-.24-.4.18-.64.16-.52-.13-1.37-.07-1.66.36C40.19,124.65,41.25,124.93,41.59,125.53Zm4.77-.2c-2.58-.94-2.58,1.29-.12.16C46.29,125.45,46.31,125.38,46.36,125.33Zm-.08-1.44c.74-.09,1.63-.49,1.48-1.36,0-.27-.21-.6-.1-.8.19-.51-.7-.71-1-.38s-.74,0-1.07.05c.09.84-.83,1.68-.76,2.6-.15.59,1.27,1.2,1.33.5C46.21,124.3,46,123.86,46.28,123.89Zm-2.45-3.34c.33.4,1.8.76,2,.21A1.3,1.3,0,0,0,43.83,120.55Zm-2.66-.12c0,.95,1.06,1.29,1,2.21,0,.16.06.23.23.28.58.11,1.3.58,1.86.31.5-.58,1.27-1.87,0-1.93-.74,0-.81-.73-1.33-1-.69-.41-.26-1.64-.87-2.11-1-.42-2.73-.65-2.45.93C39.53,120.18,41,119.39,41.17,120.43Zm2.72-3.15c.16-.68.81-1.24-.13-1.71-1.54,0-1.25-1-2.18-1.53a1.77,1.77,0,0,0-1.33,2.09c.08.45-.55.82-.41,1.25a6.53,6.53,0,0,1,2.25.24C42.62,117.76,43.73,118.06,43.89,117.28Zm-6.3,1c.51-.19,1.75-.14,1.8-.69-.22-.36,0-.66.16-.91.5-.66,0-1.55.62-2.13.26-.66,1.16-.76,1.25-1.23a.74.74,0,0,0-1.2-.5c-1-.36,1.46-3,1.57-4,.62-1.91-3.08-2.06-3.64-.56-.43,2-2.26.63-.65,3.11,0,1-1.39,1.19-1.71,1.94-.17.53-.66.36-1,.57-.28.36-1.12.41-1.07.85.59,1.26-.24,2.84,1,3.78.5.22.31,1.53,1.08.94C36.35,119,36.72,118.32,37.59,118.32ZM40.83,107c1,0,1.23,1.07,1.83,1.63,1.19.62,0,2.08.75,2.92.71-.18.75-1.07,1.44-1.21.25,0,.45-.34.74-.09.32-.14.46-.56.7-.9a22.24,22.24,0,0,1-1.71-2.11c-.16-.47.38-.91.28-1.42,0-.23,0-.32-.28-.18-.69.19-1.3-.63-1.87-.94a6.19,6.19,0,0,0-2.83,1.91C39.62,107.12,40.56,107,40.83,107Zm2.92,8.12c.31.06,0-.34.23-.41,0,0,.05-.11.06-.16.56-1.35-1.54-2-1.39-3.47.07-.48-.46-.94-.06-1.4.29-.28,0-.64-.26-.75-.66.71-.81,2.17-1.74,3-.08.12-.11.26.14.28C42.2,112.52,42.16,115.16,43.75,115.16Zm1.77,1.07c1,.13.72,1.49,1.64,1.77,1-1.14-1.21-2.42-1.26-3.78a13.67,13.67,0,0,1-.19-2.31,3.49,3.49,0,0,1-.32-1.41c-1.5,1.7-2.52,1.41-.56,3.33C44.57,114.79,44.29,116,45.52,116.23Zm2.68,5.09c-.11.7.42,1.87-.14,2.34-1.52.24-1.57,1.92,0,2.08.14.13.19,0,.27-.08.31-.46,1.19-.67.91-1.32-.57-1.63.21-3.72-.92-5.13-.74-.81-2.38-.73-2.56-2,0-.41-.73-.87-1-.53-.87,2.66-2.71.56-1.74,2.84.65,1.2,2.11-.72,2.83.74C46.44,121.14,47.69,120.45,48.2,121.32Zm1.2-1.57c.31-.55.52-1.32,1.32-1.25.36,0,1,.09,1.22-.23.36-2.09-.6-1.48-1.81-2.24-1.56-.94-1.65.34-2.21,1.41-.28,1.14.89,1.44,1.29,2.31C49.26,119.88,49.35,119.85,49.4,119.75Zm1.11-3.92a.14.14,0,0,0,.26,0c.11-.55.55-.76.87-1.24a4,4,0,0,0,.41-1.54,1.56,1.56,0,0,0,.31-1c-.54-2.18-4.86.29-3.71,1.74a1.32,1.32,0,0,1,.32,1C48.85,115.56,50.18,115.2,50.51,115.83Zm-3.29,0c.19.2.33.45.55.73a2.61,2.61,0,0,0,0-3.53c-.38-.42.45-.57.1-.84-1-1.83-2.74-2-1.5.44A4.64,4.64,0,0,0,47.22,115.87Zm4.94-8.36c-1.55-1.39.44-2.36-2.61-2.43a9.15,9.15,0,0,1-3.2,5.1c0,.49,1.3.38,1.47,1.1.56,1.41,1.51.34,2.2-.46.51-.43,1.57.19,2.08-.18.67-1.16,2.72-.54,2.68-2.23C54.11,108,52.88,108.26,52.16,107.51Zm2.55-4c0-.59.52-.94.86-1.35.62-.69,1.31-.9.26-1.56-.39-.44.08-.94.42-1.27.8-.39,1-2-.1-2.19A4.23,4.23,0,0,1,54.46,97c-1.38.3-2.42,1.92-3.58,2.71-.76.82-.75,2.21-1.71,2.8s.49,1.51.46,2.21c3.74.85,1.86-2.07,4.86-1C54.72,103.81,54.71,103.8,54.71,103.56Zm-5-5.51a1.66,1.66,0,0,0,.14,1.31c.14.28.56.32.58,0,.53-.62,1.53-.63,1.94-1.54a1.1,1.1,0,0,0-2,0C50.18,98,50,98.07,49.68,98.05ZM52.31,97c.36.73,1.41,0,1.16-.62-.32-.35-.31-1.57-1-1.3s-.8,1.2-1.33,1.14C51,96.88,52,96.36,52.31,97Zm-2.19-7.69c-1-1.82-1.27.47-1.54,1.4C48.8,92.54,50.72,90.21,50.12,89.27ZM51,90.42c-1.52.64-2,2.89-1.39,4.32.58.58,1.45,1.28,1.9.28,1.26-1.25,1.82.57,2-2C53.85,91.58,52.15,90.83,51,90.42Zm4.13-.59c.23,0,.21-.1.22-.25.31-1.82-.08-2.57-1.29-4-.31.84.7,2.2.62,3.22s-1.51,1.57-1.21,2.61C54.32,92.2,54.5,89.87,55.16,89.83Zm.79-.4c-.12.59.62.37,1,.49.79-.09.17-.85.42-1.31-1.92-2.21-1-5.76-3.19-7.6,0-.49-.09-1.29.39-1.5-.57-.69-1.5-.58-2.19-1.07-.6-.22-.27,1.15-.45,1.53C53.1,81,53,82.78,53.57,84.26,54.73,85.92,56.69,87.21,56,89.43Zm-3,1c.1-.39.69-.38.67-.9,1.43-1.26-.95-3.39.05-4.4a.76.76,0,0,0-1.11,1,.8.8,0,0,1-.43.88c-.81.41-2.38,2.69-.71,3C52.06,90,52.54,91.11,53,90.46Zm-.66-8.88c-.17-1.42-1.78-1.25-2.8-1.7-.86.17-.74,1-1,1.64.35.47.08,1.42.91,1.44,1,.33,2.18,1.4,3.38,1.2C52.82,83.27,52.38,82.47,52.33,81.58Zm-.67,5c1-.32-.37-1.33.43-1.72.07-.79-2.27-1.07-3-1.57a6.09,6.09,0,0,0-.88,2.47c.22.71.55,1.89,1.29,2.24C50.59,89.28,50.84,87.13,51.66,86.59Zm-10.45-7c-.39,1.08,1.13,1.45.87,2.53-.1.81.52,1.46.63,2.22.48.93,1.73.7,2.42,1.47a3.26,3.26,0,0,1,1.27-.1,5.41,5.41,0,0,1,1.3-.49c.3-.61.28-2.06.87-2.42C48.2,80.63,47,81.74,46,80.49c-1-.69-.71-2.55-2.33-2.36a4,4,0,0,0-2.41,0C41.73,78.44,41.21,79.14,41.21,79.63Zm-2.78-1.22c.07-.17.32-.3.29-.5-1.49.59-2.59,2.58-4.42,2.28-.59-.19-.88.31-.63.82,1.91,0,4.76,4,5.27-.05C39.87,80.08,37.43,79.59,38.43,78.41Zm.18,4.52c-.43.3-1,.06-1.38.44.14,1.1.83,1.19,1.84.82C38.9,83.85,39.18,82.62,38.61,82.93Zm.79-.2c.15.76,0,1.35.67,1.9.74,2.63,1.26,2.18,2.17,0-.17-.82-.82-1.65-.81-2.47a.82.82,0,0,0-.31-1,1.48,1.48,0,0,1-.48-1.54c.51-1.33-.34-1.85-1.39-2.53a.6.6,0,0,1,.08.16c-1.35,3.36,0,1.32.46,3.68C39.21,81.4,39.52,82,39.4,82.73Zm3.1,9.77a3.65,3.65,0,0,0-.35-3.23c-.61-1-1.49-4.15-1.43-.74.37,1-.46,2.35.36,3.2A2.24,2.24,0,0,1,42.5,92.5Zm-4.82-3.86c3.34.86,2.62-.4,2.2-3.09-.13-1.91-2.44,0-3-1.21-.05-1.44-1.47-2.39-2.75-2.73-.53,1.14.28,2.71,1.34,3.51C36.07,86.16,35.82,89,37.68,88.64ZM37,94.8a6.4,6.4,0,0,0,1-1c-.46-.44,0-1.22-.45-1.56-.62-.44-.29-1.65.06-2.24.3-1.23-2.28-.44-2.36-3.54.13-.87-.59-1.18-1-1.81-.1-.12-.24-.66-.4-.34s.47.78.17,1.07a10.81,10.81,0,0,0-2.46,3,2.15,2.15,0,0,0,1.82,2.75c.72.13.67.84,1,1.34C35.24,93.34,36.45,93.54,37,94.8Zm1.27-2c-.18.7.76,1.28,1.28,1,.62-1.21,1.29-3.44.42-4.48-.58.09-1.48-.48-1.89,0,.16,1-.64,2-.14,3A2.81,2.81,0,0,0,38.26,92.78Zm-1.19,10.58,0,0c.59-1.68,3.21-3.17,1.72-5-.64-1.16,1.49-4-.29-4.26a6,6,0,0,0-2.36,4.13c.17.63-.57.47-.94.61-.7.33.33,1.07.26,1.59s-.5,1.46.19,2C36.12,102.82,36.42,103.77,37.07,103.36Zm3.81,1.86c1-.73,2.28-1.91,1.69-3.36-.09-.85,1.08-1.09,1.36-1.54,0-.28.68-.94.15-.92-1.57-.27-2.48,2.39-3.92,1.18-.36-.29-.39.11-.67.29-.81.64-1.05,1.84-1.81,2.57-2.49,1.41-.26,1.65,1.13,2.74C39.67,106.83,40.05,105.26,40.88,105.22Zm.2-4.8c1-.76,1.85-1.81,3.26-1.52.46-.47-.32-1.2-.61-1.63a23.59,23.59,0,0,1-1.36-4c-1.28-2.24-1.77-.61-2.4.86-.57.69,0,1.63-.38,2.37a2.42,2.42,0,0,0,.18,2.66C40.07,99.43,39.92,100.55,41.08,100.42ZM48.35,103c-.09,0,0-.26-.21-.19-.66.38-2.06.46-1.38,1.49,0,1.2-1.51.41-1.57,2.5.68,2.54,2,2.9,3.09.2C49,105.42,49.28,104.6,48.35,103Zm-2.47,1.71c.63-.06.31-.82,0-1.14a.85.85,0,0,1-.33-.82,2,2,0,0,0-1.1-2.22c-.34.38-1.66.94-1.25,1.66.25.81-.79,1.84,0,2.43A2.14,2.14,0,0,0,45.88,104.74Zm3.8-3.81c0-.3.5-.77.23-1-1-.27-.38-2.27-1.71-1.57-.61,1.35-2.38,2-2.12,3.57.07,1-.15,1.3,1,.81C48.07,102.2,49.45,102.3,49.68,100.93Zm-2.15-3.57c.17.77,1,.18,1.52.49A1.91,1.91,0,0,0,50.53,96c-.26-.36-1-.89-1.43-.56-.55.53-1.08,0-1.68.1-.38,0-.45.38-.62.61S47.44,96.76,47.53,97.36Zm0-2.36c.64.41,1.12-.13,1.75.06-1-.83,0-2.33-.57-3.29S47.35,93,47.63,93.46,47,94.66,47.58,95Zm-1.92,6s0-.08,0-.13-.22-.35,0-.56a4.48,4.48,0,0,0,1.81-2.08C47,97.78,47,96.6,46.27,96.5c-1,.65-1.06,1.59-1.27,2.61A1.31,1.31,0,0,0,45.66,101ZM47,94.17c.7-1.27-1.67-1.52-1.95-.47-.18.87.69,1.53.71,2.43C46.69,95.78,46.89,95.08,47,94.17ZM44.74,97.6c.85-.58.57-2.38-.12-3.15-.46-.51.26-1.13,0-1.69-1.32-2.7-1.94-.26-1.45,1.42C43.9,95.24,43.6,96.79,44.74,97.6Zm-1.52-7.26c.2.77,1.34,1.23,1.68,2s1.12-.16,1.66.22c1.43-.38,2.16-3.4,2-4.86-.42-.51-.55-2.29-1.42-1.69-.37.14-.71.37-1.12.14a1.14,1.14,0,0,1-1.48-.29c-1.75-1.51-3.41.54-2.3,2.26C42.33,89,43.22,89.54,43.22,90.34Z"/><path id="fill2" class="cls-3" d="M11.8,28.82c.46-1,2.51-.17,3.31.29s.64,1.52,1.5,1.92a.24.24,0,0,1,.06.39c-1.78,1.43,1.18,2.33,1,3.35-.28.76-.5.35-1.08.27-1.54.09-2.54-1.19-4-1.44S13.48,31.07,11.8,28.82ZM47,80.83c1.62.36.75-.14,1.54-.9.61-.37.25-.7,0-1.18,0-.91-.82-1.19-1.42-1.77.06-.44-.13-.5-.49-.44-.54-.4-1.4-.06-1.78-.67s-1.17-.28-1.67-.1c-.64.35,0,2.17.9,2C45.82,77.71,45.52,80.34,47,80.83ZM50.4,99.31c.53-.62,1.53-.63,1.94-1.54a1.1,1.1,0,0,0-2,0c-.15.29-.3.33-.65.31a1.66,1.66,0,0,0,.14,1.31C50,99.64,50.38,99.68,50.4,99.31Zm3.07-3c-.32-.35-.31-1.57-1-1.3s-.8,1.2-1.33,1.14c-.16.7.77.18,1.13.78S53.72,96.91,53.47,96.34ZM51.54,95c1.26-1.25,1.82.57,2-2,.31-1.44-1.39-2.19-2.51-2.6-1.52.64-2,2.89-1.39,4.32C50.22,95.32,51.09,96,51.54,95Zm-1.42-5.75c-1-1.82-1.27.47-1.54,1.4C48.8,92.54,50.72,90.21,50.12,89.27Zm1.54-2.68c1-.32-.37-1.33.43-1.72.07-.79-2.27-1.07-3-1.57a6.09,6.09,0,0,0-.88,2.47c.22.71.55,1.89,1.29,2.24C50.59,89.28,50.84,87.13,51.66,86.59ZM17.25,38c-.09-.31-.16-.57.16-.84.91-1.35-1.83-2.19-2.76-1.84-.31,1-.5,2.63.6,3.16C15.61,39.33,17.57,39,17.25,38Zm.52,2.43c0-.29.25-.44.31-.75-.1-1.23-1.09-.34-1.75-.33-.18,0-.26.08-.26.26-.07,1.31,0,2.65,1.53,1.51C18,41,17.68,40.65,17.77,40.42Zm6.77,7.51c.19-.74-.86-1.14-1.23-1.69-.47-.25-1.23.44-1.84.08C21.67,47.26,23.92,49.48,24.54,47.93Zm-3.12-1.85c1.17-.23,2-.22,2.15-1.67-.46-2.67-6.35-1.77-5.65,1.13C18.76,46.48,20.32,45.84,21.42,46.08Zm-4.22-1.2c.47-1.41,1.31-1.81,2.54-2.38,1-.22-1-.6-1.21-1-.14-.17-.31-.28-.5,0-.61.23-1.31,1.06-1.93.46s-1.37,0-2.07.11,0,1-.17,1.44C13.54,45.4,16,45,17.2,44.88Zm3.75,6c.51-.15-.14-1.45.57-1.89.42-1-.06-2.55-1.26-2.54a3,3,0,0,1-1.85-.08c-.08,0-.28-.07-.23.14-.19,1.68-1.68,2.11,0,3.65.13.1.35.24.54.06.43-.39.91.06,1.36.13A.93.93,0,0,1,21,50.84Zm1.6-2.48c-1.12.18-.71,2.15-.83,3.06a2.6,2.6,0,0,1,2.2-.89C26.43,49.77,23.74,48.63,22.55,48.36Zm-.9,3.28c-.8,2.06,1.41,2.57,2.31.59C24.1,50,22.84,51.33,21.65,51.64Zm.7,4.62c.33.08.42-.22.73-.37-.46-.92-.06-2-1.31-2.29-.79-1.08-1.31.27-1.95.82-.48.46-.12,1.32-.15,1.95.27.67-.26,1.47.24,2.11,1,1.87,2.69,1.67,2.15-.65C22.09,57.36,21.7,56.33,22.35,56.26ZM26.49,56c-.22-.94-1,.44-1.18.84.13,1,1.86,3,1.23.58A2,2,0,0,1,26.49,56Zm-.12-.74c.5.18.51-.85.85-1.08C28,53,25.85,49.4,24.41,50.88c.16.14-.14.58.08.88.31.64-.5,1.17-.83,1.63-1.05.78-.05,3.36,1.22,3.18C25.28,56,25.5,55.13,26.37,55.25Zm-1.91,5.89c.76-.47,1.61-.84,1.75-1.78.32-.5-.66-.56-.84-.94-.27-1.51-1.28-1.27-2.11-2.26-.21.3-.24.55-.61.49-.44.28,0,1.31-.17,1.85C22.36,59.77,22.55,63,24.46,61.14Zm18.1,16.45c.5-.06-.08-.7,0-1,.16-1-.54-1.68-1.07-2.44s-2.3,0-3.15-.1c.74.89.68,2.1,1.32,2.68A2.8,2.8,0,0,0,42.56,77.59Zm-4.84-5c.41.37.53,1.39,1.25,1s2.52.48,2.4-.64c0-.62,1.37-1,.19-1.46-.47.28-.9-.3-1.33-.47-1.52-1-1,1.42-2.61,1.23C37.3,72.24,37.64,72.52,37.72,72.61Zm-.83-1c.24.48,1.45.1,1.54-.37-.11-.74,1-.54.8-1.16-.39-1.46-.58-3.89-2.27-3-.29-.1-.56.19-.88,0-.56-.18-1.13,1.31-.7,1.76C35.67,70,35.78,71.08,36.89,71.63Zm-2-6.64c.1-.15-.14-.09-.27-.08-.38.4-.52.77-.28,1,.5.61.18,1.37.34,2.07C35.7,67.06,34.37,66,34.89,65Zm-4.71-4c.12-.86,1.21-.59,1.18-1.47a4,4,0,0,0,0-1c-1-.34-1.55-1.2-2.5-1.12a4.72,4.72,0,0,0-2.14,2.12c.15,1-1.3,1.11-.7,2,.21.84,1.39.14,1.81.94.75.55.93-.78,1.74-.4C30.29,62.17,29.68,61.23,30.18,60.94Zm-7,6c1.45.06,3.51-.29,4.08,1.4,1,1.8.75,2.32,2.51.9-1.11-1.24,1-1.53,1.14-2.63.32-.56-.41-1.18-.44-1.78-.13-.8-.39-3.19-1.64-2.16-.9.89-1.64-.64-2.58-.4-.5.08-.67-.41-.79-.8s-.12-.32-.35-.14c-2.26,1-1.78,3.43-1.9,5.42A.42.42,0,0,0,23.16,67Zm7.17-4.3c.63.79.43,1.9,1,2.77.32.95,1.36-.1,2.06.11.9-.19.73-1.37,1-2.05a1.25,1.25,0,0,0-.84-.82,9.92,9.92,0,0,1-2-1.9C30.43,60.27,30.33,62,30.33,62.66Zm3.71,4c0-1.27-2.22-.64-2.56,0-.11.87-1.59,1.22-1.44,2.07.93,1,2.41-1.14,3.7-.43C34.69,68.33,33.86,67.22,34,66.7Zm1.29,3.91c-.56-.77,0-2.28-1.45-1.92a1.43,1.43,0,0,0,.52,1.65C34.68,70.29,35.15,70.86,35.33,70.61Zm-3.77.28c.6-.22,1.15-.71,1.89-.57.06-.22-.11-.63-.1-.92-.23-.2.22-.89-.1-.73A7.26,7.26,0,0,0,29,70.49C29.86,70.74,30.69,70.71,31.56,70.89Zm2.16,4.59c-.36-.75,0-1.81-1.16-1.82-.39,0-.62-.21-.61-.52,0-.68-.33-1.72-.86-2-.92.29-1.91-.37-2.81-.38-.48.32-1.27.72-1.49,1.31.46,1.14.41,2.92,1.82,3.33.39,0,1,0,1.12.49.4,1.13,1.59,1,2.49,1.07.54-.17.72-1.08,1.39-1.22C33.82,75.7,33.75,75.62,33.72,75.48Zm.1-1.52c.15.41.11,1.34.6,1.56.48-.31,1.4,1,1.54.21A3.59,3.59,0,0,1,35.68,74c-.08-.73-1.11-.89-1.48-1.47-.46-.35-.29-.83-.24-1.29-.08-.82-1.28-.55-1.73-.18-.27.56.31,1.26.2,1.88C32.54,73.57,33.71,73.11,33.82,74Zm4.25,15.35c.16,1-.64,2-.14,3a2.81,2.81,0,0,0,.33.44c-.18.7.76,1.28,1.28,1,.62-1.21,1.29-3.44.42-4.48C39.38,89.44,38.48,88.87,38.07,89.31Zm11.26,5.75c-1-.83,0-2.33-.57-3.29S47.35,93,47.63,93.46,47,94.66,47.58,95,48.7,94.87,49.33,95.06Zm-1.8,2.3c.17.77,1,.18,1.52.49A1.91,1.91,0,0,0,50.53,96c-.26-.36-1-.89-1.43-.56-.55.53-1.08,0-1.68.1-.38,0-.45.38-.62.61S47.44,96.76,47.53,97.36Zm-.43,5.41c1-.57,2.35-.47,2.58-1.84,0-.3.5-.77.23-1-1-.27-.38-2.27-1.71-1.57-.61,1.35-2.38,2-2.12,3.57C46.15,102.94,45.93,103.26,47.1,102.77Zm.12,13.1c.19.2.33.45.55.73a2.61,2.61,0,0,0,0-3.53c-.38-.42.45-.57.1-.84-1-1.83-2.74-2-1.5.44A4.64,4.64,0,0,0,47.22,115.87ZM48.28,107c.7-1.61,1-2.43.07-4-.09,0,0-.26-.21-.19-.66.38-2.06.46-1.38,1.49,0,1.2-1.51.41-1.57,2.5C45.87,109.37,47.14,109.73,48.28,107Zm-8.79-6.16c-.81.64-1.05,1.84-1.81,2.57-2.49,1.41-.26,1.65,1.13,2.74.86.65,1.24-.92,2.07-1,1-.73,2.28-1.91,1.69-3.36-.09-.85,1.08-1.09,1.36-1.54,0-.28.68-.94.15-.92-1.57-.27-2.48,2.39-3.92,1.18C39.8,100.29,39.77,100.69,39.49,100.87Zm1.93,12.49a.74.74,0,0,0-1.2-.5c-1-.36,1.46-3,1.57-4,.62-1.91-3.08-2.06-3.64-.56-.43,2-2.26.63-.65,3.11,0,1-1.39,1.19-1.71,1.94-.17.53-.66.36-1,.57-.28.36-1.12.41-1.07.85.59,1.26-.24,2.84,1,3.78.5.22.31,1.53,1.08.94.59-.56,1-1.21,1.83-1.21.51-.19,1.75-.14,1.8-.69-.22-.36,0-.66.16-.91.5-.66,0-1.55.62-2.13C40.43,113.93,41.33,113.83,41.42,113.36Zm-5.58,11.26c-.8,1.16,2,1.87,2.95,1.74s.62-1.51,1-2.12c.13-.45-1.1-1-1.46-.72C37.58,124.36,36.32,123.51,35.84,124.62Zm10.52.71c-2.58-.94-2.58,1.29-.12.16C46.29,125.45,46.31,125.38,46.36,125.33Zm-2.53-4.78c.33.4,1.8.76,2,.21A1.3,1.3,0,0,0,43.83,120.55Zm2.45,3.34c.74-.09,1.63-.49,1.48-1.36,0-.27-.21-.6-.1-.8.19-.51-.7-.71-1-.38s-.74,0-1.07.05c.09.84-.83,1.68-.76,2.6-.15.59,1.27,1.2,1.33.5C46.21,124.3,46,123.86,46.28,123.89Zm-9.08-2.75c.62.4.89,1.28,1.41,1.65.2-.2.21,0,.27.13a1.1,1.1,0,0,0,1.1.42c.94-.2,2.38-.28,1.28-1.47-.59-.44-.31-1.53-1.17-1.63-1.4.22-.52-1.9-1.37-1.76C37,119,35,119.45,37.2,121.14Zm4.72,2.41c-.52-.13-1.37-.07-1.66.36-.07.74,1,1,1.33,1.62.61.35,1.45-.47,2.21-.08,1.23-1.54.08-1.74-1.24-2.06C42.3,123.15,42.16,123.57,41.92,123.55Zm6.28-2.23c-.11.7.42,1.87-.14,2.34-1.52.24-1.57,1.92,0,2.08.14.13.19,0,.27-.08.31-.46,1.19-.67.91-1.32-.57-1.63.21-3.72-.92-5.13-.74-.81-2.38-.73-2.56-2,0-.41-.73-.87-1-.53-.87,2.66-2.71.56-1.74,2.84.65,1.2,2.11-.72,2.83.74C46.44,121.14,47.69,120.45,48.2,121.32Zm-6.15-3.18c-1-.42-2.73-.65-2.45.93-.07,1.11,1.38.32,1.57,1.36,0,.95,1.06,1.29,1,2.21,0,.16.06.23.23.28.58.11,1.3.58,1.86.31.5-.58,1.27-1.87,0-1.93-.74,0-.81-.73-1.33-1C42.23,119.84,42.66,118.61,42.05,118.14Zm1.84-.86c.16-.68.81-1.24-.13-1.71-1.54,0-1.25-1-2.18-1.53a1.77,1.77,0,0,0-1.33,2.09c.08.45-.55.82-.41,1.25a6.53,6.53,0,0,1,2.25.24C42.62,117.76,43.73,118.06,43.89,117.28Zm1.63-1c1,.13.72,1.49,1.64,1.77,1-1.14-1.21-2.42-1.26-3.78a13.67,13.67,0,0,1-.19-2.31,3.49,3.49,0,0,1-.32-1.41c-1.5,1.7-2.52,1.41-.56,3.33C44.57,114.79,44.29,116,45.52,116.23ZM44,114.59c.56-1.35-1.54-2-1.39-3.47.07-.48-.46-.94-.06-1.4.29-.28,0-.64-.26-.75-.66.71-.81,2.17-1.74,3-.08.12-.11.26.14.28,1.47.3,1.43,2.94,3,2.94.31.06,0-.34.23-.41C44,114.74,44,114.64,44,114.59Zm1.55-4.3c.32-.14.46-.56.7-.9a22.24,22.24,0,0,1-1.71-2.11c-.16-.47.38-.91.28-1.42,0-.23,0-.32-.28-.18-.69.19-1.3-.63-1.87-.94a6.19,6.19,0,0,0-2.83,1.91c-.26.47.68.32.95.39,1,0,1.23,1.07,1.83,1.63,1.19.62,0,2.08.75,2.92.71-.18.75-1.07,1.44-1.21C45.1,110.36,45.3,110,45.59,110.29Zm.3-6.69a.85.85,0,0,1-.33-.82,2,2,0,0,0-1.1-2.22c-.34.38-1.66.94-1.25,1.66.25.81-.79,1.84,0,2.43a2.14,2.14,0,0,0,2.63.09C46.51,104.68,46.19,103.92,45.89,103.6Zm-.26-2.72c0-.18-.22-.35,0-.56a4.48,4.48,0,0,0,1.81-2.08C47,97.78,47,96.6,46.27,96.5c-1,.65-1.06,1.59-1.27,2.61a1.31,1.31,0,0,0,.66,1.9S45.62,100.93,45.63,100.88ZM47,94.17c.7-1.27-1.67-1.52-1.95-.47-.18.87.69,1.53.71,2.43C46.69,95.78,46.89,95.08,47,94.17Zm-2.36.28c-.46-.51.26-1.13,0-1.69-1.32-2.7-1.94-.26-1.45,1.42.77,1.06.47,2.61,1.61,3.42C45.59,97,45.31,95.22,44.62,94.45Zm-2.25-1.21c-1.28-2.24-1.77-.61-2.4.86-.57.69,0,1.63-.38,2.37a2.42,2.42,0,0,0,.18,2.66c.3.3.15,1.42,1.31,1.29,1-.76,1.85-1.81,3.26-1.52.46-.47-.32-1.2-.61-1.63A23.59,23.59,0,0,1,42.37,93.24Zm.13-.74a3.65,3.65,0,0,0-.35-3.23c-.61-1-1.49-4.15-1.43-.74.37,1-.46,2.35.36,3.2A2.24,2.24,0,0,1,42.5,92.5Zm-4.82-3.86c3.34.86,2.62-.4,2.2-3.09-.13-1.91-2.44,0-3-1.21-.05-1.44-1.47-2.39-2.75-2.73-.53,1.14.28,2.71,1.34,3.51C36.07,86.16,35.82,89,37.68,88.64Zm.93-5.71c-.43.3-1,.06-1.38.44.14,1.1.83,1.19,1.84.82C38.9,83.85,39.18,82.62,38.61,82.93Zm8,9.68c1.43-.38,2.16-3.4,2-4.86-.42-.51-.55-2.29-1.42-1.69-.37.14-.71.37-1.12.14a1.14,1.14,0,0,1-1.48-.29c-1.75-1.51-3.41.54-2.3,2.26.1.79,1,1.37,1,2.17.2.77,1.34,1.23,1.68,2S46,92.23,46.56,92.61ZM41.22,78.15c.51.29,0,1,0,1.48-.39,1.08,1.13,1.45.87,2.53-.1.81.52,1.46.63,2.22.48.93,1.73.7,2.42,1.47a3.26,3.26,0,0,1,1.27-.1,5.41,5.41,0,0,1,1.3-.49c.3-.61.28-2.06.87-2.42C48.2,80.63,47,81.74,46,80.49c-1-.69-.71-2.55-2.33-2.36A4,4,0,0,0,41.22,78.15ZM39.4,82.73c.15.76,0,1.35.67,1.9.74,2.63,1.26,2.18,2.17,0-.17-.82-.82-1.65-.81-2.47a.82.82,0,0,0-.31-1,1.48,1.48,0,0,1-.48-1.54c.51-1.33-.34-1.85-1.39-2.53a.6.6,0,0,1,.08.16c-1.35,3.36,0,1.32.46,3.68C39.21,81.4,39.52,82,39.4,82.73Zm-1-4.32c.07-.17.32-.3.29-.5-1.49.59-2.59,2.58-4.42,2.28-.59-.19-.88.31-.63.82,1.91,0,4.76,4,5.27-.05C39.87,80.08,37.43,79.59,38.43,78.41Zm-4,1.34c.79.49,2.71-1,2.72-2-.08-1.49-1.8-1.14-2.72-2a.35.35,0,0,1,0,.06.54.54,0,0,0-.5.31c-.83.16-1.67,1.42-1.19,2.19,0,.47.46,1.92,1,1.36A.93.93,0,0,0,34.39,79.75Zm3.19-2.43c.05,1.41.7.13,1.1-.41A2.79,2.79,0,0,0,38,74.67a4.08,4.08,0,0,0-1.25-2.33,6,6,0,0,0-2-1.34c-.13-.13-.3,0-.3.23,0,2,2.45,1.72,1.92,4.23C36.54,76.2,37.53,76.45,37.58,77.32Z"/><path id="fill1" class="cls-4" d="M22.92,5.89c-.21.41-.76,1.09-1.28.61-.42-1.58,1.49-1.56,2.46-2.2.58-.06,1.39.25,1.88-.3.45-.34.79.39,1.27.2s2.63.07,1.93.7c-1,.24-2.32,1.26-3.23.66a.63.63,0,0,0-.7-.27c-.25.06-.39-.32-.71-.13C24,5.39,23.2,5.14,22.92,5.89ZM1.23,36a6.43,6.43,0,0,1-.08,4.82c.2,2.58,2.42,4.46,1.93,7.08C4,49,4.17,50.47,4.84,51.77a7.07,7.07,0,0,1,1.61,3.15,7.45,7.45,0,0,1,0,4,9,9,0,0,0,1.24,4c.2.91,1.4,1.18,1.44,2.13.2,1.19,1.91,1.23,2.09,2.35a33.19,33.19,0,0,0,1.09,5.28c.92.93,2.67,1,3,2.53A12.79,12.79,0,0,0,16.62,78c.29.47.22,1.33.82,1.52.87.15.59.86.9,1.46s.14,1.31.15,2a8.17,8.17,0,0,0,2.27,3.68c1,1,.73,2.6,1.59,3.75,1.29,1.91-.44,2.26,0,3.73.46.39,1.26.29,1.64.88.67.79.68,2,1.51,2.67.53.49.39,1,.07,1.5.45.83-.81,1.51-.66,2.45.66.79,1.39,1.63,2.09,2.43.33.49-.44,1.26-.46,1.84a21.09,21.09,0,0,0,.57,2.35c.33.38-.28.46-.13.77.61,1.73-2.52,1.8-2.12,3.34.08.76.67,1.78.18,2.45-.46.06-.4.68-.59,1-.25.59.63.87.41,1.5-.17.32-.23.78-.66.88s-1,1.47-1.55,1.5c-.88.12-1.32.89-1.6,1.73-.16.21,0,.59.23.57.68,0,1,.63,1.59.75a.86.86,0,0,0,0-.16c-.08-.27,0-.42.29-.48.74-.15.58-.92.72-1.47s.64-.3.84-.68c.16-.17.29-.32.58-.17s.87-.45,1.25-.12c.14.12.26-.05.36,0,.57-.37.31-1.39.49-2,.52-.59-.45-1.35.26-1.79.84-.68-.6-1.44-.39-2.15a2,2,0,0,1,.49-2.51c.4-.3,1.31.12,1.36-.73a3,3,0,0,1,.28-1.55c-.21-.51.6-.47.49-1a3.17,3.17,0,0,0-1.21-3.17c1.21-1.57.87-3.48.26-5.35-.23-.79.67-1.15.32-2,0-.2-.11-.46,0-.6.23-.43-.34-.45-.55-.64-.64-.42-.3-1.27-.78-1.75-.2-.22-.5-.37-.55-.72-.15-1-.14-2.43-1.33-2.89-.94-.28-.43-1.33-1-1.9a.78.78,0,0,0-.77-.3c-.81.14-.76-1.1-.6-1.59s-.11-.44-.4-.66c-.12-.11-.27-.2-.1-.41-.14-1-1.64-2.19-1.92-3.38-.19-.69-.14-1.31-.72-1.81-.06-.09-.19-.15-.07-.31s-.38-.63-.59-.83a7.12,7.12,0,0,0-3-4.07c-1.39-.49-.46-.63-1-1.6-.21-.41-.76-.7-.43-1.24.14-.26-.09-.49-.24-.66-3.23-2.45-2.07-3.94-3.61-7.15C9.64,66,10.6,62.78,9.64,62c-.84-.3-2.72-2.31-1.95-3,.28-.13.86.42.82-.19.16-1.78-1.15-3-1.62-4.64-.53-1.31-.68-2.68-1.72-3.72.6-2.52-1.09-4.63-1.71-6.91a26,26,0,0,0-1-5.94c-.23-.69.32-1.26.27-1.94-.38-1.72-.94-3.9,0-5.47,0-.82-1.75-1.73-.44-2.67,1-1.44.32-3.68.65-5.39s-.69-2.88,0-4.75a6.05,6.05,0,0,0,.64-4.32A9.13,9.13,0,0,0,4.18,10C4,9.46,2.91,9.87,3,9.15c-.27-1,.75-2.22.5-2.91C3.23,6,3,5.77,3.25,5.4c-.27-.62.17-1,.55-1.46.09-.11.23-.27.35-.17.95.48,2.05-.34,3.06.08C8.73.62,8.8,2.4,11.62,1.76c1-.9,2.29.45,3.36.07,1.15-1.36,2.73-1,4.24-.64.66.11,1.55-.31,1.92.44.18.37.25.36.65.33a4.7,4.7,0,0,0,3.66-.73,1.36,1.36,0,0,1,1.2.36c.72.58,1.7-.3,2.37.25.42.81,2,.31,2,1.28-.09.8-1.67,1.14-1,2.06,1.25.07,1.89-1.93,2.81-2.67.1-.12.28-.31.07-.52.16-.49.07-.76-.47-.84-1.77-.8-3.88.46-5.72,0-.47.22-.7-.47-1.16-.14,0,0-.17,0-.25-.08C24.18.42,23,1.42,21.86,1A4,4,0,0,0,19.17.79C17.41.6,15.54.08,13.83.79c-.53.17-1.06.54-1.66.27-1.64-.12-3.26.77-5,.78a.59.59,0,0,0-.51.42c-.69.89-2.38.35-3.43.83-.25,0-.53.28-.49.51C3,4.34,2.1,5,1.82,5.71c-.52,1,.2,2,.32,3,.19,1.31.07,2.63.36,3.94a8,8,0,0,1-.87,3.9c-.41,2.66-.09,5.25-.59,7.89A24.42,24.42,0,0,1,.39,28a12.88,12.88,0,0,0,1.06,4.43C1.69,33.86,1.12,34.85,1.23,36ZM39.5,47.11c-.31-.4-1.11-.73-1-1.3.32-.88-1-1.18-1.54-1.42-1.26-.52-1.69-2-2.71-2.54-.4-2.13-3.11-3.52-2.26-5.85-.18-2.1-3.81-3.27-2.73-5.69a1.28,1.28,0,0,0-.47-1.6c-.95-1-2.07-1.84-2-3.41.27-1.31-1.58-1.62-1.25-2.93.34-4.25-1.59-2.33-2.61-4.31-.07-.63-.45-1.09,0-1.7a.94.94,0,0,0-.15-1.27c-.3-.29.21-.69.18-1,.66-2.35-2.83-3.12-2-5.25-.1-.68.59-.59.91-1,.62-.64-.41-.71-.59-1.12a.93.93,0,0,0-1.71-.24c0,.69-.56,1.19-1,1.6s-.09.93.31,1.07c.95.57.43,2,.43,2.94s-1.08,1.19-.87,2.09a.44.44,0,0,0,.29.52c.42.32.12,1.08.58,1.45.77.51,1.25,1.18.72,2.08-.07,1.4.71,1.8-.88,2.6-.29.32-.31.51,0,.82a7.06,7.06,0,0,1,.17,2.53c.12.61.77,1.56,1.44,1.47.18-.13.29,0,.38.17.62,1.07,2,1.74,1.63,3.2.12.64,1,.64,1.24,1.18a5.48,5.48,0,0,1-.44,3.39,9.09,9.09,0,0,1,.36,2.89c.46-.4.71.18,1,.5.33.68,1.18,1,1.12,1.83s1.33,1,1.93,1.62c.21.11.31.11.45,0,.36-.41.83-.21,1.28-.25a9.58,9.58,0,0,0,3,2.54c.23.2.21.31.06.48-.32.67-.31,2,.56,2.24,1.66.94.14,2,2.8,2.66.38.29.34.94.26,1.35,0,1,1.64.73,2.26,1.33.07,0,.16.12.23.1.37-.07.32.39.57.44,0,0,0,.09,0,.13A3.81,3.81,0,0,0,39.6,53c.11,1.07,2.76.4,1.79,1.86-.28,1.69,2.78.59,2.75,2.13-.17.83.45,2.25,1.33,2.14,1.12-.59,1.57.81,2.49,1,.94,0,.85,1.4,1.46,1.83.54.19,1,.6,1.56.61,1.38.45.46,2.59,1.7,3.05,1.09.18,1.28,1.47,2.31,1.69.4,0,.42.1.48.51a3.56,3.56,0,0,0,2.42,2.73c.42.14.09.25.25.42,1.13.08,2.64-.35,3.17,1,0,.5.55.61.65,1.06,0,1.32.84,2.34,1.17,3.58s2,1.82,2.82,2.81a4.32,4.32,0,0,1,.86,3.13c-.23.58-.79,1.53.12,1.81C68.58,85.68,69.06,88,69.14,90a14.34,14.34,0,0,1,.51,5.92c-.34.85-.62,1.65-1,2.47s-.42.69.1,1.22a1.39,1.39,0,0,1,.25,1.5c-.66,1.26-2,2-2.39,3.44a5.41,5.41,0,0,1-1.31,3.5,18,18,0,0,0-1.85,3c-.45.86.26,1.95-.89,2.54-4.73.84-1.41,3.11-3.8,4-1.52.26-2.59.31-2.86,2.1-.36,1.33-3,.6-2.29,2.31.2,1.18-1.15,2.62-.26,3.72.61.69-.79,1.5-.68,2.26.75,0,3.6-3.43,2.51-4-.19-.1-.17-.14-.06-.24.42-.33.25-.87.4-1.32.12-.62,1.16-.14,1-.82a.75.75,0,0,1,.26-.7c.87-.68,2-.92,2.85-1.53s1.29-2,2.48-2.38c2.16-.8,2.67-3.38,3.11-5.41,1.64-2.41,1.17-2.18,2.8-4.89.67-.5.11-1.51.85-2,.4-.36.4-.93.87-1.26s.26-1,.69-1.22c.81-.34.12-1.24.73-1.72.3-.53-.41-1.28-.16-1.82.63-.74-.48-1.69.39-2.43.75-.43-.51-1.16.3-1.44.91-.74-.39-2.13,0-3.1.22-.36.21-.39,0-.78-.24-.67-1.15-1.11-.67-1.89a.7.7,0,0,0-.06-.88c-.2-.51.66-.85.4-1.5-.23-.81-.28-1.7-.55-2.46-.53-.87-1.62-1.28-2.13-2.09A2.93,2.93,0,0,0,68.5,81c-.07-.19-.1-.42.18-.52a1.5,1.5,0,0,0,0-1.63,43.66,43.66,0,0,1-2.79-4.2,3.78,3.78,0,0,0-1.42-2.37c-1.21-1.38-2.66-2.64-3.13-4.45-.91-1.77-2.75-1.51-4-2.62-.62-.88-1.41-1.74-1.91-2.61,0-2.49-3.54-2.88-5-4.43-.83-.25,0-1.1-.69-1.43-1.37-1-1.75-2.91-3.68-3.25-.31-.07-.58.26-.77-.12-.45-1.44.07-3-1.94-3.42-.4-.15-.84-.24-1-.7s-.77.14-1.12-.07C40.05,49.1,40.22,47.69,39.5,47.11Z"/><path id="void" class="cls-5" d="M18.85,66.73c.65-1.26,1.68-.49,2.32.31.68.33,1.81-.08,1.74,1.06,0,.37.07,1-.38,1.07-.28.14-.3.21-.25.57.16.92-.33,1.63-.47,2.44.18,1.39-.52,2.79-2.11,2.19a6.91,6.91,0,0,0-.49-2,.92.92,0,0,0-.16-.31C18.42,70.26,19.76,68.45,18.85,66.73Zm44,44.58c.7-.91.9-2.11,1.57-3s1.75-1.79,1.67-3c-.06-2,1.8-3.27,2.68-4.79.16-.71-1-1-.75-1.61.32-1.68,1.56-3.27,1.22-5.08-.15-.77.24-1.64-.1-2.41a9.23,9.23,0,0,0-1.92,3.68c-.89.7-2.51,1.12-2.31,2.68.11.92,1.05,2.26,0,2.92-2.33,2.94-1.83,1.16-1.16,4.51a7,7,0,0,0-2.24,2.7c-.58.9.66,1.61,0,2.36a6,6,0,0,0-1.57,3.89C61.07,112.83,63.27,114,62.82,111.31ZM24.49,3.88c.68.38,2.1-.65,1.08-1.17-1-.86-2,.21-3.07-.11-.81-.71-1.47.71-1.58,1.26a2,2,0,0,0,2.68.25A.71.71,0,0,1,24.49,3.88ZM13.77,4.4c.77-.12,2.39-.72,1-1.4-.34-.17.38-.55-.19-.67-1.14-.32-2.42-1-2.83.63A1.29,1.29,0,0,0,13.77,4.4ZM6.94,4.25c-1.22.08-3.37-.47-3.39,1.32.29,1.13,2.66.69,3.45.29C7.69,5.74,7.59,4.27,6.94,4.25ZM14.73,11c.23-.91,1.28-.89,1.34-1.85a11.4,11.4,0,0,0,.47-2.38c-.57-1.11-1.31-.24-1.86.47a15.76,15.76,0,0,0-1.84,1.64C11.83,9.21,14.56,11.63,14.73,11ZM8.06,37.4A5.8,5.8,0,0,1,9.75,37c1.25,0,1.76-2,2.54-2.87.06-.1.08-.14-.06-.19-.39-.09-.57-.62-.9-.75-1-.09-2.44.52-2.33,1.84C9.25,36.09,8.07,36.47,8.06,37.4Zm12.79-8.61c-.37-1.21.07-2.64-1.34-3.26-.52.28,0,2-.19,2.81.09,1.22,1.45,1.75,1.2,3.15C21.37,31,20.74,29.61,20.85,28.79ZM15,16.1c-.1.1-.19.25-.31.27s0,.32-.21.35c.86-.08,1.49,1.57,2.28.48.36-.09.54-.53,1-.43.34-.15.3-.78.76-1,.16-.92-.68-1.39-1.44-1.5-.31-.61-1,.15-1.43.26C15.18,15,15.36,15.69,15,16.1ZM6.72,11.76c-.19.58.33,1.26-.11,1.83-.63,1,.46,2.62,1.5,2.69,1.55-.24,2.36-2.11,3.66-2.3.06,0,.19-.2.17-.22-.47-1.58-2.57-.83-3.28-2.34C8.09,10.75,7.36,11.67,6.72,11.76Zm6.4,15.88c.18-.81,2-1,1.22-1.84-.42-.85,1-3.56-.56-3.36-1,.6-2-1.23-2.77-.36-.22.5-.39,1.54-1.09,1.56C7.8,22.47,9.41,27,9.65,28S12.56,28.09,13.12,27.64Zm-8,2.13c.19-.21.39,0,.68,0,.56-.07.55-.66,1-.76.34-.27-.39-1-.31-1.46-.39-.8.39-1.48-.36-2.17-.43-.72-1.31.12-1.46.62-.3.75-1.12.89-1.53,1.49-1.49.28-1,2.32.43,2.28C4.11,30.05,4.6,29.67,5.11,29.77Zm0,11.41C7.34,43.82,7.51,39.37,6.8,38c-1-2.28-3-.5-1.76,1.21C5.32,39.74,5,40.45,5.09,41.18Zm10.5-.36a2,2,0,0,0-.9-2.32c-.3-.34-.52.17-.75.35-.62,1-2.48.06-2.75,1-.06,1.28,2.3,2.1,3.32,1.67C14.85,41.19,15.68,41.38,15.59,40.82Zm8.8.39c-.92-.25-1.49-1.1-2.22-1.66-.25-.37-1.36-1.07-1.74-.61-.42.29-1.05.15-1.35.68-3,2,4.51,2.7,4.91,4.21C25,43.09,24.57,42.19,24.39,41.21ZM33.51,52c.31.1.75-.09.9.38,0,0,.15.08.23.09,2,0,1.64-.94,1.15-2.4,0-1.06,0-2.06-1.25-2.1-.8-.41-.7.7-1,1.1-.31.09-.56.57-1,.18-.71-.23-1.8.28-1.58,1.16C31,51.83,32.5,51.59,33.51,52Zm11,18.72c1.24.3,2.27.07,1.51-1.41-.16-.69-1-.19-1.39-.63-.6-.65.88-1.29-.85-2-.73-.23-.89,1.46-.11,1.65C44.08,69,44,70,44.46,70.69Zm9.34,3.06C53.87,73,53,72.56,52.65,72s.05-1.16-.24-1.52c-.74-.28-1.09-1.37-1.74-1.52a3,3,0,0,1-1.36-.11c-.45.48.69,1.58,1.07,2.05C50.75,72.68,52.25,73.22,53.8,73.75ZM15.72,66.62c.08-.69-.91-1-1.32-1.56-.41-.27-1.08.15-1.29-.38s-.2-1-.86-1c-1.35.23.79,2.78.66,3.79-.12,1.63.55,2.41,1.75,3.44.37.3.84,1.55,1.31.8.12-.9,1.89-.56.91-1.49C15.53,69,14.53,68.72,15.72,66.62ZM14,54.62c-.42-.89-.22-1.86-.52-2.72a3.12,3.12,0,0,0,.33-2.19c.27-.87-1.15-.61-1.63-1s-.46.09-.67.34c-1.61,0-3.32,2.44-1.59,3.35,1.31.07,1.31,1.88,2.62,1.83C13,54.12,13.56,54.54,14,54.62Zm4.73-4.44c.43-.39.91.06,1.36.13a.93.93,0,0,1,.83.53c.51-.15-.14-1.45.57-1.89.42-1-.06-2.55-1.26-2.54a3,3,0,0,1-1.85-.08c-.08,0-.28-.07-.23.14-.19,1.68-1.68,2.11,0,3.65C18.35,50.22,18.57,50.36,18.76,50.18Zm-3.44,7.71c-3.2,1.11.91,3.08,2.24,3.8l.09-.07c.92,0,1.13-.71,1.19-1.51s.59-1.32.38-2.1c0-.14-.06-.17-.17-.08-.72.53-1.42-.15-2.15-.14C16.38,57.41,15.84,57.79,15.32,57.89Zm9.14,3.25c.76-.47,1.61-.84,1.75-1.78.32-.5-.66-.56-.84-.94-.27-1.51-1.28-1.27-2.11-2.26-.21.3-.24.55-.61.49-.44.28,0,1.31-.17,1.85C22.36,59.77,22.55,63,24.46,61.14Zm7.1,9.75c.6-.22,1.15-.71,1.89-.57.06-.22-.11-.63-.1-.92-.23-.2.22-.89-.1-.73A7.26,7.26,0,0,0,29,70.49C29.86,70.74,30.69,70.71,31.56,70.89Zm9.39-9c-.49-1.14.23-2.23-1.41-2-1.08.23-1.39-1.16-2.31-1-.3.22-1.38,0-1.07.56-.5,2.77,1.9,4.09,4.32,3.73C42,62.69,41.54,63,41,61.88Zm-4.06,9.75c.24.48,1.45.1,1.54-.37-.11-.74,1-.54.8-1.16-.39-1.46-.58-3.89-2.27-3-.29-.1-.56.19-.88,0-.56-.18-1.13,1.31-.7,1.76C35.67,70,35.78,71.08,36.89,71.63ZM27,77.29c.06-.63,1.27-1,.76-1.63a7.36,7.36,0,0,1-1.39-3.39c0-.12-.18-.16-.26,0a4.72,4.72,0,0,1-1.26,3.65c-.31.83.15,2.47,1.23,2.26C26.22,77.66,26.74,77.63,27,77.29Zm.08,7.09c-.55.26,0,.92,0,1.34a5.52,5.52,0,0,0,1.16,3c.12.33.14.32.43.14a2.6,2.6,0,0,1,1.43-.23c.16,0,.23,0,.13-.21-.66-1.29.28-2.83-.21-4.11-.7-.71-1.28-1.13-1.23-2.17C27.31,81.42,27.59,83.65,27.1,84.38Zm7.3-8.55a.54.54,0,0,0-.5.31c-.83.16-1.67,1.42-1.19,2.19,0,.47.46,1.92,1,1.36a.93.93,0,0,0,.64.06c.79.49,2.71-1,2.72-2-.08-1.49-1.8-1.14-2.72-2A.35.35,0,0,1,34.4,75.83Zm6.81,3.8c-.39,1.08,1.13,1.45.87,2.53-.1.81.52,1.46.63,2.22.48.93,1.73.7,2.42,1.47a3.26,3.26,0,0,1,1.27-.1,5.41,5.41,0,0,1,1.3-.49c.3-.61.28-2.06.87-2.42C48.2,80.63,47,81.74,46,80.49c-1-.69-.71-2.55-2.33-2.36a4,4,0,0,0-2.41,0C41.73,78.44,41.21,79.14,41.21,79.63ZM58,89.21c0,.34.37.29.57.32.56,0,1.87-.35,1.55-1.09a.63.63,0,0,1,.05-.53c.32-.44-.1-.79-.16-1.17.16-.21.06-.45.09-.68.75-1.49-1.65-3.33-3.05-3.94-1.13-.21-1.37-2.1-2.2-2.24-.44,1.19.89,1.52,1.23,2.46C55.88,84.8,57.37,87,58,89.21Zm-3.47,14.5c.23.1.22.09.22-.15,0-.59.52-.94.86-1.35.62-.69,1.31-.9.26-1.56-.39-.44.08-.94.42-1.27.8-.39,1-2-.1-2.19A4.23,4.23,0,0,1,54.46,97c-1.38.3-2.42,1.92-3.58,2.71-.76.82-.75,2.21-1.71,2.8s.49,1.51.46,2.21C53.37,105.58,51.49,102.66,54.49,103.71Zm5.11-9.25a4.3,4.3,0,0,1-.38-1.93c-.59.18-1-.28-1.41.45-.81.47,0,1.26.15,2C58.34,95.52,59.79,95.41,59.6,94.46ZM51.54,95c1.26-1.25,1.82.57,2-2,.31-1.44-1.39-2.19-2.51-2.6-1.52.64-2,2.89-1.39,4.32C50.22,95.32,51.09,96,51.54,95Zm-6.8,2.58c.85-.58.57-2.38-.12-3.15-.46-.51.26-1.13,0-1.69-1.32-2.7-1.94-.26-1.45,1.42C43.9,95.24,43.6,96.79,44.74,97.6Zm-9.24,2.92c0,.64-.5,1.46.19,2,.43.29.73,1.24,1.38.83l0,0c.59-1.68,3.21-3.17,1.72-5-.64-1.16,1.49-4-.29-4.26a6,6,0,0,0-2.36,4.13c.17.63-.57.47-.94.61C34.54,99.26,35.57,100,35.5,100.52Zm10.38,4.22c.63-.06.31-.82,0-1.14a.85.85,0,0,1-.33-.82,2,2,0,0,0-1.1-2.22c-.34.38-1.66.94-1.25,1.66.25.81-.79,1.84,0,2.43A2.14,2.14,0,0,0,45.88,104.74Zm1.34,11.13c.19.2.33.45.55.73a2.61,2.61,0,0,0,0-3.53c-.38-.42.45-.57.1-.84-1-1.83-2.74-2-1.5.44A4.64,4.64,0,0,0,47.22,115.87Zm3.61,11.43c.51.1,1.1-.29,1.33.44,0,0,0,0,0-.07a6.23,6.23,0,0,0,.6-1.18c.57-.49-.35-.87-.22-1.47a8.55,8.55,0,0,1-2.92.39c-.76,0-1.42,1.24-.52,1.71C49.69,127.6,50.27,126.74,50.83,127.3Zm-15.11-1c.28-.31-.57-.72-.53-1.19-.2-.4-.81-.32-1.17-.58-.63-.26-2.24.91-1.6,1.54C33.55,125.46,34.72,127.7,35.72,126.26Zm-7.49-11.34c.29.64-.31,1-.39,1.53a6.66,6.66,0,0,1-.2,2.64c-.3,1,1.39,1.19,1.78,1.94.46.6,1.06,0,1.59.26.93.35.62-1,.74-1.57,0-.12-.05-.3,0-.37.46-.58-.4-.83-.67-1.25-.35-.26.19-.8-.33-.93-.13-.73-1.54-.74-1.16-1.41a2.67,2.67,0,0,0-.15-3c-.67-.28-.73-.76-1.08-1.25C26.65,111.63,27.89,114,28.23,114.92Zm10.38,7.87c.2-.2.21,0,.27.13a1.1,1.1,0,0,0,1.1.42c.94-.2,2.38-.28,1.28-1.47-.59-.44-.31-1.53-1.17-1.63-1.4.22-.52-1.9-1.37-1.76-1.72.5-3.7,1-1.52,2.66C37.82,121.54,38.09,122.42,38.61,122.79Zm5.28-5.51c.16-.68.81-1.24-.13-1.71-1.54,0-1.25-1-2.18-1.53a1.77,1.77,0,0,0-1.33,2.09c.08.45-.55.82-.41,1.25a6.53,6.53,0,0,1,2.25.24C42.62,117.76,43.73,118.06,43.89,117.28ZM32.63,112c.55.43,0,1.22.45,1.77.37.91,1.23-.36,1.86-.38.56-.55,1.11-1,1.76-1.57s-.34-.85-.4-1.48-1.14-.69-1.67-.84c-.78.61-1.3-.87-2-.77-1.47.77-.32,1.42-.44,2.64C32.09,111.62,32.47,111.79,32.63,112Zm21.44,3.77c.61,0,1.17-.55,1.82-.21.78-1.1.83-2.72,1.36-4,.15-.66-1.72-3.77-2.26-2.22,0,1.4-3.4.68-2.31,2.39.41,1.16-.48,2.67-1.15,3.66-.59.57.26.8.64,1.1C52.91,117.07,53.31,115.69,54.07,115.75Z"/><path id="void-2" data-name="void" class="cls-6" d="M30,93.64c-.86-.67-1.95-.57-1.23-2,.51-1.78-1-2.87,1.81-2.38.36.39,1.25,1.49.61,1.85C30.16,91.41,30.49,92.9,30,93.64Zm32.23,1.88c.24-.24.17-.75.6-.72.44-.19.64-1,.76-1.53a2,2,0,0,0,.46-1.77c-.22-.29-.29-.31-.64-.1-.53.4-.93-.83-1.36-.08-1.52,2-3.38.61-1.62,3.91C60.92,95.59,61.78,95.91,62.25,95.52ZM17.77,40.42c0-.29.25-.44.31-.75-.1-1.23-1.09-.34-1.75-.33-.18,0-.26.08-.26.26-.07,1.31,0,2.65,1.53,1.51C18,41,17.68,40.65,17.77,40.42Zm0-26.37c.42.37,0-.78.28-1,1.17-.41,1.35-4.79-.15-3.6C17.81,10.74,16.08,13.62,17.8,14.05ZM30.36,3c-1.37-1-3.65-1.4-3.72.67.92.18,1.83-.08,2.71.39C29.52,4.08,31,3.07,30.36,3ZM17.91,1.28c-1.74-.6-4.23,1.72-1.49,2A1.84,1.84,0,0,1,17.86,3c1.12.48,2.77,1.08,3.27-.46C20.61,1.06,19,1.82,17.91,1.28ZM11.15,5.49c-.2.42.67.93,1,.94,1.16.08,3.44.9,3.11-1.13-.62-1.71-2.09.38-3.28-.51C11.44,4.5,11.45,5.14,11.15,5.49Zm-4.7,5.65c.25-.07.4.31.64.08.72-.8,2.5-.52,2.76-1.57-.13-.29.18-.41,0-.68C9.29,8.68,8.6,8.23,8,8.78c-.24.23-.37.2-.56-.08-.34-.5-.65.28-.9.49-.31.44-.89.49-1.34.78s.42.73.57,1S6.16,11.25,6.45,11.14ZM15,13.81c.52,0,.39-.77,0-1-.77-.57-1.52-.06-2.33-.29-.95.26-.54.49-.21,1.15C13.09,14.19,14.26,13.66,15,13.81Zm.36,8.12c-1,.43,0,1.37.73,1.35a5,5,0,0,1,.63.08c1.8-1.84,2.63-2.22,0-3.72C15.93,20.25,16.22,21.41,15.35,21.93ZM5.85,20c.38.06,1,.32,1-.29.21-.6.65-1.32.46-1.92S7.8,16.66,7,16.29s-.68-1.59-1.41-1.72c-.64.12-1.53,0-1.56.89-.14,1.73-2.08,3.79-.3,5.21C4.44,20.33,5,19.8,5.85,20Zm3.36,13.5c.48-.66-.66-1.09,0-1.88,0-.81,1.17-1.37.46-2.12-.27-.53-.45-.21-.87-.13-1,.21-2.37-.31-2.16,1.21.06.56-.28,1.18.25,1.57C7.66,33.09,7.71,35.81,9.21,33.52Zm10.15-3.77a17.21,17.21,0,0,1-1.61-2.65c-1-.16-2,1.31-1.88,2.14.53,1.15,1.07,1.94,2.39,1.65.75.32.9,1.64,1.53,1.76C20,31.76,20.21,30.37,19.36,29.75ZM10.73,39.6a.89.89,0,0,0-.49-.7c-.13-.43-1.09-1.19-.3-1.33-4.48,0-1.33,1.92-2.57,4-.08.34-.43.41-.64.62l-.12.14c.81.66,2.22,1.32,2.84.1C10.62,41.77,11.29,41.05,10.73,39.6ZM18.9,57.5c1.63-2.3-2.24-2.85-3.75-1.87h0c.3.47,0,2,.82,1.66C16.92,56.76,17.93,57.9,18.9,57.5Zm5-7c2.51-.76-.18-1.9-1.37-2.17-1.12.18-.71,2.15-.83,3.06A2.6,2.6,0,0,1,23.92,50.53ZM13.69,48.71c1.09.49,2-.4,3.11-.05.28-1,1.42-2.14.57-3.1-1.14-.59-3.19.52-3.89-1.11-.74,0-.73,1.11-1.16,1.55C10.73,47.68,11.69,48.58,13.69,48.71Zm10.44-8c-.39-1.25-.44-3.15-2-3.59a.11.11,0,0,0,0,.09c.33.46.08,1,.18,1.47C22.54,39.54,23.49,40,24.13,40.67Zm-.64-3.23c.86.9.7,2.32,1.21,3.36.66.23,1.54-.71,1.95.17,1.32-.62-.31-.89-.89-1.46-.59-.38-.07-1.17-.69-1.58-.56-.26-.95-2-1.59-1.08C23.28,37.11,23.29,37.18,23.49,37.44ZM8.66,51.19c.74-.81.22-2,1.66-2.11,2.56-.55-.59-2.91-1.14-4-.67-.51-.39-1.1-.8-1.52-2-1.06-1.58,2.09-1.69,3.23-.08.62-1.29.71-1.15,1.33a1.36,1.36,0,0,1,0,.87c0,.27-.1.56.1.82-.23.42.06.7.32,1C6.81,51,7.89,50.7,8.66,51.19Zm4.63,9.91c-.15-.66,1-.68.73-1.29-.36-.9-1.35-.7-2.11-1-.55-.2-2-2-3-1.11-.14,1.7,1.74,2.44,1.34,4.2.39.59.13,2.63.8,2.71.33-.4.25-1.25.93-1.24C13.28,63.56,13,61.89,13.29,61.1Zm18-6.47c-1.51.64,1.23,2,1.92,1.35,1-.1,2.25.69,3.28,0,.66-.47,2.12-2,1.3-2.66-.46-.12-.92-.21-1.06-.77,0-.15-.33-.19-.41-.14-.67.61-1.76.21-2.3.76A6.24,6.24,0,0,1,31.33,54.63Zm2,10.91c.9-.19.73-1.37,1-2.05a1.25,1.25,0,0,0-.84-.82,9.92,9.92,0,0,1-2-1.9c-1-.5-1.09,1.27-1.09,1.89.63.79.43,1.9,1,2.77C31.6,66.38,32.64,65.33,33.34,65.54ZM18.93,63.62c1.19.16,2.35-.68,3.49,0,.38.31.75-1.22.61-1.41-1-.3-.6-1.94-1.56-1.95-.46-.14-.91-.17-1.19-.64-.23-.26-.47-.8-.67-.19-.42,1.24-.16,2.54-1.85,2.65C17,62.52,18.53,63.42,18.93,63.62Zm6.24,14.82a1,1,0,0,1-.65-.67c-.33-3.56-1.84-3.14-4.82-2.87a15.9,15.9,0,0,1-.06,2.39c0,1,.93,3,1.77,3.36.65.55,1.6.33,2.27.76,1.09,1.27.59,0,.94-.75C25.08,80.2,26.16,78.83,25.17,78.44Zm8.44-2.65c.21-.09.14-.17.11-.31-.36-.75,0-1.81-1.16-1.82-.39,0-.62-.21-.61-.52,0-.68-.33-1.72-.86-2-.92.29-1.91-.37-2.81-.38-.48.32-1.27.72-1.49,1.31.46,1.14.41,2.92,1.82,3.33.39,0,1,0,1.12.49.4,1.13,1.59,1,2.49,1.07C32.76,76.84,32.94,75.93,33.61,75.79Zm9,1.8c.5-.06-.08-.7,0-1,.16-1-.54-1.68-1.07-2.44s-2.3,0-3.15-.1c.74.89.68,2.1,1.32,2.68A2.8,2.8,0,0,0,42.56,77.59Zm1.55-15.52c0,.81.6,1.09,1,1.74.16.69-.29,1.49-.1,2.21s-.1,1.71.15,2.38c1.7.3,3.51-.24,5.25.11,1.7-1,1.42-3.09.89-4.73-.11-1-1.3-.77-1.91-1.2-1-.14-.6-1.68-1.53-1.92-.85,0-1.86-2.14-2.49-.62C45.71,61.08,44.91,61.66,44.11,62.07Zm5.63,14.32c.63,1.4,2.46,1.14,3.52,1.93A3.73,3.73,0,0,1,56,80.47c1.07,1.76,3.78,2,4.39,4.12.25.77,1.59.41,1.74-.21-.13-.83.79-.27.77-.95.38-1.55-1.21-2.08-2.11-3.09-.83-1.9-2.84-2.5-4.22-4-.5-.9-1.87-.34-2.25-1.21-.41-1.18-2-1.4-3.05-1.82-.6-.54-.85.5-1.38.58C49.19,74.21,49.49,75.77,49.74,76.39Zm3.83,7.87c1.16,1.66,3.12,2.95,2.38,5.17-.12.59.62.37,1,.49.79-.09.17-.85.42-1.31-1.92-2.21-1-5.76-3.19-7.6,0-.49-.09-1.29.39-1.5-.57-.69-1.5-.58-2.19-1.07-.6-.22-.27,1.15-.45,1.53C53.1,81,53,82.78,53.57,84.26Zm-19.71,0c-.17.41.47.78.17,1.07a10.81,10.81,0,0,0-2.46,3,2.15,2.15,0,0,0,1.82,2.75c.72.13.67.84,1,1.34.83.92,2,1.12,2.58,2.38a6.4,6.4,0,0,0,1-1c-.46-.44,0-1.22-.45-1.56-.62-.44-.29-1.65.06-2.24.3-1.23-2.28-.44-2.36-3.54.13-.87-.59-1.18-1-1.81C34.16,84.51,34,84,33.86,84.29Zm9.89,30.87c.31.06,0-.34.23-.41,0,0,.05-.11.06-.16.56-1.35-1.54-2-1.39-3.47.07-.48-.46-.94-.06-1.4.29-.28,0-.64-.26-.75-.66.71-.81,2.17-1.74,3-.08.12-.11.26.14.28C42.2,112.52,42.16,115.16,43.75,115.16Zm-2.87-9.94c1-.73,2.28-1.91,1.69-3.36-.09-.85,1.08-1.09,1.36-1.54,0-.28.68-.94.15-.92-1.57-.27-2.48,2.39-3.92,1.18-.36-.29-.39.11-.67.29-.81.64-1.05,1.84-1.81,2.57-2.49,1.41-.26,1.65,1.13,2.74C39.67,106.83,40.05,105.26,40.88,105.22Zm-8.74-5.34c-.4,1.89.76,1.64,1.34,2.91.05.44.35,2.29.84,1.31a11.78,11.78,0,0,1,.62-3.41C35,99.31,32.32,98,32.14,99.88ZM31.56,111c.08-1-.73-1.87.44-2.53s-2.14-2.09-1.68-.8c0,1-1,1.78-.82,2.91.15.6-1,.85-.33,1.38C30.16,113.4,31,112,31.56,111Zm4,13.25a1.05,1.05,0,0,1,1-.67c2.69.09.62-2.2-.35-2.9-.34.31-.35.3-.57-.11s-1-.59-1.1-1.2c-.25-.81-2-.76-2.25-.09s0,1.52-.37,2.14c-.25,1,2.14,3,3.2,3C35.43,124.7,35.5,124.45,35.57,124.25Zm10-2.85c.09.84-.83,1.68-.76,2.6-.15.59,1.27,1.2,1.33.5,0-.2-.22-.64.1-.61.74-.09,1.63-.49,1.48-1.36,0-.27-.21-.6-.1-.8.19-.51-.7-.71-1-.38S45.94,121.35,45.61,121.4Zm7.37-.84c1.57-.14,2.77-.71,2.84-2.43,0-1.18.14-2.68-1.5-1.9-.62,0-1,.6-1.6.75-.2,0-.23.07-.22.24.3,2.11-1,1.52-2.19,1.93-1.41,1.61,0,1.38.9,2.51C51.87,121.53,52.33,120.7,53,120.56Zm-2.47-4.73a.14.14,0,0,0,.26,0c.11-.55.55-.76.87-1.24a4,4,0,0,0,.41-1.54,1.56,1.56,0,0,0,.31-1c-.54-2.18-4.86.29-3.71,1.74a1.32,1.32,0,0,1,.32,1C48.85,115.56,50.18,115.2,50.51,115.83Zm-.83-14.9c0-.3.5-.77.23-1-1-.27-.38-2.27-1.71-1.57-.61,1.35-2.38,2-2.12,3.57.07,1-.15,1.3,1,.81C48.07,102.2,49.45,102.3,49.68,100.93Zm4.69,6.86c.35-.23.54.24,1,0,.76-.06.49-1,1-1.22s.3-.68.8-.6c.79,0,1.16-1.13,1.43-1.74-.24-.83.44-2,0-2.62-1.53-.86-3.07,1.06-3.43,2.38-.17.39.4.47.57.79.66,1-1.14,2-1.48,2.91C54.23,107.75,54.35,107.81,54.37,107.79Z"/><path id="fill0" d="M72.4,93.89c.12-.88-.47-1.77.16-2.5-.25-.75-1.13-1.37-1-2.2-.06-1.06.63-1.93.37-3-.44-.73-.17-1.49-.47-2.17-.54-.93-1.78-1.31-2.22-2.25,0-.44-.31-.92,0-1.25.8-1.5-1-2.92-1.69-4.15-1.2-1.85-1.77-3.89-3.54-5.4-1.45-1.51-2.06-3.3-3.51-4.8-1.4-.75-3-.79-3.75-2.61-.86-1.19-.89-2.67-2.39-3.41-1.57-1.51-4-1.36-3.75-3.41-1.52-.51-1.6-2.5-3-3-1-.45-2.5-.52-2-1.92,0-1.72-2.14-2.13-3.24-3-.49-.12-1.12.41-1.47-.19-.26-1.36-1.81-1.89-1.87-3.21-.88-1.6-3.28-1.58-3.84-3.58-.78-.74-.93-1.66-1.7-2.44-.36-.11,0-.46-.25-.62-.57-.17-.48-1.08-.9-1.49-.06-1.13.47-2.06-.75-2.94-1.34-1.38-2.45-2.88-1.67-4.8-.86-1.83-3.08-2.65-2.67-5-.15-.86-1.49-1-1.24-2,.55-5.42-3.65-2.6-2.63-6.17a1.23,1.23,0,0,0-.1-1.37c-.25-.55.32-1.41.12-2-.17-1.55-1.86-2.1-2.26-3.4.07-1,1.45-1.28,1.31-2.2-.2-.67.78-.66.84-1.31a2.15,2.15,0,0,1,2.6,0,.53.53,0,0,0,.63.17c.88-.47,2-.4,2.8-.83,1.63,1,2.46-1,3.38-2a1.93,1.93,0,0,0,.55-2.31A2.93,2.93,0,0,0,31.59.42c-.56.24-1.27-.16-1.7.2a.68.68,0,0,1-.69.16c-.57-.27-1,.36-1.53.11-.44-.53-1,.08-1.42-.21-.24-.32-.71-.06-1-.21s-.52-.14-.81-.06c-.39.29-.87-.28-1.24.16C22.55,1,21.61.48,21,.19S19.4.43,18.61.31A4.93,4.93,0,0,0,16.43.13a3.43,3.43,0,0,0-2.49.26C13.37.25,13,1,12.31.71c-1.61-.28-3.26.7-5,.63-.83,0-.78,1.12-1.64,1a8.39,8.39,0,0,0-2.38.29C1.85,2.68,2.72,4.33,1.64,5c-1.15,1.37.25,3,.09,4.49.1.79-.12,1.62-.06,2.34,1.18,1.74-.5,3.32-.53,5.07.38,1.32-.33,2.54-.25,3.73.53,1.71-.36,3.64-.5,5.43-.86,2.11-.13,4.31.57,6.34,0,2-.44,3.82.32,5.67.28,1-.71,1.69-.43,2.62,0,1.91,1.28,3.67,1.85,5.31-.75,1.67.68,2.33.76,3.74.65,1.79,2,3.37,2.54,5.2.63,1.53-.08,3-.15,4.56a14.26,14.26,0,0,0,4,7.13c1.07.39,1,1.71.87,2.64a21.16,21.16,0,0,1,.95,3.51c.07.59.77.36,1.05.72,2.28.83,2,2.79,3.25,4.38.53.56.29,1.68,1,2,.78,0,.47,1,.86,1.35.72.62-.29,1.35.11,2.06.88,2.32,3.2,3.78,3.35,6.36,2.27,2.78-.4,2.52.6,4.81.09.27.41.38.72.43,1.6.19,1.35,2.21,2.46,3.06.72.46-.35.81-.06,1.29.46.84-1,1.32-.66,2.33.25,1.47,3.13,2.13,1.63,3.89-.26,1,.74,2,.39,3.08.95,1.79-2.26,2-2.17,3.45a3.51,3.51,0,0,1-.34,3.71c-.21.33-.19.34.08.63,1.05,1.2-1,1.81-1.51,2.9-1.92,0-1.58,2.21-2.78,2.89-.26.13-.79.49-.42.8.35,1,1,1.8,2.2,1.61.79.17.43-1.19,1.27-.64.12.09.29.22.11.39-.1.89,1.45-.07,2,.15,1.11.5,2.41.83,3.56,1.32a3.7,3.7,0,0,0,4.14.69c1.25-.26,2.39,2,3.49.17,1.87-.35,3.87,1.48,4.11-1.79,2,2.22,1.56.7,3.65,1.15a2.81,2.81,0,0,0,2.81-.08c.28-.3.64.18,1,.17s.53.17.51.57c.31,1.14,1.75.87,2.59,1.1.61.16,1.29.18,1.66.68a2.28,2.28,0,0,0,1.78-.67c.49-1.21,2.26-2.32,1.79-3.68-.23-.26,0-1.91.55-1.73.87.3.49-.65.74-1a3.48,3.48,0,0,1,.93-.68c2.36-.76,3.51-3,5.58-4.24,1.68-1.43,1.45-3.73,2.51-5.41A25.38,25.38,0,0,0,69.3,105c.25-.71,1-1.14,1.18-1.8a.89.89,0,0,1,.47-.89,1,1,0,0,0,.48-1,3.09,3.09,0,0,0,0-2.2,4.71,4.71,0,0,0,.12-2c.11-.78,1-.9.46-1.83,0-.1,0-.17.13-.24C72.61,94.82,72.5,94.27,72.4,93.89Zm-43.22-89c-1,.24-2.32,1.26-3.24.65a.62.62,0,0,0-.69-.27c-.25.06-.39-.32-.71-.13-.54.22-1.33,0-1.62.74-.21.41-.76,1.09-1.28.6-.41-1.59,1.49-1.56,2.45-2.2.59-.07,1.4.25,1.89-.3.45-.34.78.39,1.27.2S29.88,4.27,29.18,4.91ZM18.71,7.19c-.41.73-.86.52-1.5.55s-.05-1-.2-1.29c.44-.24,1.2-1.65,1.71-1.14.16.28.84.54.5.9S19.13,7,18.71,7.19ZM19.5,19c.34,1.72-1.92,1.27-2.48.16-.06-.4-.21-.59-.56-.52a2.19,2.19,0,0,1-.85-.83c.93.48,1.51-.51,2.32-.7.43.11.54-.17.53-.52.14-.57.5-.15.79,0C20.15,17.22,19.12,18.23,19.5,19Zm1.34,9.75c-.1.81.54,2.18-.32,2.7.25-1.4-1.11-1.93-1.2-3.15.16-.77-.32-2.53.19-2.81C20.92,26.16,20.48,27.58,20.84,28.79Zm2,1.06c1.85,1.52-.22,2-1.33.87a23.91,23.91,0,0,1-.41-4,3.4,3.4,0,0,1,1.06,1.47C22.17,29,22.08,29.63,22.86,29.85Zm-1.81,1.78c.36-.74,2.12-.05,2.39.49,0,1.33-1.6,1.08-2.06,2C20.29,33.52,19.78,32.32,21.05,31.63Zm4.71,7.88c.57.57,2.21.84.89,1.46-.41-.88-1.29.06-1.95-.17-.51-1-.34-2.46-1.2-3.36-.21-.26-.22-.33,0-.59.63-.87,1,.82,1.59,1.08C25.69,38.34,25.17,39.14,25.76,39.51ZM32,44.14c.11.55,0,1.49.69,1.48.85.15.88,1,1.11,1.65s-.67.82-.59,1.45c0,.16-.18.21-.33.17-1.38-.49-2.17.88-3.53.39C27.48,49,27.4,47.55,27.8,46.1c-.27-1.56-.18-3.43-.74-4.9,1.73-.71,2.07-1.09,3.31.47.25.81,1.64.65,1.67,1.37A1.67,1.67,0,0,0,32,44.14ZM35.79,50c.49,1.46.87,2.36-1.14,2.39-.09,0-.23,0-.25-.08-.15-.47-.59-.28-.89-.38-1-.38-2.54-.14-2.52-1.59-.22-.88.86-1.39,1.58-1.17.43.4.67-.08,1-.17.28-.4.18-1.52,1-1.1C35.83,48,35.77,49,35.79,50Zm3.91,3.82c.67.24,1.95.28,1.06,1.17a1.93,1.93,0,0,0,1.93,1.43c1.38-.12.54,2,1.53,2.65,1.26,1.06.65,1.92-.44,2.57-1.2-.51-2-1.66-3.05-2.22-.6-.26-1.24.17-1.87-.15-1.06-.39.32-2-.65-2.38-.28-.18-1.48-.25-1.11-.67a4.53,4.53,0,0,0,1.47-1.89c.16-.36,0-1.48.54-1.36A.72.72,0,0,0,39.7,53.86ZM45.33,60c.62-1.52,1.64.61,2.49.62.92.24.5,1.78,1.53,1.91.61.44,1.8.26,1.92,1.21.52,1.64.8,3.71-.9,4.72-1.75-.33-3.55.2-5.25-.1-.25-.67.06-1.61-.15-2.38s.25-1.52.11-2.21c-.37-.65-1-.94-1-1.73C44.91,61.66,45.72,61.08,45.33,60Zm7,6.25a2.56,2.56,0,0,0-.05-.27c1.05,0,1.3,1.5,2.3,1.68.94,1,1.14,2.63,2.63,3.15,1.06,1.36,3.07-.28,3.74,1.61,1.08,1.64.93,4.31,2.63,5.63,1.51,1.07,2.87,2.62,2.77,4.46-.39,1.71-1.35,1-2.69,1.06.1-1.56-1.07-2.48-2.28-3.33-.51-.35-.57-1-.8-1.44-.58-.82-1.67-1-2.35-1.73a6.23,6.23,0,0,0-2.36-1.77c-.86-.1-1-.45-1.18-1.19C54.43,72.92,52.81,72.27,53,71c.15-1-1.37-1.28-1.71-2.19S52.55,67.31,52.31,66.29Zm16.9,27.59c.35,1.81-.9,3.39-1.21,5.08-.26.58.9.9.74,1.62-.87,1.51-2.74,2.8-2.68,4.78.08,1.18-1,2.16-1.68,3s-.85,2.06-1.56,3c.45,2.64-1.75,1.51-2.89,2.89a6,6,0,0,1,1.57-3.88c.62-.76-.63-1.47,0-2.37a7,7,0,0,1,2.23-2.69c-.66-3.36-1.16-1.58,1.17-4.52,1.07-.67.13-2,0-2.92-.2-1.56,1.42-2,2.31-2.68a9.3,9.3,0,0,1,1.92-3.68C69.46,92.24,69.06,93.11,69.21,93.88Zm-.55-3.71C69,92,67,92.91,66.84,94.69a.52.52,0,0,1-.51.49c-.68-.07-.91.55-1.33.93-1.86,1.77,1.45,4.07-1.82,5.67-.19.44-1,.82-.74,1.39s.82,1.47.63,2c-1.08.41-1.09,1.41-1.85,2.08-.12.06-.14.31-.21.48a1.65,1.65,0,0,0,.18,2c-.38.76-1.28,1.23-1.31,2.17-.87,1.47.2,5-1.7,5.22-.56,0-1.76.61-1.89-.2-.12-1.65,1.18-3.67,1.5-5.42.27-.67.21-.62-.23-1.06-.73-.7-1.06-1.93-2.09-2.2.66-.14.83-.39,1.07-1s1.27-.72,1.61-1.4c.13-.64,1.19-.83,1-1.48-.88-1.62,1.32-3.33.89-4.78-.27-.51.48-1.5.89-1.82S62,97.41,62.23,97c.32-.61.39-1.54,1.13-1.73.15,0,.25-.32.33-.51.21-.89.82-1.75,1-2.56-.35-.37-.13-.71,0-1,1-1.36.24-2-.58-3,0-.36-.27-.69-.19-1,0-.81-1-1.15-1.2-1.93-.39-1.85,2.8-1,3.7-.38C68.17,86,68.58,88.31,68.66,90.17ZM49.45,121a.3.3,0,0,1,0-.13c.83.28,1.34,1.59,2.27,1.25,2.28-2,1,1.27.88,2.54-.8-.15-1.62.35-2.45.33C49.18,124.08,49.86,122.16,49.45,121Zm-4.62-7.13c-2-1.92-.94-1.63.56-3.34a3.63,3.63,0,0,0,.32,1.41,12.94,12.94,0,0,0,.2,2.33c0,1.34,2.29,2.63,1.25,3.77-.92-.28-.59-1.64-1.65-1.77C44.29,116,44.57,114.79,44.83,113.83Zm-.58,7.47c1.28.06.52,1.35,0,1.93-.56.27-1.28-.21-1.86-.31a.26.26,0,0,1-.24-.29c.06-.91-1-1.25-1-2.2-.18-1-1.64-.25-1.58-1.36-.28-1.58,1.48-1.35,2.46-.93.61.47.19,1.7.88,2.11C43.44,120.57,43.51,121.33,44.25,121.3Zm-.42-.75a1.3,1.3,0,0,1,2,.21C45.63,121.32,44.16,121,43.83,120.55Zm-4.44-2.92c0,.56-1.3.5-1.8.7-.87,0-1.25.63-1.83,1.19-.77.6-.57-.72-1.08-.93-1.25-.93-.42-2.51-1-3.78,0-.44.79-.49,1.07-.85.39-.21.89,0,1-.57.32-.75,1.75-.91,1.7-1.94-1.6-2.48.23-1.14.67-3.1.56-1.51,4.24-1.36,3.64.55-.12,1-2.58,3.6-1.58,4a.74.74,0,0,1,1.2.5c-.09.47-1,.57-1.25,1.22-.68.59-.12,1.48-.62,2.14A.76.76,0,0,0,39.39,117.63Zm-7.64,2.1c-.11.52.19,1.91-.74,1.56-.53-.31-1.14.34-1.59-.26-.39-.75-2.08-.92-1.78-1.94a6.66,6.66,0,0,0,.21-2.64c.07-.54.67-.89.38-1.53-.34-.91-1.59-3.29.13-3.4.37.49.42,1,1.08,1.25a2.63,2.63,0,0,1,.16,3c-.38.66,1,.68,1.16,1.41.52.13,0,.67.34.93.26.41,1.13.68.66,1.25C31.7,119.42,31.76,119.6,31.75,119.73Zm-1.75-18a7.84,7.84,0,0,1-.26-4.33,11.2,11.2,0,0,0,1.75,1.83c.7.3,0,1.41.17,2a.93.93,0,0,0,.68.82c1,.53.54,2.13,1.4,3,.76,1.14.16,1.9-1,2.38-.82-.13-2.29-.57-2.65-1.5C29,104.58,30,103.28,30,101.71Zm-2.23-8.66c-.27-.76-.1-1.73-.91-2.17-.44-.35-1.2-.58-1.12-1.26.17-1.2-1.2-1.18-1.73-1.76.69-2.62-2.45-3.94-2.58-6.45.08-.45,1.14.33,1.58.2.79.15,1,1.14,1.24,1.81,2.32,2.58,1.91-.56,2.7,4.21.71,1.08,1.6,2.16,1.44,3.56-.11.63-.72,1.92.1,2.28,1,0,1.69,1.62,1.28,2.31-.13.16-.14.53-.39.32-1-.44-.68-1.69-1.47-2.33C27.78,93.52,28,93.29,27.77,93.05ZM19.22,75.83c-.14.4,0,.8,0,1.18a27.93,27.93,0,0,1-2.73-2.57c.1-.81-1.12-1.2-.49-2,.42-.33.48-1,1.06-1.09.84.57,2,1.11,2,2.2A5.82,5.82,0,0,1,19.22,75.83Zm-6.31-8.36c.13-1-2-3.57-.66-3.79.66,0,.62.51.85,1s.89.12,1.29.39c.42.57,1.41.87,1.33,1.56-1.19,2.1-.19,2.36,1.16,3.59,1,.94-.79.59-.91,1.5-.47.74-.94-.52-1.31-.81C13.46,69.88,12.79,69.09,12.91,67.47Zm-2.67-5.61c.4-1.75-1.48-2.49-1.34-4.19,1-.87,2.47.91,3,1.1.75.34,1.74.13,2.11,1,.28.61-.89.64-.73,1.29-.32.78,0,2.46-1.33,2.24-.68,0-.58.84-.92,1.24C10.38,64.51,10.63,62.46,10.24,61.86ZM5.56,49a1.37,1.37,0,0,0,0-.87c-.14-.62,1.07-.71,1.15-1.34.11-1.13-.3-4.28,1.69-3.23.41.43.13,1,.8,1.53.55,1.07,3.7,3.43,1.14,4-1.44.1-.91,1.31-1.66,2.12C7.89,50.71,6.81,51,6,50.87c-.26-.34-.55-.61-.33-1C5.46,49.58,5.57,49.29,5.56,49ZM3.64,41.22c.12-.54,3.82,2,3.07,2.09-1.1,1.19.27,3.25-1.25,4.11C4.67,45.36,3.52,43.46,3.64,41.22ZM14.78,3c1.38.68-.24,1.28-1,1.4a1.29,1.29,0,0,1-2-1.44c.41-1.59,1.7-1,2.83-.63C15.17,2.45,14.45,2.82,14.78,3Zm1.81,9.55c-.69.5-1.31-.16-1.95-.36a2,2,0,0,1,1.08-1.75c1-.36.43-2.72,2-2.37.12,0,.28.08.16.29s0,.37-.11.46c-.32-.05-.2.19-.23.34A21.75,21.75,0,0,1,16.59,12.55Zm-.08,1.06c-.27.14-.53.31-.79.47l.06-.61C16.07,12.9,17.1,13.2,16.51,13.61Zm-2,3.68c.23.64,2.07,1.54,1.31,2.07a4,4,0,0,1-4.25-.07c-1-1-3.95-.32-3.83-1.84,0-.93,1.46-1,2.11-1.54,1-.29,1.15-1.54,2.22-1.55.73.12,2.94-.56,2.88.3-.29.36.08,1-.36,1.22A.78.78,0,0,0,14.52,17.29Zm1.66,6.88c.32.82-.85,1.33-1.3,1.78-.24-.31,0-2.86.38-2.5a1.47,1.47,0,0,0,1.22.1C16.19,23.76,16,23.91,16.18,24.17Zm5.92,13s0-.06,0-.09c1.59.44,1.64,2.34,2,3.59-.64-.64-1.59-1.13-1.87-2C22.17,38.15,22.42,37.63,22.1,37.17Zm.64-.19c-1.23-.34-.38-1.43-.74-2.09s.08-1,.77-1.1C23.56,34.31,23.66,36.4,22.74,37Zm-.57,2.57c.73.56,1.3,1.41,2.22,1.66.18,1,.62,1.89-.4,2.62-.4-1.51-7.92-2.2-4.91-4.22.3-.52.93-.39,1.34-.67C20.82,38.47,21.92,39.18,22.17,39.55Zm5,4.73c-.39-.48-1.24-.41-1.42-1.05-.46-.43-1.18-1.63-.44-2.08C26.86,40.63,27,43.16,27.14,44.28Zm0,.36a2,2,0,0,1,.07,1.27A1.55,1.55,0,0,1,27.16,44.64Zm-2.1-1.43a3.59,3.59,0,0,0,1.41,1.22c.39.39.14,1.07.4,1.55.78.73-.28,1.6.27,2.38a1.07,1.07,0,0,0,.87.83c1.18.43,1.26,1.87,1.63,2.9a3.71,3.71,0,0,1,.77,2.16c.14.73-.74.09-1,.41-1.42.2-1.32-1.64-1.92-2.49a3.26,3.26,0,0,0-2-2.13.29.29,0,0,1-.09-.25c.21-.42-.34-.67-.29-1.1-.18-.54.24-1.25-.33-1.6C23.24,46.11,23.9,44.22,25.06,43.21ZM41,61.88c.58,1.1,1.08.81-.48,1.28-2.42.37-4.82-1-4.32-3.73-.31-.57.77-.35,1.07-.56.93-.14,1.23,1.25,2.31,1C41.18,59.64,40.46,60.74,41,61.88Zm3.62,6.77c.41.44,1.23-.06,1.39.64.77,1.46-.27,1.71-1.51,1.41-.42-.7-.37-1.74-.84-2.39-.78-.19-.62-1.88.11-1.65C45.47,67.35,44,68,44.58,68.65ZM52.65,72c.39.54,1.22,1,1.15,1.72-1.55-.53-3-1.07-3.42-2.82-.37-.48-1.52-1.58-1.07-2a3.13,3.13,0,0,0,1.36.1c.64.16,1,1.24,1.73,1.52C52.69,70.87,52.14,71.58,52.65,72Zm10.28,11.4c0,.69-.9.12-.77.95-.15.62-1.49,1-1.73.21-.62-2.13-3.34-2.36-4.39-4.12a3.75,3.75,0,0,0-2.78-2.14c-1.06-.81-2.88-.55-3.53-2-.24-.6-.54-2.17.19-2.45.53-.08.79-1.12,1.38-.58,1,.42,2.64.63,3.05,1.82.38.87,1.75.32,2.25,1.21,1.38,1.46,3.4,2.07,4.22,4C61.72,81.35,63.31,81.88,62.93,83.43Zm.54,4.22c-.08.87.72,1.08,1.09,1.66.5.79-.27,2.07-1.2,1.48-.33.52-.38-.09-.68-.1a1.31,1.31,0,0,1-.66-.57c-.36-.53-1-.77-1.38-1.21-.23-.62.38-1.21.06-1.75s-.07-1.63.54-1.73a1.33,1.33,0,0,0,.91-.23c.45,0,.41,1.28,1.2,1.37C63.82,86.86,62.94,87.3,63.47,87.65Zm-4.94,16.6c-.27.61-.63,1.76-1.43,1.73-.5-.07-.33.54-.8.6-.5.22-.23,1.17-1,1.23-.4.23-.6-.25-1,0,0,0-.13,0-.18-.08.34-.9,2.14-1.89,1.48-2.9-.17-.34-.73-.4-.58-.81.37-1.31,1.92-3.23,3.43-2.37C59,102.25,58.29,103.42,58.53,104.25Zm-9.88,9.5c-1.15-1.45,3.18-3.92,3.71-1.73a1.55,1.55,0,0,1-.31,1,4,4,0,0,1-.41,1.55c-.32.47-.77.68-.87,1.23a.13.13,0,0,1-.25.06c-.34-.64-1.66-.28-1.55-1.12A1.36,1.36,0,0,0,48.65,113.75Zm3.45-3.11c-.52.38-1.57-.25-2.08.18-.69.79-1.65,1.87-2.2.46-.17-.72-1.5-.61-1.47-1.1a9.26,9.26,0,0,0,3.21-5.09c3,.06,1,1,2.59,2.42.73.74,2,.44,2.64.89C54.81,110.09,52.77,109.49,52.1,110.64Zm-8.35,4.51c-1.6,0-1.55-2.64-3-2.94-.26,0-.22-.15-.14-.27.93-.79,1.08-2.27,1.74-3,.27.11.55.48.26.75-.39.46.12.91.07,1.4-.16,1.46,1.94,2.12,1.39,3.47,0,0,0,.14-.07.16C43.77,114.82,44.06,115.22,43.75,115.15Zm-.35-3.56c-.78-.83.45-2.3-.74-2.92-.6-.56-.84-1.66-1.82-1.63-.27-.08-1.22.07-1-.38a6.26,6.26,0,0,1,2.82-1.93c.58.32,1.19,1.13,1.88,1,.28-.14.28-.06.28.17.1.52-.44,1-.29,1.42a22.54,22.54,0,0,0,1.72,2.1c-.23.36-.37.77-.7.91-.29-.24-.5.07-.74.09C44.16,110.52,44.12,111.41,43.4,111.59Zm-12.17,5.29c-.34-.24-.5-.78-.92-.86-.49-.24.29-.89.11-1.35a3.33,3.33,0,0,1,.64-2.28c.17-.21.45-.82.77-.55.77.53.42,1.62.92,2.28,1,1.34.3,2.95,1.09,4.27-.75,0-2.31.3-2.3-.84A.48.48,0,0,0,31.23,116.88Zm1.86-3.13c-.41-.55.09-1.33-.46-1.77-.16-.19-.54-.36-.45-.64.12-1.21-1-1.86.44-2.63.71-.09,1.23,1.37,2,.78.52.14,1.56.08,1.67.83s1.07.89.39,1.48-1.21,1-1.77,1.58C34.32,113.39,33.45,114.66,33.09,113.75Zm3.47-4.42c-.62.22-1.34-.44-2-.37-.72.25-1.13-.6-1.74-.83.9-1.09,2.72-1.2,3.29-2.53.49-.76,2.22,1,2.86,1.26,0,0,.09.3-.1.27C37.19,107.15,38.08,109,36.56,109.33ZM22.42,63.64c-1.14-.7-2.3.15-3.49,0-.39-.21-2-1.1-1.18-1.53,1.69-.1,1.44-1.41,1.85-2.65.21-.61.44-.07.68.19.27.47.72.5,1.19.65,1,0,.6,1.63,1.56,1.94C23.17,62.41,22.81,63.94,22.42,63.64Zm.34,2c.24,3.45-5.06-2-1.58-2C22.36,63.76,22.79,64.62,22.76,65.67Zm-4.24,6.21c-1.15-.48-.71-1.79-1.66-2.44-.77-.22-1.54-1-1.1-1.81.14-.37.36-1.32.89-.89a1,1,0,0,0,1.08.26C19.89,67.36,17.6,70.41,18.52,71.88Zm0-5.51c-1.8,1.1-2.84-1.77-4.51-1.8-.36,0-.4,0-.51-.38-.42-.66.1-4.51,1.3-3.53.59.64,1.92.61,2.15,1.38-.13.94.75,1.3,1.33,1.81,1.14.32,1.11-.05,1.38,1.3C19.88,65.84,18.72,65.76,18.51,66.37Zm-4.07-12a6.81,6.81,0,0,1,0-4.12c-.57-1.3,1.72-1.34,2.51-1,.58,1.49,1.46,1.38,2.76,1.52.63-.14.62.5,1,.68.9.15-.35,1.79-.71,2.09-.25.47-1.19,1-.89,1.52.17.23-.12.35-.27.22C17.45,53.5,14.18,56.57,14.44,54.34ZM5,39.18C3.84,37.47,5.8,35.7,6.8,38c.71,1.39.53,5.84-1.71,3.2C4.94,40.44,5.32,39.73,5,39.18Zm1.69,3c.2-.22.56-.28.64-.62,1.23-2.09-1.9-4.06,2.57-4-.8.14.18.89.31,1.32a.89.89,0,0,1,.48.71c.56,1.45-.11,2.16-1.28,2.84-.62,1.22-2,.56-2.85-.1ZM6.6,30.59c-.2-1.51,1.19-1,2.17-1.2.42-.08.6-.4.88.13.7.75-.49,1.31-.47,2.12-.63.78.51,1.22,0,1.89-1.49,2.27-1.55-.43-2.35-1.36C6.33,31.78,6.68,31.16,6.6,30.59ZM3.08,24.8a30.69,30.69,0,0,1,.39-3.71c.59.5.94,1.29,1.79.84.16,0,.31-.12.38,0-.2.23,0,.36.15.48.62.51.28,1.32,0,1.87C4.36,25.38,2.7,28.79,3.08,24.8ZM6,21.63c-.77-.17-1.49.27-2-.64C6,19.18,10.06,22.43,6,21.63ZM11.8,9.71c.79-.08,1.26,1.09,1.9,1.48,1,.21.33,1.05-.38,1.09-.45.12-1-.21-1.32.19-.13.15-.28.11-.43,0-1.09-.24-2.25-.42-2.74-1.56A19.81,19.81,0,0,1,11.8,9.71Zm-1.22-.78c.53-.1,1.64-.41,1.71.38C11.52,9.31,9.5,10.47,10.58,8.93Zm2.25-.07A16.91,16.91,0,0,1,14.68,7.2c.55-.7,1.29-1.58,1.86-.46a11.53,11.53,0,0,1-.47,2.38c-.06,1-1.11.94-1.33,1.86C14.56,11.63,11.82,9.21,12.83,8.86Zm-3,.79c-.27,1-2,.76-2.76,1.57-.24.23-.39-.15-.64-.09s-.48-.05-.65-.2-.92-.73-.57-.95,1-.35,1.34-.79c.25-.21.57-1,.89-.48.2.27.33.3.57.07.57-.55,1.26-.09,1.82.19C10,9.25,9.71,9.36,9.85,9.65ZM6.61,13.59c.43-.57-.08-1.25.11-1.83.63-.08,1.37-1,1.94-.35.72,1.52,2.81.77,3.29,2.36,0,0-.13.22-.18.21-1.3.2-2.1,2.06-3.66,2.3C7.07,16.21,6,14.59,6.61,13.59Zm1,5.18c0-.38.8-.07,1,0,.69.16,1.39,0,2,.51.41,1.27.3,4.92-2,3.62A3.13,3.13,0,0,1,8.12,21C6.84,20.4,7.37,19.87,7.57,18.77ZM6.31,22.44a1.08,1.08,0,0,1-.08-.19c1-.45,1.66.32,2.22,1.06.22,1,.62,3.08-1,2.35-.73.08-.71-.8-1.26-1C6.43,24,6.92,23.16,6.31,22.44Zm.76,3.81c.27-.47.81.17,1.26,0,.75.33,1,1.76,1,2.54a5,5,0,0,1-1.67.27A3,3,0,0,1,7.07,26.25Zm3.33,3.46A2,2,0,0,0,9.66,29c2.28-1.17,3.17,3.12,1.38,3.85-.41-.13-.82.43-1.16.08-.18-.3-.59-.61-.24-.95C9.78,31.24,10.7,30.36,10.4,29.71ZM9,35.08c-.1-1.33,1.33-1.94,2.34-1.85.33.13.5.66.91.74.13.06.11.11,0,.2C11.51,35.08,11,37,9.75,37a5.72,5.72,0,0,0-1.69.35C8.06,36.47,9.25,36.09,9,35.08Zm26.16,28c.9-.15,1.41-.66,2.25,0,.46.48,1.83.24,1.76,1-.35.87-.58,2.71-1.75,2.49-1.23,0-2.27.53-2-1.4.22-.67-1-.64-.53-1.47C35,63.32,34.62,63,35.15,63.05Zm6.52,1.86c1,1.51,1.29.82.89,2.81-.09.55.31.66.66,1,.12.93,1.06,2.21-.27,2.7-.66.28-.77-.32-1.39-.38-2.05,0-1.85-2.06-2.58-3.43-.6-.58.62-4.31,1.33-3.93.45.27.8-.15,1.18-.32C42,63.5,41.16,64.54,41.67,64.91ZM47.17,77c.58.58,1.43.85,1.42,1.78.24.46.59.8,0,1.16-.81.77.07,1.27-1.55.91s-1.23-3.12-2.93-3c-.87.16-1.53-1.66-.88-2,.48-.18,1.41-.61,1.67.1s1.23.27,1.77.66C47,76.48,47.21,76.54,47.17,77Zm7,4c2.22,1.85,1.27,5.39,3.19,7.61-.26.44.37,1.21-.43,1.3-.36-.13-1.11.1-1-.49.74-2.22-1.22-3.51-2.39-5.17C53,82.78,53.1,81,51.92,80c.18-.38-.16-1.76.45-1.53.69.49,1.62.38,2.19,1.06C54.08,79.72,54.13,80.52,54.17,81Zm.64-1.12c.83.14,1.07,2,2.2,2.23,1.4.61,3.81,2.45,3.05,3.94,0,.23.08.47-.09.68.05.38.47.73.16,1.17a.63.63,0,0,0-.05.53c.32.75-1,1.13-1.55,1.09-.21,0-.52,0-.58-.32-.59-2.21-2.07-4.41-1.9-6.87C55.7,81.4,54.37,81.07,54.81,79.89Zm1,20.76c1.05.67.36.87-.26,1.55-.34.42-.88.77-.86,1.36,0,.24,0,.25-.22.16-3-1.06-1.11,1.86-4.86,1,0-.71-1.39-1.61-.46-2.21s.95-2,1.71-2.79c1.16-.8,2.21-2.42,3.58-2.72a4.43,4.43,0,0,0,1.69.19c1.15.19.91,1.79.1,2.18C55.91,99.71,55.44,100.2,55.83,100.65ZM52,105.52c.56-1.54,1.87-2.13,3.09-.77.82.86-.87,2-1.32,2.75C52.58,107.89,51.89,106.52,52,105.52Zm-8.73-3.3c-.42-.72.89-1.29,1.24-1.66.75.5,1.43,1.24,1.1,2.21a.86.86,0,0,0,.33.82c.3.33.62,1.09,0,1.15a2.12,2.12,0,0,1-2.63-.09C42.41,104.06,43.46,103,43.22,102.22Zm-3.46-3.09a2.46,2.46,0,0,1-.18-2.66c.33-.75-.18-1.67.4-2.36.62-1.48,1.11-3.11,2.4-.87a21.94,21.94,0,0,0,1.35,4c.29.42,1.07,1.16.61,1.64-1.41-.29-2.22.74-3.25,1.51C39.92,100.55,40.07,99.43,39.76,99.13ZM36,104.66c0,.68-.87,1.16-1.27,1.62l-.23-.15a2.33,2.33,0,0,1,0-1c-.23-.31.39-.51.32-.91.14-.57-.27-1.25.13-1.72a2.66,2.66,0,0,0,1.16,1c.27.06.24,0,.09.29S35.82,104.32,36,104.66Zm-.33-2.13c-.69-.55-.19-1.37-.2-2s-1-1.26-.25-1.6c.38-.14,1.11,0,.94-.6a6.08,6.08,0,0,1,2.37-4.13c1.77.29-.37,3.1.28,4.26,1.49,1.77-1.13,3.28-1.72,5l0,0C36.42,103.77,36.12,102.83,35.69,102.53Zm-5-17.85c0-.77-1.05-1-1.24-1.63-.53-1.09.52-1.91.46-3a.42.42,0,0,1,.29-.48c.92-.41.84-1.58.64-2.29.28.26,1.1-.14,1.12.21a17.22,17.22,0,0,0,1.08,3.35c.88,1.36.22,3,.21,4.47a18.88,18.88,0,0,0-2.49,3.15C30.35,87.23,30.83,85.94,30.71,84.68ZM22.06,57.83c.54,2.32-1.1,2.51-2.15.64-.49-.63,0-1.43-.24-2.1,0-.63-.33-1.49.15-1.95.64-.56,1.15-1.89,1.95-.82,1.25.3.85,1.37,1.31,2.29-.3.15-.4.45-.73.37C21.7,56.33,22.1,57.36,22.06,57.83ZM18.18,46.47c-.05-.22.14-.18.24-.14a3,3,0,0,0,1.84.08c1.2,0,1.68,1.59,1.26,2.54-.7.44-.06,1.74-.57,1.9a.93.93,0,0,0-.83-.54c-.45-.07-.93-.52-1.37-.14-.17.19-.4,0-.53-.05C16.5,48.59,18,48.15,18.18,46.47Zm3.48,5.17c1.18-.31,2.44-1.63,2.3.6C23.06,54.21,20.85,53.69,21.66,51.64Zm.82,6.86c.12-.54-.27-1.58.17-1.86.37.07.41-.18.61-.48.82,1,1.84.75,2.11,2.26.18.38,1.16.44.83.94-.13.94-1,1.31-1.74,1.78C22.55,63,22.36,59.76,22.48,58.5Zm4.06-1.09c.63,2.46-1.1.43-1.23-.59.17-.39,1-1.77,1.18-.84A2.07,2.07,0,0,0,26.54,57.41ZM23.2,66.77c.11-2-.37-4.46,1.89-5.43.23-.17.28-.15.35.15s.29.88.79.79c.95-.24,1.68,1.3,2.58.42,1.25-1,1.51,1.35,1.63,2.15,0,.6.77,1.23.45,1.79-.1,1.09-2.25,1.38-1.15,2.62-1.74,1.42-1.53.91-2.5-.9-.57-1.7-2.62-1.34-4.08-1.4A.46.46,0,0,1,23.2,66.77ZM39.33,77.19a.87.87,0,0,0-.07-.17c1,.67,1.88,1.2,1.39,2.53a1.46,1.46,0,0,0,.48,1.54.84.84,0,0,1,.3,1c0,.81.64,1.64.81,2.46-.91,2.2-1.43,2.66-2.17,0-.64-.56-.52-1.15-.67-1.92.12-.73-.19-1.32.38-1.85C39.32,78.5,38,80.54,39.33,77.19Zm13.27,9a.76.76,0,0,1,1.11-1c-1,1,1.38,3.15,0,4.41,0,.52-.57.5-.68.91-.44.64-.93-.45-1.54-.37-1.66-.35-.09-2.64.72-3A.77.77,0,0,0,52.6,86.17Zm2.78,3.41c0,.15,0,.29-.22.25-.65,0-.84,2.37-1.65,1.62-.31-1,1.19-1.55,1.2-2.6s-.93-2.38-.62-3.22C55.3,87,55.69,87.77,55.38,89.58ZM46.08,102c-.26-1.6,1.51-2.22,2.12-3.57,1.33-.7.75,1.3,1.71,1.57.27.2-.26.66-.23,1-.23,1.38-1.61,1.27-2.59,1.83C45.93,103.27,46.15,102.94,46.08,102Zm-.45-1.07a.79.79,0,0,0,0,.13A1.33,1.33,0,0,1,45,99.1c.21-1,.24-1.95,1.27-2.6.68.1.7,1.28,1.21,1.74a4.45,4.45,0,0,1-1.8,2.08C45.4,100.53,45.67,100.7,45.63,100.89Zm-1-6.45c.68.78,1,2.58.11,3.16-1.14-.81-.84-2.36-1.61-3.42-.48-1.68.13-4.13,1.45-1.42C44.88,93.32,44.16,93.94,44.63,94.44Zm3-1c-.28-.41.61-2.55,1.12-1.68s-.38,2.47.58,3.29c-.62-.19-1.11.35-1.75-.07S47.88,94,47.63,93.45Zm1-2.78c.26-.93.56-3.22,1.53-1.4C50.71,90.2,48.79,92.54,48.59,90.67Zm-1.17,4.9c.6-.15,1.13.42,1.68-.1.42-.33,1.18.2,1.43.56a1.9,1.9,0,0,1-1.48,1.82c-.51-.32-1.35.28-1.52-.48s-.77-1-.74-1.19S47.05,95.59,47.42,95.57ZM47,94.16c-.07.92-.28,1.63-1.22,2,0-.89-.9-1.55-.71-2.41C45.31,92.65,47.68,92.89,47,94.16Zm2.85,5.2a1.66,1.66,0,0,1-.14-1.31c.35,0,.5,0,.65-.31a1.1,1.1,0,0,1,2,0c-.4.89-1.41.91-1.93,1.53C50.38,99.68,50,99.64,49.82,99.36ZM52.31,97c-.35-.59-1.29-.07-1.13-.77.53.07.71-1,1.33-1.14s.64.94,1,1.3C53.72,96.91,52.67,97.69,52.31,97ZM53.54,93c-.18,2.58-.74.76-2,2-.46,1-1.33.3-1.91-.28-.58-1.44-.13-3.68,1.39-4.32C52.15,90.83,53.85,91.59,53.54,93ZM52.1,84.87c-.82.39.53,1.4-.44,1.72-.81.54-1.07,2.69-2.17,1.42-.74-.35-1.07-1.53-1.3-2.24a6.35,6.35,0,0,1,.89-2.48C49.83,83.81,52.16,84.08,52.1,84.87Zm-3.54,2.88c.16,1.45-.57,4.48-2,4.85-.54-.37-1.26.55-1.66-.21s-1.48-1.28-1.67-2.06c0-.8-.9-1.37-1-2.16-1.11-1.72.56-3.77,2.29-2.26A1.17,1.17,0,0,0,46,86.2c.42.23.76,0,1.12-.13C48,85.46,48.14,87.24,48.56,87.75Zm-7.85.77c-.05-3.4.83-.29,1.44.75a3.65,3.65,0,0,1,.36,3.23,2.29,2.29,0,0,0-1.43-.77C40.26,90.89,41.09,89.54,40.71,88.52Zm-2.78,3.81c-.5-1,.3-2,.14-3,.41-.44,1.31.14,1.89,0,.87,1,.2,3.28-.42,4.5-.52.22-1.46-.36-1.28-1.06A3.07,3.07,0,0,1,37.93,92.33ZM35.5,85.12c-1-.8-1.86-2.37-1.33-3.51,1.28.35,2.71,1.29,2.75,2.73.52,1.23,2.83-.69,3,1.21.42,2.69,1.14,4-2.2,3.08C35.81,89,36.07,86.16,35.5,85.12Zm1.72-1.75c.39-.38,1-.13,1.39-.44s.28.91.46,1.26C38.06,84.55,37.37,84.47,37.22,83.37Zm1.22-5c-1,1.19,1.43,1.67.5,2.55-.51,4.09-3.36.05-5.28.05-.24-.51.05-1,.64-.82,1.83.29,2.92-1.7,4.43-2.27C38.75,78.11,38.5,78.24,38.44,78.41Zm-5.09-9a9.08,9.08,0,0,1,.11.92c-.75-.15-1.3.36-1.91.57-.85-.17-1.69-.16-2.55-.41a7.31,7.31,0,0,1,4.25-1.81C33.57,68.5,33.12,69.2,33.35,69.4Zm-1.12,1.65c.44-.37,1.65-.64,1.72.18,0,.46-.21.93.26,1.29.36.59,1.4.75,1.47,1.47A3.84,3.84,0,0,0,36,75.73c-.13.79-1-.51-1.53-.21-.48-.22-.45-1.15-.61-1.56-.1-.84-1.28-.39-1.38-1C32.53,72.3,32,71.61,32.23,71.05Zm1.68,5.08a.53.53,0,0,1,.49-.31v0c.92.82,2.65.46,2.72,2,0,1-1.93,2.51-2.72,2a.93.93,0,0,1-.64-.06c-.58.56-1-.89-1-1.36C32.24,77.55,33.08,76.3,33.91,76.13Zm4.77.79c-.4.53-1.06,1.82-1.09.4-.06-.87-1.05-1.12-1.24-1.86.53-2.51-2-2.22-1.92-4.23,0-.22.17-.36.3-.23a6.18,6.18,0,0,1,2,1.33A4.14,4.14,0,0,1,38,74.67,2.8,2.8,0,0,1,38.68,76.92ZM36.9,71.63c-1.12-.55-1.23-1.65-1.52-2.78-.43-.45.14-1.93.7-1.77.32.17.59-.12.88,0,1.69-.86,1.88,1.57,2.27,3,.17.62-.91.42-.79,1.16C38.34,71.72,37.13,72.11,36.9,71.63Zm-1.57-1c-.18.25-.65-.31-.93-.27a1.43,1.43,0,0,1-.52-1.65C35.35,68.34,34.77,69.84,35.33,70.61ZM33.74,68.3c-1.29-.7-2.76,1.47-3.7.43-.16-.85,1.33-1.21,1.44-2.07.35-.6,2.59-1.23,2.57,0C33.86,67.22,34.68,68.34,33.74,68.3Zm-5.46,2.51c.89,0,1.89.67,2.82.38.53.23.82,1.27.85,1.94,0,.32.22.48.61.54,1.12,0,.8,1.06,1.16,1.82,0,.13.1.21-.11.3-.67.14-.85,1-1.38,1.22-.91-.11-2.09.07-2.5-1.06-.14-.45-.73-.46-1.12-.5-1.42-.41-1.36-2.19-1.82-3.33C27,71.53,27.8,71.13,28.28,70.81Zm.24,5.2c.55-.47,1.21,1,1.75,1.29s.3,1.82-.37,2c-.88.16-1.26-1.07-2-1.38C27,77.18,28.4,76.71,28.52,76Zm-.07,3c1.39,1,1.33,1.75-.1,2.66-.49-.29-1.09.5-1.38-.27s-1.15-1.31-1-2.1c0-.55.55-.69.8-1.14C27.25,77.6,28,78.68,28.45,79Zm3.11,9.31a10.88,10.88,0,0,1,2.48-3c.29-.28-.35-.66-.18-1.07s.3.23.39.34c.45.62,1.17.94,1,1.81.07,3.09,2.66,2.32,2.36,3.54-.34.6-.68,1.8-.06,2.24.43.35,0,1.11.44,1.56a7.11,7.11,0,0,1-1,1c-.54-1.26-1.77-1.46-2.59-2.37-.34-.51-.3-1.23-1-1.35A2.16,2.16,0,0,1,31.56,88.33Zm13.63,18.5c.06-2.1,1.52-1.3,1.57-2.5-.69-1,.71-1.11,1.39-1.49.18-.07.11.14.19.18.95,1.58.64,2.39-.06,4C47.15,109.73,45.87,109.37,45.19,106.83Zm11-10.1c-1.28.14-3.39-.49-2.38-2.14.21-1.1-.15-2.27,1.21-1.13,2.89-.5,1.55.82,2.86,2,.11.25-.79.63-.95,1C56.77,96.73,56.58,96.89,56.22,96.73ZM58,94.94c-.14-.69-1-1.49-.15-2,.36-.73.81-.27,1.41-.44a4.45,4.45,0,0,0,.38,1.92C59.79,95.41,58.33,95.52,58,94.94Zm1.57-2.64c-.43.08-.86-.34-1.31-.37-.36.15-.46.72-.92.86-2,.8-4-.15-2-2.24.65-.68,1.74.37,2.38-.49.69-.39,1.52.22,2.18-.42,1-.56,2.72,1,1.47,1.81C60.84,92,60.15,92,59.53,92.3Zm-7.2-10.71c.06.87.5,1.68.53,2.57-1.18.2-2.34-.87-3.38-1.2-.82,0-.56-1-.9-1.44.21-.62.09-1.48,1-1.64C50.55,80.33,52.16,80.16,52.33,81.59Zm-.78-3c-.11.79-.11,1.75-1.15,1.21-1-.06-1.14-.9-1.44-1.69-.15-.31-.27-.68-.68-.78-.15,0-.55-.3-.23-.37.6.21,1.38-.19,1.73.45a.77.77,0,0,0,.72.42C50.91,77.91,51.66,77.89,51.55,78.55Zm-7.91-.42c1.61-.2,1.29,1.66,2.32,2.35,1.08,1.25,2.24.14,2.61,2.37-.59.35-.57,1.8-.86,2.41-.48,0-.86.36-1.32.49a3.43,3.43,0,0,0-1.26.09c-.69-.75-1.93-.53-2.42-1.46-.12-.76-.74-1.41-.62-2.22.25-1.09-1.27-1.45-.88-2.53,0-.49.52-1.19,0-1.48A4.08,4.08,0,0,1,43.64,78.13Zm-1.08-.53a2.83,2.83,0,0,1-2.88-.87c-.64-.58-.58-1.79-1.33-2.67.86.14,2.48-.55,3.16.08s1.23,1.45,1.06,2.45C42.49,76.89,43.06,77.52,42.56,77.6Zm-1.19-4.67c.12,1.12-1.79.26-2.39.64s-.85-.58-1.26-1c-.08-.09-.42-.37-.11-.38,1.59.19,1.11-2.22,2.62-1.22.43.15.87.74,1.33.46C42.74,71.92,41.34,72.31,41.37,72.93Zm-6.48-8c-.52,1,.81,2.09-.21,3-.17-.7.16-1.46-.33-2.07-.25-.27-.12-.64.27-1C34.75,64.9,35,64.84,34.89,65Zm-.58-1.48c-.23.66-.08,1.85-1,2-.69-.2-1.74.85-2.06-.1-.53-.87-.32-2-1-2.77,0-.63.09-2.39,1.09-1.89a9.42,9.42,0,0,0,2,1.9A1.23,1.23,0,0,1,34.31,63.5Zm-3-4c0,.89-1.06.62-1.19,1.48-.49.29.11,1.23-.61,1.07-.81-.38-1,1-1.74.41-.42-.81-1.6-.11-1.81-1-.6-.92.86-1.07.7-2a4.68,4.68,0,0,1,2.14-2.12c.95-.08,1.56.78,2.5,1.12A3.88,3.88,0,0,1,31.36,59.46Zm-2.64-3.19c-1.52,3.32-2.43.3-1.08-1.68C28.39,54.17,29.61,55.65,28.72,56.27Zm-1.5-2.1c-.34.23-.34,1.26-.86,1.08-.86-.13-1.08.75-1.47,1.32-1.28.18-2.28-2.4-1.23-3.18.33-.46,1.14-1,.83-1.63-.22-.31.08-.74-.08-.88C25.86,49.4,28,53,27.22,54.17Zm-3.29-3.64a2.58,2.58,0,0,0-2.22.91c.13-.92-.29-2.9.84-3.08C23.75,48.62,26.43,49.77,23.93,50.53Zm.61-2.6c-.62,1.55-2.86-.67-3.07-1.61.61.36,1.36-.33,1.84-.08C23.67,46.79,24.73,47.2,24.54,47.93Zm-1-3.52c-.14,1.45-1,1.44-2.15,1.67-1.1-.24-2.67.4-3.5-.54C17.22,42.64,23.11,41.73,23.57,44.41Zm-3.84-1.9c-1.22.57-2.06,1-2.53,2.37-1.2.07-3.66.52-3.34-1.43.13-.4-.47-1.34.17-1.44s1.47-.73,2.07-.11,1.33-.23,1.93-.47c.19-.24.36-.14.5,0C18.72,41.9,20.76,42.28,19.73,42.51Zm.44-4.12A1.28,1.28,0,1,1,18,37.09c.2-1.43,1.44-.36,2.2-.18A12.18,12.18,0,0,0,20.17,38.39Zm-.28-2.08c-.94-.72-2.94.21-1.68-1.55.79-.51,1.36.93,2.21.85C21,35.88,20.24,36.5,19.89,36.31Zm-1.81,3.36c-.06.31-.34.46-.31.76s.21.56-.18.69c-1.52,1.13-1.59-.21-1.52-1.53,0-.17.08-.27.25-.25C17,39.32,18,38.44,18.08,39.67Zm-.67-2.52c-.32.27-.25.53-.16.84.32,1-1.63,1.33-2,.47-1.1-.53-.9-2.19-.61-3.14C15.59,35,18.31,35.8,17.41,37.15Zm-2.72,1.34a2,2,0,0,1,.9,2.33c.09.56-.74.37-1.08.67-1,.43-3.39-.38-3.32-1.67.27-.92,2.13,0,2.75-1C14.17,38.67,14.39,38.17,14.69,38.49Zm-.59-3a7.33,7.33,0,0,0,0,2.47c-.36.27-.41,1-.94.89-2.71,1-3.66-1-1.42-2.76.44-.36.56-1,.85-1.51C13,33.57,14.57,34.75,14.1,35.5Zm-5,7.91c.46-.9,2-1,2.1-1.95,0-.24.08-.25.28-.18,1.25.33,2.35,1.24,1.77,2.54a.16.16,0,0,1-.09.28c-1.13.25-1,2.33-2.14,2.46C10.2,45.72,8.91,44.62,9.09,43.41Zm2.44,5.67c.22-.25.35-.56.68-.34s1.89.1,1.63,1a3.12,3.12,0,0,1-.33,2.19c.29.86.11,1.83.52,2.72-.47-.08-1-.5-1.46-.36-1.31.05-1.31-1.76-2.61-1.83C8.22,51.52,9.93,49.11,11.53,49.08Zm2.16-.37c-2-.12-3-1-1.37-2.71.44-.44.43-1.53,1.16-1.55.71,1.63,2.75.52,3.89,1.11.85,1-.3,2.14-.57,3.1C15.65,48.31,14.77,49.2,13.69,48.71Zm1.46,6.93c1.51-1,5.39-.44,3.74,1.85-1,.41-2-.73-2.94-.2-.85.3-.52-1.2-.82-1.65Zm.18,2.25c.52-.11,1-.49,1.56-.1.74,0,1.43.67,2.16.13q.15-.12.18.09c.19.77-.21,1.38-.39,2.1s-.27,1.48-1.19,1.51l-.09.08C16.23,61,12.12,59,15.33,57.89Zm8.1,10.56a2,2,0,0,0-.13-1c1.31-.3,3-.22,3.48,1.22.1.69,1.34,1.38,1,2-.5.26-.83.65-1.27.93-.54.12-.84.16-.87,1-.73,5.33-1.36,1.48-3.53,1.8,0-1.43.6-3,.68-4.5C23.09,69.37,23.5,69.09,23.43,68.45Zm1.44,7.46a4.69,4.69,0,0,0,1.26-3.65.13.13,0,0,1,.26,0,7.26,7.26,0,0,0,1.39,3.38c.51.6-.7,1-.76,1.63-.27.34-.81.37-.92.89C25,78.38,24.56,76.74,24.87,75.91Zm.92,4.47c.51,1.1,1.67,1.77,1.09,3,0,.37-.07.91-.53.66C24,84.65,24.36,80.19,25.79,80.38Zm1.31,4c.5-.74.21-3,1.73-2.21-.06,1.06.51,1.47,1.22,2.18.5,1.28-.46,2.82.22,4.12.1.21,0,.19-.14.2a2.44,2.44,0,0,0-1.43.24c-.29.17-.31.18-.43-.14a5.66,5.66,0,0,1-1.16-3.06C27.09,85.3,26.55,84.64,27.1,84.39Zm1.69,7.2c.5-1.77-1-2.86,1.81-2.37.36.39,1.25,1.49.62,1.85-1.07.34-.73,1.83-1.2,2.57C29.15,93,28.07,93.07,28.79,91.59ZM30,96.2c.71-.69,0-1.5.42-2.3s.11-2.12,1-2.37c.56-.47.83-.42,1.5-.08.86.16.63,1.16,1.27,1.54,4.05,2.65,1.69,2.44,1.32,5.44-.8.12-1.61.48-2.41.08-.54-.3-.7.43-1.15.4s-.56-.42-.71-.74C30.84,97.68,29.44,97.12,30,96.2Zm2.09,3.68c.19-1.84,2.88-.57,2.8.81a12.06,12.06,0,0,0-.6,3.41c-.5,1-.81-.87-.85-1.31C32.9,101.51,31.74,101.77,32.13,99.88Zm6.68,6.3c-1.38-1.08-3.61-1.33-1.13-2.75.77-.72,1-1.92,1.81-2.56.28-.18.31-.58.67-.29,1.44,1.21,2.35-1.45,3.93-1.18.52,0-.19.65-.15.92-.28.45-1.45.7-1.38,1.55.59,1.43-.66,2.62-1.69,3.35C40,105.27,39.67,106.83,38.81,106.18Zm19.78-5c-.63-.28-2.92-.13-2.3-1.21.69-.37.92-1.73,1.9-1.36C59.44,99.08,60.24,101,58.59,101.2Zm.9-2.29c-.2.31-.48-.36-.7-.45-1.11-.42-2.44-.89-1-2.09.43-.82,1.28-.44,1.89-.74.14-.25.31-.13.46,0,.41.51,1.81.27,1.76.85s-1,.74-1.43.86A14.88,14.88,0,0,0,59.49,98.91Zm1-3.68c-1.76-3.3.1-2,1.62-3.92.44-.74.83.49,1.36.09.35-.22.42-.19.64.1a2,2,0,0,1-.46,1.78c-.12.5-.32,1.33-.77,1.52-.43,0-.35.48-.58.72C61.78,95.91,60.92,95.58,60.45,95.23ZM50,71.36a.8.8,0,0,1,.27.7c-.09.39.49.48.65.81-.31.18-.83,0-.86.46,0,.26-.57.35-.79.15-.62-1-2-1.45-2.64-2.42-.27-.32.29-.73.12-1.14,0-.3-.54-.9-.15-1C48.66,68.18,49,70.18,50,71.36Zm-3.27.55c1.75,1.19,2.33,1.76,2.2,3.89.3.56.33.78-.37.74-.44,0-.88.07-1.06-.42s-.68.13-1.06-.15c-.86,0-1.39-.92-2.19-.87-.41,0-.87.43-1.23.18C39.88,72.91,44.48,69.79,46.77,71.91Zm-2.29-7.26c.06.23.17.45,0,.68a7.48,7.48,0,0,1,.06,1.25c-1.65-.71-2.91-1.88-2.17-3.8,0-.33,0-.34-.37-.37-.71-.25-.75-1.29-.82-1.94h.1c.6,1,2.06,1,2.43,2C43.63,63.61,44.93,63.3,44.48,64.65Zm-6.59-6.39c-.7.5-1.71.08-2.3.63-.5-.74-1.63-1.67-1.77-2.42.57-.1.24.63,1,.18C35.88,56.79,38.41,56.58,37.89,58.26Zm-3,.46c1.12.84.68,2.34,1,3.53,0,.31-.61.12-.87.35A2.32,2.32,0,0,1,33,61.54c-.8-.56-.72-.71-1.21-1.31C31.65,57.83,33.24,55.92,34.93,58.72ZM33,56.83c-.63.13-1.1.84-1.57,1.27-.81-.43-1.31-1.15-2.22-1.26-.16,0-.2-.06-.1-.2.42-.45.3-1.12.72-1.56.71-.15.84,1,1.48,1.18s1.44,0,1.87.49C33.13,56.78,33.06,56.84,33,56.83Zm-2.22-2.72c0-.29.11-.59-.08-.87.61-.51,1.91-.06,2.76-.28C33.07,53.35,31,54.64,30.79,54.11Zm2.44-1.58c-.74.09-3.75.31-2.36-.76,1,.37,2.19.33,3.07.82C33.72,52.67,33.47,52.55,33.23,52.53Zm-2.91-1.05c-.55.82-.63-1.22-.86-1.54C30.32,49.15,30.84,50.77,30.32,51.48ZM21.5,38.6c-1.06-.13-.63-1.05-1-1.77.58-.19.54-1.09,1.08-1.12C21.25,36.37,22.33,38.68,21.5,38.6Zm-.61-3.28a3,3,0,0,1-1.63-.88c-.18-.17-.34-.32-.62-.18-.6,0-1.14-.77-1.62-1.11-1.08-1.12.95-2.74,1.69-1.26.13,1.13,1.34,1.7,2.06,2.36a2.23,2.23,0,0,0,.84.93C21.34,35.26,21.09,35.13,20.89,35.32Zm-4.22-3.9c-1.78,1.43,1.18,2.34,1,3.35-.28.76-.49.34-1.08.27-1.54.09-2.54-1.19-4-1.44s.92-2.53-.76-4.78c.46-1,2.51-.17,3.3.29s.66,1.52,1.5,1.92A.24.24,0,0,1,16.67,31.42Zm-3.55-3.78c-.56.45-3.25,1.31-3.47.36s-1.85-5.53.28-4.35c.7,0,.87-1.07,1.08-1.57.73-.87,1.81,1,2.78.36,1.57-.19.14,2.51.56,3.36C15.08,26.66,13.3,26.83,13.12,27.64Zm.7-5.62c-.73.17-1.3-.34-2-.47-1-.07-.73-1.25-.43-1.77a6.8,6.8,0,0,0,3.95.43C16.29,20.42,14.59,22.23,13.82,22Zm2.26,1.25c-.7,0-1.76-.91-.74-1.34s.59-1.68,1.35-2.29c2.65,1.5,1.82,1.89,0,3.73ZM15,13.8c-.73-.15-1.9.39-2.51-.09-.34-.66-.75-.89.19-1.15.82.23,1.56-.28,2.34.29C15.38,13,15.51,13.77,15,13.8Zm1.67-7.65C15.87,5.92,15,4.77,15.57,4c.74-.26,1.58-.92,2.39-.57.51.15,0,.49.19.85C18.57,5.15,17.14,5.5,16.66,6.15ZM17.86,3a1.87,1.87,0,0,0-1.44.29c-2.75-.26-.24-2.58,1.49-2,1.12.53,2.7-.22,3.22,1.23C20.63,4.06,19,3.45,17.86,3ZM12,4.79c1.21.89,2.66-1.2,3.29.51.33,2-1.95,1.21-3.11,1.14-.34,0-1.2-.54-1-1S11.44,4.5,12,4.79Zm-.4-2.32c-.65.79-.17,1.14-.19,1.83-.23.35-.27,1-.81,1-.17,0-.24.09-.25.27-.45.57-1.6-.41-2.27-.46-.81-.45.15-1.55.19-2.27C8.66,1.84,11.18,2.2,11.58,2.47ZM7.76,5.6c.62-.58,1.91,1,2.81.46.62-.15.84.92,1.54.76a3.87,3.87,0,0,1,1.75.4C13.13,8.76,11.47,8.51,10,8.54c-.66-.12-1.4-.77-2-.19C8.15,7.57,6.76,7,7,6.25,7.28,6.06,7.67,6,7.76,5.6ZM7,5.86c-.81.4-3.17.84-3.46-.29,0-1.78,2.17-1.24,3.39-1.33C7.58,4.27,7.7,5.75,7,5.86ZM4,6.73a4.14,4.14,0,0,1,2.51,0c0,.48,1.16,1,.71,1.37-.83.4-1.19,1.17-2.07,1.47-.51.43-.89-.23-1.45-.22C3,8.8,3.68,7.4,4,6.73Zm.39,4.55a3.85,3.85,0,0,0,.37-.73c1.39,1,1.78,1.53,1.26,3.36-.31.59-1,.32-1.59.37C3.38,13.65,4.48,12.23,4.41,11.28ZM4,15.46c0-.84.92-.77,1.57-.89.73.13.61,1.44,1.4,1.72s0,1,.27,1.52S7,19.14,6.8,19.73c0,.61-.58.35-1,.28-.83-.21-1.4.32-2.13.66C1.94,19.25,3.88,17.19,4,15.46Zm-.83,12c.4-.6,1.22-.74,1.52-1.49.15-.5,1-1.34,1.46-.62.74.68,0,1.37.36,2.17-.08.46.64,1.19.31,1.47-.51.09-.49.68-1,.75-.29,0-.49-.21-.69,0-.49-.1-1,.27-1.49,0C2.2,29.81,1.69,27.77,3.19,27.49Zm.07,2.71c1.46.26,3.19-1,2.85,1.35-.19.94,1.26,1.34.87,2.48.81.57,2.36,1.06,1.15,2.17-.67.2-.4,1.56-1,1.37-.56-.44-1-1.82-1.86-1.12-1.1,1.15-.73.28-1.79-.27C2.77,35,1.89,31.14,3.26,30.2ZM3,36.59c1.27-.12,1.22,2.09,1.72,3A3.62,3.62,0,0,0,4.7,41C3.15,40.53,2.52,38,3,36.59ZM8,51.4c.77.09,1.07.83,1.58,1.22,1.18.28,1.55,1.33,2.45,2a4.46,4.46,0,0,1,2.68,1c0,.51.47,1.79.17,2-.81.26-1.4,1.2-2.28.86a2.36,2.36,0,0,1-1.39-1c-.71-.64-2-.12-2.56-.69-1.29-1.58-1.51-3.77-2.36-5.6A11.58,11.58,0,0,1,8,51.4Zm1.17,8.5c.5.21,1.08,1.85.24,1.48S7.42,58.5,9.14,59.9ZM19.21,72.38a.92.92,0,0,0-.16-.31c-.63-1.81.71-3.62-.19-5.34.64-1.25,1.67-.5,2.31.31.67.33,1.81-.08,1.75,1.06,0,.37.06.94-.39,1.08-.29.14-.3.19-.25.57.16.91-.33,1.62-.47,2.43.17,1.38-.52,2.79-2.1,2.19A7.65,7.65,0,0,0,19.21,72.38Zm.43,4.91a15.9,15.9,0,0,0,.06-2.39c3-.27,4.5-.68,4.81,2.88a1,1,0,0,0,.67.66c1,.39-.11,1.76-.56,2.22-.35.73.15,2-.95.75-.66-.43-1.61-.21-2.26-.76C20.57,80.29,19.61,78.26,19.64,77.29Zm10.68,30.37c-.46-1.28,2.87.28,1.68.82s-.36,1.54-.45,2.53c-.59.94-1.4,2.39-2.39.95-.63-.53.49-.77.34-1.38C29.31,109.46,30.32,108.69,30.32,107.66ZM32,121.42c.35-.62.11-1.45.36-2.14s2-.72,2.25.09c.14.61.79.72,1.1,1.2s.23.42.57.11c1,.7,3,3,.36,2.9a1,1,0,0,0-1,.68c-.07.19-.14.44-.42.19C34.09,124.43,31.7,122.45,32,121.42Zm10.14-3.8a6.87,6.87,0,0,0-2.26-.24c-.13-.42.49-.8.41-1.25a1.79,1.79,0,0,1,1.32-2.1c.94.54.65,1.56,2.19,1.53.94.48.29,1,.13,1.72S42.62,117.76,42.1,117.62Zm5.11-1.76a4.63,4.63,0,0,1-.83-3.18c-1.24-2.46.48-2.28,1.51-.46.34.28-.49.43-.11.85a2.62,2.62,0,0,1,0,3.53C47.55,116.32,47.41,116.07,47.21,115.86Zm.7,1.58c.57-1.06.66-2.35,2.23-1.41,1.2.76,2.16.15,1.8,2.24-.21.32-.86.19-1.22.23-.8-.07-1,.7-1.32,1.25,0,.1-.14.14-.2,0C48.81,118.88,47.64,118.58,47.91,117.44ZM53,120.56c-.64.14-1.11,1-1.76,1.09-.87-1.12-2.31-.88-.91-2.5,1.21-.41,2.51.18,2.2-1.93,0-.16,0-.23.22-.25.6-.14,1-.69,1.6-.74,1.64-.79,1.54.72,1.5,1.89C55.75,119.85,54.55,120.42,53,120.56Zm1.1-4.81c-.76,0-1.16,1.32-1.9.68-.38-.3-1.23-.54-.64-1.1.67-1,1.56-2.5,1.15-3.66-1.09-1.72,2.36-1,2.31-2.39.53-1.55,2.41,1.56,2.26,2.22-.53,1.32-.58,2.94-1.36,4C55.24,115.2,54.68,115.71,54.07,115.75Zm-15.15-64c-.18.25-.51.42-.48.8-.63,1.59-1.94-1.46-2.1-2.13.89.23,1.71.72,2.58,1C38.79,51.49,39,51.61,38.92,51.72Zm-2.57.67c.1-.06.38,0,.42.14.14.56.6.65,1.06.77.82.69-.64,2.19-1.3,2.65-1,.72-2.24-.07-3.29,0-.68.63-3.42-.71-1.91-1.35a6.06,6.06,0,0,0,2.73-1.49C34.6,52.6,35.69,53,36.35,52.39Zm-17-22.64c.85.63.66,2,.43,2.91-.64-.13-.79-1.44-1.53-1.77-1.32.29-1.86-.5-2.39-1.65-.13-.82.87-2.3,1.87-2.15A18,18,0,0,0,19.36,29.75ZM18.79,25a8.8,8.8,0,0,1-.09,3c-.21-.83-.77-1.67-.9-2.48C17.83,25.16,19.31,24.44,18.79,25Zm.05-2.19a6.78,6.78,0,0,0-.11,1.26c-.31.58-1.62.79-1.43,1.64.07.24.56,1,.1,1-1.23-.08-1.43,1.13-2.1,1.87-3.38-.46-.51-1.63.63-2.83.43-.41,1-.68.81-1.37a.57.57,0,0,1,.35-.67C17.51,23.45,18.64,21.53,18.84,22.82Zm-.38-7c-.45.18-.43.8-.75,1-.43-.09-.62.35-1,.44-.8,1.1-1.43-.56-2.29-.47.2,0,0-.31.21-.36s.21-.18.31-.28c.38-.4.21-1.14.62-1.52.44-.11,1.13-.88,1.44-.26C17.78,14.42,18.62,14.89,18.46,15.81Zm-.38-2.72c-.28.18.14,1.33-.28,1-1.72-.44,0-3.33.13-4.56C19.42,8.31,19.25,12.69,18.08,13.09Zm.85-8c-.47-.71-.59-1.37.44-1.18.87,0,2.3.63,2.05,1.6A2.15,2.15,0,0,1,18.93,5Zm2-1.18c.11-.55.77-2,1.58-1.25,1,.31,2-.77,3.07.1,1,.52-.4,1.55-1.07,1.17a.74.74,0,0,0-.9.22A2,2,0,0,1,20.92,3.86Zm4.23-1.95c.66-.78,2.45.54,1,.71C26,2.37,24.87,2.24,25.15,1.91Zm4.2,2.14c-.88-.47-1.78-.21-2.71-.4C26.72,1.59,29,2,30.36,3,31,3.07,29.52,4.08,29.35,4.05ZM22.48,123.4c-.86-.33-.76.88-1.54.71-.7,0-1.4-1.13-1-1.63s.43-.08.82,0c.06-.25.25-.23.4-.18S23.53,123.32,22.48,123.4Zm.34-.86a.86.86,0,0,1,0,.16c-.59-.12-.91-.78-1.59-.76-.25,0-.4-.35-.23-.56.28-.84.72-1.61,1.61-1.74.57,0,1-1.42,1.54-1.49s.49-.56.65-.88c.24-.63-.65-.91-.4-1.5.19-.33.13-.94.59-1,.49-.66-.09-1.7-.18-2.46-.4-1.53,2.74-1.6,2.12-3.33-.16-.32.47-.39.13-.76a21.8,21.8,0,0,1-.57-2.36c0-.59.79-1.35.46-1.84-.7-.8-1.43-1.64-2.09-2.42-.15-.95,1.11-1.63.66-2.46.32-.55.46-1-.06-1.5-.83-.69-.84-1.88-1.53-2.66-.37-.6-1.17-.5-1.63-.89-.4-1.47,1.34-1.82.05-3.73-.87-1.15-.64-2.71-1.6-3.75a8.13,8.13,0,0,1-2.27-3.68c0-.65.25-1.35-.15-2s0-1.31-.89-1.47c-.61-.18-.55-1-.84-1.51A14,14,0,0,1,15.3,75.2c-.37-1.55-2.11-1.6-3-2.53a34.56,34.56,0,0,1-1.08-5.28C11,66.27,9.28,66.23,9.09,65c-.05-1-1.24-1.22-1.44-2.13a9,9,0,0,1-1.24-4,7.51,7.51,0,0,0,0-4,7.2,7.2,0,0,0-1.62-3.15C4.18,50.47,4,49,3.08,47.86c.49-2.63-1.73-4.5-1.93-7.08A6.43,6.43,0,0,0,1.24,36c-.13-1.11.45-2.11.21-3.54A12.94,12.94,0,0,1,.39,28,26.12,26.12,0,0,0,1,24.44c.49-2.63.18-5.23.59-7.89a7.94,7.94,0,0,0,.87-3.89c-.29-1.32-.17-2.65-.36-3.94-.12-1-.84-2.06-.32-3C2.1,5,3,4.34,2.78,3.6c0-.24.24-.48.49-.52C4.33,2.61,6,3.15,6.7,2.26a.59.59,0,0,1,.5-.42c1.71,0,3.33-.9,5-.78.6.28,1.13-.09,1.66-.27,1.7-.71,3.58-.19,5.34,0A4,4,0,0,1,21.85,1C23,1.42,24.19.41,25.31.91c.08,0,.21.1.25.07.46-.33.69.36,1.17.14,1.84.49,3.94-.76,5.71,0,.54.09.63.36.47.85.21.21,0,.39-.07.52-.92.74-1.56,2.74-2.82,2.68-.66-.93.92-1.27,1-2.07,0-1-1.59-.46-2-1.28-.67-.55-1.65.33-2.36-.26a1.42,1.42,0,0,0-1.2-.35A4.69,4.69,0,0,1,21.8,2c-.41,0-.48,0-.66-.33-.37-.75-1.27-.33-1.91-.44C17.71.84,16.13.47,15,1.83c-1.06.39-2.34-1-3.36-.07C8.8,2.39,8.73.62,7.21,3.85c-1-.42-2.11.39-3.06-.08-.12-.11-.26.06-.35.17-.38.46-.82.83-.55,1.46-.24.37,0,.59.22.84.25.68-.77,1.9-.5,2.9-.06.72,1,.31,1.22.88a9.16,9.16,0,0,1-.63,3.09,6.19,6.19,0,0,1-.63,4.33c-.75,1.86.22,2.9-.06,4.74s.38,3.95-.64,5.39c-1.32.94.48,1.86.43,2.67-.92,1.58-.36,3.74,0,5.47.06.68-.49,1.25-.26,1.94a25.56,25.56,0,0,1,1,5.94c.61,2.28,2.3,4.39,1.71,6.91,1,1,1.19,2.41,1.72,3.73.47,1.6,1.78,2.84,1.62,4.63,0,.6-.53.06-.82.19-.77.67,1.11,2.67,2,3,1,.75,0,4,1.87,2.84,1.54,3.2.38,4.7,3.61,7.15.15.16.38.41.24.67-.33.54.22.82.42,1.23.59,1-.34,1.11,1,1.6a7.24,7.24,0,0,1,3,4.08c.2.19.62.54.58.82s0,.21.07.31c.58.5.53,1.12.72,1.82.28,1.17,1.78,2.34,1.92,3.37-.18.2,0,.3.1.41.28.22.66.22.4.66s-.21,1.73.6,1.59a.77.77,0,0,1,.77.31c.54.56,0,1.61,1,1.89,1.2.46,1.18,1.85,1.34,2.89,0,.35.34.5.54.73.48.47.15,1.32.78,1.73.21.2.79.22.55.66-.09.13,0,.39,0,.59.35.8-.55,1.16-.32,2,.61,1.85.95,3.78-.26,5.34a3.18,3.18,0,0,1,1.22,3.17c.1.53-.71.5-.5,1a3,3,0,0,0-.28,1.55c-.06.85-1,.43-1.35.73a2.05,2.05,0,0,0-.51,2.51c-.2.71,1.23,1.48.4,2.15-.72.44.26,1.19-.26,1.79-.18.6.08,1.63-.48,2-.12,0-.23.16-.37,0-.38-.33-.9.21-1.25.12s-.42,0-.59.17c-.19.38-.71.22-.84.68s0,1.32-.71,1.46C22.83,122.12,22.74,122.27,22.82,122.54Zm.42.79c0-.23,0-.47,0-.7,1.09-.52.75-1.7,1.68-2.19.36-.11.14.93-.07,1C23.93,121.77,24,123,23.24,123.33Zm8.46,3c-1,0-2.21,0-2.94-.82s-2.5-.76-3.38-1.38c-.46-.6-2.5.5-1.53-.75.52-.44.48-1.33,1.17-1.48.4,0,.4-.52.47-.83.29-.31-.28-.95.3-1s1,.2,1.34-.13c.65-.32,1.11.68,1.65,1,.52.44.11,1.18.48,1.7-.27.83.71,1.41.95,2.16C30.54,125.39,32.45,125.51,31.7,126.36Zm.14-1.11C30.31,124.8,28,121,31,121.66c.52.5,2.18,2,1.86,2.66C32.36,124.42,32.24,125.36,31.84,125.25Zm3.88,1c-1,1.43-2.18-.8-3.3-.24-.64-.61,1-1.79,1.6-1.54.35.27,1,.19,1.17.59C35.15,125.54,36,126,35.72,126.26Zm4-2c-.34.61,0,2-1,2.11s-3.75-.58-3-1.75c.49-1.1,1.76-.26,2.46-1.09C38.65,123.23,39.88,123.79,39.75,124.25Zm.23-.91a1.12,1.12,0,0,1-1.11-.42c0-.1-.06-.33-.27-.13-.51-.37-.78-1.25-1.4-1.65-2.17-1.69-.2-2.16,1.52-2.66.85-.14,0,2,1.37,1.76.86.11.58,1.2,1.18,1.63C42.36,123.06,40.92,123.15,40,123.34Zm3.82,2.11c-.76-.39-1.59.43-2.21.09-.34-.61-1.41-.89-1.32-1.63.28-.43,1.13-.48,1.65-.36.23,0,.38-.4.64-.16C43.88,123.71,45,123.91,43.8,125.45Zm2.44,0c-2.45,1.12-2.46-1.11.12-.17A1.77,1.77,0,0,1,46.24,125.5Zm0-1.62c-.32,0-.07.42-.09.62-.07.7-1.49.09-1.35-.5-.05-.92.86-1.76.78-2.59.32-.07.76.29,1.06-.07s1.17-.12,1,.4c-.09.19.07.52.11.79C47.91,123.41,47,123.8,46.28,123.88Zm1.82,1.86c-1.62-.16-1.56-1.84,0-2.08.55-.47,0-1.63.14-2.33-.51-.87-1.76-.19-2.3-1-.72-1.46-2.18.46-2.82-.74-1-2.28.86-.18,1.73-2.85.26-.33,1,.12,1,.55.18,1.23,1.82,1.15,2.56,2,1.13,1.41.36,3.51.93,5.12.28.66-.61.87-.92,1.33C48.3,125.73,48.24,125.87,48.1,125.74Zm4.1,1.94a.21.21,0,0,0,0,.06c-.23-.73-.82-.35-1.32-.44-.56-.56-1.14.3-1.7-.18-.9-.46-.25-1.69.52-1.71a8.55,8.55,0,0,0,2.92-.39c-.13.6.8,1,.22,1.47A7,7,0,0,1,52.2,127.68ZM71.78,94.8c-.8.27.45,1-.3,1.44-.87.72.23,1.69-.39,2.41-.24.55.47,1.29.16,1.83-.61.48.08,1.38-.73,1.71-.43.24-.36.89-.69,1.23-.48.33-.47.9-.87,1.27-.74.49-.19,1.5-.85,2-1.63,2.72-1.16,2.49-2.8,4.9-.44,2-1,4.61-3.11,5.41-1.2.41-1.51,1.69-2.48,2.38s-2,.85-2.85,1.53a.73.73,0,0,0-.26.7c.12.68-.92.2-1,.82-.15.45,0,1-.4,1.32-.11.1-.13.13,0,.24,1.1.54-1.75,3.94-2.51,4-.1-.77,1.29-1.58.69-2.26-.88-1.12.46-2.55.27-3.73-.69-1.71,1.92-1,2.28-2.31.27-1.79,1.34-1.84,2.85-2.1,2.4-.9-.92-3.17,3.81-4,1.15-.59.44-1.68.89-2.53a17.17,17.17,0,0,1,1.86-3,5.46,5.46,0,0,0,1.3-3.5c.36-1.46,1.73-2.18,2.39-3.44a1.39,1.39,0,0,0-.25-1.5c-.52-.52-.52-.54-.1-1.22s.61-1.62,1-2.47A14.16,14.16,0,0,0,69.14,90c-.09-1.93-.55-4.29-2.22-5.49-.9-.28-.34-1.23-.11-1.81A4.36,4.36,0,0,0,66,79.52c-.84-1-2.35-1.58-2.83-2.8C62.8,75.49,62,74.46,62,73.13c-.12-.44-.63-.55-.67-1-.53-1.4-2-1-3.16-1-.16-.17.18-.29-.25-.42a3.56,3.56,0,0,1-2.42-2.73c-.06-.4-.08-.47-.48-.52-1-.21-1.22-1.5-2.3-1.68-1.25-.46-.32-2.6-1.7-3.05-.58,0-1-.42-1.56-.61-.62-.43-.53-1.79-1.47-1.84-.91-.22-1.36-1.62-2.49-1-.88.11-1.5-1.31-1.34-2.14,0-1.54-3-.44-2.74-2.13,1-1.46-1.68-.79-1.79-1.86a3.67,3.67,0,0,1-.29-1.65s0-.13,0-.13c-.27-.05-.21-.51-.58-.44-.07,0-.16,0-.24-.1-.6-.6-2.25-.36-2.25-1.33A1.42,1.42,0,0,0,36,48c-2.66-.66-1.15-1.72-2.79-2.65-.88-.27-.89-1.58-.57-2.26.15-.16.17-.28-.06-.47a9.56,9.56,0,0,1-3-2.54c-.44,0-.92-.15-1.29.25-.13.15-.24.15-.43,0-.61-.57-1.86-.64-1.94-1.63.06-.82-.79-1.15-1.12-1.83-.27-.3-.51-.89-1-.49a9.12,9.12,0,0,0-.35-2.9,5.5,5.5,0,0,0,.43-3.38c-.2-.55-1.11-.54-1.24-1.17.38-1.47-1-2.14-1.63-3.21-.08-.2-.21-.3-.38-.17-.67.09-1.32-.85-1.44-1.47a6.91,6.91,0,0,0-.17-2.54c-.3-.3-.28-.49,0-.81,1.59-.79.81-1.2.89-2.6.52-.9,0-1.58-.73-2.08-.46-.37-.16-1.13-.58-1.45a.45.45,0,0,1-.29-.53c-.21-.9.87-1.19.88-2.07s.5-2.38-.44-3c-.4-.14-.75-.75-.31-1.07s1.07-.91,1.05-1.6a.92.92,0,0,1,1.7.24c.18.41,1.2.48.58,1.12-.31.41-1,.32-.9,1-.81,2.13,2.68,2.89,2,5.25,0,.34-.49.74-.19,1a.94.94,0,0,1,.15,1.27c-.43.61-.06,1.08,0,1.7,1,2,2.95.06,2.61,4.31-.33,1.31,1.52,1.62,1.25,2.93-.06,1.57,1.05,2.39,2,3.42a1.28,1.28,0,0,1,.48,1.59C28.17,32.73,31.81,33.9,32,36c-.86,2.32,1.86,3.73,2.26,5.85,1,.56,1.45,2,2.71,2.54.59.24,1.86.54,1.54,1.42-.11.56.68.9,1,1.3.72.58.54,2,1.65,2.06.36.22.94-.25,1.13.08s.65.55,1,.7c2,.47,1.49,2,1.94,3.43.19.37.46,0,.78.11,1.92.33,2.3,2.27,3.67,3.25.67.33-.13,1.17.69,1.44,1.45,1.54,5,1.93,5,4.42.5.87,1.29,1.73,1.92,2.61,1.26,1.11,3.11.85,4,2.62.48,1.8,1.93,3.06,3.14,4.46a3.74,3.74,0,0,1,1.42,2.36,44.28,44.28,0,0,0,2.79,4.2,1.48,1.48,0,0,1,0,1.63c-.28.1-.25.33-.18.52a3.08,3.08,0,0,1,.28,1.09c.51.81,1.6,1.22,2.13,2.09.27.76.32,1.64.55,2.47.25.64-.59,1-.4,1.49a.69.69,0,0,1,.06.88c-.49.77.43,1.22.68,1.89.22.4.23.42,0,.78C71.4,92.66,72.69,94.05,71.78,94.8Z"/></g></g></svg>