<svg xmlns="http://www.w3.org/2000/svg" viewBox="0 0 89.43 98.08"><defs><style>.cls-1{fill:#c894ff;}.cls-2{fill:#854bb7;}.cls-3{fill:#491d66;}.cls-4{fill:#ffdeaa;}.cls-5{opacity:0.5;}.cls-6{opacity:0.25;}</style></defs><g id="Layer_2" data-name="Layer 2"><g id="geode-medium-7"><path id="fill4" class="cls-1" d="M87.16,39.88c.42-.26.07-1.14.88-1.1.76-1,.32-2.52,0-3.62-.66-1.68,3.15-3.27.33-4.52-.66-1.85-.36-5,0-7.25.45-.93,1.49-2.37,0-2.72-1.1-.28.36-1.48,0-2.33-.14-2.43-.94-4.84-1-7.34-.71-1.48,1.41-2,1.13-3.39-1-1.91.16-7.5-1.71-7.61-1,.41-.85,2-1.48,2.77-.68,1.25.9,2.41.46,3.81,0,.45-.07.68-.6.71-1.57.53,0,3.78.23,5.08.62.89-.38,1.37-.45,2.19a.73.73,0,0,1-.57.9c-.73.89-1.47,2.49-.79,3.6s-.38,2.58-.75,3.68a26.61,26.61,0,0,1,.16,3c0,.64-1.94.2-1.64,1.7.3.7-.7,1.24-.31,1.69.43.2.93,1.69,1.56,1.21,1.37.74-2.79,2.88-2.38,4.45.18,2.43-1.89,3.64-3.58,5.07-.42.28.19.49.43.6,1.41,1.76-.28,1.31-1.13,2.23-.89.59-2.15-.56-2.74.86-.15.25-.32.21-.43.16-.66-.17-2.21-1.82-2.36-.4.07.79,0,2.23-1.07,1.73a.36.36,0,0,0-.61,0c-.71.49-1.63-.6-2.5,0-.58.16-1.4.07-1.38-.79-.25-.95,1-.37.66-.94-1.17-2.56-1.54-5.49-2.94-8-.44-1.67.46-3.25.13-5s-.14-3.26-.43-4.92c-.7-1.52,1.68-2.78.46-4.11-.61-.7-.24-1.61-.17-2.42.24-1.6-1.66-2.58-1.34-4.07a2.44,2.44,0,0,0,.17-2.22c-.68-1.33,1.75-1.35.68-2.5-1.8-1.8-1.52-4.89-2-7.17.36-.6-.74-1-.76-.17C59.23,4.1,58,5,57.63,6.34c-.76,1,0,2.68-.49,3.89.06.75-.62.95-.86,1.46s-.28,1.3-1,1.37c-.52.56-.14,1.42.14,2.1.9,1.63-1.73,3.08-2.26,4.5-.75.47-1.79,2.78-.69,3.13.81,0,1.12,1.23.86,1.79-3.63-.33-1.22,2.33-3.24,3.61-.82.3.17,1.13-.54,1.51-.6.58-.14,1.11-.09,1.73-.72.93-1.67,1-2,2.16-.77.46,0,1.26-.36,1.82-.92.69-2.08,1.3-1.48,2.57,0,.76,2.5,1.73,1,2.27-.41,0-.68.09-.65.58-.19.52-.81.8-.82,1.44-1,1.82-2.94-.66-4.45-.55-.91-.11-1.28-1.22-2.18-.92-.65.19-1.15-.34-1.57.42-.87,1.29-2,2.38-3.48,1.29-1-.25-3.06-.8-3.33.36,0,1.12-2.47.72-2.63-.12-.07-.65-.79-.49-1.27-.53a1.7,1.7,0,0,1-1.67-1.14c-.07-.21-.18-.46-.51-.22-1.16,0-1.73-1.92-2.7-2.57-1.2-.93-.22-2.64-1.44-3.57-1.15-.58-.78,1.91-1,2.63,0,.71.06.71-.61,1s-.67,1-.71,1.58c.15,1-.63,1.65-1.36,2.1-.48-.27-1.28-.5-1.62.33,0,2.66-1.95,1.68-2.41,3.38-.08.81-.3,1.89-1.31,1.9-.33,0-.32.14-.34.39,0,.93-1.23.91-1.63,1.56-.94.49-1,2.08-1.77,2.92-.31.78-1.44.35-1.64,1.22-.44,1.13,1.6,1.25,1.14,2.06-.81,1.66.42,3.37-.76,5-.28.79-1.53.54-2.27,1a1.92,1.92,0,0,0-.74,2.14,6.91,6.91,0,0,1-1.29,1.82A1.93,1.93,0,0,1,.49,67.4c-.88.48-.3,1.31-.35,2-.53,1.5,2.62,2,3.51,1.65S5.36,70,6.21,70.33c2.3.9,1.49,4.37-.59,4.64-1.56-.65-2.54,2.81-1.81,3.55C7.25,80.8,8,80.55,11.5,80c1.54,1.47,3,3.25,5.26,3.38,2,.24-.48,3.25,1.33,3.27,5.6-.65,2.33,2.56,5.57,2.58,3.67-.11,2.23-.22,1.58,2.05-.48,1.08,5.63,1.87,6.2,1.52,1.23-.68,2.42-1.68,3.9-1.21-2.59,3.92,3.73,2,5.27,3.71.83.4,1.72-1.35,2-.54.92,3,2.61,2.94,5.26,2.17,1.39-.18,2.74-1.85,4.13-1.43,4.13,4.92,3.93-.58,6.57.7,1,2.19,3,1.17,4.26-.13.76-.14,1.17-.39.68-1.19,0-.86,1.72,2,2.1,2.33,1.52,2.06,4-.29,5.92,0,.62.64,1.47-.35,2-.29.58.36,1-.47,1.51-.36.43-.15.86-.37,1.3-.49a4,4,0,0,1,2.53-1.3,1.21,1.21,0,0,0,1.74-.4c-2-.48-.33-1.66.43-2.57a23,23,0,0,0-2.63-4.24c.16-.64,1.58-.87,2.29-.81,1.89.1,1.74-4.44,3.84-5.61,3.57-2.15-5.39-7.09.55-7.77.76-.11,1.09-.75.6-1.36-.64-.79-.28-1.63.1-2.39a.88.88,0,0,0-.15-1.14c-.81-.76-.43-1.8-.74-2.72-.4-1.94,4.1-.76,3.57-4.15-.2-1.13-.16-2.18-1.1-3-.58-.6-.73-1.31,0-1.85.8-.76.34-2,1.11-2.83.74-.59-.07-1.51.3-2.34.62-1.77-.44-3.26-1.13-5C87,46,87.79,44.21,88.74,44c.62-.19.78-.63.32-1A9.28,9.28,0,0,1,87.16,39.88Z"/><path id="fill3" class="cls-2" d="M75.49,82.89a4.42,4.42,0,0,0-3.85,1.24c-.5.19-.52.13-.82-.15-1-1.23-1.6-3-.56-4.35.32-.92,2.56-.26,3.27.17.35.14.43-.48.85-.16a1.71,1.71,0,0,0,.84.31C78.23,79.15,77.73,83.4,75.49,82.89Zm-7.15-2.43c1.5-.61,2.22-2.62.85-3.71-1.81-.61-3.32,2.19-5.06,2.49C65,80.22,67.1,80.45,68.34,80.46ZM72.28,67.6c-.72.83-2,0-1.86,1.58-1.09,4.62,5.83,2.24,7.58.61.16-1.15-.4-3.05-2-2.16C74.88,68,73.31,66.43,72.28,67.6Zm-4.6-6.25a.89.89,0,0,0-.76.85c-.1,1.2-.37,2.41-1.46,3-.51,2.5,6.94-.66,7.46-1.63.3-1.52.25-4.48-1.25-5.29C69.73,58.53,69.61,61,67.68,61.35Zm-4.52,8.11c3.69,3.85,3.73.16,5-2.93-1.26.1-2.34.6-3.64.2a1.18,1.18,0,0,0-2.05.21c-.12.76-.39,1.87,0,2.49C62.73,69,63,69.33,63.16,69.46Zm3.21-11.2c1-.32-.47-1.54,1.34-1.33a.4.4,0,0,0,.34-.71c-1.09,0-2,.83-3.35.55-1.68.38-2.28,1.7-3.67,2.52-.19.08-.06.21,0,.36,1,1.63.44,5.77,2.67,5.91C63.36,61.17,60.22,59.68,66.37,58.26Zm1.29-.35c-.09.28.41,1.1-.4,1C62,59.78,63.4,61,64.57,65.1c1.79-1,.92-3.17,2.36-4.26,2.46-.38,1.53-2.28,3.7-2.93,2.29-1.39-1.79-3.89-1.77-1.7C69.44,57.27,68.38,57.46,67.66,57.91Zm-24.6.5c-.18,0-.19.25-.07.31,4.47,2.36,1.1,3.76,3,5.12,1.88,1.9,3.19,2,4.44-.45-.24-1,.91-.72,1.24-1.4.16-.44-.51-1.11-1-1.13-1.48,0-1.81-1.43-2.62-2.25C46.42,58,44.81,58.52,43.06,58.41Zm8.2,5c-2.71,2.3.8,3.21,2.8,3.8,2-.73,5.42.33,4.47-3a12.41,12.41,0,0,1-.28-2.44c-.84-.9-1.87-.28-2.82.16C54.05,62.83,52.34,61.61,51.26,63.42Zm6.18-26.6c-1.58.69-2.67,2.08-4.44,2.34-1.31.75,1.3,2.44,2.18,2.1.89.08,1.26-1.62,2-2.3.54-.51,1.79.28,1.85-.74.13-2.1.74-4.68-1.69-5.46C56.92,34,58.12,36,57.44,36.82Zm-2.46,6c0-.89-1-.7-1.42-1.33-1-1.18-.72.24-1.13.89-.85.88,1,1.28.59,2.34-.71,1.52,1,1.95,2.17,2.2,1,.14-.22,1.17-.32,1.67-.71.9.79,1.61.11,2.49-.5.73.44,1.17.43,1.88.82-.68,2-.71,2.2-1.89.84-.82-1.17-1.77-.47-2.87.14-.56-.13-1.38.73-1.64.25-.27.2-.64-.2-.61C55.48,47,55.29,44.54,55,42.87Zm-.74,9.3c-.9-.66.71-1.64,0-1.77-2,.6-5.88,2.46-3.24,4.6.81,0,.22,1.15.87,1.12,1.53-.1,4.77.23,5.29-1.46-.11-.49-.52-1.09-.07-1.65,0-.14-.18-.19-.27-.13-.38.54-2.35,1.58-2.32.45C54.8,52.81,54.53,52.52,54.24,52.17Zm-9,3c-2.18-.64-4.81,2.92-1.41,2.62,1.62.67,4.73-1.23,5.47,1.21.28.73.75,1.31,1.59,1.24,1.19-.25,1.39,1.45,2.63,1.32,2,.23,3.12-2.07,4.88-.6a4.71,4.71,0,0,0,1.23-1.81c1.35-.73,3.54-1.56,2.29-3.52-.93-1.25-2.78,2.26-4.25,2-1.74-.21-6.78,3.26-7.39,1.17-.67-3.19.08-2.1-2.68-1.71C46.45,56.66,46.55,54.88,45.2,55.13Zm-.13,10.79c.72-.18.7.2,1.25.39,1.84-.66,4.73,3.72,6.86,1.57-2.26-2.51-9.48-1.46-8.47-6,.45-1.23-1.09-1.77-1.9-2.45-.35-.16-1-.2-.56.33.6,1.34-1,2.51-1.24,3.7C42.21,64.36,43.33,66.13,45.07,65.92ZM34.63,57.76c-1.53,1.52,5.27,4.08,3,.72-.33-1.26-.17-2.66-2.05-2.37C34.38,55.91,35.22,57.16,34.63,57.76ZM34,59.18c-1.31-.6-1.12-.66-.25-1.52,1.28-1.49-.16-3.82-1.53-4.83-.24-.12-.31-.13-.52,0-.66.76-1.84.57-2.26,1.42-.61.67-1.8,1.29-1,2.39.11,2,1.47,3.45,2,5.46.54,1.25,2.1,1.14,3.26,1.14.63-.35.86-1.39,1.67-1.62C36.47,60.82,34.76,59.61,34,59.18Zm.89,4.34c-.11.46-.36.53-1,.44-3.28-.59-2.9,1.23-1.31,3.33.08.36,1.22,1,1.09.31s2.07-1,2.8-1.51c1.35-.41,2.44,2.15,3.55.62a2.3,2.3,0,0,1,1.21-1.43c-.8-1.8-2.69-2.31-2.86-4.59-.84.13-2.36-.51-2,.86C36.29,62.41,35,62.5,34.88,63.52Zm-12,1c-.22,1.33,1.39,1.38,1.52,2.48-.08,2.29,2.76-.13,4.15,1,.94-.08.6-.92,1-1.46,1.11-.64,1-1.63,1-2.73.3-1-1.11-.72-1-1.64,0-.63-1.19-.45-1,.18.13,1-1.14,1.06-1.61,1.72-2.11.46-3.78.18-4.26-2.16C21.59,61.79,23.11,63.91,22.93,64.55Zm-7.55,2c.07.28-.46.93,0,.82.7-.33,1.29.18,1.94-.12.67.07,1.12.73,1.56,1.19,1.13,1.26,3.29.63,4.7,1.83,2-2.55-2.24-7-4.61-4.86C17.93,66.38,16,65.23,15.38,66.56Zm7.64,15c2.69,0,5.26.08,8-.16,1.06.8,2.14-2.5,1.55-2.75-4.58.55-2.8,3.59-8.69,1.42C21.77,79.44,20.34,81.09,23,81.56Zm1.1-4.39c-.59-.19-1.89,1.72-.87,1.7.35,1,1.66.34,2.3.86C30.71,81.51,31,76.18,24.12,77.17Zm9.12-3.09c2.31.82,1.36-4.23-.63-.74C32.19,74,32.77,73.87,33.24,74.08ZM31,73.43c1.25.06,1.36-1.37,2.18-2,.43-.39,1.06-.66.59-1.41a2.88,2.88,0,0,0,.15-1.4c.05-1.13-1.23.19-1.61-.72-2.49-3-1.38-.36-2.81.65-5-.4-6.68,1-2.43,4.74a1.9,1.9,0,0,1,2.56.1C30.05,74.11,30.37,73.53,31,73.43Zm7.67-2.27a9.08,9.08,0,0,1-.9-1.65c-.21-.52-.11-1.36.3-1.58s.41-.27,0-.43c-.87-.87-1.72-.57-2.74-.12-1.24.36-.35,2-.74,3.19.07,1.18,1.28,2.21.76,3.4-.08.91,1.9.44,2.63.82,1.17,0,.42-1.77.52-2.51C38.43,71.88,39.07,71.64,38.65,71.16Zm3.42.47c1.61.5,3.53-1.26,4.19-2.64-.24-.29-.5-.57-.74-.87-1-1.28-3.44-3.58-4.58-1.43-.31,1-.79,1.62-1.95,1.42-1.21.68.2,3.75,1.41,3.37A1.47,1.47,0,0,1,42.07,71.63Zm7.85,2.12c.58-.21,1-.67,1.67-.48.17,0,.33,0,.21-.33-.17-.16-.28.33-.45,0-.6-.73-1.71-.24-2.53-.36-.77.31-.82-1.6-1.56-.56C45.5,74,48.77,73.32,49.92,73.75Zm4.7-1.62a10.64,10.64,0,0,0,3.72.15c.64-.23,1.14.2,1.68-.32,1.9-2.17,2.17-5.51,1.55-8.37a2,2,0,0,1-2,.37c-1-.17.19,2-.49,2.67-2.25,5.82-2.53,0-5.63,4.33a2.64,2.64,0,0,1-2.91-1.06c-1.12-.28-2.54-.11-3.73-.8l-.15,0c.69.29-.14,2,.75,2s1.41,1.09,2.46.7C51.5,71.15,52.9,73.13,54.62,72.13ZM53.3,73.28c-1,2.87,8.77.78,10.59,1.78,1-1.75,1.39-3.42-.6-4.66-2.82-1.28-.93,3.22-4.68,2.55C56.84,73.45,55,72.64,53.3,73.28Zm2.62,2.43c-.67-.76-1.69.1-2.35-.65-3.43.9,4.73,1.35,5.48.67C58.28,74.93,56.85,75.8,55.92,75.71Zm-1.76,2a.9.9,0,0,0,.81.73c2.1-.18,4.21.68,6.13.66.11-.69-1.64-.27-2.2-.57A16.28,16.28,0,0,0,54.16,77.75Zm.5-1a12.75,12.75,0,0,0,7.49,1c1.8,1.52,3.75-.94,5.51-1.59a.43.43,0,0,0,.24-.74c-.13-.73,1.32,0,.13-1.27-.6-1.1.72-1.41,1.45-1.93,1.32-.34-.6-1.92.16-2.91a2.62,2.62,0,0,0-.86-2.9C68.2,68,68.08,71.92,66,72c-.41,0-.36,0-.32.38.36,1.19-1.09,1.93-1,3.17-.08.42-.71.45-1.05.34-.75-.45-1.48-.14-2.25-.14-.64-.4-1.08-.06-1.52.35C58.45,77.35,56.22,76.42,54.66,76.71Zm7.51,7.18c-1.49-.1-4,1.85-2.09,3a9.89,9.89,0,0,0,3.72,0c.87,0,.86,0,.49-.69S63.57,83.5,62.17,83.89Zm-4.32-2c-1,1.08-2.78-1.24-3.37-.12.19,1,2.15.6,2.76,1.51.85.57,1.59,1.33,2.43.29,1.42-.36,4.16.16,4-2-1.35.29-3.37,1.61-4.8.66C58.66,82,58.39,81.5,57.85,81.87Zm4.89-3.05c-1.9.18,0,2.52-3.74.67-1.43,0-3.11-.43-4.63-.4.09,1.83.54.9,1.49,2s2.14-.76,3.06.3c1.16,1,2.85-.25,4.12-.54C63.82,80.54,63.53,78.71,62.74,78.82Zm-12.65.71c.31,1.63,2.51.39,3.51,1.74A17.45,17.45,0,0,1,54,79a1.9,1.9,0,0,1-.53-2c.32,0,.92.25,1-.23A5.27,5.27,0,0,0,53,76.69c-1.62-.15-.74-1.6-.48-2.54-.4-.55-1.83-.07-1.78.81.09,1.18-1.32,1.85-1.23,2.84A2,2,0,0,1,50.09,79.53Zm.8,3.51a18.1,18.1,0,0,1,1.19-1.61c-.33-.78-1.29.22-1.83-.38-.62-.87-1.12,0-1.65.47C48.13,82.39,50.39,82.58,50.89,83Zm-7.39,2.8c1.18-.09,1.48-1.52,2.91-1.47a3.44,3.44,0,0,0,1.05-1.51c-1.88-.53-3.34,1.77-5.27,1-.37-.41-.6.13-.76.47C42.39,84.63,42.7,85.66,43.5,85.84Zm3-13.84c.43-.24-.23-1.45-.74-.89-1,1-2.62,1-3.37,2.15-.41.86,1.7.69,2.32.93C46.11,74.63,45.47,72.48,46.51,72ZM40.7,76.67c.66.75-1,2.26-.88,3.35C40,81.6,42,80.79,43,81.15a1.73,1.73,0,0,0,2,0c1.58-.53.05-2.7,2.57-1.94,1-.62.46-1.94,1.49-2.46,1.77-2.58.67-2.28-1.68-2.7-.35-.08-1-.38-1.07.39-1.09,1-2.62.2-3.87,0,.41,1.26-.8,1.36-1.59,1.75C40.39,76.24,40.6,76.64,40.7,76.67Zm-1.4-3.33c-.22,1.92.16,2.82,2.14,1.73.73-.43-.83-1.26.39-2.24S38.48,71.91,39.3,73.34Zm-1.36,6.78c.12-.08.25-.16.46-.32,2.39-2.16,2.16-5.82-.52-.92A1,1,0,0,0,37.94,80.12Zm0-4.55c-1.83-.83-1.55.51-2,1.49s.67,1.19,1.25,1.23C37.91,78,39.06,76.15,37.94,75.57Zm-14.39.23c.35,1.94,4.12-.35,6.58,2,.27.41.57.79,1.06.4,2-.42,4.07.12,4.25-2.57.23-.31.1-.36-.2-.35-1.54.29-3.23-1.45-4.62-.71-1.42,1.7-1.14-2.54-3.29-.32-1.55.23-2.71-4.46-3.48-.64A2.57,2.57,0,0,1,23.55,75.8Zm23.11,4.37c-.69,3.46-5.91,1.69-7.85.37-2.61,2,2.6,2.23,3.74,2.59,1.34.91,1.94-1,3-.72a6.86,6.86,0,0,1,1.24-.36c.21-.07.76.08.67-.51,1-.76,2.42-1.88,1.63-3.37-.36.7-.24,1.57-1.17,1.88C47.7,80,46.82,79.78,46.66,80.17Zm-13.81.93c-.38.73.47,1.24,1.14,1,1.24-.53,2.07,1.11,3.08,1.06,1.49-.9-.48-2.14-.06-3.56C35.66,77.25,33.24,78.63,32.85,81.1Zm-3,7.67c1.17.13,1.79,1.41,2.91.22.95-1,4.16-.11,3.92-1.76-.39-.71.12-1.37.29-2.1.17-2.27-3.49-2.73-5.09-1.41C30.5,84.49,28.31,87.52,29.87,88.77Zm12.26,1.14c-.15-2.12-3.54-1-1.28.83C41.38,90.63,41.52,89.9,42.13,89.91ZM42,88c.42-.57,1.16-.72,1.57-1.24-.12,0-.1-.29-.36-.14-.49.23-.68-.53-.94-.83-.38-1.11-3.27-.35-2.46,1C40.11,87.59,41.06,88.59,42,88ZM37.8,84.8c-.17.69-.63,1.47-.34,2.19.54.7-.78,1.35.29,1.79.84,0,1.5.46,2.06-.42.09-1.22-2.17-3,.36-3.64.48-.14.49-.57.75-.83-.37-1.14-2.15-.33-2.91-.75C37.45,83.58,37.88,84.2,37.8,84.8Zm-3.41,5.94c1.13,0,2.7.59,2.56-1.28a5.07,5.07,0,0,0-4.82.73c-.83.45-1.4-.29-2.1-.59-1.18-.51-3.93.41-3.77,1.63,2,.66,4.7,1.35,6.52,0C33.28,90.75,33.63,90.4,34.39,90.74Zm5.73.44c-.3-1.63-1.09-1.51-2.58-1.66A4.25,4.25,0,0,0,39.84,93,1.17,1.17,0,0,0,40.12,91.18Zm-3.43.15c-2.73,2.34.88,2.55,2.85,2.51a.54.54,0,0,0,.22,0c-.4-.48-1.18-.3-1.58-.94C37.63,92.47,37.51,90.83,36.69,91.33Zm6.69-.51c-2.49-1-3.27,2.38-.53,2.49C44.6,92.75,45.45,92,43.38,90.82Zm4.11-3.07c-1-.57-.14-2.85-1.56-2.56-1.46.62-1.55,2.26-2.9,2.87-2.13,1.31,1.89,3.5,3.11,2.56C46.93,89.9,47.75,88.89,47.49,87.75Zm0-1.79c0,2.32,2.61,1.24,3.51.06.57-.52-.6-1.21-.24-2,0-.56-.39-1-.85-.71s-.8-.4-1.27-.6-.53,1.43-1.13,1.79C46.9,85,47.57,85.38,47.46,86Zm5.09.31c1.41,1.69,6.69,1.67,6-1.08-1.06-.93-2.53-2.22-4.13-2.3a1,1,0,0,1-.9-.83,3.55,3.55,0,0,1-1-.28,7.36,7.36,0,0,1-.5.87C51,83.83,51.76,85.19,52.55,86.27Zm14.66-4.84c.28-.87-1.58-.54-2.15-.82-1.39-.42-.68,2.14-1,3.1.48,3.61,3.59,2.45,3.15-.6A2.32,2.32,0,0,1,67.21,81.43Zm2.33,6c-.17-.91.94-1.11.48-1.92.35-1.43-1.06-2.86-1.16-4.32-2.72.79.81,4.32-2.58,5.37-1.09.92.54,2.36,1.48,2.37C68.26,88.28,69.44,88.38,69.54,87.43Zm6.36,4.51c-1.64,2.8,5.07,1.62,3.91-.85C75.09,83.46,78.9,90.29,75.9,91.94Zm-.53.1c-.35-1.45,1.85-1.85,1.06-3.5A1.43,1.43,0,0,1,76.65,87V84.4c-1.57-1.92-3.49,0-5.14.46-.74.06-1.56,3.49-.85,4.09.47.74,1.61,1.37,1.65,2.25.12.73,2,.34,2.66,1C75.11,92.23,75.48,92.3,75.37,92Zm-5.83,1.74c.85.74,1.95,1.72,3.08,1.63a2.12,2.12,0,0,1,2.27.29c.23.14.62.24.64,0,.27-.75,1.26-.68,1.85-1.11.16-.09.53.13.44-.26-.55-.17-1.45.17-2.13-.13-1-1.89-2.48-1.89-4.54-2A11.42,11.42,0,0,0,69.54,93.78Zm1.85-2.56C72,90.63,70.26,89.68,70,89c-.75-.42-2.37.54-2.41,1.5-.41,1.07.57,2.81,1.78,2.42A6,6,0,0,1,71.39,91.22Zm-7.52,1.63c-.7,0,.47,1.86.83,2.46,1.11.47,1.36,1.84,2.59,1.94.37,0,1,.16,1.2-.19.21-.63.63-.49,1.07-.32,1.14-.22,2.4.06,3.52-.45.13-.05.24-.12.36-.18-2.2.21-4.08-1.34-5.64-2.92C66.77,92.09,65.06,94,63.87,92.85Zm2.76-3.78c-.68,0-.82-.81-1.38-.93-.18,1.15-1.26,1.88-1.63,3,.21,1.29,1.61,1.59,2.74.89.45-.12.66-.26.27-.72A2.81,2.81,0,0,1,67,89.81C67.2,89.37,67,89.21,66.63,89.07ZM63,90.67c.82-.92,1-2.06,1.73-2.87-.36-.49-1.85.16-2.56.13C61,87.87,62.05,91.78,63,90.67Zm-.44,1.21c-.69.8-1.63.43-2.51.64-3.86,2.67.6,6.17,2.95,2.31A4.77,4.77,0,0,0,62.53,91.88ZM59,87.46c-.58-.38-1.76.27-1.6.71,1.27.89,0,2.65,1.91,2.89.42.7,1.37.63,2,.5.82-.4-.74-2.16-.5-3.11S59.64,87.67,59,87.46ZM55.47,93.4c.73.2,1.48-.3,2.25.1.73.25,1-1,1.63-1.41C57.85,90.41,56.54,92.12,55.47,93.4Zm1.07-4.93A12.43,12.43,0,0,1,53,87.39c-.9-.82-1.72-1.33-2.26.1,0,2,2.09,3.9,3.29,5.5C55.53,93.37,59,89.63,56.54,88.47ZM55,94.31a6.12,6.12,0,0,0-2.81.19c-.3.54,1.47,1.42,2,1.73,1.19,1.5,2.48-.84,3.53-1.27C58.07,93.66,55.83,94.16,55,94.31ZM46.81,91c-.56.71-1.59.44-1.62,1.48-.16,1.49-1.43.75-2,1.69.35,2.53,2.52,2.75,4.6,1.93.74.08.32-.86,1-.84a3.4,3.4,0,0,0,2.61-1c0-1,2.47-.06,1.91-1.11-1.87-1.18-2.35-5.63-4.76-5.1-.65.59-.09,1.84-1.23,2.26C47.08,90.47,47,90.84,46.81,91Z"/><path id="fill2" class="cls-3" d="M54.51,53.33c0,1.13,1.94.09,2.32-.45.09-.06.31,0,.27.13-.45.56,0,1.16.07,1.65-.52,1.69-3.76,1.36-5.29,1.46-.65,0-.06-1.07-.87-1.12-2.64-2.14,1.29-4,3.24-4.6.7.13-.91,1.11,0,1.77C54.53,52.52,54.8,52.81,54.51,53.33ZM53.18,67.88c-2.26-2.51-9.48-1.46-8.47-6,.45-1.23-1.09-1.77-1.9-2.45-.35-.16-1-.2-.56.33.6,1.34-1,2.51-1.24,3.7,1.2,1,2.32,2.72,4.06,2.51.72-.18.7.2,1.25.39C48.16,65.65,51.05,70,53.18,67.88Zm17.45-10c2.29-1.39-1.79-3.89-1.77-1.7.58,1.06-.48,1.25-1.2,1.7-.09.28.41,1.1-.4,1C62,59.78,63.4,61,64.57,65.1c1.79-1,.92-3.17,2.36-4.26C69.39,60.46,68.46,58.56,70.63,57.91ZM50.25,81.05c-.62-.87-1.12,0-1.65.47-.47.87,1.79,1.06,2.29,1.52a18.1,18.1,0,0,1,1.19-1.61C51.75,80.65,50.79,81.65,50.25,81.05Zm-2.31-1c-.24,0-1.12-.27-1.28.12-.69,3.46-5.91,1.69-7.85.37-2.61,2,2.6,2.23,3.74,2.59,1.34.91,1.94-1,3-.72a6.86,6.86,0,0,1,1.24-.36c.21-.07.76.08.67-.51,1-.76,2.42-1.88,1.63-3.37C48.75,78.87,48.87,79.74,47.94,80.05ZM23.85,73.56a2.57,2.57,0,0,1-.3,2.24c.35,1.94,4.12-.35,6.58,2,.27.41.57.79,1.06.4,2-.42,4.07.12,4.25-2.57.23-.31.1-.36-.2-.35-1.54.29-3.23-1.45-4.62-.71-1.42,1.7-1.14-2.54-3.29-.32C25.78,74.43,24.62,69.74,23.85,73.56Zm14,5.32a1,1,0,0,0,.06,1.24c.12-.08.25-.16.46-.32C40.79,77.64,40.56,74,37.88,78.88Zm.17-11.38c-.87-.87-1.72-.57-2.74-.12-1.24.36-.35,2-.74,3.19.07,1.18,1.28,2.21.76,3.4-.08.91,1.9.44,2.63.82,1.17,0,.42-1.77.52-2.51,0-.4.59-.64.17-1.12a9.08,9.08,0,0,1-.9-1.65c-.21-.52-.11-1.36.3-1.58S38.46,67.66,38.05,67.5Zm16.57,4.63a10.64,10.64,0,0,0,3.72.15c.64-.23,1.14.2,1.68-.32,1.9-2.17,2.17-5.51,1.55-8.37a2,2,0,0,1-2,.37c-1-.17.19,2-.49,2.67-2.25,5.82-2.53,0-5.63,4.33a2.64,2.64,0,0,1-2.91-1.06c-1.12-.28-2.54-.11-3.73-.8l-.15,0c.69.29-.14,2,.75,2s1.41,1.09,2.46.7C51.5,71.15,52.9,73.13,54.62,72.13Zm8.67-1.73c-2.82-1.28-.93,3.22-4.68,2.55-1.77.5-3.59-.31-5.31.33-1,2.87,8.77.78,10.59,1.78C64.85,73.31,65.28,71.64,63.29,70.4Zm.42,5.45c-.75-.45-1.48-.14-2.25-.14-.64-.4-1.08-.06-1.52.35-1.49,1.29-3.72.36-5.28.65a12.75,12.75,0,0,0,7.49,1c1.8,1.52,3.75-.94,5.51-1.59a.43.43,0,0,0,.24-.74c-.13-.73,1.32,0,.13-1.27-.6-1.1.72-1.41,1.45-1.93,1.32-.34-.6-1.92.16-2.91a2.62,2.62,0,0,0-.86-2.9C68.2,68,68.08,71.92,66,72c-.41,0-.36,0-.32.38.36,1.19-1.09,1.93-1,3.17C64.68,75.93,64.05,76,63.71,75.85Zm5.83,11.58c-.17-.91.94-1.11.48-1.92.35-1.43-1.06-2.86-1.16-4.32-2.72.79.81,4.32-2.58,5.37-1.09.92.54,2.36,1.48,2.37C68.26,88.28,69.44,88.38,69.54,87.43Zm-7.37-3.54c-1.49-.1-4,1.85-2.09,3a9.89,9.89,0,0,0,3.72,0c.87,0,.86,0,.49-.69S63.57,83.5,62.17,83.89ZM49.51,77.8a2,2,0,0,1,.58,1.73c.31,1.63,2.51.39,3.51,1.74A17.45,17.45,0,0,1,54,79a1.9,1.9,0,0,1-.53-2c.32,0,.92.25,1-.23A5.27,5.27,0,0,0,53,76.69c-1.62-.15-.74-1.6-.48-2.54-.4-.55-1.83-.07-1.78.81C50.83,76.14,49.42,76.81,49.51,77.8Zm-3.19-3.31c-1.09,1-2.62.2-3.87,0,.41,1.26-.8,1.36-1.59,1.75-.47,0-.26.44-.16.47.66.75-1,2.26-.88,3.35C40,81.6,42,80.79,43,81.15a1.73,1.73,0,0,0,2,0c1.58-.53.05-2.7,2.57-1.94,1-.62.46-1.94,1.49-2.46,1.77-2.58.67-2.28-1.68-2.7C47,74,46.44,73.72,46.32,74.49Zm6.23,11.78c1.41,1.69,6.69,1.67,6-1.08-1.06-.93-2.53-2.22-4.13-2.3a1,1,0,0,1-.9-.83,3.55,3.55,0,0,1-1-.28,7.36,7.36,0,0,1-.5.87C51,83.83,51.76,85.19,52.55,86.27Zm-5.07-1.82c-.58.52.09.93,0,1.51,0,2.32,2.61,1.24,3.51.06.57-.52-.6-1.21-.24-2,0-.56-.39-1-.85-.71s-.8-.4-1.27-.6S48.08,84.09,47.48,84.45ZM42,88c.42-.57,1.16-.72,1.57-1.24-.12,0-.1-.29-.36-.14-.49.23-.68-.53-.94-.83-.38-1.11-3.27-.35-2.46,1C40.11,87.59,41.06,88.59,42,88Zm5.52-.22c-1-.57-.14-2.85-1.56-2.56-1.46.62-1.55,2.26-2.9,2.87-2.13,1.31,1.89,3.5,3.11,2.56C46.93,89.9,47.75,88.89,47.49,87.75Zm-5.36,2.16c-.15-2.12-3.54-1-1.28.83C41.38,90.63,41.52,89.9,42.13,89.91ZM26.26,91.23c2,.66,4.7,1.35,6.52,0,.5-.52.85-.87,1.61-.53,1.13,0,2.7.59,2.56-1.28a5.07,5.07,0,0,0-4.82.73c-.83.45-1.4-.29-2.1-.59C28.85,89.09,26.1,90,26.26,91.23Zm13.86,0c-.3-1.63-1.09-1.51-2.58-1.66A4.25,4.25,0,0,0,39.84,93,1.17,1.17,0,0,0,40.12,91.18Zm-.58,2.66a.54.54,0,0,0,.22,0c-.4-.48-1.18-.3-1.58-.94-.55-.38-.67-2-1.49-1.52C34,93.67,37.57,93.88,39.54,93.84Zm.93-.08c-.1.7.51.9,1,.41S40.7,93.24,40.47,93.76Zm2.91-2.94c-2.49-1-3.27,2.38-.53,2.49C44.6,92.75,45.45,92,43.38,90.82Zm13.16-2.35A12.43,12.43,0,0,1,53,87.39c-.9-.82-1.72-1.33-2.26.1,0,2,2.09,3.9,3.29,5.5C55.53,93.37,59,89.63,56.54,88.47Zm2.46-1c-.58-.38-1.76.27-1.6.71,1.27.89,0,2.65,1.91,2.89.42.7,1.37.63,2,.5.82-.4-.74-2.16-.5-3.11S59.64,87.67,59,87.46Zm5.7.34c-.36-.49-1.85.16-2.56.13-1.14-.06-.09,3.85.83,2.74C63.79,89.75,64,88.61,64.7,87.8Zm1.66,4.25c.45-.12.66-.26.27-.72A2.81,2.81,0,0,1,67,89.81c.25-.44.08-.6-.32-.74-.68,0-.82-.81-1.38-.93-.18,1.15-1.26,1.88-1.63,3C63.83,92.45,65.23,92.75,66.36,92.05Zm3.18,1.73c.85.74,1.95,1.72,3.08,1.63a2.12,2.12,0,0,1,2.27.29c.23.14.62.24.64,0,.27-.75,1.26-.68,1.85-1.11.16-.09.53.13.44-.26-.55-.17-1.45.17-2.13-.13-1-1.89-2.48-1.89-4.54-2A11.42,11.42,0,0,0,69.54,93.78Zm1.85-2.56C72,90.63,70.26,89.68,70,89c-.75-.42-2.37.54-2.41,1.5-.41,1.07.57,2.81,1.78,2.42A6,6,0,0,1,71.39,91.22ZM64.7,95.31c1.11.47,1.36,1.84,2.59,1.94.37,0,1,.16,1.2-.19.21-.63.63-.49,1.07-.32,1.14-.22,2.4.06,3.52-.45.13-.05.24-.12.36-.18-2.2.21-4.08-1.34-5.64-2.92-1-1.1-2.74.83-3.93-.34C63.17,92.85,64.34,94.71,64.7,95.31Zm-2.17-3.43c-.69.8-1.63.43-2.51.64-3.86,2.67.6,6.17,2.95,2.31A4.77,4.77,0,0,0,62.53,91.88ZM57.72,93.5c.73.25,1-1,1.63-1.41-1.5-1.68-2.81,0-3.88,1.31C56.2,93.6,57,93.1,57.72,93.5ZM47.3,90.37c-.22.1-.31.47-.49.67-.56.71-1.59.44-1.62,1.48-.16,1.49-1.43.75-2,1.69.35,2.53,2.52,2.75,4.6,1.93.74.08.32-.86,1-.84a3.4,3.4,0,0,0,2.61-1c0-1,2.47-.06,1.91-1.11-1.87-1.18-2.35-5.63-4.76-5.1C47.88,88.7,48.44,90,47.3,90.37Zm4.89,4.13c-.3.54,1.47,1.42,2,1.73,1.19,1.5,2.48-.84,3.53-1.27.38-1.3-1.86-.8-2.69-.65A6.12,6.12,0,0,0,52.19,94.5Z"/><path id="fill1" class="cls-4" d="M87.29,11c.07,2.39.8,4.68,1,7a5.18,5.18,0,0,0-1,1.27.17.17,0,0,0,0-.07c-1.84,4.1-2.41,3.29-.58,7.56-.29,1.4-1.83,2.93-1.12,4.28.73.22.68.8.64,1.36-.43,2.68-1.61,5-2.42,7.64h0a4.71,4.71,0,0,0-.23,1.08,1.66,1.66,0,0,0,0,.22,1,1,0,0,1-.11-.27c-.56,2.28-2.09,3.34-1.77,4.69a1.71,1.71,0,0,0-.4,1,.93.93,0,0,0-.65.43,3.77,3.77,0,0,0-1.51.4l-.19-.28c-.4-.65-1.6-.12-2.06.38-.35,1.38-1.81,1.75-2.37,2.94a5.47,5.47,0,0,1-1.45.12c-1.17-.77-2.22-2.65-3.54-1.9A14.76,14.76,0,0,0,68,50.2a5.36,5.36,0,0,0-1.17.22,1.33,1.33,0,0,0-.31-.18c-1.39.33-2.33-.6-3.43-.54-1.28.45-.71,2.66-2.62,2a.34.34,0,0,0-.26.06c-.81-.37-1.54-1-2.29-1.43a1.07,1.07,0,0,0-.22-.1c-.3-.6-1-1.26-.55-2,.08-.32,0-.71.12-1a1.26,1.26,0,0,0,.73-.6,20.37,20.37,0,0,0,1.9-4.29c.2.32.59-.39,1.34-3.16.63-1.24-.51-1.75-1-2.6a8.28,8.28,0,0,0,0-2.11v-.11c.58-.18.08-.82,0-1.31a.76.76,0,0,1-.08-.11,1.82,1.82,0,0,0-.11-.3v0a4.44,4.44,0,0,0-.35-.77c-.2-2-.24-4-.29-6v-.11c0-.47,0-.93,0-1.39a5.67,5.67,0,0,0,0-.72,3.54,3.54,0,0,1,0-.46l.06-.86c0-.05,0-.1,0-.15a1.61,1.61,0,0,0,0-.22,5.59,5.59,0,0,0-.07-1.22h0a7.26,7.26,0,0,0-.29-3.63c-.16.92.09,2.31-.51,3.43-.13.6-1,.7-.68,1.46.84,2-1.51,3.28-1.63,5.06.06,1.11-1.06,1.72-1.72,2.45a7.65,7.65,0,0,0-.39,2c-.13.33-.24.67-.35,1a1.86,1.86,0,0,1-.47.55,8.63,8.63,0,0,1-.29,1.39c-.22.5-.44,1-.64,1.53A15.94,15.94,0,0,0,51.77,40c-.05.5-.11,1-.17,1.5-.48,1.64-.53,3.39-2.45,4-.16.12-.54.26-.33.54.22.75-.22,2-1.23,1.86-.73-.13-1.42.39-2.14,0-.5-.74-.85-1.9-2-2-.51,0-.83-.58-1.13-1-1,1.12-1.89,1-2.52-.22-.17.47-.45.47-.83.24-.54.1-1,.78-1.59.27-.53-.18-1.86-.17-1.83.62a1.63,1.63,0,0,1,0,.76,4,4,0,0,0-.94,1c-.2-.05-.45.08-.84.25-.48.57-1.29,0-1.66.73C31.5,50,31,48,30.36,47.7c-.93-.66-1.86.7-2.73-.25a8.28,8.28,0,0,1-2.85-1.38l.64-.16c-.23-.3-1.24-.52-1.15.11,0,0,0,.06,0,.09a1.57,1.57,0,0,0-1.05,0c-.59-.26-1.69-.54-1.86.08,0,.26-.11.39-.33.29-.54-.28-.06-.76-.5-1.06-1-.74-.88.69-1.7-1A4.34,4.34,0,0,0,17.87,48c-.22,1.34-2.78-.49-1.77,2.24a.86.86,0,0,1,.21-.47,1.9,1.9,0,0,0,.13,1.53,7.16,7.16,0,0,0-.61.48c-.16.15-.32.3-.47.46a1.54,1.54,0,0,1-1.36.16c-1.47-.32-3.07,2.15-2.49,3.6a1.39,1.39,0,0,0,.17.72l.26.42a2,2,0,0,0,.58.61A7,7,0,0,0,14,60.12c0,.49,0,1,0,1.48a4.84,4.84,0,0,0-.69,1.29,2.43,2.43,0,0,0-.95.41h0c-.68.45-1.1,1.16-2,1.25-.47.07-.47.17-.49.67,0,1.09-1.75,1.63-1.66,2.42a1.67,1.67,0,0,0-.67.53,3.25,3.25,0,0,0-2,.8.94.94,0,0,0,.45.67,1.7,1.7,0,0,0-.49.63,9.13,9.13,0,0,0-1.83.82c-.89.38-4-.15-3.51-1.65,0-.73-.53-1.56.35-2a1.93,1.93,0,0,0,1.09-1.74,6.91,6.91,0,0,0,1.29-1.82,1.92,1.92,0,0,1,.74-2.14c.74-.45,2-.2,2.27-1,1.18-1.59,0-3.3.76-5,.46-.81-1.58-.93-1.14-2.06.2-.87,1.33-.44,1.64-1.22C7.9,51.63,8,50,8.91,49.55c.4-.65,1.64-.63,1.63-1.56,0-.25,0-.39.34-.39,1,0,1.23-1.09,1.31-1.9.46-1.7,2.4-.72,2.41-3.38.34-.83,1.14-.6,1.62-.33.73-.45,1.51-1.14,1.36-2.1,0-.56.18-1.33.71-1.58s.64-.25.61-1c.26-.72-.11-3.21,1-2.63,1.22.93.24,2.64,1.44,3.57,1,.65,1.54,2.58,2.7,2.57.33-.24.44,0,.51.22a1.7,1.7,0,0,0,1.67,1.14c.48,0,1.2-.12,1.27.53.16.84,2.65,1.24,2.63.12.27-1.16,2.38-.61,3.33-.36,1.51,1.09,2.61,0,3.48-1.29.42-.76.92-.23,1.57-.42.9-.3,1.27.81,2.18.92,1.51-.11,3.44,2.37,4.45.55,0-.64.63-.92.82-1.44,0-.49.24-.57.65-.58,1.54-.54-.92-1.51-1-2.27-.6-1.27.56-1.88,1.48-2.57.32-.56-.41-1.36.36-1.82.32-1.17,1.27-1.23,2-2.16,0-.62-.51-1.15.09-1.73.71-.38-.28-1.21.54-1.51,2-1.28-.39-3.94,3.24-3.61.26-.56-.05-1.81-.86-1.79-1.1-.35-.06-2.66.69-3.13.53-1.42,3.16-2.87,2.26-4.5-.28-.68-.66-1.54-.14-2.1.67-.07.62-.92,1-1.37s.92-.71.86-1.46c.5-1.21-.27-2.91.49-3.89C58,5,59.23,4.1,59.23,2.66c0-.78,1.12-.43.76.17.49,2.28.21,5.37,2,7.17,1.07,1.15-1.36,1.17-.68,2.5a2.44,2.44,0,0,1-.17,2.22c-.32,1.49,1.58,2.47,1.34,4.07-.07.81-.44,1.72.17,2.42,1.22,1.33-1.16,2.59-.46,4.11.29,1.66,0,3.31.43,4.92s-.57,3.33-.13,5c1.4,2.52,1.77,5.45,2.94,8,.38.57-.91,0-.66.94,0,.86.8,1,1.38.79.87-.61,1.79.48,2.5,0a.36.36,0,0,1,.61,0c1.09.5,1.14-.94,1.07-1.73.15-1.42,1.7.23,2.36.4.11,0,.28.09.43-.16.59-1.42,1.85-.27,2.74-.86.85-.92,2.54-.47,1.13-2.23-.24-.11-.85-.32-.43-.6,1.69-1.43,3.76-2.64,3.58-5.07-.41-1.57,3.75-3.71,2.38-4.45-.63.48-1.13-1-1.56-1.21-.39-.45.61-1,.31-1.69-.3-1.5,1.66-1.06,1.64-1.7a26.61,26.61,0,0,0-.16-3c.37-1.1,1.31-2.57.75-3.68s.06-2.71.79-3.6a.73.73,0,0,0,.57-.9c.07-.82,1.07-1.3.45-2.19-.22-1.3-1.8-4.55-.23-5.08.53,0,.64-.26.6-.71.44-1.4-1.14-2.56-.46-3.81C85.86,2,85.67.41,86.71,0c1.87.11.7,5.7,1.71,7.61C88.7,9,86.58,9.52,87.29,11Z"/><path id="void" class="cls-5" d="M74.06,60.38c.27.38,1.38.25,1.3.76,0,1.64.07,3.29-1.24,4.64-.49,1.18-2,.32-2.49,1.3s-2.87-.78-1.42-1.3c1.84-.75,4.33-1.11,3.72-3.71C73.85,61.57,73.15,59.93,74.06,60.38Zm-45.75,22c-1.14.37-2.91-.81-3.69,0-3,3.85,2.45,2.08,4.63,2.51,1.31.38,1.8-2,3.25-2.15a.17.17,0,0,0,0-.32C31.08,81.88,29.75,82.27,28.31,82.41Zm26.5-48.48c-.38,1.27-1.28,2.42-.48,3.91.68.3,1.36-1.46,2.27-1.57.57-1.61-.46-3.72-.35-5.26A3.71,3.71,0,0,0,54.81,33.93Zm1.48,7.73c-.18.57-1,.37-.58,1.05s.18,2.33,1,2.62c1.32.13,2.21,0,2-1.58.65-.67-.08-1.5.28-2.19C58.88,38.24,57.47,39.71,56.29,41.66ZM59,51.24c-1.83.81-.93,3.59-.87,5.17.52.42,1.88-1.31,2.61-1.67-.17,0-.35-.17-.49,0C58.51,54.84,59.75,52,59,51.24Zm-12.07.09c-2.15-1.78-2.37,1.69-2.29,3.14,2.61-1.16,2.19,2.1,3.67,1.73,1.83-.4,1.26-2.15,1-3.52A8.5,8.5,0,0,1,46.89,51.33ZM28.69,62.39c.13,1-1.14,1.06-1.61,1.72-2.11.46-3.78.18-4.26-2.16-1.23-.16.29,2,.11,2.6-.22,1.33,1.39,1.38,1.52,2.48-.08,2.29,2.76-.13,4.15,1,.94-.08.6-.92,1-1.46,1.11-.64,1-1.63,1-2.73.3-1-1.11-.72-1-1.64C29.66,61.58,28.47,61.76,28.69,62.39ZM82.48,76.72c.17.93.3,2.31-.86,2.66-.62.4-.54,1.47-1.08,2.05s.53,1,.92,1.41c.79.78.9-.49,1.31-.83,1.13-1.13,2.37-2.46,1.07-4C83.42,77.57,83.19,76.7,82.48,76.72Zm-76.75-1c-.49-.36-.73,0-.87.31-2.31,3,5.45,5.85,5.69,1.94A14.84,14.84,0,0,0,8.38,73.1C8.18,74.12,6.77,75.66,5.73,75.68Zm11.85-16.3c-.2.24-.51.46-.23.83.69,1.38.52,3,.71,4.51.32.6,1.86-.67,1.93-1.2-.77-1.42-.63-3.32-1.65-4.61A5.58,5.58,0,0,1,17.58,59.38Zm7.88-3.1c.18-.44.18-1,.65-1.24.71-.36.55-2.92,0-3.14A2.55,2.55,0,0,0,25.46,56.28ZM33.74,48c-.48.57-1.29,0-1.66.73C31.5,50,31,48,30.36,47.7c-.93-.66-1.86.7-2.73-.25a8.28,8.28,0,0,1-2.85-1.38l.64-.16c-.23-.3-1.24-.52-1.15.11.05.33-.17.45-.49.46s-.79.9-.81,1.32a39.74,39.74,0,0,1,5.16.82c.51,0,.71.27.72.81-.21,1.1.82,1,1.71,1.13.61-.4,1.1-1.38,1.94-1.05a.93.93,0,0,0,.89,0c.89-.85,2.38.71,1.61-1.18C34.73,47.46,34.46,47.63,33.74,48Zm46.56-.24c-.53.83-1,.15-1.37-.39s-1.6-.12-2.06.38c-.36,1.45-2,1.77-2.46,3.12.9.26,1.93,2.84,2.11,1-.8-1.45.8-4,2.36-3,.78.84,2.17.28,2.85,1.37a2.31,2.31,0,0,0,2,.78l.62-.08C83.06,49.89,82,44.65,80.3,47.71Zm4.07-31c-.54,1.68,1.82.19,1.1-.87C84.91,15.63,84.63,16.31,84.37,16.67Zm.3,6.83-.22,0c.06.36-.23.62-.43,1-.56.76,2.22.58,1.06,2.5-.61,0-1-1.16-1.47-.63a.59.59,0,0,1-.7.17c-.78-.13-.81,1.18-.48,1.6.25-.05.71.25.66-.37,0-.08.23-.18.35-.28.63.69-.33.94-.69,1.39.29.23.14.55.16.83.11.72,1-.8.89,1.05-.56-.23-.6,1.54-.44,1.79.76-.47,1.31-2.29,1.43-3.42a5,5,0,0,0,.51-4.55A1.93,1.93,0,0,1,84.67,23.5Zm-3.39,10c-.54.29-1.11,4.46-.17,3.91.24-1-.17-1.88,1.15-1.83-.61-.63-1.74-1.62-.15-1.84a1,1,0,0,0,.63-1.49C82.2,32.26,81.83,33.08,81.28,33.49Zm-5.58,11c-.09.1,0,.39.1.68.7.42,1.26-.75,2.12-.35.28-.14.12-1.39-.27-1.11C76.73,44.49,76,42.93,75.7,44.49Zm-2.84,2.15c.44-.79-.9-1.43-1.62-1.32C69.32,46.42,71.59,47.19,72.86,46.64Zm-10-.64c1,.12,1.64-2.08.26-2.13L63,44a.16.16,0,0,0,0-.09c-1.15.16.56,1.72-1,2-1.1.41,0,1.51-.36,2.27.72-.24,1.2-1.17,2.08-.56.21.14.56.07.85.07.33-.81-1-.82-1.57-.81C62.75,46.61,62.54,46.17,62.81,46ZM56.63,12.62c-.27.56.72.16,1,.22,2.22-.47,1.24-4.32.34-5.71C57.79,9,58.06,11,56.63,12.62Zm5.2,17.71a.44.44,0,1,0-.77.43,1.1,1.1,0,0,1-.16,1c-.36-.6-.74-2,.29-2.07-.12-.37-.73-.33-.39-.72.32-.56-.46-1-.79-1.43a11.3,11.3,0,0,0,1.33,6.21c.33-.31-.1-.76.5-.89A1.51,1.51,0,0,0,62,31.52,3.92,3.92,0,0,1,61.83,30.33Zm-8.49-3c-.21-.89-.81-.38-1,.21s1,2.44,1.28,2c.29-1.21,1.87-1.57,2-2.91,0-.36-.07-.74.3-1s-.68-1-.62-.16A5.35,5.35,0,0,1,53.34,27.36Zm-2.91,4.52c0,1.08-.79.88-1.5.88-.7.76,1.94,1,2.45.81.9,0,.26,1.12.65,1.63,0,.86-2,.73-2.55.17a.55.55,0,0,0-.69-.07c.08,1.41,2.89.55.81,2.59-.8.55,1.5,1.16.78,2.63-.27.81-1.53,0-1.45,1.28-.24.46-.49.74-.31,1.28-.35.7-2,.1-2.64,0,.45.73,1.11,2,2,2.23,1-.57,2.44-1.26,2.61-2.6,0-1.95,2-3.23,1-5.29-.49-1.22,1.38-1.66.63-2.84.41-1.38,1.47-2.8,1.4-4.26C51.73,33.53,52,30.66,50.43,31.88ZM45.54,43.26c-.47.85-1.42.06-2.06.32C43,46,45.28,45.07,46.8,45.26A8.14,8.14,0,0,1,45.54,43.26ZM33.17,44.84c-.27.47.2,2,.74,1.48C33.62,45.86,33.86,45.2,33.17,44.84ZM26.8,43c-.58-.21-1.17-.44-1.75-.64-.07,0-.16,0-.23,0,0,.41,1.34.61.5,1s.46,1.61.93,1.58c.76-.39,1.81.22,2.08-.91C27.69,43.71,27,44.06,26.8,43ZM16.11,44.6c-.23-.69.61-1.57,0-2.07-1.37-.73-1,1-1.29,1.83,0,.85,1.75.29,1.76,1.54a.47.47,0,0,0,.3.38c-.37-.72,1.41-3.71.06-2.81C16.61,43.86,16.83,45,16.11,44.6ZM7.58,66.35c-.81.74-.43-1.13-1.18-1.24-.89.58-1.57,2.22-2.39,3.15-.17.23-.2.37,0,.52.23.36.13.84.63,1,.49-.43-.34-2.43.76-2s4.26-2,3.53-3.37C8.07,64.29,7.81,65.68,7.58,66.35Zm2.06-8.91c-.51.78,1.15,2.39.24,2.73-1.18.33.25,2-2.27,1.08-.41.75-.48,1.82-1.36,2-.18-.2-.46-.34-.52-.63-.23-1-1.17,1-1.69.11.37-.25,1-.36,1.1-.85-.8-.08-2,.81-1.64,1.8a.94.94,0,0,1-.22,1.1c-.31.76,1.21.33,1.63.61.93.46.35-.72.54-1.15s.54.1.82.07c.53.52.35-.75.65-.84s.31-.33.39-.6c.15-1.53,1.38-.55,2.26-1.15.37-.52,1.9-1,1.24-1.73S10.31,58.06,9.64,57.44Zm-3.35,4c-.35.39-.39,1.18.16,1.3.23-.71,1.1-1.66.83-2.29.4-.59,1,.46,1.36.71.7-.85-.21-1.84-.73-2.53A4.84,4.84,0,0,0,6.29,61.42Zm10.85-2.56a24.23,24.23,0,0,0,4.26-3.39c-1,0-6.88-1.46-5.31.71C16.41,57.12,17.11,57.93,17.14,58.86Zm22-3.09c-2.94.12-3.3-4-6.38-3.53.58.9,1.5,1.45,1.6,2.64,0,.25.44.57.55.55.93-.17,2.88-.07,3.2,1-.15,1.42.66,2.62,1,3.91.65.49.11,1.29.49,1.92.94,1,2.27-1.53,1.83-2.36C40,58.82,40.75,56.52,39.18,55.77ZM58.61,73c-1.77.5-3.59-.31-5.31.33-1,2.87,8.77.78,10.59,1.78,1-1.75,1.39-3.42-.6-4.66C60.47,69.12,62.36,73.62,58.61,73Zm-4.16,9.94a1,1,0,0,1-.9-.83,3.55,3.55,0,0,1-1-.28,7.36,7.36,0,0,1-.5.87c-1.07,1.18-.3,2.54.49,3.62,1.41,1.69,6.69,1.67,6-1.08C57.52,84.26,56.05,83,54.45,82.89Zm-8.13-8.4c-1.09,1-2.62.2-3.87,0,.41,1.26-.8,1.36-1.59,1.75-.47,0-.26.44-.16.47.66.75-1,2.26-.88,3.35C40,81.6,42,80.79,43,81.15a1.73,1.73,0,0,0,2,0c1.58-.53.05-2.7,2.57-1.94,1-.62.46-1.94,1.49-2.46,1.77-2.58.67-2.28-1.68-2.7C47,74,46.44,73.72,46.32,74.49Zm7.25.57c-3.43.9,4.73,1.35,5.48.67-.77-.8-2.2.07-3.13,0C55.25,75,54.23,75.81,53.57,75.06ZM37.75,69.51c-.21-.52-.11-1.36.3-1.58s.41-.27,0-.43c-.87-.87-1.72-.57-2.74-.12-1.24.36-.35,2-.74,3.19.07,1.18,1.28,2.21.76,3.4-.08.91,1.9.44,2.63.82,1.17,0,.42-1.77.52-2.51,0-.4.59-.64.17-1.12A9.08,9.08,0,0,1,37.75,69.51Zm7-7.68c.45-1.23-1.09-1.77-1.9-2.45-.35-.16-1-.2-.56.33.6,1.34-1,2.51-1.24,3.7,1.2,1,2.32,2.72,4.06,2.51.72-.18.7.2,1.25.39,1.84-.66,4.73,3.72,6.86,1.57C50.92,65.37,43.7,66.42,44.71,61.83Zm8.9,6.7c.62.48,2-.3,2.81-.07a1.24,1.24,0,0,0,1.64-.85C56.61,67.78,54.86,67.48,53.61,68.53ZM64.7,56.77c-1.68.38-2.28,1.7-3.67,2.52-.19.08-.06.21,0,.36,1,1.63.44,5.77,2.67,5.91-.31-4.39-3.45-5.88,2.7-7.3,1-.32-.47-1.54,1.34-1.33a.4.4,0,0,0,.34-.71C67,56.24,66.06,57.05,64.7,56.77ZM85.2,46.31c.32,1.31-1.29,1.9-1.15,3,.31,1.23,2.25,1.92,1.67,3.28,0,1.3.58,2.17,1.14,3.45a4.06,4.06,0,0,0,.38-1.55c1-1,.45-2.14.78-3.22.53-1.23-.46-2.14-.68-3.28C87.43,47,85.63,44.29,85.2,46.31Zm-.15,13.08c-1.21.43-.79-1.13-1.93.36-.79,1.92,2,3.18-1.83,4.7-.09.22-.32.64.07.63,2.16-1.21,7.22-.36,6.13-4.21C87.46,59.24,86.45,58.15,85.05,59.39Zm-6.38,9.87c-.24.92.55.26.66.83,0,2.36,1.93.86,3.09.31-.08-.76-1-2.5-2.08-2.14C80,69.1,78.54,68.21,78.67,69.26Zm-3,24.89c-1-1.89-2.48-1.89-4.54-2a11.42,11.42,0,0,0-1.61,1.65c.85.74,1.95,1.72,3.08,1.63a2.12,2.12,0,0,1,2.27.29c.23.14.62.24.64,0,.27-.75,1.26-.68,1.85-1.11.16-.09.53.13.44-.26C77.27,94.11,76.37,94.45,75.69,94.15Zm-4.18-9.29c-.74.06-1.56,3.49-.85,4.09.47.74,1.61,1.37,1.65,2.25.12.73,2,.34,2.66,1,.14,0,.51.12.4-.14-.35-1.45,1.85-1.85,1.06-3.5A1.43,1.43,0,0,1,76.65,87V84.4C75.08,82.48,73.16,84.39,71.51,84.86Zm-7.38-5.62c.84,1,3,1.21,4.21,1.22,1.5-.61,2.22-2.62.85-3.71C67.38,76.14,65.87,78.94,64.13,79.24Zm1.12,8.9c-.18,1.15-1.26,1.88-1.63,3,.21,1.29,1.61,1.59,2.74.89.45-.12.66-.26.27-.72A2.81,2.81,0,0,1,67,89.81c.25-.44.08-.6-.32-.74C66,89,65.81,88.26,65.25,88.14ZM60,92.52c-3.86,2.67.6,6.17,2.95,2.31a4.77,4.77,0,0,0-.44-3C61.84,92.68,60.9,92.31,60,92.52Zm-1-5.06c-.58-.38-1.76.27-1.6.71,1.27.89,0,2.65,1.91,2.89.42.7,1.37.63,2,.5.82-.4-.74-2.16-.5-3.11S59.64,87.67,59,87.46Zm-10.47.65c-.65.59-.09,1.84-1.23,2.26-.22.1-.31.47-.49.67-.56.71-1.59.44-1.62,1.48-.16,1.49-1.43.75-2,1.69.35,2.53,2.52,2.75,4.6,1.93.74.08.32-.86,1-.84a3.4,3.4,0,0,0,2.61-1c0-1,2.47-.06,1.91-1.11C51.42,92,50.94,87.58,48.53,88.11Zm-2.6-2.92c-1.46.62-1.55,2.26-2.9,2.87-2.13,1.31,1.89,3.5,3.11,2.56.79-.72,1.61-1.73,1.35-2.87C46.49,87.18,47.35,84.9,45.93,85.19Zm-7.92-2c-.56.44-.13,1.06-.21,1.66s-.63,1.47-.34,2.19c.54.7-.78,1.35.29,1.79.84,0,1.5.46,2.06-.42.09-1.22-2.17-3,.36-3.64.48-.14.49-.57.75-.83C40.55,82.75,38.77,83.56,38,83.14ZM17.14,80.08c2.38,2,1.63.62,3.87-.13.74,0,1-.87,1-1.42.11-1.19,1.48-1.4,1.27-2.66C21.3,76.24,15.77,77.39,17.14,80.08Zm-.58-12.2c-1,.55-2-.54-2.74.4-2.32.54-.28,2.59-.61,3.89.07.23.4.42.55.63.53.47.75-.83,1.46-.54A2.12,2.12,0,0,1,17.54,72c.73.53,2.62-1.91,1.85-2.17C18.22,69.46,18,67.58,16.56,67.88Z"/><path id="void-2" data-name="void" class="cls-6" d="M79.36,71.8a1.37,1.37,0,0,1-.2,1.58,3.09,3.09,0,0,1-2.69.58c-.32-.18-1.3.56-1.25-.23-.13-.73-.76-1.44.29-1.8s2.35-1.21,3.15-.9C78.79,71.38,78.8,71.83,79.36,71.8ZM11.78,48c-.38.29,0,.73-.41.91.23.56.48,0,.79-.09.54,0,.56,0,.68-.81.16-.51.86-.68.51-1.31-.16-.27.13-.47.31-.66s.22-.71,0-.72C12.35,45,12.63,47.47,11.78,48ZM7,53.47c-.5.11-1.32.51-.54,1,.12,0,.39.19.49-.19a.58.58,0,0,1,.67-.44A.91.91,0,0,0,8,52.36C7.64,52.68,7.41,53.14,7,53.47Zm-4,12.17c.22.53-.25.35-.46.47-.3.48.75,1.06.48,1.49a1.21,1.21,0,0,0-1.53.85c-.23.41.52.3.38.69.28,1.57,2.32-2.59,2.8-3.2.16-.25,0-.18-.13-.19A7,7,0,0,1,3.07,65.64Zm7.6-7.76c-.31.43.51.74.4,1.28.42,0,.92-.3,1.12.22-.16.25-.8,0-.63.4.36.72-.25,1.13-.46,1.69.72-.22,1.07-1,2-1.17-.07-1.12-1.68-1.5-1.3-2.64C11.75,56.91,11,57.6,10.67,57.88ZM78.61,39.27a3.81,3.81,0,0,0-.43.37c.53.76,1.26,0,1.79.72-1,.38-1.14,2.67.14,1.38,1.2-.76-.21-2.31.9-3.26.24-.41-.44-.56-.73-.63A3.42,3.42,0,0,1,78.61,39.27Zm8-26.26c-.59.59.07,1.06-.48,1.46-.28.26-.24.5-.13.85a3,3,0,0,1-.11,2.3c-.58,1.22-2.94-.49-1.45,1.82,3.67-2.47-2,2.32-.15,3.72a1,1,0,0,1,.21.38l.22,0c-.22-1.37,1.51-2.67,1.68-4.19,0-.15.14-.39.21-.39.93.07,0-1.05.73-1,.39-.47.19-1.41-.07-2C86.46,15.1,87.24,13.6,86.56,13ZM60.73,25.52c.24-.37,1-.28.51-.77-.31-.25-1.13-1.55-1.36-.9.1.46-.27,3.46.63,2.87.24-.13.49.1.33.32-.27.66.5,1.36.74,1.95.4-1-.14-2,.08-3.08C61.62,25.23,61,26,60.73,25.52ZM59.51,10.25c-.46.57,1,2.34-.31,2.12-.32-.08-.39.09-.46.29-.26,1.16-1.56.25-2.09.88a2,2,0,0,0,2.16.43c1.06.15-1.53,1.75-1.47,2.61-.28-.24-.58-1.58.07-1.48,1.06-.69-1.28-.88-1.51-1.57-1,1.13,2.08,2.37-.43,4.12-.62.6.69.77.66,1.45.68.31-.14-1.31,1.61-.78-.05-.41-.54-.42-.63-.85.61-.14,1.09.42,1.3-.37.23-.38,0-1,.56-1s1.53,1.26,1.4-.14c-1.09.36-1.08-1.49-.67-2,1.11,1.55.87,0,1-1.06.1-.69-.6-1-.64-1.51S60,10.48,59.51,10.25Zm3.08,26.91c-.36.54,1,1.58.11,1.81-.48,0-.47,0-.24.53.44,1.42,1.13,2.06.72,3.81.45.43,1.88-.12,1.13-.82C63.72,40.8,63.72,38.58,62.59,37.16ZM51.71,26.69c-.17.7-.23,1.45-.94,1.89-.38.43,0,1.16-.57,1.56-1,2.16,4.56.37,2.32-1-1.09-.67-.65-2.22-.06-3.11.07-.07.32-.14.38-.09.73.68,1.6,0,2-.62C53.4,25.34,51.83,24.56,51.71,26.69Zm-4.3,14c-.6.18-.79.79-1.24,1.1-.83.56.85,1.46.82.56.39-.31.64.46,1.07.49,0-.45-.64-.74,0-1s.18-1.52,1.14-1.39c1.54.06.37-2-.77-1.39C47.81,39.42,48,40.33,47.41,40.71Zm-8.09,1.13c-.3-.5-.74-.11-1.16-.19-1-.42-1.07.75.08.58.47.25.89.75,1.52.34.62.16.74.9.84,1.43s1.15-.54,1-.86C41.2,42.17,40,42.36,39.32,41.84ZM31.16,43c-.29.23-.4.69-.56.91s-.43.33-.22.51.22-.38.54-.4c-.08.94,1.42,3.93,2,1.85-.25-.65.08-1.64-.82-1.71S31.61,43.44,31.16,43ZM20.64,42c-.65,0-1.08-.46-.94.62-.13,1.3-1.77-.24-2,1.5-.1.44-.62,1-.33,1.35.39-.5.57-2,1.53-1.76.35.22.47.05.65-.14.42-.44.81-1.3,1.62-1.21.91-.13-.52-1.58-1-1.55C19.88,41.41,20.37,41.59,20.64,42ZM14.41,60.87a.85.85,0,0,1-.1.35c-2.36,3-.62,4.21,2.58,4a6.46,6.46,0,0,0-.13-4.67C16.33,59.65,15.21,61,14.41,60.87Zm7.16,3.74c.63-.13.65-.15.49-.68-1.58-5.62,1.23-1.22,2-3.23,0-2.91-2.91-5.46-5-2.44C19.8,60.22,19.91,63.07,21.57,64.61Zm38-.65c-1-.17.19,2-.49,2.67-2.25,5.82-2.53,0-5.63,4.33a2.64,2.64,0,0,1-2.91-1.06c-1.12-.28-2.54-.11-3.73-.8l-.15,0c.69.29-.14,2,.75,2s1.41,1.09,2.46.7c1.63-.68,3,1.3,4.75.3a10.64,10.64,0,0,0,3.72.15c.64-.23,1.14.2,1.68-.32,1.9-2.17,2.17-5.51,1.55-8.37A2,2,0,0,1,59.57,64Zm23.35,1.29a2.11,2.11,0,0,0-2,1.65c-.38,1.31,1.94,1.1,1.82,2.51-.18,1.23,2.86.47,2.17-.6C83.74,67.92,85,64.72,82.92,65.25ZM80.79,42.1c-1,.52-2.11,1.12-2,2.61,0,.3-.1.75-.5.76-.82-.11-1.49.5-2.24.51-.76-.55-1.4-.13-2.18,0s0,1.68-1.35,1.48c-.36.55-.7.13-1,0-2.83-1.64-3.81,2.38-5.82,1.11-.68-.61-1.52,0-2.1-.32a.72.72,0,0,0-1.1.11c-.43.66-2.6.94-2-.28.85-.7-.22-1.22,0-1.95.58-.57,2.17-1.53.84-2.11-2.22-1.14.74-.55,1.49-.77-.09-.92-.21-2.35-1-2.57a4.9,4.9,0,0,1-1.92,2.6C59.54,45.37,56.49,48,58.43,50c3.37,2.47,2.26,0,4.58-1.07.61-.06,1.23-.22,1.67.42,2.3,1.72,4.17-2.13,6.39-1,1.63.71,2.93,3.47,3.47.37,1.15,0,1.65-1.13,2-2.07.29-.54.81-.09,1.2-.24a1.11,1.11,0,0,1,1.53.26c.44.81,1.89-.69,1.35-1.16-.46-1.62,1.31-2.14,1.75-3.5a48.61,48.61,0,0,1,1.4-4.82c-.14-.91-1.15,1-1.77.9C80.63,39,81.88,41.29,80.79,42.1Zm-3.1,16.21c-1.12,1.45-1.92,2.81-1.64,4.71.39.51,2.19-.2,3,.61,2.41,1.43,5.07-1.83,2.53-3.45C77.7,60.34,78.83,57.28,77.69,58.31ZM76.9,83.5c.6.7.51,1.82.63,2.74s3.63-.07,3.85-.94c.93-1.79-2.86-4-3.78-2.57C77.38,83,77,83.21,76.9,83.5Zm-2.52-3.86c-.42-.32-.5.3-.85.16-.71-.43-3-1.09-3.27-.17-1,1.36-.45,3.12.56,4.35.3.28.32.34.82.15a4.42,4.42,0,0,1,3.85-1.24c2.24.51,2.74-3.74-.27-2.94A1.71,1.71,0,0,1,74.38,79.64Zm.06-28-.64-.55c-1.49-.18-2.69-3.13-4.29-2.22-.45.51-2.59,1.64-1.11,2,1.55.21,1.91,1.66,3.15,2.4a.54.54,0,0,0,.68.09c1-.57,2.22.19,3.17,0A2.55,2.55,0,0,0,74.44,51.63ZM59,79.49c-1.43,0-3.11-.43-4.63-.4.09,1.83.54.9,1.49,2s2.14-.76,3.06.3c1.16,1,2.85-.25,4.12-.54.78-.3.49-2.13-.3-2C60.84,79,62.7,81.34,59,79.49ZM57.63,57.6c-1.74-.21-6.78,3.26-7.39,1.17-.67-3.19.08-2.1-2.68-1.71-1.11-.4-1-2.18-2.36-1.93-2.18-.64-4.81,2.92-1.41,2.62,1.62.67,4.73-1.23,5.47,1.21.28.73.75,1.31,1.59,1.24,1.19-.25,1.39,1.45,2.63,1.32,2,.23,3.12-2.07,4.88-.6a4.71,4.71,0,0,0,1.23-1.81c1.35-.73,3.54-1.56,2.29-3.52C61,54.34,59.1,57.85,57.63,57.6ZM53,87.39c-.9-.82-1.72-1.33-2.26.1,0,2,2.09,3.9,3.29,5.5,1.48.38,4.91-3.36,2.49-4.52A12.43,12.43,0,0,1,53,87.39Zm0-10.7c-1.62-.15-.74-1.6-.48-2.54-.4-.55-1.83-.07-1.78.81.09,1.18-1.32,1.85-1.23,2.84a2,2,0,0,1,.58,1.73c.31,1.63,2.51.39,3.51,1.74A17.45,17.45,0,0,1,54,79a1.9,1.9,0,0,1-.53-2c.32,0,.92.25,1-.23A5.27,5.27,0,0,0,53,76.69ZM51.7,41.18c-.58,1.73-.5,3.67-2.55,4.37-.16.12-.54.26-.33.54.22.75-.22,2-1.23,1.86-.73-.13-1.42.39-2.14,0-.5-.74-.85-1.9-2-2-.51,0-.83-.58-1.13-1-1,1.12-1.89,1-2.52-.22-.17.47-.45.47-.83.24-.54.1-1,.78-1.59.27-.53-.18-1.86-.17-1.83.62.14.48-.12.93-.09,1.36,2.91-3.65,4.52.59,7.46.83.78.2.69,2,2.06,1.83.42.46.66.1,1-.19.58-.82,1.5-.72,2.15-1.32a2.35,2.35,0,0,1,1.12-.61c1.19,0,1.46-1.48,2.64-1.34.81.08.5-1.14.68-1.66.34-.89-1.09-.74-1-1.62C51.66,42.66,52.63,40,51.7,41.18ZM40.94,66.69c-.31,1-.79,1.62-1.95,1.42-1.21.68.2,3.75,1.41,3.37a1.47,1.47,0,0,1,1.67.15c1.61.5,3.53-1.26,4.19-2.64-.24-.29-.5-.57-.74-.87C44.5,66.84,42.08,64.54,40.94,66.69ZM29.87,88.77c1.17.13,1.79,1.41,2.91.22.95-1,4.16-.11,3.92-1.76-.39-.71.12-1.37.29-2.1.17-2.27-3.49-2.73-5.09-1.41C30.5,84.49,28.31,87.52,29.87,88.77Zm3.87-31.11c1.28-1.49-.16-3.82-1.53-4.83-.24-.12-.31-.13-.52,0-.66.76-1.84.57-2.26,1.42-.61.67-1.8,1.29-1,2.39.11,2,1.47,3.45,2,5.46.54,1.25,2.1,1.14,3.26,1.14.63-.35.86-1.39,1.67-1.62,1-.82-.66-2-1.43-2.46C32.68,58.58,32.87,58.52,33.74,57.66ZM32.29,68c-2.49-3-1.38-.36-2.81.65-5-.4-6.68,1-2.43,4.74a1.9,1.9,0,0,1,2.56.1c.44.67.76.09,1.37,0,1.25.06,1.36-1.37,2.18-2,.43-.39,1.06-.66.59-1.41a2.88,2.88,0,0,0,.15-1.4C34,67.54,32.67,68.86,32.29,68Zm-11,13.42c-2.2-1.61-3.12,2.76-3.08,4.33.16.68,1.46.15,2,.44,2.22.71,3.29-2.44,3.43-3.9-.28,0-.63-.07-.72.32S21.73,81.58,21.31,81.37Zm.41-33.18c-1.94-1.08-2.62,2.26-4.35,2.19-.88-.2-.65.59-.94,1.06-.71.54-1.44,1.31-2.43,1-1.63-.35-3.44,2.76-2.21,4,4.37-5.2,13.24,2.89,9.87-7.36A1.83,1.83,0,0,1,21.72,48.19Zm-7.82,28c-1.08-.39-2.45,1.11-2.72,2.19-.09.81,1.5,1.67,2.15,2,.62,0,1.18-.38,1.88-.12,1.47.33.9-1.55-.22-1.6C13.6,78.1,15.06,76.79,13.9,76.2ZM11.27,52.33a1.29,1.29,0,0,0-1,1.8c.49-.24.25-1,.69-1.26.32,1.68-1.82,1.8-.26,3.57,0-.25.22-.53.13-.77-.9-1.05.71-2.11,1.18-3,.78-1.67,3.42-.17,3.89-2.18-2.09-.53-1.75-.53-3.27.73C12,51.22,11.86,52.14,11.27,52.33ZM8.84,68.86a1.83,1.83,0,0,0-.06-.25c-1.15-.83-2.25-.4-3.26.36.07.81,1.34,1,1.85,1.52,1.37,1.36,3.15,0,4.68.77.32.14.38-.11.28-.25C11.8,68.48,11.66,67,8.84,68.86Z"/><path id="fill0" d="M3.65,71.09c.79-.34,1.71-1.13,2.56-.75,2.3.89,1.5,4.36-.59,4.63-1.56-.65-2.54,2.81-1.81,3.55C7.25,80.8,8,80.55,11.5,80c1.54,1.47,3,3.25,5.26,3.38,2,.24-.48,3.25,1.33,3.27,5.6-.64,2.33,2.56,5.57,2.58,3.67-.11,2.23-.22,1.58,2.05-.48,1.08,5.63,1.87,6.2,1.52,1.23-.68,2.41-1.68,3.9-1.21-2.59,3.91,3.73,2,5.26,3.71.84.4,1.73-1.35,2-.54.92,3,2.62,2.94,5.25,2.17,1.4-.18,2.75-1.85,4.15-1.43,4.11,4.92,3.92-.57,6.55.7,1,2.19,3,1.18,4.27-.13.75-.14,1.17-.39.68-1.19,0-.86,1.72,2,2.1,2.33,1.52,2.06,4-.29,5.93,0,.61.64,1.47-.35,2-.29.59.36,1-.47,1.5-.35.44-.16.87-.38,1.32-.5a3.93,3.93,0,0,1,2.52-1.3,1.21,1.21,0,0,0,1.74-.4c-2-.48-.33-1.66.43-2.58a23.38,23.38,0,0,0-2.63-4.24c.17-.63,1.57-.86,2.3-.81,1.87.11,1.73-4.43,3.83-5.6,3.57-2.15-5.39-7.09.55-7.77.76-.11,1.09-.75.6-1.37-.64-.78-.28-1.62.1-2.38a.87.87,0,0,0-.16-1.14c-.8-.76-.42-1.79-.73-2.73-.4-1.93,4.1-.75,3.56-4.15-.18-1.12-.15-2.17-1.09-3-.58-.61-.73-1.32,0-1.86.79-.75.34-2,1.1-2.82.73-.59-.07-1.51.31-2.34.61-1.77-.45-3.25-1.13-5-.68-.68.17-2.47,1.12-2.7.62-.18.78-.64.32-1a9.28,9.28,0,0,1-1.9-3.07c.42-.26.07-1.13.89-1.1.75-1,.32-2.52,0-3.62-.65-1.68,3.16-3.27.34-4.51-.66-1.86-.36-5.06,0-7.25.45-.95,1.5-2.38,0-2.73-1.1-.28.36-1.49,0-2.32-.14-2.44-.94-4.85-1-7.34-.7-1.49,1.41-2,1.14-3.41-1-1.9.16-7.5-1.72-7.6-1,.41-.85,2-1.48,2.78-.69,1.25.9,2.4.46,3.81,0,.44-.07.67-.6.71-1.58.52,0,3.77.24,5.07.61.89-.39,1.37-.46,2.18a.75.75,0,0,1-.57.92c-.73.88-1.47,2.47-.79,3.59s-.38,2.57-.75,3.67a24.69,24.69,0,0,1,.16,3c0,.64-1.94.2-1.65,1.7.32.7-.69,1.24-.29,1.7.42.19.92,1.69,1.55,1.21,1.36.73-2.79,2.87-2.39,4.44.19,2.43-1.88,3.64-3.57,5.07-.42.28.19.49.43.6,1.41,1.76-.28,1.31-1.12,2.23-.9.59-2.16-.57-2.74.85-.16.25-.33.22-.44.17-.67-.17-2.21-1.82-2.36-.4.08.79,0,2.23-1.07,1.73a.36.36,0,0,0-.61,0c-.71.49-1.63-.61-2.5,0-.58.15-1.41.06-1.38-.8-.25-.95,1-.37.66-.94-1.18-2.57-1.54-5.49-2.94-8-.44-1.67.47-3.24.12-5-.39-1.61-.13-3.26-.41-4.92-.71-1.52,1.67-2.78.45-4.12-.61-.7-.23-1.6-.17-2.41.24-1.6-1.67-2.58-1.34-4.07a2.44,2.44,0,0,0,.17-2.22c-.67-1.33,1.75-1.35.68-2.5-1.8-1.8-1.52-4.89-2-7.17.35-.6-.74-1-.76-.16C59.23,4.1,58,5,57.63,6.34c-.76,1,0,2.68-.5,3.88.07.76-.61,1-.84,1.47s-.29,1.3-1,1.37c-.5.56-.13,1.42.15,2.1.9,1.63-1.73,3.08-2.26,4.5-.75.47-1.79,2.78-.69,3.14.81,0,1.12,1.22.86,1.77-3.63-.33-1.22,2.34-3.24,3.62-.82.3.17,1.13-.54,1.51-.6.58-.14,1.11-.09,1.73-.72.93-1.67,1-2,2.16-.77.47,0,1.26-.36,1.82-.92.69-2.08,1.29-1.48,2.57,0,.77,2.51,1.72,1,2.28-.41,0-.68.08-.66.57-.18.53-.8.8-.81,1.44-1,1.82-2.94-.66-4.45-.54-.9-.12-1.28-1.23-2.19-.94-.64.2-1.14-.33-1.56.43-.87,1.29-2,2.38-3.48,1.29-1-.25-3.05-.8-3.34.36,0,1.12-2.46.72-2.62-.13-.07-.64-.8-.48-1.27-.52a1.7,1.7,0,0,1-1.67-1.14c-.06-.21-.18-.46-.51-.22-1.16,0-1.73-1.92-2.7-2.56-1.2-.94-.22-2.65-1.44-3.58-1.14-.58-.79,1.91-1,2.63,0,.71.06.71-.61,1s-.67,1-.71,1.58c.15,1-.63,1.65-1.36,2.11-.48-.29-1.28-.51-1.62.31,0,2.67-2,1.68-2.41,3.39-.07.81-.3,1.89-1.31,1.91-.33,0-.32.13-.34.38,0,.93-1.23.92-1.63,1.57-1,.49-1,2.07-1.77,2.91-.32.77-1.44.35-1.64,1.22C5.06,54.82,7.1,55,6.64,55.75c-.81,1.66.42,3.37-.76,5-.28.79-1.53.55-2.27,1a1.9,1.9,0,0,0-.74,2.13,6.75,6.75,0,0,1-1.29,1.82A2,2,0,0,1,.49,67.41c-.87.47-.3,1.3-.36,2C-.39,70.94,2.76,71.48,3.65,71.09ZM4.27,70c-4.37,2-3.42-2.26-2.7-.27.29,1.3,1.33-.48,2-.52.29.25.43.63,1,.69A1.33,1.33,0,0,1,4.27,70Zm.4-.23c-.5-.15-.4-.64-.64-1-.22-.16-.19-.29,0-.51.82-.94,1.5-2.58,2.39-3.16.75.11.36,2,1.18,1.23.22-.66.49-2,1.38-1.93.73,1.35-2.29,3.67-3.53,3.36S5.16,69.35,4.67,69.77Zm6-11.89c.31-.27,1.08-1,1.18-.22-.39,1.13,1.22,1.52,1.29,2.64-1,.11-1.32.94-2,1.18.21-.57.82-1,.46-1.69-.17-.39.47-.15.63-.41-.21-.51-.7-.27-1.12-.22C11.18,58.62,10.36,58.3,10.67,57.88Zm.31-5c-.44.28-.2,1-.69,1.27a1.29,1.29,0,0,1,1-1.8c.59-.19.72-1.11,1.38-1.14,1.51-1.25,1.18-1.25,3.28-.73-.48,2-3.11.51-3.9,2.18-.46.92-2.08,2-1.19,3,.1.24-.09.52-.12.77C9.16,54.67,11.3,54.54,11,52.86Zm1.89-2.74c.16-.22.27-.6.62-.23C13.34,50.05,13.06,50.27,12.87,50.12Zm6-5.75c.82,1.72.67.29,1.7,1,.44.3,0,.78.51,1.06.21.1.31,0,.31-.29.2-.71,1.61-.24,2.08,0-.73.23-.57,1-.84,1.56-1.72-1.06-3.21-.27-4.17,1.42-.68,1-2.1-.26-2.31,1.06-1-2.73,1.55-.9,1.76-2.23A4.39,4.39,0,0,1,18.82,44.37Zm1.41-.83c1.65-.69,1,1.49,2.06,1.47.14,0,.26.15.32.27-.95.4-1.49-.63-2.41-.75C19.48,44.51,19.63,43.63,20.23,43.54Zm34.33-14c.66-.74,1.78-1.35,1.73-2.47.11-1.77,2.46-3.08,1.62-5.05-.3-.76.55-.86.68-1.46.6-1.12.36-2.51.51-3.43.77,2.07.26,4.21-.28,6.2-1,2.35,0,6-2.78,7.19-.7,1-2.43,2-1.92,3.49,0,.5-.51,1-.84,1.41-.61-.63.08-1.61.07-2.35C54.5,32.14,54.06,30.55,54.56,29.49Zm-.88.11c-.31.41-1.44-1.45-1.29-2s.74-1.1,1-.21a5.4,5.4,0,0,0,2-1.87c-.06-.84.94,0,.62.16s-.26.66-.3,1C55.54,28,54,28.38,53.68,29.6Zm6.55-9.43a1.56,1.56,0,0,1,0-1.3c.42.35,1.47,2.29.35,2.21.16.71.34,2.61-.63,1.76C59.57,21.84,60.69,21.17,60.23,20.17Zm-.35-2.36a1.68,1.68,0,0,1,.31-.18,2,2,0,0,1-.08.73A.5.5,0,0,1,59.88,17.81Zm1.78,8.1C61.43,27,62,28,61.58,29c-.24-.58-1-1.28-.74-1.93a.23.23,0,0,0-.32-.32c-.91.59-.54-2.42-.64-2.88.23-.65,1,.65,1.36.89.48.5-.27.41-.51.78C61,26,61.62,25.22,61.66,25.91ZM62,31.52a1.54,1.54,0,0,1-.13,1.32c-.6.13-.16.58-.5.89A11.37,11.37,0,0,1,60,27.53c.33.39,1.11.86.79,1.43-.33.38.27.34.39.71-1,0-.65,1.47-.29,2.07a1.13,1.13,0,0,0,.16-1,.44.44,0,1,1,.77-.43A3.63,3.63,0,0,0,62,31.52ZM60.2,33c.14.55.77,1.3-.24,1.36C59.54,33.81,59.34,31.82,60.2,33Zm1,6.12c-2,7.54-1.48-.11-1.35-2.63a.17.17,0,0,1,.31-.08C60.6,37.37,61.89,37.86,61.24,39.15Zm-3.65-8.93c1.66-1.78.89-4.71,1.7-6.75.1,2.83.09,5.61.36,8.43C59.66,33,57.31,30.51,57.59,30.22Zm1.19,13.53c.18,1.56-.71,1.71-2,1.58-.86-.29-.65-1.85-1-2.61s.4-.49.58-1.07c1.18-1.94,2.58-3.41,2.77-.09C58.7,42.25,59.44,43.08,58.78,43.75ZM59,38.22c-.06,1-1.32.23-1.85.74-.75.68-1.11,2.38-2,2.3-.88.34-3.49-1.35-2.18-2.11,1.77-.24,2.86-1.64,4.44-2.33.68-.82-.52-2.87-.09-4.06C59.78,33.54,59.17,36.12,59,38.22ZM56.25,31c-.11,1.53.92,3.64.35,5.24-.91.12-1.59,1.89-2.27,1.58-.8-1.49.11-2.64.48-3.92A3.71,3.71,0,0,1,56.25,31Zm.87.68c.51-.25,1.67.74,1.75,1.15C58.39,32.88,57.06,32.28,57.12,31.7Zm-3.76,4.61c.26.87.58,2.77-.82,2.16C52.21,37.75,52.44,35.2,53.36,36.31Zm-.93,6.11c.41-.63.16-2.06,1.13-.88.36.63,1.44.44,1.42,1.33.31,1.67.5,4.1,2.69,3.13.4,0,.45.34.2.61-.86.25-.59,1.07-.73,1.63-.7,1.11,1.31,2.06.47,2.88-.2,1.18-1.38,1.22-2.19,1.89,0-.71-.94-1.15-.44-1.87.68-.89-.81-1.6-.11-2.5.1-.5,1.32-1.54.32-1.67-1.2-.25-2.88-.67-2.17-2.21C53.45,43.71,51.58,43.31,52.43,42.42Zm7.78,12.3c.14-.15.32,0,.49,0-.74.36-2.09,2.09-2.61,1.67-.05-1.59-1-4.37.87-5.17C59.75,52,58.52,54.85,60.21,54.72ZM85.15,53.4c.5,1.77-1.75.48-1.94-.44-1.58-1.66.57-1.39,1.74-1.09A2.73,2.73,0,0,0,85.15,53.4Zm-2.58,5c.29.7.07.94-.72,1-1.06-.53-2.51.41-2.69-1.16-.66-1.56-1.88-2.94-2.42-4.62,0-.67,1.07-1,.54-1.71-.48-.92.13-2.77,1.21-2.51.24.59.77.65,1.28.68,2.13.21,2.09,3.39,3.91,4.46.3.76-.48.62-.88.51A6,6,0,0,0,82.57,58.4Zm.08,14.67c-.09.29-.84.4-.61.86.29.63.45,1.64-.1,2.1-.22.16-.37.19-.23.58a1.62,1.62,0,0,1,.08,1.49c-.2.32-.34.56-.76.56s-.6.43-.41.81c0,.79-.7,1.4-1,2.1-2.56.67-1-2.92-3.59-2.4-1,.54-1.89-.7-2.64-.36-2.66.64-3.42-2.38-4.21-4.23-1-2,2.63-2.32,4-2.13,1.54-.23.89,2.61,2.42,2.32,2.06.14,4.25-.11,4.84-2.41a7.67,7.67,0,0,1,2-1.06A3.2,3.2,0,0,0,82.65,73.07ZM76.43,88.54c.79,1.64-1.41,2-1.06,3.5.11.26-.26.19-.4.14-.64-.64-2.55-.25-2.66-1,0-.88-1.18-1.51-1.65-2.25-.71-.6.11-4,.86-4.09,1.64-.47,3.56-2.38,5.13-.46V87A1.43,1.43,0,0,0,76.43,88.54ZM42,88c-.91.61-1.87-.38-2.2-1.23-.79-1.34,2.09-2.1,2.47-1,.25.3.45,1.06.94.82.26-.14.24.12.36.15C43.13,87.25,42.38,87.4,42,88Zm.16,1.93c-.62,0-.75.72-1.28.83C38.58,88.91,42,87.79,42.13,89.91Zm-5.42-2.68c.23,1.66-3,.77-3.92,1.76-1.13,1.18-1.75-.09-2.92-.23-1.57-1.24.63-4.27,2-5,1.6-1.33,5.26-.86,5.09,1.41C36.82,85.86,36.31,86.52,36.71,87.23ZM18.56,72.86c.23-.85,2.4-2,1.5-2.59-.54-.71,1-.31,1.38-.23.95.3,2.83.91,2.14,2.19-.22.42-.69.76-.29,1.3.09,1.31.08,1.58-1.42,1.83-1.26,0-3.42,2-3.31-.24C18.65,74.31,17.92,73.47,18.56,72.86Zm-2.3,5.56c-1.61,0-.54-1.54-1.39-2.22-2.42-1.8.9-4.41,2.87-3.49-1.28,2.2,2.2,3.34-1.63,5.53A.31.31,0,0,0,16.26,78.42ZM17.54,72a2.15,2.15,0,0,0-2.32.26c-.7-.28-.93,1-1.46.54-.15-.21-.48-.4-.55-.63.33-1.3-1.72-3.35.61-3.89.73-.94,1.78.14,2.75-.39,1.43-.31,1.65,1.57,2.82,2C20.16,70.1,18.27,72.54,17.54,72Zm4.12-22.92c3.37,10.25-5.5,2.16-9.86,7.36-1.24-1.29.57-4.4,2.19-4,1,.36,1.73-.41,2.44-1,.29-.48.06-1.26.93-1.06,1.74.07,2.42-3.27,4.36-2.19A2,2,0,0,0,21.66,49.08Zm1.17,2.4c0-.06,0-.15,0-.22,1.81,0,1.49,2.78.25,3.22C23,53.43,23.57,52.49,22.83,51.48ZM24,55.59c.42,1.18,1.61,1.79,1.4,3.12A8.32,8.32,0,0,1,22.29,56C21.32,55.07,23.74,54.43,24,55.59Zm3.74,1.16c.83,1.06-1,.9-1.33,1.6-1.11-.38.45-4.17,1.15-2.8C27.17,56,27.45,56.36,27.69,56.75Zm14.57,3c-.43-.52.21-.49.55-.33.81.68,2.35,1.23,1.9,2.45-1,4.58,6.2,3.53,8.47,6-2.14,2.15-5-2.23-6.86-1.56-.55-.2-.53-.58-1.25-.4-1.73.2-2.86-1.56-4.06-2.51C41.24,62.22,42.85,61.06,42.26,59.71Zm26.6-3.5c0-2.18,4.07.32,1.77,1.7-2.16.65-1.24,2.55-3.69,2.93-1.45,1.09-.58,3.31-2.37,4.26C63.39,61,62,59.77,67.26,58.91c.81.1.3-.72.4-1C68.38,57.46,69.45,57.27,68.86,56.21Zm6.65,3.61c-2.15,1-3.05-2.34-3.7-3.79-1.25-3.5,5.58-2.4,5.61.7.45.77-.68,1.19-1,1.71C76.62,59.23,75.84,59.38,75.51,59.82ZM68,74.15c1.19,1.26-.26.53-.13,1.26a.43.43,0,0,1-.24.74c-1.76.65-3.71,3.12-5.51,1.59a12.75,12.75,0,0,1-7.49-1c1.57-.3,3.79.65,5.28-.65.44-.41.88-.75,1.52-.36.77,0,1.5-.3,2.25.15.34.11,1,.08,1.05-.34-.13-1.24,1.32-2,1-3.17,0-.42-.09-.42.32-.38,2,0,2.16-3.94,2.73-5.56a2.61,2.61,0,0,1,.87,2.9c-.76,1,1.16,2.57-.16,2.91C68.75,72.72,67.43,73,68,74.15Zm1.16,2.6c1.37,1.08.65,3.1-.85,3.71-1.24,0-3.38-.24-4.21-1.22C65.87,78.94,67.38,76.13,69.19,76.75ZM54,79a19.06,19.06,0,0,0-.43,2.3c-1-1.36-3.2-.11-3.51-1.75a2,2,0,0,0-.58-1.73c-.09-1,1.33-1.67,1.23-2.84-.05-.88,1.38-1.35,1.78-.81-.26.94-1.14,2.4.47,2.54a5.34,5.34,0,0,1,1.5.11c-.07.48-.67.27-1,.23A1.9,1.9,0,0,0,54,79ZM46.8,82.05a8,8,0,0,0-1.23.35c-1.08-.32-1.68,1.64-3,.73-1.14-.36-6.34-.58-3.74-2.59,1.93,1.32,7.16,3.09,7.85-.37.16-.4,1-.17,1.28-.12.92-.32.81-1.2,1.17-1.89.79,1.5-.65,2.62-1.63,3.37C47.58,82.13,47,82,46.8,82.05Zm.67.81a3.46,3.46,0,0,1-1.06,1.51c-1.43,0-1.73,1.38-2.91,1.48-.8-.19-1.11-1.22-2.07-1.5.16-.34.39-.88.76-.47C44.12,84.63,45.58,82.33,47.47,82.86Zm-23.62-9.3c.77-3.82,1.93.87,3.48.64,2.15-2.22,1.87,2,3.29.32,1.4-.74,3.07,1,4.62.7.29,0,.43,0,.2.36-.19,2.7-2.28,2.16-4.25,2.57-.5.39-.79,0-1.06-.4-2.46-2.29-6.24,0-6.58-2A2.6,2.6,0,0,0,23.85,73.56Zm-1.8-9.63c.16.53.15.55-.47.68-1.67-1.54-1.78-4.38-2.46-6.35,2.08-3,5-.47,5,2.43C23.29,62.7,20.48,58.3,22.05,63.93Zm-4.91-5.07c0-.93-.72-1.73-1.05-2.68-1.57-2.17,4.31-.68,5.32-.72A24.73,24.73,0,0,1,17.14,58.86Zm.44.52a6.26,6.26,0,0,0,.76-.47c1,1.29.88,3.18,1.64,4.61-.07.53-1.6,1.8-1.92,1.2-.19-1.51,0-3.13-.71-4.51C17.07,59.84,17.38,59.62,17.58,59.38Zm1.39,6c2.37-2.17,6.56,2.31,4.6,4.87-1.4-1.2-3.56-.58-4.69-1.84-.44-.46-.89-1.13-1.57-1.19-.64.31-1.23-.21-1.93.12-.46.11.07-.54,0-.82C16,65.24,17.93,66.38,19,65.42ZM32.6,73.34c2-3.49,2.95,1.56.64.75C32.78,73.87,32.19,74,32.6,73.34Zm2.73.63c.52-1.19-.69-2.22-.77-3.4.4-1.17-.49-2.83.75-3.19,1-.45,1.87-.75,2.73.12.42.16.43.2,0,.42s-.52,1.07-.31,1.59a8.34,8.34,0,0,0,.91,1.66c.41.47-.23.71-.19,1.11-.09.74.66,2.5-.51,2.51C37.24,74.4,35.25,74.88,35.33,74Zm12.06.14c2.35.41,3.46.11,1.68,2.7-1,.51-.47,1.82-1.49,2.45-2.52-.76-1,1.42-2.58,1.94a1.71,1.71,0,0,1-2,0c-1-.36-2.94.45-3.16-1.13-.16-1.1,1.53-2.6.88-3.35-.11,0-.3-.43.16-.47.79-.39,2-.5,1.58-1.75,1.25.24,2.79,1,3.88,0C46.44,73.72,47,74,47.39,74.11Zm-.13-2c.74-1,.79.87,1.55.55.83.14,1.94-.36,2.54.37.17.29.28-.2.45,0,.12.33,0,.32-.21.33-.7-.19-1.1.27-1.67.48C48.76,73.32,45.49,74,47.26,72.06Zm-5.43.77c-1.22,1,.34,1.81-.39,2.24-2,1.09-2.36.19-2.14-1.72C38.48,71.9,43,71.75,41.83,72.83ZM46.51,72c-1,.49-.39,2.65-1.79,2.21-.62-.25-2.73-.08-2.31-.94.74-1.1,2.39-1.15,3.36-2.14C46.28,70.56,46.94,71.76,46.51,72Zm-.85-5a5.05,5.05,0,0,1-.28-.51,25.08,25.08,0,0,1,4.86,2.61C48.62,69.31,46.41,68.57,45.66,67Zm-.14,1.16c.24.3.5.58.75.87-.67,1.38-2.59,3.14-4.2,2.64a1.47,1.47,0,0,0-1.67-.15c-1.22.39-2.62-2.69-1.41-3.37,1.16.2,1.64-.47,1.95-1.42C42.08,64.54,44.5,66.84,45.52,68.12ZM35.9,77.06c.49-1,.21-2.31,2-1.48,1.13.57,0,2.38-.78,2.71C36.57,78.25,35.32,77.9,35.9,77.06Zm2,1.82c2.68-4.9,2.91-1.24.52.92a5,5,0,0,1-.47.32A1,1,0,0,1,37.88,78.88ZM48.6,81.52c.53-.46,1-1.35,1.65-.48.54.61,1.5-.39,1.84.39A14.14,14.14,0,0,0,50.89,83C50.39,82.58,48.13,82.39,48.6,81.52ZM63.29,70.4c2,1.24,1.56,2.91.59,4.66-1.81-1-11.61,1.09-10.58-1.78,1.72-.64,3.54.17,5.31-.33C62.37,73.62,60.47,69.12,63.29,70.4Zm-.8-3.46a1.18,1.18,0,0,1,2.05-.21c1.3.4,2.37-.1,3.64-.2-1.29,3.09-1.33,6.78-5,2.93-.18-.13-.43-.42-.67,0C62.1,68.82,62.38,67.7,62.49,66.94Zm-8.92,8.12c.66.75,1.68-.11,2.35.64.93.1,2.37-.77,3.13,0C58.3,76.41,50.14,76,53.57,75.06Zm5.33,3.51c.56.3,2.31-.12,2.2.57-1.92,0-4-.84-6.13-.66a.9.9,0,0,1-.8-.73A16.27,16.27,0,0,1,58.9,78.57Zm.1.92c3.7,1.85,1.84-.49,3.74-.67.79-.11,1.08,1.72.3,2-1.28.29-3,1.49-4.12.54-.92-1.06-2.07.77-3.06-.3s-1.4-.16-1.49-2C55.9,79.06,57.57,79.53,59,79.49Zm-1.15,2.38c.55-.37.81.13,1,.3,1.43,1,3.45-.37,4.8-.66.19,2.21-2.55,1.68-4,2-.85,1-1.58.27-2.43-.3-.61-.9-2.57-.54-2.75-1.5C55.06,80.63,56.87,83,57.85,81.87ZM70.22,65.78c1.83-.75,4.32-1.11,3.71-3.71-.08-.5-.78-2.14.13-1.69.27.38,1.39.25,1.3.75,0,1.65.07,3.3-1.24,4.65-.49,1.17-2,.32-2.49,1.3S68.76,66.3,70.22,65.78Zm2.06,1.82c1-1.17,2.6.39,3.77,0,1.55-.9,2.11,1,2,2.16-1.75,1.64-8.67,4-7.58-.61C70.33,67.62,71.55,68.44,72.28,67.6Zm3.23,4.33c.94-.29,2.35-1.21,3.15-.9.13.35.15.8.7.77a1.39,1.39,0,0,1-.2,1.58,3.11,3.11,0,0,1-2.69.58c-.32-.18-1.3.56-1.25-.23C75.09,73,74.46,72.29,75.51,71.93ZM76,66.72c-2.88.83-.76-1.49.16-2.51.82-.78,2.57.13,3.48.4,1.31.58.33,2.31-.05,3.18C78.2,68.91,77.71,65.9,76,66.72Zm-3.13-3.18c-.51,1-8,4.13-7.45,1.63,1.1-.56,1.35-1.77,1.46-3,0-.45.35-.73.76-.86,1.93-.36,2-2.81,4-3.1C73.17,59.06,73.22,62,72.91,63.54Zm-5.2-6.61c-1.8-.21-.36,1-1.34,1.33-6.15,1.42-3,2.91-2.7,7.3C61.45,65.42,62,61.28,61,59.65c0-.15-.18-.28,0-.35,1.39-.83,2-2.15,3.67-2.53,1.35.28,2.26-.53,3.35-.55A.4.4,0,0,1,67.71,56.93ZM61.5,63.26a.09.09,0,0,0,0,.05c-.78-.27-1.65.09-2.49-.19a3,3,0,0,1,1.34-2.92A27.39,27.39,0,0,1,61.5,63.26Zm-2.42,3.37c.68-.64-.52-2.84.49-2.67a2,2,0,0,0,2-.37c.62,2.86.35,6.2-1.55,8.36-.54.53-1.05.1-1.69.33a10.58,10.58,0,0,1-3.71-.15c-1.72,1-3.12-1-4.75-.3-1,.39-1.45-.82-2.46-.7s-.07-1.76-.75-2h.15c1.19.68,2.6.51,3.73.8A2.62,2.62,0,0,0,53.45,71C56.55,66.62,56.84,72.46,59.08,66.63Zm-5.24,3.11a1.77,1.77,0,0,1-2.76-.48A2.15,2.15,0,0,1,53.84,69.74Zm-.24-1.22c1.27-1,3-.74,4.45-.91a1.22,1.22,0,0,1-1.63.85C55.63,68.23,54.23,69,53.6,68.52Zm.46-1.31c-2-.58-5.5-1.49-2.8-3.79,1.08-1.81,2.8-.59,4.17-1.52,1-.44,2-1.06,2.82-.15a12.4,12.4,0,0,0,.28,2.43C59.48,67.54,56.06,66.49,54.06,67.21ZM51.63,62c-.33.69-1.47.41-1.23,1.41-1.26,2.41-2.55,2.35-4.44.45-1.87-1.36,1.5-2.75-3-5.12a.17.17,0,0,1,.07-.32c1.76.12,3.36-.45,5,.21.81.82,1.14,2.26,2.61,2.25C51.13,60.88,51.8,61.55,51.63,62Zm-9.89-3.51c-.81.93-1-1.63-.9-2A2.41,2.41,0,0,1,41.74,58.47Zm-.28,1.38c.44.83-.89,3.41-1.83,2.36-.38-.63.15-1.43-.48-1.92-.35-1.29-1.16-2.49-1-3.91-.32-1-2.27-1.12-3.21-.94-.09,0-.57-.31-.54-.56-.09-1.19-1-1.74-1.6-2.64,3.09-.49,3.44,3.65,6.38,3.53C40.74,56.51,40,58.82,41.46,59.85Zm-6.83-2.09c.59-.61-.25-1.86,1-1.65,1.87-.29,1.73,1.11,2.05,2.37C39.89,61.84,33.11,59.27,34.63,57.76Zm3.77,2.93c.17,2.28,2.06,2.79,2.86,4.6a2.26,2.26,0,0,0-1.21,1.42c-1.11,1.53-2.2-1-3.55-.62-.72.5-2.86.7-2.8,1.5s-1,.06-1.08-.3c-1.6-2.1-2-3.91,1.31-3.33.59.09.84,0,1-.44.09-1,1.41-1.11,1.48-2C36,60.18,37.56,60.82,38.4,60.69ZM32.29,68c.38.91,1.66-.41,1.61.72a2.88,2.88,0,0,1-.15,1.4c.47.75-.16,1-.58,1.41-.84.58-.94,2-2.19,2-.61.1-.92.68-1.37,0a1.89,1.89,0,0,0-2.56-.11c-4.25-3.7-2.56-5.15,2.43-4.74C30.91,67.59,29.8,65,32.29,68Zm-1.62-4.1c0,1.1.08,2.1-1,2.72-.45.54-.11,1.39-1,1.47-1.39-1.14-4.23,1.28-4.15-1-.13-1.1-1.75-1.14-1.51-2.48.17-.64-1.35-2.76-.11-2.6.47,2.33,2.14,2.62,4.26,2.16.45-.66,1.74-.71,1.6-1.72-.22-.63,1-.81,1-.18C29.56,63.13,31,62.85,30.67,63.85Zm-1.54-2.77c-1.53-.32-.95.9-1.67,1.57-.9.33-1.46,1.11-2.6.81-.66.2-1.24-1.15-.57-1.29,1.17-.31.05-2,.9-2.62,0,0,.28,0,.3,0,.19-.41.71.14.94-.36.11-.25.58-.35.91-.48C28.45,57.86,29.51,60.85,29.13,61.08Zm-3-6c-.48.22-.47.81-.65,1.25a2.54,2.54,0,0,1,.66-4.38C26.66,52.12,26.82,54.68,26.11,55Zm-9.66,4c.49.88-1.76.78-2.15,1.47-.84-1-1.94-2.21-1.92-3.6C15,54.1,15.46,56.86,16.45,59Zm-2.14,2.22a1,1,0,0,0,.1-.35c.8.11,1.92-1.22,2.35-.29a6.46,6.46,0,0,1,.13,4.67C13.7,65.42,12,64.19,14.31,61.22Zm.39,4.88c-.07.89-1.93,2.5-2.87,1.68a2.11,2.11,0,0,0-3.06.57C7,67.1,9.93,66.6,9.89,65.22c0-.5,0-.6.49-.67.9-.08,1.33-.81,2-1.25.3.64-.22,1.73.78,1.77C13.87,65.18,14.14,65.85,14.7,66.1Zm9.42,11.07c6.87-1,6.59,4.34,1.43,2.56-.64-.52-1.95.15-2.3-.87C22.23,78.89,23.53,77,24.12,77.17Zm-.29,2.9c5.88,2.18,4.11-.87,8.69-1.42.59.25-.49,3.55-1.56,2.75-2.68.24-5.24.12-7.94.16C20.34,81.09,21.77,79.44,23.83,80.07Zm.79,2.3c.78-.77,2.55.41,3.7,0,1.43-.13,2.76-.52,4.13,0a.16.16,0,0,1,0,.31c-1.43.13-1.93,2.53-3.24,2.15C27.07,84.45,21.59,86.22,24.62,82.37ZM34,82.14c-.66.2-1.52-.31-1.14-1,.39-2.47,2.81-3.85,4.16-1.45-.42,1.41,1.55,2.64.06,3.55C36.06,83.25,35.23,81.61,34,82.14ZM37.47,87c-.3-.71.16-1.5.33-2.2s-.35-1.21.22-1.65c.75.42,2.54-.39,2.9.75-.26.27-.27.69-.75.83-2.53.65-.27,2.42-.36,3.64-.57.88-1.22.48-2.06.42C36.68,88.35,38,87.69,37.47,87ZM43,88.06c1.35-.61,1.44-2.25,2.9-2.86,1.43-.3.56,2,1.56,2.55.26,1.14-.56,2.15-1.35,2.88C44.93,91.56,40.9,89.36,43,88.06ZM47.47,86c.1-.58-.57-1,0-1.51.6-.36.52-2,1.13-1.79s.69.86,1.27.6.85.15.85.71c-.36.84.8,1.53.24,2C50.06,87.21,47.51,88.28,47.47,86ZM53,87.39a12.12,12.12,0,0,0,3.52,1.08c2.42,1.16-1,4.9-2.49,4.52-1.19-1.6-3.31-3.5-3.29-5.5C51.3,86.06,52.12,86.57,53,87.39Zm-.47-1.12c-.79-1.08-1.56-2.44-.49-3.62a7.36,7.36,0,0,0,.5-.87,3.83,3.83,0,0,0,1,.28,1,1,0,0,0,.9.83c1.6.08,3.06,1.37,4.13,2.31C59.24,87.94,54,88,52.55,86.27ZM59,87.45c.64.22,2,0,1.83,1s1.32,2.69.5,3.1c-.66.13-1.6.19-2-.49-1.92-.25-.64-2-1.91-2.89C57.24,87.73,58.42,87.08,59,87.45Zm1.09-.6c-1.91-1.1.59-3.06,2.08-3,1.4-.39,1.64,1.43,2.12,2.24s.38.69-.49.69A9.84,9.84,0,0,1,60.09,86.85Zm4-3.13c.33-1-.38-3.52,1-3.11.57.28,2.43,0,2.15.82a2.37,2.37,0,0,0,0,1.68C67.64,86.17,64.53,87.32,64.05,83.72Zm2.23,2.84c3.39-1.06-.14-4.58,2.58-5.37.1,1.46,1.51,2.89,1.16,4.31.46.82-.65,1-.49,1.94-.1.93-1.27.83-1.77,1.49C66.82,88.92,65.19,87.48,66.28,86.56Zm1.28,3.93c0-1,1.66-1.91,2.41-1.5.29.69,2,1.64,1.42,2.23a5.92,5.92,0,0,0-2,1.7C68.13,93.3,67.15,91.57,67.56,90.49Zm7.93-7.6a4.44,4.44,0,0,0-3.85,1.23c-.5.2-.52.14-.82-.14-1-1.23-1.6-3-.56-4.35.33-.92,2.56-.26,3.27.16.35.15.44-.47.85-.15a1.71,1.71,0,0,0,.84.31C78.23,79.15,77.73,83.4,75.49,82.89Zm3.84-12.8c-.11-.57-.9.09-.66-.83-.13-1.06,1.32-.16,1.67-1,1.14-.36,2,1.38,2.08,2.14C81.26,71,79.33,72.45,79.33,70.09ZM79,63.62c-.8-.8-2.6-.09-3-.6-.28-1.9.52-3.26,1.64-4.7,1.14-1,0,2,3.89,1.86C84.11,61.8,81.46,65.06,79,63.62Zm4.21-7.25c-.09-.65.6-.48.92-.8.94-1.3,1.79.25,2.37,1.12C86,59,82.58,59.1,83.25,56.37Zm.51-5.32a2.33,2.33,0,0,1-2-.77c-.68-1.09-2.07-.54-2.85-1.38-1.56-1.07-3.16,1.5-2.36,3-.18,1.8-1.21-.77-2.11-1,.49-1.35,2.09-1.67,2.46-3.12.47-.5,1.66-1,2.06-.38s.84,1.22,1.37.4C82,44.65,83.06,49.89,84.38,51Zm-9.32.58a2.49,2.49,0,0,1,1,1.71c-1,.23-2.2-.54-3.17,0a.54.54,0,0,1-.68-.09c-1.24-.73-1.6-2.19-3.14-2.4-1.5-.39.66-1.52,1.1-2,1.6-.91,2.8,2,4.29,2.22Zm-5.61.21c2,1.93,3.47,2.48-.24,3.15-1.62,1-3.37.8-5,1.44-1.28.27-.93-1.63-1.61-2.15-.52-.09-.93-.75-1.56-.33-.05,0-.39-.2-.4-.33.1-.55-.39-2,.39-1.92,1.93.66,1.35-1.55,2.63-2,1.1-.06,2,.87,3.43.54C67.44,50.65,67.51,51.72,68.83,51.84Zm-14.59.33c.28.35.56.64.27,1.16,0,1.14,1.94.08,2.33-.45.08-.06.3,0,.26.13-.45.56,0,1.16.07,1.65-.51,1.69-3.76,1.36-5.29,1.46-.64,0-.05-1.07-.87-1.12-2.64-2.15,1.28-4,3.24-4.6C54.94,50.53,53.35,51.51,54.24,52.17Zm-3.56,3.45c.15.13.44.18.38.42.06,1.39,2.29.81,3.27.87s2.22-1.41,2.94-.59c-.06,1.22-2.21.67-2.94,1.33C51.83,59.31,50.08,58.85,50.68,55.62Zm2.17-9c.21.74,1.93.42,1.56,1.33-.82,2.16-2.35,2.79-4.47,3.58-1,.67-1.65-.41-2.55-.65-1.79-.92.25-1.42,1-1.84.89-.71,2.15-.59,2.86-1.54.2-.25.38-.75.93-.4.28.12.28-.45.42-.63C52.71,46.52,52.83,46.56,52.85,46.63Zm-6,4.7a8.5,8.5,0,0,0,2.42,1.35c.22,1.37.79,3.11-1,3.52-1.48.36-1.06-2.89-3.67-1.73C44.52,53,44.74,49.55,46.89,51.33Zm-1.69,3.8c1.35-.24,1.25,1.53,2.36,1.93,2.76-.39,2-1.48,2.69,1.71.6,2.09,5.64-1.38,7.39-1.17,1.46.25,3.32-3.26,4.24-2,1.25,2-1,2.79-2.29,3.52a4.71,4.71,0,0,1-1.23,1.81c-1.77-1.47-2.89.84-4.88.6C52.24,61.65,52,60,50.85,60.2c-.85.07-1.31-.51-1.59-1.23-.74-2.45-3.85-.54-5.47-1.22C40.4,58.05,43,54.49,45.2,55.13ZM44,52.28c0,1.64-.61,2.16-1.86,3-1.94,1.83-3.18-2.21-4.87-2.8-1.16-.86-1.14-3-1.58-4.29.74-1.2,3.1-2.42,4-.86.4.82,1.2.87,1.91.93.43.25,1.14.12,1.16.93C43.83,50,44.47,50.86,44,52.28ZM36,51.87c.6,1.4,2.3,1.89,3,3.18-2.67-.11-2.91-4-6.28-3.62-1.09.18-2.25,2.38-3.48,1.37-.91-1.84,2-1.24,2.67-2.28C33.5,49.8,35.7,49.49,36,51.87Zm-6.52,2.4c.42-.86,1.6-.66,2.25-1.42.22-.16.3-.15.53,0,1.36,1,2.81,3.33,1.53,4.82-.87.85-1.06.92.25,1.52.77.43,2.48,1.65,1.43,2.46-.81.23-1,1.27-1.66,1.63-1.17,0-2.73.11-3.28-1.14-.53-2-1.9-3.44-2-5.47C27.63,55.56,28.82,54.94,29.43,54.27Zm-.71-3c-1.27.84.21,1.81-.12,2.72-1.69,1.82-1.83-2.66-.57-3.14C28.28,50.6,29.19,50.78,28.72,51.25ZM28,49.91c-2.32,2.74-4.8,1.22-5.82-1.61C22.7,48.48,29.71,49,28,49.91Zm-10.87-1.8a2.6,2.6,0,0,0-1.23.15c.21-.45,1.24-1.14,1.55-.43C17.5,48.09,17.29,48.12,17.08,48.11ZM11,56.93l.21.08c-1.44,1.67-2-2.55-1.14-.65C10.43,56.6,10.71,56.77,11,56.93Zm1.74,4s.49-.13.72-.2c.81.7-4.21,4.81-4.19,2.88-1.54,1-1.69,1.22-1.15-.78.1-.29.28-.39.6-.14C10.36,63.82,11.43,61.49,12.73,60.88ZM7.36,70.5c-.51-.56-1.77-.72-1.84-1.53,1-.76,2.11-1.19,3.26-.36,0,.08.05.17.06.24,2.81-1.85,3-.37,3.5,2.16.09.14,0,.39-.29.24C10.52,70.46,8.74,71.85,7.36,70.5ZM4.85,76c.15-.29.38-.68.88-.32,1,0,2.45-1.56,2.65-2.58a14.84,14.84,0,0,1,2.17,4.83C10.31,81.84,2.55,79,4.85,76Zm4.88-2a14.61,14.61,0,0,0-1.29-2.14C17.19,69.88,11.81,80.72,9.73,74Zm1.45,4.39c.27-1.09,1.65-2.59,2.71-2.2,1.17.59-.29,1.9,1.1,2.45,1.11,0,1.69,1.93.22,1.61-.69-.27-1.26.12-1.88.11C12.68,80.05,11.09,79.2,11.18,78.4Zm6.72,4c-1.15,1-3.27-.32-4.07-1.43.46-.48,1.91.22,2.53-.23C17.16,80.41,18.47,81.64,17.9,82.42Zm-.76-2.34c-1.37-2.69,4.15-3.84,6.11-4.21.21,1.26-1.16,1.46-1.27,2.66,0,.54-.23,1.38-1,1.42C18.77,80.7,19.52,82.05,17.14,80.08Zm3.14,6.06c-.59-.29-1.89.24-2.05-.44-.05-1.57.88-5.94,3.08-4.34.41.22,1.51,1.5,1.66,1.19s.45-.3.73-.3C23.56,83.7,22.49,86.85,20.28,86.14Zm4.94,2.2c-.82-.3-2.72.29-2.74-1-.55-2.86,3.65-1.85,5.44-2,1.88.07.75,2,.75,3C28.3,89.75,26.16,88.47,25.22,88.34Zm9.17,2.4c-.76-.34-1.11,0-1.61.53-1.82,1.31-4.5.62-6.52,0C26.1,90,28.85,89.09,30,89.6c.7.3,1.28,1,2.1.58A5.09,5.09,0,0,1,37,89.46C37.09,91.34,35.52,90.73,34.39,90.74Zm5.15,3.1c-2,0-5.59-.17-2.84-2.52.81-.49.94,1.15,1.48,1.53.4.63,1.18.46,1.58.94A.59.59,0,0,1,39.54,93.84Zm.3-.82a4.31,4.31,0,0,1-2.3-3.5c1.49.15,2.28,0,2.58,1.66A1.18,1.18,0,0,1,39.84,93Zm1.67,1.15c-.54.49-1.14.29-1-.41C40.7,93.24,42.17,93.66,41.51,94.17Zm1.86-3.35c2.09,1.15,1.23,1.93-.52,2.49C40.1,93.2,40.89,89.87,43.37,90.82Zm8,3.5a3.44,3.44,0,0,1-2.62,1c-.7,0-.29.92-1,.84-2.07.82-4.26.6-4.6-1.94.62-.93,1.89-.19,2-1.68,0-1,1.06-.77,1.62-1.48.18-.21.27-.57.49-.67,1.15-.42.58-1.67,1.23-2.27,2.4-.51,2.89,3.92,4.76,5.11C53.85,94.25,51.37,93.32,51.38,94.32ZM57.7,95c-1.06.44-2.35,2.78-3.54,1.28-.5-.31-2.27-1.19-2-1.73A6.11,6.11,0,0,1,55,94.31C55.83,94.15,58.07,93.66,57.7,95Zm0-1.45c-.77-.4-1.52.1-2.25-.09,1.07-1.29,2.38-3,3.88-1.32C58.76,92.49,58.45,93.75,57.72,93.5ZM63,94.83c-2.35,3.86-6.82.35-2.95-2.31.87-.21,1.82.16,2.52-.64A4.84,4.84,0,0,1,63,94.83Zm0-4.17c-.93,1.12-2-2.79-.84-2.73.71,0,2.2-.61,2.56-.13C64,88.61,63.79,89.75,63,90.66Zm2.27-2.52c.56.12.7.89,1.38.93.4.15.57.31.32.74a2.83,2.83,0,0,0-.32,1.53c.39.45.18.59-.27.71-1.14.7-2.53.4-2.73-.89C64,90,65.07,89.29,65.25,88.14Zm7.84,8.15c-1.13.51-2.39.23-3.53.45-.44-.17-.86-.32-1.07.32-.24.35-.83.21-1.2.19-1.23-.1-1.48-1.47-2.59-1.94-.36-.6-1.53-2.46-.84-2.46,1.2,1.17,2.92-.76,3.94.34,1.56,1.59,3.44,3.13,5.64,2.92C73.32,96.17,73.21,96.24,73.09,96.29Zm.81-.11c-.07-.07-.07-.21-.11-.32l.38.11C74.29,96.25,74.2,96.44,73.9,96.18Zm3.49-1.65c-.6.44-1.59.37-1.87,1.12,0,.28-.4.2-.63,0a2.09,2.09,0,0,0-2.27-.28c-1.13.07-2.23-.9-3.09-1.64a11.49,11.49,0,0,1,1.62-1.65c2.06.14,3.56.13,4.54,2,.68.3,1.57,0,2.13.13C77.91,94.67,77.54,94.45,77.39,94.53Zm2.42-3.44c1.17,2.47-5.55,3.65-3.92.86C78.89,90.28,75.09,83.46,79.81,91.09Zm1.57-5.79c-.22.88-3.6,1.73-3.86.94-.11-.92,0-2-.62-2.74.11-.29.48-.51.7-.76C78.52,81.27,82.3,83.52,81.38,85.3ZM83.83,78c1.31,1.52.08,2.86-1.06,4-.41.35-.52,1.61-1.3.84-.4-.4-1.32-.72-.93-1.41s.45-1.66,1.08-2.06c1.17-.34,1-1.73.86-2.66C83.18,76.69,83.42,77.57,83.83,78Zm.34-5.12c-1.33.07-1.09-2.15.21-1.69C84.75,71.92,85.19,72.9,84.17,72.91Zm.73-4.1c.68,1.07-2.35,1.83-2.17.6.12-1.41-2.2-1.21-1.82-2.52a2.11,2.11,0,0,1,2-1.64C85,64.72,83.75,67.92,84.9,68.81Zm2.6-8c1.09,3.86-4,3-6.14,4.22-.39,0-.16-.41-.08-.63,3.82-1.51,1-2.78,1.84-4.7,1.14-1.49.72.07,1.93-.37C86.45,58.15,87.46,59.24,87.5,60.86Zm.52-9.6c-.33,1.08.23,2.25-.78,3.22A3.89,3.89,0,0,1,86.86,56c-.55-1.28-1.16-2.15-1.14-3.45.57-1.36-1.36-2-1.67-3.28-.14-1.09,1.47-1.68,1.15-3,.43-2,2.23.69,2.15,1.66C87.57,49.13,88.55,50,88,51.26Zm-.85-9c0-.11.12-.22.18-.33,1.92,1.85.29,1.25-.27,2.73-4,1.32-1.65-.62-3.39,3.37-4-2.9-1.07-3.6-.24-7C83.74,42.35,87.13,43.72,87.17,42.28Zm.32-18.58c.19,2.34-.91,5.47.41,7.42.36.21.85.6.7,1.06s-.36,1-.95,1.14c-.85.66-.12,2.32.16,3.16-.48.54,0,1.31-.34,1.76-1.46.7-.84,2.3-1,3.53-1.18,1.08-2.36-.69-2.75-1.73.82-2.64,2-5,2.42-7.64,0-.56.09-1.14-.64-1.36-.71-1.35.83-2.88,1.12-4.28-1.83-4.27-1.26-3.46.58-7.56.25.7-.58,1.77.45,2C89.28,21.37,87.21,22.81,87.49,23.7ZM83.86,34.31c-.59-1.13,1-1.33.86-2.4,0-.34.24-.57.48-.45.65.68-.11,2.18-.42,2.93-.7.73-.36,1.31-.59,2.07C83.28,36.07,84.18,35,83.86,34.31ZM86.93.75C87.65,2,87,3.62,87.18,5S88.6,8.4,86.9,9.06c.51-.82-.68-.84-.2-1.24s.48-2,.13-2.26c-.24.61,0,1.29-.43,1.69A1.83,1.83,0,0,1,86.77,5C86.9,3.67,85.92,1.81,86.93.75Zm-.79,11.91c-.25-.19,0-.48,0-.73.09-.42.08-.57.37-.74C86.78,11.7,86.82,12.59,86.14,12.66Zm-.37-9.31a4.55,4.55,0,0,0,.31-.47,2.41,2.41,0,0,1,.2,1.44C85.77,4.15,85.69,3.85,85.77,3.35ZM86,9.41c1-.27.14,2.05-.16.72C85.62,9.7,85.8,9.5,86,9.41ZM86,11a1.91,1.91,0,0,1-.24.56c-.1-.27-.25-.5,0-.76ZM85.5,9.19c-.39-.11-.78-1.4.11-1.26C85.72,8.26,85.88,9.09,85.5,9.19Zm-1.13,7.48c.26-.36.54-1,1.1-.87C86.19,16.86,83.82,18.35,84.37,16.67ZM81.43,29.09c.84-.74.95-1,1,.42C82.33,30.14,81.74,29.43,81.43,29.09Zm1.32-.18c.36-.45,1.31-.7.69-1.38-.12.09-.35.19-.35.27,0,.62-.41.32-.66.37-.33-.41-.3-1.74.48-1.6a.59.59,0,0,0,.7-.17c.53-.53.86.63,1.47.64,1.15-1.93-1.62-1.75-1.06-2.51.25-.49.7-.79.22-1.37-1.81-1.4,3.82-6.18.15-3.72-1.49-2.3.86-.6,1.45-1.82a3,3,0,0,0,.11-2.3c-.11-.35-.15-.59.13-.84.56-.41-.11-.87.48-1.46.68.57-.11,2.08.65,2.84.27.61.47,1.55.08,2-.73,0,.2,1.11-.73,1-.07,0-.19.24-.21.38-.21,1.94-2.91,3.48-1,5.31a5,5,0,0,1-.51,4.55c-.12,1.13-.67,2.95-1.43,3.41-.16-.24-.12-2,.44-1.79.13-1.85-.79-.31-.89-1C82.89,29.46,83,29.14,82.75,28.91ZM84,25.59c.15-.28.33,0,.55,0C85.3,26.72,84.27,26,84,25.59Zm-1.34,10.5a.37.37,0,0,1,.59.38c-.72-.11-.93,1.15-1.54,1a.47.47,0,0,1,.35-.75A6.38,6.38,0,0,1,82.61,36.09Zm-.6-1.4c-.23-.7.65-.45,1.07-.55C83.57,35.32,82.65,35.48,82,34.69Zm.69-3.11c.08-.15,0-.76.38-.3-.22.11,0,.83-.5.58C82.62,31.66,82.65,31.61,82.7,31.58Zm-1.42,1.91c.55-.41.92-1.22,1.46-1.25a1,1,0,0,1-.63,1.5c-1.59.22-.46,1.2.15,1.83-1.32,0-.92.85-1.15,1.83C80.17,38,80.74,33.78,81.28,33.49Zm-2.67,5.78a3.37,3.37,0,0,0,1.67-1.42c.29.07,1,.21.73.63-1.11.94.3,2.5-.89,3.26C78.83,43,79,40.74,80,40.37c-.54-.69-1.26,0-1.8-.73A5.07,5.07,0,0,1,78.61,39.27Zm-1.23.94c.67-.58,2,.59,1,1.53C78.1,41.18,78.16,40.37,77.38,40.21ZM78,42.4c.11,0,.24.05.37.08a1.12,1.12,0,0,1-2,.48A13.32,13.32,0,0,1,78,42.4ZM75.7,44.49c.31-1.56,1,0,2-.78.39-.28.56,1,.27,1.12-.86-.41-1.42.77-2.11.34C75.71,44.88,75.61,44.59,75.7,44.49Zm-2-.46c.33-.87,1.86-1.19,1.76-.15-.6.36,0,.83-.29,1.28-.41-.49-.71-1-1.45-1C73.6,44.17,73.66,44.08,73.68,44Zm-1.6-.12a2.74,2.74,0,0,0,2.16.85c.7.59-1,.66-1.41.66s-.57-.6-.86-.82C71.88,44.25,71.6,43.72,72.08,43.91Zm-1.09,0c.31-1.12.3.6.64.87C71.37,45.45,70.8,44.32,71,43.94Zm.26,1.38c.71-.1,2,.53,1.62,1.32C71.59,47.19,69.32,46.42,71.25,45.32Zm.24,2.14c.35.13.69.55,1,0,1.31.2.69-1.26,1.36-1.48s1.41-.54,2.18,0c.75,0,1.41-.63,2.24-.5.4,0,.53-.47.5-.77-.13-1.49.94-2.09,2-2.61,1.09-.81-.16-3.07,1.22-4,.62.07,1.64-1.8,1.77-.9a48.61,48.61,0,0,0-1.4,4.82c-.45,1.36-2.21,1.89-1.75,3.5.54.47-.9,2-1.34,1.16a1.13,1.13,0,0,0-1.54-.26c-.39.16-.91-.31-1.2.24-.36.94-.86,2-2,2.06-.54,3.1-1.83.35-3.45-.36-2.23-1.15-4.1,2.7-6.4,1-.44-.63-1.06-.47-1.67-.42-2.32,1.11-1.21,3.54-4.58,1.06-1.93-2.06,1.11-4.66,1.49-6.75a4.9,4.9,0,0,0,1.92-2.6c.78.23.89,1.65,1,2.57-.75.23-3.71-.36-1.48.77,1.32.59-.27,1.54-.85,2.11-.22.73.85,1.25,0,2-.61,1.21,1.56.93,2,.26a.73.73,0,0,1,1.1-.1c.59.3,1.42-.29,2.1.32C67.69,49.84,68.67,45.82,71.49,47.46Zm-8.55-.67c.53,0,1.9,0,1.57.82-.29,0-.65.06-.85-.08-.88-.61-1.37.32-2.08.56.36-.76-.74-1.86.36-2.27,1.55-.24-.16-1.79,1-2A.36.36,0,0,1,63,44l.1-.08c1.38.05.77,2.25-.25,2.13C62.54,46.16,62.76,46.6,62.94,46.79ZM69,45.41c.33.74.74.24,1.26.29C70.17,47.26,67.82,45.31,69,45.41Zm-.32.83c.17.32,0,.51-.22.73l-.12-.41A.62.62,0,0,1,68.71,46.24Zm-.66-.66a3.83,3.83,0,0,0,.32.28c-.42.28-.17.86-.59,1.08C67.71,46.53,67.19,45.11,68.05,45.58Zm-1.1.24c.63,1.17.36,2.92-1.24,2A2.14,2.14,0,0,1,67,45.82Zm-2.18-.57a9.48,9.48,0,0,0,1.47.34c-.5.4-.83,2.07-1.54,1.21-.07-.39-.62-.51-.7-.67C64.16,45.81,64.29,45.12,64.77,45.25Zm-2.18-8.08c1.13,1.41,1.12,3.63,1.72,5.32.75.71-.68,1.26-1.13.82.41-1.75-.28-2.39-.73-3.81-.22-.49-.23-.52.25-.53C63.6,38.74,62.23,37.7,62.59,37.17Zm.07,1.38c-1.14.23-.43-1.59-1.54-1.89-.73-.53-.82-1.61.15-1.94C60.88,36.15,62.38,37.12,62.66,38.55Zm-.17-2.1a.3.3,0,0,1,0,.16c-.4,0-1.1-1.08-.48-1.16A6.67,6.67,0,0,0,62.49,36.45ZM61.72,18c.26.92-.39,1.77,0,2.59.11.62.84,1,.54,1.65-.14.79-1,1.13-.74,2-.81-.37-.53-1-.37-1.75.35-.54-.43-.78.19-1,.78-.83-.65-1.92-.49-2.92C60.78,16.81,60.58,15.52,61.72,18ZM60.05,7.48a.7.7,0,0,1,.08-.2,6.32,6.32,0,0,0,1.15,2.78c.56,1-.75,1.88-.91.4C59.39,9.47,59.8,8.6,60.05,7.48Zm-.66-3.63s0-.09,0-.14c.38.69.76,1.57,0,2.27-.15.14-.12.24.1.33.69.22,0,1.24-.26,1.61,0-1-.77-1.06-.9-1.87C58.74,5.21,59.06,4.53,59.39,3.85Zm0,5.42c-.51.42-.22-.73-.23-1A2.11,2.11,0,0,1,59.38,9.27Zm-2.75,3.35C58.06,11,57.79,9,58,7.13c.89,1.39,1.87,5.24-.34,5.71C57.35,12.78,56.36,13.18,56.63,12.62Zm-1.16,5c2.51-1.75-.59-3,.44-4.12.22.69,2.56.89,1.51,1.57-.67-.1-.36,1.24-.08,1.47-.06-.85,2.53-2.45,1.47-2.6a2,2,0,0,1-2.16-.42c.53-.64,1.83.26,2.09-.89.07-.2.15-.37.46-.29,1.26.22-.16-1.56.31-2.12.45.23.47.7.53,1.15s.74.82.64,1.51c-.11,1.08.13,2.61-1,1.06-.41.54-.42,2.4.67,2,.13,1.4-.84.09-1.4.13s-.33.58-.56,1c-.21.78-.69.23-1.3.37.08.44.58.44.63.85-1.75-.53-.93,1.09-1.61.78C56.17,18.42,54.85,18.25,55.47,17.65ZM53,22.44c-1-.74,1-2.33,1.3-3.24.35.6.77.34,1-.2.44-.62.92,1.85,1.36.43.43-.79.59-.81,1.5-.58.73.37-.4,1.75-1,2-.57,1.05.86,2.66-.61,3.54.15-1.11-.35-3.22-1.83-2.63a10.62,10.62,0,0,1,.4-1.07c-.76,0-1.34,1.86,0,1.56,1.14,0,1.46,1.89.66,2.47C54.23,24.44,54.2,22.92,53,22.44Zm-2.82,7.7c.57-.4.18-1.13.56-1.56.73-.44.78-1.19,1-1.89.13-2.13,1.69-1.35,3.11-1.34-.38.64-1.25,1.31-2,.62,0,0-.3,0-.37.1-.59.88-1,2.44.07,3.1C54.76,30.51,49.25,32.29,50.2,30.14Zm-1.27,2.62c.72,0,1.47.21,1.5-.87,1.53-1.24,1.3,1.64,3.19-1.56.06,1.46-1,2.88-1.41,4.26.76,1.18-1.12,1.62-.63,2.85,1,2.05-1,3.33-1,5.29-.17,1.33-1.66,2-2.61,2.59-.88-.27-1.55-1.5-2-2.23.67.09,2.29.69,2.64,0-.19-.54.07-.82.32-1.28-.09-1.25,1.17-.47,1.44-1.28.72-1.48-1.58-2.09-.78-2.63,2.08-2-.72-1.18-.81-2.59a.56.56,0,0,1,.7.07c.54.56,2.56.68,2.53-.17-.38-.51.25-1.64-.64-1.63C50.86,33.79,48.24,33.53,48.93,32.76ZM47.64,47.2c-.54,0-1.06-.12-1.61.2-1.32-1.25-.38-2.25,1.19-1.58a3.68,3.68,0,0,0,.75-.34C48.23,46,48.29,46.91,47.64,47.2ZM47,38.31c-.4.6-.56-.58-.65-.85.05-.92,1.26-1.11,1.62-1.71-.6-2.85.76-1.81,2.62-1.7.66-.16,1.2,1,.51,1.14-.92.18-1.64-.49-2.55-.31-.73,1.59,1.55,1.58,1,2.29C49.14,38.08,47.52,37.38,47,38.31Zm2,.09c-.34.48-1.06,0-1.37.56l-.17-.16C47.74,38,48.29,38,48.93,38.4Zm-2.76,3.41c.45-.32.64-.93,1.24-1.1.56-.38.4-1.29,1-1.67,1.13-.59,2.3,1.46.76,1.4-1-.13-.6,1-1.14,1.39s0,.58,0,1c-.43,0-.68-.8-1.07-.49C47,43.27,45.35,42.37,46.17,41.81Zm-2.7,1.77c.65-.26,1.6.53,2.06-.32a9,9,0,0,0,1.27,2C45.27,45.07,43,46,43.47,43.58Zm0,2.39c1.16.05,1.51,1.21,2,2,.72.41,1.41-.11,2.14,0,1,.17,1.44-1.11,1.24-1.85-.22-.29.17-.43.32-.55,2.05-.7,2-2.64,2.55-4.36.93-1.2,0,1.47-.14,2-.12.88,1.3.73,1,1.61-.18.53.13,1.75-.68,1.67-1.19-.14-1.45,1.35-2.64,1.35a2.21,2.21,0,0,0-1.12.6c-.65.6-1.57.5-2.15,1.32-.3.29-.55.65-1,.18-1.36.19-1.27-1.61-2.05-1.82-2.94-.25-4.55-4.48-7.45-.82,0-.44.22-.89.08-1.38,0-.78,1.3-.79,1.83-.61.64.52,1-.17,1.59-.27.38.23.66.22.83-.24.63,1.19,1.53,1.34,2.52.23C42.6,45.39,42.92,45.92,43.44,46Zm-3.92-2.08.33-.35C40.16,44,39.66,44.51,39.52,43.89Zm2.56-.41a4,4,0,0,1,.28-.43c1,.8-.78,1.62-1.39,1.91,0-.39.39-.58.62-.85C42,44,42,43.68,42.08,43.48Zm-3.92-1.83c.42.08.86-.31,1.16.19.7.52,1.88.33,2.28,1.31.15.31-.84,1.4-1,.85s-.22-1.27-.84-1.44c-.63.42-1-.08-1.52-.33C37.09,42.4,37.18,41.23,38.16,41.65Zm-2.6,2.05c.16,0,.3,0,.33-.23.73-1.41,1.2.61,2,.44-1.1-2.33,1.3-1.12.7,0-.31,1.12-.91.51-1.8.62-.41,0-1.52.31-1.52-.29C35.25,44,35.07,43.62,35.56,43.7ZM35,48.3c.77,1.89-.72.33-1.6,1.18a1,1,0,0,1-.9,0c-.84-.33-1.33.66-1.94,1.05-.89-.08-1.93,0-1.71-1.14,0-.53-.21-.84-.72-.8A41.29,41.29,0,0,0,23,47.79c0-.41.39-1.31.81-1.31s.54-.12.49-.47c-.08-.62.92-.4,1.15-.11l-.65.18a8.49,8.49,0,0,0,2.86,1.37c.87.95,1.8-.41,2.73.24.63.29,1.14,2.26,1.72,1,.36-.71,1.19-.16,1.66-.73C34.46,47.63,34.72,47.46,35,48.3Zm-9.83-3c-.58-.5-.23-1.58,0-.5a.77.77,0,0,1,.34.5Zm1.57.1c1-.33,1.19.79,1.45,1.45a1.15,1.15,0,0,1,.2.24C27.67,46.75,26.37,46.43,26.74,45.43Zm2.17,1.63c.18-1.25,1.51-.25,1.72-1.34.06-.31.14-.22.25-.06.69.48.75,2.11-.31,1.47C30.12,46.58,29.46,46.82,28.91,47.06Zm4.33-.36c.75.93-1.27.85-.39.1A1,1,0,0,0,33.24,46.7Zm-.07-1.86c.69.36.45,1,.73,1.48C33.37,46.82,32.9,45.32,33.17,44.84Zm-1-2c1.33.26,3,1,2.06,2.58-.45-.71-.74-1.4-1.66-1.61C32.18,43.91,31.52,43,32.22,42.88ZM30.6,44c.16-.23.28-.69.56-.91.45.39.2,1.08.95,1.15s.57,1.06.82,1.7c-.6,2.09-2.09-.89-2-1.84-.34,0-.22.64-.56.4S30.32,44.07,30.6,44Zm-1.34.23c1.74.53.81,1.72-.49,1.81C27.74,46.42,28.9,44.26,29.26,44.19ZM25,42.4l1.76.65c.19,1,.89.66,1.53,1-.27,1.13-1.32.52-2.08.91-.47,0-1.64-1.26-.93-1.59s-.47-.56-.51-1C24.89,42.41,25,42.37,25,42.4Zm-2.68-1.91c.91.12,1.05,1.76,2,1.91a1.72,1.72,0,0,0,.72.93c-1.07,0-1.51-1.79-2.55-2.08C22,41.13,22.21,40.82,22.36,40.49Zm.28,1.81a1.41,1.41,0,0,1-.15-.49l.39.26C23,42.45,22.82,42.49,22.64,42.3Zm-.82-.5a1.43,1.43,0,0,1,.08-.22c.28.6.26,1.32,1.07,1.38-.21.16-.74.13-.79.21.62.66,2.34-.08,1.6,1.67C22.62,46,21.17,43,21.82,41.8Zm-.21-.58-.28,0c0-1-.55-1.84-.72-2.86C21.59,38.92,21.56,40.18,21.61,41.22Zm-1-1.55c.49.69-.44.66-.86.44C20,39.89,20.42,39.23,20.64,39.67Zm-.94-4c.94-.5.31,3.62-.33,1.58C19.48,36.61,19.59,36.14,19.7,35.67Zm-1,6.13c0-.13,0-.25-.07-.38a1.87,1.87,0,0,0-.73.25c.1-4.41,3.24-3.12,1.62-2.22-1.07-.26-1.28.86-.58,1.42,1,1.14.12,2.65-1.22,1.7C17.83,42,18.72,42.27,18.72,41.8Zm-1,2.34c.22-1.74,1.86-.2,2-1.5-.14-1.08.29-.61.94-.62-.27-.43-.76-.6-.44-1.19.46,0,1.89,1.42,1,1.55-.81-.09-1.21.77-1.61,1.21-.19.19-.31.36-.66.13-1-.27-1.13,1.27-1.53,1.78C17.09,45.08,17.61,44.58,17.71,44.14Zm-1.6-1.62c.61.5-.23,1.39,0,2.08.71.35.5-.74.83-1.13,1.35-.9-.43,2.09-.07,2.81a.45.45,0,0,1-.28-.39c0-1.24-1.75-.67-1.77-1.53C15.08,43.56,14.74,41.8,16.11,42.52Zm-1.86,3.61c.06-.3.15-.59.22-.88a1.57,1.57,0,0,1,1.8.82c-1.59-.28-.71-.44-2.06.55A4,4,0,0,1,14.25,46.13Zm-.4,1.21c.1,0,.2-.14.29-.13,1,.16,1.06-1.62,2-.43.54.74-1.71.52-1.21,1.6,0,1.07-2,.88-1.62-.27C13.48,47.86,14.09,47.79,13.85,47.34ZM11.79,48c.84-.55.56-3,1.87-2.68.22,0,.23.45,0,.71s-.47.4-.32.68c.36.62-.34.79-.5,1.3-.12.81-.13.81-.67.81-.32.13-.57.65-.8.09C11.73,48.75,11.4,48.31,11.79,48Zm-1.24,1.66c-.22.48-1.09.51-.78,1.16l.46-.2c.56-1,1.08-1.19,2.07-.7a12.49,12.49,0,0,1-2.52,2.61c-.15.16-.28.27-.38-.06-.13-.68-.61-1.33-.74-1.9C9.27,50.33,9.91,49.48,10.55,49.68Zm-2.08,4.9a6.22,6.22,0,0,1,.42-1.9C10.45,53.67,8.23,57.79,8.47,54.58Zm.62,5c-1.13-1.65-1.24-1.1-.71-3-.79.1-.76,1.31-1.3,1.6-.18-.74-.29-3.15,1-2.13C8.77,55.77,9.72,60.25,9.09,59.61ZM7.47,54.46c.06-.15.36-.28.55-.31C8.44,55.09,7.14,55.8,7.47,54.46Zm-1,0c-.78-.48,0-.88.55-1,.36-.32.59-.79,1-1.11a.91.91,0,0,1-.36,1.46.58.58,0,0,0-.67.44C6.89,54.64,6.62,54.5,6.5,54.46Zm-.21,7a4.84,4.84,0,0,1,1.62-2.81c.52.69,1.43,1.68.73,2.53-.38-.25-1-1.3-1.35-.7.26.62-.61,1.57-.83,2.29C5.9,62.59,5.94,61.82,6.29,61.42Zm-3,3.38a1,1,0,0,0,.21-1.11c-.36-1,.85-1.87,1.66-1.8-.08.5-.74.61-1.11.86.52.88,1.46-1.11,1.69-.11.06.28.34.43.52.63.88-.2,1-1.27,1.36-2,2.51.88,1.09-.76,2.27-1.09.91-.34-.75-2-.24-2.74.66.63.57,1.9,1.17,2.58S10,61.22,9.57,61.74c-.88.6-2.11-.38-2.26,1.15-.08.27-.1.46-.4.6s-.11,1.36-.64.84c-.28,0-.61-.42-.82-.07s.39,1.6-.54,1.15C4.49,65.13,3,65.56,3.28,64.8Zm-.67,1.31c.21-.12.68.06.46-.47a7.71,7.71,0,0,0,1.54.11c.1,0,.29-.07.13.19-.48.61-2.52,4.77-2.8,3.19.14-.38-.62-.27-.37-.68a1.21,1.21,0,0,1,1.52-.86C3.36,67.17,2.31,66.59,2.61,66.11ZM.71,68c.51-.36,1-1.17,1.61-1.12A9.46,9.46,0,0,1,.83,68.52C.78,68.35.65,68.09.71,68Z"/></g></g></svg>