<svg xmlns="http://www.w3.org/2000/svg" viewBox="0 0 66.06 100.46"><defs><style>.cls-1{fill:#c894ff;}.cls-2{fill:#854bb7;}.cls-3{fill:#491d66;}.cls-4{fill:#ffdeaa;}.cls-5{opacity:0.5;}.cls-6{opacity:0.25;}</style></defs><g id="Layer_2" data-name="Layer 2"><g id="geode-small-2"><path id="fill4" class="cls-1" d="M66.06,44a5.76,5.76,0,0,1-.72,3.14c-.13.68-1.07.26-1.23.83-.32,1.38-3.27,1.68-1.23,3.08,1.18.93-.34,2.1-.3,3.1a9.63,9.63,0,0,1,0,3.55c-.53,1.57-2,2.37-1.94,4.14a8.67,8.67,0,0,0-1.37,3.32,3.29,3.29,0,0,0-.65,3.75,3.5,3.5,0,0,0,.16,1.16c-.15.84-1.31,1.57-1.15,2.53-.81,1,.83,3.24.07,3.54-1.19-.77,1.4,4.41,1.57,5,.48,1.35.24,2.79.87,4.47-.84,1.3-.08,2.51-.27,3.82,0,1.4,1.27,2.63,1.53,4.09.88,1.44,2,2.68,1.89,4.45-.25,1.37,1.15,1.28-.39,2.47,0,0,0,0,0,0-1.77.2-3.08-1.46-4.49-2.3-1-.89-2.78-.51-3.39-1.78A6.1,6.1,0,0,0,54,93.94c-.06-.42-.16-.86-.63-1-1-.22-1.09-1.2-1.67-1.87s-1.45-1-1.6-2c-.65-1.9-2.68-.49-3.71-1.64-.25-.17.26-.41,0-.53-1-.44-1.7-1.18-2.63-1.67-1.51-1.51-2.37-3.8-4.22-5-5.7-1.72-3.29-4.53-6.91-5.13-2-1.34-2.8-3.89-4.92-4.84-1.32-1.08-1.7-3.23-3.84-2.92-.95.26-1.59-.57-1.73-1.37.13-.68-.36-1.11.53-1.44a17.94,17.94,0,0,1-.26-3.44c.28-.67-.59-1-.93-1.49-.54-.4-.37-1.38-.79-1.91,1.26-1.24-1.23-1.52-1-2.73.08-.55-.52-.55-.77-.95a6.57,6.57,0,0,0-2-1.68c-.14-.75-1-1-1.12-1.68,0-.44-.1-.64-.6-.6A7.4,7.4,0,0,1,13,49.77c-.55-.37-.5-1.21-1.28-1.36-1.24-.81-2.6-.76-3.84-1.43s.45-1.56-1.57-2.72c-.36-1.08-1.6-.84-2.15-1.65a26.62,26.62,0,0,1-2.74-5.06c-.5-1.31.43-3.14-.63-4.21a3.24,3.24,0,0,1,.09-1.73C1,31,.76,30.31,1,29.68c.52-1.17-.76-1.63-1-2.39a12.45,12.45,0,0,0,.19-2.65C0,24,.68,24,.82,23.48c.08-1.05,1.36-1.7,1.05-2.78-1-3.4.07-2.25.42-4.7-.22-1.52.91-2.32,1.31-3.66C5.25,10.79,3,10.63,5.06,8.86,4.93,8,3.72,8.26,3.59,7.4c-.53-.55.24-1.15-.36-1.7-.35-.27.26-.65.46-.85.31-1.3.24-2.86,2-3.21C9.6.39,6.47-1,12.54,1c.63.3,2.22-.36,2.13.66.18.4.61-.29,1-.17C18.27.86,19.85,3.69,22.42,3c2.31.5,5,.58,7.22,1,.15.56.52.23,1,.31a25.09,25.09,0,0,0,2.72.52c.53,0,.66.49.76.91.32.65,1.6,0,2.07.52,1.09,1.28,3.26-.7,4.35.89a1.79,1.79,0,0,0,1,.73c.35.14.27.66.48,1A2.65,2.65,0,0,1,44.18,11a7.45,7.45,0,0,1,2.74,1.64c1.38-.21,2.71.63,3.9,1.31.3.39.15.74.3,1.16.26.6.75,1,1,1.59.59.81.25,2,1.38,2.5a7,7,0,0,1,3.25,3.19,4.67,4.67,0,0,1,3,2.46c.37.66-.43,1.3,0,2,0,.4-.45.91-.14,1.42a5,5,0,0,1,.57,1.91c-.56.3.23.89.18,1.39a3.38,3.38,0,0,1,1.3,1.81c.37.83,1.23,1.13,1.77,1.8.11.22.15.53.46.64.11.3-.1.77.25,1.08a5.78,5.78,0,0,1,1.63,3.24A18.59,18.59,0,0,0,66.06,44Z"/><path id="fill3" class="cls-2" d="M33.21,54.39c.09.14,0,.22-.11.24-.47.12-.51.66-.62,1-.95.83-1.48-.4-2.07,1.59-.33.4.8.59.21,1-.71,2-3-.44-2.83-1.72.3-1.38,1.13-2.59,1.07-3.92,1-1.44,3.4-.69,3.18-2.9.74.72-.4,1.87.74,2.42C33.61,52.7,32.85,53.69,33.21,54.39Zm-1.28-40.7c-1.6.22-2.35,2-3.68,2.89-.71,1.41,1.9,2.39,2.69,3.29.78.55,1.5,1.82,2.29.57.7-.92.53-1.93.72-2.94.39-.55,1-1.68.22-2.15C33.31,14,34,13.65,31.93,13.69Zm-3.42,4.57c-1.65-1.83-1.61-1-3.58-.38.71.5.56,1.85,1.4,2.17.67.68,2,1,2.34,1.79.28,1.1.22,1.81,1.58,1.79.63-.29,2.5-.41,2-1.33C32.14,20.43,29.64,19.69,28.51,18.26Zm-5.31,4c.29.5,1.49,1.59,1.78,1C24.83,22.54,23.43,21.18,23.2,22.29Zm1.72-.47c-.57,1.63,2.81,2.79,3.62,1.5.12-1.71-1.24-1.95-2.26-2.92C25.57,20.05,25.58,21.54,24.92,21.82Zm-.78,2.46c.34.64,1.6.81,2.14,1.52.82,0,2.63-.95,2.17-1.87C27,24.7,25.11,22.86,24.14,24.28Zm5-.5c-.33.38-.46,1.14-.77,1.6a5.53,5.53,0,0,0,.92,2.15c1.17.8,2.6,1.67,4,.8,1-1,.73-3.27-.23-4.25C32.1,22.63,30.61,24.38,29.15,23.78Zm0,4.08c-.46,5.59,6,2.91,3,1.12C29.85,29.32,30.62,28,29.18,27.86Zm2.6,3.58c.8.07,1.62-.62,2.41-.17a.81.81,0,0,0,1.19-.55C34.53,29.6,32.78,31,31.78,31.44Zm3-1.36c2.12.68-.29-1-.92-1.51C32,29,33.53,30.37,34.81,30.08Zm2.64-2.38h0c-.94-.3-1.44-1.44-2.68-.94-.49,0-.5.5-.69.84-.44.72.43.84.73,1.27.52,1,1.09.61,1.86.16a1,1,0,0,0,.87-1.38Zm.35-5.15c.26-.35-.51-.58-.66-.86-.37-.29,0-.74-.22-1.13-.67-.52-1.71-.51-2.36-1-1-.1-.74,1.44-1.68,1.67-.85.43.07,1.44-.15,2.14a3.06,3.06,0,0,1,1.41,2.9c.73,1,2.23-.8,3.31,1.43l.09,0a.47.47,0,0,0-.06-.15c-.28-.56.47-.5.57-1,.77-.91-.19-1.2-.55-2A5.15,5.15,0,0,1,37.8,22.55Zm-.53-2.26c-.1,1.46,1.23,2.21,2.61,2.15.89-.23.58-1.52,1.38-1.78.43-.88-1.88-.67-2.44-.82C38.24,20.79,38.09,20,37.27,20.29Zm4.42.5c-.85.3-.48,1.31-1.25,1.71-.53.77-1.39-.11-2.09.05-.59.64-.58,2.58.37,2.84a2.63,2.63,0,0,1,2.38,0c.62-.48,2.18-.44,2-1.47,0-.61.46-1.54-.17-2C42.49,21.74,42.09,20.5,41.69,20.79Zm.08,6.28c.25-.06.89.1,1-.19.2-1.64.22-2.23-1.46-1.22C40.78,26,41.69,26.68,41.77,27.07Zm-2.41-1.63c-.8.29-.88,1.54-1.61,2,1,.3,3.42,1.06,3.66-.42C40.84,26.17,40.74,25,39.36,25.44Zm2.47,1.91c0,.27-.24.33-.38.41-.81,1.19-2.58,0-3.44.31.11,1-.89,1.08-1.6,1.4-.41.58-.57,1.59-1.28,2,.09,1.08,2.06.74,2.89.61a22.47,22.47,0,0,0,2.51.29c.76-.11,1.46-.64,2.25-.45-1.41-1.42,0-2.75.14-4.36,0,0,0-.16.06-.29A9,9,0,0,1,41.83,27.35ZM36.42,36c.86.76,1,2.35,2.46,1.77.67-.1.5-.74.52-1.28a3.25,3.25,0,0,0,.9-3c.94-1.18-3.32-1.22-3.53-.7C37.1,33.9,35.74,35,36.42,36Zm4.45-1.07c-.42.17-.3,1.09-.77,1.41-.76.58.13,1.56.86,1.3,1.14-.13,1.72-1.62,3-1.46,0,0,.07,0,.1-.07A5.82,5.82,0,0,0,40.87,34.93Zm3.24,1.46a4.08,4.08,0,0,0-2.18,1.24c-.3.83.48,3.39,1.55,1.76.39-.81,1.67.06,2-.69.15-1,.12-3.38-1.28-2.53C44.28,36.36,44.28,36.38,44.11,36.39ZM42.53,30c-.4.81.55,1.34.66,2.06,1.91-1.19,1-1.26-.17-2.47C42.75,29.32,42.63,29.86,42.53,30Zm.52-5c.64.26.06,1.28.23,1.85.25.91-.54,1.86,0,2.58.74,1.06,1.78,1,2.85,1-.78-.82-.24-1.83-.32-2.77-.33-1.19,1-.94,1.61-1.24,2.67-3.4-2-1.92-3.91-2C43.4,24.54,42.76,24.94,43.05,25.05Zm6.57,7.38c-.21-.14,0-.46,0-.67s-.82.21-1.1.22c-1.27.2-2-2.38-1.94.64.71.37.18,1.34.51,1.76.83-.41,1.31.24,1.82.8s1.11.06,1.41.56c.89.66.25-1.19,1-1.19C50.4,34.18,50.67,32.81,49.62,32.43Zm-4.07-1.64c-.25,0-.76-.07-.83.27,0,.59-.69,1.06-1.2,1.31a3.8,3.8,0,0,0-2.35.18c-.77.22-.36,1.18-.46,1.75.71,1,2.57.28,3.37,1.45,1.3,0,3.5-1.58,2.29-2.9C45.28,32.21,47.37,30.65,45.55,30.79Zm3.35,4.82c-1-1.41-2.11-.94-3.31.1a7.69,7.69,0,0,1,.32,2.86c.21.77,1.46.58,2.08.47.61-.31,1.18.19,1.77.1,1.05-.5,1-1.7,1.51-2.61.07-.23-.59-.24-.78-.34A5.23,5.23,0,0,0,48.9,35.61Zm.8,4.47c-.2-1.41-2.36-.42-3.34-.63C46.58,40.78,48.83,40.74,49.7,40.08Zm.57.35c-.56-.1-1.17.46-1.91.32-.46.21-1.83-.13-1.48.57.2,1.58-.32,2.56,1.66,2,.46-.07.63.26.86.57.44.48,1-.15,1.58.11.3.25,3.29.36,3.15-.16C54.1,41.76,51.82,41.32,50.27,40.43Zm1.66,4.3a5.71,5.71,0,0,0-3,3.32c.69.65,1.95.57,2.43,1.41.13.31.25.67.7.64,1.15.13,1.11,1.7,1.89,2.28a2.37,2.37,0,0,0-.06-1.66c.07-.49.52-.88.51-1.34.23-1.11-.6-2.56.14-3.43.3-.52,0-1.6-.67-1.44C53.26,44.9,52.56,44.31,51.93,44.73Zm-3.88,3.32c.16,1.57,1,3.15,2.81,2.05.8-1.08-2.13-1.51-2.75-2.13C48.09,48,48.05,48,48.05,48.05Zm0-4.34c-1.54,0-2.26,2.19-2.17,3.63a20.1,20.1,0,0,1,2.78.55,6.16,6.16,0,0,0,.67-1.65c.33-.73,1.56-1,1.9-1.68a1.69,1.69,0,0,0-1.41-.08C49,44.41,48.9,43.37,48,43.71ZM45.7,48c-.47.5-1.3.71-1.63,1.36-.87.37,0,2.12.71,2.1.83-.54,1.61-1.61,2.62-1.61a.47.47,0,0,0,.65-.22c.22-1.37-.73-1.76-1.9-1.91C45.85,47.54,45.78,47.71,45.7,48Zm-2-2.07a3,3,0,0,0-2.33,2.28,1.36,1.36,0,0,0,1.67,1c.23,0,.59.29.71-.19.5-.58,1.49-.87,1.77-1.58A11.92,11.92,0,0,1,43.69,45.88Zm2.12-6.57c-.14-.17.09-.1.09-.27-.19-.08-.36.09-.48.23-.29.24-.71-.11-1.07,0-1.36.42-1.69,2.06-1.7,3.38-.3,1-1.72,1.78-.88,3,.19,1.41,1.62-.71,2.34,0,.19.27.28.67.66.73,1.1.64,1.16-1.79,1.79-2.5.59-1-.52-2.43,0-3.35C46.17,40.3,46.18,39.73,45.81,39.31Zm-3.36,2c.91-3.63-4.34.57-1.36,3.23A7.54,7.54,0,0,0,42.45,41.32Zm-.88-1.68c-.22-.39.45-1.83-.48-1.72A1.19,1.19,0,0,1,40,37.78c-.49-.16-1.09.44-1.7.34-.11,1.28-.38,2.59,1.32,2.63.34,0,.54.56.77.06s.56-1.27,1.31-1.13Zm-3.65,4c.33.09.66.47,1,.43.17-.63.83-.82,1-1.35.46-1.3-.5-1.76-1.52-2.07C36.58,39.54,37.1,43,37.92,43.67Zm-3.06-2.86A7.74,7.74,0,0,0,32.37,44c-.16.6.75.83.88,1.41.24.23-.12.58.16.8.41-.16,1,.44,1.41.17.2-.7.48-1.31.71-2s-.33-1.11-.17-1.53C35.75,42.32,35.78,40.56,34.86,40.81Zm2.19,1.69c-.53-1-1.7,0-1.15.89a2.25,2.25,0,0,1-.45,2.08c-.76,1.5.87,1.52,1.71.75.94-.44,1.18,1.25,1.48-.44A1.21,1.21,0,0,0,37.76,44C37.16,43.72,37.23,43,37.05,42.5ZM36.36,47c1.84,1.76-2.76,4.48,1.72,3.44,0-.66.55-1.2.78-1.86C38.84,47.31,37.62,45.85,36.36,47Zm3.44,5.4c-.4-.2-1-.45-1.26.11C37.43,53.59,39.7,53.2,39.8,52.41Zm-.26-8.68c-.5.6-.29,1.3-.48,2a3.12,3.12,0,0,0-.23,1.5c1,1.34-.22,2.33-.62,3.69.15,1.23,1.91,1.23,2.83,1.11a5.17,5.17,0,0,1,.4-2.89c-.06-.44-.76-.87-.43-1.38a2.12,2.12,0,0,0-.33-3.06C40.45,44.38,39.92,43.07,39.54,43.73Zm.69,10.51c0,1.37,1.28.07,2.07,0,.16-1.83-1.43-2.64-2.55-1.09C39.11,53.69,40.2,53.81,40.23,54.24Zm2.64-4.83c-1.38-.21-1.74,1.33-1.46,2.42.68.66,2.77,2.5,3.53,1.41.52-1-1.12-1.56-1.44-2.37C43.26,50.4,43.62,49.33,42.87,49.41ZM50,50.8c-.58.2-1-.37-1.48-.57-1.28-.41-2.35.46-3.34,1.28-.44.43.21.83.27,1.27s-.36.88-.32,1.34a19.47,19.47,0,0,0,1.7,1.4c.5.64.74,1.91,1.73,1.26,1.25-.49,4.48.7,4.86-1.12,0-.56.48-1.22.22-1.78-.1-.29-.38-1,.07-1.09,0,0,.07-.06.12-.1C52.38,51.29,52.72,49.41,50,50.8Zm-9.6,5.89a9,9,0,0,1-.69,1.05,1.41,1.41,0,0,0,1.19.25c.52,0,1.4.29,1.84,0,2.1-1.16,1.17-2.23-.24-3.56C41.32,55.1,40.37,55.06,40.37,56.69Zm3.45-1.3a3.2,3.2,0,0,0,2,1.64c.31,0,.36.67.72.26,3-.11-4.08-5-3.91-3.63C42.71,54.39,43.51,54.74,43.82,55.39ZM46,57.71c-.44-.49-1.38-1.28-1.75-.39-2,1-.94,2.33-1.85,4.13.14.86.66,1.66.48,2.55-.07.19,0,.28.21.2a.82.82,0,0,1,.67.11c.34,0,.47-.66.58-1-.64-.85.64-1.57.06-2.28.84-.22,2.58-.4,1.92-1.74C45.69,58.88,46.42,58,46,57.71Zm5.13.48c.46-.17.42-.7.31-1.09a9.72,9.72,0,0,0-4.68.57c-.6.61-.27,1.33,0,1.92a7.79,7.79,0,0,0-.17,1.15c.47.11.94-.43,1.38-.26.55.68,1.53.87,2,1.6,1,.53,1.73-.17,1.77-1.22.11-.65-1.45-1-.95-1.67C51.3,58.93,50.76,58.37,51.12,58.19Zm-4.63,3C46,61.06,44.77,61,45,61.7a1.48,1.48,0,0,0-.32,1.64c-.94,2.65.88,2.07,2,3.65.29-.65,1.24-.85,1.41-1.44-.35-1.53.45-2.28,1.43-3.34C48.42,61.49,47.89,60.53,46.49,61.17Zm2.72,2.17c-1.46.32-.14,2.26-1.12,2.82-2.15.92-1.12,4.18,1,4.14a1.58,1.58,0,0,1,0-.37c.27-.67-.06-1.63.33-2.24.81-.29.72-1.32.45-2C49.37,65,50.73,63.67,49.21,63.34ZM53.72,76.2c.51-2-2.29-2.46-3.78-2.27a3,3,0,0,1,.45,3.13c.2,1.65,2.32,1,1.38,3.76.95,1.12,1.58,3,3.48,2.33.46-1-1.29-3.5.35-3.45.32-.26-.23-1.4-.29-1.88C54.81,77.32,53.78,76.94,53.72,76.2Zm-.45-3.81c-1.47-.42-1.56-1.51-3.3-.87-3.09-2.9-2.61.54-.49,1.78a1.38,1.38,0,0,0,1.34.24,4.81,4.81,0,0,1,2.91.93c.35.35.32,0,.09-.23C53.48,73.67,53.61,72.78,53.27,72.39Zm-3.69,4.68c-.75.52-.43,1.34-.91,2-1.81,1.81,1.6,1.86,2.82,1.69.56-3-1.15-1.6-1.56-3.51C50,77.05,49.67,77.05,49.58,77.07Zm-.7.26c.25-.84,1.32-.49,1.32-1.51.15-1.19-.94-2.43-1.52-.72C48.27,75.47,48.49,77.35,48.88,77.33Zm-2.18-8a.76.76,0,0,1-1.06.16c-1.06-.28-.84,1.63-1.25,2.23A5.6,5.6,0,0,1,43.28,74a21.93,21.93,0,0,0,5.12.71c1.57-1.59.5-.83-.48-2.39C47.34,71.56,47.52,69.45,46.7,69.32Zm-2.56-4.08c.08-.8-.91-.66-1.47-.6s-.12,1-.79.9a11.9,11.9,0,0,0-5.17,2.75c-.11.45-.31,1.12,0,1.49.44,0,1.2.64,1.45,0,.48-1.09,1.23-2.06,2.59-1.86.91,0,.68,1.35,1.33,1.73.76.22,1.67.14,2.25.76.91-3,2.27.92,2.27-3.15C45.92,66.49,44.47,66.27,44.14,65.24Zm-3.4-6.83c-.82.15-1.47-.82-2.22-.34-.94.36-2.31,1.5-1.5,2.47.57.45-.48.48-.31.9,0,.58.55.51,1,.57.92,0,1.36,1,2.08,1.38,1.08.1.45-1.85,1.55-2s1.16-1.4,1.17-2.32c-.2-.21.17-.76-.15-.78C41.83,58.56,41.29,58.33,40.74,58.41ZM41,62.25c-.14,1-1.12,1.58-1.19,2.66-.07.32-.31.62-.29,1C42,65.28,43.22,64.35,42,61.8,42.08,61.3,41.07,61.89,41,62.25Zm-4.13-5.8c.13.41.2,1.85.83,1.59.9-.38,1.8-.57,2.23-1.53.53-1.31-.4-3.37-2-2.95C37.15,54.17,37.73,55.69,36.9,56.45ZM35.81,35.86c-3.23,1.11-1.7,1.65-.65,3.66-.16.74.38,1,.78,1.61.33.19,0,1,.57.72.65-.08-.12-.53.12-.78.3-.45.88-.74,1.17-1.08A13.13,13.13,0,0,0,38,38.11C36.7,38,36.71,36.53,35.81,35.86Zm.94,15.19c-.81.2-1.26-.67-2-.84-2.07-.29-2.95.77-1.2,2.44.42.57-.38,1.24.11,1.77.95.5,2.25,1.46,3,1.81.71-.94.22-2.18,1-3.08a1.4,1.4,0,0,0,.16-2.08C37.54,50.63,37.1,51,36.75,51.05ZM31.31,31.52c-.69.65-.11,1.95.3,2.72a6.7,6.7,0,0,1,.05,1.41,11.45,11.45,0,0,0,2.06.78c.72-.19,1.37-.74,2.06-.9a12.46,12.46,0,0,1,.57-1.89c.44-1.29-1.12-1.37-1.93-1.92C33.44,31,32.25,32.18,31.31,31.52ZM33,46.57c-1,1.16-1.73,2.45-.24,3.59a4,4,0,0,1,2.9,0c.48-1,1.41-2.33,0-3.14C34.87,47,33.76,46.28,33,46.57ZM31.26,58c1.79,1,2.6.16,4,1.79,3.91-.44.38-4.85-1.91-4.88C32.57,57.59,30.3,55.1,31.26,58Zm2.17-21.21c-.47-.08-1.53-1.06-1.85-.62-.37,1.05.27,2.3-.42,3.17.45,1.15,1.12,2.17-.13,3.13.13.06.14,0,.3,0,.48-.07,1,.25,1.4.13.52-1.22,2.31-1.79,1.9-3.27A4.18,4.18,0,0,1,33.43,36.77Zm-3,9.8a1,1,0,0,0-.77.63c-.59.87-2.12-.42-2.59.83-1.66.89.39,2-.51,3.1.4.13,1,0,1.05.51.08,1.16,1.17.89,1.79,0,.47-.45,1.26-.26,1.8-.64,1.24-.85-.58-2.84.88-3.72.64-.77,1.29-2.17,0-2.56C31.34,45.07,31.22,46.26,30.43,46.57Zm-.91-3.21c-.73,0-2.55.2-2.19,1.26.24.46-.54.73-.18,1.2a1.85,1.85,0,0,1,.1,1.51c1.38-.55,1.66.33,2.69-1,.93-.23,1-1.52,1.83-1.88.23-.17.64-1.43.4-1.65C31.16,42.37,30.49,43.43,29.52,43.36Zm-1-6.44c1.49,3.51,2.88,2.75,2.63-.78a2.81,2.81,0,0,0-.38-2.69A7.59,7.59,0,0,0,28.53,36.92Zm2,5.42c2.43-1.53-.72-4.21-2.27-2C28.59,41.4,30,41.47,30.51,42.34Zm-3.43-12c-.11-.25-.38-.65-.63-.32-1.57,1.12-2.16,5.12.47,4.93.75-.31,1.43,1.29,2,.57a2.53,2.53,0,0,1,1.78-2.21c-.21-2,.77-1.26-1.51-2.44C28.5,30.38,27.44,31.23,27.08,30.31Zm.86,10.25c-.59-.53-1.31-.05-2-.31-.38-.08-.39-.45-.61-.67a9.77,9.77,0,0,0-2.19.46c-.6,0-.55.59-.9.91s-1.26,0-1.37.64c-.61,3,2.22-.25,2,3.9.35,1.21,1.58.15,2-.5s2.21.27,2-.78c0-1.62,3.52-.49,3.2-1.79C29.55,41.69,28.4,41.51,27.94,40.56Zm-1.65-5.34a14.12,14.12,0,0,1-1,1.55c-.35.25.23.47.08.77-.29,1.15,0,2.82,1.56,2.47.24,0,.49-.16.75,0,.54,0,1-.78,1.51-.94.11-.52-1.43-1.7-1.06-2.51C28.65,35.61,27,35.14,26.29,35.22Zm1.93-9.14c-.19-.94-1.1,0-1.62.16-.27.49-.18,1.25-.57,1.77-.55,1.1,1.12,1.35,1.4,2.17.52.53,1.54-.12,2.18.45C28.5,29.34,29.1,27.54,28.22,26.08Zm-.85-13.6c-.47-.76-1.37.27-2,.46-.64.67-1.4-.06-2,.16-.55,1.08-1.42.31-2.18.45-2.07.74-1.35.6-3.16-.29-2.1-.5-2.36,1.14-.1,1,.8.42,1,1.67,1.78,2.08,1.47.21,2.69,1.59,4.24,1.07,1.37.5,2.42-1.25,3.7-.45a.59.59,0,0,1,.32-.66c2.1-1.18.08-.81-.58-2.06C26.91,13.62,27.67,13.09,27.37,12.48ZM21.55,28.15c-.05.18,0,.48-.09.68-.4,1.49-3.26,1.43-3.24,3A1.49,1.49,0,0,1,18,33.06c-.74,1,.47,2.32,1.43,2.42a6.11,6.11,0,0,0,2.32-.84c.69-.07,1.61.44,2-.54a4.46,4.46,0,0,0,1.31-2.7c.11-1,1.78-1.48.77-2.61C24.79,27.81,23,28.13,21.55,28.15Zm-.79-6.09c-.31.25-.07.63-.07.92-.15.79-1.92,1.3-1.09,2.29,1.07,3.87,3.09,2,5.89,2.86,2.43-2.76-1.89-2.71-1.72-4.05C24.47,23.43,21.49,20.73,20.76,22.06Zm.82,13c-.39.07-.48.56-.88.57-1,0,.58,1.24-.6,1.69-.77.61-1.82,1.52-1.33,2.58-1.67,1.92-.9,3.48,1.66,3.17-.18-.14,0-.3,0-.44,0-2.43.78-1.17,1.7-2.16.23-1.21,2.11-.69,2.75-1.48.26-.93.34-2-.79-2.26S22.84,34.53,21.58,35.06Zm3-1.24c-1.5,1.42-2.08,1.19-.17,2.75,1,.55.83-1.27,1.5-1.47C25.2,35,25.12,33.49,24.56,33.82ZM21.88,17.65c-.33,0,.09.51.06.7.22.94-.93,1.26-1.39,1.7.29.33-.54,2.21.44,1.65.63-1,1.41.58,2.14.13.44-.37,1,.07,1.39-.16,1.34-1.05,1.08-2.7,0-3.83A7.4,7.4,0,0,1,21.88,17.65ZM17.37,18a2.36,2.36,0,0,0,4,1.09c.64-1.22-.59-2.44-1.86-2.44C18.78,17,18.08,17.62,17.37,18Zm1.88-6.94c-3.74.17-2.38-5-5.86-3-1.19.68.79,1,.89,1.67.17.39-.18,1,.31,1.24,1.57,0,1.94,1.81,3.33,2,.78-.09,1.09.68,1.75.81s.29-.58.77-.52c.51-.12-.12-.83-.08-1.19C19.86,11.91,19.82,11.15,19.25,11.07Zm0,15.62c-1,.51-2.2-.21-3.14.45-1.13.45-1.71.84-3,.46.49.71-.58,1.62-.1,2.32.57.87.32,2.17,1.17,2.75.59.84,1.67.26,2.51.73,1.17.27.84-1.13,1.09-1.81.21-1.73,5.4-2.2,2.37-4.22C19.92,27,19.83,26.43,19.22,26.69Zm-.17-6.48c-.85.09-1.05,1.24-1,1.92.4.39,1.19,0,1.58.57,1.16,1,.51-.9.51-1.42C20.37,20.15,20.14,20,19.05,20.21ZM17.1,23.05c-.45.94,1.06,2,2,1.42.1-.46.91-.93.78-1.28A2.14,2.14,0,0,0,17.1,23.05ZM16,17.81c1.11.23,2-.72,2.91-1.28.36-.43-.47-.79-.6-1.18C18.06,16.41,16.85,17.11,16,17.81Zm1.61,7.5c-2.05,1.75,1.05,1.26,2.11,1-.24-.4-.42-1.51-.88-1.49C18.38,25.22,17.75,24.6,17.62,25.31ZM14,13.47c-.13.29.19.65-.13.83a1.36,1.36,0,0,1-1.29.84c-1.14.45,0,2,.56,2.58,1.07-.14,2.23.32,3.09-.47.53-.72,1.68-1.16,1.7-2.17.14-.68-.74-.48-1.14-.63C15.85,14.1,15,13.84,14,13.47Zm2.36,9.75c-.3.05-.31-.32-.49-.46-1.94-1.45-.94,0-2,1-.37.4-.89-.05-1.34.18-1.46.46-1.34,2.05,0,2.57,1,1,1.82,1.29,3,.38.58-.26,1.24-.39,1.1-1.2-.19-.65,1-.4.64-1C16.84,24.29,16.91,23.44,16.39,23.22ZM15.24,19.4c.09,2.74-1.74,1.47,1.16,3.44,1.86.34.77-2.47,2.3-2.86A3.49,3.49,0,0,1,17,18.26C15.54,18.24,15,17.48,15.24,19.4Zm1.26-6.52c0-1.09-1.9-1.72-3-1.82C12,12.4,15.4,14.59,16.5,12.88Zm-3.36,5.19c.21,1-.67,1.66-.88,2.53a2,2,0,0,1-.15,1.31c-.55.53-1,1.7-.47,2.22.48-1,1.88,0,2.25-1,.32-.63,0-1.68.66-2.17.51-.77.18-1.82.31-2.7C14.63,17.68,13.71,18.32,13.14,18.07Z"/><path id="fill2" class="cls-3" d="M16,17.81c.84-.7,2-1.4,2.31-2.46.13.39,1,.75.6,1.18C18,17.09,17.12,18,16,17.81Zm10.32,2.24c.67.68,2,1,2.34,1.79.28,1.1.22,1.81,1.58,1.79.63-.29,2.5-.41,2-1.33-.06-1.87-2.56-2.61-3.69-4-1.65-1.83-1.61-1-3.58-.38C25.64,18.38,25.49,19.73,26.33,20.05ZM45.49,38.7c.15-1,.12-3.38-1.28-2.53.07.19.07.21-.1.22a4.08,4.08,0,0,0-2.18,1.24c-.3.83.48,3.39,1.55,1.76C43.87,38.58,45.15,39.45,45.49,38.7Zm-1.55-2.52s.07,0,.1-.07a5.82,5.82,0,0,0-3.17-1.18c-.42.17-.3,1.09-.77,1.41-.76.58.13,1.56.86,1.3C42.1,37.51,42.68,36,43.94,36.18Zm-3.41-3.79c.76-.11,1.46-.64,2.25-.45-1.41-1.42,0-2.75.14-4.36,0,0,0-.16.06-.29a9,9,0,0,1-1.15.06c0,.27-.24.33-.38.41-.81,1.19-2.58,0-3.44.31.11,1-.89,1.08-1.6,1.4-.41.58-.57,1.59-1.28,2,.09,1.08,2.06.74,2.89.61A22.47,22.47,0,0,0,40.53,32.39Zm-5.15-1.67c-.85-1.12-2.6.31-3.6.72.8.07,1.62-.62,2.41-.17A.81.81,0,0,0,35.38,30.72Zm-.57-1.84c.52,1,1.09.61,1.86.16a1,1,0,0,0,.87-1.38l-.09,0h0c-.94-.3-1.44-1.44-2.68-.94-.49,0-.5.5-.69.84C33.64,28.33,34.51,28.45,34.81,28.88Zm-.92-.31c-1.9.38-.36,1.8.92,1.51C36.93,30.76,34.52,29,33.89,28.57ZM32.23,29c-2.38.34-1.61-.94-3-1.12C28.72,33.45,35.23,30.77,32.23,29Zm.84-4.9c-1-1.45-2.46.3-3.92-.3-.33.38-.46,1.14-.77,1.6a5.53,5.53,0,0,0,.92,2.15c1.17.8,2.6,1.67,4,.8C34.27,27.35,34,25.06,33.07,24.08ZM17.37,18a2.36,2.36,0,0,0,4,1.09c.64-1.22-.59-2.44-1.86-2.44C18.78,17,18.08,17.62,17.37,18ZM25,23.25c-.15-.71-1.55-2.07-1.78-1C23.49,22.79,24.69,23.88,25,23.25Zm-1.85-1.42c.44-.37,1,.07,1.39-.16,1.34-1.05,1.08-2.7,0-3.83a7.4,7.4,0,0,1-2.6-.19c-.33,0,.09.51.06.7.22.94-.93,1.26-1.39,1.7.29.33-.54,2.21.44,1.65C21.62,20.73,22.4,22.28,23.13,21.83Zm5.41,1.49c.12-1.71-1.24-1.95-2.26-2.92-.71-.35-.7,1.14-1.36,1.42C24.35,23.45,27.73,24.61,28.54,23.32ZM26.28,25.8c.82,0,2.63-.95,2.17-1.87-1.45.77-3.34-1.07-4.31.35C24.48,24.92,25.74,25.09,26.28,25.8Zm-6.68-.53c1.07,3.87,3.09,2,5.89,2.86,2.43-2.76-1.89-2.71-1.72-4.05.7-.65-2.28-3.35-3-2-.31.25-.07.63-.07.92C20.54,23.77,18.77,24.28,19.6,25.27Zm7.83,4.91c.52.53,1.54-.12,2.18.45-1.11-1.29-.51-3.09-1.39-4.55-.19-.94-1.1,0-1.62.16-.27.49-.18,1.25-.57,1.77C25.48,29.11,27.15,29.36,27.43,30.18Zm1.47,5.31a2.53,2.53,0,0,1,1.78-2.21c-.21-2,.77-1.26-1.51-2.44-.67-.46-1.73.39-2.09-.53-.11-.25-.38-.65-.63-.32-1.57,1.12-2.16,5.12.47,4.93C27.67,34.61,28.35,36.21,28.9,35.49Zm-3.49,2c-.29,1.15,0,2.82,1.56,2.47.24,0,.49-.16.75,0,.54,0,1-.78,1.51-.94.11-.52-1.43-1.7-1.06-2.51.48-1-1.16-1.44-1.88-1.36a14.12,14.12,0,0,1-1,1.55C25,37,25.56,37.24,25.41,37.54Zm5.75-1.4a2.81,2.81,0,0,0-.38-2.69,7.59,7.59,0,0,0-2.25,3.47C30,40.43,31.41,39.67,31.16,36.14Zm-.65,6.2c2.43-1.53-.72-4.21-2.27-2C28.59,41.4,30,41.47,30.51,42.34Zm11.94-1c.91-3.63-4.34.57-1.36,3.23A7.54,7.54,0,0,0,42.45,41.32Zm2.32,5.12c1.1.64,1.16-1.79,1.79-2.5.59-1-.52-2.43,0-3.35-.42-.29-.41-.86-.78-1.28-.14-.17.09-.1.09-.27-.19-.08-.36.09-.48.23-.29.24-.71-.11-1.07,0-1.36.42-1.69,2.06-1.7,3.38-.3,1-1.72,1.78-.88,3,.19,1.41,1.62-.71,2.34,0C44.3,46,44.39,46.38,44.77,46.44Zm-1,2.54c.5-.58,1.49-.87,1.77-1.58a11.92,11.92,0,0,1-1.82-1.52,3,3,0,0,0-2.33,2.28,1.36,1.36,0,0,0,1.67,1C43.26,49.18,43.62,49.46,43.74,49Zm-8.09,1.15c.48-1,1.41-2.33,0-3.14-.82,0-1.93-.71-2.7-.42-1,1.16-1.73,2.45-.24,3.59A4,4,0,0,1,35.65,50.13ZM40,56.51c.53-1.31-.4-3.37-2-2.95-.84.61-.26,2.13-1.09,2.89.13.41.2,1.85.83,1.59C38.63,57.66,39.53,57.47,40,56.51ZM42.87,64c-.07.19,0,.28.21.2a.82.82,0,0,1,.67.11c.34,0,.47-.66.58-1-.64-.85.64-1.57.06-2.28.84-.22,2.58-.4,1.92-1.74-.62-.46.11-1.3-.32-1.63-.44-.49-1.38-1.28-1.75-.39-2,1-.94,2.33-1.85,4.13C42.53,62.31,43.05,63.11,42.87,64Zm-.16-6c2.1-1.16,1.17-2.23-.24-3.56-1.15.63-2.1.59-2.1,2.22a9,9,0,0,1-.69,1.05,1.41,1.41,0,0,0,1.19.25C41.39,58,42.27,58.28,42.71,58Zm1.11-2.64a3.2,3.2,0,0,0,2,1.64c.31,0,.36.67.72.26,3-.11-4.08-5-3.91-3.63C42.71,54.39,43.51,54.74,43.82,55.39Zm1.12-2.15c.52-1-1.12-1.56-1.44-2.37-.24-.47.12-1.54-.63-1.46-1.38-.21-1.74,1.33-1.46,2.42C42.09,52.49,44.18,54.33,44.94,53.24Zm-6.4-.72c-1.11,1.07,1.16.68,1.26-.11C39.4,52.21,38.76,52,38.54,52.52Zm3.76,1.75c.16-1.83-1.43-2.64-2.55-1.09-.64.51.45.63.48,1.06C40.23,55.61,41.51,54.31,42.3,54.27Zm-3.44-5.68c0-1.28-1.24-2.74-2.5-1.58,1.84,1.76-2.76,4.48,1.72,3.44C38.09,49.79,38.63,49.25,38.86,48.59Zm-5.45-2.37c.41-.16,1,.44,1.41.17.2-.7.48-1.31.71-2s-.33-1.11-.17-1.53c.39-.55.42-2.31-.5-2.06A7.74,7.74,0,0,0,32.37,44c-.16.6.75.83.88,1.41C33.49,45.65,33.13,46,33.41,46.22Zm8,2.91c-.06-.44-.76-.87-.43-1.38a2.12,2.12,0,0,0-.33-3.06c-.23-.31-.76-1.62-1.14-1s-.29,1.3-.48,2a3.12,3.12,0,0,0-.23,1.5c1,1.34-.22,2.33-.62,3.69.15,1.23,1.91,1.23,2.83,1.11A5.17,5.17,0,0,1,41.44,49.13Zm-6-3.66c-.76,1.5.87,1.52,1.71.75.94-.44,1.18,1.25,1.48-.44A1.21,1.21,0,0,0,37.76,44c-.6-.23-.53-.94-.71-1.45-.53-1-1.7,0-1.15.89A2.25,2.25,0,0,1,35.45,45.47Zm3.46-1.37c.17-.63.83-.82,1-1.35.46-1.3-.5-1.76-1.52-2.07-1.85-1.14-1.33,2.32-.51,3C38.25,43.76,38.58,44.14,38.91,44.1Zm1.46-3.29c.37-.52.56-1.27,1.31-1.13l-.11,0c-.22-.39.45-1.83-.48-1.72A1.19,1.19,0,0,1,40,37.78c-.49-.16-1.09.44-1.7.34-.11,1.28-.38,2.59,1.32,2.63C39.94,40.77,40.14,41.31,40.37,40.81Zm-1-4.32a3.25,3.25,0,0,0,.9-3c.94-1.18-3.32-1.22-3.53-.7.33,1.15-1,2.22-.35,3.25.86.76,1,2.35,2.46,1.77C39.55,37.67,39.38,37,39.4,36.49Zm-8.24,2.83c.45,1.15,1.12,2.17-.13,3.13.13.06.14,0,.3,0,.48-.07,1,.25,1.4.13.52-1.22,2.31-1.79,1.9-3.27a4.18,4.18,0,0,1-1.2-2.5c-.47-.08-1.53-1.06-1.85-.62C31.21,37.2,31.85,38.45,31.16,39.32Zm.45-5.08a6.7,6.7,0,0,1,.05,1.41,11.45,11.45,0,0,0,2.06.78c.72-.19,1.37-.74,2.06-.9a12.46,12.46,0,0,1,.57-1.89c.44-1.29-1.12-1.37-1.93-1.92-1-.77-2.17.46-3.11-.2C30.62,32.17,31.2,33.47,31.61,34.24Zm4.33,6.89c.33.19,0,1,.57.72.65-.08-.12-.53.12-.78.3-.45.88-.74,1.17-1.08A13.13,13.13,0,0,0,38,38.11c-1.26-.12-1.25-1.58-2.15-2.25-3.23,1.11-1.7,1.65-.65,3.66C35,40.26,35.54,40.55,35.94,41.13Z"/><path id="fill1" class="cls-4" d="M15.89,49.9c.38.6,2.81,1.74,1.4,2.13C16.88,51.26,16,50.8,15.89,49.9Zm27.8,34.77a19.79,19.79,0,0,0,2.11,1.56c.33.17,1.36.34,1,.86-.27.2.56.81.72.47a4.41,4.41,0,0,1,2.37.4,1.1,1.1,0,0,0,.55.2c-1-.86-.19-3.55-2-3.3a1,1,0,0,1-1.32-.65C46,82.9,43.88,82.29,43,80.5c0-1.65-2.11-1.32-2.48-2.5,0-.15-.09-.51-.28-.45-.85,1-1.84.65-1.93-.66-.22-.48-.94-.4-1.29-.82s.06-1.22-.74-1.53c-.46-.4-1.27-.38-1.63-.91.16-.43-.4-.76.27-1-.63-.39-.52-1.29-1.46-1-1.59-.09-1.27,2-2.2-.63-.31-.8,0-2-1.39-1.8-1-.08-1.08-1.35-1.79-1.94-.25-.42-.83,0-1.08-.41-.37-.26-1.61-.22-.83-.92.3-.17-1-1.67-1.3-1.37-1,.06-.33-1.54.3-1.71.25-.1.24-.13.1-.36-.92-.67.26-2.12-.42-2.34-.42,0-.61-.46-.77-.79s-.67-.16-.86-.5c-.67-.88-.26-2-.65-2.87-1.57-.35-1.42-1.34-1.78-2.63,0-.7-1.66-.73-1-1.58-.23-.08-.45.16-.69,0-.55.06-.94-.26-1.23.42.1,1.23,2.48,1.68,2.27,3.11,2.13,2.09.87,1.15,1.36,3.53.08.57.65.88,1,1.27.91,1.21,0,3,.59,4.42-.08.32-.4.37-.58.58.16.51,0,1.11.4,1.54.48.91,2,.12,2.76.77,1.24.47,1.32,2.06,2.45,2.7,2,.73,2.56,3.28,4.39,4.43,4.67,1.42,1.34,3.36,6.63,5.13C41.21,80.55,42.26,82.94,43.69,84.67ZM1.81,35.45c-.75,2.08,1.1,3.95,1.9,5.77.55.67.83,1.69,1.84,1.75,1,.36,1.67,1.55,2.28,2.29-.2,1.06,0,1.28.92,1.7.57.5,1.32-.06,1.93.57.91.46,2,.65,2.44,1.7.49.7,1.77.31,2.53.49-.85-.79-1.31-1.87-2.2-2.63-.73-.46-2.08,0-2.7-.84-1.59-2.44-4.65-3.43-5.89-6.19-2.36-2.43-1-2.64-2.26-5.16a3.94,3.94,0,0,1,.1-2.44c.16-.39-.1-.95.45-1.06s-.46-.94-.44-1.29c-.24-.91-.69-2,0-2.79.43-.41-.22-1.11.08-1.59-.46-1.5,1.16-2.65.76-4s-.66-2.31.24-3.43c.23-.67-.11-1.64.22-2.46s1.09-1.43,1-2.25a3.25,3.25,0,0,1,1.26-1.91c0-.66-.94-1.22-.31-1.92.19-.39.83-.31.83-.84,1-1.82-1.21-1.49-2.11-2.29,0-.29-.18-1.13.3-1.17S5.86,5,6.4,5.09c.13,0,.12,0,0-.11.53-.71-1.28-1-.7-1.33.81,0,.89-.9,1.39-1.26a3,3,0,0,1,4,0c.59.2,1.18-.36,1.8-.07a3.21,3.21,0,0,0,3.46.09c2,.39,3.57,2,5.8,1.92,1.65.11,3.44.22,5.1.35a5.47,5.47,0,0,0,4.49.74c1.51.22.7,1.76,3.07,1.74,2.38,2.49,3.8-1,5.53,1.87,1,.54,2,.71,2.41,1.93.63,1.06,1.83,1.09,2.66,1.82.74,1.72,3.23.41,4,1.74.22,1.44,1.38,2.2,1.91,3.46-.15.94.92,1.67,1.36,2.38.17.39.75.17,1,.46,1.15.54,1.65,2,2.84,2.67,1.06,1,.84,2.69.83,4.05,1.66,1.05.75,3.28,1.71,4.83.18,1.68,1.7,2.88,3,3.66,1,.36.81,1.45,1.32,2.15-.1.86.12,1.68,0,2.53a.75.75,0,0,0,.37.8c.65.37,0,1.14.17,1.71-.29,1.5-.1,3.59-1.77,4.31-.8,0-.75,1-1.3,1.3-.24.14-.81.19-.63.57.44.48.17,1.36.93,1.53.34.11.74.5.38.82s-1,1.25-.74,1.69a3.59,3.59,0,0,1,.48,2.9c-.26.89-1.77,1.44-1.19,2.48.24.68-.72.61-.73,1.28-.73,1.45-.17,3.36-1.68,4.58-1.91.42-.4,2.46-.54,3.73-1,1.25-1.51,1.93-.85,3.72.59,1.5-1.84,1.7-.95,3.15,2.11,2.67-.48,1.42.7,4.11,1.37,1.64,2.54,3.06,1.92,5.35,0,1.57,1.06,3.08.57,4.65s.85,2.32,1.61,3.55c.33.92.42,2,1.3,2.75a10.82,10.82,0,0,1,1,3.64c-2-.53-4.86-3.06-6.59-5-1.22-.74-1.34-2.57-2.39-3.58-.52-.62-1.63-.43-1.89-1.27-.2-.59-1-.8-1.52-1a5.79,5.79,0,0,0,1.85,2.37c.7.78.88,1.82,2,2.18.49.38.18,1.16.79,1.53.72.57.22,1.8,1.18,2.19a8.77,8.77,0,0,1,3.81,2c.16.11.31.3.58.16a7.32,7.32,0,0,0,2.34,1.36c1.09-.61,0-1.27.06-2,.2-1.52-.66-2.8-1.47-4a4.89,4.89,0,0,1-.76-1.66.66.66,0,0,0-.21-.74,3.54,3.54,0,0,1-.75-3.12c-.47-.84-.11-1.63-.23-2.54.11-.24.51-.18.48-.54.08-.9-.69-1.62-.77-2.49-.13-.51.26-1-.1-1.51-.25-.78-3.37-6.67-1.38-5.81-2-4.59,1.92-4.52.17-8.08-.29-1.08.94-2.07,1.17-3,.23-1.66,1.51-2.87,1.45-4.55,1.1-1.23,2.26-2.63,1.89-4.48a5.41,5.41,0,0,0-.21-1.41c-.1-.73.7-1.29.68-2.1.33-.88-1.11-1.3-1.16-2.14s1.12-.5,1.31-1.22c.29-.18.57-.31.68-.74.11-.8,1.14-.49,1.31-1.06.58-.66.42-1.45.64-2.26.21-1.5-.53-2.84,0-4.27-.22-1.84-2-2.94-2.22-4.74-.7-1.05-2.24-1.64-2.33-3-.29-.52-1.19-.55-1.12-1.25.09-.45-.56-.91-.13-1.28.27-.63-.66-1.54-.64-2.17.06-.25-.12-.6.19-.78.29-.38-.32-.85,0-1.3.46-1.64-1.55-2.75-2.86-3.23a7.63,7.63,0,0,0-3.32-3.26c-1.27-.42-.67-1.85-1.47-2.63s-.78-1.87-1.43-2.64c-.94-.41-2.1-1.51-3.12-1.09-.26.17-.24.15-.48,0A7.24,7.24,0,0,0,44,11.32a3,3,0,0,0-2.2-2.21c-.31-1-1.36-1.36-2.08-2.18-1.09-.16-2.35.39-3.47,0-1.24-1.14-2,.26-2.94-1.72A85.31,85.31,0,0,0,21.11,3.36c-1.83,0-2.87-1.69-4.67-1.57-.78-.33-1.74,1-2.1-.08,0-.47-.74-.3-1.07-.34-1.57-.12-3-.9-4.63-1.12-.44,0-.38.56-.75.75-.95.71-2.42.73-3.24,1.58-.64.83,0,2-.74,2.65-.16.11-.43.25-.24.47.46.62-.24,1.48.43,2,.12.2,1.6.72,1.25,1.43-.3.32-.68.51-.87,1-.45.45.47.62.14,1.14a10.76,10.76,0,0,1-1.76,3.15c-.46.77,0,2-.44,2.89-1.46,1.11,0,2.7-.13,4.09A13.07,13.07,0,0,1,.65,24.41a5.61,5.61,0,0,0-.14,3.12c1.22,1,.9,2.57.73,3.9S1.64,34.17,1.81,35.45Z"/><path id="void" class="cls-5" d="M19.55,4.17a37.39,37.39,0,0,0,7.31.68,6.39,6.39,0,0,0,4.16,1S31,6,31,6c-1.12,1-2,2.46-3.6,2.57-.29-.14-.31-.63-.73-.54-.79-.12-1.31-1-2.12-1.1-.44.27-.68-.34-1.11-.22-.75.26-1-.8-1.69-.52C19.61,7.08,19.94,5.66,19.55,4.17Zm7.73,62.48c.32.26.71-.12,1,.26.19.17.6,1,.81.5,0-.42-.08-.84.27-1.12a4.34,4.34,0,0,0-2.73-1c-.13,0-.1.06,0,.17C26.4,66.63,26.6,66,27.28,66.65ZM56.18,84.1c.16.73,1,.47,1.35,1A6.68,6.68,0,0,0,57.76,83c.28-1.09-1.38-3.3-2.43-2.85-.18.87.72,1.75.35,2.68C55.56,83.35,56.23,83.57,56.18,84.1ZM34.81,28.88c.52,1,1.09.61,1.86.16a1,1,0,0,0,.87-1.38l-.09,0h0c-.94-.3-1.44-1.44-2.68-.94-.49,0-.5.5-.69.84C33.64,28.33,34.51,28.45,34.81,28.88Zm4.59,7.61a3.25,3.25,0,0,0,.9-3c.94-1.18-3.32-1.22-3.53-.7.33,1.15-1,2.22-.35,3.25.86.76,1,2.35,2.46,1.77C39.55,37.67,39.38,37,39.4,36.49ZM43.08,64.2a.82.82,0,0,1,.67.11c.34,0,.47-.66.58-1-.64-.85.64-1.57.06-2.28.84-.22,2.58-.4,1.92-1.74-.62-.46.11-1.3-.32-1.63-.44-.49-1.38-1.28-1.75-.39-2,1-.94,2.33-1.85,4.13.14.86.66,1.66.48,2.55C42.8,64.19,42.89,64.28,43.08,64.2ZM26.56,51.13c.4.13,1,0,1.05.51.08,1.16,1.17.89,1.79,0,.47-.45,1.26-.26,1.8-.64,1.24-.85-.58-2.84.88-3.72.64-.77,1.29-2.17,0-2.56-.74.35-.86,1.54-1.65,1.85a1,1,0,0,0-.77.63c-.59.87-2.12-.42-2.59.83C25.41,48.92,27.46,50,26.56,51.13Zm12.3-2.54c0-1.28-1.24-2.74-2.5-1.58,1.84,1.76-2.76,4.48,1.72,3.44C38.09,49.79,38.63,49.25,38.86,48.59Zm3.44,5.68c.16-1.83-1.43-2.64-2.55-1.09-.64.51.45.63.48,1.06C40.23,55.61,41.51,54.31,42.3,54.27Zm5.1-4.47a.47.47,0,0,0,.65-.22c.22-1.37-.73-1.76-1.9-1.91-.3-.13-.37,0-.45.28-.47.5-1.3.71-1.63,1.36-.87.37,0,2.12.71,2.1C45.61,50.87,46.39,49.8,47.4,49.8Zm9.93-2.1c.49-1.73,2.63.13,2.15-2.06-.18-.53.54-.64.78-1,1-1.42-1.67-1.06-2.36-.54-.86,0-1,.54-1.86.65s-1,1-1.3,1.67c-.19,1.27,1.38,1.76,2.14,2.43C57.2,48.78,57.41,48.1,57.33,47.7Zm-.5,10.78c.54-.14.4-1.34.42-1.85,0-1.81-.89-2.2-1.65-.38-.33.38-1.81,2.37-.89,2.56A2.67,2.67,0,0,0,56.83,58.48ZM49.64,69.57c-.12.45,0,1.73.59,1.59a2.1,2.1,0,0,1,2.55.66c1.94.5.53-2.23.53-3.25-.33-1,.83-1.62,1-2.55.4-.87,1.44-1.7.77-2.64-.51-.31-1.12-.36-1.32-1-2.22,0-.84,2.5-1.76,3.7C51.33,67.52,48.93,67.72,49.64,69.57ZM55.12,87.1c-.38-.63-.47-1.76-1.31-1.91a.53.53,0,0,1-.57-.49c-.22-.47.07-1.22-.33-1.5-.38-.12-.45-.47-.61-.73-.37-.72-.58-1.72-1.63-1.37-1.29.36.32,2.83-1.43,3.2a1.66,1.66,0,0,0-.21.16c2,.71.7,3.77,2.93,4.4.92.25,1.74-.75,2.7-.15C55.15,88.8,55.1,87.51,55.12,87.1ZM47,80.21a2.63,2.63,0,0,0,1.6-2.35,6.16,6.16,0,0,1-.51-2.26c.18-.54-.24-.48-.62-.58-3.13-.39-5.49-1.86-6.64,2.09-1,1.44,2.42,1.37,2.54,3.21.32.83,1.22.05,1.8-.06C45.79,79.89,46.33,80.44,47,80.21ZM36,69.29c.41,0,0-.64.23-.85.48-1.16,2-1.47,2.8-2.22.07-.8.67-1.55.67-2.37-.71-.64-1.37-1.56-2.44-1.57-.73.19-1.15-.77-.71-1.29.29-.34-.27-.53-.23-.89-.23-.28-1.37.27-1.23.87-.34.78.68,1.43.53,2.16-.42,1.07-1.31,1.91-1.28,3.08-.43,1.62,0,1.48.6,2.88C35.05,69.47,35.63,69,36,69.29ZM32.07,59c0-.39-1-.92-1.13-.49s-.92.88-.52,1.39c.21.47.79,1.3,1.3,1.19A2.17,2.17,0,0,0,32.07,59ZM7.73,20.55c.08-.73.85-1.27,1.2-1.92a6.47,6.47,0,0,1-3.35-.18c-.35-.05-1.31-.42-1.29.16C3,19.84,3.71,20.25,4,21.88c-.09.84,2.18,1.19,2.48.71S8.07,21.55,7.73,20.55Zm-.44,18C7,34.26,6.47,35,3.61,36.9a2.72,2.72,0,0,0,1.46,2.53C5.66,39,6.89,38.93,7.29,38.54ZM17.54,41c-1.1.36-1.27-1-2.31-.8a3.69,3.69,0,0,1-3.15.75c-.24-.16-.95-.29-.93.14-.26,2,2.24,4,4,3.28a.79.79,0,0,1,1-.28c1,.13,1.07,1,1.42-.45C17.81,42.76,17.44,41.87,17.54,41Zm2.83,8.26c.87-.66,2.35-1.79.72-2.43-.78-.2-1-1.37-2-1a.45.45,0,0,1-.52,0c-.27,0-.13,1-.36,1.27C18,48.23,19.78,48.75,20.37,49.25ZM24.17,57c-.08-.1-.15-.3-.05-.34a2.65,2.65,0,0,0,1.22-2.43c-.31-.29.39-.62.28-1.05s-.87-.38-.64-.85c.36-.63-.64-.84-1.15-1.09-1.84-.37-2.62,2-2.36,3.43.1.95,1.76.64,1.66,1.75C22.93,57.27,23.64,57.08,24.17,57Zm2.75-12.83c0-1.62,3.52-.49,3.2-1.79-.57-.73-1.72-.91-2.18-1.86-.59-.53-1.31-.05-2-.31-.38-.08-.39-.45-.61-.67a9.77,9.77,0,0,0-2.19.46c-.6,0-.55.59-.9.91s-1.26,0-1.37.64c-.61,3,2.22-.25,2,3.9.35,1.21,1.58.15,2-.5S27.09,45.26,26.92,44.21Zm4.41-1.8c.48-.07,1,.25,1.4.13.52-1.22,2.31-1.79,1.9-3.27a4.18,4.18,0,0,1-1.2-2.5c-.47-.08-1.53-1.06-1.85-.62-.37,1.05.27,2.3-.42,3.17.45,1.15,1.12,2.17-.13,3.13C31.16,42.51,31.17,42.46,31.33,42.41Zm7.58,1.69c.17-.63.83-.82,1-1.35.46-1.3-.5-1.76-1.52-2.07-1.85-1.14-1.33,2.32-.51,3C38.25,43.76,38.58,44.14,38.91,44.1Zm6.58-5.4c.15-1,.12-3.38-1.28-2.53.07.19.07.21-.1.22a4.08,4.08,0,0,0-2.18,1.24c-.3.83.48,3.39,1.55,1.76C43.87,38.58,45.15,39.45,45.49,38.7Zm4.57,1.13A19.73,19.73,0,0,0,54,41.94c1.14-1.13.74-1.74,0-2.88-.45-.62-.13-1.35-.22-2-1-1.23-2.34-.51-2.6.86C51.37,38.89,49.71,39,50.06,39.83ZM56.63,38c-.2.85,0,1.68.89,1.82-.12-.72,1.29-.6,1.75-1,.24-.24-.52-.51-.35-.92-.15-.59.6-1.47.16-1.89s-1.24-1.13-2.06-.85c-.06.65,0,1.28-.86,1.4C56,37.13,56.88,37.42,56.63,38Zm-5.48-8.15c-.31.38.33,1-.33,1.22a2.65,2.65,0,0,1-.75.88c-.1.47.37.69.66,1,.45.3.16.9.52,1.22.83.64,2-.5,3-.67.54-.42.07-1.26.28-1.83.26-1.34-1.65-.38-2.15-1.41C52.2,29,51.78,28.57,51.15,29.87ZM47.79,24c1.17.55,1-1.48,1.84-1.63.32,0,.67.09.85-.26.94-.8-.44-1.43-.36-2.35,0-.47.25-1.32-.42-1.29a5.29,5.29,0,0,0-.26,2.58c.07.7-.79,1.11-1.44,1s-1.1-1.27-1.92-1c-3,1.12-2.1-.48-2.71,2.87C44.7,24.66,46.47,23.32,47.79,24Zm-2.51-5.75c3.4-3.47-.37-2.77-2.68-3.84-.79-.35.31-1.15-.17-1.59-.67-.56-1.18-.71-1.75.05,0,.26.56.64.15.83-1.16.68-2.33-.89-1.31,1.42,1,1.51,2.13,3.52,4.17,3.15C44.29,18.32,45,19.11,45.28,18.28ZM41.1,25.37c.62-.48,2.18-.44,2-1.47,0-.61.46-1.54-.17-2-.49-.13-.89-1.37-1.29-1.08-.85.3-.48,1.31-1.25,1.71-.53.77-1.39-.11-2.09.05-.59.64-.58,2.58.37,2.84A2.63,2.63,0,0,1,41.1,25.37ZM29.18,27.86c-.46,5.59,6,2.91,3,1.12C29.85,29.32,30.62,28,29.18,27.86Zm-7.72,1c-.4,1.49-3.26,1.43-3.24,3A1.49,1.49,0,0,1,18,33.06c-.74,1,.47,2.32,1.43,2.42a6.11,6.11,0,0,0,2.32-.84c.69-.07,1.61.44,2-.54a4.46,4.46,0,0,0,1.31-2.7c.11-1,1.78-1.48.77-2.61-1-1-2.87-.66-4.28-.64C21.5,28.33,21.59,28.63,21.46,28.83Zm7.08-5.51c.12-1.71-1.24-1.95-2.26-2.92-.71-.35-.7,1.14-1.36,1.42C24.35,23.45,27.73,24.61,28.54,23.32ZM34,17.5c.39-.55,1-1.68.22-2.15-.86-1.4-.17-1.7-2.24-1.66-1.6.22-2.35,2-3.68,2.89-.71,1.41,1.9,2.39,2.69,3.29.78.55,1.5,1.82,2.29.57C33.93,19.52,33.76,18.51,34,17.5Zm-6.32-3.77c0,.91,1,.88,1.39,1.51a.07.07,0,0,0,.13-.05c0-.44.45-.48.72-.69.48-.23.55-1,1.13-.89.92-.47.13-2.13,1.6-2.42.39-.41-.15-1.34-.08-1.89-1.45-.07-5.59,1.7-6-.06.27-.2-.1-.24-.22-.06-.64.6-1.47.32-2.23.42a2.67,2.67,0,0,0-.64,1.89c.89,3.5,2.86-1.11,4.36.89C28.06,12.82,27.69,13.31,27.63,13.73ZM11.72,4.58c.45-.61,1.57-.21,1.94-.86,0-.35.73-.32.62-.53-.81-.14-1.5-.73-2.31-.54-1.44.46-2.85-1.7-4.23-.14-.09.09-.28.09-.12.28-.22.34-1,.67-1.19,1s.65.55.54,1.06c1.09.57,2.09-.06,3.19,0C10.63,4.82,11.44,4.91,11.72,4.58Zm-3,6.89a3,3,0,0,0-.07-2.21c-.32-.32-1.28-1.44-1.31-.47-.17.76-1.09.8-1.19,1.57.2,1.31,1.56.8,2.42,1.24C8.65,11.65,8.77,11.61,8.73,11.47Zm5.55-1.73c.17.39-.18,1,.31,1.24,1.57,0,1.94,1.81,3.33,2,.78-.09,1.09.68,1.75.81s.29-.58.77-.52c.51-.12-.12-.83-.08-1.19-.5-.16-.54-.92-1.11-1-3.74.17-2.38-5-5.86-3C12.2,8.75,14.18,9,14.28,9.74Zm2.12,13.1c1.86.34.77-2.47,2.3-2.86A3.49,3.49,0,0,1,17,18.26c-1.45,0-2-.78-1.75,1.14C15.33,22.14,13.5,20.87,16.4,22.84Zm-4.95,9.59c1.84-1.2,1.64-1,1-2.92,1.12-2.38-.61-1.13-1.31-2.56-.88-.88-2.68,0-3.86-.6-2.42,1.4-1.26,2.11-.16,4C8,31.46,6.26,33.8,8.28,33,9.48,33.25,10.67,33.85,11.45,32.43Z"/><path id="void-2" data-name="void" class="cls-6" d="M58.37,51.1c-.26-.56-1.35-.67-1.32-1.34.35-.38.34-1.51,1-1.45.66.32.21,1,.32,1.56a1,1,0,0,1,.06,1.32A.26.26,0,0,0,58.37,51.1ZM7.42,7.5c1.18.3.39-1.54.9-2A2.91,2.91,0,0,0,7,5.19c-.46.51-1.5.19-2,.71C4.89,7.08,6.71,6.79,7.42,7.5Zm15,3.33c-.64-1.12-1,.82-1.57,1.11a.47.47,0,0,1-.23.12,1.46,1.46,0,0,0,2.74.45A2.49,2.49,0,0,0,22.46,10.83Zm0-.61c.33-.07.49.8.75.48.64-1.21,0-1.67-.88-.67C22.28,10.13,22.27,10.24,22.44,10.22ZM33.38,69.51c1,.42,1.57-.47.74-1.13-1-.84.09-2.33-.11-3.42.31-.74,1.4-1.36,1.1-2.26-.8-1.09,0-2.3-.75-3.29-.33-.47-2.46-.85-1.75.21.46.58-.39,1.05-.55,1.66s.58,1.78-.06,2.46-.92,2.51-2.12,2.76c-.54.11-.16.87-.41,1.16-.75,1,.76,1.3,1.45,1.34s.29,1.35.79,1.38C32.36,70.21,32.63,69.33,33.38,69.51ZM56.31,59.16a1.53,1.53,0,0,1-1.48,0A11.57,11.57,0,0,0,52,60.23c.07.13.39.2.32.4.07.57.89.49,1.32.71,2.09-1.27,1.84.53,3.74,0C57.81,60.62,57.14,59.05,56.31,59.16ZM40.53,32.39c.76-.11,1.46-.64,2.25-.45-1.41-1.42,0-2.75.14-4.36,0,0,0-.16.06-.29a9,9,0,0,1-1.15.06c0,.27-.24.33-.38.41-.81,1.19-2.58,0-3.44.31.11,1-.89,1.08-1.6,1.4-.41.58-.57,1.59-1.28,2,.09,1.08,2.06.74,2.89.61A22.47,22.47,0,0,0,40.53,32.39ZM29.3,27.53c1.17.8,2.6,1.67,4,.8,1-1,.73-3.27-.23-4.25-1-1.45-2.46.3-3.92-.3-.33.38-.46,1.14-.77,1.6A5.53,5.53,0,0,0,29.3,27.53Zm-4.74,6.29c-1.5,1.42-2.08,1.19-.17,2.75,1,.55.83-1.27,1.5-1.47C25.2,35,25.12,33.49,24.56,33.82Zm6.6,2.32a2.81,2.81,0,0,0-.38-2.69,7.59,7.59,0,0,0-2.25,3.47C30,40.43,31.41,39.67,31.16,36.14ZM13.58,46.86c1.07.36,3.83,1.63,4.36,0,.78-1.33-.63-2.07-1.7-2.43-.72-.3-1,.65-1.66.62-2.21-1.13-2.09,0-.83,1.54C13.9,46.78,13.68,46.71,13.58,46.86Zm2.75-6.72a1.21,1.21,0,0,0,1.2.62c.41,0,1-.59.83-1a1,1,0,0,1-.08-.82,7.68,7.68,0,0,1,1.87-2.11c.27-1.54-1-.69-1.69-1.47-.32-.42-1.09-.81-1-1.39a6.56,6.56,0,0,0-2.58-.49c-.71,1.45-.21,3.32-1.81,4.56a1.81,1.81,0,0,0,.05,1.53c0,.35-.74.9-.22,1.12C14.21,41.14,15.12,39.08,16.33,40.14ZM12.56,26.53c1,1,1.82,1.29,3,.38.58-.26,1.24-.39,1.1-1.2-.19-.65,1-.4.64-1-.49-.38-.42-1.23-.94-1.45-.3.05-.31-.32-.49-.46-1.94-1.45-.94,0-2,1-.37.4-.89-.05-1.34.18C11.09,24.42,11.21,26,12.56,26.53ZM6.45,34.22c0-.44.45-.52.36-.84,0-.08.07-.25.06-.39.12-1.08.5-2.88-.79-3.45-.78.5-1.22,1.37-2.18,1.74-1.47,1-1.08,3.42-.3,4.82C4.66,36.24,5.91,35.05,6.45,34.22ZM8.07,13.6a.63.63,0,0,0-.11.94c.67,1-1.3,1.69-.91,2.76-.3.68-1.34,1.11.22,1.16,1.47.4,2.5-1.07,3.75-1.39.29-.57.34-1.88,1.23-2.21a1.28,1.28,0,0,0,1.33-1.66c-.74-.63-1.14-1.2-.71-2.19a10.8,10.8,0,0,1-3.24-.27c-.31,0-.54.51-.56.82C8.62,12.18,8.72,13.09,8.07,13.6Zm9.22-6.23a.62.62,0,0,0,1-.33c0-.4.46-.46.74-.63.71-.36.45-1.78.12-2.38a3.59,3.59,0,0,0-5.41.18c-.32.32-1.94.17-1.55.77,1,2.12,1.35,1.15,3.13,1.62C15.83,7.3,16.65,7,17.29,7.37Zm4.59,10.28c-.33,0,.09.51.06.7.22.94-.93,1.26-1.39,1.7.29.33-.54,2.21.44,1.65.63-1,1.41.58,2.14.13.44-.37,1,.07,1.39-.16,1.34-1.05,1.08-2.7,0-3.83A7.4,7.4,0,0,1,21.88,17.65Zm17.36-2.17c-.49-.88-.14-3-1.87-2.77-.12-.15-.19,0-.27,0-.55.58-1.42-.09-2.07.28a1.29,1.29,0,0,0-.41,2.26c.62.63,1.24-.61,1.94-.42A5.59,5.59,0,0,0,39.24,15.48Zm.64,7c.89-.23.58-1.52,1.38-1.78.43-.88-1.88-.67-2.44-.82-.58.95-.73.16-1.55.45C37.17,21.75,38.5,22.5,39.88,22.44Zm6.87-1.9c-.13.64.8.55,1,1.13.19.27.65.12.88.11.8-.92.09-2.32.75-3.45-1-.13-.58-1.25-1.3-1.61-.34,0-1.17-.71-1.16-.08S46.5,17.81,46,18.2C46.06,18.84,47.15,19.61,46.75,20.54Zm6.15,6.51c0,.09-.08.16-.23.09-.39-.22-.5.34-.59.62A3.91,3.91,0,0,0,53,30.33c.43.23.84.5,1.34.24.49-.07.95.1,1.34-.3.56-.54-1.14-.55.29-1.84.78.08-.09-.8.45-1,.18-.09.69-.11.59-.35.31-1.74-.59-4.25-2.27-4.6-.64.91-.16,2.61-1.43,3.08C53,26,53.13,26.57,52.9,27.05Zm4.64,16.66c.69.11,2.57-1,3,0,3.22-.31.74-2.19-.17-3.66.22-.39-.52-1.19-.9-.91s-1.5.07-1.45.91a2.17,2.17,0,0,1-.93,1.79c.55.44.07,1.18.33,1.62C57.6,43.5,57.67,43.55,57.54,43.71Zm-7.78-4.57c1.05-.5,1-1.7,1.51-2.61.07-.23-.59-.24-.78-.34a5.23,5.23,0,0,0-1.59-.58c-1-1.41-2.11-.94-3.31.1a7.69,7.69,0,0,1,.32,2.86c.21.77,1.46.58,2.08.47C48.6,38.73,49.17,39.23,49.76,39.14Zm-8.32,10c-.06-.44-.76-.87-.43-1.38a2.12,2.12,0,0,0-.33-3.06c-.23-.31-.76-1.62-1.14-1s-.29,1.3-.48,2a3.12,3.12,0,0,0-.23,1.5c1,1.34-.22,2.33-.62,3.69.15,1.23,1.91,1.23,2.83,1.11A5.17,5.17,0,0,1,41.44,49.13ZM27.53,58.39c.28-.15.21-.66,0-.91-.57-.6.11-1.37,0-2.06-.59.55-1.5.06-2.06.2-.47.89-1.56,1.74-.79,2.8,0,.77.45,2.25,1.56,1.87C26.58,59.51,26.6,58.68,27.53,58.39Zm6-5.74c.42.57-.38,1.24.11,1.77.95.5,2.25,1.46,3,1.81.71-.94.22-2.18,1-3.08a1.4,1.4,0,0,0,.16-2.08c-.25-.44-.69-.07-1,0-.81.2-1.26-.67-2-.84C32.69,49.92,31.81,51,33.56,52.65Zm11.86.13c0,.46-.36.88-.32,1.34a19.47,19.47,0,0,0,1.7,1.4c.5.64.74,1.91,1.73,1.26,1.25-.49,4.48.7,4.86-1.12,0-.56.48-1.22.22-1.78-.1-.29-.38-1,.07-1.09,0,0,.07-.06.12-.1-1.42-1.4-1.08-3.28-3.83-1.89-.58.2-1-.37-1.48-.57-1.28-.41-2.35.46-3.34,1.28C44.71,51.94,45.36,52.34,45.42,52.78ZM48,65.55c-.35-1.53.45-2.28,1.43-3.34-1-.72-1.58-1.68-3-1C46,61.06,44.77,61,45,61.7a1.48,1.48,0,0,0-.32,1.64c-.94,2.65.88,2.07,2,3.65C46.92,66.34,47.87,66.14,48,65.55ZM35.1,73c-.32,1.13,1.71,1,2.09,1.92,0,1.08.6,1.26,1.44,1.63.13.52.24,1.59,1,1,1-.52,1.16-1.44,1.62-2.36,1.27-1.16,2.6-2,2.86-3.92.26-1.64-2.16-.58-2.64-1.69-.84-3-3.13-.12-3.47,1.54-.71.54-1.4-.28-2.16.13-.83-.37-1.67.36-.85,1C35.29,72.48,35.32,72.7,35.1,73ZM55.6,79.7c.32-.26-.23-1.4-.29-1.88-.5-.5-1.53-.88-1.59-1.62.51-2-2.29-2.46-3.78-2.27a3,3,0,0,1,.45,3.13c.2,1.65,2.32,1,1.38,3.76.95,1.12,1.58,3,3.48,2.33C55.71,82.15,54,79.65,55.6,79.7Zm4.67,14.9a5.13,5.13,0,0,0-1.67-3.09c-.22,1.62-1.52.26-1.94-.54-.68-.56-1.66-.58-1.84-1.66-.63-.6-1.31-.42-2-.16-.16,0-.77,0-.59.27,2.16.67,2.55,2.71,3.67,4.43C58.32,96.23,65,102.37,60.27,94.6Z"/><path id="fill0" d="M66.06,44a18.54,18.54,0,0,1-.28-3.85,5.8,5.8,0,0,0-1.63-3.26c-.35-.31-.14-.77-.25-1.07-.31-.11-.35-.42-.46-.65-.54-.66-1.4-1-1.77-1.79a3.38,3.38,0,0,0-1.3-1.81c.05-.5-.75-1.09-.18-1.39a5,5,0,0,0-.57-1.91c-.31-.51.15-1,.14-1.42-.45-.67.36-1.3,0-2a4.66,4.66,0,0,0-3-2.47,7.1,7.1,0,0,0-3.26-3.19c-1.13-.49-.78-1.69-1.38-2.5-.26-.59-.75-1-1-1.58-.14-.43,0-.77-.29-1.18-1.2-.67-2.52-1.51-3.9-1.3A7.45,7.45,0,0,0,44.18,11,2.63,2.63,0,0,0,42,8.88c-.2-.3-.13-.81-.47-1a1.75,1.75,0,0,1-1-.72c-1.1-1.6-3.27.38-4.36-.9-.47-.56-1.75.13-2.06-.52-.11-.42-.24-.93-.76-.91a22.67,22.67,0,0,1-2.73-.52c-.44-.08-.82.25-1-.31-2.2-.47-4.91-.54-7.22-1-2.57.67-4.14-2.16-6.76-1.52-.38-.12-.82.57-1,.17.1-1-1.49-.36-2.12-.66C6.48-1,9.6.39,5.67,1.64,3.93,2,4,3.55,3.68,4.85c-.19.2-.8.58-.45.86.6.54-.18,1.14.36,1.69.14.86,1.34.62,1.46,1.46-2.07,1.76.2,1.93-1.45,3.48C3.19,13.68,2.08,14.48,2.29,16c-.35,2.45-1.46,1.3-.42,4.7.31,1.08-1,1.73-1.05,2.78C.68,24,0,24,.19,24.64A12.45,12.45,0,0,1,0,27.29c.24.76,1.52,1.23,1,2.39-.25.63,0,1.29-.12,1.93a3.24,3.24,0,0,0-.09,1.73c1.06,1.08.13,2.9.63,4.22a28.47,28.47,0,0,0,2.74,5.06c.55.8,1.79.56,2.15,1.64,2,1.16.42,2.07,1.56,2.72s2.61.63,3.85,1.43c.78.15.74,1,1.28,1.36a6.81,6.81,0,0,0,2.12.32c.5,0,.56.17.6.61.11.73,1,.93,1.11,1.68a6.49,6.49,0,0,1,2,1.68c.25.4.84.4.77.95-.21,1.21,2.28,1.49,1,2.73.42.53.26,1.5.78,1.91.34.47,1.22.81.94,1.49a17.78,17.78,0,0,0,.26,3.43c-.89.34-.4.76-.53,1.45.14.8.78,1.63,1.73,1.36,2.14-.3,2.53,1.85,3.84,2.93,2.13,1,2.94,3.5,4.92,4.85,3.62.59,1.21,3.4,6.91,5.12,1.85,1.17,2.71,3.46,4.22,5,.94.49,1.66,1.23,2.63,1.67.3.12-.21.36,0,.52,1,1.15,3-.24,3.72,1.65.14,1,1,1.32,1.59,2s.68,1.65,1.67,1.87c.47.13.58.57.62,1a5.91,5.91,0,0,1,1.07,2.43c.6,1.26,2.42.89,3.39,1.76,1.41.85,2.71,2.51,4.49,2.31,0,0,0,0,0,0,1.54-1.19.14-1.1.39-2.47.13-1.77-1-3-1.89-4.45-.26-1.46-1.53-2.68-1.53-4.09.19-1.32-.57-2.51.27-3.82-.63-1.68-.39-3.13-.87-4.48-.18-.56-2.76-5.74-1.58-5,.77-.3-.87-2.49-.06-3.54-.16-1,1-1.69,1.15-2.53a3.78,3.78,0,0,1-.16-1.16,3.31,3.31,0,0,1,.65-3.75,8.56,8.56,0,0,1,1.37-3.31c-.09-1.78,1.42-2.59,1.94-4.15a9.57,9.57,0,0,0,0-3.54c0-1,1.48-2.18.31-3.11-2-1.41.91-1.7,1.23-3.08.16-.57,1.09-.15,1.23-.83A5.76,5.76,0,0,0,66.06,44Zm-50.88,4.7c-1.39-1.65,1.44-.31,2.32-.87.9,0,1.25,1.61,2.27,1.46C21.47,53.52,16.38,50.6,15.18,48.68Zm-1.44-2.12C12.48,45,12.38,43.9,14.58,45c.63,0,.94-.92,1.66-.62,1.07.36,2.48,1.11,1.7,2.43-.53,1.66-3.29.38-4.36,0C13.68,46.71,13.9,46.78,13.74,46.56ZM2.84,28c.93-1.13,0-2.58.53-3.86.44-1.72.92-1.37,2.38-1.09,1.21.31,0,2.38,1.4,2.94C6.66,26.24,6,27,5.4,27.46s.5,1.24.67,1.73c-.84.35-1.2,1.28-2.12,1.7C3.07,31.07,2.67,28.68,2.84,28ZM5.55,13.23c.2-.74.91-1.18,1.35-1.68.86.16,1.85.1,1.28,1.25,0,.55-.79.69-.77,1.28s.55.75.14,1.17c-.8.63-.68,1.86-1.23,2.42C2.49,19.69,5.08,14.84,5.55,13.23ZM7.74,2.51c1.38-1.56,2.79.6,4.22.14.82-.19,1.51.4,2.31.54.12.21-.59.18-.6.54-.38.64-1.5.24-2,.85-.27.33-1.09.24-1.55.26-1.1-.08-2.1.53-3.19,0,.11-.52-.64-.68-.54-1.07s1-.62,1.19-1C7.46,2.6,7.65,2.6,7.74,2.51ZM31.47,5.85c.9-.54,1.25,1.72,3,1.53,1.58.68,1.51,1.83,3.61.83,1.23-.41,1.61.83,2.5,1.39a2.9,2.9,0,0,1,1.47.71c.42,1.61,2,1.87,3.1,2.75.63,1,1.87,1.11,2.93,1,1.34.11,1.19,1.51,1.79,2.43.2.41.83.39.9.92.29.94.35,1.29-.71.77-1.28-.25-.92-.7-1.42-1.57-.4-.43-1.27-.26-1.52-.81-.61-1.43-2.85-.71-4.1-1.61-.66-.33.19-1.08-.12-1.45C41.56,12,40.26,10.93,38.65,11c-.51-.17-.47-1.18-1.17-1.24-.95-.2-1.78-.69-2.67-.89-.39,0-.72.48-1.12.29-.21-.09-.38.29-.6.09-.92-.72-2,.12-3.06.1-.57.23-4.38.58-2.77-.56,1,.23,1.56-.56,2.35-.9s1-1.4,1.74-1.82C31.44,6.05,31.61,6,31.47,5.85ZM58.13,30.58c.41.34,0,.92.12,1.21,1,.71.31,2.35.46,3.4-.71-.55-1.64,0-2.24-.67-1.51-1.22-2.67-3.08-.31-4.14.2-.19,0-.67-.27-.79-.3-.28.07-.92.47-.82.75.05-.11-1,.55-1C58.36,28.18,58,29.45,58.13,30.58Zm4.95,8.56c.15.94.37,2.72-.77,3-.22-.84-1.26-1.26-1.45-2.07,0-.85-1.19-1.14-1.45-1.88-.45-.68.66-1.59.11-2.19-.84-.39-.46-1.41-.31-2.09C60.39,35.73,63.66,36.46,63.08,39.14Zm.51,5.2c.14,2-1.42,2.47-2.45,3.69-.17.51-.72.56-1,.93-.08.08-.15.2-.22,0a1.34,1.34,0,0,1-.62-1.29c.17-.68,1-1.13.65-2-.07-.19,0-.28.21-.42.7-.29.6-1,1-1.27a6.06,6.06,0,0,0,1.38-.53c.4-.26-.23-.92.25-1.06a1.11,1.11,0,0,0,.64-.78C64.47,41.45,63.33,43.62,63.59,44.34Zm-3.07,9.25c1.54,1.91-.85,3.56-.64,5.33A4.48,4.48,0,0,0,59,60.25c-.5.52-.12,1.24-.32,1.86.17,2-3.29,2.63-1.95,4.6a6.14,6.14,0,0,1,.07,1.61c-.1.71-1.1.78-1.08,1.64,0,2.25,1.1,3.07-1.37,4.43-.34-.79-1-2.13-.06-2.78.26-.54-.85-1.48-.08-1.93a6.43,6.43,0,0,0,1.26-2.37c0-.51-.95-.91-.67-1.42,2.65-3.56-1.62-2.21-.46-4.57.61-.65,1.37.35,2,.46C58.55,62,58.25,60,57,59c-.14-.29.67-.3.59-.74a8.77,8.77,0,0,1,.27-2.49c-1.86-1.57,1.3-1.51.93-4.28,1-1.22-.5-1.27.13-2.59.55-.6.74.93,1.24,1,.39.42.4,1.17,1.1,1.35C61.82,51.69,59.74,53,60.52,53.59ZM58.27,89.65c-.09.59-.32,1.17.16,1.67-.12.07-.26-.1-.26.13,0,.73-.75-.13-.88-.43-.53-.88-1.92-.66-2.1-1.9,0-.07-.14-.23.08-.26a18.07,18.07,0,0,0,.4-1.9c.14-.48.81.28,1-.24s.85-.35,1.09-.81A7.81,7.81,0,0,1,58.27,89.65Zm2,4.95c4.68,7.77-2,1.63-4.42-.75-1.12-1.72-1.51-3.75-3.67-4.43-.18-.28.43-.26.59-.27.74-.26,1.42-.45,2,.16C55,90.39,56,90.41,56.66,91c.42.8,1.73,2.16,1.94.54A5.18,5.18,0,0,1,60.27,94.6ZM37.19,74.89c-.38-.93-2.4-.79-2.08-1.91.21-.28.17-.5-.11-.74-.82-.67,0-1.4.85-1,.76-.41,1.45.4,2.16-.13.34-1.66,2.63-4.55,3.47-1.54.48,1.1,2.89,0,2.64,1.69-.26,1.9-1.58,2.75-2.86,3.93-.47.91-.63,1.83-1.62,2.35-.77.6-.87-.47-1-1C37.79,76.15,37.14,76,37.19,74.89Zm-8.1-7.48c-.21.54-.62-.32-.81-.5-.28-.38-.68,0-1-.26-.67-.63-.86,0-.68-1.15-.06-.11-.09-.18,0-.17a4.3,4.3,0,0,1,2.73,1C29,66.57,29.06,67,29.09,67.41Zm-3.34-4.76c-.5-.45-.85-2.24.21-2,.22,0,.23,0,.1.21s.63.36.38.73c-.11.66.23,1.26,0,1.93-.13,2.82-.64.43-1.48.57C24.31,63.54,25.78,63.17,25.75,62.65Zm-1-4.24c-.76-1,.32-1.9.78-2.79.57-.13,1.48.35,2.07-.19.09.68-.59,1.45,0,2,.16.25.23.76,0,.91-.93.29-1,1.11-1.22,1.9C25.2,60.66,24.71,59.18,24.75,58.41Zm-.45.14c.2.15,0,.44-.23.33-.68-.05-.78-.77-.8-1.31C24.26,56.83,24.06,57.93,24.3,58.55Zm-.18-1.85c-.11,0,0,.23.05.34-.54.05-1.24.24-1-.58.1-1.11-1.56-.8-1.66-1.75-.26-1.47.52-3.8,2.37-3.43.5.25,1.5.46,1.13,1.09-.22.47.68.42.65.85s-.59.76-.28,1.05A2.65,2.65,0,0,1,24.12,56.7Zm-2.86-3.59s0,.07-.06.1c-.11-.81-1.39-.67-1.21-1.52a.62.62,0,0,1,1.09.13C21.54,52.13,21.06,52.66,21.26,53.11Zm-3.72-9.48c-.34,1.41-.4.58-1.42.44a.78.78,0,0,0-1,.29c-1.74.72-4.24-1.25-4-3.28,0-.43.68-.3.93-.14a3.71,3.71,0,0,0,3.15-.74c1-.22,1.21,1.15,2.31.78C17.44,41.87,17.8,42.76,17.54,43.63ZM7.66,37.36c.24-1.07-1-1.91-.92-2.73.32-.37.08-1.05.61-1.15,1.16-.4,2,.38,3.16.12.62.06,1.11-.5,1.71-.34.93.44,1.36-1.13,2,0a8.23,8.23,0,0,1-.5,3.45c-.31.57-1,.85-1.1,1.55-.21,1.91-1.79.54-2.85.35C8.41,38.54,7.48,39.41,7.66,37.36Zm-1.06-14c0-.8.92-1.29,1.35-1.89a5.74,5.74,0,0,1,1.32-2.74c.39-.37,1.46-1.62,1.88-1.16,0,1.4.92,2.65.62,4-1.47.93-.06,2.64-1,3.46-.25.35-.91.49-.83,1,0,.17,0,.22-.22.23A2.47,2.47,0,0,1,6.6,23.36ZM7,17.29c-.38-1.06,1.59-1.8.92-2.76a.61.61,0,0,1,.12-.92c.65-.52.54-1.43,1-2,0-.31.25-.86.56-.82a10.84,10.84,0,0,0,3.25.27c-.44,1,0,1.56.69,2.2a1.27,1.27,0,0,1-1.32,1.65c-.89.34-.94,1.64-1.23,2.21-1.25.32-2.28,1.8-3.75,1.39C5.72,18.42,6.75,18,7,17.29ZM8.64,7.2C7.83,4.83,10,5,11.58,5.14a2.45,2.45,0,0,1,1.16,3c-.49,1.1,1,1,1.25,1.77,0,.34.09,1-.45.85-1.3-.34-2.73.17-4-.4A3.84,3.84,0,0,0,8,8.28C7.25,7.82,8.74,7.57,8.64,7.2Zm4.76.86c3.47-2,2.11,3.18,5.85,3,.57.07.61.83,1.11,1,0,.36.58,1.07.08,1.19-.48-.07-.21.63-.77.52s-1-.9-1.75-.81c-1.39-.18-1.76-2-3.33-2-.48-.19-.14-.84-.3-1.24C14.18,9,12.2,8.75,13.4,8.06Zm-.1-.73c-.06-1,2-.83,2.26,0a2.9,2.9,0,0,0-2.22.42C13.33,7.59,13.31,7.46,13.3,7.33Zm19.81,3.6C33,10.42,33,10,32.88,9.47c.29.19.46.32.78.13.42.17,1.14-.55,1.32-.26a4.51,4.51,0,0,0,1.32,2.19c1.27,1.57-.45.9-1.44,1.11-.38.24-.72.76-1.13.86-.49-.38-1.84.34-1.81-.45C31.3,11.92,33.22,11.78,33.11,10.93Zm9.49,3.51c2.31,1.08,6.07.37,2.68,3.84-.3.83-1,0-1.6,0-2,.37-3.17-1.64-4.16-3.15-1-2.31.16-.74,1.31-1.42.41-.19-.16-.57-.16-.83.58-.76,1.08-.61,1.76-.05C42.91,13.29,41.81,14.08,42.6,14.44Zm4.28,2.2c0-.63.82.06,1.17.08.72.36.3,1.48,1.29,1.61-.66,1.13.06,2.53-.75,3.45-.22,0-.69.16-.88-.1-.16-.58-1.09-.5-1-1.14.4-.94-.7-1.7-.77-2.34C46.5,17.81,47,17.35,46.88,16.64Zm2.56,4.45a5.32,5.32,0,0,1,.26-2.59c.67,0,.44.82.42,1.29-.08.92,1.3,1.56.36,2.35-.18.34-.53.25-.85.26-.85.15-.67,2.18-1.85,1.63-1.31-.7-3.08.62-4.41,0,.61-3.35-.29-1.75,2.71-2.86.83-.31,1.2.9,1.92,1S49.51,21.79,49.44,21.09Zm5.3,12.6c.35-.67,2.51,1.72,1.73,2.39-1.31.3-2.47,1.37-3.55,0C53.56,35.19,54.78,34.93,54.74,33.69ZM58,40.1c0-.85,1-.53,1.45-.92s1.12.53.9.92c.91,1.47,3.39,3.35.17,3.65-.44-1.09-2.32.07-3,0,.13-.17.06-.2-.11-.2-.26-.43.23-1.18-.33-1.62A2.17,2.17,0,0,0,58,40.1Zm1.45,5.54c.48,2.19-1.66.33-2.14,2.06.08.39-.14,1.08-.45,1.16-.76-.67-2.34-1.16-2.15-2.43.27-.7.34-1.7,1.3-1.67s1-.6,1.86-.65c.69-.52,3.31-.89,2.35.54C60,45,59.3,45.11,59.48,45.64ZM58.85,48c0,.26-.21.45-.43.19s-.76-.19-.57-.57C58.42,47,59.07,47.05,58.85,48Zm-1.6,8.65c0,.5.12,1.7-.42,1.84a2.7,2.7,0,0,1-2.13.34c-.91-.2.56-2.19.9-2.57C56.36,54.43,57.27,54.82,57.25,56.64ZM54.3,66c-.16.93-1.32,1.56-1,2.55,0,1,1.42,3.75-.52,3.25a2.11,2.11,0,0,0-2.56-.66c-.62.14-.72-1.14-.59-1.59-.71-1.86,1.69-2,2.35-3.5.91-1.21-.46-3.69,1.77-3.71.19.66.8.71,1.31,1C55.74,64.31,54.69,65.15,54.3,66Zm.59,1c.44.83-.67,1.76-1,2.48-.75-1.1.32-2,.6-3C54.67,66.66,54.69,66.87,54.89,67Zm-3.4,13.75c-1.22.15-4.63.11-2.82-1.69.49-.65.16-1.46.9-2,.1,0,.39,0,.36.15C50.34,79.15,52.05,77.74,51.49,80.75ZM50.2,75.82c0,1-1.07.66-1.32,1.52-.39,0-.61-1.87-.19-2.24C49.26,73.39,50.36,74.63,50.2,75.82ZM34.3,66.21c0-1.17.86-2,1.28-3.08.15-.73-.87-1.39-.53-2.16-.15-.6,1-1.15,1.24-.87,0,.36.51.55.23.89-.45.52,0,1.49.7,1.29,1.06,0,1.72.93,2.44,1.57,0,.82-.6,1.57-.67,2.37-.78.75-2.32,1.07-2.8,2.22-.18.21.17.87-.23.85-.33-.26-.91.18-1.07-.2C34.3,67.69,33.87,67.83,34.3,66.21Zm-7.39-4.34c-1-3.23,2.09-4.41,3.33-1.32,1.49.85,2.09,2.18,1.08,3.62-1.58,3.18-1.45,1.23-3.9.82C25.87,65.2,27.11,62.79,26.91,61.87Zm-1.19-9.08c-1.31-.75.76-1.73,1.43-1.14.38,1.67,1.87.39,1,2.78,0,.34-.31.54-.48.77,0,.3-.06.11-.12,0-.56,0-1.15.28-1.72,0C25.14,54.48,26.64,53.37,25.72,52.79Zm1.21-8.58c.16,1-1.61.2-2.05.79s-1.68,1.7-2,.5c.2-4.16-2.63-.93-2-3.9.11-.6,1-.21,1.36-.65s.31-.88.91-.92a11.18,11.18,0,0,1,2.19-.46c.22.23.23.6.61.69.72.25,1.43-.24,2,.3.46,1,1.61,1.13,2.18,1.87C30.44,43.72,26.91,42.59,26.93,44.21ZM20.4,42.63c.07.14-.15.3,0,.44-2.54.31-3.32-1.25-1.66-3.17-.48-1.06.56-2,1.34-2.58,1.18-.45-.39-1.71.6-1.69.4,0,.49-.5.88-.57,1.26-.53,1.48,1.33,2.48,1.67s1.05,1.33.79,2.26c-.63.79-2.52.27-2.75,1.48C21.18,41.46,20.41,40.2,20.4,42.63ZM17.79,31.58c-.25.69.08,2.09-1.09,1.83-.84-.47-1.92.1-2.51-.74-.85-.58-.59-1.88-1.17-2.75-.49-.7.59-1.62.1-2.32,1.25.38,1.83,0,3-.46.95-.66,2.14.06,3.15-.45.61-.26.71.29.94.69C23.19,29.39,18,29.85,17.79,31.58Zm-4.49.82c0,.21-.23.29-.31.45-.27,0-.54.35-.82,0a2.3,2.3,0,0,0-.73.17c.29-.64,1.14-.87,1.61-1.36C13.34,31.49,13.25,32.22,13.3,32.4Zm-.74-5.87c-1.35-.52-1.47-2.11,0-2.57.45-.23,1,.23,1.34-.18,1.07-1,.06-2.47,2-1,.17.14.19.52.48.46.53.21.46,1.08.95,1.45.34.63-.83.39-.64,1s-.52.93-1.1,1.2C14.38,27.82,13.55,27.53,12.56,26.53Zm.09.95c-1,.18-1.19-1.09-2.1-1.26-.61-.13.39-1.08.53-.72C11.08,26.37,13.08,26.77,12.65,27.48ZM20.9,11.94c.53-.3.92-2.23,1.56-1.12a2.57,2.57,0,0,1,.94,1.7,1.46,1.46,0,0,1-2.74-.45A.94.94,0,0,0,20.9,11.94Zm-.52-.29c-.82-.9.35-1.06,1.07-1.14C21.05,10.78,21,12,20.38,11.65ZM22.32,10c.83-1,1.51-.53.87.67-.26.31-.42-.55-.75-.48C22.27,10.24,22.28,10.13,22.32,10Zm-1.16,3.52c.75-.14,1.62.63,2.17-.45.62-.23,1.37.51,2-.16.65-.19,1.55-1.22,2-.46.3.61-.45,1.14,0,1.79.66,1.25,2.67.88.59,2.06a.59.59,0,0,0-.33.66c-1.28-.8-2.33,1-3.7.45-1.55.52-2.77-.86-4.23-1.07-.82-.41-1-1.66-1.79-2.08-2.25.11-2-1.52.1-1C19.8,14.14,19.07,14.29,21.16,13.55Zm24.7,14.16c.08.94-.46,1.95.32,2.77-1.07,0-2.11.06-2.85-1-.58-.72.2-1.66,0-2.59-.17-.56.4-1.57-.22-1.85-.3-.09.34-.5.51-.57,1.84.08,6.57-1.4,3.9,2C46.83,26.77,45.53,26.52,45.86,27.71Zm.5,5.14c1.22,1.32-1,2.95-2.28,2.91-.8-1.18-2.66-.48-3.37-1.46.1-.57-.31-1.53.46-1.74a3.72,3.72,0,0,1,2.35-.19c.51-.25,1.16-.72,1.2-1.31.07-.34.58-.24.83-.27C47.37,30.65,45.28,32.21,46.36,32.85Zm3.26-.42c1,.38.78,1.75,1.76,2.12-.79,0-.14,1.85-1,1.19-.29-.5-1-.14-1.4-.55-.51-.57-1-1.22-1.82-.81-.33-.42.2-1.39-.51-1.76,0-3,.67-.44,1.93-.64.3,0,1.06-.57,1.1-.22S49.41,32.29,49.62,32.43ZM54,39.06c.74,1.14,1.13,1.76,0,2.88a20.25,20.25,0,0,1-3.95-2.11c-.34-.87,1.31-.93,1.12-1.88.26-1.36,1.6-2.09,2.6-.86C53.86,37.71,53.55,38.44,54,39.06Zm2.85,4.56c.17.94-1.24.77-1.78,1.1-.89,0-.54-1.61-.93-2.17a6.56,6.56,0,0,1,1.2-1.84C56.1,41.65,57.47,42.21,56.86,43.62ZM54.56,46c-.73.86.09,2.32-.14,3.42,0,.48-.44.86-.51,1.35A2.37,2.37,0,0,1,54,52.38c-.78-.58-.74-2.16-1.88-2.28-.46,0-.58-.33-.7-.64-.49-.84-1.76-.75-2.44-1.42a5.72,5.72,0,0,1,3-3.31c.63-.42,1.33.17,2-.22C54.58,44.35,54.86,45.43,54.56,46Zm-.5,12.37c.13.94-2.53,2-2.88,1.12.5-.7.49-1.75.89-2.46.63-.35,2.12-.66,2.22.29C54.39,57.66,54.1,58,54.06,58.32ZM52,64.71c-.06.76-.84,2.14-1.51,2.26-.22-1.5-.56-3.48,1.57-3.43A2.45,2.45,0,0,0,52,64.71Zm-.06-1.59c-2,1.38-3.82-1.14-1-.56,1.48-.31.68-2.22,2.74-.72C53,62.11,52.19,62.16,51.93,63.12ZM49.1,69.93a1.58,1.58,0,0,0,0,.37c-2.16,0-3.18-3.22-1.05-4.14,1-.55-.33-2.5,1.13-2.82,1.52.33.16,1.64.66,2.4.27.64.37,1.66-.44,2C49,68.3,49.36,69.26,49.1,69.93Zm-4.76-6.56c-.11.28-.25.94-.59.94a.78.78,0,0,0-.67-.1c-.19.07-.28,0-.21-.21.19-.88-.33-1.69-.48-2.54.91-1.81-.17-3.11,1.85-4.15.37-.89,1.31-.09,1.75.4.43.33-.3,1.16.33,1.63.65,1.34-1.08,1.51-1.92,1.74C45,61.79,43.7,62.51,44.34,63.37ZM37,60.54c-.81-1,.56-2.12,1.5-2.47.75-.47,1.4.49,2.22.34.55-.08,1.09.15,1.62-.07.32,0-.06.57.14.78,0,.92,0,2.08-1.16,2.32s-.48,2.05-1.55,2C39.06,63,38.61,62,37.7,62c-.44-.06-1,0-1-.58C36.54,61,37.59,61,37,60.54Zm-3.47-7.89c-1.74-1.67-.85-2.73,1.21-2.44.72.17,1.18,1,2,.83.35,0,.8-.41,1,0a1.37,1.37,0,0,1-.15,2.07c-.77.9-.29,2.14-1,3.08-.71-.35-2-1.31-3-1.81C33.18,53.89,34,53.22,33.55,52.65Zm-6.4-6.83c-.35-.48.42-.74.17-1.2-.35-1.06,1.47-1.23,2.19-1.26,1,.07,1.65-1,2.66-.59.23.22-.17,1.48-.41,1.65-.82.35-.89,1.66-1.82,1.88-1,1.36-1.3.49-2.69,1A1.85,1.85,0,0,0,27.15,45.82Zm-1.74-8.28c.15-.3-.44-.52-.08-.76a15.25,15.25,0,0,0,1-1.56c.72-.08,2.36.39,1.88,1.35s1.16,2,1.07,2.52c-.53.16-1,1-1.53.94-.25-.18-.5-.07-.75,0C25.41,40.36,25.12,38.69,25.41,37.54Zm-1-1c-1.9-1.56-1.33-1.33.17-2.76.56-.32.64,1.2,1.33,1.29C25.22,35.3,25.4,37.12,24.39,36.57ZM15.25,19.39c-.29-1.91.29-1.15,1.74-1.14A3.47,3.47,0,0,0,18.7,20c-1.53.4-.43,3.2-2.3,2.86C13.5,20.87,15.33,22.14,15.25,19.39Zm6.69-1c0-.19-.39-.74-.06-.7a7.42,7.42,0,0,0,2.6.19c1.12,1.13,1.38,2.77,0,3.83-.39.23-.95-.21-1.38.15-.74.45-1.52-1.09-2.15-.12-1,.56-.15-1.32-.44-1.64C21,19.61,22.16,19.29,21.94,18.35ZM32.2,22.3c.55.92-1.32,1.05-2,1.32-1.35,0-1.29-.68-1.58-1.78-.36-.82-1.67-1.11-2.34-1.79-.84-.32-.68-1.67-1.4-2.17,2-.61,1.93-1.45,3.58.38C29.64,19.69,32.14,20.43,32.2,22.3Zm4.94-.61c.15.28.92.51.66.86a5.15,5.15,0,0,0-.3,2c.35.81,1.32,1.11.55,2-.1.45-.85.39-.57,1A1,1,0,0,1,36.67,29c-.77.45-1.34.85-1.86-.16-.3-.43-1.17-.55-.73-1.26.18-.35.2-.86.69-.85,1.24-.49,1.74.64,2.68.94-1.08-2.25-2.58-.44-3.31-1.44a3,3,0,0,0-1.41-2.9c.22-.7-.7-1.7.15-2.14.94-.23.69-1.77,1.68-1.66.65.48,1.68.47,2.36,1C37.12,21,36.77,21.4,37.14,21.69Zm6,2.21c.13,1-1.43,1-2.06,1.47a2.61,2.61,0,0,0-2.37,0c-.95-.26-1-2.2-.38-2.84.71-.16,1.58.72,2.1-.05.77-.4.4-1.41,1.25-1.71.41-.29.8.95,1.3,1.08C43.61,22.35,43.13,23.29,43.15,23.9Zm-.22,3.68c-.14,1.61-1.57,2.94-.16,4.36-.78-.19-1.48.34-2.24.45A22.47,22.47,0,0,1,38,32.1c-.83.13-2.8.47-2.89-.61.71-.44.87-1.43,1.28-2,.71-.32,1.71-.36,1.6-1.39.86-.32,2.63.87,3.45-.32.13-.09.4-.14.37-.41A11.18,11.18,0,0,0,43,27.3,1.38,1.38,0,0,0,42.93,27.58ZM43,29.63c1.18,1.21,2.08,1.28.17,2.46-.11-.71-1.06-1.24-.66-2.05C42.63,29.86,42.76,29.32,43,29.63Zm1.19,6.54c1.39-.85,1.43,1.55,1.28,2.52-.34.76-1.62-.1-2,.7-1.06,1.63-1.86-.93-1.55-1.76a4.08,4.08,0,0,1,2.18-1.24C44.28,36.38,44.28,36.36,44.21,36.17Zm9.92,7.72c.14.52-2.85.41-3.15.16-.55-.26-1.14.37-1.57-.12-.24-.3-.42-.63-.88-.56-2,.51-1.45-.47-1.66-2-.34-.69,1-.36,1.5-.57.73.14,1.33-.42,1.89-.32C51.82,41.32,54.1,41.76,54.13,43.89ZM38.08,50.45c-4.48,1,.12-1.68-1.72-3.44,1.26-1.16,2.48.3,2.5,1.58C38.62,49.25,38.09,49.79,38.08,50.45ZM35.9,43.4c-.55-.88.62-1.92,1.15-.9.18.51.11,1.22.71,1.45a1.21,1.21,0,0,1,.88,1.83c-.3,1.68-.54,0-1.48.44-.85.77-2.47.75-1.71-.75A2.24,2.24,0,0,0,35.9,43.4Zm-.74-3.88c-1-2-2.58-2.56.65-3.66.9.67.88,2.12,2.15,2.25A14.59,14.59,0,0,1,37.81,40c-.3.34-.88.64-1.19,1.08-.23.26.54.7-.12.79s-.22-.54-.56-.74C35.54,40.54,35,40.26,35.16,39.52Zm-3.55-5.28c-.4-.77-1-2.07-.3-2.72.94.66,2.13-.57,3.11.21.81.54,2.37.63,1.93,1.92a12,12,0,0,0-.57,1.88c-.7.16-1.34.71-2.06.9a11.45,11.45,0,0,1-2.06-.78A6.09,6.09,0,0,0,31.61,34.24Zm-.45,1.9c.25,3.53-1.14,4.29-2.63.78a7.54,7.54,0,0,1,2.25-3.47A2.83,2.83,0,0,1,31.16,36.14Zm-2-8.29c1.44.18.68,1.47,3,1.13C35.23,30.77,28.72,33.46,29.18,27.85Zm5.63,2.23c-1.28.29-2.82-1.13-.92-1.51C34.51,29,36.93,30.77,34.81,30.08Zm.57.64a.82.82,0,0,1-1.19.56c-.79-.45-1.61.22-2.4.16C32.78,31,34.54,29.6,35.38,30.72Zm1.39,2c.21-.52,4.47-.48,3.53.7a3.27,3.27,0,0,1-.9,3c0,.54.15,1.19-.53,1.28-1.49.58-1.59-1-2.45-1.77C35.73,35,37.1,33.9,36.77,32.75Zm4.81,6.89.1,0c-.75-.15-.94.6-1.31,1.11s-.43,0-.77,0c-1.7,0-1.43-1.35-1.32-2.62.61.09,1.21-.5,1.7-.35a1.19,1.19,0,0,0,1.11.14C42,37.81,41.35,39.25,41.58,39.64Zm4.23-.33c.36.42.36,1,.78,1.28-.55.92.56,2.34,0,3.35-.63.72-.69,3.14-1.79,2.5-.39-.06-.47-.46-.66-.73-.72-.74-2.14,1.38-2.35,0-.83-1.21.59-1.94.89-3,0-1.32.35-3,1.7-3.38.36-.14.78.21,1.08,0,.1-.13.28-.29.47-.22C45.9,39.21,45.67,39.14,45.81,39.31Zm.54.14c1,.21,3.15-.78,3.35.63C48.83,40.74,46.58,40.78,46.35,39.45Zm-.84,7.95c-.28.7-1.27,1-1.77,1.58-.12.48-.48.2-.71.19a1.36,1.36,0,0,1-1.67-1,3,3,0,0,1,2.34-2.28A11.37,11.37,0,0,0,45.51,47.4Zm-3.06-6.09a7.53,7.53,0,0,1-1.36,3.24C38.11,41.89,43.35,37.69,42.45,41.31ZM40,42.75c-.21.53-.87.72-1,1.35-.33,0-.66-.34-1-.43-.82-.67-1.34-4.13.5-3C39.45,41,40.4,41.45,40,42.75Zm-1.74,8.16c.4-1.36,1.56-2.36.62-3.69a3.12,3.12,0,0,1,.23-1.5c.18-.7,0-1.4.48-2s.91.65,1.14,1A2.12,2.12,0,0,1,41,47.75c-.34.51.36,1,.42,1.38A5.15,5.15,0,0,0,41,52C40.12,52.13,38.36,52.13,38.21,50.91Zm.32,1.61c.22-.57.87-.32,1.27-.11C39.7,53.2,37.43,53.59,38.53,52.52Zm1.22.66c1.12-1.55,2.71-.74,2.55,1.1-.79,0-2.06,1.32-2.07,0C40.2,53.81,39.11,53.68,39.75,53.18Zm.63,3.5c0-1.62.93-1.58,2.08-2.21,1.42,1.33,2.35,2.4.25,3.56-.44.25-1.32,0-1.85,0a1.43,1.43,0,0,1-1.18-.25A8.45,8.45,0,0,0,40.38,56.68Zm3.44-1.29c-.31-.65-1.11-1-1.23-1.73-.17-1.33,6.91,3.52,3.91,3.63-.35.41-.41-.26-.72-.26A3.2,3.2,0,0,1,43.82,55.39Zm1.12-2.15c-.76,1.09-2.86-.75-3.53-1.41-.28-1.09.07-2.62,1.46-2.42.76-.08.39,1,.62,1.45C43.82,51.67,45.46,52.24,44.94,53.24Zm-.17-1.83c-.73,0-1.57-1.73-.7-2.1.34-.65,1.16-.86,1.63-1.36.08-.24.15-.41.45-.28,1.17.15,2.12.54,1.9,1.91a.47.47,0,0,1-.64.22C46.39,49.8,45.6,50.87,44.77,51.41ZM48.06,48s0,0,0-.07c.62.62,3.55,1.05,2.74,2.12C49.09,51.21,48.21,49.62,48.06,48Zm.57-.15a22.07,22.07,0,0,0-2.78-.56c-.09-1.43.63-3.64,2.17-3.62.88-.33,1,.7,1.77.77a1.73,1.73,0,0,1,1.41.08c-.33.73-1.57.95-1.9,1.67A6.09,6.09,0,0,1,48.63,47.89Zm1.13-8.75c-.59.09-1.16-.41-1.77-.1-.62.11-1.87.3-2.08-.47a7.69,7.69,0,0,0-.32-2.86c1.2-1,2.25-1.52,3.31-.11a5.53,5.53,0,0,1,1.59.59c.19.1.85.11.78.34C50.76,37.44,50.82,38.64,49.76,39.14Zm-5.81-3c-1.27-.16-1.85,1.33-3,1.46-.74.26-1.61-.72-.86-1.3.47-.31.35-1.24.77-1.41A5.82,5.82,0,0,1,44,36.11S44,36.17,44,36.18Zm-1.16-9.3c-.13.3-.76.13-1,.19-.08-.39-1-1.12-.44-1.41C43,24.65,43,25.24,42.79,26.88Zm-1.38.19c-.24,1.48-2.67.72-3.66.42.73-.51.81-1.76,1.61-2C40.73,25,40.84,26.17,41.41,27.07Zm-.15-6.41c-.8.26-.49,1.55-1.38,1.78-1.39.06-2.71-.69-2.62-2.15.83-.29,1,.5,1.56-.45C39.38,20,41.68,19.78,41.26,20.66Zm-8.19,3.42c1,1,1.21,3.27.23,4.25-1.39.87-2.83,0-4-.81a5.58,5.58,0,0,1-.93-2.14c.32-.47.44-1.21.77-1.59C30.61,24.38,32.1,22.63,33.07,24.08ZM25,23.25c-.28.63-1.49-.46-1.77-1C23.43,21.18,24.83,22.54,25,23.25Zm0-1.43c.65-.27.64-1.77,1.36-1.42,1,1,2.37,1.21,2.25,2.92C27.73,24.61,24.35,23.45,24.93,21.82Zm-.79,2.46c1-1.43,2.86.42,4.31-.35.46.92-1.35,1.86-2.17,1.87C25.73,25.09,24.48,24.92,24.14,24.28Zm-2.79-5.17a2.36,2.36,0,0,1-4-1.1c.71-.4,1.41-1,2.13-1.35C20.76,16.66,22,17.87,21.35,19.11Zm-1.19,2.17c0,.52.67,2.46-.5,1.42-.39-.53-1.18-.18-1.58-.57-.07-.68.12-1.83,1-1.92C20.14,20,20.36,20.15,20.16,21.28Zm-1.24-4.75C18,17.09,17.13,18,16,17.82c.82-.72,2-1.4,2.29-2.47C18.46,15.74,19.28,16.1,18.92,16.53ZM17.1,23a2.16,2.16,0,0,1,2.76.14c.13.36-.68.83-.78,1.29C18.16,25.06,16.66,24,17.1,23Zm.53,2.27c.12-.7.75-.09,1.22-.49.46,0,.64,1.09.89,1.49C18.67,26.57,15.57,27.06,17.63,25.31Zm2,0c-.83-1,.94-1.49,1.09-2.29,0-.29-.23-.66.08-.92.72-1.33,3.7,1.37,3,2-.18,1.34,4.14,1.3,1.7,4.06C22.69,27.25,20.67,29.13,19.6,25.27ZM26,28c.39-.53.3-1.29.58-1.78.51-.17,1.42-1.1,1.61-.17.88,1.47.28,3.27,1.39,4.56-.64-.57-1.66.08-2.18-.46C27.15,29.36,25.48,29.11,26,28Zm.42,2c.25-.32.52.07.62.33.37.91,1.43.06,2.1.53,2.28,1.17,1.3.4,1.5,2.43a2.56,2.56,0,0,0-1.77,2.21c-.55.72-1.22-.88-2-.57C24.29,35.12,24.88,31.11,26.45,30Zm1.79,10.33c1.55-2.19,4.7.5,2.28,2C30,41.47,28.59,41.4,28.24,40.32Zm3.09,2.09c-.16.05-.17.1-.3,0,1.24-1,.58-2,.13-3.13.69-.87.05-2.12.42-3.16.32-.45,1.38.53,1.85.61a4.24,4.24,0,0,0,1.2,2.51c.42,1.48-1.37,2-1.89,3.26C32.36,42.66,31.81,42.34,31.33,42.41Zm1,1.6a7.59,7.59,0,0,1,2.5-3.19c.91-.26.88,1.5.5,2-.17.42.33,1,.16,1.53s-.51,1.29-.71,2c-.42.27-1-.32-1.41-.17-.28-.22.08-.57-.17-.81C33.11,44.84,32.21,44.61,32.37,44ZM33,46.56c.77-.28,1.87.42,2.7.43,1.36.81.42,2.17-.05,3.14a4,4,0,0,0-2.9,0C31.26,49,32,47.73,33,46.56Zm3.89,9.89c.84-.76.26-2.28,1.1-2.9,1.57-.41,2.5,1.65,2,3-.41.95-1.32,1.15-2.22,1.51C37.1,58.29,37,56.86,36.89,56.45Zm3,8.47c.06-1.09,1-1.66,1.19-2.67,0-.36,1-1,1-.46,1.19,2.56-.06,3.49-2.48,4.07C39.54,65.53,39.77,65.24,39.84,64.92Zm4.83-1.58A1.44,1.44,0,0,1,45,61.71c-.21-.75,1-.65,1.51-.55,1.4-.63,1.93.32,3,1-1,1.07-1.78,1.82-1.42,3.35-.18.59-1.13.79-1.41,1.44C45.54,65.42,43.72,66,44.67,63.34Zm7.12-2.47c0,1-.77,1.74-1.78,1.21-.47-.73-1.45-.92-2-1.6-.45-.17-.91.37-1.38.27a7.92,7.92,0,0,1,.17-1.16c-.32-.59-.65-1.31,0-1.92a10,10,0,0,1,4.68-.57c.11.39.15.92-.32,1.1s.18.73-.27,1C50.34,59.87,51.91,60.2,51.79,60.87Zm1.89-8.08c-.46.07-.17.8-.07,1.1.27.55-.23,1.22-.22,1.77-.38,1.83-3.61.62-4.86,1.12-1,.65-1.23-.62-1.73-1.26a18,18,0,0,1-1.71-1.4c0-.46.37-.88.33-1.35s-.7-.83-.27-1.25c1-.83,2.06-1.7,3.34-1.28.49.2.91.76,1.48.55,2.76-1.38,2.41.5,3.83,1.9C53.76,52.72,53.71,52.79,53.68,52.79Zm-.82-17.08s-.08.16-.13.28c-1.15.61-1.83-.12-1.17-1.25,1,.16,1.88-.81,2.84-.9C54.35,34.83,53.26,34.84,52.86,35.71ZM43.15,21.57c-.52-.24-.73-.93-1.2-1.2.37-3.36,2.15-.51,3.57-1.69C48,21,45,21.16,43.15,21.57ZM42,18.8a2.76,2.76,0,0,0-.27,1.48c-.8-.8-2.3-.32-3-.91C38.26,17.26,41.77,17,42,18.8Zm-1.59-1.45c-3.48-.19-.77,3.11-3.1,2.56-1,.26-2.37-.44-3.15-.82.42-.55-.25-1.15.16-1.59.66-.82.56-1.92,1.79-2.17.5-.39,1,.26,1.5.39s.79-.09,1.14.17c.41,0,.85-.25,1.07.26C40,16.48,40.61,17.1,40.41,17.35Zm-1.17-1.87a5.59,5.59,0,0,1-2.68-.61c-.7-.19-1.31,1.05-1.94.42A1.29,1.29,0,0,1,35,13c.66-.37,1.53.3,2.08-.27.08-.07.15-.2.27,0C39.1,12.48,38.75,14.6,39.24,15.48Zm-5.07-.13c.81.47.17,1.6-.23,2.15-.18,1,0,2-.71,2.95-.79,1.24-1.51,0-2.28-.58-.8-.9-3.41-1.89-2.7-3.29,1.33-.85,2.08-2.67,3.68-2.9C34,13.66,33.31,14,34.17,15.35ZM16.5,12.88c-1.1,1.71-4.51-.48-3-1.82C14.61,11.16,16.45,11.8,16.5,12.88ZM13.9,14.3c.32-.18,0-.54.13-.83,1,.37,1.82.63,2.79,1,.4.14,1.28,0,1.14.63,0,1-1.16,1.44-1.71,2.17-.85.79-2,.33-3.08.47-.53-.58-1.7-2.13-.57-2.58A1.36,1.36,0,0,0,13.9,14.3Zm-1.34,3.25c.67.67-.21,1.77-.42,2.48a5.56,5.56,0,0,1-.37-3.86C12.1,16.54,12,17.24,12.56,17.55Zm-.45,4.36a2,2,0,0,0,.15-1.31c.21-.87,1.09-1.56.89-2.54.56.27,1.48-.38,1.71.19-.14.88.2,1.93-.31,2.7-.61.49-.34,1.55-.67,2.17-.36,1-1.76,0-2.24,1C11.12,23.61,11.56,22.45,12.11,21.91ZM18,33.06a1.53,1.53,0,0,0,.18-1.23c0-1.57,2.83-1.51,3.24-3,.14-.2,0-.49.09-.67,1.41,0,3.23-.33,4.28.64,1,1.13-.65,1.59-.77,2.62a4.42,4.42,0,0,1-1.32,2.69c-.34,1-1.26.47-1.95.54a6.12,6.12,0,0,1-2.31.84C18.5,35.39,17.3,34,18,33.06Zm9,15c.48-1.25,2,0,2.58-.83a1.12,1.12,0,0,1,.78-.64c.79-.31.91-1.49,1.64-1.85,1.29.4.64,1.8,0,2.56-1.47.89.36,2.88-.88,3.73-.54.38-1.33.19-1.81.64-.61.89-1.7,1.16-1.78,0-.06-.53-.66-.38-1.06-.51C27.46,50,25.41,48.92,27.07,48Zm.71,8.54c.31-1.38,1.14-2.59,1.08-3.92,1-1.44,3.4-.69,3.19-2.9.73.72-.4,1.87.73,2.42.82.53.06,1.52.43,2.23.08.13,0,.21-.11.23-.47.12-.51.66-.62,1-.94.82-1.48-.41-2.07,1.58-.33.4.8.59.22,1C29.91,60.3,27.64,57.86,27.78,56.57Zm3.94,4.52c-.51.12-1.09-.71-1.3-1.18-.41-.51.38-.88.51-1.39s1.15.1,1.14.49A2.15,2.15,0,0,1,31.72,61.09ZM31.26,58c-1-2.88,1.31-.38,2.07-3.09,2.28,0,5.82,4.45,1.9,4.88C33.86,58.14,33.05,59,31.26,58Zm5.45,10.31a12,12,0,0,1,5.17-2.76c.67.14.24-.88.8-.89s1.55-.2,1.45.6c.34,1,1.78,1.24,2.47,2,0,4.08-1.36.11-2.28,3.15-.57-.63-1.48-.54-2.24-.76-.65-.38-.42-1.7-1.33-1.73-1.36-.2-2.11.76-2.6,1.86-.25.67-1,0-1.45,0C36.4,69.41,36.6,68.74,36.71,68.29Zm7.68,3.42c.41-.59.18-2.51,1.25-2.23a.78.78,0,0,0,1.06-.15c.81.12.63,2.24,1.22,3,1,1.57,2,.81.48,2.4a22.43,22.43,0,0,1-5.12-.7A5.64,5.64,0,0,0,44.39,71.71Zm5.09,1.59c-2.12-1.24-2.6-4.68.49-1.78,1.74-.64,1.83.45,3.3.87.34.39.2,1.29.55,1.85.23.22.26.58-.09.23a4.91,4.91,0,0,0-2.91-.94A1.33,1.33,0,0,1,49.48,73.3Zm4.11-12c-.43-.22-1.26-.14-1.33-.71.07-.2-.24-.26-.31-.4a11.25,11.25,0,0,1,2.87-1.06,1.55,1.55,0,0,0,1.49,0c.83-.11,1.5,1.46,1,2.15C55.43,61.87,55.68,60.06,53.59,61.34Zm2-6c-.73,2.19-2.09,1.53-1.54-.67.39-.6-.38-1.2-.13-1.74a.72.72,0,0,0,.42-.58c.48-.67-.18-1.33.11-2a2.88,2.88,0,0,0,.36-1c.24-.41-.32-2.19.29-1.53.35.22.36.87.87.84.76.1.89.62.73,1.24.28.84,1.51.85,1.47,1.81C59.11,53.41,56.45,54.22,55.55,55.37Zm2.82-4.27c-.26-.56-1.35-.67-1.32-1.34.35-.39.34-1.5,1-1.46.67.33.21,1,.33,1.57a1,1,0,0,1,.05,1.32ZM57.6,40.56a3.3,3.3,0,0,1-.79,1.14c-.44-.35-.7-.74-1.14-1.13.7.16.57-.91,1-.7S57.84,40,57.6,40.56Zm-1.41-1.81c.07,4.2-4.36-1.33-.4-2.21-.16.35.17.67.38.92S56,38.29,56.19,38.75ZM54.5,31.64c-.21.58.26,1.42-.28,1.84-1,.17-2.15,1.3-3,.67-.36-.32-.08-.92-.52-1.21-.29-.28-.76-.5-.66-1a2.73,2.73,0,0,0,.75-.87c.66-.22,0-.84.33-1.23.63-1.3,1-.86,1.2.37C52.84,31.27,54.76,30.32,54.5,31.64ZM51.93,27c-.52.67-.16,1.48-.76,2.12-.77.52-.26,1.49-.9,2-.34.35-.93-.08-1.36.25-.33.12-.63.42-.95.06-1.74-1.05-1.91-2-1.7-3.88.06-1.13,1.9-.15,2.33-2.24.45-1.19,1.91.91,2.51,1.09C51.44,26.46,52.08,26.6,51.93,27ZM41.09,12.09c-.25-.08-.32.19-.47.34s-.4,0-.58.15c.53.68.77,1.2-.36,1-.8-.43-1.16-1.3-2.25-1.2A5.56,5.56,0,0,1,35.49,9.6c1.33.22,2.23.52,2.83,1.72a7.36,7.36,0,0,1,2.94.81A1,1,0,0,0,41.09,12.09Zm-8.5-.9c-1.47.3-.67,2-1.58,2.42-.59-.06-.66.66-1.14.89-.26.21-.76.25-.72.69a.07.07,0,0,1-.13.05c-.39-.62-1.37-.6-1.39-1.51.06-.42.43-.91.14-1.35-1.5-2-3.47,2.61-4.36-.89a2.67,2.67,0,0,1,.64-1.89c.76-.1,1.6.18,2.23-.42.12-.18.49-.14.22.06.43,1.76,4.57,0,6,.07C32.45,9.84,33,10.78,32.59,11.19ZM26.76,8.51c-.89.84-2,.66-3.14.87-.39-.1-.84-.47-1.22-.06-.54.93-1.77.73-2.51,1.22-1.31.85-2.9-.62-3.45-1.84-1.07-2.45,1.14-.16,1.88-1.11a2,2,0,0,1,2.45-.9c.54.32,1.12-.52,1.5-.14.72.75,2,.35,2.83.93C25.51,8,26.63,8.27,26.76,8.51ZM7.28,26.35c1.19.61,3-.28,3.87.6.68,1.44,2.42.18,1.3,2.56.64,1.94.84,1.72-1,2.92-.78,1.42-2,.82-3.17.57-2,.8-.28-1.53-1.15-2.69C6,28.46,4.86,27.75,7.28,26.35ZM8,39.16c1.69-.76,3.21.85,4.74.18,0,.35-.28,1.38-.82,1.26s-.93.08-1.26-.35a.51.51,0,0,0-.65-.07c-.84.47-1.55-.49-2.13-1Zm9.51,1.6a1.22,1.22,0,0,1-1.21-.62c-1.21-1.06-2.11,1-3.39.55-.52-.23.2-.78.23-1.13A1.74,1.74,0,0,1,13.1,38c1.6-1.24,1.1-3.11,1.81-4.56a6.56,6.56,0,0,1,2.58.49c-.11.59.65,1,1,1.39.68.77,2-.07,1.69,1.47a7.48,7.48,0,0,0-1.86,2.11,1,1,0,0,0,.07.82C18.51,40.16,17.93,40.77,17.53,40.76Zm.21,3.55c.55-1.7-.24-1.26,1.63-.93.82.36,1.82-.55,2.57.07,1.2,2.27.57,4.7-2,2.07-.6-.4-1.36.4-1.69-.3C18.27,44.86,17.48,44.72,17.74,44.31Zm.5,2.76c.24-.32.1-1.25.37-1.27a.45.45,0,0,0,.52,0c1-.34,1.17.83,2,1,1.63.64.15,1.77-.72,2.43C19.78,48.76,18,48.23,18.24,47.07Zm3,4.43c-.07-.27-.54-.27-.41-.51s0-.24-.09-.32c-.49-.3-.33-.65-.34-1.15a4.61,4.61,0,0,0,2.08-1.91c0-.19-.44-.4-.27-.55s.46-.87.85-.87c1.72.58,1.6-1.62,3.65-1.21.08,0,.2,0,.11.13-.27.76.46,1.57-.14,2.35.08.62-.8.73-.73,1.46-.25.63.23.76.44,1.29-.14,2.09-2,.86-3.12.66C22.43,50.69,22,52.33,21.26,51.5Zm8.2,16.17c.27-.3-.12-1.07.42-1.16,1.2-.26,1.43-2,2.12-2.77s0-1.72.06-2.46,1-1.08.55-1.66c-.71-1,1.42-.68,1.75-.21.74,1,0,2.2.75,3.29.3.9-.8,1.52-1.1,2.25.19,1.1-.85,2.59.11,3.43.83.66.23,1.55-.73,1.13-.76-.17-1,.7-1.68.87-.49,0-.09-1.24-.79-1.38S28.72,68.62,29.46,67.67Zm2.53,3c1.34-1.3,1.82-.32,3.21-1.09.36-.22.5.43.84.31.53.15,1.63.26,1.82.68-.58.64-1.69-.11-2.52.15-.64-.24-.77.39-1.29.51a3.76,3.76,0,0,0-2.09.61C31.88,71.47,31.55,70.81,32,70.66Zm8.82,6.45C42,73.17,44.32,74.62,47.45,75c.38.1.8,0,.62.58a6.16,6.16,0,0,0,.51,2.26A2.63,2.63,0,0,1,47,80.21c-.65.23-1.19-.32-1.84.05-.57.11-1.47.89-1.79.06C43.22,78.48,39.82,78.56,40.81,77.11ZM43.91,81c.56-.11,1.14-.45,1.7-.61.64,0,1.39.33,2-.07.44-.12.53.78,1.08.62,1.92.1,1.13,3.58-.64,3.39-.41.23-.61-.4-.75-.67C46.3,82.74,44.6,82.43,43.91,81Zm5.33,3.26c1.75-.36.14-2.84,1.44-3.2,1-.35,1.25.65,1.62,1.37.17.26.24.61.61.73.4.29.11,1,.34,1.5a.51.51,0,0,0,.55.49c.85.15.94,1.28,1.32,1.91,0,.41,0,1.7-.46,1.61-1-.6-1.78.4-2.7.15-2.23-.63-1-3.69-2.93-4.4A1.66,1.66,0,0,1,49.24,84.3Zm4.21-.79c.39-.26,1.23.3,1.79.07.28-.08.3-.08.43.2.07,1.07,1.11,1.23,1.75,1.78.11.11,0,.33-.19.34-.51-.1-.66.56-1,.61-1.51.29-1.07-1.52-2.38-1.66A5.45,5.45,0,0,1,53.45,83.51ZM57.76,83a7,7,0,0,1-.22,2.08c-.36-.51-1.2-.24-1.35-1,0-.53-.63-.75-.51-1.26.36-.93-.53-1.81-.35-2.68C56.38,79.71,58,81.92,57.76,83Zm-2.15-3.3c-1.65,0,.1,2.45-.36,3.45-1.9.67-2.52-1.21-3.48-2.33.94-2.75-1.19-2.11-1.38-3.76a3,3,0,0,0-.45-3.13c1.48-.2,4.29.28,3.78,2.27.06.74,1.09,1.12,1.59,1.62C55.37,78.31,55.93,79.43,55.61,79.7Zm.1-2.53c-.38.58-.89-.48-1.37-.6-.45-.51-.21-2.3.63-1.87C54.59,75.75,56.48,76.35,55.71,77.17ZM59.08,36c.44.41-.31,1.29-.16,1.88-.16.42.59.68.35.93-.46.4-1.87.28-1.76,1-.89-.14-1.09-1-.89-1.82.25-.59-.6-.89-.46-1.45.83-.12.8-.75.86-1.39C57.83,34.89,58.53,35.48,59.08,36ZM57,27.11c.1.24-.41.26-.59.35-.54.17.33,1-.45,1-1.43,1.29.27,1.31-.29,1.85-.39.4-.85.23-1.34.3-.5.26-.91,0-1.34-.24a3.94,3.94,0,0,1-.89-2.57c.09-.28.2-.84.59-.62.15.07.18,0,.23-.09.23-.48.06-1,.38-1.46,1.27-.47.78-2.17,1.42-3.08C56.39,22.86,57.3,25.37,57,27.11Zm-2.65-4.66c-.48.81-.22,1.81-.9,2.5a2,2,0,0,0-.86,1.54c-.41.16-.59-.3-1-.39a.87.87,0,0,1-.9-.36c-.45-.83-1.4-.79-2-1.24.45-.43.64-1.75,1.37-1.82a1.31,1.31,0,0,0,1.22-1.31c-.14-.65-.9-1.05-.65-1.73-.24-.73.56-1.16.85-.34C51.83,21,54.77,20.67,54.33,22.45ZM31,6c-1.12,1-2,2.45-3.6,2.57-.29-.13-.31-.63-.73-.54-.79-.12-1.31-1-2.12-1.1-.44.27-.68-.34-1.11-.22-.75.26-1-.8-1.69-.52-2.14.91-1.81-.51-2.2-2a37.39,37.39,0,0,0,7.31.68,6.39,6.39,0,0,0,4.16,1S31,6,31,6ZM19.13,4c.34.6.61,2-.11,2.38-.28.17-.7.23-.74.63a.63.63,0,0,1-1,.34c-.64-.34-1.45-.09-2-.79-1.77-.46-2.1.51-3.13-1.61-.38-.6,1.23-.45,1.55-.77A3.58,3.58,0,0,1,19.13,4ZM7,5.19a2.78,2.78,0,0,1,1.29.29c-.51.47.28,2.32-.9,2-.71-.7-2.53-.41-2.35-1.6C5.53,5.37,6.57,5.7,7,5.19Zm.32,3.6c0-1,1,.15,1.31.47a2.9,2.9,0,0,1,.07,2.2c0,.15-.09.19-.15.14-.86-.44-2.22.07-2.42-1.24C6.26,9.59,7.18,9.55,7.35,8.79ZM4.29,18.61c0-.58.94-.21,1.29-.16a6.36,6.36,0,0,0,3.35.17c-.36.66-1.12,1.2-1.2,1.92.35,1-.84,1.44-1.29,2.05s-2.57.13-2.49-.71C3.71,20.26,3,19.84,4.29,18.61Zm-.4,12.67c1-.37,1.41-1.24,2.2-1.75,1.28.57.9,2.38.78,3.46,0,.14-.1.31-.06.38.09.34-.37.41-.37.85-.53.83-1.78,2-2.84,1.88C2.82,34.7,2.43,32.31,3.89,31.28Zm-.28,5.63C6.48,35,7,34.26,7.29,38.54c-.4.39-1.63.41-2.22.89A2.71,2.71,0,0,1,3.61,36.91Zm1.72,2.85c2.75-2,2.19,1.33,5.17.85.49,1.31.5,2.83,1.89,3.7a3,3,0,0,0,1.1,2.38,3.81,3.81,0,0,1-3.6-2.18C8.15,43.21,5.94,41.94,5.33,39.76ZM17.29,52c-.41-.77-1.32-1.23-1.41-2.13C16.27,50.5,18.69,51.63,17.29,52ZM49.89,88a4.54,4.54,0,0,0-2.36-.39c-.16.34-1-.27-.72-.47.35-.52-.68-.69-1-.86a22.5,22.5,0,0,1-2.11-1.56c-1.43-1.73-2.48-4.12-4.62-5-5.28-1.77-2-3.71-6.62-5.13-1.83-1.15-2.4-3.7-4.38-4.42-1.14-.65-1.22-2.24-2.46-2.71-.76-.65-2.27.14-2.76-.78-.38-.42-.23-1-.4-1.53.18-.21.5-.26.58-.58-.59-1.4.32-3.22-.59-4.41-.35-.41-.92-.71-1-1.28-.48-2.38.76-1.44-1.36-3.52.2-1.44-2.17-1.89-2.27-3.12.29-.69.68-.36,1.23-.42.23.18.46-.06.69,0-.62.85,1,.89,1,1.57.35,1.29.21,2.29,1.77,2.64.41.88,0,2,.66,2.86.19.36.71.16.86.51s.34.76.77.78c.68.23-.5,1.69.42,2.35.14.23.15.26-.1.36-.63.17-1.3,1.77-.3,1.71.31-.31,1.6,1.2,1.3,1.38-.78.69.46.65.83.91.26.46.83,0,1.09.41.7.59.77,1.85,1.78,1.94,1.36-.22,1.08,1,1.39,1.8.93,2.67.61.54,2.2.63.93-.27.83.64,1.46,1-.67.21-.11.54-.27,1,.36.53,1.17.51,1.63.91.8.31.36,1,.74,1.53s1.07.33,1.29.83c.09,1.3,1.08,1.6,1.92.65.2-.06.29.3.29.45.37,1.18,2.46.85,2.48,2.5.9,1.79,3,2.4,4.13,3.71a1,1,0,0,0,1.32.65c1.83-.26,1.06,2.44,2,3.3A1.09,1.09,0,0,1,49.89,88ZM65.58,44.68c-.22.81-.06,1.6-.64,2.26-.17.57-1.2.26-1.31,1.06-.11.44-.38.55-.68.74-.19.72-1.23.41-1.31,1.22s1.49,1.26,1.16,2.14c0,.8-.78,1.37-.68,2.1a5.87,5.87,0,0,1,.21,1.41c.37,1.85-.79,3.25-1.89,4.49C60.5,61.77,59.22,63,59,64.64c-.23,1-1.45,2-1.17,3,1.75,3.57-2.2,3.49-.16,8.08-2-.86,1.12,5,1.37,5.81.36.52,0,1,.1,1.51.08.87.85,1.58.76,2.49,0,.36-.36.3-.47.54.12.91-.24,1.7.23,2.53a3.55,3.55,0,0,0,.75,3.13.66.66,0,0,1,.21.74,5.09,5.09,0,0,0,.76,1.66c.81,1.2,1.67,2.49,1.47,4,0,.75,1,1.41-.06,2a7.16,7.16,0,0,1-2.34-1.37c-.27.15-.42,0-.58-.15-1.1-1.14-2.39-1.43-3.81-1.94-1-.4-.47-1.64-1.18-2.2-.6-.37-.31-1.15-.78-1.53-1.15-.36-1.33-1.4-2-2.19a5.71,5.71,0,0,1-1.85-2.35c.49.18,1.32.4,1.52,1,.26.84,1.37.65,1.88,1.27,1.06,1,1.18,2.84,2.4,3.59,1.73,2,4.55,4.48,6.59,5a10.88,10.88,0,0,0-1-3.64c-.88-.71-1-1.83-1.3-2.76-.76-1.22-2.1-2-1.61-3.54s-.59-3.08-.57-4.65c.62-2.29-.55-3.72-1.92-5.34-1.18-2.7,1.41-1.46-.7-4.12-.89-1.45,1.54-1.65.95-3.16-.66-1.78-.12-2.46.84-3.71.15-1.28-1.36-3.31.55-3.73,1.51-1.22,1-3.13,1.68-4.58,0-.67,1-.6.73-1.28-.58-1,.93-1.59,1.19-2.48a3.63,3.63,0,0,0-.47-2.9c-.27-.44.41-1.28.73-1.7s0-.7-.38-.81c-.77-.17-.49-1-.92-1.53-.19-.37.38-.43.62-.57.55-.34.5-1.27,1.3-1.3C64,46.8,63.76,44.71,64,43.22c-.13-.57.49-1.34-.16-1.71a.76.76,0,0,1-.37-.8c.08-.85-.13-1.67,0-2.53-.51-.71-.34-1.79-1.33-2.15-1.33-.78-2.85-2-3-3.66-1-1.54-.05-3.78-1.71-4.83,0-1.36.22-3-.83-4.05-1.19-.67-1.69-2.13-2.85-2.68-.29-.28-.87-.06-1-.45-.45-.72-1.51-1.44-1.36-2.39-.53-1.24-1.69-2-1.91-3.46-.74-1.32-3.24,0-4-1.73-.83-.73-2-.76-2.66-1.83C42.4,9.75,41.36,9.57,40.38,9c-1.73-2.84-3.15.63-5.53-1.86-2.36,0-1.56-1.53-3.07-1.74a5.41,5.41,0,0,1-4.48-.75l-5.11-.34c-2.23.12-3.77-1.53-5.8-1.92a3.27,3.27,0,0,1-3.47-.08c-.61-.3-1.2.26-1.79.06a2.94,2.94,0,0,0-4,0c-.5.35-.58,1.21-1.4,1.25C5.17,3.94,7,4.27,6.45,5c.07.09.07.13-.06.11C5.86,5,5.48,5.42,5,5.44s-.31.89-.3,1.18c.91.8,3.14.47,2.12,2.29,0,.54-.64.44-.84.84-.63.7.32,1.26.3,1.92A3.33,3.33,0,0,0,5,13.58c.1.82-.67,1.55-1,2.26s0,1.79-.22,2.45c-.9,1.11-.72,2.12-.24,3.43s-1.22,2.51-.76,4c-.3.48.35,1.17-.08,1.59-.71.82-.26,1.88,0,2.8,0,.34.95,1.06.43,1.28s-.29.67-.45,1.05a4,4,0,0,0-.1,2.45c1.26,2.52-.1,2.73,2.26,5.16,1.24,2.77,4.31,3.75,5.89,6.18.62.83,2,.38,2.69.85.9.75,1.36,1.84,2.21,2.63-.76-.18-2,.21-2.53-.49-.45-1-1.53-1.24-2.44-1.7-.61-.63-1.36-.07-1.93-.56-.93-.43-1.12-.65-.92-1.71-.62-.74-1.33-1.93-2.28-2.3-1-.05-1.29-1.08-1.84-1.74-.8-1.81-2.65-3.69-1.9-5.77-.17-1.28-.88-2.65-.57-4s.49-2.94-.73-3.91a5.58,5.58,0,0,1,.14-3.11,13.45,13.45,0,0,0,1.64-3.08c.15-1.38-1.33-3,.13-4.09.41-.85,0-2.12.44-2.9A10.48,10.48,0,0,0,4.62,11.2c.33-.52-.58-.68-.13-1.13.17-.44.56-.64.86-1C5.7,8.39,4.22,7.89,4.1,7.68c-.67-.5,0-1.36-.42-2-.2-.22.07-.36.23-.47.7-.66.09-1.81.74-2.64C5.47,1.74,6.94,1.7,7.9,1c.35-.19.29-.76.73-.75,1.6.22,3.07,1,4.65,1.12.32,0,1-.13,1.06.34.36,1,1.32-.25,2.1.08,1.8-.12,2.84,1.61,4.67,1.57A84.11,84.11,0,0,1,33.27,5.17c.93,2,1.69.58,2.94,1.72,1.12.44,2.38-.12,3.47,0,.72.82,1.76,1.13,2.08,2.18A3,3,0,0,1,44,11.32,7.12,7.12,0,0,1,46.68,13c.24.19.22.21.48,0,1-.42,2.18.68,3.12,1.09.65.77.56,1.9,1.43,2.65s.21,2.2,1.47,2.62a7.71,7.71,0,0,1,3.33,3.26c1.3.48,3.31,1.59,2.85,3.23-.37.45.25.92,0,1.3-.31.18-.13.53-.2.78,0,.63.92,1.55.65,2.18-.43.35.22.82.13,1.27-.07.7.83.73,1.12,1.25.08,1.39,1.63,2,2.33,3,.19,1.8,2,2.9,2.22,4.74C65.05,41.83,65.8,43.18,65.58,44.68Z"/></g></g></svg>