<svg xmlns="http://www.w3.org/2000/svg" viewBox="0 0 52.89 69.74"><defs><style>.cls-1{fill:#c894ff;}.cls-2{fill:#854bb7;}.cls-3{fill:#491d66;}.cls-4{fill:#ffdeaa;}.cls-5{opacity:0.5;}.cls-6{opacity:0.25;}</style></defs><g id="Layer_2" data-name="Layer 2"><g id="geode-small-3"><path id="fill4" class="cls-1" d="M51.39,9.19A1.47,1.47,0,0,1,51,10.94c-1,2.09.49,2.5-2,3.62.39,1.91.45,2.64-1.31,3.8-.69,1.32-.48,3.35-1.83,4.3-.19.46-.85.75-.67,1.28.73,1.27.08,1.75-.63,2.8a4.5,4.5,0,0,1,0,3.75c-.11.81-1.38.87-1.53,1.67.33.54-.28,1,0,1.55s.31.77.37,1.17c.07,1.8-2.35,2.41-1.9,4.2a25.71,25.71,0,0,0-.92,4.62c-.07.83.93.61,1.06,1.18-.65,2.21.45,1,.89,2.36-1.79,3-1.4,7.29-4.3,9.36.75,1.78-.81,2.89-1.24,4.31.86,1-.65,2.34,0,3.15.48.33,1.12.17,1.49.66a1.83,1.83,0,0,1-1.76,2c-1.09.21-2.73-.42-3.55.44A1.8,1.8,0,0,1,32,68.44a5,5,0,0,1-4.43,0c-.46.65-1.4,2.13-2.23.84-.42-.52-1.2.77-1.86.44-1.21.07-2.38-1.18-3.44-.74s-1.58-.61-2.42-.49-1.61,0-2.28.38c-1.72-.47-1,.8-1.93.43-1.64-.17-3.38-1.26-5-.55-.62.12-.63,1.12-1.39.89-.32-.44-.91-.26-1.28-.71-.58-.24-1.28.82-1.75.24-.46.17-1,.91-1.49.36-.08-.25-.31-.55-.58-.45C1,69.29.23,68,0,67.35A17.61,17.61,0,0,0,.86,62c-.35-1,.08-2.29-.49-3.23-.76-1.09.48-2,1-2.94-.14-.44-.86-.74-.83-1.33a4.75,4.75,0,0,1,.24-2.75c.28-1.69-.7-3.63.47-5.14.63-.93-.35-1.95-.19-2.92,0-.67.56-1.27.29-1.92a5.13,5.13,0,0,1,1.24-4.7c-.32-1.77.69-3.45.82-5.19.07-1.07,1.57-1.39,1.15-2.66.34-1.42.38-2.83,1.76-3.65.66-1.15,1-2.56,2.27-3.4.88-.8.41-2.13.89-3.14,0-.18,0-.33.25-.37.71-.47.24-1.57.55-2.26.22-.24-.1-.66.24-.82a1.25,1.25,0,0,1,.83-.45c.48-.3.63-.84,1.25-1a5,5,0,0,0,1.24-3.11A3.42,3.42,0,0,1,16.2,8.42c.43-.09,1,.3,1.18-.3.47-.72.48-2.12,1.09-2.74,1.16-.21,1.57-1.51,2.77-1.62.85-.41,2-2.13,2.74-.81.14.18.37,0,.49-.09.36-.38.88,0,1.27.08.69-.11.93-1.31,1.78-1.24,1.16.49,1.9-.53,3-.64.54-.17.74.91,1.33.25A2.33,2.33,0,0,1,33.66.39C34,.1,34.71-.1,35.05.33c.36,0,.68-.6,1.14-.18.44.07.46.61.85.6,1,.44,2.24.4,3,1.35.92.32,1.69-.58,2.51-.53a3.13,3.13,0,0,0,2.83,0c.43-.76,1.36-.45,2-.21,2.53,2.09,5.18,0,4.13,2.35,0,.23,0,.68.31.66s.26,0,.23.23c.21.57.54,1.25.72,1.82C53.43,7.51,51.54,8.18,51.39,9.19Z"/><path id="fill3" class="cls-2" d="M45.9,4.24c-.36.33-.07,1-.48,1.2a14.82,14.82,0,0,1-2,1.23c-.61.65.13,1.51-.06,2.3,0,.25-.19.58.12.71.89.17,2.1,2.42.52,1.7-1.22-.58-.55-2.5-1.49-3.29-2-.29-1-2.69-3.58-1.62-.62-.35-.55-1.74-1.72-.74-1.1.15-1.81-2.22-3-.93.32-1.35.86-.73,1.83-1,.27,0,.42,1.1,1.12.56s.68-1.23,1.67-.53c.66.61,1.59.08,2.38.27,1.55,0,3.18.4,4.67.07C45.91,4.2,45.91,4.23,45.9,4.24Zm-8.36,36.9c-.09.66.66,1.56.26,2.17-.63.4-.25,1.3-.95,1.7-1.35-2.4-1.44-1.59-3.87-1.51-.57.54-.43,1.64-1,2.09-.37.06-.52.52-.48.88,0,1.29-2.31-.41-2.55.88a3.64,3.64,0,0,1-1.28,2c-.58.59-1.49-1.09-1.34-1.63.83-.86,1.52-1.44.73-2.58.63-.51,1.81-.77,2.63-1.31.45-.56-.11-1.49.55-2a19.92,19.92,0,0,0,4-3.34C36.77,39.3,37.67,37,37.54,41.14ZM27.73,62.8c-.12.42-.77.55-1,1.13A3.48,3.48,0,0,1,25.31,66c.28,1.55-2.11,1.34-2,0-.06-.45-.21-.94-.24-1.41.91.12,1.19-.64,1.06-1.45-.44-1.21.2-2.75-.15-3.79-.71-.29-1.3-1.56-.78-2.16,1.19-.54,1.8-1.74,3.08-2A4.88,4.88,0,0,0,27,57.6c-.21.7-.81,1.26-.31,2C28.83,61.71,27.42,60.13,27.73,62.8ZM20,61.1c.47-.53,1,1,1.43,1.24.2.12.51-.3.62.06.05.11.26.2.08.37C24.68,69.27,19.46,64.64,20,61.1Zm2.55,1.52c-.12-.34-.3-.87-.76-.83-.69.13-.67-1-1.29-1.15a3.38,3.38,0,0,1-1.79-2.77,1.49,1.49,0,0,0-1.53-2.13c-.6-1.18.23-2.06,1.24-1.87.56.28,1.1-.26,1.67-.3s.28-.84.57-1A6.7,6.7,0,0,0,22,51.88c1.23-.89,0,.84,2,.44.79-.66,1.34-.51,1.65.53.34.74,1.74,1.49.28,2-.88,0-1.15.9-1.78,1.33s-1.61.76-1.46,1.68,1,1.43,1.18,2.08C23.36,61.31,24.32,67.08,22.58,62.62Zm-9.34.75c-.11,1.14-.29-1.24-.52-1.56s-.21-.48.18-.74-.06-1.34-.28-1.81c-.55-.61.14-1.21-.14-1.84-.05-.31.52-.23.61-.47.71-.8,2,.35,3,.22.38.15.28-.55.37-.69s.68-.11.8-.34c1.62,0,1.17,1.22,1.24,2.32s1.25,1.54,1.15,2.66c-.57,1.21-2.9-.24-3.89.37C15.26,63.37,13.23,61.5,13.24,63.37ZM5.08,66c-.5.71-1.15-.95-1.07-1.37.26-.9-.43-1.74-.57-2.62-.59-1.31-.22-2.37,1.34-1.81.56.24.92.72,1.5.13.85-1.15,2.59-.07,3.52-.5.25-.52.19-1.62,1-1.48.41.18,1.23.1,1.34.61.45.88,1.11,2.49-.45,2.4a7.75,7.75,0,0,1-2.08,1.42c-1.17,1-1.06.89-2.48.39C6.9,64.2,5.68,65.14,5.08,66Zm30.31-60c2,2-1.53,1,.4,3-.42-.07-.74.53-1.18-.1s-1.38,0-1.68-.53c-.41-.71.11-.45.22-1.08,0-1.36.91-2.56,2.28-2.09A.82.82,0,0,0,35.39,5.94Zm2.94,2.24c2.08,2.52-1.67,3.48-2.06.59.2-.36-.23-.43-.41-.53-.33-.59.93-1.11,1.14-1.6-.42-.38-1.29-.53-1.29-1.33,1.5,2.2,2.5-.81,2.72,1.73C38.36,7.38,37.94,7.93,38.33,8.18ZM42.62,11c0,.56-.58,1.14-1,1.53a.19.19,0,0,1-.32-.07c-.19-.55-.81-.54-1.23-.77a.3.3,0,0,0-.43,0c-.29.41-1.29.37-1.31-.1.8-2.92,2-1.43,3.22-3.21,1-.58,1.2,1.4,1.35,2.11C43.06,10.8,42.46,10.67,42.62,11Zm-3.49,5.19c.83,1.92,1.49.84-.11,2.39-.68.57-.58,1.49-1.17,2.07C37,19,36.94,18.76,35,18.1a1.38,1.38,0,0,1-.87-1.55c-.82-.23-1.78.75-2.58.19-.08-.39.71-.8,1.08-.85,1-.32,1.48-1.37,2.3-2,1-.56,3,.27,3.25-1.45.31-.38,1.2.25,1.57-.26.49-.35,1.26.38,1.46.85C41,14.11,38.88,15,39.13,16.14ZM29.46,42.66c.26,1.45-1.67,1.32-2.45,2,1.09-.8-.61-2.08.3-3.06.69-1.09.9-1,.58-2.39A4.83,4.83,0,0,1,29.58,39a5.49,5.49,0,0,1,1,2C30.21,41.4,29.42,41.93,29.46,42.66Zm-3.4,5.53c.38.58.72,1.8,1.66,1.7.15,0,.35-.46.43-.11.36.59-.46,1.83.28,1.63.45.05.2.89.37,1.25a2.21,2.21,0,0,0,.62.89c-2.85,0-2.48.86-4.17-1.92-.69-.51-1.4.57-2.2.31-1-1.39,0-2.65,1-3.64.73-1-.58-1.62-.7-2.62.24-.38,1-1.32,1.21-.43.38.68,2.34-1,2.49.59C27.73,46.77,25.4,47.24,26.06,48.19Zm-3.78,2.33c.12.84-.69,1.16-1.31,1.54-.81-.31-2.07-.18-2.77-.65-.21-.94-1.27-1.21-1.68-2-.19-.4-.77,0-1.13,0-.67-.75-1.05-.41-2-.27-.13-.54.73-.9.45-1.45-1-1.34-.4-3.12,1.44-2.52,1.42.6-.61,2,2.17,2,.31-.06.36.26.42.48,1,1.23,1.74-1.62,2.64-1.67.53,1.44,2.18-.57,2.68.08C25.08,49.1,22.4,48,22.28,50.52Zm-11.39-5.7c1.79-1.65,2.42,0,2.16,1.86a1.6,1.6,0,0,1,.07,2.09c-.07.25-.67,0-.59-.24a.17.17,0,0,0-.15-.21A3.53,3.53,0,0,1,10.89,44.82Zm-.13-2.75s0-.12-.07-.19a3.85,3.85,0,0,1,2.52.81c-.14.33.1,1-.21,1.3C11.39,43.89,11,43.69,10.76,42.07Zm3.16-4.34c-.26-2,2.16-3,2.31-.42.27.66-1,.67-1.12,1.28C13.72,39.26,14,38.91,13.92,37.73Zm.24-3.84c.14-.38.16-1.15.43-1.35.77.08,1.53-.18,1.63.77.15.26,1.39.63.9.94-.92-.24-.88,1.19-1.69,1.2-.45,0-.93-.09-1.21.35C13.67,35.66,14,34.36,14.16,33.89Zm2.17-6.82a2.34,2.34,0,0,1-.09-.24c2.27-.19,1.77-.37,2.94-2.19,0-.05,0-.24.2-.09.39-.06.7-.6,1.21-.5a2.57,2.57,0,0,1,1.72-.44c1.2,0,.91,1.43,1.58,2.16,0,.78-1.14,1.54-.81,2.57-.16.82-1.27-.45-1.75.22-.24,0-.92.87-.79.41-.59-.15-1.55.36-2.27.25S17.62,30.3,17,30.6c-.06,0-.28.13-.24,0A14.44,14.44,0,0,0,16.33,27.07ZM29.26,8.82c-.22-.26.08-.78-.34-.74.84-1,2,.63,2.92.3.49-.35.55-.52.8.22s1.47,0,1.83.67c-.5.16-.88.7-1.38,1-.08.11-.11.27-.32.15s-.7.31-1.08.17c-.62-.1-.79.91-1.42.58a1.22,1.22,0,0,1-.71-.07C28.1,10.84,29.35,9.59,29.26,8.82Zm.51,22.58c.08,1-1.41,1.13-1.77,2s-.71.38-1.17-.21c-.14-.47.26-1,0-1.53C27.82,31.05,30.32,29,29.77,31.4Zm-2.09,8.53c.1.9-1.05,1.36-.94,2.3-.21.9.61,1.52.12,2.43-.74-.23-1.65.66-2.14.19-.8-1.14-1.49.7-2.3.79-2.45,1.44-1-1.59-2.25-2.43-.31-.3-1.07-1.07-1.08-1.35,1.22-2.93,2.47,0,3.68-1.8.14-.24.46-.1.68-.11.95,0,.11-1.05.72-1.25.81-.33,2.21-1.73,2.74-.48C27.61,38.72,27.58,39.19,27.68,39.93Zm-14.19,4c-.16-.33.23-.72.12-1.1.07-.43.8-.33,1.05-.72.63-.86,1.49-.16,2.22.19.38.27-.14.89.08,1.29.66.86-.09,1.45-.93,1.68C15.33,43.71,12.62,46.09,13.49,43.92Zm7-13.33c-.65-1.46,1.9-2.48,2.48-1.14.38.57,1.74,0,1.85.72-1,1.35-3.12,3-4.85,2.84C20.06,32.16,20.82,31.38,20.52,30.59Zm7-6.68c.07-.8,1.25-1,1.69-1.7.3-.09.41.71.82.72a3.93,3.93,0,0,1,1,1.86,4.48,4.48,0,0,1-3.21,2A2.25,2.25,0,0,1,27.51,23.91Zm2.16-2.62c0,.18-.19.75-.39.63s-.74.38-1,.58c-1.79,1.78-1-3.49.77-3.57C29.29,20.3,30.58,19.47,29.67,21.29Zm-.59-2.87c-.86.2-1.39,1.74-2.07,1.42-.31-.19-.52-.63-.93-.6s-.1-.76-.26-1.06c-.11-.57-.85-.41-.91-1-.12-.38-.69-.81-.39-1.2.72-.09,1.46.69,2,.63.48-.33,1.17-.58,1.63-.08C29.06,16.5,30,15,31,16.43,31.05,17.36,29.4,17.56,29.08,18.42Zm-4.61-.94c1,1.06,1.56,1.6.3,2.77a3.26,3.26,0,0,1-1.12,3.17c-.48.53-1-.32-1.6-.18-.84-.27-2.21,1-2.7.74,0-1.91,2.06-2.24,2.34-3.94.15-1.1.29-2.26,1.47-2.7C23.74,17,24.2,16.6,24.47,17.48ZM24,23.66a4.2,4.2,0,0,0,1.25-3.37c.36-.94,1.49-.47,1.83.26-.51,1.26.3,2.43-.06,3.65s-1.6,1.36-2.69,1.43C24,25.11,23.2,24.18,24,23.66Zm.22,2.58a6.07,6.07,0,0,1,2.31-.66c.2.37.73.85.77,1.46.06,1.21-1.65,1.62-2.3,2.41C22.6,29.81,23.17,27.51,24.22,26.24Zm1.73,5c1,.89.45,1.89-.48,2.46-.55.56-.83,1.38-1.66.72C22.64,32.34,23.47,32,25,30.7,25.64,28.87,25.69,30.27,26,31.22ZM23.6,37.3a3.58,3.58,0,0,1,0,1.42c-.2,1.3-.24.5-1,1.1a1,1,0,0,1-1.55.17c-.14-.24-.61,0-.52-.16,1.52-1,1.43-2.63,2.35-4,.53-.37.74-1.74,1.38-.7C24.2,36,23.55,36.51,23.6,37.3Zm-3.54-4c.65.54,1-.18,1.57-.35.48,0,.85-.42,1.25-.36a3.23,3.23,0,0,1-.75,3.71c-.3,1.13-.47,2.45-1.68,2.92-1.77-2.1-2.36,1.15-3.42-1.3-1.34-2.17-1-3.55,1.66-3.69C19.46,34.77,19.66,33.45,20.06,33.34Zm0,6.81c-1.05.66-1.1,2.2-2.73,2a3,3,0,0,0-1.4-.79c-.35-.22.52-1.09.91-1,1-.17,1.14-1.36,2.2-1.51C19.44,38.73,20.63,39.85,20,40.15ZM16.42,38c.3-.16.52.57.63.8.34.41.59.91-.05,1.19-.44-.32-.86.57-1.14.23C15.87,39.29,15.17,38.37,16.42,38Zm9.76-.68A9.08,9.08,0,0,0,24,38.5c.39-.48.1-.94,0-1.42.56-1.35,1-2.81,2.41-3.61.34.15.59.68.91.85C26.73,35.28,27.07,36.48,26.18,37.31Zm3.51-7.74c-1.12.32-2,1.27-3.11,1.61-.56-.42-.2-1.26-.81-1.75,0-.47.76-.59,1.05-.88,1.08-.89.62-1.55,2.29-1.69.43.37.49,1.77,1.32,2C30.2,29.1,29.85,29.24,29.69,29.57Zm1-.45C31.21,29.4,32,28,32.39,29c.07.37,0,.71.48.73,1.44.8-.7,1.53-1.31,1.65C30.34,31.3,29.49,29.9,30.65,29.12ZM33.32,27c-.29.26.06,1.08-.57,1s-.95.42-1.54.44c-.6.39-.62-.11-1-.43-1.22-1.11.42-2.5,1.44-2.89.44.3,1-.24,1.21-.08C32.81,25.69,33.64,26.52,33.32,27Zm-.07-2.68c-.4.5-1.07.4-1.73.28-.2-.32-.56-1.14-.79-1.63-1-1.05-1.12-.64-.52-2.17.59-.73-.17-1.19,1.05-1.15a3.77,3.77,0,0,1,1.51-.22c.34.5,1,.81,1.27,1.3.06.62-.78,1.11-.43,1.78C34.58,23.46,33.76,23.49,33.25,24.35Zm.67-2c0-.54.51-.86.49-1.4.08-.35,0-.92.41-1,1.89-2.24,2.57.44,2.7,2.3C36.84,23.29,34.74,23.25,33.92,22.39Zm1.19-3.17c-1.67,1.63-1,.34-2.43-.35a9.83,9.83,0,0,1-2.88.53c-1-.95.64-1.8,1.41-2.19.37,0,.62.43,1,.2.43-.07,1.22-.63,1.49-.14C33.68,18.3,35.26,18.33,35.11,19.22Zm-4-3.31a.47.47,0,0,1-.37-.5c-.27-.36-1.07.18-1.51.16-1-.83,1.52-1.83,1.18-2.77-.33-.77.27-1.23.88-1.56,1.17-.27,2.47-.5,3.13-1.64.21-.43.82.32,1.17-.11.76-.34.8,1.1,1.39,1.25,1.12.29,1.18.66.79,1.71-.58,1.17-1.94.58-2.87.89-.95.59-1.37,1.85-2.55,2.05C31.83,15.35,31.62,16.29,31.12,15.91Zm-2-4.5c.95.27,1,.28.9,1.29-.31,1.05-1.58,1.84-1.46,3.18-.1.47-.56,0-.8-.13-.5-.17-1.05.53-1.54.32s-1-.27-1.46-.6a4.28,4.28,0,0,1,.41-2.68c1.2-.15,1.05-.26,1.45-1.32.3-.4.44.16.64.36C28,12.1,28.35,10.5,29.09,11.41ZM16.9,31.08A2.6,2.6,0,0,0,18,29.64c.55.08,1.22-.23,1.87-.2s-.09.82.19,1.13c.5.9-.52,1.69-.4,2.59C18.89,35.39,14.94,32.46,16.9,31.08Zm-2.72,8.25c.27-.15.67,0,.92-.29s.13.42.32.54c.69,1.43-1.29,3-2.65,2.5-1.2-.31-.39-1.11.29-1.51S13.61,39.58,14.18,39.33ZM6.84,58.44c-.09-.21.16-.44,0-.66-.13-.5,1.31-.09,1-.9-.89-1.23,1.16-1.77,2-1.61s2.46,2,2.41,2.79a.51.51,0,0,1-.86,0,1.12,1.12,0,0,0-1.53.49c-.18.28-.1.92-.46,1a5.69,5.69,0,0,0-2.72.1c-.62.35-1.1,1-1.7.15C5.48,59.38,6.87,59.48,6.84,58.44ZM12.28,57c-3.21-2.76-.65-2.31-2.11-3.76-.37-.53-.93-.54-1.46-.89-.94-.44,0-1.63.8-1.59.37-.22.37-.83.91-.91s.31-1,1-.85a2.2,2.2,0,0,0,.76-.16c.34.45,1,.37,1.24.94.21.35-.27.82,0,1.22,1.75,1.16.42,1,.88,2.24.67,1.1,2.46.69,2.54,2.18.46.81-.69.56-.83,1.19C14.77,57.24,13.77,55.57,12.28,57Zm4.5-2.8a4.11,4.11,0,0,1-2.07-1c-.59-.4.29-.84,0-1.33-.06-.62-1-.84-.89-1.37.29-.34-.23-.88.07-1.07s.85-.35,1.08.1c.29.69,1.19-.18,1.45.31.36.73,1.5,1,1.47,1.88.05.11.06.29.27.22.86-.06,2.93.21,1.72,1.38C18.78,53.65,17.69,53.29,16.78,54.21Zm12.7-15.68a2.45,2.45,0,0,1-2.77-1.12,5.21,5.21,0,0,0,.59-2.15c.15-1.72,2.58-2.21,2.81-3.64,0-.24,0-.26.26-.19s1.15.12,1.05.48c-.41.38.31.79,0,1.26.05.32.66.1.79.45.57.28.45.77.66,1.24.14.18.52.35.13.46-.42.37-.52,1-1,1.38C31.59,38.53,31.31,38.49,29.48,38.53Zm3.73-4.21c0-1-1.29-1.09-1.51-1.9,0-1.05,1.38-1,1.9-1.67.09-.23.13-.54.43-.59,1-.38.64,2.74.95,3.47C34.93,34.17,33.41,35.41,33.21,34.32ZM35,29.82c-.74,0-1.84-1.86-1.2-2.68.22-.91-.94-1.93-.09-2.77.34-.21.77-1,1.13-.86.11.15.13.14.22,0s.1-.23.22-.06c.79.41,1.65-.31,2.37-.64.19,1.13,1,2.41.75,3.5-.23.46-1,.24-1,.74A6,6,0,0,1,35,29.82Zm6.1-21.49c-.91,1.65-3.07-.15-2-1.46C40,6.12,41.34,7.39,41.05,8.33ZM27.73,60a1.27,1.27,0,0,1-.38-2.09c.28-.62-.28-.95-.46-1.46s0-1.13-.33-1.48c-.07,0-.08.08-.14.12.39-1,1.51-1.14,2.49-1.19.49.31.81-.49,1.15.07,1.2,1.52,1,3.89.2,5.58-.44.74-1.46.23-2,.77C28,60.45,27.89,60.09,27.73,60Zm7.75-5.27c-1.28,0-1.49-1.47-3.07-.61-.5.1-.86,1.21-1.42.6-.3-1.19-1.65-1.44-1.93-2.64.11-.26,0-1.13-.34-1-.12.07-.12,0-.1-.11.37-.69-.4-1.34-.07-1.92.76-1.34,1-2.36,2.66-1.51-.08.34.22.58.5.73a4.44,4.44,0,0,1,.38,1,2,2,0,0,0,1.66,1.07c.23,0,.48,0,.58.19.82.6,1.38,1.78,2.52,1.22.84,1,0,2.16-.64,3.05C36.06,54.83,35.59,54.66,35.48,54.72Zm.89-16.64c-.82.76-1.81-.46-2.51.07,0,.91-.89.87-1.28,1.38-.36.31-1.46,1.57-1.78,1.11-.56-1-1.16-2,.51-1.83.77,0,.58-1,.83-1.48a12.72,12.72,0,0,1,1.45-2c.44-.24,2-1.78,1.85-.61-.58,1,.71.83.81,1.62C36.49,37.56,37.47,36.89,36.37,38.08ZM8.25,68.26c-.7.77-1.61,1.28-2.19.09-.11-.78.09-1.81-.65-2.29.46-.64,1.11-1,1.52-1.67.25-.76.66-.91,1.31-.4.87.4,1.39-1.43,2.4-1.36.68-.26,1.45-1.7,1.91-.3.77,1.84-2.07,1.21-2.56,2.14.18,1-1,.42-1.32.84-.48.8-1.11,1.81-.32,2.65C8.48,68.13,8.49,68.12,8.25,68.26Zm5.72.36c-.61.56-1.77-.29-2.55-.3s-1.23-.24-1.89-.35c-2,.33-1.16-2.85.32-2.62.63-.09.22-.88.7-1,1.23-.52,3-1.19,2.59.92-.23.81.6,1.19.68,1.92C14.06,67.74,13.75,68.18,14,68.62Zm3.09-.87a3.38,3.38,0,0,1-2.53.5c-.57-.14-.17-1-.48-1.46-.9-.94-.53-2.05-.4-3.09-.51-1.08,1.11-1.16,1.76-.83.47-1.34.77-1.38,2-1a8.6,8.6,0,0,0,1.95-.1c.61,0,.22,1.6.87,2.11.25.42-.56.44-.81.42-.41,0-.37.56-.59.8s-.73.37-.74.84C18.24,66.88,18.13,67.64,17.06,67.75Zm3.48.38c-.84,1-1.88-.1-2.75-.21,1.37-.3.06-1.82,1.05-2.33.78-.86,1.55-1.73,2.11-.09A1.83,1.83,0,0,1,20.54,68.13Zm4.5.49c-1.25,1-2.92.5-4.09-.37.78-.67.6-2,1.87-2,.38.2.33.88.83,1,.66.71,1.3-.28,1.84.54C25.35,68.12,25.32,68.46,25,68.62Zm2.38-1.37c-.16.28-.07.74-.47.83,0,.65-.6,1.71-1.39.78-.09-.53.75-1.23,0-1.61-.18-.09-.13-.18-.07-.28C25.79,65,27.12,66,27.42,67.25Zm-.05-1c-1.67-1.33.31-2.19.76-3.36.12-.45-.35-1.1.11-1.39s.19-.5.3-.77c.29-.49.93-.19,1.37-.36s.4.68.92.56c.67-.3,1.19-1.79,2-.74,1.1.89,1.3,1.78.2,2.79-.3.41.17,1.39-.43,1.56-.72.39-.65,1.52-1.63.26-.9,0-1.32,1.12-1.92,1.7-.25.46-.77-.2-1.12.17C27.67,66.76,27.54,66.35,27.37,66.23Zm5.8-.1c-1,2.41-1,1.42-3.13,2.44-.88.29-1.64-.84-2.48-.64.05-.88.74-.86,1.43-.82a20.45,20.45,0,0,0,1.53-1.8c.35-.28.59.61,1,.54.67,0,.87-.51,1.23-.94.17-.15.73-.34.5-.61-.33-1.09.8-1.67.93-2.62C35,64.23,34.74,64.17,33.17,66.13ZM16.42,45.47c1.82-.91.79-1.48.85-3,2-.3,1.5,0,2.83,1.26,1.1,1.63-.75,2.37-1.39,3.57-.52.66-.68-.59-1.13-.59-.86-.27-1.59.05-1.51-1.16A1.2,1.2,0,0,0,16.42,45.47ZM34,29.22A1,1,0,0,0,33.8,29l-.15-.23a.83.83,0,0,0-.44-.35.42.42,0,0,0-.33,0,.44.44,0,0,0-.2.26.43.43,0,0,0,0,.33.41.41,0,0,0,.17.15h0l.13.2a1.56,1.56,0,0,0,.16.2l0,.06a.36.36,0,0,1,0,.1v0a.41.41,0,0,0,0,.16.38.38,0,0,0,.09.13.46.46,0,0,0,.31.13A.43.43,0,0,0,34,30a.37.37,0,0,0,.12-.3A.93.93,0,0,0,34,29.22Z"/><path id="fill2" class="cls-3" d="M27.73,62.8c-.12.42-.77.55-1,1.13A3.48,3.48,0,0,1,25.31,66c.28,1.55-2.11,1.34-2,0-.06-.45-.21-.94-.24-1.41.91.12,1.19-.64,1.06-1.45-.44-1.21.2-2.75-.15-3.79-.71-.29-1.3-1.56-.78-2.16,1.19-.54,1.8-1.74,3.08-2A4.88,4.88,0,0,0,27,57.6c-.21.7-.81,1.26-.31,2C28.83,61.71,27.42,60.13,27.73,62.8ZM20,61.1c.47-.53,1,1,1.43,1.24.2.12.51-.3.62.06.05.11.26.2.08.37C24.68,69.27,19.46,64.64,20,61.1Zm2.55,1.52c-.12-.34-.3-.87-.76-.83-.69.13-.67-1-1.29-1.15a3.38,3.38,0,0,1-1.79-2.77,1.49,1.49,0,0,0-1.53-2.13c-.6-1.18.23-2.06,1.24-1.87.56.28,1.1-.26,1.67-.3s.28-.84.57-1A6.7,6.7,0,0,0,22,51.88c1.23-.89,0,.84,2,.44.79-.66,1.34-.51,1.65.53.34.74,1.74,1.49.28,2-.88,0-1.15.9-1.78,1.33s-1.61.76-1.46,1.68,1,1.43,1.18,2.08C23.36,61.31,24.32,67.08,22.58,62.62Zm-9.34.75c-.11,1.14-.29-1.24-.52-1.56s-.21-.48.18-.74-.06-1.34-.28-1.81c-.55-.61.14-1.21-.14-1.84-.05-.31.52-.23.61-.47.71-.8,2,.35,3,.22.38.15.28-.55.37-.69s.68-.11.8-.34c1.62,0,1.17,1.22,1.24,2.32s1.25,1.54,1.15,2.66c-.57,1.21-2.9-.24-3.89.37C15.26,63.37,13.23,61.5,13.24,63.37ZM29.46,42.66c.26,1.45-1.67,1.32-2.45,2,1.09-.8-.61-2.08.3-3.06.69-1.09.9-1,.58-2.39A4.83,4.83,0,0,1,29.58,39a5.49,5.49,0,0,1,1,2C30.21,41.4,29.42,41.93,29.46,42.66Zm-3.4,5.53c.38.58.72,1.8,1.66,1.7.15,0,.35-.46.43-.11.36.59-.46,1.83.28,1.63.45.05.2.89.37,1.25a2.21,2.21,0,0,0,.62.89c-2.85,0-2.48.86-4.17-1.92-.69-.51-1.4.57-2.2.31-1-1.39,0-2.65,1-3.64.73-1-.58-1.62-.7-2.62.24-.38,1-1.32,1.21-.43.38.68,2.34-1,2.49.59C27.73,46.77,25.4,47.24,26.06,48.19Zm-3.78,2.33c.12.84-.69,1.16-1.31,1.54-.81-.31-2.07-.18-2.77-.65-.21-.94-1.27-1.21-1.68-2-.19-.4-.77,0-1.13,0-.67-.75-1.05-.41-2-.27-.13-.54.73-.9.45-1.45-1-1.34-.4-3.12,1.44-2.52,1.42.6-.61,2,2.17,2,.31-.06.36.26.42.48,1,1.23,1.74-1.62,2.64-1.67.53,1.44,2.18-.57,2.68.08C25.08,49.1,22.4,48,22.28,50.52ZM29.77,31.4c.08,1-1.41,1.13-1.77,2s-.71.38-1.17-.21c-.14-.47.26-1,0-1.53C27.82,31.05,30.32,29,29.77,31.4Zm-2.09,8.53c.1.9-1.05,1.36-.94,2.3-.21.9.61,1.52.12,2.43-.74-.23-1.65.66-2.14.19-.8-1.14-1.49.7-2.3.79-2.45,1.44-1-1.59-2.25-2.43-.31-.3-1.07-1.07-1.08-1.35,1.22-2.93,2.47,0,3.68-1.8.14-.24.46-.1.68-.11.95,0,.11-1.05.72-1.25.81-.33,2.21-1.73,2.74-.48C27.61,38.72,27.58,39.19,27.68,39.93Zm-7.16-9.34c-.65-1.46,1.9-2.48,2.48-1.14.38.57,1.74,0,1.85.72-1,1.35-3.12,3-4.85,2.84C20.06,32.16,20.82,31.38,20.52,30.59Zm7-6.68c.07-.8,1.25-1,1.69-1.7.3-.09.41.71.82.72a3.93,3.93,0,0,1,1,1.86,4.48,4.48,0,0,1-3.21,2A2.25,2.25,0,0,1,27.51,23.91Zm2.16-2.62c0,.18-.19.75-.39.63s-.74.38-1,.58c-1.79,1.78-1-3.49.77-3.57C29.29,20.3,30.58,19.47,29.67,21.29Zm-.59-2.87c-.86.2-1.39,1.74-2.07,1.42-.31-.19-.52-.63-.93-.6s-.1-.76-.26-1.06c-.11-.57-.85-.41-.91-1-.12-.38-.69-.81-.39-1.2.72-.09,1.46.69,2,.63.48-.33,1.17-.58,1.63-.08C29.06,16.5,30,15,31,16.43,31.05,17.36,29.4,17.56,29.08,18.42ZM24,23.66a4.2,4.2,0,0,0,1.25-3.37c.36-.94,1.49-.47,1.83.26-.51,1.26.3,2.43-.06,3.65s-1.6,1.36-2.69,1.43C24,25.11,23.2,24.18,24,23.66Zm.22,2.58a6.07,6.07,0,0,1,2.31-.66c.2.37.73.85.77,1.46.06,1.21-1.65,1.62-2.3,2.41C22.6,29.81,23.17,27.51,24.22,26.24Zm1.73,5c1,.89.45,1.89-.48,2.46-.55.56-.83,1.38-1.66.72C22.64,32.34,23.47,32,25,30.7,25.64,28.87,25.69,30.27,26,31.22ZM23.6,37.3a3.58,3.58,0,0,1,0,1.42c-.2,1.3-.24.5-1,1.1a1,1,0,0,1-1.55.17c-.14-.24-.61,0-.52-.16,1.52-1,1.43-2.63,2.35-4,.53-.37.74-1.74,1.38-.7C24.2,36,23.55,36.51,23.6,37.3ZM20,40.15c-1.05.66-1.1,2.2-2.73,2a3,3,0,0,0-1.4-.79c-.35-.22.52-1.09.91-1,1-.17,1.14-1.36,2.2-1.51C19.44,38.73,20.63,39.85,20,40.15Zm6.17-2.84A9.08,9.08,0,0,0,24,38.5c.39-.48.1-.94,0-1.42.56-1.35,1-2.81,2.41-3.61.34.15.59.68.91.85C26.73,35.28,27.07,36.48,26.18,37.31Zm3.51-7.74c-1.12.32-2,1.27-3.11,1.61-.56-.42-.2-1.26-.81-1.75,0-.47.76-.59,1.05-.88,1.08-.89.62-1.55,2.29-1.69.43.37.49,1.77,1.32,2C30.2,29.1,29.85,29.24,29.69,29.57Zm3.56-5.22c-.4.5-1.07.4-1.73.28-.2-.32-.56-1.14-.79-1.63-1-1.05-1.12-.64-.52-2.17.59-.73-.17-1.19,1.05-1.15a3.77,3.77,0,0,1,1.51-.22c.34.5,1,.81,1.27,1.3.06.62-.78,1.11-.43,1.78C34.58,23.46,33.76,23.49,33.25,24.35Zm1.86-5.13c-1.67,1.63-1,.34-2.43-.35a9.83,9.83,0,0,1-2.88.53c-1-.95.64-1.8,1.41-2.19.37,0,.62.43,1,.2.43-.07,1.22-.63,1.49-.14C33.68,18.3,35.26,18.33,35.11,19.22Zm-4-3.31a.47.47,0,0,1-.37-.5c-.27-.36-1.07.18-1.51.16-1-.83,1.52-1.83,1.18-2.77-.33-.77.27-1.23.88-1.56,1.17-.27,2.47-.5,3.13-1.64.21-.43.82.32,1.17-.11.76-.34.8,1.1,1.39,1.25,1.12.29,1.18.66.79,1.71-.58,1.17-1.94.58-2.87.89-.95.59-1.37,1.85-2.55,2.05C31.83,15.35,31.62,16.29,31.12,15.91ZM16.78,54.21a4.11,4.11,0,0,1-2.07-1c-.59-.4.29-.84,0-1.33-.06-.62-1-.84-.89-1.37.29-.34-.23-.88.07-1.07s.85-.35,1.08.1c.29.69,1.19-.18,1.45.31.36.73,1.5,1,1.47,1.88.05.11.06.29.27.22.86-.06,2.93.21,1.72,1.38C18.78,53.65,17.69,53.29,16.78,54.21Zm12.7-15.68a2.45,2.45,0,0,1-2.77-1.12,5.21,5.21,0,0,0,.59-2.15c.15-1.72,2.58-2.21,2.81-3.64,0-.24,0-.26.26-.19s1.15.12,1.05.48c-.41.38.31.79,0,1.26.05.32.66.1.79.45.57.28.45.77.66,1.24.14.18.52.35.13.46-.42.37-.52,1-1,1.38C31.59,38.53,31.31,38.49,29.48,38.53ZM17.06,67.75a3.38,3.38,0,0,1-2.53.5c-.57-.14-.17-1-.48-1.46-.9-.94-.53-2.05-.4-3.09-.51-1.08,1.11-1.16,1.76-.83.47-1.34.77-1.38,2-1a8.6,8.6,0,0,0,1.95-.1c.61,0,.22,1.6.87,2.11.25.42-.56.44-.81.42-.41,0-.37.56-.59.8s-.73.37-.74.84C18.24,66.88,18.13,67.64,17.06,67.75Zm3.48.38c-.84,1-1.88-.1-2.75-.21,1.37-.3.06-1.82,1.05-2.33.78-.86,1.55-1.73,2.11-.09A1.83,1.83,0,0,1,20.54,68.13Zm4.5.49c-1.25,1-2.92.5-4.09-.37.78-.67.6-2,1.87-2,.38.2.33.88.83,1,.66.71,1.3-.28,1.84.54C25.35,68.12,25.32,68.46,25,68.62Zm2.38-1.37c-.16.28-.07.74-.47.83,0,.65-.6,1.71-1.39.78-.09-.53.75-1.23,0-1.61-.18-.09-.13-.18-.07-.28C25.79,65,27.12,66,27.42,67.25Zm-11-21.78c1.82-.91.79-1.48.85-3,2-.3,1.5,0,2.83,1.26,1.1,1.63-.75,2.37-1.39,3.57-.52.66-.68-.59-1.13-.59-.86-.27-1.59.05-1.51-1.16A1.2,1.2,0,0,0,16.42,45.47Z"/><path id="fill1" class="cls-4" d="M1.44,68.67c-2-1.64-.05-2.52.29,0C1.63,68.68,1.51,68.71,1.44,68.67Zm1.68.52c.67-.51,1.5-.36,2.26-.74.43-.35.22-1.65-.21-2-.09-.12-.32,0-.48,0S4.08,66,4,65.76c-.56-.45-.39-1.12-.33-1.75a13.27,13.27,0,0,1-1-3.6c-.38-.86-1.16-1.42-.8-2.57-.06-.69,1-.62.8-1.13-.85-1.37-.91-.79-1.66.2-1,1,.14,2,0,3.21a20,20,0,0,1-.5,6.72c1.29-.74,1,.9,1.61,1.59C2,68.83,2.75,69.38,3.12,69.19ZM5.31,39.31c-.81-.34-1.22,1.1-1.66,1.61a4.09,4.09,0,0,1-1.27,1.84A11.07,11.07,0,0,1,1,48a22.67,22.67,0,0,1,.16,3.14c-.07,1.26-.86,2.76.08,3.94.12.3,1.09.62.9.07a5,5,0,0,1,.8-3.49c1-1-1.47-2.21-.45-3.39.46-.79.33-1.78.84-2.51s-.33-1.51.3-2.25c.14-.47.45-.24.76-.38.25-.44,0-1,0-1.44,1.06-1.1,3.2-.21,2.14-2.75C6.21,38.62,5.75,40,5.31,39.31Zm1.94-15a2.46,2.46,0,0,1-1.38,2.15c-1.15,1.15-.39,3.33-1.42,4.43a1.78,1.78,0,0,0-.63,1.47c-.34.18-.14.68-.19,1A7,7,0,0,0,3,37.13c-2.35,3-.61,3.54-1.53,6.72a2.68,2.68,0,0,0,.33,1.28c.62-1.15-.22-2.61,1-3.4.55-.92,1-2.2,2-2.78.27-.13.28-.12.14-.39-1.24-1.93-.87-1.94-.42-3.91-.16-.81.45-1.64.64-2.42.16-.42.6.07.84-.31.55-.41.17-1.07.12-1.63A4.63,4.63,0,0,1,8,26.87c-.36-.69.45-1,.69-1.5s.67-1.12,1-1.62c1.49-1.18,2.05-2.48,1.4-4.27.19-.52-.21-1.26.4-1.57s.46-.94,1-1.12c.28-.4.25-1,.7-1.41.31-.75-.4-1.11-1-.61-.3.87-1.54.59-1.52,1.57-.07,1.82-1.3,3.2-1.28,5C9.27,22.61,7.68,23.23,7.25,24.31ZM18,9.8A1.67,1.67,0,0,1,18,8l-.19-.1a4.89,4.89,0,0,1-.67,1C14.19,8,14.4,12,13.35,13.74c-.36.5.79,1.23.16,1.74-.92.93-.11,1.82.5.53.38-1.69-.34-1.73,1.45-2.8a4.63,4.63,0,0,1,.87-2.45c.65.06,1.1-.64,1.72-.2C18.18,10.41,18,10,18,9.8ZM18,8a1.88,1.88,0,0,1,1.25-.81c.61-.88.93-2,2.17-2.09.79,0,.72-1.23,1.63-1.09.38-.06.42.6.82.32a.21.21,0,0,1,.24,0c.5.1,1.25.57,1.43-.19.73-.54,2.34.25,3.35.06.58.14.84-1.22,1.55-.93.72-.28,1.6.12,2-.69,1.22-.84,3.25.43,4-1.41-.22-.88-.82-.58-1.36-.32C34.34.22,33.69,1,32.89,1c-.55.16-.88,1-1.54,1.07-1.55-1.37-2.26.85-3.9.13-1.07.48-1.28,1.72-2.68,1-2,.83-.58-1.45-3.67,1-1.1.3-1.45,1.23-2.57,1.66a9.61,9.61,0,0,1-.74,2.05Zm27.17,6.85c.43.27,1.15.27,1.36.78s1.2,0,1.52.72c0,.33,0,1.21.52.6.39-.67-.06-1.56-.07-2.3,0-.34,0-.82.48-.82.9.1,1.24-.62,1.1-1.41a5.12,5.12,0,0,1,1-2.59c-.61-1.09.6-1.9,1.25-2.72.32-.42-.4-.73-.38-1.09.31-.81-.94-1.33-.85-2.14.07-.25-.13-.48.08-.7,0-.07.22-.34,0-.35a5.9,5.9,0,0,1-4.12-1.11c-.6-.14-1.23-.56-1.53.22A3.86,3.86,0,0,1,42.3,2a4.59,4.59,0,0,1-2.5.59,2.38,2.38,0,0,0-2-1c-.37,0-.81-.81-1-.14-.05.88-3.21,2-1.12,2,.35.14.55-.33.86-.13.34,1,.84.67,1.12-.18.27-.41,1.17.18,1.57.34.55.45,1.29,0,1.91.16a22.61,22.61,0,0,0,4.49.19c.54-.08,1.08,0,1.64,0A4.91,4.91,0,0,0,49,5c1.36.58.5,1.27.79,2.18.43.65.76,2.38-.57,2-.62.22-.4,1.27-.78,1.77a.66.66,0,0,1-.76.38c-1.14,0-1.88,1.8-3.16,1.68.07,2.07-4.05,2.44-3.26,4.69-.25.79.46,5.38.84,2.5.29-1-.33-1.94-.19-2.94.29-.55.93-.72,1-1.46A3.66,3.66,0,0,1,45.15,14.88Zm0,8.06c1.69-1.3,1.26-3.83,2.59-5.19.06-2.43-1-.5-1.58-1.69-.11-.48-.47-.31-.58.06-.41.68.8,1.17.25,2,.54,1.64-.38.82-1.17,1.68-.35.9-1.86,1.26-1.32,2.34-.41.8.26,1.17,1,.88C44.6,22.8,44.94,23.21,45.12,22.94Zm-3.93,4c.33.38.72,1,.19,1.42-.52.57-.24,1.9-.93,2.24-.75-.15-.68.73-.46,1.2.22,1.11-.67,2.12-.14,3.37-1.07.52-1.33,2.08-2.65,2.13.16.28.17.5-.17.61-.15.38.91.23.75.87.38.81-.18,1.84.25,2.68.07.66.63,1.53.07,2.09-.45.36-.15,1-.64,1.44-1.42,1.13-1.2,1.88.48.86.93-.36,2.71,1,3.13-.39.21-.73-1.21-.61-1-2a33.07,33.07,0,0,1,.88-4.34c.17-.54-.42-.84.06-1.32.94-1.31,2.48-2.08,1.48-3.88-.42-.63.44-1.13.08-1.78.21-1.05,1.89-1.25,1.74-2.63a2.12,2.12,0,0,0,.14-1.62c-.14-.23-.34-.3-.27-.62-.46-.86.48-1.22.85-1.91.14-.3.16-.3-.07-.52s-.36-1-.6-1.48c-1.43.86-1.51-.82-1.7-.19-.36.88-1.11,1.57-.89,2.55C41.65,26.13,41.05,26.37,41.19,26.9Zm-.85,25c.42-1.55,1.09-3.35,1.49-4.83-1-1-2.1-.33-3.34-.82-.78-.09-1.36.79-2.22.4-.3,0,0,.14,0,.27-.44.57-.12,1.37-.28,1.93s-1.81.89-1.1,1.61c1.63,1.87,1.37.15,2.49,1.19A2.06,2.06,0,0,1,40.34,51.91ZM37.7,56.63c-.18-.47.5-.65.8-.83.54-.15.21-.7.48-1s.61-.69.88-1c0-.65.88-1.4-.15-1.61-.44-1-1.54-.42-2.19,0,.22,1.54-1,2.36-1.21,3.67.42,1.68-1.56,3.59-1,4.87C37.08,60.59,38.17,58.34,37.7,56.63Zm-4.08,9.72c1.35-.46,4.22.55,4.27-1.37-1.76-.65-2-.73-1.28-2.64.91-2.12-2.74-1.44-1.83.3C35.67,64.76,34.13,64.88,33.62,66.35Z"/><path id="void" class="cls-5" d="M29.66,21.29c0,.18-.18.75-.38.64s-.74.37-1,.57c-1.79,1.78-1-3.5.77-3.57C29.29,20.3,30.59,19.47,29.66,21.29ZM39.73,32.13a2.2,2.2,0,0,1-.28-1.36c-.07-.94-1.83-1-2.06-1.81-.07-.34-.68-.56-.7-.07-.17.87-1.3.65-1.51,1.45s.17,2.13.12,3.14c0,.51.58,0,.75.25.07.09,0,.12-.1.17-.4.23,0,.47,0,.73s-.33.39-.17.55c.86.38.73,1.67,1.71,1.72.59-.2.75-1,1.2-1.39.63-.32,1-.82.5-1.46A4,4,0,0,1,39.73,32.13ZM3,52.3a3.31,3.31,0,0,0-.51,2.77c.13.21,0,.38-.15.51,0,.41.58.58.63,1a1.67,1.67,0,0,0,.53-1.8C4.28,54.05,3.5,53,3,52.3Zm3.46,2.9c-.42.26-.11,1.25-.24,1.75s1.16.23,1.19-.06c-.23-.43-.33-1.13.13-1.44C9.82,54.36,7.42,55.09,6.48,55.2ZM7.93,28.61c-.26-.27-.13-.66-.19-1-.6.49-1.24,1.47-.57,2C7.47,29.89,8.55,29,7.93,28.61Zm17.68-18.4c-.37.6-1.15,0-1.4.72-.07.24-.39.44-.1.63s-.21.66-.34.94c-.59.68,1,1.73,1,.22C24.8,12,26,12.51,26,12,26.21,10.87,27,11,25.61,10.21Zm6.92-7c-.37.7-2,.15-1.42,1.05.92.16,2.56,1.54,2.87.1a3.76,3.76,0,0,0,.48-1.45C33.89,2.73,33,2.58,32.53,3.18ZM3.82,44.9c.35,1-1.85,3.21.77,2.11C5.74,46.8,3.22,41.9,3.82,44.9ZM20.87,65.51c-.57-1.66-1.34-.78-2.12.08-1,.5.33,2-1,2.33.86.11,1.9,1.23,2.75.21A1.84,1.84,0,0,0,20.87,65.51Zm-.71-1.6c-.64-.51-.26-2.08-.87-2.11a8,8,0,0,1-1.94.1c-1.25-.41-1.56-.36-2,1-.66-.33-2.28-.25-1.76.84-.13,1-.51,2.14.39,3.08.31.44-.08,1.32.49,1.47A3.41,3.41,0,0,0,17,67.75c1.08-.11,1.18-.87,1.06-1.78,0-.47.4-.62.73-.84s.19-.85.59-.8S20.41,64.33,20.16,63.91Zm-7-21.22a3.82,3.82,0,0,0-2.51-.81c0,.06,0,.15.07.19.25,1.62.62,1.82,2.24,1.92C13.22,43.71,13,43,13.12,42.69Zm-.16,4c.26-1.83-.36-3.52-2.16-1.86a3.58,3.58,0,0,0,1.49,3.51.16.16,0,0,1,.16.2c-.08.2.51.49.59.24A1.6,1.6,0,0,0,13,46.68ZM45.37,18.09c.38-.64-.59-1-.33-1.6.08-.29.19-.59.27-.88-.54-.53-2.21.17-2.28.95-.64.84-1,.82-.44,2,.06.89.11,2.15-.61,2.78.17.11.42-.11.61.1s.19,0,.25-.06c.08-.88,1-.93,1.35-1.66.19-.38.49-.76,1-.71C45.81,19.06,45.14,18.43,45.37,18.09Zm-2.44-7.61c-.15-.7-.34-2.69-1.35-2.1-1.21,1.78-2.42.29-3.22,3.21,0,.48,1,.5,1.3.11a.3.3,0,0,1,.44-.06c.42.23,1,.22,1.23.77a.19.19,0,0,0,.32.07c.39-.4,1-1,1-1.53C42.46,10.67,43.05,10.8,42.93,10.48Zm-3.86-3.6c-1.1,1.3,1.07,3.1,2,1.45C41.33,7.39,40,6.13,39.07,6.88ZM27,7.47c.24-.55,1.1-1.22.69-1.79-.38-1-.47-1.13-1.6-1.21-.56,0-.71,1-1.47.48-1.09-.43-1,1.54-2,1.62a4.11,4.11,0,0,1-1.06.07c-.49.1-.81.61-1.33.7-2.83,0-2.13,2.74-.87,4.37.61-.13,1.76.12,2.08-.27.06-.71,1.35-.85,1.87-.48.77.43.78-1.27,1.72-.93.18.12.19-.15.31-.11-1.64-2,0-1.42,1.52-1.32C27.35,8.42,26.58,7.77,27,7.47Zm-.44,18.11a5.9,5.9,0,0,0-2.31.66c-1,1.27-1.62,3.57.78,3.21.65-.78,2.35-1.2,2.3-2.42C27.27,26.43,26.73,26,26.53,25.58Zm-2.65.2c-.65-.74-.37-2.16-1.57-2.17a2.51,2.51,0,0,0-1.72.45c-.51-.11-.82.43-1.21.49-.17-.16-.19,0-.2.09-1.17,1.82-.67,2-2.93,2.18a1.47,1.47,0,0,0,.08.25,14.89,14.89,0,0,1,.38,3.52c0,.14.19.07.24,0,.67-.3.46-1.65,1.32-1.39S20,28.82,20.54,29c-.13.47.55-.38.79-.42.48-.66,1.59.61,1.75-.2C22.75,27.31,23.88,26.55,23.88,25.78Zm-1,6.85c-.41-.06-.77.4-1.25.35-.59.18-.92.89-1.57.36-.41.11-.6,1.43-1.37.93-2.64.14-3,1.52-1.66,3.69,1.07,2.45,1.66-.8,3.42,1.3,1.21-.46,1.38-1.79,1.68-2.92A3.22,3.22,0,0,0,22.88,32.63Zm1.39,2.53c-.63-1-.84.34-1.37.71-.92,1.33-.82,3-2.35,4-.09.22.38-.07.51.17a1,1,0,0,0,1.55-.17c.8-.6.84.2,1-1.09a3.77,3.77,0,0,0,0-1.42C23.55,36.5,24.2,36,24.27,35.16Zm4.44,17.5c-.16-.35.09-1.2-.37-1.25-.74.2.09-1-.28-1.63-.08-.35-.27.07-.43.1-.93.12-1.28-1.11-1.65-1.69-.67-.94,1.66-1.42,1-2.35-.14-1.63-2.11.09-2.48-.58-.23-.89-1,0-1.21.42.11,1,1.43,1.64.7,2.62-1,1-2,2.25-1,3.64.79.26,1.5-.82,2.19-.32,1.69,2.8,1.33,1.9,4.17,1.93A2.31,2.31,0,0,1,28.71,52.66Zm-2.08,7c-.49-.79.11-1.35.32-2a4.79,4.79,0,0,1-.72-2.44c-1.27.27-1.89,1.47-3.07,2-.53.59.07,1.87.78,2.16.35,1-.29,2.58.15,3.79.12.81-.15,1.56-1.07,1.45,0,.47.18,1,.24,1.41-.15,1.39,2.25,1.59,2,0a3.44,3.44,0,0,0,1.45-2.09c.2-.58.85-.72,1-1.13C27.34,60.13,28.75,61.71,26.63,59.65Z"/><path id="void-2" data-name="void" class="cls-6" d="M29.46,42.66c.25,1.45-1.67,1.33-2.45,2,1.1-.8-.61-2.08.3-3.06.68-1.1.9-1,.59-2.39A4.75,4.75,0,0,1,29.58,39a5.38,5.38,0,0,1,1,2C30.22,41.4,29.41,41.93,29.46,42.66Zm-2.63-11c.25.54-.14,1.06,0,1.54.45.58.76,1.13,1.16.2s1.86-1,1.78-2C30.33,29,27.82,31.05,26.83,31.62Zm2.29-4.76c-1.68.14-1.21.79-2.29,1.69-.3.29-1,.41-1.06.88.61.48.25,1.33.8,1.75,1.09-.34,2-1.29,3.12-1.61.16-.33.51-.47.74-.72C29.59,28.63,29.54,27.23,29.12,26.86Zm4.61-9.59c-.27-.49-1.07.07-1.49.14-.41.23-.67-.24-1-.2-.77.38-2.38,1.23-1.41,2.19a9.77,9.77,0,0,0,2.88-.53c1.48.69.76,2,2.42.35C35.26,18.33,33.68,18.3,33.73,17.27Zm-.11,5.26c-.36-.66.49-1.16.42-1.78-.31-.47-.93-.79-1.27-1.29a3.84,3.84,0,0,0-1.52.22c-1.21,0-.45.41-1,1.15-.62,1.52-.52,1.12.51,2.17.23.49.59,1.32.79,1.63.66.12,1.33.22,1.73-.28C33.76,23.49,34.58,23.46,33.62,22.53Zm6.63,4.54c-.55.4-1.09-1.13-1.59-.51s-1.47.78-1.39,1.6A5.88,5.88,0,0,0,39.64,30c1.24.79.77-1.57,1.4-2C41.43,27.68,40.61,26.53,40.25,27.07Zm.88-6c-.06-1.17-.72-2.2-.27-3.41-1.79.52-1.91,2.57-3,3.49-.12,1.51.68,3.22,1,4.47a.34.34,0,0,0,.4.38c.79,1.14,2.33.17,2.1-1,.1-.83.85-1.53,1.11-2.35C43.58,21.38,41,22.27,41.13,21.07ZM47.86,4.88C46,3,45.72,5.57,46.14,7.09c.14.51,1,0,1.07.63.69,1.46,2-.55,2.18-1.38S48.25,5.45,47.86,4.88Zm-2,2.74c-.35-.41-.17-1.18-.4-1.73C43.72,7,43.53,7,43.79,9.11c.25.53,1.08.64,1.2,1.41.47.7,1.1-.89,1.57-.39.19.29.7.64.77.08A1.82,1.82,0,0,0,45.81,7.62ZM31.31,4.81a1,1,0,0,1-.89-.8c-.45-.92-1,1.51-2.22.69-1,0,.25,1.25.53,1.55a13,13,0,0,0,.17,1.4c.67-.88,1.7.06,2.55.27,1.21-.12,1.5-1.17,1.6-2.27C32.85,5.14,31.82,5.1,31.31,4.81Zm-3,1.64a1.73,1.73,0,0,0-.88,2.19c-.66,1.18-3.38-1-1.66,1.27,1,0,1.21,1.14,1.78,1.5.79-.54,1-1.63,1.27-2.46C28.42,8.3,28.8,6.84,28.28,6.45Zm-9,8.27a1.92,1.92,0,0,1-2.46-.9c-.37-.32-.94.09-1.08-.46-.52.75-1.72,1.05-1.19,2.18.37.6-.7.8-.59,1.28.34,1.25.58.25,1.15.54.69.54,1.3,2.33,2.25,2,.57,0,.66-.62,1.12-.79s-.11-1,.22-1.37C19.81,16.76,19.47,15.71,19.27,14.72Zm-.45-2.92c-.6-1.56-2.83-.81-2.9.67.05.44-.2.89.45.76,1.32.16,1.19,1.84,2.88,1.06C20.07,13.64,19.29,12.47,18.82,11.8Zm5.65,5.68c-.27-.88-.73-.5-1.31-.14-1.18.44-1.32,1.6-1.47,2.7-.28,1.7-2.36,2-2.34,3.94.49.27,1.86-1,2.7-.75.61-.13,1.12.72,1.6.19a3.28,3.28,0,0,0,1.12-3.17C26,19.08,25.42,18.54,24.47,17.48ZM16,27.17a4.18,4.18,0,0,1-.1-3.36c-.52-2-3.12-1.18-3.76.28-.59.77-2,.21-2.7.8-.19.75-1.66,1.32-1,2.11-1.23,3.6,3.55.91,1.26,4.94.73-.05,1.2-.55,1.91-.64.13,0,.12,0,.14.09,0,.41.38.49.67.64,1.11.27,2.19-.1,3.28.18C17,30.87,16.25,28.76,16,27.17ZM7.39,33.89A9.94,9.94,0,0,1,8.89,33a9.47,9.47,0,0,0,1-2.86c0-.62-.86-.5-1.26-.75-.65-.1-1.43,1.46-2,.27-.46.44.1,1.12,0,1.67-.12,1.7-2,.34-1.81,3.49a7.1,7.1,0,0,1-.52,1.66c.34.82,1.31,3.56,2,1.67-.29-1-.62-2,.21-2.85,0-.48,1.39-.18,1-.76C7.35,34.44,7.09,34.12,7.39,33.89ZM10.18,42c-.52-.92-2.32-.31-3-1.18,0-.06-.17-.27-.16,0-.51,1.14-2.29.3-2.25,1.55.39.62-.31,1.12-.32,1.57a1.28,1.28,0,0,1,.43.94c0,.54.15,1.5.65,1.74,1.11-.25,2.28.24,3.37-.13C9.83,43.79,11.9,45.43,10.18,42ZM6,46.87c-1-.32-1.47,1-2.44.77a3.21,3.21,0,0,0-.5.09c0,.43-.46.79-.44,1.18s.54,1.76,1,1.34,1.21-.11,1.67-.61c.37-.24.68-.35,1,0,.6.44,1-.45,1.42-.78C8.32,46.91,7.84,46.81,6,46.87ZM6,57.58c-.43-2.36.95-2.28-2-2.14a5.82,5.82,0,0,1-.88,1.69C1.2,58,2.61,59.07,3,60.28c.21-.74.61-.92,1.26-.55.15.08.2,0,.27-.11.26-.72,1.26-.33,1.69-.84A.83.83,0,0,0,6,57.58Zm6.09,1.34c-.11-.51-.94-.43-1.35-.6-.81-.15-.75,1-1,1.47-.94.43-2.68-.65-3.53.5-.57.59-.94.11-1.5-.13-1.55-.56-1.93.49-1.34,1.81.15.88.83,1.71.57,2.63C3.84,65,4.49,66.67,5,66s1.82-1.76,2.06-2.83c1.43.51,1.31.65,2.48-.38a8.08,8.08,0,0,0,2.09-1.43C13.18,61.41,12.51,59.8,12.07,58.92Zm6.33-.46c-.08-1.1.37-2.27-1.25-2.32-.11.23-.61.13-.79.34s0,.83-.37.69c-1,.13-2.28-1-3-.22-.09.23-.65.16-.6.47.27.63-.42,1.23.14,1.84.21.48.7,1.42.27,1.81s-.31.31-.18.73.42,2.71.52,1.57c0-1.88,2,0,2.5-1.88,1-.61,3.32.84,3.89-.37C19.65,60,18.5,59.49,18.4,58.46ZM23.14,46c-.5-.66-2.14,1.36-2.68-.08-.89.05-1.59,2.89-2.63,1.66-.06-.21-.11-.53-.42-.47-2.78,0-.76-1.36-2.18-2-1.84-.6-2.42,1.18-1.44,2.52.29.55-.58.91-.45,1.45.92-.14,1.29-.48,2,.27.36,0,.94-.34,1.14,0,.4.77,1.46,1,1.67,2,.71.46,2,.34,2.77.65.63-.39,1.44-.71,1.31-1.54C22.31,48,25,49.1,23.14,46Zm13.43-.85c-.65-.13-.73-1.49-1.44-1.39a17.74,17.74,0,0,1-1.87.14c-.65.54-.36,1.77-1.18,2.14-.59.2,0,1-.42,1.28s.18.57.34.8c.28,1.09,1,2.23,2.27,1.83.28-.44.52-.89,1.08-1,.55-.51.16-1.74.63-2.44l.05.06a1.57,1.57,0,0,1,0-.28C35.87,45.88,36.29,45.4,36.57,45.14Zm.19,6.65c-1.14.56-1.69-.62-2.51-1.22-.1-.22-.36-.21-.58-.19A2,2,0,0,1,32,49.31a4.59,4.59,0,0,0-.37-1c-.29-.16-.58-.39-.51-.73-1.68-.86-1.9.17-2.66,1.51-.33.58.44,1.23.07,1.92,0,.06,0,.18.1.11.34-.14.45.73.34,1,.29,1.21,1.64,1.46,1.93,2.64.57.61.92-.5,1.42-.6,1.58-.86,1.8.65,3.08.61.11-.06.57.11.73.12C36.74,54,37.61,52.8,36.76,51.79Zm-4,8.38c-.79-1.06-1.31.44-2,.74-.52.12-.5-.78-.92-.57s-1.08-.12-1.37.37c-.11.26.05.63-.3.77-.46.3,0,.94-.11,1.4-.44,1.16-2.43,2-.75,3.34.17.13.29.55.52.43.36-.37.87.29,1.13-.17.6-.58,1-1.67,1.91-1.7,1,1.26.91.13,1.63-.26.61-.16.13-1.15.43-1.56C34,61.94,33.81,61.06,32.72,60.17Z"/><path id="fill0" d="M52.74,6.38c-.18-.57-.51-1.25-.72-1.82,0-.27,0-.31-.23-.24s-.35-.42-.32-.65c1.06-2.38-1.59-.26-4.12-2.34-.65-.25-1.58-.56-2,.2a3.15,3.15,0,0,1-2.84,0c-.8,0-1.57.85-2.5.53-.72-1-2-.91-3-1.35-.39,0-.42-.53-.85-.6-.45-.42-.77.17-1.14.18-.35-.44-1-.22-1.39.06a2.29,2.29,0,0,0-1.79.92c-.59.66-.79-.42-1.33-.25-1.12.11-1.87,1.13-3,.63-.85-.06-1.09,1.14-1.77,1.25-.4-.12-.92-.46-1.27-.07-.13.1-.36.27-.5.08-.7-1.32-1.89.4-2.74.81-1.19.11-1.61,1.4-2.77,1.62-.62.61-.62,2-1.09,2.74-.21.6-.75.21-1.17.3a3.36,3.36,0,0,0-2.37,2.63,5.08,5.08,0,0,1-1.25,3.12c-.62.17-.77.7-1.25,1a1.24,1.24,0,0,0-.83.44c-.34.15,0,.58-.24.82-.31.69.16,1.8-.55,2.26-.22,0-.24.19-.25.36-.48,1,0,2.35-.89,3.15-1.25.84-1.6,2.26-2.28,3.4-1.37.82-1.41,2.23-1.75,3.66C5,30.52,3.47,30.85,3.4,31.92c-.13,1.74-1.14,3.42-.82,5.19A5.09,5.09,0,0,0,1.35,41.8c.26.66-.31,1.26-.3,1.93-.16,1,.82,2,.19,2.92C.08,48.16,1.05,50.1.78,51.78a4.68,4.68,0,0,0-.25,2.75c0,.6.69.9.83,1.34-.51.93-1.74,1.85-1,2.94C.93,59.75.51,61,.85,62A17.24,17.24,0,0,1,0,67.35C.23,68,1,69.29,1.87,69c.27-.09.51.22.58.46.45.55,1-.2,1.49-.36.46.58,1.18-.49,1.74-.24.37.45,1,.27,1.29.71.76.24.77-.77,1.39-.89,1.64-.71,3.37.38,5,.55,1,.38.21-.9,1.92-.43.67-.39,1.54-.22,2.28-.38s1.51,1,2.42.49,2.23.81,3.44.74c.66.33,1.44-1,1.86-.44.83,1.29,1.77-.19,2.24-.85a4.91,4.91,0,0,0,4.42.05,1.77,1.77,0,0,0,1.14-1.26c.82-.86,2.46-.23,3.55-.44a1.81,1.81,0,0,0,1.75-2c-.37-.5-1-.33-1.48-.66-.65-.81.87-2.15,0-3.15.44-1.43,2-2.53,1.24-4.32,2.9-2.06,2.52-6.39,4.3-9.35-.43-1.34-1.54-.15-.89-2.37-.13-.56-1.13-.34-1.06-1.17a25.71,25.71,0,0,1,.92-4.62c-.45-1.79,2-2.4,1.9-4.2-.07-.4-.27-.76-.37-1.17s.38-1,0-1.55c.15-.8,1.42-.85,1.53-1.67a4.49,4.49,0,0,0,0-3.76c.7-1,1.35-1.52.63-2.78-.18-.54.48-.83.67-1.28,1.36-1,1.14-3,1.83-4.31,1.76-1.16,1.7-1.89,1.31-3.8,2.48-1.11,1-1.53,2-3.62a1.47,1.47,0,0,0,.41-1.75C51.54,8.18,53.43,7.51,52.74,6.38ZM13.35,13.74C14.4,12,14.19,8,17.12,9a7.75,7.75,0,0,0,1.41-3.08C19.64,5.46,20,4.52,21.1,4.21c3.08-2.5,1.7-.21,3.67-1,1.4.75,1.61-.49,2.68-1,1.65.72,2.35-1.51,3.9-.13C32,2,32.34,1.16,32.89,1c.8,0,1.45-.78,2.18-.12.55-.26,1.15-.56,1.37.32-.73,1.84-2.77.57-4,1.41-.45.81-1.33.41-2,.69-.71-.3-1,1.07-1.55.93-1,.2-2.62-.6-3.35-.06-.18.75-.93.29-1.43.18a.25.25,0,0,0-.24,0c-.4.29-.44-.38-.82-.3-.91-.16-.85,1.06-1.63,1.07-1.24.13-1.57,1.22-2.17,2.1A1.66,1.66,0,0,0,18,9.8c0,.24.16.61,0,.76-.63-.45-1.08.26-1.73.2a4.63,4.63,0,0,0-.87,2.45C13.67,14.28,14.38,14.32,14,16c-.61,1.29-1.43.4-.5-.53C14.14,15,13,14.24,13.35,13.74Zm36-7.4c-.15.84-1.49,2.84-2.18,1.38-.08-.59-.93-.13-1.07-.63C45.71,5.57,46,3,47.86,4.88,48.25,5.45,49.52,5.45,49.39,6.34Zm.23,1.4c.3,1.51-.2.69-.89,1.06-.1.46-1,3-1,1.62.32-.54,0-1.36.41-1.81C48.68,8.61,49.2,7.26,49.62,7.74Zm-2.29,2.47c-.07.56-.58.21-.77-.08-.47-.5-1.1,1.09-1.57.39-.12-.77-1-.88-1.2-1.41C43.52,7,43.72,7,45.41,5.89c.23.55.05,1.32.4,1.73A1.82,1.82,0,0,1,47.33,10.21ZM45,11.8c.18-.54.72-.77,1.14-1.15.27-.22.47.33.79.3a4.77,4.77,0,0,1-2.26,1.63C44.72,12.28,45.19,12.12,45,11.8Zm.9-7.56c-.36.33-.07,1-.48,1.2a14.82,14.82,0,0,1-2,1.23c-.61.65.13,1.51-.06,2.3,0,.25-.19.58.12.71.89.17,2.1,2.42.52,1.7-1.22-.58-.55-2.5-1.49-3.29-2-.29-1-2.69-3.58-1.62-.62-.35-.55-1.74-1.72-.74-1.1.15-1.81-2.22-3-.93.32-1.35.86-.73,1.83-1,.27,0,.42,1.1,1.12.56s.68-1.23,1.67-.53c.66.61,1.59.08,2.38.27,1.55,0,3.18.4,4.67.07C45.91,4.2,45.91,4.23,45.9,4.24Zm-1.86,9C43.36,14.72,40.79,15,40.88,17c-.51.81-1.1-.5-1.31-1,.88-1.61,2.53-3,3.49-4.71.42-.29.45.62,1,.51C45,12,43.81,12.7,44,13.27Zm-2.9,7.8c-.12,1.21,2.44.32,1.29,1.54-.25.82-1,1.52-1.1,2.35.24,1.2-1.31,2.18-2.1,1.05a.36.36,0,0,1-.4-.39c-.31-1.25-1.1-3-1-4.47,1.11-.92,1.23-3,3-3.49C40.41,18.87,41.07,19.9,41.14,21.07Zm1.44-2.53c-.53-1.17-.19-1.14.45-2,.08-.78,1.74-1.48,2.28-.94-.08.28-.19.58-.27.87-.26.64.71,1,.33,1.6-.24.33.44,1-.22.9-.47,0-.77.34-1,.71-.32.73-1.27.78-1.35,1.66-.05.09-.16.16-.25.06s-.43,0-.61-.1C42.7,20.69,42.65,19.43,42.58,18.54Zm-3.4,15.51c.48.63.13,1.14-.51,1.46-.44.39-.6,1.19-1.19,1.39-1,0-.84-1.34-1.71-1.72-.16-.16.13-.36.17-.55s-.39-.5,0-.73c.07,0,.17-.08.11-.17-.17-.29-.73.25-.75-.26,0-1-.39-2.26-.13-3.12s1.34-.58,1.51-1.46c0-.49.63-.26.7.07.23.85,2,.87,2,1.81a2.28,2.28,0,0,0,.29,1.36A4.11,4.11,0,0,0,39.18,34.05Zm-1.64,7.09c-.09.66.66,1.56.26,2.17-.63.4-.25,1.3-.95,1.7-1.35-2.4-1.44-1.59-3.87-1.51-.57.54-.43,1.64-1,2.09-.37.06-.52.52-.48.88,0,1.29-2.31-.41-2.55.88a3.64,3.64,0,0,1-1.28,2c-.58.59-1.49-1.09-1.34-1.63.83-.86,1.52-1.44.73-2.58.63-.51,1.81-.77,2.63-1.31.45-.56-.11-1.49.55-2a19.92,19.92,0,0,0,4-3.34C36.77,39.3,37.67,37,37.54,41.14ZM36,46.26a1.49,1.49,0,0,0,0,.28L36,46.48c-.47.69-.08,1.92-.63,2.44-.56.13-.8.59-1.08,1-1.28.4-2-.74-2.27-1.83-.16-.24-.83-.52-.34-.8s-.17-1.08.43-1.29c.8-.35.52-1.59,1.17-2.13a17.94,17.94,0,0,0,1.87-.14c.7-.1.79,1.25,1.44,1.38C36.29,45.4,35.88,45.88,36,46.26ZM34.76,60.78c-1.34,1-2-3.14-3.93-.55-.13.42-.36,0-.42-.26a6.09,6.09,0,0,0,.71-4.13c-.09-.45.4-.59.69-.78.41-.57.82-.59,1.45-.74.4-.24.64.22.79.49a2.67,2.67,0,0,0,1.88.42C36.19,57.28,34.75,58.91,34.76,60.78Zm-7.12,2c-.11.42-.76.55-1,1.13A3.48,3.48,0,0,1,25.22,66c.29,1.55-2.1,1.34-1.95,0-.07-.45-.21-.94-.25-1.41.91.12,1.19-.64,1.07-1.45-.44-1.21.2-2.75-.16-3.79-.7-.29-1.3-1.56-.77-2.16,1.18-.54,1.79-1.74,3.07-2a4.88,4.88,0,0,0,.71,2.44c-.2.7-.8,1.26-.31,2C28.75,61.71,27.33,60.13,27.64,62.8Zm-7.7-1.7c.48-.53,1.06,1,1.44,1.24.2.12.51-.3.62.06,0,.11.26.2.08.37C24.59,69.27,19.37,64.64,19.94,61.1Zm2.56,1.52c-.12-.34-.31-.87-.76-.83-.7.13-.68-1-1.3-1.15a3.4,3.4,0,0,1-1.79-2.77,1.49,1.49,0,0,0-1.53-2.13c-.59-1.18.23-2.06,1.24-1.87.57.28,1.1-.26,1.68-.3.42-.1.27-.84.56-1a6.42,6.42,0,0,0,1.28-.65c1.23-.89,0,.84,2,.44.79-.66,1.34-.51,1.65.53.34.74,1.75,1.49.29,2-.89,0-1.16.9-1.78,1.33s-1.62.76-1.47,1.68,1,1.43,1.18,2.08C23.28,61.31,24.24,67.08,22.5,62.62Zm-9.35.75c-.11,1.14-.29-1.24-.52-1.56s-.21-.48.19-.74-.07-1.34-.28-1.81c-.55-.61.13-1.21-.14-1.84-.05-.31.51-.23.61-.47.7-.8,2,.35,3,.22.37.15.27-.55.36-.69s.69-.11.8-.34c1.62,0,1.17,1.22,1.25,2.32s1.24,1.54,1.14,2.66c-.57,1.21-2.9-.24-3.89.37C15.18,63.37,13.15,61.5,13.15,63.37ZM5,66c-.5.71-1.15-.95-1.07-1.37.26-.9-.42-1.74-.57-2.62-.59-1.31-.21-2.37,1.34-1.81.56.24.92.72,1.5.13.85-1.15,2.6-.07,3.53-.5.25-.52.19-1.62,1-1.48.42.18,1.23.1,1.34.61.45.88,1.11,2.49-.44,2.4a8,8,0,0,1-2.09,1.42c-1.17,1-1,.89-2.48.39C6.81,64.2,5.59,65.14,5,66ZM2.51,55.07A3.35,3.35,0,0,1,3,52.3c.48.65,1.26,1.76.5,2.43A1.67,1.67,0,0,1,3,56.54c-.05-.39-.66-.55-.64-.95C2.49,55.44,2.64,55.28,2.51,55.07ZM3.82,44.9c-.6-3,1.91,1.9.77,2.12C2,48.11,4.17,45.92,3.82,44.9Zm.92-2.55c0-1.26,1.75-.41,2.25-1.54,0-.3.12-.1.16,0,.71.88,2.51.28,3,1.19,1.72,3.47-.35,1.84-1.32,4.51-1.08.37-2.25-.13-3.36.12-.5-.22-.68-1.19-.65-1.73a1.28,1.28,0,0,0-.42-.93C4.43,43.47,5.13,43,4.74,42.35Zm.17-7.5c-.19-3.15,1.69-1.79,1.82-3.49.06-.55-.5-1.24,0-1.67.53,1.19,1.32-.37,2-.27.4.25,1.27.13,1.27.75A9.88,9.88,0,0,1,8.9,33a9.2,9.2,0,0,0-1.51.87c-.3.23,0,.54.21.68.35.58-1,.28-1,.76-.83.88-.5,1.82-.21,2.85-.64,1.88-1.62-.85-1.95-1.67A7.1,7.1,0,0,0,4.91,34.85Zm3-6.24c.63.38-.46,1.29-.75,1-.68-.5,0-1.48.57-2C7.8,28,7.67,28.34,7.92,28.61ZM8.45,27c-.63-.78.84-1.35,1-2.1.74-.59,2.1,0,2.7-.8.64-1.46,3.24-2.25,3.76-.28a4.18,4.18,0,0,0,.1,3.36c.22,1.59.94,3.7-.33,5-1.09-.29-2.17.09-3.28-.18-.29-.15-.66-.23-.67-.64,0-.1,0-.12-.14-.09-.71.09-1.18.59-1.91.64C12,27.9,7.21,30.61,8.45,27Zm3.4-5.77c-.95-1.49-.34-4.33,1.67-4.12.46.14.52,1.41,1.22.76.27-.18.57.37.61.6s.13.37.4.34.46.71.81.88a.23.23,0,0,1,.06.38c-.51,1.08-.22,1.87-.63,3.13-1.07-1.55-2.28-1-3.57-.15a1.59,1.59,0,0,1-1.51,1.1c-.25-.15-1.5.43-1.05-.07C10.61,23.24,11.79,22.33,11.85,21.22Zm2.69-5.67c-.53-1.14.67-1.44,1.19-2.2.14.56.71.15,1.08.48a1.92,1.92,0,0,0,2.47.9c.19,1,.53,2-.59,2.47-.33.42.23,1.1-.22,1.38s-.55.81-1.12.79c-1,.32-1.56-1.47-2.26-2-.56-.3-.8.7-1.14-.55C13.85,16.34,14.9,16.14,14.54,15.55Zm1.38-3.08c.06-1.47,2.3-2.22,2.9-.67.47.67,1.25,1.84.43,2.49-1.69.78-1.56-.9-2.89-1.06C15.72,13.36,16,12.9,15.92,12.47Zm4.31-5.13c.52-.09.84-.6,1.33-.71a4.63,4.63,0,0,0,1.06,0c.94-.09.88-2,2-1.63.77.47.91-.51,1.47-.47,1.12.07,1.22.18,1.6,1.2.41.58-.46,1.24-.69,1.78-.39.3.38,1-.11,1.14-1.5-.1-3.16-.64-1.52,1.32-.12,0-.14.23-.31.1-.94-.33-1,1.37-1.71.94-.52-.37-1.82-.23-1.88.48-.33.39-1.48.14-2.08.27C18.1,10.08,17.4,7.39,20.23,7.34Zm-.37-.41c.18-1.22,1.47-1.14,2.21-1.76.22-.32.5-.88,1-.64.87.28.24.91-.1,1.46s-1,.12-1.36.23S20.28,7.32,19.86,6.93Zm15.53-1c2,2-1.53,1,.4,3-.42-.07-.74.53-1.18-.1s-1.38,0-1.68-.53c-.41-.71.11-.45.22-1.08,0-1.36.91-2.56,2.28-2.09A.82.82,0,0,0,35.39,5.94Zm2.94,2.24c2.08,2.52-1.67,3.48-2.06.59.2-.36-.23-.43-.41-.53-.33-.59.93-1.11,1.14-1.6-.42-.38-1.29-.53-1.29-1.33,1.5,2.2,2.5-.81,2.72,1.73C38.36,7.38,37.94,7.93,38.33,8.18ZM42.62,11c0,.56-.58,1.14-1,1.53a.19.19,0,0,1-.32-.07c-.19-.55-.81-.54-1.23-.77a.3.3,0,0,0-.43,0c-.29.41-1.29.37-1.31-.1.8-2.92,2-1.43,3.22-3.21,1-.58,1.2,1.4,1.35,2.11C43.06,10.8,42.46,10.67,42.62,11Zm-3.49,5.19c.83,1.92,1.49.84-.11,2.39-.68.57-.58,1.49-1.17,2.07C37,19,36.94,18.76,35,18.1a1.38,1.38,0,0,1-.87-1.55c-.82-.23-1.78.75-2.58.19-.08-.39.71-.8,1.08-.85,1-.32,1.48-1.37,2.3-2,1-.56,3,.27,3.25-1.45.31-.38,1.2.25,1.57-.26.49-.35,1.26.38,1.46.85C41,14.11,38.88,15,39.13,16.14ZM29.46,42.66c.26,1.45-1.67,1.32-2.45,2,1.09-.8-.61-2.08.3-3.06.69-1.09.9-1,.58-2.39A4.83,4.83,0,0,1,29.58,39a5.49,5.49,0,0,1,1,2C30.21,41.4,29.42,41.93,29.46,42.66ZM26,48.19c.38.58.73,1.8,1.66,1.7.16,0,.36-.46.43-.11.36.59-.46,1.83.28,1.63.46.05.21.89.37,1.25a2.21,2.21,0,0,0,.62.89c-2.85,0-2.48.86-4.16-1.92-.7-.51-1.41.57-2.21.31-1-1.39,0-2.65,1-3.64.73-1-.59-1.62-.71-2.62.25-.38,1-1.32,1.22-.43.38.68,2.33-1,2.49.59C27.64,46.77,25.31,47.24,26,48.19Zm-3.78,2.33c.13.84-.69,1.16-1.3,1.54-.82-.31-2.08-.18-2.78-.65-.21-.94-1.27-1.21-1.68-2-.19-.4-.77,0-1.13,0-.67-.75-1-.41-2-.27-.13-.54.74-.9.45-1.45-1-1.34-.39-3.12,1.45-2.52,1.42.6-.61,2,2.17,2,.31-.06.36.26.42.48,1,1.23,1.74-1.62,2.63-1.67.53,1.44,2.18-.57,2.68.08C25,49.1,22.31,48,22.19,50.52ZM6.48,55.2c.94-.11,3.34-.84,1.08.25-.46.3-.36,1-.13,1.44,0,.29-1.3.62-1.19.06S6.06,55.46,6.48,55.2Zm1.86-7.12c0-.38-.12-1,.24-1.23.78,0,.66-.77,1.06-1.22.62-.83,1-.24.88.55a4.15,4.15,0,0,0,1.23,2.22c.05.5-1.18.16-1.22.86-.12.42-.83.21-.95.68-.15.21-.19.5-.49.53s-.48,0-.59.27c-.4.14-.73-.61-1.07-.83C7.46,49.34,8.45,48.86,8.34,48.08Zm2.46-3.26c1.8-1.65,2.42,0,2.16,1.86A1.58,1.58,0,0,1,13,48.77c-.07.25-.66,0-.58-.24a.18.18,0,0,0-.16-.21A3.55,3.55,0,0,1,10.8,44.82Zm-.12-2.75s0-.12-.07-.19a3.87,3.87,0,0,1,2.52.81c-.15.33.09,1-.21,1.3C11.3,43.89,10.92,43.69,10.68,42.07Zm3.24-4.34c-.26-2,2.16-3,2.31-.42.27.66-1,.67-1.12,1.28C13.72,39.26,14,38.91,13.92,37.73Zm.24-3.84c.14-.38.16-1.15.43-1.35.77.08,1.53-.18,1.63.77.15.26,1.39.63.9.94-.92-.24-.88,1.19-1.69,1.2-.45,0-.93-.09-1.21.35C13.67,35.66,14,34.36,14.16,33.89Zm2.17-6.82a2.34,2.34,0,0,1-.09-.24c2.27-.19,1.77-.37,2.94-2.19,0-.05,0-.24.2-.09.39-.06.7-.6,1.21-.5a2.57,2.57,0,0,1,1.72-.44c1.2,0,.91,1.43,1.58,2.16,0,.78-1.14,1.54-.81,2.57-.16.82-1.27-.45-1.75.22-.24,0-.92.87-.79.41-.59-.15-1.55.36-2.27.25S17.62,30.3,17,30.6c-.06,0-.28.13-.24,0A14.44,14.44,0,0,0,16.33,27.07Zm0-3.56c.64-2.93-.21-2.89,2.45-4.6.45-.17.23-.79.18-1.17s1.23-.55.92-1.26c-.1-1-.39-1.89.2-2.71,0-.5-.66-1.26-.33-1.62a4.47,4.47,0,0,1,1.63-.06c.64-.48.74-1.17,1.76-.75,1.32.46-.33,1,.12,1.73,1,1,1.6,1.49.85,2.94-.26.84-1.46.75-1.88,1.45-1.13.87-.4,2.47-1.27,3.53-.5.49-1.41.7-1.53,1.5a7.39,7.39,0,0,1-1.77,3.77c-.44.13-1.11-.06-1.49.23C15.7,25.51,16.26,24.48,16.29,23.51Zm7.82-12c-.29-.19,0-.39.1-.63.24-.7,1-.12,1.39-.72,1.4.77.61.65.39,1.75,0,.55-1.19,0-1.21.76,0,1.51-1.59.47-1-.22C23.9,12.22,24.4,11.85,24.11,11.56Zm5.15-2.74c-.22-.26.08-.78-.34-.74.84-1,2,.63,2.92.3.49-.35.55-.52.8.22s1.47,0,1.83.67c-.5.16-.88.7-1.38,1-.08.11-.11.27-.32.15s-.7.31-1.08.17c-.62-.1-.79.91-1.42.58a1.22,1.22,0,0,1-.71-.07C28.1,10.84,29.35,9.59,29.26,8.82Zm.51,22.58c.08,1-1.41,1.13-1.77,2s-.71.38-1.17-.21c-.14-.47.26-1,0-1.53C27.82,31.05,30.32,29,29.77,31.4Zm-2.09,8.53c.1.9-1.05,1.36-.94,2.3-.21.9.61,1.52.12,2.43-.74-.23-1.65.66-2.14.19-.8-1.14-1.49.7-2.3.79-2.45,1.44-1-1.59-2.25-2.43-.31-.3-1.07-1.07-1.08-1.35,1.22-2.93,2.47,0,3.68-1.8.14-.24.46-.1.68-.11.95,0,.11-1.05.72-1.25.81-.33,2.21-1.73,2.74-.48C27.61,38.72,27.58,39.19,27.68,39.93Zm-14.28,4c-.15-.33.23-.72.12-1.1.07-.43.81-.33,1.05-.72.63-.86,1.5-.16,2.23.19.37.27-.15.89.07,1.29.67.86-.08,1.45-.92,1.68C15.24,43.71,12.53,46.09,13.4,43.92Zm7.12-13.33c-.65-1.46,1.9-2.48,2.48-1.14.38.57,1.74,0,1.85.72-1,1.35-3.12,3-4.85,2.84C20.06,32.16,20.82,31.38,20.52,30.59Zm7-6.68c.07-.8,1.25-1,1.69-1.7.3-.09.41.71.82.72a3.93,3.93,0,0,1,1,1.86,4.48,4.48,0,0,1-3.21,2A2.25,2.25,0,0,1,27.51,23.91Zm2.16-2.62c0,.18-.19.75-.39.63s-.74.38-1,.58c-1.79,1.78-1-3.49.77-3.57C29.29,20.3,30.58,19.47,29.67,21.29Zm-.59-2.87c-.86.2-1.39,1.74-2.07,1.42-.31-.19-.52-.63-.93-.6s-.1-.76-.26-1.06c-.11-.57-.85-.41-.91-1-.12-.38-.69-.81-.39-1.2.72-.09,1.46.69,2,.63.48-.33,1.17-.58,1.63-.08C29.06,16.5,30,15,31,16.43,31.05,17.36,29.4,17.56,29.08,18.42Zm-4.61-.94c1,1.06,1.56,1.6.3,2.77a3.26,3.26,0,0,1-1.12,3.17c-.48.53-1-.32-1.6-.18-.84-.27-2.21,1-2.7.74,0-1.91,2.06-2.24,2.34-3.94.15-1.1.29-2.26,1.47-2.7C23.74,17,24.2,16.6,24.47,17.48ZM24,23.66a4.2,4.2,0,0,0,1.25-3.37c.36-.94,1.49-.47,1.83.26-.51,1.26.3,2.43-.06,3.65s-1.6,1.36-2.69,1.43C24,25.11,23.2,24.18,24,23.66Zm.22,2.58a6.07,6.07,0,0,1,2.31-.66c.2.37.73.85.77,1.46.06,1.21-1.65,1.62-2.3,2.41C22.6,29.81,23.17,27.51,24.22,26.24Zm1.73,5c1,.89.45,1.89-.48,2.46-.55.56-.83,1.38-1.66.72C22.64,32.34,23.47,32,25,30.7,25.64,28.87,25.69,30.27,26,31.22ZM23.6,37.3a3.58,3.58,0,0,1,0,1.42c-.2,1.3-.24.5-1,1.1a1,1,0,0,1-1.55.17c-.14-.24-.61,0-.52-.16,1.52-1,1.43-2.63,2.35-4,.53-.37.74-1.74,1.38-.7C24.2,36,23.55,36.51,23.6,37.3Zm-3.54-4c.65.54,1-.18,1.57-.35.48,0,.85-.42,1.25-.36a3.23,3.23,0,0,1-.75,3.71c-.3,1.13-.47,2.45-1.68,2.92-1.77-2.1-2.36,1.15-3.42-1.3-1.34-2.17-1-3.55,1.66-3.69C19.46,34.77,19.66,33.45,20.06,33.34Zm0,6.81c-1.05.66-1.1,2.2-2.73,2a3,3,0,0,0-1.4-.79c-.35-.22.52-1.09.91-1,1-.17,1.14-1.36,2.2-1.51C19.44,38.73,20.63,39.85,20,40.15ZM16.42,38c.3-.16.52.57.63.8.34.41.59.91-.05,1.19-.44-.32-.86.57-1.14.23C15.87,39.29,15.17,38.37,16.42,38Zm0,7.48c1.82-.91.79-1.48.85-3,2-.3,1.5,0,2.83,1.26,1.1,1.63-.75,2.37-1.39,3.57-.52.66-.68-.59-1.13-.59-.86-.27-1.59.05-1.51-1.16A1.2,1.2,0,0,0,16.42,45.47Zm9.76-8.16A9.08,9.08,0,0,0,24,38.5c.39-.48.1-.94,0-1.42.56-1.35,1-2.81,2.41-3.61.34.15.59.68.91.85C26.73,35.28,27.07,36.48,26.18,37.31Zm3.51-7.74c-1.12.32-2,1.27-3.11,1.61-.56-.42-.2-1.26-.81-1.75,0-.47.76-.59,1.05-.88,1.08-.89.62-1.55,2.29-1.69.43.37.49,1.77,1.32,2C30.2,29.1,29.85,29.24,29.69,29.57Zm1-.45C31.21,29.4,32,28,32.39,29c.07.37,0,.71.48.73,1.44.8-.7,1.53-1.31,1.65C30.34,31.3,29.49,29.9,30.65,29.12Zm2.33.12c-.32-.28-.32-.89.23-.85A11.51,11.51,0,0,1,34,29.85C33.54,30,33.5,29.23,33,29.24ZM33.32,27c-.29.26.06,1.08-.57,1s-.95.42-1.54.44c-.6.39-.62-.11-1-.43-1.22-1.11.42-2.5,1.44-2.89.44.3,1-.24,1.21-.08C32.81,25.69,33.64,26.52,33.32,27Zm-.07-2.68c-.4.5-1.07.4-1.73.28-.2-.32-.56-1.14-.79-1.63-1-1.05-1.12-.64-.52-2.17.59-.73-.17-1.19,1.05-1.15a3.77,3.77,0,0,1,1.51-.22c.34.5,1,.81,1.27,1.3.06.62-.78,1.11-.43,1.78C34.58,23.46,33.76,23.49,33.25,24.35Zm.67-2c0-.54.51-.86.49-1.4.08-.35,0-.92.41-1,1.89-2.24,2.57.44,2.7,2.3C36.84,23.29,34.74,23.25,33.92,22.39Zm1.19-3.17c-1.67,1.63-1,.34-2.43-.35a9.83,9.83,0,0,1-2.88.53c-1-.95.64-1.8,1.41-2.19.37,0,.62.43,1,.2.43-.07,1.22-.63,1.49-.14C33.68,18.3,35.26,18.33,35.11,19.22Zm-4-3.31a.47.47,0,0,1-.37-.5c-.27-.36-1.07.18-1.51.16-1-.83,1.52-1.83,1.18-2.77-.33-.77.27-1.23.88-1.56,1.17-.27,2.47-.5,3.13-1.64.21-.43.82.32,1.17-.11.76-.34.8,1.1,1.39,1.25,1.12.29,1.18.66.79,1.71-.58,1.17-1.94.58-2.87.89-.95.59-1.37,1.85-2.55,2.05C31.83,15.35,31.62,16.29,31.12,15.91Zm-2-4.5c.95.27,1,.28.9,1.29-.31,1.05-1.58,1.84-1.46,3.18-.1.47-.56,0-.8-.13-.5-.17-1.05.53-1.54.32s-1-.27-1.46-.6a4.28,4.28,0,0,1,.41-2.68c1.2-.15,1.05-.26,1.45-1.32.3-.4.44.16.64.36C28,12.1,28.35,10.5,29.09,11.41ZM16.9,31.08A2.6,2.6,0,0,0,18,29.64c.55.08,1.22-.23,1.87-.2s-.09.82.19,1.13c.5.9-.52,1.69-.4,2.59C18.89,35.39,14.94,32.46,16.9,31.08Zm-2.72,8.25c.27-.15.67,0,.92-.29s.13.42.32.54c.69,1.43-1.29,3-2.65,2.5-1.2-.31-.39-1.11.29-1.51S13.61,39.58,14.18,39.33ZM8.46,52.94a.63.63,0,0,1,0-.19c1,.42,2.66,1.35,1,2.2-1-.82-2.06,0-3.2,0C6.48,53.52,8.5,54.46,8.46,52.94Zm-1.71,5.5c-.08-.21.17-.44,0-.66-.12-.5,1.31-.09,1-.9-.88-1.23,1.17-1.77,2-1.61s2.45,2,2.4,2.79a.5.5,0,0,1-.85,0,1.13,1.13,0,0,0-1.54.49c-.18.28-.1.92-.46,1a5.65,5.65,0,0,0-2.71.1c-.63.35-1.11,1-1.7.15C5.39,59.38,6.78,59.48,6.75,58.44ZM12.19,57c-3.21-2.76-.64-2.31-2.1-3.76-.38-.53-.94-.54-1.47-.89-.93-.44,0-1.63.81-1.59.37-.22.36-.83.9-.91s.31-1,1-.85a2.1,2.1,0,0,0,.76-.16c.34.45,1,.37,1.25.94.21.35-.28.82-.05,1.22,1.75,1.16.42,1,.88,2.24.68,1.1,2.46.69,2.55,2.18.45.81-.7.56-.83,1.19C14.69,57.24,13.68,55.57,12.19,57Zm4.51-2.8a4.07,4.07,0,0,1-2.07-1c-.59-.4.28-.84,0-1.33-.06-.62-1-.84-.88-1.37.29-.34-.23-.88.07-1.07s.84-.35,1.07.1c.3.69,1.2-.18,1.45.31.36.73,1.5,1,1.47,1.88.05.11.06.29.28.22.85-.06,2.93.21,1.71,1.38C18.69,53.65,17.61,53.29,16.7,54.21ZM29.48,38.53a2.45,2.45,0,0,1-2.77-1.12,5.21,5.21,0,0,0,.59-2.15c.15-1.72,2.58-2.21,2.81-3.64,0-.24,0-.26.26-.19s1.15.12,1.05.48c-.41.38.31.79,0,1.26.05.32.66.1.79.45.57.28.45.77.66,1.24.14.18.52.35.13.46-.42.37-.52,1-1,1.38C31.59,38.53,31.31,38.49,29.48,38.53Zm3.73-4.21c0-1-1.29-1.09-1.51-1.9,0-1.05,1.38-1,1.9-1.67.09-.23.13-.54.43-.59,1-.38.64,2.74.95,3.47C34.93,34.17,33.41,35.41,33.21,34.32ZM35,29.82c-.74,0-1.84-1.86-1.2-2.68.22-.91-.94-1.93-.09-2.77.34-.21.77-1,1.13-.86.11.15.13.14.22,0s.1-.23.22-.06c.79.41,1.65-.31,2.37-.64.19,1.13,1,2.41.75,3.5-.23.46-1,.24-1,.74A6,6,0,0,1,35,29.82Zm6.1-21.49c-.91,1.65-3.07-.15-2-1.46C40,6.12,41.34,7.39,41.05,8.33ZM34,4.32c-.31,1.45-1.95.07-2.87-.09-.56-.9,1-.34,1.42-1.06s1.36-.43,1.94-.29A3.85,3.85,0,0,1,34,4.32Zm-2.67.49c.51.3,1.53.33,1.74.84-.1,1.1-.39,2.16-1.6,2.27-.85-.21-1.88-1.15-2.55-.27a13,13,0,0,1-.17-1.4c-.28-.3-1.54-1.56-.53-1.55C29.4,5.52,30,3.09,30.43,4,30.44,4.48,30.89,4.74,31.31,4.81Zm-3,1.63c.52.4.14,1.86.51,2.51-.28.82-.48,1.92-1.27,2.46-.58-.37-.8-1.5-1.79-1.5-1.71-2.23,1-.09,1.66-1.27A1.77,1.77,0,0,1,28.28,6.44ZM6.43,36.23c.06-1,2.81-1,1.2-2.09,1-.55,1.87-.76,2-2a2.91,2.91,0,0,0,1.73-.41,3.43,3.43,0,0,0,2.58.88c-.27,1.95-.2,4.81-.56,7-1.35,2.61-3.9,1.71-6.16.88C7.31,39.35,6.17,37.65,6.43,36.23ZM3.57,47.64c1,.21,1.48-1.08,2.44-.78,1.83,0,2.31,0,1.74,2-.42.32-.82,1.22-1.42.78-.35-.34-.67-.23-1,0-.47.49-1.25.09-1.67.61s-.89-1-1-1.34.4-.74.44-1.18A3.21,3.21,0,0,1,3.57,47.64Zm-.16,3.91c.39-.3,0-1,.6-1.15,1.16-.23,2.16-.72,3.27-.08.74.57.67,1.1.77,1.92,0,.47.29,1-.19,1.38-2.28,0-1.05,1.86-4,1.44a2,2,0,0,0,0-2.22C3.62,52.48,2.91,52,3.41,51.55Zm-.35,5.58a5.86,5.86,0,0,0,.88-1.7c3-.13,1.61-.21,2,2.15a.86.86,0,0,1,.24,1.21c-.43.49-1.43.11-1.68.84-.09.13-.13.18-.28.1-.65-.36-1-.19-1.26.55C2.6,59.07,1.2,58,3.06,57.13ZM27.64,60a1.27,1.27,0,0,1-.37-2.09c.28-.62-.29-.95-.46-1.46s0-1.13-.34-1.48c-.06,0-.07.08-.13.12.38-1,1.51-1.14,2.48-1.19.5.31.82-.49,1.15.07,1.2,1.52,1,3.89.21,5.58-.45.74-1.46.23-2,.77C27.94,60.45,27.8,60.09,27.64,60Zm7.76-5.27c-1.28,0-1.5-1.47-3.08-.61-.49.1-.85,1.21-1.42.6-.3-1.19-1.64-1.44-1.93-2.64.11-.26,0-1.13-.34-1-.11.07-.12,0-.1-.11.37-.69-.4-1.34-.07-1.92.76-1.34,1-2.36,2.67-1.51-.08.34.21.58.49.73a3.7,3.7,0,0,1,.38,1,2,2,0,0,0,1.67,1.07c.22,0,.48,0,.58.19.82.6,1.38,1.78,2.51,1.22.85,1,0,2.16-.63,3.05C36,54.83,35.51,54.66,35.4,54.72Zm1-16.64c-.82.76-1.81-.46-2.51.07,0,.91-.89.87-1.28,1.38-.36.31-1.46,1.57-1.78,1.11-.56-1-1.16-2,.51-1.83.77,0,.58-1,.83-1.48a12.72,12.72,0,0,1,1.45-2c.44-.24,2-1.78,1.85-.61-.58,1,.71.83.81,1.62C36.49,37.56,37.47,36.89,36.37,38.08Zm3.27-8.14a6,6,0,0,1-2.38-1.78c-.07-.82,1-1,1.4-1.59s1,.91,1.59.49c.36-.53,1.18.62.79.9C40.41,28.38,40.88,30.75,39.64,29.94ZM1.43,43.85C2.35,40.66.61,40.1,3,37.13a6.94,6.94,0,0,1,.67-3.8c.05-.29-.15-.79.18-1a1.83,1.83,0,0,1,.64-1.47c1-1.1.27-3.27,1.42-4.43a2.44,2.44,0,0,0,1.38-2.15c.44-1.08,2-1.7,2.15-2.95,0-1.82,1.21-3.2,1.28-5,0-1,1.22-.72,1.52-1.58.57-.5,1.28-.14,1,.61-.45.41-.42,1-.71,1.41-.54.18-.47.89-1,1.12s-.22,1.05-.41,1.57c.66,1.8.1,3.09-1.39,4.27-.35.5-.67,1-1,1.62s-1.06.81-.69,1.5a4.66,4.66,0,0,0-1.83,3.42c0,.56.43,1.22-.11,1.64-.25.38-.69-.12-.85.29-.19.8-.8,1.63-.65,2.43-.44,2-.81,2,.43,3.91.14.27.13.25-.14.39-1,.57-1.45,1.86-2,2.78-1.26.79-.42,2.25-1,3.4A2.68,2.68,0,0,1,1.43,43.85Zm-.2,11.27c-.94-1.19-.15-2.68-.08-3.94A21.43,21.43,0,0,0,1,48a11.08,11.08,0,0,0,1.39-5.27,4.06,4.06,0,0,0,1.27-1.84c.44-.52.85-2,1.66-1.61.43.73.91-.69,1.24-.33,1.06,2.54-1.08,1.65-2.13,2.75,0,.47.21,1,0,1.44-.31.13-.63-.09-.77.38-.61.74.16,1.59-.29,2.25s-.38,1.72-.83,2.5c-1,1.19,1.46,2.38.45,3.4a5,5,0,0,0-.81,3.49C2.32,55.74,1.35,55.42,1.23,55.12Zm.21,13.55c-2-1.64-.05-2.52.29,0C1.63,68.68,1.51,68.71,1.44,68.67Zm3.94-.22c-.76.38-1.59.23-2.26.74-.37.19-1.1-.36-1-.76-.67-.69-.31-2.33-1.61-1.59a20,20,0,0,0,.5-6.72c.11-1.17-1-2.24,0-3.21.73-1,.79-1.57,1.66-.2.23.52-.87.44-.81,1.13-.36,1.15.42,1.71.81,2.57a13.07,13.07,0,0,0,1,3.61c0,.61-.23,1.29.33,1.74.06.28.36.87.67.73s.39-.16.47,0C5.6,66.8,5.82,68.11,5.38,68.45Zm2.79-.19c-.71.77-1.62,1.28-2.19.09-.11-.78.09-1.81-.65-2.29.45-.64,1.1-1,1.51-1.67.26-.76.66-.91,1.31-.4.87.4,1.39-1.43,2.4-1.36.68-.26,1.45-1.7,1.91-.3.78,1.84-2.07,1.21-2.56,2.14.18,1-1,.42-1.32.84-.47.8-1.11,1.81-.32,2.65C8.4,68.13,8.4,68.12,8.17,68.26Zm5.71.36c-.61.56-1.76-.29-2.55-.3S10.1,68.08,9.44,68c-2,.33-1.16-2.85.33-2.62.62-.09.21-.88.7-1,1.23-.52,3-1.19,2.59.92-.23.81.6,1.19.67,1.92C14,67.74,13.66,68.18,13.88,68.62Zm3.1-.87a3.4,3.4,0,0,1-2.54.5c-.56-.14-.17-1-.48-1.46-.9-.94-.53-2.05-.4-3.09-.5-1.08,1.12-1.16,1.77-.83.46-1.34.77-1.38,2-1a8.6,8.6,0,0,0,1.95-.1c.61,0,.23,1.6.88,2.11.24.42-.56.44-.82.42s-.37.56-.59.8S18,65.5,18,66C18.15,66.88,18.05,67.64,17,67.75Zm3.48.38c-.85,1-1.88-.1-2.75-.21,1.36-.3.05-1.82,1-2.33.79-.86,1.55-1.73,2.12-.09A1.85,1.85,0,0,1,20.46,68.13Zm4.5.49c-1.26,1-2.93.5-4.09-.37.77-.67.6-2,1.86-2,.39.2.33.88.84,1,.65.71,1.29-.28,1.84.54C25.26,68.12,25.23,68.46,25,68.62Zm2.37-1.37c-.15.28-.06.74-.46.83,0,.65-.61,1.71-1.39.78-.1-.53.75-1.23-.05-1.61-.17-.09-.12-.18-.06-.28C25.7,65,27,66,27.33,67.25Zm0-1c-1.68-1.33.31-2.19.75-3.36.13-.45-.35-1.1.11-1.39s.19-.5.3-.77c.29-.49.93-.19,1.37-.36s.41.68.93.56c.66-.3,1.18-1.79,2-.74,1.1.89,1.29,1.78.19,2.79-.3.41.18,1.39-.43,1.56-.72.39-.65,1.52-1.63.26-.89,0-1.31,1.12-1.91,1.7-.26.46-.77-.2-1.13.17C27.58,66.76,27.45,66.35,27.29,66.23Zm5.8-.1c-1,2.41-1.05,1.42-3.14,2.44-.87.29-1.64-.84-2.47-.64.05-.88.74-.86,1.42-.82a18.87,18.87,0,0,0,1.53-1.8c.36-.28.6.61,1,.54.67,0,.87-.51,1.24-.94.16-.15.73-.34.49-.61-.33-1.09.8-1.67.93-2.62C34.89,64.23,34.65,64.17,33.09,66.13Zm3.52-3.78c-.76,1.9-.48,2,1.28,2.63,0,1.92-2.91.91-4.28,1.37.52-1.47,2.06-1.59,1.17-3.71C33.88,60.9,37.51,60.22,36.61,62.35Zm3.25-8.61c-.27.35-.6.69-.88,1s.06.89-.48,1c-.3.17-1,.36-.8.83.47,1.71-.62,4-2.33,4.06-.63-1.28,1.36-3.19.94-4.87.23-1.31,1.43-2.13,1.21-3.66.65-.45,1.75-1,2.19,0C40.74,52.33,39.89,53.09,39.86,53.74Zm2-6.66c-.4,1.48-1.08,3.28-1.5,4.83a2.06,2.06,0,0,0-3-.25c-1.12-1-.87.67-2.49-1.19-.71-.72.86-1.1,1.1-1.61s-.16-1.36.28-1.93c.06-.13-.28-.3,0-.27.85.39,1.43-.5,2.22-.4C39.73,46.75,40.87,46.06,41.84,47.08ZM45,25.33c-.38.68-1.32,1-.86,1.91-.07.31.13.39.27.6a2.19,2.19,0,0,1-.14,1.63c.15,1.38-1.54,1.58-1.74,2.63.36.65-.5,1.15-.08,1.78,1,1.79-.53,2.56-1.48,3.88-.49.48.11.78-.06,1.32a33.07,33.07,0,0,0-.88,4.34c-.2,1.39,1.22,1.27,1,2-.43,1.34-2.21,0-3.13.4-1.68,1-1.91.26-.48-.87.49-.4.19-1.08.65-1.44.54-.56,0-1.43-.08-2.09-.43-.84.12-1.87-.25-2.68.16-.65-.9-.49-.75-.87.34-.11.33-.33.17-.61,1.32,0,1.58-1.61,2.65-2.13-.54-1.26.36-2.25.14-3.37-.22-.47-.28-1.35.46-1.19.69-.35.41-1.69.93-2.24.53-.39.14-1-.18-1.43-.16-.53.45-.77.56-1.22-.22-1,.53-1.67.89-2.56.19-.62.27,1.06,1.7.19.24.5.36,1.14.6,1.5S45.16,25,45,25.33Zm2.68-7.57c-1.33,1.35-.9,3.88-2.59,5.19-.18.26-.52-.16-.85,0-.7.29-1.36-.08-1-.89-.54-1.07,1-1.43,1.31-2.33.8-.86,1.72,0,1.18-1.68.55-.79-.66-1.28-.25-2,.11-.37.47-.54.58-.06C46.72,17.26,47.77,15.33,47.71,17.76ZM52.32,7.14c-.65.82-1.86,1.63-1.25,2.71a5.3,5.3,0,0,0-1,2.6c.14.79-.19,1.51-1.09,1.41-.46,0-.44.48-.48.82,0,.74.46,1.63.08,2.29-.56.62-.51-.26-.53-.59-.32-.69-1.33-.11-1.51-.72s-.94-.51-1.38-.78a3.65,3.65,0,0,0-2.24.91c-.09.74-.73.9-1,1.46-.14,1,.48,1.9.2,2.95-.39,2.87-1.1-1.72-.85-2.51-.79-2.25,3.33-2.62,3.26-4.7,1.28.13,2-1.62,3.16-1.68a.64.64,0,0,0,.76-.37c.37-.51.16-1.55.78-1.77,1.32.4,1-1.33.57-2-.29-.91.57-1.6-.79-2.18a4.8,4.8,0,0,1-1.76-1.22c-.56,0-1.1-.08-1.64,0a23.39,23.39,0,0,1-4.49-.19c-.62-.14-1.36.29-1.92-.16-.39-.16-1.29-.75-1.56-.34-.29.85-.79,1.2-1.12.18-.31-.19-.51.27-.86.14-2.09,0,1.08-1.1,1.12-2,.24-.67.68.12,1.06.14a2.37,2.37,0,0,1,2,1A4.61,4.61,0,0,0,42.3,2,3.86,3.86,0,0,0,45.56,2c.3-.77.94-.35,1.53-.21a5.89,5.89,0,0,0,4.12,1.11c.18,0,0,.28,0,.35-.22.22,0,.45-.08.71-.09.8,1.15,1.32.85,2.13C51.92,6.4,52.65,6.71,52.32,7.14Z"/></g></g></svg>