<svg xmlns="http://www.w3.org/2000/svg" viewBox="0 0 46.21 74.59"><defs><style>.cls-1{fill:#c894ff;}.cls-2{fill:#854bb7;}.cls-3{fill:#491d66;}.cls-4{fill:#ffdeaa;}.cls-5{opacity:0.5;}.cls-6{opacity:0.25;}</style></defs><g id="Layer_2" data-name="Layer 2"><g id="geode-small-4"><path id="fill4" class="cls-1" d="M41.88,74.59c-2-.17-3.84-1.34-5.85-1.69a15.1,15.1,0,0,1-3.51-2.31c-.46-.08-.88.5-1.25,0A20.31,20.31,0,0,0,29.41,69a4.18,4.18,0,0,1-1.77-.1c.17-.71-2.73-2.52-3.35-2.31-2-.76-4-.31-6.07-1-.43.12-.48-.62-.93-.41C15.81,65,14.5,63.82,13,64c-.07-.22.22-.75-.21-.59-.82.13-1.22-.89-1.7-1.39a20.5,20.5,0,0,0-3-1.71c-.94-.54-2.35-.27-3.1-1a.4.4,0,0,0-.28-.39c-.28-.12.2-.46,0-.73C3.34,59.45,2,57,.39,57c-1.14-1.66.57-.85.85-2.25.05-.2.16-.31.37-.28.38-.17-.41-1.91-.83-2.11C.27,51.6.54,50.47.57,49.59c.45-1,1.12-2.44.38-3.45-.7-.58-.16-1.71-.26-2.38a.29.29,0,0,0,0-.43c0-.7,1.08-1.8.31-2.25C.86,41.06.88,41,1,40.9a1.17,1.17,0,0,0-.08-1.48c-.56-.52.21-1,0-1.59-.09-.38,0-.65.42-.69-.71-1,.49-2.44-.16-3.59-.07-.23-.21-.46.15-.59a17.17,17.17,0,0,1-.56-2.89c.31-.69-.86-1.09-.45-1.69.76-2.05-.17-5.4,2.54-6.25.35-.19,1,0,1-.47s.39-.73.11-1.14a.56.56,0,0,1,.09-.73c.39-.35.21-1,.14-1.5C4.62,16.83,6.3,15.68,6,14A9.81,9.81,0,0,1,8.7,9.51c.46-.79,0-1.22-.13-1.94a1.26,1.26,0,0,0-.11-.94c-.27-1.55,1.68-2.71,3-3.14.1,0,.21-.11.09-.27-1.3-1.59,1.6-2,2.33-3.12.69-.58,1.83,1.53,2.86,1.24C18,1.44,18,3.15,18.77,3.91s.3,1.73,1.07,2.24c1.26.55,1.48,2,2.23,3a5,5,0,0,1,1.36,2.68c.4,1.62,1.44,2.95,1.43,4.68,0,.26.35.47.18.73-.37.51.1,1.15-.33,1.62-.65.93.38,2.13.44,3.16.81,1.83-.74,4.44,1.16,5.69.21,1.56,2.16,2.16,2.38,3.68.43.77-1.22,3.28.15,3,1.69-.26,1.41,2,.37,2.67-.23,1.13,1.09,2.35,1.24,3.55-.67,2.38,2.37,3,3.2,4.91,1.8,2.18,1.76,5.16,4.2,6.91.89,1,.4,2.65-.37,3.65-.49.06-.2.4-.43.64s.18.74.35,1c.48.44,0,1.15.25,1.76-.26,2.2,2.76,1.66,3.37,3.25,4.44,5.35-.84,2.19,3.64,7.16.53.53-.13.71-.33,1.13,0,.33-.72.82-.26,1a7.59,7.59,0,0,0,2.12,1.29C46.43,74.71,42.76,74,41.88,74.59Z"/><path id="fill3" class="cls-2" d="M30.3,68.24c-2.29.52-4-1.9-5.74-2.77-.33.11.05-.45,0-.64,1.28.45,2.91,1.45,3.95,1,.09,1,1.11.93,1.81,1.37.36.2.77.52,1.22.39.38.49,1,.16,1.31.65.11.37-1.45-.06-1.64.16C30.94,68.14,30.58,68.48,30.3,68.24ZM17.4,64.37c-.36-.49-.33-1.14-.68-1.64a6.88,6.88,0,0,0-2.88.45c1.05.36,2,.92,3.11,1.19A2.26,2.26,0,0,0,17.4,64.37Zm.44-2.24c-1.23-.49.16,2.14.52,2.66,1.71.78,3.36.43,5.07.87,1.1-.73-.31-1.66-1.21-1.63C20.81,63.32,19.07,63.24,17.84,62.13Zm5-.4a.41.41,0,0,1-.41.4c-.48.11-.73.48-1.21.54.93.51,2,.91,2.95,1.38a8.76,8.76,0,0,0,3.06.94c-1.25-.46-1.65-1.86-2.64-2.66-.43-.41-1.55-.29-1-1.18C23.27,61.4,23,61.5,22.85,61.73Zm2.53-2.68c0,.74-1.39,1.78-.89,2.29,1.29,1.12,2.05,3.1,3.91,3.55-.71-3.88.41-2.78-2.73-6.3Zm-1.05-2c1.13,0,0-1.14,0-1.71,0-.12-.16-.15-.28,0C22.69,56.39,22.17,56.78,24.33,57Zm5.84,3.59c-.11-1.36-.38-2.88-.46-4.3-.71-1.66-3.18-1.84-4.63-3,0,0,0,0,0,0a.26.26,0,0,0-.25.26c-.72,1.14.25,3.13,1,4.12C27.23,58.8,28.2,62.89,30.17,60.62ZM21.4,46.91c-.35.23-.83.09-1.24.14s-.17.62-.46.85c-.22.57.95.27,1.22.15A.83.83,0,0,0,21.4,46.91Zm6.65-.06c-.35.21-.3.93-.73,1.12-3.14,1.3-.86,2.25-1.77,4.07-.57,1.25,2.87,2,3.74,2.61C30,54.4,30.22,53,31,52.48a6.63,6.63,0,0,0,.38-4c-.57-2.23-1-.71-2-1.95-.14-.25-.84-.7-.87-.26A.52.52,0,0,1,28.05,46.85Zm-6,9c2-.63,3.91-4.92,2.14-6.43-.38-.18-2.26-1.38-2.3-.86-.81.08-1.56.7-2.42.45-.29-.05-.33-.05-.45.23-1.92,2.58,1.12,2.28.28,4.73-.13.64-.81,1.64-.14,2a2.51,2.51,0,0,0,1-.49C20.92,54.71,21.43,56.48,22.09,55.83Zm-1.86.5c-.37.4-.93.27-1.43.21a14.64,14.64,0,0,1-2.62,2.32c-.22.27.18.58.14.9.35.57.41,2,1.24,1.86,1.15,0,2.31,1.56,3.41.7.41-.49,1-.5,1.27-1.16.21-.14.2-.6.59-.32.27-.2,1.22-.26,1.44-.68.17-.76,1.7-2.1.4-2.45C23,57.9,21.69,56.08,20.23,56.33ZM9,58.05c.08.23-.2.37,0,.54.57.67-.21,1.31.85,1.71,0,0,.11,0,.16,0-.27-.56.31-.81.57-1.3.93-1.73,1.84-3.44.67-5.27a11.67,11.67,0,0,0-1.34,2.51C9.76,57,9,57.27,9,58.05Zm6.46.39c-1.57-.76-2.77-4-3.63-.65-.44,1-1.44,2.22-1.19,3.3,1,.75,1.67,1.94,3.09,1.41,1-.12,1.89-.67,2.84-.4A9.22,9.22,0,0,1,15.48,58.44Zm.19-.3c1.3.13,2.09-1.56,2.88-2.18a1.16,1.16,0,0,1-.16-1.2c1.53-3.13-2.58-3.66-3.93-5.66-.29.26-.33.8-.71,1a3,3,0,0,0-1.95,2,.33.33,0,0,0,.12.48c.67.51-.29,1.65.62,2.69.12.38.49.06.72.29C14,56.49,14.91,57.17,15.67,58.14Zm-4-7.27c.44-.92,1.47-1.09,2-1.79a4.58,4.58,0,0,0-2-2.75c-.59.26-.73,1.23-1.27,1.58-1.2,1.05-.3,2.58.47,3.6C11.24,52,11.45,51.09,11.65,50.87ZM9.48,44.05c-1.23.5.48,2.73,1.09,2.44.42-.61,1.24-1.34.52-2C10.54,43.34,10.36,42.77,9.48,44.05Zm-.64-5.84a14.46,14.46,0,0,0-.77,1.52,6.78,6.78,0,0,0,2,2.21c.1.57.87.27,1,.8a11.55,11.55,0,0,1,1.36,2.95c.53.17,1.21-.78,1.15-1.22-.21-.3.38-.38.14-.74-.71-1.85-3-2.58-3.58-4.5C11.15,38,9.72,37.9,8.84,38.21Zm6.41,5.12c1.4-.79-1.07-2.53-1.77-1.33C14.13,42.57,14.13,44.24,15.25,43.33Zm1.16-.42s0,0,0,.05c-.4.36-.9.84-1.36,1.3-.44.14-.22.78-.65.86-.66.13-.75,1.06-1.18,1.48a3.15,3.15,0,0,0,1.25,1.67c.29-.17.3.1.4.25.91.6,2.5,3.17,3.12,1.18,1.21-2.32,1.5-2.22-.08-4.46C17,43.93,19.07,42.84,16.41,42.91Zm5,3.23c.49-.57,1.54-1.14,1.39-2-.53-.52-1-1.57-1.91-1.16-.61.32-1.23-.15-1.86-.13-.66.21-.69,1.51-.37,2s.55,1.72,1,1.55C20.13,45.76,20.91,46.56,21.45,46.14Zm3.31-8.9C23.5,39,20.5,41.45,23.09,43.37c1.59,1.09-.39,2.16-.82,3.19.07.65-.06,1.26.71,1.46s1.58,1.12,2.07.73c3.21-2.82,1.88-1.09,2-5-.31-.89.76-1.05.62-2,.28-1.31-.32-2.6-.5-3.85-.68-.43-1.69.05-2.18-.67C24.92,37.08,24.86,37.1,24.76,37.24ZM18.68,42.1c.76-.25,1.39.43,2.11.09.36-.16.88-1,.1-1.06-.8-.46-1.53-.09-2.37-.41C18.73,41.18,17.74,42.46,18.68,42.1Zm-6.58-8c-.07.24-.09,1,.23.94C12.47,34.59,12.88,33.76,12.1,34.06Zm.18-.59c.37-1-.08-2.32-.25-3.37a5.6,5.6,0,0,0,.19,3.39ZM11.13,39c-.05,1,1.16,1.84,1.81,2.5,1-1.58,1.75-.67,3,0,1.48,2.14,2.53-1,1.47-2.21-.51-.91-1.46-1.44-2-2.25s-.95-2.22-1.84-2.76A28.71,28.71,0,0,0,11.13,39Zm5.34-8c-1.24-1.24-1.45.8-1.93,1.67C14,35,16.65,37.24,18.07,39,18.43,36.33,21,30.85,16.47,31Zm5.73,3.26a7.21,7.21,0,0,0-.93,0c-1.69,0-1.72.81-2.08,2.17A23,23,0,0,1,18.52,40a7.09,7.09,0,0,1,3,.46c.23-1.34,1.23-1.74,2-2.73A2.6,2.6,0,0,0,24,34.57a1.85,1.85,0,0,0-1.16-.06C22.56,34.71,22.32,34.5,22.2,34.24Zm.14-3.41c-.27-1.55-2.28-2.3-2.77-3.67,0,2.12.21,4.48.33,6.47.22.49,1.51-.25,2.07-.24C22.64,33.22,22.46,31.42,22.34,30.83Zm-9.12,2.46a1,1,0,0,0,.2.11c.67-.47.49-2,1.24-2.67.65-.87-.19-2.17-.54-3.05-.5,0-.92.95-1.6.55-.76-.13.59,4.35.71,5.05Zm5.62-5.38c-.13-.59.16-2.28-.77-2.07-.86.53-3.22.05-3.44,1,.48.64.41,1.71,1,2.19.29,0,.28.18.28.39s-.2.92.25,1C19.45,30.8,19,31.31,18.84,27.91ZM8.9,31.82C8.6,33,6.75,34.34,7.62,35.6c.38.71.87,2,1.8,1.82,1.19-.26,1.24.74,1.88-.71.62-1.13,0-2.75,0-4,0-1.62.69-3.5.05-5-.49-.11-2.3,1.7-2.19,2.52C9.2,31.36,9.78,30.7,8.9,31.82Zm4.75-6c0-.3-.26-.19-.43-.3a7.15,7.15,0,0,0-3.29-.92C8.86,26,9,26.83,10.8,27.23c.36-.74,1.25-.23,1.39.37.63,0,2.35-.88,1.65-1.56C13.76,26,13.65,25.91,13.65,25.84Zm-.49-2.19c-.14.48-.76.9,0,1.13s.73-1.21.51-1.61C13.54,23.34,13.18,23.29,13.16,23.65Zm-2.49.16c.81,2.07,1.88-.68,2.52-1.44.13-.4.57-.38.65-.81s1.09-1.47.36-1.7C11,18,12.31,21.26,10.3,21.58,9.81,21.9,10.69,23.18,10.67,23.81Zm.93-6.59c.17.45.09.88.43,1.27.09.16,0,.39.23.37.56-.22,1.75.68,2,.15.1-.29.61-.09.52-.58.35-2.81.5-5.06-2.43-2C12.12,16.7,11.49,16.87,11.6,17.22ZM15.4,20a5.35,5.35,0,0,0-1,4.21c.13.41-.5,1.31.23,1.35A7,7,0,0,0,18.13,25c.78-.66.05-1.87,0-2.71C18.1,21.07,16.45,19.73,15.4,20Z"/><path id="fill2" class="cls-3" d="M20.92,48.05c-.27.12-1.44.42-1.22-.15.29-.23,0-.85.46-.85s.89.09,1.24-.14A.83.83,0,0,1,20.92,48.05Zm-5.67-4.72c1.4-.79-1.07-2.53-1.77-1.33C14.13,42.57,14.13,44.24,15.25,43.33Zm5.54-1.14c.36-.16.88-1,.1-1.06-.8-.46-1.53-.09-2.37-.41.21.46-.78,1.74.16,1.38C19.44,41.85,20.07,42.53,20.79,42.19Zm-7.6-17.41c.69.35.73-1.21.51-1.61-.16.17-.52.12-.54.48S12.4,24.55,13.19,24.78Zm0,8.51a1,1,0,0,0,.2.11c.67-.47.49-2,1.24-2.67.65-.87-.19-2.17-.54-3.05-.5,0-.92.95-1.6.55-.76-.13.59,4.35.71,5.05ZM16.47,31c-1.24-1.24-1.45.8-1.93,1.67C14,35,16.65,37.24,18.07,39,18.43,36.33,21,30.85,16.47,31Zm-5.34,8c-.05,1,1.16,1.84,1.81,2.5,1-1.58,1.75-.67,3,0,1.48,2.14,2.53-1,1.47-2.21-.51-.91-1.46-1.44-2-2.25s-.95-2.22-1.84-2.76A28.71,28.71,0,0,0,11.13,39Zm10.32,7.12c.49-.57,1.54-1.14,1.39-2-.53-.52-1-1.57-1.91-1.16-.61.32-1.23-.15-1.86-.13-.66.21-.69,1.51-.37,2s.55,1.72,1,1.55C20.13,45.76,20.91,46.56,21.45,46.14Zm-5-3.23s0,0,0,.05c-.4.36-.9.84-1.36,1.3-.44.14-.22.78-.65.86-.66.13-.75,1.06-1.18,1.48a3.15,3.15,0,0,0,1.25,1.67c.29-.17.3.1.4.25.91.6,2.5,3.17,3.12,1.18,1.21-2.32,1.5-2.22-.08-4.46C17,43.93,19.07,42.84,16.41,42.91Zm5.68,12.92c2-.63,3.91-4.92,2.14-6.43-.38-.18-2.26-1.38-2.3-.86-.81.08-1.56.7-2.42.45-.29-.05-.33-.05-.45.23-1.92,2.58,1.12,2.28.28,4.73-.13.64-.81,1.64-.14,2a2.51,2.51,0,0,0,1-.49C20.92,54.71,21.43,56.48,22.09,55.83Zm-8.83-.31c.75,1,1.65,1.65,2.41,2.62,1.3.13,2.09-1.56,2.88-2.18a1.16,1.16,0,0,1-.16-1.2c1.53-3.13-2.58-3.66-3.93-5.66-.29.26-.33.8-.71,1a3,3,0,0,0-1.95,2,.33.33,0,0,0,.12.48c.67.51-.29,1.65.62,2.69C12.66,55.61,13,55.29,13.26,55.52Zm4.58,6.61c-1.23-.49.16,2.14.52,2.66,1.71.78,3.36.43,5.07.87,1.1-.73-.31-1.66-1.21-1.63C20.81,63.32,19.07,63.24,17.84,62.13Zm5-.4a.41.41,0,0,1-.41.4c-.48.11-.73.48-1.21.54.93.51,2,.91,2.95,1.38a8.76,8.76,0,0,0,3.06.94c-1.25-.46-1.65-1.86-2.64-2.66-.43-.41-1.55-.29-1-1.18C23.27,61.4,23,61.5,22.85,61.73Zm-2.62-5.4c-.37.4-.93.27-1.43.21a14.64,14.64,0,0,1-2.62,2.32c-.22.27.18.58.14.9.35.57.41,2,1.24,1.86,1.15,0,2.31,1.56,3.41.7.41-.49,1-.5,1.27-1.16.21-.14.2-.6.59-.32.27-.2,1.22-.26,1.44-.68.17-.76,1.7-2.1.4-2.45C23,57.9,21.69,56.08,20.23,56.33Z"/><path id="fill1" class="cls-4" d="M45,73.5c-.69.09-1.63.3-2,.36-2.46.73-2.08-.83-3.3-2.08-.4-.73-1.73-.1-1.84-1,0-.47-.76-.06-.8-.64s-.72-.32-.88-.79c-.42-.87-1.78-.37-2.17-1.28,1.19-2.74,3-.86.84-4.37-.21-.41.51-.42.73-.6.61-.57.17-1.83.21-2.62,0-1.58-3.8-2.07-2.33-4,.53-2.54-1.19-.93-1.46-4.18-.33-.81.35-1.54.2-2.3A2.58,2.58,0,0,1,32,48.59c.27-.37-.44-.49-.38-.93-.1-1-.56-1.46-1.56-1-.49-.12-.24-1.19-.89-1-.43.07-1.1-.36-1.22.32-.51-.53-.27-1.25-.21-1.89a1,1,0,0,1,.39-1.36c.82-1.82-.34-3.5-.26-5.34-5.78,0-.44-4-5.08-3.34.21-.58-.12-.87.23-1.45A18,18,0,0,0,23,30.47c1.44-1.53.75-1.31.92-3,.07-.55-.83-.36-1-.84,1.68-1.33-.62-4-.91-5.74-.46-.71-.79-1-.82-1.83-.45-.76-.19-.54,0-1.12a13.87,13.87,0,0,1-.37-2.17c-.27-.85-1.15-1.29-1.52-2.13,0-.47-.32-.69-.67-1-.7-2.23-.09-2.5-2-4.69-.59-.66-1.69-.39-2.22-1.28-.37-.32-1.6-1.53-1.4-.35.14.19.3.36.1.59.15.26,0,.34-.22.41-.74.32-.28,1.36-.4,2-.06.85-1.24.05-1.14,1.61,0,.14-.07.14-.18.14a1.75,1.75,0,0,0-1.64,1.12c-.24.06-.57,0-.79.19.07.76-1.56,2.54-.51,2.69,1.19,1-1.27,2.52-.1,3.56.3.6,1.24.56,1.53,1.08-.37,1.07-1.74,1.13-2.5,1.83-1.59,1.13-1,2-1.3,3.58-.5,2.39-2.2.76-2.11,4-.42,1,1.5.82,1.09,2.15a18.51,18.51,0,0,1-.28,3.44c.19.48.44,1.12,0,1.58-.7.87,1,1.78.7,2.65-.35,3-2.88,2.74-2.42,4.13-.09.41.4.61.41,1a8.83,8.83,0,0,0,.46,1.54c.42.46.15,1.06.41,1.51.06.7-.48,1.2-.57,1.75.44.69-.06,1.51.28,2.18.29,1.44,1.16,2.65,1.58,4,.25.24-.16.4-.17.6a3.87,3.87,0,0,1,.23,1.63c-.08.65-.71,0-1,.4-1.36.77-1-1.54-1.66-2-.92-.15-.37-1.45-.69-2.13a1.92,1.92,0,0,0-.77-1.37c-.53-.86-.15-1.94-.09-2.84.14-.37.66-.67.61-1.11a3.62,3.62,0,0,1,0-1.73c.1-.7-1-.53-.63-1.55.1-1.08-.14-2.14.6-3,.3-.56-.48-1-.17-1.57a3.84,3.84,0,0,1,.17-3.1c.19-.13.58-.61.14-.73-1,0,.36-1.37,0-1.93a2.58,2.58,0,0,1,0-1.69c0-1.1-.65-2.27-.53-3.3-.09-.23,0-.51-.21-.72s-.51-.3-.12-.59a6.44,6.44,0,0,0,.18-1.74c.47-2.7-.2-3.28,2.92-4,.12-.7,1-1,.63-1.71-.12-.17-.3-.39-.16-.64.47-1.11.08-2.37,1.14-3.24,2-3.48-.49-2.72,3.55-7.19,0-.61.56-1.31,0-1.8a1.12,1.12,0,0,1-.16-.85c.15-.66-.54-.71.16-1.37.31-.48.88-.6,1.13-1.06.56-.58,2.63-.77,1.44-1.89-.35-.31-.11-.59.27-.64,1.06-.48,1.75-1.91,2.88-.6A1.86,1.86,0,0,0,16.65,2c1.07.27.81,1.62,1.6,2.2a2.34,2.34,0,0,1,.52,1.53c0,1,1.42,1,1.72,1.93.65,1.66,2.13,2.73,2.48,4.47.76,2.19,2.2,4.66.88,6.87,0,1.42.82,2.58,1,4,.1,1.17-.23,2.38-.07,3.54.22,2,2.69,3.07,3.24,5,.43.84-1.2,3.68,0,3.68.45-.07,1.32-.66,1.34.14.05,2.19-2.08.43,0,4.1a2.87,2.87,0,0,0,.59,1.23c-.19.24,0,.54-.16.81-.32.67.46,1.83,1.21,1.92a1.77,1.77,0,0,1,.7.55,15.52,15.52,0,0,1,2.55,3.59c.8,1.62.43,2.62,2.06,3.94.35.93,1.6,1.34,1.48,2.37a3.25,3.25,0,0,1-1.09,1.89.73.73,0,0,0-.44.71c0,.79.57,1.38.79,2.11s-.34,1.9.34,2.42c.8.85,2.2.95,2.9,1.76.44,1.15,1.88,1.74,2,3-.89,2.67.51,2,1.66,4.24C43.21,72.9,41.52,71,45,73.5Z"/><path id="void" class="cls-5" d="M13.5,34.32c.89.54,1.37,1.82,1.84,2.76s1.52,1.34,2,2.25c1.06,1.23,0,4.35-1.47,2.21-1.21-.69-2-1.6-3,0-.65-.66-1.86-1.53-1.81-2.5A28.71,28.71,0,0,1,13.5,34.32Zm9.49-5c.24-.16.42-.21.36-.54.59-1.14-2.2-2.29-.68-2.79.58-.18.07-1,.1-1.4s-.39-.77-.41-1.23c-.44.35-.68.82-1.12,1.21,0,1.1-1,2.46-.18,3.37C21.46,28.17,22.72,30,23,29.31ZM4,44.6c-.27.93.31,1.44.92.52.45-.4.41-1.25.45-1.83C5,43.75,4.34,44,4,44.6Zm2.42-1.45c-.71-.23-.33.93-.53,1.3.06.46,1.48.12,2,.28C8.84,44.55,6.72,43.48,6.45,43.15Zm27.22,21a21.28,21.28,0,0,1-3.3-.14c-.46.14-1.48-.67-1.56.11.16,2.32,2.57,3.15,4.68,3.22.19-.71,1.53-1.18,1.34-1.89C34.51,65,34.45,63.89,33.67,64.18ZM7.86,56.56A11,11,0,0,1,6,55.23c-.09.9.63,2.52-.44,3,.13.11.32.08.48.12C7.62,59,9.22,58.13,7.86,56.56Zm3.79-5.69c.44-.92,1.47-1.09,2-1.79a4.58,4.58,0,0,0-2-2.75c-.59.26-.73,1.23-1.27,1.58-1.2,1.05-.3,2.58.47,3.6C11.24,52,11.45,51.09,11.65,50.87Zm8.58,5.46c-.37.4-.93.27-1.43.21a14.64,14.64,0,0,1-2.62,2.32c-.22.27.18.58.14.9.35.57.41,2,1.24,1.86,1.15,0,2.31,1.56,3.41.7.41-.49,1-.5,1.27-1.16.21-.14.2-.6.59-.32.27-.2,1.22-.26,1.44-.68.17-.76,1.7-2.1.4-2.45C23,57.9,21.69,56.08,20.23,56.33Zm7.82-9.48c-.35.21-.3.93-.73,1.12-3.14,1.3-.86,2.25-1.77,4.07-.57,1.25,2.87,2,3.74,2.61C30,54.4,30.22,53,31,52.48a6.63,6.63,0,0,0,.38-4c-.57-2.23-1-.71-2-1.95-.14-.25-.84-.7-.87-.26A.52.52,0,0,1,28.05,46.85ZM22.2,34.24a7.21,7.21,0,0,0-.93,0c-1.69,0-1.72.81-2.08,2.17A23,23,0,0,1,18.52,40a7.09,7.09,0,0,1,3,.46c.23-1.34,1.23-1.74,2-2.73A2.6,2.6,0,0,0,24,34.57a1.85,1.85,0,0,0-1.16-.06C22.56,34.71,22.32,34.5,22.2,34.24ZM8.9,31.82C8.6,33,6.75,34.34,7.62,35.6c.38.71.87,2,1.8,1.82,1.19-.26,1.24.74,1.88-.71.62-1.13,0-2.75,0-4,0-1.62.69-3.5.05-5-.49-.11-2.3,1.7-2.19,2.52C9.2,31.36,9.78,30.7,8.9,31.82ZM10.06,28c.06,0,.14-.06,0-.14-.52-.46-1.43-.72-1.65-1.37,0-2.18,2.57-2.49,1-4.74-.19-.32.3-.55.37-.81a.37.37,0,0,0-.15,0c-.95.84-3.16,1.18-2.89,2.76.21.4-.16,1-.23,1.37,0,.59-.79,1.43-.2,1.85A20.06,20.06,0,0,0,8.9,29.51C8.78,28.9,9.69,28.43,10.06,28ZM15.4,20a5.35,5.35,0,0,0-1,4.21c.13.41-.5,1.31.23,1.35A7,7,0,0,0,18.13,25c.78-.66.05-1.87,0-2.71C18.1,21.07,16.45,19.73,15.4,20Zm-3.63-3.89c3.56-2.57,3-3,1.06-6.53-.07.69-1.09.68-1,1.5,0,.19-.13.27-.24.35-.64.33-1.71.19-1.8,1.18-.14.7-.68.12-.93,1.15,0,.36-.43.56-.13.84.92.66.37,1.18.2,2,0,.7-1,1.14-.52,1.78.32.41,1.37.83,1.61.19C11.3,17.74,10.18,17,11.77,16.14Z"/><path id="void-2" data-name="void" class="cls-6" d="M11.09,44.45c.72.7-.1,1.43-.52,2-.61.29-2.32-1.94-1.09-2.44C10.36,42.77,10.54,43.34,11.09,44.45Zm7-18.61c-.86.53-3.22.05-3.44,1,.48.64.41,1.71,1,2.19.29,0,.28.18.28.39s-.2.92.25,1c3.32.42,2.86.93,2.71-2.47C18.71,27.32,19,25.63,18.07,25.84ZM34.14,69c-.13-.07-.27-.14-.36-.06-.36.28-.8,0-1.21,0-4.22-.29,0,1.33,1.59,1.46a8.48,8.48,0,0,0,2.25.23A4,4,0,0,0,34.14,69Zm.91-7.56c-.13-.21.08-.63,0-.89s-.67-1.24-1-.86c-.61,1.47-2.28,1.69-3.62,1.08-.53.67-1.9,1.86-1.38,2.2,1.83.68,4.26,1.09,5.66-.3.43-.09.23-.49.41-.69C34.85,61.83,35.18,61.64,35.05,61.44Zm-11.41-.29c-.37.25-.67.35-.79.58a.41.41,0,0,1-.41.4c-.48.11-.73.48-1.21.54.93.51,2,.91,2.95,1.38a8.76,8.76,0,0,0,3.06.94c-1.25-.46-1.65-1.86-2.64-2.66C24.17,61.92,23.05,62,23.64,61.15Zm-5.25-6.39c1.53-3.13-2.58-3.66-3.93-5.66-.29.26-.33.8-.71,1a3,3,0,0,0-1.95,2,.33.33,0,0,0,.12.48c.67.51-.29,1.65.62,2.69.12.38.49.06.72.29.75,1,1.65,1.65,2.41,2.62,1.3.13,2.09-1.56,2.88-2.18A1.16,1.16,0,0,1,18.39,54.76ZM20.93,43c-.61.32-1.23-.15-1.86-.13-.66.21-.69,1.51-.37,2s.55,1.72,1,1.55c.44-.65,1.22.15,1.76-.27s1.54-1.14,1.39-2C22.31,43.63,21.82,42.58,20.93,43ZM20.48,17.6a2.89,2.89,0,0,0-.55-2.24c-1.38-2.23-1.48-2.58-2.74.05-.33,1.05-1.46-.19-2,.11.77,3.95-2.17,3.26,3.8,4.63,1.84,0,1.8.13,1.35-1.66C20.31,18.19,20.22,17.88,20.48,17.6Zm-8.17-1.15c-.19.25-.82.42-.71.77s.09.88.43,1.27c.09.16,0,.39.23.37.56-.22,1.75.68,2,.15.1-.29.61-.09.52-.58C15.09,15.62,15.24,13.37,12.31,16.45ZM5.49,29.78c-.35.16-.41.31-.2.6.43.45,0,1.07,0,1.6-.23,2.74,1.54,2.93,2.5.47,1.54-1.8-.3-3-1.47-4.27C6.2,28.79,6.09,29.49,5.49,29.78Z"/><path id="fill0" d="M46.19,73.35a7.18,7.18,0,0,1-2.12-1.3c-.46-.2.22-.69.26-1,.2-.42.85-.6.33-1.12-4.49-5,.8-1.82-3.64-7.17-.61-1.59-3.63-1.05-3.37-3.26-.23-.6.24-1.32-.25-1.75-.17-.27-.44-.71-.35-1s0-.58.43-.64c.77-1,1.26-2.6.37-3.65-2.44-1.75-2.4-4.73-4.2-6.91-.84-1.94-3.87-2.53-3.2-4.91-.15-1.2-1.47-2.42-1.24-3.55,1-.68,1.32-2.93-.37-2.67-1.37.26.28-2.25-.15-3-.22-1.52-2.17-2.12-2.38-3.68-1.9-1.26-.35-3.86-1.16-5.69-.06-1-1.09-2.23-.44-3.16.43-.47,0-1.11.33-1.63.17-.25-.2-.46-.18-.72,0-1.73-1-3.06-1.42-4.68a5.12,5.12,0,0,0-1.37-2.68c-.76-1-1-2.43-2.22-3-.78-.52-.44-1.55-1.08-2.26S18,1.44,16.71,1.34c-1,.29-2.17-1.82-2.86-1.24-.73,1.09-3.63,1.53-2.33,3.12.12.17,0,.22-.1.27-1.28.43-3.23,1.59-3,3.14a1.26,1.26,0,0,1,.11.94c.1.72.59,1.15.13,1.94A9.81,9.81,0,0,0,6,14c.28,1.71-1.4,2.86-1.78,4.32.07.47.25,1.15-.15,1.49a.58.58,0,0,0-.08.74c.28.41,0,.74-.11,1.14s-.7.28-1,.47C.15,23,1.08,26.33.31,28.38c-.4.59.77,1,.46,1.69A17.49,17.49,0,0,0,1.33,33c-.35.12-.22.35-.15.58.66,1.15-.55,2.64.16,3.59-.43,0-.51.31-.42.69.17.58-.6,1.07,0,1.59A1.17,1.17,0,0,1,1,40.9c-.08.11-.1.15.06.19.77.44-.36,1.54-.31,2.25a.28.28,0,0,1,0,.42c.1.67-.44,1.81.26,2.38.73,1,.07,2.41-.38,3.45,0,.88-.31,2,.21,2.75.42.2,1.21,1.94.83,2.1a.33.33,0,0,0-.37.29C1,56.13-.75,55.32.39,57,2,57,3.33,59.45,4.76,58.15c.15.27-.33.61,0,.73a.4.4,0,0,1,.27.39c.75.76,2.16.49,3.1,1a20.5,20.5,0,0,1,3,1.71c.47.5.88,1.52,1.7,1.4.43-.17.14.36.21.58,1.52-.17,2.83,1,4.32,1.18.44-.21.48.53.92.41,2.07.66,4.07.2,6.07,1,.62-.2,3.51,1.61,3.35,2.32a4.18,4.18,0,0,0,1.77.1,20.31,20.31,0,0,1,1.86,1.61c.37.52.79-.06,1.25,0A15.47,15.47,0,0,0,36,72.91c2,.34,3.88,1.51,5.85,1.68C42.76,74.05,46.43,74.71,46.19,73.35ZM2.59,57.14c-.28-.19-1.73-.6-1.36-.92.4-.5.44-.55,1-.13C2.67,56.11,3.07,57.09,2.59,57.14ZM6,58.33c-.16,0-.35,0-.48-.12,1.07-.46.35-2.08.44-3a10.51,10.51,0,0,0,1.88,1.33C9.22,58.12,7.62,59,6,58.33ZM4.64,47.53c-.21-2.11,3.09-3,4.15-1.44,1.22,1,.89,1.11.57,2.51C8,51,12.51,51.72,10.15,54.5c-1.26,2.07-.31,2.59-2.65,1A6.87,6.87,0,0,1,4.64,47.53ZM6.1,42c-.78-.17-2,2.71-2.88,1.26-.29-1,1.89-1.11,1.88-2.16a6.82,6.82,0,0,1,.74-1.68c.52-1.19-1.24-2.24-.63-3a2,2,0,0,0,0-1.75c.36.06,1,.09,1,.54,0,.2.07.24.26.17.66.41,1,1.6,1.53,2.29.28.85-.75,1.33-.71,2.12a6.39,6.39,0,0,0,1.07,1.55c.33.42,1.57.88,1.3,1.42C8.4,44.66,7.46,42.7,6.1,42ZM4.94,45.12c-.6.93-1.18.42-.91-.52.31-.61.93-.85,1.37-1.31C5.36,43.87,5.4,44.72,4.94,45.12ZM9,16.61c.17-.8.72-1.32-.2-2-.29-.29.16-.49.12-.86.26-1,.8-.44.94-1.14.09-1,1.16-.84,1.8-1.18.11-.08.26-.16.24-.35-.13-.82.89-.81,1-1.5,1.9,3.57,2.5,4-1.06,6.53-1.59.88-.47,1.6-1.71,2.44-.24.64-1.28.22-1.61-.19C7.94,17.75,9,17.31,9,16.61ZM13.7,7.47a.46.46,0,0,1,.9,0c.82.69,2,.85,2.53,2a3.91,3.91,0,0,1-.39,5.24c-.19.42-.49.27-.86.24-1.41-.17-.46-1.86-.91-2.66-.63-1.31-1.3-2.72-2-4C12.38,7.74,13.73,8,13.7,7.47Zm3.48,7.94c1.27-2.64,1.37-2.28,2.76-.05a3,3,0,0,1,.54,2.24c-.26.28-.17.58-.11.89.45,1.79.49,1.64-1.35,1.66-6-1.36-3-.68-3.8-4.63C15.73,15.22,16.86,16.46,17.18,15.41Zm5.59,9.17c0,.41.48,1.22-.1,1.4-1.52.51,1.27,1.65.68,2.79.06.33-.12.38-.35.54-.28.71-1.54-1.14-1.94-1.38-.85-.91.22-2.27.18-3.37.43-.39.68-.86,1.12-1.21C22.38,23.8,22.75,24.13,22.77,24.58ZM27.7,41.75c.14,1-.93,1.13-.62,2-.15,3.9,1.18,2.17-2,5-.48.39-1.43-.63-2.07-.73s-.65-.81-.72-1.46c.44-1,2.42-2.1.83-3.19-2.59-1.92.41-4.38,1.67-6.13.1-.14.16-.16.25,0,.5.73,1.51.24,2.19.68C27.38,39.15,28,40.44,27.7,41.75ZM27.32,48c.43-.19.38-.91.73-1.12a.52.52,0,0,0,.42-.62c0-.44.73,0,.87.26,1,1.24,1.43-.28,2,2a6.61,6.61,0,0,1-.37,4c-.74.5-1,1.92-1.67,2.17-.87-.58-4.31-1.36-3.74-2.61C26.46,50.22,24.18,49.27,27.32,48Zm2.39,8.35c.08,1.42.35,2.93.46,4.3-2,2.27-2.94-1.82-4.39-2.84h0c-.72-1-1.69-3-1-4.12a.26.26,0,0,1,.25-.26s0,0,0,0C26.53,54.48,29,54.66,29.71,56.32Zm2.77,1c-.49,2,2.23,1.42.53,2.69-2.07,1.28-2.44-.3-2.44-2.11C30,56.2,30,54.24,31.39,53,32.7,57,33.15,53.69,32.48,57.28Zm2.2,5.39c-1.4,1.39-3.83,1-5.66.3-.52-.34.85-1.53,1.38-2.2A2.57,2.57,0,0,0,34,59.69c.37-.38.87.55,1,.86s-.12.68,0,.89-.2.39,0,.53C34.91,62.18,35.11,62.58,34.68,62.67Zm-1.19,4.7c-2.11-.07-4.52-.9-4.67-3.22.07-.79,1.09,0,1.55-.11a22.6,22.6,0,0,0,3.3.14c.78-.29.84.83,1.17,1.3C35,66.19,33.68,66.66,33.49,67.37Zm-8.11-8.32c.09-.15.19-.3.29-.45,3.14,3.51,2,2.41,2.73,6.29-1.86-.46-2.61-2.43-3.91-3.55C24,60.83,25.36,59.79,25.38,59.05Zm-1.12,1.11c-.21.42-1.16.48-1.43.68-.39-.28-.38.18-.58.32-.29.66-.87.66-1.27,1.16-1.11.86-2.27-.75-3.42-.7-.83.16-.89-1.29-1.24-1.86.05-.31-.36-.63-.14-.9a14.64,14.64,0,0,0,2.62-2.32c.5.06,1.06.19,1.43-.21,1.47-.25,2.77,1.57,4.44,1.38C26,58.06,24.44,59.4,24.26,60.16ZM19.34,54c.84-2.45-2.21-2.15-.28-4.73.12-.28.16-.28.45-.23.86.25,1.61-.37,2.42-.45,0-.52,1.92.69,2.3.86,1.77,1.51-.15,5.8-2.14,6.43-.66.65-1.17-1.12-1.88-.33a2.51,2.51,0,0,1-1,.49C18.53,55.59,19.21,54.59,19.34,54Zm.35-7.54c-.44.17-.61-1.21-1-1.55s-.29-1.79.37-2c.63,0,1.25.45,1.86.13.88-.41,1.38.65,1.91,1.16.14.85-.9,1.42-1.39,2S20.13,45.76,19.69,46.41ZM18,49.7c-.62,2-2.22-.58-3.12-1.18-.1-.15-.11-.42-.4-.25a3.22,3.22,0,0,1-1.26-1.67c.44-.42.53-1.35,1.19-1.48.43-.07.21-.73.65-.86.46-.45.95-.94,1.36-1.3,0,0,0,0,0-.05,2.66-.08.59,1,1.52,2.33C19.51,47.48,19.22,47.38,18,49.7ZM9.48,44.05c.88-1.28,1.06-.7,1.61.4.72.7-.1,1.43-.52,2C10,46.78,8.25,44.55,9.48,44.05Zm1.58-1.31c-.09-.53-.86-.23-1-.8a7,7,0,0,1-2-2.2,13.69,13.69,0,0,1,.77-1.53c.88-.31,2.31-.2,1.29,1,.59,1.92,2.87,2.65,3.58,4.5.24.37-.35.44-.14.74.06.44-.63,1.39-1.15,1.22A11.55,11.55,0,0,0,11.06,42.74ZM8.9,31.82c.88-1.12.3-.46.22-1.51-.11-.83,1.7-2.64,2.19-2.53.64,1.46,0,3.34-.05,5,0,1.22.66,2.83,0,4-.65,1.45-.69.45-1.88.71-.93.14-1.42-1.11-1.8-1.82C6.75,34.34,8.6,33,8.9,31.82Zm1.47-12c-.27-.5.36-1.08.75-1.22.46.24,0,.67.17,1-.23.51-.51,1.59-1.28,1.27,0,0-.14-.1,0-.18S10.56,20.14,10.37,19.77Zm4.37-1.34c.09.49-.42.29-.52.58-.22.53-1.4-.37-2-.15-.27,0-.14-.21-.23-.37-.34-.39-.26-.82-.43-1.27s.52-.51.71-.77C15.23,13.37,15.09,15.62,14.74,18.43ZM10.3,21.57c2-.31.68-3.53,3.9-1.71.73.22-.28,1.2-.36,1.7s-.52.41-.65.81c-.64.76-1.71,3.51-2.52,1.44C10.69,23.18,9.81,21.89,10.3,21.57Zm-.37,3.05a7.08,7.08,0,0,1,3.28.92c.18.11.48,0,.44.3,0,.07.11.18.19.2.69.68-1,1.62-1.65,1.56-.14-.6-1-1.11-1.39-.37C9,26.83,8.86,26,9.93,24.62Zm3.23-1c0-.36.38-.31.55-.48.22.4.17,2-.52,1.6S13,24.13,13.16,23.65Zm5-1.35c.05.84.78,2.05,0,2.71a7,7,0,0,1-3.45.58c-.73,0-.1-.93-.23-1.35a5.36,5.36,0,0,1,1-4.21C16.45,19.73,18.1,21.07,18.13,22.3Zm.71,5.61c.15,3.4.61,2.88-2.71,2.47-.44-.05-.17-.66-.26-1s0-.37-.27-.38c-.56-.49-.5-1.56-1-2.2.22-.94,2.58-.47,3.44-1C19,25.63,18.71,27.32,18.84,27.91ZM18.07,39c-1.42-1.76-4.06-4-3.53-6.34.48-.88.69-2.91,1.92-1.68C21,30.85,18.43,36.33,18.07,39ZM15.9,41.54c-1.21-.69-2-1.6-3,0-.66-.66-1.86-1.53-1.81-2.5a28.33,28.33,0,0,1,2.37-4.7c.89.54,1.37,1.82,1.84,2.76s1.52,1.34,2,2.25C18.44,40.56,17.38,43.68,15.9,41.54Zm-.65,1.79c-1.12.91-1.12-.77-1.78-1.32C14.18,40.8,16.65,42.55,15.25,43.33ZM13.43,33.4a.84.84,0,0,1-.21-.11h0c-.12-.7-1.47-5.18-.71-5.05.68.4,1.1-.51,1.6-.55.36.88,1.19,2.19.54,3.05C13.9,31.41,14.09,32.93,13.43,33.4ZM12.33,35c-.32.11-.3-.7-.23-.94C12.88,33.76,12.47,34.59,12.33,35Zm-.05-1.54s0,0-.06,0A5.6,5.6,0,0,1,12,30.1C12.2,31.15,12.65,32.47,12.28,33.46ZM10.43,47.91c.55-.35.69-1.32,1.28-1.59a4.69,4.69,0,0,1,2,2.76c-.59.7-1.62.87-2.06,1.79-.2.22-.41,1.17-.73.64C10.14,50.49,9.24,49,10.43,47.91ZM20.9,41.13c.77,0,.25.9-.11,1.06-.72.34-1.35-.34-2.11-.09-.94.36.05-.92-.16-1.37C19.36,41,20.09,40.67,20.9,41.13Zm-.74,5.92c.41,0,.89.09,1.24-.14a.83.83,0,0,1-.47,1.14c-.28.13-1.46.42-1.23-.15C20,47.67,19.72,47,20.16,47.05ZM24,55.27c.11-.1.26-.07.27,0,0,.57,1.16,1.68,0,1.7C22.17,56.78,22.69,56.39,24,55.27Zm-.52-17.51c-.73,1-1.72,1.39-2,2.73a6.94,6.94,0,0,0-3-.46,23,23,0,0,0,.67-3.62c.36-1.36.38-2.19,2.08-2.17a7.21,7.21,0,0,1,.93,0c.12.26.36.48.67.27a1.85,1.85,0,0,1,1.18.06A2.62,2.62,0,0,1,23.51,37.76ZM22,33.4c-.56,0-1.85.72-2.07.23-.12-2-.36-4.35-.33-6.47.49,1.37,2.5,2.12,2.77,3.67C22.46,31.42,22.64,33.22,22,33.4ZM21.7,23.1c-2.52,1.5-.51,1-1.62,3.25a7.06,7.06,0,0,1-1.21-3.64c0-.47-.6-1.68-.08-1.82,2.15.13,2.57-.54,3.33,1.82A3.54,3.54,0,0,0,21.7,23.1ZM9.58,21a.37.37,0,0,1,.15,0c-.07.26-.56.49-.37.81,1.6,2.25-.91,2.56-1,4.74.23.65,1.14.91,1.66,1.37.16.08.08.1,0,.14-.37.46-1.28.93-1.16,1.53a20.06,20.06,0,0,1-2.64-2.57c-.59-.43.17-1.26.2-1.85.07-.42.43-1,.23-1.37C6.42,22.14,8.63,21.8,9.58,21ZM5.17,27.21c.18-.1.32.5.5.62h0a1.86,1.86,0,0,1,.5.22,2.56,2.56,0,0,1-1.95,1.4A2,2,0,0,1,5.17,27.21Zm.32,2.57c.6-.29.71-1,.86-1.59,1.17,1.28,3,2.46,1.47,4.27-1,2.45-2.73,2.26-2.5-.48,0-.53.4-1.15,0-1.6C5.08,30.09,5.14,29.94,5.49,29.78Zm1,13.37c.27.33,2.39,1.4,1.46,1.58-.51-.16-1.93.18-2-.28C6.12,44.08,5.74,42.92,6.45,43.15ZM8.52,59.7c-.39-.19-2.19-.35-1.89-.79C7.2,59.21,9.06,58.52,8.52,59.7Zm1.35.6c-1.06-.4-.28-1-.85-1.71-.2-.17.07-.31,0-.54-.06-.78.73-1.09.9-1.79a11.67,11.67,0,0,1,1.34-2.51c1.17,1.83.26,3.54-.67,5.27-.26.49-.84.74-.57,1.29C10,60.31,9.91,60.33,9.87,60.3Zm2.67-5.07c-.91-1,.05-2.18-.61-2.69a.33.33,0,0,1-.13-.48,3,3,0,0,1,1.95-2c.38-.15.42-.69.71-.95,1.35,2,5.46,2.53,3.93,5.66a1.17,1.17,0,0,0,.16,1.2c-.79.62-1.58,2.31-2.87,2.18-.77-1-1.67-1.65-2.42-2.62C13,55.3,12.66,55.61,12.54,55.23Zm1.22,7.27c-1.43.53-2.11-.65-3.09-1.41-.26-1.08.74-2.28,1.18-3.3.86-3.33,2.06-.11,3.63.65a9.22,9.22,0,0,0,1.11,3.66C15.65,61.83,14.71,62.38,13.76,62.5ZM17,64.37c-1.11-.27-2.07-.83-3.12-1.19a7.05,7.05,0,0,1,2.88-.46c.35.51.32,1.16.68,1.65A2.16,2.16,0,0,1,17,64.37Zm6.47,1.29c-1.71-.45-3.36-.09-5.07-.86-.36-.53-1.76-3.17-.52-2.67,1.23,1.11,3,1.19,4.38,1.9C23.12,64,24.53,64.92,23.43,65.66Zm.75-1.61c-1-.47-2-.86-2.95-1.38.48-.06.74-.43,1.21-.54a.41.41,0,0,0,.41-.41c.13-.22.42-.32.79-.58-.59.9.53.78,1,1.19,1,.79,1.39,2.2,2.64,2.66A8.76,8.76,0,0,1,24.18,64.05Zm6.11,4.19c-2.28.52-4-1.9-5.73-2.77-.33.11.05-.45,0-.64,1.28.45,2.91,1.45,3.95,1,.09,1,1.11.94,1.81,1.37.36.21.77.53,1.22.4.37.49,1,.16,1.31.65.11.37-1.45-.07-1.64.16C30.94,68.14,30.58,68.48,30.29,68.24Zm3.87,2.17c-1.6-.13-5.81-1.75-1.58-1.46.4,0,.84.27,1.2,0,.09-.09.23,0,.36.06a4,4,0,0,1,2.27,1.64A8.52,8.52,0,0,1,34.16,70.41Zm5.41,2.91A17.44,17.44,0,0,1,34.39,71,28.27,28.27,0,0,1,39,72C39.24,72.29,40.39,73.25,39.57,73.32Zm3.38.54c-2.46.73-2.08-.83-3.3-2.08-.39-.73-1.74-.11-1.84-.94,0-.48-.76-.07-.8-.65s-.72-.32-.88-.79c-.42-.86-1.78-.37-2.17-1.28,1.19-2.74,3-.86.85-4.37-.22-.41.49-.42.72-.6.61-.57.17-1.83.21-2.63,0-1.57-3.8-2.06-2.33-4,.53-2.54-1.19-.93-1.46-4.18-.32-.81.35-1.54.2-2.31A2.46,2.46,0,0,1,32,48.59c.27-.37-.44-.49-.38-.93-.1-1-.56-1.46-1.55-1-.5-.12-.25-1.19-.9-1-.43.07-1.1-.36-1.23.33-.5-.54-.26-1.26-.2-1.9a1,1,0,0,1,.38-1.36c.83-1.82-.33-3.5-.25-5.34-5.79-.05-.45-4-5.08-3.33.2-.59-.12-.87.23-1.46A20.49,20.49,0,0,0,23,30.47c1.44-1.53.75-1.31.92-3,.07-.55-.82-.36-1-.84,1.69-1.33-.62-4-.9-5.74-.46-.71-.79-1-.82-1.83-.45-.76-.19-.54,0-1.12a15.15,15.15,0,0,1-.37-2.17c-.27-.84-1.15-1.29-1.52-2.13,0-.47-.33-.69-.67-1h0c-.71-2.24-.1-2.51-2-4.7-.59-.66-1.69-.38-2.22-1.28-.37-.32-1.6-1.54-1.4-.34.14.18.3.35.1.59.15.26,0,.33-.23.41-.73.31-.27,1.35-.39,2-.07.85-1.24.05-1.14,1.61,0,.14-.07.14-.18.14a1.77,1.77,0,0,0-1.64,1.12c-.24.06-.57,0-.78.19.06.76-1.57,2.54-.52,2.69,1.19,1-1.27,2.53-.1,3.56.3.6,1.24.56,1.53,1.08-.37,1.07-1.74,1.13-2.5,1.83-1.58,1.13-1,2-1.3,3.58-.5,2.4-2.2.76-2.11,4-.43,1,1.5.82,1.09,2.15a18.51,18.51,0,0,1-.28,3.44c.19.48.44,1.12,0,1.57-.7.88,1,1.79.7,2.66-.35,3-2.88,2.74-2.42,4.13-.1.42.4.61.42,1a8.67,8.67,0,0,0,.45,1.55c.43.46.15,1.06.41,1.52.06.69-.48,1.19-.57,1.73.44.7-.06,1.51.28,2.19.29,1.44,1.16,2.65,1.58,4,.25.23-.16.39-.17.59a3.87,3.87,0,0,1,.23,1.63c-.08.65-.71,0-1,.4-1.37.77-1-1.54-1.67-2-.92-.15-.37-1.45-.69-2.13a2,2,0,0,0-.77-1.38c-.53-.85-.15-1.93-.09-2.83.14-.37.66-.67.61-1.1a3.7,3.7,0,0,1,0-1.75C2,45.78.82,46,1.23,44.92c.11-1.07-.13-2.13.61-3,.3-.56-.48-1-.16-1.57a3.8,3.8,0,0,1,.16-3.1c.18-.13.57-.61.14-.73-1,0,.35-1.37,0-1.93a2.58,2.58,0,0,1,0-1.69c0-1.09-.65-2.27-.53-3.3-.09-.23,0-.51-.21-.72s-.5-.3-.12-.59a6.06,6.06,0,0,0,.18-1.74c.47-2.7-.2-3.28,2.92-4,.12-.7,1-1,.63-1.7-.12-.18-.3-.4-.16-.65.47-1.11.08-2.37,1.13-3.24,2-3.48-.48-2.72,3.56-7.19,0-.61.56-1.31,0-1.8a1.14,1.14,0,0,1-.16-.86c.14-.65-.54-.7.16-1.36.31-.48.88-.6,1.13-1.06.55-.58,2.63-.77,1.44-1.89-.35-.31-.11-.6.27-.64,1.06-.48,1.75-1.91,2.88-.59A1.88,1.88,0,0,0,16.64,2c1.07.27.82,1.62,1.61,2.2a2.34,2.34,0,0,1,.52,1.53c0,1,1.42,1,1.72,1.93.64,1.66,2.13,2.73,2.48,4.47.76,2.19,2.2,4.66.87,6.86,0,1.43.83,2.59,1,4,.1,1.17-.23,2.39-.07,3.54.22,2,2.69,3.07,3.24,5,.43.85-1.2,3.67,0,3.68.46-.07,1.32-.66,1.34.13.05,2.2-2.08.44,0,4.11a2.75,2.75,0,0,0,.58,1.23c-.19.24,0,.54-.16.81-.32.67.46,1.83,1.2,1.92.29.07.5.36.71.55a15.52,15.52,0,0,1,2.55,3.59c.8,1.62.44,2.62,2.06,4,.35.92,1.6,1.33,1.48,2.36a3.17,3.17,0,0,1-1.09,1.89c-.24.15-.5.39-.44.71,0,.79.57,1.39.79,2.11s-.34,1.9.34,2.42c.8.85,2.2.95,2.9,1.77.44,1.14,1.88,1.73,2,3-.89,2.67.51,2,1.66,4.24-.65,2.85-2.33.93,1.1,3.46C44.26,73.59,43.32,73.8,43,73.86Z"/></g></g></svg>