<svg xmlns="http://www.w3.org/2000/svg" viewBox="0 0 33.35 44.45"><defs><style>.cls-1{fill:#aafff9;}.cls-2{opacity:0.25;}.cls-3{opacity:0.5;}</style></defs><g id="Layer_2" data-name="Layer 2"><g id="crystal-2"><path id="fill4" class="cls-1" d="M33.06,23.3c-1.09,3.27-2.19,6.53-3.33,9.78a4.62,4.62,0,0,1-.87,1.44c-2.58,3-5.19,6-7.78,9-.88,1-1,1.14-2.26.6-2.71-1.2-5.4-2.46-8.11-3.7-.94-.42-1.89-.87-2.87-1.26a2.58,2.58,0,0,1-1.48-1.5c-2-4.66-4-9.31-5.93-14A13.12,13.12,0,0,1,0,22.22l.17,0c.26-4.44.5-8.86.74-13.29a8.21,8.21,0,0,1,1.6-3.69,2.12,2.12,0,0,1,1.2-.64c4.66-1.33,9.34-2.65,14-3.91A35,35,0,0,1,21.43.06a.92.92,0,0,1,.46,0c1.65.72,3.55,1.06,4.69,2.61,1.79,2.44,3.51,4.92,5.22,7.42a2.73,2.73,0,0,1,.4,1.15c.4,3.53.8,7.05,1.14,10.57A3.74,3.74,0,0,1,33.06,23.3Z"/><path id="fill3" class="cls-2" d="M31.87,23.39c-.86,2.56-1.68,5.14-2.4,7.74a11.29,11.29,0,0,1-2.84,4.42c-2,2.25-4,4.48-6.08,6.71-.73.81-.93.81-1.79.07-2.28-2-4.55-4-6.87-5.92a2.46,2.46,0,0,1-1-2.16c.08-1.39,0-2.81,0-4.22H11c0-1.57-.06-3.14,0-4.69a4.15,4.15,0,0,1,.67-2c1.91-2.8,3.9-5.56,5.85-8.33a7.18,7.18,0,0,1,3.06-2.58c1.44-.63,2.8-1.44,4.19-2.13,1-.49,1.11-.42,1.61.47a3.43,3.43,0,0,1,.19.44,64.15,64.15,0,0,0,4.92,9.4A3.18,3.18,0,0,1,31.87,23.39ZM18.65,6c1.51.37,3.07.57,4.54,1.06,2.22.72,2.25.56,2.18-1.68,0-.31-.06-.63,0-.93a2.37,2.37,0,0,0-1.84-2.68,4.17,4.17,0,0,1-.58-.24,1.11,1.11,0,0,0-1.52.21c-1.05,1-2.13,2-3.17,3C17.47,5.49,17.53,5.71,18.65,6ZM14.11,18.05c1.22-1.69,2.14-3.58,3.7-5a4.93,4.93,0,0,0,.67-1c-.09-.28-.13-.47-.21-.68-.51-1.31-1-2.6-1.52-3.92a1.54,1.54,0,0,0-1.69-1q-5.72.21-11.41.32a1.16,1.16,0,0,0-1.15.85,1.73,1.73,0,0,0,.23,1.75c.94,1.5,1.91,3,2.77,4.54C7,16.56,8.38,19.29,9.82,22c.43.84.59.87,1.16.16C12.06,20.8,13.11,19.44,14.11,18.05Z"/><path id="fill2" class="cls-3" d="M17.26,42.27l-.15.21L8.57,38.16c1.71-2.06,1.94-2.1,3.75-.54,1.41,1.23,2.79,2.5,4.19,3.76A9.05,9.05,0,0,1,17.26,42.27ZM9.8,34.46c0-2.86.13-5.73.16-8.59a3.89,3.89,0,0,0-.32-1.65c-1-2.16-2-4.33-3.08-6.44-1.28-2.49-2.66-4.92-4-7.37-.12-.23-.36-.38-.68-.7A10.11,10.11,0,0,0,1.63,11c-.15,3.65-.32,7.29-.42,10.93a4.23,4.23,0,0,0,.45,1.79c1.65,3.89,3.33,7.76,5,11.62a9,9,0,0,0,.64,1.41c.11.2.6.39.7.31C8.83,36.34,9.8,35.78,9.8,34.46Z"/><path id="fill1" d="M.17,22.2Q.54,15.56.91,8.91a8.21,8.21,0,0,1,1.6-3.69,2.15,2.15,0,0,1,1.2-.64C8.38,3.25,13,1.93,17.72.67c1.21-.32,2.47-.42,3.7-.62a1.1,1.1,0,0,1,.47,0c1.65.72,3.54,1.06,4.68,2.61,1.8,2.43,3.51,4.93,5.23,7.42a2.48,2.48,0,0,1,.4,1.15c.4,3.53.79,7.05,1.14,10.58a3.83,3.83,0,0,1-.28,1.52c-1.09,3.27-2.19,6.53-3.33,9.78a4.79,4.79,0,0,1-.87,1.45c-2.58,3-5.2,6-7.78,9-.88,1-1,1.14-2.25.6-2.72-1.2-5.41-2.46-8.12-3.69-1-.44-1.89-.88-2.86-1.27a2.62,2.62,0,0,1-1.49-1.5c-2-4.66-4-9.31-5.93-14A12.54,12.54,0,0,1,0,22.22ZM11,30h-.11c0,1.41,0,2.82,0,4.23a2.41,2.41,0,0,0,1,2.15c2.32,1.93,4.59,3.94,6.87,5.92.86.74,1.06.74,1.8-.07,2-2.23,4.07-4.46,6.07-6.71a11.33,11.33,0,0,0,2.84-4.42c.72-2.6,1.54-5.18,2.4-7.75a3.16,3.16,0,0,0-.32-2.8,64.21,64.21,0,0,1-4.92-9.41,2.67,2.67,0,0,0-.2-.42c-.5-.9-.64-1-1.6-.49-1.4.7-2.75,1.51-4.18,2.13A7.16,7.16,0,0,0,17.59,15c-2,2.78-3.95,5.52-5.86,8.33a4.15,4.15,0,0,0-.67,2C11,26.89,11,28.46,11,30Zm7.45-18c-.09-.28-.13-.48-.21-.67-.5-1.31-1-2.62-1.52-3.93a1.49,1.49,0,0,0-1.7-1q-5.7.2-11.4.32a1.15,1.15,0,0,0-1.15.84,1.73,1.73,0,0,0,.23,1.76c.94,1.5,1.91,3,2.76,4.53C7,16.55,8.38,19.28,9.82,22c.43.82.59.87,1.17.14,1.07-1.34,2.12-2.7,3.12-4.09,1.22-1.69,2.14-3.58,3.7-5A5.32,5.32,0,0,0,18.48,12.05ZM1.84,9.7c-.09.56-.19.91-.21,1.27-.15,3.64-.32,7.28-.42,10.93a4.38,4.38,0,0,0,.45,1.78c1.65,3.88,3.33,7.75,5,11.62a9.64,9.64,0,0,0,.65,1.42c.12.19.6.38.7.3.83-.68,1.79-1.24,1.8-2.56,0-2.86.12-5.72.15-8.59a3.89,3.89,0,0,0-.32-1.65c-1-2.17-2-4.33-3.08-6.45-1.28-2.48-2.67-4.91-4-7.36A4,4,0,0,0,1.84,9.7Zm30.08,10,.33-.1c0-.5,0-1-.09-1.48-.18-1.58-.29-3.17-.59-4.73s-.4-3.09-1.41-4.39S28,6.12,26.89,4.67a11.07,11.07,0,0,0-.83-.91A9.34,9.34,0,0,0,26.33,9q2.1,4.18,4.23,8.36C31,18.17,31.46,19,31.92,19.74ZM25.37,5.36a7.23,7.23,0,0,1,0-.93,2.37,2.37,0,0,0-1.84-2.68,3.25,3.25,0,0,1-.57-.24,1.13,1.13,0,0,0-1.54.22c-1,1-2.12,2-3.15,3-.77.77-.7,1,.41,1.25,1.52.36,3.07.58,4.55,1.06C25.41,7.76,25.43,7.61,25.37,5.36ZM20.66,1.79l-.23-.4a126.51,126.51,0,0,0-14.88,4,.84.84,0,0,0,.56.31c3.33,0,6.65-.06,10-.12a1.9,1.9,0,0,0,1.15-.39C18.42,4.08,19.53,2.92,20.66,1.79Zm3.81,7,0-.45a1.56,1.56,0,0,0-.43-.21c-2-.53-4.1-1.06-6.16-1.56a.39.39,0,0,0-.49.55c.55,1.34,1.14,2.66,1.77,4a.72.72,0,0,0,.66.17C21.41,10.44,22.93,9.6,24.47,8.77Zm-7.36,33.7.16-.2a9.46,9.46,0,0,0-.77-.89c-1.39-1.26-2.77-2.52-4.19-3.75-1.81-1.57-2-1.53-3.73.53Z"/></g></g></svg>