<svg xmlns="http://www.w3.org/2000/svg" viewBox="0 0 32.91 63.47"><defs><style>.cls-1{fill:#aafff9;}.cls-2{opacity:0.25;}.cls-3{opacity:0.5;}</style></defs><g id="Layer_2" data-name="Layer 2"><g id="crystal-3"><path id="fill4" class="cls-1" d="M32.81,1.12C31.89,4.07,31,7,30,10c-2.37,7.36-4.8,14.7-7.11,22.06a135.7,135.7,0,0,0-4.33,16.47,13.67,13.67,0,0,1-.65,3.39,17.23,17.23,0,0,1-2.26,2.63c-2.08,2.59-4.1,5.21-6.15,7.83-.2.27-.41.52-.61.78a.68.68,0,0,1-1.13.08,6.24,6.24,0,0,1-.91-1c-1.86-2.49-3.73-5-5.51-7.48a4.72,4.72,0,0,1-.86-2.12c-.22-2-.28-4.07-.41-6.11-.42-2.79.55-5.19,1.81-7.61C4,34.86,6,30.7,7.93,26.55c1-2.14,2-4.32,2.84-6.52a20.41,20.41,0,0,1,4.77-7.3C17.27,11.1,19,9.4,20.59,7.67a30,30,0,0,0,2.65-3.18A7.24,7.24,0,0,1,27,1.66c1.37-.45,2.72-.94,4.08-1.4A5.14,5.14,0,0,1,31.86,0C32.8-.11,33.09.22,32.81,1.12Z"/><path id="fill3" class="cls-2" d="M31,1.22c-.73.78-1.36,1.45-2,2.12a.29.29,0,0,1-.31,0,.47.47,0,0,1-.15-.37,2.19,2.19,0,0,1,2-1.91C30.66,1,30.77,1.12,31,1.22ZM8.83,51.68a1.65,1.65,0,0,0-1.09-.1c-1.94.64-3.86,1.34-5.77,2-.54.2-.42.47-.14.86,1.46,1.95,2.87,3.92,4.32,5.87.56.75,1.19,1.44,1.8,2.16.23.26.44.27.53-.14.44-1.88.87-3.75,1.31-5.64.27-1.18.53-2.35.85-3.7a.94.94,0,0,0-.28-.36A11.9,11.9,0,0,0,8.83,51.68Zm9.72-20.25c-.44.88-.85,1.76-1.35,2.59-1.28,2.18-2.62,4.33-4,6.47a7,7,0,0,1-.81,1,3.67,3.67,0,0,0,.35,1.89q1,2.25,2.05,4.52c.06.15.14.36.27.41a.54.54,0,0,0,.46-.11,1,1,0,0,0,.17-.45q1.78-7.83,3.54-15.63a7,7,0,0,0,0-1.45ZM26,3.16a.72.72,0,0,0-.86.2c-.49.54-1,1.05-1.45,1.62a89.19,89.19,0,0,1-9.52,10.39,9.4,9.4,0,0,0-2.27,3.43C10.94,21,10,23.29,9,25.49c-1.68,3.68-3.43,7.3-5.12,11-.8,1.7-1.5,3.44-2.23,5.17-.26.63-.16.78.5.89l2.94.41C7,43,6.85,42.75,7.49,41.31c1.22-2.66,2.62-5.22,3.94-7.84.88-1.78,1.87-3.51,2.65-5.33a106.88,106.88,0,0,1,6.37-12.76c2.06-3.46,4.2-6.88,6.31-10.33C27.62,3.63,27.6,3.62,26,3.16Z"/><path id="fill2" class="cls-3" d="M28.26,4.8C27.67,5.92,27,7,26.43,8.14A106.17,106.17,0,0,0,20.5,20.9a9.58,9.58,0,0,1-3.23,4.51,15.48,15.48,0,0,0-1.95,2c-.11.13-.2.27-.33.45-.07-.2-.14-.32-.1-.39a5.13,5.13,0,0,1,.33-.76A201.52,201.52,0,0,1,27.13,5.49a10.88,10.88,0,0,1,.68-1c.08-.1.27-.11.43-.17C28.25,4.52,28.33,4.69,28.26,4.8ZM12.73,44.55C11.7,42.06,11.68,42,9.12,43l-.61.26c-.75.35-.72.35-.41,1.08.66,1.58,1.3,3.17,2,4.75.32.76.66,1.52,1,2.28.15.35.36.53.76.32.92-.49,1.86-1,2.78-1.48a3.54,3.54,0,0,0,.58-.52,5.72,5.72,0,0,1-.36-.66C14.12,47.57,13.37,46.08,12.73,44.55Zm-5.67.22A1.16,1.16,0,0,0,6,43.72c-1.25-.14-2.48-.41-3.74-.55-.87-.09-1.23.21-1.35,1.06a18.68,18.68,0,0,0,0,2h0C1,48.3,1,50.38,1.1,52.47c0,.48.14.72.7.51,1.86-.67,3.73-1.3,5.6-2a2.75,2.75,0,0,0,.3-.14.64.64,0,0,0,.42-.79C7.77,48.31,7.44,46.54,7.06,44.77Z"/><path id="fill1" d="M31.87,0a4.52,4.52,0,0,0-.8.22c-1.36.46-2.71,1-4.07,1.39a7.34,7.34,0,0,0-3.76,2.84,31.11,31.11,0,0,1-2.66,3.18c-1.64,1.73-3.31,3.43-5,5.06A20.25,20.25,0,0,0,10.78,20q-1.33,3.3-2.85,6.53C6,30.7,4,34.86,1.9,38.93.65,41.35-.33,43.75.1,46.54c.13,2,.19,4.09.41,6.12a4.7,4.7,0,0,0,.85,2.1c1.79,2.53,3.66,5,5.51,7.48a6.89,6.89,0,0,0,.91,1,.68.68,0,0,0,1.14-.08c.19-.26.4-.52.61-.78,2-2.61,4.07-5.24,6.14-7.83a15.77,15.77,0,0,0,2.26-2.63,13.24,13.24,0,0,0,.66-3.39A135.66,135.66,0,0,1,22.91,32C25.23,24.65,27.66,17.32,30,10,31,7,31.89,4.07,32.81,1.12,33.09.22,32.8-.11,31.87,0ZM30.55,1c.11,0,.23.09.49.19-.74.78-1.37,1.45-2,2.11a.34.34,0,0,1-.31,0,.51.51,0,0,1-.15-.39A2.18,2.18,0,0,1,30.55,1Zm-3.43,1.2A5.06,5.06,0,0,1,28.06,2c.08,0,.2.13.27.18-.17.64-.58.94-1.12.81a2.77,2.77,0,0,1-.68-.39A4.91,4.91,0,0,1,27.12,2.23ZM10.06,49.12c-.66-1.58-1.3-3.17-2-4.74-.31-.74-.32-.73.42-1.09A5.59,5.59,0,0,1,9.12,43c2.56-1,2.58-1,3.61,1.52.64,1.53,1.38,3,2.08,4.51.09.2.21.39.36.66a3.49,3.49,0,0,1-.58.52c-.92.51-1.86,1-2.78,1.48-.4.22-.61,0-.76-.32C10.72,50.63,10.38,49.88,10.06,49.12Zm-.12,2.31c-.26.21-1.46-.8-1.52-1.24-.2-1.41-.4-2.82-.58-4.23,0-.1,0-.2.09-.36a3.24,3.24,0,0,1,.26.38c.29.59.6,1.17.84,1.79s.56,1.54.79,2.34C9.94,50.54,10.46,51,9.94,51.43Zm5.13-3.11c-.12-.06-.19-.26-.26-.41-.69-1.51-1.36-3-2.05-4.52a3.44,3.44,0,0,1-.35-1.88,8.63,8.63,0,0,0,.81-1c1.36-2.14,2.7-4.29,4-6.46.49-.84.91-1.72,1.33-2.6l.76-.75a6.9,6.9,0,0,1-.05,1.44Q17.51,40,15.71,47.76a1,1,0,0,1-.18.45A.56.56,0,0,1,15.07,48.32Zm3.58-17.5a.81.81,0,0,0-.1.21.9.9,0,0,0-.32.29q-2.91,4.59-5.77,9.22a3,3,0,0,0-.32.85c-1.13.83-2.54.83-3.83,1.14-.47.12-.55-.23-.37-.61.64-1.35,1.24-2.72,1.93-4,1.51-2.83,3-5.68,4.63-8.44a19.24,19.24,0,0,1,2.67-3.13A22.65,22.65,0,0,1,19,24.75c.08.71.12,1.44.26,2.13A4.36,4.36,0,0,1,18.65,30.82Zm-1.38-5.41a15,15,0,0,0-1.95,2,5,5,0,0,0-.33.44c-.06-.21-.14-.32-.11-.39a5.7,5.7,0,0,1,.34-.76A202,202,0,0,1,27.14,5.48a8.9,8.9,0,0,1,.67-.94c.08-.11.28-.11.42-.17,0,.15.09.32,0,.43C27.67,5.92,27,7,26.43,8.14A107.74,107.74,0,0,0,20.5,20.9,9.56,9.56,0,0,1,17.27,25.41ZM1.64,41.64c.72-1.74,1.44-3.48,2.22-5.18,1.69-3.67,3.46-7.3,5.14-11,1-2.2,1.94-4.45,2.88-6.69a9.19,9.19,0,0,1,2.27-3.43A90.09,90.09,0,0,0,23.66,5c.46-.56,1-1.07,1.44-1.61a.74.74,0,0,1,.87-.2c1.63.46,1.65.47.79,1.9-2.11,3.44-4.25,6.86-6.31,10.33a106,106,0,0,0-6.37,12.75c-.78,1.82-1.76,3.55-2.66,5.33C10.1,36.08,8.7,38.65,7.5,41.32,6.85,42.75,7,43,5.09,42.92l-2.95-.4C1.48,42.42,1.38,42.26,1.64,41.64ZM1.1,52.48.86,46.21h0a14.52,14.52,0,0,1,0-2c.12-.86.47-1.15,1.34-1,1.25.13,2.49.4,3.74.54a1.16,1.16,0,0,1,1.08,1.05c.38,1.77.72,3.54,1.06,5.32a.63.63,0,0,1-.42.79c-.1,0-.19.11-.3.15-1.86.65-3.74,1.28-5.6,2C1.24,53.19,1.12,53,1.1,52.48Zm7.38,9.87c-.09.41-.3.4-.53.14-.61-.71-1.24-1.41-1.8-2.16-1.45-1.95-2.86-3.92-4.32-5.87-.28-.38-.4-.66.14-.85,1.92-.69,3.83-1.39,5.76-2a1.65,1.65,0,0,1,1.09.1,10.76,10.76,0,0,1,1.54,1,1.1,1.1,0,0,1,.28.36c-.31,1.35-.58,2.53-.86,3.71C9.35,58.59,8.91,60.47,8.48,62.35Zm8.3-9.81-5.21,6-.21.26L9.55,61c.19-1,.38-1.92.58-2.88.31-1.5.68-3,.94-4.52a1.67,1.67,0,0,1,1-1.39c.95-.43,1.91-.86,2.87-1.26.34-.14.81-.37,1.06-.24a6.2,6.2,0,0,1,1.2,1.1s0,.1.09.24ZM31.28,4.1c-2.41,7.57-4.93,15.11-7.3,22.7C22.3,32.16,20.76,37.58,19.26,43c-.64,2.33-1,4.74-1.52,7.11a4.6,4.6,0,0,1-.24.63,1.38,1.38,0,0,1-1.23-1.66c1.22-5.32,2.49-10.63,3.64-16a11.62,11.62,0,0,0,.26-5.41,10.51,10.51,0,0,1-.33-3,8.22,8.22,0,0,1,.54-2.38,82.05,82.05,0,0,1,5.9-12.06C27.55,8,28.8,5.76,30.12,3.52A26.91,26.91,0,0,1,31.9,1.13C32.15,2.21,31.59,3.15,31.28,4.1Z"/></g></g></svg>