<svg xmlns="http://www.w3.org/2000/svg" viewBox="0 0 37.33 59.79"><defs><style>.cls-1{fill:#aafff9;}.cls-2{opacity:0.25;}.cls-3{opacity:0.5;}</style></defs><g id="Layer_2" data-name="Layer 2"><g id="crystal-6"><path id="fill4" class="cls-1" d="M37.11,23.78c-.51,1.46-1.09,2.91-1.65,4.36a209.21,209.21,0,0,0-6.85,20.28q-.64,2.41-1.52,4.76A4.13,4.13,0,0,1,26,54.71c-1.56,1.45-3.14,2.88-4.79,4.23a7.61,7.61,0,0,1-1.83.85c-2-.29-3.69-.47-5.32-.8a3.55,3.55,0,0,1-1.59-1c-2-2-4-4-6-6a3.59,3.59,0,0,1-1-2.12q-2-12.11-4-24.2Q.84,22.18.09,18.63a2.37,2.37,0,0,1,.56-2.35C5,11.48,9.38,6.65,13.75,1.81A4.76,4.76,0,0,1,16.81.08c1.54-.2,2.81-.11,3.73,1.38a10.87,10.87,0,0,0,1.89,2A4.92,4.92,0,0,1,24.1,7.14a3.76,3.76,0,0,0,1.31,2.69c3.77,3.72,7.46,7.52,11.23,11.25A2.34,2.34,0,0,1,37.11,23.78Z"/><path id="fill3" class="cls-2" d="M35.92,21.59l-5.15,2a14,14,0,0,0-1.73.76c-.64.36-1,.3-1.59-.31a8,8,0,0,1-2.36-5.57c0-2.21-.43-4.41-.65-6.62,0-.42,0-.85,0-1.6C28.35,14.11,32,17.74,35.92,21.59Zm-11,1.61A2.75,2.75,0,0,0,22.63,22c-2.82-.14-5.62-.31-8.44-.48a.86.86,0,0,1,0,.16c-.91-.05-1.84-.12-2.76-.16-1.32-.06-2.64-.11-4-.13-.65,0-.92.32-.71,1A25.81,25.81,0,0,1,7.55,25c1.38,6.11,2.73,12.24,4.1,18.36,1,4.32,2,8.64,2.94,13a1.72,1.72,0,0,0,1.46,1.47A10,10,0,0,0,17.4,58c1.18.07,1.31,0,1.55-1.19,1.93-9.19,4.63-18.17,7.09-27.22C27.22,25.28,27.31,26.7,24.94,23.2Z"/><path id="fill2" class="cls-3" d="M14.76,2.74c-.24.45-.5.89-.75,1.33l-7.84,14c-.19.36-.37.72-.59,1.07-.53.87-.66.91-1.46.38a22.74,22.74,0,0,1-2-1.38c-.82-.66-.84-.87-.18-1.69.91-1.13,1.83-2.22,2.8-3.31,2.79-3.15,5.58-6.29,8.4-9.42.41-.46.87-.87,1.32-1.3ZM11.24,47.79C9.84,41.51,8.47,35.22,7,29c-.49-2.13-1.3-4.18-1.72-6.32s-2-2.54-3.61-3.7c.05.67.06,1,.1,1.23.36,2,.77,3.93,1.06,5.93C3.28,29,3.55,32,4,35c.69,4.73,1.47,9.45,2.18,14.16a4.22,4.22,0,0,0,1.3,2.55c1.27,1.18,2.46,2.44,3.69,3.65.52.52,1,1,1.58,1.53l.31-.22a4,4,0,0,0,0-.49C12.45,53.36,11.86,50.57,11.24,47.79Z"/><path id="fill1" d="M19.38,59.79c-2-.29-3.69-.47-5.32-.8a3.55,3.55,0,0,1-1.59-1c-2-2-4-4-6-6a3.61,3.61,0,0,1-1-2.12q-2-12.11-4-24.2C1,23.37.59,21,.1,18.63a2.31,2.31,0,0,1,.54-2.34C5,11.49,9.39,6.64,13.75,1.81A4.84,4.84,0,0,1,16.81.07c1.54-.19,2.81-.09,3.73,1.4a10.82,10.82,0,0,0,1.89,2,4.89,4.89,0,0,1,1.68,3.66,3.64,3.64,0,0,0,1.3,2.69c3.76,3.73,7.46,7.53,11.23,11.26a2.33,2.33,0,0,1,.47,2.69c-.51,1.47-1.09,2.92-1.65,4.37a210.07,210.07,0,0,0-6.84,20.28c-.44,1.61-.95,3.21-1.53,4.77A4.15,4.15,0,0,1,26,54.7c-1.56,1.45-3.14,2.89-4.8,4.23A6.52,6.52,0,0,1,19.38,59.79ZM14.19,21.47v.15l-2.76-.15c-1.32-.06-2.64-.11-4-.13-.66,0-.93.32-.7,1A26.77,26.77,0,0,1,7.55,25c1.38,6.11,2.73,12.23,4.1,18.35,1,4.32,2,8.63,2.94,13a1.72,1.72,0,0,0,1.46,1.47A10.54,10.54,0,0,0,17.4,58c1.18.08,1.31,0,1.55-1.2,1.93-9.18,4.63-18.16,7.09-27.21,1.18-4.31,1.27-2.88-1.11-6.37A2.68,2.68,0,0,0,22.63,22C19.81,21.81,17,21.63,14.19,21.47Zm9.42-3.85h-.13c-.1-3.51-.23-7-.29-10.53A2.94,2.94,0,0,0,22.3,5c-1-1-1.93-2.11-2.9-3.16C18.24.53,16.93.71,16.1,2.25,14.25,5.64,12.41,9,10.57,12.42,9.29,14.8,8,17.18,6.77,19.58c-.37.71-.2.94.58,1,1.6,0,3.2,0,4.81,0,3.48.07,7,.14,10.44.28.8,0,1-.22,1-.95S23.61,18.37,23.61,17.62ZM20.48,57.76a33.16,33.16,0,0,1,3-2.21,5.93,5.93,0,0,0,2.66-4c.67-2.43,1.33-4.87,2.2-7.23,2.42-6.59,4.94-13.13,7.42-19.7.13-.34.18-.71.33-1.29a11.18,11.18,0,0,0-1.5.43c-1.84.82-3.66,1.69-5.51,2.48a2.63,2.63,0,0,0-1.65,2c-.68,2.91-1.48,5.8-2.18,8.71q-2.31,9.47-4.55,19A16.73,16.73,0,0,0,20.48,57.76Zm-7.75-.91.32-.22a2.57,2.57,0,0,0,0-.48c-.6-2.79-1.19-5.58-1.81-8.36C9.85,41.51,8.47,35.23,7,29c-.49-2.13-1.29-4.18-1.71-6.32s-2-2.53-3.61-3.7c.05.68.05.95.1,1.22.35,2,.77,3.95,1.06,5.93C3.28,29,3.56,32,4,35c.69,4.73,1.47,9.44,2.18,14.17a4.21,4.21,0,0,0,1.31,2.54c1.26,1.18,2.45,2.44,3.68,3.65C11.68,55.84,12.21,56.34,12.73,56.85ZM35.91,21.59,24.43,10.22c0,.74,0,1.18,0,1.6.22,2.21.63,4.41.65,6.61A8,8,0,0,0,27.45,24c.56.6.94.66,1.59.29a13.84,13.84,0,0,1,1.73-.74ZM14.77,2.74l-.3-.29c-.45.43-.91.84-1.33,1.3C10.34,6.88,7.53,10,4.75,13.18c-1,1.08-1.89,2.17-2.8,3.29-.67.83-.64,1.05.18,1.7.63.5,1.3.95,2,1.39s.94.48,1.47-.39c.21-.34.39-.71.59-1.06L14,4.07Z"/></g></g></svg>