<svg xmlns="http://www.w3.org/2000/svg" viewBox="0 0 40.91 64.56"><defs><style>.cls-1{fill:#aafff9;}.cls-2{opacity:0.25;}.cls-3{opacity:0.5;}</style></defs><g id="Layer_2" data-name="Layer 2"><g id="crystal-7"><path id="fill4" class="cls-1" d="M39.58,26.2c-1.43,3.31-2.95,6.57-4.41,9.87a5.74,5.74,0,0,1-1.68,2.24Q17.8,51.11,2.12,64a3.26,3.26,0,0,1-.67.47A.93.93,0,0,1,0,63.6a11.3,11.3,0,0,1,.05-1.75q.57-7.49,1.16-15Q1.89,39,2.54,31c.15-1.8.27-3.59.52-5.37a3.38,3.38,0,0,1,.81-1.8c3.05-3.17,6.13-6.36,9.29-9.43a27.08,27.08,0,0,1,3.74-2.65L33.25.72c1.86-1.25,3.47-.82,5,.87,1.2,1.4,1.32,3,1.47,4.65.37,4.13.7,8.25,1,12.38.06.75,0,1.53,0,2.29C41.32,22.88,40.32,24.52,39.58,26.2Z"/><path id="fill3" class="cls-2" d="M39.75,24.31c-.62,1.34-1.23,2.67-1.84,4l-3.37,7.36a3.32,3.32,0,0,1-.29.6c-.19.38-.45.41-.73.08-1.11-1.34-2.26-2.68-3.33-4-.64-.82-.59-1,.24-1.62.6-.48,1.23-.91,1.85-1.36l6.53-4.79c.22-.16.45-.27.68-.41Zm-27.33.16Q21.06,14.74,29.71,5A5.17,5.17,0,0,0,31,3.15C29.7,4,28.63,4.61,27.59,5.3c-4.4,3-8.78,5.94-13.19,8.88a2.21,2.21,0,0,0-.93,1.41c-.76,3-1.55,5.91-2.32,8.87-.12.41-.15.83-.23,1.24l.26.13C11.6,25.38,12,24.93,12.42,24.47Zm4.7,12.89a3.48,3.48,0,0,0-1.67,1.47q-5.5,9.69-11,19.36c-.23.4-.39.85-.69,1.5,1.5-1.11,23-25.92,23.63-27.18-.28.11-.49.17-.67.26C23.5,34.31,20.32,35.87,17.12,37.36Zm7.74-17.67a1,1,0,0,0,.19,1.42c.67.59,1.32,1.21,2.23,2C29.61,16.43,31.85,10,34.08,3.5a1,1,0,0,0-.24-.1c-.23.37-.47.74-.68,1.12q-3.24,6-6.49,12C26.09,17.59,25.49,18.65,24.86,19.69Zm-17.59,18a3.53,3.53,0,0,1,.3-.72c.68-2.92,1.72-7.37,2-8.37A.9.9,0,0,0,9,27.35c-.92-.38-1.83-.76-2.73-1.17-2.25-1-2.31-1-2.5,1.55,0,.18,0,.35,0,.53-.13,1.66-.23,3.32-.37,5L2.1,47.2l-.75,8.61c-.09,1.08-.16,2.17-.23,3.26l.29,0c.25-.76.5-1.5.71-2.27C3,53.41,3.87,50,4.79,46.53,5.58,43.59,6.42,40.65,7.27,37.71Z"/><path id="fill2" class="cls-3" d="M36.52,1.63a1.68,1.68,0,0,1-.09.65Q33,15.12,29.55,27.94c-.09.32-.25.63-.37.95h-.27c-.43-1.64-.87-3.28-1.23-4.93a2.21,2.21,0,0,1,.19-1.17c1.42-3.89,2.88-7.76,4.3-11.64,1.09-3,2.14-6,3.22-9a2.86,2.86,0,0,1,.24-.62,2.71,2.71,0,0,1,.57-.42A2,2,0,0,1,36.52,1.63ZM34.78.74a3.81,3.81,0,0,0-.77.32L11.21,26.6a2.53,2.53,0,0,1,.13.22c1-.48,2-.93,3-1.45,2.5-1.33,5-2.73,7.47-4.06a4.7,4.7,0,0,0,1.89-1.86Q28.29,11.73,32.89,4C33.48,3,34,2,34.78.74ZM5.05,24.64c1.4.81,2.79,1.6,4.2,2.37.39.2.7,0,.81-.42.06-.26.14-.52.19-.79.53-2.53,1.05-5.08,1.57-7.63.09-.42.11-.87.19-1.51-1.23,1.19-2.28,2.15-3.26,3.17-1.26,1.32-2.47,2.71-3.71,4C4.77,24.16,4.69,24.42,5.05,24.64Zm6.05,5a13.84,13.84,0,0,0-1-1.4c-.22.72-.34,1.14-.49,1.55-.29.81-1.58,5.83-2.27,8.32-.2,1-.41,2.06-.66,3.08C5.35,46.79,3.94,52.36,2.55,58c-.28,1.14-.52,2.28-.79,3.43A.65.65,0,0,0,2.28,61c1.34-2.45,2.69-4.88,4-7.36C8,50.46,9.6,47.2,11.25,44c1-2,2-4,3.05-6a1.67,1.67,0,0,0,.09-1.65C13.26,34.09,12.21,31.86,11.1,29.65Z"/><path id="fill1" d="M40.72,20.92c0-.77.05-1.54,0-2.3q-.49-6.19-1-12.39C39.52,4.59,39.4,3,38.19,1.59,36.72-.11,35.11-.52,33.26.72l-16.35,11a27.18,27.18,0,0,0-3.75,2.65C10,17.48,6.93,20.66,3.87,23.85a3.43,3.43,0,0,0-.81,1.78c-.25,1.78-.37,3.58-.52,5.38q-.66,7.93-1.3,15.88-.6,7.49-1.17,15A11.54,11.54,0,0,0,0,63.6a.93.93,0,0,0,1.43.83A3,3,0,0,0,2.11,64L33.5,38.3a5.81,5.81,0,0,0,1.67-2.23c1.46-3.29,3-6.56,4.42-9.86C40.32,24.53,41.32,22.89,40.72,20.92ZM35.39,2.13a2.44,2.44,0,0,1,.25-.62,2.35,2.35,0,0,1,.56-.42,1.88,1.88,0,0,1,.32.54,1.65,1.65,0,0,1-.09.65Q33,15.11,29.54,27.94c-.09.32-.24.63-.36.95h-.27c-.42-1.64-.87-3.27-1.24-4.92a2.34,2.34,0,0,1,.2-1.18c1.42-3.89,2.88-7.76,4.3-11.65C33.26,8.15,34.32,5.14,35.39,2.13ZM24.88,22.44a4,4,0,0,1,2.82,3.79c.14,1.43.47,2.84.76,4.48-.16.17-.35.53-.65.69A85.05,85.05,0,0,1,17.32,36c-1,.36-1.07.36-1.68-.48q-2-2.77-4-5.59a7.75,7.75,0,0,1-.74-1.28c-.36-.74-.34-.87.45-1.22,3.48-1.58,7-3.12,10.46-4.68a1.54,1.54,0,0,0,.48-.24C23.15,21.72,23.93,22.11,24.88,22.44Zm0-2.75c.62-1,1.22-2.1,1.8-3.17,2.18-4,4.33-8,6.5-12,.21-.39.45-.75.68-1.13l.25.11c-2.24,6.47-4.48,12.93-6.8,19.65-.92-.84-1.57-1.45-2.24-2A1,1,0,0,1,24.86,19.69ZM34,1.07c.1-.11.29-.13.76-.33C34,2,33.48,3,32.9,4c-3.07,5.14-6.15,10.27-9.19,15.43a4.83,4.83,0,0,1-1.89,1.86c-2.5,1.33-5,2.72-7.47,4.06-1,.53-2,1-3,1.45l-.12-.22Q22.6,13.82,34,1.07ZM13.47,15.59a2.13,2.13,0,0,1,.93-1.4c4.41-2.95,8.79-5.93,13.19-8.88,1-.7,2.11-1.35,3.38-2.16A5.31,5.31,0,0,1,29.71,5q-8.62,9.75-17.29,19.48c-.41.46-.82.91-1.24,1.36l-.26-.13c.07-.41.12-.83.22-1.24C11.92,21.51,12.72,18.55,13.47,15.59ZM5,23.87c1.24-1.34,2.45-2.72,3.71-4,1-1,2-2,3.25-3.17-.07.64-.1,1.08-.18,1.51-.52,2.55-1,5.09-1.57,7.64-.05.26-.13.52-.19.78-.11.45-.43.63-.81.42-1.41-.77-2.8-1.57-4.19-2.37C4.69,24.42,4.76,24.17,5,23.87ZM1.42,59.12l-.3-.06c.07-1.08.14-2.17.23-3.25L2.1,47.2q.64-7,1.28-14c.15-1.66.25-3.32.38-5,0-.18,0-.36,0-.54C4,25.18,4,25.15,6.28,26.17c.9.41,1.81.81,2.73,1.18a.9.9,0,0,1,.58,1.27c-.3,1-1.33,5.44-2,8.36a5.16,5.16,0,0,0-.31.73c-.83,2.94-1.68,5.88-2.47,8.83C3.87,50,3,53.42,2.11,56.85,1.91,57.62,1.65,58.37,1.42,59.12Zm.34,2.26c.27-1.15.51-2.29.79-3.44q2.09-8.37,4.17-16.73c.25-1,.45-2.06.66-3.09.69-2.48,2-7.52,2.27-8.32.15-.41.26-.83.49-1.54a12.83,12.83,0,0,1,1,1.39c1.11,2.21,2.17,4.45,3.29,6.66A1.72,1.72,0,0,1,14.3,38q-1.52,3-3.05,6c-1.65,3.25-3.29,6.5-5,9.73C5,56.16,3.61,58.59,2.28,61A.63.63,0,0,1,1.76,61.38Zm2-1.68c.3-.66.46-1.1.69-1.51q5.51-9.67,11-19.35a3.4,3.4,0,0,1,1.66-1.47c3.21-1.5,6.39-3.06,9.58-4.6.19-.09.38-.15.67-.26C26.75,33.77,5.23,58.58,3.73,59.7Zm29-21.79q-3.16,2.64-6.36,5.23Q16.11,51.48,5.82,59.79c-.17.14-.35.26-.52.39L5.07,60c.56-.69,1.11-1.38,1.69-2.05Q17.19,45.66,27.64,33.37l.17-.21c.84-.95.92-1,1.8-.13,1.12,1.09,2.21,2.24,3.28,3.39C33.56,37.15,33.55,37.23,32.73,37.91Zm5.18-9.6-3.36,7.37c-.09.2-.19.41-.29.61-.21.37-.46.4-.73.08-1.12-1.35-2.26-2.68-3.34-4.06-.64-.81-.59-1,.24-1.63.6-.47,1.23-.9,1.85-1.36,2.18-1.59,4.35-3.19,6.54-4.78a7.48,7.48,0,0,1,.67-.41l.26.18C39.14,25.65,38.52,27,37.91,28.31Zm0-3.77-6.67,4.83c-.28.2-.59.37-.92.58-.36-.51-.1-.94,0-1.33,1.62-6.21,3.26-12.41,4.87-18.62.62-2.39,1.18-4.8,1.77-7.19a9.74,9.74,0,0,1,.4-1A4.79,4.79,0,0,1,39,5.11c.23,4.94.62,9.87,1,14.8C40.22,22.84,40.26,22.84,37.91,24.54Z"/></g></g></svg>