<svg xmlns="http://www.w3.org/2000/svg" viewBox="0 0 61.90957 61.93923"><title>rose-leaf-iso</title><g id="Layer_2" data-name="Layer 2"><g id="Rose_Leaf" data-name="Rose Leaf"><path id="void" d="M58.36264,12.69976a3.50541,3.50541,0,0,1,2.49309-.499,20.41955,20.41955,0,0,1-2.96989,5.79943q1.29516-.13557,2.59012-.27342a23.713,23.713,0,0,1-3.76385,7.092q1.0324-.27182,2.0647-.54428a16.41726,16.41726,0,0,1-3.5628,7.5172c.90412-.306,1.80821-.61175,2.71846-.89912A19.03775,19.03775,0,0,1,52.49788,39.233c.68158-.07273,1.36473-.12764,2.04587-.20533a18.12511,18.12511,0,0,1-5.35948,5.53088c.70946.05551,1.41972.10023,2.12918.15577a13.14693,13.14693,0,0,1-6.899,4.98056c.552.36791,1.10271.73718,1.64684,1.11679-2.59,1.29267-5.20585,2.4885-7.90261,3.54625-.78644-.29153-1.37755.36465-1.1173,1.15031a5.35934,5.35934,0,0,1,.31434.80837c.01782.20559-.02268.11127.02337.31081a7.63133,7.63133,0,0,0,.26985.77694,9.2419,9.2419,0,0,0-1.82548.21553,1.709,1.709,0,0,1-.56141-.07782c-.16026-.03321-.26866-.13628-.42112-.1654a3.73186,3.73186,0,0,0-1.58029.10776c-.17745.0382-.30293-.11153-.50085-.04084a4.13558,4.13558,0,0,1-.72917.20365c-.87021.09856-1.51626.608-1.32747,1.5138.01533.07358.0847.13264.11064.21062a12.65412,12.65412,0,0,0-2.44342-.093,7.18117,7.18117,0,0,0-1.83083.06162,2.79632,2.79632,0,0,1-.4095.10644c-.11582.00315-.23336-.11493-.36179-.16352a1.3069,1.3069,0,0,0-1.55966.53061,2.46639,2.46639,0,0,0-.44438.758c-.0264.069-.11312-.1-.189-.135A14.35215,14.35215,0,0,0,20.909,59.722a4.59276,4.59276,0,0,0-2.23739-.17848,4.51814,4.51814,0,0,0-1.94882-1.16228c-.08538-.02262-.1952.06191-.23459-.00755-.22329-.39383-.23255-.84933-.51017-1.2687a1.61231,1.61231,0,0,0-2.48593-.09193c-.14079.11824-.19215.36325-.31412.37012-.19608.011-.43294-.29346-.66807-.29a5.37873,5.37873,0,0,0-2.08582-2.14982.35271.35271,0,0,0-.26327-.066.50733.50733,0,0,0-.21247.11692c-2.64874,2.22983-5.21217,4.5272-7.76647,6.87415-.11094-.20132-.5247-.28781-.639-.36593s-.01146-.1633-.0405-.25781a9.32636,9.32636,0,0,1-.19748-1.68615c1.21938-.91688,2.51025-1.78984,3.64735-2.81143,1.438-1.29193,2.95761-2.65791,3.24609-4.63548a2.78752,2.78752,0,0,0-3.06571-3.38957,1.2002,1.2002,0,0,1,1.61569-1.03878Q3.99889,45.09888,1.24506,42.517c.90974.10522,1.81931.20983,2.72743.32863Q2.46436,39.30715.97868,35.76021a1.54827,1.54827,0,0,1,1.885.8615A48.82616,48.82616,0,0,0,2.55615,30.225a1.29251,1.29251,0,0,1,1.72065.46106,30.293,30.293,0,0,1,2.09172-6.899c.34562.47186.66406.96231.98,1.45364a45.24988,45.24988,0,0,1,3.03906-6.06585A1.90058,1.90058,0,0,1,11.545,18.12126a.50416.50416,0,0,1,.444.87845c1.15726-.53321,1.62394-2.13717,2.28263-2.97121s2.738-1.34133,2.4858.07238a26.90377,26.90377,0,0,1,5.268-5.0808c.26667.58254.53187,1.16728.78927,1.75449a4.7949,4.7949,0,0,1,4.44634-2.5805,33.80143,33.80143,0,0,1,5.25772-3.55236c-.04276.64633-.08411,1.29409-.12631,1.93957,1.60836-1.13021,3.21788-2.27189,4.85388-3.361a2.81194,2.81194,0,0,1,1.66634-.67566.53882.53882,0,0,1,.27088,1.01788c1.336-.26468,2.46416-1.492,3.47912-2.15182s2.70035-1.01619,2.89291.392c1.05061-.22017,1.86689-1.445,2.7065-1.86895s2.53972.31307,1.6452,1.16783a11.158,11.158,0,0,1,5.23309-1.72649c-.29569.55307-.59307,1.10652-.89858,1.65484a46.02585,46.02585,0,0,1,7.6678-3.025,22.40278,22.40278,0,0,1-3.11406,6.07658,5.00435,5.00435,0,0,1,2.91116-.25775A16.24424,16.24424,0,0,1,58.36264,12.69976Z" style="fill:#fff"/><path id="fill2" d="M58.36264,12.69976a3.50541,3.50541,0,0,1,2.49309-.499,20.41955,20.41955,0,0,1-2.96989,5.79943q1.29516-.13557,2.59012-.27342a23.713,23.713,0,0,1-3.76385,7.092q1.0324-.27182,2.0647-.54428a16.41726,16.41726,0,0,1-3.5628,7.5172c.90412-.306,1.80821-.61175,2.71846-.89912A19.03775,19.03775,0,0,1,52.49788,39.233c.68158-.07273,1.36473-.12764,2.04587-.20533a18.12511,18.12511,0,0,1-5.35948,5.53088c.70946.05551,1.41972.10023,2.12918.15577a13.14693,13.14693,0,0,1-6.899,4.98056c.552.36791,1.10271.73718,1.64684,1.11679-2.59,1.29267-5.20585,2.4885-7.90261,3.54625-.78644-.29153-1.37755.36465-1.1173,1.15031a5.35934,5.35934,0,0,1,.31434.80837c.01782.20559-.02268.11127.02337.31081a7.63133,7.63133,0,0,0,.26985.77694,9.2419,9.2419,0,0,0-1.82548.21553,1.709,1.709,0,0,1-.56141-.07782c-.16026-.03321-.26866-.13628-.42112-.1654a3.73186,3.73186,0,0,0-1.58029.10776c-.17745.0382-.30293-.11153-.50085-.04084a4.13558,4.13558,0,0,1-.72917.20365c-.87021.09856-1.51626.608-1.32747,1.5138.01533.07358.0847.13264.11064.21062a12.65412,12.65412,0,0,0-2.44342-.093,7.18117,7.18117,0,0,0-1.83083.06162,2.79632,2.79632,0,0,1-.4095.10644c-.11582.00315-.23336-.11493-.36179-.16352a1.3069,1.3069,0,0,0-1.55966.53061,2.46639,2.46639,0,0,0-.44438.758c-.0264.069-.11312-.1-.189-.135A14.35215,14.35215,0,0,0,20.909,59.722a4.59276,4.59276,0,0,0-2.23739-.17848,4.51814,4.51814,0,0,0-1.94882-1.16228c-.08538-.02262-.1952.06191-.23459-.00755-.22329-.39383-.23255-.84933-.51017-1.2687a1.61231,1.61231,0,0,0-2.48593-.09193c-.14079.11824-.19215.36325-.31412.37012-.19608.011-.43294-.29346-.66807-.29a5.37873,5.37873,0,0,0-2.08582-2.14982.35271.35271,0,0,0-.26327-.066.50733.50733,0,0,0-.21247.11692c-2.64874,2.22983-5.21217,4.5272-7.76647,6.87415-.11094-.20132-.5247-.28781-.639-.36593s-.01146-.1633-.0405-.25781a9.32636,9.32636,0,0,1-.19748-1.68615c1.21938-.91688,2.51025-1.78984,3.64735-2.81143,1.438-1.29193,2.95761-2.65791,3.24609-4.63548a2.78752,2.78752,0,0,0-3.06571-3.38957,1.2002,1.2002,0,0,1,1.61569-1.03878Q3.99889,45.09888,1.24506,42.517c.90974.10522,1.81931.20983,2.72743.32863Q2.46436,39.30715.97868,35.76021a1.54827,1.54827,0,0,1,1.885.8615A48.82616,48.82616,0,0,0,2.55615,30.225a1.29251,1.29251,0,0,1,1.72065.46106,30.293,30.293,0,0,1,2.09172-6.899c.34562.47186.66406.96231.98,1.45364a45.24988,45.24988,0,0,1,3.03906-6.06585A1.90058,1.90058,0,0,1,11.545,18.12126a.50416.50416,0,0,1,.444.87845c1.15726-.53321,1.62394-2.13717,2.28263-2.97121s2.738-1.34133,2.4858.07238a26.90377,26.90377,0,0,1,5.268-5.0808c.26667.58254.53187,1.16728.78927,1.75449a4.7949,4.7949,0,0,1,4.44634-2.5805,33.80143,33.80143,0,0,1,5.25772-3.55236c-.04276.64633-.08411,1.29409-.12631,1.93957,1.60836-1.13021,3.21788-2.27189,4.85388-3.361a2.81194,2.81194,0,0,1,1.66634-.67566.53882.53882,0,0,1,.27088,1.01788c1.336-.26468,2.46416-1.492,3.47912-2.15182s2.70035-1.01619,2.89291.392c1.05061-.22017,1.86689-1.445,2.7065-1.86895s2.53972.31307,1.6452,1.16783a11.158,11.158,0,0,1,5.23309-1.72649c-.29569.55307-.59307,1.10652-.89858,1.65484a46.02585,46.02585,0,0,1,7.6678-3.025,22.40278,22.40278,0,0,1-3.11406,6.07658,5.00435,5.00435,0,0,1,2.91116-.25775A16.24424,16.24424,0,0,1,58.36264,12.69976Z" style="fill:#7bc663"/><path id="fill1" d="M61.70537,5.82429a4.95887,4.95887,0,0,0-2.9135.25849A22.07955,22.07955,0,0,0,61.89955,0a45.66514,45.66514,0,0,0-7.65717,3.03767q.452-.8335.904-1.66726A11.29359,11.29359,0,0,0,49.91018,3.0979c.89232-.85788-.80792-1.58068-1.64592-1.159s-1.66066,1.633-2.699,1.86678C45.36639,2.38992,43.67929,2.74369,42.66,3.404S40.52435,5.29575,39.189,5.56176a.53958.53958,0,0,0-.27516-1.01441,2.8549,2.8549,0,0,0-1.67807.67831C35.61249,6.30592,33.998,7.45435,32.39811,8.57933c.04087-.64743.0818-1.298.12376-1.94664A34.14441,34.14441,0,0,0,27.269,10.1902a4.80942,4.80942,0,0,0-4.44774,2.5867c-.264-.5834-.52382-1.16969-.797-1.74833a26.78876,26.78876,0,0,0-5.26018,5.07531c.248-1.41162-1.8256-.90989-2.48395-.07587s-1.12961,2.434-2.28043,2.97251a.51047.51047,0,0,0-.45564-.88334,1.94412,1.94412,0,0,0-1.163,1.06334,45.70011,45.70011,0,0,0-3.03233,6.05829c-.32025-.486-.63824-.97645-.97408-1.45309a29.7674,29.7674,0,0,0-2.10093,6.90016A1.2889,1.2889,0,0,0,2.55126,30.219a46.69436,46.69436,0,0,1,.3097,6.39722,1.53539,1.53539,0,0,0-1.87824-.85333c.98681,2.3654,1.97905,4.72661,2.9941,7.08013-.911-.1097-1.82166-.22319-2.73253-.33422,1.83308,1.72633,3.674,3.44522,5.50325,5.17508a1.204,1.204,0,0,0-1.62187,1.05A2.778,2.778,0,0,1,8.19743,52.11c-.276,1.96823-1.82334,3.36843-3.2245,4.63311S2.03539,58.97254.58375,60.11461c-.25541.20094-.28395.59689-.5117.82755-.02559.02591-.10636.01957-.05566.09243a2.42285,2.42285,0,0,0,.41225.46051c.138.09193.30453.45987.49974.44361.36481-.03037.85511-.14065,1.24544-.19317a.94108.94108,0,0,0,.43168-.2754c2.42013-2.17886,4.84809-4.37952,7.35017-6.479a.42007.42007,0,0,1,.2038-.11859.41092.41092,0,0,1,.27037.0665,5.33394,5.33394,0,0,1,2.24666,2.47943c.21358.47257.36015.935.85147,1.14135.03726.01565-.11262.0362-.08841.04034s.08126.06413.12181.04177a1.85745,1.85745,0,0,0,.18693-.235c.02491-.0287-.04.02063-.032.007.30437-.5148.61367-1.03756.91984-1.5556q1.89935,1.90789,3.81171,3.803c.84565-1.45173,2.345-.97131,3.67136-.44.5824.23331,1.23463.42648,1.831.68827a1.7983,1.7983,0,0,0,.44551.08419c.19077.03071.56216.03066.78186.08864-.205-.523-.423-1.04271-.6331-1.56443,2.40459.13484,4.8104.25261,7.21573.377q-.24786-.959-.49559-1.91821,3.43937-.12588,6.8794-.22495c-.01623-.05267-.03947-.12925-.05408-.17656s-.00093-.07936-.0117-.11881a13.74473,13.74473,0,0,0-.50382-1.55233,1.90018,1.90018,0,0,1-.0436-.45277,1.20508,1.20508,0,0,0-.14087-.40682c-.06926-.11689-.25458-.15949-.3394-.26925.47178-.174.95011-.35947,1.42088-.54562.05674-.02241.11132-.04172.1674-.06405,2.53123-1.00855,4.99588-2.13757,7.43157-3.35809q-.82929-.55391-1.65843-1.1074a13.25717,13.25717,0,0,0,6.9102-4.98374q-1.0741-.0789-2.14828-.15763A18.08344,18.08344,0,0,0,54.54139,39.036c-.67941.066-1.35972.12623-2.038.20293a19.08376,19.08376,0,0,0,5.42353-8.35282c-.90319.2977-1.80487.59995-2.70719.90032a16.47073,16.47073,0,0,0,3.55962-7.51652q-1.03587.27177-2.07168.54339a23.28628,23.28628,0,0,0,3.76629-7.08041q-1.29387.1346-2.5877.269a20.15067,20.15067,0,0,0,2.96548-5.79312,3.48884,3.48884,0,0,0-2.49269.49539A16.22376,16.22376,0,0,0,61.70537,5.82429ZM38.91922,7.12336a10.52762,10.52762,0,0,1,1.02921-.78316,22.53584,22.53584,0,0,1,4.43313-2.60026c-.37651.84678-.25686,1.62474-.71394,2.47233a21.54705,21.54705,0,0,0-2.18258,7.3562,33.4426,33.4426,0,0,1-1.99311,8.05679,28.7324,28.7324,0,0,1-1.6722,3.17873,3.774,3.774,0,0,1-.95892,1.00206c-.95767.78734-2.102,1.72155-3.0937,2.53768.49961-3.07423,1.85182-6.11521,1.84718-9.22466a30.99406,30.99406,0,0,1,.13294-6.19288A10.40128,10.40128,0,0,1,38.91922,7.12336ZM33.18343,9.33719A31.554,31.554,0,0,1,37.798,5.94006c-.17119,1.30634-1.0443,2.30578-1.67735,3.41944a13.17057,13.17057,0,0,0-1.62292,5.3725,24.71548,24.71548,0,0,0,.27943,5.3032,5.03953,5.03953,0,0,1-.25524,1.97049c-.52331,2.01234-1.12228,4.44086-1.652,6.528a3.40673,3.40673,0,0,1-.33394.94188,5.8562,5.8562,0,0,1-.88923,1.05471,10.08845,10.08845,0,0,0-2.38906,3.67122,3.09864,3.09864,0,0,1-.47247,1.04319,2.46316,2.46316,0,0,1-.81974.588c-.599.33411-1.18083.62181-1.775.95089a70.38411,70.38411,0,0,1,1.36608-6.92034,6.44362,6.44362,0,0,0,.23549-1.14591,18.111,18.111,0,0,0-.40936-2.85193,10.83557,10.83557,0,0,1,.17776-2.78447c.15732-1.16635.40552-3.10075.54133-4.37456a13.32814,13.32814,0,0,1,.23563-1.769,24.7441,24.7441,0,0,1,2.25525-5.74548c.18806-.36475.31755-.72148.8841-.82346A3.95614,3.95614,0,0,0,33.18343,9.33719Zm-9.58249,4.58319c.10883-.36252.14334-.60966-.13979-.82474.79618-.65066,1.59328-1.33695,2.39373-1.975.2665.45519-.299,1.48864.19755,1.72093s.78165-.25134,1.08029-.61635A24.89536,24.89536,0,0,1,30.903,8.49687c.14529-.11462.36967-.21313.46559-.1249s.03887.12441.02062.19738a5.34831,5.34831,0,0,1-.90525,1.60155,18.45415,18.45415,0,0,0-2.41078,4.75448,47.42792,47.42792,0,0,0-1.50054,9.075,8.94128,8.94128,0,0,0,.0098,2.55457,14.061,14.061,0,0,1,.44544,1.88748,4.17854,4.17854,0,0,1-.17138,1.26218c-.49593,2.21149-.86365,4.28591-1.2914,6.49582a2.85935,2.85935,0,0,1-.61472,1.57188c-1.24128,1.47415-2.69918,3.09076-3.99333,4.603.78059-3.02327.50358-5.83027.32679-8.9419-.1581-2.78253-.15352-5.64257-.12734-8.48589.00626-.679.33489-1.37061.42459-2.10871s-.1064-1.19782-.06793-2.08913a9.88881,9.88881,0,0,1,.726-2.891C22.631,16.7916,23.248,15.096,23.60094,13.92038ZM16.64733,17.821a1.81807,1.81807,0,0,1,.27969-.46879,32.98285,32.98285,0,0,1,4.54774-4.8464c.24708.63874-.36229,1.443.16449,1.96262.28927.28532.82256-.01809.92469-.35966-.41958,1.51649-.95521,2.99417-1.45835,4.499A7.834,7.834,0,0,0,20.57236,20.96c-.00683.47147.11489.83137.11264,1.33788a12.12587,12.12587,0,0,1-.22239,1.65809,27.27028,27.27028,0,0,0-.2275,4.61985c.036,2.02469.14346,4.00983.33859,5.98084a20.432,20.432,0,0,1,.00716,6.691,9.68851,9.68851,0,0,0-.4533,2.23615.91571.91571,0,0,1-.40953.66827A11.80808,11.80808,0,0,1,16.7184,45.99a20.95619,20.95619,0,0,0-1.20985-8.681,14.72472,14.72472,0,0,1-.53414-4.12966c-.05711-.91576-.29634-1.982-.36246-2.83173a18.442,18.442,0,0,1-.00691-2.284c.06063-1.65293.11243-3.23735.18368-4.88161a5.44926,5.44926,0,0,1,.27634-1.88263c.41451-1.0163,1.237-1.85273,1.49056-2.93825A4.23256,4.23256,0,0,1,16.64733,17.821ZM36.77171,53.67686c-.16163.06182-.35751.11018-.44379.26277-.4102.72551.539,1.32362.52639,2.09353-2.18239.34415-4.35356.63193-6.54185,1.0103a.8439.8439,0,0,0-.582,1.02857,1.9489,1.9489,0,0,0,.74633.95425c-1.97523-.13609-3.95485-.28832-5.93333-.43247a1.73636,1.73636,0,0,0-1.23378.214c-.33691.27017-.37079.841.085.95656-1.58334-.49151-3.19679-1.03146-4.77015-1.52807-.39366-.12426-.95777-.10047-.996.371A15.72724,15.72724,0,0,0,14.4827,55.729a.6181.6181,0,0,0-.8142.30582,1.92413,1.92413,0,0,0-.158.95613,11.21167,11.21167,0,0,0-4.28-3.64627c.27746.64491-.18864,1.16942-.6689,1.59189-1.92337,1.69183-3.88491,3.3735-5.81813,5.06411,1.99267-2.07131,4.05862-4.02984,6.02849-6.14143a2.80087,2.80087,0,0,0,.4076-3.16566,5.09117,5.09117,0,0,0-2.43207-2.15154,1.4584,1.4584,0,0,0,1.2507-.511,23.80452,23.80452,0,0,0-4.07169-4.082q.589-.00677,1.178-.01337A52.29318,52.29318,0,0,0,2.81311,37.872c.27471.09872.54856.21808.79288-.11018a1.60341,1.60341,0,0,0,.23689-1.17812c-.10345-1.6075-.20609-3.40754-.23267-5.06258.333.22481.28011.64388.3711.98945s.46184.663.76186.36514a.448.448,0,0,0,.09282-.25555c.48038-2.36705.99667-4.73033,1.52035-7.08771a1.2164,1.2164,0,0,1,.20076,1.1221,1.73317,1.73317,0,0,0,.02781,1.18607.50268.50268,0,0,0,.908-.11576,20.87948,20.87948,0,0,1,3.17161-7.0301c.05572.32627.15485.6916.63361.60724a2.17516,2.17516,0,0,0,1.18812-.99166c.96652-1.36268,1.96779-2.76665,2.93226-4.13612a5.41521,5.41521,0,0,1-.62572,4.18338,6.95921,6.95921,0,0,0-1.0199,4.14559,81.1949,81.1949,0,0,0,2.38965,19.05822,4.50373,4.50373,0,0,1-.84386,3.54025,15.136,15.136,0,0,1-2.697,2.76225Q11.40309,44.589,10.12515,39.33627a31.04412,31.04412,0,0,0-1.34223-4.42866,8.41071,8.41071,0,0,1-.84-2.68346A6.65732,6.65732,0,0,1,8.43563,29.794c.272-.90556.662-2.04.95087-2.98267-1.07157,1.70212-2.25488,3.51444-2.184,5.57407.04842,1.40714.74982,2.3753,1.18943,3.65484a26.71845,26.71845,0,0,1,.92275,3.95859,73.88791,73.88791,0,0,0,2.54926,9.45461c.41966,1.31193-.51229,2.69138-1.32014,3.73014a.83709.83709,0,0,0,1.12378-.06414,2.735,2.735,0,0,0,.663-1.08512c4.12592-.2803,7.53,1.00555,11.34375,2.5s7.444,2.32748,11.52128,1.35652a17.0621,17.0621,0,0,0-3.499-.192c-6.43434-.57748-11.876-4.23544-18.37812-4.38061a4.37523,4.37523,0,0,1,3.041-2.99781,11.1604,11.1604,0,0,1,4.3796-.21007c5.13029.46292,10.08051,1.16121,15.17655,2.03263a8.55624,8.55624,0,0,0,3.99376.03849c1.43431-.40293,3.27854-.729,4.34584.68609C41.77025,51.79257,39.255,52.72725,36.77171,53.67686ZM56.712,32.22635a36.21186,36.21186,0,0,1-6.5365,8.10765,1.86574,1.86574,0,0,0,2.21228.06047,27.24031,27.24031,0,0,1-4.5784,4.081.66874.66874,0,0,0,.20129,1.14074,2.21,2.21,0,0,0,1.44129-.11686,9.20679,9.20679,0,0,1-3.54737,2.54213,14.24042,14.24042,0,0,1-2.53035.64975c-.93722.18944-2.45453.4956-3.338.67122a6.5455,6.5455,0,0,1-2.26034.20025c-2.09836-.28595-4.08243-.60121-6.13633-.90605a81.24781,81.24781,0,0,0-15.22216-1.23376c1.15724-.74084,2.281-1.486,3.44126-2.23149a6.80952,6.80952,0,0,1,1.20825-.68211,6.22467,6.22467,0,0,1,1.53677-.36508c4.56734-.54992,8.96236-.41266,13.61329-.51268A44.10224,44.10224,0,0,0,49.976,41.41864a1.91653,1.91653,0,0,0,.85153-.55957c-1.14438.21044-2.29379.4448-3.43965.66166-1.9232.364-3.90554.82768-5.83654,1.03152-5.353.56506-10.68023.2259-16.02248.58007a23.77,23.77,0,0,0-4.36233.7431,32.0619,32.0619,0,0,1,2.86368-3.56994,2.59714,2.59714,0,0,1,.65315-.557,2.99454,2.99454,0,0,1,.951-.29346c3.95566-.67233,7.86242-1.22283,11.89082-1.57478a40.97506,40.97506,0,0,0,8.52185-1.152c.8002-.24506,1.63106-.596,2.40858-.91412C51.2389,34.67542,53.9742,33.4615,56.712,32.22635Zm.88325-6.44612A22.54245,22.54245,0,0,1,53.87678,32.014,7.57126,7.57126,0,0,1,52.066,33.60529a5.88691,5.88691,0,0,1-.87078.413,47.02578,47.02578,0,0,1-6.09371,2.243,45.8994,45.8994,0,0,1-7.17406.82717c-4.21012.40269-8.32264,1.01043-12.46786,1.76286A5.6368,5.6368,0,0,1,28.02,36.84418a3.92263,3.92263,0,0,0,2.24935-2.26311c.10339-.3263.43306-.456.768-.5656A125.63012,125.63012,0,0,1,45.86112,30.005a10.611,10.611,0,0,0,2.52728-.952c1.95855-.9391,3.91827-1.85955,5.8986-2.71829.35351-.15329.659-.29408,1.01138-.07188a1.10708,1.10708,0,0,0,1.12257-.03181A3.39361,3.39361,0,0,1,57.59522,25.78023Zm1.8119-6.92577q-1.88935,3.0228-3.7569,6.05272a1.74853,1.74853,0,0,1-.34351.44055,1.45736,1.45736,0,0,1-.43.22478c-2.05666.81025-4.0829,1.63666-6.11628,2.51547-.39571.171-.80861.356-1.22352.5091a43.14964,43.14964,0,0,1-4.947,1.32706c-4.02705.97189-8.0311,2.25842-11.97241,3.56633.08277-.17629.31756-.53455.51809-.51268.12964.01413.27524.14831.42878-.00053a1.39432,1.39432,0,0,0,.29286-.46018,12.189,12.189,0,0,1,4.46216-4.9419c.05127.11648.09885.234.1523.34957a29.71282,29.71282,0,0,1,9.21093-4.06987c.73411-.175,1.34227-.23364,2.02505-.38284a26.96884,26.96884,0,0,0,8.482-3.44949A7.77086,7.77086,0,0,1,59.40712,18.85446Zm-2.25509-5.967c-.256.32075-.58413.71184-.35468,1.0905s.627.22277,1.07181.02191,1.27609-.59333,1.79246-.82186a16.54382,16.54382,0,0,1-3.33923,5.20374,2.12151,2.12151,0,0,0-.608.75295c-.09816.30488.02289.63293.361.59048a37.28286,37.28286,0,0,1-9.31806,3.14776,28.02335,28.02335,0,0,0-9.11824,3.52754,25.9629,25.9629,0,0,0,6.49751-6.90729,2.91261,2.91261,0,0,1,1.46765-1.00892c3.11046-1.22257,6.107-2.39023,9.12256-3.75952-.13058-.24453-.35693-.20947-.611-.12661-3.00394.97982-5.95923,2.12808-8.85854,3.40224a20.7357,20.7357,0,0,1,6.13217-6.0521,3.605,3.605,0,0,0,1.04669-.75875A3.26764,3.26764,0,0,1,53.676,10.3989C55.00476,9.84215,56.32724,9.272,57.6541,8.701c.03364-.23905-.26123-.2572-.45947-.18569-1.35089.48729-2.733,1.00423-4.10116,1.47767a19.25778,19.25778,0,0,1,4.10644-5.1617c.1371-.12417.27879-.198.29-.43019a.46076.46076,0,0,0-.53751-.419,1.29157,1.29157,0,0,0-.66572.40856,27.26582,27.26582,0,0,0-4.303,5.50191c-1.08019,1.73289-3.36467,2.52587-4.76245,4.04528A70.82721,70.82721,0,0,0,50.625,5.60462a.83389.83389,0,0,0,.00663-.73611c-1.73125,3.49272-3.25207,6.98975-4.9191,10.55982a11.19386,11.19386,0,0,1-.9203,1.49209,55.58467,55.58467,0,0,1-5.89736,7.39835,27.97133,27.97133,0,0,0,2.76-6.59847c.57385-2.26834.73954-4.51363,1.18247-6.73566a10.64018,10.64018,0,0,1,2.72647-5.69259c.1766-.1819.32338-.30265.19219-.52876a19.55809,19.55809,0,0,1,2.91143-1.82636c.11028.43087-.49886,1.03939-.21978,1.366s.66148.08964.95115-.04818c.95632-.455,1.92025-.96331,2.88134-1.41152a12.0056,12.0056,0,0,0,1.25093-.67005,2.48874,2.48874,0,0,1-.88821.94924c-.34033.2735-.54223.88065-.244,1.1488s.58994.09542.86648-.005A62.48987,62.48987,0,0,0,59.87784,1.394c.2759-.13779.53958-.34637.509-.68044.07146.15791.25843.40491.16527.59078a41.2028,41.2028,0,0,1-3.573,5.74107.64661.64661,0,0,0,.606.423,1.89754,1.89754,0,0,0,.7623-.16063c.77012-.276,1.5295-.56075,2.29538-.83761A18.85954,18.85954,0,0,1,57.152,12.88746Z"/></g></g></svg>