<svg xmlns="http://www.w3.org/2000/svg" viewBox="0 0 106.87 105.96"><defs><style>.cls-1{fill:#fff;}.cls-2{fill:#7bc663;}</style></defs><title>tulip-leaf-iso</title><g id="Layer_2" data-name="Layer 2"><g id="Tulip_Leaf" data-name="Tulip Leaf"><path id="void" class="cls-1" d="M101,7.87c1.43-1.89,2.84-3.81,4.24-5.71C99.8,9.23,92.63,14.85,85,19.5c-8.44,5.1-17.47,9.09-26.34,13.37-4.36,2.08-8.69,4.26-12.95,6.47C33,45.94,19.76,54,14.27,67.24c-2.13,5.1-2.91,10.64-4.33,16A81.27,81.27,0,0,1,1.05,103.6a2.94,2.94,0,0,0,.67-.46c-.33.37-.69.72-1,1l.37-.59a9,9,0,0,1-1,.61c.28,1.84,2.89,2,4.7,1.56l8.74-1.87c6.16-1.33,12.37-2.67,18.07-5.37,11.12-5.23,19.32-15.1,26.37-25.18.54-.77,1.07-1.52,1.59-2.3s1.19-1.72,1.77-2.6a.23.23,0,0,1-.24-.07.5.5,0,0,1,.32-.12,0,0,0,0,1,.07,0C71.57,53,80.46,36.92,91,22a.25.25,0,0,0-.15.11c-.07,0,0-.11.06-.08s.08-.1.09,0a2.12,2.12,0,0,1,.2-.24s0,0,0,0v0l.35-.49a.12.12,0,0,1-.14,0,.7.7,0,0,1,.35-.45.44.44,0,0,1-.06.22c.35-.51.73-1,1.11-1.51a.18.18,0,0,1,.09-.12,3.62,3.62,0,0,1,.27-.41l.26-.34c.56-.77,1.12-1.52,1.7-2.28a.22.22,0,0,1-.25,0s.08-.06.13-.07a.46.46,0,0,1,.18-.13.22.22,0,0,1-.06.24A3.45,3.45,0,0,1,95.5,16a.09.09,0,0,1-.06,0,.31.31,0,0,1,0-.28,1.64,1.64,0,0,1,.16-.26c0-.07.07-.15.15-.18a.14.14,0,0,1,.19,0,1.71,1.71,0,0,1-.21.19.76.76,0,0,0-.16.25.39.39,0,0,0,0,.14c1.19-1.57,2.4-3.11,3.65-4.63a35.46,35.46,0,0,1,7-7Zm.33-.9c0,.07,0,.11,0,.16a.13.13,0,0,1-.2,0ZM98,10.87a.35.35,0,0,1,.41-.18l-.16.2c-.07.1-.24.16-.27.07ZM32.58,94.45a.32.32,0,0,0,.18-.1c.06,0,0,.11-.06.08S32.59,94.52,32.58,94.45Zm-2.66,1.71c-.14.16-.28.29-.41.43a.2.2,0,0,1,0-.21A.34.34,0,0,1,29.92,96.16Zm8.55-5.89c0-.06.14,0,.18,0S38.48,90.34,38.47,90.27Zm7.69-6.17s.09,0,.09,0,0,.08-.07.12A.14.14,0,0,1,46.16,84.1Zm1.25-1.51c.05,0,.14,0,.17.07a.38.38,0,0,1,0,.18c0,.09-.07.17-.13.14a.32.32,0,0,1-.2.26c-.05-.12.07-.29.2-.26S47.31,82.68,47.41,82.59Zm.11-.39c.06,0,0,.16,0,.17S47.45,82.23,47.52,82.2Zm1.86-1.35c.06-.08.24,0,.18.15S49.32,81,49.38,80.85Zm.43-.29c-.06,0,0-.1.13-.09A.43.43,0,0,1,49.81,80.56Zm.81-1.43s0,.1,0,.09S50.57,79.13,50.62,79.13Zm2.11-1.93s0,.1,0,.09S52.69,77.19,52.73,77.2Zm.68-.7c0-.08,0-.16.06-.17a.58.58,0,0,0,.13.15A.13.13,0,0,1,53.41,76.5ZM84,25.55a.11.11,0,0,1-.15.09.11.11,0,0,1,0-.17.23.23,0,0,1,.16-.11C84,25.41,84,25.48,84,25.55ZM71.9,45.21l.11.16c0,.06-.12.05-.18,0A.1.1,0,0,1,71.9,45.21Zm-7,12.6s0,0-.1,0v0l0-.06ZM60.08,64.7s0-.1,0-.09S60.12,64.7,60.08,64.7ZM59,65.78a1.15,1.15,0,0,0-.49,0,.23.23,0,0,1,.16-.24s0,.07.09.1A.28.28,0,0,1,59,65.78Zm-1.46,1.77s0-.09,0-.08S57.56,67.56,57.51,67.55ZM53.23,73s0-.1,0-.09S53.27,73,53.23,73ZM48,78.42c-.09.14-.2.28-.3.43a.26.26,0,0,1,.22-.37C47.86,78.42,48,78.37,48,78.42Zm-.93.71s0-.1,0-.09S47.08,79.13,47,79.13Zm-7.41-3.39s.14,0,.15,0l-.15.11A.08.08,0,0,1,39.63,75.74Zm5.64-6c0,.09-.18.15-.21,0A.11.11,0,0,1,45.27,69.75Zm0-.76s0,.1,0,.09S45.2,69,45.24,69Zm1-.7s.07,0,.08.06.08.2,0,.21A.44.44,0,0,0,46.22,68.29Zm4.19-4.6s0,.1,0,.09S50.37,63.69,50.41,63.69ZM49,59.87c.1,0,.16.16.06.19S48.85,59.9,49,59.87ZM61.52,48.6l.18-.13a.12.12,0,0,1,0,.18S61.56,48.65,61.52,48.6Zm5-.41a.36.36,0,0,1,0,.14,1.58,1.58,0,0,1-.18.13C66.27,48.37,66.41,48.24,66.53,48.19ZM71,43.66c0-.06.11-.1.1,0a.45.45,0,0,0-.17.33A.17.17,0,0,1,71,43.66Zm.78-.75c-.06-.06-.06-.15,0-.18a.11.11,0,0,1,.15,0Zm-7.94,7.26c0,.07,0,.13-.07.14s-.05-.1,0-.14S63.85,50.12,63.84,50.17Zm-12,12.43a.23.23,0,0,1,.25,0,2.43,2.43,0,0,1-.28.2A.17.17,0,0,1,51.88,62.6Zm13.8-9.05a.09.09,0,0,1,.06-.12.12.12,0,0,1,0,.14S65.67,53.6,65.68,53.55Zm-27.53,29c.07,0,.12-.07.18-.11s0,.11-.06.08S38.16,82.63,38.15,82.56Zm3.74-3c.07,0,.17.07.13.16s-.16.11-.21,0S41.8,79.59,41.89,79.58ZM48.36,73c0,.08,0,.22-.12.16S48.26,72.92,48.36,73Zm2.08-3.12a.12.12,0,0,1,.17.05l-.17.11A.11.11,0,0,1,50.44,69.88Zm3.37-2.83s0,.07,0,.09S53.77,67,53.81,67.05Zm2.85-4.15a.1.1,0,0,1,.16,0c0,.08,0,.16,0,.18Zm1-.28a1.8,1.8,0,0,1,.42-.61c.08-.07.23-.14.26,0-.2.24-.4.5-.63.75C57.7,62.76,57.69,62.69,57.7,62.62Zm1.83-2.12s.1,0,.11,0a.23.23,0,0,1-.06.12,1.19,1.19,0,0,1-.15.21A.23.23,0,0,1,59.53,60.5Zm1.91-2.74s0-.09,0-.08S61.48,57.77,61.44,57.76ZM76.55,34s-.07,0-.09,0,0,0-.06-.05l.16-.11a0,0,0,0,1,0,.05S76.58,34,76.55,34ZM41.12,66.65a.12.12,0,0,1-.19,0,.1.1,0,0,1,.06-.13Zm-1.18.87s0,0,0,.06h0S39.89,67.51,39.94,67.52Zm-1.51,1.81c-.11,0-.17-.17,0-.19S38.53,69.3,38.43,69.33Zm-.32.87a.12.12,0,0,1,0,.17c0-.05-.07-.12-.11-.17A.11.11,0,0,1,38.11,70.2ZM29.58,80a.31.31,0,0,1,0-.25.11.11,0,0,1,.09-.14A.37.37,0,0,1,29.58,80Zm-10-2.3s0,.08-.07.12a.13.13,0,0,1,0-.16S19.6,77.65,19.59,77.69Zm-.39,1.09s-.1,0-.09,0a.15.15,0,0,1,.07-.15S19.23,78.74,19.2,78.78Zm1.94-14.31c.05,0,0,.09,0,.09S21.12,64.46,21.14,64.47Zm1.11-2.15a0,0,0,0,1,.09,0,.12.12,0,0,1-.07.13A.22.22,0,0,1,22.25,62.32Zm1.11-1.65a.15.15,0,0,1,.16.16.15.15,0,0,1-.22.06A.16.16,0,0,1,23.36,60.67Zm.84-1.11s.06,0,.09,0a.1.1,0,0,1-.06.12A.17.17,0,0,1,24.2,59.56ZM47.59,43.17s0,0,0,0S47.55,43.14,47.59,43.17Zm5.16-2.85c0,.11-.09.3-.2.23s0-.26.05-.4a.21.21,0,0,1,0-.19c.06-.06.15-.07.18,0S52.73,40.18,52.75,40.32Zm1.61-.67a.33.33,0,0,1,.1-.23l.12.16c0,.07,0,.18-.06.21S54.34,39.74,54.36,39.65Zm1.08-.77s0,.1,0,.09S55.39,38.88,55.44,38.88ZM57,38.05a.19.19,0,0,1,0,.31s-.05-.08-.07-.13S56.91,38.09,57,38.05Zm1.76-.75c0-.06.09,0,.11,0a.18.18,0,0,1-.09.12S58.71,37.37,58.74,37.3Zm3.08-2s0,.1,0,.09S61.77,35.27,61.82,35.28Zm1.91-.43s.09,0,.11,0l0,0s0,0,0,0,0,.07,0,.06,0,0,0-.05S63.7,34.87,63.73,34.85ZM67,32.66c.09,0,.15.17,0,.22S66.92,32.69,67,32.66Zm3.47-1.54a.11.11,0,0,1,.18,0A.12.12,0,0,1,70.51,31.12Zm.25-.28a.12.12,0,0,1,.07-.13c0,.05,0,.1,0,.14S70.75,30.91,70.76,30.84Zm4-2.34s0,.09,0,.09S74.74,28.49,74.78,28.5Zm6.31-2.39a.43.43,0,0,1,.12-.28c.07,0,.22,0,.21.11l0,.06a2.93,2.93,0,0,0-.28.36A.31.31,0,0,1,81.09,26.11Zm1.58-1.6a.68.68,0,0,1,.64-.43,2.19,2.19,0,0,0-.42.38C82.83,24.54,82.71,24.59,82.67,24.51ZM22.69,77a.1.1,0,0,1,.18,0s-.05,0-.08.07,0,0,0,0S22.64,77.07,22.69,77Zm1.89-11c-.12,0-.18-.17-.08-.2S24.67,66,24.58,66Zm.51-1s.1,0,.09,0S25.08,65,25.09,65Zm1.8-3.33c.05,0,0,.1,0,.09S26.85,61.64,26.89,61.64ZM78.78,27.76a.25.25,0,0,0-.22.08c-.06-.06,0-.14,0-.2a.33.33,0,0,1,.21,0A.08.08,0,0,1,78.78,27.76ZM75,31.41s0-.09,0-.09S75,31.41,75,31.41Zm-.62.69s0-.09,0-.09S74.43,32.11,74.38,32.1Zm-.27-.84s0-.09,0-.08S74.16,31.27,74.11,31.26Zm-12,13.28a.2.2,0,0,1-.06.24.18.18,0,0,1-.23,0s.08-.06.11-.1A.68.68,0,0,0,62.06,44.54Zm-7.32,6a.36.36,0,0,1-.14,0,.68.68,0,0,1-.13-.18C54.55,50.29,54.69,50.43,54.74,50.55Zm-.44-.39s-.1.05-.09,0a.11.11,0,0,1,.07-.12A.11.11,0,0,1,54.3,50.16ZM51,53.3c0,.06-.14,0-.18,0A.11.11,0,0,1,51,53.3Zm-2.58,2.26a.11.11,0,0,1-.17-.05,1,1,0,0,1,.18-.1A.09.09,0,0,1,48.41,55.56Zm-1,.52-.15.13a.14.14,0,0,1,0-.16C47.32,56,47.43,56,47.44,56.08ZM45,57.51c-.05,0,0-.1,0-.09S45,57.51,45,57.51Zm-1.83,2.12a.16.16,0,0,1-.13-.21c.06-.08.2-.08.23,0S43.25,59.62,43.16,59.63Zm-3.24,2.85a.18.18,0,0,0-.12.19,1,1,0,0,0-.18.1.31.31,0,0,1,.17-.33C39.84,62.4,39.93,62.42,39.92,62.48ZM34.15,67s0-.1,0-.09S34.19,67,34.15,67Zm-5.42,7.11s-.07.13-.11.07,0,0,0,0a.25.25,0,0,0-.07-.12A.15.15,0,0,1,28.73,74.14ZM30,65.46s0,.09,0,.08S30,65.45,30,65.46ZM34.17,60c0-.07.11-.09.12,0a.3.3,0,0,0-.18.1C34.05,60.05,34.13,60,34.17,60Zm2-1.26s0,.1,0,.09S36.08,58.72,36.13,58.72Zm2.63-2.89c.07-.1.15-.18.23-.28a.19.19,0,0,1,.2,0c-.1,0-.12.16-.2.21S38.79,55.93,38.76,55.83Zm.65-.21s0,0,.05,0,0,0,0,.09A.06.06,0,0,1,39.41,55.62Zm-.89-3.77c0-.05.11-.1.1,0a.63.63,0,0,0-.18.22C38.36,52,38.41,51.83,38.52,51.85Zm1.13-1.06s0,.05,0,.05S39.61,50.76,39.65,50.79ZM50,45.88a1,1,0,0,1,.15-.14.69.69,0,0,1,.05.13v0a.43.43,0,0,0-.12,0A.11.11,0,0,1,50,45.88Zm1.33-.94s.11-.09.09,0a.53.53,0,0,0-.15.11C51.17,45,51.26,44.91,51.3,44.94Zm3.2-1.55s0,.1,0,.09S54.46,43.39,54.5,43.39Zm7.59-4a.56.56,0,0,0,.17-.33.18.18,0,0,1-.08.3S62.08,39.4,62.09,39.36Zm.33-.6a.45.45,0,0,1,.28-.45l.13.15Zm6.63-3.63a.27.27,0,0,0,.17-.22.11.11,0,0,1-.08.19C69.16,35.17,69,35.2,69.05,35.13Zm2.69-2.25a.12.12,0,0,1,.17,0l-.18.11C71.67,33,71.68,32.92,71.74,32.88Zm-30,20.86a.21.21,0,0,1,.32-.06l-.23,0s0,0,0,.06S41.69,53.76,41.7,53.74ZM66.42,38.38l-.23.15c0,.12-.16.17-.21.07s.14-.15.19-.21S66.39,38.29,66.42,38.38ZM58.73,43.6s0-.09,0-.09S58.77,43.61,58.73,43.6Zm-6.26,4.24-.09-.13a.34.34,0,0,1-.24-.09.39.39,0,0,1,.28,0A.14.14,0,0,1,52.47,47.84Zm-2.12.73s-.07.06-.12.07,0-.17,0-.2S50.41,48.51,50.35,48.57Zm-3.07,2.27s0,.1,0,.09S47.26,50.84,47.28,50.84Zm-6.7,3.6c.06-.08.22,0,.16.11S40.52,54.54,40.58,54.44Zm-5.53.27a.22.22,0,0,0-.15.11c-.07,0,0-.11.06-.08S35.06,54.65,35.05,54.71Zm-4.44,3.68c-.05,0,0-.1,0-.09S30.65,58.4,30.61,58.39Zm-2.53,1.82a.14.14,0,0,1-.08.12s0-.09,0-.14S28.07,60.16,28.08,60.21ZM26.89,76.55s0-.09,0-.08S26.92,76.56,26.89,76.55Zm-2.09,2.8a.14.14,0,0,1,.2,0,.22.22,0,0,0-.17.18s0,.11-.07.15a.71.71,0,0,1-.08-.18A.21.21,0,0,1,24.8,79.35ZM60.25,46l.44-.31c.06-.06.17-.09.18,0a.51.51,0,0,1-.07.17.37.37,0,0,1-.13.12A.4.4,0,0,1,60.25,46Zm5.46-4.62s0,0,0,.07-.07,0,0,0l.25-.44a.26.26,0,0,1,0,.34A.15.15,0,0,1,65.71,41.39ZM20.82,74.13a.1.1,0,0,1,.05-.17.53.53,0,0,0,.11-.09A.2.2,0,0,1,20.82,74.13Zm-.42,1.45a.28.28,0,0,1-.18.36A.27.27,0,0,1,20.4,75.58ZM88.05,20.11c.1-.05.18-.13.29-.2s.17-.09.25-.05.11.18,0,.18a.93.93,0,0,0-.43.25C88.15,20.24,88.09,20.18,88.05,20.11ZM43.84,41.73a.14.14,0,0,0-.1.07.13.13,0,0,1,0-.2c.07,0,.12.07.07.1ZM14.59,88.23s0,.09,0,.09S14.54,88.22,14.59,88.23ZM61.3,63.31s0,.1,0,.09a0,0,0,0,1,0,0S61.26,63.33,61.3,63.31Zm33.24-50a1.69,1.69,0,0,1-.3.58l-.09-.29C94.22,13.44,94.36,13.26,94.54,13.29Zm-2,1.5c0-.08.16-.13.25-.18a.43.43,0,0,1-.08.37v0l-.1.05C92.53,15,92.51,14.87,92.57,14.79Zm-1.22.93c.1-.05.24-.07.31,0a.76.76,0,0,1-.5.26A.55.55,0,0,1,91.35,15.72ZM89,17.34s0,.1,0,.09S88.93,17.33,89,17.34ZM85.13,20a.12.12,0,0,1,.11,0,.68.68,0,0,1-.25.14A.18.18,0,0,1,85.13,20Zm-8.41,4.67c0,.05,0,.1,0,.14s-.1.05-.09,0S76.67,24.67,76.72,24.63ZM75.61,25a.45.45,0,0,0-.1.09h0s-.13,0-.08-.1A.14.14,0,0,1,75.61,25Zm-.81.93s0,0,0,0,0,0,0,0,0,0,0,0S74.78,25.91,74.8,25.92ZM56.74,34.36c0,.07,0,.14-.07.15s-.05-.1,0-.14S56.72,34.32,56.74,34.36Zm-.91.71c.12,0,.3-.08.38,0-.09,0-.18.11-.26.21a.61.61,0,0,1-.69,0Zm-1.3.56s.13-.09.19,0,0,.12,0,.17-.36.4-.57.29A5.75,5.75,0,0,1,54.53,35.63Zm-3.66,1.83a.14.14,0,0,1,.21.11.15.15,0,0,1-.18.15A.17.17,0,0,1,50.87,37.46Zm-3.79,2.36v0h0A0,0,0,0,1,47.08,39.82Zm-.39.28s0-.1,0-.09S46.74,40.1,46.69,40.1Zm-7.14,3.58s0,0,0,0a.15.15,0,0,1,0,.09.11.11,0,0,1-.16,0s0,0,0,0Zm-.43.13a.11.11,0,0,1,0,.18A.11.11,0,0,1,39.12,43.81Zm-4.61,2.61s0,.17,0,.18-.15-.05-.09-.11S34.46,46.44,34.51,46.42ZM32,47.67c.08,0,.13.18,0,.23a3.16,3.16,0,0,1-.33-.21A.44.44,0,0,1,32,47.67Zm-3.7,3.17c0-.07.08-.08.09,0a.33.33,0,0,0-.15.22C28.11,51,28.16,50.82,28.25,50.84Zm-1,.94c.05.08,0,.22-.12.16S27.15,51.69,27.25,51.78Zm-.35.33s0,.09,0,.08S26.86,52.1,26.9,52.11Zm-1.34,1.11c-.06.06-.17,0-.18,0A.11.11,0,0,1,25.56,53.22ZM17.45,63.1s-.1,0-.09,0S17.46,63.06,17.45,63.1Zm-.39.55c0,.05,0,.08-.06.12a.13.13,0,0,1,0-.16S17.07,63.61,17.06,63.65ZM3.39,105.37a2.16,2.16,0,0,1-1,0,1.23,1.23,0,0,1-.81-.59,2.32,2.32,0,0,0,.7-.4,1,1,0,0,0,1.37.5.53.53,0,0,0,0,.37C3.6,105.31,3.48,105.34,3.39,105.37Zm3.47-1.24c0-.07,0-.13,0-.19.27-.39.86-.26,1.29-.42.17-.06.39-.16.53,0C8.17,103.86,7.38,103.72,6.86,104.13Zm5.28-1.4a.51.51,0,0,1-.09.16.45.45,0,0,1-.17.09c-.13,0-.24.07-.39.12s-.4.11-.52,0a2.82,2.82,0,0,0,.73-.38l.55-.36C12.21,102.47,12.19,102.6,12.14,102.73Zm1.21-.86s-.19,0-.2,0l.92-.57c.08-.08.24-.12.29,0C14,101.46,13.68,101.65,13.35,101.87Zm22.17-6.18h0a.26.26,0,0,1-.21-.08c.07,0,.13-.09.18-.15a.17.17,0,0,1,.21,0C35.76,95.53,35.65,95.62,35.52,95.69Zm6.23-4s0-.1,0-.09S41.79,91.66,41.75,91.66ZM48,85.5s.1,0,.09,0S48,85.54,48,85.5ZM59.67,69.3v0c0,.07-.1.16-.19.15s-.26,0-.3.06l-.13-.18a.75.75,0,0,1,.59,0s0,0,0,0a.39.39,0,0,0-.2-.46c-.06-.06,0-.13.09-.12s.13.06.19.07a.3.3,0,0,1,.18.31A.25.25,0,0,1,59.67,69.3Zm.6-1.58s0-.1,0-.09S60.32,67.73,60.27,67.72Zm.54-.21a.17.17,0,0,1-.05-.14s.12-.05.12,0A.13.13,0,0,1,60.81,67.51Zm.86-1.64s0,.09,0,.09S61.63,65.86,61.67,65.87Zm0,.77a.19.19,0,0,1-.07-.29l.07.11C61.72,66.51,61.72,66.63,61.66,66.64Zm1.89-4a.61.61,0,0,1-.08.32.34.34,0,0,1,0-.36.35.35,0,0,1,.34-.15A2.11,2.11,0,0,0,63.55,62.65Zm1-1.27a.16.16,0,0,1,0-.16s.09,0,.1,0S64.56,61.34,64.5,61.38Zm-.14,2.06s0-.13.07-.1.13-.09.11,0A.75.75,0,0,0,64.36,63.44ZM65,61.57a.87.87,0,0,1,.38-.77c.06-.06.15-.09.18,0A3.34,3.34,0,0,0,65,61.57ZM66,60a.27.27,0,0,1-.09.15s-.14,0-.13-.07L65.9,60a.28.28,0,0,1,.23-.3Zm.16.39s0-.11.06-.08.13-.09.12,0A.52.52,0,0,0,66.17,60.34Zm11-17.45a.31.31,0,0,1,0-.25.15.15,0,0,1,.2,0C77.25,42.75,77.19,42.83,77.13,42.89Zm4.58-8,.18-.13a.14.14,0,0,1,0,.18A.13.13,0,0,1,81.71,34.87Zm1.13-1.06s0-.1,0-.09S82.89,33.82,82.84,33.81Zm.12-.18s0-.1,0-.09S83,33.63,83,33.63Zm2.17-3.2c-.13-.07,0-.23,0-.33s.09-.28,0-.32a.3.3,0,0,1,.29,0A2.59,2.59,0,0,1,85.13,30.43Zm1-2.48s.1,0,.09,0S86.15,28,86.15,28Zm8.54-11.24a.11.11,0,0,1-.2,0,.23.23,0,0,1,.2,0,.22.22,0,0,1,.08-.19C94.83,16.58,94.78,16.75,94.69,16.71Zm3-4.77s0,0,0-.07a.11.11,0,0,1,0,.05Zm1.68-2.3s0-.1,0-.09S99.43,9.64,99.41,9.64Zm.21-.17a.38.38,0,0,1,.2-.38.42.42,0,0,1,.43,0C100,9.24,99.82,9.34,99.62,9.47Z"/><path id="fill2" class="cls-2" d="M101,7.87c1.43-1.89,2.84-3.81,4.24-5.71C99.8,9.23,92.63,14.85,85,19.5c-8.44,5.1-17.47,9.09-26.34,13.37-4.36,2.08-8.69,4.26-12.95,6.47C33,45.94,19.76,54,14.27,67.24c-2.13,5.1-2.91,10.64-4.33,16A81.27,81.27,0,0,1,1.05,103.6a2.94,2.94,0,0,0,.67-.46c-.33.37-.69.72-1,1l.37-.59a9,9,0,0,1-1,.61c.28,1.84,2.89,2,4.7,1.56l8.74-1.87c6.16-1.33,12.37-2.67,18.07-5.37,11.12-5.23,19.32-15.1,26.37-25.18.54-.77,1.07-1.52,1.59-2.3s1.19-1.72,1.77-2.6a.23.23,0,0,1-.24-.07.5.5,0,0,1,.32-.12,0,0,0,0,1,.07,0C71.57,53,80.46,36.92,91,22a.25.25,0,0,0-.15.11c-.07,0,0-.11.06-.08s.08-.1.09,0a2.12,2.12,0,0,1,.2-.24s0,0,0,0v0l.35-.49a.12.12,0,0,1-.14,0,.7.7,0,0,1,.35-.45.44.44,0,0,1-.06.22c.35-.51.73-1,1.11-1.51a.18.18,0,0,1,.09-.12,3.62,3.62,0,0,1,.27-.41l.26-.34c.56-.77,1.12-1.52,1.7-2.28a.22.22,0,0,1-.25,0s.08-.06.13-.07a.46.46,0,0,1,.18-.13.22.22,0,0,1-.06.24A3.45,3.45,0,0,1,95.5,16a.09.09,0,0,1-.06,0,.31.31,0,0,1,0-.28,1.64,1.64,0,0,1,.16-.26c0-.07.07-.15.15-.18a.14.14,0,0,1,.19,0,1.71,1.71,0,0,1-.21.19.76.76,0,0,0-.16.25.39.39,0,0,0,0,.14c1.19-1.57,2.4-3.11,3.65-4.63a35.46,35.46,0,0,1,7-7Zm.33-.9c0,.07,0,.11,0,.16a.13.13,0,0,1-.2,0ZM98,10.87a.35.35,0,0,1,.41-.18l-.16.2c-.07.1-.24.16-.27.07ZM32.58,94.45a.32.32,0,0,0,.18-.1c.06,0,0,.11-.06.08S32.59,94.52,32.58,94.45Zm-2.66,1.71c-.14.16-.28.29-.41.43a.2.2,0,0,1,0-.21A.34.34,0,0,1,29.92,96.16Zm8.55-5.89c0-.06.14,0,.18,0S38.48,90.34,38.47,90.27Zm7.69-6.17s.09,0,.09,0,0,.08-.07.12A.14.14,0,0,1,46.16,84.1Zm1.25-1.51c.05,0,.14,0,.17.07a.38.38,0,0,1,0,.18c0,.09-.07.17-.13.14a.32.32,0,0,1-.2.26c-.05-.12.07-.29.2-.26S47.31,82.68,47.41,82.59Zm.11-.39c.06,0,0,.16,0,.17S47.45,82.23,47.52,82.2Zm1.86-1.35c.06-.08.24,0,.18.15S49.32,81,49.38,80.85Zm.43-.29c-.06,0,0-.1.13-.09A.43.43,0,0,1,49.81,80.56Zm.81-1.43s0,.1,0,.09S50.57,79.13,50.62,79.13Zm2.11-1.93s0,.1,0,.09S52.69,77.19,52.73,77.2Zm.68-.7c0-.08,0-.16.06-.17a.58.58,0,0,0,.13.15A.13.13,0,0,1,53.41,76.5ZM84,25.55a.11.11,0,0,1-.15.09.11.11,0,0,1,0-.17.23.23,0,0,1,.16-.11C84,25.41,84,25.48,84,25.55ZM71.9,45.21l.11.16c0,.06-.12.05-.18,0A.1.1,0,0,1,71.9,45.21Zm-7,12.6s0,0-.1,0v0l0-.06ZM60.08,64.7s0-.1,0-.09S60.12,64.7,60.08,64.7ZM59,65.78a1.15,1.15,0,0,0-.49,0,.23.23,0,0,1,.16-.24s0,.07.09.1A.28.28,0,0,1,59,65.78Zm-1.46,1.77s0-.09,0-.08S57.56,67.56,57.51,67.55ZM53.23,73s0-.1,0-.09S53.27,73,53.23,73ZM48,78.42c-.09.14-.2.28-.3.43a.26.26,0,0,1,.22-.37C47.86,78.42,48,78.37,48,78.42Zm-.93.71s0-.1,0-.09S47.08,79.13,47,79.13Zm-7.41-3.39s.14,0,.15,0l-.15.11A.08.08,0,0,1,39.63,75.74Zm5.64-6c0,.09-.18.15-.21,0A.11.11,0,0,1,45.27,69.75Zm0-.76s0,.1,0,.09S45.2,69,45.24,69Zm1-.7s.07,0,.08.06.08.2,0,.21A.44.44,0,0,0,46.22,68.29Zm4.19-4.6s0,.1,0,.09S50.37,63.69,50.41,63.69ZM49,59.87c.1,0,.16.16.06.19S48.85,59.9,49,59.87ZM61.52,48.6l.18-.13a.12.12,0,0,1,0,.18S61.56,48.65,61.52,48.6Zm5-.41a.36.36,0,0,1,0,.14,1.58,1.58,0,0,1-.18.13C66.27,48.37,66.41,48.24,66.53,48.19ZM71,43.66c0-.06.11-.1.1,0a.45.45,0,0,0-.17.33A.17.17,0,0,1,71,43.66Zm.78-.75c-.06-.06-.06-.15,0-.18a.11.11,0,0,1,.15,0Zm-7.94,7.26c0,.07,0,.13-.07.14s-.05-.1,0-.14S63.85,50.12,63.84,50.17Zm-12,12.43a.23.23,0,0,1,.25,0,2.43,2.43,0,0,1-.28.2A.17.17,0,0,1,51.88,62.6Zm13.8-9.05a.09.09,0,0,1,.06-.12.12.12,0,0,1,0,.14S65.67,53.6,65.68,53.55Zm-27.53,29c.07,0,.12-.07.18-.11s0,.11-.06.08S38.16,82.63,38.15,82.56Zm3.74-3c.07,0,.17.07.13.16s-.16.11-.21,0S41.8,79.59,41.89,79.58ZM48.36,73c0,.08,0,.22-.12.16S48.26,72.92,48.36,73Zm2.08-3.12a.12.12,0,0,1,.17.05l-.17.11A.11.11,0,0,1,50.44,69.88Zm3.37-2.83s0,.07,0,.09S53.77,67,53.81,67.05Zm2.85-4.15a.1.1,0,0,1,.16,0c0,.08,0,.16,0,.18Zm1-.28a1.8,1.8,0,0,1,.42-.61c.08-.07.23-.14.26,0-.2.24-.4.5-.63.75C57.7,62.76,57.69,62.69,57.7,62.62Zm1.83-2.12s.1,0,.11,0a.23.23,0,0,1-.06.12,1.19,1.19,0,0,1-.15.21A.23.23,0,0,1,59.53,60.5Zm1.91-2.74s0-.09,0-.08S61.48,57.77,61.44,57.76ZM76.55,34s-.07,0-.09,0,0,0-.06-.05l.16-.11a0,0,0,0,1,0,.05S76.58,34,76.55,34ZM41.12,66.65a.12.12,0,0,1-.19,0,.1.1,0,0,1,.06-.13Zm-1.18.87s0,0,0,.06h0S39.89,67.51,39.94,67.52Zm-1.51,1.81c-.11,0-.17-.17,0-.19S38.53,69.3,38.43,69.33Zm-.32.87a.12.12,0,0,1,0,.17c0-.05-.07-.12-.11-.17A.11.11,0,0,1,38.11,70.2ZM29.58,80a.31.31,0,0,1,0-.25.11.11,0,0,1,.09-.14A.37.37,0,0,1,29.58,80Zm-10-2.3s0,.08-.07.12a.13.13,0,0,1,0-.16S19.6,77.65,19.59,77.69Zm-.39,1.09s-.1,0-.09,0a.15.15,0,0,1,.07-.15S19.23,78.74,19.2,78.78Zm1.94-14.31c.05,0,0,.09,0,.09S21.12,64.46,21.14,64.47Zm1.11-2.15a0,0,0,0,1,.09,0,.12.12,0,0,1-.07.13A.22.22,0,0,1,22.25,62.32Zm1.11-1.65a.15.15,0,0,1,.16.16.15.15,0,0,1-.22.06A.16.16,0,0,1,23.36,60.67Zm.84-1.11s.06,0,.09,0a.1.1,0,0,1-.06.12A.17.17,0,0,1,24.2,59.56ZM47.59,43.17s0,0,0,0S47.55,43.14,47.59,43.17Zm5.16-2.85c0,.11-.09.3-.2.23s0-.26.05-.4a.21.21,0,0,1,0-.19c.06-.06.15-.07.18,0S52.73,40.18,52.75,40.32Zm1.61-.67a.33.33,0,0,1,.1-.23l.12.16c0,.07,0,.18-.06.21S54.34,39.74,54.36,39.65Zm1.08-.77s0,.1,0,.09S55.39,38.88,55.44,38.88ZM57,38.05a.19.19,0,0,1,0,.31s-.05-.08-.07-.13S56.91,38.09,57,38.05Zm1.76-.75c0-.06.09,0,.11,0a.18.18,0,0,1-.09.12S58.71,37.37,58.74,37.3Zm3.08-2s0,.1,0,.09S61.77,35.27,61.82,35.28Zm1.91-.43s.09,0,.11,0l0,0s0,0,0,0,0,.07,0,.06,0,0,0-.05S63.7,34.87,63.73,34.85ZM67,32.66c.09,0,.15.17,0,.22S66.92,32.69,67,32.66Zm3.47-1.54a.11.11,0,0,1,.18,0A.12.12,0,0,1,70.51,31.12Zm.25-.28a.12.12,0,0,1,.07-.13c0,.05,0,.1,0,.14S70.75,30.91,70.76,30.84Zm4-2.34s0,.09,0,.09S74.74,28.49,74.78,28.5Zm6.31-2.39a.43.43,0,0,1,.12-.28c.07,0,.22,0,.21.11l0,.06a2.93,2.93,0,0,0-.28.36A.31.31,0,0,1,81.09,26.11Zm1.58-1.6a.68.68,0,0,1,.64-.43,2.19,2.19,0,0,0-.42.38C82.83,24.54,82.71,24.59,82.67,24.51ZM22.69,77a.1.1,0,0,1,.18,0s-.05,0-.08.07,0,0,0,0S22.64,77.07,22.69,77Zm1.89-11c-.12,0-.18-.17-.08-.2S24.67,66,24.58,66Zm.51-1s.1,0,.09,0S25.08,65,25.09,65Zm1.8-3.33c.05,0,0,.1,0,.09S26.85,61.64,26.89,61.64ZM78.78,27.76a.25.25,0,0,0-.22.08c-.06-.06,0-.14,0-.2a.33.33,0,0,1,.21,0A.08.08,0,0,1,78.78,27.76ZM75,31.41s0-.09,0-.09S75,31.41,75,31.41Zm-.62.69s0-.09,0-.09S74.43,32.11,74.38,32.1Zm-.27-.84s0-.09,0-.08S74.16,31.27,74.11,31.26Zm-12,13.28a.2.2,0,0,1-.06.24.18.18,0,0,1-.23,0s.08-.06.11-.1A.68.68,0,0,0,62.06,44.54Zm-7.32,6a.36.36,0,0,1-.14,0,.68.68,0,0,1-.13-.18C54.55,50.29,54.69,50.43,54.74,50.55Zm-.44-.39s-.1.05-.09,0a.11.11,0,0,1,.07-.12A.11.11,0,0,1,54.3,50.16ZM51,53.3c0,.06-.14,0-.18,0A.11.11,0,0,1,51,53.3Zm-2.58,2.26a.11.11,0,0,1-.17-.05,1,1,0,0,1,.18-.1A.09.09,0,0,1,48.41,55.56Zm-1,.52-.15.13a.14.14,0,0,1,0-.16C47.32,56,47.43,56,47.44,56.08ZM45,57.51c-.05,0,0-.1,0-.09S45,57.51,45,57.51Zm-1.83,2.12a.16.16,0,0,1-.13-.21c.06-.08.2-.08.23,0S43.25,59.62,43.16,59.63Zm-3.24,2.85a.18.18,0,0,0-.12.19,1,1,0,0,0-.18.1.31.31,0,0,1,.17-.33C39.84,62.4,39.93,62.42,39.92,62.48ZM34.15,67s0-.1,0-.09S34.19,67,34.15,67Zm-5.42,7.11s-.07.13-.11.07,0,0,0,0a.25.25,0,0,0-.07-.12A.15.15,0,0,1,28.73,74.14ZM30,65.46s0,.09,0,.08S30,65.45,30,65.46ZM34.17,60c0-.07.11-.09.12,0a.3.3,0,0,0-.18.1C34.05,60.05,34.13,60,34.17,60Zm2-1.26s0,.1,0,.09S36.08,58.72,36.13,58.72Zm2.63-2.89c.07-.1.15-.18.23-.28a.19.19,0,0,1,.2,0c-.1,0-.12.16-.2.21S38.79,55.93,38.76,55.83Zm.65-.21s0,0,.05,0,0,0,0,.09A.06.06,0,0,1,39.41,55.62Zm-.89-3.77c0-.05.11-.1.1,0a.63.63,0,0,0-.18.22C38.36,52,38.41,51.83,38.52,51.85Zm1.13-1.06s0,.05,0,.05S39.61,50.76,39.65,50.79ZM50,45.88a1,1,0,0,1,.15-.14.69.69,0,0,1,.05.13v0a.43.43,0,0,0-.12,0A.11.11,0,0,1,50,45.88Zm1.33-.94s.11-.09.09,0a.53.53,0,0,0-.15.11C51.17,45,51.26,44.91,51.3,44.94Zm3.2-1.55s0,.1,0,.09S54.46,43.39,54.5,43.39Zm7.59-4a.56.56,0,0,0,.17-.33.18.18,0,0,1-.08.3S62.08,39.4,62.09,39.36Zm.33-.6a.45.45,0,0,1,.28-.45l.13.15Zm6.63-3.63a.27.27,0,0,0,.17-.22.11.11,0,0,1-.08.19C69.16,35.17,69,35.2,69.05,35.13Zm2.69-2.25a.12.12,0,0,1,.17,0l-.18.11C71.67,33,71.68,32.92,71.74,32.88Zm-30,20.86a.21.21,0,0,1,.32-.06l-.23,0s0,0,0,.06S41.69,53.76,41.7,53.74ZM66.42,38.38l-.23.15c0,.12-.16.17-.21.07s.14-.15.19-.21S66.39,38.29,66.42,38.38ZM58.73,43.6s0-.09,0-.09S58.77,43.61,58.73,43.6Zm-6.26,4.24-.09-.13a.34.34,0,0,1-.24-.09.39.39,0,0,1,.28,0A.14.14,0,0,1,52.47,47.84Zm-2.12.73s-.07.06-.12.07,0-.17,0-.2S50.41,48.51,50.35,48.57Zm-3.07,2.27s0,.1,0,.09S47.26,50.84,47.28,50.84Zm-6.7,3.6c.06-.08.22,0,.16.11S40.52,54.54,40.58,54.44Zm-5.53.27a.22.22,0,0,0-.15.11c-.07,0,0-.11.06-.08S35.06,54.65,35.05,54.71Zm-4.44,3.68c-.05,0,0-.1,0-.09S30.65,58.4,30.61,58.39Zm-2.53,1.82a.14.14,0,0,1-.08.12s0-.09,0-.14S28.07,60.16,28.08,60.21ZM26.89,76.55s0-.09,0-.08S26.92,76.56,26.89,76.55Zm-2.09,2.8a.14.14,0,0,1,.2,0,.22.22,0,0,0-.17.18s0,.11-.07.15a.71.71,0,0,1-.08-.18A.21.21,0,0,1,24.8,79.35ZM60.25,46l.44-.31c.06-.06.17-.09.18,0a.51.51,0,0,1-.07.17.37.37,0,0,1-.13.12A.4.4,0,0,1,60.25,46Zm5.46-4.62s0,0,0,.07-.07,0,0,0l.25-.44a.26.26,0,0,1,0,.34A.15.15,0,0,1,65.71,41.39ZM20.82,74.13a.1.1,0,0,1,.05-.17.53.53,0,0,0,.11-.09A.2.2,0,0,1,20.82,74.13Zm-.42,1.45a.28.28,0,0,1-.18.36A.27.27,0,0,1,20.4,75.58ZM88.05,20.11c.1-.05.18-.13.29-.2s.17-.09.25-.05.11.18,0,.18a.93.93,0,0,0-.43.25C88.15,20.24,88.09,20.18,88.05,20.11ZM43.84,41.73a.14.14,0,0,0-.1.07.13.13,0,0,1,0-.2c.07,0,.12.07.07.1ZM14.59,88.23s0,.09,0,.09S14.54,88.22,14.59,88.23ZM61.3,63.31s0,.1,0,.09a0,0,0,0,1,0,0S61.26,63.33,61.3,63.31Zm33.24-50a1.69,1.69,0,0,1-.3.58l-.09-.29C94.22,13.44,94.36,13.26,94.54,13.29Zm-2,1.5c0-.08.16-.13.25-.18a.43.43,0,0,1-.08.37v0l-.1.05C92.53,15,92.51,14.87,92.57,14.79Zm-1.22.93c.1-.05.24-.07.31,0a.76.76,0,0,1-.5.26A.55.55,0,0,1,91.35,15.72ZM89,17.34s0,.1,0,.09S88.93,17.33,89,17.34ZM85.13,20a.12.12,0,0,1,.11,0,.68.68,0,0,1-.25.14A.18.18,0,0,1,85.13,20Zm-8.41,4.67c0,.05,0,.1,0,.14s-.1.05-.09,0S76.67,24.67,76.72,24.63ZM75.61,25a.45.45,0,0,0-.1.09h0s-.13,0-.08-.1A.14.14,0,0,1,75.61,25Zm-.81.93s0,0,0,0,0,0,0,0,0,0,0,0S74.78,25.91,74.8,25.92ZM56.74,34.36c0,.07,0,.14-.07.15s-.05-.1,0-.14S56.72,34.32,56.74,34.36Zm-.91.71c.12,0,.3-.08.38,0-.09,0-.18.11-.26.21a.61.61,0,0,1-.69,0Zm-1.3.56s.13-.09.19,0,0,.12,0,.17-.36.4-.57.29A5.75,5.75,0,0,1,54.53,35.63Zm-3.66,1.83a.14.14,0,0,1,.21.11.15.15,0,0,1-.18.15A.17.17,0,0,1,50.87,37.46Zm-3.79,2.36v0h0A0,0,0,0,1,47.08,39.82Zm-.39.28s0-.1,0-.09S46.74,40.1,46.69,40.1Zm-7.14,3.58s0,0,0,0a.15.15,0,0,1,0,.09.11.11,0,0,1-.16,0s0,0,0,0Zm-.43.13a.11.11,0,0,1,0,.18A.11.11,0,0,1,39.12,43.81Zm-4.61,2.61s0,.17,0,.18-.15-.05-.09-.11S34.46,46.44,34.51,46.42ZM32,47.67c.08,0,.13.18,0,.23a3.16,3.16,0,0,1-.33-.21A.44.44,0,0,1,32,47.67Zm-3.7,3.17c0-.07.08-.08.09,0a.33.33,0,0,0-.15.22C28.11,51,28.16,50.82,28.25,50.84Zm-1,.94c.05.08,0,.22-.12.16S27.15,51.69,27.25,51.78Zm-.35.33s0,.09,0,.08S26.86,52.1,26.9,52.11Zm-1.34,1.11c-.06.06-.17,0-.18,0A.11.11,0,0,1,25.56,53.22ZM17.45,63.1s-.1,0-.09,0S17.46,63.06,17.45,63.1Zm-.39.55c0,.05,0,.08-.06.12a.13.13,0,0,1,0-.16S17.07,63.61,17.06,63.65ZM3.39,105.37a2.16,2.16,0,0,1-1,0,1.23,1.23,0,0,1-.81-.59,2.32,2.32,0,0,0,.7-.4,1,1,0,0,0,1.37.5.53.53,0,0,0,0,.37C3.6,105.31,3.48,105.34,3.39,105.37Zm3.47-1.24c0-.07,0-.13,0-.19.27-.39.86-.26,1.29-.42.17-.06.39-.16.53,0C8.17,103.86,7.38,103.72,6.86,104.13Zm5.28-1.4a.51.51,0,0,1-.09.16.45.45,0,0,1-.17.09c-.13,0-.24.07-.39.12s-.4.11-.52,0a2.82,2.82,0,0,0,.73-.38l.55-.36C12.21,102.47,12.19,102.6,12.14,102.73Zm1.21-.86s-.19,0-.2,0l.92-.57c.08-.08.24-.12.29,0C14,101.46,13.68,101.65,13.35,101.87Zm22.17-6.18h0a.26.26,0,0,1-.21-.08c.07,0,.13-.09.18-.15a.17.17,0,0,1,.21,0C35.76,95.53,35.65,95.62,35.52,95.69Zm6.23-4s0-.1,0-.09S41.79,91.66,41.75,91.66ZM48,85.5s.1,0,.09,0S48,85.54,48,85.5ZM59.67,69.3v0c0,.07-.1.16-.19.15s-.26,0-.3.06l-.13-.18a.75.75,0,0,1,.59,0s0,0,0,0a.39.39,0,0,0-.2-.46c-.06-.06,0-.13.09-.12s.13.06.19.07a.3.3,0,0,1,.18.31A.25.25,0,0,1,59.67,69.3Zm.6-1.58s0-.1,0-.09S60.32,67.73,60.27,67.72Zm.54-.21a.17.17,0,0,1-.05-.14s.12-.05.12,0A.13.13,0,0,1,60.81,67.51Zm.86-1.64s0,.09,0,.09S61.63,65.86,61.67,65.87Zm0,.77a.19.19,0,0,1-.07-.29l.07.11C61.72,66.51,61.72,66.63,61.66,66.64Zm1.89-4a.61.61,0,0,1-.08.32.34.34,0,0,1,0-.36.35.35,0,0,1,.34-.15A2.11,2.11,0,0,0,63.55,62.65Zm1-1.27a.16.16,0,0,1,0-.16s.09,0,.1,0S64.56,61.34,64.5,61.38Zm-.14,2.06s0-.13.07-.1.13-.09.11,0A.75.75,0,0,0,64.36,63.44ZM65,61.57a.87.87,0,0,1,.38-.77c.06-.06.15-.09.18,0A3.34,3.34,0,0,0,65,61.57ZM66,60a.27.27,0,0,1-.09.15s-.14,0-.13-.07L65.9,60a.28.28,0,0,1,.23-.3Zm.16.39s0-.11.06-.08.13-.09.12,0A.52.52,0,0,0,66.17,60.34Zm11-17.45a.31.31,0,0,1,0-.25.15.15,0,0,1,.2,0C77.25,42.75,77.19,42.83,77.13,42.89Zm4.58-8,.18-.13a.14.14,0,0,1,0,.18A.13.13,0,0,1,81.71,34.87Zm1.13-1.06s0-.1,0-.09S82.89,33.82,82.84,33.81Zm.12-.18s0-.1,0-.09S83,33.63,83,33.63Zm2.17-3.2c-.13-.07,0-.23,0-.33s.09-.28,0-.32a.3.3,0,0,1,.29,0A2.59,2.59,0,0,1,85.13,30.43Zm1-2.48s.1,0,.09,0S86.15,28,86.15,28Zm8.54-11.24a.11.11,0,0,1-.2,0,.23.23,0,0,1,.2,0,.22.22,0,0,1,.08-.19C94.83,16.58,94.78,16.75,94.69,16.71Zm3-4.77s0,0,0-.07a.11.11,0,0,1,0,.05Zm1.68-2.3s0-.1,0-.09S99.43,9.64,99.41,9.64Zm.21-.17a.38.38,0,0,1,.2-.38.42.42,0,0,1,.43,0C100,9.24,99.82,9.34,99.62,9.47Z"/><path id="fill1" d="M57.89,73.36C50.82,83.42,42.64,93.29,31.51,98.53c-5.69,2.69-11.91,4-18.07,5.36L4.7,105.77c-1.82.39-4.41.29-4.7-1.55,3.91-2,6.62-5.76,8.64-9.66C14.8,82.62,15.93,68,24.72,57.84c4.82-5.58,11.47-9.2,18-12.7l35.36-19c4.51-2.43,9.12-4.94,12.54-8.75L88.8,19.71a28.83,28.83,0,0,0,9.57-8.64C84.49,21.58,68.79,29.39,53.08,36.91c-7.1,3.4-14.25,6.78-20.72,11.26S20.07,58.34,16.56,65.38c-3,6.11-4.24,12.94-6,19.53S5.67,99.53.67,104.18a79.85,79.85,0,0,0,9.26-21c1.42-5.34,2.22-10.87,4.34-16C19.75,54,33,45.94,45.66,39.34q6.42-3.33,13-6.48C67.49,28.6,76.53,24.6,85,19.5S101.24,8.09,106.87,0L101,7.86l5.17-3.63a35.19,35.19,0,0,0-7,7C83.49,30.5,72.18,53,57.89,73.36M90.92,22c-.06,0-.12.08-.06.09A.31.31,0,0,1,91,22c0-.06-.12,0-.1,0m-1.31,1.27s-.08-.12-.09-.06a.3.3,0,0,1,.12.17c.06,0,0-.12,0-.1m-72.76,77.3s.12-.07.06-.08a.34.34,0,0,1-.17.11c0,.06.13,0,.1,0M32.7,94.42s.12-.07.06-.08a.28.28,0,0,1-.17.11c0,.06.12,0,.1,0m5.57-11.9c.06,0,.12-.08.06-.09a.31.31,0,0,1-.16.12c0,.06.12,0,.1,0M51,81.68s.12-.07.06-.09a.3.3,0,0,1-.17.12c0,.06.13,0,.1,0M26.08,77.51c.05,0,.12-.07.06-.08a.34.34,0,0,1-.17.11c0,.06.13,0,.1,0m20.62,2.14c.05,0,.13,0,.08-.06a2.94,2.94,0,0,1-.51.23l.14.19.3-.35M51.3,45s-.12.07-.06.08a.34.34,0,0,1,.17-.11c0-.06-.12,0-.1,0M88.07,20.57C78.78,27.9,71,37,62.1,44.77S43.27,59,35,67.4A82.17,82.17,0,0,0,24.68,80.23C20.42,86.78,17.08,94,12.1,100c4.18-3.84,7.34-8.63,10.75-13.18C41.48,62,68,44.23,88.07,20.57M52.52,77s.11-.08,0-.09a.28.28,0,0,1-.16.12c0,.06.12,0,.1,0M35,54.74c-.05,0-.12.08-.06.09a.3.3,0,0,1,.17-.12c0-.06-.12,0-.1,0m31.28,5.53s-.12.07-.06.08a.36.36,0,0,1,.16-.11c0-.06-.11,0-.1,0M45.18,57.75s-.11.08,0,.08a.26.26,0,0,1,.35-.12c.07,0,.15-.08.11-.15a.17.17,0,0,0-.22,0,.47.47,0,0,0-.15.19m19.2,5.63c-.05,0-.12.07-.06.08a.28.28,0,0,1,.17-.11c0-.07-.12,0-.1,0M34.18,60c-.06,0-.12.08-.06.09a.31.31,0,0,1,.16-.12c0-.06-.11,0-.1,0M85.12,30.43a2.65,2.65,0,0,0,.33-.65.34.34,0,0,0-.31,0c.12,0,.08.22,0,.32s-.14.27,0,.33M46.29,68.37c0-.06-.06-.13-.08-.07a.29.29,0,0,1,.08.26c.1,0,.1-.18,0-.2m42-43.08s0,.12.07.07a.36.36,0,0,1-.08-.27c-.1,0-.1.19,0,.2M69.15,35.11c.1,0,.15-.15.06-.2a.3.3,0,0,1-.16.23c0,.06.1,0,.1,0M94.69,16.71c.09,0,.14-.13.08-.19a.2.2,0,0,0-.08.19.2.2,0,0,0-.2,0,.12.12,0,0,0,.21,0M66.83,40.1l.22,0a.18.18,0,0,0-.3,0s0,.06,0,0,0,0,0-.08m-25,13.63.22,0a.19.19,0,0,0-.3,0s0,.06,0,0,0-.05,0-.08M28.25,50.83c-.1,0-.15.15-.06.2a.3.3,0,0,1,.16-.23c0-.06-.12,0-.09,0m10.26,1c-.1,0-.15.15-.07.2a.35.35,0,0,1,.16-.23c0-.06-.1,0-.09,0M77.93,41.43c-.13,0-.16.21-.07.3A.54.54,0,0,1,78,41.4c0-.06-.08,0-.09.05M62.19,39.32a.18.18,0,0,0,.07-.3.58.58,0,0,1-.17.34s.09,0,.1-.06M91.3,21.49a.2.2,0,0,0-.07.31.51.51,0,0,1,.17-.34c0-.05-.12,0-.08.05M71,43.65a.18.18,0,0,0-.07.3.54.54,0,0,1,.16-.33c0-.06-.08,0-.09.05m-31.54,12s0-.07,0-.09-.07,0-.06,0a.2.2,0,0,0,.36,0,.19.19,0,0,0-.27,0m8.4,22.76a.26.26,0,0,0-.21.37l.29-.42s-.1,0-.07,0M47.43,83c.06,0,.12,0,.13-.12a.28.28,0,0,0,0-.2.1.1,0,0,0-.16-.05c-.1.09.12.28,0,.37a.21.21,0,0,0-.21.26.3.3,0,0,0,.22-.26M65.72,41.39A.25.25,0,0,0,65.9,41l-.27.43a0,0,0,0,0,.05,0s0,0,0-.07M91.48,21.22c.09.06.21,0,.26-.12a.71.71,0,0,0,.07-.32.74.74,0,0,0-.33.44m2.76-7.35a1.61,1.61,0,0,0,.3-.58c-.17,0-.31.14-.4.3l.1.28M59.05,69.35l.13.17c0-.09.19-.06.29,0s.25-.1.17-.18a.26.26,0,0,0,.27-.21.25.25,0,0,0-.17-.29c-.07,0-.12-.09-.19-.1s-.15.09-.09.12a.5.5,0,0,1,.2.49.81.81,0,0,0-.61,0m-56.81,35a2.32,2.32,0,0,1-.7.4,1.23,1.23,0,0,0,.82.6,2.39,2.39,0,0,0,1,0c.1,0,.21,0,.25-.13a.56.56,0,0,1,0-.38,1,1,0,0,1-1.36-.49M50.1,75c1.4-1.48,2.74-3,4.08-4.54,5-5.69,10-11.51,13-18.48L56.72,64.19,46,75.86a2,2,0,0,1-.49.42,64.71,64.71,0,0,1-8.66,8.46A6.58,6.58,0,0,1,35.75,86C29.9,91.31,24,96.69,17.17,100.7c6.31-2.85,11.76-7.27,17.14-11.65A163.23,163.23,0,0,0,50.1,75M4,104.74c5.48-3.54,9.25-9.2,12.15-15s5.09-12,8.32-17.72A55.53,55.53,0,0,1,43.71,52.14q12.06-7.35,23.64-15.42L51,45.43C40.79,50.86,30.06,56.8,24.38,66.86A72.7,72.7,0,0,0,19.9,77.55C16.24,87.49,11.61,97.37,4,104.74m66.7-60.28-5,4.87c-5.7,5.6-11.4,11.2-16.91,17l-3.74,4L18,99.14C34.72,87.41,48.41,72,61.93,56.66c4.25-4.81,8.56-9.71,11.33-15.5q-1.22,1.7-2.55,3.3M2.65,104.06c6.69-5.24,10.5-13.27,13.66-21.16s6-16.12,11.44-22.65C35.46,51,47.24,46.42,57.87,40.74A136.65,136.65,0,0,0,79.74,26.2L43.84,45.86c-3.59,2-7.18,3.93-10.58,6.18a39.79,39.79,0,0,0-6.39,5.09c-6.26,6.33-9,15.23-11.7,23.72S9.36,98.2,2.65,104.06M67,53.73C57.32,73.22,39.25,87,21.8,100A112.6,112.6,0,0,0,68.57,53.79l-.17,2a324.15,324.15,0,0,1,26.06-40c-4.82,3.67-8.81,8.28-12.88,12.75A363.67,363.67,0,0,1,53.7,56.05C49.91,59.41,46,62.69,42.4,66.21c-11,10.62-19.81,23.23-29.46,35.08C27.05,89.88,38.24,75.34,51,62.4c7.83-8,16.27-15.36,23.58-23.81C79.36,33,83.69,27,89.15,22.09A153.22,153.22,0,0,0,71,45.5L81.75,31.59,73.23,43.85A80.91,80.91,0,0,0,67,53.73M28,73.62c12.73-16.2,32.07-25.94,45.88-41.23a87.68,87.68,0,0,1-13.1,9.91,17.62,17.62,0,0,1-3.92,2.64,11.68,11.68,0,0,1-4.91,3.17c.14.49-.91.56-.83.06.36.36-.13.93-.56,1.2l-8.07,5c-.4.25-1,.45-1.27.05.42.08.11.72-.24,1-6.25,4.18-11.15,10.14-15,16.6s-6.71,13.44-9.56,20.4c3.45-6.49,7-12.94,11.57-18.72m28.27-.36a1,1,0,0,1-.91,1.07c.21,0,.17.32,0,.48l-3.1,3.48a11.8,11.8,0,0,1-2.46,2.28c-.07-.07.12-.15.16,0s0,.19-.1.27a68.81,68.81,0,0,1-13.16,11L35.15,93a75.29,75.29,0,0,1-12.46,7.62,49.48,49.48,0,0,0,22.53-13c1.81-1.87,3.45-3.91,5.09-5.93,3.14-3.9,6.29-7.81,9.13-11.94a.62.62,0,0,1-.5.05,12.26,12.26,0,0,1-2.69,3.5M12.06,102.89a.53.53,0,0,0,.08-.17l.12-.39-.56.37a2.57,2.57,0,0,1-.74.37.53.53,0,0,0,.53,0l.4-.13a.53.53,0,0,0,.17-.08m-3.86.63c-.44.16-1,0-1.3.41a.21.21,0,0,0,0,.2c.52-.41,1.31-.28,1.86-.64-.12-.14-.34,0-.52,0m6.15-2.27c0-.1-.2-.06-.29,0l-.9.59c0,.08.13.06.2,0l1-.61M55.27,35.33c.23.09.52.14.68,0s.17-.25.29-.21c-.09-.12-.28-.07-.42,0l-.55.25M58.12,62a1.85,1.85,0,0,0-.41.63s0,.13,0,.11l.64-.76c0-.1-.19,0-.27,0M68.34,35.81a.24.24,0,0,0,.1-.33,1.27,1.27,0,0,0-.4.4c.08,0,.1.14.12.22s.11.19.18.14-.12-.33,0-.41M100.47,8.22c-.07,0-.14.1-.07.16s.15,0,.24,0a.33.33,0,0,0,.19-.08.2.2,0,0,0,0-.31.18.18,0,0,0-.25.17M95.69,15.9c-.09,0-.16-.11-.15-.2a.49.49,0,0,1,.16-.24l.21-.2c0-.07-.13-.09-.2-.06a.47.47,0,0,0-.15.19,1.28,1.28,0,0,0-.15.25.26.26,0,0,0,0,.28.15.15,0,0,0,.25,0m-41,19.69c-.05-.05-.13,0-.18,0l-.44.41c.21.13.45-.09.59-.28s.07-.13,0-.17M88.34,19.92l-.28.2.12.17a.92.92,0,0,1,.43-.24c.09,0,.07-.17,0-.2a.34.34,0,0,0-.25.06m-23,40.88a.89.89,0,0,0-.37.79,3.29,3.29,0,0,1,.57-.81c-.05-.05-.14,0-.2,0M93.26,18.85c-.08,0-.06.16,0,.18a.21.21,0,0,0,.22-.08c.08-.11.1-.28,0-.35s-.29.07-.2.17m6.33-9.31.63-.33a.38.38,0,0,0-.42,0,.39.39,0,0,0-.21.37M57.12,41.91c.13,0,.31-.06.27-.18s-.17-.09-.26,0-.17.13-.27.12-.1.15,0,.18.17,0,.24-.08m3.79,3.78c0-.08-.13,0-.19,0l-.43.33a.48.48,0,0,0,.62-.33m-.71,22.92a.16.16,0,0,0,0-.32.22.22,0,0,0-.19.19.54.54,0,0,0,0,.28l.17-.11M52.82,40c0-.07-.12-.07-.17,0a.34.34,0,0,0-.06.2l0,.4c.11.07.2-.11.18-.24s0-.29.08-.34M16.65,102.1a.51.51,0,0,0,.21-.06.16.16,0,0,0,.05-.2l-.73.21a.48.48,0,0,0,.45,0M81.09,26.12a.36.36,0,0,0,0,.25l.29-.36,0-.08c0-.1-.14-.15-.21-.09a.37.37,0,0,0-.11.27m8.4-8.88a.23.23,0,0,0-.31-.23.24.24,0,0,0,0,.39.22.22,0,0,1,.31-.16m-6.8,7.28c0,.08.15,0,.2,0a2.07,2.07,0,0,1,.44-.4.68.68,0,0,0-.64.44M92.75,15a.42.42,0,0,0,.06-.39.51.51,0,0,0-.25.18.18.18,0,0,0,.07.27l.11-.07M70.36,39.84a.16.16,0,0,0-.14.13.11.11,0,0,0,.13.1.14.14,0,0,0,.08-.07c.1-.15.2-.33.12-.49a2.11,2.11,0,0,0-.21.31M91.15,16a.71.71,0,0,0,.51-.26.22.22,0,0,0-.31,0,.63.63,0,0,0-.2.28M42.65,65.47l-.16.22c0,.09.16.1.23,0a.41.41,0,0,0,.13-.24l0-.18-.25.15m21.54-34,.22-.2c.07-.06,0-.18-.07-.22a.49.49,0,0,0-.27,0l.17.14a.16.16,0,0,0-.09.23M53.57,46.87a.29.29,0,0,0,.11.36l.06-.21c0-.08.06-.18,0-.25s-.21,0-.15.08M98,11c0,.1.18,0,.25,0l.17-.22a.35.35,0,0,0-.41.19A.11.11,0,0,0,98,11M45.75,52l.09-.08a.21.21,0,0,0-.19-.2.17.17,0,0,0-.16.21.16.16,0,0,0,.25,0m17-13.69a.47.47,0,0,0-.28.44l.4-.28-.12-.16m5.13-2.15c.07,0,.09-.12,0-.16a.17.17,0,0,0-.2,0c-.08.07-.13.19-.07.27s.24,0,.19-.09m-37.87,60a.35.35,0,0,0-.42.22.17.17,0,0,0,0,.19l.4-.41M48.44,66.53l.12-.14a.4.4,0,0,0,.1-.22c0-.08-.12-.15-.17-.09s0,.06,0,.09l-.05.31M39,55.56l-.22.27c0,.09.18.06.24,0s.1-.17.18-.22a.12.12,0,0,0-.19,0M43.58,78.1a.12.12,0,0,0,0,.15.72.72,0,0,0,.24-.18.24.24,0,0,0,0-.28,1.26,1.26,0,0,0-.29.32m20-15.46.24-.19a.32.32,0,0,0-.34.14.33.33,0,0,0,0,.37.72.72,0,0,0,.08-.32M40,75.56a.38.38,0,0,0,.19-.47.37.37,0,0,0-.19.47M91.72,20.24a.28.28,0,0,0,0,.25.38.38,0,0,0,.19-.47.28.28,0,0,0-.2.21M35.51,95.68c.11,0,.24-.15.17-.24s-.15,0-.21,0-.11.13-.19.14a.27.27,0,0,0,.24.09M61.33,68.26a.51.51,0,0,0-.33.13.27.27,0,0,0,.39,0s0-.09,0-.12-.09,0-.1,0M38.39,69.88l-.12-.16a.35.35,0,0,0-.12.23c0,.09.09.18.17.14s.08-.13.06-.21M71.5,38.6a.14.14,0,0,0-.16.19.16.16,0,0,0,.26,0,.18.18,0,0,0-.1-.25M65.89,60l-.11.08a.09.09,0,0,0,.14.05A.23.23,0,0,0,66,60l.11-.29a.26.26,0,0,0-.23.3m-7.18,5.71-.07-.11a.22.22,0,0,0-.17.26.79.79,0,0,1,.48,0,.19.19,0,0,0-.23-.11M40,68.35l0-.15c-.08,0-.17.1-.2.18s0,.22.13.19.09-.14.07-.22m-19.07-3a.19.19,0,0,0-.06-.21l.11-.08c0-.07-.11-.09-.16,0a.29.29,0,0,0-.07.18.2.2,0,0,0,0,.17s.12,0,.13,0M66.19,38.54l.23-.16c0-.1-.18-.07-.25,0s-.1.18-.18.22.23,0,.2-.06m1.69,4c.06-.11-.14-.2-.23-.11s-.07.22,0,.34l.23-.27m-.3-12.84c.06-.06.16-.05.24-.07s.16-.12.1-.18-.11,0-.16,0a.74.74,0,0,0-.23.2M54.58,39.58l-.12-.16a.41.41,0,0,0-.11.23c0,.09.09.18.17.14s.08-.13,0-.21M17.48,62.4a.33.33,0,0,0,.49,0,.35.35,0,0,0-.42,0M50.87,37.47a.15.15,0,0,0,0,.24.15.15,0,0,0,.19-.14.14.14,0,0,0-.21-.1M30.68,71.63a.15.15,0,0,0-.2.13.15.15,0,0,0,.21.12.14.14,0,0,0,0-.23M32,47.9c.09,0,.05-.2,0-.24a.39.39,0,0,0-.28,0,2.11,2.11,0,0,0,.31.21M67.5,56.83a.25.25,0,0,0,.22-.3c0,.08-.16.1-.24.15s-.06.23,0,.2m-.08.1a.28.28,0,0,0,0,.41.26.26,0,0,0,0-.39m9.81-32.49a.16.16,0,0,0,.23,0,.18.18,0,0,0,0-.23,1,1,0,0,0-.28.23m-52.35,55a.22.22,0,0,1,.15-.18.15.15,0,0,0-.2,0,.38.38,0,0,0-.12.18l.1.16a.13.13,0,0,0,.07-.14m22.9-19a.32.32,0,0,0,.08-.37.19.19,0,0,0-.11.32M43,59.43a.14.14,0,0,0,.12.2.14.14,0,0,0,.11-.21.14.14,0,0,0-.23,0M17.9,71.72a.36.36,0,0,0-.12.44l.18-.35s0-.07,0-.1-.09,0-.07,0m21.88-9.07a.23.23,0,0,1,.13-.18s-.08-.07-.13,0a.36.36,0,0,0-.18.35l.18-.12M63.7,43a.34.34,0,0,0-.27.12c0,.06.14.05.21,0a.51.51,0,0,0,.17-.07s0-.13,0-.16L63.7,43M92.9,19.31a.35.35,0,0,0-.24-.06c-.09,0-.14.15-.06.2a.16.16,0,0,1,.28,0,.13.13,0,0,0,0-.2M62.45,47.84l.25-.26c-.13-.11-.37.06-.31.22m-42,27.78a.27.27,0,0,0-.17.35.27.27,0,0,0,.18-.36M72.28,38.13a.36.36,0,0,0-.29.33.44.44,0,0,0,.33-.34M64.67,61a.33.33,0,0,0,.27-.12.27.27,0,0,0-.4,0l.13.07M28.83,67a.25.25,0,0,0-.2.36,2.11,2.11,0,0,0,.21-.31m13,12.78a.14.14,0,0,0,.21,0,.14.14,0,0,0-.15-.16.13.13,0,0,0-.06.21M59.54,60.49a.24.24,0,0,0-.1.33l.15-.2s.06-.08,0-.12-.09,0-.09,0M85.36,20.11a.19.19,0,0,0-.38.06.35.35,0,0,1,.34-.06m-6.55,7.65a.09.09,0,0,0,0-.16.38.38,0,0,0-.21,0,.13.13,0,0,0,0,.19.21.21,0,0,1,.22-.08M46.11,57.3,46,57.19a.54.54,0,0,1-.27.09.29.29,0,0,0,.38.06M61.88,44.68l-.11.08a.18.18,0,0,0,.23,0,.19.19,0,0,0,.06-.23l-.18.13M23.3,60.88a.13.13,0,0,0,.21-.05.13.13,0,0,0-.14-.16.13.13,0,0,0-.07.21M52.38,47.71l.09.12c.08,0,.05-.19,0-.23a.35.35,0,0,0-.28,0,.29.29,0,0,0,.23.08m31.84-16.5-.12.08a.22.22,0,0,0,.19.09.13.13,0,0,0,.11-.15c0-.07-.14-.08-.16,0M24.94,72.94a.45.45,0,0,1,.17-.33c-.05-.07-.18,0-.22,0a.36.36,0,0,0,0,.27m-1.74-4.48c.07,0,.1-.11.05-.15a.12.12,0,0,0-.18,0,.2.2,0,0,0,0,.21l.11-.08M62.44,52.13a.09.09,0,0,0,0,.13.22.22,0,0,0,.17-.1c0-.07,0-.16-.07-.17s-.14.06-.1.12M97.56,12.34a.08.08,0,0,0,0,.15.12.12,0,0,0,.18-.05.2.2,0,0,0,0-.2l-.11.07M84,25.36a.34.34,0,0,0-.16.1.12.12,0,0,0,0,.17c.06,0,.13,0,.16-.08a.35.35,0,0,0,0-.2m11.11-9.13-.12.09a.2.2,0,0,0,.24,0,.18.18,0,0,0,0-.23l-.17.12M51.84,62.83l.29-.2a.18.18,0,0,0-.24,0,.2.2,0,0,0-.06.23M66.21,30.19l0-.14a.21.21,0,0,0-.17.1.12.12,0,0,0,.06.17c.07,0,.14-.06.1-.12M25.72,71.34a.14.14,0,0,0,0,.15.52.52,0,0,0,.19-.36.27.27,0,0,0-.22.21m37.4-15.28a.29.29,0,0,0-.27.14.46.46,0,0,0,.41-.08l-.13-.07m-6.7-17.61s.13,0,.16-.06a.28.28,0,0,0,0-.2.21.21,0,0,0-.17.27M21,63.49a.12.12,0,0,0,0,.14.23.23,0,0,0,.17-.11.13.13,0,0,0-.06-.17c-.07,0-.14.07-.1.12M57,38.23l.08.12a.19.19,0,0,0-.06-.3.11.11,0,0,0,0,.18M35.32,66.7s.13,0,.14-.06a.26.26,0,0,0,0-.19l-.17.12.08.11m7.22-16.89,0-.16a.38.38,0,0,0-.07.41.32.32,0,0,0,.09-.24M48.35,73c-.08-.07-.21.1-.12.17s.21-.11.13-.17M22.94,68.87a.13.13,0,0,0,.1-.2.26.26,0,0,0-.17.11c0,.07,0,.17.1.14m4.28-17.15c-.09-.07-.22.1-.13.17s.22-.11.13-.18m49.89-9.11a.3.3,0,0,0,0,.26l.18-.24a.13.13,0,0,0-.19,0M40.74,54.56c.07-.09-.1-.21-.17-.12s.11.21.18.12m-11,4.59a.28.28,0,0,0-.25,0,.37.37,0,0,0,.4.07l-.14-.09M49,60.07c.11,0,0-.23-.06-.2s0,.23.06.2M18.38,70.61a.22.22,0,0,1,.15-.18.14.14,0,0,0-.22,0,.14.14,0,0,0,.07.21M54.59,50.58l.15,0c-.05-.11-.19-.25-.27-.15l.12.17m-25,29.17a.3.3,0,0,0,0,.26.42.42,0,0,0,.07-.4.13.13,0,0,0-.07.14m37.5-46.87c.1,0,0-.23-.06-.2s0,.23.06.2M24.51,65.82c-.11,0-.05.23.06.2s0-.23-.06-.2m23.1-26.34s0-.13,0-.14a.13.13,0,0,0-.12.12.38.38,0,0,0,0,.18l.13-.18M63.15,65.32c-.08-.06-.21.11-.12.17s.21-.1.13-.17M20.86,74a.11.11,0,0,0,0,.18.2.2,0,0,0,.16-.27l-.12.09M77,29.06a.11.11,0,0,0,0,.17.19.19,0,0,0,.16-.26l-.12.08M61.67,66.46l-.08-.12a.19.19,0,0,0,.06.3.11.11,0,0,0,0-.18m4.89-18.12,0-.15c-.12.05-.25.19-.16.27l.17-.12M50.67,41.59a.17.17,0,0,0,.29,0,.13.13,0,0,0-.22,0m-1.2.23a.17.17,0,0,0,.29,0,.13.13,0,0,0-.22,0M39.74,85.84a.18.18,0,0,0,.16-.25.24.24,0,0,0-.18.28M55.86,45.43s0-.13,0-.14a.14.14,0,0,0-.12.12.38.38,0,0,0,0,.18l.13-.18M49.55,81c.07-.08-.11-.21-.17-.12s.11.22.17.13m-11-17.45a.64.64,0,0,0,0,.36.32.32,0,0,0,.07-.39m-.23,5.62c-.11,0,0,.23.06.2s0-.23-.06-.2m6.9.61c0-.11-.23,0-.2.06s.23,0,.2-.06M47.68,47l.12-.09a.14.14,0,0,0-.2,0c-.05.06,0,.17.1.13m2.59,33c.05.06.16,0,.13-.09s-.13-.08-.19,0l.08.11m28-52c-.09-.07-.21.09-.13.16a.22.22,0,0,0,.16-.16m7.14-5.63c0-.06-.16,0-.13.09a.12.12,0,0,0,.19,0l-.08-.11M43.85,41.73c.06,0,0-.16-.09-.13a.12.12,0,0,0,0,.19l.11-.08M71,47.05c-.08-.07-.21.09-.13.16a.2.2,0,0,0,.16-.16M54.15,43.38l.11-.08a.13.13,0,0,0-.19,0c0,.06,0,.17.09.13M42.39,79.34a.18.18,0,0,0,.07-.28.32.32,0,0,0-.07.23M22.77,77.11l.11-.08a.12.12,0,0,0-.19,0c-.05.06,0,.17.09.12M16.84,75a.22.22,0,0,0-.1-.21c-.1,0,0,.23.07.19M80.26,26.83a.18.18,0,0,0-.07.28.34.34,0,0,0,.07-.24M39.88,62.14a.18.18,0,0,0,.29.07.34.34,0,0,0-.24-.07M69.5,45.2a.13.13,0,0,0,0,.2l.17-.13-.13-.08M37.3,64.78c-.09-.06-.21.1-.13.17a.21.21,0,0,0,.16-.17m2.25-21,0-.16-.17.13a.12.12,0,0,0,.19,0M72,45.37l-.12-.16a.1.1,0,0,0,0,.16.11.11,0,0,0,.17,0M101.38,7.13l0-.15-.17.12a.12.12,0,0,0,.19,0M18.25,61.87a.22.22,0,0,0,.21-.1c0-.1-.23,0-.2.07m31.91-16,0-.15-.17.12a.12.12,0,0,0,.19,0m6.62,17.16a.12.12,0,0,0,.06-.17.12.12,0,0,0-.17,0l.12.17M41.52,60.32c-.08-.07-.2.09-.12.16a.22.22,0,0,0,.16-.16m-.64,6.3a.12.12,0,0,0,.19,0L41,66.49a.1.1,0,0,0-.06.13M28.6,74.22c0,.06.16,0,.13-.09a.12.12,0,0,0-.19,0l.08.11m11,1.69.17-.12a.11.11,0,1,0-.17.12M61.53,48.59a.11.11,0,1,0,.17-.12l-.17.12M48.27,46.47a.24.24,0,0,0-.3,0,.26.26,0,0,0,.3,0M58,48.14a.18.18,0,0,0-.28-.07.38.38,0,0,0,.23.08M86.59,27.38a.13.13,0,0,0,0,.2l.17-.13-.13-.08m-36,42.56a.12.12,0,0,0-.17-.05.12.12,0,0,0,0,.17l.17-.12m9.81-20.4c-.07,0,0,.16.08.13s.09-.13,0-.19l-.12.08m11.31-16.5.17-.12a.11.11,0,1,0-.17.12m4.84.81L76.4,34a.11.11,0,0,0,.16.05.11.11,0,0,0,0-.17m-4.79,9,.17-.12a.11.11,0,0,0-.16-.05.11.11,0,0,0,0,.17M53.47,76.33a.1.1,0,0,0,0,.16.11.11,0,0,0,.17,0l-.12-.17M50.36,48.58c.06,0,0-.15-.09-.13a.13.13,0,0,0,0,.2l.11-.09M81.72,34.87a.11.11,0,0,0,.16.05.11.11,0,0,0,0-.17l-.16.12M23.47,55.06c-.06.09.1.21.17.13a.21.21,0,0,0-.17-.16m10.92-8.56c-.07.05,0,.16.08.14a.14.14,0,0,0,0-.2l-.12.08M93.86,13.93l-.11.08a.13.13,0,0,0,.19,0c0-.06,0-.17-.09-.13m.5,3.92a.12.12,0,0,0,0-.19l-.17.12.13.09M70.53,52.73a.12.12,0,0,0,0,.19l.17-.12-.13-.08M48.72,38.65a.24.24,0,0,0,0,.3.26.26,0,0,0,0-.3m4.32,37.81a.26.26,0,0,0,.05-.3.23.23,0,0,0-.06.29M70.09,35.34s.13,0,.14-.08a.28.28,0,0,0,0-.18.29.29,0,0,0-.09.23M75.5,25.08l.11-.08a.12.12,0,0,0-.19,0c0,.06,0,.17.09.12M62.8,40.7a.14.14,0,0,0,0,.2l.18-.13-.13-.08M35.71,85c-.08-.06-.21.1-.13.17a.21.21,0,0,0,.16-.17M54.23,50.9l-.08-.11a.13.13,0,0,0,0,.19c.06.05.17,0,.13-.09M45.71,84.67a.12.12,0,0,0,0-.19l-.17.12.13.09m3.38-12.87a.21.21,0,0,0-.1-.21c-.1,0,0,.22.07.19m4.4-20.45c-.06,0,0,.16.09.13s.08-.13,0-.19l-.11.08M37.12,48.89a.31.31,0,0,0,0-.25.18.18,0,0,0,0,.29m.84,21.27.12.17a.11.11,0,1,0-.12-.17m4.5,12.63a.12.12,0,0,0,0-.19l-.17.12.13.09m4.83-26.8a.13.13,0,0,0,0,.15l.17-.12a.12.12,0,0,0-.19,0m1-.53a.11.11,0,0,0,.16,0,.12.12,0,0,0,0-.17l-.17.12m-7.49-4.9-.15,0a.22.22,0,0,0,.3.06l-.13-.08m-13,.52a.12.12,0,0,0,0,.19l.17-.12-.13-.09m12,.29a.36.36,0,0,0,0-.25.18.18,0,0,0,0,.29M73.48,40.75a.29.29,0,0,0,0,.24.17.17,0,0,0,0-.28M51,74.69a.1.1,0,0,0,.15-.07.27.27,0,0,0,0-.19.3.3,0,0,0-.08.24M19.14,69.05a.36.36,0,0,0,0-.25.18.18,0,0,0,0,.29M50.47,54a.1.1,0,0,0,0-.12.09.09,0,0,0-.12,0l.13.07m4,.76.15,0c0-.1-.19-.08-.17,0m5,.84a.11.11,0,0,0,0-.13.09.09,0,0,0-.12.06l.13.06M51,53.3a.12.12,0,0,0-.19,0,.12.12,0,0,0,.19,0M28.47,80.59a.1.1,0,0,0,0,.12.09.09,0,0,0,.12,0l-.13-.07M46.16,84.1a.12.12,0,0,0,0,.15s.08-.07.07-.12-.08-.08-.1,0m3.62-29.65.14,0c0-.09-.19-.08-.17,0M62.37,57l.14,0c0-.1-.18-.09-.16,0M18.66,69.7a.09.09,0,0,0,0,.13.1.1,0,0,0,.12-.06l-.13-.07m46.11-12a.08.08,0,0,0,0,.12A.1.1,0,0,0,65,57.8l-.13-.07m-8.3-4.66a.09.09,0,1,0,.16.07l-.13-.07M16.65,75.34a.12.12,0,0,0,0-.19.12.12,0,0,0,0,.19M52.5,52.19a.11.11,0,0,0,0,.13.09.09,0,0,0,.12-.06l-.13-.06M76.64,24.77c0,.05.09.05.11,0a.17.17,0,0,0,0-.14.12.12,0,0,0-.07.13M27.13,69.14a.12.12,0,0,0,0,.19.12.12,0,0,0,0-.19m14.1,14.73,0-.14c-.1,0-.08.19,0,.17M58.75,37.3a.12.12,0,0,0,0,.15s.08-.08.07-.12-.08-.08-.1,0M31.59,48.52a.08.08,0,0,0,0-.12.09.09,0,0,0-.11.05l.13.07M53.91,76.21a.11.11,0,0,0,0-.13.1.1,0,0,0-.12.06l.13.07M19.11,78.78s.08,0,.1,0a.14.14,0,0,0,0-.14.12.12,0,0,0-.07.13M65.67,53.56s.08,0,.1,0a.15.15,0,0,0,0-.14.13.13,0,0,0-.07.14m-40.11-.34a.12.12,0,0,0-.19,0,.12.12,0,0,0,.19,0m44.72.26a.09.09,0,0,0,0,.12.1.1,0,0,0,.12-.06l-.13-.06M27.62,82.24a.13.13,0,0,0,0-.19.13.13,0,0,0,0,.19m26.29-10,0-.16a.16.16,0,0,0-.08.12s.07.09.1,0M88.53,25.33l.14,0c0-.1-.19-.08-.17,0M56.75,34.38c0-.05-.09-.05-.11,0a.17.17,0,0,0,0,.14.12.12,0,0,0,.07-.13m8.17,26.11a.12.12,0,0,0,.19,0,.12.12,0,0,0-.19,0M38.32,56.3a.13.13,0,0,0,0-.2.13.13,0,0,0,0,.2M63.73,34.85a.12.12,0,0,0,0,.15.16.16,0,0,0,.08-.12c0-.05-.09-.08-.11,0m.61-.34.14,0c0-.1-.18-.08-.17,0M39.41,68.7a.08.08,0,0,0,0,.12.08.08,0,0,0,.11-.06l-.13-.06m4,17.78a.12.12,0,0,0,0,.19.12.12,0,0,0,0-.19M64.49,61.22a.16.16,0,0,0,0,.15.16.16,0,0,0,.08-.12s-.09-.08-.1,0M80.64,36.83a.12.12,0,0,0,0,.19.12.12,0,0,0,0-.19M49.56,49.73a.12.12,0,0,0,0,.19.12.12,0,0,0,0-.19m8.11,21.84a.11.11,0,0,0,0-.13.09.09,0,0,0-.12.06l.13.07M54.21,50.15c0,.05.08.05.1,0a.14.14,0,0,0,0-.14.12.12,0,0,0-.07.13m-3.43-1.32a.08.08,0,0,0,0,.12.08.08,0,0,0,.11-.06l-.12-.06M38.46,90.27a.12.12,0,0,0,.19,0,.12.12,0,0,0-.19,0M63.85,50.18s-.09,0-.11,0a.22.22,0,0,0,0,.14.1.1,0,0,0,.07-.13M62.1,62.5l0-.16a.15.15,0,0,0-.09.12s.08.09.1,0M19.5,77.66a.12.12,0,0,0,0,.15s.08-.07.07-.12-.08-.08-.1,0m28,4.72a.13.13,0,0,0,0-.19.12.12,0,0,0,0,.19M42.36,41.77a.08.08,0,0,0,0-.12.09.09,0,0,0-.11.05l.13.07M42,91.46c0,.05.08.05.1,0a.15.15,0,0,0,0-.14.14.14,0,0,0-.07.14M31.38,92.52a.13.13,0,0,0,0,.19.14.14,0,0,0,0-.2M17,63.62a.12.12,0,0,0,0,.15.16.16,0,0,0,.08-.12s-.09-.08-.1,0M34.53,93.13a.08.08,0,0,0,0,.12.08.08,0,0,0,.11,0l-.12-.07m36.15-62a.13.13,0,0,0-.2,0,.13.13,0,0,0,.2,0M35.94,59l0-.16a.16.16,0,0,0-.08.12s.08.09.1,0M51.36,78.37a.09.09,0,0,0,0-.13.1.1,0,0,0-.12.06l.13.07m-.64,3.84-.14,0c0,.1.19.08.17,0M21.4,57.16a.08.08,0,1,0-.15-.07l.12.07M70.75,30.85s.09,0,.11,0,0-.1,0-.14a.13.13,0,0,0-.07.14m12.73,1.59a.1.1,0,0,0,0-.12.09.09,0,0,0-.12,0l.13.07M56.93,68.5l0-.16s-.09.07-.09.12.08.09.1,0M75.53,30.85s.08,0,.1,0a.15.15,0,0,0,0-.14.14.14,0,0,0-.07.14m-6.24-2.53a.12.12,0,0,0,.19,0,.12.12,0,0,0-.19,0M79.13,23a.12.12,0,0,0,.19,0,.12.12,0,0,0-.19,0M41.37,80.25l-.14,0c0,.09.19.08.17,0M39.12,43.81a.13.13,0,0,0,0,.19.12.12,0,0,0,0-.19m-5.52,17,.14,0c0-.1-.19-.09-.17,0m36.1-12.12a.12.12,0,0,0,.19,0,.12.12,0,0,0-.19,0M24.31,59.57s-.09,0-.11,0a.17.17,0,0,0,0,.14.13.13,0,0,0,.07-.14m3.68.62a.16.16,0,0,0,0,.15.16.16,0,0,0,.08-.12s-.09-.08-.1,0M20.74,74.62l-.14,0c0,.1.19.09.17,0m1.58-12.3s-.08,0-.1,0a.15.15,0,0,0,0,.14.14.14,0,0,0,.07-.14M79.22,27.19a.13.13,0,0,0,.19,0,.12.12,0,0,0-.19,0M41.15,79.85l.14,0c0-.09-.19-.08-.17,0M58.15,66a.11.11,0,0,0,0,.13.09.09,0,0,0,.12-.06L58.18,66m34-46.09a.13.13,0,0,0,0-.19.12.12,0,0,0,0,.19M60.85,66.51a.1.1,0,0,0,0,.13.09.09,0,0,0,.12-.06l-.13-.07M90.28,22.28a.12.12,0,0,0,.19,0,.12.12,0,0,0-.19,0m-46.46,42a.11.11,0,0,0,0,.13.09.09,0,0,0,.12-.06l-.13-.06M53,43.59a.13.13,0,0,0,.19,0,.12.12,0,0,0-.19,0m7.86,23.78s-.09,0-.11,0a.17.17,0,0,0,0,.14.13.13,0,0,0,.07-.14m1.11-10a.08.08,0,0,0,0,.12.09.09,0,0,0,.11,0L62,57.36M60.27,67.71s.06-.07,0-.08-.06.07,0,.08M42.69,65h.09s-.06-.08-.08,0m5.68,1s-.1,0-.09,0l.09,0m9.15,1.46s-.05.07,0,.08,0-.08,0-.08m.41-.39s-.1,0-.09,0l.09,0m-31-5.46s-.06.07,0,.08.05-.07,0-.08m-8.75-.57s-.06.08,0,.09.06-.08,0-.09m35.67,6s0-.07,0-.08,0,.07,0,.08m7.74-.21h.09s-.06-.08-.08,0m-28.6-5h.09s-.06-.08-.08,0m-14.53-.29a0,0,0,0,0,0-.09s-.05.08,0,.09m8.13,1.27s0,.07,0,.08.05-.07,0-.08M61.66,66s.05-.07,0-.08-.05.08,0,.09M50.41,63.69s-.06.07,0,.08.06-.07,0-.08m9.69.92c-.05,0-.06.08,0,.09s.05-.08,0-.09m-3.28-.9c0-.05-.1,0-.09,0l.09,0m-.35-.29c0-.05-.1,0-.09,0l.09,0M36.68,65.21s-.1,0-.09,0l.09,0m14.55-2.66s-.09,0-.09,0l.09,0m9.4,1.47h.09s-.06-.08-.08,0m-30-5.67s.05-.07,0-.08-.05.07,0,.08m30.67,5s.05-.07,0-.08,0,.07,0,.08M36.13,58.72s-.06.07,0,.08.06-.07,0-.08M17.45,63.1s-.08-.06-.09,0,.08.06.09,0M58.55,70h.09s-.06-.08-.08,0m.89.31s-.06.07,0,.08.06-.07,0-.08M30,65.54s.05-.07,0-.08-.05.07,0,.08m25.87,4.28s-.1,0-.09,0l.09,0m1.64-7.77s.06-.07,0-.08-.06.08,0,.08M25.1,65s.07.06.08,0-.07-.06-.08,0m14.81,2.62s.06-.07,0-.08-.06.07,0,.08M21.15,64.47s0,.07,0,.08.05-.07,0-.08M59.47,71c0-.05-.1,0-.09,0l.09,0m-25.31-4.1s-.06.07,0,.08.06-.07,0-.08m2-8.64h.09c0-.05-.06-.08-.08,0m9.07,10.81s.06-.08,0-.09-.06.08,0,.09m8.34-8h.1s-.07-.08-.09,0m-4.36-1.29h.09s-.06-.08-.08,0M64,62.05h.1c0-.05-.06-.08-.09,0m-6.43,9.26s-.09,0-.09,0l.09,0m1-10.47h.09c0-.05-.06-.09-.08,0M45.06,58.23s-.06.07,0,.08.06-.08,0-.09M45,57.5s.05-.07,0-.08-.05.07,0,.08m5.57,13.07s-.06.08,0,.09.05-.08,0-.09M24.78,53.78s.07.06.08,0-.07,0-.08,0m30.57,5s-.1,0-.1,0l.1,0m-1.8,13.12h.1s-.07-.08-.09,0m-4.17-.1s-.09,0-.09,0l.09,0M94,18.33s-.07,0-.08,0,.08.05.08,0M23.33,67.86s.07,0,.08,0-.08-.05-.09,0m17-13c0-.05-.09,0-.09,0l.09,0M53.23,73s.05-.08,0-.09-.05.08,0,.09m2.33.3s-.05.07,0,.08.05-.07,0-.08m.45.26c.05,0,.06-.07,0-.08s-.06.07,0,.08m-2.91-.47s0,.07,0,.08,0-.07,0-.08M66.48,58.76s-.09,0-.09,0l.09,0M32.31,70s-.1,0-.09,0l.09,0M26.89,52.11s-.05.07,0,.08.05-.07,0-.08m34.56,5.57s-.05.08,0,.09.05-.08,0-.09M41.64,72.75s0-.07,0-.08,0,.07,0,.08m56.1-60.9s-.06.08,0,.09.06-.08,0-.09M59.58,55.17c.05,0,.06-.07,0-.08s-.06.07,0,.08m-17.73,18s-.06.07,0,.08,0-.07,0-.08M38.71,51.6s-.06.07,0,.08,0-.07,0-.08m15.37,24s.05-.07,0-.08-.05.08,0,.08M39.65,50.76s-.06.07,0,.08,0-.07,0-.08M22.23,70.52s-.06.07,0,.08.06-.08,0-.09M65.29,54h.1s-.06-.08-.08,0m-18-3.15s-.06.08,0,.09.06-.08,0-.09m7.13-.16s-.09,0-.09,0l.09,0m-.25-.27s-.1,0-.09,0l.09,0m9.78.34H64s-.06-.08-.08,0M41.23,46.65s-.06.07,0,.08.06-.07,0-.08M45,75.86s-.08-.06-.09,0,.08.05.09,0M71.27,51.51s-.09,0-.09,0l.1,0M51.64,48.23s-.09,0-.09,0l.09,0M52.72,77.2s0,.07,0,.08,0-.07,0-.08m-6-29.84s-.06.07,0,.08.05-.07,0-.08m-4.25-1.31s-.06.08,0,.09.06-.08,0-.09m-21,26.71c.05,0,.06-.08,0-.09s0,.08,0,.09M37.94,44.58H38s-.06-.08-.09,0m34.24,5.62c0-.05-.09,0-.09,0l.09,0M39.25,76.08s.07.06.08,0-.07,0-.08,0M17.31,73.17s0,.08,0,.09.05-.08,0-.09M53.9,46.65H54s-.06-.08-.08,0m8.3,1.15s-.05.07,0,.08,0-.07,0-.08m-7.12-1.72h.1s-.06-.08-.09,0m-4.5,33.2s0-.08,0-.09,0,.08,0,.09M47.05,79s-.06.07,0,.08.06-.08,0-.08m-1.64-35.1h.09c0-.05-.06-.08-.08,0M26.9,76.47s-.06.07,0,.08.05-.08,0-.09M73.15,48.08h.09c0-.05-.06-.09-.08,0M68,46.84s.06-.07,0-.08-.06.07,0,.08m-20.46-3.7s-.06.07,0,.08.06-.07,0-.08m-4.41-1.27h.09s-.06-.08-.08,0M23.07,76.46s-.08,0-.09,0,.08,0,.09,0m31.41-33s.05-.07,0-.08-.05.07,0,.08m7.74,1h.09s-.06-.08-.08,0m.33-.24s-.1,0-.09,0l.09,0m-3.83-.62c.05,0,.06-.08,0-.09s-.06.08,0,.09M46.71,40s-.06.07,0,.08,0-.07,0-.08m.28-.18h.09c0-.05-.06-.08-.08,0m6,.81s-.1,0-.1,0l.1,0M44.16,81.78s.07,0,.08,0-.07-.05-.08,0m9.6-42c0-.05-.1,0-.09,0l.09,0M99.4,9.63s.06-.07,0-.08-.06.07,0,.08M55.43,39s.06-.07,0-.08-.06.07,0,.08m13.19,2c-.05,0-.06.07,0,.08s.05-.08,0-.08M57.19,37.63c0-.05-.09,0-.09,0l.09,0m20.6,2.84h.1s-.07-.08-.09,0M66.06,36.92c0-.05-.1,0-.09,0l.09,0M48,85.5s.08.06.09,0-.08-.06-.09,0M61.8,35.36s.06-.07,0-.08-.05.07,0,.08m-21,53.36s-.06.07,0,.08.06-.07,0-.08M82.07,33.93s-.1,0-.1,0l.1,0M41.76,91.66s.05-.08,0-.09-.05.08,0,.09M14.58,88.31s.06-.07,0-.08-.06.07,0,.08m11.23,2.13s.08.06.09,0-.08-.06-.09,0m57-56.64s0-.07,0-.08,0,.08,0,.09m.13-.18s0-.07,0-.08,0,.07,0,.08M33.16,94.05s.08.06.09,0-.08,0-.09,0M74.39,32s-.06.07,0,.08.05-.07,0-.08m5.65.42h.09s-.06-.08-.08,0M75,31.4s.05-.07,0-.08,0,.07,0,.08m-.87-.15s0-.07,0-.08,0,.08,0,.09m.66-2.76s-.06.07,0,.08.06-.08,0-.08m2.82.37s-.06.07,0,.08.06-.07,0-.08M86.16,28c0,.05.07.06.08,0s-.07,0-.08,0m-11.35-2s0,.07,0,.08,0-.07,0-.08M20.54,100.24s.06-.07,0-.08-.06.07,0,.08M74.28,25.87s.07.06.08,0-.07-.06-.08,0m2.1-1s-.06.07,0,.08,0-.08,0-.08m5.24.52s.08.05.09,0-.08-.05-.09,0m8.26-2.15s-.06.08,0,.09.06-.08,0-.09M89,17.35s-.06.07,0,.08.06-.07,0-.08m-58,36c-.05,0-.06.08,0,.09s.06-.08,0-.09Z"/></g></g></svg>