<svg xmlns="http://www.w3.org/2000/svg" viewBox="0 0 126.33 119.74"><defs><style>.cls-1{fill:#fff;}.cls-2{fill:#7bc663;}</style></defs><title>daisy-leaf-iso</title><g id="Layer_2" data-name="Layer 2"><g id="Daisy_Leaf" data-name="Daisy Leaf"><path id="void" class="cls-1" d="M88,82.68c-1.13-1.09.56-3.13-.11-4.57-.77-1.65-3.19-.73-5-.38-5.93,1.17-10-7-16.06-7.39,1.74-.48,3.53-1,5.3-1.42a1.41,1.41,0,0,0-1.48-1.48c.8-1.61,3-2,4.74-1.4s3.11,1.77,4.66,2.67c5.4,3.05,12.14,1.92,18.09.19A6.19,6.19,0,0,1,94.35,67a101.86,101.86,0,0,0-8.12-7.85c5.35-3.4,12.36-1.88,18.52-.29a1.32,1.32,0,0,0-1.11-1.73,2.17,2.17,0,0,0,2.13-1.36l-4.2-.52a24.24,24.24,0,0,0,6.64-.34l-6.74-5c2.78-.55,5.55-1.09,8.29-1.65.56-.09,1.21-.28,1.37-.82a1.56,1.56,0,0,0-.45-1.29,11.79,11.79,0,0,0-7.35-4.32c.5-.57,1.42-.46,2.17-.25a2.33,2.33,0,0,0,2.19-.15.86.86,0,0,0-.23-1.23,2.53,2.53,0,0,1-.56,0,.41.41,0,0,1,.56,0,5.89,5.89,0,0,0,3.4-1.44L107,37.82a35.08,35.08,0,0,1,13.86-4.53,6,6,0,0,0-5.45-2.46,2.76,2.76,0,0,0-.5-4.76c1.65-1,3.28-1.9,4.91-2.88A1.68,1.68,0,0,0,118.31,22c.53-1.07,1.88-1.46,2.74-2.28s.63-2.9-.54-2.65a7,7,0,0,0,3.42-3.88,3.08,3.08,0,0,0-2.67.83,22.77,22.77,0,0,0,4.9-13.8c-1.23,1-2.44,2.09-3.65,3.14-4.68,4-9.33,8.07-14,12.1A2.53,2.53,0,1,0,104,17.13a7,7,0,0,1-.46,8.63c1.19-3-.37-6.27-1.89-9.09a8,8,0,0,0-2.28-3,2.82,2.82,0,0,0-3.53,0c1.61,1.77.86,4.63-.25,6.74S93,24.8,93.46,27.15a27,27,0,0,0,1.37,3.39c.38,1.16.31,2.65-.71,3.33a1.73,1.73,0,0,0-1.58-2.69,7.26,7.26,0,0,0,.68-3.51,1.56,1.56,0,0,0-1.85,0c2.57-1.53,1.19-5.49-.46-8-1.28-1.94-2.55-3.9-3.84-5.84,1.33,4.21-5.55,7.85-4.07,12,.44,1.17,1.44,2,2.1,3.09s.69,2.76-.43,3.3c-1.78.87-2.19,3.26-1.78,5.2s1.38,3.77,1.48,5.74-1.19,4.27-3.15,4.23c-1.1-.37-1.27-1.85-1-2.94s.73-2.3.27-3.34a1.51,1.51,0,0,0-2.29-.44c.66-2,.23-4.15-.19-6.18-.55-2.71-1.11-5.38-1.67-8.09-.07-.34-.21-.78-.57-.88s-.66.58-.27.62a19,19,0,0,0-2.59,22.9c1.17,1.86-.23,4.26-1.77,5.8s-3.38,3.3-3.19,5.49c-1.17-.14-2.32-.25-3.47-.37,2-1.38.09-5.2-2.19-4.53A6.12,6.12,0,0,0,63,49L60.5,51.12a99.58,99.58,0,0,0,3.27-10.94,3.09,3.09,0,0,0-2.88.65,25.65,25.65,0,0,0-.75-10.23,17.73,17.73,0,0,0-6.22,14.94A2.3,2.3,0,0,0,51.44,45a20.73,20.73,0,0,0,2.08,9.83c-1.12,0-1.71,1.36-1.81,2.49-.29,3,.73,6,1,8.93S52,72.72,49.31,74a13.85,13.85,0,0,0,1.6-5.67c0-2-1.08-4.1-3-4.68-.31-3.65-.63-7.31-1-10.94a1.41,1.41,0,0,0-1.17,1.44c-.17-1.56-.33-3.09-.5-4.65a2.38,2.38,0,0,0-.81-1.92,1,1,0,0,0-1.34.46,14.79,14.79,0,0,0-3.84-8.37L37.78,45.1c-1.66,5.72-3.19,12.28,0,17.31a5.53,5.53,0,0,0,2.35,2.15c1.84.73,2.68,3,2.47,5A14,14,0,0,1,40.29,75,11.67,11.67,0,0,0,36,79.75,26.7,26.7,0,0,1,34.82,84,11.61,11.61,0,0,1,36,79.75a27.53,27.53,0,0,0-.42-12.67,2.91,2.91,0,0,0-2,.92c.19-1.88.37-3.78.56-5.67a2.24,2.24,0,0,0-.25-1.55c-.33-.4-1.13-.44-1.27.08A21.51,21.51,0,0,0,27.52,49.2c2.15,4-1.38,8.72-1.3,13.25.06,2.71,1.46,5.3,1.3,8-.17,3.28-2.53,6.14-2.59,9.42a28.72,28.72,0,0,1-4.68,15c.34-1.15-1.48-2.59-2.78-2-1.5.69-2,2.49-2.42,4.1s-.92,3.42-2.46,4.07a2.64,2.64,0,0,0-1.34-2C7,103,6.93,110.61,1.8,113.36a3.89,3.89,0,0,0-.27,6.37,28.71,28.71,0,0,1,15-10.15c5.79-1.62,10.23-8,16.22-7.2l-2.56-1.86a6.63,6.63,0,0,0,5.21-2.71c-.6-.29-1.21-.6-1.83-.86,3.88-1.5,8.14.65,11.52,3.07s6.82,5.28,11,5.37a13,13,0,0,0,6.61-1.92,81.68,81.68,0,0,0-20-11.63,2,2,0,0,0,0-2.9,9.2,9.2,0,0,0,5.53-4.26c2.55.52,3.7,3.55,5.91,4.95a10.09,10.09,0,0,0,4.74,1.21c4.21.37,8.39.6,12.58.67a26.63,26.63,0,0,0-9.74-5.24c-1.42-.42-2.18-1.92-2.7-3.32s.11-3.42-1.06-4.32a.26.26,0,0,0-.15-.07,4.53,4.53,0,0,1-1.63-.25,2.6,2.6,0,0,1,1.63.25c3.41,0,7.85-2.37,9.94.34a16.85,16.85,0,0,0,19.64,5C87.88,83.68,88.44,83.09,88,82.68ZM82.31,54.12c.58.23-.42,1-.75.52Z"/><path id="fill2" class="cls-2" d="M88,82.68c-1.13-1.09.56-3.13-.11-4.57-.77-1.65-3.19-.73-5-.38-5.93,1.17-10-7-16.06-7.39,1.74-.48,3.53-1,5.3-1.42a1.41,1.41,0,0,0-1.48-1.48c.8-1.61,3-2,4.74-1.4s3.11,1.77,4.66,2.67c5.4,3.05,12.14,1.92,18.09.19A6.19,6.19,0,0,1,94.35,67a101.86,101.86,0,0,0-8.12-7.85c5.35-3.4,12.36-1.88,18.52-.29a1.32,1.32,0,0,0-1.11-1.73,2.17,2.17,0,0,0,2.13-1.36l-4.2-.52a24.24,24.24,0,0,0,6.64-.34l-6.74-5c2.78-.55,5.55-1.09,8.29-1.65.56-.09,1.21-.28,1.37-.82a1.56,1.56,0,0,0-.45-1.29,11.79,11.79,0,0,0-7.35-4.32c.5-.57,1.42-.46,2.17-.25a2.33,2.33,0,0,0,2.19-.15.86.86,0,0,0-.23-1.23,2.53,2.53,0,0,1-.56,0,.41.41,0,0,1,.56,0,5.89,5.89,0,0,0,3.4-1.44L107,37.82a35.08,35.08,0,0,1,13.86-4.53,6,6,0,0,0-5.45-2.46,2.76,2.76,0,0,0-.5-4.76c1.65-1,3.28-1.9,4.91-2.88A1.68,1.68,0,0,0,118.31,22c.53-1.07,1.88-1.46,2.74-2.28s.63-2.9-.54-2.65a7,7,0,0,0,3.42-3.88,3.08,3.08,0,0,0-2.67.83,22.77,22.77,0,0,0,4.9-13.8c-1.23,1-2.44,2.09-3.65,3.14-4.68,4-9.33,8.07-14,12.1A2.53,2.53,0,1,0,104,17.13a7,7,0,0,1-.46,8.63c1.19-3-.37-6.27-1.89-9.09a8,8,0,0,0-2.28-3,2.82,2.82,0,0,0-3.53,0c1.61,1.77.86,4.63-.25,6.74S93,24.8,93.46,27.15a27,27,0,0,0,1.37,3.39c.38,1.16.31,2.65-.71,3.33a1.73,1.73,0,0,0-1.58-2.69,7.26,7.26,0,0,0,.68-3.51,1.56,1.56,0,0,0-1.85,0c2.57-1.53,1.19-5.49-.46-8-1.28-1.94-2.55-3.9-3.84-5.84,1.33,4.21-5.55,7.85-4.07,12,.44,1.17,1.44,2,2.1,3.09s.69,2.76-.43,3.3c-1.78.87-2.19,3.26-1.78,5.2s1.38,3.77,1.48,5.74-1.19,4.27-3.15,4.23c-1.1-.37-1.27-1.85-1-2.94s.73-2.3.27-3.34a1.51,1.51,0,0,0-2.29-.44c.66-2,.23-4.15-.19-6.18-.55-2.71-1.11-5.38-1.67-8.09-.07-.34-.21-.78-.57-.88s-.66.58-.27.62a19,19,0,0,0-2.59,22.9c1.17,1.86-.23,4.26-1.77,5.8s-3.38,3.3-3.19,5.49c-1.17-.14-2.32-.25-3.47-.37,2-1.38.09-5.2-2.19-4.53A6.12,6.12,0,0,0,63,49L60.5,51.12a99.58,99.58,0,0,0,3.27-10.94,3.09,3.09,0,0,0-2.88.65,25.65,25.65,0,0,0-.75-10.23,17.73,17.73,0,0,0-6.22,14.94A2.3,2.3,0,0,0,51.44,45a20.73,20.73,0,0,0,2.08,9.83c-1.12,0-1.71,1.36-1.81,2.49-.29,3,.73,6,1,8.93S52,72.72,49.31,74a13.85,13.85,0,0,0,1.6-5.67c0-2-1.08-4.1-3-4.68-.31-3.65-.63-7.31-1-10.94a1.41,1.41,0,0,0-1.17,1.44c-.17-1.56-.33-3.09-.5-4.65a2.38,2.38,0,0,0-.81-1.92,1,1,0,0,0-1.34.46,14.79,14.79,0,0,0-3.84-8.37L37.78,45.1c-1.66,5.72-3.19,12.28,0,17.31a5.53,5.53,0,0,0,2.35,2.15c1.84.73,2.68,3,2.47,5A14,14,0,0,1,40.29,75,11.67,11.67,0,0,0,36,79.75,26.7,26.7,0,0,1,34.82,84,11.61,11.61,0,0,1,36,79.75a27.53,27.53,0,0,0-.42-12.67,2.91,2.91,0,0,0-2,.92c.19-1.88.37-3.78.56-5.67a2.24,2.24,0,0,0-.25-1.55c-.33-.4-1.13-.44-1.27.08A21.51,21.51,0,0,0,27.52,49.2c2.15,4-1.38,8.72-1.3,13.25.06,2.71,1.46,5.3,1.3,8-.17,3.28-2.53,6.14-2.59,9.42a28.72,28.72,0,0,1-4.68,15c.34-1.15-1.48-2.59-2.78-2-1.5.69-2,2.49-2.42,4.1s-.92,3.42-2.46,4.07a2.64,2.64,0,0,0-1.34-2C7,103,6.93,110.61,1.8,113.36a3.89,3.89,0,0,0-.27,6.37,28.71,28.71,0,0,1,15-10.15c5.79-1.62,10.23-8,16.22-7.2l-2.56-1.86a6.63,6.63,0,0,0,5.21-2.71c-.6-.29-1.21-.6-1.83-.86,3.88-1.5,8.14.65,11.52,3.07s6.82,5.28,11,5.37a13,13,0,0,0,6.61-1.92,81.68,81.68,0,0,0-20-11.63,2,2,0,0,0,0-2.9,9.2,9.2,0,0,0,5.53-4.26c2.55.52,3.7,3.55,5.91,4.95a10.09,10.09,0,0,0,4.74,1.21c4.21.37,8.39.6,12.58.67a26.63,26.63,0,0,0-9.74-5.24c-1.42-.42-2.18-1.92-2.7-3.32s.11-3.42-1.06-4.32a.26.26,0,0,0-.15-.07,4.53,4.53,0,0,1-1.63-.25,2.6,2.6,0,0,1,1.63.25c3.41,0,7.85-2.37,9.94.34a16.85,16.85,0,0,0,19.64,5C87.88,83.68,88.44,83.09,88,82.68ZM82.31,54.12c.58.23-.42,1-.75.52Z"/><path id="fill1" d="M43.5,87.21c-.08,0-.15-.09-.12-.18s.1-.16.07-.25a.61.61,0,0,1,.4,0c.13,0,.21.23.12.33A.77.77,0,0,0,43.5,87.21Zm-8,8a1.46,1.46,0,0,1-1,0c-.06,0-.13-.1-.08-.14s.4,0,.6-.06S35.54,95,35.54,95.21Zm-8.76,7a1,1,0,0,1,.69-.2A.48.48,0,0,1,26.78,102.18Zm5.29-3.94.2,0a.66.66,0,0,1-.67.22.61.61,0,0,1,.47-.23Zm-1.52.33c.07.08.21,0,.29-.08s.17-.2.27-.15a.31.31,0,0,1,.09.11l.08.15c-.13-.07-.28.05-.41.12S30.49,98.71,30.55,98.57ZM51.91,71a.14.14,0,0,1-.2-.11.36.36,0,0,1,.07-.26l.26-.48a2.3,2.3,0,0,1-.07.74A.24.24,0,0,1,51.91,71Zm16.68-2.93a.14.14,0,0,1-.08.19.39.39,0,0,1-.24,0,.76.76,0,0,0-.23-.42l.46.19A.16.16,0,0,1,68.59,68.08Zm-16.34-2v.64A.37.37,0,0,1,52.25,66.13ZM26.79,102.21a1.62,1.62,0,0,1-.51.21.35.35,0,0,1,.5-.23ZM32,93h-.19a.25.25,0,0,1,.36-.16A.16.16,0,0,1,32,93Zm0,2.23a.42.42,0,0,1,.26-.19.54.54,0,0,1,0,.31.21.21,0,0,1-.25.12c-.09,0-.08-.22,0-.23Zm2.21-.47.18-.07a.47.47,0,0,1-.21.33c-.12,0-.29-.11-.2-.2s.15,0,.23,0Zm-.61.29H33.3a.25.25,0,0,1,.37-.16l-.08.17ZM68.22,70.19c0-.14.25-.15.41-.13a.27.27,0,0,1-.42.12Zm-37,25.61a1,1,0,0,1,.39-.34.42.42,0,0,1-.4.37ZM50.62,72.89a.28.28,0,0,1,.39-.15.24.24,0,0,1-.35.14Zm22-20a.3.3,0,0,1,.27-.27.32.32,0,0,1-.27.28ZM31.1,100.73c0-.13.28,0,.25.08a.28.28,0,0,1-.29,0Zm9.49-26.14a.39.39,0,0,1,0,.24c0,.08-.12.14-.19.1s-.08-.15,0-.22a.42.42,0,0,1,.21-.13ZM29.4,99h-.27a.14.14,0,1,1,.27,0Zm3.65-4.1c-.13,0-.06-.29.07-.25a.28.28,0,0,1,0,.29Zm8.8-24.44a.16.16,0,0,1,.17-.18.16.16,0,0,1-.17.18Zm31.29-9.43a.15.15,0,0,1-.17.18.16.16,0,0,1,.17-.18ZM67.8,59l.17-.08c.07.1-.14.23-.19.11ZM46,88.54c-.14,0-.05-.3.08-.25s0,.3-.08.26ZM70,65.68l.17-.08c.08.1-.14.23-.19.11ZM41.14,90.41c0-.09.08-.19.17-.17a.15.15,0,0,1-.18.17Zm2-3.29s0,.12-.11.08S43,87.1,43,87a.14.14,0,0,1,.17.09Zm-5.78,6a.16.16,0,0,1-.18.18.16.16,0,0,1,.18-.18Zm6.42.7.08.17c-.1.08-.23-.14-.11-.19Zm-7,1.35A.16.16,0,0,1,37,95a.16.16,0,0,1-.18.18ZM69,68.28l-.09-.18a.23.23,0,0,1,.18.06s0,.15-.07.12ZM37.14,95.48a.15.15,0,0,1,.17-.17.16.16,0,0,1-.18.17ZM34,92.9a.16.16,0,0,1,.18-.17.15.15,0,0,1-.18.17ZM32.73,95c.1.07,0,.24-.14.23a.27.27,0,0,1,.15-.22Zm-1.77.9c.06-.09.19-.19.25-.1a.19.19,0,0,1-.26.11ZM52,70.19c-.1-.07,0-.24.14-.23a.27.27,0,0,1-.15.22Zm7,2.71a.16.16,0,0,1-.18.18A.16.16,0,0,1,59,72.9ZM31,95.88a.24.24,0,0,1-.21.14c0-.11.13-.23.22-.14ZM29.76,99a.15.15,0,0,1,.17-.18.16.16,0,0,1-.18.18Zm4.76-2a.2.2,0,0,1-.27-.12c.06-.08.2,0,.25.1ZM51.81,64.09c0-.06.07-.11.1-.06l-.08.09Zm.1-.45.09.19a.23.23,0,0,1-.18-.06c0-.05,0-.15.07-.12Zm0,.89s.07-.11.1-.06l-.08.09ZM37.39,95.16a.56.56,0,0,1,.6.1c.07.07.14.16.23.17l1,.13c.11,0,.25.08.22.18s-.15.09-.24.08l-1.11-.19a.64.64,0,0,1-.25-.12Zm21-21.91s-.11,0-.08-.08.11,0,.08.08Zm-5.93-5.66-.09.08s0-.13.06-.11ZM68.63,66l-.09.08c-.05,0,0-.13.06-.11ZM51.94,63c.07,0,.06.12,0,.12s-.07-.12,0-.12Zm16.25,7.19c0-.06-.12-.06-.12,0S68.19,70.25,68.19,70.19ZM51.63,71.38c0-.06.07-.11.1-.06l-.08.09Zm5.43,5.17s.11,0,.07.08-.11,0-.07-.08Zm11-8.68c0-.06-.11-.06-.11,0A.06.06,0,0,0,68,67.87Zm3.74-3.75-.09.08c-.06,0,0-.13,0-.1Zm-4.29-4.2s.11,0,.08.08-.12,0-.08-.08Zm-13.67-15-.1.08s0-.13.06-.1ZM71,65.39c0-.07-.12-.07-.12,0S71,65.45,71,65.39Zm-3.23-5.75s.07-.11.1-.06l-.08.09ZM37,76.63s-.11,0-.08-.08.11,0,.08.08Zm9,7.75s.11,0,.08.07-.11,0-.08-.08Zm25-19c0-.06.12-.06.12,0s-.12.06-.12,0ZM42.92,86.14s0-.11.08-.08,0,.12-.08.08Zm14.85,19.65s0-.11.07-.08,0,.12-.07.08ZM42.12,87.22s.11,0,.08.08-.12,0-.08-.08Zm-.19,3.11s0,.11-.08.08,0-.11.08-.08Zm-.34.17s0-.11.07-.08,0,.11-.08.08ZM38.87,76.4c-.07,0-.07-.13,0-.13s.06.12,0,.13Zm1.64,19.44s0,.12-.08.08,0-.11.08-.07Zm-3.38-.71s0,.11-.08.08,0-.11.08-.08Zm.41.23c.06,0,.06.13,0,.13s-.06-.12,0-.13Zm34.67-42c.07,0,.07.12,0,.12s-.07-.12,0-.12Zm-39,39s.11,0,.07.07-.11,0-.07-.07Zm-1.6,8.43s0-.11.07-.07,0,.11-.07.07ZM72.21,53.37c-.07,0-.06-.13,0-.13s.07.13,0,.13ZM32.73,95c-.06,0-.06-.12,0-.12s.07.12,0,.12Zm1.79,2c0-.07.13-.06.13,0s-.12.07-.13,0ZM93.14,26.67s0,.11-.07.08,0-.12.08-.08ZM34.23,96.86c0-.06-.12-.06-.12,0S34.23,96.92,34.23,96.86ZM13.81,108.59c0-.06.12-.06.12,0s-.12.06-.12,0Zm0,0c0-.06-.12-.06-.12,0S13.78,108.66,13.78,108.6Zm35-37.3a.41.41,0,0,1-.25.18.34.34,0,0,1,.25-.45v.27ZM90.93,31.9a.41.41,0,0,1-.18-.44.32.32,0,0,1,.21.48ZM56.52,72.18l-.26.09A.57.57,0,0,1,56.4,72a.19.19,0,0,1,.28,0c.06.09-.08.23-.15.15ZM54,73.34c-.07.09.06.19.07.29s-.26.18-.31,0,.08-.3.22-.33ZM51.94,63c-.07,0-.07-.12,0-.12s.07.12,0,.12Zm-7.87-.47,0-.21a.47.47,0,0,1,.14.56.23.23,0,0,1-.14-.34Zm25-.71a.34.34,0,0,1-.24.44.36.36,0,0,1,.25-.46Zm-6.32-1.07s.09,0,.09.08a.59.59,0,0,1-.32.47.89.89,0,0,1,.24-.56Zm-2.29,4.8a.42.42,0,0,1-.27.18l.1-.36h.27l-.08.19Zm1.86-3.65a.67.67,0,0,1-.33.27.24.24,0,0,1,0-.31.23.23,0,0,1,.32,0Zm7.88-1.07c.11,0,.16.16.07.23a.32.32,0,0,1-.3,0,.57.57,0,0,1,.23-.3ZM47.65,73.61a.4.4,0,0,1,.35-.36.72.72,0,0,1-.29.35Zm9.55-1.84a.31.31,0,0,1-.06-.29h.27a.4.4,0,0,1-.18.26Zm33.08-44a.23.23,0,0,1-.13.35.29.29,0,0,1,.15-.39ZM53.94,72.49l.1-.39c.1,0,.18.09.15.19s-.13.14-.21.19Zm-4.62-4.13a.15.15,0,0,1,.17-.17v.26a.14.14,0,0,1-.17-.09ZM54,72.49c.09.13-.09.29-.25.32A.56.56,0,0,1,54,72.5Zm16.26-12.2a.35.35,0,0,1-.19-.15.14.14,0,0,1,0-.21.15.15,0,0,1,.2.12.47.47,0,0,1,0,.26ZM49.13,69.62c.13,0,.06.29-.07.25a.28.28,0,0,1,0-.29ZM61.31,54.31a.14.14,0,0,1-.17.09.29.29,0,0,1,.28-.26l-.08.18Zm8.85,6.45c-.09-.06,0-.21.11-.27l.14.21-.25,0ZM49.45,66.89a.57.57,0,0,1-.23-.3.27.27,0,0,1,.26.31ZM50.83,75a.14.14,0,0,1,.13-.17.13.13,0,0,1,.13.17Zm-1.61-6c.1,0,.1.17,0,.2s-.19-.08-.18-.18h.18Zm42-38.66c0,.14.3.05.25-.08S91.16,30.26,91.2,30.39ZM55.09,69.77l.18-.09A.28.28,0,0,1,55,70l.08-.18ZM71.23,59l-.22.39c0,.06-.09.13-.16.12s-.08-.18,0-.28l.14-.27c.07-.12.25-.24.3-.12S71.26,58.93,71.23,59ZM49.67,76.1a.18.18,0,0,1-.18.09c0-.06,0-.14.07-.17s.15,0,.11.08ZM13.22,106h.26a.14.14,0,0,1-.13.17.14.14,0,0,1-.13-.17ZM60,66.14a.14.14,0,1,1,0,.27v-.27Zm10.35-6.46.21-.14c.06.11-.12.25-.21.16Zm-9.47-4.4L61,55.2c.08.09-.13.22-.19.11Zm5,9.53a.16.16,0,0,1,.18-.18.16.16,0,0,1-.18.18ZM55,70.27c.1.07,0,.25-.14.23a.28.28,0,0,1,.14-.22Zm-10.82,9.6a.13.13,0,0,1,0-.16.12.12,0,0,1,.17,0l-.09.16ZM57.05,66.14a.16.16,0,0,1,.18-.18.16.16,0,0,1-.18.18Zm31.37-37.6-.08-.17c.1-.07.23.14.11.19ZM45.58,57.68s.08-.11.11,0l-.08.09Zm.8,3.92s-.12,0-.08-.08.11,0,.07.08Zm15,6.52-.09.08s0-.13.06-.1Zm-6.69,3s-.12,0-.08-.07.11,0,.07.08Zm7.05-8.5-.09.08s0-.13,0-.1ZM60.7,65c0-.06.07-.11.1-.06l-.08.09ZM55,70.26c-.07,0-.06-.12,0-.12s.07.12,0,.12ZM66.5,61.72l-.09.08s0-.13.06-.1Zm-.38,0c0-.06.07-.11.1-.06l-.08.09ZM63.83,58l-.09.07c-.05,0,0-.13.06-.1ZM51.92,74.17l-.09.08s0-.13.05-.11ZM70.21,60.48l0-.18,0,.18ZM49.45,66.91c.07,0,.06.12,0,.12s-.07-.12,0-.12Zm4,7-.09.08c-.05,0,0-.13.06-.1Zm-2,.71-.09.08c-.05,0,0-.13.06-.1Zm-6.42-1.88s.12,0,.08.07-.11,0-.07-.07Zm-.16.82-.09.07s0-.13.06-.1ZM71.72,57.86s.08-.11.11,0l-.08.09ZM44.81,79.32l-.1.08c-.05,0,0-.13.06-.1ZM72.28,57.9l-.09.08s0-.14.06-.11ZM99.87,21.11a1.34,1.34,0,0,1,.78-.36l-1.17,3.67c-.19.59-.38,1.18-.51,1.78a9.77,9.77,0,0,0,.85,6.42.62.62,0,0,1-.51.84.81.81,0,0,1-.82-.67,14,14,0,0,0-.41-2,10,10,0,0,1,0-4.19c.12-.55.29-1.09.46-1.63a10.24,10.24,0,0,1,1.38-3.13.9.9,0,0,0,.22-.42c0-.16-.12-.34-.28-.3m-1.55,8,.09-.16c-.1-.08-.23.13-.12.18m1-5.55s.11,0,.08-.07-.11,0-.08.08Zm-29,36.15c0-.06-.12-.06-.12,0S70.33,59.76,70.33,59.69Zm3-4.14s.08-.11.11-.06l-.08.09ZM38.1,79.22s0,.11-.07.07,0-.11.08-.07ZM60.9,46l-.09.08c-.05,0,0-.13,0-.1ZM72.81,56.83l-.09.08s0-.13.06-.1ZM33.75,88.91s0,.11-.08.08,0-.12.08-.08Zm-1.42,1.42s0,.11-.08.08,0-.11.08-.08Zm-31,26s.11,0,.07.07-.11,0-.07-.08ZM27.88,93.53s0,.11-.08.08,0-.11.08-.08ZM91.1,31.28s-.11,0-.08-.08.11,0,.08.08ZM33.63,67.93a3,3,0,0,1,2-.94,27.64,27.64,0,0,1-.8,16.94,11.91,11.91,0,0,1,5.49-9,13.84,13.84,0,0,0,2.33-5.46c.23-2-.63-4.23-2.48-5a5.37,5.37,0,0,1-2.33-2.15c-3.23-5-1.69-11.59,0-17.32l1.57-5.45a14.82,14.82,0,0,1,3.89,8.81c-.39-.62.68-1.29,1.29-.9a2.5,2.5,0,0,1,.82,1.94l.49,4.64a1.45,1.45,0,0,1,1.18-1.45l1,11c1.89.58,3,2.71,3,4.69a14.12,14.12,0,0,1-1.62,5.68c2.73-1.27,3.61-4.77,3.38-7.77s-1.25-6-1-8.95c.11-1.12.69-2.48,1.82-2.49a20.32,20.32,0,0,1-2.07-9.84,2.29,2.29,0,0,1,2.47.56,17.71,17.71,0,0,1,6.22-14.95A25.28,25.28,0,0,1,61,40.73a3.11,3.11,0,0,1,2.91-.65A104.14,104.14,0,0,1,60.6,51l2.51-2.15a6.09,6.09,0,0,1-.76,6.54c2.3-.67,4.16,3.17,2.2,4.56L68,60.3c-.19-2.18,1.67-3.91,3.2-5.47S74.16,50.88,73,49a19.05,19.05,0,0,1,2.58-23c-.37,0-.07-.72.29-.62s.5.53.57.9l1.68,8.07c.46,2.21.9,4.59,0,6.67,0-1.14,2-1.07,2.44,0s0,2.23-.25,3.34-.07,2.57,1,2.94c2,0,3.27-2.25,3.18-4.23s-1.07-3.8-1.48-5.73,0-4.35,1.77-5.22c1.12-.55,1.07-2.23.43-3.31s-1.67-1.92-2.09-3.1c-1.49-4.16,5.39-7.82,4.05-12l3.87,5.86c1.65,2.5,3,6.44.45,8a1.55,1.55,0,0,1,1.84,0,7.2,7.2,0,0,1-.66,3.51,1.73,1.73,0,0,1,1.57,2.69c1-.67,1.1-2.17.71-3.33A30.88,30.88,0,0,1,93.58,27c-.49-2.36,1-4.62,2.09-6.75s1.87-5,.25-6.77a2.85,2.85,0,0,1,3.54,0,8.37,8.37,0,0,1,2.3,3c1.51,2.82,3.06,6.12,1.87,9.09a6.94,6.94,0,0,0,.46-8.63,2.54,2.54,0,1,1,4.56-1.71l14-12.12L126.33,0a22.7,22.7,0,0,1-4.94,13.89A3,3,0,0,1,124.1,13a6.89,6.89,0,0,1-3.43,3.88c1.19-.24,1.43,1.8.56,2.64s-2.23,1.22-2.77,2.3A1.69,1.69,0,0,1,120,23.07l-4.91,2.87a2.78,2.78,0,0,1,.49,4.78,6.05,6.05,0,0,1,5.46,2.46,34.9,34.9,0,0,0-13.89,4.53l3.87.92a6.07,6.07,0,0,1-4,1.47c.52-.57,1.34.66.79,1.2s-1.44.35-2.18.15-1.67-.33-2.16.25A11.86,11.86,0,0,1,110.85,46a1.5,1.5,0,0,1,.43,1.29c-.16.53-.81.72-1.35.83l-8.3,1.64,6.74,5a24.51,24.51,0,0,1-6.68.34l4.23.52A2.19,2.19,0,0,1,103.77,57a1.33,1.33,0,0,1,1.12,1.74c-6.16-1.61-13.17-3.12-18.55.29a102.18,102.18,0,0,1,8.14,7.84,6.17,6.17,0,0,0,3.85,1.92c-6,1.73-12.7,2.85-18.09-.21-1.57-.88-3-2.1-4.67-2.66s-3.94-.2-4.74,1.41a1.38,1.38,0,0,1,1.46,1.47L67,70.27c6.07.36,10.15,8.58,16.11,7.41,1.78-.35,4.19-1.27,5,.37.68,1.44-1,3.49.11,4.59.4.39-.17,1-.67,1.22a16.87,16.87,0,0,1-19.66-5c-2.78-3.65-9.77,1.89-12.9-1.45L59.18,77A10.09,10.09,0,0,1,71,80.26c3.3,4.58,10.17,4,15.71,2.95l-.28-5.45C83,80.07,78.38,78.34,75,76s-6.7-5.28-10.79-5.42a6.86,6.86,0,0,1,6.06-2.06L68,67.13c2.71-2,6.57-3.91,9.23-1.82a19.85,19.85,0,0,0,17,3.5,48.16,48.16,0,0,0-8.6-8.46c-2-1.49-6,1.36-6.72-1l11.28-3c3.27-.85,7.11-1.59,9.71.56a1.69,1.69,0,0,0-.5-2.25,13.36,13.36,0,0,1,5.73-.94,19.91,19.91,0,0,0-22.68-.86c-.53.35-1.11.94-.86,1.53s1.38-.19.79-.43q-5.7,3.81-11.11,8a14.11,14.11,0,0,1,14.46,5c-3.6-2.61-7.74-5.21-12.14-4.62-7.28,1-11.15,10-18.29,11.66a25.74,25.74,0,0,1,23.23,5.79c-4.64-2.92-9.8-5.27-15.27-5.57-6.4-.35-12.7,2.18-18,5.87s-9.61,8.48-13.93,13.23a42.23,42.23,0,0,1,18.24,3.91L37.49,94.83a12.65,12.65,0,0,0-6-.27,12.94,12.94,0,0,0-4.24,2.5L8.63,111.63l20.49-10a1.39,1.39,0,0,1-2-1.29A42,42,0,0,1,33,98.13a13.51,13.51,0,0,1-5.3-.11c5-4,12.54-2.81,17.84.73,2.33,1.56,4.42,3.52,6.95,4.71s5.8,1.46,8-.31a65.73,65.73,0,0,0-11.67-7.47,49.48,49.48,0,0,0-10.65-4L42.2,90.5l-1.15-2.58,3.27-.79-1.09-1.76L46.64,85l.44-2.32a16.07,16.07,0,0,1,5.35,3.76c3.78,4,10,4.18,15.52,4-1.84-2.93-6.76-2.23-8.84-5-1-1.27-1.06-3-1.81-4.38S54.41,78.76,53.43,80c.19-1.47,2.38-1.84,3.56-.94s1.61,2.44,2.11,3.84,1.28,2.89,2.71,3.31a26.83,26.83,0,0,1,9.74,5.26q-6.3-.14-12.58-.67a10.28,10.28,0,0,1-4.75-1.22c-2.21-1.41-3.38-4.44-5.95-5a9,9,0,0,1-5.51,4.26,2.06,2.06,0,0,1,0,2.92,81.12,81.12,0,0,1,20,11.65,13.18,13.18,0,0,1-6.63,1.92c-4.14-.1-7.62-3-11-5.38s-7.65-4.58-11.53-3.1l1.83.89a6.68,6.68,0,0,1-5.22,2.71l2.56,1.85c-6-.76-10.43,5.59-16.24,7.22a28.65,28.65,0,0,0-15,10.17,3.91,3.91,0,0,1,.25-6.39C6.94,110.6,7,102.94,11.26,99A2.69,2.69,0,0,1,12.62,101c1.51-.65,2.07-2.47,2.45-4.08s.91-3.42,2.42-4.11,3.64,1.28,2.5,2.47A29,29,0,0,0,25,79.8c.08-3.28,2.44-6.15,2.61-9.42.14-2.71-1.25-5.3-1.3-8-.1-4.54,3.44-9.27,1.28-13.26a21.45,21.45,0,0,1,5.1,11.67c.14-.52,1-.49,1.28-.07a2.19,2.19,0,0,1,.23,1.54l-.53,5.68M119.24,8c0-.07-.18,0-.12,0a.39.39,0,0,1,.26,0c0-.06-.11-.12-.12,0M90.08,49.89a1,1,0,0,0-.42.11s-.1.09-.06.13a.42.42,0,0,0,.48-.24M28.51,68.2c1.77,4.84-4.35,10.11-2.33,14.85,1.3,3-2.68,5.66-3.55,8.84-.3,1.1-.22,2.27-.58,3.34S20.6,97.3,19.52,97a3.66,3.66,0,0,0-1.8-3.59,27.56,27.56,0,0,1-5,9.9l-2-2.68A38.85,38.85,0,0,1,.39,116.89l1.88.07c4.24-8.1,15-11.09,19.28-19.18a9.38,9.38,0,0,1-1.95,4c7.68-5.64,9.79-16,11.33-25.44a37.41,37.41,0,0,1-4.32,18.55c5.52-4.09,11.15-8.29,14.91-14s5.32-13.43,2.14-19.52a16,16,0,0,1-.35,18.53A19.71,19.71,0,0,0,57.84,63.51C58.8,55.58,55,46.66,59.41,40,57,45.13,58,51.13,58.67,56.76s.67,12-3.22,16.13A55.75,55.75,0,0,0,73.11,57.58c1.4-1.87,2.74-4,2.49-6.35L74,36.26c2.17,7.56,4.21,16.21,0,22.86,4.34-5.31,11.13-8.69,13.93-14.95,3.31-7.38-.09-16,.79-24A62,62,0,0,1,89.18,45Q101,32.88,111.85,19.94a4.2,4.2,0,0,1-2,3.49,41.46,41.46,0,0,0,10.31-4.31l-1.88-1.49L121.11,15a2.08,2.08,0,0,1-3,0,14.39,14.39,0,0,0,6.32-11.41c-1.26,2.9-4.47,4.31-7.19,5.92s-5.48,4.36-4.79,7.45a1.41,1.41,0,0,1-1.9-1.18,3.89,3.89,0,0,1-1.79,2.68A11.34,11.34,0,0,0,106,13.75c-1.49,1.64.07,4.13.65,6.26a6.87,6.87,0,0,1-4.83,8.16,13.39,13.39,0,0,0-4.13-14.31C100,17.48,95,21.7,95.06,26c0,1.91,1.07,3.65,1.34,5.54s-.87,4.3-2.77,4.12a3.26,3.26,0,0,0-2.16-2.2l.38-3.39c-.64.35-1.41-.38-1.46-1.1a5.49,5.49,0,0,1,.6-2.09c1.26-3.47-1.08-7.13-3.29-10.09.93,2.58-3.25,4.36-3.47,7.1-.24,3,4.45,5.7,2.73,8.2-.58.84-1.69,1.15-2.34,1.93-1.5,1.8.27,4.36.92,6.62a6.87,6.87,0,0,1-2.77,7.46,2.8,2.8,0,0,1-2.38.51c-1.19-.43-1.54-2-1.39-3.21s.62-2.5.36-3.74a1.63,1.63,0,0,1-2.42.66l.69-5.53a1.7,1.7,0,0,1-2.19,1,12.7,12.7,0,0,0,.26-9.39,13.65,13.65,0,0,0-4.12,12.89c.62,2.75,2.09,5.25,2.6,8s-.35,6.16-3,7.19c-1.08.42-1.31,1.81-1.62,2.93s-1.33,2.4-2.39,1.91c-1.63-.74-3.33,1-4.08,2.57S61.69,67.54,60,68.08l4.54-11.23c-1.25.78-2.94-.56-3.07-2s.73-2.82,1.56-4a5.12,5.12,0,0,1-3.83,1.68q1.6-5.34,3.19-10.68a4.09,4.09,0,0,1-2.78-.08,32,32,0,0,0,0-9.11A19.2,19.2,0,0,0,55.3,47.84a2.72,2.72,0,0,1-2.44-1.64,20.81,20.81,0,0,0,2.46,10.07,1.57,1.57,0,0,1-2.17-.36c.14,3.69.27,7.39.41,11.08.07,2,.12,4.08-.9,5.78s-3.5,2.67-5,1.41c1.63-2.67,3.18-6.39,1-8.61A9.77,9.77,0,0,1,46,56.74,7.33,7.33,0,0,1,44.69,50a4.64,4.64,0,0,1-2.1,1,30.07,30.07,0,0,0-2.12-8.35,20.39,20.39,0,0,0-1.2,19.89c.32.64.85,1.35,1.55,1.23,2.2-.39,3.26,2.66,3,4.88a20.17,20.17,0,0,1-4.63,11,4,4,0,0,1-1.32-1.49,13.16,13.16,0,0,1-8.08,11.1,31.66,31.66,0,0,0,5.74-12.34c.24-1.1-.1-2.77-1.2-2.55l.71-5.73a4.51,4.51,0,0,1-2.53,1.11l.31-7.27c-2.87-.54-.56-6.61-3.4-7.29a16.21,16.21,0,0,0-.95,13.12m39.61,6.35c0-.08-.18,0-.13,0a.39.39,0,0,1,.26,0c0-.06-.1-.12-.13,0m6.67-33.16c-.07,0,0,.15,0,.12a2.14,2.14,0,0,1,0-.44.15.15,0,0,0-.18.11.15.15,0,0,0,.13.17M88,50.44a.25.25,0,0,0,.4-.15l-.54.14s.08.07.13,0M28.08,99.79l-.19.08c-.08,0-.16.15-.08.17l1.14-.3a1,1,0,0,0-.87.05M113.18,30a.68.68,0,0,1,.65-.46,3.51,3.51,0,0,0,.86,0,1.2,1.2,0,0,0,.46-1.8,3.47,3.47,0,0,0-1.78-1.17.61.61,0,0,1-.23-.83,1.7,1.7,0,0,1,.71-.64,22.12,22.12,0,0,1,3.93-1.8,2.71,2.71,0,0,0-1.14-.06,1.34,1.34,0,0,1-1.07-.3c-.26-.28-.17-.86.21-.91a29.92,29.92,0,0,0-5.27,2.16A10,10,0,0,0,106.46,28a19.58,19.58,0,0,1-7.25,7.64c-.32.19-.63.7-.29.83a33.5,33.5,0,0,1,10.91-4.16c.45-.08,1-.1,1.25.3a27.49,27.49,0,0,0-8.1,2.64c-.08.06-.18-.11-.09-.16l-1,.4c-.14,0-.31.13-.33.29s.26.25.27.09c-2.28.86-4.69,1.81-6.11,3.79-.88,1.23-1.42,2.87-2.81,3.46a35.46,35.46,0,0,1,13.06.73c-2.32.57-4.75-.13-7.13-.35a17.39,17.39,0,0,0-5,.28,3.35,3.35,0,0,0-1.87.84,47.85,47.85,0,0,1-7.64,6.24A55.51,55.51,0,0,1,93.85,49a2.44,2.44,0,0,0,1.13-.3c1.82-1.2,4.34,1.06,6.35.21a22.22,22.22,0,0,1,8.27-1.76c.17-.28,0-.63-.22-.88a9.32,9.32,0,0,0-5.58-3.43,7,7,0,0,1-1.81-.45A1.58,1.58,0,0,1,101,41l3.44-.61c-.47-.12-.42-.89,0-1.16a2.11,2.11,0,0,1,1.43-.14,1.71,1.71,0,0,0,1.39-.28,2.32,2.32,0,0,1-1.52-.05c-.45-.24-.66-1-.25-1.27,2.37-1.77,4.89-3.6,7.83-4,1.93-.23,4.12.12,5.61-1.13a8.64,8.64,0,0,1-5.34-1.75c-.21-.16-.45-.39-.41-.66M26.67,95.55a.25.25,0,0,0,0-.19.2.2,0,0,0-.08-.08l-.1-.08L26,96.52a2.42,2.42,0,0,0,.67-1M87.73,46.44a.48.48,0,0,0-.23.16.15.15,0,0,0,.08.23l.11,0c.21-.09.46-.26.4-.48a.41.41,0,0,0-.37.07M57.48,49.68a.18.18,0,0,0-.16-.26v.63a.22.22,0,0,0,.15-.34m26.79,1.66a.55.55,0,0,0-.36.35.57.57,0,0,0,.55-.33h-.19M45.5,86.21a.23.23,0,0,0,.34-.11.41.41,0,0,0-.32-.12c-.12,0-.14.24,0,.26m47-36.64a.14.14,0,0,0,.21.06.46.46,0,0,0,.14-.22.3.3,0,0,0-.39.15M69.22,90.49l-.07.15a.43.43,0,0,0,.26.11.18.18,0,0,0,.2-.15.58.58,0,0,1-.36-.12m28.8-53.75a.7.7,0,0,1,.34-.12c0-.09-.09-.19-.19-.15a.38.38,0,0,0-.17.25M124.1,3.28a.82.82,0,0,0-.29.35.38.38,0,0,0,.35-.35M45.23,87.66c-.13,0,0,.3.08.26s0-.3-.08-.26M77.51,62.4a.41.41,0,0,0-.37-.07.23.23,0,0,0,.39.09M63.9,73.88h.26A.14.14,0,0,0,64,73.7a.15.15,0,0,0-.13.18M73,62.32h.26a.14.14,0,0,0-.13-.18.15.15,0,0,0-.13.18m-6.55,3.79a.3.3,0,0,0-.3,0c0,.13.22.21.26.08m4.28-4a.16.16,0,0,0,.17-.18.15.15,0,0,0-.17.18M46.91,85.88a.16.16,0,0,0-.17.18.15.15,0,0,0,.17-.18M84,51l.09-.18a.22.22,0,0,0-.18.06c0,.05,0,.15.07.12m-41.61-5a.16.16,0,0,0,.18.17.16.16,0,0,0-.18-.17M62.92,69a.16.16,0,0,0-.18.17.16.16,0,0,0,.18-.17M89,22.13a.16.16,0,0,0-.18.18.16.16,0,0,0,.18-.18m-23.74,52a.16.16,0,0,0,.18-.17.15.15,0,0,0-.18.17m44.1-35.74a.15.15,0,0,0-.17.18.16.16,0,0,0,.17-.18m-4.89-7.74a.15.15,0,0,0-.17.18.16.16,0,0,0,.17-.18M69.15,74.85s.11,0,.08-.08-.12,0-.08.08m-1.45-10,.09.08s0-.13-.06-.1M57.85,54.68s-.12,0-.08.07.11,0,.07-.07M51.09,76.37s-.11,0-.08.08.11,0,.08-.08M73.15,60.18s.11,0,.08-.08-.11,0-.08.08M61.58,48.1s-.11,0-.08.07.12,0,.08-.07M79,62.84s.11,0,.08-.07-.12,0-.08.08m1,.19s-.11,0-.07.07.11,0,.07-.08M41.84,95.22s-.11,0-.08.08.12,0,.08-.08M76,54.78l.09.08s0-.13-.06-.1m2,2s.11,0,.08-.08-.11,0-.08.08M75.37,45.86s.12,0,.08-.07-.11,0-.07.07m-.55-3.29s-.07-.11-.1-.06l.08.09M83.72,51s-.11,0-.08.08.11,0,.08-.08M74.57,40.61s.12,0,.08-.07-.11,0-.07.08m5.49,4.63s-.11,0-.07.08.11,0,.07-.08m-5.42-6.59c0-.06-.07-.11-.1-.06l.08.09m13.78,5.07.09.08c.06,0,0-.13,0-.1m1.32,1.07s-.12,0-.08.07.11,0,.07-.07m5.43-1.51s-.11,0-.08.07.11,0,.08-.08m-6-14.68s.12,0,.08-.07-.11,0-.07.07m9.32,8.29s-.11,0-.08.07.11,0,.08-.08m-13.07-16s0-.11-.08-.08,0,.11.08.08m3.29,2s0-.11-.08-.07,0,.11.08.07M120.36,7.27s.12,0,.08-.07-.11,0-.07.07m3.36-3.36s-.11,0-.08.07.12,0,.08-.07Z"/></g></g></svg>