<svg xmlns="http://www.w3.org/2000/svg" viewBox="0 0 121.13 113.91"><defs><style>.cls-1{fill:#fff;}.cls-2{fill:#7bc663;}</style></defs><title>long-leaf-iso</title><g id="Layer_2" data-name="Layer 2"><g id="Long_Leaf" data-name="Long Leaf"><path id="void" class="cls-1" d="M47.8,84s0,.05-.07.07.07,0,.12,0S47.83,84,47.8,84ZM79.12,65.25c-.05,0-.07.07,0,.1l0-.09Zm22.43-23.89c-1,1-2,2.1-3.07,3.13m1.25,10.29,0-.06M81.37,39.31c0-.07.13,0,.1,0a.49.49,0,0,0-.21.08c-.06,0,0-.13.08-.1M96.61,49.42l-.25.09c.08,0,.15-.1.23-.14m3.2,5.44s0,.12,0,.1l0-.13m0,0s0,0,0-.07M64.08,44.12s0,.13,0,.1A.34.34,0,0,0,64,44s.12.06.06.1m8.7,18c.09-.06.2-.15.3-.21a.33.33,0,0,1-.32.23M100,37.43c0-.06.07-.07.1-.13s.21,0,.17.08a.37.37,0,0,1-.25.09M97.94,57.1a2.72,2.72,0,0,0,.31-.38.71.71,0,0,0-.41.37,0,0,0,0,0,0,0m15.93-28.43c-.18.09-.34.2-.53.32,0,.06.11.05.11,0,.09.11.27,0,.37-.11S113.89,28.68,113.81,28.64ZM78.12,78.1l-.61,0M34.2,75.57l.08-.17M83.45,37.65c0,.09-.09.2-.17.23s-.21-.16-.09-.18.17-.16.27-.22.27-.12.28,0a.39.39,0,0,0-.23.21m22.29-8.9a1.15,1.15,0,0,1-.23.42.85.85,0,0,1-.07-.38c.07-.15.27-.19.34-.06m-2.73,4.54a.35.35,0,0,1-.37.35,6.74,6.74,0,0,1,.46-.63.25.25,0,0,1,0,.26M87.62,51.16a.35.35,0,0,1,.4,0,1.09,1.09,0,0,1-.4.27.38.38,0,0,1-.06-.27M53,57.48a.27.27,0,0,1-.28.32.45.45,0,0,1,0-.25.24.24,0,0,1,.26-.1M120.54,1.34a.41.41,0,0,1-.07-.38.19.19,0,0,1,.23.11.2.2,0,0,1-.11.26M82.8,75.5a.38.38,0,0,1,.22-.11.75.75,0,0,1-.13.36s-.14,0-.17-.08M60.05,47.47l0,0m53.06-18.13h0a.53.53,0,0,0,.32.22.3.3,0,0,0,.13-.29.59.59,0,0,1-.45.07M51,81.18c0,.12,0,.23-.14.22s-.14-.13-.1-.22a.44.44,0,0,1,.3-.14c0,.06,0,.1,0,.16M65.34,61.49a.52.52,0,0,1,.21-.32c0,.1,0,.21,0,.31a.13.13,0,0,1-.22,0M88,34.94v0M53.21,79.39a.14.14,0,0,1,0,.24.15.15,0,0,1-.22-.06.26.26,0,0,0,.21-.15m-28.12,5a.26.26,0,0,1,0,.26c-.06,0-.21,0-.2-.1a.41.41,0,0,0,.22-.17M70.57,72.52a.2.2,0,0,0-.21-.23.28.28,0,0,0,.23.28M59.85,69.22a.43.43,0,0,1-.21.39.53.53,0,0,1,.18-.4M118.9,10.87a.2.2,0,0,1,.08-.31.49.49,0,0,1,.08.21l-.13,0M63.18,44.65c.06.1-.11.23-.21.15s.12-.26.18-.16m6.05,20.6a.46.46,0,0,0-.29-.06c0,.13.24.18.3.1m39.34-28.73s.1-.06.14-.07,0,.2-.09.2-.15-.14-.06-.17m-2.21-8.36s.06-.11.13-.12a.36.36,0,0,1-.15.32c0-.05,0-.15,0-.17M113,29.71s.07.06.12.12a.84.84,0,0,1-.24.06c0-.05,0-.17.09-.2M48,59.1c0,.1-.22.11-.24,0A.23.23,0,0,1,48,59m13.29,8.42c0-.06,0-.1,0-.17m0,0a.25.25,0,0,0-.1.31s.09-.06.11-.09m-.17-20.74v0m11.9-5.22a.2.2,0,0,0-.3-.17.4.4,0,0,0,.24.14M91.3,64.23c0-.1.21-.08.19,0s-.1,0-.17,0m-21.85,23s0,.09-.1.06m10.57-27c.06,0,.08.07.14.1a.12.12,0,0,1-.16,0,.08.08,0,0,1,0-.14m8,6.75a.1.1,0,0,1-.2,0h.17M56.09,53.67c0,.06-.1,0-.07-.06s.07-.08.11-.09,0,.1,0,.17M74.2,83.8c-.1,0-.07-.24,0-.2a1.16,1.16,0,0,1,0,.17m18-37.19c0-.06-.1-.08-.12-.13a.09.09,0,0,1,.14,0s0,.08,0,.14m.1,16.6s.09,0,.08.07l-.12-.06m-14.59,18v0l0,0m19-38.93h0M104,31.9c.06,0,.13,0,.08.07l-.09,0m-3.81-4a.1.1,0,0,0-.07-.07s.11,0,.1,0m8.47-2.3-.09,0c0-.05.13,0,.1,0M117.76,18a98.45,98.45,0,0,0,3.36-18c-.72.06-1,1-1.08,1.67a1.36,1.36,0,0,1,0,.2l.27-.36c-.1.16-.18.33-.3.52,0-.06,0-.1,0-.16A287.33,287.33,0,0,1,99.49,27c-2.26,2.35-4.77,4.79-7.94,5.47-5.75,1.23-9.68,7-15.37,8.33-2.2.53-4.47.32-6.7.63a15.92,15.92,0,0,0-9.66,5.2c-2.11,2.41-3.43,5.43-5.38,7.95C52.68,57,50.08,59,47.26,59v0a0,0,0,0,0,0,0,3.54,3.54,0,0,1-.86,0c-3.58-.42-6.73,2.36-8.69,5.36s-3.25,6.49-5.77,9C30.36,75,28.46,76.09,27,77.74,24.32,81,24,85.46,23.31,89.62s-2,8.72-5.75,10.68c-4.92,2.59-9.71,5.38-14.34,8.42-1.83,1.18-3.9,3.2-3,5.18,6.85-4.29,13.66-8.6,20.5-12.89,7.4,4.15,16.53,2.86,24.89,1.42,5.18-.91,11-2.16,13.88-6.58,2.41-3.67,6.12-6.15,9.88-8.51a.12.12,0,0,1,.08-.17c.06,0,0,.08,0,.11,1-.63,2.11-1.27,3.14-1.91,4-2.49,8-5.58,10.11-9.7,0,0,0-.07,0-.09a.11.11,0,0,1,.07-.08,11.5,11.5,0,0,0,.91-2.37c.41-1.52.66-3.28,2-4,5.93-3.31,10.32-8.49,14-14.3a.06.06,0,0,0,0-.08s0,0,.06,0C102.13,51,104.21,47,106.18,43c1.48-2.92,3-5.85,4.46-8.76.82-1.65,1.65-3.29,2.47-4.94l.17-.37A77.18,77.18,0,0,0,117.76,18Zm-109,90.07a.14.14,0,0,1,.18-.17c.1,0,.1.16,0,.23A.16.16,0,0,1,8.74,108.08ZM42,60.49c0-.06,0-.12,0-.18s.1,0,.11.06A.28.28,0,0,1,42,60.49Zm-9.44,23c0-.08,0-.2.09-.2l.08.21C32.7,83.49,32.66,83.51,32.6,83.48ZM51.79,58.36c0,.07-.11.09-.11,0a.15.15,0,0,1,.11,0s.08,0,.1-.06S51.86,58.43,51.79,58.36Zm2.1-1.69c-.08,0-.11-.15,0-.18a.3.3,0,0,1,.24-.17.49.49,0,0,1,0,.24A.17.17,0,0,1,53.89,56.67Zm.51-.74c-.1,0-.18-.15-.11-.22a.16.16,0,0,1,.27,0C54.58,55.84,54.49,56,54.4,55.93Zm2.17-3.15a.45.45,0,0,1,.19-.41A.4.4,0,0,1,56.57,52.78Zm1.34-2.32c-.06-.09,0-.28.12-.26Zm1.8-2.55c0-.08,0-.12.12-.12a.12.12,0,0,1,0,.15S59.68,48,59.71,47.91ZM41.16,88.83c0-.06,0-.14.06-.19a.11.11,0,0,1,.15.11C41.3,88.75,41.25,88.8,41.16,88.83ZM60,47.78c-.13,0-.08-.21,0-.31l.21-.08a.58.58,0,0,1-.09.27C60.14,47.72,60.11,47.78,60,47.78Zm.43-.64c0-.08,0-.2.1-.2a.86.86,0,0,1,.07.21Zm.53-.39s0-.17.08-.17a.08.08,0,0,1,.07.14A.49.49,0,0,0,61,46.75Zm2.69-2.22a.26.26,0,0,1-.36-.12.65.65,0,0,0,.45-.08A.12.12,0,0,1,63.69,44.53Zm-16,39.53s.06,0,.07-.07,0,0,.05.06S47.76,84.08,47.73,84.06ZM71.88,56a.16.16,0,0,1,.05-.19.12.12,0,0,1,.16.11ZM83.1,38.12s.05-.12.12-.12,0,.11,0,.16A0,0,0,1,1,83.1,38.12Zm-10.45,24s-.05-.06,0-.07l.08,0A.07.07,0,0,1,72.65,62.12Zm15.08-27a.21.21,0,0,1,.24-.21A.2.2,0,0,1,87.73,35.15ZM80.4,60.26a.16.16,0,0,1,.22,0,.16.16,0,0,1,.07-.07s.06,0,0,.06A.24.24,0,0,1,80.4,60.26Zm-1.29,5.09c-.06,0,0-.13,0-.1h0ZM94.63,32.1c0-.07,0-.1,0-.08s0,0,0,.1Zm3.2-2.5s.06-.12.1-.06.14-.08.11,0A.34.34,0,0,0,97.83,29.6ZM96.68,42.24l0,0s.1,0,.06,0S96.73,42.22,96.68,42.24Zm-13,30.52c0,.06-.06.12-.13.12l-.08-.21C83.52,72.63,83.63,72.68,83.67,72.76ZM99.92,37.45h.1S99.92,37.52,99.92,37.45Zm-3.31,12c0-.07.14-.08.11,0S96.64,49.43,96.61,49.42ZM120.06,3.7a.8.8,0,0,1,0-.44c.06,0,.13,0,.22.07s.24.07.23.17S120.24,3.75,120.06,3.7ZM97.82,57.12s0-.08,0,0Zm17.55-34c.08-.1.23.1.14.16S115.28,23.15,115.37,23.09Z"/><path id="fill2" class="cls-2" d="M47.8,84s0,.05-.07.07.07,0,.12,0S47.83,84,47.8,84ZM79.12,65.25c-.05,0-.07.07,0,.1l0-.09Zm22.43-23.89c-1,1-2,2.1-3.07,3.13m1.25,10.29,0-.06M81.37,39.31c0-.07.13,0,.1,0a.49.49,0,0,0-.21.08c-.06,0,0-.13.08-.1M96.61,49.42l-.25.09c.08,0,.15-.1.23-.14m3.2,5.44s0,.12,0,.1l0-.13m0,0s0,0,0-.07M64.08,44.12s0,.13,0,.1A.34.34,0,0,0,64,44s.12.06.06.1m8.7,18c.09-.06.2-.15.3-.21a.33.33,0,0,1-.32.23M100,37.43c0-.06.07-.07.1-.13s.21,0,.17.08a.37.37,0,0,1-.25.09M97.94,57.1a2.72,2.72,0,0,0,.31-.38.71.71,0,0,0-.41.37,0,0,0,0,0,0,0m15.93-28.43c-.18.09-.34.2-.53.32,0,.06.11.05.11,0,.09.11.27,0,.37-.11S113.89,28.68,113.81,28.64ZM78.12,78.1l-.61,0M34.2,75.57l.08-.17M83.45,37.65c0,.09-.09.2-.17.23s-.21-.16-.09-.18.17-.16.27-.22.27-.12.28,0a.39.39,0,0,0-.23.21m22.29-8.9a1.15,1.15,0,0,1-.23.42.85.85,0,0,1-.07-.38c.07-.15.27-.19.34-.06m-2.73,4.54a.35.35,0,0,1-.37.35,6.74,6.74,0,0,1,.46-.63.25.25,0,0,1,0,.26M87.62,51.16a.35.35,0,0,1,.4,0,1.09,1.09,0,0,1-.4.27.38.38,0,0,1-.06-.27M53,57.48a.27.27,0,0,1-.28.32.45.45,0,0,1,0-.25.24.24,0,0,1,.26-.1M120.54,1.34a.41.41,0,0,1-.07-.38.19.19,0,0,1,.23.11.2.2,0,0,1-.11.26M82.8,75.5a.38.38,0,0,1,.22-.11.75.75,0,0,1-.13.36s-.14,0-.17-.08M60.05,47.47l0,0m53.06-18.13h0a.53.53,0,0,0,.32.22.3.3,0,0,0,.13-.29.59.59,0,0,1-.45.07M51,81.18c0,.12,0,.23-.14.22s-.14-.13-.1-.22a.44.44,0,0,1,.3-.14c0,.06,0,.1,0,.16M65.34,61.49a.52.52,0,0,1,.21-.32c0,.1,0,.21,0,.31a.13.13,0,0,1-.22,0M88,34.94v0M53.21,79.39a.14.14,0,0,1,0,.24.15.15,0,0,1-.22-.06.26.26,0,0,0,.21-.15m-28.12,5a.26.26,0,0,1,0,.26c-.06,0-.21,0-.2-.1a.41.41,0,0,0,.22-.17M70.57,72.52a.2.2,0,0,0-.21-.23.28.28,0,0,0,.23.28M59.85,69.22a.43.43,0,0,1-.21.39.53.53,0,0,1,.18-.4M118.9,10.87a.2.2,0,0,1,.08-.31.49.49,0,0,1,.08.21l-.13,0M63.18,44.65c.06.1-.11.23-.21.15s.12-.26.18-.16m6.05,20.6a.46.46,0,0,0-.29-.06c0,.13.24.18.3.1m39.34-28.73s.1-.06.14-.07,0,.2-.09.2-.15-.14-.06-.17m-2.21-8.36s.06-.11.13-.12a.36.36,0,0,1-.15.32c0-.05,0-.15,0-.17M113,29.71s.07.06.12.12a.84.84,0,0,1-.24.06c0-.05,0-.17.09-.2M48,59.1c0,.1-.22.11-.24,0A.23.23,0,0,1,48,59m13.29,8.42c0-.06,0-.1,0-.17m0,0a.25.25,0,0,0-.1.31s.09-.06.11-.09m-.17-20.74v0m11.9-5.22a.2.2,0,0,0-.3-.17.4.4,0,0,0,.24.14M91.3,64.23c0-.1.21-.08.19,0s-.1,0-.17,0m-21.85,23s0,.09-.1.06m10.57-27c.06,0,.08.07.14.1a.12.12,0,0,1-.16,0,.08.08,0,0,1,0-.14m8,6.75a.1.1,0,0,1-.2,0h.17M56.09,53.67c0,.06-.1,0-.07-.06s.07-.08.11-.09,0,.1,0,.17M74.2,83.8c-.1,0-.07-.24,0-.2a1.16,1.16,0,0,1,0,.17m18-37.19c0-.06-.1-.08-.12-.13a.09.09,0,0,1,.14,0s0,.08,0,.14m.1,16.6s.09,0,.08.07l-.12-.06m-14.59,18v0l0,0m19-38.93h0M104,31.9c.06,0,.13,0,.08.07l-.09,0m-3.81-4a.1.1,0,0,0-.07-.07s.11,0,.1,0m8.47-2.3-.09,0c0-.05.13,0,.1,0M117.76,18a98.45,98.45,0,0,0,3.36-18c-.72.06-1,1-1.08,1.67a1.36,1.36,0,0,1,0,.2l.27-.36c-.1.16-.18.33-.3.52,0-.06,0-.1,0-.16A287.33,287.33,0,0,1,99.49,27c-2.26,2.35-4.77,4.79-7.94,5.47-5.75,1.23-9.68,7-15.37,8.33-2.2.53-4.47.32-6.7.63a15.92,15.92,0,0,0-9.66,5.2c-2.11,2.41-3.43,5.43-5.38,7.95C52.68,57,50.08,59,47.26,59v0a0,0,0,0,0,0,0,3.54,3.54,0,0,1-.86,0c-3.58-.42-6.73,2.36-8.69,5.36s-3.25,6.49-5.77,9C30.36,75,28.46,76.09,27,77.74,24.32,81,24,85.46,23.31,89.62s-2,8.72-5.75,10.68c-4.92,2.59-9.71,5.38-14.34,8.42-1.83,1.18-3.9,3.2-3,5.18,6.85-4.29,13.66-8.6,20.5-12.89,7.4,4.15,16.53,2.86,24.89,1.42,5.18-.91,11-2.16,13.88-6.58,2.41-3.67,6.12-6.15,9.88-8.51a.12.12,0,0,1,.08-.17c.06,0,0,.08,0,.11,1-.63,2.11-1.27,3.14-1.91,4-2.49,8-5.58,10.11-9.7,0,0,0-.07,0-.09a.11.11,0,0,1,.07-.08,11.5,11.5,0,0,0,.91-2.37c.41-1.52.66-3.28,2-4,5.93-3.31,10.32-8.49,14-14.3a.06.06,0,0,0,0-.08s0,0,.06,0C102.13,51,104.21,47,106.18,43c1.48-2.92,3-5.85,4.46-8.76.82-1.65,1.65-3.29,2.47-4.94l.17-.37A77.18,77.18,0,0,0,117.76,18Zm-109,90.07a.14.14,0,0,1,.18-.17c.1,0,.1.16,0,.23A.16.16,0,0,1,8.74,108.08ZM42,60.49c0-.06,0-.12,0-.18s.1,0,.11.06A.28.28,0,0,1,42,60.49Zm-9.44,23c0-.08,0-.2.09-.2l.08.21C32.7,83.49,32.66,83.51,32.6,83.48ZM51.79,58.36c0,.07-.11.09-.11,0a.15.15,0,0,1,.11,0s.08,0,.1-.06S51.86,58.43,51.79,58.36Zm2.1-1.69c-.08,0-.11-.15,0-.18a.3.3,0,0,1,.24-.17.49.49,0,0,1,0,.24A.17.17,0,0,1,53.89,56.67Zm.51-.74c-.1,0-.18-.15-.11-.22a.16.16,0,0,1,.27,0C54.58,55.84,54.49,56,54.4,55.93Zm2.17-3.15a.45.45,0,0,1,.19-.41A.4.4,0,0,1,56.57,52.78Zm1.34-2.32c-.06-.09,0-.28.12-.26Zm1.8-2.55c0-.08,0-.12.12-.12a.12.12,0,0,1,0,.15S59.68,48,59.71,47.91ZM41.16,88.83c0-.06,0-.14.06-.19a.11.11,0,0,1,.15.11C41.3,88.75,41.25,88.8,41.16,88.83ZM60,47.78c-.13,0-.08-.21,0-.31l.21-.08a.58.58,0,0,1-.09.27C60.14,47.72,60.11,47.78,60,47.78Zm.43-.64c0-.08,0-.2.1-.2a.86.86,0,0,1,.07.21Zm.53-.39s0-.17.08-.17a.08.08,0,0,1,.07.14A.49.49,0,0,0,61,46.75Zm2.69-2.22a.26.26,0,0,1-.36-.12.65.65,0,0,0,.45-.08A.12.12,0,0,1,63.69,44.53Zm-16,39.53s.06,0,.07-.07,0,0,.05.06S47.76,84.08,47.73,84.06ZM71.88,56a.16.16,0,0,1,.05-.19.12.12,0,0,1,.16.11ZM83.1,38.12s.05-.12.12-.12,0,.11,0,.16A0,0,0,1,1,83.1,38.12Zm-10.45,24s-.05-.06,0-.07l.08,0A.07.07,0,0,1,72.65,62.12Zm15.08-27a.21.21,0,0,1,.24-.21A.2.2,0,0,1,87.73,35.15ZM80.4,60.26a.16.16,0,0,1,.22,0,.16.16,0,0,1,.07-.07s.06,0,0,.06A.24.24,0,0,1,80.4,60.26Zm-1.29,5.09c-.06,0,0-.13,0-.1h0ZM94.63,32.1c0-.07,0-.1,0-.08s0,0,0,.1Zm3.2-2.5s.06-.12.1-.06.14-.08.11,0A.34.34,0,0,0,97.83,29.6ZM96.68,42.24l0,0s.1,0,.06,0S96.73,42.22,96.68,42.24Zm-13,30.52c0,.06-.06.12-.13.12l-.08-.21C83.52,72.63,83.63,72.68,83.67,72.76ZM99.92,37.45h.1S99.92,37.52,99.92,37.45Zm-3.31,12c0-.07.14-.08.11,0S96.64,49.43,96.61,49.42ZM120.06,3.7a.8.8,0,0,1,0-.44c.06,0,.13,0,.22.07s.24.07.23.17S120.24,3.75,120.06,3.7ZM97.82,57.12s0-.08,0,0Zm17.55-34c.08-.1.23.1.14.16S115.28,23.15,115.37,23.09Z"/><path id="fill1" d="M106.3,23.54a1.18,1.18,0,0,1,.25-.5A.46.46,0,0,1,106.3,23.54Zm3.28,5.21a.31.31,0,0,1,.06-.25c.07-.06.21,0,.2.06a.52.52,0,0,0-.24.2Zm.77-4.45.13-.18c.08.07,0,.24-.12.2Zm5-1.23c-.09.07,0,.25.15.18S115.45,23,115.36,23.07Zm-2.5-2.71.11-.11c.1.05,0,.22-.11.15ZM85.92,43a.84.84,0,0,1-.35.59l-1.07,1a.69.69,0,0,1,.27-.51C85.14,43.71,85.52,43.35,85.92,43ZM45.65,68.89l.11-.12c.09.06,0,.23-.12.15Zm2,15.1c0-.11.2-.06.23,0a.2.2,0,0,1-.22,0Zm9.93,12.59a1.46,1.46,0,0,1-.79.2A.54.54,0,0,1,57.55,96.58Zm-4.22-5.43c0,.06-.12.08-.15,0l.14-.06ZM79.16,65.24l0,.09s0-.1,0-.1ZM53.34,91.14s.08-.09.1,0-.08.1-.1,0ZM29.42,80c.11.65.22,1.3.38,1.93.34,1.31.91,2.54,1.36,3.81a8.61,8.61,0,0,1,.58,4,1.89,1.89,0,0,1-.52-1.42,24.76,24.76,0,0,0-1.41-5.1,10.93,10.93,0,0,1-.72-5.2ZM58,92.48a78.57,78.57,0,0,1-9.5,1.87,15.62,15.62,0,0,1-3.61.17c-.14,0-.31,0-.37-.18a.29.29,0,0,1,.2-.35.86.86,0,0,1,.45,0,14.46,14.46,0,0,0,4.15-.14,70.8,70.8,0,0,0,7.92-1.35A1.1,1.1,0,0,1,58,92.48Zm5-41.8a29.32,29.32,0,0,1,2.29-4c.07-.1.24-.19.28-.08a24.37,24.37,0,0,0-2.78,5.77A6.81,6.81,0,0,0,62.38,55c0,.47-.54,1-.22,1.31l1.54-3c.26-.5.51-1,.81-1.47s.47-.7.72-1A23.54,23.54,0,0,1,70.59,45c-1.25,1.3-2.5,2.61-3.63,4a30.19,30.19,0,0,0-3.09,4.72c-.94,1.8-1.73,3.85-1.28,5.83a4.74,4.74,0,0,1-.23,2.17l-.77,2.92c-.1.38-.38.86-.75.73a1.46,1.46,0,0,1,.12-.89c.33-1,.62-1.95.86-2.95A5.22,5.22,0,0,0,62,59.33,14.83,14.83,0,0,1,63,50.68Zm57-49c.09-.72.36-1.62,1.08-1.66a99.65,99.65,0,0,1-3.37,18,107,107,0,0,1-7.13,16.24L106.19,43c-5.07,10-10.67,20.57-20.45,26-1.36.76-1.63,2.54-2,4-1.46,5.45-6.31,9.25-11.1,12.24s-10,5.77-13.12,10.49c-2.9,4.41-8.69,5.67-13.89,6.57-8.36,1.43-17.5,2.75-24.88-1.43L.22,113.91c-.91-2,1.15-4,3-5.21q7-4.55,14.35-8.41c3.73-2,5.12-6.53,5.76-10.69s1-8.67,3.73-11.87c1.41-1.65,3.32-2.78,4.85-4.32,2.53-2.55,3.83-6,5.78-9S42.8,58.61,46.36,59c3.19.36,6.14-1.83,8.08-4.38s3.26-5.55,5.37-8a15.81,15.81,0,0,1,9.67-5.19c2.23-.3,4.51-.12,6.7-.63,5.71-1.35,9.61-7.12,15.35-8.34,3.2-.68,5.7-3.11,8-5.48,7.11-7.46,14.68-17.23,20.8-25.52a123.17,123.17,0,0,1-17.42,23.87A37.72,37.72,0,0,1,96.3,31c-3.19,2-6.86,3.25-10,5.41-5.94,4.11-9.14,11.06-12.06,17.67a53.19,53.19,0,0,1,9.92-8.91c-10,8.57-20,17.3-27.2,28.31A177.06,177.06,0,0,0,88,45.09c3.58-4.16,7-8.56,9.07-13.64L92.6,40.94l13.86-17.28a226.94,226.94,0,0,1-30.3,34.2c9.16-4.22,16.37-11.76,22.5-19.76s11.44-16.65,18.12-24.2a214.72,214.72,0,0,1-15,21.42l7.4-6.18c-11,8.84-17.8,23.22-30.93,28.43,9.36-2.12,16.6-9.33,23.28-16.22L90.25,52.8l6.69-4.21a27.44,27.44,0,0,1,8.72-8.86,38,38,0,0,0-8.18,8.69c3.3-1.2,5.62-4.12,7.59-7a91.12,91.12,0,0,0,15-39.74M97.92,29.52c0-.05-.15,0-.09.07a.38.38,0,0,1,.21-.07c0-.07-.12-.07-.12,0M81.35,39.31c0-.05-.15,0-.09.07a.32.32,0,0,1,.21-.08c0-.06-.11-.06-.12,0M96.59,49.36l-.24.13.38-.09c0-.07-.11-.07-.12,0m3.16,5.39s0-.15-.08-.09a.34.34,0,0,1,.08.21c.06,0,.07-.12,0-.11M64.07,44.09c.05-.05,0-.15-.08-.09a.34.34,0,0,1,.08.21c.07,0,.07-.12,0-.11M83,59.81c0-.05-.15,0-.09.07a.38.38,0,0,1,.21-.07c0-.07-.12-.07-.12,0M72.73,62.07s-.06,0-.09,0,0,.07,0,.06a.39.39,0,0,0,.4-.28l-.32.23M51.8,58.35c.05,0,.15,0,.09-.07a.32.32,0,0,1-.21.08c0,.06.12.06.11,0m28.82,1.93a.19.19,0,0,0-.23,0,.23.23,0,0,0,.34,0s0-.06,0,0,0,0,0,.07M69,72.25l.25,0a.22.22,0,0,0-.35,0c0,.06.12,0,.09,0m31-34.78a.47.47,0,0,0,.26-.08c0-.08-.11-.12-.17-.06s-.12.14-.2.13.11.06.11,0m-2.1,19.65.31-.36a.77.77,0,0,0-.42.35s0,0,0,0,.06,0,.07-.06m15.5-28.13c.09.11.27,0,.37-.1s.11-.15,0-.2l-.54.31c0,.06.13,0,.11,0M59.69,72.14a.88.88,0,0,0-.53.47.39.39,0,0,0-.38.41l.83-.69s.12-.12.08-.19m-1.12,1.24c0-.06-.06-.13-.13-.11a.29.29,0,0,0-.13.16l-.22.51c.26,0,.22-.54.48-.56m23.76-19a.74.74,0,0,0,.52.27c.1,0,.23,0,.25-.11l-.77-.16M72.48,71.49A41.42,41.42,0,0,0,79,69.6l7.31-2.55a83.53,83.53,0,0,1-15.46,5.31c3.69.1,7.55.16,10.86-1.47a22.79,22.79,0,0,0,4-2.79l1.52-1.21a24.5,24.5,0,0,0,5.34-5.27,57.92,57.92,0,0,0-16.26,8.55c-.13-.55.4-1,.88-1.32a71.54,71.54,0,0,1,15.18-7.39,4.69,4.69,0,0,0,1.74-1.29,31.33,31.33,0,0,0,3-3.63,30.57,30.57,0,0,1-10.63,3A37.66,37.66,0,0,0,69,65.84a3.39,3.39,0,0,1-2.17.85l.28.27a6.46,6.46,0,0,1-2.21,1.35l-4.47,3.26c-1.71,2.1-3.5,4.15-5.35,6.14a20,20,0,0,1,5.57-3.35C64,73,67,70.74,70,68.72s6.36-3.86,10-4.17a41.55,41.55,0,0,0-15.91,8.84c2.49-1.46,5.55-1.4,8.4-1.9M47.67,97.22a84.79,84.79,0,0,0,8.73-.63,40.17,40.17,0,0,1-17.22.24,20.73,20.73,0,0,0-6.48-.29c-.82.09-1.9.08-2.18-.69a49.21,49.21,0,0,1-8.76,4.7c.61.26,1.22.51,1.84.75,7.65,2.87,16.16,1.4,24.19-.11,2.7-.5,5.47-1,7.77-2.53a10.68,10.68,0,0,0,3.82-4.34,11.5,11.5,0,0,1,1-2,7.74,7.74,0,0,1,2.47-1.9,115.15,115.15,0,0,0,17.42-12.4l-2.78.08a5.22,5.22,0,0,0,4.91-7.06,22.22,22.22,0,0,1-9.72,1.8c-1.72-.07-3.52-.34-5.12.31-.27-.31-.75-.24-1.14-.14a26.72,26.72,0,0,0-7,2.4,26.52,26.52,0,0,0-2.87,2l-6.2,4.68-7.79,5.73c8.91-.77,15.82-9.15,24.74-9.73a46.53,46.53,0,0,0-16.4,7.71,25.28,25.28,0,0,0,10.71-.17c-.09-.67.51-1.22,1.06-1.61A33.76,33.76,0,0,1,77.37,78.1c-5.51,1.46-11.32,3.1-15.22,7.26l4.39-1.06A25.45,25.45,0,0,1,57.08,87a20.48,20.48,0,0,0,12.58-1.51,17.4,17.4,0,0,1-10.82,2.19c-1.76-.22-3.48-.71-5.24-.86-3.41-.3-6.79.69-10.07,1.66a13,13,0,0,0-4,1.71,62.21,62.21,0,0,1-9.12,5.2A95.52,95.52,0,0,0,53,91.08c-6.9,3.06-14.54,4-22,4.81a43.17,43.17,0,0,1,7.37.3c1.51.23,3,.63,4.49.84a30,30,0,0,0,4.83.19m-7.81-18c2.48-6.32,5-12.67,8.47-18.49a69.65,69.65,0,0,0-4.91,11.77A80.15,80.15,0,0,0,55.84,57.79a61,61,0,0,1-12.23,15.1,6.41,6.41,0,0,0-1.52,2.66l-2.32,6.16c2.43-3.62,6.4-5.89,9.42-9a44,44,0,0,0,4-5.12l3.4-4.82A54.61,54.61,0,0,1,42.37,79.46c-2.37,1.85-3.63,4.74-5.22,7.29A29.18,29.18,0,0,1,33,92L46.83,81.57a27.36,27.36,0,0,0,5.58-5c4-5.29,3.74-12.66,6.3-18.8C57.37,64.34,56,71,53,77.1a27.49,27.49,0,0,0,4.12-5L61,66.55a72.06,72.06,0,0,0,4.16-6.39c1.19-2.17,2.16-4.46,3.28-6.68A56.2,56.2,0,0,1,76,42.21a17.15,17.15,0,0,0-17.41,8c-.12.19-.27.41-.49.4s-.27-.45,0-.4a28.36,28.36,0,0,1-3.6,6.25,8.45,8.45,0,0,1-2.58,2.44c-2.24,1.2-5,.51-7.49,1.17-3.46.94-5.62,4.3-7.29,7.47s-3.37,6.66-6.57,8.27c-2.82,1.42-4,4.73-4.89,7.76a122.78,122.78,0,0,0-3.08,14.06,14,14,0,0,1,4.79-3.27,13.21,13.21,0,0,0,3.11-1.46,6.59,6.59,0,0,0,2.13-5c.07-1.88-.28-3.76-.24-5.65a13.76,13.76,0,0,1,2-6.81,15.63,15.63,0,0,0-1.44,7.85,49.79,49.79,0,0,1,3.94-10.51A44.25,44.25,0,0,0,32.9,90.23,19.13,19.13,0,0,0,39.34,74a11.58,11.58,0,0,1,5-10.59c-1.48,1.94-3.43,3.66-4.09,6a12.29,12.29,0,0,0-.31,3.2c0,2.2,0,4.4-.07,6.6m57.59-23.1a2.56,2.56,0,0,0,.83-.71,24.93,24.93,0,0,0,5.34-10.41,27.77,27.77,0,0,0-5.19,3.4c-1.33,1-2.74,1.81-4.15,2.65a46.89,46.89,0,0,1-8.66,4.44,44.8,44.8,0,0,0-14.35,8.24,43.77,43.77,0,0,1,10.2-4c2.22-.46,4.5-.57,6.75-.91a34.29,34.29,0,0,0,9.23-2.73M71.05,50c-1.2,2.59-2.41,5.18-3.61,7.76,0,.1-.09.19-.13.29l-.48,1.48a.37.37,0,0,1-.18-.31l-.54,1.71A35.24,35.24,0,0,1,71,56.26c.35-.28.76-.65.69-1.1.8.12,1.41-.68,1.82-1.37l6.22-10.57A25,25,0,0,1,83,38.54c-.17-.19-.47,0-.65.19a10.54,10.54,0,0,1-4.85,2.89,3.46,3.46,0,0,0-.9.33,2.8,2.8,0,0,0-.66.67A39,39,0,0,0,71.05,50M15.47,102.07C12,104,8.6,106.15,5.24,108.31l-2.86,1.83a2.76,2.76,0,0,0-.89.77A8.83,8.83,0,0,0,1,112.78a55.26,55.26,0,0,0,4.75-3.59,20.52,20.52,0,0,1,2-1.19,117.88,117.88,0,0,1,12-7.09,1.4,1.4,0,0,0,.52-.38,1.3,1.3,0,0,1,.21-.31c.17-.14.42-.09.63-.14s.39-.36.19-.46-.19-.49,0-.72.38-.43.37-.7a31.55,31.55,0,0,1-6.19,3.87M50.19,80.19A4,4,0,0,0,51,78.6,162.15,162.15,0,0,1,37.72,89c-1.62,1.1-3.19,2.25-4.76,3.41l-2.63,1.92c4.84-2.18,9.15-5.36,13.42-8.51l1.66-1.24c2.66-2,5.32-3.93,7.8-6.12A2,2,0,0,0,54.08,77,3.26,3.26,0,0,0,52,78.23c-.57.75-.83,1.76-1.61,2.29a.57.57,0,0,0-.22-.33M27.48,96.46a4,4,0,0,0,1.85-2.35,17.58,17.58,0,0,0-4.66,2.24c-.65.48-1.23,1-1.87,1.53a3.78,3.78,0,0,0-.89.8,1,1,0,0,0-.11,1.12.68.68,0,0,1,.29-.29,4.24,4.24,0,0,1,1.76-.82c.68-.09,1.09-.77,1.62-1.2a12.68,12.68,0,0,1,2-1M55,77.85a2.13,2.13,0,0,0-.74.63.43.43,0,0,0-.11.32,3.86,3.86,0,0,0,.85-1m65.5-74.34c0-.11-.13-.17-.24-.2L120,3.24a1.17,1.17,0,0,0,.06.46c.17,0,.42,0,.4-.19m-19.29,32.7L101.1,36l-.59.76c0,.05,0,.09.1.08s.08-.05.12-.09l.44-.54M63.32,64.05a.23.23,0,0,1-.06.33.36.36,0,0,0-.11.47,1.67,1.67,0,0,0,.33-.47.4.4,0,0,0,0-.24.14.14,0,0,0-.2-.09m-1.78,6.16a2.73,2.73,0,0,0-.52.5c-.05.06-.1.15-.06.22a1,1,0,0,0,.58-.72m39.81-34.45.05.14.36-.13a.44.44,0,0,1,0-.3.51.51,0,0,0-.3,0,.18.18,0,0,0-.08.25m13.71-13.29c-.08.1.09.24.2.19s.16-.19.19-.32l.05-.23-.44.36M83.5,37.66a.43.43,0,0,1,.26-.2c0-.12-.22-.09-.3,0s-.15.21-.27.23,0,.2.07.18.16-.14.18-.24M56.24,76a4.18,4.18,0,0,0,.53-.5.11.11,0,0,0,0-.13.93.93,0,0,0-.53.63m49.6-47.24c-.06-.12-.27-.07-.32.06a.59.59,0,0,0,0,.39.91.91,0,0,0,.24-.44M62,66.12c-.09,0,0,.19.09.17s.14-.14.17-.23l.06-.24a.33.33,0,0,0-.32.27m41.1-32.81a.31.31,0,0,0,.06-.28,3.59,3.59,0,0,0-.45.65.38.38,0,0,0,.37-.37M87.57,51.13a.27.27,0,0,0,.05.26,1.62,1.62,0,0,0,.41-.27.32.32,0,0,0-.41,0m2.59-2.28a.14.14,0,0,0,0-.24.18.18,0,0,0-.26.09A.3.3,0,0,0,90,49l.19-.16M53,57.45a.19.19,0,0,0-.24.08.51.51,0,0,0-.06.27.31.31,0,0,0,.3-.34m.86-1a.11.11,0,0,0,0,.19.17.17,0,0,0,.2-.11.48.48,0,0,0,0-.24.29.29,0,0,0-.26.16M120.57,1.31a.19.19,0,0,0,.14-.23.2.2,0,0,0-.25-.12.47.47,0,0,0,.08.38M82.88,75.74a.58.58,0,0,0,.12-.36.41.41,0,0,0-.29.18c0,.1.08.26.17.19M60,47.45c-.08.1-.11.3,0,.31s.11,0,.14-.1a.58.58,0,0,0,.06-.29l-.22.08m28.76,2.87s0-.07-.09,0a.49.49,0,0,0-.29.41.42.42,0,0,0,.36-.38m24.66-20.76a.27.27,0,0,0,.13-.3.77.77,0,0,1-.47.09.54.54,0,0,0,.33.2M51.08,81.19V81a.43.43,0,0,0-.27.13c-.06.09,0,.24.09.24s.14-.12.15-.22m3.5-25.45a.15.15,0,0,0-.25,0,.16.16,0,0,0,.09.25.15.15,0,0,0,.16-.2M63.7,44.52a.14.14,0,0,0,.09-.2.7.7,0,0,1-.47.08.26.26,0,0,0,.37.12m32.5-1.66.37-.15a.46.46,0,0,0-.45-.07l.08.22M111.6,21.59l.16-.07a.3.3,0,0,0-.27-.08.16.16,0,0,0-.09.23c.06.07.22,0,.19-.08M8.91,107.89a.14.14,0,0,0-.17.16.15.15,0,0,0,.23.07.14.14,0,0,0-.06-.23m56.4-46.37a.21.21,0,0,0,.25,0l0-.32a.63.63,0,0,0-.2.33m-8.1,36.3a.15.15,0,0,0,0,.17l.25-.2c0-.12-.23-.09-.22,0M70,64.45h-.32c0,.07.12.15.21.15s.17-.12.1-.18M56.58,52.77a.46.46,0,0,0,.18-.42.5.5,0,0,0-.2.41M88,34.93a.21.21,0,0,0-.25.22.25.25,0,0,0,.27-.24m-34.8,44.5a.23.23,0,0,1-.21.15.16.16,0,0,0,.24.06.16.16,0,0,0,0-.25M25.06,84.44a.52.52,0,0,1-.24.2c0,.09.13.12.2.06a.31.31,0,0,0,.07-.25M70.57,72.51a.21.21,0,0,0-.22-.24.24.24,0,0,0,.24.27M59.82,69.2a.49.49,0,0,0-.18.42.47.47,0,0,0,.2-.41m59.09-58.4.14-.06-.08-.21a.21.21,0,0,0-.1.31M63.16,44.64c-.07-.1-.26,0-.18.15s.26-.06.18-.15M115,21.81v-.18c-.08.05-.16.12-.16.21s.12.18.18.11l0-.14M95.59,50.06a.15.15,0,0,0-.2-.09l.08.22a.14.14,0,0,0,.11-.13M69.19,65.24a.35.35,0,0,0-.26-.08.19.19,0,0,0,.3.11M41.16,88.82l.22-.09a.13.13,0,0,0-.16-.1.12.12,0,0,0,0,.18m67.37-52.3c-.08,0,0,.17,0,.16a.14.14,0,0,0,.1-.19l-.15.05m-2.21-8.37a.12.12,0,0,0,0,.17.29.29,0,0,0,.14-.3.13.13,0,0,0-.12.12M113,29.7a.14.14,0,0,0-.09.2l.22-.09-.11-.12M66.24,60.19c.08,0,0-.17,0-.16a.15.15,0,0,0-.1.2l.15-.06M32.6,83.48h.17l-.08-.23a.14.14,0,0,0-.09.2M83.66,72.75a.14.14,0,0,0-.2-.09l.08.21a.13.13,0,0,0,.11-.12M98.81,39.09A.12.12,0,1,0,99,39l-.22.08M48,59a.27.27,0,0,0-.26.05c0,.12.24.1.23,0m13.33,8.19a.27.27,0,0,0-.14.3.28.28,0,0,0,.15-.3m-.19-20.53c.08,0,0-.18,0-.17a.15.15,0,0,0-.1.2l.15-.06m-.67.44h.17l-.08-.22a.14.14,0,0,0-.09.2m11.42,8.81.21-.08a.11.11,0,0,0-.15-.1.12.12,0,0,0-.06.18m1.16-14.46a.2.2,0,0,0-.28-.16.31.31,0,0,0,.23.15M59.7,47.9c0,.05.07.07.11,0a.21.21,0,0,0,0-.16.16.16,0,0,0-.12.13M110,24.4a.13.13,0,0,0-.09.19.14.14,0,0,0,.09-.2m-68,35.92a.15.15,0,0,0,0,.17s.11-.06.12-.11-.07-.11-.1-.06m49.27,3.93h.16c0-.1-.18-.14-.18,0m-8.21-26.1c0,.05.07.08.11,0a.21.21,0,0,0,0-.16.16.16,0,0,0-.12.13m-13.62,49a.13.13,0,0,0-.09.2.13.13,0,0,0,.09-.2M79.91,60.31a.11.11,0,0,0,0,.14.11.11,0,0,0,.14,0L80,60.32M47.24,59a.13.13,0,0,0-.09.19.13.13,0,0,0,.09-.19m10.2-8.15a.15.15,0,0,0,.09-.2.13.13,0,0,0-.09.2M87.87,67.05h-.16c0,.1.18.14.19,0M56.11,53.68l0-.18a.22.22,0,0,0-.13.1c0,.06.06.12.1.08m6.8,11.43a.13.13,0,0,0,.09-.2.14.14,0,0,0-.09.2M85.72,52.92a.13.13,0,0,0-.09.19.13.13,0,0,0,.09-.19M70.64,64.28a.14.14,0,0,0,.2.09.14.14,0,0,0-.2-.09M57.23,75s.08.07.11,0a.22.22,0,0,0,0-.16.16.16,0,0,0-.12.13m17,8.72,0-.16c-.1,0-.15.18,0,.18m18-37.2a.09.09,0,1,0-.14-.12l.11.11M64.71,62.47a.05.05,0,0,0,0,.09s.08-.07,0-.09m2-3.62s-.09.06,0,.08.08-.06,0-.09m-11-5.28s.08-.06,0-.08-.08.06,0,.08m20.56,5.57s.08-.06,0-.08-.08.06,0,.08M66,67.66s-.06-.08-.09,0,.07.08.09,0m24.69-2.52s-.08.06,0,.08.08-.06,0-.08M77.23,58.38s-.08.06,0,.09.08-.07,0-.09m.73-.27s-.09.07,0,.09.08-.07,0-.09M61.85,70s-.08.06,0,.08.08-.06,0-.08m30.48-6.82.09,0s0-.1-.07-.07M61.47,46.25s.08-.06,0-.09-.08.07,0,.09M60,71.86s-.07-.08-.09,0,.07.08.09,0m34.44-11s.08-.06,0-.08-.08.06,0,.08M77.73,81.12s-.08.06,0,.09.08-.07,0-.09m18.8-22.77s-.08.06,0,.08.08-.06,0-.09M84.78,48.42s-.08.07,0,.09.08-.07,0-.09M69.93,41.63c-.05,0-.08.06,0,.09s.08-.07,0-.09m2.95,43s-.08.06,0,.09.08-.07,0-.09M53.64,79.07s.08-.06,0-.09-.08.07,0,.09m-1.57,1.32s.08-.06,0-.09-.08.07,0,.09m-2.47,2s-.08.06,0,.08.08-.06,0-.08M80.93,39.82s.08-.06,0-.08-.08.06,0,.08m15.14,2.5c.05,0,.09-.07,0-.09s-.08.07,0,.09m.58-.11.1,0s0-.1-.08-.06m-2-10.1s.08-.06,0-.08-.08.06,0,.09M101.57,35s-.08.06,0,.08.08-.06,0-.09m-69.13,57s-.07-.08-.09,0,.07.08.09,0M104,31.92l.09,0s0-.1-.07-.06m-3.81-4c0-.05-.09-.07-.1,0l.09,0m12.51,2.65s-.09.06,0,.08.07-.06,0-.09m-4-5c0-.05-.09-.07-.1,0l.1,0m3.21-3.76s-.08.06,0,.09.08-.07,0-.09m5.83-4s-.06-.08-.08,0,.06.08.08,0m.87-3.86s.09-.06,0-.08-.08.06,0,.08m.55-3.56c-.05,0-.08.06,0,.09s.08-.07,0-.09m-.11-.29s-.08.06,0,.09.08-.07,0-.09m1.41-7.68s-.06-.08-.08,0,.06.08.08,0Z"/></g></g></svg>