<svg xmlns="http://www.w3.org/2000/svg" viewBox="0 0 122.13 110.01"><defs><style>.cls-1{fill:#fff;}.cls-2{fill:#7bc663;}</style></defs><title>orchid-leaf-iso</title><g id="Layer_2" data-name="Layer 2"><g id="Orchid_Leaf" data-name="Orchid Leaf"><path id="void" class="cls-1" d="M28.34.17s-.05,0-.07,0h0C17.88.55,7.64,5.64,3,14.82-2.11,24.93.34,37,2.78,48.05c1.89,8.6,3.71,17.26,4,26,.11,3.87,0,8,2.31,11.17-1.37,1.46-2.71,2.93-4,4.41,9,7.1,21,9.24,32.44,9.77s23.07-.33,34.36,1.77c13.93,2.6,27.28,9.68,41.43,8.71,3.62-.25,7.25-2.19,8.71-5.51v0s0,0,0,0l0,0c.79-7.54-3-15-8.54-20.18s-12.77-8.27-20.06-10.52a113.63,113.63,0,0,0-57.65-2.42A33.77,33.77,0,0,0,25,75.12c15.33-19.4,38.93-30.64,62.89-36.81,2.66-.68,5.73-1.25,8,.32,1.53,1.08,2.37,2.93,3.94,4s4.45.23,4.09-1.61c-1-5.28-6.93-7.76-11.28-10.92-2.16-1.57-4-3.5-6.32-4.92-3.41-2.14-7.46-3-11.45-3.52A53.38,53.38,0,0,0,61,21.9v0h0a4.76,4.76,0,0,0-.66.09.34.34,0,0,1-.15,0c-.53.08-1.06.15-1.57.27h0a.12.12,0,0,1-.19,0c-.3,0-.61.1-.91.17a0,0,0,0,1,0,0,.05.05,0,0,1-.1,0s0,0,.06,0c-.91.17-1.8.38-2.71.61,0,0,.06,0,.06,0s-.11.06-.11,0a59.67,59.67,0,0,0-6.67,2l0,0c0,.06-.08.11-.1,0a53.19,53.19,0,0,0-15,8.38.47.47,0,0,1,0,.17c-.22.14-.43.25-.64.36l.66-.53c.12-1,.21-2.08.31-3.12.32-4.09.49-8.25,1.55-12.23S38,10.41,41.37,8.1c1.49-1,1.4-3.4.24-4.79A8.37,8.37,0,0,0,36.86,1,32.77,32.77,0,0,0,28.34.17ZM72.9,21.84c0-.07.17-.07.22,0S72.93,21.92,72.9,21.84ZM49,40.35a.16.16,0,0,1,.25,0A.14.14,0,0,1,49,40.35Zm5.76-3.86c0-.06.09,0,.11,0S54.73,36.55,54.73,36.49Zm1.53-.59a.28.28,0,0,1-.38,0A.37.37,0,0,1,56.26,35.9ZM28.59,60.7c0-.12.21-.16.23,0a.33.33,0,0,0-.29.15C28.46,60.79,28.53,60.68,28.59,60.7Zm77.58,36.64,0,0,0-.17C106.32,97.16,106.26,97.39,106.17,97.34ZM25.39,13.46a1.41,1.41,0,0,1-.64.87.32.32,0,0,1,0-.27.5.5,0,0,1,.11-.2.75.75,0,0,1,.25-.25s0,0,.05-.06ZM23,17.72a.15.15,0,0,1,.21,0l-.17.19A.12.12,0,0,1,23,17.72ZM22,19.8h0a.13.13,0,0,1,.14,0,3.24,3.24,0,0,0-.17.32.33.33,0,0,1-.06-.19A.27.27,0,0,1,22,19.8ZM20,26s-.12,0-.12,0S20,25.89,20,26Zm1.23,49.28a.12.12,0,1,1-.17.17Zm-.86,1.1s.08,0,.08,0-.06,0-.08,0S20.4,76.35,20.41,76.33Zm-.41.45s0,.1-.06.08a.57.57,0,0,1-.36.47A.64.64,0,0,1,20,76.78Zm1.44.61s-.1,0-.1,0S21.44,77.35,21.44,77.39ZM17.88,78.6a.06.06,0,0,1,0-.1S17.92,78.58,17.88,78.6ZM15.23,81c0,.06-.1.06-.11,0S15.23,81,15.23,81Zm-2-2.74a1.1,1.1,0,0,1,.3-.82l0,.23a1.61,1.61,0,0,1-.13.49S13.3,78.28,13.24,78.28ZM7.39,73.89v0h0s.08,0,.08,0-.06,0-.08,0ZM9.14,87.1l.2,0c-.11.1-.22.19-.34.31A.27.27,0,0,1,9.14,87.1ZM26,72.69v0s-.1,0-.1,0S26,72.66,26,72.69Zm1.06-1a.14.14,0,0,1-.23,0A.15.15,0,0,1,27.06,71.65ZM28,70.59c0,.06-.11.06-.11,0S28,70.54,28,70.59ZM33.62,65s-.09,0-.09,0S33.62,64.92,33.62,65Zm1.9-1.74a1,1,0,0,1,.55-.3A.42.42,0,0,1,35.52,63.23ZM37,61.85a.08.08,0,0,0,0-.09C37.13,61.74,37.11,61.91,37,61.85ZM61.22,46.39l0,0s0-.13.07-.08,0,.08,0,.08Zm.28-.12.23-.11C61.84,46.26,61.62,46.33,61.5,46.27Z"/><path id="fill2" class="cls-2" d="M28.34.17s-.05,0-.07,0h0C17.88.55,7.64,5.64,3,14.82-2.11,24.93.34,37,2.78,48.05c1.89,8.6,3.71,17.26,4,26,.11,3.87,0,8,2.31,11.17-1.37,1.46-2.71,2.93-4,4.41,9,7.1,21,9.24,32.44,9.77s23.07-.33,34.36,1.77c13.93,2.6,27.28,9.68,41.43,8.71,3.62-.25,7.25-2.19,8.71-5.51v0s0,0,0,0l0,0c.79-7.54-3-15-8.54-20.18s-12.77-8.27-20.06-10.52a113.63,113.63,0,0,0-57.65-2.42A33.77,33.77,0,0,0,25,75.12c15.33-19.4,38.93-30.64,62.89-36.81,2.66-.68,5.73-1.25,8,.32,1.53,1.08,2.37,2.93,3.94,4s4.45.23,4.09-1.61c-1-5.28-6.93-7.76-11.28-10.92-2.16-1.57-4-3.5-6.32-4.92-3.41-2.14-7.46-3-11.45-3.52A53.38,53.38,0,0,0,61,21.9v0h0a4.76,4.76,0,0,0-.66.09.34.34,0,0,1-.15,0c-.53.08-1.06.15-1.57.27h0a.12.12,0,0,1-.19,0c-.3,0-.61.1-.91.17a0,0,0,0,1,0,0,.05.05,0,0,1-.1,0s0,0,.06,0c-.91.17-1.8.38-2.71.61,0,0,.06,0,.06,0s-.11.06-.11,0a59.67,59.67,0,0,0-6.67,2l0,0c0,.06-.08.11-.1,0a53.19,53.19,0,0,0-15,8.38.47.47,0,0,1,0,.17c-.22.14-.43.25-.64.36l.66-.53c.12-1,.21-2.08.31-3.12.32-4.09.49-8.25,1.55-12.23S38,10.41,41.37,8.1c1.49-1,1.4-3.4.24-4.79A8.37,8.37,0,0,0,36.86,1,32.77,32.77,0,0,0,28.34.17ZM72.9,21.84c0-.07.17-.07.22,0S72.93,21.92,72.9,21.84ZM49,40.35a.16.16,0,0,1,.25,0A.14.14,0,0,1,49,40.35Zm5.76-3.86c0-.06.09,0,.11,0S54.73,36.55,54.73,36.49Zm1.53-.59a.28.28,0,0,1-.38,0A.37.37,0,0,1,56.26,35.9ZM28.59,60.7c0-.12.21-.16.23,0a.33.33,0,0,0-.29.15C28.46,60.79,28.53,60.68,28.59,60.7Zm77.58,36.64,0,0,0-.17C106.32,97.16,106.26,97.39,106.17,97.34ZM25.39,13.46a1.41,1.41,0,0,1-.64.87.32.32,0,0,1,0-.27.5.5,0,0,1,.11-.2.75.75,0,0,1,.25-.25s0,0,.05-.06ZM23,17.72a.15.15,0,0,1,.21,0l-.17.19A.12.12,0,0,1,23,17.72ZM22,19.8h0a.13.13,0,0,1,.14,0,3.24,3.24,0,0,0-.17.32.33.33,0,0,1-.06-.19A.27.27,0,0,1,22,19.8ZM20,26s-.12,0-.12,0S20,25.89,20,26Zm1.23,49.28a.12.12,0,1,1-.17.17Zm-.86,1.1s.08,0,.08,0-.06,0-.08,0S20.4,76.35,20.41,76.33Zm-.41.45s0,.1-.06.08a.57.57,0,0,1-.36.47A.64.64,0,0,1,20,76.78Zm1.44.61s-.1,0-.1,0S21.44,77.35,21.44,77.39ZM17.88,78.6a.06.06,0,0,1,0-.1S17.92,78.58,17.88,78.6ZM15.23,81c0,.06-.1.06-.11,0S15.23,81,15.23,81Zm-2-2.74a1.1,1.1,0,0,1,.3-.82l0,.23a1.61,1.61,0,0,1-.13.49S13.3,78.28,13.24,78.28ZM7.39,73.89v0h0s.08,0,.08,0-.06,0-.08,0ZM9.14,87.1l.2,0c-.11.1-.22.19-.34.31A.27.27,0,0,1,9.14,87.1ZM26,72.69v0s-.1,0-.1,0S26,72.66,26,72.69Zm1.06-1a.14.14,0,0,1-.23,0A.15.15,0,0,1,27.06,71.65ZM28,70.59c0,.06-.11.06-.11,0S28,70.54,28,70.59ZM33.62,65s-.09,0-.09,0S33.62,64.92,33.62,65Zm1.9-1.74a1,1,0,0,1,.55-.3A.42.42,0,0,1,35.52,63.23ZM37,61.85a.08.08,0,0,0,0-.09C37.13,61.74,37.11,61.91,37,61.85ZM61.22,46.39l0,0s0-.13.07-.08,0,.08,0,.08Zm.28-.12.23-.11C61.84,46.26,61.62,46.33,61.5,46.27Z"/><path id="fill1" d="M106.15,97.31l.06-.16c.11,0,.06.23,0,.19Zm-44.87-51s0,.12-.08.08,0-.13.08-.09ZM9.86,88.09c-.52-.1-1.18-.71-.73-1,13.65,2.08,27.33-2.54,41.07-3.9a87.72,87.72,0,0,1,28.71,1.91C93.79,88.63,107.47,96,120.5,104L108.89,97.7c-2.83-1.52-5.66-3-8.56-4.43a98.08,98.08,0,0,0-55.2-8.55C33.37,86.33,21.56,90.1,9.86,88.09Zm-.77-2.84C6.83,82.12,6.91,78,6.78,74.1c-.29-8.79-2.11-17.46-4-26C.34,37-2.11,24.92,3,14.83,8.93,3.09,24.05-2,36.87.94a8.31,8.31,0,0,1,4.74,2.38c1.16,1.38,1.25,3.78-.24,4.79-3.41,2.3-5.5,6.17-6.57,10.15s-1.22,8.13-1.56,12.24a142.51,142.51,0,0,1-6.09,31.16L39.52,49A81.22,81.22,0,0,1,50.76,38.87c11.61-8.13,26.67-9.67,40.79-8.39-7.5-7-18.54-9.32-28.74-8.06S41.25,29.14,32.28,34.15C43.37,24.81,60.42,20,74.82,21.64a27.26,27.26,0,0,1,11.46,3.52c2.26,1.42,4.16,3.34,6.32,4.91C97,33.24,102.83,35.71,103.87,41c.36,1.84-2.53,2.64-4.09,1.61s-2.4-2.9-3.93-4c-2.27-1.58-5.34-1-8-.32C63.89,44.49,40.28,55.72,25,75.13a34.44,34.44,0,0,1,10.83-3.9,113.75,113.75,0,0,1,57.65,2.43c7.28,2.26,14.48,5.34,20.06,10.51s9.37,12.74,8.51,20.3c-1.37-6.11-2.91-12.43-6.82-17.32-2.92-3.64-7-6.23-11.13-8.33C88.3,70.86,70.1,69,52.47,69.87c-9,.46-18.26,1.69-26.39,5.7A83.33,83.33,0,0,0,13.17,84.1,39.8,39.8,0,0,0,6.46,90c8,5.83,18.14,7.79,28,8.32s19.79-.19,29.59,1c12.48,1.48,24.39,6,36.66,8.66,7.44,1.64,15.67,1.52,21.31-3.6-1.45,3.34-5.1,5.31-8.74,5.56-14.15,1-27.49-6.11-41.43-8.71C60.56,99.11,49,100,37.49,99.43S14.08,96.76,5.05,89.67l4-4.42m39-60.07c.06,0,.12-.1.05-.11a.46.46,0,0,1-.17.17c0,.07.15,0,.11,0M33,65.37c0,.09-.16.1-.24.14s-.13.21,0,.21l.4-.41c0-.06-.14,0-.1.06M42,57.87c.06,0,.11-.09,0-.11a.29.29,0,0,1-.17.17c0,.07.15,0,.11,0m-4.32,3.38c.06,0,.12-.09.05-.11a.4.4,0,0,1-.17.17c0,.07.15,0,.11,0m-.57.58c.06,0,.09-.13,0-.11s-.13.17-.24.21-.2.23-.08.25l.31-.33m-8.46-1.19c-.06,0-.13.11-.06.11a.37.37,0,0,1,.3-.14.13.13,0,0,0-.24,0M19,77.69c-.06,0-.13.1-.06.1a.37.37,0,0,1,.3-.14c0-.11-.24-.08-.24,0m-6.33,6c-.06,0-.13.09-.06.1s.14-.09.23-.13.1-.2,0-.2a.39.39,0,0,0-.18.22m12.74-70.2a1,1,0,0,0-.62.6.34.34,0,0,0,0,.28,1.46,1.46,0,0,0,.64-.88M19.92,76.85s.12,0,.08-.07a.64.64,0,0,0-.42.54.58.58,0,0,0,.36-.45m-6.59,1.31a2.06,2.06,0,0,0,.15-.48l0-.24a1.08,1.08,0,0,0-.3.81.13.13,0,0,0,.11-.09M25,69.51A22.47,22.47,0,0,1,17.34,80a25.82,25.82,0,0,0,6.3-5A103.12,103.12,0,0,1,61.72,46.16c.14.12-.24.22-.25,0s.19-.29.36-.35l24.93-8.58c4.48-1.54,9.72-3,13.72-.46A18.47,18.47,0,0,0,87.75,31.1C75.31,30.74,62.27,32.4,52,39.39A77.72,77.72,0,0,0,40.59,49.53L30.26,60A19.21,19.21,0,0,0,27,63.93a33.78,33.78,0,0,0-2,5.58m14.12-62a31.5,31.5,0,0,0-8,2.63,14.89,14.89,0,0,0-4.5,3.14,16.77,16.77,0,0,0-2.85,4.74,68.17,68.17,0,0,0-5.66,22.41c-.52,6.78,0,13.61-.52,20.39a69.47,69.47,0,0,1-5.24,21.88c3.37-2.41,6.7-5,9.09-8.39,2.71-3.82,4.06-8.42,5.24-13a237.92,237.92,0,0,0,6.76-39.75c.31-3.72.68-7.79,3.31-10.45,1.18-1.2,2.76-2,3.75-3.38s1-3.68-.5-4.39A28,28,0,0,0,13.84,4.92a28,28,0,0,0-13,22.71,42.39,42.39,0,0,0,.41,6.46C3.06,48.67,7.9,62.89,8,77.58c0,2.11,0,4.4,1.25,6.09.64.86,2.18,1.36,2.63.39-.61-2.07.38-4.23,1.17-6.23,3.69-9.31,3.61-19.61,3.78-29.63s.77-20.42,5.57-29.2a10.67,10.67,0,0,1,3.85-6.51A22.58,22.58,0,0,1,33,8.82a16.2,16.2,0,0,1,6.11-1.28m56.32,29.4c.49-.07.83.44,1.08.86a9.94,9.94,0,0,0,4,3.83c.63-.05,1.18.67,1.79.51a.89.89,0,0,0,.6-.85,2,2,0,0,0-.33-1.06,7.62,7.62,0,0,0-4.63-3.39,13.23,13.23,0,0,0-5.84-.09,4.76,4.76,0,0,0,2.67.11c.06.25.42.12.67.08M35.51,63.24a.44.44,0,0,0,.56-.31,1,1,0,0,0-.56.31M23.88,16.16a.58.58,0,0,1,.14-.42c-.07-.11-.23,0-.29.13a.24.24,0,0,0-.05.2c0,.07.1.13.16.08M31.23,67a.24.24,0,0,0,.24-.34.92.92,0,0,0-.29.33M22,19.79a.3.3,0,0,0,0,.36l.16-.31a.13.13,0,0,0-.16,0M16.58,80.86a.4.4,0,0,0,.29-.2.21.21,0,0,0-.32.2M26.12.05c-.05-.12-.28,0-.22.11s.28,0,.22-.11M60.34,22a.38.38,0,0,0-.47,0,.67.67,0,0,0,.42,0M28.72,69.87a.26.26,0,0,0-.36.16.24.24,0,0,0,.33-.14m-7.6,5.51a.14.14,0,0,0,.2,0,.14.14,0,0,0,0-.21l-.18.18M23,17.92l.18-.18a.14.14,0,0,0-.2,0,.14.14,0,0,0,0,.21m38.31,3.73-.18.07a.27.27,0,0,0,.36,0,.14.14,0,0,0-.17-.06M56.25,35.9a.29.29,0,0,0-.36,0,.3.3,0,0,0,.36,0M14.64,75.05c.06-.12-.16-.23-.22-.12a.25.25,0,0,0,.23.15M72.89,21.84a.14.14,0,0,0,.23,0,.15.15,0,0,0-.23,0M61,21.77l-.18.06s.09.09.15.08.09-.11,0-.13M27.07,71.65a.15.15,0,0,0-.24,0,.15.15,0,0,0,.24,0M58.36,22.31a.14.14,0,0,0,.23,0,.14.14,0,0,0-.23,0M49,40.36a.14.14,0,0,0,.23,0,.14.14,0,0,0-.23,0M46.1,55.05l-.18.06s.1.09.16.08.09-.11,0-.12M13.7,76.84a.1.1,0,0,0,.13-.08.1.1,0,0,0-.08-.12l-.06.16M33.62,65s-.1,0-.1,0,.1,0,.1,0M39.78,49.1c-.06,0,0,.12,0,.1v-.11m15-12.6c0-.05-.09-.05-.1,0s.1,0,.1,0m0-13.36c0-.05-.09-.05-.1,0s.1.05.1,0M28.25.16s.09,0,.1,0-.1,0-.1,0M57.43,22.55c0,.05.09.05.1,0s-.1-.05-.1,0M28,70.6s-.1-.06-.1,0,.09,0,.1,0M15.22,81c0-.06-.09-.06-.1,0s.1,0,.1,0M26,72.7s-.09,0-.1,0,.1,0,.1,0m-8.13,5.91c.05,0,.05-.09,0-.1s-.05.1,0,.1m5.74-62c-.06,0,0,.12,0,.1v-.11M21.33,77.39s.1,0,.1,0-.09,0-.1,0m-.93-1.06c0,.06.09.06.1,0s-.1,0-.1,0M20,26c0-.05-.1-.06-.1,0s.1,0,.1,0M7.39,73.87s.09.06.1,0-.1,0-.1,0Z"/></g></g></svg>