<svg xmlns="http://www.w3.org/2000/svg" width="21.9825" height="11.81444" viewBox="0 0 21.9825 11.81444"><title>bow-tie-1</title><g id="Layer_2" data-name="Layer 2"><g id="bow-tie-1"><path id="void" d="M21.94893,4.16908a2.66286,2.66286,0,0,0-.17829,1.54818,6.246,6.246,0,0,1-.35519,2.18756,3.39408,3.39408,0,0,0-.23726,1.51195c.12733.9356-.60721.941-1.09378,1.03348a6.03809,6.03809,0,0,1-1.82832-.11931,11.25275,11.25275,0,0,1-4.796-1.32968.80044.80044,0,0,0-.6099-.04827,4.06353,4.06353,0,0,1-1.90069.31635,6.17191,6.17191,0,0,1-1.969.01741c-.71177-.22383-1.09378.49732-1.55355.84313a8.43675,8.43675,0,0,1-3.12717,1.50125,5.40168,5.40168,0,0,1-3.15532-.10721c-.23457-.09117-.559.0469-.79354-.04558-.193-.07641-.54821-.29489-.21176-.59379A1.33116,1.33116,0,0,0,.375,9.39265,3.953,3.953,0,0,1,.2316,8.34444C.20479,7.67024.28119,6.98662.20746,6.31776.13777,5.68911.2584,5.0752.21818,4.45594.17263,3.73881.111,3.02168.01578,2.3086-.10619,1.40383.52648.936,1.06533.4119A.40115.40115,0,0,1,1.40177.39315c2.23714.80425,4.47964,1.59239,6.69534,2.45028.39944.15547.61392.11257.84179-.16621a.84852.84852,0,0,1,.78281-.32709,13.69428,13.69428,0,0,1,1.86315-.01473,3.23741,3.23741,0,0,1,1.20906.28281.981.981,0,0,0,1.1742-.063A17.04252,17.04252,0,0,1,19.22789.32479a6.92083,6.92083,0,0,0,.82033-.22518C20.638-.14167,21.075.05939,21.14871.65989a11.85681,11.85681,0,0,0,.7332,2.94354C21.95161,3.779,22.028,4.03906,21.94893,4.16908Z" style="fill:#fff"/><path id="fill2" d="M21.94893,4.16908a2.66286,2.66286,0,0,0-.17829,1.54818,6.246,6.246,0,0,1-.35519,2.18756,3.39408,3.39408,0,0,0-.23726,1.51195c.12733.9356-.60721.941-1.09378,1.03348a6.03809,6.03809,0,0,1-1.82832-.11931,11.25275,11.25275,0,0,1-4.796-1.32968.80044.80044,0,0,0-.6099-.04827,4.06353,4.06353,0,0,1-1.90069.31635,6.17191,6.17191,0,0,1-1.969.01741c-.71177-.22383-1.09378.49732-1.55355.84313a8.43675,8.43675,0,0,1-3.12717,1.50125,5.40168,5.40168,0,0,1-3.15532-.10721c-.23457-.09117-.559.0469-.79354-.04558-.193-.07641-.54821-.29489-.21176-.59379A1.33116,1.33116,0,0,0,.375,9.39265,3.953,3.953,0,0,1,.2316,8.34444C.20479,7.67024.28119,6.98662.20746,6.31776.13777,5.68911.2584,5.0752.21818,4.45594.17263,3.73881.111,3.02168.01578,2.3086-.10619,1.40383.52648.936,1.06533.4119A.40115.40115,0,0,1,1.40177.39315c2.23714.80425,4.47964,1.59239,6.69534,2.45028.39944.15547.61392.11257.84179-.16621a.84852.84852,0,0,1,.78281-.32709,13.69428,13.69428,0,0,1,1.86315-.01473,3.23741,3.23741,0,0,1,1.20906.28281.981.981,0,0,0,1.1742-.063A17.04252,17.04252,0,0,1,19.22789.32479a6.92083,6.92083,0,0,0,.82033-.22518C20.638-.14167,21.075.05939,21.14871.65989a11.85681,11.85681,0,0,0,.7332,2.94354C21.95161,3.779,22.028,4.03906,21.94893,4.16908Z" style="fill:#ff2323"/><path id="fill1" d="M21.88227,3.60323a11.89739,11.89739,0,0,1-.73412-2.943c-.07285-.60119-.50989-.80156-1.09992-.561a6.71842,6.71842,0,0,1-.81985.225,17.048,17.048,0,0,0-5.2602,2.23043.97879.97879,0,0,1-1.17446.06293,3.246,3.246,0,0,0-1.2084-.28189,13.61559,13.61559,0,0,0-1.86417.01463.84811.84811,0,0,0-.78248.32692c-.22739.279-.44169.32145-.84174.16657C5.88118,1.98587,3.63865,1.197,1.40239.39256A.40209.40209,0,0,0,1.06513.4121C.52636.93537-.106,1.40445.0152,2.309c.09541.71216.158,1.42985.20358,2.14715.03929.61856-.08048,1.23336-.01137,1.862.07347.6682-.003,1.35153.02464,2.02668A3.92885,3.92885,0,0,0,.37487,9.393a1.33256,1.33256,0,0,1-.2352,1.492c-.33638.29888.01784.51709.21157.59343.23406.09229.55864-.046.79353.04529a5.39883,5.39883,0,0,0,3.15508.107,8.44346,8.44346,0,0,0,3.12722-1.50024c.45905-.34675.84208-1.06817,1.55326-.844a6.16037,6.16037,0,0,0,1.96884-.01686A4.06627,4.06627,0,0,0,12.85,8.9526a.79962.79962,0,0,1,.60953.04922,11.26171,11.26171,0,0,0,4.79688,1.32925,6.01751,6.01751,0,0,0,1.82847.11935c.48647-.09222,1.22018-.09765,1.093-1.03339a3.418,3.418,0,0,1,.23683-1.51163,6.25633,6.25633,0,0,0,.35647-2.1887,2.65705,2.65705,0,0,1,.17765-1.54828C22.0275,4.03922,21.95122,3.77847,21.88227,3.60323Zm-8.252,3.73564a2.78051,2.78051,0,0,1-.25647.50691.07716.07716,0,0,1-.01813.02019c-.04087.10282-.10891.20437-.22924.18231a.069.069,0,0,1-.04921-.06463,3.15137,3.15137,0,0,1,.07757-.61356l.00211-.0409c.00092-.01977.00223-.0395.00165-.05943a.0637.0637,0,0,1,.002-.01126c.01433-.304.02307-.60822.01958-.91257-.00386-.33759-.02583-.67341-.04247-1.01041-.00858-.17318-.01735-.34629-.03546-.51882A2.70616,2.70616,0,0,0,12.98,4.20429l-.0159-.043a.64174.64174,0,0,1-.08109-.11208c-.02288-.03865-.046-.08312-.07419-.12213a.251.251,0,0,0-.035-.02045q-.00479.04-.00614.08024a5.47616,5.47616,0,0,1,.16346,1.66759,15.36319,15.36319,0,0,1-.165,1.68733.05488.05488,0,0,1-.01094.02608,1.65117,1.65117,0,0,1-.23076.64052.07277.07277,0,0,1-.10418.015.06646.06646,0,0,1-.10192-.015,2.23645,2.23645,0,0,1-.2232-.69789c-.05421-.31789-.07448-.64-.09826-.96158l-.00165-.00266c-.0325-.04041-.0405-.02948-.06948.00678q-.0107.22128-.0374.4444l-.003.15217c-.00615.29132-.00818.5827-.00887.87405-.00032.14743-.004.29544,0,.4428A1.01926,1.01926,0,0,1,11.872,8.606a.11623.11623,0,0,1-.01363.1234.18289.18289,0,0,1-.21707.04631.42077.42077,0,0,1-.17092-.17508,1.33092,1.33092,0,0,1-.10343-.22992l-.01466-.043a.24748.24748,0,0,0-.03415-.03106.15649.15649,0,0,0-.0427-.02009.06935.06935,0,0,1-.07452-.03122.06031.06031,0,0,1-.028-.03606l-.00225-.01348a.18545.18545,0,0,1-.01934-.04258.527.527,0,0,1-.01345-.164,7.482,7.482,0,0,1-.00123-1.34061c.00175-.09893.00427-.198.00286-.29714-.00386-.27319-.05432-.5414-.08525-.8121a2.21517,2.21517,0,0,1-.01718-.29122,1.77343,1.77343,0,0,0-.00546-.226.0744.0744,0,0,0-.06928.01178c-.01548.04487-.03351.089-.05069.13319a5.23323,5.23323,0,0,0-.06254.59926c-.00959.29027-.01649.58286-.049.87192.00175.17815-.017.35559-.029.53338-.00954.14186-.00515.28415-.01661.42588-.00847.10475-.02379.41083-.19891.37127-.09568-.02164-.15425-.15283-.1892-.2315a1.09132,1.09132,0,0,1-.0757-.40932c-.01037-.33046.02337-.65614-.0089-.98689-.03256-.33363-.10048-.66231-.15963-.99192-.05023-.05144-.12687-.09765-.18025-.1485a1.19971,1.19971,0,0,1-.0732.10723c.093.55289.1157,1.11491.16395,1.67287a8.76612,8.76612,0,0,1,.04753.92055c-.00263.13888-.01245.27809-.02232.41665a1.02186,1.02186,0,0,1-.07273.34106.0677.0677,0,0,1-.1225-.016A1.16444,1.16444,0,0,1,9.835,8.4042a1.88834,1.88834,0,0,1-.04927-.59l-.00116-.01132c-.01036-.17554-.01127-.35133-.0114-.52713a.23912.23912,0,0,0-.02525-.08846c-.02024-.03433-.03729-.03485-.05161-.0212a8.171,8.171,0,0,1-.33242,1.40334,1.514,1.514,0,0,1-.174.28853c-.03924-.05772-.09746-.11712-.14376-.17547a.0724.0724,0,0,1-.0157-.00991A1.50787,1.50787,0,0,1,8.6823,8.1711a1.5799,1.5799,0,0,1-.1365-.43321l-.00634.0071c-.11045.05458-.22175.10985-.33488.15963.03052.08443.05783.16987.08725.25486a1.24774,1.24774,0,0,1,.07886.311c.01558.20934-.15755.35081-.31325.45867-.21535.14916-.42522.30595-.63871.45782a8.41514,8.41514,0,0,1-1.39889.83154,11.21151,11.21151,0,0,1-1.49111.533,4.03736,4.03736,0,0,1-2.98055.12367.62175.62175,0,0,1-.32443-.35081,1.39711,1.39711,0,0,1-.038-.49153c.00764-.25516.00858-.51025.01834-.76537.01092-.2852.0251-.57187.00928-.85713a15.40623,15.40623,0,0,1-.0512-1.7101,7.73077,7.73077,0,0,0-.0366-1.72133,4.70237,4.70237,0,0,1-.08482-.79574c.00067-.28562.00523-.57137-.00678-.85686a3.82232,3.82232,0,0,1,.00282-1.21043.94258.94258,0,0,1,.62712-.68628,1.6802,1.6802,0,0,1,.67673-.01816,4.12539,4.12539,0,0,1,.74875.17508c.53243.17217,1.05282.384,1.57469.58519.54143.20878,1.08322.417,1.63166.60691.51479.17822,1.03952.32692,1.56063.48534a.68025.68025,0,0,1,.43887.2689.4767.4767,0,0,1,.0403.14825.285.285,0,0,0,.25454.09274A1.49468,1.49468,0,0,1,8.784,3.35685a1.59366,1.59366,0,0,1,.36235-.39074.6023.6023,0,0,1,.19828-.11365A.18775.18775,0,0,1,9.51889,2.835a.20174.20174,0,0,1,.08357.01839.2419.2419,0,0,1,.11846.23464c.01213.04146.02224.08364.03361.12494a.78736.78736,0,0,0,.02967.09045c.0023.00524.01323.02572.01981.03626l.00146.00269.00135.0013c.0023.00243.01116.01267.00774.00832h0c-.0035-.00429-.00167-.002.00084-.0001L9.81883,3.351l-.0017.001h.00015l.01-.00589a.17716.17716,0,0,0,.04238-.06261c.05666-.13643.0419-.31671.145-.4316.00594-.01146.01062-.02383.01733-.03473a.06159.06159,0,0,1,.03577-.02624.08024.08024,0,0,1,.05373-.03407.13308.13308,0,0,1,.13492.08149l.00063-.00017a.62132.62132,0,0,0,.32466-.01685.68339.68339,0,0,1,.27451-.10063c.1756-.00213.31153.14088.4706.20214a.66962.66962,0,0,1,.14087.01263.05543.05543,0,0,1,.02115.01149c.009-.00075.01741.00085.02664-.00069a1.60641,1.60641,0,0,0,.3345-.14853.478.478,0,0,1,.28829-.0344,1.89988,1.89988,0,0,1,.26389.07062,1.20954,1.20954,0,0,1,.41495.18948,1.10567,1.10567,0,0,1,.40572.28369,1.3,1.3,0,0,1,.17153.50393.5282.5282,0,0,1,.03813.10649.06641.06641,0,0,1-.00028.01129.61847.61847,0,0,0,.03685.07742,1.72762,1.72762,0,0,0,.28388.29371,1.25061,1.25061,0,0,1,.23531.35385,1.57807,1.57807,0,0,1,.05392.896,2.54061,2.54061,0,0,1-.126.517c-.04382.255-.10108.5074-.154.76069A3.36158,3.36158,0,0,1,13.63027,7.33887Zm7.6483-.64271-.00533.10184c-.00015.00314-.01154.00664-.02826.01007a1.39132,1.39132,0,0,1-.18162.35265c-.1255.17557-.26506.34079-.38651.51931a1.2297,1.2297,0,0,0-.25639.62733,5.107,5.107,0,0,1,.02662.661.71018.71018,0,0,1-.16123.3406,1.1587,1.1587,0,0,1-.693.33694,4.20925,4.20925,0,0,1-.89188.04307c-.13324-.00488-.26625-.01519-.39944-.02-.23966-.00857-.48016-.00065-.72-.00726a6.23783,6.23783,0,0,1-1.43181-.17819,4.43842,4.43842,0,0,1-.60746-.19488,4.86058,4.86058,0,0,1-.54866-.28231,12.01271,12.01271,0,0,0-1.07886-.61245.068.068,0,0,1-.02405-.09169,7.1074,7.1074,0,0,0,.3468-.93839c.00659-.02176.01219-.044.01865-.06584a1.00521,1.00521,0,0,0,.12809.06417c.06556.02523.13769.03292.20487.05652a1.91681,1.91681,0,0,0,.20021.05664c.30863.07233.61883.12312.93282.16494.163.02169.32558.0448.48917.06191.15185.01591.30271.04451.4553.05259a4.08029,4.08029,0,0,1,.44994.03076c.0662.01093.13185.00972.19851.015.03434.00272.06659.00848.10095.00792.02826-.00042.06148-.01109.08646.00668.06989.04968.13638-.06558.06714-.11483a.23878.23878,0,0,0-.1536-.02484c-.02467.0002-.05046-.00121-.076-.00236a.06031.06031,0,0,0-.06148-.04967,5.72431,5.72431,0,0,1-.849-.06408c-.27443-.041-.54782-.09444-.82346-.1253a1.70721,1.70721,0,0,1-.38062-.0984,3.7587,3.7587,0,0,1-.37274-.1418c-.06849-.033-.13783-.06529-.20669-.09847-.05678-.03531-.114-.071-.16863-.10852a1.30887,1.30887,0,0,0-.11683-.07536,8.32776,8.32776,0,0,0,.19874-1.02583c.01155,0,.02261-.00046.03459-.00026.11513.00193.22724.008.34185.0144.1039.00582.20462.033.30849.03979.11457.00746.229.0143.34352.02419.48076.04146.96381.05762,1.44683.05762a.05925.05925,0,0,0,.05278-.02892c.085.00157.1697-.00233.25571.00039.06575.00209.1296.01561.19594.016.08036.00049.16073-.00085.24109-.001a.06654.06654,0,0,0,0-.133c-.07535.00017-.15068.00128-.226.00105-.07143-.0002-.14009-.01374-.211-.016-.132-.00425-.25921.003-.39057-.0105-.13024-.01335-.26193-.017-.3926-.031a3.45254,3.45254,0,0,0-.43046-.02585c-.07137.00131-.1387-.01211-.20931-.01447-.062-.00209-.12223-.00082-.18432-.00667-.14679-.01381-.29271-.03371-.43933-.04961-.13825-.015-.27016-.04962-.407-.07324-.06841-.01185-.13114-.03963-.19879-.05325a.50212.50212,0,0,0-.09912-.00821c.0106-.13443.01843-.269.01995-.40366l-.03517-.01973a1.72965,1.72965,0,0,0,.32463-.09592c.13707-.04074.2728-.091.41062-.12789q.12814-.03431.25609-.06951.24947-.06258.49807-.12916c.13833-.03705.28191-.05511.42248-.08427.09081-.01882.182-.0358.27309-.05291.11273-.0146.224-.03443.33752-.0453.12207-.01165.24642-.02029.36757-.04015.16158-.02647.32391-.04709.48585-.07036.131-.01881.256-.07536.38767-.09641a.05246.05246,0,0,0,.04294-.03171.8447.8447,0,0,1,.08849-.00657.06654.06654,0,0,0,0-.133,3.19208,3.19208,0,0,0-.36823.05508c-.13705.01747-.27439.03459-.41169.04981-.28052.03112-.56212.06031-.84335.084a16.169,16.169,0,0,0-1.63878.20846c-.16076.03027-.32067.0628-.481.09519-.0454.00917-.09029.02079-.13533.03172a2.14545,2.14545,0,0,0-.27947-.92095c.06-.01832.11912-.04038.17933-.05808.15165-.04461.30513-.08185.45582-.12979.3086-.09818.61484-.20129.92092-.30644.14837-.051.30216-.08613.45163-.1343.15058-.04853.30061-.09916.45406-.13807.32029-.08125.64674-.13708.97238-.19186.36626-.06162.73152-.12629,1.0938-.20849.08345-.01892.04814-.14717-.03534-.12825-.65839.14942-1.33114.22511-1.98784.38121-.15985.038-.316.087-.47222.13771-.15486.05026-.31274.08983-.4677.13905-.15414.049-.30278.112-.45809.15789-.16.04729-.31726.10217-.476.15338-.17067.05505-.3449.09651-.51641.14851-.06509.01977-.1292.04078-.19419.05976a1.16485,1.16485,0,0,0-.28274-.2603c-.07219-.04679-.005-.1628.06766-.11575l.00368.00269a.73707.73707,0,0,1,.22217-.30281,4.60632,4.60632,0,0,1,.92683-.56411A11.989,11.989,0,0,1,17.77372,1.2473a.54115.54115,0,0,0-.04676-.03793,1.09384,1.09384,0,0,1,.17078-.07088c.3052-.07091.61151-.13692.91745-.20466.1057.00825.20239.01643.29521.02468A3.75389,3.75389,0,0,1,20.25569.93383a.93774.93774,0,0,1,.70133.49945,2.6549,2.6549,0,0,1,.20765.88848c.0506.41809.10612.83412.1205,1.25565a8.6048,8.6048,0,0,1-.06473,1.3393,2.36491,2.36491,0,0,0,.00448.61768c.00992.07164.02278.14278.03539.214a.36966.36966,0,0,1,.02692.10639c.00232.02749.00236.0552.00393.08276.00733.04431.01567.08842.02153.133A1.63409,1.63409,0,0,1,21.27857,6.69616ZM8.53438,7.97357c0-.16209-.01407-.32388-.01317-.48537a1.24177,1.24177,0,0,0-.01477-.214c-.01223-.07334-.01673-.14491-.02978-.21864a3.17252,3.17252,0,0,1-.03747-.46031c-.00182-.065-.01692-.12834-.01709-.19347-.00018-.08289.00383-.16588.00383-.24884q0-.24234.00351-.48452c.00261-.1631-.0163-.32336-.01931-.48561a4.02833,4.02833,0,0,1,.02366-.47143c.01837-.18509.048-.36887.06882-.55361.01778-.15766.0634-.31471.07993-.47284A.44535.44535,0,0,0,8.58885,3.627a.06226.06226,0,0,0-.08492-.06057.20025.20025,0,0,1,.02136-.04484c.04823-.071-.06694-.13761-.11484-.06715a.49.49,0,0,0-.06068.19242.45248.45248,0,0,1-.03641.10171c-.01891.04182-.02713.08407-.04225.127-.02706.07681-.05907.14763-.08083.22689a2.61753,2.61753,0,0,0-.06389.27286c-.02831.173-.057.342-.07231.51692a4.61581,4.61581,0,0,0-.0179.51541c.00445.18264-.01433.36305-.01435.54605,0,.18693.01265.37091.02783.55672.0073.08956-.001.1774.01064.26723.013.09961.01063.19811.02222.29724.01865.1597.02066.31959.03639.47909a2.04968,2.04968,0,0,0,.04725.26893c.02131.09059.02419.18395.04831.274a.542.542,0,0,0,.2866.38229c.05465.02176.10438-.0516.07509-.09771A.80071.80071,0,0,1,8.53438,7.97357ZM8.23705,7.605c-.14844.0286-.2907.09729-.43812.13417-.15139.03787-.30742.0646-.46007.0986-.28271.063-.5692.1039-.8522.1634-.111.02333-.22289.04146-.335.05825-.11673.02359-.23372.04565-.35143.06306-.14629.02163-.29573.04876-.443.06237-.06437.00593-.129.01394-.19354.01856-.06525.00468-.13243.01957-.19749.01845a.0623.0623,0,0,1-.04752-.02114l-.124.016c-.12984.0164-.26031.01355-.3902.02419-.12561.01024-.25172.03344-.378.03518a.06654.06654,0,0,1,0-.133c.14009-.00193.27966-.03639.41946-.03593A4.23692,4.23692,0,0,0,4.917,8.06805c.28469-.03116.5698-.05033.85318-.08967.06531-.0091.131-.01394.19643-.02163.23708-.04513.47383-.09156.70937-.1469A3.23968,3.23968,0,0,0,7.07508,7.703a1.35021,1.35021,0,0,1,.171-.03773c.06555-.01571.12819-.04581.19251-.066.13024-.041.25052-.11336.37838-.16241.06326-.02428.12565-.05112.18954-.07363a.56149.56149,0,0,1,.17668-.05148.06653.06653,0,0,1,0,.133.38568.38568,0,0,0-.10175.03345c-.03592.0123-.07143.02487-.10677.03878-.06424.02526-.129.04941-.19291.07563-.01816.00746-.03548.01547-.05334.02316.03527-.00785.07083-.01443.10566-.02428.12228-.03462.24318-.09071.3676-.1147C8.28545,7.46061,8.321,7.58879,8.23705,7.605Zm-.03576-1.2873c-.01507.00036-.03015.00334-.04521.00455a.06578.06578,0,0,0-.04516-.113c-.12566.00392-.24612.03884-.37031.05419a2.62941,2.62941,0,0,0-.36256.08194c-.12769.03449-.25591.074-.38625.09713a2.3521,2.3521,0,0,1-.41708.01973A.06051.06051,0,0,0,6.526,6.484c-.13467.00864-.26733.02827-.40312.03253-.08538.00265-.08576.13567,0,.133.17429-.00543.34316-.0393.51831-.03685.08551.00118.16968-.00946.255-.01394.08629-.00451.17272-.002.259-.00726.16906-.01021.33908-.03034.5075-.04834.08548-.00916.1695-.02539.25411-.04032a1.97139,1.97139,0,0,1,.28452-.05209A.06654.06654,0,0,0,8.20129,6.31769Zm-.0072,1.07138c-.0151.01525-.03257.02752-.0488.0414a.07.07,0,0,1,.02976.03848.06835.06835,0,0,1-.04644.08182.99046.99046,0,0,1-.22.07219c-.03282.00412-.0655.01384-.101.01911a.889.889,0,0,1-.1228.00235.06648.06648,0,0,1-.03356-.12389c.08031-.03721.17433-.04209.2486-.082a.80284.80284,0,0,0,.20016-.1435A.06653.06653,0,0,1,8.19409,7.38907ZM8.129,4.89642l-.00368-.00007a.06723.06723,0,0,1-.05052.10852c-.08391.00069-.16868.00756-.25246.00092a1.80711,1.80711,0,0,1-.19342-.035c-.14253-.0271-.286-.06009-.42981-.07789-.13551-.01675-.26736-.05036-.402-.07226-.14867-.02418-.29668-.05-.445-.07559-.29089-.0502-.57116-.1383-.85549-.21654-.14536-.04-.29367-.07668-.436-.12652a2.54251,2.54251,0,0,0-.38315-.14055c-.08429-.01456-.04835-.14271.03536-.12825a2.04328,2.04328,0,0,1,.36444.13326c.02782.01077.05739.01829.086.02772a.06023.06023,0,0,1,.08961-.02775.61547.61547,0,0,0,.175.04057c.05681.015.11108.03387.16876.04579.11375.02349.22154.067.33464.09382.253.06005.50992.10341.76679.14317.14.0217.28.03384.42076.04761.05281.00518.10286.01905.15473.02887.05023.00952.10076.00118.151.0126a3.00225,3.00225,0,0,0,.70451.08453A.06653.06653,0,0,1,8.129,4.89642Z"/></g></g></svg>