<svg xmlns="http://www.w3.org/2000/svg" width="66.9219" height="52.28739" viewBox="0 0 66.9219 52.28739"><title>bride-lower-gown-6-funny_1</title><g id="Layer_2" data-name="Layer 2"><g id="bride-lower-gown-6-funny"><path id="void" d="M66.77923,41.45706c-.14072-.32437-.44768-.60986-.49192-.93691-.23058-1.71839-1.264-3.20089-1.315-4.997A26.83274,26.83274,0,0,0,64.2043,32.219c-.25466-1.59108-.54421-3.17405-.83376-4.75845-.382-2.083-1.18091-4.048-1.55489-6.13775a29.51611,29.51611,0,0,0-1.39133-4.51852c-.56431-1.60711-.92349-3.27863-1.63794-4.84157-.50534-1.10447-.80693-2.30279-1.27745-3.42741-.92219-2.20493-1.84575-4.418-3.67808-6.07877-.80824-.73317-1.61923-1.465-2.414-2.213-.22521-.21179-.34583-.29492-.67426-.08175a1.113,1.113,0,0,1-.99588.016A1.78864,1.78864,0,0,0,48.669.00625c-.73991-.008-1.47851.11663-2.20768.1595-1.58166.09248-3.14859.28549-4.72227.4209-1.80019.15414-3.5816.34584-5.36563.63532a26.49028,26.49028,0,0,1-3.97162.22653c-2.76126.02415-5.52389.063-8.28109-.18359-.41286-.03757-.91145.29485-1.2533.1595a8.33707,8.33707,0,0,0-2.6352-.1595,1.45976,1.45976,0,0,0-.93829.21579A27.41247,27.41247,0,0,0,16.4535,3.91353c-.8498.88331-1.49723,1.95832-2.31221,2.88057a17.97991,17.97991,0,0,0-3.083,5.49568,36.83375,36.83375,0,0,0-1.24923,5.21013,18.61344,18.61344,0,0,0-.58578,3.91265,32.595,32.595,0,0,1-.43694,3.26391,45.99269,45.99269,0,0,1-1.26672,5.31072,48.34726,48.34726,0,0,1-2.41673,5.87235c-.3351.65679-.59651,1.35114-.92356,2.01192-.75463,1.52943-1.42618,3.099-2.31221,4.56414-.634,1.04818-1.1849,2.14466-1.776,3.21967a.48862.48862,0,0,0,.14612.70908c.34714.24792.701.48387,1.05488.71982a16.23347,16.23347,0,0,0,4.65793,2.08025c2.38191.66353,4.77456,1.25866,7.21145,1.72918,1.51594.29354,3.04138.25866,4.548.53747,1.09111.20244,2.22509.06434,3.34971.189,1.532.17155,3.0749.319,4.615.44369,1.97711.15812,3.96632.17422,5.95148.22246.71844.0161,1.44892-.1434,2.15264-.059a8.64219,8.64219,0,0,0,2.2787-.11794c1.10322-.15413,2.22647-.055,3.3524-.18634a39.40122,39.40122,0,0,0,4.63515-.64742c1.3444-.32169,2.76662-.32974,4.103-.67558a37.18886,37.18886,0,0,0,5.98224-1.63663c1.05492-.47046,2.14335-.86721,3.17811-1.37654.75463-.37,1.41149-.941,2.17149-1.29623a31.131,31.131,0,0,0,5.60825-3.31483,3.259,3.259,0,0,1,1.15545-.46509C66.928,42.33638,67.07009,42.11928,66.77923,41.45706Z" style="fill:#fff"/><path id="fill2" d="M66.77923,41.45706c-.14072-.32437-.44768-.60986-.49192-.93691-.23058-1.71839-1.264-3.20089-1.315-4.997A26.83274,26.83274,0,0,0,64.2043,32.219c-.25466-1.59108-.54421-3.17405-.83376-4.75845-.382-2.083-1.18091-4.048-1.55489-6.13775a29.51611,29.51611,0,0,0-1.39133-4.51852c-.56431-1.60711-.92349-3.27863-1.63794-4.84157-.50534-1.10447-.80693-2.30279-1.27745-3.42741-.92219-2.20493-1.84575-4.418-3.67808-6.07877-.80824-.73317-1.61923-1.465-2.414-2.213-.22521-.21179-.34583-.29492-.67426-.08175a1.113,1.113,0,0,1-.99588.016A1.78864,1.78864,0,0,0,48.669.00625c-.73991-.008-1.47851.11663-2.20768.1595-1.58166.09248-3.14859.28549-4.72227.4209-1.80019.15414-3.5816.34584-5.36563.63532a26.49028,26.49028,0,0,1-3.97162.22653c-2.76126.02415-5.52389.063-8.28109-.18359-.41286-.03757-.91145.29485-1.2533.1595a8.33707,8.33707,0,0,0-2.6352-.1595,1.45976,1.45976,0,0,0-.93829.21579A27.41247,27.41247,0,0,0,16.4535,3.91353c-.8498.88331-1.49723,1.95832-2.31221,2.88057a17.97991,17.97991,0,0,0-3.083,5.49568,36.83375,36.83375,0,0,0-1.24923,5.21013,18.61344,18.61344,0,0,0-.58578,3.91265,32.595,32.595,0,0,1-.43694,3.26391,45.99269,45.99269,0,0,1-1.26672,5.31072,48.34726,48.34726,0,0,1-2.41673,5.87235c-.3351.65679-.59651,1.35114-.92356,2.01192-.75463,1.52943-1.42618,3.099-2.31221,4.56414-.634,1.04818-1.1849,2.14466-1.776,3.21967a.48862.48862,0,0,0,.14612.70908c.34714.24792.701.48387,1.05488.71982a16.23347,16.23347,0,0,0,4.65793,2.08025c2.38191.66353,4.77456,1.25866,7.21145,1.72918,1.51594.29354,3.04138.25866,4.548.53747,1.09111.20244,2.22509.06434,3.34971.189,1.532.17155,3.0749.319,4.615.44369,1.97711.15812,3.96632.17422,5.95148.22246.71844.0161,1.44892-.1434,2.15264-.059a8.64219,8.64219,0,0,0,2.2787-.11794c1.10322-.15413,2.22647-.055,3.3524-.18634a39.40122,39.40122,0,0,0,4.63515-.64742c1.3444-.32169,2.76662-.32974,4.103-.67558a37.18886,37.18886,0,0,0,5.98224-1.63663c1.05492-.47046,2.14335-.86721,3.17811-1.37654.75463-.37,1.41149-.941,2.17149-1.29623a31.131,31.131,0,0,0,5.60825-3.31483,3.259,3.259,0,0,1,1.15545-.46509C66.928,42.33638,67.07009,42.11928,66.77923,41.45706Z" style="fill:#fff"/><path id="fill1" d="M9.80849,17.50022a36.91048,36.91048,0,0,1,1.2501-5.20984A17.97494,17.97494,0,0,1,14.142,6.794c.81485-.9215,1.4619-1.99674,2.3118-2.88031a27.35548,27.35548,0,0,1,2.84-2.43236,1.45425,1.45425,0,0,1,.9381-.21636,8.33621,8.33621,0,0,1,2.63573.15958c.34146.13523.84-.19714,1.253-.16012,2.7575.24713,5.52029.20846,8.28169.18361A26.36677,26.36677,0,0,0,36.373,1.22184c1.78385-.28931,3.56635-.48062,5.36582-.6351,1.57388-.13511,3.14058-.32839,4.7227-.42112C47.19.12292,47.92886-.00189,48.66864.00667a1.795,1.795,0,0,1,1.07848.171,1.11269,1.11269,0,0,0,.996-.01557c.32716-.213.44849-.13094.67426.08162.79466.74817,1.60475,1.48012,2.4136,2.21308,1.83179,1.65988,2.7557,3.87386,3.67833,6.0789.47032,1.12406.77106,2.32185,1.2767,3.42766.71442,1.56245,1.07465,3.23362,1.63891,4.84054a29.66788,29.66788,0,0,1,1.39085,4.51823c.37385,2.09017,1.17337,4.05567,1.55437,6.13843.28985,1.58444.57932,3.16688.83451,4.75782a27.009,27.009,0,0,1,.76819,3.30419c.05033,1.79641,1.08387,3.27933,1.315,4.99742.04407.32787.35.613.49186.9368.2901.66215.14827.87993-.53637,1.05391a3.2626,3.2626,0,0,0-1.15552.46471A31.0987,31.0987,0,0,1,59.48,46.29005c-.76.35526-1.41758.92661-2.172,1.29732-1.03479.50843-2.12348.90583-3.17813,1.37544a37.08694,37.08694,0,0,1-5.98247,1.63779c-1.33642.34489-2.75809.35282-4.10257.67466a39.35512,39.35512,0,0,1-4.63588.64747c-1.12592.13219-2.24835.03221-3.35221.187a8.61544,8.61544,0,0,1-2.2779.11752c-.70475-.08493-1.43525.07561-2.15274.05845-1.9851-.04751-3.97477-.06355-5.95216-.22254-1.53955-.12379-3.08194-.27151-4.61422-.4425-1.12525-.12555-2.25971.0135-3.35035-.189-1.506-.2796-3.03174-.24463-4.54817-.53763-2.43591-.47067-4.82934-1.06551-7.21167-1.72959a16.211,16.211,0,0,1-4.657-2.08032c-.35472-.23547-.70868-.47247-1.05535-.71948A.49.49,0,0,1,.09078,45.655c.591-1.074,1.1426-2.17168,1.77648-3.21965.88628-1.46525,1.55694-3.03493,2.31233-4.5635.32681-.66128.58821-1.35526.923-2.01213a48.60693,48.60693,0,0,0,2.41734-5.8725,45.88585,45.88585,0,0,0,1.266-5.31076,32.89107,32.89107,0,0,0,.43788-3.26332,18.55668,18.55668,0,0,1,.5847-3.91287M53.3519,3.02048c-.85656-.83772-1.58344-1.8537-2.95648-1.92408-.83286-.04268-1.65969-.19718-2.4925-.24976-.27823-.01757-.59463.237-.84511.17408a6.90978,6.90978,0,0,0-2.432.06536c-1.29641.13173-2.58164.36021-3.894.38213a17.42815,17.42815,0,0,0-2.20443.20466c-1.27123.18457-2.53611.41269-3.8047.616-.23192.03717-.60687-.03572-.67335.08069a1.128,1.128,0,0,0-.06037.79456,13.73485,13.73485,0,0,1,.39295,2.95658,6.68207,6.68207,0,0,1-.11821,1.1458c-.09583-.37694-.194-.7533-.2853-1.13136a.78569.78569,0,0,1-.00193-.20777,15.52484,15.52484,0,0,0-.39407-2.95578c-.08279-.53157-.26554-.69644-.77215-.68753-1.24955.022-2.50008.0248-3.74939-.00289-.40549-.009-.52231.09267-.51239.50749.02991,1.2492.01389,2.49959.00517,3.74945a.94574.94574,0,0,1-.1246.31061,1.5123,1.5123,0,0,1-.07558-.28032c-.07355-.9778-.13968-1.95616-.21351-2.934a1.42343,1.42343,0,0,0-.07894-.27889c-.04911.10349-.10524.20431-.14573.311a2.5097,2.5097,0,0,0-.18346.54733c-.08464.6637-.17058,1.329-.209,1.99646-.08619,1.49795-.13349,2.99812-.21785,4.4962-.0454.80587-.13472,1.60926-.20369,2.41381-.003.03447.01188.09281-.00239.10029-.08413.04409-.18235.11587-.26017.10027a.25539.25539,0,0,1-.14522-.20735,6.58625,6.58625,0,0,0,.19125-.74919c.076-1.2207-.00633-2.43684.17864-3.66862a39.98578,39.98578,0,0,0,.23947-4.59548A2.43473,2.43473,0,0,1,27.89106,2.71a1.6421,1.6421,0,0,1,.2515-.22545c-.1295-.06443-.25844-.18343-.38863-.18484-1.28449-.014-2.57327.05221-3.85209-.034a1.25242,1.25242,0,0,0-1.27619.67967,20.08775,20.08775,0,0,0-1.77782,4.157c-.1924.71655-.41236,1.42573-.62594,2.13642-.01386.04626-.08.07679-.12187.11463a.54926.54926,0,0,1-.079-.17427,1.50379,1.50379,0,0,1,.003-.51844c.33421-1.07543.67131-2.15053,1.04087-3.21415.23133-.66588.52388-1.31037.78034-1.9678a.92113.92113,0,0,0,.01658-.28048.80581.80581,0,0,1-.221.06971c-.18777.00313-.37589-.0129-.56386-.02125a3.2581,3.2581,0,0,1,.35552-.53136,1.19433,1.19433,0,0,1,.42787-.21321c.1385-.05365.28558-.08526.42887-.12659-.16791-.09757-.32966-.2636-.50491-.27933a8.57263,8.57263,0,0,0-1.35216-.00323.89793.89793,0,0,0-.52645.21977,7.36806,7.36806,0,0,0-1.77663,2.17574,10.85085,10.85085,0,0,1-.9665,1.57626c-.066.097-.27511.09673-.41821.14132a1.0932,1.0932,0,0,1-.0498-.3889c.02892-.11855.15173-.21167.22215-.323a7.47276,7.47276,0,0,0,1.25272-2.08482c.02358-.09429.04219-.18984.06315-.28479a.845.845,0,0,0-.27416.08823,2.06292,2.06292,0,0,0-.36946.36538c-.584.76308-1.12433,1.56264-1.74577,2.29344a43.62151,43.62151,0,0,0-3.55435,5.30242,4.49921,4.49921,0,0,0-.39344.87732,33.53048,33.53048,0,0,0-.89372,3.38949,42.773,42.773,0,0,0-.94117,6.46067,32.46214,32.46214,0,0,1-.72733,4.6191,27.72266,27.72266,0,0,1-1.55089,4.869c-.85184,1.93555-1.60773,3.91212-2.51772,5.83258-.60394,1.27456-1.24691,2.53516-1.82276,3.82549a44.09182,44.09182,0,0,0-2.01451,4.06388c-.17614.53369-.15.73094.27461,1.10323.52478.46011,1.22547.52231,1.70928.90253a6.02407,6.02407,0,0,0,2.21264.95656c2.03257.55838,4.05406,1.17255,6.14238,1.562a37.22111,37.22111,0,0,0,4.35416.74169c2.16445.13961,4.33451.17844,6.492.449.76559.096,1.53451.05219,2.31485.17543a27.98593,27.98593,0,0,0,4.17787.23924c3.16653.01988,6.33532.08452,9.49656-.19593.94212-.08357,1.88749-.13076,2.8296-.21457a14.84344,14.84344,0,0,0,1.5795-.20984c1.31183-.261,2.61681-.556,3.927-.82547.73835-.15187,1.48507-.2641,2.22138-.42459.50433-.10992.98993-.31273,1.49652-.40384a32.0044,32.0044,0,0,0,5.12446-1.71544,8.67184,8.67184,0,0,0,1.21465-.586c.73675-.40474,1.45854-.8366,2.19285-1.24588.676-.37682,1.37609-.7127,2.03741-1.11311,1.1413-.691,2.24868-1.43827,3.39341-2.12332A1.39024,1.39024,0,0,0,65.3081,40.192,26.53993,26.53993,0,0,1,63.987,35.63688c-.25887-1.047-.42876-2.11607-.63382-3.17617-.14321-.74021-.27772-1.48207-.41778-2.22289-.18866-.998-.34941-2.00236-.57538-2.99184-.33945-1.48631-.71933-2.96352-1.09313-4.44179-.26185-1.03563-.49759-2.08088-.82315-3.0968-.88334-2.75656-1.78123-5.50915-2.72774-8.24449-.4926-1.42351-1.042-2.83395-1.67134-4.20175A15.27442,15.27442,0,0,0,53.3519,3.02048ZM52.08715,4.26026c-.33654-.4865-.68921-.962-1.01851-1.45318-.03594-.05359.04026-.18234.06444-.27623a.64815.64815,0,0,1,.14573.086c1.223,1.24868,2.64135,2.35615,3.30923,4.037.56773,1.4288,1.89514,2.56015,1.70654,4.29474-.00713.06542.22863.15725.35122.23676.06726-.16744.23339-.37379.18535-.49582-.25809-.65555-.47729-1.32919-.73337-1.98336a17.0056,17.0056,0,0,0-4.55859-6.42268,3.70726,3.70726,0,0,0-1.40593-.59714c-.12805-.0394-.332.16792-.50107.26195.1057.11433.20562.23478.31854.34147.15636.1477.33706.27165.48187.42918.6309.68617,1.25257,1.38083,1.87759,2.02032A2.18171,2.18171,0,0,0,52.08715,4.26026ZM50.64382,6.8745c.01373.187-.08853.449.26719.417a3.44222,3.44222,0,0,1-.05761-.34524,3.94242,3.94242,0,0,0-1.26658-2.49208c-.46671-.4852-.88868-1.01368-1.32652-1.52634-.37058-.43389-.71521-.89235-1.11251-1.29975a2.09183,2.09183,0,0,0-.63876-.30672,3.70045,3.70045,0,0,0,.16195.63325c.11752.26394.306.496.42648.759.30661.66911.58568,1.35085.89364,2.0193.04669.10138.18878.15879.28675.23654a1.039,1.039,0,0,0-.00537-.35243c-.10295-.2685-.25315-.519-.3543-.788a2.48435,2.48435,0,0,1-.082-.49593,2.078,2.078,0,0,1,.49323.30375c.268.29306.4599.662.749.92813a5.84316,5.84316,0,0,1,1.513,2.15367A.27827.27827,0,0,1,50.64382,6.8745Zm-26.04719-1.267a6.91794,6.91794,0,0,1,.629-2.55207c.04987-.10113.09807-.20309.147-.30468-.16338-.004-.4309-.07125-.47315-.0017a4.02368,4.02368,0,0,0-.68789,1.37021c-.15679,1.10414-.1779,2.22866-.22795,3.34608a4.67459,4.67459,0,0,0,.11434.84972,7.03351,7.03351,0,0,0,.29436-.8152C24.46184,6.7997,24.54879,6.20514,24.59663,5.60746ZM17.52934,7.19952c.12264-.06132.32083-.094.35649-.18827A7.22034,7.22034,0,0,1,20.16222,3.7037a1.79514,1.79514,0,0,0,.24685-.29139c-.12777-.02644-.26923-.10079-.38042-.06907a1.78735,1.78735,0,0,0-.6076.28336c-.95537.74886-1.1676,1.9347-1.69558,3.03985A2.94853,2.94853,0,0,1,17.52934,7.19952ZM41.57139,2.09214a1.68748,1.68748,0,0,0,.033.42406c.15358.45136.35167.88825.49244,1.34314.293.94662.55926,1.90153.84024,2.85193a.715.715,0,0,0,.10221.16326c.03461-.05446.0929-.10635.09913-.16388a1.17369,1.17369,0,0,0,.00026-.41111c-.33985-1.3029-.69-2.60312-1.08929-3.95618A4.41023,4.41023,0,0,0,41.57139,2.09214ZM32.84853,3.16468c-.08-.12-.26724-.16848-.4074-.24838-.04392.14965-.16282.3263-.12012.44476a13.25434,13.25434,0,0,1,.61829,3.69462c.00473.07312.08021.14166.12276.21234.02691-.05815.08078-.11827.07671-.17416a11.711,11.711,0,0,0-.20435-3.34419A1.454,1.454,0,0,0,32.84853,3.16468Zm8.21765.87812a15.782,15.782,0,0,1-.40913-1.70157c-.0526-.34513-.26046-.26848-.43729-.24449-.07774.01055-.21381.21411-.19018.25748a9.38333,9.38333,0,0,1,1.078,3.20145c.01381.09766.18512.17307.28327.25882a1.148,1.148,0,0,0,.0781-.37984c-.04743-.32148-.13141-.63756-.20087-1.06C41.19865,4.19519,41.0897,4.13047,41.06618,4.0428ZM39.39509,6.07744a.78271.78271,0,0,0,.09644.1667c.0366-.05007.10242-.09877.10484-.15043.01124-.24088.09949-.54486-.01142-.7132-.47409-.71955-.26964-1.59724-.60705-2.33918-.082-.18028.18543-.54734-.24219-.51369-.07355.00579-.16488.38023-.1621.5832a4.30011,4.30011,0,0,0,.19437.63883C38.97633,4.59524,39.18357,5.337,39.39509,6.07744Zm6.38716-1.88009a2.8709,2.8709,0,0,0,.21666.34254.99517.99517,0,0,0,.05333-.3872c-.1924-.64432-.44965-1.272-.601-1.9248-.08131-.35073-.16645-.56947-.55844-.5404.04178.20174.09023.40243.12261.60566a1.61785,1.61785,0,0,0,.05488.36273C45.34148,3.20482,45.55689,3.70337,45.78225,4.19735Zm7.23756,1.82446c.04122-.03805.12421-.09874.11765-.11082-.16648-.30686-.34125-.60928-.51984-.90935-.00893-.015-.065-.00192-.09908.05017C52.68563,5.40986,52.85272,5.71583,53.01981,6.02181Zm-11.4766,1.4406c.04718-.02279.13385-.04339.13528-.06874a1.78659,1.78659,0,0,0-.00837-.6007c-.03754-.12312-.2144-.20413-.33217-.29994-.00267-.00217-.06984.05543-.065.06641a3.28627,3.28627,0,0,1,.20344.52369A2.63532,2.63532,0,0,0,41.54321,7.46241ZM19.65264,11.04163a3.54487,3.54487,0,0,0,.10417-1.04171A3.54355,3.54355,0,0,0,19.65264,11.04163Zm14.745-2.41423a1.58069,1.58069,0,0,0,.11765.31246c.02861-.08794.09654-.18539.078-.26194a2.23332,2.23332,0,0,0-.20056-.501A3.17288,3.17288,0,0,0,34.39769,8.6274Zm-.00989-.90123a.78623.78623,0,0,0-.11841-.20711c-.02831.054-.09243.12053-.07864.15967a1.63437,1.63437,0,0,0,.20206.394A1.84216,1.84216,0,0,0,34.3878,7.72617Zm-10.2765.85015a.09278.09278,0,0,0-.06742.00462c-.02538.15906-.0517.31849-.06154.47887-.00125.02048.08738.04648.13438.06991a2.62267,2.62267,0,0,0,.06735-.37985C24.16021,8.62185,24.13966,8.59214,24.1113,8.57632Zm19.056-.32783c-.00069.0034.08416.02336.12915.03559a.6322.6322,0,0,0,.003-.31549A.432.432,0,0,0,43.16732,8.24849ZM19.9964,9.66657l-.13616-.03051a.857.857,0,0,0,.00074.36386A.90137.90137,0,0,0,19.9964,9.66657ZM19.413,11.375l.13616.03051a.857.857,0,0,0-.00074-.36386A.90229.90229,0,0,0,19.413,11.375Zm-.07589.34078-.12915.03558a.43219.43219,0,0,0,.13212.27991A.63151.63151,0,0,0,19.33715,11.71576Zm32.973-6.8723q.10419.13021.20835.10418Q52.41435,4.81743,52.31019,4.84346Zm-6.16688-.03125c.00694.0625.01389.125.07289.13543A.12408.12408,0,0,0,46.14331,4.81221Z"/></g></g></svg>