<svg xmlns="http://www.w3.org/2000/svg" width="79.4622" height="91.62852" viewBox="0 0 79.4622 91.62852"><title>bride-torso-1-funny</title><g id="Layer_2" data-name="Layer 2"><g id="bride-torso-1-funny"><path id="void" d="M79.45644,52.51675a18.49533,18.49533,0,0,0-.13452-1.95629l-.0036-.03644c-.06354-.72486-.11041-1.45154-.1784-2.17591-.0539-.57489-.11994-1.14849-.22577-1.718-.07746-.41645-.17768-.82862-.27033-1.24225-.07208-.32227-.1344-.6463-.21014-.968-.185-.78418-.39545-1.56158-.58447-2.34436-.17664-.72607-.34528-1.45282-.5196-2.17816-.05328-.22174-.10272-.4444-.15863-.66547-.2633-1.04193-.564-2.075-.81305-3.11963-.03375-.14166-.07525-.28155-.10644-.42382q-.132-.5994-.26142-1.19886c-.19061-.87945-.38653-1.75757-.63488-2.62506-.16223-.56653-.31885-1.13458-.47595-1.70245-.17927-.6482-.35163-1.29846-.52143-1.94965-.1015-.38952-.2074-.77765-.30456-1.16864-.215-.86529-.46009-1.72186-.68219-2.58447a23.44193,23.44193,0,0,1-.54438-2.62,1.53257,1.53257,0,0,0-.06109-.23089,2.63447,2.63447,0,0,0-.24329-.546c-.10925-.18909-.23059-.37415-.3457-.55145-.044-.06727-.08948-.12879-.13562-.19147a2.141,2.141,0,0,1-.226-.409.95113.95113,0,0,1-.08741-.20239,4.99045,4.99045,0,0,0-.48657-1.13269,18.60656,18.60656,0,0,0-1.54547-3.00788,8.33873,8.33873,0,0,0-.63275-.74383l-.01367-.016-.01618-.01551a17.93713,17.93713,0,0,0-2.29547-1.934l-.00824-.005a6.18719,6.18719,0,0,0-.96149-.58124l-.00738-.0036a8.342,8.342,0,0,0-1.029-.41577l-.00739-.00244c-.34735-.11548-.7005-.21265-1.0556-.30091l-.05744-.014c-.333-.08179-.66729-.15644-.99969-.23059l-.04-.00922c-.29962-.06683-.59875-.14142-.89813-.21283-.50311-.12012-1.0058-.23688-1.50818-.359-.39459-.096-.78918-.19354-1.18341-.28363a16.52789,16.52789,0,0,1-2.785-.97326c-.56092-.23987-1.11975-.48694-1.67987-.72059a14.84883,14.84883,0,0,1-1.50928-.878A17.58542,17.58542,0,0,1,50.91232,6.6926a4.90852,4.90852,0,0,1-2.14466-4.00244,3.741,3.741,0,0,0-.0459-.5622c-.07763-.51532-.24029-1.00647-.3601-1.50909-.07679-.322-.25318-.44574-.49433-.42646a.51046.51046,0,0,0-.08758-.00024l-.01007.00409a1.23184,1.23184,0,0,0-.3089.12543c-.02808.01593-.06159.03509-.09363.05413-.08118.048-.16522.09375-.21716.07123A5.10657,5.10657,0,0,0,45.812.09055,10.11223,10.11223,0,0,0,44.11782.01608c-.7124.02076-1.42523.01062-2.13806-.00079a25.471,25.471,0,0,0-4.216.1626c-.60828.09137-.80414.17138-.92884.68927-.01153.0476-.02661.077-.03711.13275-.04357.23376-.06689.4732-.09735.71008a2.88986,2.88986,0,0,1-.10809.54462c-.32092.965-.66107,1.92139-1.06311,2.85492-.20721.48089-.42615.95746-.67773,1.4223a4.66133,4.66133,0,0,1-.8194,1.12836,3.254,3.254,0,0,1-1.15576.73712c-.11463.043-.23279.07623-.348.11774-.55835.20086-1.11932.39453-1.68731.57019-.95429.29577-1.91346.57348-2.87165.85492-.07562.02221-.15106.04516-.22668.06744-1.43237.42145-2.89453.73181-4.30512,1.2392-1.09326.39318-2.21154.71606-3.31945,1.06927-.2063.06574-.41443.12628-.61963.19531a16.79333,16.79333,0,0,0-4.82819,2.13391,7.30837,7.30837,0,0,0-1.71173,1.256,3.99673,3.99673,0,0,1-.82971.98254,4.88592,4.88592,0,0,0-1.28,1.31055c-.1181.16632-.23212.33722-.34625.51062-.3.456-.5791.92267-.86432,1.38611C9.008,21.11465,8.40194,22.152,7.85568,23.23062A21.47018,21.47018,0,0,0,6.97,25.23605c-.261.679-.49078,1.36884-.69928,2.07038-.401,1.34918-.83209,2.68939-1.24511,4.035-.07959.25922-.16907.5174-.25818.77576a7.95081,7.95081,0,0,0-.429,1.60888,8.28787,8.28787,0,0,1-.22009,1.08185c-.16016.61725-.35638,1.22241-.4917,1.84534-.0263.12121-.05932.2409-.08728.36175-.204.88031-.44073,1.75336-.65527,2.63031-.16266.66755-.31934,1.336-.47724,2.00434q-.11836.50115-.23864,1.00189c-.02643.11011-.0578.21979-.08771.32959a10.74612,10.74612,0,0,0-.42694,1.85962,9.47493,9.47493,0,0,1-.31781,1.635c-.1806.67633-.38532,1.3457-.52191,2.032-.006.02985-.01514.0589-.02082.08881-.01446.07684-.03259.15338-.04791.23016-.21667,1.08478-.49506,2.16455-.624,3.25464-.01917.16138-.046.3222-.05725.48419-.01081.15924-.01715.31958-.02588.47937a13.91012,13.91012,0,0,0,.13928,3.2862,13.61569,13.61569,0,0,0,1.05054,3.44519c.03973.08325.09344.16168.13562.24414.1405.27472.28192.549.452.81366.03131.0487.0661.09594.09809.14459.07727.11761.15368.236.23724.34967.04407.06.096.11236.14246.17023.07776.0968.1524.1969.23834.28491l.00012.00012L2.532,61.784c.43011.44018.864.87988,1.31225,1.30133.23035.21667.45673.43823.70465.63244.25379.19843.51923.38214.78833.561.68634.45666,1.40119.87689,2.0423,1.38946l.00684.005c1.37786,1.10382,2.68109,2.30054,4.01764,3.45605.02087.01807.04083.03772.06152.056a8.10355,8.10355,0,0,0,1.13251.94361q1.68136,1.01046,3.38653,1.98187c.52558.29938,1.04895.60278,1.58069.89069.28986.15692.59222.29052.88965.43335.84247.405,1.69971.78289,2.54083,1.1911.189.0913.37012.2.55261.30554.32947.19079.65888.381,1.00336.53735.0166.00757.03174.01837.04846.0257.64551.28351,1.30274.54095,1.95789.80285.519.20758,1.03735.41639,1.54181.65479A15.92538,15.92538,0,0,1,29.3608,78.9277a9.48605,9.48605,0,0,1,1.239,1.17652.94855.94855,0,0,0,.21911.16406,1.72048,1.72048,0,0,1,.3877.28888c.2265.25842.45556.517.67511.78241a9.47052,9.47052,0,0,1,.61749.82349c.19092.29016.26764.46777.21344.56579-.03491.06268-.14514.08441-.292.09064a1.96517,1.96517,0,0,1-.2807-.00226,4.2724,4.2724,0,0,0-.60974-.00629,5.57927,5.57927,0,0,0-1.23261.22785c-.16986.04938-.33875.10266-.5061.1618a.8779.8779,0,0,0-.65924.64777.96847.96847,0,0,0,.22442.70441,1.11465,1.11465,0,0,0,.12946.13946,1.74,1.74,0,0,0,.45013.30841,2.31072,2.31072,0,0,0,.32532.13318,2.56574,2.56574,0,0,1,.34454.1286.85566.85566,0,0,1,.50971.83746c.002.032.013.06354.01666.09559a1.61824,1.61824,0,0,0,.83661,1.27691c.2265.12091.46142.23432.68237.36316a1.82555,1.82555,0,0,1,.32215.212,5.59747,5.59747,0,0,1,.511.55047c.02655.03162.05554.06067.08185.09253.16376.19861.32373.40125.49286.59418a.98424.98424,0,0,0,.33032.24115,1.51885,1.51885,0,0,0,.33087.112,5.889,5.889,0,0,0,1.42627.14654,3.94782,3.94782,0,0,0,1.025-.15118,1.37831,1.37831,0,0,1,.7395.06885c.06036.01806.12073.03656.17755.055.43048.13983.85681.29242,1.28284.44592.4024.14527.8045.29138,1.21014.42749a17.36227,17.36227,0,0,0,3.70532.92536,8.05549,8.05549,0,0,0,1.52521.023c.08051-.0069.16272-.01239.24457-.01423.02112-.00042.04156.00147.06262.00165a1.26711,1.26711,0,0,1,.22614.01764,2.38733,2.38733,0,0,0,.2984.03211,1.444,1.444,0,0,0,.83056-.154c.00818-.00476.0138-.01354.02185-.01855a1.00126,1.00126,0,0,0,.24982-.2124,1.424,1.424,0,0,1,1.77869-.41956,1.50757,1.50757,0,0,0,2.06695-.8056.70245.70245,0,0,1,.2768-.33307.59536.59536,0,0,1,.27984-.058,1.07537,1.07537,0,0,1,.10956-.00171c.06909.00512.137.00323.20563.00519a3.56689,3.56689,0,0,0,.76477-.0564,2.92255,2.92255,0,0,0,.70239-.2182l.00208-.001.01446-.00635a1.51867,1.51867,0,0,0,.93421-.93084,2.1893,2.1893,0,0,0,.15136-.94837,2.34524,2.34524,0,0,0-.03985-.3042c-.01343-.0686-.02252-.13537-.042-.20685a.87964.87964,0,0,0,.4085-1.01324,1.20039,1.20039,0,0,0-.16742-.32886.116.116,0,0,1-.01348-.06439c-.00025-.01123-.00287-.02057-.00226-.03241.00146-.02563.00421-.05206.00366-.07611-.01074-.28552.0965-.63531-.248-.78143a2.72548,2.72548,0,0,0-.72247-.1803c-.05743-.0072-.11493-.02118-.17187-.025-1.13428-.0772-2.27-.14318-3.40619-.17572a.4129.4129,0,0,1-.19788-.044.191.191,0,0,1-.079-.19617c.003-.05774.01105-.11743.015-.17444a.43969.43969,0,0,1,.111-.20166.42615.42615,0,0,0,.05627-.08307c.1947-.4729.37836-.95117.56549-1.42779.12872-.32758.27423-.64691.4104-.97083.15534-.3695.30335-.74267.48114-1.10119.17279-.34888.30976-.72876.48987-1.08307l.01386-.03021a2.322,2.322,0,0,1,.79919-.93622c1.1496-.73932,2.30676-1.46912,3.45172-2.21643.51563-.33649,1.03552-.66693,1.53955-1.02,1.26221-.88422,2.55762-1.70435,3.882-2.48658.83887-.49542,1.65912-1.02233,2.48889-1.53332.58344-.35931,1.17243-.71039,1.75586-1.0697.34082-.20984.6828-.418,1.01251-.64392.98121-.67292,1.91144-1.4209,2.86585-2.13532.70367-.52679,1.41278-1.04681,2.11114-1.579.41034-.31262.8313-.61432,1.24323-.9256a13.07833,13.07833,0,0,0,1.10968-.91809A19.33383,19.33383,0,0,0,76.8182,61.277c.09723-.12616.19861-.24958.28979-.37946a15.66829,15.66829,0,0,0,1.35535-2.41437q.23547-.50784.45215-1.0238c.07257-.17383.1582-.35065.22675-.529a1.72055,1.72055,0,0,0,.10217-.38983c.00415-.031.01349-.06189.015-.093.00678-.13971.00995-.2793.01471-.41895.03406-.99554.03168-1.99066.15277-2.98986A5.08586,5.08586,0,0,0,79.45644,52.51675ZM63.00417,58.848c-.07617.06116-.15631.11743-.23376.17694-.39465.30268-.80048.59131-1.19025.90033-.24627.19519-.47918.40662-.71783.61164-.15546.13348-.32147.25537-.468.39813-.58551.571-1.15784,1.155-1.73492,1.73413-.38471.38605-.777.76453-1.15644,1.15558-1.10626,1.14007-2.20367,2.28937-3.27813,3.45929A33.3059,33.3059,0,0,1,51.683,70.11911c-.93964.811-1.72278,1.86871-2.96082,2.29364a16.58324,16.58324,0,0,1-2.07263.5907c-1.07751.21857-2.16467.40472-3.256.53485a14.234,14.234,0,0,0-1.75275.33362c-.37085.092-.74091.18664-1.1059.309a20.35229,20.35229,0,0,1-2.67382.84711,2.957,2.957,0,0,1-1.449-.3581,5.48444,5.48444,0,0,1-2.41968-1.67419c-.22625-.28851-.46814-.566-.71295-.8407-.33825-.37964-.68683-.75049-1.0484-1.10663-1.701-1.67285-3.37921-3.37384-5.16327-4.9555a24.38293,24.38293,0,0,0-2.23205-1.923,6.1553,6.1553,0,0,0-.85645-.50061c-.07892-.0376-.11505-.16205-.17132-.24634.11236-.01593.26678-.08685.3302-.03869.03924.03.08.0506.12.0755a3.05268,3.05268,0,0,0,1.64594.27038c.07806.002.156.00513.23346.01172.77343.06433,1.5401.20105,2.31085.29889a5.99062,5.99062,0,0,0,.69433.04694c1.15271.00274,2.30555.00592,3.45826.0025.54174-.00147,1.08355-.00092,1.62524-.00879.45587-.00653.91113-.05627,1.36633-.1062.2038-.02222.40753-.04572.61145-.06311a4.71991,4.71991,0,0,0,1.89-.1756.12533.12533,0,0,1,.0559-.00738c.03534-.00049.07221.00189.10871.00244.004.00012.00836.001.01233.00091,1.75866-.059,3.51861-.114,5.27722-.181a3.05927,3.05927,0,0,0,1.12164-.09759.96865.96865,0,0,0,.15192-.06323c.02325-.01435.06195-.01.09033-.01917a.88248.88248,0,0,1,.5221.01379,2.98869,2.98869,0,0,0,.34838.07721,6.96469,6.96469,0,0,0,1.82532.09c.26337-.0108.52649-.01837.78858-.00769a9.82412,9.82412,0,0,1,1.83368.31238,2.27732,2.27732,0,0,0,.39636.04059c.1167.00561.23236.01336.35028.0122.10168-.00091.20361-.00171.30426-.00055.68359.00672,1.36719-.01068,2.05084.00537a1.47259,1.47259,0,0,0,1.008-.33624,1.52774,1.52774,0,0,0,.22046-.19977c.03393-.04089.05938-.09576.09075-.14087a2.19348,2.19348,0,0,0,.17273-.26818A2.92965,2.92965,0,0,0,55.1896,61.69c.00049-.02435.00891-.04852.01062-.07287a8.46206,8.46206,0,0,1,.15692-.8349c.074-.42005.12085-.84876.191-1.27a5.63771,5.63771,0,0,1,.18353-.80628c.0871-.26983.16236-.54223.23535-.81512.23261-.868.41083-1.7478.60236-2.62348.0329-.15014.06445-.30059.09888-.45037.3728-1.62268,1.02789-3.16956,1.33514-4.79444.27045-1.43011.71594-2.80084,1.06281-4.20306.19592-.79236.27429-1.61438.39544-2.4245a22.75144,22.75144,0,0,1,.38636-2.52033A4.39553,4.39553,0,0,1,60.6564,39.609a5.54037,5.54037,0,0,0,.70446-1.411c.03363-.09491.06879-.18927.09967-.28546q.07911-.24629.15119-.49628c.10333-.36139.239-.71356.37408-1.0658.05225-.136.10511-.272.15515-.40869.02814-.07776.059-.15417.08844-.23053l.01081.028a1.15355,1.15355,0,0,1,.07708.20123c.12915.60346.25623,1.20734.38532,1.81079.05212.244.09991.4884.15546.73187.13006.567.29357,1.126.44232,1.68891a9.73331,9.73331,0,0,0,.72253,2.5039c.70105,2.49451,1.78137,4.8523,2.64728,7.28785a9.878,9.878,0,0,1,.39709,1.73834c.03528.21551.07032.43127.10956.64673.02173.11926.02045.23858.03253.35833a13.87469,13.87469,0,0,1,.04792,1.389,2.49809,2.49809,0,0,1-1.2948,2.39936A23.54723,23.54723,0,0,0,63.00417,58.848ZM22.737,62.5723a.30063.30063,0,0,1-.07355-.03839c-.18707-.17109-.383-.33118-.57531-.49585-1.24207-1.06476-2.57331-2.01917-3.82819-3.06269a16.37621,16.37621,0,0,1-1.45264-1.40173c-.62506-.66687-1.22564-1.36285-1.84954-2.02966-.14276-.15253-.27741-.3125-.41321-.47144-.24005-.28113-.478-.56457-.728-.83691a.77824.77824,0,0,1-.23456-.92487.525.525,0,0,0,.02558-.22223c-.0033-.10223-.01514-.20813-.01557-.3089a13.0322,13.0322,0,0,1,.09418-1.53509,19.17376,19.17376,0,0,1,.35968-2.07428c.01465-.06433.02631-.12842.04144-.19281.03437-.1463.06421-.29413.096-.44135.04358-.20221.088-.40417.12915-.60724.15662-.772.30737-1.547.53668-2.30157.11585-.381.257-.75427.3985-1.12756.1416-.37311.28339-.7461.4-1.12677.17988-.58905.40815-1.16388.5821-1.75483a5.85665,5.85665,0,0,0,.22393-1.03674,2.56818,2.56818,0,0,1,.17426-.55066,1.89478,1.89478,0,0,1,.09888-.204c.0119.03522.02069.07025.034.105a.55986.55986,0,0,1,.04206.13037A7.28535,7.28535,0,0,0,19.083,44.8475a50.35268,50.35268,0,0,0,1.25861,5.05591,1.7874,1.7874,0,0,1,.15533.6745c.01917.24994.02069.50916.05762.75226.3363,2.21387.85608,4.38794,1.34448,6.57153.06091.27246.12738.544.19489.81537.22229.89447.46191,1.787.60278,2.69916.00928.0603.02454.11969.03534.17981.04352.2431.09216.48547.14245.72742.02314.1112.05848.21991.08844.32971l.00177.00647c-.03021-.01209-.06311-.0213-.09545-.03107A.93161.93161,0,0,1,22.737,62.5723Z" style="fill:#fff"/><path id="fill2" d="M79.3183,50.52405c-.11391-1.30016-.16486-2.60706-.4048-3.89387-.13669-.74125-.30693-1.47579-.47985-2.21033-.185-.78415-.39544-1.5616-.58443-2.34438-.23055-.94768-.43966-1.89935-.67826-2.843-.2989-1.1836-.65813-2.35243-.9195-3.54407-.2815-1.27873-.53482-2.56151-.89676-3.8242-.45707-1.5991-.89941-3.20356-1.30153-4.82011a50.32362,50.32362,0,0,1-1.22646-5.20482,3.587,3.587,0,0,0-.65012-1.32834,2.22171,2.22171,0,0,1-.449-.8029,4.99017,4.99017,0,0,0-.48659-1.13264,18.59947,18.59947,0,0,0-1.54546-3.00787,13.9484,13.9484,0,0,0-2.9583-2.709,10.54941,10.54941,0,0,0-4.166-1.56291c-1.19832-.26808-2.3953-.58305-3.58963-.85516a28.31856,28.31856,0,0,1-4.46491-1.6943,14.85817,14.85817,0,0,1-1.50927-.878,17.595,17.595,0,0,1-2.09508-1.17555,4.90849,4.90849,0,0,1-2.14466-4.00244A8.84453,8.84453,0,0,0,48.36153.61926c-.11525-.4839-.43965-.55361-.90075-.29757-.09919.05629-.23859.15682-.311.126a6.952,6.952,0,0,0-3.032-.43161,52.64056,52.64056,0,0,0-6.35357.16219c-.66484.09919-.84175.1595-.96643.82169a9.60555,9.60555,0,0,1-.20508,1.2546,26.328,26.328,0,0,1-1.7412,4.27727,3.70986,3.70986,0,0,1-1.97576,1.86584c-.6702.25064-1.3498.47582-2.03473.68762-1.02946.319-2.06422.61794-3.09771.92222-1.43289.42221-2.89526.73186-4.30538,1.23988-1.29754.46646-2.63258.82434-3.93948,1.264a16.79409,16.79409,0,0,0-4.82816,2.13392,7.308,7.308,0,0,0-1.71171,1.256,3.9978,3.9978,0,0,1-.8297.98253,5.90343,5.90343,0,0,0-1.62591,1.8216,45.91428,45.91428,0,0,0-2.64731,4.52522,24.20446,24.20446,0,0,0-1.58437,4.07618c-.40212,1.34846-.83239,2.68887-1.24525,4.03465a14.25417,14.25417,0,0,0-.68761,2.38459c-.12334,1.01336-.49863,1.94628-.71177,2.92744-.2185,1.004-.49863,1.99454-.74259,2.9918-.244,1.00128-.47585,2.00528-.71579,3.00653a15.28419,15.28419,0,0,0-.5147,2.1889,37.29809,37.29809,0,0,1-.86053,3.75584,34.78631,34.78631,0,0,0-.72921,3.969,15.05282,15.05282,0,0,0,.114,3.7652,12.1703,12.1703,0,0,0,1.638,4.50379,5.909,5.909,0,0,0,.71579.949A21.27559,21.27559,0,0,0,4.5489,63.71773c.9034.7064,1.9436,1.23854,2.83764,1.95564,1.378,1.10315,2.68082,2.30016,4.01721,3.45561a9.13932,9.13932,0,0,0,1.19429.99995c1.63932.98518,3.28535,1.96234,4.96757,2.87249,1.10986.60184,2.29211,1.07232,3.43012,1.62456.54687.26409,1.04952.62465,1.60447.86858,1.15676.508,2.35776.91819,3.49979,1.457a13.05951,13.05951,0,0,1,4.49977,3.15265c.16084.1863.44368.26674.60721.453a15.08967,15.08967,0,0,1,1.29217,1.60581c.382.58041.30693.71042-.35925.65414a5.59037,5.59037,0,0,0-2.3484.38337c-.65813.23457-.89136.71978-.4343,1.35245a1.80851,1.80851,0,0,0,.90478.58041c.512.1595.81632.33108.85386.96643a1.63882,1.63882,0,0,0,.85382,1.37258,4.75767,4.75767,0,0,1,1.004.575,14.74286,14.74286,0,0,1,1.08574,1.2372,1.11559,1.11559,0,0,0,.66082.35254,4.78017,4.78017,0,0,0,2.45161-.00406,1.70962,1.70962,0,0,1,.91682.12334c.83776.27211,1.65811.5938,2.49318.87395a12.89108,12.89108,0,0,0,5.23028.94768,2.02816,2.02816,0,0,1,.53348.00534,1.39138,1.39138,0,0,0,1.40076-.35251,1.42409,1.42409,0,0,1,1.77869-.41957,1.5076,1.5076,0,0,0,2.06694-.80556.58281.58281,0,0,1,.66618-.39276,3.30311,3.30311,0,0,0,1.67283-.26942l.01606-.008a1.514,1.514,0,0,0,.9343-.93027,2.17906,2.17906,0,0,0,.0697-1.45969.873.873,0,0,0,.24125-1.34175c-.02948-.04022-.01073-.114-.012-.17292-.01074-.28553.0965-.63536-.248-.78147a2.81153,2.81153,0,0,0-.894-.20509c-1.134-.07772-2.27065-.1434-3.406-.1756-.36861-.0107-.27476-.23588-.26271-.41551.00671-.09785.12468-.18231.16755-.28415.48122-1.16886.89672-2.36987,1.457-3.49982a4.36778,4.36778,0,0,1,1.30287-2.0495c1.66747-1.07232,3.36844-2.09907,4.99169-3.23707,1.26132-.88335,2.55751-1.70369,3.88182-2.48647.8391-.49461,1.65942-1.02141,2.48916-1.53342.92352-.56837,1.87389-1.10048,2.76793-1.713.98119-.67289,1.91143-1.42085,2.86581-2.13527.70372-.5268,1.4128-1.04686,2.11115-1.579a27.93808,27.93808,0,0,0,2.35239-1.84437A17.50119,17.50119,0,0,0,77.108,60.8975a18.06753,18.06753,0,0,0,1.80687-3.43814,3.20078,3.20078,0,0,0,.34449-1.012c.05495-1.13533.02949-2.26931.16756-3.40866A12.30926,12.30926,0,0,0,79.3183,50.52405ZM43.394,73.53892a14.2401,14.2401,0,0,0-2.85911.64206,20.3389,20.3389,0,0,1-2.67408.84712,2.961,2.961,0,0,1-1.449-.35788,5.48925,5.48925,0,0,1-2.41945-1.67417,20.52778,20.52778,0,0,0-1.76128-1.94762c-1.701-1.67283-3.3792-3.3738-5.16326-4.95549a13.87605,13.87605,0,0,0-3.08832-2.42348c-.07909-.03753-.11529-.16218-.17157-.24661.1126-.0161.26674-.08715.32973-.03888.61124.46646,1.32029.30025,1.99989.35788.77341.06434,1.54013.20106,2.31086.29891a5.9957,5.9957,0,0,0,.69436.04693c1.69426.004,3.38853.01875,5.08282-.00671.66082-.00939,1.319-.11258,1.97845-.16889a4.72012,4.72012,0,0,0,1.89-.17561c.04693-.02546.11663-.00265.17694-.004,1.75864-.059,3.51858-.11392,5.27721-.18094a2.33876,2.33876,0,0,0,1.27339-.16084.81792.81792,0,0,1,.61258-.00537,9.81926,9.81926,0,0,0,2.96229.1595,9.82013,9.82013,0,0,1,1.83367.31233,5.06847,5.06847,0,0,0,1.05089.05226c.68359.00671,1.36721-.0107,2.05084.00537a1.52866,1.52866,0,0,0,1.49186-.945,2.93156,2.93156,0,0,0,.36593-1.28006,6.19446,6.19446,0,0,1,.16755-.90746,15.65238,15.65238,0,0,1,.374-2.07633c.41285-1.2747.63938-2.591.93694-3.8885.37264-1.62325,1.02812-3.17009,1.33505-4.79465.27076-1.43024.71579-2.80148,1.06293-4.20354.19573-.79217.27483-1.61386.39545-2.42481a22.8048,22.8048,0,0,1,.386-2.51995,4.40868,4.40868,0,0,1,.80827-1.26537,6.85578,6.85578,0,0,0,.95573-2.19289c.1434-.50132.34983-.98388.52946-1.47446.02814-.07775.059-.15416.08845-.23054a1.64916,1.64916,0,0,1,.08849.2292c.18094.84712.34715,1.697.54016,2.54276.13.567.29357,1.12593.44234,1.68889a9.73617,9.73617,0,0,0,.7225,2.50391c.701,2.49449,1.78138,4.85228,2.64731,7.2878a14.98329,14.98329,0,0,1,.50668,2.38459,9.70157,9.70157,0,0,1,.0804,1.7479,2.49811,2.49811,0,0,1-1.29482,2.39936A23.54606,23.54606,0,0,0,63.00418,58.848c-.46378.37264-.957.70774-1.4235,1.0777A14.96,14.96,0,0,0,60.3944,60.935c-.97582.95167-1.94225,1.91143-2.89127,2.88993-1.10584,1.13935-2.20363,2.2894-3.27864,3.45958a33.33925,33.33925,0,0,1-2.54141,2.835c-.93963.811-1.72244,1.86853-2.961,2.29346a16.73684,16.73684,0,0,1-2.07227.59111C45.57213,73.22257,44.48508,73.40756,43.394,73.53892Zm-28.4368-17.995c-.39407-.42221-.7493-.882-1.14069-1.30824a.77832.77832,0,0,1-.23457-.9249,1.43081,1.43081,0,0,0,.00939-.5308,16.26114,16.26114,0,0,1,.49595-3.80273c.26137-1.1112.42758-2.25189.76134-3.34968.23189-.76269.56565-1.49324.79888-2.25458a15.05137,15.05137,0,0,0,.80559-2.79208,2.5912,2.5912,0,0,1,.17426-.54955,2.05666,2.05666,0,0,1,.09919-.20509,1.21066,1.21066,0,0,1,.07641.23591,7.28521,7.28521,0,0,0,2.28,4.78526,50.36927,50.36927,0,0,0,1.25863,5.056,4.86851,4.86851,0,0,1,.21314,1.42621c.33644,2.21436.85651,4.38847,1.34444,6.572.26137,1.17018.61391,2.32563.79753,3.51459.0469.30427.11529.60587.17826.90746.0228.11257.059.22384.08982.33641a1.03574,1.03574,0,0,1-.30159-.126c-1.39535-1.27742-2.95427-2.35377-4.40326-3.55876A38.46738,38.46738,0,0,1,14.95717,55.54391Z" style="fill:#e5bba3"/><path id="fill1" d="M79.31834,50.52408c-.11415-1.30058-.16507-2.60689-.40422-3.894-.13771-.74086-.308-1.47609-.48089-2.20978-.18473-.78409-.3946-1.56222-.5846-2.34513-.22979-.94686-.43887-1.89883-.67763-2.84336-.299-1.18307-.65754-2.35237-.91954-3.54316-.28147-1.27921-.535-2.56245-.89627-3.82419-.45805-1.59989-.90013-3.2036-1.302-4.82073A50.36369,50.36369,0,0,1,72.82631,21.839a3.56682,3.56682,0,0,0-.64991-1.32765,2.256,2.256,0,0,1-.449-.80287,4.97076,4.97076,0,0,0-.48626-1.13281,18.626,18.626,0,0,0-1.54569-3.00774,13.94259,13.94259,0,0,0-2.958-2.70981,10.55771,10.55771,0,0,0-4.16623-1.56271c-1.19859-.26736-2.39494-.58244-3.58973-.85546a28.29566,28.29566,0,0,1-4.46416-1.69342,14.93,14.93,0,0,1-1.51058-.87823,17.71469,17.71469,0,0,1-2.095-1.17535,4.91273,4.91273,0,0,1-2.14446-4.0032A8.80293,8.80293,0,0,0,48.36163.6189C48.24634.13549,47.922.0651,47.46029.32231c-.09912.05524-.23794.15613-.31033.12478A6.95844,6.95844,0,0,0,44.11719.0165a52.542,52.542,0,0,0-6.35344.16143c-.66415.09978-.84175.1594-.96581.82185a9.55837,9.55837,0,0,1-.20557,1.25487,26.42534,26.42534,0,0,1-1.74031,4.27776,3.7138,3.7138,0,0,1-1.9757,1.86493c-.67024.25113-1.351.47667-2.03486.68853-1.02933.31887-2.065.61755-3.09882.92176-1.43233.42146-2.89448.73182-4.30512,1.23919-1.29682.46643-2.63209.8249-3.93906,1.26472a16.77189,16.77189,0,0,0-4.8278,2.13431,7.26107,7.26107,0,0,0-1.71144,1.25608,4.00985,4.00985,0,0,1-.83.9824A5.91133,5.91133,0,0,0,10.5026,18.705a46.10507,46.10507,0,0,0-2.64633,4.52585,24.21254,24.21254,0,0,0-1.58555,4.07559c-.401,1.34915-.83209,2.68936-1.24511,4.03494A14.32155,14.32155,0,0,0,4.33878,33.726c-.12387,1.01359-.49909,1.94647-.71213,2.92724-.21808,1.00393-.49853,1.99419-.74243,2.99269-.24439,1.00046-.47549,2.0042-.716,3.00561a15.22631,15.22631,0,0,0-.514,2.18962,37.62276,37.62276,0,0,1-.86112,3.75551,34.58688,34.58688,0,0,0-.729,3.96838,15.04658,15.04658,0,0,0,.1132,3.766,12.18207,12.18207,0,0,0,1.63817,4.503A5.93063,5.93063,0,0,0,2.532,61.784,21.13936,21.13936,0,0,0,4.5488,63.71721c.90305.70679,1.94334,1.23965,2.83751,1.956,1.37785,1.10384,2.68118,2.30059,4.0177,3.4561a9.22229,9.22229,0,0,0,1.19423.99922c1.63915.98554,3.28554,1.96258,4.967,2.873,1.11085.60139,2.29192,1.07184,3.43042,1.62391.5467.26507,1.04916.6253,1.60394.86887,1.15718.508,2.35884.91849,3.50025,1.45793a13.05845,13.05845,0,0,1,4.49983,3.15167c.16068.18685.444.26759.60682.4533a15.09028,15.09028,0,0,1,1.29286,1.606c.382.58014.30709.70993-.36017.65436a5.56088,5.56088,0,0,0-2.34719.38354c-.65816.234-.89218.71971-.4354,1.35173a1.81851,1.81851,0,0,0,.90491.581c.51266.15881.81713.33059.85441.96627a1.63723,1.63723,0,0,0,.85314,1.37231,4.799,4.799,0,0,1,1.005.575A15.14863,15.14863,0,0,1,34.06,89.28446a1.11586,1.11586,0,0,0,.66055.35339,4.78188,4.78188,0,0,0,2.45129-.00484,1.70112,1.70112,0,0,1,.917.124c.83723.272,1.65836.59311,2.49317.87291a12.90174,12.90174,0,0,0,5.23035.94882,1.9677,1.9677,0,0,1,.53335.00511,1.39234,1.39234,0,0,0,1.40086-.35333,1.42451,1.42451,0,0,1,1.7781-.41976,1.50773,1.50773,0,0,0,2.0673-.805.583.583,0,0,1,.666-.39279,3.29783,3.29783,0,0,0,1.673-.26939l.01656-.0073a1.51847,1.51847,0,0,0,.9342-.93083,2.18077,2.18077,0,0,0,.06954-1.4594.8727.8727,0,0,0,.24053-1.34221c-.0286-.03985-.00992-.11414-.01211-.17242-.0107-.28559.09654-.63545-.24789-.78137a2.81849,2.81849,0,0,0-.89385-.20578c-1.13428-.0772-2.27-.1432-3.4062-.17573-.36825-.01057-.27433-.2349-.26193-.41459.00678-.098.12491-.183.16677-.28464.48141-1.16893.89787-2.36961,1.45724-3.49966a4.37268,4.37268,0,0,1,1.30316-2.05015c1.66806-1.07246,3.36834-2.09907,4.9913-3.236,1.2622-.88423,2.55764-1.70435,3.882-2.48657.83884-.49545,1.65912-1.02239,2.48886-1.53335.92411-.56909,1.87392-1.10054,2.7679-1.71354.98188-.67322,1.91234-1.42138,2.86611-2.13569.70352-.52687,1.4125-1.04661,2.11177-1.57911a28.22451,28.22451,0,0,0,2.35249-1.84332,17.47035,17.47035,0,0,0,2.3503-2.59443,18.11672,18.11672,0,0,0,1.80775-3.43811,3.22532,3.22532,0,0,0,.344-1.01182c.05491-1.13588.02877-2.27012.16713-3.409A12.25009,12.25009,0,0,0,79.31834,50.52408ZM30.35419,84.25487c-.06437-.02441-.109-.10066-.16287-.15289.06882-.06676.12779-.17491.2079-.19393a9.43787,9.43787,0,0,1,2.50856-.36357c.38549.01342,1.06136.72656,1.02042,1.10512-.00612.05661-.21408.15937-.24455.13512-.44938-.35775-.96617-.07864-1.4397-.16909A4.40086,4.40086,0,0,1,30.35419,84.25487Zm1.77621,2.19054c-.14085-.237-.43541-.50854-.1542-.8481a10.1194,10.1194,0,0,1,2.13585.11042.6557.6557,0,0,1,.59955.46135,5.89214,5.89214,0,0,0,.46394.86819c.01957.04169-.14179.16834-.21938.25565-.37745-.34361-.839-.09935-1.2533-.18051C33.13116,87.00039,32.47777,87.02994,32.1304,86.44541Zm4.29039,2.52505a9.96956,9.96956,0,0,0-1.31888-.23686,1.68651,1.68651,0,0,1-1.16235-.63748c.38543-.08924.69327-.03679.97559-.09936.75843-.1682,1.11867.46656,1.643.7658.04637.02647.03537.15338.05105.23365C36.54639,88.98777,36.483,88.98211,36.42079,88.97046ZM78.34912,55.33663a12.34433,12.34433,0,0,1-.45553,2.22084,15.594,15.594,0,0,1-3.30174,4.87365c-.20832.18961-.45772.3333-.67973.50884-.8747.69144-1.73968,1.39539-2.62041,2.079-.98776.76678-2.029,1.46978-2.97514,2.284-1.758,1.51287-3.8831,2.44252-5.77647,3.73793-.77574.53074-1.64655.92075-2.43669,1.43247Q56.68581,74.68674,53.306,76.958a4.13909,4.13909,0,0,0-1.31086,1.22335c-.51679.90023-.84875,1.90515-1.2815,2.85557-.39912.87654-.87919,1.72-1.21976,2.6174a.50559.50559,0,0,1-.52893.34358c-.25686.015-.51823-.18234-.78729-.21768-.86512-.11359-1.35854-.79964-1.9615-1.28625a10.92563,10.92563,0,0,0-2.17257-1.66056,1.34637,1.34637,0,0,1-.83386-1.5058,4.59907,4.59907,0,0,0,.00795-1.0686,1.49113,1.49113,0,0,0-.78006-1.43273c-.96247-.34106-1.70353-1.23418-2.83437-1.14334-.03845.00311-.12285-.11895-.12026-.17989.00249-.05815.10311-.16837.13954-.16032.52346.11565.914-.24867,1.3711-.36511a17.23237,17.23237,0,0,1,2.80943-.569c1.10355-.09392,2.17555-.51675,3.279-.66375a7.71464,7.71464,0,0,0,4.50533-2.2556c1.4521-1.443,2.77726-3.01278,4.18345-4.503,1.53977-1.63182,3.10837-3.23645,4.6665-4.8509a9.72525,9.72525,0,0,1,.88713-.8785c1.04625-.83543,2.121-1.63516,3.16787-2.46978q1.51581-1.20838,2.99383-2.46382c.21484-.18152.48587-.42195.52219-.66625a20.74049,20.74049,0,0,0,.18922-2.42183c.01-.33023-.15672-.66412-.158-.99664a8.92026,8.92026,0,0,0-.72331-3.18442c-.47435-1.23131-.95884-2.45875-1.4254-3.693-.43937-1.16219-.78991-2.35282-1.157-3.53959-.36907-1.19324-.7221-2.3826-1.00511-3.59973a13.24592,13.24592,0,0,1-.36992-1.90112,10.51417,10.51417,0,0,0-.37568-1.98267,5.89575,5.89575,0,0,1-.14779-1.9398c.02919-.62566-.12743-1.25752-.1542-1.88868-.07461-1.75949-.11682-3.52038-.19026-5.27993a5.41986,5.41986,0,0,0-.17819-.99575,1.11786,1.11786,0,0,0-.19-.30375,1.14178,1.14178,0,0,0-.15486.33824c-.07978.8661-.03141,1.73082-.14039,2.60817a14.03737,14.03737,0,0,0,.01509,4.08924,7.16038,7.16038,0,0,1-.09948,2.62119,30.03225,30.03225,0,0,1-1.18481,3.96275,7.86577,7.86577,0,0,1-2.36,3.48265,17.46659,17.46659,0,0,1-3.129,2.37959c-.61064.32754-1.17574.74972-1.80608,1.028-.57662.25463-1.22051.35208-1.82186.55661a13.63555,13.63555,0,0,1-2.72546.5254,8.9639,8.9639,0,0,1-4.83274-1.03672,5.844,5.844,0,0,1-2.63291-2.62179c-.17845-.31445-.38923-.61074-.56405-.92706Q39.80407,39.3397,38.942,37.732a.54269.54269,0,0,1-.004-.265c.033-.47183.03669-.94856.11-1.4142a26.08989,26.08989,0,0,0,.43331-3.65969,9.16823,9.16823,0,0,1,.1849-1.886,14.64468,14.64468,0,0,0,.35078-2.8002,34.78016,34.78016,0,0,1,.13073-3.94777,35.45184,35.45184,0,0,1,.38373-3.5389c.02736-.11031-.11421-.26258-.1773-.39534-.11539.11538-.28827.21228-.33278.35048a5.95413,5.95413,0,0,0-.07235.68594c-.21154,1.10048-.514,2.19005-.63467,3.29972-.1451,1.33439-.13987,2.68517-.19785,4.029-.00642.14844.047.31907-.00891.44251a7.76424,7.76424,0,0,0-.3294,2.00086c-.14108.824-.04484,1.694-.22954,2.50349-.13292.58266.008,1.187-.17318,1.709-.33107.954-.22743,1.9634-.51145,2.91a11.02,11.02,0,0,1-.846,2.58785A13.20923,13.20923,0,0,1,33.47,44.4925a9.95282,9.95282,0,0,1-3.7451,1.95492,8.12342,8.12342,0,0,1-1.02318.314,14.36566,14.36566,0,0,1-3.02829-.11575,16.86251,16.86251,0,0,1-3.47195-.90929A7.29574,7.29574,0,0,1,18.97468,43.256a8.03562,8.03562,0,0,1-1.43774-4.65315,17.768,17.768,0,0,1,.29446-4.41223c.31635-1.47458.776-2.91163,1.04831-4.39344a9.92754,9.92754,0,0,0,.41946-2.67977,8.11328,8.11328,0,0,0-.179-1.08545c-.078-.34165.21-.60921.08568-1.00194-.1578-.49853-.07936-.56293-.32447-.56369-.39208-.00121-.47916.2368-.47369.57822.01145.71373-.00013,1.42782.00435,2.14171a9.44808,9.44808,0,0,1-.53633,2.99082c-.19523.87942-.38334,1.67143-.58728,2.45934a18.25394,18.25394,0,0,0-.68208,3.82966,9.59479,9.59479,0,0,1-.60083,3.16544,9.12633,9.12633,0,0,0-.7746,1.9903c-.15289,1.12783-.8,2.06287-1.021,3.1621-.15633.77774-.48636,1.52092-.653,2.31826a19.68876,19.68876,0,0,1-.40749,1.96746,17.81225,17.81225,0,0,0-.42418,3.29555,8.98127,8.98127,0,0,0,.15652,1.975.60417.60417,0,0,0,.11117.3082c.58227.71337,1.1456,1.44536,1.77032,2.12018.74714.80706,1.5165,1.59989,2.33609,2.33185.91892.8206,1.90721,1.56326,2.86075,2.34545q1.06794.876,2.12351,1.76718a11.46382,11.46382,0,0,0,1.38734,1.18284,24.88559,24.88559,0,0,1,3.84373,3.18792c1.582,1.44019,3.0479,3.00827,4.55638,4.52863.17806.17943.29.42385.46558.60643a18.66434,18.66434,0,0,0,1.88783,1.88292,12.21906,12.21906,0,0,0,4.05023,1.62279A8.38313,8.38313,0,0,1,42.02253,77.753a1.01143,1.01143,0,0,1,.45213,1.21655,1.75342,1.75342,0,0,0,.04451,1.55309,2.21074,2.21074,0,0,0,1.08731,1.09268,6.48989,6.48989,0,0,1,1.9164,1.43073,6.85118,6.85118,0,0,0,2.276,1.59194c1.44375.57392,2.98549.32567,4.44289.69154.60512-.45066,1.21039.14719,1.81535-.00017a.56358.56358,0,0,1,.68218.41014c.02179.20067-.25853.52828-.4858.64442-.7101.36279-1.42982.81227-2.287.38-.09487-.04781-.23546.00223-.35359-.00789-.65977-.05651-1.32153-.09935-1.97773-.18437a3.19616,3.19616,0,0,1-1.04716-.26487c-1.17411-.607-2.5137-.65414-3.72187-1.143-.2618-.1059-.6634-.063-.72119.28372-.02834.16994.26736.40468.43878.58935.0413.0445.17818-.01529.25951.01.73722.22953,1.46633.48678,2.20843.69871a16.17234,16.17234,0,0,0,4.80185.90458,1.03345,1.03345,0,0,1,.3551.00481,2.35287,2.35287,0,0,0,1.944-.25924,1.4928,1.4928,0,0,1-.09258.67027.22244.22244,0,0,0-.01247.04156c-.00939.01-.02222.02461-.04.04624-.06519.07926-.08669.12546-.15237.20423-.026.03116-.14016.12645-.12373.12573-.06205.02994-.13136.05138-.19115.08352a.43079.43079,0,0,0-.16133.14434,7.45049,7.45049,0,0,1-2.1242-.15979c-1.67316-.49434-3.36173-.937-5.04618-1.39254A10.98468,10.98468,0,0,0,43.504,86.573c-.25044-.00357-.31187.096-.28274.31056.02415.178-.08073.34655.26239.42961,1.26262.30578,2.49379.74377,3.759,1.03594a17.70566,17.70566,0,0,0,3.464.91773,1.55953,1.55953,0,0,1,.52347.23438,2.93954,2.93954,0,0,1-.48152.4569c-.10848.06611-.29033.00714-.43884.01286a12.82259,12.82259,0,0,1-3.49119-.6329,23.02244,23.02244,0,0,1-4.07139-1.14694.5.5,0,0,0-.35127.00193.92124.92124,0,0,0-.40788.275c-.03626.0505.08066.27725.18113.3463a3.614,3.614,0,0,0,.79917.4336,10.76961,10.76961,0,0,0,1.20189.33023c1.08528.25509,2.17352.49778,3.25877.753a.98517.98517,0,0,1,.25414.152c-.06944.067-.12772.17-.21.1955a6.96022,6.96022,0,0,1-3.83793-.07791,28.04087,28.04087,0,0,1-5.31092-1.81934A4.91148,4.91148,0,0,1,36.114,86.85889c-.59709-1.02242-1.09674-2.10176-1.639-3.15622a14.00644,14.00644,0,0,0-2.85057-3.81889,15.52524,15.52524,0,0,0-2.04229-1.98486A29.87,29.87,0,0,0,24.92,75.38284c-1.60728-.658-3.14731-1.44873-4.739-2.132a45.44179,45.44179,0,0,1-5.11581-2.7322,17.44083,17.44083,0,0,1-3.90385-2.86533,23.15648,23.15648,0,0,0-1.81551-1.64318c-.4322-.36638-.89768-.69465-1.35782-1.02674A30.0753,30.0753,0,0,1,3.2312,61.35565a6.256,6.256,0,0,1-1.56163-2.48817,15.59268,15.59268,0,0,1-.76684-4.32894,27.30864,27.30864,0,0,1,.73372-5.50439c.16049-.822.33766-1.64151.53774-2.45469a9.195,9.195,0,0,0,.50252-1.83269,26.328,26.328,0,0,1,.805-3.96959C3.8,38.981,4.41718,37.24008,4.83626,35.459a63.31943,63.31943,0,0,1,1.76115-6.23281,18.44771,18.44771,0,0,0,.7315-2.28174,17.88514,17.88514,0,0,1,1.55391-3.732,18.99418,18.99418,0,0,1,1.14337-2.02479,24.0409,24.0409,0,0,1,1.89775-2.95263,11.74939,11.74939,0,0,1,3.24156-2.87164,18.8421,18.8421,0,0,1,1.97128-1.0574c1.14606-.46574,2.3254-.85134,3.49714-1.25183a41.80042,41.80042,0,0,1,4.31811-1.4125c2.54773-.56964,5.01332-1.39032,7.49508-2.16959a4.89822,4.89822,0,0,0,3.18295-2.43755c.302-.59114.56558-1.19972.831-1.8015a8.04357,8.04357,0,0,0,.89139-2.85083C37.40276,1.39359,38.06269.9076,39.09183.906c1.755-.00275,3.51124-.03871,5.26464.01525a15.9,15.9,0,0,1,2.61481.36207c.24063.04824.39267.12772.53293-.11061.04444-.0755.08453-.15358.12658-.23051.01744.082.04005.16332.05147.24618.1203.87268.19544,1.75429.3679,2.61642a5.5484,5.5484,0,0,0,1.955,3.28777c.68323.5667,1.5437.77794,2.23223,1.30723a6.77355,6.77355,0,0,0,1.24488.87159c1.15025.52236,2.32337.99909,3.50716,1.441a24.57,24.57,0,0,0,2.37916.71863c1.58578.41486,3.17745.80765,4.76978,1.19678a7.44858,7.44858,0,0,1,2.9941,1.59266,7.1315,7.1315,0,0,1,1.91041,1.95577c.68745,1.34584,1.609,2.53464,2.30632,3.86042a12.55614,12.55614,0,0,1,.6075,1.62112,31.91511,31.91511,0,0,1,.67927,3.37142c.4448,1.83615.952,3.65173,1.46045,5.46907q.38111,1.36242.71333,2.73842c.21088.86727.36835,1.748.59389,2.61108.44123,1.68851,1.00223,3.351,1.34575,5.05806A21.56229,21.56229,0,0,1,77.66969,45.26a21.65228,21.65228,0,0,1,.87542,6.32467A10.49782,10.49782,0,0,1,78.34912,55.33663Zm-64.75719-2.557a16.198,16.198,0,0,1,.49529-3.80221c.261-1.11143.42823-2.25255.76183-3.35017.23163-.7621.565-1.49317.79816-2.25488a15.07724,15.07724,0,0,0,.80631-2.791,2.566,2.566,0,0,1,.17423-.55066,1.88658,1.88658,0,0,1,.099-.20424,1.24628,1.24628,0,0,1,.07595.23556,7.28563,7.28563,0,0,0,2.2805,4.78571,50.51165,50.51165,0,0,0,1.25876,5.0557,4.87649,4.87649,0,0,1,.21258,1.4267c.33632,2.21384.85609,4.38792,1.3445,6.57155.2617,1.17008.61389,2.3249.79771,3.51426.04705.30437.115.60567.17776.90746.02356.11342.05972.22423.09015.33621a.9853.9853,0,0,1-.30123-.12573c-1.3962-1.27679-2.95515-2.35291-4.40365-3.55817A38.52441,38.52441,0,0,1,14.9577,55.544c-.39522-.42235-.74992-.88242-1.14164-1.30818a.78.78,0,0,1-.23464-.92545A1.42672,1.42672,0,0,0,13.59193,52.77968Zm8.77628,3.355a12.31107,12.31107,0,0,1-.391-2.42691c-.1004-.608-.23431-1.21046-.3533-1.81538s-.2152-1.21546-.36187-1.81361c-.21687-.88455-.76256-3.06108-1.23553-4.46871a9.18827,9.18827,0,0,0,4.07176,1.72257,22.31765,22.31765,0,0,0,2.70991.34207c2.07325.0614,1.73422.12757,4.43625-.784a12.35939,12.35939,0,0,0,2.64459-1.58414,6.53722,6.53722,0,0,0,.96339-.68019,11.57611,11.57611,0,0,0,1.08319-1.19174A16.55294,16.55294,0,0,0,38.094,40.227a2.06631,2.06631,0,0,0,.32227-1.03374c-.00775-.13882.152-.287.23536-.431a2.25739,2.25739,0,0,0,.10989.36452c.29155.5934.57936,1.18926.89313,1.77094a15.4188,15.4188,0,0,0,1.07962,1.86879,7.79635,7.79635,0,0,0,2.74919,2.5871,10.17669,10.17669,0,0,0,5.8891,1.036,5.47283,5.47283,0,0,0,2.575-.6668,4.18483,4.18483,0,0,1,1.17934-.37441,11.98328,11.98328,0,0,0,4.48815-2.52073c.4891-.45442.99814-.88756,1.504-1.32362a.701.701,0,0,1,.23208-.08237,1.593,1.593,0,0,1-.03632.23572c-.36538,1.1866-.756,2.366-1.0954,3.55991q-.65915,2.31858-1.249,4.65668a29.0866,29.0866,0,0,1-.8784,3.1156,9.56424,9.56424,0,0,0-.53541,2.35989c-.09513.93282-.49732,1.77208-.65591,2.67925-.19347,1.10649-.41142,2.20867-.61182,3.314a4.07532,4.07532,0,0,1-.20908,1.15934,1.08276,1.08276,0,0,1-.80173.49153,9.58583,9.58583,0,0,1-3.53029-.28084,6.0645,6.0645,0,0,0-1.9579-.2208,20.983,20.983,0,0,0-3.29673.02088c-1.20019.156-2.41137-.00452-3.58223.18251-1.264.20188-2.52754-.01486-3.763.17462a11.50477,11.50477,0,0,0-2.62571.31844,1.54428,1.54428,0,0,1-.53181.00871c-.80291,0-1.60584-.004-2.40871.00088a31.86877,31.86877,0,0,1-4.31523-.33857,20.00882,20.00882,0,0,0-2.49544-.02c-.68846-.00236-.86364-.13817-1.00475-.77221-.12121-.545-.192-1.10617-.36639-1.63333C22.93563,59.03045,22.91,57.5312,22.36821,56.13463Zm1.77009,7.24964c.61045.46649,1.31914.30061,1.99867.35729.77342.06456,1.54069.2008,2.31155.29858a5.63592,5.63592,0,0,0,.6937.04738c1.69469.0039,3.38965.01839,5.084-.00608.65989-.00949,1.31832-.11254,1.97769-.16981a4.69563,4.69563,0,0,0,1.89-.1758c.047-.02418.11735-.00144.17672-.00344,1.75929-.0592,3.51871-.11434,5.2777-.18139a2.34121,2.34121,0,0,0,1.27336-.16035.817.817,0,0,1,.61185-.00566,9.76522,9.76522,0,0,0,2.96236.15933,9.93571,9.93571,0,0,1,1.83455.3123,4.9648,4.9648,0,0,0,1.04988.05255c.68375.00661,1.3679-.01,2.05139.00524a1.52808,1.52808,0,0,0,1.492-.9447A2.929,2.929,0,0,0,55.18958,61.69a6.11145,6.11145,0,0,1,.16742-.90759,15.517,15.517,0,0,1,.37473-2.07645c.41158-1.27536.6384-2.591.93659-3.889.37276-1.6227,1.02785-3.16957,1.33514-4.79446.27044-1.43014.71592-2.80085,1.06277-4.20308.196-.79237.2743-1.61435.39545-2.42449a22.76794,22.76794,0,0,1,.38635-2.5203,4.39579,4.39579,0,0,1,.80837-1.2657,6.87721,6.87721,0,0,0,.9553-2.19273c.14327-.501.35016-.98391.529-1.47475.02824-.07742.059-.15393.08858-.23087a1.54714,1.54714,0,0,1,.088.22983c.18126.84718.34823,1.69753.54088,2.54206.12942.56739.2938,1.12682.44254,1.68982a9.73516,9.73516,0,0,0,.72256,2.50319c.7011,2.49439,1.78157,4.85215,2.64705,7.28766a14.98912,14.98912,0,0,1,.50651,2.38564,9.71522,9.71522,0,0,1,.081,1.74764,2.50121,2.50121,0,0,1-1.29512,2.39962,23.4452,23.4452,0,0,0-2.95787,2.35157c-.46407.37261-.95815.70774-1.42461,1.07757a15.22542,15.22542,0,0,0-1.18582,1.01035c-.9754.95118-1.94265,1.91142-2.89137,2.88914-1.10627,1.14007-2.20366,2.2894-3.27815,3.45928A33.305,33.305,0,0,1,51.683,70.11914c-.93966.811-1.72277,1.86872-2.96085,2.29362a16.57951,16.57951,0,0,1-2.07263.59068c-1.07746.21857-2.16465.40475-3.256.53489a14.216,14.216,0,0,0-2.85858.64324,20.441,20.441,0,0,1-2.67379.84646,2.957,2.957,0,0,1-1.44909-.358,5.48453,5.48453,0,0,1-2.41964-1.67424A20.54593,20.54593,0,0,0,32.23116,71.049c-1.70062-1.67358-3.37986-3.37422-5.16372-4.95568a13.88157,13.88157,0,0,0-3.08835-2.4241c-.07841-.03734-.11522-.16209-.17138-.24619C23.92009,63.40724,24.07494,63.3359,24.1383,63.38427Z"/></g></g></svg>