<svg xmlns="http://www.w3.org/2000/svg" width="46.69055" height="37.89551" viewBox="0 0 46.69055 37.89551"><title>bride-upper-gown-1-funny</title><g id="Layer_2" data-name="Layer 2"><g id="bride-upper-gown-1-funny"><path id="void" d="M46.60982,6.19317a23.66059,23.66059,0,0,1-.44568,3.83966,6.37519,6.37519,0,0,1-.40277,1.12982c-.275.57977-.584,1.1463-.91492,1.69885-.04437.30665-.2804,1.23377-.55725,2.23456a30.36232,30.36232,0,0,1-.97546,3.11518c-.69568,1.28418-.7439,2.73315-1.22913,4.06549-.06189.16937-.10693.345-.16284.51654-.28754.884-.52271,1.78686-.81116,2.67145-.46783,1.43438-.97534,2.85687-1.44379,4.29064-.20935.64124-.413,1.28412-.59814,1.93238-.189.65954-.34033,1.32361-.58911,1.95709a5.67648,5.67648,0,0,1-.28632.6225A5.61131,5.61131,0,0,1,37.4015,35.481c-.41656.43274-.8861.53766-1.86883.69183-1.64734.25873-3.29071.51337-4.95416.6474a25.6392,25.6392,0,0,0-3.40729.445,28.06722,28.06722,0,0,1-3.83093.21179c-.21045.01685-.42.04358-.62934.0744-.36285.05365-.72473.12085-1.08685.186-.311.056-.62225.11017-.93512.14844a2.3308,2.3308,0,0,1-.64142-.0376c-.13348-.02149-.26727-.04541-.39947-.0625a1.63761,1.63761,0,0,1-.18683-.04028,2.05856,2.05856,0,0,0-.31378-.062c-1.67951-.15014-3.3631-.27075-5.04126-.44769-.18048-.019-.36005-.04858-.53955-.07873-.38965-.06537-.77808-.14185-1.16687-.20881a7.52982,7.52982,0,0,0-.94489-.11456,6.09718,6.09718,0,0,0-.75189.01965c-.47577.03687-.95307.102-1.43042.14-.11261.009-.22516.02118-.33771.02533a1.99649,1.99649,0,0,1-1.557-.60584,3.117,3.117,0,0,1-.55865-.792,2.6114,2.6114,0,0,1-.13892-.325c-.01349-.03876-.01935-.07886-.03064-.1181a2.01063,2.01063,0,0,1-.05774-.22272c-.0838-.50372-.16906-1.00757-.248-1.51227-.07056-.45038-.13642-.90137-.18634-1.35406-.07221-.66041-.116-1.32544-.16382-1.98945A23.50532,23.50532,0,0,0,5.68288,27.379c-.30249-1.58349-.46943-3.18622-.78864-4.77a45.86136,45.86136,0,0,0-1.36-5.8678c-.0354-.10333-.07409-.21-.11187-.316a1.78113,1.78113,0,0,0-.30884-.59314,5.10428,5.10428,0,0,1-.30756-.4223,10.8319,10.8319,0,0,1-1.414-3.21863,24.11987,24.11987,0,0,1-.946-4.84881C.415,7.02337.40327,6.70617.38356,6.3883.32887,5.51037.29732,4.63433.27394,3.75524l-.00079-.027V3.72814l.00073-.00842A1.19787,1.19787,0,0,0,.273,3.45489c-.00409-.01361.00129-.037-.00775-.04547-.49511-.46552-.19128-.99268.061-1.31574a1.57294,1.57294,0,0,1,.84607-.48541l.00024-.00006a1.31575,1.31575,0,0,1,.31519-.03552c.04632.001.093-.00183.13952-.00263a8.09911,8.09911,0,0,1,1.738-.02148A1.90248,1.90248,0,0,1,3.91109,1.74a.50369.50369,0,0,0,.15789.04651.96364.96364,0,0,0,.17341.01075c.1726-.0033.35943-.03382.52911-.04023a14.37331,14.37331,0,0,1,2.26587.11408,19.3357,19.3357,0,0,1,3.4685.75384q.86967.27293,1.75.49384c.08185.02045.16462.03833.24677.05792.58374.139,1.17236.2608,1.7738.345,1.42487.19971,2.86444.25733,4.27722.45978a14.15158,14.15158,0,0,0,1.51453.12115c.95642.03425,1.90888.00922,2.86395.03772.19513.0058.39.00989.5849.01044a4.714,4.714,0,0,0,1.405-.172,5.01636,5.01636,0,0,1,1.76264.134c.09015.00854.18988.0299.28668.04577a.52216.52216,0,0,0,.34112-.02057c.03308-.0202.068-.0249.10144-.04241a1.842,1.842,0,0,1,.6648-.19751,3.87688,3.87688,0,0,1,.99029.03674c.07514.01105.15223.02081.22541.03186a5.92522,5.92522,0,0,0,1.796-.03113c.04077-.00616.08264-.0061.12335-.01282l.00287-.00055c.62262-.10241,1.23608-.26452,1.86108-.40362.9856-.21942,1.99939-.31629,2.99695-.48029.36145-.05951.721-.127,1.07593-.21362.55322-.1344,1.09875-.30078,1.64551-.46216.418-.12341.8366-.24206,1.25207-.37494q.92-.29453,1.83679-.59851c1.17688-.39,2.31891-.88464,3.49042-1.29077A1.45026,1.45026,0,0,1,45.968.00817a.70056.70056,0,0,1,.64948.66388,1.78793,1.78793,0,0,1,.02588.30152C46.64735,2.71478,46.76668,4.46667,46.60982,6.19317Z" style="fill:#fff"/><path id="fill2" d="M46.64333.97359c-.00268-.82434-.45038-1.15676-1.268-.87526-1.17152.40611-2.31355.90075-3.49044,1.2908-1.5656.5201-3.13388,1.04687-4.73433,1.43557-1.335.32575-2.73041.39545-4.0735.69436a10.05884,10.05884,0,0,1-3.78264.44768,2.811,2.811,0,0,0-1.98246.17157c-.14879.09114-.41554-.00537-.62731-.02546a5.01777,5.01777,0,0,0-1.76265-.134,6.03532,6.03532,0,0,1-1.98916.16219,38.35882,38.35882,0,0,1-4.37913-.15951c-1.41279-.2024-2.85239-.26006-4.27724-.45975A23.38622,23.38622,0,0,1,10.50587,2.625a16.94148,16.94148,0,0,0-5.73428-.86724c-.28952.01074-.63669.10322-.86054-.01741a4.83156,4.83156,0,0,0-2.42346-.16755,1.61174,1.61174,0,0,0-1.1608.52141c-.25333.323-.55627.84983-.06166,1.31495.055.051.00537.21045.00805.319.03217,1.20637.055,2.40469.17291,3.61374a24.12573,24.12573,0,0,0,.94633,4.8496,9.42181,9.42181,0,0,0,1.72109,3.64054,2.66824,2.66824,0,0,1,.42089.9088,45.93363,45.93363,0,0,1,1.36052,5.86832c.319,1.583.48522,3.18616.78816,4.76919.29488,1.54416.30292,3.14057.4745,4.71019.10589.95972.27612,1.91277.43429,2.86581a2.32091,2.32091,0,0,0,.22787.66618,2.20323,2.20323,0,0,0,2.11517,1.398c.84178-.03082,1.68489-.22384,2.52-.185.8887.03885,1.76264.30827,2.65133.40213,1.6782.17691,3.36175.29753,5.04128.44767.1689.01476.33243.08044.5.10187a4.33338,4.33338,0,0,0,1.04149.10053c.88736-.10858,1.76265-.33778,2.65134-.40883a28.06594,28.06594,0,0,0,3.83089-.21179,25.64581,25.64581,0,0,1,3.40733-.445c1.66344-.134,3.30679-.3887,4.95415-.64742,1.5723-.24662,1.831-.36727,2.66072-1.90606a12.526,12.526,0,0,0,.87529-2.57895c.59916-2.09773,1.36453-4.14722,2.04144-6.22352.34449-1.05626.5938-2.146.97448-3.1875.48523-1.33236.53348-2.78135,1.22915-4.06547a46.44316,46.44316,0,0,0,1.53209-5.34957c.33108-.55226.64071-1.11925.91551-1.69963a14.25347,14.25347,0,0,0,.84847-4.96891C46.76665,4.46671,46.64735,2.71481,46.64333.97359Z" style="fill:#fff"/><path id="fill1" d="M46.643.97359C46.64119.14873,46.19288-.18353,45.37537.099c-1.1722.40507-2.3137.9004-3.49037,1.29074-1.56529.51924-3.13447,1.04575-4.73454,1.43544-1.33462.325-2.7301.3946-4.07278.69344a10.0564,10.0564,0,0,1-3.78323.44827,2.80936,2.80936,0,0,0-1.982.17121c-.14881.09088-.41572-.00471-.6273-.02484a5.0036,5.0036,0,0,0-1.7628-.13391,6.01376,6.01376,0,0,1-1.9902.161,38.4338,38.4338,0,0,1-4.37844-.15822c-1.4123-.20244-2.85242-.26046-4.27762-.46015A23.52515,23.52515,0,0,1,10.506,2.62554a16.95736,16.95736,0,0,0-5.73442-.86845c-.28977.01089-.63608.10449-.86044-.01705a4.841,4.841,0,0,0-2.42336-.16732,1.61567,1.61567,0,0,0-1.16147.521c-.25241.32312-.5563.85038-.06084,1.316.05431.051.00479.2099.00772.31861C.30547,4.934.32868,6.13345.44588,7.3423a24.11872,24.11872,0,0,0,.946,4.84878A9.42358,9.42358,0,0,0,3.114,15.83257a2.65539,2.65539,0,0,1,.42014.90864A45.8547,45.8547,0,0,1,4.89425,22.609c.31918,1.58382.48614,3.18652.78861,4.77.29486,1.54356.303,3.14027.47531,4.7095.10541.95985.27513,1.91313.43373,2.8664a2.34788,2.34788,0,0,0,.22734.66576,2.20522,2.20522,0,0,0,2.11551,1.3978c.842-.03076,1.68518-.22318,2.52071-.18551.88771.04,1.76256.309,2.651.40264,1.67766.17672,3.36117.29757,5.04174.44735.16833.015.33163.081.49992.10273a4.32117,4.32117,0,0,0,1.04092.09951c.88751-.10773,1.76269-.33687,2.6516-.4086a28.06218,28.06218,0,0,0,3.8306-.2115,25.70747,25.70747,0,0,1,3.40705-.44555c1.66408-.13362,3.30718-.38818,4.95452-.647,1.572-.247,1.83124-.3673,2.66048-1.90524a12.50914,12.50914,0,0,0,.875-2.57957c.59966-2.0975,1.36528-4.14709,2.04232-6.22306.34458-1.05652.594-2.146.974-3.18861.4851-1.33105.53331-2.78057,1.22892-4.06482a46.53924,46.53924,0,0,0,1.533-5.34976c.33089-.55256.63992-1.11906.91493-1.69888a14.2431,14.2431,0,0,0,.84781-4.96891C46.76638,4.4669,46.64681,2.71468,46.643.97359Zm-3.49081,15.8066c-.30414.31654-.04717.958-.64442,1.08869l-.1248.20178a.60321.60321,0,0,1,.07037-.2562c.08017-.22531.06944-.41266.13775-.56438.37185-.82578.79307-1.63068,1.13374-2.4686a5.1565,5.1565,0,0,1,.45186-.85906C43.77923,15.08517,43.22014,16.70947,43.15218,16.78019ZM45.75532,6.6738a13.99126,13.99126,0,0,1-.63319,3.86441A9.5024,9.5024,0,0,1,43.303,13.7c-.34887.37149-.66844.77463-1.04481,1.1153a7.5006,7.5006,0,0,1-2.70138,1.35107,12.16685,12.16685,0,0,0-1.58527.897c-.41312.22033-.8559.38432-1.27688.59094a8.33384,8.33384,0,0,0-.8787.49938c-.05084.03312-.02291.187-.03136.28517a2.037,2.037,0,0,0,.23023-.06555c1.11475-.45933,2.22713-.92445,3.34342-1.38a7.92946,7.92946,0,0,1,1.41087-.52395,3.06548,3.06548,0,0,0,1.9497-1.08686c.03107-.03976.1476-.0127.22438-.01672a1.29976,1.29976,0,0,1-.00678.43242c-.32.84574-.66466,1.68213-.98909,2.52626-.12042.31334-.20788.63928-.31037.9595a.99141.99141,0,0,1,.16105,1.13048c-.46809,1.72558-.88564,3.47276-1.49042,5.15132-.7072,1.9628-1.34288,3.945-1.96412,5.93422-.24035.76959-.50217,1.5328-.76894,2.29375-.43149,1.23082-.43569,1.23337-1.61139,1.48686-.17281.03727-.37171-.02834-.53637.02372a2.85522,2.85522,0,0,0-.5387.30294,3.22865,3.22865,0,0,1,.08857-.72574c.26-.72558.55859-1.43728.83777-2.15605.41276-1.06277.82446-2.12593,1.22627-3.1928.03076-.08168-.02062-.19428-.03383-.29252-.10263.069-.26044.11519-.29949.21022-.47149,1.14724-.928,2.30069-1.383,3.45463-.29517.74868-.55665,1.51212-.89,2.243a.93016.93016,0,0,1-.59048.34571c-.89378.21663-1.79462.40536-2.69654.586a2.75479,2.75479,0,0,1-.58813-.00713c.00883-.1708-.04858-.39195.03694-.50443.69063-.90863.5444-2.07842.99682-3.07512a19.3653,19.3653,0,0,0,.89045-3.00293,1.29945,1.29945,0,0,0-.08359-.50288c-.114.124-.28651.22924-.333.37476-.52216,1.63553-1.00036,3.28545-1.54443,4.91344a18.59254,18.59254,0,0,1-.90024,2.0205c-.05449.11513-.19845.18788-.30107.28019a1.17417,1.17417,0,0,1-.08537-.39551,8.15374,8.15374,0,0,1,.21685-.99752c.0255-.09186.201-.16051.19989-.23824-.00566-.38746-.04729-.7744-.07626-1.1615-.12829.33134-.24771.66651-.38686.99323q-.335.78658-.69549,1.56216c-.04324.09267-.14915.15616-.22612.23313-.04285-.11421-.12946-.23156-.12161-.34221.05986-.84165.10312-1.687.22291-2.521.0813-.56588.33483-1.10757.41031-1.67358.12092-.90687.161-1.82471.22622-2.73855a.9829.9829,0,0,0-.07366-.2939,2.64858,2.64858,0,0,0-.15141.311,2.29453,2.29453,0,0,0-.19653.67692,18.55921,18.55921,0,0,1-.64262,3.872,12.42637,12.42637,0,0,0-.22859,1.86346c-.0283.43592-.21551.55926-.63414.671a9.90321,9.90321,0,0,1-2.52841.19422,4.68465,4.68465,0,0,0-.86831.01293,3.90007,3.90007,0,0,0-.75993.32175c.07-.25912.15113-.51585.20779-.77787.15147-.70048.29779-1.4022.43047-2.1064.01584-.084-.06543-.18631-.10169-.28013-.03629.09376-.07674.18617-.10825.28153-.22151.67031-.43188,1.34454-.66976,2.009-.04424.12354-.19691.20823-.29953.31085a1.91838,1.91838,0,0,1-.11646-.364c-.15068-1.318-.27767-2.639-.45117-3.95395a3.51236,3.51236,0,0,0-.35595-.85418c-.49531.25735-.03272.59-.04883.88131a12.2736,12.2736,0,0,0,.41065,3.19437c.28919,1.37746-.08436,1.77228-1.47062,1.77628-.54056.00153-.3067-.17253-.28907-.488.06271-1.12128-.0031-2.24908.03331-3.37272.02846-.87843.17107-1.75343.19421-2.63177a6.56839,6.56839,0,0,0-.207-1.32375.88689.88689,0,0,0-.12449-.2349,1.25216,1.25216,0,0,0-.08518.28975c-.01216.25342.004.50808-.00537.7617-.07018,1.89307-.13588,3.7864-.22462,5.67858a3.7981,3.7981,0,0,1-.21566.888c-.02355.07822-.11969.18785-.18667.19089a4.6577,4.6577,0,0,1-1.19091-.01859c-.15394-.03387-.29107-.361-.34442-.57723a4.04079,4.04079,0,0,1-.01883-.7584c-.00244-.05239-.07289-.10164-.112-.15237-.05131.05131-.13081.09428-.14889.15544a1.951,1.951,0,0,0-.157.69128c.06754.67679-.41838.40052-.7147.4503-.50426.08469-.4052-.28945-.37677-.5467.03326-.30084.15568-.59134.19653-.89215.01232-.09071-.10732-.21258-.19253-.29239-.0176-.0165-.18567.07212-.224.14435a2.0921,2.0921,0,0,0-.2195.56031c-.15958.80758-.154.84018-.99945.80156-1.02043-.04656-2.03826-.15135-3.05681-.23588-.1041-.00864-.21006-.08528-.30736-.07225-1.18211.15812-1.40149-.00508-1.51755-1.16233a2.83455,2.83455,0,0,0-.00783-.43363c-.10062-.374-.2292-.74034-.34672-1.10974a7.32806,7.32806,0,0,0-.07309,1.05355c.03494.51672.15161,1.02762.197,1.54422.01188.13528-.111.28241-.17194.42411-.14231-.09444-.36262-.15927-.41183-.289a4.27891,4.27891,0,0,1-.26783-1.08431c-.09674-.98351-.15469-1.97089-.22453-2.957a2.986,2.986,0,0,0-.00648-.43416c-.082-.36236-.18889-.71907-.28588-1.078a5.279,5.279,0,0,0-.13564.95707c.052,1.38577.13366,2.77049.21225,4.15514a3.717,3.717,0,0,0,.09994.51254c-.17465-.10394-.45038-.16962-.50667-.31835a11.1447,11.1447,0,0,1-.66627-2.11458c-.21191-1.30785-.30767-2.63445-.45476-3.95287-.14311-1.28262-.25415-2.57018-.44656-3.84543-.14723-.97592-.40123-1.93561-.60245-2.90362a1.24427,1.24427,0,0,1-.03478-.41907c.18148-1.25591-.5155-2.34516-.666-3.538a2.12633,2.12633,0,0,0-.242-.87375c-.17376-.268-.29449-.47461-.07878-.75427.15394.22465.39874.43137.44716.67681.329,1.668,1.27452,3.17349,1.21592,4.95438A9.28069,9.28069,0,0,0,6.80425,25.172q.32477,1.55233.6558,3.1033a1.1261,1.1261,0,0,0,.12064.24641,1.56293,1.56293,0,0,0,.22806-.23274c.27364-.4263-.05472-.792-.137-1.18-.28249-1.33276-.6787-2.65062-.84147-3.99715a38.92873,38.92873,0,0,0-1.16157-4.533.91334.91334,0,0,1-.01845-.51977c.15155-.36564.32137.00032.473.03534a1.971,1.971,0,0,1,1.5724,1.40439A10.8617,10.8617,0,0,0,8.60434,21.297c.29259.53424.61287,1.05335.92093,1.57914a3.65131,3.65131,0,0,0-.73153-2.26263c-.24684-.43422-.4488-.89394-.67091-1.34218.55755-.24965.94737.19488,1.41249.33442a6.98365,6.98365,0,0,0,.99707.21441,1.16031,1.16031,0,0,0,.39436-.08718c-.09345-.10252-.16757-.24851-.28368-.30021-.55046-.24511-1.12927-.43073-1.66681-.69982a30.0575,30.0575,0,0,1-3.7384-1.98277,6.99237,6.99237,0,0,1-2.77019-3.80456,22.368,22.368,0,0,1-1.126-5.52455c-.043-1.32074-.30853-2.63271-.40363-3.95368-.074-1.028-.01133-1.05.97133-1.05469.9425-.00449,1.8894-.05714,2.82619.016.81626.06371,1.61706.36469,2.43178.40088,2.21825.09847,4.20877,1.07661,6.331,1.52766.749.15921,1.5342.14082,2.29883.23608a16.89552,16.89552,0,0,1,2.97726.42025,2.455,2.455,0,0,0,.75793.00979q4.19623-.10682,8.39243-.216c.77349-.01944,1.53758.08414,2.323.03008a26.85426,26.85426,0,0,0,4.08411-.66514c.53886-.12173,1.09326-.08384,1.65177-.19157,1.53867-.29688,3.01613-.79731,4.50859-1.226,1.57181-.45144,3.07541-1.14213,4.60487-1.73838.60424-.23559.89657-.10024.88115.529-.01792.73255-.16881,1.46137-.196,2.19424C45.746,4.717,45.84672,5.70364,45.75532,6.6738ZM41.3648,20.04593c-.23585.96509-.52946,1.92913-.8157,2.8954-.57137,1.92887-1.35991,3.77612-2.11461,5.636a1.99842,1.99842,0,0,1-.22633.34027,1.03751,1.03751,0,0,1-.04629-.40883c.19984-.60309.42552-1.1977.64516-1.79418q1.19628-3.24869,2.39616-6.49608A.35716.35716,0,0,1,41.3648,20.04593Zm-1.95936.81642c.51377-1.23945.96921-2.42606,1.43645-3.60795a2.46328,2.46328,0,0,1,.3082-.522c.04241-.05858.14806-.07144.22483-.10518.01478.06627.06054.1454.03925.19667-.12818.30886-.29773.6024-.40576.91741a22.21957,22.21957,0,0,1-2.1391,4.76245,5.71829,5.71829,0,0,0-.327.94824c-.02149.05373-.18522.05066-.28325.07383a.74093.74093,0,0,1,.02252-.229C38.63435,22.50183,38.99353,21.7097,39.40544,20.86235ZM10.80769,34.1674c.08639.493.22645.97644.3162,1.46895.011.06054-.13225.16549-.22233.21913-.03077.01832-.15479-.04372-.173-.09262a5.02048,5.02048,0,0,1-.41377-1.2296c-.12-1.33436-.17105-2.675-.23894-4.0137-.0035-.06925.08405-.14311.1292-.21481a.79268.79268,0,0,1,.07989.18261c.07688.474.14749.94892.22006,1.53243C10.60427,32.8085,10.68915,33.49091,10.80769,34.1674ZM8.75629,23.85776c.02274.08528-.04421.19445-.06982.29256a1.52709,1.52709,0,0,1-.13931-.20457c-.80027-1.69835-1.59808-3.39788-2.39634-5.206a.43156.43156,0,0,1,.42439.15106C7.19128,20.12025,7.796,21.356,8.37116,22.605A7.74187,7.74187,0,0,1,8.75629,23.85776Zm29.60555-3.6164a3.5677,3.5677,0,0,1-.48612.67541,5.45132,5.45132,0,0,1,.08939-.78107,3.89259,3.89259,0,0,1,.3518-.79731A2.45473,2.45473,0,0,1,39.296,17.5057c.12061-.086.33339-.04268.50367-.059-.064.12779-.09677.29262-.19713.37741A5.52191,5.52191,0,0,0,38.36184,20.24136Zm-29.76928,9.544a1.09588,1.09588,0,0,1,.02117.27506c-.09353-.03453-.25477-.051-.26958-.10656a5.32335,5.32335,0,0,1-.17955-1.14523A4.73791,4.73791,0,0,1,8.59256,29.78537Zm32.88109-9.73944a1.38082,1.38082,0,0,1,.10885-.65309A1.38016,1.38016,0,0,1,41.47365,20.04593Zm-31.63777,2.955a.30451.30451,0,0,1-.20176-.07036A.30486.30486,0,0,1,9.83588,23.00089Z"/></g></g></svg>