<svg xmlns="http://www.w3.org/2000/svg" width="46.82828" height="59.06711" viewBox="0 0 46.82828 59.06711"><title>bride-upper-gown-3-funny</title><g id="Layer_2" data-name="Layer 2"><g id="bride-upper-gown-3-funny"><path id="void" d="M46.16713,9.99275a6.82233,6.82233,0,0,0,.03326.69525,5.21293,5.21293,0,0,1,.01856.83685l.00024.01117c-.00091.018-.0039.03461-.005.05255-.01544.26178-.04212.52021-.07245.765a13.06234,13.06234,0,0,0-.01691,2.62134c.032.41156.07031.8208.11444,1.22351a61.479,61.479,0,0,1,.37134,7.769c-.00806.40338.14063.81878-.17273,1.2409-.01294.01752-.00629.048-.01172.07038a1.73006,1.73006,0,0,0,.13843.64856,1.02706,1.02706,0,0,1,.04523.25366,15.071,15.071,0,0,1-.16352,2.30945c-.05474.39276-.13781.77581-.21728,1.16015-.06091.29493-.11365.59247-.17975.8855-.08765.38934-.17755.778-.257,1.16992a12.82942,12.82942,0,0,1-.4093,1.49311,25.08326,25.08326,0,0,1-1.47327,3.39239,12.74393,12.74393,0,0,1-.67364,1.1994,5.50009,5.50009,0,0,1-.6048.78754,3.10475,3.10475,0,0,0-.67889,1.23218,2.78746,2.78746,0,0,0-.0868.38653c-.19171,1.36188-.85656,2.56555-1.13934,3.89258a25.29339,25.29339,0,0,0-.65948,2.77734c-.04822.47626-.134.94867-.22766,1.42035-.13276.67017-.28449,1.33857-.3938,2.01239-.1175.72437-.14344,1.463-.2284,2.19318a22.47816,22.47816,0,0,1-.46905,3.50928,3.44688,3.44688,0,0,1-.15033.3471,3.22739,3.22739,0,0,1-2.55872,2.0318,9.83249,9.83249,0,0,1-3.08148.09095c-.11346-.015-.22485-.02173-.33954-.04126a6.85651,6.85651,0,0,0-1.98553-.09534c-.076.0094-.15216.0069-.228.02081-.01263.00232-.0249.00879-.0376.01123a3.4217,3.4217,0,0,0-.70288.2107,2.375,2.375,0,0,1-.86322.016,3.26793,3.26793,0,0,0-.76.00806c-.07678.01873-.14142.03234-.21069.048-.23029.05212-.42761.08832-.60492.11011A6.92854,6.92854,0,0,1,25.4388,58.668a4.62172,4.62172,0,0,0-1.26245.07184c-.2616.04132-.5235.0863-.783.11773-.19208.02332-.38214.07264-.57215.113a1.70033,1.70033,0,0,1-.33539.05133c-2.43011.01337-4.86566.10852-7.28778-.02551-.16662-.00928-.33221-.03162-.49859-.04486A13.37463,13.37463,0,0,1,9.85207,57.742,8.158,8.158,0,0,1,7.698,55.88044a1.10965,1.10965,0,0,1-.24347-.64947,1.45433,1.45433,0,0,1-.00128-.31616A8.83521,8.83521,0,0,0,7.25349,52.348c-.075-.47595-.12561-.95337-.19647-1.42914a8.24219,8.24219,0,0,0-.233-1.12042c-.23114-.78442-.32452-1.60943-.533-2.471-.27374-1.09228-.5581-2.1452-.82764-3.19317-.11077-.43067-.22692-.86225-.32647-1.29248-.01874-.08124-.04413-.1604-.06458-.24109-.179-.70545-.40674-1.39582-.60827-2.093a11.57693,11.57693,0,0,1-.31238-1.29712,1.301,1.301,0,0,0-.2533-.52667,1.64406,1.64406,0,0,0-.20788-.25171,11.39947,11.39947,0,0,1-1.72925-2.11084c-.01947-.02832-.03961-.056-.05908-.08435-.17487-.255-.34931-.51056-.52967-.76233a4.87351,4.87351,0,0,1-.67724-1.36346,4.98977,4.98977,0,0,1-.20557-.88153,49.90319,49.90319,0,0,1-.47644-5.6709A23.79937,23.79937,0,0,1,.08455,25.1479c.02936-.33576.04181-.67633.05536-1.018a7.23666,7.23666,0,0,1,.29754-2.08056c.02539-.07465.03632-.15418.0553-.231a14.234,14.234,0,0,0,.19257-1.9538c.05865-.58325.1322-1.16345.2146-1.74218a27.85326,27.85326,0,0,1,.63665-3.23352A20.57841,20.57841,0,0,0,1.78059,12.7c.16889-1.1206.38337-2.23315.579-3.34973l.00373-.01483a2.59794,2.59794,0,0,0,.05792-.26807L2.424,9.05268c.05261-1.0028.10986-2.00573.15368-3.0086.01978-.45435.04419-.90857.051-1.3631a4.419,4.419,0,0,0-.27106-1.94562,1.37205,1.37205,0,0,1-.09271-.98645A6.64334,6.64334,0,0,0,2.66658.36415a.1219.1219,0,0,1,.0495-.0838,1.38518,1.38518,0,0,1,.53711-.208l.0039-.001L3.27846.06739A1.86727,1.86727,0,0,1,4.06465.02772,2.33645,2.33645,0,0,1,5.17073.83894c.04224.05365.08551.10077.1272.1604.49255.70459,1.01367,1.38916,1.52929,2.07757Q8.13744,4.82585,9.43349,6.58528c.14373.19622.29443.38745.43621.58508l.00275.00415c.69965.97577,1.26477,2.04626,1.90662,3.06445.063.09992.12286.202.18768.30066.52655.80182,1.07874,1.58753,1.62482,2.37677.53564.77429,1.06451,1.55249,1.5581,2.35218.00836.01348.018.02618.02631.03973a27.1422,27.1422,0,0,0,3.8974,4.95477c.04065.04077.07764.08435.11859.12494a4.78577,4.78577,0,0,0,2.43292,1.258,7.74024,7.74024,0,0,0,.89984.13653c.39661.03784.79828.05078,1.19971.0586a14.83069,14.83069,0,0,0,1.73535-.056c.35877-.03528.71234-.09272,1.06678-.14649a14.88513,14.88513,0,0,0,4.95349-1.59051,6.61558,6.61558,0,0,0,1.146-.9115,40.03465,40.03465,0,0,0,6.19934-7.1015c.73285-1.04664,1.35852-2.16877,1.99384-3.28443.08032-.141.16186-.28113.24274-.42181.20843-.36255.41821-.72425.636-1.08039.4718-.77154.88526-1.5827,1.39252-2.33068a7.00594,7.00594,0,0,1,1.17218-1.35822c.03937-.03455.0741-.07208.11475-.10577.73455-.60858,1.02807-.73053,1.62725-.37531a2.34388,2.34388,0,0,1,.807,1.88458c-.0611.29-.10474.58313-.159.87439-.08368.4505-.17364.89985-.24524,1.35224q-.08761.554-.15063,1.11249c-.02441.21563-.04974.43133-.06305.64727-.01324.21173-.01959.42536-.02557.63861C46.16444,9.72346,46.16554,9.85762,46.16713,9.99275Z" style="fill:#fff"/><path id="fill2" d="M46.40684,7.18952c.118-.74524.24933-1.48784.4048-2.2264a2.34386,2.34386,0,0,0-.80693-1.88463c-.59916-.35519-.8927-.23323-1.62724.37532A13.8432,13.8432,0,0,0,41.698,7.24852c-.97046,1.58706-1.80821,3.26656-2.87251,4.7866a40.03461,40.03461,0,0,1-6.19939,7.10149,6.60956,6.60956,0,0,1-1.146.91149,15.60234,15.60234,0,0,1-6.01978,1.73716,15.34235,15.34235,0,0,1-2.9355-.00268,5.23672,5.23672,0,0,1-3.33226-1.394,27.11794,27.11794,0,0,1-4.01722-5.08018c-1.00263-1.62992-2.1567-3.16737-3.20894-4.76915C11.24119,9.4334,10.63935,8.2431,9.87,7.17077,8.37806,5.09045,6.7642,3.09727,5.2978.99951A2.39143,2.39143,0,0,0,4.06463.02772c-.29488-.10587-1.39269.10992-1.398.33644-.01744.7962-.76,1.45167-.3083,2.37118a4.4256,4.4256,0,0,1,.27076,1.94628c-.02279,1.457-.12869,2.91408-.20508,4.37109a2.3648,2.3648,0,0,1-.06434.29757c-.19569,1.11657-.41017,2.22908-.57907,3.34968a20.57936,20.57936,0,0,1-.244,2.1889,31.67136,31.67136,0,0,0-.85114,4.97559,9.986,9.986,0,0,1-.248,2.18487,12.68484,12.68484,0,0,0-.35251,3.099,37.6283,37.6283,0,0,0,.40479,8.08134,4.90264,4.90264,0,0,0,.88332,2.24519,17.02418,17.02418,0,0,0,2.31758,2.95695,1.471,1.471,0,0,1,.46109.77879c.20911,1.24256.70238,2.40469.98522,3.63115.34181,1.47713.768,2.94491,1.15409,4.485.20909.86187.30159,1.68759.53348,2.47171A19.57993,19.57993,0,0,1,7.25347,52.348a8.83462,8.83462,0,0,1,.19972,2.56687,1.29943,1.29943,0,0,0,.24529.96509,8.14687,8.14687,0,0,0,2.154,1.86185,13.8457,13.8457,0,0,0,5.34557,1.25461c2.42212.134,4.85765.03887,7.2878.02549a8.33193,8.33193,0,0,0,.90746-.16487,8.8193,8.8193,0,0,1,2.04547-.189,5.45435,5.45435,0,0,0,2.60174-.06568,3.26747,3.26747,0,0,1,.76-.008,2.375,2.375,0,0,0,.86321-.01606,5.17685,5.17685,0,0,1,2.95427-.14743,9.671,9.671,0,0,0,3.42073-.04961,3.23911,3.23911,0,0,0,2.709-2.37923,22.48564,22.48564,0,0,0,.46914-3.50922c.08445-.73048.11125-1.46908.22786-2.19289.18632-1.14874.50534-2.28.62195-3.43277a25.316,25.316,0,0,1,.65949-2.77736c.28283-1.327.94767-2.53068,1.13935-3.89256a3.1302,3.1302,0,0,1,.76537-1.61919,8.076,8.076,0,0,0,1.27876-1.9865,19.36876,19.36876,0,0,0,1.88194-4.88579c.21847-1.071.50265-2.12054.6541-3.21564a14.88165,14.88165,0,0,0,.16353-2.30952c-.004-.33377-.30426-.79221-.17156-.9718.31365-.42222.16487-.83776.1729-1.24122a61.47044,61.47044,0,0,0-.3713-7.769,16.55678,16.55678,0,0,1-.09784-3.84428,7.14742,7.14742,0,0,0,.059-1.66616,9.90706,9.90706,0,0,1-.00669-1.73851C46.22993,8.36107,46.3157,7.77261,46.40684,7.18952Z" style="fill:#fff"/><path id="fill1" d="M6.2911,47.32741c-.38624-1.54106-.81246-3.00821-1.154-4.48557-.28349-1.22619-.77649-2.3888-.98469-3.63183a1.47267,1.47267,0,0,0-.46182-.77779,17.0655,17.0655,0,0,1-2.318-2.95752,4.89746,4.89746,0,0,1-.88239-2.24514,37.66605,37.66605,0,0,1-.4056-8.08163,12.72274,12.72274,0,0,1,.353-3.09864,10.00372,10.00372,0,0,0,.24773-2.18467,31.682,31.682,0,0,1,.85168-4.976,20.5182,20.5182,0,0,0,.24364-2.18873c.16885-1.12.3831-2.2332.57934-3.34907a2.5682,2.5682,0,0,0,.06458-.29871c.07585-1.45682.18226-2.91336.20411-4.37111a4.41946,4.41946,0,0,0-.27105-1.94562c-.45077-.91983.29156-1.5748.30932-2.37173C2.672.13711,3.77005-.07776,4.0649.02823A2.39657,2.39657,0,0,1,5.298.99935c1.46612,2.09733,3.07947,4.09114,4.57178,6.171.76946,1.0724,1.371,2.26363,2.097,3.36925,1.05174,1.60158,2.20567,3.13846,3.2092,4.76867a27.11521,27.11521,0,0,0,4.01591,5.07964,5.24263,5.24263,0,0,0,3.33341,1.395,15.367,15.367,0,0,0,2.9345.0022A15.60041,15.60041,0,0,0,31.48,20.04848a6.60492,6.60492,0,0,0,1.14622-.91123,40.08831,40.08831,0,0,0,6.19963-7.10184c1.06438-1.52092,1.90128-3.19953,2.87268-4.78752a13.83378,13.83378,0,0,1,2.67908-3.79421c.73409-.60786,1.02846-.73044,1.62694-.37506a2.34467,2.34467,0,0,1,.80669,1.88451c-.15493.738-.286,1.48166-.40383,2.2266-.0923.5834-.1769,1.17069-.21379,1.75944a9.988,9.988,0,0,0,.00645,1.73883,7.14175,7.14175,0,0,1-.05834,1.66558,16.60973,16.60973,0,0,0,.097,3.84527A61.3786,61.3786,0,0,1,46.61,23.96714c-.00733.404.141.81872-.17215,1.24122-.1334.18.16713.639.172.97258a15.07353,15.07353,0,0,1-.16349,2.30945c-.15262,1.09443-.43677,2.14407-.65409,3.21555a19.38408,19.38408,0,0,1-1.88313,4.88491,8.0744,8.0744,0,0,1-1.27786,1.98757,3.13127,3.13127,0,0,0-.76622,1.6192c-.19109,1.36116-.85646,2.56475-1.13892,3.89209a25.50766,25.50766,0,0,0-.66,2.77733c-.11628,1.15322-.43459,2.28464-.62085,3.43274-.11751.72433-.14345,1.463-.22839,2.19319a22.4717,22.4717,0,0,1-.46908,3.50927,3.24128,3.24128,0,0,1-2.70946,2.37889,9.67838,9.67838,0,0,1-3.4206.04965,5.17831,5.17831,0,0,0-2.95391.14718,2.36407,2.36407,0,0,1-.86371.01574,3.289,3.289,0,0,0-.75958.00857,5.45207,5.45207,0,0,1-2.60195.0653,8.784,8.784,0,0,0-2.04522.19,8.26867,8.26867,0,0,1-.90722.16379c-2.43.01384-4.86566.10859-7.28834-.02522A13.82661,13.82661,0,0,1,9.85205,57.742a8.15965,8.15965,0,0,1-2.15412-1.86153,1.29947,1.29947,0,0,1-.24427-.96522,8.84477,8.84477,0,0,0-.1998-2.567,19.523,19.523,0,0,0-.42979-2.54987c-.23114-.78442-.32452-1.60944-.533-2.471M38.02178,14.39935c-.82076.96589-1.63489,1.93753-2.46472,2.89558-.5085.587-1.02,1.17429-1.56892,1.72274a7.25119,7.25119,0,0,1-1.64968,1.45143,15.34075,15.34075,0,0,1-6.79177,1.9868,5.66891,5.66891,0,0,0-1.49883.063,5.84557,5.84557,0,0,1-4.83366-.8702,9.11965,9.11965,0,0,1-2.38815-2.36006c-1.308-1.75383-2.51107-3.58847-3.708-5.422C11.8547,11.93136,10.65173,9.95675,9.4168,8.00283q-.6011-.951-1.23651-1.88c-.04976-.0729-.198-.07857-.30059-.1154a1.49253,1.49253,0,0,0,.05986.29315,4.19381,4.19381,0,0,0,.2281.44946c.91558,1.61576,1.856,3.218,2.74325,4.84912.9,1.65449,1.72694,3.34873,2.62476,5.00449a18.94768,18.94768,0,0,0,3.45724,4.67458,6.9742,6.9742,0,0,0,3.94713,2.075,3.6011,3.6011,0,0,1,2.4758,1.54617c.77421,1.23443,1.61071,2.57919.99193,4.18132-.27882.72188-.27427,1.55791-1.3047,1.89983-1.45918.48423-2.46035-.15568-3.45647-1.00008A2.114,2.114,0,0,1,19,27.87329a2.04689,2.04689,0,0,1,1.35877-1.70568c.99177-.29469,2.58453,1.30721,2.29789,2.30194-.0792.27485-.34174.6599-.55814.68659-.21929.02706-.55471-.28388-.70676-.529-.10006-.16127.03454-.46811.06406-.70978.11561.15623.23184.312.34652.4689a1.40115,1.40115,0,0,0,.11678.16814c.07028.07088.15216.13025.22911.19452a1.37956,1.37956,0,0,0,.08678-.28943,1.68,1.68,0,0,0-1.52921-1.66665.98429.98429,0,0,0-.99609.4903,1.93914,1.93914,0,0,0,.57975,2.59633,3.52891,3.52891,0,0,0,2.68621.61251.80933.80933,0,0,0,.55608-.37449,3.71419,3.71419,0,0,0,.42183-3.10491,4.51975,4.51975,0,0,0-1.53414-2.29517.54094.54094,0,0,0-.35069-.00774c-.112.7-.38005.1491-.46615.03a2.2838,2.2838,0,0,0-2.23982-.82527c-.12324.05267-.2476.10275-.37144.154.11127.05128.22343.1007.33365.15411a5.032,5.032,0,0,1,2.02252,1.15536,1.9342,1.9342,0,0,1,.16484.30595,1.81427,1.81427,0,0,1-.36977-.08513c-.366-.16831-.72175-.35869-1.0861-.53072-1.06868-.50452-1.40481-.38161-1.72773.70615-.14992.50506-.49076,1.02625-.04331,1.5794.049.06054-.1345.37147-.2741.49245-.05842.05062-.3124-.05655-.42862-.15168a1.91764,1.91764,0,0,1-.47581-2.37057.74077.74077,0,0,0-.10472-.83706c-.44036-.62182-1.05242-.50431-1.64962-.50727-1.06529-.0053-1.45583-.31333-1.59638-1.346a5.40324,5.40324,0,0,1,.00312-1.19467c.01347-.15224.15958-.29276.24525-.43862.132.11659.321.20757.38677.35394a4.91442,4.91442,0,0,0,1.9719,1.86563c.47168.32955.95786-.01623,1.223-.21592.35593-.26806-.09154-.60461-.334-.85381-.12646-.13-.2513-.26207-.38514-.38416a13.83863,13.83863,0,0,1-2.844-3.50149,3.57052,3.57052,0,0,1-.15557-.37055,1.25827,1.25827,0,0,0-.10673.46992,1.7232,1.7232,0,0,0,.25413.544c.19273.32088.41983.62261.59176.95353.04839.09316-.0456.26028-.07429.39347A1.91339,1.91339,0,0,1,14.303,20.068a3.09015,3.09015,0,0,1-.98388-2.30852,1.87548,1.87548,0,0,0-.39868-1.25371,6.4383,6.4383,0,0,1-.47648-.78123c-1.25612-2.45334-2.481-4.923-3.76544-7.36141-.95869-1.82-1.987-3.60345-2.99463-5.39741a14.96692,14.96692,0,0,0-1.0095-1.64553C4.38256.92925,4.04067.48342,3.42436.68739c-.309.10226-.61905.88573-.5577,1.38591a3.54953,3.54953,0,0,0,.12954.37994,5.94446,5.94446,0,0,1,.28756,1.29017A35.96573,35.96573,0,0,1,3.0814,9.52894a8.35164,8.35164,0,0,1-.23731,1.64383c-.57048,1.54244-.47376,3.18853-.79306,4.772-.22961,1.13873-.38755,2.34073-.57106,3.495a47.18826,47.18826,0,0,0-.54346,5.07484,40.22632,40.22632,0,0,0,.18765,7.19787,10.0014,10.0014,0,0,0,.32228,1.82527A5.60484,5.60484,0,0,0,4.15679,36.973a10.49065,10.49065,0,0,0,5.11183,1.592,2.88273,2.88273,0,0,1,.64991.01274c.12038.02735.21128.18454.31545.28331-.1057.04636-.21524.08562-.31646.14026a3.55043,3.55043,0,0,1-1.86878.207c-.35445-.00854-.45188.13121-.39369.43761.0312.16428.1107.31927.14331.48342.17322.87238.34522,1.74516.49859,2.62114.02074.11845-.06589.25569-.10279.38423-.10822-.13652-.28037-.2588-.31441-.41183-.23716-1.06611-.42392-2.14392-.68246-3.20441-.04942-.20273-.34559-.34528-.52792-.51559a1.80148,1.80148,0,0,0-.04963.58684,39.18779,39.18779,0,0,1,1.2508,5.35652c.01427.12338.04384.245.06629.36741a1.33885,1.33885,0,0,1-.276-.32638,4.96139,4.96139,0,0,1-.086-.50893q-.718-2.58507-1.45171-5.16575a.97494.97494,0,0,0-.24443-.43721,2.686,2.686,0,0,0-.51795-.3055c-.0179.1964-.106.41988-.0423.58477.41058,1.06311.69863,2.16558,1.17571,3.21393a2.79171,2.79171,0,0,1,.39565,2.07424c-.282-.79-.55746-1.58254-.85556-2.36646-.03256-.08563-.19577-.12159-.29838-.1806a1.01885,1.01885,0,0,0-.006.29356c.19952.71454.423,1.42258.613,2.13957.49394,1.86451,1.01951,3.7224,1.44366,5.603a16.93219,16.93219,0,0,1,.4818,3.48933A6.82048,6.82048,0,0,0,8.9701,55.975a1.39806,1.39806,0,0,0,.53486.63749c.33617.20018.86528.51481,1.07591.388.34453-.20735.0188-.66227-.07992-1.02588A6.38938,6.38938,0,0,1,10.4041,54.706c-.04662.43163-.0943.86318-.13882,1.295-.0074.0718.02291.15751-.00685.21453-.0408.07816-.11822.18231-.18754.18838a.34419.34419,0,0,1-.23542-.13978c-.03552-.04375-.00141-.14018-.00742-.21224-.10675-1.279.22041-2.578-.17488-3.84493-.01223-.03922.05111-.0998.07427-.15259a5.257,5.257,0,0,0,.18125-3.0753,1.267,1.267,0,0,1-.00083-.37006c.11879.11231.32434.21244.34207.33892a17.40324,17.40324,0,0,1,.22141,2.19352,24.00833,24.00833,0,0,0,.64667,5.17516c.15159.65159.3023,1.08549,1.05919,1.30556.62224.18094.5025-.10872.47478-.41326a13.69579,13.69579,0,0,1-.18445-1.54236c.00588-.23728-.34606-.70565.2458-.74013a2.50332,2.50332,0,0,1,.15838.7358,4.038,4.038,0,0,0,.63379,2.13085c.06426.087.23951.092.36338.135a1.03752,1.03752,0,0,0,.03292-.36983,21.22753,21.22753,0,0,1-.80318-6.73918,2.74624,2.74624,0,0,1,.10535-.49752,3.46937,3.46937,0,0,1,.22578.45028,1.35876,1.35876,0,0,1,.09453.50277,27.51336,27.51336,0,0,0,.661,5.71551,1.27926,1.27926,0,0,0,1.12648,1.16315c1.30586.01552,2.61224-.008,3.91794.01352.35579.00584.39529-.13226.40366-.43815a41.22594,41.22594,0,0,1,.18091-5.24754c.21644-1.39884.17255-2.83781.25034-4.25861a1.14307,1.14307,0,0,1,.09481-.286c.10261.09565.29727.19738.29143.28588-.02186.33139-.15911.65777-.16383.9873-.02558,1.78626-.00988,3.568-.19245,5.355a17.94235,17.94235,0,0,0,.19607,3.27934.46217.46217,0,0,0,.28623.30263c.27192.08068.3692-.063.361-.34692-.01893-.65248-.02263-1.30649.00206-1.95859a3.13029,3.13029,0,0,1,.17522-.79581c.03413-.10928.14676-.194.22372-.28993a1.441,1.441,0,0,1,.10211.3847c-.0159.8237-.07955,1.6483-.04943,2.46973.00692.18856.2865.4351.49728.53316.37.1722.33674-.24976.43723-.41981a1.89446,1.89446,0,0,0,.12968-.597c.21786-1.14327.42911-2.2879.66238-3.428.02521-.12316.17775-.22024.27123-.32941.05167.151.16771.31254.14491.45129-.20028,1.21873-.44474,2.43039-.63348,3.65073-.07555.48845.1798.74161.56689.6519.95766-.222,1.89361-.64657,2.90516-.19364a.80073.80073,0,0,0,.63765-.00579c.27624-.1625.74522-.11744.69523-.71317a7.00816,7.00816,0,0,1,.19515-1.64874c.28385-1.76731.57008-3.53435.87936-5.29729a1.94344,1.94344,0,0,1,.33841-.57352c.02869.16951.06918.33806.08284.50878a1.3974,1.3974,0,0,1-.00436.5413,30.17554,30.17554,0,0,0-.64351,4.30364c-.14939.775-.26934,1.55575-.42085,2.33032-.06225.31823.11781.4351.33543.33034a1.08675,1.08675,0,0,0,.50416-.53944c.19124-.50281.28912-1.04033.45863-1.55262a2.15218,2.15218,0,0,1,.33083-.48961,1.81128,1.81128,0,0,1,.088.50351c-.04917.44416-.16975.882-.197,1.32637a3.02919,3.02919,0,0,0,.15126.76976,6.49227,6.49227,0,0,0,.48164-.68569,3.163,3.163,0,0,0,.2236-.66808c.22191-.81567.4278-1.63582.66168-2.448a2.60294,2.60294,0,0,1,.29657-.5293,5.35251,5.35251,0,0,1,.127.55282,1.181,1.181,0,0,1-.02061.42474c-.203.82164-.41848,1.6402-.62666,2.46059-.05383.2121-.09647.427-.14426.64067a5.11534,5.11534,0,0,0,1.019-.104c.1735-.05131.3138-.283.42656-.46042a9.70112,9.70112,0,0,0,1.318-3.59081A17.41631,17.41631,0,0,0,34.2266,50.211c-.00049-.10213.19148-.20516.2941-.30778.04221.11577.13507.23935.11862.34609a19.205,19.205,0,0,1-.44764,2.53582,9.53472,9.53472,0,0,1-.78849,2.83072,6.917,6.917,0,0,0-.69234,1.559c-.08127.23487-.15571.57607.35544.55719a7.95392,7.95392,0,0,0,3.415-.43634,2.29084,2.29084,0,0,0,1.42576-1.77806,20.45963,20.45963,0,0,1,.24432-2.18935,27.29816,27.29816,0,0,0,.41482-2.87229c.14691-1.02733.249-2.06381.45485-3.07923.23536-1.16118.54137-2.3097.858-3.45228.26942-.9723.59983-1.92762.89842-2.89194.13958-.45074.2783-.9025.38747-1.36093.01333-.056-.15662-.22181-.2466-.22586-.77651-.03486-1.19174.30248-1.48458,1.12981-.20129.56866-.42975,1.12783-.65329,1.68834-.02692.06748-.09908.11693-.15027.17474a.70132.70132,0,0,1-.06147-.19116,5.16321,5.16321,0,0,1,.54433-2.16789,1.41484,1.41484,0,0,0,.054-.3697,2.78352,2.78352,0,0,0-.371.043c-.42652.10635-.84851.23178-1.27729.32732-.07366.01641-.18787-.06224-.25231-.12758a.21244.21244,0,0,1,.013-.20124c.08689-.11454.18353-.26685.30555-.3019a14.61055,14.61055,0,0,1,1.77559-.4402A4.24513,4.24513,0,0,0,42.48246,37.357c.30212-.44312.51962-.9438.7772-1.41744a19.81756,19.81756,0,0,0,2.50157-10.17883c-.05933-2.17514-.01088-4.35319-.01088-6.52994a3.32316,3.32316,0,0,0-.0059-.6518,21.63868,21.63868,0,0,1-.43022-4.392c.00333-1.3786.00071-2.7572.00071-4.1358a4.14709,4.14709,0,0,1,.00482-.65226c.20806-1.29.43345-2.57716.64168-3.86711.01343-.08321-.068-.18174-.10523-.27313a.8556.8556,0,0,0-.151.1556,1.52151,1.52151,0,0,0-.16934.36423c-.29576,1.14812-.62694,2.28939-.86435,3.44973-.39828,1.94665-.65971,3.92381-1.11944,5.85464-.46206,1.94051-.73135,3.90786-1.06634,5.86687-.15086.88216-.28964,1.76639-.4402,2.64859-.00961.05634-.07388.10335-.11272.15469-.03372-.0586-.10209-.12119-.09584-.17514.06385-.55143.14671-1.10063.2111-1.652a48.21572,48.21572,0,0,1,.85355-5.19408c.44341-1.93544.73778-3.90474,1.10877-5.8571.42357-2.229.69434-4.504,1.87686-6.51382.14978-.25455.12306-.375-.19105-.415a1.37989,1.37989,0,0,0-1.49828.58356,2.72828,2.72828,0,0,0-.66269,1.48149,2.40975,2.40975,0,0,1-.58379,1.26273,47.42047,47.42047,0,0,0-3.295,5.27841c-.598,1.05563-1.10856,2.16465-1.75922,3.18544A33.21219,33.21219,0,0,1,35.79413,18.566c-.23075.28893-.71056.40792-.87755.7134a6.954,6.954,0,0,1-2.18087,2.08678c-.22146.16709-.4512.32559-.65441.51272a.28221.28221,0,0,0,.00167.2779.29655.29655,0,0,0,.278.06607c.55329-.42548,1.18207-.129,1.76986-.19341.44006-.04822.89991.0235,1.27848-.44576a1.8107,1.8107,0,0,0,.54891-1.59959,1.41712,1.41712,0,0,1,.063-.35976c-.11843.05959-.28171.0882-.34784.18391a3.81474,3.81474,0,0,0-.48177,1.77544c-.54517.03151-.277-.38312-.32118-.60929-.11643-.59638.29169-1.04171.52843-1.51643.08476-.17.52956-.12485.72688-.28218a7.71753,7.71753,0,0,0,.9131-.94471,5.46744,5.46744,0,0,0,.37039-.52553,1.56178,1.56178,0,0,1,.05353.61928c-.13424.37611-.27814.95162-.54742,1.03689-.67975.21526-.50562.68312-.52239,1.11027A2.09994,2.09994,0,0,1,34.83967,22.449a11.24571,11.24571,0,0,1-2.9704.12155c-.22431.00649-.42641-.11352-.59723.1091a1.05394,1.05394,0,0,0-.108.28036,2.77286,2.77286,0,0,0,.56923.14182,2.38347,2.38347,0,0,1,2.04307,3.72449c-.33664.5938-.54329.67088-1.22218.40964-.12122-.04662-.27658-.19507-.281-.30209a.47082.47082,0,0,1,.24733-.33488c.69285-.34054.75346-.74026.293-1.31826-.44472-.55821-1.00116-.43752-1.56111-.40784a4.88608,4.88608,0,0,0-.52376.08267c.10316-.17488.16561-.42582.31855-.5077a1.3425,1.3425,0,0,1,.86568-.22779A2.18188,2.18188,0,0,1,33.559,25.76131c.03369.13085.07045.26092.10581.39135a1.56426,1.56426,0,0,0,.10573-.38344,2.70543,2.70543,0,0,0-.04628-.8497c-.34913-1.09448-2.53456-1.96578-3.423-.83977-.25839.32746-.51043.66-.7716.98518a1.88384,1.88384,0,0,1-.22883.207c-.03206-.09553-.06114-.19219-.09691-.28631-.04529-.11913-.096-.23618-.1444-.35413-.09676.10583-.19187.21324-.29068.31711-.12438.13075-.254.25656-.37754.388a4.595,4.595,0,0,0-1.3728,4.15253c.13572.74982.88368,1.53763,1.74628,1.03656,1.06787-.6203,1.3273-1.69746,1.73536-2.70328.03849-.09489-.048-.26808-.12027-.37543a.86478.86478,0,0,0-1.187-.30015c-.48352.38606-.46664.89921.03583,1.406a1.651,1.651,0,0,1,.19365.30538c-.12389.04244-.25972.14085-.36952.1174a.89049.89049,0,0,1-.72289-.78814,1.54437,1.54437,0,0,1,.633-1.48893.75688.75688,0,0,1,1.09388-.1177c.54321.34927.94467.86756.817,1.2719a4.61547,4.61547,0,0,1-.768,1.85494A7.94054,7.94054,0,0,1,28.723,31.05949a1.05117,1.05117,0,0,1-1.40851-.32725c-.026-.02976-.13281.0111-.202.0191a1.07088,1.07088,0,0,0,.06348.22957,4.83434,4.83434,0,0,0,.54729.96515c.3942.44469.11234.68639-.17274.98761-.36009.38048-.59479-.076-.73852-.18617a2.16633,2.16633,0,0,1-.82628-1.04568,2.20684,2.20684,0,0,0-.478-.89876.95443.95443,0,0,1-.102-.28265,2.05,2.05,0,0,0-.11788.2558,8.59285,8.59285,0,0,0-.41721,1.4536,5.98551,5.98551,0,0,0,.11666,1.2999q.1494-.64538.29884-1.29071c.05373-.23155.10057-.46516.16736-.69291.0179-.06107.09754-.10406.14883-.15535.03973.04922.11.0957.11461.148a3.81245,3.81245,0,0,1-.57568,2.47765c-.06385.09872-.262.20961-.34242.17719-.14947-.06029-.35711-.21509-.36611-.34284a7.56473,7.56473,0,0,1,.01891-1.511,6.44073,6.44073,0,0,1,.35084-1.1164c-.5166.13883-.48.66054-.68659,1.00974a.91793.91793,0,0,1-1.34333.42388.73775.73775,0,0,1-.2922-.51414c-.00662-.11661.207-.26934.34922-.36536.22271-.15036.46984-.26421.70436-.39749a4.46036,4.46036,0,0,0,1.75335-3.44775c-.07924-.58561-.14061-1.17367-.22259-1.75885-.02313-.16518-.1185-.32168-.13305-.48637a3.15452,3.15452,0,0,0-1.14786-1.81644,1.87016,1.87016,0,0,1-.23732-.65621,7.28374,7.28374,0,0,1,.80637-.04854c.07971.003.16149.13659.23.22041.30939.37846.61314.76154.92169,1.14071.09048.1112.19.215.2854.32225-.02281-.12279-.04088-.24668-.06939-.36813a3.283,3.283,0,0,1-.19529-.888,2.09834,2.09834,0,0,1,.33834-.70325,2.809,2.809,0,0,1,.50327.34063.83281.83281,0,0,1,.21683.44741c.052.421.20976.38674.47785.16481.167-.13823.31571-.52469.58468-.19907.1585.19188.31181.57074.22544.74679-.22863.466-.26712,1.08036-.84395,1.22076a2.63126,2.63126,0,0,1,.23867-.86039c.1845-.26123.28842-.46286.1135-.74682a2.82082,2.82082,0,0,0-.55519.57795,2.69931,2.69931,0,0,0-.22629.86756c-.05233.36263.23883.25282.42932.3794a3.14207,3.14207,0,0,1-.46686.87851,1.95179,1.95179,0,0,0-.41259,2.72265.42469.42469,0,0,1-.10023.42641,2.62069,2.62069,0,0,0,.92161,2.4316c.09956.09248.28965.08752.43783.12767a1.39057,1.39057,0,0,0-.12176-.44021,4.33144,4.33144,0,0,1-1.02-2.11906c.10955.0011.24769.44653.30671.025a6.48785,6.48785,0,0,0-.10576-1.13711,2.95794,2.95794,0,0,1,.05943-.87986,8.35614,8.35614,0,0,1,1.98348-3.30406c.79746-.914,1.90792-1.46,2.69167-2.41745.55985-.68392,1.44428-1.09124,2.08271-1.72406a49.6124,49.6124,0,0,0,3.58994-3.838,5.66457,5.66457,0,0,0,1.36566-2.18167l.01594-.20176a.4431.4431,0,0,1-.23365.20176m-20.029,8.92595c-.22736.14513-.44135.37954-.685.416-.44623.06677-.19144.16128-.08958.34869.22175.408.52037.19961.74719.09261a5.877,5.877,0,0,0,.83872-.57978c.10832-.0769.21815-.15166.32729-.22739-.10675-.08928-.21023-.24817-.32095-.2534a1.88911,1.88911,0,0,0-.8177.20328m-3.26559.21772.9316-.06079c-.23978-.19925-.4803-.39762-.71876-.59845-.054-.0455-.09459-.10862-.152-.148-.19753-.13539-.39979-.26385-.60024-.395.071.25276.13.50977.21793.75648a1.77766,1.77766,0,0,0,.32151.44574m2.72133,3.15673.07257.29028c.04838-.027.13972-.05541.13884-.08067a2.78645,2.78645,0,0,1,.43335-1.74762.34474.34474,0,0,0-.07058-.26789c-.1178-.004-.33185.02808-.34185.07954-.09693.4991-.15976,1.00482-.23233,1.72636M23.21777,32.469a1.1226,1.1226,0,0,1,.15313-.15015c.19537-.13067.39586-.25372.59439-.37967-.045-.0411-.10771-.12633-.13218-.11648a7.5653,7.5653,0,0,0-.72014.33023c-.02964.01571-.00406.13558.1048.31607m2.939-8.164a.38629.38629,0,0,0,.07777.07392c.01816.00975.0496-.0052.07507-.00905-.05827-.1741-.11157-.3502-.18054-.51995-.00964-.02375-.09618-.01625-.14713-.02321a1.28942,1.28942,0,0,0,.17483.47829m-.762,1.41509c.07642.06872.21677.20063.22017.19718.29429-.29773-.05-.41044-.1773-.58971A.44241.44241,0,0,0,25.39482,25.72007ZM6.5683,11.3317c-.22774-1.21349-.37969-2.4449-.67683-3.64053a14.58584,14.58584,0,0,0-.8446-3.02033,8.635,8.635,0,0,1-.43648-1.23232c-.0275-.08758.028-.20124.04532-.30288.10258.06457.24243.10592.3.19847a6.15556,6.15556,0,0,1,.30158.635,68.83268,68.83268,0,0,1,2.60006,6.538c.60393,1.7119,1.10183,3.46132,1.64038,5.19609.18984.6115.35749,1.22986.54245,1.84293a1.89864,1.89864,0,0,0,.151.30061c.02433-.09872.08877-.2076.06676-.29458-.2072-.81911-.40927-1.64044-.65087-2.44975-.56809-1.90291-1.125-3.81019-1.748-5.69534A29.73057,29.73057,0,0,0,6.22518,5.084a17.83571,17.83571,0,0,0-2.061-3.60894A5.35809,5.35809,0,0,0,3.57114.95461c-.0542.34584-.11388.691-.15673,1.03825-.00649.0526.079.11051.09893.17327.41459,1.3041,1.29918,2.53078.66127,4.01176-.036.08362.01259.20612.029.3094a3.21869,3.21869,0,0,1,.1598,1.11562,8.59507,8.59507,0,0,0-.02128,2.65691c.15247,2.06511-.02972,4.151.261,6.21686.06584.46792.121.93731.18608,1.40535a.38586.38586,0,0,0,.09991.00015,4.17742,4.17742,0,0,0,.12037-1.54c-.46847-1.48542.04465-3.02611-.36686-4.518a9.84955,9.84955,0,0,1,.00426-1.55308c-.122-1.54981-.04625-3.11548-.03612-4.67482.00073-.11385.09877-.22708.15157-.34059.09234.11024.242.20835.26827.33257.304,1.43628.50781,2.89923.90113,4.30967a43.6586,43.6586,0,0,1,.84422,4.86833c.116.72113.15152,1.45523.269,2.176.18184,1.1158.39967,2.22583.6077,3.33727q.321,1.7153.65509,3.42814a1.30439,1.30439,0,0,0,.114.26282c.03366-.09486.10366-.19311.09516-.284a16.78829,16.78829,0,0,0-.22359-1.975A33.14479,33.14479,0,0,1,7.651,17.95419c-.06805-.6957-.11561-1.39506-.22316-2.08486-.19567-1.25507-.42915-2.50426-.64686-3.86475C6.70837,11.708,6.60479,11.52617,6.5683,11.3317Zm35.91429-.5337c.443-1.012.863-2.03426,1.31113-3.044.47561-1.07158.97456-2.13275,1.45738-3.20116a.80837.80837,0,0,0,.041-.2932c.00036-.00843-.1235-.04774-.14282-.02765-.45664.47477-1.08467.85955-1.124,1.59158a3.24506,3.24506,0,0,1-.40081,1.254,27.22719,27.22719,0,0,0-1.22655,2.96823A5.8428,5.8428,0,0,0,41.66836,12.44,18.058,18.058,0,0,0,42.48259,10.798ZM40.46886,40.67338c.05181-.072-.02823-.23892-.047-.36173-.12283.04673-.29989.058-.35812.147a2.70436,2.70436,0,0,0-.39868.80019c-.17646.72224-.32342,1.45381-.435,2.18879a4.59342,4.59342,0,0,0,.04682.944,5.92863,5.92863,0,0,0,.37771-.81968A7.93751,7.93751,0,0,1,40.46886,40.67338Zm.87294-27.798a1.38044,1.38044,0,0,0-.10885.65312A1.38065,1.38065,0,0,0,41.3418,12.8754ZM6.99865,44.49723a2.79314,2.79314,0,0,0,.2177.54426A2.79378,2.79378,0,0,0,6.99865,44.49723Zm.27719.98473.14228-.04354a1.31436,1.31436,0,0,0-.20177-.28807C7.23619,45.29716,7.256,45.38957,7.27584,45.482ZM40.98258,13.87685l.14228.03189a.89539.89539,0,0,0-.00077-.38022A.94233.94233,0,0,0,40.98258,13.87685Zm.46807-1.00145a.65454.65454,0,0,0,.10886-.43541A.65453.65453,0,0,0,41.45065,12.8754Zm-22.26046,12.627c-.07257-.03629-.14513-.07256-.2177,0C19.04505,25.57493,19.11762,25.53864,19.19019,25.50236Z"/></g></g></svg>