<svg xmlns="http://www.w3.org/2000/svg" width="47.16924" height="54.94642" viewBox="0 0 47.16924 54.94642"><title>bride-upper-gown-6-funny</title><g id="Layer_2" data-name="Layer 2"><g id="bride-upper-gown-6-funny"><path id="void" d="M41.30839,26.47736a.80635.80635,0,0,0,.05694.21557c.01551-.0108.03009-.02252.04615-.03253q1.64264-1.02346,3.28668-2.04681c.31762-.197.53344-.53882,1.02-.45441l.01434.00305a.67776.67776,0,0,1,.12018-.00293c.40784.07038.70074.14722.6737.61786-.01782.31177-.06762.62213-.11425.93146-.01471.0976-.11316.20215-.09235.28253a7.0555,7.0555,0,0,1-.32733,3.39105c-.25153,1.11847-.62915,2.20807-.903,3.32221-.27642,1.12439-.40106,2.29358-.75872,3.38873-.48768,1.49329-.74219,3.03089-1.1012,4.54877-.319,1.34894-.69544,2.68439-1.05463,4.02356-.33252,1.23974-.68139,2.47516-1.013,3.71515-.39319,1.47027-.77264,2.94421-1.167,4.41418a12.22463,12.22463,0,0,1-.71143,1.3548l-.00335.0022a2.27708,2.27708,0,0,1-.26.47882.41785.41785,0,0,0-.11353-.02545l-.02051.02557a.42074.42074,0,0,0-.12225-.02734c-.27093.03784-.53418.25091-.81494.21673a.50032.50032,0,0,1-.43536-.14245.31144.31144,0,0,0-.19928-.05719c-.13587.01123-.2854.03729-.411.03729-1.429,0-2.85791-.00165-4.28681.00616-.35681.00183-.71362-.0025-1.07043.00165-.20459.00226-.41181-.01746-.61853-.02038a1.2571,1.2571,0,0,0-.69391.21112.74661.74661,0,0,1-.43842.0827.694.694,0,0,1-.43-.08313,1.01358,1.01358,0,0,0-.57727-.19592c-.23908.006-.48.0473-.7171.03692a1.45729,1.45729,0,0,1-.30335-.01654,2.99679,2.99679,0,0,0-.42181-.042c-.28284-.002-.56885.01233-.85394.01569-.15442.00415-.30848.00524-.46143-.00324a14.6774,14.6774,0,0,1-2.09637-.1568,3.28073,3.28073,0,0,0-.55591-.053,8.222,8.222,0,0,0-1.80139.27478,4.94182,4.94182,0,0,1-1.1587.16638,2.33148,2.33148,0,0,1-1.1098-.20056.354.354,0,0,0-.14349-.02417c-.01288.00006-.02637.001-.03894.00055l-.03205-.00146c-.0343.001-.069.00262-.10186.001-1.78406-.07232-3.56684-.17694-5.35089-.20776a16.06173,16.06173,0,0,1-4.28394-.43426c-.49329-.14344-1.03082-.12873-1.53748-.23328a2.87427,2.87427,0,0,1-2.36718-2.73578,19.79,19.79,0,0,0-.38068-2.12183c-.0965-.5429-.18628-1.08844-.2533-1.63531a16.11289,16.11289,0,0,1-.2091-2.08569,25.59807,25.59807,0,0,0-.70911-4.61237c-.19433-1.09509-.54956-2.16339-.82568-3.24512a5.24082,5.24082,0,0,0-.22919-.99188,37.17174,37.17174,0,0,1-1.87793-5.9635c-.36993-1.25732-.60992-2.57629-.93158-3.863a1.71607,1.71607,0,0,1,.87256-1.7962.29766.29766,0,0,1,.1759-.00665.96537.96537,0,0,1,.46961.1109c1.11938.45,2.23163.9176,3.35254,1.36358a5.93184,5.93184,0,0,0,1.15295.36237,1.71512,1.71512,0,0,0,.19885.01794.52318.52318,0,0,0,.52253-.54254c.0335-.30163.17022-.58978.20642-.89136a49.72079,49.72079,0,0,0,.189-7.85083,17.37539,17.37539,0,0,0-.73724-4.686c-.40479-1.25464-.62463-2.56824-.97852-3.84161A33.03426,33.03426,0,0,0,3.5355,2.81714c-.30567-.61652-.76672-1.32159-.256-2.11786.23858-.374.42492-.68622.94232-.6983.03137-.00073.05438.00781.08423.00873.01843-.00128.03027-.00879.04962-.00922a.94568.94568,0,0,1,1.02594.7193c.29815.89282.60687,1.78314.86773,2.687Q6.93761,5.79129,7.56937,8.192c.31031,1.181.59381,2.36969.85883,3.56177a40.89625,40.89625,0,0,1,.70831,7.88867,20.86627,20.86627,0,0,0,.22437,3.816c.20044.93036-.1128,1.9002.337,2.78943.04175.08264-.30682.3504-.45489.54669a1.50677,1.50677,0,0,0-.145.33648c.06122.02045.128.05292.189.073a2.80508,2.80508,0,0,1,1.33039-.21618c.80121.02057,1.6004.28772,2.39373.30975a21.13725,21.13725,0,0,1,3.0633.17047c1.57361.27734,3.1853.23419,4.73981.62732a1.12662,1.12662,0,0,0,.217.00262c1.566.072,3.14636.03846,4.6936.24842a41.68571,41.68571,0,0,1,4.29285.37347,1.62581,1.62581,0,0,0,.35839.03516c.41657-.0185.85694-.13513,1.27851-.17523.1756-.0174.34991-.03479.52545-.04688,1.05762-.07239,2.12189-.10187,3.17279-.23187a22.74115,22.74115,0,0,0,2.29474-.49469c.09381-.02142.17157-.122.26678-.13934,1.13263-.21314,1.27338-.30829,1.04279-1.3927a2.7413,2.7413,0,0,1,.05231-1.23853c.37-1.64471.39007-3.34033.82837-4.9823.35388-1.32434.40881-2.7251.6997-4.07086.189-.88062.60047-1.71173.84046-2.58429.25329-.91687.40612-1.86182.62994-2.788.3244-1.34179.94769-2.60583,1.2533-3.9328a35.892,35.892,0,0,1,1.17822-3.76519A1.87978,1.87978,0,0,1,46.107,1.75427a1.3134,1.3134,0,0,1,.275.00165c.43115.05054.7763.30536.77856.71387a4.15867,4.15867,0,0,1-.14337,1.56177C46.2,6.272,45.48051,8.54914,44.762,10.8244c-.59845,1.895-1.20154,3.79194-1.695,5.71558-.32348,1.26105-.36737,2.59454-.70068,3.852-.27112,1.02277-.49725,2.04633-.69708,3.083A11.85981,11.85981,0,0,0,41.30839,26.47736Z" style="fill:#fff"/><path id="fill2" d="M41.53476,23.4756a11.87429,11.87429,0,0,0-.36056,3.00116,1.47039,1.47039,0,0,0,.08309.29224c.051-.0362.10053-.07507.15417-.10858q1.64265-1.02343,3.28668-2.04681c.31766-.197.53349-.53885,1.02-.45442.40883.071.70106.14746.67423.61794-.01741.3123-.06836.62194-.11392.93158-.01476.09785-.11394.2024-.09251.28284a7.06941,7.06941,0,0,1-.327,3.39125c-.252,1.11788-.63,2.20762-.90344,3.3215-.27613,1.12463-.40078,2.29346-.75866,3.38857-.48793,1.49323-.74259,3.03068-1.10181,4.54937-.319,1.34843-.69436,2.68351-1.05358,4.02392-.33376,1.2385-.68225,2.47439-1.01336,3.71427-.39273,1.47043-.77342,2.94488-1.16749,4.414a12.506,12.506,0,0,1-.70774,1.35111c.01476-.03884.02949-.075.04022-.10855s-.12331-.15416-.23994-.21045c-.01073.07373.01208.22786.07776.244.08043.0201.067.14612.11794.0791l.004-.00406a2.40575,2.40575,0,0,1-.26674.48525c-.46243-.20509-.88063.49728-1.37258.04692-.13806-.12736-.49058-.02012-.74393-.02012-1.74119,0-3.48239-.01208-5.22358.008a2.309,2.309,0,0,0-1.44627.19033.7906.7906,0,0,1-.73458,0c-.51469-.38066-1.06964-.08041-1.59776-.17557a14.67625,14.67625,0,0,0-1.73716-.02952,14.67784,14.67784,0,0,1-2.09639-.15682,6.08076,6.08076,0,0,0-2.49183.22116,3.09683,3.09683,0,0,1-2.134-.03351.90575.90575,0,0,0-.31632-.02412c-1.78409-.07236-3.56684-.17695-5.35091-.20777a16.06243,16.06243,0,0,1-4.28394-.43426c-.4933-.14343-1.0308-.12871-1.53748-.23326a2.87432,2.87432,0,0,1-2.36715-2.73577,19.793,19.793,0,0,0-.38069-2.12188c-.09651-.54287-.1863-1.0884-.25333-1.63529a16.11643,16.11643,0,0,1-.20911-2.08569,25.59135,25.59135,0,0,0-.70908-4.61234c-.19435-1.0951-.54955-2.16341-.82568-3.24513a5.24332,5.24332,0,0,0-.22921-.99192A37.17332,37.17332,0,0,1,.96726,30.39079c-.37-1.25732-.60989-2.5763-.93158-3.86307a1.716,1.716,0,0,1,.87258-1.79617c.126-.06032.34852.03887.512.10455,1.11926.44905,2.23046.91685,3.35237,1.36322a5.89766,5.89766,0,0,0,1.15276.36191c.39676.06967.79218.03753.85517-.52413.03351-.30159.17024-.58976.20643-.89136a49.7155,49.7155,0,0,0,.189-7.85079,17.37611,17.37611,0,0,0-.73723-4.68607c-.4048-1.2546-.62465-2.56821-.9785-3.8416a33.03086,33.03086,0,0,0-1.92485-5.9501c-.30561-.61657-.76671-1.32163-.256-2.11786.23859-.374.4249-.68627.94231-.69834a.94432.94432,0,0,1,1.0254.71847c.29891.8927.60721,1.78406.86858,2.68753q.68761,2.38457,1.319,4.78526c.311,1.18087.59379,2.36983.85919,3.56148A40.93479,40.93479,0,0,1,9.003,19.642a20.85921,20.85921,0,0,0,.22384,3.81615c.20106.93023-.11257,1.90072.33644,2.7894.04291.08312-.30692.3512-.45438.5469a1.54434,1.54434,0,0,0-.14478.33644c.09517.03217.21582.11794.28285.08711,1.21438-.56162,2.4288.04559,3.6298.0791a21.09017,21.09017,0,0,1,3.0642.17154c1.5723.27614,3.18481.23327,4.7397.62734a1.29788,1.29788,0,0,0,.21713.00268c1.56559.07105,3.14594.03754,4.69278.248a41.60149,41.60149,0,0,1,4.29334.37261,5.71953,5.71953,0,0,0,1.77067-.13941c.17561-.01741.34987-.03482.52543-.0469,1.05761-.07238,2.12188-.10187,3.17278-.23188a22.73225,22.73225,0,0,0,2.29476-.49464c.09383-.02143.17158-.122.26674-.13938,1.13268-.21313,1.27339-.3083,1.04285-1.3927a2.74181,2.74181,0,0,1,.05226-1.23854c.37-1.64468.39008-3.34029.8284-4.98229.35385-1.32431.40883-2.72507.69969-4.07084.189-.88063.6005-1.71171.84044-2.58429.25332-.91685.40614-1.86184.63-2.78806.32437-1.34175.94768-2.60578,1.2533-3.93277a35.87106,35.87106,0,0,1,1.17822-3.76519,1.86477,1.86477,0,0,1,1.80818-1.15679c.43164.051.77611.30561.77879.71441a4.16928,4.16928,0,0,1-.1434,1.5616c-.81766,2.23982-1.53611,4.51718-2.25458,6.79319-.59916,1.894-1.20234,3.792-1.69564,5.71553-.323,1.26131-.36724,2.59367-.701,3.85234C41.961,21.41537,41.73448,22.43812,41.53476,23.4756Z" style="fill:#fff"/><path id="fill1" d="M40.21682,47.47347a13.55071,13.55071,0,0,1-.71132,2.974c-.18626.91921-.55856,1.79947-.79272,2.71132-.04613.17966-.26288.61322.28056.63983.12124.00592.34766.19606.33382.23786a2.516,2.516,0,0,1-.307.59415c-.463-.20551-.88.49764-1.37284.04647-.13813-.12646-.49015-.0193-.74406-.0193-1.74109,0-3.48228-.01162-5.22316.00752a2.30373,2.30373,0,0,0-1.44651.191.79437.79437,0,0,1-.73449.00014c-.515-.38137-1.06969-.08083-1.59753-.17593a14.479,14.479,0,0,0-1.7366-.02934,14.78124,14.78124,0,0,1-2.09728-.15664,6.063,6.063,0,0,0-2.49108.22126,3.09578,3.09578,0,0,1-2.13435-.0347.8865.8865,0,0,0-.31657-.02312c-1.78356-.07291-3.56659-.17727-5.35086-.20793A16.09727,16.09727,0,0,1,9.49048,54.016c-.49342-.14342-1.03046-.129-1.53768-.23425a2.87343,2.87343,0,0,1-2.36694-2.73517,19.41209,19.41209,0,0,0-.38072-2.12143c-.09538-.54336-.18518-1.08839-.25335-1.63567a16.20147,16.20147,0,0,1-.20811-2.08568,25.55365,25.55365,0,0,0-.71017-4.61211c-.19374-1.096-.5485-2.16324-.82493-3.245a5.22674,5.22674,0,0,0-.22962-.99262,37.25373,37.25373,0,0,1-1.87755-5.9637C.73135,29.13285.49084,27.81482.16913,26.5283a1.71814,1.71814,0,0,1,.873-1.79644c.12624-.06035.34919.03864.51161.10393,1.11933.45,2.23162.91761,3.35252,1.36359a5.93283,5.93283,0,0,0,1.15292.36234c.39683.06931.792.03766.85544-.52492.03388-.30076.17008-.58978.20588-.89055a49.75938,49.75938,0,0,0,.19-7.85162,17.38756,17.38756,0,0,0-.73774-4.68616c-.40527-1.25473-.62391-2.56845-.978-3.84132A33.01636,33.01636,0,0,0,3.66918,2.81679C3.3641,2.20028,2.90243,1.495,3.41294.6993c.23966-.37351.42532-.6867.94271-.69882A.94574.94574,0,0,1,5.38157.71983c.29813.89277.60685,1.78309.86774,2.687q.68829,2.38454,1.32,4.78523c.31033,1.181.59383,2.36971.85884,3.56175a40.89427,40.89427,0,0,1,.70832,7.88868,20.87166,20.87166,0,0,0,.22438,3.816c.20043.93032-.11282,1.90022.33695,2.7894.0418.08263-.30679.35039-.45487.54671a1.50428,1.50428,0,0,0-.145.33649c.09559.03191.21651.11843.283.08761,1.21458-.56287,2.429.04553,3.63008.07892a21.1376,21.1376,0,0,1,3.06333.1705c1.57356.27731,3.1853.23422,4.73981.6273a1.12654,1.12654,0,0,0,.217.00265c1.566.072,3.14632.03845,4.6936.24842a41.68641,41.68641,0,0,1,4.29284.37343,5.73973,5.73973,0,0,0,1.77139-.14059c.17487-.01671.34979-.03366.525-.04583,1.05807-.07348,2.12152-.10262,3.17258-.23241a23.01408,23.01408,0,0,0,2.29473-.494c.09469-.0217.17229-.12294.26656-.14066,1.13323-.21308,1.27442-.30762,1.04314-1.39158a2.75406,2.75406,0,0,1,.05174-1.23894c.37012-1.64484.39026-3.34025.82875-4.982.3537-1.32441.40961-2.7256.6996-4.07074.18986-.88077.60058-1.71158.84122-2.5844.25295-.91746.40624-1.8619.62976-2.78811.324-1.34269.94713-2.60619,1.25309-3.93253a35.82892,35.82892,0,0,1,1.17833-3.76532A1.86487,1.86487,0,0,1,46.382,1.756c.43111.05051.7763.30532.77853.71382a4.15767,4.15767,0,0,1-.14332,1.56177C46.2,6.272,45.48052,8.54913,44.762,10.82441c-.59845,1.895-1.20155,3.79192-1.695,5.71558-.3235,1.261-.36737,2.59456-.70071,3.85209-.2711,1.02275-.49723,2.04627-.6971,3.083a11.86511,11.86511,0,0,0-.36084,3.00231,1.3951,1.3951,0,0,0,.08289.29106c.05131-.036.101-.07454.15413-.10762Q43.18866,25.637,44.8325,24.614c.31681-.19747.53329-.53871,1.02021-.45471.40785.07035.70071.14719.67371.61787-.01786.31173-.06766.62212-.11427.93144-.0147.09759-.11319.20216-.09235.28254a7.05637,7.05637,0,0,1-.3273,3.39107c-.25154,1.11846-.62915,2.208-.90307,3.32216-.27641,1.1244-.401,2.29358-.7587,3.38875-.48766,1.49328-.7422,3.03088-1.10118,4.54879-.31906,1.34889-.69545,2.68436-1.05467,4.02357-.33252,1.23975-.68137,2.47512-1.013,3.7151-.39319,1.47029-.77269,2.94424-1.167,4.41421a12.22653,12.22653,0,0,1-.71141,1.35482c-.05153.06742-.03827-.05923-.119-.07948-.06519-.01635-.0877-.17009-.07794-.24341.0954-.71852.45248-2.15679.59067-2.86779a13.9423,13.9423,0,0,1,.90849-2.88712,1.03722,1.03722,0,0,0,.055-.62228c-.10595-.42021-.20559.02223-.36945-.03052.23583-.65827.6186-1.23581.79918-1.87085.55526-1.95287.99966-3.93723,1.55264-5.89082.3863-1.36477.4035-2.83171,1.12874-4.10225a2.22892,2.22892,0,0,0,.10008-.23028c-.1029-.0143-.22031-.06687-.30556-.03459a2.22514,2.22514,0,0,0-.437.25748c-.68083.45965-1.32888.97918-2.04766,1.36813-.70061.37912-1.44478.839-2.29426.32438-.10176-.06163-.195-.13731-.29223-.20648a4.00821,4.00821,0,0,1,.38219-.22324.35763.35763,0,0,1,.215-.00245,2.26033,2.26033,0,0,0,2.00514-.51708c.53677-.41138,1.168-.698,1.71548-1.09737a2.67754,2.67754,0,0,0,1.16589-1.4556c.70932-2.32963,1.31365-4.68341,1.90041-7.04375a.34045.34045,0,0,0-.05528-.28337.30631.30631,0,0,0-.28223-.017c-.82966.45235-1.648.92549-2.47784,1.3775a20.3689,20.3689,0,0,1-4.83567,1.97884,13.88355,13.88355,0,0,1-2.83218.57541c-.98244.03778-1.96427.41854-2.97754.37623-.73356-.03063-1.46247-.1727-2.196-.20283-2.21849-.09109-4.43924-.12935-6.657-.23375-1.13121-.05327-2.2815.232-3.4-.19-.13146-.0496-.35778.15222-.54014.2375a2.00675,2.00675,0,0,0,.35279.38842c.13487.08833.38547.05058.46935.15839.79915,1.02717,1.55963,2.59888.6807,4.07826-.69048,1.16217-1.41876,2.12937-2.92317,2.08567a1.7897,1.7897,0,0,1-1.6983-1.48763,1.86285,1.86285,0,0,1,1.19239-1.99065c.69736-.2108,1.57435.43931,1.40717,1.065-.04619.17291-.2496.30381-.38086.454a1.853,1.853,0,0,1-.25185-.45909c-.14742-.66976-.30751-.75175-.89241-.41172a1.22181,1.22181,0,0,0-.4808,1.35561c.392.83257.9159,1.13377,1.57744.94029a2.84948,2.84948,0,0,0,1.75332-1.524c.26939-.50863.7098-.96092.6398-1.58185a3.612,3.612,0,0,0-3.1025-3.10874A1.21048,1.21048,0,0,0,16.714,31.54355c.01385.09454.15417.17051.236.25507.06333-.06677.18082-.13378.1805-.20024-.0013-.27306-.00508-.54272.379-.4407.11439.03037.28811.27575.26783.3043-.14335.202-.30405.47975-.509.53-.32587.07982-.81669.1551-.934-.27313a2.08777,2.08777,0,0,1,.14558-1.08855c.05828-.18426.30963-.30021.42877-.47731.03154-.0469-.09809-.29223-.16376-.29663a.8029.8029,0,0,0-.48654.11445c-.81736.57632-1.61181,1.18516-2.43022,1.75992a4.89583,4.89583,0,0,1-3.31035.93481,1.72886,1.72886,0,0,1-1.43292-1.42293,1.24995,1.24995,0,0,1,1.0045-1.17741c.37516-.10847.74283-.46167,1.16964-.12-.32274.17955-.645.36006-.96913.537-.02825.01541-.07016.00337-.10426.0108a.5331.5331,0,0,0-.43315.71879c.086.3166.04871.66352.56077.841a3.377,3.377,0,0,0,2.05893-.18443c1.06977-.26,1.835-1.13038,2.845-1.53431.15478-.0619.26023-.24726.38848-.37553-.19429-.03974-.38715-.0895-.58312-.11733-.54963-.07805-1.09863-.172-1.65134-.21445-1.16584-.08956-2.33476-.13877-3.50066-.2277a10.05051,10.05051,0,0,1-1.75711-.2256c-1.239-.32173-2.46286-.70338-3.68722-1.07907a11.77442,11.77442,0,0,0-2.57782-.88215c-.12881-.00938-.24324-.21573-.36434-.33088a1.41382,1.41382,0,0,1,.39743-.08182,2.05993,2.05993,0,0,1,.48612.13384c.88911.30548,1.767.64835,2.66786.91377a23.48544,23.48544,0,0,0,3.54527.90023c.69306.09128,1.39059.14853,2.08612.22109s1.39035.19787,2.08668.207c1.55076.02024,3.07438.28078,4.61058.42139,1.91957.17569,3.85543.18055,5.78484.23991,2.69052.08276,5.38187.14052,8.07222.22861a9.458,9.458,0,0,0,1.10559.192,28.55139,28.55139,0,0,1,2.86861-.38858,13.15721,13.15721,0,0,0,3.70478-.81624A26.90977,26.90977,0,0,0,45.6307,25.608c.12429-.07764.16623-.28716.24648-.43531-.19309-.02931-.4837-.1541-.56356-.07254a7.66912,7.66912,0,0,1-1.89169,1.23114,23.33556,23.33556,0,0,1-4.02376,1.8575A28.36069,28.36069,0,0,1,32.066,29.37926a29.83109,29.83109,0,0,1-5.35341-.16726c-1.5873-.19583-3.20179-.17112-4.80431-.24314a1.08255,1.08255,0,0,1-.21707-.00269,14.89683,14.89683,0,0,0-3.95605-.43568,6.36617,6.36617,0,0,1-.96188-.04339c-.81836-.11628-1.62971-.2881-2.45028-.38141-.90952-.10344-1.84521-.14-2.74-.15764-1.63577-.03228-3.203-.47818-4.82424-.523a10.20736,10.20736,0,0,1-1.68029-.39017,18.412,18.412,0,0,1-3.3691-1.32743,6.5181,6.5181,0,0,0-.7786-.22228,2.44774,2.44774,0,0,0-.10461.81252c.23567,1.05692.52393,2.1021.79317,3.15153.3113,1.21335.6,2.43313.94287,3.63751a2.82022,2.82022,0,0,0,1.14418,1.90562,9.84536,9.84536,0,0,0,3.21489,1.17832,18.029,18.029,0,0,1,2.24552.61154,2.44049,2.44049,0,0,1,.33458.1514,1.197,1.197,0,0,1-.3969.08215c-.33613-.04955-.66357-.15925-.99988-.206a14.11824,14.11824,0,0,1-4.05-.99861c-.105-.04846-.32228-.0683-.35319-.01838a.571.571,0,0,0-.05209.40569c.12751.48866.32.96245.421,1.45556a35.66367,35.66367,0,0,0,.70994,3.62825,32.63228,32.63228,0,0,1,.82581,5.316,16.101,16.101,0,0,1,.46624,3.403,2.5959,2.5959,0,0,0,.18331.78913,3.28993,3.28993,0,0,0,1.03849,1.9617,1.77542,1.77542,0,0,0,.36621.16406,1.18906,1.18906,0,0,0,.11183-.38044c-.061-.98647-.1472-1.97141-.20362-2.95809a2.14212,2.14212,0,0,1,.12055-.56088,1.67367,1.67367,0,0,1,.29352.52757c.04712.35656-.03141.73071.02307,1.08511.11425.74277.27678,1.47835.43185,2.21427.01717.0815.11454.14609.17471.21851.06734-.10261.20928-.22234.19028-.30514-.15884-.69225-.35717-1.37541-.517-2.06747-.02613-.11317.0785-.25652.1227-.38592.08039.086.21845.16359.23229.2592a18.76721,18.76721,0,0,1,.67382,2.77564c-.00029.0766.16708.15382.25654.23075.05567-.0744.1485-.14372.15953-.22422a1.3392,1.3392,0,0,0,.00042-.541c-.24561-.83156-.30062-1.703-.48059-2.53131a28.22022,28.22022,0,0,1-.15924-3.6222c-.00736-.08079.07362-.16961.11353-.2547a1.16225,1.16225,0,0,1,.09432.28613c.04284.735.12735,1.47639.16772,2.19818a35.56083,35.56083,0,0,0,.68,4.08456c.08156.47292.307.35674.56927.39088.33658.04381.36164-.15915.32473-.39229-.05879-.37119-.17333-.73656-.19722-1.10869-.00866-.1349.17518-.28217.27117-.42381a1.79228,1.79228,0,0,1,.14418.29809c.08177.2939.15629.59033.21946.88877.2058.97206.21143.93838,1.1994.96764.5297.01569.59609-.21835.54257-.6247-.06777-.51475-.17548-1.02641-.20814-1.54305a7.24026,7.24026,0,0,1,.01448-1.73668c.0987-.53971-.48014-1.04487-.02288-1.56522-.36066-.91941.1991-1.838.00715-2.75972-.01688-.081.06673-.183.10367-.27519a.85157.85157,0,0,1,.10205.2821,68.95777,68.95777,0,0,0,.41271,7.54947c.05026.60529.23342.65372.7375.67228,1.12529.04146,2.24642.18452,3.37131.25084,1.29452.07632,2.59459.19686,3.88613.14535,1.2073-.04817,1.3743-.34262,1.39747-1.62274a3.43572,3.43572,0,0,1,.09224-.72385c.02135-.09013.14492-.15605.22188-.233a.77436.77436,0,0,1,.11252.26c.01045.544-.00345,1.08849.01053,1.63232.00422.16534.06715.47032.10986.47149.38686.01069.77521-.03184,1.1631-.0588a4.37246,4.37246,0,0,0-.10144-.58816,8.85559,8.85559,0,0,1-.14685-4.036c.1075-.72922.40177-1.38367.497-2.09619a2.48735,2.48735,0,0,1,.11124-.37777,1.67484,1.67484,0,0,1,.09775.39251,5.13926,5.13926,0,0,1-.04914.84908c-.11454.71092-.29018,1.41375-.372,2.12777a8.0882,8.0882,0,0,0,.43573,3.51614.5.5,0,0,0,.31141.28073c.2074.04615.437-.01532.64932.01833.50908.0807.55386-.18371.56779-.6038A14.09809,14.09809,0,0,1,26.951,51.3218c.02131-.12655.22522-.22234.345-.3323.02538.1346.05212.269.07524.404.006.03509.01549.08375-.0021.10663-.47429.61709-.12374,1.3227-.191,1.98216-.01621.1587.26195.34745.40474.52239a1.87559,1.87559,0,0,0,.215-.49326,1.57209,1.57209,0,0,0-.00792-.85969c-.61977-1.1221.22664-2.20959.03088-3.31454-.02373-.13386.10963-.31941.21364-.445a1.75139,1.75139,0,0,1,.37782-.26979,1.62756,1.62756,0,0,1,.04338.4145c-.13533.88463-.338,1.76278-.40985,2.65183a10.16592,10.16592,0,0,0,.19089,1.54122c.0532.68043.111.7902.83694.76453.76971-.02721,1.53519-.16423,2.305-.19942.79647-.0364,1.59588-.00583,2.394-.00874.77839-.00283.8156-.007.77531-.80252a5.851,5.851,0,0,1,.87917-3.44916c.05466-.08885.10609-.17967.159-.26959a2.06265,2.06265,0,0,1,.05594.30222,1.30722,1.30722,0,0,1-.02006.42623c-.1673.54612-.39561,1.07679-.52232,1.63124a2.49693,2.49693,0,0,0,.0772,1.843c.11962.22526.17343.37911.40958.306a.52857.52857,0,0,0,.26908-.32474c.24723-.8061.45686-1.62405.718-2.42532.06267-.19222.33663-.50159.40562-.47521.41506.15873-.11738.28958-.07188.537a3.12133,3.12133,0,0,1-.27094,1.16732c-.11709.46017-.23894.91992-.32863,1.38566-.02121.1102.07779.24354.12145.36623.10149-.1012.25589-.18547.29461-.3067.12355-.38667.1833-.7936.30472-1.18109q.95058-3.03348,1.92789-6.05852a1.86313,1.86313,0,0,1,.40466-.69244c.6321.22463-.18467.43667-.04055.74057.07337.15468-.123.43462-.19166.65971-.5697,1.86831-1.15088,3.7333-1.69469,5.60914a3.32884,3.32884,0,0,0-.03216,1.06942c.00279.05543.26326.17356.31125.13772.20081-.14995.50959-.3391.52075-.529a14.1353,14.1353,0,0,1,.917-3.22272,7.134,7.134,0,0,1,1.06591-2.75725m.65312-27.97525c-.14513.59262-.32111,1.17968-.42911,1.779-.238,1.32043-.46616,2.64371-.64746,3.97277a6.97562,6.97562,0,0,0,.01074,1.62793c.0132.13092.29761.28746.47963.32551.08781.01836.34149-.2966.32709-.3158-.5722-.76236.17915-1.47633.07986-2.24071a5.6121,5.6121,0,0,1,.32148-1.80462c.23488-1.06143.50411-2.11557.72288-3.18018.19337-.941.30318-1.89982.51283-2.83667.22865-1.02168.4984-2.03677.80563-3.03772q.94707-3.08549,1.95917-6.15086c.47539-1.43226,1.02215-2.84076,1.5038-4.27106a1.83943,1.83943,0,0,0-.07523-.72,8.03163,8.03163,0,0,0-.88018.20112.57241.57241,0,0,0-.303.30073c-.1746.43565-.32858.88075-.46714,1.32944-.58586,1.89743-1.18469,3.79125-1.73777,5.69828-.53611,1.84845-1.05686,3.70285-1.5173,5.57117-.28641,1.16211-.44817,2.35494-.66588,3.75168M5.9281,7.41553c.10885.38952.23267.77558.32382,1.16919.30639,1.32312.50323,2.681.9239,3.966A19.312,19.312,0,0,1,7.9701,18.0768,56.31085,56.31085,0,0,1,7.774,26.46025c-.06389.52719.162.38332.51841.35717.51933-.03812.35574-.36153.35079-.59992-.06306-3.061-.12724-6.122-.21831-9.1822a21.1738,21.1738,0,0,0-.22667-2.841c-.22884-1.37491-.54921-2.73557-.86091-4.09534-.18074-.78833-.41947-1.56341-.63449-2.34381C6.264,6.16235,5.83357,4.56716,5.3786,2.979,5.21271,2.4,4.958,1.846,4.799,1.2655c-.09583-.35-.30346-.49559-.57448-.34681A.50969.50969,0,0,0,4.028,1.6429a15.60612,15.60612,0,0,1,.72519,1.97661A18.25779,18.25779,0,0,1,5.9281,7.41553ZM23.22556,36.13391a1.08048,1.08048,0,0,1-.3926-.84223,3.18633,3.18633,0,0,1,.59822-1.36647c.38834-.48417.81934-1.11265,1.63864-.6409.05594.03222.30078-.11357.32733-.2118.05429-.201.04462-.36489-.28965-.42066a2.02061,2.02061,0,0,0-2.01737.92444c-.15079.1873-.3066.37054-.4601.55563.04486-.29421.07231-.5926.14157-.88095a1.25589,1.25589,0,0,1,.22637-.44708,3.60476,3.60476,0,0,1,3.63369-1.41564c.73893.11411,1.56476.31982,1.82116,1.22432.08961.31614.013.58706-.43071.49381-.18959-.03985-.44452-.34744-.54261.03244-.03556.13781.18778.431.35882.5091a.78534.78534,0,0,0,.64637-.04545A1.29324,1.29324,0,0,0,28.69288,31.91c-.66776-.95669-2.92189-1.18762-3.903-.88083a4.108,4.108,0,0,0-1.69246.85334,3.96986,3.96986,0,0,0-.99026,2.739c-.096,1.92569,2.35257,3.30651,3.93907,2.62529a1.70492,1.70492,0,0,0,.89055-2.42013,1.45783,1.45783,0,0,0-1.52751-.62091.84356.84356,0,0,0-.64847.965c.01733.09961.04888.19674.07388.295a2.0408,2.0408,0,0,1,.1555-.30162c.36573-.49378.91624-.68842,1.26446-.45551a1.20774,1.20774,0,0,1,.23851,1.56062,1.46707,1.46707,0,0,1-1.4613.591A2.50668,2.50668,0,0,1,23.22556,36.13391Zm9.034-3.176a6.68061,6.68061,0,0,1-1.24838-.9028c-.25016-.20648-.44855-.47684-.70354-.67574-.09041-.07052-.27965-.01442-.42377-.01612a1.22756,1.22756,0,0,0,.10715.39521c.19889.285.56508.52382.61916.82508a3.2476,3.2476,0,0,1-.29191,2.03494,1.05665,1.05665,0,0,1-1.00808.67243c-.06469-.00083-.13091.11979-.19642.18414.0853.08077.16362.22118.25711.23215.4347.051.88595.05759,1.1268-.40266a11.74713,11.74713,0,0,0,.56827-1.28442,3.872,3.872,0,0,0,.131-.69751,3.95614,3.95614,0,0,1,.7978.17134,3.487,3.487,0,0,0,2.52982.24964c1.18772-.39038,2.37593-.78788,2.56879-2.36522.0485-.39666-.12613-.48188-.27-.6808a1.02568,1.02568,0,0,0-.22672-.17719.8684.8684,0,0,0-.07579.29178,1.836,1.836,0,0,1-.87593,1.85733A3.10705,3.10705,0,0,1,32.2596,32.95787ZM21.75929,39.41834c-.09177-.11222-.2243-.21089-.267-.33943-.0957-.28789-.14441-.5912-.21722-.887-.02392-.09714-.06328-.19048-.0956-.28555a2.66165,2.66165,0,0,1-.12254.25036c-.05413.0876-.148.15807-.17906.25118a1.54245,1.54245,0,0,0,.794,1.43667c.59075.09981.60539-.33583.75124-.76731a1.23177,1.23177,0,0,0-.00819-1.05614,6.8828,6.8828,0,0,1-.2759-1.29589c-.03142-.13037-.16063-.23717-.24506-.35476-.06072.1413-.18238.28739-.17173.42309.04888.62253.13474,1.24216.20729,1.97168A5.4606,5.4606,0,0,1,21.75929,39.41834Zm19.26253-8.75129c.0945-.14106.29637-.36959.265-.40809a1.03418,1.03418,0,0,0-.52731-.40518,3.1153,3.1153,0,0,0-3.14845,2.3269.30031.30031,0,0,0,.115.25787.29376.29376,0,0,0,.27633-.07324,2.802,2.802,0,0,0,.25361-.54147,2.28037,2.28037,0,0,1,2.55949-1.49473A2.83435,2.83435,0,0,1,41.02182,30.66705ZM14.3999,32.71612c-.17688.26242-.37825.75643-.25836.92024.26764.36572.53565.90117,1.17168.77512.16745-.0332.33581-.06178.50377-.09249-.12209-.11443-.225-.273-.36948-.336-.79477-.3462-.91922-.64-.47687-1.34927.16615-.26637.43044-.46995.62532-.72126.04079-.0526-.02674-.18923-.04436-.28713a.8974.8974,0,0,0-.20771.11884A7.50248,7.50248,0,0,0,14.3999,32.71612ZM5.01255,29.88349a1.8773,1.8773,0,0,1,1.85789-.0575,5.74,5.74,0,0,0,1.2217.42787.74.74,0,0,0,.29068-.03913c-.04366-.07623-.0695-.19619-.13357-.22227-1.20185-.48937-2.3823-1.17235-3.79067-.42532C4.65766,30.04017,4.65832,30.04166,5.01255,29.88349ZM18.4462,32.56011a4.41718,4.41718,0,0,0,.50313-.11265,3.91115,3.91115,0,0,0,.4449-.21342,1.44856,1.44856,0,0,0-.0615.47044c.01467.07688.19161.12278.29528.18268a3.4509,3.4509,0,0,0,.28067-.799c.00895-.07629-.30969-.21658-.49428-.28108a.84525.84525,0,0,0-.47836.04593C18.5182,31.9794,18.37086,32.19547,18.4462,32.56011Z"/></g></g></svg>