<svg xmlns="http://www.w3.org/2000/svg" width="112.59376" height="157.66102" viewBox="0 0 112.59376 157.66102"><title>bride-veil-2_1</title><g id="Layer_2" data-name="Layer 2"><g id="bride-veil-2"><path id="fill2" d="M112.56486,140.19142c-.17024-1.13667-.40347-2.264-.559-3.40195-.16218-1.18628-.25869-2.38191-.39273-3.57355-.06433-.57636-.12062-1.15545-.22786-1.72375-.15548-.82441-.38606-1.634-.52546-2.45967-.11258-.66621-.071-1.36456-.21713-2.02135a12.75694,12.75694,0,0,1-.36727-2.90734,1.298,1.298,0,0,0-.00537-.382,12.367,12.367,0,0,1-.378-2.71433,18.97157,18.97157,0,0,0-.20643-2.21436c-.2654-1.31764-.32709-2.65805-.55227-3.9783-.10321-.60456-.071-1.23726-.2131-1.82971a12.7515,12.7515,0,0,1-.37666-2.62179,7.64555,7.64555,0,0,0-.21985-2.10983,11.48124,11.48124,0,0,1-.17829-1.45436c-.189-.94366-.39138-1.88594-.54284-2.83627-.10589-.66889-.09516-1.35651-.20777-2.024-.22652-1.335-.51338-2.65942-.75329-3.99178-.20911-1.16212-.29626-2.35376-.59919-3.48906a55.33821,55.33821,0,0,1-.93158-5.54529c-.09248-.575-.1059-1.1635-.2024-1.73717-.17024-1.00936-.40078-2.00793-.56163-3.0186-.15816-.99595-.25735-1.99988-.39139-2.99852-.06034-.45166-.11931-.9034-.21447-1.34846-.23592-1.1112-.496-2.21835-.73991-3.32955-.29623-1.34578-.571-2.69555-.88469-4.03734-.32571-1.39264-.6903-2.77729-1.02942-4.16731-.26272-1.07364-.49729-2.15271-.77074-3.22366-.30293-1.1796-.65679-2.34709-.9463-3.53069-.24263-.9892-.39143-2.00256-.64207-2.99046-.2614-1.03476-.69167-2.03339-.87529-3.07758-.3244-1.82827-.99326-3.56144-1.37258-5.37368-.126-.60319-.39813-1.17554-.55763-1.77474-.33778-1.268-.60453-2.55476-.97579-3.81074-.3244-1.10315-.76272-2.17149-1.134-3.26123-.45707-1.34309-.8766-2.6996-1.34843-4.03733-.35255-.99994-.748-1.98646-1.14606-2.97037-.60721-1.5039-1.21308-3.00787-1.85916-4.49437A39.23656,39.23656,0,0,0,87.656,25.88655c-.45841-.80287-.78147-1.66209-1.23988-2.45691-.64072-1.10853-1.30019-2.20769-1.961-3.30417-.50937-.84306-.99729-1.705-1.56563-2.5079-.79082-1.11926-1.69292-2.16207-2.46768-3.29068a15.23617,15.23617,0,0,0-2.25726-2.79745c-.3552-.32038-.67957-.6742-1.01735-1.012-.98924-.98927-1.97174-1.98384-2.969-2.965A23.35668,23.35668,0,0,0,70.035,4.381a18.47331,18.47331,0,0,0-4.922-2.43683c-1.32166-.34852-2.59773-.83242-3.94217-1.134C60.57166.6748,59.97921.53539,59.38676.43623c.03351.055.06568.134.10184.18765-.071.04018-.14608.12062-.2131.11394q-.573-.0483-1.14069-.134A9.12178,9.12178,0,0,0,56.29174.5153.68995.68995,0,0,1,56.403.47508,7.13744,7.13744,0,0,1,59.38676.43623c-.02281-.03351-.04558-.059-.071-.06168C58.42969.25124,57.541.16141,56.65633.03542a5.12879,5.12879,0,0,0-1.8015.12736A17.05445,17.05445,0,0,0,48.3632,3.20685c-.96643.69566-1.83368,1.52936-2.74647,2.3001-.07373.06172-.15819.11126-.22521.17828a33.42543,33.42543,0,0,0-2.34438,2.76126c-.69164.89405-1.445,1.7479-2.06422,2.69018-1.04821,1.59645-1.96909,3.276-3.02263,4.86841a68.07536,68.07536,0,0,0-3.70891,6.4112c-.37934.73454-.73722,1.48112-1.08306,2.23177-.64206,1.3927-1.28546,2.78534-1.89267,4.19415-.61925,1.4342-1.20369,2.88319-1.79077,4.33087-.33242.82035-.64877,1.646-.95838,2.4757-.67021,1.7962-1.32837,3.59771-1.99455,5.39515-.73857,1.9919-1.50125,3.97437-2.213,5.97556-.73186,2.05885-1.34712,4.16332-2.1366,6.1994a60.209,60.209,0,0,0-2.30285,6.51572c-.54553,2.08837-1.26668,4.13249-1.87923,6.20476-.41286,1.39676-.76671,2.8095-1.15545,4.21293-.24665.886-.52677,1.76263-.76,2.65131-.32439,1.24125-.59916,2.49455-.92891,3.733-.30694,1.14609-.693,2.27065-.98252,3.42073-.48658,1.94091-.9088,3.89793-1.38465,5.84152-.48255,1.96637-1.03077,3.918-1.48383,5.89244-.43028,1.87258-.764,3.76657-1.16348,5.64713-.23055,1.08038-.50936,2.15-.76,3.225-.197.84449-.40347,1.68755-.57236,2.53873-.33242,1.68356-.55627,3.39527-.98922,5.052-.31366,1.197-.46781,2.41543-.73991,3.61375a17.87691,17.87691,0,0,0-.40614,2.3283,24.09218,24.09218,0,0,1-.54153,2.35109c-.21984,1.12731-.27881,2.29879-.60721,3.3899a37.773,37.773,0,0,0-1.12192,6.04127c-.07505.579-.1059,1.16344-.197,1.73848-.24261,1.52406-.50666,3.04407-.76135,4.56544-.134.80693-.252,1.61655-.40212,2.41942-.30427,1.62727-.63938,3.24781-.93158,4.87646-.16218.898-.18633,1.827-.40883,2.70759-.26,1.02946-.374,2.079-.5871,3.10978-.12064.58846-.0925,1.16612-.17558,1.74253-.08715.59108-.29222,1.16749-.35523,1.76132-.10588.99052-.12868,1.98915-.20642,2.98241a7.97911,7.97911,0,0,1-.21177,1.54147c-.06568.22783-.27748.43695-.09116.65679a1.57738,1.57738,0,0,0,.5871.41417c1.08575.46109,2.17951.90078,3.272,1.34708.62732.256,1.25059.52681,1.88461.76269a20.78866,20.78866,0,0,0,5.46217,1.11389,28.02088,28.02088,0,0,0,4.41532-.16755,6.13823,6.13823,0,0,0,1.46776-.37392,1.51163,1.51163,0,0,0,1.21975-1.67957,8.81052,8.81052,0,0,1,.15685-2.2264,28.02821,28.02821,0,0,0,.36724-3.55746c-.16084-.08043-.32169-.15681-.48521-.23057.05628-.09111.23591-.1434.34986-.21579a1.06878,1.06878,0,0,1,.13941.38739l-.00406.059c.53616.26272,1.06028.5509,1.579.86054,1.02.60855,2.03742,1.2332,3.10572,1.7479,1.16615.56293,2.39261.99726,3.5856,1.50659a19.32642,19.32642,0,0,0,7.55721,1.64736,3.77664,3.77664,0,0,0,2.15942-.58571,1.1071,1.1071,0,0,0,.449-1.30022,6.83622,6.83622,0,0,1-.3713-1.75327c-.02143-.567.56837-3.68743.62734-4.25979a1.31185,1.31185,0,0,0-.01476-.33111c.45039.06839.88737.23457,1.33773.32168.80022.15682,1.60446.29361,2.41.42229.86993.14071,1.76266.189,2.60847.4101a20.60713,20.60713,0,0,0,5.24366.74129,3.50881,3.50881,0,0,1,1.23452.02277c1.04687.4249,2.17816-.10321,3.20091.36057.36191-.27208.71442.11394,1.0884.00936a4.16869,4.16869,0,0,1,1.16347-.19033c1.46106.0161,2.898-.22921,4.34429-.34047,1.29482-.09916,2.56419-.35382,3.85636-.449.626-.04562,1.23988-.23994,1.86182-.34721.83507-.14471,1.67551-.26671,2.51192-.40749.62466-.10583,1.24391-.24125,1.8699-.33641,1.02406-.15413,2.0508-.30159,3.07889-.41953.41017-.04693.83775.04555,1.24256-.01748.60855-.09647,1.21576-.21978,1.82163-.33909.00671-.09117.01073-.15145.01073-.17292.00537-.37935.2654-.33779.44771-.2815.25467.07775.11928.20911.04824.35657-.16889.0322-.33779.06571-.50668.09785-.05092.70234-.26137,3.2143-.23323,3.347a4.47051,4.47051,0,0,1,.15413.79482,10.5415,10.5415,0,0,1-.02143,2.19695c-.13136.71039.46646,1.26266.27211,1.97573a.75058.75058,0,0,0,.71981.67427,11.707,11.707,0,0,0,2.43418.02277,7.2523,7.2523,0,0,0,3.44216-1.42752,2.57129,2.57129,0,0,1,.5308-.33648,16.669,16.669,0,0,0,4.43945-3.13118,26.25459,26.25459,0,0,1,3.31618-2.60843l.004.04424a21.67493,21.67493,0,0,0,.21713,2.45162c.17426.50265-.075.92618-.03083,1.38328a1.40064,1.40064,0,0,0,.051.4571,2.06225,2.06225,0,0,1,.15145,1.31763.54477.54477,0,0,0,.72116.59108,2.17111,2.17111,0,0,1,.52006-.12331,7.68739,7.68739,0,0,0,4.14457-1.09373,2.32348,2.32348,0,0,1,.47045-.248,13.31451,13.31451,0,0,0,4.40863-2.52937,8.342,8.342,0,0,0,1.1313-.953c1.12861-1.27745,2.18756-2.61648,3.33761-3.87246a18.33151,18.33151,0,0,1,2.28943-2.09505,6.07691,6.07691,0,0,1,3.02263-1.47851.69284.69284,0,0,0,.61657-.70234A5.30573,5.30573,0,0,0,112.56486,140.19142ZM60.06364.648c.02415.067.04827.13405-.02277.19037C59.98458.76728,60.02477.707,60.06364.648ZM37.53271,147.13609c-.16353-.02278-.32843-.04156-.4933-.05766a2.15844,2.15844,0,0,1,.16222-.32437c.02814-.04555.29488-.02147.30159.00537.02814.126.06166.25466.08175.38471Z" style="fill:#fff;opacity:0.2"/><path id="fill1" d="M84.62063,146.552c-.01267-.17278.08035-.38868-.24754-.38709-1.78681.00879-3.58077-.09385-5.35835.03466-1.46852.10615-2.91535.495-4.377.72561-.40473.06383-.83258-.02954-1.242.01744-1.029.11809-2.05492.26551-3.07923.42016-.62585.09451-1.24519.231-1.86956.33626-.83665.14111-1.67666.26243-2.51264.40723-.62224.10781-1.23584.30148-1.86133.34729-1.29165.09465-2.56106.34946-3.85678.44893-1.44564.111-2.88256.35661-4.34463.34013a4.19653,4.19653,0,0,0-1.16237.19047c-.37391.10527-.7265-.28051-1.08844-.0093-1.02371-.46276-2.15436.06425-3.201-.36a3.52588,3.52588,0,0,0-1.23513-.02293,20.61524,20.61524,0,0,1-5.24276-.74075c-.84713-.22238-1.73943-.26984-2.60909-.41014-.80516-.12982-1.60961-.26635-2.41-.42233-.4675-.09112-.92079-.26771-1.39057-.3317-.73443-.1-1.47771-.1341-2.21668-.202-.64406-.05925-1.287-.1303-1.9311-.18942a4.47418,4.47418,0,0,1-1.84012-.183.94083.94083,0,0,0-.4734-.00743c-.655.05878-1.31429.096-1.96142.20435a1.01193,1.01193,0,0,0-.66545.40354c-.069.1259.13254.46985.29314.6401a8.34063,8.34063,0,0,0,3.27554,2.01949,12.25825,12.25825,0,0,1,4.1014,2.11545,1.46927,1.46927,0,0,0,.20193.12984,2.34557,2.34557,0,0,0,.057-.2631c.0665-.64338.51626-3.83729.60034-4.47828a1.54211,1.54211,0,0,1,.22855-.57094c.02781-.04609.29443-.0223.30067.00451a2.25118,2.25118,0,0,1,.09672.71717c-.05879.57326-.64882,3.69354-.62705,4.25976a6.82346,6.82346,0,0,0,.37146,1.753,1.10792,1.10792,0,0,1-.44939,1.301,3.76575,3.76575,0,0,1-2.15886.585,19.30633,19.30633,0,0,1-7.55692-1.64651c-1.1929-.50915-2.42057-.94355-3.5868-1.50648-1.06774-.51532-2.08452-1.14042-3.10483-1.74892a18.39219,18.39219,0,0,0-4.71022-2.04921,16.24714,16.24714,0,0,0-4.751-.52643c-.16693.00507-.45619.0564-.47292.13326a.77883.77883,0,0,0,.08232.61355c.70447.72732,1.429,1.43786,2.1819,2.115a18.49426,18.49426,0,0,0,4.03719,2.49559c.10641.05488.194.14528.29817.20571.19586.11372.39741.21761.59659.32556a2.74123,2.74123,0,0,0,.04382-.74088c-.15008-.69892-.8199-.93642-1.30416-1.31161-1.00337-.77736-2.0643-1.48014-3.09-2.2294-.09854-.072-.11593-.255-.171-.38653a1.04053,1.04053,0,0,1,.39076.05565,31.8262,31.8262,0,0,1,4.20036,3.03749c.18309.15859.34644.15163.36539-.14193a12.86473,12.86473,0,0,0,.1453-1.96658c-.25162-.2891.0161-.48008.07989-.69142.03261-.10807.23657-.16442.36309-.24413a1.08512,1.08512,0,0,1,.13873.38741,28.746,28.746,0,0,1-.37043,3.61632,8.77694,8.77694,0,0,0-.15654,2.22631,1.51174,1.51174,0,0,1-1.22072,1.67931,6.09819,6.09819,0,0,1-1.46779.37411,27.97653,27.97653,0,0,1-4.41526.16729A20.81587,20.81587,0,0,1,5.819,156.50459c-.63508-.23665-1.2578-.50661-1.88546-.76305-1.0916-.446-2.18595-.88552-3.27117-1.34651a1.59925,1.59925,0,0,1-.58792-.41415c-.18539-.22055.02647-.42911.09168-.6576a7.87637,7.87637,0,0,0,.21112-1.54156c.07788-.99353.10155-1.99212.20691-2.98234.06309-.593.26847-1.1697.35475-1.76175.08386-.57548.05537-1.153.17673-1.7413.21268-1.03112.3263-2.08039.58632-3.11088.2222-.88051.24719-1.80877.4085-2.70712.29246-1.6288.62837-3.24977.9322-4.8766.15-.80325.26753-1.61253.40222-2.41868.25424-1.52174.519-3.04184.761-4.56549.09142-.57546.12245-1.16019.19768-1.73853a37.6433,37.6433,0,0,1,1.12179-6.04132c.32823-1.09207.38671-2.263.60675-3.39055.15406-.78951.46868-1.55736.541-2.35044a17.81845,17.81845,0,0,1,.4068-2.32836c.27157-1.19891.42578-2.417.73927-3.61449.43373-1.65658.65723-3.36757.9901-5.05146.16817-.85064.37452-1.69386.5714-2.53864.25076-1.07592.5304-2.1455.76-3.22581.39963-1.88.73318-3.77463,1.16362-5.6472.45364-1.97345,1.00206-3.92488,1.48365-5.89216.47584-1.94376.899-3.90057,1.38582-5.84146.28839-1.14979.67561-2.27448.98154-3.4203.33073-1.2386.60537-2.49214.92954-3.73261.23241-.88939.51364-1.76589.75956-2.65189.38945-1.40309.74348-2.81643,1.15614-4.2125.61274-2.07291,1.33279-4.11642,1.87938-6.20588a60.21647,60.21647,0,0,1,2.30164-6.51552c.79028-2.03609,1.40538-4.13949,2.13744-6.19909.71127-2.0011,1.47458-3.98368,2.21248-5.97533.66622-1.79815,1.32518-3.599,1.995-5.39579.309-.82883.62544-1.65526.95793-2.47489.58731-1.44778,1.17123-2.89741,1.7906-4.33159.608-1.4078,1.25151-2.80044,1.89278-4.19361.34565-.751.704-1.49691,1.08307-2.23148a68.21913,68.21913,0,0,1,3.709-6.41179c1.05412-1.59194,1.97426-3.2724,3.02278-4.86831.619-.94212,1.37223-1.796,2.06454-2.68994A33.23747,33.23747,0,0,1,45.3918,5.68581c.06694-.06739.15164-.11674.22473-.17846.9128-.77074,1.78-1.6047,2.74674-2.30039A17.06394,17.06394,0,0,1,54.85454.16211a5.15388,5.15388,0,0,1,1.802-.12721c.88431.126,1.77378.21576,2.6585.3392.068.0095.11595.163.17322.24957-.07117.04031-.14578.1202-.213.1144Q58.70341.68883,58.13471.604a10.07676,10.07676,0,0,0-6.19387,1.16284c-.94222.47967-1.87042.98771-2.794,1.50248a4.39555,4.39555,0,0,0-.68047.52655c-.71032.6067-1.42912,1.20451-2.11914,1.83373A28.23437,28.23437,0,0,0,42.9197,9.368c-1.12778,1.521-2.163,3.11322-3.19062,4.70534-1.31312,2.0344-2.65546,4.05624-3.8421,6.16406-1.08526,1.92773-1.98586,3.95985-2.957,5.95124a68.341,68.341,0,0,0-2.69163,6.44765c-.3242.884-.77941,1.719-1.1336,2.59312-.5315,1.31163-1.03519,2.63476-1.53521,3.95885-.89619,2.37313-1.80255,4.74279-2.66275,7.129-.58114,1.61208-1.06432,3.25936-1.63906,4.87389-.62309,1.75031-1.32909,3.4712-1.94585,5.22361-.393,1.11684-.61453,2.29722-1.04772,3.396-.59027,1.49713-.8919,3.07185-1.38263,4.59454-.55527,1.72287-.99543,3.48334-1.46823,5.23214-.4969,1.838-.97726,3.68045-1.45737,5.5229-.54051,2.0742-1.06169,4.15353-1.61388,6.2246-.221.829-.51988,1.63691-.751,2.46343-.21674.775-.403,1.55911-.58056,2.3442-.20512.90676-.3754,1.82138-.58032,2.72818-.24349,1.07753-.52876,2.1459-.7584,3.22621-.39962,1.88-.673,3.79276-1.17976,5.64234-.54808,2.00028-.911,4.03014-1.3228,6.05524-.4053,1.99314-.91588,3.96486-1.32087,5.95805-.307,1.51106-.47928,3.04951-.78632,4.56056-.405,1.9932-.96931,3.95736-1.29849,5.96138-.20638,1.25648-.5283,2.49066-.64428,3.77388-.11982,1.32563-.42618,2.636-.56911,3.97388-.18175,1.70127-.62436,3.37338-.91771,5.06443-.22328,1.28724-.31969,2.59971-.60055,3.87274-.27185,1.23224-.40522,2.48678-.69877,3.71884-.18564.77918-.29164,1.60783-.43149,2.41445-.18561,1.07042-.40119,2.136-.56572,3.20952-.10262.66962-.07186,1.3634-.21222,2.02264-.26542,1.24657-.015,2.53318-.35866,3.772a4.3541,4.3541,0,0,0-.14837,1.36387c.009.17687.27837.4046.4802.49441.42993.19131.90352.28227,1.34075.45982.90122.366,1.78208.78285,2.68712,1.1385a19.38926,19.38926,0,0,0,2.10055.70334,11.86367,11.86367,0,0,0,2.63223.55326c1.4755.04267,2.94609.55021,4.441.04756a5.94082,5.94082,0,0,1,1.63837-.19858,2.16542,2.16542,0,0,0,1.19444-.37153c.68127-.45456.69756-.404.40541-1.147-.17614-.448-.18125-.98713-.68544-1.24246-.108-.05471-.33279-.082-.38-.023a3.78234,3.78234,0,0,1-2.351,1.03923,19.22067,19.22067,0,0,1-5.08618.17238,17.0852,17.0852,0,0,1-3.30168-.55686,5.25606,5.25606,0,0,1-2.52584-1.28188c-.08187-.07838-.06885-.25581-.09984-.38732.10894.018.25118-.002.32175.0598a6.62083,6.62083,0,0,0,2.89205,1.34134,8.93053,8.93053,0,0,0,1.6082.27164c1.59935.09075,3.20458.22758,4.80084.168a7.38177,7.38177,0,0,0,2.93762-.73489c.4638-.22581.48257-.30419.09024-.58681a14.30879,14.30879,0,0,0-1.22031-.748c-.1518-.08773-.3406-.1151-.485-.21134-.25371-.16911-.48617-.3701-.72753-.55772a6.17255,6.17255,0,0,1,.0591.80774.7825.7825,0,0,1-.983.71472,3.25943,3.25943,0,0,1-1.78527-1.392c-.2306-.413-.07341-1.04383-.07979-1.577-.00034-.02779.10463-.0882.14782-.07822.07769.018.19617.06579.20963.12213.09069.38.14637.76829.23632,1.14849a1.324,1.324,0,0,0,.86933,1.04785,1.42306,1.42306,0,0,0,.83381.02236c.2373-.08114.2815-.786.06527-1.00936-.86539-.894-1.75385-1.7657-2.6338-2.64563-.78075-.09416-.55513-.83877-.64771-1.23682-.10853-.46653.23238-1.02467.3212-1.55266.2115-1.25748.38027-2.52207.58312-3.78108.24547-1.52316.51779-3.042.76058-4.56556.20565-1.29048.3548-2.59062.58642-3.87615.2123-1.17832.52028-2.33912.74855-3.515.11079-.57069.12285-1.15982.20246-1.73747.13275-.96316.27424-1.92531.43086-2.88481.09191-.56317.27514-1.116.32079-1.68122.099-1.22547.59494-2.38251.59407-3.623-.00007-.10115.11525-.20522.18459-.30249a1.22836,1.22836,0,0,1,.13842-.14176.484.484,0,0,1,.04838.16979c-.0682.60845-.12785,1.21845-.2203,1.82338-.10019.65573-.2336,1.30633-.35074,1.95951q-.26371,1.47054-.52438,2.94163c-.084.4766-.19447.95154-.23557,1.43213a40.33714,40.33714,0,0,1-.75748,4.6629c-.26208,1.27826-.40455,2.58153-.58686,3.87557-.19995,1.41916-.37587,2.84176-.57889,4.26047a32.08928,32.08928,0,0,0-.57647,3.97424c-.002.11272-.09234.22212-.1034.33675-.02267.23511-.01934.47269-.02672.70928a3.31377,3.31377,0,0,1,.53139-.25486,9.42049,9.42049,0,0,1,1.81684-.453,7.60644,7.60644,0,0,1,3.97181.55711c.42558.20683.85473.41165,1.25806.65711.26017.15834.37842.20157.4129-.16925.03341-.3593.1315-.712.18283-1.07028.14259-.99548.22674-2.00217.425-2.98608.24312-1.20679.59649-2.38481.74823-3.61867.15335-1.24692.51235-2.46725.7336-3.70769.11876-.66576.11187-1.353.20742-2.024.1321-.92773.30853-1.84909.46328-2.77366.04016-.24.06652-.48226.10555-.72244.12137-.74695.25794-1.49168.36524-2.24062.087-.60721.14868-1.2185.2063-1.82941.07267-.77041.10546-1.54529.19886-2.313.17307-1.4226.39244-2.83961.5633-4.26247.096-.79932.04591-1.62491.21761-2.40433.26223-1.19038.0138-2.44747.53635-3.60353.11976-.26495-.00424-.632.02248-.94887.04636-.54938.12064-1.09651.19034-1.64366.0062-.04857.06472-.09052.09893-.13553.0296.05156.08387.10265.08485.15474a4.59209,4.59209,0,0,1-.01,1.14521,29.69176,29.69176,0,0,0-.36866,3.19517c-.19247,1.45216-.40214,2.90241-.56759,4.35763-.10173.89461-.11789,1.79859-.20332,2.69544a16.79564,16.79564,0,0,1-.35993,2.5267,13.6921,13.6921,0,0,0-.21,1.92631c-.12612,1.22362-.221,2.45175-.39318,3.66889-.13878.98113-.4076,1.94354-.55434,2.92391-.16788,1.1217-.23294,2.25883-.40193,3.38032-.14305.94941-.44532,1.87884-.53753,2.83064a21.28435,21.28435,0,0,1-.40381,2.32762c-.21658,1.03222-.41774,2.06953-.56817,3.113a6.07929,6.07929,0,0,0,.002,1.52816c.03964.354-.51626.66978-.06767,1.00934a4.78389,4.78389,0,0,0,.92361.53846c1.587.71271,3.1937,1.38258,4.76946,2.11888a33.97143,33.97143,0,0,0,4.12165,1.603,21.27853,21.27853,0,0,0,3.27981.84471,8.45471,8.45471,0,0,0,2.20193-.193c.095-.01183.24643-.17769.23792-.258-.01045-.09869-.14539-.21853-.25423-.26705-.88863-.396-1.78233-.78075-2.67719-1.16253a9.53149,9.53149,0,0,1-3.648-2.29166,1.10194,1.10194,0,0,1,.40345-1.90885,3.58089,3.58089,0,0,1,1.16068-.19494c.92454-.02715,1.85386-.05819,2.77471.0061.81359.05682,1.61733.24729,2.42733.36578.57711.08448,1.19144-.17554,1.74446.18556.02748.01795.17377-.06857.19511-.13048a1.16665,1.16665,0,0,0-.89046-1.57778,5.64,5.64,0,0,0-.66853-.00927,8.29925,8.29925,0,0,0-2.209-.14385,12.61989,12.61989,0,0,1-2.1319.14013,6.79931,6.79931,0,0,0-2.74152.78074,1.115,1.115,0,0,0-.34653.39041,2.23722,2.23722,0,0,0-.16913.36683c-.13642-.11111-.34846-.19641-.39662-.33761a4.92857,4.92857,0,0,1-.15679-2.29078,4.70814,4.70814,0,0,0,.137-.60946,11.36889,11.36889,0,0,1,.38173-3.09835,3.11709,3.11709,0,0,0,.0097-.6677,32.322,32.322,0,0,1,.22842-4.12593,23.99734,23.99734,0,0,1,.708-3.90819c.15614-.44524.0385-.95535.17759-1.45473.19568-.70264.04178-1.50566.25287-2.20026.31264-1.02871-.07024-2.10741.347-3.10782a1.24458,1.24458,0,0,0,.00726-.47533,13.47358,13.47358,0,0,1,.36445-3.38763,18.10268,18.10268,0,0,0,.21269-2.21344q.17878-1.74075.38671-3.47843a2.17163,2.17163,0,0,1,.18561-.49569c.03811-.09739.07806-.19407.11717-.29108.02471.08549.0816.1764.06833.25553-.04945.295-.15065.58336-.18018.87944-.08.80157-.0817,1.61415-.21012,2.40686-.15652.966-.10522,1.94846-.34723,2.91234a11.87669,11.87669,0,0,0-.21,2.21264c-.07752,1.37675-.086,2.75887-.20734,4.13131-.14,1.58444-.32,3.16928-.57808,4.73823-.21752,1.32238-.425,2.64224-.60416,3.97037-.12275.90992.00861,1.8222-.16923,2.69815-.20909,1.02981-.11612,2.07245-.32182,3.10826a23.982,23.982,0,0,0-.22343,3.551.94762.94762,0,0,0,.11178.32106c.1068-.05027.24866-.07254.31484-.15529a2.83527,2.83527,0,0,1,1.97424-.77061,20.05182,20.05182,0,0,1,3.26579-.20888c.93054-.00363,1.86146.11521,2.79246.17605a1.29479,1.29479,0,0,0,.47452-.01057.42342.42342,0,0,0,.23918-.27832,5.27109,5.27109,0,0,0,.01231-.66812c.06146-1.53716.03746-3.08519.22621-4.60676.10042-.80935.07338-1.61424.16643-2.41272.19422-1.66655.32848-3.333.38772-5.01122.05227-1.48138.20267-2.96235.37711-4.43553.18605-1.57137.33375-3.14055.38981-4.72392a21.12858,21.12858,0,0,1,.41147-3.56574c.06869-.32847-.204-.51978-.059-.81481a2.488,2.488,0,0,0,.199-.8718c.0801-.92941.104-1.8644.207-2.79086.07983-.71823.24347-1.42732.3769-2.13917a.66855.66855,0,0,1,.115-.19318c.02433.05373.07161.1086.06906.161-.012.24708-.02749.495-.063.73948-.01653.11367-.11167.21811-.1198.33046a17.39225,17.39225,0,0,1-.23275,2.97429c-.27771,1.09971.08564,2.233-.33549,3.301a1.88053,1.88053,0,0,0-.01048.66578,15.7807,15.7807,0,0,1-.38157,3.47931,1.18788,1.18788,0,0,0-.00205.191c-.06334,1.44136-.09716,2.88488-.201,4.32332-.0771,1.06755-.2457,2.12851-.372,3.19258-.00747.06293.00153.12762-.00134.19131-.06333,1.40946-.03513,2.83117-.221,4.22432-.14206,1.06473-.03319,2.13483-.19477,3.17414-.131.84289-.03577,1.69048-.18691,2.50511a9.54457,9.54457,0,0,0-.14955,2.22274c.02012.41263.034.89005.52737,1.09873a1.52785,1.52785,0,0,0,.42412.12868c1.6.16647,3.1746.55,4.76123.71811,1.55144.16441,3.00809.68714,4.555.85611a49.93194,49.93194,0,0,0,5.31828.55772,35.42242,35.42242,0,0,1,3.61728.33913c.52757.05591,1.05274-.3417,1.57832-.0006a9.16241,9.16241,0,0,1,2.99372-.15769,12.38588,12.38588,0,0,0,2.33658-.37355,3.46006,3.46006,0,0,1,.85455-.01984,10.35412,10.35412,0,0,0,2.62137-.368c.591-.147,1.226-.10713,1.82962-.21609.85348-.1541,1.693-.38431,2.54451-.55087.50839-.09942,1.02829-.14015,1.54319-.20611,1-.12811,1.99829-.27444,3.0012-.37374.40557-.04015.56947-.21926.53432-.59684a6.90577,6.90577,0,0,0-.18582-2.507c-.02465-.05214-.00065-.12622-.00357-.18991a30.49645,30.49645,0,0,0-.23609-4.12427c-.192-1.03787.09061-2.10923-.33488-3.10562a.60569.60569,0,0,1-.00341-.19014c-.06327-1.24992-.10064-2.50191-.19891-3.74906-.09007-1.14356-.07542-2.30055-.22609-3.42741-.09554-.71449-.066-1.424-.15743-2.12694-.20414-1.56958-.33544-3.14047-.39138-4.72383a27.84964,27.84964,0,0,0-.37863-3.47747c-.20363-1.251-.27807-2.50842-.39658-3.76567-.14443-1.532-.49847-3.04343-.73288-4.56821a15.32785,15.32785,0,0,1-.1887-2.02581,14.16611,14.16611,0,0,0-.57391-3.30626,12.18213,12.18213,0,0,1-.20141-1.44971q-.28631-2.13066-.57452-4.26111c-.06137-.45252-.133-.90377-.18571-1.35725-.00923-.07939.05214-.167.08094-.25077a.70738.70738,0,0,1,.10112.22506c.07423,1.37359.44872,2.7031.63244,4.06216a23.86349,23.86349,0,0,0,.67132,3.72267,23.13435,23.13435,0,0,1,.4306,3.37c.15811,1.10606.39733,2.20049.55779,3.3063.07907.54458.04261,1.09047.1683,1.64966.18855.839.09488,1.738.24272,2.59041a16.26318,16.26318,0,0,0,.34213,2.43649,7.58637,7.58637,0,0,1,.2105,1.73245c.07481.898.13393,1.79732.19348,2.69651a18.0197,18.0197,0,0,0,.38179,3.28793,1.0001,1.0001,0,0,1,.0024.19092,27.3608,27.3608,0,0,0,.2321,3.83744c.21342,1.101-.09288,2.23508.339,3.2966a.64047.64047,0,0,1,.0033.19027c.06321,1.15418.10986,2.30963.19535,3.46218.10977,1.48.16883,2.97154.41359,4.43059.12046.718.10678,1.41938.159,2.12807.05218.70832.11573,1.41622.19975,2.12126.01164.09744.17572.2593.25864.253.85925-.06577,1.71973-.135,2.57323-.25184a9.80589,9.80589,0,0,1,4.19916-.13581,9.0185,9.0185,0,0,0,1.83051.20382c.34672.026.51689.173.51027.52553-.00659.35087-.01192.70241.00292,1.05276a1.30461,1.30461,0,0,0,.09973.53072,1.10421,1.10421,0,0,1-.47859,1.7192,71.81707,71.81707,0,0,0-6.673,4.00623,25.21447,25.21447,0,0,0-1.90291,1.69531c-.02574-.19762-.05684-.39447.02718-.48948a11.02127,11.02127,0,0,1,1.64987-1.73621c.93263-.67244,2.04125-1.10267,2.96572-1.78416a22.8872,22.8872,0,0,1,3.30513-1.93563,3.87565,3.87565,0,0,0,.66357-.46877c.33537-.27178.30587-.40418-.11232-.62314-.05319-.02783-.12417-.06719-.1391-.11584-.191-.62267-.70409-.43346-1.13271-.457M82.036,144.63748a5.81243,5.81243,0,0,0-.86012.00631c-1.16643.17643-2.3233.45283-3.49527.54529a20.75,20.75,0,0,0-3.093.40036c-.41247.09594-.838.13794-1.25872.19576a24.96744,24.96744,0,0,0-2.984.42534,35.7178,35.7178,0,0,1-4.48.71772c-.76562.10178-1.5592.05043-2.30671.21776a14.13965,14.13965,0,0,1-3.38494.36576c-.7012-.01365-1.40377-.024-2.10393.006-.39008.01671-.77742.17556-1.1643.16923-.52741-.00867-1.05192-.12929-1.58-.174-.73891-.06252-1.48644-.10285-2.21893-.14553a36.77664,36.77664,0,0,1-4.62262-.42429,15.78252,15.78252,0,0,1-2.79061-.42841,33.23267,33.23267,0,0,0-4.50216-.89512c-1.06423-.25559-2.19784-.21487-3.27128-.44353-.37157-.07914-.42019.01507-.50847.24677-.31275.82082-.02106,1.26922.84,1.32395a5.00753,5.00753,0,0,1,.62485.10542c.79679.1539,1.59136.32,2.3901.46284.83386.14913,1.67256.27084,2.50735.4149,1.3975.24114,2.78518.5902,4.19258.70862,1.41534.11912,2.82932.33137,4.24012.37674,2.10556.0677,4.22-.06359,6.32759-.17068.97138-.04936,1.93426-.25278,2.90335-.366.70474-.08234,1.41554-.11387,2.11949-.20134.44556-.05534.88271-.176,1.325-.26024.88715-.169,1.77232-.35112,2.6637-.49436.932-.1498,1.88178-.20589,2.80294-.40125a17.43793,17.43793,0,0,1,3.68673-.573,7.26734,7.26734,0,0,0,2.20769-.20622,17.50613,17.50613,0,0,1,4.4921-.51525,13.43915,13.43915,0,0,1,4.13124.145c.14775.038.466-.08645.49609-.194.06542-.234.14278-.57777-.30819-.60979-.11033-.00785-.21241-.12421-.32328-.134-.83357-.07359-1.66841-.13295-2.69429-.19678M16.3677,146.552c-.62146-.55194-1.43287-.40885-2.15628-.558-1.28822-.26565-2.42691.37092-3.58856.781-.15041.05308-.19325.41086-.28592.62748.15134-.02.30236-.04316.45413-.05913.1236-.013.248-.02262.37223-.02479a11.56906,11.56906,0,0,1,4.64567.55762c.90118.362,1.894.44435,2.789.88832,1.93665.96073,3.68768,2.26135,5.71255,3.06047,1.15.45383,2.272.97925,3.40344,1.47962a18.05631,18.05631,0,0,0,7.51578,1.49243,3.262,3.262,0,0,0,1.32739-.501.42681.42681,0,0,0,.17863-.37629,3.22568,3.22568,0,0,0-1.1424-1.71828.66618.66618,0,0,0-.50805-.04008c-.6155.20246-1.2157.4511-1.82949.65931a.95831.95831,0,0,1-.55108.04029c-1.28291-.39856-2.597-.66885-3.89488-.99891a24.76961,24.76961,0,0,1-3.776-1.48876c-1.59155-.70016-3.14643-1.48449-4.74528-2.16656-.35243-.15034-.76575-.59453-1.23858-.1442-.03835.03651-.27954-.03762-.30641-.10692-.323-.83277-1.352-.74337-1.81328-1.39563C16.88785,146.49989,16.68667,146.552,16.3677,146.552Zm83.74658-3.91076a.53089.53089,0,0,1-.22529-.06188,1.99226,1.99226,0,0,0-2.28418-.57644,15.19578,15.19578,0,0,0-3.685,1.488c-.48219.30606-.94133.64923-1.4312.94158-.07771.04641-.37781.45267-.419-.12676-.05775-.8134-.28078-1.6142-.35486-2.42747-.10475-1.15014-.05226-2.32064-.236-3.45508-.10021-.61879-.05969-1.23879-.17413-1.837a15.34056,15.34056,0,0,1-.36643-3.09837,1.61324,1.61324,0,0,0-.00881-.57062,13.14685,13.14685,0,0,1-.33526-3.00872,42.99108,42.99108,0,0,1-.22957-4.4129c-.00273-.06369.02531-.1449-.00425-.18874-.32824-.48658-.1331-1.03315-.18865-1.55011-.05887-.5483-.13854-1.09457-.18757-1.64366a16.26184,16.26184,0,0,0-.22749-2.496c-.15722-.62617-.06327-1.23814-.16839-1.84124-.22172-1.27179-.49658-2.53446-.75744-3.79926-.10868-.52694-.24388-1.04839-.355-1.57483-.14265-.676-.31113-1.34959-.40029-2.03314-.14067-1.07825-.43479-2.13052-.66871-3.18082-.26348-1.183-.47583-2.38879-.83342-3.56406-.41862-1.37576-.485-2.85463-.82352-4.26-.28851-1.1978-.52018-2.40249-.75176-3.61012-.16322-.85121-.39842-1.68856-.56368-2.53944-.213-1.09681-.40777-2.198-.57384-3.30279-.15451-1.02768-.243-2.06523-.39343-3.09361-.17084-1.16781-.396-2.3277-.56428-3.49583-.15268-1.06-.25084-2.12784-.40065-3.18833-.01853-.13137-.20655-.2388-.316-.35731a3.08845,3.08845,0,0,1,.09091.39473c.02532.24815.03875.49805.04436.74753a7.14688,7.14688,0,0,0,.0094.95575c.17156,1.07227.395,2.13636.55952,3.20957.10264.66943.10542,1.35412.208,2.02353.081.52848.2811,1.03845.36585,1.56667.15459.96358.26292,1.93461.39057,2.90253.0638.484.09832.974.19732,1.45067.23716,1.1421.50579,2.27766.7595,3.41635q.19536.87682.38265,1.75542c.1308.61638.26411,1.23236.38183,1.85126.214,1.125.39183,2.25743.63295,3.37639.20045.93009.55926,1.83311.68751,2.77006.18038,1.31764.52327,2.59448.78718,3.89064.38332,1.88288.80379,3.75927,1.13651,5.65108.25346,1.441.41128,2.8997.58186,4.354.15065,1.28422.32378,2.57095.37134,3.8608.05719,1.55111.284,3.08657.36564,4.62751.10215,1.92848.18107,3.85255.393,5.77558.12092,1.09714.23665,2.19187.386,3.28677.15567,1.14133.14408,2.30514.21321,3.4587.0577.9628.12627,1.925.19028,2.88742a1.05216,1.05216,0,0,0,.01662.18468c.1857.73959.09474,1.11759-.55141,1.40091a4.88946,4.88946,0,0,0-1.31131.99662c-.24691.22485-.53079.40892-.79659.61325a19.11416,19.11416,0,0,0-2.87922,2.29682,1.89747,1.89747,0,0,1-.438.32336c-.71091.43811-1.42837.86567-2.13814,1.30558-.53421.33112-1.04925.69446-1.59264,1.00924a9.96864,9.96864,0,0,1-3.08519,1.335c-.094.018-.1596.184-.23841.28129.08311.03038.18092.10587.2471.08428a14.09559,14.09559,0,0,0,2.28439-.7291c1.35581-.70357,2.57279-1.61851,3.90048-2.35726a4.11949,4.11949,0,0,0,1.11677-.75118,30.92323,30.92323,0,0,1,4.33195-3.46356,23.428,23.428,0,0,1,6.37137-3.75339,11.192,11.192,0,0,1,1.835-.41964,1.06013,1.06013,0,0,1,1.06514.40106.61347.61347,0,0,1-.08364.8463c-.0069.00678.19432.27634.22384.26264.18407-.08553.367-.30877.3417.14084-.02145.38157.01316.76674-.01706,1.14712a.37017.37017,0,0,1-.26462.24458,1.31552,1.31552,0,0,1-.51939-.11606,5.233,5.233,0,0,0-3.29233.09161,13.866,13.866,0,0,0-2.98189,1.35863,30.95257,30.95257,0,0,0-5.697,4.26427,6.25425,6.25425,0,0,1-.73232.54115c-1.41309.89842-2.79619,1.85252-4.26067,2.65837a4.65816,4.65816,0,0,1-3.02108.79968,8.7323,8.7323,0,0,0-1.24237-.01169c-.70009-.01119-.71855-.0394-.56716-.7646-.51542-.14824-.35049-.575-.385-.92564a1.48285,1.48285,0,0,1,.60549-1.36924,43.56378,43.56378,0,0,1,6.58089-4.8024,1.32907,1.32907,0,0,0,.426-.513,6.7812,6.7812,0,0,0-1.05886.52706,30.78984,30.78984,0,0,0-6.177,4.50244,2.15054,2.15054,0,0,1-.3361.22585c-.07658-.12781-.2187-.25523-.21947-.38351a23.064,23.064,0,0,1,.16094-4.92257c.05126-.17234.26486-.328-.02458-.41722-.1825-.05625-.44138-.09713-.44727.28213-.00283.18237-.27684,3.369-.24379,3.51975a4.411,4.411,0,0,1,.1542.795,10.57041,10.57041,0,0,1-.02136,2.19608c-.13128.71114.46608,1.26339.27231,1.97653a.75066.75066,0,0,0,.71919.6744,11.705,11.705,0,0,0,2.43429.02165,7.2527,7.2527,0,0,0,3.44243-1.42662,2.55928,2.55928,0,0,1,.5301-.33628,16.67318,16.67318,0,0,0,4.43976-3.13109,26.86413,26.86413,0,0,1,3.47047-2.71538,16.22069,16.22069,0,0,1,5.06955-2.32622,4.00415,4.00415,0,0,1,2.47176.14672c.23277.0911.398.43441.51432.69747.03749.08479-.15266.37309-.28662.415a23.27879,23.27879,0,0,0-4.2,2.11362,7.20979,7.20979,0,0,0-2.11713,1.57449,3.54033,3.54033,0,0,0-.45014.86294c-.02578.05784.05326.1624.08392.24541.09694-.04762.25261-.07228.28164-.14646a2.88475,2.88475,0,0,1,1.31135-1.46121c.70049-.4142,1.311-.98028,2.0108-1.39593.915-.54353,1.87779-1.00711,2.82467-1.496a.98913.98913,0,0,1,.32446-.04316c.009.08638.05955.20664.02085.25411-.702.8603-1.25828,1.88508-2.34247,2.34384a10.47446,10.47446,0,0,0-4.18088,2.84887c-.06072.07343-.13464.1915-.20209.19129-.11075-.00037-.30812-.06675-.31819-.12954-.08745-.54407-.16135-1.0924-.19409-1.64212-.01134-.19031.20033-.42222.14548-.57658-.21868-.61535-.52365-2.21023.02766-2.736a.32644.32644,0,0,0-.46785-.44477c-.26176.21071-.52982.41918-.47667.85439a21.52288,21.52288,0,0,0,.21658,2.45188c.17406.50278-.07455.92586-.03059,1.3835a1.42074,1.42074,0,0,0,.05057.4572,2.06351,2.06351,0,0,1,.15163,1.317.54493.54493,0,0,0,.72071.592,2.1625,2.1625,0,0,1,.52034-.12319,7.69619,7.69619,0,0,0,4.14447-1.09393,2.2856,2.2856,0,0,1,.47087-.24811,13.33454,13.33454,0,0,0,4.40842-2.52917,8.32473,8.32473,0,0,0,1.13166-.95367c1.12789-1.27718,2.18684-2.61632,3.33743-3.872a18.32874,18.32874,0,0,1,2.28855-2.09505,6.084,6.084,0,0,1,3.02309-1.47864.69316.69316,0,0,0,.61678-.70306,5.29746,5.29746,0,0,0-.00407-1.05152c-.17032-1.1363-.403-2.26368-.55867-3.40172-.16231-1.18676-.25895-2.38239-.39237-3.57326-.06458-.57644-.12092-1.15585-.22862-1.7249-.15579-.82328-.38627-1.63308-.52556-2.45862-.1126-.66731-.07034-1.36441-.21723-2.02136a12.78061,12.78061,0,0,1-.3672-2.908,1.3079,1.3079,0,0,0-.00477-.38137,12.37765,12.37765,0,0,1-.379-2.71446,18.7181,18.7181,0,0,0-.2052-2.2151c-.266-1.3168-.32789-2.65762-.553-3.97792-.10313-.605-.07025-1.23774-.2133-1.83031a12.72359,12.72359,0,0,1-.37632-2.62069,7.65329,7.65329,0,0,0-.21982-2.11052,11.30606,11.30606,0,0,1-.17837-1.454c-.18956-.94392-.39164-1.88637-.54234-2.83673-.10605-.66883-.09509-1.35665-.20818-2.02381-.22635-1.335-.514-2.65943-.75362-3.99233-.20888-1.16194-.29559-2.35376-.59871-3.489a55.25445,55.25445,0,0,1-.932-5.54444c-.09267-.57516-.1051-1.16344-.2019-1.73769-.17012-1.00912-.40072-2.00829-.56167-3.01867-.1585-.99513-.258-1.99958-.39146-2.99886-.06018-.45068-.12006-.903-.21452-1.34725-.23649-1.11212-.49562-2.2194-.74017-3.32984-.29634-1.34561-.57114-2.69616-.88451-4.03773-.32542-1.3932-.68995-2.77721-1.02944-4.16716-.26208-1.07316-.4973-2.153-.77107-3.22312-.302-1.18039-.65678-2.34752-.94639-3.53076-.24238-.99017-.39128-2.0035-.64148-2.99142-.2618-1.03374-.69126-2.03237-.87582-3.07667-.32338-1.82943-.99253-3.56252-1.3717-5.37367-.12653-.60435-.39912-1.17659-.5586-1.77584-.33713-1.26694-.60386-2.55377-.97477-3.8102-.32551-1.10271-.76343-2.1718-1.13425-3.26167-.457-1.343-.87757-2.69861-1.34866-4.03653-.35238-1.00079-.74751-1.98718-1.14553-2.9711-.608-1.50294-1.21423-3.0072-1.85989-4.4941a39.20683,39.20683,0,0,0-1.80247-3.8438c-.45816-.80328-.782-1.663-1.24056-2.45723-.64026-1.10907-1.29915-2.20754-1.96118-3.30387-.50943-.8437-.996-1.70534-1.56443-2.50829-.79211-1.11894-1.693-2.16177-2.46886-3.29107a15.19482,15.19482,0,0,0-2.25665-2.79683c-.35505-.32-.67957-.67383-1.018-1.01225-.98883-.98884-1.97146-1.984-2.9681-2.96492A23.4308,23.4308,0,0,0,70.0349,4.38064a18.47376,18.47376,0,0,0-4.92152-2.43672c-1.3222-.34843-2.59873-.832-3.94266-1.13417A10.01958,10.01958,0,0,0,56.40356.47547a2.07269,2.07269,0,0,0-.28514.118,2.53163,2.53163,0,0,0,.35343.06914,13.59931,13.59931,0,0,1,3.082.18461c1.40243.40012,2.81846.7556,4.23713,1.09494a20.39712,20.39712,0,0,1,5.33637,2.36792A18.3645,18.3645,0,0,1,71.07691,5.6088c.97855.74066,1.95793,1.48737,2.87235,2.30387,1.27116,1.135,2.48449,2.33484,3.71847,3.5112a9.13149,9.13149,0,0,1,.99657,1.00875c.68.88992,1.31638,1.81309,1.97118,2.72226a51.70891,51.70891,0,0,1,2.9982,4.219,60.773,60.773,0,0,1,3.32587,6.08316c.63308,1.45734,1.47754,2.82514,2.0683,4.31288.70708,1.78077,1.47565,3.53769,2.15808,5.32762.95635,2.50842,1.90265,5.0225,2.76819,7.56314.65889,1.93408,1.26234,3.89435,1.749,5.87768.48265,1.967.99049,3.92416,1.54487,5.87168.32656,1.147.56288,2.3195.85041,3.47791q.62447,2.51584,1.2649,5.02777c.31494,1.24087.644,2.47821.9535,3.72041.14476.581.24862,1.17211.38779,1.75462.298,1.24742.6067,2.4923.91162,3.73805.26942,1.10081.57749,2.19384.79918,3.30413.23717,1.18786.31086,2.41251.604,3.584a52.001,52.001,0,0,1,.92032,5.35406c.14141.9969.28886,2.00757.46264,2.98666.207,1.166.25493,2.35086.50275,3.50827.12761.59612.12791,1.21855.23684,1.81983.15483.85488.37583,1.69772.53386,2.55211.22,1.18931.40212,2.38566.61154,3.577.17217.97947.38,1.953.53489,2.935.10058.63781.09972,1.29194.20552,1.92855.23228,1.39774.528,2.785.7506,4.18415.16824,1.05741.268,2.12592.38989,3.19046q.29317,2.56056.57429,5.12246a18.41255,18.41255,0,0,0,.207,1.92754,15.29112,15.29112,0,0,1,.37515,2.62019,12.58207,12.58207,0,0,0,.20134,2.11895,13.47461,13.47461,0,0,1,.36666,3.00379,3.515,3.515,0,0,0,.00386.57366c.18327,1.16636.35521,2.33531.57784,3.49438a25.93226,25.93226,0,0,1,.41134,2.71143c.07381.87.3192,1.731.35487,2.62a6.43846,6.43846,0,0,0,.205,1.63688,9.90326,9.90326,0,0,1,.37477,2.71979c.011.4188-.15392.45858-.49114.44666a3.13459,3.13459,0,0,0-1.50072.30226,16.39245,16.39245,0,0,0-4.10194,3.01944c-1.85091,1.70494-3.53895,3.5749-5.513,5.16308a14.40385,14.40385,0,0,1-3.47361,2.27372,2.7379,2.7379,0,0,0-.41749.26689c.19531-.0193.39118-.03443.58571-.05974a.87926.87926,0,0,0,.25851-.06768,22.07,22.07,0,0,0,5.31641-3.79542c.80365-.72669,1.54212-1.52564,2.3073-2.29463a21.31686,21.31686,0,0,1,4.49837-3.70531c.68569-.3877,1.3695-1.06012,2.29975-.5383.1219.06838.34616.04522.395.13452a3.18525,3.18525,0,0,1,.20636.67831c-.22454.04941-.44843.10211-.67387.147a1.598,1.598,0,0,0-.44572.07785c-.72718.4024-1.6.52-2.19,1.20242-.31871.36858-.77208.617-1.12378.96145a46.44816,46.44816,0,0,0-3.35559,3.38593,17.42466,17.42466,0,0,1-5.40277,4.51508c-.6279.324-1.32395.52446-1.929.88254a7.95163,7.95163,0,0,1-3.78439,1.03212,1.65631,1.65631,0,0,1-.42659-.0954,1.35021,1.35021,0,0,1,.2081-.389c.48113-.441.95988-.889,1.47766-1.28462a9.28375,9.28375,0,0,1,1.8683-1.2619,7.71153,7.71153,0,0,0,2.42627-1.527c.47555-.46461,1.10506-.85093,1.0984-1.64674.84607-.54391.57347-1.40194.56214-2.15492-.02131-1.41-.13908-2.81837-.17439-4.22844-.07918-3.16388-.13251-6.32841-.196-9.49267a2.57846,2.57846,0,0,0-.00194-.28692c-.12487-.93663-.28748-1.86966-.37243-2.80977-.10108-1.11885-.1366-2.24363-.19977-3.36587a1.86128,1.86128,0,0,0-.00176-.19122c-.18967-1.16535-.41927-2.32576-.56153-3.49682-.12-.98776-.13966-1.98774-.20218-2.9824-.006-.09535.03076-.206-.00577-.28482a7.9609,7.9609,0,0,1-.35458-2.24036c-.15782-1.01184-.06408-2.065-.245-3.07038-.123-.68345-.06207-1.36695-.18-2.02867a28.01489,28.01489,0,0,1-.36893-3.48186,3.111,3.111,0,0,0-.12616-.54563c-.084.18855-.17888.37327-.24693.56741a.94014.94014,0,0,0-.00514.28543c-.01239,1.14355.27276,2.26.34691,3.38543.08956,1.359.22714,2.7042.40378,4.05272.11246.85873.06093,1.7302.16824,2.60361.14588,1.18714.30011,2.38.3963,3.57182.09921,1.229.26755,2.44691.38349,3.6705.10732,1.13213.251,2.25561.3876,3.38317.24093,1.98883.22661,3.99978.37358,6.00008.20134,2.74042-.16483,5.50427.22055,8.24628Zm-13.962-10.25675c.06383.83509.121,1.57514.19578,2.31338.02082.20592.12445.40478.13651.61.02834.48249.30812.87982.1133,1.47061a4.24116,4.24116,0,0,0,.2642,1.95182c.06556.30967.21807.70538.461.05759.01939-.05177.16016-.058.24452-.08544a.75456.75456,0,0,1-.048.25394c-.29987.49392-.59376.9582-.23836,1.58152.12356.21674.00386.5644.02678.84976a1.37614,1.37614,0,0,0,.15014.378c.13905-.10846.39482-.216.39569-.3256a5.08906,5.08906,0,0,0-.1475-1.07989,3.84115,3.84115,0,0,0-.209-.48625c-.0164-.04469.02854-.1119.04529-.16878a.55764.55764,0,0,1,.13446.0458,1.34345,1.34345,0,0,1,.20519,2.08626,1.13321,1.13321,0,0,0-.39356.99274c.07584.834.13307,1.6697.19339,2.505a1.45231,1.45231,0,0,1-.00577.47645,7.45163,7.45163,0,0,1-.2826.73768c-.28218-.17629-.29078-.44982-.28779-.74382.00942-.92523.00028-1.85066.00521-2.776.00173-.321-.07441-.3797-.38779-.22293-.52593.26316-1.08856.4518-1.628.68934a2.18707,2.18707,0,0,1-2.46687-.37521,18.55278,18.55278,0,0,1-1.40192-1.4161,1.07919,1.07919,0,0,1,.27559-1.66949,2.64042,2.64042,0,0,1,1.986-.38492c.11326.015.33871-.08684.35-.15976.048-.30861.08292-.68939-.32153-.77347a6.01759,6.01759,0,0,0-1.05-.01592c-.72928-.01867-.96383-.40361-.54655-.99968.15773-.22532.074-.32422.0276-.51042a5.38639,5.38639,0,0,1-.39349-2.13737c.02351-.15529-.05287-.35927.0225-.46669.20424-.29094.71227-.637.65361-.7896-.132-.34331-.43158-.61551-.49216-1.04193-.1614-1.13626.27645-1.669,1.38864-1.50725a2.44173,2.44173,0,0,1,1.86573,1.432c.05511.111-.03562.29445-.05885.44437a1.1328,1.1328,0,0,1-.38844-.15719,1.66926,1.66926,0,0,0-1.066-.667c-.089-.00427-.25535.02994-.2592.06175-.0517.426-.08631.85448-.1005,1.28319a2.81547,2.81547,0,0,0,.33411.08115,5.10478,5.10478,0,0,1,2.13589.85971c.06533.06125.212.03576.32093.05053a2.69246,2.69246,0,0,0-.03814-.32609c-.01982-.0847-.09278-.16089-.0993-.2442-.07-.89842-.168-1.79679-.1861-2.69661a20.41726,20.41726,0,0,0-.38085-3.38513c-.12525-.664-.09888-1.35569-.21069-2.0232a32.87378,32.87378,0,0,0-.73057-4.76753,6.60072,6.60072,0,0,1-.21353-1.53838,31.67591,31.67591,0,0,0-.56833-3.6886c-.18346-.95749-.22081-1.943-.40513-2.9003a34.43641,34.43641,0,0,0-.7312-4c-.20048-.63222-.079-1.36053-.23208-2.01521-.22662-.96921-.25191-1.96365-.48952-2.94144a18.63378,18.63378,0,0,1-.444-2.5059,1.34224,1.34224,0,0,1,.09757-.41751c.029.11561.04985.234.08842.34637a16.00787,16.00787,0,0,1,.58915,2.72746c.18713,1.18188.51112,2.34144.73526,3.51841.11459.60161.11253,1.2247.21137,1.83021.2384,1.46053.522,2.91374.7545,4.37513.15834.99522.23733,2.00306.39566,2.99828.15119.95032.36779,1.89006.53868,2.8375.09184.509.13718,1.02619.22246,1.53651.18421,1.10251.39677,2.20054.566,3.30523.09778.63844.13623,1.28611.197,1.93.0667.70718.0714,1.42578.2048,2.11987a18.30734,18.30734,0,0,1,.37021,3.67319m-3.2547,10.43418a1.51966,1.51966,0,0,0,1.333.48071,6.28418,6.28418,0,0,0,2.07385-.76994c.62-.29606.71241-.46123.6096-1.0838a2.41868,2.41868,0,0,0-.19923-.681c-.05282-.106-.22934-.15021-.35-.22235a2.82553,2.82553,0,0,0,.34771-.20866.17821.17821,0,0,0,.00842-.17574c-.05859-.05649-.17451-.13-.22385-.10648a6.05472,6.05472,0,0,1-.62005.351,3.83716,3.83716,0,0,1-1.45529.366c-.44379-.0433-.85177-.28341-1.28642.032-.03739.02714-.15656-.05842-.23775-.09161.05184-.09444.0861-.24932.15923-.27061.147-.04277.32364.01781.47195-.0229.108-.02961.19028-.1532.284-.2349a2.93092,2.93092,0,0,1-.33621-.13962c-.75427-.42558-1.30806.068-1.85956.43872a.59533.59533,0,0,0-.08346.96441c.4021.445.84366.85439,1.364,1.37476m.67009-8.7111c-.15941,0-.31894-.00369-.47824.00065a1.10087,1.10087,0,0,0-1.14874,1.42622,3.54872,3.54872,0,0,0,.19964.77738c.328.65424.29,1.60653,1.32565,1.7127.12665.013.25572.00232.38366.00262-.1205-.094-.24121-.26841-.36148-.26811-.53488.00133-.55891-.31518-.60623-.7376a1.41,1.41,0,0,1,.74526-1.388,1.73672,1.73672,0,0,1,1.28086-.38092,3.30263,3.30263,0,0,0,.57328.00072,1.35676,1.35676,0,0,0,.25937-.064c-.07107-.09018-.1233-.21914-.21625-.2642a17.04018,17.04018,0,0,0-1.95678-.81746m1.53162,2.87179c.19561-.0638.39317-.12225.58642-.19253a.51165.51165,0,0,0,.209-.92655,2.04125,2.04125,0,0,0-2.13335.15389.99939.99939,0,0,0-.46218,1.12876.80121.80121,0,0,0,.51044.39534c.31041.08231.21625-.20269.23805-.37066a1.57949,1.57949,0,0,1,.07086-.35107,3.87684,3.87684,0,0,1,.1973-.39392,1.51911,1.51911,0,0,1,.10774.39359c-.00134.56506.20884.44872.67569.16315m.19145.38291a.84216.84216,0,0,0-.96032.40975c-.09666.19-.10611.63148-.02354.66885a4.08692,4.08692,0,0,0,1.01978.21959.29722.29722,0,0,0,.05689-.15787c-.01465-.56713.29466-.43465.5888-.26072.31751.18769.37987.04422.37213-.24207a2.58626,2.58626,0,0,1,.00327-.47536c.06913-.42974-.22749-.37527-.46776-.34521-.13807.01729-.26554.11923-.58925.183m-1.053,2.2017c.0298.70035.10258.7869.71318.66235a9.204,9.204,0,0,0,1.26277-.386.35331.35331,0,0,0,.1051-.28183c-.22207-.19571-.34685-.54342-.74934-.47931a2.54417,2.54417,0,0,1-.66232-.00035.67232.67232,0,0,0-.66939.48517m-1.24444-7.94529c-.30826.00678-.75756-.09009-.81522.27508a4.39458,4.39458,0,0,0,.15481,1.34257c.00776.0466.15661.10723.22751.094a.24275.24275,0,0,0,.13918-.18809c-.00257-.55454-.13759-1.15178.73-1.22988.12344-.01113.01446-.31887-.43624-.29373m-.09573,6.60512a4.02723,4.02723,0,0,0-.54823-.27444c-.04426-.01526-.21851.16631-.20486.19379.06585.13284.17981.34577.26857.34194C82.60451,138.47683,82.90466,138.70633,82.89755,138.22381ZM16.08557,77.7193c-.32894,1.07735-.63752,2.161-.9451,3.24477-.26754.94259-.5935,1.876-.76567,2.83641-.23278,1.29852-.55667,2.56692-.91677,3.83314-.37455,1.317-.67448,2.65517-1.01662,3.9816-.3119,1.20922-.62543,2.41824-.95921,3.62153a23.70256,23.70256,0,0,0-.78164,3.02984c-.142,1.00936-.47377,1.98207-.59042,3.0116-.13426,1.1845-.47705,2.34546-.73073,3.51633-.19017.87778-.4035,1.75119-.56808,2.63369-.15569.83492-.24542,1.682-.39333,2.51855-.15159.8574-.35779,1.70524-.50495,2.5633-.1694.9876-.30874,1.98069-.4429,2.97385-.04195.3105.00306.6329-.04017.9431-.1002.71912-.24377,1.43218-.34349,2.15134a14.67658,14.67658,0,0,1-.213,1.829c-.27921,1.02619-.38179,2.07562-.55824,3.11543-.11608.684-.24128,1.36639-.366,2.04884-.19506,1.067-.39586,2.13288-.58921,3.20015a18.8406,18.8406,0,0,1-.4447,2.40137,10.72166,10.72166,0,0,0-.513,3.03849,3.58258,3.58258,0,0,1-.0109.57081c-.17927.944-.38735,1.8827-.55989,2.82788-.14691.80472-.29009,1.61239-.38,2.42482-.15267,1.37955-.2665,2.76354-.38621,4.14655a5.44551,5.44551,0,0,1-.014.85815,17.97971,17.97971,0,0,0-.35944,3.19389c-.06446.85625-.00559,1.72139-.0178,2.58232a1.43581,1.43581,0,0,1-.1151.71241c-.196.30831.067.38089.17951.53956.10775-.15458.30159-.30464.31-.4644.08553-1.63088.14219-3.26332.2034-4.89544a4.0818,4.0818,0,0,1,.00943-.7635c.324-1.37116.31513-2.78391.53169-4.17071.15-.96042.20126-1.93493.39338-2.90257.28456-1.43312.41177-2.89778.5962-4.35027.07741-.60969.0827-1.23215.204-1.83194a32.20727,32.20727,0,0,0,.72666-3.22782c.15388-1.60825.78811-3.10688.83892-4.74972a24.61352,24.61352,0,0,1,.745-4.46306c.1223-.55577.03221-1.13453.19321-1.64008a34.30555,34.30555,0,0,0,.53487-3.79162c.199-.98519.1456-2.03309.42824-2.98677.36247-1.223.37567-2.49347.71122-3.717.24764-.90291.16771-1.89789.4312-2.79376.45259-1.53882.59344-3.12782.93429-4.68146.23056-1.05086.45985-2.10261.72268-3.14565.24652-.97834.5464-1.94309.805-2.91853.48029-1.81146.949-3.626,1.42-5.43995.48615-1.872,1.03347-3.73107,1.4347-5.62115.35347-1.66509.83733-3.29041,1.26542-4.933.18089-.69408.31921-1.39925.429-2.09939A7.93108,7.93108,0,0,0,16.08557,77.7193Zm91.14818,56.7613a11.02828,11.02828,0,0,0-2.52369,1.07056,2.35846,2.35846,0,0,0-.70818,3.67558c.11723.14079.23348.28349.33713.43428a2.45519,2.45519,0,0,0,2.99928.74933,8.2517,8.2517,0,0,0,1.64532-1.31663c.22085-.2256.23571-.6573.325-1.00045.009-.03471-.112-.14369-.17484-.14556-.06488-.00189-.19409.09185-.18958.13186.09362.82908-.63106,1.12556-1.07837,1.55305a2.61866,2.61866,0,0,1-1.27245.5839c-1.10183.21227-1.69806-.56158-2.24536-1.32952a2.41963,2.41963,0,0,1-.54685-1.09772,2.27308,2.27308,0,0,1,.37057-1.25933,3.43459,3.43459,0,0,1,.90475-.75833A1.2574,1.2574,0,0,1,105.4,135.646a1.21457,1.21457,0,0,1-.03046.39174c-.45156,1.03121.7693,2.56856,1.864,2.26953a3.14083,3.14083,0,0,0,1.6929-1.0088.7154.7154,0,0,0,.13179-.84889,9.34185,9.34185,0,0,0-.80844-1.19383c-.07895-.10346-.25668-.13725-.39487-.18684a.467.467,0,0,0-.18236.014c.01584.06759.00939.15726.051.19938a2.56518,2.56518,0,0,1,.87584,1.26512c.02582.132.12709.31093.075.38667a2.69657,2.69657,0,0,1-1.68456.98744c-.44811.11239-.58212-.41147-.88294-.61379a.85041.85041,0,0,1-.136-.134,1.1049,1.1049,0,0,1,.0286-1.56361c.30308-.31263.56822-.71772,1.11217-.54529a22.3865,22.3865,0,0,0,1.79952-1.82675,1.72164,1.72164,0,0,0,.29982-1.21878,5.56646,5.56646,0,0,0-2.14882-3.30363,1.9283,1.9283,0,0,0-.90257-.342c-.84576-.14317-1.274.51234-1.77389,1.0074-.07518.07446-.08612.21377-.12681.32307.14869-.02584.33622-.00383.43849-.08684.26652-.21641.483-.49347.7429-.71931a.96123.96123,0,0,1,1.24251-.00058,7.49854,7.49854,0,0,1,1.139,1.15533,5.47608,5.47608,0,0,1,.87035,1.64011,2.1207,2.1207,0,0,1-1.0973,2.46257C107.47517,134.299,107.3667,134.45606,107.23375,134.4806Zm-93.64211,3.26458c.39032-.77086.57268-.92924,1.13512-.7502a4.47,4.47,0,0,1,2.035,1.11067,1.08742,1.08742,0,0,1,.25682,1.0386c-.05748.317-.38868.3255-.68873.33289-.38353.00937-.32652.20283-.11569.41216.18094.17963.36706.35468.53843.54307a2.82476,2.82476,0,0,1,.22985.3357c-.17259-.018-.39524.02566-.50827-.06593-.32015-.25942-.58684-.58383-.89538-.85939a.34011.34011,0,0,0-.32387-.00989,1.47841,1.47841,0,0,0-.27748.35108c-.0152-.15306-.04124-.306-.04349-.45921-.0061-.41422-.00892-.82887.00591-1.24267.002-.05616.11072-.1488.17312-.15144a.27558.27558,0,0,1,.197.13232c.1156.20092.15973.51138.32575.59722a.96991.96991,0,0,0,.73725-.00947c.18108-.07728.43815-.24985.15966-.5848a4.95722,4.95722,0,0,0-1.75908-1.08309c-.445-.22707-.83256.06878-.78411.57978.08861.93454.25765,1.8622.41684,2.78866a.84308.84308,0,0,0,.26812.45556c.24873.21464.39362.66214.81331.54627.439-.12125.11188-.53292.21274-.79208a2.88966,2.88966,0,0,1,.18836-.344,2.25327,2.25327,0,0,1,.18781.34381,3.09173,3.09173,0,0,1,.18761.685c.03432.34289.189.46619.53122.51464a.92368.92368,0,0,1,.81667,1.079,1.93233,1.93233,0,0,1-1.51367,1.39277c-.50859.02623-1.02032.02057-1.52913-.00334a1.2598,1.2598,0,0,1-.4946-.18245,3.83377,3.83377,0,0,1-2.00879-2.7813,1.26866,1.26866,0,0,1,.67964-1.22514.61248.61248,0,0,1,.50006.13922c.23257.22866.59846.38573.55838.82477-.00394.04314.28407.11293.43657.17033-.02486-.11267-.04674-.22607-.075-.33787a10.25322,10.25322,0,0,1-.5739-3.49119m-.38291,3.54188c.05461-.39887-.30048-.34568-.42113-.26535a.70263.70263,0,0,0-.24524.54192,2.40136,2.40136,0,0,0,.99492,1.96276c.36738.25446.74456.67453,1.12785.68661a7.93,7.93,0,0,0,2.02817-.35271,1.44577,1.44577,0,0,0,.51321-1.05949c-.18993-.34766-.532-.26259-.83855-.26885a1.57108,1.57108,0,0,0-.38011.00331,2.22712,2.22712,0,0,1-2.77912-1.2482m1.62735.86154a.43651.43651,0,0,0,.65307.11274c-.14258-.0901-.28262-.18461-.4285-.269a1.5557,1.5557,0,0,0-.3956-.19468c-.08578-.02035-.19318.05053-.29088.08047A.95452.95452,0,0,0,14.83608,142.1486Zm90.07855-25.84613a20.50646,20.50646,0,0,0,.21547,2.30507c.06334.32483.39135.596.59082.89709.12159.18348.513.2671.27184.5909a1.88583,1.88583,0,0,1-.59684.58761c-.56.27748-.57286.24806-.24995.73352.1897.28519.43285.527.02559.8842-.231.20263-.045.49717.30139.50581.43014.01078.84154.03677,1.00684.52353a3.99049,3.99049,0,0,1,.109.58357,2.60355,2.60355,0,0,1-.70332-.05611c-.16261-.0578-.25937-.28029-.41635-.38156-.113-.07291-.179-.4464-.38837-.1408a.72965.72965,0,0,0-.09554.56933c.04118.12.3127.14354.44677.25278.225.18332.59189.39641.597.60443.01173.47382.30083.56525.6143.73719.76383.419.76654.8538.03992,1.38431a4.82112,4.82112,0,0,1-.43771.32888c-.92525.52429-.927.52114-1.54366-.114a1.41819,1.41819,0,0,1-.34336-1.87489,1.16151,1.16151,0,0,0,.22566-1.22362,3.77122,3.77122,0,0,1,.26381-1.769.68169.68169,0,0,0-.10883-.66427c-.53807-.79579-.50734-.85315.38129-1.24348.42626-.18727.53182-.54826.16245-.85238a1.58014,1.58014,0,0,1-.57272-1.49783,3.659,3.659,0,0,0-.15514-.7886,1.96952,1.96952,0,0,1,.43706-1.80125,1.197,1.197,0,0,0,.21241-1.37,8.09458,8.09458,0,0,1-.48262-3.33595c.01016-.09447-.02765-.20452.009-.28291.04085-.08729.14149-.1466.21609-.21809.053.06123.14616.119.15179.1843a3.70721,3.70721,0,0,1,.00413.66793,5.668,5.668,0,0,0,.39406,2.60972,2.20824,2.20824,0,0,1-.58235,2.66454m.28718,9.38118a1.93593,1.93593,0,0,1-.20352.2006c-.32707.2412-.37694.491-.01026.72837.208.13461.46985.36315.65429.32036a3.628,3.628,0,0,0,1.10541-.53093.584.584,0,0,0-.07733-.50764,1.75274,1.75274,0,0,0-1.46859-.21076m.67008-.86151-.517-.24878c-.0191.11627-.08489.3141-.04915.33457a2.145,2.145,0,0,0,.5013.168c.01479.00409.043-.04043.0649-.25383m.19145-1.53165-.32487-.058.22.336A.25781.25781,0,0,0,106.06334,123.29049ZM4.7605,147.22362a3.68859,3.68859,0,0,0-.91975,2.30386,2.68711,2.68711,0,0,0,.3399,1.57439,6.09876,6.09876,0,0,0,2.02579,2.09831,2.59845,2.59845,0,0,0,2.968-.02926,2.1202,2.1202,0,0,0,.77959-2.6773c-.21636-.63507-.54652-.79565-1.41216-.68691-.387.04861-.65394.40015-.69287.92672a2.27516,2.27516,0,0,0,.59253,1.47537c.04076.05812.16265.05926.247.0868a.92342.92342,0,0,0,.08611-.31133,10.18905,10.18905,0,0,1-.13881-1.271.68771.68771,0,0,1,.3985-.49537.58623.58623,0,0,1,.515.2711,2.30474,2.30474,0,0,1,.17739,1.14692,2.12961,2.12961,0,0,1-2.95876,1.35178,4.52939,4.52939,0,0,1-2.23672-2.17847,2.661,2.661,0,0,1-.30278-1.48818,4.84286,4.84286,0,0,1,.40943-1.16746,3.13294,3.13294,0,0,1,.67232-.86605.94417.94417,0,0,1,1.29946-.15518,2.64034,2.64034,0,0,1,.46768,2.3233,4.37006,4.37006,0,0,1-.38914.54246,2.99785,2.99785,0,0,1-.17395-.54662c-.04882-.39454-.33824-.18818-.51384-.20257-.0785-.00645-.26056.22585-.24486.24946a2.48367,2.48367,0,0,0,.674.84625.84565.84565,0,0,0,.79824-.24838,1.988,1.988,0,0,0,.35573-1.79782c-.13246-.328-.27022-.65384-.45345-1.02852C6.12077,146.30178,5.73929,146.33983,4.7605,147.22362Zm30.26684-9.169c.02716.02332-.02019.196-.07736.23634a.24993.24993,0,0,1-.245-.02549c-.2831-.3557-.71416-.69834-.77961-1.09744a2.29388,2.29388,0,0,0-.72757-1.32234,2.09781,2.09781,0,0,1-.58032-1.0099,7.47931,7.47931,0,0,1-.46775-2.393c.02676-.45026.24024-.76333.61664-.80551a3.12394,3.12394,0,0,1,2.624.80051c.31356.29573.10723.43264-.11092.51163a1.58527,1.58527,0,0,1-1.87956-.37232c-.05805-.06455-.17579-.07539-.26585-.11115a1.01908,1.01908,0,0,0,.0416.25743c.28138.63613.91266.70215,1.46451.78194a1.58882,1.58882,0,0,0,.9911-.322.73668.73668,0,0,0,.146-.66932,1.32589,1.32589,0,0,0-.52517-.68892,4.01256,4.01256,0,0,0-2.42869-.59623.99613.99613,0,0,0-1.05219,1.05687,7.06045,7.06045,0,0,0,.434,2.503c.05576.21525.16176.31081-.0029.54389a1.265,1.265,0,0,0,.42973,1.819c.058.0341.16873-.02143.255-.03534-.04005-.06751-.08277-.13363-.11963-.20285a8.50021,8.50021,0,0,1-.40228-.78844c-.02812-.06943.0668-.20823.1374-.28587a.29012.29012,0,0,1,.22719.09365,7.83884,7.83884,0,0,0,2.35084,3.12541c.07457.0574.06081.31817.00238.44486-.32382.7022-2.22822.34306-2.71367-.32663a.43858.43858,0,0,1,.06252-.42528.47032.47032,0,0,1,.42955-.004c.28707.15755.391.60407.83276.48172a11.44635,11.44635,0,0,0-.8809-.92389.55969.55969,0,0,0-.84219.22134.99228.99228,0,0,0,.67846,1.31914,9.2182,9.2182,0,0,1,1.34123.43932.61532.61532,0,0,0,.81765-.05919,4.38291,4.38291,0,0,0,.60641-.62732c.08441-.09519.11793-.256.21719-.31378.32414-.18857.31106-.15586.05691-.42247a1.41359,1.41359,0,0,1-.2672-.55335c-.145-.46531-.17422-.97778-.57884-1.28151C34.892,137.40182,34.69926,137.77253,35.02734,138.05466Zm59.64807-3.77112a.69872.69872,0,0,1,.11091-.62183.71478.71478,0,0,1,.668-.07467,2.1033,2.1033,0,0,1,.85576.85668c.26143.64195.28672.648-.34312,1.00277a2.1468,2.1468,0,0,1-.239.1.92324.92324,0,0,0,.24855.089.75672.75672,0,0,0,.77189-1.13851,4.14359,4.14359,0,0,0-1.2659-1.26143c-.58135-.3525-.97147-.08535-1.1012.56915a1.49788,1.49788,0,0,1-.13287.30279,3.25392,3.25392,0,0,1-.24438-.28891,2.89689,2.89689,0,0,1-.26954-.46131,2.16565,2.16565,0,0,1,.59663-2.30454,1.88264,1.88264,0,0,1,2.72865,1.02553,2.02517,2.02517,0,0,1-.17675,1.48483c-.03749.08729.04765.22721.07619.34283.09909-.07414.25074-.12754.28939-.22551a2.17854,2.17854,0,0,0-1.54143-3.19587,1.949,1.949,0,0,0-2.42111,1.395,2.88657,2.88657,0,0,0,.39176,2.37955,10.0078,10.0078,0,0,0,3.02167,2.81963,1.29388,1.29388,0,0,0,.5339.08853.49351.49351,0,0,0,.16974-.04742c-.03769-.06759-.05852-.16107-.11589-.19849-.32448-.21148-.65775-.40952-1.03586-.66A3.06109,3.06109,0,0,1,94.67541,134.28354Zm-77.82908-8.59989c-.07014.8797.19435,1.69793-.35967,2.43663-.15274.20368-.02976.61919-.02174.93719a7.43211,7.43211,0,0,1-.23934,1.41741,10.86279,10.86279,0,0,1-.47984,1.84676c-.12569.35974.23486.88514.36249,1.34a2.60935,2.60935,0,0,1,.04808.44591,2.50094,2.50094,0,0,1-.4487-.29041,2.2863,2.2863,0,0,1-.21543-.38246c-.01368-.02061-.15749-.00014-.171.03144a1.06467,1.06467,0,0,0,.36878,1.03214,4.20112,4.20112,0,0,1,.83119.93331.79038.79038,0,0,1-.35581,1.16484.87524.87524,0,0,1-1.03328-.57756,4.58465,4.58465,0,0,1-.19235-1.06407,5.53828,5.53828,0,0,1,.00943-1.428c.13758-.69245.39044-1.362.59448-2.0412.051-.16977.10924-.33768.15265-.50934.08757-.34636.177-.69271.24708-1.0428a6.11989,6.11989,0,0,0,.13188-.89872,4.29392,4.29392,0,0,1,.2955-1.69529,3.60241,3.60241,0,0,0,.00139-1.64287,2.10835,2.10835,0,0,1,.27279-1.232c.03965-.07084.20752-.06991.31621-.10211a1.88821,1.88821,0,0,1,.01574.32574c-.03583.3008-.086.5999-.13049.9954m-1.43588,9.57265a1.57241,1.57241,0,0,0,.1028.42967c.107.18974.31607.52151.38543.49877.32174-.10538.16854-.3388.07728-.56868-.0756-.19044-.01465-.43913-.102-.61953-.0673-.13908-.27085-.21218-.41383-.31459A1.07509,1.07509,0,0,0,15.41045,135.2563Zm7.56237,12.82733a11.68824,11.68824,0,0,1-1.88209-1.8313,6.0077,6.0077,0,0,1-.7826-1.86321c-.17562-.60352.4576-.94441.63822-1.44491a.30618.30618,0,0,1,.24065.02.28493.28493,0,0,1,.04447.2482,3.95477,3.95477,0,0,0-.34778.99554,3.51406,3.51406,0,0,0,1.66768,3.08059,3.97465,3.97465,0,0,0,2.72139.80493c.37546-.04508.56494-.15934.57808-.56024.0183-.558-.42-1.42033-.8575-1.53337-.2161-.05586-.5367-.147-.49093.3018.03643.357-.07343.62428-.48821.63055-.28539.0043-.90036-.60921-.83436-.87358.0434-.17385.22428-.42936.36349-.44285a6.94492,6.94492,0,0,1,1.62009-.006c.674.0946.82031.76382,1.03895,1.25423a1.10035,1.10035,0,0,1-.21192,1.35356,1.50983,1.50983,0,0,1-1.42337.39794c-.50861-.14549-.99972-.35211-1.59426-.53183m.86154-2.106c-.03191.08047-.10466.1718-.08674.239a1.51713,1.51713,0,0,0,.18247.33539,1.5179,1.5179,0,0,0,.18246-.33539C24.13048,146.14945,24.05773,146.05812,23.83436,145.97765Zm73.74039-10.67779c-.03328-.04352-.16565-.0112-.252-.01407a1.07191,1.07191,0,0,0,.07226.20192c.19928.33282.4213.65314.60334.99489a1.21357,1.21357,0,0,1-.45615,1.63656,4.01747,4.01747,0,0,1-2.62731.57786c-.33727-.05193-.756-.10227-.391-.63154.03517-.051-.08243-.299-.13831-.30233-.12487-.0075-.33887.05112-.37035.13663a.86508.86508,0,0,0,.79895,1.18006,3.77653,3.77653,0,0,0,2.66335-.49764c.20739-.16721.3316-.09876.35551.17493a1.66369,1.66369,0,0,1-.58305,1.57692,3.57991,3.57991,0,0,1-2.14062.34252,2.60331,2.60331,0,0,1-1.538-1.34223c-.0445-.09519-.17409-.15057-.26432-.22436a1.94,1.94,0,0,0-.06616.35339.71336.71336,0,0,0,.06392.35339,3.09,3.09,0,0,0,3.95518.98786,1.58911,1.58911,0,0,0,.94177-1.36752c.003-.35577-.21711-.7325-.15209-1.06353a5.13359,5.13359,0,0,1,.53708-1.01606,1.68018,1.68018,0,0,0,.00988-.56959A15.83413,15.83413,0,0,0,97.57475,135.29986Zm10.02022-1.24014c-.05446.02533-.15607.0028-.15607-.01975-.0001-.23275.01619-.46548.02795-.6982-.404.19977-.9349.3-1.18586.61988a2.93487,2.93487,0,0,1-2.00817,1.09613c-.0914.01379-.19741-.06927-.29667-.10745a.97869.97869,0,0,1,.20482-.19938c.55151-.28395,1.11021-.55393,1.66124-.83875a1.05968,1.05968,0,0,0,.22113-.21578,2.01653,2.01653,0,0,0-.2765-.161,2.123,2.123,0,0,1-1.25512-1.65953.76551.76551,0,0,1,.78851-.82622,3.378,3.378,0,0,1,1.709.26219,1.632,1.632,0,0,1,.75688,2.30071c-.06118.13424-.1273.26621-.19112.44713m-2.20171-1.29231c.44965.56679,1.04126.43731,1.60832.29024a2.201,2.201,0,0,0,.59046-.38889c-.33913-.18673-.0741-.71353-.55239-.87785a3.45051,3.45051,0,0,0-1.46218-.37073c-.63139.05625-.733.19442-.47279.762A4.15687,4.15687,0,0,0,105.39326,132.76741Zm-10.08843-7.78184c-.05771-.05148-.168-.044-.25416-.06359a2.82175,2.82175,0,0,1,.08519.27019c.05384.253-.04137.30933-.2984.28206-.87416-.09278-1.283.26678-.99337,1.00048a.78715.78715,0,0,1-.20915,1.02681.8417.8417,0,0,0-.00112,1.15758.73334.73334,0,0,0,.24813.0878.96166.96166,0,0,1-.03361-.25233c.03438-.25977.008-.58116.15317-.75548a.68765.68765,0,0,1,.66873-.10753,12.93413,12.93413,0,0,1,1.54116,1.3425.754.754,0,0,1,.06266.61655c-.021.07712-.33825.13968-.49334.10051-.31031-.07831-.59366-.2632-.90393-.342a2.23852,2.23852,0,0,0-.63757.022c.14548.11229.29211.22314.43623.33717a2.073,2.073,0,0,0,1.55983.37152.66293.66293,0,0,0,.41182-1.06386c-.59041-.65029-1.23776-1.24862-1.85437-1.87552a2.72241,2.72241,0,0,1-.40371-.50025c-.29078-.48714-.17028-.70327.36519-.771.3569-.04515.76619.18446,1.11427-.23329A2.96635,2.96635,0,0,0,95.30483,124.98557Zm-12.25621-1.70508c-.44023.63012.14291,1.01576.24,1.50671.01087.055.18145.1374.19762.12211a.46309.46309,0,0,0,.16633-.26144.47645.47645,0,0,0-.11718-.32584.656.656,0,0,1-.14754-.806,3.49722,3.49722,0,0,0-.074-1.33792,3.48437,3.48437,0,0,1-.10388-.71959,4.26677,4.26677,0,0,0-.09542-1.90448,6.75642,6.75642,0,0,1-.1983-1.82249c-.01-.29069.17137-.58817.16039-.8786-.02428-.64435-.1338-1.28513-.17077-1.92953-.01669-.29085-.02075-.55473-.30555-.71692-.02856.275-.063.54968-.07983.82538-.00278.04511.09986.09148.10633.14317a4.40785,4.40785,0,0,1,.0664,1.90918,3.5248,3.5248,0,0,0-.03265,2.15746,2.63485,2.63485,0,0,1,.189,1.50973,2.1712,2.1712,0,0,0,.048,1.48609C82.9578,122.65589,83.18034,123.09194,83.04862,123.28049ZM23.18468,139.17105a1.11137,1.11137,0,0,0-.28669,2.01285c.10881.088.29891.07549.45138.10952a3.0025,3.0025,0,0,0-.12462-.32535,2.45078,2.45078,0,0,0-.27162-.45993c-.33485-.40032-.22252-.6609.22489-.8506a5.19924,5.19924,0,0,0,.55312-.28c.38959-.2234.63148-.10293.77473.304.15656.44473.34575.87916.48009,1.33015a2.69327,2.69327,0,0,1,.19794,1.09723.80246.80246,0,0,1-.85144.62171c-.67625.03477-1.34891.14244-2.02518.1731-.28373.0129-.32242.13682-.28467.347.01116.06215.10885.158.16333.15563.63274-.02716,1.26515-.06532,1.897-.1101,1.25054-.08865,1.76893-.81379,1.36842-2.006a4.54738,4.54738,0,0,0-1.1862-2.34845A3.86047,3.86047,0,0,0,23.18468,139.17105Zm10.94344-10.83134c-.20766-.259-.36185-.41628-.02688-.67765a.78676.78676,0,0,0,.20586-1.12495,1.61673,1.61673,0,0,1-.0684-1.69111c.13212-.20454-.081-.63486-.14236-.96084-.06656-.35378-.313-.80458-.17852-1.041A4.65282,4.65282,0,0,0,34.281,120.596c.00782-.1567.204-.295.26265-.45978.18011-.50585.64764-.9441.3729-1.5641a3.34145,3.34145,0,0,1-.13867-.51587c-.04213.1851-.0786.37172-.12824.55478a1.63554,1.63554,0,0,0-.1336.41887c.02038.65268-.62332,1.12289-.45394,1.832a1.40467,1.40467,0,0,1-.28414,1.214,1.35356,1.35356,0,0,0-.09542,1.52908,1.58319,1.58319,0,0,1-.07784,1.714c-.08873.12645-.03349.39141.02176.57234.07664.251.25371.47359.31651.72606.05046.20293.08271.54353-.02829.631-.55108.43425-.4657.84962-.10684,1.34367.0942.12969.05548.35591.12569.53779C34.49146,128.85,34.51935,128.82767,34.12812,128.33971ZM94.3725,121.448a9.16138,9.16138,0,0,1-.36028-2.64755,1.20563,1.20563,0,0,1,.1212-.61171c.76111-1.76247-.21567-3.26617-.70736-4.84187-.00846-.02716-.03614-.06558-.05836-.0681a.69722.69722,0,0,0-.256-.00124.17254.17254,0,0,0-.06245.15474c.17262.5321.334,1.06932.53905,1.58914a4.10829,4.10829,0,0,1,.0322,3.29627c-.09435.21454-.25409.5225-.17241.67191.44374.81187-.01491,1.8.53608,2.58368.04029.05732-.08724.28133-.18552.37858-.357.35334.01178.37243.20317.42929C94.29846,122.10892,94.53565,121.80466,94.3725,121.448ZM18.73854,70.0818c.525-1.792,1.02765-3.59065,1.55657-5.38152.62048-2.10075,1.26545-4.19427,1.88546-6.29517a2.10245,2.10245,0,0,0,.02087-.65917c-.00263-.06788-.07145-.1332-.11-.19969a.758.758,0,0,0-.07412.16019c-.17281.84477-.50714,1.64563-.73071,2.466-.437,1.60379-.927,3.19137-1.37665,4.79076q-.48179,1.71364-.95661,3.42926c-.19721.7161-.384,1.43507-.52758,2.15277A1.30022,1.30022,0,0,0,18.73854,70.0818Zm13.42471,33.59878q-.38533,2.3244-.76509,4.64974c-.073.44966-.13893.901-.18483,1.354-.0096.09472.08339.19986.12909.30019.08193-.06412.22395-.11856.23608-.19393.08236-.51181.14329-1.02742.19965-1.543.07011-.6415.09431-1.29.2001-1.92518a36.15549,36.15549,0,0,1,.8009-4.16095c.18169-.62516.06683-1.24787.29664-1.87563a8.629,8.629,0,0,0,.23087-2.29279.73079.73079,0,0,0-.08059-.25093.67835.67835,0,0,0-.10137.22177,3.5248,3.5248,0,0,1-.0147.76106,13.90317,13.90317,0,0,0-.57259,3.39422c-.00327.10286-.11958.20211-.1834.39875C32.29021,102.96922,32.22234,103.32415,32.16325,103.68058ZM7.868,144.94376c.42581.34813.47308.57185.18975.91994-.44975.55257-.84016.65758-1.24387.3224a2.93983,2.93983,0,0,1-.8775-2.299.50427.50427,0,0,1,.053-.167c.06728.04067.13822.0764.20122.12289.31155.23.46721.71425,1.03525.55517a3.79306,3.79306,0,0,0-.77142-.84782.89767.89767,0,0,0-.63809-.19526c-.1201.02486-.23039.33747-.25612.53264a4.569,4.569,0,0,0,.3385,1.66409,1.55065,1.55065,0,0,0,1.00474,1.09487,1.29187,1.29187,0,0,0,1.71042-1.1415c.00253-.62552-.42261-.96152-1.34017-1.05916C7.47167,144.61208,7.66791,144.78023,7.868,144.94376Zm17.3467-8.19938c.01436.00238.05222-.04342.05332-.06831.02629-.59537-.4073-.92123-.7443-1.31912a.82892.82892,0,0,0-1.09-.22008,1.09852,1.09852,0,0,0-.42659.9237,4.06374,4.06374,0,0,0,.69362,2.01741c.29579.34271.53812.21962.77447.21052.14346-.00553.31182-.30094.39769-.4973.04776-.10921-.05083-.28239-.08347-.42675-.09013.09012-.25382.17715-.25777.27094a.30211.30211,0,0,1-.50269.262c-.16431-.30225-.35405-.91536-.25646-.97872.40779-.26477.35839-.36428-.03542-.51338-.406-.15374-.0998-.49063-.17758-.73069-.016-.04936.15206-.227.19085-.21389a1.38079,1.38079,0,0,1,.54854.27673c.25456.26042.45892.56992.732.90686A.46821.46821,0,0,0,25.21468,136.74438Zm9.30331,6.3827a1.98351,1.98351,0,0,1-2.40439-.53874c-.072-.08444-.21942-.10465-.33184-.15467a1.20338,1.20338,0,0,0,.06956.445,2.55163,2.55163,0,0,0,3.04984.61014,3.21207,3.21207,0,0,0,1.00248-3.43314.96661.96661,0,0,0-.1989-.20414c-.01921.10842-.08921.24219-.04972.3213.37311.7473.01,1.40138-.28563,2.1194A1.49848,1.49848,0,0,1,34.518,143.12708Zm47.46916-14.37532c-.36781.0452-.39392.24635-.29366.62818.13572.51689.58114.53795.93161.72933a1.40013,1.40013,0,0,1,.27208.2646,1.02283,1.02283,0,0,0-.33556.1026c-.13162.09968-.34911.30384-.322.35676.105.20442.24368.274.52053.09722a3.46775,3.46775,0,0,1,1.0264-.27019c.08525-.021.167-.05642.2503-.08519-.06109-.06735-.10961-.15938-.18538-.198-.49737-.25385-1.00777-.48312-1.498-.74971a2.08761,2.08761,0,0,1-.40817-.39669,1.98952,1.98952,0,0,1,.5189-.09314c.48352.04191.963.12864,1.44614.17694a.91161.91161,0,0,0,.3273-.10227c-.04784-.10722-.067-.26759-.14882-.31174a3.30783,3.30783,0,0,0-.80844-.29711C82.84915,128.6831,82.41588,128.69908,81.98715,128.75176ZM31.1326,146.96736c-.06035-.03719-.16846.00308-.25448.00754a.75975.75975,0,0,0,.09272.2,9.0476,9.0476,0,0,0,2.11583,1.553c.91311.56338,1.8024,1.16534,2.71193,1.73472.0935.05849.25469.00886.38447.00939-.04579-.108-.06115-.25726-.14239-.31711-.43416-.31981-.87555-.6319-1.33166-.91931-.77826-.49039-1.56933-.96049-2.40287-1.487C31.88425,147.45435,31.51372,147.20228,31.1326,146.96736Zm.0582-8.00171a3.993,3.993,0,0,1-.16749.78032c-.0128.091.08391.19732.13059.29665.081-.06507.21442-.11742.23379-.19739a7.56255,7.56255,0,0,0,.19217-1.06522,3.02544,3.02544,0,0,0-.07047-.635c-.2577.05817-.51872.10531-.77118.181-.08075.02423-.13651.12676-.2077.18888a3.38348,3.38348,0,0,0-.5857,3.03387,3.65841,3.65841,0,0,0,.39813.599,6.88427,6.88427,0,0,0-.013-.77372,2.88868,2.88868,0,0,1,.34884-2.43228C30.91751,138.70534,31.15133,138.45451,31.1908,138.96565ZM14.74035,116.97218c.06749-.06738.17623-.12452.19586-.20372.13652-.55123.25873-1.10614.37755-1.66159.19433-.90842.3954-1.81567.56949-2.728.14733-.772.264-1.55011.38326-2.32718.01186-.07732-.0526-.16638-.08164-.25a1.30417,1.30417,0,0,0-.1021.227c-.10489.43553-.207.87184-.30189,1.30964-.15865.73195-.32889,1.462-.46179,2.19872-.17726.98269-.32347,1.971-.53087,3.00472A1.474,1.474,0,0,0,14.74035,116.97218ZM7.25918,142.43592c-.03344.01516-.155-.06853-.17043-.12525a5.73649,5.73649,0,0,1-.19079-.86948c-.02939-.26678.12235-.33371.34007-.18428.10264.07044.16732.20685.27529.25554.0863.03891.212-.00973.32029-.0195-.01241-.08584.00385-.19332-.04188-.254-.29273-.38838-.60059-.76535-.9001-1.1487-.10553-.135-.20158-.2775-.302-.41656a2.47157,2.47157,0,0,1,.09812.45919,1.625,1.625,0,0,1-.05611.63442,2.27261,2.27261,0,0,0,.04538,1.58552c.10308.3467.1996.65629.56256.53357.22426-.07581.54965-.34719.2734-.6899C7.398,142.31149,7.34015,142.3992,7.25918,142.43592Zm18.26271,2.03813a1.08891,1.08891,0,0,0,.12457-.32188c-.13087.00771-.31579-.038-.38428.03136a1.54463,1.54463,0,0,1-2.12964.065c-.209-.12611-.36406-.339-.56512-.48233-.07559-.05382-.21156-.02292-.32-.03068.01769.10844-.00387.261.05985.31768.27194.24207.56908.45586.90487.72785A1.8688,1.8688,0,0,0,25.52189,144.47405ZM7.60576,139.53164c-.1985-.39478-.31438-.80687.05477-1.09361.42611-.331-.04589-.53989-.018-.80267a1.4654,1.4654,0,0,0-.31322-.02472c-.18668.6569-.77428,1.2798-.19387,2.01271.07025.08871.09333.21477.18614.3714C7.824,140.0489,7.69969,139.71846,7.60576,139.53164Zm10.20408-37.97188c-.15849.67058-.26547,1.35358-.38363,2.03311-.01339.077.04895.1671.07619.25114a.98719.98719,0,0,0,.10653-.21319c.04034-.17577.05051-.3589.096-.533a24.84552,24.84552,0,0,0,.81661-4.02608C18.25031,99.90058,18.00718,100.72475,17.80984,101.55976Zm64.58078,25.85711c-.07166-.01491-.18248.09809-.25025.17407a.29775.29775,0,0,0,.129.19145c.54792.13987,1.0973.27891,1.65322.37968.15712.02851.46288-.03833.48185-.11533a1.23022,1.23022,0,0,0-.068-.624.50755.50755,0,0,0-.26329-.26486,2.79078,2.79078,0,0,0-.51315-.12639c.112.12506.23156.24437.33329.3773a.5369.5369,0,0,1,.10517.333C83.43127,127.662,82.91382,127.52566,82.39062,127.41687Zm-65.534-20.97058c.0891-.27834.28786-.52469.35773-.80509a1.79717,1.79717,0,0,0-.07514-.62872,2.69059,2.69059,0,0,0-.28561.5389,9.54047,9.54047,0,0,0-.3732,1.65857,5.61242,5.61242,0,0,1-.38469,1.75984c-.0347.08168.135.25021.21012.37854a1.71925,1.71925,0,0,0,.15468-.29031,12.96358,12.96358,0,0,1,.38579-1.94529A2.55388,2.55388,0,0,1,16.85665,106.44629Zm16.08808,22.815c-.18173-.03241-.50353.04368-.56749.16977-.13.25626.12141.2535.31735.2876.09179.01594.19505.17652.22429.28937.03857.1489-.01855.32275.021.47106.0206.07722.16056.12258.2466.18232.04159-.07243.11592-.14315.11973-.21751.03664-.71627.03321-.71685.68763-.73931.09522-.00325.19175.00822.28554-.00374a.59482.59482,0,0,0,.16-.0718,1.01218,1.01218,0,0,1-.19445-.11846,4.391,4.391,0,0,0-.40714-.3808C33.54221,129.41016,33.25709,129.31705,32.94473,129.26131Zm7.42237-22.0317c.09343-.92134.15085-1.84645.21377-2.7706.00433-.06336-.07132-.13214-.10979-.19839a1.50512,1.50512,0,0,0-.075.15946,2.40364,2.40364,0,0,0-.18522.58793c-.078,1.27523-.13486,2.55171-.15081,3.8278A11.036,11.036,0,0,0,40.3671,107.22961Zm-5.2562,29.39111a.798.798,0,0,0,.28954-.90262c-.21341.03751-.42616.07974-.64055.11033-.09216.01316-.20144-.02659-.27813.00989-.08577.04076-.14337.14074-.21322.21494a.8283.8283,0,0,0,.17931.15712c.32922.15009.32778.14205.01218.389a1.30148,1.30148,0,0,0-.19149.24,1.70462,1.70462,0,0,0,.29349.13522.403.403,0,0,0,.28087-.04316A1.03978,1.03978,0,0,1,35.1109,136.62072Zm-10.243-2.2975a2.19038,2.19038,0,0,0-.16665-.871,2.3299,2.3299,0,0,0-.26049-.46127,1.473,1.473,0,0,0-.11868.45239c.01988.29905-.16858.24457-.34879.29964a.44121.44121,0,0,0-.21932.375c.10159.42273.21889-.13688.35652-.01314a1.03747,1.03747,0,0,0,.394.19419C24.69676,134.29875,24.81691,134.69129,24.8679,134.32322Zm69.6763-11.087c.58586.40516-.46528.3478-.14919.57758a.95122.95122,0,0,0,.66295.11782c.12183-.02127.28639-.148.12733-.46188a2.00062,2.00062,0,0,0-1.18347-.99295A2.44128,2.44128,0,0,0,94.5442,123.23625Zm-68.93465,3.18361a4.872,4.872,0,0,0,.56234-.58983.31443.31443,0,0,0,.05408-.16678c.03861-.32878.64924-.70731.25452-.883-.40557-.18049-.47654.4741-.68374.85555C25.807,125.96249,25.19991,126.11683,25.60955,126.41986Zm-7.957-52.95407a6.03142,6.03142,0,0,0,.486-2.15473,1.71334,1.71334,0,0,0-.30534.65071c-.10454.83045-.68035,1.54029-.5562,2.41253A4.254,4.254,0,0,0,17.65259,73.46579Zm7.15469,56.83744c-.00833-.07393-.12642-.13546-.1937-.20275a.78242.78242,0,0,0-.1056.21394c-.07077.48-.14449.96051-.18082,1.44361-.00558.0739.1773.162.32088.1957C25.07543,131.39667,24.86805,130.84241,24.80728,130.30323Zm-17.33,5.34132c.12672.42806.22792.83516-.14794,1.20215a.4369.4369,0,0,0,.16925.24261.28277.28277,0,0,0,.24921-.11775c.10063-.54792.17806-1.10022.24893-1.65293a.59267.59267,0,0,0-.29223-.01447C7.59277,135.45072,7.45551,135.57115,7.47724,135.64455Zm89.66055-32.76678c.03959-.15663.15773-.34925.10529-.46374a4.07879,4.07879,0,0,1-.18447-1.62176c-.00264-.06483-.09351-.126-.1435-.18893-.07763.0666-.227.13975-.22164.19879.04361.4777.11631.9527.18014,1.52428A2.98625,2.98625,0,0,0,97.13779,102.87777Zm-57.50212,8.51577c-.00929.09356.07054.196.10905.29429a2.48015,2.48015,0,0,1,.07713-.25477,6.747,6.747,0,0,0,.14241-2.59725C39.82067,109.68818,39.72042,110.54009,39.63567,111.39354ZM97.182,103.87921a.684.684,0,0,0-.11346.19208c-.11305.57294.28253,1.14638.00519,1.72586-.01181.02465.10285.10986.15859.16687.07189-.0722.203-.142.20606-.217.01912-.46945.00963-.94011.00963-1.50608A1.1764,1.1764,0,0,0,97.182,103.87921Zm-72.68287,2.31816c.00319-.073-.06481-.14913-.09991-.22382a.50831.50831,0,0,0-.08325.15581c-.06864.54639-.15951,1.09233-.18381,1.64107a6.44984,6.44984,0,0,0,.1144,1.03614,9.09849,9.09849,0,0,1,.11434-1.07162A14.83253,14.83253,0,0,0,24.49909,106.19737ZM33.50273,130.53c.19954-.02.399-.04038.59864-.05959.03111-.003.06332.00355.094-.001q.51539-.07639,1.0304-.15511c-.25545-.51858-.71388-.09636-1.14871-.22719A2.99181,2.99181,0,0,0,33.50273,130.53Zm7.84373-32.77138c.00611-.062-.07117-.1323-.10966-.19875a.52117.52117,0,0,0-.07318.15991c-.06769.89713-.13041,1.79468-.14636,2.69211C41.16085,99.52765,41.2593,98.64368,41.34646,97.75861Zm-16.31552-49.039a4.90991,4.90991,0,0,0-.67008,2.106A4.91009,4.91009,0,0,0,25.03094,48.71963ZM96.11871,95.91648c.029.22985.14432.44881.17344.67869.03134.24749-.01068.50408.01818.75218.00841.07222.15013.12894.23074.19274.04585-.09689.15618-.24913.12774-.28229-.356-.415-.09881-.90186-.17811-1.44078C96.23262,95.53185,96.07564,95.57494,96.11871,95.91648ZM34.08379,92.081a3.509,3.509,0,0,0,.05216.6359,1.815,1.815,0,0,1,.14011-.52748c.3093-.48786.13934-1.01969.17537-1.53109.00217-.031-.11908-.07065-.18289-.01056C34.20473,91.18915,34.1258,91.63333,34.08379,92.081ZM23.88222,51.97432a3.26324,3.26324,0,0,0-.47863,1.91453C23.59739,53.24728,24.011,52.6726,23.88222,51.97432ZM70.45055,88.91266a.56543.56543,0,0,0-.07355-.15979c-.03844.06654-.10872.13228-.1104.1997a3.39362,3.39362,0,0,0,.378,1.83881C70.58075,90.13314,70.51842,89.52258,70.45055,88.91266ZM23.30787,53.88885c-.19381.64157-.60739,1.21625-.47864,1.91453C23.023,55.16181,23.43662,54.58713,23.30787,53.88885ZM70.83215,92.29129c.05333.06025.05466.16649.08.25147a.65328.65328,0,0,0,.11085-.2002,4.483,4.483,0,0,0-.37847-1.45545C70.723,91.38387,70.46614,91.8776,70.83215,92.29129ZM25.83069,99.57477a3.77194,3.77194,0,0,0-.10155-.86621c-.02532.24417-.04242.48957-.07789.73227a11.33024,11.33024,0,0,0-.14168,1.16251A3.76869,3.76869,0,0,0,25.83069,99.57477Zm-1.73853,42.007c-.123-.05226-.3492-.09094-.40854-.026-.32825.35953.15747.12842.21017.2517.05774.1351.21154.22917.4192.34112C24.67648,141.75408,24.3278,141.68181,24.09216,141.58174Zm.66626-12.10222c.13343-.17509.26642-.35053.40067-.525.0191-.0248.06448-.0463.06312-.06705-.0071-.10847-.02536-.21616-.03973-.32411a4.065,4.065,0,0,0-.43872.23137A3.19961,3.19961,0,0,0,24.75842,129.47952Zm58.93484-3.71143c-.08769.11394-.13462.25813-.2131.38069a1.35,1.35,0,0,1-.19767.20293c.11139.03258.22146.071.33441.0967.42521.09669.46555-.157.38151-.52544C83.86129,125.83673,83.70793,125.749,83.69326,125.76809ZM14.7324,119.00945c-.00453-.051-.1386-.14527-.16173-.13176-.32585.19051-.28866.58613.12182.82306A2.51023,2.51023,0,0,0,14.7324,119.00945Zm16.32931-6.536a8.23492,8.23492,0,0,0,.09572-1.53162A8.23407,8.23407,0,0,0,31.06171,112.47341ZM25.4108,47.80935l-.06449-.02731a6.63717,6.63717,0,0,0-.21964.93759A6.20619,6.20619,0,0,0,25.4108,47.80935Zm70.5079,47.0475a1.67761,1.67761,0,0,0,.12915.15857c.02-.3377.04226-.67532.05422-1.0133.0007-.0201-.08131-.04312-.12482-.06481a.60292.60292,0,0,0-.05815.16362c-.008.15686-.00276.31438-.00276.56737C95.91634,94.79548,95.90436,94.83468,95.9187,94.85685ZM14.55482,118.25032a1.23628,1.23628,0,0,0,.07578.33556,1.18129,1.18129,0,0,0,.1048-.2966,2.20349,2.20349,0,0,0-.04291-.64664A1.93959,1.93959,0,0,0,14.55482,118.25032Zm26.229-17.23075a1.23519,1.23519,0,0,0,.07579.33556,1.18179,1.18179,0,0,0,.10479-.2966,2.20256,2.20256,0,0,0-.04291-.64665A1.93931,1.93931,0,0,0,40.78385,101.01957ZM18.713,98.11445a3.2564,3.2564,0,0,0-.09573.95726A3.25607,3.25607,0,0,0,18.713,98.11445Zm7.13754.03333a1.23592,1.23592,0,0,0,.07578.33555,1.18251,1.18251,0,0,0,.10479-.29659,2.20289,2.20289,0,0,0-.0429-.64665A1.93931,1.93931,0,0,0,25.85054,98.14778Zm.57411-3.16a.6887.6887,0,0,0,.076.24082,1.34883,1.34883,0,0,0,.10508-.29387,1.0912,1.0912,0,0,0-.0432-.45792A1.46667,1.46667,0,0,0,26.42465,94.98782ZM18.33009,70.54525a2.10807,2.10807,0,0,0-.09572.76581A2.10812,2.10812,0,0,0,18.33009,70.54525Zm.57436,26.80339a2.10766,2.10766,0,0,0-.09572.76581A2.10809,2.10809,0,0,0,18.90445,97.34864Zm7.17948-51.30935a1.21437,1.21437,0,0,0,.09573-.57436A1.214,1.214,0,0,0,26.08393,46.03929Zm-.19145.57435a1.21431,1.21431,0,0,0,.09573-.57435A1.21406,1.21406,0,0,0,25.89248,46.61364Zm-1.68924,4.7723c.03658-.15659.07418-.313.10887-.47.00635-.02878.00088-.06017-.047-.09035A2.23562,2.23562,0,0,0,24.20324,51.38594Zm-1.46973,4.41744a1.21421,1.21421,0,0,0-.09573.57436A1.214,1.214,0,0,0,22.73351,55.80338Zm-5.614,19.13126c.03659-.15661.07418-.313.10886-.47.00635-.02877.00089-.06018-.047-.09035A2.23529,2.23529,0,0,0,17.11949,74.93464Zm-.27033.48071a2.92794,2.92794,0,0,0,.10889.28314.69377.69377,0,0,0,.07357-.237.37579.37579,0,0,0-.13742-.2735A.3399.3399,0,0,0,16.84916,75.41535Zm7.2673,33.77452c.00582-.04489-.04809-.09752-.07466-.14662a.75027.75027,0,0,0-.10721.19318.58.58,0,0,0,.04336.31733A.68293.68293,0,0,0,24.11646,109.18987Zm-6.80552-4.38859c.0366-.15661.07421-.313.10885-.47.00636-.02877.0009-.06018-.047-.09035A2.23575,2.23575,0,0,0,17.31094,104.80128Zm23.46191-2.50371c.00583-.04492-.04807-.09752-.07466-.14663a.7491.7491,0,0,0-.10721.19319.57992.57992,0,0,0,.04337.31732A.68265.68265,0,0,0,40.77285,102.29757ZM25.352,101.16367c.03658-.1566.07417-.313.10886-.47.00635-.02877.00089-.06018-.047-.09035A2.23567,2.23567,0,0,0,25.352,101.16367Zm9.826-75.80129a.57546.57546,0,0,0-.09573.38291A.57547.57547,0,0,0,35.17793,25.36238ZM26.05521,96.88915l.12513.028a.78729.78729,0,0,0-.00068-.33436A.82838.82838,0,0,0,26.05521,96.88915Zm-6.93058.15317-.12513-.02805a.7875.7875,0,0,0,.00068.33437A.82913.82913,0,0,0,19.12463,97.04232Zm77.60812,2.36717.11868-.03269a.39684.39684,0,0,0-.12141-.25722A.58059.58059,0,0,0,96.73275,99.40949ZM34.795,25.93674a.57576.57576,0,0,0-.09572.38291A.57552.57552,0,0,0,34.795,25.93674Zm-.3159.68923.12513.028a.78778.78778,0,0,0-.00068-.33436A.82924.82924,0,0,0,34.47913,26.626Zm-.78495,1.41675c.06381.03191.12764.06382.19145,0C33.82182,27.97892,33.758,28.01082,33.69418,28.04272Zm-.718,1.53162a.57543.57543,0,0,0,.09573-.3829A.57546.57546,0,0,0,32.97623,29.57434ZM26.78274,94.17053l-.12513-.028a.78766.78766,0,0,0,.00068.33437A.829.829,0,0,0,26.78274,94.17053Zm15.549-4.17492.11867.03269a.58059.58059,0,0,0,.00273-.28991A.39691.39691,0,0,0,42.33174,89.99561ZM31.37761,110.63547l-.12513-.028a.78718.78718,0,0,0,.00068.33437A.82862.82862,0,0,0,31.37761,110.63547Zm-.53608,2.14426.12513.028a.78718.78718,0,0,0-.00068-.33437A.82862.82862,0,0,0,30.84153,112.77973Zm-15.92886,4.55659-.12513-.02805a.7875.7875,0,0,0,.00068.33437A.82937.82937,0,0,0,14.91267,117.33632Zm13.01574-76.197-.11867-.03271a.58087.58087,0,0,0-.00273.28992A.397.397,0,0,0,27.92841,41.13935ZM60.06393.648c-.03942.05948-.07881.119-.02318.19C60.11183.78241,60.08789.7152,60.06393.648ZM82.78269,128.19168l-.02805.12513a.7875.7875,0,0,0,.33437-.00068A.82886.82886,0,0,0,82.78269,128.19168ZM25.6723,46.92l.12513.028a.7875.7875,0,0,0-.00068-.33437A.8292.8292,0,0,0,25.6723,46.92Zm9.66325-21.735a.268.268,0,0,0-.06188.17743A.268.268,0,0,0,35.33555,25.185Zm-.44479.75179q.11967-.09571.09573-.19145Q34.86682,25.841,34.89076,25.93674ZM33.22957,29.014a.268.268,0,0,0-.06188.17743A.268.268,0,0,0,33.22957,29.014Zm-.41095.73776a.2681.2681,0,0,0,.06189-.17743A.268.268,0,0,0,32.81862,29.75177Zm-.388.60753c.00639.05743.01277.11487.067.12445A.114.114,0,0,0,32.4306,30.3593Zm-3.03008,7.07863a.26786.26786,0,0,0-.06189.17743A.268.268,0,0,0,29.40052,37.43793Zm-.2195.35486a.268.268,0,0,0,.06188-.17743A.268.268,0,0,0,29.181,37.79279Zm-2.1111,5.20239c.00638.05743.01276.11488.067.12445A.114.114,0,0,0,27.06992,42.99518Zm-.73265,2.29232a.26791.26791,0,0,0-.06189.17743A.26792.26792,0,0,0,26.33727,45.2875Zm-2.29743,6.50939a.268.268,0,0,0-.06189.17743A.26787.26787,0,0,0,24.03984,51.79689Zm-1.55967,4.75828a.26809.26809,0,0,0,.06188-.17743A.26812.26812,0,0,0,22.48017,56.55517Zm4.43658,12.43931c-.00639-.05744-.01278-.11486-.067-.12445A.114.114,0,0,0,26.91675,68.99448ZM16.76463,76.30285a.26812.26812,0,0,0-.06189.17743A.26792.26792,0,0,0,16.76463,76.30285ZM42.04152,92.16027c-.00638-.05744-.01276-.11486-.067-.12445A.114.114,0,0,0,42.04152,92.16027Zm29.254,3.10153c.00638.05744.01276.11487.067.12445A.114.114,0,0,0,71.29552,95.2618ZM26.33727,96.4054a.268.268,0,0,0-.06189.17743A.26782.26782,0,0,0,26.33727,96.4054Zm-.19145.95726a.268.268,0,0,0-.06189.17743A.26782.26782,0,0,0,26.14582,97.36266ZM25.098,102.63273c.05743-.00638.11487-.01276.12444-.067A.114.114,0,0,0,25.098,102.63273Zm-1.09128,7.17948c.00638.05745.01276.11487.067.12445A.114.114,0,0,0,24.00667,109.81221ZM83.089,128.41186q.09573.11964.19145.09572Q83.18471,128.38794,83.089,128.41186Zm-49.2174,10.97469a.26809.26809,0,0,0-.17743-.06188A.26809.26809,0,0,0,33.87161,139.38655Zm-16.34117-35.323a.268.268,0,0,0-.06188.17743A.268.268,0,0,0,17.53044,104.06351Z"/></g></g></svg>