<svg xmlns="http://www.w3.org/2000/svg" width="50.59867" height="14.08953" viewBox="0 0 50.59867 14.08953"><title>glasses-1</title><g id="Layer_2" data-name="Layer 2"><g id="glasses-1"><path id="void" d="M50.59867,6.41035c-1.08865-.265-2.16947-.59183-3.25681-.89532a2.03013,2.03013,0,0,0-.57759.00924,2.03975,2.03975,0,0,0,.48654.36308c.962.33813,1.9348.64519,2.90041.97316.08994.03053.15968.12815.23149.20173a1.42856,1.42856,0,0,1,.12247.16582c-.0977.02356-.21014.091-.29089.06394-.89991-.30165-1.78838-.63888-2.694-.92128a.72146.72146,0,0,0-.91806.65378c-.05272.43129-.05343.873-.14847,1.29391a3.08021,3.08021,0,0,1-.42839,1.13127c-.40425.55289-.92569,1.01827-1.366,1.547a8.33624,8.33624,0,0,1-4.24217,2.60284,5.27053,5.27053,0,0,1-3.34234-.48672c-.46614-.26151-.99817-.4026-1.48331-.63394-.48257-.2301-1.20555-.404-1.352-.784a6.27622,6.27622,0,0,0-.8343-1.42367c-.28434-.39656-.5323-.819-.80288-1.22568-.621-.93337-1.29944-1.83338-1.85723-2.80294a3.33538,3.33538,0,0,1,.91245-4.5168,5.8207,5.8207,0,0,1,1.93784-.53054c.13049-.03473.29016.03769.41934.00091a3.58855,3.58855,0,0,0,.53482-.24519,1.58893,1.58893,0,0,0-.4893-.142c-1.66032.082-3.1737.37342-4.0993,2.04656a3.70057,3.70057,0,0,0-.12856,2.508A4.41342,4.41342,0,0,0,30.949,7.75753c.905,1.03547,1.7441,2.12855,2.60688,3.20065a.85878.85878,0,0,1,.093.239c-.09838-.00191-.24515.03773-.28783-.012-.54994-.64046-1.3299-1.06755-1.72077-1.85653a.80119.80119,0,0,0-.27316-.33359A5.50013,5.50013,0,0,1,29.5318,6.40259a10.15552,10.15552,0,0,1-.66816-2.72268c-.05341-.27873.665-.30739.37267-.69729-.132-.17608-.68865-.11851-.73144-.26242-.20531-.6906-.77161-.71534-1.241-.63534a7.7293,7.7293,0,0,0-1.843.65057c-.30563.13861-.27608.20375-.43035-.15267a2.16459,2.16459,0,0,0-1.1878-1.14747A7.22331,7.22331,0,0,0,21.41619.78058c-.47773-.04974-1.01.05468-1.40154-.35592A11.90213,11.90213,0,0,1,17.05587.34942,17.52934,17.52934,0,0,0,14.921.54915C14.28037.62,13.63833.68638,13.00269.79027c-.43137.07051-.43713.59842-.87416.79342-1.1539.5149-2.207,1.25223-3.35023,1.79605a1.2423,1.2423,0,0,0-.82246,1.0737,6.94543,6.94543,0,0,0,.94291,4.64807c.397.6756.72454,1.39161,1.10337,2.07837A3.21283,3.21283,0,0,0,12.14393,12.487c.56136.17624,1.14767.27255,1.7216.40972a.74147.74147,0,0,1,.17493.09711c-.07561.03783-.159.119-.22565.107a9.82973,9.82973,0,0,1-2.86757-.60393,4.95247,4.95247,0,0,1-1.82808-2.0156A12.09649,12.09649,0,0,1,7.4977,6.153a3.79539,3.79539,0,0,1,.21281-2.42349,1.10786,1.10786,0,0,0,.14571-.37435.31059.31059,0,0,0-.092-.26475.29872.29872,0,0,0-.28412.04843,3.34158,3.34158,0,0,0-.92834,2.45423A10.91778,10.91778,0,0,0,8.2355,10.2202c.36147.56226.75809,1.10191,1.13706,1.653a3.01586,3.01586,0,0,0,1.97736,1.19925c.436.09437.85745.25742,1.29441.3447a8.16432,8.16432,0,0,0,3.79368-.26289,8.86951,8.86951,0,0,0,3.13066-1.4355c1.08949-.84,2.1982-1.66812,3.19747-2.60883a9.08734,9.08734,0,0,0,2.818-3.83084c.58665-.35164-.14081-.81173.09662-1.243.0968-.17581-.3435-.58609.01934-.81941a4.55951,4.55951,0,0,1,1.20038-.52615,1.4458,1.4458,0,0,1,.749.0722,5.02788,5.02788,0,0,1,.72815.33738c-.23358.031-.46724.06153-.70075.09308a6.99939,6.99939,0,0,1-.90561.1168c-.65661.00163-.722.52706-.61446.89123.47717,1.6161-.32557,2.83955-1.24273,3.94509a17.60134,17.60134,0,0,1-2.82128,2.68981,16.98343,16.98343,0,0,1-4.91636,2.807,6.28856,6.28856,0,0,1-3.032.38838,11.1713,11.1713,0,0,1-3.77374-.84236,5.29254,5.29254,0,0,1-2.42619-2.28608C7.48536,9.953,6.97779,9.02636,6.505,8.08265a2.379,2.379,0,0,1-.16488-.57807c-.07586-.3621-.04528-.97668-.22345-1.04274a3.88373,3.88373,0,0,0-1.57633-.14531c-.84378.05781-1.68048.21312-2.52259.305A2.29243,2.29243,0,0,1,1.371,6.55609a2.24277,2.24277,0,0,1-.379-.14042c.12992-.02414.25913-.05361.3899-.07161,1.50909-.20764,3.01938-.407,4.52524-.63584.09205-.014.21835-.26684.20113-.3908a.42455.42455,0,0,0-.337-.24971c-.6717.0708-1.3414.1694-2.00731.28445-1.19386.20626-2.38435.43217-3.57743.64308C.1303,6.00517.06244,5.94929,0,5.92407c.04933-.07208.08867-.19628.14957-.208.4638-.08893.9359-.13642,1.39775-.23333,1.379-.28933,2.7575-.58324,4.1274-.912.15055-.03614.26059-.29988.36162-.47417A7.00475,7.00475,0,0,1,9.36661,1.30524,16.15216,16.15216,0,0,1,14.65149.06478a42.59376,42.59376,0,0,1,4.29843-.014c1.19565.01561,2.31505.38166,3.49322.43208a4.939,4.939,0,0,1,2.48046,1.084,1.33348,1.33348,0,0,0,1.33677.21023,2.32175,2.32175,0,0,1,2.67513.54437c.1595.18032.30463.28794.46255-.03146C30.08266.90539,31.46153.71755,32.74532.46357A11.93119,11.93119,0,0,1,36.71615.406c.72074.09994,1.49149-.0956,2.19443.05429A15.32579,15.32579,0,0,1,43.132,1.50353c.444.23617,1.07035.15887,1.4769.42972.8479.56494,1.78913,1.11481,1.90928,2.30967.08916.88681.93082.79271,1.46188,1.05454.84369.416,1.74651.712,2.61865,1.11289M43.303,1.98654a1.71908,1.71908,0,0,1-.53578-.06365,8.78639,8.78639,0,0,0-4.8795-.69085c-.104.012-.224.06319-.3096.02887a4.05707,4.05707,0,0,0-2.62312.06767,12.08962,12.08962,0,0,1-1.95654.43965,2.73224,2.73224,0,0,0-2.09617,3.91055A52.36885,52.36885,0,0,0,33.87576,10.334a3.91535,3.91535,0,0,0,1.3808,1.213A18.02779,18.02779,0,0,0,38.331,12.80079a3.082,3.082,0,0,0,1.97887.06089,12.93611,12.93611,0,0,0,4.80148-3.93031c1.13591-1.484.84259-3.15118.90767-4.78888.00327-.08251-.13212-.16388-.18441-.25628A4.38307,4.38307,0,0,0,43.303,1.98654m-34.4442.22154c-.13989.11339-.28638.21972-.41778.34221-.12675.11814-.44137.21323-.12306.43408.07762.05387.26638-.00462.3809-.05961q.95932-.46055,1.90594-.94732c.4836-.248.9614-.50755,1.43637-.7717.07769-.04321.12739-.13672.19-.207-.12238-.01322-.26227-.07192-.3644-.03259C10.9003,1.33836,9.94017,1.72723,8.85882,2.20808Z" style="fill:#fff"/><path id="fill1" d="M50.59867,6.41035c-1.08865-.265-2.16947-.59183-3.25681-.89532a2.03013,2.03013,0,0,0-.57759.00924,2.03975,2.03975,0,0,0,.48654.36308c.962.33813,1.9348.64519,2.90041.97316.08994.03053.15968.12815.23149.20173a1.42856,1.42856,0,0,1,.12247.16582c-.0977.02356-.21014.091-.29089.06394-.89991-.30165-1.78838-.63888-2.694-.92128a.72146.72146,0,0,0-.91806.65378c-.05272.43129-.05343.873-.14847,1.29391a3.08021,3.08021,0,0,1-.42839,1.13127c-.40425.55289-.92569,1.01827-1.366,1.547a8.33624,8.33624,0,0,1-4.24217,2.60284,5.27053,5.27053,0,0,1-3.34234-.48672c-.46614-.26151-.99817-.4026-1.48331-.63394-.48257-.2301-1.20555-.404-1.352-.784a6.27622,6.27622,0,0,0-.8343-1.42367c-.28434-.39656-.5323-.819-.80288-1.22568-.621-.93337-1.29944-1.83338-1.85723-2.80294a3.33538,3.33538,0,0,1,.91245-4.5168,5.8207,5.8207,0,0,1,1.93784-.53054c.13049-.03473.29016.03769.41934.00091a3.58855,3.58855,0,0,0,.53482-.24519,1.58893,1.58893,0,0,0-.4893-.142c-1.66032.082-3.1737.37342-4.0993,2.04656a3.70057,3.70057,0,0,0-.12856,2.508A4.41342,4.41342,0,0,0,30.949,7.75753c.905,1.03547,1.7441,2.12855,2.60688,3.20065a.85878.85878,0,0,1,.093.239c-.09838-.00191-.24515.03773-.28783-.012-.54994-.64046-1.3299-1.06755-1.72077-1.85653a.80119.80119,0,0,0-.27316-.33359A5.50013,5.50013,0,0,1,29.5318,6.40259a10.15552,10.15552,0,0,1-.66816-2.72268c-.05341-.27873.665-.30739.37267-.69729-.132-.17608-.68865-.11851-.73144-.26242-.20531-.6906-.77161-.71534-1.241-.63534a7.7293,7.7293,0,0,0-1.843.65057c-.30563.13861-.27608.20375-.43035-.15267a2.16459,2.16459,0,0,0-1.1878-1.14747A7.22331,7.22331,0,0,0,21.41619.78058c-.47773-.04974-1.01.05468-1.40154-.35592A11.90213,11.90213,0,0,1,17.05587.34942,17.52934,17.52934,0,0,0,14.921.54915C14.28037.62,13.63833.68638,13.00269.79027c-.43137.07051-.43713.59842-.87416.79342-1.1539.5149-2.207,1.25223-3.35023,1.79605a1.2423,1.2423,0,0,0-.82246,1.0737,6.94543,6.94543,0,0,0,.94291,4.64807c.397.6756.72454,1.39161,1.10337,2.07837A3.21283,3.21283,0,0,0,12.14393,12.487c.56136.17624,1.14767.27255,1.7216.40972a.74147.74147,0,0,1,.17493.09711c-.07561.03783-.159.119-.22565.107a9.82973,9.82973,0,0,1-2.86757-.60393,4.95247,4.95247,0,0,1-1.82808-2.0156A12.09649,12.09649,0,0,1,7.4977,6.153a3.79539,3.79539,0,0,1,.21281-2.42349,1.10786,1.10786,0,0,0,.14571-.37435.31059.31059,0,0,0-.092-.26475.29872.29872,0,0,0-.28412.04843,3.34158,3.34158,0,0,0-.92834,2.45423A10.91778,10.91778,0,0,0,8.2355,10.2202c.36147.56226.75809,1.10191,1.13706,1.653a3.01586,3.01586,0,0,0,1.97736,1.19925c.436.09437.85745.25742,1.29441.3447a8.16432,8.16432,0,0,0,3.79368-.26289,8.86951,8.86951,0,0,0,3.13066-1.4355c1.08949-.84,2.1982-1.66812,3.19747-2.60883a9.08734,9.08734,0,0,0,2.818-3.83084c.58665-.35164-.14081-.81173.09662-1.243.0968-.17581-.3435-.58609.01934-.81941a4.55951,4.55951,0,0,1,1.20038-.52615,1.4458,1.4458,0,0,1,.749.0722,5.02788,5.02788,0,0,1,.72815.33738c-.23358.031-.46724.06153-.70075.09308a6.99939,6.99939,0,0,1-.90561.1168c-.65661.00163-.722.52706-.61446.89123.47717,1.6161-.32557,2.83955-1.24273,3.94509a17.60134,17.60134,0,0,1-2.82128,2.68981,16.98343,16.98343,0,0,1-4.91636,2.807,6.28856,6.28856,0,0,1-3.032.38838,11.1713,11.1713,0,0,1-3.77374-.84236,5.29254,5.29254,0,0,1-2.42619-2.28608C7.48536,9.953,6.97779,9.02636,6.505,8.08265a2.379,2.379,0,0,1-.16488-.57807c-.07586-.3621-.04528-.97668-.22345-1.04274a3.88373,3.88373,0,0,0-1.57633-.14531c-.84378.05781-1.68048.21312-2.52259.305A2.29243,2.29243,0,0,1,1.371,6.55609a2.24277,2.24277,0,0,1-.379-.14042c.12992-.02414.25913-.05361.3899-.07161,1.50909-.20764,3.01938-.407,4.52524-.63584.09205-.014.21835-.26684.20113-.3908a.42455.42455,0,0,0-.337-.24971c-.6717.0708-1.3414.1694-2.00731.28445-1.19386.20626-2.38435.43217-3.57743.64308C.1303,6.00517.06244,5.94929,0,5.92407c.04933-.07208.08867-.19628.14957-.208.4638-.08893.9359-.13642,1.39775-.23333,1.379-.28933,2.7575-.58324,4.1274-.912.15055-.03614.26059-.29988.36162-.47417A7.00475,7.00475,0,0,1,9.36661,1.30524,16.15216,16.15216,0,0,1,14.65149.06478a42.59376,42.59376,0,0,1,4.29843-.014c1.19565.01561,2.31505.38166,3.49322.43208a4.939,4.939,0,0,1,2.48046,1.084,1.33348,1.33348,0,0,0,1.33677.21023,2.32175,2.32175,0,0,1,2.67513.54437c.1595.18032.30463.28794.46255-.03146C30.08266.90539,31.46153.71755,32.74532.46357A11.93119,11.93119,0,0,1,36.71615.406c.72074.09994,1.49149-.0956,2.19443.05429A15.32579,15.32579,0,0,1,43.132,1.50353c.444.23617,1.07035.15887,1.4769.42972.8479.56494,1.78913,1.11481,1.90928,2.30967.08916.88681.93082.79271,1.46188,1.05454.84369.416,1.74651.712,2.61865,1.11289M43.303,1.98654a1.71908,1.71908,0,0,1-.53578-.06365,8.78639,8.78639,0,0,0-4.8795-.69085c-.104.012-.224.06319-.3096.02887a4.05707,4.05707,0,0,0-2.62312.06767,12.08962,12.08962,0,0,1-1.95654.43965,2.73224,2.73224,0,0,0-2.09617,3.91055A52.36885,52.36885,0,0,0,33.87576,10.334a3.91535,3.91535,0,0,0,1.3808,1.213A18.02779,18.02779,0,0,0,38.331,12.80079a3.082,3.082,0,0,0,1.97887.06089,12.93611,12.93611,0,0,0,4.80148-3.93031c1.13591-1.484.84259-3.15118.90767-4.78888.00327-.08251-.13212-.16388-.18441-.25628A4.38307,4.38307,0,0,0,43.303,1.98654m-34.4442.22154c-.13989.11339-.28638.21972-.41778.34221-.12675.11814-.44137.21323-.12306.43408.07762.05387.26638-.00462.3809-.05961q.95932-.46055,1.90594-.94732c.4836-.248.9614-.50755,1.43637-.7717.07769-.04321.12739-.13672.19-.207-.12238-.01322-.26227-.07192-.3644-.03259C10.9003,1.33836,9.94017,1.72723,8.85882,2.20808Z"/></g></g></svg>