<svg xmlns="http://www.w3.org/2000/svg" width="49.93318" height="15.57019" viewBox="0 0 49.93318 15.57019"><title>glasses-2</title><g id="Layer_2" data-name="Layer 2"><g id="glasses-2"><path id="void" d="M29.36376,10.43844a7.79636,7.79636,0,0,1-.72392-4.27915,2.58135,2.58135,0,0,1,.39989-1.23476A8.35651,8.35651,0,0,1,34.17342.75583,15.08371,15.08371,0,0,1,38.96748.50432c1.38287.09792,2.87449.39617,3.6582,1.87433a1.182,1.182,0,0,0,.46671.448A3.00869,3.00869,0,0,1,44.692,4.745c.095.35129.45841.37685.80243.35043,1.55283-.11922,2.89769.66837,4.342,1.02359.05123.0126.06388.18181.0945.278a.71949.71949,0,0,1-.22062.00979c-.58285-.16182-1.15641-.36526-1.74673-.49019-.76881-.16272-1.54826-.282-2.32813-.38049a1.12,1.12,0,0,0-.568.18707c-.07358.03737-.16.207-.133.25187a.4298.4298,0,0,0,.28228.20157,18.07088,18.07088,0,0,1,4.35059,1.01074c.14258.045.24488.2176.36587.331-.16849.03257-.37679.14579-.49932.08527a10.63877,10.63877,0,0,0-4.01061-.77407c-.35439-.02809-.53566.04332-.48328.46438a8.85589,8.85589,0,0,1,.03495,1.30253,5.6452,5.6452,0,0,1-2.75951,5.081,19.9064,19.9064,0,0,1-3.65411,1.67809,3.1,3.1,0,0,1-1.68854.11116,13.2656,13.2656,0,0,1-3.04165-1.02252,30.76554,30.76554,0,0,1-3.26958-2.1234,3.2939,3.2939,0,0,1-1.19777-1.88235m1.05521-6.545a.411.411,0,0,1-.21264.222,5.24785,5.24785,0,0,0-.96145,2.97571,8.60456,8.60456,0,0,0,.35293,2.54637A4.51345,4.51345,0,0,0,32.35,12.78126a3.69965,3.69965,0,0,1,.77021.51086,7.00807,7.00807,0,0,0,5.34587,1.28633,5.92252,5.92252,0,0,0,1.00887-.441,9.88389,9.88389,0,0,0,3.73975-2.47887,5.83535,5.83535,0,0,0,1.28945-3.80372,14.00538,14.00538,0,0,0-.23-1.9681c-.08758-1.18155-.29731-2.26509-1.62351-2.69648a.63166.63166,0,0,1-.329-.24872C41.41137,1.38389,39.88594,1.171,38.30645,1.124c-.94-.028-1.88357.013-2.82355.06179-.33376.0173-.66158.21592-.99213.216a5.68864,5.68864,0,0,0-2.33566.93483c-.58894.2667-1.33917.474-1.52349,1.33494A.41093.41093,0,0,1,30.419,3.89347ZM7.31277,6.12892A12.6616,12.6616,0,0,1,7.7445,4.46733,6.07327,6.07327,0,0,1,9.698,2.01478,8.69609,8.69609,0,0,1,11.94825.6727,11.23705,11.23705,0,0,1,14.22646.14609a9.42276,9.42276,0,0,1,2.20271-.1337,9.26561,9.26561,0,0,1,5.19188,2.14015,4.46963,4.46963,0,0,1,1.76446,2.36987c.06675.2623.251.52115.71077.23094a3.58289,3.58289,0,0,1,3.20486-.00676c.07431.02488.11693.14445.17428.22-.09733.02782-.21173.10368-.28937.07609a3.53518,3.53518,0,0,0-2.64424.06359c-.0925.03886-.18785.07108-.28187.10638a.77319.77319,0,0,0,.26174.10667c.5426-.00121,1.08514-.02114,1.62777-.02813a2.38865,2.38865,0,0,1,.635.02927,2.219,2.219,0,0,1,.50425.28544,4.03261,4.03261,0,0,1-.58664.04266,11.01071,11.01071,0,0,0-1.23977-.11414c-.54113.026-.754.30437-.75042.83682a9.03686,9.03686,0,0,0,.02756,1.08451,7.02293,7.02293,0,0,1-2.12777,5.81752,7.24435,7.24435,0,0,1-3.60088,1.95884,18.55351,18.55351,0,0,1-5.32929.26956,6.51953,6.51953,0,0,1-3.151-1.26621c-1.62634-1.104-2.22385-2.8321-2.921-4.51221C7.14151,8.59566,7.432,7.39811,7.31277,6.12892m5.50609,8.36077c.0801.07075.15387.19383.24125.20441a21.21149,21.21149,0,0,0,4.07666.14589A7.12289,7.12289,0,0,0,22.437,12.22551a8.46969,8.46969,0,0,0,1.29337-2.29533,3.74,3.74,0,0,0,.18053-3.17566,14.4775,14.4775,0,0,0-1.2668-2.61641A8.04338,8.04338,0,0,0,17.02383.6499a12.9514,12.9514,0,0,0-4.4.3721c-1.78942.325-2.92791,1.64118-3.93237,2.95854a5.48009,5.48009,0,0,0-.92555,3.72335,7.37326,7.37326,0,0,0,3.40483,6.04647A7.11841,7.11841,0,0,0,12.81886,14.48969ZM0,8.31921c.0325.04625.06992.13495.09669.13184a2.10953,2.10953,0,0,0,.50316-.09673c.90726-.3438,1.79976-.72954,2.71718-1.04275,1.019-.34788,2.05919-.6334,3.09029-.94561.152-.046.30482-.08958.45726-.13426a2.2341,2.2341,0,0,0-.53226-.28608.99006.99006,0,0,0-.50642.07466c-.57056.19474-1.14027.394-1.70124.61451-1.245.48946-2.48444.99287-3.7793,1.54608A1.43,1.43,0,0,1,0,8.31921Zm1.78035.375c-.10666.045-.167.19977-.24881.30372a1.22229,1.22229,0,0,0,.36866-.00269C3.42813,8.49457,4.828,7.61715,6.46932,7.445c.077-.008.14414-.1099.21587-.16806-.07928-.08661-.152-.24077-.2389-.24928a3.53477,3.53477,0,0,0-2.19868.63456C3.38861,8.04052,2.57991,8.35654,1.78035,8.6942ZM29.943,6a11.48414,11.48414,0,0,0,.294,3.906,2.94932,2.94932,0,0,0,1.988,2.156,4.36423,4.36423,0,0,0-.31139-.35493,4.57591,4.57591,0,0,1-1.46908-2.61611,26.846,26.846,0,0,1-.09856-2.84564A3.02922,3.02922,0,0,1,31.75929,3.587a2.94947,2.94947,0,0,0,.67159-.69766c.04334-.05218-.01442-.18827-.02561-.28568a.52.52,0,0,0-.15074.04339c-.50622.3385-1.00991.6808-1.51309,1.07644-.0705.09211-.14214.12987-.21264.222s-.14215.12987-.21265.222A9.99878,9.99878,0,0,0,29.943,6Zm2.48722,6.23654a.3042.3042,0,0,0-.2029-.06592A.30431.30431,0,0,0,32.43019,12.2365ZM8.81691,4.74224a7.15379,7.15379,0,0,0-.10663,5.506,4.66542,4.66542,0,0,0,.3288.62058c.03325-.23373.07469-.46681.09332-.70168.00416-.05227-.08619-.10564-.10888-.16739a6.059,6.059,0,0,1,2.315-7.30667,2.76382,2.76382,0,0,0,.52469-.54486c.0452-.05289.0382-.15036.05512-.22736-.06936-.00571-.15994-.04287-.205-.01249a5.16992,5.16992,0,0,0-2.21864,2.054A3.733,3.733,0,0,0,8.81691,4.74224Z"/><path id="fill1" d="M29.36376,10.43844a7.79636,7.79636,0,0,1-.72392-4.27915,2.58135,2.58135,0,0,1,.39989-1.23476A8.35651,8.35651,0,0,1,34.17342.75583,15.08371,15.08371,0,0,1,38.96748.50432c1.38287.09792,2.87449.39617,3.6582,1.87433a1.182,1.182,0,0,0,.46671.448A3.00869,3.00869,0,0,1,44.692,4.745c.095.35129.45841.37685.80243.35043,1.55283-.11922,2.89769.66837,4.342,1.02359.05123.0126.06388.18181.0945.278a.71949.71949,0,0,1-.22062.00979c-.58285-.16182-1.15641-.36526-1.74673-.49019-.76881-.16272-1.54826-.282-2.32813-.38049a1.12,1.12,0,0,0-.568.18707c-.07358.03737-.16.207-.133.25187a.4298.4298,0,0,0,.28228.20157,18.07088,18.07088,0,0,1,4.35059,1.01074c.14258.045.24488.2176.36587.331-.16849.03257-.37679.14579-.49932.08527a10.63877,10.63877,0,0,0-4.01061-.77407c-.35439-.02809-.53566.04332-.48328.46438a8.85589,8.85589,0,0,1,.03495,1.30253,5.6452,5.6452,0,0,1-2.75951,5.081,19.9064,19.9064,0,0,1-3.65411,1.67809,3.1,3.1,0,0,1-1.68854.11116,13.2656,13.2656,0,0,1-3.04165-1.02252,30.76554,30.76554,0,0,1-3.26958-2.1234,3.2939,3.2939,0,0,1-1.19777-1.88235m1.05521-6.545a.411.411,0,0,1-.21264.222,5.24785,5.24785,0,0,0-.96145,2.97571,8.60456,8.60456,0,0,0,.35293,2.54637A4.51345,4.51345,0,0,0,32.35,12.78126a3.69965,3.69965,0,0,1,.77021.51086,7.00807,7.00807,0,0,0,5.34587,1.28633,5.92252,5.92252,0,0,0,1.00887-.441,9.88389,9.88389,0,0,0,3.73975-2.47887,5.83535,5.83535,0,0,0,1.28945-3.80372,14.00538,14.00538,0,0,0-.23-1.9681c-.08758-1.18155-.29731-2.26509-1.62351-2.69648a.63166.63166,0,0,1-.329-.24872C41.41137,1.38389,39.88594,1.171,38.30645,1.124c-.94-.028-1.88357.013-2.82355.06179-.33376.0173-.66158.21592-.99213.216a5.68864,5.68864,0,0,0-2.33566.93483c-.58894.2667-1.33917.474-1.52349,1.33494A.41093.41093,0,0,1,30.419,3.89347ZM7.31277,6.12892A12.6616,12.6616,0,0,1,7.7445,4.46733,6.07327,6.07327,0,0,1,9.698,2.01478,8.69609,8.69609,0,0,1,11.94825.6727,11.23705,11.23705,0,0,1,14.22646.14609a9.42276,9.42276,0,0,1,2.20271-.1337,9.26561,9.26561,0,0,1,5.19188,2.14015,4.46963,4.46963,0,0,1,1.76446,2.36987c.06675.2623.251.52115.71077.23094a3.58289,3.58289,0,0,1,3.20486-.00676c.07431.02488.11693.14445.17428.22-.09733.02782-.21173.10368-.28937.07609a3.53518,3.53518,0,0,0-2.64424.06359c-.0925.03886-.18785.07108-.28187.10638a.77319.77319,0,0,0,.26174.10667c.5426-.00121,1.08514-.02114,1.62777-.02813a2.38865,2.38865,0,0,1,.635.02927,2.219,2.219,0,0,1,.50425.28544,4.03261,4.03261,0,0,1-.58664.04266,11.01071,11.01071,0,0,0-1.23977-.11414c-.54113.026-.754.30437-.75042.83682a9.03686,9.03686,0,0,0,.02756,1.08451,7.02293,7.02293,0,0,1-2.12777,5.81752,7.24435,7.24435,0,0,1-3.60088,1.95884,18.55351,18.55351,0,0,1-5.32929.26956,6.51953,6.51953,0,0,1-3.151-1.26621c-1.62634-1.104-2.22385-2.8321-2.921-4.51221C7.14151,8.59566,7.432,7.39811,7.31277,6.12892m5.50609,8.36077c.0801.07075.15387.19383.24125.20441a21.21149,21.21149,0,0,0,4.07666.14589A7.12289,7.12289,0,0,0,22.437,12.22551a8.46969,8.46969,0,0,0,1.29337-2.29533,3.74,3.74,0,0,0,.18053-3.17566,14.4775,14.4775,0,0,0-1.2668-2.61641A8.04338,8.04338,0,0,0,17.02383.6499a12.9514,12.9514,0,0,0-4.4.3721c-1.78942.325-2.92791,1.64118-3.93237,2.95854a5.48009,5.48009,0,0,0-.92555,3.72335,7.37326,7.37326,0,0,0,3.40483,6.04647A7.11841,7.11841,0,0,0,12.81886,14.48969ZM0,8.31921c.0325.04625.06992.13495.09669.13184a2.10953,2.10953,0,0,0,.50316-.09673c.90726-.3438,1.79976-.72954,2.71718-1.04275,1.019-.34788,2.05919-.6334,3.09029-.94561.152-.046.30482-.08958.45726-.13426a2.2341,2.2341,0,0,0-.53226-.28608.99006.99006,0,0,0-.50642.07466c-.57056.19474-1.14027.394-1.70124.61451-1.245.48946-2.48444.99287-3.7793,1.54608A1.43,1.43,0,0,1,0,8.31921Zm1.78035.375c-.10666.045-.167.19977-.24881.30372a1.22229,1.22229,0,0,0,.36866-.00269C3.42813,8.49457,4.828,7.61715,6.46932,7.445c.077-.008.14414-.1099.21587-.16806-.07928-.08661-.152-.24077-.2389-.24928a3.53477,3.53477,0,0,0-2.19868.63456C3.38861,8.04052,2.57991,8.35654,1.78035,8.6942ZM29.943,6a11.48414,11.48414,0,0,0,.294,3.906,2.94932,2.94932,0,0,0,1.988,2.156,4.36423,4.36423,0,0,0-.31139-.35493,4.57591,4.57591,0,0,1-1.46908-2.61611,26.846,26.846,0,0,1-.09856-2.84564A3.02922,3.02922,0,0,1,31.75929,3.587a2.94947,2.94947,0,0,0,.67159-.69766c.04334-.05218-.01442-.18827-.02561-.28568a.52.52,0,0,0-.15074.04339c-.50622.3385-1.00991.6808-1.51309,1.07644-.0705.09211-.14214.12987-.21264.222s-.14215.12987-.21265.222A9.99878,9.99878,0,0,0,29.943,6Zm2.48722,6.23654a.3042.3042,0,0,0-.2029-.06592A.30431.30431,0,0,0,32.43019,12.2365ZM8.81691,4.74224a7.15379,7.15379,0,0,0-.10663,5.506,4.66542,4.66542,0,0,0,.3288.62058c.03325-.23373.07469-.46681.09332-.70168.00416-.05227-.08619-.10564-.10888-.16739a6.059,6.059,0,0,1,2.315-7.30667,2.76382,2.76382,0,0,0,.52469-.54486c.0452-.05289.0382-.15036.05512-.22736-.06936-.00571-.15994-.04287-.205-.01249a5.16992,5.16992,0,0,0-2.21864,2.054A3.733,3.733,0,0,0,8.81691,4.74224Z"/></g></g></svg>