<svg xmlns="http://www.w3.org/2000/svg" width="49.7516" height="14.44945" viewBox="0 0 49.7516 14.44945"><title>glasses-3</title><g id="Layer_2" data-name="Layer 2"><g id="glasses-3"><path id="void" d="M2.62784,2.64224a4.10106,4.10106,0,0,0,2.661-.65478A12.20581,12.20581,0,0,1,9.66431.4981a14.93973,14.93973,0,0,1,4.376-.47951A35.73057,35.73057,0,0,1,18.8814.6518a20.29807,20.29807,0,0,1,2.52644.4762,2.31013,2.31013,0,0,1,.8907.45287,1.14283,1.14283,0,0,0,1.35269.13175,5.19707,5.19707,0,0,1,2.48853-.37356q.87917.1011,1.75631.2194a.69535.69535,0,0,1,.38086.11854c.8211.835,1.67194.55286,2.53711.09643A16.39181,16.39181,0,0,1,35.26512.4439a20.90265,20.90265,0,0,1,4.9108-.1563c1.3273.03867,2.64024.43994,3.96924.60018a18.60434,18.60434,0,0,1,2.41118.21424,5.50945,5.50945,0,0,1,3.09141,1.72091.40076.40076,0,0,1-.27188.674,9.16267,9.16267,0,0,1-1.13573-.1236c-.4954-.03918-.99269-.06555-1.48918-.066-.072,0-.197.16909-.208.2697-.08745.80113-.12577,1.60827-.23126,2.4067a18.17675,18.17675,0,0,1-1.33752,5.19989,3.69862,3.69862,0,0,1-2.96567,2.14459,19.77833,19.77833,0,0,1-2.84824.17851,10.10889,10.10889,0,0,1-2.75738-.41443,5.60982,5.60982,0,0,0-1.19015-.01966,6.38593,6.38593,0,0,1-2.86615-.674,5.10053,5.10053,0,0,1-2.78671-3.89868A15.79071,15.79071,0,0,0,28.87374,5.965c-.16719-.54267-.40463-1.06329-.59527-1.59925a2.21524,2.21524,0,0,0-1.89254-1.28842c-.39829-.0023-.7982-.02327-1.1945.00479-.656.04644-.79056.2362-.83309.879A8.66138,8.66138,0,0,1,23.266,8.17472a38.99955,38.99955,0,0,1-2.6157,3.69194,6.21522,6.21522,0,0,1-3.99652,1.86407c-1.10771.20151-2.20252.51854-3.31787.61759a3.20472,3.20472,0,0,1-2.18833-.186c-1.19556.18575-1.88262-.61939-2.58575-1.35615A11.11769,11.11769,0,0,1,6.77328,9.52957C6.30157,8.497,5.95563,7.40646,5.56511,6.33751c-.24145-.66092-.4755-1.32518-.68713-1.99606-.09743-.3089-.22917-.45365-.58413-.4028-.69035.0989-1.39269.11989-2.07963.23531-.564.09478-1.10729.31689-1.67192.39971C.39087,4.59588.104,4.34855.0374,4.167A1.12467,1.12467,0,0,1,.76923,2.88211c.57578-.117,1.166-.1631,1.85861-.23987m20.2145,2.717c0-.10859-.04386-.24744.0069-.321.44183-.6405.14346-1.06977-.3279-1.54449a5.54932,5.54932,0,0,0-2.01382-.92156,23.33323,23.33323,0,0,0-5.14058-1.20994c-.4586-.08755-.9747.18411-1.46248.17591-.52045-.00875-1.03172-.03537-1.559-.01191a11.22335,11.22335,0,0,0-5.6966,1.99844.62019.62019,0,0,0-.20927.89793c.32763.73012.49015,1.53242.75686,2.29218a29.94585,29.94585,0,0,0,1.86608,4.65763,2.7397,2.7397,0,0,0,2.41254,1.49322,17.847,17.847,0,0,0,5.69777-.67978A4.08753,4.08753,0,0,0,19.46938,10.914c.46348-.577,1.03631-1.07644,1.43791-1.69054a11.435,11.435,0,0,0,1.62838-2.688,8.97348,8.97348,0,0,0,.30667-1.17626m22.17075-2.1736a5.34705,5.34705,0,0,0-3.4-.92554c-2.20653-.10744-4.428.09238-6.64334.16447a.77932.77932,0,0,0-.2163.00317c-1.45707.50344-2.92089.98936-4.36459,1.52887a.78954.78954,0,0,0-.471,1.27932,10.8106,10.8106,0,0,1,.95641,3.29861,3.7108,3.7108,0,0,0,2.52117,2.81319c1.43038.54264,2.94542.36662,4.41115.60848a11.51874,11.51874,0,0,0,3.14249.00758c1.15385-.13175,2.29687-.43754,2.76017-1.7395a25.1107,25.1107,0,0,0,.99258-2.84371c.29975-1.33559.77339-2.67537.31124-4.19494" style="fill:#fff"/><path id="fill1" d="M2.62784,2.64224a4.10106,4.10106,0,0,0,2.661-.65478A12.20581,12.20581,0,0,1,9.66431.4981a14.93973,14.93973,0,0,1,4.376-.47951A35.73057,35.73057,0,0,1,18.8814.6518a20.29807,20.29807,0,0,1,2.52644.4762,2.31013,2.31013,0,0,1,.8907.45287,1.14283,1.14283,0,0,0,1.35269.13175,5.19707,5.19707,0,0,1,2.48853-.37356q.87917.1011,1.75631.2194a.69535.69535,0,0,1,.38086.11854c.8211.835,1.67194.55286,2.53711.09643A16.39181,16.39181,0,0,1,35.26512.4439a20.90265,20.90265,0,0,1,4.9108-.1563c1.3273.03867,2.64024.43994,3.96924.60018a18.60434,18.60434,0,0,1,2.41118.21424,5.50945,5.50945,0,0,1,3.09141,1.72091.40076.40076,0,0,1-.27188.674,9.16267,9.16267,0,0,1-1.13573-.1236c-.4954-.03918-.99269-.06555-1.48918-.066-.072,0-.197.16909-.208.2697-.08745.80113-.12577,1.60827-.23126,2.4067a18.17675,18.17675,0,0,1-1.33752,5.19989,3.69862,3.69862,0,0,1-2.96567,2.14459,19.77833,19.77833,0,0,1-2.84824.17851,10.10889,10.10889,0,0,1-2.75738-.41443,5.60982,5.60982,0,0,0-1.19015-.01966,6.38593,6.38593,0,0,1-2.86615-.674,5.10053,5.10053,0,0,1-2.78671-3.89868A15.79071,15.79071,0,0,0,28.87374,5.965c-.16719-.54267-.40463-1.06329-.59527-1.59925a2.21524,2.21524,0,0,0-1.89254-1.28842c-.39829-.0023-.7982-.02327-1.1945.00479-.656.04644-.79056.2362-.83309.879A8.66138,8.66138,0,0,1,23.266,8.17472a38.99955,38.99955,0,0,1-2.6157,3.69194,6.21522,6.21522,0,0,1-3.99652,1.86407c-1.10771.20151-2.20252.51854-3.31787.61759a3.20472,3.20472,0,0,1-2.18833-.186c-1.19556.18575-1.88262-.61939-2.58575-1.35615A11.11769,11.11769,0,0,1,6.77328,9.52957C6.30157,8.497,5.95563,7.40646,5.56511,6.33751c-.24145-.66092-.4755-1.32518-.68713-1.99606-.09743-.3089-.22917-.45365-.58413-.4028-.69035.0989-1.39269.11989-2.07963.23531-.564.09478-1.10729.31689-1.67192.39971C.39087,4.59588.104,4.34855.0374,4.167A1.12467,1.12467,0,0,1,.76923,2.88211c.57578-.117,1.166-.1631,1.85861-.23987m20.2145,2.717c0-.10859-.04386-.24744.0069-.321.44183-.6405.14346-1.06977-.3279-1.54449a5.54932,5.54932,0,0,0-2.01382-.92156,23.33323,23.33323,0,0,0-5.14058-1.20994c-.4586-.08755-.9747.18411-1.46248.17591-.52045-.00875-1.03172-.03537-1.559-.01191a11.22335,11.22335,0,0,0-5.6966,1.99844.62019.62019,0,0,0-.20927.89793c.32763.73012.49015,1.53242.75686,2.29218a29.94585,29.94585,0,0,0,1.86608,4.65763,2.7397,2.7397,0,0,0,2.41254,1.49322,17.847,17.847,0,0,0,5.69777-.67978A4.08753,4.08753,0,0,0,19.46938,10.914c.46348-.577,1.03631-1.07644,1.43791-1.69054a11.435,11.435,0,0,0,1.62838-2.688,8.97348,8.97348,0,0,0,.30667-1.17626m22.17075-2.1736a5.34705,5.34705,0,0,0-3.4-.92554c-2.20653-.10744-4.428.09238-6.64334.16447a.77932.77932,0,0,0-.2163.00317c-1.45707.50344-2.92089.98936-4.36459,1.52887a.78954.78954,0,0,0-.471,1.27932,10.8106,10.8106,0,0,1,.95641,3.29861,3.7108,3.7108,0,0,0,2.52117,2.81319c1.43038.54264,2.94542.36662,4.41115.60848a11.51874,11.51874,0,0,0,3.14249.00758c1.15385-.13175,2.29687-.43754,2.76017-1.7395a25.1107,25.1107,0,0,0,.99258-2.84371c.29975-1.33559.77339-2.67537.31124-4.19494"/></g></g></svg>