<svg xmlns="http://www.w3.org/2000/svg" width="51.52623" height="35.10942" viewBox="0 0 51.52623 35.10942"><title>facial-hair-1</title><g id="Layer_2" data-name="Layer 2"><g id="facial-hair-1"><path id="void" d="M6.87037,3.68884c-.07642.02692-.1847-.03674-.27845-.05847.04773-.07257.07862-.17895.14576-.21246a13.63732,13.63732,0,0,1,1.97168-.93067,2.1789,2.1789,0,0,1,1.97949-.0263,4.67445,4.67445,0,0,1,.582.31866,1.81176,1.81176,0,0,0,.99414.59876.43288.43288,0,0,1,.17749.07361.48257.48257,0,0,1,.52637.16137,4.2483,4.2483,0,0,0,.55566.56732,1.162,1.162,0,0,1,.28735.108c.552.32446,1.08374.68444,1.64222.99682.08764.04907.29528-.05.41052-.13232.16455-.1178.27917-.37573.44446-.40418.19152-.03308.41467.11756.624.18848a2.44724,2.44724,0,0,1-.18115.35992c-.07874.10975-.20667.18518-.28.29725a.25219.25219,0,0,0-.02991.10992.70675.70675,0,0,1,.07129.02063c.03894.01794.07422.04224.11279.06079.03-.01257.06128-.0227.09034-.03723.28344-.14191.5603-.298.8479-.43066a1.47306,1.47306,0,0,1,.5393-.1695c.09912-.00311.24146.13635.28968.24475.026.05823-.08826.20593-.17.27869-.10986.09753-.27722.13824-.36816.2467a1.34571,1.34571,0,0,0-.15821.3985c.13025.01593.29725.0918.38489.03815.66528-.40735,1.38611-.13965,2.07654-.181.45386-.02716.75281.15362.261.60937-.012.01105.08691.19275.11425.18769a7.81806,7.81806,0,0,1,1.90088-.18763,3.27046,3.27046,0,0,1,1.03955.20844c.55054.22888.59546.28839.21485.63342a1.20858,1.20858,0,0,1,.77307-.01581,2.07945,2.07945,0,0,1,.20642-.12939,1.141,1.141,0,0,1,1.3855.31567,1.13565,1.13565,0,0,1,.19751.10376.63188.63188,0,0,1,.17737.1817l.00293.00135A1.10956,1.10956,0,0,1,27.768,7.7229a.68963.68963,0,0,1,.32519.42267,2.27317,2.27317,0,0,1,.51429-.30615.51415.51415,0,0,1,.30114-.01447,1.71583,1.71583,0,0,0,.04078-.21759c.0841-.66284.29772-.79577.77514-.4035.032.02624.06275.04126.09436.064a.71674.71674,0,0,1,.9303.256,3.96933,3.96933,0,0,0,1.0083-.34144c.594-.251.783-.306,1.10693-.04705a1.99784,1.99784,0,0,1,.55689-.46332.24551.24551,0,0,1,.08691-.2135c.2605-.23871.61719-.13544.91883.15252a3.75721,3.75721,0,0,1,.49133-.32366c.022-.02.04761-.03687.06982-.05658-.14587-.22553-.2622-.46924.01612-.65033a.6376.6376,0,0,1,.74487.09423c.08032-.04907.15381-.10327.23877-.149a.76642.76642,0,0,1,.32947-.07636c-.13172-.0755-.29431-.17077-.04627-.35418.201-.14862.291-.60846.719-.24408a1.29525,1.29525,0,0,0,.18823.10943,5.35072,5.35072,0,0,1,.75293-.52106c.01025-.00933.02185-.01513.0321-.02429.00293-.03546.00476-.071.00782-.10644.00524-.05982.03491-.15662.07385-.1684.42407-.12793.896-.40509,1.27075-.3324a2.0422,2.0422,0,0,1,.32043-.14166c.13074-.07275.25892-.149.38147-.23309l.0105-.03076c.05591-.17829.18091-.479.27454-.479a1.342,1.342,0,0,0,.31018-.03741,3.06429,3.06429,0,0,1,1.35364-.99786.64124.64124,0,0,1,.39172.04431,1.34225,1.34225,0,0,1,.19116-.05158,3.82049,3.82049,0,0,0,1.022-.25323c.269-.12384.57446-.04645.835-.329.46631-.50586.96728-.37653,1.38012.26043.34827.53754.68286,1.08411,1.01477,1.632a3.20792,3.20792,0,0,1,.18177.42127,1.26806,1.26806,0,0,1-.35755-.20075c-.35119-.39587-.69738-.798-1.01745-1.21918-.45716-.60174-.43042-.55969-.94434-.18554-.64319.46838-1.35962.83612-2.04492,1.24634-.02661.01593-.07007.03961-.08777.02923a2.04634,2.04634,0,0,0-.20227-.1001c-.04126.04377-.197.14606-.25659.20325-.10462.10034-.19971.21332-.31153.30621-.04418.03675-.07849.07843-.11865.11719a1.67763,1.67763,0,0,1-.0415.20667c-.03955.14233-.25513.22455-.47486.31665L41.121,4.3371a3.9172,3.9172,0,0,1-.47266.36535c-.08447.25757-.02478.63752-.4812.63208-.38184-.00451-.47656.22718-.59485.53595-.14075.36725-.384.26935-.564-.00927a1.03763,1.03763,0,0,1-.05359-.1037c-.18091.19751-.37452.385-.57141.5697a.97928.97928,0,0,1-.71766,1.11023c-.27356.092-.38208.6347-.60229.94617-.083.11731-.26856.162-.40735.23974-.01721-.04748-.03308-.09533-.05066-.1427-.07214.071-.14258.14392-.21582.21344-.13037.12409-.27319.23841-.41357.35468-.02185.1272-.03882.25525-.06324.382-.085.44262-.42858.458-.77026.42065-.02173.02081-.04309.04395-.0647.06464a2.84022,2.84022,0,0,1-.42627.343,6.862,6.862,0,0,1-.5205,1.25086c-.06641.12268-.34034.16064-.52344.17236-.03687.00238-.1134-.18115-.13819-.32275a2.677,2.677,0,0,1-.63818.53351.67971.67971,0,0,1-.47217.07751c-.03589.02405-.07251.04767-.10742.07281-.019-.04168-.03711-.0838-.05688-.1253a.74556.74556,0,0,1-.2146-.14179l-.01929.0069a.904.904,0,0,1-.48169-.01886,2.3761,2.3761,0,0,0-.26746.70178c-.05127.33753-.25476.29511-.42309.24665a.41929.41929,0,0,1-.19983-.34821c.004-.041.00415-.0816.00684-.1225a.69532.69532,0,0,1-.3949.04541,2.09631,2.09631,0,0,1-.24878.10291.64237.64237,0,0,1-.15454.03064c-.49671.33441-1.04236.47009-1.47107-.03766a1.14158,1.14158,0,0,1-.233-.49658,2.32881,2.32881,0,0,1-.82947.4021,1.24523,1.24523,0,0,1-.41089.18469.874.874,0,0,1-.394.00574c-.02417.01745-.05274.0274-.07764.04358a.215.215,0,0,1-.01978.01111.9505.9505,0,0,1-1.1621.025c-.03187.12567-.07984.25067-.11768.37616-.22144-.11237-.59631-.18524-.63721-.34406l-.00366-.01361a.6845.6845,0,0,1-.08911-.03332.86246.86246,0,0,1-.32044-.01563,4.48466,4.48466,0,0,1-.37316.33692c.02221.21216.024.34118-.115.407a.50633.50633,0,0,1-.38526-.08374A.96319.96319,0,0,1,22.0636,13.122a.81474.81474,0,0,1-.23388-.31287,1.09141,1.09141,0,0,1-.8772-.94708c-.18616.36517-.25037.14856-.37036-.00128-.01819-.02283-.03394-.05066-.05225-.075a1.01078,1.01078,0,0,1-.2904-.04669,2.14681,2.14681,0,0,1-.82581-.69611c-.03393.07056-.27515.16907-.32825.1308-.28906-.2085-.4591-.582-.93029-.52619-.07947.0094-.30347-.36908-.291-.55713a4.80546,4.80546,0,0,0-.00586-.58215,6.88634,6.88634,0,0,1-.78979-.48724l-.00672.01294c-.13122-.10266-.35876-.2182-.405-.30957a10.57361,10.57361,0,0,1-.83484-.74115.5568.5568,0,0,1-.26867-.12665.82534.82534,0,0,1-.155-.30182,1.1524,1.1524,0,0,1-.29578-.60883c-.03064-.0263-.06714-.05633-.09851-.08337-.00732.0155-.02124.02789-.02759.0437-.109.27222-.155.66022-.58581.40387-.35376-.21063-.28589-.57367-.17432-.8952a.30958.30958,0,0,1,.08692-.107c-.106-.07861-.20936-.16034-.31641-.23767-.02.03015-.0398.06086-.06116.08924a1.806,1.806,0,0,1-.3717-.40558c-.217-.15894-.42615-.32685-.63233-.498a.199.199,0,0,1-.098.06018c-.243.04218-.57947.14441-.52307-.33343a2.14629,2.14629,0,0,0,.00354-.3172c-.0968-.10492-.20227-.2-.29065-.31488a.48311.48311,0,0,1-.09644-.23035c-.00451.003-.00952.00189-.01391.00519-.37781.27911-.5846.01843-.67871-.19934a1.69607,1.69607,0,0,0-1.10718-1.02368,3.00459,3.00459,0,0,0-1.91992.27478C7.76343,3.36768,7.31727,3.53125,6.87037,3.68884Zm44.62805,6.0409c-.00049.05645-.08618.27112-.23072.28857a.65425.65425,0,0,1-.144.14472,1.67863,1.67863,0,0,1-.082,1.79553c.01819.27154.02979.545.051.81152.00878.11163-.19544.24024-.30127.361A2.58579,2.58579,0,0,1,50.65,12.7804c-.01257-.05072-.02832-.103-.04346-.15454a1.417,1.417,0,0,1-.12866.35711.66464.66464,0,0,1-.13806.17688,1.97473,1.97473,0,0,1-.07947.33954,1.99055,1.99055,0,0,1-.04541.78711c-.02075.0589-.16748.073-.35156.0697a8.69314,8.69314,0,0,1-.27.87909,9.90531,9.90531,0,0,1,.05725,2.44592A1.89688,1.89688,0,0,1,48.07276,19.064c-.1742-.02137-.3158-.39643-.44934-.62323a1.442,1.442,0,0,1-.10144-.3664c-.10474.12293-.276.23255-.30384.37091a5.00833,5.00833,0,0,0,.11634,3.3581.64724.64724,0,0,1-.0127.53955c-.12243.19555-.31311.51184-.53711.00525a2.6399,2.6399,0,0,1-.4093-1.37165c.03369-.33294-.20984-.67669-.52026-1.09417a1.29289,1.29289,0,0,1-.08325-.15442.55856.55856,0,0,1-.40906-.61554,1.93985,1.93985,0,0,1-.08679.2514c.0144.04388.03491.08612.04834.13025a.514.514,0,0,1,.21276.218,3.34839,3.34839,0,0,1,.09314,1.73187c-.00976.09973-.02392.20526-.04089.31049-.0072.63977-.04773,1.28192-.04065,1.91967a1.46239,1.46239,0,0,1-.33032.77625,2.09687,2.09687,0,0,1-.54688.39319,4.02717,4.02717,0,0,1-.127-.646c-.01489-.40625-.00757-.81323-.00806-1.22a.78457.78457,0,0,1-.27063-.06445,2.66887,2.66887,0,0,0-.12548.76275,3.19123,3.19123,0,0,1-1.3761,2.81214,8.10945,8.10945,0,0,1-1.53809.73559c-.04053.01819-.16675-.04065-.16992-.07214-.01721-.16931.00012-.342-.01318-.512-.00391-.0512-.06812-.09771-.1045-.14636-.032.05524-.09082.11011-.09155.16571-.00708.51312.00342,1.02661-.01013,1.53949a1.15836,1.15836,0,0,1-.1239.34107,1.27535,1.27535,0,0,1-.33863-.16864,1.6115,1.6115,0,0,1-.36206-1.28833c0-.13025-.08935-.34668-.17871-.37067-.1322-.0354-.40307.02545-.43835.115-.31238.79083-1.37757,1.10992-1.32361,2.12146.01123.209-.0033.41962.01245.62811a5.892,5.892,0,0,1,.07678.78247c-.009.15033-.119.39-.23.42035a.4312.4312,0,0,1-.5697-.40027c-.03845-.33776.00708-.68438-.0166-1.0249-.00952-.13775-.1145-.38684-.16065-.38336a1.37961,1.37961,0,0,0-.53295.18048.33661.33661,0,0,0-.11524.252c-.04516,1.51758-1.3313,1.91907-2.32837,2.56745-.12207.07941-.36194-.02216-.54712-.03986.00818-.03308.01209-.06952.01783-.10455a1.28983,1.28983,0,0,1-.49891.17529,3.08309,3.08309,0,0,1-.80578,1.61591c-.49414.4613-.88489.37292-1.189-.26984-.06958-.14685-.1416-.43182-.08374-.47333l.01758-.01086a.61015.61015,0,0,1-.08765-.77325c.03467-.05506.06824-.107.10169-.157a.53256.53256,0,0,1-.14551-.16559.69961.69961,0,0,1-.09485-.05426c-.03528.083-.06909.166-.1051.249a7.78349,7.78349,0,0,1-.43176,1.15167c-.25977.40179-.46875.96228-1.17823.78308-.17077-.04309-.40332.15192-.60546.24194-.26.11579-.5188.33466-.77686.33289A1.30569,1.30569,0,0,0,26.735,34.926c-.11206.12164-.35156.12573-.533.18335a2.35829,2.35829,0,0,1-.13-.63575,2.51847,2.51847,0,0,1,.10388-.5025.49156.49156,0,0,1-.30664-.08728,1.04957,1.04957,0,0,1-.082-.07111,1.55026,1.55026,0,0,1-.46021.61554.90623.90623,0,0,1-.11365.06635,2.95618,2.95618,0,0,0,.00525.32672c-.14087-.01739-.36914.01294-.40906-.05994-.02966-.054-.05773-.10931-.08728-.16345a.49563.49563,0,0,1-.3291-.16968,2.2226,2.2226,0,0,1-.34741-.59979,1.24907,1.24907,0,0,1-.68945-.5542c-.01123-.00476-.021-.01117-.03186-.01635a1.31428,1.31428,0,0,1-.28235.23614c.00793.05286.0166.10571.02417.15857.02258.15686.13867.32379.1051.45972a2.63822,2.63822,0,0,1-.29968.58069,1.81768,1.81768,0,0,1-.29358-.4925c-.03919-.18158-.07239-.36438-.11072-.54614a1.04423,1.04423,0,0,1-.23413-.02313,1.2787,1.2787,0,0,1-.64636-.40882,1.034,1.034,0,0,1-.45545-.31976c-.009.0116-.00927.032-.01928.04248a1.78267,1.78267,0,0,0-.66455,1.283c-.0022.21826-.32117.32453-.47754.01972a10.49621,10.49621,0,0,1-.67371-1.46448c-.01929-.05835-.0321-.119-.04895-.17822a.70216.70216,0,0,1-.717.01934c-.13989-.05871-.32544-.09753-.36914-.19806-.02344-.05413-.0437-.11016-.0669-.16461a1.7675,1.7675,0,0,1-.51489,1.1416.9193.9193,0,0,1-.14648.07953c-.00464.07025-.00916.142-.01319.21125-.00415.06823-.26831.20227-.37072.17114-1.30359-.39606-2.64978-.71485-3.323-2.13013a8.80991,8.80991,0,0,0-.84448-1.09015c-.03235-.04651-.068-.09759-.10328-.14892a1.26453,1.26453,0,0,1-.70471-.36219,3.92927,3.92927,0,0,1-.40515-.46527c.05628.20172.07337.38605-.15295.48889-.45862.20826-.595-.26434-.74073-.58764a4.65578,4.65578,0,0,1-.11572-.46527,2.52143,2.52143,0,0,0-.93554-1.47107A4.38288,4.38288,0,0,1,7.75843,24.135a.88249.88249,0,0,1-.37256-.08026,1.0447,1.0447,0,0,1-.6095-.40076.42254.42254,0,0,1-.1654.14435c-.37342.19727-.67432-.18-.80542-.45239a2.68607,2.68607,0,0,1-.49915-1.54572,6.16357,6.16357,0,0,0,.02991-.62561c-.01587-.03393-.03833-.06323-.05176-.09869a.65507.65507,0,0,1-.36816-.20642c-.02808-.00806-.0564-.01734-.08509-.02875a.772.772,0,0,1-.24072-.152c.00818.018.01184.03632.02039.05432a1.5788,1.5788,0,0,1,.2063.42463,2.73194,2.73194,0,0,1-.05176.596c-.20508-.08294-.52112-.10943-.59693-.25824a11.14049,11.14049,0,0,1-1.06274-2.42462,3.50624,3.50624,0,0,1,.0946-1.5166c-.04162-.00677-.08606-.012-.12536-.02014a.65926.65926,0,0,1-.28345-.07312.52182.52182,0,0,1-.54639-.38941,6.65351,6.65351,0,0,1-.58032-1.79876c-.03-.65723-.30749-1.37824.30444-2.02722.29664-.31458.06617-.89258-.1875-1.28644A4.59878,4.59878,0,0,1,1.2677,8.61823c.12549-.73938.0813-1.45789.14869-2.18238.00793-.08593-.05774-.17871-.08936-.26825-.07251.0672-.18188.12134-.21118.20392A3.98337,3.98337,0,0,0,.81934,7.3736c-.04675.64666-.007,1.29931-.02,1.94915A.995.995,0,0,1,.66211,9.65c-.11291-.058-.26648-.08862-.32849-.18084A1.13978,1.13978,0,0,1,.193,9.01752,8.30593,8.30593,0,0,1,.00061,7.56366a4.69664,4.69664,0,0,1,.25-1.73724A8.60644,8.60644,0,0,1,2.0979,2.68054,2.54624,2.54624,0,0,0,3.07373.42066c-.01806-.13123.09144-.28.142-.42066a1.66621,1.66621,0,0,1,.32886.38788,1.78026,1.78026,0,0,1-.24475,1.86981.68749.68749,0,0,1,.20434.79791.65742.65742,0,0,1,.37183.69855.98239.98239,0,0,1,.54517.38684c.05383.08142.05163.306.00183.33429a3.434,3.434,0,0,0-.626.46485.54022.54022,0,0,1,.1355.58105c-.05542.152-.1145.30267-.17481.45276a.56838.56838,0,0,1,.04249.20294l.00463.00189.0542.02783.01538.01148c.00538-.0448.00708-.09253.0149-.1355a1.74272,1.74272,0,0,1,.134-.33368c.13745.08087.276.16028.41187.24378.02709.0166.06176.04785.06372.07446a11.42481,11.42481,0,0,1,.12915,2.66809c-.07874.46283-.01856.5863.30615.70355a1.43792,1.43792,0,0,1,1.007,1.67865,4.494,4.494,0,0,0-.002.513c.0055.3393-.11242.78607.05811.98572.15295.17914.63708.04053.95129.12763a1.41086,1.41086,0,0,1,.73694.42279,2.657,2.657,0,0,1,.3949,1.71289.55152.55152,0,0,1,.28711.19415c.03808.04864.07178.09558.10559.14258L8.476,15.214c.03027.0434.0531.07715.06909.10187a.7051.7051,0,0,1,.14306.15686c.02552-.09314.05323-.18634.07264-.27918a3.58642,3.58642,0,0,1,.54016.61109,1.73006,1.73006,0,0,1,.12427.66394,3.57371,3.57371,0,0,0,.01147.6134,6.48794,6.48794,0,0,1,.25806,1.14441,1.27163,1.27163,0,0,1,.13965.034,3.22519,3.22519,0,0,1,.45556.24878.23114.23114,0,0,1,.02966-.16138c.23377-.21277.47876-.05811.68457.15985a15.842,15.842,0,0,1,1.1305,1.16351,1.98873,1.98873,0,0,1,.33838.87024,3.79894,3.79894,0,0,1,.45471.52313.63921.63921,0,0,1,.15832.171q.08424.13942.17872.27209c.0083.012.011.02441.01806.0365a1.46465,1.46465,0,0,1,1.15906-.38959c.11682.04865.26953.16876.28625.2749.05518.35138.14038.70057.20069,1.05213a1.28367,1.28367,0,0,1,.61889-.36066c.01734-.00275.03357.0025.05079.00067a.13657.13657,0,0,1,.04663-.08093c.13159-.06879.38366-.11438.46093-.03986a1.7998,1.7998,0,0,1,.49549.70856A17.79857,17.79857,0,0,1,17.058,24.545a2.29146,2.29146,0,0,1,.34.31433c.0304.03577.07874.08661.11975.14014.03858-.04681.07679-.09387.11573-.14032a1.29628,1.29628,0,0,1,.7102-.32336c.00745-.03516.01575-.071.01953-.10291.18494.04895.46387.04029.53638.15839l.00806.01391a1.59977,1.59977,0,0,1,.34546.20166l.05078.03968.00342-.00782a.59324.59324,0,0,1,.33813-.29034q-.00732-.16021-.01318-.3208c.22632.1076.64941.21783.64795.32245-.00013.01556.00244.031.00256.04657a.99219.99219,0,0,1,.25378.16095.80642.80642,0,0,1,.09058-.01752,1.41668,1.41668,0,0,1,.311-.55994.58718.58718,0,0,1,.60376-.18469.7026.7026,0,0,1,.63147-.45624c.01185-.012.02515-.02337.03809-.03485-.18518-.265.00781-.65539.22742-.65033a3.12283,3.12283,0,0,1,1.63843.3877,2.051,2.051,0,0,1,.52111,1.24689.58456.58456,0,0,1,.43567-.02234.8457.8457,0,0,1,.20325.11255c.01843-.10083.04675-.20813.05542-.30262a2.76027,2.76027,0,0,1,.60974.16352,1.22332,1.22332,0,0,1,.55664.6076c.06128.04108.12573.08466.19714.13654.0553-.01624.10657-.03064.123-.03668a.47155.47155,0,0,1,.11121-.0185,1.80458,1.80458,0,0,1,.07116-.46826c.18519.03357.46692.0033.53894.11194.02881.04358.05884.08752.08863.1311a.56277.56277,0,0,1,.60852.16712c.0376.0484.06946.09515.09973.14209.01172-.08905.06787-.1518.2478-.13837a.2167.2167,0,0,1,.08423.0404.59866.59866,0,0,1,.42066.08332,1.07485,1.07485,0,0,1,.10717.08288.65058.65058,0,0,1,.41419.01252,1.71071,1.71071,0,0,1,.1615-.44983c.10156.05767.20861.10913.31225.16436.01319-.02221.0293-.0415.04212-.0642a1.28469,1.28469,0,0,1,.49145-.615.7716.7716,0,0,1,.337-.07868c.0238-.1803.04663-.36072.07324-.54047.01392-.09387.04932-.26324.07446-.26324a.58921.58921,0,0,1,.34619.084c.02234.01764.03443.04029.05518.05878a1.29594,1.29594,0,0,1,.29944-.17566.56672.56672,0,0,1,.47217.04547.62161.62161,0,0,1,.06616-.4179.38159.38159,0,0,1,.37-.03528c.0802.077.16883.14789.2583.2182a.77848.77848,0,0,1,.73719.20715,2.73634,2.73634,0,0,1,.19238.20648,1.52951,1.52951,0,0,0,.20349-.33679,2.26657,2.26657,0,0,1,.31421-.69757.51944.51944,0,0,1,.40234-.19464.72373.72373,0,0,1,.509-.20538.46008.46008,0,0,1,.23462.15551,1.82934,1.82934,0,0,1,.0979-.2008.81631.81631,0,0,1,.53894-.34925c-.10352-.26239-.13367-.4646.3667-.46936.1322-.00128.27722-.1643.38806-.2799.05786-.06037.036-.24994.0813-.26178a15.45391,15.45391,0,0,1,2.59778-.64881c.04113-.00341.08447.03.12878.0766a1.98053,1.98053,0,0,1,.40356-.33807,3.38429,3.38429,0,0,1-.092-.39356c-.022-.14856-.40051-.28857-.052-.455.16931-.08081.418-.19751.54443-.13178a4.016,4.016,0,0,1,.50928.31458c.01074-.01959.01709-.03937.03028-.0589a.71327.71327,0,0,1,1.05468-.18384c.02368-.02832.04163-.06531.06372-.09625-.01049-.01093-.01733-.02252-.02807-.03339a1.39468,1.39468,0,0,1-.27124-.69915c-.01465-.07587.1604-.25892.26758-.27631a1.537,1.537,0,0,1,.792.07245,1.18966,1.18966,0,0,1,.5813-.24811.28611.28611,0,0,1,.10571-.42157.66007.66007,0,0,1,.667.02411,3.20088,3.20088,0,0,1,.12964-.47839c-.00818-.008-.01318-.01734-.02148-.02527a1.65483,1.65483,0,0,1,.11035-2.05457,1.23946,1.23946,0,0,1,1.01-.0661,2.77012,2.77012,0,0,1,.40417.21606,1.65359,1.65359,0,0,1,.9773-.39245c.15234-.004.27795.019.39087.01007a2.02117,2.02117,0,0,0-.56946-.72553c-.303-.23907.13965-.41113.157-.40948.16968.0163.34045.04169.51294.06927a.7273.7273,0,0,1,.38635-.4c.006-.04877.0221-.09485.03015-.14307a2.084,2.084,0,0,1,.41016-2.32721,1.14684,1.14684,0,0,0,.20691-.42437,1.20131,1.20131,0,0,1,.32556-.62378.76669.76669,0,0,1-.1582-.17688.9757.9757,0,0,1,.06128-1.03443,1.74419,1.74419,0,0,1,.16748-.212,2.42984,2.42984,0,0,1-.10669-.23889.82217.82217,0,0,1,.14136-.72217,1.73308,1.73308,0,0,1-.00281-.42548c.03076-.19781.19055-.5003.33655-.52978.311-.06281.64135-.07148.66491-.44751.0282-.4524.16419-.96735-.35461-1.28382a1.52223,1.52223,0,0,1-.19751-.19445,4.10053,4.10053,0,0,1-.61035-.84485.7194.7194,0,0,1,.14221-.60413.58146.58146,0,0,1,.53161-.11145,3.438,3.438,0,0,1,2.12647,2.35077.69434.69434,0,0,1-.22778.59521c-.12769.0929-.40845.0102-.60816-.04418-.11157-.0304-.196-.1612-.29272-.24677-.02857.15894-.116.33484-.07593.47406.05371.18707.10864.37451.16772.56036a.77082.77082,0,0,1,.22852.59674,2.97545,2.97545,0,0,0,.4519.74427C51.66346,8.3313,51.50477,9.04657,51.49842,9.72974ZM23.52369,23.8169l-.00916.01849.0282-.001ZM5.52808,12.01111l.00037-.04175c-.003.0293-.00269.05823-.00659.08765ZM2.56238,16.036c.00611-.0039.00977-.01068.01612-.0144a2.55946,2.55946,0,0,1-.0752-.54022.71315.71315,0,0,1-.03174-.13727,1.321,1.321,0,0,0-.00744.33459A2.0819,2.0819,0,0,0,2.56238,16.036ZM13.51709,30.37128q.06977.1235.14087.24591c-.02124-.0744-.04712-.1485-.06067-.22339A.74706.74706,0,0,1,13.51709,30.37128ZM4.3136,19.72174l.004-.02893L4.307,19.68829C4.30848,19.69934,4.31214,19.71069,4.3136,19.72174ZM34.984,30.79053c.0149-.01416.03174-.0271.04761-.04071l-.05322.01074Z" style="fill:#fff"/><path id="fill2" d="M12.01337,4.35066c-.42163-.54843.53263-1.27411.95557-.73729a20.48077,20.48077,0,0,0,2.68527,2.17215c.03023.02726.05884.05377.08642.07959a.63853.63853,0,0,1,.77277-.13994c.70879.32666,1.35448.76825,2.03237,1.15107.16317.09212.3176.19013.4666.29256a1.45876,1.45876,0,0,1,.28693-.16241.99085.99085,0,0,1,1.24436.3189,1.06469,1.06469,0,0,1,.31992.21736,2.59933,2.59933,0,0,1,.67416-.37991,1.02675,1.02675,0,0,1,.87654.01679,1.01068,1.01068,0,0,1,.23081.01692,2.49552,2.49552,0,0,1,.70764.46692l.03606-.00913a.758.758,0,0,1,.24092-.0146,1.21847,1.21847,0,0,1,.91312-.01734,2.273,2.273,0,0,0,.669.06381.58157.58157,0,0,1,.578.02821,1.183,1.183,0,0,1,.46162.18558.63218.63218,0,0,1,.17933.18382A1.11018,1.11018,0,0,1,27.768,7.7229a.68993.68993,0,0,1,.32525.42267,2.2706,2.2706,0,0,1,.51421-.30611.63683.63683,0,0,1,.54395.07576,2.07607,2.07607,0,0,1,.66611-.647.73864.73864,0,0,1,1.029.41407.74119.74119,0,0,1,.462.253,2.307,2.307,0,0,1,.21929-.14681c.01848-.0108.03724-.01891.05592-.02781a.99984.99984,0,0,1,.83285-.24014,2.40521,2.40521,0,0,1,.39077-.32574,2.00415,2.00415,0,0,1,.69285-.57445.76955.76955,0,0,1,.79685.05956c.02991-.01578.0606-.02962.09137-.04333a3.47969,3.47969,0,0,1,.53-.34908,5.29253,5.29253,0,0,1,1.06948-.7617A.80666.80666,0,0,1,36.463,5.447a.47517.47517,0,0,1,.18074-.0125,5.93506,5.93506,0,0,1,1.28753-.995,1.58347,1.58347,0,0,1,.74714-.42185.75832.75832,0,0,1,.28712.004,2.72064,2.72064,0,0,1,.67067-.35526,3.10014,3.10014,0,0,0,.70326-.49471c.42823-.42748,1.0055-1.15479,1.62708-1.28337.83137-.172,1.18359,1.10214.3513,1.27434.10364-.02143-.16392.14461-.24567.223-.10469.1004-.19978.21333-.31154.30624-.24053.19995-.407.43478-.63967.64527a6.02859,6.02859,0,0,1-.62855.47657,1.456,1.456,0,0,1-.20057.12069,4.68611,4.68611,0,0,1-.8226.49859.72429.72429,0,0,1-.22106.07514c-.07972.06352-.15571.12514-.22633.18087-.28438.32358-.61958.60934-.92758.91257-.05.04928-.10132.09935-.15348.14935a7.10786,7.10786,0,0,1-1.55123,1.9432,7.1749,7.1749,0,0,1-.61886.53054c-.22475.24-.46112.47029-.693.69138a1.8784,1.8784,0,0,1-.852.532c-.06182.0551-.12452.10773-.1881.15694a3.83513,3.83513,0,0,1-1.20641,1.288.708.708,0,0,1-.8511-.11676l-.01925.00687a.92177.92177,0,0,1-.6522-.06984c-.14726.13967-.29947.27221-.45763.39539a.78143.78143,0,0,1-.65034.17874,2.09384,2.09384,0,0,1-.24877.10289.64384.64384,0,0,1-.15456.03069c-.49664.33439-1.04232.47006-1.47108-.0377a1.14053,1.14053,0,0,1-.233-.49656,2.32945,2.32945,0,0,1-.82944.40212,1.24548,1.24548,0,0,1-.41083.18467.87469.87469,0,0,1-.3942.00572.98393.98393,0,0,1-1.30419.05063c-.07922.03544-.16028.06882-.2455.09752a.68248.68248,0,0,1-.55747-.08325.86434.86434,0,0,1-.32037-.01561c-.567.575-1.34051,1.106-1.96768.59353a.81371.81371,0,0,1-.23382-.31285A1.11275,1.11275,0,0,1,20.92,11.71932a.84561.84561,0,0,1-.68051.01977c-.41293-.13964-.76285-.63271-1.0403-.95063-.3529-.40438-.75011-.75666-1.11-1.15073a7.60337,7.60337,0,0,1-1.4196-.90233c-.35844-.271-.67207-.59313-1.00371-.89892a1.51878,1.51878,0,0,1-.56349-.8905c-.121-.10391-.24514-.21376-.38913-.32938A14.65936,14.65936,0,0,1,12.01337,4.35066ZM51.203,8.18245c-.01106-.016-.02359-.03033-.03534-.04558a.83608.83608,0,0,0-.15574-.26769.69924.69924,0,0,0-.13479-.10858,1.56789,1.56789,0,0,0-.22083-.536.72655.72655,0,0,0-.48217-.97854.79038.79038,0,0,0-1.00423.07356.662.662,0,0,0-.17714.64308.95724.95724,0,0,0-.26844.90082,2.43984,2.43984,0,0,0,.10662.23889,1.74376,1.74376,0,0,0-.16745.212.97546.97546,0,0,0-.0612,1.0344,1.17769,1.17769,0,0,0,.221.24714c-.00765.03335-.01557.07272-.02392.12449q-.03132.19679-.05645.3945c.00141-.01705-.03711.50154.04107.44437-.11267.13139-.36354.22665-.45383.39567a1.01567,1.01567,0,0,0-.09621.44794l.00082.00668a1.51158,1.51158,0,0,0-.1239.38134,7.22586,7.22586,0,0,0-.32325,1.2532.77132.77132,0,0,0-.1937,1.27879c-.003.01783,0,.024.01309.0104l.00085.00066c-.19893.25843-.39643.15783-.69792.16588a1.91858,1.91858,0,0,0-1.33946.72718c-.02671.019-.05793.04163-.09988.07311-.05223.03917-.108.0768-.1579.11925a2.692,2.692,0,0,0-.41652.5072,3.42227,3.42227,0,0,0-.65168,1.79015c-.00121.02173.00157.04162.00232.06247l-.00389.01027a1.24969,1.24969,0,0,0-.49585-.07883.47462.47462,0,0,0-.1991-.01885,1.22123,1.22123,0,0,0-.78209.39316.81237.81237,0,0,0-.37107.48158,3.48665,3.48665,0,0,1-.27282.4122.71338.71338,0,0,0-1.05476.18388.77937.77937,0,0,0-.08234.16058.66378.66378,0,0,0-.298.39728,1.37474,1.37474,0,0,0-.98666.52792,4.798,4.798,0,0,1-.46747.62488,2.63412,2.63412,0,0,1-.32352-.09844.78486.78486,0,0,0-.45756.03544c-.35726.15047-.42172.52138-.566.80746-.018-.02844-.03619-.0576-.05635-.08672a.691.691,0,0,0-1.2819.364c-.04175-.02039-.08541-.04009-.13273-.05969a.70746.70746,0,0,0-.79246.32247,2.12643,2.12643,0,0,0-.234.47981.68153.68153,0,0,0-1.00992-.03449,2.26533,2.26533,0,0,0-.31409.69757,1.53282,1.53282,0,0,1-.20359.3368,2.73026,2.73026,0,0,0-.19239-.20649.77879.77879,0,0,0-.79109-.19828.72851.72851,0,0,0-.44106.36026.662.662,0,0,0-.67165-.17962,1.02868,1.02868,0,0,0-.678.84073.78565.78565,0,0,0-.50753.07455,1.28493,1.28493,0,0,0-.49146.615,4.586,4.586,0,0,1-.30254.4607.59608.59608,0,0,0-.62744-.12354,1.08412,1.08412,0,0,0-.10727-.08289.69858.69858,0,0,0-.7011,0c-.01574.00808-.0286.01777-.04323.02644-.03236-.05079-.06734-.10144-.10809-.1539a.707.707,0,0,0-.98,0c-.02938.0232-.0574.04787-.0843.0736a.5954.5954,0,0,0-.35415.003c-.01642.00609-.06774.02046-.123.03672a3.48051,3.48051,0,0,0-.40176-.2632c-.22031-.09736-.456-.04454-.66886-.13251-.19586-.081-.33252-.24982-.55155-.32191a.5916.5916,0,0,0-.50638.04644,1.57,1.57,0,0,0-.18883-.27133.9976.9976,0,0,0-.94228-.40173c-.00278-.01577-.00409-.03079-.00706-.04673-.10482-.56414-.7942-.60142-1.159-.306a.69656.69656,0,0,0-.05717.0523.70282.70282,0,0,0-.63156.45625.5871.5871,0,0,0-.60377.1847,1.41813,1.41813,0,0,0-.31089.55992.8088.8088,0,0,0-.09068.01748,1.09648,1.09648,0,0,0-.448-.2367.69807.69807,0,0,0-.78121.31792l-.00337.00779-.05082-.03967a1.23018,1.23018,0,0,0-.80824-.29491,1.3032,1.3032,0,0,0-.81135.34724c-.039.04644-.07726.0935-.11578.14033-.041-.05354-.0894-.1044-.11974-.14017a2.53045,2.53045,0,0,0-.84083-.61679l-.005-.054a12.23918,12.23918,0,0,0,.01368-1.4093.86412.86412,0,0,0-1.0181-.65832,1.72479,1.72479,0,0,0-.73981.45955c-.01977-.02915-.03754-.055-.05223-.0731a.44968.44968,0,0,0-.07255-.06925.79876.79876,0,0,0-.02595-.15649.76038.76038,0,0,0-.49543-.53155c-.10976-.04235-.5717-.0411-.82077-.08868a.615.615,0,0,0-.07612-.15375q-.09444-.13272-.17877-.27207a.63991.63991,0,0,0-.15829-.171c-.361-.47876-.81367-1.01388-1.38989-.73664-.09762-.26644-.21311-.523-.31573-.74661a2.63328,2.63328,0,0,0-1.38783-1.32094,1.96309,1.96309,0,0,0-.90763-.10459c-.02807-.469.08044-.99163.0559-1.43891a3.2693,3.2693,0,0,0-.09484-.65535c.00072-.02006.00252-.04019.00255-.06022a.74585.74585,0,0,0-.15338-.47506.69564.69564,0,0,0-.192-.21039c-.01587-.02468-.03871-.05845-.06892-.10184l-.00288.00219c-.03387-.047-.06745-.09392-.10557-.14255a.54664.54664,0,0,0-.53643-.21664q.04075-.14171.0771-.284a.67765.67765,0,0,0-.82646-.8265c-.019.00661-.0362.0145-.05406.02186a.66312.66312,0,0,0-.31527.09137.65532.65532,0,0,0-.70339-.35317.69007.69007,0,0,0-.06365-.02722.60206.60206,0,0,0-.397-.27794.61806.61806,0,0,0-.0878-.13937c.0235-.33006.039-.66052.06015-.9899a2.69934,2.69934,0,0,0,.02566-.3494c.01937-.23343.04339-.46617.07923-.6974a.71856.71856,0,0,0-1.00332-.77123c-.02048-.00255-.04123-.00219-.06188-.00314l-.03292-.02323c.01734-.10992.03164-.22053.03924-.33265A.63924.63924,0,0,0,4.241,9.33106c.00962-.04683.01986-.09349.02909-.14039a.67233.67233,0,0,0-.13044-.54408c.01309-.06064.0253-.12138.036-.18234a.701.701,0,0,0-.19792-.60054c.00239-.02906.00265-.058.00369-.087a3.952,3.952,0,0,0,.20015-1.0076.63931.63931,0,0,0-.32267-.56251l-.05409-.02781-.00462-.0019a.56592.56592,0,0,0-.0426-.20293c.06044-.15014.11948-.30081.17491-.45281a.55161.55161,0,0,0-.16863-.6189c.00278-.01871.00609-.03783.00838-.05625a.51933.51933,0,0,0-.12308-.43812,2.41119,2.41119,0,0,1,.16955-.44954.64955.64955,0,0,0-.31455-.90272c.28136-.6073-.54834-1.33766-1.02475-.752-.034.04176-.06375.08479-.09572.12714l-.00422.00382L2.37871,2.434l-.00111.00229c-.01047.01014-.0217.01767-.03187.02886a2.93584,2.93584,0,0,0-.37434.52494,3.97574,3.97574,0,0,0-.73291,1.21141q-.07024.1076-.141.2151a.55183.55183,0,0,0-.04163.54834.659.659,0,0,0,.607.58512.6677.6677,0,0,0,.19291.12055,3.16213,3.16213,0,0,0-.09932.64059.57891.57891,0,0,0,.09533.35036A4.83606,4.83606,0,0,0,1.5401,8.02282a.59123.59123,0,0,0,.03682.20142,4.78164,4.78164,0,0,0-.21029.9303A.52782.52782,0,0,0,1.5513,9.608a.60836.60836,0,0,0,.22325.362c-.02049.08171-.03885.16339-.0523.245a.70172.70172,0,0,0,.08895.49431,1.2209,1.2209,0,0,0-.00184.20254.659.659,0,0,0,.43312.59736.98412.98412,0,0,0,.05835.13917.53715.53715,0,0,0,.093.12681,1.26353,1.26353,0,0,0,.04343.40465.72691.72691,0,0,0,.46653.4661,2.09627,2.09627,0,0,0-.10793.6543q-.063.19335-.11637.38932a2.58871,2.58871,0,0,0-.10688.49048c-.00295.01879-.0071.03725-.00979.0561-.004.02771-.00392.054-.00526.08083a3.53372,3.53372,0,0,0-.1076.93478.65661.65661,0,0,0,.05337.22966,2.55132,2.55132,0,0,0,.0752.54023.55.55,0,0,0-.27358.3817c-.09385.53489.05348.83347.36783,1.00266a.63764.63764,0,0,0,.40229.13816c.08223.01715.16964.031.26193.042.05749.00687.11453.016.17134.02631a.7816.7816,0,0,0,.491.54349.6.6,0,0,0,.07232.17492,4.02554,4.02554,0,0,0-.10963.76776.66422.66422,0,0,0,.33609.5859l.0195.00828c-.00173.01509-.00461.03-.00622.04513a.584.584,0,0,0,.00635.16248.88955.88955,0,0,0,.51349.94035c.0287.01139.057.02068.085.02873a.65529.65529,0,0,0,.36822.20643,1.044,1.044,0,0,0,.39764.52916,1.97391,1.97391,0,0,0,.12716.17606.57513.57513,0,0,0,.285.19291c.09457.3642.22436.72214.34858,1.06166a1.43031,1.43031,0,0,0,.94294,1.019.81442.81442,0,0,0,.71988-.001l.00811.01509a10.70162,10.70162,0,0,0,.17593,1.09926.58212.58212,0,0,0,.26144.37742.73327.73327,0,0,0,.49863.40447c.18215.623.4751,1.21259,1.00161,1.34843a1.59615,1.59615,0,0,0,.21193.2871.62867.62867,0,0,0,.42382.20839,6.41943,6.41943,0,0,0,1.38642,2.34009,1.069,1.069,0,0,0,1.01.33952.92259.92259,0,0,0,.39214-.11385.72486.72486,0,0,0,.12151.0341,6.774,6.774,0,0,0,1.80425,2.776.62647.62647,0,0,0,1.00118-.04775c.02965.04856.06074.096.09366.14186a.706.706,0,0,0,1.083.13957,1.921,1.921,0,0,0,.53921-1.28739,2.4948,2.4948,0,0,0,.27106.4088.695.695,0,0,0,.97713,0,2.00988,2.00988,0,0,0,.1541-.19354c.00344.01839.0057.03626.00926.05472a.70251.70251,0,0,0,1.2103.247.68685.68685,0,0,0,.17825-.04742,1.354,1.354,0,0,0,.14062.24426,1.04677,1.04677,0,0,0,.52753.3925,1.27939,1.27939,0,0,0,.64641.4088,1.06483,1.06483,0,0,0,1.09115-.37336c.01086.0052.02061.01159.03187.01636a1.24874,1.24874,0,0,0,.68945.5542,2.22517,2.22517,0,0,0,.34734.59981.67413.67413,0,0,0,.93393,0,1.54882,1.54882,0,0,0,.46011-.61555,1.06712,1.06712,0,0,0,.08208.07108.50915.50915,0,0,0,.35091.09035.73818.73818,0,0,0,.66264-.02238.7023.7023,0,0,0,.45881.18515.83886.83886,0,0,0,.69432-.35506.537.537,0,0,0,.35127-.0053l.01557-.0072a.56265.56265,0,0,0,.15591-.07769,1.5746,1.5746,0,0,0,.7386-1.26478c.0266-.0327.05281-.06771.07873-.10446l.00835.00393a.74189.74189,0,0,0,.8907-.16844.805.805,0,0,0,.22715-.13159.87678.87678,0,0,0,.10144-.10131.83667.83667,0,0,0,.15571-.16912c.02006-.02851.03665-.05822.05484-.08735a.73758.73758,0,0,0,.17263.09877.53292.53292,0,0,0,.14553.16555c-.03345.05-.06709.10194-.10171.157a.68392.68392,0,0,0,.7225,1.00309.607.607,0,0,0,.76687-.11651,3.48129,3.48129,0,0,0,.60063-.9627,1.83846,1.83846,0,0,0,1.16167-.69147,5.1798,5.1798,0,0,0,.41521-.50881.779.779,0,0,0,.16621-.03269.64892.64892,0,0,0,.07259-.01175A1.4147,1.4147,0,0,0,35.688,30.49a3.04175,3.04175,0,0,0,.48459-.88507,2.7738,2.7738,0,0,0,.20368-.84692.6721.6721,0,0,0,.83524-.07134,2.68577,2.68577,0,0,0,.62-.97605,3.13339,3.13339,0,0,0,.697-1.10332.62466.62466,0,0,0,.83622-.07772c.09513-.10934.18162-.22175.26412-.33576a.68061.68061,0,0,0,.74256-.29937c.05933-.09006.11611-.1847.17138-.28166a.73119.73119,0,0,0,.33268-.25637c.019-.02654.03672-.05445.055-.08178.02078.00082.04149.0002.06218-.00091a1.21463,1.21463,0,0,0-.062.34158.6737.6737,0,0,0,.49048.64422,1.74591,1.74591,0,0,0,.88125-.05707.58033.58033,0,0,0,.62638-.3192l.00059-.00124a1.80444,1.80444,0,0,0,.79394-1.60244c-.00131-.01267-.00435-.02445-.00622-.03682a3.57329,3.57329,0,0,0,.1651-.59965,3.0314,3.0314,0,0,0,.27859-.74589l.01161-.02023a.662.662,0,0,0,.92481-.16752,1.61785,1.61785,0,0,0,.533-1.26553,3.34931,3.34931,0,0,0-.09323-1.73184.5444.5444,0,0,0-.28955-.26615,1.91953,1.91953,0,0,0,.11522-.33353c-.04159.68048.73749.81112,1.1386.442a.68932.68932,0,0,0,.51558-.48131c.072-.30457.10606-.61634.1596-.92468a.70084.70084,0,0,0,.1059-.12389,1.01047,1.01047,0,0,0,.07595-.14223.63664.63664,0,0,0,.26137-.15524.69208.69208,0,0,0,.55207.28166c.58116.00635.903-.52062,1.02419-1.13879a.55863.55863,0,0,0,.18261-.46653,1.80343,1.80343,0,0,0-.14471-.476c-.00756-.06875-.01725-.13577-.02922-.2004a.52223.52223,0,0,0,.31661-.28991,7.78612,7.78612,0,0,0,.3513-1.11461,2.432,2.432,0,0,0,.04729-.36187.73456.73456,0,0,0,.32067-.3769,1.87187,1.87187,0,0,0,.09929-.42375A.66773.66773,0,0,0,50.478,12.983a1.837,1.837,0,0,0,.18981-.80294.535.535,0,0,0,.35631-.18918,1.6804,1.6804,0,0,0,.09948-1.82778.58457.58457,0,0,0,.19537-.7405.51919.51919,0,0,0,.0803-.19452A1.25214,1.25214,0,0,0,51.203,8.18245Z" style="fill:#754420"/><path id="fill1" d="M17.84719,27.30733c.20532-.44237.42939-.87722.60988-1.32951a.90072.90072,0,0,0-.14269-1.00486c-.08212-.09474.02716-.35545.04871-.54009.185.049.46388.0403.53643.15838a2.01176,2.01176,0,0,1,.364.966c.0002.69017-.1198,1.38-.17964,2.071a.82977.82977,0,0,0,.07663.27381c.09677-.08261.25643-.15.28057-.25013a7.73511,7.73511,0,0,0,.21047-2.95726,4.30846,4.30846,0,0,1-.01923-.46706c.22624.10763.64934.21785.64795.32247-.01253.94245.54471,1.86014.08966,2.83265-.11868.25359.02578.63091.0593.95037.00056.00536.17791.01692.18707-.00712a3.16974,3.16974,0,0,0,.29683-.89874c.04144-.78478.0067-1.57332.02037-2.36a1.555,1.555,0,0,1,.138-.429c.13692.08246.31514.13514.401.25437a1.34521,1.34521,0,0,1,.26577.60242,6.51619,6.51619,0,0,1-.28864,2.43925,3.56108,3.56108,0,0,0,.01732,1.01564c.54546-.10707.41453-.66645.44456-.9304a25.80653,25.80653,0,0,1,.5984-2.83946,1.47274,1.47274,0,0,0-.25729-1.60175c-.28369-.25835-.05326-.72981.18613-.72427a3.12212,3.12212,0,0,1,1.63842.38765c.32309.22274.44494.82784.529,1.286.1308.71295.152,1.4459.22442,2.1699a.633.633,0,0,0,.07449.17362c.04273-.0679.08877-.134.12769-.204.31709-.57044.66477-1.125.22065-1.80711-.08509-.13071.02125-.38605.03928-.58387a2.75757,2.75757,0,0,1,.60976.16353,1.69065,1.69065,0,0,1,.763,1.49317c.05117.47347.00322.95709.01569,1.4358a1.22435,1.22435,0,0,0,.1107.336,1.72266,1.72266,0,0,0,.08707-.27128,12.95935,12.95935,0,0,0,.19339-1.45485,5.33586,5.33586,0,0,0-.18263-.8394,1.69679,1.69679,0,0,1,.072-.47875c.18526.03358.467.0033.53893.112a2.34964,2.34964,0,0,1,.61215,1.48711c-.06707.79292-.13954,1.58547-.20089,2.37885a.95007.95007,0,0,0,.06566.27871c.09678-.07484.24872-.13086.2817-.22748a4.44187,4.44187,0,0,0,.15879-2.61858,1.26131,1.26131,0,0,1-.08855-.47049c.02857-.191-.19954-.55723.21578-.5262.141.01055.35892.30885.37137.48755a18.15194,18.15194,0,0,1,.01355,1.94892c-.055,1.44342-.10645,2.888-.21715,4.3277a5.43278,5.43278,0,0,1-.397,1.2674c-.05252.15356-.31923.31226-.00482.43936a.4113.4113,0,0,0,.35138-.12672,3.48492,3.48492,0,0,0,.90478-2.19487c.05292-1.27161-.25874-2.564.18635-3.81548-.42684-.65518-.1197-1.38236-.19206-2.07253-.01639-.15629.11048-.32763.17141-.492a3.428,3.428,0,0,1,.62824.37442c.095.086.0846.28823.12176.438a1.793,1.793,0,0,0,.28889-.49409c.09833-.47874.14523-.968.2172-1.45229.01395-.09387.04924-.26327.07443-.26322a.58909.58909,0,0,1,.34618.084,1.82725,1.82725,0,0,1,.59363,1.38924c.04662.5779.00089,1.1627.01412,1.74407a.92748.92748,0,0,0,.78326.83744.32309.32309,0,0,0,.22947-.21885c.0167-.85506.04788-1.71315-.01034-2.56455a2.10146,2.10146,0,0,0-.43764-.83679c-.08961-.1409-.28783-.22624-.34228-.37206a.61066.61066,0,0,1,.06273-.46783.38164.38164,0,0,1,.37-.03527c.41786.40082,1.04861.64759.99114,1.40508a1.46249,1.46249,0,0,0,.68216,1.45031,1.26768,1.26768,0,0,1,.36645.55783,4.4485,4.4485,0,0,1,.29639,3.74242c-.02543.05825-.11742.10717-.11338.15494a4.259,4.259,0,0,0,.08855.47427,1.53123,1.53123,0,0,0,.28618-.27842,5.24466,5.24466,0,0,0,.36406-3.37948,3.42472,3.42472,0,0,1-.11925-.66255,2.54585,2.54585,0,0,0-.66563-1.99223,1.72,1.72,0,0,1-.14022-2.00015.75339.75339,0,0,1,.58052-.27457.65485.65485,0,0,1,.40356.45691,19.02681,19.02681,0,0,1,.21087,2.06844c.0144.292.1347.37613.36247.308a.42541.42541,0,0,0,.25321-.30056,6.59373,6.59373,0,0,0-.28676-2.75037c-.13943-.34392-.31415-.64054.29476-.64633.1322-.00126.27722-.16432.38812-.27991.05786-.06033.03594-.24995.0812-.26178a15.45884,15.45884,0,0,1,2.59783-.64882c.14082-.01155.30161.35294.47443.52185.0555.05421.17944.03839.27206.05461a2.19173,2.19173,0,0,0-.03735-.21745,8.91108,8.91108,0,0,1-.26877-1.014c-.02211-.1486-.40056-.28857-.0521-.455.16932-.08083.418-.19752.54456-.13181a2.20948,2.20948,0,0,1,1.342,1.56939c.06626.38262.11441.77065.21715,1.14344a.57437.57437,0,0,0,.33124.30241c.04742.01862.23888-.16492.26317-.278a2.78037,2.78037,0,0,0-.52369-2.79506,1.39452,1.39452,0,0,1-.27129-.69919c-.01465-.07581.16044-.25885.26762-.27629a1.21317,1.21317,0,0,1,1.5238.90957,1.43136,1.43136,0,0,0,.46685.83553,2.12714,2.12714,0,0,1,.59578,1.29447c.086.34364.13822.69563.20959,1.04306.04092.19922.09.39675.13545.59505.023-.23.05856-.45949.067-.69a4.975,4.975,0,0,0-1.38279-3.83874c-.22971-.2349-.46406-.54458-.1367-.74616a.633.633,0,0,1,.881.26371,15.20411,15.20411,0,0,1,.83283,2.014,14.80278,14.80278,0,0,1,.20193,4.11982,1.463,1.463,0,0,1-.33032.77626,2.09484,2.09484,0,0,1-.547.39317,4.0313,4.0313,0,0,1-.12683-.646c-.01885-.51254-.00158-1.02631-.01027-1.53941a.95283.95283,0,0,0-.08931-.26928,1.2687,1.2687,0,0,0-.109.244,4.37381,4.37381,0,0,0-.19567,1.043A3.19124,3.19124,0,0,1,42.76428,26.488a8.107,8.107,0,0,1-1.53807.73558c-.04052.0182-.16671-.04065-.16991-.07216-.01725-.16932.00013-.342-.01319-.512-.004-.05121-.068-.0977-.10459-.14635-.03191.05522-.09074.11-.09151.1657-.0071.51314.0035,1.02661-.01009,1.53951a1.15568,1.15568,0,0,1-.124.341,1.274,1.274,0,0,1-.33848-.1686,1.61159,1.61159,0,0,1-.36221-1.28833c.0001-.13025-.08927-.34673-.17859-.37069-.13226-.03539-.40305.02547-.43842.115-.31237.79082-1.37757,1.1099-1.32358,2.12145.01116.209-.00333.41961.0125.62809a5.9168,5.9168,0,0,1,.07674.78245c-.009.15035-.11911.39-.23.42039a.43121.43121,0,0,1-.56973-.40029c-.03842-.33778.00717-.6844-.0165-1.02491-.00957-.13775-.11454-.38683-.16063-.38332a1.38,1.38,0,0,0-.53309.18046.33664.33664,0,0,0-.11514.252c-.04518,1.5176-1.33139,1.919-2.32839,2.56743-.12211.07942-.36191-.02216-.54717-.03985a1.50349,1.50349,0,0,1,.14661-.549,4.09118,4.09118,0,0,0,.87859-3.13046c-.0158-.135.03928-.292-.01166-.4061a3.14012,3.14012,0,0,0-.33915-.497,1.75837,1.75837,0,0,0-.25835.50641,29.339,29.339,0,0,1-.77536,3.67673,3.97192,3.97192,0,0,1-.92741,2.086c-.49424.46131-.885.37294-1.1891-.26983-.06947-.14685-.14156-.43179-.0836-.4733.17-.12175.49735-.27544.59868-.1989.51422.38826.56441.037.74063-.33567a14.66562,14.66562,0,0,0,1.00506-3.381,1.137,1.137,0,0,0-.05938-.38216,1.7862,1.7862,0,0,0-.21323.35038,11.7646,11.7646,0,0,0-.5241,1.729,2.16616,2.16616,0,0,1-.79281,1.21213.28108.28108,0,0,1-.27525.016.30159.30159,0,0,1-.05791-.27644c.15363-.381.33539-.75052.49915-1.12763a1.8516,1.8516,0,0,0,.18952-.53464.90635.90635,0,0,0-.40786-.99527c-.135.26725-.37636.53112-.38509.80243a6.00955,6.00955,0,0,1-.63134,2.20973,7.77249,7.77249,0,0,1-.43178,1.15168c-.25982.40184-.46866.96228-1.17825.7831-.17073-.04308-.40333.15188-.60544.24191-.26.11584-.5187.3347-.77675.33292a1.306,1.306,0,0,0-1.0597.45442c-.112.1216-.35157.12569-.533.18336a2.35907,2.35907,0,0,1-.12994-.63575,7.90572,7.90572,0,0,1,.1897-.84025.77883.77883,0,0,0-.31085-.79538,4.22911,4.22911,0,0,1-1.53663-3.571,1.19124,1.19124,0,0,0-.06293-.28053c-.04838.09241-.08967.18943-.14628.2765a2.46379,2.46379,0,0,0-.15188,1.95987,4.30123,4.30123,0,0,0,1.033,2.45693c.2136.19416.09747.751.13253,1.1416-.141-.01744-.36914.01291-.40909-.06a12.82022,12.82022,0,0,1-.79337-1.61946,8.36662,8.36662,0,0,1-.63546-2.9233c-.00029-.081-.14236-.16149-.21855-.24222-.06071.062-.16253.1165-.1754.1872a6.12806,6.12806,0,0,0-.19533,1.35c.03408.71583.17251,1.427.27483,2.139.02254.15685.13866.32375.1051.45971a2.65137,2.65137,0,0,1-.29962.58069,1.81555,1.81555,0,0,1-.29366-.49251c-.27809-1.29084-.53524-2.58628-.787-3.88258-.01179-.06073.146-.16121.1296-.213a3.66022,3.66022,0,0,0-.23484-.49886c-.11611.13031-.30706.24753-.33263.39367-.0523.29881.00483.61508-.0238.92035-.0158.1685-.09445.4555-.179.46861a1.30594,1.30594,0,0,1-.65584-.11735c-.09023-.03669-.11268-.21993-.1861-.32216-.13851-.19294-.29165-.37537-.43871-.56217-.32954.271-.191.54232-.049.86007.16715.37407.21107.80483.38938,1.17166.106.218.366.52274.52257-.03354.039-.13852.20354-.2586.33827-.34226.03686-.02288.25995.13053.25217.18026a1.39171,1.39171,0,0,1-.21114.72192,1.78333,1.78333,0,0,0-.66449,1.283c-.00209.21827-.32115.32454-.47747.01972a10.48182,10.48182,0,0,1-.67374-1.46445c-.20994-.63575-.262-1.32945-.51543-1.94313-.18777-.45469-.06035-.6173.273-.881a3.02194,3.02194,0,0,0,.6338-.892,3.26529,3.26529,0,0,0,.21263-.62924c-.169.1-.37271.3158-.5002.27753-.3239-.09722-.97738.43768-.94476-.43312.00086-.02291-.11312-.05013-.17355-.07532-.07645.27628-.28824.604-.20616.82.37431.98483.014,2.10388.58882,3.0408a.32013.32013,0,0,1,.00164.20243c-.0247.12492-.063.24713-.09567.37046-.141-.06945-.36149-.10441-.40923-.21436a8.84007,8.84007,0,0,1-.50979-1.42926c-.17412-.72127-.28167-1.45853-.42237-2.18807a1.72893,1.72893,0,0,0-.09759-.267c-.09678.09479-.28557.20006-.27616.28282.09941.87448-.31727,1.76966.282,2.64026a3.50021,3.50021,0,0,1,.28236,2.229c-.004.06825-.26822.20226-.3707.17113-1.30352-.39607-2.64977-.71483-3.323-2.13015a8.8194,8.8194,0,0,0-.84449-1.09015c-.16035-.23071-.3905-.536-.34829-.7629.17246-.92684-.50577-1.59548-.64382-2.41766-.00927-.05521-.06787-.10215-.10353-.15293-.09678.09677-.27482.19183-.27693.29061a7.682,7.682,0,0,0,.05972,1.709c.06714.32326.30461.68377-.05334.84636-.45854.20827-.595-.26432-.74061-.58764a4.63411,4.63411,0,0,1-.11578-.46527,2.52145,2.52145,0,0,0-.93545-1.471A4.3375,4.3375,0,0,1,7.7998,23.33425c.04289-.29893.29816-.56245.381-.8628.03931-.14259-.09631-.33342-.15268-.5024-.08051.11061-.16506.21855-.24055.33249-.10624.16033-.20576.3251-.30816.488a3.84665,3.84665,0,0,1-.30415-.48843c-.15248-.347-.27527-.707-.41743-1.05875a1.85058,1.85058,0,0,0-.14933-.251c-.07258.07258-.2044.14211-.20834.21823a3.007,3.007,0,0,0,.13785,1.7542c.12788.231.53494.59069.073.83463-.37346.19727-.67441-.18-.80547-.45242a2.68617,2.68617,0,0,1-.49917-1.5457A10.87194,10.87194,0,0,0,5.316,19.955a3.30382,3.30382,0,0,1,.3426-1.50357,1.15381,1.15381,0,0,0,.076-1.03093c-.03881-.19073-.06428-.38422-.09585-.57643a3.53776,3.53776,0,0,0-.564.35164,3.2,3.2,0,0,0-.4637,3.54743,1.58024,1.58024,0,0,1,.20625.42465,2.73921,2.73921,0,0,1-.05173.596c-.20516-.08293-.52116-.1094-.597-.2582a11.13611,11.13611,0,0,1-1.06272-2.42464,4.50969,4.50969,0,0,1,.19526-1.94807,3.283,3.283,0,0,1,.99828-1.84288,1.71631,1.71631,0,0,0,.185-.21609,2.51971,2.51971,0,0,0-.27281-.08391c-.25454-.049-.51631-.06923-.76508-.13768-.722-.19857-1.0807.06715-.98243.82649a2.62678,2.62678,0,0,0,.41646,1.05115c.16355.25146.33681.52606.07782.68766a.49186.49186,0,0,1-.71324-.33594,6.65473,6.65473,0,0,1-.58032-1.79877c-.03-.65723-.30745-1.37825.30451-2.02724.29662-.31457.06615-.89253-.18755-1.2864a4.59961,4.59961,0,0,1-.51417-3.351c.12554-.73936.08144-1.4579.14871-2.18241.008-.08591-.0577-.17867-.08924-.26825-.07258.06722-.18193.12138-.21128.204a3.98628,3.98628,0,0,0-.29651,1.002c-.04672.6467-.00692,1.29935-.02,1.94919A.99423.99423,0,0,1,.66209,9.65c-.11282-.058-.26653-.0886-.3285-.18081a1.143,1.143,0,0,1-.14067-.45164A8.30767,8.30767,0,0,1,.0006,7.56369a4.69694,4.69694,0,0,1,.25-1.73723,8.60833,8.60833,0,0,1,1.8473-3.14592A2.54627,2.54627,0,0,0,3.07372.42066c-.01808-.1312.09149-.28.142-.42066a1.66707,1.66707,0,0,1,.32891.3879A1.79326,1.79326,0,0,1,3.1418,2.46121,13.81866,13.81866,0,0,0,1.34891,4.7058c-.06863.10178-.02886.27668-.03931.41768A1.02377,1.02377,0,0,0,1.65516,4.992c.3266-.30144.61569-.645.95241-.93366A1.17883,1.17883,0,0,1,4.42116,4.141c.05378.08148.05166.306.00174.33429-1.388.78646-1.78113,2.20675-2.312,3.55A3.92192,3.92192,0,0,0,1.835,9.7572a1.45158,1.45158,0,0,0,.07325.27665c.07258-.05474.19094-.09647.21083-.16624A6.70835,6.70835,0,0,1,3.61832,7.4979c.26757-.32507.18368-.93619.27093-1.41532a1.744,1.744,0,0,1,.134-.33367c.13759.08086.27608.16026.412.24377.02705.01664.06176.04787.0637.07446a11.42868,11.42868,0,0,1,.129,2.66813c-.07864.4628-.01846.58631.30621.70355a1.4377,1.4377,0,0,1,1.007,1.67864,4.51194,4.51194,0,0,0-.002.513c.00542.33928-.11242.78611.05809.98574.153.17915.637.0405.95133.12762a1.41077,1.41077,0,0,1,.73691.42282,3.05513,3.05513,0,0,1-.00314,3.061,11.35045,11.35045,0,0,0-1.60148,3.23662,1.68257,1.68257,0,0,0-.13127.45352c.01177.20692.07893.5766.15773.58617.42023.05113.18144-.3195.25308-.50076A13.04382,13.04382,0,0,1,6.982,18.41536a2.93484,2.93484,0,0,1,.997-1.20352,1.14,1.14,0,0,0,.63949-1.29043,2.97551,2.97551,0,0,1,.14228-.72786,3.58514,3.58514,0,0,1,.54017.61112,1.73006,1.73006,0,0,1,.12421.66392,3.59314,3.59314,0,0,0,.01143.6134,4.107,4.107,0,0,1-.0025,2.94777,1.40316,1.40316,0,0,0-.001.51151,4.014,4.014,0,0,1-.18509,1.9113,2.40351,2.40351,0,0,1-.36987.76533c-.26883.30994-.60511.56383-.47369,1.0393.144.52089.29791,1.0393.46878,1.55172a.83456.83456,0,0,0,.33429-.03614c.02052-.00531.02355-.12589.01456-.19048-.21657-1.557.55344-2.81892,1.21668-4.11659a4.09872,4.09872,0,0,0,.41411-1.0568,1.68094,1.68094,0,0,0-.4217-1.46514c-.12034-.13991-.19423-.52072-.11155-.596.23381-.21279.47875-.0581.68458.15983a15.82662,15.82662,0,0,1,1.13041,1.16353,2.057,2.057,0,0,1,.362.9702,6.28777,6.28777,0,0,1-.49083,3.17745,8.00453,8.00453,0,0,0-.314,1.20363c-.01274.05389.0313.12119.049.18226.05069-.04867.12553-.088.14851-.14742.377-.97513,1.1771-1.78718,1.04845-2.96278-.05038-.46036,1.07371-1.11932,1.50408-.93994.11681.04867.26954.1688.28621.27492a5.5913,5.5913,0,0,1,.19333,2.343c-.04051.15524-.07048.44-.0028.47685.61273.33377.42651.87794.23538,1.26369-.32841.66283-.08708,1.32648-.17767,1.9803-.00783.05657.03542.12021.05494.18056.04891-.053.12295-.098.14273-.16026a9.31384,9.31384,0,0,0,.4041-1.37,7.38187,7.38187,0,0,0,.01794-3.73154c-.03965-.1103-.01689-.337.0491-.37146.1316-.06878.38364-.11437.46084-.03988a1.799,1.799,0,0,1,.49555.70859,16.82485,16.82485,0,0,1,.52049,2.14344,3.29189,3.29189,0,0,1,.02284,1.5666c-.20994.57781-.15272.72954.43957.68814a.23552.23552,0,0,1,.2114.14845,1.70088,1.70088,0,0,0-.13345.37983l.13419.03008.0506-.35858m25.25414-8.31539-.0561-.26141-.1342.041a1.699,1.699,0,0,1,.1903.42568c.45333.96591.04036,1.93293-.00907,2.89726a4.04834,4.04834,0,0,1-.24545,1.4281,1.68581,1.68581,0,0,0-.05032,1.31776c.17005-.40678.34647-.81113.50515-1.22229.03435-.089-.03286-.22386.01082-.30159.47707-.849-.09405-1.84881.3946-2.69224-.42913-.41991.042-1.19632-.60573-1.63232M25.54662,26.89669a5.88582,5.88582,0,0,0-.53516,2.85694,1.32329,1.32329,0,0,0,.598,1.05526,12.89014,12.89014,0,0,1,1.20132,1.26061c.19178.21652.32521.4855.522.69625.04509.04828.347-.02992.35391-.07636.09212-.616.16322-1.236.20593-1.85727.00462-.06709-.19681-.15679-.31308-.21534-.01907-.00965-.103.13655-.1388.1286-.22545-.05005-.43679.41918-.621.06381-.08713-.1681.01793-.448.06618-.67067.04661-.21506.15433-.41793.191-.63367.01769-.104-.06613-.22532-.104-.33878-.0306.08963-.05516.18188-.09314.26825-.06347.14434-.12957.28815-.20512.42643a.64924.64924,0,0,1-.86623.28554c-.11509-.0505-.12057-.51467-.06231-.76388.13652-.58394.39946-1.14183.50133-1.72934a6.76351,6.76351,0,0,0,.006-1.53068c-.00813-.13961-.15916-.27089-.2446-.406a3.30213,3.30213,0,0,0-.15191.34505,5.029,5.029,0,0,1-.31037.83523M14.25412,30.3871c-.18814-.18815-.368-.386-.56959-.55833a.21257.21257,0,0,0-.34667.22965,6.38992,6.38992,0,0,0,2.42252,2.85313,1.35911,1.35911,0,0,0,.418.06825,1.58047,1.58047,0,0,0-.09424-.34708,19.471,19.471,0,0,1-1.73106-5.50933.6822.6822,0,0,0-.12564-.20008c-.02534.09155-.05687.18191-.07507.27484a6.0739,6.0739,0,0,0,.29128,2.565.64438.64438,0,0,1-.18957.624m-1.95053-4.41434c.06844.17654.15247.3488.20261.53041.21171.767.40271,1.53989.629,2.30239.03811.12837.21292.21614.32458.32266a1.50162,1.50162,0,0,0,.071-.37813c-.05938-.83766-.15345-1.67337-.1939-2.51176-.03289-.68145.00329-1.366-.01569-2.0485-.00351-.126-.12415-.2487-.19073-.37291a1.7332,1.7332,0,0,0-.24377.34775,15.80864,15.80864,0,0,0-.58309,1.80809M5.63075,16.22014a1.87525,1.87525,0,0,0,.31164-2.25923A1.74763,1.74763,0,0,1,5.868,13.583c-.11331.1021-.26855.18293-.333.30985-.35673.70265-.69134,1.41653-1.03353,2.12654-.20531.426-.42322.84677-.60548,1.28242-.03687.08809.061.23258.09668.35106l.21684-.21682a8.72762,8.72762,0,0,1,1.4212-1.2159m31.927,7.08348-.50512-.50512c-.03694.25138-.0759.50251-.10948.75435-.00892.06684-.03059.16108.00305.20013.48374.56117-.14483,1.11093-.02045,1.6742.0241.1091-.15444.37633-.24757.38029-.85886.03626-.36755.331-.133.59585a1.53268,1.53268,0,0,1,.19037.328c.13346.26166.2695.25507.4114.0092a3.83437,3.83437,0,0,0,.41075-3.43688M3.16693,9.034a3.4475,3.4475,0,0,0-.706,2.44229c0,.13174.16807.26344.2584.39518a3.5047,3.5047,0,0,0,.21161-.34585,5.60748,5.60748,0,0,0,.99693-2.63307,6.16417,6.16417,0,0,1,.0401-.67982c-.16434.16642-.32925.33226-.49277.49946-.07.07161-.13714.146-.30824.32181m7.39145,14.78292c-.57315-.12176-.66329.34893-.69908.68693a16.33926,16.33926,0,0,0-.01467,1.93443.73028.73028,0,0,0,.105.24585,1.3286,1.3286,0,0,1,.09789-.26469c.27755-.43946.311-1.01078.95052-1.2576.26211-.10118.33979-.705.47192-1.09033.01916-.05582-.11364-.22153-.19955-.24309a3.68793,3.68793,0,0,0-.71206-.0115M7.78659,20.63448a3.84546,3.84546,0,0,0,.80843-2.399c-.01624-.19815-.19523-.383-.29927-.57395a3.7339,3.7339,0,0,0-.50252.38555.77676.77676,0,0,0-.20443.41693c-.08441.78187-.14978,1.566-.20621,2.35041-.00725.10083.07575.20815.11694.31246a1.01134,1.01134,0,0,0,.28706-.49237M41.86942,22.277c-.13688-.45154-.2444-.915-.421-1.35041a5.17726,5.17726,0,0,0-.5048-.80358,7.99922,7.99922,0,0,1-.10559.872c-.23646,1.03032.50976,2.05564.01116,3.08679-.0122.02521.07039.13777.10818.13745.091-.00073.24055-.0198.26322-.07439a15.52484,15.52484,0,0,0,.64883-1.86784M30.67957,28.33392a.80732.80732,0,0,0-.3135.79368c.00469.47056-.01358.94253-.04874,1.41189-.03174.42359-.10536.844-.14421,1.26724-.00553.06031.08092.12908.12481.19392.04826-.04825.11785-.08817.14056-.14637a3.20677,3.20677,0,0,0,.13709-.45485c.27616-1.21667.55553-2.43276.813-3.65342.02779-.13181-.07782-.29179-.12157-.43868a1.3331,1.3331,0,0,0-.27241.29579c-.09379.1985-.14389.41766-.315.7308m8.11007-4.61966c-.13687.69282-.27829,1.38484-.40455,2.0796-.01486.08173.05361.1786.08346.26845a1.01971,1.01971,0,0,0,.34257-.12534.8565.8565,0,0,0,.18223-.32846,8.34308,8.34308,0,0,0,.19657-2.87884.82136.82136,0,0,0-.20082-.42146c-.04571-.06622-.203-.14321-.22225-.12464-.07912.07644-.18323.19489-.17216.28484.043.34956.12652.69411.19495,1.24585m-24.8435,1.02659c.13688-.82195.28021-1.64295.4016-2.46718.01357-.09213-.09745-.20263-.15071-.30462a1.77625,1.77625,0,0,0-.32564.18707.379.379,0,0,0-.12508.24685c-.0088.91238-.00572,1.82483.003,2.73721,0,.00354.12842.00587.19686.00875v-.40808M4.09086,10.98453c-.26586.33429-.545.65924-.79095,1.00756a1.90611,1.90611,0,0,0-.17473.49059c.14092-.04466.28511-.081.42222-.13526.96225-.38094,1.06165-1.16788.95006-2.0469a.73386.73386,0,0,0-.1168-.22175,2.74207,2.74207,0,0,1-.08616.272,2.51523,2.51523,0,0,0-.20364.6338M38.071,22.17437c-.25961-.2596-.50887-.53134-.7873-.76889-.05761-.04915-.22359.02865-.33962.04792a.77208.77208,0,0,0,.07034.273c.31086.417.64421.81748.94952,1.23837a5.255,5.255,0,0,1,.33841.62082,4.87069,4.87069,0,0,0,.06573-.782,1.56014,1.56014,0,0,0-.29708-.62919m-14.06431,2.7718c-.06844-.27848-.11842-.56353-.21392-.8324-.04125-.11615-.17654-.19893-.26912-.29685-.04431.1121-.13618.22938-.12466.33542a10.19431,10.19431,0,0,1,.17422,1.3471c-.00693.24835-.36932.47517-.07113.77262a7.58767,7.58767,0,0,0,.49507-.71671c.05748-.10486.00954-.2675.00954-.60918m3.49041,3.07977c.45079-.57.09181-1.23023.19417-1.83992a.35391.35391,0,0,0-.23819-.09877.264.264,0,0,0-.1552.19321c-.07825.7804-.14828,1.56179-.20464,2.344-.00694.09642.07885.19956.12165.29958.07157-.07158.17818-.13138.207-.2173a2.90251,2.90251,0,0,0,.07523-.68084m-16.11748-1.7452c.08465-.58007.08465-.58007-.07968-.53628-.51207.13644-.78831.879-.63012,1.74939.01564.08614.15416.15.23564.22411.12384-.411.24827-.82172.37028-1.23321a.40468.40468,0,0,1,.10388-.204m4.61966,2.56647c.02167-.15855.0416-.31732.06551-.47555.021-.13887.04646-.27707.06995-.41557-.15855-.0002-.34321-.051-.46829.01363a.56776.56776,0,0,0-.27055.37555,6.21487,6.21487,0,0,0-.006,1.00333c.00336.07434.08992.14492.13817.21723a1.67111,1.67111,0,0,0,.26247-.19938,1.04042,1.04042,0,0,0,.20874-.51924m8.21273-1.02659c.06844-.44357.144-.88631.19716-1.33171a.24968.24968,0,0,0-.1484-.19637c-.07629-.014-.23727.05023-.24369.09687-.08408.61-.15085,1.22251-.20452,1.83593-.00253.0289.20906.12327.23337.09913.07756-.07717.11384-.19587.16608-.50385m-1.43723-.20532c.40538-.43427.13843-.9644.19647-1.44735a3.0701,3.0701,0,0,0-.06732-.682,6.16176,6.16176,0,0,1-.13265.607c-.12508.38948-.29885.76558-.39462,1.16123-.04541.18757-.13178.52232.39812.36108M5.52809,12.01112c0-.3735.014-.74792-.01149-1.11968-.00527-.07679-.15747-.14354-.242-.21489-.05239.0695-.14816.1378-.15018.20873-.01348.475-.0125.95057-.00417,1.42577.00312.17822-.09125.472.24465.3959.08695-.01973.11049-.31941.16315-.69583M20.927,30.07912c-.12583-.23384.3006-.753-.3401-.702-.14711.0117-.2776.23231-.41576.35677.3044.21166.09205.86005.688.81143.02952-.00241.04554-.17013.06785-.46621m1.43722-.41063.062.67791a6.99629,6.99629,0,0,0,.34092-.68172c.04466-.117-.04623-.30527.018-.39149.1858-.24948.33763-.46944.04177-.734-.1542.20747-.321.40722-.45555.62673-.04479.073-.00707.1967-.00707.50252m19.71056-5.74891c-.12994.41758-.26113.8348-.38229,1.25491a.33081.33081,0,0,0,.16336.07439c.05824.00326.16367-.02524.17182-.05855q.23892-.9769.45392-1.95954c.01209-.05484-.02971-.12158-.04649-.18279-.05166.04594-.12434.08213-.15106.13965a2.72827,2.72827,0,0,0-.20926.73193M3.68022,14.0643c.15527.03536.19436.4561.42459.17439a6.02738,6.02738,0,0,0,.59424-.97837c.03516-.06544-.03-.18477-.04886-.27925a.73277.73277,0,0,0-.21353.12764c-.22459.279-.437.56771-.75644.95559M30.16628,26.794c.11075.30049-.25059.72814.24884.92393.05393-.30329.11474-.60557.15862-.91029a.71477.71477,0,0,0-.00836-.39806c-.06524-.12354-.21739-.20121-.33185-.29878-.02242.1593-.04483.31858-.06725.6832m12.11377-.82127a1.2593,1.2593,0,0,0,1.12037-.91992.58174.58174,0,0,0,.00533-.20933c-.067,0-.16161-.02892-.19678.00456a5.00932,5.00932,0,0,0-.92892,1.12469m-10.98452.71861c.54867-.41241.21812-1.00423.302-1.51109.00487-.0295-.10606-.11043-.11321-.10471-.07957.06331-.2047.13359-.21245.21233a5.46886,5.46886,0,0,0,.02366,1.40347M7.58127,15.09089c-.04286-.31662-.07573-.63528-.14032-.94742-.00878-.04243-.1763-.052-.27032-.07681a6.84644,6.84644,0,0,0,.01884,1.0003c.014.09376.25493.15376.3918.02393M37.76306,26.99935l.14421-.14421-.21783-.16377a9.01322,9.01322,0,0,0-.532.78378c-.052.09446.01635.25514.02972.38557a1.58865,1.58865,0,0,0,.35411-.24088,1.34273,1.34273,0,0,0,.22176-.62049m-2.25851-3.69573c-.05133-.17111-.09944-.34339-.16163-.51044a.42711.42711,0,0,0-.1726.03163,2.06544,2.06544,0,0,0,.02266.9386c.09755.18541.34.01752.31157-.45979m4.825-.10266c-.13523-.12486-.37447-.36647-.28338.06279.068.3205-.44216.6462.03573.92147a2.77118,2.77118,0,0,0,.24765-.98426m.82127,2.87446a5.14033,5.14033,0,0,0,.09616-.55723.71426.71426,0,0,0-.09091-.25881,1.432,1.432,0,0,0-.10513.2451.56979.56979,0,0,0,.09988.57094M3.26959,13.243l.071.27634c.11321-.13586.23278-.26732.33309-.41211.016-.023-.05466-.106-.08526-.16131-.07206.06479-.14413.1296-.31885.29708M33.75934,27.51265c.03422-.147.07792-.29269.09722-.44157.00624-.04815-.05155-.10459-.08006-.15725a.80416.80416,0,0,0-.115.20718.567.567,0,0,0,.09783.39164m-22.585-4.72232a.40966.40966,0,0,0-.06529.068c-.01033.01692-.00461.04361-.00607.06594l.37934-.05341a.28636.28636,0,0,0-.308-.08052M26.98384,33.46687l-.08212.12319c.06159-.00684.12319-.01368.08212-.12319m6.46754-5.23564.12318.08216c-.00684-.0616-.01369-.12318-.12318-.08216M10.76371,22.17437l.08212-.12318C10.78423,22.058,10.72264,22.06487,10.76371,22.17437Zm15.50152-14.167c.72728.41287,1.51707.15023,2.276.18612.27355.013.369-.2781.40812-.58618.08411-.6628.29773-.79573.77516-.40347.72884.59879,1.3672.25981,2.03295-.02145.777-.32828.85888-.32587,1.45962.28374A2.57019,2.57019,0,0,1,34.07257,9.577a.74507.74507,0,0,0,.08786.26878c.0374-.08076.07266-.16259.11255-.24209a2.04975,2.04975,0,0,0-.49843-2.392c-.19733-.23609-.52572-.51547-.26644-.75307.27354-.25066.655-.13123.96528.19088A3.27334,3.27334,0,0,1,35.3071,8.569c.01338.09431.13352.17349.2042.25965.06618-.09067.18137-.17657.19078-.27278a3.642,3.642,0,0,0-.53078-2.03524c-.14247-.27906-.57222-.67648-.16709-.94012a.77481.77481,0,0,1,1.02525.39524c.19529.3239.33237.6825.505,1.02073a.93594.93594,0,0,0,.17677.18963c.07687-.08.20953-.15244.22151-.24121a1.6223,1.6223,0,0,0-.51446-1.42878c-.09148-.09141-.4722-.18061-.14716-.42089.20112-.14865.2911-.60846.719-.24412a4.12431,4.12431,0,0,0,.90823.4545c.02334-.33236.04366-.665.07284-.99686.00526-.05983.03491-.1566.07383-.16835.44006-.13281.934-.435,1.31484-.33086.51379.14053.55957-.06038.66835-.40711.05592-.17825.181-.479.27458-.47893.91919.0008,1.39825-.91416,2.24667-1.04253a3.81833,3.81833,0,0,0,1.02194-.25324c.26908-.12384.57447-.04644.835-.32906.46632-.50582.9673-.3765,1.38.26046.34831.53753.68289,1.08411,1.01486,1.632a3.219,3.219,0,0,1,.18175.42126,1.26668,1.26668,0,0,1-.35757-.20075c-.35114-.3959-.6974-.798-1.01739-1.21918-.45723-.60177-.43055-.55971-.94441-.18552-.64314.46836-1.35955.83611-2.04493,1.24632-.0266.01589-.07006.03963-.08777.02925-.99353-.583-.78045.19321-.93054.7332-.06563.2361-.61582.30226-.86511.53295-.23028.21308-.00686.7926-.56822.78591-.38188-.00452-.4765.22717-.59487.53592-.1408.36725-.384.26933-.56394-.0093-.0856-.13253-.13074-.29344-.22665-.41615a.30631.30631,0,0,0-.25626-.09446c-.06159.01384-.12985.13331-.13991.21289a3.4138,3.4138,0,0,0-.0058.51222c.01479.58309.03693,1.1092-.714,1.36176-.2736.092-.38217.63473-.60232.94619-.08292.11729-.26855.162-.40736.23973-.04163-.11524-.08753-.22921-.12312-.34628-.01876-.06173-.00713-.13384-.03057-.19278-.09135-.22986-.19122-.45636-.28792-.68408-.03129.26068-.05617.52232-.09535.7818-.063.41715-.12661.83455-.20623,1.24872-.08589.44673-.43483.45884-.77962.42014-.38427-.04311-.34355-.04627-.4602.34765a6.87424,6.87424,0,0,1-.542,1.31129c-.06637.12268-.34037.16063-.5234.17238-.04344.00278-.14636-.25529-.14914-.39482-.015-.7522-.00207-1.50492-.01056-2.25732a1.0238,1.0238,0,0,0-.087-.57242,2.72884,2.72884,0,0,0-.62422-.45024,4.60707,4.60707,0,0,0,.10231.58571,4.328,4.328,0,0,1-.00149,2.7049c-.0405.12125-.01215.28935-.08673.37026a3.186,3.186,0,0,1-.49915.375c-.07916-.17243-.16535-.34208-.2352-.5182-.05322-.13422-.08571-.27665-.1274-.41543a2.81394,2.81394,0,0,0-.28116.39693,3.59213,3.59213,0,0,0-.39617.95942c-.0513.33753-.25481.29515-.42312.24665a.4192.4192,0,0,1-.19991-.34821,8.82906,8.82906,0,0,1,.13452-1.57685,2.55489,2.55489,0,0,0-.72345-2.63011,1.12984,1.12984,0,0,0-.34594-.15006,1.60309,1.60309,0,0,0,.01687.42051,3.34813,3.34813,0,0,0,.36829.972c.64423.8939.24909,1.72843-.09038,2.56387-.06178.152-.28485.23855-.43346.35529a1.46393,1.46393,0,0,1-.15935-.50489c.0394-.52112.15674-1.03725.18095-1.55824A1.5077,1.5077,0,0,0,29.335,9.526a5.04747,5.04747,0,0,0-.51659-.684c.013.27782.01333.5569.04122.8332a4.4811,4.4811,0,0,1-.13734,2.44542c-.0414.08863-.17675.13337-.26853.19845-.0451-.07754-.12084-.1515-.13046-.23323-.07711-.65473-.15016-1.31021-.20744-1.96692-.044-.50485-.49631-1.08679-.86006-1.08694-.21465-.0001-.33133.00128-.39539.29878a9.852,9.852,0,0,0-.19274,2.41818.90227.90227,0,0,1-.10807.56334c-.16253.23683-.32042.43317-.52027-.06446a3.2396,3.2396,0,0,1,.02362-2.3c.0476-.14932.15519-.28088.19347-.43123a.288.288,0,0,0-.09074-.2556c-.06031-.03627-.23819-.00486-.26166.04506-.26947.57333-.79737,1.03582-.678,1.77822a6.48726,6.48726,0,0,1,.00551,1.33161,2.28831,2.28831,0,0,1-.14984.51916c-.22142-.11236-.59628-.18522-.63715-.344a2.93956,2.93956,0,0,1-.13723-1.92075,2.52676,2.52676,0,0,0,.10345-.77581c.00462-.07409-.07138-.15324-.11042-.23006a.77963.77963,0,0,1-.09193.26806,3.52284,3.52284,0,0,0-.55063,2.91616c.02428.22464.02888.35582-.11458.42377a.53591.53591,0,0,1-.41048-.09489c-.14148-.08777-.2263-.27562-.3716-.3469-.39235-.19254-.91225-.33209-.96072-.79636a3.83958,3.83958,0,0,1,.105-1.8701,18.0998,18.0998,0,0,1,.75565-1.946c.02906-.05582.00406-.1398.00417-.21071-.06773.00163-.16467-.02551-.19887.00917-.67131.68075-1.50556,1.24492-1.35777,2.4238a2.34862,2.34862,0,0,1-.12993,1.37209c-.20787.44321-.27067.20539-.39636.04832a1.08288,1.08288,0,0,1-.2611-.50214,5.85333,5.85333,0,0,1,.30056-2.33252,2.34936,2.34936,0,0,1,1.53-1.43174.8742.8742,0,0,0,.17452-.13832A.63586.63586,0,0,0,22.1476,7.394a2.95972,2.95972,0,0,0-2.55051,1.65368,4.37084,4.37084,0,0,0-.10631,1.08531,8.15049,8.15049,0,0,1-.06791.8994c-.01323.07063-.28181.18148-.33743.14138-.289-.20848-.45916-.58194-.93021-.5262-.07954.00942-.30348-.36906-.2911-.55714.05765-.87583-.28408-1.8128.38424-2.60953a1.78265,1.78265,0,0,0,.19879-.61871,3.21452,3.21452,0,0,0-.70605.343A1.57742,1.57742,0,0,0,17.22146,8.631c.00967.12965-.1032.26842-.15969.403-.14884-.11652-.43676-.25168-.42406-.3466.08591-.642-.31864-1.36326.28966-1.93065.065-.06065.03233-.226.045-.34281-.11679.01561-.2702-.01068-.34423.05394-.382.33356-.79291.66242-.636,1.27614.01912.07479-.06122.175-.09546.26339-.11678-.04837-.27333-.06444-.34337-.15075A1.01617,1.01617,0,0,1,15.50043,6.747c.04115-.10179-.0409-.25342-.06638-.38214a1.935,1.935,0,0,0-.25291.21717,1.23453,1.23453,0,0,0-.2048.32427c-.109.27226-.15505.66026-.58588.40387-.35378-.21061-.28587-.57363-.17431-.89516.04036-.1163.19474-.1885.27877-.29525.12858-.16336.46847-.29364.164-.54713-.05329-.04434-.32778.14374-.4752.25692a1.626,1.626,0,0,0-.25815.33,1.73541,1.73541,0,0,1-.37671-.412,1.25113,1.25113,0,0,1-.01253-.50708c.01075-.38625-.1494-.4172-.41877-.19948-.10583.08552-.18381.25615-.294.27522-.24309.04216-.57957.14442-.52311-.33346.01993-.16868-.01589-.34427.00716-.51215.04813-.35053-.2071-.491-.4046-.34509-.37783.27915-.58458.01842-.67875-.19933a1.69566,1.69566,0,0,0-1.10709-1.02368,3.00467,3.00467,0,0,0-1.92.27479c-.43373.19043-.87988.354-1.32682.51157-.0764.02691-.18474-.0367-.27834-.05848.04768-.07253.07848-.1789.14564-.21243A13.63079,13.63079,0,0,1,8.7094,2.48725,2.17886,2.17886,0,0,1,10.68881,2.461a4.67078,4.67078,0,0,1,.58207.31863,1.81229,1.81229,0,0,0,.99407.59879c.23686.03228.43412.33442.65606.5059a1.651,1.651,0,0,0,.3532.21825,4.60738,4.60738,0,0,1,.53762.1861c.55213.32449,1.08373.6845,1.64225.99686.08769.049.29535-.05.41047-.13236.16468-.1178.27928-.3757.44452-.40417.19146-.03306.41461.1176.624.1885a2.43754,2.43754,0,0,1-.18112.35994c-.07871.1097-.20665.18514-.28.2972a.709.709,0,0,0-.04523.27371c.09675-.03947.19651-.07288.28967-.11955.28351-.142.56031-.298.848-.43069a1.47147,1.47147,0,0,1,.53935-.16947c.09906-.00314.24134.13634.28961.24471.026.05825-.08836.206-.17015.27868-.10975.09755-.27713.13828-.368.24675a1.343,1.343,0,0,0-.15828.39851c.13024.01589.29721.09175.38489.03809.66529-.4073,1.38617-.13963,2.07658-.18093.4538-.02717.75272.15359.26085.60934-.01193.01105.08692.19278.1143.1877a7.81813,7.81813,0,0,1,1.901-.18763,3.27026,3.27026,0,0,1,1.03946.20845c.61521.25572.60325.297.06665.76506a1.40465,1.40465,0,0,0-.35457.36628,3.35255,3.35255,0,0,0-.18493.62342,4.35323,4.35323,0,0,0,.43336-.27452,7.77205,7.77205,0,0,1,1.23382-.992,1.217,1.217,0,0,1,1.54559.47557,1.50306,1.50306,0,0,0-1.14915.95709c-.03373.08276.04266.2249.10106.31923a.34784.34784,0,0,0,.24988-.078c.29294-.37472.56833-.76313.84954-1.147m5.95423.308c0-.09705.038-.22316-.00879-.28444a1.21141,1.21141,0,0,0-.31-.21805,1.60608,1.60608,0,0,0,.09376.27283,2.33477,2.33477,0,0,1,.225.435l.04933,1.07591a.69256.69256,0,0,0,.135-.03391c-.02331-.38186-.05421-.76325-.08873-1.14429-.00026-.003-.06236-.00037-.09558-.103m-13.34569.82127c-.02752-.59826.39363-.99759.64208-1.47525.048-.09235-.005-.23722-.01139-.3579-.09652.01827-.22386.00336-.28477.05995a1.35189,1.35189,0,0,0-.34592,1.7732m12.11378,1.84787.07235.483c.11277-.104.28268-.18835.32683-.31613a5.22859,5.22859,0,0,0,.21049-.93781,1.03036,1.03036,0,0,0-.04093-.49292c-.03945-.10587-.18236-.17317-.27907-.25768a2.57855,2.57855,0,0,0-.08278.27312c-.06639.34822.16489.755-.20689,1.24845M24.3147,8.418c-.07207.07206-.17184.13231-.209.2193a1.26856,1.26856,0,0,0-.04763.34532,1.18834,1.18834,0,0,0,.282-.1909c.05509-.06579.05366-.179-.02534-.37372m7.08348.308.1232.08213C31.51453,8.74655,31.50769,8.685,31.39818,8.726Zm17.86269,5.64625a5.91247,5.91247,0,0,1,.38975,3.309A1.89668,1.89668,0,0,1,48.07276,19.064c-.17421-.02135-.31578-.39643-.4493-.6232a1.43838,1.43838,0,0,1-.10146-.36642c-.10476.123-.27606.23256-.30377.37093a5.00754,5.00754,0,0,0,.11623,3.35808.64716.64716,0,0,1-.01269.53956c-.12247.19554-.31306.51182-.53713.00524a2.63878,2.63878,0,0,1-.40919-1.37161c.03361-.333-.20993-.67674-.5204-1.09421a1.753,1.753,0,0,1-.28287-.69709,4.29278,4.29278,0,0,0-1.16411-2.38833,1.65476,1.65476,0,0,1,.11038-2.05451,1.2394,1.2394,0,0,1,1.01-.06614,1.80456,1.80456,0,0,1,1.26851,1.689.36949.36949,0,0,0,.00137.10191,5.03008,5.03008,0,0,0,.33892.9624c.04881.08624.76487-.963.67883-1.22622-.27528-.84218-.29714-1.79751-1.08471-2.41893-.303-.239.13961-.41109.1569-.40946a8.5973,8.5973,0,0,1,1.29465.22737,1.11871,1.11871,0,0,1,.25665.20532c.03178.60962.437.57039.82127.56463m-2.77179,3.49041c-.10356-.0002-.13733.3965-.31525.03218-.2768-.56681-.58855-1.1181-.91589-1.65746-.06967-.11481-.26974-.15045-.40972-.22259a1.74906,1.74906,0,0,0,.08539.48819c.33526.67758.73591,1.32644,1.0224,2.02293.12729.30935-.08386.74633.332.975.10123-.33176.20447-.6629.303-.99546.07184-.24242.13753-.48666.206-.73007a.45573.45573,0,0,0-.308.08727m2.36116-.92393a4.24294,4.24294,0,0,0-.56727-2.40352c-.06679-.08815-.22062-.1103-.33423-.163-.03384.11053-.13214.26261-.09172.32524a4.55866,4.55866,0,0,1,.38574,2.48643,1.55889,1.55889,0,0,0,.188.47342c.0714-.15178.14085-.30454.21522-.45485A1.32537,1.32537,0,0,1,48.85024,16.93876Zm.462-12.67841a4.10087,4.10087,0,0,1-.61044-.84488.71951.71951,0,0,1,.14226-.60412.58139.58139,0,0,1,.53154-.11146A3.438,3.438,0,0,1,51.50214,5.0507a.69411.69411,0,0,1-.22786.5952c-.12767.09291-.40847.01018-.60812-.04421-.11168-.0304-.196-.16121-.29266-.24677-.02868.159-.11611.33487-.07607.47409a4.8108,4.8108,0,0,0,.84821,1.90138c.51786.60094.35915,1.31617.35284,1.99934-.00076.08289-.18209.51826-.47018.14715a8.45439,8.45439,0,0,0-.5408-.69563,3.2931,3.2931,0,0,0-.66887-.55187,1.90285,1.90285,0,0,1-.95582-1.9135c.03076-.19783.19053-.50027.33647-.52974.31109-.06283.64151-.07148.665-.44753.02826-.45239.16416-.96737-.35463-1.28382a1.51353,1.51353,0,0,1-.19745-.19444m1.07792,3.74706c-.01873-.36018-.42074-.98887-.646-.9896-.04729-.00015-.10791.08086-.13884.13735-.03441.06286-.08152.17622-.05472.20592A2.65227,2.65227,0,0,0,50.39012,8.00741ZM48.23428,13.551a2.10823,2.10823,0,0,1-.00646-2.97706,1.14475,1.14475,0,0,0,.207-.42437c.17-.69493.573-.97251,1.1805-.61819a2.869,2.869,0,0,1,1.19316,1.21053,6.70358,6.70358,0,0,1,.28412,2.02817c.00887.11166-.19538.24023-.30113.361a2.57416,2.57416,0,0,1-.14147-.35069,2.1675,2.1675,0,0,1-.14324-.7531c.077-.56943-.28295-.98365-.45459-1.45953-.05033-.13955-.30031-.24271-.478-.28953a1.35544,1.35544,0,0,0-.48175.05351c.04778.14078.09.28374.14426.422q.467,1.18958.94039,2.37667c.0116.02913.06728.04853.06776.07311a3.20414,3.20414,0,0,1-.02984,1.083c-.04048.11457-.55392.062-.90277.03444-.32509-.22241-.59885-.39352-.8726-.616a.53821.53821,0,0,0-.20532-.154m0-1.53988c.16385.4376.31781.87944.50025,1.30915.0347.08178.18194.11579.27725.17186.04692-.11915.159-.2581.12975-.35407-.14508-.47643-.32073-.94411-.49984-1.40938C48.56855,11.53865,48.55222,11.54494,48.23428,12.01112Z"/></g></g></svg>