<svg xmlns="http://www.w3.org/2000/svg" width="36.14291" height="12.93359" viewBox="0 0 36.14291 12.93359"><title>facial-hair-3</title><g id="Layer_2" data-name="Layer 2"><g id="facial-hair-3"><path id="void" d="M35.883,1.60612c-.1991-.24982-.40259-.49664-.59143-.75409a3.83946,3.83946,0,0,0-.37451-.55536A.53142.53142,0,0,0,34.46932.1898c-.08972.029-.15674.24835-.16479.38678-.00342.05682-.00122.11389-.00269.17083a.33212.33212,0,0,0-.092.00971L34.207.75346a.4468.4468,0,0,0-.54-.06964,2.09527,2.09527,0,0,0-.56506.69262.49683.49683,0,0,0-.13208.08307,2.66021,2.66021,0,0,0-.29639.31635.44639.44639,0,0,0-.52978.064,2.83587,2.83587,0,0,0-.5083.60736.61332.61332,0,0,0-.39478.2453.13074.13074,0,0,0-.04638-.04113c-.30347-.1012-.48926.09991-.59534.3822-.01624.04327-.04309.08166-.0614.12445-.00611.00861-.01441.01428-.02027.02307a.48326.48326,0,0,0-.5979.15118c-.041.06556-.07031.14295-.10766.21222-.23682.04743-.36768.20838-.41651.50794a.34847.34847,0,0,0-.39965.109c-.01416.01635-.02564.03552-.03907.05255a.36176.36176,0,0,0-.44653.19928c-.02856.06109-.05591.12347-.084.18506a.40872.40872,0,0,0-.65332.20514c-.0337.09149-.06446.18408-.095.27667-.03027-.06275-.06811-.126-.09606-.1886-.11255.05829-.266.08929-.32776.18158a.89053.89053,0,0,0-.13733.451l-.00012.003a5.68268,5.68268,0,0,0-.4668.89514.50092.50092,0,0,0-.10889-.03882c.03638-.1878.09009-.3548-.11621-.40234a.62528.62528,0,0,0-.52869.27716c-.05175.10547-.09155.2168-.13806.32489a1.162,1.162,0,0,0-.10766.09875l-.01014.001a.80261.80261,0,0,0-.47766.32153l-.0083.00019A.37067.37067,0,0,0,24.981,6.9044a1.03062,1.03062,0,0,0-.14722-.021c-.02685-.14007-.11035-.33191-.15185-.32867a.91946.91946,0,0,0-.52515.18652.65052.65052,0,0,0-.11853.4527V7.1948l-.02026.00482a.86589.86589,0,0,0-.13489-.26782.43149.43149,0,0,0-.509-.16894.27543.27543,0,0,0-.1532.0805c-.00525.00684-.00671.0163-.01184.02332a2.03723,2.03723,0,0,0-.471.46917.8361.8361,0,0,0-.17383-.04962c-.01294-.00226-.02588-.00287-.03869-.00433a.65491.65491,0,0,0-.59339-.26709,1.21035,1.21035,0,0,0-.09643-.4436c-.39478-.00177-.30786.21338-.25879.42047a1.05331,1.05331,0,0,0-.5354.11767c.03992-.1737.08069-.34741.103-.52331.00952-.07611-.1399-.25214-.19849-.24463-.48853.06274-1.053-.32782-1.491.08551-.01379-.00446-.02319-.01379-.03784-.01733a.51065.51065,0,0,0-.48584.13751c-.00879-.0105-.02-.0152-.02905-.02515-.00183-.00885-.00623-.01245-.00769-.02179a7.61548,7.61548,0,0,0-.21326-1.0412c-.04065-.134-.20679-.22979-.31592-.343-.09619.13122-.26416.25567-.27734.39465l-.00366.0506a.81395.81395,0,0,0-.6211.11609,1.655,1.655,0,0,0-.22705.1762,1.20137,1.20137,0,0,0-.239.176,1.49155,1.49155,0,0,0-.11743-.149c-.1167-.11975-.403-.07434-.61194-.10419a1.47821,1.47821,0,0,0,.14368.4181,2.51965,2.51965,0,0,1,.162.276.36883.36883,0,0,0-.35986.08551c-.01978.02044-.04334.04608-.069.0747-.00391-.00207-.009.00031-.01306-.00164-.06507-.15455-.124-.3122-.198-.46235-.0719-.14581-.38855-.21118-.60095-.23309-.13428-.01385-.27722.15167-.42774.18463-.49633.10883-.59839.21918-.43969.51978a1.18475,1.18475,0,0,0-.23975.16736.42459.42459,0,0,0-.25635-.01777c-.01721.0047-.03076.01441-.04736.02a.85149.85149,0,0,0-.72022-.33374c-.38769.00885-.77819-.13665-1.167-.1347a2.47956,2.47956,0,0,1-1.55688-.48242A6.9175,6.9175,0,0,0,8.74349,5.1085c-.21533-.07654-.38623-.0362-.16125.28558.10132.145-.02869.45178-.06409.69232-.01318-.07275-.026-.1455-.04053-.21807a.39711.39711,0,0,0-.25952-.26862c-.00928-.06061-.01587-.12341-.01965-.19043-.00623-.10779-.13867-.20837-.26453-.30933a.394.394,0,0,0-.5437-.26068c-.0293-.1297-.11352-.31592-.20679-.33844a.28712.28712,0,0,0-.09057.015l-.00025-.00086a.45026.45026,0,0,0-.48486-.20935A.85346.85346,0,0,0,6.175,3.88841a.29045.29045,0,0,0-.06555-.01c-.25537-.59363-.48731-.61078-1.47205-.6178a1.05333,1.05333,0,0,1-.21814-.022.46774.46774,0,0,0-.17773-.121.48556.48556,0,0,0-.064-.01025.83314.83314,0,0,1-.18469-.26849,4.09167,4.09167,0,0,0-.73059-1.12476c-.13867-.14453-.48877-.30255-.57373.06775a.93444.93444,0,0,0-.36328-.734A.4935.4935,0,0,0,1.98873.95658.81168.81168,0,0,0,1.71639.49632.46181.46181,0,0,0,1.193.42875c-.00586.00256-.02564.0155-.04639.0293C1.09017.38816,1.03951.31352.98141.24516A.82307.82307,0,0,0,.30135.01078C.01986.07768-.00809.39219.00155.68791.024,1.37138-.00919,2.0568.01815,2.74a2.22076,2.22076,0,0,0,.20557.73236c.03564.086.18188.12622.27771.18732.03174-.112.12439-.25428.08593-.33118A4.08482,4.08482,0,0,1,.446,1.311a.72054.72054,0,0,0,.28808.15912.66976.66976,0,0,0,.51575-.08288,3.1316,3.1316,0,0,0,.15063.47522.38364.38364,0,0,0,.26075.18182c.10522.18555.21753.36719.31823.55511.0149.04529.01844.09211.038.13868a.55738.55738,0,0,0,.10278.15783c.1106.26459.18579.54755.30652.80841a1.61814,1.61814,0,0,0,.33728.366c.06592-.12872.333-.16461.25488-.36584a.50358.50358,0,0,0,.13428.01989,1.09311,1.09311,0,0,0,.2627.68207.44282.44282,0,0,0,.47876.06494l.0166.07233a.89621.89621,0,0,0,.12353.356,1.11821,1.11821,0,0,0,.32361.19714l.01135-.01874c.022.01764.03284.03962.05786.05646a.43893.43893,0,0,0,.50464-.05395,2.03438,2.03438,0,0,0,.01612.33471,3.26333,3.26333,0,0,0,.28711.69916c.05346-.11346.11511-.22473.17138-.33752a.44949.44949,0,0,0,.6.15258,2.73387,2.73387,0,0,0,.15271.54743.48109.48109,0,0,0,.597.286,2.38,2.38,0,0,0,.23914.5932A.35214.35214,0,0,0,7.3326,7.698l.0044-.00446a.42328.42328,0,0,0,.28442-.0003,1.87375,1.87375,0,0,0,.16284.34411.427.427,0,0,0,.19837.16577c.02026.05884.05139.10675.07519.16217-.00818.16541-.02746.33051-.0288.49592-.00086.09942.1488.24316.25939.28356.0553.02021.18482-.07348.24317-.159a.55186.55186,0,0,0,.26111.0791c.15588.36816.37646.60394.67981.58356-.00208.02392-.00244.04773-.005.07165-.00964.09168.147.25971.25684.2926.13354.04.22082.0185.27722-.05212a.43071.43071,0,0,0,.48657-.15643l.01392.01416c-.0586.12372.165.38922.25805.589l.01184-.01276a1.52368,1.52368,0,0,0,.48963.62738.40074.40074,0,0,0,.55505-.122,2.41664,2.41664,0,0,1-.28967.699c-.07117.11511.135.40191.21265.60919.12768-.13672.30664-.25226.37353-.41406.11524-.27863.21973-.56171.322-.84565l.00745.012c.01269.02258.02356.04608.037.0683a.411.411,0,0,0,.23852.19061,2.33922,2.33922,0,0,0,.30786.50421c.03052.0376.0857.04443.13172.06476.00036.00726-.00012.01459.00036.02185a3.05863,3.05863,0,0,0,.20777.93719c.09936.249.29492.2566.39673-.02783.20263-.56616.4237-1.1289.57824-1.70807.01453-.01153.03113-.01928.04517-.03155-.003.03143-.00549.0628-.00647.09393a.43142.43142,0,0,0,.52344.40552.45843.45843,0,0,0,.10559.11517l.00073.04645c.00537.13684.16907.2674.25989.40088a1.33761,1.33761,0,0,0,.21032-.35315c.00281-.01208.00367-.0246.00623-.03674a1.53921,1.53921,0,0,0,.60461-.35663c.04725.05707.10669.11041.1576.16632.062-.09479.18152-.19226.17724-.28394-.00341-.07183-.00976-.14355-.01367-.21539a3.66638,3.66638,0,0,0,.45142-.49152.25.25,0,0,0,.16357.15766c.072.00647.21033-.06934.22046-.12671.04443-.25342.08582-.5072.12207-.76166A1.52209,1.52209,0,0,0,17.69173,8.615a.33673.33673,0,0,0-.01367-.03626c.0083-.01391.01612-.02868.02368-.04394l.03052-.04285a2.392,2.392,0,0,0,.33057,1.02338,1.80478,1.80478,0,0,0,.37.55414l.00806.01c.00891.009.01367.01941.02283.02826a2.89718,2.89718,0,0,1,.25854.32745c.05493-.05988.1239-.11707.18787-.17517a.9138.9138,0,0,0,.28186-.09174c.01489.00977.029.02039.04443.02924a1.14886,1.14886,0,0,0,.47534.5036c.02149.09442.03748.19037.06324.28351.03271.11737.25293.18261.3872.27179a3.14388,3.14388,0,0,0,.168-.40168c.00318-.01184.00379-.02709.00684-.0401.01709-.00177.03222.00306.04968.00049a.90589.90589,0,0,0,.17334.04352.84332.84332,0,0,0,.35.33453c.00293.0091.00781.01709.011.02613.00928.03259.01734.06531.02686.09784.0896.30761.11926.63366.221.93628.032.09527.20935.14166.32019.21038.068-.121.20349-.24975.19067-.36138a1.70623,1.70623,0,0,0-.04089-.18085.86416.86416,0,0,0,.59375-.13843c.0581.18079.11779.36115.16821.54388.05884.21314.27637.38245.42078.572a5.2157,5.2157,0,0,0,.118-.62861.915.915,0,0,0,1-.34643.67082.67082,0,0,0,.1084.37439c.01147.04632.01977.092.0343.13867.14819.09137.28479.19342.3352.16107a.518.518,0,0,0,.05921-.05438c.27368-.02594.49243-.35663.65283-.6991a.42965.42965,0,0,0,.34289-.01172c.06324.05158.13.10144.18738.15589.073-.20929.23523-.43439.20142-.6247l-.00037-.00116a6.27888,6.27888,0,0,0,.14636-.61548.401.401,0,0,0,.376-.19958c.02466-.04053.04846-.08221.07275-.12329a.438.438,0,0,0,.57667.01868.351.351,0,0,0,.33764-.15778c.16089-.18866.25733-.33.027-.42944.04077-.1294.07507-.25995.10559-.37812l.0083-.03253a2.67751,2.67751,0,0,0,.18628-.35168c.01416.05645.02148.11548.04028.1701.04468.12946.21265.21637.32447.3227a3.49044,3.49044,0,0,0,.07324-.37916q.02765-.33415.05383-.66839A.46417.46417,0,0,0,28.608,8.4448a1.372,1.372,0,0,0,.35621-.593l.00219.00647c.04407.11663.182.19769.277.2951.11035-.10968.26929-.20142.31824-.3338a2.05132,2.05132,0,0,0,.01489-.50769l.00122-.01251a.34038.34038,0,0,0,.15234-.2298c.02295-.12885.0459-.26294.06958-.40057a.42164.42164,0,0,0,.22486-.19886,4.63091,4.63091,0,0,0,.21582-.43994.5624.5624,0,0,0,.15356.20392,2.84181,2.84181,0,0,1,.27246.29993,1.029,1.029,0,0,0,.13379-.33039c.00513-.23639.00171-.47308-.00036-.70977.0393-.08625.08044-.17151.11828-.25855a.39047.39047,0,0,0,.44971-.205c.03894-.0675.07043-.14306.106-.21411a.36241.36241,0,0,0,.38134.058c.06434-.01862.11011-.13349.1438-.24768a.3918.3918,0,0,0,.1814-.125c.02405-.02918.04614-.05964.0686-.08979l.00049.00031.00073-.00189a4.58611,4.58611,0,0,0,.50281-.943.41716.41716,0,0,0,.15723.02191c.0885.05384.17541.10993.26367.16431a3.74349,3.74349,0,0,0,.2915-.69739,1.08425,1.08425,0,0,0,.01526-.19549c.04492-.0896.09009-.16834.1294-.26172a.68727.68727,0,0,0,.18115-.01563,1.649,1.649,0,0,1,.17578.10675c.31128.215.54883.0058.61731-.34887.01892-.09784.03308-.1966.04822-.29511l.01245-.00226a1.02453,1.02453,0,0,0,.39551-.464c.094.31507.42285.36438.6427.52173.08789.06293.30285-.05157.45984-.08514C36.05611,1.813,35.96713,1.71153,35.883,1.60612Zm-20.3728,4.928a.60057.60057,0,0,1,.07409.17389,1.40953,1.40953,0,0,0-.17639.084.65014.65014,0,0,0-.15149-.10974.68626.68626,0,0,1,.05847-.14453C15.33028,6.5095,15.443,6.5341,15.51022,6.5341Zm-2.47913.96106.00562.00781-.00452.00159ZM3.20712,2.5128a.57663.57663,0,0,1,.197.14459.44244.44244,0,0,0-.14551-.00488C3.24032,2.60471,3.224,2.55869,3.20712,2.5128ZM9.17269,6.32957a.32594.32594,0,0,0-.07422-.10474.4596.4596,0,0,1,.16223-.09405c.0448-.01392.15882.04022.163.07342.00659.05255.01806.10651.02624.15949A.48877.48877,0,0,0,9.17269,6.32957ZM20.38,6.68607a.56722.56722,0,0,1,.04663.21424.351.351,0,0,0-.199-.01135,1.36256,1.36256,0,0,0-.292.14648c.09973-.165.20654-.32733.30567-.49255C20.28866,6.59013,20.3558,6.62907,20.38,6.68607Z" style="fill:#fff"/><path id="fill2" d="M34.48718.78044a.38052.38052,0,0,0-.27731-.0233L34.207.75347A.447.447,0,0,0,33.66693.6838a2.0961,2.0961,0,0,0-.56506.69266.49584.49584,0,0,0-.132.08308,2.659,2.659,0,0,0-.29647.31632.44639.44639,0,0,0-.52976.064,2.83669,2.83669,0,0,0-.50825.60734.70192.70192,0,0,0-.49359.35729.4493.4493,0,0,0-.15507.00782.81244.81244,0,0,0-.46959.36877.48311.48311,0,0,0-.59775.15119,4.32254,4.32254,0,0,0-.32109.63244.46823.46823,0,0,0-.13627.11254.35883.35883,0,0,0-.46662.08411c-.014.01636-.02548.03554-.0389.05255a.36179.36179,0,0,0-.44655.1993c-.02866.06109-.056.12347-.0841.18506a.4087.4087,0,0,0-.6533.20515c-.0423.11493-.08147.231-.11933.3476a.44835.44835,0,0,0-.42274.19157,5.21647,5.21647,0,0,0-.58088,1.07966.45534.45534,0,0,0-.31884-.05216l-.00522.00167a.37842.37842,0,0,0-.21356.00065.9542.9542,0,0,0-.46192.30948l-.01017.001a.803.803,0,0,0-.47766.32155l-.00824.00017a.37154.37154,0,0,0-.17295-.10017.72243.72243,0,0,0-.85209.26887.76771.76771,0,0,0-.11087.02631.86775.86775,0,0,0-.13482-.26779.42433.42433,0,0,0-.5669-.14864,1.95777,1.95777,0,0,0-.57814.55269.83777.83777,0,0,0-.174-.04964c-.01289-.00226-.02575-.00285-.03861-.00432a.70656.70656,0,0,0-.74371-.26275c-.013.00164-.02565.00458-.03851.00681a1.012,1.012,0,0,0-.85337.16078.55786.55786,0,0,0-.23945-.13045.38137.38137,0,0,0-.423-.16732,1.3798,1.3798,0,0,0-.34559.17338.67664.67664,0,0,0-.46479-.6528.51065.51065,0,0,0-.48575.13754.58845.58845,0,0,0-.45059-.24435.89978.89978,0,0,0-.04415-.44388c-.18295-.42235-.64335-.38845-.97329-.18159a1.66341,1.66341,0,0,0-.227.17622,1.87712,1.87712,0,0,0-.64973.61752.37281.37281,0,0,0-.37287.08489c-.01978.02045-.04331.046-.06894.07468a.47458.47458,0,0,0-.31406-.04006,1.16616,1.16616,0,0,0-.42293.20152.58938.58938,0,0,0-.29826-.216.855.855,0,0,0-.88391.22924.42522.42522,0,0,0-.25645-.01774,1.08693,1.08693,0,0,0-.67515.62531.41286.41286,0,0,0-.262.0917,1.29686,1.29686,0,0,0-.3675-.95564.42789.42789,0,0,0-.703.18562.5664.5664,0,0,0-.02481.07487.37945.37945,0,0,0-.3441.40769c.00013.03129.00245.06254.00294.09382a.38778.38778,0,0,0-.26615.26619.43345.43345,0,0,0-.46466-.16068c-.03035-.11768-.061-.23526-.093-.35242a.40714.40714,0,0,0-.41044-.31016.396.396,0,0,0-.6559-.00975c-.00849-.03692-.016-.074-.025-.11084a.42243.42243,0,0,0-.508-.30366.42914.42914,0,0,0-.63931-.16094c-.01761-.10017-.03567-.20034-.05577-.30028a.44019.44019,0,0,0-.38739-.32169,1.93012,1.93012,0,0,0-.07972-.22462.39813.39813,0,0,0-.04128-.07294l-.00048-.02756a.42809.42809,0,0,0-.7225-.31808,2.31263,2.31263,0,0,0-.15357-.38855.45014.45014,0,0,0-.48487-.2093A.85309.85309,0,0,0,6.175,3.88845a.44045.44045,0,0,0-.51168.22276c-.011-.02046-.02052-.04179-.0325-.06172a.45569.45569,0,0,0-.45062-.21314.434.434,0,0,0-.49261-.03367c-.01608-.05986-.02968-.10777-.03891-.13054-.09124-.22489-.15741-.46168-.4071-.55453a.38814.38814,0,0,0-.42637.03689A.9411.9411,0,0,0,3.659,2.771a.42565.42565,0,0,0-.40032-.11846c-.09939-.25833-.14091-.49618-.50095-.63928a.28464.28464,0,0,0-.03931-.01116c-.04995-.36-.068-.74914-.39309-.95423A.49344.49344,0,0,0,1.98874.9566.81137.81137,0,0,0,1.7164.49632.46192.46192,0,0,0,1.19287.42878C1.165.44128.8975.62428.99081.614q.053.12488-.037-.01466A.52586.52586,0,0,1,.84491.42279C.59618-.07231-.14664.36307.10163.85728a1.07494,1.07494,0,0,0,.63244.61287.67006.67006,0,0,0,.51584-.08286,3.119,3.119,0,0,0,.1505.47516.42252.42252,0,0,0,.45874.2c.00892.05986.01656.11991.02256.18022a2.13978,2.13978,0,0,0,.1357.49545.47735.47735,0,0,0,.51685.31109,3.61446,3.61446,0,0,0,.28672.549.40875.40875,0,0,0,.33221.12622,1.09351,1.09351,0,0,0,.26266.682.45066.45066,0,0,0,.57261.0377c.01806.06293.03428.116.04552.14641a1.00167,1.00167,0,0,0,.3936.544.4434.4434,0,0,0,.53554-.06909c.01248-.01466.02227-.02981.0331-.04476a.46745.46745,0,0,0,.08721.004,2.58386,2.58386,0,0,0,.31966.74855.45062.45062,0,0,0,.60371.15629,2.741,2.741,0,0,0,.15264.54743.48122.48122,0,0,0,.5971.286,2.217,2.217,0,0,0,.31761.7381.48144.48144,0,0,0,.54729.19226,1.86372,1.86372,0,0,0,.16284.34411.4267.4267,0,0,0,.19838.16575,1.55941,1.55941,0,0,0,.48125.74609.55564.55564,0,0,0,.32879.11568c.1757.41482.42686.68186.79419.57835.01215-.0034.02317-.00867.03476-.013a.93987.93987,0,0,0,.296.29973.42754.42754,0,0,0,.57045-.12579c.02906.03331.06149.06466.09422.09585a2.0055,2.0055,0,0,0,.67929,1.12191.41039.41039,0,0,0,.57973-.149c.01409-.00517.02864-.00946.04209-.01574a.53106.53106,0,0,0,.24265-.23241c.01043.00019.02078.00068.03119.00019.0109.02579.02155.05181.03374.07668a.35391.35391,0,0,0,.20739.187.33414.33414,0,0,0,.04416.07183c.01273.02261.0236.04611.0371.06833a.41091.41091,0,0,0,.23843.19059,2.33948,2.33948,0,0,0,.30793.50422.42523.42523,0,0,0,.514.06633,1.1096,1.1096,0,0,0,.44008-.60164A.84133.84133,0,0,0,14.386,10.98c-.00307.03142-.00559.06277-.00648.09392a.43146.43146,0,0,0,.52344.40553.39336.39336,0,0,0,.36956.22168,1.63094,1.63094,0,0,0,1.04448-.64036A4.79056,4.79056,0,0,0,17.204,9.99314,1.89184,1.89184,0,0,0,17.6917,8.615a.32626.32626,0,0,0-.01368-.03629c.00829-.01388.0161-.02864.02366-.04395l.0305-.04281a1.87044,1.87044,0,0,0,.52667,1.2355l.00188.00648c.19279.58872.5657.61814.9313.43432.0148.00979.029.02042.0444.02926a1.07652,1.07652,0,0,0,1.15027.61761.9064.9064,0,0,0,.17335.04353.84334.84334,0,0,0,.34989.33454,1.02023,1.02023,0,0,0,.6609.72038.9353.9353,0,0,0,.809-.22675c.019.00454.038.009.057.01207.01531.02448.03176.04843.049.072a.90133.90133,0,0,0,.26422.40487c.39831.347.887.09215,1.18951-.25182a.59754.59754,0,0,0,.1885.49241c.44244.37081.77779-.09428,1.00144-.57173a.44924.44924,0,0,0,.476-.06925c.28544-.22394.32512-.69053.40156-1.02792a.401.401,0,0,0,.376-.19962c.02474-.04048.04853-.08221.07281-.12328a.44772.44772,0,0,0,.60636.00187,1.72577,1.72577,0,0,0,.44051-.9485l.00841-.03253a4.2867,4.2867,0,0,0,.44935-1.00118c.00975-.00458.02007-.00835.02948-.01339a.452.452,0,0,0,.618.014A2.13248,2.13248,0,0,0,29.11555,7.319a.40145.40145,0,0,0,.61456-.24937c.02286-.12887.04577-.26294.06946-.40058a.42223.42223,0,0,0,.225-.19887,4.93237,4.93237,0,0,0,.26029-.5308.37641.37641,0,0,0,.40657-.20882c.08016-.16251.15414-.32842.22664-.49516a.39057.39057,0,0,0,.44972-.205,5.12746,5.12746,0,0,0,.247-.49908.36417.36417,0,0,0,.56534-.02972c.02413-.02919.04619-.05966.06874-.0898l.00039.0003.00078-.00187a4.58214,4.58214,0,0,0,.50279-.943.36745.36745,0,0,0,.47957-.20263l.0565-.11715c.09611-.19177.22326-.41708.32106-.64861.40693.03453.585-.21075.75-.50344a.50905.50905,0,0,0,.28489-.05167c.24273-.11791.32893-.38282.47532-.5932C35.40733.93794,34.8444.54652,34.48718.78044ZM8.44869,6.22134c-.05138-.16048.14134-.15934,0,0Z" style="fill:#754420"/><path id="fill1" d="M14.535,7.612c.19646.33332.33093.62162.4919.89423a1.51079,1.51079,0,0,0,.28509.27931c.03188-.15785.13751-.35006.08276-.46756a9.40178,9.40178,0,0,0-.77233-1.42264c-.36162-.518-.33815-.64109.28279-.77718.15047-.033.29346-.19848.42768-.18464.21248.02188.52915.08727.601.23311a17.13086,17.13086,0,0,1,.69746,1.76172.27.27,0,0,1-.11093.23885c-.52876.13118-.25261.49924-.2364.78025.04293.7437.10634,1.4863.14121,2.2303.00428.09168-.11517.18915-.17725.284-.07479-.08211-.18662-.15316-.21517-.249-.03744-.12569.03158-.2893-.01962-.40312a1.65193,1.65193,0,0,0-.30876-.36324c-.0305.12421-.06927.24707-.0898.37292-.04727.2896-.06962.5844-.13506.86952a1.33708,1.33708,0,0,1-.21035.35314c-.09074-.13346-.25452-.264-.25992-.40089-.02693-.68317-.01229-1.368-.01229-2.05218a2.08386,2.08386,0,0,0-.00343-.30737,1.68288,1.68288,0,0,0-.08674-.27109c-.09676.08845-.25989.16444-.27919.2674-.10216.54463-.12337,1.10735-.25836,1.64217-.15447.612-.39321,1.20334-.60667,1.79962-.10183.28442-.29733.27677-.39665.02787a3.059,3.059,0,0,1-.20783-.93722c-.03254-.54545.004-1.09478-.01918-1.64119-.00507-.1194-.13905-.23339-.21368-.34986a1.58324,1.58324,0,0,0-.18347.28515c-.2123.56232-.399,1.13486-.62858,1.68976-.067.16184-.24588.27735-.37349.4141-.07771-.2073-.28389-.4941-.21265-.60919a5.04626,5.04626,0,0,0,.38958-2.71633,1.03469,1.03469,0,0,0-.00785-.40693c-.10506-.24712-.261-.67553-.38877-.67292-.42474.00862-.1711.40264-.21132.62771-.092.51482-.12348,1.04085-.2253,1.55324-.0311.15645-.21134.28319-.32328.42355-.09338-.20081-.31979-.46843-.258-.59129a5.189,5.189,0,0,0,.176-2.082,1.56156,1.56156,0,0,0-.09532-.57353c-.026-.08406-.13723-.14176-.20979-.21143a1.12828,1.12828,0,0,0-.095.2675c-.07411.82641-.15794,1.65267-.19881,2.48094-.01387.28106-.11622.38665-.35481.31522-.10983-.03289-.26638-.20094-.25685-.29262a10.50154,10.50154,0,0,1,.1362-1.46921,6.10412,6.10412,0,0,0-.17993-2.04669c-.00413-.03326-.11821-.08737-.163-.07346-.08.02484-.20109.08645-.20951.14617-.08256.58548-.12831,1.1764-.22073,1.76007a4.5607,4.5607,0,0,1-.26741.914c-.03565.09249-.21154.21685-.27471.19377-.11054-.04041-.26014-.18414-.25935-.28354.004-.50009.04521-1.00033.08712-1.49936.01326-.15795.09335-.31172.09733-.46856a1.22427,1.22427,0,0,0-.10325-.35926c-.0998.09131-.202.18013-.29839.275a.59366.59366,0,0,0-.12026.15494c-.12506.25582-.27715.74593-.359.734-.44406-.06436-.33331-.47111-.344-.78907-.001-.031-.00807-.08278-.02542-.0891-.98274-.359-.78595-1.29642-1.01083-2.0304-.03541-.11556-.18493-.19614-.28169-.29291a1.43405,1.43405,0,0,0-.11307.33073,3.84526,3.84526,0,0,1-.01556.6126,4.15323,4.15323,0,0,1-.30659.67463,3.26737,3.26737,0,0,1-.287-.69919A8.36935,8.36935,0,0,1,4.9295,4.494c-.004-.07516-.09318-.14572-.14318-.2184-.08688.07-.2035.12416-.25173.21477-.04259.07995.01269.20674-.0146.30151a1.5887,1.5887,0,0,1-.16164.305,1.12106,1.12106,0,0,1-.32369-.19714.89821.89821,0,0,1-.12348-.356c-.1401-.59255-.26081-1.19026-.4237-1.77636a.53838.53838,0,0,0-.33711-.28547c-.05532-.017-.24073.17083-.25443.27968-.03354.26642-.11072.63786.02645.7927.30506.34442-.07852.36008-.15844.51605a1.61866,1.61866,0,0,1-.33723-.36592c-.14563-.31472-.21131-.66861-.372-.97366C1.7133,2.08262,1.33739,1.4523.96119.82336.90787.73421.74325.621.68354.646.57439.69185.42221.842.43229.93261c.08859.79523-.23364,1.61723.15506,2.39585.0384.07692-.05416.21923-.08594.33119-.0958-.06111-.24206-.10128-.27769-.18728A2.222,2.222,0,0,1,.01809,2.74C-.00914,2.05683.02393,1.37142.00158.68792-.00808.39222.01985.0777.3013.01079A.82319.82319,0,0,1,.98142.2452c.46244.5442.86142,1.14229,1.28643,1.71844.06608.0896.14093.17269.21172.25878.06608-.09081.18775-.18073.18921-.27256.00918-.58258.43693-.39891.59357-.23575a4.09337,4.09337,0,0,1,.73053,1.12474.60047.60047,0,0,0,.64452.42176c1.28748.0092,1.28736.02687,1.73615,1.34174.112.32818.1038.31853.41524.05311a.55.55,0,0,1,.39472-.15462c.09423.02276.17993.21372.20809.34345a3.9065,3.9065,0,0,1,.01361.51089c.004.05067.06847.09659.10524.14469.03167-.05532.06375-.11041.09493-.166q.098-.1747.19529-.34979c.14025.14129.38927.27638.39775.42518a.79778.79778,0,0,0,.31542.69864c.03047-.24329.17265-.56473.06839-.71381-.225-.32181-.05413-.36216.16123-.28562a6.92268,6.92268,0,0,1,1.73449.74812,2.47879,2.47879,0,0,0,1.55683.48241c.38879-.00195.77922.14359,1.16688.13469.7743-.01777.86556.71526,1.33329,1.1383m-.56462.25665-.19028-.015a.41785.41785,0,0,1,.19028.22036l.19028.015a.41793.41793,0,0,1-.19028-.22036m-.41065,2.05318.0561.26141.13419-.04105a1.69929,1.69929,0,0,1-.19028-.42568A10.87308,10.87308,0,0,0,13.327,8.07306a4.129,4.129,0,0,0-.63631-1.06043c-.03724-.05513-.17689-.041-.2692-.05892a1.262,1.262,0,0,0,.03108.21627c.16446.51069.30676,1.03088.50943,1.5262.15978.39049.39564.74985.5977,1.22567M15.51023,6.5341c-.06735,0-.17994-.02459-.19533.00366-.24407.44881.122.68987.35613.96579.04381.05163.17617.02814.26765.03932-.10859-.23469-.22213-.46728-.32223-.70555A.85193.85193,0,0,0,15.51023,6.5341Zm8.572,5.9029a5.85557,5.85557,0,0,0-.2859-1.08053,3.43211,3.43211,0,0,1-.39412-1.79515c-.001-.17058-.15722-.34026-.24221-.51037-.05188.14845-.09715.29966-.1568.44493a4.37578,4.37578,0,0,0-.071,2.62893,2.35025,2.35025,0,0,1-.11078.77416c-.14436-.18951-.362-.35883-.42076-.572a15.56363,15.56363,0,0,1-.84107-3.2488c-.00549-.09822-.11622-.19055-.17808-.28562-.075.1161-.22527.241-.21293.34688.08293.71149.192,1.42036.31073,2.127.04742.28213.16772.55339.20031.83591.01288.11165-.12271.24043-.19071.36141-.11083-.06875-.28818-.11514-.32016-.21038-.10168-.30264-.13131-.62871-.22106-.93632a8.10355,8.10355,0,0,1-.41873-2.603c.00429-.10752-.149-.2213-.22925-.33218-.05665.10027-.17374.2097-.16016.29938.09382.61976-.24251,1.28273.189,1.87167a.41518.41518,0,0,1,.0016.30171,3.14549,3.14549,0,0,1-.168.40169c-.13414-.0892-.35447-.15444-.38705-.27184a11.69335,11.69335,0,0,1-.25695-1.33171c-.026-.167.02749-.34918-.01158-.51081a6.61371,6.61371,0,0,0-.25487-.71438,5.00693,5.00693,0,0,0-.14221.66881,8.212,8.212,0,0,1-.02311.92c-.03127.15745-.23707.28023-.36409.41866a2.91282,2.91282,0,0,0-.25848-.32743,2.07939,2.07939,0,0,1-.58755-1.70605q.07462-1.44738.212-2.891c.01306-.139.181-.26346.27733-.39467.109.11321.27524.20905.31582.343a7.61159,7.61159,0,0,1,.21334,1.04123c.04872.31369.26532.34379.38918.14068.45392-.74443,1.10744-.2282,1.66219-.29946.0586-.00751.2081.16853.19845.24462-.04015.3174-.147.62666-.18331.94414a1.25775,1.25775,0,0,0,.121.44116,2.3031,2.3031,0,0,0,.27542-.29657c.08612-.13109.12747-.29147.21251-.4235.14264-.22146-.31143-.68257.26562-.68007a3.10735,3.10735,0,0,1,.139.80541c.07722.75777.1321,1.51786.21577,2.27482a1.19949,1.19949,0,0,0,.19368.37309c.06986-.12128.20773-.24795.19863-.363a6.08561,6.08561,0,0,1,.42452-2.3961,1.45079,1.45079,0,0,1,.21357-.422.30122.30122,0,0,1,.257-.09153c.06148.01513.117.135.1369.21767a2.444,2.444,0,0,1,.00734.30642c.02393.22785.05757.45463.08727.68185.31211-.16822.33775-.44938.32888-.76378a.65049.65049,0,0,1,.1185-.45272.92.92,0,0,1,.52525-.18654c.04657-.00364.15116.244.16238.38161.025.30592-.01649.61826.02081.92163.01323.10767.17627.19695.27091.29462.04223-.10334.08606-.206.12644-.31009.20592-.53064.38339-1.07513.63315-1.58419a.62545.62545,0,0,1,.52868-.2772c.24186.05581.12427.27406.0989.5a6.39833,6.39833,0,0,0,.58648,3.02694c.04193.10815.0887.28126.163.29893.4152.09867.28527.2582.09735.47848-.23637.2771-.47284.16815-.55879-.06519-.27379-.74368-.49063-1.50841-.72588-2.26612-.03792-.12218-.05762-.25-.08577-.37522-.10872.11389-.29557.21687-.31326.34344a12.34417,12.34417,0,0,0-.195,2.06812,10.4361,10.4361,0,0,0,.36968,1.37354c.03384.19031-.12835.41543-.20136.6247-.13231-.12541-.31379-.22677-.38883-.38021a5.85674,5.85674,0,0,1-.62941-2.82064c.0129-.3571.11679-.761-.28816-1.00742a6.33464,6.33464,0,0,0-.312,1.0705,7.37308,7.37308,0,0,0,.54608,3.054c.09271.294.09176.52518-.17.69315-.05041.03233-.187-.0697-.33517-.16108M18.282,8.27931a2.99524,2.99524,0,0,0,.002.30274c.013.12662.04083.25173.06226.3775.11544-.09492.31838-.17991.33046-.2865a6.592,6.592,0,0,0,.0099-1.10867,3.62939,3.62939,0,0,0-.12852-.58779,3.982,3.982,0,0,0-.26755.59488,3.45749,3.45749,0,0,0-.00858.70784m1.64255-.41064a1.79894,1.79894,0,0,1,.21464-.40993c.20577-.2269.3774-.45007.24068-.77263-.02418-.057-.09128-.09594-.13854-.14321a6.05867,6.05867,0,0,0-.50608.87548A.42467.42467,0,0,0,19.92457,7.86867Zm12.4602-4.77713c.08241.05857.14.15251.22324.20933.18334.12519.3766.23594.5658.35256a3.74,3.74,0,0,0,.29146-.69736c.06194-.30221-.12584-.79937.50154-.36612.31142.215.54889.00581.61736-.34886.0492-.25494.0783-.51372.12565-.76909a1.83376,1.83376,0,0,1,.09278-.26863c.07251.06747.19807.1276.2086.20364.05464.39492.43357.42389.67187.59448.0879.0629.30279-.05158.45976-.08519-.08674-.10327-.17577-.20475-.25983-.31019-.19915-.24978-.40256-.49663-.59142-.75408A3.83286,3.83286,0,0,0,34.917.29666a.53122.53122,0,0,0-.4476-.10687c-.08983.02907-.15675.2484-.165.3868-.0222.37462.00376.752-.01481,1.127-.00526.10672-.09755.20911-.14993.31347-.08449-.07226-.16755-.14629-.25376-.21642-.16527-.13437-.33237-.26647-.49869-.39953a3.38652,3.38652,0,0,0-.30635.68184c-.02749.12492.13981.28164.16229.43249.01489.09985-.07108.21474-.11191.32289a1.885,1.885,0,0,1-.2682-.20188.821.821,0,0,1-.142-.24695c-.08544-.20216-.13767-.51-.43618-.35617a1.18726,1.18726,0,0,0-.43928.54685c-.06634.1393.00594.33891-.02205.50508a.25509.25509,0,0,1-.19617.15183c-.06838,0-.15733-.08374-.20074-.15349-.08844-.14211-.12053-.39489-.23248-.43224-.30349-.1012-.48924.09993-.59541.38222a2.01364,2.01364,0,0,1-.2094.42412.268.268,0,0,1-.216.077c-.5047-.0589-.74611.09554-.79676.59477-.03777.37212.03441.75741-.02083,1.12507a4.181,4.181,0,0,1-.31642.84711c-.02695-.26226-.06018-.524-.0786-.78691a2.87449,2.87449,0,0,0-.01258-.50981c-.03166-.12078-.14685-.29069-.24392-.30447a.42479.42479,0,0,0-.34946.19461,2.93415,2.93415,0,0,0-.21356.7301c-.08268.4475-.13832.89992-.21244,1.3491a.5591.5591,0,0,1-.09433.16524c-.07249-.069-.19893-.1316-.20808-.2082a6.042,6.042,0,0,1-.04847-.96408c.00777-.18527.12248-.365.1384-.55147.00885-.10348-.0865-.21584-.13489-.32421-.11256.05829-.26595.08927-.32775.18153a.891.891,0,0,0-.13735.451A6.06123,6.06123,0,0,0,27.47317,8.245c.141.31557.15023.68786.26447,1.01875.04469.12947.21261.21639.32442.32271a3.441,3.441,0,0,0,.07321-.37913c.07226-.8716.13649-1.74385.211-2.61528a1.01024,1.01024,0,0,1,.1005-.26183c.03374.08857.07108.17594.10061.26589.13824.42134.26223.84794.419,1.26221.04413.11662.18211.1977.277.2951.11038-.1097.26933-.20141.31833-.33382a2.0568,2.0568,0,0,0,.01491-.50771q.09549-1.1372.20693-2.273a1.67569,1.67569,0,0,1,.1098-.34189,1.4519,1.4519,0,0,1,.28805.39226c.10978.37117-.1795.81642.21259,1.14487a2.86793,2.86793,0,0,1,.27248.29993,1.03032,1.03032,0,0,0,.13372-.33038c.01316-.6149-.02131-1.23214.02017-1.84448a2.35371,2.35371,0,0,1,.28988-.69538c.03564.18749.05773.379.11169.56106.03531.119.169.2248.16822.33585-.00258.36322.23743.37961.465.31352.09-.02617.14484-.24054.17923-.37831.094-.37637-.18733-.82137.20933-1.247C32.292,3.12622,32.36214,3.07545,32.38477,3.09154ZM16.88,5.8805c-.11672-.11978-.403-.07436-.612-.10421a1.47933,1.47933,0,0,0,.14374.41813,2.19019,2.19019,0,0,1,.38562,1.957c-.13985.43284.07033.72.05226,1.074-.02088.40843-.01271.81907.00321,1.22795a.25215.25215,0,0,0,.17351.17519c.072.00647.21041-.06935.22046-.12674a7.8744,7.8744,0,0,0,.05992-3.40309A1.56881,1.56881,0,0,0,16.88,5.8805Z"/></g></g></svg>