<svg xmlns="http://www.w3.org/2000/svg" width="31.79391" height="34.89798" viewBox="0 0 31.79391 34.89798"><title>facial-hair-4</title><g id="Layer_2" data-name="Layer 2"><g id="facial-hair-4"><path id="void" d="M1.90393,4.05509c.14368.29773.10193.83886.61108.86041a.37015.37015,0,0,0,.29261-.09967,2.38006,2.38006,0,0,0,.207.1839c.16113.1239.33484.00378.40674-.14661a2.44908,2.44908,0,0,0,.36462.2785.28432.28432,0,0,0,.18274.03211c.13831.26959.28125.53656.43457.79712a5.65015,5.65015,0,0,0,.64417.76184c.11682-.22711.23449-.45392.34692-.68317a.25208.25208,0,0,0,.075.009c.00037.08509.00244.15229.00623.1792a.32039.32039,0,0,0,.46228.20642.32879.32879,0,0,0,.39953.14063.36226.36226,0,0,0,.406.18256,1.13774,1.13774,0,0,0,.39892-.21418c.00245.0113.00977.02057.01294.03162a1.96185,1.96185,0,0,1,0,.2486,1.72081,1.72081,0,0,0,.00879.61224,2.72069,2.72069,0,0,0,.32056.57A4.26489,4.26489,0,0,0,7.939,7.61753a.52506.52506,0,0,0,.29029.09027.58815.58815,0,0,0,.40185-.13343.63213.63213,0,0,0,.2815.29737c.01928.13965.04443.27856.0603.41858.02637.23034.08606.34478.36182.34246.34008-.00286.24-.22.28857-.40393.027-.10235.06311-.20233.0918-.30426a.58421.58421,0,0,0,.40307-.1073,1.01876,1.01876,0,0,0,.12854.09211.37083.37083,0,0,0,.20252.04779c.00244.03344,0,.06732.00317.10064.01819.1894.20386.3628.31324.54346.03125-.05408.0675-.10675.10278-.15967a.52962.52962,0,0,0,.41626.14258.63815.63815,0,0,0,.38428-.16009.52439.52439,0,0,0,.22509.0924,2.70812,2.70812,0,0,1-.00561.42c-.00977.09008.16015.27221.259.28143a.28421.28421,0,0,0,.13233-.03442.52427.52427,0,0,0,.2893.07348.72256.72256,0,0,0,.095-.00836,1.34033,1.34033,0,0,0,.03418.23419c-.01465.35065.282.54517.51856.74542a1.04368,1.04368,0,0,0,.33642-.25219,1.33958,1.33958,0,0,0,.582-.4458l.00806.00274a.68394.68394,0,0,0,.54858-.07141c-.04858.26593-.10229.53107-.14135.79834-.02576.1759-.09839.42548.25366.42059.23852-.00335.28442-.07672.37622-.31823.06531-.17169.1106-.347.16406-.52075a.6136.6136,0,0,0,.11231.10711.56332.56332,0,0,0,.49585.06922.5812.5812,0,0,0,.33911.17.57131.57131,0,0,0,.3551-.05609,1.22587,1.22587,0,0,0,.18445.16272.30965.30965,0,0,0,.1543.052.51533.51533,0,0,0,.15222.05865c.02746.00611.073-.04986.12353-.12762A.45267.45267,0,0,0,17.3313,10.23a3.0604,3.0604,0,0,0,.38843-.44781.58874.58874,0,0,0,.30456-.04566,1.07646,1.07646,0,0,0,.02527.40332c.04443.13416.23071.22138.35376.32953a2.49889,2.49889,0,0,0,.2146-.26623.57714.57714,0,0,0,.08447.00512.83978.83978,0,0,0,.62134-.51245.47715.47715,0,0,0,.58765-.14343.75329.75329,0,0,0,.2539.718.44317.44317,0,0,0,.62183-.19092c.02014-.01623.0271-.04864.04419-.06909.02759.21118.05347.42255.08179.6336a.77226.77226,0,0,0,.12817.236c.09265-.06421.227-.1084.26953-.19678.09546-.19806.136-.42181.21558-.62866a2.95208,2.95208,0,0,0,.1604-.66516.5273.5273,0,0,0,.38183-.02637l.00293-.00159a.57689.57689,0,0,0,.23535.01789.82413.82413,0,0,0,.61219-.5376.50205.50205,0,0,0,.22717-.04907,1.1361,1.1361,0,0,0,.47363-.57062.4803.4803,0,0,0,.1521-.13355,3.23033,3.23033,0,0,0,.26538-.43121.5316.5316,0,0,0,.57691-.1861c.08642-.11676.167-.23986.24426-.36639a.48017.48017,0,0,0,.31433.1427.40971.40971,0,0,0,.63574-.12878,3.17268,3.17268,0,0,0,.194-.4057.41468.41468,0,0,0,.29993-.12,1.748,1.748,0,0,0,.1897-.23486.44682.44682,0,0,0,.43615-.08509c.01575.0304.02991.06171.046.092a2.82972,2.82972,0,0,0,.32287.40863c.10449-.1466.26355-.28045.30139-.44262a3.04575,3.04575,0,0,0,.06641-.49732c.07275-.11352.14221-.23657.20947-.36792a5.60021,5.60021,0,0,0,.29456-.48413.47068.47068,0,0,0,.29236-.06842c.38305.061.60937-.11566.65734-.54785l.02259-.0199a2.60522,2.60522,0,0,1,.26977-.26458.47739.47739,0,0,0,.06934-.05384,1.35646,1.35646,0,0,0,.14355-.02026,2.79216,2.79216,0,0,0,.48316-.12677c.42871.11511.59436-.04572.86206-.615.12158-.25873.14331-.26941.72192-.61231a.29379.29379,0,0,0,.09033-.25921.97307.97307,0,0,0-.20336-.42371c-.12818-.13556-.32166-.31946-.463-.30084-.13318.01758-.26916.256-.34289.42413a5.9008,5.9008,0,0,0-.20288.68585.37551.37551,0,0,0-.48377.08.67446.67446,0,0,1-.44092.22418,2.51125,2.51125,0,0,0-.32592-.31067c-.17225-.10894-.42322-.28369-.55384-.2279-.265.113-.343.31873-.10266.639.06067.08075.025.23364-.02844.40008-.03223.03015-.06873.05206-.10059.083a.45624.45624,0,0,0-.37463.01544,1.2376,1.2376,0,0,0-.20715.13678.39894.39894,0,0,0-.19275.01056.96033.96033,0,0,0-.50769.0152.35246.35246,0,0,0-.11853.08722.36376.36376,0,0,0-.34974.1513l-.02343.02979a.38189.38189,0,0,0-.259.126,4.50851,4.50851,0,0,0-.6582-.61847.57042.57042,0,0,0-.82519.39459c-.033.34259-.05347.68634-.0785,1.02966l-.014.02814-.01685-.01c-.16968-.307-.33984-.61359-.50659-.92218-.01416-.02643.01074-.09015-.00366-.09821-.21607-.12-.44922-.34753-.65149-.32348-.3573.04242-.42969.38269-.3689.708.04651.24946.152.48841.19226.73829a.57589.57589,0,0,1-.05371.26916c-.02173.02533-.04651.04694-.06726.07367-.09338-.07434-.18579-.15-.28137-.22144-.27893-.2088-.567-.47521-.93677-.33172-.3374.13086-.30518.47436-.29541.7771a.8209.8209,0,0,0-.15527.11865c-.13965-.21783-.24536-.43671-.40235-.486a1.62692,1.62692,0,0,0-.62365.05627.4719.4719,0,0,0-.29212-.04242,3.252,3.252,0,0,1-.6842-.66058.78152.78152,0,0,0-.14661-.14276c-.2511-.141-.37781-.0592-.36279.2262.01208.23193.032.46374.05676.69476q.0456.42242.09216.84466a5.18122,5.18122,0,0,0-.1698.60059c-.00549.0014-.0094.00647-.01489.00812a.43551.43551,0,0,1-.16528-.09253c-.03516-.03308.01221-.14313-.01868-.19306-.032-.05145-.06274-.10473-.09363-.15783l.00928-.02991a.396.396,0,0,0-.39673-.51221.72637.72637,0,0,0-.89148-.03235c-.13232.06556-.396-.16-.60754-.22113a2.04767,2.04767,0,0,0-.62659-.10571c-.22009.008-.45215.16718-.65332.12811-.62109-.12054-.8081.31916-1.02026.72394a1.14345,1.14345,0,0,0-.09278.297.35751.35751,0,0,0-.08544.06866,3.21907,3.21907,0,0,0-.196.30695.39049.39049,0,0,1-.051-.16791c.0614-.41748.1621-.83166.18823-1.25073.01184-.18866-.1178-.55225-.18482-.55261a2.84174,2.84174,0,0,0-1.22436.15832c-.21411.10413-.33521.39923-.47437.65747a.403.403,0,0,0-.08276.00153c-.0011-.014-.01306-.02155-.01587-.03467q-.02894-.406-.05737-.81219a.515.515,0,0,1,.00024-.1026c.0553-.433-.31714-.36274-.46338-.28614a1.35119,1.35119,0,0,0-.334.29486.331.331,0,0,0-.40479.16718c-.01269.02612-.03161.07074-.04992.11377a3.90052,3.90052,0,0,1-.72144-.15595c-.03906-.00659-.08777.11762-.14514.13312a.94349.94349,0,0,0-.71216.80011.40377.40377,0,0,0-.31628.17035c-.00806.01251-.01551.02789-.0232.042-.01037-.25958-.03723-.52111-.0332-.73339.00842-.43628-.56091-.44581-.70557-.09546-.00573.0141-.00854.02917-.014.04339a1.00623,1.00623,0,0,0-.1814.13672.41368.41368,0,0,0-.03418.05927.2925.2925,0,0,0-.32312.048l.00622-.02862a.54086.54086,0,0,0-.2229-.63141.34857.34857,0,0,0-.417.05224c-.11133-.12268-.24353-.22693-.2832-.20648-.01526.00794-.02759.00952-.04248.0163a.30164.30164,0,0,0-.28589.00079c.01221-.04669.02417-.09259.03467-.13495a.33945.33945,0,0,0-.5625-.32745,1.03689,1.03689,0,0,0-.10449.13879A1.49153,1.49153,0,0,0,6.001,4.51236a1.31986,1.31986,0,0,0-.8324-.33771c-.30408.05286-.29077.34931-.27942.62061A.32119.32119,0,0,0,4.83093,4.93c-.0039.03479-.0061.0697-.00927.10455-.233-.1366-.30408-.46942-.59913-.60755a.40056.40056,0,0,0-.05944-.01184c-.169-.28637-.34156-.56994-.53577-.83813-.18286-.25256-.3866-.56207-.812-.50372-.75269.10327-.72632.08044-1.01-.64258A12.29974,12.29974,0,0,0,.97974.72226a3.226,3.226,0,0,0-.709-.7121C.229-.02627.09277.04532,0,.067c.0271.114.02734.31061.08508.3291.62415.20074.75818.7113.92151,1.2627A15.92213,15.92213,0,0,0,1.90393,4.05509ZM22.91479,6.21494a.41351.41351,0,0,0-.10412.00677.75634.75634,0,0,0,.048-.06341C22.87756,6.1771,22.895,6.19681,22.91479,6.21494Zm-1.8142.3305-.0022.00025c-.00147-.05023-.01123-.09876-.01441-.14862a.37118.37118,0,0,1,.02173.071C21.10742,6.49369,21.10144,6.51969,21.10059,6.54544Zm-3.21485.29248c-.004.01087-.01062.02094-.01465.0318L17.861,6.84427Zm-1.49951-.35406c.006.00842.00256.02313.00476.034a.48328.48328,0,0,0-.34888-.19208c.02332-.04669.04895-.09308.06946-.1402A2.74086,2.74086,0,0,1,16.38623,6.48386ZM3.46118,4.12473a1.33617,1.33617,0,0,1-.16968-.16742C3.36279,3.94272,3.41211,4.01938,3.46118,4.12473ZM31.573,13.08988c.00879-.115-.12818-.241-.19824-.36194-.06678.12439-.14258.24487-.19825.374-.1184.27411-.22619.55267-.33838.82947a2.49824,2.49824,0,0,1,.01416-.95831,19.62013,19.62013,0,0,0,.93018-4.33545,2.038,2.038,0,0,0-.052-.58936c-.1853.16846-.37634.33136-.551.51026-.03418.035.00147.13275-.00586.20037a9.71736,9.71736,0,0,1-.23352,1.85614c-.12939.413-.00537,1.14515-.83777,1.10675-.115-.00531-.30432.24848-.35253.4134-.02564.08825-.04407.17993-.0669.26995a.44538.44538,0,0,0-.23755.26117c-.09741.317-.18945.61768-.27954.92145-.02344-.01153-.036-.01282-.06262-.027-.59827-.31988-.786-.1842-.80017.50629-.0044.21136-.00232.42291-.002.63434a.53324.53324,0,0,0-.17481.09662,1.62749,1.62749,0,0,0-.3269.37451.96949.96949,0,0,0-.16858.12189.28711.28711,0,0,0-.16516-.07447c-.136.004-.3335.2179-.38086.37647a1.5503,1.5503,0,0,0-.02491.52844c-.03576.0885-.07226.177-.102.26617a.85006.85006,0,0,0-.08984-.00592.70684.70684,0,0,0-.42163.131.68046.68046,0,0,0-.26038-.007.34926.34926,0,0,0-.44226-.068.37467.37467,0,0,0-.24194.403.83378.83378,0,0,0-.60474.44476c-.079-.08435-.18384-.16455-.26074-.24927-.14746.15216-.40185.29169-.42163.45893-.01563.13128-.0304.26794-.04224.40545-.0188.01978-.04248.02863-.06006.05042a2.17159,2.17159,0,0,0-.24279.38061.88115.88115,0,0,0-.12024.08112.38507.38507,0,0,0-.24341-.03113c-.06958-.11688-.16675-.15539-.34094-.10443-.25135.07355-.49353.183-.35645.56488.02429.06781.02649.13416.04553.2016-.0144.037-.03857.06744-.05078.10577a.64682.64682,0,0,0-.21289-.08606.45833.45833,0,0,0-.36194.07709c-.03027-.08545-.06115-.17126-.09118-.25464a.67621.67621,0,0,0-.89063-.40454c-.16638.09357-.16479.1789-.11694.26154a.83174.83174,0,0,0-.28552.52478,1.34615,1.34615,0,0,0-.19934.24249.42139.42139,0,0,0-.4397-.18536,2.10974,2.10974,0,0,0-.43384-.22718c-.04468.0885-.09241.17591-.13831.264l-.006.00092a.88864.88864,0,0,0-.55639.64514c-.02088.00006-.04053-.00244-.06226-.00043l-.01587.00458c-.021-.03992-.03882-.08154-.06079-.121-.25-.45087-.56763-.05732-.74463.04449-.207.1192-.092.18317.02295.25452a.46867.46867,0,0,0-.06909.01629.91979.91979,0,0,0-.4635.71027.70741.70741,0,0,0-.06824.03937c-.00378-.02509-.00439-.05072-.00842-.07581a1.38452,1.38452,0,0,0-.55933-.74365c-.13122-.09888-.507-.11725-.444.29871a4.49386,4.49386,0,0,1,.077.48016c.00159.03815.00207.07635.00366.1145a.69583.69583,0,0,0-.28137-.06341.71644.71644,0,0,0-.45142.16082c-.00049-.03253-.00586-.06482-.00439-.09747a.54883.54883,0,0,0-.76929-.504.36137.36137,0,0,0-.27417.26172.38144.38144,0,0,0-.17773.094,1.70674,1.70674,0,0,0-.39893.6394,1.64317,1.64317,0,0,0-.32275-.34552c-.2959-.2265-.45826-.36487-.494-.7323-.03723-.38281-.15686-.8277-.58191-.92487a1.34018,1.34018,0,0,0-1.36023.4018c-.15894.18017-.2926.38269-.43774.575-.02356-.264-.05115-.52765-.06922-.79193-.00928-.13629.04529-.29938-.01245-.40448a.82075.82075,0,0,0-.38428-.39215c-.10754-.03436-.28161.13989-.42614.22058q-.15107.08441-.30286.168a3.54211,3.54211,0,0,1-.10364-.36371.22778.22778,0,0,1,.03821-.1842c.34985-.28327.11291-.5539-.11353-.61866a1.09867,1.09867,0,0,0-.81152.13556c-.14575.09552-.20679.316-.28809.51416a.42247.42247,0,0,0-.47558-.06378,1.34269,1.34269,0,0,1,.02-.701c.38843-.81653.0885-1.66424.18139-2.48962.012-.10559-.08715-.32178-.12609-.31976-.35291.01831-.79749-.181-1.02039.23034-.27014.49854-.47021,1.03565-.69055,1.5603a3.128,3.128,0,0,0-.11658.43647l-.00207.00226a2.35545,2.35545,0,0,1-.21057-.423,2.39329,2.39329,0,0,1-.08082-.58173c-.011-.47876.02417-.96038-.0166-1.43585a2.0035,2.0035,0,0,0-.27148-.6018,3.20573,3.20573,0,0,0-.5304.33557,3.6444,3.6444,0,0,0-.3313.47326,1.07452,1.07452,0,0,1-.21447.16809c-.02564-.0921-.09095-.19464-.06995-.27447a9.8913,9.8913,0,0,1,.35974-1.18445.53.53,0,0,0-.28052-.74658c-.09057-.04169-.33813.22089-.49426.36542-.19787.18322-.42676.35455-.62585.5401a2.0246,2.0246,0,0,0-.544-.78559.49605.49605,0,0,0-.10962-.0672c-.03784-.25775-.07995-.515-.13135-.77142a.38973.38973,0,0,0-.56909-.23151.56109.56109,0,0,0-.18982.22132,2.00379,2.00379,0,0,1-.07483-.34558C1.979,11.54959,2.04,10.99674,2.01,10.451c-.01367-.24841-.177-.48987-.18408-.73694-.00965-.34607-.257-.32318-.407-.2514a.49979.49979,0,0,0-.20606.44018,10.57339,10.57339,0,0,1,.39417,3.0517c.00817.82105-.02991,1.64392.01232,2.46289A4.60453,4.60453,0,0,1,1.44385,17.128a8.56956,8.56956,0,0,0-.242,1.64545c-.02368.20251.06226.44006-.01489.61041a6.09691,6.09691,0,0,0-.39453,2.8114,3.51031,3.51031,0,0,0,.96362,2.05884c.07569.09338.35022.16724.40186.11658.45776-.44837.47607.08331.56836.27185A1.15563,1.15563,0,0,1,2.861,25.66416a1.2529,1.2529,0,0,0,.0033.90454c.15014.32214-.13977.49029-.12183.7893a5.22728,5.22728,0,0,0,1.15882,2.71088,7.03,7.03,0,0,0,1.49633,1.31177c.09424.07385.31263-.01081.47376-.02228-.0398-.141-.07422-.28381-.1211-.42249a.9819.9819,0,0,0-.1477-.34722A4.71923,4.71923,0,0,1,4.479,28.20285a.434.434,0,0,0,.229.14527.3832.3832,0,0,0,.48193-.31641l.00745-.01031a.625.625,0,0,0,.4508.18432l.00293-.0003a3.68656,3.68656,0,0,0,.4292.91284.39266.39266,0,0,0,.31177.17206c.05005.08691.09753.17553.1488.26165.09436.15851.22815.3786.37488.40662a1.27841,1.27841,0,0,1,.15161.05762.584.584,0,0,0,.24488.093,2.15946,2.15946,0,0,1,.879,1.18805c.0846.19941.31482.337.47852.50281.04163-.173.09143-.34472.122-.51977.01733-.09961.04687-.24067-.00342-.30194a2.23338,2.23338,0,0,1-.4325-.9115,1.111,1.111,0,0,0,.663.31494l.072.17816a6.19316,6.19316,0,0,0,.44995.91089,4.38909,4.38909,0,0,0,.405.96423c.4541.8125.99756,1.57623,1.52979,2.34216a.47444.47444,0,0,0,.43725.10444c.09155-.03382.14112-.25184.15882-.39417a1.40816,1.40816,0,0,0-.06592-.37866c-.06629-.39411-.12781-.78888-.19263-1.18323a.44583.44583,0,0,0,.10266-.02368.37958.37958,0,0,0,.54248.13672c.10962.274.218.54858.33521.8194.0332.07684.22.16729.274.13793.10462-.05682.24036-.20153.23121-.29736-.00721-.07629-.01307-.15454-.01941-.23266a.67174.67174,0,0,0,.27624-.10175.38328.38328,0,0,0,.19934.29108,1.93757,1.93757,0,0,0,.71436.00769c.50708-.09565.99145-.22834,1.35254.3316.055.08539.354.02991.53711.0105a1.362,1.362,0,0,0,.262-.10315,1.31918,1.31918,0,0,0,.26782.08185c.72217.31042,1.26367-.231,1.84717-.51465.40137-.19525.74536-.64233,1.144-.68152a14.462,14.462,0,0,0,2.11365-.70557,2.86567,2.86567,0,0,0,2.01868-2.09582,3.09073,3.09073,0,0,0,.141-.81879q.05292-.13915.10437-.27875c.06372-.10632.126-.21405.188-.32214a.52922.52922,0,0,0,.31152-.05627,2.654,2.654,0,0,0,1.11218-1.23688c-.02868.19269-.06311.384-.10876.57251-.06861.28265.03283.37134.14648.42609a.42123.42123,0,0,0,.39893-.12372,4.80566,4.80566,0,0,0,.29565-.81366.47458.47458,0,0,0,.53784.04193,1.86531,1.86531,0,0,0,.17994-.15155l.00488.0285a1.3807,1.3807,0,0,0,.28613-.19018,1.26557,1.26557,0,0,0,.27368-.3974c.01673-.04633.03272-.093.04932-.13929a9.26943,9.26943,0,0,0,.5968-1.32232,8.6488,8.6488,0,0,0,.44519-1.5636.41889.41889,0,0,1,.23877-.20343c.08154-.01245.2251.13928.27918.24859a2.9091,2.9091,0,0,1,.15319.528c.14527-.1452.3418-.26624.42383-.441a2.069,2.069,0,0,0,.26636-.90784c-.006-.12719.00024-.25482.00281-.38232.00793-.03839.02-.07581.02722-.11444a.40414.40414,0,0,0,.11255-.12238,2.75711,2.75711,0,0,0,.26147-1.27173c.01123-.18255.024-.36206.02686-.53973a4.434,4.434,0,0,1-.16236,1.8028c-.02917.10107.0376.23.0597.34594.10144-.08972.28064-.17053.29211-.2705.09046-.79023.15991-1.58344.215-2.37714.07861-1.13428.0719-2.27979.23791-3.40027a2.48342,2.48342,0,0,0-.0122-1.4845,1.69845,1.69845,0,0,1,.00805-.804C31.44971,13.85971,31.5437,13.47751,31.573,13.08988ZM7.66309,16.87082l.00366-.01184a.08432.08432,0,0,0,.06274.0119l-.00574.0835A.40431.40431,0,0,0,7.66309,16.87082Zm.0708-.65265a.35127.35127,0,0,0-.11743-.15979c.01708-.01446.03588-.02826.05126-.04333C7.68628,16.08255,7.71265,16.15048,7.73389,16.21817ZM10.936,33.24509a.692.692,0,0,1-.14222-.146c-.0968-.18963-.20935-.37652-.30383-.56677a1.81276,1.81276,0,0,0,.56641.30981c-.00281.05787-.00489.11579-.00757.17365C11.04517,33.09384,10.9751,33.16873,10.936,33.24509Zm11.72119-2.24384c.00024-.01623-.00269-.0343-.00379-.0512a.39784.39784,0,0,0,.27722-.13587c.05957-.07513.11634-.15051.17408-.22577a.47743.47743,0,0,0,.04638-.03815c.02686-.02734.05225-.05548.07788-.08349.01416-.0061.02369-.02039.037-.0282a2.94909,2.94909,0,0,1-.19958.33856C22.98682,30.89139,22.797,30.92887,22.65723,31.00125Z" style="fill:#fff"/><path id="fill2" d="M30.82192,15.59989a.43521.43521,0,0,0-.03148-.13031,2.32953,2.32953,0,0,0-.07065-.96463.44912.44912,0,0,0-.17646-.23637,5.79518,5.79518,0,0,0,.15253-1.89912c-.06214-.40785-.6381-.40612-.82492-.10783-.01624.02592-.03137.05318-.04662.08031a.46765.46765,0,0,0-.379.3244c-.12828.41754-.25683.81154-.36817,1.21376a.3724.3724,0,0,0-.30066.128,1.83636,1.83636,0,0,0-.34411.66638.486.486,0,0,0-.30619.12353,1.63177,1.63177,0,0,0-.32687.37451,1.89548,1.89548,0,0,0-.69766.84341c-.055.12439-.10192.24943-.144.37513a.83928.83928,0,0,0-.08979-.00592.70685.70685,0,0,0-.42157.131.668.668,0,0,0-.30123-.00814.87747.87747,0,0,0-.50278.31654c-.45473-.0462-.73343.35723-.90108.78475a.89758.89758,0,0,0-.629.34514,2.17872,2.17872,0,0,0-.24272.38059.88276.88276,0,0,0-.12024.08113.44418.44418,0,0,0-.41026.01738,1.19611,1.19611,0,0,0-.53584.71929.64661.64661,0,0,0-.21285-.086.43437.43437,0,0,0-.42163.11142,1.72817,1.72817,0,0,0-.11348.15345,1.53152,1.53152,0,0,0-.23748-.50056.4441.4441,0,0,0-.48706-.19821.77114.77114,0,0,0-.48654.6381,1.34861,1.34861,0,0,0-.19936.24249.43409.43409,0,0,0-.47575-.18755.64359.64359,0,0,0-.12157.04225.61973.61973,0,0,0-.42055-.00235.88871.88871,0,0,0-.55636.64517c-.02084,0-.04044-.00246-.06227-.00043a.75051.75051,0,0,0-.436.209.437.437,0,0,0-.43151-.01008.9198.9198,0,0,0-.46342.7103.80086.80086,0,0,0-.13731.07919.66256.66256,0,0,0-.37775-.09867.66966.66966,0,0,0-.40146.15136.7298.7298,0,0,0-.36413-.082.7948.7948,0,0,0-.73432.56355,1.26924,1.26924,0,0,0-.38582-.64854.40529.40529,0,0,0-.5569,0,1.76417,1.76417,0,0,0-.42987.70712.29883.29883,0,0,0-.11655.24338.344.344,0,0,0-.17374.16241.49659.49659,0,0,0-.0841.06c-.13741-.37941-.31753-.78955-.70771-.89185-.00281-.02939-.006-.05868-.00743-.08859a1.10418,1.10418,0,0,0-.30152-.79721.38058.38058,0,0,0-.5891.07589l-.00731.01165a.50765.50765,0,0,0-.70444.16454.95305.95305,0,0,0-.43573.54968.49922.49922,0,0,0-.07434.06332c.00117-.07876.00146-.1576.003-.23637a.39084.39084,0,0,0-.53492-.391.52042.52042,0,0,0-.331-.23856.49285.49285,0,0,0-.08349-.00835,1.16,1.16,0,0,0-.27241-.91675.47.47,0,0,0-.14537-.07618,1.19313,1.19313,0,0,0-.19509-.43423c-.19621-.26337-.68925-.28988-.77106.10079l-.0038.01774-.00009-.00049a.41975.41975,0,0,0-.69415-.18326,1.35836,1.35836,0,0,0-.16541.17914c.0031-.02638.00756-.05292.0103-.07913a1.15074,1.15074,0,0,0,.00106-.16533,2.99,2.99,0,0,0,.09228-.99382.31393.31393,0,0,0-.23224-.27286,1.88385,1.88385,0,0,0,.0355-.26579.411.411,0,0,0-.13782-.30958l.00357-.01184c.09168.04345.08765.01839.1266-.1905a.87044.87044,0,0,0-.01126-.37316c-.0932-.43406-.66026-.34479-.79348,0a5.17357,5.17357,0,0,0-.24878.921c-.32554.09055-.51656.434-.63018.84371a.78854.78854,0,0,0-.05048-.066.30843.30843,0,0,0-.11524-.0842A8.0244,8.0244,0,0,0,5.58,15.69273.38561.38561,0,0,0,4.942,15.5243a1.45629,1.45629,0,0,0-.30511.85287c-.00553-.00985-.00976-.02048-.01548-.03023a.37733.37733,0,0,0-.4742-.1543c-.00552-.00959-.00946-.0196-.01527-.02913l-.01086-.01492c-.13614-.95792-.28726-2.26924-1.01074-2.86316a.49981.49981,0,0,0-.1096-.06719c-.03789-.25774-.08-.515-.13145-.77142a.38978.38978,0,0,0-.56912-.23153c-.33046.22188-.28983.67875-.28327,1.03293.00367.19815.007.39564.01321.59268.00772.69514.039,1.39267.104,2.08506-.011,1.242-.027,2.48791.02753,3.72658a13.35719,13.35719,0,0,0,.63218,4.02954.43683.43683,0,0,0,.311.26193,7.30843,7.30843,0,0,0-.0146,1.44883,8.81409,8.81409,0,0,0,.15424,1.31845.424.424,0,0,0-.21478.44421,6.176,6.176,0,0,0,.3804,1.05093A6.09687,6.09687,0,0,0,3.8827,29.451c.25278.44493.89655.05387.6788-.39679a4.62474,4.62474,0,0,1-.20743-.52336.38061.38061,0,0,0,.02148-.22646,1.22951,1.22951,0,0,0-.1773-.45805c-.04591-.1417-.08793-.29148-.12336-.43832q.02414-.12174.03839-.244a1.90587,1.90587,0,0,0,.20425.74347.58185.58185,0,0,0,.39044.44068.38319.38319,0,0,0,.482-.31639l.00743-.01034a.62478.62478,0,0,0,.45082.18431l.00288-.0003a3.68865,3.68865,0,0,0,.42925.91286.41658.41658,0,0,0,.44851.18251c.01206-.00206.022-.00642.03376-.00887.20355.56715.53014.975,1.06577.785a.97474.97474,0,0,0,.44335-.31655,1.35855,1.35855,0,0,0,.94712.62151l.07208.17816a4.59946,4.59946,0,0,0,1.14151,1.75975,1.89273,1.89273,0,0,0,1.5128.62157.42082.42082,0,0,0,.1705-.03933.41414.41414,0,0,0,.66571.06021c.02531.03236.05087.06457.07842.09582a.36234.36234,0,0,0,.18156.11094.47211.47211,0,0,0,.43755.29717.69769.69769,0,0,0,.442-.23467.64158.64158,0,0,0,.35706.21788.79985.79985,0,0,0,.70188-.17455.76579.76579,0,0,0,.24783.03364.9415.9415,0,0,0,.847.30722,1.39589,1.39589,0,0,0,.26766-.05881,1.32057,1.32057,0,0,0,1.01792.45687,1.89381,1.89381,0,0,0,1.72861-1.084c.04541-.09307.09029-.19576.1327-.30389l.01458-.008A2.29673,2.29673,0,0,0,20.04162,31.409a.675.675,0,0,0,.8054.65394c.595-.06185,1.096-.72462,1.48764-1.1098l.03863-.03864a.48573.48573,0,0,0,.55742-.1003c.05956-.07514.11627-.15054.174-.22581a.46577.46577,0,0,0,.0464-.03812c.0269-.02733.05223-.05547.07794-.08348a.34183.34183,0,0,0,.13625-.10407,8.608,8.608,0,0,0,.56732-.72138,4.15513,4.15513,0,0,0,.325-.75261c.06363-.10632.126-.21409.188-.32214a.52964.52964,0,0,0,.31157-.05632,2.86017,2.86017,0,0,0,1.23543-1.48385.34625.34625,0,0,0,.15646-.06453,1.86405,1.86405,0,0,0,.18108-.15688c.02078.092.04423.18306.07327.27214a.50728.50728,0,0,0,.736.29943,3.98684,3.98684,0,0,0,1.39079-2.17228,8.31717,8.31717,0,0,0,.5674-2.48133,1.11728,1.11728,0,0,0,.30542.52324.45218.45218,0,0,0,.70241-.09052,2.40623,2.40623,0,0,0,.26124-.78736.40414.40414,0,0,0,.11267-.12239,2.7566,2.7566,0,0,0,.26139-1.27172c.01263-.20482.03075-.407.03012-.60567a13.662,13.662,0,0,0-.04264-1.857C30.71553,17.539,30.89372,16.57064,30.82192,15.59989ZM7.48775,29.10813c-.1279.24429-.09753.02281-.17691-.20192-.01741-.04928-.034-.09932-.05052-.14929q.11146.16686.23506.33252Zm19.75708-3.33581q.00285-.07884.00841-.1578a.5265.5265,0,0,0,.06676-.001Q27.28412,25.694,27.24483,25.77232ZM30.70162,3.47514a1.65485,1.65485,0,0,1-1.07753.53174,1.37584,1.37584,0,0,1-.14363.02029.4862.4862,0,0,1-.06924.05383,2.59146,2.59146,0,0,0-.26979.26458c-.1919.1797-.38993.358-.59493.52262a.48533.48533,0,0,1-.37742.11352,5.56965,5.56965,0,0,1-.29465.48414,2.60347,2.60347,0,0,1-.38022.59807.39417.39417,0,0,1-.45142.11016c-.0281.02768-.05387.0571-.08384.08335a.45146.45146,0,0,1-.46679.10076,1.73884,1.73884,0,0,1-.18971.2349.41455.41455,0,0,1-.29989.12,3.1712,3.1712,0,0,1-.194.40572.40975.40975,0,0,1-.63576.12877.48064.48064,0,0,1-.31426-.14271c-.0773.12651-.15792.24962-.24434.36638a.53129.53129,0,0,1-.57674.18611,3.2597,3.2597,0,0,1-.2654.43118.4826.4826,0,0,1-.15217.13359,1.13677,1.13677,0,0,1-.47366.57062.50257.50257,0,0,1-.22715.049.82409.82409,0,0,1-.61221.53761.57708.57708,0,0,1-.23533-.0179l-.00283.00157a.45719.45719,0,0,1-.663-.26975,1.37956,1.37956,0,0,1-.03044-.22705.53232.53232,0,0,1-.3424-.075l-.00193.00327-.01673.0379c-.00575.05268-.0127.10527-.01933.1579a2.54974,2.54974,0,0,1-.06533.86648.42634.42634,0,0,1-.14237.2227.44319.44319,0,0,1-.62178.19091.75348.75348,0,0,1-.254-.718.47719.47719,0,0,1-.58767.14347.8395.8395,0,0,1-.62125.51241.554.554,0,0,1-.632-.48744.59373.59373,0,0,1-.35069.06139,3.04777,3.04777,0,0,1-.38843.44781.41643.41643,0,0,1-.49991.0645,1.22119,1.22119,0,0,1-.18447-.16271.57148.57148,0,0,1-.35509.05606.58122.58122,0,0,1-.33913-.16994.56336.56336,0,0,1-.49585-.06925.65189.65189,0,0,1-.17231-.16424c-.258.00592-.391-.166-.44213-.43459a.71183.71183,0,0,1-.6991.18323l-.008-.00275c-.28932.35585-.61886.572-.9789.46927a.72379.72379,0,0,1-.49236-.75093.72565.72565,0,0,1-.09485.00841c-.43406.00922-.5665-.35572-.57866-.71413-.01183-.00052-.02323-.00016-.03539-.0014a.51578.51578,0,0,1-.28623-.11745.63759.63759,0,0,1-.38412.16009c-.42721.0233-.602-.2692-.63616-.69161l-.02363.01679a.37344.37344,0,0,1-.37825,0,1.02569,1.02569,0,0,1-.12857-.09209.58333.58333,0,0,1-.51673.10439.45376.45376,0,0,1-.12168-.05206.52753.52753,0,0,1-.34376.08868.59084.59084,0,0,1-.50487-.38393.58825.58825,0,0,1-.40189.13346c-.42886-.01084-.551-.36034-.54-.76122a.5174.5174,0,0,1-.34156-.09451.49175.49175,0,0,1-.20532-.30895,1.13742,1.13742,0,0,1-.399.21415.36226.36226,0,0,1-.406-.18257.32872.32872,0,0,1-.39952-.14059.32026.32026,0,0,1-.46218-.20643c-.00387-.0269-.00592-.09415-.00628-.1792a.23917.23917,0,0,1-.1272-.01528A.50344.50344,0,0,1,5.01136,5.73a1.05266,1.05266,0,0,1-.60514-.18139,1.63575,1.63575,0,0,1-.31532-.41881.30416.30416,0,0,1-.30489.00183,2.45092,2.45092,0,0,1-.36457-.27856c-.07194.15041-.24574.27051-.40678.14661a1.90021,1.90021,0,0,1-.73625-1.08335A1.594,1.594,0,0,1,2.181,3.77025c-.16974-.28791.20383-.52406.43423-.335a1.76825,1.76825,0,0,1,.2561.23036.926.926,0,0,1,.10345.10589.25006.25006,0,0,1,.28395.14609,3.25964,3.25964,0,0,0,.61261.53191.35331.35331,0,0,1,.3512-.02245c.29508.13813.36608.47094.5991.60757.0032-.03489.0054-.06977.00929-.10459.0258-.28926.44237-.471.59782-.16192a.89453.89453,0,0,1,.03045.0985.33423.33423,0,0,1,.38028-.03829.50728.50728,0,0,1,.11136.08234,1.2973,1.2973,0,0,1,.30544-.40615.33947.33947,0,0,1,.56255.32747c-.01045.04235-.02245.08823-.03467.13493a.36024.36024,0,0,1,.51242.3066L7.296,5.28063a1.54048,1.54048,0,0,1,.09553-.12222.3493.3493,0,0,1,.42135-.05436.54084.54084,0,0,1,.2228.63143l-.00622.0286a.32414.32414,0,0,1,.45015.03118,2.342,2.342,0,0,1,.10261-.31861c.14461-.35035.714-.34083.70555.0955-.00409.21225.02278.47382.03318.73336.00772-.01414.01514-.02952.0232-.042a.38971.38971,0,0,1,.63274-.01819c.10544-.388.74449-.36443.72976.08554a2.71528,2.71528,0,0,1-.06594.47922,4.11341,4.11341,0,0,0,.26108-.53728A8.52087,8.52087,0,0,1,11.289,5.20209c.18762-.38821.83824-.10936.69456.29282-.03274.0916-.06647.18893-.1015.28952.23155-.20073.66063-.10285.6821.19121a.38056.38056,0,0,1,.48371.46437A7.28571,7.28571,0,0,0,12.851,7.53158a2.87215,2.87215,0,0,0,.33664-.76321l.00108-.00674a.831.831,0,0,0,.0114-.09641c.02757-.50026.80462-.50344.78136,0a9.54409,9.54409,0,0,1-.40764,1.60336,5.34437,5.34437,0,0,0-.01059.646l.00844-.0108a4.73057,4.73057,0,0,0,.27444-.46113c.03511-.06489.0676-.13119.10126-.1969a4.33848,4.33848,0,0,1,.64192-1.42314.45626.45626,0,0,1,.68683-.01888c.03272-.08267.05327-.13532.0562-.143a.40283.40283,0,0,1,.38575-.26652.51682.51682,0,0,1,.7349.1938,1.32453,1.32453,0,0,1,.38474-.38324.41053.41053,0,0,1,.6098.34993c.005.03842.00828.0767.01067.11486a.38592.38592,0,0,1,.39531.238,4.48375,4.48375,0,0,1,.3496-.75176c.23705-.39806.91249-.134.76043.32057-.04825.14432-.09366.29325-.138.44467a.43862.43862,0,0,1,.21932.13064.467.467,0,0,1,.20188-.11012,5.08915,5.08915,0,0,1,.21078-.74551.47481.47481,0,0,1,.56722-.28807,2.669,2.669,0,0,1,.12138-.32889.44194.44194,0,0,1,.75941,0,2.4469,2.4469,0,0,1,.19285.96663.471.471,0,0,1,.29583-.03053c.13453-.38753.32615-.78164.7603-.87958a.46233.46233,0,0,1,.55364.31435,1.01355,1.01355,0,0,1,.05334.275.433.433,0,0,1,.25208-.01633c.25124-.44738.5044-.95475.97268-1.137l.00867-.00265c.005-.013.011-.02552.01551-.03871a.44513.44513,0,0,1,.85075.00533.4705.4705,0,0,1,.06316.03741,2.98215,2.98215,0,0,1,.14929-.29835c.12372-.20938.30555-.36914.44483-.56621a.46792.46792,0,0,1,.834.1202.42323.42323,0,0,1,.04575.02137c.02209-.02687.04284-.05439.06537-.081a.39042.39042,0,0,1,.29572-.15587l.02351-.02981a.377.377,0,0,1,.62978.0253c.05244-.05547.10557-.11035.15982-.164a.41711.41711,0,0,1,.37909-.12556,1.23332,1.23332,0,0,1,.20708-.13679.45623.45623,0,0,1,.37467-.01545,3.2009,3.2009,0,0,1,.5126-.4233c.39257-.24654.70035-.01642,1.03974-.38438C30.46669,2.44581,31.0813,3.06346,30.70162,3.47514Z" style="fill:#754420"/><path id="fill1" d="M13.10655,27.71617a4.9486,4.9486,0,0,0-.38943,1.3097,7.35013,7.35013,0,0,0,.37451,3.53224,3.323,3.323,0,0,1,.20709,1.14056c.00912.09579-.12655.24053-.23119.29737-.054.02935-.24084-.06113-.27406-.138-.25092-.58006-.471-1.17344-.71817-1.75521a3.36568,3.36568,0,0,0-.30658-.48239,1.49706,1.49706,0,0,0-.09148.471c.09383.67467.21545,1.34547.32848,2.01744a1.41026,1.41026,0,0,1,.06595.37865c-.01776.14234-.06729.36039-.1589.39417a.47444.47444,0,0,1-.43724-.10444c-.53222-.76593-1.07571-1.52966-1.52974-2.34213a3.3928,3.3928,0,0,1-.49641-1.52585,10.1748,10.1748,0,0,0-.96959-3.202c-.04105-.12058-.0566-.24985-.09829-.37016a1.34829,1.34829,0,0,0-.12074-.21612c-.07258.07259-.19078.13537-.2089.21966a1.35816,1.35816,0,0,0-.0616.68157c.353.96228.0872,2.09063.798,2.95611.05034.06131.02077.20239.00342.302-.03047.175-.08024.3467-.12194.51978-.16363-.16584-.39392-.30341-.47848-.50281-.26067-.61456-.51234-1.19312-1.27555-1.33871-.14681-.028-.28049-.2481-.37486-.4066-.42391-.71207-.798-1.45607-1.25485-2.14567-.40845-.61653-.44714-.59016-.41523-1.62643.00217-.07057-.10552-.17025-.185-.20722-.04212-.01965-.17156.05045-.19579.1078a1.60336,1.60336,0,0,0-.20148.63009,6.32485,6.32485,0,0,0,1.314,4.27812.97965.97965,0,0,1,.14764.34723c.04688.13862.08124.28148.121.42249-.16106.01148-.3794.09609-.47366.02228a7.03057,7.03057,0,0,1-1.49635-1.31181A5.22827,5.22827,0,0,1,2.74237,27.358c-.01786-.299.2721-.46721.122-.78934a1.2529,1.2529,0,0,1-.00334-.90454,1.15594,1.15594,0,0,0-.13467-1.02165c-.09226-.18853-.11069-.72019-.56831-.27184-.0517.05065-.32623-.02318-.40182-.11662a3.50935,3.50935,0,0,1-.96366-2.05879,6.09484,6.09484,0,0,1,.39453-2.81143c.07716-.17035-.00875-.40787.01484-.61041A8.57692,8.57692,0,0,1,1.4438,17.128a4.60114,4.60114,0,0,0,.17556-1.71059c-.04217-.819-.00406-1.64185-.01228-2.46289a10.5688,10.5688,0,0,0-.39426-3.05168.49979.49979,0,0,1,.2062-.44021c.15-.07176.39724-.09464.407.25141.007.2471.17042.48855.18407.73693.03.5458-.03108,1.09862.02561,1.64012.03034.28975.16519.73881.362.80869.56619.201.49114.62345.42777.98807a13.90154,13.90154,0,0,1-.534,2.13722c-.12434.36161.08843.30173.25634.447.49753.43044.17453-.29214.38017-.24442.02648.00617.10548-.09183.11374-.14835a5.706,5.706,0,0,1,.24221-1.54151c.18693-.40337.64678-.6833.99628-1.00684.15615-.14454.40363-.40713.49433-.36543a.53006.53006,0,0,1,.28041.74659,9.90557,9.90557,0,0,0-.35969,1.18444c-.021.07985.04436.18238.06989.27447a1.07518,1.07518,0,0,0,.21453-.1681,3.63767,3.63767,0,0,1,.33129-.47322,3.20966,3.20966,0,0,1,.53042-.33563,2.00374,2.00374,0,0,1,.27147.60182c.04082.4755.00557.95709.0165,1.43585a2.39319,2.39319,0,0,0,.081.58177,2.38527,2.38527,0,0,0,.21147.42477,3.21413,3.21413,0,0,1,.11769-.44051c.22031-.52465.42039-1.06173.69059-1.56026.223-.41134.6675-.212,1.02033-.23036.039-.002.138.21414.12611.31976-.09288.82541.207,1.67307-.18141,2.48961a1.67018,1.67018,0,0,0-.00658.81255c.00931.09356.12908.17614.19837.26374.06757-.05511.15876-.097.19833-.1678.12348-.22083.17125-.53841.35359-.65783a1.0985,1.0985,0,0,1,.81151-.1356c.22642.06477.46331.33543.1135.61869a.22783.22783,0,0,0-.03823.18419,3.51533,3.51533,0,0,0,.10371.36367c.101-.05594.202-.11166.30282-.168.14454-.08068.31857-.25494.42621-.22058a.82062.82062,0,0,1,.38415.39214c.05778.10511.0033.26822.01258.40447.018.26432.04554.528.06913.79195.14515-.19234.2788-.39482.43775-.575a1.34026,1.34026,0,0,1,1.36027-.40184c.425.09717.54459.542.58189.92486.0358.36745.198.50583.494.73232a2.374,2.374,0,0,1,.75467,2.02314,1.95964,1.95964,0,0,0,.07065.37978,1.70231,1.70231,0,0,0,.21262-.36775,3.01739,3.01739,0,0,0-.02691-1.939c-.07468-.20111-.29785-.58754.16247-.74576a.54878.54878,0,0,1,.76928.504c-.03573.83589.60085,1.63578.07138,2.515-.1314.21822.11507.67227.2163,1.00939.01009.03351.29606.04948.32263.00126a1.36823,1.36823,0,0,0,.22035-.6208c-.01089-1.00671-.0564-2.0131-.09706-3.01932a4.47011,4.47011,0,0,0-.0771-.48013c-.063-.41595.31284-.39758.444-.29873a1.38489,1.38489,0,0,1,.55934.74365c.13239.81664.15983,1.65034.22781,2.47738a.43787.43787,0,0,0,.00184.10211c.08377.23885.17136.47635.25778.71427a6.31008,6.31008,0,0,0,.14757-.66147,6.59538,6.59538,0,0,1,.26379-2.04381c.2622-.53773-.06556-.77741-.15416-1.14862-.03559-.14913-.47588-.20168-.15826-.3845.1769-.1018.49457-.49537.7446-.04448.19925.35933.35731.74132.54194,1.1091a3.69416,3.69416,0,0,0,.22422.348c.0614-.12973.19046-.27043.17148-.387a8.47942,8.47942,0,0,0-.26517-1.01639c-.02627-.08948-.14385-.1886-.12251-.249a5.24806,5.24806,0,0,1,.28963-.59793c.16521.09136.41754.14266.481.28076a5.367,5.367,0,0,1,.66127,2.29364,8.66555,8.66555,0,0,0,.07886.889,4.17685,4.17685,0,0,0,.20917-.79648c.05873-.90727.09041-1.81671.11005-2.72581.004-.18419-.43185-.35121-.0651-.55741a.67616.67616,0,0,1,.89061.40453,2.32789,2.32789,0,0,1,.1978.735c.00409.63811-.05287,1.2764-.068,1.91506a1.179,1.179,0,0,0,.11623.36277,1.08406,1.08406,0,0,0,.16516-.21166,3.721,3.721,0,0,0,.26009-2.84486c-.13711-.38184.10511-.49136.35641-.56488.26472-.07744.35881.03151.43388.34911a5.95532,5.95532,0,0,1-.0071,3.22742.59147.59147,0,0,0,.00112.398.33834.33834,0,0,0,.31494.07765.60961.60961,0,0,0,.217-.40974c-.13321-1.04288.54652-2.03967.12385-3.11478a2.84229,2.84229,0,0,1-.034-1.30966c.01983-.16727.27415-.30677.42163-.45893.12627.13915.33888.26447.36377.41986.10412.65024.11947,1.31524.23433,1.96295a4.06891,4.06891,0,0,0,.39576.90228c.13718-.26509.40915-.54229.38668-.79308a8.35037,8.35037,0,0,0-.43679-2.3775c-.16569-.40848-.08646-.59014.16369-.713.33287-.16361.54652.0895.61468.40761.11515.53735.19179,1.083.30875,1.61986.01858.08529.16328.14309.24967.21361.05047-.0722.14372-.14376.14484-.21669.011-.71834.00662-1.43693.00662-2.15544a2.57767,2.57767,0,0,1,.01651-.71358c.04743-.1586.24487-.37249.38083-.37648.13783-.00406.31461.19873.41228.35076.06225.0969-.01748.2742.01723.40159.09555.35061.21784.694.32956,1.04015.02517-.33173.06624-.66317.07212-.99523.01151-.64989-.00713-1.30034.00624-1.95015.01422-.69054.20193-.82619.80017-.5063.4104.21945.43747.11526.44262-.28229a4.34912,4.34912,0,0,1,.204-1.14324c.04818-.165.23741-.41873.35255-.41342.83232.03843.70833-.6937.83769-1.10671A9.72067,9.72067,0,0,0,31.17358,8.759c.00727-.06765-.0283-.16537.0059-.20041.17466-.1789.36574-.34176.55107-.51026a2.04,2.04,0,0,1,.05192.58936,19.63433,19.63433,0,0,1-.93009,4.33549,2.49457,2.49457,0,0,0-.0142.9583c.11213-.27678.22-.55538.33827-.8295.05573-.12915.13155-.2496.19827-.374.07016.121.207.247.19833.36194-.02935.38763-.12342.76985-.16726,1.157a1.69921,1.69921,0,0,0-.00816.804A2.48253,2.48253,0,0,1,31.41,16.53534c-.1661,1.12048-.15939,2.266-.238,3.40024-.055.79373-.12447,1.5869-.215,2.37717-.01146.1-.19057.18078-.292.27046-.02214-.116-.0889-.24482-.05965-.34592a4.08165,4.08165,0,0,0-.45474-3.47776,1.19677,1.19677,0,0,1-.09186-.26933c-.03867.11194-.12.22841-.1087.335a5.51746,5.51746,0,0,0,.217,1.44783,7.48418,7.48418,0,0,1,.1697,2.59205,2.06877,2.06877,0,0,1-.26629.90781c-.08214.17479-.27864.29582-.42381.441a2.9155,2.9155,0,0,0-.15328-.528c-.054-.1093-.19768-.261-.27914-.2486a.46214.46214,0,0,0-.286.27314c-.35674.982-.68993,1.97253-1.044,2.95549a1.26808,1.26808,0,0,1-.27374.39745,1.38065,1.38065,0,0,1-.28616.19018,1.91237,1.91237,0,0,1-.04836-.287c-.00626-.3078.00815-.61648-.0111-.9232a.25225.25225,0,0,0-.1853-.16314.26056.26056,0,0,0-.20839.14088c-.085.37853-.12528.76757-.21936,1.14339a5.07125,5.07125,0,0,1-.34576.98383.42123.42123,0,0,1-.399.12366c-.11357-.05471-.21509-.14341-.14645-.426a16.095,16.095,0,0,0,.27447-2.45692c.00868-.10412-.07378-.21577-.114-.32395-.09664.09682-.2504.18016-.27723.2935-.046.19441.025.41707-.02375.61006-.045.17825-.19541.48192-.27759.4749-.70038-.05978-.51782.42775-.53155.79481-.00639.17083.06675.44607-.01152.49718-.8444.55089-.5114,1.50915-.78708,2.25075a2.8655,2.8655,0,0,1-2.01863,2.09579,14.473,14.473,0,0,1-2.11366.70561c-.39871.03917-.74263.48625-1.14413.68149-.63285.30768-1.21359.93211-2.03261.42763-.06613-.04073-.22448.09569-.34436.10835-.183.01937-.482.07484-.537-.01055-.361-.55994-.8454-.4272-1.35262-.33159a1.93532,1.93532,0,0,1-.71418-.00769c-.08911-.01735-.22742-.23271-.20128-.30941a3.23573,3.23573,0,0,1,.37942-.76415c.27871-.41127.18912-.70726-.04-1.157a10.122,10.122,0,0,1-.58087-2.1167,7.36337,7.36337,0,0,0-.21356-.8356c-.08887-.23141.40337-.43678.0592-.705a.56934.56934,0,0,0,.06636-.24161l-.1177.19028M19.67674,29.872a2.47645,2.47645,0,0,1-.19882-.52813c-.10215-.7503.18555-1.5322-.19787-2.26856-.04984-.09569.0725-.29923.14629-.436.07706-.14281.39078-.25612.06634-.42342a.52789.52789,0,0,0-.47507.0294,1.1012,1.1012,0,0,0-.35533.55575,9.87814,9.87814,0,0,0-.212,1.44339c-.08534,1.161-.1438,2.324-.20941,3.48646-.01145.20283.07417.46512-.02366.59745-.18031.24394-.33333.53342-.07688.67521.15031.08308.548-.1263.7369-.3064a1.97838,1.97838,0,0,0,.57375-.873,13.02068,13.02068,0,0,0,.22574-1.9521M10.7454,25.8683a7.94732,7.94732,0,0,0-.57687,3.12218,6.31073,6.31073,0,0,0,.35349,2.00406.37165.37165,0,0,1-.0591.28349c-.41352.70461.03893,1.2485.33091,1.82107a.69167.69167,0,0,0,.14224.146c.0391-.07635.109-.15126.11275-.22931.07452-1.57457.14563-3.14935.20438-4.72457a1.26848,1.26848,0,0,0-.10165-.569,6.14623,6.14623,0,0,1-.40615-1.85393M8.79487,19.81141A5.79073,5.79073,0,0,0,9.4166,24.2942a.28052.28052,0,0,0,.226.125c.06492-.00654.17593-.1199.17039-.17674-.087-.89248-.20571-1.782-.28344-2.67515-.06474-.74383-.63059-1.46192-.1273-2.24329.02317-.036-.0641-.20058-.12551-.21878a.29687.29687,0,0,0-.25832.08459,1.4171,1.4171,0,0,0-.2236.62159M5.30446,18.16887a2.78166,2.78166,0,0,0,.33644,1.805.8189.8189,0,0,1,.05288.76285c-.4323.55676.17379.86411.231,1.29116.00645.0482.07233.08845.11066.13239a.57542.57542,0,0,0,.08741-.167A14.37836,14.37836,0,0,0,6.31918,20.446a3.788,3.788,0,0,0-.132-1.36931,8.0771,8.0771,0,0,1-.68136-2.779.9386.9386,0,0,0-.08373-.2697c-.09618.08622-.27488.17206-.27526.25868a9.99648,9.99648,0,0,0,.15764,1.8822M23.57779,29.66669A12.04366,12.04366,0,0,0,23.78,26.39227a1.21046,1.21046,0,0,0-.0601-.27915c-.096.06965-.225.11953-.281.21311a1.62964,1.62964,0,0,0-.2622.59987c-.09244.7832-.1789,1.57-.20267,2.35737A2.52073,2.52073,0,0,1,22.67,30.58919c-.06223.10194-.0115.27287-.0127.41207.13969-.07241.32949-.10985.40912-.22409a4.0487,4.0487,0,0,0,.51139-1.11048M20.498,25.971c0,.61245-.01032,1.22519.00619,1.83719a1.52751,1.52751,0,0,0,.1405.55162.2985.2985,0,0,0,.2687.054,1.0393,1.0393,0,0,0,.3702-1.03814c-.11429-.35986-.25849-.71022-.373-1.07-.22444-.70538-.22048-.7294.47019-.83752.2322-.03634.33149-.05118.36491-.33041.05057-.42251-.234-.60054-.457-.83984a2.30739,2.30739,0,0,0-.35309.42472A6.18108,6.18108,0,0,0,20.498,25.971m1.7452,2.56648-.01672-.41064c-.09709.0596-.24239.096-.28389.18234-.47934.99684-.62486,2.14885-1.42072,3.00579-.07262.07814.051.36359.1236.53595a.30043.30043,0,0,0,.26987.05175,4.1254,4.1254,0,0,0,.97477-1.2112c.21205-.64125.17872-1.36367.35309-2.154M9.61615,25.76564a6.43856,6.43856,0,0,0-.30065-.89631c-.05683-.11579-.26451-.15752-.40359-.23294-.039.11727-.1222.23973-.10918.35091.04879.41678.31963.93544.16,1.22359-.402.72583.14594,1.2171.25219,1.80764.02083.11577.16335.20963.24972.31359.05049-.10582.14262-.21083.1447-.31755.0133-.681.00678-1.36236.00678-2.24893M7.15233,20.22205l.48489.308c-.01136-.1577-.02474-.3153-.03364-.47315a6.96034,6.96034,0,0,1-.03618-.79969c.05716-.95907.13684-1.91679.19531-2.87581a1.23335,1.23335,0,0,0-.095-.3663c-.09624.09487-.241.17309-.28026.2875-.164.47788-.53385,1.057-.391,1.43259a11.10451,11.10451,0,0,1,.15587,2.48688m5.64625,5.64625c-.10266-.22888-.21738-.45327-.3053-.68766-.1511-.40289-.38149-.47447-.67274-.178-.25839.263.03261.52.1452.61633.6398.54713.48735,1.16684.28737,1.83192a5.17158,5.17158,0,0,0-.16485,1.04945,1.40416,1.40416,0,0,0,.107.4351,1.86562,1.86562,0,0,0,.28556-.49051c.098-.44.14271-.8917.21626-1.33748a4.91842,4.91842,0,0,0,.10146-1.23913m3.38775,6.46753c-.06845.27943-.15.55675-.19588.83984-.01111.06855.09527.15617.14762.235.22141-.25028.54877-.46718.6405-.75831a4.40034,4.40034,0,0,0,.20713-1.54776c-.02909-.4964-.00506-.98153.00343-1.473.00388-.22387-.19125-.45117-.29614-.67689a4.71233,4.71233,0,0,0-.091.67839,6.97014,6.97014,0,0,1-.41569,2.70275m-3.07977-10.0606c-.06844-.41259-.12188-.82861-.21488-1.23559-.02629-.115-.1683-.20359-.25725-.30429-.04794.10777-.14228.218-.13666.323.05667,1.05767.12683,2.11466.20462,3.171.0052.0707.103.13464.15768.20173.08216-.07356.23291-.14474.23556-.221.02-.57591.01093-1.15286.01093-1.93479m-6.7755,1.64255a6.46223,6.46223,0,0,0-.3687-.56017c-.03313-.04165-.23648-.01132-.23676-.00669-.0457.7695-.78566,1.46949-.22668,2.30805a.67081.67081,0,0,1,.00053.50069c-.05953.18281-.471.34387-.02161.50478.06992.025.2927-.26783.38338-.4451a.9227.9227,0,0,0,.05438-.48528,3.21481,3.21481,0,0,1,.41546-1.81628m9.75261,2.36116a3.601,3.601,0,0,0-.54792-.39838.37437.37437,0,0,0-.35326.08489,1.71049,1.71049,0,0,0,.46531,1.70711c.20632.08173.55833.21569.54086-.27395a5.21943,5.21943,0,0,0-.105-1.11967M5.09915,21.65928c.044-.43916-.44193-.27861-.58948-.50711-.005-.00772-.22179.0769-.22119.1167.00846.565.01849,1.13185.08285,1.692.00919.07993.3056.12687.46908.18908.085-.4719.79171-.7819.25874-1.49064M17.11026,33.6704a4.82955,4.82955,0,0,0,.67-3.15843c-.034-.32241-.1035-.69172-.1611-1.03914a1.19444,1.19444,0,0,0-.1308-.28693,1.00967,1.00967,0,0,0-.06653.27615,26.53076,26.53076,0,0,1-.31161,4.20835M29.73734,15.49973a1.24872,1.24872,0,0,1-.0036.3069A1.4992,1.4992,0,0,0,30.15408,17.07c.05825.08537.19378.118.29372.17495a3.47365,3.47365,0,0,0,.10677-.36059.24556.24556,0,0,0-.03581-.18637,2.4288,2.4288,0,0,1-.3702-1.79776c-.00338-.30783.01638-.61729-.012-.92251-.00751-.081-.15427-.14915-.23709-.22318-.05406.06862-.15265.13579-.15491.20607-.0143.44422-.00725.88914-.00725,1.53913M2.84064,23.30182q.10266.11008.20533.22011.13762.14677.27561.29319c.045-.11068.09942-.21855.13353-.33249.27931-.93275-.58563-1.45457-.80209-2.21045-.013-.04534-.09137-.07194-.13933-.10722-.02789.05626-.0807.11291-.07986.16875a2.78451,2.78451,0,0,0,.40681,1.96811m.5133,4.00371c.11871.52936.22644,1.06163.36609,1.5854.02571.09642.18078.15835.27614.2362a.85739.85739,0,0,0,.072-.27146c-.0607-.74771-.132-1.4946-.20279-2.24146a.11224.11224,0,0,0-.05145-.07762c-.16118-.07965-.32517-.15356-.48827-.22933.02125.13925.04322.27838.06356.41775a1.15775,1.15775,0,0,1-.03524.58052m24.94617-4.825c-.421.39545-.12018.90067-.1982,1.34878a1.09039,1.09039,0,0,0,.0737.37457c.10994-.11043.291-.20577.31814-.33379.16059-.75689.2898-1.52064.415-2.28447.01139-.06947-.08036-.15582-.12422-.23434-.093.06344-.23412.1072-.26976.19417a4.00356,4.00356,0,0,0-.21462.93508m-14.78292,0v.60676a1.53611,1.53611,0,0,0,.0178.59851c.069.14815.28942.22584.443.33462.05172-.13687.15749-.27873.14546-.40976-.044-.47951-.11678-.95742-.20544-1.43091-.01557-.08316-.15951-.14229-.24418-.21251a1.49386,1.49386,0,0,0-.15666.51329M6.74169,25.971c.33782-.46086.48007-.92907.026-1.39908-.03163-.03273-.218.0106-.2216.035-.08105.54711-.15758,1.09549-.20707,1.64616a1.24872,1.24872,0,0,0,.11567.41565,2.35793,2.35793,0,0,0,.287-.69769m.616.20532a2.42031,2.42031,0,0,0-.00208,2.08506,1.53957,1.53957,0,0,1,.09592.2673c.03716-.0812.10881-.16356.10609-.24341a12.37247,12.37247,0,0,0-.19993-2.10895m10.47123,1.02659c.00634-.584-.439-.21093-.66316-.29219-.08807-.0319-.24039.11349-.36344.17813a1.78326,1.78326,0,0,0,.2487.41472c.10645.10251.28473.126.40854.21577.56094.40675.31635-.12579.36936-.51643M28.8134,15.60239c-.03422.66871-.07257,1.3373-.0972,2.00636-.00294.07971.06886.16216.106.24334a1.21211,1.21211,0,0,1,.09645-.26672c.41193-.62924.20193-1.25412-.10526-1.983m-1.12924,5.64625.2864.49172c.04142-.138.08093-.27663.12467-.41387.06677-.20956.14374-.41613.20294-.62774.066-.236.117-.47627.17461-.71465-.14343.16519-.29723.32266-.42743.49771a2.27093,2.27093,0,0,0-.36119.76683m-7.59678,8.00741a2.09189,2.09189,0,0,0,.0125.59779,2.08324,2.08324,0,0,0,.32856.49836,2.25017,2.25017,0,0,0,.25534-.688,2.46559,2.46559,0,0,0-.19548-.81453c-.01926-.057-.21135-.12338-.23829-.09724-.07762.07531-.11154.19567-.16263.50364m2.66914-3.901a.37358.37358,0,0,0,.07191.06852c.017.00947.06043.006.06731-.00587a1.42261,1.42261,0,0,0,.258-.48845,3.983,3.983,0,0,0-.06339-.87007.55712.55712,0,0,0-.24987-.00554c-.09873.31176-.4665.56665-.22358.95358a.66527.66527,0,0,1,.13967.34783m-.616-1.64255.06809.27339a1.57959,1.57959,0,0,0,.751-1.42795.73672.73672,0,0,0-.08568-.1652c-.07108.06121-.17322.10853-.20789.186-.15163.3389-.28369.68656-.52553,1.13371M10.64274,21.04332l-.28629-.49159a4.68287,4.68287,0,0,0-.1199.5158,1.34521,1.34521,0,0,0,.00809.50453c.02218.08155.17444.12772.2679.18988.0434-.07835.12391-.1577.12183-.23482a1.09847,1.09847,0,0,1,.00837-.4838M15.26241,32.6438c.02374-.02373.07061-.05127.06743-.07062-.01874-.11442-.04911-.22688-.07557-.34-.23683.19925-.47641.3955-.70545.60335-.01908.01731.033.113.052.17233a1.40539,1.40539,0,0,0,.14212-.05211,3.19371,3.19371,0,0,0,.51943-.31294m4.31167-9.44464a.76833.76833,0,0,0-.25425.97446.07685.07685,0,0,0,.06854.0289c.36867-.21186.28023-.57187.18571-1.00336M12.08,30.488c.06844-.27842.14748-.555.19877-.83648.01517-.08326-.04791-.18081-.07514-.27179-.07231.05832-.20293.11266-.20723.17562a2.23467,2.23467,0,0,0,.0836.93265M3.9699,24.22576a2.80339,2.80339,0,0,0-.26673.4854c-.03124.09451.03972.22281.06462.33587.10159-.08421.24884-.14915.29436-.257a.49991.49991,0,0,0-.09225-.56425m11.8058,6.05688c.34326-.00388.5298-.12138.33082-.4863a4.10309,4.10309,0,0,0-.27409-.39171c-.01891.19108-.03829.38211-.0563.5733-.0031.03285-.00043.06624-.00043.30471M7.15233,22.89119a1.88311,1.88311,0,0,0-.13942-.336c-.04158-.06436-.13435-.09561-.20416-.1417a.7234.7234,0,0,0-.06473.17c-.02727.23867.004.27406.40831.3077m6.67284,2.36116-.47339.06276.675.34787a.4061.4061,0,0,0-.2016-.41063m-2.77179.51329H11.464l-.06015-.47079a.92012.92012,0,0,0-.35048.47079M29.94265,21.454c0-.03223.01289-.08356-.00206-.09364-.1045-.07047-.21475-.13241-.32315-.19709l.01743.59851.30778-.30778m-3.901,2.87446-.33485-.28109c-.02527.05268-.08318.14078-.07059.15239a.44584.44584,0,0,0,.40544.1287M24.707,21.146l.08215-.12316c-.0616.00684-.12319.01369-.08215.12316m4.825,1.12925.12319.08214C29.64837,22.29576,29.64152,22.23418,29.532,22.27523ZM21.93524,5.95243c0-.06842.00173-.13692-.00029-.20529-.009-.3063-.0479-.65911.295-.79213.36981-.14348.65792.12294.93689.33172.10705.0801.21032.16524.31529.24812a1.02186,1.02186,0,0,0,.08708-.3695c-.04043-.24991-.14574-.48886-.19235-.73829-.06078-.3253.01169-.66558.3689-.708.20226-.024.43545.20347.65147.32347.01451.0081-.01054.07178.00377.09825.17519.32437.3543.64661.5324.9694.02723-.36508.0485-.73072.08341-1.095a.57048.57048,0,0,1,.82525-.39457,8.19044,8.19044,0,0,1,.94109.91709c.09529.09494.19329.18714.29006.28058.061-.141.2096-.3655.16821-.40891-.20493-.215-.27843-.43733.00955-.5646a1.43511,1.43511,0,0,1,.69248.01126,4.69324,4.69324,0,0,1,.562.13639c.06207-.277.26738-.66137.15682-.80874-.24032-.32021-.16237-.52593.10258-.63894.13071-.05579.38172.11895.5539.2279a5.11186,5.11186,0,0,1,.36891.354c.39181.30961.708.19908.8693-.30144a7.61544,7.61544,0,0,1,.2152-.73194c.07373-.16808.20977-.40656.343-.4241.14133-.01862.33476.16527.463.30083a.97388.97388,0,0,1,.20348.4237.29444.29444,0,0,1-.09039.25923c-.57859.34286-.60029.35357-.722.61232-.3465.73691-.51653.79465-1.31631.447-.50892-.22124-.50955-.22124-.531.34158-.0039.10249.00878.20628-.00213.30773-.05018.46653-.29923.649-.73584.54555-.69368-.16434-.68732-.16416-.7028.53352a4.3591,4.3591,0,0,1-.0825.89058c-.03791.16216-.19694.296-.3014.44262a2.82192,2.82192,0,0,1-.32281-.40864c-.25321-.4753-.46678-.9727-.73775-1.43705-.10072-.17256-.3178-.2772-.48181-.41282a4.3632,4.3632,0,0,0-.11995.55242c-.04492.49836-.03156,1.00567-.12152,1.49465-.04015.21828-.27256.40116-.4177.60012a5.85276,5.85276,0,0,1-.3577-.57069c-.09622-.19793-.1382-.42179-.22844-.6233-.03921-.08752-.13957-.14768-.21214-.22026a.91727.91727,0,0,0-.09893.26314c-.01309.27309.00926.54816-.00955.82057a1.699,1.699,0,0,1-.118.565,1.9734,1.9734,0,0,1-.32121.4034c-.12576-.13966-.35891-.28059-.35726-.41871a1.748,1.748,0,0,0-.39-1.0783,1.275,1.275,0,0,0-.14387-.145c-.034.05431-.09808.10905-.09734.16289.00552.40477.01274.81024.045,1.21346.00944.118.16327.24126.144.34164a9.465,9.465,0,0,1-.26142.91556,7.31377,7.31377,0,0,1-.49977-.64839c-.06256-.10075-.00052-.27554-.05733-.38414a1.88234,1.88234,0,0,0-.31375-.35512,1.87086,1.87086,0,0,0-.08435.37414,6.49184,6.49184,0,0,1-.20738,2.27627c-.07962.20685-.12.43059-.2155.62869-.0426.08837-.17689.13253-.26956.19677a.77583.77583,0,0,1-.12826-.236c-.14346-1.07148-.27825-2.14411-.4148-3.21652a1.44161,1.44161,0,0,0-.05173-.389c-.12761-.28973-.28447-.56661-.42961-.84862a7.8892,7.8892,0,0,0-.1287.90646c-.0199.64947.0173,1.30131-.01989,1.94922a1.78787,1.78787,0,0,1-.28649.59491c-.1168-.11169-.217-.26377-.35616-.321a.38034.38034,0,0,0-.3558.09391c-.10365.22928-.12512.4943-.2138.7323a1.3522,1.3522,0,0,1-.2527.32379c-.123-.10817-.30935-.19536-.35379-.32958a2.08549,2.08549,0,0,1-.01568-.61074,2.768,2.768,0,0,0-.02657-.8113,5.50192,5.50192,0,0,0-.49258-.91132c.00824.3463.00829.693.0276,1.03874.01279.22873.12742.47939.06447.67849-.10353.3274-.37692.902-.469.88145-.46594-.10416-.31918-.56209-.33507-.91328-.00309-.06827.029-.162-.00479-.20153-.67272-.78656-.32538-1.729-.40548-2.605-.0062-.06785.026-.15555-.00615-.20146a2.74234,2.74234,0,0,0-.27477-.29828,1.30839,1.30839,0,0,0-.12684.30131,18.26975,18.26975,0,0,1-.80428,3.87541c-.09188.24153-.13772.31489-.3763.31823-.352.00488-.27933-.2447-.25361-.42057.07949-.54374.18792-1.08335.28764-1.62407.035-.1899.09251-.37708.10933-.56816.00749-.08511-.06023-.17687-.09382-.26559a1.05113,1.05113,0,0,0-.214.21594c-.31164.58856-.59452,1.19326-.92738,1.76922a1.36084,1.36084,0,0,1-.49549.441c-.27-.22858-.64481-.43643-.51163-.89451.12395-.42632.29274-.84157.38607-1.27371.02914-.13492-.123-.309-.19222-.46515a1.69813,1.69813,0,0,0-.19742.37164c-.08535.34381-.12115.70112-.224,1.03864a.40607.40607,0,0,1-.33021.21271c-.09886-.00919-.26869-.1913-.259-.28138.074-.68979-.23047-1.41272.18306-2.07722.06139-.09865.01788-.26918.00645-.40507-.01927-.229-.0517-.45688-.0786-.68523a2.60314,2.60314,0,0,0-.51962.66357c-.18765.54155-.277,1.11637-.4334,1.67a2.3822,2.3822,0,0,1-.2806.49866c-.10942-.18068-.2951-.35407-.31323-.54347-.04544-.47465-.0098-.95667-.01982-1.43545a.79844.79844,0,0,0-.10219-.255c-.07258.07258-.18309.13273-.21157.21975-.17777.54325-.34973,1.08925-.49562,1.6417-.04856.18391.05159.40106-.28842.40392-.27585.00233-.33556-.11214-.36184-.34249-.048-.42111-.11343-.84047-.18136-1.25895a1.177,1.177,0,0,0-.10768-.25765c-.0999.057-.22947.09133-.29375.17551-.15513.20309-.26036.44553-.42262.64152a3.57748,3.57748,0,0,1-.483.41487,2.72707,2.72707,0,0,1-.32054-.57,1.725,1.725,0,0,1-.0088-.6122c.04889-.55362-.06306-.92691-.75067-.89235-.15441.00777-.33217-.24474-.481-.3954a3.57433,3.57433,0,0,1-.29563-.389c-.0394.14442-.085.2875-.116.4337a1.46814,1.46814,0,0,1-.03374.29414c-.13291.28768-.28563.5662-.43076.84822a5.65142,5.65142,0,0,1-.64413-.76185c-.32128-.54578-.60084-1.11737-.87467-1.68929-.11924-.249-.1824-.52072-.44077-.10649-.16866.27043-.08293.77122-.57287.75044-.50912-.02155-.46744-.56272-.61111-.86042a15.92875,15.92875,0,0,1-.89735-2.39633C.84318,1.10743.70925.59686.08508.39611.02742.37759.027.18094.00008.067.09271.04532.22905-.02628.27077.01021a3.22646,3.22646,0,0,1,.709.71207A12.30886,12.30886,0,0,1,1.8053,2.43074c.28366.723.25735.74586,1.01.64262.42539-.05834.62912.25116.812.50373.35507.49043.6378,1.0329.95846,1.54886a1.12911,1.12911,0,0,0,.21456.20135c.03116-.08972.065-.17867.092-.26965a.38914.38914,0,0,0,.00154-.10218c.00332-.29939-.09041-.71734.27471-.78078a1.32013,1.32013,0,0,1,.83246.33771c.33743.24782.54146.73132,1.11153.43743.06264-.03231.36317.24058.43285.419.08111.2077-.00553.47525.04667.70162a1.9859,1.9859,0,0,0,.2791.49769c.10257-.16279.21185-.32184.30563-.48956a1.9603,1.9603,0,0,1,.20989-.42177,2.60378,2.60378,0,0,1,.47866-.32033,3.184,3.184,0,0,1,.32957.56244c.05333.15241-.01591.3441.01894.50773a1.43609,1.43609,0,0,0,.1997.36706A1.17948,1.17948,0,0,0,9.60815,6.402c.05584-.51452.19155-.95421.76447-1.10905.05729-.01546.106-.1397.14508-.13308.27906.04714.58775.22141.8224.1482.26149-.08159.42838-.4324.68769-.56809.14637-.07657.51874-.14687.46338.28617a.52763.52763,0,0,0-.00025.10256q.03459.49863.07046.99712c.18172-.27983.30286-.68423.55988-.80922a2.84264,2.84264,0,0,1,1.22436-.15835c.06712.0004.19676.364.185.55265-.02617.41906-.12694.8332-.18825,1.25068-.00822.056.036.11975.056.1799.07258-.04406.18511-.0722.21014-.13516.07022-.17655.07243-.38417.159-.54939.21219-.4048.39934-.84451,1.02044-.72395.20114.039.43313-.1201.65323-.12815a2.04845,2.04845,0,0,1,.62662.10574c.21155.06111.47526.2867.60751.22116.83431-.41362,1.06005.2287,1.3725.7323.03093.04987-.01641.15995.01875.193a.34854.34854,0,0,0,.24444.1098A.25318.25318,0,0,0,19.46333,6.77c-.03362-.42555-.09324-.849-.139-1.27371-.02488-.231-.0447-.4628-.05686-.69476-.015-.28539.11177-.3672.36295-.22617a.783.783,0,0,1,.14649.14276c.2378.23775.43789.56508.7249.68576.24237.10193.61243-.12151.87515-.039.19423.061.3067.38229.50691.63894a.56939.56939,0,0,0,.24161.06637l-.19028-.1177m-3.79838.82128-.27587.07055c.145.37174.28981.7436.4409,1.11286a.50234.50234,0,0,0,.13173-.04843c-.04279-.348.17438-.74708-.29676-1.135m2.7718.10265a.37316.37316,0,0,0,.07181.06848A.09137.09137,0,0,0,21.047,6.94a2.16148,2.16148,0,0,0,.05873-.47184.51423.51423,0,0,0-.1511-.30086c-.02654-.02644-.16265.05717-.24872.09051A2.11111,2.11111,0,0,1,20.90866,6.87636Z"/></g></g></svg>