<svg xmlns="http://www.w3.org/2000/svg" width="51.90102" height="32.22125" viewBox="0 0 51.90102 32.22125"><title>facial-hair-6</title><g id="Layer_2" data-name="Layer 2"><g id="facial-hair-6"><path id="void" d="M51.15153,2.264a.4671.4671,0,0,0,.07861-.16382c.08838.17932.16943.34973.25415.50946.03162.05945.13623.08008.20728.11853.01806-.05957.03125-.12109.05468-.17841.19544-.478-.36181-.66784-.3999-1.03711-.03564-.34747-.15991-.54669-.51147-.58349.033.2044.066.40881.10083.61291a.503.503,0,0,0-.43335.1789,2.21379,2.21379,0,0,0-.249.48553c-.01672-.02234-.041-.04413-.05774-.042-.16015.01977-.31921.04858-.47863.07458a2.66614,2.66614,0,0,0,.09655.348c.03211.07575.06983.15052.10755.22522a1.08235,1.08235,0,0,0-.07422.2096c-.01184.04877-.02271.09778-.0332.147A8.43421,8.43421,0,0,0,49.2775,4.676a5.00888,5.00888,0,0,0-.37768.57422.9185.9185,0,0,0-.11109.008c-.01709.00336-.01794.08069-.00109.17163a4.50877,4.50877,0,0,0-.53479,1.02155.93915.93915,0,0,0-.241.167c-.07007-.09015-.13892-.18146-.20825-.27161-.04346-.05621-.22266-.00769-.339-.00769.00329.09223-.03064.21588.01623.27112a2.77784,2.77784,0,0,0,.2948.27484c-.03991.05414-.0802.09253-.12048.15662-.03174.05041-.061.10193-.09131.153a1.47078,1.47078,0,0,0-.84717.99115c-.02392.08106-.04077.16242-.06054.24378a2.77565,2.77565,0,0,0-.30408-.23627c-.08972-.05853-.33655.0686-.47412.16479-.05725.04-.01624.22058-.0199.33728a.58746.58746,0,0,1,.63794.24866,4.05332,4.05332,0,0,0-.47559.815.90365.90365,0,0,0-.426.40216.82106.82106,0,0,0-.89185.37348c-.25464.34265-.53955.663-.79,1.00836a1.12095,1.12095,0,0,0-.16577.44055c-.00268.01367.01074.03046.01563.0456a4.33285,4.33285,0,0,0-.4834.49493c-.25525-.177-.3645-.11658-.5553.30994a1.63,1.63,0,0,1-1.19275,1.08142c-.11841.16528-.193.33838-.28345.46484a.88381.88381,0,0,0-.29821.25995,2.39336,2.39336,0,0,0-.6117.88794.99431.99431,0,0,0-.02905.34741c.05225-.0166.1062-.03039.15967-.04492-.01978.07117-.03882.13934-.05762.199-.09326.29694-.18408.59919-.27075.90424a.38362.38362,0,0,0-.08936.08032c-.01513.01843-.0271.03784-.04126.05652-.0155-.00323-.03149-.006-.04785-.0083-.01391-.032-.04321-.058-.05957-.08911-.0769-.17053-.16382-.33856-.24658-.50568-.01025-.02075-.21106.00653-.21912.038-.00207.00781-.00659.0155-.00915.02331a.39655.39655,0,0,0-.30078.057,2.61914,2.61914,0,0,0-.77417.985c-.09082-.068-.18994-.13232-.27271-.204a2.16937,2.16937,0,0,0-.27807.49689,2.1579,2.1579,0,0,0-.01441.608.87262.87262,0,0,0,.04224.19593,1.564,1.564,0,0,0-.25537.16571.92529.92529,0,0,0-.94519.17724,1.68473,1.68473,0,0,0-.16346.20679.43133.43133,0,0,0-.08215.00677c-.25085.08094-.43713.36145-.65222.55317.0625.05377.15454.16693.1831.15265a1.41308,1.41308,0,0,1,.1521-.05341c-.04211.09924-.093.192-.12915.29462a.85466.85466,0,0,0-.717.30383.8957.8957,0,0,0-1.25635-.00427,1.28378,1.28378,0,0,0-.08056.47589c.02514-.01074.0498-.02344.07458-.03552a2.557,2.557,0,0,0-.4386.86615.79613.79613,0,0,0-.08837-.01526c-.01563-.00171-.02674.00659-.042.00573-.07287-.09411-.134-.19445-.217-.28314-.10241-.10943-.32055-.11053-.48511-.1618a2.329,2.329,0,0,0,.14917.41949c.02967.051.06348.10016.09449.15058a.99556.99556,0,0,0-.19556.13671.84057.84057,0,0,0-.52417.37c-.10083-.111-.21875-.21429-.32507-.31171-.068-.06244-.256.00586-.389.01435a2.10633,2.10633,0,0,0,.13769.28814,2.55545,2.55545,0,0,0,.1648.20746.90921.90921,0,0,0-.70679.67676.668.668,0,0,0-.80224-.16827c-.20191-.24616-.44873-.20075-1.18042-.05433l-.00244.00635a.62808.62808,0,0,0-.54.23035,1.00214,1.00214,0,0,0-.21119.075c-.03088-.03888-.061-.078-.09643-.11609a.53646.53646,0,0,0-.50183-.14166,1.646,1.646,0,0,0-1.20154-.16327.51755.51755,0,0,0-.21338.21692.317.317,0,0,0-.02283.26672c.045.061.21863.11359.25733.07971a.93267.93267,0,0,1,.09924-.07293c-.01782.09063-.0354.18127-.052.27234a.55739.55739,0,0,0-.33179-.01978c-.00732-.01044-.0133-.02154-.02112-.03174a.56567.56567,0,0,0-.64172-.21936c-.02258-.04022-.04443-.08075-.06689-.121-.00538.05469-.01441.10992-.02271.165a.45375.45375,0,0,0-.05591.02747c-.02148-.07337-.04419-.14582-.07007-.21625a.50288.50288,0,0,0-.88964-.13916l-.00708-.02356c-.09278.129-.23462.24841-.26709.3891a.35716.35716,0,0,0-.15381-.01068,1.51928,1.51928,0,0,0-.12-.27222.50391.50391,0,0,0-.40576-.23828.49946.49946,0,0,0-.57312-.38239,1.01182,1.01182,0,0,0-.83252-.31885c-.58289.06788-.85791.45142-1.03113,1.03473-.01062.03565-.01159.07148-.02136.10712a1.14439,1.14439,0,0,0-.21582-.25391,1.038,1.038,0,0,0-.304-.75439,1.391,1.391,0,0,1,.22046-.11945,1.07876,1.07876,0,0,0,.25538-.21313c-.165-.05212-.41211-.20007-.48169-.14056-.11719.10015-.24427.2008-.37061.303a.62448.62448,0,0,0-.50891.17072.39531.39531,0,0,0-.10193-.118c-.0144-.0647-.03906-.11518-.05762-.17432.02344-.02386.04175-.05.06592-.07349.06616-.064.03735-.22625.05249-.34307a1.0235,1.0235,0,0,0-.30615.03686.62245.62245,0,0,0-.776-.20886,1.1966,1.1966,0,0,0-.21167-.54431.54248.54248,0,0,0-.71655-.23206c.06921-.06927.14086-.1366.21228-.204-.147-.04407-.33948-.16894-.43213-.1167-.24536.13831-.51245.1687-.62891.59638-.03308.12152-.05688.24414-.08667.366a2.2406,2.2406,0,0,0-.09424-.32428,1.4906,1.4906,0,0,0-.25012-.915.67118.67118,0,0,0-.22107-.19574,2.408,2.408,0,0,0,.229-.30866c-.16333-.01855-.35241-.09723-.484-.0412a1.10861,1.10861,0,0,0-.29114.19458,2.28146,2.28146,0,0,0-.14649-.28637.60912.60912,0,0,0-.59838-.26819,2.96037,2.96037,0,0,0-.14429-.29065c.022-.0343.0376-.07056.06091-.10443.03345-.04846-.02234-.21387-.08386-.25647a.24539.24539,0,0,0-.16284-.00977c-.0083-.01819-.0177-.03241-.02564-.05121a.563.563,0,0,0-.96557,0,3.25541,3.25541,0,0,0-.17725.37348.80334.80334,0,0,0-.08521-.16065c.06055-.06231.13086-.12115.19068-.17944.13623-.13275.28674-.25067.43115-.37506-.25354.02319-.58-.04328-.744.09a2.32779,2.32779,0,0,0-.20739.192,1.49691,1.49691,0,0,0-.33082-.10785c-.01049-.00214-.0205-.00214-.031-.00372-.00659-.12622-.0166-.25641-.02722-.3877.02881-.07269.05407-.14721.08069-.22107-.04151-.001-.0857-.007-.1294-.01214a.49787.49787,0,0,0-.71948-.30689.75969.75969,0,0,0-.08032.04553.69139.69139,0,0,0-.13721-.31012.51289.51289,0,0,0-.197-.15545c.03625-.06592.06689-.13379.10547-.199.0625-.10565-.08643-.33636-.13721-.50891a2.54544,2.54544,0,0,0-.25928.31684c-.04736.081-.08569.165-.12976.24707a.58676.58676,0,0,1-.06042-.02521.47923.47923,0,0,0-.19287-.06244,2.60635,2.60635,0,0,0-.05823-.39447c-.00037-.07422.007-.14929.00842-.22369a.701.701,0,0,0,.01025-.17359l-.00366-.00372c.00391-.09107.00147-.18146.01013-.27295a.46311.46311,0,0,0-.46289-.46289,1.21836,1.21836,0,0,0-.83178.458l-.00306.00054a.67413.67413,0,0,0-.08886-.10284L9.282,15.623a2.219,2.219,0,0,1,.47058-.52137c.15576-.1217.313-.2417.46948-.36248a2.15261,2.15261,0,0,0-.75122.05712.69473.69473,0,0,0-.2561.23816.43217.43217,0,0,0-.61865-.32837.4266.4266,0,0,0-.301.0271c-.01367.01154-.02551.025-.03906.03669.031-.46668.05981-.93372.09888-1.39972A.36176.36176,0,0,0,8.164,13.029c.08252-.1369.15832-.27691.25427-.40765a1.26494,1.26494,0,0,0,.12061-.38678,1.15768,1.15768,0,0,0-.34656.12347,2.24954,2.24954,0,0,0-.36792.374c-.00293-.04975-.00635-.09906-.00879-.14924a.89993.89993,0,0,0-.2594-.61175c.01465-.0174.03064-.033.04578-.04962-.0542-.01294-.1106-.03376-.16651-.0528a1.36814,1.36814,0,0,0-.40014-.7431.47783.47783,0,0,0-.1388-.0921.35381.35381,0,0,0-.11047-.14954c.03638-.03162.07373-.06287.109-.09485a2.986,2.986,0,0,1,.48864-.29974,1.45,1.45,0,0,0-.53833-.10144,1.46907,1.46907,0,0,0-.68334.31286c-.045.04224-.0752.09278-.11768.13642a.60664.60664,0,0,0-.07227-.08826.7229.7229,0,0,0-.20788-.14819c-.00708-.14337-.01624-.28638-.03064-.42853-.00635-.06189-.02173-.11682-.03174-.17584.023-.01245.0415-.02808.06543-.03992.08777-.04358.12915-.18079.19214-.27454a1.42813,1.42813,0,0,0-.35584-.02777.79891.79891,0,0,0-.68469-.533.36015.36015,0,0,0-.27368.10108,4.18721,4.18721,0,0,0-.15271-.91754c.06262-.04438.12305-.0915.18494-.13684-.08069-.00715-.16919-.02717-.25562-.04377a.59905.59905,0,0,0-.58911-.414q.03113-.483.01977-.96271l.0066-.01379-.00757-.0022c-.00635-.27264-.02088-.54449-.053-.814a1.49933,1.49933,0,0,0-.02124-.41547.37755.37755,0,0,0-.49915-.269l.01-.02967c.03894-.12176.06263-.24835.0929-.37292a1.83967,1.83967,0,0,0-.345.15655l-.017.01459c.00012-.14032.006-.281-.00061-.42071A.439.439,0,0,0,2.819,4.22989a2.3305,2.3305,0,0,0-.05591-.436.36307.36307,0,0,0-.157-.21911c.029-.0315.04663-.06818.07739-.09882a2.17647,2.17647,0,0,0,.28577-.49371,5.229,5.229,0,0,0-.621.23389.4691.4691,0,0,0-.07519.06152l.00317-.03363a.33806.33806,0,0,0-.14453-.317c.1073-.21435.21082-.43042.31885-.64434.04968-.09827.105-.19379.15759-.29059C2.47636,1.98,2.32267,1.92,2.21793,1.96744a.83711.83711,0,0,0-.25268.18878A.78928.78928,0,0,0,1.85319,1.82a.42409.42409,0,0,0-.14783-.13819A1.68936,1.68936,0,0,0,1.7891.7532.39753.39753,0,0,0,1.61564.52737c.01074-.01489.01587-.03131.02685-.04614a1.0986,1.0986,0,0,0,.1023-.37341c-.13587.00085-.3186-.05292-.39722.01459A.62975.62975,0,0,0,1.2631.23349.42763.42763,0,0,0,.4567.39926C.45451.43521.44987.47092.4445.50662L.43937.5394C.3903.82126.25846,1.09708.21818,1.38223A5.98674,5.98674,0,0,1,.02164,2.51462c-.11254.32965.23694.56378.51526.499-.00622.08527-.01147.16968-.017.25433a3.83658,3.83658,0,0,1-.2428.88855.42723.42723,0,0,0,.17077.55384c-.00732.22583-.01806.45331-.0227.67846-.00061.02985.02685.06031.0498.09064a.36562.36562,0,0,0,.32532.32062c-.00891.05585-.01807.11169-.02673.16754A12.79977,12.79977,0,0,0,.55289,7.6174a.35214.35214,0,0,0,.095.2724q.00276.17643.01038.35285c-.0509.42419-.0907.85022-.15979,1.2785-.08569.53076-.35254,1.097.06751,1.54047a.3857.3857,0,0,0,.2655.11761,4.49645,4.49645,0,0,0,.06592,1.08154c-.01172.2533-.03125.5069-.06824.76117-.03821.26306-.04321.53113-.05884.79712a2.49589,2.49589,0,0,0,.00989.25043c.04956-.04321.11328-.08527.16577-.1283a4.17009,4.17009,0,0,0,.06958.57056.40586.40586,0,0,0,.29358.29144c-.01587.59656-.15784,1.59717.42285,1.9325a.432.432,0,0,0,.51355-.06623c.01538-.01568.02734-.03393.04151-.05053.00451.19287.00512.3855-.00782.57733a2.53749,2.53749,0,0,0,.24463.91723c.01441.04188.17432.0337.26685.04865-.01319-.07251-.03028-.14453-.03894-.21753-.04541-.3797-.11158-.75769-.17212-1.13611a.41909.41909,0,0,0,.49817-.01544c.0581.60632.2041,1.21423.31079,1.80542a.3874.3874,0,0,0,.13928.21021,4.60682,4.60682,0,0,0,.37537,1.21411.5564.5564,0,0,0,.44177.4328.431.431,0,0,0,.45569.17157c.36621-.10828.54834-.489.63916-.94074a.3854.3854,0,0,0,.24658-.10461,2.31828,2.31828,0,0,0,.09668.79956,4.13375,4.13375,0,0,0,.20593,1.94348,3.20114,3.20114,0,0,0,.55335.87939,1.6197,1.6197,0,0,0,.06469.34723,2.617,2.617,0,0,0,.52076.733.78248.78248,0,0,0,.10961.12176.53888.53888,0,0,0,.21094.12158.76979.76979,0,0,0,.08606.02332l.0011.00006a1.11233,1.11233,0,0,0,.38306.01794c.1958-.02319.59143.35877.6123.33228.10535-.134.1034-.22559.05884-.30084a.42959.42959,0,0,0,.073.00531,2.312,2.312,0,0,0,.41443.79162.64174.64174,0,0,0,.1344.11615,1.29365,1.29365,0,0,0,.49328.60907.72716.72716,0,0,0,.27478.044,1.0568,1.0568,0,0,0,.02124-.31629.57413.57413,0,0,0,.11072.00873,1.01922,1.01922,0,0,0,.17883-.05383,1.34135,1.34135,0,0,0,.40284.37427c.00805.15735.0144.31445.0144.471-.00086,1.09893.47986,1.43621,1.57837,1.38043a1.21232,1.21232,0,0,1,1.063.46533.57154.57154,0,0,0,.92224.29028,1.06366,1.06366,0,0,1,.10632-.0415c-.00549-.00989-.00952-.02252-.01465-.0332.02759-.02692.06592-.03974.08838-.0719l.02674-.04084a.642.642,0,0,0,.41735.16071c.183.36871.3927.72833.59156,1.0882a.46937.46937,0,0,0,.69275.176,1.3718,1.3718,0,0,0,.12792-.10077,1.38765,1.38765,0,0,0,.143.1637,1.79251,1.79251,0,0,0,.46289.75122.446.446,0,0,0,.40759.11328,3.03149,3.03149,0,0,0,.33057.44324.84316.84316,0,0,0,.25915.70947.42447.42447,0,0,0,.58509,0,1.75112,1.75112,0,0,0,.15979-.19489l.011.00122a2.67678,2.67678,0,0,0,.75513-.29065.96318.96318,0,0,0,1.06934.06934,1.3737,1.3737,0,0,0,.16259-.11737c.04.02307.0647.0351.11109.06213a.97376.97376,0,0,0,.21753.09388.934.934,0,0,0,.54175.4118.49559.49559,0,0,0,.55419-.22552c.04346-.09455.084-.19043.123-.287a.76877.76877,0,0,0,.33643-.01709.71071.71071,0,0,0,.73.09259,1.12245,1.12245,0,0,0,.58447-.39612l.00232-.00067a2.15457,2.15457,0,0,0,.175-.13812,1.25552,1.25552,0,0,0,.24341.25274.81031.81031,0,0,0,.38452.1612.7355.7355,0,0,0,.41589.16375c.035.05512.07239.10962.10437.16559.01331-.06122.03284-.12262.0492-.1839a1.30037,1.30037,0,0,0,.67846-.78784c.02185.11969.04444.23914.05957.35358.01062.08056.13575.146.208.21838a1.028,1.028,0,0,0,.10938-.24054c.02343-.13623.0437-.27472.06884-.41955.00538-.00214.011-.00031.01612-.00257a.577.577,0,0,0,.689.111,1.33406,1.33406,0,0,0-.02124.37518c.00537.05756.1344.10333.207.15448.09192-.133.24048-.2561.26587-.40076.02515-.1438.04151-.29052.0553-.43786.01038.064.02051.12793.03381.19244a.54062.54062,0,0,0,.35425.4007,2.03056,2.03056,0,0,0,.21338.57147c-.00891.015-.01355.03064-.02283.04553a.2765.2765,0,0,0,.09021.2536.26635.26635,0,0,0,.231-.03021.54726.54726,0,0,0,.7594-.22,7.08578,7.08578,0,0,0,.27527-.71314.67373.67373,0,0,0,.50708-.57367c.00659-.04913.0144-.09814.02124-.14727a.41757.41757,0,0,0,.15112-.1706.63011.63011,0,0,0,.02063-.217.66515.66515,0,0,0,.07971.09381.67418.67418,0,0,0,.75367.0738q-.01062.108-.021.21612a.93879.93879,0,0,0,.02173.19483c.07251-.01972.16394-.01813.21411-.06287a1.14262,1.14262,0,0,0,.3479-.448.91715.91715,0,0,0,.0813.08521.7159.7159,0,0,0,.35669.14593,2.02379,2.02379,0,0,0-.09632.35877c.17-.05494.38538-.06446.49769-.177a.73959.73959,0,0,0,.16149-.31268,1.48041,1.48041,0,0,0,.19361-.129,2.039,2.039,0,0,0,.1134.20563.79458.79458,0,0,0,1.31567.212,1.95117,1.95117,0,0,0,.28907-.426.70915.70915,0,0,0,.44372-.211c.12427.00763.24671.01361.30262-.04443a2.46863,2.46863,0,0,0,.36108-.515.925.925,0,0,0,.53809-.37329,1.05677,1.05677,0,0,0,.21411-.16388.5761.5761,0,0,0,.464.00232c.41406-.15789.57043-.6405.69494-1.07116.08411-.14661.161-.29761.23609-.44385.02856-.05591.05444-.11328.08117-.17011a3.80163,3.80163,0,0,0,.3346.71088c.00537.10242.012.20483.01709.30725.00342.06818-.02564.15369.00561.2016a2.73782,2.73782,0,0,0,.26148.30316,1.3739,1.3739,0,0,0,.13745-.37073l.00085-.03857a.65908.65908,0,0,0,.77222-.08557,2.69149,2.69149,0,0,0,.48987-1.68878c.0188.03711.03686.07434.05688.11126a.49079.49079,0,0,0,.7583.09766l.00965-.00928c.0094.00849.01318.01477.02331.02356.00659-.0227.01612-.04547.02344-.06823a3.1498,3.1498,0,0,0,.83252-1.29108,1.64505,1.64505,0,0,0,.38147-.78436c.08838-.29126.20251-.57465.31287-.85907a.22966.22966,0,0,0,.05639.05725c.14624.06994.37573.08758.402-.23316a.46136.46136,0,0,0,.4519-.33477c.19739-.66175.37146-1.33069.53272-2.003.057.05445.12073.1073.17956.16065a1.41408,1.41408,0,0,0,.33741.17145c.04467-.11206.13684-.229.126-.33545-.03039-.29535-.075-.58924-.11816-.88324.0542-.092.11743-.177.16968-.27057a.395.395,0,0,0,.44091.18719c.01856.01465.0354.0307.05347.04572.00659-.02307.01489-.04529.02027-.069a.391.391,0,0,0,.23535-.22919c.17627-.46191.28589-.94433.43774-1.4143a1.16887,1.16887,0,0,0,.18237-.16132.46.46,0,0,0,.48658-.006.8652.8652,0,0,1-.33936.87311c-.03345.02411.00024.22155.059.26959a.28107.28107,0,0,0,.27515-.01611,1.51032,1.51032,0,0,0,.35559-1.37207.52719.52719,0,0,0,.22754-.098.51629.51629,0,0,0,.22339-.23156,4.90829,4.90829,0,0,0,.52417-.34028,1.743,1.743,0,0,0,.34814-.88745q.09266-.41913.18408-.83954a2.64768,2.64768,0,0,0,.22681-.68377,1.8904,1.8904,0,0,0,.24475-.24268.55661.55661,0,0,0,.41785-.23285,5.2731,5.2731,0,0,0,.56787-.83111A3.30077,3.30077,0,0,0,49.75138,12.63a11.76765,11.76765,0,0,1,.2157-1.20587c.00574-.0039.00952-.01123.01514-.0155.11145.26941.22766.53595.32605.813.13671-.156.23925-.33618.19384-.46381-.10083-.28345-.22-.56024-.32763-.84131.04687-.32306.07568-.6474.10156-.97216l.011-.063a5.62771,5.62771,0,0,0,.06-.63684l.00452-.03565c.03906-.27478.08728-.54822.13147-.82214l.01636.01245a1.31212,1.31212,0,0,0,.34631.10248c-.02014-.14093.00452-.31269-.06775-.41779s-.14355-.21063-.21557-.31579c.01013-.08905.027-.17719.03381-.26667A7.31773,7.31773,0,0,0,50.4733,5.994a7.1823,7.1823,0,0,0-.15966-1.0025c.04345-.15058.07483-.304.10583-.45777a9.92174,9.92174,0,0,0,.65869,2.40094c.21265.22241.45935.56726.52161.53668.4397-.21618-.09741-.395-.07788-.63348.01318-.16241-.1853-.331-.22119-.51044-.11866-.59375-.67615-1.15045-.1731-1.8034q-.21606-.57972-.43335-1.159l.00232-.00745a.37168.37168,0,0,0-.00525-.27349c.03784-.057.10169-.0904.14282-.1568C50.96574,2.71439,51.03019,2.47647,51.15153,2.264Zm-28.88,20.45221a.31036.31036,0,0,1,.34485.07739,1.16321,1.16321,0,0,0-.15845.14258.60041.60041,0,0,0-.45141-.08319A1.16648,1.16648,0,0,1,22.27152,22.71616ZM6.36808,21.65427c-.02417-.22492-.02319-.44806-.025-.67133l.02185.00794a4.02334,4.02334,0,0,0,.15771.87878c.00391.18256.00781.36493.009.54663.00013.0191-.00061.03992-.00073.05939-.056-.14331-.11206-.29718-.15356-.414A1.9213,1.9213,0,0,1,6.36808,21.65427Zm4.97205,5.894a3.30622,3.30622,0,0,0,.3573.17431c-.00818.01221-.01856.02521-.0254.037C11.56119,27.68924,11.3942,27.63712,11.34013,27.54825ZM15.52872,29.065c-.03149-.06708-.05639-.13519-.08642-.20251a.46583.46583,0,0,0,.05847-.0022c.0332.03619.06775.071.10291.10516a1.49262,1.49262,0,0,0,.42724.65955C15.871,29.59726,15.632,29.28476,15.52872,29.065Zm7.45972,2.2887c.00537-.00568.01257-.00958.01782-.01538a1.851,1.851,0,0,0,.15723-.20319l.01306.01209C23.12809,31.2886,23.06193,31.35892,22.98844,31.35367Zm6.79114-7.88825c-.00623.00873-.015.01581-.02112.02472a.5201.5201,0,0,0-.09119.01544l-.00769-.0133c-.00573-.05023-.01269-.10022-.01892-.15039C29.68742,23.3826,29.73161,23.42575,29.77958,23.46542ZM45.35783,10.705c-.0188.05786-.03931.11663-.05664.1726l-.02894.09205c-.02026.03344-.03991.06726-.05981.10083a.82949.82949,0,0,0-.21973.01989c.07386-.15777.17163-.3136.24536-.47143C45.27824,10.64737,45.3173,10.677,45.35783,10.705Zm-1.15772.95208-.00049.00061L44.2,11.657Zm-6.20593,6.82685.00891-.0091c-.01038.03443-.02344.06714-.03345.10175-.01465.00641-.02612.01935-.04053.02624A.69591.69591,0,0,1,37.99418,18.48392ZM33.57926,29.5657c.01843-.00427.03613-.01043.054-.01623.009.01623.01757.0329.02722.04877-.00916.02288-.01978.04522-.02966.06781A1.10254,1.10254,0,0,1,33.57926,29.5657Zm5.265-2.70477a4.20907,4.20907,0,0,1-.21155-.42377c-.022-.07147-.03906-.14245-.05335-.21325a.41218.41218,0,0,0,.36072-.00763C38.91642,26.43314,38.88554,26.64853,38.84428,26.86093Zm1.57214-2.08252a.52613.52613,0,0,0,.11462.02942,2.31191,2.31191,0,0,0,.07361.28021c-.03943.08686-.07727.175-.12231.25635a4.2333,4.2333,0,0,1-.10327-.54059A.4242.4242,0,0,0,40.41642,24.77841ZM9.23258,9.26382a2.46881,2.46881,0,0,0,.58472,1.38141c.00683.01172.00989.0271.01709.03858a.42273.42273,0,0,0,.02917.03113,4.94229,4.94229,0,0,1,.27014.4259c.01978.03638.22022-.02588.33643-.04224a1.587,1.587,0,0,1-.01269-.33423,1.2164,1.2164,0,0,0,.35351-.509.70373.70373,0,0,0,.21924.04376l.0105.02472a.61671.61671,0,0,0,.777.3512c.01648.01752.03467.03436.05042.05218l-.01636-.05883.01062-.00214a1.55129,1.55129,0,0,0,.12488.22607.44963.44963,0,0,0,.309.20069.70818.70818,0,0,0,.20642.08569.88351.88351,0,0,0,.11572.017c.01319.02936.03235.05463.04737.08289.04565.16662.09668.33239.149.49609.02723.085.18177.12921.27771.19214.00513-.02771.01319-.05567.02051-.08356.07007.69525.30054,1.98688,1.14783,1.82416l.02112-.00507c.03808.08319.06763.17206.10986.25092.18311.34228.38745.34063.53552.11664a.96923.96923,0,0,0,.51319-.06318,2.75642,2.75642,0,0,0,.29638.66211.4637.4637,0,0,0,.71888.09266c.026-.025.04565-.05378.06994-.07984a.74145.74145,0,0,0,.18885-.18451c.02172.02161.04394.04291.06787.06311l.02905.02374q.03478.02729.07251.05256c.01343.00872.02649.01812.0404.02612.02344.01428.04725.02838.07251.0415a.53035.53035,0,0,0,.1919.05518,1.01387,1.01387,0,0,0,.14831.01544.86279.86279,0,0,0,.53589.40393.77341.77341,0,0,0,.69312-.16528c.02148.00915.04541-.0011.0675.00458q.03552.1235.07044.24725a1.23443,1.23443,0,0,0,.48254.60474.59489.59489,0,0,0,.51941-.08753c.00806-.00561.0116-.01745.019-.02374.00977.01019.01258.02411.02271.034a.465.465,0,0,0,.45239.11956c.023-.00726.045-.01593.06738-.02435a.76359.76359,0,0,0,.24781.24371c.08276.1073.17309.21936.27832.35028.02539.00507.05114.01093.07678.01648a.73372.73372,0,0,0,.87195.02918.93839.93839,0,0,0,.24634.37268c.03137.295.218.40631.54345.47217.351.071.42505-.13538.51685-.32294a.601.601,0,0,0,.27759.09265.63306.63306,0,0,0,.33947-.0791,1.39528,1.39528,0,0,0,.88343.673c.26953.0625.37182-.04241.42627-.198a1.06619,1.06619,0,0,0,.90087-.50855c.03345.03974.06714.07935.10059.1192.12634.15082.25732.25653.40137.19318.01611.01337.02685.029.04394.04193a.37936.37936,0,0,0,.3783.03674c.01623.07.03113.13977.05066.21009a.49594.49594,0,0,0,.46.35022.56448.56448,0,0,0,.35376-.07221c.07153.03552.13232.059.1405.04852a2.55571,2.55571,0,0,0,.236-.3319.73014.73014,0,0,0,.454.64569.3918.3918,0,0,0,.27967-.005.51747.51747,0,0,0,.69409.03083.54076.54076,0,0,0,.314.26446.611.611,0,0,0,.68152-.27142c.04053.24011.08118.4801.1427.71472.03833.14593.18848.26257.2876.39258a1.8978,1.8978,0,0,0,.28149-.40619.39723.39723,0,0,0,.5437-.18878.5674.5674,0,0,0,.39087-.08857c.0149.01984.03125.03919.04517.05927l-.01123-.08563a.44267.44267,0,0,0,.15747-.21826.49656.49656,0,0,0,.47742-.158.67124.67124,0,0,0,.347-.14228,2.46977,2.46977,0,0,0,.6399-1.04614.45425.45425,0,0,0,.681-.16693c.03674-.07538.07812-.15009.11608-.22522a.53319.53319,0,0,0,.13477-.2616c.05945-.11395.11548-.22839.17651-.34222a.36612.36612,0,0,0,.17286-.10913c.01416-.0166.02685-.03394.041-.0506a.49063.49063,0,0,0,.29346.0202.725.725,0,0,0,.14258-.07049c.001.02429-.001.04883.00073.07306a1.66041,1.66041,0,0,0,.06079.48718c.03918.0979.18237.15417.279.22906a1.2589,1.2589,0,0,0,.0669-.27844c.00219-.21338.00232-.43139.00268-.64911a.53155.53155,0,0,0,.34046.22858.84292.84292,0,0,0,.02917.10571.512.512,0,0,0,.61328.34821c.52954-.11646.84009-.73816,1.09546-1.16107l.01245-.02039c.40552-.03754.74561-.568.93811-.847.345-.5003.64966-1.03021.94495-1.56353l.00964-.00647a3.61005,3.61005,0,0,0,.76087-.97071.57738.57738,0,0,0,.42773-.13092,9.85857,9.85857,0,0,0,1.82056-2.28967A.42834.42834,0,0,0,43.195,9.3804,5.54571,5.54571,0,0,0,44.5535,7.95792c.16785-.25251.32679-.51038.49353-.76368a.52535.52535,0,0,0,.57837-.09564c.33265-.27313.39478-.72259.59424-1.06292a.48072.48072,0,0,0,.33936-.244c.11157-.19538.20874-.39173.30456-.59528.28589-.60766-.61926-1.14087-.90612-.52954-.01343.02863-.02735.05621-.041.08453-.03442-.01641-.06909-.03314-.10156-.04754-.04077.11212-.09082.22363-.12671.336a1.14215,1.14215,0,0,0-.29346.39666.57514.57514,0,0,0-.545.129,1.01737,1.01737,0,0,0-.24939.33655.42555.42555,0,0,0-.43384.04285c-.05359.03967-.10132.08227-.14954.12475a.28044.28044,0,0,0-.19592-.00183.495.495,0,0,0-.53979.2168c-.22437.33813-.53833.54687-.78406.85541a.432.432,0,0,0-.546.1062c-.01367.01513-.02661.03137-.04029.04675a.49115.49115,0,0,0-.727-.03711,5.038,5.038,0,0,0-.697.77838.42961.42961,0,0,0-.24487.04962l-.00025-.061c-.00109-.09522-.0852-.18945-.13085-.28412-.07227.07227-.19117.13525-.20789.21869a3.39391,3.39391,0,0,0-.05066.46155,3.85093,3.85093,0,0,0-.41894.55322.55674.55674,0,0,0-.39063.05279.49738.49738,0,0,0-.73145.09974,9.11756,9.11756,0,0,0-.51232.7688.39251.39251,0,0,0-.192.07391c-.01074.00775-.01709.01984-.02759.02783.002-.15106-.02246-.28894-.25683-.21521a.6502.6502,0,0,0-.3191.51312c.00025.01654.00537.03308.006.04963a.45578.45578,0,0,0-.617.31329.81414.81414,0,0,1-.09143.197.816.816,0,0,0-.18494.02576.48776.48776,0,0,0-.665.03253c-.18372.21075-.3573.42834-.52674.64892a.53092.53092,0,0,0-.24463-.23065.53694.53694,0,0,0-.28784-.28631c-.03-.11353-.05969-.22608-.08154-.33368-.0249-.12342-.15967-.22461-.24426-.33594-.06116.1297-.172.25793-.17566.38928-.00354.11987-.00074.2395-.00318.35932-.033.03417-.074.05053-.09875.10064-.09925.20142-.19861.40582-.29761.61151a3.11233,3.11233,0,0,0-.35413.44068.51171.51171,0,0,0-.29077.29541l-.00805.01971a.5809.5809,0,0,0-.27686-.33746l-.00207-.0069a.31586.31586,0,0,0-.2721-.15222.36717.36717,0,0,0-.17334.20422c-.0249.01917-.05151.02076-.07532.04682a3.05488,3.05488,0,0,0-.47546.74334.49537.49537,0,0,0-.11987.1131c-.0083-.136-.01526-.27209-.02442-.408-.00659-.09845.0166-.24267-.03759-.28564a3.14476,3.14476,0,0,0-.4878-.27332c.00366.04254.00855.0849.01172.12751a.53605.53605,0,0,0-.70959.30139c-.01038.02868-.01966.05749-.02967.08618a1.45346,1.45346,0,0,0-.38745.45221.47631.47631,0,0,0-.11279-.07727c-.03418-.05921-.06714-.11963-.10034-.178-.03638-.06415-.22412-.12439-.24683-.09955a.56528.56528,0,0,0-.12964.24988.46107.46107,0,0,0-.158.12842.51106.51106,0,0,0-.71045-.0896.558.558,0,0,0-.29565-.07392,2.51921,2.51921,0,0,0-.04614-.269.49238.49238,0,0,0-.676-.2998.43743.43743,0,0,0-.31543-.12842.61466.61466,0,0,0-.18933.02917.49477.49477,0,0,0-.42981-.396.62706.62706,0,0,0-.35339-.48023.66388.66388,0,0,0-.76795.13458.462.462,0,0,0-.665-.24786,1.45083,1.45083,0,0,0-.54724.91357.45714.45714,0,0,0-.21423-.10333,3.0594,3.0594,0,0,0-.05334-.39233.46529.46529,0,0,0-.3357-.3357.82363.82363,0,0,0-.35779.02509c-.00537-.03693-.01123-.07391-.01538-.11084-.05468.06238-.10717.12659-.16259.1886a.85135.85135,0,0,0-.234.20849.42778.42778,0,0,0-.16516-.01086.47437.47437,0,0,0-.23829-.3446,1.07436,1.07436,0,0,0-.32934-.81647A.53494.53494,0,0,0,21.74,10.519a.59378.59378,0,0,0-.86023-.35754,1.27817,1.27817,0,0,0-.20972.111.62987.62987,0,0,0-.35473-.15167c.021-.04669-.00562-.0929-.14747-.14368a.51523.51523,0,0,0-.29687-.02777.83991.83991,0,0,0-.55347-.73419.44378.44378,0,0,0-.44922.11877c-.00854.0105-.01562.02179-.0238.03247a.80817.80817,0,0,0-.10071-.01519c.02686-.05884.05445-.11731.0813-.176-.16089.00177-.43323-.04919-.46326.0144-.04028.08527-.08044.17426-.11865.26441a.6526.6526,0,0,0-.40784-.1366.78761.78761,0,0,0-.24194-.38971c.02149-.05218.03247-.10559.05689-.15741.05127-.10949-.06531-.29785-.10413-.44964a1.66319,1.66319,0,0,0-.28992.28033c-.03515.05579-.06262.11469-.094.17194a.92656.92656,0,0,0-.10816-.01355.88751.88751,0,0,0-.60131.26257.53209.53209,0,0,0-.41944.05921c-.062-.30652-.21692-.54419-.52661-.55756a.33108.33108,0,0,0-.21008.01959c-.01477.0036-.02442-.00067-.0398.00372a.69407.69407,0,0,0-.0841.03144c-.01636-.0069-.03223-.01422-.04932-.02a.59209.59209,0,0,0-.71191.23407.91778.91778,0,0,0-.24866-.41242l.00012-.00647c-.00183-.0874-.13171-.17218-.20215-.25818-.03.04059-.06762.07966-.10193.11945a.43226.43226,0,0,0-.19738.01935c-.0398-.38287-.19471-.73718-.59156-.80646a.61048.61048,0,0,0-.19165.00745c-.03332-.05371-.07312-.1073-.10229-.16107a1.36239,1.36239,0,0,0-.21118.27887L12.556,7.5773a.4447.4447,0,0,0-.22376.069l.00037-.01025a.42078.42078,0,0,0-.416-.416.6003.6003,0,0,0-.33264.1098.4161.4161,0,0,0-.38354-.13c-.04957-.03717-.10816-.07336-.15162-.11121-.02295.02863-.0542.05719-.08252.08576a.54147.54147,0,0,0-.44165-.02643A2.40118,2.40118,0,0,0,10.392,6.8533a.31051.31051,0,0,0-.47339-.08356,1.76492,1.76492,0,0,0-.224-.49395.42337.42337,0,0,0-.25086-.1601c-.00012-.01312.00049-.02618.00025-.0393-.00122-.06354-.0835-.12555-.12818-.18824-.04809.04816-.12182.08832-.13977.14594-.01184.03778-.02429.07678-.03723.11517a.34153.34153,0,0,0-.17505.22205,2.27607,2.27607,0,0,0,.20484,1.82177C9.19694,8.54984,9.22587,8.90665,9.23258,9.26382ZM22.52213,16.9614a.79617.79617,0,0,0,.15613-.0611.92951.92951,0,0,0,.17481-.14392l.00378.02264C22.74491,16.87918,22.63151,17.02359,22.52213,16.9614Zm1.655.02783c-.05237-.09253-.09472-.18769-.14172-.28168a.73275.73275,0,0,0,.23694.03473,1.05121,1.05121,0,0,0,.20642.54242c-.02063.02325-.04261.046-.06177.06988C24.33671,17.233,24.24894,17.11569,24.17716,16.98923Zm-4.69873-1.60071.00415.0061c-.11157.2193-.24719.00812-.29822-.11242A.88628.88628,0,0,0,19.47843,15.38852ZM51.89933,3.13626c-.05811-.01025-.06494-.07184-.07178-.13342A.12208.12208,0,0,1,51.89933,3.13626Z" style="fill:#fff"/><path id="fill2" d="M50.50237,1.72091a4.74251,4.74251,0,0,0-.33155.67063,2.26507,2.26507,0,0,0-.324.63024c-.01183.04873-.02276.09779-.03315.147A8.441,8.441,0,0,0,49.27743,4.676a3.94889,3.94889,0,0,0-.403.61738,4.42436,4.42436,0,0,0-.62166,1.158,1.38275,1.38275,0,0,0-.59768.5903c-.03178.05042-.0609.102-.09135.15295a1.47111,1.47111,0,0,0-.84713.9912c-.06707.22757-.11162.45714-.16972.68438a3.84145,3.84145,0,0,0-.52654.88884c-.42064.16781-.58549.68617-.71929,1.1185l-.02883.09206c-.02032.03348-.03988.06725-.05987.10082-.5041-.05635-.87708.30834-1.154.79954a.54867.54867,0,0,0-.26187.12638,4.72787,4.72787,0,0,0-1.313,1.83616c-.03984.09867-.07563.19913-.10915.30054a.49443.49443,0,0,0-.63839.17911.73209.73209,0,0,0-.30994-.00144c-.67085.12942-.84971,1.191-1.01552,1.719-.09324.29691-.18412.59919-.27064.90425a.38145.38145,0,0,0-.08954.08031c-.015.01839-.02692.03783-.04111.05648-.01557-.00324-.03157-.00595-.04788-.00828a1.31282,1.31282,0,0,0-.26965-.40349.471.471,0,0,0-.56559-.073,3.60828,3.60828,0,0,0-1.15653,1.99055,1.52314,1.52314,0,0,0-.39593.257.92534.92534,0,0,0-.94522.17721,2.67133,2.67133,0,0,0-.69181,1.16062c-.36652-.06663-.72189.24511-.98754.61169-.02239-.02971-.04211-.0607-.0657-.08989a.45737.45737,0,0,0-.45942-.12145,1.6529,1.6529,0,0,0-.90529,1.20572.80145.80145,0,0,0-.08836-.01525.81718.81718,0,0,0-.696.26759.97359.97359,0,0,0-.65165.582.78473.78473,0,0,0-.091-.02226c-.48038-.08812-.75633.29-.89987.68526-.21441-.25221-.527-.33841-.98721-.09745a.93641.93641,0,0,0-.3461.31288.52215.52215,0,0,0-.0912.01541c-.03029-.05452-.06025-.10923-.09411-.16218a.61154.61154,0,0,0-1.00667-.05452,1.00191,1.00191,0,0,0-.21109.07494c-.03092-.03891-.061-.078-.09638-.11611a.53544.53544,0,0,0-.53422-.14121,1.141,1.141,0,0,0-.10807.05344.53542.53542,0,0,0-.92352.18339c-.0247.12017-.04722.24109-.06926.3622a.55811.55811,0,0,0-.33188-.01976c-.00732-.01044-.01322-.02157-.02106-.03175a.54483.54483,0,0,0-.78726-.14782c-.02142-.07333-.04415-.14582-.06994-.21624a.51883.51883,0,0,0-.99114,0c-.02605.07667-.04978.155-.07367.23326a.38954.38954,0,0,0-.25282-.01757,1.53084,1.53084,0,0,0-.12-.27221.504.504,0,0,0-.40578-.23827.50113.50113,0,0,0-.62292-.37951.96756.96756,0,0,0-.48944.32048c-.38064-.24514-.76426-.03656-1.04609.28781a1.57566,1.57566,0,0,0-.29965.212,1.14476,1.14476,0,0,0-.21578-.25407.90338.90338,0,0,0-.47989-.87045.63217.63217,0,0,0-.70954.1166.39639.39639,0,0,0-.10186-.118c-.13093-.589-.42629-.96888-1.0214-.76285a1.19781,1.19781,0,0,0-.21166-.54434c-.40236-.528-.84477-.28648-1.24952.25571a1.30031,1.30031,0,0,0-.27336.25591q-.04952-.00207-.09936.00078a2.34127,2.34127,0,0,0-.12408-.42706,1.49051,1.49051,0,0,0-.25007-.915.64247.64247,0,0,0-.72143-.26157,2.36861,2.36861,0,0,0-.19221-.37585.60929.60929,0,0,0-.59849-.26815c-.09886-.24249-.24095-.44362-.35571-.71255a.563.563,0,0,0-.96556,0,3.24955,3.24955,0,0,0-.1772.37346.86639.86639,0,0,0-.74557-.541c-.01049-.00213-.02058-.00213-.031-.00373-.00848-.15993-.01944-.32221-.03454-.4911a.51353.51353,0,0,0-.76094-.43669.7734.7734,0,0,0-.0804.04549.68916.68916,0,0,0-.13716-.3101c-.2014-.25872-.43191-.17927-.67819-.32463a.47932.47932,0,0,0-.19291-.06244,2.60274,2.60274,0,0,0-.05818-.39446c-.00126-.22371.0039-.44807.02513-.674a.463.463,0,0,0-.46285-.46286,1.21829,1.21829,0,0,0-.83181.458l-.00307.00049a.67624.67624,0,0,0-.08877-.10282l-.01235-.02419a.55843.55843,0,0,0-.07174-.09212c.0078-.14651.01466-.29229.02016-.43638a.42558.42558,0,0,0-.78729-.21324c-.022.04277-.04068.08591-.05978.129a.54382.54382,0,0,0-.13476.01738c.03716-.54634.07-1.09327.11583-1.63893a.42307.42307,0,0,0-.51718-.40863c-.00762-.126-.01607-.25146-.02223-.37863a.89094.89094,0,0,0-.27459-.63355.95058.95058,0,0,0-.10484-.07844,1.36918,1.36918,0,0,0-.40083-.74531.47664.47664,0,0,0-.13877-.09206.4582.4582,0,0,0-.28773-.25208.63637.63637,0,0,0-.56436.056.59586.59586,0,0,0-.07243-.08849.72047.72047,0,0,0-.20785-.14821c-.00708-.14337-.01625-.28638-.03061-.42853-.05408-.53515-.23578-.97936-.81469-1.05106a.36.36,0,0,0-.27375.10105C4.594,8.555,4.475,7.67349,3.8326,7.71a9.81517,9.81517,0,0,0-.034-1.79267,1.49691,1.49691,0,0,0-.02132-.41551A.41835.41835,0,0,0,3.038,5.375l-.01833.00681c.0106-.26789.01123-.53515-.00129-.80121A.4392.4392,0,0,0,2.819,4.22992a2.32888,2.32888,0,0,0-.056-.436.40719.40719,0,0,0-.51151-.28448c.00827-.08849.01795-.17685.02468-.2654a.36347.36347,0,0,0-.37183-.39911,1.32359,1.32359,0,0,0-.05127-1.02488.42261.42261,0,0,0-.14779-.13816A1.68948,1.68948,0,0,0,1.7891.75323a.44377.44377,0,0,0-.508-.29855c.0018-.01852.00458-.03655.00568-.0554.0313-.53522-.79239-.52952-.83019,0C.45451.43521.4499.471.44455.50665L.43938.53944c-.049.28186-.18094.55763-.22124.8428A5.98593,5.98593,0,0,1,.02163,2.51461c-.11808.346.27419.5972.55749.49651a6.60008,6.60008,0,0,1-.302,1.14543A.4406.4406,0,0,0,.5237,4.758c-.02165.21808-.04029.4358-.05723.64858a.36361.36361,0,0,0,.33384.39354c-.00893.05583-.01806.11166-.02668.16752A12.78285,12.78285,0,0,0,.553,7.6174a.35352.35352,0,0,0,.14069.32745c-.07419.522-.10992,1.04794-.19519,1.57632-.08566.53076-.35264,1.097.0675,1.54046a.3855.3855,0,0,0,.26543.11761A4.33138,4.33138,0,0,0,.91455,12.3827a.37.37,0,0,0,.08319.15868,6.56577,6.56577,0,0,0,.01778,1.97036.40577.40577,0,0,0,.29363.29145c-.01592.59658-.15781,1.5972.42283,1.93254a.432.432,0,0,0,.51351-.06624,1.18787,1.18787,0,0,0,.11483-.13967,1.39669,1.39669,0,0,0,.08783.148.43135.43135,0,0,0,.62956.11522c.05816.60633.20426,1.21422.31093,1.80546a.40574.40574,0,0,0,.16756.23831c.027.07772.05559.15436.08767.22858a1.97489,1.97489,0,0,0,.20157.35843,7.56946,7.56946,0,0,0,.46878,1.00538.43742.43742,0,0,0,.48643.19795c.36617-.10825.54833-.489.63922-.94071a.38554.38554,0,0,0,.24657-.10465c-.017.58541.09082,1.15764.59845,1.38014a.64639.64639,0,0,0,.08.02892,4.0167,4.0167,0,0,0,.1578.8788c.0038.18254.00782.36491.009.54663a3.86492,3.86492,0,0,0,.07538,1.13523,2.87983,2.87983,0,0,0,.5422.75922.49777.49777,0,0,0,.54462.22164,2.57227,2.57227,0,0,0,.39358-.17092q.05556.05478.116.107a.56752.56752,0,0,0,.45938.13744,2.31162,2.31162,0,0,0,.41435.79165.54893.54893,0,0,0,.4701.24174.54.54,0,0,0,.56432.21991,1.02093,1.02093,0,0,0,.17879-.0538,1.92852,1.92852,0,0,0,.58488.50095c0,.09932-.00108.19861-.00429.29793-.02477.76445.33791.91486.97929,1.18317a.51285.51285,0,0,0,.56227-.20673l.05206.02461c.00213.01054.00563.02055.00739.03126a.5673.5673,0,0,0,.73671.38212,4.21279,4.21279,0,0,1,.14016.4773.61066.61066,0,0,0,1.10247.14408c.00934-.01341.01757-.02735.02675-.04084a.64679.64679,0,0,0,.61512.1599l.00343.004a.40134.40134,0,0,0,.40413.097c.0332.0362.06772.07108.103.10518a1.36924,1.36924,0,0,0,.5409.77123,1.44364,1.44364,0,0,0,.306.35042,1.79029,1.79029,0,0,0,.46286.75123.44185.44185,0,0,0,.428.11316,1.86721,1.86721,0,0,0,.17469-.07121c.00613.04349.01115.087.01792.13051A.30983.30983,0,0,0,17.663,31.21a.9489.9489,0,0,0,.24784.89424.42437.42437,0,0,0,.585,0,2.218,2.218,0,0,0,.50637-.77322.42536.42536,0,0,0,.102-.02609,1.03,1.03,0,0,0,1.38684.38433,1.50416,1.50416,0,0,0,.30277-.21851c.02092.007.04156.01312.062.01849a1.02335,1.02335,0,0,0,.6681.65051.49572.49572,0,0,0,.55424-.22554c.04354-.09455.08408-.19043.123-.287a.89176.89176,0,0,0,.805-.289,1.86377,1.86377,0,0,0,.15721-.20319,1.52507,1.52507,0,0,0,.18353.17089.485.485,0,0,0,.50745,0,2.1597,2.1597,0,0,0,.17506-.13813,1.256,1.256,0,0,0,.24345.2527.80922.80922,0,0,0,.38449.1612c.57686.42749.98415-.03119,1.26171-.671a.56576.56576,0,0,0,.15486-.01564.5733.5733,0,0,0,.29335-.04647.54128.54128,0,0,0,.94932-.33412l0-.02886a.44128.44128,0,0,0,.23618.10635c.01253.08338.02671.167.04415.25116a.54056.54056,0,0,0,.35423.40069,1.96368,1.96368,0,0,0,.23713.62046.60406.60406,0,0,0,1.034,0,7.07094,7.07094,0,0,0,.27533-.71317.6735.6735,0,0,0,.50693-.57364c.02917-.21726.06121-.43406.09451-.6507a.76982.76982,0,0,0,.17836.20964.63424.63424,0,0,0,1.04409-.27568c.01014-.03334.01737-.06806.02628-.102l.00126.00026a1.15445,1.15445,0,0,0,.326.43649.8467.8467,0,0,0,1.11312-.11385,2.07824,2.07824,0,0,0,.11336.20557.79459.79459,0,0,0,1.31566.212,1.949,1.949,0,0,0,.28915-.42608c.424-.03233.65905-.39761.78536-.789.01775.00572.03457.0126.05342.017a.78677.78677,0,0,0,.80675-.37172,1.05323,1.05323,0,0,0,.214-.16392.57616.57616,0,0,0,.464.00236c.41408-.15793.57051-.64049.695-1.07119.0841-.14657.161-.2976.236-.44384.02867-.0559.05438-.11326.08119-.17007a3.76294,3.76294,0,0,0,.367.7795.76315.76315,0,0,0,1.1623.24848,2.69143,2.69143,0,0,0,.48987-1.68876c.01875.03711.037.07435.057.11123a.49066.49066,0,0,0,.75821.09768,3.05913,3.05913,0,0,0,.889-1.345,1.645,1.645,0,0,0,.38141-.78439c.11817-.38952.27027-.76864.41843-1.14893a.49178.49178,0,0,0,.80475-.22083c.206-.69033.38893-1.38789.55577-2.08968a11.75637,11.75637,0,0,0,.67133-1.07046.41445.41445,0,0,0,.75-.06522c.1763-.46191.28594-.94438.43784-1.41434a1.16391,1.16391,0,0,0,.18242-.16133.4193.4193,0,0,0,.61251-.16091c.01293-.02837.02378-.0574.03593-.086a.67729.67729,0,0,0,.63932-.33409,4.91445,4.91445,0,0,0,.52427-.34024,1.74425,1.74425,0,0,0,.348-.88747q.09279-.41916.18413-.83952a2.64908,2.64908,0,0,0,.22687-.68379,1.89583,1.89583,0,0,0,.24469-.24272.55663.55663,0,0,0,.41789-.23283,5.28767,5.28767,0,0,0,.56787-.83109A3.30416,3.30416,0,0,0,49.75143,12.63a11.755,11.755,0,0,1,.21564-1.20588.42357.42357,0,0,0,.17724-.28739A11.64591,11.64591,0,0,0,50.276,9.9443c.00343-.021.00768-.04192.011-.063a5.61364,5.61364,0,0,0,.06016-.63683l.00449-.03564c.081-.56938.20088-1.13313.24463-1.70748a7.31737,7.31737,0,0,0-.123-1.50737,7.14915,7.14915,0,0,0-.15971-1.0025,10.198,10.198,0,0,0,.233-1.15941c.04567-.15848.09438-.31671.15-.47447a.37207.37207,0,0,0-.0052-.27352c.03784-.057.10167-.09038.14271-.15678.1316-.21291.19621-.45082.31747-.66337a.433.433,0,0,0,.12486-.26006l.00849-.071C51.34011,1.47108,50.71624,1.43024,50.50237,1.72091ZM33.63069,29.66607a1.11617,1.11617,0,0,1-.05136-.10033c.01839-.00429.036-.01048.05381-.01627.00908.01627.01772.03292.0273.04876C33.65127,29.62114,33.64067,29.64346,33.63069,29.66607Zm5.21361-2.80514a4.21313,4.21313,0,0,1-.21155-.42372,2.17409,2.17409,0,0,1-.05336-.2133.41212.41212,0,0,0,.36068-.0076C38.91647,26.43315,38.88551,26.64854,38.8443,26.86093Zm1.638-1.51654a4.265,4.265,0,0,1-.10327-.54055.41951.41951,0,0,0,.03737-.02542.50308.50308,0,0,0,.21507.0552l.00548-.00016c.00887.04238.01809.08479.02846.12717A3.85986,3.85986,0,0,1,40.4823,25.34439ZM46.86354,5.19648c-.09576.20355-.193.3999-.30456.59527a.48079.48079,0,0,1-.33933.24393c-.19955.34037-.26159.78981-.59417,1.06293a.52555.52555,0,0,1-.57846.09566c-.1667.25329-.32567.51116-.49352.76363A5.54741,5.54741,0,0,1,43.195,9.38042a.4284.4284,0,0,1-.26683.09075,9.85838,9.85838,0,0,1-1.82068,2.28966.57729.57729,0,0,1-.42773.131,3.60886,3.60886,0,0,1-.7608.97065l-.00972.00652c-.29522.53328-.59987,1.06323-.94486,1.56349-.19247.27911-.53255.80952-.93813.84708l-.01238.02036c-.25543.42294-.56592,1.04464-1.09556,1.16111a.51209.51209,0,0,1-.6133-.34822.84916.84916,0,0,1-.02914-.10571.56479.56479,0,0,1-.42873-.35.9132.9132,0,0,1-.46435.3301.49058.49058,0,0,1-.29352-.02019c-.0141.01669-.0268.034-.04109.05059a.36641.36641,0,0,1-.17288.10917c-.1478.27574-.292.55164-.42727.829a.45429.45429,0,0,1-.681.16693,2.4702,2.4702,0,0,1-.63989,1.04615.671.671,0,0,1-.347.14225.49654.49654,0,0,1-.47744.158.51281.51281,0,0,1-.58233.33317c-.19744.42251-.76367.19618-.90227-.13489a.94976.94976,0,0,1-.06808-.36109.45706.45706,0,0,1-.25508-.04964.63.63,0,0,1-.71143.30476.54067.54067,0,0,1-.314-.26448.51747.51747,0,0,1-.69414-.03086.39172.39172,0,0,1-.27972.005.78932.78932,0,0,1-.47216-.77434.689.689,0,0,1-.71205.48423.496.496,0,0,1-.45993-.35019c-.01949-.07036-.03444-.14013-.05066-.21009a.37952.37952,0,0,1-.37836-.03679,1.42245,1.42245,0,0,1-.40962-.48714c-.01572.00884-.0319.01728-.04829.02553-.309.4496-.742.794-1.23345.568a.85865.85865,0,0,1-.45877-.748.72763.72763,0,0,1-.24687-.03616.75781.75781,0,0,1-.69885.43606.49021.49021,0,0,1-.46868-.35683l-.00482-.02893a.93125.93125,0,0,1-.17484.14389c-.49651.30689-.7769.04827-.936-.37267a.72287.72287,0,0,1-1.08851-.3156.73892.73892,0,0,1-.38635-.324c-.02224.00844-.04438.01711-.06721.02438a.46525.46525,0,0,1-.45249-.11961,1.21819,1.21819,0,0,1-.26923-.40422.95636.95636,0,0,1-.4694-.21523,1.06331,1.06331,0,0,1-.14251-.13938.463.463,0,0,1-.30058-.02045.77334.77334,0,0,1-.693.1653.86285.86285,0,0,1-.53583-.404,1.01819,1.01819,0,0,1-.14835-.01541.53109.53109,0,0,1-.19188-.05518c-.02524-.01315-.04907-.02723-.07251-.04153-.014-.008-.02692-.01737-.04034-.02614q-.03781-.02529-.07255-.05256c-.00967-.00792-.01966-.01538-.029-.02372a1.08616,1.08616,0,0,1-.08291-.077,2.4303,2.4303,0,0,1-.24382.27823.46372.46372,0,0,1-.71889-.09264,2.75979,2.75979,0,0,1-.2964-.66209.92543.92543,0,0,1-1.13879-.30915c-.01364.00327-.02695.00716-.0409.00985-.91676.17606-1.11388-1.36028-1.164-1.9901a.83572.83572,0,0,1-.34167-.2818,1.38988,1.38988,0,0,1-.13667-.23984.88862.88862,0,0,1-.11587-.017.70692.70692,0,0,1-.20631-.08571.44975.44975,0,0,1-.30906-.20067,1.553,1.553,0,0,1-.12483-.22609.62431.62431,0,0,1-.82168-.3424l-.01053-.02471a.70593.70593,0,0,1-.21913-.04375,1.18684,1.18684,0,0,1-.41828.57484.41146.41146,0,0,1-.55832-.14641,1.75378,1.75378,0,0,1-.18454-.41711.325.325,0,0,1-.08718-.10367A2.09082,2.09082,0,0,1,9.407,9.20456.3149.3149,0,0,1,9.32205,8.987c.00348-.129.01147-.25781.0214-.38648-.02453-.0842-.05136-.17478-.07848-.27008-.51174-.42078-.44242-1.38505-.30119-1.95911a.40531.40531,0,0,1,.73082-.09552,1.76627,1.76627,0,0,1,.22408.494.31037.31037,0,0,1,.47326.08355,2.39543,2.39543,0,0,1,.13264.29469.52349.52349,0,0,1,.53954.069.42837.42837,0,0,1,.51975.1129.60068.60068,0,0,1,.33268-.10982.42078.42078,0,0,1,.416.416l-.0003.01021a.44386.44386,0,0,1,.22368-.06891.64232.64232,0,0,1,.51414-.12973c.39678.06928.55169.42356.59151.80648a.44888.44888,0,0,1,.46993.089.90141.90141,0,0,1,.28.44924.59211.59211,0,0,1,.71187-.23408c.01722.0058.03307.01313.04934.02a.70268.70268,0,0,1,.08419-.03142c.49079-.14084.69935.1526.77641.53424a.53241.53241,0,0,1,.41957-.0592.8873.8873,0,0,1,.60126-.26259.72358.72358,0,0,1,.78129.55806.65269.65269,0,0,1,.4133.1396.75636.75636,0,0,1,.42582-.1163.72372.72372,0,0,1,.17.02569c.00821-.01067.01534-.02193.02375-.03246a.444.444,0,0,1,.44932-.11876.91806.91806,0,0,1,.573.98361.69569.69569,0,0,1,.77946.07369,1.28621,1.28621,0,0,1,.20973-.111A.59381.59381,0,0,1,21.74,10.519a.535.535,0,0,1,.18811.10659,1.07425,1.07425,0,0,1,.3293.81648.47426.47426,0,0,1,.23836.34459.427.427,0,0,1,.16513.01087.76235.76235,0,0,1,.76973-.31138.46509.46509,0,0,1,.33572.33573,3.0493,3.0493,0,0,1,.05326.39233.45745.45745,0,0,1,.21432.10335,1.45089,1.45089,0,0,1,.54719-.91358.462.462,0,0,1,.66513.24786.66364.66364,0,0,1,.76789-.13457.62721.62721,0,0,1,.35343.48017.49485.49485,0,0,1,.42981.39611.6134.6134,0,0,1,.18926-.02919.43728.43728,0,0,1,.31547.12841.49249.49249,0,0,1,.67612.29979,2.5291,2.5291,0,0,1,.0461.26906.55729.55729,0,0,1,.29563.07393.51094.51094,0,0,1,.71035.0896.495.495,0,0,1,.74759-.0235,1.45411,1.45411,0,0,1,.38748-.45222c.0101-.0287.01938-.05753.02967-.0862.17977-.50033.99006-.45275.96878.13113-.00138.03777-.0052.07573-.00734.11356a.562.562,0,0,1,.041.17969c.00822.16739.00688.3336.00095.49928.04823-.10187.09877-.20224.15332-.29989a.45792.45792,0,0,1,.21086-.1988,3.0534,3.0534,0,0,1,.47547-.74335.46587.46587,0,0,1,.79962.2455l.00806-.0197a.51175.51175,0,0,1,.29076-.2954,3.11331,3.11331,0,0,1,.35423-.44071c.099-.20568.19828-.41.29756-.6115a.4886.4886,0,0,1,.89117.10672.53056.53056,0,0,1,.24466.23061c.1694-.22053.343-.43815.5268-.6489a.4878.4878,0,0,1,.66505-.03253.81773.81773,0,0,1,.18485-.02579.80594.80594,0,0,0,.09152-.1969.48405.48405,0,0,1,.77351-.24554,2.10905,2.10905,0,0,1,.441-.44316.39253.39253,0,0,1,.19193-.07392,9.14886,9.14886,0,0,1,.51226-.76877.49744.49744,0,0,1,.73151-.09972.55671.55671,0,0,1,.39066-.05281,2.7446,2.7446,0,0,1,.76868-.8715.42679.42679,0,0,1,.28475-.06646,5.03528,5.03528,0,0,1,.697-.77843.49117.49117,0,0,1,.72708.03714c.01359-.01541.02651-.03161.04026-.04679a.432.432,0,0,1,.546-.1062c.24576-.30853.55976-.51728.784-.85539a.51421.51421,0,0,1,.68283-.17079,2.463,2.463,0,0,1,.20253-.16893.4255.4255,0,0,1,.43385-.04283,1.01629,1.01629,0,0,1,.24932-.33655.57534.57534,0,0,1,.54515-.129,1.13192,1.13192,0,0,1,.29871-.40228.67369.67369,0,0,1,.12478-.0806c.04761-.09448.09369-.18974.13924-.2868C46.24438,4.05556,47.14946,4.58878,46.86354,5.19648Z" style="fill:#754420"/><path id="fill1" d="M19.76711,28.18512a6.29517,6.29517,0,0,1,.15685.72649c.02381.12015.08609.33873.11549.33614.68879-.0604.43535.22627.317.63a1.31462,1.31462,0,0,0,.63175,1.35472.4324.4324,0,0,0,.40469-.07045,1.419,1.419,0,0,0,.36187-1.3749,17.81408,17.81408,0,0,1-.73975-2.6537,10.35137,10.35137,0,0,1,.11858-3.80478c.17326-.58332.4482-.96689,1.0312-1.03471a1.21423,1.21423,0,0,1,1.23893,1.01023,9.137,9.137,0,0,1,.40282,1.88077c.11238,1.85007.15213,3.70457.22115,5.5573a.95124.95124,0,0,1-.76.9605c-.35936.10832-.83554.12359-.88687-.4972-.04348-.52643-.28878-.333-.49209-.10219-.10163.11537-.12875.295-.22685.415a.65074.65074,0,0,1-.89714.11572c-.59533-.34808-.625-.36415-1.13729-.11529a3.66465,3.66465,0,0,1-.96073.39184,1.03288,1.03288,0,0,1-.713-.22044,3.85874,3.85874,0,0,1-1.09086-1.69533c-.03-.075.02156-.18281.03532-.27539.07256.042.17283.06624.21316.129.25951.40352.50493.81609.75709,1.22435.08443.13672.14915.34376.26938.38589a.84392.84392,0,0,0,.54557-.04636c.28522-.11517.06757-.26512.01755-.43921a15.63889,15.63889,0,0,1-.81067-5.29827,5.64336,5.64336,0,0,1,.77393-3.05712,9.82587,9.82587,0,0,1,.66016-.85155c.05822-.06527.22484-.034.34159-.04707-.01514.11682.01373.27913-.05248.34309a3.24706,3.24706,0,0,0-.9301,1.67227A8.9727,8.9727,0,0,0,18.43,27.59561a23.69615,23.69615,0,0,0,.6753,3.22078,2.7521,2.7521,0,0,0,.29555.49287,4.0465,4.0465,0,0,1,.3184-.46813.82221.82221,0,0,0,.13971-.91842,13.24988,13.24988,0,0,1-.73042-4.50891,6.62955,6.62955,0,0,1,.41828-2.38113c.15364-.43182.65706-.75128,1.03972-1.07833.06968-.05952.31668.08843.48182.14056a1.079,1.079,0,0,1-.2554.21311c-.97055.386-.81315,1.34936-1.109,2.092-.502,1.26018.19129,2.49074.06316,3.78508m3.84972,1.3859c-.06845-1.33555-.08431-2.67671-.22522-4.00456a16.7306,16.7306,0,0,0-.55811-2.32028c-.07541-.29525-.20115-.64891-.562-.53A1.16007,1.16007,0,0,0,21.59,23.325a7.68147,7.68147,0,0,0-.22995,1.5432,14.66014,14.66014,0,0,0,.63567,4.65019,6.26442,6.26442,0,0,0,.74907,1.62745c.12411.226.3661.35287.46064-.06546A11.82748,11.82748,0,0,1,23.61683,29.571ZM7.65579,18.8469c-.23663,1.067-.44113,2.14108-.6745,3.20883-.062.28381.23659.70991-.247.80217-.06842.01308-.25547-.51024-.357-.79618a1.92093,1.92093,0,0,1-.00915-.40741,9.78015,9.78015,0,0,1,.44735-3.71665,4.47242,4.47242,0,0,1,1.71768-2.86035c.10951-.068.15784-.23454.23454-.3554-.16094-.00025-.37915-.068-.47265.01123-.35923.30462-.67726.65764-1.01372.98945a2.41073,2.41073,0,0,1-.21648.17093.92887.92887,0,0,1-.00691-.34778,12.7656,12.7656,0,0,1,1.36029-2.92435,1.26676,1.26676,0,0,0,.12065-.3868,1.15788,1.15788,0,0,0-.34652.12351,3.49352,3.49352,0,0,0-1.0077,1.63054,40.59818,40.59818,0,0,0-1.40091,6.38572A4.12553,4.12553,0,0,0,5.989,22.32485c.15644.50134.67024.88642.85125,1.38618.20333.56137.38185.94072,1.07827.85819.19583-.02321.59152.35873.61236.33226.30826-.39214-.26872-.434-.3084-.7036-.02463-.16727.00723-.34206-.00639-.51186a13.201,13.201,0,0,1,.90492-5.26667,3.09655,3.09655,0,0,1,1.49247-2.13888c.05027-.02273.0587-.17745.05148-.268-.00286-.03569-.11622-.10273-.155-.08865a1.64832,1.64832,0,0,0-.60107.26946,5.34382,5.34382,0,0,0-1.26883,2.33928,15.35048,15.35048,0,0,0-.8413,5.0912,1.58429,1.58429,0,0,1-.16024.50628,2.6182,2.6182,0,0,1-.3923-.47468.94105.94105,0,0,1-.05034-.48848,11.482,11.482,0,0,1,.21342-1.75784c.37252-1.44612.76577-2.89014,1.2371-4.30627A3.85393,3.85393,0,0,1,9.75254,15.1016c.15588-.12169.313-.24169.46961-.36247a2.153,2.153,0,0,0-.75129.0571,1.13344,1.13344,0,0,0-.42566.52585c-.35758.70493-.69037,1.42244-1.03257,2.23782C7.892,18.057,7.74483,18.44551,7.65579,18.8469ZM11.255,23.08427a14.60172,14.60172,0,0,1,1.28141-5.02,2.55939,2.55939,0,0,0,.10561-.28936c-.13539-.00323-.29426-.051-.39885.00419-.08564.04518-.09178.22268-.15863.32484a9.847,9.847,0,0,0-1.19026,4.32547c-.048.36981.1009.79365-.02719,1.1193a8.06287,8.06287,0,0,0-.15945,3.102c-.00081,1.09892.47994,1.43617,1.57849,1.38038a1.2198,1.2198,0,0,1,1.07358.47488,1.7088,1.7088,0,0,0,.65836.335c.09848.03258.23838-.06.35946-.09574-.05562-.10116-.08579-.25282-.17078-.29565a1.96174,1.96174,0,0,1-1.05316-2.04744c.02579-.55478.132-1.10559.19652-1.65884a8.36089,8.36089,0,0,1,.24495-1.9508c.48379-1.28291.37143-2.74185,1.18526-3.92.03349-.04845-.02233-.21387-.08383-.25645a.2695.2695,0,0,0-.261.02947,4.25106,4.25106,0,0,0-.45959.935,26.01139,26.01139,0,0,0-1.05218,5.51955c-.03326.66521.18945,1.3662-.18777,2.00248-.05943.10023-.10575.2082-.15813.31262-.1114-.06113-.29635-.10048-.322-.187a4.32563,4.32563,0,0,1-.31953-1.39668c.0682-1.14386.29307-2.27782.37648-3.42149a19.31013,19.31013,0,0,1,.84245-3.45091c.03692-.14178.19845-.25672.31535-.37066.13616-.13273.28677-.25068.43113-.37507-.25351.02321-.57991-.04328-.74395.09a1.72,1.72,0,0,0-.60858.85865,29.69206,29.69206,0,0,0-.7993,4.37569,9.67366,9.67366,0,0,0,.14875,3.81435c.03346.099-.14612.27-.22669.40753-.12086-.07669-.31492-.12957-.34906-.23451a7.63443,7.63443,0,0,1-.23048-1.13647C11.14244,25.21916,11.13167,24.158,11.255,23.08427Zm29.8533-8.56452a2.04437,2.04437,0,0,0-.77074,1.00847.99336.99336,0,0,0-.029.34743,2.05963,2.05963,0,0,0,.41823-.142c.06958-.0405.09507-.15963.1362-.24535.06231-.12982.12093-.26141.18113-.39224a1.78422,1.78422,0,0,1,.32071.40783,16.97848,16.97848,0,0,1,.9399,4.33081,4.37821,4.37821,0,0,1,.17845,1.14218c-.1383.75794.484,1.64959-.375,2.2952a.65277.65277,0,0,0,.20823.42762c.14967.07161.38968.09382.40645-.25083.01869-.38439.17369-.76307.185-1.14677a32.94841,32.94841,0,0,0-.36394-3.5255,16.60165,16.60165,0,0,0-.67869-3.32509c-.12083-.41966-.37088-.9789-.01927-1.12341.423-.17381.502.47525.65147.80024a27.516,27.516,0,0,1,1.43419,4.943.51974.51974,0,0,1-.17193.42763c-.45655.35643-.12141.56886.123.79052a1.41614,1.41614,0,0,0,.33725.17146c.04471-.11211.13692-.22905.126-.33547-.0499-.48643-.14516-.9683-.19421-1.4548a18.156,18.156,0,0,0-1.48046-5.33745c-.05655-.132-.1385-.30422-.0973-.41708a4.57436,4.57436,0,0,1,.4358-.84187.46075.46075,0,0,1,.32858.09825,1.6126,1.6126,0,0,1,.29477.48911,13.99229,13.99229,0,0,1,.91065,3.92621c.06519.72179.47851,1.457.0206,2.191a.203.203,0,0,0,.04135.18093,2.77727,2.77727,0,0,0,.28615.24485,1.47746,1.47746,0,0,1,.08051-.27419,2.87983,2.87983,0,0,0,.01188-1.988c-.19194-.99268-.18926-2.03113-.456-2.99865a4.02258,4.02258,0,0,0-1.02107-2.24281c-.44355-.37665-.54282-.40454-.78341.13316a1.6299,1.6299,0,0,1-1.19283,1.08143C41.35864,14.15614,41.28094,14.42068,41.10828,14.51975ZM4.72754,14.27481a12.6292,12.6292,0,0,0-.81714,3.96568,1.48969,1.48969,0,0,0,.12544.5609c.04534.09458.20917.13238.31961.19574.0556-.10116.11825-.19913.16566-.304a7.53331,7.53331,0,0,0,.43914-2.38955,6.08553,6.08553,0,0,1,1.80219-4.166c.12446-.1103.23678-.27128.38151-.31093.134-.0367.30394.05794.45805.09476a2.23573,2.23573,0,0,1-.27457.29753,5.01163,5.01163,0,0,0-1.76471,3.04087,14.86741,14.86741,0,0,0-.21631,1.96245c-.01878.20329.08414.50317-.01813.59854-.4214.393-.09772.76248.04319,1.06351.12055.25758.28322.4473.089.71082-.211.286-.38539.67292-.67319.80769a.59832.59832,0,0,1-.884-.38,3.97809,3.97809,0,0,1-.3797-1.26354c.10062-1.11256-.37619-2.15547-.09363-3.33392.2982-1.24371.41526-2.5587.68716-3.82884a2.49253,2.49253,0,0,1,1.442-1.94037c.11012-.04659.26579.01451.40037.02572-.063.09376-.1044.231-.19229.27456A3.12911,3.12911,0,0,0,4.34832,12.171a29.69842,29.69842,0,0,0-.63866,3.53049c-.01928.1192.08213.2579.12755.38755.09145-.09882.23823-.18451.26528-.29857.1556-.65654.24352-1.331.42838-1.97825A6.49157,6.49157,0,0,1,6.162,10.70074a1.47037,1.47037,0,0,1,.68335-.31289,1.45132,1.45132,0,0,1,.53847.10148,2.98317,2.98317,0,0,0-.48869.29971,4.47647,4.47647,0,0,0-.91984.92959,25.27521,25.27521,0,0,0-1.24771,2.55618m.308,4.517c-.23314.23314-.45124.48422-.703.69516-.36142.30284-.068.46209.14513.52119a.47649.47649,0,0,0,.6543-.40861A1.80125,1.80125,0,0,0,5.03552,18.79181Zm12.4268,10.48712c.01847.05559.1.09023.15256.13449.01589-.06183.05775-.131.04278-.18414-.04263-.15156-.12361-.29274-.16266-.44487a14.471,14.471,0,0,1-.68685-3.52758,21.69711,21.69711,0,0,1,.45439-3.93448,1.26626,1.26626,0,0,1,.31322-.475,2.84536,2.84536,0,0,1,.29216-.2806c-.147-.04411-.33958-.169-.43224-.1167-.24527.1383-.51249.16865-.62889.59636a16.63121,16.63121,0,0,0-.5545,3.86127,12.5585,12.5585,0,0,0,.16645,3.92105c.09.31446.08128.75643-.351.80946-.1574.01933-.42826-.33727-.53911-.57319a9.18247,9.18247,0,0,1-.6798-6.48357c.24512-.88531.3537-1.94581,1.262-2.55542a1.41636,1.41636,0,0,0,.27283-.3572c-.16341-.01858-.35244-.09728-.484-.04121a1.39731,1.39731,0,0,0-.49147.39851,6.60861,6.60861,0,0,0-1.19667,3.49519,10.10265,10.10265,0,0,0,.38665,4.54157,10.91055,10.91055,0,0,0,.88872,1.78538.46949.46949,0,0,0,.6928.17594,1.25269,1.25269,0,0,0,.59463-1.54462,1.71324,1.71324,0,0,1-.13016-.35349,2.42726,2.42726,0,0,1,.0696-.48067,4.09762,4.09762,0,0,1,.32753.43139c.062.10652.07379.24229.15933.41633C17.32039,28.78982,17.38217,29.03742,17.46232,29.27893ZM21.4464,16.51847c.53473-.4855.53247-.12977.52916.2949-.00288.37108.1977.48645.55656.55908.456.09229.44292-.28542.61089-.4789.05188-.05976.03416-.17991.04835-.27242a1.2591,1.2591,0,0,0-.2872.11785c-.17251.12639-.35.45267-.51287.0281a15.47162,15.47162,0,0,1-.95767-2.77087c-.13459-.76609-.43389-1.68463.38725-2.35324a.27881.27881,0,0,0,.002-.27392c-.08143-.08589-.30074-.1866-.31973-.16356-.20134.244-.5427.52264-.526.77017.068,1.00729-.34121,2.06644.35628,3.02461.23845.32757-.16427,1.3768-.2352,1.28484a5.41409,5.41409,0,0,1-.55926-1.04075c-.72854-1.56525-.28371-3.23256-.43159-4.84842-.016-.17524.44854-.27995.06051-.41885-.18958-.06787-.48458-.10417-.4727.30311.00514.17575-.18191.35791-.17461.53265a20.87979,20.87979,0,0,0,.25116,3.48988c.1024.47713-.15755.60285-.22216.89436-.12419.56056-.33317.182-.37841.05366a9.47657,9.47657,0,0,1-.46823-1.64791c-.1077-.68165-.00925-1.36988-.17677-2.07474a2.94763,2.94763,0,0,1,.16233-2.05719c.05035-.09607.09136-.197.13667-.29575-.16085.00176-.43327-.0492-.46332.01441a2.1229,2.1229,0,0,0-.27331.90364c.02717.96335.17785,1.92515.17266,2.887a8.12659,8.12659,0,0,0,.44287,2.28514,1.23387,1.23387,0,0,0,.48249.6047.59482.59482,0,0,0,.51946-.08747c.14421-.10178.21146-.31251.31231-.4757.10447.19221.19808.39144.31643.57465a7.41125,7.41125,0,0,0,.459.60049C21.05,16.53331,21.334,16.62046,21.4464,16.51847Zm3.34367-1.58688a2.56049,2.56049,0,0,1-.05324,2.013,2.09281,2.09281,0,0,1-.31978.41c-.08033-.12155-.16815-.23885-.2398-.36532a12.72,12.72,0,0,1-1.168-4.53427c-.02191-.14409.10253-.305.1082-.46a4.071,4.071,0,0,0-.06-.59463c-.15577.17758-.318.35019-.46242.53656-.03306.04266-.00015.13321-.00556.20108-.1381,1.735.56776,3.29645,1.058,4.89315a1.369,1.369,0,0,0,.90183.705c.61312.14214.37673-.5642.6242-.824.07522-.079.05674-.24512.087-.36991a1.60074,1.60074,0,0,1,.06493-.17777c.04642.05895.09126.11915.13943.1766.17018.203.34211.40459.51219.6077.17307.2066.35382.33628.567.04953.41846-.563.5365-.063.70919.20489.06727.10436.0708.26219.15484.34031a.95941.95941,0,0,0,.3975.21379c.135-.17081.31876-.38211.30971-.57214-.02333-.48924-.2365.03591-.33231-.036a1.28109,1.28109,0,0,1-.266-.30595,6.75774,6.75774,0,0,1-.809-2.7356c-.12705-.67786-.14457-1.376-.22194-2.06381-.009-.07988-.07694-.20036-.13845-.21514a.28326.28326,0,0,0-.254.09108,1.16824,1.16824,0,0,0-.19539.61981c.23374,1.09233.53993,2.16965.75613,3.26494a.87.87,0,0,1-.32841.712c-.29479.198-.43732-.09316-.5277-.36031-.24312-.71854-.47187-1.44329-.7507-2.148a6.39635,6.39635,0,0,1-.19231-2.27419c-.00275-.09724.08366-.197.12878-.29562-.13211-.01088-.33492-.08025-.38319-.02183-.15367.18582-.362.42718-.34748.63282a15.23778,15.23778,0,0,0,.3387,2.07682C24.69152,14.56246,24.72641,14.75211,24.79007,14.93159ZM27.50728,27.227c-.04755,1.10178-.12,2.20271-.20444,3.30236-.00835.10893-.18643.19637-.2244.31365a1.246,1.246,0,0,0-.04341.49189c.00549.05757.13442.10333.207.15449.092-.133.24053-.2561.26587-.40079a9.53763,9.53763,0,0,1,.26707-1.74037,3.57267,3.57267,0,0,0,.10331-2.18043c-.303-1.11321.09958-2.26574-.34988-3.33837-.03045-.07269.09013-.20873.14048-.3153a1.116,1.116,0,0,1,.32875.18595,1.41447,1.41447,0,0,1,.13738.35028,5.54707,5.54707,0,0,1,.42527,2.39708,9.49634,9.49634,0,0,1,.14747,2.05964c-.2883,1.10865.08,2.31778-.56593,3.35382a.20863.20863,0,0,0,.35395.20883.82412.82412,0,0,0,.245-.40543c.15178-1.41311.30878-2.82673.40427-4.24423.02993-.4441-.19494-.90389-.17391-1.35039a6.97162,6.97162,0,0,0-.43443-2.29221,1.959,1.959,0,0,0-1.98112-.83466.51793.51793,0,0,0-.21344.21688.317.317,0,0,0-.02276.26674c.045.061.21865.11357.25728.07971.4782-.41919.49294.083.5173.29988.10016.892.15016,1.78967.21858,2.78789A3.46834,3.46834,0,0,1,27.50728,27.227ZM45.153,13.38291c.41159,1.47991.74192,2.98561,1.02582,4.4958.078.415.23454.95932-.2641,1.31923-.03343.02411.0002.22156.059.26958a.28122.28122,0,0,0,.27515-.01612,1.5174,1.5174,0,0,0,.35474-1.38286c-.10308-.76832-.28316-1.52606-.39758-2.29319a14.02927,14.02927,0,0,0-1.04406-3.671c-.10291-.23069-.28589-.47425-.2671-.69807a2.61252,2.61252,0,0,1,.34325-.78731c.18439.13048.375.25324.55013.3951a.771.771,0,0,1,.16161.23843,12.98861,12.98861,0,0,1,1.0697,3.5559c.15647.72538.27572,1.45875.41768,2.18734.01045.05376.06958.098.10609.1467.04835-.04835.12-.0884.14071-.1466.06391-.1793.19369-.39189.14657-.5449-.30557-.99135-.38482-2.02476-.60555-3.0303a9.42644,9.42644,0,0,0-1.12-2.815.7813.7813,0,0,0-1.40239-.0709c-.25467.34266-.53959.663-.79017,1.00837a1.12024,1.12024,0,0,0-.16569.44056c-.01226.06376.07173.14607.112.21993a.72588.72588,0,0,0,.142-.14667c.059-.11108.09968-.23183.19931-.39991A6.37453,6.37453,0,0,1,45.153,13.38291ZM1.45049,6.14955A5.73625,5.73625,0,0,1,2.68358,3.476a2.17954,2.17954,0,0,0,.28572-.49369,5.21368,5.21368,0,0,0-.621.23389,1.054,1.054,0,0,0-.2876.287,1.884,1.884,0,0,0-.1515.25384c-.01871-.09491-.08148-.20988-.04888-.28141.18394-.40347.39018-.79683.59029-1.19288.04967-.0983.10487-.19382.15753-.29059C2.47633,1.98,2.32276,1.92,2.218,1.96747a.66008.66008,0,0,0-.35309.3259c-.16526.55069-.29172,1.11348-.4208,1.6745-.144.626-.27538,1.25494-.41227,1.8826A9.14756,9.14756,0,0,0,.64327,7.7334c.003,1.76292.44362,3.51226.18587,5.28857-.03815.263-.04322.53112-.05881.79711a2.446,2.446,0,0,0,.00987.25041c.08386-.07306.23388-.14088.24014-.22005A4.53019,4.53019,0,0,1,1.04725,12.829c.40151-1.20045.18533-2.485.58508-3.69119.42043-1.26868.48325-2.67445,1.53579-3.67859a.61229.61229,0,0,0,.12-.256c.03891-.12179.06261-.24841.09283-.373a1.83592,1.83592,0,0,0-.34489.15655,4.38592,4.38592,0,0,0-1.38418,2.709c-.15954.58728-.27677,1.186-.416,1.77894-.02163.09216-.059.18065-.0891.27083-.03834-.07852-.11226-.15837-.10944-.23539.02455-.67054.06284-1.34056.1484-2.06208C1.30556,6.98017,1.3338,6.552,1.45049,6.14955Zm27.55314,17.302a13.677,13.677,0,0,1,.54628,2.01958c.1398,1.36421.15973,2.74079.22486,4.11245.01133.23848-.01115.479.00955.71623.006.06933.1074.13031.1651.19512.0792-.07737.198-.14213.2278-.23534a1.20317,1.20317,0,0,0,.00894-.40653c-.06709-1.45146-.11972-2.9039-.21323-4.35366-.03311-.51342-.16973-1.01993-.25347-1.53049-.03406-.20773-.053-.418-.07882-.627a5.73639,5.73639,0,0,1,.50141.4459,1.05329,1.05329,0,0,1,.14955.345A9.89032,9.89032,0,0,1,31.21118,28.36c-.05414.68979-.13555,1.3774-.201,2.06634a.93731.93731,0,0,0,.02178.19487c.07241-.01975.16389-.01815.214-.06288a.85215.85215,0,0,0,.39174-.764,15.25963,15.25963,0,0,1-.011-1.74,10.08085,10.08085,0,0,0-1.03566-4.386c-.37618-.84451-.40538-.8315-1.482-.61605A.71353.71353,0,0,0,29.00363,23.45157Zm.16218-6.13413q-.4332-1.15581-.8238-2.32755c-.23184-.692-.43149-1.3948-.66636-2.08571-.03516-.10349-.185-.168-.28178-.25059a1.37184,1.37184,0,0,0-.0777.27455,1.28339,1.28339,0,0,0,.00383.51021c.5351,1.45434,1.0574,2.91476,1.64957,4.34607.24652.5959.57593.56452,1.01383.007a2.37535,2.37535,0,0,1,.23888-.23149,1.20362,1.20362,0,0,1,.16494.30179c.08163.37941.12213.76856.22038,1.143.03827.146.18838.26262.28755.39262.10617-.15434.28826-.30337.29953-.46435a1.05906,1.05906,0,0,0-.17952-.63249,3.82591,3.82591,0,0,1-.63889-1.89857,26.29717,26.29717,0,0,0-.45089-2.6844,2.77025,2.77025,0,0,0-.36043-.77112c-.03645-.06419-.22422-.12444-.24683-.09958a.50745.50745,0,0,0-.14662.31362c.00341.11674.11524.22617.14133.3471.28086,1.30143.85925,2.569.46355,4.0524C29.3472,17.95009,29.26318,17.57725,29.16581,17.31744Zm6.14186,3.27083a.88729.88729,0,0,0-1.34445-.11735,1.28552,1.28552,0,0,0-.08048.47588,1.79166,1.79166,0,0,1,.36189-.14887c.16031-.02915.38089-.08464.481-.007a2.23731,2.23731,0,0,1,.38908.54412c.77148,1.14066.63413,2.48981.78779,3.75307a8.50547,8.50547,0,0,1-.19958,2.66546,2.64739,2.64739,0,0,1-.713,1.74723,1.17061,1.17061,0,0,0-.20572.35568c.1606-.0087.38718.046.46863-.03873a2.79722,2.79722,0,0,0,.47335-.71716,10.57743,10.57743,0,0,0,.58986-3.42685,12.25078,12.25078,0,0,0-.17477-2.365A5.59746,5.59746,0,0,0,35.30767,20.58827Zm-26.08891,2.601a2.63554,2.63554,0,0,0-.14925,1.67287,1.52725,1.52725,0,0,0,.63538,1.26066.72719.72719,0,0,0,.27474.044c.00917-.11672.06345-.25525.01945-.3463-.16575-.343-.524-.6731-.51853-1.00326a10.89371,10.89371,0,0,1,.30478-2.73641,20.89715,20.89715,0,0,1,1.69873-5.24393c.06245-.10564-.08652-.33635-.13715-.50889a2.53978,2.53978,0,0,0-.25938.3168c-.98252,1.68127-1.24051,3.5955-1.79166,5.48344C9.24454,22.52143,9.37137,22.94134,9.21876,23.18926Zm31.81283,2.01113c-.40159-1.16319-.118-2.35622-.313-3.53432-.238-1.43823-.37138-2.90278-.68505-4.33485a3.955,3.955,0,0,0-.37836-.8635c-.01027-.0208-.21108.00649-.21912.038-.06271.24552-.44317.47512-.018.76122.1285.08649.16932.33354.20945.516a12.071,12.071,0,0,1,.44227,2.4876,23.11828,23.11828,0,0,0,.37539,2.49,8.57041,8.57041,0,0,0,.19853,2.47673c.06088.14444-.0591.37126-.11081.55578-.13561.48385-.12441.58934.17663.85212C40.86356,26.1251,41.16528,25.58759,41.03159,25.20039Zm-2.44071-7.37173c-.08655-.19176-.33633-.30986-.51159-.46159a2.16492,2.16492,0,0,0-.27806.49685,2.15978,2.15978,0,0,0-.01443.608,1.58056,1.58056,0,0,0,.06043.28069,1.68,1.68,0,0,1,.147-.26866,3.72833,3.72833,0,0,1,.28642-.29161,3.08814,3.08814,0,0,0,.12193.42786,7.83749,7.83749,0,0,1,.62561,2.40407,18.38233,18.38233,0,0,1,.365,2.28494c-.02491.863.42655,1.83064-.36071,2.60936-.0293.029.1881.30725.29054.46939.10288-.08733.25707-.15542.29842-.2658a2.28022,2.28022,0,0,0,.20424-.83127c-.04308-1.30214-.09408-2.60571-.20867-3.90291a17.13245,17.13245,0,0,0-.396-1.77488A15.21706,15.21706,0,0,0,38.59088,17.82866ZM33.52654,30.43254c.002.02429.22565.08011.255.04479.18507-.22276.45337-.45021.49309-.70721.17976-1.16331.34332-2.33411.40989-3.508a6.46373,6.46373,0,0,0-.2073-2.05454,6.246,6.246,0,0,0-1.30587-2.72272c-.10244-.10945-.32061-.11056-.48523-.16181a2.33694,2.33694,0,0,0,.14918.41948,6.00961,6.00961,0,0,1,1.14564,2.3871,6.31823,6.31823,0,0,0,.13482,1.68338c.47174,1.17231-.20672,2.26394-.099,3.39988.02308.24336-.21923.51189-.39061.82015A.85961.85961,0,0,0,33.52654,30.43254Zm4.875-5.90653c-.07592-1.0991-.08276-2.20649-.2269-3.29612A13.41965,13.41965,0,0,0,37.5887,19.119c-.03765-.12313-.165-.2188-.251-.32715-.05664.1685-.21191.38823-.155.49773a10.21514,10.21514,0,0,1,.81506,4.692c.02642,1.37389.12835,2.74631.1962,4.1194.00338.0682-.02562.15371.00571.20163a2.72919,2.72919,0,0,0,.26134.30317,1.37217,1.37217,0,0,0,.13744-.37074c.0202-.3063.00659-.61482.00659-1.02511C38.53662,26.24685,38.461,25.387,38.40155,24.526Zm-2.01867-5.30163c-.25081.0809-.4372.36144-.65227.55312.06248.05381.15461.16692.18311.15268.656-.32745.89406-.12248.85756.59273-.01568.30792.192.6264.18006.93556-.08,2.083.22755,4.17712-.18371,6.25238a3.56689,3.56689,0,0,0,.04892.89293c.04865-.2575.094-.51568.14659-.77238a11.56033,11.56033,0,0,0,.38345-1.97639c.016-.65555.06113-1.31537.03336-1.97523-.03005-.714-.02692-1.43091-.001-2.14522a3.91752,3.91752,0,0,0-.36514-1.96749C36.93573,19.35172,36.71557,19.11706,36.38288,19.22438ZM32.03866,30.32109a1.7207,1.7207,0,0,0-.10308.37918c.17-.05494.38542-.06449.49768-.177a.92477.92477,0,0,0,.21111-.518c.14922-1.23923.32722-2.47778.40372-3.7222a10.33524,10.33524,0,0,0-.61846-3.52918,1.73,1.73,0,0,0-.54458-.66581c-.068-.06241-.25589.00587-.389.01436a2.08611,2.08611,0,0,0,.1377.28813,3.07492,3.07492,0,0,1,.39287.55455,10.39778,10.39778,0,0,1,.61127,3.42948,10.98677,10.98677,0,0,1-.19241,1.45126A4.57167,4.57167,0,0,1,32.03866,30.32109ZM2.469,13.69184c-.457,1.145-.111,2.3369-.18982,3.50444a2.53719,2.53719,0,0,0,.24465.91724c.01439.04186.17428.03366.26683.04865-.01318-.07251-.03023-.14454-.039-.21757a12.7649,12.7649,0,0,1-.27759-2.95829,5.8,5.8,0,0,0,.18664-.93993,9.36465,9.36465,0,0,1,.43951-3.10744,4.61683,4.61683,0,0,1,1.18356-2.48c.12272-.10677.2619-.19465.39347-.29121-.19782-.0175-.44672-.11775-.58214-.03419a1.7839,1.7839,0,0,0-.59085.62177,10.06821,10.06821,0,0,0-1.0353,3.261C2.6,12.64327,1.94436,13.16754,2.469,13.69184Zm22.17228,9.84891c-.02817-.14051-.08219-.2758-.12432-.4135-.09474.13171-.24361.25289-.27181.39758a1.46575,1.46575,0,0,0,.00291.71017,15.25912,15.25912,0,0,1,.59219,4.0594c.04542.85245.00088,1.70939.01354,2.56409a2.65975,2.65975,0,0,0,.11286.67015,1.84618,1.84618,0,0,0,.21111.38246,1.64094,1.64094,0,0,0,.07754-.37645c-.06281-2.0919-.13286-4.18358-.25261-6.32664C24.84874,24.61789,24.74916,24.07848,24.64132,23.54075Zm1.64517,3.96779c-.07072-1.02935-.13739-2.059-.20576-3.08847a.53164.53164,0,0,0-.01582-.19783c-.16156-.306-.33384-.60628-.50247-.90851a4.01392,4.01392,0,0,0-.08554.9813,24.71432,24.71432,0,0,1,.39851,4.02909c-.00048.06825-.02512.15036.00378.20261a1.85756,1.85756,0,0,1,.02181,1.68463,2.4261,2.4261,0,0,0,.064,1.08161c.0106.08052.13569.146.20807.21835a1.02642,1.02642,0,0,0,.10923-.24053,7.70375,7.70375,0,0,1,.15765-.82717C26.42286,29.431,26.35251,28.46994,26.28649,27.50854ZM2.58522,8.72245A4.36426,4.36426,0,0,1,3.734,6.94694c.06055-.04674.08427-.14116.1251-.21347-.09456-.01847-.21934-.08458-.27841-.04709a1.93318,1.93318,0,0,0-.68541.5254,7.0257,7.0257,0,0,0-.91284,2.489,18.84225,18.84225,0,0,0-.54163,3.44914c.01114.272.11411.63495-.0188.80154-.51792.649.23626,1.16209.12364,1.75218-.01064.05581.13353.14113.20581.21273.03387-.08819.10649-.18181.095-.26364-.05355-.38261-.17128-.75989-.191-1.14293a10.05082,10.05082,0,0,1,.38685-3.30961c.16-.55878.15292-1.16536.2727-1.80167C2.43825,9.13842,2.49241,8.92145,2.58522,8.72245Zm7.88133.30146c-.052-.66531-.12489-1.329-.1996-1.99236-.00558-.04955-.07087-.09236-.1084-.13827a.92929.92929,0,0,0-.08869.26805c-.00682.85115.00133,1.70247-.00911,2.55355a1.99024,1.99024,0,0,1-.108.44319c-.09918-.12915-.26672-.2489-.286-.38908-.094-.68313-.169-1.37049-.21033-2.05877C9.42381,7.1674,9.45425,6.621,9.444,6.07639c-.0012-.06351-.08347-.12554-.12815-.18825-.04815.04817-.12178.08837-.13975.14594a1.66468,1.66468,0,0,0-.12894.55621c.051.89195.16858,1.78162.18551,2.67355.01485.78252.56878,1.26905.901,1.877.01985.03637.22018-.02587.33652-.04221-.09106-.54663.22518-1.14241-.199-1.75147C10.33957,9.1707,10.47188,9.09193,10.46655,9.02391ZM34.65331,15.966a3.39038,3.39038,0,0,1-.14982-.65372c-.05765-.60889-.09707-1.2196-.13464-1.8302a3.26093,3.26093,0,0,1,.09308-1.53156c.1366-.34036-.06772-.82656-.15163-1.24081-.025-.12341-.15983-.22459-.24434-.33595a1.15821,1.15821,0,0,0-.17575.38931,26.58121,26.58121,0,0,0,.4545,6.12955C34.75735,16.69028,34.76941,16.34917,34.65331,15.966Zm14.0025-2.06706c.06722.18008-.015.4561.29945.35677.07868-.02484.148-.30437.11116-.4358a22.04185,22.04185,0,0,0-2.05985-4.987,2.01895,2.01895,0,0,0-.6545-.63956c-.08973-.05855-.3366.06857-.47407.16477-.0573.04-.01624.2206-.01993.3373.68468-.12407.71335.565,1.11371.90839C47.57062,11.06852,48.126,12.479,48.65581,13.89894ZM31.637,15.884c-.11459-1.02554-.14933-2.06-.21858-3.09068-.00662-.09845.01659-.24266-.03757-.28567a3.15119,3.15119,0,0,0-.48786-.27332c.01238.14083.019.28249.03888.42225a3.31157,3.31157,0,0,1,.07323.3779,12.9474,12.9474,0,0,0,.20359,3.09333c.16366.61949.24381,1.26251.431,1.87366a3.1848,3.1848,0,0,0,.51668.77157c-.0405-.30171-.081-.6034-.12148-1.00777C31.898,17.07017,31.704,16.48416,31.637,15.884ZM15.81612,11.28353c-.01276-.13443.03571-.29156-.01792-.40249a2.51162,2.51162,0,0,1-.03592-2.01047.37128.37128,0,0,0-.15837-.3281c-.17317-.04048-.43372-.101-.40736.24968.01278.16982-.00864.34229.00409.51211a20.94715,20.94715,0,0,1,.17832,2.57856,7.56476,7.56476,0,0,0,.45059,2.18489,1.29523,1.29523,0,0,0,.4251.53608c.29464.27364.38815-.09609.56345-.20309-.0695-.1104-.16923-.32549-.204-.31547-.49713.14349-.31866-.44853-.594-.63169C15.95161,12.66181,15.88156,11.97287,15.81612,11.28353ZM51.59969,7.47139c.43976-.21622-.09725-.39505-.07785-.6335.01321-.16244-.18519-.331-.22111-.51047-.11877-.59372-.67618-1.15042-.17311-1.80337Q50.699,3.375,50.2685,2.22662c-.01022-.02721-.05085-.06494-.07291-.0622-.16017.01975-.31925.04859-.47865.07459a2.6604,2.6604,0,0,0,.09657.348A5.1031,5.1031,0,0,1,50.291,3.712a12.32618,12.32618,0,0,0,.78711,3.22266C51.29078,7.15712,51.53756,7.50194,51.59969,7.47139Zm-1.0975,4.28642Q50.123,10.692,49.68052,9.649A19.16024,19.16024,0,0,0,48.811,7.76505a11.82476,11.82476,0,0,0-1.00739-1.41823c-.04333-.05621-.22264-.00767-.33893-.00767.00321.09224-.03065.21587.01617.27111.17531.20675.45693.357.5561.58929.716,1.677,1.64646,3.262,2.27128,5.02208C50.44507,12.06568,50.54761,11.88543,50.50219,11.75781Zm-33.66151.458a3.95278,3.95278,0,0,0,.79861,2.124c.05193.08246.22427.08908.34081.13083.014-.11654.08424-.27476.03344-.34326a4.38889,4.38889,0,0,1-.77007-2.75791,5.97425,5.97425,0,0,1,.40675-2.59919c.05136-.1095-.06524-.29783-.104-.44966a1.664,1.664,0,0,0-.29.28033,2.57083,2.57083,0,0,0-.41487,1.56754C16.84133,10.91932,16.844,11.56758,16.84068,12.21576Zm19.0884-1.11789c-.001-.105-.09762-.209-.14985-.31347-.08464.10622-.22053.20193-.24482.32053-.09123.44525-.35083,1.02324-.1692,1.32026.31843.52069-.08912.8703-.048,1.29271.0165.16921-.05844.3747.01334.50641a3.97335,3.97335,0,0,1,.19544,1.7655,1.65907,1.65907,0,0,0,.06083.48716c.03912.0979.18236.15416.279.22908a1.2562,1.2562,0,0,0,.067-.27846c.006-.6149.00311-1.22985.00311-1.94746C35.93593,13.28423,35.94016,12.191,35.92908,11.09787Zm-21.333,2.0125A19.10728,19.10728,0,0,1,14.187,10.7247c-.06819-.77827-.00814-1.56733-.024-2.35126-.00176-.0874-.13161-.17219-.20206-.25818-.06644.09-.17136.17254-.19061.27169a2.128,2.128,0,0,0-.00749.50971c.06622,1.2675.10747,2.53735.21978,3.80082a3.39027,3.39027,0,0,0,.40921,1.25579c.2384.4456.51505.31613.653-.14043A2.36449,2.36449,0,0,1,14.59606,13.11037Zm18.46461,1.98418c-.06456-.58327-.11757-1.1687-.21116-1.74746a7.21616,7.21616,0,0,0-.29066-1.10113.31591.31591,0,0,0-.27208-.15223c-.09111.03371-.218.19665-.19866.26953a19.123,19.123,0,0,1,.57395,4.14476,2.40266,2.40266,0,0,0,.27054.80025c.01072.02478.21812-.03554.33419-.159C33.19834,16.39589,33.13265,15.74487,33.06067,15.09455Zm4.51595-4.92475c-.00574-.18407.074-.49285-.25414-.38966a.65.65,0,0,0-.31911.5131c.003.41915.14512.83656.15612,1.25664.026.98985-.00827,1.98143.02271,2.971.006.19118.198.37655.30424.5646a2.14628,2.14628,0,0,0,.27875-.697c.00685-.31156-.16589-.62433-.17734-.93962-.0285-.78456-.00938-1.57089-.00938-2.45916C37.57847,10.648,37.58409,10.40868,37.57662,10.1698ZM.42523,5.38886c-.00177.08614.12787.175.1965.26258.06826-.08792.21295-.20236.193-.25978A5.21589,5.21589,0,0,1,.81936,3.51508,4.94647,4.94647,0,0,1,1.64247.48127,1.09935,1.09935,0,0,0,1.74474.10785c-.13582.00083-.31853-.05291-.39712.01456a2.40838,2.40838,0,0,0-.317.47332A3.3207,3.3207,0,0,0,.56985,2.52034C.48429,3.51066.44447,4.44953.42523,5.38886ZM38.79828,9.96461a.31846.31846,0,0,0-.25054-.192c-.12554.01972-.3168.116-.3373.21093a2.59509,2.59509,0,0,0-.01351.71473c.06229.90741.12432,1.81513.21329,2.72011.01394.14164.16695.26963.25567.40392a1.2,1.2,0,0,0,.138-.36971c.0127-.78658.00646-1.57347.00646-2.46291C38.81038,10.57918,38.82763,10.26968,38.79828,9.96461Zm1.44334-1.94168c-.0011-.09522-.08524-.18945-.13083-.28414-.07231.0723-.19118.13529-.2079.21872a5.91826,5.91826,0,0,0-.06584.6905,9.99444,9.99444,0,0,1-.16026,1.76728,2.03333,2.03333,0,0,0,.16109,1.7435c.05117.07046.11423.13229.17178.19813l.217-.217c-.486-.4259.1381-.8332.021-1.35557C40.24761,9.79545,40.25175,8.90909,40.24162,8.02293ZM12.54,10.66964a5.87951,5.87951,0,0,0,.27472,1.10506c.02717.085.18171.1292.27765.19216a1.02716,1.02716,0,0,0,.04933-.28279c-.06058-.54911-.16991-1.09539-.19274-1.6455-.03371-.81263-.003-1.62779-.016-2.44157-.0016-.1018-.10223-.20206-.157-.303-.08213.1075-.23015.212-.23522.323-.02466.54155-.01117,1.08484-.01117,1.73017A12.38424,12.38424,0,0,0,12.54,10.66964ZM50.21061,8.11258a.8029.8029,0,0,0,.28875.28657,1.3154,1.3154,0,0,0,.3464.10249c-.0202-.14091.00451-.31272-.0678-.41778A7.661,7.661,0,0,1,49.4835,5.6435a.52715.52715,0,0,0-.69468-.38525.52049.52049,0,0,0,.08216.39319C49.38425,6.47269,49.79035,7.2963,50.21061,8.11258Zm-38.92285-.806c-.00875-.08036-.15607-.14565-.23909-.21793-.05386.06762-.154.13484-.15456.203a6.12763,6.12763,0,0,0,.27453,2.62182,3.71611,3.71611,0,0,0,.69951.81383c-.08747-.32317-.175-.64631-.31377-1.0208C11.43461,8.872,11.37278,8.088,11.28776,7.3066Zm29.84215.645c-.08877.13382-.23274.25858-.2564.40305a7.81921,7.81921,0,0,0-.16313,1.53693,2.68045,2.68045,0,0,0,.35236.97145c.03414.07175.22051.08689.33783.09.024.00065.10461-.20156.07108-.256-.44846-.72811-.07667-1.52222-.19745-2.37645A1.36177,1.36177,0,0,0,41.12991,7.95157Zm2.23677-1.33692a.411.411,0,0,1,.38254.53956,1.09478,1.09478,0,0,0,.11041.55693,1.05855,1.05855,0,0,0,.32532.38979c.02747.0211.25482-.12239.28554-.22216a1.16822,1.16822,0,0,0,.01983-.524c-.60874-.11236-.32174-.58285-.32565-.87616-.00794-.59606-.29808-.46137-.6833-.26259A1.61857,1.61857,0,0,0,43.36668,6.61465ZM42.09986,9.34244a3.75175,3.75175,0,0,0,.14857.41537,3.62419,3.62419,0,0,1,.26036-.30753c.4148-.39535.11747-.89443.18963-1.33918.00845-.05218-.17113-.19747-.24752-.18667-.12537.0178-.319.11028-.33929.203a4.18262,4.18262,0,0,0-.01614.80915A2.18894,2.18894,0,0,0,42.09986,9.34244Zm9.38451-6.73282c.03151.05945.13622.08.20728.11849.01794-.05955.0311-.12108.05453-.17837.19552-.47806-.36173-.66786-.39976-1.03709-.03579-.34753-.16-.54671-.51156-.58353.0403.25009.07882.50047.12343.74977.00484.027.04484.04782.11986.12284C51.2458,2.1063,51.354,2.36382,51.48437,2.60962ZM45.81484,4.70388a1.81765,1.81765,0,0,0-.16627.48718c-.0101.20384.15692.49893.06907.60079-.25086.29083.0985.302.14379.44312.11346-.09893.30986-.1868.32477-.29888a3.99237,3.99237,0,0,0-.03569-1.05459A2.21143,2.21143,0,0,0,45.81484,4.70388Zm6.01272-1.701c.00685.06161.01369.12319.07186.13347A.12226.12226,0,0,0,51.82756,3.00283Z"/></g></g></svg>