<svg xmlns="http://www.w3.org/2000/svg" width="70.10961" height="51.53262" viewBox="0 0 70.10961 51.53262"><title>groom-hair-1-funny</title><g id="Layer_2" data-name="Layer 2"><g id="groom-hair-1-funny"><path id="void" d="M70.00443,36.53014c-.01972.10657-.03137.21368-.04889.32037-.02319.14148-.04926.2829-.05975.42517-.05231.69129-.09,1.38349-.13074,2.0755-.026.4433-.05542.88636-.08356,1.32953a.61339.61339,0,0,1-.06994.17536c-.07258-.05255-.19727-.09552-.20893-.15924l-.00006-.00037-.00006-.00006a4.04365,4.04365,0,0,1-.12061-.97449q.02389-.35778.01758-.70831a10.77234,10.77234,0,0,0-1.25781-4.63251L68.04,34.378a2.61082,2.61082,0,0,0-1.012-1.24963c-.03784-.01954-.08069-.02839-.12018-.04407a1.31315,1.31315,0,0,0-.18726-.06854c-.04785-.01111-.10266-.01136-.15332-.01795a1.66164,1.66164,0,0,0-.19494-.02283c-.0152-.00024-.03339.00324-.04877.0033a3.497,3.497,0,0,0-.80957.114,3.98163,3.98163,0,0,0-2.21167,1.34442c-.01715.02124-.032.04413-.04816.06611-.0368.05023-.07312.10064-.10962.15112.1272.02429.28913.11108.37488.06293.04584-.02607.08728-.03852.13123-.05866a1.05687,1.05687,0,0,1,.79712-.0694,2.88977,2.88977,0,0,1,.94989.665,7.24422,7.24422,0,0,1,1.86883,3.54566,11.742,11.742,0,0,1,.41638,1.93444,48.969,48.969,0,0,1,.13,5.83222,7.34251,7.34251,0,0,1-.1109,1.24878c-.06647.41736-.14777.83441-.2251,1.25043-.01892.10211-.03943.20434-.0567.30627-.02826.16644-.06665.3316-.101.49731-.09582.463-.20306.92383-.30456,1.38575-.01263.05767-.029.11456-.0445.17163-.00952.03515-.01794.07068-.02716.106l-.00024-.00043-.00018.00073c-.01892-.04205-.04645-.08508-.07086-.12781-.00947-.01648-.01191-.032-.01972-.04821a.23051.23051,0,0,1-.03406-.11847c.03052-.25562.0763-.50953.11908-.76374.02722-.16223.05115-.32464.07569-.48755a.63543.63543,0,0,0-.00269-.3056,2.72359,2.72359,0,0,1-.15472-.84534,12.385,12.385,0,0,0-.06824-1.73535,42.25,42.25,0,0,0-.74268-4.71173c-.20318-.64288-.27618-1.38672-.47033-2.06939a4.16585,4.16585,0,0,0-.83814-1.57361,6.10812,6.10812,0,0,0-1.91717-1.44117c-.21192-.109-.4278-.21386-.64911-.3128A.58931.58931,0,0,0,61.8292,36.98c-.02155.00439-.04578.00439-.06568.01013a1.27016,1.27016,0,0,1-.611.02368,3.71953,3.71953,0,0,1-1.25763-.71344.38656.38656,0,0,1-.0979-.10852,1.21332,1.21332,0,0,1-.16205-.58636c-.01092-.38574-.01147-.77173-.01233-1.15772-.00171-.60632.001-1.21283.001-1.81921a3.335,3.335,0,0,0-.0033-.49829.50656.50656,0,0,0-.01349-.11035.51882.51882,0,0,0-.06713-.08545.77308.77308,0,0,0-.35126-.27368c-.17731-.06049-.31055-.01978-.41736.25915a2.12635,2.12635,0,0,1-.24841.54108.6464.6464,0,0,1-.61676.24914c-.15284-.012-.33918.42633-.51612.65418a.23374.23374,0,0,1-.02868.02276c-.03516.0329-.07593.06153-.11457.09168-.01678-.03272-.04016-.06641-.05859-.09931a.12176.12176,0,0,1-.02338-.06872c.00983-.06818.01783-.13837.02582-.20831a1.33237,1.33237,0,0,1,.10809-.45343l.00013-.00037.00006-.00012a4.03121,4.03121,0,0,0-.14478-3.20624c-.03082-.09784-.13537-.17291-.20642-.25867-.04083.05585-.08026.11347-.12158.16992a.70029.70029,0,0,0-.07367.10364,3.43193,3.43193,0,0,0-.3302.78449c-.09479.499-.46649.40722-.7533.34857-.02063-.00421-.03711-.031-.05151-.06751a1.03072,1.03072,0,0,1-.04742-.205c-.01068-.06867-.02051-.13751-.02954-.20606-.0058-.04351-.01142-.0885-.01764-.12518l.00006-.00037V29.986a.15366.15366,0,0,1,.02972-.09534.63728.63728,0,0,1,.05066-.07306.46916.46916,0,0,0,.11939-.46417.60626.60626,0,0,0-.24695-.30334.4404.4404,0,0,0-.36731-.07764.53644.53644,0,0,0-.08765.03992.82122.82122,0,0,0-.25073.18109.20291.20291,0,0,1-.15363.03107c-.06567-.00367-.139-.01477-.1994-.01276v-.00043l-.00049-.00006c.00946-.0968-.01642-.22064.03388-.28619a2.2888,2.2888,0,0,0,.3396-2.11817c-.02484-.09405-.05207-.18859-.08344-.284a3.73138,3.73138,0,0,1-.13751-.68982c-.02393-.18592-.04449-.373-.08167-.55554a.55458.55458,0,0,0-.10662-.23633.35677.35677,0,0,0-.59638.042,11.616,11.616,0,0,0-.79577,1.2323c-.044.07611-.09082.15082-.13416.22711-.19446.34253-.43219.53595-.79163.29987a.58968.58968,0,0,0-.29242-.13226c-.08081.00451-.13427.08136-.16827.28979-.01874.11389-.21576.19971-.33105.29755l-.00007-.00019-.00012.00013a2.2029,2.2029,0,0,1-.05938-.48572c.0299-.30854.06945-.61615.108-.92395.03051-.24567.06006-.49134.08563-.73761a.36.36,0,0,0-.01972-.14636c-.00689-.02-.0205-.02857-.03015-.04535-.01391-.0243-.0252-.05426-.04382-.06543a.22144.22144,0,0,0-.125-.00745l-.025.00256-.00934.00269c-.052.01129-.097.02911-.09955.04486-.03668.19312-.08417.29376-.14593.33185-.08954.05572-.21064-.02222-.37165-.13977l-.0722-.05268a1.43558,1.43558,0,0,0-.35407-.19433,1.074,1.074,0,0,0-1.10364.22821.41541.41541,0,0,1-.17767.07141c-.07928.01746-.16333.02911-.23981.05023l.00013-.00049h-.00006a3.93368,3.93368,0,0,1,.119-.42175c.01123-.02826.02948-.05341.04169-.08142a2.36337,2.36337,0,0,1,.17432-.34216,1.13987,1.13987,0,0,0,.10223-1.1626A1.10461,1.10461,0,0,0,48.51,22.6978a.16231.16231,0,0,0-.10632.00226.27052.27052,0,0,0-.10455.055c-.26947.25464-.54023.50934-.78412.78681a1.39381,1.39381,0,0,0-.16522.25891c-.02527.04608-.06025.08173-.08753.12543a.77072.77072,0,0,1-.12262.17187.5658.5658,0,0,1-.36023.14819.46424.46424,0,0,1-.49243-.47344c-.0404-.51-.00348-1.02588-.01495-1.53882a.2192.2192,0,0,0-.04-.10163c-.02716-.04516-.05988-.09039-.08521-.13549-.03064.02093-.0636.03985-.09613.05914a1.3066,1.3066,0,0,0-.10693.07635.44438.44438,0,0,0-.07312.0586,1.823,1.823,0,0,0-.23114.47015c-.09894.24237-.20777.44342-.44074.31238a.2568.2568,0,0,1-.15686-.204c-.01123-.15619.16352-.3324.29767-.52136a.63314.63314,0,0,0,.13934-.3241c.0094-.22253.26539-.42761.37934-.6568a.18746.18746,0,0,0-.00214-.09442.27562.27562,0,0,0-.04754-.12158c-.00977-.01416-.01532-.03632-.02643-.04486a.26714.26714,0,0,0-.26245.01721,2.52489,2.52489,0,0,0-.18891.25439c-.04138.06018-.09118.11115-.13482.16852a1.27967,1.27967,0,0,1-.1579.18964,1.77847,1.77847,0,0,1-.6452.34985.60315.60315,0,0,1-.08057.01471c-.16406.02838-.30994-.02124-.30646-.30322a2.15462,2.15462,0,0,0-.19171-.63269c-.01855-.05713-.03784-.11408-.0567-.171q-.04734-.14274-.09467-.2854c-.02252.04418-.04822.08746-.07312.13092a1.76357,1.76357,0,0,0-.1803.37909c-.09973.35-.19415.70135-.28759,1.053-.11121.41889-.22138.83808-.3418,1.25434a.58052.58052,0,0,1-.11267.19269c-.05432.06836-.11517.13488-.16541.205l-.0003-.00073v.00006c-.00324-.0108-.0091-.02222-.01294-.0332-.046-.13007-.128-.26813-.102-.38172.04321-.1903.09381-.37884.142-.568.07147-.28064.13818-.56219.20959-.84283.05365-.21076.1095-.42109.15644-.6333a.55247.55247,0,0,0-.11933-.47309c-.09582-.06927-.33465-.00366-.47558.06964-.14478.07532-.23023.25885-.37146.34766a.62717.62717,0,0,1-.84113-.12543.77725.77725,0,0,1-.15082-.296c-.12335-.45971-.25335-.91949-.421-1.3645a.24646.24646,0,0,0-.12927-.11053.72767.72767,0,0,0-.24292-.06861c-.07037-.00549-.19922.13422-.21991.22663a.99725.99725,0,0,0-.01453.25286,1.96671,1.96671,0,0,1,.0008.25721,4.48025,4.48025,0,0,1-.09247.47455l-.00055-.00062-.00006.00019c-.03278-.03168-.06378-.06738-.09515-.10242a.79593.79593,0,0,0-.26081-.22156c-.09381-.03888-.35382.08313-.35254.08716a1.247,1.247,0,0,1-.02356.69507,4.38113,4.38113,0,0,1-.59655,1.012l-.00019.00025-.0003.00042a1.29023,1.29023,0,0,1-.64313.53711.41914.41914,0,0,1-.28278.00074,2.42128,2.42128,0,0,1-.61352-.33008.96332.96332,0,0,1-.34784-.559,11.9716,11.9716,0,0,0-.80158-2.024.21181.21181,0,0,0-.12512-.08405.2715.2715,0,0,0-.11932-.02c-.01666.003-.03571.02758-.05481.04388-.01685.0144-.03375.01947-.04834.0387a.174.174,0,0,0-.04626.11547,2.01131,2.01131,0,0,1,.00189,1.015,1.92688,1.92688,0,0,1-.52088.85467c-.10742.10743-.05987.35328-.09314.54889a.45141.45141,0,0,1-.02563.11133c-.01325.02893-.032.061-.04865.09216a1.14381,1.14381,0,0,1-.27539.36036l-.00006.00006-.01214.00537a.25341.25341,0,0,1-.11634.05121.42751.42751,0,0,1-.245-.09241.94418.94418,0,0,1-.30152-.3169,8.00539,8.00539,0,0,1-.32354-.73608c-.098-.25043-.19049-.50372-.29065-.753-.02356-.05866-.04022-.12512-.06159-.18665a.37719.37719,0,0,0-.0896-.15661,4.7929,4.7929,0,0,0-.55328-.39124c-.01636.067-.03351.13373-.04944.20081-.027.11426-.05322.22882-.08362.34192-.05438.197-.10522.39563-.15735.59375-.07751.29522-.1582.58935-.25891.8764a.93434.93434,0,0,1-.43206.59619.44041.44041,0,0,1-.41456-.04577,1.53237,1.53237,0,0,1-.37536-.341.37482.37482,0,0,0-.61878-.05023c-.00958.0097-.02032.0141-.02972.02472-.01184.01331-.02081.0155-.03235.02777-.19787.21-.35406.259-.48736.1875a.69049.69049,0,0,1-.27649-.35736.95058.95058,0,0,0-.21985-.31628.43069.43069,0,0,0-.19373-.0777c-.02417-.0058-.04877-.01105-.07135-.01856-.02429.07868-.06537.17273-.082.24439-.00683.02936-.02228.06653-.01074.07934a.945.945,0,0,1,.18237.26313c.09723.23419-.05468.38964-.39154.53747-.1242.05493-.17077.31177-.22894.48981l-.00433.01453c-.00812.024-.01233.04962-.01947.07409a4.597,4.597,0,0,1-.19495.65875,2.04935,2.04935,0,0,1-.1756.30567c-.01257.01831-.02624.05145-.03876.06738-.01007.01288-.02081.01184-.03094.02313a.39481.39481,0,0,1-.18134.13489c-.14868.03558-.31927-.06659-.55859-.29516-.51868-.49592-1.016-1.01471-1.528-1.52a2.73261,2.73261,0,0,0-.2882-.21979c-.09113.13269-.24933.26135-.26142.40075-.08185.95411-.14007,1.91059-.19848,2.86615-.0047.07685-.01123.15351-.01593.23035-.01612.26947.059.63544-.09333.823a.33966.33966,0,0,1-.23932.11816.8613.8613,0,0,1-.69952-.2771.92182.92182,0,0,1-.23321-.4002,1.16272,1.16272,0,0,0-.19977-.37329,4.24053,4.24053,0,0,0-.43946-.48151.97669.97669,0,0,0-.4165-.23346c-.0108-.00262-.022-.00812-.03265-.01007a.35527.35527,0,0,0-.14331-.00067.27452.27452,0,0,0-.08381.04736.33246.33246,0,0,0-.03417.01935.86947.86947,0,0,0-.2475.43335c-.10767.54559-.15607,1.10333-.21735,1.65747-.05078.45892-.38013.65607-.78119.41254a3.53061,3.53061,0,0,1-.49-.35749,3.37056,3.37056,0,0,1-.73822-.91711,3.80826,3.80826,0,0,1-.25018-.55481c-.16071-.44684-.30835-.89856-.47778-1.342a.2872.2872,0,0,0-.07819-.09894c-.00818-.00757-.01294-.01648-.02161-.02392-.03753-.03229-.07855-.0633-.1123-.097a1.8509,1.8509,0,0,0-.11157.25037.283.283,0,0,0-.01557.04669c-.14343,1.6889-.45038,3.36035-.43561,5.06537a1.75275,1.75275,0,0,1-.41827,1.03881.55011.55011,0,0,1-.37128.10773.96049.96049,0,0,1-.25384-.02991.41745.41745,0,0,1-.15363-.06439c-.14557-.11914-.277-.2561-.41375-.38641-.35578-.33887-.69611-.69666-1.03315-1.05579a.66561.66561,0,0,1-.19983-.42273,3.67233,3.67233,0,0,0-.15075-1.18231c-.138-.51861-.33277-1.02331-.46247-1.54364a.769.769,0,0,1,.04847-.39612c.02734-.08789.05743-.17614.07855-.26086a.88494.88494,0,0,0-.10919-.87219c-.01361-.01667-.01825-.03309-.03394-.04987a.617.617,0,0,1-.12659-.31311,3.25765,3.25765,0,0,0-.083-.413.22492.22492,0,0,0-.054-.06672.16564.16564,0,0,0-.28857-.0017c-.02295.02356-.04969.048-.05176.06915l-.00067.01135a3.37467,3.37467,0,0,0-.00391.69769l.00037.008c.01788.14905.04663.297.07355.44513a7.41939,7.41939,0,0,1,.11773.80572c.01026.14862.02051.29779.02887.44745.00238.04346.00379.087.00562.13062.00683.15991.011.32055.00433.48358-.0282.65906.13049,1.32349.1521,1.9856.00208.06219.00964.12451.00885.18664-.00116.0957-.01013.19135-.01251.28705-.02558,1.03961-.11231,2.07831-.186,3.11816-.00665.09119-.13134.1742-.20105.2627-.01873-.02417-.04284-.0509-.06829-.07776-.06342-.0332-.19135-.102-.33381-.18005-.04126-.02253-.08209-.04486-.12609-.06922l-.01465-.008c.00573.01532.00537.03686.01074.05255a2.04155,2.04155,0,0,1,.10944.53375l.00042.00214a.23469.23469,0,0,1-.03247.12347.88552.88552,0,0,1-.06012.09241c-.06347.09069-.132.181-.11249.27337a.60547.60547,0,0,1-.14111.38611c-.11786.13458-.28192.15521-.39221-.06537a.65624.65624,0,0,1-.05109-.11969l-.00067-.00189c-.01385-.04724-.03863-.09125-.05627-.13739l-.01026.04407a3.3886,3.3886,0,0,0-.07336.3836c-.00562.04285-.01032.08533-.01331.1272a1.46592,1.46592,0,0,0,.02387.44226c.01141.04889.02984.09668.04626.14478s.031.09686.04676.1452c-.051.00085-.1081.01154-.16156.0163l-.00855-.00116a.22069.22069,0,0,1-.13086-.01776,5.493,5.493,0,0,1-.54443-.42286q-.39918-.32583-.801-.64788c-.11822-.095-.23248-.1955-.35406-.28626-.06787-.05029-.20667-.00555-.32.00482l-.02313.00324c.00635.0625.00439.13263.01288.193a.15776.15776,0,0,0,.02118.07947c.126.14032.265.2699.401.40155a3.15546,3.15546,0,0,1,.31152.33392,8.84921,8.84921,0,0,1,.78821,1.21173l.00006.00025.00018.00036a.35771.35771,0,0,1-.0119.24634c-.00336.01013-.00915.01837-.01294.02838a.40553.40553,0,0,1-.12524.19043.33706.33706,0,0,1-.20935.01422.41637.41637,0,0,1-.25879-.1181c-.41547-.60986-.68756-1.33777-1.45294-1.63257a2.07029,2.07029,0,0,0-.63135-.19976,2.73543,2.73543,0,0,0-2.067.80468,3.381,3.381,0,0,0-.89618,1.64087,12.25358,12.25358,0,0,0-.16772,4.0155,7.36781,7.36781,0,0,0,1.22809,3.249c.03943.06128.07263.12567.11334.18622.02759.04107.04925.08624.07648.12762.30633.46539.59417.9444.85962,1.434a.511.511,0,0,1-.01758.47235c-.08478.08685-.31317.04767-.47754.03992-.48187-.02271-.696-.29633-.806-.75928a3.58875,3.58875,0,0,0-.25873-.69714c-.06976-.14746-.14178-.29438-.22205-.43378-.38989-.679-.76715-1.35968-1.09906-2.0611a11.13762,11.13762,0,0,1-.88916-2.55774,10.23667,10.23667,0,0,1-.16876-1.20111,7.85234,7.85234,0,0,1,.70264-4.06158c.06183-.13068.14941-.251.21277-.37708a.61625.61625,0,0,0,.05926-.123.13445.13445,0,0,0-.00964-.04956c-.02606-.10291-.15759-.26764-.18994-.25794-.49842.14874-1.00177.30646-1.51758.46625-.36395.11279-.73029.22638-1.12177.34009-.64343.26538-1.17553.54956-1.72644.78674a1.055,1.055,0,0,1-.59918.02551.36339.36339,0,0,1-.28137-.47345A.53135.53135,0,0,1,.13,34.698c.06207-.07117.116-.1333.17187-.19751,1.31464-1.51337.99836-1.17658,3.74488-2.19239a6.44557,6.44557,0,0,1,2.4035-.20684c.162.00256.3241.0072.48535.0014.1164-.00415.23273-.00537.34931-.00476.15716.00067.31463.00311.47076-.0069.00671-.00024.01508-.01166.02332-.02313a.30646.30646,0,0,0,.03015-.056c.02246-.05286.03943-.113.02966-.12061a6.90607,6.90607,0,0,0-.65344-.49487c-.0437-.02765-.08368-.06238-.12915-.08661A7.71377,7.71377,0,0,1,6.03586,30.587,3.45744,3.45744,0,0,0,5.027,30.01085a7.89935,7.89935,0,0,0-2.43793-.37964c-.024-.0003-.04736-.00244-.07141-.00256-.12982-.00073-.35382.08209-.4519-.01324-.04236-.0409-.06378-.11145-.04035-.2414a.83841.83841,0,0,1,.3169-.46594.5014.5014,0,0,1,.11938-.06946.83324.83324,0,0,1,.19141-.039c.18335-.0199.37976-.00183.57111-.00641a1.41587,1.41587,0,0,0,.14178-.00659c2.00726-.25665,4.01245-.49487,5.92786.442.045.022.09247.04072.138.062.20965.09716.42206.19061.6347.28314-.035-.03247-.06817-.06659-.10284-.09937-.10138-.09595-.20239-.19214-.30084-.29065-.0647-.06469-.12671-.13159-.18995-.19751-.07818-.0816-.157-.16253-.23266-.24621-.07013-.07752-.13648-.158-.20423-.23743-.06567-.07709-.13262-.153-.1958-.232-.06878-.08606-.13269-.17572-.19818-.26429-.05706-.07714-.11621-.15277-.17059-.23193-.06342-.09229-.12079-.189-.18018-.28412-.05017-.08038-.10315-.15881-.15026-.24133-.05738-.10053-.10755-.20624-.16-.31018-.0415-.082-.08655-.16156-.12482-.24585-.05493-.12091-.10083-.248-.14874-.37378-.02765-.07263-.05987-.142-.08508-.21637a6.25946,6.25946,0,0,1-.17761-.62927,8.03883,8.03883,0,0,0-.79181-1.61719c-.04175-.08508-.08893-.16846-.12238-.2561-.03564-.09351-.0813-.18433-.12311-.27613a5.24591,5.24591,0,0,1-.55084-1.51977,1.79887,1.79887,0,0,1-.0274-.37812c.00323-.03826.00634-.07074.00964-.10406a.44862.44862,0,0,1,.28558-.40472c.366-.20771.40082.05358.52814.16626A10.56527,10.56527,0,0,1,7.8685,22.39977,23.64,23.64,0,0,1,9.524,24.818c.00342.00556.00055.01557.00061.02362.00031.01825.00263.03376.002.05066-.00019.00891-.00306.02039.00152.0249.15943.15766.32166.31263.48316.46814.09173.08826.18273.17743.27441.26575-.05585-.302-.10455-.60553-.1687-.90582a8.24981,8.24981,0,0,1-.19568-4.27735.73.73,0,0,0,.016-.22955c-.00055-.02441-.00177-.04895-.00079-.07306.05462-1.26117.11615-2.52276.15918-3.78528.01074-.31793.02679-.6358.03363-.95379.01111-.5174-.14331-1.03656-.18268-1.55786-.00543-.07215-.02411-.17133-.02789-.26355-.00629-.14618.0343-.271.29657-.21259.011.0025.02288.01013.03418.01355a.79957.79957,0,0,1,.2976.17859.731.731,0,0,1,.19232.25952,3.67851,3.67851,0,0,1,.14765.50794,2.20655,2.20655,0,0,1,.05768.63031,2.936,2.936,0,0,0,.425,1.4754,29.35794,29.35794,0,0,1,2.06439,4.89429.28856.28856,0,0,0,.112.137c.04028.0321.084.06323.119.097.024-.08362.0606-.1706.0816-.25348a.2562.2562,0,0,0,.01654-.11756c-.07928-.31042-.14514-.62091-.20331-.93164a7.20217,7.20217,0,0,1,.06476-3.36145.80878.80878,0,0,0,.01666-.24231c-.00366-.12335-.01452-.2492-.00811-.37182.02923-.56678.03625-1.13776.0542-1.70667a13.602,13.602,0,0,1,.192-2.10058,7.45459,7.45459,0,0,0-.1712-2.4502c-.001-.00812.00085-.01843.0003-.027a.55662.55662,0,0,1,.16193-.44586.40033.40033,0,0,1,.29272.01331.39416.39416,0,0,1,.17475.10022l.00024.00036.00006.00006c.02857.03565.04767.0813.07331.12073a1.55368,1.55368,0,0,1,.12249.20184,1.64,1.64,0,0,1,.11658.36109c.01819.0935.02539.18921.04163.28314.17413,1.00757.25384,2.037.43567,3.02466.10687.58044.19775,1.15954.27941,1.73871a25.467,25.467,0,0,1,.27808,3.66217c0,.045-.00433.092-.00372.13708a.20747.20747,0,0,0,.00689.06745c.10444.27984.22046.55542.33228.83252.2403-.1355.24274-.35254.25818-.567a1.0921,1.0921,0,0,1,.03638-.23608,3.95569,3.95569,0,0,0-.18775-2.84235c-.01074-.02484-.01068-.05438-.01929-.0802a4.93411,4.93411,0,0,1-.01281-1.44537c0-.53492-.00891-1.06971.00055-1.604.00256-.14966-.00025-.29956.00726-.449.01239-.24677.05127-.49182.07239-.73834.03784-.44465.06726-.89008.13025-1.33173.18762-1.32031.3927-2.63928.626-3.95154.02851-.15924.21131-.2904.35108-.42914.01776-.01776.03753-.03521.05334-.05334l.00019.00012.00018-.00018c.134.13134.34314.24127.39007.39813.29755,1.008.56433,2.02667.8324,3.04407q.396,1.5043.785,3.01037.22293.857.4472,1.71375c.0387.14868.075.29791.1123.4469.04364-.1059.12006-.2442.17218-.35852.04078-.08972.068-.166.04334-.19092a.59333.59333,0,0,1-.11383-.154.51226.51226,0,0,1,.07288-.4975.78956.78956,0,0,0,.152-.4588c-.00934-.07147.134-.19757.28491-.28327a.69285.69285,0,0,1,.202-.08477c.50269-.08985.53351-.06171.50269-.50129a4.56427,4.56427,0,0,0-.13044-.65051,1.45114,1.45114,0,0,1-.04431-.39618c.01569-.25976.05182-.51837.08832-.77685.05414-.38574.11682-.77094.17627-1.15619.02411-.15686.11121-.30567.11926-.46112.07642-1.37531.14209-2.74921.20911-4.12445.00427-.08588-.007-.17987-.007-.26612a.25741.25741,0,0,1,.02-.13617A1.10876,1.10876,0,0,1,21.839,4.29a.55132.55132,0,0,1,.23493-.13318c.08563-.01917.248.10223.32886.21954a.3612.3612,0,0,1,.04132.06574c.056.146.10571.29535.1568.44391a7.37728,7.37728,0,0,1,.26385.92083c.03644.178.067.35761.099.53687.11774.65832.21643,1.32129.35022,1.97461.05646.275.11957.54815.19421.81811.13013.47351.2403.95044.34949,1.42755.15533.67774.30316,1.35675.45673,2.03516.09106.40222.19067.80292.31134,1.19653a6.60885,6.60885,0,0,0,.59149,1.40479,1.227,1.227,0,0,0,.21429.2196c.00788-.02539.02069-.05206.03186-.07831a.476.476,0,0,0,.06745-.2713c-.05146-.19372-.11762-.38354-.18268-.57354-.04291-.12543-.07684-.253-.11609-.37928-.033-.10577-.07117-.21038-.09662-.31793a14.76075,14.76075,0,0,1-.42883-3.33337c-.00171-.30219.00177-.6048.0249-.90839.04883-.64117.1922-1.2749.3056-1.91156.01758-.09857.03864-.19659.05408-.29541l.001-.02a4.78559,4.78559,0,0,0,.03625-.68335q.00312-1.46383.00739-2.92761c.00128-.49567-.00226-.991.0036-1.48669a.94363.94363,0,0,1,.01672-.15607c.03089-.16614.10273-.34442.19855-.38428.2898-.1206.46338.1073.60291.36951.18481.34735.40094.67822.59973,1.018.05932.10126.1239.19989.17712.3042a16.22487,16.22487,0,0,1,1.799,3.98584c.006.02881.01849.05457.024.08356.072.37512.15936.74738.24976,1.119.06115.25128.12341.50232.1845.75372a.95.95,0,0,0,.05866.145c.02917.06824.05517.13721.08356.20569.03479-.12323.07763-.24365.1004-.36823.076-.39465.16357-.78814.242-1.18225a9.607,9.607,0,0,0,.15833-1.00964c.02814-.31311.08044-.62024.13806-.92609.20978-1.11688.5705-2.19592.81146-3.30389.10321-.4718.17292-.95166.307-1.41412a.69777.69777,0,0,1,.37665-.39679h.0003l.00018-.00013a.13742.13742,0,0,1,.08625.00776.55208.55208,0,0,1,.29394.24444,14.38158,14.38158,0,0,1,.45972,1.4516c.19623.73474.39575,1.46912.57214,2.20783.0683.2854.1446.56933.19892.85736a23.51277,23.51277,0,0,1,.25341,2.56585c.00855.11225.00214.226-.00036.33936a4.572,4.572,0,0,0,.02008.78662,1.40247,1.40247,0,0,0,.178.45221c.04974.09119.10193.182.145.27417.00421-.03974.00879-.07965.01282-.11945.0191-.18976.03662-.37976.0606-.56891.06586-.5194.12458-1.0401.20661-1.55706A24.55859,24.55859,0,0,1,35.076,3.19841c.10834-.28735.21314-.57574.32971-.86053l.00916-.01691a.9054.9054,0,0,1,.30286-.369A.29648.29648,0,0,1,35.84,1.90355a.67967.67967,0,0,1,.56427.29224l.00012.00024.00019.00025a23.45892,23.45892,0,0,1,.87915,2.1784,6.74957,6.74957,0,0,1,.19287.77137c.023.12457.02649.24768.04358.37176A18.22064,18.22064,0,0,1,37.6619,7.5291a.4501.4501,0,0,0,.10858.22083c.0191.02655.03925.0531.05463.07959l.018-.0152a1.98792,1.98792,0,0,0,.17-.16181.32307.32307,0,0,0,.04779-.05505c.55414-1.06995,1.08252-2.15362,1.65228-3.21509.38763-.72229.82532-1.41766,1.22955-2.13122.03595-.06354.07477-.12549.11005-.18939.02533-.04572.04333-.09552.06671-.14228.12964-.25989.24225-.52923.35877-.79675.02685-.06177.05114-.12488.07983-.18561.08661-.18347.175-.369.27411-.54584a1.7902,1.7902,0,0,1,.18146-.28674.32733.32733,0,0,1,.49749.02271.28938.28938,0,0,1,.067.17456,4.458,4.458,0,0,1-.40613,2.39532,23.75188,23.75188,0,0,1-.39544,3.73309,5.46716,5.46716,0,0,0-.01886,1.15052c.00341.12927.00347.25818-.00513.38592-.00849.12641-.03259.25171-.05231.37732-.04553.291-.10193.5813-.13281.87427-.00293.02386.02472.051.04437.07727.04358.058.10932.11835.15857.17694.06525-.05743.184-.11157.18781-.17285A4.56184,4.56184,0,0,1,42.36148,7.792a19.5132,19.5132,0,0,0,.76362-1.81219c.36907-1.1933.87414-2.34339,1.31518-3.51581.06018-.16016.12323-.31946.1803-.48065.11792-.33313.22912-.55207.59509-.51423.31189.03223.40412.21967.43543.46576.00775.06049.01434.122.01672.18854.01117.32721.03113.65491.05109.98267q.03735.61257.075,1.22485c.04443.73169.066,1.46179.0415,2.18872-.00494.14758-.00067.29578-.01062.443-.016.23664-.026.47284-.04022.70929q-.04678.77976-.07782,1.55939c-.01972.5163-.03778,1.03253-.0423,1.54981a1.51794,1.51794,0,0,0,.05176.28546.689.689,0,0,0,.1485-.14984h0c.13794-.27485.27337-.55091.41138-.82569.68695-1.36761,1.37634-2.73474,2.04718-4.10992.10845-.22235.22973-.36572.4378-.39978a.59723.59723,0,0,1,.15808-.01074.512.512,0,0,1,.131.02642.19141.19141,0,0,1,.13562.21222c-.00317.08771-.03149.18335-.03912.264a.34831.34831,0,0,0-.00311.04321,11.769,11.769,0,0,1-.5683,4.27588.59871.59871,0,0,0-.02112.23572c.01959.275.16278.58991.17407.88019l.00251.01678a1.54786,1.54786,0,0,0,.04339.30451,4.60717,4.60717,0,0,1,.14423.67975.85267.85267,0,0,1-.17151.59478.11443.11443,0,0,0-.00385.08655c.00739.03467.019.07239.023.10443.027-.00757.05646-.0122.08533-.01751A.27752.27752,0,0,0,48.98,13.23a2.08619,2.08619,0,0,0,.28125-.26465.51851.51851,0,0,0,.07807-.09759c.11676-.24933.22864-.501.34314-.75141.37207-.81408.739-1.63074,1.11511-2.44244.22656-.48792.48663-.96106.72522-1.445A9.37057,9.37057,0,0,0,52.453,5.94225a.46959.46959,0,0,1,.165-.22736.64106.64106,0,0,1,.12805-.08423.26691.26691,0,0,1,.11841-.03155.4035.4035,0,0,1,.22912.13324l.012.015a.53573.53573,0,0,1,.13952.22974,4.79582,4.79582,0,0,1,.08148.8866,7.02929,7.02929,0,0,1-.03015.74481c-.0318.34473-.07715.689-.13177,1.032-.05884.36548-.116.73169-.174,1.09766-.10413.6593-.21375,1.3175-.36035,1.96722a7.79584,7.79584,0,0,0-.13752,1.03723,4.713,4.713,0,0,1-.34283,1.63489l-.00049.00049h0c-.01129.02417-.04547.04254-.05823.0614l-.00964.01178c.00806.25311.02417.50769.03888.7608.12091-.18322.25372-.35986.36078-.55078q1.21426-2.16522,2.42132-4.33429a3.01653,3.01653,0,0,1,.17542-.26062,1.08141,1.08141,0,0,1,.09326-.139l.00061-.00043V9.92681c.00684-.007.01239-.00806.01917-.01471A.66111.66111,0,0,1,55.6315,9.68c.14142-.00207.26075.09155.35791.27576a1.1105,1.1105,0,0,1,.09479.19134,1.01578,1.01578,0,0,1,.0365.31226c.00006.02612.011.05182.00916.07733-.01007.13965-.00953.27924-.01484.41882-.01953.51459-.01934,1.02942-.0166,1.54529.002.35321-.00158.70715-.01526,1.06177-.01165.30359-.0299.6076-.06732.91272-.05609.45508-.11035.906-.17889,1.35394-.00678.04425-.014.08856-.02112.13275a11.95334,11.95334,0,0,1-.28387,1.33893.60742.60742,0,0,0-.01947.17169c0,.00434-.00147.00824-.00141.01258.00049.01971.00507.04058.00672.06067a2.119,2.119,0,0,0,.0354.23919c.02014.09937.04156.19916.05249.296.02722-.05578.05255-.11212.081-.16742a5.066,5.066,0,0,0,.23767-.49267c.08514-.22107.15411-.44989.22919-.67536l.00958-.0238a4.22656,4.22656,0,0,1,.257-.63355c.13959-.26452.40564-.54656.56677.071a3.9545,3.9545,0,0,0,.21307.56927c.12037.27747.25159.55207.37079.82972.04291.10192.08448.20513.12732.30694a3.31917,3.31917,0,0,0,.14343-.35113c.12122-.41877.25922-.83277.3996-1.246.01325-.03906.02442-.07873.03778-.11779l.00916-.02674a21.09433,21.09433,0,0,0,1.14123-4.11334.31779.31779,0,0,1,.09674-.15436.30935.30935,0,0,1,.18671-.10815c.18634.01074.47046-.1944.53888.23456a10.41425,10.41425,0,0,0,.25092,1.03283c.028.10608.04766.21405.07074.32135a3.08152,3.08152,0,0,1,.08581.83869c-.01385.22729-.00922.4555-.00836.68359.00189.45642.012.91333-.00751,1.36884a5.54823,5.54823,0,0,1-.15643,1.67462,1.90336,1.90336,0,0,0,.21472,1.42077c.01489.03034.02472.06012.04065.09052a2.83742,2.83742,0,0,1,.31372,1.06714,2.25406,2.25406,0,0,1-.12537.99658,11.8697,11.8697,0,0,0-.4519,2.37213c-.04913.338-.11725.6698-.19281.99915-.24725,1.07965-.6059,2.12292-.90826,3.18457-.00776.02728-.01648.0542-.02417.08148-.07776.27673-.18934.544-.28138.81677-.01922.057-.04254.11279-.059.17066-.00451.01568-.00531.03234-.00933.04815a2.77525,2.77525,0,0,0-.06165.329c-.01337.105-.02454.21064-.04016.31513a2.73832,2.73832,0,0,0,.35467-.56214,7.91586,7.91586,0,0,1,.38941-.91931,6.4099,6.4099,0,0,0,.78863-2.24237c.004-.04858.01374-.09509.01538-.14453a.36789.36789,0,0,1,.053-.16016.28672.28672,0,0,1,.07026-.09124,2.57029,2.57029,0,0,0,.803-.94159l.00159-.00257c.01788-.03436.03168-.07086.04852-.10571.27552-.57135.41773-1.21252.65485-1.80139.09155-.22736.17847-.45709.26843-.68555.10791-.27411.21375-.54846.31476-.82495.15143-.41485.29651-.83179.41754-1.25506a16.89365,16.89365,0,0,0,.43183-2.38642,1.24728,1.24728,0,0,1,.086-.32147.36292.36292,0,0,1,.36145-.25061.39182.39182,0,0,1,.06109-.0061.5718.5718,0,0,1,.23883.11547.87064.87064,0,0,1,.1994.19281.45869.45869,0,0,1,.07276.1482,8.01527,8.01527,0,0,1,.28528,3.757c-.14075.65393-.2312,1.33593-.34064,2.01458-.04193.26026-.07672.522-.13281.77839-.10321.46911-.2024.941-.327,1.40472-.22388.82971-.48663,1.65008-.685,2.48511a.58808.58808,0,0,0-.00561.06591,3.15968,3.15968,0,0,0,.08886.71131c.02717-.05884.055-.11743.08179-.17652.0763-.16833.15125-.33728.23261-.503.47424-.967.94116-1.938,1.43579-2.89453l.00012-.00012.00018-.00043a1.23587,1.23587,0,0,1,.07544-.10492,1.406,1.406,0,0,1,.4065-.41156.58094.58094,0,0,1,.26-.09112.417.417,0,0,1,.11584.02148.40891.40891,0,0,1,.17175.0716.49852.49852,0,0,1,.205.35363,3.47321,3.47321,0,0,1-.00116.70307,4.0533,4.0533,0,0,1-.18219.882c-.02759.08575-.05225.1723-.08472.25677-.15478.40137-.32019.799-.48474,1.197-.11053.26764-.21777.53662-.3294.80383-.161.38526-.323.77015-.47937,1.15717a.54411.54411,0,0,0-.02.23267c.00219.03894.00525.07812.00415.11578a1.27523,1.27523,0,0,1,.31213-.1648.75132.75132,0,0,0,.16156-.069,2.462,2.462,0,0,0,.50446-.34265,1.24155,1.24155,0,0,1,.49743-.26922,2.72675,2.72675,0,0,1,1.92633.25439A2.343,2.343,0,0,1,69.487,31.55876c.16284,1.29114.39325,2.57361.58936,3.8606.00482.03168.01031.06329.01513.095a1.81694,1.81694,0,0,1,0,.51209C70.06821,36.19506,70.03556,36.3626,70.00443,36.53014Z" style="fill:#fff"/><path id="fill2" d="M70.09149,36.02644c-.05763.41823-.16487.83108-.19573,1.24924-.08577,1.134-.14206,2.27065-.21444,3.40463a.60773.60773,0,0,1-.06971.1756c-.07239-.05223-.197-.09516-.20911-.1595a4.042,4.042,0,0,1-.12062-.97448A10.30209,10.30209,0,0,0,68.042,34.38176c-.64743-1.30154-1.21442-1.61118-2.528-1.28949a3.9815,3.9815,0,0,0-2.21168,1.34447c-.05629.0697-.1059.14471-.15816.21709.12733.02415.28952.11127.37532.063.82035-.46646,1.32565.04019,1.87792.53754a7.23832,7.23832,0,0,1,1.86852,3.54535c.79754,2.57361.51205,5.17262.5469,7.76632a15.89756,15.89756,0,0,1-.39273,2.80551c-.10724.63132-.26808,1.25591-.40618,1.88325-.02009.09385-.0469.185-.071.27744-.04425-.09778-.13673-.20237-.12469-.29348.04962-.4196.13136-.83376.19439-1.252a.63586.63586,0,0,0-.00268-.30558,14.38116,14.38116,0,0,1-.22253-2.58029,42.42589,42.42589,0,0,0-.74259-4.71159c-.20375-.64338-.2761-1.38728-.47046-2.06959-.49866-1.7532-1.86319-2.63789-3.40466-3.32818a.6465.6465,0,0,0-.40615-.00138c-.79083.22384-1.31226-.315-1.86852-.6903a.96222.96222,0,0,1-.26-.69435c-.02815-.99189-.01074-1.98516-.01074-2.977a1.69956,1.69956,0,0,0-.01741-.60855.738.738,0,0,0-.41822-.35925c-.17691-.06028-.31095-.0201-.41822.25872-.13.34184-.24259.83913-.86453.79083-.15282-.01205-.33916.42627-.51607.65417a.75621.75621,0,0,1-.14343.114c-.02815-.05636-.08846-.11664-.08178-.16756a2.18014,2.18014,0,0,1,.134-.66222,4.0311,4.0311,0,0,0-.14474-3.20625c-.03083-.09784-.13539-.17292-.20643-.25865a1.92206,1.92206,0,0,0-.1957.27344,3.46012,3.46012,0,0,0-.32973.78409c-.0952.5-.4665.40749-.75333.34852-.08845-.01741-.10992-.39008-.14612-.60318-.008-.05092.04157-.12063.08044-.16893a.47083.47083,0,0,0-.12733-.768c-.256-.17429-.492-.07912-.7064.14341-.059.063-.23189.01472-.35254.01878.00939-.09791-.01741-.22122.03351-.28687a2.41759,2.41759,0,0,0,.256-2.402,10.88093,10.88093,0,0,1-.21848-1.24525c-.08178-.39545-.45844-.51607-.70371-.19438A13.001,13.001,0,0,0,52.8538,26.543c-.19435.34178-.43161.53617-.79083.29891-.27077-.17691-.39679-.23595-.46113.15819-.01875.11388-.21578.19969-.331.29754a2.17193,2.17193,0,0,1-.059-.48525c.05363-.55488.13538-1.10715.193-1.66209A.31093.31093,0,0,0,51.311,24.893c-.06032-.0362-.25333.00936-.25869.04287-.09785.51476-.27211.37267-.5898.13941a1.09643,1.09643,0,0,0-1.45836.03351c-.10187.0858-.27613.08312-.41684.122a3.99443,3.99443,0,0,1,.11928-.42221,2.42036,2.42036,0,0,1,.21582-.42359,1.09785,1.09785,0,0,0-.41286-1.68756.24554.24554,0,0,0-.21045.05766c-.26943.25467-.54019.50933-.78412.78677-.14746.16625-.21448.41149-.37532.55626a.48338.48338,0,0,1-.85252-.32568c-.04022-.50939-.004-1.02546-.01473-1.53878-.00268-.07913-.08177-.1582-.126-.23726a1.47729,1.47729,0,0,0-.2761.19432c-.23725.27482-.27613,1.00531-.67158.78284-.48387-.27482.26409-.64474.28016-1.04955.00939-.22253.2654-.42758.37935-.65679a.279.279,0,0,0-.07642-.2614.26959.26959,0,0,0-.26271.01741,6.6448,6.6448,0,0,1-.48119.61261,1.77749,1.77749,0,0,1-.64474.34983c-.19439.06034-.39143.04018-.3874-.28818a2.15433,2.15433,0,0,0-.19167-.6327c-.04958-.15276-.10053-.30428-.15148-.4571a3.07334,3.07334,0,0,0-.25333.5107c-.2185.76675-.40749,1.54147-.63,2.30691a1.50741,1.50741,0,0,1-.27748.39806c-.04156-.1394-.14343-.29223-.11529-.41554.15551-.68493.35657-1.35919.508-2.04412a.55244.55244,0,0,0-.11928-.47314c-.0965-.0697-.3351-.00406-.47585.06971-.14477.07507-.23055.25865-.3713.34714a.64847.64847,0,0,1-.99189-.42091c-.1233-.45972-.25335-.9195-.4209-1.36449-.0362-.09785-.23994-.16893-.37261-.17966-.0697-.0053-.19838.134-.21984.22652a4.30355,4.30355,0,0,0-.01342.5107,4.48463,4.48463,0,0,1-.09248.47451c-.11794-.11257-.21713-.2667-.35654-.32436-.09382-.03888-.35385.08312-.35254.08711.17426.71314-.27345,1.1796-.6206,1.70771-.23994.36456-.63133.66216-.92624.53748-.36191-.15276-.82971-.30559-.96107-.88868a11.9691,11.9691,0,0,0-.80156-2.024.28286.28286,0,0,0-.24393-.10453c-.063.012-.16356.1434-.15014.19838a1.84828,1.84828,0,0,1-.51876,1.86984c-.12867.12867-.0268.46115-.11928.66084-.09382.20643-.28415.4946-.4517.508-.17429.0161-.44771-.21716-.5469-.4088-.244-.47588-.4142-.99058-.61392-1.48924a.946.946,0,0,0-.15145-.34315,4.78781,4.78781,0,0,0-.5536-.39139c-.04422.181-.08447.36324-.1327.5429-.13539.49055-.248.99058-.41685,1.4704-.26946.76805-.69436.83913-1.22113.20911a.38177.38177,0,0,0-.64877-.02546c-.37.41554-.59916.31232-.7962-.14209a.95146.95146,0,0,0-.21984-.31632.74207.74207,0,0,0-.2654-.09654c-.03351.11127-.13267.28019-.09248.32437.36056.39276.23994.60318-.20911.80025-.12734.05629-.17289.32575-.2332.504a6.90658,6.90658,0,0,1-.21448.73317c-.30293.64474-.50668.693-.98521.23588-.51873-.49591-1.016-1.01467-1.52806-1.52a2.73049,2.73049,0,0,0-.28817-.21978c-.09118.13266-.24933.26134-.26141.40074-.08846,1.03077-.15145,2.06422-.21445,3.09637-.02146.35918.11929.89-.33245.941a.87968.87968,0,0,1-.93292-.677,2.18506,2.18506,0,0,0-.63938-.85517.78866.78866,0,0,0-.59245-.24393c-.15682.0375-.327.307-.36593.5-.10724.54553-.15547,1.10316-.21716,1.65811-.05092.45841-.37931.65541-.78144.41148a3.43815,3.43815,0,0,1-1.47713-1.82834c-.16084-.44768-.30964-.89941-.47854-1.34309-.03351-.08712-.1394-.14609-.21179-.21985a1.02374,1.02374,0,0,0-.1273.2976c-.14343,1.68893-.45039,3.36039-.43563,5.06542a1.75293,1.75293,0,0,1-.41823,1.03881.798.798,0,0,1-.77878.01342,15.62128,15.62128,0,0,1-1.44631-1.44231.65924.65924,0,0,1-.19972-.42222,8.95349,8.95349,0,0,0-.61389-2.72637,1.54926,1.54926,0,0,1,.12733-.65679.86294.86294,0,0,0-.14343-.92225c-.15282-.1635-.12867-.48387-.20911-.7265a.27312.27312,0,0,0-.19972-.15145.25613.25613,0,0,0-.1957.15283,3.3774,3.3774,0,0,0-.004.71713c.051.41816.16218.831.1917,1.25055a9.59272,9.59272,0,0,1,.03885,1.06166c-.03083.72112.17023,1.44893.16084,2.1728-.01339,1.13529-.11794,2.26927-.19838,3.40463-.00668.09117-.13136.17423-.20106.26271-.01875-.02415-.04287-.05092-.06833-.07775-.08446-.04424-.27077-.1434-.47451-.25735a2.04987,2.04987,0,0,1,.12062.58846c.01074.16618-.23994.32437-.20508.48924,0,.39276-.41819.76936-.58444.20106-.01606-.05361-.03351-.10727-.05494-.1595a2.121,2.121,0,0,0-.075,1.01735c.02278.09784.06165.193.09248.28955-.10187.00268-.2279.04287-.30025-.00269a5.477,5.477,0,0,1-.54421-.42221c-.38469-.3137-.75867-.63807-1.15542-.9343-.07239-.0536-.22656.00269-.34315.008.00936.09248-.0161.21716.03351.27208.2292.25466.50664.46783.71307.73591A8.85287,8.85287,0,0,1,11.982,35.8388a.49327.49327,0,0,1-.15014.46509.48188.48188,0,0,1-.4678-.10322c-.41551-.60986-.68762-1.33773-1.453-1.63258a2.0706,2.0706,0,0,0-.63133-.19975A2.92793,2.92793,0,0,0,6.3161,36.81328a12.27186,12.27186,0,0,0-.16755,4.01586A7.51482,7.51482,0,0,0,7.4903,44.2646c.33779.50265.64743,1.02808.93561,1.56157a.50959.50959,0,0,1-.01741.47182c-.08447.08712-.31233.0483-.4772.04019-.48122-.02278-.69566-.29623-.80558-.75863a4.33174,4.33174,0,0,0-.48122-1.1313A15.48661,15.48661,0,0,1,4.65666,39.8292a8.17907,8.17907,0,0,1,.53348-5.26248,2.99879,2.99879,0,0,0,.27214-.5c.02143-.08711-.16222-.319-.19975-.30827-.8498.25467-1.69293.53211-2.63926.80693-.64341.2654-1.17555.54958-1.72644.78677a1.0555,1.0555,0,0,1-.59919.02553.392.392,0,0,1-.16755-.67963c1.52406-1.7479,1.05358-1.331,3.91671-2.39a8.94015,8.94015,0,0,1,2.88855-.205c.27345-.01073.54824.00537.82035-.012.03485-.00138.10053-.18634.08312-.19975a5.109,5.109,0,0,0-.78281-.58172A12.93711,12.93711,0,0,0,5.02664,30.0107a7.93813,7.93813,0,0,0-2.50927-.382c-.185-.00138-.56968.17691-.49192-.25467a.80961.80961,0,0,1,.43563-.53485,4.44054,4.44054,0,0,1,.90478-.05223c2.00793-.25741,4.01318-.49467,5.92863.44231.252.122.51339.23189.77208.34446A8.044,8.044,0,0,1,7.44472,25.4734a15.74684,15.74684,0,0,0-.91417-1.87389,4.91255,4.91255,0,0,1-.701-2.1728.48752.48752,0,0,1,.29491-.5094c.36593-.20774.40078.0536.52812.16624a16.05089,16.05089,0,0,1,2.87114,3.73437c.01611.02546-.012.08181.004.09922.25064.24792.50534.49054.75866.73454-.05629-.303-.10452-.60587-.16886-.90615a8.24485,8.24485,0,0,1-.19573-4.27727,1.2543,1.2543,0,0,0,.01476-.3029c.06836-1.579.15816-3.158.193-4.73967.01074-.51738-.1434-1.03614-.18227-1.55758-.01476-.18633-.15954-.571.26808-.47582a.84468.84468,0,0,1,.52409.45167,2.766,2.766,0,0,1,.20508,1.138,2.9314,2.9314,0,0,0,.4249,1.47576,29.2701,29.2701,0,0,1,2.06422,4.89387c.02415.09249.15148.15682.23189.23458.03488-.12469.126-.26272.09788-.3713a8.06573,8.06573,0,0,1-.13807-4.29337,2.92263,2.92263,0,0,0,.008-.61385A28.45691,28.45691,0,0,1,13.88,12.50093a7.43762,7.43762,0,0,0-.17158-2.4503.56962.56962,0,0,1,.16222-.4732.492.492,0,0,1,.46777.11394,1.62518,1.62518,0,0,1,.31232.68363c.21314,1.09648.27882,2.22777.4772,3.30815a29.10289,29.10289,0,0,1,.5576,5.40052.65459.65459,0,0,0,.00268.20506c.10456.27881.22119.55494.33242.83238.33108-.18627.21179-.52673.29488-.80287a3.95367,3.95367,0,0,0-.18764-2.843,4.12824,4.12824,0,0,1-.03217-1.52544c0-.68493-.0268-1.36986.00805-2.05348.03485-.69168.10456-1.38328.2024-2.06959.18765-1.32032.39273-2.63926.626-3.95153.03216-.17966.26405-.32306.4048-.48256.134.13136.34315.24125.39008.39813.29754,1.008.56431,2.02665.83239,3.04407q.62126,2.36041,1.23183,4.72357c.03888.14883.07507.29891.11257.44768.07776-.189.27211-.49323.21582-.54952-.42087-.4249.16085-.73055.11127-1.10989-.01342-.1059.29891-.33511.48655-.36862.50266-.08979.53348-.06165.50266-.50128a8.61591,8.61591,0,0,1-.17426-1.04686c.03887-.64743.16486-1.2895.26409-1.93287.02411-.15681.11123-.30565.11928-.46109.07641-1.37529.14209-2.74921.20911-4.12444.00671-.13542-.04961-.307.01338-.40213a.80561.80561,0,0,1,.42225-.35251c.10188-.02284.32035.15413.37.28549a8.72121,8.72121,0,0,1,.42087,1.3645c.22652,1.10721.34316,2.24388.64341,3.32962.315,1.146.54421,2.30684.80558,3.46223a9.02253,9.02253,0,0,0,.90344,2.60175,1.22917,1.22917,0,0,0,.21448.21985c.03619-.11794.126-.2493.09915-.34983-.11391-.429-.29354-.84044-.39541-1.27077A13.76189,13.76189,0,0,1,24.732,9.55733c.05632-.73991.244-1.46908.35926-2.20631a4.72991,4.72991,0,0,0,.0375-.70371c.00268-1.4704-.00667-2.94216.01073-4.41393.00269-.18765.08712-.48662.21583-.54022.28951-.12063.46243.10727.60184.37.23994.45036.54552.86721.77741,1.32163a15.62259,15.62259,0,0,1,1.823,4.06947c.12062.62864.28284,1.2493.43429,1.87258a2.4666,2.4666,0,0,0,.14209.35114c.03486-.12331.07776-.24393.10053-.36862.14075-.73048.33377-1.45566.40079-2.19151a34.33852,34.33852,0,0,1,.949-4.23035c.10321-.47182.17292-.9517.307-1.41417a.6979.6979,0,0,1,.37663-.39676c.08714-.03351.33376.12868.38068.25205a14.37609,14.37609,0,0,1,.45976,1.45161c.2721,1.01873.57638,2.03208.77073,3.06553a23.3096,23.3096,0,0,1,.25336,2.56557c.02948.374-.0362.75869.02009,1.12593a2.88014,2.88014,0,0,0,.323.72649c.02415-.2292.04424-.45972.07373-.68892.06568-.51876.12465-1.04019.20643-1.55627A25.54888,25.54888,0,0,1,35.40569,2.3379c.075-.18228.27345-.41685.43429-.43432a.67977.67977,0,0,1,.56431.29223,14.25708,14.25708,0,0,1,1.07233,2.95028,15.19667,15.19667,0,0,1,.185,2.38322c.00268.1019.10589.20106.16356.30028.07906-.07644.18764-.13941.23588-.23189.5536-1.06971,1.08306-2.15408,1.65273-3.21567.42225-.78684.90746-1.53879,1.33907-2.32026.19841-.35788.32977-.75326.50534-1.12462a3.75511,3.75511,0,0,1,.45576-.83239.32812.32812,0,0,1,.56431.19707,4.45783,4.45783,0,0,1-.40615,2.39533,23.75616,23.75616,0,0,1-.39542,3.73305,13.30329,13.30329,0,0,0-.02415,1.53611c-.02814.41953-.14071.83239-.185,1.25192-.00939.07638.13136.16886.2024.25466.06568-.05766.185-.11257.189-.17292.07507-1.21572.819-2.19695,1.16618-3.32019.41954-1.35651,1.02-2.65536,1.49589-3.99708.11794-.33242.2292-.55089.59513-.51339.38737.04025.43966.31632.45171.6541a47.94211,47.94211,0,0,1,.15685,4.8389c-.08578,1.2747-.1488,2.54409-.16085,3.81886a1.64269,1.64269,0,0,0,.05226.28549.68515.68515,0,0,0,.1488-.15014c.82434-1.642,1.65274-3.284,2.4583-4.93537.134-.27482.28015-.43832.5965-.41017.42356.03619.21579.35919.22384.54552a11.76942,11.76942,0,0,1-.56833,4.2759c-.10992.32175.14743.75064.15548,1.13267.01073.52412.41151,1.04818.0161,1.579-.02815.0375.01073.12592.01875.19164A.61042.61042,0,0,0,48.98,13.23a1.24579,1.24579,0,0,0,.35922-.36187c.49594-1.06028.96643-2.13261,1.45835-3.19421.22655-.48792.48658-.96106.72518-1.44493A9.36828,9.36828,0,0,0,52.453,5.94228a.55489.55489,0,0,1,.41151-.34315.57061.57061,0,0,1,.38069.378,7.47863,7.47863,0,0,1-.08044,2.66341c-.16486,1.0241-.307,2.05486-.53482,3.06554a12.25312,12.25312,0,0,1-.47988,2.67146c-.01475.02945-.0697.05092-.06836.0737.00805.25329.02415.508.03888.76131.12062-.18359.25335-.36057.36056-.55089.80961-1.44363,1.61252-2.89125,2.42213-4.33487a1.85935,1.85935,0,0,1,.26808-.39944c.41152-.42091.72515-.34315.91283.21978a1.03726,1.03726,0,0,1,.04559.39008c-.09386,1.30828.04823,2.61518-.114,3.93811a18.94412,18.94412,0,0,1-.4839,2.8256,2.20294,2.20294,0,0,0,.07373.78016c.10724-.21985.23054-.433.319-.65947a11.99453,11.99453,0,0,1,.496-1.33374c.1394-.26409.4048-.54559.56564.071a10.36132,10.36132,0,0,0,.58444,1.39938c.04287.10191.08443.20512.1273.307a3.32043,3.32043,0,0,0,.14343-.35113,37.00027,37.00027,0,0,0,1.5884-5.50374.39478.39478,0,0,1,.28284-.26271c.1863.01073.47045-.19439.53885.23457a10.05146,10.05146,0,0,1,.40746,2.19289c-.04153.68225.01341,1.36993-.01607,2.05218a5.528,5.528,0,0,1-.15682,1.67551,1.97189,1.97189,0,0,0,.256,1.51065,2.49066,2.49066,0,0,1,.18764,2.06422,11.8918,11.8918,0,0,0-.4517,2.37117A33.42674,33.42674,0,0,1,59.35345,28.114c-.09382.3351-.24531.65279-.34047.98789a5.40826,5.40826,0,0,0-.11123.693,2.73331,2.73331,0,0,0,.35519-.56294c.3713-1.1112,1.15143-2.07495,1.193-3.30547a.36426.36426,0,0,1,.1233-.252c.98653-.69567,1.10584-1.85112,1.508-2.85106a28.63055,28.63055,0,0,0,1.00128-2.76525,17.00119,17.00119,0,0,0,.43161-2.38728c.04692-.34583.15413-.62465.508-.57772a.75027.75027,0,0,1,.5107.45573A8.01758,8.01758,0,0,1,64.8183,21.306c-.19435.90477-.27076,1.86859-.47317,2.79346-.10321.46914-.2024.941-.327,1.40474-.22384.82971-.48658,1.65006-.685,2.48513a2.35611,2.35611,0,0,0,.08312.77741c.10456-.22652.20509-.45573.315-.67956.47313-.96781.941-1.93823,1.43557-2.8953a1.39287,1.39287,0,0,1,.48253-.51607.46761.46761,0,0,1,.752.35519,3.89667,3.89667,0,0,1-.26809,1.84176c-.40883,1.06028-.86724,2.10309-1.29348,3.158a1.06927,1.06927,0,0,0-.0161.34852,1.27449,1.27449,0,0,1,.31233-.16487c.45706-.09523.64337-.55494,1.16346-.68094a2.54882,2.54882,0,0,1,3.1875,2.02535c.16621,1.323.40481,2.63657.60453,3.95552A1.8209,1.8209,0,0,1,70.09149,36.02644Z" style="fill:#383838"/><path id="fill1" d="M42.17151,2.697a23.77626,23.77626,0,0,1-.39519,3.73346,13.34586,13.34586,0,0,0-.02363,1.53626c-.02825.41917-.14122.83215-.18574,1.25115-.00816.0768.13187.16935.2035.25463.06525-.05745.184-.11157.18784-.17282.07543-1.21579.8202-2.19615,1.16736-3.31951.41922-1.35648,1.02015-2.65588,1.49492-3.9968.11794-.3331.22916-.552.59508-.51421.38849.04017.44027.31686.45194.65412a47.87032,47.87032,0,0,1,.15713,4.8394c-.0859,1.2738-.14915,2.5437-.16031,3.81848a1.51439,1.51439,0,0,0,.05174.28546c.05037-.0495.11852-.09008.1485-.14981.82451-1.64272,1.65261-3.28376,2.45905-4.93535.13411-.27465.28018-.4381.59543-.41077.42375.03675.217.36013.2242.54651a11.75338,11.75338,0,0,1-.56856,4.275c-.10892.3219.14813.75138.15591,1.133.01067.52408.41184,1.048.01578,1.57826-.02831.03789.01141.12661.0195.19169a.5935.5935,0,0,0,.21449-.06487,1.246,1.246,0,0,0,.3589-.36241c.49628-1.0597.96644-2.1316,1.45836-3.19339.22641-.4887.487-.96148.72536-1.44477a9.3785,9.3785,0,0,0,.93048-2.28683.55013.55013,0,0,1,.41094-.34319.56508.56508,0,0,1,.38006.37773,7.42984,7.42984,0,0,1-.0803,2.66271c-.164,1.02428-.30587,2.05478-.53383,3.06532a12.29036,12.29036,0,0,1-.48084,2.67259c-.01364.02913-.06872.04975-.06792.07309.00869.25388.02469.5075.0387.76119.121-.18335.25385-.36.361-.55111q1.21421-2.16515,2.42131-4.33429a1.858,1.858,0,0,1,.26927-.40007c.41108-.41976.725-.343.91173.2197a1.034,1.034,0,0,1,.0462.39017c-.09427,1.30926.04846,2.61586-.11437,3.93906a18.81681,18.81681,0,0,1-.484,2.82534,2.23179,2.23179,0,0,0,.07416.78054c.10739-.21977.23113-.43325.31872-.66065a12.2154,12.2154,0,0,1,.49569-1.33269c.1396-.26452.40564-.5466.56679.07094a10.30032,10.30032,0,0,0,.58336,1.3985c.04371.10214.08521.20523.12773.30789a3.4457,3.4457,0,0,0,.1434-.351,36.9765,36.9765,0,0,0,1.5879-5.50452.39594.39594,0,0,1,.28366-.26211c.18634.01076.47037-.19468.53814.23418a9.97934,9.97934,0,0,1,.40764,2.19315c-.04072.68189.01376,1.36909-.01551,2.05216a5.54843,5.54843,0,0,1-.15647,1.67463,1.97315,1.97315,0,0,0,.25551,1.51174,2.49267,2.49267,0,0,1,.18822,2.06323,11.87254,11.87254,0,0,0-.45187,2.37215,33.7111,33.7111,0,0,1-1.12525,4.26523c-.094.33446-.24478.6529-.3403.987a5.61171,5.61171,0,0,0-.11187.69365,2.75437,2.75437,0,0,0,.35539-.56313c.37165-1.11114,1.15249-2.075,1.19341-3.3062a.3603.3603,0,0,1,.12388-.25124c.98618-.69614,1.10491-1.8519,1.50737-2.85142A28.27869,28.27869,0,0,0,63.082,20.0576a16.896,16.896,0,0,0,.43184-2.38638c.04668-.3458.15509-.62442.50851-.57817a.7524.7524,0,0,1,.511.45644,8.01537,8.01537,0,0,1,.28522,3.757c-.19468.90473-.27062,1.86749-.47363,2.79315-.103.46952-.20264.94042-.32746,1.40433-.22328.82983-.48608,1.64972-.68451,2.48513a2.374,2.374,0,0,0,.08348.77771c.1045-.22676.20439-.45578.3143-.67989.47426-.96705.9412-1.938,1.43579-2.89454a1.39979,1.39979,0,0,1,.48228-.517.46756.46756,0,0,1,.75187.35609,3.87409,3.87409,0,0,1-.2674,1.84062c-.40945,1.06144-.86668,2.10438-1.294,3.1591a1.0642,1.0642,0,0,0-.0154.34843,1.2693,1.2693,0,0,1,.312-.16507c.45713-.09583.64324-.555,1.164-.68064A2.54794,2.54794,0,0,1,69.487,31.55878c.16682,1.32267.40528,2.63623.60438,3.955a1.82531,1.82531,0,0,1-.00032.51221c-.057.418-.16389.8311-.19561,1.25034-.08576,1.13369-.14189,2.2696-.21389,3.40438a.61467.61467,0,0,1-.07.17539c-.07259-.05254-.19726-.09551-.209-.15925a4.04256,4.04256,0,0,1-.12041-.97447,10.31842,10.31842,0,0,0-1.24053-5.34127c-.64646-1.30028-1.21347-1.61013-2.52708-1.28941A3.97878,3.97878,0,0,0,63.30194,34.437c-.05633.06937-.10528.14473-.15765.21732.12688.02411.28955.11119.37509.06257.82023-.46619,1.32617.04011,1.87824.53693a7.24426,7.24426,0,0,1,1.86885,3.54568c.79638,2.57327.51106,5.17323.54584,7.766a15.79911,15.79911,0,0,1-.39223,2.80545c-.10763.63259-.26771,1.25629-.40557,1.8837-.02053.09344-.04787.18537-.07207.278-.04424-.09848-.13564-.20259-.12466-.29449.05-.41867.13191-.83342.195-1.25068a.63751.63751,0,0,0-.00237-.30584,14.327,14.327,0,0,1-.22348-2.581,42.25275,42.25275,0,0,0-.74271-4.71174c-.20317-.6429-.27616-1.38675-.47034-2.06943-.49856-1.75271-1.86212-2.63791-3.40437-3.32759a.64883.64883,0,0,0-.40618-.00167c-.79072.22371-1.31244-.3145-1.86842-.68973a.96815.96815,0,0,1-.25954-.69532c-.02816-.99147-.0118-1.9842-.0118-2.97647a1.70509,1.70509,0,0,0-.01668-.609.74451.74451,0,0,0-.4185-.35876c-.17729-.06047-.31055-.01975-.41737.25918-.13053.34083-.2429.83825-.86523.7896-.15334-.012-.33968.42678-.51584.65446a.766.766,0,0,1-.14343.11473c-.02892-.05644-.08863-.11721-.08144-.1686a2.13364,2.13364,0,0,1,.13336-.66113,4.02752,4.02752,0,0,0-.144-3.20635c-.03083-.09855-.13645-.1737-.20735-.25971a1.85743,1.85743,0,0,0-.19491.27422,3.43186,3.43186,0,0,0-.33017.78446c-.0948.499-.46648.40722-.7533.34857-.08794-.018-.11046-.391-.146-.60425-.00844-.05058.0416-.12041.081-.168a.47091.47091,0,0,0-.12817-.768c-.25592-.1745-.492-.08019-.70569.14337-.05922.062-.23254.01489-.3535.01784.00947-.09677-.01641-.22066.03383-.2862a2.41957,2.41957,0,0,0,.25638-2.40228,11.08577,11.08577,0,0,1-.21937-1.24521c-.08068-.39584-.45819-.5164-.70324-.19484a12.89778,12.89778,0,0,0-.92968,1.46c-.1945.3425-.43217.53591-.79163.29983-.27077-.17784-.39593-.23655-.46117.15755-.01891.11427-.21557.19913-.33074.29747a2.20176,2.20176,0,0,1-.05944-.48572c.05378-.55474.13649-1.10665.1941-1.6611a.31487.31487,0,0,0-.09381-.2575c-.06019-.03637-.25322.00872-.25963.04242-.098.51517-.2713.37336-.5891.13959a1.09589,1.09589,0,0,0-1.458.03383,1.14023,1.14023,0,0,1-.41742.12115,3.95245,3.95245,0,0,1,.119-.42176,2.3718,2.3718,0,0,1,.21655-.423A1.09832,1.09832,0,0,0,48.51,22.69782a.24531.24531,0,0,0-.21142.05729c-.269.25445-.53962.50937-.78406.78672-.14689.16666-.21385.41147-.375.55626a.48331.48331,0,0,1-.8525-.32523c-.04042-.51-.00349-1.02589-.015-1.53888-.00179-.07993-.08153-.15811-.12523-.23711a1.36582,1.36582,0,0,0-.27617.19411c-.2372.27415-.27712,1.00533-.67178.78187-.48418-.27413.26344-.644.28058-1.04869.00943-.22243.26442-.42826.37909-.65645a.282.282,0,0,0-.07615-.26129.267.267,0,0,0-.26271.01714,7.02918,7.02918,0,0,1-.48165.61253,1.77836,1.77836,0,0,1-.64518.34987c-.1936.05953-.39126.03929-.38681-.28851a2.14179,2.14179,0,0,0-.19208-.63326c-.04975-.15216-.10076-.30391-.15122-.45585a2.99349,2.99349,0,0,0-.254.51c-.21763.76686-.40721,1.54174-.62878,2.30739a1.51508,1.51508,0,0,1-.27837.397c-.04156-.13918-.14281-.29192-.11479-.41528.15548-.68449.35571-1.35888.508-2.044a.55212.55212,0,0,0-.11956-.47287c-.09581-.0693-.33464-.00368-.47558.06962-.14474.07529-.23021.25886-.37142.34766a.64847.64847,0,0,1-.99152-.421c-.12362-.46011-.25374-.9203-.42113-1.36538-.03662-.09735-.24012-.16817-.37248-.17859-.07037-.00555-.19922.13418-.21989.22661a4.26658,4.26658,0,0,0-.01383.51061,4.57054,4.57054,0,0,1-.093.47355c-.11682-.11281-.21678-.266-.35637-.32432-.09369-.03911-.35373.0833-.35265.08767.17482.71309-.27247,1.17951-.61955,1.70691-.24043.36535-.6323.66249-.92643.53847-.3624-.15279-.82978-.30577-.961-.88915a12.037,12.037,0,0,0-.8015-2.0236.28091.28091,0,0,0-.24491-.1044c-.06261.0112-.16252.14268-.14944.19809a1.848,1.848,0,0,1-.51928,1.86959c-.12864.12838-.02712.46136-.11844.66031-.095.20684-.2841.49459-.45261.50915-.174.015-.4474-.21767-.54605-.40951-.24471-.47584-.4143-.99027-.61465-1.489-.04714-.11732-.06686-.26606-.1513-.34365a4.85006,4.85006,0,0,0-.553-.39123c-.04433.181-.08456.36315-.13377.54283-.13459.49138-.24733.99073-.4157,1.47044-.2698.76867-.69533.83892-1.222.20942a.38158.38158,0,0,0-.64852-.0255c-.36983.416-.59845.31272-.79608-.14257a.95757.95757,0,0,0-.21952-.31632.7431.7431,0,0,0-.26548-.09576c-.03427.11093-.13245.28048-.09285.32365.36048.393.23953.60361-.20927.80067-.12776.05609-.17284.32526-.233.50438a6.86676,6.86676,0,0,1-.21454.73224c-.30219.64548-.506.69361-.98447.23636-.51932-.49634-1.01709-1.01515-1.5284-1.52a2.74493,2.74493,0,0,0-.28873-.22016c-.09069.13351-.2492.26121-.26125.40147-.0885,1.03063-.15109,2.06356-.21431,3.09623-.022.35969.11876.88991-.33267.94114a.87946.87946,0,0,1-.93239-.6773,2.18781,2.18781,0,0,0-.63954-.85478.78869.78869,0,0,0-.59251-.24422c-.15673.03688-.32741.30753-.36543.50008-.10772.54557-.15607,1.10333-.21739,1.65745-.05078.45894-.38012.656-.78115.41257a3.44426,3.44426,0,0,1-1.47838-1.8294c-.16076-.44685-.30839-.89857-.47782-1.342-.03344-.08754-.13952-.14732-.2121-.21991a1.04393,1.04393,0,0,0-.12743.29762c-.14349,1.68776-.45008,3.36012-.43551,5.06476a1.74862,1.74862,0,0,1-.41812,1.0383.79479.79479,0,0,1-.77837.01393,15.57568,15.57568,0,0,1-1.44724-1.44209.66534.66534,0,0,1-.19979-.42275,8.94233,8.94233,0,0,0-.61268-2.72577,1.5479,1.5479,0,0,1,.12645-.65719.86273.86273,0,0,0-.14276-.92161c-.15262-.16375-.12954-.48457-.20994-.72649a.26844.26844,0,0,0-.19934-.15209.25364.25364,0,0,0-.19494.15283,3.35875,3.35875,0,0,0-.00423.717c.05024.41865.16151.83144.191,1.25064a9.33549,9.33549,0,0,1,.03853,1.06229c-.0306.7202.17038,1.44834.1615,2.17179-.01393,1.13567-.118,2.2705-.19914,3.40458-.00658.09195-.13064.17548-.20011.26293-.06741-.08949-.20793-.19713-.19093-.26569.17062-.688-.29534-1.10919-.6244-1.59726-.88246-1.30888-1.72738-2.64366-2.63167-3.93707-.91358-1.30671-1.8793-2.577-2.82624-3.86028-.08036-.1089-.24365-.17959-.278-.295-.09044-.30364-.15306-.6203-.56558-.4379a1.18775,1.18775,0,0,0,.18176.6627c.88553,1.05064,1.11493,2.42584,1.80879,3.56606A6.491,6.491,0,0,0,9.64,27.74546c1.09786,1.19523,2.22173,2.36653,3.32949,3.55275a1.1386,1.1386,0,0,1,.24562.40928c.07511.22992.70579.85552.75631,1.09348a10.8369,10.8369,0,0,1-1.23268-.72627c-.85341-.8047-1.70422-1.61121-2.56873-2.40407a8.1738,8.1738,0,0,1-2.72495-4.19679,15.52381,15.52381,0,0,0-.91453-1.87374,4.9338,4.9338,0,0,1-.70138-2.174.48835.48835,0,0,1,.29553-.50846c.366-.2076.40109.05361.52724.166a16.02348,16.02348,0,0,1,2.872,3.73448c.01525.02486-.013.0823.00415.09921.25.24721.50437.49011.75767.734-.05585-.30208-.1046-.60567-.16877-.906a8.25007,8.25007,0,0,1-.19571-4.27739,1.22581,1.22581,0,0,0,.01526-.302c.06837-1.57981.15877-3.15915.19275-4.73969.01113-.5174-.14331-1.03652-.18268-1.55782-.01407-.1863-.15838-.57067.2687-.47613a.84124.84124,0,0,1,.52353.45165,2.75655,2.75655,0,0,1,.20592,1.13821,2.9361,2.9361,0,0,0,.425,1.47543,29.3578,29.3578,0,0,1,2.0644,4.89426c.0229.09163.15149.15686.23089.23438.03558-.12457.12614-.26319.09843-.37157a8.06421,8.06421,0,0,1-.1387-4.29285,2.87864,2.87864,0,0,0,.0089-.61369,28.47537,28.47537,0,0,1,.24587-3.80773,7.45621,7.45621,0,0,0-.1712-2.45019.572.572,0,0,1,.162-.4725.49208.49208,0,0,1,.46762.11323,1.62441,1.62441,0,0,1,.31274.68427c.21369,1.09584.27845,2.22788.47725,3.3076a29.13635,29.13635,0,0,1,.55742,5.4013.6128.6128,0,0,0,.00324.20408c.10455.28.22058.55575.33251.833.33073-.18694.2111-.52644.29432-.80354a3.95528,3.95528,0,0,0-.18772-2.8423,4.14479,4.14479,0,0,1-.03174-1.526c0-.68432-.02671-1.37.00746-2.05258.03463-.69189.10542-1.38417.203-2.07022.18773-1.32032.39281-2.63861.6257-3.95153.03177-.17907.26461-.32246.40436-.48236.134.13141.34336.24059.38979.39786.29776,1.00866.56441,2.02664.83245,3.04388q.62206,2.36079,1.2328,4.72456c.03878.14882.075.29828.11246.44744.07794-.18941.27152-.49323.21538-.55-.42006-.42454.16049-.72982.111-1.11031-.01366-.105.299-.33435.48674-.3678.50236-.08956.53427-.06151.50338-.50187a8.64268,8.64268,0,0,1-.17524-1.04633c.03911-.64748.166-1.29.265-1.93327.02408-.15638.11079-.306.11941-.46145.07628-1.37408.142-2.74874.209-4.12332.00665-.13654-.0501-.307.0126-.40289a.80588.80588,0,0,1,.42239-.352c.10142-.02276.3199.15356.37032.28489a8.75146,8.75146,0,0,1,.42033,1.36449c.22752,1.108.344,2.24388.64332,3.33052.31564,1.14607.545,2.30636.8067,3.46209a9.01237,9.01237,0,0,0,.9024,2.60145,1.2425,1.2425,0,0,0,.21471.21952c.03638-.11745.12674-.24938.09979-.34985-.11485-.42823-.2937-.84021-.39586-1.27077A13.79455,13.79455,0,0,1,24.73156,9.558c.05641-.74036.2447-1.47016.35966-2.20687a4.6407,4.6407,0,0,0,.03731-.70342c.00311-1.47128-.00613-2.94267.01109-4.41376.00221-.18863.08737-.48769.21515-.54088.28979-.12063.4634.10731.60289.36952.23984.45079.54485.86749.77651,1.32193a15.654,15.654,0,0,1,1.82338,4.06965c.12071.62889.283,1.25.43407,1.87273a2.47564,2.47564,0,0,0,.14242.35067c.03414-.12273.07708-.24376.101-.36845.13983-.72971.3335-1.455.39975-2.19165a34.58479,34.58479,0,0,1,.94981-4.2296c.10252-.47169.173-.95206.3072-1.41421a.69773.69773,0,0,1,.37659-.39722c.086-.03345.33279.12917.38013.25221a14.39666,14.39666,0,0,1,.4592,1.45208c.27211,1.018.57666,2.03129.77164,3.06466a23.51679,23.51679,0,0,1,.25337,2.56587c.02862.37418-.03652.75863.0191,1.1266a2.91109,2.91109,0,0,0,.32376.72582c.0242-.2295.04437-.45949.07339-.68838.06586-.51943.12458-1.04014.20656-1.5571A25.55,25.55,0,0,1,35.40567,2.338c.07466-.18235.27285-.417.43392-.43384a.67905.67905,0,0,1,.565.29215,14.24387,14.24387,0,0,1,1.07192,2.94947,15.16965,15.16965,0,0,1,.18542,2.38337c.00279.10167.106.20059.16275.30078.08017-.07675.188-.13917.23628-.23242.55414-1.07,1.08255-2.15363,1.65229-3.21512.4222-.78661.90737-1.53921,1.33975-2.32065.19818-.3582.329-.75305.50515-1.12427A3.77212,3.77212,0,0,1,42.0137.10454a.32784.32784,0,0,1,.56405.19691A4.44933,4.44933,0,0,1,42.17151,2.697M13.427,24.15271l-.0561-.26141-.13418.04106a1.69917,1.69917,0,0,1,.19028.42567l.0561.26142.13418-.04107a1.69864,1.69864,0,0,1-.19028-.42567m-.20532-.61595.19028.015a.41786.41786,0,0,1-.19028-.22035c-.115-.22623.2358-.58555-.20531-.82127-.41064-1.06067-.81444-2.12406-1.235-3.18077-.18681-.46933-.40286-.92733-.61656-1.38538a1.3558,1.3558,0,0,0-.20957-.25883c-.06578.091-.18316.17858-.18951.27358-.08035,1.20161-.14172,2.40448-.21406,3.60666a10.62989,10.62989,0,0,0,.39419,3.01338,9.93642,9.93642,0,0,0,1.4517,3.71047,1.02865,1.02865,0,0,1,.09517.2674.74677.74677,0,0,0,.10725-.24043,1.1383,1.1383,0,0,0-.03281-.49634,22.50628,22.50628,0,0,1-1.44015-4.94185c-.0164-.087-.01785-.17676-.02626-.26523.091.06576.22846.112.26573.2004.28715.68142.55488,1.371.82864,2.16076a2.53409,2.53409,0,0,0,.0048.3926,1.5567,1.5567,0,0,0,.11595.30792c.02819-.08666.09515-.18269.07691-.25814-.04512-.18669-.12922-.364-.19766-.6477a3.41176,3.41176,0,0,0-.28515-1.7265.73309.73309,0,0,1-.03082-.216c.09251.01874.24785.01182.26762.06025.167.4091.30813.82874.45979,1.2442.03763.10308.08533.20248.1284.30357a.74054.74054,0,0,0,.07056-.275c-.08352-.50909-.18417-1.01536-.2785-1.52269-.01342-.07215-.02379-.14487-.03557-.21732a1.58806,1.58806,0,0,1,.27623.05234.46192.46192,0,0,1,.24871.244c.115.22622-.2358.58555.20532.82127M26.978,19.63571a5.5339,5.5339,0,0,0-.39956-2.26965,8.36,8.36,0,0,1-.22557-1.02371c-.0323-.11524-.171-.20066-.26113-.29971a1.96026,1.96026,0,0,0-.13018.42794c-.00622.0754.10677.15379.14186.24056a5.159,5.159,0,0,1,.48735,1.83648A6.47854,6.47854,0,0,0,26.978,19.841c0,.3751-.0133.75078.00284,1.12519a5.02011,5.02011,0,0,0,.20691,2.16347,1.601,1.601,0,0,0,.265.30441c.04706-.10939.1444-.22425.13318-.32729-.08486-.77879-.17276-1.55823-.29876-2.33109-.05759-.3532-.2034-.692-.3092-1.14M16.91737,29.69631a.712.712,0,0,0,.00312.19318.85874.85874,0,0,0,.136.31175c.02261.02688.234-.04124.23542-.07165a.54.54,0,0,0-.0775-.32845c-.06808-.092-.19548-.14019-.297-.31015a2.30586,2.30586,0,0,0-.01513-.815,4.68855,4.68855,0,0,1-.38307-2.196c.067-.7694-.32947-1.51239-.03062-2.3015a3.62338,3.62338,0,0,0,.20308-1.44669c-.028-.50594.67643-.70778.43268-1.24986.57765-.40966.18936-.888.08438-1.33994-.01659-.07142-.13734-.11865-.20992-.17707a.92357.92357,0,0,0-.07967.172c-.13975.59275-.29778,1.18237-.40706,1.78083-.15764.86337-.27424,1.73415-.41848,2.60008a5.12313,5.12313,0,0,0-.18846.94145,9.57846,9.57846,0,0,0,.197,1.55661,8.41381,8.41381,0,0,0,.81527,2.6804M15.27482,22.9208l.0561.26142.13419-.04107a1.69849,1.69849,0,0,1-.19029-.42566c-.09642-1.30128.20854-2.62061-.193-3.91208a1.61482,1.61482,0,0,1,.06729-.68075c.02617-.15568.14811-.32229.11515-.45649a11.86508,11.86508,0,0,1-.41015-2.69937,3.45419,3.45419,0,0,0-.19889-.83559c-.01345-.04895-.07492-.08469-.11421-.12653a.61665.61665,0,0,0-.08479.169c-.11894.78711.2402,1.61323-.19033,2.38079-.01536.0274.173.13581.17984.214.08061.92626.13992,1.85433.21466,2.78114.06107.75726.10328,1.51835.21812,2.2679a9.38635,9.38635,0,0,0,.39633,1.10333M18.3546,11.01235c-.20532-.63342-.40553-1.26859-.62128-1.89844-.03365-.09823-.13808-.17221-.20979-.25741-.06517.09172-.17639.17794-.18813.276a8.82031,8.82031,0,0,1-.25306,2.05411,4.53543,4.53543,0,0,0-.15344,1.47063c-.02692.43058-.262.83278-.03378,1.31192a2.39025,2.39025,0,0,1-.01722,1.35256c-.10421.65093.38156,1.03389.45867,1.57988a11.333,11.333,0,0,0,.483,2.56939c.55852,1.41434.5986,3.01757,1.55742,4.28244.03294.04345-.01409.14055.00846.20049a1.6495,1.6495,0,0,0,.14663.25315c.05219-.121.17179-.25926.14584-.36013-.1981-.77019-.386-1.54673-.65065-2.29528a18.74665,18.74665,0,0,1-1.06081-4.172,11.63884,11.63884,0,0,0-.593-3.04553.99754.99754,0,0,1-.03531-.49295c.01438-.09534.12969-.17546.19962-.26243.06694.05574.174.09944.19487.169a26.185,26.185,0,0,1,.833,3.66008c.10508.70075.26155,1.39424.41262,2.08713.02023.09278.145.16278.22133.24333.06053-.09637.17133-.19161.17351-.28928a7.22575,7.22575,0,0,1,.05156-2.038,3.80606,3.80606,0,0,0,.12447-1.97461c-.294-1.42771-.78391-2.8151-1.19454-4.42411m11.49782,1.02659c.06844.55311.13459,1.10652.20755,1.659a1.7236,1.7236,0,0,0,.08213.27319c.09674-.08454.25874-.15606.27867-.25593.07675-.38477.1058-.7789.15681-1.169a5.84123,5.84123,0,0,0,.24567-2.25252c-.37049-1.16918.08831-2.22971.07012-3.3366a3.86944,3.86944,0,0,1,.24951-1.123c.02888-.09664.20114-.23155.2757-.21394.10517.02483.2646.25254.25686.26094-.40813.44323-.04247.99243-.20686,1.45969a4.40129,4.40129,0,0,0,.31681,3.51491,12.92871,12.92871,0,0,1,1.1522,4.14388,2.98822,2.98822,0,0,0,.20377.63251c.02386.06284.09361.10827.14234.16167a.53.53,0,0,0,.056-.18049,12.62438,12.62438,0,0,0-.26368-2.76649,30.094,30.094,0,0,1-.53209-4.08023,38.61808,38.61808,0,0,0-.73655-3.80493q-.20478-.73434-.44056-1.4597c-.02238-.06838-.13817-.10617-.21073-.15812-.02391.0585-.0762.12164-.06751.17481a6.04386,6.04386,0,0,1-.41668,2.498A17.30816,17.30816,0,0,0,30.223,8.61361a33.54222,33.54222,0,0,0-.37057,3.42533m25.66478.82127a4.71306,4.71306,0,0,0-.0123-.81791,1.74646,1.74646,0,0,0-.27661-.49759,1.84808,1.84808,0,0,0-.32122.34216c-.19772.36-.32571.76394-.55541,1.09981a22.61877,22.61877,0,0,1-2.5238,3.77745.71619.71619,0,0,0-.14642.34606c-.16358.71928-.32286,1.43964-.46914,2.16256-.01542.07623.06323.1715.09824.25794a.81282.81282,0,0,0,.143-.14612c.60378-1.04794,1.24624-2.07657,1.79141-3.15436.41175-.814.69436-1.693,1.04819-2.53737A.28176.28176,0,0,1,54.54,13.591a.26325.26325,0,0,1,.14721.20221,1.55987,1.55987,0,0,1-.0696.3772c-.26074,1.23393-1.09029,2.29589-.8642,3.70087a7.94588,7.94588,0,0,1-.30145,2.61972,18.27587,18.27587,0,0,1-.61362,2.30674,5.63161,5.63161,0,0,0-.398,2.19069,1.33487,1.33487,0,0,0,.0798.27351c.0409-.10638.09-.21042.12128-.31957.14013-.4891.24287-.99171.41992-1.46676a15.56164,15.56164,0,0,0,.78979-1.92328,15.02311,15.02311,0,0,0,.40918-3.10525,39.54729,39.54729,0,0,1,.6471-4.04946c.00806-.07261.10426-.13545.15944-.20283.0817.075.23983.15857.23256.22365a4.69828,4.69828,0,0,1-.2036,1.14238c-.35872.9447.0343,1.98248-.39511,2.91155-.02082.04506.02648.12161.04205.1835.07249-.03521.18118-.052.21028-.10927a1.357,1.357,0,0,0,.14905-.44877,12.36839,12.36839,0,0,1,.24386-2.15853,11.06087,11.06087,0,0,0,.17135-3.07908m1.23191,14.5776v-.41047c-.07249.07244-.14734.14271-.21682.218a1.4255,1.4255,0,0,0-.19056.22914,1.56286,1.56286,0,0,0-.1003.26574c-.09674-.093-.24443-.17093-.27758-.28279a.72352.72352,0,0,1,.02127-.47546c.27093-.573.58755-1.12443.85868-1.69737a18.13358,18.13358,0,0,0,1.11417-2.5115c.3649-1.22776.56822-2.50335.8485-3.75674a1.28533,1.28533,0,0,1,.16283-.30454c.08121.10987.24129.22769.23112.32832-.079.78113-.19376,1.55858-.28958,2.33813a2.85834,2.85834,0,0,0,.00723.41332c.09828-.09279.25687-.17031.28488-.28089a16.3048,16.3048,0,0,0,.41-1.88112,15.87257,15.87257,0,0,1,.254-2.57,12.673,12.673,0,0,0,.15727-2.59573c.00869-.082-.12356-.179-.19039-.26906a1.07491,1.07491,0,0,0-.20533.26219c-.215.59557-.41274,1.19736-.62142,1.79525-.31287.89643-.655,1.78355-.93809,2.68918-.266.851-.51,1.71295-.69108,2.58515-.13333.6423-.1089,1.31665-.23179,1.96206-.08776.4609-.17372,1.06368-.48926,1.30963-.61927.4827-.633,1.18368-.93566,1.77351a1.54088,1.54088,0,0,0,.14,1.62034c.07834.12549.15823.25.23741.375.08-.14528.16168-.28967.23959-.43606a6.25079,6.25079,0,0,1,.41105-.69319M25.74605,7.1113c-.01084.6274-.13528,1.25762-.161,1.865-.06511,1.53825.08425,3.08637.16856,4.6294a2.84815,2.84815,0,0,0,.20732.83457c.05261.13859.20438.23953.31136.35748a1.25452,1.25452,0,0,0,.08385-.37247c-.05582-.62219-.17668-1.2417-.18953-1.8639a23.92054,23.92054,0,0,1-.02491-3.42034c.08208-.67358.00781-1.36551.02305-2.04874.00218-.09758.1129-.19273.17339-.289.07639.08037.21082.15458.22011.24208.08393.79031.14226,1.58329.21753,2.3746.01487.15633.02948.41483.11308.44695,1.00449.3859,1.19806,1.4011,1.72008,2.15839.07783.1129.17184.21466.25836.32157.05461-.1705.19036-.364.14974-.50753-.17206-.60794-.41055-1.19669-.599-1.8005-.41547-1.33124-.71061-2.69675-1.25062-3.994-.25566-.61412-.81024-1.08932-.82659-1.816-.00222-.0988-.18035-.19364-.277-.29032a1.40262,1.40262,0,0,0-.10806.3442c-.04215.9083-.07283,1.81713-.20971,2.82845M36.83324,8.95916a7.8414,7.8414,0,0,1,.19591,1.14586c.02762,1.02481-.01482,2.05174.02313,3.07589a4.30878,4.30878,0,0,0,.28519,1.0048c.10568-.32621.218-.65051.31286-.97985a.85121.85121,0,0,0,.00284-.30633c-.06587-.68978-.14958-1.37817-.2-2.069a12.72859,12.72859,0,0,0-.18075-2.07505c-.30517-1.293-.39892-2.63455-.66454-3.9388A7.08537,7.08537,0,0,0,35.94741,3.351c-.169.41737-.34139.83342-.5056,1.25267a2.8103,2.8103,0,0,0-.20826.62872c-.02336.17506.01162.50585.07879.52172.55379.13081.33556.62055.26157.80284a7.78166,7.78166,0,0,0-.17242,2.49039c-.01377.17377-.09524.37809.24168.44012a.70771.70771,0,0,1,.58017.92831c-.01446.08333.05084.1805.07928.27127.09669-.08515.26915-.165.27553-.25645a4.80866,4.80866,0,0,0-.05929-.75955,8.76394,8.76394,0,0,1-.0794-1.08776c.00368-.10765.20875-.20839.32156-.3123.02407.161.04815.32191.07222.68817m-14.167,3.2851c0-.40931-.00415-.81868.00314-1.22785a1.31048,1.31048,0,0,1,.06592-.27844c.09647.07408.259.13395.27847.22458a14.79121,14.79121,0,0,1,.26068,1.529c.03972.37094.00323.74971.01519,1.12452.00112.03493.10656.06653.16357.09968.14831-.48431.50885-1.01942.40722-1.44389-.38511-1.60854-.89933-3.18581-1.21013-4.81669-.03248-.17044-.28617-.29873-.43723-.44657-.05426.17044-.19252.3672-.14873.5069a4.84171,4.84171,0,0,1-.06007,2.18119,9.56341,9.56341,0,0,0,.00851,3.2204c.09946.52647.31518,1.21891-.27715,1.70978a.4169.4169,0,0,0-.08768.36172c.29208.96891.60068,1.93293.91621,2.89452.02722.08293.13874.13821.21109.20633.03211-.05492.08875-.1082.09256-.165a4.46228,4.46228,0,0,1,.20907-1.96123,8.829,8.829,0,0,1-.41064-3.719m46.81256,23.201a13.77183,13.77183,0,0,0-.66356-3.717,1.96556,1.96556,0,0,0-2.41092-1.29609A6.44113,6.44113,0,0,0,63.50328,33.008a1.00315,1.00315,0,0,0-.073.28136c.09155-.02587.22319-.02183.26831-.08232a2.0377,2.0377,0,0,1,1.4887-.85648c.53171-.0507,1.07034-.03385,1.60053-.09412a1.37465,1.37465,0,0,1,1.4762.9024,12.47116,12.47116,0,0,1,1.01434,3.05963,1.02906,1.02906,0,0,0,.17845.27538c.17747-.13613.27734-.256.03207-.44716-.0661-.05151-.01-.25983-.01-.60149M66.8097,39.7569a7.6915,7.6915,0,0,0-1.39225-3.20681c-.88238-1.25338-1.71688-1.42991-2.79428-.79092a.61855.61855,0,0,0-.27016.34734c-.01467.06206.19936.26485.27624.24829.65467-.14109,1.03948.37621,1.4743.65325a4.17591,4.17591,0,0,1,2.0969,2.8321c.16463.96448.33828,1.921.44679,2.8986a31.572,31.572,0,0,1,.37786,3.21412,4.48688,4.48688,0,0,0,.1966.93882c.0278.1197.0709.23583.107.35359a1.37853,1.37853,0,0,0,.09215-.36932c-.06144-1.747-.10464-3.49545-.21635-5.23943-.03615-.56422-.25794-1.11655-.39483-1.87963M63.114,27.43781c.09641-.57549.15084-1.16187.29692-1.72446a19.23651,19.23651,0,0,0,.72464-5.64541.97767.97767,0,0,0-.12477-.30241c-.09361.098-.24256.18225-.27087.29641-.1009.40691-.03266.92091-.25891,1.22005-.8668,1.146-.53522,2.63383-1.18459,3.82552a.2798.2798,0,0,0-.00089.20213A4.72351,4.72351,0,0,1,62.30137,28.22a8.27464,8.27464,0,0,0-.20541,1.34942,1.17733,1.17733,0,0,0,.11856.41037,1.49485,1.49485,0,0,0,.27567-.39761c.18884-.67635.35-1.36043.62378-2.14439M39.1944,6.80332c-.23954.54887-.51322,1.08573-.7112,1.6492a7.7543,7.7543,0,0,0-.41494,3.20394,1.17514,1.17514,0,0,0,.08886.26913c.09648-.08935.25333-.16519.277-.27085.05049-.22562.014-.46917.04607-.7008a5.63223,5.63223,0,0,1,.18555-.94574c.40486-1.26373.827-2.522,1.25284-3.77881.03256-.0961.1438-.16552.21847-.24734a3.56585,3.56585,0,0,1,.181.38707c.01676.04881-.03261.119-.04816.18041-.1878.74093-.32951,1.49773-.5783,2.21753a1.0619,1.0619,0,0,0,.19475,1.19485c.0941.10218.17039.22076.25485.33182.06082-.12977.17383-.2593.17442-.38934a9.38771,9.38771,0,0,1,.77872-3.87781,8.13755,8.13755,0,0,0,.25057-2.6557c.00569-.085-.06348-.175-.09789-.2627a1.01776,1.01776,0,0,0-.2131.21907c-.31131.62081-.60243,1.25185-.91846,1.87018-.25956.50784-.54463,1.00265-.921,1.60589M49.66563,18.30114a1.68169,1.68169,0,0,1,.23591.56838,1.58568,1.58568,0,0,1-.20316.62668,4.66891,4.66891,0,0,0-.32758,2.321c.00992.1345.1929.25625.29592.38389.03385-.12281.0674-.24571.10161-.36842.27367-.98129.51777-1.9721.82925-2.94125.33853-1.05327-.01848-2.18169.39053-3.22385.02924-.0745-.09181-.27683-.18327-.31061a.38355.38355,0,0,0-.34785.11443,5.54973,5.54973,0,0,0-1.05717,1.70676c-.27271,1.28866-1.11186,2.38862-1.155,3.74768-.00731.23054-.23181.46841.0577.63266.03653.02072.30194-.3271.4316-.52376.04717-.07153-.00792-.20305.01-.30243a5.39663,5.39663,0,0,1,.92149-2.43117M28.20988,15.11871c.04787.52695.05276,1.06221.15277,1.57907.19465,1.006.45654,1.999.66015,3.00347.06247.3082-.085.681.34288.83183a5.09508,5.09508,0,0,0-.00189-.96363c-.15339-.81835-.39064-1.62187-.52426-2.44272a8.00991,8.00991,0,0,1-.00913-1.433.8859.8859,0,0,1,.09672-.2657c.0725.07159.17721.13087.21031.2175a2.96373,2.96373,0,0,1,.09924.47178c.08916.44137.17065.88465.27651,1.322.02059.08506.13368.15182.2144.21354.01135.00869.12289-.06656.1188-.09166a10.96524,10.96524,0,0,0-.31363-1.71519A21.10849,21.10849,0,0,0,28.522,13.39614a7.94222,7.94222,0,0,0-.868-1.27793c-.0413-.05485-.336-.00287-.33645.00752-.0245.55035-.02994,1.10156-.03737,1.65267.69947.05923.6199.75656.92968,1.34031m14.167,1.43723a9.1916,9.1916,0,0,0-.20153,2.78535,1.82946,1.82946,0,0,0,.078.37619c.07242-.12693.15468-.24945.21427-.38213a.86079.86079,0,0,0,.10871-.36221,9.63856,9.63856,0,0,1,.399-2.60206c.11147-.48931.12138-.96673.69823-1.1615.07457-.02518.1252-.2078.13589-.32226.10562-1.131-.20229-2.28569.1964-3.40484.02336-.06558-.14938-.201-.23087-.304a1.218,1.218,0,0,0-.16353.21539c-.21076.4592-.42478.91751-.615,1.38534a3.39613,3.39613,0,0,0-.39082,1.16116,10.58881,10.58881,0,0,1-.22875,2.61552m6.36486-2.2585a15.93465,15.93465,0,0,1-.45053,2.07178c-.45388,1.27958-1.04548,2.51094-1.48345,3.79521a4.77123,4.77123,0,0,0-.05667,1.5735c.00146.07752.18025.15168.277.2274a1.31408,1.31408,0,0,0,.06788-.27846,3.4297,3.4297,0,0,1,.0207-1.01968c.41872-1.15839.8826-2.30173,1.3664-3.435.63289-1.48252,1.30975-2.94624,1.9464-4.4272a7.64513,7.64513,0,0,0,.28877-1.04809c-.19344.313-.39.62417-.57888.93992a2.37518,2.37518,0,0,1-.22393.41751c-.34573.37066-.71238.7218-1.17368,1.18309m-2.87445,2.46382c-.00077-.43244.06792-.85334.58723-.91513.66667-.07932.70213-.0213.85221.75212a1.63913,1.63913,0,0,0,.09981.265c.03444-.0535.09337-.10427.09968-.1609a16.01491,16.01491,0,0,0,.40505-3.40856.41947.41947,0,0,0-.23559-.31139.43565.43565,0,0,0-.36042.18353c-.1671.30161-.2559.64776-.4315.94309-.11605.1952-.34314.484-.49566.4695-.57833-.055-.61129.373-.71833.71357-.14311.4553-.23962.9261-.34065,1.39359a9.71356,9.71356,0,0,0-.28055,2.84916.63144.63144,0,0,0,.07094.17433c.04394-.06463.11373-.12409.1279-.19471.17709-.88258.34612-1.76679.61988-2.75323m-24.43287.41063c-.16782-.57845-.32981-1.15874-.5098-1.73338-.02674-.08538-.13835-.14417-.2107-.21526a1.27929,1.27929,0,0,0-.09778.2656,5.17056,5.17056,0,0,1-.24245,1.63605c-.31687.60814-.02989.63466.39724.78509a.81264.81264,0,0,1,.44163.53111c.174.95969.27194,1.93293.43392,2.89512.10057.59738.26127,1.18516.413,1.77259.0147.05689.15436.09941.24143.11253.04746.00714.14986-.05831.15278-.0967a1.50645,1.50645,0,0,0-.00225-.60972,12.34544,12.34544,0,0,1-.38531-3.24588,5.50548,5.50548,0,0,0-.63175-2.09715M24.10351,19.841c.06844.38062.13.76268.2093,1.141a1.88479,1.88479,0,0,0,.14863.3489c.086-.13477.24977-.27419.24207-.40338a7.18675,7.18675,0,0,0-.18666-.83658c-.14006-.76174-.26994-1.52541-.39534-2.28971-.01438-.08759.00894-.25651.04239-.264.15431-.03442.37846-.09564.46852-.019a1.61745,1.61745,0,0,1,.71442,1.23436,3.4514,3.4514,0,0,0,.1971.83438c.01459.05355.07064.09581.10756.14327.03152-.05511.09451-.11337.08934-.1648-.02922-.29124-.08453-.57993-.1118-.87128-.02355-.2516-.12716-.588-.008-.74069.22186-.28426.043-.38631-.0719-.59193-.43162-.77245-.85838-1.55048-1.22685-2.354-.15772-.34393-.279-.07076-.29134-.00659a5.59823,5.59823,0,0,0-.10188.96123c-.00218.13973.17483.32294.12852.415-.5.99412-.06194,2.02881-.14971,3.03762-.00587.06743.12719.14694.19563.42615M43.1981,9.16448c-.1205.53114-.24263,1.06192-.35991,1.59377a2.27283,2.27283,0,0,0-.02752.2773c.09668-.04371.23675-.06049.28319-.13536A9.40369,9.40369,0,0,0,44.1935,9.00145a18.40146,18.40146,0,0,0,.44708-2.58738,1.474,1.474,0,0,1,.2023-.5291c.4202-.65981.10995-1.38071.18881-2.0676.001-.009-.12381-.053-.13369-.03955a1.48389,1.48389,0,0,0-.25723.4039A50.17916,50.17916,0,0,0,43.1981,9.16448m-3.07977,8.00741a7.57257,7.57257,0,0,1,.00553-.81723c.04542-.41609.3044-.90872.1599-1.22664a6.87366,6.87366,0,0,1-.37954-2.70987,6.5389,6.5389,0,0,0-.20416-1.14036.25924.25924,0,0,0-.19808-.151.28673.28673,0,0,0-.2.15242c-.21488.45567-.42244.91521-.61343,1.38127a.28776.28776,0,0,0,.07088.26579c.42608.27614.29919.70308.34248,1.09339a.76211.76211,0,0,0,.23611.504,1.48771,1.48771,0,0,1,.58054,1.5086,11.4255,11.4255,0,0,0,.00347,1.226c.00153.042.12789.07936.19633-.08644M63.114,32.16013a12.42862,12.42862,0,0,0,1.78092-3.45125,14.42261,14.42261,0,0,0,.67344-2.27261c.025-.09329-.07933-.22118-.12371-.333-.09249.06375-.24975.11291-.2679.19343a24.78241,24.78241,0,0,1-1.86285,4.44c-.30379.6905-.55013,1.4066-.80744,2.11656a.2566.2566,0,0,0,.12775.21851.28048.28048,0,0,0,.25526-.08493,2.94468,2.94468,0,0,0,.22453-.82664m-2.7718-.5133a9.64268,9.64268,0,0,0-.09085,1.07926,1.885,1.885,0,0,0,.19927.56329,2.16861,2.16861,0,0,0,.37486-.50145,1.40323,1.40323,0,0,0,.02655-.59976,9.06027,9.06027,0,0,1,.54278-3.24411,18.74026,18.74026,0,0,0,.467-2.14806c.0313-.21053-.18154-.45737-.28246-.68756-.03595.18564-.059.37509-.11243.55557-.0351.1186-.13922.21783-.16945.33666a22.68616,22.68616,0,0,0-.95523,4.64616M51.20552,12.03894c-.03428.3707-.47681.81279-.09813,1.07574.30155.20937.541.32333.51406.71844-.00329.04824.06583.10142.10139.15231.03288-.05469.09137-.10795.09452-.16431a3.83317,3.83317,0,0,1,.06871-1.20249c.5403-1.285.21036-2.673.54921-3.97344a.47677.47677,0,0,0-.00075-.20382.87591.87591,0,0,0-.073-.174c-.04314.03259-.11093.05658-.12578.09907a7.00481,7.00481,0,0,0-.83592,2.42531,1.56231,1.56231,0,0,1-.19431,1.24724m-16.8361,2.66913a1.03034,1.03034,0,0,1-.00173.2039c-.27144,1.31687-.56108,2.63031-.8071,3.95187a1.80721,1.80721,0,0,0,.104.86962,2.5635,2.5635,0,0,0,.41857.59912c.027-.22713.0595-.45378.07882-.68155.01147-.1352.0039-.2722.00182-.40833a9.93523,9.93523,0,0,1,1.01755-4.78808,1.26806,1.26806,0,0,0,.0891-.64152.52933.52933,0,0,0-.69946.36475,2.10023,2.10023,0,0,0-.2016.53022m1.33457,4.209c.10266-.08794.29309-.17413.29487-.26409.02933-1.47484.01174-2.94538.181-4.42163a7.79,7.79,0,0,0-.37325-2.17929c-.09338.02056-.24583.01363-.27032.06625a5.75545,5.75545,0,0,0-.33581.88238c-.02943.106.03428.34055.08971.35211.8595.17917.60492.93585.47535,1.30188-.32917.9299-.00694,1.89833-.3361,2.824-.13412.37718.10341.88651.27451,1.43838M34.78006,8.54853c.0239-.16078.04311-.32243.07254-.4822.11089-.60218.23035-1.20287.33193-1.8066.0138-.08208-.05567-.17817-.08659-.26777-.07241.06581-.18359.11922-.2094.19994a2.52711,2.52711,0,0,0-.10511.57052c-.026.33467.09874.77147-.0689.98816-.555.71741-.32159,1.57595-.51286,2.3501a17.04909,17.04909,0,0,0-.24233,2.87561c-.00709.10089.0353.24395-.01677.29625a.48616.48616,0,0,0-.09653.70684c.106-.22246.22146-.441.31588-.66829a3.96615,3.96615,0,0,0,.3969-1.05945c.11127-1.16234.1528-2.33136.22124-3.70311M59.93154,21.58624a2.39557,2.39557,0,0,0-.32509,1.19887,9.60874,9.60874,0,0,1-.3222,1.69989c-.35065,1.35-.736,2.691-1.08841,4.04056-.03387.12974.0653.29423.10271.44258.09948-.129.25354-.24447.28951-.38925.223-.89781.40027-1.80718.63119-2.70279.17331-.67216.43985-1.321.60014-1.9956.17832-.75049.28554-1.51805.41086-2.28029.00451-.0274-.12761-.07725-.29871-.014M47.09915,10.19107c-.3422.71005-.69458,1.41547-1.02064,2.13285a2.8285,2.8285,0,0,0-.19172.73514c-.00937.06047.11218.15934.193.20862.0455.02775.17508.01227.19156-.021a10.559,10.559,0,0,0,1.04992-2.02038,4.78746,4.78746,0,0,1,.73051-1.728,1.86706,1.86706,0,0,0,.273-1.22458c.00471-.07069-.074-.14693-.11417-.22061-.07228.07228-.17283.13175-.21227.21889-.27262.60226-.5325,1.21028-.89913,1.9191M58.597,24.974c.19232-.53452.39311-1.06628.56922-1.60609.03193-.0979-.03724-.22878-.05974-.34444a1.792,1.792,0,0,0-.34465.15256.5109.5109,0,0,0-.162.236c-.33579.9189-.69614,1.8306-.98364,2.76464a7.37777,7.37777,0,0,0-.23638,1.53641c-.01075.12548.16208.26669.25051.40068a3.57567,3.57567,0,0,0,.14343-.36671c.2432-.8893.481-1.78006.82321-2.773M56.23581,21.1756c.10266-.05354.27205-.08532.29769-.164A6.97205,6.97205,0,0,0,56.95638,18.53c-.01332-.29828.068-.62169-.27211-.807-.11527.23338-.24517.46079-.34323.70119-.39861.97721-.00954,2.16307-.802,3.03755.07038.0415.17073.13538.20587.11527a3.26887,3.26887,0,0,0,.49092-.40142m-24.8435-7.80209c-.10353,0-.274-.4148-.28448-.02759a17.40954,17.40954,0,0,0,.17956,1.95446c.07751.88883.11463,1.78194.219,2.66733a6.74368,6.74368,0,0,0,.32839,1.12286c.0236-.36421.05274-.72817.06883-1.09272a1.86006,1.86006,0,0,0-.00931-.70953,13.35924,13.35924,0,0,1-.502-3.91481m.71861,2.15584c.13688.62326.26345,1.24914.42008,1.86739.02841.11215.17993.1931.27461.28845.04219-.11384.13469-.23542.11857-.3403a9.6901,9.6901,0,0,0-.45263-2.35939c-.165-.38194.12968-.9959-.48843-1.17622-.00548.45684-.01534.91373-.01,1.37044a1.26913,1.26913,0,0,1,.13785.34963M45.14863,8.65119l-.00438-1.43286c-.10119.46757-.204.93479-.30173,1.40309a1.01614,1.01614,0,0,0-.00187.2034c0,.91708-.00742,1.83425.00476,2.75116a6.4758,6.4758,0,0,0,.09917.76967,3.63763,3.63763,0,0,0,.293-.79181,5.57927,5.57927,0,0,0-.03312-.99809c-.005-.09634-.05393-.20484-.024-.2862a3.32418,3.32418,0,0,0-.03182-1.61836M60.5475,35.34256c-.249.41976-.09477.76273.33508.79188.31988.02168.35189-.358.4018-.67831.102-.65419.31107-1.29139.46768-1.93761a2.98045,2.98045,0,0,0,.04265-.41915c-.09592.08571-.23.15308-.28147.26016-.29848.62162-.57749,1.25257-.96574,1.983m-5.64625-13.243a3.11147,3.11147,0,0,0,.19643-.52434,1.06445,1.06445,0,0,0-.0664-.37222c-.09549.07724-.24378.13618-.27791.23468-.225.64932-.75622,1.184-.717,1.9336a5.93877,5.93877,0,0,1-.039.6788,2.69222,2.69222,0,0,0,.48168-.50387,3.926,3.926,0,0,0,.21905-.718,4.21782,4.21782,0,0,0,.20316-.72865m-9.034-3.28509.16092.51329c.08324-.03915.23141-.06742.24006-.11907q.22542-1.34443.41427-2.69485c.01159-.082-.06138-.17592-.09509-.2643-.07237.07134-.18747.13133-.20992.21593-.1148.43237-.20395.8715-.30555,1.30746a10.176,10.176,0,0,0-.20469,1.04154m6.57018,3.69573c.02408-.29784.04669-.59581.0729-.89346.01243-.1413.03173-.282.04792-.423-.16514.08461-.45374.14572-.47506.25769-.12234.64274-.18926,1.29679-.25041,1.9493-.00674.07207.14259.15876.21953.23867a1.88889,1.88889,0,0,0,.1764-.29206,3.89577,3.89577,0,0,0,.20872-.83719M41.76088,13.06553l-.488-.308a4.1548,4.1548,0,0,0-.12526.44561c-.076.44916-.15122.89923-.19683,1.352-.00782.07761.13133.17.20259.25561.06562-.057.16766-.10208.19094-.173a13.50449,13.50449,0,0,0,.41656-1.5722m3.07977,0a.36449.36449,0,0,0-.07311-.06953.07232.07232,0,0,0-.06865.00916c-.44114.69891-.22168,1.47856-.261,2.22595-.00327.0622.10479.13024.16113.19558.08054-.075.22871-.148.231-.22532.01878-.64306.01065-1.28691.01065-2.13584m-3.901-1.43723c.06844-.78383.14425-1.56716.19784-2.352a1.12834,1.12834,0,0,0-.12685-.38811c-.0921.13105-.263.26175-.26355.39322-.004.87123.02841,1.74263.049,2.614.04786-.02058.09572-.04117.14357-.26707m2.46382,5.33828c-.06843.342-.15174.68205-.1956,1.02716a.44435.44435,0,0,0,.1552.29791c.02481.02464.23-.05437.23534-.0997.08324-.71056.149-1.42322.21237-2.136a.496.496,0,0,0-.05727-.1766c-.04824.053-.11995.09818-.14055.16032a5.24448,5.24448,0,0,0-.20949.92688m-2.05318,0a7.28235,7.28235,0,0,0-.13644.76151,1.07262,1.07262,0,0,0,.11082.36774c.077-.07987.20972-.152.222-.24085.0854-.61914.1439-1.242.21595-1.863.01407-.12128.04966-.24005.07532-.36-.0941.097-.23216.17822-.27345.294a5.23472,5.23472,0,0,0-.21417,1.04056M21.43437,24.15271a.37117.37117,0,0,0,.07215.06873.08611.08611,0,0,0,.06683-.00585,1.00559,1.00559,0,0,0,.05908-.37283c-.071-.33425-.1755-.66142-.2701-.99043a.14228.14228,0,0,0-.06532.00382,1.44473,1.44473,0,0,0,.13736,1.29656M45.25129,14.09212c.11683-.04839.26981-.06795.33884-.15448.0534-.06693.03726-.29714-.00924-.318-.24549-.11-.36012.00329-.3296.47244m-6.98082,0,.06428.26961a2.51515,2.51515,0,0,0,.32679-.47911c.01956-.04726-.16571-.17924-.257-.27234a1.39374,1.39374,0,0,0-.13411.48184m21.969,14.5776a.36858.36858,0,0,0-.07257-.0691.09544.09544,0,0,0-.0672.00674c-.02419.2601-.05331.52038-.05854.78111-.00109.05454.08729.11088.13444.16639a.65639.65639,0,0,0,.06094-.17548c.00838-.16775.00293-.33618.00293-.70966M20.71576,18.9171c.02819-.10869.05757-.21715.07888-.32718l-.12728-.03507A.49509.49509,0,0,0,20.71576,18.9171ZM2.62263,34.565c-.64228.26585-1.17426.54939-1.726.78717a1.05192,1.05192,0,0,1-.59929.02507.3919.3919,0,0,1-.1673-.67923c1.52458-1.74725,1.05427-1.33093,3.91628-2.38928a8.96956,8.96956,0,0,1,2.88928-.206c.27322-.00978.54757.00615.82005-.01114.03421-.00217.10121-.18656.08364-.20079a5.18021,5.18021,0,0,0-.78305-.581,12.9537,12.9537,0,0,0-2.029-1.29884,7.95959,7.95959,0,0,0-2.50945-.38222c-.18574-.00118-.57018.17738-.49193-.255a.81031.81031,0,0,1,.43583-.535,4.56669,4.56669,0,0,1,.90428-.052c2.00726-.25664,4.01246-.49489,5.92786.442a6.80753,6.80753,0,0,1,2.3948,1.38463c.77579.901,1.843,1.19244,1.92859,2.51939.01076.16669-.24029.32414-.20532.48927,0,.39309-.41793.76956-.584.20091a8.78778,8.78778,0,0,0-.838-1.49641,5.58958,5.58958,0,0,0-3.03634-2.29178,18.32493,18.32493,0,0,0-2.74516-.80168c-.07928-.02153-.18239.0447-.27444.07017.033.11141.04615.30822.10211.32127.70334.164,1.05679.77341,1.56909,1.17985a2.83373,2.83373,0,0,0,1.15463.65683,7.99613,7.99613,0,0,1,3.20942,1.67576c.11028.0774.958.00825.93909.06894a2.93915,2.93915,0,0,0-.21105,1.47447c.02346.09865.062.19373.09354.29045-.1019.00165-.22837.04265-.301-.00266a5.48341,5.48341,0,0,1-.54442-.42286c-.3837-.31316-.75883-.63759-1.15491-.9341-.07216-.054-.22718.0026-.344.00815.00958.09258-.0156.21639.0347.2724.22819.254.5063.467.7126.736a8.87953,8.87953,0,0,1,.78841,1.21179.49636.49636,0,0,1-.15008.46513.48444.48444,0,0,1-.46822-.10421c-.41479-.60969-.68742-1.33747-1.45227-1.63277a2.09608,2.09608,0,0,0-.63236-.19949,2.92713,2.92713,0,0,0-2.96272,2.44583A12.25319,12.25319,0,0,0,6.1489,40.8294a7.51881,7.51881,0,0,0,1.34129,3.43508c.33841.50333.64715,1.02848.93626,1.56168a.51114.51114,0,0,1-.01759.47235c-.08478.08685-.31321.04771-.47758.03995-.48186-.02273-.696-.29635-.806-.75927a4.34274,4.34274,0,0,0-.48057-1.13112A15.49125,15.49125,0,0,1,4.65627,39.8294a8.18147,8.18147,0,0,1,.53445-5.26289,3.0015,3.0015,0,0,0,.27166-.50029c.02067-.08622-.162-.31839-.19974-.30714-.85023.25374-1.6931.53214-2.64.8059m2.97711,2.05318a.55662.55662,0,0,0,.09972-.16331A3.02307,3.02307,0,0,1,9.04276,33.742a2.92053,2.92053,0,0,0,.51257-.00348.49233.49233,0,0,0,.24111-.10722c-.0275-.121-.0598-.28715-.14833-.338a1.206,1.206,0,0,0-.5456-.15933,3.49265,3.49265,0,0,0-3.70809,3.48417l-.015.60092c.03923-.16793.07953-.33564.11672-.504.00681-.03086.001-.06452.10363-.09689m.20532-3.69573.27631-.071c-.02828-.04478-.05486-.127-.0851-.12839-.23729-.01072-.5799-.10441-.6916.01426-.24347.25866-.78052-.05577-.83418.46844.255-.026.51082-.0456.76459-.08035A1.60154,1.60154,0,0,0,5.80506,32.92243Z"/></g></g></svg>