<svg xmlns="http://www.w3.org/2000/svg" width="63.26757" height="48.91947" viewBox="0 0 63.26757 48.91947"><title>groom-hair-3-funny</title><g id="Layer_2" data-name="Layer 2"><g id="groom-hair-3-funny"><path id="void" d="M62.91727,33.91374a2.729,2.729,0,0,1-1.0683,1.39673.48107.48107,0,0,1-.45844.04157c-.09649-.0697-.146-.40753-.09515-.4397.72516-.46918.18634-1.10315.15417-1.60712a16.72663,16.72663,0,0,0-.56164-2.11114,2.143,2.143,0,0,0-.80023-1.20777,1.24974,1.24974,0,0,0-1.67951-.055,3.3393,3.3393,0,0,0-1.67016,2.382,25.62623,25.62623,0,0,1-.996,3.07221c-.01068.03082.01209.08038-.00531.09912-.16619.17291-.33648.34051-.50671.5094a1.9809,1.9809,0,0,1-.29352-.685c-.004-.53882.11792-1.0777.126-1.61646a14.19455,14.19455,0,0,0-.13135-4.20623,7.0787,7.0787,0,0,1-.1662-1.45569,16.03663,16.03663,0,0,0-1.56964-4.91132,6.47978,6.47978,0,0,0-1.29614-1.91809,20.96564,20.96564,0,0,0-3.83765-3.3255,3.31324,3.31324,0,0,1-1.78-2.82965c0-.04559-.26544-.17291-.33514-.134a13.45861,13.45861,0,0,1-1.23181.74792c-1.86719.77881-3.75849,1.50263-5.62836,2.276-1.08038.44641-2.13531.95575-3.205,1.43024q-2.90534,1.29079-5.812,2.57361a66.08261,66.08261,0,0,0-8.91638,5.23694,7.9987,7.9987,0,0,0-1.22247,1.01068c-1.07367,1.04687-2.12592,2.11651-3.18616,3.17682-.09784.09783-.19037.19836-.29089.29083a16.16957,16.16957,0,0,0-2.62854,3.21966c-.60315.93024-1.34174,1.77338-2.016,2.65937a3.00055,3.00055,0,0,0-.59644.878c-.0885.319-.28955.30426-.429.23462a.51262.51262,0,0,1-.197-.45044,4.73549,4.73549,0,0,1,.40613-1.26532,33.34265,33.34265,0,0,1,3.66333-5.57746c1.72913-2.04016,3.56952-3.96228,5.47827-5.82409.6568-.64069,1.42353-1.16883,2.19159-1.79883.39807-.26142.74524-.46912,1.08838-.68494a.17245.17245,0,0,0,.0362-.13135c-.05225-.03082-.14344-.07379-.17157-.0509-.34046.26532-.67151.5415-1.00531.81488-.42756.20642-.87262.382-1.28009.622a36.194,36.194,0,0,0-4.9394,3.4328c-.47046.39545-1.02942.69031-1.48248,1.10455a10.39632,10.39632,0,0,0-1.0965,1.28272,33.96507,33.96507,0,0,0-3.13519,4.74774,14.30749,14.30749,0,0,0-1.43561,3.1004c-.33642,1.24256-.62195,2.48914-.835,3.7652a23.91572,23.91572,0,0,0-.15417,3.51056c-.01075.48254.1488.96777.17828,1.45434.0094.16755-.14209.34443-.21985.51734a1.71988,1.71988,0,0,1-.374-.3136,1.14971,1.14971,0,0,1-.20642-.52545A18.8689,18.8689,0,0,1,7.1254,42.8784c.13134-1.11657-.10858-2.252.33508-3.3684.41821-1.05634.76672-2.138,1.22247-3.18756.823-1.89667,1.97846-3.61506,2.84033-5.489a2.90234,2.90234,0,0,1,.126-.32843.5691.5691,0,0,0,.06568-.24121c-.03888.06293-.07905.12726-.11792.19031a7.57224,7.57224,0,0,0-1.97443,2.51324,22.71433,22.71433,0,0,0-2.02271,3.26526,16.42281,16.42281,0,0,0-1.90875,5.044,13.74115,13.74115,0,0,0,.17426,4.83349A3.02056,3.02056,0,0,0,6.478,47.18382c.33642.4289.58575.79352.012,1.2251-.14612.11127.15015.55628-.26135.50672-.2815-.03223-.3338-.31372-.39679-.60321C5.6,47.25353,5.30374,46.208,5.02365,45.16112a.8422.8422,0,0,0-.20782-.42352c-1.07367-.89673-.902-2.23719-1.22107-3.398a19.22249,19.22249,0,0,1-.39411-5.78119A17.27426,17.27426,0,0,1,3.643,32.77171c.15418-.78411.3794-1.55358.55494-2.33367a.95.95,0,0,0-.075-.374,2.95731,2.95731,0,0,0-.14343.311c-.33783,1.0227-.6756,2.04675-1.004,3.07348-.33917,1.0589-.51611,2.16211-.93829,3.20362a10.39352,10.39352,0,0,0-.30426,1.62054,2.67642,2.67642,0,0,1-.29492.59516c-.10321-.193-.28284-.38074-.30023-.58179-.09388-1.09778-.17426-2.19959-.20642-3.30139-.01746-.58838.012-1.15009-.57642-1.51734a.62212.62212,0,0,1-.24664-.40081,10.72261,10.72261,0,0,1,.77612-5.86829c1.00934-2.28815,1.9798-4.59088,3.1272-6.812A13.94626,13.94626,0,0,1,5.32388,18.365c1.2345-1.61792,2.47974-3.23035,3.77594-4.79871a38.0486,38.0486,0,0,1,3.27729-3.66333A53.26479,53.26479,0,0,1,17.86075,5.3496,32.80631,32.80631,0,0,1,23.28,2.05486a18.435,18.435,0,0,1,2.68622-.941c.42352-.11524.95837-.138,1.09375.53888.02411.11523.264.41681.40881.08044.26941-.61932.80426-.60321,1.33771-.72381.83374-.189,1.64337-.48664,2.46234-.73725C31.9216.07372,32.301.315,32.32779.96245c.004.09784-.08716.19971-.134.29889a3.048,3.048,0,0,0,.34985-.071A20.83606,20.83606,0,0,1,35.89731.14476c1.34845-.193,2.80682-.37933,3.94214.76a.68717.68717,0,0,0,.90612.0871A4.113,4.113,0,0,1,42.8768.68633a1.1275,1.1275,0,0,1,1.14069,1.004c.02813.37262.12732.4303.46917.44233a8.93638,8.93638,0,0,1,1.96235.21313A2.05123,2.05123,0,0,1,47.9556,4.06548c.09118.43561.09655.93561.878.97448.80963.04157,1.53344,1.26667,1.575,2.14734a4.94826,4.94826,0,0,1-.63538,2.56421c.23188-.244.638-.6206.9021-.63135a5.49551,5.49551,0,0,1,1.86585.54151,6.88675,6.88675,0,0,1,3.03869,1.8418,41.41042,41.41042,0,0,1,3.00251,3.489,31.94472,31.94472,0,0,1,2.08032,3.95422c.46246.93561.88068,1.8927,1.29486,2.85108a2.15428,2.15428,0,0,1,.0697.62463c-.248.01477-.40075.06964-.59649-.27881a5.01166,5.01166,0,0,0-1.24659-1.13128,1.33,1.33,0,0,0-.29754-.14478c-.01343.13135-.07776.28815-.02814.38873.09918.201.29083.35517.394.55622a31.49614,31.49614,0,0,1,2.40338,5.87506,24.33668,24.33668,0,0,1,.55091,2.87787A9.6277,9.6277,0,0,1,62.91727,33.91374Z" style="fill:#fff"/><path id="fill2" d="M63.20681,30.56543a24.32922,24.32922,0,0,0-.55091-2.87789,31.49609,31.49609,0,0,0-2.40335-5.875c-.10322-.20107-.29489-.3552-.39408-.55626-.0496-.10053.01474-.25735.02814-.38871a1.33158,1.33158,0,0,1,.29758.14478,5.012,5.012,0,0,1,1.24658,1.1313c.1957.34845.3485.29354.59648.27881a2.15408,2.15408,0,0,0-.0697-.62465c-.41419-.95838-.8324-1.91545-1.29484-2.85106a31.95206,31.95206,0,0,0-2.08032-3.95421,41.41593,41.41593,0,0,0-3.00252-3.48906,6.88661,6.88661,0,0,0-3.03871-1.84175,5.49484,5.49484,0,0,0-1.86584-.54153c-.26407.01073-.67021.3874-.9021.63133a4.94769,4.94769,0,0,0,.63535-2.56419c-.04155-.88069-.76537-2.10578-1.575-2.14734-.78146-.03888-.78682-.53885-.878-.97448A2.05136,2.05136,0,0,0,46.449,2.34574a8.93827,8.93827,0,0,0-1.96236-.2131c-.34181-.012-.441-.06971-.46914-.44231a1.12749,1.12749,0,0,0-1.14069-1.004,4.11294,4.11294,0,0,0-2.13126.30558A.68723.68723,0,0,1,39.83943.9048c-1.13532-1.13935-2.59369-.953-3.94214-.76a20.83586,20.83586,0,0,0-3.35371,1.04549,3.04953,3.04953,0,0,1-.34984.07108c.04691-.09922.13806-.20106.134-.29891C32.301.315,31.92163.07372,31.26885.27216c-.819.25061-1.62859.54821-2.46233.73723-.53348.12062-1.06831.10452-1.33773.72381-.14477.33641-.3847.03481-.40882-.08044-.13539-.67688-.67021-.65411-1.09378-.53885a18.43058,18.43058,0,0,0-2.68618.941,32.81027,32.81027,0,0,0-5.41928,3.29474A53.26434,53.26434,0,0,0,12.37711,9.903a38.03777,38.03777,0,0,0-3.2773,3.66335C7.80363,15.13462,6.55839,16.7471,5.32388,18.365A13.94456,13.94456,0,0,0,4.01161,20.3863c-1.1474,2.2211-2.11785,4.52389-3.12719,6.812A10.72259,10.72259,0,0,0,.10834,33.0666a.62187.62187,0,0,0,.24663.40081c.58844.36724.55895.92893.57638,1.51732.03217,1.10185.11259,2.20363.20643,3.30142.01741.20106.197.38877.30025.58178a2.675,2.675,0,0,0,.29488-.59514,10.39824,10.39824,0,0,1,.30428-1.6206c.42222-1.0415.59916-2.14465.93829-3.20356.32839-1.02678.66618-2.05081,1.004-3.07352a2.95614,2.95614,0,0,1,.14344-.311.94983.94983,0,0,1,.07505.374c-.17559.78009-.40078,1.54952-.55493,2.33367a17.26843,17.26843,0,0,0-.44234,2.78672,19.222,19.222,0,0,0,.39409,5.78118c.319,1.16081.14744,2.50122,1.22111,3.39795a.84239.84239,0,0,1,.20777.42352c.28014,1.04687.57636,2.09243.80827,3.15134.063.28949.11526.571.39675.60319.4115.04954.11528-.39545.26138-.50671.5737-.43158.32438-.7962-.01206-1.22509a3.01993,3.01993,0,0,1-.61256-1.0737,13.74144,13.74144,0,0,1-.17426-4.83353,16.42368,16.42368,0,0,1,1.90874-5.04395,22.71662,22.71662,0,0,1,2.02268-3.26522A7.57228,7.57228,0,0,1,11.597,30.45417c.03888-.063.07909-.12737.118-.19033a.56924.56924,0,0,1-.06567.24125,2.90054,2.90054,0,0,0-.126.32843c-.86189,1.87389-2.01732,3.59227-2.84033,5.48894C8.2272,37.372,7.87869,38.4537,7.46048,39.51c-.44367,1.11651-.20373,2.25186-.3351,3.36843a18.87166,18.87166,0,0,0,.16755,3.49849,1.14948,1.14948,0,0,0,.20643.52543,1.72089,1.72089,0,0,0,.374.31363c.07775-.17291.22922-.34982.21983-.51738-.02949-.48655-.189-.97179-.17828-1.45435A23.922,23.922,0,0,1,8.069,41.73371c.21312-1.27607.49862-2.52263.83507-3.76519a14.30423,14.30423,0,0,1,1.43558-3.10042,33.96942,33.96942,0,0,1,3.13521-4.74772,10.4,10.4,0,0,1,1.09646-1.28275c.45306-.41423,1.012-.70909,1.48249-1.10453a36.18812,36.18812,0,0,1,4.93942-3.43277c.40748-.23994.8525-.41555,1.28009-.622.33376-.27339.66485-.54958,1.00531-.81492.02815-.02284.1193.02009.17157.05092a.17246.17246,0,0,1-.03619.13136c-.34314.21579-.69031.42352-1.08841.68493-.76806.63-1.53477,1.15813-2.19158,1.79882-1.90874,1.86185-3.74912,3.784-5.47825,5.82411A33.34306,33.34306,0,0,0,10.99247,36.931a4.73613,4.73613,0,0,0-.40615,1.26534.51241.51241,0,0,0,.197.45042c.1394.06964.34046.08443.42892-.23457a3.00057,3.00057,0,0,1,.59649-.878c.67423-.886,1.41279-1.72911,2.016-2.65935a16.1685,16.1685,0,0,1,2.62854-3.21967c.10053-.09248.193-.193.29087-.29086,1.06027-1.06028,2.11248-2.12993,3.18615-3.1768a8.00214,8.00214,0,0,1,1.22246-1.01067,66.08183,66.08183,0,0,1,8.91641-5.237q2.90936-1.28079,5.812-2.57361c1.06964-.47451,2.12454-.98384,3.20491-1.43021,1.86988-.77342,3.7612-1.49723,5.62839-2.276a13.46654,13.46654,0,0,0,1.23183-.748c.06971-.03888.33511.08848.33511.134a3.31315,3.31315,0,0,0,1.78007,2.82965,20.96778,20.96778,0,0,1,3.83759,3.3255,6.47825,6.47825,0,0,1,1.29617,1.91814,16.03484,16.03484,0,0,1,1.56963,4.91128,7.07743,7.07743,0,0,0,.16621,1.45566,14.19549,14.19549,0,0,1,.13136,4.20626c-.008.53878-.13,1.07763-.126,1.61648a1.98093,1.98093,0,0,0,.29355.685c.17023-.16893.34047-.33648.50668-.5094.01742-.01878-.00537-.06833.00535-.09916a25.632,25.632,0,0,0,.99593-3.07221,3.33931,3.33931,0,0,1,1.67015-2.382,1.24972,1.24972,0,0,1,1.67953.055,2.14273,2.14273,0,0,1,.80023,1.20774,16.73065,16.73065,0,0,1,.56163,2.11115c.03217.504.571,1.138-.15415,1.60711-.05093.0322-.00134.37.09518.43969a.481.481,0,0,0,.45841-.04156,2.72906,2.72906,0,0,0,1.06831-1.39669A9.62815,9.62815,0,0,0,63.20681,30.56543Zm-14.148-19.62627a4.75794,4.75794,0,0,1-.29623.40075c-.31232-.13673.89942-1.47177,1.00933-1.587A13.12134,13.12134,0,0,1,49.05878,10.93916Z" style="fill:#f4e184"/><path id="fill1" d="M23.30548,3.12184a.44766.44766,0,0,0-.189.32038,3.48309,3.48309,0,0,1-1.11789,1.88731c-1.30959,1.36986-2.71568,2.64862-4.107,3.93673-1.37794,1.27608-2.82559,2.48114-4.17,3.79072-1.30958,1.27339-2.54008,2.6299-3.78264,3.97162a17.32931,17.32931,0,0,0-2.65,4.03327,10.27674,10.27674,0,0,0-.56834,1.38466,1.09653,1.09653,0,0,0,.33912-.29217c.89942-1.3713,1.697-2.82291,2.71433-4.10036,1.09378-1.36986,2.38727-2.583,3.60571-3.85231.63937-.66621,1.27205-1.34577,1.965-1.95432,1.21978-1.06965,2.51327-2.05617,3.721-3.13923.941-.8445,1.764-1.82029,2.705-2.66472a10.14933,10.14933,0,0,0,2.14063-3.02129,1.85216,1.85216,0,0,0,.10187-.47988A4.31019,4.31019,0,0,0,23.30548,3.12184Zm-1.6983,16.03937a1.46805,1.46805,0,0,0-.35521.23457c-.01207.01205.04825.10054.07372.15276a3.06612,3.06612,0,0,0,.26674-.22514A.142.142,0,0,0,21.60718,19.16121ZM43.87675,3.30549a1.05744,1.05744,0,0,0-.28684-.29085,4.91631,4.91631,0,0,0-.49194-.26272c-.09785.19838-.2788.39944-.27478.59644a1.99612,1.99612,0,0,1-.374,1.08307,8.89773,8.89773,0,0,1-1.85648,2.30284C39.29523,7.8481,38.20547,9.18321,36.853,10.25553c-1.47579,1.17018-3.09232,2.11383-4.64184,3.1647a6.56993,6.56993,0,0,0-2.08433,1.63532c.08578,0,.13.01473.1528-.00275,1.55085-1.14465,3.3068-1.95832,4.89384-3.05473a30.0984,30.0984,0,0,0,4.04-3.10441c.26942-.26272.52276-.54153.80022-.79489.69165-.634,1.43826-1.21573,2.07227-1.902a8.36288,8.36288,0,0,0,1.11791-1.68488c.193-.35251.17425-.83108.68226-.96512A.35009.35009,0,0,0,43.87675,3.30549Zm1.89.04693c-.16621.16755-.445.315-.47852.50665a5.68621,5.68621,0,0,1-1.75192,3.17274c-1.00128.9517-2.03743,1.86852-3.02531,2.83364-1.197,1.17018-2.43016,2.28944-3.72634,3.35771a36.09829,36.09829,0,0,1-5.08016,3.36045c-1.398.80156-2.89394,1.42752-4.32416,2.17548a14.53609,14.53609,0,0,0-3.07088,1.74921,2.32229,2.32229,0,0,1-.36593.21984c.185.00269.40347.071.54823-.004.56565-.29092,1.09378-.65685,1.66211-.941,2.37654-1.19027,4.78527-2.31889,7.139-3.55072a24.13385,24.13385,0,0,0,4.69277-3.25985c1.92349-1.68625,3.76521-3.46635,5.69272-5.25712a12.81,12.81,0,0,0,1.197-1.42484,17.9662,17.9662,0,0,0,1.19028-2.27333C46.13132,3.8698,45.87531,3.57757,45.76673,3.35242ZM23.30548,3.12184a.44766.44766,0,0,0-.189.32038,3.48309,3.48309,0,0,1-1.11789,1.88731c-1.30959,1.36986-2.71568,2.64862-4.107,3.93673-1.37794,1.27608-2.82559,2.48114-4.17,3.79072-1.30958,1.27339-2.54008,2.6299-3.78264,3.97162a17.32931,17.32931,0,0,0-2.65,4.03327,10.27674,10.27674,0,0,0-.56834,1.38466,1.09653,1.09653,0,0,0,.33912-.29217c.89942-1.3713,1.697-2.82291,2.71433-4.10036,1.09378-1.36986,2.38727-2.583,3.60571-3.85231.63937-.66621,1.27205-1.34577,1.965-1.95432,1.21978-1.06965,2.51327-2.05617,3.721-3.13923.941-.8445,1.764-1.82029,2.705-2.66472a10.14933,10.14933,0,0,0,2.14063-3.02129,1.85216,1.85216,0,0,0,.10187-.47988A4.31019,4.31019,0,0,0,23.30548,3.12184Zm22.46125.23058c-.16621.16755-.445.315-.47852.50665a5.68621,5.68621,0,0,1-1.75192,3.17274c-1.00128.9517-2.03743,1.86852-3.02531,2.83364-1.197,1.17018-2.43016,2.28944-3.72634,3.35771a36.09829,36.09829,0,0,1-5.08016,3.36045c-1.398.80156-2.89394,1.42752-4.32416,2.17548a14.53609,14.53609,0,0,0-3.07088,1.74921,2.32229,2.32229,0,0,1-.36593.21984c.185.00269.40347.071.54823-.004.56565-.29092,1.09378-.65685,1.66211-.941,2.37654-1.19027,4.78527-2.31889,7.139-3.55072a24.13385,24.13385,0,0,0,4.69277-3.25985c1.92349-1.68625,3.76521-3.46635,5.69272-5.25712a12.81,12.81,0,0,0,1.197-1.42484,17.9662,17.9662,0,0,0,1.19028-2.27333C46.13132,3.8698,45.87531,3.57757,45.76673,3.35242ZM30.27963,15.0528c1.55085-1.14465,3.3068-1.95832,4.89384-3.05473a30.0984,30.0984,0,0,0,4.04-3.10441c.26942-.26272.52276-.54153.80022-.79489.69165-.634,1.43826-1.21573,2.07227-1.902a8.36288,8.36288,0,0,0,1.11791-1.68488c.193-.35251.17425-.83108.68226-.96512a.35009.35009,0,0,0-.00938-.24125,1.05744,1.05744,0,0,0-.28684-.29085,4.91631,4.91631,0,0,0-.49194-.26272c-.09785.19838-.2788.39944-.27478.59644a1.99612,1.99612,0,0,1-.374,1.08307,8.89773,8.89773,0,0,1-1.85648,2.30284C39.29523,7.8481,38.20547,9.18321,36.853,10.25553c-1.47579,1.17018-3.09232,2.11383-4.64184,3.1647a6.56993,6.56993,0,0,0-2.08433,1.63532C30.21261,15.05555,30.25684,15.07028,30.27963,15.0528Zm-6.97415-11.931a.44766.44766,0,0,0-.189.32038,3.48309,3.48309,0,0,1-1.11789,1.88731c-1.30959,1.36986-2.71568,2.64862-4.107,3.93673-1.37794,1.27608-2.82559,2.48114-4.17,3.79072-1.30958,1.27339-2.54008,2.6299-3.78264,3.97162a17.32931,17.32931,0,0,0-2.65,4.03327,10.27674,10.27674,0,0,0-.56834,1.38466,1.09653,1.09653,0,0,0,.33912-.29217c.89942-1.3713,1.697-2.82291,2.71433-4.10036,1.09378-1.36986,2.38727-2.583,3.60571-3.85231.63937-.66621,1.27205-1.34577,1.965-1.95432,1.21978-1.06965,2.51327-2.05617,3.721-3.13923.941-.8445,1.764-1.82029,2.705-2.66472a10.14933,10.14933,0,0,0,2.14063-3.02129,1.85216,1.85216,0,0,0,.10187-.47988A4.31019,4.31019,0,0,0,23.30548,3.12184ZM21.252,19.39578c-.01207.01205.04825.10054.07372.15276a3.06612,3.06612,0,0,0,.26674-.22514.142.142,0,0,0,.01475-.16219A1.46805,1.46805,0,0,0,21.252,19.39578ZM63.20681,30.56543a24.32922,24.32922,0,0,0-.55091-2.87789,31.49609,31.49609,0,0,0-2.40335-5.875c-.10322-.20107-.29489-.3552-.39408-.55626-.0496-.10053.01474-.25735.02814-.38871a1.33158,1.33158,0,0,1,.29758.14478,5.012,5.012,0,0,1,1.24658,1.1313c.1957.34845.3485.29354.59648.27881a2.15408,2.15408,0,0,0-.0697-.62465c-.41419-.95838-.8324-1.91545-1.29484-2.85106a31.95206,31.95206,0,0,0-2.08032-3.95421,41.41593,41.41593,0,0,0-3.00252-3.48906,6.88661,6.88661,0,0,0-3.03871-1.84175,5.49484,5.49484,0,0,0-1.86584-.54153c-.26407.01073-.67021.3874-.9021.63133a4.94769,4.94769,0,0,0,.63535-2.56419c-.04155-.88069-.76537-2.10578-1.575-2.14734-.78146-.03888-.78682-.53885-.878-.97448A2.05136,2.05136,0,0,0,46.449,2.34574a8.93827,8.93827,0,0,0-1.96236-.2131c-.34181-.012-.441-.06971-.46914-.44231a1.12749,1.12749,0,0,0-1.14069-1.004,4.11294,4.11294,0,0,0-2.13126.30558A.68723.68723,0,0,1,39.83943.9048c-1.13532-1.13935-2.59369-.953-3.94214-.76a20.83586,20.83586,0,0,0-3.35371,1.04549,3.04953,3.04953,0,0,1-.34984.07108c.04691-.09922.13806-.20106.134-.29891C32.301.315,31.92163.07372,31.26885.27216c-.819.25061-1.62859.54821-2.46233.73723-.53348.12062-1.06831.10452-1.33773.72381-.14477.33641-.3847.03481-.40882-.08044-.13539-.67688-.67021-.65411-1.09378-.53885a18.43058,18.43058,0,0,0-2.68618.941,32.81027,32.81027,0,0,0-5.41928,3.29474A53.26434,53.26434,0,0,0,12.37711,9.903a38.03777,38.03777,0,0,0-3.2773,3.66335C7.80363,15.13462,6.55839,16.7471,5.32388,18.365A13.94456,13.94456,0,0,0,4.01161,20.3863c-1.1474,2.2211-2.11785,4.52389-3.12719,6.812A10.72259,10.72259,0,0,0,.10834,33.0666a.62187.62187,0,0,0,.24663.40081c.58844.36724.55895.92893.57638,1.51732.03217,1.10185.11259,2.20363.20643,3.30142.01741.20106.197.38877.30025.58178a2.675,2.675,0,0,0,.29488-.59514,10.39824,10.39824,0,0,1,.30428-1.6206c.42222-1.0415.59916-2.14465.93829-3.20356.32839-1.02678.66618-2.05081,1.004-3.07352a2.95614,2.95614,0,0,1,.14344-.311.94983.94983,0,0,1,.07505.374c-.17559.78009-.40078,1.54952-.55493,2.33367a17.26843,17.26843,0,0,0-.44234,2.78672,19.222,19.222,0,0,0,.39409,5.78118c.319,1.16081.14744,2.50122,1.22111,3.39795a.84239.84239,0,0,1,.20777.42352c.28014,1.04687.57636,2.09243.80827,3.15134.063.28949.11526.571.39675.60319.4115.04954.11528-.39545.26138-.50671.5737-.43158.32438-.7962-.01206-1.22509a3.01993,3.01993,0,0,1-.61256-1.0737,13.74144,13.74144,0,0,1-.17426-4.83353,16.42368,16.42368,0,0,1,1.90874-5.04395,22.71662,22.71662,0,0,1,2.02268-3.26522A7.57228,7.57228,0,0,1,11.597,30.45417c.03888-.063.07909-.12737.118-.19033a.56924.56924,0,0,1-.06567.24125,2.90054,2.90054,0,0,0-.126.32843c-.86189,1.87389-2.01732,3.59227-2.84033,5.48894C8.2272,37.372,7.87869,38.4537,7.46048,39.51c-.44367,1.11651-.20373,2.25186-.3351,3.36843a18.87166,18.87166,0,0,0,.16755,3.49849,1.14948,1.14948,0,0,0,.20643.52543,1.72089,1.72089,0,0,0,.374.31363c.07775-.17291.22922-.34982.21983-.51738-.02949-.48655-.189-.97179-.17828-1.45435A23.922,23.922,0,0,1,8.069,41.73371c.21312-1.27607.49862-2.52263.83507-3.76519a14.30423,14.30423,0,0,1,1.43558-3.10042,33.96942,33.96942,0,0,1,3.13521-4.74772,10.4,10.4,0,0,1,1.09646-1.28275c.45306-.41423,1.012-.70909,1.48249-1.10453a36.18812,36.18812,0,0,1,4.93942-3.43277c.40748-.23994.8525-.41555,1.28009-.622.33376-.27339.66485-.54958,1.00531-.81492.02815-.02284.1193.02009.17157.05092a.17246.17246,0,0,1-.03619.13136c-.34314.21579-.69031.42352-1.08841.68493-.76806.63-1.53477,1.15813-2.19158,1.79882-1.90874,1.86185-3.74912,3.784-5.47825,5.82411A33.34306,33.34306,0,0,0,10.99247,36.931a4.73613,4.73613,0,0,0-.40615,1.26534.51241.51241,0,0,0,.197.45042c.1394.06964.34046.08443.42892-.23457a3.00057,3.00057,0,0,1,.59649-.878c.67423-.886,1.41279-1.72911,2.016-2.65935a16.1685,16.1685,0,0,1,2.62854-3.21967c.10053-.09248.193-.193.29087-.29086,1.06027-1.06028,2.11248-2.12993,3.18615-3.1768a8.00214,8.00214,0,0,1,1.22246-1.01067,66.08183,66.08183,0,0,1,8.91641-5.237q2.90936-1.28079,5.812-2.57361c1.06964-.47451,2.12454-.98384,3.20491-1.43021,1.86988-.77342,3.7612-1.49723,5.62839-2.276a13.46654,13.46654,0,0,0,1.23183-.748c.06971-.03888.33511.08848.33511.134a3.31315,3.31315,0,0,0,1.78007,2.82965,20.96778,20.96778,0,0,1,3.83759,3.3255,6.47825,6.47825,0,0,1,1.29617,1.91814,16.03484,16.03484,0,0,1,1.56963,4.91128,7.07743,7.07743,0,0,0,.16621,1.45566,14.19549,14.19549,0,0,1,.13136,4.20626c-.008.53878-.13,1.07763-.126,1.61648a1.98093,1.98093,0,0,0,.29355.685c.17023-.16893.34047-.33648.50668-.5094.01742-.01878-.00537-.06833.00535-.09916a25.632,25.632,0,0,0,.99593-3.07221,3.33931,3.33931,0,0,1,1.67015-2.382,1.24972,1.24972,0,0,1,1.67953.055,2.14273,2.14273,0,0,1,.80023,1.20774,16.73065,16.73065,0,0,1,.56163,2.11115c.03217.504.571,1.138-.15415,1.60711-.05093.0322-.00134.37.09518.43969a.481.481,0,0,0,.45841-.04156,2.72906,2.72906,0,0,0,1.06831-1.39669A9.62815,9.62815,0,0,0,63.20681,30.56543Zm-59.59464-.4531a25.83237,25.83237,0,0,0-1.23183,3.7934,7.27677,7.27677,0,0,0-.65011,2.60974c.00268.02683-.10858.09922-.15548.09117-.0858-.0161-.21582-.06165-.2319-.122a1.51458,1.51458,0,0,1-.01206-.40611,26.64016,26.64016,0,0,1,.03619-3.5856,12.97851,12.97851,0,0,1,.52543-3.36176c.2118-.51071.063-1.16618.46512-1.65405.04022-.50671.08044-.80961.122-1.1112-.54958-.0322-.4276.433-.58309.7278a9.6885,9.6885,0,0,0-.98252,3.49449c-.01205.09785-.12332.185-.18766.27613-.07238-.08449-.2158-.17966-.20508-.252.08847-.60856.17426-1.21842.319-1.81492a28.94342,28.94342,0,0,1,1.59106-3.85231,25.80972,25.80972,0,0,1,1.09646-2.51864,35.47426,35.47426,0,0,1,2.03475-3.46229c.74124-1.08168,1.62859-2.06291,2.44625-3.09367.46646-.58977.89673-1.21037,1.3833-1.7841.95035-1.1165,1.886-2.25186,2.90735-3.3041a32.73271,32.73271,0,0,1,3.47568-3.24912A58.76559,58.76559,0,0,1,21.64336,3.4127,27.938,27.938,0,0,1,26.21953,1.571a.8898.8898,0,0,1,.3485.01879c-.03618.11656-.04021.30421-.11393.33909-.73454.33242-.75331.9932-.9356,1.66079a5.08648,5.08648,0,0,1-1.0978,1.99045c-1.138,1.264-2.37789,2.43827-3.59767,3.62716-.57369.56032-1.19162,1.0737-1.79614,1.59914-2.16477,1.88462-4.3,3.79739-6.28921,5.871-1.2506,1.3029-2.57627,2.53205-3.81883,3.84294a18.3204,18.3204,0,0,0-3.272,5.20483C4.98475,27.19562,4.24216,28.6312,3.61217,30.11233ZM42.30848,16.11178c-1.4329.4785-2.75991,1.264-4.17673,1.80281-1.89534.72119-3.76253,1.49455-5.58951,2.37255a19.55431,19.55431,0,0,1-1.97978.91682,31.852,31.852,0,0,0-6.32272,3.31353,30.92137,30.92137,0,0,0-4.51584,3.24107c-.91014.82839-1.89,1.57635-2.79207,2.41143a14.82453,14.82453,0,0,0-1.386,1.57766c-.6434.78815-1.268,1.59239-1.894,2.39664-.32036.41148-.62061.83913-.94633,1.24793-.05228.06571-.18765.06571-.28417.09516a1.14274,1.14274,0,0,1,.06971-.27613,13.61286,13.61286,0,0,1,1.87389-2.721c1.32164-1.45031,2.56152-2.97705,3.86708-4.44483.34717-.39139.83508-.65548,1.205-1.03076a15.08282,15.08282,0,0,1,1.54148-1.67283c1.47846-1.08974,3.036-2.07227,4.55873-3.103a3.97494,3.97494,0,0,0,.3914-.34584c-.2024-.08979-.45306-.3029-.60051-.24661a10.595,10.595,0,0,0-3.05881,1.29885,12.685,12.685,0,0,1-1.40475.81092c-.878.52543-1.77068,1.03077-2.61916,1.60313a28.54806,28.54806,0,0,0-2.7465,2.03208,9.69039,9.69039,0,0,0-2.14466,2.00525,11.12379,11.12379,0,0,1-1.08037,1.29885.70166.70166,0,0,1-.21447.11794c-.01072-.09248-.063-.21042-.02413-.27345.25334-.41011.51874-.81492.79487-1.21036a4.98986,4.98986,0,0,1,.386-.43832,2.77919,2.77919,0,0,0-.68227-.06571.914.914,0,0,0-.49461.27482c-.571.61255-1.1541,1.21711-1.66881,1.8752a26.97841,26.97841,0,0,0-2.87384,4.45425c-.512,1.016-.89272,2.10578-1.46239,3.08556a6.53651,6.53651,0,0,0-.79888,3.26391c-.01475.65011.00134,1.30023-.0067,1.95034a.93221.93221,0,0,1-.09249.26939c-.07239-.06833-.1689-.12462-.21178-.20774a.76837.76837,0,0,1-.09785-.3673,42.33,42.33,0,0,1,.17693-5.46348A19.72923,19.72923,0,0,1,6.62005,33.0827c.315-.66085.72516-1.27339,1.075-1.91814a1.88487,1.88487,0,0,0,.11661-.49192c-.185.04019-.43429.01741-.54421.13a8.24516,8.24516,0,0,0-1.01871,1.21711,10.56645,10.56645,0,0,0-1.39,2.39533,38.75092,38.75092,0,0,0-.85922,4.06279c-.02412.126-.055.25067-.08309.37535-.04022-.10727-.08178-.21448-.12064-.32175a3.392,3.392,0,0,1-.01206-1.47308,19.85969,19.85969,0,0,1,.00669-2.3967c.19034-.98652.25736-2.00525.53216-2.96631a29.0324,29.0324,0,0,1,1.93822-4.94342c.13807-.27744.44367-.57772-.15951-.69167a1.34236,1.34236,0,0,1,.06435-.52942A9.4727,9.4727,0,0,1,6.671,24.61a13.05907,13.05907,0,0,1,1.17153-1.97043c1.2573-1.48512,2.5709-2.92606,3.91265-4.33487.78817-.827,1.71036-1.52406,2.51193-2.339a69.89908,69.89908,0,0,1,6.05329-5.4555c1.23318-.99457,2.34974-2.13929,3.47971-3.25455A10.09317,10.09317,0,0,0,26.3844,3.09239c.0563-.17829.134-.45173.25869-.4893A10.70816,10.70816,0,0,1,27.954,2.35916a6.99241,6.99241,0,0,1-.307,1.04817,12.33839,12.33839,0,0,1-.945,1.76132c-.86322,1.26-1.82965,2.45024-2.646,3.73842-.252.39807-.80022.63938-.756,1.2211.54286-.57635,1.12862-1.11926,1.61653-1.73854.764-.96905,1.49992-1.965,2.17683-2.99714A7.29817,7.29817,0,0,0,28.65371,1.9302a.6375.6375,0,0,1,.36057-.41417c.70506-.2828,1.4195-.54284,2.14466-.768.15817-.04961.49193.03083.53616.1381a.42153.42153,0,0,1-.34984.59782c-.8954-.03351-.88736.58171-1.0911,1.19963A8.285,8.285,0,0,1,28.4178,5.91929q-2.465,2.54341-5.00911,5.00645a16.88053,16.88053,0,0,1-1.90472,1.461c-.08579.06833-.1193.13673-.20509.20506a.65974.65974,0,0,1-.30829.051.53344.53344,0,0,0-.39676.09916c-.37532.42091-.70506.88331-1.09914,1.28412-1.36722,1.39133-2.75454,2.76126-4.12846,4.14592a1.41035,1.41035,0,0,0-.19034.35918,1.51531,1.51531,0,0,0,.4182-.193c1.14069-1.05622,2.27066-2.12319,3.40331-3.18884.14878-.14072.28015-.3029.437-.43295,1.21844-1.02,2.45563-2.01729,3.65932-3.0548,1.26669-1.09242,2.528-2.19427,3.74645-3.34029A13.51219,13.51219,0,0,0,30.919,2.72509c.08042-.252.44367-.445.71444-.59383.27344-.15008.62462-.16081.89-.32031.46244-.27613.44769.01473.42088.31226a2.0478,2.0478,0,0,1-.14878.65548c-.27478.60456-.57772,1.197-.87261,1.79352a22.02286,22.02286,0,0,1-3.9274,5.24232A25.07791,25.07791,0,0,1,25.422,12.00337c-1.02005.82571-2.02133,1.68494-3.10573,2.42085a24.85613,24.85613,0,0,0-3.77191,3.02529c-.3847.39-.7627.78677-1.16348,1.15944-.689.638-1.398,1.2546-2.08433,1.89536a1.30094,1.30094,0,0,0-.19437.41685,1.804,1.804,0,0,0,.36057-.189c1.53879-1.327,3.10172-2.62853,4.603-3.99708,1.87121-1.70366,4.14186-2.85374,6.04927-4.5212a40.469,40.469,0,0,0,3.68613-3.61375,41.35237,41.35237,0,0,0,2.71835-3.88856A8.9267,8.9267,0,0,0,33.75,1.93962c.0496-.181-.28416-.48125.10053-.60724A14.22371,14.22371,0,0,1,36.04876.70511c.67959-.1059,1.079.56293.8592,1.2586A14.94206,14.94206,0,0,1,33.70572,7.202a10.18969,10.18969,0,0,0-1.52538,1.89935,3.49211,3.49211,0,0,0,.82837-.58708c.65009-.74528,1.264-1.52269,1.89266-2.28806,1.29617-1.575,2.61916-3.13661,2.776-5.30941A.31739.31739,0,0,1,37.81006.689a1.40842,1.40842,0,0,1,1.713,1.05891,3.96307,3.96307,0,0,1-.53081,2.24251,15.757,15.757,0,0,1-2.40871,3.1982c-1.0482,1.15276-2.19291,2.21841-3.29607,3.3202a5.69919,5.69919,0,0,1-.65948.63937c-1.12862.8123-2.276,1.59914-3.40866,2.40607-1.84843,1.31626-3.721,2.60306-5.51847,3.985-.68629.52812-1.61252.77211-1.99186,1.62191a3.0874,3.0874,0,0,0,.74795-.29491c1.575-1.0777,3.1674-2.12987,4.69547-3.26922,1.51332-1.126,3.099-2.1474,4.5976-3.29474,1.02005-.78147,2.0401-1.55358,2.98777-2.42216A44.80946,44.80946,0,0,0,38.37168,5.8509a7.00268,7.00268,0,0,0,1.7479-3.3778,1.29192,1.29192,0,0,1,.69835-.92624,3.76076,3.76076,0,0,1,1.94762-.25067c.47585-.02677.65412.17966.66752.65548.01476.57235.23056.75463.82033.78009.44368.02016.89.00138,1.33371.00537A1.806,1.806,0,0,1,47.335,3.89526c.29489.65548-.23725,1.453.39676,2.024-.067.07508-.16487.138-.19972.22515a7.09551,7.09551,0,0,1-2.31489,3.13524c-1.28947.98116-2.51863,2.04282-3.73974,3.11109a30.69592,30.69592,0,0,1-4.788,3.06154c-1.49992.88867-3.07356,1.654-4.60833,2.48512-.08176.04418-.10187.20237-.15147.307a2.23146,2.23146,0,0,0,.28954-.09922c2.213-1.09779,4.5145-2.01866,6.63234-3.30141a21.00045,21.00045,0,0,0,4.27993-3.06285,16.47591,16.47591,0,0,1,2.66206-2.23446,7.19591,7.19591,0,0,0,1.77872-2.03607A8.53466,8.53466,0,0,0,48.21968,6.446c.08311-.1595.16621-.44231.08847-.53747-.23859-.29086-.11259-.30028.1528-.29891a1.54581,1.54581,0,0,1,1.31763,1.47308,7.00417,7.00417,0,0,1-1.24122,3.792,10.45469,10.45469,0,0,0-.75331,1.512c.34046-.35251.68361-.6863.9785-1.04686A10.33256,10.33256,0,0,0,50.241,10.1228c.69165-.58976,1.69294.08581,2.35912.303A9.97013,9.97013,0,0,1,56.98463,13.821a18.34871,18.34871,0,0,1,1.87523,2.82154c.67556,1.189,1.31628,2.39794,1.957,3.60431.04557.0845-.02413.22927-.04021.34584a1.15075,1.15075,0,0,1-.27613-.063,6.737,6.737,0,0,0-1.44228-.71851,1.15084,1.15084,0,0,1-.80559-.52137,16.918,16.918,0,0,0-1.89533-2.80551,9.50336,9.50336,0,0,0-3.46094-2.914,6.52323,6.52323,0,0,0-2.86178-.78016.95239.95239,0,0,1-.46111-.11526,1.47749,1.47749,0,0,1-.30561-.28281c.16487-.04424.32841-.09922.496-.12867.16218-.02815.42356.03351.47986-.0523a1.24667,1.24667,0,0,1,1.46641-.4209,5.4,5.4,0,0,1,3.85234,2.335,11.5706,11.5706,0,0,0,1.508,1.73854.8769.8769,0,0,0,.28551.14209,1.09593,1.09593,0,0,0-.09517-.34714c-.5-.71851-.96778-1.46647-1.52941-2.1353a6.569,6.569,0,0,0-3.61911-2.4007c-.3485-.07638-.76-.25872-1.04686-.14745a7.07089,7.07089,0,0,0-2.465,1.24662,11.84047,11.84047,0,0,1-2.13661,1.78A23.726,23.726,0,0,1,42.30848,16.11178ZM57.85589,29.26521c-.1957.256-.38738.5147-.5804.77205a.70768.70768,0,0,1,.08981-.90877c.03619-.03351.02681-.13136.01608-.19432-.04289-.24668-.07506-.69973-.14342-.70509-.50936-.04287-.20374.36861-.26.5804-.35253,1.32431-.68763,2.65268-1.03615,3.97837a2.52424,2.52424,0,0,1-.19436.43157c-.04557.09386-.0965.18634-.14476.28013a1.24286,1.24286,0,0,1-.06434-.28013c-.004-1.22915.02949-2.45967-.01072-3.68881a12.75423,12.75423,0,0,0-1.14739-5.25974q-.748-1.53613-1.51869-3.06016a2.00823,2.00823,0,0,0-.36459-.46378,24.53018,24.53018,0,0,0-4.296-3.71427c-.3284-.20911-.882-.53355-.62195-1.01336.09383-.17429.79353-.11932,1.17823-.02147a5.24314,5.24314,0,0,1,2.6339,1.56693c.85251.93161,1.79615,1.7801,2.66742,2.69424a11.18023,11.18023,0,0,1,2.92343,5.45006c.14611.67833.41151,1.33106.60319,2.00264.122.42889.2091.86989.311,1.30552A.20345.20345,0,0,1,57.85589,29.26521Zm1.07635-.3029a.44729.44729,0,0,1-.70506-.28955,19.02479,19.02479,0,0,0-.8592-3.54541,10.13392,10.13392,0,0,0-1.86853-4.03328c-.62463-.78415-1.34175-1.49591-2.01732-2.23982a12.9228,12.9228,0,0,0-2.89662-2.70359,5.15957,5.15957,0,0,0-2.09105-.89542,2.06226,2.06226,0,0,1-.43429-.18228c-.10187-.04555-.2024-.09516-.30293-.14346.09115-.02677.18229-.05492.27478-.07907a2.87263,2.87263,0,0,1,2.05888.45841,15.51084,15.51084,0,0,1,5.552,4.18878,20.7486,20.7486,0,0,1,2.26528,3.37917A11.25482,11.25482,0,0,1,58.821,25.878a9.54286,9.54286,0,0,0,.50667,2.44893C59.644,28.97834,59.073,28.85772,58.93224,28.96231ZM62.6626,32.8709a.6673.6673,0,0,1-.1461-.05491c-.20508-.97455-.51874-1.73455-.59112-2.516a9.8078,9.8078,0,0,0-1.2171-3.39926c-.38871-.7962-.76805-1.59639-1.16749-2.38728-.03753-.07638-.185-.09647-.28149-.1434a.88767.88767,0,0,0,.02011.27613c.54956,1.30958,1.11254,2.6138,1.65943,3.92607a14.50613,14.50613,0,0,1,.95437,3.80538c.01206.09791-.07641.2078-.118.31232-.02681-.0911-.05093-.18358-.08043-.27345a8.0018,8.0018,0,0,0-.82033-2.532c-.11527-.1542-.18765-.41155-.3351-.46247-.831-.29086-.73723-1.05754-.88869-1.67682-.2587-1.06029-.46915-2.13262-.68227-3.20364a8.39508,8.39508,0,0,0-.98118-2.76924,23.30817,23.30817,0,0,0-1.638-2.2948A19.724,19.724,0,0,0,54.68314,17.605,13.8128,13.8128,0,0,0,50.3134,14.8022a6.10979,6.10979,0,0,0-2.4315-.59651c-.27479-.00131-.56834.55894-.7265.08849-.09383-.2815.40882-.34722.67824-.48387a3.25088,3.25088,0,0,1,2.63927-.23726c.51338.17423,1.07636.20106,1.587.38066a7.21563,7.21563,0,0,1,3.78666,2.721c.71712,1.0563,1.58034,2.01468,2.37386,3.02a1.87066,1.87066,0,0,1,.189.331c.82569,1.71576,1.93957,3.27334,2.68887,5.03727a26.24723,26.24723,0,0,1,1.449,4.8402,19.35833,19.35833,0,0,1,.17157,2.8953C62.72024,32.82266,62.67735,32.87358,62.6626,32.8709Z"/></g></g></svg>