<svg xmlns="http://www.w3.org/2000/svg" width="61.03189" height="31.65761" viewBox="0 0 61.03189 31.65761"><title>groom-hair-5-funny</title><g id="Layer_2" data-name="Layer 2"><g id="groom-hair-5-funny"><path id="void" d="M61.02631,22.82794a6.47653,6.47653,0,0,1-.147,1.50159.51729.51729,0,0,1-.02075.06122c-.05939.18017-.18231.31048-.00452.53.00464.00573-.0036.0263-.00458.03875a.79616.79616,0,0,1-.31866.45044.37734.37734,0,0,1-.30884.01215.34632.34632,0,0,1-.17413-.30536.77152.77152,0,0,0-.07965-.24146c-.10871-.22192-.28375-.43609-.36939-.66644a.77759.77759,0,0,1-.04364-.11322,1.09625,1.09625,0,0,0-.83813-.98492,2.51714,2.51714,0,0,0-.76117-.04248c-.752.0509-1.13263.449-1.57227,1.2359a3.24331,3.24331,0,0,0-.33264.95233,11.65809,11.65809,0,0,0-.15338,1.74768c-.01843.3512-.03076.7027-.04254,1.05426-.01215.36652-.024.73334-.04382,1.0993a.68712.68712,0,0,1-.095.29c-.16308.28943-.50183.546-.74023.4798a.65918.65918,0,0,1-.38873-.47577,17.35921,17.35921,0,0,0-.63172-3.63788c-.16229-.64544-.3266-1.29028-.46057-1.94006A2.40584,2.40584,0,0,0,52.43342,22.138a.91844.91844,0,0,1-.32971-.43848,6.68379,6.68379,0,0,1-.27326-.82055l-.00024-.001c-.00617-.02087-.01142-.03522-.01715-.05432-.01136-.0379-.02265-.07782-.03406-.10779-.00409-.01074-.01-.01526-.01434-.0249a.26667.26667,0,0,0-.04609-.07947l-.00915-.00342c-.049-.04126-.119-.04339-.24426.01288-.27521.1236-.60413.48828-.83008.23084l-.00031-.00049-.00018-.00012a2.01461,2.01461,0,0,1-.3656-.91224c-.01642-.07861-.03253-.15759-.04743-.23345-.07873-.40113-.13787-.806-.19482-1.21137-.04651-.33075-.09137-.66186-.14679-.99127a.78369.78369,0,0,0-.1344-.37067.1751.1751,0,0,0-.23169-.03314.82917.82917,0,0,0-.22906.1853.29313.29313,0,0,1-.1156.05792c-.05024.01813-.098.03968-.1521.05518a.667.667,0,0,0-.08216.025,1.37535,1.37535,0,0,1-.47619.14344c-.17566.00506-.25482-.11652-.35273-.46424a6.54731,6.54731,0,0,1-.15789-.71563,3.3452,3.3452,0,0,1-.052-.41791,8.951,8.951,0,0,0-.95166-3.39661,9.53509,9.53509,0,0,0-2.26666-2.776c-.47717-.48114-.60187-.43024-.88464.18366a.38082.38082,0,0,1-.12128.13128c-.04089.03119-.08465.0611-.12152.09418-.05334-.10193-.17023-.21906-.15-.30335.00653-.02734.00616-.04931.011-.07531a.77657.77657,0,0,0-.16571-.72565,1.71354,1.71354,0,0,0-.71936-.3739,8.422,8.422,0,0,1-.89813-.31665,1.49929,1.49929,0,0,0-1.40924.01611,5.513,5.513,0,0,1-.51172.2428,1.05,1.05,0,0,1-.36688.08081,1.41343,1.41343,0,0,1-.36493-.05188l-.03168-.00677c-.15655-.04023-.34711-.09992-.60083-.1753a2.56727,2.56727,0,0,0-.25525-.04852,2.091,2.091,0,0,0-.95862.029,1.89363,1.89363,0,0,0-.29742.0918c-.01715.00787-.03278.023-.04987.03143a2.11884,2.11884,0,0,0-.40795.257c-.01233.01007-.02247.02222-.03479.03235a3.24776,3.24776,0,0,0-.41541.38745,1.62613,1.62613,0,0,1-.7901.56885.84256.84256,0,0,1-.21558.02569.92472.92472,0,0,1-.39233-.10473c-.02045-.01-.04034-.01416-.061-.02582l-.01825-.01294a1.52535,1.52535,0,0,1-.21967-.15533c-.12488-.10633-.20007-.10816-.25922-.07856-.07739.03888-.12432.13782-.18719.19031-.45368.3786-.74744.55127-1.02521.5022-.266-.04675-.51745-.29669-.8808-.77612a.58789.58789,0,0,0-.37884-.275.27867.27867,0,0,0-.2453.08991,1.03913,1.03913,0,0,0-.17609.27215,4.18449,4.18449,0,0,1-.54687.996l-.00013.00013h0l-.0072.00665c-.319.35785-.56939.47027-.848.37366a1.22857,1.22857,0,0,1-.468-.31012A15.05349,15.05349,0,0,1,28.11726,9.3623c-.16675-.20465-.33545-.40808-.49616-.61639a1.324,1.324,0,0,0-.35931-.35583c-.14173-.08173-.28766-.0503-.48291.107-.03192.02576-.05671.03528-.092.06787a2.11187,2.11187,0,0,1-.37153.26734,1.59578,1.59578,0,0,1-1.63256-.054,4.9747,4.9747,0,0,0-1.96131-.445c-.01233-.00006-.02459.00214-.03692.0022a6.09893,6.09893,0,0,0-2.51923.60242q-.31027.142-.6142.31048a10.51706,10.51706,0,0,0-1.06695.68769,16.70734,16.70734,0,0,0-2.28235,2.03668q-.43488.45529-.85834.92554a14.39415,14.39415,0,0,0-2.48663,3.35443A22.939,22.939,0,0,0,11.622,19.542a1.0193,1.0193,0,0,0,.05377.57788c.05426.17383.1203.35205.16705.52539.00879.0326.02155.06617.02838.09827v.00018l.00006.00019a.75452.75452,0,0,1,.0127.173v.00134c-.001.05854-.0047.11768-.00336.17554l-.0003-.00018v.00018a2.85348,2.85348,0,0,1-.33759-.18756c-.00983-.00714-.0133-.02307-.02-.03461a1.04645,1.04645,0,0,1-.0523-.13708c-.04554.06433-.11927.12469-.13269.19568a14.67622,14.67622,0,0,1-.28284,1.54284c-.02747.09027-.05823.18854-.09192.28717a1.33011,1.33011,0,0,1-.48944.77179,1.23933,1.23933,0,0,0-.611.55921,1.182,1.182,0,0,0-.06971.23217c-.0111.04426-.03173.08277-.03894.1297a2.53226,2.53226,0,0,0-.02331.426c.00042.0271-.00434.05719-.0058.08557a1.16665,1.16665,0,0,1-.25928.7171,1.75511,1.75511,0,0,0-.14477.1966,2.98408,2.98408,0,0,0-.48688,1.70837c-.01666.29059-.0481.57727-.089.86163-.00189.01331-.00226.027-.00421.04035-.0044.02954-.0119.05841-.01654.08795a15.09777,15.09777,0,0,1-.6485,2.5271.4882.4882,0,0,0-.01471.13489.227.227,0,0,1-.0379.15088,2.28466,2.28466,0,0,1-.40216.26806c-.03107-.07324-.06025-.14654-.09247-.21893a1.59878,1.59878,0,0,1-.07538-.17755c-.37946-1.23407-.4693-2.52942-.7395-3.78058-.04676-.21625-.08667-.43414-.14753-.6471a3.36161,3.36161,0,0,0-2.61517-2.3457,1.93336,1.93336,0,0,0-1.95532.87348c-.09754.11718-.19434.2373-.29352.35986a.69853.69853,0,0,0-.04535.06677c-.01977.03156-.03967.063-.06225.09259l-.03077.03632c-.03338.04089-.08062.09662-.13989.16528l-.0227.02637c-.25281.29181-.65888.74786-.85047.97284l-.00311.00757c-.04462.12628-.1.25109-.15216.37207-.03613.0838-.14313.137-.22687.20025l-.02167.01544-.00006-.00006-.00049.00037c-.0501-.1048-.14184-.20874-.14416-.31464v-.00073A8.33652,8.33652,0,0,1,.9546,23.41138c.15362-.30713.31836-.60974.49981-.9043a2.34553,2.34553,0,0,1,.46906-.51892,3.41083,3.41083,0,0,1,.91138-.56336,3.092,3.092,0,0,1,.35876-.13421,2.15366,2.15366,0,0,0,.49475-.19983,2.20035,2.20035,0,0,0,.88971-1.05054,9.99534,9.99534,0,0,1,2.51862-3.22766,2.48855,2.48855,0,0,1,.36566-.243,2.19275,2.19275,0,0,1,.37463-.18109,2.27228,2.27228,0,0,1,.47418-.13892,1.75318,1.75318,0,0,0,.783-.26782,1.09517,1.09517,0,0,0,.43274-.79041,1.23425,1.23425,0,0,1,.0672-.23461c.015-.04261.02655-.08539.04547-.12757a5.48946,5.48946,0,0,1,.56641-.879,1.37536,1.37536,0,0,1,.297-.29962.81177.81177,0,0,1,.41974-.17853.87411.87411,0,0,1,.32568.0362.50191.50191,0,0,0,.223.01538c.23425-.03308.355-.25092.52051-.43738.10925-.12329.22717-.24109.34412-.35931a4.79036,4.79036,0,0,1,.69537-.60205,13.44521,13.44521,0,0,1,1.24121-.72223c.14221-.0763.28461-.15253.4256-.23047,1.51062-.83508,3.02667-1.65943,4.52923-2.51062a.674.674,0,0,0,.19385-.193c.074-.099.1416-.20807.21039-.30793a8.988,8.988,0,0,0,1.05151-1.60266,3.45985,3.45985,0,0,1,.90088-1.18262c.09009-.08764.18073-.17486.26923-.26586a3.6552,3.6552,0,0,1,1.09363-.81519,2.06638,2.06638,0,0,1,.86639-.20148.41632.41632,0,0,0,.18091-.04815,1.54516,1.54516,0,0,0,.38458-.31031c.04535-.04681.09-.094.12988-.13757a.6708.6708,0,0,0,.11444-.22717,1.85,1.85,0,0,1,.15894-.37128c.09717-.15021.18579-.28247.269-.39838.58136-.81012.89673-.81475,2.0036-.4743.40033.12311.45691-.09692.6131-.288A13.959,13.959,0,0,1,28.76954.50684c.00787-.00751.01379-.01709.02173-.02454h0l.00055-.00061a1.85447,1.85447,0,0,1,.3507-.242,1.75006,1.75006,0,0,1,1.73975.00269.27708.27708,0,0,0,.07751.01691c.0384.00641.07581.01434.1131.02417a2.0434,2.0434,0,0,1,1.22119.80871l.00678.012a2.802,2.802,0,0,1,.26349.46734c.26471.58875.47137.62458.88482.10736A1.64629,1.64629,0,0,1,35.575,1.23761a.87383.87383,0,0,1,.47314.36768,2.89817,2.89817,0,0,1,.20154.441c.0058.0138.01087.028.017.04163.09076.2041.14447.26312.27563.22784a.81338.81338,0,0,0,.13324-.05072,1.44876,1.44876,0,0,1,.19465-.06945,2.08352,2.08352,0,0,1,1.71514.44311l.00031.00037h0c.1.061.131.23321.166.40033a1.58554,1.58554,0,0,0,.05.19354c.02576.0733.05609.14557.08533.21814a3.11507,3.11507,0,0,1,.19458.58606.337.337,0,0,0,.10541.22473.14626.14626,0,0,0,.13385.022.78457.78457,0,0,0,.15881-.06848,2.35274,2.35274,0,0,1,.2948-.13153c.79987-.30121,1.4599.00842,1.95868.89026.059.10437.12579.20606.18787.30994a6.86815,6.86815,0,0,0,.43042.63165,4.19361,4.19361,0,0,0,.26794.34259,3.73161,3.73161,0,0,1,.71552,1.186c.04467.10877.08831.218.12982.32856a2.31112,2.31112,0,0,0,.805,1.04144,2.80888,2.80888,0,0,0,.34107.20782,3.90469,3.90469,0,0,1,.741.49738,2.06961,2.06961,0,0,1,.26844.24084,3.17971,3.17971,0,0,0,1.74517.98768c.57337.15435,1.15107.292,1.72406.44506a14.71992,14.71992,0,0,1,1.51276.48829c.20337.07855.40808.15234.60693.24633.56226.26569,1.20856.41767,1.11615,1.27344-.014.12915.20124.37714.34839.41272.2702.06531.5437.12177.81885.16827s.55218.08289.82959.10834a1.75894,1.75894,0,0,1,1.11316.46942,1.90288,1.90288,0,0,1,.50659.94409.81387.81387,0,0,0,.28241.39356.61385.61385,0,0,0,.19019.111,2.31061,2.31061,0,0,1,.92.56916,7.715,7.715,0,0,1,.764.90985.95435.95435,0,0,1,.1062.18884.71434.71434,0,0,1,.06219.53314l-.00006.00018-.00006.00025a.74716.74716,0,0,0-.08484.61938c.10083.2649.40058.4184.66272.56244a4.56333,4.56333,0,0,1,1.79346,2.087,3.5833,3.5833,0,0,1,.38952,1.51245C61.02814,22.80341,61.02582,22.81573,61.02631,22.82794Z" style="fill:#fff"/><path id="fill2" d="M60.87934,24.32953c-.04423.21585-.22384.34721-.02546.59114.04288.0523-.16353.41692-.323.48931-.15012.067-.43161.12461-.48254-.29361-.04425-.35382-.42223-.66078-.49328-1.02141-.185-.9396-.79085-1.083-1.59912-1.02671-.75195.05092-1.13264.449-1.5723,1.23589a5.77839,5.77839,0,0,0-.48655,2.69954c-.03753.7185-.04693,1.43695-.0858,2.15408-.02144.3726-.51738.85785-.83508.76936a.65662.65662,0,0,1-.3887-.47582A33.41635,33.41635,0,0,0,53.495,23.87381a2.40593,2.40593,0,0,0-1.06161-1.7358c-.33644-.193-.46914-.80961-.60319-1.26-.07372-.2493-.10187-.37529-.36458-.25735-.27614.1233-.60453.4893-.831.23058a2.497,2.497,0,0,1-.41286-1.14609c-.14341-.7278-.21847-1.46909-.34181-2.20226-.06434-.38739-.20507-.638-.59513-.21847-.07774.08175-.23457.08712-.34985.138-.59649.25872-.6702.24262-.82838-.32038a4.85872,4.85872,0,0,1-.21044-1.134,8.95007,8.95007,0,0,0-.95168-3.39658,9.53449,9.53449,0,0,0-2.26664-2.776c-.47718-.48118-.60185-.43026-.88467.18366-.0429.09248-.1595.15145-.24262.22514-.05361-.10184-.17024-.21847-.15011-.3029.17959-.75332-.30159-.99189-.874-1.17554a8.30065,8.30065,0,0,1-.89809-.31632,1.50128,1.50128,0,0,0-1.41009.016c-.8552.44237-.86057.39145-1.87525.08986A2.04962,2.04962,0,0,0,36.374,8.876a3.51916,3.51916,0,0,0-.45037.41953c-.48926.57505-1.05224.84444-1.697.29623-.28819-.24531-.3351.01878-.44635.11126-.88871.74122-1.16348.7064-1.90606-.27344-.31635-.41954-.5737-.386-.80024.08711a4.18587,4.18587,0,0,1-.54688.99595c-.48791.55089-.80693.58034-1.323.0697a17.99261,17.99261,0,0,1-1.583-1.83639c-.36058-.47045-.51874-.5643-.93427-.181a1.55579,1.55579,0,0,1-2.00392.21317,5.49058,5.49058,0,0,0-5.13242.47046,16.73939,16.73939,0,0,0-4.20755,3.64993,14.42458,14.42458,0,0,0-2.48647,3.35371,22.96035,22.96035,0,0,0-1.23451,3.28937c-.10321.34446.16353.7962.24932,1.20231a1.89493,1.89493,0,0,1,.00937.3499,2.94376,2.94376,0,0,1-.33777-.18765c-.04288-.03082-.04959-.11263-.07239-.17161-.04557.06434-.11929.12469-.1327.1957a14.68131,14.68131,0,0,1-.28282,1.54285c-.118.38733-.28282.91145-.58175,1.05891a1.24879,1.24879,0,0,0-.74258,1.34708,1.21922,1.21922,0,0,1-.26539.80294,2.71863,2.71863,0,0,0-.63135,1.90472,13.24264,13.24264,0,0,1-.75866,3.5172c-.03083.09117.004.22921-.05228.28556a2.28477,2.28477,0,0,1-.40212.26808,4.08309,4.08309,0,0,1-.16755-.39676c-.445-1.44768-.47451-2.98241-.88735-4.42741a3.36176,3.36176,0,0,0-2.61514-2.34572c-1.189-.17691-1.67015.51876-2.24922,1.23321-.04022.04954-.06836.10858-.10724.1595-.1327.16886-.78279.89273-1.04282,1.19832a1.21488,1.21488,0,0,0,.07505-.34316l.004-.06833c-.13539.21311-.2225.40749-.16219.512.01875-.02415.04691-.05766.08311-.10053-.04423.13005-.10322.25735-.15684.382-.03887.0911-.16352.14477-.248.21579-.05094-.10453-.14207-.20774-.14476-.315a8.82263,8.82263,0,0,1,1.453-4.85493,3.15277,3.15277,0,0,1,1.73851-1.2158,2.04478,2.04478,0,0,0,1.38464-1.25061,9.99473,9.99473,0,0,1,2.51863-3.22765,2.25345,2.25345,0,0,1,1.21442-.563c.575-.08175,1.10853-.28013,1.21575-1.0576a3.14983,3.14983,0,0,1,.67958-1.24119.91081.91081,0,0,1,1.0415-.44231c.40078.11794.53214-.18365.74394-.42228a5.79011,5.79011,0,0,1,1.04016-.96107c.52677-.35919,1.10583-.64337,1.66612-.953,1.51064-.83507,3.02665-1.65941,4.52925-2.51059a1.54969,1.54969,0,0,0,.4048-.50134,8.95452,8.95452,0,0,0,1.05088-1.60175,4.5795,4.5795,0,0,1,1.17019-1.449,2.68054,2.68054,0,0,1,1.95967-1.016c.23591-.0013.50265-.28686.69568-.496.14073-.15414.15549-.41685.27343-.59913.7761-1.19969,1.008-1.26135,2.272-.87264.40078.12337.45708-.09647.6139-.28818A13.24482,13.24482,0,0,1,28.79127.48234a1.72571,1.72571,0,0,1,2.091-.23994A1.06425,1.06425,0,0,0,31.07263.284a2.095,2.095,0,0,1,1.49188,1.28811c.26406.58846.47183.62466.88468.10728a1.64506,1.64506,0,0,1,2.12588-.441c.49193.17691.55092.5321.69165.8498.11662.26271.16755.28955.40883.17691a1.929,1.929,0,0,1,1.91009.374c.14073.0858.14476.39139.2158.59382a5.5057,5.5057,0,0,1,.28014.80425c.05631.30558.16489.30427.39812.17828a1.515,1.515,0,0,1,2.25322.75863,6.62727,6.62727,0,0,0,.886,1.28412,4.31327,4.31327,0,0,1,.84581,1.51471,2.22259,2.22259,0,0,0,1.146,1.24924,3.16576,3.16576,0,0,1,1.00933.7386,3.18673,3.18673,0,0,0,1.74522.98783,22.30616,22.30616,0,0,1,3.8443,1.1796c.56162.2654,1.2077.41685,1.11521,1.27339-.0134.12867.20107.3766.34851.41286a11.599,11.599,0,0,0,1.64871.27606,1.667,1.667,0,0,1,1.61921,1.41417.823.823,0,0,0,.47315.504A3.54708,3.54708,0,0,1,58.098,17.28708a.86765.86765,0,0,1,.1689.72243c-.35788.697.15816.9517.57772,1.18228a4.56331,4.56331,0,0,1,1.79346,2.087A4.4845,4.4845,0,0,1,60.87934,24.32953Z" style="fill:#bababa"/><path id="fill1" d="M3.496,23.0775c.10054-.17574.24569-.49278.40529-.50025,1.087-.05076,1.73363-.94724,2.6534-1.31968a2.68686,2.68686,0,0,1,3.487,1.21873,1.48085,1.48085,0,0,0,.12142.25673.96293.96293,0,0,0,.20808.15621.59213.59213,0,0,0,.07009-.17541,4.01251,4.01251,0,0,1,.5034-2.37905,4.52624,4.52624,0,0,0-.85557-.88944A2.74921,2.74921,0,0,0,8.96357,19.183c-.57811-.0554-1.16216-.04641-1.7428-.08a1.04426,1.04426,0,0,1-.31308-.12986,2.96945,2.96945,0,0,1,.3562-.12973,5.13481,5.13481,0,0,1,3.21574.23551c.56763.24568.62293.04485.72778-.34942.02574-.09677-.028-.23179.02157-.30216.22283-.31621.37518-.67325.12627-.99322-.21231-.27294-.5478-.618-.83325-.62214-.33028-.00476-.56431-.53053-.98757-.12236-.18583.1792-.627.08057-.94751.13571a3.65875,3.65875,0,0,0-2.07381,1.62481c-.65493.78518-1.14192,1.709-1.78031,2.51a2.59577,2.59577,0,0,1-1.18467.85884A2.78169,2.78169,0,0,0,1.7665,23.28744,7.913,7.913,0,0,0,.62615,26.73578a2.18494,2.18494,0,0,1-.23095.72511c-.03918.09092-.1635.14513-.24907.216C.096,27.57207.0043,27.46817.00194,27.36225a8.82926,8.82926,0,0,1,1.45245-4.85514,3.15643,3.15643,0,0,1,1.73922-1.2165,2.04566,2.04566,0,0,0,1.38482-1.24977,9.98781,9.98781,0,0,1,2.51883-3.2282,2.23758,2.23758,0,0,1,1.21418-.56242c.57435-.08238,1.10777-.28054,1.21548-1.05885a3.16,3.16,0,0,1,.67907-1.24122.91393.91393,0,0,1,1.0424-.442c.40054.11846.53184-.18295.74329-.4215a5.81211,5.81211,0,0,1,1.03971-.96184c.52686-.35947,1.10629-.64258,1.66654-.95234,1.51071-.8353,3.02723-1.66024,4.52945-2.51048a1.55367,1.55367,0,0,0,.40426-.50139A8.987,8.987,0,0,0,20.68315,6.558a4.55791,4.55791,0,0,1,1.17027-1.44786A2.68158,2.68158,0,0,1,23.8133,4.09278c.23573-.00051.503-.286.6954-.496.14094-.15382.15546-.416.27389-.59906.776-1.19955,1.00711-1.2612,2.27206-.87212.40032.12312.45691-.0969.6131-.288A13.22927,13.22927,0,0,1,28.79184.4817a1.7262,1.7262,0,0,1,2.091-.23886,1.00016,1.00016,0,0,0,.19009.04065,2.09562,2.09562,0,0,1,1.49146,1.28805c.26468.58878.47133.62457.8848.10737A1.64615,1.64615,0,0,1,35.575,1.23765c.49242.17749.55058.53307.69167.85023.11691.26278.16781.28964.40889.17728a1.92745,1.92745,0,0,1,1.90976.37352c.14059.08628.1451.39129.2164.59425a5.54791,5.54791,0,0,1,.27975.80481c.05589.30444.16561.30354.39825.17785a1.51455,1.51455,0,0,1,2.25347.75853,6.57629,6.57629,0,0,0,.88622,1.28417,4.29566,4.29566,0,0,1,.845,1.51444,2.22942,2.22942,0,0,0,1.14632,1.25,3.17137,3.17137,0,0,1,1.00948.73757,3.17973,3.17973,0,0,0,1.74519.9877,22.41335,22.41335,0,0,1,3.84375,1.17968c.56221.26569,1.20854.41769,1.11612,1.27344-.01395.12912.20123.37712.34842.4127a11.57665,11.57665,0,0,0,1.64792.277,1.6679,1.6679,0,0,1,1.62025,1.4131.826.826,0,0,0,.472.50518,3.5404,3.5404,0,0,1,1.68461,1.47837.86989.86989,0,0,1,.16825.72246c-.35724.69705.15837.95153.57815,1.1823a4.554,4.554,0,0,1,1.79257,2.08717,4.47612,4.47612,0,0,1,.24183,3.04974c-.04352.21652-.2234.34687-.02517.59157.04218.052-.16435.41644-.32353.48854-.14945.06771-.43154.12508-.48267-.29256-.04339-.35471-.42186-.66162-.49271-1.02109-.18531-.94-.791-1.08362-1.59965-1.028-.752.05169-1.13288.44974-1.57193,1.236a5.77789,5.77789,0,0,0-.486,2.70052c-.03765.71754-.04729,1.43658-.087,2.154-.0206.37213-.51671.85752-.83463.76938a.65918.65918,0,0,1-.38868-.47579,33.46684,33.46684,0,0,0-1.09175-5.5776,2.4095,2.4095,0,0,0-1.062-1.73657c-.33653-.19306-.46986-.80871-.60349-1.26-.07383-.24924-.1019-.37473-.36494-.25658-.27518.1236-.60415.48828-.83008.23082a2.5028,2.5028,0,0,1-.41352-1.14626c-.143-.72838-.21888-1.46965-.34112-2.20246-.06458-.38725-.20526-.6377-.59609-.21918-.07718.08263-.23354.08808-.34938.13835-.59662.25882-.67018.24334-.82893-.32061a4.84838,4.84838,0,0,1-.20962-1.1336,8.95906,8.95906,0,0,0-.95207-3.39688A9.529,9.529,0,0,0,44.67759,9.795c-.47631-.48064-.60184-.43018-.885.18473-.04261.0925-.15968.15073-.2423.22482-.0533-.1019-.17018-.219-.15-.30333.18031-.75295-.30117-.99119-.87412-1.17486a8.40743,8.40743,0,0,1-.89808-.31667,1.49955,1.49955,0,0,0-1.40926.01613c-.85632.44193-.86155.39111-1.87606.08968a2.04873,2.04873,0,0,0-1.96922.3608,3.449,3.449,0,0,0-.45007.41973c-.48864.57387-1.0526.84444-1.69693.29536-.28784-.24526-.33541.01943-.4464.11206-.88819.74125-1.16387.7056-1.90542-.27448-.317-.419-.57442-.385-.80085.08742a4.20318,4.20318,0,0,1-.547.99635c-.488.55018-.80679.58-1.32324.07019A17.84011,17.84011,0,0,1,27.6215,8.74539c-.36119-.46983-.51892-.56326-.935-.1803a1.55544,1.55544,0,0,1-2.00376.21324,5.48836,5.48836,0,0,0-5.13167.47012,16.71621,16.71621,0,0,0-4.20761,3.64988,14.395,14.395,0,0,0-2.48663,3.35442A22.93539,22.93539,0,0,0,11.622,19.542c-.10275.34452.16329.79642.2492,1.20154a1.86128,1.86128,0,0,1,.00909.35026,2.85907,2.85907,0,0,1-.33754-.18752c-.04307-.03132-.04931-.11323-.0723-.17215-.04573.065-.11942.12475-.13271.19582a14.63088,14.63088,0,0,1-.28343,1.54324c-.11676.38673-.28165.91193-.58071,1.05886a1.24893,1.24893,0,0,0-.74315,1.347,1.21471,1.21471,0,0,1-.26494.80268,2.71871,2.71871,0,0,0-.632,1.90439,13.22058,13.22058,0,0,1-.758,3.51763c-.03126.092.00345.22929-.05264.28522a2.28551,2.28551,0,0,1-.40186.268,4.00711,4.00711,0,0,1-.16812-.39585c-.44507-1.44736-.4744-2.98315-.88684-4.42759A3.36167,3.36167,0,0,0,3.95124,24.4876c-1.18966-.17731-1.671.51854-2.24933,1.2335-.04011.0496-.06864.10845-.10793.1588-.15118.19381-.9726,1.1067-1.12514,1.29943-.16014-.27856.71344-1.181.79678-1.42665.49659-1.46322.87142-1.91688,2.16019-1.94536a3.48821,3.48821,0,0,1,3.39262,2.35686,9.87871,9.87871,0,0,1,.67929,3.99923c-.00817.08038.06109.16864.09429.25323a1.39516,1.39516,0,0,0,.22149-.21234.52028.52028,0,0,0,.09434-.26707,17.74,17.74,0,0,1,.53339-3.40708,2.59762,2.59762,0,0,0-1.14661-2.59868,4.026,4.026,0,0,0-2.5683-1.25535c-.50224-.00554-.7524.38967-1.23031.40138M15.91128,11.21756a.388.388,0,0,1-.2129.19743c-.78767.40045-1.57858.79472-2.36,1.20694a1.47443,1.47443,0,0,0-.37386.34257c-.1633.18313-.20082.34608.1137.40785.12443.02444.24573.065.36845.09827-.11753.10393-.25708.31347-.349.29432-.517-.10775-.79965.21732-1.13188.50239a.84154.84154,0,0,1-.5933.16933c-.15383-.04117-.11509-.37754-.43426-.213a1.2096,1.2096,0,0,0-.63609.84752c-.12978.43957-.46278.88933.04934,1.22431a5.41728,5.41728,0,0,0,1.32352.50269c.04914.01578.17991-.12849.22927-.22162a13.54748,13.54748,0,0,1,2.39638-3.473c.31324-.30556.65719-.58058.95985-.89572.22028-.22934.615-.35369.643-.78516a.3882.3882,0,0,1,.21291-.19744l.02219-.18958a.41786.41786,0,0,1-.22737.18184m35.6423,8.32907c.76089.183.81081.25391.88626,1.15351a1.1455,1.1455,0,0,0,.13579.32327c.0885-.06761.18147-.13011.26473-.20364a3.87265,3.87265,0,0,1,2.456-1.12351,5.50306,5.50306,0,0,1,2.86677,1.01066c.08034.046.10442.19028.15462.28892-.09255-.002-.21523.03424-.27312-.01155a4.67585,4.67585,0,0,0-3.12311-.685,2.112,2.112,0,0,0-1.6334.90819c-.20638.27851.04812.93336.42123,1.3046a.43469.43469,0,0,1,.06911.0755c.34086.56028.32608.5512.65523.035A2.483,2.483,0,0,1,57.84524,21.426a1.7829,1.7829,0,0,0,.72451.21776.87448.87448,0,0,1,1.09021.87938,6.74368,6.74368,0,0,0-2.79645-.72241c-.38378.04177-.77128-.14016-1.14613.19767a2.78012,2.78012,0,0,0-1.10162,1.67862,26.93853,26.93853,0,0,0,.06015,3.40375c.00308.07157.23494.14238.36886.18936.0197.0069.13738-.134.1245-.185a5.23421,5.23421,0,0,1,.41785-2.95541A2.386,2.386,0,0,1,57.166,22.503a3.10244,3.10244,0,0,1,2.39411.559c.24513.14162.46524.32647.69681.49158.03891-.29492.08954-.58894.112-.88511a1.02155,1.02155,0,0,0-.04459-.486c-.64238-1.37949-1.47936-2.57729-3.12515-2.81694-.49377-.07191-.50126-.32058-.31373-.58144.30511-.42448.11328-.54385-.22625-.80941a3.27518,3.27518,0,0,0-3.49217-.13287,4.44791,4.44791,0,0,0-1.81857,1.697l-.31671.22591.17186.17954a1.18116,1.18116,0,0,1,.35-.39773M26.305,2.56886c-.61577.05014-.72456.63622-.93507,1.01622-.33705.60844-.5125,1.255-1.42285,1.19006a1.3915,1.3915,0,0,0-.97292.32208c-.65479.64609-1.58953,1.044-1.88168,2.031-.03414.11532-.17622.19424-.24194.30557-.14473.24524-.27268.50039-.40747.75151.23668-.0816.47105-.1712.71119-.24077.09314-.027.20519.012.29868-.01434.64361-.18115.64072-.19039.49959-.87973a1.607,1.607,0,0,1-.00322-.50213c.0097-.08233.08556-.15684.13149-.23488.0915.06645.23777.11582.26478.20238.104.33366.16041.6818.25414,1.01911a2.89946,2.89946,0,0,0,.19728.43208,4.08134,4.08134,0,0,1,.37695-.31163c.21729-.14151.06408-.22477-.00456-.372a4.86155,4.86155,0,0,1-.32738-.98848,1.89376,1.89376,0,0,1,.04037-.552,2.1162,2.1162,0,0,1,.30506.36261A6.65458,6.65458,0,0,1,23.75,7.31071c.17039.59981.62256.68417,1.11307.74933.30407.04039.23908-.00612.164-.28933a6.40746,6.40746,0,0,0-.89126-2.00035c-.05962-.08764-.0376-.23084-.05338-.34832.13969.03757.35647.03134.40669.11975.36162.63666.70564,1.28482,1.01971,1.94622a4.18615,4.18615,0,0,1,.2061.8116c.21817-.21415.43264-.43229.65677-.64006a1.16963,1.16963,0,0,1,.24745-.14734c.7655-.41252.77837-.4186.40426-1.16933a4.3597,4.3597,0,0,0-.54857-.80661c-.26035-.31647-.56246-.59836-.8272-.91153a1.01054,1.01054,0,0,1-.11455-.35c.14046.01705.33039-.018.41272.06026.34221.32525.62935.70956.97838,1.02626a5.02906,5.02906,0,0,1,1.26972,2.35887,8.34266,8.34266,0,0,0,1.46738,2.289c.14973.22292.36078.12855.37454-.16648.02862-.61508.04162-1.23092.07252-1.84587a8.13611,8.13611,0,0,0-.70792-3.58067c-.23235-.555-.49844-1.09592-.73258-1.65025-.02928-.06936.04376-.18195.06942-.27451.0707.05111.167.08684.20832.1556a9.41689,9.41689,0,0,1,1.57857,5.17781,5.11083,5.11083,0,0,0-.012.71623c.00654.058.19661.09529.30231.1421.15416-.55921.84752-.77016.79172-1.53006a42.78271,42.78271,0,0,1-.04351-4.535,1.6201,1.6201,0,0,0-.57759-1.4142c-1.072-.93124-1.51749-.65971-2.07414.33052-.06261.11139-.15306.20735-.21348.31968a11.688,11.688,0,0,1-1.04306,1.052c-.49412.32135-.85686-.03168-1.3494-.33719m6.88308,2.725a.97353.97353,0,0,0,.10871-.261A6.58116,6.58116,0,0,1,34.31,2.68641c.05861-.11229.274-.14276.41685-.21106a1.894,1.894,0,0,1-.11434.37309,8.28454,8.28454,0,0,0-1.19822,4.34839c.00823.20946-.18206.42632-.17517.6363a5.34464,5.34464,0,0,0,.18043.913c.19483-.18948.40221-.36806.57954-.57267a.85866.85866,0,0,0,.21862-.41567A14.73687,14.73687,0,0,1,35.467,3.9568a1.04518,1.04518,0,0,0,.04457-.80863,1.9162,1.9162,0,0,1-.27748-.81629c-.09029-.61638-.56919-.76795-1.01419-.36919a8.30319,8.30319,0,0,1-.91167.81986c-.22563.148-.69109.305-.7972.20093-.81566-.79985-.53457.06724-.57824.36856a2.43027,2.43027,0,0,0-.02819.91654,4.51958,4.51958,0,0,1,.0976,2.41606c-.293,1.02055.3857,1.806.628,2.69629.0217.07973.13349.13495.20344.20154a.75868.75868,0,0,0,.09475-.2661c-.03516-.62294-.14084-1.24742-.11484-1.86682A10.44451,10.44451,0,0,1,33.188,5.29384m5.20484.91529a2.61522,2.61522,0,0,0-.37212.556,11.07251,11.07251,0,0,0-.274,1.09585c.27038-.0349.58454-.1737.80163-.08219.40193.16945.51181.09286.63615-.30938a2.36266,2.36266,0,0,1,.59706-1.18738.82126.82126,0,0,1,1.126-.135,1.50516,1.50516,0,0,1,.13993.149c-.079.03562-.15984.10512-.23673.101-.34643-.01841-.65891-.03043-.80391.39628-.11073.32594-.30456.62288-.43091.9447a1.0683,1.0683,0,0,0,.0068.39468,1.33586,1.33586,0,0,0,.3639-.207.80193.80193,0,0,1,.8027-.29311c.44556.08817.89063.18107,1.33911.2514a2.53289,2.53289,0,0,0,.49489-.0171c-.07485-.12347-.143-.25163-.22582-.3695-.2254-.32087-.44229-.64936-.68941-.95294-.41029-.504-.96262-.89534-.9925-1.6585-.00917-.23445-.25528-.489-.6719-.203a3.645,3.645,0,0,0-1.6109,1.526M56.46406,17.36886c.16112.10257.31565.21825.48533.30384a4.399,4.399,0,0,0,.48632.18106c-.01615-.18565.02971-.41377-.062-.54774-.16748-.24467-.3893-.57209-.63626-.62036a8.13919,8.13919,0,0,1-2.18976-.91606,1.62288,1.62288,0,0,0-1.01176-.21192,3.73186,3.73186,0,0,0-2.43036,1.82886,4.16032,4.16032,0,0,1-.30906.48216c-.34018.43472-.01738.73076.2724.90986.29942.18506.31446-.18225.45024-.36687a4.33306,4.33306,0,0,1,4.94488-1.04283M35.3385,5.47762c-.23546.79568-.47746,1.58953-.70082,2.3886a.81141.81141,0,0,0-.01113.50478,1.00407,1.00407,0,0,0,.41073.47192c.29227.14574.38658-.11546.45055-.338.14147-.49222.249-.99545.41369-1.47948.36287-1.06662.69453-2.16519,1.93048-2.59053.09209-.0317.23034-.183.21354-.23758a3.42881,3.42881,0,0,0-.52449-1.377c-.292-.2981-.73082.1-1.03648.34418a1.67841,1.67841,0,0,0-.45452.545,12.48084,12.48084,0,0,0-.69155,1.76805M9.2321,22.16363a2.79124,2.79124,0,0,0-3.48123-.13023,1.234,1.234,0,0,0-.22388.3091c.12255.06967.24177.14613.36829.20766a6.90091,6.90091,0,0,1,.93185.451c.50373.34871.94558.79065,1.46213,1.11609.57145.36.61379.2705.92186-.32828a1.93176,1.93176,0,0,0,.021-1.62534m45.78982-7.41742a2.69034,2.69034,0,0,0-2.23839-.21882,16.87439,16.87439,0,0,0-2.36473.67119,5.86328,5.86328,0,0,0-1.06364.659c-.11626.084-.161.267-.2384.4048a2.02283,2.02283,0,0,0,.44616.1212c.34693.0144.679.0121.7615.4636a2.08728,2.08728,0,0,0,.16037.39906,2.04956,2.04956,0,0,0,.33543-.39385,3.6943,3.6943,0,0,1,1.768-1.44535,1.77277,1.77277,0,0,1,2.16584.10209c.22043.1711.36381.02827.353-.24763a1.28042,1.28042,0,0,0-.0851-.51528m-6.31576,1.303a2.60183,2.60183,0,0,1,2.25891-1.465,4.85254,4.85254,0,0,0,1.04325-.16441c.09657-.02087.17369-.13178.25973-.20138-.05559-.06622-.1006-.17169-.1691-.19018a1.76711,1.76711,0,0,0-.40577-.02365c-.3594-.00988-.65666-.04226-.27736-.48878.03926-.04625-.07229-.32792-.13074-.33384a3.36766,3.36766,0,0,0-2.6095.53151c-.13973.11273-.333.38067-.28869.46485a4.86169,4.86169,0,0,1,.31927,1.87085m1.87156-3.31962.40929.01542c-.04708-.12229-.05948-.30187-.1481-.35547a2.43032,2.43032,0,0,0-.69807-.28694c-.7873-.18237-1.5811-.33648-2.37086-.50851-.169-.03679-.33148-.10315-.497-.15587.06567.16744.12335.33859.19916.50132.08049.17287.18208.33578.26756.50648.35152.702.37426.69167,1.10581.51432a12.62167,12.62167,0,0,1,1.73219-.23075M36.287,7.568l.05127.48228c.14171-.044.323-.04753.41748-.1399a1.65182,1.65182,0,0,0,.61464-.85975,6.08733,6.08733,0,0,1,.76426-1.39942c.11841-.21686.34311-.55434.26766-.66455-.21793-.31819-.51254-.03642-.76738.06653a.71533.71533,0,0,0-.3255.191A4.40071,4.40071,0,0,0,36.287,7.568Z"/></g></g></svg>