<svg xmlns="http://www.w3.org/2000/svg" width="54.98159" height="41.41145" viewBox="0 0 54.98159 41.41145"><title>groom-hair-7-funny</title><g id="Layer_2" data-name="Layer 2"><g id="groom-hair-7-funny"><path id="void" d="M54.35384,17.87615a9.41254,9.41254,0,0,0-2.85285-4.866,7.26542,7.26542,0,0,0-3.9046-1.72852,5.04751,5.04751,0,0,0-3.38251.9823c-.134.08527-.27746.15558-.41656.23279a1.83342,1.83342,0,0,1-.11664-.45117,6.70935,6.70935,0,0,0-.60736-2.9336,2.26058,2.26058,0,0,1-.21149-.83288c-.07446-1.483-1.04852-2.49347-1.92529-3.50623A10.25368,10.25368,0,0,0,38.723,2.95617a9.90285,9.90285,0,0,0-2.73712-1.56726C34.797,1.069,33.66066.55877,32.48372.18774a3.49615,3.49615,0,0,0-2.02808-.0556,1.17732,1.17732,0,0,0-1.09491.42364c-.31628.208-.29345.47174-.23181.76679a2.18641,2.18641,0,0,0,.30762.59753,1.83325,1.83325,0,0,0-1.11993.10242,2.92539,2.92539,0,0,0-.36622.01123c-.10186.01117-.26171.09753-.27923.17566-.11884.53057-.52771.4096-.88593.435a6.53388,6.53388,0,0,0-2.28112.191,2.55879,2.55879,0,0,1-2.31708.26667c-.26081-.12757-.78125.07281-1.08307.27313a10.34675,10.34675,0,0,0-1.92383,1.52789.84665.84665,0,0,1-1.27893.16577A2.30346,2.30346,0,0,0,16.305,4.69726c-.17523.00391-.97736.8186-.95783.99365a.39358.39358,0,0,0,.38569.38758c-.05616.09277-.11329.18689-.18036.27655-.24176.32312-.73847.369-1.10291.51788a1.85976,1.85976,0,0,0-.20325.1051,2.0447,2.0447,0,0,0-1.37194.91663.79834.79834,0,0,1-.91486.50274c-.30353-.03668-.62164.03345-.92169-.01538a2.56794,2.56794,0,0,0-1.63367.525c-.15686.082-.22949.32519-.3407.49457a4.69762,4.69762,0,0,0,.47773.19763c-.03895.0636-.07471.12713-.12146.19055a1.37816,1.37816,0,0,0-.0976.10968c-.03284.04266-.064.086-.09521.12927l-.00507.00507a2.454,2.454,0,0,0-.88287.22034c-.77759.35577-1.50367.788-2.33081,1.075-.58179.20184-.993.90747-1.463,1.40454a.34129.34129,0,0,0-.00824.3338,1.0382,1.0382,0,0,0,.285.20685,2.03562,2.03562,0,0,0-.357.75647l-.0462.07318c-.0791.12488-.16065.26684-.23987.414-.32019.199-.6861.5307-.69959.81232-.02722.56823-.42559.69708-.73718.80444-.9154.31531-1.40362,1.10529-2.06634,1.69867-.07233.06482-.05786.22662-.08368.34344.08087.01453.16791.04157.24847.05561A3.43665,3.43665,0,0,0,.382,19.28564c-.08338.07129-.175.12689-.25574.20312a.65271.65271,0,0,0-.10346.56208c.07044.21789.20221.20031.33387.13763a.70451.70451,0,0,0,.46807.36273c.005.01392.0094.0282.01484.04187-.0307.05872-.05872.1167-.083.17273a3.73713,3.73713,0,0,0-.26319,1.94.984.984,0,0,0,.012,1.03344c-.46619.87281.48382,1.58344.2865,2.43115-.01227.0528.12182.17994.20886.20875.39447.13049.511.31011.27948.71643a1.79446,1.79446,0,0,0-.09869.77508c-.00031.00781.00763.01868.00891.02747-.00965.079-.02179.15735-.02765.23712-.01978.07129-.03858.14239-.0553.21283A6.1443,6.1443,0,0,0,.914,30.29925a1.84217,1.84217,0,0,0-.06269,1.30023,4.91064,4.91064,0,0,1-.00512,1.24,4.05876,4.05876,0,0,0-.07544.47711c.02868.33442.20764.69733.12286.99006a1.56749,1.56749,0,0,0,.0459,1.16418c.127.29993-.02881.7149-.04,1.07916a6.807,6.807,0,0,0,.217,1.55445,2.75218,2.75218,0,0,0,.19409.85723l.02942.06806a5.23244,5.23244,0,0,0,1.25855,2.08234,2.10093,2.10093,0,0,0,.56134.29937c.09094-.20184.29675-.43384.25305-.6004-.04737-.18036-.087-.35925-.11713-.53748l.00519-.00891A2.12168,2.12168,0,0,0,3.27,39.21484a2.75565,2.75565,0,0,1,.15063-.60455c.04669-.12293-.05048-.31116-.10541-.46021a4.75166,4.75166,0,0,1-.264-2.54181c.15564-.79877.28107-1.5968.38337-2.40179a8.697,8.697,0,0,1,.21411-1.34931,10.71264,10.71264,0,0,1,.766-2.14264c.69434-1.26934,1.94012-2.08673,2.82165-3.22241a29.61331,29.61331,0,0,1,2.34375-2.39233,1.46553,1.46553,0,0,0,.20734-.40674c.29907-.2511.5838-.51862.86334-.75726a1.87817,1.87817,0,0,0,.65766-.91541c.0119-.02045.0235-.04169.0346-.06366l.00226-.003-.00049-.00031a1.34034,1.34034,0,0,0,.0719-.16888c.0044-.01276.0019-.02331.00556-.03589a2.04084,2.04084,0,0,0,.7608.22016c.026.00213.04529.05072.0733.069.64209.42.62592.40283,1.14124-.0929a.96972.96972,0,0,0,.18841-1.21765c.012-.0235.03187-.04163.04169-.06628a.51668.51668,0,0,1,.176-.14393,1.30077,1.30077,0,0,0,.13263-.01068,1.73833,1.73833,0,0,0,.29785.09442,3.10416,3.10416,0,0,1,.14612.42835c.09741.42767.65777.75561,1.02185,1.11505.26056.2572.58239.46594.84765.69922.31061.27313.58716.79236,1.20716.763.649-.03082,1.41784-.42914,1.93005.38.03918.06183.261.00556.39777.00873.20251.00458.454-.06231.59948.03223,1.03827.67474,2.04914.30792,3.06183-.03919.11957-.041.28229-.16033.29352-.25842a.39581.39581,0,0,0-.13373-.26434,1.21289,1.21289,0,0,0,.69037-.11926,4.69984,4.69984,0,0,1,.51868-.1944,10.8804,10.8804,0,0,0,2.13586,1.002,2.20765,2.20765,0,0,0,1.73908-.145,2.20611,2.20611,0,0,1,1.37628-.43115.69084.69084,0,0,0,.43774-.09216.82266.82266,0,0,0,.44184-.30768,2.47647,2.47647,0,0,1,.71356.1983,2.16119,2.16119,0,0,0,.93231.17182c.17865-.04254.279-.432.4057-.6706a.8146.8146,0,0,1,.88922-.542,14.71609,14.71609,0,0,0,2.05109.00739,1.49856,1.49856,0,0,0,.82733-.21094,3.08,3.08,0,0,1,2.01526-.60565,1.9934,1.9934,0,0,0,.57379-.099c.08343-.026.14026-.13727.20911-.20984a2.32131,2.32131,0,0,0-.26844-.09424c-.065-.01489-.13983.01093-.20379-.00592-.11115-.02924-.21723-.07739-.32544-.11761.07257-.07264.13232-.17432.21991-.213.4627-.204.9259-.412,1.40509-.56952a.53611.53611,0,0,1,.39111.20966c-.15643.90607.52857,1.40918.99994,1.95032a23.2062,23.2062,0,0,0,4.04657,3.0794,9.71778,9.71778,0,0,1,1.932,1.84784,14.0749,14.0749,0,0,1,1.9403,3.08966c.377.91211,1.05274,1.86976.56067,2.99884a.56568.56568,0,0,0,.17371.51905c.51965.31793.42511.80377.42609,1.27209.0014.68439-.00641,1.3689.00756,2.053a.3785.3785,0,0,0,.1604.29474c.10889.04266.34546.02722.37409-.03442.30652-.65918,1.0216-1.09223.915-1.99183a4.53755,4.53755,0,0,1-.02655-.60577,3.42315,3.42315,0,0,0,.15289-.99213c-.00079-.05688.0033-.11218.00324-.1687a8.88813,8.88813,0,0,1,.77691-1.95453c.01807-.0346.03327-.07116.05115-.10595a1.76155,1.76155,0,0,0,.18463-.38269,7.86124,7.86124,0,0,0,.46643-1.16852c.19788-.67835.27167-1.39185.43073-2.08283a9.40907,9.40907,0,0,0,.38873-1.37219c.11023-1.61133.13959-3.228.22559-4.84118A12.48278,12.48278,0,0,0,54.35384,17.87615Zm.01831,6.42475a9.945,9.945,0,0,1-.09033,1.04773.8213.8213,0,0,0-.13416-.15918,7.06742,7.06742,0,0,0,.08106-2.35181.76946.76946,0,0,0-.01948-.1734c.015-.23981.02576-.47607.043-.69476.01746-.22064.02521-.44129.02521-.66156.00421-.01258.01-.02429.01343-.03736a5.22026,5.22026,0,0,0-.27063-2.19232l-.00378-.01843-.0044-.0661a.75168.75168,0,0,0-.02606-.11554,7.23111,7.23111,0,0,1,.36627,2.51288C54.28627,22.36059,54.39833,23.32818,54.37215,24.3009ZM2.78328,34.49591c.02051-.24292.02979-.48572.029-.72992.01117-.04505.02149-.09034.03247-.13544A2.03088,2.03088,0,0,1,2.78328,34.49591Zm44.96466-8.54249a12.31443,12.31443,0,0,0-1.68158-1.34533c-.18078-.148-.37292-.28156-.56067-.42072a.662.662,0,0,0,.0907-.02215,8.89278,8.89278,0,0,0,1.30188.86737.63316.63316,0,0,0,.3869.07159c.0409.03516.08094.07123.12171.10657a.58047.58047,0,0,0,.16687.482c.13507.14331.26538.29084.39435.4394a.59021.59021,0,0,0-.00208.10882C47.89382,26.14477,47.82552,26.04455,47.74794,25.95342Z" style="fill:#fff"/><path id="fill2" d="M54.30984,26.80315c-.14093.715-.42145,1.37851-.54825,2.09132a.52332.52332,0,0,1,.02554.46391c-.03564.09254-.06889.18627-.10045.28078-.043.81386-.08774,1.94333-.70432,2.36129a3.01022,3.01022,0,0,1-.52206,1.06212c-.01465.27986-.02014.56-.016.84482a4.3,4.3,0,0,1-.2459,1.34068.64331.64331,0,0,1-1.25781-.17024,7.95781,7.95781,0,0,1,.05913-1.4628,3.50991,3.50991,0,0,0,.123-.90523A4.74035,4.74035,0,0,0,50.9795,31.676c-.11132-.433-.3899-.78618-.52947-1.20951-.05274-.15989-.08849-.33281-.12681-.5054-.82788-.01479-1.34825-1.5348-1.71191-2.50339-.2016-.2832-.38931-.57537-.55828-.86982a.631.631,0,0,1-.085-.45567c-.12893-.14857-.25923-.29609-.39433-.43943a.5805.5805,0,0,1-.16686-.482c-.04076-.03534-.08079-.0714-.12171-.10655a.63322.63322,0,0,1-.38687-.0716,8.89128,8.89128,0,0,1-1.30189-.86741.74.74,0,0,1-.642.00229A4.089,4.089,0,0,1,43.6713,23.193a2.18125,2.18125,0,0,1-1.38194-1.0631,4.69111,4.69111,0,0,1-.89047-1.61314q-.031-.08227-.05456-.16677a.62423.62423,0,0,1-.04858-.22619c-.00181-.01244-.00494-.02461-.00649-.03711a.42957.42957,0,0,1,.00939-.14281c-.01034-.03672-.01931-.07409-.02733-.11179-.04678-.06447-.091-.13005-.132-.19655a1.255,1.255,0,0,1-.22006.1008.73988.73988,0,0,1-.68824-.15224.76256.76256,0,0,1-.53122-.36514c-.01154-.02036-.021-.04117-.03209-.06166a1.57489,1.57489,0,0,1-.11822.18667c-.01706.02277-.03506.04391-.05319.06479a1.35632,1.35632,0,0,1-.34088.48439.90013.90013,0,0,1-1.00313.20957,1.8004,1.8004,0,0,1-.51954.60083.782.782,0,0,1-.58077.68376,2.58966,2.58966,0,0,1-.54117.47693c-.35675.1991-.62456.07245-.98715.04431-.30628-.02376-.62586.089-.95052.052a6.64891,6.64891,0,0,1-.94436-.244,1.75769,1.75769,0,0,1-.51642-.2309.816.816,0,0,1-.01291.09241,1.15036,1.15036,0,0,1-.17727.40762c-.103.33157-.06945.68467-.41074.95563a.92.92,0,0,1-.60675.20525,1.14008,1.14008,0,0,1-.37814.00891,2.481,2.481,0,0,1-.47325-.12547.73774.73774,0,0,1-1.0818.36652,3.24532,3.24532,0,0,0-.48678-.29675.47092.47092,0,0,0-.16914.01878l-.00277.00242a3.56436,3.56436,0,0,1-.9234.46659,2.45537,2.45537,0,0,1-1.08093.3156,3.68026,3.68026,0,0,1-1.18009-.42719,5.13173,5.13173,0,0,1-.77044-.40912c-.07134-.00452-.14856-.00773-.22587-.01525a6.61819,6.61819,0,0,0-.83589.29465,1.12774,1.12774,0,0,1-.76089.10773.39408.39408,0,0,1-.04179-.01669.94716.94716,0,0,1-.10923.06748,1.14264,1.14264,0,0,1-.50935.13607,1.81178,1.81178,0,0,1-.86784.16866c-.14435-.0032-.68955-.03318-.80044-.22266a3.93378,3.93378,0,0,1-.54645.1561,1.40127,1.40127,0,0,1-.76992.15158,1.83705,1.83705,0,0,1-.94726-.73676,1.22918,1.22918,0,0,1-1.139-.14033,1.13126,1.13126,0,0,1-.12606.03076c-.84427.53263-1.414-.75876-1.78586-1.33209-.04851-.07481-.0966-.1508-.1443-.22725l-.01985-.02159a.7038.7038,0,0,1-.786-.49487c-.009-.02664-.01515-.05393-.02223-.081-.0081-.00609-.01507-.01041-.02414-.018q-.122-.07472-.24949-.1396l-.02728-.0148a2.60007,2.60007,0,0,0-.25766-.07788,1.84445,1.84445,0,0,1-.42493-.1347,1.29914,1.29914,0,0,1-.13263.01067.5168.5168,0,0,0-.17595.14393.84909.84909,0,0,1-.16338.2599,1.676,1.676,0,0,1-.29128.444,1.48315,1.48315,0,0,1-1.06536.34361,1.33892,1.33892,0,0,1-.651-.1828.70008.70008,0,0,1-.03994.25879,1.34709,1.34709,0,0,1-.07191.16892l.00052.00026-.00229.003q-.01668.033-.03462.06369a1.87809,1.87809,0,0,1-.65762.91538,10.21929,10.21929,0,0,1-1.76284,1.386c-.01985.01041-.03983.019-.05979.02749-.13443.12907-.2723.25545-.41359.37294a.58372.58372,0,0,1-.0873.199A11.22692,11.22692,0,0,1,7.06684,26.3814c-.4573.47483-.84666,1.00458-1.34132,1.44362a.816.816,0,0,1-.14381.10119c-.04073.04025-.08108.08083-.12.122-.08342.10571-.16768.21062-.248.31888a.70279.70279,0,0,1-.55194.29714c-.17491.21323-.34692.42915-.51067.65292A.71882.71882,0,0,1,3.9578,29.5c-.24847.74639-.4426,1.51392-.6514,2.26594-.18362.66136-.32905,1.33366-.49413,2.00007a6.18325,6.18325,0,0,1-.10636,1.303l-.00758.04241c-.00058.03116-.00216.06225-.00223.09333a.68664.68664,0,0,1-.05206.26809q-.01347.127-.02137.25283c.00853.18738.02126.37751.03612.57321a9.00294,9.00294,0,0,0,.35739,2.1118,3.15845,3.15845,0,0,1,.28476,1.85393.67035.67035,0,0,1-1.11317.29393,6.20369,6.20369,0,0,1-.87729-1.59691,3.20605,3.20605,0,0,1-.18057-1.5916c.07282-.62917.05929-1.26423.13635-1.889a7.29983,7.29983,0,0,1,.08145-1.29525,6.16379,6.16379,0,0,1,.0496-.79508c.01687-.12363.03865-.24609.06182-.36815a3.9505,3.9505,0,0,1-.01047-1.11082.7159.7159,0,0,1-.0363-.10315,2.61009,2.61009,0,0,1-.07577-.443c-.67409-.72276-.4302-2.17129-.229-3.01762.01674-.07043.03551-.14157.05528-.21285a2.49368,2.49368,0,0,1,.52866-1.513,1.79627,1.79627,0,0,1-.36122-1.51333,2.4233,2.4233,0,0,1-.27253-1.03148,3.92758,3.92758,0,0,1,.03414-.54455c-.92684-.357-.66388-2.00767-.33528-2.76708.02427-.056.05228-.114.083-.17272-.00547-.01368-.00989-.028-.01488-.04189a.683.683,0,0,1-.54788-.66405,3.0987,3.0987,0,0,1,.9844-2.10578.62115.62115,0,0,1,.24061-.25421c.4284-.25348.84708-.6024,1.2714-.87748a2.09555,2.09555,0,0,1,.5417-.32476.87954.87954,0,0,1,.27845-.03c.025-.03011.052-.06126.08068-.093A4.15484,4.15484,0,0,1,4.41871,14.104l.04621-.07317a1.84055,1.84055,0,0,1,1.07275-1.318l.05515-.0358a.69163.69163,0,0,1,.28963-.81491,4.24381,4.24381,0,0,1,1.70223-.54579c.28048-.20545.56136-.408.8553-.594a3.95874,3.95874,0,0,0,.787-.69357c.03126-.04332.06238-.08665.09525-.12932a1.38075,1.38075,0,0,1,.09754-.10963,1.78328,1.78328,0,0,0,.31046-.59815.59923.59923,0,0,1,.36182-.422.62437.62437,0,0,1,.55074-.25781,7.954,7.954,0,0,1,1.41342.05478.57259.57259,0,0,1,.11637.0358c.41875-.27934.84394-.54565,1.27329-.804l.01357-.0197a2.00859,2.00859,0,0,1,.9902-.90589c.36446-.14883.86114-.19478,1.1029-.5179.2761-.369.38942-.81217.91682-.93613a7.95332,7.95332,0,0,1,1.23927.06316,3.46493,3.46493,0,0,0,1.61293-.32424c.18931-.13273.31036-.36187.49188-.50789a1.0024,1.0024,0,0,1,.3353-.205c.03474-.01918.06218-.03305.08622-.04437a1.16676,1.16676,0,0,1,.768-.731,1.75774,1.75774,0,0,1,.64516.01937c.05728.0057.54612.05243.43527.08561.18529-.05544.34256-.2529.54258-.318.19345-.06289.38569-.07736.57849-.14791a6.13027,6.13027,0,0,1,1.59473-.3154c.53561-.0523,1.10355-.06316,1.62468-.15708.23161-.04176.49442-.05236.72107-.10616.267-.06349.31164-.15689.551-.29485q.11219-.04762.22469-.09451a2.43382,2.43382,0,0,1,.24252-.23667,1.67609,1.67609,0,0,1,1.30272-.18025A1.29663,1.29663,0,0,1,29.34419.57581C29.69031.01125,30.49905.109,31.06006.19333a10.9651,10.9651,0,0,1,2.61465.6992,10.96716,10.96716,0,0,1,1.18257.35984c.41721.23621.74369.62177,1.1601.85058.71358.39218,1.57587.54978,2.26911.99569.373.23987.773.42837,1.13287.694.27875.20584.47876.43072.77149.61346a5.24937,5.24937,0,0,1,1.4415,1.87828,5.15313,5.15313,0,0,1,.66159,2.533c.01764.54946.00017,1.10237-.00032,1.65215a4.73821,4.73821,0,0,1-.04235,1.14158c.01021.05288.02055.10576.03022.15891a5.4869,5.4869,0,0,1-.00087,1.64678.71217.71217,0,0,1-.13862.36586c.02019.30048.03284.60194.02978.90543a.66223.66223,0,0,1-.12252.39447q.04575.30464.09435.60894a3.60461,3.60461,0,0,1,.18273.38478.78793.78793,0,0,1,.09341.07056c.0234.02074.0435.04418.06531.06623a2.36052,2.36052,0,0,1,.21844-1.35651,1.28618,1.28618,0,0,1,.45106-.52412,1.83259,1.83259,0,0,1,.21688-.264,1.28086,1.28086,0,0,1,1.011-1.31286,2.18543,2.18543,0,0,1,.24614-.0466,1.71561,1.71561,0,0,1,1.03688-.52857.64487.64487,0,0,1,.17378-.12265,5.48225,5.48225,0,0,1,1.86805-.39153,2.1214,2.1214,0,0,1,1.47926.50436,3.94636,3.94636,0,0,1,1.78253.98148.67529.67529,0,0,1,.181.32483,1.58837,1.58837,0,0,1,.14222.113.73086.73086,0,0,1,.47265.316,5.86358,5.86358,0,0,1,.36753.61831,1.74158,1.74158,0,0,1,.65774.92605.766.766,0,0,1,.0067.13685,8.66183,8.66183,0,0,1,.51824,1.028c.02395.05367.04388.109.06623.16343l.01594.01944a4.7189,4.7189,0,0,1,.56408,1.97141.78048.78048,0,0,1,.05067.22436l.00437.06611.0038.01845a5.22079,5.22079,0,0,1,.27065,2.19231c-.00352.01309-.00922.0248-.01347.03737.00005.2203-.00771.44094-.02517.66157-.01729.21866-.02807.45494-.04306.69475a.76833.76833,0,0,1,.01949.17344,7.06686,7.06686,0,0,1-.08105,2.3518C54.59437,25.59849,54.41209,26.28427,54.30984,26.80315Z" style="fill:#383838"/><path id="fill1" d="M8.36027,23.99457a7.37566,7.37566,0,0,1,.87923-.35182,1.69687,1.69687,0,0,1,.55281.03865,1.57167,1.57167,0,0,1-.21223.41838,29.62446,29.62446,0,0,0-2.34372,2.39234c-.88157,1.13567-2.12735,1.95311-2.82167,3.22241a10.71223,10.71223,0,0,0-.766,2.14268,8.69415,8.69415,0,0,0-.21408,1.34926c-.1023.805-.22775,1.603-.38337,2.40179a4.75183,4.75183,0,0,0,.264,2.54181c.05494.1491.15209.33733.10538.46021a3.48163,3.48163,0,0,0-.0078,2.20078c.04371.16652-.16211.39854-.253.60039a2.10091,2.10091,0,0,1-.56133-.29938,5.22425,5.22425,0,0,1-1.439-2.79122A8.57071,8.57071,0,0,1,.89943,36.55c.01125-.36425.16707-.77924.04-1.07915a1.56778,1.56778,0,0,1-.0459-1.16424c.08475-.29271-.09419-.65563-.12289-.99a4.06417,4.06417,0,0,1,.07547-.4771,4.90986,4.90986,0,0,0,.0051-1.24,1.73979,1.73979,0,0,1,.11556-1.4161c.01552-.02428-.00242-.06784.00265-.10128a8.2868,8.2868,0,0,1,1.13027-2.40685c.05056-.1008-.01984-.26226-.0342-.39562a2.5122,2.5122,0,0,0-.27165.30048c-.08645.13133-.127.29467-.22161.418a.30061.30061,0,0,1-.2574.09038.26855.26855,0,0,1-.13325-.21785,1.79443,1.79443,0,0,1,.09867-.77513c.23149-.40628.115-.5859-.27947-.71638-.08707-.02883-.22116-.156-.20886-.20878.19731-.84772-.75273-1.55831-.28648-2.43114-.526-.94273.43279-1.417.66886-2.1193a4.25235,4.25235,0,0,1,1.57277-1.811,4.93259,4.93259,0,0,1,3.53656-1.14432,10.29947,10.29947,0,0,1,1.04575.18828.25116.25116,0,0,0,.19743-.15069c.01313-.07553-.06187-.23908-.103-.24049-.70724-.02434-1.33552-.41335-2.11357-.25522-.78913.16034-1.59717.21369-2.39788.41285a3.853,3.853,0,0,0-1.90468,1.12072,2.22565,2.22565,0,0,1-.46988.34951c-.17412.10233-.41107.28278-.515-.03873a.65263.65263,0,0,1,.10343-.56207,9.04807,9.04807,0,0,1,4.0708-2.04788A6.37648,6.37648,0,0,1,5.527,17.41536c.057-.00209.152-.127.15222-.19532a.25618.25618,0,0,0-.15089-.19814c-.6544-.08156-1.30975-.16454-1.96742-.20836-.76563-.051-1.19866.57895-1.77155.92128-.27522.16442-.53434.35915-.82051.5-.09346.046-.24942-.035-.3768-.05792.02581-.11683.01134-.27863.08372-.34345.6627-.59339,1.15091-1.38337,2.06629-1.69868.31159-.10734.71-.23617.7372-.8044.0148-.30872.45536-.686.79232-.87272a6.61481,6.61481,0,0,1,2.69-.93644A5.04405,5.04405,0,0,1,11.26325,15.289a1.39347,1.39347,0,0,0,.35873.20821c-.00861-.16106.04563-.37487-.03724-.47363a3.72253,3.72253,0,0,0-.94136-.93654c-1.38079-.75318-2.75242-1.61193-4.45855-.98583-.38851.14258-.87092-.14872-1.25887.20178-.0359.03243-.28993-.12146-.389-.23549a.3413.3413,0,0,1,.00824-.33379c.47-.4971.88121-1.20268,1.463-1.40457.82716-.287,1.55324-.71924,2.33082-1.075,1.36085-.62258,2.48423.12622,3.59332.79215.14231.08545.22333.29482.36915.34928,1.75381.655,2.55,2.20124,3.454,3.656.50943.81984,1.11464,1.58529,1.56706,2.43372a14.85481,14.85481,0,0,1,.69262,1.96947,4.92131,4.92131,0,0,0,.34572.67746.76183.76183,0,0,0,.14268.14657c.04089-.07238.12783-.15392.11554-.21575-.12524-.63-.22676-1.26874-.4109-1.88223A16.4209,16.4209,0,0,0,15.52,12.83722a6.44414,6.44414,0,0,0-2.84932-2.23517,10.50272,10.50272,0,0,0-2.21745-.83873,8.73575,8.73575,0,0,1-.86383-.14656,3.58008,3.58008,0,0,1-.52586-.21515c.11119-.16938.1838-.41259.34066-.49454a2.56777,2.56777,0,0,1,1.6337-.525c.3.0488.61817-.02133.92171.01536a.79836.79836,0,0,0,.91483-.50274,2.11976,2.11976,0,0,1,2.76714-.7114,6.48888,6.48888,0,0,1,2.19772,2.55117c.42542,1.088,1.108,2.08193,1.47339,3.18486a18.04036,18.04036,0,0,0,.95963,2.88987c.67025,1.26388,1.34506,2.52625,2.059,3.76558a12.28961,12.28961,0,0,0,1.08337,1.50174,8.67025,8.67025,0,0,0,2.64748,2.03035.87027.87027,0,0,0,.3825.06141c.05578.002.11349-.051.17032-.079-.03928-.04043-.07133-.10183-.11891-.11822-1.538-.53062-2.25559-1.85077-3.08872-3.10048A13.42836,13.42836,0,0,1,21.4705,15.2222a29.79854,29.79854,0,0,0-1.32466-3.96283c-.32278-.86107-.55144-1.751-.86538-2.61623-.56483-1.55665-1.82067-2.06445-3.178-2.49443-.31239-.099-.70261.01311-.75525-.45779-.01956-.175.78258-.98973.95781-.99366a2.30335,2.30335,0,0,1,1.59615.3716.84674.84674,0,0,0,1.279-.16577A10.34579,10.34579,0,0,1,21.104,3.3752c.30182-.20033.82229-.40073,1.08307-.27314a2.55858,2.55858,0,0,0,2.317-.26664,6.53416,6.53416,0,0,1,2.28116-.191c.35824-.02538.76706.09562.88591-.435.0175-.07816.1774-.16451.27924-.17568.2367-.02593.47848-.00055.71762-.01029.26592-.01081.53119-.03753.79675-.05732a2.61283,2.61283,0,0,1-.33584-.64358c-.07021-.33593-.11847-.6359.3631-.8533A3.82538,3.82538,0,0,1,32.4837.18774c1.177.37106,2.3133.88122,3.50223,1.20117A9.90385,9.90385,0,0,1,38.72306,2.9562a10.25145,10.25145,0,0,1,2.21346,1.81672c.87678,1.01271,1.85086,2.02325,1.92531,3.50619a2.261,2.261,0,0,0,.21146.83292,6.70836,6.70836,0,0,1,.6074,2.9336,1.83348,1.83348,0,0,0,.11661.45113c.1391-.07722.28262-.14752.41661-.23278a5.04733,5.04733,0,0,1,3.3825-.9823A7.26542,7.26542,0,0,1,51.501,13.0102a9.41224,9.41224,0,0,1,2.85279,4.866,12.48081,12.48081,0,0,1,.61782,3.95464c-.086,1.61322-.11538,3.22985-.22557,4.84117a9.40566,9.40566,0,0,1-.38876,1.37219c-.159.691-.23286,1.40452-.43072,2.08286a9.21834,9.21834,0,0,1-.70222,1.65713,6.38506,6.38506,0,0,0-.90646,3.72117c.10657.89954-.60851,1.33259-.915,1.9918-.02866.06165-.26521.07707-.37408.03444a.37836.37836,0,0,1-.1604-.29475c-.014-.68407-.00621-1.36863-.0076-2.053-.001-.46831.09358-.95416-.42611-1.27212a.56566.56566,0,0,1-.1737-.519c.49208-1.12907-.18368-2.08671-.56064-2.99884A14.07351,14.07351,0,0,0,47.76,27.30422a9.71873,9.71873,0,0,0-1.932-1.84786,23.20478,23.20478,0,0,1-4.04661-3.07943c-.47135-.54111-1.15637-1.04421-.99992-1.95027a.53611.53611,0,0,0-.39111-.20965c-.47919.15747-.94237.36554-1.40512.56951-.08757.0386-.14731.14033-.2199.21291.10821.04023.21432.0884.32543.11762.064.01685.13881-.00892.20385.00594a2.3272,2.3272,0,0,1,.26842.09422c-.06888.07258-.12571.18389-.20911.20985a1.995,1.995,0,0,1-.57383.099,3.0796,3.0796,0,0,0-2.01521.60565,1.49889,1.49889,0,0,1-.82735.21091,14.70718,14.70718,0,0,1-2.05111-.0074.81463.81463,0,0,0-.88917.54207c-.12671.23858-.22708.62806-.40575.67059a2.16073,2.16073,0,0,1-.93232-.17178c-.39-.10133-.7819-.44414-1.13645.095-.06325.09616-.30149.11253-.45664.10654a2.20613,2.20613,0,0,0-1.37632.43114,2.20743,2.20743,0,0,1-1.73905.145,7.88928,7.88928,0,0,1-3.00493-1.68605A22.63547,22.63547,0,0,1,20.52,17.826c-1.097-1.86959-1.48825-3.97323-2.30246-5.92952a10.98936,10.98936,0,0,0-2.5906-3.96568c-.62135-.57809-1.22148-.098-1.8261-.149-.02951-.00248-.10968.12588-.09483.15088a.63694.63694,0,0,0,.21788.24741c.44982.233.89926.47124,1.36639.66537.69236.2877.92893.93493,1.3026,1.49769a16.30477,16.30477,0,0,1,1.80894,4.99942,20.51058,20.51058,0,0,0,2.52041,6.033A9.11953,9.11953,0,0,0,23.02205,23.145c.14371.114.36052.13358.51117.24186a.47705.47705,0,0,1,.20635.343c-.01122.09808-.17394.2174-.29352.25841-1.01266.34712-2.02356.7139-3.06179.0392-.1455-.09454-.397-.02765-.59949-.03226-.13681-.00313-.35863.05313-.39779-.00872-.51224-.80912-1.28106-.41079-1.93-.38-.62.02937-.89658-.48986-1.20715-.763-.26525-.23326-.58714-.442-.84765-.69921-.36409-.35946-.92446-.68736-1.02189-1.11509a5.97825,5.97825,0,0,0-1.29316-2.23924A6.2889,6.2889,0,0,0,10.249,16.5392c-.47459-.175-.94018-.37461-1.41661-.54406-.06842-.02433-.175.0585-.26385.09173.05187.10364.0768.26061.15983.30256a13.10869,13.10869,0,0,1,2.11938,1.05795,8.66334,8.66334,0,0,1,2.72231,3.235.98617.98617,0,0,1-.17249,1.26261c-.51531.49573-.49915.513-1.14125.09294-.028-.01835-.0473-.067-.07329-.06905-1.03664-.08439-1.60838-.91208-2.35581-1.46179a8.61648,8.61648,0,0,0-2.85915-1.02451,3.50714,3.50714,0,0,0-1.04237-.19572,12.58495,12.58495,0,0,0-1.55717.19517,1.11214,1.11214,0,0,0-.28546.13276c.09912.09115.18486.22882.30061.26211a1.51271,1.51271,0,0,0,.50991.00975A8.72643,8.72643,0,0,1,10.15134,21.323a1.06617,1.06617,0,0,1,.465,1.25312c-.121.42384-.47307.40043-.81343.39259a1.40815,1.40815,0,0,0-1.494.97451,11.74794,11.74794,0,0,0-2.94475,2.1587,1.846,1.846,0,0,0-.664,1.12827,2.1703,2.1703,0,0,1-.639,1.5856c-.03473.03053-.02672.13469-.00663.19369.01318.03875.12051.08594.12362.08186.28791-.37635.5698-.75731.8521-1.13795-.43257-.34179.00649-.68438.13369-.819.63984-.67739,1.38014-1.25855,2.0433-1.91574.39683-.39324.91769-.67728,1.153-1.22406m2.2585-6.05688-.19029-.015a.41794.41794,0,0,1,.19029.22036l.19028.015a.41777.41777,0,0,1-.19028-.22036M6.82039,26.04775a.3881.3881,0,0,1-.20533.20532.38812.38812,0,0,1-.20531.20532.388.388,0,0,1-.20533.20531,6.19623,6.19623,0,0,1-.82127.82128l-.015.19028a.41778.41778,0,0,1,.22035-.19028.97719.97719,0,0,0,.82127-.82128.38809.38809,0,0,1,.20533-.20531.38811.38811,0,0,1,.20532-.20532.388.388,0,0,1,.20531-.20532l.015-.19028a.41787.41787,0,0,1-.22034.19028M2.714,25.22648c-.10266.1614-.20787.32138-.30189.4877-.00582.01028.07636.07033.11759.10722a1.97218,1.97218,0,0,1,.38961-.59492l.08213-.32853-.13419-.03005a.55165.55165,0,0,1-.15325.35858m35.52005-5.74891c-.04311.11155-.08882.22216-.12849.33494-.03169.09005-.056.18269-.08364.27419.10493-.07363.25142-.126.30318-.22689.05255-.10244.01161-.25284.11427-.38224l.015-.19028a.41785.41785,0,0,1-.22036.19028M1.58476,37.85355a2.53436,2.53436,0,0,0-.0048-.39262A1.55648,1.55648,0,0,0,1.464,37.153c-.02819.08667-.09515.18269-.07692.25813.04511.18669.12923.364.19766.64771a5.53288,5.53288,0,0,0,.01312.81623c.01634.10868.1783.19545.274.29216.04117-.10541.14184-.23226.113-.31243-.11083-.30768-.26322-.60034-.4001-1.00128M34.23037,16.9111l-.19029-.015a.41786.41786,0,0,1,.19029.22036,3.70026,3.70026,0,0,0,1.073,2.70546c.05276.055.1788.03976.27075.05717a.71544.71544,0,0,0-.03145-.21441c-.43436-.8851-.87393-1.76769-1.31226-2.75354m-9.65,3.4904.19028.015a.41793.41793,0,0,1-.19028-.22036c-.41064-.79849-.80688-1.60491-1.23946-2.39135-.15846-.28808-.40309-.52876-.60841-.89373l-.19028-.015a.41781.41781,0,0,1,.19028.22036,6.50619,6.50619,0,0,0,1.84787,3.28508m20.32651-.41064-.19029-.015a.4179.4179,0,0,1,.19029.22036c.38155.31309.76578.623,1.1441.94a12.79129,12.79129,0,0,1,2.13553,2.69525c.39938.57615.74,1.19281,1.12106,1.78217.05285.08173.18678.11106.28318.16467.01282-.09695.03255-.19364.036-.29091a.43711.43711,0,0,0-.03211-.19,13.1338,13.1338,0,0,0-3.9667-4.97844c-.18584-.145-.47813-.15351-.721-.328M39.466,7.56912A16.19618,16.19618,0,0,0,36.72078,3.989C35.4783,2.8954,35.44472,2.13686,33.26221,2.43332c-.32778.04452-.62828-.044-.64221-.426-.002-.05428.42683-.1332.65982-.18463.23876-.05271.48188-.08567.7231-.12727a2.60731,2.60731,0,0,0-.72388-.4698,1.284,1.284,0,0,0-.86887.08639,4.29485,4.29485,0,0,0-.79616.76339q.33951.28962.679.5792c.07562.06441.14744.13437.22839.19125A12.00806,12.00806,0,0,1,35.10036,4.7151a17.4014,17.4014,0,0,1,3.045,4.66505A26.727,26.727,0,0,1,39.81411,14.333a8.82392,8.82392,0,0,0,.192,1.55071c.369.99718.07125,2.004.1706,2.99943a2.26237,2.26237,0,0,1-.0988.59046c.42976.06787.27005-.2579.32066-.45748a.25876.25876,0,0,1,.20523-.14622c.49157.07622.50274-.37461.58563-.61459.1461-.42291.10766-.9072.23653-1.3389a7.50723,7.50723,0,0,0,.20707-4.05336,11.90182,11.90182,0,0,0-1.64493-4.24074c-.19745-.27555-.28261-.63156-.52215-1.05317M25.299,10.64889a8.67735,8.67735,0,0,1,.30319.89986c.42019,1.88054.8,3.77048,1.24609,5.64471a5.26256,5.26256,0,0,0,1.86374,3.02147.82058.82058,0,0,0,.27182.08391,2.19713,2.19713,0,0,0-.068-.282A17.48135,17.48135,0,0,1,27.871,15.11436c-.09632-1.23534-.14163-2.47464-.21217-3.712a1.248,1.248,0,0,0-.04817-.28764A9.588,9.588,0,0,0,25.91808,7.6916a10.15943,10.15943,0,0,0-4.263-3.12151,1.74627,1.74627,0,0,0-1.0253.09491c-.18385.05433-.2838.27652-.00192.443a18.8535,18.8535,0,0,1,2.36807,1.45263A6.43591,6.43591,0,0,1,25.299,10.64889m2.36115-1.7452a14.541,14.541,0,0,1,.78158,2.94611,41.59135,41.59135,0,0,0,.42677,5.06589,11.03938,11.03938,0,0,0,1.26337,3.99617,1.90873,1.90873,0,0,0,.48294.41264c.35527.27713.86882.26209,1.15737.70022.17339.26326.458.16692.68947-.05223.28083-.266.03186-.387-.10227-.57525a7.51423,7.51423,0,0,1-1.435-3.51546c-.08993-.74982-.43471-1.46549-.58367-2.2127a18.816,18.816,0,0,1-.4035-2.80466A6.57718,6.57718,0,0,0,28.898,9.38668a15.13628,15.13628,0,0,0-4.64516-4.91356,2.15072,2.15072,0,0,0-.76265-.371c-.2243-.02649-.47262.15038-.7103.23723.17783.07255.35638.14343.53279.21926.02919.01255.0447.05759.07389.0694,1.98127.80077,2.9638,2.59916,4.27357,4.27573m20.42917,7.2888a1.98694,1.98694,0,0,0,.2215.41914,6.97089,6.97089,0,0,1,1.435,2.48345c.1572.48745.1796,1.01666.30464,1.51657a15.81749,15.81749,0,0,1,.61945,4.159,15.52215,15.52215,0,0,0,.19423,2.06817c.05252.45214.143.89977.19814,1.35168.02465.20211-.028.41708.01645.61207.02585.11349.17446.199.26782.297.04351-.10015.0884-.19973.13034-.30053a10.977,10.977,0,0,0,.57862-3.6444,37.55589,37.55589,0,0,0-.17765-4.5275,4.69951,4.69951,0,0,0-.27491-1.319A10.56082,10.56082,0,0,0,48.7758,14.8454,3.90236,3.90236,0,0,0,45.96142,13.734c-.0799.00444-.20421.07151-.2208.133a.316.316,0,0,0,.08672.26059c.71489.65942,1.43824,1.30964,2.262,2.065M26.63359,5.6186a16.10341,16.10341,0,0,1,2.89095,3.622,5.50891,5.50891,0,0,1,.842,2.127c.09912.59334.08311,1.18717.18341,1.76569.225,1.29755.50935,2.58626.81352,3.86813a11.78491,11.78491,0,0,0,.851,2.82786,3.24107,3.24107,0,0,0,4.1018,1.89742c.14008-.03379.24808-.20061.371-.3056a1.52009,1.52009,0,0,0-.37079-.09078,1.22941,1.22941,0,0,1-1.26138-.58192c-.48813-.94676-1.23657-1.71056-1.76036-2.65061a16.76578,16.76578,0,0,1-1.30284-3.36411c-.36333-1.1934-.53024-2.44518-.85193-3.65309a7.94334,7.94334,0,0,0-1.42264-3.31048c-.23106-.26914-.3933-.59724-.62364-.86712A8.89366,8.89366,0,0,0,25.97391,4.3522c-.09529-.04181-.23077.00794-.34757.01514a.93954.93954,0,0,0,.1123.34511c.25059.27992.52623.53742.895.90615M15.44374,16.60312c-.64735-.64734-1.26947-1.32274-1.94889-1.93447-.73387-.66073-1.51238-1.27341-2.29175-1.881a1.51161,1.51161,0,0,0-.69688-.28152,15.61748,15.61748,0,0,1-2.43033-.55637,6.01051,6.01051,0,0,0-1.9057-.02139c-.08918.00339-.17176.18019-.2574.27671a.843.843,0,0,0,.27114.08181,7.29917,7.29917,0,0,1,2.703.39633,6.30046,6.30046,0,0,1,3.18229,2.07127,11.88562,11.88562,0,0,1,1.09358,2.00755c.74815,1.43617,1.56709,2.8367,2.39682,4.22811a2.60483,2.60483,0,0,0,.8031.73533,4.14864,4.14864,0,0,0,.81057.33415c-.06323-.24251-.11864-.48746-.19225-.72679a4.48487,4.48487,0,0,0-.20406-.52943c-.59389-1.311-.55586-2.81139-1.33327-4.20032M53.11965,30.66741a15.491,15.491,0,0,0,.56431-2.0201,37.45235,37.45235,0,0,0,.68817-4.34642c.02617-.9727-.08588-1.94027-.0198-2.90982a7.61156,7.61156,0,0,0-.41917-2.70173c-.6087-2.03744-1.35587-3.9841-3.14226-5.36012a6.04818,6.04818,0,0,0-4.8613-1.23748c-.07386.01176-.13457.10609-.20141.16194.07588.081.13843.20276.23092.23306a1.781,1.781,0,0,0,.40721.01133,4.61356,4.61356,0,0,1,3.17227,1.02042,5.60055,5.60055,0,0,0,1.149.94082,6.1338,6.1338,0,0,1,2.3768,3.218A14.62791,14.62791,0,0,1,54.132,22.77115a7.071,7.071,0,0,1-.1901,1.35129,17.20294,17.20294,0,0,1-.44156,3.00193c-.66427,2.014-.995,4.1425-2.02944,6.03616a2.21143,2.21143,0,0,0-.14931,1.03072c.00079.15512.1773.30939.27407.464.09738-.165.28176-.33177.27832-.4946-.02688-1.26971.68737-2.24743,1.24572-3.49327M32.17718,7.46646c-.48375-.55219-.94141-1.13044-1.45877-1.64911a19.03386,19.03386,0,0,0-1.58379-1.37717,1.52424,1.52424,0,0,0-.54756-.15615,2.38456,2.38456,0,0,0,.229.43008A13.44466,13.44466,0,0,0,30.05716,6.1437c.45891.41874.391,1.00818.63574,1.48964.44452.87444.85946,1.76411,1.27726,2.65187.28272.60076.574,1.19938.81773,1.81621a13.47735,13.47735,0,0,1,1.04331,3.77934c.009.10457.18074.195.27684.29206.04077-.10684.12288-.2165.11578-.32005-.05671-.82767-.13033-1.65417-.19877-2.481s-.13394-1.654-.20957-2.48018a.79142.79142,0,0,0-.11521-.25876c-.5071-.9873-1.01524-1.97409-1.52309-3.16634M49.21859,28.40891l.28984.28983a.91581.91581,0,0,0,.11477-.32316,7.26353,7.26353,0,0,0-2.57289-4.75947,13.15813,13.15813,0,0,0-2.47234-1.6755,3.40389,3.40389,0,0,0-1.48631-.57974c-.68487-.02755-.8653-.34011-.8452-.89732.01226-.3401-.14316-.45078-.41275-.3593a.43471.43471,0,0,0-.285.62327,2.75314,2.75314,0,0,0,.42977.64064c1.15857,1.33557,2.74181,2.13845,4.08789,3.24a12.31927,12.31927,0,0,1,1.68157,1.34529,12.06358,12.06358,0,0,1,1.47065,2.4555M23.14318,10.54623c-.16223-.17109-.407-.516-.47307-.48457-.377.17908.03523.34747.05609.535a4.3923,4.3923,0,0,0,.0152.71385c.5007,1.7031.95824,3.42348,1.56279,5.09A21.39938,21.39938,0,0,0,26.051,20.17758a5.9722,5.9722,0,0,0,2.46882,2.30585c.09295.04534.23013,0,.34677-.00321a1.84075,1.84075,0,0,0-.16764-.21595c-.3438-.33156-.81393-.59678-1.01709-.998A31.89954,31.89954,0,0,1,25.36751,16.693c-.31754-.99227-.74624-1.9417-1.031-2.9575a11.47613,11.47613,0,0,0-1.19338-3.18922M40.49257,5.51594A21.04323,21.04323,0,0,0,37.41388,3.064a1.22278,1.22278,0,0,0-.52326-.20812,1.0604,1.0604,0,0,0-.37566.06747,1.31731,1.31731,0,0,0,.16657.215,7.30574,7.30574,0,0,1,1.27,1.09958A34.56467,34.56467,0,0,1,40.36536,7.9414c.65522,1.21463,1.10554,2.53976,1.64695,3.81588.04422.10422.0956.20539.14366.308a.7983.7983,0,0,0,.0768-.27251c-.0588-.58641-.16426-1.16976-.19394-1.75716-.07427-1.47047-.03469-2.966-1.23542-4.09588-.09022-.0849-.13974-.21308-.31084-.42378M53.53028,23.48127a9.80245,9.80245,0,0,0-.03111-2.3475,13.3212,13.3212,0,0,0-2.06626-5.07651c-.26942-.34814-.73433-.57964-.91124-.95752-.3678-.78561-1.107-1.062-1.74131-1.48973-.08247-.05562-.22852-.01692-.34511-.02192a.97189.97189,0,0,0,.14355.21476,15.694,15.694,0,0,1,1.35,1.17125,9.27892,9.27892,0,0,1,1.22467,1.64026,5.847,5.847,0,0,1,.7866,1.62688c.2153.93391.33391,1.90549.63161,2.80358a11.06575,11.06575,0,0,1,.11119,5.2966c-.212,1.38025-.6603,2.724-.99563,4.086a.79975.79975,0,0,0,.04187.28672,1.07038,1.07038,0,0,0,.15545-.23306c.31314-.92892.67731-1.84578.91317-2.79438a16.95664,16.95664,0,0,0,.73256-4.20539M35.66759,7.8771a6.05529,6.05529,0,0,0-.43729-.4312c-.18131-.14764-.38354-.26958-.57667-.4027.08793.23323.1654.47126.26908.69726.04.08727.1551.13723.20953.2213a12.32459,12.32459,0,0,1,1.269,2.03466,17.47662,17.47662,0,0,1,1.31617,6.21349c.02107.7847.00077,1.57047.007,2.35569a1.07458,1.07458,0,0,0,.077.27394,1.81742,1.81742,0,0,0,.14117-.30653c.07182-.2791.14137-.56024.18569-.84464.07522-.48265.05053-.96328.16024-1.46148a6.22847,6.22847,0,0,0-.01391-2.42761,11.31967,11.31967,0,0,0-1.1647-3.60967A8.71422,8.71422,0,0,0,35.66759,7.8771M9.69484,18.04035A6.46921,6.46921,0,0,0,7.0019,16.1549a2.26826,2.26826,0,0,0-1.8882.03777c-.07711.03772-.15306.07779-.22955.11677.09.02945.18108.05583.26964.089a2.93387,2.93387,0,0,0,.52907.19916,6.68847,6.68847,0,0,1,2.9529,1.24274c.93414.69914,1.73659,1.573,2.607,2.359.41607.37572.8454.73931,1.29414,1.07438.10472.07818.31275.018.47324.02146-.04429-.13193-.07765-.26878-.13455-.395-.61878-1.37267-1.97711-1.9215-3.18075-2.85986m24.53552-8.726a.98363.98363,0,0,1,.20146.22455c.63833,1.44592,1.267,2.89608,1.9063,4.34159a2.9691,2.9691,0,0,0,.28647.4311,1.70428,1.70428,0,0,0,.05936-.58423c-.21971-.82921-.46484-1.65219-.72053-2.47125a15.76878,15.76878,0,0,0-1.49574-2.976,7.86674,7.86674,0,0,0-1.48337-2.04552,7.00647,7.00647,0,0,0-1.03717-.71165c-.07035-.04383-.19693.00256-.29758.00733.03787.09676.04915.22193.11761.286a8.53966,8.53966,0,0,1,2.46319,3.498M3.43263,27.38232c.34844-.42259.974-.68225.82925-1.40089-.00094-.00471.15507-.06862.17678-.04611.27078.28093.42213.0323.56929-.13364a9.682,9.682,0,0,1,1.25029-1.40853,10.058,10.058,0,0,1,1.69991-.81609c.08833-.04285.13231-.17712.1968-.2691-.109-.03857-.23739-.13517-.32373-.10622a11.18779,11.18779,0,0,0-1.59229.598A4.87244,4.87244,0,0,0,3.78832,25.774c-.38749.76681-.93645,1.45094-1.3427,2.20981a3.5896,3.5896,0,0,0-.23671,1.12574c-.01028.06581.08686.14842.13438.22326.08936-.06712.2197-.11511.26136-.20449.253-.54254.48579-1.09454.828-1.746M15.44375,11.47017q.87261,1.32414,1.74513,2.64834c.04359.06617.08633.13291.12946.19938.02531-.09167.09064-.19414.06933-.27324a11.77081,11.77081,0,0,0-.41013-1.36157c-.66359-1.63925-1.37172-3.25348-3.21984-3.92165a3.26312,3.26312,0,0,0-.64782-.15722.2612.2612,0,0,0-.22025.12778.3228.3228,0,0,0,.08428.26079c.7846.796,1.57685,1.58439,2.46984,2.47739m32.1323,5.23561c-.57841-.71529-1.13135-1.454-1.7525-2.13a1.18439,1.18439,0,0,0-.814-.216,3.67073,3.67073,0,0,0-1.13652.20839c-.17.06056-.271.31495-.4033.48155.16154-.02014.32264-.04579.48477-.05831a.97087.97087,0,0,1,.27659.01426,5.54811,5.54811,0,0,1,3.3312,2.42052c.55186.77268.9686,1.64145,1.45587,2.46122.05291.089.17257.13839.26127.20614.0442-.10664.15476-.24249.12262-.31552a8.81329,8.81329,0,0,0-1.826-3.07222M20.782,7.56912l-.42241-.19354c.036.09661.06555.19625.109.28937a16.81612,16.81612,0,0,1,1.42171,4.11979,15.65221,15.65221,0,0,0,1.46106,4.8302c.15163.27941.34126.53818.51334.80649.26318-.37653-.181-.55544-.23838-.84412-.05581-.28077-.13607-.55706-.21378-.833-.43063-1.52922-.95687-3.03917-1.26654-4.59238a9.0818,9.0818,0,0,0-1.364-3.58279M1.58476,24.71318c-.2436.34447.0904.70037-.02059,1.048-.0301.09428-.05268.191-.07872.28657.10155-.05479.26314-.08614.29517-.1681a3.69518,3.69518,0,0,1,1.21467-1.73929,9.468,9.468,0,0,1,1.40523-.79689c.59413-.28888,1.21412-.524,1.81387-.802.31357-.14531.60774-.33246.91068-.50071a3.9257,3.9257,0,0,0-1.16342-.04025,7.378,7.378,0,0,0-4.37689,2.71267m43.32216-5.54359a5.08178,5.08178,0,0,1,2.0684,1.4451,13.81326,13.81326,0,0,0,1.01685,1.01115c.07367.06759.22709.04824.34376.069-.0073-.11667.03091-.27056-.0292-.344-.4209-.51444-.83683-1.03739-1.30433-1.508-.41913-.42187-.94216-.743-1.34633-1.17658-.45009-.48291-1.08777-.52859-1.618-.81528a.90644.90644,0,0,0-.70029.00343.89128.89128,0,0,0-.46568.51c-.1081.41982.27714.31624.46028.2803.57465-.11285.96945.33029,1.57455.52486m-1.64255-2.87444c-.10447.54221.05394.77588.66726.73574a3.03532,3.03532,0,0,1,1.84738.19227c.30288.181.57122.41974.87375.60146a1.89,1.89,0,0,0,.48829.13745,1.36066,1.36066,0,0,0-.17247-.41485,6.348,6.348,0,0,0-.9376-.93238,3.039,3.039,0,0,0-2.50257-.82241c-.10515.024-.17683.19474-.264.50272m-6.87816-.308c-.26455-.8805-.47855-1.7814-.82131-2.63032-.11836-.29316-.10089-.7992-.6092-.86009.07225.34824.11746.70483.22173,1.04319a13.26169,13.26169,0,0,1,.71715,3.29513,9.8184,9.8184,0,0,0,.43975,1.96223c.02608.09987.18328.16551.27985.247a1.03156,1.03156,0,0,0,.07633-.27408,7.1208,7.1208,0,0,0-.3043-2.783M1.89274,22.1467c.52191-.16609.79059-.67177,1.35916-.86117a28.22039,28.22039,0,0,1,3.42376-.577c.149-.0305.29521-.07411.44272-.11166a2.46422,2.46422,0,0,0-.36917-.0899C5.92947,20.43315,5.11,20.327,4.28859,20.308c-1.31927-.0306-1.955.43811-2.39585,1.83869m.308,10.57389c-.14954.52515-.399,1.03938-.06613,1.59623.05233.08752-.03012.29119-.10118.41089a1.24664,1.24664,0,0,0,.08537,1.60182.98265.98265,0,0,0,.214.1601,2.84214,2.84214,0,0,0,.07192-.27635,4.75586,4.75586,0,0,1,.23091-1.33291,2.03384,2.03384,0,0,0,.14093-1.54708,2.38865,2.38865,0,0,1,.13639-1.745,1.17292,1.17292,0,0,0-.0094-.40762c-.13889.07574-.35844.12042-.40173.23293a6.65163,6.65163,0,0,0-.301,1.307M24.37509,10.95687c0,.13611-.0478.29837.00951.40313a7.58739,7.58739,0,0,0,.49334.71568c-.03074-.25533-.06565-.51024-.09087-.76612a2.3858,2.3858,0,0,0-.04727-.59361,8.68286,8.68286,0,0,0-2.5922-3.8212c-.09549-.07686-.2748-.0496-.41516-.07074a1.04245,1.04245,0,0,0,.09541.34536c.59248.81207,1.21648,1.60187,1.78858,2.42776.267.38551.44026.836.75866,1.35974M4.66454,15.26857a2.89427,2.89427,0,0,0,.55445.05472c.38906-.03426.85694-.264,1.14278-.11881a2.21483,2.21483,0,0,0,1.16384.15425,5.93161,5.93161,0,0,1,1.9064.35651,7.8934,7.8934,0,0,0,.97528.17543q-.42242-.3259-.84446-.65229c-.02678-.02077-.045-.06286-.07334-.06984-1.60026-.3941-3.20262-.71834-4.82495.1M31.97187,3.3601c-.39278-.03423-.7877-.05309-1.17766-.10744-.3211-.04476-.58736-.40213-.992-.055-.08571.0735-.59307-.38039-.9288-.54514a.90542.90542,0,0,0-.50207-.00384,1.056,1.056,0,0,0-.3005.16057,1.80463,1.80463,0,0,0,.328.2382c.31618.13667.64442.24513.96362.37522.174.07092.34077.23579.50854.23277a5.87988,5.87988,0,0,1,2.07523.40367,2.85573,2.85573,0,0,0,.99266-.02346c-.22028-.191-.43647-.38709-.66458-.56819-.04161-.033-.13191-.00472-.30239-.10737M2.406,23.07063a3.22338,3.22338,0,0,1,1.56111-.92523c.5102-.16685,1.01883-.33923,1.52258-.52435.07665-.02815.12307-.13855.18346-.21091-.09063-.02824-.18866-.09391-.27051-.07772a7.23082,7.23082,0,0,1-.73556.19149A4.85013,4.85013,0,0,0,1.68889,22.978a3.31446,3.31446,0,0,0-.50327.71049.33626.33626,0,0,0,.05785.25873.51961.51961,0,0,0,.33578-.07266c.25427-.21878.48458-.4654.82679-.804m42.60353-1.53988c.36248.27376.71958.55512,1.09062.81673a1.76762,1.76762,0,0,0,.39963.15683c-.03869-.14023-.03166-.3359-.12351-.41162-.57734-.47592-1.1699-.93428-1.77151-1.37941a4.67806,4.67806,0,0,0-.97406-.59938.5914.5914,0,0,0-.54933.18569c-.11931.21883.03074.35377.30886.46114.49644.19161.94526.5066,1.6193.77M30.74,1.92287a3.74013,3.74013,0,0,1,.36777-.56127,6.04311,6.04311,0,0,1,.612-.51218C31.4202.83082,31.12087.80859,30.82116.795c-.17031-.00772-.3881-.06748-.50173.013-.20778.14721-.52223.41258-.4923.57255.06966.37233.27975.76126.91283.54232M20.474,21.83873c-.1864-.14372-.43272-.19715-.39527.1104a1.9056,1.9056,0,0,0,1.85036,1.63142,2.00468,2.00468,0,0,0,.37162-.07813c-.08143-.09554-.14416-.23724-.24736-.279A3.57141,3.57141,0,0,1,20.474,21.83873m26.17808-2.97712c.5735.5735,1.14515,1.14893,1.72425,1.71671.04316.04231.13964.03023.21133.04343.005-.06551.03964-.15168.01055-.19351-.53879-.77518-.88258-1.74464-1.95911-1.99188a3.005,3.005,0,0,1-.28706-.096,3.10175,3.10175,0,0,0,.3.52123m-13.243-2.56646a11.06841,11.06841,0,0,0-1.02656-3.351q-.05921-.1133-.11793-.22683c-.02914.09-.10067.19088-.08077.26826.1736.67472.34923,1.34963.55346,2.01553.14739.48056.154,1.02368.6718,1.294M11.33738,9.00635a1.61281,1.61281,0,0,0-.42963-.19219c-.08678-.01224-.192.10657-.289.16642.07978.077.14614.18733.24147.22577.70316.28359,1.41221.55255,2.11909.82691.09768.03791.19362.08027.29037.12056-.03616-.11675-.03917-.264-.114-.3452a2.47548,2.47548,0,0,0-1.81836-.80227m23.50894,7.49411a1.78553,1.78553,0,0,0,.01077.50663,1.55036,1.55036,0,0,0,.27486.395,1.28286,1.28286,0,0,0,.11774-.41295q-.08006-1.132-.20551-2.2604a1.41369,1.41369,0,0,0-.19869-.42531c-.02862-.0566-.06656-.1085-.10027-.16252-.03474.05256-.10139.10634-.09941.1575a16.283,16.283,0,0,0,.20051,2.20209M20.88468,10.54623c-.06844-.37658-.12406-.7563-.215-1.12737-.02071-.08446-.16378-.13892-.25053-.20719-.05013.10489-.16547.22985-.14032.31158.25732.8365.5372,1.66608.81156,2.49734.02933.08885.06358.1761.09555.26408.03647-.08162.11615-.17147.1024-.2435a9.248,9.248,0,0,0-.40362-1.49494m23.71426,2.36115a1.07516,1.07516,0,0,0-.27389.075,4.71187,4.71187,0,0,0-.39472.283c.1661.13159.26424.40593.57207.1667a2.237,2.237,0,0,1,.6901-.29217c.315-.10167.75582.12593.921-.36052-.36288-.02578-.72564-.0634-1.08875-.06732-.07279-.00078-.147.12688-.4258.1953m-35.4174,8.726a2.95583,2.95583,0,0,0-1.828-.50721c-.07629.00216-.15019.08807-.2252.13514.06629.0898.12237.24683.2005.25868a8.938,8.938,0,0,0,1.85268.11339M34.43569,5.8239c-.447-.308-.89008-.62189-1.346-.91592a.27847.27847,0,0,0-.25816.07427.26754.26754,0,0,0,.00862.25918c.55365.36913,1.11474.72779,1.68618,1.06857.05929.03538.19732-.06128.2988-.09667l-.38941-.38943M3.2273,29.64082c.26564-.60784.53551-1.21386.79149-1.82576.03178-.076-.01032-.18286-.01819-.27542a.82634.82634,0,0,0-.21523.11058c-.553.53969-.53044,1.35773-.94425,1.96614.12873.07659.25746.15318.38618.02446M8.56558,18.55365c-.07207-.07207-.13377-.1868-.21836-.20736a3.43021,3.43021,0,0,0-.55054-.05033c.11918.12011.23221.24731.35956.358a1.84642,1.84642,0,0,0,.31742.21589c.30211.16734.6085.327.91319.48963-.23953-.23439-.47907-.46878-.82127-.80584M2.20072,30.87273a2.50238,2.50238,0,0,0,.197-.42568c.0208-.07809-.04471-.17917-.07124-.26988l-.947.54142c.07.08559.12693.22391.213.24539a1.01358,1.01358,0,0,0,.60829-.09125m4.41435-7.69944.66708-.3595c-.25269.01328-.50628.018-.75758.04446a.359.359,0,0,0-.2518.11389c-.13278.24466-.656.04972-.573.51778a4.56711,4.56711,0,0,1,.91532-.31663M2.406,40.31737l.34144.0692a2.05934,2.05934,0,0,0-.08053-.605c-.04016-.09093-.25751-.10357-.39477-.15156a3.97953,3.97953,0,0,1,.13386.68741M19.75543,5.51594c.025.09346.02134.23875.08011.27132a6.44706,6.44706,0,0,0,.749.33244.2777.2777,0,0,0,.09068-.15074c.01779-.51185-.55191-.04425-.64644-.38234-.00776-.02774-.04467-.04731-.27336-.07068M29.816,21.94138c-.212-.13687-.42062-.27958-.63865-.40605-.04742-.02749-.12852.00306-.19411.0069.01047.07125-.00513.16835.03567.20953.24675.24892.46331.62029.79709.18962M4.2539,24.50786c.071-.071.144-.14005.21235-.21349.06361-.06837.12222-.1414.183-.21236-.11469-.012-.263-.07486-.3372-.02574a3.05488,3.05488,0,0,0-.43274.4155.42948.42948,0,0,0,.37455.03609m35.10942-5.95421-.11879-1.11313a3.70541,3.70541,0,0,0,.11879,1.11313M12.15865,16.3978c-.27575-.02748-.40872.106-.25411.33893.08834.13309.31506.17437.47948.257a2.22281,2.22281,0,0,0-.22537-.59591m-.61595-4.31167.4812-.07057c-.10179-.11337-.18452-.265-.31132-.32816-.10435-.052-.261.0009-.39443.00732a1.69916,1.69916,0,0,0,.22455.39141M32.27984,22.55734a4.56634,4.56634,0,0,0-.50379.00616c-.06475.00725-.12174.084-.18226.12906.31077.04488.64856.26792.68605-.13522M8.05229,22.352a.37474.37474,0,0,0-.06837.07171.09134.09134,0,0,0,.00455.06641c.15675.025.31387.051.47192.06066.02019.00128.0458-.08609.0689-.13241a2.46471,2.46471,0,0,0-.477-.06637M24.8884,21.12011l.08211-.12318C24.90892,21.00377,24.84732,21.01061,24.8884,21.12011Z"/></g></g></svg>