<svg xmlns="http://www.w3.org/2000/svg" width="53.98524" height="27.81045" viewBox="0 0 53.98524 27.81045"><title>groom-hair-8-funny</title><g id="Layer_2" data-name="Layer 2"><g id="groom-hair-8-funny"><path id="void" d="M4.10634,25.60326a.28761.28761,0,0,1,.19031.06634A.2875.2875,0,0,1,4.10634,25.60326ZM53.97322,22.1801c-.25879.513-.34253,1.11816-.855,1.50256-.15771.11835-.20288.38678-.29968.58643-.08557-.27185-.16687-.54511-.25818-.815a.473.473,0,0,1-.0636-.03485.6397.6397,0,0,1-.121-.07184,1.42507,1.42507,0,0,1-.45789-.59455,1.51547,1.51547,0,0,1-.39794-.84613.68053.68053,0,0,1-.09363-.32214c.00024-.02045-.00122-.04047-.00147-.06073a.91323.91323,0,0,1-.15954-.70721c-.059-.21235-.11219-.42664-.16736-.64063a.543.543,0,0,1-.08545-.22278,3.79422,3.79422,0,0,1-.4917-.731.11883.11883,0,0,1-.02185.05793c-.15979.17761-.3363.21222-.40442-.10871a3.31739,3.31739,0,0,1-.18872-.7362c.01746-.48358-.2749-.67926-.5553-1.0116a5.64217,5.64217,0,0,0-1.32348-1.046c-.2931-.1944-.61585-.46844-.27674-.91125a.46438.46438,0,0,0,.07483-.22925c-.005-.01636-.01416-.032-.01868-.04846-.02441-.03724-.04809-.07477-.07055-.11286A.64523.64523,0,0,1,47.3647,14.79l-.00989-.01489c-.0437.04053-.08789.08057-.13134.12134-.13672.12854-.27124.25964-.40674.38953-.13819-.16132-.28809-.31458-.4093-.48786-.05042-.0722-.00769-.242-.06226-.27423-.66333-.39142-1.12781-1.07336-1.90857-1.29394-.40918-.11567-.71924-.32984-.70874-.82654a2.02206,2.02206,0,0,0-.07654-.55969.81419.81419,0,0,1-.51281-.10175c-.00159.00519-.00855.00909-.00977.01434-.08923.37622-.36.56079-.64966.42157-.19653-.09448-.28174-.45056-.38086-.70367a.49793.49793,0,0,1-.01733-.21753,1.72285,1.72285,0,0,1-.1919-.395,1.37556,1.37556,0,0,1-.605-.03192.63652.63652,0,0,1-.37243-.27423,2.12185,2.12185,0,0,1-1.13868-.37567,1.44462,1.44462,0,0,1-.14367-.553c-.02368-.138-.03662-.278-.05249-.41718a.8102.8102,0,0,1-.43762-.31286c-.00672.01056-.01844.02093-.02344.03082-.057.11084-.06091.24756-.10718.36566-.1936.49512-.28052.50183-.76062.20892-.363-.22131-.721-.65826-1.19507-.17047-.1687-.1651-.34961-.31976-.50293-.4981-.17993-.20911-.33178-.42035-.5758-.06635a.67279.67279,0,0,1-.24121.1532c-.55335.30084-.722.22021-.8285-.39466-.01025-.05859-.019-.11749-.02832-.1762a1.09906,1.09906,0,0,1-.28906-.02338c-.01074.00854-.023.01556-.03357.02441-.07861.06531-.13562.16211-.22107.21259-.2185.12891-.44751.23975-.67236.35785-.06433-.22931-.125-.45978-.19458-.68756-.0354-.11554-.08667-.22614-.13062-.339a1.05019,1.05019,0,0,0-.33471.17236c-.10181.11493-.13452.28943-.23035.41223a1.49538,1.49538,0,0,1-.30884.23664c-.38122-.73529-1.20178-.00293-1.67737-.50928-.25891-.27576-.40563-.10706-.39733.22565.005.20513.01233.41137-.00269.61554a4.30873,4.30873,0,0,1-.08606.47631c-.03857-.14636-.03027-.36969-.12341-.42633-.44666-.27173-.4906-.72284-.60694-1.14233a.69191.69191,0,0,1-.42-.04761c-.014.116-.02856.238.02393.29157.37719.38513-.00464.46606-.22461.50219-.33326.05475-.68433-.0097-1.0232.024-.18042.018-.47009.09857-.50659.21491-.2052.65393-.45569.368-.73389.07647a4.3261,4.3261,0,0,1-.56689-.58954c-.09936-.15618-.07959-.4472-.35486-.29742a.89539.89539,0,0,0-.29443.48163c-.08142.23083-.04138.62463-.17932.69238-.38.18665-.64624-.05694-.8147-.42944-.03894-.08594-.22-.10749-.33569-.15869-.03821.11871-.07837.23687-.11316.35656-.00916.03156.007.07056-.00257.10187-.09838.32031.22193.87976-.21484.91882-.24207.02161-.53955-.56543-.80835-.88122-.01685-.01978.01172-.07715-.00488-.09876a2.56043,2.56043,0,0,0-.17542-.192c-.07751.07941-.21789.15564-.222.23865-.02222.44366-.00537.88909-.0149,1.33368a.94309.94309,0,0,1-.09118.26843c-.11682-.04358-.28186-.05268-.342-.13684-.26136-.36487-.48767-.75458-.73871-1.1272-.03937-.05841-.1405-.0752-.21308-.11127a1.14812,1.14812,0,0,0-.01934.27722,2.82527,2.82527,0,0,1,.1184.62751c-.00518.07507-.13086.35437-.42584.12286a15.09066,15.09066,0,0,0-1.622-1.02789c-.29712-.17694-.52856-.02588-.56286.34332-.0716.77014-.11023.80127-.77875.41565a4.173,4.173,0,0,1-.62195-.52692.52232.52232,0,0,1-.34393-.147c.00616.09808.01037.19647.02453.29334.01374.09344.08326.18878.06952.2738-.01794.11151-.06891.27106-.15014.30572a.4344.4344,0,0,1-.38031-.03222c-.1117-.09491-.12513-.30268-.23444-.404-.0191-.0177-.0434-.02985-.06372-.04627a.814.814,0,0,1-.41174.19666.67634.67634,0,0,1,.006.06787c-.024.25024-.08936.68493-.19525.70331a1.88552,1.88552,0,0,1-.96643-.12482,4.13622,4.13622,0,0,1-.79193-.53821c-.20655.364-.05036.67236.1,1.01416a1.0433,1.0433,0,0,1-.00464.704c-.04327.12323-.21411.50263-.4848.12726a.59274.59274,0,0,0-.21832-.21295,5.39944,5.39944,0,0,0-.55866-.17291.646.646,0,0,1-.021.183c.0238.09717.0498.19391.06616.2923a.70191.70191,0,0,1,.00037.30487,1.04921,1.04921,0,0,1-.22522.509c-.08185.06549-.32563-.02887-.474-.09937a7.21192,7.21192,0,0,1-.647-.38763c.0398.23346.08454.46631.11707.70081a1.54454,1.54454,0,0,1,.00128.30749c-.02112.33246-.04657.66461-.07037.99689-.19348-.24115-.38227-.48633-.5824-.7218-.04144-.04871-.093-.08741-.13769-.13367a.53263.53263,0,0,1-.43244-.00909c-.008.19207-.008.38482-.00781.57745.05194.08758.10284.17548.15521.263A.69882.69882,0,0,1,9.87489,15.41c-.07507.43829.01508.90417-.0227,1.34845a2.24967,2.24967,0,0,1-.09442.37036,3.303,3.303,0,0,1-.42011-.21179c-.111-.076-.1831-.21088-.29632-.281a5.24011,5.24011,0,0,0-.53058-.26184c-.01331.007-.02448.01721-.03821.02344a3.64412,3.64412,0,0,0-.03113.647c.01905.18347.14411.35474.17249.53907a1.01422,1.01422,0,0,1-.08972.368c-.07257-.07026-.146-.13965-.21753-.21088-.24231-.24152-.47766-.4906-.72907-.72223a.91168.91168,0,0,0-.16913-.10547,1.48747,1.48747,0,0,1,.04108,1.0697c.02564.06549.04608.13349.07532.19721.13293.29.1347.55548-.14728.68585A.745.745,0,0,1,6.799,18.7664c-.21063-.12445-.33643-.14477-.4-.072-.00366.01795-.00317.03516-.0075.05323a.55513.55513,0,0,1-.038.07873.91854.91854,0,0,0,.01245.21515,5.28443,5.28443,0,0,0,.116.56781c.17841.63184.16254.64923-.45691.81952a.45617.45617,0,0,0-.26416.29272,3.86973,3.86973,0,0,0-.01471.613c-.00885.16254-.04175.32379-.064.48566q-.24775-.10923-.49561-.21839c-.07245-.03186-.14514-.06329-.21771-.09491a.756.756,0,0,0-.03473.28895c.06329.211.16675.4096.2392.6184a.54363.54363,0,0,1,.03106.28785c-.05951.24493-.67248-.18207-.49518.419a6.51317,6.51317,0,0,1,.04029.91046c.06122.442.62414.78516.2594,1.31494-.3324-.27117-.66181-.5462-.99952-.8106l-.01263-.00611a2.19584,2.19584,0,0,1,.00787.697c.03406.08838.06818.17493.10175.27369-.06177.01519-.12488.02221-.1839.03088l-.00427.01575a.70825.70825,0,0,1-.19653.26843.45423.45423,0,0,0,.00946.08844c.1513.52222.26269,1.057.36547,1.59131.01783.09234-.09259.20941-.14386.315-.08563-.07111-.20513-.12506-.25164-.21619-.374-.73333-.73389-1.47381-1.09925-2.21154-.04229-.08539-.1502-.18738-.12939-.24762a1.72909,1.72909,0,0,0,.07007-.32239c-.07611-.3382-.1402-.674-.18463-1.02173-.26117-.50177-.70032-.93414-.96241-1.42926-.128-.24176-.52032-.35046-.80182-.50067-.10913-.05829-.283-.02448-.36322-.1004A1.52735,1.52735,0,0,1,0,21.34868a1.38766,1.38766,0,0,1,.36206-.10345l.00958.00158-.00317-.00635.02764.0105a1.55886,1.55886,0,0,1,.49964.08545c.02368-.01471.05188-.02551.06079-.051.07281.04138.1452.08435.21716.13006.10852.069.23993-.09491.13953-.18078-.09686-.08271-.19495-.16376-.29315-.24439a.116.116,0,0,0,.0426-.17267,1.39094,1.39094,0,0,0-.62433-.20776c-.077-.00549-.14007-.20654-.20965-.317.12188-.03357.14459-.17389.32428-.18072a.60271.60271,0,0,1,.02728-.06043c.04266.02259.08453.047.12805.06751.00934.00879.02063.01514.03009.02374a1.82173,1.82173,0,0,1,.7207.3833.15264.15264,0,0,0,.03937-.23584c-.09631-.08545-.19592-.16278-.2973-.23718a.15065.15065,0,0,0,.05334-.27838c-.096-.04987-.19116-.10315-.28625-.15631a1.11523,1.11523,0,0,0-.21173-.01441c-.38776.03705-.4076-.21362-.32453-.43133a.51.51,0,0,1,.46607-.176c.051.01776.09741.04206.14734.0614a.67747.67747,0,0,1,.05767-.08343.17579.17579,0,0,0,.0799-.04517,4.223,4.223,0,0,0,.452.30854c.19232.11316.33532-.1623.16955-.29-.13684-.10535-.27594-.20752-.41492-.31a.60958.60958,0,0,1,.05335-.03949,1.89583,1.89583,0,0,0-.21191-.03546,1.44354,1.44354,0,0,1-.40986-.15582c.14881-.15076.339-.45319.43915-.42585l.01325.00367c-.00684-.02491-.01264-.04926-.018-.07337q.0834.05749.167.11475c.05634.0155.1117.03045.16858.04718a.17706.17706,0,0,0,.122-.26459l-.024-.03088c.05671.04834.11365.09607.17005.14532a.18639.18639,0,0,0,.26343-.26343l-.04877-.06012a.19291.19291,0,0,0,.16156-.32379c-.08051-.09-.15912-.18078-.23834-.2713l.02966-.00043c-.06091-.058-.1142-.12158-.17676-.17846-.11139-.1012-.3056-.21839-.048-.35553a.77281.77281,0,0,1,.41839-.08045.201.201,0,0,1,.11127.07233c-.09344-.17243-.18677-.34485-.28772-.5119a.513.513,0,0,1,.12726-.11389.20487.20487,0,0,0,.11609-.054,1.34207,1.34207,0,0,1,.44965-.10138l.00341-.00842a2.58526,2.58526,0,0,1-.15674-.62079.17955.17955,0,0,0,.051-.09387.24564.24564,0,0,0,.10962-.03736c-.02033-.04205-.04358-.08307-.0633-.12524-.035-.07477.06208-.23065.13306-.32257.01813-.0235.178.04.25519.09045.01739.01135.03406.02667.05164.03955a.21964.21964,0,0,0,.05084-.17492c-.00464-.0235-.01032-.04663-.01526-.07007a.78261.78261,0,0,1,.08893-.00067c.019.021.037.04266.05664.06317a.20093.20093,0,0,0,.347-.1001.31485.31485,0,0,1-.10424-.11481c-.08387-.22967-.28022-.60327-.20362-.67431.11463-.10639.2049-.11774.2818-.083l-.01245-.02844a.253.253,0,0,0,.14813-.07776c.02027.02453.039.04992.05957.07422a.246.246,0,0,0,.40937-.08857.26451.26451,0,0,0,.28472-.28759,5.66422,5.66422,0,0,0-.63635-.43708c-.115-.06372-.12268-.3211-.18017-.48858.12457.03058.2481.06738.37414.09.12885.02314.30414-.01611.38336.05561.13379.12121.27527.2221.41224.33221-.02887-.07818-.05768-.15637-.08863-.23364a.2606.2606,0,0,0,.23419-.32629c-.31048-.09613-.3565-.40918-.48449-.64905-.01722-.03217.11236-.2013.1466-.19306a2.95147,2.95147,0,0,1,.68067.20227c-.02313-.06134-.04322-.124-.06769-.18475a.21738.21738,0,0,0,.17364-.18115.70219.70219,0,0,1,.06635-.08093A.6043.6043,0,0,1,5.69545,10.62c-.19226-.16-.09827-.19842.41278-.41565.08789.08789.16767.16876.25305.25476a.264.264,0,0,0,.30146-.27691.29991.29991,0,0,0,.21472-.01514.6088.6088,0,0,0-.7179-.014c.02411-.19519.02832-.55267.07569-.55847.24646-.03027.63476-.06665.73657.07245a3.06035,3.06035,0,0,0,.4461.47272.28191.28191,0,0,0,.07618-.35218q-.07691-.13485-.15332-.27a.333.333,0,0,0,.12518-.2171.30788.30788,0,0,0,.22052-.06274l.01562.027a.26307.26307,0,0,0,.21485.12292q-.44769-.57185-.89435-1.14441c-.07239-.093-.1358-.193-.20337-.28973.161-.01514.38678-.10565.472-.03247.29333.25195.56555.52874.83422.80883l-.0086-.02374a.295.295,0,0,0,.44842-.31836c-.04565-.21911-.10223-.43518-.16211-.65027.01136-.00927.02344-.0177.03534-.02636.10688.14471.21717.28711.33557.42407a.30063.30063,0,0,0,.499-.29047c-.064-.18506-.13251-.36841-.20282-.55108a.30455.30455,0,0,0,.4765-.31708c-.02039-.07123-.043-.14154-.06629-.21161.03766.03735.08265.06964.12226.10559a1.02241,1.02241,0,0,1-.20319-.35919,1.46436,1.46436,0,0,1-.02771-.28913c.12079.00379.28516-.0404.35327.02143.13922.12634.19733.34582.34113.46277a.8549.8549,0,0,1,.16064.1839.34446.34446,0,0,0,.027-.18555c-.01422-.088-.03192-.17493-.05029-.26166.04449.06067.08862.12164.13714.17969a.24831.24831,0,0,0,.40223-.00983c-.09143-.09-.16791-.192-.26288-.27911-.10205-.09369-.08417-.31818-.12183-.48212.19031.04529.47357-.18335.54077.23657a.411.411,0,0,0,.095.18073.31534.31534,0,0,0,.27686-.20148l.00165.003a.29916.29916,0,0,0,.54846-.109c-.111-.23474-.21143-.47552-.30988-.71435-.04486-.109.0766-.28644.12159-.43237.09191.09893.26477.19909.26318.2965a1.00758,1.00758,0,0,0,.01752.14936.29831.29831,0,0,0,.395-.34351l-.00629-.037a.33864.33864,0,0,0,.11127.0185c.028.09466.05664.18915.08685.28326a.28043.28043,0,0,0,.26221.18994c-.14057-.3435-.25611-.69848-.40027-1.03967-.03693-.0874.04413-.22455.07055-.33868.099.05767.23609.092.28882.1781a5.42782,5.42782,0,0,1,.21552.52392,3.182,3.182,0,0,1,.13183.34638c-.00445-.19129-.01239-.38214-.02075-.57263a.272.272,0,0,0,.11359.0791c.008.01642.015.0332.02319.04962.14093.27984.50165.10779.53131-.14392.007-.05994.01142-.11963.01624-.17932a.25593.25593,0,0,0,.22925.11755,6.76144,6.76144,0,0,1-.17176-.885.97584.97584,0,0,1,.08924-.33508c.09594.095.25793.178.27746.28668a7.32133,7.32133,0,0,0,.2378.92651.25043.25043,0,0,0,.34668.09021c.0791.22827.48236.28327.526-.00311.02484-.16266.0412-.3255.05474-.4884.0116-.00544.02283-.01142.03479-.01618a4.15648,4.15648,0,0,0,.14148.39636.29193.29193,0,0,0,.17243.16169l-.00684-.02a3.35212,3.35212,0,0,1-.05566-2.68195,1.71682,1.71682,0,0,1,.2771-.29437,1.45679,1.45679,0,0,1,.0285.40253,2.81266,2.81266,0,0,0,.07514,1.93335c.022.04358.041.08868.06121.13311.01484-.25659.02936-.51312.0351-.77l.00244-.0003-.00207-.01282.00006-.00128a.28889.28889,0,0,0,.11609.19556,1.23242,1.23242,0,0,1,.85412-1.20649c.13385-.05236.11249-.42742.23908-.59625.10034-.13385.3172-.1803.48236-.26562-.01551.141-.038.28155-.04523.42291-.01868.36389-.04163.72815-.05365,1.092a.26545.26545,0,0,0,.19476-.17212c.05506-.19543.10157-.39246.145-.59015a.32387.32387,0,0,0,.193.01886,1.17639,1.17639,0,0,1,.12262.061c.00586.10937.01294.21881.024.32824a.27769.27769,0,0,0,.53931.08344,1.5256,1.5256,0,0,1,.20325-.65747c.0531-.08777.18152-.12989.27514-.19312.04322.11353.13446.23249.1225.33985-.00384.03411-.00128.06463-.00464.09845l.01044-.019a.75892.75892,0,0,1,.092.00818,1.63774,1.63774,0,0,1,.26575.00324,1.67891,1.67891,0,0,1,.1521-.12958.32594.32594,0,0,0,.18615.09137c.03839-.17645.088-.35175.13733-.52374.032-.11139.179-.20154.29309-.26746.02283-.01318.20624.17377.19519.191a2.00482,2.00482,0,0,0-.17089.33545c.00964.11243.01245.22467.03241.33722.04425.24945.32531.24786.47637.10748a3.05026,3.05026,0,0,1,.6601-1.96228,1.99315,1.99315,0,0,1,.28784-.21332c.02112.12806.10718.304.05347.377a2.4625,2.4625,0,0,0-.43958,1.57281.30615.30615,0,0,0,.34436-.20483c.05237-.17011.10144-.34107.14917-.51239a.33522.33522,0,0,0,.24439.082c.0437-.19293.089-.38532.132-.576.09753-.43292.49377-.38831.83056-.3595a.2546.2546,0,0,1,.1742.17554c.00586.07172-.09839.22308-.12525.21668-.0205-.00483-.03405-.002-.0531-.00525.00037.06475.00086.12945.0055.19452a.33219.33219,0,0,0,.20861.27209c.09241-.21478.18616-.42926.27869-.64325a2.46529,2.46529,0,0,1,.36487-.564.27075.27075,0,0,1,.26306-.03985c.062.03979.08618.16888.08838.25983.001.04962-.08179.09838-.12024.15216-.0387.054-.06555.11-.09851.165a.64592.64592,0,0,1,.29773.42286c.00879-.008.017-.01667.026-.02424a.71447.71447,0,0,1,.4707-.29614A1.87268,1.87268,0,0,1,25.6274.44725a.29722.29722,0,0,1,.2771.00751A.2791.2791,0,0,1,25.93831.728c-.13391.16883-.30127.31073-.44873.46942-.01721.21778-.03931.43512-.043.65418a.29354.29354,0,0,0,.574.07764q.01611-.06556.03271-.13123l.00781.00763.01331-.117A1.7266,1.7266,0,0,1,28.4034.1c.06274.01959.11011.14466.12842.22852a.17452.17452,0,0,1-.04541.11572A.9522.9522,0,0,1,28.613.54021c-.02014.0683-.04052.13653-.05945.20526a.272.272,0,0,0,.15015.31891c.01782-.04639.03687-.09241.0542-.13892A.81011.81011,0,0,1,29.23177.522c.15185-.04913.48608.02624.51611.11883.104.32129-.20911.20771-.36328.28919a.85413.85413,0,0,0-.33289.363.27692.27692,0,0,0,.51233.16058c.06006-.0824.11743-.16663.17285-.25195.01221-.00031.02356-.00238.03589-.00244.03528-.00013.07032.00177.10523.005a.80457.80457,0,0,1,.40271.04785c.04016-.05646.06775-.11847.1134-.17242A1.94765,1.94765,0,0,1,31.06819.569c.11377-.05036.32166.11212.48682.178a3.31686,3.31686,0,0,1-.29578.21582C31.243.97221,31.2303.9843,31.21443.994a1.07341,1.07341,0,0,1,.332-.02819l-.01513.0495a.29269.29269,0,0,0,.48535.28253c.07251-.06653.14014-.137.20532-.20929a.27617.27617,0,0,0,.31824.12543c.036-.00983.06872-.02454.1029-.0373.01758.02912.03467.06006.05127.0932.012.02368.01477.0528.02466.07807a1.54451,1.54451,0,0,0,.31751-.29828.44476.44476,0,0,1,.34777-.12518,2.254,2.254,0,0,1,.49317.173,3.64168,3.64168,0,0,1-.33618.25171,2.35683,2.35683,0,0,0-.64136.837.24776.24776,0,0,0,.36841-.016c.14172-.181.27771-.366.41211-.55225a1.81929,1.81929,0,0,1,.5227-.06433.7504.7504,0,0,1,.2793.05976,1.308,1.308,0,0,1,.5144.03265c.14991-.18512.30567-.36694.4524-.55316a.79711.79711,0,0,1,.2146-.13794c-.00733.11682.02673.26044-.02881.34583-.18653.28668-.38355.56658-.57849.84777a.23516.23516,0,0,0,.2218.10822,1.3864,1.3864,0,0,1,.53052-.49048,1.18343,1.18343,0,0,1,.95752-.07141,6.99814,6.99814,0,0,0,1.73242.047,2.003,2.003,0,0,1,.554.14422c.05811.01966.09827.09229.14661.14063-.04114.03973-.08911.11908-.12219.11328a.73852.73852,0,0,0-.95118.488.28992.28992,0,0,0,.40625.09484c.08008-.05566.15577-.11584.23035-.17767a.26055.26055,0,0,0,.08337.04749c-.01123.04889-.021.09838-.02844.14862-.04211.28112.30921.59509.54285.316l.01611-.0196a.325.325,0,0,0,.29956.04816.32172.32172,0,0,0,.02759.19952,7.759,7.759,0,0,1,.99292-.64978c.14124-.07672.36328-.00451.54858-.0003-.10937.11053-.21386.22662-.3291.33081-.03833.03473-.07739.06872-.11584.10327a.31267.31267,0,0,0,.1466.02777.2497.2497,0,0,0,.20191.2796c-.00745.00684-.014.01526-.02173.02131l-.00769.00634a1.07915,1.07915,0,0,1,.12927.20935.67611.67611,0,0,1,.35083.21277l-.00317.01837a.33748.33748,0,0,1,.16675-.04644c.2478.01556.69946.06951.70483.13647.04028.51013-.3844.15906-.58069.2655-.09948.054-.20886.10236-.32019.14991.00366.02868.00049.05517.00611.08447a.33822.33822,0,0,0,.55969.14776c.04455-.03973.0874-.08117.13122-.12158a.35159.35159,0,0,0,.17334.276,5.06419,5.06419,0,0,0,.6261-.18487,2.29484,2.29484,0,0,1,1.903.06372c.0896.045.13684.17389.20361.264-.10791.04156-.22852.13806-.32178.11639-1.12353-.26148-1.52331-.26032-2.03369.26343q.07673-.03607.1532-.07251a.3562.3562,0,0,0,.2821.07593c-.00634.05487-.01025.11047-.01123.16711a.34311.34311,0,0,0,.406.33044c-.03.04963-.06116.09827-.08972.14893a.3378.3378,0,0,0-.04383.20386,12.96546,12.96546,0,0,0,1.24768-.64716A4.31474,4.31474,0,0,1,46.399,5.23345c.064-.00623.13868.098.20826.15106-.073.08386-.14356.23767-.21949.24048a2.35013,2.35013,0,0,0-1.69384.38226c-.13892.12787-.28663.24628-.43287.3659a.67645.67645,0,0,1,.20838.15589c-.07239.10992.02429.2995.171.257a.19156.19156,0,0,0,.23389.1831c.073-.01068.14453-.0249.21545-.04077-.08606.13873-.03626.37518.16772.34845.101-.01324.20008-.0321.29883-.05273.01721.01446.03357.02984.04932.04565a.25007.25007,0,0,0,.20837.412l-.00122.01135c.22-.00183.43982-.00458.65943.00183a1.13791,1.13791,0,0,1,.55859.1275c.22534.14386.60461.46424.571.52912-.24585.47351-.43969-.11359-.71484-.09455a1.90084,1.90084,0,0,1-.37817-.01916.33593.33593,0,0,0,.49463.30859c.06054-.02789.12-.05774.17932-.08789.1455.13471.28674.2829.44067.40369a.60325.60325,0,0,1,.11292.12048,3.489,3.489,0,0,1,1.05688.60694c.56543.48455,1.0669,1.04357,1.59351,1.57324a.898.898,0,0,1,.09692.1441.77182.77182,0,0,1-.2749.07257c-.418-.05627-.83264-.13818-1.25073-.19433a.76542.76542,0,0,0-.2743.07379c.057.07257.11316.14581.17151.21734a.36128.36128,0,0,0,.07251.07221c.1792.12244.35987.24261.54.36359-.19885-.03882-.397-.08259-.59668-.11567a1.82171,1.82171,0,0,0-1.352.444,4.70013,4.70013,0,0,1,.79419.45746,1.35376,1.35376,0,0,1,.30505-.05859c.01477-.01239.02637-.02881.04187-.04016a.901.901,0,0,1,.24121-.12537q.16334-.01657.32483-.04053a.27033.27033,0,0,0,.2251.207,3.11236,3.11236,0,0,0,.504.04963.25571.25571,0,0,0-.08276.0957,2.89451,2.89451,0,0,1,1.78711,1.29694.87984.87984,0,0,1,.08044.27355,1.2375,1.2375,0,0,1-.34558.06525c-.21973-.02215-.4386-.05133-.65747-.08056.04553.03955.09082.07934.136.1181.09937.08514.197.17187.28858.26312a.33127.33127,0,0,0,.06006.1648c.12426.04675.24658.10076.374.13659a1.73838,1.73838,0,0,1,.9895.79663c.10279.15271.22608.29157.34009.43671-.16919-.0498-.33606-.11084-.50806-.14722a1.37476,1.37476,0,0,0-.78369.14447c.06861.05634.14185.1131.2041.16938a1.24241,1.24241,0,0,0,.23059.305.32776.32776,0,0,0,.14673.08649c.031.03723.058.08.08765.11871.58313-.00519.62549.08472.653.8175.01856.48993.36975.551.64942.75373.09814.0711.10327.27081.15088.41186a1.64106,1.64106,0,0,0-.29981-.13525.92982.92982,0,0,0-.29992-.00324c.03381.11261.06982.21973.10412.337.00916.00995.0188.01886.02759.02978.01367.01709.02136.03388.03406.05091a.52813.52813,0,0,1,.49267.51965,2.17426,2.17426,0,0,0,.15564.42383c-.11023-.06513-.22021-.13049-.33081-.19519.01563.083.0293.168.04114.2597a4.85633,4.85633,0,0,1,.00232.70587,1.29977,1.29977,0,0,1,.16492.48945.83857.83857,0,0,1-.139.47168l.00122.04888c.07251-.00793.16516-.00494.23523-.01428C53.95662,21.998,54.00813,22.11089,53.97322,22.1801Zm-2.41284-6.68658a.54921.54921,0,0,0-.156-.00306.58115.58115,0,0,0,.14417.29035,2.1713,2.1713,0,0,0,.17908-.1994A.7477.7477,0,0,0,51.56038,15.49352Zm-7.33105-3.56971c-.0116.00232-.02393.002-.03577.00379l.00561.02643ZM48.43941,10.08a.38842.38842,0,0,0,.37683.35443.364.364,0,0,0,.0387.12287c.17981-.04114.36621-.07544-.01722-.30725A1.9103,1.9103,0,0,0,48.43941,10.08ZM37.23128,2.18614c-.01428.00769-.03.02869-.04456.0387.02576-.016.05384-.0296.07886-.04633.02039.23719.28064.43079.48792.2331a.89461.89461,0,0,0-.24073-.25641A.34464.34464,0,0,0,37.23128,2.18614Zm-1.127-.10327-.00049.00031a.31383.31383,0,0,0,.37646-.05976A1.18677,1.18677,0,0,0,36.10433,2.08287ZM30.66487,7.10478l.03174.0138c-.0061-.00989-.0144-.01563-.02014-.02588ZM27.86165.77165a.85541.85541,0,0,1,.081.08551A.36022.36022,0,0,0,27.993.80382c.05578-.07379.09936-.15509.14892-.23273A.78674.78674,0,0,0,27.86165.77165ZM14.91622,9.473c.03747.007.07293.01574.11254.02081-.0094-.02423-.02093-.04785-.03-.07214-.01209.00024-.02417-.00006-.03626-.00043C14.95131,9.44267,14.93,9.45384,14.91622,9.473Zm1.50128-.90283-.00934-.00586a1.34067,1.34067,0,0,1-.137-.1059c-.01452.01068-.03088.0177-.04595.02747.02709.14141.07586.279.11468.41827C16.36531,8.79265,16.38808,8.68034,16.4175,8.57012Zm6.54913-7.52a.26008.26008,0,0,0,.33655-.06183c.01782-.02191.03357-.04492.05054-.0672l.00866.01105c.00769-.01307.01795-.02485.02686-.03736A.39753.39753,0,0,0,22.96663,1.05016ZM17.01491,2.80675a.29224.29224,0,0,0,.15326.00238c-.00678-.01453-.01483-.02924-.0202-.04364C17.10988,2.78032,17.06246,2.79356,17.01491,2.80675ZM4.02345,23.68437l-.01489-.02716c-.012.0091-.02276.0199-.0354.02808C3.98958,23.68541,4.00789,23.68334,4.02345,23.68437ZM18.11379,9.51457c.01867-.00464.033-.02758.0465-.05505a.82267.82267,0,0,1-.13592.05469A.24491.24491,0,0,0,18.11379,9.51457Zm3.96783-.69421a.91119.91119,0,0,1-.28833-.043c-.0293.039-.01147.08087.14563.13116C21.96712,8.91753,22.02913,8.87425,22.08162,8.82036Zm1.543-.41174a.7898.7898,0,0,1-.15833.05481c-.01721.0028-.02966-.00159-.04626.0003.01977.07776.045.15424.06811.2312A2.82288,2.82288,0,0,1,23.62459,8.40862Zm1.42432-.02289a.28649.28649,0,0,0-.30811-.08051.41235.41235,0,0,0-.06519.068c-.01037.01684-.00463.04357-.0061.06591Zm9.00537-.35987a.44957.44957,0,0,1,.0343-.05017,1.24562,1.24562,0,0,1-.12146-.1972c-.02356.007-.04932.00195-.07337.00726-.00256.05207-.00549.10425-.00842.15625C33.88387,7.96672,33.99532,7.99779,34.05428,8.02586Zm1.80615.06141c-.02625-.01764-.05969-.02552-.08423-.04541a2.12451,2.12451,0,0,1-.199.1051c.05.05627.09851.11139.136.15826C35.75789,8.23241,35.81477,8.16008,35.86043,8.08727Zm1.48364.0899.01026-.02685a1.16632,1.16632,0,0,1-.36951.00866C37.04817,8.38414,37.24361,8.41094,37.34407,8.17717Z" style="fill:#fff"/><path id="fill2" d="M53.47505,22.53054c.02117.062.04389.12487.06948.19006.23741.60436-.63186,1.04923-1.04776.69868a.64526.64526,0,0,1-.121-.07187,1.65874,1.65874,0,0,1-.58658-.9411,3.0306,3.0306,0,0,1-.07541-.29616.63771.63771,0,0,1-.28744-.52556c.00021-.02042-.00119-.04045-.00149-.06074a.94623.94623,0,0,1-.15811-.79122,1.83076,1.83076,0,0,1,.0729-.25218c-.00007-.00831.00016-.01655.00019-.02487l-.01265-.0284a1.052,1.052,0,0,0-.12008-.11879.53133.53133,0,0,1-.19452-.35513A8.28647,8.28647,0,0,1,49.977,18.12669a1.99691,1.99691,0,0,0-.13672-.22312c-.0202-.01407-.0406-.02631-.06051-.04254a1.72685,1.72685,0,0,1-.48207-.61955,2.81559,2.81559,0,0,1-.61464-.97409,1.1932,1.1932,0,0,1-.14324-.07428,1.79569,1.79569,0,0,1-.73325-1.00446c-.02443-.03724-.04815-.07475-.07068-.11284a.64555.64555,0,0,1-.37115-.28575c-.10261-.15989-.20817-.31743-.31514-.47412-.00743-.00569-.01638-.01008-.024-.01564-.0372-.01977-.07467-.04078-.11286-.064a.60744.60744,0,0,1-.065-.04627,4.80924,4.80924,0,0,1-1.17561-.75725.748.748,0,0,1-.27348-.16271,1.27546,1.27546,0,0,0-.73262-.40546.629.629,0,0,1-.41323-.94333.81617.81617,0,0,1-.39278-.008,1.07732,1.07732,0,0,1-.18532-.06827.85972.85972,0,0,1-.71235-.19975c-.56984.11748-.89817-.263-1.07346-.78363a1.3744,1.3744,0,0,1-.60487-.03194.71387.71387,0,0,1-.50634-.6651c-.01145-.13482-.018-.28968-.01806-.45743a1.26683,1.26683,0,0,1-.18972-.14091.93558.93558,0,0,1-.568-.35794c-.53716.15184-.89391-.19478-1.08391-.715a.81788.81788,0,0,1-.2959-.15858,1.34773,1.34773,0,0,1-.89519-.05976,1.31189,1.31189,0,0,1-.24517-.14615,1.17492,1.17492,0,0,1-.5298.02808,1.22515,1.22515,0,0,1-.42533.10839,1.03557,1.03557,0,0,1-.75043-.22351,1.74938,1.74938,0,0,1-.83141.312.91925.91925,0,0,1-.97765-.57536.94753.94753,0,0,1-.75436-.088,1.16415,1.16415,0,0,1-.43422-.44081c-.03926.01951-.0784.03751-.11721.05256-.65823.25584-1.58836.49323-1.98486-.20951a.95984.95984,0,0,1-.52608.37824l-.01388.00353a1.59853,1.59853,0,0,1-.23876.314.68771.68771,0,0,1-.95,0c-.02494-.02049-.04541-.04326-.06758-.06512a.83007.83007,0,0,1-.97985.40716.75376.75376,0,0,1-.81023.07337.96044.96044,0,0,1-.93967-.27476,1.50388,1.50388,0,0,1-.23238-.25787.741.741,0,0,1-.14164.04045,1.15332,1.15332,0,0,1-.2415.20531.58316.58316,0,0,1-.53256.05236,1.17914,1.17914,0,0,1-.31946.39231.69541.69541,0,0,1-.93417.004.86171.86171,0,0,1-.28246.09772.91912.91912,0,0,1-.30328.00209.98757.98757,0,0,1-.53364.13005.85812.85812,0,0,1-1.05885.08934,1.18506,1.18506,0,0,1-.23354.00478.76136.76136,0,0,1-.20068.101,1.14026,1.14026,0,0,1-.49651.52248.66564.66564,0,0,1-.89145-.23372A2.54917,2.54917,0,0,1,19.54544,8.65a.56266.56266,0,0,1-.62251-.03612c-.02629-.02029-.05447-.03646-.082-.054a.7048.7048,0,0,1-.23669.33137.769.769,0,0,1-.93622.63159.60283.60283,0,0,1-.796-.10806,2.76635,2.76635,0,0,1-.412-.81786c-.01728-.01066-.03456-.02094-.05187-.03265a1.35878,1.35878,0,0,1-.137-.1059.83027.83027,0,0,1-.14452.08626c.08883.22161.17531.444.25436.669.257.73134-.9217,1.22241-1.24978.52687-.0495-.10491-.09238-.21153-.13237-.31887-.01208.00026-.02416-.00006-.03626-.00039a.56262.56262,0,0,1-.39913.28215.574.574,0,0,1-.85139.17384c-.11576-.08659-.22983-.17842-.3424-.27306a8.19458,8.19458,0,0,1,.29205.96172.657.657,0,0,1-.98559.72976c-.00672.00982-.013.01983-.02025.02932.01237.08817.0222.17672.027.266a.68065.68065,0,0,1-1.147.4751,1.5206,1.5206,0,0,1-.22506-.23791.58167.58167,0,0,1-.068.14471.67023.67023,0,0,1-.173.61831c.33473.63021-.45129,1.40317-1.0028.82846a.50774.50774,0,0,1-.256-.04451c.202.34525.40437.69023.61029,1.0343a.69794.69794,0,0,1-.61253,1.00629.7457.7457,0,0,1-.08734.16755.65754.65754,0,0,1-1.049.75124c-.01161-.0127-.02222-.026-.0337-.03882a.757.757,0,0,1-.37083.163.64571.64571,0,0,1-.71718.20394c-.00664.012-.0125.024-.01966.036a.6414.6414,0,0,1-.13889.1633l.00674.01891a1.34631,1.34631,0,0,1-.06456,1.32693.66676.66676,0,0,1-.73134.29766c-.0556-.01767-.11043-.039-.16482-.06224l-.00368.00131a1.60556,1.60556,0,0,1-.0429.30316.61434.61434,0,0,1-.7959.43151c.01476.05655.0305.11284.04382.17a.66823.66823,0,0,1,.01639.13855.961.961,0,0,1-.51273,1.36856.859.859,0,0,1-.57742.64566,1.03019,1.03019,0,0,1-.16192.71085,1.03872,1.03872,0,0,1-.13563.66287c-.00733.10655-.01564.21147-.0198.31095a.6024.6024,0,0,1-.48809.5916,2.10281,2.10281,0,0,1,.15325.36266,2.22222,2.22222,0,0,1,.00462,1.40638.62778.62778,0,0,1-1.19873,0,11.01912,11.01912,0,0,1-.45561-2.54383l-.007-.02238a.53705.53705,0,0,1-.15335-.07651,10.49928,10.49928,0,0,1-.87524-.93561c-.28173-.25669-.6194-.3103-.83031-.66935a.59775.59775,0,0,1-.02944-.0591c.132.05772.28422.10269.40789.15446a.06715.06715,0,0,0,.08591-.0305.121.121,0,0,0,.09428-.07893c.07282.04136.14519.0843.21718.13.10852.06905.23991-.0949.13948-.18077-.09684-.08273-.19491-.16375-.29312-.24439a.11942.11942,0,0,0,.03315-.20047A5.94187,5.94187,0,0,0,.55877,20.374C.52891,20.34818.49969,20.32174.47,20.29576a.61712.61712,0,0,1,.11025-.244c.04264.02258.08449.047.12805.06748a2.07281,2.07281,0,0,0,.64707.417c.137.05636.24822-.15263.14307-.24583-.09631-.08541-.19589-.16277-.29732-.23719a.15063.15063,0,0,0,.05339-.27835c-.13-.06755-.25983-.13784-.38772-.21167a.74359.74359,0,0,1,.23627-.58839.17585.17585,0,0,0,.07991-.04516,4.22688,4.22688,0,0,0,.452.30853c.19228.11316.33532-.16232.16953-.29-.1368-.10537-.27595-.20754-.4149-.31a.5416.5416,0,0,1,.09314-.06892,1.04991,1.04991,0,0,1,.00577-.25192.65073.65073,0,0,1-.21122-.31684c-.00905-.03057-.01527-.05949-.02175-.08862.0701.04824.13994.0968.21034.14451.14425.09772.35594-.102.24722-.2472l-.024-.03089c.05671.04836.11367.09608.17.14536a.18639.18639,0,0,0,.26342-.26343l-.04871-.06015a.19291.19291,0,0,0,.16155-.32378c-.08051-.08993-.15915-.18077-.23834-.27129.01682-.00026.03351-.00118.05051-.00072-.02552-.06159-.04714-.12416-.06684-.18771a.2278.2278,0,0,0,.03156-.01911c.03428.037.068.07454.103.111.16862.17573.43014-.04706.32583-.25139-.12355-.242-.25782-.476-.39717-.70653a.51141.51141,0,0,1,.12727-.11388.2052.2052,0,0,0,.11607-.054,1.34223,1.34223,0,0,1,.44964-.10138l.00341-.00844a2.58689,2.58689,0,0,1-.15671-.6208.17968.17968,0,0,0,.05094-.09385.19531.19531,0,0,0,.21633-.2025c-.00416-.03443-.0098-.06833-.01494-.10243.15124.13692.37162-.04169.33566-.22515-.00462-.02349-.01031-.04666-.01525-.07009a.77313.77313,0,0,1,.08891-.00066c.019.021.03708.04267.05668.06316.1829.19144.42971-.05131.33946-.26186-.00854-.02-.018-.0394-.02661-.0593a.19058.19058,0,0,0,.17351-.27325c-.05717-.13647-.11691-.27169-.17786-.40625a.25311.25311,0,0,0,.14814-.07775c.02026.02454.039.04993.05958.07422a.246.246,0,0,0,.40934-.08856.27075.27075,0,0,0,.28752-.321c-.002-.01493-.00565-.02946-.008-.04431.1874.1.48005-.034.39184-.28222-.03847-.10819-.07941-.21527-.12207-.32156a.26059.26059,0,0,0,.234-.33c-.01915-.05616-.04089-.111-.062-.16625.03529.02932.069.06.106.08777.18912.14222.459-.09307.39271-.30192-.04743-.14949-.10305-.29563-.16144-.44054a.21735.21735,0,0,0,.17365-.1811.70364.70364,0,0,1,.06632-.081.61318.61318,0,0,1,.19548-.35873c.04632.042.09356.08312.14358.12134.1723.13162.43259-.05962.41243-.25735.179.06421.41561-.06571.38511-.26873a.30012.30012,0,0,0,.34268-.11081l.00076.00138.0004-.00033c.01489.019.02879.03861.04378.05746.20376.25637.5982-.07153.44375-.34236q-.07692-.1349-.1533-.27005a.333.333,0,0,0,.12514-.2171.30756.30756,0,0,0,.22052-.0627l.01567.027c.16576.275.64707.09771.53522-.22567-.0386-.11153-.07913-.2224-.12051-.33294a.295.295,0,0,0,.4484-.31835c-.04564-.21913-.10219-.43518-.16207-.65031.01135-.00923.02343-.01767.03534-.02631.10685.14471.21716.28706.33553.424a.30064.30064,0,0,0,.499-.29047c-.064-.18509-.13254-.36842-.20282-.55109a.30454.30454,0,0,0,.47649-.3171c-.02035-.07121-.043-.1415-.0663-.2116a2.741,2.741,0,0,0,.32741.28274c.23976.17279.48343-.11185.44606-.34289-.01423-.088-.03191-.17494-.05028-.26166.04446.06067.08859.1216.13712.17965.22022.26357.55125-.03351.5124-.29831-.00432-.02952-.01026-.05871-.015-.08817a.30624.30624,0,0,0,.43271-.16873l.0016.003a.30451.30451,0,0,0,.56319-.15257,5.60866,5.60866,0,0,0-.108-.86354l.00674.02094a.29789.29789,0,0,0,.574-.15825l-.00634-.037a.33948.33948,0,0,0,.11129.01852c.028.09464.05668.18915.08686.28326a.292.292,0,0,0,.57091-.07723c-.00378-.21238-.01373-.424-.023-.63545a.27253.27253,0,0,0,.11357.07913c.008.01643.015.03318.02325.04961.14088.27987.50164.1078.53126-.14392.007-.05995.01144-.11964.01623-.17933a.284.284,0,0,0,.52281-.146l-.00034-.012c.04108.08751.08335.17469.12931.26056a.25139.25139,0,0,0,.3569.0983c.07913.22829.48236.28327.526-.00307.02482-.16271.04121-.32555.05475-.48846.01158-.00543.02284-.01138.03477-.01616a4.16179,4.16179,0,0,0,.14148.39636.27565.27565,0,0,0,.53855-.07284c.02887-.35383.04053-.70824.04842-1.06278l.00249-.00032-.00208-.01277,0-.00131a.2745.2745,0,0,0,.54831-.0072c.00756-.16336.0126-.32672.01685-.49015a.27474.27474,0,0,0,.19946-.09837l.00134.01132c.03623.25225.36554.24465.49312.077.06386.2563.46147.2152.52845-.02258.05508-.19543.10158-.3925.145-.59016a.32363.32363,0,0,0,.193.01885,1.1702,1.1702,0,0,1,.12259.061c.00587.10937.013.2188.024.32823a.27982.27982,0,0,0,.54679.074c.03388-.09457.06322-.19.09158-.28568l.03768-.02245a.29887.29887,0,0,0,.43974-.05871c.01064-.0182.02008-.03672.03026-.055a.77025.77025,0,0,1,.092.00818,1.6374,1.6374,0,0,1,.26572.00327,1.67724,1.67724,0,0,1,.15209-.12959.26087.26087,0,0,0,.43948-.04163c.066-.13423.12313-.27076.17477-.40886a4.15787,4.15787,0,0,0,.05907.61438c.05411.30525.476.24628.56126,0a9.90525,9.90525,0,0,0,.2853-1.05774c-.01949.21815-.03773.43642-.052.655-.02258.34669.49169.39251.588.07959.05236-.1701.10139-.34106.14921-.51241a.31063.31063,0,0,0,.47777-.06289c.06116-.108.11509-.21828.16537-.32961a.28517.28517,0,0,0,.44138.0163c.01785-.02193.03359-.0449.05054-.06722l.00871.01106a.55335.55335,0,0,1,.05764-.08043c-.00011.08.001.16022.00675.24079.01983.28019.42193.44466.56995.15439.10662-.20911.20567-.42156.30157-.63538a.66989.66989,0,0,1,.41108.50573c.00878-.008.017-.01663.026-.02422a.72279.72279,0,0,1,.78008-.292c-.03527.349-.06288.6988-.06892,1.05053a.29351.29351,0,0,0,.57392.07762l.03272-.13122a.29377.29377,0,0,0,.38717.1449A.94364.94364,0,0,1,27.15631.48445l.028-.09058a2.40331,2.40331,0,0,1,.34592-.12953q-.02561.12793-.05035.25611a.819.819,0,0,1,.4628.33674.35953.35953,0,0,0,.05039-.05334A4.298,4.298,0,0,0,28.309.30977a.97246.97246,0,0,1,.304.23045c-.02006.06832-.04054.13652-.05943.20525a.29157.29157,0,0,0,.29868.35879l.00081.00609c.04183-.00681.08362-.01231.12525-.01532a.63273.63273,0,0,1,.08535.00223c-.00743.04535-.016.09045-.02213.13613a.28743.28743,0,0,0,.52254.22031c.0601-.0824.11735-.16664.1728-.252.01221-.00033.0236-.00236.03595-.00243.03526-.00013.07033.00177.10516.005a.78015.78015,0,0,1,.50616.08325,1.964,1.964,0,0,1,.41894-.14235,1.33666,1.33666,0,0,1,.74335-.17934l-.01516.04948a.29271.29271,0,0,0,.48535.28255c.07265-.06656.14022-.13705.20544-.20931a.27612.27612,0,0,0,.31819.12547c.03609-.00988.06879-.02454.10285-.03731.01758.02913.03472.06.05135.0932A.92769.92769,0,0,1,32.781,1.543a2.21145,2.21145,0,0,0-.01972.417c.0121.22815.33575.42889.50713.21009.14173-.181.27773-.366.4121-.55227a1.82171,1.82171,0,0,1,.52281-.06433.75192.75192,0,0,1,.27929.05975,1.30879,1.30879,0,0,1,.551.03914c-.01443.07566-.02832.15158-.03889.22862-.02353.17135.07206.39617.28657.3762a1.668,1.668,0,0,0,.7244-.24956.32442.32442,0,0,0,.50444-.00824c.02279-.03162.04609-.06277.06913-.09419-.006.02756-.01276.05479-.01836.08254a.30774.30774,0,0,0,.446.34282,2.39386,2.39386,0,0,0,.25876-.152c.02109.24629.302.45612.51254.21808.01891-.0214.03675-.044.0553-.06584a.85024.85024,0,0,1,.02348.09313c.03258-.01328.06488-.02722.09773-.03992a.49329.49329,0,0,1,.09873-.02526c.0003.02984-.0016.05916.00015.08927a.32117.32117,0,0,0,.47882.27476c.07994-.05564.15578-.11585.2303-.17763a.26113.26113,0,0,0,.0833.04745c-.01121.04889-.02085.09837-.02837.14863-.04215.28111.30926.59507.54292.316l.01608-.01963a.32511.32511,0,0,0,.29957.04817.33367.33367,0,0,0,.55763.30258c.1461-.139.2859-.28366.42257-.43106a.31983.31983,0,0,0,.29047.1398.24983.24983,0,0,0,.20185.27961c-.00737.0068-.01394.01524-.02164.02127l-.0077.00634a1.081,1.081,0,0,1,.12926.20938.67562.67562,0,0,1,.3508.21278,1.30041,1.30041,0,0,0-.02633.60822.33826.33826,0,0,0,.55971.14779c.04454-.03973.08739-.08116.13118-.12161a.34628.34628,0,0,0,.47.30251.22151.22151,0,0,0-.00851.04117c-.05837.04031-.11776.07873-.17582.11983a.20907.20907,0,0,0,.21088.36076c.06948-.03187.13823-.06525.20723-.09811a.35613.35613,0,0,0,.28208.07593,1.67157,1.67157,0,0,0-.01111.16709.343.343,0,0,0,.4059.33045c-.02991.04962-.06113.09831-.08967.149-.20083.35637.24364.64023.53286.41109l.0127-.01054a.67091.67091,0,0,1,.369.21906c-.07235.10989.02427.2995.171.257a.19164.19164,0,0,0,.234.18312c.07288-.01073.14445-.02493.21539-.04077-.086.13869-.03627.37516.16773.34845.10086-.01328.20008-.03213.29881-.05275.01719.01447.03348.02985.04934.04562a.25008.25008,0,0,0,.20841.412.60308.60308,0,0,1-.03194.28647c.00369.02.00654.04032.0087.06087a.55483.55483,0,0,1,.31517.016c.04922.02009.09682.04149.14543.062a.78925.78925,0,0,1,.2755-.01623.34616.34616,0,0,0,.47652.4556c.06057-.02795.12-.05779.17937-.0879.14546.13469.2868.28287.44067.40369a.56015.56015,0,0,1,.19085.64,1.64066,1.64066,0,0,1,.3485.2044,3.11849,3.11849,0,0,1,.362.14085c-.23372.21212-.0144.584.29135.587a.37161.37161,0,0,0,.169.28235.32869.32869,0,0,0-.231.49427.79075.79075,0,0,1-.47762.0845.73061.73061,0,0,1-.31344-.08535l-.02343-.00975a.8362.8362,0,0,1-.30887.00654.77436.77436,0,0,1-.16394.72787,1.15794,1.15794,0,0,1-.11957.11971c.04025.05242.07952.1055.11839.15891a4.671,4.671,0,0,1,.91522.52883c.03448.0076.06872.01643.10289.02618a.947.947,0,0,1,.17629-.16938.90436.90436,0,0,1,.24131-.1254q.16317-.0165.32478-.04052a.27029.27029,0,0,0,.22513.207,3.10587,3.10587,0,0,0,.50393.04968.3349.3349,0,0,0,.094.59546c.2298.05177.46332.09235.69361.14432a.4311.4311,0,0,0,.09395.251c-.25452.081-.4114.44846-.10694.60056l.0247.01093c-.01089.01185-.02146.02409-.0331.035.05084.044.10124.08842.15167.13168.09925.08515.19693.17187.28853.26311a.30216.30216,0,0,0,.09618.21428,1.614,1.614,0,0,1,.178.16441.68664.68664,0,0,0,.13425.72152.648.648,0,0,1-.16444.25637.656.656,0,0,1,.07042.0447c.13189.10164.25113.20034.3616.30009a1.243,1.243,0,0,0,.23053.305.32781.32781,0,0,0,.14675.08646,3.82369,3.82369,0,0,1,.471.72342,8.49123,8.49123,0,0,1,.57426,1.57694c.00919.00995.01888.01885.02758.02978a1.91107,1.91107,0,0,1,.39277,1.05891,4.86363,4.86363,0,0,1,.00229.70588,1.29805,1.29805,0,0,1,.16493.48943.83744.83744,0,0,1-.13908.4717c.00272.05151.00416.10334.00383.15557A.613.613,0,0,1,53.47505,22.53054Z" style="fill:#383838"/><path id="fill1" d="M6.15956,10.15308c.02411-.19522.02832-.55265.07572-.55849.24644-.03027.63472-.06666.73653.07249.72017.98451,2.11035,1.32935,2.50643,2.63485.032.10531.21118.68006.6139.36783.36787-.28522-.0694-.53127-.1863-.68947C8.97093,10.71527,7.989,9.485,7.02261,8.24321c-.07238-.093-.13579-.193-.20336-.28971.161-.01514.38678-.10567.47194-.03251a15.036,15.036,0,0,1,1.09514,1.0795c.07968.084.08153.29613.159.32,1.48535.4572,1.69264,1.81129,2.13052,3.00355.03279.08928.056.182.08367.27319a2.95624,2.95624,0,0,1,.14674-.31A1.068,1.068,0,0,0,10.80336,11.25,5.11706,5.11706,0,0,0,9.03968,8.80791c-.10933-.0668-.13419-.27184-.1982-.41282.18519-.0116.46831-.10559.53936-.02113a15.21277,15.21277,0,0,1,1.09842,1.48909c.29487.45246.52921.94388.80739,1.40785a5.60114,5.60114,0,0,0,.513.708c.03115.03719.17654-.02131.26915-.03559a1.15572,1.15572,0,0,0-.05592-.14469c-.40991-.75383-.80465-1.51666-1.23975-2.25572a3.99444,3.99444,0,0,0-.72688-.92544c-.37976-.34577-.0885-.51086.16835-.67154a1.11934,1.11934,0,0,1,.25664.20532c.27377.4491.58771.82583.8102,1.25045.23243.44355.365.93837.56608,1.39991.07155.16434.04318.55838.4082.32244.16785-.1085.38585-.23753.18332-.5644A13.94911,13.94911,0,0,1,11.63686,8.952a1.43282,1.43282,0,0,0-1.16562-.90343.53816.53816,0,0,0-.20531-.154c-.023-.62846-.70569-.84316-.86647-1.38322a1.46571,1.46571,0,0,1-.02769-.2891c.1208.00378.28514-.04046.35326.02138.13926.12636.19738.34587.34117.46279.40184.32682.38394,1.1098,1.16657,1.04591.13223-.01077.33712.24324.42477.41708.44109.87478.849,1.76626,1.28321,2.64465a1.71394,1.71394,0,0,0,.31793.35,2.06627,2.06627,0,0,0,.08364-.37407,3.63349,3.63349,0,0,0-.85785-1.9991,11.156,11.156,0,0,0-2.0044-2.457c-.10209-.09366-.08419-.31818-.12186-.48207.1903.04529.47357-.18336.54081.23652.02682.1674.22788.32492.37934.45127A8.63577,8.63577,0,0,1,13.32921,9.2814c.12283.2358.16963.35615.39359.17848.1799-.14269.35808-.27211.12156-.57052-.5846-.73758-1.14439-1.4979-1.66613-2.28108a7.7775,7.7775,0,0,1-.66714-1.36111c-.04489-.10892.0766-.28642.12153-.43237.092.09893.2648.19911.26322.29655-.01411.8888.8898.96664,1.28813,1.48475.015.01952.13454-.00955.13443-.015-.00132-.09266.02016-.21294-.02922-.27337a7.55031,7.55031,0,0,1-.92706-1.97558c-.03692-.08735.04416-.22455.07055-.33866.099.0577.23612.09206.28883.17813a5.417,5.417,0,0,1,.21554.52392c.22665.47886.22,1.09291.969,1.23762.26276.05081.47958.51335.65067.82458.27346.49733.47572,1.03364.74425,1.534.06033.1124.26988.14471.41071.21391.03261-.15732.12777-.33467.08512-.46791a2.61827,2.61827,0,0,0-.40425-.85292A7.04091,7.04091,0,0,1,13.79,3.50735a.97568.97568,0,0,1,.08925-.33509c.09591.09494.25792.178.27742.28667A8.45011,8.45011,0,0,0,15.14223,6.098a.56924.56924,0,0,0,.24161.06637l-.19028-.1177.162-1.02659c.56467.09284.257.61656.35612.89276A16.18084,16.18084,0,0,1,16.222,8.47454c.0266.14549.078.2865.11783.42956.02854-.125.05153-.25156.087-.37449.04183-.14487.09446-.28663.14238-.42971.13695.0822.27657.16028.41019.24757.206.13459-.12555.72348.33083.5435.44209-.17434-.04316-.511-.12278-.71433a39.38739,39.38739,0,0,1-1.52378-3.67059,3.352,3.352,0,0,1-.05566-2.682,1.7166,1.7166,0,0,1,.27707-.29437,1.456,1.456,0,0,1,.0285.40257,2.81261,2.81261,0,0,0,.07517,1.93333c.05215.10363.09717.21088.14549.31645a.79275.79275,0,0,0,.08088-.27176c-.06657-.741.01363-1.38355.84054-1.70691.13387-.05236.11254-.42743.23908-.59626.10038-.13386.31723-.18033.48237-.26562-.01549.141-.038.28154-.04521.42289-.02752.53686-.08159,1.07512-.06254,1.61057.01108.31111.9191.95037,1.10612.799a.77613.77613,0,0,0,.17319-.61862,2.33365,2.33365,0,0,1,.1516-1.62715c.05309-.08775.18149-.12991.2751-.19314.04326.11356.13451.23249.12253.33986A7.31189,7.31189,0,0,0,20.198,6.03c.21811.52518.36585,1.08.535,1.62458.02907.09356-.0388.24131.012.2996a6.7145,6.7145,0,0,0,.54683.51493c-.03166-.20936-.05975-.41934-.09562-.628a13.65577,13.65577,0,0,0-.96982-3.08684,5.35945,5.35945,0,0,1-.09467-2.10985,4.17144,4.17144,0,0,1,.20527-1.04063c.032-.11136.179-.20151.29309-.26743.02278-.01318.20625.17374.19519.191-.62786.97707-.16827,1.98343-.07659,2.97491.00972.105.1802.19519.27612.29226a1.04229,1.04229,0,0,0,.11742-.319c.01053-.718-.04313-1.44044.01933-2.15309A3.07112,3.07112,0,0,1,21.82325.34527,2.00339,2.00339,0,0,1,22.1112.132c.021.12807.10717.304.05343.377-.8128,1.10431-.23191,2.35948-.3866,3.53216-.02072.157.15226.33951.23555.51019a1.81909,1.81909,0,0,1,.16589-.429c.27976-.39177.11805-.77536.09865-1.19565a7.94731,7.94731,0,0,1,.3168-2.05619c.09755-.43289.4938-.3883.83057-.35948a.25449.25449,0,0,1,.17417.17554c.00594.07171-.0983.22307-.12527.21668-.67759-.16091-.60515.55986-.637.74836a10.48916,10.48916,0,0,0-.03361,2.14592c.00529.13366.18464.26045.28366.39041.00321-.13369.00088-.26775.01063-.401a6.48529,6.48529,0,0,1,.119-1.30469A14.81923,14.81923,0,0,1,23.91412.7214,2.46378,2.46378,0,0,1,24.279.15735a.27055.27055,0,0,1,.263-.03983c.062.03978.0863.16885.08838.25978.00115.04963-.08166.0984-.12016.15216a4.7631,4.7631,0,0,0-.48379,2.978.90956.90956,0,0,0,.08752.26978,1.38114,1.38114,0,0,0,.11133-.2393c.14133-.55771.26266-1.12083.41665-1.6749A2.23847,2.23847,0,0,1,25.6274.44728a.29716.29716,0,0,1,.27707.00749A.27926.27926,0,0,1,25.93838.728c-.14784.1863-.33893.33753-.496.51746-.08176.09366-.20743.25785-.17562.32477.2866.60327-.14918,1.19494-.00439,1.783a1.44958,1.44958,0,0,0,.26615.40134c.11386-.13562.30038-.25773.32853-.40931.10161-.54683.15507-1.103.21732-1.65666a1.72663,1.72663,0,0,1,2.329-1.58861c.06276.01958.1101.14462.1284.2285.0102.04652-.04775.15246-.08667.15866-.91614.14659-.79794.86716-.96749,1.52447a11.86074,11.86074,0,0,0-.16259,2.48908c-.00491.10206.0963.20923.14833.314.08484-.10619.24346-.21243.24336-.31853A10.26451,10.26451,0,0,1,28.75785.92546.81026.81026,0,0,1,29.23177.522c.15194-.04913.4861.02626.5161.11885.10409.32126-.20912.20767-.36331.2892a.83677.83677,0,0,0-.39277.47137c-.17837.71791-.32835,1.4451-.43775,2.17647a1.3375,1.3375,0,0,0,.19857.62741.25731.25731,0,0,0,.20916.07075c.24724-.29612.56179-.486.63941-.97213a4.34382,4.34382,0,0,1,.793-2.22424A1.947,1.947,0,0,1,31.06828.569c.11369-.05036.32154.11213.48668.17805a3.32728,3.32728,0,0,1-.29572.21579,1.68852,1.68852,0,0,0-.8729,1.16106c-.13374.662-.2776,1.32213-.404,1.98556-.01587.08323.04814.18168.07514.27309a.989.989,0,0,0,.12123-.21387,8.52042,8.52042,0,0,0,.20469-.838c.09161-.54329.07739-1.13822.86172-1.19862.13171-.01015.25337-.196.37269-.30813.0983-.09236.19938-.28966.27673-.2789a1.15658,1.15658,0,0,0,1.142-.49528.4446.4446,0,0,1,.3477-.12522,2.2559,2.2559,0,0,1,.49322.173,3.65967,3.65967,0,0,1-.33625.25174,2.64217,2.64217,0,0,0-.88784,1.66294.26653.26653,0,0,0,.20179.15279c.48991-.00125.60508.16908.21073.49926-.36733.3076-.15933.69418-.20865,1.04446-.00221.01557.117.07547.13138.06223a4.18665,4.18665,0,0,0,.86967-.8534c.28041-.48726.37946-1.07745.64989-1.57234a9.47413,9.47413,0,0,1,.94113-1.25237.79444.79444,0,0,1,.21446-.13792c-.00729.11677.02677.26043-.0288.34582-.2997.46064-.63277.89975-.92693,1.3637-.062.09772-.0092.26825-.06063.45655a.56917.56917,0,0,0-.06637.24161l.1177-.19028a2.49206,2.49206,0,0,0,.3983-.59473,1.32507,1.32507,0,0,1,.7119-.81135,1.18344,1.18344,0,0,1,.95744-.07143,6.99765,6.99765,0,0,0,1.7325.047,2.00061,2.00061,0,0,1,.55382.14424c.0581.0196.0983.09226.14667.14063-.04108.03968-.08915.11908-.12221.11326-1.06491-.18722-.95012.78223-1.2413,1.31066a3.28978,3.28978,0,0,0-.25282,1.12178,1.25877,1.25877,0,0,0,.11432.44778c.09549-.09561.18546-.1976.2874-.28577.52512-.45422,1.04152-.91975,1.58475-1.35146a7.804,7.804,0,0,1,1.127-.74741c.1413-.07672.36341-.00451.54866-.0003-.10941.11058-.21387.22664-.329.33083-.52185.47217-1.06083.92672-1.55969,1.42182-.11186.111-.08725.3596-.12547.54485a1.67117,1.67117,0,0,0,.62212-.05454c.53653-.28264,1.04451-.61924,1.56653-.93a.71271.71271,0,0,1,.34334-.14986c.24778.01562.69957.06953.70486.1365.04027.51016-.38442.15905-.58072.26552-.39161.21241-.93759.33793-1.13637.66934-.50139.836-1.29812,1.58841-1.11529,2.70876a.45042.45042,0,0,0,.25334.30364c.22419.067.39184-.00539.3565-.3065a3.26747,3.26747,0,0,1,.51625-1.93949,1.43331,1.43331,0,0,1,1.28086-.83423,3.45646,3.45646,0,0,0,1.021-.24983,2.29492,2.29492,0,0,1,1.903.06371c.08947.04506.13677.17391.20359.264-.10792.04155-.22863.13807-.32181.11639-1.47114-.34234-1.69952-.24163-2.56312.90453-.33249.44127-.97111.63411-1.04652,1.29906-.021.18477-.15406.35983-.16071.54209-.00423.1168.12893.23855.20048.35811.06532-.09159.16565-.17467.19031-.27613a1.73558,1.73558,0,0,1,1.2084-1.41514,8.21927,8.21927,0,0,0,2.08168-.94248,4.31368,4.31368,0,0,1,1.64031-.23269c.06387-.00624.13855.098.20821.15106-.073.08386-.14352.23765-.21953.24045a2.35053,2.35053,0,0,0-1.69388.38232c-.17068.15707-.35236.30234-.53184.44956-.20364.167-.41041.33023-.61583.4951.21025.04045.42156.07647.63014.12416a.66889.66889,0,0,1,.166.09346,1.38208,1.38208,0,0,0-.2484.11123c-.319.22465-.638.45029-.9412.69511-.04248.03431.00268.17717.00724.2698a.6855.6855,0,0,0,.2148-.10153,1.74682,1.74682,0,0,1,1.45575-.46036c.54627.02474,1.09483-.00484,1.64176.01108a1.13721,1.13721,0,0,1,.55844.1275c.22534.14383.60473.46424.57107.52908-.24582.47352-.43959-.11359-.71481-.09454a6.81113,6.81113,0,0,1-1.15729-.14664c-.04171-.00451-.14033.13672-.13713.20692a.26422.26422,0,0,0,.1649.18687c.6249.14792,1.26857.23429,1.87591.433a3.4959,3.4959,0,0,1,1.15992.65257c.56536.48452,1.06695,1.04356,1.5934,1.57322a.89654.89654,0,0,1,.09694.14412.77167.77167,0,0,1-.27484.07255c-.418-.05629-.83265-.13817-1.25071-.19434a.76521.76521,0,0,0-.27431.07379c.057.07256.11318.14582.17143.21737a.36227.36227,0,0,0,.07266.07221c.17918.12238.35983.24261.54.36357-.19888-.03882-.39693-.08256-.59676-.11564a2.2077,2.2077,0,0,0-2.221,1.91774c-.00383.09353.129.20684.22226.28086.02544.02017.14269-.06289.20908-.11071a.58394.58394,0,0,0,.14053-.14594c.79571-1.1865,1.17519-1.23838,2.53808-.98687a2.85836,2.85836,0,0,1,1.89977,1.331.88452.88452,0,0,1,.08038.27354,1.23745,1.23745,0,0,1-.34567.06521c-.423-.04266-.84323-.11271-1.26625-.15516-.06727-.00677-.14351.07531-.21559.11631.09128.02745.18522.04815.27336.08344a14.38818,14.38818,0,0,0,1.40966.55748,1.73815,1.73815,0,0,1,.98957.79666c.10279.15271.22608.29156.34006.4367-.1692-.0498-.33605-.11085-.50808-.14724a1.68416,1.68416,0,0,0-1.45625.68315.29071.29071,0,0,0,.00376.26624.32968.32968,0,0,0,.267.06354,5.8319,5.8319,0,0,1,.84243-.18452c.80654-.02258.85065-.007.8815.81313.01845.48991.36966.551.64939.7537.09817.07116.10321.27086.15078.41187a1.64134,1.64134,0,0,0-.29968-.13522.95013.95013,0,0,0-.3066-.00331c-.26144.02582-.6415-.03506-.75751.11088a3.2317,3.2317,0,0,0-.42044,1.03482c-.01431.04478.12467.156.21031.20642.03223.019.13556-.03158.16988-.0777a.81437.81437,0,0,0,.1817-.332c.05885-.41522.29472-.54856.69172-.53983a.539.539,0,0,1,.58934.53487,2.17106,2.17106,0,0,0,.15575.42382c-.121-.07141-.24166-.14326-.363-.21414-.29028-.16968-.73966.108-.84064.51888a10.01145,10.01145,0,0,0,.00962,2.49841c.00023.04887.14128.1381.21214.13366.06621-.00413.15008-.09667.18479-.1699.14882-.31409.268-.64327.43359-.94759.03321-.06106.22154-.03767.33836-.05324.01143.09261.06291.20545.028.27465-.25885.513-.34249,1.11822-.855,1.50259-.15777.11832-.203.38675-.29976.58645-.08566-.27241-.16729-.5462-.25865-.81668-.05048-.14948-.08459-.39257-.18171-.42455-.96383-.31765-.794-1.24557-1.03072-1.92812a8.63192,8.63192,0,0,0-.63077-1.896c-.27768-.44319-.13908-.01107-.2177.07632-.15978.1776-.33628.21224-.40442-.1087a3.31961,3.31961,0,0,1-.18878-.73621c.01752-.48357-.27487-.67926-.55525-1.01157a5.64242,5.64242,0,0,0-1.32347-1.046c-.293-.19444-.6159-.46848-.27667-.91125a.56123.56123,0,0,0,.08138-.37076,5.2958,5.2958,0,0,0-.14113-.63087c-.15579.14384-.31259.2866-.46715.43174-.13682.1285-.27121.25961-.40668.38953-.13827-.16133-.28813-.31456-.40936-.48785-.05053-.07223-.00767-.242-.06228-.27424-.66335-.39144-1.12787-1.07339-1.90854-1.294-.40924-.11567-.71919-.32981-.70874-.82654a2.04257,2.04257,0,0,0-.07953-.58156,2.3838,2.3838,0,0,0-.21143-.42478c-.1067.1188-.2757.22282-.3081.35926-.08933.37625-.36006.56082-.64972.42156-.19647-.09448-.28184-.45053-.38091-.70367a1.54064,1.54064,0,0,1-.0096-.4073c-.03509-.44079-.33244-.54581-.70142-.49844a2.6932,2.6932,0,0,1-1.61428-.38863,1.44684,1.44684,0,0,1-.14376-.553c-.0386-.2263-.0401-.46-.09253-.68233a.32084.32084,0,0,0-.21134-.20474c-.06173-.0089-.16732.10569-.2096.18785-.057.11083-.061.2476-.10714.36565-.19362.49515-.28054.50186-.7607.209-.36294-.22134-.721-.65829-1.19509-.17048-.1687-.16515-.34956-.31981-.50292-.49814-.17983-.2091-.33179-.42033-.57575-.06631a.67365.67365,0,0,1-.24121.15318c-.5534.30084-.72205.22018-.82852-.39467-.02218-.128-.04135-.25662-.06188-.385-.09677.06942-.19767.13389-.28906.2098-.07862.06529-.13551.16209-.2211.21262-.2184.1289-.44746.23975-.67223.35785-.06438-.22936-.12514-.45981-.19471-.68756-.03532-.11554-.08657-.22617-.13061-.339a1.05077,1.05077,0,0,0-.33459.17236c-.10193.115-.13462.28945-.23046.41224a1.4972,1.4972,0,0,1-.30878.23667c-.38123-.73531-1.20181-.003-1.67738-.50934-.25895-.27574-.40562-.107-.39738.2257.00509.20514.01231.41134-.00268.6155a4.32605,4.32605,0,0,1-.086.47636c-.03857-.14637-.03035-.36971-.12348-.42638-.5232-.3183-.48648-.886-.67075-1.35642-.03749-.09577-.185-.14845-.28176-.221a1.80963,1.80963,0,0,0-.06333.28064c-.00963.13516-.05627.328.01273.39845.37725.38507-.00454.466-.22464.50219-.33312.05474-.68431-.00975-1.023.024-.18058.018-.47013.09857-.50662.21489-.20525.6539-.4557.368-.73386.0765a4.32609,4.32609,0,0,1-.56693-.58959c-.09945-.15615-.07962-.44721-.35489-.29743a.89553.89553,0,0,0-.29445.48167c-.08148.23081-.04133.62462-.17925.69234-.38.18665-.64628-.05694-.81481-.42943-.03887-.08592-.22-.1075-.33562-.15865-.03819.1187-.07847.23682-.11318.35653-.00918.03155.00694.07057-.00264.10185-.09822.32031.222.87977-.21479.91882-.242.02161-.53951-.5654-.80834-.88117-.01689-.01983.01171-.07715-.00479-.09878a2.58122,2.58122,0,0,0-.17551-.19193c-.07752.07937-.21785.15559-.222.23865-.02225.44365-.00534.8891-.01486,1.33367a.943.943,0,0,1-.09118.26843c-.11682-.04361-.28181-.05271-.34206-.13688-.26136-.36484-.48769-.75455-.73872-1.12719-.03935-.05842-.14048-.07519-.21306-.11123a1.14538,1.14538,0,0,0-.01933.27722,2.82775,2.82775,0,0,1,.1184.62746c-.00519.07509-.1309.3544-.42587.12291a15.08274,15.08274,0,0,0-1.622-1.02789c-.29713-.17695-.52859-.02589-.56292.34331-.07156.77012-.11023.80128-.77872.41565a4.93516,4.93516,0,0,1-.65931-.56166c-.10128-.08587-.21134-.16136-.3174-.24156.011.141.01491.283.03534.42266.01373.09346.08328.18875.06955.27382-.018.11148-.0689.271-.15013.3057A.43448.43448,0,0,1,16.503,10.312c-.11173-.09494-.12512-.30269-.23444-.404a3.84532,3.84532,0,0,0-.56094-.37089,2.33659,2.33659,0,0,1,.09153.58917c-.024.25025-.08938.685-.1953.70327a1.88531,1.88531,0,0,1-.96644-.12476,4.13856,4.13856,0,0,1-.79189-.53821c-.20655.364-.05038.67234.1,1.01413a1.04357,1.04357,0,0,1-.00464.704c-.04328.12322-.21414.50265-.48485.12723a.59343.59343,0,0,0-.2183-.21294c-.20146-.08206-.41632-.13118-.62575-.19367.03839.1652.08446.32913.11228.49608a.70183.70183,0,0,1,.00035.30482,1.049,1.049,0,0,1-.22524.50909c-.08181.06544-.3256-.0289-.474-.09941a7.21746,7.21746,0,0,1-.647-.38762c.0398.23349.08459.4663.11707.70079a1.54463,1.54463,0,0,1,.00133.3075c-.02113.33244-.04657.6646-.07038.99687-.19351-.24114-.38227-.4863-.58245-.72177a2.362,2.362,0,0,0-.36707-.35648c-.03128-.02368-.19843.0485-.20129.08461-.01877.238-.00969.47821-.00969.71769,0,.17106.07371.41452-.01181.50157-.60954.62044-.34139,1.38755-.40191,2.09927a2.2537,2.2537,0,0,1-.09447.37039,3.30693,3.30693,0,0,1-.42006-.21179c-.111-.076-.18311-.21086-.29635-.281a6.02271,6.02271,0,0,0-.56507-.2789,4.19437,4.19437,0,0,0-.03484.68751c.019.18351.14411.35474.17246.53906a1.01411,1.01411,0,0,1-.08968.368c-.07258-.07025-.146-.13965-.21755-.21093-.24233-.24149-.47763-.49057-.729-.72218a2.20092,2.20092,0,0,0-.35975-.22436,1.24536,1.24536,0,0,0-.02479.39554,6.29842,6.29842,0,0,0,.33181.99023c.13294.29006.13469.55548-.14727.68583a.745.745,0,0,1-.57856-.09943c-.37224-.2199-.50427-.15236-.43307.27515a5.27509,5.27509,0,0,0,.116.56781c.1784.63184.16256.64929-.45693.81954a.45616.45616,0,0,0-.26412.29271,3.86615,3.86615,0,0,0-.01471.613c-.00888.16256-.04179.32384-.064.48567q-.24777-.10922-.49559-.21837c-.07247-.03188-.14514-.06329-.21771-.09489a.75613.75613,0,0,0-.03475.2889c.06331.211.16677.40964.23918.61844a.54354.54354,0,0,1,.0311.28782c-.05955.24492-.67251-.18208-.49517.419a6.52637,6.52637,0,0,1,.04029.91044c.06122.44195.62411.78516.25939,1.31495-.33244-.27116-.66183-.5462-.99953-.81062a1.4605,1.4605,0,0,0-.28811-.13883,3.54018,3.54018,0,0,0,.0961.34968c.09041.2364.192.46854.289.75376-.229.05631-.49669-.01562-.37527.40347.15131.52221.2627,1.057.3655,1.59136.01778.09234-.09263.20938-.14385.315-.08567-.07116-.20517-.12507-.25165-.21622-.374-.7333-.73393-1.4738-1.09929-2.21151-.04229-.08539-.15021-.1874-.12936-.24768.4246-1.22647-.61345-1.89779-1.077-2.77335-.128-.24178-.52034-.35043-.80181-.50066-.10914-.05827-.283-.02446-.36327-.10043A1.5287,1.5287,0,0,1,0,21.34871a1.38723,1.38723,0,0,1,.36209-.10346,1.80726,1.80726,0,0,1,1.57883,1.06752c.46033.88854,1.18931,1.70132,1.14481,2.80769-.0026.06446.08079.13238.12415.1987.02506-.058.07667-.1189.07078-.17356-.03092-.2863.15649-.52388.0278-.86511a12.11927,12.11927,0,0,0-1.58008-2.83075,1.75491,1.75491,0,0,0-1.29-.83984c-.077-.00544-.14007-.20652-.20961-.317.14639-.04035.1344-.24772.44483-.17444A2.31854,2.31854,0,0,1,2.03871,21.2c.4034.567.69173,1.21506,1.04479,1.81931a2.43537,2.43537,0,0,0,.46813.61924c.09716.08444.31082.03479.47181.04577-.06562-.12091-.12365-.24675-.1984-.36171-.17574-.27034-.375-.52638-.53695-.80441-.43266-.74262-.8149-1.51748-1.28834-2.23241a1.33867,1.33867,0,0,0-1.24323-.68167c-.3877.03709-.40756-.21359-.32449-.43129a.50994.50994,0,0,1,.46609-.176,2.60835,2.60835,0,0,1,1.56941,1.23843c.42511.81726.86939,1.625,1.32488,2.42575a2.3331,2.3331,0,0,0,.41591.42705c-.034-.16244-.0792-.32344-.09971-.48756-.049-.39209.05039-.88879-.15378-1.15945-.64566-.85586-.98595-1.9303-1.90677-2.59994a1.39148,1.39148,0,0,0-.817-.278,1.4427,1.4427,0,0,1-.40981-.1558c.14879-.15073.339-.45319.43914-.42582a2.75139,2.75139,0,0,1,1.20229.5271A11.25364,11.25364,0,0,1,3.69016,20.144c.10527.15121.09291.42906.22161.50946.239.14933.03943.72784.503.53748.08576-.03521.06089-.55166-.03947-.79355A9.91543,9.91543,0,0,0,1.85,16.82612c-.1114-.10123-.30558-.21837-.04794-.35552a.7725.7725,0,0,1,.41839-.08045c.079.00784.15868.12459.21688.20722.55893.79348,1.138,1.57442,1.66,2.39166.32267.50513.55236,1.06915.83432,1.60117a1.20779,1.20779,0,0,0,.2292.23943c.05915-.13189.18886-.27733.1665-.39355a5.49314,5.49314,0,0,0-1.493-2.87192,1.05756,1.05756,0,0,1-.32506-.67285c.02927-.715.03337-.74009-.30591-1.18517a4.95822,4.95822,0,0,1-.52241-.91052c-.035-.07481.06206-.23071.133-.32259.01817-.02351.178.04.25522.09043a.57579.57579,0,0,1,.21581.21559,15.9594,15.9594,0,0,1,1.46958,2.88521c.11433.49638.19607,1.1781.914,1.3476.11488.02712.22673.334.287-.03827a2.53129,2.53129,0,0,0-.77126-1.83969c-.05133-.10246-.0115-.23036-.05795-.30319-.26-.40768-.755-.797-.76457-1.20219a1.71775,1.71775,0,0,0-.6761-1.27652c-.04864-.048-.11963-.0882-.14089-.14637-.08387-.2297-.28021-.60325-.20366-.6743.31293-.29036.44707.1183.6101.27961.28086.27785.50935.60793.77579.9016.0726.08.23508.1794.30048.14915.49715-.22983.72006.06223.929.43429.23407.41683.48137.82647.73343,1.23274.045.07263.141.11369.21344.16933.02579-.09178.053-.18319.077-.27545.02411-.09273.03461-.26374.0688-.26832,1.22251-.16379.0972-.56781.017-.64458a16.55214,16.55214,0,0,0-3.1903-2.90659c-.115-.06373-.12267-.32113-.18019-.48858.12461.03058.24811.06734.37416.09.12886.02313.30416-.01611.38335.05562a6.614,6.614,0,0,0,1.67654,1.14744A4.167,4.167,0,0,1,7.56786,15.2018c.19643.34813.34686.52337.72268.49329a2.66086,2.66086,0,0,0,.28487-.05311,2.234,2.234,0,0,0-.12249-.21662c-.28356-.39552-.55665-.79977-.86137-1.17845a5.95021,5.95021,0,0,0-.61919-.60262c-.26813-.24813-.63771-.44249-.78977-.74683-.21589-.43225-.43878-.72233-.95155-.70218-.04634.00186-.09113-.12454-.14548-.13271-.39264-.05912-.41992-.41855-.559-.67919-.01718-.03218.11239-.20133.14659-.19308a1.94374,1.94374,0,0,1,.80667.25928c.5653.49236,1.0687,1.05513,1.61114,1.57487a1.44407,1.44407,0,0,0,.41725.19432c.02953-.15855.133-.35445.07519-.46886A5.67516,5.67516,0,0,0,6.878,11.61143a5.59784,5.59784,0,0,0-.97932-.83746c-.42388-.30941-.435-.29555.20958-.56956.57916.57916,1.099,1.11539,1.63711,1.63252a7.82253,7.82253,0,0,1,1.31138,1.81428c.19815.34474.10171.94082.70483,1.00995-.03719-.43748-.05779-.87749-.12311-1.31074-.01654-.10962-.18143-.193-.26843-.29652-.70285-.83674-1.39407-1.6835-2.10922-2.50956-.28058-.32414-.58272-.69022-1.10123-.39126m43.21947,4.517-.015.19028a.41783.41783,0,0,1,.22038-.19028l.015-.19028a.41786.41786,0,0,1-.22035.19028M46.5046,11.385l.26141-.05609-.04106-.13422a1.69829,1.69829,0,0,1-.4257.19031.38813.38813,0,0,1-.20529.20532,2.21472,2.21472,0,0,0-.61232.44036c-.08893.12737.01055.38625.02564.58623a2.9322,2.9322,0,0,0,.33081-.36743,3.37729,3.37729,0,0,1,.46119-.65916.388.388,0,0,1,.20532-.20532M19.29993,7.38128c-.06845-.14163-.1385-.28249-.205-.425A5.03583,5.03583,0,0,0,18.529,5.75558,3.83469,3.83469,0,0,1,17.24151,3.0301c.007-.085-.06063-.17627-.09356-.26462-.1162.04517-.32327.07479-.3341.138A9.06543,9.06543,0,0,0,16.64242,4.361c-.00323.48445.42084.13775.61192.25487a.6061.6061,0,0,1,.195.26908c.34708.774.71571,1.54029,1.01333,2.33314.10066.26815-.06348.63633.03868.90318.09865.25775.56588-.28908.71415.19314.02231.07251.13732.11652.20943.17371a1.05344,1.05344,0,0,0,.0712-.373c-.03428-.182-.12779-.35294-.19624-.73388m29.36051,3.28509c-.00707-.17318.77265-.05636.17735-.41632-.39558-.23918-.94213-.25685-1.29229-.53555a.66975.66975,0,0,0-.95632.04338,8.39005,8.39005,0,0,0-1.03325,1.15,1.27321,1.27321,0,0,0-.14041.41462c.16389-.05381.37455-.0604.48415-.169a1.89945,1.89945,0,0,1,2.55755-.3864c.02479.015.06665.0019.20322-.10076M36.85464,4.60949c.09574-.09575.24682-.17625.278-.28971a5.07063,5.07063,0,0,1,.63252-1.87626c.0178-.02349-.14411-.22028-.25249-.2883a.34456.34456,0,0,0-.28136.03092,4.04653,4.04653,0,0,0-1.08556,2.8903.31.31,0,0,0,.24239-.01178,5.15775,5.15775,0,0,0,.46645-.45517M34.90411,6.76533c.07838-.41132-.19524-.87779.19545-1.24923.021-.01993-.10108-.19031-.15657-.29066-.21828.14737-.51245.24868-.63658.45319a2.83723,2.83723,0,0,0-.31558.98381A11.34255,11.34255,0,0,0,33.88532,7.942c-.00138.02473.11.05579.16887.08388.19372-.42389.94755-.39667.84992-1.26055m-8.726-2.36116c-.36813,1.0606.12539,2.09225.12928,3.1423.00067.18515.34915.36986.5453.54556.00321.00285.1714-.12256.16306-.17094a20.6834,20.6834,0,0,0-.83764-3.51692m23.0983,9.75261c.36738-.10265.73548-.20271,1.10163-.3096.10717-.03131.20868-.082.31279-.12384-.09724-.09506-.18988-.26592-.29256-.27216-.46655-.02837-.95764-.10271-1.26432.41828-.05634.09572-.26955.09912-.41036.14514a2.2563,2.2563,0,0,1,.0975-.41958c.03767-.08745.162-.13645.20361-.22364a.21785.21785,0,0,0-.26163-.33324,2.06933,2.06933,0,0,0-.42425.21.6655.6655,0,0,0-.28184.79658,4.753,4.753,0,0,0,.365.83065c.15809-.18126.30669-.37237.47943-.53839.0601-.05777.17985-.05351.375-.18023M8.11008,13.02753c-.10328-.0012-.28782-.40955-.27807-.02669a6.24,6.24,0,0,0,.38221,1.36648c.15379.56953.94143.77911.83478,1.50723-.01729.118.16414.26511.25369.39878a4.54808,4.54808,0,0,0,.13908-.47783,1.61857,1.61857,0,0,0-.35592-1.18382c-.30828-.48282-.5836-.98669-.97577-1.58415M36.136,2.659a1.17985,1.17985,0,0,0,.21257-.21963,3.51737,3.51737,0,0,0,.175-.41938,1.52063,1.52063,0,0,0-.41939.06291,3.57839,3.57839,0,0,0-1.19386,2.54883.26488.26488,0,0,0,.18.17123.27921.27921,0,0,0,.21855-.13276A17.61968,17.61968,0,0,0,36.136,2.659M29.77116,7.176l.1595.308c.08371-.10607.26136-.27073.23717-.30951-.42529-.68159.09966-1.60119-.55973-2.21539-.1077-.10035.406-.32662-.056-.33414-.12707-.00211-.35908.17386-.36843.28309a6.02711,6.02711,0,0,0-.00015,1.51665c.036.20948.38234.36563.58766.75132M4.92764,15.38869A7.15561,7.15561,0,0,1,5.8969,17.028a2.03048,2.03048,0,0,0,.62776.96806c.08982.08535.27329.07219.41389.10409.00439-.16065.07226-.3594.00256-.4756A18.20775,18.20775,0,0,0,5.78276,15.8562a1.23562,1.23562,0,0,0-.85512-.46751M31.20839,5.12278a2.80963,2.80963,0,0,0-.00223-.30615c-.01406-.12754-.04444-.25329-.06778-.37981-.11353.10141-.29717.18648-.32549.30781a2.02865,2.02865,0,0,0-.00928.71062c.04587.34913.14813.69084.19377,1.04.03348.25592.01413.51467-.36953.3086a1.07369,1.07369,0,0,0-.2156-.06363c.00707.09226-.01566.24627.02619.26647A3.28133,3.28133,0,0,0,31.145,7.266c.07233.01609.26324-.13131.25569-.18261-.08576-.58305.25109-1.21472-.19228-1.9606M23.201,7.38128c.06845.34685.13509.69408.2066,1.0403.01917.09269.05326.18234.0805.27337a2.31862,2.31862,0,0,1,.14619-.30645c.3547-.5335.14111-1.04163-.00368-1.58437-.0971-.364-.0297-.76892-.45949-.96273-.05847.37088-.12842.74061-.16474,1.11366-.00649.06669.1262.14692.19462.42622m8.52073-4.41434c-.03421.46136-.0797.9224-.09236,1.38434-.00233.08419.12923.172.199.25821.06712-.0888.17479-.16936.19469-.26773.12111-.598.23439-1.19832.323-1.80185a2.726,2.726,0,0,0-.04233-.59956,3.92471,3.92471,0,0,0-.46861.52312c-.06148.09679-.01068.26494-.11334.50347m-17.452,5.74891a8.28072,8.28072,0,0,0,.51087.70084c.06461.07324.22391.063.33993.09091.02436-.12564.10058-.26983.06351-.37352a3.45715,3.45715,0,0,0-.42873-.93747,8.60342,8.60342,0,0,0-.9104-.9038c-.29825.51342.22574.80949.32116,1.2188.00752.03218.001.06765.10366.20424M25.04884,6.14937c0,.3057-.01559.61255.00689.91659a1.68443,1.68443,0,0,0,.14527.418c.15459-.10935.3592-.18868.44838-.33728a.61638.61638,0,0,0,.00581-.4959,3.43683,3.43683,0,0,1-.41026-1.66908c.00354-.051-.12188-.15334-.18942-.15512-.06938-.00183-.20407.09333-.20194.14133a4.64058,4.64058,0,0,0,.19527,1.18148m18.068,4.31169c.16442-.82293.88807-1.2148,1.37345-1.791a1.5695,1.5695,0,0,0,.17193-.35935c-.16093.0204-.39575-.01985-.47051.07128-.41227.50237-.75636,1.0623-1.184,1.54973a.934.934,0,0,0-.2985.803,3.66338,3.66338,0,0,0,.11777.42682,2.36884,2.36884,0,0,0,.28983-.70046M26.48607,3.48024a.68523.68523,0,0,0,.14409.05762c.01571.00278.05393-.04356.05932-.07171.14349-.752.27128-1.50723.43232-2.25539a4.19762,4.19762,0,0,1,.28913-.70671,3.16536,3.16536,0,0,0-.69035.50981,2.01512,2.01512,0,0,0-.23344.70836,7.90776,7.90776,0,0,0-.00107,1.758m10.47123,4.517c-.01025.38106.26479.46387.38685.18A4.70389,4.70389,0,0,0,37.775,5.80034c-.00624-.05722-.064-.1088-.0978-.163-.04822.04739-.11463.08642-.14108.14381a2.87267,2.87267,0,0,0-.16607.44229c-.14228.52155-.27584,1.04547-.41271,1.77381M21.25045,5.63608a5.6413,5.6413,0,0,0,.43009,2.07534c.10727.29507.19832.59648.28552.89824.0292.101-.4141.17486-.02715.29885.05038.01617.21384-.13168.22432-.216a1.87713,1.87713,0,0,0-.00815-.70363,9.92157,9.92157,0,0,0-.90463-2.35276M42.50089,7.99724c.16612-.23457.342-.4631.49357-.70664a1.29747,1.29747,0,0,0,.09915-.34321c-.13923.01784-.31281-.01146-.41214.061a4.29429,4.29429,0,0,0-1.1984,2.12747c-.04005.0988.0395.24612.06364.371.11273-.10168.31772-.19945.32221-.30567a1.77116,1.77116,0,0,1,.632-1.204m-9.13666-2.7718c-.16339.50558-.3462,1.00617-.47871,1.51971a1.40469,1.40469,0,0,0,.08652.53347c.165-.13123.42512-.23251.47755-.39913.17958-.57082.28628-1.16454.42077-1.74954a1.06414,1.06414,0,0,0-.50613.09549M27.92329,6.35469c.13687.42059.26106.846.41894,1.2586.04341.11354.18732.18858.28512.28129a1.34886,1.34886,0,0,0,.10639-.453c-.02672-.21549-.14369-.41808-.19061-.63309-.08238-.37771-.13634-.76158-.21283-1.14071a.83669.83669,0,0,0-.1188-.2173,2.62433,2.62433,0,0,1-.08464.27174,2.51219,2.51219,0,0,0-.20357.63242M52.25351,17.74985c-.4166-.05333-.79757.00655-.88827.48951a4.68148,4.68148,0,0,0-.02582,1.00426c.00166.05178.1364.14.20648.137a.25213.25213,0,0,0,.18622-.16041c.04293-.4755.10421-.91929.74833-.876a2.23138,2.23138,0,0,0-.22694-.59433M39.01045,6.76533c.09407-.29938.19615-.59656.27846-.8991a2.62968,2.62968,0,0,0,.047-.418c-.13965.05955-.35026.08106-.40627.18547A5.59732,5.59732,0,0,0,38.4159,6.837c-.04368.1671.15114.39658.23738.59769a1.9409,1.9409,0,0,0,.35717-.66939m-3.49038-.616c-.10692.54746.21359,1.14063-.18351,1.67293-.03228.04325.24379.31652.3766.48291.07251-.11827.20261-.23414.20765-.35524.02268-.54548.02423-1.09319-.004-1.63811-.00482-.09319-.19146-.177-.39678-.16249M49.995,15.08072a.83056.83056,0,0,0-.71461.98819c.0107.08471.05767.2087.11885.23156a.30761.30761,0,0,0,.26-.07125c.33552-.31776.66894-.63967.97373-.986.04983-.05662-.03957-.347-.07672-.34946a1.08264,1.08264,0,0,0-.56126.18695M36.34134,6.76533a.75991.75991,0,0,0,.0073.30326,2.73008,2.73008,0,0,0,.28088.39558c.04083-.14038.08847-.27918.12131-.42139.12942-.56059.2571-1.12163.37757-1.68418a1.1717,1.1717,0,0,0-.00641-.27645c-.09945.04777-.20166.14093-.29788.13514-.34269-.02065-.25116.21572-.282.40425-.05163.31532-.13228.62591-.20073,1.14379m-12.11377,0,.28815.28815c.04083-.07176.12807-.15329.11529-.21371-.12492-.59107-.26472-1.17906-.40545-1.76666a1.73007,1.73007,0,0,0-.10439-.25457c-.07205.072-.18755.134-.2071.21822a1.2061,1.2061,0,0,0-.03371.54791c.086.33279.22826.65107.34721,1.18066M50.611,16.51794c.3085-.24008.61911-.4775.924-.72207a1.721,1.721,0,0,0,.19263-.21446.74575.74575,0,0,0-.16717-.0879c-.51873-.12181-1.50455.69387-1.45224,1.21647.008.08008.1565.14609.24.2186a2.43079,2.43079,0,0,1,.26279-.41064M31.82434,6.35469c.06213.18427-.17725.49575.26281.522.36778.022.36966-.17191.35533-.43286-.0198-.35989.098-.75691-.29963-1.00258a4.9007,4.9007,0,0,1-.31851.9134m12.31907,4.10637c.04589-.11434.08482-.23212.13913-.34229.12717-.2579.26166-.5122.39321-.76794a2.97732,2.97732,0,0,0-.71949.54906,2.25,2.25,0,0,0-.19832.79162,1.7977,1.7977,0,0,0,.38547-.23045M20.22386,8.0999l-.14-.3454c-.056.0678-.14479.12877-.16061.20492a.59458.59458,0,0,0,.00258.39512,7.70911,7.70911,0,0,0,.6408.76678.45637.45637,0,0,0,.15113-.0825c-.10028-.25745-.20973-.5114-.32139-.76431-.01266-.02865-.046-.0482-.17246-.17461M30.90041,2.76162c-.03421.361-.07118.72177-.09459,1.08346a.23241.23241,0,0,0,.173.06093.75175.75175,0,0,0-.07842-1.14439M45.37535,9.8451a2.58224,2.58224,0,0,0,.2793-.28524,4.49639,4.49639,0,0,0,.24572-.42162c-.205.06033-.46532.06376-.60094.1955a1.99028,1.99028,0,0,0-.32713.65565c-.00381.00885.1082.09807.15773.0909.05283-.00769.09551-.08541.24532-.23519m-27.102-1.02659A1.13725,1.13725,0,0,0,18.107,8.52c-.02411-.024-.22279.05168-.23267.10281a2.13748,2.13748,0,0,0-.00992.50362c.00877.18041-.08266.47024.24938.38816.08822-.02181.10822-.31964.15953-.69606m28.84721,2.7718a7.6671,7.6671,0,0,0-.70779.59565c-.05666.059.01873.24492.03346.37256a.98273.98273,0,0,0,.27891-.1709,1.72833,1.72833,0,0,0,.39542-.79731m-6.36486-3.2851a.7694.7694,0,0,0-.30051.858.25114.25114,0,0,0,.18208.1575c.071.00418.2069-.07361.21106-.12419a2.37263,2.37263,0,0,0-.09263-.89133M17.24675,6.76533l.41063-.011L17.29514,6.101c-.13419.16469-.42645.28684-.04839.66435M41.4743,5.94405c.13689-.14311.28086-.28045.40557-.43352.03076-.03769.01376-.13291-.0104-.1892-.01278-.0298-.11624-.05945-.131-.04388-.2177.22968-.42736.467-.63892.70249a.50483.50483,0,0,0,.37475-.03589M22.6877,8.0999a4.78136,4.78136,0,0,0-.01944-.62413c-.01-.06749-.13457-.118-.20675-.17629-.02727.0908-.094.192-.07336.27015a1.772,1.772,0,0,0,.29955.53027M51.84287,20.62431c-.03421.085-.1196.2163-.09276.24592.07108.07842.23279.18153.28264.151a1.35315,1.35315,0,0,0,.28587-.33182,2.48843,2.48843,0,0,0-.47575-.06511M22.277,5.8414c.001.13687-.00047.274.01138.4099a.96987.96987,0,0,0,.18256,0,.38126.38126,0,0,0-.19394-.4099m2.46382,2.46381a.4137.4137,0,0,0-.06529.068c-.01032.01689-.00461.04361-.00609.06592l.37936-.05339a.28631.28631,0,0,0-.308-.08053M44.14344,11.693l.05574.261.308-.308a.49591.49591,0,0,0-.36371.04692M9.65,10.87169l-.12319-.08213c.00685.06161.01369.12319.12319.08213m17.86269-3.901-.12319-.08214c.00684.06161.01369.12319.12319.08214m-7.8021-.616-.12318-.08213C19.59422,6.33416,19.60106,6.39574,19.71056,6.35469ZM4.941,17.47539c.03377.10819.17.18436.26174.27446a1.76777,1.76777,0,0,0,.056-.37958c-.00466-.08093-.08137-.15772-.17713-.23637C4.99607,17.24911,4.91127,17.38015,4.941,17.47539Zm-.64437,8.19425a.28737.28737,0,0,0-.19029-.06636A.28737.28737,0,0,0,4.29665,25.66964Z"/></g></g></svg>