<svg xmlns="http://www.w3.org/2000/svg" width="41.70519" height="74.39888" viewBox="0 0 41.70519 74.39888"><title>groom-shirt-insert-1-funny</title><g id="Layer_2" data-name="Layer 2"><g id="groom-shirt-insert-1-funny"><path id="void" d="M41.62656,14.6897a18.051,18.051,0,0,1-.76136,4.95549c-.12734.32571.15415.74793-.22117,1.12862-.27076,1.1742-.51338,2.25592-.82033,3.31751-.37531,1.2962-.76672,2.591-1.22112,3.86039-.56967,1.59108-1.28008,3.13255-1.8015,4.737-.6635,2.04547-1.839,3.843-2.64865,5.81066-.67826,1.64871-1.53879,3.213-2.08435,4.93C31.6539,44.731,30.92873,45.9333,30.38185,47.196c-.79755,1.83636-1.5495,3.69284-2.33768,5.53188-.80157,1.86986-1.642,3.721-2.43149,5.59487a58.74166,58.74166,0,0,0-2.44893,6.80795c-.55762,1.965-1.19029,3.91-1.75327,5.87365a18.65341,18.65341,0,0,0-.4611,2.24385c-.03082.193.17158.41554.17292.62465.00134.18093.20375.54287-.21313.52543-.19838-.008-.54823-.17426-.55894-.2922-.09651-1.10185-.79754-1.98247-1.05893-3.02666a29.886,29.886,0,0,0-1.00263-3.03471c-.76672-2.08565-1.56963-4.15658-2.34036-6.24092-.52141-1.41012-.9986-2.8363-1.51868-4.24641-.93026-2.52669-1.73048-5.09759-2.772-7.58674-.79619-1.90472-1.38464-3.8939-2.10712-5.83078q-.96911-2.59368-2.032-5.15119c-.8029-1.93558-1.75327-3.81484-2.461-5.78389-.77476-2.1567-1.35381-4.38448-1.99988-6.58676-.53348-1.82029-.78682-3.71025-1.37929-5.52118a19.8625,19.8625,0,0,1-.45572-2.55614C1.106,17.916.96119,17.29679.81777,16.67754a16.2277,16.2277,0,0,1-.39141-1.66213C.31243,14.06639.34192,13.1.1958,12.15764A32.35648,32.35648,0,0,1,.00145,7.97423,2.53258,2.53258,0,0,1,1.49333,5.54006c1.04953-.56431,2.11651-1.09782,3.18481-1.62728.98252-.4879,1.98113-.94094,2.96231-1.42887.78816-.39,1.58571-.76939,2.32963-1.23451a2.594,2.594,0,0,0,.79219-.93158c.24931-.43831.5643-.39008.70505-.055.31634.7493.99189,1.30555.98252,2.25457-.00535.49461.49462.99324.7627,1.49187a12.761,12.761,0,0,0,1.84977,2.69692,12.12425,12.12425,0,0,0,4.162,2.48244c1.40474.64743,2.847.36727,4.32014.26a6.52061,6.52061,0,0,0,2.98375-1.15407,12.90617,12.90617,0,0,0,2.38326-2.31355,11.23063,11.23063,0,0,0,2.209-4.06011c.12064-.34047.563-.5737.88064-.82837.05228-.04156.24262.0362.33242.10453a1.37789,1.37789,0,0,1,.4276.43026,4.19025,4.19025,0,0,0,2.39665,1.78946,14.38,14.38,0,0,1,3.30813,2.06959,5.02666,5.02666,0,0,0,.77878.571A5.57977,5.57977,0,0,1,41.593,9.23558a1.71113,1.71113,0,0,1,.06434.58171C41.66141,11.44189,41.7807,13.07986,41.62656,14.6897Z" style="fill:#fff"/><path id="fill2" d="M41.62656,14.6897a18.051,18.051,0,0,1-.76136,4.95549c-.12734.32571.15415.74793-.22117,1.12862-.27076,1.1742-.51338,2.25592-.82033,3.31751-.37531,1.2962-.76672,2.591-1.22112,3.86039-.56967,1.59108-1.28008,3.13255-1.8015,4.737-.6635,2.04547-1.839,3.843-2.64865,5.81066-.67826,1.64871-1.53879,3.213-2.08435,4.93C31.6539,44.731,30.92873,45.9333,30.38185,47.196c-.79755,1.83636-1.5495,3.69284-2.33768,5.53188-.80157,1.86986-1.642,3.721-2.43149,5.59487a58.74166,58.74166,0,0,0-2.44893,6.80795c-.55762,1.965-1.19029,3.91-1.75327,5.87365a18.65341,18.65341,0,0,0-.4611,2.24385c-.03082.193.17158.41554.17292.62465.00134.18093.20375.54287-.21313.52543-.19838-.008-.54823-.17426-.55894-.2922-.09651-1.10185-.79754-1.98247-1.05893-3.02666a29.886,29.886,0,0,0-1.00263-3.03471c-.76672-2.08565-1.56963-4.15658-2.34036-6.24092-.52141-1.41012-.9986-2.8363-1.51868-4.24641-.93026-2.52669-1.73048-5.09759-2.772-7.58674-.79619-1.90472-1.38464-3.8939-2.10712-5.83078q-.96911-2.59368-2.032-5.15119c-.8029-1.93558-1.75327-3.81484-2.461-5.78389-.77476-2.1567-1.35381-4.38448-1.99988-6.58676-.53348-1.82029-.78682-3.71025-1.37929-5.52118a19.8625,19.8625,0,0,1-.45572-2.55614C1.106,17.916.96119,17.29679.81777,16.67754a16.2277,16.2277,0,0,1-.39141-1.66213C.31243,14.06639.34192,13.1.1958,12.15764A32.35648,32.35648,0,0,1,.00145,7.97423,2.53258,2.53258,0,0,1,1.49333,5.54006c1.04953-.56431,2.11651-1.09782,3.18481-1.62728.98252-.4879,1.98113-.94094,2.96231-1.42887.78816-.39,1.58571-.76939,2.32963-1.23451a2.594,2.594,0,0,0,.79219-.93158c.24931-.43831.5643-.39008.70505-.055.31634.7493.99189,1.30555.98252,2.25457-.00535.49461.49462.99324.7627,1.49187a12.761,12.761,0,0,0,1.84977,2.69692,12.12425,12.12425,0,0,0,4.162,2.48244c1.40474.64743,2.847.36727,4.32014.26a6.52061,6.52061,0,0,0,2.98375-1.15407,12.90617,12.90617,0,0,0,2.38326-2.31355,11.23063,11.23063,0,0,0,2.209-4.06011c.12064-.34047.563-.5737.88064-.82837.05228-.04156.24262.0362.33242.10453a1.37789,1.37789,0,0,1,.4276.43026,4.19025,4.19025,0,0,0,2.39665,1.78946,14.38,14.38,0,0,1,3.30813,2.06959,5.02666,5.02666,0,0,0,.77878.571A5.57977,5.57977,0,0,1,41.593,9.23558a1.71113,1.71113,0,0,1,.06434.58171C41.66141,11.44189,41.7807,13.07986,41.62656,14.6897Z" style="fill:#fff"/><path id="fill1" d="M40.64374,20.77361c-.27091,1.17433-.51279,2.25546-.82016,3.31766-.37517,1.2965-.76684,2.59086-1.22143,3.86109C38.03307,29.54255,37.322,31.0843,36.801,32.6888c-.66408,2.04534-1.83872,3.84341-2.64858,5.81106-.67862,1.64877-1.53912,3.21295-2.08457,4.929a41.10815,41.10815,0,0,1-1.68643,3.76748c-.79648,1.83646-1.54909,3.69191-2.33763,5.53188-.801,1.869-1.64161,3.72119-2.43073,5.59511a58.96671,58.96671,0,0,0-2.44982,6.8068c-.55668,1.96574-1.18939,3.90988-1.753,5.87378a18.75434,18.75434,0,0,0-.46054,2.24419c-.0306.19338.17148.41516.173.62458.00134.18149.20305.54248-.213.5252-.19845-.00826-.54916-.17378-.55954-.29192-.0968-1.1022-.798-1.982-1.05849-3.02587A29.8,29.8,0,0,0,18.2886,68.045c-.76639-2.08555-1.57007-4.15737-2.34029-6.24152-.52109-1.41-.9982-2.83623-1.518-4.24672-.93092-2.526-1.73079-5.09714-2.77255-7.58634-.79683-1.904-1.385-3.89428-2.10771-5.83058q-.968-2.59333-2.03148-5.15074c-.80361-1.9355-1.75376-3.81565-2.46068-5.78432-.77456-2.157-1.354-4.38476-1.99994-6.58709-.534-1.82054-.78686-3.71-1.37963-5.52117a19.9675,19.9675,0,0,1-.45582-2.55617c-.1164-.62455-.26172-1.244-.40424-1.86335A16.06916,16.06916,0,0,1,.426,15.01523c-.11332-.94831-.0845-1.91589-.23063-2.85748A32.64737,32.64737,0,0,1,.00117,7.97393,2.533,2.533,0,0,1,1.49324,5.54005C2.54312,4.97553,3.61,4.44186,4.67811,3.91217c.98213-.48706,1.98075-.94093,2.96277-1.4282.78743-.39071,1.58566-.76988,2.32921-1.234A2.60005,2.60005,0,0,0,10.76254.318c.24864-.4389.56339-.39089.70535-.05452.31578.74829.99155,1.30486.98193,2.25446-.005.49458.49439.99319.76235,1.49189a12.76859,12.76859,0,0,0,1.8499,2.696,12.11606,12.11606,0,0,0,4.16277,2.48245c1.40462.64766,2.84619.36724,4.32012.26013a6.50993,6.50993,0,0,0,2.9836-1.15384,12.90423,12.90423,0,0,0,2.38269-2.31371,11.20738,11.20738,0,0,0,2.20913-4.0606c.12132-.34.56329-.57355.88039-.82776.05241-.042.24283.03577.33337.10525a1.37648,1.37648,0,0,1,.42688.42912,4.18541,4.18541,0,0,0,2.39627,1.78946,14.39733,14.39733,0,0,1,3.30864,2.0695,5.02247,5.02247,0,0,0,.77846.57184,5.57015,5.57015,0,0,1,2.34819,3.17791,1.68971,1.68971,0,0,1,.06439.58186c.00472,1.62507.12375,3.26177-.03087,4.872a18.035,18.035,0,0,1-.76117,4.95543c-.12689.32545.15449.74791-.22119,1.12871M39.01828,6.65238c-.18769-.12-.37654-.23818-.56288-.36019a12.38107,12.38107,0,0,0-2.51065-1.78537,11.85744,11.85744,0,0,1-2.30368-1.0417c-.40425-.2512-.56964-.10028-.70838.15164-.49933.9067-.95377,1.838-1.43305,2.75586a7.08989,7.08989,0,0,1-4.72674,4.0448,23.01608,23.01608,0,0,0-3.00521.83413,2.46007,2.46007,0,0,1-1.54.139,6.73179,6.73179,0,0,0-2.05915-.15679,6.68338,6.68338,0,0,1-3.60682-.61824,8.62292,8.62292,0,0,0-.90894-.502A9.39858,9.39858,0,0,1,11.7964,6.59707a6.86961,6.86961,0,0,1-1.64519-4.29976c.01746-.36555-.26824-.40958-.57411-.21877A10.05442,10.05442,0,0,1,7.70434,3.19089c-1.853.64556-3.47364,1.74341-5.23869,2.55456a2.51842,2.51842,0,0,0-1.53137,1.608A5.166,5.166,0,0,0,.65319,9.95433,9.86237,9.86237,0,0,1,.8174,11.91065c.07629,1.22377.13469,2.44866.21074,3.67245.00739.11884.103.2296.12932.35028a11.17711,11.17711,0,0,1,.44485,2.24093,14.19686,14.19686,0,0,0,.57354,2.82354c.24838,1.207.58446,2.396.87831,3.59376.2564,1.0452.49214,2.09568.76322,3.137.34148,1.31169.70533,2.6176,1.0673,3.92385A27.4271,27.4271,0,0,0,6.46892,35.667c.35031.76884.71222,1.53253,1.0542,2.305.65923,1.48915,1.21118,3.01873,1.75558,4.55367.65855,1.85678,1.4116,3.67983,2.10351,5.52507.64834,1.72905,1.26546,3.46976,1.90514,5.20208.71541,1.93736,1.44866,3.86814,2.15876,5.80742A32.51748,32.51748,0,0,0,16.78634,62.67a18.67154,18.67154,0,0,1,.89481,2.36935c.88827,2.57735,1.76221,5.15963,2.651,7.73678.03085.08945.16158.14445.24573.21552.05129-.07008.138-.13539.14822-.211.078-.57983.11081-1.16723.21623-1.7415a19.69182,19.69182,0,0,1,.5223-2.32165c.46714-1.49507,1.06832-2.95095,1.48276-4.45911a26.97173,26.97173,0,0,1,1.63722-4.60528c.44732-.92893.82923-1.88995,1.22478-2.84307.7072-1.70408,1.38691-3.41972,2.10957-5.11713.34317-.806.8368-1.55386,1.12542-2.37608.60227-1.71563,1.34841-3.36851,2.049-5.04181.4106-.98072.80405-1.96871,1.22193-2.94628.73755-1.72544,1.46912-3.45389,2.24068-5.16416.39946-.88545.94358-1.70836,1.31017-2.60536.94647-2.316,1.88854-4.637,2.71842-6.99615.52179-1.48331.80886-3.04762,1.25846-4.55858.23193-.77943.212-1.617.45783-2.35114a15.14535,15.14535,0,0,0,.50871-2.72031,32.91,32.91,0,0,0,.22616-4.37847c.00851-.95284-.14026-1.90607-.18306-2.86071a2.95723,2.95723,0,0,0-.94132-2.1519c-.27326-.25247-.52822-.52473-.89308-.8896M14.12835,6.55079C13.03283,5.477,12.597,3.99834,11.80609,2.73713c-.158-.25189-.10415-.62835-.20248-.92959-.044-.13476-.26721-.33987-.33172-.3147-.1864.07272-.46733.2418-.47187.38086A6.89445,6.89445,0,0,0,10.922,3.33693c.34137,1.85233,1.65691,3.14162,2.73856,4.54438.96553,1.25221,2.46744,1.79975,3.82018,2.519a2.13983,2.13983,0,0,0,.92566.20481c1.0148.02492,2.03461-.04581,3.04465.02783a6.65494,6.65494,0,0,0,2.17771.02017,13.81335,13.81335,0,0,0,4.4649-1.4822A7.06144,7.06144,0,0,0,30.04752,7.3883c.7524-1.07655,1.26254-2.31908,1.95181-3.44441a3.3981,3.3981,0,0,0,.31738-1.80221c.01457-.34753-.2306-.28755-.40684-.25607a.46776.46776,0,0,0-.40788.57471,1.71384,1.71384,0,0,1-.33876,1.07938c-.51019.90445-.97242,1.83783-1.51717,2.72056a8.84649,8.84649,0,0,1-5.24491,3.69286,8.493,8.493,0,0,1-4.29058.08181,12.43206,12.43206,0,0,1-4.62424-2.07667A11.54465,11.54465,0,0,1,14.12835,6.55079Z"/></g></g></svg>