<svg xmlns="http://www.w3.org/2000/svg" width="76.63752" height="109.31386" viewBox="0 0 76.63752 109.31386"><title>bride-hair-4-funny</title><g id="Layer_2" data-name="Layer 2"><g id="bride-hair-4-funny"><path id="void" d="M35.58665,61.14778c.05986.41139.09964.82683.12869,1.24363-.0304.19844-.06213.39823-.09118.59668-.02131.06572-.04128.13146-.0666.19451-.068.17708-.1373.35283-.19051.5339a1.64291,1.64291,0,0,0-.06506.283l-.00943-.01472a.54189.54189,0,0,0-.07738.17175,9.23182,9.23182,0,0,1-1.25963,3.86312A3.40767,3.40767,0,0,1,32.109,69.482a6.42533,6.42533,0,0,1-2.75151.15877.72218.72218,0,0,1-.21734-.09067c-.00248.09249-.03844.19981-.00343.2748a21.71991,21.71991,0,0,1,.97088,2.046,17.9799,17.9799,0,0,1,.62472,2.49584c.11926.6083-.00941,1.22652.17427,1.8655a3.789,3.789,0,0,1-.1651,1.73753c-.28142,1.27132-.57488,2.544-.94212,3.79271a12.40788,12.40788,0,0,1-1.6308,3.305C27.236,86.477,26.45782,87.99733,25.438,89.336a14.36665,14.36665,0,0,0-2.06347,3.44263c-.51718,1.33218-1.4987,2.41735-1.84277,3.83358-.368,1.51413-.95185,3.018-.70717,4.5844.29633,1.8907.34483,3.85294,1.22394,5.611a10.054,10.054,0,0,0,1.03518,1.40918c.22181.29574.8189.57058.36.971-.46959.40852-.65608-.28675-.88444-.51545a11.90565,11.90565,0,0,1-1.17622-1.54161,7.02,7.02,0,0,1-1.01107-2.03254c-.1539-.50366-.249-1.09859-.91982-1.3639-.279-.10929-.36331-.64929-.59987-.94236a9.6468,9.6468,0,0,1-1.7188-3.88078A15.1617,15.1617,0,0,1,16.72,96.12535a17.03869,17.03869,0,0,1,.6461-4.31484c.38465-1.8694,1.20383-3.62979,1.37122-5.55768.04837-.56442.334-1.10925.36765-1.67229a5.80849,5.80849,0,0,0-.22851-1.52891,9.35107,9.35107,0,0,0-.37943-1.27122.40957.40957,0,0,0-.33821-.203.423.423,0,0,0-.2527.29275,26.47734,26.47734,0,0,1-1.229,5.00242c-.32528.817-.7324,1.602-1.07111,2.41373a14.72023,14.72023,0,0,1-2.2229,3.4738c-.3128.39211-.49671.88309-.77324,1.30725-.21243.3262-.50495.79729-.91843.5127-.35976-.24852.02937-.67027.2044-.93337.41016-.62417.92768-1.17756,1.34187-1.79906a3.73737,3.73737,0,0,0,.76478-1.50694,22.425,22.425,0,0,0,.441-4.3198,13.01663,13.01663,0,0,0-1.86676-5.96477,5.59037,5.59037,0,0,0-.759-.78117A21.17846,21.17846,0,0,0,7.97488,76.2888a21.55262,21.55262,0,0,1-2.70014-2.10126c-.54674-.551-1.14034-1.0618-1.64293-1.65051A12.31234,12.31234,0,0,1,.51381,66.894C.35921,66.07.23006,65.24053.09824,64.4111A18.41283,18.41283,0,0,1,.134,60.501a13.82771,13.82771,0,0,1,.79745-3.12356,27.18541,27.18541,0,0,1,3.23365-6.51877,3.30191,3.30191,0,0,1,.49753-.50908c.88809-.892,1.756-1.80669,2.66965-2.67055a26.93727,26.93727,0,0,0,2.91695-3.60535,9.98753,9.98753,0,0,0,1.019-2.3238.60587.60587,0,0,0-.01045-.49594c-.402-.56077-.14064-1.18059-.16336-1.76364a1.03906,1.03906,0,0,1,.44349-.70334c.087-.06452.41321.16532.61588.28686a11.74989,11.74989,0,0,0,3.1898,1.67126.75723.75723,0,0,1,.63035.78411c-.00873.30564-.01074.6126.006.91817a.99382.99382,0,0,0,.1253.29731c.09228-.09806.2449-.18552.26475-.29682a4.33894,4.33894,0,0,0,.01187-.71177c.00092-.19438-.05849-.38862.27658-.40541.40342-.021.33024.2258.33474.45231.003.13538.006.2721.00089.40749A12.93662,12.93662,0,0,0,19.4126,49.764c.64019.99052,1.2255,2.01869,1.90182,2.98365a12.10454,12.10454,0,0,0,2.93277,3.05647,43.50961,43.50961,0,0,0,4.72535,2.64642,13.4524,13.4524,0,0,0,2.16544.9242,16.114,16.114,0,0,0,1.81157.31106c.56189.11138,1.10787.31393,1.67235.38775A1.12019,1.12019,0,0,1,35.58665,61.14778ZM47.9998,18.41523c-1.21787.25464-2.43574.516-3.63875.83092a8.94187,8.94187,0,0,0-1.38065.60351c-.5102.23165-.6927.13823-.71531-.39655a3.63448,3.63448,0,0,1,.059-.58589c.01712-.14077.04094-.28023.06208-.421-.13928.05526-.33093.07042-.41113.17247-.46385.58543-.90085,1.18956-1.34457,1.78836-.11093.149-.2138.30338-.31936.45508a2.67154,2.67154,0,0,1-.48121-.61554,2.925,2.925,0,0,1-.027-.70768c-.011-.10318-.10766-.19681-.16551-.29587-.07758.07791-.20075.14251-.22736.23507-.15034.51772-.25642,1.04875-.41884,1.56249-.16374.52042-.39814.59869-.73813.20133a5.38056,5.38056,0,0,0-3.42561-1.62651,20.81064,20.81064,0,0,0-3.63416-.13956,6.56179,6.56179,0,0,0-2.442.7479,14.96523,14.96523,0,0,0-6.27857,4.27884,26.2284,26.2284,0,0,0-2.6185,4.01353,24.276,24.276,0,0,0-2.13772,5.03657,6.38637,6.38637,0,0,0-.31419.98722c-.0368.33785-.24331.30078-.41365.25156a.41892.41892,0,0,1-.20449-.34271,15.8665,15.8665,0,0,0-.38-2.79527,2.39285,2.39285,0,0,0-1.43443-1.93378,5.38372,5.38372,0,0,1-.86723-.608,4.96113,4.96113,0,0,0-.44324-.41322c-.01878-.01336-.03759-.02806-.05637-.04143-.04165-.03877-.08327-.07622-.12758-.11232-.08869-.09363-.16939-.23018-.27265-.2514-.74024-.15119-.66539-.86043-.93181-1.33034-.10629-.18877-.08284-.49577-.22787-.61074a2.07271,2.07271,0,0,1-.558-2.634,2.49467,2.49467,0,0,0-.02476-2.13926,2.41994,2.41994,0,0,1-.0474-2.07753,4.20059,4.20059,0,0,0,.21982-1.23233c.01453-.09922-.0314-.26265.01679-.29224.78976-.50034.58162-1.28671.59079-2.00654a4.85718,4.85718,0,0,1,1.07088-2.51292c.8977-1.41206,1.8853-2.7667,2.8716-4.12a4.8195,4.8195,0,0,1,.89116-.71234A7.429,7.429,0,0,1,20.2581,5.22958a10.85816,10.85816,0,0,0,1.44885-.676c.48581-.34956.8143-.92532,1.31088-1.25079.74689-.48952,1.33891-1.30578,2.24742-1.44046,1.05459-.1551,1.92673-.97867,3.06119-.76934.16359.03047.44622-.0613.49195.01367.42775.69341.84093.222,1.20364-.02138a2.74689,2.74689,0,0,1,2.85631-.05581c.381.16939.65243.45433,1.037-.23147A1.99375,1.99375,0,0,1,36.76964.45c.43648.38777.69025.58694,1.23472.08981a1.29554,1.29554,0,0,1,1.91318.19288c.31574.34111.44556.247.74927-.01371a3.66579,3.66579,0,0,1,1.102-.52112.91285.91285,0,0,1,1.26232.45433c.16553.30123.27482.63341.41893.94811a2.07521,2.07521,0,0,0,.18559.28107c.07354-.08325.1766-.15318.21526-.24977a1.86964,1.86964,0,0,1,2.33421-.9809,1.39032,1.39032,0,0,1,.35593.333c.077.276.25184.54367.15731.83607a.05532.05532,0,0,0,.00949.05226c-.00931.03219-.02.063-.02927.09523a14.92879,14.92879,0,0,1,2.346-.48765,2.55965,2.55965,0,0,1,2.32149.56731c.19616.20867.66789.1661,1.01518.22164.54439.08594,1.09807.12628,1.63317.25247a1.01432,1.01432,0,0,1,.62288.42625,1.02417,1.02417,0,0,0,1.10035.55789,1.38969,1.38969,0,0,1,1.35992.95678,1.09445,1.09445,0,0,0,.72959.80132,4.22328,4.22328,0,0,1,2.40376,2.65013,1.11925,1.11925,0,0,0,.39392.5447,4.37721,4.37721,0,0,1,1.63309,2.67727,1.19323,1.19323,0,0,0,.72712.90052,2.41361,2.41361,0,0,1,1.32552,1.78524c.11064.33218.13288.6927.22074,1.033a.50814.50814,0,0,0,.21367.24885,3.00907,3.00907,0,0,1,1.25136,2.19691,12.83412,12.83412,0,0,0,.67,2.363,11.48065,11.48065,0,0,1,1.07175,4.04839,2.47132,2.47132,0,0,1-.17681,1.29122c-.63338.91018-.59884,2.00119-.96534,2.97513a3.29786,3.29786,0,0,1-.23435.7163A21.36055,21.36055,0,0,0,64.404,32.69116a1.64928,1.64928,0,0,1-.32891.38139,2.93824,2.93824,0,0,1-.14167-.42593,28.00239,28.00239,0,0,0-.65505-3.51046,12.19532,12.19532,0,0,0-1.96366-3.67651,25.08157,25.08157,0,0,0-2.97764-3.34992,14.62338,14.62338,0,0,0-4.7072-2.932,13.37038,13.37038,0,0,0-4.085-.96158A6.09251,6.09251,0,0,0,47.9998,18.41523Zm28.62457,27.1495a7.69579,7.69579,0,0,0,.00177,1.42754c-.21165,4.9935-1.99505,7.15813-2.20246,8.558-.0066.04959-.06816.09129-.13375.13165a13.52688,13.52688,0,0,1-.69641,2.13276,36.25334,36.25334,0,0,1-1.64936,3.39752A5.21,5.21,0,0,1,70.78694,62.858a2.91074,2.91074,0,0,0-1.05879,1.91105,7.31178,7.31178,0,0,1-.80322,2.326c-.19629.34358-.12956.82466-.2641,1.215A24.63617,24.63617,0,0,1,67.55037,71.118c-1.06387,2.659-3.23126,4.53491-3.7698,5.29344a1.13155,1.13155,0,0,1-.51773.46356.71482.71482,0,0,1-.26936.02739c-.18254.50842-.34091,1.02752-.53016,1.53323-.40779,1.08932-.8357,2.17332-1.21,3.2746a5.46263,5.46263,0,0,0-.26634,1.41741,10.88883,10.88883,0,0,0-.03035,3.92212,13.57139,13.57139,0,0,1,.24394,2.45642c.04246.41679.168.82669.19572,1.24348a12.54514,12.54514,0,0,1-1.0553,5.98723,19.88077,19.88077,0,0,1-.95864,2.35455c-.8895,1.475-1.0869,3.16035-1.63975,4.7352a8.8264,8.8264,0,0,1-.80366,1.503,4.82545,4.82545,0,0,1-1.90652,2.2587c-.02946.01348-.04544.06041-.07357.06852-.34695.09995-.92946.36393-1.00341.26087-.28233-.39077.17291-.621.40557-.88419.55089-.62317,1.134-1.22225,1.64194-1.87746a2.43558,2.43558,0,0,0,.4989-1.111c.058-.45052.11734-.90235.16328-1.35285-.14021.2483-.42808.3937-.54881.3524-.31523-.10924-.28775-.41492-.19612-.80919a5.074,5.074,0,0,0-.725-2.98889,9.35743,9.35743,0,0,0-2.0871-3.12c-.783-.6953-1.50712-1.46044-2.23526-2.2135a5.7072,5.7072,0,0,1-1.53736-3.656,13.57989,13.57989,0,0,1,1.24667-6.12571,3.555,3.555,0,0,1,.7216-1.02566A5.79949,5.79949,0,0,0,52.622,80.276a15.11459,15.11459,0,0,1,.67868-1.65288,15.74536,15.74536,0,0,0,.54137-2.53857c.30426-1.85711-.43116-3.48947-.92274-5.18136-.16613-.576-.418-1.13173-.52784-1.71727a.58537.58537,0,0,0-.65134-.57094c-.51881-.0297-1.03506-.11569-1.54994-.195a3.76306,3.76306,0,0,1-1.48572-.86268c-1.30883-.88985-1.411-2.26356-1.65118-3.6021a8.23826,8.23826,0,0,0-.30108-1.61187c-.26955-.67633.23343-1.14657.30723-1.72311.00791-.063.21679-.168.29994-.14407a3.63584,3.63584,0,0,0,2.48537-.5094,16.35857,16.35857,0,0,0,5.51635-3.44211c.8801-.87184,1.84618-1.65809,2.71149-2.54463a23.22058,23.22058,0,0,0,3.766-5.17414A22.05257,22.05257,0,0,0,63.97277,43.973a15.301,15.301,0,0,0,.37816-1.78089c.10291-.74951.11332-1.51224.227-2.25909a.70859.70859,0,0,1,.4493-.49828.55261.55261,0,0,1,.35023.17753l.008-.00941a10.18665,10.18665,0,0,1,1.61075-.8131,4.66489,4.66489,0,0,0,2.65255-1.91319,3.9729,3.9729,0,0,1,1.44093-.62373.54618.54618,0,0,0,.24274.05844,1.2924,1.2924,0,0,1,1.39192.88032,10.7476,10.7476,0,0,0,.76844,1.4138c.28913.42964.73086.76646.97579,1.215a5.89535,5.89535,0,0,1,1.11125,3.106.95418.95418,0,0,0,.35288.77934A2.19731,2.19731,0,0,1,76.62437,45.56473Z" style="fill:#fff"/><path id="fill2" d="M35.58665,61.14778c.05986.41139.09964.82683.12869,1.24363-.0304.19844-.06213.39823-.09118.59668-.02131.06572-.04128.13146-.0666.19451-.068.17708-.1373.35283-.19051.5339a1.64291,1.64291,0,0,0-.06506.283l-.00943-.01472a.54189.54189,0,0,0-.07738.17175,9.23182,9.23182,0,0,1-1.25963,3.86312A3.40767,3.40767,0,0,1,32.109,69.482a6.42533,6.42533,0,0,1-2.75151.15877.72218.72218,0,0,1-.21734-.09067c-.00248.09249-.03844.19981-.00343.2748a21.71991,21.71991,0,0,1,.97088,2.046,17.9799,17.9799,0,0,1,.62472,2.49584c.11926.6083-.00941,1.22652.17427,1.8655a3.789,3.789,0,0,1-.1651,1.73753c-.28142,1.27132-.57488,2.544-.94212,3.79271a12.40788,12.40788,0,0,1-1.6308,3.305C27.236,86.477,26.45782,87.99733,25.438,89.336a14.36665,14.36665,0,0,0-2.06347,3.44263c-.51718,1.33218-1.4987,2.41735-1.84277,3.83358-.368,1.51413-.95185,3.018-.70717,4.5844.29633,1.8907.34483,3.85294,1.22394,5.611a10.054,10.054,0,0,0,1.03518,1.40918c.22181.29574.8189.57058.36.971-.46959.40852-.65608-.28675-.88444-.51545a11.90565,11.90565,0,0,1-1.17622-1.54161,7.02,7.02,0,0,1-1.01107-2.03254c-.1539-.50366-.249-1.09859-.91982-1.3639-.279-.10929-.36331-.64929-.59987-.94236a9.6468,9.6468,0,0,1-1.7188-3.88078A15.1617,15.1617,0,0,1,16.72,96.12535a17.03869,17.03869,0,0,1,.6461-4.31484c.38465-1.8694,1.20383-3.62979,1.37122-5.55768.04837-.56442.334-1.10925.36765-1.67229a5.80849,5.80849,0,0,0-.22851-1.52891,9.35107,9.35107,0,0,0-.37943-1.27122.40957.40957,0,0,0-.33821-.203.423.423,0,0,0-.2527.29275,26.47734,26.47734,0,0,1-1.229,5.00242c-.32528.817-.7324,1.602-1.07111,2.41373a14.72023,14.72023,0,0,1-2.2229,3.4738c-.3128.39211-.49671.88309-.77324,1.30725-.21243.3262-.50495.79729-.91843.5127-.35976-.24852.02937-.67027.2044-.93337.41016-.62417.92768-1.17756,1.34187-1.79906a3.73737,3.73737,0,0,0,.76478-1.50694,22.425,22.425,0,0,0,.441-4.3198,13.01663,13.01663,0,0,0-1.86676-5.96477,5.59037,5.59037,0,0,0-.759-.78117A21.17846,21.17846,0,0,0,7.97488,76.2888a21.55262,21.55262,0,0,1-2.70014-2.10126c-.54674-.551-1.14034-1.0618-1.64293-1.65051A12.31234,12.31234,0,0,1,.51381,66.894C.35921,66.07.23006,65.24053.09824,64.4111A18.41283,18.41283,0,0,1,.134,60.501a13.82771,13.82771,0,0,1,.79745-3.12356,27.18541,27.18541,0,0,1,3.23365-6.51877,3.30191,3.30191,0,0,1,.49753-.50908c.88809-.892,1.756-1.80669,2.66965-2.67055a26.93727,26.93727,0,0,0,2.91695-3.60535,9.98753,9.98753,0,0,0,1.019-2.3238.60587.60587,0,0,0-.01045-.49594c-.402-.56077-.14064-1.18059-.16336-1.76364a1.03906,1.03906,0,0,1,.44349-.70334c.087-.06452.41321.16532.61588.28686a11.74989,11.74989,0,0,0,3.1898,1.67126.75723.75723,0,0,1,.63035.78411c-.00873.30564-.01074.6126.006.91817a.99382.99382,0,0,0,.1253.29731c.09228-.09806.2449-.18552.26475-.29682a4.33894,4.33894,0,0,0,.01187-.71177c.00092-.19438-.05849-.38862.27658-.40541.40342-.021.33024.2258.33474.45231.003.13538.006.2721.00089.40749A12.93662,12.93662,0,0,0,19.4126,49.764c.64019.99052,1.2255,2.01869,1.90182,2.98365a12.10454,12.10454,0,0,0,2.93277,3.05647,43.50961,43.50961,0,0,0,4.72535,2.64642,13.4524,13.4524,0,0,0,2.16544.9242,16.114,16.114,0,0,0,1.81157.31106c.56189.11138,1.10787.31393,1.67235.38775A1.12019,1.12019,0,0,1,35.58665,61.14778ZM47.9998,18.41523c-1.21787.25464-2.43574.516-3.63875.83092a8.94187,8.94187,0,0,0-1.38065.60351c-.5102.23165-.6927.13823-.71531-.39655a3.63448,3.63448,0,0,1,.059-.58589c.01712-.14077.04094-.28023.06208-.421-.13928.05526-.33093.07042-.41113.17247-.46385.58543-.90085,1.18956-1.34457,1.78836-.11093.149-.2138.30338-.31936.45508a2.67154,2.67154,0,0,1-.48121-.61554,2.925,2.925,0,0,1-.027-.70768c-.011-.10318-.10766-.19681-.16551-.29587-.07758.07791-.20075.14251-.22736.23507-.15034.51772-.25642,1.04875-.41884,1.56249-.16374.52042-.39814.59869-.73813.20133a5.38056,5.38056,0,0,0-3.42561-1.62651,20.81064,20.81064,0,0,0-3.63416-.13956,6.56179,6.56179,0,0,0-2.442.7479,14.96523,14.96523,0,0,0-6.27857,4.27884,26.2284,26.2284,0,0,0-2.6185,4.01353,24.276,24.276,0,0,0-2.13772,5.03657,6.38637,6.38637,0,0,0-.31419.98722c-.0368.33785-.24331.30078-.41365.25156a.41892.41892,0,0,1-.20449-.34271,15.8665,15.8665,0,0,0-.38-2.79527,2.39285,2.39285,0,0,0-1.43443-1.93378,5.38372,5.38372,0,0,1-.86723-.608,4.96113,4.96113,0,0,0-.44324-.41322c-.01878-.01336-.03759-.02806-.05637-.04143-.04165-.03877-.08327-.07622-.12758-.11232-.08869-.09363-.16939-.23018-.27265-.2514-.74024-.15119-.66539-.86043-.93181-1.33034-.10629-.18877-.08284-.49577-.22787-.61074a2.07271,2.07271,0,0,1-.558-2.634,2.49467,2.49467,0,0,0-.02476-2.13926,2.41994,2.41994,0,0,1-.0474-2.07753,4.20059,4.20059,0,0,0,.21982-1.23233c.01453-.09922-.0314-.26265.01679-.29224.78976-.50034.58162-1.28671.59079-2.00654a4.85718,4.85718,0,0,1,1.07088-2.51292c.8977-1.41206,1.8853-2.7667,2.8716-4.12a4.8195,4.8195,0,0,1,.89116-.71234A7.429,7.429,0,0,1,20.2581,5.22958a10.85816,10.85816,0,0,0,1.44885-.676c.48581-.34956.8143-.92532,1.31088-1.25079.74689-.48952,1.33891-1.30578,2.24742-1.44046,1.05459-.1551,1.92673-.97867,3.06119-.76934.16359.03047.44622-.0613.49195.01367.42775.69341.84093.222,1.20364-.02138a2.74689,2.74689,0,0,1,2.85631-.05581c.381.16939.65243.45433,1.037-.23147A1.99375,1.99375,0,0,1,36.76964.45c.43648.38777.69025.58694,1.23472.08981a1.29554,1.29554,0,0,1,1.91318.19288c.31574.34111.44556.247.74927-.01371a3.66579,3.66579,0,0,1,1.102-.52112.91285.91285,0,0,1,1.26232.45433c.16553.30123.27482.63341.41893.94811a2.07521,2.07521,0,0,0,.18559.28107c.07354-.08325.1766-.15318.21526-.24977a1.86964,1.86964,0,0,1,2.33421-.9809,1.39032,1.39032,0,0,1,.35593.333c.077.276.25184.54367.15731.83607a.05532.05532,0,0,0,.00949.05226c-.00931.03219-.02.063-.02927.09523a14.92879,14.92879,0,0,1,2.346-.48765,2.55965,2.55965,0,0,1,2.32149.56731c.19616.20867.66789.1661,1.01518.22164.54439.08594,1.09807.12628,1.63317.25247a1.01432,1.01432,0,0,1,.62288.42625,1.02417,1.02417,0,0,0,1.10035.55789,1.38969,1.38969,0,0,1,1.35992.95678,1.09445,1.09445,0,0,0,.72959.80132,4.22328,4.22328,0,0,1,2.40376,2.65013,1.11925,1.11925,0,0,0,.39392.5447,4.37721,4.37721,0,0,1,1.63309,2.67727,1.19323,1.19323,0,0,0,.72712.90052,2.41361,2.41361,0,0,1,1.32552,1.78524c.11064.33218.13288.6927.22074,1.033a.50814.50814,0,0,0,.21367.24885,3.00907,3.00907,0,0,1,1.25136,2.19691,12.83412,12.83412,0,0,0,.67,2.363,11.48065,11.48065,0,0,1,1.07175,4.04839,2.47132,2.47132,0,0,1-.17681,1.29122c-.63338.91018-.59884,2.00119-.96534,2.97513a3.29786,3.29786,0,0,1-.23435.7163A21.36055,21.36055,0,0,0,64.404,32.69116a1.64928,1.64928,0,0,1-.32891.38139,2.93824,2.93824,0,0,1-.14167-.42593,28.00239,28.00239,0,0,0-.65505-3.51046,12.19532,12.19532,0,0,0-1.96366-3.67651,25.08157,25.08157,0,0,0-2.97764-3.34992,14.62338,14.62338,0,0,0-4.7072-2.932,13.37038,13.37038,0,0,0-4.085-.96158A6.09251,6.09251,0,0,0,47.9998,18.41523Zm28.62457,27.1495a7.69579,7.69579,0,0,0,.00177,1.42754c-.21165,4.9935-1.99505,7.15813-2.20246,8.558-.0066.04959-.06816.09129-.13375.13165a13.52688,13.52688,0,0,1-.69641,2.13276,36.25334,36.25334,0,0,1-1.64936,3.39752A5.21,5.21,0,0,1,70.78694,62.858a2.91074,2.91074,0,0,0-1.05879,1.91105,7.31178,7.31178,0,0,1-.80322,2.326c-.19629.34358-.12956.82466-.2641,1.215A24.63617,24.63617,0,0,1,67.55037,71.118c-1.06387,2.659-3.23126,4.53491-3.7698,5.29344a1.13155,1.13155,0,0,1-.51773.46356.71482.71482,0,0,1-.26936.02739c-.18254.50842-.34091,1.02752-.53016,1.53323-.40779,1.08932-.8357,2.17332-1.21,3.2746a5.46263,5.46263,0,0,0-.26634,1.41741,10.88883,10.88883,0,0,0-.03035,3.92212,13.57139,13.57139,0,0,1,.24394,2.45642c.04246.41679.168.82669.19572,1.24348a12.54514,12.54514,0,0,1-1.0553,5.98723,19.88077,19.88077,0,0,1-.95864,2.35455c-.8895,1.475-1.0869,3.16035-1.63975,4.7352a8.8264,8.8264,0,0,1-.80366,1.503,4.82545,4.82545,0,0,1-1.90652,2.2587c-.02946.01348-.04544.06041-.07357.06852-.34695.09995-.92946.36393-1.00341.26087-.28233-.39077.17291-.621.40557-.88419.55089-.62317,1.134-1.22225,1.64194-1.87746a2.43558,2.43558,0,0,0,.4989-1.111c.058-.45052.11734-.90235.16328-1.35285-.14021.2483-.42808.3937-.54881.3524-.31523-.10924-.28775-.41492-.19612-.80919a5.074,5.074,0,0,0-.725-2.98889,9.35743,9.35743,0,0,0-2.0871-3.12c-.783-.6953-1.50712-1.46044-2.23526-2.2135a5.7072,5.7072,0,0,1-1.53736-3.656,13.57989,13.57989,0,0,1,1.24667-6.12571,3.555,3.555,0,0,1,.7216-1.02566A5.79949,5.79949,0,0,0,52.622,80.276a15.11459,15.11459,0,0,1,.67868-1.65288,15.74536,15.74536,0,0,0,.54137-2.53857c.30426-1.85711-.43116-3.48947-.92274-5.18136-.16613-.576-.418-1.13173-.52784-1.71727a.58537.58537,0,0,0-.65134-.57094c-.51881-.0297-1.03506-.11569-1.54994-.195a3.76306,3.76306,0,0,1-1.48572-.86268c-1.30883-.88985-1.411-2.26356-1.65118-3.6021a8.23826,8.23826,0,0,0-.30108-1.61187c-.26955-.67633.23343-1.14657.30723-1.72311.00791-.063.21679-.168.29994-.14407a3.63584,3.63584,0,0,0,2.48537-.5094,16.35857,16.35857,0,0,0,5.51635-3.44211c.8801-.87184,1.84618-1.65809,2.71149-2.54463a23.22058,23.22058,0,0,0,3.766-5.17414A22.05257,22.05257,0,0,0,63.97277,43.973a15.301,15.301,0,0,0,.37816-1.78089c.10291-.74951.11332-1.51224.227-2.25909a.70859.70859,0,0,1,.4493-.49828.55261.55261,0,0,1,.35023.17753l.008-.00941a10.18665,10.18665,0,0,1,1.61075-.8131,4.66489,4.66489,0,0,0,2.65255-1.91319,3.9729,3.9729,0,0,1,1.44093-.62373.54618.54618,0,0,0,.24274.05844,1.2924,1.2924,0,0,1,1.39192.88032,10.7476,10.7476,0,0,0,.76844,1.4138c.28913.42964.73086.76646.97579,1.215a5.89535,5.89535,0,0,1,1.11125,3.106.95418.95418,0,0,0,.35288.77934A2.19731,2.19731,0,0,1,76.62437,45.56473Z" style="fill:#f4e184"/><path id="fill1" d="M43.59131,15.75788c-.22363.26009-.42587.53862-.63732.8092-.02371-.0236-.07212-.06022-.06754-.06891a7.19465,7.19465,0,0,1,.53391-.9672,4.97635,4.97635,0,0,1,.8206-.78916.69792.69792,0,0,1-.0939.43875C43.98523,15.39093,43.76529,15.55552,43.59131,15.75788ZM76.625,45.56467a7.7061,7.7061,0,0,0,.00059,1.42754C76.415,51.986,74.6309,54.15058,74.4238,55.54979c-.00734.04966-.0682.09137-.13407.13235a13.47487,13.47487,0,0,1-.69659,2.13186,36.01613,36.01613,0,0,1-1.64909,3.39883,5.18191,5.18191,0,0,1-1.15777,1.64459A2.91407,2.91407,0,0,0,69.72813,64.769a7.32155,7.32155,0,0,1-.8032,2.32663c-.19563.34266-.13.8239-.26378,1.2146a24.86863,24.86863,0,0,1-1.11038,2.80769c-1.06466,2.65857-3.2311,4.53527-3.76988,5.29409a1.13758,1.13758,0,0,1-.518.46327.71451.71451,0,0,1-.2699.0271c-.18265.50845-.34,1.02755-.52955,1.53307-.40851,1.08961-.83571,2.17305-1.20949,3.27456a5.43239,5.43239,0,0,0-.2666,1.41721,10.87242,10.87242,0,0,0-.03074,3.922,13.53274,13.53274,0,0,1,.24345,2.4575c.04321.41666.168.826.19652,1.2428a12.55043,12.55043,0,0,1-1.05533,5.98758,20.091,20.091,0,0,1-.959,2.35452c-.88983,1.47462-1.08741,3.16039-1.63976,4.73474a8.84141,8.84141,0,0,1-.80309,1.50362,4.824,4.824,0,0,1-1.90717,2.25838c-.02895.01364-.0447.0607-.07327.06888-.34736.09948-.92912.36314-1.00291.261-.28288-.39146.17224-.62123.40463-.88432.55085-.62359,1.13371-1.22216,1.64253-1.87825a2.43236,2.43236,0,0,0,.49859-1.11085c.05866-.45075.11678-.9015.16353-1.35249-.14029.24764-.42846.39422-.54845.35253-.31566-.10976-.28866-.415-.197-.80961a5.07325,5.07325,0,0,0-.72437-2.98841,9.37325,9.37325,0,0,0-2.088-3.12017c-.783-.6953-1.506-1.46008-2.23515-2.21379a5.70867,5.70867,0,0,1-1.53747-3.65554A13.60186,13.60186,0,0,1,50.58161,84.131a3.56985,3.56985,0,0,1,.72276-1.025,5.80909,5.80909,0,0,0,1.3176-2.83007,15.03582,15.03582,0,0,1,.679-1.65307,15.86956,15.86956,0,0,0,.54112-2.53765c.30389-1.8581-.4315-3.49029-.92257-5.18245-.167-.57543-.41825-1.13186-.5287-1.71632a.58626.58626,0,0,0-.65121-.57212c-.51847-.0296-1.03471-.1149-1.54914-.19422a3.75915,3.75915,0,0,1-1.48608-.86294c-1.30833-.88927-1.41065-2.26277-1.65077-3.60217a8.31167,8.31167,0,0,0-.30131-1.6117c-.27-.67589.23369-1.14719.30665-1.72284.008-.06309.21777-.16889.3-.14377a3.63726,3.63726,0,0,0,2.48622-.51042,16.348,16.348,0,0,0,5.51536-3.44135c.88067-.87189,1.84707-1.65837,2.712-2.54471a23.19027,23.19027,0,0,0,3.76558-5.17395,21.99966,21.99966,0,0,0,2.13432-4.8337,15.10744,15.10744,0,0,0,.37782-1.78027c.10378-.74933.11387-1.512.22714-2.2594a.7066.7066,0,0,1,.44948-.49748.54856.54856,0,0,1,.35048.17664l.00864-.00895a10.20707,10.20707,0,0,1,1.61048-.81328,4.66158,4.66158,0,0,0,2.6519-1.91379,3.98562,3.98562,0,0,1,1.44083-.62353.55208.55208,0,0,0,.2435.0588,1.292,1.292,0,0,1,1.39137.87979,10.76156,10.76156,0,0,0,.769,1.41414c.28908.4299.73006.76663.97609,1.21471a5.89969,5.89969,0,0,1,1.11124,3.10634.95285.95285,0,0,0,.352.77912A2.2,2.2,0,0,1,76.625,45.56467ZM47.559,61.89527l.10253.204C47.69536,62.03108,47.72925,61.963,47.559,61.89527Zm4.32613.38022c-.23388.40463-.43589.8277-.74959,1.34735.03361.106-.03894.444.19927.18246a9.03857,9.03857,0,0,0,.86008-1.25481c.04611-.07217.02513-.18724.03514-.28249C52.111,62.26816,51.915,62.22382,51.88509,62.27549ZM49.4085,62.1076a.79277.79277,0,0,0-.31532.246,4.36994,4.36994,0,0,0-.78772,3.43518,2.7827,2.7827,0,0,0,.50029,1.00787c.04219.076.14011.12107.21238.18038a1.139,1.139,0,0,0,.07928-.272,16.22589,16.22589,0,0,1,.19934-3.69074,4.3985,4.3985,0,0,1,.2938-.693C49.79716,61.99513,49.49865,62.08037,49.4085,62.1076Zm.70666,1.72163.12094-.49072c-.10858.07122-.29254.13036-.30639.21679C49.91283,63.66058,49.38375,63.96656,50.11516,63.82923Zm.20548.612c-.63328.92731-.342,1.97942-.39352,2.98416-.00294.05711.11086.1641.17619.16893a.2593.2593,0,0,0,.21378-.13107,1.85663,1.85663,0,0,0,.00991-.404,6.427,6.427,0,0,1,.18692-2.2591A.3194.3194,0,0,0,50.32064,64.44126Zm.57038-2.42354a9.5738,9.5738,0,0,0,.543-1.96831c-.73338.27382-1.47169.5356-2.19524.83327-.11979.04928-.17512.25528-.26024.38881.16373.04566.37125.178.48328.12135.395-.19963.75326-.47066,1.13559-.69753a.27915.27915,0,0,1,.26289.023.28306.28306,0,0,1,.04357.26275c-.225.44992-.47513.88723-.70391,1.33534a5.96811,5.96811,0,0,0-.22162.56168,2.40438,2.40438,0,0,0,.55363-.30329A1.51814,1.51814,0,0,0,50.891,62.01772Zm1.38132,1.51473c-.10664.07591-.26709.129-.31064.2316-.19528.46034-.36133.93331-.53042,1.4044a5.7837,5.7837,0,0,0-.28559,2.316c.01124.19472.54333.61745.65244.51194a.7905.7905,0,0,0,.15554-.50548c.01763-.54082.00452-1.08269.0029-1.82829A4.60422,4.60422,0,0,1,52.3,63.87741.95581.95581,0,0,0,52.27234,63.53245ZM67.419,39.4999a1.67083,1.67083,0,0,0,.66324.079,5.34138,5.34138,0,0,0,.72607-.44707c.16385-.08488.3627-.10217.64773-.252a3.90028,3.90028,0,0,1,2.401-.45864c.3499.07878.69415.18279,1.041.27531-.17242-.3263-.32278-.66688-.52228-.97568a1.166,1.166,0,0,0-1.37416-.56432,2.28684,2.28684,0,0,0-.97456.56118,9.428,9.428,0,0,1-2.13422,1.47281C67.73093,39.28709,67.5767,39.39643,67.419,39.4999Zm-2.43077,7.70879a1.22833,1.22833,0,0,0,.103.35163c.096-.09638.27858-.19933.27187-.28795-.02113-.27936-.11328-.55333-.17839-1.03355-.00052-.238.0036-.47622-.00482-.714a.5686.5686,0,0,0-.06888-.17427c-.044.06363-.08838.127-.13193.19091C64.6,46.098,64.99856,46.6527,64.98819,47.20869Zm-6.79073,9.15117a3.9035,3.9035,0,0,0,.46436-.5213c.06089-.09643.01006-.2634.11163-.50074.189-.39445.37911-.78837.566-1.18381a2.13329,2.13329,0,0,0,.07561-.21455c-.09155.00226-.21843-.03392-.26917.01274-.51054.46942-1.05767.92048-.93423,1.74019A3.79385,3.79385,0,0,1,58.19746,56.35986Zm-2.20187,1.45156A3.14614,3.14614,0,0,0,57.03332,56.494c.03793-.06174-.02326-.18437-.03855-.27882a.75387.75387,0,0,0-.21091.103c-.36007.35192-.71306.7111-1.1702,1.17022C55.65866,57.68629,55.40139,58.14994,55.99559,57.81142ZM54.1351,59.21825a.90721.90721,0,0,0,.359-.19628l.26389-.55209c-.14028.10017-.28585.19388-.41913.30265a1.58836,1.58836,0,0,0-.27541.28441C54.045,59.08205,54.11987,59.2211,54.1351,59.21825Zm1.46313,38.60194a4.56048,4.56048,0,0,0-.311-.788c-.36913-.70314-.37574-1.52092-.8003-2.22283-.6518-1.07759-1.20008-2.2187-1.77106-3.34362-.14092-.27759-.20009-.5967-.39914-.99862a5.05906,5.05906,0,0,1-.68194-2.76056A9.94738,9.94738,0,0,1,52.333,84.949c.65163-1.7343,1.37692-3.44205,2.11063-5.144a13.56861,13.56861,0,0,0,.9928-4.37784c.06533-.84494-.00647-1.69966.0109-2.5494a11.20422,11.20422,0,0,0-.35055-2.298,19.90742,19.90742,0,0,1-.67971-4.11185,7.0936,7.0936,0,0,1,.19556-1.24172c.19292-.93792.3598-1.88423.61616-2.80518a15.42839,15.42839,0,0,1,.84571-2.29931c.15918-.34613.36527-.56444-.15556-.72178a1.76852,1.76852,0,0,1,.02628-.40357c.0071-.116.01-.23223.01473-.34834-.14006.04741-.32451.05617-.40834.15253a.61367.61367,0,0,0-.12622.44543c.03459.22354.38115.4155.02231.66434-.24069.16686-.43909.44581-.70031.52a1.17978,1.17978,0,0,0-.76756.67225,11.08758,11.08758,0,0,0-1.302,5.41647,12.57614,12.57614,0,0,0,.89995,4.09023,22.03915,22.03915,0,0,1,.89534,3.1099,10.32819,10.32819,0,0,1-.30091,4.63294,23.7255,23.7255,0,0,1-.84,2.30111,9.32981,9.32981,0,0,1-1.517,3.055,6.50789,6.50789,0,0,0-.915,1.85533c-.2278.587-.319,1.22634-.53778,1.8177a8.13272,8.13272,0,0,0-.13408,3.38438,2.38705,2.38705,0,0,0,.55228,1.59325,19.11827,19.11827,0,0,0,1.8807,2.17742,8.44447,8.44447,0,0,1,2.33646,2.88392c.099.19453.13234.42255.2317.61685a.279.279,0,0,0,.27035.057A.30715.30715,0,0,0,55.59823,97.82019Zm1.0854,1.92186a8.09571,8.09571,0,0,0-.15022-.83154c-.27536-1.15754-.379-2.35576-.65037-3.51449a17.51513,17.51513,0,0,1-.62651-2.1916,14.73364,14.73364,0,0,0-.39326-2.08091,23.31363,23.31363,0,0,1-.20773-4.50989,10.58636,10.58636,0,0,1,.30351-2.11031c.25656-1.8127,1.06939-3.47084,1.33111-5.27792a20.78315,20.78315,0,0,1,.63172-2.38686,3.45479,3.45479,0,0,0,.15541-.64783c.04422-.65532.068-1.30522.15971-1.96336a7.96969,7.96969,0,0,0-.24726-2.3245,29.32,29.32,0,0,0-1.3467-4.85146,1.95452,1.95452,0,0,1-.00992-.60938c-.002-.91865.00116-1.83734-.0102-2.75588a3.92784,3.92784,0,0,0-.08976-.57386c-.03676.18259-.06238.36829-.112.54729a10.81127,10.81127,0,0,0-.38059,3.81156,17.11116,17.11116,0,0,0,.48492,2.55159,14.75245,14.75245,0,0,1,.51569,4.98443,15.22961,15.22961,0,0,1-.82895,4.44532c-.55439,1.2979-.98991,2.64705-1.6673,3.90824a14.36987,14.36987,0,0,0-1.11915,3.40707c-.47992,1.97075.43594,3.66843,1.3301,5.29013a21.42212,21.42212,0,0,1,1.64,3.50936A33.52311,33.52311,0,0,1,56.68363,99.74205Zm1.21761,1.39255c-.00229-.02572-.22276-.08149-.25229-.04671a.9764.9764,0,0,0-.28995.4776,4.99066,4.99066,0,0,0,.11127.91236c.36468-.21364.27243-.57053.38269-.99816A1.36071,1.36071,0,0,0,57.90124,101.1346Zm.47891-4.23977a10.26872,10.26872,0,0,1-.0399-1.72766c-.00816-.17843-.12749-.35174-.19637-.73156-.2125-.73117-.30257-1.48332-.55483-2.21735a17.02934,17.02934,0,0,1-1.29933-6.70779c.04927-.72116.11073-1.44265.20265-2.15937a17.89264,17.89264,0,0,1,.32988-1.90193c.3407-1.41868.78731-2.81528,1.0609-4.24575a30.71519,30.71519,0,0,0,.59562-4.53907c.09747-2.4858-.03435-4.97853.19844-7.46445a11.1136,11.1136,0,0,0-.18285-1.3419,19.28174,19.28174,0,0,1,.3689-3.4048,22.9224,22.9224,0,0,1,1.2052-5.01271,6.79814,6.79814,0,0,0,.22453-1.74.2501.2501,0,0,0-.15583-.191.27357.27357,0,0,0-.2364.11031c-.28225.87-.48457,1.77213-.83826,2.61082-.31665.75084-.31536,1.69068-1.23748,2.14243a1.85066,1.85066,0,0,0-.71792.90818,13.35628,13.35628,0,0,0-.85589,4.02564,16.41075,16.41075,0,0,0,.92321,6.754,9.34168,9.34168,0,0,1,.49123,2.4426,17.37917,17.37917,0,0,1-.56355,6.27931c-.5543,1.65686-.90019,3.37534-1.31877,5.07137-.28419,1.15149-.27658,2.31033-.48106,3.45506a8.72352,8.72352,0,0,0,.12684,2.25984c.1135,1.24209.25831,2.47561.4743,3.7001a19.71191,19.71191,0,0,0,.717,3.27437,8.54292,8.54292,0,0,1,.52048,3.35736c-.01469.32005-.11659.68781.24922.91432.11922-.25525.23337-.513.35919-.765a7.23109,7.23109,0,0,0,.352-.67025,2.25014,2.25014,0,0,0,.23574-.91236A11.08827,11.08827,0,0,0,58.38015,96.89483Zm1.40974-.96325a16.25224,16.25224,0,0,0-.38693-3.7172,19.48331,19.48331,0,0,0-1.02885-3.458,7.45637,7.45637,0,0,1-.40341-4.296A23.73767,23.73767,0,0,1,59.279,80.01708a23.98363,23.98363,0,0,1,1.51312-3.55283,14.9866,14.9866,0,0,0,1.551-5.165,10.05439,10.05439,0,0,0-.94624-5.61,12.78193,12.78193,0,0,1-1.29157-5.79575c.02874-.81518.0044-1.6324-.00452-2.44859a.89928.89928,0,0,0-.09229-.26619,1.33064,1.33064,0,0,0-.10518.24965c-.13911.69128-.26811,1.38456-.40808,2.07565-.05676.28024-.13314.55649-.20014,1.0387a12.58724,12.58724,0,0,0-.18693,1.65043,7.0542,7.0542,0,0,0,.188,2.67342.62035.62035,0,0,1-.00269.49835c-.3.4298-.1697.9-.184,1.353-.01933.61154.00257,1.22426-.0027,1.83639a8.26763,8.26763,0,0,1,.08579,1.52709,16.28306,16.28306,0,0,0-.08157,1.80758c-.04672.68755-.12722,1.37282-.19546,2.05882-.0649.65241-.13931,1.30387-.19615,1.95692-.02056.23625.092.53845-.0175.70356-.609.918-.54,2.02069-.88109,3.00557a17.2093,17.2093,0,0,0-.894,4.31071,16.83946,16.83946,0,0,0,.9636,7.2414,14.03976,14.03976,0,0,1,1.0772,6.19092.67642.67642,0,0,0,.002.20345c.0319.145.07673.28706.1163.43031a2.08067,2.08067,0,0,0,.28428-.39273A3.94693,3.94693,0,0,0,59.78989,95.93158ZM64.0268,71.03931a2.86934,2.86934,0,0,1,.171-1.6591.95515.95515,0,0,0-.01205-.69479c-.404-1.10074-.61419-2.259-.94489-3.37869-.43941-1.4878-1.24883-2.9203-1.087-4.5595A14.01306,14.01306,0,0,1,61.566,57.5263a8.46987,8.46987,0,0,1,.12508-2.36424A7.75138,7.75138,0,0,1,62.94958,51.595a8.8909,8.8909,0,0,0,1.21383-4.09486,3.69749,3.69749,0,0,1,.06361-.8925,7.44754,7.44754,0,0,0,.443-2.3072l.01454-.18925a.41544.41544,0,0,1-.21869.18969,24.03437,24.03437,0,0,1-1.18078,3.38577c-.62271,1.20665-1.208,2.4248-1.79107,3.64929a7.05,7.05,0,0,0-.39966,1.8816,28.40332,28.40332,0,0,0-.35213,3.91987,15.78,15.78,0,0,0,.16267,3.79686,16.57231,16.57231,0,0,0,1.0422,3.96443,12.348,12.348,0,0,1,1.00026,3.9625,14.76836,14.76836,0,0,1-.18282,3.78579,17.14351,17.14351,0,0,1-1.4558,4.28856c-.50561,1.11738-1.04811,2.22067-1.494,3.36162-.298.76268-.361,1.62328-.69737,2.3636-.53457,1.17648-.27929,2.44388-.57739,3.63732a1.00188,1.00188,0,0,0,.00207.507c.309,1.02758.67781,2.03876.94841,3.07585.39707,1.52183,1.10184,3.00513.70352,4.65242-.01272.05258.09109.18165.15388.19166.07456.01191.22629-.05475.23638-.10789a6.50572,6.50572,0,0,0,.19937-1.34264c-.04309-1.7415-.13165-3.48188-.20494-5.22259a1.51742,1.51742,0,0,0-.03416-.18963,19.09017,19.09017,0,0,1-.35775-2.19313c-.03295-.613.15261-1.23449.1706-1.85428a9.1442,9.1442,0,0,1,.58545-2.822c.69863-1.95478,1.45065-3.89065,2.13879-5.849A10.31544,10.31544,0,0,0,64.0268,71.03931Zm2.20478-5.13562a14.04456,14.04456,0,0,0-1.03172-2.12224,15.5133,15.5133,0,0,1-1.61008-4.53771,18.62051,18.62051,0,0,1-.21589-2.05679c-.0813-1.0255-.17791-2.05181-.19977-3.07924a14.21258,14.21258,0,0,1,.18092-1.65135,1.29835,1.29835,0,0,0-.07623-.37393c-.0479.10231-.094.20549-.14395.3068a9.36733,9.36733,0,0,0-.97015,5.20032c.10764,1.0142.51548,2.00312.56811,3.01486a12.16516,12.16516,0,0,0,.65138,3.00977c.17827.57319.319,1.16.52863,1.72116a8.7,8.7,0,0,1,.70865,3.17831,6.10113,6.10113,0,0,0,.00857,1.01956c.307,1.96384-.49389,3.76454-.80268,5.63691a8.0244,8.0244,0,0,0,2.9805-4.92922A8.402,8.402,0,0,0,66.23158,65.90369Zm1.66172-.81338a11.96656,11.96656,0,0,0-1.04673-4.064,41.72755,41.72755,0,0,0-1.72833-4.28543,4.59488,4.59488,0,0,1-.36778-1.57769,17.7882,17.7882,0,0,1-.12268-3.403,23.68388,23.68388,0,0,0,.36751-2.48983,6.04764,6.04764,0,0,1,.15014-.74877,1.09009,1.09009,0,0,0-.063-.33865c-.096.09643-.2486.17858-.27717.292-.07875.31245-.09455.64008-.15486.958a23.08784,23.08784,0,0,0-.64108,3.49471,24.56613,24.56613,0,0,0,.18385,5.7302,17.00717,17.00717,0,0,0,.49635,2.143,28.37829,28.37829,0,0,0,1.24763,2.892,3.76181,3.76181,0,0,1,.286.49359,10.17892,10.17892,0,0,1,1.05345,4.4646,2.86663,2.86663,0,0,0,.00491.50952.83855.83855,0,0,0,.11584.24554c.09573-.06032.25718-.10436.2768-.18356a9.42864,9.42864,0,0,0,.39173-1.871C68.09341,66.601,67.88566,65.84354,67.8933,65.09031Zm1.22579-5.63605A14.16237,14.16237,0,0,0,67.859,55.59158a12.241,12.241,0,0,1-1.642-4.04689q-.10563-1.63778-.211-3.27554c-.00428-.06688.0157-.14527-.01308-.19771a.19563.19563,0,0,0-.15673-.09134c-.08434.01666-.22325.07148-.22832.12161-.02379.23515.00419.47508-.01175.71158a17.32362,17.32362,0,0,1-.21751,2.66067A9.26872,9.26872,0,0,0,66.027,57.164c.49657,1.21995.98809,2.44283,1.52423,3.64552a10.38922,10.38922,0,0,1,.94279,4.80586.65344.65344,0,0,0,.00858.3011c.04637.091.159.14815.24281.22.05231-.06939.14034-.13356.15151-.20906a22.02065,22.02065,0,0,0,.38291-2.88634A14.692,14.692,0,0,0,69.11909,59.45426Zm3.049-6.33247a10.88847,10.88847,0,0,0-1.22341-3.16593c-.94327-1.55407-1.96083-3.06321-2.95976-4.58291-.0599-.09114-.23244-.10819-.35257-.1597a1.10776,1.10776,0,0,0,.1032.50961c.23937.54648.49816,1.08539.71428,1.64088.53852,1.38427.90582,2.8234,1.34751,4.23776a21.7219,21.7219,0,0,1,.87332,4.61635,11.56365,11.56365,0,0,1-.13779,4.298,2.02093,2.02093,0,0,0-.00034.71037c.00615.07378.09674.14054.14868.21052.08416-.07172.21707-.12826.24487-.21755.25339-.81365.48778-1.63322.72907-2.45065A14.86984,14.86984,0,0,0,72.16808,53.12179Zm1.99021-1.77805a21.7107,21.7107,0,0,0-1.474-5.19283A7.56478,7.56478,0,0,0,68.66994,42.382c-.49155-.20873-1.02413-.32389-1.50789-.547-.46935-.21647-.46939-.54889-.037-.80224a1.15721,1.15721,0,0,1,.52506-.20019,15.455,15.455,0,0,1,3.78292.21242,9.95171,9.95171,0,0,1,2.87456,1.194c.28444.1734.56137.3591.84173.53916.12258-.436-.17776-.71238-.3583-1.05195a12.77512,12.77512,0,0,1-.457-1.23836.61773.61773,0,0,0-.19537-.21435,1.56391,1.56391,0,0,0-.335-.29933,1.74551,1.74551,0,0,0-.63578-.37257,2.45953,2.45953,0,0,0-.797-.28181,3.56181,3.56181,0,0,0-2.30125.06916c-1.03733.41736-1.91949,1.021-3.02873.82556-.099-.01746-.24577-.04481-.298.00633a3.10959,3.10959,0,0,1-.86531.5881A11.81711,11.81711,0,0,1,65.705,43.438a3.07017,3.07017,0,0,0,.06182,1.39862,37.62272,37.62272,0,0,1,1.04272,3.75352,10.79909,10.79909,0,0,1,.17008,1.85409,13.08784,13.08784,0,0,0,1.74646,5.2154,9.42527,9.42527,0,0,1,.98132,3.6793,3.482,3.482,0,0,0,.10842.67,1.94246,1.94246,0,0,0,.21095.39488,1.72212,1.72212,0,0,0,.08387-.37183c.0036-1.25885.0802-2.52485-.02877-3.77448a19.81155,19.81155,0,0,0-.6295-3.30743c-.419-1.58794-.91078-3.15794-1.41414-4.72187a20.41532,20.41532,0,0,0-.90481-2.278,11.939,11.939,0,0,1-.73285-2.65824,6.32965,6.32965,0,0,1-.19031-.73313,1.49357,1.49357,0,0,1,.14984-.50786,3.763,3.763,0,0,1,.5306.195c.06639.03522.07475.16862.12464.2478.731,1.16012,1.45911,2.32207,2.199,3.47653.74139,1.15692,1.45965,2.33092,2.2514,3.45273a8.28909,8.28909,0,0,1,1.46089,6.01435,7.87014,7.87014,0,0,1-.76145,3.248c-.06444.10574.0372.31275.06179.47279.11164-.10448.28424-.18915.32552-.31641a38.70866,38.70866,0,0,0,1.27947-3.972C74.08115,53.68489,73.66285,52.47543,74.15829,51.34374ZM73.465,42.621a20.12637,20.12637,0,0,0-2.953-1.01314,6.917,6.917,0,0,0-1.86474-.17056c-.0558-.00486-.11624.04335-.17453.0669.05116.0721.08973.18988.15573.20807a4.255,4.255,0,0,1,.75053.15956,7.7641,7.7641,0,0,1,3.34536,2.94124,20.78327,20.78327,0,0,1,1.82753,4.85444,2.5814,2.5814,0,0,1,.032.70227c.00472.98668.02187,1.97366.00372,2.96-.00238.12975-.00793.25876-.01489.38745.61561-1.852,1.54028-4.44363,1.59852-5.01559C76.39364,46.51732,76.21485,44.09236,73.465,42.621ZM35.29243,63.98508a.52144.52144,0,0,0-.077.17106A9.23986,9.23986,0,0,1,33.956,68.01908a3.40525,3.40525,0,0,1-1.84746,1.4626,6.4074,6.4074,0,0,1-2.75176.15864.73978.73978,0,0,1-.21692-.08971c-.00287.09209-.0385.19967-.00347.27391a21.72185,21.72185,0,0,1,.97111,2.04595,18.0575,18.0575,0,0,1,.625,2.49647c.11864.608-.00945,1.22694.17445,1.86481a3.80174,3.80174,0,0,1-.16618,1.73792c-.28085,1.27178-.57359,2.544-.94129,3.79261A12.37417,12.37417,0,0,1,28.16794,85.068c-.93189,1.40914-1.71008,2.9293-2.7298,4.26807a14.36413,14.36413,0,0,0-2.06325,3.44266c-.51721,1.33264-1.49849,2.41676-1.84289,3.83293-.3683,1.51429-.95251,3.01836-.70733,4.58541.29566,1.88955.345,3.85271,1.2243,5.61052a10.04913,10.04913,0,0,0,1.035,1.40859c.22108.2961.81934.57169.35993.97124-.47009.40888-.65643-.286-.88484-.5149a11.86609,11.86609,0,0,1-1.17559-1.54219,6.99045,6.99045,0,0,1-1.01125-2.03234c-.15448-.50376-.24884-1.099-.91974-1.36319-.27907-.10987-.3639-.64949-.60013-.94288a9.657,9.657,0,0,1-1.71862-3.88025,15.16882,15.16882,0,0,1-.41388-2.78661,16.99129,16.99129,0,0,1,.64658-4.31469c.38495-1.86949,1.2037-3.62978,1.3703-5.5581.04869-.56369.33524-1.10906.368-1.67128a5.84244,5.84244,0,0,0-.22834-1.52942A9.45991,9.45991,0,0,0,18.49764,81.78a.411.411,0,0,0-.33836-.20215c-.09746.01156-.2318.17679-.25354.29242a26.50526,26.50526,0,0,1-1.22852,5.00242c-.32606.817-.73286,1.60152-1.07061,2.41422a14.70573,14.70573,0,0,1-2.224,3.47273c-.31248.392-.49614.8841-.77289,1.30813-.213.32627-.50544.7971-.91865.51185-.35881-.24764.03019-.66946.20417-.93343.411-.62362.92788-1.17717,1.34279-1.79854a3.74765,3.74765,0,0,0,.76487-1.50747,22.43417,22.43417,0,0,0,.441-4.31964A13.015,13.015,0,0,0,12.5768,80.056a5.54431,5.54431,0,0,0-.75889-.78054A21.15809,21.15809,0,0,0,7.9743,76.28874a21.61214,21.61214,0,0,1-2.69969-2.1008C4.728,73.63634,4.134,73.126,3.632,72.53681a12.31486,12.31486,0,0,1-3.118-5.6427C.35884,66.06952.2295,65.2399.09888,64.411a18.45046,18.45046,0,0,1,.035-3.9105,13.80612,13.80612,0,0,1,.79792-3.123,27.19442,27.19442,0,0,1,3.23311-6.51851A3.317,3.317,0,0,1,4.663,50.349c.88811-.892,1.7556-1.80575,2.66954-2.67042a26.89954,26.89954,0,0,0,2.91722-3.6044,10.04123,10.04123,0,0,0,1.01858-2.32411.6131.6131,0,0,0-.01009-.49611c-.403-.56125-.14132-1.1799-.16408-1.76379a1.04261,1.04261,0,0,1,.44421-.70364c.08667-.06457.41333.16621.61551.28795a11.77958,11.77958,0,0,0,3.18942,1.67091.75707.75707,0,0,1,.63061.78373c-.00878.3059-.01109.6129.00618.91814a.96908.96908,0,0,0,.1254.29682c.0923-.09795.24479-.18524.26443-.29605a4.29173,4.29173,0,0,0,.01144-.7122c.00125-.19428-.05847-.38863.27738-.40576.40339-.02057.33.22584.33428.45271.00261.136.00554.2723.00066.40818A12.92922,12.92922,0,0,0,19.413,49.764c.63983.991,1.22565,2.01871,1.901,2.98429a12.09193,12.09193,0,0,0,2.93359,3.05555,43.28066,43.28066,0,0,0,4.72482,2.64644,13.421,13.421,0,0,0,2.16575.92474,16.3293,16.3293,0,0,0,1.81187.31144c.561.11089,1.10721.31293,1.67145.387a1.12132,1.12132,0,0,1,.9656,1.07383c.05931.41214.09868.82725.12778,1.24376-.02951.19923-.06141.39823-.09056.59754-.02153.065-.04187.13035-.0667.1944-.06824.17613-.13789.35221-.191.53367A1.69841,1.69841,0,0,0,35.30179,64Zm-11.686-7.70047a1.98814,1.98814,0,0,0,.051.34734c.23641.71788.48089,1.43314.825,2.25111a15.77691,15.77691,0,0,0,1.545,3.43974c.65506,1.19432,1.35651,2.3633,2.05,3.53609.04924.08331.19917.10707.30227.15852.03291-.08837.10857-.18571.09223-.26377-.1961-.93731-.39527-1.87425-.6141-2.80646a10.6427,10.6427,0,0,0-3.8348-6.549A1.23612,1.23612,0,0,0,23.60647,56.28461ZM20.7869,53.183c.10581.44068.2102.88168.31813,1.32182.04527.18467.10284.3664.14678.55136a32.57118,32.57118,0,0,0,2.64377,6.25012,36.82515,36.82515,0,0,0,2.4287,3.892c.719,1.13046,1.4896,2.2327,2.12782,3.407.17328.31879.32225.23057.51666.27191.03493-.17791.14786-.38874.08944-.52727a4.60125,4.60125,0,0,0-.56891-.98686,39.526,39.526,0,0,1-3.83461-6.26765,8.503,8.503,0,0,1-.46768-.82624c-.46319-1.27181-.898-2.554-1.44541-3.93422-.02772-.83137-.67616-1.35383-1.03087-2.01964A7.2331,7.2331,0,0,0,20.7869,53.183Zm-3.08846-4.87761c.04238.19509.09561.38856.125.5856.07548.506.13477,1.01441.214,1.51977a1.37448,1.37448,0,0,0,.13824.31969,2.32881,2.32881,0,0,1,.26774-.29321c.534-.41872-.14531-.82625-.107-1.34041a1.17032,1.17032,0,0,0-.14566-.33855A6.01256,6.01256,0,0,0,17.69844,48.30535ZM17.222,50.571a44.38291,44.38291,0,0,0,.25752,5.30452,31.73269,31.73269,0,0,0,1.36131,4.51674,19.22588,19.22588,0,0,0,.74945,1.97215c.30744.55133.59792,1.11326.9323,1.64773.1052.16816.32828.26259.4974.39075a5.22341,5.22341,0,0,0-.10523-.58024,1.48176,1.48176,0,0,0-.18947-.32794A16.44389,16.44389,0,0,1,18.7,58.84139a23.02127,23.02127,0,0,1-.88155-6.47422,8.54111,8.54111,0,0,0-.21121-1.74254c-.018-.1087-.18121-.19343-.27743-.28922C17.29213,50.414,17.21911,50.49389,17.222,50.571Zm1.95767,8.12227c.00544.02767.0611.04486.0677.073a23.02676,23.02676,0,0,0,1.91143,4.51357,9.22322,9.22322,0,0,0,2.5792,3.83146,1.15594,1.15594,0,0,1,.25121.30183c.82165,1.23718,1.64013,2.4765,2.45966,3.81732l.18925.01455a.41546.41546,0,0,1-.18969-.21872,1.46718,1.46718,0,0,0-.08023-.47623c-.37016-.665-.77232-1.31213-1.1481-1.97409-.51524-.90762-.996-1.83534-1.52879-2.73234-1.02249-1.72146-2.09468-3.41378-3.09754-5.14636-.40755-.70413-.62541-1.52035-1.05086-2.21086-.236-.3829-.05189-.98878-.62714-1.17343C19.00288,57.77319,19.08907,58.23362,19.17962,58.69325Zm-3.0911-14.009c.0954.59354-.21319,1.27342.703,1.47343.03654.008.00135.31861.01147.48752a.63406.63406,0,0,0,.06576.17545c.0451-.06086.11406-.11625.12959-.1839A.66652.66652,0,0,0,17,46.33324a19.92853,19.92853,0,0,0-.61352-2.02993l-.07255-.47969c-.044.09727-.15227.24117-.12118.28394C16.3495,44.32353,16.04569,44.41778,16.08852,44.68425Zm-.64711,3.43083a31.30071,31.30071,0,0,1-1.26939,4.1661,13.59155,13.59155,0,0,0-.86934,3.43375c-.02886.74439-.37,1.5016-.35169,2.2829a15.81187,15.81187,0,0,0,.68575,4.31182,5.90232,5.90232,0,0,0,1.43815,2.85985,28.83311,28.83311,0,0,1,3.2736,3.97377,18.29129,18.29129,0,0,1,3.41575,5.71254c.08362.2606.21081.50727.31781.76039.02894-.328.06767-.65556.08-.98421.00311-.08267-.10293-.16448-.11739-.2535a13.29625,13.29625,0,0,0-1.25443-3.25723c-1.05691-2.35347-2.20637-4.66538-3.31728-6.99462a23.27471,23.27471,0,0,1-1.62005-3.50734,20.69066,20.69066,0,0,1-.63494-4.32731,12.4295,12.4295,0,0,1,.37147-3.004,8.34825,8.34825,0,0,1,.56961-2.62053c.35554-1.182,1.069-2.36477.03153-3.56177-.01686-.01946.01008-.07313-.00444-.099-.06756-.12049-.14252-.23681-.21482-.35463-.13183.13211-.33767.24405-.38028.40043A9.76047,9.76047,0,0,0,15.44141,48.11508Zm-1.29619-4.33847a13.07314,13.07314,0,0,1-.777,3.55639c-.66418,1.90127-1.36277,3.791-1.99643,5.70226-.40763,1.22952-.725,2.489-1.08248,3.93914a6.035,6.035,0,0,0-.195.93775,16.65316,16.65316,0,0,0,.83875,6.38916,9.85311,9.85311,0,0,0,2.14885,3.59553c.67279.70487,1.38039,1.37639,2.06829,2.06693a27.216,27.216,0,0,1,4.15793,5.41715,12.2257,12.2257,0,0,1,1.01321,1.92536,10.41894,10.41894,0,0,1,.8468,4.45052c-.02965.37172-.13821.82958.02746,1.10427a1.80348,1.80348,0,0,1,.14074,1.453,11.44489,11.44489,0,0,0-.16754,2.27294,5.561,5.561,0,0,1-.16129.74756c-.2136.93149-.43847,1.86062-.6334,2.796a1.89059,1.89059,0,0,0,.06458.58027,2.6559,2.6559,0,0,1,.14816-.49054,5.13628,5.13628,0,0,0,.55551-.993c.53893-2.15,1.58211-4.1113,2.27572-6.20263A24.57465,24.57465,0,0,0,24.627,78.0171a12.87131,12.87131,0,0,0,.18553-1.65043,21.758,21.758,0,0,0-.21142-2.7702,18.0144,18.0144,0,0,0-.56354-2.31514,32.23988,32.23988,0,0,0-1.21565-3.169,9.43681,9.43681,0,0,0-2.32137-3.4292,7.00391,7.00391,0,0,1-1.61768-2.69178c-.50727-1.32168-1.03806-2.64308-1.41227-4.00485a16.21342,16.21342,0,0,1-.86234-4.85323c.01061-.30574.00789-.61253-.00532-.91813a.80935.80935,0,0,0-.10314-.25068c-.032.08877-.062.17835-.09635.2662a9.79137,9.79137,0,0,0-.57881,3.11647,14.74911,14.74911,0,0,0,.209,3.17493,10.293,10.293,0,0,0,.71908,2.861c1.32406,2.71516,2.58533,5.46121,3.9307,8.16555a20.00517,20.00517,0,0,1,2.07352,5.87074,38.18113,38.18113,0,0,1,.2356,4.197,10.913,10.913,0,0,1-.62186,3.008c-.0351.14361-.39439.35154-.50162.30321-.20508-.09239-.39182-.24239-.16958-.6234a5.91149,5.91149,0,0,0,.696-2.6699,11.48173,11.48173,0,0,0-1.22237-5.01107A23.8424,23.8424,0,0,0,18.3809,69.9736c-1.01241-1.45684-2.30118-2.71935-3.43293-4.09651a6.68761,6.68761,0,0,1-1.40154-2.27526,37.06487,37.06487,0,0,1-1.05909-3.75549,11.58361,11.58361,0,0,1,.1304-4.71717,12.24459,12.24459,0,0,1,1.29034-4.04381.71509.71509,0,0,0,.0433-.18561c.31975-1.15969.67719-2.3106.94875-3.48145.2109-.90939.29516-1.84747.4755-2.765a4.19677,4.19677,0,0,0-.00425-1.15979c-.03316-.43976-.00935-.88382-.01031-1.326-.00022-.102.04261-.25282-.00814-.29768-.21655-.19143-.46075-.35154-.69488-.5231a2.90341,2.90341,0,0,0-.30731.67873A15.70421,15.70421,0,0,0,14.14522,43.77661ZM11.935,40.38548c.089.11806.208.35089.26232.33666.65771-.17233.85889.3194,1.12108.93376.069.44769.136.89572.20957,1.34264a.669.669,0,0,0,.08158.16957c.04005-.03923.11468-.07813.115-.11772.00588-.64595.00734-1.29211-.00748-1.93784-.00136-.0586-.11356-.12783-.1871-.16943a7.3689,7.3689,0,0,1-1.14924-.657C12.10722,40.05642,12.06676,40.29353,11.935,40.38548Zm-.969,6.70827a1.17868,1.17868,0,0,0-.024.34474c.09539-.06834.22162-.11685.28058-.20861.20417-.31758.38492-.6502.67644-1.07939.23536-.64557.48421-1.28662.7016-1.93821a2.88138,2.88138,0,0,0,.10473-1.50765,1.90276,1.90276,0,0,0-.12171-.31079c-.02657.09032-.05639.1798-.07916.27106a13.46987,13.46987,0,0,1-.34894,1.37545C11.78026,45.06588,11.35937,46.07469,10.966,47.09375Zm-2.12482.62161a24.63749,24.63749,0,0,1-1.5495,3.0247,31.48064,31.48064,0,0,0-3.11714,6.67239A19.88965,19.88965,0,0,0,3.382,62.58327,16.13132,16.13132,0,0,0,3.55619,64.434a6.72194,6.72194,0,0,0,.63748,2.7c.307.68983.73324,1.32986,1.00506,2.03135a4.98769,4.98769,0,0,0,2.12036,2.56645A10.22228,10.22228,0,0,1,9.054,72.69c1.46527,1.35114,3.12892,2.45517,4.30943,4.1667a21.10027,21.10027,0,0,1,2.47793,4.80082,5.00557,5.00557,0,0,1,.14977.69c.0227-.26244.048-.52468.06679-.78741a.77765.77765,0,0,0-.00523-.30371,15.9663,15.9663,0,0,0-3.54783-6.1755c-.66166-.65669-1.38365-1.25258-2.18048-1.978-.50622-.57191-.97109-1.18813-1.52673-1.70718A17.26747,17.26747,0,0,1,5.66178,66.5668c-1.024-1.92712-.85539-4.16735-1.0464-6.28643a14.29239,14.29239,0,0,1,.35993-2.68555,14.53163,14.53163,0,0,1,1.02176-3.55635,26.76429,26.76429,0,0,1,2.678-4.59794,14.27494,14.27494,0,0,0,2.05653-3.54329c.15461-.54393.37465-1.06908.53952-1.61051.02088-.06859-.10292-.19521-.18343-.26906a.32517.32517,0,0,0-.20677.137A4.11074,4.11074,0,0,1,9.625,45.984c-.06034.05347-.14315.18684-.1257.20762.57706.68646-.16278.85464-.45989,1.19875A1.57923,1.57923,0,0,0,8.8412,47.71536Zm8.80745,32.81123a7.19706,7.19706,0,0,1-.52489-1.86434,4.62291,4.62291,0,0,0-1.5159-2.52867c-.93377-.84-1.90733-1.63556-2.86109-2.45335a21.40912,21.40912,0,0,0-1.73737-1.48481,8.47428,8.47428,0,0,1-2.69946-2.86536A13.39792,13.39792,0,0,1,6.323,64.84956c-.12407-.88811-.48458-1.72047-.53253-2.64249a18.1031,18.1031,0,0,1,1.16175-6.36264,53.13935,53.13935,0,0,1,2.34944-5.65824,2.08281,2.08281,0,0,0,.09155-.41916c-.16409.071-.4078.09589-.47982.22022q-.97491,1.68331-1.8958,3.39781a14.42537,14.42537,0,0,0-1.41715,4.3087,6.46809,6.46809,0,0,0-.33156,2.66609c.2548.88582-.13033,1.67153.07358,2.537.226.95925.4126,1.93444.655,2.90013a14.61112,14.61112,0,0,0,1.12226,2.294A10.851,10.851,0,0,0,9.381,71.3308c.79551.81083,1.70955,1.50608,2.49748,2.32347a31.271,31.271,0,0,1,2.10233,2.49051,8.85227,8.85227,0,0,1,1.60174,2.59835c.10863.32819.2272.65433.36309.972a6.43148,6.43148,0,0,1,.71694,3.47314c-.12368.84919-.3569,1.6833-.55922,2.51976a9.741,9.741,0,0,1-.36514,1.1747c-.035.09177-.20857.1307-.31839.194-.05533-.10077-.16745-.20881-.15564-.301a3.71159,3.71159,0,0,1,.20041-.93408,4.17758,4.17758,0,0,0,.38105-2.18031,17.302,17.302,0,0,0-.45667-1.84859,18.11154,18.11154,0,0,0-3.19106-5.81817,2.34626,2.34626,0,0,0-.50495-.50283c-.46359-.34885-.94406-.67526-1.41726-1.01136a20.28725,20.28725,0,0,0-2.78528-1.899,5.12561,5.12561,0,0,1-2.51958-2.30049,15.31349,15.31349,0,0,0-.83168-1.69809C2.90553,66.73534,2.884,64.61351,2.76274,62.52189a10.21343,10.21343,0,0,1,.18551-1.75172,14.9866,14.9866,0,0,1,.5574-2.93,34.94878,34.94878,0,0,1,1.97683-5.04057Q6.74077,50.61509,7.9992,48.4307c.05588-.097.11379-.19274.17072-.28907a1.08409,1.08409,0,0,0-.38716-.03212.76728.76728,0,0,0-.30718.237c-.6755.73958-1.31371,1.51651-2.02638,2.21795A9.76889,9.76889,0,0,0,3.6661,52.997a30.57212,30.57212,0,0,0-2.30742,5.1668,19.09845,19.09845,0,0,0-.83986,3.82809,12.67021,12.67021,0,0,0,.397,4.31874,10.399,10.399,0,0,0,1.44158,3.68866,5.61342,5.61342,0,0,1,.60272.77136c.90561,1.90138,2.70683,2.92221,4.1709,4.27076a7.80065,7.80065,0,0,0,1.4138,1.017,17.16774,17.16774,0,0,1,3.34693,2.49945,9.99,9.99,0,0,1,2.92593,6.62954,16.13458,16.13458,0,0,1-.17,4.4037c-.022.11505-.04246.23041-.06365.34565a1.65943,1.65943,0,0,0,.26343-.30439c.27218-.53263.54147-1.06752.78791-1.61237a22.26114,22.26114,0,0,0,.92151-2.1681c.2384-.723.35684-1.48557.52755-2.23086.13518-.59006.28241-1.17783.40037-1.77135C17.573,81.40569,17.81388,80.85944,17.64865,80.52659ZM6.83309,61.01867c.03427-.82329.1339-1.64371.18631-2.46654a1.46707,1.46707,0,0,0-.11005-.43369c-.09721.12983-.27257.25558-.27959.39013-.07734,1.47888-.63121,2.89105-.25172,4.44911a18.13888,18.13888,0,0,0,1.48444,4.63825,8.76387,8.76387,0,0,0,2.39272,3.38863c.63452.563,1.33106,1.05557,1.99127,1.59016.79165.64107,1.573,1.29482,2.3645,1.93608.04261.03449.13742.00454.20794.00458-.00172-.06731.024-.15831-.01-.19786-.13266-.15414-.28722-.28919-.42836-.43644a11.73956,11.73956,0,0,1-2.3266-2.70434c-.092-.18365-.36576-.26755-.52575-.42732A14.46088,14.46088,0,0,1,9.52887,68.665,20.9832,20.9832,0,0,1,7.8265,65.29816,9.91466,9.91466,0,0,1,6.83309,61.01867ZM19.3367,92.10441a25.76007,25.76007,0,0,1,.68073-2.88749,20.46634,20.46634,0,0,0,.72546-5.1966,21.19836,21.19836,0,0,0-.14867-3.18358,11.26072,11.26072,0,0,0-1.04934-3.6635,17.69541,17.69541,0,0,0-2.0771-3.62717,28.54224,28.54224,0,0,0-1.85657-2.28488c-.73167-.76852-1.57825-1.42606-2.34524-2.16273a12.16165,12.16165,0,0,1-3.1716-5.92885c-.232-.88408-.26252-1.8138-.46519-2.67548a10.3279,10.3279,0,0,1,.13792-3.99554,10.77231,10.77231,0,0,1,.69805-2.56228c.396-.95839.59351-1.99669.93708-2.97935.47721-1.36491,1.03547-2.7016,1.50914-4.06768a19.86342,19.86342,0,0,0,.60473-2.29818,2.5502,2.5502,0,0,0-.07637-.77719,5.4704,5.4704,0,0,0-.31469.65656,11.05963,11.05963,0,0,1-.97193,2.45621c-.50206.80812-.97446,1.63533-1.439,2.46587-.30763.55011-.57119,1.12464-.86737,1.68136a14.62379,14.62379,0,0,0-1.83732,4.65577c-.09464.62381-.06357,1.256-.19354,1.8542a14.29421,14.29421,0,0,0-.39137,2.18356A4.82445,4.82445,0,0,0,7.416,61.956c.30161.79809.30729,1.70746.60473,2.5078.39317,1.0578.93655,2.06065,1.4317,3.07919a4.062,4.062,0,0,0,.58363.97851c1.06465,1.16656,2.16121,2.304,3.34841,3.554,1.061,1.19229,2.15705,2.35589,3.16867,3.58873a4.53909,4.53909,0,0,1,1.14176,2.1768,8.089,8.089,0,0,0,.41179,1.56258c.17567.47946.59194.87263.76935,1.31256a8.59214,8.59214,0,0,1,.62651,2.69023,14.05094,14.05094,0,0,1-.19618,3.47977c-.31332,1.57816-.82406,3.11881-1.28212,4.66606a12.51845,12.51845,0,0,0-.48841,6.45347c.17367.90431.42443,1.79424.662,2.685.02559.096.18321.15675.27961.2338a1.1502,1.1502,0,0,0,.06994-.27579q.00164-2.29612-.00683-4.59222a3.18418,3.18418,0,0,1,.00618-.71256C18.79943,94.26143,19.11889,93.19322,19.3367,92.10441Zm7.69545-24.54194c-1.37087-2.29366-2.9932-4.43368-4.18561-6.84a23.37165,23.37165,0,0,1-2.18846-5.6295c-.25514-1.239-.64155-2.45214-1.00108-3.66742a2.49625,2.49625,0,0,0-.43672-.63386c-.191.151-.44546.266-.55669.46217a1.62615,1.62615,0,0,0-.20449.82472c.01864.484.14777.96251.189,1.44688a14.67687,14.67687,0,0,0,1.58008,5.16446A44.1229,44.1229,0,0,0,23.218,64.07526c.73594,1.09222,1.21934,2.31,1.98575,3.37491a16.86409,16.86409,0,0,1,1.36835,2.28741,18.45219,18.45219,0,0,1,1.48152,6.31679,16.39709,16.39709,0,0,1-.16634,5.01238,4.96105,4.96105,0,0,1-1.29471,2.94217,3.87363,3.87363,0,0,0-.71991,1.223c-.42924.90987-.81289,1.84133-1.24878,2.74785-.06925.144-.31308.204-.47621.30285-.03763-.18674-.15216-.39966-.09911-.55555a10.53,10.53,0,0,1,.67741-1.65634,11.79169,11.79169,0,0,0,1.43268-3.288,17.10222,17.10222,0,0,0,.47328-1.93821,17.17118,17.17118,0,0,0,.44641-3.29218,1.50343,1.50343,0,0,1,.00719-.60788,4.59544,4.59544,0,0,0-.39585-3.66018c-.38308-.75348-.55035-1.62428-.97713-2.34622-.66879-1.13128-1.47257-2.18308-2.229-3.26162-.053-.07568-.187-.0946-.28331-.13994.00691.0921-.01651.20185.02527.27362a11.77913,11.77913,0,0,1,1.32655,3.3346,15.98024,15.98024,0,0,1,.6746,4.10434c-.03583,1.06171-.18252,2.122-.17505,3.18209a8.938,8.938,0,0,1-.56124,2.9377c-.61329,1.81861-1.27162,3.62234-1.9314,5.42489-.33483.9148-.71349,1.81356-1.17417,2.82187a11.82844,11.82844,0,0,1-.73292,1.736,8.32288,8.32288,0,0,0-1.25911,4.16129,28.68747,28.68747,0,0,0,.13219,5.2287,23.12716,23.12716,0,0,0,.77577,2.8571,4.20335,4.20335,0,0,0,.4249.79665,5.47242,5.47242,0,0,0,.00243-.95944c-.16-.94884-.44145-1.88462-.51539-2.838a6.76358,6.76358,0,0,1,.29322-1.90608,10.14112,10.14112,0,0,0,.45982-1.7366,5.41343,5.41343,0,0,1,.96787-2.56876,5.42977,5.42977,0,0,0,.63-1.0647,24.73319,24.73319,0,0,1,1.90276-3.70411,11.50007,11.50007,0,0,1,.99187-1.22656C26.26683,87.2,27.083,86.01022,27.815,84.77189A16.20058,16.20058,0,0,0,29.17142,81.969a30.84072,30.84072,0,0,0,.95453-3.58287,5.74416,5.74416,0,0,0,.17026-1.94865c-.04449-.33942.128-.62833.02825-.95294-.10334-.33606-.125-.69654-.19555-1.04363-.10186-.50093-.20249-1.00278-.32664-1.49846A20.48552,20.48552,0,0,0,27.03215,67.56247ZM27.2874,79.512c-.20772,1.00056-.41125,2.00206-.603,3.00579-.01386.07258.07131.16409.11043.2468.097-.05869.26666-.10477.27944-.17817.089-.511.13418-1.02959.21785-1.54179.03511-.21478.12981-.41988.197-.8335-.00051-.23755.00352-.47524-.00475-.71251a.57545.57545,0,0,0-.0676-.17438C27.37235,79.38656,27.30165,79.44342,27.2874,79.512Zm3.42624-14.33616a10.281,10.281,0,0,0-.74354-3.45445,4.69222,4.69222,0,0,0-2.20466-2.62362c-.13444-.08113-.27773-.14764-.41692-.221-.02452.1819-.13478.41721-.06.53731a11.294,11.294,0,0,1,1.12529,3.19663c.22107.83446.31161,1.703.47457,2.5536.09569.49957.255.989.32269,1.49146a9.19942,9.19942,0,0,0,1.03246,2.21893c.16748.40762.33056-.01666.48684-.30772-.06856-.2429-.26061-.53694-.18476-.72A7.43478,7.43478,0,0,0,30.71364,65.17585Zm1.80334.20343a5.80207,5.80207,0,0,0-.35274-3.1918A9.49915,9.49915,0,0,0,29.8505,59.4847c-.04865-.04021-.107-.06865-.26319-.20441-.51.04916-.34234.26771-.11936.491a3.64287,3.64287,0,0,1,1.11584,1.6807c.21071.80191.37864,1.6124.58856,2.40583a8.12084,8.12084,0,0,1,.10817,2.975,3.78041,3.78041,0,0,0,.06668,1.77,1.2,1.2,0,0,0,.19586.26867c.06942-.08628.17915-.16343.20107-.2604a3.729,3.729,0,0,1,.22975-1.1229A5.08909,5.08909,0,0,0,32.517,65.37928Zm1.68527-1.22976a.88578.88578,0,0,1-.20512-.61617,2.8785,2.8785,0,0,0-1.188-2.26,1.26583,1.26583,0,0,0-.33833-.16192,1.5214,1.5214,0,0,0,.08534.359,5.1107,5.1107,0,0,1,.61065,2.802A15.43159,15.43159,0,0,0,32.985,65.818a3.833,3.833,0,0,1-.62266,2.133l.07252.68333c.11956-.16755.23287-.34006.3609-.50082a2.01112,2.01112,0,0,1,.28635-.28912,3.79488,3.79488,0,0,0,1.21219-2.045C34.43694,65.24987,34.76812,64.68687,34.20225,64.14952Zm-.1208-3.65406c-.30864-.06738-.61469-.15733-.92693-.19366a2.4665,2.4665,0,0,0-.5749.06519,2.30333,2.30333,0,0,0,.41083.32984,2.47358,2.47358,0,0,1,1.613,2.50823,1.077,1.077,0,0,0,.104.34452c.0995-.12723.27363-.24829.28474-.38285.03588-.43463-.03426-.88019.02145-1.31057C35.10246,61.17032,34.76218,60.81755,34.08145,60.49546ZM67.54167,25.00208c-.63338.91113-.599,2.00145-.96548,2.975a3.29593,3.29593,0,0,1-.23475.71669A21.41415,21.41415,0,0,0,64.404,32.69108a1.6601,1.6601,0,0,1-.32853.3819,3.03181,3.03181,0,0,1-.14231-.42594,28.06372,28.06372,0,0,0-.65429-3.51068,12.231,12.231,0,0,0-1.96355-3.67676,25.23091,25.23091,0,0,0-2.97875-3.35026,14.62279,14.62279,0,0,0-4.707-2.93118,13.33411,13.33411,0,0,0-4.08421-.96155,6.065,6.065,0,0,0-1.54575.19811c-1.21746.25558-2.43507.51692-3.63811.83143a9.00309,9.00309,0,0,0-1.38108.60292c-.51079.23166-.69221.13865-.71505-.39592a3.62621,3.62621,0,0,1,.05868-.58571c.01721-.14074.04133-.28061.06238-.42088-.14009.05521-.331.07019-.41186.17231-.46285.58464-.9004,1.18935-1.34449,1.78875-.11012.14867-.21271.30291-.31877.45459a2.68577,2.68577,0,0,1-.48177-.6161,2.90887,2.90887,0,0,1-.02643-.70678c-.01114-.10342-.10757-.19762-.16528-.296-.07845.07756-.20116.14231-.228.23484-.15021.51784-.25637,1.049-.41809,1.5628-.16378.52041-.39863.59789-.73892.20074a5.38339,5.38339,0,0,0-3.42534-1.62595,20.798,20.798,0,0,0-3.63356-.13983,6.54733,6.54733,0,0,0-2.442.74817,14.95942,14.95942,0,0,0-6.27945,4.2785,26.2304,26.2304,0,0,0-2.6178,4.01371,24.22441,24.22441,0,0,0-2.13822,5.03658,6.30836,6.30836,0,0,0-.314.98713c-.03649.33753-.243.301-.41357.252a.42353.42353,0,0,1-.20513-.34266,15.80551,15.80551,0,0,0-.38-2.79595,2.39154,2.39154,0,0,0-1.4335-1.93413,5.29257,5.29257,0,0,1-.86784-.608,5.03823,5.03823,0,0,0-.44321-.41273c-.018-.01382-.03683-.02756-.05621-.0409-.04112-.0389-.08326-.07668-.127-.1125-.089-.09408-.16954-.23029-.27351-.25155-.73981-.15131-.66522-.86059-.93092-1.33083-.10659-.18862-.08366-.49543-.22889-.60992a2.075,2.075,0,0,1-.55823-2.6353,2.49156,2.49156,0,0,0-.02394-2.13888,2.41626,2.41626,0,0,1-.04712-2.07659,4.22225,4.22225,0,0,0,.21916-1.23316c.015-.0989-.03083-.26249.01687-.29263.78983-.49924.58179-1.28571.59087-2.00621a4.86482,4.86482,0,0,1,1.0706-2.51292c.89738-1.41186,1.88624-2.76687,2.87179-4.12023a4.81692,4.81692,0,0,1,.89191-.71187A7.42877,7.42877,0,0,1,20.25839,5.229a10.94983,10.94983,0,0,0,1.44917-.67512c.48543-.35008.81373-.92569,1.3101-1.25112.74674-.48961,1.33885-1.30522,2.24786-1.43993,1.05389-.15613,1.9261-.97931,3.06043-.76929.16441.03044.4462-.06226.49285.01344.42741.69366.84107.22113,1.20366-.02127a2.74642,2.74642,0,0,1,2.85562-.05682c.38066.17018.65254.45541,1.03753-.23064A1.99207,1.99207,0,0,1,36.76924.45046c.43686.3867.691.58608,1.235.08941A1.29615,1.29615,0,0,1,39.918.732c.31568.34235.4456.24712.74914-.01284A3.66037,3.66037,0,0,1,41.76924.19761a.91338.91338,0,0,1,1.262.45405c.16494.30217.2742.63433.41813.9486a2.09067,2.09067,0,0,0,.186.28087c.07327-.08272.17642-.15347.21514-.25A1.8688,1.8688,0,0,1,46.18546.65115a1.39006,1.39006,0,0,1,.35516.33227c.07752.27572.25217.54448.15816.83581a.05709.05709,0,0,0,.009.05273c-.0095.03182-.02.06316-.02962.09487a15.0705,15.0705,0,0,1,2.3469-.48771,2.561,2.561,0,0,1,2.32072.56775c.19651.20843.66782.16586,1.01587.22139.54418.08681,1.09827.12686,1.63264.2526a1.02,1.02,0,0,1,.62353.426,1.022,1.022,0,0,0,1.09974.55783,1.38873,1.38873,0,0,1,1.35984.95706,1.09416,1.09416,0,0,0,.72951.80172,4.22076,4.22076,0,0,1,2.404,2.65048,1.12221,1.12221,0,0,0,.39355.54392A4.37514,4.37514,0,0,1,62.23755,11.135a1.193,1.193,0,0,0,.72791.90054,2.416,2.416,0,0,1,1.3251,1.78536c.11.33223.13312.6924.22077,1.03343a.51311.51311,0,0,0,.21342.24823,3.00463,3.00463,0,0,1,1.251,2.19673,12.76655,12.76655,0,0,0,.67095,2.36417,11.489,11.489,0,0,1,1.0709,4.04775A2.47283,2.47283,0,0,1,67.54167,25.00208ZM65.527,19.49123c-.44089-.32255-.88392-.64492-1.347-.93378-1.42914-.89129-2.65478-2.10794-4.31573-2.631a15.65023,15.65023,0,0,0-4.78135-1.043c-1.33759.00266-2.58888.444-3.90776.47579a5.20053,5.20053,0,0,0-1.35876.39467.6815.6815,0,0,0-.178.13479c.05886.022.12125.06944.176.06189a8.61577,8.61577,0,0,1,1.34269-.19089,20.25964,20.25964,0,0,1,4.70681.18717,16.21654,16.21654,0,0,1,3.02979.80466c.74938.40668,1.53454.75988,2.24021,1.2319a20.68771,20.68771,0,0,1,3.68971,2.429c.422.43465.85751.85614,1.28683,1.28365.08945.08908.2458.24149.23295-.01853a7.71191,7.71191,0,0,0-.21923-1.6423C66.06413,19.81515,65.74735,19.65238,65.527,19.49123ZM54.49346,4.39348a1.94529,1.94529,0,0,1-1.4279.32981,1.03155,1.03155,0,0,0-.57885.06664c-1.16672.79921-2.33134,1.60357-3.46237,2.452-.60777.45592-1.094,1.08753-1.73022,1.489-1.38708.87523-2.00637,2.33691-2.91325,3.5795-.05885.08063-.0272.22732-.03764.34328a1.17367,1.17367,0,0,0,.2839-.19888c1.1511-1.48988,2.83617-2.23867,4.38774-3.1724q2.28129-1.37279,4.56377-2.74357A4.41658,4.41658,0,0,1,55.791,5.72438c.14245-.00232.28289-.12739.52612-.298.35942-.44308.34385-.75146-.21982-1.05876A1.30306,1.30306,0,0,0,54.49346,4.39348ZM44.13387,7.23273a10.4946,10.4946,0,0,0-.64324,1.26416c-.35665.87293-.67858,1.76011-1.00659,2.64448a.79451.79451,0,0,0,.00237.2747c.09611-.0544.23494-.08453.28184-.16695.579-1.01766,1.1203-2.05756,1.72269-3.06087a10.84777,10.84777,0,0,1,1.243-1.7277,29.89534,29.89534,0,0,1,2.58485-2.58268,16.088,16.088,0,0,1,2.09656-1.32228c.11566-.07141.23017-.14467.34522-.21707-.13318-.08928-.26611-.25514-.3996-.25559a5.00973,5.00973,0,0,0-2.7939.39508,1.985,1.985,0,0,1-1.13337.21446A29.77131,29.77131,0,0,1,44.13387,7.23273ZM26.50364,2.53082a1.786,1.786,0,0,0,.42316.30894c.53548.18568,1.07736.35791,1.626.49966a7.41606,7.41606,0,0,1,4.29737,2.9215c.89986,1.24264,1.64813,2.57457,2.47157,3.86123a9.42,9.42,0,0,1,1.41838,3.391c.1102.59346.2694,1.17784.4082,1.76593.0217.092.05293.18168.07976.27246.04119-.10394.12511-.21148.11675-.31127-.06023-.71933-.02325-1.43144-.154-2.16491A24.45041,24.45041,0,0,0,36.31852,9.553c-.20524-.49215-.38491-.99695-.62106-1.47381A14.41475,14.41475,0,0,0,34.19311,5.252a7.30191,7.30191,0,0,0-4.65574-2.7375,1.07416,1.07416,0,0,1-.57964-.30494,1.41166,1.41166,0,0,0-2.06956-.08327A2.77355,2.77355,0,0,0,26.50364,2.53082ZM18.19927,8.21706A1.50548,1.50548,0,0,0,18.5,8.05776,7.11631,7.11631,0,0,1,20.7143,6.998a7.29535,7.29535,0,0,1,3.04119-.78629,4.23914,4.23914,0,0,1,2.17223.42049,8.28337,8.28337,0,0,1,3.62885,2.31171c.66.72957,1.24378,1.52782,1.89484,2.266.23166.26267.62867.38852.83424.66352.82864,1.10855,1.61374,2.2497,2.41135,3.38133.48146.6831.95047,1.37513,1.443,2.05.04979.06825.22339.04616.33953.066-.03219-.07205-.06167-.14549-.097-.216a34.90109,34.90109,0,0,0-3.12827-5.7387,38.26331,38.26331,0,0,0-2.60581-3.1939,11.171,11.171,0,0,0-2.57832-2.1386A5.31206,5.31206,0,0,0,23.93274,5.361a7.55142,7.55142,0,0,1-2.88415.4806,1.90714,1.90714,0,0,0-1.21544.4557,14.24434,14.24434,0,0,0-1.51888,1.50589C18.22745,7.89558,18.2352,8.07682,18.19927,8.21706Zm-5.339,8.39354c.007.08305.06358.20872.12478.22832a.29544.29544,0,0,0,.25924-.08087c.22179-.27678.40894-.58153.63283-.85638a13.80143,13.80143,0,0,1,4.139-3.77011,8.08246,8.08246,0,0,1,2.3967-.6318,9.01148,9.01148,0,0,1,6.03513.80622,47.351,47.351,0,0,1,4.57677,2.976c.39868.26637.79936.52991,1.20419.78677a.58671.58671,0,0,0,.21412.03655c.00344-.06647.03594-.15547.005-.19528a3.1348,3.1348,0,0,0-.3457-.36732c-.98125-.91235-1.95939-1.82819-2.95007-2.73023A10.27337,10.27337,0,0,0,27.78745,11.672a14.14354,14.14354,0,0,0-2.944-1.74992,7.16133,7.16133,0,0,0-4.50772-.1927,14.93076,14.93076,0,0,0-3.09589,1.6133c-1.0671.64557-2.08427,1.37524-3.10546,2.09349-.16867.11863-.24618.36689-.46765.65754A4.53254,4.53254,0,0,0,12.86024,16.6106Zm-.80581,4.56664a1.25627,1.25627,0,0,0,.0927.36692c.13995-.06925.333-.10155.4111-.21382.45629-.656.88487-1.33126,1.32423-1.99908a17.79255,17.79255,0,0,1,4.009-4.115,5.21188,5.21188,0,0,1,1.393-.81068,28.81274,28.81274,0,0,1,3.60023-1.14389,4.86847,4.86847,0,0,1,2.36867-.00418A13.69294,13.69294,0,0,1,28.6748,15.184a8.46327,8.46327,0,0,1,2.5278,1.52,2.75547,2.75547,0,0,0,1.32257.50452c.10416.01642.22557-.07651.339-.11907a1.98427,1.98427,0,0,0-.29078-.27767q-2.78874-1.75952-5.585-3.50707a8.65868,8.65868,0,0,0-3.81646-1.34347,18.11848,18.11848,0,0,0-3.17407.18919,3.49148,3.49148,0,0,0-1.002.28159,11.47271,11.47271,0,0,0-3.92088,3.1885c-.79525.87336-1.33356,2.03954-2.54983,2.50568-.1346.05159-.19783.31251-.27588.48465A6.83988,6.83988,0,0,0,12.05443,21.17724Zm1.0015,3.32992a15.13193,15.13193,0,0,1,3.1199-4.93221,11.43359,11.43359,0,0,1,2.81448-2.28282A14.0927,14.0927,0,0,1,25.358,15.40851c.3033-.02815.62993.20135.93412.17537,1.44-.12308,2.55184.74219,3.7842,1.22835.24562.09689.42722.28359.70555.143-.1695-.18327-.30546-.431-.5139-.53942-1.48212-.77065-2.97679-1.51738-4.47219-2.26222a3.9,3.9,0,0,0-2.4729-.33784,8.357,8.357,0,0,0-1.37738.36854,16.098,16.098,0,0,0-2.9737,1.18216,14.48469,14.48469,0,0,0-3.255,2.60182,1.51947,1.51947,0,0,1-.1471.34606c-.47276.62359-.9841,1.2198-1.42817,1.8627a22.9025,22.9025,0,0,1-1.39733,2.165,2.825,2.825,0,0,0-.67428,1.97091c-.003.44071-.225.96373.28263,1.30635A5.23146,5.23146,0,0,0,13.05593,24.50716Zm.17811,1.33969c-.47585.14455-.35722.57416-.34765.92607.00261.09686.11066.19087.17031.2862.13107-.1571.273-.3067.38907-.47418.06936-.1.09825-.22814.24718-.44591C13.75027,25.71638,13.41407,25.79215,13.234,25.84685Zm.49366-.28438c.12-.07636.28654-.12453.35254-.23358.4922-.81336.96449-1.63876,1.54489-2.56268.28753-.357.56149-.726.865-1.06878a16.39653,16.39653,0,0,1,3.56951-2.94829,11.51205,11.51205,0,0,1,6.65936-2.13257,1.179,1.179,0,0,0,.40444-.01015c.09146-.03051.15236-.15267.22686-.234-.06707-.0548-.13315-.15554-.2014-.157a4.47428,4.47428,0,0,1-1.61229-.04519c-.56638-.25711-.98112.20514-1.48672.06556-.2087-.05763-.47828.13086-.72546.18186a11.04873,11.04873,0,0,0-1.69654.33935A10.88729,10.88729,0,0,0,16.3122,20.401,20.252,20.252,0,0,0,13.677,24.72173c-.05767.14595-.18315.29093-.17451.43C13.51124,25.29277,13.64736,25.42588,13.7277,25.56247Zm1.58335,1.192c.71459-1.90053,2.15918-3.28524,3.39761-4.80606a15.91484,15.91484,0,0,1,3.016-2.502,13.32528,13.32528,0,0,1,2.91574-1.596,7.07268,7.07268,0,0,1,3.20914-.635c.10054.00666.21227-.15464.31881-.23795-.10289-.05279-.20405-.14678-.309-.15117a5.23614,5.23614,0,0,0-1.32443.09769,13.96067,13.96067,0,0,0-4.32772,1.36395,16.925,16.925,0,0,0-4.67855,3.201,8.20975,8.20975,0,0,0-1.36075,1.57467c-.48981.73339-.87314,1.5377-1.30585,2.30949-.35577.63456-.73089,1.25875-1.06918,1.9024a1.08855,1.08855,0,0,0,.39455,1.17377.417.417,0,0,0,.31274-.08828C14.48706,27.67589,15.10133,27.31222,15.31105,26.75446Zm14.07939-7.3948a1.75517,1.75517,0,0,0-.21849-.21391c-.40092-.27748-.73488.09429-1.10481.121A7.70184,7.70184,0,0,0,23.81363,21.079c-1.01807.80054-2.11915,1.49981-3.10225,2.33905a12.39156,12.39156,0,0,0-1.89934,2.068,18.28709,18.28709,0,0,0-1.755,2.84364,2.48951,2.48951,0,0,0-.30542,1.85369c.1963.63981.28391,1.31262.43013,1.96854.01705.07647.10248.13771.15623.206.08236-.07367.21524-.13429.23826-.22334a5.751,5.751,0,0,1,.24781-1.12191c.706-1.41181,1.45147-2.80437,2.20624-4.19106a12.57129,12.57129,0,0,1,.72648-1.02807c.271-.39634.5292-.80148.89483-1.30511a9.24551,9.24551,0,0,1,2.92514-2.75122,24.45331,24.45331,0,0,0,2.29691-1.3178,4.89063,4.89063,0,0,1,2.27192-.9517A1.27747,1.27747,0,0,0,29.39044,19.35966Zm3.467-.826c-.07226-.072-.13184-.17839-.21881-.21045-.73759-.272-1.47957-.53226-2.2224-.78975a.23715.23715,0,0,0-.19828.017.18946.18946,0,0,0,.008.186c.153.11242.33508.187.48117.30647a2.01,2.01,0,0,1,.27605.34692,2.26635,2.26635,0,0,1-.54878-.04274c-.11524-.03669-.20791-.17161-.29054-.27821a1.05293,1.05293,0,0,0-1.04538-.44022,13.9751,13.9751,0,0,1-1.9541.19832,5.2707,5.2707,0,0,0-2.6491.75706c-2.34356,1.31507-4.71679,2.609-6.41852,4.99349-.31145.44921-.60477.91236-.93785,1.34489A21.76817,21.76817,0,0,0,15.10118,28.566c-.27561.54868.21441.53763.36482.709.1019.11615.37518.06017.51088-.33342a15.05266,15.05266,0,0,1,2.96883-4.57917,25.32773,25.32773,0,0,1,5.55945-4.53908,6.38135,6.38135,0,0,1,4.4-1.12381,11.33367,11.33367,0,0,0,3.71218-.05626A1.09719,1.09719,0,0,0,32.85747,18.53362Zm2.25652.41327a10.527,10.527,0,0,0-1.36373-1.29847c-.31123-.21056-.84438.15813-1.20232-.21632a1.1933,1.1933,0,0,0-.206.218.19267.19267,0,0,0,.05805.17567,6.962,6.962,0,0,0,1.18132.792C34.03243,18.814,34.45788,19.17124,35.114,18.94689Zm2.19323-1.47919c-.17618-.74124-.34716-1.48607-.5755-2.212a13.19837,13.19837,0,0,0-1.0199-3.04734c-.00032-.06821.026-.15316-.00483-.20224-1.03324-1.64745-2.03484-3.31641-3.12-4.92912a6.72622,6.72622,0,0,0-4.70425-3.13661,10.86031,10.86031,0,0,1-1.89143-.5973.88224.88224,0,0,1-.48032-.29316c-.26831-.50379-.50745-.44583-.81452-.04679-.06654.08644-.24262.07958-.33808.15423Q23.3541,3.94307,22.36657,4.75c-.04879.03975-.04813.14017-.07045.21237a.5907.5907,0,0,0,.192.02334c.12259-.02656.239-.0803.36068-.11283a7.57453,7.57453,0,0,1,4.41534.07352,9.35,9.35,0,0,1,3.28277,2.16218,29.01389,29.01389,0,0,1,2.87473,3.57552,16.01824,16.01824,0,0,1,2.788,4.67363c.33593.9167.64135,1.84518.92984,2.77782.0331.107-.11877.28575-.216.40614-.01913.02369-.21219-.04149-.273-.11111A23.59934,23.59934,0,0,1,35.11817,16.617a32.76191,32.76191,0,0,0-3.68171-4.59234,10.90161,10.90161,0,0,1-1.36033-1.37777,9.08945,9.08945,0,0,0-4.14944-3.27767C24.696,6.881,23.44323,6.46772,22.127,7.21275a6.59775,6.59775,0,0,1-1.59168.58458,5.0756,5.0756,0,0,0-2.53915,1.52212.96329.96329,0,0,1-.65182.35249,1.099,1.099,0,0,0-1.01806.52679c-.36789.42269-.73145.85009-1.07448,1.29281-.07934.10241-.06819.275-.09868.41525.14012-.04577.32048-.05089.41409-.14363a11.01325,11.01325,0,0,1,3.22648-2.071,5.97007,5.97007,0,0,1,1.28018-.59379,10.20589,10.20589,0,0,1,3.01246-.27542,8.128,8.128,0,0,1,3.10028.906,15.8439,15.8439,0,0,1,3.80452,2.90525c1.58776,1.67687,3.13767,3.38957,4.70888,5.08222a8.71613,8.71613,0,0,1,.92428.94731,1.81692,1.81692,0,0,0,1.27809.83951c.08277.01353.23826.02249.24439.00083A3.99712,3.99712,0,0,0,37.30722,17.4677Zm1.391,2.58523a2.18431,2.18431,0,0,1-.10094-.28871,10.46379,10.46379,0,0,1-.21177-1.13533c-.1205-1.32833.04249-2.654-.17534-4.00107-.27842-1.72183-.44532-3.46214-.87163-5.16034a13.89283,13.89283,0,0,0-1.3613-3.9246,17.48634,17.48634,0,0,1-.88849-1.56929A4.59105,4.59105,0,0,0,32.472,1.6433,2.43677,2.43677,0,0,0,30.663,1.50475a1.39989,1.39989,0,0,0-.28212.18342,1.52474,1.52474,0,0,0,.24807.21832c.80083.44569,1.60569.88411,2.51163,1.42655a5.889,5.889,0,0,1,2.33975,2.68317,29.94822,29.94822,0,0,1,1.11581,2.80047,14.4362,14.4362,0,0,1,1.16786,5.233c-.02866,1.52927.01262,3.05974-.00331,4.58939a1.61584,1.61584,0,0,0,.59355,1.28358A1.05548,1.05548,0,0,0,38.69824,20.05293Zm.48493-4.40976c-.0565-.68445-.14951-1.36607-.1984-2.05093A25.08248,25.08248,0,0,0,38.132,8.55a7.411,7.411,0,0,0-1.00479-2.67361c-.16317-1.0087-.93348-1.73069-1.26788-2.6638-.07444-.20772-.37824-.33326-.57664-.59872a.386.386,0,0,1-.20461-.20373.38572.38572,0,0,1-.2046-.20373l-.18923-.01451a.41556.41556,0,0,1,.18967.21868.386.386,0,0,1,.2046.20373.3859.3859,0,0,1,.20461.20371A23.24488,23.24488,0,0,1,36.75683,5.6954c.03758.121.243.18995.37078.38512a2.53786,2.53786,0,0,0,.01442.80881,23.826,23.826,0,0,1,.85676,3.21351c.35912,1.7119.50476,3.44339.7793,5.16039.02114.13223-.03377.286.0141.40193.04772.11563.1803.19619.27569.29212C39.10859,15.85241,39.1915,15.744,39.18317,15.64317Zm-.00688-4.92764c.08118.7861.13411,1.57515.21975,2.36069a1.37784,1.37784,0,0,0,.19862.425c.03654.07121.08347.13709.12572.20539.02583-.05726.074-.11447.07416-.17184a20.58936,20.58936,0,0,0-.02319-2.54619c-.11513-.94557-.48825-1.86277-.574-2.80817a19.4433,19.4433,0,0,0-.84879-3.94c-.47815-.82116-.9235-1.6641-1.44858-2.45407a4.65964,4.65964,0,0,0-1.00389-.99.58892.58892,0,0,0-.88379.05948c-.07522.09167-.09282.37664-.05007.39782,1.27542.63165,1.55416,1.99474,2.19654,3.063a26.83943,26.83943,0,0,1,1.797,4.85813A6.5178,6.5178,0,0,1,39.17629,10.71553Zm.22413,7.81375-.20394.10251C39.26461,18.66566,39.33274,18.69955,39.40042,18.52928Zm4.9662-3.025a9.40107,9.40107,0,0,1,2.91179-2.3715,14.53271,14.53271,0,0,1,4.1814-1.483c.95676-.20011,1.87519-.57987,2.82964-.79577.91292-.20648,1.869-.23435,2.77074-.47406a3.61886,3.61886,0,0,1,2.00638-.00465,11.74581,11.74581,0,0,0,2.04317.243c.21363.02018.34448.06791.1693-.28436-.47537-.95581-1.00468-1.76021-2.21947-1.75617a.48783.48783,0,0,1-.33658-.15605A1.10832,1.10832,0,0,0,57.498,8.20317,28.28008,28.28008,0,0,0,53.20487,9.411c-.90617.35926-1.8293.67569-2.73652,1.03242a16.837,16.837,0,0,0-5.083,3.49666,4.15372,4.15372,0,0,1-1.09353.69955c.024-.09232.01774-.21738.0767-.272q1.02111-.946,2.0608-1.87179c.3943-.351.796-.69455,1.20653-1.02636a16.7987,16.7987,0,0,1,4.74461-2.34265,22.36561,22.36561,0,0,1,6.49816-1.56447c.33-.02324.4457-.34933.17371-.618a10.60867,10.60867,0,0,0-1.36562-1.142.62756.62756,0,0,0-.58816.1c-.23882.58627-.72177.46851-1.14442.434A2.75586,2.75586,0,0,0,53.81828,7.11c-.13975.124-.339.17906-.48606.29689-.629.50406-1.486.63751-2.07881,1.11423a19.64586,19.64586,0,0,1-3.34953,2.04632,12.315,12.315,0,0,0-4.22655,3.49268c-.2144.28149-.42624.56639-.66035.83107-.275.311.03405,1.04757-.76537,1.01351-.10857-.00463-.23414.47912-.36041.73246a.676.676,0,0,1-.14119.14608c-.03606-.08342-.11782-.17857-.09992-.24808a3.20931,3.20931,0,0,1,.24791-.71185c.78824-1.478,1.51462-2.99671,2.41158-4.40645A11.34914,11.34914,0,0,1,46.567,8.46517c1.07174-.86393,2.11609-1.76359,3.21294-2.59409a21.781,21.781,0,0,1,2.328-1.51862,20.56271,20.56271,0,0,1,1.88729-.8596c.086-.03828.17782-.06348.26695-.0947-.09047-.096-.16485-.24874-.2738-.27964a5.1243,5.1243,0,0,0-5.09014,1.00942,23.665,23.665,0,0,0-4.26939,4.65079,37.85512,37.85512,0,0,0-2.062,3.33369c-.61448,1.233-1.0311,2.56439-1.545,3.84844-.03638.09089-.16242.14591-.24676.2176-.05183-.10431-.15594-.21345-.14676-.31207.04823-.518.16921-1.03266.17739-1.54987a7.58846,7.58846,0,0,0-.18539-1.1404c-.01156-.08172.06066-.17531.09428-.26345a2.0131,2.0131,0,0,1,.1013.2626c.0739.31064.136.62406.20975.93472.033.13893.083.2738.12528.41049a2.26282,2.26282,0,0,0,.21109-.42226c.29984-1.13538.56552-2.28015.885-3.40982a13.28845,13.28845,0,0,1,1.83724-4.44549,7.73464,7.73464,0,0,0,.59328-1.07935,8.32638,8.32638,0,0,0,.48465-1.02347c.271-.77344.891-1.38778.96492-2.26274.02133-.25234.138-.41026-.11482-.62028a.58144.58144,0,0,0-.70931-.12265,3.54781,3.54781,0,0,0-1.8265,2.07268c-.11528.29474.04329.68686-.03423,1.00769-.65669,2.71765-1.3394,5.429-2.01277,8.14262-.04438.17888-.07605.3609-.11364.54146-.03049-.19159-.07332-.38224-.08809-.575a2.30734,2.30734,0,0,1,.00059-.61105c.32736-1.66467.66992-3.32632,1.00393-4.9897a21.10828,21.10828,0,0,1,.64919-3.09944,3.384,3.384,0,0,0-.2501-2.31381.64749.64749,0,0,0-.82109-.51548,2.52373,2.52373,0,0,0-1.21672.975c-.06944.09672-.16257.14028-.09793.3725a15.29946,15.29946,0,0,1,.49155,2.65453,10.29273,10.29273,0,0,1-.00729,2.54525,17.20963,17.20963,0,0,1-.1561,2.40893,4.90851,4.90851,0,0,0-.08241,1.0892c-.04512-.40344-.10608-.80589-.13068-1.21056a8.58512,8.58512,0,0,1-.00319-1.12208,26.05593,26.05593,0,0,0-.44389-5.54274,5.68037,5.68037,0,0,0-.60523-1.58052A.71263.71263,0,0,0,38.52112.99807c-.685.30524-.7137.4363-.3955,1.19208a16.45027,16.45027,0,0,1,1.5116,4.28934c.06994.54675.05085,1.10816.16077,1.65274a13.16322,13.16322,0,0,1,.37906,2.18363,12.323,12.323,0,0,1,.05746,2.89785c-.16842.83374.26533,1.71164-.00736,2.58561-.05659.18135.11452.42395.14112.64313a1.583,1.583,0,0,1-.15326,1.32563c-.07027.08525-.14548.16643-.21841.24949-.06318-.09288-.17812-.18413-.1811-.27889-.01822-.5778-.00675-1.15649-.01777-1.73465-.00133-.07029-.078-.13919-.11979-.20875a.65875.65875,0,0,0-.07643.17177c-.0711.54976-.15152,1.099-.19652,1.65108-.022.27-.07235.50389.32931.69173.31734.14842.46875.6567.68635,1.00979a2.10475,2.10475,0,0,1,.12927.30574,2.47924,2.47924,0,0,0,.21465-.218c.45829-.59214.79451-1.46476,1.39451-1.72058A5.84944,5.84944,0,0,0,44.36662,15.50431Zm2.768.79757a8.40124,8.40124,0,0,1,3.08476-1.17606c.75422-.11206,1.49066-.34,2.23831-.50091A7.87481,7.87481,0,0,1,54.991,14.1622a12.24644,12.24644,0,0,1,3.22866.538c1.09882.46543,2.29683.72759,3.3389,1.28793a35.60118,35.60118,0,0,1,3.34856,2.27233c.20249.14088.38679.3079.57948.46286a3.77626,3.77626,0,0,0,.03433-.79521,5.256,5.256,0,0,0-.316-1.193c-.20083-.47734-.36683-1.021-1.06649-1.0317-.16008-.00244-.326-.194-.47417-.31667a8.55227,8.55227,0,0,0-4.61932-1.90417c-.61342-.0687-1.22235-.18109-1.83665-.23722a8.57366,8.57366,0,0,0-2.37526-.12659c-1.89608.37989-3.74182,1.01243-5.63882,1.38592a8.85311,8.85311,0,0,0-5.30435,3.30458c-.04464.055-.09763.1032-.14673.15458a.4953.4953,0,0,1-.05256-.18.85588.85588,0,0,1,.08724-.36919,8.4775,8.4775,0,0,1,5.25853-3.503c.76974-.18675,1.531-.40859,2.50022-.61485a15.4325,15.4325,0,0,0,2.05922-.45209,8.26137,8.26137,0,0,1,4.64642-.12145A10.169,10.169,0,0,1,63.339,14.43777c.10389.08059.31269.02594.47279.03407a2.53182,2.53182,0,0,1-.12307-.39305,2.12466,2.12466,0,0,0-1.4327-1.71172c-.41157-.16941-.9196-.18717-.85883-.847.00764-.083-.23178-.25174-.3742-.27535-.92681-.15369-1.85479-.31852-2.78932-.40309-1.4855-.13443-2.86627.48653-4.30419.71025a31.46391,31.46391,0,0,0-4.00894,1.13672,10.912,10.912,0,0,0-5.40678,3.18008,11.81423,11.81423,0,0,0-1.35569,1.98817,3.55369,3.55369,0,0,0-.1932,1.16573c.3161-.13365.637-.25717.94668-.40438a1.86053,1.86053,0,0,0,.65132-.38181A9.34983,9.34983,0,0,1,47.13465,16.30188ZM64.60817,27.92111c-.81214-1.04156-1.55171-2.13946-2.33014-3.20758A13.47431,13.47431,0,0,0,60.74777,22.71c-1.05269-.98155-2.26484-1.79121-3.32677-2.76394a11.9088,11.9088,0,0,0-4.31514-2.15c-.11646-.04167-.28964.07534-.43645.11859.09685.093.17835.22936.29365.27016a9.144,9.144,0,0,1,.93256.313,4.52016,4.52016,0,0,0,.91681.49026,8.33369,8.33369,0,0,1,3.15889,1.96433,24.70311,24.70311,0,0,1,2.44294,2.43016,21.247,21.247,0,0,1,1.74,2.33162,9.736,9.736,0,0,1,1.9879,5.1943c.00353.16777.17149.332.26307.498a1.70477,1.70477,0,0,0,.27879-.43006,7.97074,7.97074,0,0,1,.30937-1.29861C65.33839,28.95461,65.03728,28.47143,64.60817,27.92111Zm1.22075-1.41935a1.18491,1.18491,0,0,1-.27106-.49551A5.08653,5.08653,0,0,0,64.293,23.57843a23.68782,23.68782,0,0,0-8.05151-6.0045c-.38563-.13526-.76666-.28592-1.15775-.40291a10.21793,10.21793,0,0,0-3.63789-.80921,23.6477,23.6477,0,0,1-2.46285.1892c-1.45367-.05265-2.51223.83525-3.7086,1.40232-.05778.0274-.09715.09368-.1451.14182a.84334.84334,0,0,0,.23227.10991,1.11276,1.11276,0,0,0,.406-.00026c.80055-.19721,1.59195-.436,2.39833-.60359a4.49754,4.49754,0,0,1,1.74037-.18331,4.94132,4.94132,0,0,0,2.8161.17468,1.20344,1.20344,0,0,1,.70678-.00319,8.39437,8.39437,0,0,1,3.69773,1.66429A12.805,12.805,0,0,0,58.23,20.023a29.28385,29.28385,0,0,1,3.20184,2.57278,26.63419,26.63419,0,0,1,2.27958,3.11461c.62092.8642,1.24161,1.72867,1.87863,2.58088a.34357.34357,0,0,0,.32845.006A1.54837,1.54837,0,0,0,65.82892,26.50176Zm1.01347-3.60129c-.89735-.18961-1.21425-1.01943-1.834-1.49852-.47283-.3655-.86289-.84465-1.35439-1.178-.81134-.55027-1.71134-.98532-2.523-1.51246a23.3076,23.3076,0,0,0-5.56139-2.34832,2.75129,2.75129,0,0,0-.91331-.00587c-.04988.00168-.09758.06762-.14628.10387a1.0725,1.0725,0,0,0,.165.09391,10.74871,10.74871,0,0,0,1.36093.40682c.07392.06791.13769.17609.22328.19762a15.40606,15.40606,0,0,1,3.41458,1.604c1.64085.87511,2.84356,2.31323,4.2817,3.45142a4.41509,4.41509,0,0,1,.76676.90026,9.41353,9.41353,0,0,1,1.42808,2.56649c.07835.24.13891.30118.26429.07957a5.91148,5.91148,0,0,0,.73633-1.93057C67.19991,23.53112,67.01234,22.93639,66.84239,22.90047Z"/></g></g></svg>