<svg xmlns="http://www.w3.org/2000/svg" width="14.49017" height="72.9983" viewBox="0 0 14.49017 72.9983"><title>tie-1</title><g id="Layer_2" data-name="Layer 2"><g id="tie-1"><path id="void" d="M9.64349,8.43028c.03217-.08178.067-.16486.10188-.248a1.71639,1.71639,0,0,0,.33912-.52141L11.04556,5.346A1.6887,1.6887,0,0,0,11.063,4.08737L9.91426,1.0902A1.70562,1.70562,0,0,0,8.32989.00043H5.263a1.69685,1.69685,0,0,0-1.55754,1.0214L2.46425,3.88094A1.6908,1.6908,0,0,0,2.49776,5.3031l1.201,2.453a1.71521,1.71521,0,0,0,.27211.3981,1.20117,1.20117,0,0,1,.05226.15283.757.757,0,0,0-.02546.13535C2.105,25.81272.76059,44.39484.0019,63.6726a.79577.79577,0,0,0,.17292.54824L4.822,70.05967v.004a2.4805,2.4805,0,0,1,.21847.327,2.59864,2.59864,0,0,0,.18231.23323.21327.21327,0,0,1,.05227.0268h.01744l1.62858,2.04547a.79469.79469,0,0,0,.62731.30159h.02146a.79757.79757,0,0,0,.63267-.33644l6.13906-8.63626a.80126.80126,0,0,0,.14611-.52677C13.47708,45.05029,11.84846,26.5218,9.64349,8.43028Z" style="fill:#fff"/><path id="fill2" d="M9.64349,8.43028c.03217-.08178.067-.16486.10188-.248a1.71639,1.71639,0,0,0,.33912-.52141L11.04556,5.346A1.6887,1.6887,0,0,0,11.063,4.08737L9.91426,1.0902A1.70562,1.70562,0,0,0,8.32989.00043H5.263a1.69685,1.69685,0,0,0-1.55754,1.0214L2.46425,3.88094A1.6908,1.6908,0,0,0,2.49776,5.3031l1.201,2.453a1.71521,1.71521,0,0,0,.27211.3981,1.20117,1.20117,0,0,1,.05226.15283.757.757,0,0,0-.02546.13535C2.105,25.81272.76059,44.39484.0019,63.6726a.79577.79577,0,0,0,.17292.54824L4.822,70.05967v.004a2.4805,2.4805,0,0,1,.21847.327,2.59864,2.59864,0,0,0,.18231.23323.21327.21327,0,0,1,.05227.0268h.01744l1.62858,2.04547a.79469.79469,0,0,0,.62731.30159h.02146a.79757.79757,0,0,0,.63267-.33644l6.13906-8.63626a.80126.80126,0,0,0,.14611-.52677C13.47708,45.05029,11.84846,26.5218,9.64349,8.43028Z" style="fill:#1d4d93"/><path id="fill1" d="M8.83038,7.27065l.01836.01561C8.82419,7.27045,8.82236,7.26629,8.83038,7.27065Zm5.65728,56.22808a.80307.80307,0,0,1-.14609.52582L8.20252,72.66078a.79554.79554,0,0,1-.632.33719l-.02265.00033a.79558.79558,0,0,1-.62707-.30264L5.293,70.65075c-.00616.00069-.01231.00029-.01846.00062a.17206.17206,0,0,0-.05148-.02677,2.74115,2.74115,0,0,1-.18244-.23346,2.51761,2.51761,0,0,0-.21919-.32793l.00075-.0039L.17465,64.2211A.80034.80034,0,0,1,.00147,63.673C.76017,44.395,2.1049,25.81226,3.99829,8.44236A.78939.78939,0,0,1,4.0231,8.307a1.37534,1.37534,0,0,0-.05184-.15293,1.67713,1.67713,0,0,1-.2726-.3978L2.49714,5.30352a1.69467,1.69467,0,0,1-.03273-1.42268l1.24132-2.8593A1.69665,1.69665,0,0,1,5.26278,0H8.3293A1.70731,1.70731,0,0,1,9.91436,1.09007l1.14877,2.99779a1.68967,1.68967,0,0,1-.01747,1.25866l-.9612,2.31417a1.701,1.701,0,0,1-.33975.52177c-.03469.08276-.06937.16552-.10086.24825C11.84781,26.522,13.47757,45.05029,14.48766,63.49873ZM7.3487.93829c.12252.13227.24867.25816.34521.36282.32535.35277.7262.6759,1.08152,1.0004a5.45136,5.45136,0,0,1,.72123.85346,4.48569,4.48569,0,0,0,.36462.41868l-.823-2.14783A.76373.76373,0,0,0,8.3293.93829Zm-2.71928.34256A.42153.42153,0,0,1,4.78,1.42664c.30143.48158.71789.90579,1.05194,1.36754.34093.4713.81721.8101,1.18045,1.26164.66582.82771,1.4613,1.54268,2.17552,2.3287a.4692.4692,0,0,1,.03495.04392,1.01743,1.01743,0,0,1,.16663.16647c.02664.03194.05452.06375.08172.09611l.61827-1.48855a.42284.42284,0,0,1-.04539-.05236.84324.84324,0,0,1-.25974-.25843c-.05118-.06944-.10383-.13761-.15534-.20676l-.01476-.02081a.34283.34283,0,0,1-.17331-.20538.72608.72608,0,0,1-.13463-.22947C8.8398,3.69853,8.41,3.15013,7.89111,2.65775A7.51173,7.51173,0,0,1,6.29244.93829H5.26278A.75816.75816,0,0,0,4.62942,1.28085ZM5.223,8.707a1.66841,1.66841,0,0,1-.30637-.02942q-.14025,1.28874-.27542,2.58838a6.6923,6.6923,0,0,1,1.53487-1.03437c.47326-.21491.9591-.41266,1.43564-.62364a3.19668,3.19668,0,0,0,.98083-.48874.4064.4064,0,0,1,.17668-.10044c-.01313-.10855-.02559-.21762-.03878-.3261a1.7173,1.7173,0,0,1-.21363.01433Zm-.70287,3.72684q-.14231,1.38554-.28052,2.77972c.20742-.18123.47684-.27466.69243-.44575.39587-.31409.79355-.529,1.20928-.81131a6.93327,6.93327,0,0,1,.62092-.31672c.25169-.13731.45508-.34125.70719-.47987.23212-.1276,1.04353-.41459,1.12963-.71707a.38077.38077,0,0,1,.54817-.24517q-.13233-1.13481-.26946-2.2662a9.38631,9.38631,0,0,1-1.72646.83726,9.93184,9.93184,0,0,0-2.23514,1.40708A.36744.36744,0,0,1,4.52012,12.43381ZM3.63128,3.54914l.00275.014c.53986.64105,1.06768,1.30412,1.54386,1.99157.24154.34871.45435.69239.72005,1.02419.214.26729.47349.48105.68509.74246l.00969.01387c.01967.01211.045.0292.05635.03757.03.02206.05966.0449.08842.06879a.53311.53311,0,0,1,.11556.0842.55393.55393,0,0,1,.06659.06064.76509.76509,0,0,1,.049.0627l.03917.043a.54039.54039,0,0,1,.07556.07652H8.51681a.75586.75586,0,0,0,.58888-.28163c-.01446-.00554-.02886-.0109-.04388-.01732a.49791.49791,0,0,1-.1594-.13l-.01175-.01263-.02628-.02782-.01564-.013.00805.005L8.85656,7.291a.13827.13827,0,0,0-.02618-.02038A.64754.64754,0,0,1,8.731,7.1582a.29975.29975,0,0,1-.02961-.05452.42491.42491,0,0,1-.13254-.1001c-.76193-.84054-1.561-1.62649-2.30445-2.48824A19.6924,19.6924,0,0,1,4.24078,2.14515Zm.91,3.79438a.764.764,0,0,0,.68173.42517H5.8065L5.80189,7.7589A10.23327,10.23327,0,0,1,4.63911,6.3248,18.161,18.161,0,0,0,3.27389,4.42813a.75736.75736,0,0,0,.06585.4626ZM3.77737,20.04044c.00919-.00029.01842-.00072.02745-.00032.13745-.10629.28052-.26226.366-.33121.205-.16536.39643-.33648.5934-.51061a5.99739,5.99739,0,0,1,1.45868-.88367A18.88845,18.88845,0,0,0,7.8971,17.21992a6.37033,6.37033,0,0,0,1.45007-.9483.36717.36717,0,0,1,.2509-.12815q-.17814-1.59377-.36285-3.18325a2.87228,2.87228,0,0,1-.84767.68968c-.59128.36148-1.24.65522-1.80962,1.05109-.23772.16519-.50223.257-.73949.41341-.24766.16333-.44849.3928-.70067.5579-.36766.24069-.60783.616-1.01532.7348Q3.94658,18.217,3.77737,20.04044Zm-.41384,4.64075c.49218-.36632.95867-.77084,1.41289-1.17221a7.73317,7.73317,0,0,1,1.58853-.8816c.72342-.36764,1.34532-.89555,2.03454-1.31869A5.529,5.529,0,0,1,9.943,20.403a.54543.54543,0,0,1,.12062-.00687q-.17725-1.66347-.36141-3.32292A10.98169,10.98169,0,0,1,8.33,17.96052a16.21668,16.21668,0,0,1-1.76874,1.14864,8.71645,8.71645,0,0,0-1.711,1.1707,2.73352,2.73352,0,0,1-1.16128.72541Q3.52256,22.83613,3.36353,24.68119Zm-.4073,4.91318a7.46316,7.46316,0,0,1,.57141-.48508c.31518-.20561.582-.45583.90426-.65146.26651-.16176.47107-.39845.73006-.57543a8.96474,8.96474,0,0,1,1.02756-.55789A20.82987,20.82987,0,0,0,8.5354,25.95415c.59965-.41171.99634-.97386,1.75366-1.107a.42338.42338,0,0,1,.2402.02487q-.18168-1.79625-.37169-3.58828a.48782.48782,0,0,1-.16925-.004c-.1418.08375-.30991.20735-.39018.25758-.32679.20456-.64566.43217-.968.6452a17.92273,17.92273,0,0,1-1.92644,1.24532c-.33223.16323-.63565.37038-.96545.53649a3.91424,3.91424,0,0,0-.78383.61856,18.01309,18.01309,0,0,1-1.573,1.16543.43081.43081,0,0,1-.1128.05334Q3.10889,27.69152,2.95623,29.59437Zm-.36733,4.7737c.23509-.185.47438-.36517.72224-.53132a13.46583,13.46583,0,0,0,1.08165-.889,21.24376,21.24376,0,0,1,2.09069-1.3013,9.59791,9.59791,0,0,1,1.22326-.62079c.33942-.157.59978-.40978.92765-.58938.71553-.39191,1.35988-.92467,2.06229-1.34414a.39339.39339,0,0,1,.24393-.05923q-.16561-1.72277-.3389-3.44216a.45122.45122,0,0,1-.09775.03589,2.772,2.772,0,0,0-1.13038.75274,7.14057,7.14057,0,0,1-.89221.61346c-.73674.45089-1.46873.88537-2.23877,1.277a11.3911,11.3911,0,0,0-1.82085,1.28825c-.26487.21016-.5613.36279-.815.58541a2.90952,2.90952,0,0,1-.55959.42088.44248.44248,0,0,1-.17518.08479Q2.72694,32.50249,2.5889,34.36807Zm-.33926,4.79609c.49323-.34439,1.01761-.64484,1.48973-1.01947a9.92378,9.92378,0,0,1,1.03643-.81148c.38635-.2315.809-.40114,1.2084-.60845.90056-.46748,1.82533-.94242,2.70154-1.45148a9.05863,9.05863,0,0,1,2.46856-1.32546.418.418,0,0,1,.2477.02131q-.18481-2.04886-.38056-4.09372a7.00622,7.00622,0,0,1-.88894.59229c-.35621.18722-.60763.49849-.96721.68516-.31652.16434-.56205.41168-.87487.57864-.39018.20823-.81416.34688-1.19911.57193a13.49187,13.49187,0,0,0-2.2351,1.4019c-.6133.54939-1.28033.993-1.9221,1.507a.47443.47443,0,0,1-.24075.17626l-.055.01793a.37093.37093,0,0,1-.12684.01725Q2.37684,37.28768,2.24964,39.16416Zm-.319,4.92444c.45625-.29236.89843-.59467,1.37121-.86888A14.14067,14.14067,0,0,0,4.72465,42.108c.38583-.29354.83612-.48312,1.23242-.76537.86184-.61379,1.92007-.92985,2.81493-1.50443a12.69709,12.69709,0,0,1,2.81607-1.55292.407.407,0,0,1,.19164-.01745q-.15133-1.77975-.31043-3.55735a.44832.44832,0,0,1-.09559.033,10.64481,10.64481,0,0,0-2.4541,1.40219c-.8212.45344-1.662.89964-2.49488,1.33266-.39915.20754-.822.37712-1.208.60907a10.977,10.977,0,0,0-1.017.80156c-.6347.491-1.37353.85524-1.97,1.39971a.51292.51292,0,0,1-.05864.05465Q2.0473,42.21045,1.9306,44.0886Zm-.26428,4.45719a22.793,22.793,0,0,1,1.97861-1.614A13.97086,13.97086,0,0,1,6.08165,45.2756c1.06922-.44954,2.09-1.03051,3.13554-1.53388.53119-.25571,1.0322-.56477,1.5416-.8608a6.14324,6.14324,0,0,1,1.15293-.481.39846.39846,0,0,1,.2079-.01891q-.133-1.66-.2742-3.31814c-.0128.006-.02412.01312-.038.01819a7.5893,7.5893,0,0,0-1.24937.64494c-.45465.27908-.89925.5739-1.34536.86617-.81219.53217-1.72473.852-2.55443,1.34378-.4072.24134-.82706.50252-1.22725.75539-.41656.26323-.74335.65315-1.13788.94676-.41639.30987-.893.524-1.33288.79727-.18169.11284-.3443.239-.519.36089-.02393.01673-.27313.147-.41077.22116a.47418.47418,0,0,1-.17383.282Q1.759,46.91891,1.66632,48.54579Zm-.30811,5.79086c.03175-.02042.06339-.04175.09468-.06525a7.27914,7.27914,0,0,0,.56218-.55744,6.86584,6.86584,0,0,1,1.25028-.78637c.51208-.31.94533-.73815,1.45685-1.05316.59235-.36481,1.17443-.7328,1.75624-1.11473C7.07387,50.3688,7.72035,50.077,8.329,49.711c.55894-.33618,1.03878-.80526,1.61909-1.10931a11.32938,11.32938,0,0,0,1.62417-.83523,5.49642,5.49642,0,0,1,.92929-.43825Q12.34768,45.255,12.182,43.1836a.46127.46127,0,0,1-.04758.02411c-.94535.36921-1.77169.9627-2.689,1.41476-.94444.46548-1.86983.99671-2.8379,1.41077A12.49024,12.49024,0,0,0,4.28162,47.585c-.79963.57615-1.50079,1.18677-2.24171,1.8266a.444.444,0,0,1-.42648.09661Q1.48011,51.91446,1.35821,54.33665ZM1.0846,60.18982c.22587-.18424.45357-.36769.6829-.54748a12.95932,12.95932,0,0,1,1.58762-1.0938,8.11908,8.11908,0,0,0,1.52-1.18706,7.0123,7.0123,0,0,1,1.28858-.90164c.59592-.36049,1.1811-.71952,1.7888-1.0646.57455-.32627,1.06274-.76779,1.6189-1.11972.63555-.40212,1.31194-.72963,1.9381-1.151a7.65334,7.65334,0,0,1,1.34152-.90337q-.13715-2.00635-.285-4.012a2.88851,2.88851,0,0,0-.58885.32217,6.97773,6.97773,0,0,1-1.44552.77084,13.95879,13.95879,0,0,0-1.65719,1.10525c-.53191.33713-1.11542.59032-1.653.91983-1.12835.69167-2.20971,1.44634-3.285,2.21266a10.74291,10.74291,0,0,0-1.36581.86923,6.36484,6.36484,0,0,1-.62144.5865c-.16854.1234-.37509.193-.5328.331a.54993.54993,0,0,1-.11031.07428Q1.19,57.78839,1.0846,60.18982Zm.67456,4.51525a11.50447,11.50447,0,0,0,1.13892-.90858,9.3503,9.3503,0,0,1,1.37723-1.103c.97032-.64389,1.82333-1.48427,2.73449-2.20968.52016-.41413,1.11621-.69616,1.63156-1.12237.46941-.38828,1.02416-.62373,1.52524-.963.53577-.36275,1.00027-.80179,1.56929-1.11693a6.462,6.462,0,0,1,1.25909-.78874.45732.45732,0,0,1,.13754-.01407q-.106-1.67583-.21932-3.35171c-.21854.15286-.42484.35451-.61615.50108-.28163.21589-.57844.4124-.87683.6043-.58286.37486-1.20846.68064-1.76769,1.09078a13.683,13.683,0,0,1-1.65546,1.08015c-.53367.2851-1.01656.64917-1.54556.93391a7.92945,7.92945,0,0,0-1.42222,1.08492A9.5711,9.5711,0,0,1,3.63668,59.4308,14.86908,14.86908,0,0,0,1.9539,60.6589c-.30767.25021-.59326.58767-.9228.82408-.03054.73078-.06189,1.46064-.09075,2.19351Zm3.1209,1.52059a2.69325,2.69325,0,0,1,.79466-.73739,10.3557,10.3557,0,0,0,1.2534-.88386,7.02275,7.02275,0,0,1,1.19665-.7386c.44954-.249.69838-.684,1.08993-1.00243.38766-.31527.86541-.46708,1.23615-.806a8.70927,8.70927,0,0,1,1.17345-.78265c.45513-.30142.82352-.67963,1.29021-.96044a.38874.38874,0,0,1,.19392-.11643l.06863-.01853a.42122.42122,0,0,1,.18152-.00968q-.08364-1.42221-.17288-2.84481c-.14435.0719-.29636.28893-.42853.38207-.27018.19039-.57717.32109-.85438.50033-.48057.31072-.89.71818-1.36659,1.03482-.55423.36825-1.10571.67672-1.62852,1.09226-.465.36953-1.00773.60993-1.46994.9842-.86767.70264-1.68877,1.48024-2.61367,2.11049a10.13231,10.13231,0,0,0-1.35052,1.0917,10.83877,10.83877,0,0,1-1.14455.90023l1.53034,1.92239a.396.396,0,0,1,.06349-.19255C4.17592,66.75823,4.59513,66.58243,4.88006,66.22566Zm7.25834-.72116c-.30977.22433-.636.42975-.9481.63424a18.01124,18.01124,0,0,0-2.13,1.64138c-.56672.50652-1.17875.94438-1.74384,1.44631a5.74628,5.74628,0,0,1-.83622.57c-.10246.06335-.28078.162-.45144.272L7.54246,71.97Zm1.41071-1.98456q-.06908-1.26066-.1434-2.52194c-.4109.277-.75971.61355-1.15516.90981-.44437.33291-.89577.56405-1.31269.93227-.3676.32463-.85706.46276-1.22136.78857a11.18849,11.18849,0,0,1-.83942.84158c-.33553.2423-.74381.3571-1.083.59363-.39741.27718-.74926.60469-1.15558.8749a3.64629,3.64629,0,0,0-1.06889.88364,4.34549,4.34549,0,0,1-.71543.60924.43119.43119,0,0,1-.20191.25525l-.11951.0738a.40019.40019,0,0,1-.30042.05118l1.232,1.54762c.3294-.21588.70941-.389.99372-.58234.3083-.2096.54991-.50065.85768-.713a9.15961,9.15961,0,0,0,.9503-.75538A19.28743,19.28743,0,0,1,10.26258,65.713,13.22005,13.22005,0,0,0,12.272,64.30654a.38033.38033,0,0,1,.29583-.12229,2.99235,2.99235,0,0,1,.23634-.1936,2.5571,2.5571,0,0,1,.73922-.46849l.00485-.001Z"/></g></g></svg>