<svg xmlns="http://www.w3.org/2000/svg" width="53.97613" height="165.03195" viewBox="0 0 53.97613 165.03195"><title>bride-legs-1-funny</title><g id="Layer_2" data-name="Layer 2"><g id="bride-legs-1-funny"><path id="void" d="M53.88872,158.576a16.81609,16.81609,0,0,0-2.18854-3.78711,2.07141,2.07141,0,0,0-2.25092-1.22351.79739.79739,0,0,1-.64282-.34521,12.15642,12.15642,0,0,0-2.63061-2.73267c-.32532-.28662-.61945-.60864-.92878-.91357a15.29956,15.29956,0,0,1-2.1806-3.42456,18.94361,18.94361,0,0,1-.934-2.11377c-.18518-.43018-.347-.87134-.55139-1.29212a13.08463,13.08463,0,0,1-1.50653-4.59387,28.74211,28.74211,0,0,1-.15393-6.0227c.108-.8606.23272-1.72315.345-2.58448.13287-1.01855.43732-2.02392.4812-3.04309.06836-1.58728.27576-3.15954.36871-4.74206.08356-1.42212.12952-2.84644.21357-4.26856.03979-.67334.14782-1.34277.192-2.01611a13.62869,13.62869,0,0,0,.21607-2.19531,6.4964,6.4964,0,0,1,.21814-1.47974c.08276-.55225.17431-1.10437.2265-1.65991q.15848-1.6875.27533-3.37915c.04193-.59851.00927-1.2041.078-1.79859.07623-.65966.29938-1.30688.33472-1.96606.06921-1.292.11212-2.59119.05426-3.88245-.05561-1.24182.02746-2.47155.0567-3.70752.03375-1.42834-.11536-2.86352-.15985-4.298-.05817-1.87341-.37659-3.73853-.5763-5.608-.05053-.473-.05786-.95117-.1206-1.42224-.02857-.21436-.26428-.47486-.19739-.61475.22394-.46851.041-.91919.04993-1.37427.01294-.66211-.009-1.326.03424-1.986a5.47476,5.47476,0,0,1,.24353-1.65112,8.62483,8.62483,0,0,0,.44714-2.70789c.07276-1.1289.33875-2.21155.505-3.31555.169-1.12268.41369-2.23376.62585-3.34985.28461-1.49695.5592-2.996.85773-4.49036.30322-1.51807.6289-3.03186.94751-4.547.21606-1.02771.44745-2.05236.65277-3.08215.26544-1.3313.5072-2.66724.76794-3.99939.16468-.84125.358-1.677.51557-2.51953.17877-.95544.358-1.91217.488-2.87494.10193-.75513.07032-1.531.20435-2.27856a12.74126,12.74126,0,0,0,.29608-3.02668,6.99576,6.99576,0,0,1,.04852-1.80413A24.89159,24.89159,0,0,0,48.86015,37.07a17.316,17.316,0,0,1,.0531-1.98193,11.58427,11.58427,0,0,0,.08741-2.72956,35.66983,35.66983,0,0,0-.3183-4.66c-.06922-.37836-.02124-.77991-.10407-1.15369-.2381-1.07446-.552-2.13281-.76825-3.21118-.26031-1.29791-.44537-2.61084-.67468-3.91522a9.5398,9.5398,0,0,0-.28357-1.24316c-.37091-1.165-.76153-2.3238-1.15588-3.48108-.37567-1.10248-.73792-2.21088-1.15961-3.2959-.268-.6897-.6416-1.33783-.95294-2.01148-.19635-.42492-.36524-.86261-.59436-1.33563a3.83331,3.83331,0,0,1-.28223-.5755,48.87907,48.87907,0,0,0-2.13183-4.6507c-.40723-.81048-.78534-1.63549-1.18226-2.45123a.44017.44017,0,0,0-.56884-.2735c-.00885.003-.01459.00861-.02314.012a1.04084,1.04084,0,0,1,.322.46124c.10345.27728-.00281.38586-.34217.43756-.038.0058-.07544.00366-.11328.00726l.00543.014q.40924.83614.82117,1.6709-.4119-.835-.82172-1.67066l-.00341-.00915c-.05176.00513-.103.00281-.15454.0047.051-.00177.102-.00488.15307-.00977a2.11444,2.11444,0,0,1-.14422-.37176.4165.4165,0,0,1,.27764-.5343L38.79375.10474c-.38123-.27277-.76953.07575-1.12909.05573-1.50818-.084-2.9115.5957-4.46125.41626a30.48309,30.48309,0,0,0-4.35357.11035,23.71282,23.71282,0,0,1-2.61231.06256,32.11073,32.11073,0,0,0-3.89544.09167c-.738.03253-1.4787.07776-2.21.17652a18.14523,18.14523,0,0,1-2.06049.097,8.3055,8.3055,0,0,0-2.61029.25611c-1.10748.13659-2.12409.17468-3.142.38726-1.50641.31458-3.06445.39319-4.60065.57117a1.77053,1.77053,0,0,0-.36688.03351,2.85439,2.85439,0,0,0-1.39435.73157.86918.86918,0,0,1,.52564-.18091,3.24,3.24,0,0,1,.41986.03882c-.01947.16308.01678.36627-.0672.48272-.01331.0185-.02985.04767-.04364.06769a3.53107,3.53107,0,0,1,.62915-.24664c1.13434-.16474,2.27356-.29669,3.40912-.454.44806-.062.89612-.09973,1.34515-.15143-.449.05194-.89709.08978-1.34521.15161-1.136.15674-2.27515.28955-3.40918.45423A3.53046,3.53046,0,0,0,6.792,3.503l.00012-.00019-.00434.002a1.97746,1.97746,0,0,1-.66088.18762c-.28968-.00806-.38276-.33356-.19831-.57038.00855-.011.02008-.0169.02887-.02752a1.214,1.214,0,0,0-.304.35547A36.45244,36.45244,0,0,0,3.18053,8.916c-.43824,1.3891-.87537,2.77893-1.28461,4.1767-.37427,1.2785-.5268,2.60577-.80536,3.90307a12.0584,12.0584,0,0,0-.45862,2.61359,24.85083,24.85083,0,0,1-.30707,2.68115,10.75262,10.75262,0,0,0-.18554,2.89215,3.20833,3.20833,0,0,1,.07373,1.06415,5.96177,5.96177,0,0,0-.11157,2.54254,6.32711,6.32711,0,0,1,.10089,1.81885c-.00507.30676-.10456.61359-.096.91858.04834,1.73065.217,3.45331.26727,5.18774.07764,2.67493.48334,5.3404.75293,8.00952a.65684.65684,0,0,0,.08515.32441,2.97982,2.97982,0,0,1,.42938,1.72491,7.26392,7.26392,0,0,0,.19464,2.03211,9.92128,9.92128,0,0,1,.54535,2.86364,2.27128,2.27128,0,0,0,.08838.60266,6.62382,6.62382,0,0,1,.46893,1.89087,2.96015,2.96015,0,0,0,.2558,1.34754c.18493.32739.37646.8667.23077,1.11731-.2536.43652.11341.63965.14044.94873.02686.307-.25494.5907.03925.939a1.863,1.863,0,0,1,.26941.96289c.26788,2.5199.51776,5.04163.77252,7.56275a1.42045,1.42045,0,0,0,.0415.44177c.47724,1.00732.18238,2.11267.41669,3.14868-.436.60462.14826,1.19959.00592,1.84815a7.31382,7.31382,0,0,0,.11658,2.03686c.03454.44482.07068.88965.10278,1.33472a1.323,1.323,0,0,1,.01508.52417,21.27063,21.27063,0,0,0-.92023,3.60339c-.24322,1.24646-.58923,2.474-.80121,3.725a53.09209,53.09209,0,0,0-.66833,7.31958c-.054,1.84423.14,3.6958.22473,5.54406a1.56953,1.56953,0,0,1,.02722.443,3.94517,3.94517,0,0,0,.1673,2.35278,3.33369,3.33369,0,0,1-.02948,1.10291,1.685,1.685,0,0,0,.017.41931,16.26357,16.26357,0,0,1,.47949,2.15161c.11554,1.41321.32312,2.81079.51611,4.21289.1134.82349.14179,1.65918.20111,2.48975.05237.73242.184,1.45336.21814,2.19409a10.07981,10.07981,0,0,0,.27808,2.44885,21.21154,21.21154,0,0,1,.48974,3.4585c.19483,1.63049.37482,3.26281.56079,4.89428a.53838.53838,0,0,0,.01679.17639c.47.8949.18671,1.92774.54779,2.86231a6.26675,6.26675,0,0,1,.166,1.76831,10.479,10.479,0,0,1,.15943,1.63428,7.76491,7.76491,0,0,0,.27551,1.68969,26.29815,26.29815,0,0,0,.38385,3.03479,15.51632,15.51632,0,0,1,.31189,2.88819,15.0223,15.0223,0,0,1-.10669,4.07019,1.57077,1.57077,0,0,1-.35168.58545,2.1374,2.1374,0,0,0-.61951.99365c-.181.99573-.55511,1.95483-.80823,2.9397-.1698.66076-.491,1.332-.03839,2.0205a.57733.57733,0,0,1,.0354.43677,25.55193,25.55193,0,0,1-.67492,2.47034,37.99293,37.99293,0,0,0-1.46119,4.02991,10.91211,10.91211,0,0,0-.36908,2.38965,3.98262,3.98262,0,0,0,.24988,1.15625,10.56622,10.56622,0,0,0,.53894,2.03833,13.23141,13.23141,0,0,0,1.82508,3.12622c.91589,1.03125,2.00213,2.0437,3.61694,1.855,1.94647.57031,3.6662-.83814,4.5589-2.0066.22528-.29467.39734-.63134.63141-.918a23.5419,23.5419,0,0,0,1.53466-1.834,10.79372,10.79372,0,0,0,1.22614-2.36951,8.88085,8.88085,0,0,0,.44122-4.11462,4.35161,4.35161,0,0,0-.82446-2.08862,2.20222,2.20222,0,0,1-.31378-.853,13.88834,13.88834,0,0,0-.35974-1.94934,4.27734,4.27734,0,0,1-.08911-2.67444,4.43755,4.43755,0,0,0,.27392-1.71631,24.60375,24.60375,0,0,0-.766-2.8352.77231.77231,0,0,1-.03583-.24976,9.335,9.335,0,0,0,.09113-1.60766c-.059-.51648-.39716-1.00513-.43488-1.51917a42.05544,42.05544,0,0,1-.17535-4.65283,38.32136,38.32136,0,0,1,.53192-4.6792c.08643-.53186-.04907-1.04871.05139-1.54212a19.17654,19.17654,0,0,0,.29883-2.93737c.02521-.52857.13812-1.05262.19922-1.58.08087-.69775.13812-1.39819.22687-2.09485.09521-.74658.21551-1.49.32434-2.23486.125-.85535.2605-1.70935.37109-2.56653.12555-.97314.2243-1.94971.34338-2.92383.06086-.49829.15107-.99316.20948-1.4917.09155-.78125.136-1.56933.25763-2.3457.163-1.03992.38934-2.06982.5722-3.10681.17377-.9856.3241-1.97547.48932-2.96253.16046-.95874.27924-1.92212.466-2.87939.24652-1.26318.18457-2.59131.47614-3.83984.35626-1.52588.28442-3.07434.49231-4.60328.12225-.89892.0108-1.83715.19549-2.71777a9.17844,9.17844,0,0,0,.01563-1.63794,11.0174,11.0174,0,0,0,.04187-1.62915c-.19336-1.78-.18836-3.57214-.5459-5.34766a43.95176,43.95176,0,0,1-.38788-4.44042,15.8799,15.8799,0,0,1,.086-3.52906c.095-.75464.091-1.52453.22437-2.271.16455-.9209.40582-1.83008.64953-2.73474.39685-1.47315.5351-2.99378.87836-4.48035.5542-2.39978.96063-4.83374,1.42865-7.25366.26794-1.38526.6336-2.7486.85126-4.14716.0108-.06934.02649-.13782.03814-.207.267,1.81488.75128,4.45251.97162,5.51038.24323,1.16772.32221,2.36963.47461,3.55639a.87164.87164,0,0,0,.04492.25464,6.16639,6.16639,0,0,1,.5,2.06079c.17762,1.81177.39289,3.61988.59272,5.42957a.97048.97048,0,0,0,.01568.17737,13.80665,13.80665,0,0,1,.60559,3.20654,2.19155,2.19155,0,0,0,.04682.532,12.13043,12.13043,0,0,1,.58154,2.94068c.05218.74194.09729,1.48486.17969,2.22363.03375.30249.288.63122.21734.88574a28.80847,28.80847,0,0,0-.47491,3.23145c-.31378,1.96008-.85388,3.88281-1.2392,5.833a31.98026,31.98026,0,0,0-.66455,4.03833c-.05548.82007-.12982,1.63819-.17883,2.45984a17.58482,17.58482,0,0,0-.12506,2.64,1.37173,1.37173,0,0,1,.02813.44311,7.955,7.955,0,0,0-.16858,2.46265,9.16711,9.16711,0,0,1,.0431,2.43628,5.56866,5.56866,0,0,0,.09222,1.50708c.04144.53393.1181,1.06811.11365,1.60156a4.25355,4.25355,0,0,0,.162,1.349,24.00958,24.00958,0,0,1,.50274,3.14441c.27857,1.28564.42267,2.60937.67859,3.91333.20917,1.06616.4538,2.13733.59992,3.20483.22662,1.65552.65307,3.25952.95953,4.89209a5.47835,5.47835,0,0,0,.36163,1.75562c.62866,1.05.32392,2.25171.72382,3.33081a6.11656,6.11656,0,0,1,.15466,1.68139,11.41644,11.41644,0,0,1,.14533,1.63306,10.76028,10.76028,0,0,0,.10711,1.60034c.04145.53382.08026,1.06787.12513,1.60144.04071.4845.05383.97034.09735,1.45545a17.771,17.771,0,0,1,.06872,2.43213,17.31237,17.31237,0,0,1-.18622,2.72607,12.31529,12.31529,0,0,1-1.18719,3.8711,4.76976,4.76976,0,0,0-.74451,3.29248,25.60775,25.60775,0,0,0,.94769,3.12036c.085.25146.29249.60815.4903.64172.33344.05676.29932.23657.29065.42029a8.13269,8.13269,0,0,0,.65784,2.43982,23.835,23.835,0,0,1,.87817,3.35168,7.44692,7.44692,0,0,0,.33746,1.8628,8.07986,8.07986,0,0,1,.23328,3.4187c-.041.88293-.08606.88086.71649,1.01355a1.14,1.14,0,0,0,1.4234-1.22425c-.0614-1.70068-.11029-3.40271-.22864-5.09961a12.313,12.313,0,0,1,.21912-2.01648c.02533-.28039.23529-.27575.33777-.10412.6958,1.16528,1.79431,2.04333,2.27985,3.37756a5.70211,5.70211,0,0,0,.73907,1.46131,11.00155,11.00155,0,0,0,1.82935,1.74975,1.68557,1.68557,0,0,0,.88049.19336,6.31606,6.31606,0,0,1,1.04242.00317,11.42343,11.42343,0,0,0,3.96759.34058,7.26527,7.26527,0,0,1,.83227.0918,7.5594,7.5594,0,0,0,2.15009-.01514,10.55211,10.55211,0,0,1,2.23773-.29736,5.20891,5.20891,0,0,0,2.44055-.8512A1.69068,1.69068,0,0,0,53.88872,158.576Zm-4.53-4.12841a.4179.4179,0,0,1,.40832-.03113c.32148.28735.66962.5636.96369.8761-.29425-.31226-.64276-.58851-.96436-.8761a.41876.41876,0,0,0-.40759.03161c-.66595.89466-1.74335,1.20008-2.60309,1.81531a2.73206,2.73206,0,0,1-1.22388.30615c-.47882.05725-.96124.08838-1.44335.123.482-.03479.96447-.066,1.44378-.12353a2.72752,2.72752,0,0,0,1.22376-.30591C47.6151,155.64862,48.69218,155.34259,49.35875,154.44758Zm-8.78027,1.34716a3.95372,3.95372,0,0,0,1.40918.75525l.206.05811c-.06854-.01929-.13678-.03858-.20593-.05786A3.95065,3.95065,0,0,1,40.57848,155.79474Zm-8.82172-5.74011a8.27119,8.27119,0,0,1,1.90051,1.26367A8.31227,8.31227,0,0,0,31.75676,150.05463Zm-.03192-11.90332c-.05878.56055-.184,1.12231-.28205,1.6792-.08941.50684-.253,1.00439-.34326,1.50879.09009-.50427.2536-1.00147.3429-1.50842C31.54057,139.27387,31.66569,138.7121,31.72484,138.15131Zm-.13861-3.66687c.01165.15662.02087.31348.03283.47009C31.60716,134.79779,31.59788,134.64106,31.58623,134.48444Zm-.061,9.26538c.20972.37219.439.73084.678,1.08264-.23913-.3518-.46863-.71045-.67865-1.08288a3.75234,3.75234,0,0,1-.46387-1.42542A3.76043,3.76043,0,0,0,31.52519,143.74982ZM42.06871,155.463a7.17144,7.17144,0,0,0,1.34357.33313,7.17324,7.17324,0,0,1-1.34412-.333c-.57178-.1731-.88385-.64136-1.32117-.96607a6.3306,6.3306,0,0,1-.6737-.61181,6.31361,6.31361,0,0,0,.67413.61157C41.184,154.82172,41.496,155.28974,42.06871,155.463Zm5.58038-.87708a4.1658,4.1658,0,0,1-2.18426.92578c-.16742.00318-.34686-.00757-.51691.00208.17-.00977.34924.00061.5166-.00244A4.16349,4.16349,0,0,0,47.64909,154.58588Zm-4.02887,1.22644c.01343.00025.0271-.00232.04059-.00232C43.64732,155.81,43.63365,155.81244,43.62022,155.81232ZM34.115,147.1518c-.07617-.07666-.14581-.15845-.22039-.23633.07464.07788.14434.15967.22064.23645.24414.24573.48724.49292.73138.739Q34.4803,147.5218,34.115,147.1518Zm.48841,2.13428q-.60672-.68354-1.21723-1.36768Q33.99644,148.603,34.60338,149.28608Zm9.35711,6.50293a2.02463,2.02463,0,0,0,.62171-.19581.68215.68215,0,0,1,.0979-.031.67107.67107,0,0,0-.09741.031A2.02733,2.02733,0,0,1,43.96049,155.789Zm3.84876-1.30713-.00024.00012a.4224.4224,0,0,0,.21807-.55261A.422.422,0,0,1,47.80925,154.48188Zm.09326-.78418a1.09914,1.09914,0,0,1,.12439.23059,1.09056,1.09056,0,0,0-.12451-.23035c-.10516-.15454-.21808-.30371-.3302-.45312C47.68437,153.39423,47.79729,153.54328,47.90251,153.6977ZM43.85069,149.574a5.86335,5.86335,0,0,0,1.3031,1.51672,5.85482,5.85482,0,0,1-1.30365-1.51623,27.83893,27.83893,0,0,1-2.73828-5.484A27.83436,27.83436,0,0,0,43.85069,149.574Zm-3.41723-6.76758a3.06969,3.06969,0,0,0,.28057.48706,3.09043,3.09043,0,0,1-.28112-.48645c-.22791-.542-.45575-1.08594-.66919-1.63452C39.97734,141.72065,40.20537,142.26459,40.43346,142.80646ZM39.8,125.15961a18.98131,18.98131,0,0,1-.3623,3.0979,18.98331,18.98331,0,0,0,.36206-3.09826,11.70043,11.70043,0,0,1,.22735-2.15149A11.7154,11.7154,0,0,0,39.8,125.15961Zm2.14545-26.29687.002-.02369Zm-.93219-15.53736V83.325c.02106.41931.21521.82788.25421,1.24853.1319,1.42151.22919,2.84632.33966,4.2699.01081.13916.01306.281.02594.41968-.013-.13868-.01532-.28028-.02606-.41907-.1106-1.42468-.2077-2.849-.3396-4.27051C41.22813,84.15314,41.03374,83.74469,41.01329,83.32538Zm0-.00549c-.01855-.37732-.00708-.75623.01105-1.13538C41.00609,82.56366,40.99455,82.94257,41.01329,83.31989Zm.8786,14.35754a10.58561,10.58561,0,0,1,.0556,1.15784A10.64882,10.64882,0,0,0,41.89189,97.67743Zm.00549-2.979c-.00042.03052.00336.06152.003.092C41.9008,94.76,41.8969,94.729,41.89738,94.69843Zm-.269-17.41748c-.02215.27844-.06055.5542-.09949.82959.03876-.27527.077-.55066.09894-.82886q.05758-.71887.13483-1.43579Q41.68654,76.56256,41.62834,77.281ZM40.40489,116.611c.10486-1.05713.36084-2.10364.39642-3.16028.01618-.4585.06281-.90686.11866-1.354-.05585.44738-.1026.89587-.11829,1.35449C40.76561,114.50763,40.50987,115.55463,40.40489,116.611Zm1.227-11.3982a30.62594,30.62594,0,0,0-.30823,3.37915,12.59818,12.59818,0,0,1-.22833,2.27381,12.66,12.66,0,0,0,.22821-2.27405,30.55707,30.55707,0,0,1,.3078-3.3783c.07233-.83508.21228-1.66467.31848-2.49572a1.67823,1.67823,0,0,0-.00286-.262c-.00776-.36206-.02979-.72619-.0514-1.09008.02179.364.044.728.052,1.09008a1.77221,1.77221,0,0,1,.00256.26123C41.84386,103.549,41.70378,104.37787,41.63194,105.21283Zm.37091-9.25952a1.58111,1.58111,0,0,0-.00879-.29406A1.56577,1.56577,0,0,1,42.00285,95.95331ZM42.501,71.15863c-.16723.77662-.30371,1.55567-.4259,2.33619.12213-.78052.25854-1.55982.42584-2.33643.06757-.31384.13318-.63049.20087-.9458C42.63414,70.5279,42.56865,70.84467,42.501,71.15863Zm.91846-4.81469c.16571-.90235.36841-1.79431.53808-2.69434.08106-.428.18543-.85107.28724-1.27466-.10163.42359-.20594.84693-.28662,1.27454C43.78838,64.54926,43.58556,65.44135,43.41948,66.34394Zm2.07928-10.51709c-.10479.523-.18969,1.05-.27765,1.57629.0879-.52649.1728-1.05359.27759-1.57678.26569-1.32349.71247-2.61658.898-3.94989.002-.01441.00562-.02844.00769-.04285l-.00708.04328C46.21153,53.20923,45.76414,54.50287,45.49876,55.82685Zm1.66718-8.12543c-.11133.69446-.25348,1.38269-.3924,2.0722.13892-.68945.281-1.37762.39215-2.07214.12061-.75012.13086-1.51861.2024-2.277.06-.63647.12762-1.272.19128-1.90783-.06348.63574-.13116,1.27118-.19092,1.90734C47.29723,46.183,47.28624,46.95075,47.16594,47.70142Zm.68664-19.14862c.04041.25421.17279.51971.22339.76581-.05084-.24616-.18347-.51123-.22406-.76551-.06756-.42736-.12085-.85736-.1773-1.28662C47.73119,27.69568,47.78465,28.12555,47.85258,28.5528ZM47.4445,25.796c.07428.37506.12659.7544.17884,1.13379-.05219-.37933-.1045-.7586-.179-1.13342-.15479-.781-.3457-1.55408-.5332-2.32813C47.09874,24.24219,47.28984,25.01545,47.4445,25.796Zm-.99792-4.57269c-.03736-.22864-.07306-.45764-.12018-.68426-.10254-.49292-.2002-.988-.30041-1.48224.10034.49432.19818.98938.30084,1.48272C46.374,20.76587,46.40941,20.99476,46.44658,21.22327Zm-2.20929-7.94482c.35321.9132.70758,1.82843,1.01306,2.75738-.30579-.92889-.66052-1.8443-1.01349-2.75732-.35089-.90692-.7113-1.81134-1.09076-2.707C43.52586,11.46692,43.8864,12.37122,44.23729,13.27845Zm-5.288,120.02826a14.9841,14.9841,0,0,0,.06983-1.80286c.03247-.31763.08142-.63355.12689-.95-.04529.31653-.09418.63257-.12634.95032a15.18778,15.18778,0,0,1-.06977,1.80261,7.47761,7.47761,0,0,0-.126,2.64282c.01678.131.04217.261.06286.39148-.02075-.13025-.04614-.26013-.063-.391A7.4886,7.4886,0,0,1,38.94926,133.30671Zm.08551,19.391c.072.09619.153.18188.22657.27588-.07355-.094-.15442-.17969-.2265-.27564-.67353-.89746-1.3584-1.79175-2.1056-2.62732-.42736-.4779-.86981-.9425-1.31713-1.40246.44744.46008.89.92456,1.31762,1.40185C37.67631,150.90619,38.3615,151.80072,39.03477,152.6977ZM38.12816,1.02857c.06042.00238.12091.00439.18133.00561C38.24913,1.033,38.18858,1.031,38.12816,1.02857ZM37.672,1.024c-.0321.00079-.06384-.001-.09613.00092C37.6082,1.023,37.63994,1.02478,37.672,1.024Zm-1.03515.17114a10.46255,10.46255,0,0,1-1.76313.23157c-.34283.01087-.68634.03125-1.03.05213.34363-.021.687-.04163,1.02979-.05274A10.47126,10.47126,0,0,0,36.63689,1.19513Zm-5.36158.35706a9.76477,9.76477,0,0,1-.97406-.07434.98266.98266,0,0,0-.23541.00458.982.982,0,0,1,.23486-.005A9.7657,9.7657,0,0,0,31.27531,1.55219Zm-2.16565,79.3147c.04541-.32178.09186-.64356.13721-.96534a2.82492,2.82492,0,0,0,.01923-.28613,2.84649,2.84649,0,0,1-.01892.28626Q29.17878,80.38453,29.10966,80.86689Zm.42218-2.83008c.02192-.34229-.1773-.62171-.20752-.94312-.03833-.40771-.11065-.812-.16766-1.21826.05689.40613.1297.81091.16834,1.21839C29.355,77.41523,29.55412,77.69452,29.53184,78.03681ZM24.43333,45.02c.02478-.363.03595-.73132.06635-1.0943C24.46953,44.28876,24.45836,44.65711,24.43333,45.02Zm.55585-6.54339a1.39833,1.39833,0,0,0-.00848-.2619A1.37364,1.37364,0,0,1,24.98918,38.47663Zm.37933-4.19238.00019.00036c.08783,1.01459.17718,2.02985.251,3.04584C25.54588,36.31452,25.45659,35.2992,25.36851,34.28425Zm-.30133-.18732c.02478-.05982.05512-.11975.07544-.17926l.00049.00061C25.12242,33.97767,25.0919,34.03742,25.06718,34.09693Zm.05,1.03778c-.0216-.28375-.08111-.5755-.092-.85974a.42716.42716,0,0,1,.04028-.17053.42212.42212,0,0,0-.03979.17053C25.03667,34.55939,25.09575,34.8512,25.11717,35.13471Zm-.017.47082a1.36838,1.36838,0,0,0,.02161-.24414,1.36805,1.36805,0,0,1-.02142.24366,8.204,8.204,0,0,0-.164,1.32141A8.20744,8.20744,0,0,1,25.1002,35.60553Zm-.31,5.39222c.00256-.01038.00146-.02063.00421-.031.00647-.02417.00561-.04962.01129-.07391-.00568.02447-.00482.05017-.01135.07452C24.79161,40.97754,24.79277,40.98755,24.79021,40.99775Zm.14318,7.40441c-.0335.17988-.07049.35914-.10748.5384C24.86284,48.7613,24.89983,48.5821,24.93339,48.40216ZM19.37065,77.43891a3.74066,3.74066,0,0,0,.08893-.76685,3.76959,3.76959,0,0,1-.08838.76709,5.40548,5.40548,0,0,0,.10034,2.43567,25.04213,25.04213,0,0,1,.48041,2.50623c.02313.209.04858.41821.07355.62756-.025-.20911-.05042-.41821-.07355-.62683a25.12656,25.12656,0,0,0-.4809-2.50635A5.42959,5.42959,0,0,1,19.37065,77.43891Zm-.00659,19.50781c-.01837.209-.04877.41626-.06744.62524C19.31529,97.363,19.34575,97.1557,19.36406,96.94672Zm.10162-20.39429c.00012-.00756-.00024-.01526-.00018-.02282C19.46538,76.53717,19.4658,76.54487,19.46568,76.55243Zm-.05719-4.22485c-.02685.21509-.03442.4325-.04089.65015.00635-.21778.01379-.43531.04047-.65064.06451-.51452.14379-1.02734.22985-1.5393C19.55193,71.29987,19.47276,71.81281,19.40849,72.32758Zm.36078-70.48615c-.17328-.01525-.34662-.03314-.51935-.05163a.9796.9796,0,0,0-.14746.00543.982.982,0,0,1,.14765-.00561C19.42253,1.80805,19.59593,1.82605,19.76927,1.84143ZM7.4525,157.40925l-.00049-.00037a14.61413,14.61413,0,0,0,2.07153,1.30469,2.42773,2.42773,0,0,0,.818.18237,2.425,2.425,0,0,1-.81818-.182A14.61016,14.61016,0,0,1,7.4525,157.40925Zm-.94379-3.68836a4.54736,4.54736,0,0,0,.12079.77564,4.1083,4.1083,0,0,0,1.88123,2.44738c.0592.03821.12133.072.1828.10681-.06153-.03466-.12372-.06835-.18286-.10632A4.11093,4.11093,0,0,1,6.62944,154.497,4.54743,4.54743,0,0,1,6.50871,153.72089Zm8.16516-17.70605c-.01129-.07618-.03027-.15528-.036-.2295v-.00012C14.64391,135.85932,14.66264,135.93866,14.67387,136.01484Zm-.0036.079a.34374.34374,0,0,1-.0061.13269h-.00006A.34138.34138,0,0,0,14.67027,136.09382Zm-.16638.92077a5.26712,5.26712,0,0,0,.28632,1.60278A5.25621,5.25621,0,0,1,14.50389,137.01459Zm.03894-.3468c.00269-.01489.00208-.02966.005-.04456C14.54491,136.63813,14.54552,136.6529,14.54283,136.66779ZM12.9691,157.34284a6.09556,6.09556,0,0,1-1.25134.37475,6.11973,6.11973,0,0,0,1.25116-.37487,3.79569,3.79569,0,0,0,1.32214-1.04615A3.7876,3.7876,0,0,1,12.9691,157.34284ZM8.95555,139.19318c-.00336-.18176-.00824-.36365.001-.5448.00439-.08667.02032-.17322.03283-.25989-.01245.0868-.02838.17359-.03265.26062C8.94749,138.82978,8.95232,139.01154,8.95555,139.19318Zm-.3905,2.47058a1.97994,1.97994,0,0,0,.17743-.47265A1.958,1.958,0,0,1,8.56505,141.66376Zm1.36371,16.08936a2.13339,2.13339,0,0,0,.54815.09521A2.11169,2.11169,0,0,1,9.92876,157.75312Zm1.80706,5.45837a.17546.17546,0,0,0-.08545.03723.16824.16824,0,0,1,.08552-.03735Zm-.10937.07092a.09427.09427,0,0,0,.09424-.0498.09432.09432,0,0,1-.09485.05054ZM14.79869,131.601c.07727-1.18836.36578-2.35059.33832-3.55274a6.506,6.506,0,0,1,.193-1.37854,6.52679,6.52679,0,0,0-.19287,1.378C15.165,129.25116,14.87639,130.413,14.79869,131.601Zm-.00781.1029c.00232-.03381.00549-.0675.00769-.10144l.00006-.00061C14.79643,131.63593,14.7932,131.66987,14.79088,131.70392ZM17.56041,1.89423a2.96752,2.96752,0,0,0-.31012.01514A2.95122,2.95122,0,0,1,17.56041,1.89423ZM8.91612,135.68378c-.01166.68115.10846,1.36279.136,2.04639a1.74466,1.74466,0,0,1-.01837.223,1.739,1.739,0,0,0,.01819-.22327c-.027-.6831-.14795-1.36535-.13648-2.04638a19.37526,19.37526,0,0,0-.22906-1.969c-.01258-.14953-.0376-.298-.057-.44677.01947.1488.04455.29711.05719.44665A19.48629,19.48629,0,0,1,8.91612,135.68378ZM5.92485,71.25409V71.254c.00952.11756.151.23279.142.34094a15.76078,15.76078,0,0,0,.03357,2.35694,15.69272,15.69272,0,0,1-.03369-2.3573C6.07567,71.486,5.93333,71.37079,5.92485,71.25409Zm-4.001-28.1607-.002.03644Zm1.26551,7.35425a2.50914,2.50914,0,0,0-.04059-.53052A2.48855,2.48855,0,0,1,3.18932,50.44764ZM5.64067,67.12677c.04321.56409.079,1.12854.11652,1.693-.0376-.56446-.07331-1.12915-.11664-1.69336-.00421-.05469-.015-.10877-.02075-.16333C5.62559,67.01777,5.6364,67.072,5.64067,67.12677ZM5.994,4.91889l.02588-.05005ZM6.66441,3.701c-.03442.05518-.06707.10425-.10339.1659C6.5974,3.805,6.62987,3.75641,6.66441,3.701Zm-.29394.505c-.02881.05243-.05628.09985-.0857.15472C6.31425,4.30567,6.34166,4.25861,6.37047,4.206Zm-4.595,13.88959a15.56332,15.56332,0,0,0-.23786,2.11395c-.00458.10827-.02429.21582-.03424.32385.00989-.10809.0296-.2157.03412-.324A15.54608,15.54608,0,0,1,1.77544,18.09559ZM.9016,27.97571q.06692-.54949.11846-1.09924-.05062.55-.11779,1.09955a.70275.70275,0,0,0,.02868.35266,5.489,5.489,0,0,1,.09992,2.70025,5.49156,5.49156,0,0,0-.1-2.69982A.71126.71126,0,0,1,.9016,27.97571Zm.19708,5.00489c.021.14886.04742.29742.08276.44592C1.1461,33.278,1.11967,33.1294,1.09868,32.9806Zm.18426,2.55169a4.15465,4.15465,0,0,0,.13532-.89813,4.11908,4.11908,0,0,1-.13519.89764,3.5209,3.5209,0,0,0-.06977,1.24134A3.50717,3.50717,0,0,1,1.28294,35.53229ZM1.4163,38.8172c.00824.23035.02.4549.02021.701.0448.40094.06683.785.10174,1.16065-.035-.37586-.05713-.7602-.10186-1.16126C1.43626,39.27161,1.42454,39.04731,1.4163,38.8172ZM1.922,43.13715a2.1028,2.1028,0,0,0,.009.32623c.03406.28461.09363.566.15571.84723-.06226-.28137-.12189-.56293-.156-.84765A2.11133,2.11133,0,0,1,1.922,43.13715Zm.43872,2.5097c.01874.09455.03162.18964.04877.28431C2.39232,45.83649,2.37938,45.7414,2.3607,45.64685Zm.86487,5.322a4.431,4.431,0,0,0,.42017,1.69866,1.25354,1.25354,0,0,1,.11474.35633,1.24858,1.24858,0,0,0-.115-.35578A4.42552,4.42552,0,0,1,3.22557,50.96882ZM5.00926,61.97406c-.35412-1.80944-.43579-3.67163-.65253-5.509a10.25419,10.25419,0,0,0-.26306-1.15845c-.08123-.3413-.18878-.6781-.24469-1.0227.05634.34473.16321.68115.24494,1.02295a10.35846,10.35846,0,0,1,.26343,1.15869c.21655,1.83716.29791,3.69946.65209,5.50854a21.11166,21.11166,0,0,1,.27686,2.26258A21.19792,21.19792,0,0,0,5.00926,61.97406Zm.78827,15.804a8.85216,8.85216,0,0,0,.34357-1.47437,8.81671,8.81671,0,0,1-.34314,1.475,16.93131,16.93131,0,0,0-.46582,2.79773c-.02039.14612-.05878.28979-.092.4342.03314-.14465.07159-.28845.09167-.43493A16.929,16.929,0,0,1,5.79753,77.778Zm-.69727,3.85742c-.0321.1311-.06793.26148-.09228.3938-.08484.45813-.1488.92236-.21808,1.38477.06909-.46253.13287-.92688.21784-1.38526C5.03221,81.89667,5.0681,81.7663,5.10026,81.63544Zm-.91693,5.50781a4.74807,4.74807,0,0,1-.19122,1.14527,2.00315,2.00315,0,0,0-.08227.45288,2.01057,2.01057,0,0,1,.08178-.45325A4.738,4.738,0,0,0,4.18333,87.14325Zm-.278,2.5354.00134.05506c.00195.28186.01276.56408.01679.84607-.00409-.28223-.0149-.56446-.01685-.84668Zm.1842,6.50281c.00855.36084.02845.7218.02259,1.08264-.00422.25293.00921.50391.01922.75537-.01007-.25146-.02362-.50256-.01947-.75549C4.11772,96.90326,4.098,96.5423,4.08952,96.18146Zm.81543,8.49329c-.05566-.21924-.097-.44214-.13263-.66651.03577.22437.07709.44727.13282.66675a30.82752,30.82752,0,0,1,.43432,3.82373A30.94732,30.94732,0,0,0,4.905,104.67475Zm1.14228,9.41089c.0733.508.11633,1.0166.16241,1.52221C6.16344,115.10224,6.12035,114.59345,6.04723,114.08564Zm.54754,4.23584c.03357.38049.07434.75805.13147,1.13171C6.66911,119.07953,6.62834,118.70209,6.59477,118.32148Zm.90051,5.92724q.19189,1.171.30915,2.3501Q7.68531,125.42,7.49528,124.24872Zm.6615,18.26953q-.08853.23-.17053.46265Q8.068,142.7478,8.15678,142.51825Zm-.27459.75342-.00055.00195.00055-.00195ZM7.10673,150.697c-.06243.233-.13464.46375-.21984.69007-.01575.04187-.02411.08447-.039.12634.01484-.04175.0232-.08435.03888-.1261C6.972,151.16083,7.04423,150.93012,7.10673,150.697Zm.31568,6.69a4.04455,4.04455,0,0,1-1.8678-3.152A4.046,4.046,0,0,0,7.42241,157.38691Zm-1.87079-4.38355a1.01183,1.01183,0,0,1,.04639.25842A1.02616,1.02616,0,0,0,5.55162,153.00336Zm.47784,7.87952c-.22552-.43042-.44793-.84009-.63983-1.24353C5.58165,160.04279,5.80418,160.45234,6.02946,160.88288Zm-.50317-7.97034c-.01923.02576-.041.05078-.06183.07593.02088-.02539.04267-.05029.06177-.0763Zm-.24377.33814c-.0055.01147-.01581.02124-.02039.03308a1.363,1.363,0,0,0-.05823.23645,1.36462,1.36462,0,0,1,.0578-.23584C5.2664,153.27216,5.27684,153.26239,5.28252,153.25068Zm.87365,7.86181a6.87549,6.87549,0,0,0,1.28461,1.74024A6.84761,6.84761,0,0,1,6.15617,161.11249Zm2.16559,2.33618c-.24377-.177-.50262-.333-.75207-.50219.24945.16943.5083.325.75225.50171a2.25542,2.25542,0,0,0,1.73066.542c.12982-.02027.26464-.04492.398-.0625-.1333.01745-.26813.04223-.39753.06286A2.25974,2.25974,0,0,1,8.32176,163.44867Zm2.18073.471a1.22761,1.22761,0,0,1,.43451.01526.90777.90777,0,0,0,.24865.028.91548.91548,0,0,1-.2492-.02746A1.22687,1.22687,0,0,0,10.50249,163.91962Zm1.80719-.50818a1.80749,1.80749,0,0,0,.25525-.17163c.16217-.13867.32183-.28174.47711-.429-.15522.14734-.31482.29028-.47657.42907A1.84382,1.84382,0,0,1,12.30968,163.41144Zm1.185-1.0719c.01838-.021.03974-.03979.0578-.061.01923-.02259.03486-.04834.05365-.07129-.01873.02295-.0343.04858-.05346.07117C13.53453,162.29975,13.51311,162.31842,13.49467,162.33954Zm2.0625-2.5957c-.25958.36792-.57379.6969-.87,1.03955.29584-.34277.60974-.672.86932-1.04a8.7605,8.7605,0,0,0,1.67469-4.38782c.01129-.139.02569-.27844.03924-.41784-.01343.1394-.02765.27881-.039.41833A8.76965,8.76965,0,0,1,15.55717,159.74384ZM16.961,154.186c.05841-.07715.112-.158.16779-.23694l.0116.01526-.0116-.01514c-.05567.07959-.10986.1604-.16724.23609a26.67314,26.67314,0,0,1-2.092,2.94934A26.7648,26.7648,0,0,0,16.961,154.186Zm-.67315-1.78736a2.22312,2.22312,0,0,1-.33435,1.28174c-.22339.35425-.4151.73316-.61432,1.105.199-.37182.39056-.75073.61383-1.10522a2.2179,2.2179,0,0,0,.33477-1.28174,9.04894,9.04894,0,0,0-.39129-2.27173A9.04,9.04,0,0,1,16.28783,152.39862Zm-.59766-7.564a1.91357,1.91357,0,0,1-.07153.54834,1.928,1.928,0,0,0,.07129-.54785,17.43709,17.43709,0,0,0-.24207-2.84082c-.02924-.1294-.04523-.26123-.07013-.39148.0249.13013.041.2616.07013.39111A17.45373,17.45373,0,0,1,15.69017,144.83466Zm-.26563-19.18335a2.79649,2.79649,0,0,1-.01886.57776,2.77936,2.77936,0,0,0,.01856-.57727,12.31186,12.31186,0,0,1,.1698-2.19116A12.29581,12.29581,0,0,0,15.42454,125.65131Zm.38892-4.74512c-.03052.24048-.06262.48218-.09357.72351.03083-.24121.06287-.48266.093-.723.09766-.7666.19336-1.53406.30743-2.298C16.00639,119.3725,15.91081,120.13984,15.81346,120.90619Zm1.03534-6.7688c-.046.19507-.08.39124-.11615.58716.036-.1958.06989-.39184.11566-.58691a14.121,14.121,0,0,0,.25562-2.5166A14.09586,14.09586,0,0,1,16.8488,114.13739Zm1.41077-10.38659c-.05664.433-.137.86047-.211,1.28967.07385-.429.15411-.85644.21045-1.28918.14746-1.12659.3645-2.243.57983-3.36C18.62376,101.50837,18.40684,102.62494,18.25957,103.7508ZM19.852,91.86628q-.08833,1.59393-.27307,3.17151.18275-1.58021.273-3.17139c.06873-1.24487.25006-2.47705.26123-3.73633.00489-.61377-.07525-1.23755-.02459-1.8429-.05017.60511.03,1.22889.02472,1.843C20.10246,89.38886,19.92094,90.622,19.852,91.86628ZM20.889,63.87861a4.95722,4.95722,0,0,1-.08832,1.05322,4.95438,4.95438,0,0,0,.08789-1.05383,2.06876,2.06876,0,0,1,.08588-.60462A2.07493,2.07493,0,0,0,20.889,63.87861ZM23.1729,53.01343c-.20179,1.33417-.58441,2.64008-.86475,3.96332-.40124,1.8938-.78192,3.79187-1.17316,5.68774-.018.08716-.04144.17432-.0653.26148.02374-.08692.04712-.17383.06488-.26087.3919-1.8966.77288-3.7948,1.17315-5.688.28046-1.32325.663-2.63013.86469-3.96332.10052-.66309.22674-1.31983.35962-1.97486C23.39922,51.694,23.27312,52.35065,23.1729,53.01343Zm1.46728-3.17834.001-.00489a.28544.28544,0,0,1,.04932.10389c.04181.18469.10351.46295.17749.79858-.0741-.33575-.13593-.61407-.17792-.79877A.30155.30155,0,0,0,24.64018,49.83509Zm.92963,4.075c.16907.75647.31909,1.41394.40436,1.75256.10614.42456.18646.853.26031,1.28235-.074-.42932-.15454-.85791-.261-1.28222C25.88847,55.32392,25.73875,54.66645,25.56981,53.9101ZM27.402,64.38324c-.16241-1.01367-.28827-2.032-.436-3.04907.148,1.01734.27417,2.03589.43658,3.04932.15186.95215.15448,1.92114.37458,2.85058.131.55286.19427,1.11524.30542,1.67237-.11152-.55713-.175-1.11975-.30591-1.67212C27.55656,66.30536,27.55455,65.335,27.402,64.38324Zm.97187,5.67163c.10443.50391.12921,1.03821.22961,1.55445.25739,1.32348.35522,2.67737.51929,4.02026-.16449-1.342-.26178-2.697-.51941-4.02075C28.503,71.0932,28.478,70.5589,28.37389,70.05487Zm-.66016,17.96192c-.20764,1.0365-.39752,2.07666-.5622,3.12366C27.316,90.09345,27.5059,89.05317,27.71373,88.01679Zm-.96851,7.369c.27234-1.217.16645-2.4513.32392-3.6781-.15692,1.22668-.05127,2.46118-.32392,3.67846a6.29392,6.29392,0,0,0-.05487,1.68775A6.278,6.278,0,0,1,26.74522,95.38581Zm.077,4.67932c-.00934-.24463-.01782-.48914-.03033-.734C26.80443,99.57587,26.813,99.8205,26.82225,100.06513Zm-.02167,3.35986a5.01121,5.01121,0,0,0,.08954.75611c.20514.98364.20734,1.99487.35413,2.97021-.1471-.97534-.1496-1.98682-.35474-2.97A5.029,5.029,0,0,1,26.80058,103.425Zm2.02429,12.24878c-.25445-1.25146-.62664-2.48413-.79974-3.74536-.15893-1.15771-.28357-2.31079-.51977-3.45923.23657,1.14844.3609,2.30152.51989,3.45923.17316,1.261.5459,2.49451.80023,3.74536.04676.23132.08057.46509.11756.69824C28.90587,116.13886,28.87187,115.905,28.82487,115.67377Zm.5221,2.86279c.0318.11365.06555.22693.08765.34205.05731.30493.10162.61474.14349.92529-.042-.31055-.08643-.62012-.14392-.92481C29.4124,118.76362,29.37865,118.65033,29.347,118.53656Zm.76538,3.79578a5.51622,5.51622,0,0,1-.22272-.71594,5.48843,5.48843,0,0,0,.22309.71594,19.35807,19.35807,0,0,1,.54162,2.63562A19.3405,19.3405,0,0,0,30.11235,122.33234Zm.56512,2.73572-.00079-.0022ZM31.812,146.00629c.346.4126.63293.78772.9215,1.14453-.28875-.35693-.5758-.73218-.9215-1.14441a4.3518,4.3518,0,0,1-1.363-2.45532c-.00061-.014-.02753-.02844-.05023-.04285.02283.01441.04974.02881.05041.04248A4.352,4.352,0,0,0,31.812,146.00629Zm-1.63166-2.53662-.008.00244Zm-.06372.06018c-.14514.58936-.26977,1.18384-.42047,1.77087a1.93225,1.93225,0,0,0-.05585.49671,1.93945,1.93945,0,0,1,.05548-.49671C29.84746,144.71344,29.97185,144.11908,30.11662,143.52985Zm.03449,5.18042a3.71554,3.71554,0,0,1-.20722-.72546,3.71507,3.71507,0,0,0,.20783.72509,2.34413,2.34413,0,0,0,.51025.80494A2.34542,2.34542,0,0,1,30.15111,148.71027Zm1.32434,2.34851c.00836.16675.01776.33338.02624.50012-.00872-.16687-.01843-.33361-.02691-.50049Zm1.56732,6.352c.05835.3357.11688.671.18408,1.00391.00226.01147.01386.021.02.03161-.00616-.01049-.0177-.01989-.02-.03112C33.15965,158.08222,33.10112,157.74653,33.04277,157.41083Zm.46405,4.39221c-.01611.02015-.14069-.00549-.14416-.02356a.89965.89965,0,0,1-.01264-.29138,2.08306,2.08306,0,0,1,.08789-.30139.4308.4308,0,0,1,.19885.37C33.64281,161.63666,33.56523,161.73041,33.50682,161.803Zm.25238-8.03674a7.113,7.113,0,0,0-.48865,2.95776c.05286.6814.09369,1.1847.12836,1.68848a.482.482,0,0,1-.04663.157l-.00049-.00048a.45145.45145,0,0,0,.047-.157c-.035-.50268-.07544-1.00635-.12836-1.688a7.11967,7.11967,0,0,1,.48834-2.958.6656.6656,0,0,0-.189-.96143,7.32989,7.32989,0,0,1-.77527-.72327,7.33357,7.33357,0,0,0,.7757.72315A.66614.66614,0,0,1,33.7592,153.7663Zm3.87061,2.71582c-.21753-.31152-.44672-.61475-.67359-.91968.22711.30493.45654.60816.67432.91993a5.41176,5.41176,0,0,1,.38354.66357A5.41,5.41,0,0,0,37.62981,156.48212Zm.391.67554-.00012-.00025Zm.70154,1.354a3.30834,3.30834,0,0,0,1.01184,1.17114c.14453.1.28216.19141.41882.27478-.1366-.08337-.27429-.17468-.41882-.27453A3.30028,3.30028,0,0,1,38.7224,158.51166Zm3.0744,1.759a.3015.3015,0,0,1,.08795.01025,8.50434,8.50434,0,0,0,2.58856.37256,8.50915,8.50915,0,0,1-2.5888-.37207A.28383.28383,0,0,0,41.7968,160.2707Zm11.33172-.92237a.36906.36906,0,0,0-.06823-.32471c-.379-.60131-.73291-1.2185-1.09015-1.83312.35748.61462.71148,1.23156,1.09021,1.83264A.36883.36883,0,0,1,53.12852,159.34833Z" style="fill:#fff"/><path id="fill3" d="M17.12876,153.94912c-.05566.07961-.10988.16043-.16722.23611a19.76981,19.76981,0,0,1-2.28251,3.15648,5.44485,5.44485,0,0,1-1.5202,1.02688,4.44331,4.44331,0,0,1-1.33409.445,4.4951,4.4951,0,0,1-2.30136-.09963,14.60946,14.60946,0,0,1-2.07087-1.30468,3.98333,3.98333,0,0,1-1.84831-4.08345,1.20763,1.20763,0,0,0-.07779-.41344,1.74128,1.74128,0,0,0-.26428.37139c-.07962.20385-.07584.44283-.16834.63691a6.8368,6.8368,0,0,0-.10439,4.64781,11.80385,11.80385,0,0,0,1.13781,2.49973,7.00562,7.00562,0,0,0,1.34258,1.81161c.27884.19749.57577.368.85213.5684a2.25543,2.25543,0,0,0,1.7307.54194,2.33447,2.33447,0,0,1,.88437-.05525,1.05146,1.05146,0,0,0,.93227-.2525,8.16776,8.16776,0,0,0,.69567-.44257,8.69583,8.69583,0,0,0,.98752-.96124c.335-.39442.60252-.84543.92455-1.25223.34646-.4383.75852-.82786,1.07948-1.283a8.76078,8.76078,0,0,0,1.67472-4.38784c.02955-.36394.07917-.72944.08446-1.09426C17.317,154.15763,17.19462,154.05291,17.12876,153.94912Zm-5.50292,9.33409c.00408-.05146.057-.06226.11007-.07176A.10538.10538,0,0,1,11.62584,163.28321Zm22.13291-9.5172a7.1205,7.1205,0,0,0-.48833,2.95806c.05291.68158.09336,1.18529.12835,1.68806a.45056.45056,0,0,1-.047.15693c-.04291-.05044-.11367-.09608-.12493-.15436-.20311-1.006-.3235-2.03724-.6173-3.01607a18.22264,18.22264,0,0,0-1.017-3.26463c-.01264-.02462-.06211-.03824-.06377-.05965-.0209-.33849-.03647-.6774-.05335-1.01627a5.48261,5.48261,0,0,1,.77867.4881c.45346.40306.8382.89082,1.31576,1.25846A.66555.66555,0,0,1,33.75875,153.766Zm19.19643,5.75649a6.33726,6.33726,0,0,1-1.83638.78116,27.4093,27.4093,0,0,1-2.94468.35895,19.65458,19.65458,0,0,1-3.05032.0378,12.6857,12.6857,0,0,1-3.239-.41941.51187.51187,0,0,0-.2605.00407,2.318,2.318,0,0,1-1.89-.60219,4.41313,4.41313,0,0,1-1.36351-1.82206,12.561,12.561,0,0,0-.74023-1.37843c-.65491-.93728-1.36962-1.831-2.03726-2.75926a21.83614,21.83614,0,0,0-1.83277-2.30734,7.18318,7.18318,0,0,0-2.247-1.44291,1.8943,1.8943,0,0,1-1.36183-1.263,3.01027,3.01027,0,0,1-.25742-1.065c-.00477-.78883-.40717-1.53873-.19811-2.34416.15071-.58709.27531-1.18161.42046-1.771a.16207.16207,0,0,1,.13483-.08176c.07228.01323.1958.06279.19755.103a4.35207,4.35207,0,0,0,1.363,2.45534c.49333.58823.86153,1.123,1.29624,1.59608.80629.87852,1.55476,1.82606,2.38939,2.654,1.40156,1.39425,2.47817,3.05307,3.89187,4.4303a6.25722,6.25722,0,0,0,2.59825,1.86336,3.37028,3.37028,0,0,0,1.32283.20657c.73839-.08285,1.48464-.09916,2.22129-.18719a2.7317,2.7317,0,0,0,1.22389-.30613c.85973-.61528,1.93711-.92073,2.60307-1.81539a.41887.41887,0,0,1,.40761-.03164A7.30666,7.30666,0,0,1,51.0611,155.698c.71413,1.07657,1.30922,2.23092,1.99919,3.32552C53.23362,159.29922,53.104,159.44773,52.95518,159.5225Z" style="fill:#fff"/><path id="fill2" d="M48.08513,29.61728c-.27892,1.15235.09976,2.28989-.02,3.44873-.11672,1.129-.05639,2.28724-.11513,3.43588-.06843,1.335-.12218,2.66883-.24052,4.00231-.05612.62813.00016,1.26644-.04648,1.89521-.07621,1.01025-.19981,2.016-.29492,3.02505-.0715.75845-.08176,1.52692-.20236,2.277-.22364,1.3968-.57162,2.76825-.769,4.175-.18555,1.33331-.63237,2.62644-.898,3.94982-.29455,1.47083-.48813,2.96067-.77307,4.43345-.221,1.13709-.55257,2.25184-.76808,3.38981-.22094,1.172-.52556,2.32234-.68725,3.5126-.18249,1.33845-.48484,2.67406-.76938,3.99628a46.723,46.723,0,0,0-.87318,6.12316c-.11034,1.40139-.49185,2.7566-.5647,4.15646a18.50472,18.50472,0,0,0-.04978,1.8874c.02047.4192.21485.82767.25418,1.2481.13188,1.42158.229,2.84586.33956,4.27047a2.92946,2.92946,0,0,0,.05493.62089,4.53477,4.53477,0,0,1,.19152,2.346,12.317,12.317,0,0,0,.03391,2.5155c.0329.28518-.01173.55884.02724.83547a2.55947,2.55947,0,0,1,.06348.97387c-.29259,1.02835.084,2.05183-.06374,3.09309a20.16077,20.16077,0,0,0,.03266,3.22682,1.68834,1.68834,0,0,1,.00287.262c-.10623.83106-.24619,1.66067-.3185,2.49579a30.56275,30.56275,0,0,0-.30781,3.37831,16.38669,16.38669,0,0,1-.3037,2.75546,18.27176,18.27176,0,0,0-.21854,2.10354c-.03747,1.11069-.32322,2.20981-.4157,3.32208-.11846,1.41823-.14893,2.84434-.21724,4.268-.02289.48441-.02142.971-.07144,1.4522a19.12568,19.12568,0,0,0-.29721,2.6662,27.5814,27.5814,0,0,1-.40553,3.43565c-.08169.9743-.27583,1.93724-.37516,2.9089a14.982,14.982,0,0,1-.06979,1.803,7.48839,7.48839,0,0,0-.12553,2.64348c.08817.68553.24285,1.3619.32712,2.04911a12.67007,12.67007,0,0,0,.18218,1.94869,26.41152,26.41152,0,0,0,1.09986,2.859c.15971.37747.476.69441.60131,1.07857a27.18154,27.18154,0,0,0,2.81591,5.68895,5.54209,5.54209,0,0,0,1.88471,1.92006,7.1754,7.1754,0,0,1,2.16754,2.20336c.22146.32431.2317.57763-.09375.78434a4.58712,4.58712,0,0,1-2.34412,1.029,2.17966,2.17966,0,0,0-.88233.08195,3.1696,3.1696,0,0,1-2.51348-.13031c-.57273-.17329-.88467-.64116-1.32127-.96623a8.50791,8.50791,0,0,1-1.71268-1.799c-.67327-.89692-1.35845-1.79154-2.105-2.62763-.90088-1.00563-1.86224-1.95955-2.81457-2.91812a15.87163,15.87163,0,0,1-2.59-3.4021,3.57926,3.57926,0,0,1-.47846-2.05882c.05621-.62683.28587-1.2362.396-1.86051a12.666,12.666,0,0,0,.31615-2.31817c-.02176-1.90876-.31517-3.8005-.28164-5.72432.03146-1.77707-.24-3.55892-.378-5.33766-.0138-.17775.02748-.39063-.05693-.52528-.68081-1.098-.45525-2.41827-.9296-3.59276a18.14658,18.14658,0,0,1-.67812-3.45368c-.06326-.32989-.1889-.64948-.24824-.981-.1314-.74-.2123-1.488-.36087-2.22393-.25438-1.25077-.6271-2.48429-.80029-3.74538a37.79526,37.79526,0,0,0-.65862-4.10319c-.29289-1.17518-.22376-2.43223-.47646-3.64408a9.23327,9.23327,0,0,1-.06323-2.33848c.072-1.428-.07714-2.86441-.11586-4.29861a9.0273,9.0273,0,0,1,.03417-2.15776c.28653-1.27931.14673-2.578.3425-3.86632.25227-1.65176.55021-3.28684.91319-4.91495.21655-.96862.4877-1.92677.666-2.90326.23025-1.2601.40054-2.53039.58026-3.8a4.751,4.751,0,0,1,.17415-1.49779c.28439-.52762-.05635-.8816-.09631-1.31005-.04433-.46712-.13676-.9305-.19447-1.39657-.16913-1.36493-.26531-2.74228-.52706-4.08793a15.748,15.748,0,0,0-.332-1.95591c-.26343-.79567-.30441-1.61793-.49433-2.41931-.22005-.92941-.22267-1.89854-.37457-2.85071-.26082-1.628-.42049-3.26931-.74453-4.8978-.2514-1.2644-.36808-2.55948-.68394-3.82295-.25072-.99556-1.05654-4.72568-1.2836-5.72853a.28475.28475,0,0,0-.04984-.105,24.286,24.286,0,0,0,.48478-2.70906c.08466-.83208.23162-1.65822.33638-2.49048.0808-.6395.18016-1.28182.20274-1.92619.04617-1.29288.10008-2.59044.05087-3.88268-.05709-1.51476-.21606-3.02568-.34676-4.53611-.0113-.12818-.1481-.24531-.22611-.36694a1.13425,1.13425,0,0,0-.11748.35731,5.64182,5.64182,0,0,1,.07506,1.33054,7.96255,7.96255,0,0,0-.15173,2.37532,2.04891,2.04891,0,0,1,.0388.62083c-.1946.78409.00933,1.60991-.19286,2.365-.18211.685.067,1.34863-.13788,2.03406a9.94323,9.94323,0,0,0-.2274,2.09347A21.20061,21.20061,0,0,1,24.24757,47.64c-.3598,1.79048-.80039,3.56169-1.07517,5.37386-.2017,1.33318-.58423,2.6401-.8647,3.96331-.40024,1.89314-.78124,3.79147-1.17315,5.688a5.3273,5.3273,0,0,0-.246,1.21294,12.48978,12.48978,0,0,1-.48611,2.8826c-.35235,1.85173-.76024,3.69839-.99436,5.56655a25.54982,25.54982,0,0,0,.04509,3.31724,7.46373,7.46373,0,0,1-.08255,1.79455,5.4302,5.4302,0,0,0,.10041,2.43643,25.127,25.127,0,0,1,.48093,2.50634,14.16261,14.16261,0,0,1,.15489,3.67574,15.052,15.052,0,0,0,.00629,2.07263c-.01115,1.25931-.19247,2.49146-.2612,3.73634-.08041,1.44075-.19125,2.87047-.406,4.29611-.11377.751-.12026,1.51645-.245,2.2642-.29895,1.77774-.70813,3.53844-.9419,5.32451-.18365,1.40978-.49313,2.7917-.71239,4.19353-.1432.90917-.28071,1.822-.37495,2.73815a27.5937,27.5937,0,0,1-.3234,3.45474c-.26875,1.14487-.33845,2.30782-.56559,3.45208-.21759,1.09383-.32866,2.20892-.46986,3.3169a14.76347,14.76347,0,0,0-.1892,2.01389c.012.916-.279,1.79228-.19939,2.73128.06757.78389-.30607,1.59941-.28722,2.39653.02746,1.20249-.26143,2.36506-.3385,3.55413a28.6922,28.6922,0,0,0-.16066,4.18293c.01151.14832.07569.31678.0262.44161-.4189,1.06369.08419,2.072.29964,3.04611.199.90144.28121,1.8214.48416,2.72122a17.43764,17.43764,0,0,1,.242,2.84084,2.50525,2.50525,0,0,1-.116.73907,6.16074,6.16074,0,0,0-.05223,3.24148,14.0988,14.0988,0,0,1,.76612,3.58261,2.21752,2.21752,0,0,1-.33477,1.28167,18.30956,18.30956,0,0,1-1.38748,2.30319A4.55695,4.55695,0,0,1,12.969,157.3427a7.1107,7.1107,0,0,1-2.148.50823,2.36611,2.36611,0,0,1-1.733-.55516c-.17856-.13535-.38753-.22942-.5772-.35183a4.10858,4.10858,0,0,1-1.88126-2.4474A5.21072,5.21072,0,0,1,6.8869,151.387a4.83979,4.83979,0,0,0,.35038-2.4835c-.06619-.41966-.22163-.82845-.26367-1.24868a4.44853,4.44853,0,0,1,.6049-3.44836,3.43211,3.43211,0,0,0,.30382-.93516,9.14869,9.14869,0,0,1,.55607-1.37546,1.97068,1.97068,0,0,0,.34129-1.02412c-.00027-.38447.1327-.76721.16584-1.15427.03041-.35325-.007-.71337.0112-1.06835.01511-.30775.10689-.61468.09538-.919-.02752-.68347-.14766-1.36521-.136-2.04641a19.5011,19.5011,0,0,0-.22951-1.96931c-.099-1.17132-.43831-2.32137-.55344-3.49289a56.96771,56.96771,0,0,0-.9437-7.56723c-.20468-.87008-.1544-1.78148-.37021-2.67354-.24383-1.01093-.18278-2.07777-.42725-3.11419-.25262-1.0721-.18783-2.19437-.42647-3.29439-.3082-1.42405-.21513-2.91016-.52263-4.35979-.31418-1.48411-.15642-3.03708-.53773-4.53744a23.62913,23.62913,0,0,1-.37731-2.93794,32.17585,32.17585,0,0,1-.41577-4.47292c.02365-1.46188-.098-2.92463-.143-4.38788Q3.91977,91.305,3.90668,89.7337a4.634,4.634,0,0,1,.08544-1.44521c.32684-1.00278.1201-2.05553.42727-3.06893a29.5286,29.5286,0,0,0,.5886-3.19029c.08984-.4883.25592-.96367.32415-1.453A16.93074,16.93074,0,0,1,5.798,77.77864,7.025,7.025,0,0,0,6.1859,75.658c-.01357-1.35284-.23124-2.70192-.11908-4.06308.00905-.1083-.133-.22364-.14213-.34123-.09995-1.37436-.17864-2.75169-.284-4.12688C5.604,66.655,5.50471,66.18944,5.44,65.7199c-.17194-1.245-.18579-2.497-.43059-3.74578-.3542-1.809-.43556-3.67149-.65212-5.50867a10.36045,10.36045,0,0,0-.26338-1.15863c-.08556-.3577-.20159-.709-.25519-1.07058a5.272,5.272,0,0,0-.193-1.56874,5.05509,5.05509,0,0,1-.44766-1.99131,3.16722,3.16722,0,0,0-.08215-.885A10.73465,10.73465,0,0,1,2.51871,46.67c-.05182-.59822-.19708-1.18794-.30894-1.78025-.08944-.477-.22139-.94677-.27877-1.42633-.05241-.43287.09867-.92855-.06331-1.30053a8.87957,8.87957,0,0,1-.43117-2.64465,13.21434,13.21434,0,0,0-.15-2.17439,4.30966,4.30966,0,0,1-.00352-1.812,2.84844,2.84844,0,0,0,.0403-1.61107,6.948,6.948,0,0,1-.30606-2.50515c-.00338-1.031.35881-2.06336-.08633-3.0869A.7027.7027,0,0,1,.90224,27.976a25.5566,25.5566,0,0,0,.20885-4.3588A8.46774,8.46774,0,0,1,1.292,22.1203c.085-.6372.21858-1.27134.24559-1.91073a14.61587,14.61587,0,0,1,.33329-2.669c.29024-1.26613.50515-2.55065.79395-3.818.14064-.61323.38253-1.20339.5654-1.80916a19.304,19.304,0,0,1,.82914-2.67257c.24029-.50667.29459-1.054.56843-1.562C5.1074,6.79054,6.16515,4.41349,6.78575,3.5062l.00257-.00151a3.6098,3.6098,0,0,1,.63281-.2481c1.134-.16467,2.2732-.29748,3.40919-.45422.80077-.11055,1.60129-.13776,2.40706-.32264,1.136-.26028,2.34456-.17527,3.4973-.47987a3.06927,3.06927,0,0,1,1.28107-.08868c.44736.08226.81525-.16681,1.23419-.12134a8.956,8.956,0,0,0,1.22693.07951c.96171-.02892,1.91953-.0737,2.8863-.0721,2.12725.00427,4.25631-.17577,6.38562-.28325a3.0439,3.0439,0,0,1,.55246-.03616,27.07953,27.07953,0,0,0,4.57252-.05112,10.58349,10.58349,0,0,0,2.29808-.34106,8.64383,8.64383,0,0,1,1.49688-.0624l.00341.00916c.42332.86387.86351,1.7197,1.27391,2.59.96089,2.03883,1.92847,4.07722,2.85432,6.13224.52,1.15621.979,2.34131,1.43647,3.52387.43906,1.13561.90742,2.26756,1.24139,3.43549.35815,1.25349.58223,2.54693.84815,3.825.12875.61923.19795,1.25109.33325,1.8685.24929,1.13281.5593,2.25152.78472,3.38888.18086.90961.26239,1.839.40758,2.75677C47.90954,28.91432,48.1613,29.29948,48.08513,29.61728Z" style="fill:#e5bba3"/><path id="fill1" d="M42.989,8.0511c.22915.473.398.91071.59439,1.33566.31134.67364.68492,1.32175.953,2.01144.42169,1.085.78391,2.19341,1.15958,3.29591.39434,1.1573.785,2.31612,1.15589,3.48107a9.54357,9.54357,0,0,1,.28354,1.24316c.22933,1.30438.41438,2.61731.67469,3.91526.21627,1.07832.53014,2.13671.76825,3.21114.08284.37382.03487.77532.10405,1.1537a35.66109,35.66109,0,0,1,.31831,4.66005,11.58489,11.58489,0,0,1-.08738,2.72951,17.32129,17.32129,0,0,0-.05312,1.982,24.89322,24.89322,0,0,1-.24931,3.38357,6.993,6.993,0,0,0-.04853,1.80412,12.73846,12.73846,0,0,1-.29611,3.02669c-.134.74756-.10237,1.5234-.20434,2.27853-.13.9628-.30924,1.91949-.488,2.875-.15762.84249-.35094,1.67825-.5156,2.51952-.26074,1.33222-.5025,2.66816-.76793,3.99943-.20533,1.02981-.43671,2.05443-.65279,3.0821C45.319,61.554,44.99329,63.06778,44.69,64.586c-.2985,1.49424-.57309,2.99326-.85769,4.49029-.21217,1.11605-.45685,2.22724-.62584,3.34982-.16621,1.10405-.43223,2.18667-.505,3.3155a8.62569,8.62569,0,0,1-.44713,2.70794,5.4746,5.4746,0,0,0-.24357,1.65116c-.04324.65988-.02131,1.32384-.03424,1.98593-.00889.45516.174.90574-.04993,1.37423-.06687.13987.16886.4004.19741.61477.06273.4711.07.94924.12058,1.42229.19975,1.86945.51815,3.73462.5763,5.60807.04452,1.43442.19364,2.8695.15986,4.29793-.02922,1.236-.11232,2.46565-.05669,3.70753.05784,1.29124.01495,2.59047-.05427,3.88244-.03533.6592-.25846,1.3063-.33472,1.966-.06873.59457-.03605,1.20011-.078,1.7987q-.11851,1.691-.27533,3.3791c-.05218.5555-.14375,1.10757-.22647,1.65985a6.496,6.496,0,0,0-.21818,1.47978,13.61774,13.61774,0,0,1-.21608,2.19533c-.04418.67337-.1522,1.34267-.192,2.01614-.084,1.42208-.13,2.8464-.21355,4.26849-.093,1.58246-.30034,3.15485-.36869,4.74207-.04389,1.01913-.34836,2.02449-.48122,3.04317-.11233.86134-.237,1.72381-.345,2.58443a28.74267,28.74267,0,0,0,.15394,6.02273,13.0861,13.0861,0,0,0,1.5065,4.59384c.2044.42068.3662.86193.55141,1.2921a18.92228,18.92228,0,0,0,.934,2.11368,15.29973,15.29973,0,0,0,2.18059,3.42471c.30934.30489.60347.62686.92875.91355a12.15126,12.15126,0,0,1,2.63059,2.73267.7975.7975,0,0,0,.64287.34512,2.07149,2.07149,0,0,1,2.25092,1.22357,16.81555,16.81555,0,0,1,2.1885,3.78712,1.69057,1.69057,0,0,1-.61337,1.945,5.2091,5.2091,0,0,1-2.44059.8512,10.55163,10.55163,0,0,0-2.23769.29739,7.56126,7.56126,0,0,1-2.15009.01512,7.29611,7.29611,0,0,0-.83227-.09188,11.42251,11.42251,0,0,1-3.96758-.34051,6.33469,6.33469,0,0,0-1.04242-.00321,1.686,1.686,0,0,1-.88054-.19326,11.01161,11.01161,0,0,1-1.82935-1.74975,5.70166,5.70166,0,0,1-.739-1.46139c-.48558-1.33418-1.58411-2.21223-2.2799-3.37756-.10244-.17155-.31243-.1763-.33775.10417a12.30887,12.30887,0,0,0-.21909,2.01638c.11832,1.697.16723,3.399.22863,5.09961a1.14005,1.14005,0,0,1-1.42344,1.22434c-.80255-.13274-.7574-.13065-.71645-1.0135a8.08088,8.08088,0,0,0-.23329-3.41879,7.4432,7.4432,0,0,1-.33744-1.86283,23.84446,23.84446,0,0,0-.87818-3.3516,8.133,8.133,0,0,1-.65788-2.43982c.00871-.18372.04281-.36364-.29062-.4203-.19783-.03362-.40536-.39031-.49031-.64172a25.61563,25.61563,0,0,1-.94771-3.1203,4.76967,4.76967,0,0,1,.74454-3.29253,12.31574,12.31574,0,0,0,1.18716-3.871,17.31073,17.31073,0,0,0,.18624-2.72619,17.77041,17.77041,0,0,0-.06871-2.43208c-.04355-.4852-.05668-.971-.09739-1.45547-.04484-.53354-.08366-1.06762-.1251-1.60146a10.75712,10.75712,0,0,1-.10709-1.60024,11.41368,11.41368,0,0,0-.14538-1.63321,6.11555,6.11555,0,0,0-.15465-1.68136c-.39987-1.079-.09515-2.28076-.72382-3.33082a5.47751,5.47751,0,0,1-.3616-1.75562c-.30647-1.63248-.73291-3.23656-.95955-4.89207-.14614-1.06746-.39071-2.13866-.59993-3.2048-.2559-1.304-.4-2.62761-.67855-3.91341a24.01153,24.01153,0,0,0-.50277-3.14435,4.25273,4.25273,0,0,1-.16205-1.349c.00444-.53344-.07222-1.0676-.11366-1.60143a5.57046,5.57046,0,0,1-.09222-1.50723,9.1647,9.1647,0,0,0-.04307-2.43623,7.95372,7.95372,0,0,1,.16859-2.4626,1.37224,1.37224,0,0,0-.02814-.44308,17.587,17.587,0,0,1,.12505-2.64008c.049-.8217.12334-1.63972.17883-2.45986a31.99294,31.99294,0,0,1,.66452-4.0383c.38533-1.9502.92545-3.87291,1.23921-5.833a28.81089,28.81089,0,0,1,.47495-3.2315c.07064-.25449-.18358-.58325-.21734-.88577-.08239-.73866-.12754-1.48167-.1797-2.2235a12.12848,12.12848,0,0,0-.58156-2.94079,2.18857,2.18857,0,0,1-.04679-.532,13.80362,13.80362,0,0,0-.60562-3.20639.97112.97112,0,0,1-.01568-.17743c-.19985-1.80963-.4151-3.61773-.59271-5.42954a6.16775,6.16775,0,0,0-.5-2.06092.86847.86847,0,0,1-.04492-.25458c-.15242-1.18673-.23139-2.38866-.47462-3.55643-.28887-1.38684-1.03266-5.49365-1.14364-6.89444a1.62834,1.62834,0,0,1,.09861-.45674c.1437.14774.37729.275.41629.44658.22788,1.00248,1.03344,4.73266,1.28339,5.72888.31686,1.26286.43357,2.55834.68512,3.82332.32381,1.62839.48248,3.26881.74341,4.89712.15253.95181.15452,1.92215.37469,2.85112.18983.80088.23134,1.624.49546,2.4196a15.98388,15.98388,0,0,1,.33119,1.95484c.262,1.346.35765,2.72414.5272,4.08838.058.4664.14985.92912.19379,1.39656.04029.42857.38115.78241.09728,1.31057a4.7662,4.7662,0,0,0-.17478,1.49733c-.17883,1.26906-.34943,2.54048-.57978,3.80064-.17835.97571-.44983,1.93406-.666,2.90322-.363,1.627-.66157,3.26248-.91324,4.91389-.19639,1.28869-.05632,2.58721-.34259,3.86643a8.979,8.979,0,0,0-.03375,2.15831c.03811,1.43363.18732,2.871.116,4.29815a9.27078,9.27078,0,0,0,.062,2.339c.2528,1.21143.184,2.4693.47758,3.64452a38.0192,38.0192,0,0,1,.658,4.10258c.17312,1.26118.54533,2.494.79977,3.74541.14952.73534.23069,1.48439.36212,2.22378.05889.33134.18476.65062.24722.9816a18.27355,18.27355,0,0,0,.67813,3.45316c.475,1.17515.24865,2.49521.93065,3.59246.08373.1347.0425.348.05629.52512.13855,1.77942.41,3.56127.37854,5.33773-.034,1.92366.25889,3.81544.28165,5.72422a12.73059,12.73059,0,0,1-.317,2.319c-.11.62452-.33978,1.23376-.3956,1.8605a3.57862,3.57862,0,0,0,.4777,2.05821,15.91661,15.91661,0,0,0,2.59041,3.40215c.95262.95885,1.91389,1.91214,2.81427,2.9189.74722.83552,1.43206,1.7298,2.10561,2.62727A8.55167,8.55167,0,0,0,40.747,154.497c.43728.32482.74941.793,1.32113.9661a3.17271,3.17271,0,0,0,2.51457.13019,2.16825,2.16825,0,0,1,.88213-.08161,4.59013,4.59013,0,0,0,2.34442-1.02986c.32533-.20617.31408-.46007.09327-.78408a7.17983,7.17983,0,0,0-2.16792-2.20289,5.548,5.548,0,0,1-1.8839-1.92078,27.174,27.174,0,0,1-2.81649-5.68842c-.12555-.3839-.44192-.70166-.60078-1.07915a26.42078,26.42078,0,0,1-1.10078-2.858,12.67769,12.67769,0,0,1-.182-1.94973c-.08457-.68609-.239-1.36343-.3267-2.04922a7.47685,7.47685,0,0,1,.126-2.64282,15.17377,15.17377,0,0,0,.06975-1.80256c.09841-.97228.29233-1.9356.3744-2.9087a27.56426,27.56426,0,0,0,.406-3.43595,19.22574,19.22574,0,0,1,.29663-2.66686c.05-.48132.04824-.96794.0714-1.45211.0681-1.423.0993-2.84911.2176-4.26795.09266-1.11145.37807-2.211.416-3.32138a18.32715,18.32715,0,0,1,.21788-2.10455,16.25819,16.25819,0,0,0,.30416-2.75476,30.61983,30.61983,0,0,1,.30819-3.37918c.07182-.83485.21192-1.66377.31825-2.49574a1.7746,1.7746,0,0,0-.00255-.26131,20.03707,20.03707,0,0,1-.03346-3.22665c.14836-1.04176-.22895-2.0648.06363-3.09345a2.53082,2.53082,0,0,0-.06371-.97333c-.03819-.27709.00643-.55123-.0272-.83577a12.30888,12.30888,0,0,1-.03374-2.515,4.535,4.535,0,0,0-.19151-2.34706,2.96562,2.96562,0,0,1-.05448-.621c-.1105-1.42357-.20776-2.84834-.33966-4.26992-.039-.4206-.23313-.82928-.25421-1.24852a18.57223,18.57223,0,0,1,.04966-1.88717c.07249-1.39992.45391-2.75521.56541-4.15694a46.55283,46.55283,0,0,1,.87264-6.12234c.28473-1.32236.58636-2.65784.76893-3.996.16246-1.1908.46712-2.34139.68822-3.51308.21468-1.13762.54636-2.253.76688-3.3897.28564-1.47228.47906-2.96267.77375-4.4329.26538-1.32408.71277-2.61768.89853-3.95.19621-1.40721.54478-2.7788.76863-4.17548.1203-.75066.13127-1.51841.20253-2.27743.09469-1.00835.21862-2.01432.2941-3.024.04708-.62978-.00962-1.26785.04628-1.89632.11851-1.33241.17228-2.66668.24068-4.0016.05883-1.14824-.001-2.3077.11538-3.43545.11966-1.16-.25907-2.29654.01985-3.44992.07659-.31674-.17479-.70275-.23219-1.06388-.14583-.91752-.22777-1.84677-.40809-2.75687-.2252-1.13665-.53572-2.25612-.78494-3.38836-.13584-.61718-.2039-1.2491-.33273-1.86807-.26623-1.2792-.49077-2.57187-.84884-3.82576-.33356-1.16809-.80143-2.29952-1.24067-3.43529-.45754-1.18308-.91666-2.36774-1.43729-3.52369-.9259-2.05577-1.89318-4.093-2.85449-6.13264-.41-.87-.84987-1.726-1.27279-2.58995a2.13872,2.13872,0,0,1-.14966-.38578.42173.42173,0,0,1,.30079-.54627.44021.44021,0,0,1,.56884.27354c.39688.81571.775,1.64074,1.18222,2.4512a48.87825,48.87825,0,0,1,2.13183,4.65073,3.84179,3.84179,0,0,0,.28223.57548M31.812,146.00633a4.35179,4.35179,0,0,1-1.36275-2.45552c-.00193-.03938-.12526-.08925-.19776-.10233a.16079.16079,0,0,0-.13484.08138c-.14476.58922-.26917,1.18357-.42087,1.77088-.20809.80568.19359,1.55534.199,2.34405a2.99731,2.99731,0,0,0,.2563,1.06551,1.89508,1.89508,0,0,0,1.36216,1.26214,7.21605,7.21605,0,0,1,2.24762,1.44354,21.81432,21.81432,0,0,1,1.8329,2.30713c.66754.92772,1.38186,1.82222,2.036,2.759a12.57126,12.57126,0,0,1,.74136,1.37847,4.40227,4.40227,0,0,0,1.36305,1.82261,2.31739,2.31739,0,0,0,1.89034.60157.50328.50328,0,0,1,.25993-.00335,12.6891,12.6891,0,0,0,3.2392.419,19.5744,19.5744,0,0,0,3.05041-.03818,27.0225,27.0225,0,0,0,2.944-.35908,6.30515,6.30515,0,0,0,1.83657-.781c.14941-.07415.27918-.22341.10563-.4989-.6894-1.09428-1.28571-2.24849-1.99972-3.32534a7.28335,7.28335,0,0,0-1.29354-1.2813.41786.41786,0,0,0-.40834.03111c-.66653.895-1.74367,1.201-2.6027,1.81545a2.72694,2.72694,0,0,1-1.22376.30606c-.73763.08837-1.48381.10429-2.22213.18829a3.37055,3.37055,0,0,1-1.3225-.2074,6.26221,6.26221,0,0,1-2.59857-1.86294c-1.41355-1.37809-2.49036-3.036-3.89207-4.42989-.83359-.82895-1.5822-1.77658-2.3889-2.65465-.43457-.473-.80233-1.00742-1.29613-1.5962m1.45855,10.71773a7.113,7.113,0,0,1,.48867-2.95769.6662.6662,0,0,0-.18895-.96184c-.47808-.36805-.86256-.8552-1.31669-1.25795a5.33521,5.33521,0,0,0-.77876-.48814c.01728.33885.03344.67775.05461,1.01636.00129.02064.051.03433.06368.05876a18.32568,18.32568,0,0,1,1.01681,3.26531c.29356.979.4138,2.00977.617,3.01639.0116.05747.0822.10306.12534.15419a.4804.4804,0,0,0,.04662-.15692c-.03465-.50375-.07548-1.00707-.12837-1.68847m.16738,4.46261a2.08537,2.08537,0,0,0-.08791.30147.89927.89927,0,0,0,.01264.29129c.00347.0182.128.04375.14419.02364.05839-.07258.136-.16633.13-.24632A.43121.43121,0,0,0,33.43791,161.18667ZM1.43641,39.51763a8.87539,8.87539,0,0,0,.43171,2.64542c.16139.37127.01085.8676.0626,1.29991.05741.47964.18962.94994.27929,1.4262.11155.59249.25651,1.18308.30906,1.78131a10.72408,10.72408,0,0,0,.59709,3.12081,3.19906,3.19906,0,0,1,.082.8846,5.0503,5.0503,0,0,0,.44728,1.9922,5.23962,5.23962,0,0,1,.19336,1.56832c.0529.36139.16989.71322.25491,1.07011a10.27792,10.27792,0,0,1,.26306,1.15862c.21669,1.83739.29836,3.69948.6525,5.50887.24448,1.24913.25912,2.50145.431,3.74547.06484.46939.16415.93568.20036,1.407.10566,1.375.18421,2.75216.28427,4.12767.00849.11672.15081.23188.14183.34038-.1127,1.36106.10594,2.71048.11975,4.06389a7.04742,7.04742,0,0,1-.38886,2.11964,16.92431,16.92431,0,0,0-.46574,2.79763c-.06728.48991-.23368.96536-.32409,1.45313a29.49042,29.49042,0,0,1-.588,3.1912c-.30715,1.01328-.10078,2.06561-.42813,3.06812a4.67172,4.67172,0,0,0-.085,1.44488c.00712,1.04772.03,2.09552.06258,3.14281.04546,1.463.16649,2.92662.14266,4.38813a32.24742,32.24742,0,0,0,.41628,4.47261,23.69569,23.69569,0,0,0,.37678,2.93818c.381,1.5001.22344,3.05351.53831,4.538.3075,1.44978.21455,2.93541.5225,4.35952.23778,1.09959.17389,2.22275.42658,3.29437.24433,1.03616.18281,2.10381.427,3.11356.21577.89218.1655,1.80412.37036,2.67431a57.08566,57.08566,0,0,1,.9438,7.56717c.11525,1.17118.45444,2.32134.5529,3.49274a19.3763,19.3763,0,0,1,.229,1.9691c-.01146.681.10944,1.36318.13652,2.04627.01206.30434-.07976.61134-.09541.91861-.01812.35581.01966.71534-.01085,1.06946-.03334.387-.16556.76962-.16535,1.15409a1.99088,1.99088,0,0,1-.34128,1.02384,9.0442,9.0442,0,0,0-.55684,1.3759,3.42254,3.42254,0,0,1-.30324.93511,4.44207,4.44207,0,0,0-.60483,3.44771c.04184.42062.19644.82882.26352,1.24842a4.845,4.845,0,0,1-.35087,2.4843,5.21806,5.21806,0,0,0-.25733,3.10964,4.11081,4.11081,0,0,0,1.88121,2.44749c.18953.1218.39913.21543.57763.35084a2.3599,2.3599,0,0,0,1.73238.55533,7.09815,7.09815,0,0,0,2.14843-.50775,4.54358,4.54358,0,0,0,1.59613-1.3598,18.37992,18.37992,0,0,0,1.38821-2.30264,2.223,2.223,0,0,0,.33439-1.28175,14.07938,14.07938,0,0,0-.7665-3.58285,6.16329,6.16329,0,0,1,.05222-3.24172,2.47247,2.47247,0,0,0,.11664-.73946,17.45578,17.45578,0,0,0-.24235-2.84065c-.2028-.9-.28572-1.81947-.48445-2.72088-.21472-.97391-.7184-1.9828-.29923-3.04665a1.10594,1.10594,0,0,0-.02638-.4416,28.6192,28.6192,0,0,1,.16087-4.18294c.07756-1.18832.36628-2.3505.33845-3.554-.01843-.797.35419-1.612.28741-2.3965-.07987-.93811.21117-1.81417.199-2.73046a14.592,14.592,0,0,1,.19-2.01474c.14074-1.10786.25209-2.22305.469-3.31666.227-1.14427.29641-2.3074.56631-3.45217a27.42851,27.42851,0,0,0,.32236-3.45482c.09478-.916.2323-1.82822.37489-2.73837.21942-1.40051.529-2.78322.71354-4.19337.23354-1.785.6424-3.54652.94088-5.324.12546-.74716.13208-1.51379.24516-2.26367.21506-1.42611.3266-2.85573.40643-4.29687.06892-1.24425.25042-2.47741.26124-3.73608a15.23232,15.23232,0,0,1-.00663-2.07268,14.17074,14.17074,0,0,0-.15471-3.67641,25.03818,25.03818,0,0,0-.48043-2.50628,5.406,5.406,0,0,1-.10035-2.4356,7.50012,7.50012,0,0,0,.08186-1.79457,25.32008,25.32008,0,0,1-.04454-3.31711c.23329-1.868.6412-3.71472.99373-5.567a12.53448,12.53448,0,0,0,.48676-2.882,5.282,5.282,0,0,1,.246-1.21411c.39127-1.89585.77194-3.794,1.17317-5.68771.28034-1.32316.663-2.62922.86477-3.96334.27393-1.81133.715-3.58288,1.07408-5.37357a21.24581,21.24581,0,0,0,.1821-2.5451,10.0113,10.0113,0,0,1,.22682-2.09389c.20529-.68485-.0443-1.3496.13845-2.03353.202-.75583-.00232-1.58168.19278-2.366a2.00533,2.00533,0,0,0-.03913-.62037,7.98173,7.98173,0,0,1,.15241-2.37586,5.6725,5.6725,0,0,0-.07478-1.33012,1.09759,1.09759,0,0,1,.11758-.35706c.07805.12183.21422.23862.22529.36626.13118,1.51119.28958,3.02226.347,4.53695.049,1.292-.00456,2.58921-.05066,3.88278-.02294.64377-.12165,1.28571-.20273,1.92636-.10517.831-.252,1.65727-.336,2.49012-.15094,1.496-.58711,2.93729-.81705,4.4148-.21767,1.39859-.58332,2.76185-.85126,4.14723-.468,2.41978-.87443,4.85379-1.42863,7.25367-.34325,1.48644-.48154,3.00714-.87838,4.4803-.2437.90466-.485,1.81375-.64954,2.73475-.13336.74642-.12931,1.51631-.22436,2.271a15.879,15.879,0,0,0-.086,3.529,43.94808,43.94808,0,0,0,.38784,4.44035c.35754,1.77558.35256,3.56763.54593,5.34782a11.0245,11.0245,0,0,1-.04188,1.62911,9.18342,9.18342,0,0,1-.01564,1.638c-.18468.88052-.07323,1.81872-.19548,2.71775-.20791,1.52893-.13606,3.07738-.49235,4.60323-.29157,1.24857-.22961,2.5766-.4761,3.83981-.18679.95733-.30556,1.92072-.466,2.87943-.16521.98716-.31554,1.97693-.48932,2.96257-.18285,1.037-.40923,2.06686-.5722,3.1068-.12165.77628-.16606,1.56438-.25762,2.34573-.0584.49855-.1486.99333-.20951,1.49164-.11906.97407-.21778,1.9507-.34336,2.9239-.11061.8572-.24611,1.71116-.37108,2.5665-.10883.74487-.22915,1.48825-.32433,2.23485-.0888.69657-.146,1.39714-.22687,2.09479-.06112.52746-.174,1.05144-.19925,1.58a19.18,19.18,0,0,1-.29883,2.93742c-.10047.49337.035,1.0102-.05135,1.542a38.32128,38.32128,0,0,0-.532,4.67924,42.07063,42.07063,0,0,0,.17535,4.65284c.03774.514.376,1.00267.43488,1.51913a9.33019,9.33019,0,0,1-.09107,1.60764.77075.77075,0,0,0,.03582.24974,24.5961,24.5961,0,0,1,.76594,2.8353,4.43675,4.43675,0,0,1-.27392,1.71627,4.27753,4.27753,0,0,0,.08914,2.67446,13.88568,13.88568,0,0,1,.35973,1.94936,2.20241,2.20241,0,0,0,.3138.853,4.35113,4.35113,0,0,1,.82442,2.08862,8.88026,8.88026,0,0,1-.4412,4.11465,10.79739,10.79739,0,0,1-1.22612,2.36954,23.52959,23.52959,0,0,1-1.53466,1.83391c-.23407.2867-.40615.62327-.6314.91808-.89271,1.16842-2.61242,2.5768-4.55894,2.00647-1.61481.18874-2.70106-.82368-3.61693-1.85487a13.23513,13.23513,0,0,1-1.825-3.12629,10.55988,10.55988,0,0,1-.53893-2.03838,3.97836,3.97836,0,0,1-.24988-1.15628,10.91365,10.91365,0,0,1,.36905-2.38966,38.0176,38.0176,0,0,1,1.46116-4.02981,25.54173,25.54173,0,0,0,.67493-2.47028.57739.57739,0,0,0-.03541-.43688c-.45263-.68846-.13139-1.35967.03843-2.02037.25312-.9849.62717-1.944.80821-2.93984a2.13675,2.13675,0,0,1,.61954-.99354,1.5713,1.5713,0,0,0,.35166-.58559,15.02263,15.02263,0,0,0,.10672-4.07013,15.5203,15.5203,0,0,0-.3119-2.88816,26.2993,26.2993,0,0,1-.38386-3.03474,7.76592,7.76592,0,0,1-.27551-1.68973,10.478,10.478,0,0,0-.15944-1.6343,6.26473,6.26473,0,0,0-.166-1.76823c-.36106-.93464-.0778-1.96748-.54778-2.86229a.53731.53731,0,0,1-.01677-.1765c-.186-1.63152-.366-3.26375-.56083-4.89424a21.20469,21.20469,0,0,0-.48976-3.45855,10.0792,10.0792,0,0,1-.27805-2.44891c-.03416-.7407-.16579-1.4615-.21812-2.19392-.05934-.8307-.08772-1.66628-.20111-2.48985-.193-1.40209-.40059-2.79968-.51611-4.213a16.271,16.271,0,0,0-.47954-2.15156,1.68667,1.68667,0,0,1-.017-.41928,3.33356,3.33356,0,0,0,.0295-1.103,3.94485,3.94485,0,0,1-.16731-2.35264,1.57013,1.57013,0,0,0-.02719-.443c-.08475-1.84824-.27878-3.6998-.22476-5.54406a53.09692,53.09692,0,0,1,.66835-7.31959c.212-1.25094.558-2.47856.8012-3.725a21.2712,21.2712,0,0,1,.92023-3.60338,1.32379,1.32379,0,0,0-.01505-.5243c-.0321-.445-.06824-.88971-.10277-1.33455a7.31282,7.31282,0,0,1-.11661-2.03691c.14235-.64859-.44195-1.24354-.00594-1.84813-.23429-1.036.06058-2.14148-.41666-3.14881a1.41974,1.41974,0,0,1-.04152-.44169c-.25476-2.52118-.50466-5.04291-.77252-7.56272a1.86254,1.86254,0,0,0-.26943-.96291c-.29418-.34821-.01236-.632-.03921-.939-.027-.309-.39406-.51219-.14044-.94871.14566-.25065-.04584-.79-.23079-1.11724a2.962,2.962,0,0,1-.25582-1.34763,6.62205,6.62205,0,0,0-.4689-1.89086,2.27192,2.27192,0,0,1-.08839-.60266,9.91983,9.91983,0,0,0-.54532-2.86362,7.264,7.264,0,0,1-.19468-2.03212,2.97972,2.97972,0,0,0-.42938-1.72492.65714.65714,0,0,1-.08516-.3244C.857,42.05493.45128,39.38948.37366,36.71459.32333,34.98013.15471,33.25744.10635,31.52683c-.00852-.305.09094-.61185.096-.91861a6.32565,6.32565,0,0,0-.1009-1.81884,5.96227,5.96227,0,0,1,.1116-2.54251,3.20905,3.20905,0,0,0-.07372-1.06416,10.75185,10.75185,0,0,1,.18552-2.89216,24.85021,24.85021,0,0,0,.30705-2.68118,12.06,12.06,0,0,1,.45863-2.61355c.27855-1.2973.43112-2.62461.80538-3.90307.40921-1.39781.84637-2.7876,1.28458-4.17673a36.46063,36.46063,0,0,1,2.473-5.466.92416.92416,0,0,1,.82961-.53636,3.23161,3.23161,0,0,1,.41984.03883c-.01945.163.01679.36624-.06723.48269-.61153.84764-1.71494,3.33213-2.20733,4.24392-.27414.50769-.32885,1.05448-.56855,1.56195a19.233,19.233,0,0,0-.82932,2.67265c-.183.60491-.42514,1.19513-.56516,1.80918C2.3764,14.99,2.16122,16.274,1.871,17.54091a14.57749,14.57749,0,0,0-.33352,2.66851c-.0266.63937-.16025,1.27421-.24477,1.91127a8.449,8.449,0,0,0-.18115,1.49645,25.42449,25.42449,0,0,1-.21,4.35857.7121.7121,0,0,0,.02933.35341c.4448,1.0231.08288,2.05584.08647,3.08635a6.94129,6.94129,0,0,0,.30644,2.50584,2.85311,2.85311,0,0,1-.04087,1.611A4.29056,4.29056,0,0,0,1.287,37.34368a13.26389,13.26389,0,0,1,.1494,2.17395M6.1276,161.06881a6.98065,6.98065,0,0,0,1.34191,1.81079c.27889.19707.576.36859.85225.56906a2.25946,2.25946,0,0,0,1.73132.54187,2.30371,2.30371,0,0,1,.88337-.05513,1.0525,1.0525,0,0,0,.93253-.25362,8.16025,8.16025,0,0,0,.69648-.44188,8.76555,8.76555,0,0,0,.9872-.96148c.33487-.39448.602-.84569.924-1.25211.34709-.438.75952-.82742,1.08051-1.28241a8.76965,8.76965,0,0,0,1.67428-4.38784c.02977-.36519.07843-.72992.08356-1.09534.00144-.103-.12076-.20776-.18625-.31168-.05579.07907-.10935.15982-.16774.23691a19.82071,19.82071,0,0,1-2.28233,3.15621,5.44817,5.44817,0,0,1-1.51969,1.02663,4.45825,4.45825,0,0,1-1.33462.44526,4.48808,4.48808,0,0,1-2.30084-.10049,14.605,14.605,0,0,1-2.0717-1.30481,3.98472,3.98472,0,0,1-1.84776-4.08356,1.19114,1.19114,0,0,0-.07781-.413,1.80617,1.80617,0,0,0-.26458.37216c-.079.20348-.07527.44207-.16757.63693a6.83084,6.83084,0,0,0-.10434,4.64736A11.77425,11.77425,0,0,0,6.1276,161.06881ZM12.31935,1.75824c-1.50646.31458-3.06449.39322-4.6007.5712A1.7705,1.7705,0,0,0,7.3518,2.363a2.76212,2.76212,0,0,0-1.42324.759c-.18446.23686-.09138.56235.1983.57043a1.9786,1.9786,0,0,0,.66093-.18765,3.62738,3.62738,0,0,1,.63344-.2486c1.13436-.16473,2.27359-.29671,3.40914-.454.80061-.11087,1.60091-.13729,2.40738-.322,1.1357-.26011,2.3441-.17585,3.49629-.47975a3.04808,3.04808,0,0,1,1.28178-.089c.447.08238.81559-.16669,1.23431-.12186a9.02106,9.02106,0,0,0,1.22665.08045c.962-.02916,1.92015-.07427,2.88595-.07234,2.12793.00423,4.2573-.17664,6.386-.28327a3.064,3.064,0,0,1,.552-.037,26.88734,26.88734,0,0,0,4.57277-.05135A10.604,10.604,0,0,0,37.1714,1.086,13.53026,13.53026,0,0,1,38.78057,1.011c.33937-.05172.44559-.16031.34214-.43761a1.03419,1.03419,0,0,0-.329-.46862c-.38125-.27273-.76955.07573-1.1291.05572-1.5082-.084-2.91147.59574-4.46122.41628a30.48321,30.48321,0,0,0-4.35359.11037,23.72527,23.72527,0,0,1-2.61233.06256,32.11106,32.11106,0,0,0-3.89545.09169c-.738.03248-1.4787.0777-2.20991.17651a18.15074,18.15074,0,0,1-2.06053.097,8.30546,8.30546,0,0,0-2.61026.25609C14.35389,1.5076,13.33726,1.54568,12.31935,1.75824Zm-.5831,161.45315c-.05293.01008-.10586.02015-.11083.07126A.10624.10624,0,0,0,11.73625,163.21139Z"/></g></g></svg>