<svg xmlns="http://www.w3.org/2000/svg" viewBox="0 0 115.72 68.64"><defs><style>.cls-1{fill:#fff;}.cls-2{fill:#78ff2e;}.cls-3{fill:#00dc06;}.cls-4{fill:#05a200;}</style></defs><title>cartoon-bush-1</title><g id="Layer_2" data-name="Layer 2"><g id="cartoon-bush-1"><path id="void" class="cls-1" d="M108.94,42.7a8.14,8.14,0,0,0,1.37-.87.83.83,0,0,0,.25-1.11,2.74,2.74,0,0,1-.13-.55c0-.18-.06-.36-.08-.53a4.51,4.51,0,0,0,.53.08,3.51,3.51,0,0,0,2.43-1,1.65,1.65,0,0,0,.58-.71c.17-.56.71-1,.5-1.74,0-.13.15-.38.08-.47-.36-.46-.2-1.24-.89-1.53a.13.13,0,0,1,0-.09c.13-.15,0-.26-.09-.37a1.86,1.86,0,0,0-.29-.42c-.19-.24-.41-.45-.58-.7a1.39,1.39,0,0,1-.12-.41,1.3,1.3,0,0,0,.25.18c.14,0,.28,0,.41,0a4.68,4.68,0,0,1,.67.11,1.35,1.35,0,0,0,1.59-.86,7.38,7.38,0,0,1,.16-.94,1.35,1.35,0,0,0,.08-.9c-.06-.32.16-.64,0-.92s0-.76-.13-1.1c-.15-.57-.39-1.12-.58-1.67a1.62,1.62,0,0,0-.12-.43,5,5,0,0,0-2-2,16.16,16.16,0,0,0-2.5-1.15,5.75,5.75,0,0,0-2.66-.51c-.37,0-.74.11-1.12.15l-.13,0c0-.05,0-.11.08-.13s.07,0,.11,0a5.4,5.4,0,0,0,1.8-.84c.44-.35.84-.77,1.26-1.15a3.78,3.78,0,0,0,1.06-1.77,1.48,1.48,0,0,0,0-.93,2,2,0,0,0-.85-1.2,5.56,5.56,0,0,0-2.13-1,7,7,0,0,1-1.32-.29,12.18,12.18,0,0,0-1.28-.35,7.56,7.56,0,0,0-2.07,0,9.43,9.43,0,0,0-3.16,1,7.29,7.29,0,0,1-1.17.52c-.06,0-.14,0-.21-.05l.18-.09A5,5,0,0,0,100.52,14a1.75,1.75,0,0,0,.33-1.09A1.1,1.1,0,0,0,100,12c-.64-.14-1.29-.31-1.94-.47l-1-.24-1.21-.24c-.32-.06-.64-.11-1-.14-.63-.07-1.25.08-1.87,0,0,0-.08,0-.09.09s-.3.14-.48.15a.6.6,0,0,0-.25.1,6.84,6.84,0,0,1-1.92.84c-.06,0-.13,0-.2-.06a.61.61,0,0,1,.12-.16c.36-.35.93-.47,1.1-1,.05-.16.24-.25.32-.41.22-.36.41-.74.6-1.12a3.75,3.75,0,0,0,.46-1,1.59,1.59,0,0,0,0-1c-.23-.57-.47-1.12-1.13-1.3a10.37,10.37,0,0,0-1.63-.37A11.25,11.25,0,0,0,87,5.94c-.49.09-1,.08-1.5.13a3.89,3.89,0,0,0-1.89.62,4.3,4.3,0,0,0-1.15,1,6.84,6.84,0,0,1-1.11,1c-.21.17-.42.32-.63.5A5,5,0,0,0,79,11.79c0,.05-.09.08-.14.13a.57.57,0,0,1-.1-.13,1.92,1.92,0,0,1,0-.24,3.17,3.17,0,0,0-.7-1.89,2.2,2.2,0,0,0-1.67-1.1c-.08,0-.16-.09-.24-.15a2.27,2.27,0,0,0-.34-.19A2.12,2.12,0,0,0,74,8.34c-.7.4-1.43.78-2.11,1.23a7.91,7.91,0,0,0-1,.95,4.85,4.85,0,0,0-.75,1.31.17.17,0,0,1-.12.08.16.16,0,0,1-.1-.08A1.18,1.18,0,0,0,69,11c-.43-.11-.85-.25-1.29-.36a9.53,9.53,0,0,0-1.64-.33,4.1,4.1,0,0,0-1.33.24c-.53.15-1,.57-1.6.45a.16.16,0,0,0-.09,0c-.43.4-1.08.29-1.52.67-.06.06-.16.07-.24.11a2.46,2.46,0,0,1,.07-.29s.06-.06.08-.08a5.13,5.13,0,0,0,1.19-2.15.84.84,0,0,0-1-1.15,6.65,6.65,0,0,1-1,.1c-.16,0-.34-.05-.47,0a11,11,0,0,1-2.06.19,6.71,6.71,0,0,0-1.83.5,15.43,15.43,0,0,1-1.58.65c-.06,0-.14,0-.22-.06l.12-.09c.18-.18.47-.33.54-.54.22-.75.8-1.32.9-2.15a4.21,4.21,0,0,0,.2-1.9,6.18,6.18,0,0,1-.2-.93c-.07-.58-.61-.94-.68-1.5,0,0,0-.06-.07-.08A6.11,6.11,0,0,0,53.38.77,2,2,0,0,0,52.8.58C52.16.43,51.52.29,50.88.17A8.5,8.5,0,0,0,49.29,0a4.29,4.29,0,0,0-1.07.3,13.17,13.17,0,0,0-2.77,1.48c-.85.5-1.68,1.05-2.53,1.56a12.62,12.62,0,0,0-2.15,1.55c-.32.3-.61.63-.92.93-.05,0-.11.21-.2,0a.22.22,0,0,1,0-.21,4.68,4.68,0,0,0,.08-2.07c-.06-.48-.25-.95-.3-1.43a1.28,1.28,0,0,0-1-1.24A3.11,3.11,0,0,0,36.68,1c-.59.08-1.18.21-1.78.3s-1,.06-1.44.12a2.61,2.61,0,0,0-.76.21,18.12,18.12,0,0,0-1.78.84,6.22,6.22,0,0,0-2.73,3.38c-.16.51-.39,1-.58,1.49a1,1,0,0,0-.06.16s-.08-.1-.06-.15c.07-.39-.22-.63-.41-.91-.1-.12-.24-.2-.34-.33a5.26,5.26,0,0,0-2.31-1.86,9.08,9.08,0,0,1-1.62-.74,1.78,1.78,0,0,0-1-.28,1.21,1.21,0,0,1-.7-.11,1.34,1.34,0,0,0-.63,0c-.13,0-.25.07-.38.08q-.87.07-1.74.12a1.21,1.21,0,0,0-.2.09A4.71,4.71,0,0,0,15.94,4.8a8.29,8.29,0,0,0-1.09,1.28,11.65,11.65,0,0,0-.94,1.39,18.74,18.74,0,0,0-.62,1.78c-.08.2,0,.45-.14.66-.15.39,0,.78,0,1.15a2.76,2.76,0,0,0,.36,1.52c.28.53.52,1.07.77,1.6,0,.07,0,.16,0,.25s-.19-.07-.24-.13a1.74,1.74,0,0,0-1.34-.75,4.86,4.86,0,0,0-1.27-.18,7.77,7.77,0,0,0-1.78.46c-.51.18-1,.48-1.49.71s-1.22.54-1.83.79S5,16.17,4.23,16.54A10.37,10.37,0,0,0,1.5,18.61a5.65,5.65,0,0,0-1.47,3,1.59,1.59,0,0,0,0,.72A4.2,4.2,0,0,0,1.7,24.44a12.6,12.6,0,0,0,3.55,1.65,14.18,14.18,0,0,0,3.31.51,2.74,2.74,0,0,1,1,.1,1,1,0,0,0,.65,0,6.62,6.62,0,0,1,1.52-.21,7.4,7.4,0,0,0,1.69-.38,11.05,11.05,0,0,0,1.25-.47c.66-.27,1.33-.53,2-.84.48-.23.92-.53,1.4-.79a.46.46,0,0,1,.2,0c0,.05,0,.12,0,.16s-.26.25-.32.41a2.66,2.66,0,0,0,0,2.35l1,.7a3.12,3.12,0,0,0,1.27.38c.81,0,1.64,0,2.47-.09a2.56,2.56,0,0,0,.48,0c.62-.09,1.24-.08,1.86-.14.3,0,.58-.13.87-.19a.67.67,0,0,1,.2,0,.46.46,0,0,1,0,.2,4.44,4.44,0,0,0-.8,1.52,11.25,11.25,0,0,0-.57,2.57,2.94,2.94,0,0,0,.8,2,8.17,8.17,0,0,0,1.1,1.1,4.33,4.33,0,0,0,2.25,1,5.53,5.53,0,0,0,3-.48,11.19,11.19,0,0,0,2.28-1.3A8.5,8.5,0,0,0,36.21,32a14.2,14.2,0,0,0,1-2.61,5.85,5.85,0,0,1,.24-.86c.11-.19.13-.18.29-.08.32.2.7.34,1,.56a3.54,3.54,0,0,0,1.39.53,1.68,1.68,0,0,0,1.08-.11,3.67,3.67,0,0,0,1.19-.7,5.72,5.72,0,0,0,1.15-1.5c-.13-.41-.15-.77.27-.54a.11.11,0,0,0,0,.06,3.07,3.07,0,0,1-.24.48s0,.1.06.16a3,3,0,0,0,.88,2c.17.23.3.48.48.7s.43.42.62.65a2.33,2.33,0,0,0,1.25.73,2.81,2.81,0,0,0,1.92,0c.06,0,.17.11.24.1.94-.18,1.92-.34,2.85-.6a18.82,18.82,0,0,0,1.93-.81,1.14,1.14,0,0,1,.19-.1c.18,0,.48-.14.51-.1.14.23-.17.29-.25.45-.29.52-.62,1.05-.88,1.6A6.69,6.69,0,0,0,53,33.16a3.54,3.54,0,0,0-.18,1A8.17,8.17,0,0,0,53,36.44a3.12,3.12,0,0,0,1.69,2,12.38,12.38,0,0,0,2.83.94,6.61,6.61,0,0,0,3.58-.34,7.36,7.36,0,0,0,2.47-1.66,2.65,2.65,0,0,1,.29-.29,4,4,0,0,1,.37-.25c0,.13,0,.26-.06.4a5.87,5.87,0,0,0,.24,2,1.43,1.43,0,0,0,1,.82,4,4,0,0,0,2.19-.26.9.9,0,0,1,.16,0c0,.08.13.18.11.24a4.55,4.55,0,0,0-.08,2,3.36,3.36,0,0,0,1.35,2.18c.19.16.39.3.57.47a3.06,3.06,0,0,0,2.1.85,4.13,4.13,0,0,0,1.26-.1,2.93,2.93,0,0,0,1.74-1.28c0-.09.1-.25.17-.27s.29-.23.43.08A4.45,4.45,0,0,0,78,46.32c.4.12.78.31,1.18.47a7.39,7.39,0,0,0,3.26.31,6.6,6.6,0,0,0,1.94-.6,18.36,18.36,0,0,0,1.84-1.06,2.4,2.4,0,0,0,.59-.56,11,11,0,0,0,1.53-1.69,4.54,4.54,0,0,0,.83-1.62c0-.37.42-.64.36-1.06,0,0,.16-.07.18,0s.23.23.35.33a2.79,2.79,0,0,0,1.35.62,25.16,25.16,0,0,0,3.36.11A7,7,0,0,0,97.31,41a3.86,3.86,0,0,0,1.53-1.18c.26-.28.45-.61.68-.9a.24.24,0,0,1,.19-.1s.08.09.09.15A6.74,6.74,0,0,0,101,41.48c.07.09.2.18.2.27l.74.64,1.14.56,1.56.62,1.7-.09,1.76-.34ZM71.28,15.44c0-.1.09-.08.12-.06Zm34.66,6.87.08.05C106,22.38,105.94,22.34,105.94,22.31ZM69.76,14.08s.06.18.1.29A1.58,1.58,0,0,0,70,15c.15.16.2.24,0,.39s-.47.38-.7.59-.19.19-.3.27a.62.62,0,0,1-.19.07,1.11,1.11,0,0,1,.07-.16c.2-.52.39-1,.6-1.54,0-.11.08-.2.11-.31S69.56,14,69.76,14.08ZM62,8.4c-.06,0-.07,0-.07-.05Zm-24-7.34a1.31,1.31,0,0,1,.12.22c-.07,0-.17,0-.23,0s-.12-.12-.18-.19ZM28.13,8a.64.64,0,0,1,.06.18s0,.07,0,.11-.1-.08-.1-.15A.37.37,0,0,1,28.13,8ZM15.55,15.2c.06,0,.06,0,.08,0Zm.54-9.62a.56.56,0,0,1-.19-.07.33.33,0,0,1,.22,0S16.1,5.55,16.09,5.58ZM102.59,43a3.57,3.57,0,0,0,1.52.66s.09,0,.15.06c.46,0,.93.09,1.38.11a5.19,5.19,0,0,0,1.6-.33m-5.67-1c-.2.23-.42.41-.63.63a3.18,3.18,0,0,1-1.47.78c-.37.12-.65-.11-1-.12s-.54-.06-.81,0c-.09,0-.23.14-.26.25a.33.33,0,0,0,.18.44,5.14,5.14,0,0,0,1,.24.65.65,0,0,1,.47.2,2.69,2.69,0,0,0,.29.3,2.16,2.16,0,0,1,.58,2.51,4.16,4.16,0,0,1-1.46,1.89,6.51,6.51,0,0,1-1.27.81,5.77,5.77,0,0,1-1.15.39A3.4,3.4,0,0,1,93.32,50a7.87,7.87,0,0,1-1.08-.73c-.09-.08-.28-.17-.35-.12a1.34,1.34,0,0,0-.31.39.19.19,0,0,0,0,.18c.55.94.06,1.83-.16,2.72a5.21,5.21,0,0,1-2.36,3,3.23,3.23,0,0,1-1.73.58c-.38,0-.77.11-1.14.11a8.28,8.28,0,0,1-3.68-.64c-1-.45-2.06-1-3.07-1.5A9.18,9.18,0,0,1,76.91,52,5.25,5.25,0,0,1,75.69,50c-.08-.2-.35-.34-.53-.51a11.94,11.94,0,0,1-3,1.09A3.94,3.94,0,0,0,71,51a6.84,6.84,0,0,1-2.22.66,3.13,3.13,0,0,1-2.06-.15,1.78,1.78,0,0,0-.65-.16,5.33,5.33,0,0,1-2.19-1c-.4-.21-.71-.58-1.09-.83a4.29,4.29,0,0,1-1.67-2.59,11,11,0,0,0-.46-1.72c-.12-.21,0-.55,0-.83s0-.34-.18-.39a.45.45,0,0,0-.53.14,5.22,5.22,0,0,0-.69,1,3.17,3.17,0,0,1-.9,1.11l-1.18,1.17a3.25,3.25,0,0,1-2.44,1,3.51,3.51,0,0,1-1.35-.22,4.32,4.32,0,0,1-1-.61c-.87-.66-1.81-1.21-2.72-1.8-.44-.28-.88-.57-1.3-.88s-.62-.27-.78-.09a.6.6,0,0,0,.11.73,1.65,1.65,0,0,1,.54.9,3.69,3.69,0,0,1,.11.45,8.8,8.8,0,0,1-.45,2.67,23,23,0,0,1-1.1,2.94,4.15,4.15,0,0,1-1.62,1.75,1.11,1.11,0,0,1-.49.12c-.31,0-.64,0-1,0a1.18,1.18,0,0,1-.85-.26c-.22-.17-.54-.12-.76-.32s-.22-.18-.22-.36a1.49,1.49,0,0,0-.84-1.25,1.21,1.21,0,0,0-.8,0c-.15,0-.21.22-.12.43a3.13,3.13,0,0,0,.69.92c.26.21.24.36.06.67a6.79,6.79,0,0,1-2.48,2.22A26.83,26.83,0,0,1,35,57.83a2.75,2.75,0,0,1-1.07.14c-.38,0-.77.06-1.16,0s-.78-.19-1.15-.22a7.93,7.93,0,0,1-3.34-1.47,5.27,5.27,0,0,1-1.79-1.69,4,4,0,0,1-.39-1,8.75,8.75,0,0,1-.24-1.34c0-.27.1-.56.11-.85a4.28,4.28,0,0,0-.09-.61s0-.13,0-.16c.35-.28.43-.76.86-1a9.82,9.82,0,0,0,1.52-1.24c.15-.14.43-.28.22-.58s-.33-.41-.66-.19c-.09.07-.26,0-.4,0H25.16a4.9,4.9,0,0,1-1.85-.42,1.24,1.24,0,0,1-.55-2,3,3,0,0,1,1.46-1.46c.12,0,.29-.27.26-.35s-.22-.38-.48-.33a10.52,10.52,0,0,0-1.14.27,23.89,23.89,0,0,1-2.49.77,6.43,6.43,0,0,1-1.63,0l-.45,0a1.33,1.33,0,0,1-.93-.39,7.36,7.36,0,0,0-.62-.63.86.86,0,0,1-.25-.49,4.51,4.51,0,0,1,0-2.13,2,2,0,0,1,.58-1.06c.1-.14.13-.35.26-.48a11.65,11.65,0,0,1,1.16-1.17,21,21,0,0,0,1.62-1.51c.21-.21.41-.43.64-.63s.23-.27.14-.4a.64.64,0,0,0-.39-.3c-.93-.06-1.8-.31-2.73-.38a4.25,4.25,0,0,1-2-.77,2.18,2.18,0,0,1-.46-.58c-.05-.06-.05-.15-.1-.2-.68-.6-.47-1.28-.16-1.94a4.77,4.77,0,0,1,1.08-1.6,16.66,16.66,0,0,1,2.22-1.69.58.58,0,0,1,.63,0,3.12,3.12,0,0,0,1.27.38c.81,0,1.64,0,2.47-.09a2.56,2.56,0,0,0,.48,0c.62-.09,1.24-.08,1.86-.14.3,0,.58-.13.87-.19a.67.67,0,0,1,.2,0,.46.46,0,0,1,0,.2,4.44,4.44,0,0,0-.8,1.52,11.25,11.25,0,0,0-.57,2.57,2.94,2.94,0,0,0,.8,2,8.17,8.17,0,0,0,1.1,1.1,4.33,4.33,0,0,0,2.25,1,5.53,5.53,0,0,0,3-.48,11.19,11.19,0,0,0,2.28-1.3A8.5,8.5,0,0,0,36.21,32a14.2,14.2,0,0,0,1-2.61,5.85,5.85,0,0,1,.24-.86c.11-.19.13-.18.29-.08.32.2.7.34,1,.56a3.54,3.54,0,0,0,1.39.53,1.68,1.68,0,0,0,1.08-.11,3.67,3.67,0,0,0,1.19-.7,5.72,5.72,0,0,0,1.15-1.5s0,.1.06.16a3,3,0,0,0,.88,2c.17.23.3.48.48.7s.43.42.62.65a2.33,2.33,0,0,0,1.25.73,2.81,2.81,0,0,0,1.92,0c.06,0,.17.11.24.1.94-.18,1.92-.34,2.85-.6a18.82,18.82,0,0,0,1.93-.81,1.14,1.14,0,0,1,.19-.1c.18,0,.48-.14.51-.1.14.23-.17.29-.25.45-.29.52-.62,1.05-.88,1.6A6.69,6.69,0,0,0,53,33.16a3.54,3.54,0,0,0-.18,1A8.17,8.17,0,0,0,53,36.44a3.12,3.12,0,0,0,1.69,2,12.38,12.38,0,0,0,2.83.94,6.61,6.61,0,0,0,3.58-.34,7.36,7.36,0,0,0,2.47-1.66,2.65,2.65,0,0,1,.29-.29,4,4,0,0,1,.37-.25c0,.13,0,.26-.06.4a5.87,5.87,0,0,0,.24,2,1.43,1.43,0,0,0,1,.82,4,4,0,0,0,2.19-.26.9.9,0,0,1,.16,0c0,.08.13.18.11.24a4.55,4.55,0,0,0-.08,2,3.36,3.36,0,0,0,1.35,2.18c.19.16.39.3.57.47a3.06,3.06,0,0,0,2.1.85,4.13,4.13,0,0,0,1.26-.1,2.93,2.93,0,0,0,1.74-1.28c0-.09.1-.25.17-.27s.29-.23.43.08A4.45,4.45,0,0,0,78,46.32c.4.12.78.31,1.18.47a7.39,7.39,0,0,0,3.26.31,6.6,6.6,0,0,0,1.94-.6,18.36,18.36,0,0,0,1.84-1.06,2.4,2.4,0,0,0,.59-.56,11,11,0,0,0,1.53-1.69,4.54,4.54,0,0,0,.83-1.62c0-.37.42-.64.36-1.06,0,0,.16-.07.18,0s.23.23.35.33a2.79,2.79,0,0,0,1.35.62,25.16,25.16,0,0,0,3.36.11A7,7,0,0,0,97.31,41a3.86,3.86,0,0,0,1.53-1.18c.26-.28.45-.61.68-.9a.24.24,0,0,1,.19-.1s.08.09.09.15A6.74,6.74,0,0,0,101,41.48c.07.09.2.18.2.27C101.21,42.06,101.9,42,101.57,42.44Zm0,0c-.2.23-.42.41-.63.63a3.18,3.18,0,0,1-1.47.78c-.37.12-.65-.11-1-.12s-.54-.06-.81,0c-.09,0-.23.14-.26.25a.33.33,0,0,0,.18.44,5.14,5.14,0,0,0,1,.24.65.65,0,0,1,.47.2,2.69,2.69,0,0,0,.29.3,2.16,2.16,0,0,1,.58,2.51,4.16,4.16,0,0,1-1.46,1.89,6.51,6.51,0,0,1-1.27.81,5.77,5.77,0,0,1-1.15.39A3.4,3.4,0,0,1,93.32,50a7.87,7.87,0,0,1-1.08-.73c-.09-.08-.28-.17-.35-.12a1.34,1.34,0,0,0-.31.39.19.19,0,0,0,0,.18c.55.94.06,1.83-.16,2.72a5.21,5.21,0,0,1-2.36,3,3.23,3.23,0,0,1-1.73.58c-.38,0-.77.11-1.14.11a8.28,8.28,0,0,1-3.68-.64c-1-.45-2.06-1-3.07-1.5A9.18,9.18,0,0,1,76.91,52,5.25,5.25,0,0,1,75.69,50c-.08-.2-.35-.34-.53-.51a11.94,11.94,0,0,1-3,1.09A3.94,3.94,0,0,0,71,51a6.84,6.84,0,0,1-2.22.66,3.13,3.13,0,0,1-2.06-.15,1.78,1.78,0,0,0-.65-.16,5.33,5.33,0,0,1-2.19-1c-.4-.21-.71-.58-1.09-.83a4.29,4.29,0,0,1-1.67-2.59,11,11,0,0,0-.46-1.72c-.12-.21,0-.55,0-.83s0-.34-.18-.39a.45.45,0,0,0-.53.14,5.22,5.22,0,0,0-.69,1,3.17,3.17,0,0,1-.9,1.11l-1.18,1.17a3.25,3.25,0,0,1-2.44,1,3.51,3.51,0,0,1-1.35-.22,4.32,4.32,0,0,1-1-.61c-.87-.66-1.81-1.21-2.72-1.8-.44-.28-.88-.57-1.3-.88s-.62-.27-.78-.09a.6.6,0,0,0,.11.73,1.65,1.65,0,0,1,.54.9,3.69,3.69,0,0,1,.11.45,8.8,8.8,0,0,1-.45,2.67,23,23,0,0,1-1.1,2.94,4.15,4.15,0,0,1-1.62,1.75,1.11,1.11,0,0,1-.49.12c-.31,0-.64,0-1,0a1.18,1.18,0,0,1-.85-.26c-.22-.17-.54-.12-.76-.32s-.22-.18-.22-.36a1.49,1.49,0,0,0-.84-1.25,1.21,1.21,0,0,0-.8,0c-.15,0-.21.22-.12.43a3.13,3.13,0,0,0,.69.92c.26.21.24.36.06.67a6.79,6.79,0,0,1-2.48,2.22A26.83,26.83,0,0,1,35,57.83a2.75,2.75,0,0,1-1.07.14c-.38,0-.77.06-1.16,0s-.78-.19-1.15-.22a7.93,7.93,0,0,1-3.34-1.47,5.27,5.27,0,0,1-1.79-1.69,4,4,0,0,1-.39-1,8.75,8.75,0,0,1-.24-1.34c0-.27.1-.56.11-.85a4.28,4.28,0,0,0-.09-.61s0-.13,0-.16c.35-.28.43-.76.86-1a9.82,9.82,0,0,0,1.52-1.24c.15-.14.43-.28.22-.58s-.33-.41-.66-.19c-.09.07-.26,0-.4,0H25.16a4.9,4.9,0,0,1-1.85-.42,1.24,1.24,0,0,1-.55-2,3,3,0,0,1,1.46-1.46c.12,0,.29-.27.26-.35s-.22-.38-.48-.33a10.52,10.52,0,0,0-1.14.27,23.89,23.89,0,0,1-2.49.77,6.43,6.43,0,0,1-1.63,0l-.45,0a1.33,1.33,0,0,1-.93-.39,7.36,7.36,0,0,0-.62-.63.86.86,0,0,1-.25-.49,4.51,4.51,0,0,1,0-2.13,2,2,0,0,1,.58-1.06c.1-.14.13-.35.26-.48a11.65,11.65,0,0,1,1.16-1.17,21,21,0,0,0,1.62-1.51c.21-.21.41-.43.64-.63s.23-.27.14-.4a.64.64,0,0,0-.39-.3c-.93-.06-1.8-.31-2.73-.38a4.25,4.25,0,0,1-2-.77,2.18,2.18,0,0,1-.46-.58c-.05-.06-.05-.15-.1-.2L13.8,30.67a3,3,0,0,0-1.2-.23,5.06,5.06,0,0,0-1.48.3c-.95.35-1.89.72-2.81,1.14A9.8,9.8,0,0,0,5.67,33.7c-.72.66-1.38,1.4-2,2.12-.91,1-1.79,2-2.71,3.06A.71.71,0,0,0,1,39.94a3.08,3.08,0,0,0,.41.3,1.9,1.9,0,0,0,.93.33A6,6,0,0,0,4.87,40c.36-.14.68-.38,1-.54L9,38.1a.74.74,0,0,1,.21,0c0,.07,0,.17-.1.2-.85.57-1.83.9-2.64,1.55-.58.47-1.21.88-1.75,1.38A9.43,9.43,0,0,0,3.64,42.5,8.7,8.7,0,0,0,2.24,45,1.61,1.61,0,0,0,3,47.17a6,6,0,0,0,.84.43,6.55,6.55,0,0,0,2.61.6A11.14,11.14,0,0,0,9.34,48c.07,0,.16.05.24.09s-.08.1-.13.14-.3.16-.43.26c-.79.63-1.62,1.23-2.37,1.91S5.06,52,4.28,52.84a8,8,0,0,0-.66.87c-.58.81-1.14,1.63-1.69,2.45a.44.44,0,0,0,0,.4,2.14,2.14,0,0,0,1.33,1.09,9.37,9.37,0,0,1,1,.11,2.53,2.53,0,0,0,1.59-.11c.6-.12,1.19-.31,1.78-.48a18,18,0,0,0,2.85-1,16.72,16.72,0,0,0,3-2c.57-.43,1.11-.88,1.67-1.3.39-.29.77-.54,1.17-.81a.68.68,0,0,1,.23-.07.65.65,0,0,1,0,.28,13,13,0,0,1-.94,2.47,6,6,0,0,0-.61,2.79,4.9,4.9,0,0,0,.61,2.2,1.64,1.64,0,0,0,2.17.51,7.76,7.76,0,0,0,1.46-1.1c.69-.7,1.42-1.36,2.14-2a.18.18,0,0,0,.07-.08c0-.11-.09-.33.16-.28.05,0,.07.23.08.36a1.7,1.7,0,0,1,0,.22,2.24,2.24,0,0,0,0,1.12,4.14,4.14,0,0,0,.8,1.46,2.14,2.14,0,0,0,2.71.82,5.66,5.66,0,0,0,1.19-.73c.32-.25.62-.54.93-.8a.68.68,0,0,1,.2-.07c0,.07.06.15,0,.21s-.12.27-.09.37c.13.68.29,1.35.47,2a2.09,2.09,0,0,0,1.59,1.58c.4.1.82.16,1.2.26a15.19,15.19,0,0,0,2,.33,3.45,3.45,0,0,0,1.24,0,7.23,7.23,0,0,0,1.57-.52A27,27,0,0,0,37.92,62a17.64,17.64,0,0,0,1.8-1.43c.24-.2.44-.45.67-.66s.7-.62,1-.92c.06-.06.1-.13.15-.19s.19.14.21.24c.18.5.33,1,.5,1.52a8.46,8.46,0,0,0,2.11,3.84,15.15,15.15,0,0,0,1.52,1.2c.78.57,1.53,1.16,2.33,1.71a11.65,11.65,0,0,0,1.57,1,2.93,2.93,0,0,0,2.83-.07,4.08,4.08,0,0,0,1.93-2.3,5.57,5.57,0,0,0,.36-2.35.87.87,0,0,1,.05-.22.66.66,0,0,1,.2.06,4,4,0,0,0,.37.25,6.09,6.09,0,0,1,2.23,1.39c0,.05.15.05.21.1.39.26.88.38,1.29.61.74.42,1.57.64,2.3,1.07a1.23,1.23,0,0,0,.33.08c.41.11.84.17,1.24.32a4.38,4.38,0,0,0,1.43.28c.39,0,.77.19,1.15,0a.24.24,0,0,1,.12,0,2.72,2.72,0,0,0,1.32.11,4.29,4.29,0,0,0,1.12-.18c.6-.18,1.17-.44,1.76-.63a8.2,8.2,0,0,0,1.55-.89c.14-.07.31-.41.33-.41.34.2.23-.18.35-.25s.07-.1.12-.12c.55-.24.81-.77,1.14-1.2s.59-.91.94-1.34.3-.53-.06-.83a1.18,1.18,0,0,0-.39-.22c-.2,0-.09-.12,0-.17a.43.43,0,0,1,.2-.07l1.24-.06c.39,0,.78-.05,1.17-.06a9.25,9.25,0,0,0,2-.12c.52-.13,1-.23,1.52-.37s.47-.33.27-.67a.67.67,0,0,1-.07-.24c.09,0,.19-.05.27,0A3.61,3.61,0,0,0,82,60c.15,0,.34-.06.46,0,.57.33,1.15-.16,1.71.1.49-.25,1-.07,1.51-.1a10.86,10.86,0,0,1,1.15,0,10.17,10.17,0,0,0,1.33-.2c.44-.06.88,0,1.33-.11a5,5,0,0,0,2.2-.9c.26-.21.57-.45,1-.13a3,3,0,0,0,1,.3c.42.12.85.24,1.28.34a4.24,4.24,0,0,0,1,.22,9.6,9.6,0,0,0,1.52-.22c.51-.07,1-.13,1.52-.24a7.79,7.79,0,0,0,.94-.28c.61-.23,1.31-.3,1.73-.89.54-.09.77-.6,1.2-.85s.48-.81.78-1.17a2.94,2.94,0,0,0,.45-1.65,2.37,2.37,0,0,0-.28-.88c0-.07-.11-.1-.17-.16l.2-.08c.88,0,1.75-.12,2.64-.1a10.27,10.27,0,0,0,1.91-.3c.5-.09,1-.3,1.5-.4A4.74,4.74,0,0,0,112.13,51a1.11,1.11,0,0,0,.21-.56,2.89,2.89,0,0,0,0-.72,1.53,1.53,0,0,0-.22-.56c-.28-.39-.6-.75-.85-1.15a4.16,4.16,0,0,0-1.7-1.52,12.08,12.08,0,0,0-1.18-.47c-.54-.19-1.09-.35-1.63-.53a.35.35,0,0,1-.14-.13,1.11,1.11,0,0,1,.16-.11,2.35,2.35,0,0,0,.79-.21,3.26,3.26,0,0,1,.88-.51c.53-.21.16-.77-.16-1.26l-2.13.1L103.45,43ZM9.69,37.86s0,0,0,.07S9.65,37.86,9.69,37.86Zm.25,9.74a.45.45,0,0,0,.06.12C9.9,47.68,9.92,47.65,9.94,47.6ZM4.5,57.4l.07.05C4.51,57.47,4.5,57.43,4.5,57.4Zm38.31-2.88a.86.86,0,0,1,0-.23l.16.17Z"/><path id="fill4" class="cls-2" d="M108.94,42.7a8.14,8.14,0,0,0,1.37-.87.83.83,0,0,0,.25-1.11,2.74,2.74,0,0,1-.13-.55c0-.18-.06-.36-.08-.53a4.51,4.51,0,0,0,.53.08,3.51,3.51,0,0,0,2.43-1,1.65,1.65,0,0,0,.58-.71c.17-.56.71-1,.5-1.74,0-.13.15-.38.08-.47-.36-.46-.2-1.24-.89-1.53a.13.13,0,0,1,0-.09c.13-.15,0-.26-.09-.37a1.86,1.86,0,0,0-.29-.42c-.19-.24-.41-.45-.58-.7a1.39,1.39,0,0,1-.12-.41,1.3,1.3,0,0,0,.25.18c.14,0,.28,0,.41,0a4.68,4.68,0,0,1,.67.11,1.35,1.35,0,0,0,1.59-.86,7.38,7.38,0,0,1,.16-.94,1.35,1.35,0,0,0,.08-.9c-.06-.32.16-.64,0-.92s0-.76-.13-1.1c-.15-.57-.39-1.12-.58-1.67a1.62,1.62,0,0,0-.12-.43,5,5,0,0,0-2-2,16.16,16.16,0,0,0-2.5-1.15,5.75,5.75,0,0,0-2.66-.51c-.37,0-.74.11-1.12.15l-.13,0c0-.05,0-.11.08-.13s.07,0,.11,0a5.4,5.4,0,0,0,1.8-.84c.44-.35.84-.77,1.26-1.15a3.78,3.78,0,0,0,1.06-1.77,1.48,1.48,0,0,0,0-.93,2,2,0,0,0-.85-1.2,5.56,5.56,0,0,0-2.13-1,7,7,0,0,1-1.32-.29,12.18,12.18,0,0,0-1.28-.35,7.56,7.56,0,0,0-2.07,0,9.43,9.43,0,0,0-3.16,1,7.29,7.29,0,0,1-1.17.52c-.06,0-.14,0-.21-.05l.18-.09A5,5,0,0,0,100.52,14a1.75,1.75,0,0,0,.33-1.09A1.1,1.1,0,0,0,100,12c-.64-.14-1.29-.31-1.94-.47l-1-.24-1.21-.24c-.32-.06-.64-.11-1-.14-.63-.07-1.25.08-1.87,0,0,0-.08,0-.09.09s-.3.14-.48.15a.6.6,0,0,0-.25.1,6.84,6.84,0,0,1-1.92.84c-.06,0-.13,0-.2-.06a.61.61,0,0,1,.12-.16c.36-.35.93-.47,1.1-1,.05-.16.24-.25.32-.41.22-.36.41-.74.6-1.12a3.75,3.75,0,0,0,.46-1,1.59,1.59,0,0,0,0-1c-.23-.57-.47-1.12-1.13-1.3a10.37,10.37,0,0,0-1.63-.37A11.25,11.25,0,0,0,87,5.94c-.49.09-1,.08-1.5.13a3.89,3.89,0,0,0-1.89.62,4.3,4.3,0,0,0-1.15,1,6.84,6.84,0,0,1-1.11,1c-.21.17-.42.32-.63.5A5,5,0,0,0,79,11.79c0,.05-.09.08-.14.13a.57.57,0,0,1-.1-.13,1.92,1.92,0,0,1,0-.24,3.17,3.17,0,0,0-.7-1.89,2.2,2.2,0,0,0-1.67-1.1c-.08,0-.16-.09-.24-.15a2.27,2.27,0,0,0-.34-.19A2.12,2.12,0,0,0,74,8.34c-.7.4-1.43.78-2.11,1.23a7.91,7.91,0,0,0-1,.95,4.85,4.85,0,0,0-.75,1.31.17.17,0,0,1-.12.08.16.16,0,0,1-.1-.08A1.18,1.18,0,0,0,69,11c-.43-.11-.85-.25-1.29-.36a9.53,9.53,0,0,0-1.64-.33,4.1,4.1,0,0,0-1.33.24c-.53.15-1,.57-1.6.45a.16.16,0,0,0-.09,0c-.43.4-1.08.29-1.52.67-.06.06-.16.07-.24.11a2.46,2.46,0,0,1,.07-.29s.06-.06.08-.08a5.13,5.13,0,0,0,1.19-2.15.84.84,0,0,0-1-1.15,6.65,6.65,0,0,1-1,.1c-.16,0-.34-.05-.47,0a11,11,0,0,1-2.06.19,6.71,6.71,0,0,0-1.83.5,15.43,15.43,0,0,1-1.58.65c-.06,0-.14,0-.22-.06l.12-.09c.18-.18.47-.33.54-.54.22-.75.8-1.32.9-2.15a4.21,4.21,0,0,0,.2-1.9,6.18,6.18,0,0,1-.2-.93c-.07-.58-.61-.94-.68-1.5,0,0,0-.06-.07-.08A6.11,6.11,0,0,0,53.38.77,2,2,0,0,0,52.8.58C52.16.43,51.52.29,50.88.17A8.5,8.5,0,0,0,49.29,0a4.29,4.29,0,0,0-1.07.3,13.17,13.17,0,0,0-2.77,1.48c-.85.5-1.68,1.05-2.53,1.56a12.62,12.62,0,0,0-2.15,1.55c-.32.3-.61.63-.92.93-.05,0-.11.21-.2,0a.22.22,0,0,1,0-.21,4.68,4.68,0,0,0,.08-2.07c-.06-.48-.25-.95-.3-1.43a1.28,1.28,0,0,0-1-1.24A3.11,3.11,0,0,0,36.68,1c-.59.08-1.18.21-1.78.3s-1,.06-1.44.12a2.61,2.61,0,0,0-.76.21,18.12,18.12,0,0,0-1.78.84,6.22,6.22,0,0,0-2.73,3.38c-.16.51-.39,1-.58,1.49a1,1,0,0,0-.06.16s-.08-.1-.06-.15c.07-.39-.22-.63-.41-.91-.1-.12-.24-.2-.34-.33a5.26,5.26,0,0,0-2.31-1.86,9.08,9.08,0,0,1-1.62-.74,1.78,1.78,0,0,0-1-.28,1.21,1.21,0,0,1-.7-.11,1.34,1.34,0,0,0-.63,0c-.13,0-.25.07-.38.08q-.87.07-1.74.12a1.21,1.21,0,0,0-.2.09A4.71,4.71,0,0,0,15.94,4.8a8.29,8.29,0,0,0-1.09,1.28,11.65,11.65,0,0,0-.94,1.39,18.74,18.74,0,0,0-.62,1.78c-.08.2,0,.45-.14.66-.15.39,0,.78,0,1.15a2.76,2.76,0,0,0,.36,1.52c.28.53.52,1.07.77,1.6,0,.07,0,.16,0,.25s-.19-.07-.24-.13a1.74,1.74,0,0,0-1.34-.75,4.86,4.86,0,0,0-1.27-.18,7.77,7.77,0,0,0-1.78.46c-.51.18-1,.48-1.49.71s-1.22.54-1.83.79S5,16.17,4.23,16.54A10.37,10.37,0,0,0,1.5,18.61a5.65,5.65,0,0,0-1.47,3,1.59,1.59,0,0,0,0,.72A4.2,4.2,0,0,0,1.7,24.44a12.6,12.6,0,0,0,3.55,1.65,14.18,14.18,0,0,0,3.31.51,2.74,2.74,0,0,1,1,.1,1,1,0,0,0,.65,0,6.62,6.62,0,0,1,1.52-.21,7.4,7.4,0,0,0,1.69-.38,11.05,11.05,0,0,0,1.25-.47c.66-.27,1.33-.53,2-.84.48-.23.92-.53,1.4-.79a.46.46,0,0,1,.2,0c0,.05,0,.12,0,.16s-.26.25-.32.41a2.66,2.66,0,0,0,0,2.35l1,.7a3.12,3.12,0,0,0,1.27.38c.81,0,1.64,0,2.47-.09a2.56,2.56,0,0,0,.48,0c.62-.09,1.24-.08,1.86-.14.3,0,.58-.13.87-.19a.67.67,0,0,1,.2,0,.46.46,0,0,1,0,.2,4.44,4.44,0,0,0-.8,1.52,11.25,11.25,0,0,0-.57,2.57,2.94,2.94,0,0,0,.8,2,8.17,8.17,0,0,0,1.1,1.1,4.33,4.33,0,0,0,2.25,1,5.53,5.53,0,0,0,3-.48,11.19,11.19,0,0,0,2.28-1.3A8.5,8.5,0,0,0,36.21,32a14.2,14.2,0,0,0,1-2.61,5.85,5.85,0,0,1,.24-.86c.11-.19.13-.18.29-.08.32.2.7.34,1,.56a3.54,3.54,0,0,0,1.39.53,1.68,1.68,0,0,0,1.08-.11,3.67,3.67,0,0,0,1.19-.7,5.72,5.72,0,0,0,1.15-1.5c-.13-.41-.15-.77.27-.54a.11.11,0,0,0,0,.06,3.07,3.07,0,0,1-.24.48s0,.1.06.16a3,3,0,0,0,.88,2c.17.23.3.48.48.7s.43.42.62.65a2.33,2.33,0,0,0,1.25.73,2.81,2.81,0,0,0,1.92,0c.06,0,.17.11.24.1.94-.18,1.92-.34,2.85-.6a18.82,18.82,0,0,0,1.93-.81,1.14,1.14,0,0,1,.19-.1c.18,0,.48-.14.51-.1.14.23-.17.29-.25.45-.29.52-.62,1.05-.88,1.6A6.69,6.69,0,0,0,53,33.16a3.54,3.54,0,0,0-.18,1A8.17,8.17,0,0,0,53,36.44a3.12,3.12,0,0,0,1.69,2,12.38,12.38,0,0,0,2.83.94,6.61,6.61,0,0,0,3.58-.34,7.36,7.36,0,0,0,2.47-1.66,2.65,2.65,0,0,1,.29-.29,4,4,0,0,1,.37-.25c0,.13,0,.26-.06.4a5.87,5.87,0,0,0,.24,2,1.43,1.43,0,0,0,1,.82,4,4,0,0,0,2.19-.26.9.9,0,0,1,.16,0c0,.08.13.18.11.24a4.55,4.55,0,0,0-.08,2,3.36,3.36,0,0,0,1.35,2.18c.19.16.39.3.57.47a3.06,3.06,0,0,0,2.1.85,4.13,4.13,0,0,0,1.26-.1,2.93,2.93,0,0,0,1.74-1.28c0-.09.1-.25.17-.27s.29-.23.43.08A4.45,4.45,0,0,0,78,46.32c.4.12.78.31,1.18.47a7.39,7.39,0,0,0,3.26.31,6.6,6.6,0,0,0,1.94-.6,18.36,18.36,0,0,0,1.84-1.06,2.4,2.4,0,0,0,.59-.56,11,11,0,0,0,1.53-1.69,4.54,4.54,0,0,0,.83-1.62c0-.37.42-.64.36-1.06,0,0,.16-.07.18,0s.23.23.35.33a2.79,2.79,0,0,0,1.35.62,25.16,25.16,0,0,0,3.36.11A7,7,0,0,0,97.31,41a3.86,3.86,0,0,0,1.53-1.18c.26-.28.45-.61.68-.9a.24.24,0,0,1,.19-.1s.08.09.09.15A6.74,6.74,0,0,0,101,41.48c.07.09.2.18.2.27l.74.64,1.14.56,1.56.62,1.7-.09,1.76-.34ZM71.28,15.44c0-.1.09-.08.12-.06Zm34.66,6.87.08.05C106,22.38,105.94,22.34,105.94,22.31ZM69.76,14.08s.06.18.1.29A1.58,1.58,0,0,0,70,15c.15.16.2.24,0,.39s-.47.38-.7.59-.19.19-.3.27a.62.62,0,0,1-.19.07,1.11,1.11,0,0,1,.07-.16c.2-.52.39-1,.6-1.54,0-.11.08-.2.11-.31S69.56,14,69.76,14.08ZM62,8.4c-.06,0-.07,0-.07-.05Zm-24-7.34a1.31,1.31,0,0,1,.12.22c-.07,0-.17,0-.23,0s-.12-.12-.18-.19ZM28.13,8a.64.64,0,0,1,.06.18s0,.07,0,.11-.1-.08-.1-.15A.37.37,0,0,1,28.13,8ZM15.55,15.2c.06,0,.06,0,.08,0Zm.54-9.62a.56.56,0,0,1-.19-.07.33.33,0,0,1,.22,0S16.1,5.55,16.09,5.58ZM102.59,43a3.57,3.57,0,0,0,1.52.66s.09,0,.15.06c.46,0,.93.09,1.38.11a5.19,5.19,0,0,0,1.6-.33"/><path id="fill3" class="cls-3" d="M101.57,42.44c-.2.23-.42.41-.63.63a3.18,3.18,0,0,1-1.47.78c-.37.12-.65-.11-1-.12s-.54-.06-.81,0c-.09,0-.23.14-.26.25a.33.33,0,0,0,.18.44,5.14,5.14,0,0,0,1,.24.65.65,0,0,1,.47.2,2.69,2.69,0,0,0,.29.3,2.16,2.16,0,0,1,.58,2.51,4.16,4.16,0,0,1-1.46,1.89,6.51,6.51,0,0,1-1.27.81,5.77,5.77,0,0,1-1.15.39A3.4,3.4,0,0,1,93.32,50a7.87,7.87,0,0,1-1.08-.73c-.09-.08-.28-.17-.35-.12a1.34,1.34,0,0,0-.31.39.19.19,0,0,0,0,.18c.55.94.06,1.83-.16,2.72a5.21,5.21,0,0,1-2.36,3,3.23,3.23,0,0,1-1.73.58c-.38,0-.77.11-1.14.11a8.28,8.28,0,0,1-3.68-.64c-1-.45-2.06-1-3.07-1.5A9.18,9.18,0,0,1,76.91,52,5.25,5.25,0,0,1,75.69,50c-.08-.2-.35-.34-.53-.51a11.94,11.94,0,0,1-3,1.09A3.94,3.94,0,0,0,71,51a6.84,6.84,0,0,1-2.22.66,3.13,3.13,0,0,1-2.06-.15,1.78,1.78,0,0,0-.65-.16,5.33,5.33,0,0,1-2.19-1c-.4-.21-.71-.58-1.09-.83a4.29,4.29,0,0,1-1.67-2.59,11,11,0,0,0-.46-1.72c-.12-.21,0-.55,0-.83s0-.34-.18-.39a.45.45,0,0,0-.53.14,5.22,5.22,0,0,0-.69,1,3.17,3.17,0,0,1-.9,1.11l-1.18,1.17a3.25,3.25,0,0,1-2.44,1,3.51,3.51,0,0,1-1.35-.22,4.32,4.32,0,0,1-1-.61c-.87-.66-1.81-1.21-2.72-1.8-.44-.28-.88-.57-1.3-.88s-.62-.27-.78-.09a.6.6,0,0,0,.11.73,1.65,1.65,0,0,1,.54.9,3.69,3.69,0,0,1,.11.45,8.8,8.8,0,0,1-.45,2.67,23,23,0,0,1-1.1,2.94,4.15,4.15,0,0,1-1.62,1.75,1.11,1.11,0,0,1-.49.12c-.31,0-.64,0-1,0a1.18,1.18,0,0,1-.85-.26c-.22-.17-.54-.12-.76-.32s-.22-.18-.22-.36a1.49,1.49,0,0,0-.84-1.25,1.21,1.21,0,0,0-.8,0c-.15,0-.21.22-.12.43a3.13,3.13,0,0,0,.69.92c.26.21.24.36.06.67a6.79,6.79,0,0,1-2.48,2.22A26.83,26.83,0,0,1,35,57.83a2.75,2.75,0,0,1-1.07.14c-.38,0-.77.06-1.16,0s-.78-.19-1.15-.22a7.93,7.93,0,0,1-3.34-1.47,5.27,5.27,0,0,1-1.79-1.69,4,4,0,0,1-.39-1,8.75,8.75,0,0,1-.24-1.34c0-.27.1-.56.11-.85a4.28,4.28,0,0,0-.09-.61s0-.13,0-.16c.35-.28.43-.76.86-1a9.82,9.82,0,0,0,1.52-1.24c.15-.14.43-.28.22-.58s-.33-.41-.66-.19c-.09.07-.26,0-.4,0H25.16a4.9,4.9,0,0,1-1.85-.42,1.24,1.24,0,0,1-.55-2,3,3,0,0,1,1.46-1.46c.12,0,.29-.27.26-.35s-.22-.38-.48-.33a10.52,10.52,0,0,0-1.14.27,23.89,23.89,0,0,1-2.49.77,6.43,6.43,0,0,1-1.63,0l-.45,0a1.33,1.33,0,0,1-.93-.39,7.36,7.36,0,0,0-.62-.63.86.86,0,0,1-.25-.49,4.51,4.51,0,0,1,0-2.13,2,2,0,0,1,.58-1.06c.1-.14.13-.35.26-.48a11.65,11.65,0,0,1,1.16-1.17,21,21,0,0,0,1.62-1.51c.21-.21.41-.43.64-.63s.23-.27.14-.4a.64.64,0,0,0-.39-.3c-.93-.06-1.8-.31-2.73-.38a4.25,4.25,0,0,1-2-.77,2.18,2.18,0,0,1-.46-.58c-.05-.06-.05-.15-.1-.2-.68-.6-.47-1.28-.16-1.94a4.77,4.77,0,0,1,1.08-1.6,16.66,16.66,0,0,1,2.22-1.69.58.58,0,0,1,.63,0,3.12,3.12,0,0,0,1.27.38c.81,0,1.64,0,2.47-.09a2.56,2.56,0,0,0,.48,0c.62-.09,1.24-.08,1.86-.14.3,0,.58-.13.87-.19a.67.67,0,0,1,.2,0,.46.46,0,0,1,0,.2,4.44,4.44,0,0,0-.8,1.52,11.25,11.25,0,0,0-.57,2.57,2.94,2.94,0,0,0,.8,2,8.17,8.17,0,0,0,1.1,1.1,4.33,4.33,0,0,0,2.25,1,5.53,5.53,0,0,0,3-.48,11.19,11.19,0,0,0,2.28-1.3A8.5,8.5,0,0,0,36.21,32a14.2,14.2,0,0,0,1-2.61,5.85,5.85,0,0,1,.24-.86c.11-.19.13-.18.29-.08.32.2.7.34,1,.56a3.54,3.54,0,0,0,1.39.53,1.68,1.68,0,0,0,1.08-.11,3.67,3.67,0,0,0,1.19-.7,5.72,5.72,0,0,0,1.15-1.5s0,.1.06.16a3,3,0,0,0,.88,2c.17.23.3.48.48.7s.43.42.62.65a2.33,2.33,0,0,0,1.25.73,2.81,2.81,0,0,0,1.92,0c.06,0,.17.11.24.1.94-.18,1.92-.34,2.85-.6a18.82,18.82,0,0,0,1.93-.81,1.14,1.14,0,0,1,.19-.1c.18,0,.48-.14.51-.1.14.23-.17.29-.25.45-.29.52-.62,1.05-.88,1.6A6.69,6.69,0,0,0,53,33.16a3.54,3.54,0,0,0-.18,1A8.17,8.17,0,0,0,53,36.44a3.12,3.12,0,0,0,1.69,2,12.38,12.38,0,0,0,2.83.94,6.61,6.61,0,0,0,3.58-.34,7.36,7.36,0,0,0,2.47-1.66,2.65,2.65,0,0,1,.29-.29,4,4,0,0,1,.37-.25c0,.13,0,.26-.06.4a5.87,5.87,0,0,0,.24,2,1.43,1.43,0,0,0,1,.82,4,4,0,0,0,2.19-.26.9.9,0,0,1,.16,0c0,.08.13.18.11.24a4.55,4.55,0,0,0-.08,2,3.36,3.36,0,0,0,1.35,2.18c.19.16.39.3.57.47a3.06,3.06,0,0,0,2.1.85,4.13,4.13,0,0,0,1.26-.1,2.93,2.93,0,0,0,1.74-1.28c0-.09.1-.25.17-.27s.29-.23.43.08A4.45,4.45,0,0,0,78,46.32c.4.12.78.31,1.18.47a7.39,7.39,0,0,0,3.26.31,6.6,6.6,0,0,0,1.94-.6,18.36,18.36,0,0,0,1.84-1.06,2.4,2.4,0,0,0,.59-.56,11,11,0,0,0,1.53-1.69,4.54,4.54,0,0,0,.83-1.62c0-.37.42-.64.36-1.06,0,0,.16-.07.18,0s.23.23.35.33a2.79,2.79,0,0,0,1.35.62,25.16,25.16,0,0,0,3.36.11A7,7,0,0,0,97.31,41a3.86,3.86,0,0,0,1.53-1.18c.26-.28.45-.61.68-.9a.24.24,0,0,1,.19-.1s.08.09.09.15A6.74,6.74,0,0,0,101,41.48c.07.09.2.18.2.27C101.21,42.06,101.9,42,101.57,42.44Z"/><path id="fill2" class="cls-4" d="M101.57,42.44c-.2.23-.42.41-.63.63a3.18,3.18,0,0,1-1.47.78c-.37.12-.65-.11-1-.12s-.54-.06-.81,0c-.09,0-.23.14-.26.25a.33.33,0,0,0,.18.44,5.14,5.14,0,0,0,1,.24.65.65,0,0,1,.47.2,2.69,2.69,0,0,0,.29.3,2.16,2.16,0,0,1,.58,2.51,4.16,4.16,0,0,1-1.46,1.89,6.51,6.51,0,0,1-1.27.81,5.77,5.77,0,0,1-1.15.39A3.4,3.4,0,0,1,93.32,50a7.87,7.87,0,0,1-1.08-.73c-.09-.08-.28-.17-.35-.12a1.34,1.34,0,0,0-.31.39.19.19,0,0,0,0,.18c.55.94.06,1.83-.16,2.72a5.21,5.21,0,0,1-2.36,3,3.23,3.23,0,0,1-1.73.58c-.38,0-.77.11-1.14.11a8.28,8.28,0,0,1-3.68-.64c-1-.45-2.06-1-3.07-1.5A9.18,9.18,0,0,1,76.91,52,5.25,5.25,0,0,1,75.69,50c-.08-.2-.35-.34-.53-.51a11.94,11.94,0,0,1-3,1.09A3.94,3.94,0,0,0,71,51a6.84,6.84,0,0,1-2.22.66,3.13,3.13,0,0,1-2.06-.15,1.78,1.78,0,0,0-.65-.16,5.33,5.33,0,0,1-2.19-1c-.4-.21-.71-.58-1.09-.83a4.29,4.29,0,0,1-1.67-2.59,11,11,0,0,0-.46-1.72c-.12-.21,0-.55,0-.83s0-.34-.18-.39a.45.45,0,0,0-.53.14,5.22,5.22,0,0,0-.69,1,3.17,3.17,0,0,1-.9,1.11l-1.18,1.17a3.25,3.25,0,0,1-2.44,1,3.51,3.51,0,0,1-1.35-.22,4.32,4.32,0,0,1-1-.61c-.87-.66-1.81-1.21-2.72-1.8-.44-.28-.88-.57-1.3-.88s-.62-.27-.78-.09a.6.6,0,0,0,.11.73,1.65,1.65,0,0,1,.54.9,3.69,3.69,0,0,1,.11.45,8.8,8.8,0,0,1-.45,2.67,23,23,0,0,1-1.1,2.94,4.15,4.15,0,0,1-1.62,1.75,1.11,1.11,0,0,1-.49.12c-.31,0-.64,0-1,0a1.18,1.18,0,0,1-.85-.26c-.22-.17-.54-.12-.76-.32s-.22-.18-.22-.36a1.49,1.49,0,0,0-.84-1.25,1.21,1.21,0,0,0-.8,0c-.15,0-.21.22-.12.43a3.13,3.13,0,0,0,.69.92c.26.21.24.36.06.67a6.79,6.79,0,0,1-2.48,2.22A26.83,26.83,0,0,1,35,57.83a2.75,2.75,0,0,1-1.07.14c-.38,0-.77.06-1.16,0s-.78-.19-1.15-.22a7.93,7.93,0,0,1-3.34-1.47,5.27,5.27,0,0,1-1.79-1.69,4,4,0,0,1-.39-1,8.75,8.75,0,0,1-.24-1.34c0-.27.1-.56.11-.85a4.28,4.28,0,0,0-.09-.61s0-.13,0-.16c.35-.28.43-.76.86-1a9.82,9.82,0,0,0,1.52-1.24c.15-.14.43-.28.22-.58s-.33-.41-.66-.19c-.09.07-.26,0-.4,0H25.16a4.9,4.9,0,0,1-1.85-.42,1.24,1.24,0,0,1-.55-2,3,3,0,0,1,1.46-1.46c.12,0,.29-.27.26-.35s-.22-.38-.48-.33a10.52,10.52,0,0,0-1.14.27,23.89,23.89,0,0,1-2.49.77,6.43,6.43,0,0,1-1.63,0l-.45,0a1.33,1.33,0,0,1-.93-.39,7.36,7.36,0,0,0-.62-.63.86.86,0,0,1-.25-.49,4.51,4.51,0,0,1,0-2.13,2,2,0,0,1,.58-1.06c.1-.14.13-.35.26-.48a11.65,11.65,0,0,1,1.16-1.17,21,21,0,0,0,1.62-1.51c.21-.21.41-.43.64-.63s.23-.27.14-.4a.64.64,0,0,0-.39-.3c-.93-.06-1.8-.31-2.73-.38a4.25,4.25,0,0,1-2-.77,2.18,2.18,0,0,1-.46-.58c-.05-.06-.05-.15-.1-.2L13.8,30.67a3,3,0,0,0-1.2-.23,5.06,5.06,0,0,0-1.48.3c-.95.35-1.89.72-2.81,1.14A9.8,9.8,0,0,0,5.67,33.7c-.72.66-1.38,1.4-2,2.12-.91,1-1.79,2-2.71,3.06A.71.71,0,0,0,1,39.94a3.08,3.08,0,0,0,.41.3,1.9,1.9,0,0,0,.93.33A6,6,0,0,0,4.87,40c.36-.14.68-.38,1-.54L9,38.1a.74.74,0,0,1,.21,0c0,.07,0,.17-.1.2-.85.57-1.83.9-2.64,1.55-.58.47-1.21.88-1.75,1.38A9.43,9.43,0,0,0,3.64,42.5,8.7,8.7,0,0,0,2.24,45,1.61,1.61,0,0,0,3,47.17a6,6,0,0,0,.84.43,6.55,6.55,0,0,0,2.61.6A11.14,11.14,0,0,0,9.34,48c.07,0,.16.05.24.09s-.08.1-.13.14-.3.16-.43.26c-.79.63-1.62,1.23-2.37,1.91S5.06,52,4.28,52.84a8,8,0,0,0-.66.87c-.58.81-1.14,1.63-1.69,2.45a.44.44,0,0,0,0,.4,2.14,2.14,0,0,0,1.33,1.09,9.37,9.37,0,0,1,1,.11,2.53,2.53,0,0,0,1.59-.11c.6-.12,1.19-.31,1.78-.48a18,18,0,0,0,2.85-1,16.72,16.72,0,0,0,3-2c.57-.43,1.11-.88,1.67-1.3.39-.29.77-.54,1.17-.81a.68.68,0,0,1,.23-.07.65.65,0,0,1,0,.28,13,13,0,0,1-.94,2.47,6,6,0,0,0-.61,2.79,4.9,4.9,0,0,0,.61,2.2,1.64,1.64,0,0,0,2.17.51,7.76,7.76,0,0,0,1.46-1.1c.69-.7,1.42-1.36,2.14-2a.18.18,0,0,0,.07-.08c0-.11-.09-.33.16-.28.05,0,.07.23.08.36a1.7,1.7,0,0,1,0,.22,2.24,2.24,0,0,0,0,1.12,4.14,4.14,0,0,0,.8,1.46,2.14,2.14,0,0,0,2.71.82,5.66,5.66,0,0,0,1.19-.73c.32-.25.62-.54.93-.8a.68.68,0,0,1,.2-.07c0,.07.06.15,0,.21s-.12.27-.09.37c.13.68.29,1.35.47,2a2.09,2.09,0,0,0,1.59,1.58c.4.1.82.16,1.2.26a15.19,15.19,0,0,0,2,.33,3.45,3.45,0,0,0,1.24,0,7.23,7.23,0,0,0,1.57-.52A27,27,0,0,0,37.92,62a17.64,17.64,0,0,0,1.8-1.43c.24-.2.44-.45.67-.66s.7-.62,1-.92c.06-.06.1-.13.15-.19s.19.14.21.24c.18.5.33,1,.5,1.52a8.46,8.46,0,0,0,2.11,3.84,15.15,15.15,0,0,0,1.52,1.2c.78.57,1.53,1.16,2.33,1.71a11.65,11.65,0,0,0,1.57,1,2.93,2.93,0,0,0,2.83-.07,4.08,4.08,0,0,0,1.93-2.3,5.57,5.57,0,0,0,.36-2.35.87.87,0,0,1,.05-.22.66.66,0,0,1,.2.06,4,4,0,0,0,.37.25,6.09,6.09,0,0,1,2.23,1.39c0,.05.15.05.21.1.39.26.88.38,1.29.61.74.42,1.57.64,2.3,1.07a1.23,1.23,0,0,0,.33.08c.41.11.84.17,1.24.32a4.38,4.38,0,0,0,1.43.28c.39,0,.77.19,1.15,0a.24.24,0,0,1,.12,0,2.72,2.72,0,0,0,1.32.11,4.29,4.29,0,0,0,1.12-.18c.6-.18,1.17-.44,1.76-.63a8.2,8.2,0,0,0,1.55-.89c.14-.07.31-.41.33-.41.34.2.23-.18.35-.25s.07-.1.12-.12c.55-.24.81-.77,1.14-1.2s.59-.91.94-1.34.3-.53-.06-.83a1.18,1.18,0,0,0-.39-.22c-.2,0-.09-.12,0-.17a.43.43,0,0,1,.2-.07l1.24-.06c.39,0,.78-.05,1.17-.06a9.25,9.25,0,0,0,2-.12c.52-.13,1-.23,1.52-.37s.47-.33.27-.67a.67.67,0,0,1-.07-.24c.09,0,.19-.05.27,0A3.61,3.61,0,0,0,82,60c.15,0,.34-.06.46,0,.57.33,1.15-.16,1.71.1.49-.25,1-.07,1.51-.1a10.86,10.86,0,0,1,1.15,0,10.17,10.17,0,0,0,1.33-.2c.44-.06.88,0,1.33-.11a5,5,0,0,0,2.2-.9c.26-.21.57-.45,1-.13a3,3,0,0,0,1,.3c.42.12.85.24,1.28.34a4.24,4.24,0,0,0,1,.22,9.6,9.6,0,0,0,1.52-.22c.51-.07,1-.13,1.52-.24a7.79,7.79,0,0,0,.94-.28c.61-.23,1.31-.3,1.73-.89.54-.09.77-.6,1.2-.85s.48-.81.78-1.17a2.94,2.94,0,0,0,.45-1.65,2.37,2.37,0,0,0-.28-.88c0-.07-.11-.1-.17-.16l.2-.08c.88,0,1.75-.12,2.64-.1a10.27,10.27,0,0,0,1.91-.3c.5-.09,1-.3,1.5-.4A4.74,4.74,0,0,0,112.13,51a1.11,1.11,0,0,0,.21-.56,2.89,2.89,0,0,0,0-.72,1.53,1.53,0,0,0-.22-.56c-.28-.39-.6-.75-.85-1.15a4.16,4.16,0,0,0-1.7-1.52,12.08,12.08,0,0,0-1.18-.47c-.54-.19-1.09-.35-1.63-.53a.35.35,0,0,1-.14-.13,1.11,1.11,0,0,1,.16-.11,2.35,2.35,0,0,0,.79-.21,3.26,3.26,0,0,1,.88-.51c.53-.21.16-.77-.16-1.26l-2.13.1L103.45,43ZM9.69,37.86s0,0,0,.07S9.65,37.86,9.69,37.86Zm.25,9.74a.45.45,0,0,0,.06.12C9.9,47.68,9.92,47.65,9.94,47.6ZM4.5,57.4l.07.05C4.51,57.47,4.5,57.43,4.5,57.4Zm38.31-2.88a.86.86,0,0,1,0-.23l.16.17Z"/><path id="fill1" d="M12.71,13.56a1.72,1.72,0,0,1,1.35.74c0,.06.15.08.24.12a.93.93,0,0,0,0-.24c-.25-.54-.49-1.07-.76-1.59a2.8,2.8,0,0,1-.37-1.53c0-.38-.15-.76,0-1.15.09-.21.06-.45.14-.67.2-.59.36-1.19.62-1.77a10.57,10.57,0,0,1,.94-1.39,7.84,7.84,0,0,1,1.09-1.29,4.87,4.87,0,0,1,2.21-1.38.6.6,0,0,1,.21-.08L20.1,3.2c.13,0,.25-.08.38-.09a1.47,1.47,0,0,1,.63,0,1.2,1.2,0,0,0,.7.11,1.76,1.76,0,0,1,1,.28,10.14,10.14,0,0,0,1.61.74A5.43,5.43,0,0,1,26.75,6.1c.09.13.24.22.33.35s.47.51.41.9c0,.05,0,.1.06.15a1,1,0,0,1,.05-.16c.2-.49.42-1,.59-1.48a6.21,6.21,0,0,1,2.72-3.38,14.79,14.79,0,0,1,1.8-.85,2.69,2.69,0,0,1,.75-.21c.47-.06,1-.06,1.44-.13s1.18-.21,1.78-.3A3.2,3.2,0,0,1,38.47.93a1.24,1.24,0,0,1,1,1.23c0,.48.24.94.3,1.42a4.87,4.87,0,0,1-.08,2.08.31.31,0,0,0,0,.21c.1.16.16,0,.21-.06.31-.3.6-.62.92-.91a13.39,13.39,0,0,1,2.16-1.57c.84-.5,1.67-1.05,2.52-1.55A12.57,12.57,0,0,1,48.23.3,4.55,4.55,0,0,1,49.29,0a8.59,8.59,0,0,1,1.59.17c.64.11,1.28.27,1.92.41a2.79,2.79,0,0,1,.58.18,6.36,6.36,0,0,1,1.91,1.55s.08.06.08.09c.07.57.61.92.68,1.5a5.93,5.93,0,0,0,.2.93,4.21,4.21,0,0,1-.2,1.9c-.11.83-.68,1.4-.9,2.14-.06.22-.35.36-.54.54l-.11.1c.07,0,.15.08.21.06.53-.2,1.07-.39,1.58-.64a6.08,6.08,0,0,1,1.83-.51,10.19,10.19,0,0,0,2.06-.19c.13-.06.31,0,.47,0a5.41,5.41,0,0,0,1-.1.84.84,0,0,1,1,1.16,5.15,5.15,0,0,1-1.18,2.13s-.07.05-.09.09a2.46,2.46,0,0,0-.07.29c.08,0,.18,0,.24-.11.43-.38,1.08-.28,1.51-.67,0,0,.07,0,.1,0,.61.11,1.07-.3,1.6-.46a4.44,4.44,0,0,1,1.33-.24,9.37,9.37,0,0,1,1.64.34c.43.1.85.24,1.28.35a1.19,1.19,0,0,1,1,.86.14.14,0,0,0,.11.09.18.18,0,0,0,.12-.09,4.92,4.92,0,0,1,.74-1.3,7.89,7.89,0,0,1,1-.95c.68-.45,1.41-.82,2.11-1.23a2.15,2.15,0,0,1,1.82-.12,1.41,1.41,0,0,1,.34.19c.08.05.16.16.23.16a2.13,2.13,0,0,1,1.67,1.09,3.12,3.12,0,0,1,.71,1.9.89.89,0,0,0,0,.23.35.35,0,0,0,.08.13s.14-.08.15-.13a5,5,0,0,1,1.7-2.58c.2-.18.42-.33.62-.51a6.38,6.38,0,0,0,1.11-1,4.15,4.15,0,0,1,1.15-1,3.82,3.82,0,0,1,1.89-.62A14.92,14.92,0,0,0,87,5.94a10.42,10.42,0,0,1,2.89-.21,8.5,8.5,0,0,1,1.63.36c.66.18.89.73,1.13,1.3a1.77,1.77,0,0,1,0,1,4.13,4.13,0,0,1-.47,1c-.19.38-.38.76-.59,1.13-.09.14-.28.25-.33.4-.17.57-.74.68-1.11,1,0,0-.07.11-.11.16s.14.07.2.06a6.56,6.56,0,0,0,1.92-.84.48.48,0,0,1,.25-.09c.18,0,.37,0,.48-.17,0,0,0-.08.08-.07.63,0,1.25-.1,1.88,0l1,.14,1.21.24,1,.24L100,12a1.05,1.05,0,0,1,.85.87,1.73,1.73,0,0,1-.31,1.09,5,5,0,0,1-1.84,1.84l-.18.09c.07,0,.16.06.22,0a7,7,0,0,0,1.16-.51,5.38,5.38,0,0,1,1.69-.67,4.87,4.87,0,0,1,1.47-.3,7.89,7.89,0,0,1,2.06,0,12.35,12.35,0,0,1,1.29.35,7.21,7.21,0,0,0,1.32.29,5.63,5.63,0,0,1,2.13,1,2,2,0,0,1,.85,1.19,1.51,1.51,0,0,1,0,.94,3.77,3.77,0,0,1-1.07,1.77c-.42.38-.81.8-1.25,1.15a5.21,5.21,0,0,1-1.8.84s-.09,0-.11,0a.43.43,0,0,0-.09.13.36.36,0,0,0,.14,0l1.13-.16a5.62,5.62,0,0,1,2.65.53,14.89,14.89,0,0,1,2.51,1.14,5.06,5.06,0,0,1,2,2,2.92,2.92,0,0,1,.13.42c.19.56.42,1.11.56,1.68.09.35-.06.73.14,1.1s-.08.6,0,.92a1.48,1.48,0,0,1-.07.9,9.19,9.19,0,0,0-.18.94,1.33,1.33,0,0,1-1.58.86,4.93,4.93,0,0,0-.67-.11,2.83,2.83,0,0,1-.41,0c-.09,0-.17-.12-.25-.18a1.25,1.25,0,0,0,.12.4c.17.25.39.48.58.72a1.91,1.91,0,0,1,.29.41c0,.12.23.21.09.38a.08.08,0,0,0,0,.08c.67.29.52,1.06.88,1.54.07.08-.13.33-.09.47.23.69-.31,1.16-.49,1.73a1.65,1.65,0,0,1-.58.71,3.57,3.57,0,0,1-2.43,1,3.09,3.09,0,0,1-.53-.09c0,.18.05.36.08.54a3.27,3.27,0,0,0,.13.54.83.83,0,0,1-.25,1.12,8.56,8.56,0,0,1-1.37.87c-.47.28-.54.5-.26.94s.3.64-.23.85a3.16,3.16,0,0,0-.87.51,2.19,2.19,0,0,1-.8.22.82.82,0,0,0-.17.11s.09.1.15.12c.54.18,1.09.34,1.63.53a10,10,0,0,1,1.18.47,4.16,4.16,0,0,1,1.7,1.52c.25.4.58.76.85,1.15a1.41,1.41,0,0,1,.21.56,2.12,2.12,0,0,1,0,.71,1,1,0,0,1-.2.57,4.8,4.8,0,0,1-2.26,1.33c-.49.09-1,.31-1.49.39a9.51,9.51,0,0,1-1.91.31c-.88,0-1.76.06-2.64.11a.53.53,0,0,0-.2.07c.05,0,.14.1.16.16a2.22,2.22,0,0,1,.29.88,2.86,2.86,0,0,1-.45,1.65c-.3.37-.33.91-.78,1.17s-.66.77-1.2.85c-.42.59-1.11.65-1.72.88a5.46,5.46,0,0,1-1,.29c-.5.11-1,.17-1.51.25a13.53,13.53,0,0,1-1.52.21,4.19,4.19,0,0,1-1-.21c-.43-.11-.86-.24-1.29-.36a2.73,2.73,0,0,1-.94-.29c-.42-.32-.73-.07-1,.13a4.79,4.79,0,0,1-2.2.9c-.45.08-.89,0-1.33.1a7.82,7.82,0,0,1-1.33.21,11.23,11.23,0,0,0-1.16,0c-.5,0-1-.14-1.5.12-.55-.27-1.15.22-1.71-.11-.11-.07-.31,0-.47,0a3.44,3.44,0,0,1-1.34-.23.69.69,0,0,0-.28,0,1,1,0,0,0,.08.24c.21.34.14.56-.26.68s-1,.23-1.52.36a9.32,9.32,0,0,1-2,.12c-.4,0-.79,0-1.19.07l-1.23,0a.44.44,0,0,0-.2.08c-.07.05-.19.11,0,.16a1.11,1.11,0,0,1,.38.22c.37.3.35.48.06.83s-.6.91-.93,1.34-.59,1-1.13,1.19c0,0-.08.1-.13.13s0,.46-.35.26c0,0-.18.32-.33.4a8.16,8.16,0,0,1-1.55.88c-.59.19-1.16.46-1.76.64a4.22,4.22,0,0,1-1.11.18,2.73,2.73,0,0,1-1.33-.1.13.13,0,0,0-.12,0c-.38.18-.77,0-1.15,0a3.73,3.73,0,0,1-1.43-.29,12.65,12.65,0,0,0-1.25-.3,1.5,1.5,0,0,1-.32-.09c-.73-.43-1.56-.65-2.3-1.07-.41-.23-.9-.34-1.3-.61-.06,0-.16,0-.2-.09a6,6,0,0,0-2.23-1.4c-.13-.06-.24-.17-.37-.24a.8.8,0,0,0-.2-.07.54.54,0,0,0-.05.21,5.57,5.57,0,0,1-.36,2.36,4.15,4.15,0,0,1-1.93,2.3,2.94,2.94,0,0,1-2.83.07,12,12,0,0,1-1.57-1c-.79-.56-1.56-1.15-2.33-1.73a14.89,14.89,0,0,1-1.53-1.19A10.43,10.43,0,0,1,43.29,63a9.19,9.19,0,0,1-1-2.39c-.17-.5-.31-1-.48-1.53,0-.09-.14-.16-.22-.24a1,1,0,0,1-.15.19c-.34.31-.69.61-1,.93s-.44.46-.68.66A16.27,16.27,0,0,1,37.92,62a20.29,20.29,0,0,1-2.45,1.27,7.26,7.26,0,0,1-1.57.53,3.5,3.5,0,0,1-1.25,0,17.79,17.79,0,0,1-2-.31c-.38-.12-.8-.17-1.2-.27a2.06,2.06,0,0,1-1.59-1.58c-.19-.66-.34-1.33-.48-2,0-.11.09-.24.11-.37a.58.58,0,0,0-.05-.21.59.59,0,0,0-.2.07c-.31.26-.6.55-.93.8a6.46,6.46,0,0,1-1.18.73,2.13,2.13,0,0,1-2.71-.83,3.69,3.69,0,0,1-.81-1.45,2.54,2.54,0,0,1,0-1.13.54.54,0,0,0,.05-.21c0-.13,0-.35-.08-.36-.25,0-.12.17-.16.28s-.05.06-.07.08c-.72.68-1.45,1.34-2.14,2a7.76,7.76,0,0,1-1.46,1.1,1.63,1.63,0,0,1-2.17-.51,4.77,4.77,0,0,1-.61-2.19,6,6,0,0,1,.62-2.8,13.62,13.62,0,0,0,.93-2.47.88.88,0,0,0,0-.28.84.84,0,0,0-.24.07c-.4.26-.79.52-1.16.81-.57.42-1.11.87-1.67,1.3a17,17,0,0,1-3,2,18.1,18.1,0,0,1-2.86,1c-.59.17-1.17.36-1.77.48a2.54,2.54,0,0,1-1.59.11,9.26,9.26,0,0,0-1-.11,2.12,2.12,0,0,1-1.32-1.09.42.42,0,0,1,0-.39c.55-.83,1.11-1.65,1.69-2.47a7.73,7.73,0,0,1,.66-.85c.78-.84,1.54-1.7,2.37-2.48S8.23,49.09,9,48.46c.13-.1.29-.17.43-.26a.86.86,0,0,0,.13-.14C9.5,48,9.41,48,9.35,48a10.4,10.4,0,0,1-2.89.23,6.43,6.43,0,0,1-2.62-.6A6.52,6.52,0,0,1,3,47.17,1.59,1.59,0,0,1,2.24,45,8.42,8.42,0,0,1,3.65,42.5a8.68,8.68,0,0,1,1.06-1.28c.54-.5,1.17-.91,1.75-1.38.8-.64,1.79-1,2.64-1.55a.54.54,0,0,0,.1-.2,1.27,1.27,0,0,0-.2,0c-1,.44-2.07.86-3.1,1.31-.35.16-.67.4-1,.54a6,6,0,0,1-2.49.62,1.9,1.9,0,0,1-.94-.33L1,39.94a.7.7,0,0,1-.08-1.06c.9-1,1.79-2.05,2.7-3.05.66-.73,1.31-1.47,2-2.13a10,10,0,0,1,2.64-1.82c.92-.42,1.86-.79,2.81-1.14a5,5,0,0,1,1.48-.3,3.21,3.21,0,0,1,1.21.23c.48.16.55.17.78-.24a5.3,5.3,0,0,1,1.63-1.83c.56-.38,1.06-.87,1.64-1.24.24-.16.22-.23.12-.43a2.61,2.61,0,0,1,0-2.34c.06-.16.22-.27.32-.41s0-.11,0-.16-.15,0-.2,0c-.47.26-.92.56-1.4.79-.65.31-1.32.57-2,.84a11.66,11.66,0,0,1-1.24.47,7.61,7.61,0,0,1-1.7.38,7.13,7.13,0,0,0-1.52.21,1,1,0,0,1-.64,0,2.8,2.8,0,0,0-1-.1,14.73,14.73,0,0,1-3.32-.51,12.42,12.42,0,0,1-3.54-1.65A4.11,4.11,0,0,1,.05,22.36a1.54,1.54,0,0,1,0-.71,5.57,5.57,0,0,1,1.46-3,10.2,10.2,0,0,1,2.73-2.08,23.22,23.22,0,0,1,2.12-1.21c.61-.25,1.22-.51,1.82-.79s1-.53,1.49-.72a8.3,8.3,0,0,1,1.78-.45,4.17,4.17,0,0,1,1.27.19m3.14-8.09a3.09,3.09,0,0,1-.22.69c-.22.35-.52.65-.75,1s-.6.59-.55,1.1c0,.15-.22.33-.34.5S13.88,9,13.9,9c.2.15,0,.26,0,.39a2.07,2.07,0,0,0-.12.49,5.52,5.52,0,0,0,.32,2.31,7,7,0,0,0,1.65,2.72.52.52,0,0,1,.16.4c0,.09-.24.16-.38.18-.45.07-.78-.24-1.13-.42s-.63-.4-1-.59A4.75,4.75,0,0,0,11.74,14a4.36,4.36,0,0,0-1.79.3c-1,.29-1.95.94-3,1.32a8.27,8.27,0,0,0-1.64,1,21.82,21.82,0,0,0-2.6,1.79A6.68,6.68,0,0,0,1.18,20a5.21,5.21,0,0,0-.54,1.63,2.4,2.4,0,0,0,.8,1.93A5.47,5.47,0,0,0,3.37,24.8,13.07,13.07,0,0,0,7.53,26a17.32,17.32,0,0,0,2.39.12c.7,0,1.4-.06,2.1-.11a3.42,3.42,0,0,0,.77-.17c.65-.24,1.3-.5,2-.75a14.08,14.08,0,0,0,2.17-1,12.21,12.21,0,0,0,1.1-.65c.3-.22.52-.55.81-.78s.67-.22.92-.54.36.05.51.16,0,.24-.08.32a7.6,7.6,0,0,0-.92,1,3.07,3.07,0,0,0-.72,2.53l.32.55.64.51.28-.05a.45.45,0,0,1,.23,0,6.53,6.53,0,0,0,1.64.21,5,5,0,0,0,1.26-.1c.56,0,1.12-.06,1.68-.12.31,0,.61-.17.92-.22.58-.1,1.17-.17,1.75-.25.25,0,.33.17.46.31s-.12.21-.2.31a.6.6,0,0,1-.21.21c-.57.22-.71.83-1.08,1.22a1.42,1.42,0,0,0-.39.78c0,.76-.31,1.47-.27,2.23A3.34,3.34,0,0,0,26.63,34c.13.13.32.21.45.34a3.38,3.38,0,0,0,2.66,1.05,6,6,0,0,0,.61-.11,4.42,4.42,0,0,0,1.74-.53,9.62,9.62,0,0,0,1.73-1.05A6.94,6.94,0,0,0,35.9,31a13.67,13.67,0,0,0,.6-1.66,4.09,4.09,0,0,0,.17-1.74c-.05-.26.13-.33.32-.46s.34.06.5.1.13.27.23.29c.29.07.43.3.63.48a3.2,3.2,0,0,0,.74.37,7.76,7.76,0,0,0,1.12.46,1.67,1.67,0,0,0,.79-.08,3.84,3.84,0,0,0,2.34-2.38,4.29,4.29,0,0,0,.41-1.4,5.21,5.21,0,0,0,.11-1.77,4,4,0,0,0-.8-1.76c-.23-.29-.39-.64-.6-.94s0-.36.13-.5a.37.37,0,0,1,.52,0,.93.93,0,0,1,.35.39c.08.2.2.23.39.27.68.16,1.35.4,2,.54s1.21.49,1.86.17l1.25-.6a.2.2,0,0,0,.08-.13c.13-.48.47-.91.38-1.46,0-.14.13-.3.17-.46.09-.34.37-.23.56-.21s.23.24.21.43-.08.64-.15.95-.23.42-.18.56.32.31.51.43a5.45,5.45,0,0,0,.55.25l.55.26a13.39,13.39,0,0,0,1.56.68,3,3,0,0,0,2.89-1.16,2.82,2.82,0,0,1,.59-.65.58.58,0,0,1,.51,0c.18.11.09.28,0,.44a2.56,2.56,0,0,0-.62,1.48c0,.12,0,.43-.25.49,0,0-.09.16-.08.25.07.69.13,1.38.24,2.06A2.25,2.25,0,0,0,58,26.79a4.65,4.65,0,0,0,1.44.27A8.89,8.89,0,0,0,61,27a3.68,3.68,0,0,0,1.38-.39c.43-.3.89-.55,1.33-.83a6.42,6.42,0,0,0,1-.84c.44-.42.88-.85,1.3-1.3.58-.62.54-.93-.16-1.42a.41.41,0,0,1-.13-.53c.1-.2.32-.42.57-.28a2.91,2.91,0,0,0,1.09.1,9,9,0,0,0,1.15.12c2.13,0,4.25,0,6.38,0a2.74,2.74,0,0,0,1.35-.21,3.52,3.52,0,0,1,.89-.15,3.21,3.21,0,0,0,.75-.21c.53-.26,1-.55,1.56-.84a11.1,11.1,0,0,0,1.18-.74,9.1,9.1,0,0,0,1.68-1.28.88.88,0,0,0,0-1.35,5.1,5.1,0,0,0-1.13-.89,5.41,5.41,0,0,0-3.1-1,3.29,3.29,0,0,1-1,0c-.18-.05-.43.14-.6.09a9.73,9.73,0,0,0-2.22-.11c-.14,0-.31,0-.4,0s-.21,0-.34,0c-.36.15-.78.42-1.09.33s-.53.16-.75.33a2,2,0,0,0-.25.25.41.41,0,0,1-.57.13.41.41,0,0,0-.64.15c-.23.47-.68.61-1.09.83-.11.06-.22.14-.33.21a3.62,3.62,0,0,1-.6.28c-.37.12-.53,0-.46-.35a3.74,3.74,0,0,1,.34-1,11.54,11.54,0,0,0,.82-1.51c.22-.64.48-1.28.69-1.92a.92.92,0,0,0-.53-1,9.77,9.77,0,0,0-1.73-.58,2.91,2.91,0,0,1-.6-.13c-.36-.15-.69,0-1,0a2.5,2.5,0,0,0-1,.23,3.17,3.17,0,0,1-.85.24,6.87,6.87,0,0,0-1.6.61,15.74,15.74,0,0,0-1.81,1c-.15.08-.31.19-.39,0s-.26-.28,0-.5.31-.64.69-.79a.55.55,0,0,0,.27-.41,1.2,1.2,0,0,1,.42-.72A3.34,3.34,0,0,0,62,9.18c.08-.3,0-.37-.25-.37H61.5c-1,0-2,.19-2.94.21a6,6,0,0,0-2.23.55c-.61.25-1.24.46-1.86.71a1.32,1.32,0,0,1-.56.08c-.25,0-.3-.14-.17-.41a2.83,2.83,0,0,1,.39-.73,6.08,6.08,0,0,0,1-1.63A4.9,4.9,0,0,0,55.66,5a3.46,3.46,0,0,0-.89-2.21c-.07-.08-.12-.18-.2-.27a3.07,3.07,0,0,0-1.69-1.19A10.59,10.59,0,0,1,51.68,1,11.1,11.1,0,0,0,49.9.71a3.64,3.64,0,0,0-2.44.55,17.31,17.31,0,0,0-2,1.2c-.88.64-1.88,1.09-2.72,1.79-.85.24-1.31,1.07-2.1,1.4,0,0-.08,0-.08.08,0,.45-.47.58-.61.95a3.57,3.57,0,0,1-.5.74c-.1.15-.25.27-.44.18s-.19-.29-.16-.46a13.08,13.08,0,0,1,.26-1.39,8.82,8.82,0,0,0,.06-2.46c0-.31-.24-.62-.21-1a.39.39,0,0,0-.08-.2,1.33,1.33,0,0,0-1.14-.57c-.32,0-.64.08-1,.11a4.26,4.26,0,0,0-1.08.14A5.57,5.57,0,0,1,34,2c-.11,0-.23,0-.35,0a11.09,11.09,0,0,0-3.1,1.44c-.07,0-.11.11-.16.17-.39.49-.79,1-1.14,1.49a7.11,7.11,0,0,0-.53,1,2.31,2.31,0,0,0-.23.67c-.07.48-.09,1-.13,1.45,0,.11,0,.18-.16.24-.33.13-.42.15-.62-.14-.39-.56-.72-1.15-1.14-1.68a7.44,7.44,0,0,0-1.21-1.17,8.46,8.46,0,0,0-2.54-1.2,4,4,0,0,0-1.17-.34A12,12,0,0,0,18.67,4a2.37,2.37,0,0,0-1.12.33,20,20,0,0,1-1.7,1.11m59.31,44c.18.17.45.31.52.51A5.53,5.53,0,0,0,76.91,52a9.48,9.48,0,0,0,2.53,2.09c1,.52,2,1,3.07,1.51a8.44,8.44,0,0,0,3.68.63c.38,0,.76-.1,1.14-.11a3.49,3.49,0,0,0,1.73-.57,5.23,5.23,0,0,0,2.36-3c.22-.89.71-1.78.16-2.73a.17.17,0,0,1,0-.17,1.22,1.22,0,0,1,.31-.39c.07,0,.26,0,.35.12a7,7,0,0,0,1.07.73,3.46,3.46,0,0,0,2.78.68,5.07,5.07,0,0,0,1.16-.37,6.31,6.31,0,0,0,1.27-.83A4.14,4.14,0,0,0,100,47.63a2.21,2.21,0,0,0-.59-2.53,2.13,2.13,0,0,1-.3-.3.63.63,0,0,0-.46-.19,5.93,5.93,0,0,1-1-.24.33.33,0,0,1-.18-.44c0-.11.16-.25.26-.25a7.32,7.32,0,0,1,.81,0c.32,0,.59.25,1,.13a3.13,3.13,0,0,0,1.47-.78,7.36,7.36,0,0,0,.62-.63c.34-.42-.35-.38-.33-.69,0-.09-.14-.18-.2-.27a6.37,6.37,0,0,1-1.22-2.54c0-.06-.08-.16-.1-.16a.29.29,0,0,0-.19.11c-.23.3-.43.62-.68.9A3.77,3.77,0,0,1,97.31,41a6.86,6.86,0,0,1-2.52.54,23.58,23.58,0,0,1-3.36-.1,2.89,2.89,0,0,1-1.35-.62c-.13-.1-.22-.23-.35-.33s-.18,0-.18.06c.06.41-.31.68-.36,1a4.3,4.3,0,0,1-.83,1.62,9.81,9.81,0,0,1-1.53,1.7,2.59,2.59,0,0,1-.59.56,18.51,18.51,0,0,1-1.83,1.06,6.76,6.76,0,0,1-5.21.28c-.39-.15-.78-.34-1.17-.47A4.32,4.32,0,0,1,75.36,44c-.16-.3-.31-.12-.44-.08s-.12.18-.17.28A2.89,2.89,0,0,1,73,45.47a4.22,4.22,0,0,1-1.27.1,3,3,0,0,1-2.1-.85c-.18-.16-.38-.31-.58-.46a3.43,3.43,0,0,1-1.34-2.19,4.42,4.42,0,0,1,.08-2c0-.06-.06-.17-.11-.24s-.1,0-.16,0a4.09,4.09,0,0,1-2.19.27,1.45,1.45,0,0,1-1-.84,5.58,5.58,0,0,1-.24-2c0-.13,0-.27.07-.4a3.37,3.37,0,0,0-.37.24c-.11.09-.2.2-.3.3a7.54,7.54,0,0,1-2.47,1.67,6.81,6.81,0,0,1-3.59.33,12,12,0,0,1-2.82-.94,3.19,3.19,0,0,1-1.7-2,7.76,7.76,0,0,1-.14-2.32,3,3,0,0,1,.17-.94A6.48,6.48,0,0,1,53.39,32c.27-.55.58-1.07.88-1.61.09-.15.39-.21.25-.44,0-.05-.33.06-.5.1a1.86,1.86,0,0,0-.2.1,15.46,15.46,0,0,1-1.93.81c-.93.27-1.9.42-2.85.6-.08,0-.19-.11-.24-.09a3,3,0,0,1-1.93,0,2.32,2.32,0,0,1-1.24-.74c-.19-.23-.44-.41-.63-.64s-.3-.47-.47-.69a3,3,0,0,1-.88-2c-.2-.53-.3-1.13.49-.51.25,0,.21.39.23.63,0,.93.78,1.54,1.28,2.26a2.84,2.84,0,0,0,1.19.85c.49.24.48.28,1,.26a13.2,13.2,0,0,0,2-.1,9.48,9.48,0,0,0,2.41-.67,11,11,0,0,1,1.08-.42,9.78,9.78,0,0,0,2.14-1c.35-.23.41-.22.63,0s.05.38-.11.54a6.47,6.47,0,0,0-1.35,1.89,8.57,8.57,0,0,0-1,2.88,6.66,6.66,0,0,0,.11,2.14,1.49,1.49,0,0,0,.14.48,3.78,3.78,0,0,0,1.93,1.49,8.46,8.46,0,0,0,3.61.64,6.45,6.45,0,0,1,.73-.11,3.84,3.84,0,0,0,1.51-.53,8.85,8.85,0,0,0,1.26-1A4.38,4.38,0,0,0,64.49,35c.13-.38.32-.74.47-1.12.08-.2.24-.3.4-.22s.41.1.32.38a4.38,4.38,0,0,1-.13.43,5.8,5.8,0,0,1-.37.8,3,3,0,0,0-.46,1.9c0,.4.07.8.12,1.2a1.22,1.22,0,0,0,1,1,2,2,0,0,0,.8,0,1.68,1.68,0,0,0,1.59-1.15,2.46,2.46,0,0,1,.42-.66.26.26,0,0,1,.24,0c.1.05.23.14.24.23a.74.74,0,0,1-.1.37,7.13,7.13,0,0,0-.47,1.06,8.27,8.27,0,0,0-.24,1.57,7.33,7.33,0,0,0,.11,1.14,2.6,2.6,0,0,0,.65,1.4,6.06,6.06,0,0,0,1,.89c.28.21.6.37.89.57a1.71,1.71,0,0,0,1.35.13,3,3,0,0,0,1.51-.55,2.37,2.37,0,0,0,.51-.69,2.13,2.13,0,0,0,.42-1.37c0-.3,0-.6,0-.9s.1-.31.32-.32c.4,0,.5.05.51.48,0,.24,0,.48,0,.72a2.92,2.92,0,0,0,.52,1.63,5.18,5.18,0,0,0,2.58,2,8.6,8.6,0,0,0,.95.29,4.5,4.5,0,0,0,1.85.3c.24,0,.48,0,.71,0A5.87,5.87,0,0,0,84,46c.54-.22,1-.55,1.52-.79s.61-.7,1.1-.78c.24-.58.82-.88,1.13-1.44a11.19,11.19,0,0,0,1.15-2.39A2.84,2.84,0,0,0,89,38.64a5.14,5.14,0,0,1-.14-1.37c0-.1,0-.23,0-.3s.12-.48.48-.48.41.3.45.5a11,11,0,0,1,.13,1.62,2.13,2.13,0,0,0,1.4,2,6.75,6.75,0,0,0,2.41.26,3.79,3.79,0,0,1,.66-.11,7.38,7.38,0,0,0,1.41-.11,3.5,3.5,0,0,0,2.13-.92,11.39,11.39,0,0,0,.91-.93,2.71,2.71,0,0,0,.65-2,6,6,0,0,1,.11-1.33.48.48,0,0,1,.11-.24.39.39,0,0,1,.7,0,.51.51,0,0,1,0,.38c-.08.4.09.87-.05,1.24a2.85,2.85,0,0,0,.08,1.74A6.11,6.11,0,0,0,101.58,41c.13.16.25.33.38.5l1,.78a2.72,2.72,0,0,0,1.73.7c.3,0,.65-.09.89,0a1.7,1.7,0,0,0,1.37-.1,11.91,11.91,0,0,0,2.4-1.12c.32-.2.71-.44.58-.91-.17-.65-.41-1.3-.64-1.94a2.52,2.52,0,0,0-.66-.92.52.52,0,0,1,0-.72.46.46,0,0,1,.69.15c.22.33.41.68.65,1a1.36,1.36,0,0,0,1.72.49c.2-.08.39-.21.6-.28.82-.29,1.12-1,1.44-1.71a1,1,0,0,0,0-.52c-.07-.4-.2-.79-.28-1.19s-.43-.68-.59-1.07a5.3,5.3,0,0,0-1.4-1.56,1.11,1.11,0,0,0-.32-.21c-.6-.29-1.2-.58-1.81-.84-.12-.05-.18-.07-.19-.22,0-.43.12-.6.55-.51s1,.31,1.54.46a7.74,7.74,0,0,0,3,.62c.49-.05.61-.13.68-.64s.13-.85.16-1.28c0-.27-.09-.58,0-.78s-.15-.53-.06-.82a1.46,1.46,0,0,0-.1-.6,2.88,2.88,0,0,0-.15-.5c-.07-.19-.23-.35-.28-.54a3.72,3.72,0,0,0-1.6-2.07,6.42,6.42,0,0,0-.86-.53c-.56-.27-1.14-.5-1.72-.74-.37-.15-.74-.32-1.12-.46a2.94,2.94,0,0,0-.67-.12,9.63,9.63,0,0,0-3.53.55c-.62.19-1.24.36-1.87.52-.16,0-.38.06-.47-.16a.41.41,0,0,1,.12-.52,1.59,1.59,0,0,1,.29-.15c.33-.13.67-.22,1-.36.89-.39,1.79-.76,2.66-1.2a5.9,5.9,0,0,0,2-1.29c.13-.16.22-.39.39-.48.43-.23.57-.68.86-1a1.6,1.6,0,0,0,0-1.41,4.12,4.12,0,0,0-1.65-1.17,10.13,10.13,0,0,0-2-.67,8.45,8.45,0,0,0-2.28-.39,9.89,9.89,0,0,0-2.48.34,21.94,21.94,0,0,0-3,1.2c-.55.26-1,.66-1.59.9A21.53,21.53,0,0,0,95,18.7a12.27,12.27,0,0,1-2.1.84.52.52,0,0,1-.46-.13.39.39,0,0,1,.12-.56c.38-.29.74-.6,1.12-.88.13-.09.32-.12.44-.22a5.34,5.34,0,0,1,1.07-.6,15.83,15.83,0,0,0,2-1A16.94,16.94,0,0,0,99,14.88a3.88,3.88,0,0,0,1.19-1.65c.11-.26,0-.39-.2-.48s-.57-.26-.87-.35-.69-.16-1-.24L97.64,12a2.71,2.71,0,0,1-.72-.13,3.61,3.61,0,0,0-1.29-.37,5.84,5.84,0,0,0-2.13-.12,6,6,0,0,0-2,.72c-.09,0-.2.08-.3.14a8.68,8.68,0,0,1-1,.3,5.18,5.18,0,0,0-1.49.6c-.11.1-.37.06-.56,0s-.27-.38-.15-.48a1.36,1.36,0,0,1,.5-.37c.43-.15.94-.24,1.18-.73a.65.65,0,0,1,.17-.16A5.81,5.81,0,0,0,92.17,8a1.47,1.47,0,0,0-.67-1.33A8,8,0,0,0,90,6.32a21.81,21.81,0,0,0-3.78.23,5.17,5.17,0,0,0-.54.11,11.17,11.17,0,0,0-1.18.19,2.84,2.84,0,0,0-1.24.75c-.82.83-1.66,1.65-2.48,2.48A4.52,4.52,0,0,0,79.52,13c0,.23,0,.46-.3.52a.44.44,0,0,1-.53-.36c-.18-.6-.32-1.22-.48-1.83a2.79,2.79,0,0,0-1-1.6,6.69,6.69,0,0,0-1.44-.84,1.83,1.83,0,0,0-1.55,0,16.83,16.83,0,0,0-2.48,1.63,2,2,0,0,0-.5.5,3,3,0,0,0-.78,2.12.46.46,0,0,1,0,.23,1.77,1.77,0,0,0,.15,1.47A.32.32,0,0,0,71,15c.36-.14.73-.26,1.09-.39a5.77,5.77,0,0,1,2.33-.42c1.22.07,2.44.09,3.65.12.14,0,.28,0,.42,0a7.24,7.24,0,0,1,1.37.28,6.39,6.39,0,0,1,1.14.57,8.86,8.86,0,0,1,1.24.71c.6.48,1.27,1,1,1.93a1.56,1.56,0,0,1-.59.92l-.61.41c-.65.45-1.29.91-2,1.35-.37.24-.76.46-1.15.67a6,6,0,0,1-1.69.67c-.54.1-1.09.16-1.63.24a8.09,8.09,0,0,1-.84.12H70c-.26,0-.56.18-.78.09-.56-.22-1.16,0-1.7-.21a.17.17,0,0,0-.17,0c-.13.06-.24.06-.14.31A1.12,1.12,0,0,1,67,23.44a8.61,8.61,0,0,1-1.51,1.62,16.86,16.86,0,0,1-1.59,1.32,11.49,11.49,0,0,1-1.78.91,6.24,6.24,0,0,1-1.93.37,6.06,6.06,0,0,1-2.72-.33,2.72,2.72,0,0,1-1.51-1.61A5.47,5.47,0,0,1,55.66,24a4,4,0,0,1,.22-1.45.93.93,0,0,0,0-.4l-.3.11c-.07,0-.13.09-.2.12a2.94,2.94,0,0,1-2.62.13c-.71-.33-1.46-.59-2.19-.9-.25-.1-.59-.19-.7-.39s-.29-.17-.4-.07a4.6,4.6,0,0,1-1.79.87,1.81,1.81,0,0,1-.72.11,10,10,0,0,1-1.07-.3c-.48-.11-1-.19-1.43-.28-.27-.06-.3.2-.22.27.38.33.15.86.44,1.2,0,.06,0,.18,0,.28a1.69,1.69,0,0,0-.09.49,5.85,5.85,0,0,1-.73,2.93,5.69,5.69,0,0,1-1.39,2,3.56,3.56,0,0,1-1.19.7,1.89,1.89,0,0,1-1.07.12A3.81,3.81,0,0,1,38.79,29c-.31-.24-.69-.36-1-.57-.15-.09-.17-.11-.28.08a5.85,5.85,0,0,0-.24.86,13.93,13.93,0,0,1-1,2.61,8.66,8.66,0,0,1-2.08,2.23,10.63,10.63,0,0,1-2.27,1.29,5.49,5.49,0,0,1-3,.49,4.36,4.36,0,0,1-2.25-1,8.71,8.71,0,0,1-1.1-1.09,3,3,0,0,1-.81-2,11.15,11.15,0,0,1,.58-2.57,4,4,0,0,1,.8-1.52.46.46,0,0,0,0-.2,1.27,1.27,0,0,0-.2,0,5.42,5.42,0,0,1-.87.19c-.62.07-1.25.06-1.86.15-.17,0-.32,0-.49,0-.82,0-1.64.11-2.47.07A3.19,3.19,0,0,1,19,27.65a.57.57,0,0,0-.62,0,15.19,15.19,0,0,0-2.22,1.7A4.69,4.69,0,0,0,15.07,31c-.3.67-.52,1.35.16,1.95,0,0,0,.14.09.2a2.44,2.44,0,0,0,.47.58,4.23,4.23,0,0,0,2,.76c.91.08,1.8.33,2.71.4a.58.58,0,0,1,.4.29c.09.13,0,.28-.14.4s-.43.42-.64.63c-.52.52-1.05,1-1.62,1.51a12.92,12.92,0,0,0-1.17,1.17c-.12.13-.14.34-.26.48a2.13,2.13,0,0,0-.57,1.07,4.43,4.43,0,0,0,0,2.11.83.83,0,0,0,.25.5q.33.3.63.63a1.24,1.24,0,0,0,.92.38l.46,0a6.39,6.39,0,0,0,1.63,0,25.3,25.3,0,0,0,2.48-.77c.37-.11.76-.19,1.14-.27a.43.43,0,0,1,.48.34c0,.07-.14.3-.26.34a3.18,3.18,0,0,0-1.46,1.46,1.24,1.24,0,0,0,.55,2,4.85,4.85,0,0,0,1.85.42h2.21c.14,0,.31.06.41,0,.32-.22.49-.07.66.19s-.07.44-.23.58a10.44,10.44,0,0,1-1.51,1.25c-.44.26-.52.74-.87,1,0,0,0,.11,0,.16a3.29,3.29,0,0,1,.08.62,8.34,8.34,0,0,0-.1.84,8.42,8.42,0,0,0,.24,1.33,3.54,3.54,0,0,0,.39,1,5.18,5.18,0,0,0,1.79,1.69,7.89,7.89,0,0,0,3.34,1.48c.36,0,.75.19,1.15.22s.77,0,1.16,0A2.73,2.73,0,0,0,35,57.83a25.59,25.59,0,0,0,3.48-1.54,6.56,6.56,0,0,0,2.47-2.21c.19-.31.21-.46,0-.68a2.69,2.69,0,0,1-.68-.91c-.1-.21,0-.4.12-.43a1.21,1.21,0,0,1,.78,0,1.41,1.41,0,0,1,.84,1.24c0,.19.11.25.23.36s.55.16.76.33a1.15,1.15,0,0,0,.85.26c.32,0,.64,0,1,0a1,1,0,0,0,.49-.12,4.15,4.15,0,0,0,1.62-1.75,23,23,0,0,0,1.1-2.94,8.5,8.5,0,0,0,.44-2.68,3.77,3.77,0,0,0-.1-.43,1.64,1.64,0,0,0-.54-.91.6.6,0,0,1-.11-.73c.16-.17.49-.12.78.09s.86.6,1.3.88c.91.6,1.85,1.14,2.72,1.8a4,4,0,0,0,1,.61,3.43,3.43,0,0,0,1.34.22,3.3,3.3,0,0,0,2.44-1l1.18-1.17a3.17,3.17,0,0,0,.9-1.11,4.79,4.79,0,0,1,.69-1,.44.44,0,0,1,.53-.14c.15,0,.19.22.18.4a1.74,1.74,0,0,0,0,.82,10.67,10.67,0,0,1,.46,1.72,4.37,4.37,0,0,0,1.66,2.59c.38.25.69.62,1.09.83.72.37,1.32,1,2.2,1a1.65,1.65,0,0,1,.65.17,3.12,3.12,0,0,0,2.06.14A6.84,6.84,0,0,0,71,51a4.32,4.32,0,0,1,1.1-.37,11.54,11.54,0,0,0,3-1.08m-3.7,15.88c.31-.31.6-.63.93-.92a8.52,8.52,0,0,0,1.22-1.7.47.47,0,0,0-.1-.71A2,2,0,0,0,72,61.45a.46.46,0,0,1-.5-.33.58.58,0,0,1,.18-.49.62.62,0,0,1,.53-.12,1.9,1.9,0,0,0,.91.1c.4,0,.8,0,1.19,0,.19,0,.32.12.58,0a5.52,5.52,0,0,1,1.42-.15c.07,0,.14.06.21.07h.32l.72,0c.08,0,.15.07.21.06.47-.11,1-.22,1.41-.37.14-.05.28-.2.07-.41a1.73,1.73,0,0,0-.47-.42,13.16,13.16,0,0,1-1.19-.59.52.52,0,0,1-.26-.62c.07-.2.24-.21.43-.22a1.23,1.23,0,0,1,.81.22,2.46,2.46,0,0,0,.62.38,15.61,15.61,0,0,0,2.25.63,16.38,16.38,0,0,0,3.42.21c.12,0,.27,0,.36,0,.27-.18.56-.08.85-.11s.6-.1.9-.12c.7,0,1.4-.07,2.1-.13a3.81,3.81,0,0,0,.81-.19,4.36,4.36,0,0,0,1.94-1.09c.34-.34.52-.32.94-.06a5.43,5.43,0,0,0,.85.39,5.2,5.2,0,0,1,.89.31.91.91,0,0,0,.52.18c.17,0,.33.09.5.09a12.85,12.85,0,0,0,2.06,0c.54-.08,1.09-.27,1.62-.39a6,6,0,0,0,2-.75,7.29,7.29,0,0,0,1.22-.79,4.8,4.8,0,0,0,.94-1.51,2.27,2.27,0,0,0,0-1.68,1.53,1.53,0,0,0-1-1,.6.6,0,0,1-.16-.05.49.49,0,0,1-.15-.64c.07-.23.33-.23.55-.14s.19.11.29.16a4.31,4.31,0,0,0,2.11.52c.44,0,.88,0,1.31,0a2.53,2.53,0,0,0,.83,0,4.61,4.61,0,0,1,1.31-.3,8.44,8.44,0,0,0,.87-.2,4.73,4.73,0,0,0,2-1c.37-.33.47-.55.29-1a5.34,5.34,0,0,0-1.13-1.73c-.15-.15-.22-.39-.39-.48a15.55,15.55,0,0,0-1.86-.84c-.57-.21-1.18-.31-1.76-.5a5.89,5.89,0,0,1-1.05-.49.6.6,0,0,1-.29-.6c0-.3.22-.29.43-.35a6.25,6.25,0,0,1,1.54-.47,1,1,0,0,0,.53-.29.49.49,0,0,0,.13-.35c0-.27-.25-.36-.56-.28a5.5,5.5,0,0,1-1.59.33c-.47,0-.93-.07-1.39-.12-.05,0-.1,0-.15,0a3.64,3.64,0,0,1-1.52-.66.43.43,0,0,0-.69.12,1.79,1.79,0,0,1-.83.69c-.38.16-.52.64-1,.66,0,0-.23.11,0,.24a2.25,2.25,0,0,1,.71,2,2.18,2.18,0,0,1-.57,1.89c-.09.64-.83.8-1,1.36a9.87,9.87,0,0,1-2.75,1.43,3.58,3.58,0,0,1-1.27.22A5.63,5.63,0,0,1,93,50.76c-.36-.23-.35-.24-.47.22,0,.12-.09.24-.12.37a9.56,9.56,0,0,1-.85,2.33,6.35,6.35,0,0,1-1.67,2c-.34.25-.76.4-1.09.67s-.81.21-1.2.44a2.53,2.53,0,0,1-1.12.14c-.6,0-1.21-.07-1.8-.09A22.14,22.14,0,0,1,82,56.18c-.66-.53-1.52-.68-2.22-1.14a7.22,7.22,0,0,1-.77-.43c-.64-.55-1.35-1-2-1.57s-.91-1-1.39-1.52a2.64,2.64,0,0,1-.47-.64c-.2-.42-.3-.51-.69-.37a3.6,3.6,0,0,0-1.35.49.37.37,0,0,1-.21.06,9.41,9.41,0,0,0-1,.16c-.74.24-1.46.52-2.2.75-.21.07-.52,0-.68.07a2.51,2.51,0,0,1-1.37.21A7.17,7.17,0,0,1,65,51.68a1.67,1.67,0,0,1-.33-.21,1.6,1.6,0,0,0-.23-.16c-.41-.16-.86-.24-1.09-.67a.17.17,0,0,0-.15,0c-.24,0-.36-.11-.5-.25s-.36-.5-.6-.57c-.83-.26-1-1.05-1.32-1.66a8.64,8.64,0,0,1-.76-2.67,1,1,0,0,0-.05-.22.9.9,0,0,0-.24.12c-.4.43-.79.86-1.18,1.3,0,0-.05.06-.08.08-.51.5-1,1-1.54,1.47a3.18,3.18,0,0,1-1,.54,6.83,6.83,0,0,1-2.43.18.32.32,0,0,1-.18-.11,2.28,2.28,0,0,0-.94-.48,1.45,1.45,0,0,1-.44-.24,22.36,22.36,0,0,0-2.73-1.77c-.18-.12-.34,0-.31.23a2.59,2.59,0,0,1,.1.6,13.3,13.3,0,0,1-.35,1.64,12,12,0,0,1-.61,2c-.22.46-.35,1-.61,1.41a8.35,8.35,0,0,1-.85,1.39,7.61,7.61,0,0,1-1.06.91,2.71,2.71,0,0,1-2.22.44,6,6,0,0,1-1.54-.59c-.2-.09-.32-.1-.46.06a4,4,0,0,0-.28.3,5,5,0,0,1-1.53,1.46,16,16,0,0,1-3.1,1.6q-.75.27-1.5.57a6.91,6.91,0,0,1-2.52.23,7.16,7.16,0,0,1-1.78-.32A9.28,9.28,0,0,1,29,57.57c-.28-.12-.42-.06-.48.19-.18.71-.32,1.42-.54,2.11-.05.19.08.18.12.26s.12-.24.17,0,.14.74.25,1.1a1.73,1.73,0,0,0,1.29,1.34c.65.15,1.31.29,2,.45a2.08,2.08,0,0,0,.48.11,9,9,0,0,0,1.93-.1A7.2,7.2,0,0,1,36,62.52s.06-.09.1-.12a4.1,4.1,0,0,1,.47-.35c.31-.18.63-.32.92-.51a26,26,0,0,0,3.21-2.61c.12-.11.18-.29.3-.41a3.92,3.92,0,0,1,.71-.58.45.45,0,0,1,.71.32c.05.22.07.45.13.66a4.87,4.87,0,0,0,.28.84c.12.29,0,.65.29.89-.32.4.32.45.27.75,0,.06.08.12.1.19a5,5,0,0,0,1.87,2.51,7,7,0,0,1,.84.71,9.77,9.77,0,0,0,.92.9,19.54,19.54,0,0,0,2.31,1.62,3.21,3.21,0,0,0,2.12.58,4.08,4.08,0,0,0,2-1.21,2.83,2.83,0,0,0,.58-1,2.72,2.72,0,0,0-.42-3.08,5.05,5.05,0,0,1-.59-.71.41.41,0,0,1,.26-.68,1,1,0,0,1,.45.21c.34.24.66.51,1,.75s.84.64,1.29.93,1.06.62,1.55,1a4,4,0,0,0,1.94,1.09.34.34,0,0,1,.2.09c.3.37.87.33,1.13.75,0,0,.09,0,.12,0,.36-.18.59.08.86.24.09.06.24.18.28.16.21-.16.31.07.46.1s.45,0,.64.06a10.27,10.27,0,0,0,2.86.43,6.38,6.38,0,0,0,1.56-.11,6.09,6.09,0,0,0,1.08-.27,6.68,6.68,0,0,1,1-.39,2.42,2.42,0,0,0,.72-.29c.31-.17.61-.35,1-.59M3,45.75a1.06,1.06,0,0,0,.53.79,7,7,0,0,0,1.72.74,6.2,6.2,0,0,0,1.06.2,2,2,0,0,0,.89.1,3.25,3.25,0,0,1,1-.09,2.53,2.53,0,0,0,.48,0c.62-.27,1.31-.14,1.94-.35.09,0,.21.07.32.09.3.05.25.18.07.33l-.62.51c-1,.77-2,1.53-3,2.32-.51.4-1,.87-1.43,1.31a6,6,0,0,0-.62.62c-.26.31-.47.65-.73.95A10.37,10.37,0,0,0,2.72,56c-.06.12-.3.17-.11.37s.16.26.27.34a3.14,3.14,0,0,0,1.77.5c.66,0,1.27-.24,1.92-.29a2.88,2.88,0,0,0,.76-.17A16.4,16.4,0,0,1,9,56.09a8.08,8.08,0,0,0,2-.9,31.14,31.14,0,0,0,3.5-2.64,15.73,15.73,0,0,1,1.83-1.22c.21-.12.47-.42.76-.21s.2.62.12.88a19.9,19.9,0,0,1-1,2.74,6.16,6.16,0,0,0-.64,2.06A4.34,4.34,0,0,0,16,59.11a1.18,1.18,0,0,0,1.65.38q1.2-1,2.34-2c.64-.59,1.23-1.23,1.85-1.85.27-.26.47-.25.65.06a.63.63,0,0,1,0,.36,8.63,8.63,0,0,0-.27,1.2,4.83,4.83,0,0,0,.12,1.13,1.08,1.08,0,0,0,.2.34,7.39,7.39,0,0,0,.77,1c.26.23.53.54.91.51A1.82,1.82,0,0,0,25,60a5.28,5.28,0,0,0,2.1-1.68c.2-.32.44-.62.67-.92s.28-.33-.09-.62a5.87,5.87,0,0,1-2-2.16,5.77,5.77,0,0,1-.39-2.55c0-.06-.07-.13-.07-.2a4,4,0,0,1,0-1.46,3.82,3.82,0,0,1,1.24-1.51c.24-.19.47-.4.7-.6a.2.2,0,0,0,0-.16s-.11-.08-.14-.06c-.43.29-.89,0-1.35.07A4.28,4.28,0,0,1,24,48.1a3.94,3.94,0,0,1-1.78-.77,1.57,1.57,0,0,1-.57-1.42,2.53,2.53,0,0,1,.83-1.61,4.4,4.4,0,0,0,.37-.38s0-.08,0-.12a.42.42,0,0,0-.16,0,5.9,5.9,0,0,1-2.78.9,6.84,6.84,0,0,1-1.91-.1,1.72,1.72,0,0,1-.78-.26,7.28,7.28,0,0,1-1.13-1,1.19,1.19,0,0,1-.36-.93,2.33,2.33,0,0,0,0-.59,5.74,5.74,0,0,1,.13-1.76,2.55,2.55,0,0,1,.36-.74c.41-.5.81-1,1.26-1.44s1.17-1.1,1.78-1.62a3.38,3.38,0,0,0,.5-.5c.21-.29.18-.37-.19-.49a3.2,3.2,0,0,0-.69-.19c-.6-.1-1.21-.14-1.81-.25a3.17,3.17,0,0,1-2.58-1.65c-.07-.15-.25-.26-.29-.42a3.83,3.83,0,0,1-.13-.9.52.52,0,0,0-.31-.53,3.72,3.72,0,0,0-3,0,11.07,11.07,0,0,0-2.57,1.12c-.37.21-.76.4-1.11.64a10.43,10.43,0,0,0-1.75,1.5c-.95,1-1.9,2-2.82,3.07a9.62,9.62,0,0,0-1,1.33.67.67,0,0,0,0,.62,1.35,1.35,0,0,0,1.16.46,14.64,14.64,0,0,0,1.61-.42A12.72,12.72,0,0,0,5.76,39c1.09-.52,2.23-.94,3.35-1.4a13.82,13.82,0,0,1,1.4-.52c.18,0,.48-.11.57.14s-.13.35-.26.45c-.58.41-1.17.8-1.77,1.19a17.36,17.36,0,0,0-3,1.89c-.62.62-1.27,1.2-1.84,1.86a5.29,5.29,0,0,0-1.05,1.77c-.14.41-.48.8-.17,1.34M69.85,14.36c0-.1,0-.27-.09-.28-.2,0-.12.13-.15.23a2.85,2.85,0,0,1-.12.31c-.19.51-.39,1-.59,1.53,0,.06-.05.12-.07.17a.56.56,0,0,0,.18-.07c.11-.08.2-.19.31-.27s.46-.41.71-.59.14-.23,0-.39a1.54,1.54,0,0,1-.18-.64M37.93,1.06l-.28,0c.06.06.1.15.18.19s.15,0,.23,0a1.65,1.65,0,0,0-.13-.22M28.2,8.28a.4.4,0,0,0,0-.11L28.13,8a.44.44,0,0,0-.05.15.15.15,0,0,0,.12.14m14.62,46v.23l.19-.06-.18-.17M10,47.72l-.06-.12s0,.08.06.12M71.28,15.44l.12-.06s-.08,0-.12.06M106,22.36l-.08-.05s0,.07.08.05M9.64,37.94l0-.08s-.07,0,0,.08M15.55,15.2l.07.05s0-.07-.07-.05M62,8.4l-.08-.05s0,.07.08.05M4.57,57.45,4.5,57.4S4.5,57.47,4.57,57.45ZM15.91,5.5a.45.45,0,0,1,.2,0v.08A.46.46,0,0,1,15.91,5.5Z"/></g></g></svg>