<svg xmlns="http://www.w3.org/2000/svg" viewBox="0 0 160.79 97.91"><defs><style>.cls-1{fill:#fff;}.cls-2{fill:#05a200;}.cls-3{fill:#00dc06;}.cls-4{fill:#78ff2e;}</style></defs><title>cartoon-bush-2</title><g id="Layer_2" data-name="Layer 2"><g id="cartoon-bush-2"><path id="void" class="cls-1" d="M39.66,74c.17,0,.21,0,.22.16A7,7,0,0,0,40,75.31a1.92,1.92,0,0,0,.76,1.36,3,3,0,0,0,1.32.57s.1.08.15.12a.58.58,0,0,1-.1.12,6.71,6.71,0,0,0-1.67,1.81,8.22,8.22,0,0,0-.66,1.41,5,5,0,0,0-.31,1.56c0,.28,0,.56-.07.84a4.82,4.82,0,0,0,0,.76,5.39,5.39,0,0,1,.08.56,1.59,1.59,0,0,0,.59,1.31,5,5,0,0,0,3,1.22,10.82,10.82,0,0,0,3-.27,15.36,15.36,0,0,0,3.26-1.13c.27-.11.32-.14.31.15a.91.91,0,0,1,0,.37,6,6,0,0,0-.24,2.14,1.82,1.82,0,0,0,.82,1.59A7.34,7.34,0,0,0,54.31,91a6.79,6.79,0,0,0,2-.42,6.58,6.58,0,0,0,2.14-1.13c.23-.21.43-.13.52.2s.13.65.21,1a7.48,7.48,0,0,0,2.75,3.57A33.32,33.32,0,0,0,65,96.42a6.41,6.41,0,0,0,1.13.73,10.36,10.36,0,0,0,3.29.75,7,7,0,0,0,.89-.11,5.83,5.83,0,0,0,2.86-.89,4.51,4.51,0,0,0,2.21-2.47,4.38,4.38,0,0,0,.13-.82c0-.27.14-.29.37-.19q.67.31,1.38.57a5.14,5.14,0,0,0,2.33.31,2.5,2.5,0,0,0,1.49-.62,2.44,2.44,0,0,0,.87-1.07,5.19,5.19,0,0,0,.18-3.48,2.14,2.14,0,0,1,0-.8.2.2,0,0,1,.14-.13,9.26,9.26,0,0,1,1.49,0,8.71,8.71,0,0,0,2.55.12,7.8,7.8,0,0,0,2.06-.74c.44-.19.44-.22.6.24a11,11,0,0,0,.66,1.85,1.26,1.26,0,0,0,.67.62,2,2,0,0,0,1.07.23,8,8,0,0,1,1-.09,4.17,4.17,0,0,0,2-.57.3.3,0,0,1,.16-.05,3.16,3.16,0,0,0,1.84-1,3.91,3.91,0,0,0,1.09-1.41,12,12,0,0,0,.77-1.92.5.5,0,0,1,.1-.19s.11.08.14.14.09.21.15.31a5.32,5.32,0,0,0,1.34,1.5,4.9,4.9,0,0,0,2.2,1,5.38,5.38,0,0,0,2.63-.23A3.85,3.85,0,0,0,107,86.58a12.89,12.89,0,0,1,.86-1.27,3.89,3.89,0,0,0,1-2c0-.07.08-.13.12-.2a.61.61,0,0,0,.07-.14l.06.16c.15.32,0,.64,0,1a12.55,12.55,0,0,0,.23,2.45,3,3,0,0,0,.79,1.61c.31.32.65.61,1,.92s.91.16,1.18.62c0,0,.12,0,.18,0a4,4,0,0,0,1.78.14,3.45,3.45,0,0,0,1-.27A8.1,8.1,0,0,0,118.07,87a14.81,14.81,0,0,0,2-3.55c.09-.25.22-.49.3-.74s.15-.16.26-.06.21.2.31.3a11.28,11.28,0,0,0,.92.91,7,7,0,0,0,2,1.17,3.52,3.52,0,0,0,2.43.14,5.77,5.77,0,0,0,2.54-1.94c.4-.48.72-1,1.09-1.53.11-.17.23-.21.31.07a3.42,3.42,0,0,0,.35.72,10.93,10.93,0,0,0,2.5,3.52c.19.17.41.31.6.48A5.23,5.23,0,0,0,136,87.81a4,4,0,0,0,2.09.15,4.14,4.14,0,0,0,2.27-1.28,5.4,5.4,0,0,0,1-2.73c0-.19.06-.23.25-.25a3.52,3.52,0,0,0,2.54-1.21,9.16,9.16,0,0,0,.7-.84,3.65,3.65,0,0,0,.75-2.61.5.5,0,0,0-.13-.25c-.1-.14-.22-.27-.33-.4a4.66,4.66,0,0,0,.49-.16c.14-.07.26-.17.4-.25a3.57,3.57,0,0,0,1.65-4.08,1.83,1.83,0,0,0-.31-.68,3.51,3.51,0,0,0-3.1-1.2,7.74,7.74,0,0,0-1.46.35.23.23,0,0,1-.19-.09c0-.16-.06-.39,0-.47.44-.47.38-1.1.62-1.62a4.67,4.67,0,0,0,0-1.39c-.06,0-.17-.34-.25-.32l0,0-.23-.13a4.65,4.65,0,0,1-2.51,0,3,3,0,0,1-2-1.68,12.35,12.35,0,0,1-1.14-2.76,1.11,1.11,0,0,0-.15-.31.31.31,0,0,0-.55,0,4.47,4.47,0,0,0-.53.78A4,4,0,0,1,134.37,66a8.23,8.23,0,0,1-1.51.56,3.14,3.14,0,0,1-1.33,0,1.26,1.26,0,0,1-1-1,7,7,0,0,1,.66-3.41,13.66,13.66,0,0,0,.58-1.5.6.6,0,0,0-.15-.48c0-.05-.3,0-.41.1-.49.39-.95.81-1.44,1.18a16.11,16.11,0,0,1-2.68,2,10.07,10.07,0,0,1-1.94.58c-.21.06-.42.09-.63.13a4.21,4.21,0,0,1-1.77-.41.68.68,0,0,1-.4-.54,1.73,1.73,0,0,1,.33-1.23,2.5,2.5,0,0,0,.39-.65,4.46,4.46,0,0,1,1-1.33,10.1,10.1,0,0,0,1.17-1.19c.64-.87,1.42-1.62,2-2.51a6.77,6.77,0,0,1,.57-.83c.1-.1.06-.33.09-.49-.14,0-.31-.07-.41,0a4,4,0,0,0-.62.47,12.94,12.94,0,0,0-1.08.84,6.29,6.29,0,0,1-2.8,1.68,4.26,4.26,0,0,1-1.7.07.94.94,0,0,1-.58-1.4c.45-.68,1-1.3,1.44-2a.9.9,0,0,0,.17-.3c.06-.24,0-.35-.3-.3a1.22,1.22,0,0,0-.38.13c-.9.52-1.84,1-2.72,1.56a4.2,4.2,0,0,1-2,.66,4.93,4.93,0,0,1-1.89-.37c-.23-.08-.4-.35-.58-.55a.33.33,0,0,1,.14-.18l-1-.86c-.07,0-.21.18-.23.29,0,.3,0,.29-.25.32a4.19,4.19,0,0,1-2.25-.43,3.13,3.13,0,0,0-.91-.18.43.43,0,0,0-.32.21.34.34,0,0,0,.1.31,8,8,0,0,0,.81.46.76.76,0,0,0,.38.11c.46,0,.85.17.91.58a1.74,1.74,0,0,1-.32,1.6,2.69,2.69,0,0,1-1.9.82c-.59,0-.74-.16-.74-.75,0-.39,0-.76-.48-.91a1.52,1.52,0,0,0-1.22.05c-.35.18-.41.42-.15.69s.6.62.91.92a.68.68,0,0,1,.23.76,5.45,5.45,0,0,1-1.2,2.31,4.44,4.44,0,0,1-2.13,1.28s-.11,0-.17,0l-.52.47a.64.64,0,0,0-.13.31c0,.19,0,.43-.14.56a3.25,3.25,0,0,1-1.29,1.06c-.31.1-.64.18-1,.25-.16,0-.33,0-.4.23s.16.28.25.39c.25.3.56.54.82.84a1.7,1.7,0,0,1,.18,1.5,8.14,8.14,0,0,1-.68,1.9,9.16,9.16,0,0,1-1.87,2.65,9.47,9.47,0,0,1-1.19,1.18,5.6,5.6,0,0,1-2.49.91A7.65,7.65,0,0,1,92,74.18a16.31,16.31,0,0,1-1.83-1c-.6-.37-1.29-.62-1.87-1-.08-.06-.18-.08-.25-.14A10.41,10.41,0,0,1,87,71.06c-.48-.53-.92-1.11-1.37-1.67a2.86,2.86,0,0,0-.4-.45c-.35-.28-.62-.15-.67.31a12.32,12.32,0,0,1-.8,3,12.54,12.54,0,0,1-1.39,2.35c-.06.08-.2.12-.3.18a2.17,2.17,0,0,0-.45.25,2.29,2.29,0,0,1-2.11.25c-.65-.12-.9-.63-1.09-1.12a5.74,5.74,0,0,1-.15-3.21.41.41,0,0,0,0-.27c-.2,0-.42-.07-.55.15A10.88,10.88,0,0,1,77,71.9a12.62,12.62,0,0,1-2,2.32,1.69,1.69,0,0,1-1.84.27,1,1,0,0,1-.58-.85,4.7,4.7,0,0,0-.14-1.44c.25-.31-.11-.67.1-1s-.06-.76,0-1.1a3.31,3.31,0,0,1,.91-1.68c.13-.11.41-.2.27-.47s-.35-.19-.68,0l-.68.46a4.16,4.16,0,0,1-1.93.78A2.68,2.68,0,0,1,69.19,69c-.33-.1-.43-.35-.63-.55s-.45-.38-.43-.76a2.37,2.37,0,0,0-.28-.81c-.06-.17-.14-.31-.38-.27s-.32.13-.32.36,0,.75,0,1.12a8.4,8.4,0,0,1-.68,3.47,3.29,3.29,0,0,1-2.53,2.07,13.1,13.1,0,0,1-2.33.2c-.25,0-.5-.1-.76-.11s-.42.12-.4.47a15.72,15.72,0,0,1,0,2.17,7.63,7.63,0,0,1-.28,1.5,2,2,0,0,1-2.27,1.33,13.6,13.6,0,0,1-1.36-.46c-.2-.07-.5-.09-.58-.23-.34-.59-1-.91-1.26-1.59a3.2,3.2,0,0,1,0-2.24,4.81,4.81,0,0,0,.27-1.25,6.61,6.61,0,0,1,0-.89c0-.2-.12-.22-.23-.18a1.58,1.58,0,0,0-.46.25c-.5.45-1,.9-1.49,1.36a6.28,6.28,0,0,1-2.36,1.34,3.24,3.24,0,0,1-1.83-.23A5.58,5.58,0,0,1,47.51,74a.39.39,0,0,1,0-.35,5.88,5.88,0,0,1,1.24-2.29c.66-.68,1.3-1.37,1.94-2.06.13-.15.21-.36.36-.47s.07-.28.07-.44-.19-.22-.33-.18c-.58.19-1.17.39-1.74.62s-1.07.51-1.62.74a12.32,12.32,0,0,1-2,.71,1.24,1.24,0,0,1-1.12-.38Zm5.06-9.45c0,.09-.06.18-.1.26-.29.46-.61.91-.88,1.38a3,3,0,0,0-.51,1.41c0,.32-.13.64-.1.95a4.09,4.09,0,0,0,.1.61,8.52,8.52,0,0,0-.7.62.92.92,0,0,0-.27.56c0,.55-.41.88-.64,1.3-.11.21-.16,0-.2,0-.29-.2-.48-.07-.64.17a6.61,6.61,0,0,0-.64,1,1.07,1.07,0,0,1-.92.65,3.09,3.09,0,0,1-3.09-1.4c-.18-.28-.43-.52-.61-.8-.3-.48-.6-1-.86-1.45-.09-.17-.1-.36-.35-.29s-.44.38-.39.55c.13.47.25.94.4,1.4s.07.67-.48.63a1.44,1.44,0,0,1-1-.38c-.14-.15-.38-.2-.55-.32-.36-.26-.79-.41-1-.86-.14-.27-.43-.25-.67,0l-2.41,2.16a2.16,2.16,0,0,1-1,.46,4.39,4.39,0,0,1-2.69-.5,7.54,7.54,0,0,1-1.69-.88,2.58,2.58,0,0,1-1-1.75c-.09-.66-.28-1.3-.36-2a4.37,4.37,0,0,1,.28-1.63c.11-.43.23-.85.33-1.29,0-.21-.09-.33-.31-.35a2.17,2.17,0,0,0-1.4.53,32.65,32.65,0,0,1-2.88,1.91,14.34,14.34,0,0,1-1.84.82,4.1,4.1,0,0,1-1.23.33,2.61,2.61,0,0,1-2.28-.91,1.61,1.61,0,0,1-.26-.76,3.85,3.85,0,0,1,.39-2,6.77,6.77,0,0,0,.22-.77c.1-.3.22-.58.31-.87a.74.74,0,0,0,.05-.41c0-.13-.12-.3-.35-.17-.48.26-1,.47-1.45.71a13.66,13.66,0,0,1-3.11,1.36c-.32.08-.62.21-.93.31A5.6,5.6,0,0,1,3.56,65a5.81,5.81,0,0,1-2.5-1.34A1.34,1.34,0,0,1,.8,62a6.89,6.89,0,0,1,.87-1.51A17.23,17.23,0,0,1,2.9,59c.4-.47.81-.91,1.23-1.36.08-.09.16-.23.26-.26.55-.16.84-.65,1.29-.94.93-.59,1.8-1.26,2.74-1.83a21.75,21.75,0,0,1,2.17-1.06,1.28,1.28,0,0,1,.55,0,7.49,7.49,0,0,0,1.06.13c.12,0,.41,0,.4-.31s-.09-.41-.38-.42-.63-.09-1-.12a.59.59,0,0,1-.49-.74,4.18,4.18,0,0,1,.55-1,5,5,0,0,1,1.34-1.42c.59-.42,1.14-.89,1.75-1.29a6.92,6.92,0,0,1,2-.82,4.82,4.82,0,0,1,1.81-.11,4.42,4.42,0,0,1,1.12.3,5.44,5.44,0,0,0,2.23.17,1.79,1.79,0,0,0,1.25-1,11.59,11.59,0,0,0,.69-1.52,2.18,2.18,0,0,0,.2-1,8.55,8.55,0,0,1,0-1.24c0-.12.22-.32.25-.32.53.28,1,0,1.48-.11a1.36,1.36,0,0,0,1-.75,12.63,12.63,0,0,0,.77-1.67,1.59,1.59,0,0,1,.13-.22l.15.21a7.84,7.84,0,0,0,.55.93A3.4,3.4,0,0,0,27,42c-.33.37-.62.78-.93,1.17a3.56,3.56,0,0,1-.45.56,2.55,2.55,0,0,0-.79,1.85c0,.37,0,.75,0,1.12a.55.55,0,0,0,.36.63,3.85,3.85,0,0,0,1.47.51c.06,0,.11.08.17.12l-.16.13A31.09,31.09,0,0,0,24,50.2a11.54,11.54,0,0,0-1.88,2.38,8.74,8.74,0,0,0-.69,1.65.82.82,0,0,0,.26.8,2.45,2.45,0,0,0,1.67.77,3.17,3.17,0,0,0,1.88-.41c1-.47,2-1,2.94-1.45.31-.16.6-.37.91-.52s.88-.39,1.32-.57a.47.47,0,0,1,.17,0c0,.07,0,.15,0,.21A7.47,7.47,0,0,0,30,55.56a5.5,5.5,0,0,0-.11.69A3.38,3.38,0,0,0,30.44,58a8.62,8.62,0,0,0,2.07,2.19.9.9,0,0,0,.3.17,3.69,3.69,0,0,0,3.48-.33,9.44,9.44,0,0,0,2-1.95c.18-.25.42-.45.59-.69.31-.43.59-.88.88-1.32,0-.06.09-.1.13-.16s.11.11.12.17A6.92,6.92,0,0,0,41.23,59c.1.15.12.2,0,.32a9.2,9.2,0,0,0-1.55,1.91c-.26.41-.49.84-.75,1.25s-.61,1-.92,1.42a1.17,1.17,0,0,0,.13,1.61,2.51,2.51,0,0,0,2.56.73,9.91,9.91,0,0,1,1.25-.3.52.52,0,0,0,.26-.12c.36-.35.89-.37,1.3-.62s.58-.4.88-.57C44.47,64.53,44.6,64.57,44.72,64.57Zm115.22-7.36a3.95,3.95,0,0,0-3.86-2.88,17.77,17.77,0,0,0-2.06.11l-.17.05a5,5,0,0,0-1.53.52c-.2.12-.4-.08-.55-.22a.22.22,0,0,1,0-.21,4.54,4.54,0,0,0,.7-2.51c0-.14.06-.27.08-.4.06-.37.13-.74.16-1.12a5.09,5.09,0,0,0-.29-1.81,2.23,2.23,0,0,0-1.38-1.64,4.56,4.56,0,0,0-1.21-.24c-.35,0-.71.11-1.06.1a3.37,3.37,0,0,0-1.63.44,19.06,19.06,0,0,0-2.57,1.45,4.68,4.68,0,0,0-1.5,1.2,2.8,2.8,0,0,1-.82.7.62.62,0,0,1-.5,0c-.22-.09-.09-.25,0-.39a.88.88,0,0,0,.12-.32,23.62,23.62,0,0,0,.4-2.89A1.56,1.56,0,0,0,141,45.62a2.92,2.92,0,0,0-2.42.59c-.44.34-.88.69-1.31,1.06-.24.21-.33-.14-.51-.12,0-.13-.16-.23,0-.4a3.76,3.76,0,0,0,.53-.77,8.41,8.41,0,0,0,.69-2.2c.14-.46,0-.51-.45-.72a7.75,7.75,0,0,1-1.54-.8,9.07,9.07,0,0,1-2.38-2.48,6.89,6.89,0,0,0-.4-.64c-.05-.07-.16-.1-.25-.15a1.87,1.87,0,0,0-.07.22,1.41,1.41,0,0,1-1,1.32l-.68.17c-.52.14-1,.29-1.57.41a10.41,10.41,0,0,1-1.12.16,1.48,1.48,0,0,1-.42,0,4.51,4.51,0,0,1-1.67-.93c-.32-.22-.31-.25-.42.12-.18.61-.24,1.25-.48,1.85a2.65,2.65,0,0,1-2,1.8,2.18,2.18,0,0,0-.48.19c-.51.22-1,.46-1.53.67s-.79.29-1.19.44c0,0-.26.08,0,.19.5.24.71.72,1,1.15s.24.57-.1.76-.67.65-1.19.73c-.26,0-.25.29,0,.47s.42.23.51.4.32.38.32.68a2.14,2.14,0,0,1-.62,1.89,4.73,4.73,0,0,1-1.38.91,12.09,12.09,0,0,1-2.37.59c-.28,0-.4.15-.37.43a1.05,1.05,0,0,1-.43.94,2.49,2.49,0,0,1-1,.64.33.33,0,0,0-.14.18c.18.2.35.47.58.55a4.93,4.93,0,0,0,1.89.37,4.2,4.2,0,0,0,2-.66c.88-.58,1.82-1,2.72-1.56a1.22,1.22,0,0,1,.38-.13c.25,0,.36.06.3.3a.9.9,0,0,1-.17.3c-.48.66-1,1.28-1.44,2a.94.94,0,0,0,.58,1.4,4.26,4.26,0,0,0,1.7-.07,6.29,6.29,0,0,0,2.8-1.68,12.94,12.94,0,0,1,1.08-.84,4,4,0,0,1,.62-.47c.1-.06.27,0,.41,0,0,.16,0,.39-.09.49a6.77,6.77,0,0,0-.57.83c-.6.89-1.38,1.64-2,2.51a10.1,10.1,0,0,1-1.17,1.19,4.46,4.46,0,0,0-1,1.33,2.5,2.5,0,0,1-.39.65,1.73,1.73,0,0,0-.33,1.23.68.68,0,0,0,.4.54,4.21,4.21,0,0,0,1.77.41c.21,0,.42-.07.63-.13a10.07,10.07,0,0,0,1.94-.58,16.11,16.11,0,0,0,2.68-2c.49-.37.95-.79,1.44-1.18.11-.08.37-.15.41-.1a.6.6,0,0,1,.15.48,13.66,13.66,0,0,1-.58,1.5,7,7,0,0,0-.66,3.41,1.26,1.26,0,0,0,1,1,3.14,3.14,0,0,0,1.33,0,8.23,8.23,0,0,0,1.51-.56,4,4,0,0,0,1.55-1.63,4.47,4.47,0,0,1,.53-.78.31.31,0,0,1,.55,0,1.11,1.11,0,0,1,.15.31,12.35,12.35,0,0,0,1.14,2.76,3,3,0,0,0,2,1.68,4.65,4.65,0,0,0,2.51,0,2.53,2.53,0,0,0,1.62-1.22,5.56,5.56,0,0,0,.57-1.63,2,2,0,0,0,0-1.15,8.07,8.07,0,0,0-.88-1.7,1.08,1.08,0,0,0-.62-.46,6.86,6.86,0,0,1-.76-.27.28.28,0,0,1-.11-.21c0-.1.12-.25.19-.25a6,6,0,0,1,.73,0,4.15,4.15,0,0,0,.79,0,3.7,3.7,0,0,0,1.81-1c.46-.46.5-.47.91,0a4.3,4.3,0,0,0,2.33,1.29.93.93,0,0,0,1.09-.35,2.08,2.08,0,0,1,.36-.48.48.48,0,0,1,.36-.13c.09,0,.18.19.21.31.05.29.2.66.08.86-.22.36.11.6.08.92a2.12,2.12,0,0,0,.29,1.11,9,9,0,0,0,.92,1.2,2,2,0,0,0,1.66.79,17.87,17.87,0,0,0,2.31-.11,2.21,2.21,0,0,0,.66-.21,3.87,3.87,0,0,0,2.22-2.47,6.64,6.64,0,0,0,.39-2c0-.41.17-.8.23-1.21a5.32,5.32,0,0,0,.11-1.31A4.84,4.84,0,0,0,159.94,57.21ZM104,63.53c0,.19,0,.43-.14.56a3.25,3.25,0,0,1-1.29,1.06c-.31.1-.64.18-1,.25-.16,0-.33,0-.4.23s.16.28.25.39c.25.3.56.54.82.84a1.7,1.7,0,0,1,.18,1.5,8.14,8.14,0,0,1-.68,1.9,9.16,9.16,0,0,1-1.87,2.65,9.47,9.47,0,0,1-1.19,1.18,5.6,5.6,0,0,1-2.49.91A7.65,7.65,0,0,1,92,74.18a16.31,16.31,0,0,1-1.83-1c-.6-.37-1.29-.62-1.87-1-.08-.06-.18-.08-.25-.14A10.41,10.41,0,0,1,87,71.06c-.48-.53-.92-1.11-1.37-1.67a2.86,2.86,0,0,0-.4-.45c-.35-.28-.62-.15-.67.31a12.32,12.32,0,0,1-.8,3,12.54,12.54,0,0,1-1.39,2.35c-.06.08-.2.12-.3.18a2.17,2.17,0,0,0-.45.25,2.29,2.29,0,0,1-2.11.25c-.65-.12-.9-.63-1.09-1.12a5.74,5.74,0,0,1-.15-3.21.41.41,0,0,0,0-.27c-.2,0-.42-.07-.55.15A10.88,10.88,0,0,1,77,71.9a12.62,12.62,0,0,1-2,2.32,1.69,1.69,0,0,1-1.84.27,1,1,0,0,1-.58-.85,4.7,4.7,0,0,0-.14-1.44c.25-.31-.11-.67.1-1s-.06-.76,0-1.1a3.31,3.31,0,0,1,.91-1.68c.13-.11.41-.2.27-.47s-.35-.19-.68,0l-.68.46a4.16,4.16,0,0,1-1.93.78A2.68,2.68,0,0,1,69.19,69c-.33-.1-.43-.35-.63-.55s-.45-.38-.43-.76a2.37,2.37,0,0,0-.28-.81c-.06-.17-.14-.31-.38-.27s-.32.13-.32.36,0,.75,0,1.12a8.4,8.4,0,0,1-.68,3.47,3.29,3.29,0,0,1-2.53,2.07,13.1,13.1,0,0,1-2.33.2c-.25,0-.5-.1-.76-.11s-.42.12-.4.47a15.72,15.72,0,0,1,0,2.17,7.63,7.63,0,0,1-.28,1.5,2,2,0,0,1-2.27,1.33,13.6,13.6,0,0,1-1.36-.46c-.2-.07-.5-.09-.58-.23-.34-.59-1-.91-1.26-1.59a3.2,3.2,0,0,1,0-2.24,4.81,4.81,0,0,0,.27-1.25,6.61,6.61,0,0,1,0-.89c0-.2-.12-.22-.23-.18a1.58,1.58,0,0,0-.46.25c-.5.45-1,.9-1.49,1.36a6.28,6.28,0,0,1-2.36,1.34,3.24,3.24,0,0,1-1.83-.23A5.58,5.58,0,0,1,47.51,74a.39.39,0,0,1,0-.35,5.88,5.88,0,0,1,1.24-2.29c.66-.68,1.3-1.37,1.94-2.06.13-.15.21-.36.36-.47s.07-.28.07-.44-.19-.22-.33-.18c-.58.19-1.17.39-1.74.62s-1.07.51-1.62.74a12.32,12.32,0,0,1-2,.71,1.24,1.24,0,0,1-1.12-.38,2.4,2.4,0,0,1-.61-2.2,4.86,4.86,0,0,1,1-2,9,9,0,0,1,.9-1.25s.06-.13,0-.16.23-.19,0-.35-.23,0-.35,0a14,14,0,0,0-2.57,1.19,4.78,4.78,0,0,1-2.88.68,1.87,1.87,0,0,1-1.61-1.05.45.45,0,0,1,0-.36,5.85,5.85,0,0,1,.86-1.57c.45-.69.91-1.37,1.41-2,.33-.44.73-.82,1.09-1.23.12-.14.15,0,.23,0a5.11,5.11,0,0,0,1.92,1.06,11.27,11.27,0,0,0,2.31.47,7.64,7.64,0,0,0,2-.16,4.57,4.57,0,0,0,1.7-.83A6.47,6.47,0,0,0,51,58.67a2.31,2.31,0,0,0-.09-3,2.71,2.71,0,0,0-1.68-1.35s0-.22,0-.26c.28-.21.6-.38.87-.6a5.38,5.38,0,0,0,2.07-2.58,1.57,1.57,0,0,0-.06-1.21,2.51,2.51,0,0,0-1.87-1.34,2.68,2.68,0,0,0-2,.27c-.47-.07-.8.27-1.21.39-.19.07-.33.3-.5.45s-.11,0-.17,0-.05-.17,0-.21A4.73,4.73,0,0,0,47,47.57a1.92,1.92,0,0,0-.73-2c-.08,0-.2,0-.3,0a4,4,0,0,0-2.39.56l-2.37,1.19a1.69,1.69,0,0,1-.24.08,1.46,1.46,0,0,1,0-.3,16.43,16.43,0,0,0,.64-1.78A5.37,5.37,0,0,0,42,43.6c0-.16.11-.34.11-.51a3.53,3.53,0,0,0-.57-2.25,1.08,1.08,0,0,0-.86-.48c-.06,0-.12-.06-.18-.09s.12-.13.2-.15a1.07,1.07,0,0,1,.31,0,10.11,10.11,0,0,0,2.62-.43,4,4,0,0,0,2.23-1.39,6.48,6.48,0,0,0,.61-.87c.31-.49.57-1,.9-1.49a.7.7,0,0,1,.83-.34,4.69,4.69,0,0,0,2.45-.48c.82-.3,1.61-.64,2.4-1,.37-.16.7-.4,1.06-.59a5.52,5.52,0,0,0,1.36-1.1c.11-.12.21-.07.22.11a5.09,5.09,0,0,0,.89,2c.13.22.46.35.71.49a4.64,4.64,0,0,0,2.45.83,3.17,3.17,0,0,0,1.14-.27,15.61,15.61,0,0,0,2.53-1.24,8.82,8.82,0,0,0,2.27-1.56c.4,0,.53-.4.8-.58a2.87,2.87,0,0,0,.59-.8.92.92,0,0,1,.22-.22c.06,0,.21,0,.23,0,.4.8,1.22.94,1.92,1.25a12,12,0,0,0,1.33.4,1.89,1.89,0,0,0,2-.38c.17-.15.29-.15.39,0a8.2,8.2,0,0,1,.43.76,5.37,5.37,0,0,0,1.86,2.15,1.32,1.32,0,0,0,1.58.07c.56-.36,1.18-.65,1.75-1a4.41,4.41,0,0,0,.74-.63c.13-.13.27-.16.34,0a1.47,1.47,0,0,0,.92.77,8.26,8.26,0,0,0,1.61.78,1,1,0,0,0,1-.23c.55-.56,1-1.19,1.52-1.79a2.91,2.91,0,0,1,.26-.33,1.84,1.84,0,0,0,.56-1.9c0-.19.18-.22.07-.35.08,0,.22,0,.23,0a16.26,16.26,0,0,0,.86,1.45,4.17,4.17,0,0,1,.26.46,6.15,6.15,0,0,0,1.2,1.74.56.56,0,0,0,1,0,3.27,3.27,0,0,0,.28-.37,4.52,4.52,0,0,0,.79.65,1.38,1.38,0,0,0,.6.2,4,4,0,0,0,2-.48c.79-.34,1.61-.62,2.41-1,.29-.13.26,0,.24.2a4.81,4.81,0,0,1-.12.76.51.51,0,0,1-.68.32c-.23-.14-.36,0-.54,0a5.78,5.78,0,0,0-2.07.89,4.65,4.65,0,0,0-.93.84c-.35.43,0,.8.2,1.17a1.3,1.3,0,0,0,.15.18.75.75,0,0,1-.29,0,17.64,17.64,0,0,0-2.11-.45,10.39,10.39,0,0,0-3-.07A7.74,7.74,0,0,0,83.16,39a.39.39,0,0,0-.06.54c.72.85,1.21,1.9,2.25,2.45.05,0,.08.11.11.17s-.1.07-.15.07c-.37,0-.75,0-1.12,0a3.89,3.89,0,0,0-2,.73c-.1.06-.15.22-.21.35a2.52,2.52,0,0,0-.12.29c-.1,0-.24-.05-.31-.12a1.92,1.92,0,0,0-1.17-.65c-.53-.07-1-.39-1.61-.11a2.54,2.54,0,0,1-.88.1,10.65,10.65,0,0,0-2.61.79.85.85,0,0,0-.33.24c-.07.06-.09.17-.14.25-.06-.1-.17-.2-.17-.3a6.08,6.08,0,0,0-.25-1.27,2.69,2.69,0,0,0-1.23-1.9A1.74,1.74,0,0,0,72,40.39a3.54,3.54,0,0,0-1.73.47,5,5,0,0,0-2.16,2.4c-.08.24-.27.27-.45.07a5.89,5.89,0,0,0-3-1.55,4.57,4.57,0,0,0-1.84,0c-.74.12-1.43.38-2.14.56-.37.1-.73.24-1.09.37A13.65,13.65,0,0,0,57.38,44a11.54,11.54,0,0,0-2.44,2.19.28.28,0,0,0,0,.29,1.5,1.5,0,0,0,1.57.56c.91-.18,1.69-.67,2.58-.86a5.26,5.26,0,0,1,1.67-.32.62.62,0,0,1,.19.07c-.06.06-.11.15-.18.17a4,4,0,0,1-.84.22,5.18,5.18,0,0,0-1.85.8,16.72,16.72,0,0,0-2.12,1.33c-.51.35-1,.8-1.44,1.17a16.3,16.3,0,0,0-2.8,3,3.22,3.22,0,0,0-.46,1,1,1,0,0,0,.11.51,2.38,2.38,0,0,0,2.05,1.56.77.77,0,0,0,.37,0,12.2,12.2,0,0,0,2.62-1.21c.79-.54,1.71-.9,2.51-1.44a12.58,12.58,0,0,1,2.32-1,15.3,15.3,0,0,1,2-.55c.06,0,.14,0,.21.07a.74.74,0,0,1-.12.17,7.17,7.17,0,0,0-2,1.92c-.25.32-.52.62-.79.92A10.36,10.36,0,0,0,59,56.78c-.26.48-.23,1-.44,1.5.18.25.36.52.56.76a1,1,0,0,0,.89.26c.29,0,.65.09.79-.31A9.62,9.62,0,0,0,63,56.63a5,5,0,0,1,3-1.85l.13-.05a.49.49,0,0,1,0,.17c-.11.28-.22.57-.35.85a31.12,31.12,0,0,0-.86,3,.64.64,0,0,0,.21.72c.38.32.69.72,1.07,1a2.4,2.4,0,0,0,1.51.54,2.3,2.3,0,0,0,1.16-.12,2.51,2.51,0,0,0,.92-.67,5.75,5.75,0,0,0,.78-1.3,1.63,1.63,0,0,0,.2-.79.15.15,0,0,1,.11-.11s.13,0,.13.08c0,.44.33.66.59.94a1.39,1.39,0,0,0,1.41.31,1.45,1.45,0,0,0,.73-.82,3.47,3.47,0,0,0-.23-3.32.44.44,0,0,1,.08-.61A2.48,2.48,0,0,1,75.18,54c.83-.12,1.67-.1,2.5-.14a.41.41,0,0,1,.19,0s.11.06.11.1a.16.16,0,0,1-.07.14c-.12.1-.25.19-.38.28a2.94,2.94,0,0,0-.83,1.09,9.43,9.43,0,0,0-1,2,2.29,2.29,0,0,0,.4,2.17,3,3,0,0,0,2.31,1.16,2.72,2.72,0,0,0,2.41-1.53,8.22,8.22,0,0,1,.49-.67,29.31,29.31,0,0,0,2-3.59,1,1,0,0,1,.18-.18.88.88,0,0,1,.06.27,5.33,5.33,0,0,0,.2,1.73,4.65,4.65,0,0,0,3.4,3.32,3.84,3.84,0,0,0,4.09-1,5.94,5.94,0,0,0,1.19-1.69c.21-.51.49-1,.74-1.5a.9.9,0,0,1,.18-.15,1,1,0,0,1,0,.17,13.43,13.43,0,0,0,.51,2.41,1.28,1.28,0,0,0,2.15.54c.16-.18.31-.38.46-.58s.33-.21.45,0,.2.29.31.43a2,2,0,0,0,1.85.8c.25,0,.42,0,.39.34a2.52,2.52,0,0,0,.54,1.63,4.29,4.29,0,0,0,2.84,1.84,2.85,2.85,0,0,0,.86-.08C104,63.26,104.05,63.35,104,63.53ZM89.65,34.15a4.52,4.52,0,0,0,.79.65,1.38,1.38,0,0,0,.6.2,4,4,0,0,0,2-.48c.79-.34,1.61-.62,2.41-1,.29-.13.26,0,.24.2a4.81,4.81,0,0,1-.12.76.51.51,0,0,1-.68.32c-.23-.14-.36,0-.54,0a5.78,5.78,0,0,0-2.07.89,4.65,4.65,0,0,0-.93.84c-.35.43,0,.8.2,1.17a1.3,1.3,0,0,0,.15.18.75.75,0,0,1-.29,0,17.64,17.64,0,0,0-2.11-.45,10.39,10.39,0,0,0-3-.07A7.74,7.74,0,0,0,83.16,39a.39.39,0,0,0-.06.54c.72.85,1.21,1.9,2.25,2.45.05,0,.08.11.11.17s-.1.07-.15.07c-.37,0-.75,0-1.12,0a3.89,3.89,0,0,0-2,.73c-.1.06-.15.22-.21.35a2.52,2.52,0,0,0-.12.29c-.1,0-.24-.05-.31-.12a1.92,1.92,0,0,0-1.17-.65c-.53-.07-1-.39-1.61-.11a2.54,2.54,0,0,1-.88.1,10.65,10.65,0,0,0-2.61.79.85.85,0,0,0-.33.24c-.07.06-.09.17-.14.25-.06-.1-.17-.2-.17-.3a6.08,6.08,0,0,0-.25-1.27,2.69,2.69,0,0,0-1.23-1.9A1.74,1.74,0,0,0,72,40.39a3.54,3.54,0,0,0-1.73.47,5,5,0,0,0-2.16,2.4c-.08.24-.27.27-.45.07a5.89,5.89,0,0,0-3-1.55,4.57,4.57,0,0,0-1.84,0c-.74.12-1.43.38-2.14.56-.37.1-.73.24-1.09.37A13.65,13.65,0,0,0,57.38,44a11.54,11.54,0,0,0-2.44,2.19.28.28,0,0,0,0,.29,1.5,1.5,0,0,0,1.57.56c.91-.18,1.69-.67,2.58-.86a5.26,5.26,0,0,1,1.67-.32.62.62,0,0,1,.19.07c-.06.06-.11.15-.18.17a4,4,0,0,1-.84.22,5.18,5.18,0,0,0-1.85.8,16.72,16.72,0,0,0-2.12,1.33c-.51.35-1,.8-1.44,1.17a16.3,16.3,0,0,0-2.8,3,3.22,3.22,0,0,0-.46,1,1,1,0,0,0,.11.51,2.38,2.38,0,0,0,2.05,1.56.77.77,0,0,0,.37,0,12.2,12.2,0,0,0,2.62-1.21c.79-.54,1.71-.9,2.51-1.44a12.58,12.58,0,0,1,2.32-1,15.3,15.3,0,0,1,2-.55c.06,0,.14,0,.21.07a.74.74,0,0,1-.12.17,7.17,7.17,0,0,0-2,1.92c-.25.32-.52.62-.79.92A10.36,10.36,0,0,0,59,56.78c-.26.48-.23,1-.44,1.5.18.25.36.52.56.76a1,1,0,0,0,.89.26c.29,0,.65.09.79-.31A9.62,9.62,0,0,0,63,56.63a5,5,0,0,1,3-1.85l.13-.05a.49.49,0,0,1,0,.17c-.11.28-.22.57-.35.85a31.12,31.12,0,0,0-.86,3,.64.64,0,0,0,.21.72c.38.32.69.72,1.07,1a2.4,2.4,0,0,0,1.51.54,2.3,2.3,0,0,0,1.16-.12,2.51,2.51,0,0,0,.92-.67,5.75,5.75,0,0,0,.78-1.3,1.63,1.63,0,0,0,.2-.79.15.15,0,0,1,.11-.11s.13,0,.13.08c0,.44.33.66.59.94a1.39,1.39,0,0,0,1.41.31,1.45,1.45,0,0,0,.73-.82,3.47,3.47,0,0,0-.23-3.32.44.44,0,0,1,.08-.61A2.48,2.48,0,0,1,75.18,54c.83-.12,1.67-.1,2.5-.14a.41.41,0,0,1,.19,0s.11.06.11.1a.16.16,0,0,1-.07.14c-.12.1-.25.19-.38.28a2.94,2.94,0,0,0-.83,1.09,9.43,9.43,0,0,0-1,2,2.29,2.29,0,0,0,.4,2.17,3,3,0,0,0,2.31,1.16,2.72,2.72,0,0,0,2.41-1.53,8.22,8.22,0,0,1,.49-.67,29.31,29.31,0,0,0,2-3.59,1,1,0,0,1,.18-.18.88.88,0,0,1,.06.27,5.33,5.33,0,0,0,.2,1.73,4.65,4.65,0,0,0,3.4,3.32,3.84,3.84,0,0,0,4.09-1,5.94,5.94,0,0,0,1.19-1.69c.21-.51.49-1,.74-1.5a.9.9,0,0,1,.18-.15,1,1,0,0,1,0,.17,13.43,13.43,0,0,0,.51,2.41,1.28,1.28,0,0,0,2.15.54c.16-.18.31-.38.46-.58s.33-.21.45,0,.2.29.31.43a2,2,0,0,0,1.85.8c.25,0,.42,0,.39.34a2.52,2.52,0,0,0,.54,1.63,4.29,4.29,0,0,0,2.84,1.84,2.85,2.85,0,0,0,.86-.08l1.23-.11a4.62,4.62,0,0,0,2-1.24,5.51,5.51,0,0,0,1.45-2.39,2.83,2.83,0,0,1,.14-.44.34.34,0,0,1,.42-.17,2.83,2.83,0,0,0,3.18-1.54,2.09,2.09,0,0,0,0-1.57c-.1-.29,0-.24.19-.26.36-.05.72.1,1.08-.1l.93-.09a.33.33,0,0,1,.14-.18,2.49,2.49,0,0,0,1-.64,1.05,1.05,0,0,0,.43-.94c0-.28.09-.38.37-.43a12.09,12.09,0,0,0,2.37-.59,4.73,4.73,0,0,0,1.38-.91,2.14,2.14,0,0,0,.62-1.89c0-.3-.21-.46-.32-.68s-.33-.27-.51-.4-.26-.43,0-.47c.52-.08.78-.51,1.19-.73s.33-.41.1-.76-.5-.91-1-1.15c-.22-.11,0-.19,0-.19.4-.15.8-.28,1.19-.44s1-.45,1.53-.67a2.18,2.18,0,0,1,.48-.19,2.65,2.65,0,0,0,2-1.8c.24-.6.3-1.24.48-1.85.11-.37.1-.34.42-.12a4.51,4.51,0,0,0,1.67.93,1.48,1.48,0,0,0,.42,0,10.41,10.41,0,0,0,1.12-.16c.53-.12,1.05-.27,1.57-.41l.68-.17a1.41,1.41,0,0,0,1-1.32A1.87,1.87,0,0,1,133,39c.09,0,.2.08.25.15a6.89,6.89,0,0,1,.4.64A9.07,9.07,0,0,0,136,42.26a7.75,7.75,0,0,0,1.54.8l1.51.18a7,7,0,0,0,2.76-1.16,1.53,1.53,0,0,0,.8-1.58c-.06-.43-.14-.86-.21-1.29a.33.33,0,0,1,.07-.24.3.3,0,0,1,.25,0,1.05,1.05,0,0,1,.26.13,1.86,1.86,0,0,0,1.76,0,7.52,7.52,0,0,0,1.31-.92,1.55,1.55,0,0,0,.64-1.82c-.42-.82-.73-1.77-1.68-2.21-.06,0-.13-.13-.12-.17a.27.27,0,0,1,.17-.16c.34-.1.69-.15,1-.26a10,10,0,0,0,1.74-.61c.93-.54,1.23-.94,1-1.75a6.44,6.44,0,0,0-1.62-3.07c-.29-.28-.61-.53-.92-.79a7.13,7.13,0,0,0-2.83-1.57,6.68,6.68,0,0,0-2.12-.27,3.82,3.82,0,0,0-1.78.34s-.16,0-.16,0,0-.18.05-.21c.19-.13.4-.24.6-.36a15.3,15.3,0,0,1,1.44-.87c.65-.3,1.33-.51,2-.76.29-.11.34-.31.14-.55a1.3,1.3,0,0,0-.31-.31,5.92,5.92,0,0,0-3.06-.89,21.45,21.45,0,0,0-3,.12c-.16,0-.35-.07-.52-.08a3.32,3.32,0,0,0-2.31.37,4.36,4.36,0,0,1-.91.52c-.26.1-.56.36-.83.15a6.79,6.79,0,0,0-2.59-.83.81.81,0,0,1-.18-.1l.14-.14a13.91,13.91,0,0,0,2.62-2.09,2.15,2.15,0,0,0,.73-2,1.89,1.89,0,0,0-1.68-1.43,19.29,19.29,0,0,0-3.31.11,9.93,9.93,0,0,0-2.21.68c-.77.36-1.5.8-2.25,1.2a1.7,1.7,0,0,1-.24.09c0-.09,0-.2.08-.25A18.3,18.3,0,0,0,125.75,16c.63-.87,1.35-1.67,1.91-2.58a1.93,1.93,0,0,0,.09-2.32,1.49,1.49,0,0,0-.74-.6,3.55,3.55,0,0,0-1.94,0c-.5.1-.9.42-1.43.48a3.73,3.73,0,0,0-1.39.52A11.88,11.88,0,0,0,119,14.59a14,14,0,0,1-1.12,1.4,3.66,3.66,0,0,0-1,2c0,.2,0,.52-.06.58a1.48,1.48,0,0,1-.67,0c-.33,0-.66,0-1,0a1.85,1.85,0,0,0-.41.07,3.69,3.69,0,0,0-1.9,1.4,1.8,1.8,0,0,1-.39.27,3.07,3.07,0,0,1,.07-.42c0-.07.11-.13.11-.19a13,13,0,0,0,.27-2.79A2.14,2.14,0,0,0,110.71,15a3.25,3.25,0,0,0-1.77.5A17.73,17.73,0,0,0,107,17c-.42.38-.76.85-1.16,1.26a5.21,5.21,0,0,0-1.47,2.32.21.21,0,0,1-.13.08s-.1,0-.1-.05a2.4,2.4,0,0,0-.64-1.23,5.84,5.84,0,0,0-3-2.37c-.23-.07-.49,0-.71-.1a2.87,2.87,0,0,0-3.13,1.13.8.8,0,0,0,0,.93,5.35,5.35,0,0,0,1.89,2c.1,0,.15.22.2.34s-.07.1-.1.1a5,5,0,0,0-2.11-.32,2.29,2.29,0,0,0-.28-.07,7.43,7.43,0,0,0-1.7,0,19.71,19.71,0,0,0-2.46.82c-.72.27-1.42.57-2.13.87a.71.71,0,0,0-.29.18c-.18.2-.32.42-.5.61s-.58.19-.62-.19a1.54,1.54,0,0,0-.51-.91,1.58,1.58,0,0,1-.22-.23,4.72,4.72,0,0,0-2-1.83l-1-.61c-.08-.05-.12-.14-.19-.22a2,2,0,0,1,.26.05A26.81,26.81,0,0,0,88,20.59a8.69,8.69,0,0,0,1.53.23.91.91,0,0,0,.74-.38,4.79,4.79,0,0,0,.75-1.62.54.54,0,0,0,0-.35,5,5,0,0,0-.84-1.77c-.14-.15-.4-.25-.45-.42a1,1,0,0,0-.33-.55,3.48,3.48,0,0,1-.52-.41,7.32,7.32,0,0,0-3.15-1.86c-.5-.21-1-.32-1.53-.51a4.5,4.5,0,0,0-1.66-.36,7.3,7.3,0,0,1-.81,0c-.08,0-.16-.1-.24-.16a1.09,1.09,0,0,1,.13-.17l.25-.16a2.45,2.45,0,0,0,.87-2.65,5.13,5.13,0,0,0-1.51-2.23,2,2,0,0,0-.92-.46,16.12,16.12,0,0,0-1.83-.26,4.56,4.56,0,0,0-2.78.63A5.64,5.64,0,0,0,74,8.28c0,.05-.14,0-.21.05s0-.15,0-.21A1.44,1.44,0,0,0,74,6.85c-.16-.34.19-.65-.09-.92a2.89,2.89,0,0,0-.22-1.8,6.62,6.62,0,0,0-.6-1,4.23,4.23,0,0,0-.7-.95c-.22-.25-.53-.43-.77-.67A10.24,10.24,0,0,0,69.92.26,1.49,1.49,0,0,0,69,0c-.38,0-.76.08-1.13.1a4.92,4.92,0,0,0-2,.65,3.16,3.16,0,0,0-.59.35,14.65,14.65,0,0,1-1.2,1A2.26,2.26,0,0,0,63,3.58c0,.11-.15.19-.23.29a2.65,2.65,0,0,0-.11-.3,1.47,1.47,0,0,0-.21-.22l-.74-.62a3,3,0,0,0-3.86.16c-.27.24-.44.59-.71.82a1.92,1.92,0,0,0-.56,1.2,1.56,1.56,0,0,0,.31,1.35c.05.07,0,.2,0,.29s-.22,0-.29-.07a4.39,4.39,0,0,0-2.19-.7A8.08,8.08,0,0,0,52,5.7a10.36,10.36,0,0,0-2.17.51,4.65,4.65,0,0,0-2.19,1.61,8.05,8.05,0,0,0-1.23,2.36c-.13.44-.14.9-.24,1.33a4.57,4.57,0,0,0,.29,2.9c.18.43.2.42-.19.53a1.1,1.1,0,0,0-.18,0,16.27,16.27,0,0,0-1.71.38A4.29,4.29,0,0,0,42,16.91a7.6,7.6,0,0,0-1.26,2.47,2.54,2.54,0,0,0,.85,2.44,5.41,5.41,0,0,0,1.51.73,3.61,3.61,0,0,0,1,.36,4.77,4.77,0,0,0,2.24-.27,3.76,3.76,0,0,1,.73-.2,1.18,1.18,0,0,1,.41,0l-.35.19c-.13.07-.34.11-.38.21-.13.33-.41.4-.67.54a2.35,2.35,0,0,0-.81.56,10.48,10.48,0,0,0-1.4,2c-.08.17-.19.33-.29.5-.11-.15-.21-.31-.33-.45a6.63,6.63,0,0,0-.54-.52,2.63,2.63,0,0,0-.44-.3,7.32,7.32,0,0,0-1.07-.57,3,3,0,0,0-1.95,0A4.71,4.71,0,0,0,37,25.82c-.31.31-.66.59-1,.88s-.54.29-.86-.06-.35-.44-.53-.65a7.69,7.69,0,0,0-1.21-1,18.77,18.77,0,0,0-1.51-1.15,3.29,3.29,0,0,0-2.08-.51c-.5,0-1,0-1.51.09s-1,.2-1.52.23a6.84,6.84,0,0,0-1.34.38,3.13,3.13,0,0,0-2,1.37A10.94,10.94,0,0,0,23,26.56a3.54,3.54,0,0,0-.29,2.14c0,.1,0,.2.08.31L22.43,29a9.16,9.16,0,0,0-1.17-.17c-.35,0-.71.12-1.06.11a5.33,5.33,0,0,0-1.95.43c-.82.26-1.62.59-2.45.84a7.5,7.5,0,0,0-2.31,1,24.46,24.46,0,0,0-2.56,2.08c-1.16,1.1-2.26,2.28-3.35,3.46a2.74,2.74,0,0,0-.81,1.46,13.9,13.9,0,0,1-.4,1.34c0,.06-.09.12-.08.18a22.61,22.61,0,0,0,.47,2.48,1.36,1.36,0,0,0,1.55,1,2.17,2.17,0,0,0,1.31-.83c.44-.62,1-1.19,1.43-1.78a1,1,0,0,1,.13-.09.35.35,0,0,1,0,.17c0,.36-.06.72-.12,1.07a10.2,10.2,0,0,0-.26,2.35,4.43,4.43,0,0,0,.85,2.26.73.73,0,0,0,1.27,0,19.19,19.19,0,0,0,1.13-1.65c.26-.42.46-.89.74-1.31s.34-.3.5,0c.27.58.5,1.17.76,1.75a4.43,4.43,0,0,0,1.27,1.7,1.33,1.33,0,0,0,.21.09l.63.46a4.42,4.42,0,0,1,1.12.3,5.44,5.44,0,0,0,2.23.17,1.79,1.79,0,0,0,1.25-1,11.59,11.59,0,0,0,.69-1.52,2.18,2.18,0,0,0,.2-1,8.55,8.55,0,0,1,0-1.24c0-.12.22-.32.25-.32.53.28,1,0,1.48-.11a1.36,1.36,0,0,0,1-.75,12.63,12.63,0,0,0,.77-1.67,1.59,1.59,0,0,1,.13-.22l.15.21a6.52,6.52,0,0,0,.55.82l0,.15s0,0-.07,0A3,3,0,0,0,27,42c-.33.37-.62.78-.93,1.17a3.56,3.56,0,0,1-.45.56,2.55,2.55,0,0,0-.79,1.85c0,.37,0,.75,0,1.12a.55.55,0,0,0,.36.63,3.85,3.85,0,0,0,1.47.51c.06,0,.11.08.17.12l-.16.13A31.09,31.09,0,0,0,24,50.2a11.54,11.54,0,0,0-1.88,2.38,8.74,8.74,0,0,0-.69,1.65.82.82,0,0,0,.26.8,2.45,2.45,0,0,0,1.67.77,3.17,3.17,0,0,0,1.88-.41c1-.47,2-1,2.94-1.45.31-.16.6-.37.91-.52s.88-.39,1.32-.57a.47.47,0,0,1,.17,0c0,.07,0,.15,0,.21A7.47,7.47,0,0,0,30,55.56a5.5,5.5,0,0,0-.11.69A3.38,3.38,0,0,0,30.44,58a8.62,8.62,0,0,0,2.07,2.19.9.9,0,0,0,.3.17,3.69,3.69,0,0,0,3.48-.33,9.44,9.44,0,0,0,2-1.95c.18-.25.42-.45.59-.69.31-.43.59-.88.88-1.32,0-.06.09-.1.13-.16s.11.11.12.17A6.92,6.92,0,0,0,41.23,59l.58.59a5.11,5.11,0,0,0,1.92,1.06,11.27,11.27,0,0,0,2.31.47,7.64,7.64,0,0,0,2-.16,4.57,4.57,0,0,0,1.7-.83A6.47,6.47,0,0,0,51,58.67a2.31,2.31,0,0,0-.09-3,2.71,2.71,0,0,0-1.68-1.35s0-.22,0-.26c.28-.21.6-.38.87-.6a5.38,5.38,0,0,0,2.07-2.58,1.57,1.57,0,0,0-.06-1.21,2.51,2.51,0,0,0-1.87-1.34,2.68,2.68,0,0,0-2,.27c-.47-.07-.8.27-1.21.39-.19.07-.33.3-.5.45s-.11,0-.17,0-.05-.17,0-.21A4.73,4.73,0,0,0,47,47.57a1.92,1.92,0,0,0-.73-2c-.08,0-.2,0-.3,0a4,4,0,0,0-2.39.56l-2.37,1.19a1.69,1.69,0,0,1-.24.08,1.46,1.46,0,0,1,0-.3,16.43,16.43,0,0,0,.64-1.78A5.37,5.37,0,0,0,42,43.6c0-.16.11-.34.11-.51a3.53,3.53,0,0,0-.57-2.25,1.08,1.08,0,0,0-.86-.48c-.06,0-.12-.06-.18-.09s.12-.13.2-.15a1.07,1.07,0,0,1,.31,0,10.11,10.11,0,0,0,2.62-.43,4,4,0,0,0,2.23-1.39,6.48,6.48,0,0,0,.61-.87c.31-.49.57-1,.9-1.49a.7.7,0,0,1,.83-.34,4.69,4.69,0,0,0,2.45-.48c.82-.3,1.61-.64,2.4-1,.37-.16.7-.4,1.06-.59a5.52,5.52,0,0,0,1.36-1.1c.11-.12.21-.07.22.11a5.09,5.09,0,0,0,.89,2c.13.22.46.35.71.49a4.64,4.64,0,0,0,2.45.83,3.17,3.17,0,0,0,1.14-.27,15.61,15.61,0,0,0,2.53-1.24,8.82,8.82,0,0,0,2.27-1.56c.4,0,.53-.4.8-.58a2.87,2.87,0,0,0,.59-.8.92.92,0,0,1,.22-.22c.06,0,.21,0,.23,0,.4.8,1.22.94,1.92,1.25a12,12,0,0,0,1.33.4,1.89,1.89,0,0,0,2-.38c.17-.15.29-.15.39,0a8.2,8.2,0,0,1,.43.76,5.37,5.37,0,0,0,1.86,2.15,1.32,1.32,0,0,0,1.58.07c.56-.36,1.18-.65,1.75-1a4.41,4.41,0,0,0,.74-.63c.13-.13.27-.16.34,0a1.47,1.47,0,0,0,.92.77,8.26,8.26,0,0,0,1.61.78,1,1,0,0,0,1-.23c.55-.56,1-1.19,1.52-1.79a2.91,2.91,0,0,1,.26-.33,1.84,1.84,0,0,0,.56-1.9c0-.19.18-.22.07-.35.08,0,.22,0,.23,0a16.26,16.26,0,0,0,.86,1.45,4.17,4.17,0,0,1,.26.46,6.15,6.15,0,0,0,1.2,1.74.56.56,0,0,0,1,0,3.27,3.27,0,0,0,.28-.37M56.13,32.39c0,.07,0,.07-.05.08Zm-8.83,3.1-.08-.05C47.29,35.42,47.29,35.46,47.3,35.49Z"/><path id="fill4" class="cls-2" d="M39.66,74c.17,0,.21,0,.22.16A7,7,0,0,0,40,75.31a1.92,1.92,0,0,0,.76,1.36,3,3,0,0,0,1.32.57s.1.08.15.12a.58.58,0,0,1-.1.12,6.71,6.71,0,0,0-1.67,1.81,8.22,8.22,0,0,0-.66,1.41,5,5,0,0,0-.31,1.56c0,.28,0,.56-.07.84a4.82,4.82,0,0,0,0,.76,5.39,5.39,0,0,1,.08.56,1.59,1.59,0,0,0,.59,1.31,5,5,0,0,0,3,1.22,10.82,10.82,0,0,0,3-.27,15.36,15.36,0,0,0,3.26-1.13c.27-.11.32-.14.31.15a.91.91,0,0,1,0,.37,6,6,0,0,0-.24,2.14,1.82,1.82,0,0,0,.82,1.59A7.34,7.34,0,0,0,54.31,91a6.79,6.79,0,0,0,2-.42,6.58,6.58,0,0,0,2.14-1.13c.23-.21.43-.13.52.2s.13.65.21,1a7.48,7.48,0,0,0,2.75,3.57A33.32,33.32,0,0,0,65,96.42a6.41,6.41,0,0,0,1.13.73,10.36,10.36,0,0,0,3.29.75,7,7,0,0,0,.89-.11,5.83,5.83,0,0,0,2.86-.89,4.51,4.51,0,0,0,2.21-2.47,4.38,4.38,0,0,0,.13-.82c0-.27.14-.29.37-.19q.67.31,1.38.57a5.14,5.14,0,0,0,2.33.31,2.5,2.5,0,0,0,1.49-.62,2.44,2.44,0,0,0,.87-1.07,5.19,5.19,0,0,0,.18-3.48,2.14,2.14,0,0,1,0-.8.2.2,0,0,1,.14-.13,9.26,9.26,0,0,1,1.49,0,8.71,8.71,0,0,0,2.55.12,7.8,7.8,0,0,0,2.06-.74c.44-.19.44-.22.6.24a11,11,0,0,0,.66,1.85,1.26,1.26,0,0,0,.67.62,2,2,0,0,0,1.07.23,8,8,0,0,1,1-.09,4.17,4.17,0,0,0,2-.57.3.3,0,0,1,.16-.05,3.16,3.16,0,0,0,1.84-1,3.91,3.91,0,0,0,1.09-1.41,12,12,0,0,0,.77-1.92.5.5,0,0,1,.1-.19s.11.08.14.14.09.21.15.31a5.32,5.32,0,0,0,1.34,1.5,4.9,4.9,0,0,0,2.2,1,5.38,5.38,0,0,0,2.63-.23A3.85,3.85,0,0,0,107,86.58a12.89,12.89,0,0,1,.86-1.27,3.89,3.89,0,0,0,1-2c0-.07.08-.13.12-.2a.61.61,0,0,0,.07-.14l.06.16c.15.32,0,.64,0,1a12.55,12.55,0,0,0,.23,2.45,3,3,0,0,0,.79,1.61c.31.32.65.61,1,.92s.91.16,1.18.62c0,0,.12,0,.18,0a4,4,0,0,0,1.78.14,3.45,3.45,0,0,0,1-.27A8.1,8.1,0,0,0,118.07,87a14.81,14.81,0,0,0,2-3.55c.09-.25.22-.49.3-.74s.15-.16.26-.06.21.2.31.3a11.28,11.28,0,0,0,.92.91,7,7,0,0,0,2,1.17,3.52,3.52,0,0,0,2.43.14,5.77,5.77,0,0,0,2.54-1.94c.4-.48.72-1,1.09-1.53.11-.17.23-.21.31.07a3.42,3.42,0,0,0,.35.72,10.93,10.93,0,0,0,2.5,3.52c.19.17.41.31.6.48A5.23,5.23,0,0,0,136,87.81a4,4,0,0,0,2.09.15,4.14,4.14,0,0,0,2.27-1.28,5.4,5.4,0,0,0,1-2.73c0-.19.06-.23.25-.25a3.52,3.52,0,0,0,2.54-1.21,9.16,9.16,0,0,0,.7-.84,3.65,3.65,0,0,0,.75-2.61.5.5,0,0,0-.13-.25c-.1-.14-.22-.27-.33-.4a4.66,4.66,0,0,0,.49-.16c.14-.07.26-.17.4-.25a3.57,3.57,0,0,0,1.65-4.08,1.83,1.83,0,0,0-.31-.68,3.51,3.51,0,0,0-3.1-1.2,7.74,7.74,0,0,0-1.46.35.23.23,0,0,1-.19-.09c0-.16-.06-.39,0-.47.44-.47.38-1.1.62-1.62a4.67,4.67,0,0,0,0-1.39c-.06,0-.17-.34-.25-.32l0,0-.23-.13a4.65,4.65,0,0,1-2.51,0,3,3,0,0,1-2-1.68,12.35,12.35,0,0,1-1.14-2.76,1.11,1.11,0,0,0-.15-.31.31.31,0,0,0-.55,0,4.47,4.47,0,0,0-.53.78A4,4,0,0,1,134.37,66a8.23,8.23,0,0,1-1.51.56,3.14,3.14,0,0,1-1.33,0,1.26,1.26,0,0,1-1-1,7,7,0,0,1,.66-3.41,13.66,13.66,0,0,0,.58-1.5.6.6,0,0,0-.15-.48c0-.05-.3,0-.41.1-.49.39-.95.81-1.44,1.18a16.11,16.11,0,0,1-2.68,2,10.07,10.07,0,0,1-1.94.58c-.21.06-.42.09-.63.13a4.21,4.21,0,0,1-1.77-.41.68.68,0,0,1-.4-.54,1.73,1.73,0,0,1,.33-1.23,2.5,2.5,0,0,0,.39-.65,4.46,4.46,0,0,1,1-1.33,10.1,10.1,0,0,0,1.17-1.19c.64-.87,1.42-1.62,2-2.51a6.77,6.77,0,0,1,.57-.83c.1-.1.06-.33.09-.49-.14,0-.31-.07-.41,0a4,4,0,0,0-.62.47,12.94,12.94,0,0,0-1.08.84,6.29,6.29,0,0,1-2.8,1.68,4.26,4.26,0,0,1-1.7.07.94.94,0,0,1-.58-1.4c.45-.68,1-1.3,1.44-2a.9.9,0,0,0,.17-.3c.06-.24,0-.35-.3-.3a1.22,1.22,0,0,0-.38.13c-.9.52-1.84,1-2.72,1.56a4.2,4.2,0,0,1-2,.66,4.93,4.93,0,0,1-1.89-.37c-.23-.08-.4-.35-.58-.55a.33.33,0,0,1,.14-.18l-1-.86c-.07,0-.21.18-.23.29,0,.3,0,.29-.25.32a4.19,4.19,0,0,1-2.25-.43,3.13,3.13,0,0,0-.91-.18.43.43,0,0,0-.32.21.34.34,0,0,0,.1.31,8,8,0,0,0,.81.46.76.76,0,0,0,.38.11c.46,0,.85.17.91.58a1.74,1.74,0,0,1-.32,1.6,2.69,2.69,0,0,1-1.9.82c-.59,0-.74-.16-.74-.75,0-.39,0-.76-.48-.91a1.52,1.52,0,0,0-1.22.05c-.35.18-.41.42-.15.69s.6.62.91.92a.68.68,0,0,1,.23.76,5.45,5.45,0,0,1-1.2,2.31,4.44,4.44,0,0,1-2.13,1.28s-.11,0-.17,0l-.52.47a.64.64,0,0,0-.13.31c0,.19,0,.43-.14.56a3.25,3.25,0,0,1-1.29,1.06c-.31.1-.64.18-1,.25-.16,0-.33,0-.4.23s.16.28.25.39c.25.3.56.54.82.84a1.7,1.7,0,0,1,.18,1.5,8.14,8.14,0,0,1-.68,1.9,9.16,9.16,0,0,1-1.87,2.65,9.47,9.47,0,0,1-1.19,1.18,5.6,5.6,0,0,1-2.49.91A7.65,7.65,0,0,1,92,74.18a16.31,16.31,0,0,1-1.83-1c-.6-.37-1.29-.62-1.87-1-.08-.06-.18-.08-.25-.14A10.41,10.41,0,0,1,87,71.06c-.48-.53-.92-1.11-1.37-1.67a2.86,2.86,0,0,0-.4-.45c-.35-.28-.62-.15-.67.31a12.32,12.32,0,0,1-.8,3,12.54,12.54,0,0,1-1.39,2.35c-.06.08-.2.12-.3.18a2.17,2.17,0,0,0-.45.25,2.29,2.29,0,0,1-2.11.25c-.65-.12-.9-.63-1.09-1.12a5.74,5.74,0,0,1-.15-3.21.41.41,0,0,0,0-.27c-.2,0-.42-.07-.55.15A10.88,10.88,0,0,1,77,71.9a12.62,12.62,0,0,1-2,2.32,1.69,1.69,0,0,1-1.84.27,1,1,0,0,1-.58-.85,4.7,4.7,0,0,0-.14-1.44c.25-.31-.11-.67.1-1s-.06-.76,0-1.1a3.31,3.31,0,0,1,.91-1.68c.13-.11.41-.2.27-.47s-.35-.19-.68,0l-.68.46a4.16,4.16,0,0,1-1.93.78A2.68,2.68,0,0,1,69.19,69c-.33-.1-.43-.35-.63-.55s-.45-.38-.43-.76a2.37,2.37,0,0,0-.28-.81c-.06-.17-.14-.31-.38-.27s-.32.13-.32.36,0,.75,0,1.12a8.4,8.4,0,0,1-.68,3.47,3.29,3.29,0,0,1-2.53,2.07,13.1,13.1,0,0,1-2.33.2c-.25,0-.5-.1-.76-.11s-.42.12-.4.47a15.72,15.72,0,0,1,0,2.17,7.63,7.63,0,0,1-.28,1.5,2,2,0,0,1-2.27,1.33,13.6,13.6,0,0,1-1.36-.46c-.2-.07-.5-.09-.58-.23-.34-.59-1-.91-1.26-1.59a3.2,3.2,0,0,1,0-2.24,4.81,4.81,0,0,0,.27-1.25,6.61,6.61,0,0,1,0-.89c0-.2-.12-.22-.23-.18a1.58,1.58,0,0,0-.46.25c-.5.45-1,.9-1.49,1.36a6.28,6.28,0,0,1-2.36,1.34,3.24,3.24,0,0,1-1.83-.23A5.58,5.58,0,0,1,47.51,74a.39.39,0,0,1,0-.35,5.88,5.88,0,0,1,1.24-2.29c.66-.68,1.3-1.37,1.94-2.06.13-.15.21-.36.36-.47s.07-.28.07-.44-.19-.22-.33-.18c-.58.19-1.17.39-1.74.62s-1.07.51-1.62.74a12.32,12.32,0,0,1-2,.71,1.24,1.24,0,0,1-1.12-.38Z"/><path id="fill3" class="cls-3" d="M44.72,64.57c0,.09-.06.18-.1.26-.29.46-.61.91-.88,1.38a3,3,0,0,0-.51,1.41c0,.32-.13.64-.1.95a4.09,4.09,0,0,0,.1.61,8.52,8.52,0,0,0-.7.62.92.92,0,0,0-.27.56c0,.55-.41.88-.64,1.3-.11.21-.16,0-.2,0-.29-.2-.48-.07-.64.17a6.61,6.61,0,0,0-.64,1,1.07,1.07,0,0,1-.92.65,3.09,3.09,0,0,1-3.09-1.4c-.18-.28-.43-.52-.61-.8-.3-.48-.6-1-.86-1.45-.09-.17-.1-.36-.35-.29s-.44.38-.39.55c.13.47.25.94.4,1.4s.07.67-.48.63a1.44,1.44,0,0,1-1-.38c-.14-.15-.38-.2-.55-.32-.36-.26-.79-.41-1-.86-.14-.27-.43-.25-.67,0l-2.41,2.16a2.16,2.16,0,0,1-1,.46,4.39,4.39,0,0,1-2.69-.5,7.54,7.54,0,0,1-1.69-.88,2.58,2.58,0,0,1-1-1.75c-.09-.66-.28-1.3-.36-2a4.37,4.37,0,0,1,.28-1.63c.11-.43.23-.85.33-1.29,0-.21-.09-.33-.31-.35a2.17,2.17,0,0,0-1.4.53,32.65,32.65,0,0,1-2.88,1.91,14.34,14.34,0,0,1-1.84.82,4.1,4.1,0,0,1-1.23.33,2.61,2.61,0,0,1-2.28-.91,1.61,1.61,0,0,1-.26-.76,3.85,3.85,0,0,1,.39-2,6.77,6.77,0,0,0,.22-.77c.1-.3.22-.58.31-.87a.74.74,0,0,0,.05-.41c0-.13-.12-.3-.35-.17-.48.26-1,.47-1.45.71a13.66,13.66,0,0,1-3.11,1.36c-.32.08-.62.21-.93.31A5.6,5.6,0,0,1,3.56,65a5.81,5.81,0,0,1-2.5-1.34A1.34,1.34,0,0,1,.8,62a6.89,6.89,0,0,1,.87-1.51A17.23,17.23,0,0,1,2.9,59c.4-.47.81-.91,1.23-1.36.08-.09.16-.23.26-.26.55-.16.84-.65,1.29-.94.93-.59,1.8-1.26,2.74-1.83a21.75,21.75,0,0,1,2.17-1.06,1.28,1.28,0,0,1,.55,0,7.49,7.49,0,0,0,1.06.13c.12,0,.41,0,.4-.31s-.09-.41-.38-.42-.63-.09-1-.12a.59.59,0,0,1-.49-.74,4.18,4.18,0,0,1,.55-1,5,5,0,0,1,1.34-1.42c.59-.42,1.14-.89,1.75-1.29a6.92,6.92,0,0,1,2-.82,4.82,4.82,0,0,1,1.81-.11,4.42,4.42,0,0,1,1.12.3,5.44,5.44,0,0,0,2.23.17,1.79,1.79,0,0,0,1.25-1,11.59,11.59,0,0,0,.69-1.52,2.18,2.18,0,0,0,.2-1,8.55,8.55,0,0,1,0-1.24c0-.12.22-.32.25-.32.53.28,1,0,1.48-.11a1.36,1.36,0,0,0,1-.75,12.63,12.63,0,0,0,.77-1.67,1.59,1.59,0,0,1,.13-.22l.15.21a7.84,7.84,0,0,0,.55.93A3.4,3.4,0,0,0,27,42c-.33.37-.62.78-.93,1.17a3.56,3.56,0,0,1-.45.56,2.55,2.55,0,0,0-.79,1.85c0,.37,0,.75,0,1.12a.55.55,0,0,0,.36.63,3.85,3.85,0,0,0,1.47.51c.06,0,.11.08.17.12l-.16.13A31.09,31.09,0,0,0,24,50.2a11.54,11.54,0,0,0-1.88,2.38,8.74,8.74,0,0,0-.69,1.65.82.82,0,0,0,.26.8,2.45,2.45,0,0,0,1.67.77,3.17,3.17,0,0,0,1.88-.41c1-.47,2-1,2.94-1.45.31-.16.6-.37.91-.52s.88-.39,1.32-.57a.47.47,0,0,1,.17,0c0,.07,0,.15,0,.21A7.47,7.47,0,0,0,30,55.56a5.5,5.5,0,0,0-.11.69A3.38,3.38,0,0,0,30.44,58a8.62,8.62,0,0,0,2.07,2.19.9.9,0,0,0,.3.17,3.69,3.69,0,0,0,3.48-.33,9.44,9.44,0,0,0,2-1.95c.18-.25.42-.45.59-.69.31-.43.59-.88.88-1.32,0-.06.09-.1.13-.16s.11.11.12.17A6.92,6.92,0,0,0,41.23,59c.1.15.12.2,0,.32a9.2,9.2,0,0,0-1.55,1.91c-.26.41-.49.84-.75,1.25s-.61,1-.92,1.42a1.17,1.17,0,0,0,.13,1.61,2.51,2.51,0,0,0,2.56.73,9.91,9.91,0,0,1,1.25-.3.52.52,0,0,0,.26-.12c.36-.35.89-.37,1.3-.62s.58-.4.88-.57C44.47,64.53,44.6,64.57,44.72,64.57Zm115.22-7.36a3.95,3.95,0,0,0-3.86-2.88,17.77,17.77,0,0,0-2.06.11l-.17.05a5,5,0,0,0-1.53.52c-.2.12-.4-.08-.55-.22a.22.22,0,0,1,0-.21,4.54,4.54,0,0,0,.7-2.51c0-.14.06-.27.08-.4.06-.37.13-.74.16-1.12a5.09,5.09,0,0,0-.29-1.81,2.23,2.23,0,0,0-1.38-1.64,4.56,4.56,0,0,0-1.21-.24c-.35,0-.71.11-1.06.1a3.37,3.37,0,0,0-1.63.44,19.06,19.06,0,0,0-2.57,1.45,4.68,4.68,0,0,0-1.5,1.2,2.8,2.8,0,0,1-.82.7.62.62,0,0,1-.5,0c-.22-.09-.09-.25,0-.39a.88.88,0,0,0,.12-.32,23.62,23.62,0,0,0,.4-2.89A1.56,1.56,0,0,0,141,45.62a2.92,2.92,0,0,0-2.42.59c-.44.34-.88.69-1.31,1.06-.24.21-.33-.14-.51-.12,0-.13-.16-.23,0-.4a3.76,3.76,0,0,0,.53-.77,8.41,8.41,0,0,0,.69-2.2c.14-.46,0-.51-.45-.72a7.75,7.75,0,0,1-1.54-.8,9.07,9.07,0,0,1-2.38-2.48,6.89,6.89,0,0,0-.4-.64c-.05-.07-.16-.1-.25-.15a1.87,1.87,0,0,0-.07.22,1.41,1.41,0,0,1-1,1.32l-.68.17c-.52.14-1,.29-1.57.41a10.41,10.41,0,0,1-1.12.16,1.48,1.48,0,0,1-.42,0,4.51,4.51,0,0,1-1.67-.93c-.32-.22-.31-.25-.42.12-.18.61-.24,1.25-.48,1.85a2.65,2.65,0,0,1-2,1.8,2.18,2.18,0,0,0-.48.19c-.51.22-1,.46-1.53.67s-.79.29-1.19.44c0,0-.26.08,0,.19.5.24.71.72,1,1.15s.24.57-.1.76-.67.65-1.19.73c-.26,0-.25.29,0,.47s.42.23.51.4.32.38.32.68a2.14,2.14,0,0,1-.62,1.89,4.73,4.73,0,0,1-1.38.91,12.09,12.09,0,0,1-2.37.59c-.28,0-.4.15-.37.43a1.05,1.05,0,0,1-.43.94,2.49,2.49,0,0,1-1,.64.33.33,0,0,0-.14.18c.18.2.35.47.58.55a4.93,4.93,0,0,0,1.89.37,4.2,4.2,0,0,0,2-.66c.88-.58,1.82-1,2.72-1.56a1.22,1.22,0,0,1,.38-.13c.25,0,.36.06.3.3a.9.9,0,0,1-.17.3c-.48.66-1,1.28-1.44,2a.94.94,0,0,0,.58,1.4,4.26,4.26,0,0,0,1.7-.07,6.29,6.29,0,0,0,2.8-1.68,12.94,12.94,0,0,1,1.08-.84,4,4,0,0,1,.62-.47c.1-.06.27,0,.41,0,0,.16,0,.39-.09.49a6.77,6.77,0,0,0-.57.83c-.6.89-1.38,1.64-2,2.51a10.1,10.1,0,0,1-1.17,1.19,4.46,4.46,0,0,0-1,1.33,2.5,2.5,0,0,1-.39.65,1.73,1.73,0,0,0-.33,1.23.68.68,0,0,0,.4.54,4.21,4.21,0,0,0,1.77.41c.21,0,.42-.07.63-.13a10.07,10.07,0,0,0,1.94-.58,16.11,16.11,0,0,0,2.68-2c.49-.37.95-.79,1.44-1.18.11-.08.37-.15.41-.1a.6.6,0,0,1,.15.48,13.66,13.66,0,0,1-.58,1.5,7,7,0,0,0-.66,3.41,1.26,1.26,0,0,0,1,1,3.14,3.14,0,0,0,1.33,0,8.23,8.23,0,0,0,1.51-.56,4,4,0,0,0,1.55-1.63,4.47,4.47,0,0,1,.53-.78.31.31,0,0,1,.55,0,1.11,1.11,0,0,1,.15.31,12.35,12.35,0,0,0,1.14,2.76,3,3,0,0,0,2,1.68,4.65,4.65,0,0,0,2.51,0,2.53,2.53,0,0,0,1.62-1.22,5.56,5.56,0,0,0,.57-1.63,2,2,0,0,0,0-1.15,8.07,8.07,0,0,0-.88-1.7,1.08,1.08,0,0,0-.62-.46,6.86,6.86,0,0,1-.76-.27.28.28,0,0,1-.11-.21c0-.1.12-.25.19-.25a6,6,0,0,1,.73,0,4.15,4.15,0,0,0,.79,0,3.7,3.7,0,0,0,1.81-1c.46-.46.5-.47.91,0a4.3,4.3,0,0,0,2.33,1.29.93.93,0,0,0,1.09-.35,2.08,2.08,0,0,1,.36-.48.48.48,0,0,1,.36-.13c.09,0,.18.19.21.31.05.29.2.66.08.86-.22.36.11.6.08.92a2.12,2.12,0,0,0,.29,1.11,9,9,0,0,0,.92,1.2,2,2,0,0,0,1.66.79,17.87,17.87,0,0,0,2.31-.11,2.21,2.21,0,0,0,.66-.21,3.87,3.87,0,0,0,2.22-2.47,6.64,6.64,0,0,0,.39-2c0-.41.17-.8.23-1.21a5.32,5.32,0,0,0,.11-1.31A4.84,4.84,0,0,0,159.94,57.21ZM104,63.53c0,.19,0,.43-.14.56a3.25,3.25,0,0,1-1.29,1.06c-.31.1-.64.18-1,.25-.16,0-.33,0-.4.23s.16.28.25.39c.25.3.56.54.82.84a1.7,1.7,0,0,1,.18,1.5,8.14,8.14,0,0,1-.68,1.9,9.16,9.16,0,0,1-1.87,2.65,9.47,9.47,0,0,1-1.19,1.18,5.6,5.6,0,0,1-2.49.91A7.65,7.65,0,0,1,92,74.18a16.31,16.31,0,0,1-1.83-1c-.6-.37-1.29-.62-1.87-1-.08-.06-.18-.08-.25-.14A10.41,10.41,0,0,1,87,71.06c-.48-.53-.92-1.11-1.37-1.67a2.86,2.86,0,0,0-.4-.45c-.35-.28-.62-.15-.67.31a12.32,12.32,0,0,1-.8,3,12.54,12.54,0,0,1-1.39,2.35c-.06.08-.2.12-.3.18a2.17,2.17,0,0,0-.45.25,2.29,2.29,0,0,1-2.11.25c-.65-.12-.9-.63-1.09-1.12a5.74,5.74,0,0,1-.15-3.21.41.41,0,0,0,0-.27c-.2,0-.42-.07-.55.15A10.88,10.88,0,0,1,77,71.9a12.62,12.62,0,0,1-2,2.32,1.69,1.69,0,0,1-1.84.27,1,1,0,0,1-.58-.85,4.7,4.7,0,0,0-.14-1.44c.25-.31-.11-.67.1-1s-.06-.76,0-1.1a3.31,3.31,0,0,1,.91-1.68c.13-.11.41-.2.27-.47s-.35-.19-.68,0l-.68.46a4.16,4.16,0,0,1-1.93.78A2.68,2.68,0,0,1,69.19,69c-.33-.1-.43-.35-.63-.55s-.45-.38-.43-.76a2.37,2.37,0,0,0-.28-.81c-.06-.17-.14-.31-.38-.27s-.32.13-.32.36,0,.75,0,1.12a8.4,8.4,0,0,1-.68,3.47,3.29,3.29,0,0,1-2.53,2.07,13.1,13.1,0,0,1-2.33.2c-.25,0-.5-.1-.76-.11s-.42.12-.4.47a15.72,15.72,0,0,1,0,2.17,7.63,7.63,0,0,1-.28,1.5,2,2,0,0,1-2.27,1.33,13.6,13.6,0,0,1-1.36-.46c-.2-.07-.5-.09-.58-.23-.34-.59-1-.91-1.26-1.59a3.2,3.2,0,0,1,0-2.24,4.81,4.81,0,0,0,.27-1.25,6.61,6.61,0,0,1,0-.89c0-.2-.12-.22-.23-.18a1.58,1.58,0,0,0-.46.25c-.5.45-1,.9-1.49,1.36a6.28,6.28,0,0,1-2.36,1.34,3.24,3.24,0,0,1-1.83-.23A5.58,5.58,0,0,1,47.51,74a.39.39,0,0,1,0-.35,5.88,5.88,0,0,1,1.24-2.29c.66-.68,1.3-1.37,1.94-2.06.13-.15.21-.36.36-.47s.07-.28.07-.44-.19-.22-.33-.18c-.58.19-1.17.39-1.74.62s-1.07.51-1.62.74a12.32,12.32,0,0,1-2,.71,1.24,1.24,0,0,1-1.12-.38,2.4,2.4,0,0,1-.61-2.2,4.86,4.86,0,0,1,1-2,9,9,0,0,1,.9-1.25s.06-.13,0-.16.23-.19,0-.35-.23,0-.35,0a14,14,0,0,0-2.57,1.19,4.78,4.78,0,0,1-2.88.68,1.87,1.87,0,0,1-1.61-1.05.45.45,0,0,1,0-.36,5.85,5.85,0,0,1,.86-1.57c.45-.69.91-1.37,1.41-2,.33-.44.73-.82,1.09-1.23.12-.14.15,0,.23,0a5.11,5.11,0,0,0,1.92,1.06,11.27,11.27,0,0,0,2.31.47,7.64,7.64,0,0,0,2-.16,4.57,4.57,0,0,0,1.7-.83A6.47,6.47,0,0,0,51,58.67a2.31,2.31,0,0,0-.09-3,2.71,2.71,0,0,0-1.68-1.35s0-.22,0-.26c.28-.21.6-.38.87-.6a5.38,5.38,0,0,0,2.07-2.58,1.57,1.57,0,0,0-.06-1.21,2.51,2.51,0,0,0-1.87-1.34,2.68,2.68,0,0,0-2,.27c-.47-.07-.8.27-1.21.39-.19.07-.33.3-.5.45s-.11,0-.17,0-.05-.17,0-.21A4.73,4.73,0,0,0,47,47.57a1.92,1.92,0,0,0-.73-2c-.08,0-.2,0-.3,0a4,4,0,0,0-2.39.56l-2.37,1.19a1.69,1.69,0,0,1-.24.08,1.46,1.46,0,0,1,0-.3,16.43,16.43,0,0,0,.64-1.78A5.37,5.37,0,0,0,42,43.6c0-.16.11-.34.11-.51a3.53,3.53,0,0,0-.57-2.25,1.08,1.08,0,0,0-.86-.48c-.06,0-.12-.06-.18-.09s.12-.13.2-.15a1.07,1.07,0,0,1,.31,0,10.11,10.11,0,0,0,2.62-.43,4,4,0,0,0,2.23-1.39,6.48,6.48,0,0,0,.61-.87c.31-.49.57-1,.9-1.49a.7.7,0,0,1,.83-.34,4.69,4.69,0,0,0,2.45-.48c.82-.3,1.61-.64,2.4-1,.37-.16.7-.4,1.06-.59a5.52,5.52,0,0,0,1.36-1.1c.11-.12.21-.07.22.11a5.09,5.09,0,0,0,.89,2c.13.22.46.35.71.49a4.64,4.64,0,0,0,2.45.83,3.17,3.17,0,0,0,1.14-.27,15.61,15.61,0,0,0,2.53-1.24,8.82,8.82,0,0,0,2.27-1.56c.4,0,.53-.4.8-.58a2.87,2.87,0,0,0,.59-.8.92.92,0,0,1,.22-.22c.06,0,.21,0,.23,0,.4.8,1.22.94,1.92,1.25a12,12,0,0,0,1.33.4,1.89,1.89,0,0,0,2-.38c.17-.15.29-.15.39,0a8.2,8.2,0,0,1,.43.76,5.37,5.37,0,0,0,1.86,2.15,1.32,1.32,0,0,0,1.58.07c.56-.36,1.18-.65,1.75-1a4.41,4.41,0,0,0,.74-.63c.13-.13.27-.16.34,0a1.47,1.47,0,0,0,.92.77,8.26,8.26,0,0,0,1.61.78,1,1,0,0,0,1-.23c.55-.56,1-1.19,1.52-1.79a2.91,2.91,0,0,1,.26-.33,1.84,1.84,0,0,0,.56-1.9c0-.19.18-.22.07-.35.08,0,.22,0,.23,0a16.26,16.26,0,0,0,.86,1.45,4.17,4.17,0,0,1,.26.46,6.15,6.15,0,0,0,1.2,1.74.56.56,0,0,0,1,0,3.27,3.27,0,0,0,.28-.37,4.52,4.52,0,0,0,.79.65,1.38,1.38,0,0,0,.6.2,4,4,0,0,0,2-.48c.79-.34,1.61-.62,2.41-1,.29-.13.26,0,.24.2a4.81,4.81,0,0,1-.12.76.51.51,0,0,1-.68.32c-.23-.14-.36,0-.54,0a5.78,5.78,0,0,0-2.07.89,4.65,4.65,0,0,0-.93.84c-.35.43,0,.8.2,1.17a1.3,1.3,0,0,0,.15.18.75.75,0,0,1-.29,0,17.64,17.64,0,0,0-2.11-.45,10.39,10.39,0,0,0-3-.07A7.74,7.74,0,0,0,83.16,39a.39.39,0,0,0-.06.54c.72.85,1.21,1.9,2.25,2.45.05,0,.08.11.11.17s-.1.07-.15.07c-.37,0-.75,0-1.12,0a3.89,3.89,0,0,0-2,.73c-.1.06-.15.22-.21.35a2.52,2.52,0,0,0-.12.29c-.1,0-.24-.05-.31-.12a1.92,1.92,0,0,0-1.17-.65c-.53-.07-1-.39-1.61-.11a2.54,2.54,0,0,1-.88.1,10.65,10.65,0,0,0-2.61.79.85.85,0,0,0-.33.24c-.07.06-.09.17-.14.25-.06-.1-.17-.2-.17-.3a6.08,6.08,0,0,0-.25-1.27,2.69,2.69,0,0,0-1.23-1.9A1.74,1.74,0,0,0,72,40.39a3.54,3.54,0,0,0-1.73.47,5,5,0,0,0-2.16,2.4c-.08.24-.27.27-.45.07a5.89,5.89,0,0,0-3-1.55,4.57,4.57,0,0,0-1.84,0c-.74.12-1.43.38-2.14.56-.37.1-.73.24-1.09.37A13.65,13.65,0,0,0,57.38,44a11.54,11.54,0,0,0-2.44,2.19.28.28,0,0,0,0,.29,1.5,1.5,0,0,0,1.57.56c.91-.18,1.69-.67,2.58-.86a5.26,5.26,0,0,1,1.67-.32.62.62,0,0,1,.19.07c-.06.06-.11.15-.18.17a4,4,0,0,1-.84.22,5.18,5.18,0,0,0-1.85.8,16.72,16.72,0,0,0-2.12,1.33c-.51.35-1,.8-1.44,1.17a16.3,16.3,0,0,0-2.8,3,3.22,3.22,0,0,0-.46,1,1,1,0,0,0,.11.51,2.38,2.38,0,0,0,2.05,1.56.77.77,0,0,0,.37,0,12.2,12.2,0,0,0,2.62-1.21c.79-.54,1.71-.9,2.51-1.44a12.58,12.58,0,0,1,2.32-1,15.3,15.3,0,0,1,2-.55c.06,0,.14,0,.21.07a.74.74,0,0,1-.12.17,7.17,7.17,0,0,0-2,1.92c-.25.32-.52.62-.79.92A10.36,10.36,0,0,0,59,56.78c-.26.48-.23,1-.44,1.5.18.25.36.52.56.76a1,1,0,0,0,.89.26c.29,0,.65.09.79-.31A9.62,9.62,0,0,0,63,56.63a5,5,0,0,1,3-1.85l.13-.05a.49.49,0,0,1,0,.17c-.11.28-.22.57-.35.85a31.12,31.12,0,0,0-.86,3,.64.64,0,0,0,.21.72c.38.32.69.72,1.07,1a2.4,2.4,0,0,0,1.51.54,2.3,2.3,0,0,0,1.16-.12,2.51,2.51,0,0,0,.92-.67,5.75,5.75,0,0,0,.78-1.3,1.63,1.63,0,0,0,.2-.79.15.15,0,0,1,.11-.11s.13,0,.13.08c0,.44.33.66.59.94a1.39,1.39,0,0,0,1.41.31,1.45,1.45,0,0,0,.73-.82,3.47,3.47,0,0,0-.23-3.32.44.44,0,0,1,.08-.61A2.48,2.48,0,0,1,75.18,54c.83-.12,1.67-.1,2.5-.14a.41.41,0,0,1,.19,0s.11.06.11.1a.16.16,0,0,1-.07.14c-.12.1-.25.19-.38.28a2.94,2.94,0,0,0-.83,1.09,9.43,9.43,0,0,0-1,2,2.29,2.29,0,0,0,.4,2.17,3,3,0,0,0,2.31,1.16,2.72,2.72,0,0,0,2.41-1.53,8.22,8.22,0,0,1,.49-.67,29.31,29.31,0,0,0,2-3.59,1,1,0,0,1,.18-.18.88.88,0,0,1,.06.27,5.33,5.33,0,0,0,.2,1.73,4.65,4.65,0,0,0,3.4,3.32,3.84,3.84,0,0,0,4.09-1,5.94,5.94,0,0,0,1.19-1.69c.21-.51.49-1,.74-1.5a.9.9,0,0,1,.18-.15,1,1,0,0,1,0,.17,13.43,13.43,0,0,0,.51,2.41,1.28,1.28,0,0,0,2.15.54c.16-.18.31-.38.46-.58s.33-.21.45,0,.2.29.31.43a2,2,0,0,0,1.85.8c.25,0,.42,0,.39.34a2.52,2.52,0,0,0,.54,1.63,4.29,4.29,0,0,0,2.84,1.84,2.85,2.85,0,0,0,.86-.08C104,63.26,104.05,63.35,104,63.53Z"/><path id="fill2" class="cls-4" d="M89.65,34.15a4.52,4.52,0,0,0,.79.65,1.38,1.38,0,0,0,.6.2,4,4,0,0,0,2-.48c.79-.34,1.61-.62,2.41-1,.29-.13.26,0,.24.2a4.81,4.81,0,0,1-.12.76.51.51,0,0,1-.68.32c-.23-.14-.36,0-.54,0a5.78,5.78,0,0,0-2.07.89,4.65,4.65,0,0,0-.93.84c-.35.43,0,.8.2,1.17a1.3,1.3,0,0,0,.15.18.75.75,0,0,1-.29,0,17.64,17.64,0,0,0-2.11-.45,10.39,10.39,0,0,0-3-.07A7.74,7.74,0,0,0,83.16,39a.39.39,0,0,0-.06.54c.72.85,1.21,1.9,2.25,2.45.05,0,.08.11.11.17s-.1.07-.15.07c-.37,0-.75,0-1.12,0a3.89,3.89,0,0,0-2,.73c-.1.06-.15.22-.21.35a2.52,2.52,0,0,0-.12.29c-.1,0-.24-.05-.31-.12a1.92,1.92,0,0,0-1.17-.65c-.53-.07-1-.39-1.61-.11a2.54,2.54,0,0,1-.88.1,10.65,10.65,0,0,0-2.61.79.85.85,0,0,0-.33.24c-.07.06-.09.17-.14.25-.06-.1-.17-.2-.17-.3a6.08,6.08,0,0,0-.25-1.27,2.69,2.69,0,0,0-1.23-1.9A1.74,1.74,0,0,0,72,40.39a3.54,3.54,0,0,0-1.73.47,5,5,0,0,0-2.16,2.4c-.08.24-.27.27-.45.07a5.89,5.89,0,0,0-3-1.55,4.57,4.57,0,0,0-1.84,0c-.74.12-1.43.38-2.14.56-.37.1-.73.24-1.09.37A13.65,13.65,0,0,0,57.38,44a11.54,11.54,0,0,0-2.44,2.19.28.28,0,0,0,0,.29,1.5,1.5,0,0,0,1.57.56c.91-.18,1.69-.67,2.58-.86a5.26,5.26,0,0,1,1.67-.32.62.62,0,0,1,.19.07c-.06.06-.11.15-.18.17a4,4,0,0,1-.84.22,5.18,5.18,0,0,0-1.85.8,16.72,16.72,0,0,0-2.12,1.33c-.51.35-1,.8-1.44,1.17a16.3,16.3,0,0,0-2.8,3,3.22,3.22,0,0,0-.46,1,1,1,0,0,0,.11.51,2.38,2.38,0,0,0,2.05,1.56.77.77,0,0,0,.37,0,12.2,12.2,0,0,0,2.62-1.21c.79-.54,1.71-.9,2.51-1.44a12.58,12.58,0,0,1,2.32-1,15.3,15.3,0,0,1,2-.55c.06,0,.14,0,.21.07a.74.74,0,0,1-.12.17,7.17,7.17,0,0,0-2,1.92c-.25.32-.52.62-.79.92A10.36,10.36,0,0,0,59,56.78c-.26.48-.23,1-.44,1.5.18.25.36.52.56.76a1,1,0,0,0,.89.26c.29,0,.65.09.79-.31A9.62,9.62,0,0,0,63,56.63a5,5,0,0,1,3-1.85l.13-.05a.49.49,0,0,1,0,.17c-.11.28-.22.57-.35.85a31.12,31.12,0,0,0-.86,3,.64.64,0,0,0,.21.72c.38.32.69.72,1.07,1a2.4,2.4,0,0,0,1.51.54,2.3,2.3,0,0,0,1.16-.12,2.51,2.51,0,0,0,.92-.67,5.75,5.75,0,0,0,.78-1.3,1.63,1.63,0,0,0,.2-.79.15.15,0,0,1,.11-.11s.13,0,.13.08c0,.44.33.66.59.94a1.39,1.39,0,0,0,1.41.31,1.45,1.45,0,0,0,.73-.82,3.47,3.47,0,0,0-.23-3.32.44.44,0,0,1,.08-.61A2.48,2.48,0,0,1,75.18,54c.83-.12,1.67-.1,2.5-.14a.41.41,0,0,1,.19,0s.11.06.11.1a.16.16,0,0,1-.07.14c-.12.1-.25.19-.38.28a2.94,2.94,0,0,0-.83,1.09,9.43,9.43,0,0,0-1,2,2.29,2.29,0,0,0,.4,2.17,3,3,0,0,0,2.31,1.16,2.72,2.72,0,0,0,2.41-1.53,8.22,8.22,0,0,1,.49-.67,29.31,29.31,0,0,0,2-3.59,1,1,0,0,1,.18-.18.88.88,0,0,1,.06.27,5.33,5.33,0,0,0,.2,1.73,4.65,4.65,0,0,0,3.4,3.32,3.84,3.84,0,0,0,4.09-1,5.94,5.94,0,0,0,1.19-1.69c.21-.51.49-1,.74-1.5a.9.9,0,0,1,.18-.15,1,1,0,0,1,0,.17,13.43,13.43,0,0,0,.51,2.41,1.28,1.28,0,0,0,2.15.54c.16-.18.31-.38.46-.58s.33-.21.45,0,.2.29.31.43a2,2,0,0,0,1.85.8c.25,0,.42,0,.39.34a2.52,2.52,0,0,0,.54,1.63,4.29,4.29,0,0,0,2.84,1.84,2.85,2.85,0,0,0,.86-.08l1.23-.11a4.62,4.62,0,0,0,2-1.24,5.51,5.51,0,0,0,1.45-2.39,2.83,2.83,0,0,1,.14-.44.34.34,0,0,1,.42-.17,2.83,2.83,0,0,0,3.18-1.54,2.09,2.09,0,0,0,0-1.57c-.1-.29,0-.24.19-.26.36-.05.72.1,1.08-.1l.93-.09a.33.33,0,0,1,.14-.18,2.49,2.49,0,0,0,1-.64,1.05,1.05,0,0,0,.43-.94c0-.28.09-.38.37-.43a12.09,12.09,0,0,0,2.37-.59,4.73,4.73,0,0,0,1.38-.91,2.14,2.14,0,0,0,.62-1.89c0-.3-.21-.46-.32-.68s-.33-.27-.51-.4-.26-.43,0-.47c.52-.08.78-.51,1.19-.73s.33-.41.1-.76-.5-.91-1-1.15c-.22-.11,0-.19,0-.19.4-.15.8-.28,1.19-.44s1-.45,1.53-.67a2.18,2.18,0,0,1,.48-.19,2.65,2.65,0,0,0,2-1.8c.24-.6.3-1.24.48-1.85.11-.37.1-.34.42-.12a4.51,4.51,0,0,0,1.67.93,1.48,1.48,0,0,0,.42,0,10.41,10.41,0,0,0,1.12-.16c.53-.12,1.05-.27,1.57-.41l.68-.17a1.41,1.41,0,0,0,1-1.32A1.87,1.87,0,0,1,133,39c.09,0,.2.08.25.15a6.89,6.89,0,0,1,.4.64A9.07,9.07,0,0,0,136,42.26a7.75,7.75,0,0,0,1.54.8l1.51.18a7,7,0,0,0,2.76-1.16,1.53,1.53,0,0,0,.8-1.58c-.06-.43-.14-.86-.21-1.29a.33.33,0,0,1,.07-.24.3.3,0,0,1,.25,0,1.05,1.05,0,0,1,.26.13,1.86,1.86,0,0,0,1.76,0,7.52,7.52,0,0,0,1.31-.92,1.55,1.55,0,0,0,.64-1.82c-.42-.82-.73-1.77-1.68-2.21-.06,0-.13-.13-.12-.17a.27.27,0,0,1,.17-.16c.34-.1.69-.15,1-.26a10,10,0,0,0,1.74-.61c.93-.54,1.23-.94,1-1.75a6.44,6.44,0,0,0-1.62-3.07c-.29-.28-.61-.53-.92-.79a7.13,7.13,0,0,0-2.83-1.57,6.68,6.68,0,0,0-2.12-.27,3.82,3.82,0,0,0-1.78.34s-.16,0-.16,0,0-.18.05-.21c.19-.13.4-.24.6-.36a15.3,15.3,0,0,1,1.44-.87c.65-.3,1.33-.51,2-.76.29-.11.34-.31.14-.55a1.3,1.3,0,0,0-.31-.31,5.92,5.92,0,0,0-3.06-.89,21.45,21.45,0,0,0-3,.12c-.16,0-.35-.07-.52-.08a3.32,3.32,0,0,0-2.31.37,4.36,4.36,0,0,1-.91.52c-.26.1-.56.36-.83.15a6.79,6.79,0,0,0-2.59-.83.81.81,0,0,1-.18-.1l.14-.14a13.91,13.91,0,0,0,2.62-2.09,2.15,2.15,0,0,0,.73-2,1.89,1.89,0,0,0-1.68-1.43,19.29,19.29,0,0,0-3.31.11,9.93,9.93,0,0,0-2.21.68c-.77.36-1.5.8-2.25,1.2a1.7,1.7,0,0,1-.24.09c0-.09,0-.2.08-.25A18.3,18.3,0,0,0,125.75,16c.63-.87,1.35-1.67,1.91-2.58a1.93,1.93,0,0,0,.09-2.32,1.49,1.49,0,0,0-.74-.6,3.55,3.55,0,0,0-1.94,0c-.5.1-.9.42-1.43.48a3.73,3.73,0,0,0-1.39.52A11.88,11.88,0,0,0,119,14.59a14,14,0,0,1-1.12,1.4,3.66,3.66,0,0,0-1,2c0,.2,0,.52-.06.58a1.48,1.48,0,0,1-.67,0c-.33,0-.66,0-1,0a1.85,1.85,0,0,0-.41.07,3.69,3.69,0,0,0-1.9,1.4,1.8,1.8,0,0,1-.39.27,3.07,3.07,0,0,1,.07-.42c0-.07.11-.13.11-.19a13,13,0,0,0,.27-2.79A2.14,2.14,0,0,0,110.71,15a3.25,3.25,0,0,0-1.77.5A17.73,17.73,0,0,0,107,17c-.42.38-.76.85-1.16,1.26a5.21,5.21,0,0,0-1.47,2.32.21.21,0,0,1-.13.08s-.1,0-.1-.05a2.4,2.4,0,0,0-.64-1.23,5.84,5.84,0,0,0-3-2.37c-.23-.07-.49,0-.71-.1a2.87,2.87,0,0,0-3.13,1.13.8.8,0,0,0,0,.93,5.35,5.35,0,0,0,1.89,2c.1,0,.15.22.2.34s-.07.1-.1.1a5,5,0,0,0-2.11-.32,2.29,2.29,0,0,0-.28-.07,7.43,7.43,0,0,0-1.7,0,19.71,19.71,0,0,0-2.46.82c-.72.27-1.42.57-2.13.87a.71.71,0,0,0-.29.18c-.18.2-.32.42-.5.61s-.58.19-.62-.19a1.54,1.54,0,0,0-.51-.91,1.58,1.58,0,0,1-.22-.23,4.72,4.72,0,0,0-2-1.83l-1-.61c-.08-.05-.12-.14-.19-.22a2,2,0,0,1,.26.05A26.81,26.81,0,0,0,88,20.59a8.69,8.69,0,0,0,1.53.23.91.91,0,0,0,.74-.38,4.79,4.79,0,0,0,.75-1.62.54.54,0,0,0,0-.35,5,5,0,0,0-.84-1.77c-.14-.15-.4-.25-.45-.42a1,1,0,0,0-.33-.55,3.48,3.48,0,0,1-.52-.41,7.32,7.32,0,0,0-3.15-1.86c-.5-.21-1-.32-1.53-.51a4.5,4.5,0,0,0-1.66-.36,7.3,7.3,0,0,1-.81,0c-.08,0-.16-.1-.24-.16a1.09,1.09,0,0,1,.13-.17l.25-.16a2.45,2.45,0,0,0,.87-2.65,5.13,5.13,0,0,0-1.51-2.23,2,2,0,0,0-.92-.46,16.12,16.12,0,0,0-1.83-.26,4.56,4.56,0,0,0-2.78.63A5.64,5.64,0,0,0,74,8.28c0,.05-.14,0-.21.05s0-.15,0-.21A1.44,1.44,0,0,0,74,6.85c-.16-.34.19-.65-.09-.92a2.89,2.89,0,0,0-.22-1.8,6.62,6.62,0,0,0-.6-1,4.23,4.23,0,0,0-.7-.95c-.22-.25-.53-.43-.77-.67A10.24,10.24,0,0,0,69.92.26,1.49,1.49,0,0,0,69,0c-.38,0-.76.08-1.13.1a4.92,4.92,0,0,0-2,.65,3.16,3.16,0,0,0-.59.35,14.65,14.65,0,0,1-1.2,1A2.26,2.26,0,0,0,63,3.58c0,.11-.15.19-.23.29a2.65,2.65,0,0,0-.11-.3,1.47,1.47,0,0,0-.21-.22l-.74-.62a3,3,0,0,0-3.86.16c-.27.24-.44.59-.71.82a1.92,1.92,0,0,0-.56,1.2,1.56,1.56,0,0,0,.31,1.35c.05.07,0,.2,0,.29s-.22,0-.29-.07a4.39,4.39,0,0,0-2.19-.7A8.08,8.08,0,0,0,52,5.7a10.36,10.36,0,0,0-2.17.51,4.65,4.65,0,0,0-2.19,1.61,8.05,8.05,0,0,0-1.23,2.36c-.13.44-.14.9-.24,1.33a4.57,4.57,0,0,0,.29,2.9c.18.43.2.42-.19.53a1.1,1.1,0,0,0-.18,0,16.27,16.27,0,0,0-1.71.38A4.29,4.29,0,0,0,42,16.91a7.6,7.6,0,0,0-1.26,2.47,2.54,2.54,0,0,0,.85,2.44,5.41,5.41,0,0,0,1.51.73,3.61,3.61,0,0,0,1,.36,4.77,4.77,0,0,0,2.24-.27,3.76,3.76,0,0,1,.73-.2,1.18,1.18,0,0,1,.41,0l-.35.19c-.13.07-.34.11-.38.21-.13.33-.41.4-.67.54a2.35,2.35,0,0,0-.81.56,10.48,10.48,0,0,0-1.4,2c-.08.17-.19.33-.29.5-.11-.15-.21-.31-.33-.45a6.63,6.63,0,0,0-.54-.52,2.63,2.63,0,0,0-.44-.3,7.32,7.32,0,0,0-1.07-.57,3,3,0,0,0-1.95,0A4.71,4.71,0,0,0,37,25.82c-.31.31-.66.59-1,.88s-.54.29-.86-.06-.35-.44-.53-.65a7.69,7.69,0,0,0-1.21-1,18.77,18.77,0,0,0-1.51-1.15,3.29,3.29,0,0,0-2.08-.51c-.5,0-1,0-1.51.09s-1,.2-1.52.23a6.84,6.84,0,0,0-1.34.38,3.13,3.13,0,0,0-2,1.37A10.94,10.94,0,0,0,23,26.56a3.54,3.54,0,0,0-.29,2.14c0,.1,0,.2.08.31L22.43,29a9.16,9.16,0,0,0-1.17-.17c-.35,0-.71.12-1.06.11a5.33,5.33,0,0,0-1.95.43c-.82.26-1.62.59-2.45.84a7.5,7.5,0,0,0-2.31,1,24.46,24.46,0,0,0-2.56,2.08c-1.16,1.1-2.26,2.28-3.35,3.46a2.74,2.74,0,0,0-.81,1.46,13.9,13.9,0,0,1-.4,1.34c0,.06-.09.12-.08.18a22.61,22.61,0,0,0,.47,2.48,1.36,1.36,0,0,0,1.55,1,2.17,2.17,0,0,0,1.31-.83c.44-.62,1-1.19,1.43-1.78a1,1,0,0,1,.13-.09.35.35,0,0,1,0,.17c0,.36-.06.72-.12,1.07a10.2,10.2,0,0,0-.26,2.35,4.43,4.43,0,0,0,.85,2.26.73.73,0,0,0,1.27,0,19.19,19.19,0,0,0,1.13-1.65c.26-.42.46-.89.74-1.31s.34-.3.5,0c.27.58.5,1.17.76,1.75a4.43,4.43,0,0,0,1.27,1.7,1.33,1.33,0,0,0,.21.09l.63.46a4.42,4.42,0,0,1,1.12.3,5.44,5.44,0,0,0,2.23.17,1.79,1.79,0,0,0,1.25-1,11.59,11.59,0,0,0,.69-1.52,2.18,2.18,0,0,0,.2-1,8.55,8.55,0,0,1,0-1.24c0-.12.22-.32.25-.32.53.28,1,0,1.48-.11a1.36,1.36,0,0,0,1-.75,12.63,12.63,0,0,0,.77-1.67,1.59,1.59,0,0,1,.13-.22l.15.21a6.52,6.52,0,0,0,.55.82l0,.15s0,0-.07,0A3,3,0,0,0,27,42c-.33.37-.62.78-.93,1.17a3.56,3.56,0,0,1-.45.56,2.55,2.55,0,0,0-.79,1.85c0,.37,0,.75,0,1.12a.55.55,0,0,0,.36.63,3.85,3.85,0,0,0,1.47.51c.06,0,.11.08.17.12l-.16.13A31.09,31.09,0,0,0,24,50.2a11.54,11.54,0,0,0-1.88,2.38,8.74,8.74,0,0,0-.69,1.65.82.82,0,0,0,.26.8,2.45,2.45,0,0,0,1.67.77,3.17,3.17,0,0,0,1.88-.41c1-.47,2-1,2.94-1.45.31-.16.6-.37.91-.52s.88-.39,1.32-.57a.47.47,0,0,1,.17,0c0,.07,0,.15,0,.21A7.47,7.47,0,0,0,30,55.56a5.5,5.5,0,0,0-.11.69A3.38,3.38,0,0,0,30.44,58a8.62,8.62,0,0,0,2.07,2.19.9.9,0,0,0,.3.17,3.69,3.69,0,0,0,3.48-.33,9.44,9.44,0,0,0,2-1.95c.18-.25.42-.45.59-.69.31-.43.59-.88.88-1.32,0-.06.09-.1.13-.16s.11.11.12.17A6.92,6.92,0,0,0,41.23,59l.58.59a5.11,5.11,0,0,0,1.92,1.06,11.27,11.27,0,0,0,2.31.47,7.64,7.64,0,0,0,2-.16,4.57,4.57,0,0,0,1.7-.83A6.47,6.47,0,0,0,51,58.67a2.31,2.31,0,0,0-.09-3,2.71,2.71,0,0,0-1.68-1.35s0-.22,0-.26c.28-.21.6-.38.87-.6a5.38,5.38,0,0,0,2.07-2.58,1.57,1.57,0,0,0-.06-1.21,2.51,2.51,0,0,0-1.87-1.34,2.68,2.68,0,0,0-2,.27c-.47-.07-.8.27-1.21.39-.19.07-.33.3-.5.45s-.11,0-.17,0-.05-.17,0-.21A4.73,4.73,0,0,0,47,47.57a1.92,1.92,0,0,0-.73-2c-.08,0-.2,0-.3,0a4,4,0,0,0-2.39.56l-2.37,1.19a1.69,1.69,0,0,1-.24.08,1.46,1.46,0,0,1,0-.3,16.43,16.43,0,0,0,.64-1.78A5.37,5.37,0,0,0,42,43.6c0-.16.11-.34.11-.51a3.53,3.53,0,0,0-.57-2.25,1.08,1.08,0,0,0-.86-.48c-.06,0-.12-.06-.18-.09s.12-.13.2-.15a1.07,1.07,0,0,1,.31,0,10.11,10.11,0,0,0,2.62-.43,4,4,0,0,0,2.23-1.39,6.48,6.48,0,0,0,.61-.87c.31-.49.57-1,.9-1.49a.7.7,0,0,1,.83-.34,4.69,4.69,0,0,0,2.45-.48c.82-.3,1.61-.64,2.4-1,.37-.16.7-.4,1.06-.59a5.52,5.52,0,0,0,1.36-1.1c.11-.12.21-.07.22.11a5.09,5.09,0,0,0,.89,2c.13.22.46.35.71.49a4.64,4.64,0,0,0,2.45.83,3.17,3.17,0,0,0,1.14-.27,15.61,15.61,0,0,0,2.53-1.24,8.82,8.82,0,0,0,2.27-1.56c.4,0,.53-.4.8-.58a2.87,2.87,0,0,0,.59-.8.92.92,0,0,1,.22-.22c.06,0,.21,0,.23,0,.4.8,1.22.94,1.92,1.25a12,12,0,0,0,1.33.4,1.89,1.89,0,0,0,2-.38c.17-.15.29-.15.39,0a8.2,8.2,0,0,1,.43.76,5.37,5.37,0,0,0,1.86,2.15,1.32,1.32,0,0,0,1.58.07c.56-.36,1.18-.65,1.75-1a4.41,4.41,0,0,0,.74-.63c.13-.13.27-.16.34,0a1.47,1.47,0,0,0,.92.77,8.26,8.26,0,0,0,1.61.78,1,1,0,0,0,1-.23c.55-.56,1-1.19,1.52-1.79a2.91,2.91,0,0,1,.26-.33,1.84,1.84,0,0,0,.56-1.9c0-.19.18-.22.07-.35.08,0,.22,0,.23,0a16.26,16.26,0,0,0,.86,1.45,4.17,4.17,0,0,1,.26.46,6.15,6.15,0,0,0,1.2,1.74.56.56,0,0,0,1,0,3.27,3.27,0,0,0,.28-.37M56.13,32.39c0,.07,0,.07-.05.08Zm-8.83,3.1-.08-.05C47.29,35.42,47.29,35.46,47.3,35.49Z"/><path id="fill1" d="M123.33,64.53A3.47,3.47,0,0,1,123.1,66a11.47,11.47,0,0,0-.5,2.16,2.64,2.64,0,0,1-.77,1.43,8.16,8.16,0,0,1-2,1.43c-.66.4-1.34.78-2,1.17-.12.07-.16.14,0,.27a6.28,6.28,0,0,1,1.09,2,3.58,3.58,0,0,1,0,1.46c0,.2-.1.39-.09.58a3.89,3.89,0,0,1-.56,2.08c-.14.27-.12.58-.3.88a7.59,7.59,0,0,1-1.56,2.2,7.19,7.19,0,0,1-1.42.77c-.38.19-.79.3-1.17.48a4.22,4.22,0,0,1-2.76.15,1.2,1.2,0,0,1-.83-.62A2.07,2.07,0,0,0,110,82c-.12-.12-.3-.28-.42-.26s-.17.28-.18.46-.13.46,0,.6.36.22.54.33.17.2,0,.25-.23.2-.25.39a12.15,12.15,0,0,0,.28,3,2.18,2.18,0,0,0,.48.79A3.77,3.77,0,0,0,112.14,89a4.05,4.05,0,0,0,1.6.36,3.72,3.72,0,0,0,2.23-.79,10,10,0,0,0,2.22-2.38,9,9,0,0,0,.54-1c.26-.47.55-.93.78-1.42s.39-1,.58-1.5c0-.09,0-.2.1-.27s.23-.33.34-.33a.55.55,0,0,1,.41.29,3.12,3.12,0,0,0,1.59,1.81,7.43,7.43,0,0,0,1.75.9,3.12,3.12,0,0,0,3-.57,9.37,9.37,0,0,0,2.15-2.58,6,6,0,0,1,.41-.58c.25-.28.4-.25.59.09.33.63.67,1.26,1,1.9a9.69,9.69,0,0,0,2.75,3.46,5,5,0,0,0,2.58,1.15,4.37,4.37,0,0,0,2.31-.38,3,3,0,0,0,1.6-1.92,4.16,4.16,0,0,0,.25-.83,1.29,1.29,0,0,0,0-.68c-.08-.16-.34-.22-.51-.34q-.59-.42-1.14-.87c-.1-.08-.13-.24-.22-.33s0-.39.12-.4a1.38,1.38,0,0,1,1.29.32c.29.33.79.47.89,1,0,.08.28.18.41.16a3.55,3.55,0,0,0,2.54-1.47,5.49,5.49,0,0,0,.92-2,.76.76,0,0,0-.43-1,8,8,0,0,0-1-.38c-.32-.12-.37-.26-.28-.49s.3-.16.4-.12a2.75,2.75,0,0,0,2.94-1.2,2.84,2.84,0,0,0,.27-2.79,2,2,0,0,0-1.22-1,3.72,3.72,0,0,0-2-.06,12.55,12.55,0,0,0-2.09.53.34.34,0,1,1-.33-.59,4.94,4.94,0,0,0,1.21-2.36,1.06,1.06,0,0,1,.21-.41c.06,0,.29-1.43.37-1.38a4.87,4.87,0,0,1,.07,1.7c-.23.52-.18,1.15-.62,1.61-.09.09,0,.32,0,.48s.12.09.18.08A9.51,9.51,0,0,1,144.3,72a3.56,3.56,0,0,1,3.1,1.21,2,2,0,0,1,.31.68A3.58,3.58,0,0,1,146.05,78a3.26,3.26,0,0,1-.4.24,4.66,4.66,0,0,1-.49.16c.11.13.23.26.33.4a.58.58,0,0,1,.13.26,3.66,3.66,0,0,1-.75,2.61,7.88,7.88,0,0,1-.7.83,3.53,3.53,0,0,1-2.54,1.22c-.19,0-.22.06-.25.24a5.36,5.36,0,0,1-1,2.73A4.12,4.12,0,0,1,138.07,88a4,4,0,0,1-2.09-.15,5.21,5.21,0,0,1-2.32-1.31c-.2-.18-.42-.32-.61-.49a11,11,0,0,1-2.5-3.51,5.3,5.3,0,0,1-.35-.72c-.08-.29-.19-.24-.31-.08-.37.51-.69,1.06-1.09,1.54a5.82,5.82,0,0,1-2.54,1.93,3.47,3.47,0,0,1-2.43-.14,7.32,7.32,0,0,1-2-1.16c-.33-.27-.61-.61-.92-.91l-.31-.31c-.11-.1-.19-.12-.25.06s-.22.5-.31.75a15.06,15.06,0,0,1-2,3.54,8.15,8.15,0,0,1-2.85,2.56,3.12,3.12,0,0,1-1,.26,4.1,4.1,0,0,1-1.78-.13c-.06,0-.16,0-.18,0-.27-.45-.84-.31-1.18-.62s-.68-.59-1-.92a2.93,2.93,0,0,1-.79-1.6,13.57,13.57,0,0,1-.23-2.46c0-.31.15-.63,0-1a1,1,0,0,1,0-.16.61.61,0,0,0-.07.14c0,.07-.11.13-.12.2a4,4,0,0,1-1,2,12.3,12.3,0,0,0-.86,1.27,3.87,3.87,0,0,1-2.26,1.48,5.49,5.49,0,0,1-2.63.22,5,5,0,0,1-2.2-1,5.6,5.6,0,0,1-1.34-1.49c0-.1-.09-.22-.14-.32s-.1-.09-.15-.14-.09.13-.1.19a10.84,10.84,0,0,1-.77,1.92,3.73,3.73,0,0,1-1.08,1.42,3.12,3.12,0,0,1-1.84,1,.35.35,0,0,0-.17.06,4.06,4.06,0,0,1-2,.56c-.31.06-.62,0-1,.09a2.13,2.13,0,0,1-1.07-.22,1.32,1.32,0,0,1-.67-.63A11.23,11.23,0,0,1,89,87.84c-.16-.47-.16-.43-.6-.24a8.42,8.42,0,0,1-2.06.74,8.72,8.72,0,0,1-2.55-.13,10.58,10.58,0,0,0-1.49,0s-.14.08-.14.13a2.14,2.14,0,0,0,0,.8A5.2,5.2,0,0,1,82,92.62a2.65,2.65,0,0,1-.87,1.07,2.54,2.54,0,0,1-1.5.61,5.27,5.27,0,0,1-2.33-.3l-1.38-.57c-.23-.11-.35-.09-.37.19a4.66,4.66,0,0,1-.13.82,4.47,4.47,0,0,1-2.2,2.46,5.91,5.91,0,0,1-2.87.9c-.3,0-.6.13-.88.1a10.62,10.62,0,0,1-3.3-.74A6.41,6.41,0,0,1,65,96.43a37.39,37.39,0,0,1-3.1-2.27,7.46,7.46,0,0,1-2.75-3.58c-.08-.32-.12-.65-.21-1s-.28-.41-.51-.2a6.62,6.62,0,0,1-2.15,1.13,6.41,6.41,0,0,1-2,.42,7.28,7.28,0,0,1-4.16-1.16,1.84,1.84,0,0,1-.82-1.58,5.75,5.75,0,0,1,.25-2.14,1.15,1.15,0,0,0,0-.37c0-.3,0-.26-.31-.15A15.91,15.91,0,0,1,46,86.68a10.41,10.41,0,0,1-2.94.27,5,5,0,0,1-3-1.21,1.66,1.66,0,0,1-.59-1.32,5.21,5.21,0,0,0-.08-.55c0-.26,0-.51,0-.77s.07-.56.07-.84a5.15,5.15,0,0,1,.31-1.55,8.22,8.22,0,0,1,.66-1.41,6.72,6.72,0,0,1,1.67-1.81l.1-.12c-.05,0-.1-.12-.15-.13a2.9,2.9,0,0,1-1.32-.57A2,2,0,0,1,40,75.32a7.11,7.11,0,0,1-.13-1.13c0-.17-.05-.22-.21-.17a3.45,3.45,0,0,1-2.94-.41,9.08,9.08,0,0,1-1.34-1.36c-.06-.07-.11-.16-.18-.23s-.25-.3-.33.08-.35.63-.9.66a2.15,2.15,0,0,1-1.08-.25,11.2,11.2,0,0,1-1.7-1c-.46-.33-.6-.32-1,0l-1.53,1.41a2.87,2.87,0,0,1-2.91.7,18.11,18.11,0,0,1-2.29-.77,3.77,3.77,0,0,1-2.12-2.2c-.2-.57-.23-1.18-.43-1.75.25-.29,0-.6,0-.89s0-.55,0-.83a3,3,0,0,1,.41-1.39,1.21,1.21,0,0,0,.07-.33c-.1,0-.2.06-.3.07a3,3,0,0,0-1.56.86,12,12,0,0,1-1.5,1.07,11.6,11.6,0,0,1-2.34,1.1,3,3,0,0,1-1.48.32,4,4,0,0,1-2.13-.59,2.47,2.47,0,0,1-.84-2.37c.24-.79.49-1.58.74-2.37a1.72,1.72,0,0,0,.07-.21c-.1,0-.21-.07-.29,0a1.86,1.86,0,0,0-.51.25A11.82,11.82,0,0,1,8,65a11.53,11.53,0,0,1-2.92.63A6.21,6.21,0,0,1,.28,63.61a1.34,1.34,0,0,1-.12-1.46c.13-.35.43-.65.56-1,.22-.65.77-1.07,1.08-1.66a3.45,3.45,0,0,1,.73-.75c.67-.68,1.31-1.38,2-2a15.34,15.34,0,0,1,1.91-1.4c1.23-.77,2.49-1.5,3.74-2.25a.51.51,0,0,0,.15-.18c-.23-.27-.1-.6-.11-.89a.89.89,0,0,1,.19-.54,13.15,13.15,0,0,1,1.36-1.61,12.21,12.21,0,0,1,3.66-2.42,3.83,3.83,0,0,1,1.86-.34.68.68,0,0,0,.26-.07.78.78,0,0,1-.21-.09,4.35,4.35,0,0,1-1.27-1.7c-.26-.58-.49-1.17-.76-1.74-.16-.35-.29-.37-.5,0s-.47.88-.74,1.31A17,17,0,0,1,13,46.4a.74.74,0,0,1-1.27,0,4.4,4.4,0,0,1-.84-2.27,9.78,9.78,0,0,1,.25-2.35c.07-.35.09-.71.13-1.07a1.36,1.36,0,0,0,0-.17.45.45,0,0,0-.13.1c-.49.58-1,1.16-1.44,1.77a2.17,2.17,0,0,1-1.31.83,1.33,1.33,0,0,1-1.54-1,23.28,23.28,0,0,1-.48-2.49s.07-.11.08-.18a12.91,12.91,0,0,0,.4-1.33,2.7,2.7,0,0,1,.81-1.46c1.09-1.18,2.19-2.36,3.35-3.47a26.92,26.92,0,0,1,2.56-2.07,7.52,7.52,0,0,1,2.31-1c.83-.24,1.63-.57,2.45-.84a5.82,5.82,0,0,1,1.95-.43c.35,0,.71-.11,1.07-.1a9.43,9.43,0,0,1,1.17.17l.33,0c0-.1-.06-.2-.08-.3A3.64,3.64,0,0,1,23,26.56a9.88,9.88,0,0,1,.54-1.14,3.08,3.08,0,0,1,2-1.37,6.65,6.65,0,0,1,1.34-.38c.51,0,1-.18,1.51-.24s1-.05,1.51-.09a3.23,3.23,0,0,1,2.08.52A18.93,18.93,0,0,1,33.45,25a7,7,0,0,1,1.2,1c.18.22.35.44.53.65s.49.37.86.07.69-.57,1-.89a4.88,4.88,0,0,1,2.21-1.14,3,3,0,0,1,1.94,0,8.49,8.49,0,0,1,1.07.58,2.23,2.23,0,0,1,.44.29,5.39,5.39,0,0,1,.54.53c.12.14.22.3.33.45a5.14,5.14,0,0,0,.29-.51,12.22,12.22,0,0,1,1.4-2,2.41,2.41,0,0,1,.82-.55c.25-.15.54-.22.66-.54,0-.11.25-.15.38-.22l.35-.19a1.48,1.48,0,0,0-.41,0,4.25,4.25,0,0,0-.72.2,4.82,4.82,0,0,1-2.25.28,4,4,0,0,1-1-.37,5.09,5.09,0,0,1-1.5-.73,2.49,2.49,0,0,1-.85-2.43A7.27,7.27,0,0,1,42,16.91a4.31,4.31,0,0,1,2.45-1.57A16.27,16.27,0,0,1,46.13,15a1.1,1.1,0,0,0,.18,0c.4-.11.37-.1.2-.52a4.51,4.51,0,0,1-.3-2.9c.1-.43.11-.9.24-1.34a8.12,8.12,0,0,1,1.23-2.35,4.66,4.66,0,0,1,2.2-1.61A10.15,10.15,0,0,1,52,5.7a8.41,8.41,0,0,1,2.41.08,4.28,4.28,0,0,1,2.19.71.94.94,0,0,0,.3.07c0-.1,0-.23,0-.29a1.59,1.59,0,0,1-.31-1.36,2,2,0,0,1,.56-1.2c.27-.23.45-.58.72-.81a3,3,0,0,1,3.85-.17c.24.22.49.41.74.62a.91.91,0,0,1,.21.23,2.49,2.49,0,0,1,.11.29c.08-.09.21-.18.24-.29a2.23,2.23,0,0,1,1-1.43,14.65,14.65,0,0,0,1.2-1,3,3,0,0,1,.6-.36,5,5,0,0,1,2-.64C68.21.09,68.6,0,69,0a1.46,1.46,0,0,1,1,.26,9.5,9.5,0,0,1,1.66,1.25c.24.24.55.42.78.67a4.66,4.66,0,0,1,.7,1,8,8,0,0,1,.6,1,2.87,2.87,0,0,1,.21,1.8c.28.26-.06.58.09.92a1.47,1.47,0,0,1-.16,1.27s0,.14,0,.21.17,0,.21-.05a5.47,5.47,0,0,1,1.7-1.16,4.6,4.6,0,0,1,2.79-.64c.61.08,1.22.13,1.82.26a2.16,2.16,0,0,1,.92.46,5,5,0,0,1,1.51,2.23,2.43,2.43,0,0,1-.87,2.65c-.08.06-.17.1-.24.16a1.24,1.24,0,0,0-.14.18c.08.05.16.15.24.16a7.3,7.3,0,0,0,.81,0,4.51,4.51,0,0,1,1.66.37c.5.18,1,.3,1.53.5a7.43,7.43,0,0,1,3.16,1.87,3.47,3.47,0,0,0,.51.4,1,1,0,0,1,.33.55c.05.17.31.27.46.42A5.32,5.32,0,0,1,91,18.47a.57.57,0,0,1,0,.36,5.07,5.07,0,0,1-.74,1.62.93.93,0,0,1-.75.37A8,8,0,0,1,88,20.59,25.59,25.59,0,0,1,85,19.53a1.09,1.09,0,0,0-.25,0c.06.07.11.17.18.21.33.22.66.42,1,.62a4.74,4.74,0,0,1,2,1.83c0,.09.14.15.21.22a1.52,1.52,0,0,1,.51.91c0,.38.37.46.63.19s.31-.41.49-.6a1,1,0,0,1,.29-.19c.71-.29,1.41-.6,2.13-.87A18.15,18.15,0,0,1,94.59,21a6.91,6.91,0,0,1,1.7,0c.1,0,.19.06.29.06a5.19,5.19,0,0,1,2.1.32s.11-.08.11-.1-.1-.28-.2-.33A5.54,5.54,0,0,1,96.69,19a.83.83,0,0,1,0-.94,2.87,2.87,0,0,1,3.13-1.13c.22.08.48,0,.71.1a5.81,5.81,0,0,1,3,2.38c.26.38.63.71.64,1.23,0,0,.07.05.1,0s.12,0,.13-.08a5.2,5.2,0,0,1,1.48-2.32c.4-.4.73-.88,1.15-1.26a17.64,17.64,0,0,1,1.92-1.53,3.26,3.26,0,0,1,1.77-.51,2.15,2.15,0,0,1,2.17,1.94,12.31,12.31,0,0,1-.27,2.78c0,.07-.09.13-.11.2a3,3,0,0,0-.06.42,2.6,2.6,0,0,0,.38-.27,3.69,3.69,0,0,1,1.9-1.4,1.47,1.47,0,0,1,.41-.07c.33,0,.66,0,1,0a1.47,1.47,0,0,0,.67,0c.1-.05,0-.37.07-.57a3.64,3.64,0,0,1,1-2A16.75,16.75,0,0,0,119,14.6a11.92,11.92,0,0,1,3.28-3.09,3.89,3.89,0,0,1,1.39-.51c.53-.06.93-.39,1.44-.48a3.61,3.61,0,0,1,1.93,0,1.54,1.54,0,0,1,.74.6,2,2,0,0,1-.09,2.33c-.55.9-1.28,1.71-1.91,2.57a17.56,17.56,0,0,1-1.94,2.19c0,.05,0,.17-.08.25a2.5,2.5,0,0,0,.25-.09c.74-.4,1.48-.84,2.24-1.19a9.43,9.43,0,0,1,2.21-.68,17.56,17.56,0,0,1,3.32-.11,1.9,1.9,0,0,1,1.68,1.43,2.16,2.16,0,0,1-.74,1.95,12.61,12.61,0,0,1-2.62,2.09s-.09.1-.14.15a1.14,1.14,0,0,0,.19.1,6.78,6.78,0,0,1,2.58.82c.27.21.58,0,.84-.14a4.78,4.78,0,0,0,.9-.52,3.33,3.33,0,0,1,2.31-.38c.18,0,.36.12.52.09a20.08,20.08,0,0,1,3-.13,5.88,5.88,0,0,1,3.06.9,1.25,1.25,0,0,1,.31.3c.2.24.16.44-.14.55-.66.26-1.34.47-2,.76a14.36,14.36,0,0,0-1.45.88c-.2.12-.41.22-.6.35a.35.35,0,0,0-.05.21s.13.06.16,0a3.81,3.81,0,0,1,1.78-.33,6.67,6.67,0,0,1,2.12.26,7.13,7.13,0,0,1,2.83,1.57c.31.27.63.52.92.8a6.45,6.45,0,0,1,1.62,3.06c.22.81-.07,1.21-1,1.75a8.57,8.57,0,0,1-1.74.61c-.33.12-.68.17-1,.26a.35.35,0,0,0-.18.16s.07.15.12.17a4,4,0,0,1,1.68,2.22,1.54,1.54,0,0,1-.64,1.82,7.24,7.24,0,0,1-1.3.91,1.85,1.85,0,0,1-1.77,0,1.58,1.58,0,0,0-.26-.13.36.36,0,0,0-.25,0,.35.35,0,0,0-.06.25c.06.43.14.85.21,1.28a1.55,1.55,0,0,1-.81,1.58,7.06,7.06,0,0,1-2.76,1.17.61.61,0,0,0-.4.37,7,7,0,0,1-.5,1.67c-.06.09,0,.24,0,.37a1.22,1.22,0,0,0,0,.17l.13-.09a4,4,0,0,1,2.24-.76,2.72,2.72,0,0,1,2,1,.83.83,0,0,1,.11.15,8.89,8.89,0,0,1,.13,2c-.07.44-.09.88-.13,1.32a1.74,1.74,0,0,0,.05.22.44.44,0,0,0,.21-.08,16.76,16.76,0,0,1,4.21-2.64,4.55,4.55,0,0,1,1.27-.38,6.32,6.32,0,0,1,1.44-.12,5.32,5.32,0,0,1,1.42.32,2.62,2.62,0,0,1,1.53,1.64,5,5,0,0,1,.44,2.3,5.6,5.6,0,0,1-.23,1.52c0,.15,0,.34,0,.5-.06.41-.14.81-.22,1.21,0,.22-.11.32.24.24a13.28,13.28,0,0,1,1.68-.15l1.14-.12a4.58,4.58,0,0,1,2.11.45,3.62,3.62,0,0,1,2,1.75,9.39,9.39,0,0,1,.71,1.7,3.18,3.18,0,0,1,.13,1.47c-.14.64-.16,1.3-.27,2a20.25,20.25,0,0,1-.51,2.46,3.39,3.39,0,0,1-1.2,1.75,4.78,4.78,0,0,1-1.52.86,3.87,3.87,0,0,1-.67.17,5.79,5.79,0,0,1-2.95-.1A4.18,4.18,0,0,1,151.81,65a3.41,3.41,0,0,1-.89-1.75c0-.42,0-.85-.06-1.28,0-.19-.06-.31-.24-.15a1.94,1.94,0,0,1-2.24.12,4.7,4.7,0,0,1-1.52-.86.43.43,0,0,0-.65,0,6.46,6.46,0,0,1-1.5.89c-.29.14-.23.24-.12.44a7,7,0,0,1,.76,1.55,2.85,2.85,0,0,1,0,1.76,6.51,6.51,0,0,1-.87,2.07A2.67,2.67,0,0,1,143,68.88a5.9,5.9,0,0,1-3.2-.12c-.38-.13-.84-.24-.94-.75a.17.17,0,0,0-.11-.11c-.64,0-.79-.51-1-.9-.42-.8-.76-1.63-1.13-2.45a.67.67,0,0,0-.09-.14,1,1,0,0,0-.16.12,8.27,8.27,0,0,1-.71,1A4.55,4.55,0,0,1,133,67a8,8,0,0,1-1.07.12,2.89,2.89,0,0,1-1.44-.44,1.08,1.08,0,0,1-.57-1,7.53,7.53,0,0,1,.86-4.14.54.54,0,0,0,0-.11l0-.26a.65.65,0,0,0-.21.07,8.19,8.19,0,0,0-1.08.84c-.4.41-1,.63-1.27,1.13a.18.18,0,0,1-.1.07,17.81,17.81,0,0,1-2,.9,9.4,9.4,0,0,0-1.41.36,3.61,3.61,0,0,1-1.46,0,1.13,1.13,0,0,0-.28-.21c-.26-.1-.53-.14-.77-.26a1,1,0,0,1-.49-1.3,6.94,6.94,0,0,1,1.56-2.9c.64-.77,1.38-1.45,2.05-2.2.37-.41.71-.86,1-1.3,0-.06,0-.17,0-.26s-.17,0-.21.08c-.22.23-.39.51-.63.73a10.29,10.29,0,0,1-1,.75,3.35,3.35,0,0,1-2.16.8c-.12,0-.29,0-.37,0-.43.33-.85,0-1.26,0a1.49,1.49,0,0,1-.93-1.33,5.3,5.3,0,0,1,.78-1.73,2.08,2.08,0,0,1,.21-.21.91.91,0,0,0-.37,0c-.31.17-.6.37-.9.55a7.5,7.5,0,0,1-2.22.94,4.84,4.84,0,0,1-2,0,2.51,2.51,0,0,1-1.35-.82c-.15-.17-.47-.4-.57-.34-.37.2-.73,0-1.09.09-.18,0-.29,0-.19.27a2,2,0,0,1,0,1.56,2.8,2.8,0,0,1-3.18,1.54.35.35,0,0,0-.42.17,3.73,3.73,0,0,0-.14.44,5.51,5.51,0,0,1-1.45,2.39,4.64,4.64,0,0,1-2,1.25c-.21,0-.52.1-.5.48a2.29,2.29,0,0,1-1.64,1.84c-.26,0-.41.23-.63.29s-.16.17,0,.24c.4.15.49.53.63.87s0,.52,0,.77a5.63,5.63,0,0,1-.08,1.24c-.22.59-.42,1.19-.68,1.77a5.33,5.33,0,0,1-.65,1c-.51.65-1.09,1.26-1.6,1.9a5.36,5.36,0,0,1-2.47,1.71,4,4,0,0,1-2.15.3c-.6-.13-1.22-.16-1.82-.26a8.66,8.66,0,0,1-2.93-1.21c-.61-.37-1.25-.69-1.87-1a5.32,5.32,0,0,1-.65-.39,12.81,12.81,0,0,1-2.59-2.45,3.59,3.59,0,0,0-.38-.4l-.27.51a1.74,1.74,0,0,0,0,.22c-.25.71-.45,1.44-.76,2.12a9.85,9.85,0,0,1-1,1.64,4,4,0,0,1-1.23,1.13,4.31,4.31,0,0,1-2.47.34,1.1,1.1,0,0,1-.7-.37,3.75,3.75,0,0,1-.94-2.54v-.87a1.36,1.36,0,0,0,0-.17c-.06,0-.15.08-.18.14A5.76,5.76,0,0,1,76,73.77c-.12.12-.3.19-.4.33a2.66,2.66,0,0,1-2.14,1c-1,.08-1.74-1.23-1.58-1.88a5.11,5.11,0,0,0,.1-1c0-.93.08-1.87.13-2.81,0-.09.08-.18.1-.27a.48.48,0,0,0,0-.17s-.11,0-.13.07a1.23,1.23,0,0,1-.84.39c-.32.07-.66.09-1,.18a1.3,1.3,0,0,1-1.14-.11,2.85,2.85,0,0,1-1.38-1.34c0-.08-.12-.14-.19-.21a1,1,0,0,0,0,.29,7.38,7.38,0,0,1-.31,2.43,7,7,0,0,1-1.46,2.56,2,2,0,0,1-.9.66,8.22,8.22,0,0,1-2.65.53,8.42,8.42,0,0,1-.87,0c-.27,0-.3.09-.29.32a12.36,12.36,0,0,1-.37,3,3.62,3.62,0,0,1-1,1.57,1,1,0,0,1-.67.31,6.41,6.41,0,0,1-2.11-.14,4.58,4.58,0,0,1-2.59-2.14,4.29,4.29,0,0,1-.19-3,2.3,2.3,0,0,1,.32-1s0-.15,0-.22-.13,0-.16,0c-.21.2-.4.41-.61.6a13.28,13.28,0,0,1-1.29,1.09A4.68,4.68,0,0,1,51,75.6a13.67,13.67,0,0,1-2,.27s-.1,0-.16-.06a3.5,3.5,0,0,1-1.64-1.14.84.84,0,0,1-.11-.21,2.09,2.09,0,0,1,.2-1.68,8,8,0,0,1,1.56-2.22L50.31,69a1.09,1.09,0,0,0,.13-.17c-.08,0-.17-.06-.23,0-.63.24-1.27.46-1.87.76-.77.39-1.59.66-2.38,1a2,2,0,0,1-1.71-.09,2.05,2.05,0,0,1-1.12-1.88c0-.31.1-.63.1-.94a3,3,0,0,1,.51-1.41c.28-.47.59-.92.88-1.39a1.09,1.09,0,0,0,.1-.25c-.11,0-.25,0-.33,0-.31.18-.59.39-.89.57s-.93.28-1.3.63a.52.52,0,0,1-.26.12,8.75,8.75,0,0,0-1.25.3,2.52,2.52,0,0,1-2.55-.73A1.16,1.16,0,0,1,38,63.86c.32-.47.62-1,.92-1.43s.49-.84.76-1.24a9.48,9.48,0,0,1,1.54-1.92c.13-.11.11-.16,0-.31A7,7,0,0,1,40,56.11c0-.06-.08-.12-.12-.17s-.09.1-.13.16c-.29.43-.57.88-.87,1.31-.18.25-.42.45-.6.69a9.39,9.39,0,0,1-2,1.95,3.71,3.71,0,0,1-3.49.34.92.92,0,0,1-.3-.18A8.42,8.42,0,0,1,30.44,58a3.5,3.5,0,0,1-.52-1.77,4.27,4.27,0,0,1,.12-.7,7.17,7.17,0,0,1,.57-2.5.49.49,0,0,0,0-.21.48.48,0,0,0-.17,0c-.44.19-.89.37-1.32.58s-.59.36-.9.51c-1,.5-2,1-2.95,1.46a3.17,3.17,0,0,1-1.88.41A2.45,2.45,0,0,1,21.73,55a.81.81,0,0,1-.25-.81,9.27,9.27,0,0,1,.68-1.65A12.48,12.48,0,0,1,24,50.2a33.23,33.23,0,0,1,2.6-2.11L26.8,48c-.06,0-.11-.11-.17-.11a4,4,0,0,1-1.47-.51.57.57,0,0,1-.36-.64c0-.37,0-.75,0-1.12a2.54,2.54,0,0,1,.8-1.85,3.51,3.51,0,0,0,.44-.56c.31-.39.6-.8.93-1.17s1-.91,1.33-.75c.09,0-.22.74-.14.8-.1.06-.2.18-.3.18A1.35,1.35,0,0,0,26.7,43c-.19.32-.43.61-.65.91s-.35.44-.49.67a4.17,4.17,0,0,0-.38,1.59.86.86,0,0,0,.54,1,2.17,2.17,0,0,0,2.36,0,6,6,0,0,1,1.24-.62.92.92,0,0,1,.59,0c.15,0,.25.23.38.36a1.39,1.39,0,0,1-.31.23c-.29.14-.6.24-.89.39a10.19,10.19,0,0,0-2.07.87,6.68,6.68,0,0,1-.89.72,10.31,10.31,0,0,0-1.82,1.46,7.22,7.22,0,0,0-1.56,2,3.08,3.08,0,0,0-.69,1.84c0,.47.15.73.58.85a7.39,7.39,0,0,0,.82.14,3.55,3.55,0,0,0,2.2-.56c.78-.36,1.53-.8,2.31-1.18s1.79-.89,2.7-1.31a1.79,1.79,0,0,1,.53-.07c.29,0,.24.19.19.32-.1.29-.27.56-.35.85-.2.79-.4,1.59-.55,2.39a2.65,2.65,0,0,0,.18,1.66,4.61,4.61,0,0,0,.92,1.48,7.57,7.57,0,0,0,1.32,1,5.71,5.71,0,0,0,.94.29A2.25,2.25,0,0,0,35.61,60a3.26,3.26,0,0,0,1-.69,15.94,15.94,0,0,0,2-2.08,9.43,9.43,0,0,0,1.4-2.4.31.31,0,0,1,.42-.24.3.3,0,0,1,.14.49,1.3,1.3,0,0,0,.07,1.44c0,.06.11.13.11.2a3.68,3.68,0,0,0,.64,1.6l.86.93c0,.07,0,.19.1.21s.39,0,.49.15a2.65,2.65,0,0,0,1.47.67c.67.16,1.29.61,2,.4.4.32.82,0,1.2,0A3.8,3.8,0,0,0,49,60.08a10.27,10.27,0,0,0,1.58-1.44,1.7,1.7,0,0,0,.5-1.63,4.23,4.23,0,0,0-1.5-2,2,2,0,0,0-1.46-.26c-.51.13-1,.32-1.5.43a1.61,1.61,0,0,1-1.06,0c-.25-.11-.2-.24-.13-.36a.68.68,0,0,1,.37-.28c.73-.14,1.47-.27,2.21-.37a1.3,1.3,0,0,0,.65-.23c.57-.4,1.16-.76,1.68-1.2A4.17,4.17,0,0,0,51.64,51a1.45,1.45,0,0,0,.15-.71,2.1,2.1,0,0,0-2-1.54,4.35,4.35,0,0,0-1.66.36,10.28,10.28,0,0,0-2.83,1.74c-.13.12-.31.19-.43.32s-.3-.13-.47-.06a1.36,1.36,0,0,1,.09-.42c.07-.11.25-.13.33-.23.38-.53.77-1.05,1.1-1.6a3.05,3.05,0,0,0,.55-2,.75.75,0,0,0-.79-.77,3.11,3.11,0,0,0-2,.6,3.28,3.28,0,0,1-.71.39,10.4,10.4,0,0,0-2.06,1c-.24.14-.51.26-.72.09s0-.44.06-.65c.23-.59.47-1.17.74-1.75a7.53,7.53,0,0,0,.6-2.36,2.8,2.8,0,0,0-.12-1.74,4.18,4.18,0,0,0-.75-.83c-.52.07-1-.12-1.57.11a4.78,4.78,0,0,1-1.07.26,2.41,2.41,0,0,1-.38,0c-.27,0-.32-.17-.33-.4s.17-.22.32-.22a5.3,5.3,0,0,0,.69,0,6.58,6.58,0,0,0,.86-.18s.08-.08.13-.12-.11-.06-.16-.06a.7.7,0,0,0-.25,0A1.82,1.82,0,0,1,37.05,40a.6.6,0,0,0-.32-.12.28.28,0,0,0-.21.12A3.22,3.22,0,0,1,35,41.69l-.86.49a7,7,0,0,1-1.33.55,3.72,3.72,0,0,1-2.19,0,7.08,7.08,0,0,1-2.36-1.22,4.21,4.21,0,0,1-.79-1.18l-.15-.21c0,.07-.09.14-.13.22A12.06,12.06,0,0,1,26.4,42a1.32,1.32,0,0,1-1,.75c-.49.07-.95.39-1.47.12,0,0-.25.19-.26.31a8.55,8.55,0,0,0,0,1.24,2.34,2.34,0,0,1-.19,1A12.25,12.25,0,0,1,22.8,47a1.74,1.74,0,0,1-1.25,1,5.44,5.44,0,0,1-2.23-.17,4.94,4.94,0,0,0-1.11-.3,5.31,5.31,0,0,0-1.82.11,7.68,7.68,0,0,0-2,.82c-.61.41-1.16.87-1.75,1.3a5,5,0,0,0-1.34,1.42,3.8,3.8,0,0,0-.55,1,.59.59,0,0,0,.5.74c.31,0,.63.1.94.11s.38.15.38.43-.27.31-.4.31a9.58,9.58,0,0,1-1.06-.13,1.14,1.14,0,0,0-.55,0A19.77,19.77,0,0,0,8.42,54.6c-.94.56-1.81,1.23-2.73,1.82-.45.29-.75.78-1.29.95-.11,0-.19.16-.27.25-.41.45-.83.9-1.23,1.36S2,60,1.67,60.47A7.51,7.51,0,0,0,.8,62a1.35,1.35,0,0,0,.27,1.7A5.88,5.88,0,0,0,3.56,65,5.75,5.75,0,0,0,7,64.85a7.8,7.8,0,0,1,.93-.31A13.66,13.66,0,0,0,11,63.18c.48-.25,1-.46,1.45-.71.23-.13.31,0,.36.17a.83.83,0,0,1-.06.4c-.09.29-.21.58-.3.87s-.12.54-.23.78a3.8,3.8,0,0,0-.39,2,1.57,1.57,0,0,0,.26.76,2.59,2.59,0,0,0,2.28.91A3.76,3.76,0,0,0,15.63,68a12.59,12.59,0,0,0,1.84-.82,30.56,30.56,0,0,0,2.88-1.91,2.29,2.29,0,0,1,1.4-.53c.22,0,.36.14.31.36-.09.43-.22.86-.33,1.29a4.32,4.32,0,0,0-.28,1.62c.09.66.27,1.31.36,2a2.59,2.59,0,0,0,1,1.74,6.8,6.8,0,0,0,1.69.88,4.32,4.32,0,0,0,2.69.5,2,2,0,0,0,1-.46l2.4-2.15c.24-.21.53-.24.67,0,.23.45.65.61,1,.87a2.94,2.94,0,0,1,.55.32,1.43,1.43,0,0,0,1,.37c.56,0,.65-.1.48-.63s-.27-.93-.4-1.39a.64.64,0,0,1,.39-.56c.25-.07.26.13.35.29.27.5.56,1,.86,1.45.19.28.43.52.62.81a3.09,3.09,0,0,0,3.08,1.4,1.07,1.07,0,0,0,.92-.66,7.45,7.45,0,0,1,.64-1c.16-.24.36-.36.64-.16,0,0,.09.24.2,0,.23-.42.64-.74.64-1.29a.91.91,0,0,1,.28-.56,4.34,4.34,0,0,1,.83-.7,5.6,5.6,0,0,1-.27,1,3.18,3.18,0,0,1-.23.58,5,5,0,0,1-.52,1,14.44,14.44,0,0,1-1.45,1.58,1.38,1.38,0,0,0-.4,1.21,2.28,2.28,0,0,0,.13.63c.23.56.32,1.23,1.07,1.41.15,0,.26.18.41.21s.59.2.8.11a2.19,2.19,0,0,1,.65-.1,1,1,0,0,1,.29.05,1.34,1.34,0,0,1-.12.37.52.52,0,0,1-.29.18,2.85,2.85,0,0,0-1.25.89c-.23.24-.48.45-.7.7a5.42,5.42,0,0,0-1.23,2.42A7.74,7.74,0,0,0,40,82.93a5.56,5.56,0,0,0,.15,1.73A2,2,0,0,0,41.34,86a4.92,4.92,0,0,0,2.16.5c.63,0,1.26-.17,1.89-.24A14.05,14.05,0,0,0,49,85.09a2.38,2.38,0,0,1,1.21-.37.16.16,0,0,1,.11.1A4.83,4.83,0,0,1,50.2,86,7.53,7.53,0,0,0,50,87.8a2,2,0,0,0,1.12,1.83,7.05,7.05,0,0,0,2.79.8,4.6,4.6,0,0,0,.88-.11,6.91,6.91,0,0,0,2.67-.92c.51-.27,1-.59,1.51-.87a.51.51,0,0,1,.36,0,3.63,3.63,0,0,1,.26.95,5.21,5.21,0,0,0,1.38,2.9,20.36,20.36,0,0,0,2,1.85c.93.72,1.92,1.36,2.89,2a6.76,6.76,0,0,0,3.24,1A10.59,10.59,0,0,0,71.42,97a2.71,2.71,0,0,0,1-.37,8.13,8.13,0,0,0,1.88-1.48A2.71,2.71,0,0,0,75,92.85c0-.35,0-.46.31-.41a2.2,2.2,0,0,1,.69.29,9,9,0,0,0,2,.86,3.25,3.25,0,0,0,1.85.09,2.65,2.65,0,0,0,1.53-1,3.49,3.49,0,0,0,.54-1.77,9.71,9.71,0,0,0-.38-2.83.73.73,0,0,1,0-.41.4.4,0,0,1,.45-.25q.6.09,1.2.12c.83.05,1.67.07,2.5.14a4.26,4.26,0,0,0,2.21-.54c.31-.15.59-.37.9-.52s.51-.11.62.26c.22.66.44,1.32.62,2a1.14,1.14,0,0,0,.86.9,5.82,5.82,0,0,0,2,0A10,10,0,0,0,95.19,89a3.25,3.25,0,0,0,.93-.58,6.35,6.35,0,0,0,1.42-2.64c.11-.42.17-.85.26-1.27s.32-.4.56-.16a1.3,1.3,0,0,1,.18.23,10.05,10.05,0,0,0,1.81,2.25,3.24,3.24,0,0,0,2.12.86,7.88,7.88,0,0,0,1.69-.13,4,4,0,0,0,2-1A11.73,11.73,0,0,0,108,84.28a5.8,5.8,0,0,0,.92-2.3c0-.51.17-1,.23-1.51,0-.19.08-.34.26-.36s.32-.08.41.2c.19.6.65,1.08.86,1.7a1.08,1.08,0,0,0,.67.56,6.26,6.26,0,0,0,1.31.14.58.58,0,0,0,.27-.09c.69-.27,1.38-.59,2.09-.82a3.17,3.17,0,0,0,1.5-1,4.6,4.6,0,0,0,.4-.64,6,6,0,0,0,.93-1.8,2.63,2.63,0,0,1,.22-.59,3,3,0,0,0,.31-1.55,4.38,4.38,0,0,1,0-.81,1.42,1.42,0,0,0-.25-1.23,4.51,4.51,0,0,1-.29-.63,1.92,1.92,0,0,0-1.19-1.14,1.81,1.81,0,0,1-.23,0c-.21-.11-.18-.32-.14-.49s.19-.1.29-.1a2,2,0,0,0,1.54-.5,3.16,3.16,0,0,1,.53-.37c.65-.38,1.33-.72,2-1.13a3.09,3.09,0,0,0,1.3-1.59,6.52,6.52,0,0,0,.21-.72c.14-.64.26-1.27.38-1.9a3.4,3.4,0,0,0,.11-.7c0-.11-.21-.23,0-.34a.81.81,0,0,1,.4-.09,1.36,1.36,0,0,1,.38.11M96.55,58.37c-.15.19-.29.4-.46.58a1.28,1.28,0,0,1-2.15-.55,13.06,13.06,0,0,1-.5-2.41c0-.05,0-.11,0-.16s-.14.09-.17.15c-.26.5-.53,1-.75,1.5a6,6,0,0,1-1.19,1.68,3.81,3.81,0,0,1-4.08,1,4.66,4.66,0,0,1-3.41-3.33,5.27,5.27,0,0,1-.2-1.72.94.94,0,0,0-.06-.28c-.06.06-.14.11-.17.18a28.65,28.65,0,0,1-2,3.59c-.15.23-.36.43-.49.67a2.7,2.7,0,0,1-2.41,1.53,3,3,0,0,1-2.31-1.15,2.3,2.3,0,0,1-.4-2.17,9.21,9.21,0,0,1,1-2,3,3,0,0,1,.83-1.09c.13-.1.26-.18.38-.28a.17.17,0,0,0,.07-.14s-.06-.09-.11-.1a.55.55,0,0,0-.18,0c-.84,0-1.68,0-2.5.15a2.5,2.5,0,0,0-1.59.67c-.21.23-.23.4-.09.61a3.45,3.45,0,0,1,.23,3.32,1.42,1.42,0,0,1-.73.82,1.37,1.37,0,0,1-1.41-.31c-.25-.27-.59-.5-.59-.94,0,0-.09-.08-.13-.08s-.11.07-.11.11a1.6,1.6,0,0,1-.2.79,6,6,0,0,1-.78,1.31,2.34,2.34,0,0,1-.91.66,2.31,2.31,0,0,1-1.16.13,2.42,2.42,0,0,1-1.52-.55c-.38-.31-.69-.72-1.06-1a.61.61,0,0,1-.21-.72,31.26,31.26,0,0,1,.85-3c.13-.28.24-.56.35-.85a.47.47,0,0,0,0-.17.39.39,0,0,1-.14.05,5.06,5.06,0,0,0-3,1.86A9.58,9.58,0,0,1,60.8,59c-.14.41-.49.3-.79.31a1,1,0,0,1-.89-.25c-.2-.25-.37-.51-.56-.77.21-.48.18-1,.44-1.5a10.61,10.61,0,0,1,1.51-2.24,11.59,11.59,0,0,0,.79-.92,7.77,7.77,0,0,1,2-1.92c.05,0,.08-.11.12-.17s-.15-.08-.21-.07a15.3,15.3,0,0,0-2,.55,12.93,12.93,0,0,0-2.32,1c-.8.53-1.71.89-2.51,1.44a12.16,12.16,0,0,1-2.62,1.2.66.66,0,0,1-.37,0,2.37,2.37,0,0,1-2.05-1.57.87.87,0,0,1-.1-.51,3.18,3.18,0,0,1,.45-1,17.77,17.77,0,0,1,2.8-3c.49-.37.93-.81,1.44-1.17A17.93,17.93,0,0,1,58,47.11a5.45,5.45,0,0,1,1.85-.8,3.67,3.67,0,0,0,.85-.22c.07,0,.12-.11.17-.16a.64.64,0,0,0-.19-.08,5.62,5.62,0,0,0-1.67.32c-.89.2-1.67.68-2.58.86a1.48,1.48,0,0,1-1.57-.56.31.31,0,0,1,0-.29A12.11,12.11,0,0,1,57.38,44a13.67,13.67,0,0,1,2.28-1.25,10.76,10.76,0,0,1,1.09-.37c.72-.19,1.4-.45,2.14-.57a4.62,4.62,0,0,1,1.85,0,5.8,5.8,0,0,1,3,1.56c.18.2.37.16.45-.08a5.08,5.08,0,0,1,2.16-2.4A3.68,3.68,0,0,1,72,40.39a1.72,1.72,0,0,1,1.13.25,2.71,2.71,0,0,1,1.22,1.9,6.71,6.71,0,0,1,.26,1.26c0,.1.11.2.16.3a1.38,1.38,0,0,1,.14-.24,1.11,1.11,0,0,1,.33-.25,10.7,10.7,0,0,1,2.62-.78,2.51,2.51,0,0,0,.87-.11c.58-.27,1.08.05,1.61.11a1.89,1.89,0,0,1,1.17.65c.07.08.21.09.32.13a1.54,1.54,0,0,1,.11-.3c.06-.12.11-.29.21-.34a3.85,3.85,0,0,1,2-.74c.38,0,.75,0,1.13,0a.34.34,0,0,0,.15-.07s-.06-.14-.12-.17c-1-.54-1.53-1.6-2.24-2.44a.37.37,0,0,1,.06-.54,7.62,7.62,0,0,1,3.17-1.53,10.32,10.32,0,0,1,2.94.06,17.28,17.28,0,0,1,2.11.46.77.77,0,0,0,.29,0,1.22,1.22,0,0,1-.15-.17c-.2-.37-.54-.75-.2-1.17a4.24,4.24,0,0,1,.94-.85,5.82,5.82,0,0,1,2.06-.88c.19,0,.31-.17.54,0a.51.51,0,0,0,.68-.32,6.71,6.71,0,0,0,.13-.76c0-.17,0-.33-.25-.21-.8.34-1.62.61-2.41,1A4,4,0,0,1,91,35a1.47,1.47,0,0,1-.6-.2c-.31-.2-1.17-.84-.83-1a12.25,12.25,0,0,1,1.26.41,2.28,2.28,0,0,0,.75.13,11.79,11.79,0,0,0,1.61-.47A19.78,19.78,0,0,0,96,32.72c.29-.17.4,0,.57.16s0,.26-.1.39a3.45,3.45,0,0,0-.2.48,3,3,0,0,1-.26.82l-.11,1.32c0,.69.06,1.38.13,2.06a4.15,4.15,0,0,0,.23,1c.17.52.36,1,.57,1.56a1,1,0,0,0,1.44.69l.22-.05a5.31,5.31,0,0,0,1.88-.73,22.32,22.32,0,0,0,2.21-1.29,3.12,3.12,0,0,0,1.66-2.27c0-.27.19-.33.42-.32s.33.22.33.46c0,.92,0,1.84.14,2.75a4.08,4.08,0,0,0,.49,1.54c.16.3.43.33.6.05a3.66,3.66,0,0,0,.66-1.41c0-.11.28-.23.44-.26s.27.2.27.3a4.83,4.83,0,0,0,.52,2.22A3.64,3.64,0,0,0,109,43.5a9.15,9.15,0,0,0,1.17.78.56.56,0,0,0,.49,0,1.23,1.23,0,0,0,.56-.43c.52-1,1.31-1.8,1.18-3,0,0,0-.11,0-.12a1.59,1.59,0,0,1,.37-.27.3.3,0,0,1,.25.12,5.85,5.85,0,0,1,.61,1A6.17,6.17,0,0,0,115,43.7a2.25,2.25,0,0,0,.83.52c.8.28,1.62.52,2.43.77a2.12,2.12,0,0,0,.45.11,5,5,0,0,0,2.32-.54c.78-.33,1.56-.67,2.34-1a2.41,2.41,0,0,0,1.7-1.81,10.18,10.18,0,0,0,.32-1.17,3.41,3.41,0,0,0-.24-1.94,1.83,1.83,0,0,1-.12-.46c-.06-.22.14-.21.25-.25a.33.33,0,0,1,.29,0,2.27,2.27,0,0,1,.33.48,4.58,4.58,0,0,0,1.75,1.92,1.94,1.94,0,0,0,1.43.28,21.07,21.07,0,0,1,2.21-.57,1.16,1.16,0,0,0,.8-.41,1.92,1.92,0,0,0,.27-1.12,2.65,2.65,0,0,0-.38-1.39c-.11-.15-.13-.25,0-.35s.33-.22.41-.18a.67.67,0,0,1,.33.45,2.73,2.73,0,0,0,.61,1.31c.16.25.35.47.53.71.38.53.72,1.09,1.15,1.58a7.14,7.14,0,0,0,2.64,1.75,2.09,2.09,0,0,0,1.63.16l.64-.25a4.09,4.09,0,0,0,1.76-1,1,1,0,0,0,.28-.69,3.41,3.41,0,0,0-.88-2.44.43.43,0,0,1-.07-.55.37.37,0,0,1,.54-.1c.34.18.66.41,1,.61a2.63,2.63,0,0,0,1.42.48,1.49,1.49,0,0,0,1-.51,12.41,12.41,0,0,1,1-.75.46.46,0,0,0,.18-.49,3.17,3.17,0,0,0-.66-1.59,4.4,4.4,0,0,0-2.21-1.42.42.42,0,0,1-.36-.49c0-.26.27-.26.48-.24s.27.07.4.07a7.37,7.37,0,0,0,1.33,0c.49-.09,1-.36,1.44-.42a4.47,4.47,0,0,0,1.61-.78.52.52,0,0,0,.2-.39,2.2,2.2,0,0,0-.12-.76A6.18,6.18,0,0,0,146.49,28c-.3-.22-.6-.43-.9-.66a5.49,5.49,0,0,0-3.53-1.26,13.36,13.36,0,0,0-2,.14,12.79,12.79,0,0,0-1.77.53c-.09,0-.19.08-.28.06s-.3-.09-.34-.18a.47.47,0,0,1,.13-.37c.09-.12.26-.17.38-.27a15.09,15.09,0,0,1,3.49-2.25c.4-.18.8-.36,1.21-.52.18-.07.17-.23.06-.24-.58-.1-1-.49-1.65-.56a12.69,12.69,0,0,0-2.82,0,23.71,23.71,0,0,1-2.38.06,2.13,2.13,0,0,0-1.06.22l-2,1a.65.65,0,0,1-.86-.19,1.53,1.53,0,0,0-1-.49c-.31,0-.6-.16-.91-.21a4.85,4.85,0,0,0-1.36-.12c-.23,0-.39,0-.45-.14a.39.39,0,0,1,.2-.52c.22-.1.46-.2.67-.32s.69-.45,1-.67a8.38,8.38,0,0,0,2.33-2.19,1,1,0,0,0-.48-1.69,3.68,3.68,0,0,0-2-.19,4.41,4.41,0,0,1-.72.08,7.76,7.76,0,0,0-2,.35A15.62,15.62,0,0,0,125,18.5l-.73.35c-.52.24-1,.49-1.58.7a.45.45,0,0,1-.37-.12.35.35,0,0,1,0-.32,2,2,0,0,1,.35-.48L124.25,17a2.2,2.2,0,0,0,.27-.26c.76-1,1.54-1.93,2.28-2.92a2.67,2.67,0,0,0,.77-1.92c0-.36-.36-.85-.69-.87a5,5,0,0,0-1.63,0c-.75.23-1.47.57-2.21.82a5.29,5.29,0,0,0-1.75,1,15.9,15.9,0,0,0-1.88,1.88,19.35,19.35,0,0,0-1.55,2.34,1.8,1.8,0,0,0-.07,2.14.38.38,0,0,1-.07.55c-.19.15-.34,0-.46-.1a1.26,1.26,0,0,0-1.18-.47,4,4,0,0,1-.69,0,2.16,2.16,0,0,0-1.78.82c-.47.49-1,1-1.44,1.45a.29.29,0,0,1-.43,0,.4.4,0,0,1-.14-.48,9.24,9.24,0,0,0,.44-1.38c.13-.47.24-.94.36-1.41a3.45,3.45,0,0,0-.14-1.78.84.84,0,0,0-.48-.59,1.8,1.8,0,0,0-1.25-.25,13.76,13.76,0,0,0-1.61.63,4.63,4.63,0,0,0-1.35,1.1c-.29.27-.64.5-.91.8s-.56.72-.84,1.08a3.51,3.51,0,0,0-.92,2.23c0,.13,0,.29,0,.37a1.19,1.19,0,0,1-.44.36s-.22-.17-.28-.29a4.22,4.22,0,0,1-.27-.7,5.91,5.91,0,0,0-1.38-2.29,5,5,0,0,0-3.58-1.55,1.75,1.75,0,0,0-1.41.67.68.68,0,0,0-.22.71,2.21,2.21,0,0,0,.53,1c.74.69,1.43,1.43,2.16,2.13.21.21.15.31,0,.49s-.47,0-.55-.07a2,2,0,0,0-1.35-.53c-.71-.12-1.45-.1-2.18-.15-.26,0-.53-.16-.76-.11-.84.21-1.67.46-2.5.72-.6.19-1.2.42-1.78.66a1.94,1.94,0,0,0-1.22.82c-.09.19-.38.31-.42.5s.15.38.22.58c.32.9.65,1.81,1,2.72a9.65,9.65,0,0,1,.4,2.44,7.46,7.46,0,0,1-.09,1.76,5.86,5.86,0,0,1-1.34,2.87.56.56,0,0,1-1,0,6.21,6.21,0,0,1-1.2-1.74,5.05,5.05,0,0,0-.25-.45,16.36,16.36,0,0,1-.87-1.45s-.15,0-.23,0c.11.13-.12.17-.07.35a1.81,1.81,0,0,1-.56,1.9,4.08,4.08,0,0,0-.25.33c-.51.6-1,1.23-1.53,1.79a1,1,0,0,1-1,.24,9.59,9.59,0,0,1-1.61-.78,1.51,1.51,0,0,1-.92-.78c-.07-.17-.21-.13-.34,0a4.86,4.86,0,0,1-.73.63c-.58.35-1.19.64-1.76,1a1.32,1.32,0,0,1-1.58-.08,5.28,5.28,0,0,1-1.86-2.14c-.13-.26-.27-.52-.42-.76s-.23-.17-.39,0a1.93,1.93,0,0,1-2,.38c-.44-.15-.9-.22-1.32-.41-.7-.31-1.53-.45-1.93-1.24,0-.05-.16-.07-.22,0a.76.76,0,0,0-.23.21,3.05,3.05,0,0,1-.58.8c-.28.19-.41.58-.8.59a9.41,9.41,0,0,1-2.28,1.56,17.44,17.44,0,0,1-2.53,1.24,3.38,3.38,0,0,1-1.13.26,4.64,4.64,0,0,1-2.46-.82c-.25-.14-.58-.27-.7-.5a5,5,0,0,1-.89-2c0-.18-.12-.23-.23-.11a5.57,5.57,0,0,1-1.36,1.1c-.35.19-.69.42-1.06.59-.79.34-1.58.69-2.39,1a4.55,4.55,0,0,1-2.46.48.72.72,0,0,0-.83.34c-.33.48-.59,1-.89,1.5a6.72,6.72,0,0,1-.62.86,3.92,3.92,0,0,1-2.23,1.39,9.7,9.7,0,0,1-2.62.43.49.49,0,0,0-.51.15.69.69,0,0,0,.19.1,1.06,1.06,0,0,1,.85.47,3.54,3.54,0,0,1,.57,2.26c0,.17-.13.34-.11.5a4.89,4.89,0,0,1-.33,1.74A15.32,15.32,0,0,1,41,47.13a1.37,1.37,0,0,0,0,.29,1,1,0,0,0,.24-.08l2.37-1.19A4,4,0,0,1,46,45.6c.1,0,.23,0,.3,0A1.92,1.92,0,0,1,47,47.58a4.89,4.89,0,0,1-.77,1.67s0,.14,0,.21a.42.42,0,0,0,.16,0c.17-.15.31-.38.51-.44.4-.13.74-.47,1.2-.39a2.64,2.64,0,0,1,2-.27,2.5,2.5,0,0,1,1.87,1.33,1.53,1.53,0,0,1,.06,1.21,5.28,5.28,0,0,1-2.07,2.58c-.26.23-.58.39-.86.61-.05,0,0,.26,0,.26a2.71,2.71,0,0,1,1.67,1.34,2.33,2.33,0,0,1,.09,3,6.39,6.39,0,0,1-1.24,1.4,4.59,4.59,0,0,1-1.7.84,7.18,7.18,0,0,1-2,.15,11,11,0,0,1-2.31-.46,5.44,5.44,0,0,1-1.93-1.06c-.08,0-.11-.16-.23,0-.35.42-.76.8-1.09,1.23-.49.66-1,1.34-1.41,2a6,6,0,0,0-.86,1.58.43.43,0,0,0,0,.35,1.86,1.86,0,0,0,1.61,1.06,4.83,4.83,0,0,0,2.89-.68,13.24,13.24,0,0,1,2.56-1.19c.13,0,.19-.17.35,0s-.15.22,0,.36a.17.17,0,0,1,0,.16,8.33,8.33,0,0,0-.9,1.24,5,5,0,0,0-1,2,2.42,2.42,0,0,0,.61,2.2,1.25,1.25,0,0,0,1.13.38,11.64,11.64,0,0,0,2-.71C48,69.3,48.47,69,49,68.78s1.15-.42,1.73-.61c.14,0,.33-.12.33.18s.14.29-.06.44-.23.32-.37.46c-.64.69-1.28,1.38-1.93,2.06a6,6,0,0,0-1.25,2.29.44.44,0,0,0,0,.36,6.12,6.12,0,0,0,1.07,1.14,3.33,3.33,0,0,0,1.83.24A6.56,6.56,0,0,0,52.77,74c.49-.46,1-.92,1.5-1.36a1.11,1.11,0,0,1,.45-.25c.12,0,.27,0,.23.17a6.63,6.63,0,0,0,0,.89,4.9,4.9,0,0,1-.28,1.26,3.17,3.17,0,0,0,.05,2.23c.23.68.91,1,1.25,1.6.08.14.38.16.58.23.45.15.9.34,1.36.45a1.93,1.93,0,0,0,2.27-1.32,7.08,7.08,0,0,0,.28-1.5,17.46,17.46,0,0,0,0-2.17c0-.36,0-.49.39-.47s.51.11.76.11a14,14,0,0,0,2.33-.21,3.29,3.29,0,0,0,2.53-2.06,8.41,8.41,0,0,0,.68-3.48c0-.37,0-.74,0-1.12,0-.22.1-.32.32-.35s.32.09.38.26a2.45,2.45,0,0,1,.28.81c0,.39.21.56.43.77s.3.45.63.55a2.82,2.82,0,0,0,1.23.14,4.38,4.38,0,0,0,1.93-.78c.22-.16.45-.31.68-.46s.56-.23.68,0-.14.36-.27.46a3.31,3.31,0,0,0-.91,1.68c-.11.34.11.81,0,1.1s.16.73-.09,1c.22.46.06,1,.13,1.44a1,1,0,0,0,.58.85,1.71,1.71,0,0,0,1.84-.27,12.62,12.62,0,0,0,2-2.32,10.88,10.88,0,0,0,.64-1.1c.14-.23.35-.19.55-.15,0,0,.07.18.06.27a5.62,5.62,0,0,0,.14,3.2,1.52,1.52,0,0,0,1.09,1.13A2.27,2.27,0,0,0,81.58,75a3.25,3.25,0,0,1,.45-.25.69.69,0,0,0,.3-.18,11.54,11.54,0,0,0,1.39-2.35,11.76,11.76,0,0,0,.8-3c0-.46.32-.59.67-.31a2.93,2.93,0,0,1,.4.46c.46.55.89,1.13,1.38,1.67A11.39,11.39,0,0,0,88,72c.07.07.18.09.25.14.58.43,1.27.67,1.87,1a17.33,17.33,0,0,0,1.83,1,7.66,7.66,0,0,0,4.29.82,5.61,5.61,0,0,0,2.49-.92,8.83,8.83,0,0,0,1.2-1.17,9.51,9.51,0,0,0,1.86-2.66,8.23,8.23,0,0,0,.68-1.89,1.72,1.72,0,0,0-.18-1.51c-.25-.29-.57-.54-.82-.84-.09-.11-.33-.11-.25-.39s.24-.19.4-.23a7.51,7.51,0,0,0,1-.25,3.35,3.35,0,0,0,1.3-1.06c.11-.12.1-.37.13-.56s0-.27-.23-.24a2.81,2.81,0,0,1-.86.07,4.28,4.28,0,0,1-2.84-1.83,2.63,2.63,0,0,1-.54-1.64c0-.35-.13-.36-.39-.34a2,2,0,0,1-1.85-.8c-.11-.14-.2-.29-.31-.43s-.25-.2-.45,0M48.6,26.73a3.88,3.88,0,0,0,.46-.22c.22-.13.43-.17.59,0s.05.39-.2.5a1,1,0,0,0-.32.27,11.24,11.24,0,0,0-1.49,1.94,9.18,9.18,0,0,0-.78,1.61A5.12,5.12,0,0,0,46.61,33a2,2,0,0,0,2.57,2,19.78,19.78,0,0,0,3.56-1.32,6.8,6.8,0,0,0,.76-.41A4.15,4.15,0,0,0,55,32.05a6.63,6.63,0,0,0,.54-1.33c.08-.2.14-.34.36-.31a.57.57,0,0,1,.36.16.52.52,0,0,1,0,.42,1.75,1.75,0,0,0,0,1.33,6.93,6.93,0,0,0,.52,1.4,3.59,3.59,0,0,0,1.36,1.17,2.56,2.56,0,0,0,2.28.24c.61-.22,1.19-.53,1.79-.78s1.15-.71,1.78-1a9,9,0,0,0,1.15-.83,3.94,3.94,0,0,0,1.3-1.45,10,10,0,0,0,.4-.95c.08-.15.08-.39.37-.37s.46.07.52.43a1.56,1.56,0,0,0,.86,1.22,14.64,14.64,0,0,0,2.13.87,1.78,1.78,0,0,0,1.59-.15,4.84,4.84,0,0,0,.64-.56c.25-.24.31-.24.52,0,0,.08,0,.19.09.27a11.48,11.48,0,0,0,.86,1.76A8.14,8.14,0,0,0,75.82,35a.91.91,0,0,0,.78.14,5.94,5.94,0,0,0,1.23-.63,3.35,3.35,0,0,0,1.2-.86,1.13,1.13,0,0,0,.27-1.15,4.52,4.52,0,0,1-.17-1c0-.1.14-.3.21-.3s.35.1.38.2A11.84,11.84,0,0,1,80,32.69a1.45,1.45,0,0,0,.44,1.06,18.06,18.06,0,0,0,1.8,1.06.72.72,0,0,0,1.06-.18c.57-.65,1.11-1.32,1.63-2a1.48,1.48,0,0,0,.29-.75,3.82,3.82,0,0,0-.39-2.32c-.14-.25-.06-.54.17-.58a.74.74,0,0,1,.47.24,2.5,2.5,0,0,1,.4.51c.27.41.69.71.84,1.21a1.26,1.26,0,0,0,.13.26c.59.82,1.18,1.63,1.76,2.45.32.46.38.47.74.06,0-.05.1-.08.13-.13a8.33,8.33,0,0,0,.86-3,8,8,0,0,0-.11-.94A7.56,7.56,0,0,0,90,28a12.91,12.91,0,0,0-1.74-4.32,8.75,8.75,0,0,0-2.29-2.59c-.47-.32-.94-.63-1.43-.92-.31-.18-.67-.3-1-.47-.12-.07-.29-.24-.27-.32s.19-.4.31-.4A4.79,4.79,0,0,1,85.2,19a20.68,20.68,0,0,0,3.93,1.18c.12,0,.19.09.36.05a.91.91,0,0,0,.66-.47,2.55,2.55,0,0,0,.27-1.25,2.76,2.76,0,0,0-.62-1.41,21.47,21.47,0,0,0-1.73-1.83,4.15,4.15,0,0,0-1.51-.85c-.74-.2-1.42-.59-2.15-.83a4.75,4.75,0,0,0-2.14-.4.9.9,0,0,1-.49,0,1.55,1.55,0,0,0-1-.11c-.17.05-.42.06-.47-.16s.09-.31.17-.46.13-.07.2-.12a4.32,4.32,0,0,0,1.58-1.54,1.32,1.32,0,0,0,.11-1,4.86,4.86,0,0,0-.7-1.52,2.84,2.84,0,0,0-1.69-1.06c-.44-.11-.91,0-1.31-.13A2.38,2.38,0,0,0,77,7.22a8,8,0,0,0-3.79,2.54.58.58,0,0,1-.18.17c-.19.07-.4.12-.55-.09s-.07-.29.07-.42a3.56,3.56,0,0,0,1-2.7A13,13,0,0,0,73.41,5,2,2,0,0,0,73.08,4a11.24,11.24,0,0,0-2.35-2.52,3.26,3.26,0,0,0-2.5-.89h-.18a4.31,4.31,0,0,0-2.43.88,9.14,9.14,0,0,0-1.33,1.17A3.35,3.35,0,0,0,63.17,5c0,.25-.27.51-.46.46A.45.45,0,0,1,62.42,5a1.77,1.77,0,0,0,0-.61,2.44,2.44,0,0,0-3.14-1.57,2.2,2.2,0,0,0-.71.24,3.28,3.28,0,0,0-1.06,1.16c-.1.26-.31.56-.27.8.11.64.33,1.27.5,1.9a1.2,1.2,0,0,1,.08.52c0,.16-.13.37-.38.18s-.27-.12-.33-.23a1.67,1.67,0,0,0-1-.67,10,10,0,0,0-2.22-.5,8.78,8.78,0,0,0-3.5.26A4.22,4.22,0,0,0,48.21,8a12,12,0,0,0-.73,1.12A2.71,2.71,0,0,0,47,10a7.91,7.91,0,0,0-.27,2.78c.15.76.09,1.61.86,2.12a.26.26,0,0,1,.09.09c.15.25,0,.6-.25.59a10.36,10.36,0,0,0-2.08.24,4.6,4.6,0,0,0-2.87,1.49,6.54,6.54,0,0,0-.76,1.24,2.12,2.12,0,0,0,.41,2.84,4.12,4.12,0,0,0,1.8.89,2.9,2.9,0,0,0,1.65,0,10.83,10.83,0,0,1,2.63-.56,1,1,0,0,0,.32-.12c0,.1,0,.2,0,.3s.08.05.13.07l.23.12c-.06.08-.1.19-.18.24-.28.17-.58.31-.85.49s-.58.43-.85.65a19.21,19.21,0,0,0-1.62,1.34,5.67,5.67,0,0,0-1.19,1.93A6.49,6.49,0,0,0,43.87,28c0,.14,0,.24.19.22a4.76,4.76,0,0,0,.66-.06c.61-.18,1.21-.38,1.82-.57a5.51,5.51,0,0,0,2.06-.81M67.22,43.61a6.66,6.66,0,0,0-.66-.53,5.28,5.28,0,0,0-4.92-.5c-.07,0-.17,0-.24,0a12.28,12.28,0,0,0-2,.68c-.47.27-.95.52-1.4.82a10.17,10.17,0,0,0-2.19,1.78c-.08.1-.18.29-.14.36a.52.52,0,0,0,.38.21,4,4,0,0,0,.77-.09,7.17,7.17,0,0,0,1.74-.6,4.47,4.47,0,0,1,2.07-.42c.66,0,1.31.08,2,.13,0,0,.08.07.12.1-.21.2,0,.28.11.39s.09.27-.13.25a6.41,6.41,0,0,0-1.95.25,8.3,8.3,0,0,0-2,.69c-.45.23-.85.56-1.3.78a8,8,0,0,0-2,1.25c-1,1-2,2-3,3a4.71,4.71,0,0,0-.44.56,1.21,1.21,0,0,0,0,1.52,1.92,1.92,0,0,0,1.9.81,7.26,7.26,0,0,0,1.45-.56c.66-.34,1.27-.75,1.9-1.13s1.12-.7,1.69-1,1.26-.46,1.86-.75A10.8,10.8,0,0,1,62.94,51a17.74,17.74,0,0,1,1.94-.26.37.37,0,0,1,.16.07l-.11.18s-.09.11-.08.11c.37.37,0,.35-.21.39a.51.51,0,0,0-.22.06,7.39,7.39,0,0,0-1.61,1.23c-.66.74-1.33,1.48-2,2.23a7.37,7.37,0,0,0-1.5,2.62c-.15.51,0,1,.39,1a1.61,1.61,0,0,0,.75-.07c.88-.27,1.18-1.18,1.82-1.72A4,4,0,0,0,63,56a4.92,4.92,0,0,1,3.17-1.93c.12,0,.33-.39.47,0a1.26,1.26,0,0,1,.11.57,3.42,3.42,0,0,1-.2.59c-.34,1.09-.68,2.17-1,3.26a.58.58,0,0,0,0,.41,3,3,0,0,0,.85,1,3.86,3.86,0,0,0,1.26.57,1.64,1.64,0,0,0,1.37-.21,2.78,2.78,0,0,0,1.09-1.6c.15-.58.31-1.15.5-1.72a.73.73,0,0,1,.39-.4c.13,0,.18.2.24.35.24.59.28,1.28.86,1.7.3.22.62.27.85,0a2.4,2.4,0,0,0,.45-2.19,2.44,2.44,0,0,0-.6-1.13.56.56,0,0,1-.13-.75,2.9,2.9,0,0,1,1.72-1.09,12.66,12.66,0,0,1,2.82-.27H78.8c.11,0,.25,0,.31,0a5.14,5.14,0,0,1,.38.42,2.49,2.49,0,0,1-.3.19,2.71,2.71,0,0,0-.51.26,8.79,8.79,0,0,0-2.3,3.34,1.6,1.6,0,0,0,0,1.27A2.19,2.19,0,0,0,79.13,60a2.82,2.82,0,0,0,1.47-1.27c.72-1.24,1.42-2.48,2.12-3.73.26-.45.5-.91.75-1.37a.4.4,0,0,1,.11-.14.94.94,0,0,1,.4-.07s.09.18.11.29a9.42,9.42,0,0,1,.13,2.19.54.54,0,0,0,0,.18A5.51,5.51,0,0,0,86,58.94a4,4,0,0,0,4.67.2,2.6,2.6,0,0,0,.69-.58,16.35,16.35,0,0,0,1.89-3.51c.09-.24.22-.25.4-.23a.32.32,0,0,1,.29.38,1.61,1.61,0,0,0,0,.38c.12.71.25,1.43.37,2.15a1.2,1.2,0,0,0,1.07,1,.74.74,0,0,0,.67-.44,13.77,13.77,0,0,0,.73-1.56c.09-.22.13-.4.38-.36s.27.26.26.47a1.61,1.61,0,0,0,0,.31,6.17,6.17,0,0,0,.12.75,1.4,1.4,0,0,0,1.14,1.07,1.06,1.06,0,0,0,1.22-.59s0-.11,0-.11.25-.15.46-.06.13.23.13.34a1.32,1.32,0,0,1-.13.38,2.15,2.15,0,0,0,0,1.87,3,3,0,0,0,.8,1,2.86,2.86,0,0,0,2.33,1,.46.46,0,0,1,.27.07l.88-.12a.55.55,0,0,0,.17,0A4.41,4.41,0,0,0,107,61.49a5.33,5.33,0,0,0,1.2-2.31.69.69,0,0,0-.23-.76c-.31-.3-.62-.6-.91-.91s-.19-.52.15-.7a1.52,1.52,0,0,1,1.22,0c.45.14.49.52.48.91,0,.59.15.77.74.74a2.69,2.69,0,0,0,1.9-.82,1.73,1.73,0,0,0,.33-1.59c-.07-.42-.46-.61-.92-.58a.8.8,0,0,1-.38-.12,8,8,0,0,1-.81-.45.4.4,0,0,1-.1-.32.45.45,0,0,1,.32-.21,2.79,2.79,0,0,1,.91.19,4.11,4.11,0,0,0,2.26.42c.22,0,.2,0,.25-.31,0-.11.15-.3.22-.29.33,0,.71-.17,1,.14,0,0,.13,0,.17,0a9.17,9.17,0,0,0,.82-.83c.13-.17,0-.42-.26-.44s-.46,0-.69,0a3.17,3.17,0,0,1-1.81-.72c-.09-.09-.21-.27-.18-.33a1,1,0,0,1,.36-.31c.06,0,.16,0,.25,0,.37,0,.75,0,1.12,0a1.64,1.64,0,0,1,1.33.55c.09.08.19.2.29.2a7,7,0,0,0,1-.1c.38-.07.75-.2,1.13-.26a3.19,3.19,0,0,0,1.85-1.1,1.3,1.3,0,0,0,.2-1.48,1.73,1.73,0,0,0-1.54-.54,5.64,5.64,0,0,0-1.61.48.51.51,0,0,1-.3,0c-.32,0-.63-.09-1-.11s-.43,0-.43-.3a.43.43,0,0,1,.4-.45c.73-.1,1.47-.17,2.2-.25.1,0,.22,0,.31,0a8.75,8.75,0,0,0,2.19-1.18c.17-.14.16-.28,0-.47a5.54,5.54,0,0,0-1-.89,1.15,1.15,0,0,0-.93-.32,5.69,5.69,0,0,1-2-.48,7,7,0,0,1-2.13-1.19,6.91,6.91,0,0,1-1.34-1.81,1,1,0,0,1-.09-.26c-.1.09-.25.16-.28.27a8.92,8.92,0,0,1-1.35,2.36,1.36,1.36,0,0,1-1.92.23,4.29,4.29,0,0,1-1.6-1.67,6.68,6.68,0,0,1-.66-1.53.91.91,0,0,0-.13-.26c-.06.06-.14.12-.2.19a7.43,7.43,0,0,1-.64.73c-.34.3-.62.25-.93-.08a3.43,3.43,0,0,1-.5-1.1,7.86,7.86,0,0,1-.42-2.19c0-.1,0-.2-.05-.3a1,1,0,0,0-.3.16,7.12,7.12,0,0,1-1.79,1.39c-.37.24-.83.34-1.18.6s-.64.15-.94.29a7.39,7.39,0,0,1-1.8.75c-.51.09-1.16.29-1.59-.32a3.12,3.12,0,0,0-.7-1s0,0,0-.06a7.63,7.63,0,0,1-.6-2.48,6.91,6.91,0,0,1,.1-2.44s-.1-.13-.17-.18a1.24,1.24,0,0,0-1.08,0,5.21,5.21,0,0,0-2.42,1.38.4.4,0,0,0-.09.57A3.18,3.18,0,0,0,93,38.58a8.31,8.31,0,0,1,.9.66.29.29,0,0,1,.07.27c0,.05-.14.1-.22.11a.54.54,0,0,1-.5-.16,3.35,3.35,0,0,0-.82-.57,6.78,6.78,0,0,0-1.78-.53A12.65,12.65,0,0,0,88.08,38a.61.61,0,0,1-.19,0,3.29,3.29,0,0,0-2,0A4.6,4.6,0,0,0,84,39.08c-.31.29-.32.43-.07.77.09.13.24.22.33.36a4.33,4.33,0,0,0,2.48,2,12.92,12.92,0,0,1,1.5.58.73.73,0,0,1,.36.43c0,.13-.34.23-.57.15a1,1,0,0,1-.21-.1,6.17,6.17,0,0,0-2.49-.61,5.1,5.1,0,0,0-1.77.22c-1,.27-1.3.71-1.06,1.69.05.22.08.47-.2.57s-.36-.15-.5-.29,0-.11,0-.17a2.23,2.23,0,0,0-1.84-1.38,7.47,7.47,0,0,0-4.18.7c-.38.18-.78.31-.85.82,0,.08-.22.19-.33.18a.38.38,0,0,1-.26-.25,4.69,4.69,0,0,1-.14-.82,5.35,5.35,0,0,0-.58-2.06,1.77,1.77,0,0,0-1.53-1,3.06,3.06,0,0,0-2.14.85,4.08,4.08,0,0,0-1.49,2.49.62.62,0,0,1-.34.37c-.08,0-.27-.15-.37-.27s-.27-.42-.46-.7m85.51,21.48a2,2,0,0,0,1.65.8,20,20,0,0,0,2.32-.12,2.77,2.77,0,0,0,.66-.2,3.94,3.94,0,0,0,2.22-2.47,7,7,0,0,0,.38-2c0-.4.17-.8.23-1.2a5.41,5.41,0,0,0,.12-1.32,5.35,5.35,0,0,0-.37-1.34,3.9,3.9,0,0,0-3.86-2.87,14.3,14.3,0,0,0-2.06.11c-.06,0-.11,0-.17,0a4.7,4.7,0,0,0-1.53.52c-.19.11-.39-.08-.54-.23s0-.15,0-.2a4.59,4.59,0,0,0,.7-2.52c0-.13.07-.26.09-.4.05-.37.12-.74.15-1.11a5,5,0,0,0-.29-1.81,2.19,2.19,0,0,0-1.38-1.64,5,5,0,0,0-1.2-.25c-.36,0-.72.12-1.07.1a3.48,3.48,0,0,0-1.63.44,18.09,18.09,0,0,0-2.57,1.46,4.76,4.76,0,0,0-1.5,1.19,2.65,2.65,0,0,1-.82.7.6.6,0,0,1-.49,0c-.23-.09-.1-.24,0-.38a1,1,0,0,0,.13-.32,25.58,25.58,0,0,0,.39-2.9A1.55,1.55,0,0,0,141,45.63a2.93,2.93,0,0,0-2.42.58c-.44.35-.88.7-1.3,1.06-.25.21-.33-.14-.52-.12,0-.12-.16-.22,0-.39a4.63,4.63,0,0,0,.54-.77,9,9,0,0,0,.68-2.21c.14-.46,0-.5-.45-.72a7.72,7.72,0,0,1-1.54-.79,9.26,9.26,0,0,1-2.38-2.49c-.13-.21-.25-.43-.4-.64s-.16-.09-.24-.14a1.8,1.8,0,0,0-.08.21c-.1.61-.3,1.14-1,1.32l-.67.18c-.53.13-1.05.29-1.58.4-.37.08-.74.12-1.11.17a1.55,1.55,0,0,1-.43,0,4.49,4.49,0,0,1-1.67-.92c-.32-.22-.31-.25-.42.11a17.51,17.51,0,0,1-.48,1.86,2.61,2.61,0,0,1-2,1.79,2.18,2.18,0,0,0-.48.19c-.51.23-1,.46-1.53.67s-.79.29-1.19.44c0,0-.26.08,0,.19.5.24.71.73,1,1.15s.24.58-.1.76-.67.66-1.19.74c-.26,0-.24.29,0,.47s.41.22.5.4.32.37.33.68a2.15,2.15,0,0,1-.63,1.88,4.73,4.73,0,0,1-1.38.91,12.2,12.2,0,0,1-2.36.6c-.29.05-.41.15-.38.42a1.07,1.07,0,0,1-.43,1,2.49,2.49,0,0,1-1,.64c-.06,0-.15.17-.14.18.19.19.35.46.58.54a4.8,4.8,0,0,0,1.89.38,4.21,4.21,0,0,0,2-.67c.88-.57,1.82-1,2.72-1.56A1.76,1.76,0,0,1,122,54c.24-.05.35,0,.29.29a1.14,1.14,0,0,1-.16.31c-.48.65-1,1.28-1.45,2a.93.93,0,0,0,.59,1.39,4.26,4.26,0,0,0,1.7-.06,6.45,6.45,0,0,0,2.79-1.68,12.61,12.61,0,0,1,1.08-.85,7.21,7.21,0,0,1,.62-.47c.1-.06.27,0,.41,0,0,.17,0,.39-.08.49a5.57,5.57,0,0,0-.57.83c-.61.89-1.39,1.64-2,2.51a11,11,0,0,1-1.17,1.19,4.49,4.49,0,0,0-1,1.34,2.25,2.25,0,0,1-.39.65,1.7,1.7,0,0,0-.33,1.22.73.73,0,0,0,.41.55,4.12,4.12,0,0,0,1.76.4,6.38,6.38,0,0,0,.63-.12,10.86,10.86,0,0,0,1.94-.59,15.5,15.5,0,0,0,2.68-1.94c.5-.38,1-.8,1.45-1.18.1-.08.36-.15.4-.1a.63.63,0,0,1,.16.47,13,13,0,0,1-.59,1.5,7,7,0,0,0-.65,3.41,1.23,1.23,0,0,0,1,1,2.85,2.85,0,0,0,1.33,0,8.21,8.21,0,0,0,1.51-.55,4,4,0,0,0,1.56-1.64,3.86,3.86,0,0,1,.52-.77.31.31,0,0,1,.55,0,.81.81,0,0,1,.15.31,12.63,12.63,0,0,0,1.14,2.77,3,3,0,0,0,2,1.67,4.65,4.65,0,0,0,2.51,0,2.56,2.56,0,0,0,1.62-1.22,6,6,0,0,0,.58-1.64,2,2,0,0,0-.05-1.15,8,8,0,0,0-.88-1.69,1.07,1.07,0,0,0-.62-.47,5.29,5.29,0,0,1-.76-.27.22.22,0,0,1-.1-.21c0-.1.11-.24.18-.25.24,0,.49,0,.73,0a3.05,3.05,0,0,0,.8,0,3.77,3.77,0,0,0,1.8-1c.47-.46.5-.47.91,0a4.43,4.43,0,0,0,2.33,1.29.92.92,0,0,0,1.09-.36,2.09,2.09,0,0,1,.36-.47.45.45,0,0,1,.36-.14c.09,0,.18.2.21.32.06.28.2.65.08.85-.22.37.11.61.08.92a2.1,2.1,0,0,0,.29,1.11,8,8,0,0,0,.93,1.2m-119.89-23c.66-.08,1.12-.6,1.71-.84a3.22,3.22,0,0,0,.64-.39,4,4,0,0,0,1.14-1.51c.22-.43.4-.49.85-.26a3.3,3.3,0,0,1,.39.26c.1.08.17.23.27.24a3.81,3.81,0,0,0,1.45.1c.49-.13,1,.07,1.47-.21a11.86,11.86,0,0,0,2.64-.39,3.53,3.53,0,0,0,2.31-1.57,17.11,17.11,0,0,0,1-2,.33.33,0,0,0,0-.47,2.77,2.77,0,0,1-.66-1.35,7,7,0,0,1,.1-2.81A6.63,6.63,0,0,1,47.83,28l.11-.18a.91.91,0,0,0-.23,0l-1.24.32a4.75,4.75,0,0,0-1,.31,3.12,3.12,0,0,1-1.72.37c-.5,0-.67-.16-.64-.66a3.81,3.81,0,0,0-.23-1.42,1.19,1.19,0,0,0-.48-.66c-.38-.27-.8-.48-1.2-.72a1.4,1.4,0,0,0-1-.27,8,8,0,0,0-1.83.54,9.09,9.09,0,0,0-2.34,2c-.11.11-.15.29-.27.38a.32.32,0,0,1-.5-.05l-1.1-1.53a1.3,1.3,0,0,0-.31-.31,20.29,20.29,0,0,1-2-1.55,2.37,2.37,0,0,0-1.62-.59c-.62,0-1.25.1-1.88.12a8.07,8.07,0,0,0-2.39.38,3.27,3.27,0,0,0-1.44.75,4.11,4.11,0,0,0-1,2.18,2.39,2.39,0,0,0,.49,2.09c.18.22.4.41.59.62s.21.4-.12.59-.43,0-.58-.17a1.86,1.86,0,0,0-1-.69,5.4,5.4,0,0,1-.9-.23,2.8,2.8,0,0,0-1.73-.13,10.09,10.09,0,0,0-3,.95,1.49,1.49,0,0,1-.57.14,6.45,6.45,0,0,0-2.21.8,21.84,21.84,0,0,0-4,3.2A24.6,24.6,0,0,0,8,37.21a4.62,4.62,0,0,0-.86,2.32,7.48,7.48,0,0,0,.39,2.39.75.75,0,0,0,1.22.39,3.07,3.07,0,0,0,.56-.45c.41-.48.79-1,1.2-1.49a8.84,8.84,0,0,1,.84-.89.73.73,0,0,1,.45-.09.79.79,0,0,1,.07.32l-.12,2.13a.35.35,0,0,1,0,.11,4.51,4.51,0,0,0,.52,3.83c.15.19.27.26.48,0a6.33,6.33,0,0,0,1-1.45,6.56,6.56,0,0,1,1.09-1.79c.33-.32.66-.33.85.06a18.09,18.09,0,0,1,.82,1.65,4.06,4.06,0,0,0,2.25,2.64,5.65,5.65,0,0,0,2.44.43,1.23,1.23,0,0,0,1.14-.64,7.84,7.84,0,0,1,.41-.82,3,3,0,0,0,.47-1.55,3.34,3.34,0,0,0-.45-1.75.32.32,0,0,1,.07-.43c.14-.13.28-.29.47-.14.39.31.85.15,1.28.21A1.47,1.47,0,0,0,26,41.57a3.26,3.26,0,0,0,.28-.63A3.89,3.89,0,0,0,26.8,39c0-.11.09-.22.11-.33,0-.37.31-.19.47-.18s.27.18.28.29a3.64,3.64,0,0,0,1,2,4.65,4.65,0,0,0,1.41,1,3.43,3.43,0,0,0,2.76.3m75.48,15.2-.42-.08a1.25,1.25,0,0,0,.15.41,1.46,1.46,0,0,0,.41.27,2.31,2.31,0,0,0-.14-.6m6.79-4.8-.78-.18s-.07.08-.09.12,0,.1,0,.1a1.67,1.67,0,0,0,.83,0m25.35,30.08c-.07,0-.14-.25-.17,0s.12.26.2.38a.61.61,0,0,0,.15,0,2.42,2.42,0,0,0-.18-.32M73.38,31.84h-.25V32a.22.22,0,0,0,.25-.11m-17.25.56-.05.07s.08,0,.05-.07m-8.9,3.05.07,0s0-.08-.07,0m113.56,19.9a1,1,0,0,1,0-.28"/></g></g></svg>