<svg xmlns="http://www.w3.org/2000/svg" xmlns:xlink="http://www.w3.org/1999/xlink" viewBox="0 0 111.65 88.34"><defs><style>.cls-1{fill:#fff;}.cls-2{fill:url(#radial-gradient);}</style><radialGradient id="radial-gradient" cx="55.83" cy="44.17" r="50.34" gradientUnits="userSpaceOnUse"><stop offset="0" stop-color="#006837"/><stop offset="0.05" stop-color="#056f39"/><stop offset="0.3" stop-color="#1c8d40"/><stop offset="0.55" stop-color="#2ca346"/><stop offset="0.78" stop-color="#36b049"/><stop offset="1" stop-color="#39b54a"/></radialGradient></defs><title>large-leaves-bush-1</title><g id="Layer_2" data-name="Layer 2"><g id="large-leaves-bush-1"><path id="void" class="cls-1" d="M88.75,65l.45.05c.14,0,.32.23.4.2a1.07,1.07,0,0,1,1,.08,20.14,20.14,0,0,0,3.31,1q.83.21,1.68.36c.69.13,1.38.29,2.07.42l1.39.21c.16,0,.34.15.45.1a2.84,2.84,0,0,1,1-.1,1.61,1.61,0,0,0,.38,0,2.61,2.61,0,0,1,1.3-.11c.16,0,.35-.11.49-.06a3.76,3.76,0,0,0,1.52.17,4.14,4.14,0,0,1,1.67.36,3.6,3.6,0,0,1,.89.51c.3.21.7.26,1,.47a5.8,5.8,0,0,1,2,1.46c0,.08.17.11.25.18a.91.91,0,0,1,.41.75c0,.45,0,.45.46.46.13,0,.26,0,.38,0s.37-.09.37-.34a1.54,1.54,0,0,0-.43-1c-.32-.31-.3-.42.09-.62a.32.32,0,0,0,.11-.24c0-.77,0-1.54-.07-2.32a7.17,7.17,0,0,0-.44-2.3,3,3,0,0,1-.09-.52,2.77,2.77,0,0,0-.24-.77,2.2,2.2,0,0,1-.22-.75c-.1-.5-.13-1-.25-1.52,0-.15,0-.15-.27-.27,0,0-.06-.16,0-.17a.43.43,0,0,0,.19-.47,4.94,4.94,0,0,0-.15-.55,3.62,3.62,0,0,1-.17-.53c0-.25-.26-.14-.32-.25s-.16-.23-.32-.23-.08-.11-.12-.17a1.09,1.09,0,0,1,.18,0l.35.14c0-.13-.06-.26-.11-.38a4,4,0,0,0-.23-.51,2.92,2.92,0,0,1-.3-.65,2.58,2.58,0,0,0-.34-.9,2.4,2.4,0,0,1-.32-.64c-.09-.31-.21-.61-.32-.91a12.59,12.59,0,0,0-1.55-2.72,6.28,6.28,0,0,1-.45-.69c-.33-.58-.65-1.15-.93-1.76-.06-.16-.21-.4-.5-.25a.8.8,0,0,1-.22,0,.18.18,0,0,1-.09,0l.09-.07c.1-.06.21-.1.32-.16-.07-.11-.14-.23-.22-.34a3.28,3.28,0,0,0-.27-.38c-.33-.38-.66-.75-1-1.11a15.58,15.58,0,0,0-1.29-1.28c-.49-.44-1-.84-1.56-1.25-.13-.1-.21-.26-.41-.21s-.19,0-.19-.18,0-.22,0-.25c-.58-.27-.82-.95-1.46-1.14-.1,0-.17-.17-.25-.28s-.1-.18-.19-.23a22.74,22.74,0,0,0-2.46-1.5c-.15-.08-.28-.2-.43-.27-.5-.2-1-.37-1.52-.59a1.44,1.44,0,0,0-.64-.19s-.1-.1-.15-.15a.67.67,0,0,1,.15-.06c.64-.07,1.29-.13,1.93-.22s1.23-.25,1.84-.34a4,4,0,0,1,2-.21,1.2,1.2,0,0,0,.37,0,2.28,2.28,0,0,1,.63-.06,4,4,0,0,0,1.35.27c.32,0,.66.17,1,.17a.59.59,0,0,1,.45.21.53.53,0,0,0,.63.34s.07.09.11.13-.08.08-.13.08a.89.89,0,0,1-.2-.06,1,1,0,0,0,.12.23,2.69,2.69,0,0,0,.2.27l.75.8c.1.1.19.25.31.29a.7.7,0,0,0,.67-.23.22.22,0,0,0,0-.14s-.1-.07-.13,0-.31.14-.47.21a3,3,0,0,0,0-.52s-.1-.08-.15-.11a.82.82,0,0,1,.21,0c.1,0,.18.1.28.13a2,2,0,0,0,.35.09l.1,0a1.25,1.25,0,0,0-.08-.12,6.7,6.7,0,0,1-.85-1.06c-.16-.2-.37-.35-.52-.55s-.64-.3-.86-.66c-.56-.94-1.18-1.83-1.78-2.73-.09-.13-.24-.25-.27-.39A3.09,3.09,0,0,0,99.86,34c-.4-.63-.77-1.27-1.17-1.89-.24-.38-.47-.79-.7-1.19s-.51-.7-.75-1.07a17.91,17.91,0,0,0-2.35-3.13c-.4-.39-.82-.75-1.23-1.13s-1.07-1-1.63-1.51c-.34-.31-.74-.54-1.06-.87s-.71-.4-1-.67a9.28,9.28,0,0,0-1.57-.88,11.83,11.83,0,0,0-1.84-.85c-.54-.24-1.08-.49-1.63-.71-.74-.3-1.48-.58-2.24-.84a7.32,7.32,0,0,0-1.56-.46c-.74-.1-1.46-.32-2.22-.39l-2-.16a2.13,2.13,0,0,0-1.27.08,3.45,3.45,0,0,0-1.91.06c-.14,0-.29,0-.42,0a5.92,5.92,0,0,1-1.19.2,4,4,0,0,0-1,.16l-.1,0c0,.2-.13.34-.21.34s-.13-.08-.17-.19A2.5,2.5,0,0,1,71,18.8a5.45,5.45,0,0,0,.2-1.41,7.2,7.2,0,0,0-.09-1.6C71,15.36,71,14.9,71,14.46a6.58,6.58,0,0,0-.28-.93l-.07-.07c-.18-.12-.21-.14-.14-.23s0-.27-.17-.35a1.23,1.23,0,0,1,0,.19H70.2a.52.52,0,0,1,.07-.21,1,1,0,0,0-.1-.47c-.21-.35-.46-.69-.69-1s-.2-.47-.52-.46a.14.14,0,0,1-.09-.09c.08-.51-.34-.79-.56-1.14-.38-.63-1-1.11-1.4-1.74a16.45,16.45,0,0,1-2.22-3.69,7.76,7.76,0,0,1-.44-2,2.59,2.59,0,0,0-.1-1,.64.64,0,0,1,0-.49c.19-.28,0-.45-.14-.59a.55.55,0,0,0-.76,0c-.1.09-.17.21-.28.27-.65.37-1.32.72-2,1.1-.85.48-1.72,1-2.57,1.47S57,3.87,56.33,4.3c-.35.22-.71.43-1,.67s-.72.56-1.08.85l-.7.57c-.49.39-1,.75-1.49,1.19a21,21,0,0,0-2,2.13,19.51,19.51,0,0,0-1.85,2.93c-.4.76-.67,1.59-1,2.39a8,8,0,0,0-.32.86c-.1.3-.15.63-.23.95,0,0,0,.06-.07.09a.21.21,0,0,1,0-.1A2,2,0,0,0,46,15.52a4.6,4.6,0,0,0-1.76-1.42c-1.09-.55-2.22-1-3.34-1.51a10.8,10.8,0,0,0-1.23-.48c-1-.29-2-.58-3.06-.83-.62-.16-1.25-.27-1.88-.38a2,2,0,0,0-.84,0c-.32.08-.56-.08-.83-.07a21.72,21.72,0,0,1-2.55-.2A19.15,19.15,0,0,1,28,9.88c-.39-.09-.73-.34-1.13-.47a.75.75,0,0,0-.59.06.36.36,0,0,0-.07.51,1.22,1.22,0,0,1,.36.68A4.4,4.4,0,0,0,27.19,12c.5.68.49,1.59,1,2.28,0,.05,0,.14,0,.21s-.06.43,0,.51c.32.29.17.64.21,1a3.82,3.82,0,0,0,.09,1.11,2.63,2.63,0,0,1,.12.89,4,4,0,0,0,.21,1c.22.81.4,1.63.56,2.46a6.15,6.15,0,0,0,.85,2c.06.11.13.21.2.32-.11-.08-.23-.15-.34-.24a1.45,1.45,0,0,1-.35-.35,2.3,2.3,0,0,0-1-.88,23.8,23.8,0,0,0-2.12-1.12,7,7,0,0,0-3.34-.83,9,9,0,0,1-1.16,0,6.54,6.54,0,0,0-1.45.23c-.53.1-1.07.24-1.62.32s-.92.07-1.38.12a1.06,1.06,0,0,0-.34.12c-.06,0-.13.1-.17.09a1.55,1.55,0,0,0-1,.12,3.58,3.58,0,0,0-.93.28,2.19,2.19,0,0,1-.85.25c-.71.12-1.36.45-2.07.6s-1.54.79-2.44.86c0,0,0,0,0,0-.23.34-.7.27-1,.54a.22.22,0,0,1-.14.06,5.88,5.88,0,0,0-1.88.79,5.22,5.22,0,0,0-1.56.75,12.11,12.11,0,0,0-2,.66A12.35,12.35,0,0,1,2,26.51a11.42,11.42,0,0,1-1.55.11.45.45,0,0,0-.45.31c0,.19-.11.47.22.58.07,0,.13.1.2.16.54.39,1.07.78,1.61,1.15.73.49,1.48,1,2.2,1.46.53.37,1,.79,1.54,1.2.33.27.65.57,1,.85a6.44,6.44,0,0,0,1,.88,8.16,8.16,0,0,1,1,.85A10.59,10.59,0,0,1,10,35.34c.06.06.16.06.24.09a1.28,1.28,0,0,1,.24-.11s0,0,.08,0a.39.39,0,0,1-.11.06l-.18,0a.31.31,0,0,0,.05.21,18.16,18.16,0,0,0,3,2.67,2.57,2.57,0,0,0,1.22.51c.5,0,1,.14,1.5.22a.18.18,0,0,1,.13.06.27.27,0,0,1-.05.15l-1.19,1a6.39,6.39,0,0,0-.68.59A16.56,16.56,0,0,1,13,42.23a26.23,26.23,0,0,0-1.79,2.4c-.28.32-.43.74-.69,1.08s-.37.72-.62,1.06a14.67,14.67,0,0,0-1.42,2.65c-.13.29-.26.6-.36.9s0,.83-.42,1.09c0,0,0,.07,0,.1-.09.25-.2.5-.29.76a7.66,7.66,0,0,0-.25.94,2,2,0,0,1-.19.68,5.9,5.9,0,0,0-.47,1.51c-.11.38-.18.77-.3,1.14A6.93,6.93,0,0,1,6,57.77a7.16,7.16,0,0,0-.37,1.83c-.06.36-.08.73-.14,1.09s-.2,1-.3,1.47c-.07.31-.12.62-.22.92-.23.73-.49,1.45-.74,2.17s-.53,1.53-.8,2.3a8.81,8.81,0,0,1-1.56,2.93.63.63,0,0,0-.12.23.38.38,0,0,0,.31.57,1,1,0,0,0,.6-.16c.1-.05.2-.17.31-.16a1,1,0,0,0,.52-.21,13,13,0,0,1,1.19-.57,2.88,2.88,0,0,1,.63-.32,2.66,2.66,0,0,0,1.34-.53.24.24,0,0,1,.19,0,1.52,1.52,0,0,0,.66-.15,16.33,16.33,0,0,1,1.82-.5c.53-.12,1.08-.13,1.61-.24a15.5,15.5,0,0,1,2.45-.32,1.2,1.2,0,0,0,.33,0,4.39,4.39,0,0,1,1.39-.22c.9,0,1.81-.06,2.7-.11a5.83,5.83,0,0,0,1-.17c.62-.15,1.22-.32,1.84-.48s1-.28,1.51-.45.95-.44,1.46-.61a7.77,7.77,0,0,0,1.59-.93c.23-.15.37-.4.68-.45s.27-.3.44-.4A4.07,4.07,0,0,1,27,64c.13-.06.64-.21,1-.34,0-.16-.07-.32-.11-.48a1.94,1.94,0,0,1,0-.48c.2.11.33.52.47.71s-.12.14-.37.25c.09.41.19.82.28,1.23s.09.54.16.81a16,16,0,0,0,.83,2.41A13.69,13.69,0,0,1,30,69.69a1.33,1.33,0,0,0,.28.6,8.2,8.2,0,0,1,1.07,1.48c.56.85,1.19,1.66,1.72,2.53.39.65.82,1.28,1.16,2a21.38,21.38,0,0,1,1.57,3.64c.27.93.72,1.78,1,2.73a10.47,10.47,0,0,1,.68,4.07,1.73,1.73,0,0,1-.09.74,1.16,1.16,0,0,0,0,.64.31.31,0,0,0,.51.19c.18-.18.45-.29.47-.63,0-.18.21-.35.27-.54.12-.39.45-.67.57-1a9.66,9.66,0,0,1,1-2,11.74,11.74,0,0,1,1.59-1.93c.33-.34.64-.71,1-1.07.15-.18.27-.38.43-.54A43.82,43.82,0,0,1,47,76.91c.44-.34.85-.75,1.31-1.08a2.49,2.49,0,0,0,1-1.17,1.41,1.41,0,0,1,.17-.32,6.49,6.49,0,0,0,.58-2.12s.1-.19.2-.37l-.15-.14.37-.38s-.1.29-.22.52l.29.28a6.85,6.85,0,0,0,1.73,1.12,21.76,21.76,0,0,1,2.53,1.33c.85.53,1.66,1.11,2.49,1.68a1.3,1.3,0,0,1,.31.31c.2.26.38.54.59.79a7.83,7.83,0,0,1,1.33,2.48,10.49,10.49,0,0,0,1.1,2.29c.11.16.23.31.32.47.34.58.69,1.14,1,1.74a.38.38,0,0,0,.41.24.34.34,0,0,0,.38-.27,14.11,14.11,0,0,0,.63-1.71A20.08,20.08,0,0,0,64,79.85a.14.14,0,0,1,0-.09c.4-.49.39-1.18.85-1.64a10.32,10.32,0,0,1,1.49-2.57l.71-1A16.62,16.62,0,0,0,69,71c.1-.25.28-.55,0-.84,0,0,0-.13,0-.2s0,.14.09.15a.37.37,0,0,0,.2,0,8.75,8.75,0,0,1,.55-2,1.73,1.73,0,0,0,.08-.83,1.73,1.73,0,0,1-.09-1.3c0-.14.3-.66.45-1a.56.56,0,0,1-.16-.07,3.37,3.37,0,0,1,.28-.3,1.46,1.46,0,0,1-.12.37c.5.2,1,.28,1.52.51a6,6,0,0,0,1.47.41,16.59,16.59,0,0,0,1.83.52,5,5,0,0,1,.74.19,2.48,2.48,0,0,1,.81.17,3.8,3.8,0,0,0,1.56.49c.44.08.88.17,1.31.27s1.08.23,1.61.35,1,.3,1.49.42a3.08,3.08,0,0,1,1.11.36A4.4,4.4,0,0,0,84.9,69a8.06,8.06,0,0,1,1.19.44,3.77,3.77,0,0,1,1.2.71,6.87,6.87,0,0,0,1.14.94.52.52,0,0,0,.49.09.74.74,0,0,0,.51-.87c-.08-.59-.13-1.19-.23-1.77a1,1,0,0,1,0-.74s0-.13,0-.16a2.83,2.83,0,0,1-.27-1.1c-.07-.52-.14-1.05-.19-1.58m22.34,1.2s-.06,0-.06,0ZM109,58c-.06,0-.06,0-.07,0ZM27.4,11.72c.07,0,.07,0,.07,0Zm.82,1.17.07,0C28.23,13,28.23,12.92,28.22,12.89ZM29,16.07C29,16,29,16,29,16A.25.25,0,0,1,29,16.07ZM7.77,53l.06,0C7.77,53.1,7.77,53.06,7.77,53ZM12.9,67.38l0-.07C13,67.38,12.94,67.38,12.9,67.38Zm15.55-5.12c0-.06,0-.07.05-.07ZM65.93,7s0-.1,0-.15S66,6.94,66,7Zm1.66,2.12.06,0C67.6,9.22,67.59,9.18,67.59,9.15Zm18,59.65c.06,0,.07,0,.07,0Zm17.48-20.9c.07,0,.07,0,.07.05Zm.57.46a.43.43,0,0,1,0-.07C103.7,48.35,103.66,48.35,103.63,48.36Zm1.46,2.58.07,0C105.1,51,105.1,51,105.09,50.94Zm.34.21c0-.06,0-.07,0-.07Zm.82,1.27c.06,0,.07,0,.07,0ZM108,55.55c0-.06,0-.07.05-.07A.18.18,0,0,0,108,55.55Zm1.6,6.1s.06,0,.06.05ZM110,63h.22C110.14,63,110.07,63,110,63Zm.22.44c0-.09.07-.07.11,0Zm.59,2.37.07,0C110.82,65.85,110.82,65.82,110.81,65.78Z"/><path id="fill2" class="cls-2" d="M88.75,65l.45.05c.14,0,.32.23.4.2a1.07,1.07,0,0,1,1,.08,20.14,20.14,0,0,0,3.31,1q.83.21,1.68.36c.69.13,1.38.29,2.07.42l1.39.21c.16,0,.34.15.45.1a2.84,2.84,0,0,1,1-.1,1.61,1.61,0,0,0,.38,0,2.61,2.61,0,0,1,1.3-.11c.16,0,.35-.11.49-.06a3.76,3.76,0,0,0,1.52.17,4.14,4.14,0,0,1,1.67.36,3.6,3.6,0,0,1,.89.51c.3.21.7.26,1,.47a5.8,5.8,0,0,1,2,1.46c0,.08.17.11.25.18a.91.91,0,0,1,.41.75c0,.45,0,.45.46.46.13,0,.26,0,.38,0s.37-.09.37-.34a1.54,1.54,0,0,0-.43-1c-.32-.31-.3-.42.09-.62a.32.32,0,0,0,.11-.24c0-.77,0-1.54-.07-2.32a7.17,7.17,0,0,0-.44-2.3,3,3,0,0,1-.09-.52,2.77,2.77,0,0,0-.24-.77,2.2,2.2,0,0,1-.22-.75c-.1-.5-.13-1-.25-1.52,0-.15,0-.15-.27-.27,0,0-.06-.16,0-.17a.43.43,0,0,0,.19-.47,4.94,4.94,0,0,0-.15-.55,3.62,3.62,0,0,1-.17-.53c0-.25-.26-.14-.32-.25s-.16-.23-.32-.23-.08-.11-.12-.17a1.09,1.09,0,0,1,.18,0l.35.14c0-.13-.06-.26-.11-.38a4,4,0,0,0-.23-.51,2.92,2.92,0,0,1-.3-.65,2.58,2.58,0,0,0-.34-.9,2.4,2.4,0,0,1-.32-.64c-.09-.31-.21-.61-.32-.91a12.59,12.59,0,0,0-1.55-2.72,6.28,6.28,0,0,1-.45-.69c-.33-.58-.65-1.15-.93-1.76-.06-.16-.21-.4-.5-.25a.8.8,0,0,1-.22,0,.18.18,0,0,1-.09,0l.09-.07c.1-.06.21-.1.32-.16-.07-.11-.14-.23-.22-.34a3.28,3.28,0,0,0-.27-.38c-.33-.38-.66-.75-1-1.11a15.58,15.58,0,0,0-1.29-1.28c-.49-.44-1-.84-1.56-1.25-.13-.1-.21-.26-.41-.21s-.19,0-.19-.18,0-.22,0-.25c-.58-.27-.82-.95-1.46-1.14-.1,0-.17-.17-.25-.28s-.1-.18-.19-.23a22.74,22.74,0,0,0-2.46-1.5c-.15-.08-.28-.2-.43-.27-.5-.2-1-.37-1.52-.59a1.44,1.44,0,0,0-.64-.19s-.1-.1-.15-.15a.67.67,0,0,1,.15-.06c.64-.07,1.29-.13,1.93-.22s1.23-.25,1.84-.34a4,4,0,0,1,2-.21,1.2,1.2,0,0,0,.37,0,2.28,2.28,0,0,1,.63-.06,4,4,0,0,0,1.35.27c.32,0,.66.17,1,.17a.59.59,0,0,1,.45.21.53.53,0,0,0,.63.34s.07.09.11.13-.08.08-.13.08a.89.89,0,0,1-.2-.06,1,1,0,0,0,.12.23,2.69,2.69,0,0,0,.2.27l.75.8c.1.1.19.25.31.29a.7.7,0,0,0,.67-.23.22.22,0,0,0,0-.14s-.1-.07-.13,0-.31.14-.47.21a3,3,0,0,0,0-.52s-.1-.08-.15-.11a.82.82,0,0,1,.21,0c.1,0,.18.1.28.13a2,2,0,0,0,.35.09l.1,0a1.25,1.25,0,0,0-.08-.12,6.7,6.7,0,0,1-.85-1.06c-.16-.2-.37-.35-.52-.55s-.64-.3-.86-.66c-.56-.94-1.18-1.83-1.78-2.73-.09-.13-.24-.25-.27-.39A3.09,3.09,0,0,0,99.86,34c-.4-.63-.77-1.27-1.17-1.89-.24-.38-.47-.79-.7-1.19s-.51-.7-.75-1.07a17.91,17.91,0,0,0-2.35-3.13c-.4-.39-.82-.75-1.23-1.13s-1.07-1-1.63-1.51c-.34-.31-.74-.54-1.06-.87s-.71-.4-1-.67a9.28,9.28,0,0,0-1.57-.88,11.83,11.83,0,0,0-1.84-.85c-.54-.24-1.08-.49-1.63-.71-.74-.3-1.48-.58-2.24-.84a7.32,7.32,0,0,0-1.56-.46c-.74-.1-1.46-.32-2.22-.39l-2-.16a2.13,2.13,0,0,0-1.27.08,3.45,3.45,0,0,0-1.91.06c-.14,0-.29,0-.42,0a5.92,5.92,0,0,1-1.19.2,4,4,0,0,0-1,.16l-.1,0c0,.2-.13.34-.21.34s-.13-.08-.17-.19A2.5,2.5,0,0,1,71,18.8a5.45,5.45,0,0,0,.2-1.41,7.2,7.2,0,0,0-.09-1.6C71,15.36,71,14.9,71,14.46a6.58,6.58,0,0,0-.28-.93l-.07-.07c-.18-.12-.21-.14-.14-.23s0-.27-.17-.35a1.23,1.23,0,0,1,0,.19H70.2a.52.52,0,0,1,.07-.21,1,1,0,0,0-.1-.47c-.21-.35-.46-.69-.69-1s-.2-.47-.52-.46a.14.14,0,0,1-.09-.09c.08-.51-.34-.79-.56-1.14-.38-.63-1-1.11-1.4-1.74a16.45,16.45,0,0,1-2.22-3.69,7.76,7.76,0,0,1-.44-2,2.59,2.59,0,0,0-.1-1,.64.64,0,0,1,0-.49c.19-.28,0-.45-.14-.59a.55.55,0,0,0-.76,0c-.1.09-.17.21-.28.27-.65.37-1.32.72-2,1.1-.85.48-1.72,1-2.57,1.47S57,3.87,56.33,4.3c-.35.22-.71.43-1,.67s-.72.56-1.08.85l-.7.57c-.49.39-1,.75-1.49,1.19a21,21,0,0,0-2,2.13,19.51,19.51,0,0,0-1.85,2.93c-.4.76-.67,1.59-1,2.39a8,8,0,0,0-.32.86c-.1.3-.15.63-.23.95,0,0,0,.06-.07.09a.21.21,0,0,1,0-.1A2,2,0,0,0,46,15.52a4.6,4.6,0,0,0-1.76-1.42c-1.09-.55-2.22-1-3.34-1.51a10.8,10.8,0,0,0-1.23-.48c-1-.29-2-.58-3.06-.83-.62-.16-1.25-.27-1.88-.38a2,2,0,0,0-.84,0c-.32.08-.56-.08-.83-.07a21.72,21.72,0,0,1-2.55-.2A19.15,19.15,0,0,1,28,9.88c-.39-.09-.73-.34-1.13-.47a.75.75,0,0,0-.59.06.36.36,0,0,0-.07.51,1.22,1.22,0,0,1,.36.68A4.4,4.4,0,0,0,27.19,12c.5.68.49,1.59,1,2.28,0,.05,0,.14,0,.21s-.06.43,0,.51c.32.29.17.64.21,1a3.82,3.82,0,0,0,.09,1.11,2.63,2.63,0,0,1,.12.89,4,4,0,0,0,.21,1c.22.81.4,1.63.56,2.46a6.15,6.15,0,0,0,.85,2c.06.11.13.21.2.32-.11-.08-.23-.15-.34-.24a1.45,1.45,0,0,1-.35-.35,2.3,2.3,0,0,0-1-.88,23.8,23.8,0,0,0-2.12-1.12,7,7,0,0,0-3.34-.83,9,9,0,0,1-1.16,0,6.54,6.54,0,0,0-1.45.23c-.53.1-1.07.24-1.62.32s-.92.07-1.38.12a1.06,1.06,0,0,0-.34.12c-.06,0-.13.1-.17.09a1.55,1.55,0,0,0-1,.12,3.58,3.58,0,0,0-.93.28,2.19,2.19,0,0,1-.85.25c-.71.12-1.36.45-2.07.6s-1.54.79-2.44.86c0,0,0,0,0,0-.23.34-.7.27-1,.54a.22.22,0,0,1-.14.06,5.88,5.88,0,0,0-1.88.79,5.22,5.22,0,0,0-1.56.75,12.11,12.11,0,0,0-2,.66A12.35,12.35,0,0,1,2,26.51a11.42,11.42,0,0,1-1.55.11.45.45,0,0,0-.45.31c0,.19-.11.47.22.58.07,0,.13.1.2.16.54.39,1.07.78,1.61,1.15.73.49,1.48,1,2.2,1.46.53.37,1,.79,1.54,1.2.33.27.65.57,1,.85a6.44,6.44,0,0,0,1,.88,8.16,8.16,0,0,1,1,.85A10.59,10.59,0,0,1,10,35.34c.06.06.16.06.24.09a1.28,1.28,0,0,1,.24-.11s0,0,.08,0a.39.39,0,0,1-.11.06l-.18,0a.31.31,0,0,0,.05.21,18.16,18.16,0,0,0,3,2.67,2.57,2.57,0,0,0,1.22.51c.5,0,1,.14,1.5.22a.18.18,0,0,1,.13.06.27.27,0,0,1-.05.15l-1.19,1a6.39,6.39,0,0,0-.68.59A16.56,16.56,0,0,1,13,42.23a26.23,26.23,0,0,0-1.79,2.4c-.28.32-.43.74-.69,1.08s-.37.72-.62,1.06a14.67,14.67,0,0,0-1.42,2.65c-.13.29-.26.6-.36.9s0,.83-.42,1.09c0,0,0,.07,0,.1-.09.25-.2.5-.29.76a7.66,7.66,0,0,0-.25.94,2,2,0,0,1-.19.68,5.9,5.9,0,0,0-.47,1.51c-.11.38-.18.77-.3,1.14A6.93,6.93,0,0,1,6,57.77a7.16,7.16,0,0,0-.37,1.83c-.06.36-.08.73-.14,1.09s-.2,1-.3,1.47c-.07.31-.12.62-.22.92-.23.73-.49,1.45-.74,2.17s-.53,1.53-.8,2.3a8.81,8.81,0,0,1-1.56,2.93.63.63,0,0,0-.12.23.38.38,0,0,0,.31.57,1,1,0,0,0,.6-.16c.1-.05.2-.17.31-.16a1,1,0,0,0,.52-.21,13,13,0,0,1,1.19-.57,2.88,2.88,0,0,1,.63-.32,2.66,2.66,0,0,0,1.34-.53.24.24,0,0,1,.19,0,1.52,1.52,0,0,0,.66-.15,16.33,16.33,0,0,1,1.82-.5c.53-.12,1.08-.13,1.61-.24a15.5,15.5,0,0,1,2.45-.32,1.2,1.2,0,0,0,.33,0,4.39,4.39,0,0,1,1.39-.22c.9,0,1.81-.06,2.7-.11a5.83,5.83,0,0,0,1-.17c.62-.15,1.22-.32,1.84-.48s1-.28,1.51-.45.95-.44,1.46-.61a7.77,7.77,0,0,0,1.59-.93c.23-.15.37-.4.68-.45s.27-.3.44-.4A4.07,4.07,0,0,1,27,64c.13-.06.64-.21,1-.34,0-.16-.07-.32-.11-.48a1.94,1.94,0,0,1,0-.48c.2.11.33.52.47.71s-.12.14-.37.25c.09.41.19.82.28,1.23s.09.54.16.81a16,16,0,0,0,.83,2.41A13.69,13.69,0,0,1,30,69.69a1.33,1.33,0,0,0,.28.6,8.2,8.2,0,0,1,1.07,1.48c.56.85,1.19,1.66,1.72,2.53.39.65.82,1.28,1.16,2a21.38,21.38,0,0,1,1.57,3.64c.27.93.72,1.78,1,2.73a10.47,10.47,0,0,1,.68,4.07,1.73,1.73,0,0,1-.09.74,1.16,1.16,0,0,0,0,.64.31.31,0,0,0,.51.19c.18-.18.45-.29.47-.63,0-.18.21-.35.27-.54.12-.39.45-.67.57-1a9.66,9.66,0,0,1,1-2,11.74,11.74,0,0,1,1.59-1.93c.33-.34.64-.71,1-1.07.15-.18.27-.38.43-.54A43.82,43.82,0,0,1,47,76.91c.44-.34.85-.75,1.31-1.08a2.49,2.49,0,0,0,1-1.17,1.41,1.41,0,0,1,.17-.32,6.49,6.49,0,0,0,.58-2.12s.1-.19.2-.37l-.15-.14.37-.38s-.1.29-.22.52l.29.28a6.85,6.85,0,0,0,1.73,1.12,21.76,21.76,0,0,1,2.53,1.33c.85.53,1.66,1.11,2.49,1.68a1.3,1.3,0,0,1,.31.31c.2.26.38.54.59.79a7.83,7.83,0,0,1,1.33,2.48,10.49,10.49,0,0,0,1.1,2.29c.11.16.23.31.32.47.34.58.69,1.14,1,1.74a.38.38,0,0,0,.41.24.34.34,0,0,0,.38-.27,14.11,14.11,0,0,0,.63-1.71A20.08,20.08,0,0,0,64,79.85a.14.14,0,0,1,0-.09c.4-.49.39-1.18.85-1.64a10.32,10.32,0,0,1,1.49-2.57l.71-1A16.62,16.62,0,0,0,69,71c.1-.25.28-.55,0-.84,0,0,0-.13,0-.2s0,.14.09.15a.37.37,0,0,0,.2,0,8.75,8.75,0,0,1,.55-2,1.73,1.73,0,0,0,.08-.83,1.73,1.73,0,0,1-.09-1.3c0-.14.3-.66.45-1a.56.56,0,0,1-.16-.07,3.37,3.37,0,0,1,.28-.3,1.46,1.46,0,0,1-.12.37c.5.2,1,.28,1.52.51a6,6,0,0,0,1.47.41,16.59,16.59,0,0,0,1.83.52,5,5,0,0,1,.74.19,2.48,2.48,0,0,1,.81.17,3.8,3.8,0,0,0,1.56.49c.44.08.88.17,1.31.27s1.08.23,1.61.35,1,.3,1.49.42a3.08,3.08,0,0,1,1.11.36A4.4,4.4,0,0,0,84.9,69a8.06,8.06,0,0,1,1.19.44,3.77,3.77,0,0,1,1.2.71,6.87,6.87,0,0,0,1.14.94.52.52,0,0,0,.49.09.74.74,0,0,0,.51-.87c-.08-.59-.13-1.19-.23-1.77a1,1,0,0,1,0-.74s0-.13,0-.16a2.83,2.83,0,0,1-.27-1.1c-.07-.52-.14-1.05-.19-1.58m22.34,1.2s-.06,0-.06,0ZM109,58c-.06,0-.06,0-.07,0ZM27.4,11.72c.07,0,.07,0,.07,0Zm.82,1.17.07,0C28.23,13,28.23,12.92,28.22,12.89ZM29,16.07C29,16,29,16,29,16A.25.25,0,0,1,29,16.07ZM7.77,53l.06,0C7.77,53.1,7.77,53.06,7.77,53ZM12.9,67.38l0-.07C13,67.38,12.94,67.38,12.9,67.38Zm15.55-5.12c0-.06,0-.07.05-.07ZM65.93,7s0-.1,0-.15S66,6.94,66,7Zm1.66,2.12.06,0C67.6,9.22,67.59,9.18,67.59,9.15Zm18,59.65c.06,0,.07,0,.07,0Zm17.48-20.9c.07,0,.07,0,.07.05Zm.57.46a.43.43,0,0,1,0-.07C103.7,48.35,103.66,48.35,103.63,48.36Zm1.46,2.58.07,0C105.1,51,105.1,51,105.09,50.94Zm.34.21c0-.06,0-.07,0-.07Zm.82,1.27c.06,0,.07,0,.07,0ZM108,55.55c0-.06,0-.07.05-.07A.18.18,0,0,0,108,55.55Zm1.6,6.1s.06,0,.06.05ZM110,63h.22C110.14,63,110.07,63,110,63Zm.22.44c0-.09.07-.07.11,0Zm.59,2.37.07,0C110.82,65.85,110.82,65.82,110.81,65.78Z"/><path id="fill1" d="M95.26,50.6a2.34,2.34,0,0,1-1.08-.44c-.93-.47-1.84-1-2.76-1.43a22,22,0,0,0-3.14-1.19,3.59,3.59,0,0,0-.88-.12c-.05,0-.11,0-.17.07l.12.14c.11.15.28.28.31.44.1.63.17,1.26.23,1.89,0,.48.08,1,.11,1.44,0,.13,0,.17.17.2.64.09,1.27.21,1.9.31.08,0,.22,0,.23-.06s-.1-.13-.2-.15L89,51.48a1.27,1.27,0,0,1-.23-.12,2,2,0,0,0,.11-.2c.25-.44.63-.16.9-.1.71.17,1.39.43,2.09.64.28.09.57.15.85.22a6.32,6.32,0,0,0,1.46.3c.48,0,.85.37,1.34.26.11,0,.26.14.4.2a1.39,1.39,0,0,0,.53.18c.52,0,.85.35,1.24.59.13.08.31.06.45.13a5.82,5.82,0,0,1,1.67.88,4.94,4.94,0,0,0,.92.54,1.21,1.21,0,0,1,.25.21s0,.07,0,.11-.08,0-.11,0l-.59-.44a.76.76,0,0,0-.21-.08c0,.07,0,.17.06.22.25.22.54.4.78.63s.71.74,1.07,1.12a.09.09,0,0,1,0,.07s-.08,0-.1,0a3.45,3.45,0,0,1-.28-.26c-.57-.53-1.11-1.09-1.72-1.58a8.42,8.42,0,0,0-1.55-1,12.9,12.9,0,0,0-1.58-.56c-.49-.17-1-.36-1.45-.5A5.55,5.55,0,0,1,94,52.58a.19.19,0,0,0-.14.05.14.14,0,0,0,0,.14c.17.15.36.28.53.44s0,.15.06.22a1,1,0,0,1-.18,0c-.36-.2-.71-.42-1.07-.61a3,3,0,0,0-1.4-.34,3.58,3.58,0,0,1-.45-.09,1.94,1.94,0,0,0-.48,0c-.1,0-.21.08-.3.06a5.3,5.3,0,0,0-1.85.32,1.72,1.72,0,0,1-.32,0c-.29,0-.35.11-.29.39a5.31,5.31,0,0,1,.1.68c0,.2.14.38,0,.63s0,.48.05.73c0,.08,0,.15,0,.23,0,.24,0,.49,0,.74,0,.06.07.13.06.19a10.13,10.13,0,0,0-.08,1.46,2.53,2.53,0,0,0,.08,1.49.4.4,0,0,1,0,.11c0,.61.1,1.21.11,1.82a6.79,6.79,0,0,0,.22,2.06.15.15,0,0,1-.06.13s-.1,0-.14,0l-.24-.13c0,.11.07.32.12.32.39.05.3.32.33.58.07.78.15,1.56.27,2.34a2.66,2.66,0,0,0,.27,1.1.22.22,0,0,1,0,.16,1.11,1.11,0,0,0,0,.74c.1.58.15,1.18.23,1.77a.77.77,0,0,1-.51.88.55.55,0,0,1-.49-.1,7.4,7.4,0,0,1-1.14-.94,3.88,3.88,0,0,0-1.2-.71A7.07,7.07,0,0,0,84.9,69a4.28,4.28,0,0,1-1.16-.39,3.06,3.06,0,0,0-1.12-.36c-.49-.12-1-.3-1.48-.42s-1.07-.21-1.61-.35-.87-.2-1.31-.27a3.8,3.8,0,0,1-1.56-.49,2.59,2.59,0,0,0-.81-.18,6.64,6.64,0,0,0-.74-.18,15.82,15.82,0,0,1-1.82-.52,6.12,6.12,0,0,1-1.48-.41,9.29,9.29,0,0,1-2.13-.85,4.38,4.38,0,0,0-1.18-.45c-.06,0-.14,0-.19-.07a9.43,9.43,0,0,0-2.39-1.26A16.4,16.4,0,0,1,64.45,62c-.44-.26-.87-.54-1.32-.8-.24-.14-.5-.25-.59-.55A3.9,3.9,0,0,1,61,59.14a10,10,0,0,1-.66-1c-.54-1-1.08-1.93-1.59-2.91-.36-.7-.85-1.33-1.17-2.05-.1-.23-.18-.47-.27-.71a2,2,0,0,1-.27-.7A3,3,0,0,1,57,51c0-.2-.16-.44-.19-.68a14.19,14.19,0,0,1-.22-1.72c0-.26-.12-.25-.3-.24a1.09,1.09,0,0,1-.26.05c-.4,0-.41-.07-.56-.52a2,2,0,0,0-.33-.68,2.93,2.93,0,0,1-.66-1.11c0-.06-.1-.1-.15-.16s0,.13-.06.19c0,.65,0,1.31-.12,1.95a7.73,7.73,0,0,0,0,1.18c0,.39.15.78.21,1.17.11.74.21,1.49.33,2.23.07.43.15.85.24,1.27s.21.91.31,1.36c.06.27.13.53.2.8.15.69.3,1.37.46,2.06s.32,1.3.47,2a10,10,0,0,0,.75,2,16.65,16.65,0,0,0,1,1.69c.39.63.81,1.24,1.2,1.87,0,.06,0,.17,0,.25a.72.72,0,0,1-.19-.11A7.57,7.57,0,0,1,58,64.28c-.37-.64-.75-1.27-1.12-1.9a3.94,3.94,0,0,1-.18-.48l-.45-1c-.11-.27-.23-.53-.35-.79-.29-.65-.55-1.31-.78-2-.42-1.19-.72-2.41-1-3.63-.14-.5-.12-1-.24-1.55a7.32,7.32,0,0,0-.32-1.74.4.4,0,0,1,0-.11c0-.86-.09-1.73-.1-2.59a18,18,0,0,0-.3-2.08.8.8,0,0,1,.08-.37c.07-.14.2-.25.27-.39a.55.55,0,0,0-.1-.76,7.17,7.17,0,0,0-1.76-1.44,7.62,7.62,0,0,1-1.15-.8c-.33-.26-.54-.22-.68.17s-.23.75-.33,1.13c-.19.8-.37,1.61-.55,2.41-.08.35-.16.71-.21,1.06s-.08.74-.12,1.11a1.39,1.39,0,0,1-.12.28c0,.08-.11.17-.09.24a2.71,2.71,0,0,1-.11,1.13,4.13,4.13,0,0,0,.07.68c0,.34-.06.69-.1,1,0,0-.06,0-.09,0s-.11-.07-.1-.09a8.81,8.81,0,0,0,0-1.54c0-.22.06-.43.07-.65,0-.63,0-1.26.12-1.88a18.3,18.3,0,0,1,.31-2.06,12.63,12.63,0,0,0,.23-1.5,5.79,5.79,0,0,1,.56-2.08c.08-.17.12-.23-.12-.22a.79.79,0,0,1-.39-.11c-.68-.34-1.34-.74-2-1s-1.59-.66-2.4-1-1.68-.45-2.49-.77c-.14-.05-.21-.1-.31,0a.66.66,0,0,1-.51.24,1.61,1.61,0,0,0-.92.53,16.21,16.21,0,0,0-2.36,2.93,18.23,18.23,0,0,1-2.18,2.79,1.48,1.48,0,0,1,.21-.5c.38-.51.78-1,1.16-1.5s.53-.74.78-1.11c.37-.54.72-1.1,1.09-1.64L40.05,39l.08-.08.2-.19a1.35,1.35,0,0,0-.34-.11c-.33,0-.7.09-.93-.28,0,0-.12-.07-.14-.05-.28.23-.61-.17-.92.08-.11.09-.42,0-.6-.1a1.41,1.41,0,0,0-.73-.09,17.42,17.42,0,0,0-1.77,0c-.41,0-.82.07-1.22.12,0,0-.1.14-.09.17a1.75,1.75,0,0,0,.23.24c.16.21.07.46-.19.45a3.94,3.94,0,0,0-1.73.6A15,15,0,0,0,29.74,41c-.56.37-1.07.79-1.6,1.19l-1.93,1.44c-.45.34-.9.69-1.33,1-.74.61-1.47,1.23-2.2,1.86-.36.32-.71.66-1.08,1s-.74.6-1.11.89c0,0-.08,0-.12,0s0-.09,0-.11a3,3,0,0,1,.31-.31c.66-.56,1.34-1.11,2-1.68s1.28-1.09,1.88-1.67a18.41,18.41,0,0,1,1.7-1.36c.48-.37.91-.79,1.39-1.16,1.1-.86,2.22-1.72,3.33-2.57.19-.14.41-.26.61-.39,0,0,.06-.07.09-.11a.65.65,0,0,0-.2,0s-.06,0-.09,0a17.73,17.73,0,0,1-2.49,1.28A20.94,20.94,0,0,0,26.27,42l-1.61,1a.88.88,0,0,0-.22.21l-1.23,1.62a.81.81,0,0,1-.16.16,2,2,0,0,1-.22.09c0-.07.07-.14.11-.2.33-.43.65-.87,1-1.3a4.63,4.63,0,0,1,.32-.42c.24-.23-.18-.23-.13-.42s0-.43.18-.65.54-.8.82-1.19c.14-.19.32-.35.47-.52s0-.08,0-.12-.07,0-.1,0a4,4,0,0,0-.46.23c-.58.32-1.17.62-1.73,1s-1,.77-1.51,1.14a21.78,21.78,0,0,1-2.18,1.76c-.13.06-.21.2-.32.3L16.64,47a.53.53,0,0,1-.19.06c0-.08,0-.18,0-.22.23-.22.48-.42.72-.63.45-.38.91-.74,1.35-1.13.22-.2.35-.51.59-.68a18.09,18.09,0,0,1,2-1.65c.16-.08.26-.26.4-.38.6-.49,1.19-1,1.82-1.45a9.43,9.43,0,0,1,1.81-1.19,3.56,3.56,0,0,1,.6-.27c.43-.09.61-.43.79-.76s.27-.51.4-.77l.12-.19c-.09,0-.19,0-.26,0-.72.39-1.44.77-2.15,1.19s-1.14.71-1.69,1.1c-.81.57-1.6,1.16-2.4,1.75l-1.35,1c-.54.4-1.09.81-1.64,1.2-.24.18-.48.34-.73.51,0,0-.08,0-.11-.06s-.05-.09,0-.11.14-.19.23-.23a11.71,11.71,0,0,0,2.49-1.82,29.2,29.2,0,0,1,2.78-2.17c.63-.41,1.18-.93,1.81-1.34s1.34-.93,2-1.35a1.94,1.94,0,0,1,1.17-.37c.19,0,.28-.06.34-.25s.18-.33.25-.5.12-.35.18-.52a1.9,1.9,0,0,0-.63,0,6.79,6.79,0,0,0-.83.37c-.43.2-.89.35-1.3.58s-.53.44-.85.6a7,7,0,0,0-1.25.83c-.81.7-1.73,1.23-2.58,1.87a12.59,12.59,0,0,1-1.33.79,1.19,1.19,0,0,1-.22,0c0-.09.05-.22.12-.26.49-.32,1-.61,1.48-.92a7.33,7.33,0,0,0,.64-.45c.67-.55,1.33-1.13,2-1.66.49-.39,1-.7,1.53-1.08a15.29,15.29,0,0,1,1.82-1.18c.19-.1.41-.16.61-.25,0,0,.09-.08.13-.13s-.14-.06-.2-.05c-.53.09-1,.32-1.54.42a11.64,11.64,0,0,0-1.45.47,17.73,17.73,0,0,0-2.16.74c-.55.27-1.21.34-1.64.85-.06.08-.21.09-.33.12l-.82.28s-.07.07-.11.11l-1.5,1.17a.26.26,0,0,0-.18.09c-.2.48-.69.52-1.1.74a.28.28,0,0,0,0,.13l.06-.1a.76.76,0,0,1,.08.18c-.32.27-.65.54-1,.78a12.46,12.46,0,0,0-2,2.09c-.32.37-.63.76-.94,1.14-.09.11-.15.23-.24.34s-.1,0-.14,0-.09-.22-.08-.06c0,.43-.42.65-.39,1.08,0,.14-.28.31-.44.46s-.45.06,0,.16c0,0,0,.08,0,.11l-.85,1.08s-.07.11-.05.13c.22.34-.06.49-.23.7a1.36,1.36,0,0,0-.11.28,1,1,0,0,1-.19.29l0,0A13,13,0,0,0,9,50.26c-.1.34-.43.52-.45.93s-.35.59-.3,1c0,0,0,.06,0,.09-.06.29-.57.43-.29.84-.1.28-.23.57-.31.86s-.08.51-.13.77a1.2,1.2,0,0,1-.11.23,2,2,0,0,0-.24.84,1.37,1.37,0,0,1-.27.75.74.74,0,0,0-.15.5,5.68,5.68,0,0,1-.41,2.19,3.88,3.88,0,0,0-.14.77c0,.2.13.48-.21.57,0,0,0,.11,0,.15.23.44-.09.84-.15,1.24a13,13,0,0,1-.57,2,5.27,5.27,0,0,1-.5,1.34c.18.36-.2.59-.23.91a1.67,1.67,0,0,1-.34.89c-.18.2-.14.39-.21.58A7.23,7.23,0,0,1,3,69.75s0,.1,0,.15l.16-.05a13.38,13.38,0,0,1,1.31-.54,6.1,6.1,0,0,1,1.46-.48A2.63,2.63,0,0,0,7,68.48a8.51,8.51,0,0,1,1.58-.56A13.85,13.85,0,0,1,10,67.65a12.9,12.9,0,0,1,2.05-.25c.27,0,.53-.26.85-.19a1.81,1.81,0,0,0,1.13,0,5.15,5.15,0,0,1,1.5-.23c.18,0,.38-.07.57-.08.64,0,1.29-.07,1.93-.12a9.11,9.11,0,0,0,1.05-.11c.25,0,.49-.16.74-.21A4.88,4.88,0,0,0,21.13,66a9.9,9.9,0,0,1,1.37-.41,10.35,10.35,0,0,0,1.92-.94,6.65,6.65,0,0,0,1.45-1.13,1.72,1.72,0,0,1,.34-.24,4.83,4.83,0,0,1,1.65-.57c.2.1.33.52.47.7s-1.15.49-1.37.59-.43.14-.61.25-.27.37-.43.4c-.32,0-.46.3-.69.45a7.77,7.77,0,0,1-1.59.93c-.51.17-1,.43-1.46.61s-1,.3-1.51.44-1.22.34-1.84.49a5.87,5.87,0,0,1-1,.17c-.9,0-1.81.09-2.71.11a4.39,4.39,0,0,0-1.39.22,1.2,1.2,0,0,1-.33,0,15.65,15.65,0,0,0-2.45.32c-.53.11-1.08.12-1.61.23S8.1,69,7.5,69.15a1.67,1.67,0,0,1-.66.15.27.27,0,0,0-.2,0,2.56,2.56,0,0,1-1.32.51,3.82,3.82,0,0,0-.64.32c-.4.19-.82.35-1.19.57A.93.93,0,0,1,3,71c-.1,0-.2.1-.31.16a1,1,0,0,1-.59.16.39.39,0,0,1-.31-.58.94.94,0,0,1,.12-.22,9,9,0,0,0,1.56-2.93l.81-2.3c.24-.72.5-1.45.73-2.17a7.24,7.24,0,0,0,.22-.92q.16-.73.3-1.47c.06-.36.08-.73.14-1.09A7.16,7.16,0,0,1,6,57.77c.2-.42.1-.83.23-1.23s.18-.76.28-1.14A6.81,6.81,0,0,1,7,53.89a2,2,0,0,0,.2-.68,7.66,7.66,0,0,1,.25-.94c.08-.26.19-.51.29-.76,0,0,0-.09,0-.1.4-.27.3-.72.42-1.09a8.88,8.88,0,0,1,.36-.9,14.67,14.67,0,0,1,1.42-2.65c.25-.34.37-.73.62-1.06s.41-.76.69-1.08a24.61,24.61,0,0,1,1.8-2.4,18.42,18.42,0,0,0,1.22-1.41,5.64,5.64,0,0,1,.69-.59l1.18-1a.15.15,0,0,0,0-.13s-.07-.07-.12-.08c-.5-.07-1-.18-1.5-.21a2.57,2.57,0,0,1-1.22-.51,18.16,18.16,0,0,1-3-2.67.31.31,0,0,1-.05-.21.74.74,0,0,1,.18,0,.6.6,0,0,0,.11-.06s-.06,0-.08,0l-.24.1c-.08,0-.19,0-.24-.08a9.86,9.86,0,0,0-1.22-1.28,8.16,8.16,0,0,0-1-.85,6,6,0,0,1-1-.88c-.33-.28-.64-.58-1-.85-.5-.41-1-.83-1.54-1.2-.72-.51-1.47-1-2.2-1.46C1.53,28.45,1,28.05.46,27.67c-.07-.05-.13-.14-.21-.16-.32-.1-.26-.39-.21-.58a.44.44,0,0,1,.45-.31A13.3,13.3,0,0,0,2,26.51c.42-.07.82-.22,1.23-.33a11.61,11.61,0,0,1,2-.66,5.32,5.32,0,0,1,1.55-.76A6.34,6.34,0,0,1,8.69,24a.2.2,0,0,0,.14-.06c.27-.27.75-.19,1-.54,0,0,0,0,0,0,.9-.07,1.6-.69,2.44-.86s1.36-.48,2.07-.59a2.39,2.39,0,0,0,.85-.26,4,4,0,0,1,.93-.28,1.69,1.69,0,0,1,1-.12s.11-.06.17-.09a1.06,1.06,0,0,1,.34-.12c.46-.05.92-.05,1.38-.12s1.08-.22,1.62-.32a6.45,6.45,0,0,1,1.45-.23,9,9,0,0,0,1.16,0,7,7,0,0,1,3.34.83,21.53,21.53,0,0,1,2.12,1.13,2.35,2.35,0,0,1,1,.87,1.26,1.26,0,0,0,.34.35c.11.09.23.16.34.24-.07-.11-.14-.21-.2-.32a6.07,6.07,0,0,1-.85-2c-.16-.83-.34-1.65-.56-2.46a3.94,3.94,0,0,1-.21-1,2.6,2.6,0,0,0-.12-.88A3.79,3.79,0,0,1,28.4,16c0-.33.11-.68-.21-1-.09-.08,0-.33,0-.51s0-.16,0-.21c-.5-.69-.48-1.6-1-2.28a4.3,4.3,0,0,1-.6-1.35,1.29,1.29,0,0,0-.36-.67.34.34,0,0,1,.06-.51.74.74,0,0,1,.59-.06c.4.13.74.38,1.13.47a19.15,19.15,0,0,0,2.52.71,21.72,21.72,0,0,0,2.55.2c.27,0,.52.15.83.07a2.19,2.19,0,0,1,.84,0c.63.11,1.27.22,1.89.37,1,.26,2,.55,3,.85a9.29,9.29,0,0,1,1.24.47c1.11.49,2.24,1,3.33,1.51A4.79,4.79,0,0,1,46,15.52a2,2,0,0,1,.52,1.31s0,.07,0,.1.06-.06.07-.1c.08-.31.13-.64.23-.95A8.71,8.71,0,0,1,47.2,15a25.16,25.16,0,0,1,1-2.39,18,18,0,0,1,1.84-2.93,22.28,22.28,0,0,1,2-2.13,17.11,17.11,0,0,1,1.48-1.19l.7-.57c.36-.29.7-.59,1.08-.85s.69-.45,1-.67c.7-.43,1.4-.86,2.11-1.28S60.15,2,61,1.54c.66-.37,1.32-.72,2-1.09a1.38,1.38,0,0,0,.27-.27.55.55,0,0,1,.76,0c.2.14.34.31.15.6a.52.52,0,0,0,0,.47,2.68,2.68,0,0,1,.1,1,7.69,7.69,0,0,0,.44,2,16.16,16.16,0,0,0,2.22,3.7c.42.63,1,1.1,1.4,1.73.22.36.64.64.56,1.15,0,0,.06.1.09.1.32,0,.39.25.52.45s.48.68.69,1a1,1,0,0,1,.1.47.85.85,0,0,0-.07.21h.07l0-.19c.12.08.31.12.15.35-.06.08,0,.1.15.23a.16.16,0,0,1,.07.07,6.58,6.58,0,0,1,.28.93c.07.44,0,.9.13,1.33a7.26,7.26,0,0,1,.09,1.61c0,.35-.14,1.74-.41,1.73s-.47-1.38-.46-1.74.11-.6.1-.89a8.84,8.84,0,0,0-.33-2.23,9.32,9.32,0,0,0-1.65-3C67.8,10.5,67.15,9.75,66.56,9c-.44-.57-.81-1.2-1.21-1.8s-.76-1.08-1.13-1.62a.77.77,0,0,1-.08-.19c-.26-.9-.54-1.8-.76-2.71a6,6,0,0,1,0-1c0-.13,0-.36-.09-.36a1,1,0,0,0-.5.1A4.53,4.53,0,0,1,61.39,2c-.16,0-.3.22-.47.31L58.73,3.53a5.59,5.59,0,0,1-.57.22c-.08,0-.2,0-.22.11-.13.35-.5.41-.72.63s-.51-.14-.59.29c0,.2-.37.35-.58.51s-.48.34-.72.51c-.43.29-.89.54-1.29.86-.62.49-1.19,1-1.78,1.55a11.88,11.88,0,0,0-1.11,1,11.12,11.12,0,0,0-.86,1.18,16,16,0,0,0-1.15,1.83,3.64,3.64,0,0,0-.64,1.5c-.53.53-.45,1.28-.7,1.91-.11.28-.18.58-.32.86a4.6,4.6,0,0,0-.39,1.76,5.16,5.16,0,0,0-.1.67,9.76,9.76,0,0,0,.21,1.94,1.27,1.27,0,0,1,0,.39A8.33,8.33,0,0,0,47.4,23a5.46,5.46,0,0,0,.24,1.28c0,.08.07.16.11.23l.09.13c0-.06.11-.11.1-.16a9.09,9.09,0,0,1-.06-1.56c.1-.68.14-1.38.27-2.07s.3-1.32.38-2a10.88,10.88,0,0,1,.25-1.1c0-.19,0-.39.08-.58S49,17,49,17a.73.73,0,0,1,0,.2,3.84,3.84,0,0,1-.29,1.8,2.8,2.8,0,0,0-.15.65c0,.35-.07.71-.11,1.06a2.85,2.85,0,0,1-.11.39,1.62,1.62,0,0,0-.1.34,4.1,4.1,0,0,0,.06.49c0-.16,0-.32,0-.48s0-.1,0-.15.14.08.15.13a2,2,0,0,1,0,.64,3.18,3.18,0,0,0,0,1.73.81.81,0,0,1,0,.38c-.08.31.11.48.3.65s.12,0,.18.09.39.21.58.32c.11-.29-.25-.34-.27-.57s-.09-.48-.13-.72a6.78,6.78,0,0,1-.1-1,17.85,17.85,0,0,1,.31-3.79,10.41,10.41,0,0,0,.12-1.38,1.87,1.87,0,0,1,0-.32s.07-.07.11-.11.07.1.07.15c0,.64,0,1.28,0,1.92a3.15,3.15,0,0,1-.09,1c-.07.22.08.51.09.77,0,.51,0,1,0,1.54a4.64,4.64,0,0,0,.34,1.73c0,.09.13.15.2.23a2.61,2.61,0,0,1,.23.24c.15.26.1.38-.19.41H50.2a.48.48,0,0,0-.14.05.39.39,0,0,0,.14.05,3.8,3.8,0,0,1,1.19.45c.18.1.34.24.52.36l.23.14a1.36,1.36,0,0,0-.06-.29,5.41,5.41,0,0,1-.25-1.49,16.26,16.26,0,0,1,0-1.71A18,18,0,0,1,52,20.44c.08-.46.06-.93.13-1.39s.23-1.12.28-1.69a7.49,7.49,0,0,0,.16-1.5,3.77,3.77,0,0,1,.11-.94c0-.06.09-.11.14-.16a.41.41,0,0,1,.07.17,9.93,9.93,0,0,1-.21,2.66,1.6,1.6,0,0,0,0,.44.87.87,0,0,1,0,.32,2.73,2.73,0,0,0-.2,1.31,7,7,0,0,1-.21,1.28c0,.06-.09.12-.07.16a2.58,2.58,0,0,1,.09,1.06,3.82,3.82,0,0,0,.09.44c0,.37,0,.74,0,1.1a6.67,6.67,0,0,0,.39,2.2,5.55,5.55,0,0,0,.71,1.47c0,.06.06.13.1.18.24.25.48.49.74.73a.63.63,0,0,0,.22.09.74.74,0,0,0,0-.26c0-.11-.09-.22-.1-.34,0-1.28-.11-2.56-.1-3.84a30.31,30.31,0,0,1,.22-3.15,19.7,19.7,0,0,0,.1-2.17,3.2,3.2,0,0,1,0-.44c0-.05.08-.08.12-.12s.08.07.09.11,0,.22,0,.33c0,.86,0,1.72,0,2.58a5.5,5.5,0,0,1-.26,1.77,8.56,8.56,0,0,0-.08,1.23c.34.27.13.68.24,1a4.75,4.75,0,0,1,.09,1.12c.07.72.11,1.45.23,2.16a3.26,3.26,0,0,0,.58,1.46l.12.12a1.27,1.27,0,0,0,.06-.18c0-.11,0-.22,0-.33,0-1.08,0-2.16,0-3.25A13.19,13.19,0,0,1,56,24.07a14.88,14.88,0,0,0,.09-1.88,2.54,2.54,0,0,1,0-.39,1.79,1.79,0,0,1,.13-.32,1.77,1.77,0,0,1,.08.31c0,.34.07.68.07,1s-.06.62-.07.94,0,.69,0,1v2c0,.35,0,.7,0,1.05.05.7.17,1.39.17,2.09a7.14,7.14,0,0,0,.28,1.39c0,.09.16.16.24.23s.17-.15.18-.23a6.16,6.16,0,0,1,.7-1.7,1.5,1.5,0,0,0,.19-.8A9,9,0,0,0,58,27c-.12-.39-.15-.78-.24-1.17l-.06-.3c-.11-.43.31-.86,0-1.29.21-.43,0-.89.11-1.32a11.54,11.54,0,0,1,.32-2.12c-.23-.4.16-.73.13-1.13a3.8,3.8,0,0,1,.1-1.16c.09-.47.25-.92.38-1.38a.48.48,0,0,0,0-.14,14.68,14.68,0,0,1,.52-2.54,34.16,34.16,0,0,1,1-3.26,6.22,6.22,0,0,1,.33-.69l.06-.06a.41.41,0,0,1,0,.09.48.48,0,0,1,0,.17c-.39.72-.51,1.54-.83,2.29a10.5,10.5,0,0,0-.49,2c-.23,1.13-.42,2.27-.67,3.4-.11.5-.15,1-.23,1.51a21.26,21.26,0,0,1-.29,2.23,5.28,5.28,0,0,0,0,1.32s0,.07.07.1l0-.09c0-.19.08-.37.11-.56.07-.47.15-.93.22-1.4s.07-.77.11-1.16a2.85,2.85,0,0,1,.11-.39s.07-.05.11-.07A.52.52,0,0,1,59,20c-.05.65-.12,1.31-.17,2a19.09,19.09,0,0,1-.13,2.15,12.83,12.83,0,0,0-.08,2.05,1.37,1.37,0,0,0,.19.68c.17.32.23.59,0,.87a.41.41,0,0,0-.11.23,1.46,1.46,0,0,0,0,.3,1.86,1.86,0,0,0,.19-.22c.24-.36.46-.73.71-1.08s.5-.67.78-1,.56-.49.76-.78c.35-.52.88-.87,1.23-1.4a5.69,5.69,0,0,1,1.22-1.12c.45-.37.92-.72,1.37-1.07a.68.68,0,0,1,.12-.12,13.15,13.15,0,0,1,2.82-1.56l.13-.07a6.36,6.36,0,0,1,2.07-.71c.35-.09.66-.28,1-.37a4.6,4.6,0,0,1,1-.16,5.92,5.92,0,0,0,1.19-.2c.13,0,.28,0,.41,0a3.43,3.43,0,0,1,1.93-.06,2.2,2.2,0,0,1,1.27-.09c.67.07,1.35.11,2,.17s1.47.29,2.22.39a7.32,7.32,0,0,1,1.56.46c.75.26,1.5.55,2.24.84.55.22,1.09.47,1.63.71a11.83,11.83,0,0,1,1.84.85,8.13,8.13,0,0,1,1.57.89c.28.26.69.37,1,.66s.72.57,1.06.87c.56.49,1.09,1,1.63,1.51s.83.74,1.23,1.12a17.49,17.49,0,0,1,2.35,3.14c.24.37.53.7.75,1.07s.46.81.71,1.19c.39.62.76,1.26,1.16,1.89a3.37,3.37,0,0,1,.6,1.12c0,.14.17.26.26.39.6.9,1.23,1.79,1.78,2.72.22.36.63.38.85.67s.37.35.53.55a7.26,7.26,0,0,0,.85,1.07s0,.07.07.11-.06,0-.09,0a2,2,0,0,1-.35-.09c-.1,0-.18-.1-.28-.12a.76.76,0,0,0-.21,0s.15.08.15.12,0,.35,0,.52c.15-.07.3-.15.46-.21s.11,0,.13,0a.15.15,0,0,1,0,.14.7.7,0,0,1-.67.23c-.12,0-.21-.19-.31-.29l-.75-.8a3.17,3.17,0,0,1-.21-.27c0-.07-.07-.15-.11-.22a1.6,1.6,0,0,0,.21,0s.08,0,.12-.07-.08-.14-.11-.14a.55.55,0,0,1-.64-.34c0-.12-.29-.2-.44-.21-.36,0-.71-.19-1-.16a4.27,4.27,0,0,1-1.34-.28,2.28,2.28,0,0,0-.63.06,1.2,1.2,0,0,1-.37,0c-.69-.24-1.32.11-2,.21s-1.22.25-1.83.34-1.3.15-1.95.22a.84.84,0,0,0-.14.06c0,.05.1.14.16.15a1.44,1.44,0,0,1,.63.19c.5.22,1,.39,1.52.6a5.06,5.06,0,0,1,.44.26,23.61,23.61,0,0,1,2.45,1.5.92.92,0,0,1,.19.24c.08.09.15.24.25.27.64.19.88.87,1.45,1.14.05,0,.06.17.05.25s0,.21.19.18.29.1.41.2c.52.42,1.07.82,1.57,1.26s.86.84,1.28,1.28.68.73,1,1.11c.1.12.19.25.28.38l.21.34-.32.16-.09.08.09,0c.08,0,.16,0,.22,0,.29-.15.43.09.51.25a19.61,19.61,0,0,0,.92,1.76,6.28,6.28,0,0,0,.45.69,12.19,12.19,0,0,1,1.55,2.72c.11.3.23.6.32.91a2.74,2.74,0,0,0,.32.64,2.58,2.58,0,0,1,.34.9,2.36,2.36,0,0,0,.31.64c.08.17.16.34.22.51s.07.26.11.39l-.35-.14a1.34,1.34,0,0,0-.19,0c0,.06.08.17.13.17a.37.37,0,0,1,.32.23c.06.11.31,0,.33.25a2.18,2.18,0,0,0,.17.53c.05.18.1.36.14.55a.43.43,0,0,1-.19.47.18.18,0,0,0,0,.17c.26.12.23.12.27.27.12.5.15,1,.25,1.52a2,2,0,0,0,.22.75,2.47,2.47,0,0,1,.24.77,4.34,4.34,0,0,0,.09.52,7.22,7.22,0,0,1,.44,2.3c.06.78,0,1.55.07,2.32a.31.31,0,0,1-.12.24c-.38.2-.41.31-.08.62a1.51,1.51,0,0,1,.43,1c0,.26-.12.36-.36.35h-.39c-.44,0-.46,0-.46-.45a.88.88,0,0,0-.41-.75c-.08-.07-.2-.1-.26-.18a5.82,5.82,0,0,0-2-1.47c-.31-.2-.71-.25-1-.46a3.6,3.6,0,0,0-.89-.51,4.18,4.18,0,0,0-1.67-.36,3.59,3.59,0,0,1-1.52-.17c-.14,0-.34.09-.49.06a2.45,2.45,0,0,0-1.29.11,2.51,2.51,0,0,1-.39,0,2.62,2.62,0,0,0-1,.09c-.11,0-.29-.07-.44-.09l-1.4-.23c-.69-.11-1.38-.28-2.07-.41s-1.13-.22-1.68-.36a20.14,20.14,0,0,1-3.31-1,1.11,1.11,0,0,0-1-.09c-.07,0-.25-.13-.39-.19-.76-.08-1.89-.17-.78-.35a.85.85,0,0,0,0-.45c0-.25.65-.33.87-.26.56.19,1.11.4,1.68.58a22.35,22.35,0,0,0,2.32.75,12.54,12.54,0,0,0,2.28.51,5.13,5.13,0,0,1,1.06.22c.32.07.63.15.95.2s.56.07.84.12a5.89,5.89,0,0,0,2.33,0,4.35,4.35,0,0,1,1.43-.11c1,.14,2.09.16,3.13.38a10.81,10.81,0,0,1,2.93,1.33c.1,0,.22.09.32.15l.74.47c.37.26.73.53,1.11.77a.56.56,0,0,0,.29.06,1.43,1.43,0,0,0,0-.29c0-.12-.06-.24-.07-.36s0-.44,0-.66a8.18,8.18,0,0,0,0-1,7.25,7.25,0,0,0-.27-.87s-.06-.11,0-.14c.16-.58-.21-1-.32-1.54a14.58,14.58,0,0,1-.47-2.18c0-.39-.19-.76-.25-1.16s-.09-.43.11-.61c0,0,0-.14.09-.18s-.08-.16-.1-.24-.12.08-.16.14a.55.55,0,0,0-.06.18,1.42,1.42,0,0,1-.08-.18l-.3-1a2.52,2.52,0,0,0-.12-.39c-.07-.16-.21-.3,0-.47,0,0-.08-.17-.11-.16s-.19-.1-.24-.21a13,13,0,0,1-.71-1.74,5,5,0,0,0-.37-1c-.46-.92-1-1.77-1.51-2.68a17.24,17.24,0,0,1-1.08-1.75,10.9,10.9,0,0,0-1.16-2,6.15,6.15,0,0,0-.87-.9,6.14,6.14,0,0,1-.62-.73,8.68,8.68,0,0,0-1.69-1.52c-.67-.55-1.3-1.15-2-1.7a16.59,16.59,0,0,0-2-1.61c-.55-.33-1.07-.71-1.62-1a12.94,12.94,0,0,0-1.22-.64,6.57,6.57,0,0,0-1.94-.62c-.5,0-1-.08-1.5-.1a.63.63,0,0,0-.29.08s0,.09,0,.13.15,0,.21,0c1.15.45,2.34.8,3.45,1.35a3.32,3.32,0,0,1,1,.5l.12.09a.47.47,0,0,1-.16,0l-.18-.09-1.92-.82a.62.62,0,0,0-.19-.07s-.09,0-.14,0,0,.1.08.12c.2.1.4.2.6.28l2.48,1a.45.45,0,0,1,.14.06c.07.09.13.19.19.28l-.3-.1c-.86-.35-1.75-.66-2.58-1.07a13.93,13.93,0,0,0-2.27-.9,5.89,5.89,0,0,0-1.63-.32,3.34,3.34,0,0,0-1,.36,5.36,5.36,0,0,0-1.36.42L86,41.6a.85.85,0,0,0,.22.09,13.24,13.24,0,0,1,2.69.67,31.5,31.5,0,0,1,5.49,2.4,1.54,1.54,0,0,1,.19.08s0,.08.08.11a.31.31,0,0,1-.15,0l-.92-.44-3.29-1.46a3.58,3.58,0,0,0-.64-.18s-.1,0-.14,0l.13.06,1.54.66c.19.08.38.13.57.22a20,20,0,0,0,3.08,1.33,2.93,2.93,0,0,1,.63.33s.06.1.09.16-.14,0-.19,0c-.61-.28-1.21-.61-1.85-.84-.93-.32-1.77-.85-2.72-1.12-.62-.18-1.18-.54-1.78-.74a11,11,0,0,0-1.63-.48c-.36-.07-.72-.19-1.09-.27-.21-.05-.54-.16-.6.06s.33.18.53.24c.66.18,1.32.36,1.95.6,1.06.4,2.13.81,3.15,1.28a25.68,25.68,0,0,1,4,2.17l.34.23.24.2a1.69,1.69,0,0,1-.34-.08c-.35-.18-.69-.37-1-.58A20.56,20.56,0,0,0,91.92,45l-1.21-.53s-.1,0-.15,0,0,.13.1.16c.58.3,1.17.6,1.77.89a30.06,30.06,0,0,1,3,1.67c.3.19.65.3,1,.46,0,0,0,.1.07.16s-.14,0-.18,0c-.53-.28-1.06-.54-1.57-.85-1-.59-2-1.08-3-1.6A39.64,39.64,0,0,0,88,43.75a15,15,0,0,0-1.77-.51c-.14,0-.32,0-.16.22,0,.08,0,.2,0,.3a.7.7,0,0,0,.6.57,9.7,9.7,0,0,1,2.39.73c.86.35,1.74.67,2.59,1a19.45,19.45,0,0,1,2.1,1c.76.45,1.47,1,2.18,1.5a2.17,2.17,0,0,1,.44.55.11.11,0,0,1,0,.08l-.1,0a.36.36,0,0,1-.15,0c-.59-.32-1.19-.61-1.74-1-1-.65-2-1.08-3-1.64a24.53,24.53,0,0,0-3.78-1.49,5.14,5.14,0,0,0-1-.16.84.84,0,0,0-.2,0,.67.67,0,0,1,.17.06,1,1,0,0,1,.26.28,4.48,4.48,0,0,1,.32.91.52.52,0,0,0,.37.46c.64.19,1.29.34,1.92.56s1.19.47,1.79.71a13,13,0,0,1,1.22.5c.52.25,1,.53,1.53.82s.69.47,1,.7a2,2,0,0,1,.69.69,1.74,1.74,0,0,1,.1.19,1,1,0,0,1-.25,0,1.09,1.09,0,0,1-.33-.27.75.75,0,0,1,.24,0l-.11-.11c-.33-.23-.65-.46-1-.66a16.81,16.81,0,0,0-2.9-1.47.82.82,0,0,0-.22,0,.5.5,0,0,0,.14.15l1.94,1a11.32,11.32,0,0,1,1.87,1.1M69,36.63v-.1a.18.18,0,0,1-.12.1v.11a.26.26,0,0,1,.12-.11M53.25,35.48h.1a.25.25,0,0,1-.1-.12h-.1a.21.21,0,0,1,.1.12m-.88,7.7h.1a.22.22,0,0,1-.1-.11.23.23,0,0,1-.11-.11h-.1a.21.21,0,0,1,.1.12s.07,0,.11.11m1.54,1.21h-.1a.21.21,0,0,1,.1.12H54a.22.22,0,0,1-.1-.11M63.31,36l.14,0,0-.07a.63.63,0,0,1-.23.1l-.14,0,0,.08a1,1,0,0,1,.23-.11m-5.77,2.26,0,.14.07,0a1,1,0,0,1-.1-.23c0-.13,0-.26-.07-.39h-.1c0,.13.05.27.08.4a.18.18,0,0,1,.09.09M95.81,48.79h.1a.22.22,0,0,1-.1-.11,26.26,26.26,0,0,0-4.2-2.44,2.54,2.54,0,0,0-.49-.15s-.09,0-.14,0l.12.06,1.52.83A17.59,17.59,0,0,1,95,48.37c.24.18.56.24.84.42m-55-26.4h.11a.22.22,0,0,1-.11-.12,4.5,4.5,0,0,1-.71-1.13c-.13-.38-.39-.71-.5-1.11a1.42,1.42,0,0,0-.07-.22c.08,0,.19,0,.22.09A12.55,12.55,0,0,0,41,21.69c.43.49.86,1,1.3,1.44a2,2,0,0,0,.46.35.68.68,0,0,0,.29.05c0-.09,0-.2-.08-.26a2.6,2.6,0,0,1-.44-.64c-.32-.64-.72-1.25-1.06-1.87a1.68,1.68,0,0,1-.13-.5s0-.08.06-.12.12.05.15.1a6.21,6.21,0,0,0,.35.62c.43.6.9,1.17,1.29,1.78a2.27,2.27,0,0,0,2,1.13l.16,0s0-.09,0-.12A17.34,17.34,0,0,1,44,22.1c-.69-.77-1.2-1.65-1.86-2.43,0,0,0-.1,0-.15l.16.07a3.25,3.25,0,0,1,.42.31c.25.27.48.58.74.84.8.82,1.61,1.61,2.4,2.42.26.26.63.44.68.87,0,0,.06.09.1.11a.41.41,0,0,0,.19,0,.24.24,0,0,0,0-.14,4.59,4.59,0,0,1-.1-.51,1.33,1.33,0,0,0-.36-.84,3.65,3.65,0,0,1-.63-.79c-.3-.55-.82-1-.93-1.64-.55-.66-.6-1.55-1.05-2.26a.14.14,0,0,1,0-.11.56.56,0,0,1,.09-.17.17.17,0,0,1,.13.06,2,2,0,0,1,.31.53A9.69,9.69,0,0,0,45.84,21a7.42,7.42,0,0,0,.49.62.31.31,0,0,0,.22.13c.24-.06,0-.13,0-.21,0-.3-.06-.61-.1-.91a4.92,4.92,0,0,1-.1-.67c0-.24.15-.51.08-.71a1.93,1.93,0,0,1,0-1.19,2.85,2.85,0,0,0,.08-.51,4.54,4.54,0,0,1-.51-.09c-.1,0-.27,0-.15-.27s-.09-.82-.26-1.12a3.12,3.12,0,0,0-1.44-1.36c-.66-.27-1.29-.6-1.95-.86s-1.3-.58-2-.81a20.91,20.91,0,0,0-2.06-.72c-.51-.1-1-.24-1.51-.35s-.78-.13-1.17-.22a2.11,2.11,0,0,0-1.24-.11c-.06,0-.14,0-.21,0-.39-.06-.78-.15-1.18-.18-.75-.06-1.52,0-2.26-.14a4.34,4.34,0,0,1-1.41-.3,10.92,10.92,0,0,0-1.4-.46l-.23-.08a.75.75,0,0,0,0,.3,15.42,15.42,0,0,1,.84,1.9,11,11,0,0,1,.77,3,5.14,5.14,0,0,1,0,.68c0,.22.14.47.08.66s.14.35.12.52a4.49,4.49,0,0,0,.34,1.4A8.69,8.69,0,0,1,30,20.17a7.38,7.38,0,0,0,.31,1.41,10.09,10.09,0,0,0,1,2.33,3.31,3.31,0,0,0,1.4,1.44,1.21,1.21,0,0,0,.65.27c.31,0,.44.2.64.33s.12.34,0,.5-.34.22-.52.17c-.37-.12-.72-.3-1.08-.44a3.37,3.37,0,0,0-.34-.09,1,1,0,0,0,.13.3,11.08,11.08,0,0,1,.79,1.05c.14.24.17.18.33.06a9.52,9.52,0,0,1,1.92-1.2.57.57,0,0,0,.3-.85,10.23,10.23,0,0,1-.91-2c-.06-.19,0-.48-.25-.61,0,0,0-.19,0-.29s.18.05.22.11c.29.43.58.86.86,1.3s.5.81.73,1.23c.09.17.21.26.38.21a2.62,2.62,0,0,0,.49-.27.31.31,0,0,0-.06-.17A9.81,9.81,0,0,1,36,23c-.38-.72-.75-1.44-1.08-2.19,0-.05,0-.1,0-.15a.48.48,0,0,1,.17,0,.78.78,0,0,1,.21.16c.26.34.54.68.77,1,.41.65.78,1.33,1.17,2a3,3,0,0,0,.48.67.53.53,0,0,0,.71.11,6.6,6.6,0,0,1,1.13-.56c.2-.08.2-.14.07-.25a14.26,14.26,0,0,1-1.25-1.33,9.83,9.83,0,0,1-1.46-2.37,1.57,1.57,0,0,1,0-.23c.08,0,.18,0,.23.09a11.05,11.05,0,0,1,.72,1,13.26,13.26,0,0,0,2,2.26.48.48,0,0,0,.18.07.76.76,0,0,0-.06-.2c-.29-.51-.59-1-.87-1.51a2,2,0,0,1-.22-.57c-.17-.69-.62-1.24-.84-1.9,0,0-.06-.05-.08-.08s-.13-.24-.18-.36a12.57,12.57,0,0,0-1.22-2.14c-.27-.39-.57-.75-.81-1.15a5.11,5.11,0,0,0-1.78-1.77,1.5,1.5,0,0,0-.86-.33.88.88,0,0,1-.27-.06c.09-.05.18-.14.27-.14a.8.8,0,0,1,.4.08,4.85,4.85,0,0,0,.8.44,2.92,2.92,0,0,1,1.33,1c.63.64,1,1.45,1.68,2.1a.66.66,0,0,1,.12.17c.25.37.5.75.73,1.13a9.51,9.51,0,0,1,.59,1,3.41,3.41,0,0,0,.68,1,.32.32,0,0,1,.09.16,2.42,2.42,0,0,0,.54,1.31,1.7,1.7,0,0,1,.33.52c.1.31.3.36.56.37M79.92,32c-.22,0-.48.16-.67.1A3.21,3.21,0,0,0,78.14,32,8,8,0,0,1,76.06,32c-.63-.18-1.16.22-1.76.07-.3-.07-.66.14-1,.19-.56.09-1.12.13-1.67.23-.88.16-1.76.34-2.63.55a3.78,3.78,0,0,0-1.55.65c-.36.29-.77.51-1.16.78-.54.37-1.07.75-1.6,1.15a10.17,10.17,0,0,0-.92.82c-.14.13-.21.34-.37.44a8.47,8.47,0,0,0-1.77,1.91s0,.09,0,.14.09,0,.12,0c.5-.34,1-.71,1.49-1a8,8,0,0,0,1.12-.6c.35-.32.8-.38,1.18-.66A9,9,0,0,1,66.64,36c.39-.21.87-.27,1.17-.64.74-.14,1.32-.72,2.09-.8.12,0,.23-.14.38-.06a1.66,1.66,0,0,1-.31.23c-1.06.54-2.15,1-3.18,1.61-1.26.7-2.49,1.45-3.71,2.22a12.11,12.11,0,0,0-1.31,1.08s0,.12,0,.18a.39.39,0,0,0,.19,0c.56-.33,1.11-.68,1.67-1a4.11,4.11,0,0,0,.56-.25,7.46,7.46,0,0,1,1.43-.67c.38-.19.79-.31,1.17-.49s1-.49,1.52-.72c.1,0,.27,0,.35-.06a3.49,3.49,0,0,1,1.22-.53c.31-.1.64-.11,1-.19s.42-.15.63-.21a.25.25,0,0,1,.17.07s0,.13,0,.14c-.57.09-1,.55-1.68.45a.71.71,0,0,0-.24.06c.19.31-.17.29-.26.33a6.65,6.65,0,0,1-1.28.43L68,37l-.14.15a.38.38,0,0,1,.21.12c-.11.28-.38.13-.57.22-.85.39-1.73.7-2.54,1.15l-2.06,1.15-.44.29a5.4,5.4,0,0,0,.33.46.23.23,0,0,0,.21,0,6.62,6.62,0,0,1,2-.94,33.5,33.5,0,0,1,3.28-1l.44-.11a12.59,12.59,0,0,0,1.39-.23,8.32,8.32,0,0,1,2.28-.2.81.81,0,0,1,.33.11s.07.09.11.15-.09.06-.13.06a4,4,0,0,0-.6,0,16.18,16.18,0,0,1-2,.4,15.61,15.61,0,0,0-2.53.54c-1,.24-1.87.6-2.8.92a5.54,5.54,0,0,0-.92.44c-.67.36-.67.39-.11.83a1.21,1.21,0,0,1,.16.16c.1.12.16.09.31,0a4,4,0,0,1,1.22-.38c.48-.07,1-.16,1.44-.22.68-.09,1.35-.3,2-.41s1.3-.15,1.94-.23a2.76,2.76,0,0,0,.77-.13c.49-.22.94,0,1.4,0,0,0,.06.07.07.12s0,.08-.05.08c-.27.05-.6.2-.82.1-.58-.25-1.12.08-1.68,0a2.67,2.67,0,0,0-.79.19l-.16.08c.06,0,.14.06.2,0A2.51,2.51,0,0,1,71,41a12,12,0,0,0-1.2.17c-.42.1-.86.06-1.29.2a7.34,7.34,0,0,1-1.17.23c-.66.12-1.34.21-2,.34a2.5,2.5,0,0,0-.64.3c-.1.06-.14.14,0,.25a6.12,6.12,0,0,0,1.32.8c.47.18.86.58,1.43.55A3.35,3.35,0,0,1,68,44a7,7,0,0,0,1.76.27,14.71,14.71,0,0,1,1.63-.11c.56,0,1.12-.06,1.68-.09a14,14,0,0,0,1.44-.26c.67-.12,1.32-.35,2-.52a18,18,0,0,1,1.9-.44,13.81,13.81,0,0,1,1.4-.19c.28,0,.45-.22.74-.18a1.79,1.79,0,0,0,.82-.1c.75-.24,1.48-.52,2.21-.77.54-.18,1.08-.33,1.61-.51a12.65,12.65,0,0,1,1.38-.52,2,2,0,0,0,1-.52.78.78,0,0,1,.51-.19,3.12,3.12,0,0,0,1.38-.27,3.49,3.49,0,0,1,1.43-.42,1,1,0,0,0,.7-.19c.08-.07.29-.14.33-.11.19.21.35,0,.52,0a1.46,1.46,0,0,1,.45-.1,10.5,10.5,0,0,0,1.75-.3c.4-.07.8-.18,1.21-.25s.7-.07,1-.15a4.84,4.84,0,0,1,1.19-.19c.5,0,1,0,1.49.09a11.86,11.86,0,0,1,2.51.35s.08,0,.13-.06-.07-.15-.1-.15a.64.64,0,0,1-.66-.27.15.15,0,0,0-.11,0c-.15.11-.16.07-.25-.09s-.36-.4-.44-.71-.43-.43-.32-.8c0,0-.09-.07-.15-.1a1.11,1.11,0,0,1-.51-1,.13.13,0,0,0-.08-.12.62.62,0,0,1-.46-.59s.07-.08.08-.08c.2.17.16,0,.11-.09A1.29,1.29,0,0,0,99,34c-.11-.05-.29-.09-.31-.16-.15-.7-.73-1.13-1.06-1.71-.16-.28-.33-.56-.5-.83s-.51-.79-.76-1.17a16.56,16.56,0,0,1-.94-1.37,5.33,5.33,0,0,0-.91-1.06c-.28-.29-.57-.57-.85-.85-.08-.08-.15-.16-.23-.23s-.15-.16-.06-.2l.33-.15s0,0,0,0l.06-.11s-.11,0-.14,0a.81.81,0,0,1-1-.19c-.22-.19-.41-.4-.63-.59s-.65-.54-1-.8a13.21,13.21,0,0,0-1.43-1.06c-.56-.32-1.11-.65-1.7-.93s-.91-.39-1.35-.61c-.71-.35-1.47-.6-2.21-.9s-1.24-.54-1.88-.77-1.24-.35-1.86-.55a3.19,3.19,0,0,0-1.23-.22,3.37,3.37,0,0,1-.83-.1A5.2,5.2,0,0,0,76,19.25c-.09,0-.2,0-.31,0a2.13,2.13,0,0,0-.79,0,3,3,0,0,1-.73.09c-.44,0-.88.06-1.33.11a2.78,2.78,0,0,0-1,.16c-.4.18-.84.16-1.23.36a2.76,2.76,0,0,1-.72.23,6.71,6.71,0,0,0-1.27.4c-.3.12-.58.28-.87.43-.56.28-1.15.52-1.68.85a8.36,8.36,0,0,0-1.5,1.14c-.81.81-1.75,1.47-2.49,2.35-.33.4-.72.76-1,1.17s-.82,1.08-1.21,1.64a14.2,14.2,0,0,0-.92,1.49c-.11.2,0,.51-.11.72s-.4.34-.51.55c-.22.44-.37.91-.56,1.36a1.12,1.12,0,0,0,0,1l.16.32c.06-.12.12-.24.17-.36s0-.11,0-.17a4.93,4.93,0,0,1,.5-1.77c.34-.66.72-1.31,1.12-2a17.54,17.54,0,0,1,1.52-2c.56-.64,1.21-1.22,1.81-1.82a12.8,12.8,0,0,1,3.54-2.22s.12,0,.19,0a.74.74,0,0,1-.12.17.57.57,0,0,1-.18.12,10.64,10.64,0,0,0-3,1.82,13.9,13.9,0,0,0-2.4,2.51,22.62,22.62,0,0,0-1.52,2.44,14.11,14.11,0,0,0-1,2.87,1.21,1.21,0,0,0,0,.38.15.15,0,0,0,.1.09.16.16,0,0,0,.12-.08,4.77,4.77,0,0,1,.26-.66A8.53,8.53,0,0,1,60.36,31c.44-.46.81-1,1.25-1.45s.74-.67,1.11-1a2.08,2.08,0,0,1,.91-.6c.07,0,.18-.13.17-.19s.09-.21.21-.29c.29-.19.55-.45.85-.61s.36-.44.68-.41l-.57.62h0c-.38.26-.85.41-1.06.87a.84.84,0,0,1-.24.22c-.41.35-.83.68-1.22,1-.19.17-.32.42-.51.6a13.94,13.94,0,0,0-1.59,1.93,9,9,0,0,0-1.39,2.89,3.68,3.68,0,0,0,.28,2.06s.05,0,.07,0a1.24,1.24,0,0,0,.1-.31,3,3,0,0,1,0-.59,8.61,8.61,0,0,1,.8-2.47,10.89,10.89,0,0,1,3-3.69c.3-.23.63-.42.95-.62s.73-.44,1.1-.66a.82.82,0,0,1,.17-.11l1.76-.55.21-.07a2.15,2.15,0,0,1-.14.26s-.11,0-.15,0a10.88,10.88,0,0,0-2.86,1.46c-.45.31-.82.74-1.28,1A6.21,6.21,0,0,0,61.5,31.9a8.56,8.56,0,0,0-1.31,2.7A4.41,4.41,0,0,0,60,36.37a.27.27,0,0,0,.11.15s.08,0,.11-.08.08-.15.13-.21a10.85,10.85,0,0,1,2.16-1.84c.65-.4,1.21-.92,1.85-1.34a8.92,8.92,0,0,0,1-.54,6.37,6.37,0,0,1,1.2-.67s.12,0,.18,0-.05.15-.11.18c-.22.15-.47.28-.69.44-.9.63-1.79,1.26-2.68,1.91a17.66,17.66,0,0,0-1.53,1.21A13,13,0,0,0,60.36,37a1.79,1.79,0,0,0-.51,1.43,1.55,1.55,0,0,0,0,.21c.06-.06.14-.1.17-.17.16-.34.28-.7.46-1a2.71,2.71,0,0,1,.63-.89,4.26,4.26,0,0,0,.85-.67c.43-.57,1.21-.68,1.61-1.28.53-.19.86-.66,1.39-.88s.85-.5,1.31-.69a13.68,13.68,0,0,1,3.55-1,6.25,6.25,0,0,0,1.21-.28c.7-.23,1.39-.51,2.1-.77a1,1,0,0,1,.31,0s.06,0,.1.07l-.08.07a.42.42,0,0,1-.13.07l-1.19.34c-.05,0-.08.08-.12.12s.13.07.19.06c.27,0,.54-.15.81-.18.62-.06,1.25-.08,1.87-.12,0,0,.08,0,.11,0a6.75,6.75,0,0,1,1.73-.19,8.24,8.24,0,0,1,2.1.06c.62.1,1.26.11,1.88.25s1.08.31,1.62.47c0,0,.08.08.12.12s-.11.06-.16.06a2.34,2.34,0,0,1-.26,0c-.51-.08-.95-.38-1.48-.43a2.93,2.93,0,0,1-.84-.09,6.28,6.28,0,0,0-1.62-.17,12.82,12.82,0,0,0-2.31.08s-.09,0-.13.06.06,0,.09,0c.33,0,.67.1,1,.11,1,.05,2,.08,3,.11.18,0,.22.07.14.22M87,51.53a7.48,7.48,0,0,0-.21-2.05c-.12-.49-.15-1-.23-1.5a1,1,0,0,0-.11-.39l-.31-1.42a3.8,3.8,0,0,0-.23-.59v0l-.85-2.1a1.54,1.54,0,0,1-.69-.88c-.07-.19-.19-.36-.42-.33a6,6,0,0,0-.7.18c-.83.19-1.6.56-2.45.73s-1.47.24-2.19.4c-.39.09-.79.13-1.17.23s-.79.22-1.19.32c-.6.15-1.2.31-1.81.41a12.34,12.34,0,0,1-2.27.36c-.3,0-.6.17-.9,0A9.5,9.5,0,0,1,69,45a2.32,2.32,0,0,1-1.07-.2,1.23,1.23,0,0,0-.5-.12,3.55,3.55,0,0,1-1.32-.4,15.1,15.1,0,0,1-1.52-.85,8,8,0,0,1-2.45-2.13c-.19-.27-.51,0-.68-.23-.1.09-.23.16-.29.27s-.06.31-.13.44-.19.24-.28.23-.21-.15-.25-.26,0-.29,0-.37a3,3,0,0,0-.49-.44c0,.14,0,.28,0,.42a2,2,0,0,1,0,.49c-.22.62-.46,1.24-.72,1.84s-.2.74.29,1.1a8,8,0,0,1,1.56,1.16c.18.21.38.39.57.58.6.56,1.23,1.08,1.77,1.68s1.24,1.5,1.84,2.26,1.25,1.61,1.87,2.42l.06.11c-.06,0-.15,0-.19,0a12.88,12.88,0,0,1-1-1.05c-.82-1-1.6-2-2.43-2.95-.5-.57-1.08-1.08-1.61-1.63a13.58,13.58,0,0,0-2.08-1.63c-.41-.29-.58-.22-.8.25,0,.09,0,.3-.26.25a.27.27,0,0,1-.25-.34c0-.17.08-.34.11-.51a.2.2,0,0,0-.06-.13.15.15,0,0,0-.14,0,1.27,1.27,0,0,0-.13.22,5.71,5.71,0,0,1-.8,1.16c-.32.32-.29.42-.08.82s.44.92.69,1.36.65,1.06,1,1.59.72,1.32,1.1,2c.52.89,1.07,1.76,1.59,2.64.24.4.45.81.66,1.21a.63.63,0,0,1,0,.19c-.05,0-.12,0-.15-.1-.18-.28-.33-.56-.51-.83l-1.49-2.3c-.88-1.38-1.66-2.82-2.63-4.13l-.31-.41a1.45,1.45,0,0,0,0,.58,9.9,9.9,0,0,1,.32,1.51A9,9,0,0,0,58,52c.24.56.57,1.08.83,1.64.08.17.23.37.07.59,0,0,0,.12,0,.15s.1,0,.12-.09.09,0,.11.05c.11.19.23.38.33.58.28.54.55,1.09.84,1.63a1.24,1.24,0,0,1,.15.65c0,.07.06.21.09.21.37,0,.47.32.64.57.3.46.38,1.09,1,1.33.06,0,.1.11.15.16s.11.15.15.14c.22,0,.32.12.46.23.43.34.85.68,1.3,1s1,.59,1.45.89c.09.06.17.22.24.21.56-.12.87.34,1.28.55a5.75,5.75,0,0,0,1.16.64,9.47,9.47,0,0,1,1.7.81,4.1,4.1,0,0,0,.93.32,1.82,1.82,0,0,1,.4.11c.67.23,1.34.48,2,.69s1.25.35,1.88.51a3.51,3.51,0,0,1,.66.13c.18.1.3.32.45.48s0,0,0,0h.15l-.06-.12-.11-.15c.08,0,.22-.06.25,0a.77.77,0,0,0,.52.22c.34.06.65.31,1,.21.21.34.56.17.84.22.52.09,1,.18,1.53.29a14.49,14.49,0,0,1,1.61.38c.33.12.71,0,1,.3a2.85,2.85,0,0,0,.9.34c.19.07.4.08.6.15s.63.25.94.39.62.25.93.37c.51.19,1.06.28,1.37.81,0,.06.24,0,.36,0a.55.55,0,0,0,0-.28,6.8,6.8,0,0,1-.18-.75c-.08-.89-.2-1.78-.31-2.67s-.13-1.55-.24-2.32-.17-1.53-.22-2.3-.08-1.58-.12-2.37c0-.28.08-.57-.1-.84a.48.48,0,0,1,0-.27,2.68,2.68,0,0,0,.09-.83c0-.28.07-.52,0-.79A11.57,11.57,0,0,1,87.24,55c0-.23,0-.46,0-.69a6.35,6.35,0,0,1,0-.75,7.46,7.46,0,0,1,0-.79c0-.35-.09-.52-.13-.77.11-.12,0-.2-.06-.49M25.37,33.77a.56.56,0,0,1-.18-.07,4.92,4.92,0,0,0-1.82-.93c-.62-.15-1.24-.27-1.85-.45a17.57,17.57,0,0,0-3.93-.86,4.34,4.34,0,0,1-.84-.22c-.05,0-.08-.09-.12-.13s.12-.09.17-.08a10.71,10.71,0,0,0,1.38.12c.83.14,1.65.35,2.47.54s1.49.36,2.24.54c.15,0,.3.07.45.12l1.52.43.22.08c0-.08,0-.19-.08-.22a10.77,10.77,0,0,0-1.08-.73c-.61-.33-1.25-.6-1.87-.91a10.52,10.52,0,0,0-3.68-.94,19.08,19.08,0,0,0-2.92.09,4.38,4.38,0,0,0-.8.17,1.35,1.35,0,0,1-.44.07c0-.24.21-.24.39-.26s.19-.08.29-.09a7.58,7.58,0,0,1,1.83-.23.06.06,0,0,0,.06,0,4.63,4.63,0,0,1,1.89,0,4.38,4.38,0,0,0,.95-.06,2,2,0,0,1,.54,0,7.7,7.7,0,0,1,.95.22,13.4,13.4,0,0,1,1.78.5,12.93,12.93,0,0,0,2.29.71c.67.13,1.35.26,2,.44a5.36,5.36,0,0,1,1.72.65c.2.14.44.23.56.47a1.46,1.46,0,0,1,.07.19,1.45,1.45,0,0,0,.17-.19,2.33,2.33,0,0,0,.14-.33.2.2,0,0,0,0-.15,2.22,2.22,0,0,0-1.18-1c-.4-.13-.77-.34-1.16-.51a6.23,6.23,0,0,0-1.07-.45c-.8-.22-1.61-.4-2.41-.56s-1.61-.26-2.4-.46S19.87,29,19,28.71c-.37-.09-.72-.21-1.08-.33,0,0-.06-.07-.05-.08s.08-.12.11-.11q.3,0,.6.12c.79.17,1.57.35,2.37.51.49.1,1,.17,1.48.27s1.24.28,1.87.39c.91.16,1.83.27,2.73.45a7.87,7.87,0,0,1,2.08.54c.48.25,1.07.37,1,1.1,0,0,0,.06.07.1s.09-.07.11-.12a5.57,5.57,0,0,1,.91-1.49,1.41,1.41,0,0,0,.18-.37.24.24,0,0,0-.07-.37,3.07,3.07,0,0,0-.73-.48c-.7-.26-1.25-.77-1.91-1.09-.49-.24-1-.52-1.44-.77a33.1,33.1,0,0,0-3.12-1.23c-.68-.26-1.37-.51-2.06-.74-.84-.28-1.69-.53-2.53-.81a4.6,4.6,0,0,1-.76-.4s0-.08-.06-.12.07,0,.1,0a1.45,1.45,0,0,1,.3.05l2,.71c.54.19,1.1.35,1.65.53.9.3,1.81.59,2.7.91s1.64.63,2.46,1l1.13.47a11.55,11.55,0,0,1,2.47,1.21c.15.11.35.33.46.3s.26-.3.41-.45.17-.32,0-.49l-.7-.69a3.44,3.44,0,0,0-.27-.27c-.46-.39-1.09-.54-1.5-1-.1-.12-.33-.15-.5-.22l-.23-.1a11.26,11.26,0,0,0-2.5-1c-.36-.13-.71-.23-1.06-.37-.07,0-.09-.17-.13-.26a1.55,1.55,0,0,1,.23.05c.34.11.66.27,1,.35a25,25,0,0,1,3.88,1.24.67.67,0,0,1,.12.06c0-.05,0-.12,0-.15-.18-.22-.35-.45-.54-.65-.49-.5-1-1-1.48-1.47a6.14,6.14,0,0,0-1.33-.88c-.75-.35-1.57-.57-2.31-.93a4.83,4.83,0,0,0-2.2-.35,9,9,0,0,0-2.29.25,9.54,9.54,0,0,1-1.71.28,13,13,0,0,0-1.51.18,8.87,8.87,0,0,1-1,.18c-.62.06-1.14.44-1.75.55a4.48,4.48,0,0,0-.89.23c-.93.38-1.89.65-2.83,1-1.56.59-3.1,1.18-4.61,1.89a26.76,26.76,0,0,1-2.73,1.09A4.18,4.18,0,0,1,2,27.18c-.1,0-.21.09-.32.14a1.38,1.38,0,0,0,.22.26c.12.1.26.17.39.26a16.53,16.53,0,0,1,2.82,2,1,1,0,0,0,.28.23A14.62,14.62,0,0,1,7.76,31.9c.54.49,1,1,1.56,1.55.34.35.83.58,1,1.1,0,0,.08.07.12.1l1.83,1.65c.07.06.1.19.18.22a2.78,2.78,0,0,1,.79.62,4.08,4.08,0,0,0,1.29.72,6.81,6.81,0,0,0,1.4.34c.63.1,1.22.23,1.73-.33a2.81,2.81,0,0,1,.56-.35,3.45,3.45,0,0,0,.28-.26c-.1-.06-.19-.16-.3-.18A5.67,5.67,0,0,0,17,36.87a16.55,16.55,0,0,1-2-.24.26.26,0,0,1-.1,0s.06-.1.09-.11.36-.12.46,0a1.36,1.36,0,0,0,.74.09c.71,0,1.43,0,2.14,0a3.14,3.14,0,0,1,1.22.09c.12.05.31,0,.45-.1a3.84,3.84,0,0,0,1-.45c.17-.15.48.06.5-.23,0-.05-.34-.13-.53-.2-.41-.14-.82-.31-1.24-.43-.73-.2-1.47-.37-2.19-.56-.07,0-.12-.12-.18-.18s.14-.14.22-.14a3.62,3.62,0,0,1,1.14,0c.65.19,1.32.25,2,.42a3,3,0,0,1,1.39.62.57.57,0,0,0,.64.1c.47-.16.92-.33,1.38-.51.07,0,.12-.09.18-.13a.65.65,0,0,0-.17-.08A18.63,18.63,0,0,1,22,34.14a7,7,0,0,0-2.18-.57,21.12,21.12,0,0,1-2.11-.36,2.4,2.4,0,0,1-.69-.32s0-.12,0-.18a.18.18,0,0,1,.14,0,6.9,6.9,0,0,0,2.41.52c.82.1,1.63.24,2.45.36s1.42.18,2.11.34c.3.07.7.09.83.52,0,.06.21.12.32.12a6,6,0,0,0,.71-.15,2.67,2.67,0,0,0,.34-.11A3.84,3.84,0,0,1,26,34.1a3.21,3.21,0,0,0-.58-.33m31.18.94c0,.43.26.77.34,1.18,0,0,.1,0,.16.08a.41.41,0,0,0,0-.19,2.44,2.44,0,0,1-.18-.41,7.08,7.08,0,0,0-.79-1.88,11.42,11.42,0,0,0-.65-1.05c-.45-.62-.91-1.23-1.37-1.85l-.39-.5.57.36a.27.27,0,0,1,.08.07c.4.64,1,1.12,1.39,1.79A16.92,16.92,0,0,1,57.1,35a5.59,5.59,0,0,1,.22.57c.22,1,.42,1.94.66,2.91a19.34,19.34,0,0,0,.71,2.79.28.28,0,0,1,0,.18,4.94,4.94,0,0,0,.14,1.09l.08.23c.05-.07.14-.15.13-.22,0-.48.28-.95,0-1.45a.54.54,0,0,1,0-.43c.21-.37,0-.73,0-1.09a6.2,6.2,0,0,1-.12-.94,3.38,3.38,0,0,0-.36-1.4c-.14-.38-.37-.72-.53-1.1s-.28-.8-.45-1.18a5.18,5.18,0,0,0-.55-1c-.27-.38-.66-.69-.59-1.23a6.36,6.36,0,0,0-1.2-1.87.58.58,0,0,1-.18-.2,10.85,10.85,0,0,0-2-2.36,6,6,0,0,0-1.06-.86,7.88,7.88,0,0,0-1.6-1.05c-.38-.14-.78-.24-1.15-.4A.29.29,0,0,0,49,26c-.37.19-.62.1-.82-.31a.48.48,0,0,0-.57-.25.42.42,0,0,1-.38-.08c-.16-.13-.34-.31-.52-.32a9.22,9.22,0,0,1-1.39-.39c-.17,0-.39-.11-.51,0-.32.2-.56,0-.83-.08a1,1,0,0,0-.48-.15c-.81,0-1.62,0-2.43.07a6.64,6.64,0,0,0-2.22.76c-.67.36-1.39.66-2,1.09-.9.6-1.88,1.08-2.74,1.75a9.8,9.8,0,0,0-2.29,2.68c-.32.5-.59,1-.88,1.55a7.9,7.9,0,0,0-.7,1.19,2.76,2.76,0,0,1-.47.9c-.47.51-.49,1.27-1,1.72A7.84,7.84,0,0,1,28,37.76c-.09.18-.22.34-.32.52s-.09.29-.06.31c.2.11.14-.12.21-.2a1.64,1.64,0,0,0,.16-.26,26.07,26.07,0,0,1,1.79-2A1.28,1.28,0,0,1,30,36c.09,0,.22-.08.26-.15.35-.65,1-.85,1.61-1.16s1-.39,1.49-.63,1-.58,1.49-.79.78-.33,1.16-.52,1-.39,1.46-.6a8.32,8.32,0,0,1,1.78-.46,13.21,13.21,0,0,1,2-.3,2,2,0,0,0,.49,0,5.78,5.78,0,0,1,2.38,0,8.87,8.87,0,0,1,1.41.3,8.11,8.11,0,0,1,1.11.24A10,10,0,0,1,49,33.1a32.28,32.28,0,0,1,3,2.36,12.75,12.75,0,0,1,1.74,1.86s.11,0,.17.08,0-.14,0-.19c-.2-.36-.42-.71-.62-1.06-.42-.75-.84-1.49-1.24-2.24-.3-.54-.57-1.08-.86-1.62-.11-.2-.24-.38-.35-.57a.68.68,0,0,1,0-.15c.05,0,.12,0,.14.06.8,1.08,1.6,2.15,2.37,3.25.56.79,1.11,1.58,1.59,2.42a27.26,27.26,0,0,0,2.21,3.21l.06.08s.05-.06.05-.09a1.69,1.69,0,0,0-.14-.88c-.3-.51-.58-1-.85-1.57s-.5-1.07-.77-1.6-.51-.93-.77-1.39a23.48,23.48,0,0,0-1.57-2.59s0-.15,0-.22.19,0,.23.09c.43.61.89,1.2,1.26,1.84.8,1.37,1.55,2.77,2.32,4.16,0,0-.06.22.11.1s.06-.09,0-.19A20,20,0,0,0,56.46,36a12.59,12.59,0,0,0-.72-2,9.06,9.06,0,0,0-1.24-2,9.21,9.21,0,0,0-2-1.94S52.4,30,52.37,30s.15-.05.19,0a6.25,6.25,0,0,1,.61.38,7.56,7.56,0,0,1,.69.58A9.87,9.87,0,0,1,55,32.05a17.29,17.29,0,0,1,1.58,2.66m-8.74-1.27a4,4,0,0,0-.41-.21c-.4-.15-.8-.27-1.21-.41A8,8,0,0,0,44,32.34a1.45,1.45,0,0,1-.41-.06,6.14,6.14,0,0,0-2.3-.14,12.46,12.46,0,0,0-1.79.32,8.71,8.71,0,0,0-.86.17C37.34,33,36.2,33.69,35,34.19c-.75.31-1.46.73-2.23,1a5.48,5.48,0,0,0-2,1l-.73.62A14.71,14.71,0,0,0,28.79,38c-.76.83-1.49,1.69-2.23,2.54l-.34.39c.23,0,.37-.12.53-.24a9.09,9.09,0,0,1,1.8-1.09,10.75,10.75,0,0,0,1.76-.81,3.54,3.54,0,0,1,.91-.46,20.17,20.17,0,0,1,2.56-.84,5.57,5.57,0,0,1,1.76-.27c.57.08,1.15.16,1.72.22l2.06.22c.82.1,1.61.42,2.45.45,0,0,0,0,0,0a18.31,18.31,0,0,1,2.57.83c.93.39,1.88.76,2.81,1.16.39.17.74.45,1.13.59a3.42,3.42,0,0,1,1.6.8.57.57,0,0,0,.3.19c.82.09,1.35.73,2,1.06a4.38,4.38,0,0,1,.76.54,8.49,8.49,0,0,1,1,.94c.62.72,1.2,1.48,1.8,2.22,0,0,.08.07.11.06s.12-.09.11-.11c-.17-.39.14-.77,0-1.17A5.68,5.68,0,0,1,56,44.5a6.38,6.38,0,0,0-.13-1c-.09-.34-.3-.65-.4-1a4.23,4.23,0,0,0-.34-1c-.19-.3-.21-.66-.43-1-.56-.84-1-1.76-1.64-2.56a17.58,17.58,0,0,0-2.3-2.5c-.24-.2-.51-.37-.76-.54-.71-.5-1.43-1-2.19-1.54m6.76,4-.93-1.59s-.1,0-.16-.08a.68.68,0,0,0,0,.15c.26.5.55,1,.81,1.48.18.34.32.71.51,1,.34.64.71,1.27,1.07,1.92l1.32,2.41c0,.05.1.07.15.1s.07-.12.06-.18-.12-.28-.09-.39a1.64,1.64,0,0,0-.5-1.39,28.5,28.5,0,0,1-2.26-3.48m-28.21-4.9c.5.39,1,.78,1.5,1.16a.49.49,0,0,0,.3.05,3.64,3.64,0,0,1,.72-.09c.26,0,.29-.26.49-.27,0-.06-.07-.18-.1-.18a1.1,1.1,0,0,1-.66-.27,7.61,7.61,0,0,0-.81-.4,12.36,12.36,0,0,1-1.63-.71,3,3,0,0,0-.92-.27s-.1,0-.14,0l.12.06a4.13,4.13,0,0,1,1.13.88m28,19.74a.62.62,0,0,1-.11-.17c0-.2-.06-.41-.11-.61a2.48,2.48,0,0,0-.17-.37,1.22,1.22,0,0,0,0,.42c.13.8.33,1.59.42,2.4a22.1,22.1,0,0,0,.64,2.7c.14.55.31,1.08.47,1.62,0,.05.09.08.14.12s.08-.12.07-.17-.08-.11-.1-.18l-.66-2.8q-.18-.78-.33-1.56c-.08-.43-.15-.86-.22-1.4m2.75-6.92a1.13,1.13,0,0,1-.05.81s0,.08,0,.12a.37.37,0,0,0,.15,0,1,1,0,0,0,.31-.93,1.09,1.09,0,0,1-.07-.24,2.22,2.22,0,0,0-.33-1.63L57,43.35a.48.48,0,0,0,0,.14c0,.26.17.55.09.77a2,2,0,0,0,0,1.12m1.1-2.2c-.23.33.07.66,0,1a.15.15,0,0,0,.09,0,.24.24,0,0,0,.12-.07,2.8,2.8,0,0,0-.06-1.69c0-.07-.1-.11-.15-.17a.87.87,0,0,0-.08.26c0,.17,0,.35.07.63M27.74,34.82c.09.26.47.2.54.49,0,0,.11-.06.11-.08-.06-.28.12-.43.29-.59a.17.17,0,0,0,0-.15.17.17,0,0,0-.13-.05,6.63,6.63,0,0,0-.85.38M41.87,23.44a3.67,3.67,0,0,1-.38-.27c-.15-.15-.28-.32-.42-.48l0,.69a.4.4,0,0,0,0,.16c0,.05.09.12.13.11a2.07,2.07,0,0,0,.69-.21m16,16.22c0-.28-.07-.56-.11-.83,0,0-.06-.07-.1-.11s-.12.09-.11.13c0,.27.07.55.12.82,0,0,.09,0,.2,0m-24-1.76.57-.06s.05,0,.08-.05a.29.29,0,0,0-.11-.11c-.21-.12-.39-.09-.54.22M58,41.31c0,.15.07.3.12.44s.09,0,.14,0,0,0,.07-.07c-.2-.1,0-.45-.33-.42M26.42,39.66l.18.18.12.07a.39.39,0,0,0,0-.15c0-.19-.09-.33-.32-.1M72.88,31.9l-.37.15,0,.07a2.13,2.13,0,0,0,.33-.11s.07-.07,0-.11M57.15,36.74l.08.08a.71.71,0,0,0,0-.2.72.72,0,0,0-.11-.19.55.55,0,0,0,0,.31M88,55.27l0-.14v.4a1.64,1.64,0,0,0,0-.26M42.86,38.61a1.84,1.84,0,0,0,.17.22s0,0,.08,0a.49.49,0,0,0-.25-.19M110.22,63H110a.17.17,0,0,0,.22,0M38.9,20.25l.11.21a.21.21,0,0,0-.11-.21M64.74,35l.15,0s-.08-.08-.09-.07-.24-.12-.06.1M92,24.73l.17-.16M65.9,6.89l0,.13H66c0-.06,0-.12-.09-.12M52.76,43.45l.13,0v-.07c-.06,0-.12,0-.12.1m5.55-19.52,0-.14-.07,0c0,.06,0,.12.1.12M87.89,59.78l.11-.05s-.07,0-.11.05m-3.3-17.37.18,0,0-.07a.26.26,0,0,0-.2,0m25.63,21,.11,0s-.08,0-.11,0M69.2,41l.17,0,0-.07a.24.24,0,0,0-.19,0M57,36.08c0,.06,0,.12,0,.18l.07,0a.26.26,0,0,0,0-.2M32,38.67l0,.14.07,0c0-.06,0-.12-.09-.12m43.38-7.21-.14,0,0,.07c.06,0,.12,0,.12-.1M32.3,38.17l.06.11s0-.07-.06-.11m4.29-.33-.06-.11s0,.08.06.11M57.54,51.2l-.07,0s0,.07.07,0m47.89-.05,0-.07s-.07,0,0,.07m.83,1.26.06.05s0-.07-.06-.05M105.16,51l-.07,0s0,.07.07,0M7.83,53.07l-.06,0s0,.07.06,0M74.58,31.74l.07,0s0-.06-.07,0M29,16.07l.05-.07s-.07,0-.05.07m74.67,32.22,0,.07s.06,0,0-.07m-.6-.38.06,0s0-.07-.06,0M108,55.55l.05-.07s-.07,0-.05.07M67.66,9.2l-.07,0s0,.07.07,0M57.37,37.29l.05-.06s-.07,0-.05.06M109,58l-.07,0s0,.06.07,0M79.31,43l-.06-.05s0,.07.06.05M27.41,11.72l.06,0s0-.07-.06,0m39.81,8.8.06.05s0-.07-.06-.05m.66-.22-.07,0s0,.06.07,0M88.11,61.21l.07,0s0-.07-.07,0m21.45.44.06.05s0-.07-.06-.05m-21.45.11.07.05s0-.07-.07-.05m-5.5-19.57.07,0s0-.07-.07,0M28.29,12.93l-.07,0s0,.07.07,0M88.44,64l-.06,0s0,.06.06,0M72.28,40.54l-.07,0s0,.07.07,0m38.6,25.29-.07,0s0,.06.07,0m.22.33-.07,0s0,.06.07,0m-80.72-27,.06,0s0-.06-.06,0m8.13-19.25.07.05s0-.07-.07-.05M13,67.32l0,.06s.07,0,0-.06m27.82-29,0-.06s-.06,0,0,.06M33.29,38l0-.06s-.06,0,0,.06M85.58,68.8l.07,0s0-.06-.07,0M35.93,15.52l0,.06s.06,0,0-.06m-6.1,33.24a3.07,3.07,0,0,0,.2-.41,13,13,0,0,1,1-2c0-.07.05-.15.08-.22a.85.85,0,0,0-.23,0,16.09,16.09,0,0,0-2.36,1.48l-1.3,1-1.95,1.52c-.49.37-1,.74-1.46,1.13s-.66.6-1,.89c-.65.55-1.3,1.1-2,1.62a8,8,0,0,1-.87.56l-.16.07c0-.07,0-.15.06-.19l1-.82c.3-.23.63-.45.92-.7s.84-.78,1.28-1.16c.72-.63,1.48-1.22,2.18-1.88.46-.42.94-.82,1.43-1.2a25.79,25.79,0,0,1,2.54-2l.12-.11c-.07,0-.15-.07-.2,0l-1.34.47A11.8,11.8,0,0,0,25.6,48c-.72.47-1.37,1.05-2.05,1.58s-1.37,1-2,1.6c-.35.29-.64.65-1,1s-.59.51-.88.78l-1.39,1.27c-.19.17-.38.32-.58.47a.64.64,0,0,1-.19.08c0-.08,0-.21,0-.25.39-.35.78-.68,1.18-1,.06-.06.15-.1.2-.16a6.54,6.54,0,0,1,1.31-1.21c.29-.24.54-.54.82-.8s.41-.34.61-.51c.73-.62,1.45-1.25,2.19-1.85.34-.27.71-.49,1.07-.75l.57-.45L26,47.3a14.61,14.61,0,0,1,1.31-1c.47-.27,1-.47,1.46-.72.75-.41,1.63-.38,2.37-.8.11-.07.27,0,.4-.09.53-.2.53-.21.9-.75a.6.6,0,0,1,.09-.13c.73-.83,1.37-1.74,2.07-2.59a3.56,3.56,0,0,1,1.23-1.11S35.93,40,36,40a.6.6,0,0,0-.19,0,15.5,15.5,0,0,0-2.63,1.62,24.16,24.16,0,0,1-2.75,2c-.28.19-.53.41-.8.61-.83.65-1.64,1.33-2.5,1.93-.44.31-.87.64-1.3,1-.6.48-1.22.94-1.83,1.41s-1.29,1-1.92,1.48-.95.8-1.43,1.2L18,53.38l-1.43,1.21c-.34.28-.69.55-1,.81,0,0-.1,0-.15,0s0-.12.06-.15L16.93,54c.31-.26.64-.49.95-.76L20.46,51c.64-.54,1.28-1.07,1.93-1.59,1-.76,1.94-1.5,2.91-2.26S27.11,45.69,28,45c.69-.54,1.41-1,2.1-1.56s1.12-.92,1.7-1.36,1.19-.81,1.71-1.3a17.86,17.86,0,0,1,1.73-1.27,1.57,1.57,0,0,1,1.19-.41,1.37,1.37,0,0,0,1.23-.28c.37-.29.81,0,1.15-.29,0,0,.18.08.2.15a.34.34,0,0,1,0,.28,1,1,0,0,1-.34.22,7.23,7.23,0,0,0-2.4,1.66,18.23,18.23,0,0,0-1.38,1.4c-.85,1.05-1.67,2.14-2.42,3.28-.31.47-.54,1-.84,1.47a19.47,19.47,0,0,0-1,2.11,8.76,8.76,0,0,0-.4.88,6.54,6.54,0,0,0-.26,1c-.18,1-.56,1.91-.67,2.91a12.79,12.79,0,0,1-.36,1.45,3.4,3.4,0,0,0-.07.46c0,.35.07.72-.19,1a.26.26,0,0,0,0,.21c.22.45-.05.9,0,1.34s0,.82,0,1.23,0,.84,0,1.26,0,.73.05,1.1c0,.11,0,.22,0,.33s0,.1,0,.15c0,.56.08,1.13.15,1.7,0,.27.13.53.17.8a.54.54,0,0,0,.17.43.35.35,0,0,1,.05.25c0,.13-.05.25-.07.38.19,0,.13.19.2.29a13.22,13.22,0,0,1,1,2.1,11.26,11.26,0,0,0,1,1.85c.29.44.6.88.85,1.35a13,13,0,0,0,.89,1.34,28.17,28.17,0,0,1,2.32,4.2c.4.9.67,1.85,1.07,2.75A17.87,17.87,0,0,1,37.21,82c.16.57.36,1.13.53,1.7s.37,1.2.55,1.8a.83.83,0,0,1,0,.15c.05,0,.13-.07.15-.12a17.67,17.67,0,0,1,2.08-3.37,15.84,15.84,0,0,1,1.35-1.37c.66-.71,1.27-1.46,2-2.15s1.14-1,1.72-1.54,1-.79,1.43-1.19,1.09-.88,1.58-1.37a4.08,4.08,0,0,0,.92-1.76c.07-.23.14-.46.23-.68a10.56,10.56,0,0,1,.73-.78c.05.09-.4.82-.42.89a6.49,6.49,0,0,1-.58,2.12,2,2,0,0,0-.18.32,2.41,2.41,0,0,1-1,1.17c-.46.33-.87.73-1.32,1.08a45.16,45.16,0,0,0-3.83,3.62c-.16.16-.28.36-.43.54-.32.36-.63.73-1,1.07a12.68,12.68,0,0,0-1.58,1.93,9.66,9.66,0,0,0-1,2c-.12.36-.45.64-.57,1-.06.19-.26.36-.27.54,0,.34-.29.45-.47.63a.31.31,0,0,1-.51-.19,1.16,1.16,0,0,1,0-.64,1.93,1.93,0,0,0,.09-.74,10.5,10.5,0,0,0-.68-4.07c-.26-.94-.71-1.8-1-2.73a20.89,20.89,0,0,0-1.56-3.64c-.34-.67-.77-1.3-1.16-1.94-.53-.88-1.16-1.69-1.72-2.54a8.2,8.2,0,0,0-1.07-1.48,1.44,1.44,0,0,1-.27-.6,13.07,13.07,0,0,0-.74-1.56,17.55,17.55,0,0,1-.82-2.41c-.07-.27-.1-.54-.16-.81-.13-.57-.27-1.14-.39-1.71a6.21,6.21,0,0,1,0-.74c-.09-1.06-.1-2.13-.13-3.19,0-.43-.08-.5-.41-.28s-.62.45-.92.69c-.58.47-1.18.91-1.73,1.41s-1,1.08-1.6,1.58S21.7,63.84,21,64.42a.92.92,0,0,1-.32.14.53.53,0,0,1-.2,0l.11-.11.39-.28a12.08,12.08,0,0,0,2-1.81c.83-.88,1.71-1.71,2.56-2.57a11.5,11.5,0,0,1,2-1.68c.22-.14.23-.41.27-.65s-.14-.72.18-1c.09-.08,0-.38-.07-.59a.82.82,0,0,1,.18-.58,1.24,1.24,0,0,0,.1-.2l-.19.07a2.36,2.36,0,0,0-.6.28c-.43.38-1,.51-1.43.95a6.75,6.75,0,0,1-1.09.79c-.24.17-.5.32-.72.51-.38.31-.72.65-1.09,1-.61.51-1.26,1-1.84,1.52a21.75,21.75,0,0,1-2,1.51c-.21.16-.43.29-.65.43a.12.12,0,0,1-.15-.17,2.53,2.53,0,0,1,.42-.31A12.3,12.3,0,0,0,21.08,60c.74-.68,1.48-1.36,2.24-2,.58-.49,1.18-1,1.77-1.44.29-.24.56-.5.85-.73.45-.36.91-.72,1.38-1,.22-.16.49-.24.72-.38s.23-.15.23-.23a.92.92,0,0,1,.26-.62.13.13,0,0,0,0-.11c-.24-.52.18-.91.26-1.37,0-.07.05-.15,0-.2s-.17,0-.23,0a4.72,4.72,0,0,0-.53.33,23.15,23.15,0,0,0-2.28,1.69,7.3,7.3,0,0,1-1.78,1.39c-.06,0-.1.1-.15.15-.52.48-1,1-1.56,1.44-1,.86-2.05,1.68-3.07,2.53-.33.28-.63.58-1,.85-.64.52-1.3,1-1.95,1.52-.13.09-.25.19-.38.27a.58.58,0,0,1-.19,0c0-.06,0-.15,0-.18a1.79,1.79,0,0,1,.54-.42,4.44,4.44,0,0,0,1.17-.88c.79-.61,1.53-1.28,2.28-1.93.52-.44,1-.87,1.54-1.33,1-.88,1.91-1.81,2.92-2.67.74-.62,1.44-1.3,2.16-1.94A11.73,11.73,0,0,1,28.51,51c.11-.06.22-.1.32-.16s.29-.16.32-.27a6.8,6.8,0,0,1,.67-1.65s0-.08,0-.14m-1.43,10-.07,0s0,.06.07,0m.05,3.47.05-.07S28.43,62.2,28.45,62.26Zm18,2c0,.14,0,.3,0,.35.34.3.28.73.42,1.1a2.21,2.21,0,0,0,.18.42c.23.38.4.78.6,1.18s.41.86.67,1.26a6.61,6.61,0,0,0,.64.66c.33.39.62.83,1,1.18a15,15,0,0,0,1.31,1.08,5.42,5.42,0,0,0,1.36.84l.41.19c.85.4,1.65.89,2.46,1.36.33.19.65.38,1,.59s.37.25.55.38.17.24.28.26c.51.12.65.59.93.93s.65.78.95,1.2a6,6,0,0,1,.5.89c.36.79.63,1.61,1.06,2.36a5.15,5.15,0,0,0,.68,1.21,7.78,7.78,0,0,1,.59.68,3.41,3.41,0,0,1,.3.44l.21-.6c.31-.88.4-1.83.77-2.7.11-.28.21-.57.33-.86a18.32,18.32,0,0,1,2-3.48,17.57,17.57,0,0,0,2.14-3.45,10.2,10.2,0,0,0,.86-2.45,1,1,0,0,1,.11-.28,13.15,13.15,0,0,0,.55-2.47,12.14,12.14,0,0,1,.36-1.17.15.15,0,0,1,.08-.08s.09-.06.14,0,.62-.72.63-.68c0,.2-.52,1.2-.57,1.39a1.75,1.75,0,0,0,.09,1.31,1.68,1.68,0,0,1-.08.82,8.83,8.83,0,0,0-.55,2,.37.37,0,0,1-.2,0S69,70,69,70s-.07.17,0,.2c.25.29.07.59,0,.84a16.62,16.62,0,0,1-1.84,3.52c-.25.34-.48.68-.71,1a9.7,9.7,0,0,0-1.49,2.57c-.46.45-.45,1.14-.84,1.63a.15.15,0,0,0,0,.09,21.65,21.65,0,0,1-.68,2.75,16,16,0,0,1-.63,1.71.34.34,0,0,1-.38.27.37.37,0,0,1-.41-.24c-.3-.6-.65-1.17-1-1.74-.1-.16-.22-.31-.33-.47a10.49,10.49,0,0,1-1.1-2.29,7.83,7.83,0,0,0-1.33-2.48c-.21-.25-.39-.53-.59-.8a1.82,1.82,0,0,0-.31-.31c-.83-.56-1.64-1.14-2.5-1.67a20.85,20.85,0,0,0-2.52-1.33,6.85,6.85,0,0,1-1.73-1.12c-.43-.39-.81-.84-1.24-1.22A8.22,8.22,0,0,1,48,69.4a15.25,15.25,0,0,1-1.2-2A12.66,12.66,0,0,1,46,65.63a2.74,2.74,0,0,1-.35-1.18.79.79,0,0,0-.11-.39,2.67,2.67,0,0,1-.21-1.31s0-.08,0-.11c-.35-.65-.2-1.43-.53-2.09a.72.72,0,0,1,0-.48c0-.15-.11-.23,0-.42a1.09,1.09,0,0,0-.09-.76,3.57,3.57,0,0,1-.1-1.17c0-.81,0-1.62-.13-2.42a8.47,8.47,0,0,1-.08-1.23c0-.35.08-.71.1-1.07s0-.77,0-1.15.06-.78.1-1.17c0-.21.22-.36.13-.64a2,2,0,0,1,.09-.71c0-.25.07-.49.11-.73a.41.41,0,0,1,0-.09c.33-.35.26-.78.3-1.2a1.84,1.84,0,0,1,.26-.87,5.88,5.88,0,0,0,.38-.95c.11-.23.1-.52.35-.68,0,0,.07-.05.07-.08.05-.65.55-1.09.8-1.65A2.79,2.79,0,0,1,48.31,42c.18-.11.7.21.64.38s-.25.42-.38.43-.27.18-.37.29a4.37,4.37,0,0,0-.82,1.25,7.07,7.07,0,0,1-.43.76,1.19,1.19,0,0,0-.2.58,1,1,0,0,1-.21.4A4.7,4.7,0,0,0,46,47.87c0,.25-.27.37-.25.61s0,.44-.17.6c-.05,0,0,.16-.05.25a8.59,8.59,0,0,1-.21,2c0,.14-.07.36,0,.43s0,.32,0,.47-.19.31-.15.37c.17.25-.06.21-.15.28s0,.17,0,.17c.23,0,.16.17.15.27a6.75,6.75,0,0,0-.08,1.18,7.05,7.05,0,0,0,.08,2.29.74.74,0,0,1,0,.21,17.84,17.84,0,0,0,.13,2.32,14.6,14.6,0,0,0,.47,2.44,3.86,3.86,0,0,1,.17,1,4,4,0,0,0,.41,1.57m-4-20.81c-.33.42-.69.82-1,1.27-.63,1-1.22,2-1.83,2.92L38,50.17a1.06,1.06,0,0,1-.16.21h-.11s0-.08,0-.11a3.56,3.56,0,0,1,.39-.72c.72-.89,1.15-2,1.84-2.87.52-.69.88-1.5,1.34-2.24a9.42,9.42,0,0,0,.56-1,6.25,6.25,0,0,1,.76-1.11c.44-.57.9-1.13,1.36-1.68a.94.94,0,0,1,1.43-.14c.09.07.23.07.34.13a.68.68,0,0,1,.27.2.49.49,0,0,0,.42.23.8.8,0,0,1,.73.22c.08.09.12.17,0,.23a2.57,2.57,0,0,0-1.08.69,22.34,22.34,0,0,0-1.55,1.68c-.65.86-1.25,1.78-1.83,2.7S41.54,48.36,41,49.28c-.21.35-.41.7-.6,1.06l-1.34,2.53a9.74,9.74,0,0,0-.55,1.48c-.27.81-.42,1.65-.65,2.47s-.37,1.68-.68,2.47c-.2.54-.23,1.1-.4,1.64s-.22,1.09-.35,1.62-.31,1.16-.43,1.75a9.78,9.78,0,0,1-.1,1,7.59,7.59,0,0,0-.13,1.27c0,.24-.07.48-.1.73a1.87,1.87,0,0,1-.1.73c-.07.12,0,.32,0,.48,0,.85,0,1.69,0,2.53,0,.41.07.82.1,1.22,0,.06-.09.12-.13.17s-.08-.1-.08-.16a34.09,34.09,0,0,1-.1-4.63,3.54,3.54,0,0,1,.24-1.23s0-.11,0-.16c0-.22,0-.44.05-.66s.08-.7.14-1,.13-.85.22-1.28a12.66,12.66,0,0,0,.31-1.46,13.61,13.61,0,0,1,.42-1.7c.09-.44.15-.89.26-1.32s.29-1,.43-1.47A4.35,4.35,0,0,1,38,55.93c0-.06,0-.17,0-.27a4.8,4.8,0,0,1,.3-1.37,20.7,20.7,0,0,0,.92-3.09.39.39,0,0,1,.08-.19c.42-.7.54-1.53.9-2.26a13.68,13.68,0,0,0,.64-1.6c.33-1,.87-1.92,1.23-2.9.1-.26.38-.42.36-.77a.58.58,0,0,0,0-.13l-.07.1m-.82,3c-.16.3-.33.6-.46.91-.25.55-.46,1.12-.71,1.68-.31.73-.65,1.45-1,2.18a2.53,2.53,0,0,0-.12.56s0,.1,0,.15l.07-.15c.26-.51.5-1,.78-1.54.62-1.11,1.27-2.22,1.9-3.33.25-.44.47-.9.74-1.34s.6-.88.87-1.34a11.27,11.27,0,0,1,1.76-2.35,3,3,0,0,0,.31-.31s0-.09,0-.14a.31.31,0,0,0-.12.05c-.48.33-1,.64-1.44,1a2.84,2.84,0,0,0-.71.91c-.16.36-.49.54-.7.84a10.43,10.43,0,0,1-.62,1.08c-.21.25-.3.62-.56.86,0,0,0,.14-.06.27m3-5.5a1.14,1.14,0,0,0-.15.16.78.78,0,0,0-.1.15.63.63,0,0,0,.19,0c.23-.12.47-.25.7-.39,0,0,0-.11.07-.17s-.14,0-.19,0A2.56,2.56,0,0,1,44.51,40.92Zm5.22,7.26c0,.48.11.92-.11,1.33.25.35,0,.72,0,1.09a17.36,17.36,0,0,1-.06,2.28c0,.18,0,.36,0,.53,0,.68,0,1.36,0,2s0,1.63.13,2.43a11,11,0,0,1,.09,1.27.44.44,0,0,1-.05.15l-.06-.14c0-.08-.1-.15-.1-.23-.05-.48,0-1-.13-1.44a9.12,9.12,0,0,0-.2-1.56,1.29,1.29,0,0,1,0-.44c0-2.93,0-5.86,0-8.79a11.78,11.78,0,0,1,.32-2.77c.11-.44.57-.79.92-.68.11,0,.26.15.27.24s0,.34-.12.37c-.45.15-.42.57-.51.89-.15.55-.2,1.12-.35,1.67A8.52,8.52,0,0,0,49.73,48.18ZM35.24,50.27a8.6,8.6,0,0,1,.44-.85c.42-.69.85-1.37,1.28-2.05s.84-1.27,1.24-1.91a8.43,8.43,0,0,1,.56-1c.36-.42.43-1,.8-1.38s.67-.82,1-1.22.61-.7.93-1a1.53,1.53,0,0,1,.9-.48,5.29,5.29,0,0,0,.83-.26c.06,0,.14-.06.18,0s.29.16.35.29-.12.24-.23.32A2.17,2.17,0,0,1,43,41a3.67,3.67,0,0,0-1.51,1.33A17.13,17.13,0,0,1,40,44.1a.44.44,0,0,1-.15.08c0-.06,0-.14,0-.18.21-.3.43-.59.66-.89,0,0,.13-.09.15-.15s.11-.44.06-.47c-.24-.12-.21.18-.28.27a30.35,30.35,0,0,0-2,2.59c-.67,1.07-1.39,2.1-2.05,3.17A10.49,10.49,0,0,1,35.24,50.27ZM51.6,52.69a5.49,5.49,0,0,1-.11-1.49c0-1.25-.06-2.5-.12-3.75,0-.46-.12-.91-.15-1.36a12.64,12.64,0,0,1,0-1.37,1,1,0,0,1,.34-.8c.2-.17.41-.16.52.09a4.43,4.43,0,0,1,.23.73s0,.09,0,.1c-.49.34-.35.87-.43,1.35a20.73,20.73,0,0,0-.09,3.15c0,.37.1.75.09,1.13s0,.63,0,1,0,.66,0,1c0,.83,0,1.66.13,2.48.07.5,0,1,.1,1.5.11.86.16,1.73.24,2.6,0,.5.05,1,.08,1.5,0,0,0,.07-.07.1l0-.09c-.07-.52-.15-1-.22-1.56a24.73,24.73,0,0,1-.28-2.56c0-.8-.4-1.61-.06-2.42C51.47,53.57,51.66,53.15,51.6,52.69Zm-21.77-4a6.29,6.29,0,0,1-1.34.79A21,21,0,0,0,26.26,51c-.63.56-1.31,1.08-2,1.64-.34.3-.63.66-1,1-.92.81-1.85,1.61-2.71,2.48-.53.53-1.12,1-1.7,1.48-.4.35-.81.68-1.23,1a.42.42,0,0,1-.19.09c0-.08,0-.2,0-.25.23-.22.48-.42.73-.62s.66-.48.95-.75c.67-.61,1.32-1.23,2-1.85,1.12-1.08,2.22-2.16,3.34-3.23.74-.69,1.48-1.37,2.25-2,.59-.49,1.22-.93,1.83-1.4a1.44,1.44,0,0,1,.6-.28C29.78,48.13,29.8,48.12,29.83,48.7ZM42,53.24c.06-.29.15-.59.24-.88l.28-.81c0-.13.06-.27.11-.4.4-1,.81-2,1.21-3a9.1,9.1,0,0,0,.41-1.14A19.34,19.34,0,0,1,45,45.19a10,10,0,0,1,.77-1.66,6.68,6.68,0,0,1,1.1-1.68.62.62,0,0,1,.76-.11c.16.13.15.26,0,.34-.59.3-.84.88-1.2,1.37a18.94,18.94,0,0,0-1.91,3.65,46,46,0,0,0-2,5A5.57,5.57,0,0,1,42,53.24ZM59.77,22a6.27,6.27,0,0,0,.07-1,14.51,14.51,0,0,1,.46-2.79s.06-.08.1-.12l.16-.14c0,.06.07.14,0,.19a13.63,13.63,0,0,0-.19,4,6.47,6.47,0,0,0,.41,2.37c0,.1,0,.24,0,.36l-.34-.07a.52.52,0,0,1-.41-.54c0-.43-.19-.84-.25-1.27S59.8,22.36,59.77,22Zm3.63-3.4c-.07,1-.1,1.89-.15,2.82,0,.28-.07.56-.1.84s-.17.4-.37.38-.3-.26-.29-.47.07-.52.11-.78c.07-.46.13-.92.22-1.38s.25-1.18.37-1.76c0-.19,0-.39.07-.58a.22.22,0,0,1,.1-.09s.11.05.11.08C63.46,18,63.44,18.3,63.4,18.63Zm-7.4,36a5.12,5.12,0,0,1-.11-1.49.58.58,0,0,1,.09-.29s.11-.07.18-.08.05.08.06.12a1.62,1.62,0,0,1,0,.22,11.27,11.27,0,0,0,.39,2.31c.16.58.26,1.17.38,1.76a5.48,5.48,0,0,1,.1.56c0,.06-.07.13-.11.19a1.3,1.3,0,0,1-.1-.15l-.66-2.47C56.16,55.13,56.07,54.93,56,54.67Zm-43.3,4.4a.83.83,0,0,1,.48-.76c.3-.15.49-.43.79-.58s.49-.48.77-.66c.64-.42,1-1.13,1.75-1.45.11,0,.16-.23.25-.33a1.14,1.14,0,0,1,.3-.18s.07,0,.1,0,0,.09,0,.11l-1.43,1.3c-.1.08-.21.13-.3.21a17,17,0,0,1-2.14,1.83A5.91,5.91,0,0,0,12.7,59.07Zm5.72-9a.45.45,0,0,1,.09-.28c.29-.24.6-.47.91-.69,0,0,.1,0,.15,0a.45.45,0,0,1-.06.12C19.16,49.48,18.8,49.77,18.42,50.05ZM34,52c.12-.27.26-.54.4-.81a.24.24,0,0,1,.08-.06c0,.06.06.15,0,.19A4.72,4.72,0,0,1,34,52Zm-21.39,7a4,4,0,0,1-.39.46s-.11.06-.17.09,0-.13,0-.19C12.17,59.15,12.42,59.15,12.64,59.07Zm5.72-9s0,.05,0,.05l-.53.36s0,0,0,0C17.89,50.13,18.14,50.13,18.36,50.05Zm16.83.22c0,.24,0,.48-.34.55l0,0A4.36,4.36,0,0,1,35.19,50.27Zm2.14.58c.2.2,0,.32-.13.45s-.07,0-.11,0,0-.08,0-.1A2.85,2.85,0,0,1,37.33,50.85ZM20,48.81a1.66,1.66,0,0,1-.25.14,1.63,1.63,0,0,1,.09-.19.29.29,0,0,1,.11-.11,1.11,1.11,0,0,1,.19-.09ZM10.83,60.5a.07.07,0,0,1,0-.09l.33-.13a.17.17,0,0,1,.06.06A.36.36,0,0,1,10.83,60.5ZM34,52a.21.21,0,0,1,0,.1A.14.14,0,0,1,34,52ZM10.77,60.5a.13.13,0,0,1,0,.1A.13.13,0,0,1,10.77,60.5Zm73.93-28c-.37,0-.54-.34-.8-.54a10.2,10.2,0,0,0-2.76-1.43c-.2-.06-.49,0-.59-.29.21,0,.43.08.63.14a8.17,8.17,0,0,1,1.21.4,7.25,7.25,0,0,1,1.23.73A11,11,0,0,1,84.7,32.54ZM79.2,30c.37,0,.69.07,1,.12,0,0,.07.09.1.14s-.09.08-.12.07a3.65,3.65,0,0,0-1.39-.22c-.06,0-.12-.06-.18-.09L78.55,30s.07,0,.1,0ZM80,32a2.73,2.73,0,0,1,1.5.08l.14.05s-.11.07-.17.06c-.25,0-.52.08-.77-.09s-.31,0-.47,0A.47.47,0,0,1,80,32Zm4.73.55s.08,0,.09,0,.09.22.13.33-.06.06-.06.06A.35.35,0,0,1,84.7,32.59ZM71,40.92s0-.05,0-.05l.5,0,0,.08Zm5.83-11a1.45,1.45,0,0,1,.35,0,.7.7,0,0,1,.17.06s-.1.05-.14,0A1.12,1.12,0,0,1,76.81,30ZM61.2,43.42a.52.52,0,0,0-.23.06l.14.08c.21.07.42.14.63.19A5.67,5.67,0,0,1,64,45.05a19.88,19.88,0,0,1,1.78,1.66c.48.5.91,1,1.36,1.58a.59.59,0,0,1,.12.22.14.14,0,0,1,0,.11.12.12,0,0,1-.1,0,2.61,2.61,0,0,1-.24-.23c-.49-.53-1-1.07-1.48-1.58a8.67,8.67,0,0,0-1-.86c-.46-.34-1-.61-1.4-1a4.37,4.37,0,0,0-1.51-.61,3.32,3.32,0,0,0-1-.12,1.71,1.71,0,0,0-.5.1c-.21.05-.56-.09-.6-.27s-.07-.43.24-.51.19-.27.19-.45c0-.36.16-.5.51-.53s.44-.09.67-.11a10.29,10.29,0,0,1,1.47.27,4.27,4.27,0,0,1,1.15.43,5.63,5.63,0,0,1,1,.68c.41.25.84.45,1.24.72a15.46,15.46,0,0,1,1.38,1,18.89,18.89,0,0,1,1.89,1.68,23.27,23.27,0,0,1,2.31,2.82c.55.81,1.2,1.55,1.77,2.35a10.69,10.69,0,0,1,1,1.4c.2.38.56.68.8,1s.47.9.73,1.34a2.86,2.86,0,0,0,.67,1,.2.2,0,0,1,.08.08c.31,1,1,1.77,1.4,2.72l0,0a.33.33,0,0,1-.07.17s-.11,0-.13-.05-.08-.19-.12-.28a15.76,15.76,0,0,0-1-1.77c-.2-.34-.39-.68-.6-1a4.59,4.59,0,0,1-.57-1c-.08-.26-.34-.45-.51-.67-.5-.68-1-1.36-1.48-2a23.67,23.67,0,0,1-1.49-2c-.28-.46-.75-.78-.93-1.31-.06-.17-.28-.28-.41-.44s-.41-.37-.42-.57-.3-.34-.41-.54-.56-.49-.82-.76-.49-.29-.35-.65c0,0-.12-.16-.18-.16-.52,0-.74-.47-1.08-.71a14.41,14.41,0,0,0-1.64-1.33c-.6-.32-1.25-.54-1.83-.89a3.92,3.92,0,0,0-1-.48,6.2,6.2,0,0,0-1.74-.26m13,10.86a.19.19,0,0,1,.11.11,1.72,1.72,0,0,1,.22.33,1.72,1.72,0,0,1,.22.33h.11a.22.22,0,0,1-.11-.12,2.08,2.08,0,0,1-.22-.33,2.08,2.08,0,0,1-.22-.33.19.19,0,0,1-.11-.11,1.67,1.67,0,0,0-.12-.16l-.08,0a.81.81,0,0,0,.12.14s.06,0,.08.09m-.87-1.21,0,.14.07,0a.63.63,0,0,1-.1-.23c-.22-.27-.44-.55-.66-.88l-.54-.75s-.08,0-.12,0,0,.08,0,.1c.21.25.44.49.66.78a1.67,1.67,0,0,0,.66.88m.33.33-.08,0s0,0,0,0a2.2,2.2,0,0,0,.15.26.75.75,0,0,0,.15.09,1.42,1.42,0,0,0-.07-.22s0-.06-.12-.14m-3.3-4.17.06,0S70.46,49.2,70.41,49.23ZM60.26,49c-.3-.34-.55-.67-.85-.95a2.07,2.07,0,0,0-1.23-.74.41.41,0,0,1-.37-.53c.13-.31.34-.38.68-.23a2.54,2.54,0,0,1,1.15.93c.64.95,1.36,1.85,2,2.8.81,1.2,1.56,2.43,2.33,3.65a1.94,1.94,0,0,1,.17.42c0,.11,0,.22.07.32-.09-.08-.22-.14-.27-.24-.53-1.08-1.31-2-1.9-3A12.5,12.5,0,0,0,61,50C60.78,49.64,60.53,49.32,60.26,49ZM27.71,28.52c-.23-.08-.43-.11-.62-.18a13.1,13.1,0,0,0-2.21-.51c-.94-.17-1.87-.39-2.8-.53A3,3,0,0,1,21,27a.68.68,0,0,1-.12-.12.39.39,0,0,1,.14,0,1.84,1.84,0,0,1,.41.06,12.79,12.79,0,0,0,1.94.38c.63.08,1.26.28,1.89.31a13,13,0,0,1,2.17.38,5.39,5.39,0,0,1,2.18.71,5.39,5.39,0,0,0,.6.25.88.88,0,0,1,.41,1.31c-.12.15-.3.17-.33,0-.12-.52-.55-.67-.95-.87S28.28,28.83,27.71,28.52ZM13.36,30.61c.23-.1.43-.17.64-.24,0,0,.06,0,.09,0s-.06.1-.09.11A3.93,3.93,0,0,1,13.36,30.61Zm5.66-1s0,0,0-.07A.06.06,0,0,1,19,29.57Z"/></g></g></svg>