<svg xmlns="http://www.w3.org/2000/svg" xmlns:xlink="http://www.w3.org/1999/xlink" viewBox="0 0 92.46 82.84"><defs><style>.cls-1{fill:#fff;}.cls-2{fill:url(#radial-gradient);}.cls-3{fill:url(#radial-gradient-2);}</style><radialGradient id="radial-gradient" cx="46.08" cy="41.42" r="43.89" gradientUnits="userSpaceOnUse"><stop offset="0" stop-color="#ff2c34"/><stop offset="0.19" stop-color="#ff3136"/><stop offset="0.42" stop-color="#ff413c"/><stop offset="0.69" stop-color="#ff5b45"/><stop offset="0.97" stop-color="#ff7e52"/><stop offset="1" stop-color="#ff8354"/></radialGradient><radialGradient id="radial-gradient-2" cx="45.1" cy="47.05" fy="39.935623542546494" r="12.59" gradientTransform="matrix(-1, 0.04, -0.05, -1.38, 92.54, 110.32)" xlink:href="#radial-gradient"/></defs><title>orchid-phalaenopsis-top</title><g id="Layer_2" data-name="Layer 2"><g id="orchid-phalaenopsis-top"><path id="void" class="cls-1" d="M91.77,39.44C89.69,32,83.31,26.68,77.18,22c-2.85-2.21-5.79-4.42-9.19-5.62S60.6,15.06,57.56,17A16.7,16.7,0,0,0,43.59.09a5.44,5.44,0,0,0-2.75.19A6.28,6.28,0,0,0,39,1.64a45.18,45.18,0,0,0-7.19,7.83,15.2,15.2,0,0,0-2.82,10,11.19,11.19,0,0,0-8.41-.68A23.15,23.15,0,0,0,13,23C9.57,25.57,4,31.35,2.81,35.47A21,21,0,0,0,1.4,53.56,26.65,26.65,0,0,0,13.81,67.31a16.19,16.19,0,0,0-.64,7.44,2.19,2.19,0,0,0,.35,1.06,2.37,2.37,0,0,0,1.24.68,22.52,22.52,0,0,0,18.47-3.11,21.06,21.06,0,0,0,6.31-6.47,6.71,6.71,0,0,0,11.68.15A28.9,28.9,0,0,0,63.85,81.22a11.28,11.28,0,0,0,4.77,1.61,5.22,5.22,0,0,0,4.5-1.89,6.79,6.79,0,0,0,1-2.81,25.55,25.55,0,0,0-.4-11.44A12.53,12.53,0,0,0,82,64.94,18.28,18.28,0,0,0,87,60C91.33,54.15,93.73,46.46,91.77,39.44ZM43,40.41c.29-.74,1.32-.81,2.22-.49s1.13,1,1.47,2.07c.57,1.76.23,2.1.43,3.35.49-.48,1.65-1.82,3.14-.73,1.8,1.31,2.72,3.8,3.38,5.44a17.67,17.67,0,0,1,1.48,3.14,4.93,4.93,0,0,1-.07,3.08,2,2,0,0,1-1.31.94c-1,.31-1.67-.12-2.76.3-.18.07-.54-.06-.82.44-.08.13-.36.34-.32.7.08.55.95.84,1.14,1,.39.23.44.21,1.51.34a4.74,4.74,0,0,1,2.14.62c.36.2.81.21,1,.52,0,0,0,.55,0,.81,0,.76-1.15,1-2.4,2.16a11.47,11.47,0,0,0-2.09,2.68c-.84,1.41-.81,1.5-1.15,1.83a5.37,5.37,0,0,1-3,1.31,11.36,11.36,0,0,1-2.84,0,4.78,4.78,0,0,1-2-.42,3.38,3.38,0,0,1-1.84-1.59,3.8,3.8,0,0,1-.37-.95c-.3-.89-.35-1.34-.52-1.67a1.92,1.92,0,0,0-1.12-1.15c-.65-.34-1.21-.34-1.59-.76a1.64,1.64,0,0,1-.42-1.08c.08-.27.34-.36.88-.7a10,10,0,0,1,2.34-.77,7.7,7.7,0,0,0,1.32-.28,1,1,0,0,0,.73-.63c.06-.29-.57-.64-.76-.75a4.15,4.15,0,0,0-2.15-.47c-2,.1-2.4.37-3.3,0a3.18,3.18,0,0,1-1.59-1.84,6.37,6.37,0,0,1-.5-2.77,6.94,6.94,0,0,1,.38-2.33,3,3,0,0,1,.79-1.31,17.8,17.8,0,0,1,2.06-1.63,19.39,19.39,0,0,0,1.84-2.21c.51-.61.54-1.22.85-1.22.61,0,1,1,1.47,1s.29-1,1-2.67a20.87,20.87,0,0,0,1-2.57C42.79,40.69,42.94,40.68,43,40.41Z"/><path id="fill2" class="cls-2" d="M91.77,39.44C89.69,32,83.31,26.68,77.18,22c-2.85-2.21-5.79-4.42-9.19-5.62S60.6,15.06,57.56,17A16.7,16.7,0,0,0,43.59.09a5.44,5.44,0,0,0-2.75.19A6.28,6.28,0,0,0,39,1.64a45.18,45.18,0,0,0-7.19,7.83,15.2,15.2,0,0,0-2.82,10,11.19,11.19,0,0,0-8.41-.68A23.15,23.15,0,0,0,13,23C9.57,25.57,4,31.35,2.81,35.47A21,21,0,0,0,1.4,53.56,26.65,26.65,0,0,0,13.81,67.31a16.19,16.19,0,0,0-.64,7.44,2.19,2.19,0,0,0,.35,1.06,2.37,2.37,0,0,0,1.24.68,22.52,22.52,0,0,0,18.47-3.11,21.06,21.06,0,0,0,6.31-6.47,6.71,6.71,0,0,0,11.68.15A28.9,28.9,0,0,0,63.85,81.22a11.28,11.28,0,0,0,4.77,1.61,5.22,5.22,0,0,0,4.5-1.89,6.79,6.79,0,0,0,1-2.81,25.55,25.55,0,0,0-.4-11.44A12.53,12.53,0,0,0,82,64.94,18.28,18.28,0,0,0,87,60C91.33,54.15,93.73,46.46,91.77,39.44Z"/><path id="fill3" class="cls-3" d="M42.68,41.06a20.87,20.87,0,0,1-1,2.57c-.72,1.71-.57,2.61-1,2.67s-.86-1-1.47-1c-.31,0-.34.61-.85,1.22a19.39,19.39,0,0,1-1.84,2.21,17.8,17.8,0,0,0-2.06,1.63,3,3,0,0,0-.79,1.31A6.94,6.94,0,0,0,33.31,54a6.37,6.37,0,0,0,.5,2.77,3.18,3.18,0,0,0,1.59,1.84c.9.36,1.26.09,3.3,0a4.15,4.15,0,0,1,2.15.47c.19.11.82.46.76.75a1,1,0,0,1-.73.63,7.7,7.7,0,0,1-1.32.28,10,10,0,0,0-2.34.77c-.54.34-.8.43-.88.7a1.64,1.64,0,0,0,.42,1.08c.38.42.94.42,1.59.76a1.92,1.92,0,0,1,1.12,1.15c.17.33.22.78.52,1.67a3.8,3.8,0,0,0,.37.95,3.38,3.38,0,0,0,1.84,1.59,4.78,4.78,0,0,0,2,.42,11.36,11.36,0,0,0,2.84,0,5.37,5.37,0,0,0,3-1.31c.34-.33.31-.42,1.15-1.83a11.47,11.47,0,0,1,2.09-2.68c1.25-1.18,2.41-1.4,2.4-2.16,0-.26,0-.78,0-.81-.17-.31-.62-.32-1-.52a4.74,4.74,0,0,0-2.14-.62c-1.07-.13-1.12-.11-1.51-.34-.19-.11-1.06-.4-1.14-1,0-.36.24-.57.32-.7.28-.5.64-.37.82-.44,1.09-.42,1.75,0,2.76-.3a2,2,0,0,0,1.31-.94,4.93,4.93,0,0,0,.07-3.08,17.67,17.67,0,0,0-1.48-3.14c-.66-1.64-1.58-4.13-3.38-5.44-1.49-1.09-2.65.25-3.14.73-.2-1.25.14-1.59-.43-3.35-.34-1.06-.49-1.73-1.47-2.07s-1.93-.25-2.22.49C42.94,40.68,42.79,40.69,42.68,41.06Z"/><path id="fill1" d="M29.64,74.24q3.66-4.92,7-10.08c.08-.12.24-.25.34-.15q-3.39,5.11-7,10.07C29.87,74.18,29.75,74.3,29.64,74.24ZM46.12,36.91a19.83,19.83,0,0,0,.47,2.86c0,.22,0,.56-.2.54a100.79,100.79,0,0,1-1-12.88A5.09,5.09,0,0,1,45.56,26,100,100,0,0,0,46.12,36.91ZM30.86,74.35c-.07.09-.14.18-.25.18l6.69-9.87a.41.41,0,0,1,.25-.22c.11,0,.23.12.16.21C35.14,67.66,33.27,71.21,30.86,74.35Zm0-30.22-6.56,5.36a93.06,93.06,0,0,1,7.26-6.05,1.94,1.94,0,0,0-1.51.6l-3.78,3,4.07-3.51c-1-.32-2,.33-2.83,1l-6.31,4.69a92.11,92.11,0,0,1,7.35-5.57c-.92-.34-1.9.29-2.68.89l-4.49,3.42a45.89,45.89,0,0,1,5.63-4.38c-1.36-.39-2.69.56-3.79,1.44L20.2,47.48a38.72,38.72,0,0,1,4.69-3.89c-1.18-.41-2.41.37-3.42,1.1l-4.93,3.6,6-4.63c-1.41-.42-2.81.61-3.93,1.57l-6.2,5.33c2.56-2.38,5.19-4.7,7.89-6.93-1.75-.23-3.4.76-4.89,1.71L9.9,48.87l7.79-5.16c-.41-.27-1,0-1.38.21l-6,3.33,6.29-3.77a67.38,67.38,0,0,0-12.7-.33,50.35,50.35,0,0,1,11.64,0A2.39,2.39,0,0,0,16.9,43a1,1,0,0,0,1.34.16,2.77,2.77,0,0,0,2.43,0,.61.61,0,0,1,.39-.11c.14,0,.23.22.12.3a3.75,3.75,0,0,0,2.52-.4,1.63,1.63,0,0,0,1.15.32l2.53.06a4,4,0,0,0,2.43-.48.29.29,0,0,1-.08.45,2.38,2.38,0,0,0,1.66-.56l-.2.54,2.31-.19,2-.16,3.64-.3A13.48,13.48,0,0,0,37.3,43.7a22,22,0,0,0-2.72,2.38,49.87,49.87,0,0,0-9,12.38c2-4.74,5.36-8.75,8.88-12.48l-.58.36,3.9-3.49a8.36,8.36,0,0,0-3.2,2c-1.94,1.67-3.86,3.37-5.73,5.11a66.47,66.47,0,0,1,7.41-6.62L35,43.26c.19,0,.08.31-.09.41a37.78,37.78,0,0,0-6.62,5,34.84,34.84,0,0,1,6.53-5.27c-.27-.23-.67,0-1,.2l-9.74,7.57c3.18-2.74,6.5-5.34,9.92-7.78a2.88,2.88,0,0,0-1.79.36l.19-.36a2.43,2.43,0,0,0-1.51.73m-7.36-.88c-.05.07.09.16.13.09S23.59,43.18,23.54,43.25Zm4.69,24.26a92.49,92.49,0,0,1,5.8-8c.18-.25.44-.53.74-.45A68.66,68.66,0,0,0,30,65ZM42.61,29.79a79.33,79.33,0,0,0,1.82,9.31c.08.29.15.58.23.87s0,.39-.17.33c-.75-3.15-1.38-6.33-1.89-9.52A1.85,1.85,0,0,1,42.61,29.79ZM33.33,73a54.25,54.25,0,0,0,5.39-7.29c.05-.08.14-.17.23-.13s0,.2,0,.29c-1.37,2-2.81,4-4.31,5.86A4.86,4.86,0,0,1,33.33,73Zm14-41.89c-.07-2.27,0-4.55.08-6.82l.12-3.5c.11,0,.14.17.13.28Zm-7.85-12.9a78.7,78.7,0,0,0,.55,8.11c.1.87.2,1.73.29,2.6a58,58,0,0,1-.88-7.56,12.29,12.29,0,0,1,0-3.15ZM48,27.8c-.07-2.23,0-4.46.11-6.69l.09-2.05c.11.06.12.22.11.34Zm-1.43.61c0-2,0-3.94,0-5.9a3.55,3.55,0,0,1,.13-1l0,8.43A7.54,7.54,0,0,1,46.58,28.41Zm3.6-5.14.4-5a.51.51,0,0,1,.17-.42l-.55,6.74A4.86,4.86,0,0,1,50.18,23.27ZM40.6,19.32a51.49,51.49,0,0,0,.64,10.36,1.4,1.4,0,0,1,0,.54,52.22,52.22,0,0,1-.79-11.3C40.59,19,40.62,19.16,40.6,19.32Zm5.12.57-.16,5.8a.42.42,0,0,1-.1.33c0-2.28,0-4.56.21-6.83A2.05,2.05,0,0,1,45.72,19.89ZM49.65,18a1.49,1.49,0,0,1,.1.73c0,2-.12,3.92-.22,5.88-.09,0-.1-.14-.1-.23Q49.55,21.17,49.65,18ZM38.93,28c-.47-2.58-.84-5.17-1.14-7.78a.43.43,0,0,1,.09-.38q.49,4.59,1.35,9.14A2.79,2.79,0,0,1,38.93,28ZM50,17.59c0-.14,0-.3.14-.38-.06,2.05-.16,4.09-.29,6.14-.1-.07-.1-.22-.09-.34ZM38,46.22c.11,0,.24.13.18.23-.2-.15-.49,0-.71.12a24.8,24.8,0,0,0-2.74,2,.32.32,0,0,1-.26.12c.56-.57,1.14-1.13,1.73-1.67a.11.11,0,0,0,.13.09.27.27,0,0,0,.16-.08l.57-.45A1.31,1.31,0,0,1,38,46.22Zm5.7-.46a1.75,1.75,0,0,0,0,.88c.11.68.25,1.34.42,2,0,.06-.07.11-.13.08a.24.24,0,0,1-.11-.16,6.8,6.8,0,0,1-.26-1,5.62,5.62,0,0,1-.17-1.68.27.27,0,0,1,.1-.21C43.61,45.62,43.74,45.68,43.71,45.76Zm-6-20.29a1,1,0,0,1,0-.7c.29,1.88.64,3.74,1.07,5.59-.17-.06-.23-.27-.26-.44Zm7.73,19.9a9.65,9.65,0,0,0,.5,2.42,2,2,0,0,1,.15.58c-.14,0-.23-.13-.28-.26a10.36,10.36,0,0,1-.57-2.58.22.22,0,0,1,0-.19C45.34,45.29,45.45,45.3,45.46,45.37ZM49,19.2c0-.14,0-.3.15-.37-.06,1.6-.16,3.21-.28,4.81a.77.77,0,0,1-.09-.52ZM39.17,43.68s0,0,0,0a7.12,7.12,0,0,1-1.32.82,5.52,5.52,0,0,0-.86.67A13,13,0,0,0,35.8,46.4s-.07.08-.12.08-.1,0-.07-.08a4.93,4.93,0,0,1,.81-.9c.23-.22.47-.44.72-.64a12.38,12.38,0,0,1,1.66-1.07l.24-.14C39.09,43.63,39.18,43.62,39.17,43.68Zm3.65,4.55a4.56,4.56,0,0,1-.27-1.16l-.11-.81a1.5,1.5,0,0,1,0-.7c0-.07.07-.14.14-.15s.14.1.08.14-.06.11-.06.17A15.89,15.89,0,0,0,43,48.28c0,.06-.06.1-.12.08A.22.22,0,0,1,42.82,48.23ZM48.76,24a.43.43,0,0,1,.11-.32c0,1.69,0,3.38-.1,5.07-.09,0-.1-.17-.1-.27ZM19,48.35c0,.09-.05.18-.12.24l-3.47,3.27a.54.54,0,0,1,.21-.33l.75-.74.63-.62C17.69,49.55,18.36,48.94,19,48.35ZM41.71,22.18a1.18,1.18,0,0,1,.16.58l.46,4.68a.42.42,0,0,1-.14-.32C42,25.48,41.83,23.83,41.71,22.18Zm-.08,23.69a6.4,6.4,0,0,0-.05,1.45.31.31,0,0,1,0,.19.21.21,0,0,1-.31.1c0-.58.11-1.15.19-1.71,0-.09.09-.21.16-.15A.13.13,0,0,1,41.63,45.87Zm9.7-24.39a1.62,1.62,0,0,1,0-.58l.22-2.27a7.73,7.73,0,0,1,.15-1.06c.07,0,.08.12.07.19L51.45,21A1.26,1.26,0,0,1,51.33,21.48ZM35,25.9a1.88,1.88,0,0,1-.26-.73c0-.16-.07-.32-.1-.48-.16-.77-.29-1.54-.42-2.31,0-.06,0-.15.07-.14l.43,2.17c0,.12,0,.24.07.37ZM12.11,52.4a.53.53,0,0,1-.32.19c1-1,2-2,3-2.86a.64.64,0,0,1-.26.39Zm3.07,3-.22.25c-.18.21-.35.43-.52.64a.73.73,0,0,1-.4.32A27,27,0,0,1,16.31,54s.09,0,.09.05a.17.17,0,0,1-.06.11C15.94,54.58,15.55,55,15.18,55.42ZM21,48.29a.49.49,0,0,1,.33-.16l-2.1,2a.48.48,0,0,1-.32.18c.32-.35.66-.7,1-1l.71-.66Zm26.08-12.6a.39.39,0,0,1-.12-.3c-.06-.64-.09-1.27-.1-1.91a1.31,1.31,0,0,1,.16.71ZM18.55,50.78l-.48.53c-.31.33-.61.66-.91,1a.67.67,0,0,1-.37.25L17.3,52l.84-.93A.78.78,0,0,1,18.55,50.78ZM51.09,23.9l.15-2.09a.47.47,0,0,1,.14-.36l-.19,2.65C51.11,24.1,51.09,24,51.09,23.9ZM28.4,50.37s0,.07,0,.1l-.89,1L27,51.9c0,.05-.13.09-.15,0,.23-.3.48-.58.74-.86l.31-.32A1.87,1.87,0,0,1,28.4,50.37Zm-19.86-.7.83-.57a1.09,1.09,0,0,1,.45-.21A5.15,5.15,0,0,1,8,50,6,6,0,0,1,8.54,49.67ZM48.13,34.61c.1,0,.13.18.13.3l.06,1.31a.37.37,0,0,1-.07.29,2.13,2.13,0,0,1-.08-.61ZM24.61,48.52,23.29,49.6a1.07,1.07,0,0,1,.36-.43c.74-.64,1.5-1.26,2.27-1.87l0,0c.05,0,0,.09,0,.13l-.74.61ZM18.4,51.94c-.32.35-.63.7-1,1a1.18,1.18,0,0,1-.49.37c.23-.29.48-.56.73-.83a7.6,7.6,0,0,1,.58-.56S18.37,51.9,18.4,51.94Zm24.15-22.1a1.74,1.74,0,0,1-.13-.51L42.37,29c0-.1,0-.21,0-.31a3.75,3.75,0,0,1,0-.67,2.37,2.37,0,0,1,.15.65l.12.9A.41.41,0,0,1,42.55,29.84ZM43,22.89l.09,1.65c0,.06,0,.16-.09.12-.07-.64-.11-1.29-.12-1.94C42.93,22.71,43,22.81,43,22.89Zm-8.91.7c-.18-.13-.19-.39-.2-.62a5.27,5.27,0,0,0-.1-.89.93.93,0,0,1,0-.52.27.27,0,0,1,.11.22Zm13.25,9.13a.53.53,0,0,1-.07-.31v-.88a.91.91,0,0,1,.12-.52l0,1.43A.31.31,0,0,1,47.31,32.72ZM37.72,18.27a.65.65,0,0,1,.11.43l0,.61a3,3,0,0,1,0,.42.73.73,0,0,1-.16-.54C37.7,18.88,37.71,18.57,37.72,18.27ZM12.93,57.94l.92-1.16c.05-.06.15-.11.18-.05a7.5,7.5,0,0,1-.82,1A.38.38,0,0,1,12.93,57.94ZM51.09,27.53,51,28.63c0,.09,0,.21-.11.24L51,27A.79.79,0,0,1,51.09,27.53ZM49.44,31.2a2.57,2.57,0,0,1,0-.68V29.44c.08,0,.09.12.09.19V31A.31.31,0,0,1,49.44,31.2Zm-33.86,18a1.57,1.57,0,0,1-.61.38c.39-.37.8-.73,1.23-1.07,0,0,.1-.06.13,0s0,.08,0,.11ZM14.41,53l-.69.81c-.09.11-.2.23-.34.22l.5-.62A1,1,0,0,1,14.41,53Zm4.69-1.8a1.51,1.51,0,0,1,.44-.47l.73-.59s0,.07,0,.09l-1,.9C19.25,51.15,19.16,51.21,19.1,51.17ZM36,24.07c0,.07,0,.18-.09.13l-.21-1.09c0-.1,0-.23.06-.28a3.22,3.22,0,0,1,.15.63Zm14.12,1.24a.6.6,0,0,1,.13-.42l0,1.45c-.09,0-.13-.1-.13-.19Zm-10.17,7-.14,0-.18-.74a1.32,1.32,0,0,1-.05-.52c.16.1.13.34.16.53S39.94,32,39.91,32.26Zm-2.72-10.5-.08-.8c0-.09,0-.2.06-.26A7.56,7.56,0,0,1,37.34,22C37.23,22,37.2,21.87,37.19,21.76Zm-17,25.75-.79.74c-.06,0-.13.1-.2.07A1.88,1.88,0,0,1,20.17,47.51ZM46.7,31.05l0-.57a2,2,0,0,1,0-.6,1.23,1.23,0,0,1,.09.47l0,.9C46.74,31.25,46.7,31.14,46.7,31.05ZM14.52,52.73l.6-.67a.61.61,0,0,1,.35-.19c-.23.27-.48.54-.74.79C14.67,52.72,14.59,52.77,14.52,52.73Zm21.19-34a.81.81,0,0,1,.17.49L36,20.32a1.33,1.33,0,0,1-.19-.62Zm12.5,14.94,0,.71s0,.08,0,.1-.1-.06-.11-.12a5.57,5.57,0,0,1,0-1A.37.37,0,0,1,48.21,33.71Zm1.27-9a3.36,3.36,0,0,1,.05,1.05.46.46,0,0,1-.06.23,1,1,0,0,1,0-.17A3,3,0,0,1,49.48,24.73Zm-2.55,8.54c0,.09,0,.19-.08.24a2.84,2.84,0,0,1,0-1.23,2.12,2.12,0,0,1,.08.57ZM37.26,22.36c0-.07,0-.18.09-.15a9.49,9.49,0,0,1,.2,1.3c-.08,0-.1-.1-.11-.17ZM48.13,30c0,.07,0,.16-.09.16a3.25,3.25,0,0,1,0-1.12.4.4,0,0,1,.11.3Zm1.7-5.55c-.1,0-.13-.13-.12-.23a5.83,5.83,0,0,1,.08-.83.76.76,0,0,1,.08.54Zm-.31,7.79a.14.14,0,0,0,.13.22l.05.58c-.05.05-.11,0-.11-.1s0-.15-.05-.18-.16-.25-.16-.41a.33.33,0,0,1,0-.13S49.52,32.24,49.52,32.28ZM50,26.79a.59.59,0,0,1,0-.13s.07-.07.09,0a5.63,5.63,0,0,1,0,1.16A2.58,2.58,0,0,1,50,26.79ZM48.1,31.43a.4.4,0,0,1-.09-.3l0-.72c.09,0,.13.12.13.21A4.39,4.39,0,0,1,48.1,31.43ZM13.36,54.15l-.51.59a1,1,0,0,1-.39.32A5.88,5.88,0,0,1,13.4,54C13.43,54.06,13.39,54.11,13.36,54.15ZM39.29,29.86a1,1,0,0,1,.22.5l.11.52c-.14-.05-.18-.21-.21-.35ZM35.17,27a5.89,5.89,0,0,1-.26-1c0-.05,0-.11.05-.1.1.33.18.65.27,1C35.24,26.91,35.22,27,35.17,27ZM37,19.6l0-.54A.13.13,0,0,1,37,19a.08.08,0,0,1,.07,0,2.64,2.64,0,0,1,.05.93C37,19.85,37,19.71,37,19.6Zm11.74,11,.07.58a.4.4,0,0,1-.08.37,4.93,4.93,0,0,1-.07-.66A.37.37,0,0,1,48.72,30.63ZM20.27,50.15a1.21,1.21,0,0,1,.47-.53.34.34,0,0,1,.19-.07c0,.1-.08.19-.17.25ZM37.6,23.71l.08.65,0,.28a.43.43,0,0,1-.16-.34,1.27,1.27,0,0,0-.05-.39.41.41,0,0,1,0-.18C37.48,23.67,37.59,23.65,37.6,23.71Zm11.86,3.06a1.61,1.61,0,0,1,.06.69l0,.3a.43.43,0,0,1-.11-.33A2.47,2.47,0,0,1,49.46,26.77Zm-.76,2.61a1.73,1.73,0,0,1,.09.78.36.36,0,0,1-.08.21A2.74,2.74,0,0,1,48.7,29.38ZM34.22,24.55a1.45,1.45,0,0,1-.23-.64.34.34,0,0,1,0-.24.37.37,0,0,1,.13.3Zm15.45,7.94a.56.56,0,0,1-.14-.4s0-.08,0-.11a.58.58,0,0,0,0-.37c.08,0,.12.1.11.18C49.71,32,49.69,32.26,49.67,32.49ZM22.06,51.71a2.45,2.45,0,0,1-.57.63.17.17,0,0,1-.13,0A1.9,1.9,0,0,1,22.06,51.71ZM48.11,31.59l.06.69c0,.11,0,.24-.09.28l-.06-.7C48,31.76,48,31.63,48.11,31.59ZM22.26,50.5l-.44.41a.68.68,0,0,1-.37.22l.39-.4A.6.6,0,0,1,22.26,50.5Zm25.84-18a1.47,1.47,0,0,1,0,.88A1.33,1.33,0,0,1,48.1,32.54ZM48,28.27l.06.54c0,.1,0,.22-.07.28a.59.59,0,0,1-.09-.32A1.44,1.44,0,0,1,48,28.27ZM25.55,51.14l.79-.84s0,0,0,0,.05.11,0,.15A3.56,3.56,0,0,1,25.55,51.14Zm-2-.85a1.61,1.61,0,0,1-.45.45.38.38,0,0,1-.17.08A.94.94,0,0,1,23.57,50.29Zm3.48-.57a2,2,0,0,1,.55-.56s.12-.09.18-.06A4.35,4.35,0,0,1,27.05,49.72ZM43.74,22.94a2,2,0,0,1,.07.59.3.3,0,0,1-.07.21A1.45,1.45,0,0,1,43.74,22.94ZM42.36,28a.52.52,0,0,1-.08-.59A.7.7,0,0,1,42.36,28ZM16.18,53.41a1.47,1.47,0,0,1-.22.21l-.18.15a1,1,0,0,1,.41-.54C16.26,53.25,16.23,53.36,16.18,53.41Zm28.58-30a.69.69,0,0,1,0-.61C44.9,22.91,44.83,23.16,44.76,23.36Zm6.35,2.18,0,.76A.68.68,0,0,1,51.11,25.54ZM20.56,53.18l.33-.35a.34.34,0,0,1,.28-.17l-.29.33C20.8,53.09,20.69,53.2,20.56,53.18ZM47,36.31a.79.79,0,0,1-.1-.37.29.29,0,0,1,.1-.25A1.19,1.19,0,0,1,47,36.31ZM22.65,50a.16.16,0,0,1,.07-.07.22.22,0,0,1,.19,0,3.07,3.07,0,0,1-.51.38Zm-6,3.8s-.1.1-.16.07a1,1,0,0,1,.53-.5Zm11.74-3.45.13-.14c.1-.12.22-.25.38-.24l-.13.14C28.66,50.23,28.54,50.36,28.38,50.35Zm13-19.71c0,.08-.15,0-.18-.08a.51.51,0,0,1,.06-.38l.12.39S41.4,30.62,41.39,30.64Zm-5.21-5.25a1.2,1.2,0,0,1-.21-.54.2.2,0,0,1,0-.17A2.54,2.54,0,0,1,36.18,25.39Zm5.55-3.84a5.51,5.51,0,0,1,.06.57s0,.1-.06.09l-.09-.5C41.62,21.63,41.66,21.51,41.73,21.55ZM49.47,26a.94.94,0,0,1,0,.64A.75.75,0,0,1,49.47,26Zm0,2.19.05.41c0,.08,0,.19-.07.23A.83.83,0,0,1,49.47,28.18Zm0,1.28,0-.41c0-.08,0-.19.07-.23A.83.83,0,0,1,49.43,29.46Zm-6.54-7.72a1.12,1.12,0,0,1,.09.36.43.43,0,0,1-.07.25A.8.8,0,0,1,42.89,21.74Zm6.81,7.39-.07-.33a.19.19,0,0,1,.06-.2A.49.49,0,0,1,49.7,29.13Zm1.24.47A.57.57,0,0,1,51,29,1,1,0,0,1,50.94,29.6Zm-11.72,0a.86.86,0,0,1,0-.32c.06,0,.09.07.09.13l0,.35a.21.21,0,0,1-.15-.15Zm-5-7.86.07.31c0,.07,0,.17-.06.17L34.13,22C34.1,21.86,34.13,21.72,34.21,21.76ZM18.66,51.56a.47.47,0,0,1,.26-.11.86.86,0,0,1-.36.32.24.24,0,0,1,.1-.22ZM34,21c.06-.05.13.06.13.14l0,.39A.71.71,0,0,1,34,21S34,21,34,21Zm1.31,6.57a.8.8,0,0,1-.18-.41.22.22,0,0,1,0-.14A1,1,0,0,1,35.34,27.52Zm.41-8.73a.75.75,0,0,1-.09-.6A.89.89,0,0,1,35.75,18.79ZM35.43,28a.17.17,0,0,1,0-.2.83.83,0,0,1,.17.52.28.28,0,0,1-.13-.32ZM18.92,50.36s0,.12-.07.16l-.32.25s0-.08,0-.12A1.12,1.12,0,0,1,18.92,50.36ZM46.81,32a.49.49,0,0,1,0-.52A.78.78,0,0,1,46.81,32ZM26.38,52.45a.61.61,0,0,1,.15-.24.28.28,0,0,1,.21-.08A.57.57,0,0,1,26.38,52.45Zm-18.9-2a1.11,1.11,0,0,1-.56.31A1.11,1.11,0,0,1,7.48,50.42ZM49.7,29.11a.51.51,0,0,1,0,.45A.39.39,0,0,1,49.7,29.11Zm-2.4,4.07a.49.49,0,0,1,0-.47A.51.51,0,0,1,47.3,33.18Zm3.6-2.52a.49.49,0,0,1,0-.47A.49.49,0,0,1,50.9,30.66ZM34.21,18.31l0,.11a.36.36,0,0,1-.1-.38.36.36,0,0,1,.15.27ZM12.33,55.23a.48.48,0,0,1-.14.25.31.31,0,0,1-.22.09A1.29,1.29,0,0,1,12.33,55.23ZM51,26.91a.49.49,0,0,1,0-.47A.49.49,0,0,1,51,26.91Zm.13-2.32-.06.17a.27.27,0,0,1,0-.35.11.11,0,0,1,0,.18Zm-1.41,2a.49.49,0,0,1,0,.47A.52.52,0,0,1,49.74,26.63ZM15.54,54.08a.27.27,0,0,1,.28-.3ZM50.09,27.76c.08.11.13.27,0,.35-.07-.11-.12-.27,0-.35ZM11,53.36a.28.28,0,0,1,.25-.22.7.7,0,0,1-.19.26.11.11,0,0,1-.08,0,0,0,0,0,1,0-.06Zm15.76-3.43c0-.06.08-.11.12-.06a.12.12,0,0,1,0,.16.33.33,0,0,1-.19,0l.09-.14Zm20-17.63,0-.34a.23.23,0,0,1,0,.34ZM10.07,54.21a.19.19,0,0,1-.2.24.26.26,0,0,1,.18-.23ZM49.82,25a.5.5,0,0,1-.09-.4A.33.33,0,0,1,49.82,25Zm-.73-6.53a.3.3,0,0,1,.08.18.14.14,0,0,1-.09.16l0-.34Zm1.11,6.06v.35a.24.24,0,0,1,0-.35Zm-.74,3.64a.49.49,0,0,1-.08-.18.17.17,0,0,1,.09-.17l0,.35Zm.19,1.95,0-.29a.19.19,0,0,1,0,.31ZM37,18.18l0,.32a.2.2,0,0,1-.06-.32Zm-2.62,2.1,0,.12a.2.2,0,0,1-.08-.31.11.11,0,0,1,0,.18Zm13.63,8a.49.49,0,0,1-.08-.18A.15.15,0,0,1,48,28l0,.34Zm1.73-2.88c.08.06,0,.18,0,.26a.16.16,0,0,1,0-.26ZM37,18c-.07-.06,0-.17,0-.26A.16.16,0,0,1,37,18Zm12.11.49a.2.2,0,0,1,0-.27.2.2,0,0,1,0,.28Zm-25,34a.35.35,0,0,1,.28-.15.3.3,0,0,1-.27.16Zm-.9-.42a.12.12,0,0,1-.07.13.09.09,0,0,1-.1-.09s0,0,.05-.06a.74.74,0,0,1,.29-.12.21.21,0,0,1-.16.13ZM24,49.8c0-.12.16-.18.28-.18a.58.58,0,0,1-.26.18Zm24.7-19.44a.21.21,0,0,1,0,.28.21.21,0,0,1,0-.28Zm-13-7.52-.13-.29a.25.25,0,0,1,.16.28ZM23.62,51.71c0,.09-.1.16-.19.15a.36.36,0,0,1,.19-.15ZM49.71,30.39a.24.24,0,0,1,0,.23.14.14,0,0,1,0-.25ZM34.35,19.9a.31.31,0,0,1-.09-.22.17.17,0,0,1,.1.23ZM50.92,30.2a.21.21,0,0,1,0-.28.23.23,0,0,1,0,.29ZM34.29,19a.09.09,0,0,1-.13.07l0-.15a.11.11,0,0,1,.09.08ZM21.47,51.14c0,.1-.1.16-.2.15a.38.38,0,0,1,.19-.14ZM34.12,20.6l0,.15a.08.08,0,0,1-.08-.1.09.09,0,0,1,.13,0Zm-11.43,32a.13.13,0,0,1-.19.12.33.33,0,0,1,.16-.12ZM9,48.17c.07,0,0,.18-.09.13A.18.18,0,0,1,9,48.14ZM50.9,30.66a.11.11,0,0,1,.05.12.08.08,0,0,1-.12,0,.28.28,0,0,1,.07-.17ZM49.76,25.4s-.08-.14,0-.16.07.15,0,.17ZM51,28.86c0,.05.08.15,0,.17s-.08-.15,0-.17ZM49.72,27.1s.08.14,0,.16-.08-.15,0-.17Zm0,.16,0,.15c-.08,0-.13-.11-.06-.15Zm1.18,2.33c0,.05.08.14,0,.16s-.08-.15,0-.17ZM24.15,51.24c0,.06-.06.14-.12.11a.14.14,0,0,1,.12-.1ZM51,29.92c-.05-.05-.08-.14,0-.16s.08.15,0,.17ZM25.58,51.15c.05.05,0,.14-.12.1a.17.17,0,0,1,.12-.1Zm-2,.56c0-.06.06-.14.12-.11a.14.14,0,0,1-.12.11ZM49.7,28.16c0,.05.07.15,0,.17s-.08-.15,0-.17ZM34.21,18.53l0,.11c-.07,0-.11-.12,0-.13Zm16.86,7c0-.05-.07-.14,0-.16s.07.15,0,.17ZM22.79,50.93l.11,0c0,.07-.12.11-.13,0Zm29-33.61c0,.06-.12,0-.12,0a.1.1,0,0,1,.13-.08l0,.11Zm-2.09,11c0,.05.08.15,0,.17s-.08-.15,0-.17ZM23.9,52.87c.05.05,0,.13-.12.1a.17.17,0,0,1,.12-.1ZM37,18s.07.14,0,.17S36.91,18,37,18Zm13.9,13.53c-.05-.05-.08-.15,0-.17s.08.15,0,.18ZM37.13,20.16l0,.11c-.07,0-.11-.12,0-.13Zm.72-.27c0-.05-.08-.15,0-.17s.07.15,0,.17Zm10.9,9.23a.16.16,0,0,1,0-.15.09.09,0,0,1,0,.16ZM22.41,51.32a.07.07,0,0,1,0,.1.08.08,0,0,1-.1,0l.08-.09ZM48,27.79c0,.05.08.14,0,.16s-.07-.15,0-.17Zm.75,1.33,0,.15c-.07,0-.12-.11-.06-.15Zm.91,2.13c0-.05-.08-.15,0-.17s.07.15,0,.17Zm-.2-.06,0,.15c-.07,0-.12-.11,0-.15Zm.21.06,0,.15c-.07,0-.12-.11-.06-.15Zm-5.91-8.93a.16.16,0,0,1,0-.15.09.09,0,0,1,0,.16ZM14.39,53c0-.05,0-.13.12-.1a.15.15,0,0,1-.12.1ZM43.75,22.33c0,.05.08.14,0,.17s-.08-.16,0-.18Zm5.37-4.11s-.08-.15,0-.17.08.15,0,.17ZM9.8,47.6s.06,0,0,.07-.07,0-.11,0a.12.12,0,0,1,.09-.09ZM36.25,25.73s0,.06-.07,0,0-.07,0-.11a.1.1,0,0,1,.09.08ZM12.85,58.1c0-.05,0-.11.1-.14s0,.12-.1.14ZM49.68,17.82c0,.05.08.15,0,.17s-.07-.15,0-.17ZM48.1,31.59c-.05-.05-.08-.15,0-.17s.08.15,0,.17Zm-36,19.23a.08.08,0,0,1,0-.11.08.08,0,0,1,.1,0l-.08.09Zm37.59-33a.14.14,0,0,1,0-.15c.07,0,.11.11,0,.15Zm.19,5.54-.06.1v-.12ZM12.59,58.51a.09.09,0,0,1-.11,0,.11.11,0,0,1,.07-.09s.08.05,0,.07ZM51,27l.06-.1V27Zm-1.21-1.87.05-.11v.12ZM49.11,18s0-.08,0-.07,0,.08,0,.07Zm.62,7.18.05-.1v.11Zm1.33.16s0-.08,0-.07,0,.08,0,.07Zm-1.57-.62s0-.09,0-.08,0,.09,0,.08ZM34.34,19.91s0,.08,0,.07,0-.08,0-.07ZM51,26.44s0-.08,0-.07,0,.08,0,.08Zm-2.16-2.8-.05.1v-.11ZM24.05,49.81s0,.09,0,.07,0-.08,0-.07Zm2.34,2.65s0,.09,0,.07,0-.08,0-.07Zm20.32-31s0-.08,0-.07,0,.08,0,.07Zm2.76,5.31s0-.08,0-.07,0,.08,0,.08Zm.27-.14s0-.09,0-.08,0,.09,0,.08Zm-.32,1.2.06-.1v.12Zm.32.68-.06.1V28.5ZM22.54,54.37s0,.06-.06,0,0-.06.06,0Zm-.18.22s-.06,0,0-.06.06,0,0,.06ZM49.7,28.15s0-.08,0-.07,0,.08,0,.07ZM23.9,52.86s0-.09,0-.07,0,.08,0,.07ZM37.16,20.7s0-.08,0-.07,0,.08,0,.07ZM50.92,31.28l-.06.1v-.11ZM20.26,53.49s.06,0,0,0-.06,0,0,0ZM49.7,31l-.05.1V31Zm1.2.27s0-.08,0-.07,0,.08,0,.07ZM19.48,54.39s0,.06-.06,0,0-.06.06,0Zm1.67-1.76s0-.08,0-.07,0,.08,0,.07Zm-9.22-1.82s.06,0,0,.06-.06,0,0-.06ZM37.75,18.27s0-.08,0-.07,0,.08,0,.07Zm-23,36.67s-.06,0,0,0,.06,0,0,0Zm-.33.36s-.06,0,0-.06.06,0,0,.06ZM49.68,31s0-.09,0-.08,0,.09,0,.08Zm-.27.86s.06,0,0,.06-.06,0,0-.06ZM42.88,21.15s.06,0,0,.05-.06,0,0-.05ZM12.49,55.07s0,.08,0,.07,0-.08,0-.07Zm-2-1.16s0,.06-.06,0,0-.06.06,0ZM11.68,56s0,.06-.06,0,0-.06.06,0ZM43.76,22.51s0,.08,0,.07,0-.08,0-.08ZM12.32,55.23s0-.08,0-.07,0,.08,0,.07ZM6.21,51.09s.06,0,0,0-.06,0,0-.06Zm-.24.2s-.06,0,0-.06.06,0,0,.06Zm6.88,6.82s0,.08,0,.07,0-.08,0-.07ZM75.14,42a.56.56,0,0,1,.42.08l-7.91.66c0-.16.21-.21.37-.22ZM61.9,43.34c.07-.12.26,0,.38,0,1.54,1.21,3.61,1.47,5.38,2.31a30.62,30.62,0,0,1-5.56-2C62,43.6,61.82,43.46,61.9,43.34Zm6.16,15.11a16.06,16.06,0,0,1-2.75-2.26.67.67,0,0,1-.27-.42c.62.6,1.26,1.17,1.92,1.72a6.34,6.34,0,0,0,1.55,1C68.38,58.61,68.2,58.54,68.06,58.45Zm-2.53-8.9c-.1.08-.25,0-.36-.07q-4.59-3.24-8.9-6.86a1.35,1.35,0,0,1,.87.45A84.83,84.83,0,0,0,65.53,49.55Zm-3.77,8.22a1.88,1.88,0,0,1,.45.44l.52.65a4.93,4.93,0,0,1,.55.8.12.12,0,0,1,0,.08c0,.08-.14,0-.18-.06A7,7,0,0,0,62,58.24.66.66,0,0,1,61.76,57.77ZM73.52,43.88c.08,0,.19,0,.19.13L72,43.82a2.92,2.92,0,0,1-.93-.2.49.49,0,0,1,.27,0ZM62.64,53.33l.46.47.41.42.89.89a.29.29,0,0,1,.11.22,1.19,1.19,0,0,1-.33-.26c-.57-.55-1.12-1.13-1.64-1.73C62.53,53.29,62.61,53.3,62.64,53.33ZM63,55.75l-2.4-3.29c-.08-.11-.16-.23-.12-.35q1.37,1.81,2.65,3.71S63,55.8,63,55.75Zm9.19-7.14-.56-.16-.76-.24c-.06,0-.14-.08-.1-.13l1.59.45c.08,0,.18.07.19.16Zm9.29-4a11.54,11.54,0,0,1,1.44,0l.26,0,.54,0a.5.5,0,0,1-.41.11A13.85,13.85,0,0,1,81.47,44.58Zm-30.72-.33c.07.06.15.15.1.22l-1.1-.82a3.45,3.45,0,0,1-.51-.42c.08,0,.18,0,.25.07ZM79,44.44l-1.5-.12a3.67,3.67,0,0,1-.75-.11c0-.06.1-.07.16-.07l2.29.21C79.17,44.42,79.06,44.44,79,44.44ZM65.42,63.94c0-.06.09,0,.13,0l.48.55a2.06,2.06,0,0,1,.45.69c-.12,0-.21-.11-.27-.22A5.64,5.64,0,0,0,65.42,63.94Zm1.66-21.39a.37.37,0,0,1-.27.07,6.51,6.51,0,0,1-1.17-.07c0-.08.1-.11.18-.1C66.25,42.46,66.66,42.5,67.08,42.55ZM51,43.75l-.82-.64s-.12-.11-.09-.17a4.36,4.36,0,0,1,1.12.88C51.1,43.85,51,43.8,51,43.75Zm16.46,3.18a3.22,3.22,0,0,1,1.12.37l.16.08A2.44,2.44,0,0,1,67.42,46.93ZM66.3,52.1q.58.42,1.14.87s.11.12.06.16l-.88-.67A.75.75,0,0,1,66.3,52.1Zm-4.47-1.64.92.83c0,.05.09.16,0,.17L62,50.77C61.91,50.69,61.81,50.58,61.83,50.46Zm14-8.33a.48.48,0,0,1-.29,0,1.77,1.77,0,0,1,.61-.09,5.08,5.08,0,0,1,.78,0,.45.45,0,0,1-.32.09Zm-4,7.58c.06,0,.15.06.15.13a5.23,5.23,0,0,1-1.27-.41s.06-.06.11,0ZM64,57.09c.13,0,.22.14.3.25l.37.53c-.09,0-.18,0-.25-.13A2.59,2.59,0,0,1,64,57.09Zm3.79-8.86,1.09.39c.07,0,.14.1.08.13a6.05,6.05,0,0,1-1.1-.41S67.73,48.28,67.76,48.23ZM61.39,55s.08,0,.11,0l.5.72.33.47c-.1,0-.18-.1-.24-.18C61.85,55.73,61.61,55.38,61.39,55ZM67.46,47a4.91,4.91,0,0,1-1-.34c-.06,0-.12-.09-.09-.14l.9.33A.25.25,0,0,1,67.46,47Zm-7.85-4.62a2.2,2.2,0,0,1,.72-.1.55.55,0,0,1,.25,0c0,.08-.14.11-.22.11A2.68,2.68,0,0,1,59.61,42.33Zm8.14,3.36.81.23c.07,0,.17.07.15.15l-.8-.22C67.83,45.82,67.74,45.77,67.75,45.69Zm-5.18,7.64a1.56,1.56,0,0,1-.48-.4.35.35,0,0,1-.1-.27A1.88,1.88,0,0,1,62.57,53.33ZM63,49.51c-.23-.18-.46-.38-.69-.58,0,0-.09-.11,0-.16a5.61,5.61,0,0,1,.7.59S63,49.46,63,49.51Zm7.74-4.33.59.13c.06,0,.14,0,.14.12a3.16,3.16,0,0,1-1-.23A.32.32,0,0,1,70.69,45.18ZM78,42a2.08,2.08,0,0,1-1.08,0A2.8,2.8,0,0,1,78,42ZM65.45,53.57l.24.24.15.17a2.65,2.65,0,0,1-.85-.71A2.27,2.27,0,0,1,65.45,53.57Zm4.89-8.46c.06,0,.13.08.09.12a3.7,3.7,0,0,1-.87-.22c0-.06.09-.07.15,0Zm10.09-.62a2.74,2.74,0,0,1-.81,0l-.21,0c0-.08.12-.09.2-.09A2.88,2.88,0,0,1,80.43,44.49ZM67.92,50.92a1.85,1.85,0,0,1-.68-.32.21.21,0,0,1-.08-.11A1.66,1.66,0,0,1,67.92,50.92Zm-9-8.53h0s-.09-.08,0-.07a1.44,1.44,0,0,1,.77,0A1.13,1.13,0,0,1,59,42.39Zm12.8,3.12h-.08a.08.08,0,0,1,0-.12,1.85,1.85,0,0,1,.77.18C72.24,45.72,72,45.48,71.77,45.51Zm8.88-1a.85.85,0,0,1,.87.07l-.87-.07Zm-13.47,6a1,1,0,0,1-.52-.2.42.42,0,0,1-.14-.18A1.51,1.51,0,0,1,67.18,50.52Zm-2.11,8.1-.38-.56a1,1,0,0,1,.49.65C65.13,58.71,65.09,58.66,65.07,58.62Zm-1.9-2.75a3.52,3.52,0,0,1,.49.72,2.4,2.4,0,0,1-.58-.76S63.14,55.85,63.17,55.87ZM76.56,44.18a.77.77,0,0,1-.69-.09A1.09,1.09,0,0,1,76.56,44.18ZM64.32,52.63a.52.52,0,0,1,.11.1.05.05,0,0,1,0,.08.92.92,0,0,1-.55-.51Zm-1.91,3.83a1.2,1.2,0,0,1,.35.36.31.31,0,0,1,.07.21A1,1,0,0,1,62.41,56.46Zm8.4-9.88a.28.28,0,0,1,.13,0,.16.16,0,0,1,.08.1.5.5,0,0,1-.54-.16Zm-4.72,7.57a2.18,2.18,0,0,1,.52.33s.1.1.07.15A1.55,1.55,0,0,1,66.09,54.15Zm-14.74-10c-.06,0,0-.11,0-.12s.12,0,.16.07l.35.34a.25.25,0,0,1-.28-.1A.51.51,0,0,0,51.35,44.12Zm18.62,5c.17-.1.37,0,.52.16A.46.46,0,0,1,70,49.12Zm-.64-2.9a1.74,1.74,0,0,1,.66.2A.67.67,0,0,1,69.33,46.22Zm5.27,3.07L74,49.12A.45.45,0,0,1,74.6,49.29Zm-10.52,1.1-.49-.32s-.07-.09,0-.1A.74.74,0,0,1,64.08,50.39Zm3-7.81a.66.66,0,0,1,.55,0A.5.5,0,0,1,67.06,42.58Zm2.08,5a.16.16,0,0,1-.12-.07.08.08,0,0,1,0-.07.69.69,0,0,1,.52.22Zm4.17-1.84a.81.81,0,0,1,.58.12A.63.63,0,0,1,73.31,45.78ZM64.73,44s.09,0,.1.08a.06.06,0,0,1,0,.06.88.88,0,0,1-.55-.23A1.63,1.63,0,0,1,64.73,44ZM70,47.81a.65.65,0,0,1,.45.2A.34.34,0,0,1,70,47.81Zm-2,5.72a.86.86,0,0,1-.3-.33.86.86,0,0,1,.46.36C68.1,53.59,68,53.56,68,53.53ZM74.08,44H74A.08.08,0,0,1,74,44a.75.75,0,0,1,.64.09Zm-2.54,2.83c.15,0,.37,0,.42.11A.32.32,0,0,1,71.54,46.87Zm-2.05,4.91a.61.61,0,0,1-.27-.23.64.64,0,0,1,.43.18C69.66,51.79,69.55,51.8,69.49,51.78Zm3-4.75c.06,0,.15.09.11.15a2.91,2.91,0,0,1-.5-.16A.42.42,0,0,1,72.44,47Zm-8.92,5a1.83,1.83,0,0,1-.38-.23s-.09-.1-.07-.15A.89.89,0,0,1,63.52,52Zm1.32,3.5a.47.47,0,0,1,.11.25.7.7,0,0,1-.32-.36l.21.12Zm.77-8.07s-.09,0-.1-.08a.06.06,0,0,1,0-.06.62.62,0,0,1,.44.2A1,1,0,0,1,65.61,47.45Zm-.1,4.07a.31.31,0,0,1-.3-.28A.41.41,0,0,1,65.51,51.52Zm9.58-7.41H75A.07.07,0,0,1,75,44a.5.5,0,0,1,.47.1Zm.81,0a.49.49,0,0,1-.47,0A.52.52,0,0,1,75.9,44.1ZM48.9,43c0-.09.14-.09.21,0a.51.51,0,0,1,.15.23l-.26-.1S48.9,43.09,48.9,43Zm22.17.58a.35.35,0,0,1-.39-.06C70.79,43.48,71,43.55,71.07,43.62Zm-5,10.55a.25.25,0,0,1-.28-.21.25.25,0,0,1,.27.2Zm2.77-2.77a.29.29,0,0,1-.34-.16.42.42,0,0,1,.35.15Zm4.91-3.95a.2.2,0,0,1-.31-.1.9.9,0,0,1,.32.09ZM65.44,63.93a.51.51,0,0,1-.24-.33C65.34,63.6,65.35,63.81,65.44,63.93ZM70,46.4a.59.59,0,0,1,.32.09.2.2,0,0,1-.32-.08Zm-1.25-.35a.2.2,0,0,1,.31.1.56.56,0,0,1-.31-.09Zm-3.3,13a.77.77,0,0,1-.22-.34C65.34,58.71,65.4,58.89,65.42,59Zm2.72-5.48a.36.36,0,0,1,.27.22.26.26,0,0,1-.26-.21ZM66,49.84a.2.2,0,0,1-.24-.13.2.2,0,0,1,.24.13Zm.39.23a.22.22,0,0,1-.25-.14.23.23,0,0,1,.25.13Zm2.85,1.49a.21.21,0,0,1-.25-.13.21.21,0,0,1,.25.13Zm-7.84-9.23a.18.18,0,0,1,.25,0,.14.14,0,0,1-.22,0Zm12.09,5a.23.23,0,0,1-.26,0,.16.16,0,0,1,.26,0Zm-5.94.82a.15.15,0,0,1-.22-.14c.09,0,.21.05.22.15Zm5.83.72a.16.16,0,0,1-.22-.14c.1,0,.21,0,.22.14ZM66.9,48a.13.13,0,0,1,.16-.09.14.14,0,0,1,.1.16L67,48Zm-1.52-3.73,0,.12c-.1,0-.24-.07-.19-.16l.16.05ZM73,45.7a.21.21,0,0,1-.26,0,.16.16,0,0,1,.26,0Zm-7.07,1.81a.16.16,0,0,1,.22.14.22.22,0,0,1-.22-.14Zm.76.24,0,.11c-.1,0-.23-.07-.19-.16l.16,0ZM64.87,51c.1,0,.15.1.18.19a.2.2,0,0,1-.17-.17Zm1.22-4.52a.09.09,0,0,1-.07-.12.15.15,0,0,1,.18.15l-.11,0Zm7,3.75a.31.31,0,0,1-.19,0,.08.08,0,0,1,.1-.08.08.08,0,0,1,.07.1ZM48,43.07V43l.16,0a.1.1,0,0,1-.13.08ZM66.11,52c.1,0,.15.1.18.19a.18.18,0,0,1-.16-.18ZM64.68,53c.06-.05.14,0,.11.12a.17.17,0,0,1-.1-.12Zm.9-8.52a.09.09,0,0,1,.11-.08.08.08,0,0,1,0,.12l-.16,0Zm-.53,6.65c.06,0,.12,0,.14.1a.1.1,0,0,1-.13-.1Zm-1.82-1.4s.05-.1.1-.08a.08.08,0,0,1,.05.12l-.16,0ZM80.41,44.5s.14-.08.16,0a.12.12,0,0,1-.17,0Zm-14.9,7c.06,0,.12,0,.14.1a.1.1,0,0,1-.12-.1ZM51.86,44.42c0-.05.13,0,.1.12a.17.17,0,0,1-.1-.12ZM66.14,50a.13.13,0,0,1-.14-.11s.11,0,.13.1Zm2.46,4c-.06,0-.14-.07-.1-.13a.17.17,0,0,1,.1.12Zm-2.08-3.76a.11.11,0,0,1-.13-.11s.11,0,.13.1Zm2.08,3.75c.06-.05.14,0,.11.12a.15.15,0,0,1-.1-.12Zm-10-3.34a.1.1,0,0,1-.07-.14.1.1,0,0,1,.07.14ZM69,51.43a.06.06,0,0,1-.1,0l.1,0Zm-7,1.18a5,5,0,0,1-1.08-1.07q-3.55-4.3-6.94-8.71c.16,0,.31.11.41.24Q58,47.95,62,52.61Zm3.79-2.9s-.06-.06-.07,0S65.73,49.75,65.74,49.71Zm1.9-1.48s-.1,0-.1,0l.11,0Zm.26,2.66s.08,0,.07,0-.08,0-.07,0Zm-.16-2.63a.06.06,0,0,1-.09,0l.1,0Zm-1.8,3.62s-.06,0,0-.06.06,0,0,.06Zm.17.08s-.06-.05-.07,0S66.1,52,66.11,52Zm4.17.07s.09,0,.08,0-.09,0-.08,0Zm-3.86-7.26s0-.06-.06,0S66.41,44.8,66.42,44.77ZM70.27,52s-.06-.06-.07,0S70.26,52.06,70.27,52Zm-2.62-6.37.1,0s-.09,0-.11,0Zm-2,6s.09,0,.08,0-.09,0-.08,0Zm.78-6.84s.09,0,.08,0-.09,0-.08,0Zm3,4.13s0,0-.06,0S69.4,48.94,69.41,48.9ZM69,46.12l.1,0a.06.06,0,0,1-.1,0Zm-.36,1.27s.09,0,.08,0-.09,0-.08,0Zm.47-1.24.1,0a.06.06,0,0,1-.11,0ZM70.42,48l.11,0s-.1,0-.11,0Zm-1,.92s.09,0,.08,0-.09,0-.08,0Zm-.09-2.68s-.1,0-.09,0l.1,0ZM64.86,51s-.06,0-.07,0S64.85,51,64.86,51ZM70,49.12s-.06-.06-.07,0S70,49.16,70,49.12Zm.52-2.56a.07.07,0,0,1-.1,0l.11,0Zm-.2-.08.11,0a.06.06,0,0,1-.11,0Zm.73.21.11,0a.06.06,0,0,1-.11,0Zm.11,0,.1,0a.06.06,0,0,1-.11,0Zm.2.08s-.11,0-.1,0l.1,0ZM47.81,42.89s.06,0,0,.06-.06,0,0-.06Zm23.62,3.94a.07.07,0,0,1-.1,0l.11,0Zm.1,0s-.1,0-.09,0l.1,0Zm1.11,1.84s-.1,0-.1,0l.11,0Zm0,0,.1,0a.06.06,0,0,1-.1,0ZM70.53,48s.08,0,.07,0-.08,0-.07,0Zm1.52,1.79s.08,0,.07,0-.08,0-.07,0ZM72,47l.1,0a.06.06,0,0,1-.1,0Zm1.75,3.43s-.06,0,0-.06.06,0,0,.06Zm-.58-.19s.08,0,.07,0-.08,0-.07,0Zm.35-1.26a.06.06,0,0,1-.1,0l.1,0Zm-2.9-5.43.1,0a.06.06,0,0,1-.1,0Zm2.18,5.22s.08,0,.07,0-.08,0-.07,0ZM48.64,43.37l-.06,0s0-.08.05,0Zm16,9.65s-.06-.06-.07,0S64.66,53.05,64.67,53Zm.32.26s-.06-.06-.07,0S65,53.31,65,53.28Zm8.81-5.85.11,0s-.1,0-.11,0Zm-.31,1.51s.08,0,.07,0-.08,0-.07,0Zm.61-1.4s-.1,0-.09,0l.1,0Zm-1.68-1.95s.08,0,.07,0-.08,0-.07,0Zm1.79,2a.06.06,0,0,1-.1,0l.11,0ZM73,45.68l.1,0a.06.06,0,0,1-.11,0Zm1,1.83s-.1,0-.1,0l.11,0Zm-.69-1.72s-.1,0-.1,0l.11,0Zm-.2-.08.1,0a.06.06,0,0,1-.1,0Zm-23.9-2-.07,0s0-.08,0,0ZM74.62,44s.09,0,.07,0-.08,0-.07,0Zm-.4,3.55s.08,0,.07,0-.08,0-.07,0ZM63.52,52s.08,0,.07,0-.08,0-.07,0Zm13-7.83s.09,0,.07,0-.08,0-.07,0Zm4,.29.11,0a.06.06,0,0,1-.11,0ZM65.52,59.05s.06,0,0,.06-.06,0,0-.06ZM54.22,46l-.07,0s0-.08.05-.05ZM78,42s.09,0,.07,0S78,42,78,42Zm-19.81,8.1s.06-.05.07,0l-.06,0Zm7,13.52s-.05-.06-.06,0S65.17,63.65,65.18,63.61Zm-4.54-1.76-5-5.35a.22.22,0,0,1,.16-.36,10.22,10.22,0,0,0,.95,1.22Zm-4.41-6.18,4,4.25c.05.07.11.18,0,.22q-1.87-2.07-3.95-4a.75.75,0,0,1-.19-.24A.21.21,0,0,1,56.23,55.67Zm.57,4.2.41.46a11.31,11.31,0,0,0,1.19,1.21.14.14,0,0,0,.1.05s.07-.06,0-.08c.55.66,1.13,1.3,1.73,1.92a.33.33,0,0,1-.34-.07,1.37,1.37,0,0,1-.22-.3,4.93,4.93,0,0,0-.76-.82l-1.5-1.39A1.65,1.65,0,0,1,56.8,59.87ZM45,52.19a.18.18,0,0,1-.2.14.37.37,0,0,1-.23-.14,1.23,1.23,0,0,1-.2-.5c-.14-.64-.26-1.28-.35-1.92a.42.42,0,0,1,0-.33c.11,0,.18.12.19.24a15.22,15.22,0,0,0,.35,2C44.66,51.9,44.78,52.18,45,52.19ZM56,72a.43.43,0,0,1-.13-.35,36.28,36.28,0,0,0,3.69,4.24,12.13,12.13,0,0,1-2.7-2.79Zm2.26-10.89a.76.76,0,0,1,.2.36L55.29,58a5.62,5.62,0,0,1-.44-.53.27.27,0,0,1-.08-.16.12.12,0,0,1,.12-.12s.06,0,.09.06Zm8.11,11.26a3,3,0,0,1-.58-.79l3.56,3.79a4.63,4.63,0,0,1-1.13-1Zm-6.34,1c.12,0,.21.13.28.23.5.72,1,1.41,1.57,2.09a4.85,4.85,0,0,1,.46.63s-.1,0-.14-.06l-1.43-1.81-.4-.51A1.76,1.76,0,0,1,60,73.39ZM59.73,73l-1.32-1.85-1.15-1.61c-.06-.09-.13-.21-.09-.31q1.36,1.86,2.66,3.76s0,.06,0,.06S59.75,73.06,59.73,73Zm-1.35.08a5.12,5.12,0,0,0-.49-.66l-.26-.31-1.05-1.36a1.53,1.53,0,0,1-.33-.58l.33.37c.25.3.48.61.72.92l.69.93A1.9,1.9,0,0,1,58.38,73.11Zm3.34-6.17L63,68.55l.38.47a4.69,4.69,0,0,1,.47.63,1.15,1.15,0,0,1-.41-.35L62.3,67.89A2.68,2.68,0,0,1,61.72,66.94Zm2.35.47,1,1.28a5.86,5.86,0,0,1-1-1,24,24,0,0,0-1.94-2.31,3.59,3.59,0,0,1-.59-.64c0-.06,0-.19,0-.17s0,0,0,0c.67.69,1.29,1.42,1.89,2.17Zm-.06.71c-.06,0-.14,0-.19-.07l-.55-.62a8.45,8.45,0,0,1-1-1.26c.05,0,.09,0,.12.06l1.26,1.5Zm-2-4.64a2.62,2.62,0,0,1-.44-.44L61,62.4a1.54,1.54,0,0,1-.36-.56.48.48,0,0,1,.16.13L62,63.31S62,63.44,62,63.48ZM65.25,75a1.37,1.37,0,0,1-.6-.5c-.18-.22-.37-.44-.54-.67a7,7,0,0,1-.5-.79l.84,1,.16.19Zm-6.86-7.28.73.93a2.69,2.69,0,0,1,.5.8A8.77,8.77,0,0,1,58.48,68,.38.38,0,0,1,58.39,67.73Zm4-5.34-.26-.27-.84-.88-.46-.48a1.1,1.1,0,0,1-.35-.58l.73.77.49.54.65.72S62.39,62.34,62.35,62.39Zm-2.35,5a1.58,1.58,0,0,1-.56-.5,7,7,0,0,1-.6-.83,5.11,5.11,0,0,1,.57.57C59.62,66.87,59.81,67.12,60,67.38ZM63.37,65c.05,0,.09.12.06.18l-.79-.81a.48.48,0,0,1-.18-.34,1.84,1.84,0,0,1,.45.43Zm-2.65-6.43a2.7,2.7,0,0,1,.74.73.46.46,0,0,1,.13.31A4.34,4.34,0,0,1,60.72,58.52Zm.71,6.64-.52-.61-.63-.76c-.05-.07-.11-.17-.05-.24l1.32,1.6s0,.07,0,.06S61.45,65.18,61.43,65.16Zm2,7.66c-.06.05-.14,0-.18-.08l-.6-.76-.45-.57s.07,0,.1,0C62.7,71.88,63.08,72.34,63.44,72.82Zm-2-8.58a.38.38,0,0,1,.09.27l-.93-1.14c.09-.06.2,0,.27.12C61.06,63.73,61.25,64,61.43,64.24Zm-1.67,4.08a16.72,16.72,0,0,1-1.13-1.39s-.05-.11,0-.13.06,0,.08,0l.8,1A1,1,0,0,1,59.76,68.32Zm-4.69,1.83L56,71.24c0,.07.11.15.07.22A4.75,4.75,0,0,1,55.07,70.15Zm5.83-2.86.9,1c.05,0,.1.14,0,.19a12.91,12.91,0,0,1-1-1.18S60.87,67.26,60.9,67.29ZM63,63.18l-.52-.57a.17.17,0,0,1,0-.2,5.5,5.5,0,0,1,.85,1A.5.5,0,0,1,63,63.18Zm-1-2.53a6.47,6.47,0,0,1-.76-.72.62.62,0,0,1-.2-.35l.69.66A.78.78,0,0,1,62,60.65Zm-2.26,3.8a2.89,2.89,0,0,1-.64-.71A.37.37,0,0,1,59,63.5,5.52,5.52,0,0,1,59.76,64.45Zm-3.52,7.17a.46.46,0,0,1,.23.16l.3.33a1,1,0,0,1,.27.41l-.33-.28A1.14,1.14,0,0,1,56.24,71.62Zm2.29-4.91a2.79,2.79,0,0,1-.49-.54A.2.2,0,0,1,58,66,1.1,1.1,0,0,1,58.53,66.71Zm1.39-2a4,4,0,0,1,.76.93c.07.12.26.18.22.3a.64.64,0,0,1-.3-.24A9.16,9.16,0,0,1,59.92,64.67Zm-.84,9.22.48.48c0,.06.12.14.08.21A1.32,1.32,0,0,1,59.08,73.89Zm6.7.12a5.39,5.39,0,0,1-.53-.54.55.55,0,0,1-.18-.32l.67.68C65.79,73.88,65.83,74,65.78,74ZM60.91,68.5a4.22,4.22,0,0,1,.54.58s.09.12.06.18A2.46,2.46,0,0,1,60.91,68.5Zm1.72,4.83.48.48c0,.06.11.14.08.21A1.32,1.32,0,0,1,62.63,73.33Zm-2.08-1.89.45.5c0,.06.11.14.07.21a3.27,3.27,0,0,1-.44-.47C60.58,71.61,60.52,71.52,60.55,71.44Zm.3-1.76a1.09,1.09,0,0,1,.37.37.52.52,0,0,1,.1.27A2.3,2.3,0,0,1,60.85,69.68ZM59,73.83l-.36-.45s-.07-.11,0-.15A.82.82,0,0,1,59,73.83ZM64.05,75c-.09,0-.18,0-.24-.13l-.27-.37c.09,0,.18.06.24.14Zm-3.75-17a.51.51,0,0,1,.29.21.44.44,0,0,1,.07.22A.7.7,0,0,1,60.3,58.07Zm4.54,13.55-.45-.45s0-.1,0-.11a2,2,0,0,1,.39.38S64.87,71.56,64.84,71.62Zm-2.6-2.73a.13.13,0,0,0-.14-.09s0-.09.07-.08a.2.2,0,0,1,.12.06.67.67,0,0,1,.23.35.53.53,0,0,1-.29-.24Zm-.74,3.73a.31.31,0,0,1,.21.29.57.57,0,0,1-.35-.43.21.21,0,0,1,.14.15Zm-3.23,1.15a.91.91,0,0,1,.31.44,1.09,1.09,0,0,1-.42-.48S58.23,73.74,58.27,73.77Zm6.15-6.35,0,.12a.83.83,0,0,1-.32-.35.28.28,0,0,1,.28.24Zm-7.21,3.22s-.08.07-.12,0a.71.71,0,0,1-.08-.15.73.73,0,0,0-.18-.17c-.06-.06-.12-.15-.08-.23a2.45,2.45,0,0,1,.44.47S57.21,70.62,57.21,70.64Zm4.54-5.16a.18.18,0,0,1,.16.22.5.5,0,0,1-.32-.45.48.48,0,0,1,.16.23Zm-1.22-6.39a.87.87,0,0,1,.36.42A.53.53,0,0,1,60.53,59.09Zm3.39,6.62a.78.78,0,0,1,.37.43A.78.78,0,0,1,63.92,65.71Zm1.17,5.1c.08.06.17.14.14.24a.51.51,0,0,1-.31-.37Zm-3.85.68c.18.06.2.31.3.47A.93.93,0,0,1,61.24,71.49Zm-3.43,1.78s-.05.07-.09.06a.18.18,0,0,1-.11-.08.79.79,0,0,1-.24-.41l.4.36A.1.1,0,0,1,57.81,73.27Zm2.8-4,.15.34a.6.6,0,0,1-.25-.41s.08,0,.09.08Zm5.82,3.93a.4.4,0,0,1-.28-.28A.37.37,0,0,1,66.43,73.19Zm-6.21-5.38c0-.08.13-.09.18,0a.35.35,0,0,1,.07.21.24.24,0,0,1-.23-.18Zm4.26,7.82a.19.19,0,0,1-.17-.21.4.4,0,0,1,.27.29.1.1,0,0,1-.1-.08ZM60.33,69a.22.22,0,0,1-.19-.18.28.28,0,0,1,.27.29.08.08,0,0,1-.08-.08Zm-.74,1.17a.65.65,0,0,1,.24.42A.65.65,0,0,1,59.59,70.21Zm2.62,1.21a.68.68,0,0,1-.27-.39s.09,0,.11,0Zm-2.08-1.28a.2.2,0,0,1-.06-.19.51.51,0,0,1,.19.35.23.23,0,0,1-.13-.16Zm5.29,2a.25.25,0,0,1,.19.19.3.3,0,0,1-.27-.3.11.11,0,0,1,.09.08Zm-3.7-1.45a.94.94,0,0,1,.2.35A.35.35,0,0,1,61.72,70.7Zm-5.55-1.29a.69.69,0,0,1-.22-.34C56.09,69.09,56.14,69.27,56.17,69.41Zm8.49,3.23a.13.13,0,0,1,0,.07l.1.25-.27-.27S64.61,72.61,64.66,72.64Zm.37.56a.45.45,0,0,1-.2-.27c.11,0,.17.13.2.24Zm-2.71,3.12c.13,0,.19.16.19.28a.58.58,0,0,1-.18-.26Zm-.56-4s0,0,.06,0a.34.34,0,0,1,.19.2.22.22,0,0,1-.24-.17Zm1.81-7.1a.23.23,0,0,1,.15.27.51.51,0,0,1-.15-.23Zm-3.21,1.55-.11,0c0-.08.13-.09.18,0a.29.29,0,0,1,.06.21.22.22,0,0,1-.12-.15Zm-1.16,8v.12a.31.31,0,0,1-.16-.28.21.21,0,0,1,.13.16Zm3.11-8.6a.17.17,0,0,1-.14-.21.37.37,0,0,1,.14.19Zm-.13-2.62a.41.41,0,0,1,.11.25.24.24,0,0,1-.14-.27Zm-1.52,4.66a.14.14,0,0,1,.13.19.26.26,0,0,1-.12-.15Zm-.18,2.25a.47.47,0,0,1,.11.25.24.24,0,0,1-.15-.27Zm-5.2-2.27c.1,0,.16.1.15.2a.37.37,0,0,1-.14-.19Zm5.39-4.46a.18.18,0,0,1,.11.21.22.22,0,0,1-.12-.21ZM58.74,69.2a.14.14,0,0,1,.13.19.26.26,0,0,1-.12-.15Zm0,5.23c0-.06.08-.1.13-.06a.21.21,0,0,1,.06.17l-.19-.12Zm6.82-3a.16.16,0,0,1-.14-.2.3.3,0,0,1,.14.19Zm-4.68-5a.24.24,0,0,1-.07-.18.14.14,0,0,1,.09.21Zm.68,5.53c.1,0,.16.1.15.2a.3.3,0,0,1-.14-.19Zm.84,1.13a.18.18,0,0,1-.11-.21.2.2,0,0,1,.12.21Zm-1-6.11a.18.18,0,0,1-.11-.21.22.22,0,0,1,.12.21Zm2.07,3.16a.14.14,0,0,1,.13.19.28.28,0,0,1-.12-.16Zm0,4.26a.26.26,0,0,1-.07-.18.14.14,0,0,1,.09.21Zm-.58-3.67a.09.09,0,0,1-.08-.13.09.09,0,0,1,.07.13Zm-2.62.44,0-.11c.07,0,.12.12,0,.13Zm3.35.34s0,0-.07,0a.11.11,0,0,1,0-.11.11.11,0,0,1,.09.08ZM54.85,70l0-.12a.13.13,0,0,1,.1.06s0,.09-.07.06Zm6.65-3.23s0-.06.07,0,0,.07,0,.11a.1.1,0,0,1-.09-.08Zm.48,3a.1.1,0,0,1-.07-.14.1.1,0,0,1,.07.14Zm-.18-.17a.09.09,0,0,1-.07-.13.09.09,0,0,1,.07.13Zm-6.27-1.13,0,.12s-.08,0-.09-.06,0-.09.06-.06Zm8.91,1.69s.14,0,.1.12a.15.15,0,0,1-.1-.12Zm.47.54c-.07,0-.15-.07-.11-.13a.17.17,0,0,1,.1.12Zm-9-1.62c-.06,0-.14-.06-.1-.12a.14.14,0,0,1,.1.11ZM62,65.77l0,.12a.13.13,0,0,1-.1-.06s0-.09.06-.06Zm2.67.71,0,.11c-.07,0-.11-.11,0-.12Zm-4.82,3.19s0,.06-.08,0,0-.07,0-.11.09,0,.09.09Zm-1.37-.73s0,0,.07,0,0,.08,0,.11a.09.09,0,0,1-.09-.08ZM59.43,70s0,.06-.07,0a.11.11,0,0,1,0-.11.11.11,0,0,1,.09.08Zm1.82,2.33s0,.06-.08,0,0-.07,0-.11a.09.09,0,0,1,.08.08Zm-1.8-2.16s0-.06,0,0,0,.06-.06,0Zm1.27.66s.06,0,0,.06-.06,0,0-.06Zm2,6s0-.06.06,0,0,.06-.06,0Zm-1-3.84s0-.06.06,0,0,.06-.06,0Zm-5-3-.07,0s0-.07.05,0Zm8.72,5.15s0,.06-.06,0,0-.06.06,0ZM61.22,71.5s-.06,0-.07,0S61.21,71.54,61.22,71.5Zm-.42-4.24s-.06-.05-.07,0S60.79,67.3,60.8,67.26Zm2.38,3.82s0,.06,0,0,0-.06,0,0Zm-5,2.65s-.06-.06-.07,0S58.14,73.76,58.15,73.73Zm-1.09-1.22s.08,0,.07,0-.08,0-.08,0Zm8-.67s-.07,0,0-.06.06,0,0,.06Zm.14.1s-.06,0,0-.06.06,0,0,.06ZM60.87,64s.06-.05.07,0l-.06,0Zm-.59-.59s.09,0,.08,0-.09,0-.08,0Zm6.31,10s0-.06,0,0,0,.06,0,0Zm-2-3s-.06,0,0-.06,0,0,0,.06Zm-.19-.25s-.06-.06-.07,0S64.42,70.2,64.43,70.17Zm2.08,3.11s0-.06.06,0,0,0-.06,0Zm-1.19-2.15s0-.06.06,0,0,.06-.06,0ZM60.4,63s.09,0,.08,0-.09,0-.08,0ZM65,68s.06,0,0,0S65,68,65,68Zm.52,3.39s.09,0,.07,0-.08,0-.07,0ZM61,59.59s-.06-.05-.07,0S61,59.63,61,59.59ZM43.27,48.77a4.44,4.44,0,0,1,0-2.88,2.77,2.77,0,0,0,1,3.15l-.07-3.36a4.73,4.73,0,0,0,1,3.12,6.26,6.26,0,0,1-.36-3,3.45,3.45,0,0,0,1.2,2.89A8.7,8.7,0,0,0,46.22,45l.32,2.51a7.14,7.14,0,0,0-1.06-7,8.08,8.08,0,0,1-1.36-3.88,94.47,94.47,0,0,1-1.07-11.76,64.23,64.23,0,0,0,2.31,15.46,68,68,0,0,1-1.6-16.64,63.31,63.31,0,0,0,2,16.61,116.28,116.28,0,0,1-1-17c.09,5,.39,9.92.9,14.85.12,1.16.38,2.51,1.42,3l.27-8.06a32.16,32.16,0,0,0,.5,7.65,7.56,7.56,0,0,0,.41-3.91l.2,2.43q.26-3.63.23-7.28a66.33,66.33,0,0,1,0,8.46,15.88,15.88,0,0,0,.71-5l0,3.94L49.5,33c.11,1.95.23,3.91.34,5.86a106.09,106.09,0,0,0,.23-10.7l.24,8.82.56-5.38L50.73,35c.25-2.53.5-5.05.76-7.58.32-3.21.88-6.85,3.57-8.65,2.33-1.56,2.37-5,1.42-7.66A17,17,0,0,0,43.51.54a4.79,4.79,0,0,0-2.32,0,5.56,5.56,0,0,0-2,1.4c-4,3.87-8.22,8-9.72,13.38-.44,1.6-.45,3.66,1,4.5,2.8,1.66,4,5.08,4.61,8.27s1,6.6,3,9.19c-1.65-5.36-3.32-10.81-3.45-16.42A41.49,41.49,0,0,0,39.76,39,128,128,0,0,1,36.29,26.1a64.44,64.44,0,0,0,4.18,13.12A95.83,95.83,0,0,1,36,20.31a89.93,89.93,0,0,0,4.95,19.24l-2.28-9.07,2.76,9-1.49-6.73L42.14,40a.54.54,0,0,0-.91.28l-2.9-2.51c-.22-.19-.53-.4-.79-.25s.07.67.22.41a53.9,53.9,0,0,1-3.55-12.06c-.68-4-4.71-6.85-8.77-7.16s-8,1.45-11.33,3.8C10.34,25.23,4.79,31.3,2.82,35.47,4,31.35,9.57,25.57,13,23a22.91,22.91,0,0,1,7.55-4.12,11.19,11.19,0,0,1,8.41.68,15.25,15.25,0,0,1,2.82-10A45.12,45.12,0,0,1,39,1.65,6.31,6.31,0,0,1,40.84.28,5.36,5.36,0,0,1,43.6.09C51.57,1.15,58,9,57.57,17c3-2,7-1.87,10.42-.66s6.34,3.42,9.19,5.62c6.13,4.71,12.51,10,14.59,17.47,2,7-.44,14.71-4.75,20.59a18.25,18.25,0,0,1-5,4.91,12.57,12.57,0,0,1-8.25,1.75,25.37,25.37,0,0,1,.4,11.43,6.88,6.88,0,0,1-1,2.83,5.22,5.22,0,0,1-4.5,1.88,11.28,11.28,0,0,1-4.77-1.61A29,29,0,0,1,51.22,67.06a6.71,6.71,0,0,1-11.68-.15,22.59,22.59,0,0,1-24.78,9.58,2.31,2.31,0,0,1-1.24-.68,2.26,2.26,0,0,1-.35-1.06,16.14,16.14,0,0,1,.64-7.43A26.71,26.71,0,0,1,1.4,53.56,21,21,0,0,1,2.89,35.35,23.83,23.83,0,0,0,4.05,58,23.8,23.8,0,0,0,23.87,69a18.48,18.48,0,0,1-9.68-1.48,14.41,14.41,0,0,0-.4,8.15A19,19,0,0,0,38.4,65.22Q36,69.39,33.23,73.38l5.53-5.9a2.83,2.83,0,0,0,.74-1c.52-1.58-1.56-2.66-3.17-3a67.87,67.87,0,0,1-6.42,9.67,69.06,69.06,0,0,0,6.3-10.16,75.61,75.61,0,0,1-6.4,8.29,56.51,56.51,0,0,0,8-12.31,6.21,6.21,0,0,0-2.25,3.24l0,.18L28.86,72l8.3-12.86Q34,63,30.87,66.9l5.64-7.78q-6.33,6.66-12.64,13.33A128.06,128.06,0,0,0,35.54,59.06a2.15,2.15,0,0,0-1.37-.72c-2,1.64-3.05,4.17-4.36,6.43s-3.31,4.47-5.91,4.62a10.19,10.19,0,0,0,6.41-6.54c.08-.26.11-.61-.12-.74s-.42.42-.16.35l.83-3.12L29.81,61A2.79,2.79,0,0,1,31.05,59c.27-.14.16.52-.12.4s-.28-.51-.23-.81a29,29,0,0,1,2.13-7.85,10.48,10.48,0,0,1,5.73-5.53,22.05,22.05,0,0,0-5.13,4.65,12.79,12.79,0,0,1,4-2.75l-3,1.9a7.57,7.57,0,0,0,4.84-4.34l.88,4.76a1.58,1.58,0,0,0,1.3-1.07c-1.07.1-1.16-1.56-.79-2.58l2-5.47a80.36,80.36,0,0,1-2.31-11.41,48.7,48.7,0,0,0,2.85,11.46c-.65-3.12-1.29-6.24-1.94-9.37l2.31,9.4a14.53,14.53,0,0,0-2.69,7.07l1.25.64a3.36,3.36,0,0,1,.12-2.87,3.09,3.09,0,0,0,1,3.59m.36,5.2c-.05,0,0,.09,0,.08a.26.26,0,0,1,0-.15s-.09,0,0,.06m5.43,6.89a2.52,2.52,0,0,0,.71,1s.09.07.11,0l-.82-1.06M50.7,35.67s0,0,0,0,0,0,0,0a.27.27,0,0,0,0,.33.21.21,0,0,0,0-.27m-.4,1.82s-.06.06,0,.06a.29.29,0,0,0,0-.35c-.06.09-.09.21,0,.27m-8.08,23.7c0-.08.07-.13.15-.17a.5.5,0,0,0,.21-.36,1.54,1.54,0,0,0,0-.43.9.9,0,0,0,.23-1,.16.16,0,0,0-.09-.12c-.07,0-.16,0-.2.09a.52.52,0,0,0,0,.25l.05.73a1.46,1.46,0,0,1-.26.66.51.51,0,0,0-.09.16.14.14,0,0,0,.08.16M31.87,56.24a.48.48,0,0,0,.16-.08.63.63,0,0,0,.11-.12,5.69,5.69,0,0,1,.86-.91c.07-.06.19-.12.26-.05l0-.34c0-.05,0-.11-.06-.13s-.1,0-.14,0A6.38,6.38,0,0,0,31.94,56a.28.28,0,0,1-.12.12c-.06,0-.14,0-.12-.09a3.69,3.69,0,0,1,.54-.81,3.65,3.65,0,0,1,.86-.85c.18-.11-.09-.45.07-.6-.07,0-.15,0-.2.1L32.05,55a.21.21,0,0,0-.06.1s0,.09.05.13,0,.11-.05.11a.39.39,0,0,0-.31.27.89.89,0,0,0,0,.43.11.11,0,0,0,0,.18.22.22,0,0,0,.22,0M47,53.73l-1-1.5a1.94,1.94,0,0,1-2.87-.3c.06.67.86.94,1.49,1.19s1.3,1,.88,1.49l-.8-.45a.59.59,0,0,1,0,.72,2.56,2.56,0,0,0-.82-.88c-.13.62.44,1.17,1,1.44a4.36,4.36,0,0,1,1.66.89c.41.49.26,1.46-.38,1.49a5.66,5.66,0,0,1,.37,2.23,1.7,1.7,0,0,1-.39-1.3c-.44.26-.94-.23-1.22-.66l-1-1.54a1.77,1.77,0,0,0-.63-.67.59.59,0,0,0-.79.25.7.7,0,0,1,.67.33,5.3,5.3,0,0,1-4.88-1.08A3.51,3.51,0,0,0,42.93,57a2.93,2.93,0,0,1-4.79-2.15c1,1.3,2.89,1.49,4.54,1.57a11.4,11.4,0,0,1-3.1-1.89,3.88,3.88,0,0,1-1.34-3.25,10.46,10.46,0,0,0,3.07,3.63l-1.59-5.63a7.23,7.23,0,0,1-.34-3.89,12.87,12.87,0,0,1-3.17,3.76,9.58,9.58,0,0,0-1.89,1.7c-1.12,1.54-.82,3.68-.28,5.5a3.81,3.81,0,0,0,.77,1.56,3.23,3.23,0,0,0,2.56.74,13.36,13.36,0,0,1,2.75-.11,2.22,2.22,0,0,1,2,1.67l.08-1.27c.52-.29.93.53,1,1.13l.18,2.76a1.46,1.46,0,0,0,.41-2.19c0,.18,0,.39-.11.5s-.42-.08-.29-.21a1.46,1.46,0,0,0,0-1.68,1,1,0,0,1,.52,1.15l.28-.94a18.35,18.35,0,0,1,0,3.85c.72-.16.86-1.15.67-1.86s-.53-1.48-.21-2.15l.83,3.79a6,6,0,0,0-.18-2.46,3.07,3.07,0,0,1-.44,3.66,4,4,0,0,0,.33-1.94,2.23,2.23,0,0,1-1.74,1.59A1.64,1.64,0,0,0,44,62.37c-.56.87-1.14,1.71-1.76,2.52-.28-.63.17-1.32.54-1.9s.65-1.42.16-1.9A3.79,3.79,0,0,1,41,64.35a7.67,7.67,0,0,1,1.5-3.2,7.49,7.49,0,0,1-3,2l2.33-2a4.6,4.6,0,0,1-3,1.45l.31-.65a.53.53,0,0,1-.6,0A2.75,2.75,0,0,1,39.94,61a9.57,9.57,0,0,0-2.24.45,1.81,1.81,0,0,0-1,.63.71.71,0,0,0,.25,1c1.28.43,2.71,1,3.19,2.25.34.88.12,1.93.58,2.75a3.47,3.47,0,0,0,2.8,1.36,20.89,20.89,0,0,0,3,.14A4.89,4.89,0,0,0,49.12,69a6.27,6.27,0,0,0,1.55-2,18,18,0,0,1,4.69-5.13.49.49,0,0,0,0-.71,1.33,1.33,0,0,0-.72-.33l-2.13-.52a8,8,0,0,1,1.88,1.32A3.74,3.74,0,0,1,52.55,61l.76.75a3.7,3.7,0,0,1-2.2-.66,2.56,2.56,0,0,1,.74,1.19l-1.8-1.1a8,8,0,0,1,1.54,1.93,6,6,0,0,1-2.44-1.54,5,5,0,0,1,.6,1.17,4.57,4.57,0,0,1-1.44-1,2.15,2.15,0,0,1,.43,1.34A4,4,0,0,1,47.25,59l.64.62.3-.69L48.82,60a1.14,1.14,0,0,1,0-.73,5.38,5.38,0,0,0,2.65,2.46,21.62,21.62,0,0,1-3-3.32,26.7,26.7,0,0,0,5.39,2.91,19.93,19.93,0,0,0-3.61-1.87c-.71-.28-.62-1.43,0-1.89a3.51,3.51,0,0,1,2.22-.42,2.93,2.93,0,0,0,2.18-.54,2.3,2.3,0,0,0,.61-1.37,5.75,5.75,0,0,0-1.9-4.64,15.83,15.83,0,0,0-4.41-2.71c-.44-.21-1-.61-.78-1.07a41.44,41.44,0,0,1,12.25,9.73l-5.78-5.35a11.69,11.69,0,0,0,2.9,4L60.33,58a46.55,46.55,0,0,0-4.88-4.43,37.77,37.77,0,0,0,4.64,5.07c-1.5-1.31-3-2.68-4.37-4.08-.74,1,.07,2.44.85,3.45l3.85,5L55.25,56.7a1.66,1.66,0,0,0-.76.79l4.34,5.79-4.36-5.41c-.2-.25-.72-.4-.71-.08l6.94,8.39a87,87,0,0,1-7.27-8.53,62.86,62.86,0,0,0,6.43,8.44l-4-4.18L58.76,66l-3.25-3.88A23.24,23.24,0,0,0,58,65.94l-2.82-3.32a32,32,0,0,0,3.16,5.06l-3.6-4.76a20.54,20.54,0,0,0,3.49,5.52,52.51,52.51,0,0,1-3.82-5.1c-.49.14-.32.87-.06,1.31l2.75,4.51A41.51,41.51,0,0,1,53.72,64a1.77,1.77,0,0,0-1.07,1.52l.67-1a11.57,11.57,0,0,0,2,3.71,23,23,0,0,1-2.23-2.89,39.78,39.78,0,0,0,3,4.68l-3.27-4.15c-.22-.28-.74-.52-.84-.17l3.72,5.94q-2-2.79-3.92-5.68l-.25.46a26.58,26.58,0,0,0,11.82,14c2.45,1.38,5.35,2.38,8.05,1.59,1.16-.35,1.72-1.66,2-2.83a23.35,23.35,0,0,0-.08-11.94,6,6,0,0,1-7.11.12,8.33,8.33,0,0,1-2.19-2.63c-1.35-2.37-2-5.07-3.18-7.56a21.6,21.6,0,0,0-8-9.13q3.51,3.78,7.13,7.45l-6-5.84a8.68,8.68,0,0,1-2.31-3,3.09,3.09,0,0,0-1.88-1.89,2.29,2.29,0,0,0-2.48.7,1.85,1.85,0,0,0,.21,2.48,3,3,0,0,1,.74,2.43v2.52c0,.81.15,1.84.94,2.06a1.24,1.24,0,0,0,1.36-.75,2.72,2.72,0,0,0,.08-1.67A7.41,7.41,0,0,0,48,48.06c-.25-.19-.52-.59-.25-.76a7.38,7.38,0,0,1,3.4,4.86,3.32,3.32,0,0,1-.71,3.1,1.59,1.59,0,0,0,1.7-1.39,4.62,4.62,0,0,0-.42-2.38,2.14,2.14,0,0,1,.73,3,3,3,0,0,1-3.15,1.09,2.1,2.1,0,0,0,3.64-1.75c.13-.26.5.06.53.35A2.25,2.25,0,0,1,52,56.48,2.76,2.76,0,0,1,49.27,56a6.28,6.28,0,0,1-1.6-3l-1-3,1.1,2.22a5.86,5.86,0,0,0-.46-4,5.35,5.35,0,0,1-3.69,1.16l.48,2.57a3.19,3.19,0,0,1-.53-1.82c-.1-.64-.57-1.37-1.2-1.24a5.38,5.38,0,0,0,.69,3.12,5.38,5.38,0,0,1-.47-2.8,6.28,6.28,0,0,0,.77,2.67L43,49.31a8.1,8.1,0,0,1,.61,2.17c.24.72,1.13,1.36,1.71.87a6.66,6.66,0,0,1-.59-2.75l.81,2.54a2.8,2.8,0,0,0,0-1.85c0,1.32,2,2,2,3.29l-.6-.48,1.57,3.38-2-2.76A4.85,4.85,0,0,0,48,56.08l-1.37-.22a1.41,1.41,0,0,1,.5-.74c-.4-.21-.85-.47-.93-.92s.62-.87.83-.47m15.11-5-7.38-6.17,6.79,7.84-6.29-6.8a2.29,2.29,0,0,0-1.61-1q3.43,4.59,6.65,9.33-3-4.1-6-8.2c-.45-.62-1.19-1.32-1.86-.94A128.61,128.61,0,0,1,61.37,55,97.34,97.34,0,0,0,52.3,43.65c-.46-.49-1.08-1-1.7-.78A12.19,12.19,0,0,1,54,46a7.26,7.26,0,0,0-6.53-3.21l-.3,2.3a2.12,2.12,0,0,1,2.49-.88A6.16,6.16,0,0,1,52,45.78l5.16,4.79a31.4,31.4,0,0,0-4.77-3.83l6.52,6.5a25.74,25.74,0,0,0-8-8.77c2.07.4,3.68,2,5,3.63a35,35,0,0,1,5,8.35c1.08,2.53,2,5.32,4.13,7A6.48,6.48,0,0,1,63,61.3a15.6,15.6,0,0,0,2.62,4.79A5.43,5.43,0,0,0,70.54,68c2-.41,3.8-2.39,5.83-1.93s4.34-.72,6.08-2.1c6.35-5,10.31-13.23,9.42-21.28a21.55,21.55,0,0,0-4.16-10.47c-3.26-4.32-8-7.23-12.24-10.6-2.62-2.09-5.21-4.46-8.46-5.31a13,13,0,0,0-5.62-.1c-3.39.62-6.79,2.46-8.25,5.59a14,14,0,0,0-1,3.67,68,68,0,0,0-.86,13.74,6.53,6.53,0,0,1-.41-2.18,6.2,6.2,0,0,1-3.67,4.58c.16.48.8.57,1.31.58l6.84.06c5.09,0,10.25.09,15.2,1.31l-7-1a15.66,15.66,0,0,0,5.83,2.21,13.77,13.77,0,0,1-6.23-2.2l-1.4,0L64.29,44a9.51,9.51,0,0,0-5.18-1.28,43.85,43.85,0,0,0,6.71,3.71l-7.91-3.81c2,2.11,4.71,3.42,7.34,4.68a22,22,0,0,1-6.31-3.49c-1-.8-2.36-1.73-3.45-1l6.62,6m-18.79,5a.83.83,0,0,1,1.13.43c.14,0,.06-.24,0-.35.14-.16.41-.06.57.09s.29.34.51.37A2.13,2.13,0,0,0,43.94,53a2.11,2.11,0,0,1-.62-.17,1.26,1.26,0,0,1-.47-.73l-.55-1.53a2,2,0,0,1,0-1.86l-.48-.37a1.16,1.16,0,0,1-.45.94l.23,0c.2,0,.14.34,0,.48s-.31.34-.2.51a8,8,0,0,1,1.43,4.08.54.54,0,0,1-.09.42c-.11.11-.35.07-.35-.08a9.47,9.47,0,0,0-1.51-4.51c0-.09-.2-.19-.24-.09a.11.11,0,0,0,0,.08A20.18,20.18,0,0,0,41.53,54a2.12,2.12,0,0,0,.29.63,1.15,1.15,0,0,0,1,.45,1.11,1.11,0,0,1-.57.5c.24.17.57,0,.87-.07a.75.75,0,0,1,.78.78c0,.32.25.57.53.72a1.71,1.71,0,0,1,.75.54,2.87,2.87,0,0,1,.17.59.54.54,0,0,0,.39.43,1.57,1.57,0,0,1,.55-1.19.6.6,0,0,0,.19-.72,1.79,1.79,0,0,0-.51-.62c-.1-.09-.25-.19-.37-.13s.17.25.26.37.08.36-.07.37a.28.28,0,0,1-.12,0,2.12,2.12,0,0,1-.6-.47.29.29,0,0,0,0-.45.73.73,0,0,0-.48-.18,1.26,1.26,0,0,1-.51-.11.78.78,0,0,1-.25-.23,2.48,2.48,0,0,1-.56-1.47m-10.7,3.15a.81.81,0,0,1,.47-.33c.2,0,.4.22.28.37l-.28-.17-1.26,1.3A3,3,0,0,0,31,60.4a33.08,33.08,0,0,1,2-2.71c.18-.23.48-.48.74-.34A10,10,0,0,0,32.22,59a8.38,8.38,0,0,0-1,1.54,8.13,8.13,0,0,0-.6,2.4A46,46,0,0,1,33.9,58.3c.11-.14.27-.29.44-.24a7.51,7.51,0,0,1-1-2.87,4.12,4.12,0,0,0-1.54,1.91l1.33-1.63c.12,0,.1.19,0,.29l-1.25,1.53a1.75,1.75,0,0,0-.54,1.1l1.3-1.5m6.65,3.59a9.89,9.89,0,0,1,.81-1.41L39,58.91a.44.44,0,0,0-.2,0,.36.36,0,0,0-.15.15c-.31.47-.6,1-.9,1.42l-.43.7a4.62,4.62,0,0,0,.67-.33.35.35,0,0,0,.14-.13l.75-1.31a.65.65,0,0,1,.18-.22.22.22,0,0,1,.27,0,14,14,0,0,0-1,1.56,1.67,1.67,0,0,0,.5,0,.61.61,0,0,0,.4-.28m1.93-5a3.3,3.3,0,0,0,1.12.64,1.48,1.48,0,0,0-.66-.82c-.3-.2-.63-.34-.93-.53a7.24,7.24,0,0,1-1-.82,5.55,5.55,0,0,1-1.27-2.13c-.12,0-.11.19-.07.31a3.68,3.68,0,0,0,1.25,2.11c.17.1.35.18.52.29a8.58,8.58,0,0,1,1.05,1m-.32,4.78a.4.4,0,0,0,.29-.43.63.63,0,0,0-.31-.45,1.72,1.72,0,0,0-.54-.18,5.53,5.53,0,0,0-.85,1.47,7.19,7.19,0,0,0,1.13-.18.75.75,0,0,0,.13-.06c.06-.06.07-.16.15-.17m12,1.44c0-.08-.06-.17-.13-.22a13.11,13.11,0,0,0-1.71-1.15l-1.77-1a.34.34,0,0,0,.06.12,6,6,0,0,0,2.27,1.76c.42.18.87.32,1.28.53M33.08,53.46a.82.82,0,0,0,.14-.52.07.07,0,0,0,0-.06c0-.05-.1,0-.15,0a2.58,2.58,0,0,0-.88,1.36.45.45,0,0,1-.08-.45,1.84,1.84,0,0,1,.48-.67l.25-.26A1.26,1.26,0,0,0,33.3,52l-.68.62a1.21,1.21,0,0,0-.16.16,2.2,2.2,0,0,0-.4.81,6.87,6.87,0,0,0-.28,1.68c.1,0,.12-.13.13-.22a1.42,1.42,0,0,1,.44-.75l.73-.81M51.69,42.77a43.68,43.68,0,0,1,3.88,4.49,1.75,1.75,0,0,0,.65.62q-1.78-2.45-3.77-4.71c-.2-.23-.47-.48-.76-.4m2.19-.23,1-.07a1.79,1.79,0,0,0-.83-.13l-4.65,0c-.08,0,0,.14.05.17a2.45,2.45,0,0,0,1.14.15l1.53-.07a1,1,0,0,0,.53-.13c.14-.1.32,0,.49,0a2.21,2.21,0,0,0,.73,0M35.62,49a2.68,2.68,0,0,0,.3-.05.93.93,0,0,0,.26-.18l.89-.82s0,0,0,0-.1-.08-.17,0A27.64,27.64,0,0,0,33.6,50a1.14,1.14,0,0,0-.56.74,12.09,12.09,0,0,1,2.05-1.52,1.51,1.51,0,0,1,.53-.21m5.72,15a.25.25,0,0,1,.1-.17,5.58,5.58,0,0,0,1.27-1.94.77.77,0,0,0,.07-.42c-.13,0-.23.13-.31.24a6,6,0,0,0-1.2,2.12c0,.07,0,.17.07.17m-8-13,.46-.4c.24-.2.47-.41.72-.6a9.69,9.69,0,0,1,1.11-.79c.05,0,0-.12,0-.13a.22.22,0,0,0-.17.06c-.68.44-1.34.91-2,1.4a2,2,0,0,0-1,1.31.11.11,0,0,0,0,.13,2.76,2.76,0,0,1,.82-1m16.78,7.28a.37.37,0,0,0-.1.22c0,.23.23.38.44.46a14.06,14.06,0,0,0,1.43.47.11.11,0,0,0,.11,0s0-.08,0-.09a7.42,7.42,0,0,1-1.39-.88.49.49,0,0,1-.16-.19.18.18,0,0,1,0-.22.44.44,0,0,0-.39.22m.29,3.95.81.51a2.14,2.14,0,0,0-.28-.39l-1-1.2c-.09-.11-.19-.23-.3-.34s-.27-.29-.41-.43L49,60.22c-.07,0,0,.14,0,.2l.66,1a1.43,1.43,0,0,0,.39.42c.1.06.25.14.21.25s.06.18.14.24m4.05-2.21c-.12-.14-.24-.27-.35-.41s-.31-.39-.46-.58l-.54-.7a4,4,0,0,1-.45-.65.55.55,0,0,0-.18-.24c-.09,0-.23,0-.24.09a.47.47,0,0,1,.22.26,5.38,5.38,0,0,0,.46.71l.38.52.39.5a1.07,1.07,0,0,0,.77.5m-2.5-1,.25.27c.16.18.38.38.61.32l-1.06-1.45L51.57,58a.33.33,0,0,1-.09-.22.23.23,0,0,0-.29-.08.17.17,0,0,0,0,.27c.27.16.34.5.5.77a3.27,3.27,0,0,0,.28.37M39.35,62.2a.13.13,0,0,0,0,.15c0,.06.13,0,.19,0a5.45,5.45,0,0,0,1.67-1.14,3,3,0,0,0-1.14.35l-.25.16a1.64,1.64,0,0,0-.44.47m-1.43-2.86a8,8,0,0,1-.61,1.11L37,61c-.09.15-.18.29-.28.43.23,0,.42-.18.53-.39l1.23-2.13a.32.32,0,0,0-.36.09,1.16,1.16,0,0,0-.18.35m15.71.5a.46.46,0,0,1-.16-.15l-.38-.5-.43-.58-.78-1.07c0-.06-.14,0-.15.05a.28.28,0,0,0,.07.19l.45.66a3.73,3.73,0,0,0,.39.5,2.34,2.34,0,0,1,.32.31.44.44,0,0,1,.08.42.62.62,0,0,0,.59.17m-5.26,2.39-.55-1-.21-.4-.18-.33a1.06,1.06,0,0,0,.06.5,5,5,0,0,0,1,1.73.81.81,0,0,0-.13-.45m.86-19.56c.06,0,.14,0,.13-.08a2.91,2.91,0,0,1-.63-.21.74.74,0,0,0-.65,0s-.06,0-.09,0l-.62-.15a.22.22,0,0,0,.11.24.57.57,0,0,0,.26.08,1.33,1.33,0,0,0,.56,0,.33.33,0,0,1,.17,0,2.15,2.15,0,0,0,.76.09m3.69,15,.81,1.15a12,12,0,0,0,.74,1c.06.07.16.14.24.09-.52-.67-1-1.36-1.52-2a.85.85,0,0,1-.06-.17.18.18,0,0,0-.12-.13s-.13,0-.11.09l0,0M42.35,64.46l.14,0a2.43,2.43,0,0,0,.53-1,.17.17,0,0,0,0-.12s-.08-.06-.1,0-.28.29-.4.45a.92.92,0,0,0-.17.7m5.92-2.95,0,0s.08,0,.08-.08a.22.22,0,0,0,0-.11,2.7,2.7,0,0,1-.31-.58,10.16,10.16,0,0,0-.38-1.14s0-.08-.07-.09a.07.07,0,0,0-.1,0,.09.09,0,0,0,0,0l.16.54a3.47,3.47,0,0,0,.62,1.35m-16-8.84a.44.44,0,0,0,.2-.18,6.75,6.75,0,0,1,.64-.67c.23-.2.5-.42.48-.72a5,5,0,0,0-.59.53c-.15.15-.28.31-.42.47a1.11,1.11,0,0,0-.31.57m21.33-6.22c.37.34.74.69,1.09,1a5.22,5.22,0,0,0,.61.55.91.91,0,0,0-.3-.43l-1.18-1.15a.25.25,0,0,0-.12-.08s-.1,0-.1.06m-1.34,6.36a2.34,2.34,0,0,1,.12.74c0,.08,0,.19.11.17A2.4,2.4,0,0,0,52,51.93a2.92,2.92,0,0,0,.25.88m-5.58,0c.06,0,.14,0,.15,0s.1.06.13,0a.2.2,0,0,0,0-.17,2,2,0,0,0-.58-.55s-.08-.05-.11,0,0,.09,0,.14l.21.39c.05.09.12.2.23.18m4.84,6.14-.67-1c0-.06-.15,0-.19,0a.26.26,0,0,0,0,.23,1,1,0,0,0,.3.33l.56.45m-3.3,1.7c.09.28.21.59.49.69a12.77,12.77,0,0,1-.58-1.49c-.1,0-.11.15-.08.25l.17.55m4.85-6.38a1.93,1.93,0,0,1-.3,1.26s-.07.09-.06.14.06.11.1.08,0,0,0,0a1.8,1.8,0,0,0,.39-1.2c0-.11,0-.25-.16-.25m-21.67,3.3c.1,0,.13-.14.14-.24a1.42,1.42,0,0,1,.39-.94.25.25,0,0,0-.32.07.66.66,0,0,0-.13.32,1.78,1.78,0,0,0-.08.79m17.46,3.71a.48.48,0,0,0,0-.37l-.41-1.07c0-.07-.12-.15-.16-.08a.09.09,0,0,0,0,.07,14.19,14.19,0,0,0,.59,1.45M40.4,62.51c-.08.06-.17.15-.15.25a8.19,8.19,0,0,0,1.18-.93.84.84,0,0,0-.5.24l-.53.44m.3-1.45a.81.81,0,0,0,.6-.13,1.12,1.12,0,0,0,.39-.52l-1,.65m8.1.75.36.41s.05.05.08.05.06-.13,0-.2a5.68,5.68,0,0,0-.47-.51c-.09,0,0,.18,0,.25m-7.24-2.54c-.08,0-.14.09-.1.16s.11.12.14.2-.05.36.09.42a.78.78,0,0,0-.09-.74l0,0M38.69,37.94a4.16,4.16,0,0,0-.24-.47c0-.07-.09-.16,0-.22s-.14,0-.15.09a.28.28,0,0,0,0,.2.71.71,0,0,0,.38.4m3.05,22.92a.5.5,0,0,0,.3-.24l.16-.21-.21,0a.66.66,0,0,0-.25.43m9.66,6a.24.24,0,0,0-.24-.17.46.46,0,0,0,.31.35.26.26,0,0,0-.07-.18m1-12.47a.71.71,0,0,0,0-.21s0-.11-.08-.08,0,.14-.08.2-.06.17,0,.18.08,0,.1-.09m1.1,6,.37.11a.22.22,0,0,0-.37-.11m-19.3-11a.22.22,0,0,0,.15-.13.51.51,0,0,0-.35.19.21.21,0,0,0,.2-.06M47.46,41a.2.2,0,0,0-.11-.2.21.21,0,0,0,0,.17.08.08,0,0,0,.14,0M39.52,61.51l.3-.19a.35.35,0,0,0-.35.17m3.23-1.16v.18a.11.11,0,0,0,.12-.09.3.3,0,0,0,0-.16.07.07,0,0,0-.11.07m12.13-.18a.1.1,0,0,0,.08.13.09.09,0,0,0-.08-.13m-19.15-.94s.07,0,.06,0-.07,0-.06,0m-.88,1.1s.07,0,.06,0-.07,0-.06,0M47.23,37.24s0-.08,0-.05l0,.06m8.23,5.23s.07,0,.06,0-.08,0-.06,0m-5.91-8s-.07,0-.06,0,.08,0,.06,0Z"/></g></g></svg>