<svg xmlns="http://www.w3.org/2000/svg" xmlns:xlink="http://www.w3.org/1999/xlink" viewBox="0 0 88.39 87.12"><defs><style>.cls-1{fill:#fff;}.cls-2{fill:url(#radial-gradient);}.cls-3{fill:url(#radial-gradient-2);}</style><radialGradient id="radial-gradient" cx="44.19" cy="43.56" r="43.88" gradientUnits="userSpaceOnUse"><stop offset="0.14" stop-color="#b412c7"/><stop offset="0.19" stop-color="#bc22c8"/><stop offset="0.29" stop-color="#c83bcb"/><stop offset="0.41" stop-color="#d14fcd"/><stop offset="0.54" stop-color="#d85cce"/><stop offset="0.71" stop-color="#dc65cf"/><stop offset="1" stop-color="#dd67cf"/></radialGradient><radialGradient id="radial-gradient-2" cx="44.24" cy="52.96" r="22.13" gradientTransform="translate(0 -26.78) scale(1 1.51)" gradientUnits="userSpaceOnUse"><stop offset="0.16" stop-color="#b412c7"/><stop offset="0.24" stop-color="#bb22c8"/><stop offset="0.38" stop-color="#cf4acc"/><stop offset="0.46" stop-color="#dd67cf"/></radialGradient></defs><title>orchid-singapore-top</title><g id="Layer_2" data-name="Layer 2"><g id="orchid-singapore-top"><path id="void" class="cls-1" d="M66.62,46c.44-.08.89,0,1.36,0,8.32-2,14.61-8.55,20.41-14.83l-3.7-4A23.75,23.75,0,0,0,81,23.69c-3.39-2.38-7.83-2.85-11.92-2.18s-7.91,2.38-11.69,4.09c3.88-5.76,2-14.57-3.84-18.28A28.4,28.4,0,0,1,45.72,0a16.61,16.61,0,0,1-9.88,5.87c-1.58.29-2.71,1.69-3.51,3.09a20.76,20.76,0,0,0-1.44,17.31A49.58,49.58,0,0,0,22.15,19a16.76,16.76,0,0,0-10.89-2.63A14.75,14.75,0,0,1,.82,13.87C-1.06,20.51.49,27.71,3.43,34c2.15,4.6,7.23,7.09,12.15,8.37s10.12,1.75,14.7,4a34.5,34.5,0,0,0-17.54,2.77,11.88,11.88,0,0,0-4,2.57C5.94,54.7,6.28,59.4,5.7,63.54,4.7,70.48.61,77.28,2.33,84.09a3.5,3.5,0,0,0,1.32,2.22,1.48,1.48,0,0,0,2.19-.61,2.37,2.37,0,0,0,1,1.42,13.63,13.63,0,0,1,9.9-4.66c3.15-.08,6.44.92,9.35-.29,5.4-2.25,7.72-11.55,13.08-13.87,0,0,0,0,0,0l.2,0-.16.07a5.41,5.41,0,0,0,.88.59,22.5,22.5,0,0,1,3.59,1.75c.65.5,1.57,0,2.24-.41l1.34-.91a2.12,2.12,0,0,0,.44.58C49.2,71.48,50,73.62,51,75.57c2.74,5.28,7.77,9.67,13.69,10.29a29.84,29.84,0,0,0,3.54.08l7-.13c.42,0,1-.21.89-.62-.78-2.94.73-5.94,1.94-8.72a28.55,28.55,0,0,0,2.7-12.53,16.12,16.12,0,0,0-5.13-11.46,17.58,17.58,0,0,0-8.18-3.71,60.48,60.48,0,0,0-9.72-.51c.07.18.14.37.2.56h-.17c0-.18-.17-.38-.17-.56h.14a7.69,7.69,0,0,0-.47-.9A19.29,19.29,0,0,1,66.62,46Zm-63-12.63s-.09,0-.05-.06.08,0,.05,0Zm36.25,3.33c.55.2.46,1.25.93,1.35.22,0,.44-.16.89-.57s.49-.59.93-1a3,3,0,0,1,.88-.72c.48-.21.91-.06,1.82.21,2.15.64,2.1.47,3.21.92a7.18,7.18,0,0,1,1.67.84,6.7,6.7,0,0,1,1.56,1.66,22.75,22.75,0,0,1,1.61,2.75c.5,1,.62,1.27,1,1.51.68.38,1.16,0,1.67.41s.31.73.59,1.95c0,.12.27.88.76,2.41.65,2.06.69,2.13.67,2.44A7.91,7.91,0,0,1,57,53.29c-.43.79-.62,1-.89,1.06s-.61-.13-1.27-.87c-1.47-1.64-1.67-2.7-2.58-2.87-.29-.06-.71,0-.85.19s.28,1,.94,2a23.78,23.78,0,0,1,1.5,2.55A9.58,9.58,0,0,1,54.72,59a9.69,9.69,0,0,1-.32,2.86c-.36,1.36-.76,1.64-.88,1.71-.59.37-1.06,0-1.56.45s-.3.85-.62,1.58c-.23.51-.49.66-2.28,2a28,28,0,0,1-2.49,1.76,5.06,5.06,0,0,1-2.36.93A3.36,3.36,0,0,1,42.59,70c-.71-.32-.66-.62-1.54-1.22s-1-.39-1.75-.93A3.79,3.79,0,0,1,38,66.54a5.19,5.19,0,0,1-.32-2.66c0-.94.15-1.6-.28-2-.2-.2-.27-.13-.46-.31s-.42-.86-.15-2.74c.09-.63.15-1.06.3-1.73a16.55,16.55,0,0,0,.57-2.44,4.67,4.67,0,0,0-.42-2.13c-.2-.42-.4-.85-.78-.93s-.62.19-1.35.67-.89.65-1.35.68a.91.91,0,0,1-.57-.11c-.17-.1-.34-.29-.52-1s-.08-.79-.21-1.25c-.17-.66-.41-.59-.71-1.35s-.1-.93-.43-1.71c-.25-.62-.39-.53-.62-1.09a4.15,4.15,0,0,1-.26-2.08,3.19,3.19,0,0,1,.43-1.56c.24-.36.48-.49,1.65-1.19a15.23,15.23,0,0,0,2-1.24c.85-.76.52-1,1.3-1.72s1.19-.42,3.06-1.56C39.26,36.82,39.56,36.6,39.87,36.71Z"/><path id="fill2" class="cls-2" d="M66.62,46c.44-.08.89,0,1.36,0,8.32-2,14.61-8.55,20.41-14.83l-3.7-4A23.75,23.75,0,0,0,81,23.69c-3.39-2.38-7.83-2.85-11.92-2.18s-7.91,2.38-11.69,4.09c3.88-5.76,2-14.57-3.84-18.28A28.4,28.4,0,0,1,45.72,0a16.61,16.61,0,0,1-9.88,5.87c-1.58.29-2.71,1.69-3.51,3.09a20.76,20.76,0,0,0-1.44,17.31A49.58,49.58,0,0,0,22.15,19a16.76,16.76,0,0,0-10.89-2.63A14.75,14.75,0,0,1,.82,13.87C-1.06,20.51.49,27.71,3.43,34c2.15,4.6,7.23,7.09,12.15,8.37s10.12,1.75,14.7,4a34.5,34.5,0,0,0-17.54,2.77,11.88,11.88,0,0,0-4,2.57C5.94,54.7,6.28,59.4,5.7,63.54,4.7,70.48.61,77.28,2.33,84.09a3.5,3.5,0,0,0,1.32,2.22,1.48,1.48,0,0,0,2.19-.61,2.37,2.37,0,0,0,1,1.42,13.63,13.63,0,0,1,9.9-4.66c3.15-.08,6.44.92,9.35-.29,5.4-2.25,7.72-11.55,13.08-13.87,0,0,0,0,0,0l.2,0-.16.07a5.41,5.41,0,0,0,.88.59,22.5,22.5,0,0,1,3.59,1.75c.65.5,1.57,0,2.24-.41l1.34-.91a2.12,2.12,0,0,0,.44.58C49.2,71.48,50,73.62,51,75.57c2.74,5.28,7.77,9.67,13.69,10.29a29.84,29.84,0,0,0,3.54.08l7-.13c.42,0,1-.21.89-.62-.78-2.94.73-5.94,1.94-8.72a28.55,28.55,0,0,0,2.7-12.53,16.12,16.12,0,0,0-5.13-11.46,17.58,17.58,0,0,0-8.18-3.71,60.48,60.48,0,0,0-9.72-.51c.07.18.14.37.2.56h-.17c0-.18-.17-.38-.17-.56h.14a7.69,7.69,0,0,0-.47-.9A19.29,19.29,0,0,1,66.62,46Zm-63-12.63s-.09,0-.05-.06.08,0,.05,0Z"/><path id="fill3" class="cls-3" d="M38.83,37.07c-1.87,1.14-2.18.73-3.06,1.56s-.45,1-1.3,1.72a15.23,15.23,0,0,1-2,1.24c-1.17.7-1.41.83-1.65,1.19a3.19,3.19,0,0,0-.43,1.56,4.15,4.15,0,0,0,.26,2.08c.23.56.37.47.62,1.09.33.78.13,1,.43,1.71s.54.69.71,1.35c.13.46,0,.56.21,1.25s.35.88.52,1a.91.91,0,0,0,.57.11c.46,0,.73-.26,1.35-.68s1.1-.72,1.35-.67.58.51.78.93a4.67,4.67,0,0,1,.42,2.13,16.55,16.55,0,0,1-.57,2.44c-.15.67-.21,1.1-.3,1.73-.27,1.88-.18,2.42.15,2.74s.26.11.46.31c.43.44.31,1.1.28,2A5.19,5.19,0,0,0,38,66.54a3.79,3.79,0,0,0,1.32,1.32c.77.54.94.38,1.75.93s.83.9,1.54,1.22a3.36,3.36,0,0,0,1.62.28,5.06,5.06,0,0,0,2.36-.93,28,28,0,0,0,2.49-1.76c1.79-1.31,2-1.46,2.28-2,.32-.73.15-1.21.62-1.58s1-.08,1.56-.45c.12-.07.52-.35.88-1.71A9.69,9.69,0,0,0,54.72,59a9.58,9.58,0,0,0-.89-3.73,23.78,23.78,0,0,0-1.5-2.55c-.66-1-1.16-1.61-.94-2s.56-.25.85-.19c.91.17,1.11,1.23,2.58,2.87.66.74,1,.92,1.27.87s.46-.27.89-1.06a7.91,7.91,0,0,0,1.11-2.46c0-.31,0-.38-.67-2.44-.49-1.53-.73-2.29-.76-2.41-.28-1.22-.19-1.63-.59-1.95s-1,0-1.67-.41c-.41-.24-.53-.54-1-1.51a22.75,22.75,0,0,0-1.61-2.75A6.7,6.7,0,0,0,50.2,37.7a7.18,7.18,0,0,0-1.67-.84c-1.11-.45-1.06-.28-3.21-.92-.91-.27-1.34-.42-1.82-.21a3,3,0,0,0-.88.72c-.44.45-.49.63-.93,1s-.67.62-.89.57c-.47-.1-.38-1.15-.93-1.35C39.56,36.6,39.26,36.82,38.83,37.07Z"/><path id="fill1" d="M35.74,63.89a10.16,10.16,0,0,0,.65-.82,1.09,1.09,0,0,0,.12-1l.33-.07a3,3,0,0,1-.44,2,77.33,77.33,0,0,1-4.15,7.45,4.63,4.63,0,0,1,.69-1.5A46.48,46.48,0,0,0,36.13,64,5.39,5.39,0,0,0,35,66.39c-.17,0-.18-.26-.14-.42A5.66,5.66,0,0,1,35.74,63.89ZM69.79,85.33c1.91-.07,3.81-.06,5.71,0A15.25,15.25,0,0,1,77,78a29.19,29.19,0,0,0,3.34-13.67c-.2-4.74-2.25-9.56-6.12-12.3-2.78-2-6.24-2.73-9.63-3.09a58.79,58.79,0,0,0-6.77-.07c0-.19-.18-.37-.18-.56,3,.06,6.9-.06,9.87.52a17.46,17.46,0,0,1,8.18,3.7A16.15,16.15,0,0,1,80.81,64a28.7,28.7,0,0,1-2.69,12.52c-1.21,2.79-2.73,5.78-2,8.72.11.4-.47.61-.89.62l-7,.13a29.84,29.84,0,0,1-3.54-.08c-5.91-.63-10.95-5-13.7-10.29-1-2-1.81-4.1-3.37-5.67a1.66,1.66,0,0,1-.46-.63c0-.18.35-.19.51-.1,1.68,1.37,2.5,3.51,3.48,5.44a22.39,22.39,0,0,0,5.54,7.15,15.6,15.6,0,0,0,8.22,3.59A34.28,34.28,0,0,0,69.79,85.33ZM55.44,58.15c-.09,0-.21.06-.28,0s.07-.33.25-.38a2.84,2.84,0,0,1,.71-.11c.13-.41.66-.51,1.08-.48a5.16,5.16,0,0,1,2.71,1.16A15.58,15.58,0,0,1,62,60.46l2.55,2.95c0,.11-.17.07-.24,0-1.77-1.86-3.15-4.19-5.39-5.46a2.57,2.57,0,0,0-2.51-.28A10.51,10.51,0,0,1,60.32,60a31.79,31.79,0,0,1,3.12,3.34c-.06.07-.17,0-.23-.06a24,24,0,0,0-4.81-4.48A3.77,3.77,0,0,0,55.44,58.15Zm.65-2.87c.37.16.76.26,1.15.39a11.39,11.39,0,0,1,3.83,2.5c1.13,1,2.17,2.19,3.34,3.17-.22.06-.42-.11-.59-.27L61.7,59a50.51,50.51,0,0,1,3.89,4.74,11.91,11.91,0,0,1,1.55,2.67l-1.79-2.36a44.47,44.47,0,0,0-4.82-5.69A9,9,0,0,0,56.73,56a.47.47,0,0,1-.49.44.94.94,0,0,1,.08-.55,9.63,9.63,0,0,1-1.59-.55.62.62,0,0,1,.63-.34A2.41,2.41,0,0,1,56.09,55.28Zm1.61-.72a4.33,4.33,0,0,1,3.17,1.18,64.1,64.1,0,0,1,5,4.15.56.56,0,0,1-.41-.17l-3.7-3.08a9,9,0,0,0-2.05-1.42A3.19,3.19,0,0,0,57.3,55C57.19,54.81,57.47,54.61,57.7,54.56ZM29.52,69.72c-.23-.19-.12-.57,0-.84L34.82,58c.19.22.06.56-.07.81Q32.29,63.5,30,68.3A4.28,4.28,0,0,0,29.52,69.72Zm34.3-20.24c.32.2.63.42.94.64A27.7,27.7,0,0,1,71,56.59c.07.1.13.24,0,.33a25.53,25.53,0,0,0-7.19-7.16,1,1,0,0,0-1.13,0c-.09-.23.15-.49.4-.52A1.09,1.09,0,0,1,63.82,49.48Zm-14.13,19a1.56,1.56,0,0,0-.18-.79c.37,0,.67.28.9.58q4.16,5.44,8.24,11a1.92,1.92,0,0,1-.66-.64l-5.14-6.87a28.74,28.74,0,0,0-2.91-3.5A.38.38,0,0,1,49.69,68.52Zm5.67-6.78a3.48,3.48,0,0,1,2.27.83,22.17,22.17,0,0,1,3.77,3.85c.09.11.19.28.09.39L59.91,65a12.34,12.34,0,0,0-2.1-2,4.32,4.32,0,0,0-2.74-.88.18.18,0,0,1,0-.26A.37.37,0,0,1,55.36,61.74Zm3.41,8.06a.94.94,0,0,1,.45,1c-.14.11-.33-.06-.42-.21-1.42-2.16-2.83-4.44-5-5.78a.82.82,0,0,0-.39-.15.28.28,0,0,0-.29.24c-.25-.07-.16-.49.08-.57a.91.91,0,0,1,.71.21c2.21,1.52,3.72,3.84,5.16,6.1A1.3,1.3,0,0,0,58.77,69.8Zm-4.08-7.08A1.75,1.75,0,0,1,56.1,63a14,14,0,0,1,3.68,3.49l1,1.27c-.08.11-.26,0-.34-.11a29.54,29.54,0,0,0-3.19-3.51,4.57,4.57,0,0,0-1.36-.91,1.92,1.92,0,0,0-1.59,0C54.25,63,54.47,62.8,54.69,62.72Zm5.18-12.18a2.85,2.85,0,0,1,1.71-.09c2.32.5,4,2.45,6.08,3.61a1.11,1.11,0,0,1-.73-.23c-1.15-.72-2.14-1.68-3.31-2.36A4.41,4.41,0,0,0,59.73,51a.18.18,0,0,1-.09-.24A.39.39,0,0,1,59.87,50.54ZM35.69,62.63a.29.29,0,0,1,0,.18q-2.3,3.85-4.39,7.82a2.94,2.94,0,0,1,.54-1.48q1.83-3.12,3.44-6.36a.5.5,0,0,1,.2-.25C35.53,62.49,35.67,62.53,35.69,62.63Zm-7-13.84a17.55,17.55,0,0,0-5.46.06c2.76-.82,5.74-.36,8.52.37a6.88,6.88,0,0,1-1.36,0C29.8,49.08,29.24,48.9,28.67,48.79ZM52.54,65.52a.33.33,0,0,1-.53,0,.62.62,0,0,1,.73-.31,1.63,1.63,0,0,1,.71.48A28.33,28.33,0,0,1,58.91,73l-1-1.52a28.06,28.06,0,0,0-3.95-5A4,4,0,0,0,52.54,65.52ZM34.81,60a1.13,1.13,0,0,1,.45-.28.41.41,0,0,1,.46.18.5.5,0,0,1,0,.32,7,7,0,0,1-1.24,2.24,33.29,33.29,0,0,0-1.95,3.38L29.29,72c-.05.1-.18.09-.28.12s-.23.19-.3.33l-1.93,3.71c-.09,0-.1-.14-.06-.23A101.84,101.84,0,0,1,33.15,63.8c.24-.37.48-.75.69-1.14a8.51,8.51,0,0,0,.81-2.3c.12-.12.3.11.27.28s-.14.34-.09.5a2.39,2.39,0,0,0,.42-.88.17.17,0,0,0,0-.12c-.07-.15-.45,0-.43-.14m-2.54,5.89c-1.08,1.93-2.15,3.86-3.19,5.81,0,.1-.1.22,0,.31,1.12-2,2.2-3.91,3.26-5.88C32.34,66.05,32.36,65.92,32.27,65.89ZM22.2,58l-.08.08s0-.1.06-.09ZM60,51.16a1.78,1.78,0,0,1,1.27-.33,3.31,3.31,0,0,1,1.26.43,12.6,12.6,0,0,1,3,2.6,2.18,2.18,0,0,0-.69-1.12,1.8,1.8,0,0,1,.91,1,.26.26,0,0,1,0,.19.24.24,0,0,1-.31.13.78.78,0,0,1-.29-.25,10.48,10.48,0,0,0-2.54-2.25,2.12,2.12,0,0,0-2-.4,2.71,2.71,0,0,0-.51.38l-.43.38A.66.66,0,0,1,60,51.16Zm-39,11-.08.07s0-.1.07-.09Zm46.24,4.19s.09,0,.06.06-.09,0-.06-.06ZM50.84,36a1.69,1.69,0,0,1,0,.71.71.71,0,0,1-.23-.65,1.91,1.91,0,0,1,.24-.68A17.33,17.33,0,0,1,56.51,29a1.08,1.08,0,0,1,1-.26,7.46,7.46,0,0,0-1.73.95,10.65,10.65,0,0,0-.9.76,19.61,19.61,0,0,0-3.62,4.44A2.32,2.32,0,0,0,50.84,36ZM64,32.14a23.85,23.85,0,0,1-2.4.74,24.51,24.51,0,0,0-3,1.71.24.24,0,0,1-.23,0,12,12,0,0,1,6-2.62.82.82,0,0,1-.29.35ZM53.43,26.72a1.19,1.19,0,0,1-.58.55,23.16,23.16,0,0,1,3.42-4c.07.17-.08.34-.21.46A16.5,16.5,0,0,0,53.43,26.72Zm-5,8.54-.17.67a1.21,1.21,0,0,1-.23.53.4.4,0,0,1-.52.09c-.16-.12-.15-.36-.12-.56a20.1,20.1,0,0,1,1.3-4.39l.93-2.47a18.08,18.08,0,0,1,1.72-3.67,1,1,0,0,1,.56-.48c.25-.05.55.19.45.42-.09.06-.12-.12-.19-.2s-.26,0-.36.07a4.17,4.17,0,0,0-.89,1.19,17.88,17.88,0,0,0-1.19,3.1l-1,3.31A18.17,18.17,0,0,0,48.07,35c0,.15,0,.36.11.42a.3.3,0,0,1,0-.19C48.28,35.2,48.38,35.2,48.4,35.26Zm-25.52.2c.42.2.83.42,1.24.64A57.58,57.58,0,0,1,30.26,40a22.31,22.31,0,0,0-8.42-5.5,3,3,0,0,1,1.39.4A25.92,25.92,0,0,1,29,38.47c.51.44,1,.91,1.47,1.38l1.38,1.35c.12.12-.1.33-.26.27s-.23-.25-.3-.41-.18-.33-.36-.34a.91.91,0,0,1-.51-.25,31.64,31.64,0,0,0-9.79-5.63c-.51-.15-1-.29-1.51-.48A13.26,13.26,0,0,1,22.88,35.46ZM40.56,52.27s0,.08,0,.07v-.08ZM3.62,33.38s-.09,0-.06-.06.09,0,.06.06Zm32.1,12.23s0,.08,0,.07V45.6Zm-1.9,5.83a1.91,1.91,0,0,1,.18.66.14.14,0,0,0,.1.12c-.06.09-.2,0-.25-.09A.83.83,0,0,1,33.82,51.44Zm22.4,2.06c0-.07.13,0,.16,0a.27.27,0,0,1,0,.19l-.11-.21Zm-2.86,9,.16.16a.17.17,0,0,1-.24-.11s0-.06,0-.07.06,0,.06,0ZM40.56,31.6a14.43,14.43,0,0,0,.77,4.18l-.19-3.63c0-.81-.08-1.62-.07-2.43a21.13,21.13,0,0,1,.26-3.28,47.84,47.84,0,0,0,.27,9.19c0,.31,0,.7-.23.86l.21.86c.05.18.08.4-.07.51a.33.33,0,0,1-.4-.09.82.82,0,0,1-.16-.41A39.34,39.34,0,0,1,40.09,30a9.14,9.14,0,0,1,.34-3.13c0,1.59,0,3.19.13,4.78M24.19,66.27a99.26,99.26,0,0,1,6.37-9.65L18,70.27A185.88,185.88,0,0,1,32.81,52.8,31.45,31.45,0,0,0,21,62.21a47.39,47.39,0,0,1,6.62-6.74A29.33,29.33,0,0,0,13.83,68.13,32.81,32.81,0,0,1,30.48,53.41,20,20,0,0,0,22.21,58a23.5,23.5,0,0,1,8.94-5.36A17.46,17.46,0,0,0,19,57.16a17.2,17.2,0,0,1,12.72-4.81,13,13,0,0,0-8.07.93A27,27,0,0,0,12,62.34,24.84,24.84,0,0,1,30.77,51.43a11.93,11.93,0,0,0-10.21,2.23,12.92,12.92,0,0,1,9.62-2.82,13.08,13.08,0,0,0-11.44,2,11.61,11.61,0,0,1,13.34-1.12c.48-2-1.17-4.06-3.14-4.75s-4.12-.39-6.17-.08a33.54,33.54,0,0,0-9.41,2.38c-2.93,1.39-5.54,3.84-6.33,7a30.46,30.46,0,0,0-.42,5.5C6.33,66,4.58,69.92,3.46,74S1.9,82.65,4,86.29A5.21,5.21,0,0,0,6,85l.84,1.31a13.77,13.77,0,0,1,9.71-4.41c3.3-.08,6.81,1,9.76-.45,2.56-1.27,3.9-4.08,5.24-6.6s4.91-6.15,7.72-6.65c-5.48,2.22-7.79,11.68-13.24,14-2.9,1.21-6.21.21-9.35.28a13.71,13.71,0,0,0-9.89,4.66,2.25,2.25,0,0,1-1-1.41,1.5,1.5,0,0,1-2.2.62,3.58,3.58,0,0,1-1.33-2.23C.61,77.28,4.7,70.48,5.7,63.53c.58-4.13.24-8.83,3.08-11.89a11.9,11.9,0,0,1,4-2.56A34.4,34.4,0,0,1,30.28,46.3c-4.58-2.21-9.78-2.67-14.7-4S5.58,38.57,3.42,34C.49,27.72-1.06,20.51.81,13.87a14.69,14.69,0,0,0,10.45,2.46A16.76,16.76,0,0,1,22.15,19a50,50,0,0,1,8.75,7.31A20.72,20.72,0,0,1,32.33,9c.8-1.4,1.93-2.8,3.51-3.09A16.61,16.61,0,0,0,45.72,0a28.26,28.26,0,0,0,7.82,7.32c5.87,3.71,7.72,12.52,3.84,18.27,3.77-1.7,7.61-3.41,11.69-4.09S77.6,21.31,81,23.69a23.75,23.75,0,0,1,3.7,3.46l3.69,4C82.59,37.41,76.29,44,68,46c-.47.06-.92,0-1.36.06a19.29,19.29,0,0,0-9.31,1.35,7.57,7.57,0,0,1,1,5.07,15.29,15.29,0,0,1,8,4.62L63.53,55l1,1.13a11,11,0,0,0-3.62-2.57,3.74,3.74,0,0,0-4.11.85c-.72.9-2.17,0-2.74-1.05S52.72,51,51.58,51.2A12.44,12.44,0,0,1,55,60a8.37,8.37,0,0,1,6.85,3.81,17.09,17.09,0,0,0-5.34-3.71,42.28,42.28,0,0,1,9.78,10.58L60.45,64c-1.45-1.64-3.12-3.41-5.3-3.6A8.51,8.51,0,0,1,54,63.25a17.55,17.55,0,0,1,5.39,4.94l-3.51-3.48,5,6.43-4.74-5.41a5.06,5.06,0,0,0-2.08-1.66,1.75,1.75,0,0,0-2.24.9,2.58,2.58,0,0,0,.69,2.13L58.78,76,51.5,66.4l-5.63,3.83c-.68.46-1.6.91-2.24.41A22.61,22.61,0,0,0,40,68.89c-1.18-.62-2.28-1.8-2.08-3.12l-1.07,1.45a5.53,5.53,0,0,0-.23-6.09c-1-1.3-.35-3.11.19-4.64s.85-3.51-.43-4.5L34,53.19a4.61,4.61,0,0,1,3.17.15,51.7,51.7,0,0,0-7.48,14.52A37.81,37.81,0,0,1,33.85,58a25.79,25.79,0,0,0-5,6.28,70,70,0,0,0-6.76,9.87A215.66,215.66,0,0,1,34.28,53.1,61.53,61.53,0,0,0,24.19,66.27m23.64-11.8-.64-1.21c-.73.81.34,2,1.22,2.6S50,58.05,49,58.45l1,2.19-1.22-.13a.69.69,0,0,0,.16,1.15l2.36-.3-1-.25a1,1,0,0,1,1.06-1L51.05,59l-1.14.72c-.41-.55.35-1.46,1-1.14l-.54-1.13a3.18,3.18,0,0,1,1.21,2.81l1.44.3a2.23,2.23,0,0,0-.47-1.45c.13.51,1,0,.85-.47s-.78-.65-1.3-.74a1.45,1.45,0,0,1,1.24-.25l-3-2.21a5.15,5.15,0,0,0,2.37-.58,1.41,1.41,0,0,0,1.14,1.31l-.41-1.36-2.22-.16-.78-1c.64.06.71-1.2.06-1.21l2,1.59a4,4,0,0,1-1-4.12l4.51,4.39-.83-2.61.32-.94-2-1.11a1.56,1.56,0,0,0,1.11-1l.87,1.65a15.26,15.26,0,0,1,1.54-1.77,1.61,1.61,0,0,1-1.87-.85,3.1,3.1,0,0,1-2,1.12,3.09,3.09,0,0,1,1-3.35,2.91,2.91,0,0,0-1.55-.94V43.31a1.31,1.31,0,0,1,1.4,1.25,13.74,13.74,0,0,0-5-7.34,41.65,41.65,0,0,1,7.62-9.75A51.18,51.18,0,0,0,49.45,37l1.18.53A16.23,16.23,0,0,1,59.16,29a17.2,17.2,0,0,0-8.39,8.79A27.9,27.9,0,0,1,65.33,26.41a27.9,27.9,0,0,0-11.84,9.2,12.31,12.31,0,0,1,6.76-4.95,13.51,13.51,0,0,0-8.14,8.07,27.1,27.1,0,0,1,10.18-7.84,21.29,21.29,0,0,0-9.73,8.48,15.17,15.17,0,0,1,11.78-5.51A15.34,15.34,0,0,0,53.8,40c-.4.56-.64,1.56,0,1.77A14.23,14.23,0,0,1,63,36.25a15.76,15.76,0,0,0-8.7,5.27,11.82,11.82,0,0,1,8.2-3.72,11.67,11.67,0,0,0-7.83,4.26,13.07,13.07,0,0,1,10.07-3.67,14.63,14.63,0,0,0-9.95,5.17l3.47-1.82c2.55-1.34,5.81-2.64,8.12-.91-3.44-1.79-7.5.54-10.64,2.8A25.55,25.55,0,0,1,68.2,41l-6.91,1a8.67,8.67,0,0,1,4.5.65,9.81,9.81,0,0,0-8.6,1.26c-.37.26-.58,1-.12,1A10.21,10.21,0,0,1,64,42.49c.93,0,2.14.63,1.84,1.51l1.62.35a21,21,0,0,0-6.37-.29c-1.74.18-3.87,1.08-3.83,2.82,3-1.89,6.83-1.3,10.34-1.74,8.18-1,14.35-7.67,19.76-13.89C83.94,26.76,79.65,22,74,21.8A27.65,27.65,0,0,0,48.5,37.22a19.71,19.71,0,0,1,5.61-12.34,19.43,19.43,0,0,0-4.43,7.87,26.34,26.34,0,0,1,3.23-5.46A25.89,25.89,0,0,0,49,35.45c1.24-4.52,6.62-6.65,8.71-10.85a13.32,13.32,0,0,0,1.13-6,13.44,13.44,0,0,0-1-5.73C55.37,7.63,48.15,6,45.61.71A14.12,14.12,0,0,1,36.3,6.26a4.18,4.18,0,0,0-2.57,1.85A19.44,19.44,0,0,0,30,18.45a14.73,14.73,0,0,0,.67,6c1.64,4.62,6.46,8.32,5.87,13.18-1.14-7-6.82-12.26-12.49-16.5-3.58-2.69-7.89-5.32-12.26-4.33A13,13,0,0,1,1.4,14.6C.64,18-.12,21.62.93,25c.54,1.71,1.53,3.28,1.73,5.06.62,5.55,5.91,9.44,11.21,11.18s11,2.08,16.18,4.25l0-1.21-9.38-3.32,9.25,2.79-9-4L28.89,43c.68.28,1.7.44,2-.26-3.17-1.6-6.43-3.05-9.74-4.34l10,3.84a30.53,30.53,0,0,0-10.07-5,44.91,44.91,0,0,1,7.84,3l-5.38-3.18A22.58,22.58,0,0,1,31.38,42l1.05-.75a30.16,30.16,0,0,0-7-6.39,24.11,24.11,0,0,1,6.44,5.42c-3.55-6.21-12.71-6.64-17.4-12,2.83,2.53,6.46,3.92,9.87,5.58s6.84,3.81,8.57,7.18a4.19,4.19,0,0,0,1.35-1c-.8.58-1.8-.34-2.39-1.13a25.37,25.37,0,0,0-11.27-8.47c5.15,1.87,9.73,5.81,10.54,7.06-.64-.8,1,1.21.35.41L32.89,39A39.45,39.45,0,0,0,23,29.54a35.53,35.53,0,0,1,10.34,9.69,34.37,34.37,0,0,0-6.67-8.81,17.45,17.45,0,0,1,4,3.9A18.55,18.55,0,0,0,25.22,29a25.61,25.61,0,0,1,9,10.94c-.15.12.07-.07.12-.28s-.07-.7,0-.25a20.35,20.35,0,0,0-8.26-11.82c4.18,2.22,6.51,6.73,8.6,11a34.3,34.3,0,0,0-8.58-12.45,26.53,26.53,0,0,1,9.16,13l.38-.77a22.73,22.73,0,0,0-3.53-9,21.38,21.38,0,0,1,3.82,8.92l1.53-1.05c-.74-2.67-1.6-5.3-2.6-7.88l2.22,5.31-.55-2.16,1.3,3.26-1.71-9.45a44.3,44.3,0,0,0,2.35,9.19L38,26.69,38.2,30l.17-6.23.75,12.67,1,.09a21.6,21.6,0,0,1-.46-10.74,21.92,21.92,0,0,0,.95,11.35,3,3,0,0,0-3.49,3.47L35.94,39a9.33,9.33,0,0,1-.09,3.25,2.27,2.27,0,0,1-1.13-.6c.6,1.47-1.44,3.15-2.78,2.29a4.92,4.92,0,0,1,1.89,1.87,3.65,3.65,0,0,0-1.65.92,2,2,0,0,1-.54-2.37l1,1.62a3.55,3.55,0,0,0-1.14-2.25l1.13-.17c-.24.37-.73-.4-.35-.62s.85.06,1.19.34c-.56-.42.5-1.38.86-.78l.43-1.79A7.55,7.55,0,0,0,31.29,43c-.81,1.18-.7,3.1.58,3.74L30.82,47a2.76,2.76,0,0,1,1.63,1.27,13.81,13.81,0,0,1-1.57-.38,2.68,2.68,0,0,1,2,2.73c-.06.79-.09,2,.7,1.91a1.3,1.3,0,0,1,.5-2.16L33,49.2c.65-.24.14-1.48-.49-1.19a4.11,4.11,0,0,0,1.39-2.22,1.28,1.28,0,0,1,1,.86,1.46,1.46,0,0,0-1.07,1l1.69,1.2a.79.79,0,0,1,1.13-.61,2.08,2.08,0,0,0-1.29-.93L35.64,46a1.59,1.59,0,0,1,1.14.49A1.39,1.39,0,0,0,34.57,46a1.92,1.92,0,0,1,3.17-.32l-.88,1.78a.93.93,0,0,0-1-.5A2.06,2.06,0,0,1,37,48.71l-2.13.37.05,2.64a.94.94,0,0,0,.27-1.12.78.78,0,0,0,1.46-.12c-.27.61.94,1.1,1.17.47l.31,1.55L38,50.63a1.08,1.08,0,0,1,1.17.51l-.75-1,1.67-.31.53,1.26c.31-.18-.16-.66-.49-.51s-.47.53-.75.76-.86.12-.78-.23a1.68,1.68,0,0,0,2.06,1.14c.5-.16,1.43.09,1,.38a3,3,0,0,0-.86,2.59,1,1,0,0,0-.89-.8l-.13,2.08-1.59-.34,0-2.21-1,4a3.55,3.55,0,0,1,1.57-1.15,1.22,1.22,0,0,1,1.54.81c-1-.51,2-2,1-2.53a1.55,1.55,0,0,1,1.2,1.55c-.56-.55-1.39.24-1.95.78s-2,.28-1.56-.39a1.5,1.5,0,0,1-.21,1.71c.28-.34-.22-1-.61-.73l-.52,1.86a1.36,1.36,0,0,1,1.32-.4L38.44,61a.59.59,0,0,1,1,.2,1.86,1.86,0,0,0-.49-1.06,3.44,3.44,0,0,0,1.45-.5c-.69-.42.14-1.46.93-1.61a4.61,4.61,0,0,1,2.44.18,1.45,1.45,0,0,1-.15-1.78l.4,2.18a3.06,3.06,0,0,1-1.7-.36l-.73,1.59-.27-1.29c-.37-.16-.91.08-.88.48l.42,1.7a.64.64,0,0,1-.59-.73c.3,1-1.21,1.71-2.1,1.17a4,4,0,0,1-1.43-2.65,22.53,22.53,0,0,0,1.69,5.11,2,2,0,0,1,2.76-1.23L41,61A3.88,3.88,0,0,0,43.66,59l-.82,2.39-1.16-.32.68.88c.17-.28-.45-.44-.59-.14s.06.64.17.95.05.78-.28.82l-1.15-.16c.84.48-.14,1.68-1,2.06a1,1,0,0,1-1-.9,2.51,2.51,0,0,0,1.81,3,1.15,1.15,0,0,1,.62-2,2.71,2.71,0,0,0,1.82,1.81l-1.16-1.09a.7.7,0,0,1,1-.1c.39-.42-.74-.48-1.15-.89s0-.88.24-1.25l1.76-2.22,1.71-3.82.46,5.33a4.79,4.79,0,0,1-.21,2.44,1.67,1.67,0,0,1-2,1,2.32,2.32,0,0,1,2.57,1,1.83,1.83,0,0,1-2.35,1.82l.93-2.48-1.39-.23A1.29,1.29,0,0,0,43.13,65l1.79-.69c-.6-1.52-.22-3.24.17-4.83a3.63,3.63,0,0,0-1.27,3.58c-.43-.53-1.48.1-1.21.73l.48,3.66a1.59,1.59,0,0,1-2.26-.08,1.06,1.06,0,0,1-.32,1.52,2.76,2.76,0,0,1,3,1,1.53,1.53,0,0,0,2,.21,4.43,4.43,0,0,0,1.38-1.68l-.72-2.7,1.35,0c.23-.62-.79-1.21-1.21-.69A2.29,2.29,0,0,1,47,62.29a1.28,1.28,0,0,0-1.19-.42l-.06-1.72a1.61,1.61,0,0,1,2.31.9,1.3,1.3,0,0,1,1.29-.9l-1-.76,1-2.23a5,5,0,0,1-2.91-3.55l.19,1.49a2.47,2.47,0,0,1-.73-1.41,3.07,3.07,0,0,1-.13,2.07l-.63-1.95A1.62,1.62,0,0,1,44,56.07a10.94,10.94,0,0,1,0-3.61,3.92,3.92,0,0,1-.88,2.29L43.43,53l-.58,1.23L42.76,51a1.71,1.71,0,0,1-.65,1.39l.26-1.1a1.41,1.41,0,0,1-1.63-1.71l1.8.81a4.88,4.88,0,0,1-3.83-5A19.94,19.94,0,0,1,40,41.28c.44-1.37.46-3.06-.62-4a1.64,1.64,0,0,1,1.44,2.12c3-4-.11-10,1.59-14.81a48.72,48.72,0,0,0,.15,11.7,64.76,64.76,0,0,1,.11-8.92A43.57,43.57,0,0,0,43,36.2l.35-17.1.18,10.63a22.14,22.14,0,0,1,1.12-6.65,31,31,0,0,0-.54,12.51A42.31,42.31,0,0,1,45.47,23a32.85,32.85,0,0,0-.94,11.68c0,.46.52,1.07.81.71a46.38,46.38,0,0,1,1.15-11.2l-.86,6.21,2-9.83L45.87,33.62c-.11.84-.13,1.89.62,2.29a33.34,33.34,0,0,1,1.66-10.86c.09-.3.25-.64.56-.68s.47.54.16.54c.22-.21-.37-.19-.47.1A31.32,31.32,0,0,0,46.69,34,25.48,25.48,0,0,1,50,23.63,25.12,25.12,0,0,0,47,36a9.58,9.58,0,0,1,3.17,6.45,28.39,28.39,0,0,1-.46,7.35l-1.34-.49c.23.36.46.83.23,1.18s-1,0-.69-.32L48.28,52l-1-1.38.64,2.68M38,34.51s-.05-.1-.1-.09l.32.88a.48.48,0,0,0,0-.33L38,34.51M56.55,50.9l-.25-.64a.55.55,0,0,1-.06-.22.1.1,0,0,0-.16,0,.23.23,0,0,0,0,.2.44.44,0,0,1,0,.2.62.62,0,0,1-.1.22.23.23,0,0,0-.06.22.11.11,0,0,0,.19,0c.09-.13.32.11.45,0M44.93,68.28c-.11-.08-.31-.08-.33,0l-.1.7c0,.1,0,.22-.12.27s-.36-.1-.54-.06c0,.13.14.22.28.24a1.28,1.28,0,0,0,.51-.06.88.88,0,0,0,.35-.17.64.64,0,0,0,0-1m6.07-4-.22,1.19c0,.16-.27.18-.39.07a.8.8,0,0,1-.19-.44.57.57,0,0,0-.25-.4,1.45,1.45,0,0,0,.31,1c-.28.41-.57.81-.88,1.19a1.12,1.12,0,0,1-.4.35.39.39,0,0,1-.48-.12,1.77,1.77,0,0,1-.29-.78.59.59,0,0,1,.44-.63c.25,0,.19-.62.43-.54s.16-.18.11-.31l-.36-.89-.24.89a.52.52,0,0,1-.09.2.32.32,0,0,1-.4,0,1,1,0,0,1-.28-.32,1.3,1.3,0,0,0,.06,1.18,3,3,0,0,1,.37,1.93.54.54,0,0,0,.36-.1L49.85,67a2.46,2.46,0,0,0,1-.91c.17-.34.18-.75.32-1.11a3.13,3.13,0,0,1,1.53-1.38c-.13-.1-.29.13-.46.13s-.21-.19-.25-.34-.18-.31-.32-.24a.88.88,0,0,0-.22-.69.23.23,0,0,1-.39,0c-.09-.15,0-.36-.06-.51a11.91,11.91,0,0,0-1.2.8,1.31,1.31,0,0,0,1.57,0,2,2,0,0,1,0,1.48H51M47.48,49.32c.28-.15.62-.34.62-.65a.86.86,0,0,0,.86-.08,1.53,1.53,0,0,0,.5-.93,14.94,14.94,0,0,0-.2-5.8.93.93,0,0,0-1,.1c-.3.21-.54.51-.85.7a.89.89,0,0,1-1,0,.54.54,0,0,0-.6,0c-.19.09-.35.23-.55.31a1,1,0,0,1-1.12-.33c-.16-.23-.51-.09-.77,0a2.68,2.68,0,0,1-1.53-.11,1.3,1.3,0,0,1-.62-.28,1.27,1.27,0,0,1-.29-.81,8.29,8.29,0,0,1,0-1.22c-.14,0-.17.18-.17.32A4.23,4.23,0,0,1,40.39,42l-.59,1.88a8.24,8.24,0,0,0-.5,2.53,2.75,2.75,0,0,0,1.08,2.25c.78.51,1.93.5,2.43,1.29A15.33,15.33,0,0,0,44,51.55l.13-.23a.3.3,0,0,1,.21.45l.24.13a10.36,10.36,0,0,1,2.91-2.58m-5.83-7.46a.68.68,0,0,0,.22.12,3,3,0,0,0,.91.25,1,1,0,0,0,.85-.34c.15-.19.46-.07.62.11s.29.42.52.48.52-.13.74-.3.55-.29.75-.1a.86.86,0,0,0,1,0c.32-.21.56-.52.88-.71a.79.79,0,0,1,1,.12l-.31-1.81a3.11,3.11,0,0,0-.25-.89,2.9,2.9,0,0,0-.61-.7l-1.19-1.12a3.38,3.38,0,0,0-1.52-1A1.76,1.76,0,0,0,44,36.2a1.07,1.07,0,0,1,.25.47.35.35,0,0,1-.27.4l-.22-.82a2,2,0,0,0-.75.93,4.31,4.31,0,0,0-1.48,4.39.56.56,0,0,0,.14.29M27.23,65.65a41,41,0,0,0,3.49-5.45c.41-.65.84-1.28,1.27-1.91l3.37-5A4.53,4.53,0,0,0,33.52,55q-2.27,3.12-4.43,6.32A19.76,19.76,0,0,0,26.57,66c.24.09.48-.12.66-.32m22-3.3a2.77,2.77,0,0,0-.76.08A2.93,2.93,0,0,0,46.34,60a4.75,4.75,0,0,0-.2,1.55,1.44,1.44,0,0,1,1.38,1.13c-.15.17-.41.17-.64.21s-.48.22-.42.44a5.37,5.37,0,0,1,1.28.49l-.76.61a.45.45,0,0,0,.61,0,3.69,3.69,0,0,0,.4-.55,2.52,2.52,0,0,1,.57-.56c.09-.08.22-.15.31-.08a.32.32,0,0,1,.08.12l.24.64c.24-.1.55-.19.75,0a.78.78,0,0,1,.17.28l.39,1a3.3,3.3,0,0,0,.15-.76.78.78,0,0,1,.1-.43c.09-.12.29-.17.38-.05a1,1,0,0,0,.06-.73A1.37,1.37,0,0,1,49.65,63a.42.42,0,0,1-.15-.22c0-.22.18-.39.38-.5l.67-.37c-.2-.13-.47,0-.67.13a1.1,1.1,0,0,1-.65.31m-13.3-9.2.25.45a.71.71,0,0,0-.89.2q-2.84,3.95-5.41,8.06l2.87-3.28c.42-.47.83-.94,1.23-1.43.27-.34.53-.69.8-1l.77-1a3.06,3.06,0,0,0,.82-1.83.48.48,0,0,0-.44-.11m24.54-9.28a8,8,0,0,1,1-.14A12.92,12.92,0,0,1,65,43.9a.61.61,0,0,0,.42,0,.44.44,0,0,0,.09-.64,1.06,1.06,0,0,0-.63-.36,6.55,6.55,0,0,0-3.14-.1,12.17,12.17,0,0,0-4,1.94,1.53,1.53,0,0,0-.47.41.53.53,0,0,0,0,.59,6.2,6.2,0,0,1,3.26-1.86m-28,10a42.52,42.52,0,0,0-7.65,8,6.18,6.18,0,0,0-.94,1.39l8.54-9.11c.07-.07.13-.19,0-.25m23.38-12a24.64,24.64,0,0,1,4-2.38l.93-.42,1.09-.41a8.91,8.91,0,0,0-4.26,1.35,13.88,13.88,0,0,0-3.37,3,.45.45,0,0,1,.25.18,5.34,5.34,0,0,1,1.38-1.3m-1.64-2.76a15,15,0,0,1,2.63-2.41,20.46,20.46,0,0,1,3.13-1.91,2.32,2.32,0,0,0-2.11.56,17.56,17.56,0,0,0-4.09,4.07.72.72,0,0,0,.44-.31m.64,6.26.61-.32L55,44.38l-.2-.32c0-.05-.07-.11-.13-.12s-.13.06-.09.11a1,1,0,0,1,.16.71.3.3,0,0,1,0,.19.23.23,0,0,1-.3,0,.72.72,0,0,1-.21-.25,4.12,4.12,0,0,0-1-1.14.18.18,0,0,0-.19-.06c-.07,0-.08.11-.08.18a1.6,1.6,0,0,0,0,.49.48.48,0,0,0,.35.31,1.34,1.34,0,0,1,1,.88.23.23,0,0,0,.23.14.74.74,0,0,0,.27-.1M53.1,58.15l.33.08a.64.64,0,0,1,.3.14.24.24,0,0,1,.07.29c0,.05-.08.09-.11.14s0,.14.07.13.11-.27.21-.22.07.1.08.16l.23,1.46c0,.09.09.22.17.17A11,11,0,0,1,54.24,59c0-.49,0-1-.09-1.47a1.83,1.83,0,0,0-.06-.25,1.89,1.89,0,0,0-.54-.77.38.38,0,0,0-.18-.13.14.14,0,0,0-.18.08.54.54,0,0,0,.21.51,1,1,0,0,1,.36.45.5.5,0,0,1-.2.49A.7.7,0,0,1,53,58c-.05,0-.08.06-.05.1s.08.06.12.08m-6.2-7.72s0,0,0-.06-.06,0-.08,0l-.66.62s-.08.09,0,.14a2.57,2.57,0,0,1,.23.82A12.56,12.56,0,0,0,47,54.33a.81.81,0,0,0,0-.51l-.38-1.93a.87.87,0,0,1,0-.48c0-.11,0-.26.06-.35s.28,0,.34.13.1.29.23.36a.37.37,0,0,0,0-.27l-.31-.85m9.27-4.07a.18.18,0,0,0,0,.07c.1.1.23.16.34.26a.3.3,0,0,1,.07.38s-.05,0-.06.07a.14.14,0,0,0,0,.11,2.57,2.57,0,0,0,.2.61c.06.14-.11.29-.27.27a1.14,1.14,0,0,1-.41-.18.36.36,0,0,0-.42,0,1.45,1.45,0,0,0,.83.3c.14-.06.34,0,.41-.18s0-.19,0-.28a8.54,8.54,0,0,1-.2-1.6,3.05,3.05,0,0,0-.45-1.32.4.4,0,0,0-.33-.22c-.21,0-.26-.33-.46-.41-.08.11,0,.26.08.37A.76.76,0,0,0,56,45s.07.05.08.09a2.08,2.08,0,0,1,.11,1.16.29.29,0,0,0,0,.13M34.16,50c.1.06.23-.05.25-.17a2.16,2.16,0,0,0,0-.35c0-.21.13-.42.11-.63a1.31,1.31,0,0,0-.15-.37c-.11-.17-.29-.38-.49-.3s-.17.21-.2.34l-.09.37a.7.7,0,0,0,0,.35.65.65,0,0,0,.1.15l.44.54a.16.16,0,0,0,.07.07M51.54,37.46a16.43,16.43,0,0,1,4-5,1.85,1.85,0,0,0,.6-.68,16.43,16.43,0,0,0-4.65,5.33c-.06.12-.1.29,0,.35M39.43,64.21a1.66,1.66,0,0,0-.21-.16l-.3-.18a.43.43,0,0,0-.23-.1.25.25,0,0,0-.24.22.58.58,0,0,0,0,.18,2.88,2.88,0,0,0,.78,1.08c.07.07.18,0,.22-.14a.92.92,0,0,0-.06-.9M57.6,52.46a.61.61,0,0,0-.32-.69,2.63,2.63,0,0,0-.72-.28.2.2,0,0,0-.15,0s-.06.09,0,.11.05.12.05.19a1,1,0,0,0,.33.58l.51.53a1.35,1.35,0,0,0,.31-.44M48.69,66.61c.05.09.13.19.23.18a.23.23,0,0,0,.14-.1,7,7,0,0,0,.69-.86.18.18,0,0,0,0-.12.15.15,0,0,0-.14-.13.52.52,0,0,0-.21,0l-.52.22a.67.67,0,0,0-.27.16.56.56,0,0,0,0,.61m-11.8-32a.48.48,0,0,0,0,.31l.58,1.73c0,.15.13.32.29.35a.23.23,0,0,0,.25-.23.74.74,0,0,0,0-.14,8.21,8.21,0,0,0-.46-.88l-.65-1.14m-3,17.66c.12.06.31,0,.31-.09A5,5,0,0,0,34,51.13a.77.77,0,0,0-.14-.32s-.08-.07-.13,0a.15.15,0,0,0-.05.06,1.46,1.46,0,0,0-.17,1.07.78.78,0,0,0,.35.41M57.49,50a.16.16,0,0,1-.23,0,.38.38,0,0,1-.15-.22l-.2-.48a.56.56,0,0,0,.1.59,2.54,2.54,0,0,1,.37.51c.12.29,0,.66.27.89a.1.1,0,0,0,.07,0c.06,0,.09-.08.09-.14a4.63,4.63,0,0,0-.25-1.65c0-.07-.14,0-.16,0a.29.29,0,0,0,.05.2.2.2,0,0,1,0,.19m-11.9,4.31a1.45,1.45,0,0,0,.14.58c0-.48,0-1,0-1.43s-.06-1.13-.1-1.7a.07.07,0,0,0,0-.07s0,0,0,0-.14.24-.11.38a.76.76,0,0,1,0,.42,1.15,1.15,0,0,0,0,.49l.13,1.32m9-7.16s-.08,0-.09.1a.7.7,0,0,1-.59.44c-.08,0-.2,0-.19.11a.11.11,0,0,0,0,.07,1,1,0,0,0,.58.4.43.43,0,0,0,.25,0,.21.21,0,0,0,.14-.19l-.08-.83s0-.09,0-.1m2.3-3.35c.07,0,.15,0,.22,0a12.23,12.23,0,0,1,3.67-1.54.58.58,0,0,0-.53,0l-1.07.35-.51.18a5.93,5.93,0,0,0-1.78,1M39.52,54.59l.23-.55a.67.67,0,0,0,.07-.31.33.33,0,0,0-.52-.21c-.06,0-.16,0-.19-.08a.91.91,0,0,1,0-.23c0-.08-.08-.16-.16-.15l.09.63a.16.16,0,0,1,0,.14c-.06.05-.18,0-.22.06s0,.12.1.12a.76.76,0,0,0,.18-.06.37.37,0,0,1,.37.2,1,1,0,0,1,.1.44M35.88,40.76a.79.79,0,0,0,0-.48l-.17.17a.86.86,0,0,1-.07-.57l0-.49a.25.25,0,0,0,0-.17s-.13,0-.15,0c-.05.2-.3.31-.31.51a.48.48,0,0,0,0,.2l.36.9a.16.16,0,0,0,0,.07c.08.07.2,0,.23-.14m20.33,12a.31.31,0,0,0-.12.17l-.14.33a.17.17,0,0,0,0,.14.1.1,0,0,0,0,.07c.11.13.23.26.35.38a.28.28,0,0,0,.17.09c.14,0,.16-.2.14-.34l-.09-.5a.62.62,0,0,0-.09-.26.2.2,0,0,0-.24-.08m-4.52,2.85a2.93,2.93,0,0,0,1,.43c0-.26-.07-.52-.11-.78,0-.08-.09-.2-.16-.14a3.19,3.19,0,0,1-.76.49M47.1,67.09a.8.8,0,0,0-.21.2.26.26,0,0,0,0,.28c.08.11.25.1.38.06a.79.79,0,0,1,.4,0,.13.13,0,0,0,.15-.11.37.37,0,0,0,0-.2c-.07-.14-.16-.3-.32-.33a.49.49,0,0,0-.35.15M36.42,38.69l-.17.13.6,1.3c0,.06.11.12.14.07s0,0,0,0a6.63,6.63,0,0,0-.3-1.39s0-.09-.07-.11-.14,0-.2,0m3.26,14.45c.1-.15,0-.35-.1-.5a2.57,2.57,0,0,0-.74-.73s-.08,0-.12,0,0,.13,0,.19a2.17,2.17,0,0,1,.46.89c0,.18.4,0,.47.18m5.4-1a.22.22,0,0,0-.06.35.66.66,0,0,0-.05.25,17.5,17.5,0,0,0-.09,2.17.45.45,0,0,1-.08.36.1.1,0,0,0,.16,0,.35.35,0,0,0,0-.17l0-.72.1-2a.36.36,0,0,0-.05-.23m10.65-5.72-.59-.55a.29.29,0,0,0-.15-.09c-.1,0-.18.12-.28.09s-.19.1-.17.21a.4.4,0,0,0,.28.31,1.15,1.15,0,0,0,.45,0h.46m-16.88,8.9c-.07,0-.16,0-.21,0s0-.07,0-.1l.09-.54c0-.15,0-.33-.09-.41a.14.14,0,0,0-.14,0,.22.22,0,0,0-.06.14l-.06.49a.88.88,0,0,0,0,.51.33.33,0,0,0,.42.2c.09-.05.13-.2,0-.24m17.4-7.57c0,.05.08,0,.1,0a.19.19,0,0,0,0-.13l-.11-.42a.34.34,0,0,0-.3-.24.34.34,0,0,0-.32.2c0,.06,0,.15-.12.14s-.11.13,0,.19a.29.29,0,0,0,.24,0,.86.86,0,0,1,.32,0,.31.31,0,0,1,.24.2m-3.94,13a.11.11,0,0,0-.12,0,.87.87,0,0,0-.39.47c0,.14,0,.34.12.37s.23,0,.27.06a.07.07,0,0,0,.12,0,.32.32,0,0,0,0-.14v-.68a.11.11,0,0,0,0-.08m1.58,1.79s0-.08,0-.11,0,0-.06,0l-.57-.07c-.12,0-.17.16-.15.28a.91.91,0,0,0,.23.42.19.19,0,0,0,.13.07c.08,0,.14-.08.18-.15l.23-.42m-9.24-9.12a.76.76,0,0,1,.06-.16c0-.06,0-.13,0-.15a.33.33,0,0,0-.1.24l-.26,1.86c0,.13,0,.25,0,.38a1.93,1.93,0,0,0,.33-1.11l.07-.74a1.62,1.62,0,0,0,0-.22.36.36,0,0,1,0-.1m-6,.05a2.08,2.08,0,0,0-.37-.78,2.8,2.8,0,0,0-.27.73.11.11,0,0,0,.13.16h.4s.08,0,.1,0,0,0,0-.08m14.46,8.5,0,0,.61.14a.2.2,0,0,0,.13,0,.23.23,0,0,0,.12-.1,1.33,1.33,0,0,0,.2-.51.25.25,0,0,0,0-.15s-.11,0-.12,0a.52.52,0,0,1-.3.36,1.08,1.08,0,0,1-.47.07.29.29,0,0,0-.16,0s-.06.1,0,.13M40.36,63c0-.06.08-.12,0-.19a.12.12,0,0,0-.06-.06.81.81,0,0,0-1.09.22c0,.06,0,.15.11.15a.27.27,0,0,0,.18-.13.61.61,0,0,1,.16-.16A.22.22,0,0,1,40,63c0,.08.09.14.17.12a.46.46,0,0,0,.18-.16m.1,5.48c.08,0,.07-.15.06-.23l-.1-.53a.06.06,0,0,0,0,0,.11.11,0,0,0-.11,0,.44.44,0,0,0-.31.44.45.45,0,0,0,.36.4.2.2,0,0,0,.11,0M53.31,47.16c0,.13,0,.32.12.36a1.26,1.26,0,0,1,.46-.86s.11-.07.1-.13-.05-.06-.08-.08a.45.45,0,0,0-.25-.07c-.2,0-.27.27-.3.46l0,.32M41.43,67.39a.36.36,0,0,0,.34.08l-.57-.81c0-.06-.09-.12-.16-.12a.15.15,0,0,0-.15.16.49.49,0,0,0,.08.23,1.83,1.83,0,0,0,.46.46M32.17,52.78a.52.52,0,0,0,.57.08,2.16,2.16,0,0,1-.39-.46c-.12-.19-.26-.42-.48-.4a.15.15,0,0,0-.14.09.11.11,0,0,0,0,.12.46.46,0,0,0,.24.17.45.45,0,0,1,.25.16c0,.08,0,.22-.07.24M49.66,65.12l.13-.13c-.09,0-.07-.17,0-.26a.7.7,0,0,0,.08-.29.27.27,0,0,0-.15-.24.35.35,0,0,0-.33.11s0,.06,0,.09a4.69,4.69,0,0,0,.33.72m-9.37-.87a.29.29,0,0,0,.14.13c.06,0,.15,0,.14-.09l-.62-1a.38.38,0,0,0-.14-.14c-.05,0-.14,0-.15.07a.18.18,0,0,0,0,.1l.59.88M37.42,38.09s-.11,0-.16,0l-.34.25a.18.18,0,0,0-.05.07.13.13,0,0,0,0,.1l.15.27c0,.07.11.14.18.12s.08-.09.09-.15l.11-.59a.12.12,0,0,0,0-.1m15.74,2.44a2,2,0,0,1,.45-.78,1.86,1.86,0,0,1-.62-.08.09.09,0,0,0-.11.07.27.27,0,0,0,0,.15l.25.64M37.72,52.91c0,.07.12.07.16,0a.28.28,0,0,0,0-.2l-.24-.9c0-.06-.07-.14-.12-.1s0,.17-.1.15-.09,0-.08.08a.29.29,0,0,0,0,.13,1.78,1.78,0,0,1,.33.83m14.55,9a1.13,1.13,0,0,0-.36-.06.12.12,0,0,0-.12,0,.15.15,0,0,0,0,.09.69.69,0,0,0,.29.52l.28-.29c0-.05.1-.11.08-.17s-.08-.1-.15-.12M38.65,36.54a2.49,2.49,0,0,0-.14-.71.24.24,0,0,0,0,.28c0,.07.09.17,0,.21a.12.12,0,0,1-.08,0,.38.38,0,0,1-.21-.44c-.1,0-.19.09-.19.19a.53.53,0,0,0,.12.28l.27.37a.85.85,0,0,0,.25-.17m3.26,27.78a.16.16,0,0,0-.09.07,1.09,1.09,0,0,0-.19.41.18.18,0,0,0,0,.16c.09-.17.39,0,.54-.13a.21.21,0,0,0,0-.26.64.64,0,0,0-.2-.2.16.16,0,0,0-.11-.05M35,41.16a.08.08,0,0,0,0,.08l.43.66s0,.06.08.06.09-.09.08-.16c0-.3-.16-.66-.46-.72-.07,0-.16,0-.16.08M46.18,53.62a1.37,1.37,0,0,0,0-.8l-.19-1c-.08,0-.09.14-.08.23a9.81,9.81,0,0,0,.28,1.53m2,10.92s.1.12.16.08,0,0,0-.07a2.91,2.91,0,0,0,.16-.88l-.36.42a.38.38,0,0,0-.09.13.43.43,0,0,0,.09.32m-9-8.6.33.11a.09.09,0,0,0,.07,0c.06,0,.07-.09.06-.15a.72.72,0,0,0-.28-.46l-.25.33a.09.09,0,0,0,0,.06s.05.08.1.1m5.77,9.82-.22-.16a1,1,0,0,0-.44-.19.43.43,0,0,0-.22.06,1.49,1.49,0,0,0,.88.42,0,0,0,0,0,0,0c.06,0,0-.1,0-.13m9.18-18.92a2.69,2.69,0,0,0-.27.32c-.07.09.05.22.16.2a.4.4,0,0,0,.25-.19.38.38,0,0,0,.11-.23.15.15,0,0,0-.15-.17.23.23,0,0,0-.1.07m1.4-1.45c-.05,0,0,.1,0,.14l.47.38,0-.5a.19.19,0,0,0-.21-.14.53.53,0,0,0-.25.12M51.25,62.08c.07.06.16,0,.18-.14l.18-.66a.26.26,0,0,0,0-.15.09.09,0,0,0-.13-.05s0,.05,0,.07l-.21.93m-3.83,6.06a.77.77,0,0,0,.58-.21c.06-.05.08-.17,0-.19a1.19,1.19,0,0,1-.83.24c0,.11.14.15.24.16m2.87-9.26a.35.35,0,0,0-.13.08c-.11.12-.06.3,0,.44l.44-.43c0-.11-.19-.12-.3-.09M52.8,63a.4.4,0,0,0,.08.35.19.19,0,0,0,.3,0c0-.1,0-.2-.12-.27a.28.28,0,0,0-.13-.09s-.12,0-.13.06m-12.7,3.5c0,.06.1.08.17.08a.24.24,0,0,0,.2-.07c.09-.12-.07-.27-.08-.42l-.24.31a.14.14,0,0,0,0,.1m-6.32-24a1,1,0,0,0,.23.67.52.52,0,0,0,.16.14,1.47,1.47,0,0,0-.39-.81m13.8,7.71a.8.8,0,0,0,0-.27.05.05,0,0,0,0,0s-.08,0-.11,0l-.24.18a.31.31,0,0,1,.26.23s.08.06.12,0a.22.22,0,0,0,0-.14m8.86-.39c-.08,0,0,.13,0,.19l.3.36a.39.39,0,0,0-.27-.55h0m-21.92.77a1.14,1.14,0,0,0,0,.75.32.32,0,0,0,.14.14,2.49,2.49,0,0,0-.19-.89M44.66,67.49a.19.19,0,0,0,.11.08l.12.06c.08,0,.2,0,.22,0s0-.09-.06-.13a.41.41,0,0,0-.24-.15c-.09,0-.2.09-.15.18m.6-1.83c.12,0,.14-.19,0-.27a.47.47,0,0,0-.43,0l.28.22a.22.22,0,0,0,.11,0M39.1,50.38c-.05,0,0,.13,0,.18l.39.36a.67.67,0,0,0-.3-.52.12.12,0,0,0-.14,0M55.63,51.8a.52.52,0,0,0,.06-.58l-.25.47a.27.27,0,0,1,.19.11m-3.49,4.5-.24-.13-.07,0a.08.08,0,0,0,0,.1s.06.07.09.1l.23.16a.14.14,0,0,0,.11,0,.08.08,0,0,0,0-.12c0-.05-.06-.07-.11-.1m-1.06-2.44a1.2,1.2,0,0,0,.36.45.32.32,0,0,0,0-.34.3.3,0,0,0-.32-.11M56.9,53a.38.38,0,0,0-.13-.06s-.06,0-.06,0a3.16,3.16,0,0,1,.17.52.33.33,0,0,0,0-.49M39.46,63.85a.32.32,0,0,0-.19-.39.39.39,0,0,0-.28,0,2.35,2.35,0,0,1,.47.36m1.36-.9a.17.17,0,0,0,0,.19.48.48,0,0,0,.16.12s.08,0,.12,0,0,0,0,0v-.05A.6.6,0,0,0,41,63a.16.16,0,0,0-.22,0M34.4,51.79a.33.33,0,0,0,0,.26c0,.07.19.06.2,0a.43.43,0,0,0-.19-.39l0,.16m4.31,6.41a.09.09,0,0,0,.12,0,.22.22,0,0,0,0-.14c0-.14,0-.32-.15-.37a3.4,3.4,0,0,0,0,.45s0,.07,0,.09m14.06-1.59a.07.07,0,0,0,.06,0c.08,0,.05-.14,0-.19a.92.92,0,0,0-.33-.19.53.53,0,0,0,.28.37m-9,9.47a.09.09,0,0,0,0,.14.21.21,0,0,0,.16,0,.58.58,0,0,0,.34-.14,3.55,3.55,0,0,0-.46,0l-.08,0m2.94.1a.12.12,0,0,0,.19,0,.18.18,0,0,0,0-.21.3.3,0,0,0-.2-.08h-.06c-.08.06.1.17.06.25m-1.86-1.31h-.12a.1.1,0,0,0-.07,0s0,.14.09.14.15,0,.22,0,.1-.09,0-.13-.11,0-.17,0m.07,1.52c.05.06.15-.07.09-.14s-.15,0-.23,0-.1,0-.12.06a.11.11,0,0,0,.08.13.32.32,0,0,0,.17,0m2.91.46c.08,0,.06.17.14.19s.11-.08.09-.16a.16.16,0,0,0-.12-.15c-.07,0-.15.06-.1.12m7-17.34a.41.41,0,0,0-.15-.24c-.06.06,0,.16,0,.24s.06.14.13.15.11-.13,0-.13M34.8,40c.11,0,.06.2.09.3a.18.18,0,0,0,.15.13l0-.3a.21.21,0,0,0-.05-.15s-.12,0-.14,0m7,18.7c0-.05-.06-.13-.11-.08a.2.2,0,0,0,0,.2l0,.18a.25.25,0,0,0,.13-.28m2.62,5.62a.36.36,0,0,0,.34.11.15.15,0,0,0,.13-.11.94.94,0,0,0-.47,0M54,42.59c0,.07,0,.17.08.15s.05,0,.06-.05l.17-.24a.28.28,0,0,0-.31.14M49.54,61.83s0-.12-.06-.12a.25.25,0,0,0-.16.06l-.18.14a.39.39,0,0,0,.4-.08m-6.88,2.5a.2.2,0,0,0-.17.2.13.13,0,0,0,.21.09c.06-.07,0-.18-.07-.24M55.32,46.81l.12-.06a.69.69,0,0,0-.32,0,.1.1,0,0,0-.07,0c0,.05,0,.14.07.15a.29.29,0,0,0,.19-.08M39.58,57.38c0,.06.11,0,.13,0a.15.15,0,0,0-.06-.16.1.1,0,0,0-.07,0,.09.09,0,0,0,0,.18m-2.27.85a.25.25,0,0,0,0,.17.09.09,0,0,0,.14.06.19.19,0,0,0,0-.08.38.38,0,0,0,0-.23l-.08.08m10.87-8.4a.19.19,0,0,0-.28-.21.64.64,0,0,0,.27.22m5.23,10.3a.58.58,0,0,0,0,.39.16.16,0,0,0,.12-.18.45.45,0,0,0-.12-.21M37.78,58.61l.12-.12a.33.33,0,0,0-.32,0,.25.25,0,0,0,.19.14m14.76,4c-.07,0-.15,0-.18.11s0,.16.09.14a.15.15,0,0,0,.06-.09l.06-.14m.09-1.48a.13.13,0,0,0,.19,0,.12.12,0,0,0-.14-.14.13.13,0,0,0-.05.19M35.31,40.6a.22.22,0,0,0,.11.32.4.4,0,0,0-.11-.31m17.5,13.6a.18.18,0,0,0,.23,0c0-.05-.07-.11-.13-.12s-.13.06-.09.11M40.88,65.92l-.13.2a.12.12,0,0,0,.15,0,.11.11,0,0,0,0-.14m11.43-2.72a.29.29,0,0,0,.14.2.15.15,0,0,0-.13-.22m-1.62-2.32a.32.32,0,0,0,.19,0,.14.14,0,0,0-.23,0M57.05,51a.21.21,0,0,0-.19,0,.14.14,0,0,0,.23,0m-4,10.34c0,.08.1.15.15.08a.21.21,0,0,0-.16-.11m-5.75,4.91c-.07,0-.15.1-.08.15a.19.19,0,0,0,.11-.15M41.64,55.51a.07.07,0,0,0,0,.09.08.08,0,0,0,.09-.06l-.11,0m-1.08,1.71s-.07,0-.08,0,0,.07,0,.1a.1.1,0,0,0,0-.12m13,3.92s0-.06,0-.06,0,.06,0,.06"/></g></g></svg>