<svg xmlns="http://www.w3.org/2000/svg" xmlns:xlink="http://www.w3.org/1999/xlink" viewBox="0 0 85.33 88.87"><defs><style>.cls-1{fill:#fff;}.cls-2{fill:url(#radial-gradient);}.cls-3{fill:#f3ff61;}</style><radialGradient id="radial-gradient" cx="41.2" cy="41.04" r="41.12" gradientUnits="userSpaceOnUse"><stop offset="0" stop-color="#ff0024"/><stop offset="0.21" stop-color="#ff0525"/><stop offset="0.47" stop-color="#ff1529"/><stop offset="0.76" stop-color="#ff2e2f"/><stop offset="1" stop-color="#ff4a36"/></radialGradient></defs><title>poppy-top</title><g id="Layer_2" data-name="Layer 2"><g id="poppy-top"><path id="void" class="cls-1" d="M81.11,40.88c-2.64-3.33-1.7-8.14-.64-12.25.18-.68-.9-.82-1.58-1-1.25-.34-1.75-2-1.32-3.22A7.16,7.16,0,0,1,80,21.45a4.62,4.62,0,0,0,.88-5.55,7,7,0,0,0-4.81-3.36c-1.66-.35-3.7-.43-4.5-1.92-.4-.75-.37-1.69-.84-2.41-1.11-1.69-3.73-.74-5.42.36A4,4,0,0,0,61,5.31C61,4,59,4.24,57.68,4c-1.52-.27-2.49-1.71-3.6-2.78S51-.56,50,.57s-2.5.16-3.83.05C43,.34,41,4.42,37.79,4.84c-1.51.2-3-.48-4.49-.76s-3.38.06-3.95,1.47a6.41,6.41,0,0,0-7.89,1.83,6.41,6.41,0,0,0,.67,8.07,5.31,5.31,0,0,0-5.19,8.2c.86,1.29-1,2.76-2.51,2.9s-3.43-.07-4.3,1.2c-2-1.07-5-1.95-6.23,0C3,29.12,3.78,31,4.28,32.62s.19,4-1.51,4.22A3.34,3.34,0,0,0,.19,39.39,8.76,8.76,0,0,0,.25,43.2,51,51,0,0,0,4,55.16a2.05,2.05,0,0,0,.94,3.32,2.82,2.82,0,0,0,.5,4.63c.91.4.94,1.64.93,2.63S6.72,68,7.71,68s1.85,1,2.59,1.83,2.09,1.45,2.85.66a10.44,10.44,0,0,0-.45,4.18,3.58,3.58,0,0,0,2.55,3c1.24.26,3-.15,3.41,1,.35,1,1.64,1.31,2.72,1.44,2.5.3,5.56.35,6.92-1.77a9.53,9.53,0,0,1,4.59,3c1.34,1.61,4-.44,5.75.47a2.41,2.41,0,0,1,2.76-1c1.08.1,2.21.48,3.23.1s1.64-1.47,2.55-2.1c1.76-1.24,4.19-.62,6.24-1.24a5.52,5.52,0,0,0,3.45-7,5.66,5.66,0,0,0,7.51-.54c.46-.5.92-1.14,1.6-1.16,1.49-.06,1.76-2.1,2.3-3.49,1.08-2.75,4.39-3.68,6.89-5.24A12.62,12.62,0,0,0,81,49.42c0-1.85-.38-4,1-5.24C83,43.36,81.9,41.88,81.11,40.88ZM4.61,59.05a0,0,0,0,1,0,.07A0,0,0,0,1,4.61,59.05Zm1.94,5.74a.11.11,0,0,1,0-.15A.08.08,0,0,1,6.55,64.79ZM43.24,36.27c.34.51.24.9.37,1.66s.33,1,.23,1.36l-.25.78a.73.73,0,0,0-.06.45c0,.12.1.21.29.39.45.42.5.39.59.54a.93.93,0,0,1,.05.8c-.12.29-.34.24-.6.57s-.18.75-.43.85-.77-.18-1.13-.39c-.17-.1-.26-.17-.35-.13s0,.64-.29.79-.2,0-.78-.15a2,2,0,0,0-.62-.1c-.33.08-.36.35-.68.43A.89.89,0,0,1,39,44a6.5,6.5,0,0,1-1.32-.83c-.4-.27-.48-.2-.86-.45a2.49,2.49,0,0,1-.66-.57c-.23-.3-.22-.48-.39-.52s-.5.21-.62.33-.21.35-.37.41c-.32.12-.7-.21-.72-.24a1.06,1.06,0,0,1-.27-.39,2.35,2.35,0,0,1-.34-1.24c.07-.59.47-.6.84-1.56.14-.37.07-.33.22-.68.31-.76.6-.79.74-1.34s0-.73.19-.9.28-.08.6-.06.48.11.63,0,.1-.11.37-.56a1.82,1.82,0,0,1,.25-.39.87.87,0,0,1,.88-.1,1,1,0,0,1,.5.55s-.12-.07-.12-.14.29-.12.69-.29.42-.31.66-.31a.81.81,0,0,1,.54.21,4.22,4.22,0,0,1,.31.43,2.49,2.49,0,0,0,.28.35,1.09,1.09,0,0,0,.31.21,1.36,1.36,0,0,0,.54.08l.57,0,.66,0Z"/><path id="fill2" class="cls-2" d="M81.11,40.88c-2.64-3.33-1.7-8.14-.64-12.25.18-.68-.9-.82-1.58-1-1.25-.34-1.75-2-1.32-3.22A7.16,7.16,0,0,1,80,21.45a4.62,4.62,0,0,0,.88-5.55,7,7,0,0,0-4.81-3.36c-1.66-.35-3.7-.43-4.5-1.92-.4-.75-.37-1.69-.84-2.41-1.11-1.69-3.73-.74-5.42.36A4,4,0,0,0,61,5.31C61,4,59,4.24,57.68,4c-1.52-.27-2.49-1.71-3.6-2.78S51-.56,50,.57s-2.5.16-3.83.05C43,.34,41,4.42,37.79,4.84c-1.51.2-3-.48-4.49-.76s-3.38.06-3.95,1.47a6.41,6.41,0,0,0-7.89,1.83,6.41,6.41,0,0,0,.67,8.07,5.31,5.31,0,0,0-5.19,8.2c.86,1.29-1,2.76-2.51,2.9s-3.43-.07-4.3,1.2c-2-1.07-5-1.95-6.23,0C3,29.12,3.78,31,4.28,32.62s.19,4-1.51,4.22A3.34,3.34,0,0,0,.19,39.39,8.76,8.76,0,0,0,.25,43.2,51,51,0,0,0,4,55.16a2.05,2.05,0,0,0,.94,3.32,2.82,2.82,0,0,0,.5,4.63c.91.4.94,1.64.93,2.63S6.72,68,7.71,68s1.85,1,2.59,1.83,2.09,1.45,2.85.66a10.44,10.44,0,0,0-.45,4.18,3.58,3.58,0,0,0,2.55,3c1.24.26,3-.15,3.41,1,.35,1,1.64,1.31,2.72,1.44,2.5.3,5.56.35,6.92-1.77a9.53,9.53,0,0,1,4.59,3c1.34,1.61,4-.44,5.75.47a2.41,2.41,0,0,1,2.76-1c1.08.1,2.21.48,3.23.1s1.64-1.47,2.55-2.1c1.76-1.24,4.19-.62,6.24-1.24a5.52,5.52,0,0,0,3.45-7,5.66,5.66,0,0,0,7.51-.54c.46-.5.92-1.14,1.6-1.16,1.49-.06,1.76-2.1,2.3-3.49,1.08-2.75,4.39-3.68,6.89-5.24A12.62,12.62,0,0,0,81,49.42c0-1.85-.38-4,1-5.24C83,43.36,81.9,41.88,81.11,40.88ZM4.61,59.05a0,0,0,0,1,0,.07A0,0,0,0,1,4.61,59.05Zm1.94,5.74a.11.11,0,0,1,0-.15A.08.08,0,0,1,6.55,64.79Z"/><path id="fill3" class="cls-3" d="M43.24,36.27c.34.51.24.9.37,1.66s.33,1,.23,1.36l-.25.78a.73.73,0,0,0-.06.45c0,.12.1.21.29.39.45.42.5.39.59.54a.93.93,0,0,1,.05.8c-.12.29-.34.24-.6.57s-.18.75-.43.85-.77-.18-1.13-.39c-.17-.1-.26-.17-.35-.13s0,.64-.29.79-.2,0-.78-.15a2,2,0,0,0-.62-.1c-.33.08-.36.35-.68.43A.89.89,0,0,1,39,44a6.5,6.5,0,0,1-1.32-.83c-.4-.27-.48-.2-.86-.45a2.49,2.49,0,0,1-.66-.57c-.23-.3-.22-.48-.39-.52s-.5.21-.62.33-.21.35-.37.41c-.32.12-.7-.21-.72-.24a1.06,1.06,0,0,1-.27-.39,2.35,2.35,0,0,1-.34-1.24c.07-.59.47-.6.84-1.56.14-.37.07-.33.22-.68.31-.76.6-.79.74-1.34s0-.73.19-.9.28-.08.6-.06.48.11.63,0,.1-.11.37-.56a1.82,1.82,0,0,1,.25-.39.87.87,0,0,1,.88-.1,1,1,0,0,1,.5.55s-.12-.07-.12-.14.29-.12.69-.29.42-.31.66-.31a.81.81,0,0,1,.54.21,4.22,4.22,0,0,1,.31.43,2.49,2.49,0,0,0,.28.35,1.09,1.09,0,0,0,.31.21,1.36,1.36,0,0,0,.54.08l.57,0,.66,0Z"/><path id="fill" d="M85.23,88.73c.07,0,.14.1.07.14a.16.16,0,0,1-.1-.15Zm-70-29.95a12.93,12.93,0,0,1-2.11.58,7.15,7.15,0,0,0-1.32.24,5.27,5.27,0,0,0-.92.46l-.83.5-.22-.32.65-.39a6.44,6.44,0,0,1,1.14-.58,11.61,11.61,0,0,1,1.56-.3,11.66,11.66,0,0,0,1.41-.36,3.11,3.11,0,0,0,1.86-1h.28a5.37,5.37,0,0,1,.91-1A9.09,9.09,0,0,1,16.51,58a2.79,2.79,0,0,1-.54.49A3.58,3.58,0,0,1,15.19,58.78ZM74.37,14a3.31,3.31,0,0,1-.82.89c-.26.21-.52.42-.79.62a10.41,10.41,0,0,0-1.55,1.24,1,1,0,0,1-.41.32.31.31,0,0,1-.42-.19c0-.17.13-.31.28-.41l1.63-1.06a6.26,6.26,0,0,0,1.52-1.23.94.94,0,0,1,.25-.24A.24.24,0,0,1,74.37,14ZM4.26,51.19a1.45,1.45,0,0,0,.91.31,10.36,10.36,0,0,0,2.08-.1,28.82,28.82,0,0,0,5-1.32,20.12,20.12,0,0,1-7.4,1.73,2,2,0,0,1-1.66-.48A.42.42,0,0,1,3.5,51a1.36,1.36,0,0,1,.49,0A.66.66,0,0,1,4.26,51.19ZM22,67.27a35.67,35.67,0,0,1-1.89,3.42l-1.14,1.88c.46-2.07,2.08-3.71,2.68-5.75,0-.13.09-.29.23-.31a.34.34,0,0,1,.24.33.85.85,0,0,1-.12.43m16.38,8.47a4,4,0,0,0,.48-2.06,7.9,7.9,0,0,0-.54-2.33l-.52-1.55a12.65,12.65,0,0,1-.68-2.64.34.34,0,0,1,.38.16,1,1,0,0,1,.11.42,36.57,36.57,0,0,0,1.23,4.32A5.16,5.16,0,0,1,39,74.43,3.17,3.17,0,0,1,38.34,75.74ZM5.4,63.12a2.84,2.84,0,0,1-.5-4.64A2,2,0,0,1,4,55.16a50.6,50.6,0,0,1-3.72-12,8.76,8.76,0,0,1-.06-3.81,3.35,3.35,0,0,1,2.58-2.55c1.7-.21,2-2.58,1.51-4.22S3,29.13,3.9,27.71c1.27-1.91,4.21-1,6.23.05.88-1.28,2.76-1.09,4.3-1.22s3.37-1.6,2.51-2.89a5.31,5.31,0,0,1,5.19-8.2,6.41,6.41,0,0,1-.67-8.07,6.39,6.39,0,0,1,7.89-1.82c.57-1.42,2.45-1.76,3.95-1.48s3,1,4.49.76C41,4.42,43,.34,46.17.62c1.33.12,2.92.94,3.83-.05s3-.41,4.08.67S56.16,3.73,57.68,4C59,4.24,61,4,61,5.31a4,4,0,0,1,4.34,3.26c1.7-1.1,4.32-2.05,5.43-.36.47.71.43,1.66.84,2.41.8,1.48,2.84,1.57,4.5,1.92a7,7,0,0,1,4.81,3.36A4.62,4.62,0,0,1,80,21.45a7.14,7.14,0,0,0-2.46,2.95c-.43,1.23.06,2.88,1.32,3.22.68.19,1.76.33,1.58,1-1.06,4.1-2,8.91.64,12.24.79,1,1.87,2.47.9,3.3-1.4,1.2-1.07,3.39-1,5.23a12.6,12.6,0,0,1-5.82,10.85c-2.5,1.57-5.81,2.5-6.89,5.25-.54,1.39-.81,3.43-2.3,3.49-.68,0-1.14.66-1.6,1.16a5.66,5.66,0,0,1-7.51.54,5.51,5.51,0,0,1-3.44,7c-2.06.62-4.49,0-6.25,1.24-.91.64-1.51,1.71-2.55,2.1s-2.15,0-3.23-.1a2.4,2.4,0,0,0-2.76,1c-1.77-.92-4.42,1.13-5.75-.47a9.57,9.57,0,0,0-4.59-3c-1.36,2.13-4.42,2.08-6.92,1.78-1.08-.13-2.37-.42-2.72-1.44-.42-1.19-2.17-.79-3.41-1a3.59,3.59,0,0,1-2.55-3,10.44,10.44,0,0,1,.45-4.18c-.76.79-2.1.14-2.85-.66S8.8,68,7.71,68s-1.38-1.27-1.38-2.25,0-2.23-.93-2.62M30,47.18c.06-.06.12-.16.05-.21l-1.26,1.17c.06,0,.15,0,.21-.06l1-.9m-.58-.86.3-.15a.41.41,0,0,0-.38.17s.07,0,.07-.05m-2.54-1.41a.12.12,0,0,0-.15.06.47.47,0,0,0,.3-.1.08.08,0,0,0-.15,0m-2.14,3,5.14-2.42L23.64,48a72.75,72.75,0,0,1,6.82-3.75A64.76,64.76,0,0,1,24,46.69a7.52,7.52,0,0,1,2.3-1.51,12.73,12.73,0,0,1-7.39,1.15,17.57,17.57,0,0,0,6.34-1l-1.67.13,5.21-1.86c.26-.09.5-.52.22-.54a14.91,14.91,0,0,1-5.71,1.52A34.68,34.68,0,0,1,29,42.68l-3.57.83a6.63,6.63,0,0,1-2.93.23,54.21,54.21,0,0,1,6.57-1.92L22.17,43A16.34,16.34,0,0,1,28,41.71a11.3,11.3,0,0,1-3.76-.06,4.37,4.37,0,0,0-2.32-.07c-2.6,1-5.45-.45-7.76-2A28.78,28.78,0,0,1,17,40.87a7.85,7.85,0,0,0,6.77-.44L23,40a6.61,6.61,0,0,1,2.53-.32,3.71,3.71,0,0,1-1.81-.65,4.42,4.42,0,0,1,1.7-.48,5,5,0,0,1-1.72-.85,1.63,1.63,0,0,1,1.11,0l-1.06-1a1.5,1.5,0,0,1,1.3-.24l-.76-.69a.72.72,0,0,1,.93-.08l-.26-.6a4.9,4.9,0,0,1,1.87,0l-1.45-1.34a1.22,1.22,0,0,1,1.14.15c-.92-1.08-.23-2.85-.92-4.09-.59-1.05-2-1.35-3.17-1.42-1.37-.09-3,.12-3.69,1.3-.42.7-1.47.5-2.22.17s-1.74-.62-2.26,0a1.26,1.26,0,0,1-1.34.31,4.16,4.16,0,0,1-1.26-.72,19.34,19.34,0,0,0-2.87-1.7,4.87,4.87,0,0,0-3.07-.62,2,2,0,0,0-1.59,2.34,19.56,19.56,0,0,1,1,6.48l3.29,1.36a9.14,9.14,0,0,0-4.08-.67A4.73,4.73,0,0,0,.64,42.46a15.64,15.64,0,0,1,5.94.33l-1.07,0,2,.38-4.75-.46a2.64,2.64,0,0,0-1.37.1.94.94,0,0,0-.58,1.12,60.58,60.58,0,0,1,1.87,6.55,12.88,12.88,0,0,0,3.14,6c1.08,1,2.48,1.81,3.17,3.14a19.83,19.83,0,0,1,.75,2.17,6.29,6.29,0,0,0,4.85,4,2.43,2.43,0,0,0,2.6-1l.18.59a4.14,4.14,0,0,1,2.95-.47c.58.22,1,.68,1.6.93a3,3,0,0,0,3.74-1.59,11.64,11.64,0,0,0,.74-2.69,11.59,11.59,0,0,1,3.31-5.79l-.8.65a3.21,3.21,0,0,1,.23-1.47,1.72,1.72,0,0,1-1.41,1.19l4.64-7.46-5,6.62L31.22,49l-3.83,5.25a18.08,18.08,0,0,1,3.46-5.55q-2,2.33-4.22,4.46a16.66,16.66,0,0,1,2.44-3.91,43.47,43.47,0,0,1-6.53,3.81A17.25,17.25,0,0,0,27,49.61l-1.68.63a.63.63,0,0,0-.65-.47l2.06-1.52a27.45,27.45,0,0,0-4.59,2.6,6.71,6.71,0,0,1-5,1.09,9.4,9.4,0,0,0,6.93-3L23,49a5.84,5.84,0,0,1,1.76-1.11m5-2.06.16,0a.15.15,0,0,0-.22.08s0,0,0,0a0,0,0,0,0,0-.06m6.05-19.54s0,.08.07,0a.24.24,0,0,1-.1-.19c-.07,0,0,.15,0,.15M29.48,46a.2.2,0,0,0-.17,0c-.06,0-.07.12,0,.14l.27-.17s-.09,0-.07,0m2.45,4.26a.21.21,0,0,0,.12-.31l-.17.35a0,0,0,0,0,0,0s0,0,0-.06m2.86-7a5.32,5.32,0,0,1,1.4-.5L36,42.28c-.05-.12-.11-.26-.24-.3s-.36.16-.43.36-.17.42-.37.45a4.91,4.91,0,0,0-1.59.45.27.27,0,0,0-.15.1.51.51,0,0,0,0,.25.68.68,0,0,1-.47.46c-.21.08-.45.1-.66.2s-.16.15-.09.2a.37.37,0,0,1,.12.45,1.11,1.11,0,0,1-.31.4l-.7.66a10,10,0,0,1,1.59-.73l1-1a5.18,5.18,0,0,1,1.12-1m8.34,7.86s0,.08,0,0A.41.41,0,0,0,43,51a.18.18,0,0,0-.21,0,.81.81,0,0,0,.3.13M27.39,44.56a.32.32,0,0,0,.39-.11,2.39,2.39,0,0,0,.81-.29.34.34,0,0,0-.32,0l-.88.37M30,48.3a1.54,1.54,0,0,0-.29.28A.25.25,0,0,0,30,48.3m7.29-18.76a.13.13,0,0,0,.11.05.05.05,0,0,0,.05,0,.92.92,0,0,0-.36-.42c-.05.15.08.29.2.4m10.9,21.09s-.09.08,0,.13.1.06.16.07l1.39.19s0-.1-.1-.12l-1.4-.27m-23.11-.94c.22.13.49,0,.68-.22L27,48.4s-.1,0-.14,0c-.59.41-1.18.84-1.74,1.28m6.45,5c0,.07-.07.14,0,.21s.13.1.16,0c.26-.58.49-1.18.7-1.79l.21-.63.28-.83a.56.56,0,0,0-.18.25,11.54,11.54,0,0,0-.5,1.27,11.47,11.47,0,0,1-.63,1.49m-3.29-.64,1.68-2.48,1.21-1.78c-.05,0-.12,0-.15.06a48.85,48.85,0,0,0-3.05,4.51.92.92,0,0,0,.31-.31M28,47.3a3,3,0,0,0-.32.06,4.11,4.11,0,0,0-1.1.52c-.56.34-1.11.68-1.66,1,0,.06.1.06.15,0a21.07,21.07,0,0,0,2.14-1.17,5.63,5.63,0,0,1,1.19-.56l-.4.08m-.13,1.46.93-.87a.31.31,0,0,0,.13-.19,17.74,17.74,0,0,1-3.43,2.17c.06.11.23.07.34,0l.92-.42a3.77,3.77,0,0,0,.79-.43,2.79,2.79,0,0,0,.32-.28M23.33,49c.29-.23.74-.14,1-.36a13.07,13.07,0,0,1,2.41-1.38,1.87,1.87,0,0,0,.7-.43,37.91,37.91,0,0,0-4.06,2c-.08,0-.17.16-.09.21m7.1.66a17.74,17.74,0,0,0-2.7,3.81c0,.07,0,.18,0,.18q1.38-2,2.67-4m3.34,4.43s-.05,0-.07,0A8.7,8.7,0,0,0,33,55.43c0,.09-.12.47-.16.56a4.72,4.72,0,0,0-.28,1.57,3.76,3.76,0,0,0,.35-.88,12.39,12.39,0,0,0,.43-1.21l.46-1.4M48.3,51.88a2.57,2.57,0,0,0-.31-.62c-.08-.11-.17-.24-.31-.26l-2.11-.33a.38.38,0,0,0-.28,0l1.43.73a4.25,4.25,0,0,0,.54.24,3.67,3.67,0,0,0,.64.14l.4.06M36.83,51a.12.12,0,0,1,.19,0,.33.33,0,0,1,.11.19l.57,1.68a6.15,6.15,0,0,0,.59-2.56,2.38,2.38,0,0,1-1.4,0,.84.84,0,0,1-.48-1.14l-.4.6a.4.4,0,0,0-.1.34,2.11,2.11,0,0,1,0,1,9.33,9.33,0,0,0,.75,5.13L36,51.72c0-.13,0-.3.12-.33s.22.18.22.34A8.86,8.86,0,0,0,37,54.81L36.56,52c0-.24,0-.59.26-.59.1,1,.24,2,.41,3a2.61,2.61,0,0,0,0-1.44L36.83,51M32.91,30.42a32.49,32.49,0,0,1-1.11-3.33,6.36,6.36,0,0,1,1,2.35c.32.79,1.3,1.52,2,1l-1-4.8a9,9,0,0,0,2.68,5l-.86-3.88a7.15,7.15,0,0,1-.13-3.86l1.13,4.67c.2.84.67,1.89,1.54,1.82l-1.22-8a15.12,15.12,0,0,0-.83-3.53,13.63,13.63,0,0,0-2.7-3.84,7.85,7.85,0,0,1,3.75,6.31,13.13,13.13,0,0,0,2.22,6.75,8.92,8.92,0,0,1-.36-3.7l.68,4.24c.06.38.46.87.7.57a19.89,19.89,0,0,1,.45-5.44,18.18,18.18,0,0,0,.75,6.52,14.53,14.53,0,0,1,.34-5.17,9.25,9.25,0,0,1,.31,4.61c-.07.37,0,1,.41.83l1-4.47-.21,5.08c1.5-2,.52-4.81.75-7.29.18-2,1.14-3.75,1.67-5.64s.49-4.19-1-5.51a3,3,0,0,1,1.85,2.86A10.84,10.84,0,0,1,46,18.15a31.59,31.59,0,0,0-1.29,6.09c-.06.57,0,1.3.53,1.49.13,2-1.25,4-.63,5.95a22.21,22.21,0,0,1,2.14-5.39l-.14,2.63a2.31,2.31,0,0,1,.86-1.72l-.76,3.21a7.52,7.52,0,0,1,1.67-3.06,2.06,2.06,0,0,0,.58-.88,35.87,35.87,0,0,1,3.12-8.7l-1,3.48-1.37,4.69a51.9,51.9,0,0,1-1.92,5.72l2.56-3.54c.21-.3.61-.62.88-.37a.63.63,0,0,1,.11.57,5.89,5.89,0,0,1-1.09,2.57c2.7-2.67,5.55-5.67,5.91-9.45.69,1.59-.34,3.35-1.35,4.76q-3.33,4.66-7,9.09A4.29,4.29,0,0,1,49,32.86a.5.5,0,0,1-.46-.47A5.54,5.54,0,0,0,51,27.8a18.19,18.19,0,0,0-4,6.52c-.15-.46-.8-.47-1.26-.33a5.08,5.08,0,0,0-2.43,1.67c.3.65,1.29.26,1.78-.26s1.21-1.15,1.79-.75A1,1,0,0,1,47,36a2.75,2.75,0,0,1-1.2.79c-.71-.31-1.73-.52-2.11.17a1.1,1.1,0,0,0,.69,1.43,3.26,3.26,0,0,0,1.78,0l2-.4a4.38,4.38,0,0,0,2.78-1.3l-.57-.51a2.41,2.41,0,0,1-.95,1.11c-.44.21-1.11,0-1.17-.49a3.4,3.4,0,0,1-4.41.62c2.08.38,4.12-1,5.44-2.6s2.18-3.63,3.46-5.31c-1.07,2-2.21,3.87-3.4,5.75l3.35-3.91a2.3,2.3,0,0,1,1.7-1.06Q52.72,32.63,51,35l3.5-3.5c.21-.2.55-.41.74-.2a5.39,5.39,0,0,0-2.13,2,33.16,33.16,0,0,0,7.32-7.4c-2.1,3.59-5.24,6.44-8.33,9.23.79-.16,1.47-1.24,2.15-.8a.84.84,0,0,1,.14,1.12,2.55,2.55,0,0,1-1,.76c.44-.27,1,.27,1,.79a1.76,1.76,0,0,1-.91,1.2,61,61,0,0,0,12.39-5.08c1-.53,2.07-1.34,2-2.44a19.25,19.25,0,0,0,2.8-5.49,9.76,9.76,0,0,0,.56-3.54,6.77,6.77,0,0,0-1.64-4.08c-.61-.69-1.35-1.25-2-1.92a8.52,8.52,0,0,1-2.3-6.16c-.29,0-.14-.25-.43-.26C65,9,64.59,9,64.66,8.7A6.16,6.16,0,0,0,63.6,6.75a2.07,2.07,0,0,0-2-.69c-.47.13-1.21.34-1.26-.15a1.62,1.62,0,0,0-1.27-1.24,4.77,4.77,0,0,0-1.88,0l-3.38,7.55a55,55,0,0,1,2.83-7.76c-1-.28-1.62-1.31-2.24-2.18S52.82.58,51.79.85a2.84,2.84,0,0,0-1.61,1.71,27.21,27.21,0,0,0-2.11,5.93,18.65,18.65,0,0,1,2.11-7.22,2.12,2.12,0,0,1-2,.46A13.4,13.4,0,0,0,46,1.27c-1.91,0-3.24,1.78-4.79,2.9a7.34,7.34,0,0,1-5.84,1.17c-.84-.19-1.65-.54-2.51-.66a2.65,2.65,0,0,0-2.39.7,3.4,3.4,0,0,1-.53.6c-1,.65-2.3-1.07-3.3-.48a9.13,9.13,0,0,0,.94,8A8.55,8.55,0,0,1,26,5.83a5.23,5.23,0,0,0-3,1.26,24.55,24.55,0,0,0,2.88,6.29,17.69,17.69,0,0,1-3.24-5.89c-1.67.78-2.13,3.07-1.48,4.79a11.42,11.42,0,0,0,3.49,4.19A10.93,10.93,0,0,1,28,20.67c.68,1.85.35,4,1.24,5.74l.14-.88a6.79,6.79,0,0,0,1.2,2.88l-.53-3a19.31,19.31,0,0,1,2.83,5m39-18.06A9.87,9.87,0,0,1,69,15.71a9.82,9.82,0,0,1,1.14,12.34l4.26-1.85a14.48,14.48,0,0,0-5.55,4.05,14.09,14.09,0,0,0,6.19-2.78c-1.57,2.16-5,2.2-6.68,4.25-4.11,4.89-11.62,5-17,8.49a1.21,1.21,0,0,1,1.62.64l-3,1.59a3.51,3.51,0,0,1,2.9-.26l-1.31,1.23a1.71,1.71,0,0,1,1.87.4,6.51,6.51,0,0,0-3.78,1.08,17.8,17.8,0,0,1,4.06.22l-3.59.51,2.86.7-3.75-.06,2.89.53-4.15-.32a36.57,36.57,0,0,0,4,1.75L47.61,48c1.06,1.51,4.13.39,4.87,2.09l-4.87-.36,3.9,1.05a35.57,35.57,0,0,1-3.7-.58l3.59,1,0,.78-2.9-.68a1.26,1.26,0,0,0,1.28.88c-.44,0-.22.75.13,1a14.36,14.36,0,0,0,6.2,2.94c-4,.35-7.08-5-11-4.24l3,1.68a5.16,5.16,0,0,1-2-.63l.63.58-1.16.17L49,58.75a35.91,35.91,0,0,0-5.89-6.66l1.48,2.44A1.91,1.91,0,0,1,43,53.41a15.89,15.89,0,0,0,3.21,6.83c-2.84-2.34-3-6.68-5.18-9.63a22.87,22.87,0,0,0,1.2,4.3.78.78,0,0,1-.83-.64l-.06,1.26a8.82,8.82,0,0,1-1.71-1.39A9.7,9.7,0,0,0,42.18,61,28.55,28.55,0,0,1,38,53.92a5.48,5.48,0,0,0,.29,2.92.92.92,0,0,1-.84-.67,5,5,0,0,0,1.08,3.92,16,16,0,0,1-2.94-7.75,16.77,16.77,0,0,0,0,5.1,3,3,0,0,1-1.65-3.07l-1.58,4a9.81,9.81,0,0,1,2.2-6.21,4.57,4.57,0,0,0,.67,5,27,27,0,0,1,.26-5.39,2,2,0,0,1-1.68-1.16c-.25,2.05-.78,4.48-2.72,5.23a6.36,6.36,0,0,0-4,5.63l1.53-.18a2.3,2.3,0,0,1,2.89-.24,6.61,6.61,0,0,1,2,2.37l.78-.53a5.66,5.66,0,0,0,5.26,4,14.83,14.83,0,0,0,3-.47,21.35,21.35,0,0,1,9.31.19l.81-3.12c.37-1.42,3-.83,3.61-2.18.38-.87-.4-1.93,0-2.8.25-.55.89-.8,1.32-1.23,1.15-1.14.56-3.11-.33-4.46S55.26,50,55.45,48.43c.15-1.19,1-2.15,1.5-3.25a5.09,5.09,0,0,0,.12-3.72c-.49-1.63-3.52-.27-4.5-1.66a9,9,0,0,1,3.36.1,3.1,3.1,0,0,1,2.3,2.24l4.57-1.31a37.36,37.36,0,0,1-4.91,1.67c.89,2-1.55,4-1.8,6.26a3.44,3.44,0,0,0,3.81,3.59l6.87-1.18A48.43,48.43,0,0,1,57.6,52.8a6.28,6.28,0,0,0,4.81,1.84,18.53,18.53,0,0,0,5.18-1.07,14,14,0,0,1-8.64,1l.1,1L65,55.34a42.25,42.25,0,0,1-5.94.5c.14,1.25-1.48,1.9-2,3-.76,1.5.66,3.28,2.24,3.87s3.35.51,4.89,1.18A15.27,15.27,0,0,1,57,61.84a5.63,5.63,0,0,1-1.57.92,11.07,11.07,0,0,0,5.26,3,7.15,7.15,0,0,1-5-2.39c-.7-.8-2.17-.27-2.56.72a3.52,3.52,0,0,0,.55,3,8.88,8.88,0,0,0,5.82,4c1.57.31,3.46,0,4.32-1.31,1-1.58.09-3.66.36-5.51.32-2.15,2.23-3.73,4.22-4.61,1.2-.53,2.75-1.31,2.54-2.61-.07-.42-.34-.78-.41-1.2-.21-1.21,1.15-2,2.29-2.51A5.52,5.52,0,0,1,71,45.71l-1.3.06a1.76,1.76,0,0,1,.64-.94,13.81,13.81,0,0,1-3.74-2.11A39.19,39.19,0,0,1,59.11,45c-.36.07-.83.08-1-.25s.59-.57.5-.21a18.67,18.67,0,0,0,7.89-2c-.56-1.26-.08-2.71-.16-4.09s-1.39-2.93-2.6-2.27a1.84,1.84,0,0,1,2.74.32,4.59,4.59,0,0,1,.63,3,17.16,17.16,0,0,0,7.18-5A17.66,17.66,0,0,1,67,40.2c-.68,1.1.34,2.63,1.6,2.87a4.41,4.41,0,0,0,3.51-1.27A25.73,25.73,0,0,1,75,39.29a17.2,17.2,0,0,1-5.33,4.41,2.08,2.08,0,0,1,1.18,1A12,12,0,0,0,75.2,42a8.16,8.16,0,0,1-3.85,2.85,6.61,6.61,0,0,1-.6,4A9.73,9.73,0,0,0,75,47.53a9.73,9.73,0,0,1-4.48,1.93,2.36,2.36,0,0,0,1.12,1.84,4.5,4.5,0,0,1,1.53,1.6c.28.69-.14,1.7-.88,1.66-1-.05-1.16,1.41-.91,2.37s.28,2.38-.71,2.5A7,7,0,0,0,65,68.56c1,.14,1.9-.8,2.29-1.77a19.72,19.72,0,0,1,1-3c.89-1.5,2.73-2.09,4.32-2.83,4.77-2.22,8.38-7.3,7.91-12.54-.12-1.27-.44-2.64.2-3.74.27-.46.68-.83.92-1.3a1.1,1.1,0,0,0-.2-1.43,6,6,0,0,1-2.64-5.82,47.73,47.73,0,0,1-11.61,6c2-1.71,4.77-2.27,7.21-3.32s4.88-3,4.91-5.7c0-1.68-.82-3.69.42-4.82-1.68.39-3.2-1.52-3-3.24a6.6,6.6,0,0,1,2.8-4.2,3.91,3.91,0,0,0,.75-4.75,6.28,6.28,0,0,0-4.13-2.92c-2-.49-4.55-.58-5.36-2.46l-3.4,3.47a2.72,2.72,0,0,0,1.42,1.1l3.15-2.93M52.74,66.71a21.34,21.34,0,0,1-7-.27,44.7,44.7,0,0,0,2.51,7.22A18,18,0,0,1,46,68.08a2.79,2.79,0,0,0-.57-1.38.88.88,0,0,0-1.32,0c.08-.06.22,0,.17.13l-.52,0a14.1,14.1,0,0,0,2.38,5.9,11.71,11.71,0,0,1-2.85-5.81l-2.91.73.3.23a.71.71,0,0,1-.51-.14c-.76,2.73.38,5.66,2,8a9,9,0,0,1-2.4-8.27c-1.85.25-3.5-1.05-4.91-2.27l-1.14-1a12.74,12.74,0,0,0-.57,6.75,9.28,9.28,0,0,1-.13,4.39,21.42,21.42,0,0,0-.3-5.75,9.51,9.51,0,0,1,.69-5.64,9.82,9.82,0,0,0-1.56-1.46A48.66,48.66,0,0,0,31.64,70a10.68,10.68,0,0,1,0,2.33A7.74,7.74,0,0,1,31,74.2a17.3,17.3,0,0,1-2.44,4l1.89.08a16.22,16.22,0,0,0,2.78,2.65,3,3,0,0,0,1,.53,1,1,0,0,0,1-.27,1.45,1.45,0,0,1,1.28-.38,4.3,4.3,0,0,1,1.29.49A1.11,1.11,0,0,0,39,81a7.35,7.35,0,0,1,1-.81c1.28-.68,2.84.69,4.23.29,1-.29,1.48-1.32,2.22-2a3.65,3.65,0,0,1,2-1,11.78,11.78,0,0,1,1.68,0,7.43,7.43,0,0,0,4.63-1.36,4.46,4.46,0,0,0,1.78-4.3A4.77,4.77,0,0,0,54.41,69c-.79-.53-.93-1.69-1.67-2.29m-31-.4a5.3,5.3,0,0,0-1.77-.9,2.66,2.66,0,0,0-.74,0A6.18,6.18,0,0,0,16,66.62a7,7,0,0,0-.58.63,5.56,5.56,0,0,0-1.05,1.59c-.39,1-.16,2.3-.83,3.18a1.79,1.79,0,0,0-.23,1.42c.09.48.27,1,.34,1.44a4,4,0,0,0,.26,1.46,1.91,1.91,0,0,0,1.57.84c.61,0,1.23-.07,1.85,0a1.9,1.9,0,0,1,1.56.84c.12.22.17.48.29.7a1.91,1.91,0,0,0,1.73.86c.68,0,1.34-.2,2-.26a2.3,2.3,0,0,1,1.89.53c.26.27.7.06,1-.16a14.79,14.79,0,0,0,3.93-4.15A9.27,9.27,0,0,0,31.14,70a35.22,35.22,0,0,1,.12-6.81c.08-.75.11-1.69-.55-2.08a.81.81,0,0,0-.55-.1c-.65.14-1,1.19-1.61,1-.42-.1-.75.37-.93.77a24.45,24.45,0,0,0-2.17,6c-.32,1.87-.2,3.81-.54,5.68L25,69.81c0-.32,0-.63.06-.94a6.22,6.22,0,0,1,.28-1.13,39.79,39.79,0,0,1,2-5.06c.11-.25.21-.6,0-.75a14.56,14.56,0,0,1-1.75,3.28c-.38.54-.79,1.05-1.13,1.62a8.36,8.36,0,0,0-.81,1.74,11,11,0,0,0-.52,4.87c-.79-2.32,0-4.88,1.16-7.06a3,3,0,0,1-2.53-.07M11,28.39a14.7,14.7,0,0,0,2,1.14c.23.11.56.19.69,0A1.65,1.65,0,0,1,15.48,29c.67.16,1.28.51,2,.63a.57.57,0,0,0,.54-.12,5.33,5.33,0,0,1,5.33-1.55A10.35,10.35,0,0,1,28.19,31c-.24-1.19-.47-2.39-.68-3.59.16-.16.36.15.38.37a8.41,8.41,0,0,0,.5,2.44A3.26,3.26,0,0,0,30.05,32a.63.63,0,0,1,.68-.47L30,29.15a5.81,5.81,0,0,0-.63-1.55,9.66,9.66,0,0,1-1.46-3.72c-.26-1.47-.2-3.08-1.08-4.29a6.75,6.75,0,0,0-1-1L23,16.11a1.12,1.12,0,0,0-.42-.27,1.24,1.24,0,0,0-.43,0,9.75,9.75,0,0,0-4.33,2,.39.39,0,0,0-.18.26.36.36,0,0,0,.08.19,4.71,4.71,0,0,0,2.4,1.93,12.07,12.07,0,0,1,5.22,3.65l-1.82-1.3a13.17,13.17,0,0,0-1.81-1.15c-.78-.37-1.63-.58-2.38-1a4.68,4.68,0,0,1-1.91-2,2.11,2.11,0,0,0-.86,1.74,6.14,6.14,0,0,0,.41,2l.5,1.55a3.9,3.9,0,0,1,.26,1.16,2.1,2.1,0,0,1-.47,1.36,3.11,3.11,0,0,1-2,1c-.76.1-1.54,0-2.31.14a6.61,6.61,0,0,0-2,.56.39.39,0,0,0-.21.17c-.07.16.1.32.24.42M43.73,42a.46.46,0,0,0,.58-.42c-.32-.4-1.05-.29-1.31-.73a.88.88,0,0,1,.09-.89,5.1,5.1,0,0,0,.5-.8.65.65,0,0,0-.24-.82c-.13-.06-.29-.06-.4-.15a.53.53,0,0,1-.16-.37,3,3,0,0,1,.14-1.37l-1.31-.08a2,2,0,0,1-.72-.15.62.62,0,0,1-.35-.6.53.53,0,0,0-.5-.56.88.88,0,0,0-.71.4,2.45,2.45,0,0,0-.33.78h-.37a1.84,1.84,0,0,0-.46-.83.61.61,0,0,0-.86,0,1.31,1.31,0,0,0-.16.63c0,.21-.17.46-.39.45a5,5,0,0,1-1.2-.21l-.16,1.66c0,.21-.15.49-.35.43s-.46.19-.44.43a1.14,1.14,0,0,0,.33.63,1,1,0,0,1,.31.65.19.19,0,0,1-.07.16.19.19,0,0,1-.18,0c-.46-.14-.64-.79-1.11-.92s-.9.39-1.38.56-1.11,0-1.31.5l2.07-.16a.6.6,0,0,1,.49.12.47.47,0,0,1,0,.59,1,1,0,0,1-1.26.29,2.38,2.38,0,0,0-1.85-.1.42.42,0,0,0-.26-.52,1.26,1.26,0,0,0-.64,0l-6.25.79a12,12,0,0,0,5.19,0,1.68,1.68,0,0,1,1.13.13,2,2,0,0,1-1.42.73,43.71,43.71,0,0,0-5.3,1.46,20.7,20.7,0,0,0,6.39-1.65,7.88,7.88,0,0,1,2.36-.49l1.67-.16c.28,0,.65,0,.74.26.08-.2-.07-.42-.16-.62s0-.54.2-.52.22.17.27.3l.33.85a1.75,1.75,0,0,1,.64-.44.63.63,0,0,1,.72.18c.15.23.08.56.25.78.33.43,1.22,0,1.46.52a2.44,2.44,0,0,0,1.28,1.17c.2-.14.25-.41.35-.64s.38-.43.57-.28a7.15,7.15,0,0,0,1.09.73.33.33,0,0,0,.21,0c.1,0,.13-.15.16-.24l.2-1c.48-.15.75.7,1.25.72s.57-.41.66-.76a.91.91,0,0,0,0-.54M7.88,67.64a1.64,1.64,0,0,0,.54.08,2.76,2.76,0,0,1,1.2.26,1.25,1.25,0,0,1,.68,1c0,.56.62.88,1.13,1.08.2.08.46.15.6,0A1,1,0,0,1,13.48,70a3.19,3.19,0,0,1,.59-2.08,7.64,7.64,0,0,1,1.54-1.57A7.62,7.62,0,0,1,13.43,66a6.59,6.59,0,0,1-2.16-1.21,8.09,8.09,0,0,1-.61-.56,6.57,6.57,0,0,1-1.85-3.64,3.81,3.81,0,0,0-1.43-2c-1-.94-2-1.91-3-2.92a2.36,2.36,0,0,0-.45.84.81.81,0,0,0,.29.86l.65.4c.3.18.64.44.6.78a1,1,0,0,1-.28.52,3.4,3.4,0,0,0-.79,1.44,1.72,1.72,0,0,0,.37,1.56c.41.43,1.05.54,1.53.89a1.82,1.82,0,0,1,.6,2,2.37,2.37,0,0,0,.62,2.47,1.36,1.36,0,0,0,.32.21M40.55,44c0,.3-.28.5-.5.7a1.91,1.91,0,0,0-.43,2.16c.27-.11.58.19.57.48a1.09,1.09,0,0,1-.44.74.8.8,0,0,1-.74.24c-.18-.06-.38-.23-.53-.1s-.31-.05-.38-.21a1.06,1.06,0,0,1,.59-1.31c.11,0,.14-.16.17-.27l.25-1.2a.79.79,0,0,0,0-.43.83.83,0,0,0-.19-.23l-1.45-1.35c-.09-.08-.27-.14-.3,0a.53.53,0,0,1,0,.58c-.09.19-.24.34-.34.52a1.34,1.34,0,0,0-.14,1,2.92,2.92,0,0,1,1.12-1,.44.44,0,0,1,.22-.07c.22,0,.34.28.29.49a1.33,1.33,0,0,1-.38.53,3.89,3.89,0,0,0-1,3.17c0,.13.09.31.23.29a2.39,2.39,0,0,1,1,0,1,1,0,0,1,.7.6.63.63,0,0,1-.37.78.47.47,0,0,1,.33.37,1.88,1.88,0,0,1,0,.53,5,5,0,0,0,.53,2,2.66,2.66,0,0,0,0-1.58,13.64,13.64,0,0,1-.44-2.46c.1-.09.23.08.25.21l.49,2.37L40,50l.24-1,.38-1.72a3.75,3.75,0,0,1,.42-1.19.84.84,0,0,0,.11-.21c.07-.2,0-.46.13-.6a.32.32,0,0,1,.38,0,1,1,0,0,1,.25.32.44.44,0,0,1,.08.34,2.11,2.11,0,0,0,.37,1.75,12.08,12.08,0,0,1,1,1.56c.08.2.36.18.58.14a3.51,3.51,0,0,1,1.92.24.5.5,0,0,1,.14-.55.78.78,0,0,1,.57-.17.94.94,0,0,0-.39-.22c.24,0,.26-.35.2-.57l0-.16c.14-.09.26.14.33.29.22.43.83.44,1.31.39l-.55-.39a.31.31,0,0,1-.46.12.91.91,0,0,1-.28-.46,2.48,2.48,0,0,1-2.07-1.64,2.24,2.24,0,0,0-.54-.73,5.33,5.33,0,0,1-1-1.58,2.74,2.74,0,0,0,.4,2.7c.18.22.46.42.72.33s.4.38.67.37a.53.53,0,0,1,.46.5,1.55,1.55,0,0,1-.19.72c-.06.13-.14.28-.28.32a.55.55,0,0,1-.22,0c-.43-.1-.93-.38-.87-.82s-.3-.68-.57-1a3.15,3.15,0,0,1-.78-3c.05-.19.06-.49-.14-.5a1.67,1.67,0,0,1-.41.94.33.33,0,0,1-.15.11.41.41,0,0,1-.19,0,3.91,3.91,0,0,1-1-.62M38.3,34.25A11.26,11.26,0,0,1,37.37,32c0-.19-.15-.43-.34-.42s-.36-.18-.45-.37-.16-.41-.34-.5a3.32,3.32,0,0,1-1.5-1.64l.17,1.26a.54.54,0,0,0,.11.28c.08.08.2.08.31.12s.21.13.18.23a.21.21,0,0,1-.07.11,2.7,2.7,0,0,1-1.22.69l.63,1a.54.54,0,0,1,.34-.74,2.4,2.4,0,0,1,.92-.11.86.86,0,0,1,.72.51.88.88,0,0,1-.23.85,2.59,2.59,0,0,1-.77.49,5.59,5.59,0,0,1,1.34,1v-.25a1.23,1.23,0,0,1,1.5.69c.15,0,.23-.18.29-.32a1,1,0,0,1,.84-.54,2.78,2.78,0,0,1,1,.16,3.94,3.94,0,0,1,.27-3.1,5,5,0,0,0,1-3.06l0-2.6a10.85,10.85,0,0,0-.07-1.4,15.34,15.34,0,0,0-.14,5.32c0,.14-.17.23-.29.17a.54.54,0,0,1-.24-.33,15,15,0,0,1-.72-4.33,17.42,17.42,0,0,0-.12,2.28,1.76,1.76,0,0,0,.14.79c.09.16.21.29.28.45a1.48,1.48,0,0,1-.17,1.15,1,1,0,0,1-.36.48c-.18.09-.46,0-.48-.19s-.21-.1-.26,0a.39.39,0,0,0,.05.33.47.47,0,0,1,.07.34.66.66,0,0,1,.7.59,1.11,1.11,0,0,1-.42.9,2.2,2.2,0,0,0-.31.3.55.55,0,0,0,0,.53c.1.2.31.32.45.5s.15.5-.06.58a.44.44,0,0,1-.43-.2,3.09,3.09,0,0,1-.78-1.82.87.87,0,0,1,.27-.81c.18-.12.15-.4.06-.6a1.51,1.51,0,0,1-.27-.59c0-.37.34-.73.17-1.07A13.3,13.3,0,0,1,38,25.68a13.41,13.41,0,0,0,.44,4,1.42,1.42,0,0,1-.09,1.23c-.1.12-.23.2-.32.32a.91.91,0,0,0-.11.82,4.64,4.64,0,0,0,.39.77A6.21,6.21,0,0,1,38.78,34c0,.2,0,.49-.16.52s-.25-.14-.32-.28m32.32-23.7a.75.75,0,0,0,0-.42,4.34,4.34,0,0,0-.37-1.38,1.47,1.47,0,0,0-1.1-.84,2.08,2.08,0,0,0-.7.1A14.91,14.91,0,0,0,65.9,9.1a.28.28,0,0,0-.11.08.25.25,0,0,0,0,.19l.83,3.51A4.88,4.88,0,0,0,67,14a15.94,15.94,0,0,1,3.37-3.19.84.84,0,0,0,.27-.26m-27.55,21c-.1-.1-.25,0-.31.16a1,1,0,0,1-.58.55c-.27.06-.58-.27-.41-.49a1.78,1.78,0,0,0-.51,1.62,4.79,4.79,0,0,1,.17.75c0,.5-.35,1-.21,1.46l.69.07a.39.39,0,0,0,.32-.06l2-1.8a.69.69,0,0,1,.4-.22A3.74,3.74,0,0,0,46.29,33c.09-.06.17-.17.1-.23-.26-.21-.09-.65.19-.82s.62-.21.9-.38c.52-1.43,1-2.88,1.37-4.35-.3,0-.53.26-.68.52a25.58,25.58,0,0,0-2.33,5.34c0,.1-.18.07-.22,0a.45.45,0,0,1,0-.28,1.31,1.31,0,0,0-.11-.85c-.2,0-.31.25-.45.41s-.45.2-.5,0l-.3,1.06c0,.19-.15.41-.35.41s-.29-.47-.51-.64a2.42,2.42,0,0,0-1.25,2.14c0,.13-.19.19-.3.12a.47.47,0,0,1-.16-.36,2.45,2.45,0,0,1,.62-1.92c.15-.16.33-.38.21-.56s0-.43.17-.58.35-.3.38-.52M30.92,33c-.09.19-.39,0-.47-.16s-.09-.45-.28-.54a4.36,4.36,0,0,1-1.78-1.6c-.11.33.19.64.46.86l.73.57c.24.19.5.5.32.75s-.49.14-.73,0-.26-.74-.6-.76a3.73,3.73,0,0,0,.52,1.61c-.22.15-.51,0-.69-.22a8,8,0,0,1-1.87-2.92l0,2.43c0,.18,0,.4-.19.45A4.31,4.31,0,0,0,28.33,35a2.3,2.3,0,0,1,1-.71,1.12,1.12,0,0,1,.61-.14.38.38,0,0,1,.34.44c-.08.23.11.47.31.6a1.79,1.79,0,0,1,.58.43L31,34.92a.34.34,0,0,0-.26,0,.88.88,0,0,1,.95-1,1.44,1.44,0,0,1-.48-.68.43.43,0,0,0-.11-.21c-.06-.06-.18-.06-.21,0m18.14,8.37a.57.57,0,0,0,.49-.14l1.09-.73c.13-.08.27-.22.21-.36a.65.65,0,0,1,.39-.83,6,6,0,0,0,2-.9,2.34,2.34,0,0,0,1-1.86c-.45-.27-1,.09-1.41.44-.58.52-1.13,1.07-1.67,1.64a.83.83,0,0,0-.25.42,2.18,2.18,0,0,1-1.36,1.71.56.56,0,0,1-.42,0,3.17,3.17,0,0,0-1.23-.1,11.64,11.64,0,0,1-2.78-.77c-.48-.13-1.11-.16-1.38.26-.1.15-.1.4.07.45,0-.27.31-.44.57-.4a1.76,1.76,0,0,1,.7.37,3.55,3.55,0,0,0,2.35.58,3.87,3.87,0,0,1,1.69.18m-2.61,5.43c.22-.07.47-.17.53-.39a.33.33,0,0,1,.4-.2,1,1,0,0,1,.42.24l-.25-.57c.42,0,.84-.11,1.25-.18a2.37,2.37,0,0,1-1.45-1.34.47.47,0,0,0-.28-.34l-1.28-.67-.09-.15-1.27-.41a.33.33,0,0,0,0,.39.9.9,0,0,0,.32.26l1.14.66.42.24a2.55,2.55,0,0,1,.38.26,1,1,0,0,1,.32.91,1.05,1.05,0,0,1-.57.77,1.66,1.66,0,0,1-.87-1.43.62.62,0,0,0-.3-.47A3.36,3.36,0,0,0,44,43.81a.77.77,0,0,0,.09,1c.24.29.58.49.8.79a6.93,6.93,0,0,1,.41.76,1,1,0,0,0,.67.52,1.07,1.07,0,0,0,.46-.08m-12-1.47a2.65,2.65,0,0,1,.95-1.29c.17-.12.39-.29.32-.49a5.14,5.14,0,0,0-2.39,1.9c.36,0,.61.43.5.79a1.55,1.55,0,0,1-.73.79,1,1,0,0,1-.4.21.74.74,0,0,1-.77-.5,1.77,1.77,0,0,1,0-1,20.68,20.68,0,0,0-2.68,2.29c-.9.74-2,1.3-2.56,2.35A6,6,0,0,1,28.74,49c1-.41,1.57-1.47,2.42-2.15a.47.47,0,0,1,.29-.14c.11,0,.22.1.2.2a.25.25,0,0,0-.23.23,1.6,1.6,0,0,1,.65.12.51.51,0,0,1,.3.53.37.37,0,0,0,.68.28.47.47,0,0,1,.36-.52,1.27,1.27,0,0,1,.69.06l.16-1.28a5.11,5.11,0,0,1,.2-1m14.18-6.2c.13.16.37.1.56,0l1-.35a5.27,5.27,0,0,0,.49-.22,3,3,0,0,0,.52-.43L54,35.53c.2-.18.41-.43.35-.69a.54.54,0,0,0-.6-.33,1.57,1.57,0,0,0-.66.35A19.39,19.39,0,0,0,51,36.75c-.17.17-.34.44-.2.63a.58.58,0,0,1-.08.66,1.55,1.55,0,0,1-.6.37,1.09,1.09,0,0,1-.89.12,1.1,1.1,0,0,1-.57.61M33.8,42.25l-1.39.34a.62.62,0,0,1-.27,0c-.16,0-.25-.21-.37-.33s-.36-.17-.42,0a.26.26,0,0,0,0,.15,1.45,1.45,0,0,1-1.29,1.47,4,4,0,0,0-1.13.31,27.14,27.14,0,0,0-4.39,2.17,24.15,24.15,0,0,0,4.73-1.91A3,3,0,0,1,30.89,44a1.5,1.5,0,0,0,.42,0,.34.34,0,0,0,.28-.27c0-.26.25-.44.48-.57l1.73-1m-.83-8c.12.23-.06.48-.21.69s-.28.5-.11.68a.71.71,0,0,0,.18.12l.63.3a.84.84,0,0,0,.4.12.32.32,0,0,0,.31-.22c0-.12.21-.09.28,0a.5.5,0,0,1,0,.5.73.73,0,0,1,.28.59c0,.2-.16.42-.34.36s-.15-.15-.22-.23-.19-.15-.27-.08a.22.22,0,0,1,.07.38,6.87,6.87,0,0,1-1.86-.92c-.06,0-.12.05-.13.12,0,.25-.06.57.15.72a.68.68,0,0,0,.27.1l1.52.33c.11,0,.28,0,.3-.09s.13-.11.21-.1a.39.39,0,0,0,.26,0,.3.3,0,0,0,.11-.24L35,36.17a.64.64,0,0,0,0-.31c-.09-.22-.39-.25-.59-.38s-.37-.41-.63-.46-.18-.12-.24-.22L33,33.94c0-.08-.17,0-.16.09a.68.68,0,0,0,.12.22M47.71,43a1,1,0,0,1-.35-.07c-.36-.16-.38-.69-.19-1a6.38,6.38,0,0,1-2.4-.77,1,1,0,0,1,.07,1.09c.7.4,1.41.77,2.15,1.1a1.29,1.29,0,0,0,.63.14,3.11,3.11,0,0,0,.49-.16.43.43,0,0,1,.46.11c.1.14.31,0,.47,0s.34.11.52.17.43,0,.42-.19A3.81,3.81,0,0,0,49,43a8.85,8.85,0,0,1-1.26,0m6.35-12.43a.15.15,0,0,0,0-.17c-.29-.1-.57.16-.77.4l-3.75,4.4a1.37,1.37,0,0,1,.81.45,39,39,0,0,1,2.32-3.39l1.08-1.45a.49.49,0,0,1,.29-.24M32.77,31c.07,0,.18,0,.15-.09l-1.17-2.43a15.7,15.7,0,0,0-1.23-2.24.34.34,0,0,0-.21-.16l.1.49a9.86,9.86,0,0,0,1.35,3.71,2,2,0,0,0,.35.41,1.39,1.39,0,0,0,.66.31m-8.71,5.88s0,0,0,0a3.21,3.21,0,0,0,1.64,1c.21.05.43.07.65.1l1.86.22c.15,0,.27-.13.34-.26a.75.75,0,0,1,.26-.36l-.89-.12A6,6,0,0,1,26.1,37a2.88,2.88,0,0,0-2-.18s-.05,0,0,.05m27.88,3.47a2.34,2.34,0,0,0-.9.22c-.56.26-1,.73-1.55,1-.05,0-.11,0-.14.1a.27.27,0,0,0,0,.2l.06.48a.32.32,0,0,0,0,.09s.12,0,.18,0L52.32,41a.47.47,0,0,0,.21-.16.34.34,0,0,0-.12-.43.83.83,0,0,0-.47-.1M34.82,47.52c0,.21.19.4.24.62a.46.46,0,0,1-.22.56.55.55,0,0,0-.18.06c0,.05,0,.16.05.14a.79.79,0,0,1,.78.11.18.18,0,0,0,.24,0,.61.61,0,0,0,.08-.26l.11-1a.69.69,0,0,0,0-.32.28.28,0,0,0-.23-.2.81.81,0,0,1-.67-.43.82.82,0,0,1,0-.79,1.3,1.3,0,0,1,.86-.49c.19,0,.23-.3.21-.49s-.08-.42,0-.56,0-.1-.06-.1a.19.19,0,0,0-.12.07,3.94,3.94,0,0,0-1,1.28,4.07,4.07,0,0,0-.22,1.35,2.36,2.36,0,0,0,0,.46M24.05,39.13a4.14,4.14,0,0,0,1.93.44l.56,0,2.46-.2a1.42,1.42,0,0,1,1.29.33.47.47,0,0,0-.3-.5,1.49,1.49,0,0,0-.63-.06,10.31,10.31,0,0,1-2.6-.21,4.92,4.92,0,0,0-2.71.23m11.09-3.87.31.17a3.38,3.38,0,0,0,.83.28.3.3,0,0,0,.28,0,.26.26,0,0,0,.07-.11l.21-.49a5.33,5.33,0,0,1-.76-.37,2.93,2.93,0,0,1-1-1,4,4,0,0,1-.31-.62.21.21,0,0,0,0,.22,2,2,0,0,0,.1.21.76.76,0,0,1-.07.55,2.09,2.09,0,0,1-.42.64,1.76,1.76,0,0,0,.53.4l.28.16m-4.62,4.87c0-.17-.23-.22-.41-.23a39.46,39.46,0,0,0-6.7.18,1.63,1.63,0,0,0,1.1.28c.45,0,.91-.08,1.37-.1l2.35-.14a12.51,12.51,0,0,1,2.29,0m-1.4,16c.92-1.65,1.77-3.34,2.57-5a.75.75,0,0,0,.1-.33,18.11,18.11,0,0,0-2.72,4.82c-.06.19-.1.43.05.56m1-7.38c0,.09-.06.18-.15.22a2.74,2.74,0,0,1-.28,0,1.21,1.21,0,0,0-.57.46,34.47,34.47,0,0,0-2.05,2.9c-.05.08-.09.19,0,.24,1.05-1.12,2.06-2.29,3-3.49a2.88,2.88,0,0,0,.42-.63,1.48,1.48,0,0,0,.14-.62c-.27.22-.58.52-.51.87m3,1.22L31.29,53.5a5.61,5.61,0,0,0-.61,2,2.57,2.57,0,0,0,.75-1.17l1.74-4.16c0-.08,0-.22-.05-.22M29.59,36.88a.17.17,0,0,0,.14,0,.14.14,0,0,0,0-.21.42.42,0,0,0-.22-.11,7.05,7.05,0,0,1-1.91-.83,2.1,2.1,0,0,0-.65-.23,6.81,6.81,0,0,0-1.74-.17,1.34,1.34,0,0,0,.87.53l1.32.38.45.13,1.72.5m.14-.91a.66.66,0,0,0-.71-.12c-.17.07-.31-.15-.44-.28s-.69-.24-1-.48A5.66,5.66,0,0,0,25.85,34c-.05,0,0,.1,0,.13a5.87,5.87,0,0,0,1.76,1.3l1.66.7a1.24,1.24,0,0,0,.83.11l1.1-.17a2.65,2.65,0,0,1-1-.51,1,1,0,0,0-.38-.22.26.26,0,0,0-.33.2.69.69,0,0,1,.32,0,.27.27,0,0,1,.17.26c0,.11-.17.19-.25.11M46.9,39.05a3.47,3.47,0,0,1-.71.16,2.31,2.31,0,0,1-1,0,1.06,1.06,0,0,1-.71-.64l-.08.62s0,.06,0,.07a10.71,10.71,0,0,1,1.94.45,5.28,5.28,0,0,0,1.35.36,1.44,1.44,0,0,0,.68-.12.4.4,0,0,1-.08-.38l-.11-.11a.4.4,0,0,1-.76-.23c0-.11-.11-.21-.23-.22a.67.67,0,0,0-.34.07M39,55.47a.15.15,0,0,0,.11.07s.09,0,.06-.09a.82.82,0,0,1-.06-.52,2.29,2.29,0,0,0-.1-.68l-.42-1.81a.56.56,0,0,1,0-.25.21.21,0,0,0,0-.24l-.46,1.34a1.09,1.09,0,0,0-.09.47,1.4,1.4,0,0,0,.13.34l.32.61a3.57,3.57,0,0,0,.5.76m2.75-5.73a.09.09,0,0,1,.11-.08s.09,0,.13.07l.27.23a.28.28,0,0,0,.37-.08.69.69,0,0,0,.09-.61,1.67,1.67,0,0,0-.33-.54,5.9,5.9,0,0,1-1-2c-.08.32-.13.65-.18,1l-.1.61s0,.08,0,.11a.11.11,0,0,0,.07,0,4,4,0,0,0,.49,0,.41.41,0,0,1,.39.24.75.75,0,0,1-.22.8.29.29,0,0,0-.11.11.11.11,0,0,0,0,.14m2.46-18.61a27.46,27.46,0,0,1,.31-2.73c0-.23.08-.45.14-.68a1.37,1.37,0,0,0,.07-.82c-.47,1.45-.89,2.92-1.27,4.41,0,.08,0,.21.08.21s.23-.14.37-.16.29-.1.3-.23M28.07,55.94a16.1,16.1,0,0,0,2.25-3.29L32.39,49,29,54.24a7,7,0,0,0-.91,1.7m5.29-23.22H34a1.54,1.54,0,0,0-.74-.79l-.57-.38-.08.08a.4.4,0,0,1-.34.56c-.27,0-.22.55-.48.56-.07,0-.08.1-.06.17s.15.35.31.33.27-.35.48-.38.16,0,.23,0,.17-.09.26-.13a.91.91,0,0,1,.33,0M40,52.5a2.51,2.51,0,0,0,0,.27,6.24,6.24,0,0,0,.39,1.34l.12.25a2.92,2.92,0,0,0,.54.76,5.94,5.94,0,0,0-.36-2,10.74,10.74,0,0,1-.51-1.76A2.05,2.05,0,0,0,40,52.5M28.65,33.3a3.15,3.15,0,0,1-.29-1.17.78.78,0,0,0-.28-.46l-.28-.28c-.22-.21-.43-.42-.66-.62l-.36-.29c-.05,0-.11-.07-.17-.05s-.05.13,0,.12.14.09.17.17a7.08,7.08,0,0,0,.71,1.4,3.54,3.54,0,0,0,1,1.15c.05,0,.11.06.16,0m17.11-3c.11.13,0,.39.19.46.09-.34.16-.68.23-1,.09-.5.17-1,.24-1.51l.19-1.25c-.1,0-.18.08-.2.18a1.35,1.35,0,0,1,0,.29c-.36.86-.7,1.73-1,2.59,0,.09-.06.19,0,.26s.33-.12.44,0m-15.91,7a1.44,1.44,0,0,0-.7-.28,14,14,0,0,1-2.34-.43c-.37-.14-.71-.34-1.08-.49A1.86,1.86,0,0,0,24.57,36a3.08,3.08,0,0,0,1.49.67L28,37.1a11,11,0,0,0,1.71.31c.07,0,.18,0,.17-.11m10.8,12.86a1.27,1.27,0,0,0-.13,1.13A17.77,17.77,0,0,0,41,53.06a2.56,2.56,0,0,0,.51,1,.6.6,0,0,1,.14.44.16.16,0,0,0,.14-.14.41.41,0,0,0,0-.22c-.21-.64-.42-1.28-.59-1.93s-.31-1.19-.42-1.79c0-.09,0-.23.08-.25s-.12,0-.17,0m-10.9-3.57-.49.28-.41.27a17.29,17.29,0,0,0-2.64,2.18.21.21,0,0,0,.2,0,31.73,31.73,0,0,0,3.94-2.87c.06,0,.13-.13.09-.21l-.54.31-.15.09m.09,9.17q1.15-2.07,2.22-4.19L32.84,50l.23-.49a1.42,1.42,0,0,0-.59.72L29.7,55.8c0,.06.11,0,.14,0M44.71,51.6s0,.08.07.07a12.41,12.41,0,0,1,1.93.06.57.57,0,0,0-.27-.21l-1.86-.94a.61.61,0,0,0-.32.13l.45.89m-19.6-4.22,4.39-2.07c.21-.1.45-.26.41-.49q-2.82,1.38-5.61,2.81a2.18,2.18,0,0,0,.81-.25m23,.22a3.21,3.21,0,0,0,.79.27,6.86,6.86,0,0,0,1.5.07,1,1,0,0,0,.53-.13l-.63-.15-.66-.16-1-.23a.49.49,0,0,0-.57.33m3.68,2.34c0-.12-.15-.18-.27-.2l-3.92-.66a.44.44,0,0,1-.2-.08c-.07,0-.18-.14-.2-.06s0,0,0,0a.61.61,0,0,0,.53.47c1.36.11,2.72.27,4.06.49m-7.67,4.31a.91.91,0,0,0-.33-.6,8.9,8.9,0,0,1-1-1.32,5.35,5.35,0,0,1-.82-1.7.35.35,0,0,0-.06-.14s-.11,0-.12,0,0,.05,0,.07c.13.42.28.83.44,1.23,0,.13.11.26.17.38a5.43,5.43,0,0,0,1.68,2.06M32.27,38.62c.21-.08.46.15.67.05a.47.47,0,0,1,.35,0c.12,0,.27,0,.33-.07.06.12.27.08.34,0a2.78,2.78,0,0,0-.56-.17l-1.08-.26L31.79,38a.67.67,0,0,0-.59,0,.55.55,0,0,0,.45.28c.23,0,.39.37.62.29m19.29-3.3a2.1,2.1,0,0,0-.32.46,1.08,1.08,0,0,0-.11.53c.61-.75,1.25-1.48,1.9-2.19a1.3,1.3,0,0,1,.22-.19.67.67,0,0,0,.14-.09.1.1,0,0,0,0-.14,6,6,0,0,0-1,.73,6.14,6.14,0,0,0-.42.47l-.36.42M24.4,44.38A37.57,37.57,0,0,0,28,43.28l0,0s0-.09,0-.08a26.37,26.37,0,0,0-4.07,1.2.66.66,0,0,0,.46,0M26.19,32c0,.12,0,.26.16.31a15.22,15.22,0,0,0-.11-1.79,1.16,1.16,0,0,0-.12-.46,1.1,1.1,0,0,0-.36-.32s-.06,0-.1,0a.06.06,0,0,0-.06.07A10.19,10.19,0,0,1,26.19,32m6.59,21.38-.21.5s0,.08-.07.1a.07.07,0,0,1-.11,0,.11.11,0,0,1,0-.08l.41-1A1.34,1.34,0,0,0,33,52a2,2,0,0,0-.11.26L32,54.56a.29.29,0,0,0,0,.24,3.42,3.42,0,0,0,.78-1c.07-.13.12-.31,0-.41m6.69-25a.76.76,0,0,1-.23-.3l-.4-.81a7.75,7.75,0,0,1-.39-.89c0-.11-.14-.24-.23-.18l.37,1.16c0,.14.09.28.14.41s.22.45.3.68a.18.18,0,0,0,.23.09.56.56,0,0,0,.21-.16M50,32a4.92,4.92,0,0,0-.94.94l-.2.34-.62,1.11a.17.17,0,0,0,0,.13.06.06,0,0,0,.11,0,29.68,29.68,0,0,1,1.76-2.45s.05-.11,0-.13,0,0-.07,0m2.33,11.73a2.91,2.91,0,0,1,.66,0s.06-.05,0-.09a.16.16,0,0,0-.11-.07,1.18,1.18,0,0,0-.56,0c-.85.17-1.69.36-2.53.57l-.2.05a.35.35,0,0,0-.17.09.1.1,0,0,0,0,.16h.07l.86-.25c.31-.09.62-.18.94-.25s.63-.12,1-.16m-2.21,1.44a.38.38,0,0,1-.33-.09l-.51.4a.09.09,0,0,0,0,.07c0,.06.1.06.16,0a5.49,5.49,0,0,1,.91-.22,16,16,0,0,1,2.59-.23c0-.1-.16-.12-.27-.11l-1,.05-1.53.09M25.54,38.46a1.36,1.36,0,0,0,.44.11l1.05,0-1.3-.35-.3-.08c-.34-.09-.7-.15-1.05-.21-.05,0-.12,0-.11.06s0,0,.05,0l1.22.48m5.08-8.55c-.11-.25-.2-.51-.29-.77a.5.5,0,0,0,0,.34A10.1,10.1,0,0,0,31,31.32c0,.08.11.16.18.12s0-.16,0-.25a.33.33,0,0,1,.11-.39.13.13,0,0,0,.07-.05c0-.05,0-.1,0-.14s-.41-.28-.56-.48a.94.94,0,0,1-.12-.22m12.88-3a1.12,1.12,0,0,0-.21.54L43,29l-.09.47a.54.54,0,0,0,0,.22.17.17,0,0,0,.18.11c.08,0,.1-.13.11-.22.09-.88.19-1.77.29-2.65M25.82,40.69a6,6,0,0,0-1.12.09l-.48.11-.78.2,0,0a.07.07,0,0,0,0,.1h.12c.56-.11,1.13-.21,1.7-.28l.82-.09.78-.09a8.72,8.72,0,0,0-1-.06m7.42,11.22a2.44,2.44,0,0,0,.14-.34L33.91,50a.33.33,0,0,0,0-.29A11.67,11.67,0,0,0,33.26,51a.73.73,0,0,0-.1.28,1.1,1.1,0,0,0,0,.26l.06.4m2.95-23.67c-.06,0-.07.08-.06.14.11.41.23.82.37,1.23,0,.09.08.19.17.21a.22.22,0,0,0,.14,0c.09,0,.19-.06.2-.15a.21.21,0,0,0-.08-.19,4.63,4.63,0,0,1-.74-1.22M22.85,42.66c0,.08.15.08.23.07a24.64,24.64,0,0,0,3.2-.57.2.2,0,0,0-.2,0l-1.38.22c-.62.09-1.24.2-1.85.32M46.09,31.07a.75.75,0,0,0,0,.39,9.32,9.32,0,0,0,.37-1.05l.38-1.24a.42.42,0,0,0,0-.33,13,13,0,0,0-.56,1.59c-.07.21-.12.43-.18.64M50.5,51.43a4.13,4.13,0,0,0-.83-.24l-.61-.1-.4-.06c0,.06.05.11.12.12.68.14,1.36.31,2,.51a.45.45,0,0,0-.3-.23M39.22,54.05s0-.06,0-.09v-.6a.42.42,0,0,0,0-.19,1.79,1.79,0,0,1-.28-.84.22.22,0,0,0-.13.26,5.12,5.12,0,0,1,.3,1.33c0,.07.06.16.11.13M26.29,36.12c0,.07.06.12.13.15a7.56,7.56,0,0,0,1.83.46,2.07,2.07,0,0,0-.8-.32l-1.16-.29m.49,2.58a1.25,1.25,0,0,0,.51.14c.42,0,.84.07,1.26.07a1.25,1.25,0,0,0-.89-.23l-.88,0m9.8,15.87a1.39,1.39,0,0,0,.07.44l.21.76a.69.69,0,0,0,.12.31,1.27,1.27,0,0,0,.05-.34,2.25,2.25,0,0,0-.31-1c0-.07-.07-.14-.14-.17M44.84,53l-.59-.42a.87.87,0,0,0-.7-.23,12.42,12.42,0,0,0,1.25.78.1.1,0,0,0,.09,0s0-.12,0-.15M28.78,39.52l-.94.09c0,.1.17.11.27.09a2.74,2.74,0,0,1,1.14,0c.05,0,.09,0,.14,0s.11,0,.16,0,.13,0,.15,0,0-.1-.1-.12a2,2,0,0,0-.82,0M30.7,54.7c.05-.09.09-.22,0-.28l-.6,1.22s0,.11,0,.12h0a.48.48,0,0,0,.32-.3,3.39,3.39,0,0,0,.11-.43,1.61,1.61,0,0,1,.12-.33M25,45a.72.72,0,0,0,.52,0,8,8,0,0,0,1.32-.54c0-.07-.13-.06-.2,0A16,16,0,0,1,25,45M36.08,27.35a3.48,3.48,0,0,1-.19-.65.11.11,0,0,0,0-.09s-.08,0-.07,0a4.69,4.69,0,0,0,.74,1.86.37.37,0,0,0-.07-.36,8.08,8.08,0,0,1-.37-.79m15.78,15a.45.45,0,0,0-.12.06c-.1.11,0,.27.14.36a1.33,1.33,0,0,1,.81-.37c-.21-.2-.55-.13-.83,0M49.74,44l.87-.22.5-.12a.73.73,0,0,0-.66-.06c-.22.08-.42.19-.64.25,0,0-.09,0-.11.06s0,.1,0,.09M35.93,25.86a.73.73,0,0,0,0,.56l.32,1.1s0,0,0,0,.11,0,.13,0a.23.23,0,0,0,0-.16A4.49,4.49,0,0,1,36,26.18a.72.72,0,0,0-.11-.32m4.23,28.48a4.75,4.75,0,0,0-.26-1.05.08.08,0,0,0,0,0c-.05,0-.1,0-.11.1a1.1,1.1,0,0,0,.39,1M27.63,37.2a9.83,9.83,0,0,0-1.31-.38c-.08,0-.18,0-.19.06a9.14,9.14,0,0,0,1.36.38c.06,0,.14,0,.14-.06M41.88,50a.26.26,0,0,0,0,.17l.29.56a.53.53,0,0,0,.11.15.14.14,0,0,0,.17,0s0-.14,0-.14a.21.21,0,0,1-.07-.41L41.88,50m3.85,3.21c.12.06.28.12.39,0-.31-.23-.62-.44-.94-.64-.07,0,0,.14,0,.19a2.93,2.93,0,0,0,.52.41M32.49,31.33a7.67,7.67,0,0,1-.82-.53.57.57,0,0,0,.25.5.58.58,0,0,0,.57,0M46.42,14.85c0,.18,0,.36,0,.53a4.52,4.52,0,0,1-.12.62c0,.07,0,.18.06.18a4.59,4.59,0,0,0,.1-2v.72M49.26,49.2a.72.72,0,0,0-.41-.2l-.72-.17c-.07,0-.16,0-.16.06s.06.07.1.08a7,7,0,0,0,1.19.23m-6.17,2.6a.2.2,0,0,0,.13,0,.06.06,0,0,0,0-.1c-.14-.15-.28-.3-.43-.44s-.17-.1-.2,0,0,.07,0,.1a.9.9,0,0,0,.46.46m-1.66-1.56a.42.42,0,0,0,0-.15c-.08-.13-.28-.09-.42,0a.88.88,0,0,1,.4.66,2,2,0,0,0,.06-.48m5.19.25a2.42,2.42,0,0,0,.84.21c.07,0,.18,0,.14-.1a.09.09,0,0,0-.06,0,2.2,2.2,0,0,0-.92-.08m-1.68,0a1,1,0,0,1,.5-.05c.05,0,.12,0,.15,0s0-.1-.06-.13a.38.38,0,0,0-.21-.12.16.16,0,0,0-.18.11c0,.06-.09.08-.15.1s-.1.11-.05.13m-7.2,5.7a3.44,3.44,0,0,0-.05-1l0-.23a.43.43,0,0,0-.09.48,1.81,1.81,0,0,1,.12.51c0,.07,0,.17.05.2M29,46.17l-1,.44a.15.15,0,0,0-.06,0,.07.07,0,0,0,0,.06,7.38,7.38,0,0,0,.91-.4c.06,0,.13-.1.09-.15M31.42,30a.06.06,0,0,0-.09-.05.11.11,0,0,0-.07.09.36.36,0,0,0,.12.34c.1.09.21.15.31.23s0-.16-.08-.22a.49.49,0,0,1-.19-.39m-3.77,8.35a3.68,3.68,0,0,0-1-.19.28.28,0,0,0-.18,0,3.93,3.93,0,0,0,1.23.17m9,4.72s0,.1,0,.16-.14.14-.19.23a.19.19,0,0,0,.09.27l.22-.45a.23.23,0,0,0,0-.14s-.07-.1-.11-.07m-6.8-4.26.07,0c.07,0,.15,0,.23,0s.19,0,.18-.09A.36.36,0,0,0,30,38.6a.35.35,0,0,0-.25.06c0,.07,0,.2.09.17M45.22,52.32s0,.06.06.08a.71.71,0,0,0,.63.2l-.49-.3c-.07,0-.2-.06-.2,0m-1.46-1.46a.15.15,0,0,0,0,.26.84.84,0,0,1,.34.25.63.63,0,0,0-.32-.51m.19.86a2,2,0,0,0-.44-.27s-.13,0-.14,0a.48.48,0,0,0,.58.25m.19.53a1,1,0,0,1,.15.07.18.18,0,0,0,.16,0s0-.13,0-.13a.34.34,0,0,1-.31-.2c0-.07-.17,0-.15.08s.1.13.18.16m4.44-7.76c0-.07.14,0,.19-.06s0-.1,0-.13a.22.22,0,0,0-.16,0,.54.54,0,0,0-.31.27.32.32,0,0,0,.29-.1m-15.69-13a.19.19,0,0,1,.22.07l.12-.12a.89.89,0,0,0-.31-.15c-.09,0-.21,0-.21.09l.18.09M37.41,52.7a1.26,1.26,0,0,0,.09.61.25.25,0,0,0,.06-.31c0-.11-.11-.2-.15-.3M49.8,45.91l.2-.11a1.1,1.1,0,0,0-.54,0,.29.29,0,0,0,.34.11M34.26,48.79a.2.2,0,0,0-.29.08c0,.07.1.1.17.09a.39.39,0,0,0,.19-.1l-.07-.07M45.15,31.17a.07.07,0,0,0-.09-.08.16.16,0,0,0-.12.08.42.42,0,0,0-.07.29l.24-.23a.07.07,0,0,0,0-.06M28.92,46.54l0,0c0,.06.06.12.12.1a.3.3,0,0,0,.12-.15.27.27,0,0,1,.13-.13.49.49,0,0,0-.34.15m17.86,3.67.08-.08a.3.3,0,0,0-.38.08.34.34,0,0,0,.31,0m-16-13.3a.69.69,0,0,0-.2,0,.08.08,0,0,0-.07,0c-.07,0,0,.15.07.15a.26.26,0,0,0,.19-.12M8,58.71a.14.14,0,0,0,.22.07c-.08,0-.11-.1-.14-.17s-.14-.12-.17,0a.16.16,0,0,1,.08.15m35.54-6.62.14.08c.07,0,0-.11,0-.15a.31.31,0,0,0-.12-.05c-.05,0-.11,0-.11.07s.07.09.1.05M47.27,50c-.09,0-.22,0-.19.09a.1.1,0,0,0,.1.06.45.45,0,0,0,.2,0L47.27,50M35.19,51l.11,0a.28.28,0,0,0-.23-.05c-.07,0-.08.17,0,.17s.08,0,.11-.09m-.85-9c0,.07.1.14.15.07a.35.35,0,0,1-.1-.19.1.1,0,0,0-.05.11m-4.54,1.12c0,.08.17,0,.14-.07s-.18,0-.14.07m2.08,7.46a.09.09,0,0,0,0,.11l.11-.11a.09.09,0,0,0-.15,0m-28,5L4,55.5s-.12,0-.15,0,0,.13.09.09m.84,3.3c.08,0,.15-.1.08-.14a.18.18,0,0,0-.1.15m50,3.54a.09.09,0,0,0,0,.11s.05-.06,0-.1-.07-.05-.08,0M6.55,64.64a.09.09,0,0,0,0,.15.09.09,0,0,0,0-.15m29-40.45s-.07,0-.07,0a.13.13,0,0,0,0,.1.09.09,0,0,0,0-.11m-10.6,21s0-.08-.05-.08-.08,0-.08,0l.1,0m7.32-11.26.1,0c0-.07-.15,0-.12,0m-4.72,14a.09.09,0,0,0-.15,0,.09.09,0,0,0,.15,0m36-13.16s0-.08,0-.08a.07.07,0,0,0-.08.05l.11,0M32,35.89a.09.09,0,0,0-.15,0,.09.09,0,0,0,.15,0m-3.67,2.66a.07.07,0,0,0-.05-.09.07.07,0,0,0-.08.06l.1,0m4.59-1.89H33s0,0-.06,0M60.32,36s0-.06,0-.07,0,.07,0,.07m4-1.75s-.07,0-.06,0h.07M32.24,33.5s-.08,0-.07,0h.07M24.71,45.21s-.07,0-.07,0,.06,0,.07,0m45.6,4.22s0,.06,0,.07,0-.07,0-.07M4.61,59.11a0,0,0,0,0,0-.06s0,.06,0,.07M46.37,13.93s0-.07,0-.07,0,.06,0,.07M30.19,48.15s0-.06,0-.06,0,.06,0,.06"/></g></g></svg>