<svg xmlns="http://www.w3.org/2000/svg" xmlns:xlink="http://www.w3.org/1999/xlink" viewBox="0 0 54.29 53.25"><defs><style>.cls-1{fill:#fff;}.cls-2{fill:url(#radial-gradient);}</style><radialGradient id="radial-gradient" cx="30.12" cy="14.31" r="26.35" gradientTransform="translate(-4.47 22.23) rotate(-17.29)" gradientUnits="userSpaceOnUse"><stop offset="0" stop-color="#ff003f"/><stop offset="0.23" stop-color="#ff0540"/><stop offset="0.52" stop-color="#ff1544"/><stop offset="0.84" stop-color="#ff2e4b"/><stop offset="1" stop-color="#ff3e4f"/></radialGradient></defs><title>rose-small-iso</title><g id="Layer_2" data-name="Layer 2"><g id="rose-small-iso"><path id="void" class="cls-1" d="M47.34,6c-.07-.46-.72-.49-1.19-.44-2.43.19-4.5-1.57-6.58-2.84A18.74,18.74,0,0,0,25.58.5a19.47,19.47,0,0,0-11.7,8.38,1.5,1.5,0,0,0-.84-.2,12.61,12.61,0,0,0-7,2.32,8.48,8.48,0,0,0-3.49,6.32c0,1.3.11,2.93-1,3.56A3.59,3.59,0,0,0,.14,24.93,8.36,8.36,0,0,0,2.72,28.7,27.9,27.9,0,0,0,7.1,32.07c.77.48,1.56.93,2.37,1.36l-.13-.2a3.15,3.15,0,0,1,.75.52l-.62-.32c1.41,2,2.34,5.22,3.3,7.48s2.61,4.68,5.06,5.32c-.21.67-.49,1-.71,1.68,0,0,0,0,0,.06a.39.39,0,0,0,0-.06.89.89,0,0,0-.29.21c-.13.16-.06.41,0,.61a8.27,8.27,0,0,0,5.58,4.12,21.37,21.37,0,0,0,7.14.2C35.29,52.5,41.48,51.2,45,46.7a14.49,14.49,0,0,0,2.9-8.87v-.5a1.91,1.91,0,0,0,.53-.46c2.4-3.94,5-8.37,5.65-12.93a12.5,12.5,0,0,0,.14-3C53.72,15.43,48.05,11.5,47.34,6ZM39.47,3s0,0,0,0S39.45,3.05,39.47,3ZM35.25,1.15s0,0,0,0S35.25,1.13,35.25,1.15ZM30.63.45s0,0,0,0S30.62.44,30.63.45Z"/><path id="fill2" class="cls-2" d="M47.34,6c-.07-.46-.72-.49-1.19-.44-2.43.19-4.5-1.57-6.58-2.84A18.74,18.74,0,0,0,25.58.5a19.47,19.47,0,0,0-11.7,8.38,1.5,1.5,0,0,0-.84-.2,12.61,12.61,0,0,0-7,2.32,8.48,8.48,0,0,0-3.49,6.32c0,1.3.11,2.93-1,3.56A3.59,3.59,0,0,0,.14,24.93,8.36,8.36,0,0,0,2.72,28.7,27.9,27.9,0,0,0,7.1,32.07c.77.48,1.56.93,2.37,1.36l-.13-.2a3.15,3.15,0,0,1,.75.52l-.62-.32c1.41,2,2.34,5.22,3.3,7.48s2.61,4.68,5.06,5.32c-.21.67-.49,1-.71,1.68,0,0,0,0,0,.06a.39.39,0,0,0,0-.06.89.89,0,0,0-.29.21c-.13.16-.06.41,0,.61a8.27,8.27,0,0,0,5.58,4.12,21.37,21.37,0,0,0,7.14.2C35.29,52.5,41.48,51.2,45,46.7a14.49,14.49,0,0,0,2.9-8.87v-.5a1.91,1.91,0,0,0,.53-.46c2.4-3.94,5-8.37,5.65-12.93a12.5,12.5,0,0,0,.14-3C53.72,15.43,48.05,11.5,47.34,6ZM39.47,3s0,0,0,0S39.45,3.05,39.47,3ZM35.25,1.15s0,0,0,0S35.25,1.13,35.25,1.15ZM30.63.45s0,0,0,0S30.62.44,30.63.45Z"/><path id="fill1" d="M19.41,43.43a.24.24,0,0,1-.15.3.59.59,0,0,1-.37,0,1.93,1.93,0,0,1-.68-.52,4.6,4.6,0,0,1-1-1.78.17.17,0,0,1,0-.12c0-.05.1-.05.14,0a.16.16,0,0,1,0,.15,4.48,4.48,0,0,0,1.28,1.76c.11.09.26.19.4.14a1.51,1.51,0,0,0,.17-.1c.06,0,.14,0,.16.05s0,.11,0,.16ZM34.27,3.79a1.7,1.7,0,0,0-.67.55,6.12,6.12,0,0,0-1.33,2.17.56.56,0,0,1-.14.3c-.09.07-.25.06-.28,0a2.25,2.25,0,0,1,.49-1.21c.21-.3.42-.6.65-.88a2.27,2.27,0,0,1,1.41-1c.09,0,.2,0,.18.1a1.06,1.06,0,0,0-.31,0M19.08,44.24a.2.2,0,0,1-.09.15c-.2.15-.48,0-.67-.17a5.89,5.89,0,0,1-1.45-2.15,13.93,13.93,0,0,1-.73-2c.07-.07.18.06.21.16a8.87,8.87,0,0,0,1.78,3.38,1.15,1.15,0,0,0,.61.44C18.88,44.09,19.07,44.1,19.08,44.24ZM34.44,8.82a.25.25,0,0,1-.22-.19.69.69,0,0,1,0-.32A5.44,5.44,0,0,1,35.56,6c.14-.16.35-.32.55-.25a4.33,4.33,0,0,0-1.25,1.72,2.52,2.52,0,0,0-.31.91A.82.82,0,0,1,34.44,8.82Zm-20.6.11A19.45,19.45,0,0,1,25.59.5a18.72,18.72,0,0,1,14,2.22c2.07,1.27,4.15,3,6.58,2.83.47,0,1.13,0,1.19.45.71,5.5,6.37,9.43,6.9,15a12,12,0,0,1-.13,3c-.67,4.56-3.25,9-5.65,12.93a1.68,1.68,0,0,1-.61.49c-.25,0-.13-.25,0-.47,1.56-2.77,3.93-6.14,4.92-9.17A14.78,14.78,0,0,0,53,18.34C51.52,14,47.35,10.79,46.81,6.25c-3.41.2-6.19-2.51-9.25-4C33.84.4,29.46.32,25.4,1.13a14.81,14.81,0,0,0-4.85,1.73c-2.27,1.38-3.87,3.6-5.5,5.71-.23.3-.89.86-1.06.51M30.63.46s-.05,0,0,0,0,0,0,0m8.85,2.62a0,0,0,0,0,0,0s0,0,0,0M35.25,1.15s0,0,0,0,0,0,0,0M49.7,26.52l-.16.13c.07,0,.15.09.1.17s-.15.11-.2.19a.57.57,0,0,0,0,.14,3.22,3.22,0,0,1-1,1.74,5.22,5.22,0,0,0-.6.55c-.1.13-.22.3-.38.26a.26.26,0,0,1-.11-.37.92.92,0,0,1,.33-.29,5.43,5.43,0,0,0,2-2.92,21,21,0,0,0,1-4.43,1.65,1.65,0,0,1,0,1c0,.21-.09.42-.14.62-.19.77-.41,1.53-.61,2.3,0,.08,0,.19.07.19l-.12.07a.28.28,0,0,1-.14.44A.15.15,0,0,0,49.7,26.52ZM34,6.68a1.74,1.74,0,0,0-.16,1.09.14.14,0,0,1-.12.15.27.27,0,0,1-.18-.08.54.54,0,0,1-.13-.41A1.32,1.32,0,0,1,33.55,7c.12-.27.25-.53.39-.79a1.4,1.4,0,0,1,.9-.82.2.2,0,0,1,.17,0s0,.14-.06.12-.28.08-.37.2A3.71,3.71,0,0,0,34,6.68ZM49.34,30.17a0,0,0,0,1,0-.07,0,0,0,0,1,.07,0l0,.08Zm-.14.26v-.07a.1.1,0,0,1,0,0s0,.05,0,0ZM17.6,42.62s0,0,0,0,0,0,0,0ZM50,25.69l.13-.48.07-.26q.11-.36.18-.72a.67.67,0,0,1,.1-.28c.05,0,.05.09,0,.14l-.23.86-.17.66C50.05,25.66,50,25.73,50,25.69ZM33.71,37.37a.25.25,0,0,1,0,.12l.07,4.18a.49.49,0,0,1-.11-.31,26.58,26.58,0,0,0-.27-3.58.5.5,0,0,1,0-.36C33.47,37.31,33.66,37.27,33.71,37.37Zm-3,.63a.19.19,0,0,1,.21,0c.05.06,0,.17-.06.16s-.16.13-.18.23a5,5,0,0,0-.09,1.34.26.26,0,0,1-.13.25.89.89,0,0,1-.08-.51l0-.83a1.07,1.07,0,0,1,.05-.4.42.42,0,0,1,.26-.29Zm10.37-4.44.24,1.08c0,.07,0,.17,0,.2A18.5,18.5,0,0,1,41.81,37s0,.11-.05.1L41,34.32a.2.2,0,0,1,0-.17.23.23,0,0,0-.07-.31l.09-.28m.14,1.16s0,0,0,0a.07.07,0,0,0,0-.05.09.09,0,0,0,0,.07m-.08-.4s.05,0,0,0,0,0,0,0Zm-5.76,8.39a.78.78,0,0,1,0,.67,2.91,2.91,0,0,0-.08.93.38.38,0,0,1,0,.18,1.91,1.91,0,0,0-.1.79s0,0-.08,0a.18.18,0,0,1,0-.1,6,6,0,0,1,.07-.61c0-.32.08-.63.11-1,0-.13,0-.26,0-.39s0-.14,0-.21Zm7.37-5.9a2,2,0,0,0,.08.54,3.45,3.45,0,0,1,.14.42l.4,1.48s0,0,0,0-.05,0-.06,0l-.14-.4a1.6,1.6,0,0,1,0-.21l-.52-2A.2.2,0,0,1,42.73,36.81Zm-1.16-5.12.13.58s0,0,0,0a.28.28,0,0,0-.14-.2l.24,1.15a.09.09,0,0,1,0,.07s-.08,0-.09-.07c-.06-.22-.1-.45-.14-.68l-.06-.32a.27.27,0,0,1,0-.25.2.2,0,0,0,0-.2.44.44,0,0,1-.07-.19,0,0,0,0,1,.07,0A.11.11,0,0,1,41.57,31.69Zm-6.09,9.68a1.42,1.42,0,0,1,.1.29s0,.05,0,.05-.07.12,0,.19a.23.23,0,0,1,0,.2c-.05.06,0,.15,0,.24s-.08.21,0,.31,0,.05-.06.05a.13.13,0,0,1-.05-.07c0-.15.1-.33,0-.46s0-.09,0-.13,0-.13,0-.2.06-.16.05-.24a.53.53,0,0,0,0-.12S35.44,41.38,35.48,41.37Zm9-9.39c-.06,0-.09-.07-.11-.12a2.33,2.33,0,0,1-.18-.78.2.2,0,0,1,.12.17,1.25,1.25,0,0,0,.15.54C44.47,31.85,44.5,31.94,44.45,32Zm-.58-2.48a.16.16,0,0,0,0,.23.34.34,0,0,1,.14.37s0,0,.08.09,0,.07,0,.1,0,.09,0,.09a.57.57,0,0,0,0,.13s0,.1,0,.11a0,0,0,0,1-.06-.07c.06-.07,0-.18,0-.27l-.23-.48a1.31,1.31,0,0,1-.08-.43.4.4,0,0,1,.19.07s.07.13,0,.18ZM40.7,37.14a.19.19,0,0,1-.07-.12,6.69,6.69,0,0,1-.16-.75.28.28,0,0,1,0-.22l.14.65A2.22,2.22,0,0,1,40.7,37.14ZM43,30.65a.12.12,0,0,1,.09.1.48.48,0,0,1,0,.12s0,.09.07.08c-.12.13.1.37,0,.51A.65.65,0,0,1,43,31,.35.35,0,0,1,43,30.65ZM36.53,42a1.09,1.09,0,0,0,0-.36c0-.07,0-.15,0-.19s.08.24.06.38a4.57,4.57,0,0,0-.05.52.2.2,0,0,1-.09-.16A.58.58,0,0,1,36.53,42Zm3-6a.64.64,0,0,0,0-.41,1.67,1.67,0,0,1-.08-.2.23.23,0,0,1,0-.2,6.51,6.51,0,0,1,.21,1Zm3.4-5.55s0-.06,0-.09l-.07-.45a.51.51,0,0,0-.1-.24s0-.12.07-.12.1.07.1.13a2.3,2.3,0,0,0,.16.77.14.14,0,0,1,0,.11s-.08,0-.08,0S42.93,30.43,42.91,30.4ZM35,46.12a.58.58,0,0,1,0-.5.49.49,0,0,0,0-.2.39.39,0,0,1,0,.26Zm6.75-12.39,0-.06s-.06,0-.06-.07a.17.17,0,0,0,0-.1s0-.11.11-.09a.27.27,0,0,1,.1.15,1.1,1.1,0,0,1,.06.26.38.38,0,0,1-.11-.11.15.15,0,0,1,0-.16s0-.07-.06,0,0,.07,0,.11l.06.1a.09.09,0,0,1,0,.11A.2.2,0,0,0,41.79,33.73ZM40,33.64c.06.06.13.14.11.23a.14.14,0,0,0,0,.06l.11.14s0,.08-.06.07-.07,0-.1-.07A.59.59,0,0,1,40,33.64Zm-.45,2.73s.05,0,.08,0a.25.25,0,0,1,0,.09,4.54,4.54,0,0,1,.09.51,0,0,0,0,1,0,0s-.08,0-.09,0a1.16,1.16,0,0,1-.05-.45S39.57,36.41,39.58,36.37Zm.3,1.22a.82.82,0,0,1-.09-.38v-.12c.08,0,.1.1.1.18S39.88,37.48,39.88,37.59Zm.53-1.74,0-.38,0-.12-.07-.11s0-.1,0-.11a.48.48,0,0,1,.12.33A.73.73,0,0,1,40.41,35.85Zm1.41-3.07a0,0,0,0,1-.07,0s0,0,0-.06a.48.48,0,0,1,0-.29,1.33,1.33,0,0,1,.11.3Zm-2.5,1.32a.15.15,0,0,1,0,.19L39.13,34a.11.11,0,0,1,.17.07Zm3,.84a.63.63,0,0,1-.12-.37A.63.63,0,0,1,42.29,34.94Zm0,.21a.93.93,0,0,1,.15.45A1,1,0,0,1,42.3,35.15ZM40.23,35v-.14a.08.08,0,0,1,.12-.06.24.24,0,0,0,0,.26s0,.08-.07.05A.14.14,0,0,1,40.23,35ZM35,45a.19.19,0,0,1,0,.13.07.07,0,0,1-.09.06A.36.36,0,0,1,35,45Zm7.18-10a.34.34,0,0,1,0,.2.36.36,0,0,1-.08-.27l0,.06Zm-.35-1.7,0-.18a.23.23,0,0,1,0,.24l0-.06Zm.31,1.09s-.06-.06-.08-.09,0-.1,0-.11.05,0,.07.06a.42.42,0,0,1,0,.16ZM40,33.32a.06.06,0,0,0-.05.09.06.06,0,1,0,.05-.09Zm2.56,2.85A.27.27,0,0,1,42.5,36,.27.27,0,0,1,42.58,36.17Zm1.86-4a.13.13,0,0,1,0-.13.08.08,0,0,1,.05.09.09.09,0,0,1-.09.05Zm-.36-1.38a.14.14,0,0,1,.06.17.26.26,0,0,1-.07-.15ZM36.59,41.23a.06.06,0,0,0,0,.1.06.06,0,0,0,.09,0S36.62,41.21,36.59,41.23Zm5.81-5.29a.24.24,0,0,1,0-.18.19.19,0,0,1,.06.18Zm-3-.93-.16-.51s.06-.06.09,0a.13.13,0,0,1,0,.12s0,.08,0,.11,0,.06.07.09a.07.07,0,0,1,0,.09c-.06.06.14.16.07.22S39.4,35.06,39.39,35Zm3.73-3.47s-.06.09,0,.1S43.17,31.55,43.12,31.54Zm0,.33a.1.1,0,0,1,0-.1c.05,0,0,.1,0,.1ZM42,34.41a.07.07,0,0,1,0,.09.06.06,0,0,1,0-.09Zm.48,1.91s0-.1.07-.06,0,.1-.07.06ZM41.93,34A.06.06,0,0,1,42,34a.06.06,0,0,1,0-.09ZM40.06,38.4s-.08-.07-.09,0S40.06,38.44,40.06,38.4ZM41,34a.05.05,0,0,1,0-.08A.05.05,0,0,1,41,34Zm-1.1,3.62s.05.06,0,.08-.05-.05,0-.08Zm.05.31A.06.06,0,0,1,40,38a.06.06,0,0,1,0-.09Zm.92-4.39v-.06c.05,0,.05.08,0,.07Zm2.65-5.8v-.07s0,.08,0,.08Zm-1.84,4.59s0,0,0,0S41.7,32.34,41.68,32.33Zm-1.67.8s0,0,0,0,0,0,0,0Zm0,.43s0,0,0,0,0,0,0,0Zm.15.95s0,0,0,0,0,0,0,0ZM41.82,33a0,0,0,0,1,0,0s0,0,0,0Zm-7,4a15.26,15.26,0,0,0,0,2c0,.75.06,1.51.08,2.26L35,45a.6.6,0,0,1-.11-.37c-.17-2.42-.17-4.86-.45-7.27a.5.5,0,0,1,.06-.4C34.61,36.83,34.83,36.88,34.82,37ZM16.23,33.64a7.19,7.19,0,0,0,.25,1.46,2.5,2.5,0,0,0,.78,1.22.18.18,0,0,1,0,.29.29.29,0,0,1-.32,0,.68.68,0,0,1-.21-.27,8.72,8.72,0,0,1-.72-3.9,1.71,1.71,0,0,1,0-.55c0-.06,0-.15,0-.14a6.28,6.28,0,0,1,.14-2.07,1.11,1.11,0,0,1,0,.65,2.49,2.49,0,0,0,0,1,10.41,10.41,0,0,0,0,1.37ZM15,29.26a.5.5,0,0,1,0,.4,4.24,4.24,0,0,0-.11,1.23,17.32,17.32,0,0,0,.3,3,3.44,3.44,0,0,0,.2.78,4.47,4.47,0,0,0,.57.93c.09.13-.1.31-.26.26a.57.57,0,0,1-.29-.35,11.83,11.83,0,0,1-.66-4.39A4.75,4.75,0,0,1,15,29.26Zm4.24,3.41a16.31,16.31,0,0,0,0,1.85c0,.27,0,.54.08.81a8.33,8.33,0,0,0,1.52,3.73.42.42,0,0,1,.11.22c0,.08-.07.17-.15.15a3,3,0,0,1-.76-1.06,10.16,10.16,0,0,1-.87-6.14A1.09,1.09,0,0,1,19.24,32.67ZM44.16,13.28a.09.09,0,0,1,0,.07c0,.06-.09.07-.14,0a.78.78,0,0,1-.15-.1c-.13,0-.26.05-.35.15a7.68,7.68,0,0,0-1,1.31s-.06,0-.07,0a.1.1,0,0,1,0-.09c.25-.4.51-.8.78-1.19a1.22,1.22,0,0,1,.31-.33.38.38,0,0,1,.13-.06A.44.44,0,0,1,44.16,13.28Zm-2.62,4.2a.53.53,0,0,1-.28.25l2.36-3.6A2.79,2.79,0,0,1,44,13.7a.54.54,0,0,1,.46-.18.28.28,0,0,1,.21.39c-.15.22-.57,0-.73.25C43.09,15.25,42.31,16.36,41.54,17.48ZM28.88,15.75a.9.9,0,0,1-.24-.52,2.56,2.56,0,0,1-.05-.62,1.37,1.37,0,0,1,0-.28.69.69,0,0,1,0-.2l.05-.38s0-.05,0-.07a.1.1,0,0,1,.16,0l0,.71c0,.14,0,.29,0,.44a4.14,4.14,0,0,0,.09.6.2.2,0,0,0,.08.15s0,.11,0,.15,0,.07,0,.08A.21.21,0,0,1,28.88,15.75ZM22.09,23a1.48,1.48,0,0,0-.13.88.18.18,0,0,1-.07.05,6.4,6.4,0,0,0,.67,3.33.68.68,0,0,1,.16.44.26.26,0,0,1-.31,0,.85.85,0,0,1-.18-.27,6.65,6.65,0,0,1-.55-2.89,12,12,0,0,1,.45-2.92,19.1,19.1,0,0,1,.74-2.25,9.22,9.22,0,0,1-.54,2,2.76,2.76,0,0,0-.07.76.28.28,0,0,1-.09-.17l-.09.66a.93.93,0,0,1-.15.46.18.18,0,0,1,.16,0M23.39,12a.27.27,0,0,1,.15,0,.11.11,0,0,1,.12.09c-.05,0,0,.08,0,.13a1,1,0,0,1,.11.35c0,.18.08.36.11.54s.08.51.11.76a.24.24,0,0,1-.06.22c-.07,0-.09-.08-.09-.15a2.37,2.37,0,0,0-.15-.69,1,1,0,0,1-.05-.18.33.33,0,0,0,0-.17,3.72,3.72,0,0,1-.28-.79.07.07,0,0,1,0,0S23.38,12,23.39,12ZM38.29,6a4.6,4.6,0,0,0-2.95,4.81,6.44,6.44,0,0,1,2-2.43c-1,1.11-2,2.62-1.38,3.94a8.77,8.77,0,0,1,4.27-4.79,8.08,8.08,0,0,0-4.16,6.27,7.14,7.14,0,0,1,3-3.74,7.64,7.64,0,0,0-2.72,4,3.65,3.65,0,0,0-.13,3.13,8.06,8.06,0,0,1,4.36-7,10.17,10.17,0,0,0-3.42,3.57l.9-1.08a5.94,5.94,0,0,0-1.51,3.5,8.72,8.72,0,0,1,2-2.24,5,5,0,0,0-1.84,4.67,18.7,18.7,0,0,1,3.47-5.23,11.68,11.68,0,0,0-3.14,6.28l1.87-2.89a5.66,5.66,0,0,0-1.21,2.47A2,2,0,0,0,39,21.4a12.55,12.55,0,0,1,4.92-9.86,4.51,4.51,0,0,1,2.77,3.87,10.7,10.7,0,0,1-1,4.9,15.73,15.73,0,0,1,1.34-1.89,5.2,5.2,0,0,0-1,3.7,10.17,10.17,0,0,1,1.68-3.19,9.32,9.32,0,0,0-1.4,4.9,10.71,10.71,0,0,1,2.07-4,11.79,11.79,0,0,0-1.92,5.85,20.4,20.4,0,0,1,2.63-5.26,17,17,0,0,0-2.44,6.93,16.63,16.63,0,0,1,2.72-5.25,12,12,0,0,0-2.18,9A18.26,18.26,0,0,0,50.15,26a14.59,14.59,0,0,1-2.74,5.55l.31,1a18.4,18.4,0,0,0,2.19-4.22,9.67,9.67,0,0,1-2.19,4.55l0,1.1L48.86,32c-1.16,1.62-.91,3.81-.93,5.8A14.54,14.54,0,0,1,45,46.71c-3.55,4.48-9.74,5.79-15.44,6.34a21.37,21.37,0,0,1-7.14-.2,8.27,8.27,0,0,1-5.58-4.12c-.1-.2-.18-.45,0-.61s.43-.29.27-.15c.23-.7.51-1,.74-1.74-2.46-.64-4.08-3-5.07-5.32s-1.94-5.63-3.44-7.68c2.1,1,2.77,4.5,3.54,6.69a11.22,11.22,0,0,0,3.83,5.22,6.92,6.92,0,0,1-1.58-4.06A5.38,5.38,0,0,0,18,45.51a10,10,0,0,1-2.55-5.62,8.6,8.6,0,0,0,3,5.35l1.54-1.8a3.06,3.06,0,0,1-1.56-2.53A6.16,6.16,0,0,0,20,43.31l.47-.56-.35-1.06.54.83,1-1.06c-3.55-4.62-9.64-6.3-14.59-9.39A26.92,26.92,0,0,1,2.73,28.7,8.38,8.38,0,0,1,.14,24.94a3.6,3.6,0,0,1,1.42-4.06c1.14-.63,1-2.26,1-3.56A8.45,8.45,0,0,1,6.08,11a12.52,12.52,0,0,1,7-2.33c.49,0,1.18.19,1.08.68a12.23,12.23,0,0,0-7.35,1.81,8.09,8.09,0,0,0-3.73,6.39,6,6,0,0,1-.24,2.51c-.43.9-1.46,1.38-2,2.21a3.43,3.43,0,0,0-.12,3.28,8.55,8.55,0,0,0,2.14,2.66,33.49,33.49,0,0,0,10.47,6.45,25.8,25.8,0,0,0-6.37-7.46,39,39,0,0,1,5.38,5A24.38,24.38,0,0,0,8,25.64a29.26,29.26,0,0,1,4.06,5.14c.25-2.3-1.61-4.22-3.32-5.77l-3-2.73a29.51,29.51,0,0,1,6.62,6.34,29.36,29.36,0,0,0-3.45-5.18l3.59,4.23a7.42,7.42,0,0,0-2.08-5.12A22.41,22.41,0,0,0,6,19.05a14,14,0,0,1,6.84,7c.33-3-2.17-5.42-4.58-7.17l4,2.93L7.51,16.38a21.47,21.47,0,0,0,4.2,4c-.66-2.28-4.09-3.32-3.94-5.69A6.5,6.5,0,0,0,11,18.56L8.13,13.79a6.2,6.2,0,0,0,2.2,2.83,3.7,3.7,0,0,1,.72-4.35,10.84,10.84,0,0,1,4.09-2.35c1.4-.55,3.31-.94,4.12.32a5.91,5.91,0,0,1-.2-4.12,4.38,4.38,0,0,0,.55,3.69,8,8,0,0,1,.79-4.45A4.53,4.53,0,0,0,20.1,9l.95-4.33a10.59,10.59,0,0,0-.34,3.27l.59-.58a5.19,5.19,0,0,1,1.07-4,6.21,6.21,0,0,0-.79,3.84,5.18,5.18,0,0,0,3.23-3.74,3.24,3.24,0,0,0-.33,2.38,3.57,3.57,0,0,1,1.44-2.55,2.63,2.63,0,0,0-.79,2.47l1.61-3a9.43,9.43,0,0,0-.91,2.63l1.42.2A4.79,4.79,0,0,1,29.08,2a5.43,5.43,0,0,0-1.47,3.52l.89.22a3.54,3.54,0,0,1,1.3-2.4,5.55,5.55,0,0,0-1,2.42,1.37,1.37,0,0,0,.87.28A5.23,5.23,0,0,1,31.28,2.7a3.18,3.18,0,0,0-1.13,2.87,2,2,0,0,0,2.36,1.62A3.09,3.09,0,0,1,34.27,4.9a2,2,0,0,0-1.09,2.44A4.45,4.45,0,0,0,35,9.59,4.33,4.33,0,0,1,38.29,6M35.62,36.44a.16.16,0,0,0-.13.06.12.12,0,0,0,.15-.1s0,0,0,0M39.76,28c-.47.1-.51.76-.43,1.24L40,33.09,39,29c-.44.22-.45.85-.38,1.34q.26,1.8.63,3.57a19.75,19.75,0,0,1-.77-2.73l.19,5.59a11.67,11.67,0,0,1-.26,3.64,25.47,25.47,0,0,0-.11-6.23c-.76.72-.69,1.93-.63,3a22.07,22.07,0,0,1-.33,5.13,28,28,0,0,0,0-7l-.7.52a27.37,27.37,0,0,1,0,5.2,24.45,24.45,0,0,0-.27-5l-.53.21c0,1.68-.1,3.35-.22,5l-.11-4.75a4.46,4.46,0,0,0-1.66.37,1.6,1.6,0,0,0-1,1.32,19.51,19.51,0,0,1-.29,3.14l.11-4.2c-1,.56-1.14,1.93-1.14,3.09V37.68a2.49,2.49,0,0,0-2.22,1.49,3.2,3.2,0,0,1,.25-1,1.19,1.19,0,0,0-1.08,1,.82.82,0,0,1,.11-.8A15.81,15.81,0,0,0,17.32,48.6a8.39,8.39,0,0,0,2.5,2.6c3.2,2,7.29,1.77,11,1.26a34.21,34.21,0,0,0,7.08-1.58A14.83,14.83,0,0,0,44,47c2.57-2.87,3.54-6.89,3.42-10.74a45.89,45.89,0,0,0-.48-4.67L45.4,20.52c-.81,1.34-.65,3-.46,4.59L45.88,33a105.45,105.45,0,0,1-1.31-10.49c-.56.27-.57,1.06-.48,1.67.36,2.48.81,4.94,1.37,7.38a57,57,0,0,1-1.71-8c-.54.31-.58,1.06-.54,1.68a19.13,19.13,0,0,0,.56,3.44c.13,0,0-.23-.12-.13s0,.25.06.36.12.27,0,.36a34.26,34.26,0,0,1-.83-4.7c-.57.1-.64.88-.56,1.44l.42,3.4A26.62,26.62,0,0,1,42,25.52c-.43-.06-.55.58-.47,1L42.38,31,41.2,26.33a.49.49,0,0,0-.44.38,36.11,36.11,0,0,0,.76,4.73l-.34-1.23L41.44,32l-1-5c-.39.08-.42.62-.35,1L41,33.45A44.58,44.58,0,0,1,39.76,28M25.91,37.66a.36.36,0,0,0,.48.22.94.94,0,0,0,.44-.4,3.06,3.06,0,0,1-.71-2.43c0-.13.22-.25.22-.13a3.22,3.22,0,0,0,.56,2.17.41.41,0,0,0,.52.09,1.2,1.2,0,0,0,.41-.4,7.66,7.66,0,0,1-.13-2.9l.4,2.78a10,10,0,0,0,3.31-3.14A4.36,4.36,0,0,0,30,32.26a4.06,4.06,0,0,0-1.23-.32c-.8-.12-1.61-.21-2.42-.28a23,23,0,0,1-4.23-.51,5.55,5.55,0,0,1-3.43-2.35c-1.11-1.86-3.27-2.76-5.29-3.53-.17,1.36-.64,2.66-.79,4A8.47,8.47,0,0,0,14.15,35a1.34,1.34,0,0,0-.08-.88A11,11,0,0,1,13.71,29c0,2.07,0,4.24,1,6.05a.56.56,0,0,1,.1.37c0,.13-.21.23-.29.13,2.8,1.43,5.73,3,7.49,5.57a.33.33,0,0,0,.18-.58,1,1,0,0,0-.29-.1,1.31,1.31,0,0,1-.67-.81,14.08,14.08,0,0,1-1-6.76c.08,2.47.2,5.09,1.6,7.11a4.81,4.81,0,0,1-.11-2.58,4.62,4.62,0,0,0,1,3.19l.59-.44a13.25,13.25,0,0,1-.9-4.78L23,38.17a3.23,3.23,0,0,0,.69,1.69l1.53-.76A9.94,9.94,0,0,1,24,34a1.48,1.48,0,0,1,.31-1,8.88,8.88,0,0,0,.73,5.32,1.1,1.1,0,0,0,.43.54.41.41,0,0,0,.58-.19,4.54,4.54,0,0,1-.45-3.09l.29,2.13M16.67,16.3l1.13,1.2a11.75,11.75,0,0,1-.31-3.82,3.87,3.87,0,0,1,2.07-3c-.66,0-1.16-.58-1.79-.78a3,3,0,0,0-2.06.33c-.76.32-1.51.66-2.25,1A5.47,5.47,0,0,0,11,13.07a4.42,4.42,0,0,0-.16,3.62c.38,1.19,1,2.28,1.36,3.48a14.77,14.77,0,0,0,1,3.39l-.37,0c.73,1.34,2.43,1.74,3.76,2.48a6.69,6.69,0,0,1,1.88,1.54c.41.49.75,1,1.19,1.47a6.85,6.85,0,0,0,4,1.8c1.49.21,3,.16,4.49.32s3.07.63,3.79,1.92a6.67,6.67,0,0,0,2.21-3.3c-.52-1.26-2.1-1.73-3.46-1.62s-2.66.65-4,.73a12.43,12.43,0,0,1-2-.1l-.14,0a10.84,10.84,0,0,1-1.95-.31c-3.08-.83-5.11-3.9-8.13-4.94-.16-.06-.09-.34.08-.39a.64.64,0,0,1,.49.13l1.5.92a2.18,2.18,0,0,1,.27-.79,3,3,0,0,1-2.08-1.79,4.75,4.75,0,0,0,2.08,1.48l.19-.45c-1-.62-2.11-1.44-2.13-2.61a3.74,3.74,0,0,0,2.24,2.23l.27-.7a2.7,2.7,0,0,1-1.77-2.05,3.11,3.11,0,0,0,1.8,1.7.46.46,0,0,0,.14-.66,2,2,0,0,0-.56-.52,2.48,2.48,0,0,1-.87-1.36,4.4,4.4,0,0,0,1.6,1.49l.07-.82a3.2,3.2,0,0,1-1.12-1.47,11,11,0,0,1,1.11,1.16c.31-.42.07-1-.25-1.45a3.25,3.25,0,0,1-.83-1.32m24,2.91a12.24,12.24,0,0,1,3.48-4.58c-.16-.25.26-.58.46-.37a.53.53,0,0,1,.11.39,5.84,5.84,0,0,1-1,3.37c-1.84,2.73-5.75,3.6-7.33,6.49a21.38,21.38,0,0,0-1.29,4.37,13.43,13.43,0,0,1-3.41,5.4,39.91,39.91,0,0,1-5,4.07,74.46,74.46,0,0,0,8.06-2.22c1.27-.42,2.66-1,3.11-2.28.34-1,0-2.05,0-3.09a6.33,6.33,0,0,1,1.85-3.9c1-1.09,2.14-2,3.1-3.12a11.75,11.75,0,0,0,2.63-5.29c.09-.39.24-.88.64-.93A8.5,8.5,0,0,0,46,14.63a3.48,3.48,0,0,0-1.68-2.25.6.6,0,0,0-.34-.09.7.7,0,0,0-.37.19,11.26,11.26,0,0,0-4.06,7.73l.79-.95-.57,1.34A7.28,7.28,0,0,0,44,16.23L41.22,18.8a10.23,10.23,0,0,1,1.94-2.11c.51-.43,1.12-.93,1.05-1.59a2.71,2.71,0,0,0-1.4,1.11,32.64,32.64,0,0,0-2.13,3M35.5,14.78A7.5,7.5,0,0,0,34,9.17a5.27,5.27,0,0,0-1.07-1,8.29,8.29,0,0,0-1.5-.8,17.26,17.26,0,0,0-3.48-1.2,6.59,6.59,0,0,0-3.63.19A9.76,9.76,0,0,0,22.91,7l-1,.58a6.67,6.67,0,0,0-2,2.83l1.92-.52a9.33,9.33,0,0,1,1.73-.36,6.48,6.48,0,0,1,1.86.16,10.79,10.79,0,0,1,5.26,2.85,6.66,6.66,0,0,1,2,3.58,3.76,3.76,0,0,1-1.45,3.68c-.22.16-.12.65-.39.67A1.38,1.38,0,0,0,30,21c-2,2.21-4.07,4.51-5,7.34a8.51,8.51,0,0,0,2.31-.08,2.47,2.47,0,0,0,1.76-.92,12.83,12.83,0,0,1,2.78-3.1c.9-.71,2-1.49,2-2.63,0-.46-.16-.9-.15-1.36a4,4,0,0,1,.62-1.72,12.12,12.12,0,0,0,1.17-3.75m-8.89,9.6c.07-.17.24-.28.35-.44a1.45,1.45,0,0,0,.11-1l-.18-1.29a3.15,3.15,0,0,1,.45,1.67c.2-.11.23-.37.23-.6A10.22,10.22,0,0,0,27.2,20c.09-.07.2.07.23.18a14.16,14.16,0,0,1,.43,2.41,2,2,0,0,0,.83-1,1.75,1.75,0,0,0-.1-.93,13.77,13.77,0,0,0-2.4-4.6c1.49,1.26,2.08,3.25,2.81,5.06a.25.25,0,0,0,.14.18,4.24,4.24,0,0,1,1-1.12c.21-.16.15-.47.07-.72a9.74,9.74,0,0,0-.62-1.66c-1-2-3.21-3.18-4.71-4.89a2.81,2.81,0,0,1-.94,2.17,6.25,6.25,0,0,1-2.1,1.23,3.94,3.94,0,0,1-.95.26,4.37,4.37,0,0,1-2.83-1,13.62,13.62,0,0,1-.84,8.38c-.16.36.19.73.5,1l1.26,1a10.24,10.24,0,0,1,.2-4.23l-.12,2.09a5.3,5.3,0,0,0,.09,1.64,1.75,1.75,0,0,0,1,1.22,17.75,17.75,0,0,1,.05-7.81c-.12,1.33-.19,2.67-.21,4a11,11,0,0,0,.25,2.87,2.39,2.39,0,0,0,1.12,1.65,5.07,5.07,0,0,1-.4-4.18c.07-.19.25-.42.43-.32a1.68,1.68,0,0,0-.45,1.37c0,1.05,0,2.25.83,2.92a.42.42,0,0,1,.17.2c0,.08,0,.19-.12.18a17.71,17.71,0,0,0,1.73.75,9.53,9.53,0,0,1-.59-5.33,11.34,11.34,0,0,0,.62,4.61c.1.25.29.53.56.52a.42.42,0,0,1,0,.27l.32,0c-.43-3-.76-6-1-9,0-.14,0-.32.16-.33a64,64,0,0,0,1.06,8.28,2.2,2.2,0,0,0,.54-1.79,44.46,44.46,0,0,0-.62-7.19,6,6,0,0,1,.52,2.45l.21,3,0-.18c.1.78.18,1.56.23,2.35.13-.34.45-.57.63-.88a2.34,2.34,0,0,0,.2-1.15,18,18,0,0,0-.13-2.74.92.92,0,0,1,.27.73l.11,2.51m-.39-11-.32-1.31a.18.18,0,0,1,.23,0,.19.19,0,0,1-.09.15c.1,0,.15.14.18.24l.41,1.4-.08-1c0-.12,0-.29.14-.29l.15,1.09c0,.29.19.67.49.62a4.65,4.65,0,0,1-.22-1.53c0-.05.12-.05.16,0a.27.27,0,0,1,.05.18c.07.79.15,1.7.8,2.14a4.18,4.18,0,0,1-.22-2.13c0-.12.17-.26.22-.15a3.68,3.68,0,0,0,.27,2.29.18.18,0,0,1,0,.17s-.13,0-.11,0l1.1,1.25.08-1.52c0-.11.1-.26.18-.18l0,1.76c0,.14,0,.29.13.35l.11-1a.35.35,0,0,1,.12-.28c.08-.06.24,0,.2.11a2.85,2.85,0,0,0,.05,2.11l.47-1.39c0-.11.16-.23.23-.14a6.83,6.83,0,0,0-.44,1.59,2.32,2.32,0,0,0,.34,1.59,3.51,3.51,0,0,0,1.24-2.18,4.43,4.43,0,0,0-.8-3.1A9.15,9.15,0,0,0,29,11.92a11,11,0,0,0-1.42-.9,7.82,7.82,0,0,0-5.33-.65c-.39.09-.76.21-1.13.33a5.24,5.24,0,0,0-1.53.67,5.27,5.27,0,0,0-1.19,1.3L18,14.1a.88.88,0,0,0,.22.77,2.53,2.53,0,0,0,.65.51,7.41,7.41,0,0,1-.07-1.82c.11-.05.18.13.18.25a4.32,4.32,0,0,0,.11,1.3,1,1,0,0,0,.95.76l-.76-2.13c0-.1-.05-.25,0-.28A17.73,17.73,0,0,1,20,15.29a1.59,1.59,0,0,0,.31.59A.49.49,0,0,0,21,16L19.8,13.84c.16-.06.31.13.38.28a8.65,8.65,0,0,0,1.1,1.82l-.69-1.81c.08-.07.19,0,.23.15l.61,1.4c.05.11.21.08.31,0l.73-.33a3.82,3.82,0,0,1-1.63-2c-.07-.2-.33-.29-.38-.5a.52.52,0,0,1,.17-.41,3.88,3.88,0,0,1,1.61-1.17,2.27,2.27,0,0,1,1.94.19q.18.13.36.3l1,.87a2.42,2.42,0,0,0,0-.76c.06-.09.21,0,.26.06a.69.69,0,0,1,0,.32,1.25,1.25,0,0,0,.47,1.08M33,24.87a1.06,1.06,0,0,0-.25-.52.44.44,0,0,0-.3.39,1.18,1.18,0,0,0,.1.52l.28.8c0,.12,0,.33-.12.29l-.55-1.47a.73.73,0,0,0-.64.65,1.64,1.64,0,0,0,.2.94c.08.17.15.4,0,.5a5.1,5.1,0,0,1-.46-1.31,3.23,3.23,0,0,0-.69.74.39.39,0,0,0-.08.2c0,.07,0,.14,0,.22s0,.16-.12.14l-.07-.28a9.45,9.45,0,0,0-.83,1.06A5.9,5.9,0,0,1,31,27.55a6.48,6.48,0,0,1,2.36.73,3.12,3.12,0,0,1,1.17,1l.53-2.32a10.07,10.07,0,0,1,.78-2.46,10.09,10.09,0,0,1,2.32-2.65,10.78,10.78,0,0,0-1.4-1.62,2.68,2.68,0,0,1-.57-1.05l-.53-1.48c0-.05-.05-.11-.1-.12s-.12.14-.09.23c.37,1.4.81,2.79,1.31,4.15a1,1,0,0,1-.3-.47,29.44,29.44,0,0,1-1.22-3.53.62.62,0,0,0-.16.49c-.25.13-.23.49-.18.76a7.32,7.32,0,0,0,1.08,3,2.07,2.07,0,0,1-.89-1.32,8.53,8.53,0,0,0-.48-1.56,1.36,1.36,0,0,0,0,1l1.06,3.4a2,2,0,0,1-.36-.74l-1-2.91a2.61,2.61,0,0,0,.21,1.8.55.55,0,0,0-.23-.17L34.94,24c0,.08,0,.21-.08.2-.14-.56-.31-1.12-.5-1.66A1.38,1.38,0,0,0,34,23.88a7.77,7.77,0,0,1,.29,2l-.61-2.35a.89.89,0,0,0-.58,1.08l.47,1.46c0,.11,0,.3-.11.25A15.08,15.08,0,0,1,33,24.87M22,12.12A13,13,0,0,0,23,15.05l.14,0L23,14.45l-.7-2.51c.06-.1.22-.08.3,0a.61.61,0,0,1,.13.32,22.33,22.33,0,0,0,.61,2.57l.31-.23A23.29,23.29,0,0,0,22.81,12c0-.12.13-.21.24-.15a.48.48,0,0,1,.17.31l.37,1.5a2.28,2.28,0,0,0,.3.76,2.45,2.45,0,0,0,.32-.93,2.46,2.46,0,0,0,.07-.6,1.32,1.32,0,0,0-.94-1.16.2.2,0,0,1,.22-.05s0-.08-.11-.07l-1,.19a.75.75,0,0,0-.29.09.26.26,0,0,0-.13.25m.24,1.79s-.06,0-.05-.07,0-.07,0-.09a1.08,1.08,0,0,1-.18-.44l-.27-1.08c0-.08-.16-.07-.2,0a.34.34,0,0,0,0,.26c.15.45.27.91.44,1.36a2.62,2.62,0,0,0,.29.58s.1,0,.11,0a.13.13,0,0,0-.06-.12s-.07-.07-.08-.12,0-.19,0-.25m-.39.15,0-.13a.13.13,0,0,1-.08-.08,4.77,4.77,0,0,1-.43-1.14c0-.08-.08-.18-.15-.15s0,0-.05,0a.48.48,0,0,0-.09.14.33.33,0,0,0,.06.2l.35.69a.35.35,0,0,0,.08.1,1,1,0,0,1,.28.34M8.49,28.57a0,0,0,0,0,0,0,0,0,0,0,0,0,0M21.6,5.05s0,0,0,0,0,0,0,0Z"/></g></g></svg>