<svg xmlns="http://www.w3.org/2000/svg" xmlns:xlink="http://www.w3.org/1999/xlink" viewBox="0 0 59.58 76.33"><defs><style>.cls-1{fill:#fff;}.cls-2{fill:url(#radial-gradient);}</style><radialGradient id="radial-gradient" cx="29.94" cy="43.05" fy="91.0436540717801" r="50.35" gradientUnits="userSpaceOnUse"><stop offset="0" stop-color="#ff3b13"/><stop offset="0.22" stop-color="#ff4015"/><stop offset="0.51" stop-color="#ff5019"/><stop offset="0.82" stop-color="#ff6921"/><stop offset="1" stop-color="#ff7c27"/></radialGradient></defs><title>tulip-side</title><g id="Layer_2" data-name="Layer 2"><g id="tulip"><path id="void" class="cls-1" d="M54.19,17.05c-1.94-2.66-1.32-6.67-3.51-9.14a5.25,5.25,0,0,0-7.33-.24A7.7,7.7,0,0,0,37.27,9L30.91,4c-2.4-1.87-5-3.81-8-4C19-.23,15.52,2.52,13,5.48A39.68,39.68,0,0,0,6.9,15L.84,9.1C-.41,12.69-.1,16.64.69,20.35s2,7.33,2.66,11.08c1,6.24.31,12.62.76,18.92s2.42,13,7.46,16.81c3.82,2.9,8.93,3.71,13.71,3.14a3.49,3.49,0,0,1,3.06,1.88,19.25,19.25,0,0,0,2,3.2c.88.9,2.45,1.35,3.39.51,1.35-1.2.43-3.93,2-4.87a4.1,4.1,0,0,1,2.44-.18c4.32.34,8-3,11-6.06.49-.45,1.09-1,1.65-1.52a29,29,0,0,0,3.53-5.38c.34-.67.65-1.35.95-2a.19.19,0,0,0,0,.08,38.07,38.07,0,0,0,4.17-14.63C60,32.86,59.15,23.88,54.19,17.05ZM7.64,14.69s0,0,0,0A0,0,0,0,1,7.64,14.69ZM9,11.61a0,0,0,0,1,.05,0A0,0,0,0,1,9,11.61ZM9.46,11a.24.24,0,0,1,.15-.11h0C9.65,11,9.52,11,9.46,11ZM41.91,70.14l-.71.31a.58.58,0,0,1-.46.06,2.16,2.16,0,0,1,1.11-.46s.13,0,.11.06S41.94,70.13,41.91,70.14Z"/><path id="fill2" class="cls-2" d="M54.19,17.05c-1.94-2.66-1.32-6.67-3.51-9.14a5.25,5.25,0,0,0-7.33-.24A7.7,7.7,0,0,0,37.27,9L30.91,4c-2.4-1.87-5-3.81-8-4C19-.23,15.52,2.52,13,5.48A39.68,39.68,0,0,0,6.9,15L.84,9.1C-.41,12.69-.1,16.64.69,20.35s2,7.33,2.66,11.08c1,6.24.31,12.62.76,18.92s2.42,13,7.46,16.81c3.82,2.9,8.93,3.71,13.71,3.14a3.49,3.49,0,0,1,3.06,1.88,19.25,19.25,0,0,0,2,3.2c.88.9,2.45,1.35,3.39.51,1.35-1.2.43-3.93,2-4.87a4.1,4.1,0,0,1,2.44-.18c4.32.34,8-3,11-6.06.49-.45,1.09-1,1.65-1.52a29,29,0,0,0,3.53-5.38c.34-.67.65-1.35.95-2a.19.19,0,0,0,0,.08,38.07,38.07,0,0,0,4.17-14.63C60,32.86,59.15,23.88,54.19,17.05ZM7.64,14.69s0,0,0,0A0,0,0,0,1,7.64,14.69ZM9,11.61a0,0,0,0,1,.05,0A0,0,0,0,1,9,11.61ZM9.46,11a.24.24,0,0,1,.15-.11h0C9.65,11,9.52,11,9.46,11ZM41.91,70.14l-.71.31a.58.58,0,0,1-.46.06,2.16,2.16,0,0,1,1.11-.46s.13,0,.11.06S41.94,70.13,41.91,70.14Z"/><path id="fill1" d="M9.63,10.88a.11.11,0,0,1-.17.1.21.21,0,0,1,.16-.11ZM43.35,7.67a5.26,5.26,0,0,1,7.33.24c2.19,2.47,1.57,6.47,3.51,9.14,5,6.83,5.76,15.82,5.26,24.24a37.93,37.93,0,0,1-4.17,14.62c1.7-6.66,3.89-13.64,3.65-20.51S56.83,21.57,52.75,16a45,45,0,0,1,4.74,29.5l-.37-1.45c.69,4.72-.61,9.55-2.78,13.8a28.52,28.52,0,0,1-3.52,5.38c-.56.55-1.17,1.07-1.65,1.53-3.05,3.08-6.69,6.39-11,6a4,4,0,0,0-2.44.18c-1.53.94-.61,3.67-2,4.87-.94.84-2.51.39-3.39-.51a18.46,18.46,0,0,1-2-3.2,3.49,3.49,0,0,0-3.06-1.88c-4.78.58-9.89-.24-13.72-3.14-5-3.83-7-10.5-7.45-16.81s.28-12.69-.76-18.92C2.73,27.68,1.48,24.07.69,20.35S-.41,12.69.84,9.1L6.9,15A39.35,39.35,0,0,1,13,5.48c2.55-3,6-5.71,9.91-5.46,3,.18,5.64,2.13,8,4l6.36,5a7.74,7.74,0,0,1,6.08-1.31m-17.46.42a11.45,11.45,0,0,0-3.47-1.83,6.22,6.22,0,0,0-5.11.92c.31-1-.81-1.89-1.81-1.79A4.33,4.33,0,0,0,13,7a24.33,24.33,0,0,0-5.68,8.89,13.68,13.68,0,0,0,.47,10.35c.71,1.41,1.72,2.66,2.4,4.09,2.38,5,.21,11,.61,16.54.42,5.82,3.67,11,7.23,15.67a25.72,25.72,0,0,0,7.13,6.9A41.74,41.74,0,0,1,11.27,45a44.94,44.94,0,0,0,9.45,19.63,16.78,16.78,0,0,0,5.4,4.6,40.74,40.74,0,0,1-14-26.12,42.08,42.08,0,0,0,8,19.14,23.56,23.56,0,0,1-2.21-5.92l-4.12-15,3.11,10.55c-.59-11.35-3-21-3.55-32.31C14.65,31.09,17,41,17.51,52.62c0-11-.86-16.22-1.68-27.16C17,33.58,18,36.07,18,44.28c0,3.49-.13,7,.69,10.4,1.35,5.56,5.07,10.19,8.7,14.61a3.48,3.48,0,0,0,1.72,1.37.74.74,0,0,1-1,.22,14.68,14.68,0,0,1,2.48,4.26,4,4,0,0,0,2,.53A1.39,1.39,0,0,0,34,74.29,4.66,4.66,0,0,1,35,70.71c-1.81.35-3.75.7-5.42-.06a8,8,0,0,1-2.85-2.59,37.18,37.18,0,0,1-5.6-33.84,14.06,14.06,0,0,1,1.61-3.47,32.14,32.14,0,0,0,1.73-3.09,27.46,27.46,0,0,1,9.17-9.95c-.77-4.16-4.3-7.2-7.78-9.62M13.11,56.83A37,37,0,0,0,16,60.9a6,6,0,0,1,.62.87c.51.55,1,1.13,1.46,1.72l.3.32L20.41,66l-.89-1.1C19,64.26,18.47,63.61,18,63c-.66-.86-1.3-1.73-1.91-2.62-.2-.3-.4-.59-.59-.89-.29-.45-.57-.9-.83-1.35a41.94,41.94,0,0,1-3.39-7.21,4.08,4.08,0,0,0,.18.91l1,3.39c.08.25.15.5.25.75a7.56,7.56,0,0,0,.47.89m33.08-.6c0-.26-.35,1.16-.33.9-.81,2.25-1.22,2.81-2,5.07-1,2.72-2,5.53-4,7.64.53,0,1.3-.3,1-.77.38.34,1-.09,1.26-.5a20.42,20.42,0,0,0,2.37-5q3-8.19,5.67-16.51A25.5,25.5,0,0,1,48,54.41l-1.24,4c0-.35-.19.76-.15.41a94.52,94.52,0,0,1-4,10,4.19,4.19,0,0,0,1.49-2.28q2.78-7.41,5.54-14.8-2.49,8.13-5.78,16A10.84,10.84,0,0,0,46.43,64a81.08,81.08,0,0,0,4.94-13c-.88,4.68-2.84,9.07-4.78,13.41q3.75-6.54,7.17-13.27A109.13,109.13,0,0,1,44.91,67.6c1.67-.9,2.71-2.63,3.67-4.27l6.48-11.1L47.9,65.28a24.74,24.74,0,0,0,8.6-16.43,48.37,48.37,0,0,0,0-6c-.24-6.41-.65-13-3.61-18.74a22.86,22.86,0,0,0-9.21-9.43A4.16,4.16,0,0,0,40.88,14c-.47.11-1.23.12-1.13-.35-5.49,3.94-11.16,8.06-14.48,13.94-.71,1.24-1.3,2.55-2.11,3.73a11.91,11.91,0,0,0-1.43,3.09A36.9,36.9,0,0,0,29.1,70a46.31,46.31,0,0,1-7.69-18.28c1.75,6.66,4,13.42,8.47,18.67a73.22,73.22,0,0,1-8.87-23,121.11,121.11,0,0,0,4.43,13.8,53.59,53.59,0,0,1-2.16-8.09c1.53,5.63,3.12,11.39,6.47,16.15.56.79,1.69,1.6,2.36.91-1.42-.08-2.28-1.56-2.84-2.86A77.87,77.87,0,0,1,23.4,45.44c1.53,8.1,3.13,16.37,7.23,23.52a80.55,80.55,0,0,1-5-23.45,92.39,92.39,0,0,0,3.51,18.28,18,18,0,0,0,2.67,5.94,80.1,80.1,0,0,1-3.59-17,78.31,78.31,0,0,0,3.64,15.7A133.1,133.1,0,0,1,30,52.77a102.17,102.17,0,0,0,2.64,16.59,134,134,0,0,1-.24-22.84l-.05,10.84c0-1.47,0,.12,0,1.21a53.27,53.27,0,0,0,.19,6.79l0-1.14.63,3.93q.84-10.52,1.66-21l-.93,18.16a159.23,159.23,0,0,0,3-18.8,114.92,114.92,0,0,1-2.16,16.84q2.49-8.2,4.26-16.62c-1.08,7.74-3.43,15.25-5.77,22.71,2.15-2.38,3.06-5.6,3.88-8.69q1.35-5.16,2.61-10.35a16.53,16.53,0,0,0,.62-4.24,90.2,90.2,0,0,1,1.58-19.47,68.24,68.24,0,0,0-.22,14.43c.8,8.76-1.69,17.49-4.85,25.7a118.89,118.89,0,0,0,4.79-11.91l2.62-7.25a105.93,105.93,0,0,1-8.06,21c1.73-.67,2.67-2.5,3.41-4.19a164.62,164.62,0,0,0,7.77-23.67,82.62,82.62,0,0,1-4,14.63L41,62c-.78,2.24-1.65,4.6-3.51,6.07a17.86,17.86,0,0,0-2.65,2l1.67,0-.58-.63c1.59.36,2.85-1.32,3.58-2.78A176.57,176.57,0,0,0,48,45.42a122.37,122.37,0,0,1-5.36,15.24c-.22.54-.48,1.24-.65,1.66A28.28,28.28,0,0,1,38,69.55a4.23,4.23,0,0,0,2.64-2.28,38.08,38.08,0,0,0,2.71-5.83q3.36-8.52,6-17.27a72.29,72.29,0,0,1-3.89,12.3q-1.93,5.09-3.89,10.16Q46.3,55.89,50,44.74a77.15,77.15,0,0,1-3.76,11.49M12.92,61.37A43.82,43.82,0,0,1,8,48.22a51.36,51.36,0,0,0,5.14,13c-.9-3.49-3.12-6.65-3.34-10.25a35.76,35.76,0,0,0,2.43,6.75A42.51,42.51,0,0,1,9.59,48l1.06,3.81c-.94-4.72-.31-9.58-.05-14.39a15.54,15.54,0,0,0-.45-5.65,18.69,18.69,0,0,0-1.71-3.44A115.82,115.82,0,0,1,1,13,20.19,20.19,0,0,0,2.24,24.13c2.1,5,2.27,10.62,2.26,16.06s-.17,11,1.35,16.22,5.07,10.2,10.25,11.88A28.46,28.46,0,0,1,5.35,53.62a38,38,0,0,0,4.87,8.69A19.63,19.63,0,0,0,18,68.46C13.73,66,11.12,61.56,9.1,57.13A28.16,28.16,0,0,1,6.15,46.77c1.43,7.46,4.39,14.95,10.07,20C12.11,61,7.87,54.87,7.07,47.83a36,36,0,0,0,5.85,13.54M43.61,13.78A9,9,0,0,1,45.36,15L48.1,17.1a20.67,20.67,0,0,1,2.68,2.36,19.54,19.54,0,0,1,3.16,5.39,32.57,32.57,0,0,1,2.23,6.35,37.8,37.8,0,0,1,.65,5.52l.44,6.64a41.76,41.76,0,0,0-3.41-23,22.42,22.42,0,0,1-1.59-3.91c-.65-2.53-.24-5.41-1.71-7.58A4.54,4.54,0,0,0,45.71,7a3.64,3.64,0,0,0-2.46,4.35c.07.23-.14.46-.37.53a3.35,3.35,0,0,1-.71.05,1.65,1.65,0,0,0-1.5,1.49,4.8,4.8,0,0,1,2.94.37m-7.14-4.2-.58-.79a5,5,0,0,0-1-1.09,7.11,7.11,0,0,0-1.59-.84,11.64,11.64,0,0,1-4-3,6.1,6.1,0,0,0-2.51-2.21,9,9,0,0,0-1.64-.2C24,1.33,22.8.75,21.54.71c-1.76,0-3.35,1-4.79,2a15.21,15.21,0,0,0-3.47,3L14.63,5a2.73,2.73,0,0,1,1.5-.44c.82.1,1.35.9,1.67,1.66a6.41,6.41,0,0,1,4.38-.7,9.41,9.41,0,0,1,4.06,1.92,21,21,0,0,0,2.62,2,7.76,7.76,0,0,1,1.45.85c.85.74,1.08,2,1.94,2.75.41.35,1,.63,1.06,1.16a31.63,31.63,0,0,1,3.16-4.64M34,16.48l.35.47a12.9,12.9,0,0,1,5.34-3.59.23.23,0,0,0,.22.2A5.29,5.29,0,0,1,40.72,12a1.78,1.78,0,0,1,1.5-.71c.19,0,.33-.19.35-.38a2.75,2.75,0,0,0-.1-.56c-.13-.75.44-1.48.33-2.23a8,8,0,0,0-6.47,2.59,3,3,0,0,0-.42.52c-.11.21-.17.44-.28.64-.3.61-.92,1-1.26,1.6-.24.41-.42,1-.88,1,.17.59.32,1.19.45,1.79a.36.36,0,0,0,.08.15M1,10a8.48,8.48,0,0,0,.55,3.21c.21.48.51.91.76,1.37.61,1.15.88,2.45,1.4,3.64.14.31.29.6.44.9l1.75,3.41A17.07,17.07,0,0,1,6.73,16a.56.56,0,0,0,0-.42.53.53,0,0,0-.1-.12c-1.08-1.06-2.73-1.54-3.44-2.88A8.11,8.11,0,0,0,1,10m17.22,54.2A4.8,4.8,0,0,1,17.31,63a7.8,7.8,0,0,0-.61-.68q-2.12-2.69-4-5.54a4.14,4.14,0,0,0,.82,2.15l.61,1a45.24,45.24,0,0,0,5.3,6.81A13.28,13.28,0,0,0,21.2,68.3a7.84,7.84,0,0,0,1.91,1,.65.65,0,0,0,.36,0c.12,0,.22-.16.17-.27a16.36,16.36,0,0,1-3.49-3m0,0-1.51-1.53M15.33,62a23.51,23.51,0,0,1-2.19-3.29A8.88,8.88,0,0,0,14,61.1a16.29,16.29,0,0,0,1.82,2.69,20.49,20.49,0,0,0,5,4.94c.12.08.29.16.4.06l-.61-.52A32.65,32.65,0,0,1,16,63m23-4.55a39.21,39.21,0,0,0,1.27-5.9l.82-5.1c.06-.35.11-.71.14-1.06a13.46,13.46,0,0,0,0-1.42l0-1.34c0-1.83-.06-3.65-.21-5.47-.1,1.44-.14,2.89-.13,4.33,0,2.57.21,5.19-.51,7.66-.79,2.69-.84,5.55-1.39,8.3m-20-.76c-.09,0-.09.16-.06.25a17.79,17.79,0,0,0,2.95,5.74c.36.48.72,1,1.1,1.42a1.83,1.83,0,0,0,.54.5L22.48,64A27.6,27.6,0,0,1,19,57.68M37.34,60.9c-.18.05-.22.27-.24.45a6.15,6.15,0,0,1-.47,1.74c-.06.13-.11.32,0,.4a21.18,21.18,0,0,0,1.85-5.74,5.91,5.91,0,0,0,.22-2.08c-.38,1.45-.74,2.91-1.09,4.37,0-.07-.1-.11-.13,0s0,.15,0,.22.05.17,0,.22-.11-.15-.09-.25c-.12.07-.08.24,0,.37s0,.31-.08.34M14.93,63.12l-.67-1a14,14,0,0,0,3.18,4.74,5.69,5.69,0,0,0,.56.54,2.62,2.62,0,0,0,.87.43,23.91,23.91,0,0,1-1.89-2c-.61-.74-1.18-1.52-1.74-2.29l-.31-.42m-2.76,3.79a.55.55,0,0,0,.34.11,16.61,16.61,0,0,1-5.09-6.08c-.33-.62-.66-1.25-1-1.89a2.84,2.84,0,0,0,.41,1.15A33,33,0,0,0,9.1,63.9a11.71,11.71,0,0,0,3.07,3m7.7,2.87a3,3,0,0,0-.7-.44,1.17,1.17,0,0,0-.82-.06,1.17,1.17,0,0,1-.69,0,12.74,12.74,0,0,1-1.93-.61c-.06,0,0,.09,0,.12a9.05,9.05,0,0,0,2.07.77l.36.06c.56.08,1.12.14,1.68.19m17.55-6.35L36,66.2l-.17.33-.34.67c-.06.12-.11.29,0,.36a17.56,17.56,0,0,0,1.95-3.87c0-.09.06-.19,0-.26M21.65,69.58a1.53,1.53,0,0,1-.51-.13l-.83-.39a.14.14,0,0,0-.11,0c-.05,0-.05.09,0,.14a.29.29,0,0,0,.13.08l.7.26.45.15a4,4,0,0,0,.5.09l.66.09c.06,0,.16,0,.13-.09l-.05,0-.5-.22a.28.28,0,0,0-.12,0c-.09,0-.16.07-.24.1a.41.41,0,0,1-.19,0m18.43-.85s-.09.07-.11.12a1,1,0,0,1-.31.35l-.49.38a.33.33,0,0,0,.28-.09,4.41,4.41,0,0,0,1-.92,7.16,7.16,0,0,0,.6-.91l.51-.83c0-.07-.12,0-.15,0l-.22.34-.52.82a2.89,2.89,0,0,1-.55.7m.66,1.79a.66.66,0,0,0,.47-.07l.71-.31a.05.05,0,0,0,0,0s-.06-.07-.11-.06a2.18,2.18,0,0,0-1.11.47m-16.92-.75a6.76,6.76,0,0,0,.9,0c-.08-.21-.47-.12-.56-.33,0-.06-.12-.06-.16,0a.34.34,0,0,0-.08.17.22.22,0,0,1-.1.17m2.8.25a.74.74,0,0,0,.6,0,.76.76,0,0,1-.26-.18.31.31,0,0,0-.28-.1c-.1,0-.15.19-.06.24m-7.3-1.42a.66.66,0,0,0,.56.23s.07,0,.07,0a.08.08,0,0,0,0,0,.86.86,0,0,0-.29-.21.26.26,0,0,0-.32.07m1.08-29h.06s-.05,0-.06,0M41.1,38s0,.05,0,.06,0-.06,0-.06m-25-7.38s0,.06,0,.06,0-.05,0-.06m10.69-6s0,.06,0,.06,0-.05,0-.06M6.24,21.18s0-.05,0-.05a0,0,0,0,0,0,.05m.82-4.82s0,.05,0,.05a0,0,0,0,0,0-.05m.57-1.67a0,0,0,0,0,0,0s0,0,0,0M9,11.61s.06,0,.06,0-.06,0-.06,0Z"/></g></g></svg>