<svg xmlns="http://www.w3.org/2000/svg" xmlns:xlink="http://www.w3.org/1999/xlink" viewBox="0 0 92.45 63.01"><defs><style>.cls-1{fill:#fff;}.cls-2{fill:url(#radial-gradient);}</style><radialGradient id="radial-gradient" cx="46.24" cy="31.55" r="39.52" gradientUnits="userSpaceOnUse"><stop offset="0" stop-color="#f8ff65"/><stop offset="0.03" stop-color="#f8ff6c"/><stop offset="0.27" stop-color="#fbffa0"/><stop offset="0.5" stop-color="#fdffc9"/><stop offset="0.7" stop-color="#feffe7"/><stop offset="0.87" stop-color="#fffff9"/><stop offset="1" stop-color="#fff"/></radialGradient></defs><title>frangipane-iso</title><g id="Layer_2" data-name="Layer 2"><g id="frangipane_iso"><path id="void" class="cls-1" d="M91.62,14.43a1.82,1.82,0,0,1,.11.3l-.06-.05a2.46,2.46,0,0,0-.22-.34l.17.09a3.9,3.9,0,0,0-2.69-1.8c-4.88-1.26-10,.15-14.84,1.56A30.25,30.25,0,0,0,66,.1c-5,1.7-9.9,3.8-13.88,7.22s-6.93,8.34-6.95,13.58c-1.83-4.27-6-7.21-10.38-8.67S25.69,10.6,21,10.47c-.8,0-1.75,0-2.16.72-1.26,2.11-2.55,4.3-2.84,6.74-.63,5.07,3.11,9.57,6.88,13a46.12,46.12,0,0,0,13.32,8.72,18.48,18.48,0,0,1,2.89,1,23.85,23.85,0,0,1-2.89-1c-6.43-1.58-14.76-.43-21.45,1.86l-.2.07h0A41.44,41.44,0,0,0,10,43.53,37.87,37.87,0,0,0,1,49.35a2.79,2.79,0,0,0-1,1.47c-.2,1.26,1.26,2.12,2.5,2.41,4.89,1.13,9.92-.58,14.79-1.78a125.24,125.24,0,0,1,22.51-2.94s0,0,0,0,0,0,0,0l5.64-.28a15.25,15.25,0,0,0-8.15,10.45,4.83,4.83,0,0,0,.15,3A2.12,2.12,0,0,0,40,62.9a41.66,41.66,0,0,1,11.91-2.72h0a9.29,9.29,0,0,0,9.8-3.66c1.25-1.84,1.77-4.05,2.62-6.1s2.17-4.11,4.27-4.85c5.67-2,10.4-6.14,14.08-10.9s6.39-10.19,9.09-15.57C92.5,17.73,92.87,15.22,91.62,14.43Z"/><path id="fill2" class="cls-2" d="M91.62,14.43a1.82,1.82,0,0,1,.11.3l-.06-.05a2.46,2.46,0,0,0-.22-.34l.17.09a3.9,3.9,0,0,0-2.69-1.8c-4.88-1.26-10,.15-14.84,1.56A30.25,30.25,0,0,0,66,.1c-5,1.7-9.9,3.8-13.88,7.22s-6.93,8.34-6.95,13.58c-1.83-4.27-6-7.21-10.38-8.67S25.69,10.6,21,10.47c-.8,0-1.75,0-2.16.72-1.26,2.11-2.55,4.3-2.84,6.74-.63,5.07,3.11,9.57,6.88,13a46.12,46.12,0,0,0,13.32,8.72,18.48,18.48,0,0,1,2.89,1,23.85,23.85,0,0,1-2.89-1c-6.43-1.58-14.76-.43-21.45,1.86l-.2.07h0A41.44,41.44,0,0,0,10,43.53,37.87,37.87,0,0,0,1,49.35a2.79,2.79,0,0,0-1,1.47c-.2,1.26,1.26,2.12,2.5,2.41,4.89,1.13,9.92-.58,14.79-1.78a125.24,125.24,0,0,1,22.51-2.94s0,0,0,0,0,0,0,0l5.64-.28a15.25,15.25,0,0,0-8.15,10.45,4.83,4.83,0,0,0,.15,3A2.12,2.12,0,0,0,40,62.9a41.66,41.66,0,0,1,11.91-2.72h0a9.29,9.29,0,0,0,9.8-3.66c1.25-1.84,1.77-4.05,2.62-6.1s2.17-4.11,4.27-4.85c5.67-2,10.4-6.14,14.08-10.9s6.39-10.19,9.09-15.57C92.5,17.73,92.87,15.22,91.62,14.43Z"/><path id="fill1" d="M61.41,34.92l-.13-.2a15.35,15.35,0,0,0,1.32-1.6l3.93-5.24c.07,0,0,.15,0,.22l-4.1,5.57A15.2,15.2,0,0,1,61.41,34.92Zm6.1-6.37c.07.11-.05.25-.16.33A21.72,21.72,0,0,0,63,34l-.77,1.13c-.14,0-.09-.25,0-.37A28.48,28.48,0,0,1,67.51,28.55Zm-.08,1.82a2.8,2.8,0,0,1,.68-.65q-2.34,2.88-4.71,5.74a1.69,1.69,0,0,1,.48-.91ZM55.62,26.24c.76-2.43,1.72-4.79,2.67-7.14L59,17.28a5.14,5.14,0,0,1-.5,1.57,72.26,72.26,0,0,0-3.8,10.94A27.07,27.07,0,0,1,55.62,26.24ZM58.51,22c-1,2.65-1.93,5.34-2.72,8.08-.44,1.53-.84,3.07-1.36,4.57a106,106,0,0,1,3.68-11.93A1.89,1.89,0,0,1,58.51,22ZM43.36,30.79c0,.14.09.27.14.4.79,2,1.67,3.93,2.64,5.83a1.09,1.09,0,0,1,.18.69,66.3,66.3,0,0,1-3.22-7.14C43.2,30.47,43.33,30.66,43.36,30.79Zm25.93,3.06a.13.13,0,0,1-.07,0,4.81,4.81,0,0,0-2,1.75L65.8,37.48c-.12-.13,0-.33.09-.47l1.33-1.65a4.17,4.17,0,0,1,1.9-1.59C69.2,33.74,69.32,33.77,69.29,33.85ZM55.63,31.68l.5-1.73c.26-.91.52-1.83.82-2.73a44.27,44.27,0,0,1,1.88-4.83,1.44,1.44,0,0,1-.14.53C57.52,25.78,56.57,28.73,55.63,31.68Zm-12.91,4.5c-.09,0-.18,0-.25-.12C41,34.65,39.52,33.28,38,32a.38.38,0,0,1,.29.12A46.59,46.59,0,0,1,42.72,36.18ZM60.84,31c0-.07.12-.16.18-.11-.6,1.27-1.21,2.53-1.84,3.79-.06.13-.14.27-.28.3s-.3-.15-.19-.25a5.22,5.22,0,0,0,1-1.6Zm8,5.94c.09-.06.23-.11.3,0a7.75,7.75,0,0,0-1.34,1.16l-1.11,1.13c-.06.06-.17,0-.16-.1a.33.33,0,0,1,.12-.21l1.16-1.12A5.61,5.61,0,0,1,68.88,37Zm-17-12.52-.19,1.72c-.07.61-.14,1.22-.22,1.82a37.51,37.51,0,0,1,.73-6.51ZM66.47,38.16s0-.11,0-.16a6.81,6.81,0,0,1,.82-1.19,9,9,0,0,1,1.63-1.74.2.2,0,0,1,0,.23.74.74,0,0,1-.19.16,3,3,0,0,0-.56.57c-.46.56-.88,1.13-1.28,1.72A1.08,1.08,0,0,1,66.47,38.16Zm-13.1-8.95-.22,1.47-.1.72a96.11,96.11,0,0,1,1.44-10c0,.25-.05.49-.09.73l-.81,5.54Zm15,3.73a.2.2,0,0,1,.14-.08s.1.07.06.11a14.29,14.29,0,0,0-1.22,1.35,21.65,21.65,0,0,1-1.7,2.1c-.06.06-.2.1-.21,0a.1.1,0,0,1,0-.09C66.37,35.19,67.31,34,68.33,32.94Zm-5.4-6.09a9.09,9.09,0,0,1,1.83-2.58A24.11,24.11,0,0,0,62,28.83c-.08,0-.06-.15,0-.23C62.31,28,62.62,27.43,62.93,26.85ZM69,40.43a2.21,2.21,0,0,1-.63,0,3.39,3.39,0,0,0-1.26.23.47.47,0,0,1-.16,0,.13.13,0,0,1-.13-.1.69.69,0,0,1,.35-.26l.22,0A2.67,2.67,0,0,1,69,40.43ZM64.71,25.85a8.47,8.47,0,0,1,1.43-1.5c0,.06,0,.15-.08.21a11.54,11.54,0,0,0-2.28,3s0,.09-.09.1-.1,0-.09-.05,0,0,0,0l.31-.49c.2-.32.4-.64.61-.95Zm-3.16.24a16.7,16.7,0,0,0-1.29,2.35c0,.06-.12.13-.15.06a12.43,12.43,0,0,1,2-3.32c.08.08,0,.21-.08.29A4.74,4.74,0,0,0,61.55,26.09Zm-35.21,17,2.09-.19-5.2.75a8,8,0,0,1,1-.27A19,19,0,0,1,26.34,43.05ZM43.66,36a.9.9,0,0,0,.33.34s.12.07.12.14a.47.47,0,0,0,.1.2l.65.81a.52.52,0,0,0,.23.21,1.6,1.6,0,0,1,.21.05c.06,0,.1.13,0,.17s-.11-.06-.17,0-.15.06-.19,0l-.87-1.16c-.17-.23-.35-.47-.54-.69a.17.17,0,0,0-.11-.06c-.05,0-.07-.09,0-.12a.12.12,0,0,1,.15,0A.29.29,0,0,1,43.66,36Zm19.28-10.3L61.59,27.6c0,.06-.13.12-.17.06.49-.78,1-1.54,1.56-2.29C63.06,25.45,63,25.57,62.94,25.66Zm-.21,1.13c-.09,0-.06-.16,0-.24a11.14,11.14,0,0,1,1.52-2.15c.05.06,0,.15,0,.22A13.29,13.29,0,0,0,62.73,26.79ZM47.15,38.51a1.43,1.43,0,0,1,.32.72.5.5,0,0,0,.1.21l.23.37-.22.07a1.31,1.31,0,0,1,.52.34s.07.08.06.12-.07.08-.1,0a.67.67,0,0,0-.53-.31c0-.07,0-.15-.06-.22a1.2,1.2,0,0,1,0-.38,1.1,1.1,0,0,0-.19-.64C47.15,38.73,47.06,38.59,47.15,38.51ZM43.08,28.38a.82.82,0,0,1,.21.36l.77,2.16a.44.44,0,0,1,0,.37l-.21-.61-.71-1.94A.6.6,0,0,1,43.08,28.38Zm1.24,1.34s0,.07,0,.11l-.09.24a1.87,1.87,0,0,0-.09-.41l-.53-1.87s0,0,0-.06.07,0,.1,0a.17.17,0,0,1,.06.11c.1.33.19.66.28,1s.11.4.15.6a.38.38,0,0,0,0,.16C44.26,29.62,44.31,29.66,44.32,29.72ZM24.82,42.61c-.08-.06-.19,0-.29,0s-.24,0-.22-.12c.93,0,1.86,0,2.8,0a1.23,1.23,0,0,1-.66,0,6.54,6.54,0,0,1-1.24.07C25.08,42.57,24.92,42.52,24.82,42.61Zm16.47-5.89L40.19,36l-1-.68c0-.06.14,0,.21,0l2.19,1.52C41.51,36.86,41.39,36.79,41.29,36.72Zm4.05-6,.17.62a1,1,0,0,1,0,.64,12.81,12.81,0,0,1-.41-1.62,6,6,0,0,0-.25-.95c.11,0,.16.14.19.24l.19.71c-.05,0-.05.12,0,.18A1,1,0,0,1,45.34,30.69ZM22,46.41l-.49.15-.76.21c0-.05.05-.09.1-.11l.88-.28.76-.24,1.29-.37a.92.92,0,0,1-.21.13,2.08,2.08,0,0,1-.39.15ZM40.16,31.67l.59.73.63.76c0,.06.1.14.06.21-.52-.6-1-1.21-1.53-1.84C40,31.51,40.09,31.6,40.16,31.67Zm22.77-7.32c0-.05.13-.11.16-.05L61.92,26a.66.66,0,0,1,.14-.42C62.34,25.19,62.63,24.77,62.93,24.35Zm-18.4,6.32c0,.12.08.21.15.31s.09.26,0,.31a.1.1,0,0,1,0,.15s-.14,0-.12-.06a.63.63,0,0,0-.05-.38l-.22-.57a.53.53,0,0,1,0-.25.19.19,0,0,1,.15-.17A1.26,1.26,0,0,1,44.53,30.67Zm-3.77.47a.18.18,0,0,1,0-.3L41.57,32a.58.58,0,0,1,.08.18.14.14,0,0,1-.09.16c-.06,0-.14,0-.1-.11a.24.24,0,0,0,0-.23,1,1,0,0,1-.15-.2A1.51,1.51,0,0,0,40.76,31.14ZM50.14,42c0,.09.08.21,0,.27a4.62,4.62,0,0,1-.5-1.19c0-.09-.06-.2-.15-.22a.11.11,0,0,1,0-.12.07.07,0,0,1,.11,0c0,.13.09.25.14.37ZM60.77,30.36c-.07,0-.06-.16,0-.22a1,1,0,0,0,.15-.2,9.11,9.11,0,0,1,.47-1c.07.08,0,.2,0,.29A8.15,8.15,0,0,1,60.77,30.36ZM65.66,26c0-.06.13-.11.16-.05L64.65,27.5a.54.54,0,0,1,.14-.38l.28-.36ZM45.44,33.35c0,.2.21.4.1.57a1.65,1.65,0,0,1-.25-.68.49.49,0,0,0-.1-.22,1,1,0,0,1-.15-.58l.28.53A.66.66,0,0,1,45.44,33.35Zm16.5-5.23c-.06-.08,0-.2,0-.29l.22-.38.35-.61c.07,0,.05.13,0,.19A6.57,6.57,0,0,1,61.94,28.12Zm1.18.35q-.21.44-.45.84l-.12.23a1.65,1.65,0,0,1-.35.47.28.28,0,0,1,0-.23l.72-1.2S63.05,28.46,63.12,28.47Zm-2.71-2.14a.85.85,0,0,1,.07-.5,6.34,6.34,0,0,0,.41-1.1,1.19,1.19,0,0,1,0,.42,4,4,0,0,1-.17.49ZM41.83,37.12a.33.33,0,0,1-.09-.11.08.08,0,0,1,0-.11c.29.29.71.44.94.77a.34.34,0,0,1-.25-.09Zm-1-2.24-.62-.55c-.06-.06-.13-.14-.08-.21L41,35c.08.07.17.18.13.28C41.05,35.12,40.92,35,40.79,34.88ZM47,38.42l0,0c-.13-.25-.26-.5-.38-.76a.57.57,0,0,1-.06-.53,3.57,3.57,0,0,0,.51,1.1.31.31,0,0,1,.08.15C47.13,38.4,47.06,38.45,47,38.42Zm-.18,0,.25.46a.14.14,0,0,1-.08.19,2.19,2.19,0,0,1-.36-.65.09.09,0,0,1,0-.07s.07-.05.11,0A.22.22,0,0,1,46.84,38.41Zm-8-4.47c0,.05-.12,0-.17,0l-.9-.74c.09-.07.22,0,.31.08Zm7.79,1.12.24.66c-.08,0-.13-.09-.17-.17-.23-.62-.45-1.23-.67-1.85a2.83,2.83,0,0,1-.11-.31s0-.14,0-.11,0,0,0,0l.29.81.18.48Zm16.08-5.12.41-.57c.05-.07.13-.16.22-.13a6.81,6.81,0,0,1-.78,1.05A.53.53,0,0,1,62.75,29.94ZM32.52,31.09a6.89,6.89,0,0,1,.93.49,4.55,4.55,0,0,1,.64.44,1.11,1.11,0,0,1-.45-.19l-1-.58A.31.31,0,0,1,32.52,31.09ZM60.9,27.75c.07.12,0,.27-.09.4a2.66,2.66,0,0,0-.31.81c-.12-.13,0-.33,0-.49ZM43.39,37.48a4.43,4.43,0,0,1-.68-.62s-.08-.12,0-.16a1.69,1.69,0,0,1,.41.34l.22.22C43.37,37.32,43.43,37.41,43.39,37.48ZM45.94,35s0-.14.1-.12a.21.21,0,0,1,.13.16,1.81,1.81,0,0,0,.09.31.5.5,0,0,0,.3.25.28.28,0,0,1-.42-.15A.84.84,0,0,0,45.94,35Zm-4-1.14a6,6,0,0,1,.67.84c0,.06.05.15,0,.17l-.38-.48A1.05,1.05,0,0,1,42,33.87ZM21,42.7a2.08,2.08,0,0,1-.89.21.91.91,0,0,1-.4,0A9.5,9.5,0,0,1,21,42.7Zm40.9-13.83c.1.09,0,.24,0,.35l-.39.71c-.05-.06,0-.15,0-.21Zm-1.33.52a.36.36,0,0,1,.06-.3l.22-.41a.48.48,0,0,1,.19-.23.23.23,0,0,1,0,.16A4.37,4.37,0,0,1,60.53,29.39ZM23.15,43.67l-1,.15a.2.2,0,0,1-.2,0,7.48,7.48,0,0,1,1.33-.19S23.2,43.66,23.15,43.67ZM45.9,33.16l-.26-.87a.78.78,0,0,1,0-.21A1.36,1.36,0,0,1,45.9,33.16ZM24.55,42.09a3,3,0,0,0,1-.16c.07,0,.13,0,.18.11A2.49,2.49,0,0,1,24.55,42.09Zm19.27-6.84c-.2-.21-.39-.44-.57-.67,0-.06-.08-.15,0-.2.19.22.37.44.54.67C43.82,35.11,43.86,35.19,43.82,35.25Zm15.5-6.17a2,2,0,0,1-.21.82l-.08.17c-.05,0-.06-.08,0-.13A3.33,3.33,0,0,1,59.32,29.08Zm.08,1.2a1.77,1.77,0,0,1,.21-.71.2.2,0,0,1,.14-.13A1.74,1.74,0,0,1,59.4,30.28ZM38.9,28.22a.21.21,0,0,1,0,.11.14.14,0,0,1,0,.06c-.22-.21-.47-.48-.38-.77Zm13.54-7.84a1.83,1.83,0,0,1,.08-.77l.09-.24A2.06,2.06,0,0,1,52.44,20.38Zm-9.15,6.33c0-.06,0-.14,0-.14a6.92,6.92,0,0,1,.28.76.22.22,0,0,1,0,.11s-.07.07-.1,0a.08.08,0,0,1,0-.05Zm.13,6.78c.11,0,.18.09.23.19l.1.19a1.31,1.31,0,0,1,.16.47.48.48,0,0,1-.18-.24ZM64,28.18s0,.1,0,.14l-.13.1a.71.71,0,0,0-.15.3c0,.11-.17.2-.27.14l.4-.6C63.92,28.21,64,28.15,64,28.18ZM44.5,35.24l.22.38c0,.06.05.15,0,.16a1,1,0,0,1-.37-.59C44.37,35.13,44.46,35.19,44.5,35.24Zm1.26.34a1.52,1.52,0,0,1-.31-.71s0-.11,0-.13a6.28,6.28,0,0,1,.27.59A.31.31,0,0,1,45.76,35.58ZM19.22,43.37c-.3,0-.6.05-.9.1a.29.29,0,0,1-.24,0A2.21,2.21,0,0,1,19.22,43.37ZM36.66,31.06s0,0-.06,0c-.2-.18-.39-.38-.58-.57,0-.05.11,0,.15,0l.48.43C36.7,30.94,36.73,31.05,36.66,31.06Zm-1.83.8a7.1,7.1,0,0,1,.7.41c.07,0,.14.11.13.19L35,32.09C35,32,34.85,32,34.83,31.86Zm10.86,2a4.34,4.34,0,0,0,.14.6c0,.08.07.17.15.18s.12,0,.15,0-.3,0-.36-.12-.07-.31-.18-.42Zm14.1-3.78L60,29.6c0-.08.08-.17.17-.16a4.4,4.4,0,0,1-.4.85C59.74,30.24,59.77,30.17,59.79,30.11Zm-23.24,2a.75.75,0,0,1,.41.22l.39.32s-.11,0-.16,0A4.55,4.55,0,0,1,36.55,32.16ZM24.87,45.34a3.13,3.13,0,0,1-.65.35c-.07,0-.16,0-.2,0A2.59,2.59,0,0,1,24.87,45.34ZM42.61,32.59a3.66,3.66,0,0,1-.31-.49.36.36,0,0,1-.06-.3,3.35,3.35,0,0,1,.37.63S42.66,32.55,42.61,32.59Zm-.88,3.21c.12-.06.21.09.29.2a.66.66,0,0,0,.3.24.31.31,0,0,1-.37-.08C41.86,36.05,41.85,35.88,41.73,35.8Zm-3.29-1L38,34.5c-.06,0-.13-.13-.07-.18.21.24.65.27.74.58Zm6.23-2.17a.4.4,0,0,1,0,.28,1.86,1.86,0,0,1-.31-.67s0-.11,0-.11.07,0,.08.07Zm-5.28-3.2L39.16,29a.09.09,0,0,1,0-.1,1.89,1.89,0,0,1,.36.61c-.05.07-.14,0-.18-.08Zm5.45,7.89-.26-.37c0-.05-.06-.12,0-.15a1.38,1.38,0,0,1,.45.61C45,37.41,44.88,37.35,44.84,37.29Zm13.58-6a.79.79,0,0,0,.07-.43s0-.11.06-.08l.07.33c0,.09,0,.19,0,.25S58.38,31.36,58.42,31.28ZM37,33.77a1.61,1.61,0,0,1-.54-.27l-.17-.13c.06-.06.16,0,.23,0A2.8,2.8,0,0,1,37,33.77Zm2.78.9a.19.19,0,0,1-.17-.06L39,34.15s.12,0,.17,0A2.55,2.55,0,0,1,39.73,34.67ZM43,30.11l0,.16a1.07,1.07,0,0,1,.06.3.86.86,0,0,1-.26-.73A.61.61,0,0,1,43,30.11ZM58.79,30a3.21,3.21,0,0,1,.19-.8s0-.08.08-.06A2.17,2.17,0,0,1,58.79,30Zm-16,4.49a.79.79,0,0,1,.4.46s0,.1,0,.11-.08-.15-.13-.23-.12-.1-.18-.14S42.75,34.57,42.8,34.51Zm3.5,2a.19.19,0,0,1,0,.16c0,.05-.11.07-.12,0a1.71,1.71,0,0,0-.29-.57.09.09,0,0,1,.11,0,.18.18,0,0,1,.08.09Zm7.32-12.91a1.19,1.19,0,0,1,.11-.71l.07-.16A1.86,1.86,0,0,1,53.62,23.58Zm-12.12,9a2.92,2.92,0,0,1,.37.61.07.07,0,0,1,0,.09,4,4,0,0,1-.35-.56S41.45,32.6,41.5,32.58Zm4.85,5.08a.88.88,0,0,1,.26.43.12.12,0,0,1,0,.14A.57.57,0,0,1,46.35,37.66ZM45,33.85l-.19-.46a.09.09,0,0,1,0-.1s.12,0,.15.08l.16.38c0,.07,0,.18-.05.17S45,33.88,45,33.85Zm-1.13-6.76a2.13,2.13,0,0,1-.25-.72s0-.07,0-.08A1.4,1.4,0,0,1,43.89,27.09Zm0,8.82c-.09.05-.19,0-.25-.13l-.17-.24.11-.1Zm-.57-2.75c0,.07-.13,0-.17,0a1,1,0,0,1-.16-.41.82.82,0,0,1,.32.39A0,0,0,0,1,43.34,33.16Zm.55,1.14a.82.82,0,0,1,.34.58.06.06,0,0,1,0,.08A2.24,2.24,0,0,1,43.89,34.3Zm8.84-15.18a.78.78,0,0,1,.07-.61l.07-.17c.05,0,0,.12,0,.18Zm14.2,7.28s0,.09-.05.12l-.45.35a.91.91,0,0,1,.35-.45S66.9,26.35,66.93,26.4ZM39.75,33.9l-.4-.39s-.08-.14,0-.16l.4.39C39.78,33.79,39.81,33.88,39.75,33.9ZM43,23.59a.07.07,0,0,1,.1,0,.21.21,0,0,1,0,.11,1.54,1.54,0,0,0,.18.56s0,.09-.08.07a.16.16,0,0,1-.07-.12Zm-.78,10c0-.05,0-.13,0-.15l.3.4a.17.17,0,0,1-.22,0A.57.57,0,0,1,42.17,33.63ZM40.75,31.4l.24.41c0,.05,0,.11,0,.15a4.54,4.54,0,0,1-.36-.5s0-.1,0-.12S40.73,31.36,40.75,31.4Zm1-1.63a.56.56,0,0,1,0-.12s0-.07,0-.07a.63.63,0,0,1,.22.64Zm19.4.75a.38.38,0,0,1-.18.25.74.74,0,0,1,.26-.55.27.27,0,0,1-.08.28ZM43.91,35.06s0-.1.06-.1.08,0,.11.1.23.37.13.54A1,1,0,0,0,43.91,35.06Zm16-5.82s-.11.08-.15,0l.22-.49A.42.42,0,0,1,59.91,29.24ZM38.05,34l-.46-.26c-.08-.05-.17-.1-.18-.19A1.09,1.09,0,0,1,38.05,34Zm4.89-1.74.12.22c0,.05-.11,0-.15,0a.45.45,0,0,1-.1-.44.2.2,0,0,1,.11.24Zm-21.8,10.4a2.48,2.48,0,0,1,.86,0A2.08,2.08,0,0,1,21.14,42.66Zm34.4-10.72a1.37,1.37,0,0,1-.08.6l-.09.2A2,2,0,0,1,55.54,31.94Zm4-3.43a.7.7,0,0,1-.07.49.19.19,0,0,1-.12.09A1.18,1.18,0,0,1,59.51,28.51ZM19.77,43.3a.48.48,0,0,1-.51.06A.45.45,0,0,1,19.77,43.3ZM64.56,27.67c-.16,0-.19.28-.34.3s-.07,0-.08,0,.12-.16.18-.24S64.51,27.58,64.56,27.67ZM35,31c.05,0,.08.11,0,.14l-.5-.32A.75.75,0,0,1,35,31Zm-3.5-.39a.6.6,0,0,1,.34.11l.23.14A.68.68,0,0,1,31.48,30.57Zm1.68-.77,0,0s0,.1,0,.08a1.58,1.58,0,0,1-.48-.33A.72.72,0,0,1,33.16,29.8Zm23-9.23a.66.66,0,0,1-.09.65A2.37,2.37,0,0,1,56.15,20.57ZM42.47,36.43a.2.2,0,0,1,.1.08.07.07,0,0,1,0,.11s0,0-.06,0a.42.42,0,0,1-.24-.25.19.19,0,0,1,.22.07ZM30.3,29.17a1,1,0,0,1,.47.18s.09.06.08.11a2.25,2.25,0,0,1-.45-.19S30.31,29.21,30.3,29.17ZM18.93,45.64a1,1,0,0,1-.57.17h-.07c0-.09.14-.12.23-.13ZM43.15,26.23a.2.2,0,0,1-.08-.13c0-.06.06-.11.1-.07a.08.08,0,0,1,0,0l.13.41s-.07,0-.09,0,0-.08,0-.13,0-.09-.07-.09Zm-4.5,8.07.07.07a.15.15,0,0,1,0,.09,1.75,1.75,0,0,1-.51-.34A.83.83,0,0,1,38.65,34.3ZM52.33,20.9c0,.06.05.12,0,.18s-.12.07-.14,0,0,0,0-.06l.08-.33s0,0,0,0,.11,0,.11.06a.18.18,0,0,1-.08.13ZM37.26,34a.55.55,0,0,1,.44.29A.59.59,0,0,1,37.26,34Zm23.83-6.48a.62.62,0,0,1,.09-.32.38.38,0,0,1,.15-.18A.57.57,0,0,1,61.09,27.49ZM54.6,20.88a2.05,2.05,0,0,1,.06-.49.11.11,0,0,1,0-.09A.61.61,0,0,1,54.6,20.88Zm5.61,5.71c0-.05.11-.11.16-.06l-.24.47C60,26.88,60.13,26.72,60.21,26.59ZM44.31,36a1.07,1.07,0,0,1-.28-.42A.38.38,0,0,1,44.31,36Zm.88-2a2.26,2.26,0,0,1,.17.43.06.06,0,0,1,0,.07A.44.44,0,0,1,45.19,34ZM42.8,35.26c-.07.08-.2,0-.25-.11L42.44,35c.07,0,.17,0,.2.1S42.71,35.24,42.8,35.26Zm2.9,2.05c-.13,0-.22-.13-.25-.26s0-.13,0-.15Zm1.4-1.19c-.06.06-.16,0-.18-.11a.51.51,0,0,1,0-.3ZM31.83,30l.27.15a.26.26,0,0,1,.15.14A.43.43,0,0,1,31.83,30Zm10.33,3.27.14.15a.23.23,0,0,1-.25-.32.24.24,0,0,1,.12.17Zm16.89-4.07a.66.66,0,0,1,.19-.51A.8.8,0,0,1,59.05,29.17ZM19.35,42.94a1.2,1.2,0,0,1-.65,0A1.43,1.43,0,0,1,19.35,42.94ZM54.17,21.49a.87.87,0,0,1,.1-.5A.44.44,0,0,1,54.17,21.49Zm-6.92,15a.28.28,0,0,1,0,.25.45.45,0,0,0-.16-.32s0-.12.09-.09a.2.2,0,0,1,.09.16Zm-4.82-2.32a.07.07,0,0,1,.09-.08s.08,0,.11.08a.5.5,0,0,1,.07.27l-.23-.21S42.43,34.15,42.43,34.13Zm-.28-1.28a.55.55,0,0,1,.29.44A.88.88,0,0,1,42.15,32.85Zm-1.84.64-.1-.13a.42.42,0,0,1,.34.25.21.21,0,0,1-.23-.13Zm-4.14-4.2a.54.54,0,0,1,.33.28A.36.36,0,0,1,36.17,29.29ZM55.9,21.66a.43.43,0,0,1,.14-.32,1.71,1.71,0,0,1-.1.5.23.23,0,0,1,0-.18Zm-16,10.06a.15.15,0,0,1,.06.1l0,.06a.58.58,0,0,1-.27-.36A.91.91,0,0,1,39.87,31.72Zm.52-.66a.52.52,0,0,1-.11-.32,1.77,1.77,0,0,1,.26.35C40.51,31.14,40.43,31.1,40.39,31.06Zm-4.73,1.38a.46.46,0,0,1,.36.19A.36.36,0,0,1,35.66,32.44ZM44.82,32a.15.15,0,0,1,0-.09.05.05,0,0,1,0,0,.43.43,0,0,1,.06.42Zm-.65-3.87c0,.05-.09.05-.12,0A.26.26,0,0,1,44,28l0-.25.1.33S44.18,28.12,44.17,28.14Zm1.21,10.15a.2.2,0,0,1-.05-.27.78.78,0,0,1,.17.26.15.15,0,0,1-.13,0ZM42.27,27.48a.51.51,0,0,1-.11-.35A.25.25,0,0,1,42.27,27.48ZM43,35.24a1.38,1.38,0,0,1-.27-.27A.24.24,0,0,1,43,35.24Zm-.75-6.89s.07,0,.1,0a.15.15,0,0,1,0,.11l0,.3a.59.59,0,0,1-.18-.36Zm-.37,2.52.07.32a.43.43,0,0,1-.17-.33c0-.05.08,0,.11,0ZM18,43.43a.74.74,0,0,1-.51,0A.74.74,0,0,1,18,43.43Zm24.56-10.1a.5.5,0,0,1,.2.29s0,.07,0,.07A.49.49,0,0,1,42.51,33.33Zm-5.79-4.69.07.08c-.14,0-.31-.12-.26-.26l.19.18Zm7.12-1.26a.22.22,0,0,1,0-.18.27.27,0,0,1,.08.36l-.09-.19Zm17.72,1.19.19-.18a.45.45,0,0,1-.17.34.3.3,0,0,1,0-.16ZM44,35.59a.49.49,0,0,1-.21-.37A.44.44,0,0,1,44,35.59Zm-1.71-4.82a.48.48,0,0,1,.11.35A.25.25,0,0,1,42.33,30.77Zm-11-1.05a.42.42,0,0,1,.37.21A.45.45,0,0,1,31.33,29.72ZM31,29.51a.42.42,0,0,1,.37.21A.46.46,0,0,1,31,29.51Zm10-.64a.59.59,0,0,1,.12.2.15.15,0,0,1,0,.16A.47.47,0,0,1,41,28.87ZM16.92,43.13l-.11-.05a.66.66,0,0,1,.44,0,.58.58,0,0,1-.32,0ZM63.17,28.39a.34.34,0,0,1,0-.2c0-.06.13-.1.18-.05l-.19.26Zm-3.57-.17a.18.18,0,0,1,.14-.17,1.54,1.54,0,0,1-.1.35.19.19,0,0,1,0-.18Zm.49-1.12a.21.21,0,0,1-.1.24.16.16,0,0,1,.1-.26Zm-43.65,16a.62.62,0,0,1,.33,0,.61.61,0,0,1-.44,0l.1-.06ZM62.19,30a.24.24,0,0,1-.11.27.19.19,0,0,1,.11-.28ZM54,22.25a.3.3,0,0,1,.1-.36A.56.56,0,0,1,54,22.25ZM36,31.72a.31.31,0,0,1,.21.14.29.29,0,0,1-.25-.07.08.08,0,0,1,0-.08s.06,0,.06,0ZM58.63,31a.92.92,0,0,1,.17-.29c.05,0,0,.09,0,.14s-.1.18-.18.14Zm-17,2.87a.13.13,0,0,1,.09.18.21.21,0,0,1-.17-.09s0-.15.09-.1Zm0-4.72a.33.33,0,0,1,0,.24.7.7,0,0,1-.09-.35l.12.1Zm5.54,10c-.06,0-.14.05-.12.11a.1.1,0,1,0,.12-.11Zm11-7.35.12-.27.11.11a1.12,1.12,0,0,1-.2.18Zm-12.5,2a.19.19,0,0,1-.08-.27.2.2,0,0,1,.08.28ZM42,35.23a.25.25,0,0,1-.19-.28.41.41,0,0,1,.2.28ZM42.93,33a.14.14,0,0,0,.06.14s-.06,0-.09,0a.24.24,0,0,1-.09-.26l.12.1Zm18.76-6.67L61.9,26a.26.26,0,0,1,0,.21A.16.16,0,0,1,61.69,26.29ZM22.58,42.56a.74.74,0,0,1,.33,0,.36.36,0,0,1-.35,0Zm20-13.4a.19.19,0,0,1-.11-.28.7.7,0,0,1,.12.28Zm.2,4.71,0-.1a.19.19,0,0,1,.08.28l-.09-.19ZM31.76,29a.23.23,0,0,1,.28.11.32.32,0,0,1-.29-.11Zm5.31,2.28c.06,0,.09.09,0,.13a.12.12,0,0,1-.16,0,.11.11,0,0,1,0-.13s.1,0,.11,0ZM38.8,33a.13.13,0,0,1,.19.18L38.81,33ZM21.19,42a.39.39,0,0,1-.26,0,.4.4,0,0,1,.37,0l-.11,0ZM42,35.24c.11,0,.24.1.18.2a.9.9,0,0,1-.19-.2Zm.56-6.08a.21.21,0,0,1,.12.08.08.08,0,1,1-.13.06.2.2,0,0,1,0-.13Zm-6,3a.25.25,0,0,1-.17,0,.1.1,0,0,1,0-.16l.19.2Zm-17,13.41c-.09.09-.24.07-.37,0C19.25,45.5,19.43,45.6,19.56,45.57ZM40.83,33.88a.11.11,0,0,1,0,.17l-.18-.18a.08.08,0,0,1,.14,0Zm2.31.44a.14.14,0,0,1-.12-.21.22.22,0,0,1,.12.21Zm3.29,2.62,0,.1a.2.2,0,0,1-.11-.09.1.1,0,0,1,.07-.12.06.06,0,0,1,0,.1Zm-4.2-5.13a.15.15,0,0,1-.12-.21.22.22,0,0,1,.12.21Zm1.05,2-.14-.2a.06.06,0,0,1,.09,0s.05.06.07.1l0,.1ZM32.53,29.43c-.08,0-.16,0-.21-.1a.13.13,0,0,1,.2.11Zm12.35,2.31a.21.21,0,0,1-.12-.08.09.09,0,0,1,0-.13.1.1,0,0,1,.1.07.34.34,0,0,1,0,.14ZM56.25,20.26a.42.42,0,0,1,0,.25.21.21,0,0,1,0-.28ZM42.09,31.36a.29.29,0,0,1,0,.18l-.1-.19a.08.08,0,0,1,.13,0Zm-9.56-1.92a.19.19,0,0,1,.21.14.2.2,0,0,1-.22-.14Zm7.12,2.09a.14.14,0,0,1-.12-.21.22.22,0,0,1,.12.21Zm2.2,1a.23.23,0,0,1,.14,0s0,.11,0,.12l-.17-.1Zm-2.13-1.26A.14.14,0,0,1,39.6,31a.22.22,0,0,1,.12.21Zm-2.17,1.68a.21.21,0,0,1,.21.11.14.14,0,0,1-.2-.11ZM17.66,43A.3.3,0,0,1,18,43a.3.3,0,0,1-.29,0Zm-.69.5a.21.21,0,0,1,.28,0,.43.43,0,0,1-.25,0ZM37,33.28a.19.19,0,0,1,.22.13.18.18,0,0,1-.22-.13Zm5,1.06c-.05,0,0,.16.11.1S42,34.28,42,34.34Zm-5-.57a.19.19,0,0,1,.22.13.18.18,0,0,1-.22-.13Zm2.73-1c.07,0,.17.05.13.12a.09.09,0,0,1-.11,0,.08.08,0,0,1,0-.11Zm-6.7-2a.18.18,0,0,1,.21.13.19.19,0,0,1-.22-.13Zm5.93,3.83a.2.2,0,0,1,.21.14.19.19,0,0,1-.22-.14Zm.91-3.21a.18.18,0,0,1,.13.21.18.18,0,0,1-.13-.21Zm4.54,5.14,0,.09c-.08,0-.16-.15-.08-.2l.1.1ZM46,37.68l.11.18a.09.09,0,0,1-.13,0,.1.1,0,0,1,0-.13Zm-1.14-6.81c0-.07.09-.14.13-.07s-.1.14-.14.07Zm15.42-1a.26.26,0,0,1,0-.21l.1.1a.28.28,0,0,1-.13.11Zm-6.07-8.38,0,.29a.22.22,0,0,1,0-.3Zm-18.5,8.65c-.08,0-.16,0-.21-.11a.14.14,0,0,1,.2.12Zm4.66,0,0-.1c.08.05.15.16.08.21l-.11-.11ZM35.26,32.7a.17.17,0,0,1-.22-.1.15.15,0,0,1,.2.09Zm5-1.93a.19.19,0,0,1-.13-.22.18.18,0,0,1,.13.21Zm3-5.91.05-.11a.29.29,0,0,1,0,.3.19.19,0,0,1,0-.18Zm.12,10.51-.11-.11a.15.15,0,0,1,.21.09l-.1,0ZM54,22.25l0,.29a.22.22,0,0,1,0-.3Zm7.18,6a.19.19,0,0,1-.14.21.19.19,0,0,1,.14-.21ZM38.67,31.74a.16.16,0,0,1-.12-.21.22.22,0,0,1,.12.21Zm21.85-1a.22.22,0,0,1,0-.16.08.08,0,0,1,.13,0l-.11.2ZM43.48,34a.1.1,0,0,1,.05.16c-.05,0-.1-.06-.11-.11s0-.11.08-.08Zm.21.45a.36.36,0,0,1-.14-.11.08.08,0,0,1,.12,0,.08.08,0,0,1,0,.11Zm-.15-8.64s.09,0,.09.07,0,.08,0,.12a.18.18,0,0,1,0-.17ZM23.73,42.57a.13.13,0,0,1-.21,0,.29.29,0,0,1,.18,0ZM43.42,25.63a.21.21,0,0,1,0-.17.13.13,0,0,1,0,.21ZM35.67,33a.08.08,0,0,1-.12,0,.08.08,0,0,1,0-.12l.11.1Zm7.54,2.56a.09.09,0,0,1,.12,0,.08.08,0,0,1,0,.12.26.26,0,0,1-.11-.14ZM20.42,42a.25.25,0,0,1-.17,0,.12.12,0,0,1,.2,0Zm20.76-7.68a.11.11,0,0,1-.12,0s0-.1,0-.11a.35.35,0,0,1,.11.13Zm19-4.88a.3.3,0,0,1,0-.21.14.14,0,0,1,0,.22Zm-5.45.45a.29.29,0,0,1,0,.18.13.13,0,0,1,0-.21ZM44.33,31.57l0,.1-.11-.1a.08.08,0,0,1,.14,0Zm-3.07,3.74a.08.08,0,0,1,.12,0,.09.09,0,0,1,0,.11.26.26,0,0,1-.11-.14Zm17.65-5a.25.25,0,0,1,0,.17.12.12,0,0,1,0-.2Zm-25,1a.09.09,0,0,1,.12,0,.07.07,0,0,1,0,.11.28.28,0,0,1-.11-.13Zm4.88-.71a.12.12,0,0,1-.13,0,.08.08,0,0,1,0-.11.28.28,0,0,1,.11.13Zm-5.65.23a.08.08,0,0,1,.12,0,.07.07,0,0,1,0,.11.28.28,0,0,1-.11-.13ZM19.21,45.63c0,.09-.15.08-.23,0a.42.42,0,0,1,.22,0ZM41.46,33.34a.21.21,0,0,1,.14.15.2.2,0,0,1-.11,0,.08.08,0,0,1,0-.12Zm.7-6.2c-.09,0-.08-.15,0-.22a.37.37,0,0,1,0,.21Zm3.07,9.52c0,.07.1.14.14.07S45.27,36.59,45.23,36.66Zm6.63,3.19c-.09,0-.08-.15,0-.23a.41.41,0,0,1,0,.22Zm-8.66-4a.37.37,0,0,1-.13-.12.09.09,0,0,1,.11,0,.08.08,0,0,1,0,.12Zm1.68-4.14a.33.33,0,0,1,.14.12.17.17,0,0,1-.14,0v-.14Zm-5.1-1.8a.28.28,0,0,1-.13-.11.09.09,0,0,1,.11,0,.08.08,0,0,1,0,.12Zm2.1,3.91a.2.2,0,0,1-.14-.14c.07,0,.17.06.13.13Zm-4.25-4.32a.09.09,0,0,1,.12,0,.11.11,0,0,1,0,.12.3.3,0,0,1-.11-.14Zm4,6.21a.41.41,0,0,1-.14-.12.1.1,0,0,1,.12,0,.09.09,0,0,1,0,.12Zm3.42-4.19a.17.17,0,0,1,.13.1c0,.06-.16,0-.13-.07Zm-5.86.75a.21.21,0,0,1,.14.15.14.14,0,0,1-.11,0,.08.08,0,0,1,0-.12Zm.14.14a.53.53,0,0,1,.14.12.09.09,0,0,1-.12,0,.08.08,0,0,1,0-.11Zm-.84-4.8a.26.26,0,0,1-.14-.11.08.08,0,0,1,.12,0,.08.08,0,0,1,0,.11Zm-6.14,3.42a.1.1,0,0,1,.14.06c-.06,0-.15,0-.14-.07Zm0,0a.12.12,0,0,1-.13,0s0-.1,0-.11a.28.28,0,0,1,.11.13Zm6.84,1.26c-.07,0-.09-.1,0-.14a.12.12,0,0,1,0,.14Zm6.35,6.14c0-.06.1-.09.14,0a.17.17,0,0,1-.14,0ZM56.25,20.05l0-.11s.06.06,0,.09-.06.06-.07,0ZM45,36l0,.1a.1.1,0,0,1,0-.09s.06,0,.07,0Zm.65-3.11a.08.08,0,0,1,0,.14.1.1,0,0,1,0-.14ZM55.84,22.08s.06,0,.07,0,0,.06,0,.09a.1.1,0,0,1,0-.1Zm-16.93,13a.1.1,0,0,1,0-.14.08.08,0,0,1,0,.14ZM31.83,30c-.06,0-.15,0-.14-.06a.11.11,0,0,1,.15.06Zm26.72.77,0-.14c.07,0,.05.15,0,.15Zm-14-1.08s.07,0,.07,0a.12.12,0,0,1,0,.1.09.09,0,0,1,0-.11Zm-13-.8a.17.17,0,0,1,.14,0,.08.08,0,0,1-.14,0Zm0,0-.14,0c0-.07.14-.05.14,0Zm7.4,5.64c-.06,0-.15,0-.14-.06a.11.11,0,0,1,.15.06ZM54.71,20.29l0-.14c.07,0,0,.15,0,.15Zm-10.42,8.1a.1.1,0,0,1,0,.14.08.08,0,0,1,0-.14Zm-9.46,3.49c-.06,0-.15,0-.14-.06a.11.11,0,0,1,.15.06Zm-4-2.43a.1.1,0,0,1,.14.05c-.06,0-.16,0-.15-.06Zm3.83,2.37-.14,0c0-.07.14-.05.15,0Zm5.1-1.9c.06,0,.09.12,0,.15a.13.13,0,0,1,0-.14Zm-6.16.14a.07.07,0,0,1,0,.08.06.06,0,0,1-.08-.05l.1,0Zm20.92.5a.09.09,0,0,1,0,.13.07.07,0,0,1,0-.13Zm-10.78,6a.13.13,0,0,1,.13,0,.08.08,0,0,1-.14,0ZM22.13,41.9a.08.08,0,0,1,.14,0,.1.1,0,0,1-.14,0ZM43.7,34.45a.11.11,0,0,1,.06.15c-.06,0-.07-.08-.06-.13Zm-23,12.3c0,.06-.1.08-.14,0a.12.12,0,0,1,.14,0ZM41.05,27.66l0,.11s0-.06,0-.09.06-.06.07,0Zm-.11,5.41a.09.09,0,0,1,.1,0,.09.09,0,0,1-.09,0s-.05-.07,0-.07Zm-5.27-2.93a.12.12,0,0,1,.14,0c0,.06-.14,0-.15,0ZM20.38,46.85a.08.08,0,0,1-.14,0,.08.08,0,0,1,.14,0ZM43.14,35.44c-.07,0-.08-.08-.07-.14a.09.09,0,0,1,.06.13ZM19.83,42A.08.08,0,0,1,20,42a.1.1,0,0,1-.14,0Zm17-8.82a.09.09,0,0,1,.14.05c-.06,0-.16,0-.15-.06Zm10.43,3.69a.08.08,0,0,1,0-.14.1.1,0,0,1,0,.14Zm-9.38-5.13,0,.11s0-.06,0-.1.06-.05.07,0Zm3.62-1.86a.08.08,0,0,1,0,.15.18.18,0,0,1,0-.14Zm0,0c-.07,0-.09-.1,0-.14a.17.17,0,0,1,0,.14Zm10.33,9.9a.08.08,0,0,1,0,.15.17.17,0,0,1,0-.14ZM42.75,28.88a.1.1,0,0,1,0-.14.08.08,0,0,1,0,.14Zm-1.08,4.67a.1.1,0,0,1,.06.14s-.07-.07,0-.13Zm7.18,1.78,0-.1a.1.1,0,0,1,0,.09s-.06,0-.07,0ZM42.44,27.9c-.07,0-.09-.1,0-.14a.14.14,0,0,1,0,.14Zm0,3.21a.08.08,0,0,1,0,.14.14.14,0,0,1,0-.14Zm-5,2.44c-.06,0-.14,0-.14-.06a.11.11,0,0,1,.15.06Zm-.07-1.87a.14.14,0,0,1,.14,0,.08.08,0,0,1-.14,0Zm5.51-8.28,0-.11s.06.06,0,.09-.06.06-.07,0ZM37.27,34c-.06,0-.14,0-.14-.06a.11.11,0,0,1,.15.06Zm.13-1.17-.07-.07a.05.05,0,0,1,.08.06Zm.07.07-.07-.07a.05.05,0,0,1,.08.06Zm-.26.55a.05.05,0,0,1,0,.08l-.07-.07Zm5.3-5.2s.06,0,.07,0a.09.09,0,0,1,0,.09.09.09,0,0,1,0-.1Zm-5,4.72-.07-.07a.05.05,0,0,1,.08.06Zm4.4-6.26,0-.11s.05.06,0,.09-.06.06-.07,0Zm-5,3.33-.07-.07a.05.05,0,0,1,.08,0Zm10.41,7.05h.07s0,0-.06,0Zm-9.7-7.56s-.08,0,0-.05.07,0,0,.05Zm-.83.36a.06.06,0,0,1,.06.08l-.08-.07Zm.9.9s-.08,0,0-.05.07,0,0,.05Zm-.92-.89-.07-.07a.05.05,0,0,1,.08.05Zm-.07-.07-.07-.07a.05.05,0,0,1,.08.05Zm.23.2a0,0,0,0,0,0,.05S37,30,36.93,30Zm.41,1.67s-.08,0-.05-.05.07,0,.05.05Zm-1.2-2.36-.06-.07s.09,0,.08.06Zm-.07-.07L36,29.17s.09,0,.08.06Zm1.63,5a0,0,0,0,0,0,.05S37.72,34.24,37.7,34.26Zm0-3.49a0,0,0,0,0,0,.05S37.72,30.75,37.7,30.77Zm-.85,2.43s-.07,0-.05-.05a0,0,0,0,1,.05.05Zm-.21-3.49s-.07,0,0-.05.08,0,0,.05ZM36,29.16s-.07,0,0-.05.08,0,0,0Zm-.9.6s-.08,0-.07,0h.07ZM38.05,34s0,.07,0,.05S38.07,34,38.05,34Zm.33-1.41s-.07,0,0,0,.07,0,0,0Zm.28.28s-.07,0,0-.05.07,0,.05.05Zm-.26-.26s0,.07,0,0S38.42,32.56,38.4,32.59Zm.27-.85s.08.05.06.08l-.07-.06Zm0,3.15s0,.07,0,0S38.7,34.87,38.68,34.89Zm0-2s0,.07,0,0S38.7,32.84,38.68,32.87ZM34.19,29.1,34.12,29a.06.06,0,0,1,.08.06Zm.08,2.45h.07s-.05.05-.06,0ZM34.12,29,34.05,29a.06.06,0,0,1,.08.06Zm12.23,9.35s0,.07,0,0S46.38,38.35,46.35,38.38ZM34.21,29.1s0,.07,0,0S34.23,29.07,34.21,29.1Zm12.13,9.27s-.07,0-.05,0,.08,0,.05,0Zm-12.42-7s-.08,0-.05-.05.07,0,.05.05Zm.15.71s0,.07,0,0S34.09,32,34.07,32Zm11.51,1.26h.07s-.06.05-.07,0ZM34.06,29s-.08,0-.05-.05.07,0,.05,0Zm4.76,1.68s0,.07,0,.05S38.84,30.61,38.82,30.63Zm-6.19-.14s0,.06,0,.06,0-.06,0-.06Zm6.12,1.33s0,.07,0,0S38.77,31.79,38.75,31.82Zm.27-.91s.08,0,.06.07L39,30.92Zm0-3.67s-.07,0-.06,0H39Zm.35,3.56s-.07,0-.06,0h.07Zm-.35.1s-.07,0,0,0,.08,0,0,0Zm6.08,5.6h.07s-.06.05-.07,0ZM32.94,30.69a0,0,0,0,1,0-.05s.08,0,0,.05Zm6.83,4.07-.06-.08s.09,0,.07.06Zm5.61,3.13s0,.07,0,0S45.4,37.87,45.38,37.89Zm-5.66-6.64s.08.05.06.08l-.08-.06ZM39.1,31s0,.07,0,.05S39.12,31,39.1,31Zm19.18.77s0,.07-.05.05,0-.08,0-.05Zm-18.64,1s-.07,0,0-.05.08,0,0,.05Zm19.09-2.58s0-.06,0-.06,0,.06,0,.06ZM44,37h.07s0,0-.06,0ZM31.75,29s-.07,0,0-.05.07,0,.05,0Zm28.63,1.92s.06,0,.06,0-.06,0-.06,0ZM39.79,32.87s0,.07.05,0S39.82,32.84,39.79,32.87Zm0,1.88s0,.07.05,0A0,0,0,0,0,39.79,34.75Zm.34-4.2s-.07,0-.05-.05a0,0,0,0,1,.05.05Zm.32-2.37s0-.06,0-.06,0,.06,0,.06Zm20.06,2.59s0,.07,0,.05,0-.08,0-.05Zm0-1.39s0,.07,0,0,0-.07,0-.05ZM43.77,34.61s0,.07,0,0A0,0,0,0,0,43.77,34.61ZM24.86,45.34s0-.07.05,0,0,.07-.05.05Zm18.9-8.79s-.08,0,0,0a0,0,0,0,1,0,0Zm-3.14-5.89s-.07,0-.06,0h.06Zm20.53-2.41s0-.08.05-.05,0,.07-.05.05Zm.27-1.39s0,.08-.05.05,0-.07,0-.05ZM22.27,42.59s.06,0,.06,0-.06,0-.06,0ZM41,28.88s-.08,0,0-.05.07,0,0,0Zm20.46-2s0-.07,0-.05,0,.08,0,.05ZM41.24,35.31l-.07-.07a.06.06,0,0,1,.08.06Zm0-.9-.07-.08a.06.06,0,0,1,.08.06Zm21.84-6,.09-.06-.05.09ZM61.7,26.3s0,.08-.05.05,0-.07,0-.05Zm-18.56,8s.08,0,.06.08l-.08-.06Zm0,1.12s.08.05.06.08l-.08-.07ZM43.2,30s-.07,0-.06,0h.07Zm-2,4.43a.06.06,0,0,1,.06.08l-.07-.06ZM20,46.92s.06,0,.06,0-.06,0-.06,0ZM43.21,35.87s0,.07,0,0S43.24,35.84,43.21,35.87ZM41.6,33.49a.06.06,0,0,1,.06.08l-.07-.07Zm.07,2.23a.06.06,0,0,1,.06.08l-.07-.07ZM18.29,43s-.06,0-.06,0,.05,0,.06,0Zm-1,.49s.06,0,.06,0-.06,0-.06,0Zm24-9s0,.07,0,.05S41.35,34.45,41.33,34.47Zm.55-.63a.06.06,0,0,1,.06.08l-.07-.07Zm.56-.56a.06.06,0,0,1,.06.08l-.07-.07Zm21.07-4.39s0,.07,0,0,0-.07,0-.05ZM41.94,34.32s-.07,0,0,0,.07,0,.05,0Zm1.06.91s.08.05.06.08L43,35.25Zm-.22-.7s-.07,0-.05-.05.08,0,.05.05Zm-.33-6.62s0,.07,0,.05S42.47,27.89,42.45,27.91Zm-.3,4.94s-.07,0,0-.05.08,0,0,.05Zm14,10.87a.47.47,0,0,1,.43,0,7,7,0,0,1,1.07.51.19.19,0,0,1-.19,0Zm-1.57-.28a.61.61,0,0,1,.51,0,.26.26,0,0,1,.23,0l.73.14a3,3,0,0,1-1.2,0c-.06,0-.12,0-.19.07s-.16,0-.17,0S54.49,43.46,54.53,43.44ZM55,42.2c0-.06.1-.08.14-.13s0-.12.1-.17a.17.17,0,0,1,.2,0l-.8,1a.41.41,0,0,0-.1-.13A3.23,3.23,0,0,0,55,42.2Zm2-2c.07,0,0,.16-.09.2a3.82,3.82,0,0,0-.9.75c-.08,0,0-.16.05-.22A7.39,7.39,0,0,1,57,40.2Zm-2.28.89a.44.44,0,0,1-.1.26l-.56.79c-.07,0,0-.14,0-.21l.41-.61A.57.57,0,0,1,54.72,41.09Zm1.85,6.56a2.48,2.48,0,0,1,.65.52l.15.15c0,.06-.14,0-.2,0A2.33,2.33,0,0,1,56.57,47.65Zm-5,1.24.11.57a.34.34,0,0,1,0,.28A1.64,1.64,0,0,1,51.54,48.89ZM51.82,51l-.16-.85c0-.06,0-.14,0-.16A1.77,1.77,0,0,1,51.82,51ZM49,52.63a1.59,1.59,0,0,1,.07-.65.51.51,0,0,1,.1-.21,2.8,2.8,0,0,1-.17.86Zm1-1.85a2.29,2.29,0,0,1,0,.64.17.17,0,0,1-.12.14Zm3.32,1a3.11,3.11,0,0,1,.26.59s0,.1,0,.12A1.3,1.3,0,0,1,53.33,51.82ZM45.17,50c0,.18-.2.3-.35.41A.56.56,0,0,1,45.17,50Zm10.34-2.39c-.1.06-.21,0-.27-.15s-.05-.08,0-.11A.59.59,0,0,1,55.51,47.57Zm-6.63,5.6a.64.64,0,0,1,.1-.5A.67.67,0,0,1,48.88,53.17Zm6.24-14a3,3,0,0,1,.76-.8,2.39,2.39,0,0,1,.34-.21,1.48,1.48,0,0,1,.83-.12l-.17,0c-.15,0-.29.09-.43.15a3.3,3.3,0,0,0-1.34,1.12S55.09,39.24,55.12,39.18Zm.42,2.51,0,0s-.08,0-.08-.08a.25.25,0,0,1,.08-.12l.25-.23c0,.07,0,.15,0,.21Zm-3.61,9.84a.17.17,0,0,1,0-.25,1.07,1.07,0,0,1,.16.25.08.08,0,0,1-.13,0Zm6.35-5.69a.22.22,0,0,1,.21.11.15.15,0,0,1-.21-.11Zm-3.11,2.23.11.11A.13.13,0,0,1,55.1,48l.07.07Zm3-3.34c.05,0,.11,0,.15,0a.08.08,0,0,1,0,.13l-.19-.12Zm-3.41-3.62s0-.08,0-.11a5.37,5.37,0,0,1,.57-.78l.3-.26a3.3,3.3,0,0,1,1.26-.62.2.2,0,0,1,.15,0s.08.1,0,.13,0,0-.08,0a2.24,2.24,0,0,0-1.05.39,5.15,5.15,0,0,0-.67.65l-.53.58Zm.82,6.55a.14.14,0,0,1,.11.2.19.19,0,0,1-.11-.21ZM49.8,52.75a.17.17,0,0,1,0,.21.17.17,0,0,1,0-.21Zm.14-.7a.17.17,0,0,1,0-.21.17.17,0,0,1,0,.21Zm-.25,1.22,0-.11a.18.18,0,0,1,0,.22.09.09,0,0,1,0-.11Zm0,.52a.13.13,0,0,1,0-.21.23.23,0,0,1,0,.18Zm6.18-5.71-.11,0a.21.21,0,0,1,.17,0s.07.12,0,.14l-.07-.07Zm-.11-6.8.09-.06-.06.09Zm-.27,6.3s.08.05.06.08l-.07-.06Zm1.1.09-.07-.08a.06.06,0,0,1,.08.06Zm-6.75,4.9s.06,0,.06,0-.06,0-.06,0Zm.24-1.91s0,.06,0,.06,0-.06,0-.06Zm-18-8.86c0,.07-.14.07-.22.05s.13-.07.21-.05Zm14.08,8.44s0,.08-.05,0a0,0,0,0,1,.05,0Zm12-5.52s-.07,0,0,0,.07,0,0,0Zm-2.29-3.49s0-.08,0,0,0,.07,0,0Zm2.43,4.6s-.07,0,0,0,.07,0,.05,0Zm-4.6-2.22s0,.08-.05,0,0-.07.05,0ZM22.89,30.93c-3.77-3.46-7.51-8-6.89-13a17.79,17.79,0,0,1,2.84-6.74c.41-.68,1.37-.74,2.17-.72,4.64.13,9.37.3,13.78,1.76s8.56,4.4,10.39,8.67c0-5.24,3-10.17,7-13.58S61,1.77,66,.07a30.36,30.36,0,0,1,8.06,14.09c4.83-1.41,10-2.82,14.83-1.56,1.19.31,2.48.92,2.81,2.1-3.2-2.65-7.87-2.3-12-1.48a75.67,75.67,0,0,0-10.82,3.06,19.57,19.57,0,0,0-6.67,3.62c-4.85,4.43-4.9,11.92-7.28,18,1.19-7.42,2.87-15.65,9-20,2.82-2,6.25-2.86,9.6-3.7A32.16,32.16,0,0,0,65.88.63c-6,2.31-12.26,4.85-16.18,9.92C46,15.37,45,21.86,45.81,27.89s3.26,11.69,5.86,17.19l-1.33-5.75c-1.48-6.39-3-12.94-2.25-19.46a55.88,55.88,0,0,0,3,19.19,52.25,52.25,0,0,1-1.16-18.81,57.42,57.42,0,0,0,1.44,19.5L49.93,29l1.4,8.6a47.57,47.57,0,0,1,.29-17.36,44.24,44.24,0,0,0-.33,15.14,50.74,50.74,0,0,1,.25-7.08A61.79,61.79,0,0,0,51.87,41,60.77,60.77,0,0,0,52,32l.18,1.88a50.37,50.37,0,0,1,1.4-10.3,72.94,72.94,0,0,0-1.36,14.14l.67-6.11-.63,9.5c.24-2.64.59-5.26,1.07-7.87l-.65,5.52,3.09-16.23q-1.19,7.29-2.38,14.58a64.51,64.51,0,0,0,3.26-7.66,74.57,74.57,0,0,0-2.81,11.1c2.63-3.14,3.4-7.37,4.47-11.33s2.77-8.14,6.37-10.1A24.32,24.32,0,0,0,57.92,33c-.14-.45.81-.32.76.15s-.54.72-.93,1-.67.88-.3,1.17l1.85-4.94-1.77,5.34L60,29.84l-2.19,5.93,2.31-4.49L58.53,35.5a21.49,21.49,0,0,0,3.3-5l-2.32,4.53,3-4.81-2.45,5,6.24-8.51L60.83,35a13.54,13.54,0,0,1,3.57,1,14.2,14.2,0,0,1,4-4.14,21.47,21.47,0,0,0-3.89,4.19,9,9,0,0,1,1.34,10C72,44.53,77.23,40.41,81.24,35.53S88.17,25,91.06,19.35c.74-1.43,1.34-3.76.36-5,1.45.67,1.07,3.33.36,4.76-2.7,5.38-5.42,10.8-9.1,15.56s-8.4,8.9-14.08,10.91c-2.09.73-3.42,2.79-4.27,4.84S63,54.65,61.71,56.49a9.27,9.27,0,0,1-9.79,3.66h0A41.72,41.72,0,0,0,40,62.87a2.1,2.1,0,0,1-2.5-1.21,4.83,4.83,0,0,1-.15-3A15.19,15.19,0,0,1,48.43,47.12c.9-.21,2-.45,2.34-1.3l-1-1.4.49,1.22c-2.36-3.83-7.39-5.29-11.86-4.75s-8.55,2.7-12.58,4.69q-8.7,4.31-17.75,7.82a114.34,114.34,0,0,1,37.34-5.2c-9.19.49-19.21,1-28.15,3.22-4.87,1.2-9.9,2.91-14.79,1.78-1.25-.29-2.7-1.15-2.5-2.41a2.7,2.7,0,0,1,1-1.47A37.67,37.67,0,0,1,9.94,43.5c7.94-3.94,21-6.41,29.16-2.89-11.89-2.78-28.68.7-37.51,9.14a2.79,2.79,0,0,0-1,1.72,11,11,0,0,0,7.78,1.06,33,33,0,0,0,7.51-2.8l16.09-7.56a43.63,43.63,0,0,1-12.37,3.39,46.61,46.61,0,0,0,10.5-2.84L20.3,45l8.9-2.33-9.34.61,10-1-3.67-.24,4.26-.28-2.34-.32A11.87,11.87,0,0,0,33,41.16l-9.61-.22,15.7-.33c2.76-.06,5.73,0,8,1.55C38.65,35,27.69,31.36,19.38,24.09L47.49,41.31,43,38l2,1.19L39.14,34.6l7.25,5.08a9,9,0,0,0-2.33-2.27l1.25,1.34a11.62,11.62,0,0,1-2.51-2.39L46.2,39a14.91,14.91,0,0,0-1.81-2.89l4.52,5.46L46.43,36.1l2.41,4.61A44.37,44.37,0,0,1,45.29,24.9C45.09,19.53,40.71,15,35.72,13s-10.52-2-15.9-2c-2.06,2.65-3.65,5.9-3.31,9.24S19,26.4,21.36,28.8A56.32,56.32,0,0,0,39.1,40.61c-5.77-1.5-11.81-5.65-16.21-9.68m.36,0s.06.08.06,0a.47.47,0,0,1-.1-.1s0,.08,0,.06m21.21,7.68s.07.08.07,0a.19.19,0,0,1-.1-.1s0,.08,0,.07m1.68,1.47s.06.07.07,0a.27.27,0,0,1-.11-.1s0,.08,0,.06m0-9.55s.06.07.07,0a.27.27,0,0,1-.11-.1s0,.08,0,.06M51.37,40c-.06,0-.09.09,0,.13a.42.42,0,0,0,.1-.28.1.1,0,0,0,0,.14M24.29,31.81c0,.07.12.09.14,0a.23.23,0,0,1-.17-.08c-.05,0,0,.07,0,.06m27.5,10.26a.25.25,0,0,0,0-.22.38.38,0,0,0,.09.35c.05,0,0-.13,0-.13M30.63,31.19a.14.14,0,0,0,.23,0,.39.39,0,0,1-.26-.07s0,.06,0,.05m-11-3.9a.11.11,0,0,0,0,.12.08.08,0,0,0,.12,0,1,1,0,0,1-.18-.17s0,.08,0,.06m.84.84c0,.09.09.17.18.2s0-.13,0-.16-.14,0-.17-.11,0,.09,0,.07m31,12.51a.42.42,0,0,0,0,.15s0,.11.09.11a.07.07,0,0,0,.07-.1.71.71,0,0,1-.16-.39.15.15,0,0,0,0,.23M18,25s0,.07,0,.08.07,0,.1,0a.46.46,0,0,0-.21-.35L18,25m15.5,16.48a.5.5,0,0,0,.42-.18.31.31,0,0,0-.42.18m12.92-2.22s0,.12.08.13.13,0,.2,0,.21.26.34.2a.72.72,0,0,0-.55-.35.1.1,0,0,0-.07,0m6.64,2,.15-.77a1.11,1.11,0,0,0,0-.44.3.3,0,0,0-.1.17,3.33,3.33,0,0,0-.08,1m.91-4a.7.7,0,0,0-.09.24l-.21.84a2.61,2.61,0,0,0-.12.83L54,37.39s0-.13,0-.14m-6.33,3.34c.05,0,0-.14-.06-.19l-.86-.78a.22.22,0,0,0-.13-.06c-.05,0-.07.09,0,.11a4.15,4.15,0,0,1,.59.52,1.15,1.15,0,0,0,.48.4m6.17,3.13a.3.3,0,0,0-.15-.12,3.51,3.51,0,0,0,0-.56.72.72,0,0,0-.15.43,2.13,2.13,0,0,1-.13.43l-.19.53c.15,0,.21-.21.28-.35a.87.87,0,0,1,.35-.36m-8.38-4.34.52.35.93.61s.1.06.15,0c-.13-.27-.49-.32-.71-.51a7.71,7.71,0,0,0-1.1-.8c0,.13.11.24.21.32M32.11,41.64l-.89.12-.46.06L29.71,42a5.56,5.56,0,0,0,1.95-.13.33.33,0,0,1,.19.06.56.56,0,0,0,.36,0,2.16,2.16,0,0,0,.69-.27,1.43,1.43,0,0,0-.85.22.3.3,0,0,1,.06-.18m22.65-7a3.27,3.27,0,0,0-.56,1L53.64,37a5.2,5.2,0,0,0-.29.78,7.09,7.09,0,0,0-.14,1l-.09,1a.36.36,0,0,0,.13-.24l.51-2.32a2.24,2.24,0,0,1,.16-.52,16.68,16.68,0,0,0,.84-2.12M52.33,48.05l1,3.79-1.24-4.09c0-.14-.21-.31-.3-.2l-.13-1.72-.19.71v2.3L51.1,47.1c0,1.88.16,3.77.37,5.64-.28-1.89-.48-3.8-.68-5.7a13.55,13.55,0,0,0-.68,3.51,23,23,0,0,1,.22-3l-1.12,4a35.74,35.74,0,0,1,.93-4,27,27,0,0,1-2.38,3.54l2.34-3.86c-.48-.17-.93.3-1.22.72l-1.69,2.38a14.35,14.35,0,0,1,1.87-2.94,16.13,16.13,0,0,0-2.9,2.82,13.37,13.37,0,0,1,2.41-2.79,7.64,7.64,0,0,0-3.34,2.49,7.38,7.38,0,0,1,1.87-2c-3.59,1-6.35,4-8.09,7.26a10.81,10.81,0,0,0-1.26,3.6,5.32,5.32,0,0,0,.76,3.68c3.46-.47,6.72-2,10.18-2.43s7.37.14,10.59-1.46a3.74,3.74,0,0,0,.94-.62,4.35,4.35,0,0,0,.91-1.44,22.36,22.36,0,0,0,1.66-12.91,8.57,8.57,0,0,0-1.25-3.48,9.74,9.74,0,0,0-4-2.91.36.36,0,0,1-.34.5l.09-1.14a9.16,9.16,0,0,0-3.45,6.9l.69-.35L54,42.94c.68.17,1.29-.4,1.89-.74a3.15,3.15,0,0,1,2.23-.32,5.72,5.72,0,0,0-4.49,2.37,4.89,4.89,0,0,1,4.17,1.27,8.17,8.17,0,0,0-2.57-1.12,2.29,2.29,0,0,0-1.16,0,1,1,0,0,0-.75.8,13.25,13.25,0,0,1,3.27,2.43,14.19,14.19,0,0,1-1.63-1.29,4.63,4.63,0,0,0-1.9-.83l2.2,1.75L53.42,46a8.32,8.32,0,0,1,1.34,1.68,16.16,16.16,0,0,0-1.92-2c-.21.22-.09.57,0,.84L54.42,50a26.88,26.88,0,0,1-1.82-3.69c-.53.36-.43,1.16-.27,1.79m5.56-11.7c-.23.11-.49.37-.34.57A10,10,0,0,1,61.33,39a7.92,7.92,0,0,1,1.8,3.78,19.55,19.55,0,0,1-.45,10.48,37.52,37.52,0,0,0,2.21-5.55l.51-1.5c.21-.63.42-1.26.57-1.9a10.41,10.41,0,0,0,.12-4.16,6.28,6.28,0,0,0-.86-2.35,5.05,5.05,0,0,0-3.37-2.12,6.67,6.67,0,0,0-4,.63M54.67,36c0-.07-.11,0-.13.05a34.47,34.47,0,0,0-1.29,5.49,4.14,4.14,0,0,0,0,1.11,9.87,9.87,0,0,0,.66-3.11A18.72,18.72,0,0,1,54.67,36m-2.08,6.29a5.14,5.14,0,0,0,.31-1.5,49.43,49.43,0,0,1,.76-6.06c0-.06-.1,0-.12.07-.18.93-.31,1.86-.45,2.8l-.29,1.92a13.56,13.56,0,0,0-.21,2.77M6,53.11A13.34,13.34,0,0,1,4.14,53l-.65-.1c-.05,0-.12,0-.13,0s0,.07.08.09a2.38,2.38,0,0,0,.74.15,3.47,3.47,0,0,1,.72,0A1.9,1.9,0,0,0,6,53.11m41.13-12a8.31,8.31,0,0,0,1.23,1.14c.06,0,.17.08.2,0L47.15,41c-.06,0,0,.09,0,.13M6.35,53.21a5.15,5.15,0,0,1,1.24,0h.12a.08.08,0,0,0,0-.1C7.69,53,7.57,53,7.48,53l-1,.06s-.11,0-.14.05,0,.12,0,.11M30.1,42.31s0,0,.09,0a4.36,4.36,0,0,0,1.18-.25,10.92,10.92,0,0,0-1.14.08c-.08,0-.19.08-.13.14m22.07,3.95L52,46a3.37,3.37,0,0,0,0,.44c0,.06,0,.14.09.12s0,0,0,0l.32-.48s0-.11-.09-.09-.08.07-.1.13,0,.11-.07.14m.65-4.06a2.45,2.45,0,0,0-.13.81.28.28,0,0,0,0,.18.33.33,0,0,0,.11-.32c0-.23,0-.45,0-.67m-2,2.24.09-.1-.22-.42a.2.2,0,0,0-.08-.1.08.08,0,0,0-.11,0,.14.14,0,0,0,0,.07l.3.51m-4.15-5.3a.11.11,0,0,0-.06-.09.48.48,0,0,0-.23-.07.18.18,0,0,0-.13.06s0,.11.06.1.13,0,.2.06.16,0,.16-.06m8.13-4.08-.16.49c0,.06,0,.13,0,.16a.78.78,0,0,0,.15-.65M47.19,40.8c.05,0,.1,0,.14.06s.13,0,.14,0,0,0,0-.06a.31.31,0,0,0-.32-.07l.07.08m4.32,4.61,0,.11a.31.31,0,0,0,.12-.27.1.1,0,0,0,0-.07s-.12,0-.14.05a.36.36,0,0,0,0,.17M17.07,22.88,17,22.73a.27.27,0,0,0,.16.35.13.13,0,0,0-.08-.19M53.26,44.7a.16.16,0,0,0-.11.23l.24-.24a.07.07,0,0,0-.13,0m-4.83-3.63a.13.13,0,0,0-.19-.08.24.24,0,0,0,.27.16l-.07-.08m-15.13.27a.1.1,0,1,0,.11-.12.1.1,0,0,0-.11.12M52,46.82a.19.19,0,0,0-.1-.14.28.28,0,0,0,0,.28l.08-.14m-37.21-5.3a.19.19,0,0,0-.24.11.26.26,0,0,0,.27-.1m67.95-7.62a.08.08,0,0,0,0,.13.15.15,0,0,0,.08-.21l-.08.08M16.26,19.7a.19.19,0,0,0,0-.18.32.32,0,0,0,0,.3l.05-.11m.13,1.46c0,.07.1.14.13.07s-.1-.14-.13-.07m11.2,13.22-.08-.07a.15.15,0,0,0,.08.21.1.1,0,0,0,0-.14M47,40.89a.16.16,0,0,0-.09-.14c-.07,0,0,.16.07.13m5.72,3.28-.07-.07s0,.12,0,.14.12,0,.08-.08M31,31.6s0-.06,0-.07a.1.1,0,0,0-.1,0,.11.11,0,0,0,.11,0m-2.8-1.74s0-.07,0-.08a.18.18,0,0,0-.09,0,.08.08,0,0,0,.1,0m-.13,5s0,.07,0,.08a.18.18,0,0,0,.09,0,.08.08,0,0,0-.1,0M54,37.15l0-.1c-.07,0,0,.14,0,.12m-2.69,8.52s0,0,0-.06,0,.06,0,.06m-.42-.9s0-.06,0-.06,0,.06,0,.06m-1.45-1.74V43s0,.05,0,.06M48.36,28.29a0,0,0,0,0,0,0s0,0,.06,0m3.89,12.94v-.06s0,0,0,.06m.63.84s0,.08,0,.07v-.07m.15.73s-.06,0-.06,0,.06,0,.06,0M36.37,34.5s.06,0,.06,0-.06,0-.06,0M35,40.43s-.06,0-.06,0,.05,0,.06,0M54.93,35s-.06,0-.06,0,.05,0,.06,0M46.05,17.78v-.06s0,.05,0,.06M32.32,37.57s.06,0,.06,0-.06,0-.06,0M58.56,25.22s.06,0,.06,0,0,0-.06,0M39.82,48.49s0-.06,0-.06,0,0,0,.06m-8.55-17s-.06,0-.06,0,.06,0,.06,0m-.34,5.16s.06,0,.06,0-.06,0-.06,0m-1.35-.87v-.07s0,.06,0,.06m-1.84-6s.05,0,.06,0-.06,0-.06,0m-1.4,3.63s.06,0,.06,0-.06,0-.06,0m-.21-4.75s.06,0,.06,0-.06,0-.06,0m-.32-.24s0,.07,0,.06v-.07m-5.67-.69s0,.06,0,.06,0-.06,0-.06m-1.89-2.38s0-.06,0-.06,0,.05,0,.06M66,0S66,0,66,0,66,.05,66,0m7.26,11.73s-.06,0-.06,0,.06,0,.06,0M14.21,41.8s0,.05,0,.06,0-.06,0-.06m-4,1.7s-.06,0-.06,0,.06,0,.06,0Z"/></g></g></svg>