<svg xmlns="http://www.w3.org/2000/svg" xmlns:xlink="http://www.w3.org/1999/xlink" viewBox="0 0 115.67726 95.86687"><defs><radialGradient id="radial-gradient" cx="58.03178" cy="32.52605" r="58.5729" gradientTransform="matrix(-0.86573, 0.5005, -0.25689, -0.44435, 116.62757, 17.934)" gradientUnits="userSpaceOnUse"><stop offset="0.0788" stop-color="#ff4700"/><stop offset="0.08747" stop-color="#ff4b00"/><stop offset="0.18778" stop-color="#ff7502"/><stop offset="0.29343" stop-color="#ff9a04"/><stop offset="0.40357" stop-color="#ffb705"/><stop offset="0.51971" stop-color="#ffce07"/><stop offset="0.64454" stop-color="#ffde07"/><stop offset="0.78421" stop-color="#ffe808"/><stop offset="0.96916" stop-color="#ffeb08"/></radialGradient></defs><title>lily-iso</title><g id="Layer_2" data-name="Layer 2"><g id="lily-iso"><path id="void" d="M115.18694,35.31286a.65538.65538,0,0,0-.05981-.12c-.21021-2.32-2.27-4.58-4.42993-5.53-.27-.12-.58008-.22-.88013-.32a.20509.20509,0,0,0-.11987-.1c-2.08008-.93-4.27-1.6-5.97022-3.15-1.06006-.98-1.7998-2.25-2.93994-3.17a13.05882,13.05882,0,0,0-9.83984-2.96,17.03389,17.03389,0,0,0-9.33008,4.2c0-.05.01-.1.01-.15a1.02981,1.02981,0,0,1-.65015.3c4.01-5.95,9.27-15.37994,4.77-19.58-2.7998-2.61-7.56982-.89-10.6499.15-1.36011.46-2.95,1.65-4.3501,1.72-1.25.06-2.7-.96-3.99-1.5a25.98543,25.98543,0,0,0-5.96-2.68c-2.13989-.78-8.08008-3.12-10.5-2.22-3.84009,1.43-1.61987,8.94-1.05,11.65v.01a35.57249,35.57249,0,0,0,1.07007,4.36,15.22189,15.22189,0,0,0,.61011,2.17c.16992.43.30981.88.46,1.33a18.29054,18.29054,0,0,0,1.04,2.62,7.61389,7.61389,0,0,0,.6499,1.62,2.44,2.44,0,0,0,.1001.24c.02978.09.06982.17.09985.24.06006.14.13989.26.21.39.03.07.06006.14.09009.22.01.03.04.04.07007.05a.63006.63006,0,0,0,.03979.08.108.108,0,0,1-.05981.00995,1.92171,1.92171,0,0,1-.24,0,2.26314,2.26314,0,0,0-1.07007.5,24.84175,24.84175,0,0,0-4.06006-8.73c-1.74-2.51-4.65991-6.47-7.55-7.82-4.49-2.11-9.02,3.19-13.63989,5.3a13.476,13.476,0,0,0-10.03-.04,3.93146,3.93146,0,0,0-2.62012,4.23c.1001,1.73,1.16016,5.43,3,6.42-.03979-.01-.07983-.01-.10986-.02a6.69205,6.69205,0,0,0-1.28-.18,3.67956,3.67956,0,0,0-1.91992.04,7.20392,7.20392,0,0,0-2.04.57h-.02v.01a6.13134,6.13134,0,0,0-1.26.73c-.23.13-.46.27-.67993.42a2.12486,2.12486,0,0,0-.38013.29v.01a1.02754,1.02754,0,0,0-.22.13995,1.84694,1.84694,0,0,0-.34009.45,1.35044,1.35044,0,0,0-.28979.7.56673.56673,0,0,0-.08008.13,3.1363,3.1363,0,0,0-.1499.5,6.56066,6.56066,0,0,0-.34009,2.18,28.77156,28.77156,0,0,1,.12988,3.85c-.3999,3.16-1.84985,4-4.06982,5.63-2.84009,2.11005-5.56006,7.79-3.82007,11.34a5.12647,5.12647,0,0,0,1.30005,2.95c0,.01-.01.02,0,.03a4.204,4.204,0,0,0,1.2.93c.04.02.08008.06.13013.09.02.01.02978-.01.03979-.03a.2509.2509,0,0,0,.07007.04,1.50557,1.50557,0,0,0,.41992.21,2.55258,2.55258,0,0,0,2.05005.13,3.16691,3.16691,0,0,0,1.3-1.00995c.46-.58.32007-1.29.60986-1.91.23023.09.46021.23.7002.31a27.38919,27.38919,0,0,0,3.52,1.17,11.58495,11.58495,0,0,0,3.77.01c-.41016.17005-.81006.36-1.2002.55-.00976.01-.00976,0-.02,0-.17993.1-.36987.19-.55981.29-.01,0-.01-.01-.02,0-.05005.02-.1001.06-.15015.08-.02.00995-.02978.01995-.04.01995-.00976-.01995-.01977-.04-.0498-.01995-.13013.09-.28.18994-.41992.28a7.47248,7.47248,0,0,0-1.23023.81c-.01-.01-.01-.02-.01977-.01a1.529,1.529,0,0,1-.13013.12c-.02-.01-.04-.01-.05.02a.76312.76312,0,0,1-.08008.11.96576.96576,0,0,0-.09985.1c-.05005.05-.11011.11-.15991.17a.94206.94206,0,0,0-.1001.1v.02a.0098.0098,0,0,0-.01.01c-.04-.01-.07007-.01-.06006.06,0,.01-.01.03-.01.04-.01.01-.02.02-.02.03a1.79406,1.79406,0,0,0-.22.26.20837.20837,0,0,0-.04.06c-.01.01-.01977.02-.01977.03v.01a.44268.44268,0,0,0-.06006.12c-.01-.01-.03-.01-.03,0-.11011.22-.21.45-.32007.68,0,.01-.01,0-.01.01-.02.05-.04.1-.06006.16a5.17733,5.17733,0,0,0-.24.76,6.7779,6.7779,0,0,0-.23,1.27,12.31764,12.31764,0,0,0-.23,1.77,12.49129,12.49129,0,0,0,.46,2.93,13.01782,13.01782,0,0,0,.08008,2.7,28.38267,28.38267,0,0,1-.76,4.11,12.797,12.797,0,0,0-.45,5.12c.66992,4.25,4.1499,7.45,8.36987,8.56-.12988,0-.26.01-.38989.01a.07538.07538,0,0,0-.01.04c.36987.11.74.23,1.09985.36a3.76923,3.76923,0,0,1,.58008.14,4.74115,4.74115,0,0,0,.52-.04,3.61231,3.61231,0,0,1,.66016-.02.18146.18146,0,0,0,.17993.2c1.62988.12,3.93994.35,5.37988-.52.95-.58,2.65015-1.59,2.73-2.8.09009-1.35-1.25-2.35-2.25-3.05a43.58944,43.58944,0,0,0-3.76977-2.43,8.423,8.423,0,0,1-.67017-.67c-.45-.52-1.05-.95-.74-1.75-.32007-.45-.06006-.88995-.01-1.34a2.33751,2.33751,0,0,1,1.87012-1.99,4.50135,4.50135,0,0,1,2.23.23c.19995.04.40991.22.6499.18a1.79867,1.79867,0,0,1,1.15991.33,16.78248,16.78248,0,0,1,3.26026,2.26c.51977.48,1.05981.93,1.59985,1.38,1.27,1.06,2.56006,2.1,3.81006,3.18.74.64,1.37988,1.39,2.12988,2a23.16611,23.16611,0,0,0,2.44019,1.71,29.83028,29.83028,0,0,0,3.98974,2.42005,12.57367,12.57367,0,0,1,1.43018.47,11.35847,11.35847,0,0,0,2.31982.86c1.32007.42005,2.67017.74,4,1.11005a12.77753,12.77753,0,0,1,3.37012,1.26,5.70711,5.70711,0,0,1,2.09009,1.75,8.47681,8.47681,0,0,0,1.13989,1.41,9.9553,9.9553,0,0,0,2.31006,1.8.45174.45174,0,0,1,.22.21l.38989.18a.72585.72585,0,0,1,.31006.14c.11011.05.22.1.34009.15.06006.03.12988.06.18994.09a6.66765,6.66765,0,0,0,.63013.22.6779.6779,0,0,1,.22.13,3.23715,3.23715,0,0,0,1.66992-.1,2.10929,2.10929,0,0,1,1.63989.06,4.78256,4.78256,0,0,0,2.13013.16.76525.76525,0,0,0,.72-.45,2.29952,2.29952,0,0,1,1.05-1.04c.61987-.37,1.31006-.62,1.93994-.97a6.66778,6.66778,0,0,0,1.31006-.91c.46-.43.78-.99,1.23-1.43a15.00857,15.00857,0,0,0,2.53-3.82,24.948,24.948,0,0,0,1.27-3.06c.65991-1.78,1.28-3.58,1.81006-5.4a3.8965,3.8965,0,0,0,.15991-.48,18.80471,18.80471,0,0,1,.53-2.73,33.59677,33.59677,0,0,0,.7998-3.79,28.55672,28.55672,0,0,1,.71021-2.9,10.54419,10.54419,0,0,1,1.13989-2.34,3.25575,3.25575,0,0,0,.56006-.86,6.17633,6.17633,0,0,1,1.65991-2.43,15.25347,15.25347,0,0,1,2.37012-2.16,26.68107,26.68107,0,0,1,4.07007-2.49,35.706,35.706,0,0,0,4.10986-1.79,23.94925,23.94925,0,0,0,2.24-1.38,25.89021,25.89021,0,0,0,2.15991-2.16,1.53035,1.53035,0,0,0,.23-.37c.38013-.62.69019-1.29,1.01026-1.93a32.26521,32.26521,0,0,0,1.5-3.82c.46-1.3.87988-2.62,1.2998-3.94-.0498-.04-.08984-.09-.13989-.13a30.51525,30.51525,0,0,1,1.88989-5.45,7.45556,7.45556,0,0,1,1.32007-1.84,4.12145,4.12145,0,0,0,1.15015,3.01,6.12927,6.12927,0,0,0,4.50976,2.11C116.16692,40.65289,115.91692,37.09289,115.18694,35.31286Z" style="fill:#fff"/><path id="fill4" d="M115.18694,35.31286a.65538.65538,0,0,0-.05981-.12c-.21021-2.32-2.27-4.58-4.42993-5.53-.27-.12-.58008-.22-.88013-.32a.20509.20509,0,0,0-.11987-.1c-2.08008-.93-4.27-1.6-5.97022-3.15-1.06006-.98-1.7998-2.25-2.93994-3.17a13.05882,13.05882,0,0,0-9.83984-2.96,17.03389,17.03389,0,0,0-9.33008,4.2c0-.05.01-.1.01-.15a1.02981,1.02981,0,0,1-.65015.3c4.01-5.95,9.27-15.37994,4.77-19.58-2.7998-2.61-7.56982-.89-10.6499.15-1.36011.46-2.95,1.65-4.3501,1.72-1.25.06-2.7-.96-3.99-1.5a25.98543,25.98543,0,0,0-5.96-2.68c-2.13989-.78-8.08008-3.12-10.5-2.22-3.84009,1.43-1.61987,8.94-1.05,11.65v.01a35.57249,35.57249,0,0,0,1.07007,4.36,15.22189,15.22189,0,0,0,.61011,2.17c.16992.43.30981.88.46,1.33a18.29054,18.29054,0,0,0,1.04,2.62,7.61389,7.61389,0,0,0,.6499,1.62,2.44,2.44,0,0,0,.1001.24c.02978.09.06982.17.09985.24.06006.14.13989.26.21.39.03.07.06006.14.09009.22.01.03.04.04.07007.05a.63006.63006,0,0,0,.03979.08.108.108,0,0,1-.05981.00995,1.92171,1.92171,0,0,1-.24,0,2.26314,2.26314,0,0,0-1.07007.5,24.84175,24.84175,0,0,0-4.06006-8.73c-1.74-2.51-4.65991-6.47-7.55-7.82-4.49-2.11-9.02,3.19-13.63989,5.3a13.476,13.476,0,0,0-10.03-.04,3.93146,3.93146,0,0,0-2.62012,4.23c.1001,1.73,1.16016,5.43,3,6.42-.03979-.01-.07983-.01-.10986-.02a6.69205,6.69205,0,0,0-1.28-.18,3.67956,3.67956,0,0,0-1.91992.04,7.20392,7.20392,0,0,0-2.04.57h-.02v.01a6.13134,6.13134,0,0,0-1.26.73c-.23.13-.46.27-.67993.42a2.12486,2.12486,0,0,0-.38013.29v.01a1.02754,1.02754,0,0,0-.22.13995,1.84694,1.84694,0,0,0-.34009.45,1.35044,1.35044,0,0,0-.28979.7.56673.56673,0,0,0-.08008.13,3.1363,3.1363,0,0,0-.1499.5,6.56066,6.56066,0,0,0-.34009,2.18,28.77156,28.77156,0,0,1,.12988,3.85c-.3999,3.16-1.84985,4-4.06982,5.63-2.84009,2.11005-5.56006,7.79-3.82007,11.34a5.12647,5.12647,0,0,0,1.30005,2.95c0,.01-.01.02,0,.03a4.204,4.204,0,0,0,1.2.93c.04.02.08008.06.13013.09.02.01.02978-.01.03979-.03a.2509.2509,0,0,0,.07007.04,1.50557,1.50557,0,0,0,.41992.21,2.55258,2.55258,0,0,0,2.05005.13,3.16691,3.16691,0,0,0,1.3-1.00995c.46-.58.32007-1.29.60986-1.91.23023.09.46021.23.7002.31a27.38919,27.38919,0,0,0,3.52,1.17,11.58495,11.58495,0,0,0,3.77.01c-.41016.17005-.81006.36-1.2002.55-.00976.01-.00976,0-.02,0-.17993.1-.36987.19-.55981.29-.01,0-.01-.01-.02,0-.05005.02-.1001.06-.15015.08-.02.00995-.02978.01995-.04.01995-.00976-.01995-.01977-.04-.0498-.01995-.13013.09-.28.18994-.41992.28a7.47248,7.47248,0,0,0-1.23023.81c-.01-.01-.01-.02-.01977-.01a1.529,1.529,0,0,1-.13013.12c-.02-.01-.04-.01-.05.02a.76312.76312,0,0,1-.08008.11.96576.96576,0,0,0-.09985.1c-.05005.05-.11011.11-.15991.17a.94206.94206,0,0,0-.1001.1v.02a.0098.0098,0,0,0-.01.01c-.04-.01-.07007-.01-.06006.06,0,.01-.01.03-.01.04-.01.01-.02.02-.02.03a1.79406,1.79406,0,0,0-.22.26.20837.20837,0,0,0-.04.06c-.01.01-.01977.02-.01977.03v.01a.44268.44268,0,0,0-.06006.12c-.01-.01-.03-.01-.03,0-.11011.22-.21.45-.32007.68,0,.01-.01,0-.01.01-.02.05-.04.1-.06006.16a5.17733,5.17733,0,0,0-.24.76,6.7779,6.7779,0,0,0-.23,1.27,12.31764,12.31764,0,0,0-.23,1.77,12.49129,12.49129,0,0,0,.46,2.93,13.01782,13.01782,0,0,0,.08008,2.7,28.38267,28.38267,0,0,1-.76,4.11,12.797,12.797,0,0,0-.45,5.12c.66992,4.25,4.1499,7.45,8.36987,8.56-.12988,0-.26.01-.38989.01a.07538.07538,0,0,0-.01.04c.36987.11.74.23,1.09985.36a3.76923,3.76923,0,0,1,.58008.14,4.74115,4.74115,0,0,0,.52-.04,3.61231,3.61231,0,0,1,.66016-.02.18146.18146,0,0,0,.17993.2c1.62988.12,3.93994.35,5.37988-.52.95-.58,2.65015-1.59,2.73-2.8.09009-1.35-1.25-2.35-2.25-3.05a43.58944,43.58944,0,0,0-3.76977-2.43,8.423,8.423,0,0,1-.67017-.67c-.45-.52-1.05-.95-.74-1.75-.32007-.45-.06006-.88995-.01-1.34a2.33751,2.33751,0,0,1,1.87012-1.99,4.50135,4.50135,0,0,1,2.23.23c.19995.04.40991.22.6499.18a1.79867,1.79867,0,0,1,1.15991.33,16.78248,16.78248,0,0,1,3.26026,2.26c.51977.48,1.05981.93,1.59985,1.38,1.27,1.06,2.56006,2.1,3.81006,3.18.74.64,1.37988,1.39,2.12988,2a23.16611,23.16611,0,0,0,2.44019,1.71,29.83028,29.83028,0,0,0,3.98974,2.42005,12.57367,12.57367,0,0,1,1.43018.47,11.35847,11.35847,0,0,0,2.31982.86c1.32007.42005,2.67017.74,4,1.11005a12.77753,12.77753,0,0,1,3.37012,1.26,5.70711,5.70711,0,0,1,2.09009,1.75,8.47681,8.47681,0,0,0,1.13989,1.41,9.9553,9.9553,0,0,0,2.31006,1.8.45174.45174,0,0,1,.22.21l.38989.18a.72585.72585,0,0,1,.31006.14c.11011.05.22.1.34009.15.06006.03.12988.06.18994.09a6.66765,6.66765,0,0,0,.63013.22.6779.6779,0,0,1,.22.13,3.23715,3.23715,0,0,0,1.66992-.1,2.10929,2.10929,0,0,1,1.63989.06,4.78256,4.78256,0,0,0,2.13013.16.76525.76525,0,0,0,.72-.45,2.29952,2.29952,0,0,1,1.05-1.04c.61987-.37,1.31006-.62,1.93994-.97a6.66778,6.66778,0,0,0,1.31006-.91c.46-.43.78-.99,1.23-1.43a15.00857,15.00857,0,0,0,2.53-3.82,24.948,24.948,0,0,0,1.27-3.06c.65991-1.78,1.28-3.58,1.81006-5.4a3.8965,3.8965,0,0,0,.15991-.48,18.80471,18.80471,0,0,1,.53-2.73,33.59677,33.59677,0,0,0,.7998-3.79,28.55672,28.55672,0,0,1,.71021-2.9,10.54419,10.54419,0,0,1,1.13989-2.34,3.25575,3.25575,0,0,0,.56006-.86,6.17633,6.17633,0,0,1,1.65991-2.43,15.25347,15.25347,0,0,1,2.37012-2.16,26.68107,26.68107,0,0,1,4.07007-2.49,35.706,35.706,0,0,0,4.10986-1.79,23.94925,23.94925,0,0,0,2.24-1.38,25.89021,25.89021,0,0,0,2.15991-2.16,1.53035,1.53035,0,0,0,.23-.37c.38013-.62.69019-1.29,1.01026-1.93a32.26521,32.26521,0,0,0,1.5-3.82c.46-1.3.87988-2.62,1.2998-3.94-.0498-.04-.08984-.09-.13989-.13a30.51525,30.51525,0,0,1,1.88989-5.45,7.45556,7.45556,0,0,1,1.32007-1.84,4.12145,4.12145,0,0,0,1.15015,3.01,6.12927,6.12927,0,0,0,4.50976,2.11C116.16692,40.65289,115.91692,37.09289,115.18694,35.31286Z" style="fill:url(#radial-gradient)"/><path id="fill3" d="M62.53777,27.007c-.48462,2.60541-.96753,5.23078-1.27563,7.8786a10.27957,10.27957,0,0,1-.11109,1.13483c-.06372.67066-.13012,1.34107-.1643,2.01483-.01489.29584-.47193.38666-.53711.0727-.00488-.02387-.00342-.049-.00781-.07294l-.002.00024.001-.00927a16.746,16.746,0,0,1,.083-3.73414l.00049-.00061a.23731.23731,0,0,1-.13672-.21466,19.01743,19.01743,0,0,1,.61792-4.5166c.21289-.91894.32153-2.27319,1.13061-2.86175C62.34759,26.54437,62.57659,26.79913,62.53777,27.007ZM56.4699,18.31469c-.15307.103-.23681.10663-.42407.21539a.29641.29641,0,0,0-.14868.2594c.07324.88385-.169,1.77613-.085,2.64588-.04322.42071-.07471.84015-.0896,1.26623-.02564.72113-.44776,2.55872.21338,3.075a.283.283,0,0,0,.47509-.19678,13.95815,13.95815,0,0,0-.07153-1.81781.17625.17625,0,0,0-.18164-.184c.04736-.60706.12378-1.1933.14014-1.45032.00366-.05878.0144-.11847.02075-.17755a.29992.29992,0,0,0,.13818-.22632c.02075-.30786.06446-.61365.08936-.92139a7.199,7.199,0,0,0,.37353-2.22955A.302.302,0,0,0,56.4699,18.31469Zm-.178,14.88043a.364.364,0,0,0-.01074-.04168,7.53278,7.53278,0,0,0,.17456-2.37159c-.01-.65014-.13281-1.2116-.52539-1.44995a.35329.35329,0,0,0-.47632.12488,5.484,5.484,0,0,0-.20361,3.03711.287.287,0,0,0,.082.16315c-.04565.87451-.00684,1.75653.01831,2.63281.031,1.09027-.19238,3.25848.6272,4.14844a.31944.31944,0,0,0,.31933.08441l.228-.09308a.34127.34127,0,0,0,.24121-.31683,14.92447,14.92447,0,0,0-.23437-1.93134C56.48943,35.85131,56.36517,34.5238,56.29192,33.19512Zm-3.70507,3.095a5.80157,5.80157,0,0,0-.32666-1.00916c-.00782-.02411-.01416-.04865-.02222-.07269a17.29662,17.29662,0,0,0-1.41919-3.50818A24.62732,24.62732,0,0,0,49.863,29.36c-.20313-.51855-.40991-1.03522-.63379-1.54388a.31465.31465,0,0,0-.58228.15771c.02393.28229.05567.57251.09839.86444a.28311.28311,0,0,0-.06274.37543c.09473.17572.16992.36542.25244.55a4.9915,4.9915,0,0,0,.62769,1.48681.33606.33606,0,0,0,.12329.11286,7.15757,7.15757,0,0,0,.39453.87152.24145.24145,0,0,0,.188.12659c.14746.46063.30053.91723.46557,1.36462.38794,1.19745.79224,2.38892,1.27124,3.49036a.26328.26328,0,0,0,.189.16168c.03515.15906.08056.31555.12817.47156a2.58755,2.58755,0,0,0,.14575.42956l.00391-.00165c.009.02057.01269.04261.02222.06305.00561.012.01831.01148.02514.02167.07862.25989.1648.51843.25733.77844.00024.01642-.00928.03137-.0066.04749a1.25589,1.25589,0,0,0,.2544.73565c.11084.19483.48169.12525.45142-.12225-.1377-1.12012-.49756-2.17554-.603-3.29816A.24142.24142,0,0,0,52.58685,36.29016Zm-2.37159,3.69763a2.05145,2.05145,0,0,1-.29443-.29462.30153.30153,0,0,0-.27783-.10059c-.15821-.11377-.31616-.22992-.46973-.34954a9.01292,9.01292,0,0,0-1.14966-.99421L48.02,38.24542l-.00049.0003c-.0227-.01562-.0415-.03522-.06445-.05041a.27369.27369,0,0,0-.19238-.04267,6.847,6.847,0,0,0-.877-.67785c-.18261-.146-.36474-.2923-.54126-.4441-.32763-.28161-.71289-.57287-1.09008-.87615a8.91734,8.91734,0,0,0-.91236-.83582,3.81074,3.81074,0,0,1-.3894-.46832.276.276,0,0,0-.50977.138.8228.8228,0,0,0,.49683.926c.19946.16791.43384.30213.6665.49243a.27852.27852,0,0,0,.14087.05945l.0647.053a.17338.17338,0,0,0-.00025.297,10.92847,10.92847,0,0,1,2.72706,2.07959.294.294,0,0,0,.01806.02533,11.15317,11.15317,0,0,0,2.46778,2.06122.35439.35439,0,0,0,.415-.08759.32667.32667,0,0,0,.25855-.59326C50.53167,40.19805,50.3742,40.09277,50.21526,39.98779Z" style="fill:#71a500"/><path id="fill2" d="M43.37859,30.22814c.6023.694.03418,2.03846-.08764,2.826a11.41386,11.41386,0,0,1-.498,2.03229,3.17464,3.17464,0,0,1-.64648,1.38757c-.04981.08484-.08887.17481-.14283.25782a.49522.49522,0,0,1-.7705.0993,2.05518,2.05518,0,0,1-.23243-1.7536,6.59743,6.59743,0,0,1,.19361-1.05518.36406.36406,0,0,1,.14648-.203c.03784-1.26837.34351-3.07391,1.4021-3.67328A.53052.53052,0,0,1,43.37859,30.22814ZM47.968,22.63091a3.4685,3.4685,0,0,0-.55054,1.43616c-.24414.84839-.54443,1.69-.77295,2.54358-.05224.196-.10644.38947-.15967.58276a.34685.34685,0,0,0-.16674.24714c-.02466.14782-.04981.30828-.07691.47436a.49784.49784,0,0,0-.28418.40094,16.50066,16.50066,0,0,0-.3208,2.25189.51577.51577,0,0,0,.86963.36029c1.16284-1.0346,1.91211-3.41772,2.4043-4.884.31054-.925.71972-2.69232-.1687-3.41309A.555.555,0,0,0,47.968,22.63091Zm8.09766-4.62756a.50737.50737,0,0,0,.65063.127,18.60045,18.60045,0,0,0,2.00171-2.0033,4.60875,4.60875,0,0,0,1.22095-1.56879c.3291-.34613.8789-.77966.63086-1.30548-.43457-.92163-2.19.40851-2.59693.79157a6.68258,6.68258,0,0,0-1.4082,1.90167,2.28966,2.28966,0,0,0-.54273.89148c-.06738.08972-.13281.18146-.19189.27887a.35091.35091,0,0,0-.04663.21252A.4191.4191,0,0,0,56.06561,18.00335Zm8.61157,7.45422a1.03723,1.03723,0,0,0-.10205-.24743,1.67255,1.67255,0,0,0-.49048-1.00769c-.26343-.76221-1.17334-1.21405-1.86914-1.56732-.676-.34327-1.71363-.946-2.30933-.20539-.01636.00226-.03442.00086-.05078.00342-.00684.001-.00928.0069-.01562.00818a1.21087,1.21087,0,0,0-1.08838.11475c-.6709.619.29614,1.63507.86108,2.11163a2.29541,2.29541,0,0,0,1.095.721,3.01341,3.01341,0,0,0,2.34229,1.20868,1.47971,1.47971,0,0,0,.45849-.02137.69127.69127,0,0,0,1.12988-.53045l.00806-.07A.85159.85159,0,0,0,64.67718,25.45757Zm-4.9585,3.63459-.18017-.44251a.68273.68273,0,0,0-.646-.6242,4.74259,4.74259,0,0,0-1.37988-.85462c-.04517-.03717-.08448-.06848-.11133-.08771-.02783-.01971-.05786-.033-.08594-.05169a.669.669,0,0,0-.07446-.08c-1.05029-.79663-3.24317-1.84235-4.57471-1.33a.65493.65493,0,0,0-.38525.94721,3.11952,3.11952,0,0,0,.34839.48065.59881.59881,0,0,0,.175.36908,3.20936,3.20936,0,0,0,1.37867.72235,9.21153,9.21153,0,0,0,2.65527,1.72784c.47949.21265,1.01855.29859,1.51611.48261a1.504,1.504,0,0,0,1.0398.14062.68866.68866,0,0,0,.48755-.64032.97865.97865,0,0,0-.06787-.43878A.53.53,0,0,0,59.71868,29.09216Z" style="fill:#773000"/><path id="fill1" d="M38.90889,62.22294c.06764.02738.09754.13956.14482.2125a.62115.62115,0,0,1-.21909.01328c-1.25646-.4163-2.50313-.86181-3.76885-1.25075-.79376-.24393-1.62561-.37458-2.42318-.60943a13.36,13.36,0,0,0-3.69239-.31965c-.09765-.001-.19395-.09728-.29092-.14925.07715-.09832.13391-.23547.23682-.28439a1.0545,1.0545,0,0,1,.39553-.023,7.25965,7.25965,0,0,1,2.308.31064,2.02027,2.02027,0,0,0,.4869.00659c.47044.10457.8534.2377,1.24894.308a27.03143,27.03143,0,0,1,4.24461,1.2863C38.02638,61.88132,38.47076,62.0459,38.90889,62.22294Zm-4.13032,1.18325c-.06306-.02314-.168.05648-.25328.08824.05268.06784.09552.18376.16023.196a9.57966,9.57966,0,0,1,1.85781.59469,10.29977,10.29977,0,0,0,1.7319.46778C37.11066,64.27585,35.94706,63.83485,34.77857,63.40619ZM113.45966,40.8739a6.12114,6.12114,0,0,1-4.50776-2.11305,4.075,4.075,0,0,1-1.15378-3.0129,7.43964,7.43964,0,0,0-1.32155,1.84993,30.48453,30.48453,0,0,0-1.89449,5.445c.05033.04179.095.09393.14719.13221-.41989,1.31753-.83735,2.636-1.2974,3.941a32.38322,32.38322,0,0,1-1.50639,3.81773c-.32306.64194-.62892,1.30543-1.00453,1.92887a1.95971,1.95971,0,0,1-.23464.37045A26.2762,26.2762,0,0,1,98.53143,55.391a24.13287,24.13287,0,0,1-2.242,1.38529,36.45343,36.45343,0,0,1-4.11718,1.7912,26.22072,26.22072,0,0,0-4.063,2.48485,15.77484,15.77484,0,0,0-2.3723,2.15625,6.16408,6.16408,0,0,0-1.659,2.43688,3.34092,3.34092,0,0,1-.56186.85959,10.22712,10.22712,0,0,0-1.13731,2.33754,28.27812,28.27812,0,0,0-.7121,2.89692,33.20441,33.20441,0,0,1-.79819,3.78911,17.62073,17.62073,0,0,0-.529,2.7379c-.03093.1632-.11283.317-.16021.47815-.53351,1.82281-1.14976,3.62108-1.817,5.40276a24.80668,24.80668,0,0,1-1.2696,3.05968,14.97616,14.97616,0,0,1-2.52121,3.81147c-.45118.4433-.77806,1.00154-1.2357,1.43709a6.40214,6.40214,0,0,1-1.31139.91017c-.63.34953-1.3216.6013-1.94009.96641a2.318,2.318,0,0,0-1.0436,1.03606.77485.77485,0,0,1-.72315.4574A4.76947,4.76947,0,0,1,66.1909,95.665a2.09949,2.09949,0,0,0-1.64158-.063,3.20663,3.20663,0,0,1-1.67495.10227.54875.54875,0,0,0-.22165-.1305c-.21293-.06431-.42043-.14109-.62522-.22388a1.69552,1.69552,0,0,0-.19453-.08372c-.11371-.04868-.22687-.09826-.339-.14989a.5933.5933,0,0,0-.302-.13942q-.19559-.093-.39117-.18619a.5601.5601,0,0,0-.22332-.21259A9.8449,9.8449,0,0,1,58.268,92.77944a8.61015,8.61015,0,0,1-1.14338-1.4092,5.75251,5.75251,0,0,0-2.08741-1.75015,12.75931,12.75931,0,0,0-3.36662-1.25591c-1.33591-.36879-2.68786-.69149-4.00582-1.11065a11.02047,11.02047,0,0,1-2.31916-.86232,13.02953,13.02953,0,0,0-1.42412-.46719,30.23218,30.23218,0,0,1-3.99922-2.41921,24.00233,24.00233,0,0,1-2.43066-1.70823c-.75685-.61851-1.39681-1.36384-2.13634-2.00341-1.25031-1.08152-2.54065-2.12136-3.81017-3.18322-.53961-.45143-1.08166-.90152-1.59991-1.37457A16.49974,16.49974,0,0,0,26.69,72.97217a1.75532,1.75532,0,0,0-1.16662-.32545c-.23669.04062-.44956-.14277-.64421-.18343a4.46624,4.46624,0,0,0-2.23081-.23223,2.34224,2.34224,0,0,0-1.87549,1.991c-.049.45543-.31.89548.01031,1.34393-.30731.79817.29036,1.22845.74427,1.75034a7.00293,7.00293,0,0,0,.67229.6637c1.31009.73055,2.613,1.62243,3.77151,2.43317.99887.699,2.33733,1.70369,2.24432,3.04836C28.13214,84.66883,26.4401,85.684,25.4822,86.264c-1.434.86818-3.74362.64245-5.374.51758a.18.18,0,0,1-.18045-.201,3.51617,3.51617,0,0,0-.665.02439c-.17272.026-.34294.02676-.51482.04138a4.3842,4.3842,0,0,0-.58011-.14736c-.363-.12936-.72874-.24906-1.09641-.35226l-.0089-.00085c.00436-.01394.00951-.0248.0136-.03887.12895-.00271.25738-.00978.38634-.01511-4.21785-1.111-7.69995-4.30846-8.36069-8.55967a12.55048,12.55048,0,0,1,.44985-5.12239,28.58982,28.58982,0,0,0,.75781-4.10805,12.5714,12.5714,0,0,1-.08129-2.69507,12.8555,12.8555,0,0,1-.465-2.93319,13.66207,13.66207,0,0,1,.23149-1.767,6.17662,6.17662,0,0,1,.23715-1.2762,4.45544,4.45544,0,0,1,.23949-.761c.01768-.05255.03428-.10439.05223-.15719.003-.00818.013-.00342.0181-.00872.101-.23217.20764-.46061.31291-.67786.00679-.01438.02216-.01287.03428-.0056.02115-.03936.03206-.083.05617-.12109.0019-.004-.00618-.00642-.00213-.01044l.02219-.02329c.01408-.02146.02332-.04447.03822-.06567a2.31024,2.31024,0,0,1,.22138-.259l.02031-.02835c.00138-.01369.01033-.02941.00848-.04215-.00954-.06452.02689-.06787.06057-.05415l.01219-.01711c.00055-.00467-.004-.00846-.0005-.01286.03112-.038.06925-.07007.10172-.10683.05195-.05757.105-.11251.15962-.16758.03436-.03465.06979-.06846.10415-.10311a1.1446,1.1446,0,0,0,.07205-.10742.04277.04277,0,0,1,.05859-.01929c.04355-.04127.08763-.08319.12928-.1214.00812-.0074.0097.00393.01238.01162a8.29865,8.29865,0,0,1,1.23018-.80656c.14593-.0957.29106-.19024.42619-.28367.02352-.01638.03992.00395.04552.0261l.04-.02017c.05-.0291.09971-.05961.15023-.08654.00756-.004.01051.00266.017.002.19017-.096.38143-.19243.56675-.28661.00567-.00286.00943.0022.01483.00068q.588-.29694,1.199-.55467a11.63664,11.63664,0,0,1-3.7677-.00948A26.7731,26.7731,0,0,1,8.37205,53.585c-.24417-.08392-.47659-.22423-.70781-.30773-.28765.61593-.145,1.32654-.612,1.90391A3.11253,3.11253,0,0,1,5.76,56.18836a2.52891,2.52891,0,0,1-2.05306-.1261l-.00135.00077a1.50484,1.50484,0,0,1-.41378-.20545c-.02613-.01255-.05172-.02708-.07731-.041-.00653.01892-.01872.03725-.04242.02336-.04336-.02533-.08048-.06254-.12249-.0901a4.03461,4.03461,0,0,1-1.20488-.92643c-.01049-.01065-.0021-.02092.00117-.03179A5.08678,5.08678,0,0,1,.54521,51.84514c-1.73388-3.555.97838-9.23614,3.82476-11.33829,2.21251-1.63414,3.66966-2.47711,4.06794-5.6346a28.11787,28.11787,0,0,0-.12826-3.85182,6.5376,6.5376,0,0,1,.33594-2.1738,3.53735,3.53735,0,0,1,.153-.50408,1.32933,1.32933,0,0,1,.07373-.12942,1.364,1.364,0,0,1,.29435-.69629,2.16855,2.16855,0,0,1,.34117-.45794,1.05609,1.05609,0,0,1,.224-.1386l-.00914-.00988a3.49618,3.49618,0,0,1,.38386-.29115c.22349-.14373.4529-.28206.68258-.41944a6.31319,6.31319,0,0,1,1.2564-.73041l.00244-.00268.01458-.00482a7.48546,7.48546,0,0,1,2.03986-.56463,3.69625,3.69625,0,0,1,1.92944-.0436,6.3434,6.3434,0,0,1,1.2733.18223c.03586.0056.07228.00724.10814.01367-1.84107-.98922-2.89367-4.69126-3.00083-6.41795a3.94392,3.94392,0,0,1,2.62865-4.22891,13.45043,13.45043,0,0,1,10.02521.04517c4.618-2.11881,9.14678-7.41738,13.64483-5.30665,2.8905,1.35626,5.80563,5.3071,7.54373,7.8246a24.78076,24.78076,0,0,1,4.06106,8.729,2.21209,2.21209,0,0,1,1.06693-.49759c.08094-.00694.16346.003.24494-.00085a.5059.5059,0,0,0,.064-.01058c-.01638-.02627-.03087-.05408-.04671-.08068a.101.101,0,0,1-.0689-.05624c-.03163-.07258-.05948-.14669-.09084-.21946-.06871-.12847-.14525-.25051-.20773-.38383q-.0531-.11436-.10077-.23951c-.03485-.07931-.06808-.15951-.10131-.23984a7.71038,7.71038,0,0,1-.6475-1.6276,18.01041,18.01041,0,0,1-1.03914-2.61986c-.15091-.44343-.28994-.8942-.45923-1.32706a14.38592,14.38592,0,0,1-.61579-2.16562,37.86008,37.86008,0,0,1-1.068-4.35995l-.0024-.0098C48.67689,9.143,46.4595,1.63544,50.29809.20472c2.42278-.90313,8.355,1.43967,10.50207,2.217a25.83312,25.83312,0,0,1,5.95209,2.68285c1.2966.53593,2.74776,1.56087,3.99422,1.499,1.404-.06975,2.99541-1.2656,4.34978-1.72138C78.17357,3.84669,82.952,2.12,85.74892,4.73414c4.49658,4.20252-.758,13.62464-4.77449,19.58212a1.04184,1.04184,0,0,0,.65232-.30563c-.00338.04919-.01134.09959-.01444.14865a17.02367,17.02367,0,0,1,9.33613-4.19811,13.06362,13.06362,0,0,1,9.83854,2.96536c1.13908.91869,1.87525,2.18727,2.94079,3.16194,1.69788,1.55328,3.88646,2.22887,5.97292,3.15223a.26278.26278,0,0,1,.12029.10334c.297.10154.60264.19759.87126.31619,2.1681.95737,4.22686,3.21266,4.437,5.533.01931.04254.04322.07863.06144.12276C115.922,37.094,116.16273,40.65156,113.45966,40.8739ZM54.072,24.447a3.13857,3.13857,0,0,1,.19631.32027l.00831.019c.01047.0182.0231.03551.0333.0539.07435.13464.20765.3155.31909.501a.91175.91175,0,0,0,.33044.004.32013.32013,0,0,0,.15963.12047l.24063.09664c-.00428-.01178-.01451-.01987-.01474-.03388-.0141-1.53238-.03714-3.05031.03185-4.58373a11.42665,11.42665,0,0,1,.13575-2.06667.93146.93146,0,0,1-.03452-.29537,1.16079,1.16079,0,0,1-.54894-.49682c-.0187-.06378-.03607-.12474-.05424-.18743a.35554.35554,0,0,1,.02723-.18778,16.475,16.475,0,0,1,1.02457-1.76348,11.23052,11.23052,0,0,1,1.95375-2.00244c.25666-.23679.39142-.67842.91239-.51.03854.01246.1392-.09725.18552-.16565a1.28062,1.28062,0,0,1,2.156-.03165c.16351.18415.12012.2651-.01281.43928-.46514.61019-.87993,1.25515-1.34453,1.86586-.50169.6593-1.03138,1.29977-1.56215,1.93865a2.3719,2.3719,0,0,0-.30744.36033c-.02241.00717-.04614.00134-.06775.01223-.19449.097-.38682.19087-.57915.28536-.611,2.62436-.34627,5.31956-.697,7.95015a.36064.36064,0,0,0,.07945.04635,2.43572,2.43572,0,0,1,.74524.32972c.10629.09653.17911.10223.23743.08076l.249.20717a.22634.22634,0,0,0,.23433.03257l.02962.01781c.00538.00443.004.01121.01021.01538.167.10482.32364.22235.48031.33942.1695.1628.33846.32578.51012.48641a3.37438,3.37438,0,0,1,1.10716,2.89734c-.01785.20905-.08464.26741-.285.24785a2.85779,2.85779,0,0,1-.47874-.02909c-.67738-.1898-1.34959-.39654-2.02288-.59956-.14043-.0423-.34725-.17116-.40186-.1264a.72863.72863,0,0,0-.23779.436,12.42336,12.42336,0,0,0-.16472,1.71474c.00265.70139.11643,1.40187.13931,2.104.01019.31143-.00281.62338-.00232.93517.03846.624.07531,1.24845.15154,1.87148.08758.71519.20741,1.47487.22915,2.19423.3537-.01463.46654-.23986.43055-.58892-.0486-.46946-.14253-.93762-.15067-1.40735-.02006-1.135-.00127-2.27057.00188-3.40588a1.332,1.332,0,0,1,.01024-.38445c.02748-.08713.13988-.15016.21454-.22392.03431.07605.098.152.09837.22825a35.87,35.87,0,0,0,.14895,4.65889c.042.30935-.05124.77374.342.78858.41647.01575.30417-.44288.315-.73058.06143-1.6298.11343-3.25995.1843-4.88934a2.68352,2.68352,0,0,1,.16732-.70719c.02068-.06226.14485-.09371.22132-.13925.0322.062.10026.12984.09013.18478a5.07045,5.07045,0,0,0-.15228.63339c-.0703,1.42292-.13359,2.84637-.17234,4.27027-.00781.28688.1403.57662.14058.86506.0002.315.211.25792.37567.23279a1.16838,1.16838,0,0,0,.5549-.199c.05814-.0486-.06879-.28882-.09966-.44407a1.00814,1.00814,0,0,1-.00151-.23175q.08748-2.36736.17578-4.73478a1.01863,1.01863,0,0,1,.00178-.15464c.164-.8646.32391-1.72991.49733-2.59282q.2232-1.10989.47336-2.21481c.11607-.51429-.14893-1.06477.16753-1.56206.01246-.01961-.0844-.11138-.14037-.15894a3.97447,3.97447,0,0,0-.48233-.38914,4.43916,4.43916,0,0,1-2.20851-2.6357.9037.9037,0,0,1,.87423-1.24294,3.1021,3.1021,0,0,0,.69354-.0922,3.72311,3.72311,0,0,1,2.889.43554A12.45752,12.45752,0,0,1,64.737,23.84612a1.55652,1.55652,0,0,1,.56253,2.11063c-.25218.56843-.63385,1.23555-1.30394,1.23888-.72027.0035-.91822.27725-1.00241.77218a14.83316,14.83316,0,0,1-.45768,1.8156c-.32538,1.57763-.615,3.18722-.79149,4.7785-.018.16093-.02306.33847-.0319.511a.23891.23891,0,0,1-.00226.03723c-.032.65952-.02971,1.37415-.126,2.0379a3.09779,3.09779,0,0,1-.06764.75328c.00566.00123.01239.00905.01751.00811l.00027-.00006a1.16314,1.16314,0,0,0,.80973-.93947,13.3153,13.3153,0,0,1,.153-2.64835c.188-.76554.23309-1.56239.35179-2.344.03627-.23907.124-.47122.15869-.71035.06766-.46715.103-.9388.17978-1.40438.01756-.107.14864-.19717.22741-.295a.94021.94021,0,0,1,.08162.33384c-.02614.18848-.12888.36773-.15206.55616-.12143.988-.16979,1.98755-.35458,2.96406a15.94769,15.94769,0,0,0-.31715,3.27941,3.07947,3.07947,0,0,0,.06974.43573c.15076-.086.305-.16711.45175-.2589a.70107.70107,0,0,0,.30315-.65774c.02514-.702.08589-1.40394.16552-2.10254.04369-.38512.15614-.76308.23462-1.14491.19634-.95574.38485-1.91292.58981-2.867a6.24335,6.24335,0,0,1,.228-.6838,2.43646,2.43646,0,0,1,.08328.70673c-.13646.7657-.34869,1.51953-.47814,2.28614-.19281,1.14412-.34544,2.29457-.49942,3.44424a1.92379,1.92379,0,0,0,.07007.51065c.11224-.10379.22286-.20938.33779-.31073.11682-.10326.23311-.20813.358-.302.24707-.18531.20643-.21979.22009-.57146a21.1657,21.1657,0,0,1,.20119-2.32152c.10059-.66937.29663-1.32587.4525-1.98767.1556-.66141.32332-1.32042.46813-1.9839.29072-1.33273.56445-2.66884.85948-4.00073a3.1972,3.1972,0,0,1,.25112-.57681,1.965,1.965,0,0,1,.061.59c-.25923,1.263-.54758,2.52038-.816,3.7817-.17793.83564-.29655,1.68469-.51707,2.50959a12.46862,12.46862,0,0,0-.48628,2.98551,4.8015,4.8015,0,0,1-.14388.71443.65591.65591,0,0,0,.03207.20912c.09283-.01433.21634.00271.27393-.04787.56815-.50018,1.18015-.95482,1.01162-1.85585-.0739-.39536.14959-.83264.13348-1.2473a13.8967,13.8967,0,0,1,.55319-3.28227c.30443-1.51089.67818-3.02011,1.06647-4.52046a34.01824,34.01824,0,0,0,1.37194-5.43279.19816.19816,0,0,1,.14521-.12609c.05639-.003.16869.06739.167.10149a4.09513,4.09513,0,0,1-.07953.66374c-.06721.30622-.173.6048-.24045.911-.17785.80915-.274,1.64124-.53059,2.42669a23.42726,23.42726,0,0,0-1.13778,3.96912c-.1351.95687-.46652,1.88749-.63237,2.842-.16585.95475-.23085,1.92513-.3487,2.88769-.04168.34123-.11734.67879-.15443,1.02029-.00582.05379.113.11977.1743.18008.04761-.04734.12569-.08846.138-.143.11825-.523.20361-1.05343.3402-1.57176.054-.20492.11766-.40744.17245-.61223a45.498,45.498,0,0,0,2.44784-6.83257c.02613-.08112.0474-.164.07244-.24536l.00652-.01771c.0944-.18836.18667-.389.27627-.59677a12.19018,12.19018,0,0,1-.386,2.02943c-.43133,1.74606-1.06754,3.44631-1.60914,5.16826-.14506.4613-.25453.93268-.38153,1.39909-.01527.05575-.03807.10956-.05738.16421.051.00769.1256.04.14966.01936.44562-.38139.93183-.71026.955-1.389a11.09824,11.09824,0,0,1,.28107-1.74308A34.56279,34.56279,0,0,1,70.865,24.40068q.39723-1.12028.82868-2.22931c.028-.07223.16889-.105.25724-.15611a.76521.76521,0,0,1,.00278.263c-.401,1.10644-.85475,2.19776-1.20315,3.31861a18.22009,18.22009,0,0,0-.89221,3.06187c-.08244.64338-.31806,1.268-.452,1.9073a1.71964,1.71964,0,0,0,.0721.55839,4.972,4.972,0,0,0,.44375-.28932c.16519-.13326.28476-.35227.47054-.42073a.97981.97981,0,0,0,.62951-.8349c.11438-.48947.32825-.95749.45207-1.44547.24955-.98228.688-1.90716.88451-2.91166a16.06625,16.06625,0,0,0,.47476-1.74587c.01115-.13.142-.25074.21793-.37575.03309.13.11983.27213.09064.38786-.24274.96042-.48873,1.92077-.76894,2.8718-.32652,1.10793-.69023,2.206-1.02967,3.31058-.018.05786.03846.13627.06012.20511.08694-.02862.20161-.03323.25625-.08989a4.989,4.989,0,0,0,.75067-.85133,5.08856,5.08856,0,0,0,.39954-1.0795c.43874-1.40252.86777-2.80774,1.30273-4.21129q.41687-1.34556.84128-2.68905a1.29859,1.29859,0,0,1,.08925-.181c.02409.06789.07892.14085.06769.20289a13.0551,13.0551,0,0,1-.27893,1.36168c-.2105.71385-.48246,1.41122-.70186,2.12294q-.64962,2.10821-1.26231,4.22636a1.97871,1.97871,0,0,0,.00516.572,3.222,3.222,0,0,1,.50048-.12562c.2415-.02256.48746.00058.73054-.0118.47242-.024.61171-.15622.66713-.58705a2.50359,2.50359,0,0,1,.093-.35c.29755-1.07025.5746-2.14632.90179-3.20843a5.95776,5.95776,0,0,0,.50679-1.81732c-.00088-.07186.14392-.14542.221-.21815a.73764.73764,0,0,1,.07911.26793A5.27441,5.27441,0,0,1,76.405,24.227c-.46193,1.402-.88827,2.81023-1.22325,4.24656-.07917.33991-.09318.52907.22562.6473.32041.11881.545-.02811.66262-.423.19986-.67171.37358-1.35041.56158-2.02536a25.11668,25.11668,0,0,0,.93057-3.27483c.00743-.0536.08741-.09823.1334-.147.06269.05885.157.10838.18024.179a.54277.54277,0,0,1,.0032.30636c-.19231.67193-.40781,1.338-.59149,2.012q-.45866,1.68059-.87742,3.37069a.52125.52125,0,0,0,.15645.39336c.209.22228.43636.42906.65914.63973l.00678-.01354a.25762.25762,0,0,0,.161.12355c.00889.00412.0197-.00359.02887-.00082-.00868.01674-.02114.03654-.02928.0529.02529.0247.05112.049.07613.074.18509.1844.16371.11229.24788-.08723.14609-.34638.3132-.68484.48085-1.023a.22723.22723,0,0,0,.1247-.122c.07385-.173.1388-.34436.21-.516.00326-.00639.01054-.00695.01326-.01379a28.08086,28.08086,0,0,1,1.2114-2.694.234.234,0,0,0-.00911-.2177l.003-.00517c.027-.01893.05861-.02735.07813-.0614.10409-.18149.18689-.36828.277-.55314a39.02059,39.02059,0,0,0,1.67081-3.57593c.00652-.01444-.00127-.02681.00092-.04069,4.48776-8.194,9.1373-19.57772-3.29791-17.10287-2.6262.52263-5.31054,2.45677-7.96834,2.59919a3.14051,3.14051,0,0,1-1.0897-.14238,4.60652,4.60652,0,0,1,.58728.67537,4.77367,4.77367,0,0,1,.77572,1.60013c.02418.12976-.16437.22457-.23684.094a14.69514,14.69514,0,0,0-.81148-1.447c-.30929-.43294-.73375-.77585-1.03035-1.21566a8.43541,8.43541,0,0,1-.89781-.564c.06268.061.11753.1281.17832.19046-.04121-.02276-.07512-.052-.11876-.07244a.56817.56817,0,0,0-.2351-.05,3.23487,3.23487,0,0,0-.40085-.19715l-.03367-.01974-.0019.00409c-.02021-.00812-.03988-.01681-.05927-.02608C65.09846,4.09251,62.00986,3.16273,59.691,2.37424,57.701,1.69754,53.997.322,51.79988.48414a3.20653,3.20653,0,0,0-2.97864,2.32029,49.86194,49.86194,0,0,0,1.40212,11.91165A80.15634,80.15634,0,0,0,54.072,24.447Zm26.8624,15.57439a.42524.42524,0,0,0,.00252-.23046c-.10348-.52585-.24177-1.04718-.31368-1.57665a7.97813,7.97813,0,0,0-.79482-2.7847l-.03462-.06478c-.00884-.022-.01417-.0463-.02328-.06821-.02277-.05515-.04261-.101-.0638-.14446-.02252-.04945-.041-.09877-.06568-.14881l-.00053-.00135c-.00939-.01935-.01555-.03792-.0252-.0574-.01074-.02108-.03177-.02286-.04576-.03806-.02067-.03461-.03571-.06082-.06229-.10537l-.00431-.003c-.077-.1525-.16967-.29537-.25612-.44226a1.12333,1.12333,0,0,0-.14005-.37482c-.10663-.16582-.22245-.32642-.331-.49115a12.15712,12.15712,0,0,0-.66445-1.15808,12.00824,12.00824,0,0,0-.96621-1.28906c-.02016-.02635-.0501-.02753-.0746-.04416-.04734-.05139-.0917-.10385-.13715-.15593l.00842-.02A3.44986,3.44986,0,0,0,75.574,29.82049c-.2894-.11546-.448-.122-.57562-.018a.8493.8493,0,0,0-.62609-.006.57363.57363,0,0,0-.43715-.04747c-.39863.0696-.78424.2116-1.18391.26827-.9788.13894-1.5394.93-2.35061,1.3372a8.00473,8.00473,0,0,0-1.5057,1.22974,14.92156,14.92156,0,0,0-2.22246,2.40326,4.45174,4.45174,0,0,0-.50779.33041c-.73549.63-1.45646,1.27518-2.19168,1.90542a8.21561,8.21561,0,0,1-.91554.67415,8.78037,8.78037,0,0,1,1.57586.31731A10.95529,10.95529,0,0,1,70.73108,44.199c.05146.12107-.147.18591-.21307.08464a18.01041,18.01041,0,0,0-3.60808-4.17,8.878,8.878,0,0,0-2.48755-1.42738,11.00981,11.00981,0,0,0-1.944-.45634,11.50465,11.50465,0,0,1-2.23506.91466c-1.30319.38368-2.61842.73194-3.93472,1.07406-.687.17853-1.38529.31909-2.0822.46086a10.99806,10.99806,0,0,0-2.3735.544,4.15213,4.15213,0,0,1-1.54751.355,4.69125,4.69125,0,0,0-1.84161.47305c-.68145.30293-1.42515.48917-2.083.82863a7.70425,7.70425,0,0,0-2.44828,2.02366c-.41957.52081-1.08149.8849-1.24719,1.59049a2.65561,2.65561,0,0,1-.21984.48368,3.79765,3.79765,0,0,0,.56072-.35016c.10222-.08987.12022-.2602.1996-.38046a1.25018,1.25018,0,0,1,.28631-.32687c.3268-.23858.6657-.46293,1.0062-.684a3.27616,3.27616,0,0,1,1.05771-.57669c.70022-.1673,1.33939-.597,2.0419-.7148a16.35663,16.35663,0,0,1,2.23974-.16994c1.11393-.03037,2.23044-.02344,3.34445.01119a4.27068,4.27068,0,0,1,1.281.23587,21.37992,21.37992,0,0,1,2.06421.87582,6.06576,6.06576,0,0,1,1.822,1.25259c.48792.51373,1.01315.997,1.54109,1.47454a12.46176,12.46176,0,0,0,1.4579,1.22567c.07082.04549.14137.09137.21219.13687.08726.051.17344.10279.2661.15007.00241.00961.0067.01864.00937.02818,2.20028,1.41654,4.35489,2.861,5.61241,5.13554.583,1.05414,3.84737,6.01791,6.17722,4.57886.39723-.24537,1.56833-3.09814,1.842-3.63753.72584-1.43082,1.62606-2.80429,2.2619-4.27407,1.013-2.34058,1.58-4.85668,2.367-7.258a.19453.19453,0,0,1,.19483-.1209c.02122-.06706.04434-.13334.0591-.20317.11973-.56765.28853-1.12978.43414-1.691C80.95241,41.12681,80.71173,40.563,80.93444,40.02139Zm-38.707-8.73528c-.06537.12868-.12916.27227-.193.42054a7.42958,7.42958,0,0,1-.36051,1.01422c-.104.345-.2043.71668-.29506,1.14774-.13777.65423-.29206,1.33273-.40534,2.00712a.60409.60409,0,0,0,.08.42628c.20856.27737.42566.688.70551.74359.3656.07261.41819-.41154.53981-.68793a16.792,16.792,0,0,0,.92315-2.9335,4.4846,4.4846,0,0,0,.27691-1.5116c.01294-.09114.02208-.17973.0307-.27127a1.71547,1.71547,0,0,0,.0232-.68142c-.00234-.03206.00691-.06044.00322-.09308l-.00187-.00423c.00643-.08156.02445-.16053.02711-.24306a.31627.31627,0,0,0-.294-.30384.3321.3321,0,0,0-.19528-.00809l.00842-.02282c.01545-.024.02739-.04964.042-.07417a.29947.29947,0,0,0-.20924.063,1.34366,1.34366,0,0,0-.21991.21777,2.1322,2.1322,0,0,0-.53113.76619c-.01.0273-.01823.05677-.02774.08445C42.17765,31.32212,42.2044,31.30652,42.22739,31.28611Zm1.26175,3.96047a.18479.18479,0,0,0,.00884.31315c.31537.18777.60963.39871.91147.60116.10227.08621.20671.16936.31006.25525a.21754.21754,0,0,0,.15685.053c.75091.71837,1.50182,1.43546,2.30415,2.09664.21808.2495.45617.48364.69749.71791l.00108.00192.00968.00866c.07049.06853.14125.13636.21065.20636a9.56149,9.56149,0,0,0,1.59775,1.37629.23876.23876,0,0,0,.25678.01146.715.715,0,0,0,.17834-.008c.0307.01749.05978.03593.08887.05438-.00238-.02029-.008-.04385-.01062-.06459a.26157.26157,0,0,0,.06342-.00853l.00351.00008c.00863-.001.01725.00356.02562.00141A.22558.22558,0,0,0,50.387,40.856c.19858-.01372.36916-.243.17668-.38527-.01912-.01419-.035-.02268-.05278-.03469l.00216-.00262-.03663-.02a1.05022,1.05022,0,0,0-.11636-.06354l-.0132-.00727-.004-.00052c-.02263-.01011-.04337-.02072-.069-.0309l-.0035-.00276c-.00618-.00834-.00346-.01806-.01153-.026a13.76329,13.76329,0,0,0-1.92868-1.5927l-.00323-.003-.00027.00032c-.01508-.01022-.028-.02209-.04308-.03224l-.01024-.00221c-.32047-.29534-.66231-.56635-1.00875-.83419-.03309-.03221-.06537-.06647-.09846-.09829-.01264-.012-.028-.00859-.04149-.01739-.04442-.03333-.08235-.07247-.12731-.10529l-.00914-.00885-.00109.00108c-.01426-.0106-.02745-.02228-.042-.03281-.00861-.00617-.01645-.00126-.0248-.00583-.021-.01727-.04334-.0332-.06433-.05034a11.20913,11.20913,0,0,0-.88938-.78485c-.00913-.01538-.00585-.03335-.02091-.04689a9.61318,9.61318,0,0,0-1.23142-.98882c-.01184-.00745-.02157-.00185-.03316-.00687-.06705-.04274-.13923-.08261-.21034-.12273-.091-.06468-.1866-.12234-.2776-.1892-.00619-.00417-.01159-.00252-.01725-.0035-.09447-.07986-.18623-.16239-.28231-.24053-.0595-.04463-.11413-.09136-.17092-.13835-.18148-.12022-.42758.10259-.25049.25268Zm8.80954,1.94626a.17618.17618,0,0,0-.01445.15026c.053.15479.10219.31073.15463.46577a.98643.98643,0,0,0,.07983.39858.78052.78052,0,0,0,.09518.20834,11.89132,11.89132,0,0,1,.4423,1.4038.22662.22662,0,0,0,.43732-.11306c-.05371-.282-.12335-.55892-.186-.838-.00107-.0041.00245-.00607.00084-.0103l-.00857-.02421c-.02078-.092-.03941-.18464-.06128-.27632a.514.514,0,0,0-.06634-.29873,62.71307,62.71307,0,0,0-3.98383-10.31507.18152.18152,0,0,0-.25035-.09078.14487.14487,0,0,0-.08381-.03165c-.06855.01113-.17493.0443-.18827.08918-.08631.28609-.321.57451-.0639.86436-.00007.02489-.01307.04591.00034.07365.129.26358.27426.51659.41328.77336.127.31131.28858.70455.46336,1.10313a11.67374,11.67374,0,0,0,.91687,1.866c.08077.15462.1737.30223.24864.41761.09679.21442.18386.43233.28173.64713.07346.16176.14.301.20489.435.05411.13573.11255.27007.16747.40548.14265.40982.29292.79478.40663,1.03669a.40976.40976,0,0,0,.0571.12986c.10279.28776.19775.578.30782.865.0075.01992.0261.02452.03739.04.02536.097.05018.19408.07932.28987-.02874.05066.012.15379.09361.28812C52.28608,37.16171,52.29333,37.17709,52.29868,37.19284Zm3.1586-3.99109a13.891,13.891,0,0,0,.11341,3.75862c.01571.17452.012.35034.03335.52469v.00141a2.50213,2.50213,0,0,0,.59166,1.92286.21486.21486,0,0,0,.28243.00078c.306-.23692.19232-.47838.16957-.83675-.03436-.54709-.10191-1.09171-.17972-1.635-.02334-.43585-.07177-.86934-.13235-1.3021-.00675-.09395-.01378-.18783-.01945-.28184-.00154-.02809-.02119-.0419-.03192-.06356-.01131-1.85976.126-3.72257.11016-5.59a.22719.22719,0,0,0-.3053-.21718c-.01193-.17413-.32663-.21416-.35871-.02607-.00247.01554-.00359.03153-.00606.04714l-.00054-.00007-.00139.01343c-.00356.02111-.005.04267-.00854.06384a.16047.16047,0,0,0-.12559.152c-.00661.63284-.0898,1.25747-.09641,1.89024l.00161.00314c-.0193.34514-.03024.69151-.03525,1.03727C55.45072,32.84336,55.454,33.02252,55.45728,33.20175Zm4.96428,4.61439c-.01589.08992-.02505.182-.03285.27158-.00362.04069.09.12227.1429.12529a.20924.20924,0,0,0,.16915-.10248c.006-.0266.01309-.05313.01964-.07973.01067.04476.05165.05223.09325.03136a.08422.08422,0,0,0,.09673-.05694c.00464-.01931.0055-.03812.00987-.05736.006-.00843.02052-.00628.02137-.01869l.00231-.05508c.00326-.00831.01674-.00514.017-.01557.005-.05379.00083-.1071.00314-.16078a6.4361,6.4361,0,0,0,.07921-1.03522q.036-.58851.07259-1.177c.09689-.89364.21157-1.78436.31979-2.67509.19665-.87506.29625-1.77279.41337-2.667.1032-.53986.22392-1.07679.34545-1.61308.11477-.43611.21446-.87617.34271-1.30866.11083-.37374-.33191-.25244-.40744-.44908-.01082.01008-.02406.0192-.03542.02895a.12246.12246,0,0,0-.20324.03969c-.02421.07428-.04547.15094-.06968.22573-.00434.00741-.0138.01263-.01759.02036a.6.6,0,0,0-.036.15314c-.06014.19018-.123.37876-.17638.57133l-.00054.00051-.00082.004c-.00736.02622-.01229.05263-.01938.07891a17.15966,17.15966,0,0,0-.3947,1.86759,12.50721,12.50721,0,0,0-.34781,2.175,11.4336,11.4336,0,0,0-.15341,1.13752,14.802,14.802,0,0,0-.1832,1.76491c-.04281.36011-.0635.72009-.07124,1.08093-.01473.15729-.02514.312-.02392.45319-.01751.48-.00185.963.0112,1.412C60.40812,37.79953,60.41782,37.80538,60.42156,37.81614Zm2.835-11.238a1.25947,1.25947,0,0,0,.91116-.06511,1.48324,1.48324,0,0,0,.41181-1.90511c-.38259-.36519-.7457-.7515-1.15209-1.09161A4.26508,4.26508,0,0,0,59.341,22.607a.48185.48185,0,0,0-.39713.60373,2.76992,2.76992,0,0,0,.76887,1.2434,6.45291,6.45291,0,0,0,1.393,1.06688A9.27875,9.27875,0,0,0,63.25657,26.57813Zm-6.42686-8.23746c-.24417.1118-.48915.22143-.74756.31355-.0243.0087-.0338.02774-.05514.03882-.054.00324-.10737.00347-.16051.00288a10.49094,10.49094,0,0,1-.1263,2.55079,28.51688,28.51688,0,0,1-.1409,4.31508.10446.10446,0,0,1-.05847.07316l.00108.00039c.08164.03368.17056.06931.28428.11416a.28846.28846,0,0,0,.21634-.0001c.07408.03782.129.0644.18293.08784.05413.03265.10826.06582.16212.09892A24.08162,24.08162,0,0,1,56.82971,18.34067Zm1.67612-4.32107c-.017.01333-.03568.024-.05271.03741-.01162.00906-.0095.02115-.01789.031a1.144,1.144,0,0,0-.16837.11362c-.29989.261-.5874.53564-.86873.815a7.939,7.939,0,0,0-1.73744,2.40671c-.20523.46549-.09569.654.42224.65579a1.63934,1.63934,0,0,0,.87463-.21864.14974.14974,0,0,1,.07245-.05534,1.38737,1.38737,0,0,0,.17653-.13733c.30349-.29489.59864-.60036.92741-.86818a1.06,1.06,0,0,0,.233-.26405c.44522-.53188,1.392-1.2783,1.62584-2.04686.065-.07986.12535-.16313.19139-.242.23141-.2766.37028-.84151.18742-.94963a1.01452,1.01452,0,0,0-.86894.20957.22317.22317,0,0,0-.25137-.01625,6.79925,6.79925,0,0,0-.73654.52288l-.00946.00573ZM52.88635,27.11168c.01574.06435.93557.66706.98963.7232a1.302,1.302,0,0,0,.915.411c.174.09518.34611.19105.52794.2828a7.78234,7.78234,0,0,0,.912.42065c.10751.046.21449.08857.32335.13142.15252.05987.305.11934.45728.18234l.00081-.0023c.01752.007.03368.01654.05119.02337.02237.00857.03993-.00213.0599-.00342a1.86624,1.86624,0,0,0,.26.1054c.55835.21166,1.11126.44014,1.68185.617a.40594.40594,0,0,0,.499-.54408,4.16573,4.16573,0,0,0-.63046-1.06015,8.69513,8.69513,0,0,0-3.63709-2.26689,9.07373,9.07373,0,0,0-1.165-.31444,1.44952,1.44952,0,0,0-1.50768.19353C52.2874,26.46079,52.82394,26.85526,52.88635,27.11168Zm1.14427,3.42621a5.20534,5.20534,0,0,1,.294.90675,8.98665,8.98665,0,0,0,.38471,1.54651,3.19576,3.19576,0,0,1,.20967.75258c-.01453-.49969-.01314-1.00061-.00258-1.50252-.00647-.00137-.01458.00456-.01294-.00343.00821-.04336.00618-.08854.01278-.13222.00151-.061-.00236-.12151-.00031-.18254.00059-.01625.01624-.01935.02113-.03187.06558-.69263-.01093-1.41035.06409-2.09969a5.84658,5.84658,0,0,1,.07159-.72019c-.00564-.00807-.00426-.02055-.01044-.02837-.00507-.02132-.029-.037-.046-.05547-.01506-.01559-.02931-.03169-.04546-.04671l-.00349-.00353-.00162-.0007c-.03767-.03479-.07669-.06894-.11868-.10194a2.951,2.951,0,0,0-.39054-.22323l-.00983.04534c-.1609-.05464-.32179-.11018-.48323-.16373-.03423-.01142-.0572.00534-.08554.01026a.09888.09888,0,0,0-.09468-.00091c-.28339-.24206-.74279-.34-1.09741-.77013.04929.12593.0959.24442.142.36094a.39317.39317,0,0,0-.08369-.07158.06242.06242,0,0,1-.02462.02617c.0091.02607.01873.05207.0281.078.1237.23785.23741.48239.34678.72915.0801-.0907-.02439-.15484-.07717-.28551-.0568-.1406-.12162-.304-.1894-.47624.01236.01724.03743.02672.04627.04619C53.24275,28.94451,53.6568,29.73425,54.03062,30.53789ZM17.58768,25.00938a.051.051,0,0,1,.00413.06879,5.03438,5.03438,0,0,1,.64827.18076c1.082.385,2.164.77686,3.21753,1.22606.82665.35254,1.61259.7923,2.4121,1.20144,1.04491.53485,2.07654,1.09379,3.13041,1.61216a11.89364,11.89364,0,0,1,2.33636,1.56714A12.55173,12.55173,0,0,0,31.2647,32.234a13.05449,13.05449,0,0,1,3.38808,2.66488,23.15894,23.15894,0,0,1,2.21338,2.921c.76423,1.16917,1.45767,2.3764,2.26025,3.529A36.6011,36.6011,0,0,1,40.946,44.65363c.24721.44735.532.87657.81483,1.305a.286.286,0,0,0,.24875.08706c.22547-.08063.46237-.6827.43157-.95733a7.00324,7.00324,0,0,0-1.15345-2.6434c-.30364-.52877-.65-1.03532-.96709-1.55728-.02954-.04871.01251-.13682.02161-.2066.05765.02972.13637.04561.16969.09132a13.36838,13.36838,0,0,1,2.23078,3.84639,1.57023,1.57023,0,0,0,.24069.365c.058-.10618.11228-.21435.17461-.31815.16776-.27933.023-.52607-.014-.80725a6.87529,6.87529,0,0,0-1.05679-2.38112c-.33981-.61812-.73553-1.2085-1.10315-1.81294-.13911-.22855-.27064-.46124-.4011-.69418a.875.875,0,0,1-.05458-.16356c.07363.00468.184-.0185.21522.01838a8.86677,8.86677,0,0,1,.69649.887q.65391,1.01616,1.25757,2.06086a12.29312,12.29312,0,0,0,.59216,1.15647,1.61816,1.61816,0,0,1,.26817,1.06011.75528.75528,0,0,0,.06039.20728,1.61253,1.61253,0,0,1,.11852-.22841,2.03988,2.03988,0,0,1,.17014-.166c.15693-.1695.43606-.34078.43681-.5127a1.62424,1.62424,0,0,0-.30127-.79774c-.77723-1.24567-1.54284-2.50013-2.38655-3.70471a.58157.58157,0,0,1-.02923-.06387c.02023.00133.04287.00779.06256.00778a2.88669,2.88669,0,0,0,.25732.208l.01508.00747.025.03033a.31829.31829,0,0,0,.08882.07165c.13284.15073.27488.29464.4234.434.79466.99189,1.37505,2.11224,2.09,3.15178.08732.12712.2063.31543.32416.325.19984.0163.50245-.44815.43607-.637a6.05482,6.05482,0,0,0-.37123-.85962c-.58453-1.08735-1.18445-2.16713-1.77194-3.25314-.05019-.093-.09362-.28991-.06444-.30474.20369-.1036.18862.07494.28543.1843a19.08385,19.08385,0,0,1,2.09827,3.67191c.10415.18732.0979.49755.487.45256a1.32792,1.32792,0,0,0,.91347-.50812c.04737-.05886-.05164-.25236-.12093-.3626-.741-1.18107-1.492-2.35661-2.23406-3.537a5.223,5.223,0,0,1-.33758-.64134c-.02333-.05183.03383-.13632.05425-.20581a.999.999,0,0,1,.17095.12505,17.56216,17.56216,0,0,1,2.35721,3.48759,6.81044,6.81044,0,0,0,.34784.63677.76788.76788,0,0,0,1.06037.217.394.394,0,0,0,.22588-.51975c-.14384-.27284-.31225-.53416-.48337-.794-.0043-.00667-.00212-.01332-.00777-.01986l-.01641-.01707q-.11563-.17508-.23048-.35062c-.03492-.05346-.112-.08208-.16961-.12217-.00381.01381-.00655.02775-.01117.04156-.07853-.08819-.156-.17709-.2391-.26184-.0086-.00873-.0194-.00485-.02883-.01109a1.11256,1.11256,0,0,0-.31808-.37761c-.92763-.80434-1.86419-1.59962-2.79588-2.4l-.00081.00038a2.03706,2.03706,0,0,1-.53043-.35913l-.0175-.01189a1.88855,1.88855,0,0,1-.53451-.3491,1.5728,1.5728,0,0,0-.11436.18971c-.13216.283-.21043.59107-.362.86316a1.1166,1.1166,0,0,1-1.30413.62355,1.56381,1.56381,0,0,1-.80971-1.10947,6.78362,6.78362,0,0,1,.40706-2.62609c.12-.35644.25877-.70668.39624-1.05769a9.38046,9.38046,0,0,1,.51746-1.48515,2.243,2.243,0,0,1,.56646-.86253c.13552-.134.40423-.43671.64874-.47577.00377.0002.00673.00335.01078.003.02428-.00179.04669-.00954.07071-.01209a.26742.26742,0,0,1,.16812.07673l.01843-.03264.05527-.08546c.099-.01847.20024-.02984.299-.05119a.1658.1658,0,0,1,.1145.05554c.022.03365.04324.06755.06473.102a.3332.3332,0,0,0,.10141.10252.81261.81261,0,0,0,.16582.41949c-.33026.61281-.07316,1.28592-.22167,1.92348a12.71864,12.71864,0,0,0-.26134,1.83061.48291.48291,0,0,0,.02479.10455c.02345.00755.045.02482.06843.03352.00971.00157.01862-.00148.02912.00507.01481.00926.028.02094.04281.03026a3.39916,3.39916,0,0,1,.96923.68545c.45227.33332.89265.67538,1.32166,1.03353a.24443.24443,0,0,0-.01363-.04738l-.01343-.02109a2.72952,2.72952,0,0,0,.58288.41462l.03985.02878.00161.00052c.02019.0179.04036.03754.05812.05352.33341.29736.67007.59165,1.00429.888a12.26521,12.26521,0,0,1,1.36986,1.15946c.04207.00433.08766.00516.12783.01161a1.11782,1.11782,0,0,0-.09-.218c-.43149-.63155-.86918-1.25929-1.29986-1.89123a1.06367,1.06367,0,0,1-.15691-.32393.20172.20172,0,0,1,.0844-.18353.23063.23063,0,0,1,.20919.05279,31.96556,31.96556,0,0,1,1.87629,2.97722,7.55478,7.55478,0,0,0,1.40739,1.54039c.02367.02495.07492.02637.11346.0387a.366.366,0,0,0,.04-.13726.5494.5494,0,0,0-.07233-.2784,24.34482,24.34482,0,0,1-2.00472-3.16421q-.9564-1.52029-1.89308-3.05148a.81065.81065,0,0,1-.057-.26249c.11215.02283.28376.00968.327.074.43628.65153.85582,1.31332,1.27211,1.97683q1.383,2.2052,2.75792,4.41518c.02525.04057.02534.10571.0598.12883.10286.069.21709.12288.327.18262.02842-.13492.13117-.318.07393-.39758-.99159-1.37928-1.40086-3.01947-2.2358-4.46786a1.79589,1.79589,0,0,1-.11668-.53164c.14558.13054.3468.23565.42782.39558.61118,1.20412,1.19751,2.4197,1.79572,3.62974.09657.195.21529.38015.32294.57009.08939.15714.17744.31465.26629.472a1.79792,1.79792,0,0,0-.00408-.57138c-.46189-1.33949-.92514-2.6793-1.43158-4.00406-.2563-.671-.63546-1.29941-.90175-1.96762a24.97469,24.97469,0,0,0-1.78339-3.40379,3.76,3.76,0,0,1-.1978-.46384q-.088-.20947-.17688-.41862a4.00934,4.00934,0,0,0-.30644.38452c-.28154.45548-.5418.92318-.82981,1.37494a1.72769,1.72769,0,0,1-1.10985.5077.951.951,0,0,1-.67989-1.0363,12.33621,12.33621,0,0,1,.88346-3.99048c.33033-1.02762.72509-2.03663,1.09612-3.05236a1.204,1.204,0,0,1,.24233-.51765,2.037,2.037,0,0,0,.46028-.51117.2819.2819,0,0,0,.1136-.00966c.06184-.02594.114-.045.17121-.06895a1.052,1.052,0,0,1-.32907.863,1.51892,1.51892,0,0,0-.32386.64117A34.7573,34.7573,0,0,1,46.315,27.88617a11.354,11.354,0,0,0-.41573,2.44275l-.00708.02372c-.00354.01221-.00114.02207-.0036.0339q-.01962.07068-.03869.14148a.32279.32279,0,0,0,.08541.32656c.03866.06837.0873.13665.12487.205a1.26121,1.26121,0,0,1,.10005-.08571.35714.35714,0,0,0,.43716-.2482c.01825-.0647.047-.12272.06634-.18594a1.13676,1.13676,0,0,0,.08534-.13355.36846.36846,0,0,0,.17837-.117c.3676-.65328.74356-1.30409,1.06886-1.97649.20891-.43163.33726-.89841.58367-1.42668a7.1543,7.1543,0,0,0,.61334-2.01255,3.14259,3.14259,0,0,0-.0388-1.57544.37512.37512,0,0,0-.09191-.1231l-.0016-.00679c-.00988-.03662-.01441-.05852-.02589-.10193-.00534-.01985-.02231-.02962-.03143-.04673-.01046-.02268-.01283-.04086-.02464-.06456a.26486.26486,0,0,0-.16636-.12491c-.00809-.00418-.01346-.0122-.02181-.01548a.3555.3555,0,0,0-.27027-.10837.33085.33085,0,0,0-.17816.04385c.00162-.09828.00432-.19661.00189-.29464a.25712.25712,0,0,0-.0214-.06571,1.80418,1.80418,0,0,1,.55151-.14083.67513.67513,0,0,1,.207.14351c.02476.02067.04654.04473.07212.06469a1.581,1.581,0,0,1,.524,1.70309,2.47847,2.47847,0,0,0-.02861.68614,4.44381,4.44381,0,0,1-.373,1.71224,1.20174,1.20174,0,0,0,.01335.82638c.22945.5292.55207,1.02193.835,1.53036a23.58842,23.58842,0,0,1,1.21772,2.61856c.44289,1.09.96139,2.15377,1.3654,3.25591a14.74314,14.74314,0,0,1,.99187,3.71582c.03665.402.23142.78891.30423,1.1908.06589.36329.22076.35111.51651.22051.22607-.09976.51332-.08291.727-.19633A.36287.36287,0,0,0,55.361,39.607c-.00187-.00641-.00942-.008-.01048-.01507-.071-.468-.16478-.98842-.22485-1.50647a10.51628,10.51628,0,0,1-.26926-2.22614.09524.09524,0,0,1-.08551-.09749c.00264-.07594.01337-.151.019-.22658-.01021-.01506-.02773-.02061-.0355-.03887a4.47849,4.47849,0,0,1-.25783-.80082c-.16119-.72819-.27919-1.46465-.46062-2.18854a9.18141,9.18141,0,0,0-.493-1.42614c-.24553-.56482-.51186-1.123-.77494-1.68228a1.21677,1.21677,0,0,1-.34932-.59224c-.01416-.05046-.034-.10157-.05-.15223-.06658-.11637-.14335-.2553-.23-.42126-.008-.14865-.02238-.29739-.033-.44612-.00934-.03912-.02568-.07781-.03286-.117a.097.097,0,0,1,.01855-.07341c-.02-.2604-.03741-.52067-.058-.78113-1.44872-6.67887-8.49581-20.34861-16.69345-16.48307-.47215.22257-4.32372,2.92856-7.45253,4.44135a17.40735,17.40735,0,0,1,7.90972,7.06882c.105.18393-.16788.32592-.29124.16044-3.68257-4.93889-7.94017-7.962-14.47726-7.66613-3.85642.17455-6.73,1.97507-5.70815,5.955A10.3015,10.3015,0,0,0,17.58768,25.00938ZM7.27472,53.07664a5.18451,5.18451,0,0,0-2.27219-.58047.55312.55312,0,0,0-.38-.02825.94868.94868,0,0,0-.327.01419.42029.42029,0,0,0-.1262-.0164l-.00351.00069c-.0054.0003-.00944-.00233-.0151-.0019-.03562.00285-.06291.0189-.09745.02373a1.19321,1.19321,0,0,0-.23377.05693A1.44815,1.44815,0,0,0,2.779,53.74248a1.35824,1.35824,0,0,0,.19158.95413,1.52022,1.52022,0,0,0,.514.92234.79018.79018,0,0,0,.39421.15913l.00054.00057.00027.0002c.05654.0411.11875.07864.17907.11726a1.88793,1.88793,0,0,0,.20138.04394,2.55064,2.55064,0,0,0,1.89308-.45294,2.563,2.563,0,0,0,.90019-1.657A4.26281,4.26281,0,0,1,7.27472,53.07664Zm8.713,1.239.05539-.031a3.0373,3.0373,0,0,0,1.399-.22442,2.62953,2.62953,0,0,0,.9902-.262c.11847-.01675.23747-.02813.35514-.04911a14.96357,14.96357,0,0,1,5.19468-.74855c.00566.00021.00348.00744.0086.00847a1.92268,1.92268,0,0,1,.32131-.00666c1.17677.16309,2.34775.37671,3.51.61865a11.08041,11.08041,0,0,1,4.55444,1.72161c.76211.56958,1.69983.94513,2.39839,1.56943a25.63,25.63,0,0,0,4.09258,2.6095c.35711.21469.78871.315,1.16179.50977a5.92367,5.92367,0,0,1,1.60729.952c.58366.621,1.42722.80573,2.047,1.3371a5.95823,5.95823,0,0,0,1.0331.61358c.05064.02784.14409-.01451.21777-.02435a.60771.60771,0,0,0-.10071-.16229c-.35742-.29736-.71294-.59734-1.08308-.88021-.4657-.3562-.94546-.69626-1.4182-1.04455-.86362-.63633-1.73753-1.26125-2.58627-1.9152a12.93579,12.93579,0,0,1-1.36992-1.23777c.37642.2555.74119.528,1.13088.76344a32.92779,32.92779,0,0,1,4.25919,3.1311.65354.65354,0,0,0,.22775.07076c-.01788-.06992-.012-.16178-.0577-.20631-.47-.45974-.91725-.947-1.43108-1.35881-1.05889-.84828-2.157-1.65245-3.23429-2.48-.61213-.47024-1.21479-.952-1.8234-1.42637-.26272-.20458-.54032-.39314-.78979-.6108-.0775-.06746-.08521-.20677-.12484-.31322.1119.02021.2514.00671.33163.06586.78016.57545,1.55925,1.15256,2.321,1.74959,1.31868,1.03359,2.62438,2.08186,3.93658,3.123a1.918,1.918,0,0,0,.17207.10976c.0178-.09631.08586-.22415.04475-.28364a4.78307,4.78307,0,0,0-.69379-.88668c-.99163-.87913-1.99028-1.75379-3.0298-2.58065-1.05809-.84168-2.15434-1.64182-3.259-2.42887-1.03007-.73411-2.098-1.42048-3.13622-2.14508a2.19655,2.19655,0,0,1-.39115-.48684,3.221,3.221,0,0,1,.61031.25052c1.47176.99274,2.93214,2.001,4.40092,2.9977.30587.20745.65641.35942.94523.58455.45464.35451.86842.75593,1.31088,1.12538.535.44681,1.09309.86917,1.61785,1.32644a6.59157,6.59157,0,0,1,.528.63893c.03873.04374.14206.03609.21566.0521-.02488-.073-.04545-.14767-.07519-.21884a5.41971,5.41971,0,0,0-1.706-2.42028c-.62832-.46754-1.1302-1.10326-1.79322-1.51113a50.05494,50.05494,0,0,1-4.265-3.47746.38063.38063,0,0,1-.11245-.11055,2.41156,2.41156,0,0,1-.09881-.26325.86312.86312,0,0,1,.22852.08509c.57257.43514,1.1492.866,1.70716,1.31773,1.16679.94481,2.3233,1.90085,3.48305,2.85363.42041.34565.837.6959,1.258,1.04136a.3154.3154,0,0,0,.11375.03192c.01334-.04635.04964-.101.03517-.13721a.59135.59135,0,0,0-.12871-.18111c-.74646-.76647-1.47588-1.54864-2.24614-2.29279-1.82947-1.76729-3.679-3.51576-5.51734-5.27469a1.6695,1.6695,0,0,1-.19132-.27221,1.36184,1.36184,0,0,1,.43631.05861,1.66472,1.66472,0,0,1,.35061.31992q3.10669,2.964,6.211,5.93015c.16466.15759.28793.35347.44474.51949a.89589.89589,0,0,0,.237.1299.70739.70739,0,0,0,.05009-.26072,3.51194,3.51194,0,0,0-.71641-1.19444,38.50708,38.50708,0,0,0-3.08335-3.50413c-.57306-.65121-1.25209-1.21895-1.88976-1.81813-.19534-.18366-.42313-.33708-.61414-.52451-.06671-.06577-.06771-.19207-.09873-.29069.09271.02886.21221.03213.27409.09046.96161.90617,1.91538,1.81949,2.87077,2.73108.19183.18294.37825.37176.57982.54424.04333.03691.14294.01448.21657.01935a.56328.56328,0,0,0-.05431-.16292c-.33862-.46168-.71777-.90031-1.01667-1.3837a19.54825,19.54825,0,0,0-2.66994-3.36011c-.65313-.669-1.39169-1.2651-2.113-1.87116-.4691-.394-.97148-.75283-1.46736-1.11718-.69807-.5129-1.39045-1.03391-2.10963-1.51911a28.56839,28.56839,0,0,0-2.49253-1.57711,26.77765,26.77765,0,0,0-2.66791-1.17137,12.56536,12.56536,0,0,0-2.05849-.6964c-.86165-.18077-1.7547-.22592-2.63272-.34071-.07416-.00968-.13621-.10224-.204-.1563.0727-.04913.14958-.14553.21781-.14022.733.05731,1.47237.089,2.19445.2105a11.70643,11.70643,0,0,1,2.37892.71341,23.46262,23.46262,0,0,1,4.92115,2.3638c.96252.675,1.90473,1.37707,2.83964,2.08648.92253.70023,1.84721,1.40091,2.72942,2.14562a18.16656,18.16656,0,0,1,2.3733,2.54658c.92372,1.14524,1.74179,2.35307,2.54256,3.57385.38951.59356.75578,1.20062,1.1461,1.79368.03707.05641.169.05664.25712.08293.00307-.03646.0237-.08465.0065-.10767-.28891-.38962-.13587-.81-.1091-1.224a.62893.62893,0,0,0-.0813-.35169,10.83684,10.83684,0,0,0-.80587-1.23051C38.6416,48.38,37.741,47.2783,36.78,46.22759c-.916-1.00157-1.89748-1.95021-2.87-2.904-.9642-.94572-1.953-1.86892-2.931-2.802a4.07948,4.07948,0,0,1-.396-.3891c-.0465-.0588-.01786-.17133-.02329-.25945a1.2789,1.2789,0,0,1,.17155.10394c.478.40083.98058.77934,1.42529,1.21124q2.60616,2.53126,5.17714,5.09493a16.05434,16.05434,0,0,1,1.309,1.4991c.56556.72579,1.08788,1.48166,1.63587,2.22a.2465.2465,0,0,0,.1986.0772.20708.20708,0,0,0,.11831-.15336.887.887,0,0,0-.0025-.4596,8.83265,8.83265,0,0,0-.99023-1.77258c-.91716-1.08238-1.91377-2.10759-2.921-3.11716-1.08439-1.08643-2.2134-2.13274-3.33457-3.18561-.25937-.24373-.58366-.42481-.846-.66624-.64416-.59279-1.27047-1.20294-1.89867-1.81112-.02718-.02624-.00053-.10237.001-.15528.0534.00194.12548-.0168.15778.009.38491.30627.77441.60819,1.142.93252.90472.79852,1.82458,1.58377,2.69116,2.41853q2.5025,2.41071,4.946,4.876a8.78591,8.78591,0,0,1,.81035,1.07268c.14969.20554.28776.41886.43123.62874a2.62813,2.62813,0,0,0,.2938-.69385.85872.85872,0,0,0-.13755-.78968c-1.09429-1.21385-2.1345-2.47182-3.23528-3.68038-1.06474-1.1691-2.16922-2.30633-3.27641-3.43959-.60982-.62406-1.264-1.20907-1.89165-1.81763a1.14119,1.14119,0,0,1-.15759-.27134,1.3463,1.3463,0,0,1,.33249.14015c.42313.33631.84815.67174,1.24721,1.03262a53.38205,53.38205,0,0,1,4.199,4.3161c.40123.45488.75946.94368,1.15554,1.403q.87687,1.01659,1.78619,2.00762a1.40721,1.40721,0,0,0,.44424.21295c.07036-.17877.15124-.35475.20408-.53811.01607-.05613-.04576-.13251-.072-.19957a.6379.6379,0,0,0-.0812.19447c-.02786.514-.24575.29115-.42486.09192a2.21127,2.21127,0,0,1-.38748-.5432,15.033,15.033,0,0,0-1.29227-2.6837,3.99852,3.99852,0,0,0-.36649-.5292,9.01205,9.01205,0,0,0-.64856-1.14748,9.99191,9.99191,0,0,0-.5814-.85246c-.043-.06327-.08-.12575-.12221-.18883l.07039.00551a.32288.32288,0,0,1-.15061-.16659c-.651-1.03519-1.26828-2.09141-1.96389-3.099a19.10842,19.10842,0,0,0-1.90346-2.42217,24.75073,24.75073,0,0,0-2.47663-2.15266c-.69311-.55077-1.452-1.02679-2.17592-1.54329a15.79722,15.79722,0,0,0-1.74027-1.24827c-1.965-1.02936-3.98728-1.96074-5.94446-3.00243-.78708-.419-1.65986-.57373-2.45034-.93275a8.45467,8.45467,0,0,0-3.13906-.72946,6.95032,6.95032,0,0,0-2.90223.3509,4.43537,4.43537,0,0,0-1.40708.489c-.03241.01642-.067.02893-.09886.04656l-.01162.00976a.92266.92266,0,0,0-.09571.07683l-.01216.00771a2.11856,2.11856,0,0,0-.62532.394,3.07231,3.07231,0,0,0-.98766,1.19471,3.311,3.311,0,0,0-.27037.70908,2.49723,2.49723,0,0,0-.31543,1.1965,4.48091,4.48091,0,0,0-.14685.52566,5.01771,5.01771,0,0,0-.08363,1.75138c.002.04537,0,.09079.0034.1361a.668.668,0,0,0,.02509.09617c.00371.02727.00849.05479.01219.08206-.26771,2.37655-.47683,4.92679-1.27988,6.28427a5.71619,5.71619,0,0,1,.78054-.53357,10.9816,10.9816,0,0,1,1.32285-.56834,9.84852,9.84852,0,0,0,1.91-.5243c.14513-.0966.3204.1245.18765.232-.71782.5816-1.96888.64935-2.82586,1.02172-.662.28744-1.1798.73286-1.8179,1.06976a1.807,1.807,0,0,1-.28329.1099c-1.41905,1.21092-3.27189,1.74817-4.46275,3.35776A11.79033,11.79033,0,0,0,.65291,48.80214c.00156.02253.002.04518.00359.06777.03161.27586.05863.5517.07675.82854a.08323.08323,0,0,1,.08371.06434l.00317.026H.8204l.00052.00615c.08976.51154.12987,1.02991.20856,1.5443l.0265-.023a7.57105,7.57105,0,0,0,1.23889,3.06266l-.00639-.03322c-.74484-1.34795.93487-2.39115,2.86242-2.33655,2.02924.05751,3.41279,1.1465,5.31959,1.77709A13.938,13.938,0,0,0,15.98776,54.31563ZM19.47434,75.569a10.019,10.019,0,0,1-1.41545-3.01247,5.90948,5.90948,0,0,1-.233-3.1323c.03577-.15647.067-.31417.09923-.47154a5.45714,5.45714,0,0,0,.72754-1.364c.096-.36764.19627-.73475.26608-1.107.00521-.02769.00906-.05653.014-.08435A5.19906,5.19906,0,0,1,19.074,65.254c.00545-.02116.01468-.04187.02068-.063a4.3942,4.3942,0,0,1,.19315-1.075,2.129,2.129,0,0,1,.47248-1.2136A2.69973,2.69973,0,0,1,20.634,61.8366a.63806.63806,0,0,0,.0512-.17466c.01971-.00609.04049-.00987.05967-.017a4.99908,4.99908,0,0,0,.8299-.33669,1.59692,1.59692,0,0,1,.942-.2793c1.146.06287,2.294.10227,3.43977.17243a1.30461,1.30461,0,0,0,1.11478-.43743,4.31521,4.31521,0,0,0,1.12676-1.64784c.25874-.89057,1.76067-1.44178,2.8682-1.113.62182.18452,1.21868.52119,1.81466.68549A17.87526,17.87526,0,0,1,35.52,59.94337a17.49009,17.49009,0,0,0,2.44276,1.137,6.024,6.024,0,0,1,1.40646.50834,12.26128,12.26128,0,0,0,2.57446,1.21321,3.10828,3.10828,0,0,1,1.11649.6014,10.64713,10.64713,0,0,0,2.06828,1.25462c.48483.26367.95666.54874,1.43635.82117a.84969.84969,0,0,0,.172.05409c.00769-.04867.03867-.1285.01955-.14135-.49086-.33087-.59367-1.00093-1.22781-1.21741a10.07885,10.07885,0,0,1-2.18789-1.506,12.84481,12.84481,0,0,0-1.49089-.902c-.24462-.11841-.52882-.16424-.77262-.28425-1.52233-.74994-3.039-1.51087-4.55588-2.27084a1.58536,1.58536,0,0,1-.31829-.20326,27.66563,27.66563,0,0,0-2.43855-1.878,25.00507,25.00507,0,0,0-5.24428-2.57066c-.19915-.07534-.40075-.139-.60427-.19407a.405.405,0,0,0-.09235-.06161,8.42528,8.42528,0,0,0-2.86011-.54359c-.017-.006-.02071-.02156-.04039-.02532a10.15074,10.15074,0,0,0-3.49606-.00949,5.76824,5.76824,0,0,0-1.67513.36313,14.05922,14.05922,0,0,0-2.35507.60963,12.14475,12.14475,0,0,0-1.54725.55173,10.34851,10.34851,0,0,0-2.81194,1.44879,1.61718,1.61718,0,0,0-.27969.17953,3.2505,3.2505,0,0,0-1.7142,1.80495c-1.40341,2.57745.43353,6.22158.28164,8.956a11.04953,11.04953,0,0,1-.28842,1.86828c.11671.71521.23017,1.4361.36013,2.14181a15.68355,15.68355,0,0,0,2.51274,6.15772c.10236.15135-.14632.335-.26516.19282a12.66376,12.66376,0,0,1-2.744-6.22216c-.05872-.323-.12386-.666-.18979-1.01613A19.45783,19.45783,0,0,0,9.6373,75.75952c-.08195,5.627,4.51846,8.6702,9.6519,10.16275a.233.233,0,0,1,.10874.08553,4.99175,4.99175,0,0,0,1.07527.09537c.03885.09525.0885.18707.13221.28061,1.78554-.09755,3.5357-.08164,5.1051-1.0339.79929-.48515,1.84252-1.291,1.82423-2.28222-.02561-1.37155-2.77724-2.80216-3.812-3.50474-.06193-.04208-.11709-.09163-.1782-.13473-.04217.02823-.08809.05184-.12944.08128-.077-.0569-.14939-.119-.22855-.17371a9.283,9.283,0,0,1-1.80475-1.43841c-.08524-.099-.1694-.19958-.25464-.29867-.08076-.05775-.155-.12347-.23689-.17943-.04092-.02794-.01789-.06537.01883-.076C20.41517,76.76691,19.9242,76.1856,19.47434,75.569Zm.03216-10.44228c-.09672.24562-.20314.48839-.28422.73854-.025.07715.01921.17447.03165.26254.07368-.01489.17077-.00637.217-.04834a3.86715,3.86715,0,0,1,1.36717-.98546c.06777-.02182.093-.16226.13772-.24774-.08838-.03442-.18367-.10884-.26409-.09652A3.29918,3.29918,0,0,0,19.5065,65.12669Zm.4606,10.37512a.29049.29049,0,0,0,.05839.05282.07846.07846,0,0,0,.054-.00676,6.36319,6.36319,0,0,1,.07215-.823c.02077-.09751.15467-.13374.02479-.28216-.19657-.22461-.2445.13484-.38131.05212-.05071.09545-.16568.21215-.14.28235C19.72847,74.97725,19.85934,75.15837,19.9671,75.50181ZM64.84993,93.91258c-.14433-.192-.30109-.3745-.44542-.56659-.01049-.014-.02477-.01946-.03579-.032-.01581-.04042-.03917-.07874-.05254-.11973a12.56929,12.56929,0,0,1-.64982-3.22629,2.53646,2.53646,0,0,0-.01184-.69272,14.19614,14.19614,0,0,1-.47583-2.44381c-.13977-.76543-.28467-1.53261-.48625-2.28484a14.71128,14.71128,0,0,0-1.225-3.31132,16.61981,16.61981,0,0,0-1.49482-2.40281,5.86547,5.86547,0,0,0-1.197-1.43865.59077.59077,0,0,0-.28476-.13336c-.59258-.61466-1.18218-1.232-1.818-1.803-1.01447-.91073-2.15716-1.69295-3.17109-2.6042-.9515-.855-1.7948-1.81729-2.7087-2.711a42.26188,42.26188,0,0,1-3.39-3.93578.657.657,0,0,0-.44982-.24234.9378.9378,0,0,0-.17681.04034,2.024,2.024,0,0,0-.58486-.28373c.18318-.10026-.08972-.235-.16595-.27347-.65891-.33294-1.32866-.64722-1.9976-.96266a.65792.65792,0,0,0-.15147-.14694,8.15,8.15,0,0,0-1.04359-.623c-.07919-.33625-.4279-.369-.73006-.453-.05984-.01777-.11669-.04364-.17571-.06364a.66744.66744,0,0,1-.09267-.0453c-.011-.00733-.03129-.00239-.04585-.00493-.14714-.05383-.29727-.09923-.44115-.1599a.5842.5842,0,0,0-.33117-.03329,23.08229,23.08229,0,0,0-3.67661-1.637,26.03123,26.03123,0,0,0-4.0389-1.24088,33.9027,33.9027,0,0,0-3.57487-.578c-.08416-.00247-.166-.07487-.24867-.11483.08515-.0633.16909-.1799.25542-.18139a4.8563,4.8563,0,0,1,1.864.21,19.8693,19.8693,0,0,0,1.95852.56054.8067.8067,0,0,0,.30145-.04677c-.0815-.0857-.14563-.21039-.24722-.25066-.60252-.23931-1.22647-.4333-1.819-.69229a3.42091,3.42091,0,0,0-2.63023.02957c-.3697.239-.40737.59571-.63959.87083-.393.46593-.20237.79712.43923.85648.34008.03153.68426.04112,1.0186.101.6018.10776,1.19731.24754,1.79611.3709.92421.19029,1.85442.35583,2.77127.57348.83328.19784,1.65863.43232,2.4753.68578.7164.22241,1.416.49314,2.12283.74367.09352.03321.18432.073.27647.10973-.125.02518-.27247.10462-.3711.0673-1.29672-.49133-2.67046-.73866-3.99008-1.14643a41.82591,41.82591,0,0,0-4.77216-1.02645c-.64386-.11926-1.32652-.05909-1.963-.19765-.28685-.06241-.45688-.12814-.65687.1026a1.04157,1.04157,0,0,1-.30206.16744c.13117.07311.25761.20034.39434.211a24.77573,24.77573,0,0,1,3.56394.62872c1.70408.38689,3.40953.76438,5.08336,1.26034a43.15329,43.15329,0,0,1,4.16121,1.49683,1.93814,1.93814,0,0,1,.447.27778c.03554.02793.00368.13341.00295.20321-.05767-.0221-.1175-.04018-.17246-.06708a10.7223,10.7223,0,0,0-1.34727-.64971c-1.83676-.59533-3.68412-1.16171-5.53557-1.715a3.00547,3.00547,0,0,0-1.55169-.27892c-.54381.18591-.88941-.09357-1.31385-.15208-.47082-.06483-.9175-.2721-1.38636-.36387-.70747-.13856-1.42422-.23556-2.13852-.34068A2.98932,2.98932,0,0,0,26.417,61.6894a7.66208,7.66208,0,0,1-1.573.1254,13.1051,13.1051,0,0,1-1.8213-.04081,5.19885,5.19885,0,0,0-1.20693.10466,3.32615,3.32615,0,0,0-.667.55474,1.03151,1.03151,0,0,0,.41174-.03079,5.37465,5.37465,0,0,1,1.99539-.28534c.50873.0135,1.01722.11415,1.51136.13254a28.09556,28.09556,0,0,1,4.03717.50443c.32625.05989.65357.1196.97327.20366.07413.01953.11939.13841.178.21151a.62044.62044,0,0,1-.22.04412c-.777-.15-1.55024-.31557-2.3281-.4608-.38151-.07124-.76847-.12273-1.15548-.1572-.373-.03316-.74958-.02831-1.12422-.04874-.35225-.01921-.70448-.04783-1.05617-.07529a8.24868,8.24868,0,0,0-3.23717.40916c-.1377.045-.33814-.04809-.32322.21275.00411.07308-.07.15017-.10826.22543a.71477.71477,0,0,0,.23057.02777,14.00541,14.00541,0,0,1,2.80361-.29264c.52417-.01044,1.05933.10442,1.56456.11439a24.55079,24.55079,0,0,1,3.28788.36927,6.22323,6.22323,0,0,1,2.17661.61489,1.08,1.08,0,0,1,.13458.107.54412.54412,0,0,1-.14283.04452,1.10772,1.10772,0,0,1-.40218-.01186,20.42254,20.42254,0,0,0-5.148-.90939,16.27751,16.27751,0,0,0-4.67172.30039c-.26665.048-.47565.41214-.69049.64739-.02083.02272.10481.24208.16658.244a14.52221,14.52221,0,0,0,1.70785-.003c.64056-.05543,1.27067-.23194,1.91146-.2722a11.63145,11.63145,0,0,1,1.89258.11638,21.99188,21.99188,0,0,1,3.22227.68516,10.38574,10.38574,0,0,1,1.495.49822c.62026.2636,1.19055.64595,1.82632.85994a3.90254,3.90254,0,0,1,1.48579.89406.98115.98115,0,0,1,.115.16328.7199.7199,0,0,1-.27565-.01625c-.39947-.20969-.77481-.465-1.18622-.64842-.68192-.30383-1.37168-.60019-2.08157-.837a18.41128,18.41128,0,0,0-5.3269-1.28079c-.448-.0125-.89049.00553-1.33349.02388a5.66053,5.66053,0,0,0-1.155.15126,7.7012,7.7012,0,0,0-3.20569,1.99654c-.05679.05116-.04471.17129-.06465.25934.07887-.03446.16015-.0652.2366-.10408a3.03556,3.03556,0,0,1,1.43076-.47246,3.57652,3.57652,0,0,0,.88912-.19185,7.94473,7.94473,0,0,1,2.4172-.24834.89436.89436,0,0,1,.21454.0672.79158.79158,0,0,1-.19068.08258c-.71623.10525-1.44045.1719-2.14789.31493a6.469,6.469,0,0,0-2.35979.757c-.25647.16858-.57558.26188-.71185.56568-.02066.06-.04726.11907-.07063.17864.04393.01548.09134.039.1224.02638a11.551,11.551,0,0,1,2.15889-.48906,26.89847,26.89847,0,0,1,3.04076-.1095c.04452-.00371.09244.03353.13905.0517-.04142.05459-.07187.13967-.12668.15788a1.52814,1.52814,0,0,1-.44779.09186c-.57083.00878-1.14583-.03881-1.71219.00978a13.0573,13.0573,0,0,0-1.98412.308,1.472,1.472,0,0,0-1.04137.912c-.803.26036-.61859.98631-.67264,1.50711A4.68377,4.68377,0,0,0,18.5198,72.304a12.57933,12.57933,0,0,0,.67517,1.66812c.04585.1002.25.13506.38116.20011-.031-.12466-.067-.24851-.092-.37417a10.60638,10.60638,0,0,1,.01309-1.80666.57867.57867,0,0,1,.18855-.38293,3.75755,3.75755,0,0,1,1.28085-.98665c.44715-.15584.87234-.36837,1.31495-.53734.08533-.03246.20711.02086.31174.03458a1.6659,1.6659,0,0,1-.2436.19992c-.372.205-.743.41293-1.12655.597a2.24506,2.24506,0,0,0-1.4041,2.82186.50582.50582,0,0,0,.3216.27634c.07629.02049.24551-.10771.29919-.20552.13855-.25267.21325-.53712.35476-.78812a2.27506,2.27506,0,0,1,1.86815-1.28748,7.72959,7.72959,0,0,1,2.3816.13316,8.56117,8.56117,0,0,1,3.47935,1.56059c1.104.91475,2.17557,1.865,3.26606,2.79487.35309.30131.71348.59638,1.088.87331a.29547.29547,0,0,0,.12129.03617c.27318.226.552.44372.84336.64792.10524.08763.22156.16454.33085.24834.11622.11434.2346.22747.35407.337.88984.81371,1.80835,1.59947,2.68819,2.42243A22.74066,22.74066,0,0,0,40.636,83.4167c1.04162.65635,2.07074,1.3401,3.1652,1.90785.69795.362,1.52114.49836,2.25891.80074,1.02446.42,2.10279.67617,3.14606,1.02432a39.97492,39.97492,0,0,1,5.23116,1.66148,8.95205,8.95205,0,0,1,2.63486,1.6109c.25581.26548.38777.63873.646.9012a14.07328,14.07328,0,0,0,4.813,3.53407,2.38667,2.38667,0,0,0,1.99751-.0786c.22932-.10481.355-.20952.34607-.37706A.39871.39871,0,0,0,64.84993,93.91258Zm5.34887-1.10041c.59878-.84715,1.22127-1.68059,1.781-2.55043.884-1.37466,1.21893-2.977,1.96771-4.41233.2213-.42436.2753-.9275.49713-1.35155A37.745,37.745,0,0,0,75.932,80.7463a8.70992,8.70992,0,0,0,.47951-1.12535c.35732-1.51669.7648-3.03107.97192-4.56839.15286-1.13355.11156-2.29374.35775-3.42473-.33009-.52468-.07924-1.09651-.146-1.64324-.0699-.57041-.09475-1.14581-.16654-1.716-.06441-.51051-.159-1.0179-.25394-1.5244-.03722-.19775-.11114-.38926-.16833-.58355q-.01671.1899-.03369.37984a8.0769,8.0769,0,0,0-.254-1.485,2.89672,2.89672,0,0,0-.0703-.52492A26.08281,26.08281,0,0,0,75.319,60.327c-.20841-.52972-.439-1.05189-.63927-1.58209a1.78648,1.78648,0,0,0,.48157-.89437c.00738-.03306.0188-.065.02644-.098.00916.00636.02047.01266.02827.01908a.85.85,0,0,0,.121-.16058c.01954-.04384-.00133-.10232.005-.15323.01932-.15562.03432-.31221.05093-.46834.02289-.08133.05386-.16064.07756-.24184-.11689.22273-.24078.443-.35146.668-.32636.66273-.51715,1.85594-1.27976,2.245-1.428.7282-3.73894-.94477-4.7614-1.796-1.579-1.31443-1.93144-3.32345-3.2223-4.86019-.19117-.22748-3.033-2.1171-4.3796-3.38923a2.90962,2.90962,0,0,1-.34957-.2084c-.37636-.27464-.72512-.5831-1.08632-.87593-.13754-.11139-.3275-.18979-.32926.05629a10.61928,10.61928,0,0,0,.10244,1.58143c.09.62607.24608,1.24349.35954,1.86687.01541.08463-.0496.18241-.07737.27415-.02645-.09278-.04939-.18665-.08043-.278-.20095-.59169-.45021-1.1731-.59259-1.77711a3.14756,3.14756,0,0,1-.16152-1.68c.21982-.57038-.11044-.73957-.39435-.98637a.76024.76024,0,0,0-.59465-.15975c-.112.03187-.17949.33049-.19646.51548a15.237,15.237,0,0,0,.31651,2.89074c.021.21389.11132.42106.1512.63436.01169.06274-.04.13611-.06288.20457-.07671-.06438-.20092-.11758-.22148-.19525-.06219-.23729-.08147-.48445-.12261-.72693-.1805-1.06051-.37611-2.11907-.53043-3.183-.02356-.16284.10679-.47434.22448-.50331.38548-.095.26361-.21227.09687-.39771a6.602,6.602,0,0,0-2.14817-1.4322c-.17107-.08224-.25772-.06214-.29514.00776.00406.09291.00515.18531.0111.27842q.02643.09729.05422.1944c-.01593.00335-.02487.0181-.04.02363a34.17,34.17,0,0,0,1.3567,6.39791c.00427.01556-.01948.02113-.02484.00646a23.6844,23.6844,0,0,1-1.54044-6.18837c-.10549-.28943-.21016-.57886-.3294-.86833a.3586.3586,0,0,0-.32148-.22144.59873.59873,0,0,0-.19356-.14392A8.69439,8.69439,0,0,0,53.39,44.431c-.011.17945-.02229.35281-.019.52768a34.44115,34.44115,0,0,1,.9739,3.96652A14.484,14.484,0,0,0,55.447,52.711c.03625.05826-.06128.11161-.09565.05258a19.523,19.523,0,0,1-1.91022-6.01785c-.19566-.64907-.39646-1.297-.5762-1.95-.07237-.26253-.161-.40866-.46043-.40482-.46239.006-.92475.0025-1.38683-.00288-.35553-.00418-.4734.18571-.44591.48638.04738.521.08046,1.04462.16266,1.56107a14.531,14.531,0,0,0,.50219,2.66526c.57181,1.5867.86447,3.25127,1.55966,4.80267a4.31528,4.31528,0,0,1,.27428,1.4844,18.52307,18.52307,0,0,1-1.02827-2.84229,51.52207,51.52207,0,0,1-1.64105-6.001c-.10051-.52558-.21155-1.0494-.32151-1.57328-.08547-.40589-.23527-.47118-.74818-.43843-.40471.02581-.19773.29287-.22515.45231-.21986,1.2683.319,2.4817.31822,3.73673a3.25248,3.25248,0,0,0,.14958.63289c.00772.03668-.04124.08421-.06429.12676-.03822-.028-.09239-.0485-.11171-.08547a1.25824,1.25824,0,0,1-.14179-.32984,17.0428,17.0428,0,0,0-.52644-2.57793c-.14644-.40491.05836-.814-.18859-1.15817a.38266.38266,0,0,1,.09227-.5898c.04354-.038.03085-.13377.04426-.203-.30871.039-.61611.09056-.92613.11376-.382.02856-.18845.35183-.29969.48409-.25631.30494-.00692.55139.02446.81074a12.68137,12.68137,0,0,0,.56136,2.63452,14.83825,14.83825,0,0,1,.391,1.62331c.01358.061-.04111.1356-.064.20387-.0576-.04648-.14976-.08359-.16686-.14091-.12429-.41623-.24371-.83418-.34478-1.25585a14.21879,14.21879,0,0,1-.88052-3.98405c.002-.03774-.09733-.118-.14293-.11377a1.01929,1.01929,0,0,0-.98238,1.04238c.04689.50367.25513.99417.29879,1.49777a26.01131,26.01131,0,0,0,.93038,3.80484c.12961.5391.55122,1.03447.289,1.63666a8.78329,8.78329,0,0,1-.39965-.92464c-.31841-1.03754-.64788-2.07414-.9042-3.12616-.23152-.94951-.38962-1.91629-.54557-2.88043-.06445-.39809-.00656-.35935-.438-.2121a.51278.51278,0,0,0-.39295.5523,12.50918,12.50918,0,0,0,.53666,4.05072,44.07789,44.07789,0,0,0,2.05,6.38864,2.44937,2.44937,0,0,1,.15729.47871.856.856,0,0,1-.04531.28856,1.84179,1.84179,0,0,1-.17-.26158c-.20131-.46277-.41989-.92086-.58556-1.39531-.34124-.97668-.67464-1.95687-.97026-2.94668-.29721-.99588-.5299-2.00906-.81767-3.00768a8.887,8.887,0,0,1-.47693-3.21621.14883.14883,0,0,0-.00113-.07653c-.04241-.07626-.09131-.14914-.138-.2233-.06221.05927-.12792.11558-.18582.17845-.08631.09368-.16078.19751-.2514.2869-.16609.16417-.20924.25664-.11779.55a13.56415,13.56415,0,0,1,.35818,2.26145,4.89574,4.89574,0,0,0,.1828,1.39783c.5889,1.262.54446,2.69712,1.25512,3.92066a2.15068,2.15068,0,0,1,.17264.7803,1.26459,1.26459,0,0,1-.05522.36244,1.71382,1.71382,0,0,1-.22486-.33564c-.13361-.36117-.25183-.72793-.36141-1.09639-.11706-.39369-.22009-.79125-.32473-1.18824-.11052-.42131-.21644-.84377-.32345-1.266-.16037-.63343-.34044-1.26326-.47544-1.90161-.18186-.861-.32539-1.72928-.49511-2.59269a2.737,2.737,0,0,0-.16066-.43131,2.69948,2.69948,0,0,0-.30534.37826.58783.58783,0,0,0-.01917.301c.04956.80466.077,1.6117.16623,2.41256a10.26054,10.26054,0,0,0,.30935,1.19031c.1184.49709.2233.99728.31848,1.49885.01436.07458-.0571.16371-.08889.24616a2.1689,2.1689,0,0,1-.17084-.16619.34171.34171,0,0,1-.059-.13069,23.951,23.951,0,0,1-.80868-4.40339.7234.7234,0,0,0-.10163-.22172c-.07358.07414-.2.14155-.21157.22367-.04648.32356-.05306.652-.08148.97808a4.87293,4.87293,0,0,0-.08307.96745c.05459.45353.23168.89288.30326,1.34583a19.98243,19.98243,0,0,0,.7904,3.0188c.27362.84585.57019,1.685.85488,2.52772a1.81472,1.81472,0,0,1,.04474.20954c-.07224-.02151-.18661-.0231-.21023-.0677a7.44933,7.44933,0,0,1-.50022-1.04111q-.49686-1.47162-.93406-2.96123a16.97093,16.97093,0,0,1-.69292-3.444,1.374,1.374,0,0,0-.16215-.4761,1.02133,1.02133,0,0,0-.21708-.22358.813.813,0,0,0-.09917.25706c-.00984.82568.01754,1.65254-.01873,2.47693a3.69929,3.69929,0,0,0,.64222,2.46238,1.60391,1.60391,0,0,1,.31644.87181,3.65538,3.65538,0,0,0,.32931,1.58047c.24646.52528.49941,1.04136.78394,1.55146.82622,1.48158,1.51495,3.02541,2.45541,4.45836a41.96367,41.96367,0,0,0,2.96333,3.78846c.6063.72687,1.25152,1.4253,1.89539,2.12322.912.98857,1.78264,2.0199,2.77336,2.93267,1.23559,1.1381,2.57558,2.17418,3.87067,3.25435.1195.09976.242.19678.35768.30037a19.21063,19.21063,0,0,1,1.97153,1.80153,23.7585,23.7585,0,0,1,1.96126,2.7878,18.30806,18.30806,0,0,1,1.13508,2.26182c.19463.4392.2256.94687.43995,1.37423a7.57553,7.57553,0,0,1,.537,2.18817,6.2991,6.2991,0,0,0,.206,1.31255,10.03537,10.03537,0,0,1,.556,3.4025,7.45765,7.45765,0,0,0,1.02229,3.2503c.24182.44413.38874.96645,1.00218,1.16106a2.24744,2.24744,0,0,0,2.68853-.8173A14.60588,14.60588,0,0,0,70.1988,92.81217Zm37.98469-58.28536c1.85038-1.4025,4.99273-1.95774,6.50837-.0576-.68825-2.1097-2.9026-3.90083-5.0171-4.73092a.32141.32141,0,0,1-.28894.01065c-.27158-.12085-.53078-.23315-.787-.34423-2.69387-.66265-7.45621-.66126-9.95521.78085a.09972.09972,0,0,1-.1042-.17c2.15275-1.38656,5.49462-1.71021,8.4598-1.31541a13.59191,13.59191,0,0,1-4.07493-2.65232c-3.24335-3.10353-5.9153-5.74032-11.18983-5.47328-3.76637.19067-6.69831,1.82058-9.6616,3.95632-.07731.05571-.80375.82572-1.66945,1.81487-.18959.37249-.37649.74647-.57093,1.116a14.51785,14.51785,0,0,0-1.367,2.86963,1.75845,1.75845,0,0,0,.21573,1.68361,14.09944,14.09944,0,0,1,2.15338,4.03223,18.02033,18.02033,0,0,1,.72563,3.41769,8.83687,8.83687,0,0,1-.459,4.06217,22.8045,22.8045,0,0,1-.92284,2.13979,26.95879,26.95879,0,0,1-1.95591,5.99543c-.23718.50756-.49969,1.00731-.76975,1.50493.00671.01307.02421.02643.02121.03877-.02976.12692-.06221.25326-.09385.3798a2.133,2.133,0,0,1,.04363-.365c-.50323.92444-1.03989,1.83906-1.55122,2.76361-.01069.06159-.02569.12233-.03531.18411a11.9336,11.9336,0,0,1-.21226,1.54595,2.12733,2.12733,0,0,0,.03606,1.58976,2.66451,2.66451,0,0,1,.103.30747,1.2233,1.2233,0,0,0,.21685-.37671c.07643-.5176.11942-1.03959.17616-1.55974a17.05962,17.05962,0,0,1,.82812-3.3915,5.115,5.115,0,0,1,.23668-.52586c.02888.19075.06693.38082.0815.57249.00468.064-.05755.13043-.07932.19857a6.83836,6.83836,0,0,0-.39424,1.31153c-.11178,1.106-.443,2.17343-.5621,3.28327a5.24842,5.24842,0,0,0,.04947,1.81009c.0216.09149.12444.16562.18977.24776.04337-.07717.11938-.1524.12446-.23179a4.8937,4.8937,0,0,1,.0167-.77184c.19739-.84743.429-1.68778.652-2.52975.16084-.60714.32114-1.21473.49977-1.81721a1.59707,1.59707,0,0,1,.23626-.37058,1.21394,1.21394,0,0,1,.04688.41078c-.13806.56228-.35566,1.11116-.446,1.679-.18834,1.18458-.58022,2.32623-.72356,3.52737-.06518.54963-.02894,1.10037-.10814,1.6449-.0066.04535.12379.1086.19081.16362.04195-.05273.11169-.1011.12156-.15885.11733-.67828.1918-1.365.345-2.03557.18269-.79877.4263-1.58521.657-2.37342.02587-.08784.13827-.15279.21077-.22829.03639.10939.12642.232.1008.32609-.26107.95352-.606,1.89087-.79588,2.85611a8.12833,8.12833,0,0,0-.35653,2.49928c.07084.62192.10661,1.24739.16477,1.87075a.5697.5697,0,0,0,.088.17767c.02393-.068.0457-.13667.07233-.20372a1.788,1.788,0,0,0,.15837-.4006c.06949-.54456.0837-1.09708.182-1.63619.12135-.66675.30067-1.32432.46489-1.9836q.3339-1.33878.6837-2.67375.16562-.629.37141-1.248c.02475-.07447.14681-.11982.22385-.17866a1.22524,1.22524,0,0,1,.05634.20919.85793.85793,0,0,1-.00193.30839c-.22555.78791-.43465,1.58136-.6982,2.3579A25.43943,25.43943,0,0,0,77.96715,65.512a21.788,21.788,0,0,0,.11852,3.57.43161.43161,0,0,0,.05493.13247c.05784-.03932.13561-.06739.16866-.12059a.8697.8697,0,0,0,.09975-.26935c.18439-.83146.36959-1.66279.54562-2.49588a14.58271,14.58271,0,0,0,.63285-2.23657,3.39892,3.39892,0,0,1,.42081-1.06562c.02036-.04659.11051-.06566.16833-.0975a.57393.57393,0,0,1,.04278.13711.70089.70089,0,0,1-.0125.22685c-.37762,1.348-.7644,2.69375-1.13771,4.04289-.28366,1.02537-.57918,2.049-.81485,3.08461a15.97462,15.97462,0,0,0-.182,1.63561c-.0312.25994.10246.30964.32839.35614-.03775.19-.06418.38282-.11541.56958a6.55848,6.55848,0,0,0-.3798,2.23106.92526.92526,0,0,0,.065.2041,1.83915,1.83915,0,0,0,.09487-.16642,3.41983,3.41983,0,0,0,.16349-.39618,11.40246,11.40246,0,0,1,1.37922-2.89743c-.00249.02348-.00741.04663-.00964.07017a.44147.44147,0,0,0,.00738.06394c-.1273.3806-.24895.76307-.3943,1.13723-.53959,1.38726-1.12822,2.75838-1.62711,4.15843a21.21264,21.21264,0,0,0-.69621,2.51926,13.72579,13.72579,0,0,1-.802,2.1574q-.81927,1.99967-1.67034,3.98741c-.1887.44166-.424.86516-.61839,1.30476-.03231.073.0359.1861.05776.28066.03879-.07834.07543-.15776.11665-.23475.04609-.08535.10027-.16672.14421-.25291.54789-1.07436,1.09228-2.15026,1.6469-3.22147.03417-.06574.14647-.09506.22213-.14136a.94255.94255,0,0,1-.04.20623c-.33421.77155-.6404,1.55609-1.01772,2.30838-.54116,1.07873-1.12732,2.13756-1.71,3.197a12.24658,12.24658,0,0,1-.87368,1.43426c-.62845.84341-1.3059,1.654-1.95643,2.48289-.03736.04769-.016.13681-.02215.2066a.86778.86778,0,0,0,.17251-.04828,8.62982,8.62982,0,0,0,2.8986-1.961q.2631-.32108.52081-.64594c.48347-.609.99819-1.19852,1.43589-1.83579.28547-.41555.37655-.96191.69592-1.34332a12.25315,12.25315,0,0,0,1.59857-3.4012c.60691-1.44037,1.01682-2.95558,1.5065-4.44.12106-.36648.23565-.73585.3284-1.10938.20488-.8245.41056-1.64938.585-2.47991a13.58646,13.58646,0,0,0,.58486-2.64024,7.08553,7.08553,0,0,1,.18887-1.4725c.18134-.8005.422-1.58868.6257-2.38484a9.58479,9.58479,0,0,1,.88078-2.44062c.4104-.71669.89867-1.39964,1.23874-2.1443a6.20862,6.20862,0,0,1,1.59159-2.24037c.28959-.24726.49715-.5787.76174-.85488a5.20428,5.20428,0,0,1,.81246-.759c.99185-.66422,1.93586-1.38813,2.93256-2.04849a22.62229,22.62229,0,0,1,3.26877-1.69047A28.3397,28.3397,0,0,0,96.983,55.79821a7.96925,7.96925,0,0,0,2.52652-2.22378c.10838-.16957.21567-.34024.31893-.5127a.07071.07071,0,0,0,.0316-.01521c.0633-.06163.11017-.135.16916-.19986.03735-.04629.07955-.08795.11475-.136a5.06379,5.06379,0,0,0,.73235-1.15267c.08484-.14578.16376-.29522.23513-.449.045-.08894.08062-.18264.12215-.27338a.14156.14156,0,0,0,.05305.03169.21869.21869,0,0,0,.17911-.09407c.17436-.4218.33093-.85012.49962-1.27412.38113-.95926.7663-1.91718,1.15-3.03044a.6343.6343,0,0,1,.00414-.23084,21.58941,21.58941,0,0,0,1.112-3.51017l.00081.0007a35.02626,35.02626,0,0,1,1.282-4.32727A7.79181,7.79181,0,0,1,108.18349,34.52681Zm6.75968,2.3195c-.01387.041-.0353.08116-.05106.12194a1.7876,1.7876,0,0,0-.055-.48739c.00411-.02181.012-.04379.01556-.0656a3.5793,3.5793,0,0,0-1.24523-2.13454c-1.86282-1.21911-3.98307-.26747-5.48522,1.14406.35284.87716.18752,1.74.86592,2.63223a6.21616,6.21616,0,0,0,3.74867,2.20513C114.69172,40.55734,115.23335,38.62885,114.94317,36.84631ZM19.37255,69.26814a8.13518,8.13518,0,0,0-.6897.85124c-.3853.616.09639,1.23431.05312,1.86014-.01012.14636.24624.30946.37988.46486-.00838-.191-.00811-.38277-.02836-.57253-.01-.09287-.09174-.18536-.0826-.27242.03352-.31764-.18673-.75923.4099-.82706a4.90051,4.90051,0,0,1,2.62342-1.07693,6.7702,6.7702,0,0,0,.84357-.30184c.067-.02476.13233-.05414.19823-.08141-.07061-.02438-.146-.07738-.21158-.06815-.27769.03915-.55567.08541-.8283.1496a5.3337,5.3337,0,0,0-2.736,1.00892c-.04733.04568-.17942.01217-.27223.01544-.00062-.06968-.033-.17323.003-.20391a5.429,5.429,0,0,1,1.14846-.911,13.06109,13.06109,0,0,1,2.96727-.843c.09662-.01835.1762-.11577.26377-.17644-.107-.04259-.22783-.14024-.31853-.11945A17.37949,17.37949,0,0,0,19.37255,69.26814ZM77.70283,29.75376c.03889-.11378.0994-.14407.11247-.18741q.60675-1.96773,1.19921-3.93932c.01661-.056-.04549-.13328-.07094-.20066-.08318.037-.22189.05691-.2412.11361-.17923.524-.33581,1.05505-.50317,1.58283-.26915.84831-.55554,1.69209-.805,2.54564C77.31467,29.94144,77.47749,29.983,77.70283,29.75376ZM49.37573,53.105q-.37017-1.05339-.74356-2.10576c-.03212-.09012-.07558-.17655-.11365-.26469-.02911.08885-.09168.18165-.08085.26588a4.32993,4.32993,0,0,0,.16081.86338c.4175,1.20136.85768,2.39567,1.28927,3.66994a2.69644,2.69644,0,0,0,.28751.50594c.05293.07577.11424.14626.1715.21917a.76588.76588,0,0,0,.024-.29656C50.04593,55.00783,49.71,54.05668,49.37573,53.105Zm2.59838-6.059a4.00842,4.00842,0,0,1-.45342-2.25737c.01527-.05748-.16464-.16169-.254-.24416-.069.07825-.18844.15169-.1973.23568a3.35412,3.35412,0,0,0,.02905.809c.06754.15669.082.27868.12327.39185.32878.8986.66052,1.7963,1.00253,2.69046.01446.03811.13909.03832.21241.05619a.74082.74082,0,0,0-.01141-.16313Q52.20318,47.80438,51.97411,47.046ZM13.22653,63.94806c-.00418.04779-.00836.09563-.01227.14348a.32684.32684,0,0,1,.17547-.143c.00418-.04785.00809-.09564.01254-.14348A.32776.32776,0,0,1,13.22653,63.94806Zm17.921-.60055a2.24,2.24,0,0,1,.31763.14785.48217.48217,0,0,0,.25323-.06885,1.21021,1.21021,0,0,0-.31994-.19169C31.32967,63.21787,31.23205,63.30641,31.1475,63.34751ZM26.88573,62.025c.02067.03435.03884.09672.06177.09845a1.98135,1.98135,0,0,0,.4.00142,1.56035,1.56035,0,0,0,.29863-.09969c-.12647-.017-.25294-.034-.46061-.05131A2.12526,2.12526,0,0,0,26.88573,62.025Zm4.95566-24.41146a1.73249,1.73249,0,0,0,.283.16548,1.23116,1.23116,0,0,0-.12672-.31342,3.7074,3.7074,0,0,0-.378-.36882,3.509,3.509,0,0,0-.37391-.18761.61641.61641,0,0,0,.0833.21419A6.91724,6.91724,0,0,0,31.84139,37.61355ZM79.526,35.76216l.10664-.03067a.93625.93625,0,0,0-.1505-.20529C79.49664,35.63066,79.5113,35.69641,79.526,35.76216Z"/></g></g></svg>