<svg xmlns="http://www.w3.org/2000/svg" viewBox="0 0 39.42 194.8"><g id="Layer_2" data-name="Layer 2"><g id="single-wiggly-branch-3"><path id="void" d="M6.12,117.71a11.66,11.66,0,0,1,1.65-2.24,5.56,5.56,0,0,0,.53-.65c.38-.43.74-.88,1.16-1.28s1.16-.89,1.64-1.42c.62-.68,1.19-1.41,1.79-2.1a18.66,18.66,0,0,0,2-2.82,5.6,5.6,0,0,1,2-1.93c.42-.27.82-.55,1.23-.82a3.71,3.71,0,0,1,.64-.42c.93-.34,1.86-.65,2.79-1l1.62-.53a5.5,5.5,0,0,0,2.48-1.84,17.57,17.57,0,0,0,1.83-2.91,12.07,12.07,0,0,0,1.17-4.33c.1-1.14,0-2.29.14-3.43a4.54,4.54,0,0,1,.35-1.36,30.33,30.33,0,0,1,1.84-3,7.41,7.41,0,0,1,2.46-2.23,15.63,15.63,0,0,0,3.09-2.52c.24-.26.43-.56.68-.8a6.5,6.5,0,0,0,1.59-2.41,6.59,6.59,0,0,0,.59-3.21,1.62,1.62,0,0,0-.76-1.3A6.9,6.9,0,0,1,37,71.76a2.64,2.64,0,0,0-.4-.35A13.25,13.25,0,0,0,33.1,70a3.79,3.79,0,0,1-1-.3c-.38-.24-.78-.44-1.14-.69a1.86,1.86,0,0,1-.58-.57c-.41-.78-.79-1.57-1.15-2.37-.16-.34-.22-.74-.41-1.06a3.57,3.57,0,0,1-.5-1.35,3,3,0,0,1,.13-1.55,8.82,8.82,0,0,0,.76-2.33,8.53,8.53,0,0,1,.73-2.36c.5-1.13,1.07-2.23,1.55-3.36a3.28,3.28,0,0,0,.32-.89c.09-.61.1-1.23.15-1.84,0-.13,0-.26.06-.38.12-.57.22-1.13.35-1.69a12.14,12.14,0,0,1,.5-2,14.85,14.85,0,0,0,.58-1.86c.15-.51.31-1,.41-1.53A4,4,0,0,0,34,41.5c-.12-.31-.24-.63-.34-.94a6.51,6.51,0,0,1-.46-1.44A4.8,4.8,0,0,0,32.44,37a6.21,6.21,0,0,1-.88-1.4,6.07,6.07,0,0,0-.29-.7,2.27,2.27,0,0,1-.29-1.3,2.44,2.44,0,0,0-.74-1.86c-.53-.64-1-1.29-1.52-2A15.19,15.19,0,0,1,27.77,28a5.45,5.45,0,0,1-.32-.75c-.09-.29-.12-.59-.22-.87a6.29,6.29,0,0,1-.31-2,10.32,10.32,0,0,1,.22-1.19,3.81,3.81,0,0,0,0-1.26,5.89,5.89,0,0,1-.07-2.13c.05-.62.22-1.23.23-1.86a4.75,4.75,0,0,0-.1-1.45c-.08-.28.1-.63.1-.95a2.57,2.57,0,0,1,.25-1.19,1.74,1.74,0,0,0,.16-.68A4.71,4.71,0,0,1,28.23,12a2.93,2.93,0,0,0,.45-1.79c-.05-.48-.32-1,0-1.45,0-.06-.06-.19-.1-.29a4.29,4.29,0,0,1-.31-1.78,2.21,2.21,0,0,0-.15-1.09c-.16-.29,0-.57-.12-.83A11.89,11.89,0,0,0,26.15,1a7.82,7.82,0,0,0-.91-.91A.89.89,0,0,0,24.87,0a1.13,1.13,0,0,0,.19.32c.14.13.36.2.46.35A15.44,15.44,0,0,1,27,3a10.88,10.88,0,0,1,.83,3.38c.1,1.14.11,2.29.15,3.43a1.09,1.09,0,0,1-.1.44A8.18,8.18,0,0,1,27,12.13a4.62,4.62,0,0,0-1,2.66c-.16,1.44-.12,2.9-.16,4.35a.65.65,0,0,0,0,.14,17.42,17.42,0,0,0,0,1.77c.06.55-.15,1.08-.06,1.66a4.06,4.06,0,0,1-.34,1.46,19.46,19.46,0,0,0-.54,2.35A5.82,5.82,0,0,0,25,28.23a10.09,10.09,0,0,0,1.22,3.11,24.87,24.87,0,0,1,1.26,2.19,3.07,3.07,0,0,0,.36.67,2.59,2.59,0,0,1,.46,1.17c.1.54.26,1.07.4,1.6s.31,1,.4,1.46a2.64,2.64,0,0,0,1.27,1.86A1.67,1.67,0,0,1,31.09,42a2,2,0,0,0-.11.7,16.07,16.07,0,0,0,0,1.7,10.74,10.74,0,0,1-.59,3.77A19.91,19.91,0,0,1,29.57,50a16.21,16.21,0,0,0-1.33,4.22,25.68,25.68,0,0,1-.66,3.11,11.7,11.7,0,0,1-.72,2.29,12,12,0,0,0-.74,1.59A9.23,9.23,0,0,0,26,65.48c0,.16.1.32.14.48.13.56.28,1.11.4,1.67a4.06,4.06,0,0,0,.24,1.19A3.45,3.45,0,0,0,27.8,69.9,8.57,8.57,0,0,1,30,71.6a9.78,9.78,0,0,0,.72.72,3.32,3.32,0,0,0,1.25.75,5.42,5.42,0,0,0,1.11.11,2.25,2.25,0,0,1,1.43.49c.35.35.71.69,1,1a1.79,1.79,0,0,1,.43.57c.21.57.66,1,.58,1.74,0,.41,0,.57-.31.85a5.85,5.85,0,0,0-1,1.07,3.91,3.91,0,0,1-1.51,1.29,8.07,8.07,0,0,0-1.18.58A8.61,8.61,0,0,0,31.43,82c-.35.42-.64.89-1,1.27-.54.56-1.14,1.07-1.71,1.6a2,2,0,0,1-.81.52,3.33,3.33,0,0,0-1,.59,4.36,4.36,0,0,0-1.21,2.2,5.5,5.5,0,0,0-.32,1.5,10.18,10.18,0,0,0-.06,2.4,3.84,3.84,0,0,0,.2,1.33c.1.2-.08.54-.11.82-.05.54-.06,1.1-.15,1.64a3.5,3.5,0,0,1-.69,1.68c-.66.82-1.35,1.61-2,2.43a2,2,0,0,1-1.11.74,4.87,4.87,0,0,0-.76.15,2.9,2.9,0,0,0-1,.47,5.23,5.23,0,0,1-2.76,1c-.69.12-1.37.07-2,.13a1.51,1.51,0,0,0-1.15.5,19.42,19.42,0,0,0-1.46,2c-.36.63-.54,1.36-.86,2a4,4,0,0,1-.85,1.29c-1.12,1-2.2,2.11-3.32,3.15a13.53,13.53,0,0,0-1.37,1.75c-.59.75-1.15,1.54-1.81,2.23A8.51,8.51,0,0,1,2,117.22c-.14.08-.22.27-.33.4A8.31,8.31,0,0,0,.56,120,8.41,8.41,0,0,0,0,122.18a3.55,3.55,0,0,0,1.09,3,3.24,3.24,0,0,1,1,2.15,18.48,18.48,0,0,0,.27,2.33,11,11,0,0,0,1.11,3.49,3.25,3.25,0,0,0,2.39,1.69c1.48.21,2.37,1.26,3.29,2.18a9.94,9.94,0,0,0,2.41,2.07c.69.35,1.39.7,2.05,1.11a4.56,4.56,0,0,1,1.88,2.06,6.26,6.26,0,0,0,1.31,1.89,4.78,4.78,0,0,0,2.36,1.33,5.17,5.17,0,0,1,2.52,1.59,3.08,3.08,0,0,0,2.24,1c.21,0,.43.08.64.08a8,8,0,0,1,1.52.45,2.24,2.24,0,0,1,1.07.52,3.93,3.93,0,0,0,2.38,1,3.14,3.14,0,0,1,1.27.36,6.16,6.16,0,0,1,2.3,2.26c.35.58.71,1.16,1.08,1.73a4,4,0,0,1,.56,1.33,15.16,15.16,0,0,0,.56,1.6,8.84,8.84,0,0,1,.11,1.61,9.11,9.11,0,0,0-.28,2.27,3.89,3.89,0,0,1,.13.82,22.6,22.6,0,0,1-.1,2.6,12,12,0,0,1-.7,2.64,10.09,10.09,0,0,1-2.34,3.79c-.48.46-.9,1-1.35,1.47-.25.27-.53.49-.76.77-.73.89-1.43,1.81-2.16,2.7a9.83,9.83,0,0,0-1.12,1.31,5,5,0,0,1-1.3,1.48,4.54,4.54,0,0,0-1,1.34,5.24,5.24,0,0,0-.34.61c-.3.65-.61,1.29-.88,1.94a6.56,6.56,0,0,1-.43,1.25,5.92,5.92,0,0,0-.81,2.25,1.18,1.18,0,0,1-.39.71,7.81,7.81,0,0,0-1.86,1.72,2.93,2.93,0,0,0-.58,1.19c-.1.36-.07.75-.18,1.09a2.49,2.49,0,0,0,.86,2.67c.42.44,1.06.64,1.49,1.11a.36.36,0,0,0,.3.06c.5-.18,1-.32,1.2-.94a3.09,3.09,0,0,1,.75-1.26,2.09,2.09,0,0,0,.45-.89c.1-.42.05-.88.16-1.3a3.76,3.76,0,0,1,.44-1.18,3.07,3.07,0,0,0,.62-1.5,12.92,12.92,0,0,1,.15-2.32,4.35,4.35,0,0,1,.28-1,34.13,34.13,0,0,1,2.43-3.54c.57-.84,1.17-1.65,1.77-2.46a14.08,14.08,0,0,1,2-2.38l1-.85c.15-.15.26-.27.38-.37a7.36,7.36,0,0,0,1.12-1c.42-.58.84-1.16,1.31-1.7a9.47,9.47,0,0,0,1.58-2.67,14.13,14.13,0,0,1,.8-2,3.81,3.81,0,0,0,.53-1.27,14.1,14.1,0,0,0,.15-2.25c0-.91,0-1.82-.1-2.73-.16-1.4-.13-2.82-.16-4.22a11.63,11.63,0,0,1,.13-1.17,5.36,5.36,0,0,0-.77-3.15,4.11,4.11,0,0,0-.82-1.2,10.63,10.63,0,0,0-2.06-1.26,9.86,9.86,0,0,1-1.82-1c-.07-.06-.12-.15-.2-.17a8.79,8.79,0,0,1-2.69-1.54,9.92,9.92,0,0,0-2.51-1.14c-1.1-.36-2.21-.69-3.29-1.09a3.84,3.84,0,0,1-.6-.2c-.66-.39-1.28-.83-1.95-1.19a7.16,7.16,0,0,1-2.68-2.2,5.57,5.57,0,0,1-1-2,2.34,2.34,0,0,0-1.37-1.82,3.12,3.12,0,0,1-1.15-.82,2.61,2.61,0,0,0-.79-.55,15.87,15.87,0,0,1-2.3-1.49c-.56-.48-1.19-.88-1.76-1.35A7,7,0,0,0,10,133a9.17,9.17,0,0,1-3.06-3.07,9.41,9.41,0,0,1-.92-2.2,5.39,5.39,0,0,1-.39-1.26A6.57,6.57,0,0,0,5,124.12a4.74,4.74,0,0,1-.62-2,7.18,7.18,0,0,1,.86-3A6.7,6.7,0,0,1,6.12,117.71ZM28.18,8.37c0,.05.08.09.08.14V9.78a7.43,7.43,0,0,1-.13-1.3A.22.22,0,0,1,28.18,8.37Z" style="fill:#fff"/><path id="fill2" d="M6.12,117.71a11.66,11.66,0,0,1,1.65-2.24,5.56,5.56,0,0,0,.53-.65c.38-.43.74-.88,1.16-1.28s1.16-.89,1.64-1.42c.62-.68,1.19-1.41,1.79-2.1a18.66,18.66,0,0,0,2-2.82,5.6,5.6,0,0,1,2-1.93c.42-.27.82-.55,1.23-.82a3.71,3.71,0,0,1,.64-.42c.93-.34,1.86-.65,2.79-1l1.62-.53a5.5,5.5,0,0,0,2.48-1.84,17.57,17.57,0,0,0,1.83-2.91,12.07,12.07,0,0,0,1.17-4.33c.1-1.14,0-2.29.14-3.43a4.54,4.54,0,0,1,.35-1.36,30.33,30.33,0,0,1,1.84-3,7.41,7.41,0,0,1,2.46-2.23,15.63,15.63,0,0,0,3.09-2.52c.24-.26.43-.56.68-.8a6.5,6.5,0,0,0,1.59-2.41,6.59,6.59,0,0,0,.59-3.21,1.62,1.62,0,0,0-.76-1.3A6.9,6.9,0,0,1,37,71.76a2.64,2.64,0,0,0-.4-.35A13.25,13.25,0,0,0,33.1,70a3.79,3.79,0,0,1-1-.3c-.38-.24-.78-.44-1.14-.69a1.86,1.86,0,0,1-.58-.57c-.41-.78-.79-1.57-1.15-2.37-.16-.34-.22-.74-.41-1.06a3.57,3.57,0,0,1-.5-1.35,3,3,0,0,1,.13-1.55,8.82,8.82,0,0,0,.76-2.33,8.53,8.53,0,0,1,.73-2.36c.5-1.13,1.07-2.23,1.55-3.36a3.28,3.28,0,0,0,.32-.89c.09-.61.1-1.23.15-1.84,0-.13,0-.26.06-.38.12-.57.22-1.13.35-1.69a12.14,12.14,0,0,1,.5-2,14.85,14.85,0,0,0,.58-1.86c.15-.51.31-1,.41-1.53A4,4,0,0,0,34,41.5c-.12-.31-.24-.63-.34-.94a6.51,6.51,0,0,1-.46-1.44A4.8,4.8,0,0,0,32.44,37a6.21,6.21,0,0,1-.88-1.4,6.07,6.07,0,0,0-.29-.7,2.27,2.27,0,0,1-.29-1.3,2.44,2.44,0,0,0-.74-1.86c-.53-.64-1-1.29-1.52-2A15.19,15.19,0,0,1,27.77,28a5.45,5.45,0,0,1-.32-.75c-.09-.29-.12-.59-.22-.87a6.29,6.29,0,0,1-.31-2,10.32,10.32,0,0,1,.22-1.19,3.81,3.81,0,0,0,0-1.26,5.89,5.89,0,0,1-.07-2.13c.05-.62.22-1.23.23-1.86a4.75,4.75,0,0,0-.1-1.45c-.08-.28.1-.63.1-.95a2.57,2.57,0,0,1,.25-1.19,1.74,1.74,0,0,0,.16-.68A4.71,4.71,0,0,1,28.23,12a2.93,2.93,0,0,0,.45-1.79c-.05-.48-.32-1,0-1.45,0-.06-.06-.19-.1-.29a4.29,4.29,0,0,1-.31-1.78,2.21,2.21,0,0,0-.15-1.09c-.16-.29,0-.57-.12-.83A11.89,11.89,0,0,0,26.15,1a7.82,7.82,0,0,0-.91-.91A.89.89,0,0,0,24.87,0a1.13,1.13,0,0,0,.19.32c.14.13.36.2.46.35A15.44,15.44,0,0,1,27,3a10.88,10.88,0,0,1,.83,3.38c.1,1.14.11,2.29.15,3.43a1.09,1.09,0,0,1-.1.44A8.18,8.18,0,0,1,27,12.13a4.62,4.62,0,0,0-1,2.66c-.16,1.44-.12,2.9-.16,4.35a.65.65,0,0,0,0,.14,17.42,17.42,0,0,0,0,1.77c.06.55-.15,1.08-.06,1.66a4.06,4.06,0,0,1-.34,1.46,19.46,19.46,0,0,0-.54,2.35A5.82,5.82,0,0,0,25,28.23a10.09,10.09,0,0,0,1.22,3.11,24.87,24.87,0,0,1,1.26,2.19,3.07,3.07,0,0,0,.36.67,2.59,2.59,0,0,1,.46,1.17c.1.54.26,1.07.4,1.6s.31,1,.4,1.46a2.64,2.64,0,0,0,1.27,1.86A1.67,1.67,0,0,1,31.09,42a2,2,0,0,0-.11.7,16.07,16.07,0,0,0,0,1.7,10.74,10.74,0,0,1-.59,3.77A19.91,19.91,0,0,1,29.57,50a16.21,16.21,0,0,0-1.33,4.22,25.68,25.68,0,0,1-.66,3.11,11.7,11.7,0,0,1-.72,2.29,12,12,0,0,0-.74,1.59A9.23,9.23,0,0,0,26,65.48c0,.16.1.32.14.48.13.56.28,1.11.4,1.67a4.06,4.06,0,0,0,.24,1.19A3.45,3.45,0,0,0,27.8,69.9,8.57,8.57,0,0,1,30,71.6a9.78,9.78,0,0,0,.72.72,3.32,3.32,0,0,0,1.25.75,5.42,5.42,0,0,0,1.11.11,2.25,2.25,0,0,1,1.43.49c.35.35.71.69,1,1a1.79,1.79,0,0,1,.43.57c.21.57.66,1,.58,1.74,0,.41,0,.57-.31.85a5.85,5.85,0,0,0-1,1.07,3.91,3.91,0,0,1-1.51,1.29,8.07,8.07,0,0,0-1.18.58A8.61,8.61,0,0,0,31.43,82c-.35.42-.64.89-1,1.27-.54.56-1.14,1.07-1.71,1.6a2,2,0,0,1-.81.52,3.33,3.33,0,0,0-1,.59,4.36,4.36,0,0,0-1.21,2.2,5.5,5.5,0,0,0-.32,1.5,10.18,10.18,0,0,0-.06,2.4,3.84,3.84,0,0,0,.2,1.33c.1.2-.08.54-.11.82-.05.54-.06,1.1-.15,1.64a3.5,3.5,0,0,1-.69,1.68c-.66.82-1.35,1.61-2,2.43a2,2,0,0,1-1.11.74,4.87,4.87,0,0,0-.76.15,2.9,2.9,0,0,0-1,.47,5.23,5.23,0,0,1-2.76,1c-.69.12-1.37.07-2,.13a1.51,1.51,0,0,0-1.15.5,19.42,19.42,0,0,0-1.46,2c-.36.63-.54,1.36-.86,2a4,4,0,0,1-.85,1.29c-1.12,1-2.2,2.11-3.32,3.15a13.53,13.53,0,0,0-1.37,1.75c-.59.75-1.15,1.54-1.81,2.23A8.51,8.51,0,0,1,2,117.22c-.14.08-.22.27-.33.4A8.31,8.31,0,0,0,.56,120,8.41,8.41,0,0,0,0,122.18a3.55,3.55,0,0,0,1.09,3,3.24,3.24,0,0,1,1,2.15,18.48,18.48,0,0,0,.27,2.33,11,11,0,0,0,1.11,3.49,3.25,3.25,0,0,0,2.39,1.69c1.48.21,2.37,1.26,3.29,2.18a9.94,9.94,0,0,0,2.41,2.07c.69.35,1.39.7,2.05,1.11a4.56,4.56,0,0,1,1.88,2.06,6.26,6.26,0,0,0,1.31,1.89,4.78,4.78,0,0,0,2.36,1.33,5.17,5.17,0,0,1,2.52,1.59,3.08,3.08,0,0,0,2.24,1c.21,0,.43.08.64.08a8,8,0,0,1,1.52.45,2.24,2.24,0,0,1,1.07.52,3.93,3.93,0,0,0,2.38,1,3.14,3.14,0,0,1,1.27.36,6.16,6.16,0,0,1,2.3,2.26c.35.58.71,1.16,1.08,1.73a4,4,0,0,1,.56,1.33,15.16,15.16,0,0,0,.56,1.6,8.84,8.84,0,0,1,.11,1.61,9.11,9.11,0,0,0-.28,2.27,3.89,3.89,0,0,1,.13.82,22.6,22.6,0,0,1-.1,2.6,12,12,0,0,1-.7,2.64,10.09,10.09,0,0,1-2.34,3.79c-.48.46-.9,1-1.35,1.47-.25.27-.53.49-.76.77-.73.89-1.43,1.81-2.16,2.7a9.83,9.83,0,0,0-1.12,1.31,5,5,0,0,1-1.3,1.48,4.54,4.54,0,0,0-1,1.34,5.24,5.24,0,0,0-.34.61c-.3.65-.61,1.29-.88,1.94a6.56,6.56,0,0,1-.43,1.25,5.92,5.92,0,0,0-.81,2.25,1.18,1.18,0,0,1-.39.71,7.81,7.81,0,0,0-1.86,1.72,2.93,2.93,0,0,0-.58,1.19c-.1.36-.07.75-.18,1.09a2.49,2.49,0,0,0,.86,2.67c.42.44,1.06.64,1.49,1.11a.36.36,0,0,0,.3.06c.5-.18,1-.32,1.2-.94a3.09,3.09,0,0,1,.75-1.26,2.09,2.09,0,0,0,.45-.89c.1-.42.05-.88.16-1.3a3.76,3.76,0,0,1,.44-1.18,3.07,3.07,0,0,0,.62-1.5,12.92,12.92,0,0,1,.15-2.32,4.35,4.35,0,0,1,.28-1,34.13,34.13,0,0,1,2.43-3.54c.57-.84,1.17-1.65,1.77-2.46a14.08,14.08,0,0,1,2-2.38l1-.85c.15-.15.26-.27.38-.37a7.36,7.36,0,0,0,1.12-1c.42-.58.84-1.16,1.31-1.7a9.47,9.47,0,0,0,1.58-2.67,14.13,14.13,0,0,1,.8-2,3.81,3.81,0,0,0,.53-1.27,14.1,14.1,0,0,0,.15-2.25c0-.91,0-1.82-.1-2.73-.16-1.4-.13-2.82-.16-4.22a11.63,11.63,0,0,1,.13-1.17,5.36,5.36,0,0,0-.77-3.15,4.11,4.11,0,0,0-.82-1.2,10.63,10.63,0,0,0-2.06-1.26,9.86,9.86,0,0,1-1.82-1c-.07-.06-.12-.15-.2-.17a8.79,8.79,0,0,1-2.69-1.54,9.92,9.92,0,0,0-2.51-1.14c-1.1-.36-2.21-.69-3.29-1.09a3.84,3.84,0,0,1-.6-.2c-.66-.39-1.28-.83-1.95-1.19a7.16,7.16,0,0,1-2.68-2.2,5.57,5.57,0,0,1-1-2,2.34,2.34,0,0,0-1.37-1.82,3.12,3.12,0,0,1-1.15-.82,2.61,2.61,0,0,0-.79-.55,15.87,15.87,0,0,1-2.3-1.49c-.56-.48-1.19-.88-1.76-1.35A7,7,0,0,0,10,133a9.17,9.17,0,0,1-3.06-3.07,9.41,9.41,0,0,1-.92-2.2,5.39,5.39,0,0,1-.39-1.26A6.57,6.57,0,0,0,5,124.12a4.74,4.74,0,0,1-.62-2,7.18,7.18,0,0,1,.86-3A6.7,6.7,0,0,1,6.12,117.71ZM28.18,8.37c0,.05.08.09.08.14V9.78a7.43,7.43,0,0,1-.13-1.3A.22.22,0,0,1,28.18,8.37Z" style="fill:#7d7d7d"/></g></g></svg>