<svg xmlns="http://www.w3.org/2000/svg" viewBox="0 0 93.35 91.89"><title>small-buds-branch</title><g id="Layer_2" data-name="Layer 2"><g id="small-buds-branch"><path id="fill1" d="M93.33,43.07c-.54,4-4.87,6.18-8.25,8.45a28.11,28.11,0,0,0-12,19,20.25,20.25,0,0,1,.12-10.14.15.15,0,0,1,0-.13h0s0,0,.07,0a20.38,20.38,0,0,1,4.26-8,37.17,37.17,0,0,0,3.58-4.14,9.67,9.67,0,0,0-.28-10.59A13.64,13.64,0,0,0,72,50.45c.1,3.18,1.34,6.35.72,9.47-.48,2.41-2,4.83-1.18,7.14A30.53,30.53,0,0,1,68,46.39c.51-2.73,1.4-5.45,1.29-8.23-.07-1.66-.77-3.58-2.36-4-2.17-.49-3.71,2.17-3.85,4.38-.39,6.52,4.49,12.63,3.73,19.13a142,142,0,0,1-7.31-20,13.49,13.49,0,0,1-.7-5.11c.32-2.67,2.16-5.06,2-7.75-.12-2.4-2.26-4.67-4.65-4.47a3.67,3.67,0,0,0-3,4.53l.41.75a2.38,2.38,0,0,1-.41-.75,40.52,40.52,0,0,0-13-14.14c.38.3.76.59,1.12.93a.19.19,0,0,1,.26.09s0,0,0,0h0l-.07,0A42.13,42.13,0,0,1,54,31c-4.09-6.78-9.86-12.18-16.33-16.79v0h0l.2.22a.66.66,0,0,1-.59-.34.26.26,0,0,1,.21,0A146.49,146.49,0,0,0,21.2,4.35l-1.07-.56h0s-.08,0-.09,0a0,0,0,1,1,.09,0l-.46-.23s0,.09,0,.1a.65.65,0,0,1-.39-.28.13.13,0,0,1-.17-.07.13.13,0,0,1,0-.06A29.24,29.24,0,0,0,10.62.19C6.86-.4,2.69.35,0,3A11.56,11.56,0,0,1,9,.79,29.83,29.83,0,0,1,18,4,140.1,140.1,0,0,1,44.63,21.13c-3.09-2-6.19-4.06-9.39-5.92l.18.18h0a0,0,0,0,1,0,0v0a.09.09,0,0,1-.1,0,.22.22,0,0,1-.16-.25s0,0,0-.05l-.46-.26a.16.16,0,0,1,0,.16l-.1-.1h0c0-.05,0-.11,0-.13l-.4-.22a.14.14,0,0,1,0,.13,1.48,1.48,0,0,0-.24-.26h0c-.68-.37-1.37-.74-2-1.09a30.41,30.41,0,0,0-9.13-3.31,19.45,19.45,0,0,0-6.72.12.29.29,0,0,1,.13,0,.16.16,0,0,1-.24,0l-.05,0a19.67,19.67,0,0,0-7.73,3.4A27.6,27.6,0,0,1,38.33,19a23.61,23.61,0,0,0-10-3.32A12.64,12.64,0,0,0,18.6,19c-1.24,1.25-2.11,3.32-1,4.67,1.68,2,4.95-.24,7.55.16a3.25,3.25,0,0,1,1.39-1.54c4.5-3,10.65-2.62,15.39,0l.39.22h0s-.06-.06-.1-.1a.13.13,0,0,1,.18,0l0,0a.08.08,0,0,1-.09.12c4.53,2.6,7.85,7,10.19,11.64A15.26,15.26,0,0,0,36,29a2.18,2.18,0,0,0-1.51,1.18c-.26.8.38,1.59,1,2.18,1.65,1.65,3.37,3.35,5.56,4.14a28.21,28.21,0,0,0,5.43,1,19.81,19.81,0,0,1,12.17,7,18.21,18.21,0,0,0-9-7.41s-.12,0-.13-.05h0l-.65-.23h-.06c0,.06-.09.13-.15.13s-.1-.16,0-.21a17.63,17.63,0,0,0-6.69-.79A6.51,6.51,0,0,0,37,32.19l3.24.24L39.54,31a1.24,1.24,0,0,0,2.16-.59,13.12,13.12,0,0,0-4.4-.7c5.83-1.83,12,2,16,6.54,4.7,5.24,8,11.56,11.25,17.8a42.29,42.29,0,0,0-3.28-3.41v.09L61,50.37h0s-.07,0-.05,0,0,0,0,0l-.6-.51a.14.14,0,0,1,0,.09.24.24,0,0,1-.15-.24l-.65-.6A.23.23,0,0,1,59.4,49l.07,0c-.6-.5-1.21-1-1.83-1.46h-.06a46.55,46.55,0,0,0-22-9,.28.28,0,0,1-.18,0h0q-1.56-.19-3.15-.27c-4.48-.23-9.86.79-11.62,4.93,2.82-4.38,9.08-4.69,14.21-3.78a56.05,56.05,0,0,1,21.91,9,15.77,15.77,0,0,0-4.15-2.06c-2.46-.74-5.39-.48-7.23,1.32s-2,5.29.17,6.74C48,56,51.14,54.29,54,53.63a11.71,11.71,0,0,1,13.29,7.7A22.19,22.19,0,0,0,61,58.15a7.47,7.47,0,0,0-6.7,1.19c-1.78,1.53-2.29,4.58-.66,6.3,1.82,1.93,4.92,1.35,7.57,1.48a12.45,12.45,0,0,1,9.32,5.08,7.85,7.85,0,0,0-5.37-5.66c-3.69-1.06-8.34.5-11-2.23a7,7,0,0,0,5.63,1l-.7-2-2.65-.18a10.1,10.1,0,0,0,4.2-1.08L68,67a28.31,28.31,0,0,0-12-8c5.84-1.19,11.64,3.2,14.15,8.6s2.52,11.58,2.47,17.53A22.47,22.47,0,0,0,69.1,79H69m0,0a22.22,22.22,0,0,0-5.18-4.64,14.07,14.07,0,0,0-8.13-2.54,8.16,8.16,0,0,0-7,4.32,8.39,8.39,0,0,1,6.94-3.38,14.48,14.48,0,0,1,7.56,2.43,21.13,21.13,0,0,1,10,16.7,8.15,8.15,0,0,0,3.2-8c.26.77.52,1.54.79,2.32a22.67,22.67,0,0,1,5.8-7,41.83,41.83,0,0,0,4.92-3.94c1.43-1.54,2.42-3.72,1.87-5.75-.79-2.92,1.3-6.51-.64-8.85a3.33,3.33,0,0,0-1.24-.92h0a.25.25,0,0,1-.25-.1,6.72,6.72,0,0,0-5.06.77,13.87,13.87,0,0,0-6.4,7.66c-2.32,6.88,1,14.8-1.78,21.54-.23-2-.44-4-.59-6a.3.3,0,0,1,0,.1,1,1,0,0,1-.13-.6.55.55,0,0,1,.15.19v-.39a.36.36,0,0,1-.1-.49,1.83,1.83,0,0,1,.08.25c0-.46,0-.92-.06-1.38h0l-.18-.35h0a.11.11,0,0,1,0-.15.57.57,0,0,1,.12.18,48,48,0,0,1,.73-10.77C75.62,63.79,78.74,57.54,84,53.7c2-1.47,4.29-2.57,6.18-4.19s3.41-4,3.15-6.44Zm3.68-30.16h0s0-.08,0-.08S72.75,48.84,72.71,48.84Zm.06,1.5s.07-.07.09,0v0ZM46.51,16.12h0s-.1,0-.06-.08S46.55,16.07,46.51,16.12ZM48,17.85l-.26-.26.15-.07v.05a.18.18,0,0,1,.14.21A.09.09,0,0,1,48,17.85Zm2,2.68h0a.11.11,0,0,1,0-.15.59.59,0,0,1,.23.51A.74.74,0,0,1,50,20.53Zm.93,1.06a2,2,0,0,1,.14.64A.53.53,0,0,1,50.92,21.59Zm1,2.23-.24-.25c-.07-.07.06-.17.14-.13a.31.31,0,0,1,.12.24h0a.12.12,0,0,1,0,.14Zm.75,1.69a.38.38,0,0,1,0-.21l0-.05.15.25C52.88,25.57,52.76,25.57,52.69,25.51Zm1.09,2.82h-.09s.1,0,.12,0Zm-.24-.67a.2.2,0,0,1-.13-.24.14.14,0,0,1,0-.06l.16.16h0a.12.12,0,0,1,0,.14Zm.19,1.13s-.06-.09,0-.13.09-.07.1,0h0a.13.13,0,0,1,0,.13ZM12.43,1.13h0a.13.13,0,0,1-.15,0A.22.22,0,0,1,12.43,1S12.47,1.12,12.43,1.13Zm8.07,3v0a.61.61,0,0,1,.41.15.27.27,0,0,1-.38,0l0-.06Zm.5.3.14,0h0l.16.15c-.08.14-.25,0-.31-.08Zm1.92,1h0a.19.19,0,0,1-.21-.06.23.23,0,0,1,.3.11v0S22.88,5.42,22.92,5.39Zm1.85.89.08.13-.13-.08Zm.33.63A.14.14,0,0,1,25,6.83l-.14-.2h.05a.36.36,0,0,1,.3.08C25.27,6.77,25.21,6.94,25.1,6.91Zm.6.3a.13.13,0,0,1-.06-.15h0s.1,0,.11,0a.17.17,0,0,1-.05.15Zm.55.25s.09,0,.09,0h0s-.08,0-.08,0Zm.15.36a.14.14,0,0,1,0-.19s0,0,0,0a.13.13,0,0,1,0,.19,0,0,0,0,0,0,0Zm.59.09h0s0-.08,0-.09.07.08,0,.09Zm.45.36a.34.34,0,0,1,.2-.06.13.13,0,0,1,.11.13,0,0,0,0,1,0,0,.15.15,0,0,0,.1.15h.21a.35.35,0,0,1,.29.35,1.37,1.37,0,0,1-.88-.58Zm1.39,1a.18.18,0,0,1,0-.24l.15.15.11.11a.2.2,0,0,1-.24,0Zm1.1.56h0s0-.08,0-.08.06.08,0,.08Zm1.08.52h0a.34.34,0,0,1-.41-.17.57.57,0,0,1,.5.24s-.11,0-.07-.07Zm.82.68a.11.11,0,0,1,0-.16h0L32,11a.12.12,0,0,1-.13,0Zm1,.33h0a.14.14,0,0,1,0-.18l0,0,.26.25a.13.13,0,0,1-.2,0,.05.05,0,0,1,0-.05Zm1.73,1.19a3.4,3.4,0,0,0-.73-.69.86.86,0,0,1,.5.21c.18.14.36.33.25.49Zm3.55,2.09c0-.05.09-.05.09,0h0c.05,0,0,0,0,0ZM39.55,16a.12.12,0,0,1,0-.17h0l.15.15A.14.14,0,0,1,39.55,16Zm1,.59-.41-.36a.55.55,0,0,1,.59.51v0Zm.62.5s.09,0,.09,0-.08.05-.09,0Zm.45.46-.16-.15.15-.07h0a.13.13,0,0,1,0,.18.08.08,0,0,1,0,0Zm.92.9c-.05,0-.05-.09,0-.09s0,.09,0,.1Zm.63.3a.54.54,0,0,1,.51.52c-.13-.21-.5-.26-.51-.51Zm1.25,1.11h-.08a.46.46,0,0,1-.37-.52h0a.6.6,0,0,0,.09.22h0c0,.09.15.09.25.1S44.45,19.79,44.4,19.85Zm-31.06-8.6h0c0-.1.16-.14.17,0Zm1.51-.59s0-.09,0-.09S14.9,10.66,14.85,10.66Zm1.53-.1c-.05,0-.05-.09,0-.09s0,.07,0,.07Zm4.1-.54a.45.45,0,0,1-.42,0A.4.4,0,0,1,20.48,10Zm1.36,1c-.09,0-.19-.14-.1-.19a.22.22,0,0,1,.14.19Zm3.7,0a.12.12,0,0,1,.18,0l0,0a.12.12,0,0,1-.17,0l0,0Zm.69.23h-.18a.1.1,0,0,1,.11-.08h0A.1.1,0,0,1,26.23,11.25Zm.23.85s.09,0,.09,0-.09.06-.09,0Zm.31-.46a.37.37,0,0,1-.29-.4l.49.35a.19.19,0,0,1-.2.07Zm1.07.23v0a.36.36,0,0,1-.25,0c-.07,0-.13-.14-.07-.2a1.11,1.11,0,0,0,.5.12.83.83,0,0,0-.18.13Zm1.19.47c-.05,0,0-.08,0-.08s0,.1,0,.11Zm.66.26h0s.08,0,.09,0a0,0,0,0,1-.08,0Zm1.56.76a.4.4,0,0,0-.14-.15c0-.06.11,0,.09,0h0c.07,0,.13.11.07.13Zm.87.59a.22.22,0,0,1-.2-.13c.06-.1.24,0,.19.1Zm3.4,2h0s0-.08,0-.08S35.56,15.91,35.52,15.91Zm.6.23h0a.12.12,0,0,1,0-.17s0,0,0,0l.15.16Zm.53.59a.34.34,0,0,1-.16-.45l0-.06a1.14,1.14,0,0,0,.15.45Zm.59.21h0a.13.13,0,0,1,0-.18s0,0,0,0a.12.12,0,0,1,0,.17l0,0Zm.69.59a.11.11,0,0,1,0-.16h0l.14.15a.1.1,0,0,1-.14,0ZM18.6,23c0-.1-.06-.19-.1-.29-.09-.29-.16-.59-.22-.88,0-.07.13-.05.16,0a.67.67,0,0,1,0,.2,1.26,1.26,0,0,0,.23.48C18.77,22.7,18.77,22.94,18.6,23Zm.84.42h0l-.15-.05a.1.1,0,0,1,.11-.08h0a.11.11,0,0,1,0,.13ZM20.82,20a.21.21,0,0,1-.17,0,.08.08,0,0,1,0-.13.87.87,0,0,1,.83-.21ZM24,22.25c-.12.08-.23.18-.35.25a1.85,1.85,0,0,1-.9.13A1.79,1.79,0,0,1,22,22.5l.94-.28c.31-.09.62-.19.92-.31s.87-.33,1.32-.47a1.21,1.21,0,0,1,.42-.05C25.17,21.84,24.48,21.91,24,22.25Zm1.37-2.37a.23.23,0,0,1,.2.14c-.06.09-.24,0-.19-.11Zm2.45.84h0c0,.09-.15.13-.21.06a.46.46,0,0,1,.43-.12Zm.54-.34h0s0-.08,0-.08,0,.07,0,.07Zm.51.11a.25.25,0,0,1-.14-.2h0c.1-.05.19.12.1.18Zm4.38-1.1h0l-.14-.05a.11.11,0,0,1,.11-.08h0a.09.09,0,0,1,0,.11Zm1.69.09a.26.26,0,0,1-.21,0c-.06,0-.05-.16,0-.16a.21.21,0,0,0,.2.09h0a.22.22,0,0,1,.26.07Zm.36-.05c0-.05.09-.05.09,0h0s-.08,0-.09,0Zm.66.14h0a.18.18,0,0,1,.24-.07l.06,0a.31.31,0,0,1-.25,0Zm.66-.25s.09,0,.09,0-.08,0-.09,0Zm.45.15a1.24,1.24,0,0,0-.92-.38,18.59,18.59,0,0,0-8.38,1.3.68.68,0,0,1-.59.06c-.19-.1-.18-.44,0-.44a.29.29,0,0,0-.31-.26.9.9,0,0,0-.42.16.82.82,0,0,1-.63.08c-.2-.09-.28-.41-.1-.53l-.36,0a.43.43,0,0,1,.32-.36c-.12-.28-.49-.32-.78-.26A2.57,2.57,0,0,1,24,19c.17-.19-.15-.43-.4-.47a6.74,6.74,0,0,0-3.06.2,14.14,14.14,0,0,1,6.32-1.58c.62-.05,1.24-.09,1.85-.09a11,11,0,0,1,3.6.67l-.45-.45c1.69.52,3.34,1.12,5,1.77.18.06.36.29.2.38Zm1,.3h0a.35.35,0,0,1,.26.18.21.21,0,0,1-.25-.12s0,0,0-.07Zm1.64-.36a0,0,0,0,1,.06,0,.14.14,0,0,1,0,.09h0a.19.19,0,0,1,.21.06.21.21,0,0,1-.27-.15Zm1-.24a.31.31,0,0,1-.21-.05h0a.15.15,0,0,1-.09-.18.12.12,0,0,1,0-.07c0,.14.28,0,.34.16a.12.12,0,0,1-.1.14h0Zm.19,1s.08,0,.08,0A0,0,0,0,1,40.85,20.22Zm.35-.86c-.11.05-.2-.14-.1-.19S41.3,19.31,41.2,19.36Zm.59.4h0a.37.37,0,0,1,.25.17.18.18,0,0,1-.26-.06.23.23,0,0,1,0-.11Zm.54.7c-.11-.05-.23-.11-.25-.22s.16-.23.2-.13h0a.23.23,0,0,1,.07.31l0,0Zm.49,2.25s0-.09,0-.09,0,.08,0,.09Zm0-2.06a.24.24,0,0,1-.09-.28v0a1.2,1.2,0,0,1,.37.23.24.24,0,0,1-.29,0Zm.89.79h0a.73.73,0,0,1,0-.36.39.39,0,0,1,.18.27c0,.11-.13.19-.18.09Zm.87,1.27h0s0-.09,0-.09,0,.07,0,.09Zm2.19,13.87a.09.09,0,0,1,.06.12h0l-.14-.05a.11.11,0,0,1,.11-.07Zm-.31.05h0a.16.16,0,0,1-.19.14.44.44,0,0,1-.23-.15.49.49,0,0,1,.41,0Zm-.84-.08-.16.06h0l-.14-.06A.22.22,0,0,1,45.59,36.55Zm-1.19-.12h0l.11.1a.38.38,0,0,1-.51-.11A.43.43,0,0,1,44.4,36.43Zm-1.61-.25h0a.39.39,0,0,1,.26,0,.14.14,0,0,1,.1.2,2.44,2.44,0,0,0-.69-.23c.09-.06.29-.06.32.06Zm16.65,2.14s.05.09,0,.09,0-.09,0-.09Zm.1-15.91a.11.11,0,0,1,0,.16,0,0,0,0,1,0,0,.12.12,0,0,1,0-.17l0,0Zm0,2.23a.27.27,0,0,1,.13.37v0l-.16-.15h0a.32.32,0,0,1,0-.25ZM56,21.15c.12-.12.32-.13.42-.26a1.22,1.22,0,0,1,.15.17.66.66,0,0,0-.36.8c0,.09.07.21,0,.27l-.14-.22c-.15-.24-.28-.57-.08-.76Zm.12,1.46a.4.4,0,0,1-.07-.28.14.14,0,0,1,.23-.08l-.11.11h0a.28.28,0,0,1-.06.25Zm-.71,3a.16.16,0,0,1,.05.14s-.1.06-.1,0h0a.11.11,0,0,1,0-.16Zm-.16,2.54c.39-.24.12-.92.43-1.26a5.94,5.94,0,0,1,.14-1.68,4.8,4.8,0,0,1,.51.88c.17.3.52.59.85.45a.9.9,0,0,0,.38-.93c0-.18,0-.45.22-.38-.19-1-.38-2-.56-3a.13.13,0,0,0-.14-.09v0c0-.12.17-.2.29-.16a.54.54,0,0,1,.28.31l1.3,2.36a3,3,0,0,1,.53,2.2l-1.36,4.33c-.11.35-.22.71-.31,1.08s-.2,1-.26,1.58c-.11-1.1-1.09-1.9-1.6-2.89a8.18,8.18,0,0,1-.32-.82c-.16-.43-.3-.85-.46-1.28-.1-.24-.14-.57.07-.7Zm1.93,4.94h-.1a0,0,0,1,1,.09,0Zm-1.67-.19h0s0-.08,0-.09,0,.06,0,.07Zm-.17-3a.62.62,0,0,1-.14.14h0a.29.29,0,0,1,0-.2c0-.07.07-.14.14-.11a.13.13,0,0,1,0,.13Zm-.19-.52v0H55c0-.09.07-.12.09-.07Zm-.3,2.34c0,.06-.07.16-.12.1h0l-.1-.1a.13.13,0,0,1,.17-.06l0,0Zm-.15-10.28h0a.23.23,0,0,1-.11.3h0a.19.19,0,0,1,0-.28.16.16,0,0,1,.13-.06Zm-.1,7.38h0s0-.09,0-.09,0,.05,0,.05Zm-.05,2.36v0a.18.18,0,0,1,.05.24.12.12,0,0,1-.05.05.3.3,0,0,1,0-.26Zm-.14-1,0,0a.37.37,0,0,1-.21-.44A.85.85,0,0,1,54.4,30.19Zm-.23-5.55s0,.08,0,.09S54.13,24.64,54.17,24.64ZM54,31.31l.18.26c.05.09.09.23,0,.26s-.16-.1-.17-.2h0A.24.24,0,0,1,54,31.31Zm-3.64-4.73,0,.18a.26.26,0,0,1,.19.29.22.22,0,0,1-.08.13.45.45,0,0,0-.11-.35.69.69,0,0,1-.11-.13c0-.06,0-.15,0-.14Zm-.22-.3s0,.08,0,.09h0s0-.11,0-.11ZM49.06,25.2s.1,0,.09,0h-.1Zm-.59-1.26a.14.14,0,0,1,0,.19h0a.13.13,0,0,1,0-.17.1.1,0,0,1,.07,0Zm-.72-.8s0,.09,0,.09,0-.1,0-.11Zm-.47-.2c0-.1.23-.12.24,0a1.09,1.09,0,0,1-.07.4l-.07-.07a.39.39,0,0,1-.07-.35Zm-.23-.41c.1-.05.2.14.1.19s-.17-.16-.07-.22ZM46.46,22a.17.17,0,0,1-.05.22.27.27,0,0,1-.16-.24h0a.14.14,0,0,1,.22,0,.1.1,0,0,1,.05,0ZM46,21.47a.4.4,0,0,1,.09.21.1.1,0,0,1-.16-.12h0s-.07-.07-.11-.1a.14.14,0,0,1,.19-.06s0,0,.05.05Zm-.45.74s0,.08,0,.09S45.51,22.21,45.59,22.21Zm-.71-2.05a1.15,1.15,0,0,0,.45.59.22.22,0,0,1-.22,0,.43.43,0,0,1-.29-.54.19.19,0,0,1,0-.08Zm.59,3.36a.14.14,0,0,1,0-.19h0l.1.1h0s0,.14-.11.1Zm1.4,1.39a.2.2,0,0,1,0-.27l.14.15h0c.07.08-.09.19-.15.12Zm.46.48h0l-.1-.1a.19.19,0,0,1,.27.07.08.08,0,0,1,0,.05.12.12,0,0,1-.17,0l0,0Zm.57.46a.54.54,0,0,0-.15-.15c0-.06.12,0,.09.05h0s.12.09,0,.1Zm1.67,2,.13,0h0C49.77,27.86,49.58,27.91,49.57,27.83Zm.44.67a.36.36,0,0,0-.15-.15c0-.06.12,0,.1,0h0c.06,0,.11.07,0,.08Zm1.73,3.24h0s0-.08,0-.09,0,.07,0,.07Zm0-.29a.34.34,0,0,1-.07-.19c0-.06.08-.12.13-.09h0a.3.3,0,0,1-.06.26Zm.59,1.3s0-.08,0-.09.05.07,0,.07Zm0-.31s0-.08,0-.08.05.07,0,.07Zm.81.93a.15.15,0,0,1,0-.19h0a.12.12,0,0,1,0,.18Zm3,4.73h0s0-.08,0-.08,0,0,0,.06,0,0,0,0Zm.79,1c-.07-1.1-1.52-1.74-1.57-2.84a2.19,2.19,0,0,0-.48-1.1l-2.37-3.56-.74-1.11q-1.3-2-2.81-3.88c-.59-.73-1.25-1.44-1.9-2.12a6.44,6.44,0,0,0-2.24-1.74,2.12,2.12,0,0,0,1-.2c3,2.29,4.74,5.92,7.27,8.72a14.16,14.16,0,0,1,1,1.18,10.3,10.3,0,0,1,1.12,2.16L57,38.82c0,.09,0,.3-.08.31Zm-.88-5s.06.08.05.13-.1.07-.11,0h0a.13.13,0,0,1,0-.13Zm1.31,3.64s0-.09,0-.09,0,.09,0,.09Zm.46,1.1h0s.1,0,.09,0Zm1.83,4.18h0a.38.38,0,0,1-.19-.16c0-.08.13-.06.16,0s.05.17.13.19-.15,0-.11,0Zm.74,1.08a3.24,3.24,0,0,0-.55-1.26,9.81,9.81,0,0,1-1.19-2.46l-.75-2c-.12-.32-.24-.63-.35-.94l-1.87-5a.42.42,0,0,1,0-.31c0-.1.2-.15.25,0-.11,0-.09.17,0,.27a19.47,19.47,0,0,1,2.43,5.39c.09.46.14.92.23,1.37a8.23,8.23,0,0,0,1.22,3c.4.63.94,1.36.64,2.06Zm1.73,3.28a.15.15,0,0,1,0-.2h0a.13.13,0,0,1,0,.19l0,0ZM44.36,40.92h0s0-.08,0-.08,0,.09,0,.1Zm6.17,2.74h0s0-.08,0-.08,0,.09,0,.1Zm1.93.92-.16-.16.15-.06h0a.12.12,0,0,1,.08.15.14.14,0,0,1-.09.08Zm.82.42s0-.09,0-.09S53.28,45,53.28,45Zm3.66,2s0,.08,0,.08-.1-.08,0-.08Zm-3.6,0s.1,0,.09,0Zm-3,1.31a2,2,0,0,1,1,.38.26.26,0,0,1,.13.2c0,.07-.11.15-.17.08a1,1,0,0,0-.59-.39c-.19,0-.4-.1-.37-.27Zm-2.52-1.11-.25.09h0c0,.1-.15.15-.19.07a.45.45,0,0,1,.41-.16Zm-1.44,1.28a3.69,3.69,0,0,0,.45-.11,1.45,1.45,0,0,1,.55,0,5.47,5.47,0,0,1,2,1,19.62,19.62,0,0,1-3.46-.76C46,48.55,46.18,48.55,46.35,48.55Zm.13,3.82c-.06.13-.13.29-.27.32a.31.31,0,0,1-.28-.12,1.68,1.68,0,0,1-.51-.75.22.22,0,0,1,0-.16c0-.09.15-.12.25-.13.49-.07,1-.13,1.48-.18.11,0,.26,0,.3.11a1.77,1.77,0,0,0-1,.93Zm5.86,1.32s0-.08,0-.08,0,.1,0,.1Zm2.54-1h0c-.1,0,0-.21.09-.22a.37.37,0,0,1,.25.18A.67.67,0,0,1,54.88,52.69Zm3.14-.1h0s0-.08,0-.08S58.06,52.59,58,52.59Zm-3.82-.3c-1.92.4-3.7,1.39-5.65,1.59a1.85,1.85,0,0,1-.74-.06.66.66,0,0,1-.45-.55.82.82,0,0,1,.22-.52A2.69,2.69,0,0,1,50.82,52a.64.64,0,0,0,.85-.31.63.63,0,0,0-.2-.78c-.17-.12-.43-.22-.39-.42s.23-.2.39-.22a14.38,14.38,0,0,1,6.18,1.58,3.19,3.19,0,0,1,1,.6A9.62,9.62,0,0,0,54.2,52.29Zm5.09.45.12,0a1.71,1.71,0,0,1,.72.43A1.28,1.28,0,0,1,59.29,52.74Zm1.51.4-4.47-2.52c-.27-.15-.53-.3-.81-.44A17,17,0,0,0,52.62,49a.42.42,0,0,0,.19-.56l0,0A1.14,1.14,0,0,0,52.2,48l-1.45-.66a.6.6,0,0,1,.49,0A32.44,32.44,0,0,1,61.3,53.17C61.22,53.32,61,53.24,60.8,53.14Zm1,.78-.1-.1h0c-.06-.06,0-.16.1-.12a.13.13,0,0,1,0,.18Zm.4-2.13c-.1,0-.2-.14-.11-.19a.23.23,0,0,1,.15.19Zm.87.9c0,.06-.1.11-.1.05a.31.31,0,0,0,.13-.25C63.16,52.53,63.14,52.69,63,52.69Zm2.09,1.63h0s0-.09,0-.09S65.16,54.32,65.13,54.32Zm.3.59c-.05,0,0-.09,0-.09s0,.1,0,.1ZM67.3,67.85l-.15.05h0L67,67.74c.06-.1.22,0,.29.13Zm-1.54-.75v.08h0a.41.41,0,0,1,.31,0,.26.26,0,0,1-.37-.06.08.08,0,0,1,0,0s0,0,.07,0Zm-3.38-.83a0,0,0,0,1,0,.06s0,0,0,0h0c-.05,0-.05,0,0,0ZM61.88,62s0,.09,0,.09a0,0,0,0,1,0-.07Zm-7.43,1,1.93.13a9.13,9.13,0,0,1-2-.12ZM56,60.35c0-.06.1-.07.16-.07h.53a.19.19,0,0,1,.14,0c.05.09-.1.16-.2.16h-.43c-.1,0-.24,0-.21-.1ZM68,37.74c0-.05.09,0,.11,0a.17.17,0,0,1-.06.14.13.13,0,0,1,0-.15Zm-1.7,2.6a.13.13,0,0,1,0-.15h0s.1,0,.11,0A.14.14,0,0,1,66.31,40.34Zm0-.71a.14.14,0,0,1,0,.19h0a.13.13,0,0,1,0-.18Zm0-.35v-.05a.2.2,0,0,1,.06.27l0,0-.15-.15Zm-1.05-3.79h.24c.08,0,.26-.16.36-.08s0,.27-.06.41.09.4.12.59,0,.18-.1.18-.12-.07-.14-.14a3.56,3.56,0,0,0-.1-.47.42.42,0,0,0-.33-.31c-.07,0,0-.15,0-.18Zm-1.43,6.26c-.05,0-.05-.08,0-.09s.06.09,0,.09Zm.1-5s0-.08,0-.08.06.08,0,.08Zm.5,7h0l-.1.2a.49.49,0,0,1-.08-.24.17.17,0,0,1,.17-.16c.08,0,.12.2,0,.2Zm.25,1.09v0a.19.19,0,0,1-.06-.26l0,0,.15.15Zm1.82,2c-.25,0-.44-.23-.6-.44a11,11,0,0,1-1.65-4.46,2.8,2.8,0,0,1,.2-1.54,4.13,4.13,0,0,0,.45-.79A3.89,3.89,0,0,1,65,39.1a.37.37,0,0,1,.39-.26,40.92,40.92,0,0,1,1,5.59,19.11,19.11,0,0,1,.1,2.39Zm.26-5.07s0-.08,0-.09.07.09,0,.09ZM67,53.5a.35.35,0,0,1,0-.39l0,0a.22.22,0,0,1,0,.29L67,53.5Zm.25-2.37a.2.2,0,0,1-.24.14l-.06,0,.16-.16h0Zm0-1,.1.1h0c.06.06,0,.16-.11.12a.14.14,0,0,1,0-.19.15.15,0,0,1,.06-.05Zm-.09,1.92a.26.26,0,0,1,.07.18.11.11,0,0,1-.13.11h0A.37.37,0,0,1,67.13,52.1Zm.11,2.84.15.16a.11.11,0,0,1-.15,0,.12.12,0,0,1,0-.16Zm.1.91a.13.13,0,0,1,0-.18l0,0a.15.15,0,0,1,0,.19h0Zm0-11.64c.14-1.62-.72-3.18-.83-4.81a.7.7,0,0,1,.09-.47A1.82,1.82,0,0,0,67,37.29c.36.06.32.71.67.81a.92.92,0,0,0,.33,0c.11,0,.24.06.26.16A37,37,0,0,1,68,42.2a9.44,9.44,0,0,1-.34,1.91.37.37,0,0,1-.11.18c-.06,0-.17,0-.16-.09Zm1.89,18.36.15.52a.34.34,0,0,1-.24-.42.32.32,0,0,1,.08-.14Zm4-2.84h0a.12.12,0,0,1,0-.17l0,0a.12.12,0,0,1,0,.16Zm0-5.23c.07,0,.17-.07.22,0a.22.22,0,0,1,0,.11,2.43,2.43,0,0,0,.08.47.73.73,0,0,1-.37-.61Zm8.55-14.09s0,.1-.06.07h0c-.06-.08,0-.16,0-.11Zm-1.54-.64h0l.14.06a.2.2,0,0,1-.24.14l-.06,0Zm-3.14,0a1,1,0,0,0,.07.15h0a.15.15,0,0,1-.19,0l0,0Zm-.67.64a.42.42,0,0,0,.26-.12c.08,0,.06.16,0,.19a.31.31,0,0,1-.23,0Zm-.74.74c.09,0,.14-.1.19-.19s.17-.16.2-.07a.47.47,0,0,0-.1.36h0a.31.31,0,0,1-.29.1C75.68,41.31,75.7,41.12,75.78,41.15Zm-.35.42a.11.11,0,0,1,0,.16s0,0,0,0h0l-.11.1a.19.19,0,0,1,.07-.26l.06,0ZM75,43h0c0-.06.09-.11.09,0a.34.34,0,0,0-.15.14s0-.13.08-.1Zm-.25.21a.14.14,0,0,1,0,.19l-.06,0v0c-.06,0-.14-.05-.13-.12s.15-.12.22-.12Zm-.41.9s0,.1.07.15h0a.13.13,0,0,1-.17,0l0,0Zm-.3.41.22,0c0,.15-.12.26-.2.39s0,.36.1.36.14-.09.18-.17l2.06-3.65c.21.09.41-.13.55-.32a5.44,5.44,0,0,1,2.37-1.84L78,40.68c-.36.42-.74,1-.52,1.49a2.33,2.33,0,0,0,1.85-.6c.16.15-.08.36-.17.55s.23.65.6.59a1.53,1.53,0,0,0,.85-.51c.09.36-.14.72-.22,1.09s.13.89.5.81.42-.36.66-.29a15,15,0,0,1-1.06,3.55,6,6,0,0,1-1,1.67,12.39,12.39,0,0,1-1.78,1.37,18.65,18.65,0,0,0-3.78,4.38,8.11,8.11,0,0,1-.88-4.35A16.54,16.54,0,0,1,74,46a2.43,2.43,0,0,0,.18-.74l-.29.05A1.44,1.44,0,0,1,74,44.5Zm-.59,1.83s0,.08,0,.08,0-.08,0-.08Zm-.1.4s0,.08,0,.09,0,0,0-.06Zm.15.45a.14.14,0,0,1-.19,0s0,0,0,0a.13.13,0,0,1,.17,0ZM73,48c.1-.05.19.14.09.19S72.92,48,73,48Zm0,11.33.21-.29a.49.49,0,0,1,0,.41h0a.11.11,0,0,1-.11.11.1.1,0,0,1-.1-.11h0a.21.21,0,0,1,0-.12Zm-.26,1.19h0a1.21,1.21,0,0,1,.16-.16.26.26,0,0,1,0,.29.92.92,0,0,1-.22.22.25.25,0,0,1,0-.35l0,0ZM72,67.92s0-.09,0-.09a0,0,0,0,1,0,.07Zm.21-2.84h0s0-.08,0-.08,0,0,0,0Zm0-.5s0-.09,0-.09,0,0,0,0Zm0-1a.23.23,0,0,1,0-.31l.06.15h0a.15.15,0,0,1,0,.14Zm.1,1.18h0a0,0,0,0,1,0-.06l0,0s0,.09,0,.09Zm.45-2.84-.1.46h0c-.06.05-.16.08-.17,0a.66.66,0,0,1,.26-.46ZM55.06,72.17h0a.19.19,0,0,1-.21-.06.22.22,0,0,1,.29.11v0C55.09,72.27,55,72.23,55.06,72.17Zm5.21.69h0l-.16-.08a.47.47,0,0,1,.52.13.26.26,0,0,1-.36,0l0,0ZM71.92,84l-.15-.15a.11.11,0,0,1,.16,0h0a.11.11,0,0,1,0,.15Zm4,1.93h0a.14.14,0,0,1,0-.18l0,0a.13.13,0,0,1,0,.18s0,0,0,0Zm0-.6s-.07-.08-.06-.13.11-.07.12,0h0a.13.13,0,0,1-.08.12Zm0-1.42a.16.16,0,0,1-.06-.13c0-.05.11-.07.12,0h0a.13.13,0,0,1-.08.12Zm0-.7s0,.09,0,.09-.06-.1,0-.1ZM76,84.88s.08,0,.08,0-.1,0-.1,0Zm.4-3.85s.09,0,.09,0-.1,0-.1,0Zm.15,2.49a.2.2,0,0,1-.06-.14,3.81,3.81,0,0,1,0-.59.84.84,0,0,1,.19.51c0,.11-.1.26-.19.18Zm.1-.9s0,.08,0,.08h0c-.06,0-.06-.1,0-.1Zm.81-.42a.25.25,0,0,1,0-.25h0a.25.25,0,0,1,.2.13Zm.32-1.69a.2.2,0,0,1,0,.27l-.15-.15h0c-.1-.11.06-.21.14-.11ZM88,73.34a4.86,4.86,0,0,1-2.18,2.72l-3,2.14c-1.92,1.39-3.94,2.88-4.91,5,0,.06-.13.06-.17,0a.34.34,0,0,1,0-.2C78.35,80,79.08,77,80,74a17.43,17.43,0,0,1,1.26-3.36,7,7,0,0,1,2.33-2.68c-.19.34.27.72.66.67s.71-.28,1.09-.35a2.29,2.29,0,0,1,1.54.55c.63.42,1.25.86,1.86,1.31A6.44,6.44,0,0,1,88,73.33ZM78,79.75a.09.09,0,0,1,.07.1v0h0l-.14,0a.08.08,0,0,1,.1-.08Zm0-.49a.19.19,0,0,1,0-.1c.07,0,.18,0,.18.12a.41.41,0,0,1-.11.23l0,0a.37.37,0,0,1-.09-.28ZM78.42,78a2,2,0,0,1,.12-.19.62.62,0,0,1,0,.33.11.11,0,0,1-.1.1s-.1-.15,0-.24Zm.4-1.7.11.36a6.07,6.07,0,0,0-.24.59,1.81,1.81,0,0,1,.11-1Zm.19-1.4a.19.19,0,0,1,.13.25.08.08,0,0,1,0,0L79,75h0a.09.09,0,0,1,0-.13Zm.56-.6a.12.12,0,0,1,0,.15l-.25-.25a.18.18,0,0,1,.26.06.08.08,0,0,1,0,0Zm.16-1.08a.7.7,0,0,1-.11.72.66.66,0,0,1,.08-.7Zm0-1.11a.1.1,0,0,1,.09-.09H80a.25.25,0,0,0,.13-.14c.08-.2.17-.39.26-.59.08,0,.07.14,0,.21a1.33,1.33,0,0,1-.21.47.41.41,0,0,1-.49.17Zm.3.6a.14.14,0,0,1-.14-.13v0a.13.13,0,0,1,.25.09A.14.14,0,0,1,80.08,72.72Zm.74-2.27h0a.24.24,0,0,1-.14.21C80.61,70.57,80.72,70.39,80.82,70.45Zm.55-.81a.11.11,0,0,1-.09-.15h0a.25.25,0,0,1,.16-.14.34.34,0,0,0,0,.14h0c.06.06,0,.16-.08.15Zm.24-.59a.71.71,0,0,1,.18-.27.23.23,0,0,1,.29,0l-.2.21-.25.26a.2.2,0,0,1,0-.22Zm2.61-1.77a.3.3,0,0,1,.4,0,.56.56,0,0,1-.36,0Zm2.72,1.08a.5.5,0,0,1,.51.12l-.1.1h0a.72.72,0,0,1-.41-.24Zm-8.45-3.71a.19.19,0,0,1,.2-.06c.06,0,.07.16,0,.17h0c0,.12-.23.12-.23,0a.16.16,0,0,1,0-.13Zm-.71,1.25c.09,0,0,.24-.1.19h0a.26.26,0,0,1,.14-.21ZM77.57,67v0c.05.06,0,.15-.11.13s-.11-.09-.15-.16.2,0,.25,0Zm-.15.35s.1,0,.11,0a.14.14,0,0,1,0,.14.13.13,0,0,1,0-.15Zm-.59.56.23-.3a.53.53,0,0,1,0,.35.24.24,0,0,1-.13.15.11.11,0,0,1-.14-.06s0,0,0,0a.22.22,0,0,1,.08-.14Zm0,1.31s0-.08,0-.09.08.07,0,.07Zm-.26.36s-.08,0-.09,0,.12-.06.13,0Zm.41-.52a11.68,11.68,0,0,1,9.84-8.6,1.22,1.22,0,0,1,.6,0,1.32,1.32,0,0,1,.53.59,5.64,5.64,0,0,1,1,3.36,6,6,0,0,1-1,2.23,1.68,1.68,0,0,0-.29.73.59.59,0,0,0,.39.59.92.92,0,0,1,.65.71,2.74,2.74,0,0,1,0,1,9.38,9.38,0,0,0-2-2.16.69.69,0,0,0,.15-1,.64.64,0,0,0-.25-.21,2.15,2.15,0,0,0,1.09-1c.18-.46-.17-1.12-.66-1-.17-.59.43-1.26.1-1.78a.77.77,0,0,0-1-.16,2.14,2.14,0,0,0-.74.84c-.12-.39.14-.77.34-1.13s.28-.89-.07-1.1-.69,0-1,.27a5.39,5.39,0,0,0-1.41,2c-.29.74-.42,1.55-.78,2.26a3.2,3.2,0,0,0-.33.73.69.69,0,0,0,.2.72c.16.12,0,.36-.15.48a7.64,7.64,0,0,0-2,2.37,14.77,14.77,0,0,0-.83,2.06,79.48,79.48,0,0,0-2.63,10c-.28-.83.32-1.92-.31-2.53a.85.85,0,0,1-.18-.59,49.34,49.34,0,0,1,.12-5.44A22.7,22.7,0,0,1,77,69.06ZM86.76,67s0,.09,0,.09,0-.1,0-.1Zm.07-4.21s0,0,.06,0a.11.11,0,0,1,0,.08h0a.19.19,0,0,1,.21.06.22.22,0,0,1-.23-.15ZM76.26,71.05a.29.29,0,0,0,.15.14c0,.06-.13,0-.09,0h0C76.25,71.17,76.2,71.05,76.26,71.05Zm0,1.26s-.09,0-.09,0,.09,0,.09,0Zm-.09,9.63s.09,0,.09,0S76.22,82,76.21,81.94Zm0,.51a.28.28,0,0,1,0,.25.49.49,0,0,1-.16-.19.17.17,0,0,1,.08-.21c.08,0,.17.08.12.14Zm-.14-5s0,.08,0,.08-.06-.09,0-.09Zm0-5.33s.07,0,.08,0-.1,0-.1,0Zm0-1.87.13.27-.13,0h0a.26.26,0,0,1,0-.33Zm-.12,3a.16.16,0,0,1,0,.24.12.12,0,0,1,0,0v0a.39.39,0,0,1,0-.26Zm0,1.9a.64.64,0,0,1,0,.54.62.62,0,0,1,0-.53Zm-.1,1.44a.2.2,0,0,1,.06.14s-.1.06-.11,0h0a.12.12,0,0,1,0-.15ZM75.6,87.31a.12.12,0,0,1-.17,0s0,0,0,0a.12.12,0,0,1,.18,0h0Zm-.31,1.92a.12.12,0,0,1-.18,0s0,0,0,0a.13.13,0,0,1,.17,0l0,0Zm-1.57-3.6s0-.08,0-.08,0,.07,0,.08Zm0-.79v0a.32.32,0,0,1,0,.25.18.18,0,0,1,0-.25.18.18,0,0,1,.07,0Zm-.94-14.1c.1,0,.2.13.11.19a.23.23,0,0,1-.14-.19Zm.1,5.26s0-.09,0-.09,0,.09,0,.09Zm-.09-3.44a.75.75,0,0,1-.17-.47.2.2,0,0,1,0-.13c.08-.06.19.06.19.16a.71.71,0,0,0,0,.29h0a.15.15,0,0,1-.07.15Zm0,3.8s.08,0,.09,0-.1,0-.1,0Zm.2,1.52.09-.1a1.34,1.34,0,0,1-.17-1,2.05,2.05,0,0,1,.25,1.33Zm.25,2.37h0s0-.09,0-.09,0,.09,0,.1Zm.08-.32a.12.12,0,0,1-.16-.06v0a.24.24,0,0,1,.06-.2l.1.1h0C73.49,79.79,73.5,79.93,73.41,79.93Zm.19-6.38s0-.09,0-.09.06.1,0,.11Zm0-2.53c-.1,0-.07-.2,0-.2h0s.08-.11.09,0a.34.34,0,0,0,0,.28ZM74,68.9a.13.13,0,0,1,0-.18l0,0h0l.15.06a1,1,0,0,0-.13.16ZM74,68h0s-.09,0-.1,0a.14.14,0,0,1,0-.13c.07-.1.23-.17.27-.06a.17.17,0,0,1-.16.21Zm4.1-9h0a.22.22,0,0,1-.13.2c-.06-.05,0-.23.14-.18Zm-3.49,8.1h0a.11.11,0,0,1,0-.2.35.35,0,0,0,.13.26c0,.07-.09,0-.06,0Zm0-1,.16-.15h0l.13.05a.2.2,0,0,1-.24.13h0Zm.59-.66h0s-.07.1-.09,0a.29.29,0,0,0,.15-.14c.1,0,.06.14,0,.12Zm.13-.81a.52.52,0,0,0-.23-.35c0-.06.12,0,.1,0h0a.16.16,0,0,1,.2.09.17.17,0,0,1,0,.23Zm.09-1,0,0a.17.17,0,0,1,.21-.14.14.14,0,0,1,.11.06Zm1-1.25a.26.26,0,0,1-.31,0A.26.26,0,0,1,76.46,62.37Zm1.37-2.18a.21.21,0,0,1,0-.2.36.36,0,0,1,.41-.28,1.24,1.24,0,0,0-.31.5Zm1.36-2a.12.12,0,0,1-.17,0l0,0,.16-.15a.47.47,0,0,0,.06.15Zm.09-.74a.1.1,0,0,1-.06-.13h0l.14.05a.12.12,0,0,1,0,.1Zm2.42-2.4a.38.38,0,0,1-.21,0h0c0,.06-.1.11-.1,0s.12-.11.18-.17.16-.12.21,0a.11.11,0,0,1,0,.15Zm.38-.41c-.09,0-.13-.17,0-.18h0a.39.39,0,0,1,.26,0c-.06.08-.13.16-.22.15Zm.59-.59h0L82.53,54l.15-.16a.12.12,0,0,1,0,.17h0Zm.54-.59a.3.3,0,0,1-.18-.06l.21-.1h0c0-.05.13,0,.13.06a.14.14,0,0,1-.18.06h0Zm6.33-3.74h0a0,0,0,0,1,0-.08S89.57,49.73,89.54,49.73Z"/></g></g></svg>