<svg xmlns="http://www.w3.org/2000/svg" viewBox="0 0 35.6 118.28"><defs><style>.cls-1{fill:#6f8d4f;}</style></defs><title>stem-2</title><g id="Layer_2" data-name="Layer 2"><g id="stem-2"><path id="void" class="cls-1" d="M2.41,117.82l-1.17-.52,1.63-4.69,2.84-8.49L9.59,88.57l2.22-11.19,2.28-18.11L15.78,39.7l1.34-21L17.35,4.9,15.72,8.06,13.37,10.8l-3.16,2.94,2.14-5.15.89-2.78L15.16,3l-1.63.66L9.29,6.86,6.23,9.24,3,10.07l-1.35.24-.74-.24L3.49,8.75,7.53,5,11.77.85,14.29.49S16.7,1,16.89,1A5.87,5.87,0,0,1,18,1.67h.88l2-1L24.3.27,28,.85,30.5,2.2,33,2.68l1.86-.26L33.59,3.7,31,4.05,27.14,2.77l-3-.57H21.92l.32.57,1.7.69L25.54,5l1.69,2.67L29,9.89l1.3.72-1,.52-2.84.68-1.63-1.33L23.06,6.82,21.85,4.41l-1.4-.71-1.76-.27-.15,3v8.48L18.2,25.28,17.42,41.2,16.3,53.46l-.91,10.32-.78,6.39-1.08,7-1.86,9.46L9.07,98.06l-2.26,7.6-2.25,6.88Z"/><path id="fill2" class="cls-1" d="M2.41,117.82l-1.17-.52,1.63-4.69,2.84-8.49L9.59,88.57l2.22-11.19,2.28-18.11L15.78,39.7l1.34-21L17.35,4.9,15.72,8.06,13.37,10.8l-3.16,2.94,2.14-5.15.89-2.78L15.16,3l-1.63.66L9.29,6.86,6.23,9.24,3,10.07l-1.35.24-.74-.24L3.49,8.75,7.53,5,11.77.85,14.29.49S16.7,1,16.89,1A5.87,5.87,0,0,1,18,1.67h.88l2-1L24.3.27,28,.85,30.5,2.2,33,2.68l1.86-.26L33.59,3.7,31,4.05,27.14,2.77l-3-.57H21.92l.32.57,1.7.69L25.54,5l1.69,2.67L29,9.89l1.3.72-1,.52-2.84.68-1.63-1.33L23.06,6.82,21.85,4.41l-1.4-.71-1.76-.27-.15,3v8.48L18.2,25.28,17.42,41.2,16.3,53.46l-.91,10.32-.78,6.39-1.08,7-1.86,9.46L9.07,98.06l-2.26,7.6-2.25,6.88Z"/><path id="fill2-2" data-name="fill2" d="M8.61,91.57A22,22,0,0,0,9.16,89c.07-.87.39-1.66.5-2.51a16.46,16.46,0,0,1,.56-2.17c.15-.57.33-1.14.43-1.72.22-1.25.37-2.52.6-3.77.17-1,.3-1.92.46-2.88a7.09,7.09,0,0,1,.39-2.17,3.68,3.68,0,0,0,.16-1.17c.06-.54.08-1.08.15-1.62.13-.94.3-1.87.43-2.81.05-.34.08-.7.12-1,.13-1.1.31-2.19.35-3.3a12.49,12.49,0,0,1,.51-3.43.65.65,0,0,0,0-.2A14.61,14.61,0,0,1,14,58,11.16,11.16,0,0,1,14.3,56c.06-.14,0-.33,0-.5a21,21,0,0,1,.17-2.64c.13-.69,0-1.39.14-2.06a11.92,11.92,0,0,1,.27-2.22.74.74,0,0,0,0-.21c0-1.27.09-2.54.15-3.81,0-.37.1-.74.14-1.11s-.07-.7.14-1c.07-.12,0-.33,0-.5a28.61,28.61,0,0,1,.18-3.08A16.74,16.74,0,0,1,15.64,37c.24-.86-.05-1.75.27-2.59,0,0,0,0,0-.07l.15-2.86c0-.31,0-.62,0-.93s0-.57,0-.85c0-.46.09-.93.14-1.4A5.49,5.49,0,0,1,16.33,27a4.2,4.2,0,0,0,0-1.23,26.84,26.84,0,0,1,.29-3.9.65.65,0,0,0,0-.14c.05-2.1.09-4.2.16-6.29A14.36,14.36,0,0,1,17,13.86a.66.66,0,0,0,0-.27,8.15,8.15,0,0,1,0-1.71c0-.58,0-1.16,0-1.75V6.55s0,0,0-.07A1.3,1.3,0,0,0,17,6.31c-.05.05-.12.09-.15.15a8.24,8.24,0,0,0-.35.81,5.84,5.84,0,0,1-1.16,1.85c-.44.56-1,1.07-1.43,1.6-.22.25-.39.53-.63.76a15.4,15.4,0,0,1-1.8,1.63A10.18,10.18,0,0,0,9.78,15c-.15.17-.23.56-.58.32s-.09-.53,0-.73c.35-.57.8-1.08,1.13-1.66a11.69,11.69,0,0,0,1-3.07A7.24,7.24,0,0,1,12,8.07c.27-.54.36-1.17.63-1.71a7.68,7.68,0,0,1,1.74-2.49c.06-.06.06-.2.09-.3a1,1,0,0,0-.28.11A20.84,20.84,0,0,0,11,6,12.18,12.18,0,0,1,9.69,7c-.43.33-.87.64-1.26,1a9.87,9.87,0,0,1-2.3,1.52,16.09,16.09,0,0,1-2.57.84,8.22,8.22,0,0,1-1.19.28,4.54,4.54,0,0,1-1.93-.28.57.57,0,0,1-.22-.15A2.56,2.56,0,0,1,0,9.89c.14-.08.27-.21.41-.22A6.14,6.14,0,0,0,4.09,8c.76-.66,1.5-1.35,2.21-2.06C7.18,5,8.07,4.13,8.87,3.17a13.31,13.31,0,0,1,2.23-2A4.3,4.3,0,0,1,13.52.32c.51,0,1,0,1.53,0a9.93,9.93,0,0,1,2.53.6c.25.07.41.4.63.59a.42.42,0,0,0,.35,0c.24-.11.47-.27.71-.4A8,8,0,0,1,24.21.05c.69.08,1.38,0,2.05.14a8.75,8.75,0,0,1,2.43.65,20.59,20.59,0,0,0,2.83,1.28,4.45,4.45,0,0,0,1.07.23A4.26,4.26,0,0,0,35,2s.07-.09.11-.1a.37.37,0,0,1,.48.2.49.49,0,0,1-.11.43,6.37,6.37,0,0,1-3,1.64,5.12,5.12,0,0,1-3.65-.43,30.81,30.81,0,0,0-2.9-1.1c-.31-.15-.68,0-1-.13a14.49,14.49,0,0,0-2.19-.18.48.48,0,0,0-.18.08c.05.05.09.13.16.15a3.12,3.12,0,0,1,.53.11,6.62,6.62,0,0,1,2.41,1.77c.8,1,1.27,2.17,2,3.21a5.81,5.81,0,0,0,1.82,2.08c.37.2.79.31,1.18.49.15.07.34.19.38.32s-.13.35-.36.42a9.72,9.72,0,0,1-1.6.54,6,6,0,0,0-1.56.46,2,2,0,0,1-2.09-.46,4.14,4.14,0,0,1-1-1.32,29,29,0,0,1-1.69-3.82,6.62,6.62,0,0,0-1.32-2.08s-.14,0-.19-.06a4.87,4.87,0,0,0-2.17-.57c-.32,0-.81.44-1,.7A2.54,2.54,0,0,0,17.67,6q0,2.7,0,5.4a28.16,28.16,0,0,1-.28,3.78c-.09.69,0,1.41,0,2.11,0,1.61,0,3.23-.17,4.83-.13,1.4-.15,2.8-.3,4.18-.2,1.84-.19,3.67-.29,5.51,0,.8,0,1.62-.13,2.42-.13,1.24-.2,2.49-.3,3.74s-.18,2.5-.29,3.75-.17,2.6-.31,3.89a7.87,7.87,0,0,1-.25,2.37.94.94,0,0,0,0,.29c-.05,1.1-.08,2.2-.15,3.3S15,53.83,14.88,55s-.16,2.07-.3,3.09A19.42,19.42,0,0,1,14,61.92a6.34,6.34,0,0,0-.16,1.46c-.06.83-.06,1.67-.16,2.5s-.29,1.53-.42,2.3c-.08.46-.1.93-.15,1.4-.1,1-.16,2-.3,2.94s-.4,2.08-.57,3.12c-.06.41,0,.83-.13,1.25-.21,1.15-.28,2.32-.47,3.47a37.63,37.63,0,0,1-1,4.55c-.38,1.31-.55,2.69-.93,4-.26.9-.32,1.83-.66,2.72a7.16,7.16,0,0,0-.3,1.61c-.13.92-.42,1.79-.62,2.68S7.75,98,7.43,99A36.87,36.87,0,0,1,6,103.77a7.46,7.46,0,0,1-.63,2.73c-.34,1-.66,2-1,3s-.7,1.86-1,2.79-.65,1.92-1,2.88c-.17.48-.38,1-.55,1.44a.94.94,0,0,0,0,.44c0,.14-.13.36.19.36s.49,0,.52-.25c.12-.85.86-1.38,1-2.2a24,24,0,0,1,.74-2.32c.65-1.92,1.33-3.83,2-5.76.45-1.4.82-2.83,1.24-4.23.57-1.94,1.15-3.87,1.61-5.83.23-1,.57-2,.82-2.95.19-.77.32-1.57.49-2.35.23-1.07.47-2.14.7-3.21s.4-1.93.61-2.89c.28-1.24.6-2.48.87-3.73.14-.68.16-1.38.31-2.06s.2-1.45.41-2.16a16.48,16.48,0,0,0,.31-2c.19-1.17.4-2.32.58-3.49.12-.8.14-1.63.31-2.43.2-1,.19-2,.4-3,.12-.52.05-1.07.15-1.62.21-1.17.32-2.35.45-3.54.07-.65.12-1.32.15-2a6.8,6.8,0,0,1,.29-1.85,1.45,1.45,0,0,0,0-.36,17.6,17.6,0,0,1,.28-2.81,17.35,17.35,0,0,0,.16-2c.06-1,0-2,.18-2.93.08-.52.08-1,.12-1.55.09-1.1.12-2.22.31-3.3.1-.53,0-1.06.14-1.55.27-.92-.06-1.89.27-2.8a.81.81,0,0,0,0-.22c.05-1.34,0-2.7.18-4s0-2.41.14-3.59c.09-.79,0-1.59.15-2.35A17.12,17.12,0,0,0,18,27.51c.07-1.61,0-3.23.19-4.83a17.21,17.21,0,0,0,.07-3.51,16.6,16.6,0,0,1-.07-3.3c.19-1.74,0-3.47.1-5.2a5.87,5.87,0,0,0-.09-1.45c-.06-.25.09-.39.09-.57,0-1.07,0-2.13,0-3.2a4.64,4.64,0,0,1,.06-.91c0-.07.26-.11.4-.12s.14.15.14.22c0,.25-.12.5-.12.75,0,2.87,0,5.75,0,8.62a13,13,0,0,1-.11,2.64,1.45,1.45,0,0,0,.11,1.26.36.36,0,0,1,0,.21c-.13.71.07,1.43,0,2.14a12.16,12.16,0,0,0-.13,1.47c0,.41,0,.81,0,1.22-.08,1.34-.11,2.69-.15,4-.06,1.56,0,3.13-.17,4.68s-.19,3.39-.31,5.09A32.53,32.53,0,0,1,17.78,40a8.16,8.16,0,0,1-.25,2.15.7.7,0,0,0,0,.29,20.45,20.45,0,0,1-.28,3.31,18.07,18.07,0,0,0-.15,2.2,21.74,21.74,0,0,1-.29,3,2.81,2.81,0,0,0,0,.58A10.51,10.51,0,0,1,16.5,54a.81.81,0,0,0,0,.22c-.05.8-.07,1.61-.16,2.42-.11,1-.28,2-.43,3a.65.65,0,0,1,0,.14,23.24,23.24,0,0,1-.16,2.64,27,27,0,0,1-.41,2.82,4.64,4.64,0,0,0-.15,1.17c0,1-.21,1.93-.26,2.88s-.35,1.69-.36,2.58a11.08,11.08,0,0,1-.38,1.94c-.08.46-.13.93-.17,1.39a25,25,0,0,1-.43,2.59c-.14.73-.19,1.48-.31,2.22s-.21,1.17-.33,1.76-.27,1.15-.39,1.73c-.2,1-.38,1.93-.59,2.9-.18.8-.39,1.59-.58,2.38-.34,1.44-.77,2.87-1,4.33s-.62,2.72-.91,4.08c-.19.89-.47,1.75-.72,2.62l-1,3.59c-.29,1-.57,2-.88,3q-.78,2.42-1.61,4.81c-.39,1.15-.83,2.28-1.23,3.43-.32.94-.62,1.88-.93,2.83-.06.21.31.47-.07.65-.14.06-.31.19-.43.16a14.65,14.65,0,0,1-1.43-.43.36.36,0,0,1-.24-.55l1-2.73c.6-1.67,1.23-3.34,1.8-5,.46-1.35.85-2.72,1.26-4.08s.77-2.7,1.18-4S7,98.65,7.3,97.23c.21-.88.47-1.75.69-2.63s.32-1.52.48-2.28c0-.23.1-.46.14-.75M14.31,3a4.05,4.05,0,0,0,.35-.21,5.51,5.51,0,0,1,2.7-.88c.09,0,.19.06.28.09a1.39,1.39,0,0,0-.16-.35,1.21,1.21,0,0,0-.29-.19,6.44,6.44,0,0,0-2-.58,9,9,0,0,0-1.56,0,3,3,0,0,0-1.7.47A10.31,10.31,0,0,0,9.83,3C8.75,4.08,7.76,5.26,6.71,6.37A15.21,15.21,0,0,1,4,8.67a5.68,5.68,0,0,1-1.77,1,2.45,2.45,0,0,0-.63.35,3.84,3.84,0,0,0,.83,0c.71-.15,1.42-.32,2.11-.53a9.21,9.21,0,0,0,1.7-.66A13.14,13.14,0,0,0,7.89,7.68c.32-.24.61-.52.92-.77.9-.71,1.79-1.43,2.7-2.11A16.94,16.94,0,0,1,14.31,3M24.6,9.37a16.56,16.56,0,0,0,.89,1.45,1.49,1.49,0,0,0,1.13.59,2.58,2.58,0,0,0,1.15-.21,10.88,10.88,0,0,1,1.82-.38.29.29,0,0,0,.19-.14s-.05-.13-.1-.17a.9.9,0,0,0-.24-.12,3,3,0,0,1-1.66-1.23C27,8.07,26.39,6.92,25.7,5.79A4.76,4.76,0,0,0,25,4.65a5.64,5.64,0,0,0-2.25-1.42,10.14,10.14,0,0,1-1.42-.44,1.34,1.34,0,0,0-.86-.07c-.57.09-1.15.46-1.72,0-.22-.17-.15,0-.17.12s.07.22.25.24a7.12,7.12,0,0,1,1.54.15,3.42,3.42,0,0,1,1.86,1.11,7.29,7.29,0,0,1,1,2c.37,1,.86,2,1.37,3m-10.73.51c.36-.41.73-.81,1.08-1.23a6.34,6.34,0,0,0,.71-1c.4-.74.75-1.49,1.13-2.23a2,2,0,0,0,.29-1.19.61.61,0,0,1,.29-.61.29.29,0,0,0,0-.42.14.14,0,0,1,0-.13c.05-.33-.23-.33-.36-.25a9.74,9.74,0,0,0-2.38,1.47A11.24,11.24,0,0,0,12.7,7.63c-.65,1.54-.79,3.25-1.6,4.73a.22.22,0,0,0,.05.19.21.21,0,0,0,.19,0c.26-.25.52-.5.77-.76.56-.61,1.12-1.23,1.76-1.91m10.07-8A11.94,11.94,0,0,1,26,2.09c1,.29,1.94.72,2.9,1.09a4.5,4.5,0,0,0,1.26.47,6.74,6.74,0,0,0,3.38-.42A1.73,1.73,0,0,0,33.85,3,.62.62,0,0,0,33.56,3a7.26,7.26,0,0,1-4.09-1c-.44-.23-.93-.35-1.36-.6A8.13,8.13,0,0,0,25.36.77,9,9,0,0,0,24,.75a7.65,7.65,0,0,0-1.27,0c-.58.07-1.13.21-1.7.33a7.54,7.54,0,0,0-2.19,1c-.07,0-.09.14-.13.21s.17.08.25.07.15-.09.24-.11a9.73,9.73,0,0,1,1.4-.31C21.67,1.85,22.77,1.82,23.94,1.85Z"/></g></g></svg>