<svg xmlns="http://www.w3.org/2000/svg" viewBox="0 0 16.61 120.82"><defs><style>.cls-1{fill:#6f8d4f;}</style></defs><title>stem-4</title><g id="Layer_2" data-name="Layer 2"><g id="stem-4"><path id="void" class="cls-1" d="M16.58,9.46c0,.86-.06,1.72,0,2.59a3.64,3.64,0,0,1,0,.73,4.73,4.73,0,0,0,0,.92,12.62,12.62,0,0,1-.09,1.38,10.46,10.46,0,0,0-.06,1.25,5.93,5.93,0,0,0-.07.59c0,.11,0,.22,0,.34a10.57,10.57,0,0,1-.12,1.25s0,0,0,.07c0,.33-.06.66-.07,1a4.1,4.1,0,0,1-.14.92c0,.18,0,.36-.07.56a6.75,6.75,0,0,0-.09.8c0,.31-.09.61-.14.92v.15a5.2,5.2,0,0,1-.14,1.17,6.7,6.7,0,0,0-.08.77,13.55,13.55,0,0,1-.08,1.43,7.75,7.75,0,0,1-.24,1.24,6.29,6.29,0,0,0-.19,1,4.57,4.57,0,0,1-.31,1.4.59.59,0,0,0,0,.19,9.28,9.28,0,0,1-.28,1.74,7.69,7.69,0,0,0-.16,1c0,.42-.08.86-.15,1.28,0,.26-.11.51-.16.77s0,.23-.05.34A13.15,13.15,0,0,1,13.55,37a4.41,4.41,0,0,0-.08.73c-.05.37-.11.73-.18,1.09s-.13.58-.18.87a13.72,13.72,0,0,1-.43,1.79,3.21,3.21,0,0,0-.15.81c0,.38-.18.74-.21,1.11a11.19,11.19,0,0,1-.23,1.18c-.1.53-.19,1.06-.3,1.59-.07.35-.19.69-.28,1s-.2.8-.3,1.19a12,12,0,0,1-.37,1.34c-.33.94-.45,1.94-.78,2.88a9.58,9.58,0,0,0-.23,1.21l-.24,1.14c-.09.45-.17.9-.27,1.34s-.22.91-.32,1.36-.17.8-.26,1.2a20.07,20.07,0,0,1-.55,2.32,10.73,10.73,0,0,0-.32,1.36c-.1.43-.21.87-.29,1.3,0,.23,0,.47-.08.7s-.13.72-.2,1.08l-.09.51c-.1.51-.18,1-.29,1.55-.08.36-.2.72-.29,1.08s-.15.71-.22,1.07-.15.77-.21,1.15,0,.51-.08.77-.09.66-.15,1-.1.42-.14.64c-.08.4-.15.81-.23,1.21s-.19.82-.28,1.23-.21.94-.29,1.41-.09.74-.15,1.1-.17.78-.25,1.17-.12.65-.18,1L4.21,81.7a5.24,5.24,0,0,0-.12.67,11.37,11.37,0,0,1-.37,2.25c-.07.32-.09.64-.15,1s-.14.65-.2,1-.11.61-.16.92c-.08.49-.16,1-.22,1.47,0,.33-.05.66-.07,1,0,.56,0,1.12-.08,1.68s-.13,1.12-.15,1.69a13.09,13.09,0,0,1-.14,1.39c-.06.43-.15.86-.21,1.29,0,.26,0,.52-.08.77a5.62,5.62,0,0,1-.08.92c-.1.4,0,.81-.07,1.2s0,.84-.08,1.25,0,.81-.07,1.2c-.15.83-.07,1.67-.15,2.49s0,1.9-.05,2.85a6.45,6.45,0,0,1-.14,1.17,1.43,1.43,0,0,0,0,.46c0,.21,0,.42,0,.63a2.56,2.56,0,0,0,0,.27c0,.8-.05,1.61,0,2.4.11,1.68,0,3.36.06,5a2.61,2.61,0,0,0,.06.27,5.4,5.4,0,0,1,.08.69c0,.61,0,1.23.09,1.84a7.18,7.18,0,0,1,.06.81c0,.52-.13.63-.63.56a3.2,3.2,0,0,0-.41-.07c-.16,0-.2-.1-.2-.24v0c0,.09.08.15.12.15s.29-.12.25-.19a.83.83,0,0,1,0-.12H.92a.17.17,0,0,0-.19.16,3.16,3.16,0,0,1-.21-.69c-.05-.25-.11-.49-.15-.74s-.06-.58-.07-.88a7.63,7.63,0,0,0-.15-1.43v-.07c0-.71,0-1.41-.07-2.12s0-1.28,0-1.93a2.53,2.53,0,0,0-.06-.77,1,1,0,0,1,0-.44,3.62,3.62,0,0,0,0-1.09,2.7,2.7,0,0,1,0-.41q0-.94,0-1.89c0-.89,0-1.78.08-2.66a8.35,8.35,0,0,1,.08-1.13,9.28,9.28,0,0,0,0-1.29,11.75,11.75,0,0,1,.09-1.34,8.35,8.35,0,0,0,.06-1.11,11.53,11.53,0,0,1,.09-1.31c0-.3,0-.59.06-.88s.1-.81.14-1.21,0-.64.08-1a3.31,3.31,0,0,1,.14-.89s0-.1,0-.15c.05-.38.1-.76.14-1.14s0-.56.08-.84c.08-.54.08-1.09.21-1.62.09-.37.08-.76.16-1.14s.08-1,.2-1.55a7.25,7.25,0,0,0,.09-.8c0-.26.1-.52.14-.78s.05-.51.07-.77C2,86,2.05,85.5,2.12,85s.18-1,.22-1.55a10,10,0,0,1,.22-1.44c.16-.73.22-1.48.36-2.21.07-.33.09-.67.14-1,.1-.54.21-1.08.32-1.61.06-.31.12-.61.19-.91.11-.46.16-.94.29-1.41.08-.3.09-.63.15-1s.16-.78.24-1.17.13-.58.2-.87c.1-.49.21-1,.32-1.47s.17-.8.26-1.2.19-.87.27-1.3.16-.81.24-1.22.15-.76.23-1.14.15-.57.2-.86c.13-.71.28-1.41.42-2.11.18-.86.43-1.7.61-2.56.11-.56.3-1.11.42-1.68s.22-1.31.38-2c.19-.8.29-1.62.48-2.42.14-.61.34-1.2.45-1.81s.36-1.39.49-2.09c.1-.51.26-1,.32-1.51,0-.27.16-.53.18-.8a14.71,14.71,0,0,1,.34-1.46c.11-.64.31-1.26.4-1.9.06-.41.18-.81.25-1.21s.22-.93.33-1.39.17-.74.24-1.1a8.79,8.79,0,0,0,.28-1.41A7,7,0,0,1,11.82,38a16.13,16.13,0,0,1,.4-2,3.56,3.56,0,0,0,.09-.73c0-.1,0-.2.07-.3.07-.47.13-.93.22-1.4s.2-.89.28-1.34.08-.69.16-1a11,11,0,0,1,.28-1.52,3.47,3.47,0,0,0,.08-.55c0-.29.06-.57.1-.85s.07-.5.11-.75c.08-.45.16-.91.22-1.37,0-.27,0-.56.08-.84s.14-.81.2-1.22a10.24,10.24,0,0,1,.17-1.13c.11-.4,0-.8.13-1.19,0-.1,0-.24,0-.36s.08-.54.13-.82a.61.61,0,0,0,0-.14c0-.58.07-1.17.16-1.75,0-.28,0-.55.07-.81s0-.78.07-1.17c.11-.91.1-1.83.16-2.74,0-.59,0-1.18.06-1.75s0-1,.07-1.54c.14-1.26,0-2.53.06-3.79s0-2.55,0-3.82a2.65,2.65,0,0,0-.07-.48,12.77,12.77,0,0,1-.22-1.51A5.32,5.32,0,0,0,14.78.4C14.72.17,14.8,0,15,0a.37.37,0,0,1,.18,0c.08,0,.2.06.06.19s-.1.18.08.17a.56.56,0,0,1,.54.35,2.53,2.53,0,0,1,.25.88,17.93,17.93,0,0,1,.18,1.94c0,.57,0,1.15.06,1.71.05.38,0,.77.07,1.14s0,.74.07,1.1A8.11,8.11,0,0,1,16.58,9.46Z"/><path id="fill2" class="cls-1" d="M16.58,9.46c0,.86-.06,1.72,0,2.59a3.64,3.64,0,0,1,0,.73,4.73,4.73,0,0,0,0,.92,12.62,12.62,0,0,1-.09,1.38,10.46,10.46,0,0,0-.06,1.25,5.93,5.93,0,0,0-.07.59c0,.11,0,.22,0,.34a10.57,10.57,0,0,1-.12,1.25s0,0,0,.07c0,.33-.06.66-.07,1a4.1,4.1,0,0,1-.14.92c0,.18,0,.36-.07.56a6.75,6.75,0,0,0-.09.8c0,.31-.09.61-.14.92v.15a5.2,5.2,0,0,1-.14,1.17,6.7,6.7,0,0,0-.08.77,13.55,13.55,0,0,1-.08,1.43,7.75,7.75,0,0,1-.24,1.24,6.29,6.29,0,0,0-.19,1,4.57,4.57,0,0,1-.31,1.4.59.59,0,0,0,0,.19,9.28,9.28,0,0,1-.28,1.74,7.69,7.69,0,0,0-.16,1c0,.42-.08.86-.15,1.28,0,.26-.11.51-.16.77s0,.23-.05.34A13.15,13.15,0,0,1,13.55,37a4.41,4.41,0,0,0-.08.73c-.05.37-.11.73-.18,1.09s-.13.58-.18.87a13.72,13.72,0,0,1-.43,1.79,3.21,3.21,0,0,0-.15.81c0,.38-.18.74-.21,1.11a11.19,11.19,0,0,1-.23,1.18c-.1.53-.19,1.06-.3,1.59-.07.35-.19.69-.28,1s-.2.8-.3,1.19a12,12,0,0,1-.37,1.34c-.33.94-.45,1.94-.78,2.88a9.58,9.58,0,0,0-.23,1.21l-.24,1.14c-.09.45-.17.9-.27,1.34s-.22.91-.32,1.36-.17.8-.26,1.2a20.07,20.07,0,0,1-.55,2.32,10.73,10.73,0,0,0-.32,1.36c-.1.43-.21.87-.29,1.3,0,.23,0,.47-.08.7s-.13.72-.2,1.08l-.09.51c-.1.51-.18,1-.29,1.55-.08.36-.2.72-.29,1.08s-.15.71-.22,1.07-.15.77-.21,1.15,0,.51-.08.77-.09.66-.15,1-.1.42-.14.64c-.08.4-.15.81-.23,1.21s-.19.82-.28,1.23-.21.94-.29,1.41-.09.74-.15,1.1-.17.78-.25,1.17-.12.65-.18,1L4.21,81.7a5.24,5.24,0,0,0-.12.67,11.37,11.37,0,0,1-.37,2.25c-.07.32-.09.64-.15,1s-.14.65-.2,1-.11.61-.16.92c-.08.49-.16,1-.22,1.47,0,.33-.05.66-.07,1,0,.56,0,1.12-.08,1.68s-.13,1.12-.15,1.69a13.09,13.09,0,0,1-.14,1.39c-.06.43-.15.86-.21,1.29,0,.26,0,.52-.08.77a5.62,5.62,0,0,1-.08.92c-.1.4,0,.81-.07,1.2s0,.84-.08,1.25,0,.81-.07,1.2c-.15.83-.07,1.67-.15,2.49s0,1.9-.05,2.85a6.45,6.45,0,0,1-.14,1.17,1.43,1.43,0,0,0,0,.46c0,.21,0,.42,0,.63a2.56,2.56,0,0,0,0,.27c0,.8-.05,1.61,0,2.4.11,1.68,0,3.36.06,5a2.61,2.61,0,0,0,.06.27,5.4,5.4,0,0,1,.08.69c0,.61,0,1.23.09,1.84a7.18,7.18,0,0,1,.06.81c0,.52-.13.63-.63.56a3.2,3.2,0,0,0-.41-.07c-.16,0-.2-.1-.2-.24v0c0,.09.08.15.12.15s.29-.12.25-.19a.83.83,0,0,1,0-.12H.92a.17.17,0,0,0-.19.16,3.16,3.16,0,0,1-.21-.69c-.05-.25-.11-.49-.15-.74s-.06-.58-.07-.88a7.63,7.63,0,0,0-.15-1.43v-.07c0-.71,0-1.41-.07-2.12s0-1.28,0-1.93a2.53,2.53,0,0,0-.06-.77,1,1,0,0,1,0-.44,3.62,3.62,0,0,0,0-1.09,2.7,2.7,0,0,1,0-.41q0-.94,0-1.89c0-.89,0-1.78.08-2.66a8.35,8.35,0,0,1,.08-1.13,9.28,9.28,0,0,0,0-1.29,11.75,11.75,0,0,1,.09-1.34,8.35,8.35,0,0,0,.06-1.11,11.53,11.53,0,0,1,.09-1.31c0-.3,0-.59.06-.88s.1-.81.14-1.21,0-.64.08-1a3.31,3.31,0,0,1,.14-.89s0-.1,0-.15c.05-.38.1-.76.14-1.14s0-.56.08-.84c.08-.54.08-1.09.21-1.62.09-.37.08-.76.16-1.14s.08-1,.2-1.55a7.25,7.25,0,0,0,.09-.8c0-.26.1-.52.14-.78s.05-.51.07-.77C2,86,2.05,85.5,2.12,85s.18-1,.22-1.55a10,10,0,0,1,.22-1.44c.16-.73.22-1.48.36-2.21.07-.33.09-.67.14-1,.1-.54.21-1.08.32-1.61.06-.31.12-.61.19-.91.11-.46.16-.94.29-1.41.08-.3.09-.63.15-1s.16-.78.24-1.17.13-.58.2-.87c.1-.49.21-1,.32-1.47s.17-.8.26-1.2.19-.87.27-1.3.16-.81.24-1.22.15-.76.23-1.14.15-.57.2-.86c.13-.71.28-1.41.42-2.11.18-.86.43-1.7.61-2.56.11-.56.3-1.11.42-1.68s.22-1.31.38-2c.19-.8.29-1.62.48-2.42.14-.61.34-1.2.45-1.81s.36-1.39.49-2.09c.1-.51.26-1,.32-1.51,0-.27.16-.53.18-.8a14.71,14.71,0,0,1,.34-1.46c.11-.64.31-1.26.4-1.9.06-.41.18-.81.25-1.21s.22-.93.33-1.39.17-.74.24-1.1a8.79,8.79,0,0,0,.28-1.41A7,7,0,0,1,11.82,38a16.13,16.13,0,0,1,.4-2,3.56,3.56,0,0,0,.09-.73c0-.1,0-.2.07-.3.07-.47.13-.93.22-1.4s.2-.89.28-1.34.08-.69.16-1a11,11,0,0,1,.28-1.52,3.47,3.47,0,0,0,.08-.55c0-.29.06-.57.1-.85s.07-.5.11-.75c.08-.45.16-.91.22-1.37,0-.27,0-.56.08-.84s.14-.81.2-1.22a10.24,10.24,0,0,1,.17-1.13c.11-.4,0-.8.13-1.19,0-.1,0-.24,0-.36s.08-.54.13-.82a.61.61,0,0,0,0-.14c0-.58.07-1.17.16-1.75,0-.28,0-.55.07-.81s0-.78.07-1.17c.11-.91.1-1.83.16-2.74,0-.59,0-1.18.06-1.75s0-1,.07-1.54c.14-1.26,0-2.53.06-3.79s0-2.55,0-3.82a2.65,2.65,0,0,0-.07-.48,12.77,12.77,0,0,1-.22-1.51A5.32,5.32,0,0,0,14.78.4C14.72.17,14.8,0,15,0a.37.37,0,0,1,.18,0c.08,0,.2.06.06.19s-.1.18.08.17a.56.56,0,0,1,.54.35,2.53,2.53,0,0,1,.25.88,17.93,17.93,0,0,1,.18,1.94c0,.57,0,1.15.06,1.71.05.38,0,.77.07,1.14s0,.74.07,1.1A8.11,8.11,0,0,1,16.58,9.46Z"/><path id="fill1" d="M2.53,84.87c0,.5-.12,1-.2,1.46s-.2,1.15-.28,1.73c0,.3,0,.62-.09.92a9.35,9.35,0,0,1-.2,1.58,3.29,3.29,0,0,0-.08.62c-.1.51-.12,1-.22,1.52a2.7,2.7,0,0,0-.06.8c0,.19-.1.36,0,.57s-.11.37-.1.55a2,2,0,0,1,0,.49c-.11.64-.13,1.31-.29,2,0,.13,0,.29,0,.45a11.89,11.89,0,0,1-.1,1.2c-.09.4.12.82-.13,1.19.11.2,0,.4,0,.6s0,.3,0,.45,0,.29,0,.43a9,9,0,0,1-.13,1.55c.14.17-.07.33,0,.52a2.43,2.43,0,0,1,0,.54c0,.77,0,1.54-.08,2.3-.14,1.38,0,2.77-.07,4.15,0,.25,0,.49,0,.74s0,.52,0,.78c0,.74,0,1.49.08,2.24,0,.22,0,.44,0,.66a5.45,5.45,0,0,1,0,.7A10.73,10.73,0,0,0,.65,117a11.69,11.69,0,0,1,.08,1.32,3.06,3.06,0,0,0,.14.89,11.83,11.83,0,0,0,.23,1.25c0,.07-.14.19-.25.19s-.31-.7-.34-.84S.4,119.27.37,119a6.4,6.4,0,0,1-.07-.88,7.63,7.63,0,0,0-.15-1.43v-.07c0-.71-.06-1.41-.07-2.12s0-1.28,0-1.93a2.24,2.24,0,0,0,0-.77,1,1,0,0,1,0-.44,3.62,3.62,0,0,0,0-1.09,2.7,2.7,0,0,1,0-.41q0-.94,0-1.89c0-.89,0-1.77.08-2.66a10.39,10.39,0,0,1,.07-1.13,7.89,7.89,0,0,0,.06-1.28,12.08,12.08,0,0,1,.09-1.35,10.28,10.28,0,0,0,.06-1.1,11.55,11.55,0,0,1,.09-1.32c0-.3,0-.59.06-.88s.1-.81.14-1.21,0-.64.08-1a3.31,3.31,0,0,1,.14-.89s0-.1,0-.15c.05-.38.1-.75.14-1.14s0-.56.08-.84a15,15,0,0,1,.21-1.62c.09-.37.08-.76.16-1.14s.07-1,.2-1.55a5.29,5.29,0,0,0,.08-.8c0-.26.11-.52.14-.78s.05-.51.08-.77C2,86,2,85.5,2.12,85s.18-1,.22-1.55a10.23,10.23,0,0,1,.22-1.44c.16-.73.21-1.48.36-2.21.07-.33.08-.67.14-1,.1-.54.21-1.07.31-1.61.06-.3.13-.6.2-.9.11-.47.15-1,.28-1.41s.1-.64.16-1,.16-.78.24-1.17.13-.58.19-.87c.11-.49.22-1,.32-1.47L5,69.25,5.3,68l.24-1.22c.07-.38.15-.76.23-1.14s.15-.57.2-.86c.13-.71.27-1.41.42-2.11.18-.86.43-1.7.61-2.56.11-.56.3-1.11.42-1.67s.22-1.32.38-2c.19-.8.29-1.62.48-2.42.14-.6.34-1.2.45-1.81s.36-1.39.49-2.09c.1-.5.26-1,.32-1.51,0-.27.16-.53.18-.79,0-.51.25-1,.33-1.47s.32-1.26.41-1.9c.06-.41.18-.81.25-1.21s.22-.93.33-1.39l.24-1.1a8.79,8.79,0,0,0,.28-1.41A7.17,7.17,0,0,1,11.82,38a16.13,16.13,0,0,1,.4-2,3.55,3.55,0,0,0,.08-.73c0-.1.06-.2.07-.3.08-.46.14-.93.23-1.4s.2-.89.28-1.33.08-.7.15-1a15.09,15.09,0,0,1,.28-1.52,2.52,2.52,0,0,0,.08-.55c0-.28.06-.57.1-.85l.12-.75c.07-.45.15-.91.22-1.36,0-.28,0-.57.08-.85s.13-.81.2-1.22a8.31,8.31,0,0,1,.17-1.13c.11-.39,0-.8.13-1.18,0-.11,0-.25,0-.37s.09-.54.14-.81a.61.61,0,0,1,0-.14c0-.59.06-1.18.16-1.76,0-.27,0-.55.06-.81a9.18,9.18,0,0,0,.07-1.17C15,15.79,15,14.87,15,14c0-.59,0-1.18.07-1.75s0-1,.07-1.54c.14-1.26,0-2.52.06-3.79s0-2.54,0-3.82a2.65,2.65,0,0,0-.07-.48,11,11,0,0,1-.22-1.51,3.92,3.92,0,0,0-.15-.66c0-.24,0-.38.27-.4a.37.37,0,0,1,.18,0c.08,0,.2.07.06.19s-.1.18.08.17a.59.59,0,0,1,.54.35,2.76,2.76,0,0,1,.25.88,15.71,15.71,0,0,1,.17,1.94c.05.57,0,1.15.07,1.72,0,.38,0,.76.07,1.13s0,.74.07,1.1a8.66,8.66,0,0,1,0,2c0,.86-.06,1.72,0,2.59a3.64,3.64,0,0,1,0,.73,5.69,5.69,0,0,0-.06.92,10.54,10.54,0,0,1-.08,1.38,10.56,10.56,0,0,0-.06,1.25,5.93,5.93,0,0,0-.07.59c0,.11,0,.23,0,.34,0,.42-.07.84-.12,1.25,0,0,0,0,0,.07,0,.33-.06.66-.07,1a4.76,4.76,0,0,1-.14.92c0,.18,0,.37-.07.56a5.15,5.15,0,0,0-.09.8c0,.31-.09.61-.14.92a.75.75,0,0,0,0,.15,5.76,5.76,0,0,1-.14,1.17,6.94,6.94,0,0,0-.08.77c0,.48,0,1-.08,1.43a7.79,7.79,0,0,1-.25,1.24,6.28,6.28,0,0,0-.18,1,5.16,5.16,0,0,1-.31,1.4.46.46,0,0,0,0,.2,10.22,10.22,0,0,1-.28,1.73,6.2,6.2,0,0,0-.16,1c0,.43-.09.86-.15,1.28,0,.26-.11.51-.16.77a2,2,0,0,0-.05.34A13.15,13.15,0,0,1,13.55,37a5.82,5.82,0,0,0-.09.73c-.05.37-.1.73-.17,1.09s-.13.58-.19.87a12.24,12.24,0,0,1-.42,1.79,3.21,3.21,0,0,0-.15.81c0,.38-.18.74-.21,1.11a11.2,11.2,0,0,1-.24,1.18c-.1.53-.18,1.06-.29,1.59-.08.35-.2.7-.29,1s-.19.79-.29,1.18-.22.91-.37,1.34c-.33.94-.45,1.94-.78,2.88a9.93,9.93,0,0,0-.23,1.21l-.24,1.14-.27,1.35c-.1.45-.22.9-.32,1.35s-.17.81-.26,1.21a18.5,18.5,0,0,1-.56,2.31,12.78,12.78,0,0,0-.32,1.36c-.09.44-.2.87-.28,1.3,0,.23,0,.47-.08.7s-.14.72-.2,1.08l-.09.51c-.1.52-.19,1-.3,1.55-.07.36-.2.72-.28,1.08s-.15.72-.22,1.07-.16.77-.22,1.15,0,.52-.07.77-.09.67-.15,1-.1.42-.14.63c-.08.4-.15.81-.23,1.21s-.19.82-.28,1.23-.21.94-.29,1.41-.09.74-.15,1.1-.18.78-.26,1.17l-.18,1c-.07.42-.15.83-.23,1.25,0,.23-.11.45-.13.67a11.57,11.57,0,0,1-.36,2.26c-.08.31-.09.63-.15,1s-.14.65-.21,1-.11.61-.15.92c-.08.49-.16,1-.22,1.47,0,.33-.06.66-.07,1,0,.56,0,1.12-.08,1.68s-.13,1.12-.15,1.69-.08.93-.14,1.39-.15.86-.21,1.3c0,.25-.06.51-.08.77a6.84,6.84,0,0,1-.08.91c-.1.4,0,.81-.07,1.21s0,.83-.08,1.24,0,.81-.07,1.21c-.15.82-.07,1.66-.15,2.48s0,1.9-.06,2.85a5.21,5.21,0,0,1-.14,1.18,1.75,1.75,0,0,0,0,.45q0,.31,0,.63c0,.09,0,.18,0,.27,0,.8-.05,1.61,0,2.4.12,1.68,0,3.36.07,5a2.61,2.61,0,0,0,.06.27c0,.23.07.46.08.69,0,.61,0,1.23.09,1.84a7.36,7.36,0,0,1,.06.81c0,.52-.13.64-.64.56-.13,0-.27-.06-.4-.07s-.2-.1-.2-.24.06-.2.19-.2h.26c.11,0,.31,0,.33,0a.56.56,0,0,0,0-.42.84.84,0,0,1-.06-.38c0-.62-.12-1.25-.12-1.87a4.59,4.59,0,0,0-.17-1.11s0-.07,0-.1v-.68a3.69,3.69,0,0,1,0-.47c0-.1.06-.2.06-.3,0-.81,0-1.62,0-2.43,0-.47-.07-.93-.06-1.39s0-.72,0-1.07c0-.91,0-1.83.09-2.73s0-1.9.05-2.85c0-.75,0-1.51.09-2.26,0-.58.1-1.15.15-1.72,0-.35,0-.69.05-1,0-.55,0-1.1.09-1.64l.15-1.32c0-.42.09-.84.14-1.25.08-.6.17-1.2.22-1.8,0-.3,0-.59.07-.88.09-.59.11-1.18.16-1.76,0-.37,0-.74.06-1.1a7.25,7.25,0,0,1,.13-1A4.34,4.34,0,0,0,2.68,88c.07-.58.2-1.16.3-1.73s.19-1.21.3-1.81c.08-.39.2-.77.29-1.15,0-.22.05-.44.07-.66,0-.44.09-.89.15-1.33s.15-.76.23-1.14.14-.59.2-.89.2-.89.29-1.34a4.58,4.58,0,0,0,.08-.62,7.78,7.78,0,0,1,.2-1.19c.11-.52.2-1,.31-1.55,0-.22.11-.44.16-.66s.14-.65.2-1,.11-.61.16-.92a6.37,6.37,0,0,0,.13-.74A12.92,12.92,0,0,1,6,69.81c.06-.5.2-1,.3-1.47.07-.31.16-.62.23-.93s.15-.59.21-.89l.36-1.78c.06-.33.09-.67.15-1a8.19,8.19,0,0,0,.2-1c0-.53.26-1,.31-1.52A1.87,1.87,0,0,1,7.79,61a15.35,15.35,0,0,0,.37-1.63c.11-.64.31-1.26.42-1.9s.29-1.26.44-1.89c.11-.45.14-.91.23-1.36s.2-.94.31-1.4.27-1.18.41-1.76.29-1.09.44-1.64A22.17,22.17,0,0,0,11,47.3c.1-.52.28-1,.4-1.54.08-.31.11-.63.18-.95s.16-.75.24-1.13.13-.6.19-.9a17.73,17.73,0,0,1,.42-2.05,13.63,13.63,0,0,0,.31-1.44c.11-.61.24-1.21.3-1.84s.18-1.14.22-1.73a9.21,9.21,0,0,1,.22-1.65,13.94,13.94,0,0,0,.21-1.4c.06-.42.19-.83.26-1.24s.12-.8.17-1.2c0-.13,0-.25.12-.32s.09-.28.12-.42c.08-.37.13-.75.2-1.12,0-.14,0-.27.07-.41.09-.58.26-1.14.31-1.73,0-.23,0-.47.06-.7a6.18,6.18,0,0,1,.07-.62,2.49,2.49,0,0,1,.06-.6c.07-.21,0-.46.07-.69s0-.76.09-1.13a9.57,9.57,0,0,1,.2-1.41,4.41,4.41,0,0,0,.09-.73c.05-.55.07-1.1.15-1.65a9.19,9.19,0,0,0,.14-1.58,1.72,1.72,0,0,1,.07-.37,2.53,2.53,0,0,0,0-.55A11.32,11.32,0,0,1,16,14.77c0-.33,0-.66.06-1a13.5,13.5,0,0,0,.07-1.91,2,2,0,0,0-.06-.59,1.64,1.64,0,0,1,0-.58s0,0,0,0c0-.77.08-1.54.05-2.3a5.83,5.83,0,0,0-.06-.84c-.08-.44,0-.89-.08-1.32s0-1-.06-1.46S16,3.56,15.93,3a12.17,12.17,0,0,0-.28-1.81s0-.06,0-.07S15.5.82,15.47.83s-.11.18-.11.3A8.71,8.71,0,0,0,15.56,3a4.9,4.9,0,0,1,0,.67c0,2.22,0,4.44,0,6.66a17.65,17.65,0,0,1-.07,1.78c0,.36,0,.72-.07,1.06-.1.71,0,1.43-.08,2.13a3.79,3.79,0,0,1-.13,1.11.66.66,0,0,0,0,.14c0,.65,0,1.3-.08,1.94a12.08,12.08,0,0,1-.2,1.47c0,.2,0,.42-.07.63a7.67,7.67,0,0,1-.15.81c0,.07.07.18.06.26,0,.35-.11.69-.12,1a8.68,8.68,0,0,1-.17,1c-.09.55-.19,1.09-.28,1.63a1.82,1.82,0,0,0,0,.33A4.32,4.32,0,0,1,14,26.88a.64.64,0,0,0,0,.28,2.87,2.87,0,0,1-.13.82,3.51,3.51,0,0,0-.09.65c0,.45-.08.91-.15,1.36s-.2.86-.29,1.3c-.05.27-.1.54-.14.81s-.06.32-.08.48c0,.37-.08.74-.15,1.1s-.16.83-.24,1.25-.13.72-.19,1.08-.11.8-.2,1.19c-.14.66-.35,1.3-.44,2-.07.5-.16,1-.24,1.47s-.28,1.22-.43,1.83c-.07.28-.15.56-.22.85s-.15.81-.24,1.21-.12.63-.2.94a13,13,0,0,1-.33,1.5s0,0,0,.06a7.81,7.81,0,0,1-.29,1.59c-.06.32-.17.63-.25,1s-.08.35-.11.53a10.56,10.56,0,0,1-.29,1.38c-.12.39-.2.79-.29,1.18s-.2.87-.3,1.3c-.05.25-.1.49-.14.74-.08.47-.15.93-.24,1.4,0,.29-.13.57-.2.86-.1.47-.21.93-.31,1.4s-.12.65-.2,1-.2.67-.29,1c-.15.54-.28,1.09-.44,1.64a3.34,3.34,0,0,0-.22,1.18,1,1,0,0,1-.07.33.88.88,0,0,0-.06.26,7.67,7.67,0,0,1-.16,1.07c0,.21-.11.42-.14.63a15.35,15.35,0,0,1-.4,2c-.1.41-.17.83-.26,1.24s-.14.62-.21.93c-.1.46-.19.91-.3,1.37s-.26,1.08-.38,1.62c-.08.34-.13.68-.2,1a3.75,3.75,0,0,1-.15.77,2.29,2.29,0,0,0-.11.72c0,.32-.14.63-.18.95s-.14.67-.21,1c0,.11,0,.22-.08.33s-.07.06-.06.08a6.74,6.74,0,0,1-.14,1.11c0,.38-.15.74-.21,1.12a4.28,4.28,0,0,0-.09.61A4.79,4.79,0,0,1,3,81.62a1.4,1.4,0,0,0-.05.41c0,.36-.14.71-.16,1.06C2.75,83.69,2.62,84.27,2.53,84.87Z"/></g></g></svg>