<svg xmlns="http://www.w3.org/2000/svg" viewBox="0 0 57.14 121.25"><defs><style>.cls-1{fill:#6f8d4f;}</style></defs><title>stem-5</title><g id="Layer_2" data-name="Layer 2"><g id="stem-5"><path id="void" class="cls-1" d="M56.68,1.51a12.9,12.9,0,0,1-1.26.32,13.35,13.35,0,0,0-2.55.76C52,3,51,3.29,50.09,3.68c-.39.17-.75.44-1.13.63s-1.06.49-1.57.76c-.68.37-1.32.8-2,1.13a17.24,17.24,0,0,0-1.6,1.08c-1.13.69-2.09,1.63-3.25,2.29a1.36,1.36,0,0,0-.22.21l-1,1.05a2.69,2.69,0,0,1-.32.27c-.44.36-.9.7-1.33,1.07s-1,.84-1.4,1.29c-.81.82-1.6,1.67-2.4,2.5-.3.31-.62.59-.9.91s-.66.81-1,1.2-.63.67-.91,1a22.21,22.21,0,0,0-1.76,2.44,5.83,5.83,0,0,1-.57.74c-.39.47-.78.94-1.18,1.39-.13.15-.08.35-.16.49a6.93,6.93,0,0,1-.66,1.08c-.82,1-1.6,2-2.33,3.07-.53.79-1.07,1.56-1.59,2.36s-.94,1.58-1.4,2.38c-.27.47-.56.92-.84,1.38a3,3,0,0,0-.19.3c-.19.4-.37.81-.57,1.22-.53,1.07-1,2.15-1.62,3.2a4.63,4.63,0,0,0-.43,1.12,3.24,3.24,0,0,1-.42.8c-.38.68-.79,1.35-1.14,2-.42.85-.83,1.71-1.18,2.58s-.54,1.58-.8,2.37a12.63,12.63,0,0,1-.81,2,21.65,21.65,0,0,0-1.24,3c-.26.75-.53,1.5-.77,2.26s-.48,1.67-.74,2.5c-.14.42-.36.82-.53,1.23-.09.23-.15.48-.22.72a1.41,1.41,0,0,1-.12.38,5.67,5.67,0,0,0-.62,1.68,11.19,11.19,0,0,0-.4,1.51c-.17.74-.33,1.48-.47,2.23-.07.34-.2.67-.24,1a11.09,11.09,0,0,1-.42,1.77c-.18.66-.28,1.34-.5,2a10.94,10.94,0,0,0-.25,1.41c-.14.8-.29,1.6-.42,2.41-.06.37-.06.76-.12,1.14-.09.58-.21,1.16-.33,1.75S5.68,78.35,5.53,79a7.48,7.48,0,0,0-.1,1.89,3.63,3.63,0,0,1-.5,1.9,1.81,1.81,0,0,0-.15.53c-.18.77-.38,1.53-.53,2.31a10.74,10.74,0,0,0-.12,1.14,3.27,3.27,0,0,0-.1.6,15.1,15.1,0,0,1-.23,2.12,9.64,9.64,0,0,1-.12,1.94,12.21,12.21,0,0,0-.09,1.47c0,.29-.07.58-.11.87s.11.56-.1.82c0,0,0,.14,0,.21,0,.51-.07,1-.11,1.52,0,.36-.08.71-.11,1.07,0,.72,0,1.45-.12,2.16-.12,1.08,0,2.17-.12,3.24,0,.36,0,.7,0,1a9.5,9.5,0,0,1-.2,2.19.86.86,0,0,0,0,.16c0,1.28-.09,2.55-.1,3.83s.05,2.81,0,4.2a29.26,29.26,0,0,0-.07,3.24,20.72,20.72,0,0,1,.08,2.49c0,.92-.3,1.11-1,1.3a1,1,0,0,1-.78-.15c-.58-.28-.63-.72-.65-1.24s0-1.13-.11-1.68c0-.27.14-.49,0-.78a1.78,1.78,0,0,1,0-.86c.14-.88,0-1.77.13-2.64a12.78,12.78,0,0,0,.07-1.63c0-.24.25-.45,0-.73s0-.42,0-.64c0-.86,0-1.72.07-2.57a26.45,26.45,0,0,1,.25-3.09c.09-.53-.08-1.08.17-1.59,0-.07,0-.2,0-.3,0-.41,0-.83.05-1.24s-.11-.85.11-1.25c0,0,0,0,0,0,0-.61.07-1.23.11-1.84a18.52,18.52,0,0,1,.12-2.11c.08-.45,0-.92.11-1.35a12,12,0,0,1,.31-2.4c.07-.18-.05-.32,0-.51a15.82,15.82,0,0,1,.23-1.8c-.28-.34.07-.68,0-1a5,5,0,0,1,.19-1c.06-.37.06-.76.12-1.14a20.53,20.53,0,0,1,.31-2.34c.09-.4.07-.83.12-1.25s.14-.77.2-1.15.08-.65.12-1c.07-.63.13-1.27.22-1.9a16.82,16.82,0,0,0,.3-1.7c0-.75.27-1.45.36-2.18a19.5,19.5,0,0,1,.45-2.12c.09-.4.19-.79.28-1.18.15-.57.3-1.13.43-1.7s.19-1,.33-1.54c.27-.9.37-1.84.7-2.72.1-.27.06-.59.17-.85.26-.6.18-1.27.41-1.88a13.57,13.57,0,0,0,.38-1.46c.31-1.14.6-2.29.93-3.44a17.78,17.78,0,0,1,.65-2c.34-.81.55-1.67.85-2.5s.61-1.69,1-2.5c.27-.59.43-1.22.72-1.8.18-.37.34-.77.48-1.15s.43-1,.62-1.47c.32-.83.65-1.66,1-2.49s.8-1.82,1.25-2.71c.75-1.45,1.39-2.95,2.24-4.35.25-.42.41-.91.66-1.34.45-.82.85-1.66,1.3-2.48a16.45,16.45,0,0,0,.93-1.56,23.4,23.4,0,0,1,1.23-2.18c.19-.37.44-.71.65-1.08s.33-.66.53-1c.83-1.24,1.68-2.46,2.52-3.7.28-.42.54-.85.82-1.27s.38-.61.59-.89c.81-1.07,1.61-2.14,2.44-3.19.51-.66,1.08-1.27,1.59-1.93A41.09,41.09,0,0,1,33,14.28c.26-.26.48-.56.73-.82s.54-.45.79-.69c.77-.76,1.53-1.52,2.29-2.29a25.85,25.85,0,0,1,2.1-1.8c.56-.46,1.12-.92,1.71-1.36a25.92,25.92,0,0,1,2.52-1.71c.64-.38,1.25-.79,1.88-1.18.8-.49,1.61-1,2.42-1.45.49-.28,1-.56,1.49-.82a14.87,14.87,0,0,1,2.5-1c1-.3,2-.52,3-.75C55,.3,55.62.14,56.21,0a2,2,0,0,1,.54,0c.06,0,.11,0,.17.08s-.07.11-.12.13-.15.17,0,.21.23.35.35.51S56.94,1.44,56.68,1.51Z"/><path id="fill2" class="cls-1" d="M56.68,1.51a12.9,12.9,0,0,1-1.26.32,13.35,13.35,0,0,0-2.55.76C52,3,51,3.29,50.09,3.68c-.39.17-.75.44-1.13.63s-1.06.49-1.57.76c-.68.37-1.32.8-2,1.13a17.24,17.24,0,0,0-1.6,1.08c-1.13.69-2.09,1.63-3.25,2.29a1.36,1.36,0,0,0-.22.21l-1,1.05a2.69,2.69,0,0,1-.32.27c-.44.36-.9.7-1.33,1.07s-1,.84-1.4,1.29c-.81.82-1.6,1.67-2.4,2.5-.3.31-.62.59-.9.91s-.66.81-1,1.2-.63.67-.91,1a22.21,22.21,0,0,0-1.76,2.44,5.83,5.83,0,0,1-.57.74c-.39.47-.78.94-1.18,1.39-.13.15-.08.35-.16.49a6.93,6.93,0,0,1-.66,1.08c-.82,1-1.6,2-2.33,3.07-.53.79-1.07,1.56-1.59,2.36s-.94,1.58-1.4,2.38c-.27.47-.56.92-.84,1.38a3,3,0,0,0-.19.3c-.19.4-.37.81-.57,1.22-.53,1.07-1,2.15-1.62,3.2a4.63,4.63,0,0,0-.43,1.12,3.24,3.24,0,0,1-.42.8c-.38.68-.79,1.35-1.14,2-.42.85-.83,1.71-1.18,2.58s-.54,1.58-.8,2.37a12.63,12.63,0,0,1-.81,2,21.65,21.65,0,0,0-1.24,3c-.26.75-.53,1.5-.77,2.26s-.48,1.67-.74,2.5c-.14.42-.36.82-.53,1.23-.09.23-.15.48-.22.72a1.41,1.41,0,0,1-.12.38,5.67,5.67,0,0,0-.62,1.68,11.19,11.19,0,0,0-.4,1.51c-.17.74-.33,1.48-.47,2.23-.07.34-.2.67-.24,1a11.09,11.09,0,0,1-.42,1.77c-.18.66-.28,1.34-.5,2a10.94,10.94,0,0,0-.25,1.41c-.14.8-.29,1.6-.42,2.41-.06.37-.06.76-.12,1.14-.09.58-.21,1.16-.33,1.75S5.68,78.35,5.53,79a7.48,7.48,0,0,0-.1,1.89,3.63,3.63,0,0,1-.5,1.9,1.81,1.81,0,0,0-.15.53c-.18.77-.38,1.53-.53,2.31a10.74,10.74,0,0,0-.12,1.14,3.27,3.27,0,0,0-.1.6,15.1,15.1,0,0,1-.23,2.12,9.64,9.64,0,0,1-.12,1.94,12.21,12.21,0,0,0-.09,1.47c0,.29-.07.58-.11.87s.11.56-.1.82c0,0,0,.14,0,.21,0,.51-.07,1-.11,1.52,0,.36-.08.71-.11,1.07,0,.72,0,1.45-.12,2.16-.12,1.08,0,2.17-.12,3.24,0,.36,0,.7,0,1a9.5,9.5,0,0,1-.2,2.19.86.86,0,0,0,0,.16c0,1.28-.09,2.55-.1,3.83s.05,2.81,0,4.2a29.26,29.26,0,0,0-.07,3.24,20.72,20.72,0,0,1,.08,2.49c0,.92-.3,1.11-1,1.3a1,1,0,0,1-.78-.15c-.58-.28-.63-.72-.65-1.24s0-1.13-.11-1.68c0-.27.14-.49,0-.78a1.78,1.78,0,0,1,0-.86c.14-.88,0-1.77.13-2.64a12.78,12.78,0,0,0,.07-1.63c0-.24.25-.45,0-.73s0-.42,0-.64c0-.86,0-1.72.07-2.57a26.45,26.45,0,0,1,.25-3.09c.09-.53-.08-1.08.17-1.59,0-.07,0-.2,0-.3,0-.41,0-.83.05-1.24s-.11-.85.11-1.25c0,0,0,0,0,0,0-.61.07-1.23.11-1.84a18.52,18.52,0,0,1,.12-2.11c.08-.45,0-.92.11-1.35a12,12,0,0,1,.31-2.4c.07-.18-.05-.32,0-.51a15.82,15.82,0,0,1,.23-1.8c-.28-.34.07-.68,0-1a5,5,0,0,1,.19-1c.06-.37.06-.76.12-1.14a20.53,20.53,0,0,1,.31-2.34c.09-.4.07-.83.12-1.25s.14-.77.2-1.15.08-.65.12-1c.07-.63.13-1.27.22-1.9a16.82,16.82,0,0,0,.3-1.7c0-.75.27-1.45.36-2.18a19.5,19.5,0,0,1,.45-2.12c.09-.4.19-.79.28-1.18.15-.57.3-1.13.43-1.7s.19-1,.33-1.54c.27-.9.37-1.84.7-2.72.1-.27.06-.59.17-.85.26-.6.18-1.27.41-1.88a13.57,13.57,0,0,0,.38-1.46c.31-1.14.6-2.29.93-3.44a17.78,17.78,0,0,1,.65-2c.34-.81.55-1.67.85-2.5s.61-1.69,1-2.5c.27-.59.43-1.22.72-1.8.18-.37.34-.77.48-1.15s.43-1,.62-1.47c.32-.83.65-1.66,1-2.49s.8-1.82,1.25-2.71c.75-1.45,1.39-2.95,2.24-4.35.25-.42.41-.91.66-1.34.45-.82.85-1.66,1.3-2.48a16.45,16.45,0,0,0,.93-1.56,23.4,23.4,0,0,1,1.23-2.18c.19-.37.44-.71.65-1.08s.33-.66.53-1c.83-1.24,1.68-2.46,2.52-3.7.28-.42.54-.85.82-1.27s.38-.61.59-.89c.81-1.07,1.61-2.14,2.44-3.19.51-.66,1.08-1.27,1.59-1.93A41.09,41.09,0,0,1,33,14.28c.26-.26.48-.56.73-.82s.54-.45.79-.69c.77-.76,1.53-1.52,2.29-2.29a25.85,25.85,0,0,1,2.1-1.8c.56-.46,1.12-.92,1.71-1.36a25.92,25.92,0,0,1,2.52-1.71c.64-.38,1.25-.79,1.88-1.18.8-.49,1.61-1,2.42-1.45.49-.28,1-.56,1.49-.82a14.87,14.87,0,0,1,2.5-1c1-.3,2-.52,3-.75C55,.3,55.62.14,56.21,0a2,2,0,0,1,.54,0c.06,0,.11,0,.17.08s-.07.11-.12.13-.15.17,0,.21.23.35.35.51S56.94,1.44,56.68,1.51Z"/><path id="fill1" d="M40.3,9.79c-.37.37-.7.71-1,1.05l-.32.27c-.44.35-.9.69-1.33,1.06s-1,.85-1.4,1.3c-.81.82-1.6,1.66-2.4,2.49-.3.31-.62.6-.9.92s-.66.8-1,1.2-.63.66-.9,1a21.16,21.16,0,0,0-1.77,2.45,5.65,5.65,0,0,1-.56.73c-.39.47-.78.94-1.19,1.4-.13.15-.08.34-.16.49a8.24,8.24,0,0,1-.65,1.07,36.59,36.59,0,0,0-2.33,3.08c-.54.78-1.08,1.56-1.6,2.35s-.94,1.59-1.4,2.39c-.27.46-.56.92-.84,1.37-.06.11-.13.2-.18.3-.2.41-.38.82-.58,1.22-.53,1.07-1,2.15-1.61,3.21a4,4,0,0,0-.44,1.12,3.31,3.31,0,0,1-.41.79c-.39.68-.8,1.36-1.15,2.06s-.82,1.7-1.18,2.58-.53,1.57-.8,2.36a13.7,13.7,0,0,1-.8,2,18.92,18.92,0,0,0-1.24,3c-.26.76-.54,1.51-.78,2.27s-.47,1.67-.74,2.49c-.14.43-.36.82-.53,1.24-.09.23-.14.48-.22.71a1.13,1.13,0,0,1-.12.38,6.35,6.35,0,0,0-.62,1.69,12.24,12.24,0,0,0-.4,1.5c-.17.74-.32,1.48-.47,2.23-.07.35-.19.68-.24,1a12.12,12.12,0,0,1-.41,1.76c-.19.66-.29,1.34-.51,2a9.22,9.22,0,0,0-.24,1.41c-.14.8-.3,1.6-.43,2.4-.06.38-.06.77-.12,1.14-.09.59-.21,1.17-.33,1.75S5.68,78.35,5.53,79a8.06,8.06,0,0,0-.1,1.9,3.59,3.59,0,0,1-.5,1.89,1.9,1.9,0,0,0-.15.53c-.18.77-.37,1.54-.53,2.31-.08.37-.07.76-.12,1.14a2.57,2.57,0,0,0-.09.6,16.77,16.77,0,0,1-.24,2.12,9.78,9.78,0,0,1-.12,2c-.09.49,0,1-.09,1.46,0,.29-.06.58-.1.87s.1.57-.11.83c0,0,0,.14,0,.21,0,.5-.07,1-.11,1.51s-.08.72-.1,1.07c0,.72,0,1.45-.12,2.17-.13,1.08,0,2.16-.13,3.24,0,.36,0,.69,0,1a9,9,0,0,1-.2,2.19.86.86,0,0,0,0,.16c0,1.28-.08,2.56-.1,3.84s.06,2.8,0,4.2a25,25,0,0,0-.07,3.24c0,.83.11,1.66.08,2.49s-.31,1.11-1,1.29a1,1,0,0,1-.78-.14,1.22,1.22,0,0,1-.65-1.25A15.79,15.79,0,0,0,0,118.15c0-.26.14-.49,0-.78a1.63,1.63,0,0,1,0-.85c.13-.88,0-1.77.12-2.65a12.62,12.62,0,0,0,.07-1.63c0-.24.25-.44,0-.73-.09-.13,0-.42,0-.63,0-.86,0-1.72.08-2.58a24.28,24.28,0,0,1,.24-3.08c.09-.53-.07-1.08.18-1.59,0-.08-.05-.21-.05-.31,0-.41,0-.82.06-1.23s-.12-.85.1-1.25c0,0,0,0,0-.06,0-.61.08-1.22.11-1.84a18.35,18.35,0,0,1,.13-2.1c.07-.46,0-.92.1-1.36a12.14,12.14,0,0,1,.31-2.4c.07-.17-.05-.32,0-.51a15.39,15.39,0,0,1,.24-1.79c-.29-.35.06-.69,0-1a4.28,4.28,0,0,1,.18-1c.06-.38.07-.76.12-1.14a23.63,23.63,0,0,1,.31-2.35A10.21,10.21,0,0,0,2.52,84c0-.39.14-.77.2-1.16s.08-.65.12-1c.07-.64.13-1.27.22-1.91a14.26,14.26,0,0,0,.3-1.69c0-.75.27-1.45.36-2.18a19.68,19.68,0,0,1,.45-2.13c.09-.39.19-.78.29-1.17.14-.57.29-1.14.43-1.71s.18-1,.33-1.53c.26-.9.36-1.84.69-2.73.1-.27.06-.59.17-.85.27-.6.18-1.26.41-1.87a14.21,14.21,0,0,0,.38-1.46c.31-1.15.61-2.3.93-3.44a19.27,19.27,0,0,1,.65-2c.34-.82.55-1.68.86-2.5s.6-1.7,1-2.51c.27-.58.44-1.21.72-1.8.18-.37.34-.76.48-1.14s.43-1,.62-1.47c.32-.84.66-1.67,1-2.49s.8-1.83,1.26-2.71c.75-1.45,1.38-3,2.23-4.36.25-.42.42-.9.66-1.34.45-.82.85-1.66,1.3-2.48a14.45,14.45,0,0,0,.93-1.55c.32-.79.85-1.44,1.23-2.18.19-.38.44-.72.65-1.08s.33-.66.53-1c.83-1.23,1.68-2.46,2.52-3.69.28-.42.54-.86.82-1.28s.38-.6.59-.88c.81-1.07,1.61-2.14,2.44-3.2.51-.65,1.08-1.27,1.59-1.92A39.51,39.51,0,0,1,33,14.29c.25-.26.47-.57.73-.83s.54-.44.78-.69c.77-.75,1.53-1.52,2.29-2.28a25.7,25.7,0,0,1,2.1-1.81c.56-.46,1.13-.92,1.71-1.35a25.44,25.44,0,0,1,2.52-1.72c.64-.37,1.25-.79,1.88-1.18.8-.48,1.61-1,2.42-1.44.49-.29,1-.56,1.49-.82a14.68,14.68,0,0,1,2.51-1c1-.3,2-.51,3-.75L56.22,0a1.88,1.88,0,0,1,.53,0c.06,0,.11.05.17.07s-.07.11-.11.13-.15.17,0,.21.22.35.34.52-.17.49-.43.57c-.42.12-.84.24-1.27.32a13.23,13.23,0,0,0-2.54.75C52,3,51,3.3,50.1,3.68c-.4.17-.75.44-1.14.64s-1.06.48-1.57.76c-.68.36-1.32.8-2,1.12a17.91,17.91,0,0,0-1.6,1.08c-1.14.7-2.09,1.64-3.25,2.29a1.15,1.15,0,0,0-.23.22M19.43,35.18c.06-.06.15-.11.19-.19.2-.44.35-.9.58-1.32.48-.84,1-1.67,1.52-2.49s.82-1.36,1.27-2c.6-.85,1.22-1.69,1.85-2.52.36-.47.76-.9,1.14-1.36a1.48,1.48,0,0,0,.13-.21,6.23,6.23,0,0,1,.73-1.43c.24-.29.44-.61.7-.89s.47-.6.73-.88c.57-.62.92-1.39,1.43-2.05.69-.91,1.4-1.8,2.15-2.66.6-.68,1.23-1.33,1.87-2,1-1,2-2,3-3a3.44,3.44,0,0,1,.27-.27c.69-.59,1.38-1.16,2.07-1.76.11-.09.15-.27.27-.36A21,21,0,0,1,42,8a1.32,1.32,0,0,0,.28-.25,2.65,2.65,0,0,1,.34-.33c.8-.56,1.6-1.14,2.43-1.67a23.14,23.14,0,0,1,2.23-1.25A14.15,14.15,0,0,0,49,3.58a6.15,6.15,0,0,1,1-.45l1.74-.75a11.89,11.89,0,0,1,1.28-.53c.86-.24,1.73-.43,2.59-.66.22-.05.44-.16.66-.2s.15-.14.13-.22-.13-.11-.19-.11c-.32,0-.64.08-1,.14-.61.12-1.22.27-1.83.4s-1.12.22-1.67.39a13.33,13.33,0,0,0-1.92.69c-.74.35-1.48.68-2.19,1.08s-1.48.93-2.23,1.39-1.59.93-2.38,1.4A20.7,20.7,0,0,0,41,7.61l-1.09.88c-.72.57-1.44,1.13-2.14,1.72a18,18,0,0,0-1.37,1.25c-1.49,1.52-3,3-4.46,4.56a34.39,34.39,0,0,0-2.85,3.18l-1,1.35c-.32.43-.62.87-1,1.28a26.23,26.23,0,0,0-1.93,2.64c-.39.6-.78,1.19-1.19,1.77s-1,1.31-1.38,2c-.58,1-1.27,2-1.82,3-.64,1.21-1.38,2.37-2,3.57-.49.87-.92,1.77-1.38,2.66l-.38.76c-.34.72-.68,1.45-1,2.16s-.8,1.5-1.18,2.26c-.28.58-.53,1.18-.8,1.77s-.57,1.19-.83,1.8c-.47,1.1-.92,2.21-1.38,3.31-.15.37-.34.72-.48,1.09-.42,1.07-.82,2.14-1.23,3.21-.17.44-.35.86-.5,1.3-.5,1.49-1,3-1.48,4.45q-.25.81-.45,1.65c-.19.8-.41,1.59-.6,2.39s-.42,1.7-.58,2.56-.38,1.5-.49,2.28S5.5,70,5.32,70.77c-.27,1.2-.45,2.42-.77,3.61-.26.93-.4,1.88-.62,2.81s-.31,1.64-.44,2.46-.26,1.52-.31,2.29S3,83.36,2.86,84.07s-.18,1.6-.33,2.39-.16,1.45-.23,2.17c0,.35-.06.7-.11,1-.1.65-.26,1.31-.31,2s-.13,1.45-.22,2.18-.15,1.77-.22,2.65c0,.49-.05,1-.08,1.47-.07,1.14-.11,2.27-.24,3.41-.06.59-.05,1.19-.08,1.79C1,104.35,1,105.58.8,106.81c-.08.68-.05,1.37-.09,2-.11,1.82,0,3.63-.11,5.45a35.18,35.18,0,0,0,.09,5.13,9,9,0,0,0,.12,1c0,.1,0,.3.26.31A.84.84,0,0,0,2,120v-.16c0-.65,0-1.29-.08-2a6.79,6.79,0,0,1-.06-1.63,4.41,4.41,0,0,0,0-1.58c0-.07,0-.16,0-.21a1.45,1.45,0,0,0,.1-.82c0-1.94,0-3.88,0-5.82a6.71,6.71,0,0,1,.12-1.35,11.24,11.24,0,0,0,.19-1.91c.08-1.71.08-3.42.12-5.12a1,1,0,0,1,0-.17,14.35,14.35,0,0,0,.2-2.17c.09-.7.05-1.41.13-2.11A17.75,17.75,0,0,0,3,92.89a19,19,0,0,1,.12-2,21.89,21.89,0,0,0,.21-2.29,3.62,3.62,0,0,1,.11-.92c.17-.7.17-1.42.31-2.13a4.5,4.5,0,0,1,.59-1.8A.76.76,0,0,0,4.4,83c-.09-.24-.05-.36.17-.45,0,0,.09,0,.1-.09a12.4,12.4,0,0,0,.21-1.36c0-.66,0-1.34,0-2s.35-1.37.44-2.09c.1-.88.4-1.74.5-2.63S6,72.8,6.18,72s.25-1.58.44-2.35a27.39,27.39,0,0,0,.76-3.25,19.83,19.83,0,0,1,.53-2.25,3.41,3.41,0,0,0,.2-.67,10.75,10.75,0,0,1,.52-2.1c.14-.6.46-1.15.62-1.73a7.31,7.31,0,0,1,.69-1.77,2.17,2.17,0,0,0,.22-.6c.23-.81.42-1.62.67-2.42s.51-1.34.73-2a20.64,20.64,0,0,1,1.26-3,14.61,14.61,0,0,0,1.21-3,20.11,20.11,0,0,1,1.42-3.72c.4-.87.92-1.67,1.39-2.5a3.64,3.64,0,0,0,.32-.62c.15-.35.25-.72.41-1.07s.52-.93.75-1.41C18.7,36.82,19.06,36.06,19.43,35.18Z"/></g></g></svg>