<svg xmlns="http://www.w3.org/2000/svg" viewBox="0 0 44.6 94.76"><title>tendrill-branch</title><g id="Layer_2" data-name="Layer 2"><g id="tendrill-branch"><path id="fill1" d="M6.61,45.69c-.16.85-.32,1.64-.47,2.45-.12.66-.22,1.31-.32,2-.06.35-.11.71-.15,1.07s-.07.88-.09,1.32c-.07,1-.15,2-.18,3,0,.56.06,1.11.08,1.67,0,.25-.07.51-.09.76a1,1,0,0,0,.07.29.83.83,0,0,0,.27-.12c.53-.51,1-1,1.55-1.56a.78.78,0,0,0,.17-.48c0-1.14,0-2.27.12-3.4s.31-2.32.45-3.48a29.1,29.1,0,0,1,1-4.55c.57-1.91,1-3.83,1.64-5.74a23.85,23.85,0,0,1,2.67-5.72c.8-1.23,1.57-2.49,2.4-3.7A13.73,13.73,0,0,1,19.08,26a14.41,14.41,0,0,1,3.22-1.77,11.56,11.56,0,0,1,4.95-.53,20.34,20.34,0,0,1,2.78.53c.32.06.64.11.95.2.08,0,.14.13.21.2a1,1,0,0,1-.25,0c-.7-.12-1.4-.3-2.12-.36A29.9,29.9,0,0,0,25,24.05a8.84,8.84,0,0,0-4.2,1.33A23.42,23.42,0,0,0,18.59,27a14.27,14.27,0,0,0-3.14,3.78c-1,1.59-2,3.19-2.84,4.85a25.68,25.68,0,0,0-2.16,5.95c-.31,1.25-.71,2.47-1,3.72-.28,1.09-.53,2.2-.75,3.31A21.6,21.6,0,0,0,8.19,53c0,.65,0,1.28-.09,1.94,0,.29-.07.57-.09.85,0,.06.07.13.1.19a1.4,1.4,0,0,0,.17-.09A8.8,8.8,0,0,1,11,54.36c.49-.22,1-.42,1.46-.67a.85.85,0,0,0,.32-.47c.25-.91.47-1.81.72-2.72a16.76,16.76,0,0,1,2.29-4.74,17.42,17.42,0,0,1,3.67-4,15.23,15.23,0,0,1,3.29-2.08,23.37,23.37,0,0,1,4.13-1.48,13.62,13.62,0,0,1,3.87-.29,20,20,0,0,1,3.76.75,13.53,13.53,0,0,1,4.61,2.12,14.12,14.12,0,0,1,2.79,2.83,13.27,13.27,0,0,1,2.21,4.83,15.89,15.89,0,0,1,.42,2.75,14,14,0,0,1,0,2,18.29,18.29,0,0,1-.64,4.16,12.34,12.34,0,0,1-1.7,3.9,12.12,12.12,0,0,1-2.71,2.87c-.72.52-1.36,1.15-2.12,1.61a8.89,8.89,0,0,1-3.06,1.37c-.85.15-1.66.32-2.48.47a.67.67,0,0,0-.57.53,15.77,15.77,0,0,1-2.06,4.42,8.28,8.28,0,0,1-2.76,2.73,6.73,6.73,0,0,1-4,1,4.35,4.35,0,0,1-3.31-2.12A5.43,5.43,0,0,1,18.29,71a2.09,2.09,0,0,1,2.59-2.12.3.3,0,0,1,.22.14.25.25,0,0,1-.12.21,2,2,0,0,1-.67.3A1.55,1.55,0,0,0,19,70.92a4.62,4.62,0,0,0,2.1,4.25,3.25,3.25,0,0,0,2.82.46,10.9,10.9,0,0,0,2.27-.85,6,6,0,0,0,1.28-1.08,12,12,0,0,0,1-1,12.14,12.14,0,0,0,2.13-4.21c.07-.24.13-.49.2-.74-.27,0-.53-.08-.79-.15a22,22,0,0,1-2.51-.76,8.75,8.75,0,0,1-3.32-2.42A9.1,9.1,0,0,1,22,60.23a8.85,8.85,0,0,1,.68-5.73c.12-.26.16-.42-.22-.51-1-.2-2-.49-3.07-.63a11.3,11.3,0,0,0-2.6-.09,28.35,28.35,0,0,0-3.14.57c-.64.13-.61.7-.67,1.16a27.56,27.56,0,0,0-.38,5.52c.09,1.38.21,2.76.38,4.13a28.87,28.87,0,0,0,.56,3.06,21.1,21.1,0,0,0,1.07,3.7c.42.89.74,1.82,1.14,2.72.51,1.16,1,2.34,1.56,3.45.81,1.52,1.7,3,2.6,4.48.67,1.09,1.36,2.18,2.1,3.22.85,1.2,1.75,2.36,2.66,3.52s1.7,2.09,2.55,3.12c.15.17.43.23.58.4a3.2,3.2,0,0,1,.75,1c.11.27-.22.3-.42.21s-.43-.25-.66-.36a.41.41,0,0,0-.26,0c0,.09,0,.22.1.26.27.17.56.31.85.47a1.14,1.14,0,0,1,.15.16,1.24,1.24,0,0,1-.18.14c-.14.1-.33.16-.42.3-.26.38-.58.29-.88.13-.48-.25-.92-.57-1.41-.81a1.13,1.13,0,0,0-.8-.16,5,5,0,0,1-1.83.26A20,20,0,0,1,16.64,93a25.54,25.54,0,0,1-5.33-2.12,15.78,15.78,0,0,1-2.46-1.57,36.59,36.59,0,0,1-3.23-2.87A21.55,21.55,0,0,1,3.5,83.7a16,16,0,0,1-1.32-2.12,19.62,19.62,0,0,1-1.7-5A26.7,26.7,0,0,1,.1,73.78a17.89,17.89,0,0,1,.77-7.41c.43-1.25,1-2.47,1.49-3.67a18.14,18.14,0,0,1,2.19-3.43,2,2,0,0,0,.33-.93c0-.48-.09-1-.07-1.42,0-1.33.11-2.66.18-4,0-.81.1-1.61.19-2.42s.24-1.53.38-2.29.29-1.7.47-2.55c.4-1.81.73-3.64,1.27-5.41.76-2.44,1.64-4.87,2.53-7.29.52-1.42,1.19-2.8,1.76-4.21.3-.71.51-1.45.8-2.16.39-1,.85-2,1.22-2.93.49-1.24,1-2.48,1.39-3.75q.73-2.36,1.28-4.74a22.88,22.88,0,0,0,.4-2.86,19.55,19.55,0,0,0,.18-2.65,18.32,18.32,0,0,0-.77-5A24.9,24.9,0,0,0,14.21.33,1.32,1.32,0,0,1,14.13,0c.09.06.23.09.29.17a13.14,13.14,0,0,1,1.21,2A37.59,37.59,0,0,1,16.9,6.06a13.9,13.9,0,0,1,.34,2.21,9.19,9.19,0,0,1,.09,1.66,34.06,34.06,0,0,1-.42,4.51,41.91,41.91,0,0,1-1.54,6.15c-.52,1.46-1.12,2.89-1.7,4.34s-1.12,2.93-1.7,4.38c-.43,1.05-.89,2.08-1.31,3.13-.33.85-.61,1.7-.92,2.55-.6,1.67-1.23,3.32-1.78,5-.33,1-.55,2-.78,3s-.39,1.79-.57,2.74m14.74,7.42a10.72,10.72,0,0,0,1.27.32,1.07,1.07,0,0,0,.74-.12,7.47,7.47,0,0,0,.63-.85A6,6,0,0,1,29.19,50a4.64,4.64,0,0,1,3,1.44.4.4,0,0,1,0,.42c-.23.32-.44.13-.64-.08a3.71,3.71,0,0,0-4.29-1,6.09,6.09,0,0,0-3.15,2.48c-.36.55-.36.55.25.82,0,0,.07.07.11.08a12.42,12.42,0,0,1,3.88,2.42,11.48,11.48,0,0,1,2.46,3.55,9.13,9.13,0,0,1,.9,3.4,10,10,0,0,1-.15,3.36c0,.06.2.27.3.27.29,0,.57-.13.85-.17a10.86,10.86,0,0,0,4-1.47c.57-.34,1.09-.77,1.64-1.16A13.69,13.69,0,0,0,41.72,61a12.64,12.64,0,0,0,1.59-3.58,18.75,18.75,0,0,0,.74-4.77,14.28,14.28,0,0,0-.45-3.85,13.58,13.58,0,0,0-1.27-3.48,11.33,11.33,0,0,0-2.79-3.44,13.71,13.71,0,0,0-2.39-1.61A16.92,16.92,0,0,0,34,39.07a20.41,20.41,0,0,0-3.2-.56,16.74,16.74,0,0,0-2.24,0,4.19,4.19,0,0,0-1,.09,22.44,22.44,0,0,0-5,1.77,17,17,0,0,0-4.31,3.23,18.44,18.44,0,0,0-3,4.28,18,18,0,0,0-1.7,4.83,3,3,0,0,0,0,.6,4.26,4.26,0,0,0,.49-.1,11.86,11.86,0,0,1,4.62-.47c.91.1,1.83.22,2.78.38m-5,32.72c-.82-1-1.67-2-2.44-3s-1.57-2.23-2.27-3.4a50.91,50.91,0,0,1-2.75-5c-.89-1.94-1.6-4-2.31-6a25.19,25.19,0,0,1-.81-3c-.17-.77-.27-1.56-.38-2.34-.14-1-.25-1.93-.38-2.9a1.9,1.9,0,0,0-.09-.36c-.09.07-.22.13-.27.22-.61,1-1.23,2.07-1.8,3.12A17,17,0,0,0,1,68.41,25.73,25.73,0,0,0,.64,72.7a18.42,18.42,0,0,0,.74,4.84,17.78,17.78,0,0,0,2.27,5.32A21.92,21.92,0,0,0,7.05,87c.88.77,1.81,1.49,2.76,2.17a10.64,10.64,0,0,0,2.13,1.38,33.73,33.73,0,0,0,5.59,2.08,26.85,26.85,0,0,0,4.46.68c.67,0,1.35,0,2-.08h.09l.22-.15L24.16,93c-.52-.4-1.05-.78-1.57-1.2-1-.8-2-1.58-3-2.43S18,87.76,17.25,87c-.31-.33-.57-.7-.91-1.1M12.24,57.1c.11-.8.23-1.6.33-2.4a1.4,1.4,0,0,0,0-.29,1,1,0,0,0-.29,0c-1.19.61-2.39,1.19-3.57,1.83a1.34,1.34,0,0,0-.61.79,6.52,6.52,0,0,0,.06,1.53c.09,1.3.17,2.59.29,3.88a24.79,24.79,0,0,0,.39,3c.28,1.33.65,2.64,1,4a39.5,39.5,0,0,0,2.38,5.84c.14.32.37.6.53.91.22.5.47,1,.74,1.48,1,1.53,2.1,3,3.11,4.55a39.75,39.75,0,0,0,4.07,5c1,1.13,2.13,2.23,3.22,3.31a20.81,20.81,0,0,0,1.86,1.66c.25.19.43.6.9.45.16-.06.28-.07.11-.28q-.88-1-1.74-2.1c-.74-.93-1.49-1.85-2.19-2.82s-1.54-2.2-2.26-3.34c-1.12-1.76-2.22-3.53-3.26-5.34a33.75,33.75,0,0,1-1.63-3.37c-.54-1.22-1.06-2.44-1.5-3.7s-.85-2.72-1.22-4.11a27.43,27.43,0,0,1-.48-2.71c-.09-.57-.15-1.14-.2-1.7-.1-1.14-.23-2.28-.26-3.4a17.45,17.45,0,0,1,.22-2.61m13.17-1.88-1.28-.6c-.56-.28-.67-.23-1,.34a7.92,7.92,0,0,0-.52,5.48,8.18,8.18,0,0,0,2.22,4,10,10,0,0,0,2.91,2,8.8,8.8,0,0,0,2.71.74.43.43,0,0,0,.49-.35h0a4,4,0,0,0,.11-.9c0-.5,0-1,0-1.5a11.47,11.47,0,0,0-.25-2.41,15.5,15.5,0,0,0-1.17-2.71,7.77,7.77,0,0,0-2.34-2.72c-.61-.45-1.24-.85-2-1.3M17.2,86.09c.95,1,1.86,2,2.87,2.84C21.3,90,22.6,91,23.9,92a12.16,12.16,0,0,0,1.38.85c.06,0,.16,0,.24,0s-.05-.2-.11-.25c-.25-.22-.55-.38-.78-.61-1.06-1-2.12-2.08-3.15-3.15s-2.24-2.35-3.29-3.59a37.28,37.28,0,0,1-2.52-3.33c-1-1.52-1.93-3.12-3-4.65a29,29,0,0,1-2.49-5,37.21,37.21,0,0,1-1.57-4.86,32.9,32.9,0,0,1-.7-3.82c-.12-.75-.11-1.52-.21-2.27a16.39,16.39,0,0,1-.19-3.83.79.79,0,0,0-.1-.28l-.2.14c-.51.51-1,1-1.54,1.52a.79.79,0,0,0-.22.76c0,.63.12,1.27.18,1.9,0,.33,0,.66.11,1,.18,1,.36,2,.55,2.92.12.61.25,1.21.43,1.81s.46,1.4.71,2.12c.42,1.22.81,2.46,1.33,3.64a30.37,30.37,0,0,0,2.61,5c.54.79,1,1.64,1.53,2.42.91,1.28,1.85,2.55,2.79,3.82.46.63,1,1.22,1.48,1.87m9.65,7.64c-.08-.07-.14-.18-.24-.22a4.56,4.56,0,0,0-.53-.13c.11.1.21.22.33.31s.27.36.43,0"/></g></g></svg>