<svg xmlns="http://www.w3.org/2000/svg" viewBox="0 0 10.41 166.87"><defs><style>.cls-1{fill:#fff;}.cls-2{fill:#93c64a;}</style></defs><title>bamboo-25cm</title><g id="Layer_2" data-name="Layer 2"><g id="bamboo_25cm_" data-name="bamboo (25cm)"><path id="void" class="cls-1" d="M10.31,120.88a4.91,4.91,0,0,0,.09-1.38c0-.5-.44-.73-.77-1s-.46-.36-.69-.55c0,0,0-.13,0-.2.38,0,.2-.29.19-.44a8.94,8.94,0,0,0-.15-2.06A4.67,4.67,0,0,1,9,113.86c0-.58,0-1.16,0-1.74s.06-1.07,0-1.62a12.69,12.69,0,0,1-.1-2.14c.06-1.07,0-2.15.09-3.23.08-.88,0-1.77.08-2.66.13-1.41-.16-2.84.08-4.26,0-.29-.15-.61-.15-.92s.11-.87.11-1.3c0-2.53-.15-5.06,0-7.59a4.82,4.82,0,0,0,0-1.14,4.24,4.24,0,0,1,0-1,44.39,44.39,0,0,0,.16-5.41.87.87,0,0,1,0-.23,14.18,14.18,0,0,0,.24-2.91c0-.83,0-1.66-.06-2.5a2.93,2.93,0,0,1,.36-1.59A1.68,1.68,0,0,0,10,72.46c0-.45-.16-.88-.54-1h0c.24-.2,0-.39-.08-.57s-.13-.4-.26-.49a1.44,1.44,0,0,1-.51-1.15,22.08,22.08,0,0,1,0-3.15c0-.55.05-1.12.07-1.69,0-.38,0-.77,0-1.16s0-.91,0-1.36A24.18,24.18,0,0,1,8.67,59c.13-.85,0-1.72.11-2.59s0-1.87,0-2.8a8.4,8.4,0,0,1,.09-2.74c-.48-.89.25-1.87-.2-2.77-.06-.12,0-.32.06-.49s.09-.3.05-.42a10,10,0,0,1-.16-2,18.61,18.61,0,0,1,0-2.89,9.25,9.25,0,0,0-.18-3.19c.37-.9,0-1.84.2-2.77A15.52,15.52,0,0,1,9,33.77s0,0,.05-.05a.41.41,0,0,0-.17-.5.81.81,0,0,0-.2-.61.7.7,0,0,0-.24-.22.24.24,0,0,1-.28,0,.39.39,0,0,1,.28,0h0a.43.43,0,0,0-.05-.65l-.17-.16c-.36-.35-.67-.7-.35-1.25.07-.12,0-.3,0-.45a36.33,36.33,0,0,1,0-4c.13-1,0-2,.09-3,.14-1.23,0-2.47.06-3.72.13-1.76-.11-3.54.07-5.32,0-.27-.24-.63-.14-.83.3-.53.06-1.06.06-1.57,0-1.8,0-3.61.07-5.42,0-.43,0-.87,0-1.31s0-1,0-1.44c0-.31.07-.65-.26-.88,0,0,0-.2,0-.31A1.41,1.41,0,0,0,7.34.45,4.39,4.39,0,0,0,5.7,0,7.5,7.5,0,0,0,3,.64,3.83,3.83,0,0,0,.68,4a23,23,0,0,1,0,2.35C.69,7,.53,7.72.49,8.42a17.07,17.07,0,0,0,0,1.89c0,.6.1,1.2.12,1.8,0,.3-.15.65,0,.89a2.89,2.89,0,0,1,.14,1.16c0,.48,0,1,0,1.44s0,1,0,1.43a11.63,11.63,0,0,1,0,1.32c0,.48.13,1,.16,1.45,0,.7.06,1.41,0,2.12s0,1.38.05,2.07,0,1.56.06,2.35c.06,1.49.15,3,.24,4.47a.47.47,0,0,0,0,.17.23.23,0,0,0-.1.05C.9,31.42-.2,32.69,0,33.5c.11.12.21.24.3.26a.48.48,0,0,0-.18.45,5.47,5.47,0,0,0,.7,2.6,2.15,2.15,0,0,1,.29,1.09c0,1,0,2.08,0,3.13C1,43.15,1.05,45.27,1,47.4c0,.41.18.84-.11,1.23,0,0,0,.13,0,.2a8.47,8.47,0,0,1,.1,2C1,51.3,1,51.75,1,52.21a14.34,14.34,0,0,0-.11,1.46c.05,3,.1,6,.19,9,0,1,.13,1.93.2,2.89,0,0,0,.12,0,.15.3.35.11.77.17,1.15s.13.81.17,1.22c.07.56.1,1.12.17,1.68-.24-.06-.33.27-.47.35-.55.32-1,.78-.6,1.54A.48.48,0,0,0,1,72a.72.72,0,0,1,.42,0L1.25,72A.35.35,0,0,1,1,72c-.23.09-.36.34-.34.72,0,.54.11,1.07.18,1.6,0,.11.09.27.18.3.74.25.74.92.74,1.49a53.07,53.07,0,0,1,0,5.78c-.15,1.45.14,2.93-.06,4.41-.14,1,.07,2-.09,3s0,1.82-.09,2.74c-.13,1.23,0,2.48-.06,3.73-.1,3.26.13,6.53.05,9.81s.09,6.71.19,10.07A7.22,7.22,0,0,0,1.91,117a2.33,2.33,0,0,1,.34,0,1.56,1.56,0,0,1,.19.42,1,1,0,0,1-.09.7c-.15.3-.3.6-.46.89a1.71,1.71,0,0,0-.29,1.29c.07.33,0,.5-.1.59a.47.47,0,0,1-.2.1.34.34,0,0,1-.22-.06c-.4.12-.81.47-.82.79A5.94,5.94,0,0,0,.55,124a26.29,26.29,0,0,1,.86,2.91,7.72,7.72,0,0,1,0,1.28,5.73,5.73,0,0,1,.15,1.22,8.83,8.83,0,0,0,.06,1.16,49.83,49.83,0,0,1-.19,5c-.1,1.23.06,2.48-.08,3.73-.06.54,0,1.11,0,1.66a59.27,59.27,0,0,1,0,6.53c0,.27.09.54.08.81,0,1-.11,1.91-.16,2.87a22.23,22.23,0,0,1-.07,3.05c-.12.69,0,1.42-.1,2.14s0,1.41-.1,2.13c-.12,1.06,0,2.13-.09,3.2a3.52,3.52,0,0,0,.17,2.05A2.35,2.35,0,0,0,1,165.11c0,.59.18.79.76,1a13.34,13.34,0,0,0,1.78.48,8,8,0,0,0,3.43.16,6.25,6.25,0,0,0,2.09-1.48.36.36,0,0,0,0-.22.74.74,0,0,1-.55-.22l.08-.05c.17-.1.31-.23.41,0a.64.64,0,0,1,.06.28.47.47,0,0,0,.17,0c.25,0,.32-.3.34-.54a12.28,12.28,0,0,0,.1-1.6,9.56,9.56,0,0,0-.19-2.82.77.77,0,0,1,0-.45c.33-.87-.08-1.81.24-2.68-.14-2.4,0-4.81-.27-7.21-.18-1.65-.1-3.33-.12-5,0-.23.19-.55.1-.68a1.13,1.13,0,0,1-.13-.79c0-.61.08-1.22.1-1.83,0-.45,0-.91,0-1.36l0-1.44c0-.45,0-.91,0-1.36a7.7,7.7,0,0,1,0-1.44,10.12,10.12,0,0,0,0-1.24c0-.61.08-1.22.11-1.83a20.59,20.59,0,0,1,.08-2.6,21.35,21.35,0,0,0,.12-2.66.88.88,0,0,1,0-.23,7.76,7.76,0,0,0,.25-2.15,2.3,2.3,0,0,1,0-.37c.13-.6.26-1.2.39-1.87a2.26,2.26,0,0,0-.18-.54.44.44,0,0,0-.34-.23.66.66,0,0,1-.24.11l.08-.06a.33.33,0,0,1,.16-.05.63.63,0,0,0,.26-.62.46.46,0,0,0-.12-.24l-.2.11,0-.16c.11,0,.18,0,.23,0A1.42,1.42,0,0,0,10.31,120.88ZM9.46,71.41c-.12.08-.36,0-.53-.1A1.22,1.22,0,0,1,9.46,71.41ZM1.59,3.6a5.43,5.43,0,0,1,0,.57c-.1-.06-.24-.19-.23-.26A.64.64,0,0,1,1.59,3.6Z"/><path id="fill2" class="cls-2" d="M10.31,120.88a4.91,4.91,0,0,0,.09-1.38c0-.5-.44-.73-.77-1s-.46-.36-.69-.55c0,0,0-.13,0-.2.38,0,.2-.29.19-.44a8.94,8.94,0,0,0-.15-2.06A4.67,4.67,0,0,1,9,113.86c0-.58,0-1.16,0-1.74s.06-1.07,0-1.62a12.69,12.69,0,0,1-.1-2.14c.06-1.07,0-2.15.09-3.23.08-.88,0-1.77.08-2.66.13-1.41-.16-2.84.08-4.26,0-.29-.15-.61-.15-.92s.11-.87.11-1.3c0-2.53-.15-5.06,0-7.59a4.82,4.82,0,0,0,0-1.14,4.24,4.24,0,0,1,0-1,44.39,44.39,0,0,0,.16-5.41.87.87,0,0,1,0-.23,14.18,14.18,0,0,0,.24-2.91c0-.83,0-1.66-.06-2.5a2.93,2.93,0,0,1,.36-1.59A1.68,1.68,0,0,0,10,72.46c0-.45-.16-.88-.54-1h0c.24-.2,0-.39-.08-.57s-.13-.4-.26-.49a1.44,1.44,0,0,1-.51-1.15,22.08,22.08,0,0,1,0-3.15c0-.55.05-1.12.07-1.69,0-.38,0-.77,0-1.16s0-.91,0-1.36A24.18,24.18,0,0,1,8.67,59c.13-.85,0-1.72.11-2.59s0-1.87,0-2.8a8.4,8.4,0,0,1,.09-2.74c-.48-.89.25-1.87-.2-2.77-.06-.12,0-.32.06-.49s.09-.3.05-.42a10,10,0,0,1-.16-2,18.61,18.61,0,0,1,0-2.89,9.25,9.25,0,0,0-.18-3.19c.37-.9,0-1.84.2-2.77A15.52,15.52,0,0,1,9,33.77s0,0,.05-.05a.41.41,0,0,0-.17-.5.81.81,0,0,0-.2-.61.7.7,0,0,0-.24-.22.24.24,0,0,1-.28,0,.39.39,0,0,1,.28,0h0a.43.43,0,0,0-.05-.65l-.17-.16c-.36-.35-.67-.7-.35-1.25.07-.12,0-.3,0-.45a36.33,36.33,0,0,1,0-4c.13-1,0-2,.09-3,.14-1.23,0-2.47.06-3.72.13-1.76-.11-3.54.07-5.32,0-.27-.24-.63-.14-.83.3-.53.06-1.06.06-1.57,0-1.8,0-3.61.07-5.42,0-.43,0-.87,0-1.31s0-1,0-1.44c0-.31.07-.65-.26-.88,0,0,0-.2,0-.31A1.41,1.41,0,0,0,7.34.45,4.39,4.39,0,0,0,5.7,0,7.5,7.5,0,0,0,3,.64,3.83,3.83,0,0,0,.68,4a23,23,0,0,1,0,2.35C.69,7,.53,7.72.49,8.42a17.07,17.07,0,0,0,0,1.89c0,.6.1,1.2.12,1.8,0,.3-.15.65,0,.89a2.89,2.89,0,0,1,.14,1.16c0,.48,0,1,0,1.44s0,1,0,1.43a11.63,11.63,0,0,1,0,1.32c0,.48.13,1,.16,1.45,0,.7.06,1.41,0,2.12s0,1.38.05,2.07,0,1.56.06,2.35c.06,1.49.15,3,.24,4.47a.47.47,0,0,0,0,.17.23.23,0,0,0-.1.05C.9,31.42-.2,32.69,0,33.5c.11.12.21.24.3.26a.48.48,0,0,0-.18.45,5.47,5.47,0,0,0,.7,2.6,2.15,2.15,0,0,1,.29,1.09c0,1,0,2.08,0,3.13C1,43.15,1.05,45.27,1,47.4c0,.41.18.84-.11,1.23,0,0,0,.13,0,.2a8.47,8.47,0,0,1,.1,2C1,51.3,1,51.75,1,52.21a14.34,14.34,0,0,0-.11,1.46c.05,3,.1,6,.19,9,0,1,.13,1.93.2,2.89,0,0,0,.12,0,.15.3.35.11.77.17,1.15s.13.81.17,1.22c.07.56.1,1.12.17,1.68-.24-.06-.33.27-.47.35-.55.32-1,.78-.6,1.54A.48.48,0,0,0,1,72a.72.72,0,0,1,.42,0L1.25,72A.35.35,0,0,1,1,72c-.23.09-.36.34-.34.72,0,.54.11,1.07.18,1.6,0,.11.09.27.18.3.74.25.74.92.74,1.49a53.07,53.07,0,0,1,0,5.78c-.15,1.45.14,2.93-.06,4.41-.14,1,.07,2-.09,3s0,1.82-.09,2.74c-.13,1.23,0,2.48-.06,3.73-.1,3.26.13,6.53.05,9.81s.09,6.71.19,10.07A7.22,7.22,0,0,0,1.91,117a2.33,2.33,0,0,1,.34,0,1.56,1.56,0,0,1,.19.42,1,1,0,0,1-.09.7c-.15.3-.3.6-.46.89a1.71,1.71,0,0,0-.29,1.29c.07.33,0,.5-.1.59a.47.47,0,0,1-.2.1.34.34,0,0,1-.22-.06c-.4.12-.81.47-.82.79A5.94,5.94,0,0,0,.55,124a26.29,26.29,0,0,1,.86,2.91,7.72,7.72,0,0,1,0,1.28,5.73,5.73,0,0,1,.15,1.22,8.83,8.83,0,0,0,.06,1.16,49.83,49.83,0,0,1-.19,5c-.1,1.23.06,2.48-.08,3.73-.06.54,0,1.11,0,1.66a59.27,59.27,0,0,1,0,6.53c0,.27.09.54.08.81,0,1-.11,1.91-.16,2.87a22.23,22.23,0,0,1-.07,3.05c-.12.69,0,1.42-.1,2.14s0,1.41-.1,2.13c-.12,1.06,0,2.13-.09,3.2a3.52,3.52,0,0,0,.17,2.05A2.35,2.35,0,0,0,1,165.11c0,.59.18.79.76,1a13.34,13.34,0,0,0,1.78.48,8,8,0,0,0,3.43.16,6.25,6.25,0,0,0,2.09-1.48.36.36,0,0,0,0-.22.74.74,0,0,1-.55-.22l.08-.05c.17-.1.31-.23.41,0a.64.64,0,0,1,.06.28.47.47,0,0,0,.17,0c.25,0,.32-.3.34-.54a12.28,12.28,0,0,0,.1-1.6,9.56,9.56,0,0,0-.19-2.82.77.77,0,0,1,0-.45c.33-.87-.08-1.81.24-2.68-.14-2.4,0-4.81-.27-7.21-.18-1.65-.1-3.33-.12-5,0-.23.19-.55.1-.68a1.13,1.13,0,0,1-.13-.79c0-.61.08-1.22.1-1.83,0-.45,0-.91,0-1.36l0-1.44c0-.45,0-.91,0-1.36a7.7,7.7,0,0,1,0-1.44,10.12,10.12,0,0,0,0-1.24c0-.61.08-1.22.11-1.83a20.59,20.59,0,0,1,.08-2.6,21.35,21.35,0,0,0,.12-2.66.88.88,0,0,1,0-.23,7.76,7.76,0,0,0,.25-2.15,2.3,2.3,0,0,1,0-.37c.13-.6.26-1.2.39-1.87a2.26,2.26,0,0,0-.18-.54.44.44,0,0,0-.34-.23.66.66,0,0,1-.24.11l.08-.06a.33.33,0,0,1,.16-.05.63.63,0,0,0,.26-.62.46.46,0,0,0-.12-.24l-.2.11,0-.16c.11,0,.18,0,.23,0A1.42,1.42,0,0,0,10.31,120.88ZM9.46,71.41c-.12.08-.36,0-.53-.1A1.22,1.22,0,0,1,9.46,71.41ZM1.59,3.6a5.43,5.43,0,0,1,0,.57c-.1-.06-.24-.19-.23-.26A.64.64,0,0,1,1.59,3.6Z"/><path id="fill1" d="M9.7,121.35a8,8,0,0,1,.07-1.62.72.72,0,0,0-.52-.79,1.82,1.82,0,0,1-.54-.34c-.23-.2-.55-.37-.22-.79.1-.12,0-.42-.05-.64s-.11-.18-.09-.26a12.54,12.54,0,0,0,0-1.94c.2-2.82-.08-5.64,0-8.45,0-1.1,0-2.19.07-3.27.08-.7,0-1.38.09-2.07.26-3.21-.13-6.42,0-9.63.05-1.47-.06-3,.08-4.41.1-1.13,0-2.24,0-3.35a22.66,22.66,0,0,1,.12-2.74c.1-.67,0-1.35.11-2a13.4,13.4,0,0,0,.07-2.53,9.21,9.21,0,0,0-.18-1.88A.86.86,0,0,1,8.83,74a5.1,5.1,0,0,0,.55-1.21.85.85,0,0,0-.07-.49c-.14-.36-.27-.39-.57-.19a6.92,6.92,0,0,1-2.17,1.17c-.44.1-.88.19-1.31.31a4.21,4.21,0,0,1-3-.54,6.53,6.53,0,0,0-1-.28c0,.32.05.65.12,1a1.13,1.13,0,0,0,.27.56A2.34,2.34,0,0,1,2.34,76c0,.31.1.63.11.94s-.07.55-.07.83c0,2.86.07,5.72,0,8.57a26.48,26.48,0,0,1-.09,2.82c-.12.87,0,1.74-.1,2.59s0,1.83-.07,2.74c-.25,3.4.13,6.78,0,10.17,0,1.19-.08,2.38,0,3.58a6.54,6.54,0,0,0,.14,1.45c.12.45-.13,1-.07,1.45.21,1.61.19,3.24.25,4.86,0,.36.12.71.15,1.07a.5.5,0,0,1-.14.38c-.16.1-.4.28-.46-.15s-.3-1.13-.31-1.69c-.1-3.36-.27-6.72-.19-10.07S1.32,99,1.42,95.76c0-1.24-.07-2.49.06-3.72.11-.92,0-1.85.1-2.74s-.05-2,.08-3c.2-1.48-.09-3,.06-4.41a55.72,55.72,0,0,0,0-5.78c0-.57,0-1.24-.75-1.49a.46.46,0,0,1-.18-.3c-.07-.53-.16-1.06-.18-1.6s.41-.94,1.06-.69a15.67,15.67,0,0,1,1.7.64,3.4,3.4,0,0,0,2.47.07,5.3,5.3,0,0,0,2.32-1.16,1.24,1.24,0,0,1,1.31-.2c.38.17.49.6.55,1a1.8,1.8,0,0,1-.22,1.15,2.77,2.77,0,0,0-.36,1.59c0,.84,0,1.67.05,2.5a14.18,14.18,0,0,1-.24,2.91.87.87,0,0,0,0,.23,44.39,44.39,0,0,1-.16,5.41,4.24,4.24,0,0,0,0,1,4.82,4.82,0,0,1,0,1.14c-.15,2.53,0,5.06,0,7.59,0,.43-.11.87-.11,1.3s.2.63.15.92c-.24,1.42.06,2.85-.08,4.26-.08.89,0,1.78-.08,2.66-.1,1.08,0,2.16-.09,3.23A12.69,12.69,0,0,0,9,110.5c.05.55,0,1.08,0,1.62s0,1.16,0,1.74a5,5,0,0,0-.09,1.37,9.07,9.07,0,0,1,.15,2.07c0,.15.19.44-.19.44,0,.07,0,.16,0,.2.22.19.46.35.68.55s.75.51.78,1a5.32,5.32,0,0,1-.1,1.38A1.65,1.65,0,0,1,9.7,121.35Zm-8-99.12c0,1.67.05,3.26.11,4.85,0,1.16.14,2.33.22,3.49,0,.16.13.31.16.46a.36.36,0,0,1-.3.44c-.22.06-.3-.06-.34-.25a3.17,3.17,0,0,1-.12-.41c-.09-1.49-.17-3-.24-4.48,0-.78,0-1.56-.06-2.34s-.06-1.38,0-2.07,0-1.42-.05-2.12c0-.49-.17-1-.16-1.45A11.63,11.63,0,0,0,.82,17c0-.47,0-1,0-1.43s0-1,0-1.44A2.89,2.89,0,0,0,.6,13c-.11-.24.05-.59,0-.89,0-.6-.09-1.2-.12-1.8a17.07,17.07,0,0,1,0-1.89c0-.7.21-1.39.24-2.08A23,23,0,0,0,.68,4,3.84,3.84,0,0,1,3,.64,7.4,7.4,0,0,1,5.7,0,4.39,4.39,0,0,1,7.34.45a1.41,1.41,0,0,1,.54,1.61c0,.11-.08.28,0,.31.33.23.25.57.26.88,0,.48,0,1,0,1.44s0,.88,0,1.31c-.08,1.81-.06,3.62-.08,5.42,0,.51.24,1-.05,1.57-.11.2.15.56.13.83-.18,1.77.06,3.56-.07,5.32C8,20.39,8.17,21.63,8,22.86c-.11,1,0,2-.09,3a36.33,36.33,0,0,0,0,4c0,.15.06.33,0,.44-.33.56,0,.91.34,1.26l.17.16a.43.43,0,0,1,.05.65c-.15.13-.37,0-.51-.19s-.45-.51-.65-.79A.61.61,0,0,1,7.17,31c0-.51-.16-1,.09-1.55.06-.12-.16-.36-.13-.52.18-1,0-2,.21-3a10.87,10.87,0,0,0,0-1.89c0-1.4-.06-2.8.09-4.18s-.06-2.95,0-4.41c.15-2,0-4.06,0-6.08s0-4,0-6A1.45,1.45,0,0,0,7.42,3l-.23.27A2.2,2.2,0,0,1,5.86,4a21.72,21.72,0,0,1-3.95.22c-.1,0-.22,0-.3,0S1.37,4,1.38,3.91s.15-.24.24-.34.1,0,.15,0c1-.07,2.56-.12,3.57-.21A1.84,1.84,0,0,0,7.08,2.29c.42-1,.23-1.27-.8-1.54-1.49-.39-2.68.34-3.93.88-.33.52-.79,1-.77,1.66a2.63,2.63,0,0,1-.25,1.78c-.1.15,0,.45,0,.67A6.13,6.13,0,0,1,1.09,7.6a1.81,1.81,0,0,0,0,.52c0,1.82,0,3.65.14,5.45s.05,3.36.26,5C1.64,19.78,1.58,21,1.67,22.23Zm.45,123.84a19.66,19.66,0,0,0-.08,3.5c-.05,1-.14,2-.21,2.93.31.31-.12.59,0,.93a3.67,3.67,0,0,1,0,1,23.12,23.12,0,0,1-.12,2.89c-.09.6,0,1.18-.09,1.76a40.56,40.56,0,0,0,0,5.17,1.5,1.5,0,0,1,0,.37c-.17.59-.18.61.31.8a6.1,6.1,0,0,0,1.79.44c.77.05,1.52.26,2.31.26s2-1.06,2.66-1.41c.18-.1.31-.23.42,0a.62.62,0,0,1,0,.5A6.25,6.25,0,0,1,7,166.73a7.81,7.81,0,0,1-3.43-.17,13.31,13.31,0,0,1-1.78-.47c-.58-.19-.76-.39-.76-1a2.35,2.35,0,0,1,.12-1.31A3.69,3.69,0,0,1,1,161.75c.11-1.07,0-2.14.09-3.2.08-.72,0-1.44.1-2.13s0-1.45.1-2.14a22.23,22.23,0,0,0,.07-3.05c.05-1,.12-1.91.16-2.87,0-.27-.11-.54-.08-.81a56.9,56.9,0,0,0,0-6.53c0-.55-.08-1.12,0-1.66.14-1.25,0-2.5.08-3.73a47.08,47.08,0,0,0,.19-5,8.83,8.83,0,0,1-.06-1.16,5.73,5.73,0,0,0-.15-1.22,7.72,7.72,0,0,0,0-1.28A26.29,26.29,0,0,0,.55,124a5.94,5.94,0,0,1-.29-2.24c0-.45.83-1,1.28-.83a9.18,9.18,0,0,1,1.4.46,6.91,6.91,0,0,0,3.29.63c.43,0,.87.21,1.31,0,.23-.12,1.8-.65,2-.78s.41.05.46.24a.66.66,0,0,1-.59.75c-1,0-3.21.67-4.16.56A9.15,9.15,0,0,1,2.35,122a5.73,5.73,0,0,0-.73-.26.52.52,0,0,0-.74.5,6.48,6.48,0,0,0,.22,1.51c.26.9.6,1.77.89,2.66A2.24,2.24,0,0,1,2,127a19.34,19.34,0,0,1,.11,2c0,.53.1,1,.1,1.56,0,.34,0,.68,0,1s-.11.72-.12,1.08a10.86,10.86,0,0,1,0,1.89c-.24,1.2,0,2.4-.15,3.61a6.7,6.7,0,0,0,0,1.68c.06.62,0,1.26,0,1.89l0,1.82,0,1.82ZM7.29,32.84c.25-.14.47-.23.66-.36a.46.46,0,0,1,.73.13c.28.38.27.68,0,.94s-.27.18-.42,0-.48-.17-.79,0a6.57,6.57,0,0,1-2.14.87c-.18,0-.37.1-.56.11-.58,0-1.16,0-1.74,0a4.17,4.17,0,0,1-1.71-.23c-.4-.15-.56,0-.45.46a2.12,2.12,0,0,1,.05.44,1.64,1.64,0,0,0,.52,1.15A2,2,0,0,1,2,37.72c0,.06,0,.13-.06.19l-.11-.1-.22-.21a1,1,0,0,0-.17-.1.75.75,0,0,0,0,.2,3.75,3.75,0,0,1,.15.55c0,1,.1,1.92,0,2.87-.11,2,0,4,0,6a11.79,11.79,0,0,1,0,2.14,9.55,9.55,0,0,0,0,1.51,12.56,12.56,0,0,1-.06,1.63,33.09,33.09,0,0,0-.05,4.34,4,4,0,0,1-.09,1.46c-.09.22.12.55.13.84,0,.9,0,1.81.07,2.72a23.31,23.31,0,0,0,.26,3.56c.2.94.24,1.9.45,2.84a11.48,11.48,0,0,1,.07,2.12c0,.26-.21.22-.3.18a.62.62,0,0,1-.3-.36c-.09-.68-.13-1.37-.21-2,0-.41-.11-.82-.17-1.22s.13-.8-.17-1.15c0,0,0-.1,0-.15-.07-1-.18-1.92-.2-2.89q-.12-4.5-.19-9A12,12,0,0,1,1,52.21a13.26,13.26,0,0,1,.08-1.39,8.41,8.41,0,0,0-.1-2c0-.07-.08-.17,0-.2.29-.39.1-.82.11-1.23,0-2.13-.06-4.26.06-6.37.06-1.05,0-2.09,0-3.13a2.15,2.15,0,0,0-.29-1.09,5.58,5.58,0,0,1-.7-2.6c0-.33.1-.52.46-.51,1.1,0,2.19.11,3.29.2a5.44,5.44,0,0,0,2-.37A8.11,8.11,0,0,0,7.29,32.84Zm3,90c-.13.67-.26,1.27-.39,1.87a2.3,2.3,0,0,0,0,.37,7.4,7.4,0,0,1-.25,2.15.88.88,0,0,0,0,.23,21.35,21.35,0,0,1-.12,2.66,20.59,20.59,0,0,0-.08,2.6c0,.61-.08,1.22-.11,1.83a10.12,10.12,0,0,1,0,1.24,7.7,7.7,0,0,0,0,1.44l0,1.36,0,1.44c0,.45,0,.91,0,1.36,0,.61-.09,1.22-.1,1.83a1.13,1.13,0,0,0,.13.79c.09.13-.11.45-.1.68,0,1.66-.06,3.34.12,5,.27,2.4.14,4.81.28,7.21-.33.87.08,1.81-.25,2.68a.86.86,0,0,0,0,.45,9.92,9.92,0,0,1,.2,2.82,14.33,14.33,0,0,1-.11,1.6c0,.24-.09.49-.34.54a.77.77,0,0,1-.83-.33c-.14-.22.08-.35.28-.4s.28,0,.28-.22c0-.85.08-1.7.09-2.54,0-1-.08-2,0-3,.19-5.77-.25-11.53-.19-17.3,0-3.07-.08-6.14,0-9.21,0-.93,0-1.88.09-2.81.09-1.1.13-2.2.22-3.29.08-.93.26-1.85.39-2.78,0-.17.06-.41,0-.51-.24-.26.05-.48.1-.51a.36.36,0,0,1,.5.18A1.89,1.89,0,0,1,10.28,122.87ZM8,60.68a20.82,20.82,0,0,1,.12-2.89,24,24,0,0,0,.06-3c0-.3,0-.61,0-.91C8.23,48,8,42.26,8,36.48a8.12,8.12,0,0,1,.45-3c.1-.18.16-.37.4-.28a.4.4,0,0,1,.25.54s0,0-.05.05a15.52,15.52,0,0,0-.35,2.54c-.24.93.17,1.87-.2,2.77a9,9,0,0,1,.18,3.19,19.92,19.92,0,0,0,0,2.89,11.61,11.61,0,0,0,.16,2c0,.12,0,.28-.05.42s-.12.37-.06.49c.46.9-.28,1.88.2,2.77a8.4,8.4,0,0,0-.09,2.74c0,.93.12,1.88,0,2.8s0,1.74-.1,2.59a20.46,20.46,0,0,0-.06,2.82c0,.45,0,.91,0,1.36s0,.78,0,1.16c0,.57-.07,1.14-.07,1.69a22.08,22.08,0,0,0,0,3.15,1.44,1.44,0,0,0,.51,1.15c.13.09.18.33.27.49s.31.37.07.57-.59-.05-.71-.24-.34-.51-.5-.78A2.11,2.11,0,0,1,8,69a1.76,1.76,0,0,0,0-.23C8,66.11,8,63.43,8,60.68ZM5.54,30.81c.11.05.11.48.31.13s0-.73,0-1.09S5.62,29,6,28.91s.26.57.39.86A3,3,0,0,1,6.45,31a.76.76,0,0,1-.75.68.71.71,0,0,1-.77-.67c-.15-1-.39-1.9-.48-2.86a3.88,3.88,0,0,1,.06-1.69,5.38,5.38,0,0,0,0-1.5q0-1.63.09-3.27c0-.46.07-.91.11-1.37,0-.05,0-.12,0-.15s.24-.3.37-.45c.07.17.25.38.21.51-.3,1,0,2-.19,3a15.5,15.5,0,0,0,0,2.26,18,18,0,0,0,.09,2.85,7.52,7.52,0,0,0,.32,2A1.51,1.51,0,0,1,5.54,30.81Zm.3,84.38c.06-1.14,0-2.24.15-3.33.09-.67,0-1.32.09-2,.1-1.25.24-2.5.37-3.76,0-.05.07-.1.11-.15s.19.11.18.15a8.52,8.52,0,0,1-.08,2.52,1.57,1.57,0,0,0,0,.53,11.47,11.47,0,0,1-.23,3.2.75.75,0,0,0,0,.15c0,1.32-.07,2.64-.06,4a12.24,12.24,0,0,0,.18,1.6c0,.06.11.11.17.17s.11-.09.12-.14a7,7,0,0,0,.42-2.17,12.69,12.69,0,0,1,.13-1.37c0-.1.14-.18.22-.27a.89.89,0,0,1,.07.28,15.3,15.3,0,0,1-.37,3.75s0,.05,0,.07c-.16.32-.26.77-.69.74s-.42-.47-.54-.8a5.6,5.6,0,0,1-.17-1.46c0-.46-.12-.91-.17-1.37A.65.65,0,0,1,5.84,115.19ZM3.41,70.69c0-.3,0-.72.1-.73.39,0,.28.37.42.57a1.89,1.89,0,0,1,.11.25s.1.06.13,0a.24.24,0,0,0,.14-.12.41.41,0,0,0,0-.22A8.47,8.47,0,0,1,4.11,68C4,66.3,4,64.63,3.82,63c-.1-.84-.11-1.67-.17-2.51a.92.92,0,0,1,0-.37,1.52,1.52,0,0,1,.26-.32,1.72,1.72,0,0,1,.33.33c0,.1,0,.25,0,.38,0,.6,0,1.21,0,1.81s.11,1.37.19,2.05a6.06,6.06,0,0,0,.17,2c-.27.42,0,.81,0,1.23.12,1,.17,2,.22,3a.78.78,0,0,1-.42.84C3.85,71.71,3.57,71.53,3.41,70.69ZM2.25,117.06a1.07,1.07,0,0,1,.1,1.12c-.15.3-.3.6-.46.89a1.71,1.71,0,0,0-.29,1.29c.11.55-.14.64-.3.69s-.35-.11-.44-.32a2.44,2.44,0,0,1,0-1.82,12,12,0,0,1,.9-1.79C1.82,117,2,117,2.25,117.06ZM.71,71.65c-.36-.76.05-1.22.6-1.54.17-.1.26-.56.65-.25s.37.36.13.58a2.7,2.7,0,0,0-.55.45c-.12.15-.25.46-.17.57.19.28.17.48-.11.58S.77,72,.71,71.65ZM0,33.5C-.2,32.69.91,31.42,1.34,31c.12-.11.4,0,.6,0,0,.2,0,.52-.15.59C1.39,31.81.55,33,.63,33.45a.43.43,0,0,1-.23.32C.29,33.79.16,33.64,0,33.5Z"/></g></g></svg>