<svg xmlns="http://www.w3.org/2000/svg" viewBox="0 0 9.4 215.19"><defs><style>.cls-1{fill:#fff;}.cls-2{fill:#93c64a;}</style></defs><title>bamboo-35cm</title><g id="Layer_2" data-name="Layer 2"><g id="bamboo_35cm_" data-name="bamboo (35cm)"><path id="void" class="cls-1" d="M9.29,38.19c-.26-.31-.52-2-1-2.25s-.48-1.06-.57-1.61c-.19-1.15-.2-2.33-.29-3.59a31.37,31.37,0,0,0-.25-4.28,14.31,14.31,0,0,1-.06-2c0-.65,0-1.31,0-2s0-1.31,0-2,0-1.31-.05-2,0-1.31,0-2a16.09,16.09,0,0,1,0-2c.06-.62-.08-1.22-.06-1.83a2.9,2.9,0,0,1,0-.51,4.93,4.93,0,0,0-.07-2.77c0-.09,0-.21,0-.32a4,4,0,0,0,.08-1c-.05-.39-.25-.71-.09-1.17s-.09-.84-.11-1.26c0-.69,0-1.37-.06-2a15.39,15.39,0,0,0,0-1.92,1.29,1.29,0,0,0-.73-1C5.55.65,5.13.48,4.73.29a2.7,2.7,0,0,0-2.34,0,2,2,0,0,0-1,1.46c0,1.09,0,2.17-.06,3.26-.14,1.56.09,3.14-.08,4.72a16.62,16.62,0,0,0,.05,2.73c0,.86-.07,1.72,0,2.59a16.92,16.92,0,0,1-.09,2.24c0,.54,0,1.08,0,1.62s0,1.08,0,1.62a8.84,8.84,0,0,0,.06,1.71c.12.51-.08,1,0,1.48s.07,1,.18,1.47a8.07,8.07,0,0,1-.09,1.46c0,.84.14,1.66.22,2.49a1,1,0,0,0,0,.17c.12.6.29,1.21.35,1.82.12,1.28.18,2.57.28,3.85a1.66,1.66,0,0,0,.11.38,5.09,5.09,0,0,1-.21,2.38c-.1.08-.43.8-.52.91s-.32.33,0,.47a.71.71,0,0,0,.26.06.87.87,0,0,1,.47-.25.47.47,0,0,1-.16.2.5.5,0,0,1-.31,0,.86.86,0,0,0-.24.82,5.19,5.19,0,0,1,.25,1.27c0,2.58.25,5.15,0,7.73-.15,1.88.26,3.77,0,5.65,0,.29.22.6,0,.93s.35.75,0,1.12c.33.64.06,1.34.18,2A14.2,14.2,0,0,1,2,60.82c0,3.43.23,6.86.07,10.29C2,73,2,74.94,2.05,76.85c0,.31.23.67.15.94a10,10,0,0,0-.07,2.67.61.61,0,0,0,.14.31.91.91,0,0,0-.16.11A5.16,5.16,0,0,0,1.82,82c0,.31-.16.4-.38.55s-.67.41-.31.93c.23.33,0,.58-.42.78A1.15,1.15,0,0,0,0,85.32a1.62,1.62,0,0,0,.69,1.33,1.12,1.12,0,0,1,.4,1c0,1.48.11,3,0,4.46C.88,93.8,1,95.55,1,97.3a58.5,58.5,0,0,0,.32,9,12.47,12.47,0,0,1,0,1.37l0,1.45,0,1.37c0,.48,0,1,0,1.45s0,.81.05,1.22c0,.6.16,1.2.19,1.81.07,1.58.12,3.16.26,4.74.2,2.24.25,4.5.35,6.75,0,.6,0,1.2,0,1.79A5.12,5.12,0,0,1,2.42,130c-.08.24-.06.46-.37.56-.79.24-.92.86-.78,1.56a.75.75,0,0,1,.65-.2,1.24,1.24,0,0,0,0,.18c.05.26-.09.49-.32.48s-.32-.27-.35-.44v0a.46.46,0,0,0-.13.2,4.78,4.78,0,0,0-.35,1.21,2.17,2.17,0,0,0,.08,1.25,8.14,8.14,0,0,1,.74,1.75,11.4,11.4,0,0,1,.68,3.75c0,.57-.11,1.15-.12,1.72,0,1.41.07,2.8,0,4.21s-.07,3.08-.09,4.63A.49.49,0,0,1,2,151c-.38,1,0,2.08-.23,3.12a6,6,0,0,0,0,1.47c0,.57.05,1.14,0,1.71a6.79,6.79,0,0,1-.1,1.48,6.27,6.27,0,0,0,0,1.78c0,.35.24.73.15,1a5.81,5.81,0,0,0-.09,2c0,.37.16.75.18,1.12.07,2.59.11,5.18.19,7.77a1.49,1.49,0,0,1-.45,1.19,5.51,5.51,0,0,0-.41.43c-.44.56-.38.83.18,1.29a4.82,4.82,0,0,1,.58.69c-.26,0-.53.1-.79.12s-.58.06-.55.37a6.3,6.3,0,0,0,.19,2.15c.39.89.65,1.84,1,2.75a13.27,13.27,0,0,1,.69,3.94c.1,1.33,0,2.66-.05,4-.08,3.34.27,6.67.07,10-.12,1.95.11,3.9-.06,5.86-.08.94,0,1.89-.06,2.84a11.07,11.07,0,0,0,.2,3.93.93.93,0,0,1,0,.33,7.42,7.42,0,0,0-.1,1.14,1,1,0,0,0,.62.94,6.28,6.28,0,0,0,3.5.77c.21,0,.42-.23.62-.36a2.32,2.32,0,0,0,.71-1.33,5.88,5.88,0,0,0,.25-2.85,6.08,6.08,0,0,1-.15-.87c0-1.16-.06-2.33-.08-3.5a2.16,2.16,0,0,0,0-.51,10.49,10.49,0,0,1-.41-3.1c0-1.71-.07-3.41-.12-5.12a3.79,3.79,0,0,0-.2-1.73.93.93,0,0,1,0-.5c0-.35.11-.7.14-1.05.09-1.2-.17-2.4-.1-3.61.11-2-.24-4,0-6,.11-.82,0-1.68.15-2.49A7,7,0,0,1,8,180a2.55,2.55,0,0,0,.31-1.23,10,10,0,0,1,.42-3.22,1.72,1.72,0,0,0-.39-1.71,1.86,1.86,0,0,1-.51-1.5c.05-.41.06-.83.07-1.24s0-.8,0-1.2c.07-1.42-.06-2.85.09-4.29s-.07-2.73,0-4.12.17-3,.25-4.47.09-2.82.08-4.23c0-5.3-.1-10.6-.17-15.91,0-.31,0-.62,0-.93s.09-.42.11-.63c.08-.93.55-1.83.14-2.77a1,1,0,0,0-.19-.27.42.42,0,0,0,.47-.18,1.14,1.14,0,0,0,.07-1.23A14.33,14.33,0,0,1,8,129.36c0-.84,0-1.58.08-2.33.14-1.63.08-3.28.09-4.91,0-.26-.25-.6-.16-.77.33-.62.07-1.25.08-1.86.06-3.25-.12-6.5-.08-9.75a88.1,88.1,0,0,0-.32-10.27c-.17-1.66,0-3.36,0-5s-.06-3.3-.11-5A2.37,2.37,0,0,1,8,87.86a3.51,3.51,0,0,0,.82-1.74,6.89,6.89,0,0,0,.07-1.64H9a2.55,2.55,0,0,0-.08-.64c.09,0,.16,0,.18-.24a2.5,2.5,0,0,0-.71-2,1.74,1.74,0,0,1-.56-1.71A23.75,23.75,0,0,0,8,77.14c.08-1.84-.06-3.7-.08-5.55,0-.37.23-.81.1-1.11A2.77,2.77,0,0,1,7.91,69c0-.48.06-1,.07-1.44s0-1,0-1.45,0-1,0-1.54a14,14,0,0,1,0-1.45c0-.47-.06-.93,0-1.48a6.87,6.87,0,0,0,0-1.82,1.06,1.06,0,0,1,0-.5,14.8,14.8,0,0,0,.08-3.19c-.48-.5.13-1.14-.21-1.66a5.46,5.46,0,0,0,.1-2.24c0-.43-.17-.86-.17-1.29,0-1,.07-1.91.09-2.87,0-1.46,0-2.91.09-4.37a5.27,5.27,0,0,1,.38-1.54c.13-.37.42-.68.56-1a16.87,16.87,0,0,0,.5-2,.33.33,0,0,0,0-.14.82.82,0,0,0,0-.31.46.46,0,0,0,.07-.07A.28.28,0,0,0,9.29,38.19ZM6.38,2.85,6.14,3V3a3.11,3.11,0,0,0,0-.43C6.21,2.65,6.29,2.76,6.38,2.85ZM8.21,132.19a0,0,0,0,1,0,0,.38.38,0,0,1-.09.12,2.32,2.32,0,0,1-.31.19s0,0,0,0a1.33,1.33,0,0,1,.25-.35c-.18-.13-.16-.23-.09-.34a.42.42,0,0,1,.26.2A.26.26,0,0,1,8.21,132.19Z"/><path id="fill2" class="cls-2" d="M9.29,38.19c-.26-.31-.52-2-1-2.25s-.48-1.06-.57-1.61c-.19-1.15-.2-2.33-.29-3.59a31.37,31.37,0,0,0-.25-4.28,14.31,14.31,0,0,1-.06-2c0-.65,0-1.31,0-2s0-1.31,0-2,0-1.31-.05-2,0-1.31,0-2a16.09,16.09,0,0,1,0-2c.06-.62-.08-1.22-.06-1.83a2.9,2.9,0,0,1,0-.51,4.93,4.93,0,0,0-.07-2.77c0-.09,0-.21,0-.32a4,4,0,0,0,.08-1c-.05-.39-.25-.71-.09-1.17s-.09-.84-.11-1.26c0-.69,0-1.37-.06-2a15.39,15.39,0,0,0,0-1.92,1.29,1.29,0,0,0-.73-1C5.55.65,5.13.48,4.73.29a2.7,2.7,0,0,0-2.34,0,2,2,0,0,0-1,1.46c0,1.09,0,2.17-.06,3.26-.14,1.56.09,3.14-.08,4.72a16.62,16.62,0,0,0,.05,2.73c0,.86-.07,1.72,0,2.59a16.92,16.92,0,0,1-.09,2.24c0,.54,0,1.08,0,1.62s0,1.08,0,1.62a8.84,8.84,0,0,0,.06,1.71c.12.51-.08,1,0,1.48s.07,1,.18,1.47a8.07,8.07,0,0,1-.09,1.46c0,.84.14,1.66.22,2.49a1,1,0,0,0,0,.17c.12.6.29,1.21.35,1.82.12,1.28.18,2.57.28,3.85a1.66,1.66,0,0,0,.11.38,5.09,5.09,0,0,1-.21,2.38c-.1.08-.43.8-.52.91s-.32.33,0,.47a.71.71,0,0,0,.26.06.87.87,0,0,1,.47-.25.47.47,0,0,1-.16.2.5.5,0,0,1-.31,0,.86.86,0,0,0-.24.82,5.19,5.19,0,0,1,.25,1.27c0,2.58.25,5.15,0,7.73-.15,1.88.26,3.77,0,5.65,0,.29.22.6,0,.93s.35.75,0,1.12c.33.64.06,1.34.18,2A14.2,14.2,0,0,1,2,60.82c0,3.43.23,6.86.07,10.29C2,73,2,74.94,2.05,76.85c0,.31.23.67.15.94a10,10,0,0,0-.07,2.67.61.61,0,0,0,.14.31.91.91,0,0,0-.16.11A5.16,5.16,0,0,0,1.82,82c0,.31-.16.4-.38.55s-.67.41-.31.93c.23.33,0,.58-.42.78A1.15,1.15,0,0,0,0,85.32a1.62,1.62,0,0,0,.69,1.33,1.12,1.12,0,0,1,.4,1c0,1.48.11,3,0,4.46C.88,93.8,1,95.55,1,97.3a58.5,58.5,0,0,0,.32,9,12.47,12.47,0,0,1,0,1.37l0,1.45,0,1.37c0,.48,0,1,0,1.45s0,.81.05,1.22c0,.6.16,1.2.19,1.81.07,1.58.12,3.16.26,4.74.2,2.24.25,4.5.35,6.75,0,.6,0,1.2,0,1.79A5.12,5.12,0,0,1,2.42,130c-.08.24-.06.46-.37.56-.79.24-.92.86-.78,1.56a.75.75,0,0,1,.65-.2,1.24,1.24,0,0,0,0,.18c.05.26-.09.49-.32.48s-.32-.27-.35-.44v0a.46.46,0,0,0-.13.2,4.78,4.78,0,0,0-.35,1.21,2.17,2.17,0,0,0,.08,1.25,8.14,8.14,0,0,1,.74,1.75,11.4,11.4,0,0,1,.68,3.75c0,.57-.11,1.15-.12,1.72,0,1.41.07,2.8,0,4.21s-.07,3.08-.09,4.63A.49.49,0,0,1,2,151c-.38,1,0,2.08-.23,3.12a6,6,0,0,0,0,1.47c0,.57.05,1.14,0,1.71a6.79,6.79,0,0,1-.1,1.48,6.27,6.27,0,0,0,0,1.78c0,.35.24.73.15,1a5.81,5.81,0,0,0-.09,2c0,.37.16.75.18,1.12.07,2.59.11,5.18.19,7.77a1.49,1.49,0,0,1-.45,1.19,5.51,5.51,0,0,0-.41.43c-.44.56-.38.83.18,1.29a4.82,4.82,0,0,1,.58.69c-.26,0-.53.1-.79.12s-.58.06-.55.37a6.3,6.3,0,0,0,.19,2.15c.39.89.65,1.84,1,2.75a13.27,13.27,0,0,1,.69,3.94c.1,1.33,0,2.66-.05,4-.08,3.34.27,6.67.07,10-.12,1.95.11,3.9-.06,5.86-.08.94,0,1.89-.06,2.84a11.07,11.07,0,0,0,.2,3.93.93.93,0,0,1,0,.33,7.42,7.42,0,0,0-.1,1.14,1,1,0,0,0,.62.94,6.28,6.28,0,0,0,3.5.77c.21,0,.42-.23.62-.36a2.32,2.32,0,0,0,.71-1.33,5.88,5.88,0,0,0,.25-2.85,6.08,6.08,0,0,1-.15-.87c0-1.16-.06-2.33-.08-3.5a2.16,2.16,0,0,0,0-.51,10.49,10.49,0,0,1-.41-3.1c0-1.71-.07-3.41-.12-5.12a3.79,3.79,0,0,0-.2-1.73.93.93,0,0,1,0-.5c0-.35.11-.7.14-1.05.09-1.2-.17-2.4-.1-3.61.11-2-.24-4,0-6,.11-.82,0-1.68.15-2.49A7,7,0,0,1,8,180a2.55,2.55,0,0,0,.31-1.23,10,10,0,0,1,.42-3.22,1.72,1.72,0,0,0-.39-1.71,1.86,1.86,0,0,1-.51-1.5c.05-.41.06-.83.07-1.24s0-.8,0-1.2c.07-1.42-.06-2.85.09-4.29s-.07-2.73,0-4.12.17-3,.25-4.47.09-2.82.08-4.23c0-5.3-.1-10.6-.17-15.91,0-.31,0-.62,0-.93s.09-.42.11-.63c.08-.93.55-1.83.14-2.77a1,1,0,0,0-.19-.27.42.42,0,0,0,.47-.18,1.14,1.14,0,0,0,.07-1.23A14.33,14.33,0,0,1,8,129.36c0-.84,0-1.58.08-2.33.14-1.63.08-3.28.09-4.91,0-.26-.25-.6-.16-.77.33-.62.07-1.25.08-1.86.06-3.25-.12-6.5-.08-9.75a88.1,88.1,0,0,0-.32-10.27c-.17-1.66,0-3.36,0-5s-.06-3.3-.11-5A2.37,2.37,0,0,1,8,87.86a3.51,3.51,0,0,0,.82-1.74,6.89,6.89,0,0,0,.07-1.64H9a2.55,2.55,0,0,0-.08-.64c.09,0,.16,0,.18-.24a2.5,2.5,0,0,0-.71-2,1.74,1.74,0,0,1-.56-1.71A23.75,23.75,0,0,0,8,77.14c.08-1.84-.06-3.7-.08-5.55,0-.37.23-.81.1-1.11A2.77,2.77,0,0,1,7.91,69c0-.48.06-1,.07-1.44s0-1,0-1.45,0-1,0-1.54a14,14,0,0,1,0-1.45c0-.47-.06-.93,0-1.48a6.87,6.87,0,0,0,0-1.82,1.06,1.06,0,0,1,0-.5,14.8,14.8,0,0,0,.08-3.19c-.48-.5.13-1.14-.21-1.66a5.46,5.46,0,0,0,.1-2.24c0-.43-.17-.86-.17-1.29,0-1,.07-1.91.09-2.87,0-1.46,0-2.91.09-4.37a5.27,5.27,0,0,1,.38-1.54c.13-.37.42-.68.56-1a16.87,16.87,0,0,0,.5-2,.33.33,0,0,0,0-.14.82.82,0,0,0,0-.31.46.46,0,0,0,.07-.07A.28.28,0,0,0,9.29,38.19ZM6.38,2.85,6.14,3V3a3.11,3.11,0,0,0,0-.43C6.21,2.65,6.29,2.76,6.38,2.85ZM8.21,132.19a0,0,0,0,1,0,0,.38.38,0,0,1-.09.12,2.32,2.32,0,0,1-.31.19s0,0,0,0a1.33,1.33,0,0,1,.25-.35c-.18-.13-.16-.23-.09-.34a.42.42,0,0,1,.26.2A.26.26,0,0,1,8.21,132.19Z"/><path id="fill1" d="M2.43,153.24c0,1.28.15,2.48.06,3.67-.15,2-.05,4.06,0,6.08,0,1.17.19,2.34.23,3.51a15.11,15.11,0,0,1,.09,1.66,12.47,12.47,0,0,0,0,1.73,15.45,15.45,0,0,1,0,1.8c0,.44.22.84.07,1.32a3.41,3.41,0,0,1-.63,1.28c-.25.28-.38.43.07.74s.4.78.61,1.17a.91.91,0,0,0,.4.42,6.77,6.77,0,0,0,1.68.46,6.47,6.47,0,0,0,1.62-.2c.15,0,.29-.13.45-.16a.79.79,0,0,0,.77-.81s0,0-.06-.06c-.19-.47.46-.84.21-1.27s-.57-.6-.72-1.07a8.73,8.73,0,0,1-.16-2.83c0-.29.09-.64.09-1,0-1.49,0-3,.11-4.46,0-.4-.07-.76-.06-1.14,0-1.4,0-2.81.1-4.2.15-1.58.14-3.16.25-4.74.09-1.41-.09-2.81.06-4.2.21-1.84,0-3.66,0-5.49,0-.66.11-1.32.11-2,0-.38.12-.78-.17-1.13-.06-.06,0-.23,0-.33a11.9,11.9,0,0,0,0-4,24,24,0,0,1-.17-2.4,5,5,0,0,1,.31-1.57,1.74,1.74,0,0,0,0-1.19.8.8,0,0,1-.06-.45,1.64,1.64,0,0,1,.31-.41,2.18,2.18,0,0,1,.32.43c.42.94-.06,1.84-.14,2.76,0,.21-.1.42-.11.63s0,.63,0,.94c.07,5.3.17,10.6.18,15.9,0,1.41,0,2.83-.08,4.24s-.13,3-.26,4.47.09,2.76,0,4.12,0,2.86-.08,4.29c0,.4,0,.8,0,1.2s0,.83-.06,1.24a1.83,1.83,0,0,0,.51,1.5,1.73,1.73,0,0,1,.39,1.7,9.84,9.84,0,0,0-.43,3.23A2.38,2.38,0,0,1,8,180a7.39,7.39,0,0,0-.42,2.21c-.15.81,0,1.67-.15,2.49-.28,2,.07,4,0,6-.07,1.22.19,2.41.1,3.62,0,.35-.1.7-.14,1.05a.94.94,0,0,0,0,.5,3.92,3.92,0,0,1,.19,1.73c.06,1.7.1,3.41.12,5.12a11.19,11.19,0,0,0,.41,3.1,1.72,1.72,0,0,1,0,.51c0,1.17,0,2.33.09,3.5a6.31,6.31,0,0,0,.14.87,5.76,5.76,0,0,1-.25,2.85,2.27,2.27,0,0,1-.71,1.33c-.2.13-.4.34-.61.35a6.22,6.22,0,0,1-3.51-.76,1,1,0,0,1-.61-.94,7.3,7.3,0,0,1,.09-1.14,1,1,0,0,0,0-.33,10.9,10.9,0,0,1-.21-3.94c0-.95,0-1.89.06-2.84.17-1.95-.06-3.91.06-5.85.2-3.34-.15-6.68-.07-10,0-1.33.15-2.65.05-4A13.39,13.39,0,0,0,2,181.43c-.35-.9-.61-1.85-1-2.74a6.35,6.35,0,0,1-.2-2.16c0-.3.27-.35.55-.37a7.32,7.32,0,0,0,.8-.11,3.92,3.92,0,0,0-.58-.69c-.57-.47-.63-.74-.19-1.29a3.42,3.42,0,0,1,.42-.43,1.48,1.48,0,0,0,.44-1.19c-.07-2.59-.12-5.18-.19-7.77,0-.38-.18-.75-.18-1.12a6.07,6.07,0,0,1,.09-2c.1-.3-.12-.69-.15-1a6.2,6.2,0,0,1,0-1.77,6.22,6.22,0,0,0,.1-1.48c0-.57,0-1.14,0-1.71a5.56,5.56,0,0,1,0-1.47c.25-1-.14-2.11.23-3.13,0,0,0-.11,0-.17,0-1.54,0-3.09.09-4.62s0-2.81,0-4.21c0-.57.11-1.15.12-1.73a11.5,11.5,0,0,0-.68-3.75,7.41,7.41,0,0,0-.74-1.75,2.13,2.13,0,0,1-.08-1.24,4.66,4.66,0,0,1,.35-1.21c.17-.41.64-.51,1.16-.32l2.23.8a.85.85,0,0,0,.82-.14c.53-.31,1.24-.32,1.7-.75a2.19,2.19,0,0,1,.86-.1.45.45,0,0,1,.33.22.41.41,0,0,1-.12.34,10,10,0,0,1-2.51,1,2.62,2.62,0,0,1-2.73-.45.55.55,0,0,0-.29-.13,4.83,4.83,0,0,0-.76,0c-.47,0-.08.42-.2.6a1.49,1.49,0,0,0,.06,1.56,12.31,12.31,0,0,1,.89,2.88,33.1,33.1,0,0,1,.28,6.67,20.73,20.73,0,0,1-.08,2.84c-.12.89,0,1.8-.12,2.66-.18,1.07,0,2.15-.23,3.29m.73,54.25c0,1.85.09,3.7.12,5.55a.9.9,0,0,0,.56,1,6,6,0,0,0,2.83.33.67.67,0,0,0,.39-.34,4.69,4.69,0,0,0,.64-2.54,54.19,54.19,0,0,0-.48-7.2c-.2-1.15-.07-2.34-.27-3.51a15.07,15.07,0,0,1-.06-2.13l0-2,0-2.13,0-2,0-2.14c0-.68-.07-1.36,0-2s0-1.33,0-2,.09-1.26.12-1.9a12.08,12.08,0,0,1,.1-2.24,30.87,30.87,0,0,1,.7-3.28A2,2,0,0,0,7.6,178c0-.43-.3-.61-.66-.38a2,2,0,0,1-1.51.27c-.73-.11-1.42-.41-2.15-.55-.5-.1-.91-.48-1.47-.38-.26,0-.43,0-.37.37a8.7,8.7,0,0,0,.22,1.37A23.66,23.66,0,0,1,2.51,181a9.3,9.3,0,0,1,.63,2.91,6,6,0,0,0,0,1.2,3.24,3.24,0,0,0,.14,1.22c.13.3-.1.74-.09,1.11,0,2.56.08,5.12.2,7.68,0,.39-.29.72,0,1.16s0,.82,0,1.24.11.84.08,1.25c0,.64-.26,1.27-.27,1.91C3.15,202.87,3.16,205.1,3.16,207.49ZM7.48,30.74c.08,1.25.1,2.43.28,3.59.09.55,0,1.3.58,1.61.43.24.69,1.94,1,2.25a.29.29,0,0,1,0,.45c-.22.24-.38.29-.6,0s-.61-1.92-.89-2.18a2.29,2.29,0,0,1-.71-1.58c-.14-2.43-.23-4.85-.35-7.27a8.07,8.07,0,0,0-.19-2.07,2,2,0,0,1,0-1.4c.24-.46-.38-.78,0-1.23a1.22,1.22,0,0,0,0-1.07,3.28,3.28,0,0,1-.15-1.34,52.91,52.91,0,0,1-.13-5.63C6.49,10.91,6.15,7,6.15,3A5.79,5.79,0,0,0,5.94,1.7a.64.64,0,0,0-.33-.32C5,1.1,4.42.83,3.81.59a2.12,2.12,0,0,0-1.55.54c-.06.13-.08.38,0,.45a2.83,2.83,0,0,0,1,.68c.64.19,1.91.05,2.58.16a.53.53,0,0,1,.28.14,2.5,2.5,0,0,1,.27.29c-.14.08-.28.23-.41.23-1.12,0-2.82.14-3.73-.66C2,2.24,2,2.44,2,2.51a2.69,2.69,0,0,0-.06.57,9.25,9.25,0,0,1-.1,1.65,4.65,4.65,0,0,0,.08,1.52,2.58,2.58,0,0,1,.09.9,14.44,14.44,0,0,0-.09,3c0,.46.17.95-.13,1.39a.22.22,0,0,0,0,.16c.41.92-.07,1.84.05,2.77a26.3,26.3,0,0,1,.08,2.81c0,.65-.09,1.31,0,1.95a4,4,0,0,1,0,2c.39,2.15.12,4.34.31,6.49.12,1.3.39,2.59.59,3.88a1.93,1.93,0,0,1,0,.34,20.79,20.79,0,0,0,.41,3.61,7.2,7.2,0,0,1,0,1.54.73.73,0,0,1-.21.42c-.3.28-.42,1.4-.77,1.62a.65.65,0,0,1-.56,0c-.29-.14-.09-.32,0-.46s.42-.83.53-.92a5.05,5.05,0,0,0,.2-2.37,1.82,1.82,0,0,1-.11-.38c-.09-1.29-.15-2.57-.28-3.85a16.4,16.4,0,0,0-.35-1.83.88.88,0,0,1,0-.16c-.08-.83-.19-1.66-.22-2.49a9.19,9.19,0,0,0,.1-1.46c-.11-.49-.12-1-.19-1.47a14.81,14.81,0,0,0,0-1.49,8.71,8.71,0,0,1-.06-1.7l0-1.62c0-.54,0-1.08,0-1.62A16.92,16.92,0,0,0,1.28,15c-.1-.87,0-1.73,0-2.59A19.2,19.2,0,0,1,1.2,9.69c.17-1.58-.06-3.16.08-4.72.1-1.1,0-2.18.06-3.27A2,2,0,0,1,2.4.25a2.68,2.68,0,0,1,2.33,0c.41.19.82.35,1.21.57a1.32,1.32,0,0,1,.74,1,17.38,17.38,0,0,1,0,1.91c0,.69,0,1.37.06,2.05,0,.43.24.9.12,1.27A2.09,2.09,0,0,0,7,8.28a4.61,4.61,0,0,1-.09,1,.91.91,0,0,0,0,.32,5,5,0,0,1,.06,2.77,2.9,2.9,0,0,0,0,.51c0,.61.12,1.2.06,1.82s0,1.31,0,2l0,2,0,2,0,2,0,2a14.17,14.17,0,0,0,.06,2A33.29,33.29,0,0,1,7.48,30.74ZM6.61,84.22a8.52,8.52,0,0,1,1.48-.53c.23-.08.61-.12.73,0s.13.51.16.78c0,0-.8.09-.9.09a2.14,2.14,0,0,0-1.16.34,2.83,2.83,0,0,1-1.18.23,7.05,7.05,0,0,1-3.4-.39c-.41-.18-1.43,0-1.47.27a1.25,1.25,0,0,0,.58,1.2.77.77,0,0,1,.31.73c-.08.94,0,1.89,0,2.83a24,24,0,0,0,0,2.94,15.65,15.65,0,0,1,.07,3,78.57,78.57,0,0,0,.13,10.18c.15,2.78.08,5.57.35,8.33.18,1.89,0,3.8.29,5.67.27,2,.1,4.06.32,6.08.09.88.06,1.79.23,2.65a4,4,0,0,1,0,1.66c-.08.42-.09.84-.68,1a.67.67,0,0,0-.48.85c.05.26-.09.48-.32.48s-.32-.27-.35-.45c-.13-.7,0-1.33.78-1.58.31-.09.3-.31.37-.56a5.08,5.08,0,0,0-.06-1.74c0-.6,0-1.2,0-1.79-.1-2.26-.14-4.51-.35-6.76-.14-1.58-.19-3.16-.26-4.74,0-.6-.18-1.2-.19-1.8,0-.41,0-.82,0-1.22s0-1,0-1.46l0-1.36,0-1.45a10.4,10.4,0,0,0,0-1.37,57.34,57.34,0,0,1-.31-9c0-1.74-.15-3.49,0-5.22.15-1.5,0-3,.05-4.46a1.15,1.15,0,0,0-.4-1A1.65,1.65,0,0,1,0,85.32a1.18,1.18,0,0,1,.71-1.1c.46-.2.65-.44.42-.77-.36-.53,0-.74.31-.93s.4-.24.39-.55a4.62,4.62,0,0,1,.29-1.09,2.11,2.11,0,0,1,.4-.26A8.3,8.3,0,0,1,2.66,82a3.75,3.75,0,0,1-.14.79c0,.25-.22.34-.47.37s-.25.19-.37.29c.12.13.22.32.37.37A5.66,5.66,0,0,0,6,84.28C6.15,84.22,6.37,84.27,6.61,84.22ZM2.79,79.73a8.33,8.33,0,0,1,0,1.11c0,.09-.19.41-.4.1-.11-.15-.27-.32-.26-.48a10.47,10.47,0,0,1,.06-2.68c.08-.27-.15-.62-.15-.93,0-1.92,0-3.83,0-5.74.16-3.44,0-6.86-.07-10.29a13,13,0,0,0,.08-2.15c-.12-.67.16-1.37-.18-2,.35-.37-.2-.76,0-1.13s-.08-.63,0-.92c.3-1.89-.11-3.78,0-5.65.21-2.58,0-5.16,0-7.73A5.58,5.58,0,0,0,1.65,40a.87.87,0,0,1,1-1.06,11.29,11.29,0,0,0,3.12.25A1.23,1.23,0,0,0,6.19,39a18.79,18.79,0,0,0,2.08-.7c.37-.29.57,0,.75.14a.69.69,0,0,1,.05,1,.39.39,0,0,1-.39,0,1.73,1.73,0,0,0-1.65,0,2.54,2.54,0,0,1-2.56.56,5.36,5.36,0,0,0-1.29-.16c-.69-.08-1,.3-.73,1a13.55,13.55,0,0,1,.4,1.38c.07.18,0,.21-.06.31a13.41,13.41,0,0,0-.29,1.66c0,.31.16.63.16,1s-.12.81-.12,1.21c0,3,0,6,0,9.07a3.6,3.6,0,0,0,.21,2,13.83,13.83,0,0,0-.08,3.69c0,1.28,0,2.56.08,3.84s.1,2.51.08,3.76c0,1.47-.22,2.94-.15,4.4a12.22,12.22,0,0,0-.06,1.81c.1.62-.05,1.27.08,1.88C3,77.64,2.68,78.64,2.79,79.73ZM8,129.35c.26.55.5,1,.77,1.48a1.14,1.14,0,0,1-.08,1.22c-.2.22-.39.29-.65.1s-.09-.35,0-.54a.5.5,0,0,0,0-.4c-.11-.27-.27-.51-.4-.77A5.93,5.93,0,0,1,7.43,127a3.37,3.37,0,0,0,0-1.84c-.2-.48.08-1.13.08-1.71,0-2.13-.09-4.27-.14-6.4,0-.63,0-1.26,0-1.88s.11-1.1.12-1.64a7.9,7.9,0,0,0-.15-1.19c0-.34.28-.67,0-1-.11-.13,0-.48.06-.74a7.52,7.52,0,0,0,0-.82Q7.19,99.51,6.94,89.3a3.19,3.19,0,0,1,.91-2.52c.26-.24.18-.5.22-.77s.39-1.58.47-1.77a1,1,0,0,1,.35.16,5,5,0,0,1,0,1.72A3.44,3.44,0,0,1,8,87.85a2.33,2.33,0,0,0-.4,1.61c0,1.65.1,3.31.11,5s-.19,3.39,0,5A88.1,88.1,0,0,1,8,109.74c0,3.25.14,6.5.08,9.75,0,.61.26,1.23-.08,1.86-.09.17.16.5.16.76,0,1.64.06,3.29-.09,4.92C8,127.78,8.07,128.52,8,129.35ZM7.85,61.67c0,.55.08,1,0,1.48a14,14,0,0,0,0,1.45l0,1.54c0,.48,0,1,0,1.45s0,1-.07,1.44A2.88,2.88,0,0,0,8,70.48c.13.3-.1.74-.1,1.11,0,1.85.16,3.7.08,5.55a23.75,23.75,0,0,1-.19,2.78,1.74,1.74,0,0,0,.56,1.71,2.47,2.47,0,0,1,.71,2c0,.36-.3.22-.44.2a.76.76,0,0,1-.35-.28c.33-.56-.23-1.25-.5-1.48a1.14,1.14,0,0,1-.53-.94,10.35,10.35,0,0,1-.17-1.21,49.55,49.55,0,0,0,.16-7.8c0-.78.07-1.55.11-2.33a10.63,10.63,0,0,1,0-1.14,6.85,6.85,0,0,0,0-1.28l0-1.28a10.94,10.94,0,0,1,0-1.28,80.88,80.88,0,0,0,0-8.24c0-2.82-.21-5.64-.15-8.45,0-1.55,0-3.09.05-4.63a3.14,3.14,0,0,1,.78-2.24c.19-.18.21-.53.33-.79a9.53,9.53,0,0,1,.62-1.48c.12-.06.44-.14.4.22a18.35,18.35,0,0,1-.51,2c-.14.37-.43.69-.56,1.06a5.52,5.52,0,0,0-.38,1.54c-.07,1.45,0,2.91-.09,4.37,0,.95-.09,1.91-.09,2.86,0,.43.18.87.18,1.3a5.25,5.25,0,0,1-.11,2.23c.35.52-.27,1.16.21,1.67a14.71,14.71,0,0,1-.07,3.18.94.94,0,0,0,0,.5A7.37,7.37,0,0,1,7.85,61.67ZM5.94,119.45c-.07-.43.13-.81-.18-1.13-.06-.07.1-.34.16-.51a3.18,3.18,0,0,1,.43.28.36.36,0,0,1,.08.22,13.49,13.49,0,0,1,.19,1.54c0,.44-.1.89-.12,1.33,0,1-.06,2-.11,3,0,.35-.11.69-.14,1A36.51,36.51,0,0,0,6,129.77a.8.8,0,0,0,.11.25c0-.07,0-.15.06-.23a3.73,3.73,0,0,1,.16-.35c.08-.15.16-.28.24-.42a1.58,1.58,0,0,0,.11.44c.24.43,0,.8-.17,1.16a.56.56,0,0,1-1,0,1.11,1.11,0,0,1-.18-.44c0-.76-.08-1.53,0-2.3s.22-1.27.27-1.91c.11-1.34.12-2.7.28-4A16.81,16.81,0,0,0,5.94,119.45ZM4.16,169.27c-.1-.86.15-1.66-.22-2.41a6.68,6.68,0,0,0,.11-2.4,10.29,10.29,0,0,0,0-1.11c0-.28,0-.56.34-.57s.35.28.35.56c0,1.85.07,3.7.14,5.55a20.83,20.83,0,0,0,.26,3.16,12,12,0,0,1,.18,2c0,.73-.38.94-1,.57a1.18,1.18,0,0,1-.31-.28c-.19-.19-.53-.41-.33-.68s.48,0,.69.18a.28.28,0,0,0,.23,0,.26.26,0,0,0,.07-.22,19.84,19.84,0,0,1-.26-3.85A3.26,3.26,0,0,0,4.16,169.27ZM5.17,79c0,.69.06,1.28,0,1.88s-.09,1-.67,1.16c-.4.14-.69.07-.84-.25s-.1-.77.31-.86.51-.38.5-.68.14-.89-.17-1.3c0,0,0-.16,0-.24-.09-1.28-.17-2.57-.27-3.85a8.36,8.36,0,0,0-.15-1.3A5.46,5.46,0,0,1,4,71.76a.4.4,0,0,1,.3-.25.59.59,0,0,1,.36.28,1.19,1.19,0,0,1,0,.5,11.68,11.68,0,0,0-.13,1.3c0,.43.15.86.19,1.29.1,1.25.17,2.51.26,3.76C5,78.73,5.11,78.82,5.17,79ZM6.55,37c-.68.71-.9.74-1.45.2-.06-.06-.18-.12-.18-.18,0-.66-.25-1.33.1-2,.06-.1.24-.14.36-.2,0,.11.14.21.14.33,0,.45,0,.91.05,1.36,0,.12.15.22.23.33.09-.12.23-.23.26-.36.09-.35-.32-.7,0-1-.35-.48-.17-1-.2-1.55-.13-2.19-.22-4.39-.33-6.58a1.74,1.74,0,0,1,0-.51c0-.08.18-.16.29-.18s.11,0,.11.2a39.9,39.9,0,0,0,.25,4.77c.2,1.4.35,2.79.43,4.21A6.82,6.82,0,0,1,6.55,37Z"/></g></g></svg>