<svg xmlns="http://www.w3.org/2000/svg" viewBox="0 0 41.18 102.51"><title>frills-and-spikes</title><g id="Layer_2" data-name="Layer 2"><g id="frills-and-spikes"><path id="fill1" d="M21.26,93.12c-.24-.19-.47-.35-.69-.53-.4-.35-.77-.72-1.17-1.07-.25-.23-.53-.42-.8-.64s-.74-.59-1.08-.91c-.71-.66-1.43-1.33-2.1-2s-1.21-1.24-1.77-1.9a5.27,5.27,0,0,1-1-1.27c0-.06-.14-.08-.2-.14s-.29-.21-.34-.43-.21-.27-.32-.4a2.47,2.47,0,0,1-.28-.28c-.36-.57-.87-1-1.24-1.57s-1-1.13-1.31-1.77a18.56,18.56,0,0,0-1.24-1.73c-.16-.29-.33-.57-.52-.85s-.44-.84-.79-1.19a3.22,3.22,0,0,1-.5-.86c-.22-.4-.42-.8-.63-1.21a.16.16,0,0,0,0-.07,2.69,2.69,0,0,1-.65-1.07C4.39,72.83,4,72.55,4,72.1a10.35,10.35,0,0,1-1-2c-.16-.33-.24-.7-.38-1s-.39-.88-.54-1.34-.41-1-.54-1.47a19.78,19.78,0,0,1-.69-2.39,10.77,10.77,0,0,0-.38-1.26,2.87,2.87,0,0,1-.14-.66c-.06-.74-.24-1.46-.29-2.21,0-.51-.06-1-.06-1.51a8.67,8.67,0,0,1,0-1.14c0-.47.13-.9.17-1.35a11.14,11.14,0,0,1,.28-1.51,4,4,0,0,1,.18-.68c.32-.7.69-1.38,1-2.09a2.21,2.21,0,0,1,.87-1.06c.12-.07.17-.23.26-.33a6.47,6.47,0,0,1,1.12-.91,6.78,6.78,0,0,1,1.23-.69c.32-.15.66-.21,1-.33a1.69,1.69,0,0,1,.82-.18c.24,0-.06-.16.06-.16h.67a.46.46,0,0,0,.18-.21c.07-.3.1-.61.18-.9.15-.53.32-1.06.5-1.58.1-.28.27-.54.37-.83a3.94,3.94,0,0,1,.7-1.14A7.1,7.1,0,0,1,12.11,41a5.54,5.54,0,0,1,1.68-.56A5.11,5.11,0,0,1,15,40.37a7.4,7.4,0,0,1,1.62.26c.14,0,.25,0,.22-.2s-.07-.57-.09-.85c-.14-2.23-.11-4.47-.07-6.71,0-.72,0-1.43.08-2.15s.13-1.41.19-2.11c0-.43,0-.85.08-1.26.07-.64.13-1.29.18-1.94,0-.48.14-.93.17-1.4a12,12,0,0,1,.25-1.19v-.35c0-.29.1-.58.14-.87s.08-.6.13-.89.12-.76.19-1.13.17-.8.25-1.19.15-.71.22-1.07.09-.44.13-.66l.18-.91c.12-.64.34-1.26.47-1.9A21.19,21.19,0,0,1,20,11.11c.21-.65.38-1.3.54-2,.06-.27.19-.54.27-.82a5.69,5.69,0,0,1,.34-1.06c.35-.66.44-1.4.74-2.06.23-.51.35-1,.58-1.55a9.18,9.18,0,0,0,.44-.95c.32-.76.6-1.54.9-2.3,0-.09.05-.19.09-.28S24,0,24.06,0s0,.12,0,.17c-.1.21-.2.4,0,.61a.5.5,0,0,1,0,.16A.17.17,0,0,0,24,.83s-.1,0-.11,0-.07.1-.05.14a1.26,1.26,0,0,1-.27,1.16c-.1.17-.07.43-.19.58a4.69,4.69,0,0,0-.54,1.43A9.07,9.07,0,0,0,22.19,6a2.68,2.68,0,0,1-.24.67c-.31.7-.41,1.46-.69,2.17.09.34-.23.61-.2,1,0,.09-.11.19-.14.29a1.88,1.88,0,0,0-.12.48,3.63,3.63,0,0,1-.31,1.16,3,3,0,0,0-.14.57c-.06.37-.17.73-.26,1.1a4.88,4.88,0,0,0-.25,1c0,.37-.23.67-.25,1,0,.18-.09.36-.09.53,0,.44-.24.82-.23,1.26a1.21,1.21,0,0,1-.27.95.33.33,0,0,0-.07.16c0,.35,0,.72-.09,1.07s-.11.82-.17,1.23-.12.69-.18,1a1.92,1.92,0,0,1-.09.32c0,.22-.06.45-.09.68A11.44,11.44,0,0,1,18.14,24c-.06.29-.06.6-.1.9s-.11.57-.17.86c.26.27,0,.54,0,.82a1.48,1.48,0,0,1-.07.86s0,.11,0,.18a20.64,20.64,0,0,1-.11,2.1c-.05.35,0,.73-.15,1.07-.05.09.09.27.07.4a9.25,9.25,0,0,0-.08,1.58c0,.53-.08,1.06-.09,1.59,0,.32.07.64.09,1s0,.68,0,1a1.35,1.35,0,0,1-.08.6c-.06.14.05.35.08.53s-.1.62.08.91c0,0,0,.13,0,.2a.73.73,0,0,0,0,.25c0,.65.11,1.29.18,1.94a.15.15,0,0,0,.07.12c.32.16.66.3.95.48a.43.43,0,0,0,.6-.12A6.81,6.81,0,0,1,21.06,40a2.8,2.8,0,0,1,1.31-.47c.2,0,.43-.21.59-.15s.52-.11.79-.13c.06,0,.14-.22.16-.34.1-.63.17-1.26.27-1.91.08-.48.2-.92.3-1.39.13-.65.27-1.29.41-1.91.08-.36.17-.73.28-1.09.22-.77.47-1.53.68-2.3s.37-1.36.6-2,.47-1.57.76-2.32.54-1.59.88-2.39c.16-.45.34-.89.54-1.33s.39-1.15.69-1.68.4-.81.57-1.23c0,0,.05-.06.07-.1l1.42-3.1c.15-.31.31-.62.45-1a.23.23,0,0,1,.08-.09,3.59,3.59,0,0,0,.53-1c.16-.34.33-.67.52-1s.51-.8.75-1.21c.09-.2.17-.41.24-.61s.09-.09.13-.12a.32.32,0,0,1,0,.14c0,.13,0,.25-.07.38a1.55,1.55,0,0,1-.36,1.07,3.7,3.7,0,0,0-.25.43c-.12.22-.25.43-.36.65a8.33,8.33,0,0,0-.44,1c-.07.2-.09.38-.37.34,0,0,0,0-.07,0a1.62,1.62,0,0,0-.1.18h.17l.15,0a.57.57,0,0,0-.08.13c-.18.38-.35.77-.52,1.17l-.09.22s0,0,0,.06a.25.25,0,0,1,0-.07v-.27a.64.64,0,0,0-.06-.18c0,.06-.11.12-.11.17s-.11.3,0,.52-.12.48-.2.74a1.91,1.91,0,0,1-.22.53,1.15,1.15,0,0,0-.17.55.7.7,0,0,1-.2.4,1.43,1.43,0,0,0-.32.76v0a7.06,7.06,0,0,0-.53,1.48c0,.07-.13.12-.17.19a1.14,1.14,0,0,0-.27.65,1.84,1.84,0,0,1-.4.9c-.06.11-.23.18-.06.32a.27.27,0,0,1,0,.15,6.53,6.53,0,0,0-.59,1.54,1.47,1.47,0,0,1-.36.74.18.18,0,0,0-.07.15,3.39,3.39,0,0,1-.27,1.18,17.83,17.83,0,0,1-.64,1.91c-.22.48-.18,1.08-.5,1.53,0,.52-.26,1-.29,1.49a5,5,0,0,1-.24.75,4.49,4.49,0,0,0-.21,1,4,4,0,0,1-.16.76c-.12.64-.27,1.28-.44,1.91a6.59,6.59,0,0,0-.1.76c0,.37-.11.73-.18,1.09,0,.14-.06.27-.08.41,0,.34,0,.3.33.37a8.79,8.79,0,0,1,1.61.39c.31.14.6.34.91.48A9.81,9.81,0,0,1,30,41.92c.3.31.66.58.94.89A6.38,6.38,0,0,1,32,44.13a3.5,3.5,0,0,0,.55.67c.16.21.32.43.47.65s.11.27.2.36c.48.42.64,1,1,1.5a5.59,5.59,0,0,1,.4.86c.19.35.42.68.61,1a11.37,11.37,0,0,1,.54,1.11c.22.57.4,1.15.65,1.7s.43,1,.63,1.52a6.13,6.13,0,0,1,.48,1.32,2.81,2.81,0,0,0,.22.85c.41.84.5,1.77.85,2.63A10.24,10.24,0,0,1,39,60c.12.53.26,1.05.38,1.58s.23,1,.33,1.47a21.49,21.49,0,0,0,.35,2.13,5.51,5.51,0,0,1,.1.9,2.83,2.83,0,0,0,.09.37c.06.47.11.95.18,1.43.1.68.12,1.38.19,2.07s.19,1.65.27,2.47.1,1.63.17,2.43c.12,1.38,0,2.76.07,4.14v.75c0,.25,0,.49,0,.73a2.66,2.66,0,0,1,0,.69,4.27,4.27,0,0,1-.06,1.13,2,2,0,0,0,0,.81,2.94,2.94,0,0,1-.08,1c0,.12-.05.25-.07.37a3.34,3.34,0,0,1-.19,1.17.57.57,0,0,0,0,.26A2.75,2.75,0,0,1,40.64,87a2.54,2.54,0,0,0-.11.78c0,.27,0,.54-.09.81-.08.53-.18,1-.28,1.58,0,.11,0,.22-.07.33S40,90.82,40,91a1.47,1.47,0,0,0-.14.45,3.61,3.61,0,0,1-.24,1c-.1.39-.12.81-.21,1.2s-.24.86-.36,1.29c0,.08-.09.15-.08.22a3.2,3.2,0,0,1-.35,1.25c-.19.63-.48,1.22-.71,1.85a.71.71,0,0,1-.43.51c-.18,0-.13.1-.05.2s.32.43.47.65a.64.64,0,0,1-.28.76c-.36.1-.36.1-.65-.18l-.1-.1c-.23-.19-.3-.17-.39.11A8.3,8.3,0,0,0,36,102a.51.51,0,0,1-.47.48c-.33,0-.48-.24-.33-.56a3.78,3.78,0,0,1,.26-.43c0-.09.07-.14-.07-.18s-.54-.19-.82-.25a8.85,8.85,0,0,1-1.73-.67c-.68-.32-1.37-.62-2.05-1-.24-.13-.47-.31-.71-.45-.53-.31-1.09-.59-1.61-.93a13.08,13.08,0,0,1-1.18-.75,6,6,0,0,0-.6-.36c-.45-.29-.87-.62-1.33-.88a7.76,7.76,0,0,0-1.42-.89.89.89,0,0,1-.34-.27c-.42-.45-1-.68-1.42-1.14a7.67,7.67,0,0,0-.92-.66M15.57,59.71v.17a.5.5,0,0,0,0,.13s0-.07,0-.11a2.33,2.33,0,0,1-.09-.28,6,6,0,0,1,0-.85.61.61,0,0,1,.05.12,3,3,0,0,0,.1.89c.16.34,0,.57-.1.83a.19.19,0,0,0,0,.12l.1-.08c.06,0,.13-.17.13,0a1.69,1.69,0,0,0,0,.45,3.35,3.35,0,0,1,.13,1.22c-.25,0-.1.21-.12.32l.11,0a1.74,1.74,0,0,1,.05-.22.18.18,0,0,1,0-.13,8.38,8.38,0,0,0,.22,1.11c.2.75.37,1.52.54,2.28a3.81,3.81,0,0,1,.08.59,2.12,2.12,0,0,1-.08.41.94.94,0,0,0,0,.16l.13-.12.06-.14a.45.45,0,0,1,0,.16,5.42,5.42,0,0,0,.28,1c0,.23.12.48.17.69a2.62,2.62,0,0,0,.12.57,5.43,5.43,0,0,1,.42,1.21c.09.31.31.58.27.92.29.24.29.62.4,1a.91.91,0,0,1,0,.4c0,.24.24,0,.27.18v.09a8.16,8.16,0,0,1,.36,1.19c0,.06.07.12.11.17a5.79,5.79,0,0,1,.59,1.23c.07.14.09.29.17.42a1.24,1.24,0,0,1,.28.78s0,.16,0,.16c.29,0,.21.26.25.43a.68.68,0,0,0,.16.33,1,1,0,0,1,.31.59,2.53,2.53,0,0,0,.18.37,1.26,1.26,0,0,1,.23.67c0,.15,0,.14.18.08a.18.18,0,0,1,.15.08,3.77,3.77,0,0,0,0,.48.42.42,0,0,0,.12.26,1.39,1.39,0,0,1,.52.78s.06.08.07.08A.12.12,0,0,1,23,81a.11.11,0,0,1,0,.08c-.06.48.41.75.37,1.2,0,0,.05.08.08.09.34.1.3.44.44.66a8.83,8.83,0,0,0,.67,1.15,3,3,0,0,1,.6.95c.11.31.39.55.53.85s.4.44.44.76.18.26.34.29c0,.33.41.44.36.78a12.29,12.29,0,0,0,1,1.41c.13.12.36.29.34.4,0,.31.17.44.3.6a9.52,9.52,0,0,0,1.07,1.39,1.49,1.49,0,0,1,.47.73.67.67,0,0,0,.16.25,3.05,3.05,0,0,1,.59.6,8.64,8.64,0,0,0,1.27,1.62l.7.77a5,5,0,0,0,.65.57s.13,0,.15-.06a.27.27,0,0,0,0-.33c-.31-.48-.56-1-.84-1.52-.19-.35-.4-.7-.59-1s-.3-.59-.44-.89c-.07-.14-.09-.29-.16-.42-.27-.52-.56-1-.81-1.54s-.4-1-.64-1.52-.58-1-.84-1.57c-.38-.81-.71-1.64-1.11-2.44s-.72-1.64-1.14-2.43-.7-1.61-1-2.44c-.39-1-.78-2-1.16-3-.24-.61-.47-1.22-.71-1.84s-.31-1-.47-1.5c-.34-1-.7-1.91-1-2.86s-.53-1.68-.8-2.52l-.18-.6c-.09-.32-.17-.64-.26-1-.15-.48-.32-.92-.45-1.39-.2-.76-.38-1.53-.57-2.3s-.44-1.72-.67-2.58A10.66,10.66,0,0,0,19.41,59a4.43,4.43,0,0,1-.2-1,12.21,12.21,0,0,0-.2-1.21c-.21-.83-.37-1.67-.52-2.51a1.26,1.26,0,0,0-.29-.63c-.56-.52-1.15-1-1.74-1.49-.3-.26-.61-.51-1-.76h-.12v.07c.19.35-.12.69,0,1,0,0-.06.07-.08.11a3.62,3.62,0,0,0-.17.53l.1.1.07-.13c-.16-.08,0-.16,0-.24a.41.41,0,0,1,0-.16.38.38,0,0,1,0,.15v2.32a.46.46,0,0,1,0,.2l-.09-.18a.54.54,0,0,1,0-.25,6.31,6.31,0,0,0,0-.87.27.27,0,0,0,0-.12.34.34,0,0,0-.05.14v1c0,.12,0,.32.1.34.21.07.16.21.16.34a5.35,5.35,0,0,0,0,1A5.89,5.89,0,0,1,15.53,58a4.85,4.85,0,0,1,0,.76,2,2,0,0,0,0-.34l0-.1a.42.42,0,0,0,0,.1c0,.23,0,.45,0,.67a2.41,2.41,0,0,0,.16.6M9,60.46c.08.22.16.44.22.66.15.54.31,1.07.44,1.61a18.83,18.83,0,0,1,.63,2.19s0,.06.07.09c.24.27.23.26.11.61a.48.48,0,0,0,0,.17.61.61,0,0,1,.07-.1s.18-.1.17,0,.29.47.19.77a5.88,5.88,0,0,1,.57,1.28c.15.36.13.81.48,1.09a.32.32,0,0,1,.09.23,1.9,1.9,0,0,0,.36.88.64.64,0,0,1,.08.14c.12.32.22.66.36.95s.14.66.43.9c.13.1.1.4.23.51.41.35.34.91.66,1.3s.28.65.5,1a4.14,4.14,0,0,1,.67,1.5c0,.08.12.13.19.19a.88.88,0,0,1,.43.67.5.5,0,0,0,0,.12,4.09,4.09,0,0,1,.6,1.13c.21.08.19.33.29.44a1.26,1.26,0,0,1,.3.51c0,.08.05.24.19.08,0,.05.1.1.1.14-.05.3,0,.38.24.48a.2.2,0,0,1,.12.08q.26.45.48.9a2.4,2.4,0,0,0,.19.29,1.31,1.31,0,0,1,.19.27c.1.25.17.52.48.66.06,0,.07.17.08.27s0,.24.18.21a.24.24,0,0,1,.14.09,7.11,7.11,0,0,1,.47.74c.34.6.89,1,1.24,1.67a3.94,3.94,0,0,0,.45.56,2.74,2.74,0,0,1,.47.55c.21.48.7.71,1,1.14s.77.83,1.09,1.3a16.2,16.2,0,0,0,1.65,1.76c.41.43.82.87,1.22,1.32.14.16.25.34.38.51l.21.18c.13-.16.19,0,.25.06L29.32,94a.17.17,0,0,0,.11.06c.18,0,.24.09.29.25a1.91,1.91,0,0,0,.7.74,4.64,4.64,0,0,0,.36.4c.14.11.33.14.47.24a16.78,16.78,0,0,0,1.53,1.26c.09,0,.12.23.27.12a.92.92,0,0,0-.16-.27.81.81,0,0,0-.18-.19,20.91,20.91,0,0,1-1.79-2c-.18-.21-.35-.42-.51-.64l-1.16-1.57c-.38-.52-.71-.93-1.06-1.39s-.56-1-1-1.36a4.12,4.12,0,0,1-.66-.93,3.25,3.25,0,0,0-.6-1,.49.49,0,0,1-.12-.13c-.42-.88-1.07-1.63-1.46-2.52-.15-.25-.31-.5-.48-.73s-.25-.53-.39-.78a8.33,8.33,0,0,1-.75-1.29,20.8,20.8,0,0,1-1.08-2.1L21.56,80a1.73,1.73,0,0,1-.19-.28c-.21-.43-.39-.88-.6-1.31s-.6-1.12-.84-1.71-.37-1-.63-1.52a3,3,0,0,1-.25-.47c-.34-1-.8-2-1.11-3.07-.19-.62-.42-1.22-.66-1.83a18.42,18.42,0,0,1-.73-2.64c-.14-.65-.38-1.28-.47-2s-.33-1.26-.42-1.91-.26-1.43-.34-2.13c-.05-.48-.19-1-.21-1.43s-.19-1.15-.24-1.73c-.06-.89-.06-1.78-.1-2.68a2,2,0,0,0,0-.34c0-.06-.06-.17,0-.2s.08-.33.08-.5,0-.59,0-.88c0-.73.08-1.44.13-2.18a.36.36,0,0,0-.18-.37c-.71-.44-1.43-.89-2.14-1.3A14,14,0,0,0,11,48.86a3.47,3.47,0,0,0-.95-.28c-.5-.07-1-.19-1.48-.28s-.48,0-.48.41a.81.81,0,0,1,0,.22,6.81,6.81,0,0,0-.17,1.62,1.08,1.08,0,0,1-.08.59c-.05.08,0,.23,0,.35v.3c0,.1-.05.18,0,.21s.07.34.08.5C8,53.32,8,54.14,8,55a6.22,6.22,0,0,0,.09,1c.08.54.17,1.09.26,1.63s.15.8.22,1.2c0,.16.07.3.1.48a3.13,3.13,0,0,1,.17,1.25v.26a1,1,0,0,1,.05-.22c0-.08,0,0,0,0m18.56-9.54,0,0a29.15,29.15,0,0,1,1.72,3c.29.64.66,1.24.95,1.88.38.86.77,1.71,1.13,2.57s.65,1.66,1,2.5c.23.6.47,1.21.66,1.82.28.85.54,1.71.8,2.57.16.56.3,1.12.44,1.69.11.4.16.82.31,1.21.3.84.42,1.73.67,2.58.1.35.18.7.26,1.06.12.52.26,1.05.36,1.58s.18,1.06.27,1.59c.05.29.11.58.18.86A6.53,6.53,0,0,1,36.51,77c.06.72.31,1.4.37,2.12a2.82,2.82,0,0,0,.07.31c0,.11,0,.29,0,.43l.09.41c0,.14,0,.31.07.48.06.34.14.68.19,1,.11.71.08,1.43.25,2.13a9.68,9.68,0,0,1,.11,1.78c0,.42.06.84.09,1.26,0,0,0,.08,0,.12a8.58,8.58,0,0,1,.1.87c0,.17-.11.39,0,.48s-.09.24,0,.39a1.09,1.09,0,0,1,.08.47v.8a2.42,2.42,0,0,0,0,.76,2.24,2.24,0,0,1,0,.73,10.08,10.08,0,0,1,0,2,10.36,10.36,0,0,0-.1,1.25,1,1,0,0,1,0,.17c-.11.5-.21,1-.32,1.51a3.31,3.31,0,0,0-.08.55.76.76,0,0,0,.06.18,1,1,0,0,0,.17-.12.26.26,0,0,0,.07-.15,16.5,16.5,0,0,0,.65-1.78c.28-1,.48-2.09.73-3.13.16-.7.34-1.38.47-2.07a2.72,2.72,0,0,1,.08-.51,4.26,4.26,0,0,0,.21-1.12c.11-.47.08-1,.2-1.48.22-.8.15-1.64.34-2.44.08-.37,0-.75.08-1.13a14.37,14.37,0,0,0,.1-2c0-1.3.05-2.59-.07-3.89s-.08-2.49-.1-3.73V73a2.6,2.6,0,0,0-.1-.68,2.6,2.6,0,0,1-.07-.56c-.05-.43-.07-.87-.1-1.3a1,1,0,0,0,0-.35A4.17,4.17,0,0,1,40,68.74a1.09,1.09,0,0,0,0-.36,12.19,12.19,0,0,1-.34-2.08c-.06-.3-.07-.6-.12-.89-.07-.48-.16-.92-.24-1.38s-.14-.83-.23-1.24-.22-.81-.31-1.22-.15-.85-.25-1.27a41.3,41.3,0,0,0-1.16-4c-.15-.42-.27-.84-.41-1.26s-.2-.66-.32-1c-.24-.63-.52-1.24-.78-1.86s-.41-1.11-.67-1.64-.47-1-.72-1.4c-.42-.76-.82-1.54-1.29-2.27a25.89,25.89,0,0,0-1.6-2.28,23,23,0,0,0-1.64-1.78,12.7,12.7,0,0,0-1.19-1A6.71,6.71,0,0,0,27.51,41a6.59,6.59,0,0,0-1.65-.73A3.24,3.24,0,0,1,25,40c-.24-.13-.26,0-.32.15a9.59,9.59,0,0,0-.26,1.76c0,.16,0,.34,0,.48a8.54,8.54,0,0,0-.19,2c0,.38-.06.75-.08,1.12a.2.2,0,0,1,0,.08c-.11.13-.05.23,0,.34s.25.38.4.56.4.44.58.69c.36.47.66,1,1.06,1.47s.68,1.07,1.06,1.58a2,2,0,0,1,.33.74V51a.14.14,0,0,1,.09-.08M1.05,62.41c.15.48.3,1,.43,1.44a2.91,2.91,0,0,1,.23,1.24c0,.18.05.33,0,.51s.07.08.11.12a.49.49,0,0,0,0-.17c0-.09,0-.17,0-.25s0-.07,0-.1l0,.11a11,11,0,0,1,.43,1.38,2,2,0,0,0,.31.81,1.37,1.37,0,0,1,.22.58v.23a7.36,7.36,0,0,1,.59,1.35c.05.12,0,.29.1.35s.24.42.34.63,0,.51.33.62v.13a.39.39,0,0,0,.23.42c.18.11.29.26.17.44s0,.22.06.24a.37.37,0,0,1,.24.3c.12.36.48.61.48,1,0,0,.07.08.1.13q.32.48.6,1l1.34,2.2c.07.11.21.19.26.3a6,6,0,0,0,1,1.51c.21.28.42.57.62.86s.32.71.69.91a.28.28,0,0,1,.11.13,8.14,8.14,0,0,0,1.24,1.67,2.88,2.88,0,0,1,.44.48,8.7,8.7,0,0,0,1.16,1.48c.36.44.77.84,1.16,1.26.23.26.47.52.69.79.09.1.15.25.25.32a4.39,4.39,0,0,1,.84.71,2.18,2.18,0,0,0,.25.28c.1.08.24.14.29.25.16.37.5.56.76.83a12.32,12.32,0,0,0,1.13,1A20.33,20.33,0,0,1,20,91.39a10.55,10.55,0,0,0,1.16,1c.25.2.53.38.79.57l.37.28c.37.31.73.65,1.13.93.78.56,1.6,1.08,2.37,1.63.47.35,1,.66,1.5,1s1.13.7,1.74,1.06c.27.15.47.38.76.53s.79.38,1.18.58c.21.11.4.24.62.34s.5.09.66.32a2.13,2.13,0,0,1,1,.44,2.76,2.76,0,0,0,.87.36,7.19,7.19,0,0,0,1.21.32c.25,0,.44,0,.44-.25a2.51,2.51,0,0,1,.21-.77c0-.15,0-.22-.1-.27s-.09-.07-.15-.08A10.61,10.61,0,0,1,33.15,98a22.37,22.37,0,0,1-3.1-2.38c-.68-.62-1.35-1.27-2-1.91s-1.28-1.33-1.89-2-1.49-1.61-2.23-2.42a9.56,9.56,0,0,1-.66-.75c-.52-.63-1-1.27-1.55-1.91a6.5,6.5,0,0,1-.62-.75A15.85,15.85,0,0,0,19.73,84a12.78,12.78,0,0,0-1.43-1.88,5.72,5.72,0,0,0-.81-1.31c-.34-.52-.66-1.06-1-1.6-.12-.21-.22-.44-.34-.66s-.2-.28-.28-.42a8.83,8.83,0,0,0-.43-.8,16.84,16.84,0,0,1-.89-1.55c-.29-.53-.53-1-.76-1.47s-.64-1.28-1-1.91c-.48-1-.91-2-1.37-3l-.21-.53-.6-1.54a14.41,14.41,0,0,1-.62-1.61c-.19-.7-.56-1.32-.71-2,0-.28-.24-.54-.29-.82a15.28,15.28,0,0,0-.45-1.64,9.94,9.94,0,0,1-.42-1.69c-.06-.6-.26-1.16-.31-1.76s-.24-1.3-.32-2c-.06-.47,0-1-.09-1.39s0-1.11-.09-1.66a5,5,0,0,1,0-1c0-.34.23-.66,0-1,.12-.74,0-1.5.24-2.23,0-.11,0-.23-.18-.21s-.48.06-.71.1A15.1,15.1,0,0,0,5,49a4.88,4.88,0,0,0-1.62,1.16,1.11,1.11,0,0,1-.31.3,2.39,2.39,0,0,0-.82.91,8.71,8.71,0,0,0-.8,1.43c-.22.48-.41,1-.59,1.5-.06.14,0,.35-.06.48-.31.47-.05,1-.26,1.55,0,1.2,0,2.41.09,3.62a8.24,8.24,0,0,0,.11.85,6.35,6.35,0,0,1,.19,1.62.76.76,0,0,0,0-.33s0,0-.07-.08-.07.09-.07.13a1.91,1.91,0,0,0,.06.33s.07.09.11.13A.49.49,0,0,1,1,62.41m32.12,2.48a.42.42,0,0,1-.09-.14c-.14-.48-.27-1-.42-1.43-.22-.67-.44-1.33-.71-2-.17-.39-.27-.81-.42-1.21s-.37-.8-.51-1.22-.42-.64-.5-1a15,15,0,0,0-.85-2c-.24-.53-.51-1.05-.8-1.56-.09-.16-.09-.39-.2-.53-.43-.54-.7-1.18-1.08-1.75s-.91-1.43-1.34-2.16-.95-1.34-1.42-2c-.22-.32-.48-.61-.72-.91L24,46.89a.49.49,0,0,0-.08.21,2.5,2.5,0,0,0,0,.67,5.8,5.8,0,0,1,0,.59,4.52,4.52,0,0,0,.09,1c.1.37-.23.75,0,1.13-.19.28,0,.58,0,.86,0,1.29.06,2.57.09,3.85,0,.68.05,1.35.09,2a3.33,3.33,0,0,0,.1.89c.15.41,0,.83.15,1.23a5.53,5.53,0,0,1,.11.9,1.06,1.06,0,0,0,.18.33c.07.09.2.15.25.25a11.28,11.28,0,0,0,1.16,1.8,6.33,6.33,0,0,1,.44.7c.29.48.57,1,.85,1.48.12.22.21.45.31.68s.2.42.29.63c.2.48.54.87.73,1.35.31.78.73,1.52,1,2.3.14.4.33.76.47,1.15.23.62.48,1.24.69,1.86a22.87,22.87,0,0,1,.94,2.79c.2.85.52,1.66.77,2.49.17.57.32,1.15.48,1.73s.23,1,.32,1.47a20.22,20.22,0,0,1,.4,2,8.12,8.12,0,0,0,.17,1.1c.09.48.19,1,.26,1.43s0,.73.11,1.07a6.43,6.43,0,0,1,.08.74c0,.29.06.58.08.86a8.86,8.86,0,0,0,.07,1.09,15.35,15.35,0,0,1,.1,2.25A2.64,2.64,0,0,0,35,93.29a4.75,4.75,0,0,1,.47.78,5,5,0,0,0,.57,1.16,6.6,6.6,0,0,1,.73,1.08,1.43,1.43,0,0,0,.12.21A1,1,0,0,1,37,96.3a1,1,0,0,0,0-.17c.14-.68.31-1.37.42-2,.06-.52.09-1,.1-1.57V90a13.73,13.73,0,0,0-.07-1.7c-.09-.58,0-1.17-.1-1.75a15.88,15.88,0,0,1-.1-1.66,4.46,4.46,0,0,0-.09-.81,19,19,0,0,1-.25-2c0-.35-.06-.69-.11-1a21.81,21.81,0,0,1-.43-2.28c-.13-.69-.18-1.4-.35-2.08-.21-.84-.37-1.7-.54-2.55-.08-.37-.13-.75-.21-1.12-.19-.81-.4-1.62-.59-2.43-.12-.5-.23-1-.36-1.5s-.24-.89-.35-1.33c0-.17,0-.34-.1-.48a1.35,1.35,0,0,0-.15-.52c-.18-.26-.13-.57-.24-.84a10.29,10.29,0,0,1-.29-1.09m-11.1.72c.15.47.3,1,.45,1.47s.28,1,.44,1.46a7.41,7.41,0,0,1,.35.93,24.53,24.53,0,0,0,.87,2.63c.2.63.47,1.24.64,1.87a17.6,17.6,0,0,0,.74,2c.21.59.47,1.15.69,1.73s.47,1.2.71,1.8c.17.42.38.83.53,1.26.28.86.73,1.65,1.07,2.49.2.48.48.93.7,1.41.48,1.07,1,2.15,1.48,3.22.22.48.47,1,.71,1.43a2.26,2.26,0,0,0,.38.74,1,1,0,0,1,.19.36A9.39,9.39,0,0,0,32.74,92a16.56,16.56,0,0,0,.95,1.76c.09.16.15.35.23.52s.12,0,.18.08v-.15a4.33,4.33,0,0,1-.21-.54c-.29-.74-.57-1.48-.9-2.21-.42-1-.68-2-1.09-2.94s-.79-2-1.18-3.08c-.28-.72-.62-1.43-.84-2.15-.31-1-.81-2-1.16-3-.3-.83-.58-1.66-.89-2.48A17.23,17.23,0,0,1,27.22,76c-.13-.54-.31-1.07-.48-1.59s-.29-1.07-.47-1.59a9.72,9.72,0,0,1-.47-1.76c-.11-.49-.24-1-.39-1.43A11.31,11.31,0,0,1,25,68.24c-.11-.65-.32-1.27-.39-1.94,0-.39-.18-.78-.24-1.19,0-.23-.07-.47-.11-.71-.08-.44-.17-.88-.24-1.33,0-.27-.06-.53-.11-.8a7.34,7.34,0,0,1-.25-1.68,1.37,1.37,0,0,0-.25-.79c-.32-.45-.62-.91-.95-1.33-.57-.69-1.17-1.36-1.76-2a4.3,4.3,0,0,1-.61-.73c-.1-.19-.38-.29-.33-.57a.16.16,0,0,0-.12,0s-.05.07-.05.1a.75.75,0,0,0,0,.16c.11.48.21,1,.31,1.48A4.64,4.64,0,0,0,20.17,58a6.39,6.39,0,0,1,.39,1.62c.13.73.34,1.43.51,2.16.22.95.5,1.91.76,2.86.08.29.18.58.26,1m3.16-1c0,.21.09.41.13.62s.07.47.12.7.11.35.15.52c.16.72.32,1.43.47,2.17.11.48.31,1,.43,1.48.07.27.11.55.18.81A17.67,17.67,0,0,0,27.36,73c.42,1.12.7,2.29,1.12,3.42s.85,2.44,1.29,3.66c.16.47.4.9.58,1.36.35.9.7,1.8,1,2.69s.61,1.62.92,2.44c.22.59.47,1.17.68,1.76.31.83.61,1.66.92,2.48A.66.66,0,0,0,34,91a.59.59,0,0,0,0-.19c0-.33-.08-.66-.08-1V88.26c0-.34-.12-.69-.16-1s0-.64-.05-1a3.15,3.15,0,0,0-.07-.92,9.27,9.27,0,0,1-.33-1.65,12.12,12.12,0,0,0-.3-1.48c-.28-.8-.35-1.64-.59-2.43s-.34-1.29-.52-1.91-.41-1.47-.65-2.19-.54-1.62-.83-2.42-.55-1.43-.81-2.16-.56-1.23-.76-1.88a10.24,10.24,0,0,0-.62-1.35c-.19-.39-.41-.78-.61-1.17-.33-.64-.65-1.28-1-1.91-.22-.4-.44-.8-.68-1.19-.12-.2-.26-.39-.4-.59a3.46,3.46,0,0,1-.22-.31c-.17-.31-.33-.63-.51-1,0,0-.08-.07-.12-.09a.24.24,0,0,0,0,.12,1.09,1.09,0,0,0,.07.24c.06.36.14.71.19,1.08a8.53,8.53,0,0,0,.1.85,5,5,0,0,1,.13.63m-7-17.48.09,1.34v.09a13,13,0,0,1,.26,1.64,12.74,12.74,0,0,0,.2,1.38c.13.44.13.9.24,1.33s.13.69.21,1a.56.56,0,0,0,.16.24c.25.27.52.53.77.79s.39.36.56.56l.86,1c.6.67,1.1,1.43,1.65,2.15l.13.1v-.17c-.06-.36-.14-.73-.17-1.09s0-.93-.08-1.39a14.53,14.53,0,0,1-.1-2V51.31c0-.27-.06-.48-.08-.74,0-.1,0-.2,0-.3A1.22,1.22,0,0,0,23,50c0-.2-.1-.45,0-.6.23-.43-.12-.87.08-1.28-.18-.24,0-.51,0-.78a4.44,4.44,0,0,1,0-1.26.43.43,0,0,0-.15-.39c-.65-.61-1.28-1.25-1.94-1.85a12.32,12.32,0,0,0-1.61-1.27c-.37-.23-.54-.22-.79.11a8.83,8.83,0,0,1-.64.81c-.11.12-.16.25-.1.35.14.26.05.52.08.77a1,1,0,0,0,0,.35,2.88,2.88,0,0,1,.16,1,8.9,8.9,0,0,0,.17,1.09m-7.15-4.92c-.32.33-.67.63-.95,1a6.87,6.87,0,0,0-.72,1,5.33,5.33,0,0,0-.44,1q-.31.87-.57,1.77a4.58,4.58,0,0,0-.1.63.22.22,0,0,0,.17.26h.05l1,.09c.34,0,.69,0,1,.09a4.46,4.46,0,0,1,.72.18c.17.06.3.21.47.25a9.28,9.28,0,0,1,2.35,1.19c.33.18.73.32.89.73h.09s.1-.08.09-.09c-.28-.48.11-.87.12-1.32a6.06,6.06,0,0,1,.33-1.46c.17-.57.35-1.16.58-1.72s.54-1.15.8-1.72a.49.49,0,0,0,0-.37c-.13-.18-.06-.34-.07-.51,0-.48-.06-1-.1-1.48a.5.5,0,0,0-.47-.54,6.9,6.9,0,0,0-2-.24,7.19,7.19,0,0,0-1.3.21,4.91,4.91,0,0,0-2,1m11.27-2.09a5.74,5.74,0,0,0-1.82.77,4.89,4.89,0,0,0-.84.66c-.23.19-.23.22,0,.41.05,0,.09.12.16.15.34.19.56.54.95.7.22.11.32.35.47.52a3.58,3.58,0,0,0,.63.41,1.38,1.38,0,0,1,.19.28s0,.12.07.13c.42.12.61.51.91.78a.49.49,0,0,1,0,.11.56.56,0,0,0,0-.12c.06-.53.13-1.05.18-1.58s.06-.92.09-1.39v-.13c.09-.56.18-1.12.26-1.68,0-.09,0-.2-.14-.19a2.58,2.58,0,0,0-1.23.18M18,52.1c-.06-.37-.12-.75-.17-1.12s-.09-1-.2-1.4c-.06-.26,0-.52-.08-.76a5.61,5.61,0,0,1-.17-1.23,1,1,0,0,0,0-.35,6.17,6.17,0,0,1-.18-1.35,5.58,5.58,0,0,0-.09-.81.1.1,0,0,0-.08-.07.13.13,0,0,0-.09.06v.31a.94.94,0,0,1,0,.16.49.49,0,0,0-.05-.16.3.3,0,0,0,0-.1.21.21,0,0,0-.09.1.17.17,0,0,0,0,.14.64.64,0,0,1,0,.57c-.19.47-.37.92-.53,1.38a4.58,4.58,0,0,0-.18.73,4.9,4.9,0,0,1-.13.62c0,.11,0,.32-.23.33,0,.17.06.34.09.48v.13l-.18.73a.22.22,0,0,0,0,.11A1.62,1.62,0,0,0,16,51a11.89,11.89,0,0,1,1.67,1.33,5.67,5.67,0,0,1,.5.48l.07.05s0-.05,0-.07c-.06-.2-.12-.4-.18-.68M17.8,41.78a8.08,8.08,0,0,0,.09.86c0,.13.1.12.17,0s.16-.37.3-.45.12-.23,0-.3a1.44,1.44,0,0,0-.54-.14m18,55.12c-.11-.18-.23-.36-.35-.52s-.08-.06-.12-.09,0,.12,0,.17.17.28.26.42.28.45.43.66c0,0,.12,0,.17,0a.4.4,0,0,0,0-.15,5.32,5.32,0,0,0-.35-.53M8.45,59.06c.05.15.1.29.16.43l.09,0s0-.06,0-.08A7.68,7.68,0,0,1,8.34,58c0-.07,0-.15-.05-.22a1,1,0,0,0,0,.25c.05.31.11.63.17,1M8,56.31l.18,1a.56.56,0,0,0,0,.12s0-.08,0-.11c0-.33-.09-.65-.13-1a1.09,1.09,0,0,0-.07-.24.65.65,0,0,0-.06.21M34.77,95.76c.16,0,.08.36.27.24s-.07-.23-.11-.34,0-.1,0-.12l-.34-.28c0,.12.11.25.17.37a.33.33,0,0,0,0,.13M7.92,55.4v.22l0,.08s.06-.05.06-.07a5.39,5.39,0,0,0,0-.7c0-.06-.08-.12-.12-.18a.74.74,0,0,0,0,.21A3.1,3.1,0,0,0,8,55.4m26.2,41.52a2.18,2.18,0,0,0,.22.21c.08.06.12,0,.13-.06a.37.37,0,0,0-.36-.37h0a.79.79,0,0,1,.06.22m-18-33.3.09.58v.07s.05,0,.06,0-.07-.6-.17-.63M7.81,53.89l.05.74c0-.25,0-.48,0-.74a1.49,1.49,0,0,0,0-.21s0,0-.06,0a.54.54,0,0,0,0,.18M.37,59.25l0,0h0v-.51a.48.48,0,0,0,0-.17c0,.07-.12.14-.12.21s.06.24.08.45m.14,1a1,1,0,0,0,0,.3,3.31,3.31,0,0,0,.14.41,3.26,3.26,0,0,0,0-.54.36.36,0,0,0-.07-.17m28.4-37.3,0-.21a.67.67,0,0,0-.15.13,1.43,1.43,0,0,0-.09.27.53.53,0,0,0,0,.12s.05,0,.06-.05l.17-.26m-21,30.18,0-.29a2.93,2.93,0,0,1,0,.29c0,.09,0,.2,0,.3a.24.24,0,0,0,0,.08h.06c0-.09.17-.18,0-.36m25.8-40.89v.36a2.48,2.48,0,0,0,.13-.35.44.44,0,0,0,0-.16s-.06,0-.06,0a.43.43,0,0,1,0,.12M8.76,59.83l-.06-.16s-.07.07-.07.1a.47.47,0,0,0,.06.15l.09.34a1.55,1.55,0,0,0,0-.43m19-34.13a.25.25,0,0,0,.12-.32s-.07,0-.11,0a1,1,0,0,0,0,.35M17.55,26.78a.25.25,0,0,0-.12.32s.07,0,.11,0a1,1,0,0,0,0-.35M.28,57.46l0,.12.15-.39H.37a.62.62,0,0,0-.09.27M27.33,26.69c0,.08-.22.12-.09.26a1.37,1.37,0,0,0,.17-.17c.06-.07,0-.06-.08-.09m6-13.7v-.11c-.06,0-.14.08-.17.14s0,.1,0,.16a.45.45,0,0,0,.12-.21m-18,44.58,0-.12s-.06,0-.06,0v.22l.06.16a1.3,1.3,0,0,1,0-.29m8.26-12.22v.2c.05,0,.12-.06.14-.11s0-.15-.16-.09M7.74,52.1l0,.39v-.41H7.72M9,61l.05.31a1.72,1.72,0,0,1,0-.32H9m6.82-12.83-.09.18h.06s.19-.12,0-.19M.52,61.06v.08s0,.09.06.14l0-.12a.11.11,0,0,0-.09-.1M17.4,68.22l-.1-.14a.07.07,0,0,0-.06,0,.23.23,0,0,0,.16.1m-6.3-1,0-.12s-.06.07-.06.08-.09.19.09,0m5.59-1.7,0,0h0v.2l.06,0a1.49,1.49,0,0,0,0-.21m-1.42-8.39v-.09a.35.35,0,0,0,0-.13.36.36,0,0,0,0,.11.12.12,0,0,0,.09.11m.63,4.55,0,0h0a1,1,0,0,1,0,.2.05.05,0,0,0,.05,0,1.55,1.55,0,0,0,0-.21M1.42,64.6l0,.12s.07-.06.06-.07.1-.19-.08-.05M26.56,29.23h.17l0-.12-.14.13M30,19.77l-.09.09.14,0c0-.06,0-.12-.05-.13M17.29,39.19V39l-.14,0,.14.13M15.33,58a.7.7,0,0,1,0,.14h0a.22.22,0,0,0,0-.16m-.17-4.53a1,1,0,0,1,0,.14h.06a.22.22,0,0,0,0-.16m8.62-9v-.11h-.06a.09.09,0,0,0,.09.09m.5-5.61v.12h.06s0-.1-.08-.1m5-17.34.14,0v-.05a.22.22,0,0,0-.16,0m2.58-5.54V15.8h-.05s0,.1.07.1M10.43,65.32l0,.11h0s0-.09-.08-.09M20.87,9.4V9.29h-.06a.09.09,0,0,0,.08.1M15.2,51.73l.05,0s0,0-.05,0M.37,58.26l0,0s0-.06,0,0m23.1-8,.05,0s0-.06-.05,0m-5.78-4.46,0,0s0-.06,0,0m12.7-26.62,0-.05s0,.05.05,0M1.17,63.26l0,0s0,.05,0,0m29.93-46,.06,0s0-.06-.06,0M20.62,10l.06,0s0-.05-.06,0m-7.11,62.7.05,0a0,0,0,0,0-.05,0M20,75.32l0,0s0,0,0,0M22.36,4.48l.06,0s0-.06-.06,0m.27-.36-.05,0s0,0,.05,0M23,2.86l.05,0S23.07,2.86,23,2.86Z"/></g></g></svg>