<svg xmlns="http://www.w3.org/2000/svg" viewBox="0 0 85.22 100.53"><title>naked-branch</title><g id="Layer_2" data-name="Layer 2"><g id="naked-branch"><path id="fill1" d="M45.64,28.54a11.84,11.84,0,0,1-1.35,2.09c-.44.55-1,1-1.54,1.51s-.66.83-1,1.25a5,5,0,0,0-.55.73c-.24.52-.76.82-1,1.3a2,2,0,0,0-.17.32,4.86,4.86,0,0,1-.72,1.44,2.48,2.48,0,0,0-.24.64c-.06.15-.12.3-.17.45a8.85,8.85,0,0,0-.34,1.22c0,.18-.15.26-.19.41s-.11.42-.15.63c-.08.48-.16,1-.2,1.41A7.6,7.6,0,0,1,37.83,43a7.53,7.53,0,0,1-.09.8,2.63,2.63,0,0,1-.18.54.61.61,0,0,0,.11.8,1.13,1.13,0,0,1,.23.34,11.72,11.72,0,0,0,.52,1.14A4.12,4.12,0,0,0,39.59,48c.12.1.11.29.19.35s.23.13.23.31a.44.44,0,0,0,.13.24c.43.48.58,1.15,1,1.67l0,.06c-.15.36,0,.75-.08,1.11a3.46,3.46,0,0,1-.3.75c-.14.29-.34.56-.47.86a2.4,2.4,0,0,0-.1.48c-.2.67-.37,1.36-.63,2-.1.24-.2.48-.31.71a4.4,4.4,0,0,0-.37,1.55v.09c-.19.27-.22.62-.41.88a2.52,2.52,0,0,0-.39,1,4,4,0,0,0,.31,2.26.67.67,0,0,1,0,.52c-.16.18,0,.48-.29.59a2.67,2.67,0,0,0,.1.62,2.52,2.52,0,0,1,.07,1.06,7.25,7.25,0,0,0,.52,2.8,2,2,0,0,0,.16.33c.39.54.78,1.09,1.18,1.61.27.36.56.72.86,1a13.45,13.45,0,0,0,1.55,1.25c.56.44,1.22.74,1.79,1.16s1.26.75,1.81,1.24a3.58,3.58,0,0,0,.55.38c.1.06.12,0,.15-.1.2-.48.42-.92.61-1.38s.48-1.21.72-1.8a20.22,20.22,0,0,0,.88-2c.21-.74.62-1.38.87-2.1a4.92,4.92,0,0,1,.64-1c.32-.47.69-.9,1-1.37s.53-.89.79-1.34c.08-.13.18-.24.26-.37.38-.6.71-1.24,1.14-1.81a14.54,14.54,0,0,0,1.36-2.4c.2-.42.51-.8.69-1.24.26-.62.68-1.14,1-1.75.07-.17.11-.36.19-.53a3.28,3.28,0,0,1,.39-.71,3.85,3.85,0,0,0,.55-1.22,1,1,0,0,0-.09-.53,6.81,6.81,0,0,0-.34-.78,4.06,4.06,0,0,1-.34-1c-.12-.48-.27-.95-.4-1.43a2.77,2.77,0,0,1,.35-2.24c.08-.13.18-.25.26-.37s.05-.14.08-.14c.41,0,.38-.39.51-.61.36-.59.68-1.21,1-1.8a3.63,3.63,0,0,0,.38-1,6.83,6.83,0,0,0,.17-2.25,10.58,10.58,0,0,0-.23-1.35s0-.08,0-.12l-.09-1.54-.09-1.5a4.25,4.25,0,0,1,.29-1.54c.21-.63.34-1.29.54-1.91s.41-1,.6-1.55a12,12,0,0,0,.38-1.2,1.23,1.23,0,0,0-.12-.92c-.17-.38-.43-.7-.61-1.06-.07-.13-.24-.19-.32-.3a12.9,12.9,0,0,1-1-2.05c.07-.45-.26-.76-.38-1.15s-.26-.71-.37-1.08a4,4,0,0,1-.13-.6A12.53,12.53,0,0,1,57.91,21a13.85,13.85,0,0,1,.39-2c.23-.89.48-1.78.63-2.68a23.83,23.83,0,0,1,.82-2.77,16.15,16.15,0,0,0,.51-1.63,2.35,2.35,0,0,1,.27-.63.28.28,0,0,1,.38-.12.59.59,0,0,1,.3.26c.08.2,0,.33-.24.44a.33.33,0,0,0-.19.15c-.07.33-.32.59-.37,1a5.37,5.37,0,0,1-.33.87c-.24.72-.48,1.43-.68,2.17-.12.42-.18.86-.29,1.28-.16.63-.33,1.24-.48,1.86a3.87,3.87,0,0,0-.12.82,3.31,3.31,0,0,1-.18,1.08,1,1,0,0,0,0,.25,4.06,4.06,0,0,1-.06.85,3.36,3.36,0,0,0,.09,1.09,12.32,12.32,0,0,0,.24,1.21,4.18,4.18,0,0,0,.32.92,9,9,0,0,1,.48,1.21,6.64,6.64,0,0,0,1.07,2c.37.43.61,1,1,1.39a.74.74,0,0,1,.09.84c-.15.39-.22.81-.34,1.22s-.31.89-.48,1.34a13.81,13.81,0,0,0-.52,1.91,1.07,1.07,0,0,1-.07.19,1,1,0,0,0-.2.71v0c-.26.23,0,.52-.08.77a3.27,3.27,0,0,1-.08.76c0,.15.09.36.07.52,0,.36.07.71,0,1.08A3.85,3.85,0,0,0,60,40.43c0,.11.05.22.06.33,0,.3.06.59.11.88s.22.57.15.8c-.17.53.06,1.08-.15,1.6a2.17,2.17,0,0,0-.09.8,1.46,1.46,0,0,1-.21.79c-.48.88-1,1.75-1.44,2.65a9.46,9.46,0,0,0-.65,1.7c.13.25,0,.51.07.78a6.05,6.05,0,0,1,.2,1,.47.47,0,0,0,.07.12s.1-.09.1-.14a.72.72,0,0,1,.15-.42c.24-.38.41-.81,1-.85l.06,0A18.15,18.15,0,0,1,60.93,49a13.06,13.06,0,0,1,1.48-1.19A3.73,3.73,0,0,0,63,47.4a1.51,1.51,0,0,1,1-.48,5.43,5.43,0,0,0,1.21-.26,3.86,3.86,0,0,0,1.44-.8,1.51,1.51,0,0,1,1.1-.52,3,3,0,0,0,.73-.11,1.82,1.82,0,0,0,1.28-.92,1.59,1.59,0,0,1,1.51-.89,1,1,0,0,0,.65-.31,4.06,4.06,0,0,0,1-1.36.7.7,0,0,1,.63-.44,1.69,1.69,0,0,0,.84-.29,6.31,6.31,0,0,0,1.35-1.38,1.32,1.32,0,0,1,.74-.71c.15,0,.28-.22.37-.36a.41.41,0,0,0,0-.48,10.29,10.29,0,0,1-.8-1.91c-.11-.27-.17-.55-.29-.8a1.8,1.8,0,0,1-.08-1.27,8.24,8.24,0,0,1,.21-1,6,6,0,0,1,.71-1.56,1.53,1.53,0,0,0,.21-.4,1.47,1.47,0,0,1,.38-.55,14.53,14.53,0,0,0,1.91-2.57A13.49,13.49,0,0,0,80,26.54c.21-.48.52-.9.74-1.36a4.7,4.7,0,0,1,.61-.85c.53-.64,1.07-1.27,1.58-1.91a3,3,0,0,0,.36-.81c.2-.56.31-1.15.48-1.72a13,13,0,0,1,.53-1.75c.24-.57.48-1.27.71-1.92a.07.07,0,0,1,0-.06l.19-.07c0,.05,0,.11,0,.15-.08.2-.17.38-.25.56a7.58,7.58,0,0,1-.53,1.32c-.08.74-.4,1.44-.47,2.17a7.67,7.67,0,0,1-.43,1.79,1.42,1.42,0,0,1-.26.38c-.26.35-.52.69-.79,1-.44.53-.9,1.06-1.33,1.6a3.87,3.87,0,0,0-.41.75,4.5,4.5,0,0,1-.39.67,9.48,9.48,0,0,0-.48,1,1.11,1.11,0,0,1-.14.29c-.09.14-.22.26-.3.41s-.08.29-.16.41a13.21,13.21,0,0,1-1,1.39A12.08,12.08,0,0,0,77,31.92a5.24,5.24,0,0,0-.67,1.39,2.09,2.09,0,0,0,0,1.11c.19.65.48,1.26.69,1.91,0,.15.06.3.1.44a2.25,2.25,0,0,0,.38.63.72.72,0,0,1,.17.8,2.71,2.71,0,0,1-1,1.43,6.08,6.08,0,0,0-1,1,14.5,14.5,0,0,1-1.06,1,3,3,0,0,1-.71.51.26.26,0,0,1-.15.07c-.61,0-.79.51-1,1a2.24,2.24,0,0,1-1.48,1.24c-.2,0-.4.1-.6.13a.52.52,0,0,0-.48.43c0,.1-.14.17-.2.26a1.79,1.79,0,0,0-.39.59.86.86,0,0,1-.48.56,2.73,2.73,0,0,1-1.39.45.61.61,0,0,0-.37.15c-.31.29-.6.59-.89.89a.3.3,0,0,0,0,.16.71.71,0,0,1-.39.54c-.09,0-.23.13-.07.31s0,.12-.12.14c-.36.08-.71.2-1.07.25a1.62,1.62,0,0,0-1.14.55c-.12.14-.33.19-.48.31-.37.3-.72.59-1.07.9L60.2,52.64a.45.45,0,0,1-.14.1c-.61.18-.75.74-1,1.23a6.18,6.18,0,0,0-.29,1.2c-.11.66-.44,1.26-.51,1.91-.27.27-.15.71-.45,1a.21.21,0,0,0-.07.14,2.87,2.87,0,0,1-.48,1.2c-.41.86-.84,1.7-1.27,2.55-.05.12-.09.25-.15.37a2.51,2.51,0,0,0-.39,1,1.88,1.88,0,0,1-.43.95,8,8,0,0,0-.84,1.44,14,14,0,0,1-1.3,2,14.24,14.24,0,0,0-1.44,2.35,7.83,7.83,0,0,0-.25.78c-.06.16-.18.3-.26.48A22.8,22.8,0,0,0,50,73.46c-.25.67-.59,1.3-.87,2-.17.41-.32.83-.48,1.24a.44.44,0,0,0,0,.4,7.37,7.37,0,0,1,.44,1c.25.74.5,1.48.74,2.24.07.22.09.45.15.68a.44.44,0,0,0,.08.11l.09-.07L51.34,80c.14-.14.28-.29.43-.43.4-.34.82-.66,1.19-1a6.59,6.59,0,0,0,1-1.14,1.61,1.61,0,0,1,.73-.58,4,4,0,0,1,1.28-.39A4.19,4.19,0,0,0,58,75.55a16.26,16.26,0,0,0,2.36-2.11,15.12,15.12,0,0,1,1.86-1.53c.55-.4,1.12-.76,1.68-1.14a3,3,0,0,0,.62-.71.47.47,0,0,0,0-.33,5.79,5.79,0,0,0-.12-.6,2.9,2.9,0,0,1-.06-1.49c.08-.33.07-.68.17-1a8.19,8.19,0,0,1,1.34-2.42c.11-.16.27-.26.38-.41a2.3,2.3,0,0,1,1.29-.71,3,3,0,0,0,1.55-.8l1.27-1.44a7,7,0,0,0,.93-1c.19-.29.48-.48.65-.76a4.61,4.61,0,0,1,.78-.81c.21-.19.44-.37.64-.56.43-.39.84-.79,1.27-1.17l1.57-1.39a.3.3,0,0,1,.15,0v.15a1,1,0,0,1-.15.24c-.25.24-.51.46-.77.69l-1.66,1.48-.11.13a2.36,2.36,0,0,1-.62.71,1.12,1.12,0,0,0-.52.65c0,.1-.15.17-.23.25a3.89,3.89,0,0,0-.75.82,6.76,6.76,0,0,1-.54.66,2.93,2.93,0,0,0-.23.43.48.48,0,0,1-.12.16,6.57,6.57,0,0,0-.57.48,3.16,3.16,0,0,0-.48.67,2.39,2.39,0,0,1-1.14.94,4.39,4.39,0,0,1-1.39.55.75.75,0,0,0-.4.3A15.05,15.05,0,0,0,65.62,66a7.38,7.38,0,0,0-.56,1.66,2,2,0,0,0,.08.88c.12.48.3.95.44,1.43a.22.22,0,0,1,0,.16,7.25,7.25,0,0,1-.47.75c-.2.24-.45.42-.64.66s-.43.3-.63.48-.63.5-1,.75c-.12.08-.27.13-.39.22-.31.24-.63.48-.92.75-.48.42-.88.88-1.33,1.32s-.76.74-1.17,1.08a10.61,10.61,0,0,1-1.32,1,3.73,3.73,0,0,1-1.07.35c-.48.11-.92.18-1.38.28a.64.64,0,0,0-.48.35c-.07.12-.24.18-.33.29-.31.36-.59.73-.89,1.08s-.44.43-.66.64a5.43,5.43,0,0,1-.59.48,7.21,7.21,0,0,1-.93.72,1.68,1.68,0,0,0-.66.61,2.85,2.85,0,0,1-.42.43.32.32,0,0,0-.11.34c.05.23-.13.51-.21.77a2,2,0,0,0,0,1.36,2.81,2.81,0,0,0,.52.84,6.2,6.2,0,0,0,1.56,1.28,9.62,9.62,0,0,1,1.15.83,5.44,5.44,0,0,1,.67.59c.35.38.67.78,1,1.17a3.27,3.27,0,0,1,.35.48,7.35,7.35,0,0,1,.85,1.79,1.8,1.8,0,0,1,0,1.19,3.62,3.62,0,0,0,0,1.09,2.83,2.83,0,0,0,.14,1,.91.91,0,0,1-.07.82,1.63,1.63,0,0,0-.25,1c0,.31-.08.62-.07.93a6.77,6.77,0,0,0,.08,1,.36.36,0,0,0,.13.21c.19.12,0,.23,0,.33a.41.41,0,0,1-.18.19,11.24,11.24,0,0,1-1.37,1,.37.37,0,0,1-.29,0c-.13-.11-.25-.23-.37-.35s-.11-.27-.07-.46a3,3,0,0,0,.06-.95,3,3,0,0,1,0-1.39c.12-.37.09-.74.2-1.11a5,5,0,0,0,0-1.22c0-.42,0-.84,0-1.27a5.87,5.87,0,0,0-.39-1.59c-.09-.21-.12-.45-.22-.65s-.31-.42-.43-.66a6.37,6.37,0,0,0-1.68-1.79c-.42-.35-.92-.6-1.36-.93a8.85,8.85,0,0,1-1.73-1.62,2.56,2.56,0,0,1-.58-1.82,3.58,3.58,0,0,1,.09-.45c0-.1.07-.2.08-.31s-.06-.41.16-.55c0,0,0-.11,0-.17a10.9,10.9,0,0,0,0-1.4c-.07-.37-.22-.73-.27-1.11a8.81,8.81,0,0,0-.53-1.49,4.85,4.85,0,0,0-1.41-2.17,8.87,8.87,0,0,0-1.51-1.22,17.15,17.15,0,0,1-1.72-1.21,1.74,1.74,0,0,0-.64-.35,3.22,3.22,0,0,1-.91-.54,9.64,9.64,0,0,1-1.28-.92,12.15,12.15,0,0,1-2-2.13.87.87,0,0,0-.91-.48.39.39,0,0,1-.28-.06,4,4,0,0,0-1.65-.5c-.48-.1-1-.28-1.46-.4a4.48,4.48,0,0,1-1.75-1,1.44,1.44,0,0,0-.33-.16l-1.94-.71a2.32,2.32,0,0,0-.68-.16,18.65,18.65,0,0,0-2.24.09,13.85,13.85,0,0,1-2,.24,4.57,4.57,0,0,1-1.37-.27c-.41-.14-.84-.23-1.26-.33a12.4,12.4,0,0,1-2-.33,13.85,13.85,0,0,0-1.81-.38,9.24,9.24,0,0,1-1.92-.58,2.71,2.71,0,0,1-1.16-1c-.25-.41-.65-.7-.93-1.1s-.76-.92-1.09-1.43c-.21-.33-.58-.54-.79-.9a4.12,4.12,0,0,1-.27-.45s0-.14.05-.21a.29.29,0,0,1,.13.05A14.9,14.9,0,0,1,14,62.76a5.3,5.3,0,0,0,.8,1,3.52,3.52,0,0,1,.65.74,1.43,1.43,0,0,0,.81.64.77.77,0,0,1,.25.14,4,4,0,0,0,1.43.48,18.37,18.37,0,0,1,2.32.48,7.68,7.68,0,0,0,1.51.25,7.82,7.82,0,0,1,1.52.36,5.19,5.19,0,0,0,2,.24,7.21,7.21,0,0,0,.92-.21l.2,0,2-.09a3.1,3.1,0,0,1,1.44.26c.52.23,1.08.35,1.6.58a5.39,5.39,0,0,1,1.23.71A4.25,4.25,0,0,0,34,68.8a8.89,8.89,0,0,0,1.16.27,7.91,7.91,0,0,0,1.07.25c.23,0,.33.2.52.25a.67.67,0,0,0,.2,0,1.09,1.09,0,0,1-.08-.15c-.11-.32-.22-.64-.32-1,0-.17-.06-.35-.12-.52a2.47,2.47,0,0,1-.15-.86,2.14,2.14,0,0,0-.08-.44c-.06-.48-.13-1-.17-1.46a3.19,3.19,0,0,0-.7-1.87c-.38-.45-.7-1-1.06-1.43a8.4,8.4,0,0,1-.7-1.09,11.38,11.38,0,0,1-.72-1.33,3.56,3.56,0,0,0-.31-.48c-.23-.44-.4-.93-.66-1.34-.4-.65-.77-1.32-1.21-2-.22-.32-.39-.68-.59-1s-.35-.64-.53-.95a.13.13,0,0,0-.07-.06,5.7,5.7,0,0,1-.78-.85,7,7,0,0,1-.95-1.27,16.21,16.21,0,0,0-1.22-1.64,6.66,6.66,0,0,1-1-1.52A4,4,0,0,0,24.27,47l-.43-.35a9.35,9.35,0,0,0-1.53-1c-.45-.25-.9-.48-1.37-.7s-1-.36-1.5-.61A6.88,6.88,0,0,0,18.3,44a8,8,0,0,1-2.39-1.31,8.4,8.4,0,0,1-1.23-1,8.13,8.13,0,0,1-1.24-1.44,7.4,7.4,0,0,0-.7-.89,13.72,13.72,0,0,1-1.48-1.91.79.79,0,0,1,.09-.86c.29-.36.56-.73.83-1.1a2.09,2.09,0,0,0,.14-.3c.11-.23.23-.48.35-.68a.78.78,0,0,0-.12-1.1l0,0a9.58,9.58,0,0,0-.85-.7,9.21,9.21,0,0,1-.92-.73,13.06,13.06,0,0,0-1.48-1.19c-.32-.27-.67-.48-1-.76a8.39,8.39,0,0,1-.65-.56,2.36,2.36,0,0,1-.67-1,1.48,1.48,0,0,0-.35-.48,4,4,0,0,1-.71-1.24c-.26-.53-.52-1.07-.77-1.61-.36-.75-.69-1.53-1.06-2.28a6.64,6.64,0,0,0-1.39-2.05c-.27-.23-.55-.47-.79-.71a11.52,11.52,0,0,1-.88-1c-.17-.21-.29-.44-.62-.48s-.48-.63-.34-.83a0,0,0,0,1,0,0c.22,0,.45.05.67-.08.05,0,.21.07.28.14.44.48.87,1,1.3,1.48.2.22.38.47.59.67s.27.1.36.19a8.7,8.7,0,0,1,1,1.22,2.09,2.09,0,0,1,.22.48c.18.48.6.85.61,1.43a2,2,0,0,1,.48.73,8.38,8.38,0,0,0,.84,1.63c0,.4.25.68.36,1a2.87,2.87,0,0,0,.32.53,2,2,0,0,1,.11.26v.12c.38.26.43.75.76,1.05A18,18,0,0,0,9.4,29.83c.47.35.92.77,1.43,1.12a5.23,5.23,0,0,1,.83.73,12.63,12.63,0,0,0,1.46,1.06,1.66,1.66,0,0,1,.7,1.08.82.82,0,0,1-.11.51c-.31.63-.69,1.21-1,1.81a3,3,0,0,1-.36.6c-.29.3-.12.58.05.81.36.48.77,1,1.17,1.43s.95,1.19,1.43,1.78a7,7,0,0,0,.61.61l.61.52A10.38,10.38,0,0,0,18,43.08a8.2,8.2,0,0,0,1,.42c.48.2,1,.4,1.47.59a5.64,5.64,0,0,0,1.06.4,2.69,2.69,0,0,1,.61.31l.72.3a3.07,3.07,0,0,1,.85.47c.39.32.84.54,1.22.85a9.38,9.38,0,0,1,1.05,1,6.3,6.3,0,0,1,.81,1.28,3.71,3.71,0,0,0,.59.66,13.6,13.6,0,0,1,1.52,2,5,5,0,0,0,.64.74,7.86,7.86,0,0,1,1.19,1.44.4.4,0,0,0,.15.14,1,1,0,0,1,.69.72,7.94,7.94,0,0,0,.63,1,5,5,0,0,0,1,1.32.65.65,0,0,1,.11.22c.12.25.18.55.48.66a.41.41,0,0,1,.19.18,11,11,0,0,0,.54,1.09,2.82,2.82,0,0,0,.71.75,3.91,3.91,0,0,1,.86.91,2.54,2.54,0,0,0,.29.28c0-.11.11-.21.15-.32.16-.44.33-.89.48-1.34s.15-.7.23-1a2.79,2.79,0,0,1,.18-.58,7.36,7.36,0,0,0,.77-1.91v-.09a3.28,3.28,0,0,1,.64-1.7,2.75,2.75,0,0,0,.15-2.61,5.11,5.11,0,0,1-.22-.48,6.42,6.42,0,0,0-.84-1.4,3,3,0,0,0-.53-.59A1.1,1.1,0,0,1,37,48.2c-.15-.38-.31-.75-.48-1.12a2.24,2.24,0,0,1-.25-1.72,6.84,6.84,0,0,0,.19-1.1c.06-.31.15-.61.21-.93s.1-.54.14-.81.13-.79.2-1.19a4.07,4.07,0,0,0,.14-1.25,1.25,1.25,0,0,0-.25-.55,10.23,10.23,0,0,0-1.48-1.67,7.18,7.18,0,0,1-1.2-1.65c-.42-.77-.81-1.56-1.17-2.36a7.44,7.44,0,0,1-.43-1.31,1.39,1.39,0,0,1,.16-.89l.52-1.14v0a12.23,12.23,0,0,0,.07-1.71,6.45,6.45,0,0,0-1.09-2.87c-.29-.44-.48-1-.78-1.38s-.52-1.08-.84-1.59a2.84,2.84,0,0,1-.45-1c-.05-.29-.23-.55-.26-.85a8.91,8.91,0,0,0-.16-.9,3,3,0,0,1,0-1.19,8.74,8.74,0,0,0,.07-1,2.54,2.54,0,0,0-.16-1,.49.49,0,0,1,0-.17,4.17,4.17,0,0,0-.26-1.6,4,4,0,0,1-.09-.84A5.48,5.48,0,0,0,28.85,12,12.19,12.19,0,0,1,28,9.61a8,8,0,0,0-.63-1.36,15.36,15.36,0,0,1-1.15-2.9,5.73,5.73,0,0,0-.73-1.54c-.35-.57-.69-1.15-1-1.72-.15-.26-.28-.53-.42-.79S23.88,1,23.8.91s-.19-.36-.27-.54a.19.19,0,0,1,0-.15,1,1,0,0,1,1-.15c.08,0,.18.13.05.23s-.06.2,0,.34.33.44.34.75a.56.56,0,0,0,.21.38,1.86,1.86,0,0,1,.33.62,8.46,8.46,0,0,0,.71,1.24,6.09,6.09,0,0,1,.92,2.16,4.13,4.13,0,0,0,.32.75c.38.77.75,1.55,1.06,2.36A12.5,12.5,0,0,1,29,10.1,15.05,15.05,0,0,0,29.74,12a5.31,5.31,0,0,1,.38,1.29,15,15,0,0,0,.32,2,8.34,8.34,0,0,1,.2,1.49v.08c.29.73,0,1.48.09,2.22-.19.48.08,1,0,1.5a1.72,1.72,0,0,0,.08.28c.13.68.55,1.26.71,1.91,0,.13.17.23.25.34a7.36,7.36,0,0,1,.63,1.09c.39.68.83,1.32,1.2,2a2.79,2.79,0,0,1,.55,1.52.7.7,0,0,0,.08.23,1.43,1.43,0,0,1,.09.27c0,.67.07,1.35.08,2a1.5,1.5,0,0,1-.29.89,3.1,3.1,0,0,0-.4,1,1.26,1.26,0,0,0,.16.89,8.26,8.26,0,0,1,.43,1,9.5,9.5,0,0,0,1.39,2.46,6.82,6.82,0,0,0,1,1.14,5.37,5.37,0,0,1,1,1.14.15.15,0,0,0,.11,0,.14.14,0,0,0,.06-.11,2.56,2.56,0,0,1,.39-1.37c.23-.6.54-1.17.76-1.79a2.85,2.85,0,0,1,.72-1.09,7.59,7.59,0,0,0,1-1.26,10.61,10.61,0,0,1,.79-1c.19-.23.35-.48.55-.69a2.67,2.67,0,0,1,.44-.38,7.13,7.13,0,0,0,1.15-1.18c.54-.64.88-1.4,1.38-2.06.17-.23.25-.51.43-.74a.79.79,0,0,0,0-.67A7.48,7.48,0,0,1,45,24.89s-.08-.09-.08-.1c.16-.2,0-.45.09-.66A6.94,6.94,0,0,0,45.27,22a4.06,4.06,0,0,1,.18-1.2v-.09c0-.57.07-1.15.08-1.72,0-.2-.07-.41-.08-.62a6.23,6.23,0,0,1,.16-1.55c.12-.48.1-1,.2-1.55a6.25,6.25,0,0,1,.4-1.8c.1-.2.12-.44.21-.66a5.45,5.45,0,0,1,.32-.57s.1-.08.11-.12a1.93,1.93,0,0,1,.7-1c.31-.32.59-.67.89-1a4.67,4.67,0,0,1,.48-.37,4.34,4.34,0,0,0,.91-1.57,2.31,2.31,0,0,1,.28-.62,1.88,1.88,0,0,0,.32-.88,6.71,6.71,0,0,0,.08-2.19,9.87,9.87,0,0,0-.32-2.1,3.77,3.77,0,0,1-.1-.88c0-.36.17-.51.48-.48s.64.28.57.62a5.08,5.08,0,0,0-.17.59,2.7,2.7,0,0,0,.08.39,9.91,9.91,0,0,1,.17,1.07,12.13,12.13,0,0,1,.08,1.81A4.34,4.34,0,0,1,51,7.2c-.16.29-.28.61-.43.91a6.53,6.53,0,0,1-.48.86,9.65,9.65,0,0,1-.76,1c-.06.08-.18.12-.26.19a7.9,7.9,0,0,0-1,1.27,9.55,9.55,0,0,0-.85,1.35,2.38,2.38,0,0,0-.23.63c-.14.54-.26,1.09-.39,1.64a1.44,1.44,0,0,0-.05.24,17,17,0,0,1-.16,1.74,8.18,8.18,0,0,0,0,1.4c0,.14.07.32-.08.45v.12c.14,1-.09,1.92,0,2.88a2.45,2.45,0,0,1-.09.53,4.54,4.54,0,0,0-.09.51,10.27,10.27,0,0,1-.17,1.24,2.81,2.81,0,0,0,.28,1.2,5.4,5.4,0,0,0,.33.74c.14.29.29.57,0,.86a2.74,2.74,0,0,0-.41.75c-.14.26-.28.52-.45.8M18.36,43.84l.14,0v-.06a.23.23,0,0,1-.16-.06H18.1l.22,0s0,0,0,.05m-1-.44,0,0s0,0,0,0Z"/></g></g></svg>