<svg xmlns="http://www.w3.org/2000/svg" viewBox="0 0 18.57 97.77"><title>single-wiggly-branch</title><g id="Layer_2" data-name="Layer 2"><g id="single-wiggly-branch"><path id="fill1" d="M1.48,51.2c0,.07,0,.17.09.22a.77.77,0,0,1,.17.39c0,.1,0,.21.06.31a9,9,0,0,0,.57,1.35l.92,1.72a1.07,1.07,0,0,0,.25.27s.17,0,.17.06a.87.87,0,0,1,0,.28.63.63,0,0,1-.13.2,1.38,1.38,0,0,0-.31.87,2.7,2.7,0,0,0,.09,1.06c.08.31.08.62.17.92a4.93,4.93,0,0,0,.22.53,2.49,2.49,0,0,1,.11.29c0,.14,0,.32.24.36.1.27.36.45.42.76a.13.13,0,0,0,.1.06.3.3,0,0,1,.31.15.83.83,0,0,0,.32.2,4.27,4.27,0,0,1,1,.51,1,1,0,0,0,.41.13c.12,0,.27-.11.34.12,0,0,.2.07.3.06a4.94,4.94,0,0,1,1.07.27,1.65,1.65,0,0,1,.48.1,2.1,2.1,0,0,0,.56.07l.74.14.58.11a1.7,1.7,0,0,1,.31.06,2.39,2.39,0,0,0,.6.14,1.86,1.86,0,0,1,.54.24,2,2,0,0,1,.65.45,1.6,1.6,0,0,0,.49.28,3.45,3.45,0,0,1,.76.61c.28.28.59.54.88.81a1.17,1.17,0,0,1,.35.57.25.25,0,0,0,.11.14c.31.16.4.53.67.73,0,.36.32.58.48.85a4.65,4.65,0,0,1,.63,1.26c.09.28.18.55.28.82A12.62,12.62,0,0,1,17.89,71a6.09,6.09,0,0,0,.17.61c.06.21.09.41.15.59a8.15,8.15,0,0,0,.29,1.3c-.06.29.18.58,0,.88a.14.14,0,0,0,0,.09c.11.24,0,.49,0,.72a.63.63,0,0,1-.07.22c0,.06-.05.09,0,.13,0,.22-.12.37-.19.55-.11.33-.45.54-.48.9a.76.76,0,0,1-.06.2l-.08.33s0,.09,0,.14A8.28,8.28,0,0,1,17.31,79c0,.15-.09.3-.15.44s-.07.14-.05.19a.78.78,0,0,1-.17.66,7.1,7.1,0,0,1-.41.7,2.36,2.36,0,0,1-.54.64c-.32.24-.6.55-.92.77a2.92,2.92,0,0,1-.88.56c-.18.06-.49.13-.42.45-.17.18-.16.42-.27.63s-.19.4-.29.59l-.1.12a4.64,4.64,0,0,1-1.31,1c-.32.18-.61.4-.92.6s-.36.2-.53.3a1.32,1.32,0,0,0-.2.12l-.41.35a1.35,1.35,0,0,0-.28.35,9,9,0,0,0-.58.93,1.35,1.35,0,0,1-.19.33c-.3.39-.6.79-.92,1.16s-.7.75-1,1.12a1.91,1.91,0,0,0-.56,1.31,1.38,1.38,0,0,1-.2.59,1.5,1.5,0,0,0-.21.71c0,.24-.13.43-.13.65a2.19,2.19,0,0,1-.2.66s0,.06,0,.07c-.22.15-.27.41-.41.61a.49.49,0,0,0,0,.16v.15a2.26,2.26,0,0,0-.35.9.8.8,0,0,1-.08.16c-.16.17-.44.15-.6.36s-.28,0-.42.08a.37.37,0,0,0-.19.11.54.54,0,0,1-.73.16l-.09-.08a.34.34,0,0,0-.36,0l-.1,0s0-.06,0-.09,0-.22,0-.35a.37.37,0,0,1,.18-.43c.24-.11.24-.32.3-.49s.15-.43.24-.64A2.52,2.52,0,0,0,3,94.83c0-.15.1-.2.23-.24s.12,0,.12-.07c0-.24.22-.38.22-.62a1.27,1.27,0,0,1,.12-.36,1.3,1.3,0,0,0,.11-.48A3.56,3.56,0,0,1,4,92.27a3.13,3.13,0,0,1,.31-1.07A2.66,2.66,0,0,1,5,90.49c.22-.2.42-.42.64-.63a1.71,1.71,0,0,1,.18-.2,1.89,1.89,0,0,0,.44-.57,1.37,1.37,0,0,1,.15-.21c.09-.11.26-.18.22-.37v-.06a2.36,2.36,0,0,0,.48-1,.45.45,0,0,1,.15-.21,5,5,0,0,1,.56-.49,4.25,4.25,0,0,1,.39-.25,2,2,0,0,0,.61-.38.14.14,0,0,1,.08,0,4.56,4.56,0,0,0,1-.73l.15-.09a1.74,1.74,0,0,0,.79-.68,2.46,2.46,0,0,0,.47-.89c.06-.24.1-.48.16-.74,0-.05,0-.11.07-.13a4,4,0,0,0,1.19-.55,6.51,6.51,0,0,1,.6-.43,3.64,3.64,0,0,0,.57-.54c.18-.18.3-.4.48-.59a6.35,6.35,0,0,0,.44-.81,2,2,0,0,0,.26-1,.35.35,0,0,1,0-.13.15.15,0,0,0,0-.2.52.52,0,0,1,.05-.37c.14-.37.05-.76.18-1.13-.15-.22,0-.35.11-.52a1.5,1.5,0,0,1,.3-.48,4.76,4.76,0,0,0,.48-.89.11.11,0,0,0,0-.08c0-.42.05-.85.06-1.27a1.8,1.8,0,0,0-.06-.32,10,10,0,0,0-.41-1.94,2,2,0,0,1-.21-.84,2.09,2.09,0,0,1-.28-.69,7.16,7.16,0,0,0-.3-.89c-.17-.33-.26-.68-.42-1a10.46,10.46,0,0,1-.49-.94c-.14-.39-.48-.58-.7-.91a4.49,4.49,0,0,0-.58-.71,2.64,2.64,0,0,0-.37-.31l-.93-.75a4.57,4.57,0,0,0-1-.59,8.3,8.3,0,0,0-1.31-.41,4.71,4.71,0,0,0-.52-.09c-.52-.08-1.06-.12-1.56-.25s-.91-.2-1.36-.31a11.3,11.3,0,0,1-1.35-.56,3.94,3.94,0,0,1-.89-.74,4.48,4.48,0,0,1-.54-.68,4.76,4.76,0,0,1-.48-1.14c-.07-.25-.18-.49-.25-.74a2.59,2.59,0,0,1-.12-.48,5.15,5.15,0,0,1-.17-1c0-.25-.1-.49-.1-.69s0-.58.27-.76.12-.24,0-.38a5.27,5.27,0,0,1-.48-.91,6.79,6.79,0,0,0-.39-.87c-.13-.28-.29-.56-.41-.85a5.29,5.29,0,0,1-.4-1.41c-.06-.43-.16-.84-.24-1.27,0-.2,0-.41-.07-.62-.07-.4-.08-.81-.13-1.21A20.39,20.39,0,0,1,0,46.2a8.46,8.46,0,0,1,.15-1c0-.05,0-.11,0-.17a.49.49,0,0,1,.42-.48,4.48,4.48,0,0,0,.62-.2A3.45,3.45,0,0,1,2,44.05c.31,0,.48-.3.77-.39s.34-.3.53-.43a1.45,1.45,0,0,0,.51-.71A1.86,1.86,0,0,0,4,42a11.82,11.82,0,0,0,.14-1.32c0-.28.07-.57.05-.85a6.94,6.94,0,0,0-.34-1.87c-.16-.43-.3-.89-.49-1.32A2.7,2.7,0,0,0,3,36a.9.9,0,0,1-.18-.59.48.48,0,0,0-.07-.31.84.84,0,0,1-.05-.52A5.9,5.9,0,0,0,2.61,34c0-.09.09-.19,0-.28s0-.19,0-.29a4.7,4.7,0,0,1,.13-.63,1,1,0,0,1,.37-.6c.07,0,.18-.07.08-.2a.3.3,0,0,1,.07-.22c.22-.3.45-.58.68-.87a1.27,1.27,0,0,1,.42-.31c.29-.17.55-.39.83-.56a4.37,4.37,0,0,1,.61-.31l.64-.25c.06,0,.1-.13.17-.18L7,29.05a.31.31,0,0,0,.09-.11c.08-.25.27-.45.26-.73a2.23,2.23,0,0,1,.13-.44.67.67,0,0,0,0-.37.56.56,0,0,1,0-.49.82.82,0,0,0,.11-.51.11.11,0,0,0,0-.07l0,.07a.41.41,0,0,1-.07.11.61.61,0,0,1,0-.12,2.44,2.44,0,0,1,0-.85c0-.12,0-.21-.07-.3s0-.12,0-.18a.88.88,0,0,0-.06-.53.13.13,0,0,1,0-.12.29.29,0,0,0,0-.33.19.19,0,0,1,0-.18c.1-.11.05-.18,0-.24s-.08-.27-.08-.4.13.12.12,0V23c0-.15-.06,0-.1,0l-.07.05s0-.1,0-.11c.18-.12,0-.25,0-.36a2.5,2.5,0,0,1,0-1.09,1.65,1.65,0,0,0,.05-.7A2.87,2.87,0,0,1,7,19.91c0-.09-.1-.21.08-.25s.06-.07,0-.13A.39.39,0,0,1,7,19a.38.38,0,0,0,.13-.32s.05-.08.06-.13a2.42,2.42,0,0,0,0-.24l-.15.17-.07,0v-.08a5.4,5.4,0,0,1,.09-.58A8,8,0,0,1,7.4,17c.14-.32.31-.63.48-1,0,0,.07-.06.1-.1S8,16,8,16v.12a.36.36,0,0,1,.07-.1s.07-.06.08-.09a.83.83,0,0,0,.06-.21L8,15.83H8v-.06a8.08,8.08,0,0,0,.49-1,.27.27,0,0,1,.1-.11h.06a.08.08,0,0,0,0,.07.43.43,0,0,0,0,.11s.07-.06.08-.1a5,5,0,0,1,.37-1s0-.05.05-.05.19-.09.23-.19A.84.84,0,0,0,9.43,13a.64.64,0,0,1,.16-.67c.19-.16.17-.37.22-.56.1-.41.1-.84.21-1.25s.06-.7.17-1a.54.54,0,0,0,0-.18,5.07,5.07,0,0,1,.12-1.35.74.74,0,0,0,0-.21c0-1,0-2.09.07-3.13,0-.29,0-.59,0-.88s0-.64,0-1a5.48,5.48,0,0,1,.1-.56,1,1,0,0,0,0-.25.54.54,0,0,1,0-.18c0-.16.13-.31,0-.48.16-.37,0-.76.05-1.13V0a.31.31,0,0,1,.09.07s.08.13.07.18,0,.32,0,.49a3.64,3.64,0,0,0,0,.57c0,.17,0,.35,0,.52a4.24,4.24,0,0,1-.05.94,3.31,3.31,0,0,0,0,.63V4a3.37,3.37,0,0,1,0,.44,1.69,1.69,0,0,0,0,.45c0,.21-.05.42-.06.63v1a1.42,1.42,0,0,1-.06.58c-.05.13.05.26,0,.41a6.84,6.84,0,0,0-.08.9,8.11,8.11,0,0,1-.06,1.21c-.06.4-.12.86-.18,1.29s-.15,1.07-.25,1.59c-.07.34-.21.66-.28,1-.09.49-.35,1-.48,1.46s-.42.88-.57,1.33-.41.93-.57,1.41l-.36,1v.08c0,.32-.06.63-.06.94a4.91,4.91,0,0,0,0,.86c0,.13-.07.25,0,.4s0,.26,0,.4.07.38.1.57V22a6.24,6.24,0,0,0,.07,1A10.54,10.54,0,0,0,8,24.08v.06c0,.4.05.79.06,1.18,0,.17.14.34,0,.49.12.18.05.38.06.56a2.62,2.62,0,0,0,0,.56c.09.23,0,.48,0,.7a3.17,3.17,0,0,1,0,1c0,.07-.08.13-.12.2s-.06.08,0,.12c0,.35-.23.49-.44.65a11.87,11.87,0,0,1-1.61.87c-.43.24-.85.48-1.27.75-.08,0-.11.16-.18.23a7.36,7.36,0,0,0-.8,1.12,4.25,4.25,0,0,0-.23.77,5.7,5.7,0,0,0-.06.58,1.24,1.24,0,0,0,0,.43c0,.09-.09.14,0,.27a3.5,3.5,0,0,0,.14.59,0,0,0,0,1,0,0c-.15.34.14.57.23.84s.21.6.34.89a9.1,9.1,0,0,1,.61,1.6c.07.23.13.48.18.69a2.94,2.94,0,0,1,.14.88v.32a1.11,1.11,0,0,0,0,.48c0,.36-.08.73-.11,1.1a5.44,5.44,0,0,1-.22,1,2,2,0,0,1-.48.88,1.31,1.31,0,0,1-.37.24c-.3.15-.57.35-.87.48-.48.27-1.05.4-1.55.66a.79.79,0,0,0-.45.69c0,.21,0,.41,0,.62s.08.29,0,.4a1.27,1.27,0,0,0,0,.39,1.39,1.39,0,0,0,0,.41A5.39,5.39,0,0,0,1,49a3.66,3.66,0,0,0,.27,1.13.19.19,0,0,1,0,.08,3.53,3.53,0,0,0,.17,1M8.39,15.25a1.43,1.43,0,0,1-.12.31v.06l.06-.06c.13-.07.1-.19.13-.31L8.6,15H8.54a.89.89,0,0,1-.14.25M.53,49l-.05-.36a4.48,4.48,0,0,0-.06-.62l0-.06s0,0,0,0c0,.41,0,.81.06,1.21h0a.16.16,0,0,0,0-.23M7.86,16.33l-.25.51a.14.14,0,0,0,0,.09s.07,0,.08,0c.11-.19.24-.36.18-.57M.41,46.62s-.06-.13-.09,0a.54.54,0,0,0,0,.18.09.09,0,0,0,0,.07s0,0,.05,0a.34.34,0,0,0,0-.2m0,1.15v.14a.49.49,0,0,0,0-.11,1,1,0,0,0,0-.25.28.28,0,0,0,0-.06.41.41,0,0,0-.07.11,1.47,1.47,0,0,1,0,.17m0-1.89c-.12,0-.09.07-.09.13v.17a.83.83,0,0,1,0-.15.37.37,0,0,0,0-.15M.54,49.5a.14.14,0,0,0,0-.09.07.07,0,0,0,0-.06s0,.15.05.15m7-23.32,0,.07,0,0s0-.07-.07,0m0-1.31v-.08h0s0,.07.06.07m-.37-4.95v0s0,0,0,0M.38,47.21h0Z"/></g></g></svg>