<svg xmlns="http://www.w3.org/2000/svg" viewBox="0 0 103.03 147.86"><defs><style>.cls-1{fill:#6cc7ff;opacity:0.75;}.cls-2{fill:#203384;}.cls-2,.cls-3{opacity:0.5;}.cls-3{fill:#5490e8;}.cls-4{fill:#1a2360;}</style></defs><g id="Layer_2" data-name="Layer 2"><g id="rice-paper-sail-large-2"><path id="fill4" class="cls-1" d="M92.63,3.25C88.09,2.75,83,2.78,80,6.71c-.61.78-.69,2.84-1.22,3.93a9.38,9.38,0,0,1-2.75,4,7.8,7.8,0,0,1-1.46,1c-2,1.58-4.57,3-6.36,4.78-9.74,10.4-14,34.43-32.75,20.59-18.26-8-8.93,2-18.12,3,.21-4.5-2.19-7.11-5.9-3.53C6.27,49.74-5.23,60.33,2.72,71.49c2.77,7.5,11.38,5.88,16,10.36,2.36,15.37-1.65,12.3,6.44,28.06-1.53,7.59.63,14.73,4.47,21.63.36,9.75.08,7.24,4.93,15.14,1.3,1.36,2.54,1.81,2.5-.12,1.16-1.68.41-3.55,1.32-5.28a29.34,29.34,0,0,1,3.91-7.37c1-1.78.14-4.26,1.54-6.09-.76-12.23,7.31-25.18,17.69-31.62,15.53-8.09,6.7-17.54,10.71-30C71.91,58,85.78,55.9,83.35,47.74c.2-3.31,1.69-5.14,1.38-10.53-.5-3.13-.84-5-1-6A79.1,79.1,0,0,1,86.9,22c2.38-6.74,10.84-6.92,13.78-12.73C106.8-8.06,99.81,4.43,92.63,3.25Zm-42,102.48s.06,0,.07,0ZM69.87,87.8l0-.06C69.94,87.8,69.91,87.8,69.87,87.8Zm.48-1.58s0,0,.05,0S70.39,86.22,70.35,86.22Zm.26-1.61,0-.06C70.68,84.61,70.64,84.61,70.61,84.61Zm.18-1.48.06,0S70.79,83.16,70.79,83.13Z"/><path id="fill3" class="cls-2" d="M68.53,89.39l.07,0ZM95.68,4.14C94.05,6,91.76,5.75,89.48,5.31c-10.39,3.11-9,19.36-6.3,27.52,2.49,4.31.36,9.59-.62,14.12,1.65.84.72,2.86-.14,4-1,3-4.76,5.08-6.77,7.73-2.63,4.69-3.9,10.69-5.52,15.83.65,12.39.18,16.7-11,23.39-7.39,6.91-16,15.72-15.44,26.81-.38,1.43-2.55,14.33-3.9,10.66-.18,1.38-1.67,2.76-1.46,4.06.2.27-.24.6-.46.35-.75-3.45,2.77-6.91,2.28-10.58.23-16.44,12.32-27.92,21.74-39.89,1.75-4.84-.23-10.86,2.82-15.3C69.81,69.08,70,61.28,72.4,55.05c1.47-5.66,3.35-11.22,4.46-17-3.53,9.55-11.4,15.81-17.24,23.71-.47.46-1.09,2.2-1.62,1,1.7-6.76,8.25-12,12.48-17.52,7.89-9.58,7.8-21,8.17-32.54C80.47,7.21,86.32.71,92.08,3.75c1,.26,4.06-1.61,3.6.38ZM66.2,85.41c0-.45.07-.91.09-1.37A7.82,7.82,0,0,0,66.2,85.41ZM80.37,42.09c-.08.4-.15.79-.2,1.19.11-.38.25-.75.33-1.14ZM79.91,35c-.08,1.22-.19,2.5-.36,3.73C80.56,37.64,79.72,36.23,79.91,35ZM77.28,49.52l-.18.68c.22-.43.5-.8.35-1.29C77.4,49.11,77.35,49.32,77.28,49.52ZM13.22,50.58c1.83-2.89,5.86-13.91-1.27-9.43-.54.62-2.2,1.18-1.4,2.17-3.64,4.43,1.36,1.17,2.79-.58,1.14,3.39-3.23,6.83-2.2,9.94C10.85,53.9,8.52,57,9.76,57.46,11.15,55.32,12,52.75,13.22,50.58Zm25.44,74.5c1.86-13.33,4.79-26,9.94-38.49.72-1.39,1.15-9.12.2-4.65-1.57,9.21-7.73,16.82-9.49,26-.67,9.54-4.18,20.49-4,29.22C37.47,133.71,37.42,128.93,38.66,125.08ZM34.6,49.35c-5.93-5.08-9.58,5-12.28,8.83-1.14,3.42-5.11,5.52-5.39,9.15,3.9,3.33,10.41,6.37,10.45,12.44-.15,1-1.53.61-1.63-.22C20.13,66.64,4.83,70.66,17.44,53c1.56-3.94,2-9.86,5.47-12.29.71-3,10.16-1,6.29,0-6.86-1.85-7.63,5.05-9.33,10.13-.54,5.13-5.56,8.59-5.23,13.82,4.05-5.17,7-11.18,10.61-16.69,2.44-3,8.45-4.68,10.51-.61C37.66,49.85,37.35,53.65,34.6,49.35ZM15.68,65.21a5.49,5.49,0,0,1,.2-.57A3.34,3.34,0,0,0,15.53,66,3.25,3.25,0,0,1,15.68,65.21ZM30.34,91.13c-1.44-4-4.67-9-9.37-9.14h0l-.1,0c-.13-.41-.53-1-.88-.46v0c.59,6.88-1.2,22.88,5.64,25.69-3.73-7.68-3.35-16-4.4-24.32,8.89,3.89,8.78,15.4,10,23.62C34.91,105.83,31.12,94.6,30.34,91.13Zm5.35-3.7c-2.76-10.34.5-21.54,3.6-31.41,2.78-5.69,8.94-8.93,13.36-13C61.28,36.9,62.21,24,71.14,18.15c1.07-.2.39,1-.13,1.3-3.2,3.55-5.3,7.82-8.08,11.7-2.08,3.07-3.7,6.58-5.72,9.7C52.66,48.6,42.39,53.76,41,63.15c-1.23,6.4-2.57,12.8-3.55,19.25C38.47,86,39.83,97,35.69,87.43Zm11.1-37.51.06-.06A.09.09,0,0,0,46.79,49.92Zm.25-.24.15-.15C47.13,49.52,47.08,49.63,47,49.68Z"/><path id="fill2" class="cls-3" d="M41.69,96.79c-4.76,12.65-3.82,31.71-7.07,41.86.32-18.12,3.39-36.57,10-53.46C44.81,88.39,42.29,93.06,41.69,96.79Zm-4.87-9.64c1.39-17.33,9.86-33.91,20.39-46.62C45.27,52.11,36.25,71.31,36.82,87.15ZM27.1,81.79c-.9,12.55,3.82-5.3-2.67-8.92-7.65-5.72-.27-32.59,9.58-25.6a9.52,9.52,0,0,1,1.54,5.61c1.83-.9.3-6.91-2.23-8-10.22-2.67-16.12,17.33-12.25,25-9-6.24,6.06-18.82-.95-24.61C23.41,51.4,17.45,57.31,17,63.37,16.44,71.39,27.85,73.43,27.1,81.79Zm-15-37.72c1.67,5.53-5.15,14-4.91,19.79C8.28,58.33,15.86,48,12.06,44.07ZM69.94,64.48c-8.36,8.43-4.19,23.07-11,30.92C67.64,89,63.57,72.52,69.94,64.48ZM49.3,106.88a62.53,62.53,0,0,0-7.07,13c1.8-16,13.87-28.61,17.9-44-5.42,15-16.76,29.88-18.89,46.74C38.43,102.44,62.86,85.16,59.31,67c-4.58,24.61-22.49,43.72-20.51,70.38A86.9,86.9,0,0,1,49.3,106.88ZM82.9,44.34c-3.69,5.21-7.59,10.25-11.6,15.21C75.37,56.93,80.91,48.91,82.9,44.34ZM75,40.7c1-2.71,5.1-17.42,1-7.38.4-6.17,2.08-13.12,2.45-18.82C76.39,33.24,70.9,50.3,57.36,64.15,64.75,61.06,71.05,47.47,75,39.1,75,39.63,75,40.16,75,40.7ZM97.72,3.27C94.63,7.39,88.1,5.7,84.92,9.89c.11-1.6,3.84-4.18,2.76-5-2.63,1.23-7.83,12.74-5.79,11.68-1,10.88-4.14,23.55-3.37,33.54,4.71-13-1.35-32,9.9-41.37C90.94,7.3,98.66,6.33,97.72,3.27ZM34.83,122.77c-3.08,1.51-2.34,9.76-2.23,13.57C27.93,124.09,30,110,28,97.08c-.17,9.52,1.32,21.21,1.8,31.44-3.62-14-.15-29.26-5.43-42.83,2.9,12.59,1.88,42.06,6.26,47.71,2.45,2.93,2.27,9.71,4.62,11.21C33.14,137.44,33.41,130,34.83,122.77ZM41.22,73.4A110.09,110.09,0,0,1,54.83,46c-.4,1-2,2.72-1.76,3.41C60.53,37.78,69,26.93,77.2,15.88,62.89,31.7,47.76,52,41.22,73.4Zm-7.4-20.14C31.76,35.56,16.88,68.84,25.91,74,18.22,68.71,30.68,36.22,33.82,53.26Z"/><path id="fill1" class="cls-4" d="M69.28,63.75c1.37-1.79,1.36-6.88,3.16-7.08a39.12,39.12,0,0,1-7,16.37c-2.62,3.73-2,8.63-2.21,12.72C60.34,77.53,66.43,70.94,69.28,63.75ZM100.69,9.31c-3,5.81-11.41,6-13.79,12.73a79.84,79.84,0,0,0-3.23,9.18c.22,1,.56,2.87,1.06,6,.31,5.39-1.17,7.22-1.38,10.53C85.78,55.9,71.91,58,72.22,66.19c-4,12.47,4.81,21.92-10.71,30-10.38,6.45-18.45,19.39-17.69,31.62-1.4,1.83-.52,4.31-1.55,6.09a29.3,29.3,0,0,0-3.9,7.37c-.9,1.72-.15,3.6-1.33,5.29.05,1.93-1.19,1.47-2.49.11-4.85-7.9-4.57-5.39-4.93-15.14-3.84-6.9-6-14-4.47-21.63-8.09-15.76-4.08-12.7-6.44-28C14.1,77.37,5.49,79,2.72,71.48c-8-11.15,3.55-21.74,8.68-30.94,3.73-3.58,6.13-1,5.92,3.52,9.19-1-.15-11.06,18.1-3,18.72,13.84,23-10.19,32.76-20.59,1.79-1.75,4.32-3.19,6.36-4.78a8.3,8.3,0,0,0,1.46-1,9.39,9.39,0,0,0,2.75-4c.52-1.08.61-3.15,1.22-3.93,3-3.91,8.13-3.95,12.66-3.44C99.81,4.43,106.8-8.06,100.69,9.31Zm-63,58.13c4.36-5,2.05-5.76,4-11,1-3.9,3.53-5.4,6.82-7.19,1.43-3.26,4.63-4.61,7-7C60.35,37.86,62,31.14,65.62,25.67c-3.16,3.46-5.84,10.45-9.36,14.74C47.75,47.82,35.21,53.84,37.72,67.44Zm-16-23.62c2.31-1.22,2.3-5,5.74-3.64,4.92-.52-.77-1-3-1.32C23.52,39.68,20.84,43.66,21.7,43.82ZM92.76,4.17c-22.3-4.06-9,28.91-20.14,41.19-.51,4.94-5.15,6.46-7.78,9.94-1.51,1.76-7.62,8.3-4.08,3.68-.78-.83,3.8-3.6,4.24-5.56,1.45-1.91,4-2,4.81-4.38,2.37-3.4,3.79-7.63,5.27-11.58,3.39-6.88,2-15.16,3-22.57-1.19.64-2.94,1.85-4.33,2.81-8.5,5.77-10.14,17.27-17,24.56-2.52,2.78-6,4-7.6,7.51-1.4,1.57-3.59,1.54-4.92,3.07-3.51,4.92-1.88,10.77-6,15.28-3.13,5.51-1.35,13.18.4,19.32-3.4-6.56-3.18-13.76-1.47-20.73-1.33-8.06,3.15-14.83,9.21-19.85-6-2.28-13.85-7.15-20.87-6-3,6.49-8.86,1.36-11.46,8.36-1.2.89-1.89,3.67-2.94,3.87,1.31-4.24,6.36-7.56,4.79-12.33-2.49-3-5.86,2.68-6.3,4.94,1.05-1.29,4.79-2.52,3.36-3.46,0-.59.16-.84.41-.87l.07,0a.86.86,0,0,1,.58.86,1.87,1.87,0,0,1-.37,1.11A15.64,15.64,0,0,1,12,45.19C1.77,51-3,66.06,6.32,74.8c13.15,6.87,25.1,7.37,24.61,26.35C29.22,95.57,28.52,83,20,82.37c1.63,8.19-1.22,18.17,5.22,24.77.36-4.52-1.92-10.51-1.08-15.61.44,2.44.23,6.9,1.42,9.91,2.15,6.92-1.7,14.35.83,20.78,1.46,3.42,3.49,6.83,4.19,10.51.74,3.17-1.12,8.14,2.73,9.72,4.53,9.09,2.92.4,5.15-4.47a10.94,10.94,0,0,0,3.3-7.53c.52-2.12,1.49-3.76.89-6.09a41.89,41.89,0,0,1,6.37-17.07c4.27-10,18.71-12.12,21-22.21.76-7.28-.85-15.17,1.64-22,.93-1.65,1.68-4.39,2.86-5.39-.13.58-1.79,3.79-.9,2.76,2-4.64,9.48-6,9.18-11.39.45-3.82-3.08,1.53-4.34,2.7-3.8,4.75,0-1,1.6-3,3-2.55,4.65-8.19,4-12.53-.26-1.66-.47-3.24-.58-4.33C80,43.11,76.09,57.41,79.58,41c2.54-10.69-3.85-30.68,8.19-35.47C82.7,8.84,81.07,18.46,81.22,26c.19,3.2-.34,6.73,0,9.74.64-1.94,2-4,2.13-6.24C84.2,14.32,97.62,16.28,100.79,6,105.48-5.19,97.33,6.58,92.76,4.17ZM47.9,82.08c-1.71,9.41-9.09,17.86-10.26,27.68-1,9-1.4,18.56-2.57,27.31,1,5.65,2.94-26.63,3.72-29.89C40.23,98.7,48.49,90,47.9,82.08ZM56,77.77c.62-.45.72-2.31-.3-1.4C54,87,45.41,95.05,43.16,105.3a53.37,53.37,0,0,0-2.3,14.22c1.08-5.14,1.77-11.57,3.69-16.89C47.67,94,54.82,87.1,56,77.77ZM36.18,48.05c-1.93-3-7.09-1.41-9.81.41-2.45,2.66-2.69,7-5.11,9.77-.38.7-4.17,5.17-1.91,4.39C24.14,56.94,26,43.27,36.18,48.05ZM19,46.28c.07,5.59-4.14,10.74-6.76,16C10.49,71.53,23.41,72.47,26.3,79.76c-.4-5.61-8.49-7.18-11.5-11.58C8.55,61,22.86,54,19,46.28Zm36.6-5.52c.06,0,.06,0,.07.05l-.07-.05m22-11s.06,0,.07.07l-.07-.07m-26.94,76s.06,0,.07,0l-.07,0m19.31-18c0,.05,0,.05,0,.05l0-.05m.48-1.58c0,.06,0,.06-.05.06l.05-.06m.25-1.61c0,.06,0,.06,0,.06l0-.06m.2-1.38c-.06,0-.06,0-.06,0l.06,0M38.27,67.06c0,.06,0,.06,0,.07l0-.07m-.93-2.17c0,.06,0,.06,0,.06l0-.06m7.87,25.74c.08,0,.07.06,0,.09l0-.09M48,82.89l0-.06S48,82.88,48,82.89ZM30.77,47c-.06,0-.06,0-.06-.05l.06.05m-1.31.65c.06,0,.06,0,.06,0l-.06,0"/></g></g></svg>