<svg xmlns="http://www.w3.org/2000/svg" viewBox="0 0 66.82 162.84"><defs><style>.cls-1{fill:#6cc7ff;opacity:0.75;}.cls-2{fill:#203384;}.cls-2,.cls-3{opacity:0.5;}.cls-3{fill:#5490e8;}.cls-4{fill:#1a2360;}</style></defs><g id="Layer_2" data-name="Layer 2"><g id="rice-paper-sail-large-3"><path id="fill4" class="cls-1" d="M66.38,84.1a4.73,4.73,0,0,0-1.37.4,3.35,3.35,0,0,1-2.12.35l-.38-.08h-.09l-.44,0h0a1.77,1.77,0,0,0-.46.15h0c-.12.08-.25.15-.36.24l0,0a2.7,2.7,0,0,0-.28.31l0,0c-.07.12-.14.24-.2.37a.43.43,0,0,1,0,0c0,.14-.07.27-.1.41-.36.58.52,1.93-.2,2.66-2.31,3.47-2.54,8-5,11.38-.78.88-2.21.84-2.78,2-1.75,1.52-1.31,3.45-1.31,5.46-1.12,3.7-1.09,7.73-2.9,11.18a55.4,55.4,0,0,1-4.64,10.13,47.55,47.55,0,0,1-3.73,9.2.43.43,0,0,0-.11.12c-.2.32-.4.65-.59,1l-.21.21a14.2,14.2,0,0,0-1.17,1.38c-.16.2-.31.42-.47.63,0-.07-.13,0-.23.15-2.17,2.81-5,5.23-5.22,9-2.28,5.21-2.54,4,1.37,8.22,2.2,5.63-6.77,3.21-9.43,3.34-10.42,1.3-5.1-11.75-3.76-17.39a.32.32,0,0,0-.32-.37c-2.94.33-3.51-2.24-4.18-4.46a4.08,4.08,0,0,0-2.07-2.41c-1.39-1.13-1.67-3-2.59-4.44-2.12-6.42-4.31-13.79-9.44-18.56-2.09-3.68-1.56-8.59-.46-12.34.76-2.18,2.65-3.66,3.32-5.86,1.52-2.57,2-5.6,2.64-8.5a57.51,57.51,0,0,1,5.83-14.18,53.88,53.88,0,0,1,7.81-7.4c2.65-1.87,5.09-3.91,7.68-5.78-1.27-1-2.53-7.79-2.85-9.12C24,43.14,13.56,39.45,12.07,30.69c-2.09-7.85-5-8.84-2.25-17.6.39-1.1,1.1-2.11.61-3.29-.43-.69.11-1.47.22-2.1.75-1.29,2.29-2.17,2.94-3.65.91-1.5,1.31-3.58,3.23-4,1.42-.31,1.32,3,3.51,2.2,4.36,1.1,1.07,4.27,2,6.75a8,8,0,0,0,3.19,4.17c1.47,1.2,3.51.23,5.26.76a18.94,18.94,0,0,1,9.94,4.37c1.1.7,1.19,1.89,1.56,3C43,22.7,43.88,24,44.5,25.5c2,3,4.48,5.78,6.5,8.65.68.77-.12,1.62,0,2.46.07,1.25.83,2.34.92,3.59.51,1.15,1.08,2.15.68,3.48-.22.51-.76.91-.77,1.53.73,1.42,3.27,2,4.56,3.21,3.3,2.74,1.47,7.78,2.14,11.5,2.1,3.85,5.63,7.44,5.81,12.07.27,1.56,1.19,2.91,1,4.57,0,1.68,1.13,3.09,1.49,4.67A6.55,6.55,0,0,1,66.38,84.1Z"/><path id="fill3" class="cls-2" d="M49.68,113.22c-1.81,7.36-6,13.56-8.42,20.16-1.89-1.86,2.41-8,3.62-10.62-.59-2.55,1.86-7,3.63-8.32C48.66,114,49.31,112,49.68,113.22Zm-26.9,41.71c-2.73-.1-1.74-9.8-5.06-12.23-.47,2.25-1.61-1.88-1.78-2.65a.34.34,0,0,1,.36-.46c-3.73-3-5.16-7.22-6.3-11.81a.37.37,0,0,1,.72-.2c1.38,3.29,3.48,6,5.37,9,.93-.4,1.55,1.49,1.85,2.18C19.2,143,21.64,149.36,22.78,154.93ZM12.2,132.07c.05.08.05.24.14.25a1,1,0,0,1-.1-.27Zm1.2,1.76-.06-.13,0,.13ZM50,69.9c-4.3,3-4,9.6-6.15,14.09-10.51,15.35-18.42,31.07-15.56,50.4a32.42,32.42,0,0,1,2.88,13.85c1.15-.24-1,6.13-1.5,4.68.09-.32-.34-.29-.24-.64-7.38-36.11-1.14-43.42,14.31-74.7-11,13.49-28,25.94-26.64,44.6C15.33,104.5,24.86,88.89,39,79.3A108,108,0,0,1,52.66,66.13C55.66,64.64,51.94,70,50,69.9ZM29.61,144s-.12,0-.16-.1C29.43,144,29.53,144,29.61,144ZM7.67,89.57s0-.08.08-.1c4.54-5.13,5.73-13.35,11.31-18,3.3-1,9.06-3,9.29-7.73,4.43-5.2,13-8.56,12.55-16.41.08-1.19-1.77-1.18-1.86,0-2.42,6.79-8.56,12.55-14.35,16.26C20.76,67.35,15.62,70.22,13.13,75,11,77.33,6,88,7.67,89.57Zm7.91,1.92c2.57-1,3.4-3.48,5.12-5.28,2.11-.78,3.63-2.18,3.78-4.51,3.06-.14,15.12-14.12,10.71-14.15-4.38,6.09-8.95,11.6-15,15.12-3.88.68-3.76,5.43-7.3,6.77-2.41,1.45-6,3-6.82,6H6C8.46,94.61,12.33,92.28,15.58,91.49ZM25,19.43c3.06,7.91,6.52,16.65,13.67,21.79,1.62-.53-1.71-2.59-2.22-3.35C31.82,34.46,21.43,0,25,19.43ZM9.39,16.57C11.08,13,10.74,3.67,15,4c-3.37,4.25-3,10.15-2.66,15.31,5.34,8.27,5.78,18.45,12,26.21-6.11-.15-11.65-13.12-13.19-20C8.22,24.64,10,18.91,9.39,16.57ZM16,34.15c-.07-.29-.13-.58-.2-.87C15.56,33.61,15.84,33.83,16,34.15ZM43.33,26c2,4.29,9.31,12.36,5,16a14.91,14.91,0,0,1-4.78-4.8c-1.87.27,2,4.19,2.87,5.2,7.64,8.52,4.66-5.83,3.44-9.53C47.79,30.51,39.15,17.47,43.33,26ZM62.19,82.83h0c-.48-1.9.52-5.43-.68-6.56-.06-.43-.11-.85-.15-1.28.92-3.42-2-9.71-3.08-13.88,1,7.32,4.29,16.91.51,25.05-1,6.12-5,12.79-7.58,16.64,7.28-4.22,6.21-14.34,10.34-20C61.17,85.2,63.12,83.26,62.19,82.83Z"/><path id="fill2" class="cls-3" d="M44.46,77.1a69.13,69.13,0,0,0-23.71,41.66C16.49,108.34,32.69,80.14,44.46,77.1Zm3.63-1.73c-12.54,16.07-25.78,49.7-17.45,64.87C23.9,120.63,39.05,91.93,48.09,75.37ZM5.89,94C14,83.32,34.7,75.91,36.56,62.42,30.46,76.33,11.8,82.1,5.89,94Zm18.8-77.28c2.22,4.86,8.86,18,13.56,15.33C33.39,31.58,22.31,6.8,24.69,16.73Zm-10.81.67c.91,3-2.17,6.44,1.63,9.24-1.42,5.1,5.33,16.72,10.43,17-8.14-5.7-7.44-14.42-9.39-22.28,1.86-6.23-6.4-7.68-1.29-15.5.61,2.86,0-1.36.63-2.51C12.68,3.24,9,14.86,13.88,17.4Zm37.46,65c5.39,6.15-.5,17.09.29,21.6C54.67,97.92,56.47,86.8,51.34,82.37ZM45.31,98c1.27,8.58,1.29,21.2-3.47,30.42C48.67,124.75,49,106.19,45.31,98ZM31,159.71c-9.91,1.59-4-11.44-7.54-17.23-4.69-9.85-13-15.71-18-25.33-3.09-5.88,3.58-9.85,5.86-14.53-2.56.5-8.87,8.7-7.25,13.13C-.55,108,8.56,100.13,14.77,96.63c-4.29-1.69-14,8.9-13.65,15.06,1.26,7.43,9.1,12.25,11.27,18.93-.59,4.76,6.11,5,5.5,10.17C22.23,146,20.72,166.85,31,159.71ZM57.84,58.29c-1.9-8.62-13.68-10.84-17.41-16.75C42.92,47.92,55.5,52.72,57.84,58.29ZM28.1,60.07c4.74-2.22,11.25-9.6,9.6-13.91-1.05,4.21-2.8,8.66-6.56,11.16,5.07-4.74,4.75-15,.17-18.54,1.12,3.91,4,7.53,2.68,11.78-.81-6.39-4.89-17.82-9.18-20C30.77,40,36.48,51.65,28.1,60.07Zm18.08,8.72c-8.08,7.34-16,14.8-20.7,24.94,2.3-1.47,3.79-6.16,5.91-8.66,4.44-10.62,25.4-14.95,18.83-27.63C49.31,61.54,54.28,65.19,46.18,68.79Z"/><path id="fill1" class="cls-4" d="M66.79,81.23c-.36-1.58-1.44-3-1.48-4.67.2-1.65-.72-3-1-4.57-.19-4.62-3.72-8.22-5.81-12.07-.67-3.71,1.15-8.76-2.14-11.5-1.29-1.24-3.84-1.79-4.57-3.21,0-.62.56-1,.78-1.53.4-1.33-.18-2.33-.68-3.48-.1-1.25-.85-2.33-.92-3.59-.11-.84.69-1.69,0-2.46-2-2.87-4.55-5.65-6.5-8.65C43.88,24,43,22.7,42.3,21.27c-.37-1.11-.45-2.3-1.55-3a18.91,18.91,0,0,0-9.94-4.38c-1.76-.53-3.8.44-5.26-.76A7.94,7.94,0,0,1,22.36,9c-1-2.48,2.33-5.65-2-6.75C18.14,3,18.23-.29,16.81,0c-1.91.44-2.32,2.52-3.23,4-.64,1.48-2.18,2.36-2.93,3.65-.11.63-.65,1.41-.22,2.1.48,1.18-.22,2.19-.61,3.29-2.74,8.76.15,9.75,2.25,17.6C13.56,39.45,24,43.14,25.4,51.62c.32,1.33,1.58,8.13,2.85,9.13-2.6,1.86-5,3.9-7.69,5.77a54.92,54.92,0,0,0-7.81,7.4A58.29,58.29,0,0,0,6.92,88.1C6.26,91,5.81,94,4.28,96.6c-.67,2.2-2.55,3.69-3.31,5.86-1.11,3.75-1.63,8.66.46,12.34,5.12,4.77,7.32,12.14,9.44,18.56.92,1.44,1.2,3.32,2.59,4.44a4.11,4.11,0,0,1,2.07,2.41c.67,2.22,1.24,4.79,4.17,4.47A.3.3,0,0,1,20,145c-1.33,5.64-6.65,18.69,3.77,17.39,2.66-.13,11.63,2.29,9.43-3.34-3.91-4.17-3.65-3-1.37-8.22.2-3.76,3-6.18,5.22-9,.1-.16.19-.21.22-.15.16-.21.31-.43.48-.63a17.06,17.06,0,0,1,1.17-1.38l.2-.21c.19-.33.39-.66.59-1a.46.46,0,0,1,.12-.12,47.55,47.55,0,0,0,3.73-9.2,55.62,55.62,0,0,0,4.64-10.12c1.81-3.45,1.77-7.49,2.9-11.18,0-2-.45-4,1.31-5.47.56-1.15,2-1.12,2.78-2,2.47-3.42,2.69-7.91,5-11.38.73-.73-.16-2.08.21-2.66a3,3,0,0,1,.09-.41s0,0,0,0,.13-.25.2-.37a.05.05,0,0,1,0,0c.09-.11.19-.21.28-.31l0,0a2.21,2.21,0,0,1,.36-.23l0,0a2.06,2.06,0,0,1,.46-.15h0l.45,0h.09l.38.08A3.35,3.35,0,0,0,65,84.5a4.66,4.66,0,0,1,1.36-.4A6.41,6.41,0,0,0,66.79,81.23ZM11.84,27.6C10,23.7,8.24,19.72,10,15.44a17.18,17.18,0,0,1,1.13-3.92c.4-1.17-.42-2.14-.05-3.29.66-1.2,2-2.19,2.66-3.45a1,1,0,0,1-.41,1,9.41,9.41,0,0,1-.48,2.44c-.34,1.31-1.72,2.23-1.29,3.71-.43,1.23.6,2.38,0,3.58-1.1,3-1.58,5.69-.21,8.7.54,2.15,2.66,3.71,3.77,5.6.89,1.39.45,3,.65,4.45a36.47,36.47,0,0,0,1.94,4.65c.52,1.33,3,2.61,2.92,3.62A26,26,0,0,1,11.84,27.6Zm-3,56.29c1.78-5.29,4.23-10.8,8.86-14.26,6.23-5.49,14-9.46,18.73-16.34,3.59-4.21.12,2.77-1.46,3.36-.37.5-1,.69-1.43,1.13-1,.28-.9,1.61-1.75,2.14-1.61.82-2.62,2.39-4,3.52-1.37.71-.71,2.6-1.69,3.6-1.33,1.56-2.81,3.25-5.06,3.06-2.83.27-3.94,3.55-5.7,5.34-.69,1.7-2.69,2.83-2.92,4.64a5.62,5.62,0,0,1-2.36,5C9.31,86.25,9,87.71,8,88.78,6,93.45,8.21,85.16,8.88,83.89Zm6,54.15c-3.52-2.26-3.43-6.9-5.24-10.28,1.17.91,1.88,2.28,2.91,3.33,1.39.64,1.21,2.28,2.05,3.34a18.71,18.71,0,0,0,2.31,3.34c.49.35,1.17.32,1.45.93,1.25,2.87-1.82,3.75,1.37,5.36C16.11,144.44,17.07,139.73,14.91,138Zm14.88,15.52c.49-3.8-.55-7.67-1.45-11.41-.69-3-.33-6-.51-9C29.67,139.33,33.79,147.91,29.79,153.56Zm11.75-19.69c-1.17-3.85,3.62-9,4.11-13.42-.56-3.2,2.35-4.71,3.57-7.3C48.55,120.57,42.81,126.58,41.54,133.87ZM65.37,83.75c-1.07.45-3.25.93-4.08.26,0-3.27,1.23-6.45.52-9.58.23-.4-.35-.29-.4-.06.38,2.76-.6,5.48-.66,8.25a7.35,7.35,0,0,1-1,3.92c-.22.68.34,1.2,0,1.83-2.56,3.64-2.36,9.36-5.89,12.09-.82.1-1.2.86-1.61,1.44-3,2.46-.86,4.76-2.12,7.81-.66,3.16-3.2,5.37-4.79,7.88A24.45,24.45,0,0,1,44.26,123c-.32,2.21-2.06,3.86-2.76,6-.84,1.59-.52,3.62-1,5.35-1,5.16-5.55,8.34-8.25,12.52-.21.59-.36-.11-.32-.37-.33-6-3.23-11.26-4.53-17-.49-6.18-.82-12.66,1.87-18.57a2.64,2.64,0,0,0,.28-1,36.07,36.07,0,0,1,2.56-7.46c0-.1.06-.21.1-.32A17.31,17.31,0,0,1,34.75,97c3.26-5.44,7.93-10,9.81-16.3.87-3.71.82-8.33,4.73-10.32.6-.26,1.24-.51,1.86-.79l0,0,0,0a5.6,5.6,0,0,0,.49-.36,13.37,13.37,0,0,0,1.14-1L53,68l.12-.14a5.46,5.46,0,0,0,.43-.55l.18-.28s0,0,0,0a.09.09,0,0,1,0,0l.11-.27h0a.32.32,0,0,1,0-.09c-.14,0-.31,0-.4.25-1.14,2.13-3.89,2.31-5.59,3.7-2,2-3.61,4.3-3.41,7.22-.68,3.89-2.64,7.33-4.62,10.7-1.33,2.62-3.72,4.62-5.19,7.1-1.84,3.85-4,7.55-4.81,11.69,0,.19-.48,1.91-.53,2.57h0a1,1,0,0,1-.3.85c-2.68,5.22-2.65,11.45-2.34,17.28.73,6.38-.06,13,2.18,19.12.26,3,.39,6,.67,8.89.61,1.78,5.53,4,2.41,5.69-2.34,1.07-4.77.53-7.19,0-2.49.41-5.59.32-6.57-2.52-.43-4.61.88-9.22,2.38-13.53.12,2.71,1.22,5.35,1.77,8-.14,1.27.63,2.19.51.47a10.9,10.9,0,0,0-.62-3.57c-.14-.41-.27-.83-.39-1.25s-.29-1-.39-1.54c-.05-.22-.07-.44-.11-.65l-.12-.37c-.05-.22-.07-.45-.11-.67a1,1,0,0,1,0-.17,2.56,2.56,0,0,1,0-.55,3.45,3.45,0,0,1-.08-1A2.18,2.18,0,0,0,19.46,143c-1.41-.71.61-2.74-.31-4,0-.85-.55-1.17-1.07-1.44-2.06-1.36-3.12-3.94-4-6.15C10.26,128.3,8,124,6,119.57c-.91-3-4.91-4.3-4.8-7.59-.21-.52-.18-1-.4-1.53a18.77,18.77,0,0,1,1.25-8.71c.83-1.44,2.08-2.51,2.62-4.06,3-3.9,4.36-4.6,8.81-5.88,1.37-.9,2.78-1.74,4.18-2.6,1.39-1.46,1.73-3.68,3.49-4.9,3-2.52,6.49-4.6,8-8.45A17.26,17.26,0,0,1,31.46,73c-.11-.38,1.87-1.63,1.24-1.71-3.21,3-5.16,6.91-8.38,9.87a20.92,20.92,0,0,0-5.07,4.38c-.78.81-.94,2.09-1.64,2.9-2,1-3.75,2.69-5.93,3.33-2.4-.26-4.33,2.31-5.74,3,1.2-4.64,4.63-8.48,6.88-12.62-.12-3.31,2.5-5.75,4.47-8.21,2.39-4.71,5-2.07,8.22-5.14,1.32-1.39,1.75-3.07,2.45-4.74,3-3,6.17-5.69,9-8.73a51.88,51.88,0,0,0,2.77-5.71c0-.53,1.11-6.09.27-3.25-.66,1.12-.51,2.4-1.22,3.41a51.41,51.41,0,0,0-4.23,5.13,5.82,5.82,0,0,1-2.4,2c-1.29,1-1.77,2.7-3.36,3.4l-.18.14a26.26,26.26,0,0,1-2.33-7.75c-.24-4-2.92-7.64-5.35-10.91-2.67-2.68-5-6.23-4.53-10.18C13,23.87,8.94,24.36,12.49,14.44c-1.59-3,1.2-5.23,1.35-8-.33-1.12,1-2,.95-3.07C16.21-.22,16.65,0,18.68,2.64c6.2-.14,1,4.75,3.53,7.78.19.42.77.85.94,1.29a5.4,5.4,0,0,1,1,2.51c.28,1.19.43,2.41.63,3.61.12.68.26,1.34.41,2,2.48,7,6.42,14.27,11.45,19.59-2.37-4-5.86-7.79-7.6-12.37-2.23-4.18-4.87-9.75-4.31-14,1.08,1.51,2.93,1.37,4.55,1.26,2.64.39,5.51.59,7.78,2.17,1.48,1.07,3.55,1.71,4.21,3.54.49,2.17,1.94,3.94,2.72,6,2,2.12,3.49,4.66,5.31,6.89a4.87,4.87,0,0,1,1.52,2.26c-.16.62-.51,1.21-.29,1.85.1,2.39,2.32,4.72,1.23,7A1.51,1.51,0,0,0,51.15,45c-.79.21-2.94-1.32-3.56-2.11-.81,1.07,4.37,3.58,5.55,4,5.27,2.66,4.61,5.11,4.67,10.36-.64,3.26,1.9,5.16,3.33,7.68a29.85,29.85,0,0,1,3.64,12.18C64.93,79.22,67.42,82.12,65.37,83.75Z"/></g></g></svg>