<svg xmlns="http://www.w3.org/2000/svg" viewBox="0 0 92.68 149.05"><defs><style>.cls-1{fill:#6cc7ff;opacity:0.75;}.cls-2{fill:#203384;}.cls-2,.cls-3{opacity:0.5;}.cls-3{fill:#5490e8;}.cls-4{fill:#1a2360;}</style></defs><g id="Layer_2" data-name="Layer 2"><g id="rice-paper-sail-large-4"><path id="fill4" class="cls-1" d="M92.68,16.45c-.46,2.5,0,6.37-2,8.13-3.1,1.47-3.72,4.27-4.32,7.12-5,4.1-10.63-1.53-16.06-.23-.6,3.29.11,7,.83,10.29-4,7-6,8.68-1.17,16.17.44,6.18,7.75,6.14,9,11.62,2.27,6.73-1.7,8.76,6.41,12.26,3.79,2.22-2.26,4.3-1.13,8-2.1,1.77-9.63,2.86-8.45,6,2.29,1,7.61,6,4.29,7.72-13.14,9.38-10.74,4.62-23.66,6.33-15.29,3.68-10.53,10.09-29.66,8.41-1.74.63-4.29,1.11-6.84,1.74-.47.06-.94.12-1.41.21a18.4,18.4,0,0,0-5,1.75c-2.36,1.2-5.07,3.63-4.2,6.54.89,3.69,4.57,7,6.11,10.63,2.83,4.1,4.31,6.85.2,9.9a2.45,2.45,0,0,1-.6-1.84c1-3.07-3.08-5.18-4-7.84-13.46-18.12-14.8-17-2.66-37.41,5.74-9.7,6.45-21.93,15.79-29.65,21.64-16.68-6.44-38.56-12.78-56.23C9.15,11.87,8.67,4,13.47,1.7c3.83-1.87,7.28.22,11.21.38,9.34.42,18.38.21,27.74,2.17A156.14,156.14,0,0,0,82.22,0c9.26,1.46,1.8,5.31,3.65,7.88,1.13,1.71,3.56,2.21,3.58,4.5C89.82,14.16,92.2,14.65,92.68,16.45Z"/><path id="fill3" class="cls-2" d="M41.37,77.32C29.69,91,13.9,105.86,9.76,123c6-11.44,14-18.3,33.22-21.22C65,89.17,59.44,98.49,74.13,93.25,72.67,92,68.57,94.81,66,93.7c-2.37-.49-4.57-1.35-7-1.08-11.79,4.08-23.8,8.2-35.68,12.42,9.51-14,32.76-29.76,23.11-48.59A24.81,24.81,0,0,1,41.37,77.32ZM54.14,95.63a.86.86,0,0,0,0-.32c.63-.17,1.27-.3,1.91-.42C55.43,95.16,54.78,95.39,54.14,95.63ZM15,112a2.94,2.94,0,0,1,.3-.42l.06,0ZM9.65,132.36c-3.72-8.63-.88-17.88,6-24.11,8.14-16.4,22.49-32.36,18-51.82C33,51.37,31.35,73.23,29,75.13c-8.91,9.63-10.29,22.66-17.6,33-10.09,10.76-5,26,3.59,35.45a4,4,0,0,1,.41,2.36.5.5,0,1,0,1,.09C18.91,140.72,12.38,136.23,9.65,132.36ZM7.1,125v0A.42.42,0,0,0,7,125Zm-.3-.08A.38.38,0,0,0,7,125c-.06,0-.1.07-.16,0S6.8,124.94,6.8,124.9ZM60.25,14.14c-1.81,9-5.49,20.19,0,28.6,1-1.69-3-6.14-2.23-9.27.35-6.71,3.8-12.77,5.08-19.33.88-.38,2.06-.32,2.58-1.37,5.16-.07,17.18,1.3,18.06-4.75,6.54-6.54-3.07-9,.59-5.9.27,12.91-17.72.38-21,9A3.13,3.13,0,0,0,60.25,14.14Zm25-11.43c-.06,0,0-.06,0-.1A1,1,0,0,1,85.25,2.71ZM25.07,26.87c-.43,2,2.28,10.9,4.54,9.05,2.21,2.36,4.15,5,6.38,7.3,1.13-.94-2.4-3.89-3.22-5.16-8.84-9.17-5.39-26.31,9.83-26C35.86,15.87,34.74,25.54,34,32.55c1.75.16,3.49-10.37,4.87-12.82C40.13,14.09,50,13.61,51.6,10.42c1.4-1.73,10.92-4.52,9.16-6C48.84,9.61,21.07,7.54,25.07,26.87Zm1.45,3.68.14,0q.18.54.39,1.08A8.61,8.61,0,0,1,26.52,30.55ZM50.76,8.81l-1.21.33,1.3-.38ZM83.09,81.37c-7.27-3.31-2-15.44-10.78-17a50,50,0,0,1-2.53-4.61c-1,.39,1.17,3.68.85,5.12.74,4.27,5.92,6.43,5.09,11.1-.88-.83-.12-2.81-1.52-3-7.16.24-5.83-10-9.55-13.54-2.86-8.34-15.61-8.17-17.84-18-.26-.52-1.2-.14-1,.41,2.22,8.13,9.49,11.38,16,15.22,2.7,5.75,3,13.21,8.5,17.24-.26,2.7,2.59-.39,3.07,1.38-.74,6.12,5.26,6.58,8.65,9.59C80,89.66,88.24,85.13,83.09,81.37Zm-7.22-1.71h0ZM88.31,24.83C78.72,31,84.78,30.18,72.44,28,72.73,21.46,79,17.33,83,12.84c-1.53.13-4.19,3.5-6.2,4.7.79-1.8,4.88-3.2,5.06-4.71-12.2,7.87-16.81,14.3-13.56,28.79-4.58,5.38-4.87,13,.75,17.84.3.31.85-.1.61-.47-5.3-5.34-3.32-11.4.2-16.41,1.53-3.93-.91-7.93-1.19-11.94C78.75,30.47,84.35,37.92,88.31,24.83ZM71.69,28.15l.1-.37a2.26,2.26,0,0,0,.13.33Zm-1.2-1a3.07,3.07,0,0,0-.07,1.21,1.5,1.5,0,0,0-.29.06A10.33,10.33,0,0,1,70.49,27.14Zm-1.86,2c0-.13,0-.26,0-.4C68.7,28.9,68.85,29,68.63,29.13Zm8.24,74.79c-6.53,4.32-14.24,3.76-21.64,4.79-7.37-.38-14.13,5.08-21.61,6-6.66,2-17.68,2.78-21.67,6.9.5.38,4.58-1.86,6.4-2.06,6.16-.53,13.65-2,20.33-2.58,0,.88,1.3-.29,1.8-.31C50.53,106.68,72.19,112,76.87,103.92Zm-59.72,15.3s0,0,0,0Zm1.81.08s-.08,0-.06.06l-.17,0Zm.08,0a19.34,19.34,0,0,1,5.73-1.82C22.85,118.09,21,119.07,19,119.34Z"/><path id="fill2" class="cls-3" d="M6.9,128.72C-3.49,122,9.39,106.66,14,98.69c1.44-13.15,10.29-22,16.78-32.79a.56.56,0,0,1,1.08.29c-4.7,11.45-15,18.94-16.06,32.38C11.5,107.49-1.36,118.63,6.9,128.72Zm67.61-59.2a.53.53,0,0,0-.77-.31c-2.18,1.4-5.56-1.29-7-2.77-2.24-4.59-1.8-10.4-6.33-14.12-4.28-6.11-13.13-7.42-16.69-14.4-2.15-4.86-.54-12.34,4.37-14.47,2.25-1.17,6.93,1.87,7-2.21.3-2.16,3-4.93,2.47-6.76a25.79,25.79,0,0,1-2.78,5.83c-.12,1.27-.25,3-2,2.87-5.65-2.25-9.92,3.28-10.2,8.68-2.47-.08.28,8.36,2.07,9.71,4.06,5,10.9,6.31,14.72,11.35a16.4,16.4,0,0,1,5,11.92c1,3.23,6,7,9.47,5.65.87,2,1.38,4.71,3.11,6.08l0,0C77.26,75.15,74.78,71.75,74.51,69.52ZM63.34,18.66c1.14-20.09-6.07,25.2,5.2,40,.43.79,1.57.1,1.19-.7C63.82,45.78,62.23,32,63.34,18.66ZM48,12.64C38.33,25,26.36,18.36,38.94,42.26c3.75,2.2-6.69-13.74-1.88-18.47,3.81-3,9.18-3.72,11.78-8.45,5.8-7.16,15-10.4,23.74-12.35-.75,1.38,1.5-.34.28-.71C63.91,2.42,54.07,5.74,48,12.64Zm-29.32,8C23.45-4.82,45.94,12.71,62.48,3.17c-2.89-1-8.32,2.26-12.19,2-7.85,1.28-15.93-3-23.49-.06C23,5.17,15.51,20.83,18.71,20.6ZM51.23,55.65c-.46,3.62-.95,7.27-1.59,10.87-.11,7.26-5.22,18-10.08,24.85,4.47-2.37,9.32,1.39,13.79-1,4.85-3.59,9.22-2.22,13.8.75,5.4.84,8.18-5.4,4.68-9.31-4.22-4.66-11.7-5.49-14.1-12.1-1.31-2.84-1.42-8.08-.36-10.09-1.18,6.59.92,13.42,7.1,16.76,9.71,2.1,14.75,17.26,1.14,14.79-2.44-1.27-4-3.26-7-2.51-9,5.55-12,.46-19.56,3.48-2.54,3.8-8.3,10-10.71,11-2.74,2.15-6.72,2.87-8.83,5.63-.53,0,.4-.88.52-1.15C35.94,91.73,46.6,85.59,51.23,55.65ZM28.54,102.39A19.64,19.64,0,0,1,33,96.25c-4,3.6-8.62,6.64-12.1,10.72C23.56,105.54,26,104,28.54,102.39Zm9.12-9.49A23.84,23.84,0,0,0,29,102.08,35.46,35.46,0,0,0,37.66,92.9Zm7.75-13.37c0-.1.06-.19.1-.29a58.89,58.89,0,0,1-10.94,15.5C40,91.28,42.84,85.28,45.41,79.53ZM72.82,28.22c.87-5.84,6.49-10.27,11.86-12C80.52,15.18,71.7,23.76,72.82,28.22ZM86,18.92C80.84,17.67,72.53,24,74.74,29.08,73.44,22.55,82.2,19.55,86,18.92ZM71.74,92c.59,3.5,7.91,6.4,2,12.09-.82.89-1.52.74-2.62.36-3.9-.21-7.61,2.28-11.69,2.12s-7.87.3-11.31,2.75c-7.46,3.34-16-.17-23.64,1.29,8.7-5,18.44-7.84,28.22-9.93-9.61-3.61-37.46,10.16-43.64,21C11.48,87.34,61.68,85.18,41,47.36,47.6,72.6,46.2,73.78,24.77,91.9c-7,7.66-19,21.06-15.14,31.16.21,0,.22-.34,0-.33-.71,0-.55-1-.08-1.43.7.48,2.5-1.37.69-.43,10.32-12.78,21.62-9.23,35.71-10,7.17-4.73,15.63-2.64,23.32-5.82,1.69-.42,3.33,1.38,4.72-.26C79.1,100.75,75.44,95.39,71.74,92Z"/><path id="fill1" class="cls-4" d="M89.45,12.38c0-2.29-2.45-2.79-3.58-4.5C84,5.31,91.48,1.47,82.22,0a156.14,156.14,0,0,1-29.8,4.25C43.06,2.3,34,2.51,24.68,2.09c-3.93-.17-7.37-2.26-11.21-.39C8.68,4,9.15,11.87,11.35,16.08c6.33,17.67,34.41,39.55,12.77,56.23-9.34,7.72-10,20-15.79,29.65C-3.81,122.33-2.47,121.25,11,139.37c.91,2.67,5,4.77,4,7.84a2.45,2.45,0,0,0,.6,1.84c4.11-3.05,2.62-5.8-.2-9.9-1.53-3.66-5.22-6.93-6.11-10.63-.86-2.9,1.84-5.34,4.2-6.55a18.72,18.72,0,0,1,5-1.74c.47-.09.94-.15,1.41-.21,2.55-.63,5.09-1.11,6.84-1.74,19.13,1.68,14.37-4.73,29.66-8.42,12.92-1.7,10.52,3.06,23.66-6.32,3.32-1.68-2-6.77-4.29-7.72-1.18-3.17,6.34-4.25,8.44-6-1.11-3.69,4.93-5.76,1.14-8-8.11-3.51-4.14-5.54-6.41-12.26-1.22-5.49-8.52-5.44-9-11.64-4.85-7.48-2.81-9.17,1.17-16.17-.72-3.3-1.43-7-.83-10.28,5.44-1.3,11.08,4.33,16.06.24.6-2.86,1.22-5.66,4.32-7.13,2-1.76,1.55-5.63,2-8.13C92.2,14.65,89.83,14.16,89.45,12.38Zm-18,50.79c1.65,1.93,5,1.88,5.89,4.47,4.22,8.27-2.4,10.57,8,15.29,1.48.22-1.5,4.36-2.2,3.91-.69-2-2.32-2.84-4-3.6-.61-1-2-2.4-1.75-3.33.2-4.72,1.27-7.53-3.64-10.55C72.5,68.19,70.51,64.46,71.4,63.17ZM81.55,32.41c-3.68-.21-7.2-2.85-11-1.65.59-2.65,4.75-2.6,6.7-1.34.44.56,1,.24,1.41.16,1.15-.54,3.08.82,4.23.38a11.86,11.86,0,0,0,3.34-2C85.67,31.13,85.82,32.07,81.55,32.41Zm4.77-5.09c-1.2.48-4,1.66-4.59,1.89-.91.46-1.35-.42-2.12-.72-1.73.47-3-.88-4.75-.82-2-.46-4.34,0-5.31,2.09-2.62-5,5.13-8,7-11.62-11.11,7.87-8.08,6.21-7.26,18,3.39,8.69-5.37,10-2.54,18,4,4.08,2.47,9.78,5.17,14.63,5.77,5.15,4.7,4.86,4.58,11.86a4.65,4.65,0,0,0,.89,1.83c-1.91-1-3.37-2.35-2.7-5.89,0-.59,0-.61-.61-.66-.87-.17-1.51-.81-2.44-.18C68.35,72.87,66,67.15,64.5,62.83c.75-5.49-5-8.79-9.79-9.48-1.66-.86-6.48-9.91-8.42-9.82a4.44,4.44,0,0,1,.62.67c.33.42.62.87.91,1.31,0,.07.09.14.14.21h0v0l.23.33a24.79,24.79,0,0,1,2,3.1,16.18,16.18,0,0,0,2.61,3.47c3.12,3.06,10,2.81,10.6,8.45,0,5.35,4,9.71,6.23,14.27.82,1.9,2.88.54,4.09,1.34-1,5.28,2.63,6.33,6.73,8.21,1.54.29,1,2.15,2.25,2.77.58.21.37.75.46,1.13-.86,2.59-12.7,4.64-6.94,8,1.94,1,5.17,5,2.47,6.46-3.78,2.13-7.19,5.69-11.82,5.17a14,14,0,0,1-6.13-.21,27.72,27.72,0,0,0-11.5,3.06c-3.89.37-5.58,5.17-9.37,5.7-9.54.52-21.66-.23-29.54,6.43.71-9.92,15.22-17.23,22.07-20A17,17,0,0,0,34.8,103c3.83-.77,7.4-1.47,10.55-4,1.67-1.48,4.06-2.08,5.69-3.5-3.81,1.12-7.53,4.33-11.48,5.65a63.65,63.65,0,0,0-7.44,1.51c-5.48.92-10.66,4.44-14.73,8.23,4.07-10.65,13.64-17,22.24-23.83C47.05,76,52.07,67.68,48.72,58.67c-.44-.63-.89-1.26-1.37-1.87-.12-.15-.25-.29-.38-.44a12.25,12.25,0,0,1,2.47,7.81C47.65,72.25,43.8,81,38,87.17c-5.39,4.46-11.54,7.93-15.83,13.72-3.3,4.1-5.86,9.45-8.21,13.47-4.61,3.71-5.75,9.6-6,15,2.15,4.94,10.61,12.12,8.64,17.43-11.34-19-16.71-24-1.57-43.7,3.43-5.57,2.56-12.73,6.7-18C26.87,79.28,32.29,73,32.11,64.89c-1.46,13.3-14.82,18.9-15.64,32.37-4,11.09-16.27,20.37-10.71,33.32C-2.09,122,1.43,117,5.93,108.05c5.42-7.39,7.7-16.06,11.15-24.35,4.68-12.26,21.85-17.55,14.55-33,10.16,20.49-8.1,34.34-14.41,52C29.59,79.94,43.06,71.47,29.53,43.44,23.7,35,4.45,12.77,13,2.72c5.32-2.15,11.11.67,16.68.49,6.73.16,13.27-.08,20,1.35,1.74,1.29,14.83-1.35,9.15.6-5,.67-9.68,3.4-14.63,4.62C36.73,10.84,26.22,13,24.39,21.56c-3.55,13.27,10.15,16.49,15,26.72C38,40.17,28.49,37.67,25.93,30.41,19.56,11.06,44.61,11.63,56.68,6.58c-1.75,2.48-6.74,4.68-9.67,6.91a16,16,0,0,0-6.74,3.08C36.19,19.59,34.53,26.3,34,31,37.17,15.46,44.15,17.09,55.38,9.15c2.6-2.39,6-3.32,9.15-4.53,1.9-2.23,5.86-.91,8.48-1.14,3.69-.45,7.7-3.77,11.45-2,3.08.8.59,3.16.3,5.19l-.18-.09c-6,5.37-8.09,2-15.73,4.06-5.23-1.83-7.11,2.06-8.76,6.08a66.72,66.72,0,0,0-2.35,13c3.37-6.47,1.35-21,12.63-17.86,3.4-1.88,7.08.1,10.51-1.08.78-.5,3.26-1.67,4.13-2.71a2.17,2.17,0,0,0,.32.37c3.06,2.22,3.34,5.89,6.53,7.89,1,1.55-1.29,3.35-.6,5.19C90.67,24,88,25.57,86.32,27.32Z"/></g></g></svg>