<svg xmlns="http://www.w3.org/2000/svg" viewBox="0 0 72.43 159.31"><defs><style>.cls-1{fill:#6cc7ff;opacity:0.75;}.cls-2{fill:#203384;}.cls-2,.cls-3{opacity:0.5;}.cls-3{fill:#5490e8;}.cls-4{fill:#1a2360;}</style></defs><g id="Layer_2" data-name="Layer 2"><g id="rice-paper-sail-large-5"><path id="fill4" class="cls-1" d="M70.92,134.94c-3.89,3.71-9,5.21-13.85,7.31-4.84,2.51-9.24,5.62-14.27,7.82-7.12,4.38-15.75,4.58-23.69,6.37-3.06,1.15-5.95,2.49-9.3,2.83-2.22.21-5.17-.32-6.61-2-.29-2.31-2.25-6,1.14-7.1,1.66-.31.77-1.09,1.55-1.94,1.36-.72,1.29-2,2.27-2.87,1.94-2.6,2.9-4.78-1.26-3.18-5.6.63-.46-5.26-1.72-7.8a.69.69,0,0,1,0-.6c.47-.89-.16-1.26,0-2,1.76-4.36,5.66-7.21,8.64-10.72,1.59-3.77,1.85-7.94,3.82-11.78,2.74-6-1.32-11.82-1.66-17.94C14.41,83,12.41,74.67,8.47,66.91-2.59,48.64-1,57,3.11,35.18c2-9.12,6.76-17.1,11.23-25,1.79-3.71,2-12.94,8-9.37a.53.53,0,0,1,.25.36.41.41,0,0,1,0,.15.39.39,0,0,1,0,.15c.08,7.47-4.88,4.78,1,14.18,2.66,6-1.34,5.87-.34,8.11,3.88.81,6.6,5.21,9.92,7.34a20.8,20.8,0,0,1-.69-3.43c0-.21-.12-.75.28-.6.06,0,.13-.13.17-.24,1.24-1.33,4.48,2.75,5.09,4,6.35,7.84,3.31,15.91,16.21,12.84,2,.19,3.64,1.38,5.63,1.45,1.78.11,5.09-1.13,5.49,1.47s4,2.46,5.28,4.64c1.55.94.51,2.68.22,4-.67,3.14.82,6.19,1.29,9.21-.37,3.57-5.23,4.58-7.36,7.06-2.32,2.91-6.48,3-8.69,5.69-2.48,2.44-1.18,6.83-2.68,9.45C50.8,90.34,56,96,58.59,98.69c6.92,5.34,15.71,12.7,12.46,22.41C69.92,125.64,74.75,131.08,70.92,134.94Z"/><path id="fill3" class="cls-2" d="M7.82,47.68C18,64.51,14,89.64,20.47,105.09A116.2,116.2,0,0,0,20.11,87c1.23,5.23,3.06,10.37,3.82,15.6-.43,4.4-.75,9.75-3.73,12.91-5,3.7-20.92,21.58-4.62,12.32,3.71,1.6,12.21-13.23,11.92-17.33.33-1,.63-2.11.91-3.17a.67.67,0,0,0,.34-.42c2.48-9.64,7.84-19.14,3.92-29.13-2.05-3.42,3.46-10.74-.55-12a9.94,9.94,0,0,1,1.28-3.06c4.1.17,4.44-9,1.51-11.14h0c-.59,9.74-4.6,8.12-5.18,15.89A81.81,81.81,0,0,1,30,95.14a.88.88,0,0,0-.74.06v0c0-.89-1.16-.93-1.45-.2-.18.45-.34.9-.51,1.36,0-.46,0-.91,0-1.37a.76.76,0,0,0-.91-.72q-.17-1.18-.36-2.37C29,87.92,24,60.29,21.19,56.14c-.85-10.4-4.38-22.48-2.45-33.76-.7-2.22,3.59-4.58,3.82-1.55-3.15,5.75,6.24-2-2.75-10.41-.63-2-1.47,1.73-1.6,2.51-2.48,8.55-1.73,18.6-1,27.73-.08.24-.12.48-.19.72a.79.79,0,0,0-.72.64c-.08.34-.15.67-.21,1a19.12,19.12,0,0,0,1,10.33c.2.79.41,1.59.62,2.39.51,3,1,6,1.47,8.95.19,4.33-.24,8.67-.26,13-1.7-10.18-4.66-20.12-9-27.6-4.19-7.9,3.89-18.19,2.2-24.83-.31.66-1,3.42-.31,1.73C10.61,33.92,6.77,40.51,7.82,47.68ZM20.64,15.1c.15.05.12.23.12.37-.12-.11-.24-.22-.34-.33A.6.6,0,0,0,20.64,15.1Zm-1-1c.28,0,.26.43.37.66h0a.06.06,0,0,0,0,0,.66.66,0,0,0-.38-.17c0-.07,0-.14,0-.21ZM17,126.47a6.86,6.86,0,0,1,1-.9A12.65,12.65,0,0,1,17,126.47Zm1.88-1.78ZM56,47.43c2.32-.23,6-4.63,7.77-1.43-2,.8-4.17,2.78-6.3,4.13-1.12.42-2.63.11-3.33,1.22-1.48,1.61,0,5.88-3.29,4.77a92.24,92.24,0,0,1-3.27,19.1c-2.35,2.56,1.08-17.37.54-20C51.14,52.63,51.13,47.48,56,47.43Zm13.21,10.3v0a1.66,1.66,0,0,0-.75.49c.14-.33.54-.41.65-.81.83-1,.36-2.86,1.43-4.21,0-2.79-10.12,12.71-10.38,14.15C59.1,69.63,71.63,57.62,69.25,57.73Zm-3.54,3.08.1-.14c.14-.11.25-.45.44-.35ZM18,147.55l0,0a1.16,1.16,0,0,1-1,.44,48.16,48.16,0,0,1-5.64,2l-.16.05-1.83.52-.86.64a.87.87,0,0,1-1.13,0l-.58.22a.45.45,0,0,1-.28,0l-1.15.36c-.13.12-.46.36-.52.59-.71,3.16-2.07-1.07,0-1.7a12,12,0,0,0,2.32-2.3,1.06,1.06,0,0,1,.46-.61c3.17-4.47,4.43-10.58,10-13.17,6.09-1.88,6.87-8.91,12.51-11.4,7.46-4.92-.08-15.81,4.06-23.27,2.7-.87.48,6.67.93,8.77-.13,5.92,3.42,12.62-3.21,16.36-3.29,1.67-5.25,4.46-6.89,7.66-5.52,4.16-11.35,7.42-14.38,13.95.34-.15.69-.29,1-.46,2.2-1.4,3.92-3.48,6.08-5.17a12.15,12.15,0,0,1,4.12-2.27,14.4,14.4,0,0,1,2.37-.33,17,17,0,0,1,3.17-1.3c2.24-2.44,2.69-5.88,5.72-7.74l.16-.07,1-1.11c.18-.24.37-.45.57-.67l.08-.09h0a11.05,11.05,0,0,1,2.58-2,1.13,1.13,0,0,1,1.36.14l.23-.19a1.57,1.57,0,0,1,.41-.24c.3-.49.59-1,.86-1.55a1.22,1.22,0,0,1,.61-.6l.53-.88c.05-.11.12-.21.18-.33a1.27,1.27,0,0,1,.18-.27l.08-.15a1.26,1.26,0,0,1,.47-.42l.61-1a1.33,1.33,0,0,1,.87-.65c.06-.17.13-.34.19-.52,1.12-3.67-.68-6.1-2.4-9.06A17.32,17.32,0,0,1,39,99.84c.21-3.91,2-7.19,3.33-10.78,2.23-6,.8-11.72-.87-17.64A.71.71,0,0,1,42.78,71c1.63,5.39,3.39,11.36,2.36,17-1,5.36-3.55,10.2-2.08,15.83,1.2,4.56,4.93,7.43,4.39,12.5a17.4,17.4,0,0,1-3.65,8.39s0,0,0,0a28.13,28.13,0,0,1-2,3,19.42,19.42,0,0,1-1.88,2.52,1.17,1.17,0,0,1-.38,1c-2.56,2.22-5.17,4.4-7.76,6.58a1.78,1.78,0,0,0,0,.64c-1.68,3.46-5.66,4.07-8.81,5.48A19,19,0,0,1,18,147.55Zm46.11-26.76C65.88,129.37,50,141,42.75,147.34c.06,4.41-17.24,7.79-19.9,6.88,1.85-5.51,9.23-6.22,14.58-6.45C47.55,140.65,57.71,131.6,64.08,120.79ZM34.17,32.24A44.39,44.39,0,0,0,44.62,45.63c.83.18,5.91,1.06,4.71-.08-8.57-.66-7.56-10-12.4-15.37-3.24-4.37-5-1-2.89,2.09A.5.5,0,0,0,34.17,32.24ZM45,44.81s-.07,0-.11-.06ZM36.22,32.52a.58.58,0,0,0-.06.17c-.06-.19-.11-.39-.17-.58C36.07,32.24,36.14,32.38,36.22,32.52Z"/><path id="fill2" class="cls-3" d="M67.58,123.63c-2.81,20-30.23,18.29-42.26,29.3-1.31-.46,1.77-2.79,2.55-3.08,21-9.51,55.26-17.26,29.05-45-1.51-2.94-1.32-6.51-3.41-9.18-.24-.31.17-.74.43-.44C57.1,105.5,66.21,112.57,67.58,123.63ZM19.71,145.71c-3.68,1-7.37,1.68-10.8,3.46.49.61,1.84-1.06,1.94-.59-4,1.17-11.52,6.5-2.25,7.09-6.33,1.64-6.77-4.57-.4-7-1.11-5.14,5.39-10.3,8.39-13.94,2.07-1.19,5.12-.05,6.15-2.86,1-4.92,6-5.8,9-9.19C39,113,31.68,101.34,34.8,90.46c.32,4.62.35,13.9,1.79,20.21.74,4.68-1.8,9.06-3.92,13-3,3.44-8.07,4.3-9,9.2-1,2.1-3.26,2.41-5.34,2.4-4.06,2.71-9.29,8.16-9.68,13.26,8.8-3.85,21.87-4.12,24.58-15.19,2.75.19,7.83-1.93,6.21-5.41-3.38-5.31,4-6.26,5.94-10,3.91-11.44-9.14-16.29-1.24-28.37.7-9-.94-16.89-3-25.53a46.2,46.2,0,0,1,4.16,14c1.44,6.89.15,14.16,2.33,20.88,1.11,6.16,11.67,15.25,9.1,19.54-6.05-12-13.32-23-11.62-37.48-.67,5.91,0,11.29-3.24,16.63.72,7.32,10,16.33,2.24,23.13-3.65,1.74-6.21,4.14-3.57,8.08.23,3.44-4,5.31-7,5.25C32.36,140.5,25.45,144.07,19.71,145.71ZM43.49,71.38A23.39,23.39,0,0,0,42.29,68C42.63,69.14,43.06,70.26,43.49,71.38Zm-13,36.49c-7.68,5.66-8.73,19-19.68,19.38-1.43.32-2.8.87-3.35,2.33-.14,1.33-1.56,5.24,0,5.31-.59-.58.1-1.7.17-2.73,5.35,5,13.39-4,15-7.69-9.11,14.4-23.88,5.82-7.93,2.92-2,1.3-4.06,3-6.52,3,1.82,1.37,6.25-2.36,8.46-3.61,2.73-2.08,9.33-4.87,9.72-7.44a51.61,51.61,0,0,1-5.87,4.12C24.43,114.06,35.8,108,32,96.54c-1.79-4.67,2-8.13,2.87-12.45-.76-5.73-.09-12-2.07-17.39-.74-1.37-2-3.08-1.2-4.69,16.15-10.75-1.94-13,.13-27.64-2.4,1.48,0,9.74,1.84,12.74,2,3,6.75,7.16,2.12,10.14-5.06,2.45-6.89,6.56-3.19,11.27,1.2,3.88-.38,8,1.21,11.9,1.34,4.66-2.75,8.11-3.26,12.45C31,97.84,32.51,103,30.54,107.87ZM17.94,47.5c.62,2.81-.51,5.7.34,8.43.67,1.47,1.77,2,1.28,3.82-2,3.91-.79,8,2,11.07,5.14,5.65.87,12.93,2.78,19.41,1.17,2.6,1.62,11.69,3.64,11.28-3.59-9.32-1.94-18.82-3.6-28.14-4-5.3-5.58-9-3.54-15.43-3-4.82-1.2-11.17-1.48-16.74-2.1-9.13-3.56-17.32,1.81-26C12.07,25,19.09,35.66,17.94,47.5ZM46.78,77.6C49.49,72.05,48.88,58,55,58c-.21-8.88,3.81-8.27,9.53-10.87-5.28-.39-10.71,2.77-10.64,9.76C49.71,55.73,45.41,76.87,46.78,77.6ZM64.46,56.94c-2.4,4.74-7.15,10.92-8.36,15,1.8-1.61,3.07-4.09,4.21-6.19,2.74-4,4.71-11.26,8.93-13.24C68.09,50.72,64.92,56.2,64.46,56.94Zm-10,18c2.46-8.77,8.59-17.32,12-24.92C62.65,57.5,54.22,67.94,54.48,74.94ZM40.34,51.59c-1.19-6-3.79-12.39-6.14-17.65C36.51,39.52,38.43,46.59,40.34,51.59Zm-4.46-9c4.61,12.94,6.28,13.65.72,0C32.66,30.76,31.67,30.27,35.88,42.61ZM20.56,28.66c.74,4.06,1.4,10.17,3.94,12.89,8.71,19.22-3.85-8.06-.91-15.54-1.93,3.11-.38,10.22.59,14.46C23,35.64,18.84,28.05,22.36,23.93,20.92,22.3,20,27.43,20.56,28.66Zm5.25,121c2.83,1.49,33.57-28.35,28.92-31.47-.07,6.13-14.71,20.7-20.38,23.94,2.47-4.3,6.81-9.15,9.56-12.16-6.66,5.14-10.44,13-16.59,18.67,1.3-.93,3-3.31,4.79-4.3C30.5,146.57,28.7,149.23,25.81,149.7Zm28.8-72.95c-9.79,2.93-2.32,21.73.89,27.23C54.1,95.58,45.15,82.82,54.61,76.75Zm1.22-10c-2.54,3-5,9.09-7.12,13.35.49-6.67,6.69-13.73,8.37-18.61-4.78,6.82-9.37,14.88-9.15,23.36.59-.2.51-1.77.73-2.45-.8,3.63-1,1-.19-.9C49.69,78.28,53.42,71.14,55.83,66.73ZM11,67.77c-8.89-10.32-9.52-24-4.06-36.12C6.86,33.54,5,36.9,5,39.46c1.26-2.41,4.57-13.4,4.18-10.74,2-4.71,1.43-14.24,5.62-16.11C11,18.37,12.14,25.67,8.94,31.66c-1.84,2.22.56,4.68-.72,7.08C5.28,46.8,11,55.6,15,62.44c4.67,12,2.23,25,3.66,37.62C17,89.48,17.69,77.57,11,67.77ZM4.81,41.94C4.42,55.5,12.17,67.17,17.08,79.33c1.46-16.22-14.52-28.17-9.7-44.19A70.72,70.72,0,0,0,4.81,41.94ZM9,63.11C6.4,56.87,4.38,50.29,4.34,43.75,2.58,50.54,5.28,57.45,9,63.11Z"/><path id="fill1" class="cls-4" d="M71.05,121.1c3.25-9.71-5.54-17.07-12.46-22.41-2.64-2.68-7.8-8.35-5.17-12,1.5-2.63.2-7,2.68-9.45,2.22-2.72,6.37-2.78,8.69-5.69,2.13-2.48,7-3.49,7.36-7.06-.47-3-2-6.07-1.29-9.2.28-1.36,1.33-3.1-.22-4-1.3-2.18-4.91-1.89-5.28-4.64-.4-2.59-3.71-1.36-5.5-1.48-2,0-3.64-1.25-5.62-1.43-12.9,3.06-9.86-5-16.22-12.86-.6-1.24-3.84-5.32-5.09-4,0,.1-.1.26-.17.24-.39-.15-.3.39-.27.6a22.74,22.74,0,0,0,.68,3.42c-3.31-2.12-6-6.53-9.91-7.32-1-2.25,3-2.12.34-8.12-5.89-9.4-.92-6.71-1-14.18a.76.76,0,0,0,0-.3h0A.53.53,0,0,0,22.34.8c-6-3.56-6.2,5.68-8,9.38-4.46,7.9-9.25,15.88-11.22,25C-1,57-2.59,48.64,8.46,66.91,12.41,74.68,14.41,83,16,91.39c.33,6.14,4.4,11.9,1.66,18-2,3.83-2.23,8-3.82,11.79-3,3.5-6.87,6.35-8.64,10.71-.15.73.49,1.1,0,2a.69.69,0,0,0,0,.6c1.25,2.54-3.9,8.42,1.7,7.79,4.17-1.59,3.21.59,1.27,3.19-1,.87-.9,2.16-2.27,2.86-.78.86.11,1.64-1.55,1.95C1,151.29,2.91,155,3.21,157.32c1.43,1.63,4.38,2.17,6.6,2,3.36-.34,6.23-1.67,9.3-2.84,7.94-1.77,16.57-2,23.69-6.35,5-2.22,9.43-5.32,14.27-7.83,4.84-2.1,10-3.61,13.86-7.31C74.75,131.09,69.92,125.64,71.05,121.1Zm-6.46-74c-1.08-.83-2.54-.27-3.69.25-1.39.18-2.75,2-4.11,1.37-1.42-.19-3.4,2.86-3.21,4.31.35,2.22-2.21,1.2-2.74,2.56-.09.9-.72,1.27-1.13,1.92.21,1.08-.51,1.94-.1,2.94.3.51-.55,1.09-.68,1.59-.08-1.73-.87-3.7-.27-5.39,1.49-2,2.72-4.43,4.33-6.34,1-1.26,2.54-1.45,3.53-2.74C58.27,46.55,63.7,44.65,64.59,47.09ZM68.18,136c-4.61,3.14-10.1,4.34-15,7-4.38,3.08-9.32,5.09-14,7.76-5.09,1.81-12.44,3.66-16.84,3.78,3.21-1.79,4.71-6.86,9-6.37,9.32,1.54,15.39-8.56,22.11-13.43,3.29-3.88,10.84-6.7,11.11-12.1h0c1-7.58-3.57-13.49-8.06-18.32-2.35-7-8.17-8.43-8-16.93-.47-.83.64-8.87-.46-6.6-1.7,13.83,2.16,12.91,7.06,23.19,3.36,4.77,9,10,8.46,16.8h0c-.43,1.21-.51,4.26-1.15,4.9-1.15,1.59-3.44,2.35-4.73,4-7.6,5.71-13.74,14-22.61,17.93-2.05.24-4.68-1.09-6.73.2-3.4,1-4.42,4.9-7.62,6.31C17.11,156,6,162,4.49,155.48c.77-5.72,8.13-4,11.94-6.29,2.71-.6,4.14-2.55,5.93-4.35,4-1.81,9.13-3.53,10.57-8.14,2-15.12,18.78-12.74,8.66-31.1-2.3-21.26,8.11-10.81-.52-39.92-.28,5.92,4,13.37,2.87,20.17-.25,2.87-2.25,5.06-2.71,7.87-.44,2.51-.53,5.16-1,7.67.5,3.31.83,6.57,2.9,9.32,1.45,5.47.28,8.44-3.47,12.49-12,10-3.06,15.14-16.9,20.33-2.6.77-3.24,3.55-5.8,4.42-3.34,1.76-7.36,1.53-10.7,3.06-1,.21-2.19,3.1-2.48,1.5-.12-1.52,2.24-1.88,3-2.41.55-.37.15-1.28.66-1.72A2.94,2.94,0,0,0,8.59,147a6.71,6.71,0,0,1,1.35-3,21.48,21.48,0,0,1,2.2-2.65c.41-.43.82-.85,1.25-1.26a19.42,19.42,0,0,1,4.54-4.23C28,128.38,30.58,129,34.69,116.7c.69-1.17-.2-2.2-.41-3.36-.67-3.33.42-7.77.48-10.43a26,26,0,0,0-1,12,1.57,1.57,0,0,1,.12.6c0,.06,0,.13,0,.19s0,.09,0,.13a.61.61,0,0,1,0,.11,10.63,10.63,0,0,1-1,3.54c-.47,1.08-1,2.11-1.61,3.14a3.09,3.09,0,0,1-.46,1.11C27,129.67,19.74,132.24,14.72,137c-2.07,1.27-2.42,4.61-5.37,3.75-7,2.58-1.9-3.33-2.59-6.19a8,8,0,0,1,.46-4c1.49,1.7,7.74-.87,10.31-2.77a4.5,4.5,0,0,0,.91-.84c.53-.37,1-.74,1.49-1.11s.9-.76,1.31-1.14.77-.77,1.12-1.16.66-.79,1-1.19.56-.8.81-1.21a13.71,13.71,0,0,0,.68-1.24,14.7,14.7,0,0,0,.68-1.52c.2-.51.39-1,.56-1.56s.34-1.07.5-1.61.32-1.1.47-1.66.3-1.13.45-1.71.31-1.16.47-1.75.32-1.2.49-1.82l.55-1.87c.18-.63.38-1.28.6-1.93a8.25,8.25,0,0,0,.75-1.17,12.07,12.07,0,0,0,.52-1.24c.14-.42.26-.85.37-1.28s.19-.87.29-1.31.18-.87.29-1.31.22-.87.36-1.3a3.63,3.63,0,0,0,.36-1.1,5.86,5.86,0,0,0,0-1.11c0-.37,0-.74-.07-1.13a6.58,6.58,0,0,1,0-1.17,11.46,11.46,0,0,1,.28-1.19c.11-.39.24-.77.37-1.14s.25-.76.37-1.13a11.57,11.57,0,0,0,.29-1.16A6.18,6.18,0,0,0,34,86.45a5.71,5.71,0,0,0-.12-1.34,10.7,10.7,0,0,0,0-1.6c0-.53-.07-1.06-.14-1.59s-.17-1-.27-1.58-.21-1-.33-1.58-.22-1-.32-1.57-.19-1-.25-1.57-.11-1.05-.12-1.57a10.23,10.23,0,0,1,.89-4.75c.13-.86.33-1.59-.28-2.3-2.56-3.68,4.09-3.89,3.82-7.4,3.79-4.81-3.08-7.51-3.4-12.15-.7-1.26,0-8.48-1.08-4-.85,10.94,8.06,8.57,3.12,17.37-1.86,1.8-5.73,3.57-3,6.54.74,1.68-.62,3.79-.81,5.74a3.68,3.68,0,0,0,0,1.15A8.12,8.12,0,0,0,31.84,76a13.65,13.65,0,0,0,.36,1.66c.15.55.33,1.09.49,1.64s.32,1.09.44,1.64a9.32,9.32,0,0,1,.22,1.66,6.58,6.58,0,0,1-.16,1.7,6.18,6.18,0,0,1,.18,1.49,6.65,6.65,0,0,1-.15,1.35,12.77,12.77,0,0,1-.34,1.25l-.42,1.24a13.11,13.11,0,0,0-.38,1.26,7.32,7.32,0,0,0-.22,1.35,9.41,9.41,0,0,1,0,1.32c0,.58-.1,1.28-.2,2-.05.38-.11.76-.18,1.15s-.14.77-.22,1.16S31.1,98.61,31,99s-.18.72-.28,1a16.31,16.31,0,0,1-.55,1.64c-.17.42-.32.68-.44.71s-.18-.15-.19-.64c0-.24,0-.55,0-.95s.06-.87.1-1.44a12.47,12.47,0,0,1,0-1.93,16,16,0,0,1,.26-1.84c.12-.6.27-1.2.44-1.79s.35-1.17.54-1.75.37-1.17.54-1.76.34-1.19.47-1.79a15.69,15.69,0,0,0,.3-1.84,12.38,12.38,0,0,0,0-1.93c-.1-.49-.22-1-.35-1.52s-.25-1-.38-1.55-.24-1.05-.34-1.58A14.18,14.18,0,0,1,31,78.49,8.33,8.33,0,0,1,31,76.91a6.8,6.8,0,0,1,.37-1.56,5.58,5.58,0,0,0,.19-1.29c.07-2.19-.92-4.5-.93-6.65.71-2.34.6-5.57,3.16-6.79,1.24-1.66,1.55-6.94.27-8.53-.79,2.06,1.34,7-1.81,8.57-3.35,3.35-2,8.77-1.38,12.91-.14.61-.26,1.23-.35,1.84s-.13,1.22-.15,1.83,0,1.21,0,1.82.11,1.22.21,1.82.23,1.21.38,1.81.33,1.2.52,1.8c0,.54,0,1.07-.05,1.58s-.11,1-.2,1.52-.18,1-.29,1.48-.24,1-.38,1.45-.27,1-.41,1.44l-.42,1.44c-.14.49-.28,1-.41,1.48s-.25,1-.36,1.52,0,1,0,1.47,0,1-.05,1.48-.06,1-.1,1.49-.1,1-.18,1.49-.17,1-.29,1.47a12.33,12.33,0,0,1-.43,1.43v0c-.16.65-.32,1.3-.51,1.94a12.12,12.12,0,0,1-.69,1.91c-.25.55-.49,1.1-.73,1.66s-.45,1.11-.67,1.68-.34.87-.53,1.29-.38.84-.59,1.25-.41.82-.63,1.23-.45.8-.68,1.19c-.25.57-.51,1.15-.79,1.73s-.57,1.17-.89,1.79a6.6,6.6,0,0,1-.75,1.18,8.09,8.09,0,0,1-.88,1c-.3.3-.62.57-.93.85a12.21,12.21,0,0,0-.92.84,7.57,7.57,0,0,0-.82,1,6.11,6.11,0,0,0-.64,1.16,10.49,10.49,0,0,0,1.22-.78,14.3,14.3,0,0,0,1.13-.93c.37-.33.72-.69,1.06-1.06s.67-.76,1-1.17.62-.83.92-1.26.57-.89.84-1.35.63-1.12.92-1.69.57-1.17.84-1.76.53-1.19.79-1.78.5-1.2.74-1.79.46-1.18.67-1.76c.43-.23-.17,1-.07,1.21a13.9,13.9,0,0,1-.4,1.94,17.23,17.23,0,0,1-.62,1.88q-.36.91-.81,1.8a19.72,19.72,0,0,1-1,1.72c-.28.41-.57.82-.87,1.22s-.62.8-.95,1.18-.68.75-1,1.12-.72.71-1.09,1.06-.75.67-1.13,1-.77.63-1.16.93-.79.59-1.18.87-.8.54-1.2.79c-2.33.71-8.59,3.89-5.69-1l0,0c5.62-7.14,18.5-12.75,14.43-23.75.36,7-1.93,11.39-7.76,15.76,0-4.42,2.7-8.35,3.61-12.62a8.19,8.19,0,0,0,.21-1.54.36.36,0,0,1,0-.11,6.77,6.77,0,0,1,0-.9c0-.15,0-.3,0-.45h0s.05-2.06.08-2.11c.43-2.06-1.63-26.15-2.54-27.91C18,60.41,8.31,54.41,8.49,42.79c-.51-5.87,3.68-11.9,3.64-17.13-3.64,5.9-5.24,14.78-4.69,22,1.34,5.46,5.4,9.79,6.88,15.25,3.1,11.47,3.53,23.86,4.62,35.76,0,1,.07,1.78.12,2.41a83.94,83.94,0,0,1-2.3-10.26c-1.67-9.53-4.14-19-9.14-27.42-2-3.8-5.94-7-6.54-11.38C3.41,37.81,6.47,23.6,14.79,11.43,17.21,8.5,16.11,2.13,20,.91c.88-.33,1.45.42,2.19.8h0c-.13.32-.22.69-.27.8-.06,1.85-1.55,3.67-2.21,5.42h0c-3.11,6.86-3.12,16.7-3,24-.21,6.46-1.73,12.87-.82,19.25a76.55,76.55,0,0,0,4.91,10.16c2.62,7.26-.25,15.32,2.9,22.51.71,2.92.75,6,1.75,8.78.74,2.2.78,5.17,2.33,6.78-2.73-11.67-1.42-24.25-4-36-5.53-8.23-1.74-13.8-4.82-22-2.15-4.72-.3-10-1-15-1-3.87.24-9.39.94-13.25a14.64,14.64,0,0,1,.93-2.72c1.05,3.65,5.48,7,3.12,10.84a1.9,1.9,0,0,1-.83.85c-.62.6-.28,1.9.17,2.4,1.41,1.32,3.39.39,4.4,2.5,1.32,1.91,3.53,2.68,5.19,4.23,2.31,2.93,2.78,1.09,1.8-1.65.06-4.54,5.25,3.38,5.91,5,2.29,3.26,2.5,8.28,6.33,10,2.52,2.17,5.56.07,8.28.14,5.92,1.34,3.52.84.16,3.46a15.26,15.26,0,0,0-4,4.73c-.33,1.19-1.73,1.62-2,3-1.18,1.1-.36,2.83-.29,4.27a24.25,24.25,0,0,1-1.23,11.53C48,71.06,48.56,66.7,49.3,65c.12-1.06-.46-2.36.6-3.13,1-1.63-.15-4,1.55-5.54,4.81-2.33,1.37-2.92,4.16-6,1.33-.46,2.89-.5,4-1.59,1.39-.24,4.33-2.52,5.26-.62.85,2.06,3.79,1.83,5,3.73,1.32,1.27-.42,3-.29,4.53-.33,3.17,2.23,6.53.86,9.45-2.59,2.41-5.88,4-8.26,6.56-1.43,1.23-3.24,1.55-4.82,2.42-4.61,2-2.93,8.28-5,11.38-2.7,7.94,7.43,14.31,12.7,19,2.22,1.35,2.19,3.68,3.64,5.57,2.18,2.27,2,5.76,1.61,8.58C68.08,124.93,75.23,132.51,68.18,136ZM19.42,56.19c.24.87.91,1.78.56,2.4-1.93-4.67-4.34-9.76-3-15.13C17,37.75,18.62,42,19,44.94,20.15,48.64,18.22,52.53,19.42,56.19Zm2.2,4.24c2.92,5.84,2,12.58,3.09,18.87.24,3.69,1.18,7.46.85,11.06-.39-4.59-2-8.88-2.63-13.46C22.84,71.37,23.46,65.73,21.62,60.43Z"/></g></g></svg>