<svg xmlns="http://www.w3.org/2000/svg" viewBox="0 0 111.62 148.47"><defs><style>.cls-1{fill:#6cc7ff;opacity:0.75;}.cls-2{fill:#203384;}.cls-2,.cls-3{opacity:0.5;}.cls-3{fill:#5490e8;}.cls-4{fill:#1a2360;}</style></defs><g id="Layer_2" data-name="Layer 2"><g id="rice-paper-sail-large-7"><path id="fill4" class="cls-1" d="M111.46,67.06c-1.11-1.19-2.65-2-2-4.06a5.81,5.81,0,0,1,.52-2.85,1.08,1.08,0,0,0-2-.65c-.52.69-1.43.15-1.89.92a1.79,1.79,0,0,1-1,.31c-.85.13-2.66-1.2-1.11-1.67,5-2.3,6.55-6.61,4.74-11.51,1-4.33-.76-8.26-1.24-12.46.83-6-2.28-6.93-6.44-8.81-.59-.27-1.21-.57-1.83-.89a3.9,3.9,0,0,1-.75-1.06c-.21-.4-.38-.83-.58-1.25a7.82,7.82,0,0,0-.64-1.22,3.43,3.43,0,0,0-.92-1c-.35-.15-.46-.85-.46-1.59a7.77,7.77,0,0,1,.26-1.83,6.58,6.58,0,0,0,.46-1.3A3.26,3.26,0,0,0,96.68,15a3.71,3.71,0,0,0-1.15-2.24c-1.17-2.41.59-5.19-.49-7.7-.54-1.11-1.15-3.57-2.81-3.17-2,1.09-1.94,4.69-4.56,4.81C86,6.78,86.76,9.5,84.91,9.9c-2.12.93-3-2-4.69-2.48C78,5.14,76.63,6.18,74.58,8c-.68.46-1.56.9-2.33.33-3.17-1.69-6,2.3-8.5,2.58-.32-.68-.48-1.49-1.33-1.79-.64-1.27,2.49-2.28,3.41-2.88,2.45-2.43,0-5.51-3.13-5C61.65,1.22,61.45.11,60.44,0c-4.67.34-.79,4.34-7.62,3.66-3.34-1.15-9.43,1-6.39,4.82a3.27,3.27,0,0,1-.79,2.17C45.56,11.76,46.35,13,47,14c8.55,7.21-1.5,7.68,3.66,14.2.14.18.53-.16.47.14-.14,1.4-1.77-1-2.71-.51-2.84.28-5.28,1.89-8.15.66-2.79-.2-5.64.39-8.28-1-3-.44-5.65-4-8.55-3.39-6.89,3.54-14.61,5-22,6.66-1.9,1-1,3-1.39,4.69-.42,1.32,1,2.44,1.28,3.75.42,1,1.76,1,2.53,1.61A10.18,10.18,0,0,0,6.78,43c5.22,2.54,9,6.61,12.76,10.79,1.73,1.18,1.67,3.46,3,4.81,1.66,1.32,2.52,3.26,4,4.65,2.63,3.1,5.94,5.25,9.1,7.81,2.42,2.2-.56,4.06-1.41,5.84s-.35,3.15.26,4.86c-.33,1.77-2.84,2.56-3.35,4.22.1.69-1.06,1.88-.22,2.32,2.19.74,3.35-.27,2.55,2.6-.31,2.34,0,1.5,1.74,2,0,1.29-1.11,2.68-1.89,3.73-.74.75-2.09.43-2.68,1.49-1.32,2-3.2,3.5-5.84,2.35-6.12-4.51-5.69.63-3.36,4.87.34,2.13.34,4.25,2.8,5.22,2.29,1.17,3.94-.65,5.43,2.2,1.49,2.14,5.23,1.44,6.09,3.85.39,2.36-1.44,4.78-.4,7,.52,1.09,1.75,1.51,2.8,1.87,3,3.65-5.84,2.49-3.7,5.38,7.66,4.16,7,7.9,16.76,8.14,1-.13,1.18,1,1.73,1.52,1.07,1.18,2.9,1.18,4.42,1.46,1,.46,1.71,1.39,2.81,1.7,1,.49,2-.48,3-.16,5.33-.28,4.44,6.51,8.91,3.72.46-.62,1.52-1.19,2.14-.53,4.73,4.06,2.81.16,5.28-1.83,1.08-.5.41-2-.21-2.71-.62-1,.5-1.55.23-2.5-.56-3.11-4.77-2.25-6-5.19-.87-3.36-3.16-2.07-5-3.62-.78-1.11-1.63.22-2.51-.46-1.15-1.42-2.57-.49-4-.3a4.13,4.13,0,0,1-1.12-.68,3.82,3.82,0,0,1-.79-.92,4.68,4.68,0,0,1-.47-1.1,5.67,5.67,0,0,1-.22-1.23,6.53,6.53,0,0,1,0-1.25,8,8,0,0,1,.18-1.21c.22-1,1.83-.56,2.44-1.32,1.91-2-.39-4.35.22-6.62.17-3.69,5.61-3,7.63-5.62,1-1.95,2.56-4,2.74-6.22.7-2.31-1.44-4.16-1.7-6.07,1.39-3.35,4.93-1.59,4.71-5.73-.27-1.19-1.92-1.59-1.1-2.93.59-1.92,2.86-2.85,4.16-4.27,1.83-1.67,2.32-4.56,4.46-5.86,4.7-1.69,9.81-3.32,12.71-7.65,1.46-2,3.68-.17,5.38-.07,1.88-.06,3.29-1.46,5.17-1.47,1.08-.11,1.64.6,2.27,1.26C110.9,72.15,112.06,68.7,111.46,67.06Zm-5.88-9.73a2.55,2.55,0,0,1-.43.07c.26-.44.73-.3,1.08-.65C106.74,56.74,105.85,57.38,105.58,57.33Z"/><path id="fill3" class="cls-2" d="M53,37.44a1.77,1.77,0,0,1,2.36-.65c1.46-4.19.27-7.62,3.72-10.72.88-4.69,3.4-.24,5.32-1.74-2.53-3-1.89-4.47.28-7.43-.27-1.69-1.24-6.29,1.84-4,4,6.78-2.61,5.82.72,10.27,1.28,4.82-10.39,3.53-8.09,16.17,5.24,4.21,3.61,7.22-1,2,.15,2-2,1.84-2.75,3.27,4.31.44,8.51,1.23,12,4.48-.76,1.84-5-2.78-7-2.89,1.54,3.33,4.71,5.12,7.1,7.81,2.73-1.5,10,0,3.11,1.19-7.35.29-7.06,9.81-14,10,4.1,19,8,16.7-1,36.85,1.35,3.71,5.06,6.82,5.49,11,.42,2.35.49,5.33.69,7.79-.58.83-2.6,2.21-3.06.61l0,0c2.77-7.84-2.6-11.2-3.85-18C53.16,98.92,56,94,55.44,89.35c1.16-3.91,2.67-7.6,1.1-11.49-1.42-3.18-1.95-8.15-2-11.75-.7-2.11,1.72-2.81,3-3.86,3-2.29,3.81-6.57,7.87-7.59-3.07-1.76-6-3.48-7.34-6.78-3.26.22-7.49-2.29-4.2-5.65C51.56,41.66,52.05,38.93,53,37.44Zm52.9,30.67c-.33.12-.67.21-1,.31,0-.54.09-1.18-.63-1.36h0a9.18,9.18,0,0,0-6.12-.15A9.57,9.57,0,0,1,102.68,61c2.08-3.07-5.82-.27-4.91,1.46-2.14,6.59-6.93,10.43-13.83,12.89,1.84-3.58,3.17-7.24,1.52-11.14,0-4.28,3.21-7.78,2.23-12.28,3-5.57,4.09-7.48,2.42-13.89-.84-2.26,3.15-8.69.69-8.6-4.54,6.38.13,12.67-2.66,17.85a10.25,10.25,0,0,0-2.24,7.65c-.52,3.32-4,5.7-3.52,9.33,1.55,4.35-.32,8.26-2.59,12,1.85-4.6.08-6-1.84-9.71-.53-1.15,1.92-5.4-.18-4.58-2.54,3.16-1.7,6.5-.11,9.59-2,3-1.21,6.77-3.16,9.77-.14-3.55-4.63-4.94-4.1-8.54-2.66-3-1.42,5.76,1,6.74,1.63,2.17-2.07,3.68-2.37,5.86-.73,3.35-2.64,10.72,1.32,11.6h0c1.25-2.54,7.61-3.64,3.85-7.45C80.85,76,89.13,79.12,96.79,69.84,97.81,71.71,109.9,70.14,105.87,68.11ZM67.81,142.4c.49-4-4.39-4.16-6.93-2.75-1.33-.54-9.63-4-5.14-1.21-1.74.69-17.21-7.62-15.87-4.25,3,2.59,7.11,3.8,11,4.56,2.95.2,4.94,3.4,8.12,2.77-.39,3.25,5.39.29,6.93,2.23C67,145.17,69,143.89,67.81,142.4Zm-29.54-20c0-2-3.53-3.36-2.56-.45-.41.79,2.4,4.21,2.44,2.2C38.85,123.83,38.7,123,38.27,122.38ZM35.35,110.5c6.7,2.69,11.09,7.93,14.7,14,.51.62,1.59-.2,1.13-.87C47.62,114.4,38,111.51,32.63,104.35c1.16,2.84,4.42,3.37,6.86,4.67,1.15.53,3.58,4.18,4.45,2.19-1.58-3.63-5.46-4.49-8.58-6.23-1.14-.87-1.44-2.4-2.47-3.39-.59-.88-5.28-2.34-4-.39-.51.13-1-.26-1.51.31-.34-.61-1.24-.8-1.47-.06-.62.9,2.64,6.17,4.07,4.24C31.74,107.31,33.11,109.38,35.35,110.5Zm1.16-66.26c-.22-.61.77-1,1.05-.44,4.24,5.6,2.69,11.71,3.73,17.9,3.26,5.57,6.14,13.19.32,18-1.57,3-.81,7-3.81,9.25-1.09,2.83-1.5,6.61-4.76,8.1-.26.45-1.25.55-.85-.16,1-1.24,3-3.09,2.83-4.73-2.81.62-1-2.35-.69-3.62-5.37.07-2.56-5,.55-6.35.66-.58.42-.41,0-1.06-1-1.4-.11-3.42-.14-4.56-1-1.67,2.45-2.23,2.42-3.92.11-.66,1-.42,1.08.15.14,2.24-2,2.65-1.76,4.74-1.39,1.5.85,3.17.36,4.72.43-1.28,2.27-1,1.34.34,3-7.36,7.19-9.12,2.42-17.76C36.53,58.63,40.87,50.82,36.51,44.24Zm1.73,40.33a1.24,1.24,0,0,0-.1.2l0,0A1.89,1.89,0,0,0,38.24,84.57Zm-2.1-1.24s0,0,0,0Zm-3,3.52c-.27-.37-.06-.87.09-1.28C32.77,85.91,32.65,86.57,33.15,86.85ZM24.53,59.49c-6.44-7-13.48-14.64-21.23-19.2-.41-.52-.79-1.06-1.15-1.62-2.47,0-2.54-8.48.69-7.9.49-.29,1.21-1.1,1.76-.55,3.6-1.37.12,2.94-1.25,2.15-3.79,6.42,8.59,11,12.09,15.59,5.79.41,12.82,7.51,16.09,12.69C30.29,62.61,27,55.81,25,55c2.81,5.22,7.36,9.23,10.29,14.38C33.24,71.42,26.38,61.91,24.53,59.49Zm-5.31-7.82.14.14A.47.47,0,0,0,19.22,51.67ZM60.94,10.3c.39.8.93,2.38,1.84.95.34-1.09-.84-2-.56-3.14,1.3-2,6.82-4.2,2.27-6.26-.38.41-2.52-.95-1.71.62C66.71,5.88,55.33,6.77,60.94,10.3ZM105.2,30.49c.73,1.2-.29,7,1.88,5.31C108.62,33.43,103.65,24.91,105.2,30.49Zm3.14,23.68c1.4-18.62-2.92-21.33-1.28-.13.78,3-4,2.17-4.29,4.75-.07.45.59.84.82.34C105,57.21,108.37,57.32,108.34,54.17Zm-36.4,48.15c.42,4.27-3.91,10.42-8.48,9.8-.14.18-.11,1-.44.58-.67-2.42,1.5-4.28,1.55-6.7,1.37-5.13-2-9.58-1.15-14.8,2.07,3.14,4,13,2.58,18.64C71,107.84,71.44,96.94,71.94,102.32Zm-7,7v.08a.43.43,0,0,0,0-.11Zm.18,1.15a2.17,2.17,0,0,1,0-.25C65,110.35,64.87,110.67,65.15,110.46Z"/><path id="fill2" class="cls-3" d="M69.49,143.37a26.28,26.28,0,0,0,3.91,2C73.75,146.78,68.46,143.76,69.49,143.37Zm7.83-.51c-2.77.46-7.29-1.28-9.09-.63C70.07,143.22,77.1,144.64,77.32,142.86Zm.26-5.1C71,137,63.09,136,60.4,128.72,58.74,134.42,72.23,139.82,77.58,137.76ZM48.37,119.52a54.75,54.75,0,0,0-7.22-6.25c3,4.35,9.46,8.74,12.38,14.19C55.53,126.39,49.73,121.29,48.37,119.52Zm-18-18.71c4.35-2.29,6.74,6.53,12.1,5.69,5.57,0,5.83,9.9,9.65,11.14-5.92-14.88-8.8-9.31-19-18.13,4.86-.06,11.74,5.89,15.88,2.9-6.3,1-14.25-7.18-18.77-2.43-1.67.51-.33,2.52.27,1.5C29.92,101.27,29.9,101.11,30.33,100.81Zm15.39,28.63c-2.82-10.11-6.21-3.17-9.28-12.12-.54,5,3.7,5.65,6.81,7.59.37,4.31,3.44,7.14,7.47,8.55C50.91,132.18,46.71,131,45.72,129.44Zm-1.58.44c-2.2.57-4.34-2.12-5.83-2.1C39.37,128.9,43.94,131.84,44.14,129.88Zm-2.45-11.34c1.11.86,5.53,4.42,5.64,2.43-2.33-.72-4-2.58-6-3.94-5.19-.55-8.22-8.69-13.26-6.39C32.75,110.73,36.47,116.87,41.69,118.54Zm-17.6-17.26c2.55,2.2,3.69,6.18,7.12,7.65C28.74,109.87,25.05,103.31,24.09,101.28Zm.13.24h0S24.2,101.5,24.22,101.52Zm27.34-2.8c2.32-5.18,3.3-10.84,4.08-16.12-1.75-5.27-4.7-11.53-2.89-15.75-5.54,8.42,7.38,12.89-2.23,32.49-.48,2.75,3.1,8.19,5.25,8.11C53.46,105.51,50.65,101.92,51.56,98.72Zm12.92-1.61c2.45-4.68-1.15-13-.15-17.73-2.33,4.85.09,10.46.41,15.44-6.75,5.6-2.66,7.19-3.44,14.44-1.87,5.74-.3,5.6.77,0C63.83,104.94,58.38,99.4,64.48,97.11Zm7.24-19.74C69,71.13,67.88,65,69.87,58.25c-3.33,4.35-1.61,13.51,1.12,19-.71,6.67-7.53,15-1.19,21C65.2,91.28,70.43,84.38,71.72,77.37ZM83.49,49.91c-1.37,2.49-1.26,5.84-3.54,7.77-8.49,4.4.84,15.37-4.61,22.25,0-.1.18-.67-.07-.47-.21,3.37,3.06-5.21,2.9-6.87.17-4.15-2.71-9.21.14-12.92C81.72,58.56,84.5,52,83.49,49.91Zm13.35-7.42c-3.64,9-7.62,17.84-11.28,26.82-.3-4.92-.17-8.67,4.12-11.75.7-8.15,3-15.8,4.47-24-2.87,5.88-3.91,16.53-5.38,23.94C81.71,61.83,87,70.61,82.6,76.79c.21-2.13-.38-.18-.41.85.81.49,1.39-2.11,1.88-2.76-.49,1.17,1.16,1.94.73.9C85.9,65,95.38,52.68,96.84,42.49ZM65.72,11.13c3.52-3.29,13.4,1,17.34,3.67,2.52,0,1.09-3.55,3.42-4,3.08-.67,1.6-3.93,3.34-5.46-2-1.51-.89,4.22-3,4.63-2.6.28-2,3.23-3.56,4.14C80.22,11.59,66.31,6.69,65.72,11.13ZM54,24.76c-1.43-6.72,9.22-11.2-2.77-13.25-1.41-1.93-5.54-5-1.29-6C48.84,4,46.51,7.35,47.38,8.83c1.83.34,2.24,2.47,3.55,3.54,11.75,1.58-.45,6.49,2.32,12.9,2.31.28,5.87,2.81,4.45,5.21C60.25,28.65,56.26,24.88,54,24.76Zm5.46,8.14c4.4-3.25,7.63-11.27,6.28-15.77,2-3.46,0,9.44-.52,10.9,5.19-1.32,6.79-5.52,5.35-10.44C74.63,23,68,27.11,63.92,30.21c6,.05,6.41-1.4,7.89-6.87,2.31-4.74.42-13-5.58-12.54,7.8-2.83,4.3,11.25,10,3.9,1.36.26-1.84,2.21-2,3.1,3.39,1.7,5-1.53,6.86,3.63,5.62,7.69,4.83-9,7.78-12.17.48-.6,2.63-2.2,2.91-1.55-8,3.8-3.27,26.74-13.72,10.78-1.06,1.35-2.69.79-4.13-.14-1,3.74-2.15,7.5-3.5,11.1-18.84,3.73-4.58,9.27.37,17.7,1.18,5.76-.94,11.38,5.94,11.56C68.82,61,72.18,51,67.28,47.81c-1.93-2.29-6-.55-7.35-4.16C59.63,39.82,58,36.71,59.42,32.9Zm4,8.17c.64,2.7,6.64,8.06,6,8.14a12.38,12.38,0,0,0,1.22,1.3,7.86,7.86,0,0,0-5-8.49C65,41.71,64.24,41.4,63.45,41.07Zm-1-1.12c-.21-.5-.41-1-.6-1.53C61.43,39.31,61.47,39.64,62.49,40Zm-2.78-5.58a3.06,3.06,0,0,0,.22,3.93C61.58,39.56,60.43,35.16,59.71,34.37Zm6,11.2a23.9,23.9,0,0,1-2.86-4.74C57.76,38.52,62,47.09,65.75,45.57ZM35,58.61c-1.12-8.86-1.55-17.25-8.06-24.14,8.45,5.36,6.46,18.48,9.95,27.4,3.5-7.46-4-18.16-2.85-24.49,1.43,7.67,6.48,16.53,3.86,24,1.43,6,7.66,13.14,1.88,19a9.54,9.54,0,0,0,2-6.48c-.29,2.14-2.18,8.74-4.16,7.67C45,75.56,37.59,65.56,35,58.61Zm6.64,14a10.75,10.75,0,0,0-1.1-3.9A20.27,20.27,0,0,1,41.62,72.59ZM29.25,60.73c3.1,2.48,7.47,7.75,10.19,8.63C33,64,26.34,55.43,19.52,52.18,23.28,54.43,26.21,57.63,29.25,60.73Zm-8.7-10.24c4.76-.46,13.09,9.66,16,14.74C33.59,58.84,28.12,51,20.55,50.49ZM41.07,29.8c3-1,5.49,1.42,7.84,3C48.8,31.17,42.66,27.84,41.07,29.8ZM25.88,26.59c6.26,1,13,9.33,18.51,13.72C42.69,36.68,28.82,24.72,25.88,26.59ZM98.64,30.9c8.26,3.29,1.56,13.05,4.77,17.17-.73-6.32,3.19-13.92-4.55-17.77-2.07-1.85-3-6.3-1.68-8.38C94.9,24.44,96.66,28.68,98.64,30.9Zm8.1,7.13c-.26-3.53-8.08-10.21-8.44-14.47C97,26.08,104.32,34.17,106.74,38Zm.59,27.49c-4.35-1-10.84-.65-2.36-2.48-.28-1-3.93,0-4.51,1.22.32,1.49-4.6,3.59-1.44,4.11C95.9,64.9,107.68,65.93,107.33,65.52ZM19.82,41.21C15.09,36.52,9.51,31.45,2.4,31.63,4.88,32.05,16.47,38.22,19.82,41.21ZM5.34,31.53c5.72-3.54,14,8.8,18.59,10.87C19.77,38.58,9.32,26.66,5.34,31.53Zm44.41,47.2c-2,9.32-14.56,10.37-16,19.12C36,89.59,49.8,87.86,49.75,78.73ZM37.37,89.3c2.31-2.41,7.27-5.5,7.53-8.35C43.24,84.16,38.74,86.73,37.37,89.3Z"/><path id="fill1" class="cls-4" d="M65.46,21.69c1.71,1.88,1.91,2.84.46,5.06-1.19,1.24-3.71.9-4.05,2.84a14.28,14.28,0,0,1-2,3c-.54.27-.58.31-.52.77.73,4.46-2.31,7,2.49,10.08-1,.73-2.48-1.66-3.33-2.33-.77-.89-.13-2.12,0-3.16.56-1.13-.15-2.14.17-3.2.43-.83-.48-2,.49-2.48,2.43-2,1.48-5.63,4.1-7.43.32,1-1.51,2-1.16,3.1,1.86-.66,5.21-2.43,3.58-4.67-3.67-3.3,3.7-3.53-1.14-9.55C68.56,15.79,66.75,18.86,65.46,21.69Zm43.2,49.43c-.63-.66-1.2-1.37-2.28-1.26-1.87,0-3.29,1.42-5.16,1.48-1.71-.11-3.93-1.9-5.38.06-2.9,4.33-8,6-12.7,7.65-2.15,1.3-2.63,4.19-4.47,5.86-1.29,1.42-3.57,2.35-4.16,4.28-.82,1.33.83,1.74,1.09,2.92.23,4.14-3.31,2.38-4.7,5.74.26,1.9,2.4,3.75,1.7,6.06-.19,2.25-1.74,4.27-2.75,6.21-2,2.63-7.46,1.94-7.62,5.63-.61,2.27,1.69,4.61-.22,6.62-.61.76-2.21.3-2.44,1.32a9.53,9.53,0,0,0-.19,1.21,7.45,7.45,0,0,0,0,1.25,5.47,5.47,0,0,0,.22,1.22,4.58,4.58,0,0,0,.47,1.11,3.87,3.87,0,0,0,.79.93,3.73,3.73,0,0,0,1.12.66c1.47-.18,2.89-1.11,4,.31.87.69,1.74-.65,2.51.45,1.83,1.56,4.13.28,5,3.63,1.25,2.93,5.47,2.08,6,5.19.26.95-.85,1.53-.23,2.5.61.76,1.29,2.21.21,2.71-2.47,2-.55,5.89-5.28,1.83-.63-.66-1.68-.08-2.14.53-4.48,2.79-3.58-4-8.91-3.72-1-.32-2,.66-3,.17-1.1-.32-1.84-1.25-2.82-1.71-1.51-.28-3.34-.28-4.4-1.46-.56-.56-.7-1.65-1.74-1.52-9.71-.24-9.11-4-16.76-8.13-2.14-2.89,6.73-1.74,3.71-5.39-1.06-.36-2.29-.78-2.81-1.87-1-2.22.8-4.64.4-7-.86-2.41-4.6-1.71-6.08-3.85-1.51-2.85-3.15-1-5.45-2.2-2.45-1-2.45-3.09-2.79-5.22-2.33-4.25-2.75-9.38,3.36-4.87,2.64,1.15,4.52-.35,5.84-2.35.58-1.06,1.94-.74,2.68-1.48.78-1.06,1.88-2.44,1.89-3.74-1.76-.46-2,.38-1.74-2,.8-2.87-.36-1.86-2.55-2.6-.84-.44.32-1.63.22-2.32.51-1.66,3-2.45,3.34-4.23-.6-1.7-1.25-3.06-.25-4.86s3.83-3.63,1.41-5.83c-3.16-2.56-6.47-4.72-9.09-7.81-1.49-1.39-2.35-3.33-4-4.65-1.35-1.34-1.29-3.62-3-4.8C15.73,49.63,12,45.56,6.78,43A10,10,0,0,1,3.9,40.76c-.78-.66-2.13-.6-2.54-1.62-.27-1.3-1.7-2.42-1.28-3.74.41-1.66-.52-3.67,1.39-4.69,7.34-1.69,15.05-3.11,22-6.66,2.91-.6,5.51,2.95,8.55,3.39,2.64,1.39,5.49.8,8.28,1,2.87,1.23,5.3-.38,8.15-.66.94-.45,2.58,1.9,2.71.52.06-.32-.33,0-.47-.15-5.16-6.53,4.89-7-3.65-14.2-.64-1-1.44-2.19-1.35-3.3a3.29,3.29,0,0,0,.79-2.17c-3-3.84,3-6,6.39-4.82,6.83.68,3-3.32,7.62-3.66,1,.1,1.21,1.23,2.26,1.23,3.16-.49,5.58,2.59,3.13,5-.92.59-4,1.61-3.41,2.88.85.3,1,1.11,1.33,1.78,2.49-.27,5.33-4.26,8.51-2.57.76.57,1.64.14,2.32-.33,2-1.84,3.37-2.88,5.64-.59,1.74.51,2.58,3.41,4.69,2.48,1.85-.4,1-3.12,2.75-3.23C90.3,6.55,90.25,3,92.22,1.85,93.89,1.46,94.49,3.92,95,5c1.08,2.51-.68,5.29.49,7.7A3.81,3.81,0,0,1,96.69,15a3.7,3.7,0,0,1-.1,1.18,6.44,6.44,0,0,1-.46,1.31,7.37,7.37,0,0,0-.25,1.83c0,.74.1,1.44.46,1.59a3.55,3.55,0,0,1,.91,1,7.82,7.82,0,0,1,.64,1.22c.19.42.37.85.58,1.25a4.27,4.27,0,0,0,.74,1.06c.63.32,1.25.61,1.84.88,4.16,1.89,7.26,2.8,6.44,8.82.48,4.2,2.27,8.13,1.23,12.47,1.82,4.89.22,9.2-4.73,11.5-1.55.46.27,1.8,1.11,1.67.35,0,.8-.07,1-.32.48-.76,1.38-.22,1.9-.91a1.08,1.08,0,0,1,2,.65,5.55,5.55,0,0,0-.52,2.84c-.67,2.12.87,2.88,2,4.07C112.06,68.7,110.9,72.16,108.66,71.12Zm-2.43-14.37c-.35.35-.82.21-1.08.65a2.55,2.55,0,0,0,.43-.07C105.86,57.38,106.74,56.74,106.23,56.75Zm1.94-10.56a4.91,4.91,0,0,0-.85,3.5,4.62,4.62,0,0,1,.61,3.11,6.37,6.37,0,0,0-.17,2.3c.62-1.24,2-2.81,1-4.17A12,12,0,0,1,108.17,46.19Zm-.1-1.49c.32,1.27.75-3.58-.14-4C107.89,42.2,106.51,43.53,108.07,44.7ZM103.73,28c3.63,3.6,1,6.77,2.86,7.44.79-1,.37-3.78-.42-5A4,4,0,0,0,103.73,28ZM63.36,3.22c1.07,1.42.19,2.3-1,3.19-1.34.54-4.46,1.5-2,2.95,1.06.72.55,1.9,1.51,2.67,1.71.05,1.55-2.15,0-2.32-.95-.14-.41-1.05-.09-1.51.83-1.31,2.68-1.56,3.68-2.66,1.83-1.42-.07-4.14-2.18-3.83C62.65,1.87,63.67,2.73,63.36,3.22ZM12.12,45.46c-1.75-1.77-4.63-2.76-6.54-4.2-1.37-2.13-6.92-8.64-1.34-8.83a.89.89,0,0,0,1-.52,4.88,4.88,0,0,1,1.3-1.8c-1.22,0-2.44.75-3.72.53C-.14,30.9.34,35,.8,36.9c.7,2.36,3.25,3.25,5.18,5.25a19.59,19.59,0,0,0,3.49,2.06A11.1,11.1,0,0,0,12.12,45.46ZM37.3,121.41c-.65-1.74-1.55-1.61-1.3.29-.36,1.13,1.34,3.62,2.33,2.67C38.77,123.09,38.27,122.26,37.3,121.41Zm30.21,20.4c-1.83-5.55-4.48-1.35-7.69-2.26a12.57,12.57,0,0,0-5.6-1.36c-1.29-1.05-2.19-.92-3.68-1-2.59-1-5.24-1.54-7.88-2.35-.79-.06-3.27-2-2.58-1,3.39,3.51,7.11,4.42,11.82,4.5,4.08,4.11,4.22,1.26,8.49,4.61,1.13.5,2.44-.81,3.57-.07.81.22,1.74-.23,2.3.51s1.56.61,1.82,1.48C68.43,144.32,67.77,142.7,67.51,141.81Zm-8.26-13.48a4.55,4.55,0,0,1-.35-.93,4.22,4.22,0,0,1-.13-1,10.32,10.32,0,0,1-.06-1.11c0-1.82.43-3.59.27-5.44a14.14,14.14,0,0,1-.22-5.3l0,0c-.09-.8-.21-1.61-.38-2.42a14.46,14.46,0,0,0-.66-2.36,5.3,5.3,0,0,0-1.19-1.5A12.31,12.31,0,0,1,55.2,107a6.76,6.76,0,0,1-.56-1.78c-.09-.58-.15-1.15-.26-1.73a9.36,9.36,0,0,0,.28-1.19c.07-.4.12-.81.16-1.25s.08-.88.12-1.34a4.35,4.35,0,0,1,.41-1.33,2.09,2.09,0,0,1,.17-.94,3.23,3.23,0,0,1,.37-.71c.15-.24.31-.48.43-.72a4.74,4.74,0,0,0,.32-.85,8.21,8.21,0,0,0-.07-1.84.14.14,0,0,0,0-.07,8.84,8.84,0,0,0-.25-3.31,18,18,0,0,1,1.15-4.68c1.91-2.34,0-3.28-.79-5.45,0-2.93-1.43-5.58-1.48-8.53a6.38,6.38,0,0,1-.64-1.31l-.07.06c-.09-.6-.28-1.18-.35-1.81A8.23,8.23,0,0,0,53.74,66a2.42,2.42,0,0,1,.16-.55,7.13,7.13,0,0,1,2.72-2.07,3.31,3.31,0,0,0,3.05-1.85c.82-.28.45-1.26,1.46-1.33A8,8,0,0,0,64.55,58c1.52-.81,1.19-2.46,2.82-3-2.38-.54-4.67-2.81-6.89-4.32-.87-.83-1.39-2.18-2.72-2.44-.7,0-.09-.72-.76-.71-1.59-.3-3.94-.15-4.84-1.59.05-.54-.38-1-.38-1.47.16-.54.62-.92.63-1.48.13-.37,1.17-.67.55-1-1.12-1.25-.84-4.11,1.31-4,.37-.06,1.39-.47,1.17.17.54-.55,1.31-1.51.52-2.13a8.36,8.36,0,0,1,.65-2.41c-.1-.22,0-.49-.55-.49-1.17-.59-1.62-2.1-2.7-2.63-2.19-.86-4.31-2.3-6.86-1.84-1.14.13-1.81,1.13-3.1.95-5.06-.78-10.58,0-15-3-5.54-3.69-6.6-1.18-11.84,1.46-2.9,2.67-9.14.32-11,4.27-.41.88-1.36.72-2.16.67-1.55.7-.88,3.09-.13,4.33a21.65,21.65,0,0,0,8,6.86c9.84,7.36,12.55,7.88,20.56,17.1-8.37-6.87-8.14-8.54-18-14.1,5.65,5.14,9.23,11.62,14.39,17.18,2.56,3.25,8.28,4.67,9,8.92-.37.19-.19.52-.28.78,0,.74-.67,1.15-1.16,1.68l0,.11a1,1,0,0,0-.31.18l-.06,0a2.23,2.23,0,0,0-.26.27.44.44,0,0,0-.08.11,2.06,2.06,0,0,0-.26.54v0c-.2.43-.25,1.15-.47,1.48-.51,1.1.46,1.72.69,2.7.63,2.79-4,3.76-3.53,6.71.16.16.38,0,.55.13.6.61,2.49-.25,2.3,1-.22,1.07-.7,2.34-.31,3.35.35,0,.84-.21,1.19,0a1,1,0,0,0,1-.47A22.41,22.41,0,0,1,37.15,89c0-.55.05-.7.59-.89.81-.57,1-1.78,1.55-2.64A21.41,21.41,0,0,1,40.15,81c.19-.49.24-1.61,1-1.58a.44.44,0,0,0,.4-.21c.35-.65.31-2,1.18-2.17,1.45-1,.72-4.1.49-5.73-.12-4.83-4.27-8.28-4.46-13,.64-5.79,1-7.14-1-12.87,3.89,4.75.54,10.43,2,15.66,1.48,3.34,3.77,6.26,4,10.09.49,1.85.92,4.91-.6,6.26-.87.82-1.14,2.15-2.15,2.94-.88,2.39-.79,4.95-2.08,7.16-.31.78-1.39.91-1.18,1.85-.26.72-.91,1.72-.81,2.47a2.68,2.68,0,0,0-.62.64c-1.3,2.3-2.22,4.75-5.14,5.78-.88.52-.63,1.46-1.5,2-.16.08-.16.21,0,.2,1.25.06,1.89,1.11,2.3,2.08.19,1,1.48,1.4,2.13,2.18a13.36,13.36,0,0,0,2.16,1.51c.25.14.51.27.77.39l.77.34.76.28.92.37a3.91,3.91,0,0,1,.77.6c.24.25.47.53.7.82s.43.62.64.94.33.52.51.76.34.48.53.71.36.47.56.7.41.47.64.7c-.22-.19-.42-.38-.61-.57s-.37-.38-.54-.57-.35-.38-.51-.57-.34-.4-.49-.61-.32-.43-.48-.64-.31-.43-.46-.64a8.1,8.1,0,0,0-.65-.56,4,4,0,0,0-.69-.41c-.25-.09-.51-.18-.78-.26l-.87-.27c-.3-.1-.61-.2-.92-.32s-.62-.25-.92-.4a8.31,8.31,0,0,1-1.69-1.13c-4.68-2.6-1.82-5.63-8.27-4.3,2.42,4.88,2.6,3.16,6,6.07a7.22,7.22,0,0,0,3.41,3,9.2,9.2,0,0,0,1,.41c.35.12.71.22,1.06.32l1.06.27,1,.25c.32.09.63.2.93.31a7.58,7.58,0,0,1,.86.42c.32.27.64.57,1,.88s.67.63,1,.94.73.63,1.1.94.73.64,1.12,1a10.6,10.6,0,0,1,.77.83,12.22,12.22,0,0,1,.79,1c.27.4.53.82.81,1.26l.41.7c.14.24.28.48.43.72s.31.49.47.73l.49.71q.26.34.51.66c.18.21.35.4.53.59a7.79,7.79,0,0,1-1-.94,14.49,14.49,0,0,1-.95-1.21c-.3-.43-.58-.86-.84-1.28s-.49-.82-.71-1.21l-.5-.71c-.17-.22-.33-.43-.49-.61a10.9,10.9,0,0,0-.91-.9,10.25,10.25,0,0,0-.8-.66l-.7-.54-1.2-1-.74-.6-.61-.5a6.79,6.79,0,0,0-1-.68,3.67,3.67,0,0,0-.8-.33,4.8,4.8,0,0,0-.7-.11c-.46,0-.88,0-1.38,0a4.63,4.63,0,0,1-.82-.15,6.13,6.13,0,0,1-1-.37A14.47,14.47,0,0,1,32.84,110c-1.33-.92-1.93-2.6-3.47-3.24a4,4,0,0,1-2-1.09c-1.1-1-1.2-2.51-2.21-3.6-1.35-.44-3.47-3.85-4.57-2.38-.54,2.31,1.6,4,1.8,6.17,0,1.42.16,2.82,1.52,3.67,1.41,1.62,4.32,0,5.53,1.61,1.26,3,5.52,2.4,7,4.71.76,1.79.43,3.91,1.87,5.47.39.63,1.38,1.15,1.1,2-.66,1.54.73,3.16,0,4.66s-3,.79-4.17,1.73c-.95,1.41,1.32,1.62,2.56,2.3l.08.08.22.11a1.28,1.28,0,0,1,.35.39c.18,0,.23,0,.22-.08A20.64,20.64,0,0,0,42.61,134a32.74,32.74,0,0,0,9.56,2.43c.9-.29,1.25.57,1.94.87,1.24.52,2.71.16,4,.63,1.7,1,3.54,1.74,5.3.42,3.54-1.24,5.08,2.53,5.64,5.42a3.82,3.82,0,0,0,0,.68v.27a2.18,2.18,0,0,0-.1.71A2.07,2.07,0,0,0,69,146a.35.35,0,0,0-.14-.06c2.15,4,3.66-3.06,7.79,1.52.66.37.68.37.79-.39.65-.82.69-2.33,1.56-2.8,1.13-.32-.37-1.42-.44-2-.32-1.26.68-2.27,0-3.44-.31-1.33-2.35-.74-3.23-1.5-5.09-4.94,0-3.06-7.6-6.32-1.48.8-2.07-1-3.36-.86a3.21,3.21,0,0,1-3,.22,3.61,3.61,0,0,1-.85-.49,4.57,4.57,0,0,1-.71-.68A4.34,4.34,0,0,1,59.25,128.33Zm-.94-50.52c2-2.51-1.66-3-2.12-4.91-.13,1.77,1.17,5.16,1.46,7.45.59,1.21,2.07,2.21,1.1,3.67-2.16,3.21-1.67,6.91-1.6,10.51-.24.3,0,.43.3.15.75-.92-.64-2,0-2.9.2-1.32,1.26-1.92.66-3.27-.25-1.14,1.47-1.78,1.09-3.05a.26.26,0,0,1,.19-.33c.79-.22.54-1.16.74-1.8C60.84,81.13,57.75,80,58.31,77.81ZM83.55,72.7c.43-2.3-1.89-4.6-1.26-7.06.86-1.7.39-3.59,1.29-5.27.78-1.46,2-2.7,2.23-4.22a3.85,3.85,0,0,0,0-1.65,8.35,8.35,0,0,1,.8-1.83c.35-.61.75-1.26,1.16-1.94s.82-1.38,1.19-2.1a18.83,18.83,0,0,0,1-2.16,10.76,10.76,0,0,0,.6-2.08,8.57,8.57,0,0,0,.1-1.94,13.81,13.81,0,0,0-.26-1.84c-.13-.6-.27-1.19-.38-1.79A11,11,0,0,1,89.75,37a10.06,10.06,0,0,1,.2-2.07c.16-.75.33-1.56.52-2.41.1-.43.2-.86.31-1.28s.21-.86.33-1.28c.44-.14.31.72.07,1.77-.11.52-.25,1.08-.36,1.56a9,9,0,0,0-.19,1.1,13.83,13.83,0,0,0-.34,2.08,8.93,8.93,0,0,0,.08,1.88c.09.6.2,1.19.33,1.78s.23,1.19.3,1.8a10,10,0,0,1,0,1.9,9.66,9.66,0,0,1-.42,2A18.43,18.43,0,0,1,89.78,48c-.33.72-.7,1.44-1.09,2.15s-.77,1.38-1.14,2A11,11,0,0,0,86.66,54,9.7,9.7,0,0,0,86.3,56c-.07.65-.12,1.3-.16,1.95-2.7,2.25-3.1,6.07-3.26,9.26,1.1,3.06,2,5.75.59,8.83,1.16-1.36,3.19-.56,4.7-1.32,2.06-.77,3.92-2,4.7-4,0-.71.32-1,1-1.31a21.64,21.64,0,0,0,1.83-2c.53-.9.13-2,1.24-2.59.88-.69-.12-1.56-.37-2.11,1.64-.13,2-1.65,3.27-2.27.82-.64,1.11-1.82,2.42-1.68,1.26-.65,2.24-.21,2.48-2,.38-.58,1.78-.4,2.15-1.09,1.32-3-.77-6.43.34-9.29,1.36-1.33-1.5-2.6-.52-4,1.67-2.64.16-5.86-1.69-7.89a6.53,6.53,0,0,0-.27-4.63,10.43,10.43,0,0,1-1.39-2c-.86-.35-1.79-.63-2.68-1a8.79,8.79,0,0,1-1.28-.59,4.58,4.58,0,0,1-1.09-.8,4,4,0,0,1-.24-.33,2.1,2.1,0,0,1-.13-.26c0-.23-.11-.45-.18-.67a1.66,1.66,0,0,0-.18-.38l-.13-.34A5.08,5.08,0,0,0,96,21.42c-.45-.2-.9-.49-.77-1a2.75,2.75,0,0,0,0-1.48,3.45,3.45,0,0,1-.06-1.49,5.39,5.39,0,0,0,.74-1.79,1.91,1.91,0,0,0-.38-1.78c-2.2-2.16-.51-5.32-1-7.92-.27-1-.9-3.79-2.12-3.37C90.93,4,90.69,7.08,88.1,7.32c-.62.06-.69.12-.8.73-.37,2.33-3.55,3.61-5.26,1.7-1-1.48-2.8-2-4.06-3.09-8.65,5.73-4-1.76-14.54,5.4-1.52,1-2.7.09-3-1.44s-3.34-2-.82-3.49c.92-1,3.94-1,3.5-2.8-.1-2.11-2.57-5.17-4.6-2.92-.8.93-.69,2.55-2.43,2.67C53,4.27,44.12,2.54,47,8c.63.75,0,1.62-.45,2.31-.71,2.75,2.39,4.55,4.1,6.32,3.24,4.25-3.82,7.34,1,11.33.41,1.56,3,1.46,3.59,3,.82.92,1.73,2.83,1.5.32-.3-.45.19-.41.29-.83s-.31-1,.21-1.16c.31-.11.48-.28.5-.55.44-.54,0-1.13.51-1.64.26-.28,0-.68.56-.77,1.05.09.2-1.46,1.1-.93.84,1.52-1.72,1.19-1.37,2.93A9.83,9.83,0,0,0,57.58,33c0,1.25-.68,2.41-.55,3.68-.64,4.05-4.06-.25-3.86,3.64-.33.89,1.09,1.06,1,1.89-.78.75-1.83,1.79-1.35,3.07,4.6,2.61,9,.63,13,2.54.56.54,1.13,1.08,1.74,1.57l.19.16.11.09c.12.11.24.22.35.34l.15.19a1.1,1.1,0,0,1,.09.14l0,.07a13.2,13.2,0,0,0-10.72-2.91c-.49-.13-.24.32.13.2a3.81,3.81,0,0,1,2.62,1.58,6.36,6.36,0,0,0,2.93,2.53c1.64,1,2.87,3,5.11,2.31A15.13,15.13,0,0,0,75.79,54c1.06-.19,1.36-.15,1.24,0a8.75,8.75,0,0,1-1.15.27,22.88,22.88,0,0,0-2.62.68,19.1,19.1,0,0,0-2.15.24,2.53,2.53,0,0,0-1,0c-2.93-.37-2.88,1.15-4.52,2.82-1.33,1.44-3.28,2.23-4.73,3.31a10.43,10.43,0,0,1-2,2.16c-4.53,1.33-4.69,1.81-4.21,5.44a1.62,1.62,0,0,1,.31.19c.38,1.36,1.22,2.53,1.68,3.87a1.86,1.86,0,0,0,.77.84c1.11,0,1.24,1.28,1.91,1.87.59.77-.39,1.74-.44,2.57-.08,1.82,2.47,2.76,2,4.85-.25,2.36-2.63,4.14-2,6.56.23.74-1,1-.72,1.88-.6,1.18.48,2.54-.5,3.57l-.53.56a1,1,0,0,1,0,.52,2.3,2.3,0,0,1-.29.59c-.26.38-.57.78-.83,1.2a4.58,4.58,0,0,0-.54,1.4c0,.53-.06,1.07-.1,1.6s-.09,1.07-.16,1.59-.14,1-.2,1.5a7.71,7.71,0,0,1,.3,1c0,.25.07.51.15,1a2.17,2.17,0,0,0,.58.92c.28.29.59.56.91.85a7.92,7.92,0,0,1,.88.95,3.34,3.34,0,0,1,.58,1.18,7.17,7.17,0,0,1,.38,1.33c.34,1.54.68,3.84.35,3.85,0,1.35-.14,3.33.4,4,.49.9-.44,2.88.46,3.22a2.36,2.36,0,0,0,2-1.44c.12-2.48-1.15-5.18.12-7.7.91-1.54-.59-3.62,1.35-4.91,2.1-2.74,1.57-6.39,2.62-9.51-.1,3.1,0,7.15-1.9,9.69-1.35,1-1.41,2.66-1.09,4.18a22.27,22.27,0,0,0,6.13-3.1c1-.91,1.09-2.31,1.76-3.38a2.88,2.88,0,0,0,.8-2.7c.52-1.24-.44-3.06-1.2-4.2C70,98.5,69.19,98,69,96.85c-.56-3.57-1-7.27,1-10.63-.21-1.13.81-2.11,1-2.93.48-.29.79-.64.67-1.11.11-1.14.21-2.33-1-3-.7-.64-.42-1.74-.85-2.54-.08-.21.09-.5-.15-.65-.28-.3.37-.32.44-.06.42,1.28.46,2.68,1.8,3.4.78.8.24,2.12.42,3.13-.07.86-1.12,1.22-1.16,2.14-.62.69-.34,1.52-.58,2.26C69.25,88,69.41,90,69.07,91.51a18.06,18.06,0,0,0,1.08,6.15c.53-.76,1.11-1.53,1.73-2.31s2.51-.56,2.79-1.66c0-.71.41-1.34,0-2a9.16,9.16,0,0,0-1.75-1.77c-1.16-2.26.34-4.74.68-7.06.43-1.22,2.34-2,2.32-3.42,3-4.62.15-1.9.89-5.38.12-1.14,1.54-2.63,0-3.31-.37-.17.06-.47-.22-.65-.26-.49.62-.91-.15-1.31.88-.23.6.45.71,1,.07.91,1.64,1.09,1.27,2.1-.66,1.46-1.45,3.14-.26,4.49a15.39,15.39,0,0,1-3.31,5.87A18.61,18.61,0,0,0,73.3,88.2c-.15.46.6,1.09.76.52.43-1.42,2-2.25,3-3.31C81,82.3,82.56,77.27,83.55,72.7Zm14.84-7.8c.77-.61,1.18-1.19,2-1.78.7-.89,1-2,1.88-2.69.44-.37-.65-.73.13-.9.17-.12.55.1.56-.16s-.27,0-.42,0-.53-.12-.73.19c-.32,0-.61,0-.75.38-.27.54-.43.94-1.16,1.08-.8.66-1.64,1.68-2.27,2.24.65,1.76-1.47,2.85-1.59,4.66a47.28,47.28,0,0,0-4.37,5.61c-1.64.82-3.29,2.17-5.21,2.2a3.63,3.63,0,0,0-3.13,1.14c-.41.4.09,1.09-.55,1.57a29.46,29.46,0,0,0,10-4.52C94.92,71.2,98.08,68.2,98.39,64.9Zm7.92,4.21c-3.43-3.57-6.87-2.2-8-1.66a6.7,6.7,0,0,0-1.18,2.43C99.72,69.35,99.35,72.23,106.31,69.11Zm3.88-2.3c-3.5-1.31.1-8.36-1.61-6.94-.29,1.08-1.37.31-1.91,1-1.28,1.24-2.84.14-3.9-.36-1,1.31-1.32,3.13-2.89,3.94-.37.09-.54.66-.93,1A3.23,3.23,0,0,1,98.52,67c4.44-2.53,6.75,1.34,9.74,2.49.06.44,1.29.48,1,.8-.07.07-.19.16,0,.23C110.73,71.07,111.61,67.36,110.19,66.81ZM23,53.31s0-.06-.05-.07Z"/></g></g></svg>