<svg xmlns="http://www.w3.org/2000/svg" viewBox="0 0 59.45 130.61"><defs><style>.cls-1{fill:#ff76a7;opacity:0.75;}.cls-2{fill:#e5559a;}.cls-2,.cls-3{opacity:0.5;}.cls-3{fill:#82213a;}.cls-4{fill:#7f244d;}</style></defs><g id="Layer_2" data-name="Layer 2"><g id="rice-paper-sail-medium-1"><path id="fill4" class="cls-1" d="M57.1,47.53c-1.56-2.68-2.1-5.74-3-8.64-2.81-3.76-6.18-7.26-6.84-12-2.86-4.59-9.19-4.08-14.11-3.36a16.33,16.33,0,0,0,1.66-3.74c1-2.9,2.93-5.36,2.66-8.54,1.67-4.5-.61-6.15-3.9-8.72-1.1-1.93-3.32-3.25-5.42-2-.53.69-2.56,1.76-1.35,2.54,1.58.85,3.1,1.7,3.62,3.55.19.8-.91,2-.63,3,.22.8.75,1.44.07,2.19.27,1.34-1.42,1.82-2.17,2.6a43.53,43.53,0,0,1-5.08,4.2,9,9,0,0,0-4,7.11,7.92,7.92,0,0,1-1.87,2,13.43,13.43,0,0,1-2.24,4c-3.4,1.63-.95,6.16-3.59,8.18-1.83,1-3.28,2.32-3.64,4.36-.73.79-.43,2.1-.94,3-1.95,1.64-1.78,4.17-1.79,6.62C4.27,56.15,3.1,58,2.4,60.2a28.85,28.85,0,0,0,.13,8.65A2.56,2.56,0,0,1,2,71.35c-.51.57,0,1.52-.69,2-.76,2-1.74,4.39-1,6.49,3.55,2.93,6.34,7.86,11.41,8.09,5.12,1.06,9.16,5.12,14.5,5.61,4.42,1.81,6.77,6.79,11.16,9,3.49,3.93,3.21,10.31,3.76,15.33.78,3.67,1.74,7.26,2.29,10.92,5.35,4.42,4.46.07,5.45-4,1.39-8.67,4.34-17.11,5.41-25.77C57.87,82.16,62.25,64.24,57.1,47.53ZM9.15,87.12l.07,0C9.17,87.18,9.16,87.15,9.15,87.12Zm7,2.11,0,0C16.26,89.24,16.23,89.24,16.2,89.23Z"/><path id="fill3" class="cls-2" d="M55.05,70.55c-.94,16.52-1.76,36.34-7,50.81,2.25-25.33,19.5-65.58-8.77-81-4.88-3.85-13.81-6.13-16-11.83C36.82,41.3,60,46,55.05,70.55ZM49.69,88.9C59.54,55.05,26,51,20.78,25.86,25.1,51.76,57.2,53.05,49.69,88.9Zm-27.27-47c3.17,4.3,7.89,10.84,10.76,13.68-3.65-7.34-11.23-12.19-13-20.55-.9-2.86-1.68-5.95-1.05-8.95C17.27,30.55,20.27,37.41,22.42,41.92ZM10.46,56c.33-3.1-4.89-9-2-13.07C5.38,46.35,9.06,52.17,10.46,56Zm-.54,5.62C15.67,69.27,3,51.77,6.49,48.75,3,50.46,8.46,58.53,9.92,61.61ZM8.33,63.16c2,3.36,4.67,8.86,7.49,10.37C11.1,67.7,5.67,60.11,5,52.83,4,56.48,7.11,59.87,8.33,63.16ZM19.57,81.23c-7.11-5.06-16.26-12.87-16.25-22C1.52,67.22,13.35,78.49,19.57,81.23ZM4.72,80.64C3.26,79.31.92,76.79,2,74.91c-2.42,4.3,5.31,8,8.54,9.73C10.42,83.26,6,82.26,4.72,80.64ZM12,84.44c6.29,3.16,14.62,6.38,19.15,11.23C26.74,89.4,18.48,87.61,12,84.44Zm30.23,2a67.19,67.19,0,0,0-13.33-32.3c8.1,13.14,13.41,28,12.47,43.77-2.55-15.48-9.76-30.87-17.75-43.5C32.67,72.07,42,90.68,41.38,111,44.22,106.55,42.21,93.88,42.2,86.47Zm7.54,17c0-3.86,2.33-10.3,1.13-12.92-2.73,10.81-1.28,24-5.55,33.75C50,121.55,47.53,109.43,49.74,103.52Zm-2.4,12.73c-.1-7.35,1.44-15.83,1.89-22.52C47.74,97.55,46.33,124.33,47.34,116.25Zm-.81-12.62c.21-6,2.12-14.17,1.09-19.16-.18,6.58-1,13.11-1.57,19.65-.15,5.66-1.86,13.12-.14,17.93C45,115.94,46.16,109.75,46.53,103.63ZM38.68,29.18c-4.31-2.32-9.59-3.83-12.87-7.31,2,4.23,7.52,5.12,11.22,7.39,4.74,2.68,8.38,6.65,11.81,10.81C49.53,37,42,31.52,38.68,29.18Zm-1.33-2.81c4-.83,6.37,4.86,8.23,5.84C45.68,29.05,37.21,23.65,37.35,26.37Zm-9.54-4c-.26-4.4,5.53-2.87,6.08-5.95-.49-1.3-1.67-3.41.56-3.63,3.09-3.72-.82-9.47-4.17-9.86,2.3,2.79,6,4.44,3.88,8.75-2.06.7-2.35,2.51-1.26,4.36C33.82,18.31,26,18.09,27.81,22.36ZM25,19.47c-.13-1.82.74-3.32,2.7-3,1.41-1.62,1.21,1.17-1.57,1C25.79,17.78,25.64,20.54,25,19.47Zm1.12-2a0,0,0,0,0,0,0S26.2,17.42,26.15,17.47Zm-15.06,30c1.4,7.12,7.24,19.12,12.3,21.48C17.89,60.61,9.81,51.16,12.8,40.47,10.77,38.87,10.78,46,11.09,47.51ZM40.3,107C39.69,99,35,89.39,30,84.1c4.6,6.72,8.52,14.07,9.7,22.21-2.55-6.62-5.48-14.86-10.12-19.56C33.73,90.43,43.75,119,40,107.27A.25.25,0,0,0,40.3,107Z"/><path id="fill2" class="cls-3" d="M58.75,63.35c-.28-2.12,0-4.38-.65-6.24,1-10.17-7.55-26.69-17.37-32.09-4-2.11,11,16.28,10.78,19.14-2.25-3.5-8.94-6.84-10.88-7.83-4-2.18-10.25-7.72-13.55-7.8,2.71,1.89,5.65,3.44,8.36,5.32-.52-.1-2.4-1.45-1.57-.62,7.89,5.82,18.25,12.57,22,22.65,4.22,21.37-5.2,43.67-7,65.23,1.72-3.64,1.56-10.4,3.46-14.91,0,3.1,1.21-4.7.85-5.91.36-1.44.7-2.89,1-4.34,1.84-5.72,4.56-21.21,4.36-30.19C59.5,65.68,58.55,64,58.75,63.35ZM40,36.91l.86.4C40.51,37.62,40.25,37.07,40,36.91ZM51.59,105.1c0,.07,0,.14,0,.2l-.06.2C51.52,105.37,51.56,105.23,51.59,105.1Zm-1.46,8.46a1.5,1.5,0,0,1,0-.2.34.34,0,0,0,0,.1Zm.42-2.69c0-.15,0-.3.07-.45h0C50.62,110.57,50.58,110.72,50.55,110.87Zm.56-3.39a6.87,6.87,0,0,1,.3-1.36,12.76,12.76,0,0,1-.36,1.76C51.05,107.74,51.12,107.58,51.11,107.48Zm.28.84c.09-.5.17-1,.26-1.48a1.41,1.41,0,0,0,.18-.14C51.68,107.24,51.53,107.78,51.39,108.32Zm.37-1.86.18-.47C52,106.17,51.58,107,51.76,106.46Zm.27-.53s0-.05-.07,0l.27-.71C52.17,105.44,52.1,105.69,52,105.93Zm-.21-.07a13.25,13.25,0,0,1,.47-1.83A5.38,5.38,0,0,1,51.82,105.86Zm2.87-17.13,0,0c0,.14-.05.29-.1.43C54.63,89.05,54.67,88.89,54.69,88.73Zm-.82,6.54a39.46,39.46,0,0,1,1.4-6.44A40.73,40.73,0,0,1,53.87,95.27Zm1.48-5.7.12-.63s0,0,0,0C55.45,89.15,55.41,89.36,55.35,89.57Zm1.58-35a5.38,5.38,0,0,1,.41,1.27C56.94,55.62,57.09,55,56.93,54.57ZM48.84,68.82c-3.26,1.37-3.58-12-6.46-14.89-4.11-8.37-17.23-11-19.92-19.56C32.39,44.88,49.42,50.78,48.84,68.82ZM26.21,22.4c.51.41,2.21-.64,1.21-.94.14-.3.42-.66.42-.69,3.21-1.09,4-4,5.7-6-.3-2.55,2.28-4.68,1.47-7C33.4,6.28,30.23,2.14,28.39,3c4.64,2.8,1.8,9,.21,13.06,0-.1-.06.08-.05.05a.77.77,0,0,1-.18.18C26.89,16.81,23.46,20.77,26.21,22.4ZM34,8.72l0,.06L34,9C34,8.92,34,8.82,34,8.72Zm-.19.59-.22.41c0-.12-.08-.25-.13-.37A.37.37,0,0,0,33.82,9.31Zm-2.51,4.53c0,.13,0,.25,0,.38a.91.91,0,0,1-.13-.1S31.23,13.94,31.31,13.84ZM27.07,22c0,.08-.07.12-.11.06S27,22,27.07,22ZM47.16,127.72a3.56,3.56,0,0,1-.23.95.81.81,0,0,1-.29.34c0,.47-.38,1-.91.77a2.68,2.68,0,0,1-2-2.25.61.61,0,0,1-.24-.41c0-.31-.11-.63-.16-1a.7.7,0,0,1-.11-.29c-.12-.7-.23-1.39-.35-2.09-.24-1.19-.45-2.38-.61-3.58-.54-3.23-.94-6.45-1.2-9.72a1.46,1.46,0,0,1,0-.22,48.23,48.23,0,0,1-1.49-7.17,1.74,1.74,0,0,0,0-.22c-.68-.1-3.48-9.24-3.9-11.72C30.93,76.71,16,68.26,12.54,53a.54.54,0,0,1,1-.29c1.57,6,7.06,9.81,8.92,15.79s8.89,7.79,11,13.76c-2.63-10-8.69-18.75-12.46-27.9,9.16,12.93,15,29.92,20.25,45.34A1,1,0,0,1,43,99.38c3.81-22.48-4.33-39.86-18.53-55.77-3.41-7,2.49,3.85,5.4,5.33C49,61.45,45.19,89.56,45,110.91,46.68,114.65,48.93,124,47.16,127.72ZM16,70.8C7.46,64.33,5.23,52.28,10.92,44c3.52-5.81,6.7,8.11,11,8.25,10.17,7.21-16.47-11.95-4.18-22.41,3.06-2.72,2.08-9.3,5.5-9.91-3.93-1.67-3.12,5.62-5,7.54a17,17,0,0,0-5,10.92C10.53,40,6.59,45.7,5.4,49.88c.7,4.4-2,7.37-3.1,11.27C.67,65.23,3,69.64,1.05,73.64c-2.13,3-.8,6.63,2.06,8.64,2.82.29-4.27-5.75.24-9.79,1.51,6.23,13.11,16.59,17.58,13.94-5.28-2.81-11.8-6.15-15.3-12C6.63,75,4.1,72,3.91,71.79c1.25-3.64.69-8,1.59-11.84,1.77,2.76,4.55,9.34,7,9.57a130.45,130.45,0,0,0,15.5,14C29.45,80,19,74.33,16,70.8Zm-6.83-26a.81.81,0,0,1-.34.53Zm-3,14.89c-.1-.14-.4-.54-.07-.75C6.77,60.25,7.33,61.59,8,62.9,7.34,61.85,6.76,60.77,6.17,59.71Z"/><path id="fill1" class="cls-4" d="M27.09,46.56c-3.59-4.33,10.07,9.53,11.29,11.67,9.91,12.59,7.37,29.76,5.68,44.49-.56-3,.71-8.79.88-12.69C47.25,72.39,40.23,58,27.09,46.56ZM21.68,33.77c5.17,10.41,20.81,14.92,24.68,27.17,1.68,3.24,1.52,7.22,2.71,10.5-.42-3.55-.69-7.27-2.13-10.74C42.46,48.58,28.47,43.85,21.68,33.77ZM54.26,98.94c-1.07,8.66-4,17.1-5.41,25.76-1,4.12-.1,8.48-5.46,4.06-.54-3.67-1.5-7.26-2.28-10.93-.55-5-.27-11.39-3.76-15.33-4.4-2.17-6.74-7.16-11.16-9C20.85,93,16.8,89,11.69,87.93,6.62,87.69,3.83,82.77.28,79.84c-.69-2.11.28-4.55,1-6.5.71-.48.19-1.43.7-2a2.61,2.61,0,0,0,.51-2.51,28.52,28.52,0,0,1-.13-8.65c.7-2.18,1.86-4,2.18-6.34,0-2.44-.17-5,1.79-6.61.51-.92.2-2.24.93-3,.37-2,1.82-3.36,3.65-4.35,2.63-2,.19-6.56,3.59-8.18a13.3,13.3,0,0,0,2.23-4,8.3,8.3,0,0,0,1.88-2,9,9,0,0,1,4-7.11,45.73,45.73,0,0,0,5.09-4.2c.75-.78,2.43-1.26,2.16-2.6.69-.76.15-1.39-.06-2.19-.28-1,.82-2.21.62-3-.51-1.84-2-2.7-3.62-3.54-1.2-.79.83-1.85,1.35-2.54,2.1-1.22,4.32.1,5.42,2,3.3,2.57,5.58,4.22,3.9,8.73.27,3.18-1.7,5.64-2.66,8.54a15.9,15.9,0,0,1-1.66,3.74c4.92-.73,11.26-1.23,14.11,3.35.67,4.77,4,8.27,6.85,12,.86,2.91,1.4,6,3,8.65C62.24,64.23,57.87,82.16,54.26,98.94Zm-25-80c-.38.25-1.56,3-2.29,3.74,1.39,1.16,2.92,2,4.64,1.12l1.1-.17c.78-4,4.23-9,4.2-13.11.2-1.38,1.15-3.46-.35-4.29-2.13-1.82-4-4.2-6.25-5.62-1-.47-2.48.47-3.13,1.36S28.41,3,28.92,3.41c2,1.41,3,2.58,3.5,4.95.19.23.82,1.78.06,1.45-1.34-2.26-1.43-4.81-2-.18.88,1.85.19,3.93-.66,5.76C29.72,16.53,30.22,17.82,29.28,18.89Zm-5.45.93c.87.63,1.78,1.59,2.74,2.45.51-1.59,3.08-4.36,2.56-5.87-.64-1.35,1.84-3.75-.75-1.64C25.64,16.37,24.26,18.07,23.83,19.82ZM9.21,87.15l-.06,0S9.16,87.17,9.21,87.15Zm7,2,0,.06S16.26,89.23,16.23,89.17ZM53.51,99.62a46.74,46.74,0,0,0-2.1,8.94C50.44,115.08,53.59,102,53.51,99.62Zm3-28.48C58.93,59.9,54.26,48.73,44.85,42c-7.07-6.7-17.49-9.9-21.58-19.37-.78-.92-.43-2.06-.76-3a7.27,7.27,0,0,0-3.05,6.23c-2,1.91-2.77,4.58-4.61,6.54-5.6,5.67,4.89,17.39,9.69,21.56,1.46,1.31,2.85,2.23,4.16,3.64a42.28,42.28,0,0,1-6.56-5.28C17.59,49.2,15.3,42,12.75,38.76c-.42,1.59-2.19,2-3.33,3-2.14,2-1.61,5.54-3.72,7.59-.68,2-.11,4.38-.78,6.38a25.76,25.76,0,0,0-2,5.7c-.58,1.82-.05,3.61,0,5.43-.4,1.62.65,2.77,1.24,4.16a42.15,42.15,0,0,0,8.63,11.73c-2.22-.8-3.42-3.3-4.9-5A81.12,81.12,0,0,1,3,70.17c0,5,4.1,9.66,8.1,12.6.06.47-.57-.24-.71-.31-4.15-2.19-5.93-6.6-8-10.41-.65,3-3.72,7.09.17,9.23,3.63,3.26,6,6.22,11.23,6.54C18.1,89.59,22,92.3,26.68,93c2.64.82,4.29,3.3,6,5.26,2.35,2.09,5.41,2.76,6.62,5.92.5-1.62-2.69-7.43-1.46-7.38,3.67,9.76,3.29,20.57,5.86,30.54a1.73,1.73,0,0,0,1.76,2.12c3,2.43,2.51-7.08,3.47-8.94,2.42-7.62,1.56-15,4.66-22.71C55.19,88.89,55.33,80.05,56.51,71.14ZM55.26,91C58,80,60.21,65,57.75,53.06c-.32-.78-.77-1.91-1.35-3.47a40,40,0,0,0-2.58-5.26c-.87-1.61-2.32-2.87-3.1-4.53-1.43-1.53-3.22-2.35-4.16-4.33-2.78-6.51-1-5-6.5-9.39,6.06,1.18,5,8,9,11.28a31.49,31.49,0,0,1,5,6.57,62.08,62.08,0,0,1,3.06,6.49c-.21-.76-.44-1.5-.69-2.23-.75-2.92-2.39-5.77-2.84-8.9-2.53-3.84-6.38-7.16-6.84-12-3.21-5.12-11.22-3.73-16.24-2.49-1.22.7-5.44-2.63-6.79-4.28C23,27,34.76,33.75,40.1,37.39,64.31,54.18,56.81,66.13,55.26,91ZM18.75,75.51c-7.2-3.37-11.11-13.85-14-18.45,2.4,6.38,6.27,13.86,12.57,17.86C18.05,75.51,20.59,77,18.75,75.51Zm17.56,9.21c-.54-1.2-2.23-4.58-2.77-6h0c-.26-.73-.81-2.09-1.69-4.24C31.3,72.18,17.46,47.41,21.3,56.24c2.13,1.67,9.77,18.05,11.89,22.2h0c.9,2.23,4.64,9.81,5.9,13.88,4.76,15.39,5.24,20.29,7,28.89a23.79,23.79,0,0,0,1,4.72c-.86-10.59-3.83-21.22-6.78-31.28C38.85,90.8,37.94,88.34,36.31,84.72Zm-24.57-19C9.64,63.08,8.3,59.55,6.23,57c3.14,7.35,9.24,14.47,15.44,20,1.1.76,2.12,1.93,3.34,2.45A92,92,0,0,1,11.74,65.77ZM12,51.45c4.84,14,15.5,24.39,23.94,36.18.38-.63-1.88-3.18-2.54-4.39C25.15,73.52,17.17,62.39,12,51.45Z"/></g></g></svg>