<svg xmlns="http://www.w3.org/2000/svg" viewBox="0 0 85.87 115.47"><defs><style>.cls-1{fill:#ff76a7;opacity:0.75;}.cls-2{fill:#82213a;}.cls-2,.cls-3{opacity:0.5;}.cls-3{fill:#e5559a;}.cls-4{fill:#7f244d;}</style></defs><g id="Layer_2" data-name="Layer 2"><g id="rice-paper-sail-medium-2"><path id="fill4" class="cls-1" d="M83.2,58.16c-2,4.55-3.38,9.82-7.9,13.15-2.56,1.58-6,.84-8.45,2.48-2.24,6-7.38,6.89-7,9.78,1.15,4.47-3,7.93-3.82,12,.47,6.86-4.51,10.82-7.19,16.41-.3,1-2.41,2.08-2.2,2.62.71,1.14-1.74.8-2.48.72-3-.09-2.85-3.2-2.48-5.32,0-1.22,1.4-1.66,1.33-2.8,1.73-4.9-6.25-4.27-5.64-8.82,1.76-2.57,3.33-2.39,1.48-5.9-1.28-2.46.33-6.52-3.08-7.42-2.49-1.13-4.85-2.61-7.31-3.89-1.5-.31-3.48-.08-4.73-1.28C20.44,76.7,18.36,72.74,15.8,69,8,63.72,5.05,61,3.24,51.49c-.76-2.57,2.76-3.77,3.2-6.26,5-10.43-12.5-.23-4.12-17.77C3.29,25.14,6,25,8.27,25.21c2.69-.75,5.53-3.05,8.47-1.82,3.51,2,2.24-.26,3.43-2.73,1.72-3.9,4.11-.69,5.7,1.23,2.5,1.2,1.83,3,1.84,4.9,2.73-.09,2.83-.1,2.34,2.5,1.61,2.52,2.66,5.4,1.85,8.21.14.46-.67,1.14-.19,1.39.28.1.25.28.16.51-.25,1.75,3.09-1.06,3.7-1.31,2-.63,2.37-3.25,4.18-4.15,2.41-2.95,4.12-3.76,7.5-5.29,1.62-2.63,2.89-6.66.83-9.37.12-1.21,1.3-2.76,1.83-4.12.94-2.36,5.22-1.28,4.56-4.56-.57-2.93,2-4.42,4.12-5.73C59.91,3.31,60.41.79,62.45,0c1.7-.15,3,.74,4.59.3C69,.1,72.36-.39,73.12,1.93c.58,1.3.85,3.85,2.57,3.87,3.4-.31,8.82.49,10.18,4.18-.62,3.87-1.82,7.68-2.06,11.67-.66,3.22-3,6.53-3,9.58,1.91,3.74-1,8.13-1.35,12C77.23,48.53,88.1,47.35,83.2,58.16Z"/><path id="fill3" class="cls-2" d="M10.51,61.14h0c-.54-.3-.66.51-.37.81-10.72-10,5.57-16.76-1.22-21.88C6.67,44.35.7,54.55,6.16,60.64,8.93,63.51,26,81.21,17.21,68,18.13,64.78,13.23,62.09,10.51,61.14ZM11.4,63A6.77,6.77,0,0,1,13,64C12.48,63.68,11.93,63.33,11.4,63ZM19,34.42c-1.92-2.6-1.9-5.13.08-8.18.25-1.19-.66-3.25.89-2,0-.09,0-.17,0-.25.05-.4.11-.81.18-1.22a.7.7,0,0,1,.09-.24v-.1a10.77,10.77,0,0,1,1-3.08,1,1,0,0,1,1.62-.21A9,9,0,0,1,24,21.26a.78.78,0,0,1,.24.09,4.57,4.57,0,0,1,2,2.19s0,0,0,0a.88.88,0,0,1,.3.28,3,3,0,0,1,.47,2.22c0,.32,0,.76-.06,1.24,1.2-.07,3.23-.79,3,1.54A4.13,4.13,0,0,0,30,31.15a.9.9,0,0,1,.45.38A6.81,6.81,0,0,1,31.37,36a6.76,6.76,0,0,1,.07,2.58C30,46.31,39.2,50.11,37.56,57.66c-2,1.46-.82-4.91-2.72-5.92-3.65-3.49-6.1-7.94-5.88-13.12C25.39,32.35,20.09,39.17,19,34.42Zm41,8.11c3.79-7.44,9.22-14.75,10.24-23.16-1-4.67-.18-29.28,3-12,.26,6.19,4.61,11.76-.4,17.46-2.48,9.79-9.58,19.09-12.72,28.85C57.09,83.77,53.92,48.68,60,42.53ZM49.46,84.67c-1.22-5.62-2.47-11.36-3.78-16.9-4.56-3.08-8-26.8,1.62-24.52-1.16-4.53,5.87-6.66,6.26-11.51-2-7.18,1.91-13.36,4.37-20.27.37-1.68-1.07-2.44-2-.87-4.68.77,1.62-7.86,3.61-2.52-.11,9-.63,28-8.84,32.84-2.66.76,1,5.54-3.82,4.85-3-1.66-1.47,2.86-3.39,3.54.37,4.79,1.91,10.33,2.86,15.3,3.78.9,3.08,6.83,4.29,10.24C50.21,77,52.93,86.92,49.46,84.67ZM63.54,64.9c-3.6,6.95-1.86,14.72-4.12,21.82-5.25,5-3.67,12.36-7.39,17.87-2.76,0,1.25-6.57,1.14-8.77-.08-1.82.94-8.32.86-3.6,5.52-8.63,1.92-19.64,8.39-27.79C62.8,63.9,63.75,64.2,63.54,64.9ZM47,91.2c.52,4.43-1.19,14.34-3.14,14.14v0c-1.55-.33-.78-3.43-1.91-2.71-2.13.92-6-5.18-2.77-5.6,2.05-2.17.78-3.52,0-5.88,0-6.26,3.16-13.69,1-19.6C37.54,70.31,33,70.87,33,66.76c.3-5.88-5.16-10.43-6.16-16.42.39-4.18,11.24,14.45,9.31,16.53,3.76,1.18,7,3.27,8,6.71a11.13,11.13,0,0,1,1.07,4.72A39.46,39.46,0,0,1,47,91.2ZM80.63,55.39c.61,5.91-1.53,12.21-6.33,15.8a.75.75,0,0,1-1-.16,2,2,0,0,1-2.92-.55c6.42-7.7,2-17.1,4.4-26.14-5,5-7.17,11.88-10.06,18.13C60.64,59.68,69.46,47.26,72.34,43c2.24-11,9.48-24.15,10-35.54,4.8,4.77,1.08,13.55-2.34,21.83a.92.92,0,0,1,.28.63,48.37,48.37,0,0,1-.13,6.61A12.36,12.36,0,0,1,79.28,41a.93.93,0,0,1-.21.33c0,.6-.08,1.2-.09,1.8C78.87,47.41,80.21,51.23,80.63,55.39Z"/><path id="fill2" class="cls-3" d="M67.47,38.54C61.21,49.73,59.89,61.87,55.4,73.86c.47-5,4.18-12.63,4.06-18.94C60,47.33,66.5,42.2,68,34.64c4.92-4.84,8.61-12.07,8.31-19-1.5-2.28-4.3-7-1.37-8.82a8.39,8.39,0,0,0,2.32,7.47C80.41,23.7,70.93,31,67.47,38.54ZM65.56,25.62c-5.45,9-9.76,22.77-8.35,32-.07-13.34,6.21-24.72,11.13-36.57,5.3-11.2-4.69-10.71,1.32-19.25.32-.42-.57-.39-.81-.52C61.64,11.67,73.26,8.71,65.56,25.62ZM53.71,40.31c-17.25,11.26-4.61,24.39-2,38.58C53,67.76,37.69,53.35,50,45.2c4.67-4.06,10.81-10.41,9.52-17-.53-2.63,2.18-4.65.91-7.33-1.43-4.1,3.3-7.11,2.09-11.27.77-2.6-5.48-6.42-2.69-3-.11-.21-1-1-.09-.59,3.75,3,1.4,8-.27,11.54C59.57,25.51,59,33.66,53.71,40.31ZM17.33,28.17c1.68,2-.57,5-.95,6.94,1.48,3.34,3.42,4.57,6.59,2.29,1.67,1.13,3,2.85,5.06,3.52,1.65,6.73,6.84,12.36,8.66,19.27,2.54-4.85-7-13.59-7.74-19.8-10.39-8-5.53-.49-10.47-3.48-2.79-2.79,2.91-7.56-1.59-10C14,25.44,16.07,27.26,17.33,28.17ZM40.22,92.33c.47,1.58,2.31,8,.25,7,.42-3.07-1.15-5.74-1.54-8.71-3.76-10.68-.8-10.55-10.26-18,.65-13.73-6.92-16.19-14.1-26.17C25.15,58.2,28.12,56,30,73.15c7,3.27,7.24,9.28,8.9,16,3.81-24.43-7.68-12.41-7.4-22.52.4-14.18-18-16.37-19.08-30.4,3.36,13.15,20.82,16.56,20,31.78-.2,2.48,2.14,3.08,4.14,3C43.31,75.2,39.13,86,40.22,92.33Zm-27-54c0-.1-.07-.19-.1-.29C13.15,38.11,13.18,38.21,13.22,38.31Zm34,59.84c-4.3,23.78-6.9,15-1.28-2.75-4.06-14-1.38-22.94.94-1.68a27.74,27.74,0,0,0-1.26-10.55C48.7,85,48,94,47.24,98.15Zm-1.3,3v-.08c-1,3-3.52,6.43-2.54,9.73A34.63,34.63,0,0,0,45.94,101.14Zm33.7-46.27a32.52,32.52,0,0,1-.94-11.56c-2.39,1.78-1,7.33-.58,10.19A12.27,12.27,0,0,1,77,64.19C79.37,64.65,80.78,57.43,79.64,54.87Zm-5.39-9.25c-3.32,4.7-7.26,13-7.57,17.84A127.23,127.23,0,0,1,71.39,51.3c-.55,2.37-3.12,7.87-1.8,9C70,55.26,72.58,49.58,74.25,45.62ZM62.15,71.05c3.59-9.25,2-7.89-.7.3-.59,1.68-2,6.13-.15,6.85C60.45,75.91,61.39,73.23,62.15,71.05Zm2.37-3.27c-1,3.31-3.29,8-2.78,10.93C61.73,75.25,64.91,70.09,64.52,67.78ZM51.91,78.67A156.6,156.6,0,0,1,48,110.39c-.15-.57-.89,1.56-.08,1.16C51.1,102.44,54.24,86.07,51.91,78.67ZM21.83,74.82c.15-9.47-14.51-15.41-7.5-24.7-2.72-1-4.45,7.29-2.39,9.64-3.07-1.68-6.41-5.5-2.11-7-1.41-2.61,2.58-3,3.14-5.15,1.84-4.62-.8-12.44-6.84-10.69-2.87.64-7-3.5-4-5.74-3.55,1.25.25,6.84,3.4,6.35,3.94-1,7,1.55,7.15,5.55C14.58,47.68,8.26,49,9,52.58c-7,3.9,6.82,9.31,7.45,14.22C17.18,72.9,33,88,21.83,74.82ZM39.11,57c1.09,2.21,5.4,15.94,3.75,8.85.62,1.07,2.17,5.29,3.08,4.24a26.09,26.09,0,0,1-3.5-7.55c-.71-7.38-4-16.65,5.31-19.34,4.75-5.57,5.57-12.23,5-19.14,1.35-3.63,7.43-10.37,2.83-13.42-4.13,4,2.95-2.11-.39,6.05-5.88,7.58-1.44,17-7.5,24.58-9.89,6.56-7,8.22-6.46,18.94-5.77-12.61,3.18-23.65,7.91-34.84.2.73.31-.57.31-.87-2.25,2.45-3.77,8.1-6.27,11.35C38,41.79,38.85,49.76,39.11,57Z"/><path id="fill1" class="cls-4" d="M79.44,43.21c.36-3.85,3.25-8.25,1.35-12,0-3.05,2.36-6.36,3-9.58.24-4,1.44-7.8,2.06-11.67C84.51,6.29,79.08,5.49,75.69,5.8c-1.72,0-2-2.57-2.57-3.87C72.35-.39,69,.09,67,.32c-1.64.44-2.89-.46-4.59-.3-2,.77-2.54,3.29-3.86,4.85-2.07,1.31-4.68,2.8-4.12,5.73.66,3.28-3.62,2.2-4.55,4.56-.53,1.35-1.72,2.91-1.83,4.12,2.05,2.71.78,6.74-.83,9.37-3.38,1.53-5.1,2.34-7.51,5.28-1.8.91-2.19,3.53-4.17,4.16-.62.25-3.95,3.06-3.71,1.3.09-.22.13-.4-.16-.5-.47-.25.34-.94.19-1.39.81-2.81-.24-5.69-1.84-8.22.49-2.59.39-2.58-2.35-2.49,0-1.88.66-3.7-1.83-4.9-1.6-1.92-4-5.13-5.71-1.23-1.19,2.46.09,4.71-3.43,2.73C13.8,22.15,11,24.45,8.27,25.21c-2.23-.23-5-.07-6,2.25C-6.06,45,11.4,34.8,6.44,45.23c-.45,2.49-4,3.69-3.21,6.26C5,61,8,63.71,15.8,69c2.55,3.73,4.63,7.7,7.9,10.93,1.26,1.2,3.24,1,4.73,1.28,2.46,1.28,4.83,2.76,7.31,3.89,3.41.89,1.81,5,3.08,7.42,1.85,3.51.29,3.33-1.48,5.9-.61,4.55,7.37,3.92,5.65,8.81.07,1.15-1.37,1.58-1.34,2.81-.36,2.12-.47,5.23,2.49,5.32.73.08,3.18.41,2.47-.72-.21-.54,1.91-1.66,2.21-2.62,2.67-5.59,7.66-9.55,7.18-16.41.82-4.11,5-7.57,3.83-12-.36-2.89,4.77-3.73,7-9.78,2.5-1.64,5.9-.9,8.46-2.48,4.51-3.33,5.85-8.6,7.9-13.15C88.09,47.35,77.22,48.53,79.44,43.21ZM71.64,2c.68.56.42,1.68,1.15,2.2,1,3.17-1.09,7,2.18,9.66.25,4.59-2.88,8.78-2.58,13.55-.11,1.38-1.28,2.3-2.38,3-2.65,2.4-2.25,6.78-3.84,9.82-3.65,2.78-6.09,6.27-6.44,11-1.12,1.53-1.2,3.54-1.36,5.41,0,.54.15,1.49-.53,1.7-.1-1.05.18-2.27.11-3.4a30.86,30.86,0,0,1,3-10.75C62.7,40,63.75,35.81,65.36,31.8c1.87-4.07,5.75-7.1,6.4-12,3.09-8.56-4.15-8.49-.52-16.7C70.82,2.89,71.18,1.37,71.64,2ZM29.22,27.86c.76.07-.29.89-.11,1.39.23,1.54,4,6.31.74,4.44A1.89,1.89,0,0,1,29,31.42c.49-1.17-.55-2.16-.66-3.32C28.24,27.59,28.94,27.87,29.22,27.86Zm-1.89.73a12.06,12.06,0,0,1,.59,2.33c-1.2,3.52,3.3,3.35,3,6.51a8.21,8.21,0,0,0-2.46-1.59c-1.76-.75-1.64-2.87-3-3.94-1-1.23-2.77.58-4-.46-2.39-.86-.3-3.82-1.13-5.51-.11-.44,1,.09,1.3-.22S22.66,25,23,25.29c.48.73.45,4.22,1.74,2.53.55-.72,1.3,2,2.09.67C27.11,28.28,27.21,28.28,27.33,28.59Zm-5.89-8.37a1.49,1.49,0,0,1,2.38,1c.74,1.29,2.39,1.67,3.06,3,.5,1-.86,2.16-.24,3.11.14.39-.5,0-.56-.18-.22-.78-1.07-.43-1.44-.93-.41-.66-.41-1.58-1.17-2C18.25,25.45,20.07,24.21,21.44,20.22ZM5,54.13c.16,1,.1,1.64-.25.27-2.47-5.26,4-7.64,3.55-12.95.14-.66-1.13-2.13,0-1.62,2.57.85,2.23,3.83,1.79,5.94-1.26.56-2.72.14-1.81,2.39C8.66,53.17,3.31,49.11,5,54.13Zm78.16,1.26c-2.18,5.51-3.75,11.93-8.94,15.44-6.18,2.57,1.93-4.77,1.34-7.42.19-2.07,1-6.78-.92-7.48,0-.32.49-.1.53-.35-.61-2.63.13-5.17.32-7.77-.89-3.11-1.5,4.9-1.47,5.75,1.51,6.15,1.16,13.11-4,17.41-2.13,1.32-5,1.83-5.46,4.76-.95,2.19-3,3.58-4.79,5.09,0-2.2-.69-4.42-.05-6.64-.24-2.4,3.31-5.59,1.82-7.5-3.3,5.2-3.45,11.87-2.7,17.91.62,3.27-2.36,5.84-3.32,8.8-1.59,3.75-.53,8.53-3.44,11.59.12-7.09,3.27-13.62,1.86-20.72-.24-9.7-3.32-14.73-.92-.64.84,7.75-1.87,15.06-2.07,22.65-2.3,2.5-2.71,6.18-5.7,8.13-2.62,1.16-3.61-3.3-2.36-5.06,1.55-1.49,1.45-3.91,2.14-5.84,1.25-2.22-.28-4.62.15-7-.2-.66,1-6.4,0-4.83-1.55,3.57-.41,7.79-1.06,11.54-.25,1.46-1.19-.6-2-.93-2.89-.46-5.82-4.59-1.62-5.49,3.09-1.53.92-6.85,1.25-9.74,2-3.2.47-6.63,0-10.11-.24-2.12,2-5.68,0-6.71a21.57,21.57,0,0,0-4.19-1.87c-1-1.39-5.17-5.92-5.14-7.55-1.19-6.52-7.17-9.24-10.81-14-1-.64-6.1-12.69-5.64-8,2.39,7.06,7.59,11.66,12.64,16.7,3,3.5,3,9.14,7.2,11.85a10.63,10.63,0,0,0,2,1.49A25,25,0,0,0,41.16,71c.57,1.9-.83,4.46-.33,6.58.35,3,2.07,6.43-.19,8.85,0,2.9.54,5.6.21,8.44-.61-.15-1.26-3-1.66-4.26-.42-2.66.06-6-3.42-6.33-3.09-1.54-6-4.21-9.59-4.26-4.95-1.62-6.58-7.75-9.69-11.51-3.25-3.23-8.44-4.74-10.08-9.43-1.52-3.46-.17-1.5.59.45,2.86,2.36,6.58,3.6,8.45,7,.7,1.3,1.43,2.08.48.09-.8-4.87-7-4.88-8.47-8.66a6.18,6.18,0,0,1-1.58-5.75c.87-.68,2.76.49,2.78-1.36,1.68-2-.46-4.12,1.32-4,2.2-.58,1.46-4.37,1.08-6.07-.76-2.24-3.31-1.69-4.88-2.22-7.52.63-5.67-8.51-2-12,1.65-1.22,4,.08,5.73-1,1.76-1.24,4.25-2.13,6.35-1.26,5,1,1.94,4.24,3.35,7.24,1.44,1.38,3.54,1,5,1.1.45.65,1.32.92,1.22,1.78.48,1.33,2,1.88,3.17,2.61a9.18,9.18,0,0,0,1.8.95c-1.23,4.59,2.34,8,3.83,12,.78,3,1.2,7.37,3.55,9.2-1.77-3.84-1.66-8.79-3.89-12.49-2.93-4.24-3.94-5.41,1.27-7.65,3.94-3.26,6.64-8.22,12-9.69,5.48-7.94-.65-9.36,2.91-13.8.84-1.52,2.89-1.28,4.07-2.47,1.56-1.31-.19-7.36,2.73-5.53,4.1,1.49,1.64,6.43.46,9.57-.67,2-1.11,4.5-2.5,6.5-1.75,2.88.65,5.29.61,8.15-.08,1.88-1.67,3.38-2.48,4.92-1.37.43-1.33,2.31-2.72,2.88-.41.27-.77,1.14-1.29.67-1.43-.64-1.67,3.38-.95,4.14-1.4.72-2.56.2-4,.28a5.31,5.31,0,0,0-2.29,4.6,42,42,0,0,0,4.09,16.89,68.43,68.43,0,0,0,2.22,13.4c.37,1.27.41,8.85.92,3.86.26-5.58-2.2-11.24-2.1-17-.56-3.12-3.16-5.49-3.27-8.65.36-3.88-3-9.29.86-12.3,1.52.29,3.51.45,4.63-1,.2-.52-.6-.78-.65-1.29s.19-1,.14-1.47.14-.54.57-.42c1.13.18,1.53-1.62,2.6-1.91.71-.89,5.79-6.47,3.8-6.33,2.74-2.36-2.06-6.6.18-9.57,1.08-2,2.16-3.75,2.35-6.11.81-2.56,2.57-4.92,2.17-7.74-3.86-5.53-2.54-1.63.5-7.51,1-2.48,2.79-1,4.52-1,1.09-.46,3.82.35,4.07-.75.35,0,.43.51.85.43-3.26,11.78-.34,6.11.89,14.85-.17,5.79-3.41,10.11-6.5,14.67-1.34,3.77-3.07,7.06-3.87,11-1,1.91-1.35,3.79-2.34,5.62-1.61,2-.89,4.08-1.51,6.31-.26,1.81-.2,3.95-.38,5.73.71.91.05,2.06.23,3.06.54,2.08,1.18-.23,1.06-1.18,1-5.25,2-10.62,4.05-15.77,3.55-3.31,5.67-4.61,6.31-9.78.25-3.08,2.52-4.46,4.3-6.46a61,61,0,0,1,2.78-12.31c1.3-3.81-3.59-6.5-1.48-10.4a31.89,31.89,0,0,0,4.46.47A15,15,0,0,1,81,7.65c4.78,2.87-4.88,22.59-6.09,25.25-.73,1.75-.18,3.88-.76,5.76C73.77,40.37,72,41,71.79,42.82c-3.05,6.09-7.54,14.08-7.51,20.25,1.49-5.72,3.54-9.89,5.52-14.93a.92.92,0,0,0,0-1.13c.78.66,1.29-1.3,1.75-2a29.29,29.29,0,0,1,3.15-5.23c1-3.16.12-7,2.64-9.56.62-5,9.34-19.57,4.12-23.07A6.39,6.39,0,0,1,85,9.5c.74,2.11-1.79,4.13-1.3,6.31a36.58,36.58,0,0,1-3.9,13.7c.47,3,1.1,6-.26,9.18C74.6,50.87,85.16,45.23,83.12,55.39Z"/></g></g></svg>