<svg xmlns="http://www.w3.org/2000/svg" viewBox="0 0 71.46 127.3"><defs><style>.cls-1{fill:#ff76a7;opacity:0.75;}.cls-2{fill:#82213a;}.cls-2,.cls-3{opacity:0.5;}.cls-3{fill:#e5559a;}.cls-4{fill:#7f244d;}</style></defs><g id="Layer_2" data-name="Layer 2"><g id="rice-paper-sail-medium-3"><path id="fill4" class="cls-1" d="M68.69,61c-.86-.78.51-.38.13-1-.91-2.32-2.65-3.47-4.63-4.72-1.25-1.34-1.54-3.9-3.17-4.69-8.38-4.47-3.42-9.54-2.84-17,0-4.12-4.82.12-4.42-6a14.32,14.32,0,0,0-2.44-10.81c-.64-4-2.18-5.92,1.16-9.35,1.11-1.53,3.44-.66,4.66.26,1.46.3,3.51-1.95,2.7-3.33a14.75,14.75,0,0,0-6-1.71C56.05-.55,53.29.19,50.77,0c-1.38,0-2.65.9-4,1.29-.79.38-.41,1.14-.77,1.81C45,5.58,42.23,7,39.82,8c-6.27,1.75-5.48,3.89-5.93,9.37-.12,1.13.38,2.28-1.46,1.45-2.85-1.81-6.69-1.22-9.4-3.5-4.81-2.07-12.29-7.44-16.3-1.66-1.05,1-3,.43-3.14,2.37-.11.32-.4.26-.68.23C2.25,18,1.05,20.15,1.84,22.3,3.13,28,5.16,34,3,39.88a10,10,0,0,0-1.87,3.23c-2.64,4.42,0,4.45,1.63,8.18-.12.53.44.86.33,1.3-.26.81.54,1.42.61,2.21,0,.13-.08.31.1.37s-.08.26,0,.38.35.29.24.56c.27,1.88-2.63,2-3.35,3.34S.54,62.37.3,63.73c.38.15,0,.5.06.76-.13,1.34.46,2.5.45,3.79.9,2.87,1.32,6.16,2,9.14,0,1.25-.26,2.71.51,3.91.45.18,0,.57.2.94,2.83,10,9,20.58,9.08,31.68-.26,4.34,1.14,10.41,5.63,12.06,4.11,1.31,5.69,2.8,7.66-2C30.91,104.2,39,109.39,52.62,99.47c5.67-4.16,17.09-18.61,17.66-25.24C71.58,68.08,72.64,66.13,68.69,61ZM50.75,9l.11-.16C50.88,8.92,50.82,9,50.75,9Z"/><path id="fill3" class="cls-2" d="M19.81,90.59c-2.16-8.77-4-16.94-7.46-25C11.63,58.49,18,52.23,15.79,45.2c-2.27-6.75-4.84-13.42-7.13-20,.76-2.71,3.82-4.08,2-7.15-.78-1-.55,1.16-.39,1.58C5.22,26.3,11,35.25,13.11,43.2c4.47,11.64-8.1,21,2,33.13,0,4.31,0,8.63,1.58,12.75,5.27,11.81-10.2,28,3.36,36.22v0c2.46,0-1.86-6.41-.73-8.77C20.88,107.67,23.27,99.49,19.81,90.59ZM12.6,70.47c.47.75,1.44,1.26,1.74,2A6.69,6.69,0,0,1,12.6,70.47ZM41.24,34.1c8.89-32.62,12.07-29.73,3,.37C43.42,68.7,39.07,65.72,41.24,34.1Zm10.21-5.75c.89,3.55-6.18,10.09-.06,10.74a1,1,0,0,0,.75-.3.93.93,0,0,0,1.25-.07,8.58,8.58,0,0,0,.94-1.41c-.67,3.27-1,7.18-1.51,9.9-.54,4.61,4.15,6.26,7.08,8.24a3.28,3.28,0,0,0,2.76,3.94c0,.23-.22.52,0,.73-1,1.49-5.79,6-4.15,6.89,2.48-3.79,14-7.12,4.9-11.47,1.4-3.32-2.51-5.35-5.07-6.25-4.94-2.66-1.38-8.15-1.24-13a.93.93,0,0,1,0-.1,3.46,3.46,0,0,0,.18-2.28,2.14,2.14,0,0,0-.77-2.13.71.71,0,0,0-.69,0l0,0a1.56,1.56,0,0,0-1-.22.77.77,0,0,0-.36.12A8.82,8.82,0,0,1,53.86,30v-.42a.9.9,0,0,0-.2-.58c-.43-2.67-.26-5.76-.43-7.76a.59.59,0,0,0-1.06-.32A6.28,6.28,0,0,0,50.39,18,34.16,34.16,0,0,1,51.45,28.35Zm12,31.15-.07.09v-.1Zm-52.77,40c.1.5-.68.76-.79.21h0C8,89-4.46,67.41,3.41,59c2.3-2.23,5.95-2.88,6.66-6.56.35-2.23.35-12.26,1.28-5.89,1.83-.95-.22,4.66.1,6C11.16,57,6.58,57.72,4,60.38c.25,5.16-.59,10.63.22,15.69C9.1,79.91,8.56,92.52,10.73,99.52ZM5,42.19c-1.8-7.77-.39-9,.81-.34C10.35,50.94,8.1,51,5,42.19ZM70.44,69.11a.75.75,0,0,0-.16-.35l.24-.41-.59.12a1,1,0,0,0-1.23.24c-20.32,4.18-4.59,4.82-15.12,12.94-.33,2.76-4.25,6.37-1.42,8.48a1.66,1.66,0,0,1-.06.16.35.35,0,0,1-.05.08.92.92,0,0,0-.12.39c-1.73,4.31-9.29,7-10.76,9.84-.77.37-1.53.76-2.3,1.22a.7.7,0,0,0-.32.7l-.14.09a.67.67,0,0,0-.9-.17,50.51,50.51,0,0,0-4.92,3.26c-.64.43-1.26.87-1.87,1.34a.68.68,0,0,0-.31.2l-.13.14c-.6.47-1.18,1-1.75,1.46A27,27,0,0,1,34,103.15c1.06-2.05,0-4.21,2.92-5,2.62-2.6-.89-5.3-2.73-2-.3-2.62-.29-5.92-3-7.28,6.33,1.07,6.45-6.31,10.54-8.23,1.77-2.33,4.38-.83,6.65-1.84a16.3,16.3,0,0,1,6.21-5.39c.29-1.67-3.53.81-4.5,1.29-2.92,4.64-6.5,1.87-11,3.84-2.55.84-2.69,3.17-3.68,5.34C26.17,94.56,22,78.45,20.89,71.16c-1.6-1,.64-5-.72-4.89C16.56,94.54,38.64,87,30.85,102.84c-4.66,4-7.2,11.07-8.52,17,.83-1.83,1.88-4,3.13-6.21a.65.65,0,0,0-.06.43c-.87,1.78-1.71,3.58-2.49,5.42a.52.52,0,0,0,.1.59c-.09.28-.17.55-.24.8l0,0c0,.13-.07.26-.1.39l0,.09s0-.08,0-.11c-.12.44-.22.77-.25.86a.47.47,0,0,0,.06.44v0c0,.11,0,.23,0,.34a.39.39,0,0,0-.25.31c-.27,1.62-.32,1.13.16,2.7a.48.48,0,0,0,.82.18.62.62,0,0,0,.82-.25l.26-.66a.65.65,0,0,0,.75-.48c.82-2.62,1.63-5.25,2.45-7.87L30,112.1c1-.94,2.08-1.86,3.14-2.76l.09,0,8.11-4.15a.85.85,0,0,0,.9.06,38.92,38.92,0,0,0,3.79-2.18,1.15,1.15,0,0,0,.79-.06,22.75,22.75,0,0,0,7.86-5.68s.08,0,.11-.08c1.88-2,3.66-4,5.38-6.16a1.14,1.14,0,0,0,.19-.36c1-1.27,1.91-2.58,2.8-4a.89.89,0,0,0,.13-.66c1.25-1.18,2.55-2.32,3.88-3.44a.9.9,0,0,0-.22-1.5q.26-.53.48-1.05a28.52,28.52,0,0,0,3-8.82.83.83,0,0,0-.08-.54l.21-.6A1.07,1.07,0,0,0,70.44,69.11Zm-44.1,43c-.14.28-.31.56-.45.83l-.35.48c.29-.49.58-1,.89-1.48h0ZM7.63,14c.12,0,.25-.06.37-.09l-.49.26a22.88,22.88,0,0,1,3.86-.74,14.82,14.82,0,0,1,1.49,0c1.15.49,2.3,1,3.49,1.39.62.37,1.35.79,2.26,1.24a.55.55,0,0,0,.22.42c.53.4,1.06.76,1.6,1.09-1.24,1,3.85,4,8.45,5.31a1.16,1.16,0,0,0,2.11.6.83.83,0,0,0,.16-.09c1.94.31,3.53.15,4.1-.82,0,9.44-6,9.81.35,19.1-1,6.9-10.11,14.49-8.32,20.66C28.52,52.68,41,46.63,35,36.79c-.36-3.62,3.78-6.49,2.51-10.25,2.74-5.82,6.34-11.69-.47-16.27-1.41-.08-1.73.2-1.52.75a.61.61,0,0,0-.35.47l-1.05,6.65a.79.79,0,0,0,.14.58q-.16.48-.36,1l0,0a1.87,1.87,0,0,0-1.39-.05.71.71,0,0,0-.75-.29l-.09,0-4.07-1.77a.71.71,0,0,0-.91.3A6.74,6.74,0,0,0,24,16.56,5.66,5.66,0,0,0,22,15.4l-.28-.15a.53.53,0,0,0-.21-.24c-2.29-1.54-5.14-3.32-7.9-3.85-2.36-.47-4.47.63-6.48,1.75A.6.6,0,0,0,7.63,14ZM37.1,20.26a1,1,0,0,0-.31-.25l.27-.35v0a2.61,2.61,0,0,0,.17-.28C37.22,19.6,37.17,19.89,37.1,20.26Zm-9,.41a.65.65,0,0,0,0,.13l-.19-.21.24.05A0,0,0,0,0,28.05,20.67Z"/><path id="fill2" class="cls-3" d="M15,106.7c-.06,4,1.85,18.66,0,7.52A104.21,104.21,0,0,1,14.89,93c-.29-9.69-6.41-18.14-5.18-28.09,1.6,2.71.53,10.11,2.73,14.19C17,87.92,15,97.29,15,106.7ZM20.78,114C28.9,86.6,18.36,87.41,15.3,63.33,14.12,68.54,17,77.47,19.71,83.19c9.46,12.33-3.8,27.39,1.68,40A19.51,19.51,0,0,1,20.78,114ZM50.09,87.05c.81-3.54,4.45-5,5.67-8.13-.19-2.28-.08-4.72,1.76-6.39C58.2,71.16,70,69,68.29,67.74,62.91,70.21,53.74,70.17,55,78.36c-.19,2.53-3.44,3.22-4.29,5.54-6.55,18.69-26.2,18.69-27.86,38.3C25.57,104.25,44,102,50.09,87.05ZM47.16,26.6c.85-4.05,4.67-9,2.56-13.06-.28-.27-.68,1.09-.28.8.36-.78.42.13.44.57-4.24,14-8.69,29.38-1.46,43.33,1.55,0-2.73-8.07-2.53-10-1.29-3.57.36-6.93.32-10.49A20,20,0,0,1,47.16,26.6ZM43.36,59c-.77-5.85-2.91-15.67-1.53-23.06C43.17,29.14,45-.09,55,3.89,42.92-4.38,37.61,51,43.36,59ZM27,72c-3.28-12.91,2.72-17.71,8.48-27.68a5.27,5.27,0,0,0-1.1-3.83C26.55,34,36.83,28,34.2,21.11c-1.42,13.13-8.64,8.94.12,22.38-.83,5.32-6.57,8.68-8,13.9C25.28,61.65,24.88,69.05,27,72ZM7.75,51.77C5.2,47.12,4.81,41.08,4.58,36.38,3.84,40.9,4.73,49.62,7.75,51.77ZM9.85,43A18,18,0,0,0,7.78,32.3c-2.12-3.51-1.17-10-2.67-12.48-.08,10.37,6.13,19.39,4,29.94-.67,2.35-1.55,6.22-4,7.11C9.65,56.16,10.08,47.31,9.85,43Zm51,21.69c-3.12,5.16-6.32-.32-7.76,8.89-2.68,2.16-6.66,2.22-8.94,5.36-.19.17.06.5.27.35,2.71-3.49,9.08-2.37,10-7-.17-3.62,2.82-4.1,5.53-5,2.51-1.5,3-10.24,6.92-6.57-1-.11.73.71.56.13C64.77,56.22,61.83,62.06,60.81,64.69ZM39.45,81.05c2.68-.82,3.36-4.24,6-5.1a3.47,3.47,0,0,0,3.13-3.46c1.76-4.32,6.74-6,9.64-9.31,1.4-1.76,2.77-4.72,4.44-5.64-1.82-.1-3.21,2.86-4.08,4.07-3.2,4.44-10.18,6.29-11,12.31-.44,1.1-1.34,1.16-2.3,1.48-2.61.88-3.52,4.07-6,5.31C39.11,80.8,39.25,81.11,39.45,81.05Zm29.32-12c-.89,4.37-4.26,2.3-7.39,4.63-3.51,13.75-11,21.16-19.84,29.51,10.54-6.5,17.61-17.43,20.57-29C64.39,72.57,69.84,73.39,68.77,69.1Zm-40,17c9.82,3.51,9.25-12.07,9.54-17.06-1.92,3.65-.63,7.87-1.61,11.73-4.59,11.86-12.72.84-15.43-5.91C22.72,78.63,25.08,83.65,28.81,86.11ZM8.55,14.61c.17.13.3-.09.2-.23,11.33,6,2.81,12.27,6.16,16,5.39,4.72,4.81,12.67,2.73,18.94-.22-4.57-.11-9.44-1.27-13.89-1-3.42-6-5.9-4.57-9.79a5.66,5.66,0,0,0-1.29-8.57c3.29,4.42,2.37,4.63.19,9.78.14,3.37,3.51,5.46,4.76,8.39a35.55,35.55,0,0,1-2,24.75c1.23,1,3.26-6.53,3.79-8,.51,2.31,2.71-8.91,3-10.17.73-5.22-1.88-10-4.37-14.08,2.75-5.31-1.83-13.38-7.67-14.13C7.56,13.77,8.27,14.37,8.55,14.61Z"/><path id="fill1" class="cls-4" d="M68.68,61c-.85-.78.52-.38.14-1-.91-2.32-2.65-3.47-4.64-4.73-1.24-1.33-1.53-3.89-3.16-4.68-8.38-4.48-3.42-9.55-2.84-17,0-4.12-4.82.12-4.42-6a14.31,14.31,0,0,0-2.44-10.81c-.64-4-2.18-5.92,1.16-9.36,1.11-1.52,3.44-.66,4.66.27,1.46.3,3.51-1.95,2.7-3.34a14.93,14.93,0,0,0-6-1.7C56.05-.55,53.29.19,50.77,0c-1.38,0-2.65.9-4,1.3-.79.38-.41,1.13-.77,1.81C45,5.58,42.23,7,39.82,8c-6.27,1.75-5.49,3.89-5.93,9.37-.12,1.12.38,2.27-1.46,1.45-2.85-1.82-6.7-1.22-9.4-3.51-4.81-2.06-12.29-7.43-16.3-1.66-1.05,1.05-3,.44-3.14,2.37-.11.33-.4.26-.68.24C2.25,18,1,20.15,1.84,22.3,3.13,28,5.16,34,3,39.87a10.13,10.13,0,0,0-1.87,3.24c-2.65,4.42,0,4.44,1.63,8.18-.12.53.44.85.33,1.29-.26.82.54,1.42.61,2.21,0,.13-.09.31.1.38s-.09.26,0,.38.35.28.24.55c.27,1.89-2.63,2-3.35,3.34S.53,62.37.3,63.72c.38.15,0,.51.06.77-.14,1.34.46,2.5.45,3.79.9,2.86,1.32,6.16,2,9.13,0,1.26-.26,2.72.51,3.91.45.18,0,.57.19,1,2.84,10,9,20.58,9.09,31.68-.27,4.34,1.13,10.4,5.63,12.06,4.11,1.3,5.69,2.8,7.66-2C30.91,104.2,39,109.39,52.61,99.47c5.68-4.16,17.1-18.61,17.67-25.24C71.58,68.07,72.64,66.13,68.68,61ZM59.12,49.61c2.11,1,2.87,3.28,4.16,5.14.66,1.3,2.25,1.69,3.31,2.65.11.52,1.15,2.12.34,2.23-1.09-.15-1.59.57-1.39,1.58-.88,2.6-4.65,1.17-5.38,3.77-.12.29-.72-.43-.32-.47.16-.13.11-.4.38-.42.6-1.41,2-2.19,2.9-3.36.28-.35-.55-1.1-.22-1.42.1-.56,1.23-.18,1-.86-.79-.92.22-1.43-.43-2.43C63.59,54.19,56,47.71,59.12,49.61ZM56.08,32c4-.1-2.06,11.74-.3,14.55l-.09-.05c1.45,3.88,6.67,5.86,7.08,10.13-4.44-7.56-10.33-4.13-8.86-14.86.6-.64.13-1.62.35-2.45-.21-.69.84-.44.43-1.09.42-2.2,1.17-3.79,0-6.51A2.38,2.38,0,0,0,56.08,32ZM50.75,9c0-.06.08-.11.11-.17S50.82,9,50.75,9ZM17.46,13.55c4.59,1.94,8.65,4.7,13.66,5.47,5.24,3.76,2.74-6.35,4.79-8.21,6.06,7,5.52,6,1.54,13.92a6.87,6.87,0,0,1-.6,4.09c-.68.34-.54,1.45-1.28,1.66s-1.17.52-1.28,1.28c-.42.9,0-1.53.19-1.67,2.76-.82,2-5,1.79-7.42.16-.8,2.4-3.12.94-3.51-2.67-.09-3.36,4.67-5.88,4.12-1.29-1.12-3.16-2.87-5.13-3.21-2.41-1.23-4.07-4.67-7.21-4.66-.62-.3-1.4-1.21-2.09-.82-2.27-.91-6.28-2.65-9.42-.82C10.27,10.19,14,12,17.46,13.55ZM31.52,23.68c-1.71,1.28-3.2-1.91-4.66-2.48C25.43,19.72,31,23.45,31.52,23.68Zm-7.74-4.33c-2.66-.57-4.26-3.07-6.55-4.34,2.37,1.13,4.88,2,6.67,4.14C24.18,19.28,24,19.58,23.78,19.35ZM3.51,79.28c.78-5.91-5.58-16.17-.71-20.62,6.33-2.24,6.94-4.91,8.14-12.2.11,3.37,1.29,5.87-.23,8.9C9,57.48,5.35,57.56,4.09,60c-.83,2.9.26,5.83-.56,8.67.59.42-.18,1,.23,1.54-.6,6.06,3.89,11,4.71,16.77.86,2.43.08,5.3,1,7.8a21.47,21.47,0,0,1,1.08,4.91C8.27,92.91,5,86.26,3.51,79.28ZM56.45,79c-.72.22-.23.76-.5,1.25-.39.85-1.59,1.08-2,1.88-.34,1.83-2,3-2.22,4.67-.51,9.5-12.66,14.49-20.29,18.63,2.42-3.66,7.68-7.77,6.78-12.46-1.74,2.7-1.93,6.5-4.87,8.64,1.54-3.32,2.55-7,.41-10.33-.33-.88-1.13-3.35-2.29-2.71-.06.14-.26.4.12.43.35.68,1.1,1.1,1.27,1.57-.25.32-.07.48.08.7s0,.53.32.5c1.6,5.23.93,5.78-.57,10.7-.33-.9-1.13,1.61-1.43,1.93-.26.56-.82.64-1,1.22-4.19,3-6.27,7.73-7.94,12.5,1.87-2.39,3.4-8.38,5.81-9.41-1.6,5.25-7,9.83-5.87,15.81,0-5.42,3.94-9.93,6.22-14.7a4.66,4.66,0,0,1,2.8-3.47c8.05-4.62,20.18-8.85,21.4-19.49,0-1.52,1.64-2.46,1.93-3.88s2.2-1.58,2.33-3,2-1.41,2-2.78-.2-2.61-.15-4c.65-1.23,3-.47,4-1.51,2.15-.48,4.9-2.8,7.7-3.4a2.42,2.42,0,0,0-.14.67C70,74,69.08,78.55,65.64,82.52,61.5,89.05,57.23,95.73,50.58,100c-5.93,5.43-15.72,4.55-20.14,11.55-2.69,2.53-3.27,7.12-5.05,10.3-1.08,3.79-1.44,5.46-4.4,4.63.11-.43-.08-1.31-.44-1.11-1.09-.41-1.5-2.34-1.43-3.55-.18-.7,1.15-4.26.11-2.38-.05.56-.34,1.07-.44,1.68-.39.43.31,2.75-.66,2.09-2.65-9.75,3.55-19.69,2.59-29.58-.75-5.49-3.17-11-5.06-16.2-.59-4.31-2.63-9.29-3.57-13a1.19,1.19,0,0,1-.23-.52c.18,0,.33-.12.52-.13a5.93,5.93,0,0,1,1.08-2.33c-.05-.43,0-2.08.48-2.41.8-.56.26-1.63.42-2.42.82-3.24,3.46-6,2.66-9.76-.49-2.73-2.59-4.71-3.61-7.25-.65-2.35-.55-5-1.63-7.29-.56-2.39-3.68-4-3.25-6.53-.24-.16,1.55-4.7,1.89-4.56,1.81-.92-.34-3.36-1.1-4.4-1.48-.39,1.95,2.69,1.24,3.55-1.48,1.16-1.88,3.19-2.67,4.76-.34.76.48,2.63-.15,3.72.64,2.28,2.49,4.27,2.84,6.82.35.58.24,1.65.87,2.16.35,2,.92,4.05,1.15,5.91.23.55,1.25.85,1.05,1.51-.18.93.41,2,.68,2.86.06,0,.21.2.07.1-.77.1,1.27,2.41.93,3.19-.56.88.07,2.3-1.08,2.62-.73,1-.06,2.19-1,3.16.87,1.63-.72,5.2-1.59,6.63,0,0,0,.07,0,.11h0c-.14,2.28,1.5,4.55,1.54,6.6.67-.68.19,1.35.86,1.56.16.1.08.16,0,.27-.3.6.18,1.1.27,1.69.62,2-.35,4-.46,5.68.13.34-.29.44.09.9.07.12.16.29,0,.3-.41,0,.1.79.06,1.09s.47.85.35,1.28c.21,1.35.93,2.67,1.19,4.12a1.67,1.67,0,0,0,.54,1.43c1.85,7.12-.07,14.79-.88,21.7-.13.26-1.34,7-.56,5.67.25.87-.26,2.39.46,3.05.13.22-.29.69.12.88.59.55.13,1.52.89,2.2.22.46,2.91,3.17,2.48,2,0-.69.78,1,1.46,1.9-4.85-1.2-6.72-6.54-6.8-11.12-.15-7.43-2.24-14.68-3.74-21.88C10.63,84.34,3,77,4.42,68.32c.53-1.67.08-3.58-.1-5.27.89-9.72,11,.48,6.65-18.67-.12-.38-.36-.51-.79-.25.2,2.77-.85,5.49-1.11,8.17-.84,2-1.72,4-4.11,4.56-.85-2-1.12-5.15-2.2-7.53-3.66-3.2-1-6.1.89-9.55,1.24,1.46,1.45,5.1,3.25,7,1.46,1.55,1.34.65.25-.52.21-.41-.18-.41-.28-.6A5.75,5.75,0,0,0,5.8,43.86c-2-4.2-1.15-8.77-1.36-13.14C3.71,25.47.13,20.56,4.22,15.81c.57-1,2.53-.88,3.34-1.91,5.84-2.23,10.37,2.72,14.65,5.63,1.53.59,3.11.82,4.15,2.11,4.71,5.07,6.16,2.85,10-1.57.9-.44,0,.87-.12,1.39-1.74,1.79.65,4.51-.81,6.45-.39.43,0,1.49-.66,1.55-.31,0-.91,0-1,.44,0,3.14-2.69,4.84.29,7.43.86.28.55-1.13.51-1.6-1.37-4.42,2.83-4.43,3.44-8.22.86-9.21,7.31-8.12-1-17-2.63-.28,5-2.73,5.65-3.06.92-.41,1.42-1.3,2.38-1.71,2.35-1.8,1.49-4.42,5-5,1.07-.16,5.07-.44,2.87,1.34-1.4,1.86,2,1,2.78,1.33,1.28-.07,2.16,1,3.38,1.22.38.7-1.13,2.68-1.94,1.92a4.39,4.39,0,0,0-4.55-.43c-.26.58-1.72,1.29-2,1.94-5,7.53-6,17.49-7.17,26.33-2.24,5.66-2.35,11.7.54,17.19-3.81-7.43,0-14.57.49-22.08,1.06-6.34,2.44-13.4,5.35-19.26-.66,2.27.58,4.72.81,7-.5,2.75.6,5.12,1.14,7.61,1.23,3.28-4.62,11.41-.9,11.65.81-.05.44-1.2-.13-1-.83.32-.58-1.2-.3-1.74,2.72-5.27,1.25-10.44.76-15.73a6.35,6.35,0,0,1,1.09,2.56c.49.54.68,1.53,1,1.94.15-.1.18,0,0,.13-.42.72.06,1.54.05,2.24-.15,2-.89,4.52.61,6.27,1.31,3.44.61,4.94-.4,8-.19,2.73-.4,5.62-.39,8.21,1.48,4.48,7.56,5.08,9.49,9.67a.83.83,0,0,0,.29.89c.54.5-.91.59-1,1.15.53,1.42.76,1.38-.53,2.39-1.14.85-1.54,2.3-2.77,2.94-.3.29,2.16,2,2.19,1.21a2.85,2.85,0,0,1,.62-1.52c1.67-.88,5.28-.65,4.82-3.61.24-.66,1.44,0,1.72-.61,0,2.83,3.35,4.57,2.82,7.33-1.41,1-7.61,3.47-9.06,4.35-1,.72-3.87-.22-4,1.17C58.37,75.12,58.55,77.51,56.45,79Zm-38.78,16c.85-6-4.46-11.33-2.3-17.16,1.79,4.36,2.4,8.71,4.22,13,.12.39.57.79.27,1.24s.08.44.17.68c.18,1.25-.23,2.88.17,4-.22,5.14-2.45,10.5-2.82,15.78-.48,2.57-.15,14.09-1.84,5.51C14.55,110.21,18.69,102.71,17.67,94.93ZM16,50.31c-1.32-1.94-1.24-4.53-2.11-6.52-1-.93-.92-2.84-1.25-4.18C14,42.81,17.19,46.5,16,50.31ZM12.39,37.73a5.44,5.44,0,0,0,.14,1.11c-1.2-2.32-2.12-6.53-3.79-9.16-.9-2.88,2.78,3.34,2.95,4.06.15.89.62,1.57.28,2.46C12,36.73,12.65,37.21,12.39,37.73Zm21-2.31c-.37-.58.14-1.13.27-1.7C33.87,34.23,34.47,36.05,33.38,35.42ZM47.56,78c-.73.54-1.34.24-2.11.12-2-.33-3.1.93-4.8,2-.85.65-3.28-1-3.22.49.39.36-.38.78-.24,1.14s0,.59-.17.83c-.62,1.94-1.52,3.3-3.87,3.87-3.81,1.33-5.43.85-8.13-2.26-2.81-1.58-.13-6.08-3.11-7.24-1,0-2.6-1-1.68.85.07,2.21,2.41,3.4,2.45,5.49-.65.19,1.36,5.07,2,4.61,2,1.86,5.57,2.24,6.77,4.63.68,1.71,0,3.1,0,4.79,0,1.32.54,2.43.3,3.71-.06.53.09.56.33.07C31.89,97.73,34,91,29.67,89.79c-2.55-.9-5.72-2.72-6.29-5.73-.1-1,.82.35,1,.63,4.06,5,6.13,3.64,11.18,1.48.67-.18.77-1.08,1.18-1.63.14-1,1.38-1.55,1.16-2.43,0-1.72,1.1-1.22,2.33-1.28,1.62-.1,2.54-2.2,4.34-2.11,1.21-.08,2.53.5,3.57-.28,1.33-1.73,2.93-3.3,5.09-3.69.15-.08,0-.34-.06-.47A7.64,7.64,0,0,0,47.56,78Zm-26.63-.38c-.33-.88,1.47-.4,1.76.13a14.28,14.28,0,0,0,.15,2.06c.19.38-.36.67.1.87C22.14,81.25,21,78.61,20.93,77.65Z"/></g></g></svg>