<svg xmlns="http://www.w3.org/2000/svg" viewBox="0 0 43.26 60.05"><defs><style>.cls-1{fill:#c9ffa6;opacity:0.75;}.cls-2{fill:#288221;}.cls-2,.cls-3{opacity:0.5;}.cls-3{fill:#b2ea98;}.cls-4{fill:#2e5b1b;}</style></defs><g id="Layer_2" data-name="Layer 2"><g id="rice-paper-petal-2"><path id="fill4" class="cls-1" d="M43.21,15.3C37.35,12,47.39,10,37.31,6.45,33.54,3.91,30.88-.35,25.65.16,20.14-1.25,15,7.31,12,3.55c-1.11-1.37-2.18-.07-2.82.93-.36.67.35,1.87-.48,2.35a31.94,31.94,0,0,0-6.08,6.81c-5.36,4.95-1.07,4.49.43,8.68,2.85,2.83,3.1,8.47,7.35,10.57,3.45,2.27.75,7.33,2.69,10.61,3.82,3.24,3.36,12.14,9.48,11.78,3.7-1,.61,4.72,2.65,4.77,7.63-5.6,6.24-7.18,5.45-16.1-.53-6.24,8.9-9.15,5.82-15.52-1.7-3,1.74-5.15,1.59-8.11C40,19.28,43.76,18.28,43.21,15.3Zm-12.77,26v-.06S30.46,41.23,30.44,41.25Z"/><path id="fill3" class="cls-2" d="M30.79,18.64c2.74-1.18-1.94,13.2-.6,16.09C29.74,50.18,27.42,22.85,30.79,18.64ZM24.19,9c3.77,7.41-1.1,15.81-2,23.48-1.38-2.07-.21-4.15.57-6.17.22-4.53-1.65-3.21.25-8.62-3.62-7.52-.13-4.19-1-9-.24-.36-.91-.14-.73.3.56,1.36-1.23,2.55-1.33,4,.94,4,1.94,4.6.29,8.78,1.8,3.13.09,5.54-.55,8.7,1.49,4.33,2.23,8.07,1.32,12.71.46,3.32,2.52,6,3.16,9.29,1,7.43,1.83.24.86-2.17-4.7-12.36,1.72-24.5,2.21-37.15C27.28,11.87,24.84,6.16,24.19,9Zm18.1,6.91a6.15,6.15,0,0,1-2.37,2.61.77.77,0,0,1-.78.32h0l-.79.3q-1,2.71-2.17,5.39c-.23.87-.44,1.75-.59,2.65a.73.73,0,0,1,.43.75,1.23,1.23,0,0,1,0,.19c0,.05,0,.08,0,.14A12,12,0,0,1,36.1,30,1,1,0,0,1,36.84,31c-.55,2.79-2.82,4.9-4.52,7.09a.62.62,0,0,1-.71.21c-.23.64-.46,1.28-.7,1.92s-1.51.43-1.22-.33a63.19,63.19,0,0,0,1.9-6.19,18.94,18.94,0,0,1,1.89-5.62.65.65,0,0,1,0-.4c-.32.44-.62.57-.9.19,2.84-4.77,2.6-12.62,7.83-15.46.33,0,.55.5.18.7,0,.09-.06.18-.1.27a.55.55,0,0,1,.4.3L42.05,15A.67.67,0,0,1,42.29,15.88Zm-3.35.27L39.43,15C39.26,15.35,38.92,15.71,38.94,16.15ZM18.11,49.81c-.7-2.26-1.4-4.51-2.09-6.77,0,0,.07-.06.09-.13C14.93,33,5.27,26.84,3.3,17.06c2.5-2.14,4.94-4.27,6.25-7.39,2.64,8.23,6.11,16.23,6.89,25.17,2.62.4-.13-10.45-1.17-12.53-.28-9-4.84-8-5.32-17.38-.52,2.73-2.71,4.41-4.61,6.35C4,12.47,3.57,14.58,2,16c-1.39,1.25-.64,5.16,1.35,4.49.38,1.09.75,2.74,1.82,3.29,1.14,4.83,4.68,8.12,7.26,12.06a.61.61,0,0,0,0,.46c.08.19.15.39.23.59a.53.53,0,0,0-.06.36l.16.9v.36a.43.43,0,0,0-.1.41l.13.5,0,.87a.46.46,0,0,0,.15.35l.06.71a.5.5,0,0,0,.09.26.55.55,0,0,0,0,.57q2.09,4.05,3.8,8.27l.07.22a.29.29,0,0,0,.07.12c.21.54.44,1.08.65,1.63a.61.61,0,0,0,.76.37,7,7,0,0,0,1.26,1.42c.45.38,1.1-.24.66-.66A10.17,10.17,0,0,1,18.11,49.81Z"/><path id="fill2" class="cls-3" d="M25.28,50.27c-4-12.45,3.95-28,1.87-41.54C30.25,19.76,22.14,37.14,25.28,50.27Zm4.19-42.1C29,23.9,21.37,41,28.09,56.26,22.48,41.58,29.06,24,29.47,8.17Zm-19.4,8.67c2.83,8.73,6.19,17.49,8.78,26.28-2.44-9.3-5.55-18.4-8.19-27.6-.28-2.07-.4-4.8-1.93-6.26-.05-.18-.43-.46-.38-.1C9.8,11.55,9.66,14.17,10.07,16.84ZM12,11.19c5.67,8.9,4.68,20.3,7.53,30.29C17.53,30.37,17.4,18,11.76,7.7c-.53-1.06.56-2.84-.18-3.4C10.26,6.46,11,9,12,11.19ZM40.48,9.36c-7.17,5.08-8,23.2-10.2,31.77C33.17,31.06,34.36,18,40.48,9.36ZM18.65,48.63C15.7,44.22,16.25,38.57,13,34.35a33.68,33.68,0,0,1-8.93-14C3.6,18.84,3,16.88,3.72,15.39c-1.62,1.76.18,5.67,1,7.73,1.78,6.23,7.67,9.66,10,15.5,1.24,5.44,3.24,10.92,7.11,15.07C21.08,52.39,19.3,50.46,18.65,48.63Z"/><path id="fill1" class="cls-4" d="M22.51,40.75c-.71-.22-.86-1.69-.94-2.37.48-3.21-2.92-5.64-1.77-8.87,2.94-4.74-.76-6,2.1-12.15,0-2.07-1.45-4.17-.45-6.17,1.24-1-.66-2.57.51-3.45.54,1.23,1.47,3.26.15,4.35-.58,2.34,1.24,4.81.16,7.29a2.07,2.07,0,0,1-1,2c-.54,1.59.82,3.29.5,4.95-.17,2.21-2,3.82-1.5,6.16,1.53,2.26,1.74,5.15,2.35,7.5C22.91,40,23,40.88,22.51,40.75ZM38.07,20.32c.16,3-3.28,5.06-1.58,8.11,3.08,6.37-6.35,9.28-5.83,15.52.79,8.92,2.19,10.5-5.44,16.1-2,0,1.05-5.81-2.65-4.77-6.13.36-5.66-8.54-9.49-11.78-1.93-3.28.77-8.34-2.69-10.61-4.24-2.1-4.5-7.74-7.34-10.57-1.5-4.19-5.79-3.73-.43-8.68A31.94,31.94,0,0,1,8.7,6.83c.83-.48.12-1.68.48-2.35.63-1,1.71-2.3,2.81-.93,3,3.76,8.14-4.8,13.66-3.39,5.23-.51,7.89,3.75,11.66,6.29,10.08,3.58,0,5.49,5.89,8.84C43.76,18.28,40,19.28,38.07,20.32ZM9.61,8.19a.72.72,0,0,0,.17-.13L9.83,8ZM3.12,15.9c.69.26.89-.41,1.44-.47s.3-.28.38-.53c.54-.88,1.79-1,1.61-2.57.37-1.55,2.07-2.76,2.16-4.23a29,29,0,0,0-5.44,6.27c-1.86,1.42-3.41,3.8-.94,5.46-.57-1.25.48-2,.22-3.33C2.47,16,3,16.22,3.12,15.9ZM38,19.73v.07S38.06,19.75,38,19.73Zm3-5c-1.29-3-3.16,2.66-4.75,3.29,4.93-9.15,8-7-2.11-13.1-2.67-4.17-8.66-5-13-3.29A34.59,34.59,0,0,1,14.6,5.44c-1.67.6-2.68-2.51-3.87-1.34-1.35,1-.1,2.53-.21,3.58-.62,1.43.15,2.83,1.1,3.92,3.1,3.34,3.14,4.79,3.08,9.15.83,3.23,1.46,6.35,2.2,9.53-.41.49-.35-.93-.66-1.16-.8-.73-.66-1.46-.55-2.39-.24-2.28-1.35-4.89-1.69-6.88C15.05,15,10.94,13.46,9.45,9.48c-1.57,1.1-1.9,4-3.09,5.27-.92.23-.88,1.49-1.9,1.81-1.37-.2-1.11,2-1.37,2.94,0,1.81,1.35,2.81,2.12,4a40,40,0,0,0,2.4,5.77c1,2.7,4.86,3.07,5.22,6.2-.7,6.44,2,8.36,4.28,13.77,1.66,5,2.53,5,7.17,5.56,2.13,1.78-.7-9.08-1.09-10.53-.49-8.06,1.51-16,1.63-24,.44-4,2-8.34-.34-12,.67-.62,1.35,1.39,1.51,2,.9,9.9-2.25,20.32-2.18,30.33C23.64,46.74,26.7,52.71,25.16,59c7.78-5.86,5.05-7.19,4.72-15.85-.51-8.42-2.49-17.9,1.7-25.62a50.41,50.41,0,0,0-1.14,22.89c1.26-3.54,5.22-5.15,6.06-8.93-1.11-7.28-1.16-3.22-3.25.39.2-4.53,3.74-8.19,4.16-12.38,1.92-.77,3.73-1.15,4.85-3.15C43,15.44,41.62,15.12,41,14.69ZM30.43,41.18v.07S30.47,41.21,30.43,41.18Z"/></g></g></svg>