<svg xmlns="http://www.w3.org/2000/svg" viewBox="0 0 67.44 124.52"><defs><style>.cls-1{fill:#ff76a7;opacity:0.75;}.cls-2{fill:#82213a;}.cls-2,.cls-3{opacity:0.5;}.cls-3{fill:#e5559a;}.cls-4{fill:#7f244d;}</style></defs><g id="Layer_2" data-name="Layer 2"><g id="rice-paper-sail-medium-5"><path id="fill4" class="cls-1" d="M61.26,25.44C58.66,28.12,58,32.15,55.5,35c-3.21,2.89-3.15,7.5-5.16,11.15-1.15,1.37-2.85,2.56-2.67,4.73a20.69,20.69,0,0,1-1.91,7c-1.12,1.51-.7,3.25-1.57,4.83-2.71,3.82-2.69,8.79-4.42,13-3.93,8.75-5.29,18.44-8.07,27.57-.32,3,.78,6.65-2.18,8.64a2.4,2.4,0,0,0-2.2,2.2c-1.58,2.39-1.86,5.32-4.72,6.55-1.23.8-1.09,2.74-2.82,2.56-5.25.92-1.85,2.68-6.4-.27-9.6-3.08,0-6.86,2.24-10.89,8.62-9,5.48-14.77,4.68-25.44-.59-14.59-2.58-30.12-10.53-43C5.48,36-4.82,12.64,2.63,6.41,7.46,1.81,5.43,1.46,12.8,0,16.64,2,21.11-.21,25,2c11.37,5.53,5.59-4.15,13-.72C44.46,4.5,54.48.79,59.27,6.75c2.89.28,6.08.47,5.19,4.23C70,19.28,67.22,19.3,61.26,25.44Z"/><path id="fill3" class="cls-2" d="M65.59,13.81c-12.06,12.9-22.78,27.82-22.37,46.4-2.9-7.89.86-25.2,8-33.09C56.07,23.89,60.7,13.7,65.59,13.81ZM34.92,60C33.69,39.52,43.7,18.26,58.51,7h0C38.18,12.65,31.86,43.49,34.92,60ZM26.75,39.19c2.25,6.9,2.66,18.47,5.52,23.14C29.33,42.84,24.59,23,32.45,4.24c-.7-2.09-3.08,3.63-3.1,4.48C24.5,18.55,23.27,28.67,26.75,39.19ZM11.94,24.13c1.8,18.07,11.13,34.53,14.31,52.45,1.92-15.49-11.7-33.9-11.95-50.83-.76-7.32-2.25-14.44-.6-21.79,1.17-.93-.12-4.8-1.34-2.91-.67-.64-.31.19-.18.53-.34.3-.16,1,.33.64A55,55,0,0,0,11.94,24.13Zm-4.06.47C6.31,18,6.28,10.87,4.42,4.41,2.23,16.47,7.51,33.08,13.29,44.9,13.15,40.1,8.31,31.19,7.88,24.6ZM38,67.65h0C32.45,83,32.86,107.27,23.65,118.09c-2.66,4.73-2.11-.92-1.74.94.54-.77.55-3,.43-.91,4.57-10.18,6.88-21.2,9.37-32-7.3,10.29-7.8,29.32-15.62,36.4C21,108.68,27,91.6,22.19,75.54c3.46,3.53,2.61,13.38,3.42,19.1a83.66,83.66,0,0,0,9.31-34c2.85,2.73-.22,11.72-.89,16.29C35.22,74.52,35.79,67.81,38,67.65Zm-14.09,50s0,.09,0,.14l.06-.18ZM55.16,18.21c1.29-2.39,9.58-7.56,7.17-9.27h0C43.68,22.49,36.8,43.55,37.78,64.49,40.38,48,41.49,29.83,55.16,18.21Z"/><path id="fill2" class="cls-3" d="M29.59,25c.16-8,1.3-16.79,5.32-23.86C33.05,8.29,30.31,17,30.64,25.17A111.28,111.28,0,0,0,33.38,49.5C29.85,44.75,29.93,32.35,29.59,25Zm-5.16-.19c.21,8.92,1,20.56,4.16,27.87-3.12-15.93-6.41-34.17.69-49.3C24.48,9,25.15,17.75,24.43,24.77ZM25.69,46c-2.36-14-5.17-30.6,1.11-43.38C19.73,15,22.45,33.69,25.69,46Zm-8.78-2.24c-5.79-13.16-8.24-28.3-5.59-42.2C7.73,15.05,10.46,32.9,16.91,43.77Zm3.5,5.67C17,36.05,13.62,18.16,15.53,2.69,12.54,17.11,15.3,34.88,20.41,49.44ZM2.92,15.24A26.68,26.68,0,0,1,2.25,7.3c-.91,12.88,4,26.37,8.49,38.42C8.51,37,4,25.42,2.92,15.24ZM26.38,92.43c-1.82,2.89,1.19,8.54-.19,10.31-.36-2.21-.65-4.44-.89-6.67-2.22,4.22-.93,8.65-.37,13.16-1.47.43-1.07-6.36-1.65-8.12-.14.17-.19.65-.48.52-.9,3.15-.75-.12-.14-1.42,0-13.37-.56-27.27-3.17-40.45C23.27,71.33,22.38,84.67,23.55,97c3.22-11.72-1-24.31-2.26-36.15A164.73,164.73,0,0,1,25.37,91C28.52,80.87,32,70.81,33,60.21,32.91,71,28.06,82.37,25.57,93.08c4-10,5.95-23.49,9-32.15A193.58,193.58,0,0,1,26.38,92.43Zm-1.25,2.1-.06-.64a39.55,39.55,0,0,0-1.36,4.89C24.21,97.37,24.68,96,25.13,94.53Zm-3.86,8.07A82.24,82.24,0,0,1,14,121.49c.42-2.06-1,1,0,.72C17.36,117.09,21.83,107.41,21.27,102.6ZM58.7,15c1.07-1.42,3.94-2.85,4.16-4.25-14.58,10.41-20.29,29.3-23,46.27C43.83,44.08,47.16,25.79,58.7,15Zm6.35.63C52.54,29.83,39.47,51.13,41.51,69.28,41.59,48.87,54,30.87,65.05,15.66ZM34.79,42.07c.7-12.89,8.62-32.21,22-36.91C42.05,9,34.17,27.87,34.79,42.07Zm3.74,6.82c-2.48,12.38-2.53,25.41-7,37.59C36.89,76.33,36.66,60.52,38.53,48.89Z"/><path id="fill1" class="cls-4" d="M64.47,11c.88-3.76-2.31-3.95-5.2-4.23C54.48.8,44.46,4.51,38,1.29,30.59-2.14,36.37,7.55,25,2,21.11-.21,16.64,2,12.8,0,5.44,1.46,7.46,1.82,2.63,6.41-4.82,12.64,5.48,36,9.78,43.57c7.94,12.86,9.93,28.39,10.53,43,.8,10.67,3.94,16.44-4.68,25.44-2.29,4-11.84,7.82-2.25,10.9,4.56,2.94,1.15,1.18,6.4.26,1.74.19,1.59-1.76,2.82-2.56,2.86-1.22,3.14-4.16,4.72-6.54a2.39,2.39,0,0,1,2.2-2.2c3-2,1.86-5.66,2.18-8.65,2.78-9.12,4.14-18.81,8.07-27.57,1.74-4.2,1.71-9.17,4.42-13,.87-1.57.46-3.31,1.57-4.82a20.57,20.57,0,0,0,1.91-7c-.18-2.16,1.52-3.35,2.67-4.73,2-3.65,1.95-8.26,5.16-11.15,2.5-2.8,3.16-6.84,5.76-9.51C67.22,19.31,70,19.29,64.47,11ZM65,20.73c-4.72,3.34-6.66,8.84-9.72,13.32-3.43,3-3.43,7.51-5.5,11.4-1.09,3-2.82.53-4.26,1.65.6.25,2.27-.1,2.32.82-1.36,3.34-.9,7.45-3.11,10.51-.69.55-.47,1.74-.51,2.58-.62,1.56-2,2.79-2.27,4.48-1.82,7.78-5,15.19-7.19,22.88-2,4.18-1.12,9.3-3.51,13.32-1,3,.54,6.31-1.39,9-1.09,1.13-2.56,1.61-1.65-.5,1.68-12.39,6.44-24.25,7.41-36.75.31-3.42,2-8,1-10.93-.93,5-1.22,10.22-2.07,15.32-.34,4.81-2.79,9.33-3.12,14.13-3.34,9-2,22.26-9.63,28.43,1.94-5,4.34-10.13,4.93-15.44a75.89,75.89,0,0,1-5,13.12c-1.21,3.8-.63,4.35-4.63,5.36.34-1.2,1.34-3.5,1.93-5.12.13-.54,1-1.73,1.23-2.43a2.26,2.26,0,0,0,.62-.76l.15-.61A4.73,4.73,0,0,1,22,112c.11-.22.22-.44.35-.65l.33-.58c1.91-5.21,2.87-11.61,4.85-17.27,1.81-8.49,9.08-17,7.33-25.8,0,0,0-.07,0-.09s0-.19,0-.29c1.3-3.1.31-7.29.77-10.78a55.32,55.32,0,0,0-.83,10.32s0,.05,0,.08a34.05,34.05,0,0,1-1,8.07C31.44,82.46,27.83,89.57,25.55,97c-1.12-7-1.26-16.63-2.82-22.37.43,8.54,1.9,16.88,2.1,25.56a30.12,30.12,0,0,1-3,10.43c-1.54,1.06-.73,4.26-2.33,5.28-.1.24-.09.37,0,.42-1.47,2.57-2.85,8.61-4.84,6.66-12.58-3.72,5.27-8.83,6.73-18.71,2.59-7.28-.81-14.87-.52-22.42-.92-13.31-3.4-28.34-11.57-40.27C4.82,31.77-.37,20.83,1,9.82c.27-1.92,2.82-4,4.09-4.28,1,6.64,1.38,13.33,2.48,19.8a56.8,56.8,0,0,0,2.27,9.39A141.41,141.41,0,0,1,6.2,10.82c-.74-3-1.7-6.65,1.27-8.75,2-.16,6.28-2.78,7.14-.15C13.33,5,13.09,8.69,12.67,12c-.08,5,1.67,9.67,1.48,14.66,1.16,4.24,1.41,8.79,2.88,13,1.63,5.24,4.35,10.95,5.34,15.92.26.9.49,2,.79,2.79-.63-.39-.55-1.51-.9-2.19-4.2-11.45-9.18-22.55-9.44-34.92-.34-3-1.84-5.92-1.32-9,0-3.2,2.15-7.06.88-10,.25,3.3-1,7.14-1.35,10.86-.17,2.6.91,5.33,1.21,8s0,5.33.57,7.84c2.17,12,8.06,23.24,11.42,34.53a36.52,36.52,0,0,0-1.46-7.92C19.54,44,14.49,32.85,14.49,20.74c-2-5.9-1.16-12.27.43-18.21,1.62-2.07,8.12-1,10.34.36,6.55,3,8.08-1.46,4.9,7C24.69,23.62,26.5,39.87,32,53.11c-1.22-4.54-3.32-9.09-3.53-13.89-.8-2.22,0-5.6-1.11-7.23,1.14-2.71-.37-7,.42-10.14.94-7,3.67-13.93,6.6-20.25,1.53-1.64,3.53.89,5.14,1.08,5.08.92,10.29.93,15.36,1.73,6.61,2-1.37,3.24-5.9,9.05-5,5.42-10.42,11.41-11.7,19C36.63,39,35,45.68,35.45,52.23c1.09-8.75,1.29-18.36,4.88-26.5,4-5.94,14-21.34,21.84-17.92,2.15-.13-.14,2.39-.77,3.31C52.83,18.6,44.23,25.45,41.18,36.83c.42,3.8-1.08,7.36-1.14,11.1-.34,4.36.06,8.68-.67,13-.74,4-2.53,8-2.14,12.24.85-4.64,2.05-9.92,3-14.69,0-.83,0-1.66.08-2.48a.26.26,0,0,0,.11,0s-.08,0-.11,0a152.2,152.2,0,0,1,2.07-20.2C45.46,24.52,54.62,19,61.94,11.13c.08,0,.12,0,.1-.1.58-.62,1.15-1.26,1.7-1.92C63.17,12.92,70.08,17.48,65,20.73Zm-.12-6.61c-.26,1.62-2.79,2.68-3.86,4.07-8.1,7.08-15.6,15.42-17,26.53.17,4.29.44,9.09-1.15,13-.05.24-.09.48-.13.71l0,0h0c-1.88,10-2.35,5.6,0-2,1.45-5.33-.25-11,1.52-16.27A40.14,40.14,0,0,1,51.08,27c2.5-1.87,4.06-4.09,6.18-6.42C60.06,18.93,62.16,15.25,64.87,14.12Z"/></g></g></svg>