<svg xmlns="http://www.w3.org/2000/svg" viewBox="0 0 35.88 79.23"><defs><style>.cls-1{fill:#b378ff;opacity:0.75;}.cls-2{fill:#64217f;}.cls-2,.cls-3{opacity:0.5;}.cls-3{fill:#864ac6;}.cls-4{fill:#42286b;}</style></defs><g id="Layer_2" data-name="Layer 2"><g id="rice-paper-sail-small-2"><path id="fill4" class="cls-1" d="M35.78,8.17a73.25,73.25,0,0,1-.9,12.45c-1.34,3.62-3.64,7-2.56,11,1.08,5.33,0,6.28-1.88,10.58,0,4.13,1.29,8.74.19,13.16-.27,5.93.85,11.83,1.81,17.7.46,2.79-.91,9-4.15,4.66-.76-.56-1.82,1.2-2.74.11-3.13-2.18-2.89-6.75-5.94-9.19-4-4.52-11.35-3.44-15.38-7.94-2.26-2.14-1-5.59-1.46-8.37C2.15,48.81,0,45.61,0,41.89c2.92-6.26-.51-18.75,9.19-19,.48-.13,1.45,0,2.05-.22a.39.39,0,0,0,.42-.07,5.06,5.06,0,0,0,.72-.67,3.91,3.91,0,0,0,.5-.95c0-.09.07-.18.11-.28a14.94,14.94,0,0,1,1-2.26c1.55-2,4.21-2.51,5.41-5C22.26,5.85,37.21-9.49,35.78,8.17Z"/><path id="fill3" class="cls-2" d="M27.66,69.48c.33,1.38,2,6.54-.3,6.45v0c-1.68-4.52-4.12-9.13-4.65-14,.09-2.22-1.76-21.82,1.65-17.92C25.48,52.52,25.12,61.25,27.66,69.48ZM34.22,1.74c0-.86-1.36-1.85-2.07-1-3.28,1.46-2.81,6.18-3.68,9.08-.8,3.11-3.28,6.61-1.73,9.83-6,11.1-8.34,23.62-11.67,35.65,0,.54.77.61.92.12,2.69-7.13,5.53-14.09,6.52-21.71,1.4-5,4.42-9.42,6.26-14.24,1.4-5.6,1.67-11.74,4.41-16.86a.5.5,0,0,0,.85.19C34,5.8,35.61,2.41,34.22,1.74Zm-24,21.18c-6.43-.15-8.46,6.76-8.11,12.24h0C.65,39.46-.38,45,2.72,48.79c.24,1.55.53,9.39,1,3.85,0,.79,1.07,4,.9,1.55.69-1.33-2.08-12-3.12-12.66.12-2,.68-4,1-6,.3,0,.45-.26.41-.55.49,0,.29-.82.39-1.16.06.34.62.43.56,0C3.36,32,4.6,30.5,5.12,28.88c.38,0,.53-.46.7-.74a.59.59,0,0,0,.71-.08h0c.07-.06.12-.13.2-.2,1.77-.93,2.48-3.05,4-4.3h0C11.1,23.21,10.6,22.76,10.22,22.92Zm22.14,4.42c-1.55,4.27-2.89,8.83-2,13.4a.43.43,0,0,1-.78.32h0v0a69.52,69.52,0,0,1,.34,18c-.19,6.12,3.36,13.07,1.18,19.28h0c-.1.42-.64.22-.58-.16h0c1.71-7.75-3.09-15.31-1.66-23.21,0-9.35-2.53-19.52,2.69-28C31.78,26.54,32.55,26.83,32.36,27.34ZM29.55,46.53c.11,1.63.25,3.26.34,4.89A32.16,32.16,0,0,0,29.55,46.53Z"/><path id="fill2" class="cls-3" d="M34.74,2.56c-.46-.54-.87.95-.3.75a8.53,8.53,0,0,1-.29,3.33c-.06-.22-.27-1-.49-.51.6,3.26-1.86,6.52-2.48,9.77a6.88,6.88,0,0,1-3.32,5.5c-.29,2,3.57-1.33,3.66-2.28-1.11,4.06-3.42,7.3-5.64,10.73C24.62,35,22,42.74,22.72,47c1.4-6.1,1.87-12.76,4.83-18.33C32.61,21.32,35.74,11.3,34.74,2.56ZM32.63,15.9c-.3.85-.59,1.71-.89,2.58a79.2,79.2,0,0,1,2.37-8.79A21.92,21.92,0,0,1,32.63,15.9ZM15.29,31.31c.94-9.81,3.89-22.16,11.58-28,.41-.22,1.12-1,1.42-.87-7.26,5-8.65,16-10.63,22.75a37.93,37.93,0,0,1,7-19.42C18.38,12.39,17.16,23.61,15.29,31.31ZM26.74,77.44c-2.95-.9-3.53-4.9-4.65-7.39.85-1.07-.83-3.46-1.35-4.76-1.22-3.5-1.06-8.63-2.47-11.43-.53-2.1,2.58-9.75.91-9.92.83-4.83,2.65-9.42,4-14.11.1-.33-.4-.47-.52-.14A125.6,125.6,0,0,0,17,51.11c-1.79,3.87-5.47,10.18-.54,13.15-1.84-.63-3.75-1.08-5.63-1.6a.73.73,0,0,0-.56-.6c.26.94-1.66-.47-1.83-.62-5.58-4.91,3.75-9.54,4.78-14.37.63-.83.52-1.45-.39-2-1.86-1.6-2.23-4.47-3.84-6.38a29.79,29.79,0,0,1,5.34-18C22.71,8.31,4.76,29.77,5.8,33.36c-.1,2.44-1.64,4.44-.54,6.91a3.83,3.83,0,0,0,.61,5c3.79,4.61-5.4,12.32.84,15.95,5.34,4.12,11.34,1.56,14.91,9C22.62,72.51,24,77.91,26.74,77.44ZM5.49,58.9c-1.28-4.57,3.85-8.54,2-13-2.85-3.57-1.45-2.79-1.41-6.49-.78-1.88.41-3.42.75-5.23C6.37,31.81,8,29.7,9.19,27.78c-.58,4-2.91,8.81-1,12.6C10.05,42,10,45.3,12.53,46.08c-1.47,5-9.13,8.67-6.33,14.46A4.33,4.33,0,0,1,5.49,58.9ZM22.06,70c-.09-.29-.19-.57-.28-.85A6,6,0,0,1,22.06,70Zm-2.53-7.63a14,14,0,0,1-1.29-8.1C18.61,56.94,19,59.66,19.53,62.34Zm-.24,3c-5.47-3.54-4.93-6-2.61-11.65-.87,5.1,1.51,9.39,4,13.56-.14-.22-.28-.43-.43-.64C20.32,66.13,19.49,65.83,19.29,65.34Z"/><path id="fill1" class="cls-4" d="M28.6,22.05C25,24.41,25,28.71,23.7,32.46c-2,6.68-2.78,14-5.89,20.25-.45.18-.43.67-.65,1-.66.41-.71-.52-.39-.95,3.95-7.42,5-16.76,7.26-25C23.4,25,32,17.74,28.6,22.05ZM35.78,8.17a73.18,73.18,0,0,1-.9,12.45c-1.34,3.61-3.63,7-2.57,11,1.1,5.33,0,6.28-1.87,10.58,0,4.13,1.29,8.73.18,13.16-.25,5.93.85,11.84,1.83,17.7.45,2.79-.92,9-4.15,4.65-.77-.54-1.83,1.21-2.75.12-3.13-2.17-2.89-6.75-5.94-9.19-4-4.52-11.34-3.43-15.39-7.94C2,58.58,3.27,55.13,2.78,52.35,2.15,48.81,0,45.61,0,41.89c2.92-6.26-.51-18.75,9.19-19,.48-.13,1.45,0,2.05-.21a.42.42,0,0,0,.42-.08,5,5,0,0,0,.72-.67,3.72,3.72,0,0,0,.49-.95c0-.09.08-.18.11-.27a15.21,15.21,0,0,1,1-2.27c1.55-2,4.2-2.52,5.4-5C22.25,5.85,37.21-9.49,35.78,8.17ZM2.52,36c1.61-1.57.94-4.52,2.25-6.27C6,27.1,8.93,25.62,10.68,23.43c-5.38-.73-8.37,3.95-8,8.87C3.12,33.54,2.34,34.86,2.52,36ZM2,37.55C-.1,41.18,1,46,3,49.57c.83,1.67.58,3.65.82,5.4C4.93,49.29.58,43.33,2,37.55ZM34.65,2.23c-2.75-5.1-3.59,3.31-4.74,5.28C27,12.08,28.26,17.71,26,22.36,19.41,31,21.49,42.94,16,51.93c3.81-10.22,3.43-21.67,9.7-30.94C26.89,18,26,14.7,27,11.62c1-3.38,2.95-6.55,3.59-9.95C25.42,4.77,22.19,10,19.44,15.19c-1.9,2.31-5.65,3-5.83,6.53C11,25.16,6.63,27.25,5,31.39c-.67,1.67-.56,3.61-1.67,5.09C.78,40.15,4.47,48.24,5,52.81c-3.81,16.09,15,5.89,19.28,22.36,6.37,8.13-.53-6.94-.73-9.32-.89-6.48,0-13.7-.73-19.89,2.62,6.77-.61,14.93,2,21.92,1.43,2.92,1.43,7,4,9.21a60.6,60.6,0,0,1-1.88-25.7c0-3.54-2-7.89-.64-11.12,2.36,9.88-.68,20.22,1.75,30.06,1.35,2.3-.25,7.82,2.93,8,2.23-4.95-.83-11.25-.76-16.72-.48-4.25.25-8.39.23-12.61-.38-4.6-1.67-9.27-1.11-13.81.82,1.71.23,3.73.7,5.53,4.1-3.74.53-9.55,1.68-14.19C35.9,19.21,35.09,10.47,34.65,2.23Z"/></g></g></svg>