<svg xmlns="http://www.w3.org/2000/svg" viewBox="0 0 36.66 80.47"><defs><style>.cls-1{fill:#b378ff;opacity:0.75;}.cls-2{fill:#64217f;}.cls-2,.cls-3{opacity:0.5;}.cls-3{fill:#864ac6;}.cls-4{fill:#42286b;}</style></defs><g id="Layer_2" data-name="Layer 2"><g id="rice-paper-sail-small-3"><path id="fill4" class="cls-1" d="M31.38,31.93c.15,4.15-4.15,7.66-2.58,11.7a10.77,10.77,0,0,1,.79,2.64c1.56,2,2.29,4.5.94,8.32-.46,3-1.79,5.78-1.21,8.85-.49,2.6-2.31,4.68-3.14,7.12-1,3.14-1.07,7.3-4,9.31-2.4,1.45-5.7,0-7.85-1.46A7,7,0,0,1,10,72C12.37,55.13,2.37,55.07,0,42.13c0-4.75,3.68-8.39,6.39-12A38,38,0,0,0,11.6,19C14,13.11,10,7.35,9.44,1.76A3.68,3.68,0,0,0,10.2.33a.55.55,0,0,1,.18,0c1.47-1.1,5.16,1,6.77,1.65,3.29,1.85,5.35,5.38,8.54,7.49,3,2.4,6.91,3.6,9.79,6.12C39.48,21,32.11,26.43,31.38,31.93Z"/><path id="fill3" class="cls-2" d="M18.73,57.36c.57,2.15.65,14.12-2.46,10.92a27.09,27.09,0,0,0-1.63-12.62c-6.36-11-.13-23.41.17-35.1.6-2-1.63-12.55-.3-11.26C18.36,25.32,11.13,42.11,18.73,57.36ZM7.24,53.93C5.79,57.28,2.58,47.73,2,46.22c-4.83-6,3.69-13.71,6.8-18.78A8.11,8.11,0,0,1,10,24.74a.67.67,0,0,1-.19,0c0-.19.4-.64.54-.29A46.94,46.94,0,0,1,4.85,39C2.34,44.1,5.83,49.06,7.24,53.93ZM7,31.78a.36.36,0,0,1,.07.1c.05-.08.1-.15.14-.23A13.24,13.24,0,0,0,8,29.83C7.66,30.49,7.33,31.14,7,31.78ZM17.8,79.2C7.1,75,15.37,55,9.2,45.94c.53,7.43,2.17,14.79.84,22.28C9.85,73.38,11.55,79.43,17.58,80A.42.42,0,0,0,17.8,79.2Zm8.86-67.84c-.13,0-.18.13-.09.2,2.2,1.63,4.61,3.2,5.74,5.63-8.31,11.31-25,18.17-6,27.16,0,.13.05.26.07.39a6.39,6.39,0,0,1,1.65.73.24.24,0,0,1,.1.14,1.4,1.4,0,0,0,.26-.33l.59.25a6.15,6.15,0,0,0-.49-1c-.1-.59-.17-1.19-.22-1.78a1.14,1.14,0,0,0,0-.27c0-.15,0-.31-.06-.46,0-.47,0-.93,0-1.4.61-2,1.5-3.85,2-5.85.65-2.49.72-4.67,1.92-7,1.33-2.64,3.48-5.12,3.69-8.19C36.17,14.49,30.64,12.69,26.66,11.36Z"/><path id="fill2" class="cls-3" d="M7.69,48.35c-.07,4,1.71,9.27,1.76,12.29-7.8-16.83,3.63-32.87,3.42-49.85C15.79,21.33,5.25,36.35,7.69,48.35ZM16.94,78c-7.47-2-2.87-13.89-2.32-19.51.5-5.42-3-9.86-4.29-14.93C9.1,37.64,14.17,28.4,12,24.15c-1.65,10.9-3.94,20.86,1.89,31C14.68,60.91,7.93,78.9,16.94,78Zm9.51-31.5c4.76,6.83-3.19,13.23-2,20.3.17,3,0,7.41-2.83,9.08-3.26.14-2.22-4.72-4.57-6.21-.25-1.71-1.53-7.85,0-7.65-.31,4.68,1.5,8.16,3.16,12.27,3.48,3.31,3.83-8,3.26-10,5.41-14.14,4.72-15.5-5.06-26.81-2.54,4.68,4.41,28,1.26,25.15C11.22,46.38,21.24,28,15.22,11.21c.16,1.14.81,4.26-.19,4.28.72-4.09-2-7.93-2.62-11.66,3.94-3,6.2,4.79,9.61,5.34,2.15.3,2.19,2.13,3.35,3.6,13.56,5.08-4.05,10.43-5.07,19C15.36,37.58,24.05,41.8,26.45,46.46ZM18.4,21a58,58,0,0,1,.33,11.55c2.78-10,14.39-13.81,9.67-17.38C24.1,14.49,24.8,11.78,22,10,18.79,9.81,18.23,6,15.68,4.61c-4.82-2.67-1.07,2.75-.75,4.9C15.1,5.78,18.25,19.14,18.4,21Zm12.12,2c.76-2.3,1.71-4.88,1.73-7.13-.76,8.77-10.38,17.19-5.45,25.64-8.15-7.9,6-17.16,4.42-24.81-3.79,10.36-15,20.43-2.29,28.11C23.33,37.34,27.69,30.76,30.52,23.07Z"/><path id="fill1" class="cls-4" d="M35.48,15.57c-2.88-2.52-6.81-3.72-9.8-6.12C22.5,7.34,20.44,3.81,17.15,2c-1.61-.61-5.3-2.75-6.77-1.65a1.1,1.1,0,0,0-.18,0,3.61,3.61,0,0,1-.76,1.43C10,7.35,14,13.12,11.6,19a38,38,0,0,1-5.21,11.2C3.67,33.74,0,37.39,0,42.13,2.37,55.07,12.37,55.14,10,72a7,7,0,0,0,4.3,6.44c2.15,1.45,5.45,2.91,7.85,1.46,2.94-2,3.06-6.17,4-9.31.83-2.44,2.65-4.52,3.14-7.13-.58-3.06.76-5.84,1.2-8.84,1.37-3.82.63-6.34-.92-8.32a10.15,10.15,0,0,0-.81-2.63c-1.56-4,2.74-7.56,2.59-11.71C32.11,26.43,39.48,21,35.48,15.57ZM29.37,36.88c-1.12,2.18-2.14,5.52-1.05,8-3.58-3.37-9-5.44-7.23-11.45,3.44-5.45,9.4-9.59,10.77-16.19-2.69,5.26-6.68,10-10.6,14.56-4.67,6.44,3.8,10.66,7.7,14.42,2.86,3.88.62,9.31-.46,13.56a12.82,12.82,0,0,1-2.24,8.87c-1.75,3.2-1.31,7.69-4,10.33-4.73,2.79-12.3-2.77-11.72-8.23,0-9.14,3.51-12.57,0-21.93-.31,2.47,1.56,4.9,1.25,7.48-.1,1.75-.85,10.53-1.53,5C8.32,54-.22,48.45.86,40.2c.9-3.46,3.6-6.25,5.63-9.15.29-.15.59-1.28.88-.64-1.82,4-3.9,8.93-3.95,13.57a31.7,31.7,0,0,0,2.71,5.87C5.24,47.29,3.28,44,4.25,40.76,6.76,28.92,16.7,18.48,11.16,6.15c-.1-1.36-.88-2.82-.61-4.2,0-.24.06-.48.06-.73a.65.65,0,0,0,0-.2v0a.48.48,0,0,1,.23-.58h0a.44.44,0,0,1,.3,0h.08a5,5,0,0,1,1.06.39,17.63,17.63,0,0,1,4.13,1.43c3.73,2.06,6,6.09,9.67,8.3,2.64,2,6.18,3.06,8.6,5.43,3.58,4.89-3,9.88-3.76,14.77C30.21,32.78,30.33,35,29.37,36.88Zm-13.5-18.7A15.71,15.71,0,0,0,16,13.86c.32-.75-1.43-5.72-1.14-2.7,1.29,10.37-1.39,20.74-2.31,31-.45,4.25,2.39,7.9,3.29,11.9a57.11,57.11,0,0,1,.84,15c2-8.19-1.14-16.42-2.3-24.41C14.26,35.92,15.79,27,15.87,18.18Zm-1,31.91a19.32,19.32,0,0,1-1.41-4.19c-1.11-4,.33-8.06.69-12.08C14.23,39.19,12.77,44.85,14.82,50.09Z"/></g></g></svg>