<svg xmlns="http://www.w3.org/2000/svg" viewBox="0 0 33.82 103.77"><defs><style>.cls-1{fill:#b378ff;opacity:0.75;}.cls-2{fill:#64217f;}.cls-2,.cls-3{opacity:0.5;}.cls-3{fill:#864ac6;}.cls-4{fill:#42286b;}</style></defs><g id="Layer_2" data-name="Layer 2"><g id="rice-paper-sail-small-4"><path id="fill4" class="cls-1" d="M28.24.6c-.37-1-1.65-.62-1.92.22a18.65,18.65,0,0,1-3,2.75c-2.15,9.31-6,2.91-9.74,8.4C11.5,13.75,10.08,16.64,8,18c-1.68.9-1.36,3.85-2.5,5.2-4,3.3-2.78,9.6-3.87,14.16C1.28,39.82,0,42,0,44.51a10.63,10.63,0,0,0,.22,2.86c1.59,1.56,4.46,2.54,5.1,4.85a12.38,12.38,0,0,0,2.3,5.21c.21,3.28,2.25,6,2,9.37.48,8.54,7,16.34,3.33,25.11-.3,3.71,2.69,6.3,4.24,9.27,0,2.52,2,3.32,4.11,1.88,1.39-8,8.11-14.73,9.14-23.16-1.86-7.7,4.16-15,1.44-22.4a69.78,69.78,0,0,1-6.34-15.58c-1.33-7.43,7.9-11.78,8.23-19.12C34.24,15,30.32,7.92,28.24.6Zm4.55,15.94s0,.05,0,.07A.2.2,0,0,0,32.79,16.54Zm-.43-3.17s0,0-.07,0ZM30.6,29.76c.07,0,.07,0,.07,0Z"/><path id="fill3" class="cls-2" d="M18.43,13.66C21.8,10.56,22.25,4,26,2,23.12,8.32,25.68,15.77,21,21.34c-2.23,4.31-.24,9.75-1.72,14.51-3.63,5-2.34-11.14-2.67-13.07-4.83,16.24-2.43,17,6.08,29.72C10.83,47.48,8.31,23.88,18.43,13.66ZM30,10c1.47,1.25,2.15,4.85,2.59,7.09C38,28,19.44,36,24,47.44c-5.28-5.79,1.57-14.69,6-19.54A20.67,20.67,0,0,0,30,10ZM32.75,23.9A11.32,11.32,0,0,0,33,20.64C33,21.75,32.84,22.8,32.75,23.9ZM6,53.26c5.23,7.14,3.07,16.46,7.06,24h0a5,5,0,0,1,.54,2.06h0c2.21,15.39,2.16-11,0-14.69C13,61.71,8.74,49.9,6,53.26ZM18.82,76.77c-2.74-19-18.71-39.83-9-59.84-1.07,9.45,0,18.5-.12,28.05A69.23,69.23,0,0,1,18.82,76.77ZM8.76,29a2,2,0,0,0,0,.65C8.75,29.39,8.75,29.18,8.76,29ZM30.11,72.33c2.15,4.89-8.35,31.68-2.62,13-1.19,2-8.89,23.18-7.14,15.28-.32.5-.38,2.86-1.25,1.72v0C10.51,90.87,30.23,71,21.1,53.51c5.74,3.43,3.11,17.68,2.62,24.86-1.13,7.54-7.23,14.74-4,22.51,2.94-8.3,8.34-16.11,8.93-25.15-.8,4.09-5.17,8.45-2,1.2-.08.06-.14.13-.22.18,2.48-7.57,3.88-15.68,2.68-23.57,2.24,1.59,2.67,4.72,2.79,7.48C32.23,64.9,30.9,68.83,30.11,72.33Zm-.65,3.59c-.37,1.54-.35,3.14-.72,4.69a25.79,25.79,0,0,0,.63-3.38C29.42,76.8,29.44,76.36,29.46,75.92Z"/><path id="fill2" class="cls-3" d="M6.87,36.05c4.85,19.81,2.72,16.12-.6-.32-.7-4.42-.65-10,.54-13.82C6.6,26.62,5.89,31.34,6.87,36.05ZM5.62,23.79c-.79,6.12-1.12,15,1.33,20.1C5.31,37.3,5.66,30.51,5.62,23.79Zm13,56.85c-.41,3.69-.48,8.12-2.59,11.26-.25-5.55,1.64-13.22-.1-17.78,1.1,5.94-1.1,13,0,18.41C18.51,89.55,18.66,84.3,18.64,80.64Zm7.9-3.37C25,83.58,24,90.38,20.81,96.07c-1.49-6.33,1.54-12.7,2.73-18.85-1.7,5.74-4.07,11.9-3.43,18.06C21.66,101.43,27.69,77.68,26.54,77.27ZM21.65,27.18c.87-10.13,6.5-6.79,6.19-20.93.4,4.29.84,8.49,2.64,12.51C32.56,26.13,23.34,29.6,23,36.59c-1.35,4.52-1.25,9,1.15,13.18,3.2,8.78,1.61,18.37.38,27.39,2.4-6.18,2.59-17.13,1-24.77-1.91-5-4-9.8-2.08-15.22,0-6.86,8.69-10.2,7.86-17.16-2-4.88-2.29-10-3.49-15-1.61,2.2-.42,7.72-1.59,10.92-1.93,3.29-4.82,5.83-4.78,10C21.45,26.27,20.92,27.28,21.65,27.18ZM21,69.12c.36,3.13-.55,8.14.16,10.35.2-8.26,2.24-18.38-2.18-25.71-2.17-1.54-4.31-3.26-4.16-6.17.88,2.56.23-2.25-.83-.66C13.38,56.72,22.57,50.49,21,69.12Zm-5.71-30c3.79,12,6.73-3.43,5.8-8.16-1.33-1-.39,4.48-.89,5.53C19,46.29,15.86,41,15.43,34.73,14.53,32.13,14.79,38.27,15.28,39.14Z"/><path id="fill1" class="cls-4" d="M23.19,45.86a5.25,5.25,0,0,1-.53-2.58A8,8,0,0,0,23.19,45.86ZM33.78,22.8c-.33,7.34-9.56,11.69-8.24,19.12A70.48,70.48,0,0,0,31.89,57.5c2.72,7.41-3.3,14.69-1.44,22.4-1,8.43-7.75,15.2-9.13,23.17-2.13,1.43-4.09.62-4.12-1.89-1.55-3-4.54-5.56-4.24-9.27,3.68-8.77-2.85-16.57-3.33-25.12.27-3.39-1.77-6.08-2-9.36a12.15,12.15,0,0,1-2.31-5.21c-.64-2.31-3.52-3.29-5.1-4.85A11,11,0,0,1,0,44.51C0,42,1.28,39.83,1.59,37.38c1.08-4.56-.15-10.86,3.86-14.16,1.14-1.34.82-4.3,2.51-5.2,2.12-1.39,3.54-4.27,5.63-6,3.78-5.5,7.59.91,9.74-8.39a20.16,20.16,0,0,0,3-2.75C26.59,0,27.87-.4,28.24.6,30.32,7.93,34.24,15,33.78,22.8Zm-1-6.19s0,0,0-.07Zm-.49-3.25s0,.05.07,0ZM30.67,29.77s0-.05-.06,0ZM27.83,1c-1-1.2-5.12,4.69-5,6.25,1.56,4.12-.66,8.5-2.76,11.9-2.23,2.61-.58,9.37-1.57,10.6.34-3.76-1.28-7.52.71-10.94.31-1.13,1.17-1.62,1.76-2.48-.16-1.06.8-1.26,1-2.11-.17-2.28,1.38-4.3.56-6.4C15.85,20.28,12.89,15.27,12.25,33c-.91,8.94,9.2,13.87,10.77,22.17-.47-1.09-2.22-5.72-4.06-7.56-8.93-8.44-8-18-5.32-28.77,1-3.85,6.64-5.61,7.23-9.59C4.85,12.15,10,33.88,10.53,46.09c3.65,4.67,4,11.33,5.2,17.14-.05,6.32,3.07,12.27,3.13,18.61C16.68,76.31,15.37,62.26,13.09,54c-.59-1.78-.68-3.65-1.2-5.43C11,47.16,9.4,46.15,9.64,44.31c.11-9-2.26-18.88.66-27.59C8.69,18.66,6.8,20,6.46,22.78c-.64,1.91-2.73,2.83-2.9,5C2.91,34.19.93,40.44,1,46.78,12,54.19,15.44,64.1,15.27,77.14c-2.16-5.73-.5-14.2-5-19.18a13,13,0,0,0-3.12-4.67C7,53,6.7,52.13,6.53,52.77c2,4.72,4.11,9.43,4,14.76.27,5.15,3.27,9.76,4.07,14.78,1.27,5.23-3,11.34,2,15.57-1.35-4.95,2.67-9.38,3.59-14.28,2.14-7.86,2.16-16.13,3.46-24.14a125.51,125.51,0,0,1-2.71,24c-1.42,5.12-3.88,9.83-3.66,15,.84,1.57,1.17,4.66,3,4.6.08-.8-.24-1.7.25-2.66,4.57-8.68,10.28-17.12,9-27.38,1.06-6,4.76-13.15,0-18.54a45.92,45.92,0,0,1-1.88,14.27c4.86-19-4.33-20.09-2.21-31.5-1.31,1.91-2.8,3.9-2.91,6.11-.25-6.91,9.21-11.91,10.13-18.86C34.53,16.33,29.73,8.73,27.83,1ZM21,50.3l.09.11c0-.08,0-.15-.07-.23S21,50.21,21,50.3Z"/></g></g></svg>