<svg xmlns="http://www.w3.org/2000/svg" viewBox="0 0 34.33 86.08"><defs><style>.cls-1{fill:#b378ff;opacity:0.75;}.cls-2{fill:#864ac6;}.cls-2,.cls-3{opacity:0.5;}.cls-3{fill:#64217f;}.cls-4{fill:#42286b;}</style></defs><g id="Layer_2" data-name="Layer 2"><g id="rice-paper-sail-small-6"><path id="fill4" class="cls-1" d="M31.94,71.49a5,5,0,0,1-.56,2.27c-4.93,2.56-9.07,6.72-13.63,9.85-3.21,1.59-6.91.89-10.23,2-2.71.83-7.88.88-7.27-3-.12-2.17.88-4,1.64-5.9,0-2.16-.21-4.45.63-6.53,1.78-3.32,6.17-5.56,4.83-9.89A51.64,51.64,0,0,1,3.11,44.19c-.77-3,.74-5.92.06-8.88C-1.27,28.86.64,23.46,0,16.17,1.85,9.35,8.41,2.55,14.73.31c.32-.12.62-.22.94-.31C15.6,4.86,9.17,6.44,9.2,11.06a12.44,12.44,0,0,1,.66,3.7s0,.17,0,.18c.74.21.18,1.11.57,1.6.75,2.81,4,2.14,6.28,2.94a5.58,5.58,0,0,1,3.94,2.42c3.7,5.46,12,1.39,13.47,7.6,1.16,4.11-2.86,7.1-3.55,10.88C29.64,44.7,27,48,25.49,52c-.61,1.62,0,3.21.15,4.83-.9,2.2-1.28,5,1,6.66C32.49,65.92,31.36,65.59,31.94,71.49Z"/><path id="fill3" class="cls-2" d="M13.15,58.42C12,64.08,6,69.25,2.66,74.71c-.55,2-3,6.63-1.72,8.37C1.5,72.86,13.77,66.69,13.15,58.42Zm-11,18.25a8.68,8.68,0,0,1,1.12-2.21C2.83,75.18,2.46,75.91,2.12,76.67Zm10-57.27c0-1.23,2.32,1.14,2.86,1.4,4.6,1.46,6.89,5.75,11.1,7.74,5.35-.24,3.92,6.39,2.29,9.51-.09,3.1-2,6.91-3.31,9.13,1.25-3.43,2.88-6.5,3.17-10.13,1.34-2.73,2.36-7.67-1.82-8.28,1.25.24,2,5.5.66,4.39.23-2.73-1.51-4.14-3.86-4.93C19.85,24.69,15.57,22.67,12.07,19.4Zm-4-7.2c-6.46,16.18,3.37,22.16,4.77,36.13C11.39,38.5,3.09,30.85,5.14,20.46,4.69,19.56,8.24,9.4,8.08,12.2ZM2.51,33.44C6.65,41.15,7.26,52,8.45,59.74c.92-7.39-2-14.52-2.88-21.79.53,1.09.72,3.27,1.36,3.81-5.76-14-4.16-24.57,3.14-37.42C2.75,8.58.14,17.71,1.19,25.94.36,28,1.48,31.25,2.51,33.44Zm.06-19.26c1.63-3.32,4.21-7.32,7.2-9.4-5.58,9.68-9.15,21.06-4.58,32C.56,30.06,1,21.86,2.57,14.18ZM25.74,72.32c1.13,1.93-3,4.81-4.67,5.3-1.52-.25-2.72,1-4.27,1.1-3.93.34-6.07,4.16-9.16,6.17-3.77,2.34,6.53-7.81,8.59-7,1.54,0,2.74-1.23,4.18-1.37,1.57.29,2.72-1.22,3.86-2.09,3-2.3-1.47-3-2.92-1.24-1.88,1.09-4.82,3.62-6.92,2,.88-4.47,7.8-3,4.76-10.45,3.37,5.42-2.05,6.55-4.48,9.92C17.81,77.57,22.29,68.85,25.74,72.32ZM11.94,21.1c9.14,1.88,4.39,7.56,7.26,10.56,1.4.6,2.91,1,3.54,2.54.6.92,1.35,1.1,2.2,1.68,2.81,4-3.33,9.21-4.43,12.74.79-4,8.4-10.55,2.53-13.19-1-1.19-1.67-2.55-3.33-2.93-5-3.14,1.71-7.58-7.5-11.41C12.2,21.23,12,21.09,11.94,21.1ZM27.06,75.37c7.35-8.23-3.58-6-5.9-14-1.39-3.58,1.8-7.66,1.57-11.54.87-1,.65,2.48.64,1.89.4,3.06-2.56,6.7-.62,9.3C24.24,67.49,36.08,68.75,27.06,75.37ZM13.89,44.23C12,37,7.05,30.45,8.27,22.75c.23-2.49.35-5,.56-7.48,0-.23.36-.3.42-.06C8.3,26.79,10.48,33.66,13.89,44.23Zm-3.1-22.18C9.59,27.39,13.23,32.71,14.15,37c-2.46-4.18-5.28-8.39-4.32-13.47.48-1.1-.63-6.23.21-6C11,18.65,10.78,20.68,10.79,22.05Z"/><path id="fill2" class="cls-3" d="M26,73.45c-2.94,4.41-7.89,5.4-12.33,7.2-2.41,1.82-5,5.81-8.53,4.91,3.26-.67,5.35-4.18,8-6.42,1.69-1.46,4-1.12,6-1.78C21.46,77.13,24.53,72.55,26,73.45ZM17.92,61c2.45,1.37-5.07-10.08-4.36-12.41C11.64,27.9,5.7,36.39,9,11.59c-4.75,5.06-5.9,17.87-1,24.5C13.06,43.7,10.84,54.33,17.92,61Zm13,8c1.23-1.5-.46-4.22-2.23-4.24-4.49-1.91-5-4.13-4-8.51-1.39-6.21,6.8-13.72,5-18.56,0,0,0-.11,0-.16-1.79,5.44-8.95,8.76-9.26,14.62,3.35,10.07-2.79,10.38,8.3,17.32a2.53,2.53,0,0,1,0,3.93C30.32,76.46,32.64,70.69,30.91,69.07ZM6.54,57.9c3.53,9.91,2-7.71-.19-10.63-1-2.14-.79-15-3.53-13.46C4.25,41.83,3.44,50.12,6.54,57.9ZM33,29c-1.71-4.65-5.82-1.4-8.41-3.82a22.5,22.5,0,0,1-5-3.48c-.84-1.21-9.75-3.94-6.75-1.87l-.73-.1c0,.9,1.5,1.44,2.15,1.68,3.93.36,4.79,4,7.29,6.27,1.17.32,5.12,2.83,5.55,1.75,1.32-1.68,3.84-2,4.57-.55A.67.67,0,0,0,32.24,30C32.09,34.49,34.13,31.55,33,29Z"/><path id="fill1" class="cls-4" d="M.25,82.58c-.12-2.16.89-4,1.65-5.9,0-2.16-.21-4.46.62-6.53,1.77-3.33,6.18-5.56,4.83-9.89A51.57,51.57,0,0,1,3.11,44.19c-.76-2.95.73-5.92.06-8.88C-1.26,28.86.64,23.46,0,16.17,1.94,9,9.07,1.87,15.67,0,15.6,4.86,9.16,6.44,9.2,11.05a12.56,12.56,0,0,1,.66,3.7s0,.18,0,.19c.74.21.19,1.11.58,1.59.74,2.82,4,2.15,6.27,2.94a5.66,5.66,0,0,1,3.94,2.43c3.7,5.46,12,1.39,13.46,7.6,1.17,4.11-2.85,7.11-3.54,10.88C29.64,44.7,27,48,25.49,52c-.61,1.62,0,3.21.15,4.83-.9,2.21-1.27,5,1,6.67,5.88,2.4,4.75,2.07,5.33,8a5.07,5.07,0,0,1-.55,2.27c-4.94,2.56-9.08,6.72-13.64,9.85-3.21,1.58-6.91.9-10.23,2-2.71.82-7.88.88-7.27-3M.71,26.82C.11,30.6,3.82,33,4.06,36.63c-1.19,7.75.53,16,3.76,23.23,1-1.39-.88-4.39-.81-6.35C6.36,50,3.14,45.65,4.85,42.33c-.1,5.05,2.71,9.08,3.24,14,2.91,9.28-4.89,10-5.54,16.26.94,3.77-4.35,10.69-.1,12.52,1.15.58,4.18.67,4.64-.58,0-.25.1-.29.31-.26.6.21,1.26-.26,1.79-.54,4.16-4.92,10.83-4.65,15.33-8.84-3.45,5.51-8.68,3.23-14.74,9.19,6.8,1.86,13.45-6,19.28-9.69,2-1.19,3.18-2.7,1.48-4.86-1.36-1.59-3.7-1.55-5-3.13-1.62-1.34-3-3.05-2.28-5.21a8.74,8.74,0,0,1,0-6.09c.27-2.79-.87-5.56.78-8.16,2.53-3.21,3.95-6.92,6.36-10.28,1-.94.09,1.15.79.24,2-3.1,4.08-8.61-.5-10.44-2.37-.47-5,.24-6.94-1.69-6.21-3.13-1.78-3.88-11.13-5.52.94,2.21,3.91,1.82,5.64,3.17a24.09,24.09,0,0,0,8,6.09c-1,.8-1.8-.94-2.88-.84A11.58,11.58,0,0,1,19,24.18c-1.93-2.13-5.14-1.92-7.28-3.87C7.72,17.59,10,7.5,6.79,16c-4.06,9.55.34,16.55,4.52,24.81C12,54,16.45,57.62,23.47,67.49c1.7,3.19-1.55-1.76-2.31-2.88-2.48-3.67-6.61-6.15-7.62-10.8-1.79-4.52-2-9.31-3.22-13.94-.8-2.11-2.66-3.67-3.55-5.59C4.42,28,3.35,21.49,6.32,15.13,7.9,9.55,9,7.43,13.44,3.63,13.83,2.69,15.1.81,14.72.3,11.06,3.16,7,5.53,4.14,9.21c-4.58,5-2.92,11.54-3.43,17.61M27.23,43.38c-1.38,3.15-4.82,5.78-3.3,9.68a6.24,6.24,0,0,1-.53,4c.31,2.48.24,5.11,1.05,7.43,1.39,2.41,4.23,2.74,6.2,4.43.67.35.31-1.56.38-2-1.18-3-6.19-1.64-6.85-6.37a5.53,5.53,0,0,1,.56-3.72c0-1.66-.63-3.33,0-5,1.74-4,3.92-7.43,4.92-11.74,2.18-4.5-2.21,1.67-2.4,3.27"/></g></g></svg>