<svg xmlns="http://www.w3.org/2000/svg" viewBox="0 0 39.95 46.97"><defs><style>.cls-1{fill:#c9ffa6;opacity:0.75;}.cls-2{fill:#288221;}.cls-2,.cls-3{opacity:0.5;}.cls-3{fill:#b2ea98;}.cls-4{fill:#2e5b1b;}</style></defs><g id="Layer_2" data-name="Layer 2"><g id="rice-paper-petal-4"><path id="fill4" class="cls-1" d="M39.94,9.08a3,3,0,0,1-.19,1.25c-.13.39-.28.75-.35.95a4.43,4.43,0,0,0-.6.84c-.19.34-.38.71-.56,1.1s-.34.8-.49,1.21-.25.82-.35,1.23a9.25,9.25,0,0,0-.22,2.42,17.85,17.85,0,0,0,.32,2.61c.16.91.35,1.85.5,2.8a24.48,24.48,0,0,1,.28,2.82A22.87,22.87,0,0,1,38,29.2c-.09.49-.2,1-.33,1.51s-.29,1-.46,1.52a9.61,9.61,0,0,0-1,2.35c-.21.74-.43,1.5-.69,2.24A19.42,19.42,0,0,1,34.64,39c-.33.69-.68,1.35-1,2s-.73,1.19-1.09,1.72-.68,1-1,1.43a8.78,8.78,0,0,1-1.63,1.7A7.18,7.18,0,0,1,27.51,47a5.12,5.12,0,0,1-1.07-.24,3.87,3.87,0,0,1-.86-.44,4.87,4.87,0,0,1-.71-.58c-.24-.23-.46-.48-.7-.75l-.79-.91c-.3-.36-.64-.75-1.05-1.2l-1.47-1.62c-.57-.64-1.19-1.38-1.86-2.18a7.15,7.15,0,0,0-1.38-1.37,11.34,11.34,0,0,0-1.56-1l-1.63-.82A16.64,16.64,0,0,1,12.81,35a19,19,0,0,1-2.17-1.69A18,18,0,0,1,9,31.54c-.49-.58-.91-1.15-1.29-1.7s-.69-1.06-1-1.54S6,27.43,5.71,27s-.57-.8-.8-1.17-.45-.75-.64-1.1S3.92,24,3.78,23.7s-.38-.88-.55-1.29-.35-.81-.53-1.2-.38-.76-.59-1.12a2.27,2.27,0,0,0-.62-.9A8.46,8.46,0,0,1,.53,18,3.19,3.19,0,0,1,0,16.46a2.42,2.42,0,0,1,.75-1.79c.24-.08.56-.27.71-1,.37-1.55.87-1.84,1.4-1.77s1.06.51,1.49.39c-.33,0-.52-.38-.53-.94A3.86,3.86,0,0,1,4.34,9.4,2.43,2.43,0,0,1,5.51,8.27a2.34,2.34,0,0,0,1.14-1,9.15,9.15,0,0,1,.8-1.47,5.5,5.5,0,0,1,.89-1,4.29,4.29,0,0,1,2-1,4.9,4.9,0,0,1,2.12,0,6.15,6.15,0,0,1,2,.87c.37.3.55-.18.68-.8a11.46,11.46,0,0,1,.34-1.7c.41-.92,1.06-.8,1.64-.22a4,4,0,0,1,.75,1.23,6.39,6.39,0,0,1,.42,1.43c.11,1,.84-.55,1.13-.82a9.9,9.9,0,0,1,.91-1.2,9.25,9.25,0,0,1,1-.93,6.87,6.87,0,0,1,2-1.17,5.92,5.92,0,0,1,2-.41A6.71,6.71,0,0,1,27.08.2c.62.14,1.22.34,1.82.52a10.48,10.48,0,0,0,1.73.4,5.33,5.33,0,0,1,1.71.16,6.17,6.17,0,0,1,1.49.55,7.05,7.05,0,0,1,1.27.79,10.22,10.22,0,0,1,1.19,1,9.51,9.51,0,0,1,1,1.16c.33.37.65.77,1,1.19a11.57,11.57,0,0,1,.88,1.48C39.43,8,39.68,8.55,39.94,9.08Z"/><path id="fill3" class="cls-2" d="M39,10c-1.92,1.65-1.6,11-3.15,8.76C33.33,16,40.76,3,39,10ZM38.2,6.25c-1.74-3.6-12.93-7-15.74-4,.36-1.75-1.73,1.34-2.15,1.8-1.1-.83-1.5,2.18-1.89,2.93h0c-.12.52.64.57.71.08.67,5.38,4.37,23.43,8.28,24.31a125.65,125.65,0,0,1-5-14.89C15.76-.22,28,0,38.2,6.25ZM21.77,32.72c2.13,3.77.14,8.65,3.48,12-1.38.95-5.95-6.69-7.9-8.06a6.85,6.85,0,0,1-3.61-1.9.29.29,0,0,1-.39,0c-.44-.34-.85-.67-1.24-1a.35.35,0,0,1-.37-.08,12,12,0,0,1-1.32-1.35h0a6.54,6.54,0,0,1-2.05-2,.4.4,0,0,1-.07-.36.51.51,0,0,1-.59-.26c-.49-.93-1-1.86-1.44-2.78a.61.61,0,0,1-.34-.25.53.53,0,0,1-.32-.28L5.36,26a.59.59,0,0,1-.23-.24L3.05,21.58a.58.58,0,0,1,0-.42l-.41-1L2,19a.09.09,0,0,1,0-.05l-.15-.32a.36.36,0,0,1-.25-.21,11.42,11.42,0,0,1-.56-1.22.44.44,0,0,1-.46-.32c-.17-1.21.35-1.59,1-2.63,0-.24.07-.51.17-1.07.07-.41.57-.4.79-.14l0,0c0-.15,0-.29,0-.45,0-.41.56-.52.75-.2a9.66,9.66,0,0,1,1.12,2.78h.07c-.25-3,.33-5.5,2.11-6.52.18-3.39,4.19-6.18,7.14-3.43.13-.66,1.27-.1.9.35,2.95,8.17,9.22,19.8,9.24,26.93-4.19-4.57-8-37.07-16.2-24.28C7.44,9.47,11.18,19.5,9,17.46,2-4.61,7,33.94,16.44,35.36c-2-3.48-7.32-10.59-5.52-13.48a47.64,47.64,0,0,0,9.66,16.17c-1.16-4-2.72-7.93-3.46-12-2.05-2.77-6-7.59-5.35-10.45C14.72,21.69,19.17,26.53,21.77,32.72Zm-7.68,2s-.09-.1-.13-.08Zm3,1.55c-.14-.2-.27-.4-.4-.61a.65.65,0,0,1-.34.07c.12.11.44.15.37.36Zm18.58-9.85a85.67,85.67,0,0,0-3.31-10.8.55.55,0,0,0-.36-.34c-.18-1-.37-2-.55-3-.09-.72-.18-1.44-.28-2.16h0a.68.68,0,0,1,0-.14.46.46,0,0,0-.19-.32,1.55,1.55,0,0,1,0-.21c.24-1.4.28-2.54-.15-3,0-.19,0-.37.06-.56.09-.58-.79-.84-.9-.25,0,.23-.07.46-.1.69a2.08,2.08,0,0,0-.45.19c.53,3.61-1.45,6.68-2.73,9.86-.59,2.13,1.05,3.41,2.85,4A25.36,25.36,0,0,1,33.76,33c.08,3.59-2.16,7.15-2.54,10.42A18.45,18.45,0,0,0,35.4,28.72l-.06-1.38a.44.44,0,0,0,0-.2.13.13,0,0,0,0-.06A.56.56,0,0,0,35.65,26.46Z"/><path id="fill2" class="cls-3" d="M31.94,29.69c2.75,5.3.61,12.46-2.92,16.1.52-3.37,3.68-6.42,3.13-10.3.08-4.07-2.6-7.47-2.48-11.53,0-3.39-3.16-5.62-3-9S29,8.63,29.16,5.27a.26.26,0,0,1,.51,0c-2,12.27-4,6,.83,18.49A12.35,12.35,0,0,0,31.94,29.69Zm-9.11,5.66c-3.14-6.44-3.94-13.53-6.51-20.12C15,11.73,11.93,8.73,11,5.37c0,2.91,3.05,5.2,3.89,8,4.35,10.22,5.8,21.62,12,31.16C26.3,41.65,23.54,38.61,22.83,35.35Zm-4.76-23.9c1.17,6.14,3.83,11.82,5.42,17.83a92.83,92.83,0,0,0,2.28,9.45.22.22,0,0,0,.43-.12C24,27,18.81,15,16.75,3.85,15.75,1.79,17.77,10.62,18.07,11.45ZM10.5,26.21c-1.69-5.1-4.14-10.36-5-15.53,1,6.9,3.43,14.58,7.35,20.44C12.68,30,10.8,27.89,10.5,26.21ZM8.44,17c1.24,2.94,1.78,7.69,2.85,9.87C10.55,20.8,7.67,14.6,6.23,9,6.05,11.81,7.89,14.33,8.44,17Zm28.65-8.6c.07-.75-.05-2.34-.56-2.62.57,2.25-.79,4-1.7,6C32.62,18.59,36.71,27,37,33.14,37.77,24.71,32.27,16.38,37.09,8.44ZM30.37,37c.1-.88.24-6.23-.86-5.19.39,3.38.59,7.3-.88,10.39-1,.87-2-.86-2-1.72-.58.37.41,2.32,1.33,2.35C30.43,42.63,29.93,38.77,30.37,37Z"/><path id="fill1" class="cls-4" d="M2.11,20.09a2.23,2.23,0,0,0-.61-.9A7.24,7.24,0,0,1,.54,18,3.11,3.11,0,0,1,0,16.45a2.42,2.42,0,0,1,.75-1.78c.24-.07.56-.26.71-1,.37-1.56.87-1.85,1.4-1.78s1.06.52,1.49.39c-.33,0-.52-.38-.53-.94A3.78,3.78,0,0,1,4.35,9.4,2.37,2.37,0,0,1,5.51,8.27a2.28,2.28,0,0,0,1.13-1,8.74,8.74,0,0,1,.81-1.47,5.5,5.5,0,0,1,.89-1,4.29,4.29,0,0,1,2-1,4.9,4.9,0,0,1,2.12,0,6.24,6.24,0,0,1,2,.87c.37.3.55-.18.68-.8a11.63,11.63,0,0,1,.34-1.71c.41-.91,1.06-.79,1.64-.21a4.09,4.09,0,0,1,.75,1.24,6.17,6.17,0,0,1,.42,1.42c.11,1,.84-.55,1.13-.82a11.05,11.05,0,0,1,.91-1.2,9.25,9.25,0,0,1,1-.93,7.15,7.15,0,0,1,2-1.18A5.9,5.9,0,0,1,25.18,0a6.75,6.75,0,0,1,1.9.19c.62.14,1.22.34,1.82.52a9.61,9.61,0,0,0,1.73.41,5.33,5.33,0,0,1,1.71.15,6,6,0,0,1,1.49.55,6.72,6.72,0,0,1,1.27.79,10.22,10.22,0,0,1,1.19,1,11.28,11.28,0,0,1,1,1.16c.33.37.65.77,1,1.19a10.51,10.51,0,0,1,.88,1.48c.28.55.54,1.14.79,1.68a3.07,3.07,0,0,1-.19,1.25c-.12.38-.28.74-.35.94a5,5,0,0,0-.6.85c-.19.33-.38.71-.56,1.1a12.5,12.5,0,0,0-.48,1.2,11.42,11.42,0,0,0-.36,1.23,9.29,9.29,0,0,0-.22,2.42,18,18,0,0,0,.32,2.62c.16.9.35,1.84.5,2.79a24.48,24.48,0,0,1,.28,2.82A24.88,24.88,0,0,1,38,29.2c-.09.49-.2,1-.33,1.51s-.29,1-.46,1.52a9.52,9.52,0,0,0-1,2.36c-.21.73-.43,1.49-.69,2.23A19.42,19.42,0,0,1,34.64,39c-.33.69-.68,1.35-1,2s-.73,1.19-1.09,1.72-.68,1-1,1.43a8.78,8.78,0,0,1-1.63,1.7A7.18,7.18,0,0,1,27.51,47a5.12,5.12,0,0,1-1.07-.24,3.87,3.87,0,0,1-.86-.44,4.94,4.94,0,0,1-.72-.58c-.23-.23-.45-.48-.69-.75l-.79-.91c-.3-.36-.64-.75-1.05-1.2l-1.46-1.62c-.58-.64-1.2-1.38-1.87-2.18a7.15,7.15,0,0,0-1.38-1.37,10.79,10.79,0,0,0-1.57-1c-.53-.29-1.08-.55-1.62-.83a16.77,16.77,0,0,1-1.62-.93,17.93,17.93,0,0,1-2.17-1.68A16.87,16.87,0,0,1,9,31.54a19.39,19.39,0,0,1-1.28-1.7c-.38-.54-.7-1.06-1-1.53S6,27.43,5.7,27s-.56-.8-.79-1.17-.45-.75-.64-1.1S3.92,24,3.78,23.7s-.38-.88-.55-1.29-.35-.81-.53-1.2-.38-.76-.59-1.12m21,22.71a6.3,6.3,0,0,1,1,.93,5.89,5.89,0,0,0,.76.75l-.36-1c-.13-.37-.28-.79-.47-1.26s-.43-1-.71-1.61l-1.1-2.18-.66-1.29-.71-1.41-.74-1.47-.72-1.46-.69-1.42L18,30l-.61-1.3-.58-1.24-.76-1.56c-.24-.5-.49-1-.74-1.46s-.49-.93-.74-1.38-.5-.88-.75-1.3c-.52-.83-1-1.62-1.62-2.39q-.42-.57-.87-1.14c-.29-.38-.6-.76-.91-1.14a20.41,20.41,0,0,1,2.19,1.83A18.86,18.86,0,0,1,14.54,21c.29.38.56.78.83,1.19s.52.85.77,1.3.49.91.73,1.4.48,1,.72,1.51l.57,1.3.6,1.38.64,1.48.7,1.55q.36.81.75,1.62l.76,1.62c.26.53.51,1,.74,1.54s.47,1,.67,1.4c.42.87.77,1.63,1.08,2.31s.48,1.17.65,1.64l.45,1.25c.14.36.27.68.41,1a3.66,3.66,0,0,0,.51.75,2.44,2.44,0,0,0,.7.56.88.88,0,0,1-1-.37c-.28-.31-.53-.71-.88-.87.2.26.38.49.55.69a5.83,5.83,0,0,0,.48.5,2.81,2.81,0,0,0,.9.61,1.94,1.94,0,0,0,1.62,0,4.48,4.48,0,0,0,1.42-1.2c.29-.34.61-.74,1-1.19s.75-1,1.17-1.57.85-1.22,1.25-1.89a11.88,11.88,0,0,0,1-2.13,8.23,8.23,0,0,0,.43-2.21c.14-.62.28-1.27.39-1.94s.19-1.37.25-2.08.08-1.45.1-2.17,0-1.44,0-2.13a24.18,24.18,0,0,0-.24-2.7,19.87,19.87,0,0,0-.64-2.7c-.28-.91-.62-1.83-1-2.74s-.64-1.56-1-2.32a15.47,15.47,0,0,0-.46-1.73c-.18-.6-.38-1.24-.56-1.91a20.28,20.28,0,0,1-.44-2.12,19.18,19.18,0,0,1-.21-2.35,18.26,18.26,0,0,1,.13-2.46,12.48,12.48,0,0,1,.45-2.18c0,.64,0,1.27,0,1.88s0,1.21.08,1.78.08,1.1.14,1.61.11,1,.17,1.47c.14.94.3,1.82.5,2.66s.46,1.67.75,2.51.64,1.7,1,2.59c.29.74.59,1.48.86,2.23s.51,1.49.71,2.21a19.14,19.14,0,0,1,.43,2.13,18.94,18.94,0,0,1,.18,2.12c0,.72,0,1.44,0,2.17s-.07,1.46-.12,2.18A19.43,19.43,0,0,0,37,29.66a18.33,18.33,0,0,0,.4-2.35,15.37,15.37,0,0,0,0-2.25A16.89,16.89,0,0,0,37,22.78c-.17-.78-.37-1.56-.58-2.33s-.4-1.53-.55-2.27a12.05,12.05,0,0,1-.26-2.57,11.17,11.17,0,0,1,.26-2.19c.08-1,.78-1.36,1.08-2.28.41-.48,1.17-.4,1.14-1.59-.08-.94.53-1.5.47-2.08a5.54,5.54,0,0,0-.69-1.38,5.71,5.71,0,0,0-.82-.87c-.29-.27-.58-.52-.87-.76s-.61-.47-.92-.7A10.87,10.87,0,0,0,34,2.89a6.1,6.1,0,0,0-1.56-.7A4.14,4.14,0,0,0,30.56,2a8.12,8.12,0,0,1-1.73-.22c-.6-.12-1.21-.27-1.82-.39a8,8,0,0,0-1.89-.13,6.21,6.21,0,0,0-1.94.42,6.73,6.73,0,0,0-2,1.19,9.6,9.6,0,0,0-.95,1,11.34,11.34,0,0,0-.9,1.24,3.13,3.13,0,0,0-.43,1.28,6.39,6.39,0,0,0,0,1.58,11.06,11.06,0,0,0,.32,1.7,13.24,13.24,0,0,0,.55,1.61c.2.5.42,1,.64,1.43s.42.87.61,1.25a8.75,8.75,0,0,1,.79,2c.14.67.28,1.33.43,2s.31,1.28.48,1.92.37,1.33.6,2,.5,1.44.8,2.22.66,1.62,1.05,2.52l.63,1.4.67,1.45a7.73,7.73,0,0,1-1.2-1.94c-.28-.53-.57-1.13-.87-1.77s-.6-1.3-.9-2-.56-1.35-.82-2-.5-1.35-.73-2-.47-1.33-.71-2-.48-1.39-.74-2.13-.51-1.52-.77-2.35-.53-1.74-.78-2.71c-.13-.49-.26-1-.37-1.49s-.24-1-.35-1.51-.21-1-.31-1.39-.2-.84-.29-1.2c-.37-1.38-.73-2.13-1.08-2.2s-.71.49-1,1.91c.14.63.29,1.28.44,2s.32,1.37.49,2.05.35,1.31.54,1.92.37,1.19.57,1.72.38,1,.56,1.5.38.93.56,1.36c.36.85.7,1.64,1,2.39s.62,1.49.9,2.24.54,1.51.79,2.32.52,1.68.79,2.61l.41,1.44c.15.49.29,1,.44,1.53-.28-.45-.54-.91-.77-1.36s-.44-.92-.62-1.38c-.37-.92-.67-1.83-.94-2.72s-.52-1.74-.79-2.58-.56-1.69-.88-2.55-.68-1.79-1.07-2.75c-.2-.5-.4-1-.62-1.54s-.44-1.09-.68-1.66S16.22,10,16,9.41s-.5-1.14-.76-1.67a11.22,11.22,0,0,0-.82-1.43,5.51,5.51,0,0,0-.91-1,3.34,3.34,0,0,0-2.16-.88,5.19,5.19,0,0,0-2.63.7A13.13,13.13,0,0,0,7.35,7.42,2.67,2.67,0,0,1,5.63,9.16a2,2,0,0,0-1.18,2q.22.64.42,1.32t.39,1.35c.12.45.24.89.35,1.32s.22.86.32,1.27l.6,2.33.55,2.14c.18.7.37,1.41.59,2.14s.48,1.49.77,2.25.65,1.57,1.05,2.38c.2.4.41.82.63,1.23s.46.84.71,1.27q-.54-.58-1-1.14c-.31-.37-.58-.74-.83-1.1a15.39,15.39,0,0,1-1.25-2.12,11.87,11.87,0,0,1-.55-1.37,17.55,17.55,0,0,1-.51-1.77c-.13-.59-.25-1.17-.36-1.75S6.11,19.75,6,19.16s-.3-1.19-.49-1.8a18.39,18.39,0,0,0-.66-1.8,13.5,13.5,0,0,0-.48-1.27,4.43,4.43,0,0,0-.67-1.12c-.52-.57-1.13-.61-1.79.57a3.79,3.79,0,0,1-1.23,2c.13.49.28,1,.43,1.38s.33.83.51,1.22.38.74.58,1.1.42.7.63,1l.65,1.06c.22.37.44.75.66,1.17s.45.85.67,1.32.43,1,.62,1.48c.35.47.69,1,1.06,1.62s.64,1,1,1.58.79,1.12,1.26,1.69a21.34,21.34,0,0,0,1.53,1.68,20.45,20.45,0,0,0,1.88,1.64,20.67,20.67,0,0,0,2.31,1.56c.43.25.88.49,1.35.71s1,.43,1.5.62c-.45-.74-.88-1.46-1.27-2.18S15.28,33,15,32.34s-.62-1.33-.89-2-.5-1.24-.72-1.83-.42-1.17-.6-1.73-.36-1.11-.53-1.64c.22.5.44,1,.68,1.54s.47,1.05.73,1.6.53,1.11.83,1.69.6,1.19.93,1.8l.69,1.26c.24.43.49.86.75,1.31l.8,1.33c.27.45.55.9.83,1.35.55.89,1.1,1.72,1.63,2.46a22.3,22.3,0,0,0,1.54,1.94,14.59,14.59,0,0,0,1.44,1.34M37.77,12.45c.16,0,.41-.33.66-.74a9.24,9.24,0,0,0,.69-1.41A4.74,4.74,0,0,0,39.47,9c0-.34-.06-.57-.36-.48-.3-.4-.58.76-.54,1.48a1.7,1.7,0,0,1-1,1.6,11,11,0,0,0-.82,1.68,2.84,2.84,0,0,0-.14,1.88,4.1,4.1,0,0,1,.58-1.29,4.31,4.31,0,0,0,.61-1.43M31.09,42.58c.27-.47.54-1,.82-1.48s.54-1.07.78-1.66a13.81,13.81,0,0,0,.62-1.88,11.73,11.73,0,0,0,.31-2.14A15.87,15.87,0,0,0,33.5,33c-.15-.89-.33-1.83-.55-2.81s-.47-2-.72-2.93-.49-1.91-.69-2.79a20.67,20.67,0,0,1-.45-2.9,4.2,4.2,0,0,0-.78-2.4,7.8,7.8,0,0,1-1-2.34,6,6,0,0,1-.23-2.2,16.43,16.43,0,0,1,.35-2.28c.16-.8.35-1.66.52-2.61.08-.47.17-1,.25-1.49s.16-1.06.21-1.62a8.37,8.37,0,0,1,.3,3,17.34,17.34,0,0,1-.42,2.75,23.08,23.08,0,0,0-.48,2.49,4,4,0,0,0,.39,2.28A20.51,20.51,0,0,1,31.26,19a13.37,13.37,0,0,1,1.08,2.79,16.75,16.75,0,0,1,.44,2.85c.21.85.44,1.72.67,2.61.13.52.26,1.05.38,1.57s.23,1.05.34,1.56c.18,1,.32,2,.41,2.95a12.52,12.52,0,0,1,0,1.74,10.4,10.4,0,0,1-.27,1.61,12.46,12.46,0,0,1-.45,1.46q-.27.7-.57,1.35c-.21.42-.42.83-.64,1.23L32,41.86a2.7,2.7,0,0,0-.66,1,2.73,2.73,0,0,1-.76,1.05c-.41,0,.56-1,.55-1.34M8.68,15.64a1.39,1.39,0,0,1,0,.45,4.08,4.08,0,0,1-.79-1.42,12.62,12.62,0,0,1-.48-1.84c-.15-.67-.28-1.37-.44-2A9.6,9.6,0,0,0,6.42,9c.4-.28.67-.07.87.44a9.78,9.78,0,0,1,.45,2.12c.12.84.23,1.72.36,2.45A4.09,4.09,0,0,0,8.68,15.64Z"/></g></g></svg>