<svg xmlns="http://www.w3.org/2000/svg" viewBox="0 0 81.97 166.94"><defs><style>.cls-1{fill:#6cc7ff;opacity:0.75;}.cls-2{fill:#5490e8;}.cls-2,.cls-3{opacity:0.5;}.cls-3{fill:#203384;}.cls-4{fill:#1a2360;}</style></defs><g id="Layer_2" data-name="Layer 2"><g id="rice-paper-sail-large-1"><path id="fill4" class="cls-1" d="M73.66,4.07c-8.23-4.92-16.53-6.18-23.52.76-6,4.14-13.84,5-19.07,10.38-7,6.87-1.09,10.5-4.54,14-5.82,3.73-11.66,8.28-15.08,14.74-2.7,3.53-7.32,4.29-10.18,7.58C-3.93,60,8.64,67.13,6.56,75.39,4.93,78.75,6.24,83,4.08,86.21c-4.43,5.66-4.75,15.11.09,21.21,4.42,4.11,6.91,9.93,11,14.36,14.76,7.07,12.6,4.34,20.9,19.84,3.8,4.07,2.59,9.74-.21,13.62-.86,3.4-.5,7.15-2,10.2-.21,3.45.9,0,1.76-1.05a23.42,23.42,0,0,1,6-5.36C57,151.57,49.82,137.68,60,127c5.35-10.89-3.62-25.26,5.77-38.34,8.17-13.68,5.48-16.57-2-29.56C62.35,56,64.43,52.4,63.36,49,56.3,23.74,99.45,14.63,73.66,4.07ZM27.71,23.5l.08.06a.3.3,0,0,0,0,.15C27.72,23.67,27.75,23.55,27.71,23.5Zm26.91,110,.06,0C54.67,133.56,54.64,133.55,54.62,133.53Zm13.66-50.8c0-.06,0,0,.06,0ZM68.17,68.3l-.11-.12C68.18,68.2,68.26,68.25,68.17,68.3ZM62.55,41.71l0,.06C62.52,41.76,62.53,41.74,62.55,41.71Zm1.13-6.58.07,0C63.74,35.15,63.71,35.14,63.68,35.13Zm8.42-11.6.07,0C72.16,23.55,72.13,23.54,72.1,23.53Zm3-3h.12C75.09,20.6,75.07,20.57,75.05,20.54Zm4.57-4.9c-.06,0,0-.1,0-.15S79.64,15.57,79.62,15.64Z"/><path id="fill3" class="cls-2" d="M17.55,64.21C32.69,51.64,46.38,31.67,46.48,10.39c-.95.5.61,8.62-1,3.82.06-.91-1.5-3.55-1.64-2,2.78,7.11-3.68,17.33-6.91,24.11,1.82-5.24-4.1-15.78-4.73-11.22,1.26,2-.53.48-1.73.69-.81.78,2.32,1.16,3,1.58,7.86,13.81-9.63,21.19-16,29.41-3.13,1.91-4.29,6-6,8.92C11.52,59,18,56,20.19,50.19c4.6-4,16.84-9.19,13.05-16.36-.52,6.27-4.9,12.33-11,13.75-3.61,3.35-5.44,8.31-9.35,11.56-2,2.53-2,5.78-2.77,8.76-6.52,7.32,7-18.83,5.79-20.29C5.8,56.07,7.9,71.14,5.32,82.41c-1.25,6.27-7.51,15.22-2.39,22.91,3.43,2.52-.71-6.3.57-6.72,0-7.61,5.94-13.71,5.6-21.22,5.58-6.67-9.93,29.15,2.31,39-5.44-9.84-1-21.5-.21-32.64C10.1,76,15.62,70.44,17.55,64.21Zm9.31-11.7c-9.84,5.36,1.26-1.59,4-4.84C37.27,41.47,30.41,50.75,26.86,52.51Zm7.33-27.08a8,8,0,0,0-1.13-.82A1.68,1.68,0,0,1,34.19,25.43Zm-23.4,57.7c-2,6.71-2.84,36.33-4.71,20C7.5,95,13.75,62,10.79,83.13Zm70.34-71.6C75.58,24.7,59.34,32.42,60.85,49.11c-1.48,7.44,4.54,40,1.79,23.32-3.35-4.77.67-21.27,1.1-7.62.68,7.13,4.93,20.87-2,24.31C64.3,64.55,50.35,40.78,73,18.27c2-2.83,5.14-5.52,4.85-9.3C65.8,26.55,54.26,41.06,58.67,64.59c.07,5.54,2.71,11.66,3.73,15.82-6.62-11.06-5.61-26-3.92-38.62.91-13.34,14.16-23,19-33.85C77.06,7.24,81.85,8.55,81.13,11.53ZM60.13,112c2.19,3,.74,19.28-2.67,15.85C59.44,123.32,57.35,114.55,60.13,112ZM32,55.18c-1.55,6.65-.41,14.69-.36,20.77C30.62,69.81,29.45,59.47,32,55.18ZM61.7,86.23C57.51,97,54,108.87,53.54,120.84c-3.19-9.48,5.67-23.76,4.36-29.25-14.19,21.06-1.33,47.17-18.68,63.67,14.16-25.06-4.55-52.54-7.1-78.19C31,88.92,39.38,114,36.92,117.85c4.49,5.39,6.36,23.22,1.88,8.31-1.39,1.39,1.79,6.59,2,9.16-.6.26-2.3-1.95-2.43-3.49-2.84-12-15.11-18.17-18-30.18,2.08,3,13.43,21.42,18.41,27.08-4.73-12.73-17.41-21-20.06-34.8-.83-15.44-1.43-12.88-.95.7-.75,13.18,9.43,22,16.32,31.66,7.54,19.92,7.75,17.63-4.14,2.21,1.32,8,14.69,18.19,5.23,28.12-.28,1.48-.77,4.11,0,5.52C58,151.17,52.28,110.13,61.7,86.23ZM40.38,119.88A74.12,74.12,0,0,1,35.6,99.2C36.65,104,44.53,128.38,40.38,119.88ZM.81,60c-3.27-9.05,21.56-22.2,27-29.9C23.49,16.05,38.62,10.38,48.19,6.41c6.67-5.32,15.48-9.07,22.88-3.3C65.84,3.4,56.57,0,50.94,6.64c-11.63,5.42-29,14.93-19.2,28.9-5-8.46-12.1,2.8-17.89,8.18C10,50.22.17,51.74.81,60ZM35.65,70.11c-.65,15.66,9.88,33,7.24,46.85-1.18-22.22-16.35-43.71-7-66.1,5.34-10,11.79-28.37,18.47-33.44-5.81,16.8-19,31.5-18.83,50.06,1.71-19,14.6-33.42,20.29-50.95C51,34.35,36.71,50.37,35.65,70.11Z"/><path id="fill2" class="cls-3" d="M27.82,23.28a2.18,2.18,0,0,0-.38-.91c0-2,.69-4.28,3.63-7.16,2.77-2.88,6.27-4.46,9.84-5.92a24.81,24.81,0,0,0-7.27,7,20.9,20.9,0,0,0-3,9.33c-.27,2.87-.36,6.7,1.55,9-.1.2-.19.41-.28.61a13.23,13.23,0,0,1-2.5-4.48A56.69,56.69,0,0,1,27.82,23.28ZM39.23,145.91a1.69,1.69,0,0,1-.78-.5,2.68,2.68,0,0,1-.28.18,8.8,8.8,0,0,1,.24,1.62C38.68,146.77,39,146.34,39.23,145.91ZM71,25.72v-.14c.09-.3.17-.61.23-.92a12.77,12.77,0,0,0,1-2.14,6.07,6.07,0,0,1-1,1s0,0-.07,0l-.3.43C70,25.2,68.93,26.3,68,27.45A14.25,14.25,0,0,1,65.76,30c-.08.07-.2-.06-.15-.15.81-1.24,1.48-2.58,2.33-3.79.71-1,1.64-1.88,2.35-2.88,1.9-2.67,4.23-4.64,6.38-7a10.55,10.55,0,0,0,1-6.62,7.3,7.3,0,0,0-1-2.52l-.06-.18A2.37,2.37,0,0,0,76,5.75c-.08-.25-.17-.5-.25-.76C88.42,11.08,79.1,16.84,71,25.72Zm4.54-7.56Zm-11.79,41c7.49,13,10.18,15.88,2,29.56C56.36,101.76,65.33,116.13,60,127c-10.16,10.66-3,24.55-18.39,32a23.42,23.42,0,0,0-6,5.36c-.86,1-2,4.5-1.76,1.05a17.83,17.83,0,0,0,1.38-6.1,2,2,0,0,0,.42,0,1,1,0,0,1,0-.17,2.54,2.54,0,0,1,0-.69s0,0,0,0a7.9,7.9,0,0,1,1.24-2.88.79.79,0,0,1-.14-.56,3.88,3.88,0,0,1,.92-1.62l.26-.54h0c.13-.36.3-.78.46-1.2a13.41,13.41,0,0,1,.76-2.51c0-.14.07-.28.11-.41,0-.35.05-.68.1-1s0-.43.06-.64,0-.23,0-.35a.58.58,0,0,1-.09-.58l.29-1.36a.64.64,0,0,1,.22-.44c0-.78,0-1.54,0-2.39a8,8,0,0,1,0-1.5c-.11-1-.28-1.9-.33-2.87l-.05-.14c-.83-2.19-1.54-4.4-2.25-6.64A24.86,24.86,0,0,0,34,124.19c-2.42-3.67-6.06-6.21-8.4-10-1.26-2-2.76-3.88-4.08-5.88-1-1.52-2.54-2.82-2.76-4.74,0-.27.4-.32.46-.06.36,1.57,1.73,2.43,2.67,3.6.61.76,1.1,1.58,1.66,2.37.78,1.11,1.88,2,2.62,3.09.58.87,1.08,1.79,1.69,2.65,1.29,1.83,3.12,3.17,4.53,4.9l.14.17a.35.35,0,0,1,.22.12c.73.82,1.65,1.37,2.32,2.24.9,1.17,1.78,2.44,2.61,3.66,1.36,2,1.72,4.35,2.19,6.7.57,2.81,1.17,5.66,1.55,8.5.22,1.71.93,4.15.08,5.82a7.1,7.1,0,0,1,.15.83c0,.26,0,.52,0,.78a36.22,36.22,0,0,0,.3-4.23,40.66,40.66,0,0,0,.34-5.05c0-3.63-.2-7.26-.29-10.89a.48.48,0,0,1,.94-.13,40.62,40.62,0,0,1,.67,13.52c-.19,2.1-.58,4.19-.91,6.26l0,.17a95.16,95.16,0,0,0,5.35-9.5,30,30,0,0,0,3.12-11c.2-4.07-.94-8-1.19-12-.47-7.67,3.3-15.56,7.12-21.91C58,92.85,58.89,91.44,59.8,90c.16-.35.32-.7.45-1,.48-1.35.93-2.66,1.47-4a32.09,32.09,0,0,0,1.36-3.86c.2-1,.34-2,.45-3,0-.16,0-.32,0-.48,0-1.21,0-2.42-.16-3.62q-.1-.63-.24-1.26c-.11-.38-.23-.77-.3-1.15-.06-.21-.14-.42-.22-.63a.55.55,0,0,1,0-.38,12.65,12.65,0,0,1-1.92-6c0-2.51,1.05-4.62,2.09-6.81.17-.34.32-.68.47-1A6.32,6.32,0,0,0,63.74,59.12Zm-25,95a.58.58,0,0,1,.12.5c0,.15-.06.3-.09.44.59-1,1.2-2,1.82-3a30.42,30.42,0,0,0,0-3.29,2.26,2.26,0,0,0,0-.26l-.09.27a7.17,7.17,0,0,1-.46,2.13h0a5.41,5.41,0,0,1-.65,2.08.47.47,0,0,1-.22.24l-.14.22C39,153.64,38.88,153.87,38.78,154.09ZM64.4,80.65ZM62.55,41.71s0,0,0,.06ZM20.22,58.25a28.82,28.82,0,0,0-3.58,8.48,9.38,9.38,0,0,1-2.06,4.81,24.27,24.27,0,0,0-3.28,4.31,42.91,42.91,0,0,0-3.6,9.73c-.94,3.59-2.18,7.11-3.08,10.7a21,21,0,0,0,.69,12.28c-.37-.39-.74-.78-1.14-1.14-4.84-6.1-4.52-15.55-.09-21.21,2.16-3.23.85-7.46,2.48-10.82a8.26,8.26,0,0,0,.09-3.46l.24-.32A11,11,0,0,1,6.26,69a.38.38,0,0,1-.07-.22A26.81,26.81,0,0,1,7,63.3a40.94,40.94,0,0,1,1-4.11c0-.17,0-.34,0-.5a.44.44,0,0,1,.4-.5,8.51,8.51,0,0,1,.43-.78,27.08,27.08,0,0,1,6.84-7.92c.09-.06.19.08.11.16a44,44,0,0,0-5.35,6.85,8.07,8.07,0,0,1-.51,1.22.26.26,0,0,1,.32.26,18.53,18.53,0,0,1-.72,3.23c-.16.79-.25,1.61-.38,2.42s0,1.36-.1,2c0,.28-.05.56-.08.84v0c0,.62.13,1.29.17,1.94a44.56,44.56,0,0,0,2.29-4.1c1.19-2.42,1.48-5.82,4.13-6.91s3.08-2.49,4.24-5c.07-.15.14-.28.21-.41a2.23,2.23,0,0,0,.9-.66c1.65-2,4.7-2.18,6.68-3.78,2.36-1.91,4.21-4.48,6.29-6.68a2.25,2.25,0,0,0,.55-.93c.33-.4.65-.83.95-1.27a20,20,0,0,0,.57-2.64c0-.62.06-1.25.1-1.87,0-1.44-.17-2.87-.12-4.3,0,0,0-.05,0-.07a9.56,9.56,0,0,0-1-3.1C34.41,26,33.3,25.53,32.63,25c-.27-.23.11-.6.38-.39.9.73,1.77.83,2.39,1.84A10.52,10.52,0,0,1,36.34,29a.23.23,0,0,1,.06.13c0,.18.07.36.11.54a.13.13,0,0,0,0,.06,18.59,18.59,0,0,1,.12,7.21c-.07.32-.14.74-.24,1.19,0,0,0,.06,0,.09.67-1.35,1.32-2.73,2-4.05,1.61-3,2.94-6.1,4.45-9.15a.26.26,0,0,1,.34-.16c.11-.37.25-.74.41-1.15s.27-1.36.75-1.71c.13-.09.27.09.21.21-.29.57-.2,1.28-.45,1.88a12.19,12.19,0,0,0-.87,2.66.09.09,0,0,1-.09.07,22.89,22.89,0,0,1-3.09,7c-1,1.49-1.83,3.14-2.78,4.69-.78,1.27-1.64,2.34-2.47,3.57a.22.22,0,0,1-.36,0,17.11,17.11,0,0,1-1.84,3.71c-1.68,2.39-4.12,4-6.36,5.83A24.91,24.91,0,0,0,20.22,58.25ZM8,61.63l0,0v-.11S8,61.58,8,61.63Zm36.43,57.86c0-.24-.08-.49-.1-.75-.08-1.08-.23-2.16-.41-3.24-.09-.82-.19-1.64-.32-2.46-.32-2-.77-3.91-1.27-5.89-.36-1.44-.56-3-.87-4.45-.1-.49-.21-1-.31-1.48-.05-.22-.09-.45-.13-.68a.72.72,0,0,0,0-.21c0-.06,0-.12,0-.18h0c0-.28-.08-.55-.13-.83a.67.67,0,0,0,0-.4c-.1-.44-.23-.88-.36-1.31A10,10,0,0,0,39.39,94a.69.69,0,0,0-.29-.25c-.26-1.21-.53-2.44-.86-3.67-.58-2.2-1.58-4.24-2.25-6.43-.7-2.34-1.1-4.74-1.87-7.07a.4.4,0,0,0-.16-.23C33.15,71.67,33,66.7,32.61,62a.16.16,0,0,0-.32,0c-.1,1.27-.56,2.5-.55,3.79,0,1.44.4,2.9.54,4.33.23,2.44.1,4.89.49,7.31.48,3,.87,6,1.39,9,.19,1.11.43,2.18.71,3.23a.5.5,0,0,0,0,.27l.06.24v0l0,.1c.4,1.58.47,3.3,1.27,4.73a.5.5,0,0,0,.15.17,1,1,0,0,0,0,.18c-.1,1.84,1,4.58,1.79,6.28.12.54.25,1.08.38,1.61.65,2.72,2,5.33,2.88,8a54.73,54.73,0,0,1,1.91,8.29c.28,1.57.27,4.16,1.06,5.59a.43.43,0,0,0,.79-.22,14.71,14.71,0,0,0-.44-3.63c-.1-.53-.22-1.05-.32-1.58Z"/><path id="fill1" class="cls-4" d="M73.65,4.07c-8.22-4.93-16.52-6.18-23.51.77C44.09,9,36.3,9.79,31.06,15.21c-7,6.87-1.08,10.5-4.53,14-5.81,3.72-11.66,8.27-15.08,14.73-2.7,3.53-7.32,4.29-10.18,7.59C-3.93,60,8.64,67.13,6.56,75.39,4.93,78.75,6.24,83,4.08,86.21c-4.43,5.66-4.76,15.11.09,21.2,4.42,4.12,6.91,9.94,11,14.37,14.76,7.07,12.6,4.34,20.9,19.84,3.8,4.08,2.59,9.74-.21,13.62-.86,3.4-.5,7.15-2,10.2-.21,3.45.9,0,1.76-1.05a23.26,23.26,0,0,1,6-5.36C57,151.57,49.82,137.68,60,127c5.33-10.9-3.64-25.26,5.77-38.34,8.16-13.68,5.47-16.57-2-29.56C62.35,56,64.43,52.4,63.36,49,56.3,23.74,99.46,14.63,73.65,4.07ZM35.06,163.53a6.75,6.75,0,0,1,2-4.38c-.66-1.7,7.57-11.93,7.66-10a.25.25,0,0,1,0,.13,14.32,14.32,0,0,1-.31,2.91,6.73,6.73,0,0,1-.79,2.08c-1,1.86-3,2.06-5.51,4.05C36.19,159.84,36.52,162.32,35.06,163.53Zm24.75-37.77c-.71.77-1.45,2.35-2,2.58,1.72-4.59,1.59-9.42,1.92-14.25C60.28,106.72,62.4,123,59.81,125.76Zm7.65-98c-6.21,7.54-5.68,17.09-4.79,26.46a.43.43,0,0,1,0,.07,12.22,12.22,0,0,1-.13,1.9,43.75,43.75,0,0,1-1.41,4.61,16.19,16.19,0,0,0-.5,2.86c-.11,3.67.77,7.06,3.71,11.54,2.31,5.18-.06-3.22-1.44-4.58-2.8-4.77-1.49-17.53,2.57-6.83,2.25,4.71,6.34,9.48,4.09,15-12.67,23.2-8,26.28-12.66,49.55-8.42,16.44-.83,23.08-19,31.81,2.1-3,5.93-3.45,8.3-6.13,3.79-6.35,5.78-15.45,7.19-21.92-3.9,5.92-3.19,14.28-7.44,20.21-6.05,10.06,6.45-21.57,5.69-24-4.3-20.26,2.42-24.56,9.74-41.38.32-1,2.09-3.74.44-4.23a42.92,42.92,0,0,1-3,8.68c-5.12,8.36-9.33,16.61-9.43,26.79,1.34,6.51,2.36,12.74-.78,19.06-2.29,4.58-2.82,10.24-7.08,13.31,2.84-7.95,5.14-17.74,3.52-27C42.53,111,36.75,99.38,34.11,86.85c-.08,3.51,1.37,8.68,2.62,12.52,3.94,11.63,10,27.55,7.14,38.28-1.06-6.29-1.22-15.76-6.76-19.32,5.63,8.49,8.27,20.67,3.78,30.12-.37,0,.35-1.8.21-2.56-.4-5.12.81-11.34-1.34-15.95.12,5.08.86,12.45.77,18.5a4.94,4.94,0,0,1-.3,2.47,6.41,6.41,0,0,1-1.4,2.34,14.1,14.1,0,0,0-2.48,4.46c-.72-2.2,2.19-4.42,2.63-6.84,1.3-4.33-.89-8.26-3.58-11.56-2.5-4.65-4.16-10.45-8.95-13.13C13,122,14,117.73,5.55,107.78.63,102.91.35,95,3.1,88.84c2.66-3.15,2.93-5,3.37-8.9C7.53,69.23,12.46,69.3,14,60.7c2.24-2.9,5.95-3.53,6.75-7.77,2-2.86,6.25-2.71,8.63-5.41,2.49-3.08,4.66-6.61,7.24-9.34,4-3.63-.25-13.33-3.91-13.68,5.74,5.17,5.83,12,.15,17C30.37,46.46,25.87,49,21.4,51c-1.62.7-1.76,2.93-2.45,4.24-1.28,1.88-2.17,1.75-4,2.92-2.47,1.36-2.21,4.05-2.7,6.37-1,1.57-2.57,3-3.37,4.83C10,66.19,9.68,62.47,10,59c2.17-5.72,6.83-10.5,10.92-14.74A42,42,0,0,0,9.61,58.4c-.91,4.42.07,9.31-2.1,13.48C5.72,65-4.95,55.37,4.48,49.7c5.78-1.82,8.35-7.07,11.91-11.54,3.26-3.81,8-6.09,11.42-9.58a18.32,18.32,0,0,0,3.82,6.08A21.82,21.82,0,0,1,29.5,31c0-.11-.09-.22-.14-.33h0A13.42,13.42,0,0,1,28.43,28a10.26,10.26,0,0,1-.14-1.55,7.42,7.42,0,0,1-.14-1,2,2,0,0,1,0-.87c.12-6.17,6.19-12.82,12.43-14.14C46.91,8.71,51.81,3.7,57.72,1,66-.56,73,5.06,80,8.59,85,15.18,70.32,22.21,67.46,27.76Zm-39.67-4.2-.08-.06c0,.05,0,.17.1.21a.22.22,0,0,1,0-.15m36.37,50L64,73.44c-.09.06,0,.1.12.12M79.62,15.64c0-.07.07-.15,0-.15a.12.12,0,0,0,0,.15m-4.45,4.91h-.12s0,.06.12,0M68.06,68.18l.12.12c.08,0,0-.1-.12-.12M58.31,93l0-.06s0,0,0,.06M12.17,65.63l.07,0s-.06,0-.07,0M37.92,34.2l.07,0s-.06,0-.07,0m-.28-1.83,0,.07s0-.06,0-.07m24.94,9.41,0-.07s0,0,0,.07m-7.9,91.72-.06,0s.05,0,.06,0m9.07-98.41-.07,0s.06,0,.07,0m4.53,47.64.06,0s0,0-.06,0M72.17,23.5l-.07,0s.06,0,.07,0M24.67,50.05l0,.06S24.73,50.06,24.67,50.05ZM45.9,16.92c-.83,7.64-3,15.47-7.74,21.54-3.36,3-3.37,8-7.45,10.31-3.06,3.22-9,3.15-10.06,8.19a1.58,1.58,0,0,1-.16.35,3.84,3.84,0,0,1-.45.61c-.93.81-1.76,1.41-2.5,2l-.23.08a.29.29,0,0,0-.19.26c-1.54,1.28-2.63,2.69-3.27,6.44-2.72,3.17-6.76,8.49-5.44,12.58,1-4.12,4.61-6.57,6.91-9.83,1.06-2.43,2.14-4.92,3.3-7.21,2.62-4.72,8.82-5.31,11.83-9.48,1.5-1,4.72-8.43,2.5-3.22-1.35,5.21-6.87,7.12-11,10-3.4,2.67-4.31,7-6.22,10.75-2,2.44-5,4.58-6.2,7.69-.77,8.9-8.11,16.64-5.07,25.73-.79,1.43-1.62-3.08-1.21-3.9C1.83,93.28,8,88.07,7.82,82.12c0-.21,0-.42,0-.63a.11.11,0,0,0,0,0s0,0,0,0c0-.44,0-.9,0-1.34s-.08-.92-.13-1.37c0-.28-.11-.56-.16-.84-.11-1.55-.12-3.13,1-4.44.38-3.69,4.42-5.62,5.06-9.1.67-5.41,5.69-5.39,7.5-10.32.87-2.44,3.67-2.57,5.78-3.37,1.52-.87,1.78-2.3,3.46-2.75,2.77-1.75,3.73-4.74,4.87-7.66,6.12-6,8.5-14.06,10-22.31C45.27,17.48,45.64,16.51,45.9,16.92ZM16.84,59.75l-.07,0s.06,0,.07,0m-5.38,9.17,0-.07s0,.06,0,.07M43,27.4l0,.07s0-.06,0-.07M29,49.58l0-.06S28.92,49.57,29,49.58ZM32.72,63.3c.47-12.13,7.17-23.26,14-32.69a31.54,31.54,0,0,1,4.14-7.19c.5-.64,1.5-4.38,1.91-2.56C47,32.44,38,42.52,34.69,55.23c-4.16,14,3.05,30.44,6.06,42.4C36.4,87.44,32,75,32.72,63.3m3.55,20.46,0,.07S36.32,83.77,36.27,83.76ZM19.8,105.53c3.46,2.09,5.77,7.56,9,10.71,2.83,3.12,6.12,5.87,7.71,9.92.87,1.27,1.44,5.22.42,1.86-.08.24.11.46,0,.69-.91-3.92-4-7.44-7-10.27C26.17,114.43,23.3,109.72,19.8,105.53ZM75.54,17.9c-3.16,3.5-5.71,4.53-1,.23,1.67-.78,2.76-5.69,3.91-7.52C78.67,13,76.92,15.86,75.54,17.9Z"/></g></g></svg>