<svg xmlns="http://www.w3.org/2000/svg" viewBox="0 0 95.40506 136.66737"><title>sash-1-front</title><g id="Layer_2" data-name="Layer 2"><g id="sash-1-front"><path id="void" d="M95.37614,37.52736a14.04928,14.04928,0,0,0-.23,2.58,43.8801,43.8801,0,0,1-.96008,4.72,15.23642,15.23642,0,0,1-.64,1.98c-.22.64-.51,1.25-.67993,1.9a26.23486,26.23486,0,0,1-1.06006,2.71c-.56005,1.38995-1.07006,2.81-1.66992,4.18a22.07571,22.07571,0,0,1-1.31006,2.38c-.73,1.23-1.53,2.4-2.18994,3.67-.55,1.06-1.21008,2.05-1.84009,3.06-.46.74-.8999,1.49-1.3999,2.2-.82007,1.14-1.69006,2.25-2.52,3.38-.42.57-.81006,1.17-1.23,1.74-.44006.6-.91015,1.18-1.37012,1.76-.49.6-.99,1.18-1.47,1.79-.48.6-.90991,1.23-1.4,1.82q-1.22992,1.485-2.49,2.94c-.52991.61-1.08,1.21-1.64,1.8-1.71,1.77-3.40991,3.55-5.1499,5.28-1.08008,1.08-2.22009,2.1-3.38012,3.08-1.02.86-2.12989,1.62-3.17994,2.45-.72.58-1.39,1.22-2.11,1.79-.65.52-1.35.97-2.03,1.43994q-2.235,1.57507-4.48,3.13c-1,.71-1.97009,1.49-3.03,2.1-1.22.71-2.27991,1.64-3.53992,2.31-1.3.69-2.47009,1.63-3.72009,2.43-.96.61-1.97,1.16-2.95,1.76-.68006.41-1.34.85-2.02,1.26-.86.53-1.73,1.02-2.59,1.55-.64.39-1.25.82-1.89,1.22-.84.51-1.69006.99-2.53,1.5-1.35.84-2.71008,1.68-4.03992,2.56-.87011.57-1.70007,1.2-2.54,1.82q-1.78509,1.32-3.55,2.65c-.48.36-.97.73-1.41992,1.12-.66015.58-1.26,1.25-1.96008,1.79a41.55551,41.55551,0,0,0-3.95007,3.67c-1.28992,1.28-2.6399,2.52-3.84986,3.88-1.16,1.3-2.18005,2.73-3.25,4.12-.34009.45-.62011.94-.96008,1.39-.09.12-.2699.15-.41.23-.06995-.15-.2-.3-.19-.44.03-.41-.16992-.2-.31-.14-.09986.06-.17994.17-.28992.2-.14.04-.37.09-.44006.01995a2.78151,2.78151,0,0,1-.73-.88995,5.10055,5.10055,0,0,1-.27-1.46.12683.12683,0,0,1,.01-.06H.506c-.36988.01-.5-.77-.5-.92a12.19017,12.19017,0,0,1,.26-1.91,26.67405,26.67405,0,0,1,.8-3.43,19.86963,19.86963,0,0,1,.87-2.41c.53992-1.4,1.02-2.83,1.69006-4.17.57-1.16,1.08985-2.36,1.71-3.5.87989-1.6,1.86-3.13,2.77-4.7.65992-1.15,1.37989-2.28,2.1-3.4q1.77008-2.73,3.6-5.41c.82007-1.22,1.66993-2.42,2.56006-3.59.73-.96,1.54993-1.86,2.32-2.79.86-1.04,1.69006-2.1,2.54993-3.14.44006-.53.93005-1.01,1.38012-1.54.67993-.81006,1.34-1.64,2.02-2.46.08985-.11.21-.21.30994-.32,1.32995-1.42,2.66-2.84,3.98-4.28.80994-.87995,1.63-1.75995,2.38-2.68994,1.35-1.68006,2.90992-3.15,4.4-4.7,1.55994-1.61005,3.14-3.22,4.61-4.92,1.27-1.47,2.63-2.85,3.97-4.26.87-.92,1.63-1.92,2.45-2.88.15014-.17.32006-.32.48-.48a28.08358,28.08358,0,0,0,2.5-2.94c.35009-.47.78-.87,1.15014-1.31994.66992-.8,1.30994-1.62006,1.97-2.41.56995-.69,1.17994-1.36,1.74-2.06q1.37989-1.71,2.71-3.45c.58008-.76,1.13-1.53,1.7-2.3.87011-1.16,1.74-2.32,2.59008-3.5.7-.95,1.38-1.92,2.02-2.91,1.06995-1.66,2.11-3.33,3.14991-5a23.65751,23.65751,0,0,0,1.53-2.96c.46-.99,1.04-1.92,1.52-2.9a29.05074,29.05074,0,0,0,1.91993-4.3,2.43447,2.43447,0,0,1,.32006-.62,22.35008,22.35008,0,0,0,1.31006-3.06,8.05587,8.05587,0,0,0,.45-1.09c.39-1.18.8-2.37,1.14-3.57a18.5491,18.5491,0,0,0,.36-1.95c.12-.68.2-1.36.3501-2.04a7.99562,7.99562,0,0,0,.25989-1.54c.02-.8.14-1.61.13-2.41a18.87064,18.87064,0,0,0-.15991-3.01,16.97169,16.97169,0,0,0-.88012-3.98,11.255,11.255,0,0,0-2.51-4.12995c-.28992-.27-.5-.52-.21-.94.1001-.16.02-.44.02-.66a.88725.88725,0,0,1,1.12-.91,5.85492,5.85492,0,0,1,2,.95,15.49912,15.49912,0,0,1,1.99,1.7c.82.86,1.54,1.81,2.30005,2.72.52991.63,1.07995,1.24,1.57995,1.9.92005,1.21,1.81006,2.44,2.71,3.67005.47.63.96008,1.25,1.37011,1.91.8899,1.42,2.02,2.65,2.98,4.02a27.712,27.712,0,0,1,2.03,3.5,71.71086,71.71086,0,0,1,2.93994,6.81,24.42287,24.42287,0,0,1,.91993,2.47c.20007.77.39013,1.54.56005,2.32a17.12557,17.12557,0,0,1,.47,4.16C95.246,36.61732,95.486,37.11732,95.37614,37.52736Z" style="fill:#fff"/><path id="fill2" d="M95.37614,37.52736a14.04928,14.04928,0,0,0-.23,2.58,43.8801,43.8801,0,0,1-.96008,4.72,15.23642,15.23642,0,0,1-.64,1.98c-.22.64-.51,1.25-.67993,1.9a26.23486,26.23486,0,0,1-1.06006,2.71c-.56005,1.38995-1.07006,2.81-1.66992,4.18a22.07571,22.07571,0,0,1-1.31006,2.38c-.73,1.23-1.53,2.4-2.18994,3.67-.55,1.06-1.21008,2.05-1.84009,3.06-.46.74-.8999,1.49-1.3999,2.2-.82007,1.14-1.69006,2.25-2.52,3.38-.42.57-.81006,1.17-1.23,1.74-.44006.6-.91015,1.18-1.37012,1.76-.49.6-.99,1.18-1.47,1.79-.48.6-.90991,1.23-1.4,1.82q-1.22992,1.485-2.49,2.94c-.52991.61-1.08,1.21-1.64,1.8-1.71,1.77-3.40991,3.55-5.1499,5.28-1.08008,1.08-2.22009,2.1-3.38012,3.08-1.02.86-2.12989,1.62-3.17994,2.45-.72.58-1.39,1.22-2.11,1.79-.65.52-1.35.97-2.03,1.43994q-2.235,1.57507-4.48,3.13c-1,.71-1.97009,1.49-3.03,2.1-1.22.71-2.27991,1.64-3.53992,2.31-1.3.69-2.47009,1.63-3.72009,2.43-.96.61-1.97,1.16-2.95,1.76-.68006.41-1.34.85-2.02,1.26-.86.53-1.73,1.02-2.59,1.55-.64.39-1.25.82-1.89,1.22-.84.51-1.69006.99-2.53,1.5-1.35.84-2.71008,1.68-4.03992,2.56-.87011.57-1.70007,1.2-2.54,1.82q-1.78509,1.32-3.55,2.65c-.48.36-.97.73-1.41992,1.12-.66015.58-1.26,1.25-1.96008,1.79a41.55551,41.55551,0,0,0-3.95007,3.67c-1.28992,1.28-2.6399,2.52-3.84986,3.88-1.16,1.3-2.18005,2.73-3.25,4.12-.34009.45-.62011.94-.96008,1.39-.09.12-.2699.15-.41.23-.06995-.15-.2-.3-.19-.44.03-.41-.16992-.2-.31-.14-.09986.06-.17994.17-.28992.2-.14.04-.37.09-.44006.01995a2.78151,2.78151,0,0,1-.73-.88995,5.10055,5.10055,0,0,1-.27-1.46.12683.12683,0,0,1,.01-.06H.506c-.36988.01-.5-.77-.5-.92a12.19017,12.19017,0,0,1,.26-1.91,26.67405,26.67405,0,0,1,.8-3.43,19.86963,19.86963,0,0,1,.87-2.41c.53992-1.4,1.02-2.83,1.69006-4.17.57-1.16,1.08985-2.36,1.71-3.5.87989-1.6,1.86-3.13,2.77-4.7.65992-1.15,1.37989-2.28,2.1-3.4q1.77008-2.73,3.6-5.41c.82007-1.22,1.66993-2.42,2.56006-3.59.73-.96,1.54993-1.86,2.32-2.79.86-1.04,1.69006-2.1,2.54993-3.14.44006-.53.93005-1.01,1.38012-1.54.67993-.81006,1.34-1.64,2.02-2.46.08985-.11.21-.21.30994-.32,1.32995-1.42,2.66-2.84,3.98-4.28.80994-.87995,1.63-1.75995,2.38-2.68994,1.35-1.68006,2.90992-3.15,4.4-4.7,1.55994-1.61005,3.14-3.22,4.61-4.92,1.27-1.47,2.63-2.85,3.97-4.26.87-.92,1.63-1.92,2.45-2.88.15014-.17.32006-.32.48-.48a28.08358,28.08358,0,0,0,2.5-2.94c.35009-.47.78-.87,1.15014-1.31994.66992-.8,1.30994-1.62006,1.97-2.41.56995-.69,1.17994-1.36,1.74-2.06q1.37989-1.71,2.71-3.45c.58008-.76,1.13-1.53,1.7-2.3.87011-1.16,1.74-2.32,2.59008-3.5.7-.95,1.38-1.92,2.02-2.91,1.06995-1.66,2.11-3.33,3.14991-5a23.65751,23.65751,0,0,0,1.53-2.96c.46-.99,1.04-1.92,1.52-2.9a29.05074,29.05074,0,0,0,1.91993-4.3,2.43447,2.43447,0,0,1,.32006-.62,22.35008,22.35008,0,0,0,1.31006-3.06,8.05587,8.05587,0,0,0,.45-1.09c.39-1.18.8-2.37,1.14-3.57a18.5491,18.5491,0,0,0,.36-1.95c.12-.68.2-1.36.3501-2.04a7.99562,7.99562,0,0,0,.25989-1.54c.02-.8.14-1.61.13-2.41a18.87064,18.87064,0,0,0-.15991-3.01,16.97169,16.97169,0,0,0-.88012-3.98,11.255,11.255,0,0,0-2.51-4.12995c-.28992-.27-.5-.52-.21-.94.1001-.16.02-.44.02-.66a.88725.88725,0,0,1,1.12-.91,5.85492,5.85492,0,0,1,2,.95,15.49912,15.49912,0,0,1,1.99,1.7c.82.86,1.54,1.81,2.30005,2.72.52991.63,1.07995,1.24,1.57995,1.9.92005,1.21,1.81006,2.44,2.71,3.67005.47.63.96008,1.25,1.37011,1.91.8899,1.42,2.02,2.65,2.98,4.02a27.712,27.712,0,0,1,2.03,3.5,71.71086,71.71086,0,0,1,2.93994,6.81,24.42287,24.42287,0,0,1,.91993,2.47c.20007.77.39013,1.54.56005,2.32a17.12557,17.12557,0,0,1,.47,4.16C95.246,36.61732,95.486,37.11732,95.37614,37.52736Z" style="fill:#ff836a"/><path id="fill1" d="M2.69582,133.23824a10.33776,10.33776,0,0,0,1.22439-2.29781,15.87648,15.87648,0,0,1,1.76817-3.31835c.046-.05847.14393-.10174.15174-.16081A6.41253,6.41253,0,0,1,6.939,125.36851a17.33077,17.33077,0,0,1,1.80539-2.93864c.62008-.75557,1.05115-1.66316,1.60738-2.475.83023-1.21177,1.73777-2.37215,2.53478-3.6046.608-.94017,1.28561-1.82178,1.95808-2.71153.8618-1.14023,1.70964-2.291,2.56273-3.43786.2841-.3819.56382-.76709.85167-1.14613.031-.04086.1031-.05055.15613-.0747a.59448.59448,0,0,1,.02649.21059.747.747,0,0,1-.12368.24746c-.80548,1.117-1.5978,2.244-2.42628,3.34374-.67261.89281-1.22349,1.8671-1.9574,2.72322a25.02642,25.02642,0,0,0-1.55522,2.27327c-.96949,1.42416-1.95725,2.83609-2.91092,4.27072-.58284.87678-1.15,1.76753-1.66274,2.68632-.54121.96992-.9555,2.01291-1.5261,2.96342A13.43439,13.43439,0,0,1,5.013,130.10465a.51485.51485,0,0,0-.06379.27034.35906.35906,0,0,0,.04028.1316A.9555.9555,0,0,0,5.095,130.388c.35154-.554.68238-1.1223,1.05516-1.66156.6605-.95547,1.3145-1.91828,2.02917-2.83273.92214-1.18,1.90084-2.31571,2.85677-3.46918.06354-.07666.14215-.14062.21095-.21313q1.37487-1.44875,2.75-2.89731c.29035-.30431.59807-.592.89063-.89421q2.12369-2.194,4.24452-4.3908c.48442-.49924.96975-.99884,1.47713-1.4743,1.34774-1.263,2.67763-2.54758,4.07233-3.757,1.12235-.97329,2.33587-1.8408,3.496-2.7714.886-.71074,1.74179-1.45932,2.6295-2.1679.84058-.671,1.70216-1.31585,2.56023-1.96463.77906-.58905,1.5694-1.16318,2.34809-1.7527.66793-.50568,1.325-1.02573,1.9926-1.53183.04042-.03063.13181.006.1995.0113a.48633.48633,0,0,1-.08015.1567q-.46708.4043-.94377.79748c-1.49456,1.23594-3.01434,2.43757-4.59646,3.56259-.82285.58512-1.58573,1.25589-2.36412,1.90193-1.24855,1.03627-2.46863,2.10779-3.73738,3.11841-.78343.624-1.5073,1.31206-2.26976,1.95371q-1.83872,1.5474-3.52129,3.25144c-.75312.761-1.52329,1.50542-2.26794,2.27459-.84216.8699-1.69536,1.73233-2.48655,2.64746-.81649.94437-1.53028,1.97808-2.35472,2.91483-.49531.56278-.968,1.14181-1.43337,1.72647-.458.57544-.82878,1.22355-1.31092,1.776C9.459,125.942,8.77232,127.451,7.74142,128.72239c-.02942.03626-.02012.104-.02887.157.06767-.012.16208.0006.19894-.03961.41305-.45065.82762-.9007,1.221-1.36841.40192-.478.75615-.99764,1.17481-1.45957.813-.897,1.65206-1.77065,2.48835-2.6463,1.23036-1.28824,2.43395-2.60476,3.71393-3.842.86744-.83848,1.83839-1.5715,2.77854-2.33255.57448-.465,1.1721-.90238,1.77057-1.33666.709-.51444,1.41414-1.03685,2.14976-1.51115.98207-.63318,2.04169-1.15583,2.97861-1.84712,1.59532-1.17708,3.33947-2.1175,4.961-3.25049.86157-.602,1.78562-1.11466,2.68336-1.66456a1.05674,1.05674,0,0,1,.211-.07472c.0018.09927.04617.2421-.00254.28967a3.03588,3.03588,0,0,1-.50894.37992c-.93113.58691-1.86855,1.16384-2.79847,1.75263-1.9217,1.21671-3.85163,2.421-5.75481,3.66613-.93272.61022-1.79291,1.331-2.72271,1.94613-1.03748.68639-1.99588,1.47063-2.97634,2.22989a8.46666,8.46666,0,0,0-1.909,1.73078,12.26336,12.26336,0,0,1-1.39549,1.29339c-1.0727,1.09282-2.12345,2.20733-3.17658,3.31919-.675.71271-1.33826,1.43665-2.00777,2.15461a2.88269,2.88269,0,0,0-.25947.26931c-.03244.04563-.00812.13163-.00956.19931a.52143.52143,0,0,0,.15741-.05985c.35042-.29395.70862-.58024,1.04117-.89355.43338-.40833.82637-.86071,1.27037-1.25639q1.74649-1.55638,3.525-3.07676,1.21062-1.03338,2.46519-2.015c1.034-.81013,2.07668-1.61032,3.13717-2.38529.9734-.71134,1.95764-1.411,2.96923-2.06618,1.37486-.89047,2.78125-1.73219,4.17229-2.59776.99429-.61868,1.973-1.26353,2.98233-1.85652.74257-.43628,1.53324-.78247,2.24507-1.28328.68669-.48311,1.43314-.88077,2.1489-1.32316,1.553-.95988,3.107-1.918,4.653-2.88906,1.15244-.72383,2.29409-1.46487,3.43838-2.20163,1.26352-.81352,2.54228-1.605,3.78182-2.45369,1.29217-.88473,2.54222-1.83079,3.81659-2.74175,1.52266-1.08843,3.05972-2.15689,4.57383-3.257.60376-.43867,1.1608-.94135,1.74275-1.41037.749-.60362,1.52451-1.1765,2.2475-1.80956C62.09961,90.1,63.40661,89.15591,64.536,87.99423c1.29635-1.33335,2.69939-2.56268,4.00276-3.8896,1.20317-1.2249,2.338-2.51713,3.49822-3.784.37915-.414.75917-.82883,1.11151-1.26531a27.94918,27.94918,0,0,0,1.875-2.2934c.41739-.64517,1.00192-1.17951,1.46374-1.79919.95708-1.28423,1.9907-2.5075,2.95107-3.79117q1.92552-2.57374,3.77979-5.19679c.46872-.663.81131-1.41378,1.23692-2.10893.38041-.62131.81352-1.21043,1.19193-1.83288.60641-.99751,1.10717-2.05164,1.785-3.0154a20.61664,20.61664,0,0,0,1.65638-2.90924c.6521-1.35132,1.22556-2.74137,1.80881-4.1249.42164-1.0002.83733-2.00523,1.19617-3.029q.72408-2.06569,1.35034-4.16528c.27521-.91573.48413-1.852.70426-2.7834a9.89568,9.89568,0,0,0,.1994-1.19189c.06631-.60249.10037-1.20846.1558-1.81225.03045-.33174-.07825-.668.12963-.9998.07909-.12622-.07031-.38439-.08762-.58484-.027-.3129-.03561-.62775-.04208-.942-.00667-.32486-.00281-.65-.00121-.975a18.45471,18.45471,0,0,0-.27338-2.12871,13.89824,13.89824,0,0,0-.33065-1.97178c-.21032-.81048-.40315-1.62984-.68369-2.41679-.48858-1.37056-.96266-2.75507-1.58253-4.06776-.72094-1.52671-1.3235-3.10479-2.18831-4.5762-.62226-1.05876-1.12457-2.196-1.84532-3.20318-.51331-.71733-1.06175-1.40942-1.58473-2.12q-1.0138-1.37738-2.01149-2.76661c-.62388-.86543-1.235-1.74011-1.863-2.60251-.57491-.7895-1.14782-1.58154-1.75335-2.34737Q79.57314,6.272,78.689,5.30213c-.86687-.94941-1.73165-1.90481-2.65795-2.79451A7.2604,7.2604,0,0,0,73.76827.92353c-.67954-.2759-.58708-.2168-.78723.4953-.1632.58059.17541.81885.3994,1.08482a13.49382,13.49382,0,0,1,2.08722,3.64282A22.70671,22.70671,0,0,1,76.326,8.9399c.09848.36539.11126.75314.17583,1.12851a18.899,18.899,0,0,1,.1419,3.538q-.02823,1.69472-.154,3.38718a13.04607,13.04607,0,0,1-.28781,1.4518,12.54247,12.54247,0,0,0-.28875,1.67611,12.00722,12.00722,0,0,1-.66918,2.80559c-.56288,1.88136-1.2697,3.72036-1.9427,5.56754a10.67082,10.67082,0,0,1-.6287,1.23913,14.756,14.756,0,0,0-.99034,2.36655,10.76889,10.76889,0,0,1-.72759,1.34723c-.416.85149-.7744,1.73205-1.21033,2.57273a65.00982,65.00982,0,0,1-4.27386,7.383c-.77653,1.11242-1.43962,2.30345-2.17606,3.4447-.30918.47911-.67518.92155-1.0155,1.38055-.60977.82244-1.21615,1.64743-1.83065,2.46633-.44482.59276-.89827,1.1791-1.35181,1.76524-.52789.68222-1.061,1.36036-1.59014,2.04165q-.77082.99252-1.538,1.9879c-.65727.85244-1.31021,1.70822-1.97184,2.55725a4.66408,4.66408,0,0,1-.41517.42875A23.87274,23.87274,0,0,0,50.813,62.826a24.33324,24.33324,0,0,1-1.58129,1.89754q-1.47807,1.71581-2.96948,3.42012c-.41847.47931-.837.95932-1.27391,1.42165C43.91637,70.69971,42.774,71.77363,41.77,72.96467c-1.35578,1.60841-2.84141,3.08554-4.30413,4.58931-.5748.591-1.07,1.25854-1.62164,1.8731-.39567.4408-.83318.84375-1.23763,1.277q-1.93733,2.07538-3.863,4.1616c-.49981.54051-1.0014,1.08-1.48338,1.63621-.87439,1.0091-1.6719,2.09493-2.62454,3.02234-.569.55388-1.02686,1.18316-1.54909,1.76438-.70858.78865-1.34508,1.64162-2.02724,2.45464-.40879.48724-.85491.943-1.26795,1.42686-.80222.93975-1.58819,1.89338-2.39041,2.83312-.413.48385-.82883.96766-1.27482,1.42052a19.73746,19.73746,0,0,0-1.85289,2.45957c-.65067.90651-1.3253,1.79637-1.957,2.71582q-1.25964,1.83339-2.46694,3.70264c-1.04647,1.61367-2.08921,3.23031-3.09935,4.8668-.63559,1.0297-1.22317,2.09006-1.80555,3.15133-.63609,1.15918-1.2762,2.31843-1.85148,3.50815-.77433,1.60137-1.48783,3.22921-2.11889,4.89749-.42554,1.125-.89637,2.23392-1.22235,3.3918-.27236.96747-.46717,1.95653-.70821,2.93312a13.50163,13.50163,0,0,0-.02566,2.48528c-.00382.32257-.24623.36149-.51517.36584-.36736.006-.49641-.77015-.5013-.92774A12.32639,12.32639,0,0,1,.262,131.067a28.89649,28.89649,0,0,1,.80119-3.42866A20.38034,20.38034,0,0,1,1.935,125.2273c.54493-1.399,1.01993-2.83473,1.68712-4.1739.578-1.16012,1.08984-2.35257,1.71807-3.49583.87671-1.59546,1.85527-3.12548,2.76318-4.699.66639-1.15492,1.379-2.28464,2.10621-3.40268q1.77075-2.72243,3.5922-5.41172c.82613-1.21505,1.67275-2.41856,2.564-3.5862.73382-.9614,1.55365-1.85673,2.32259-2.79184.85668-1.04182,1.68981-2.10307,2.55121-3.14091.43793-.52761.92961-1.01044,1.37178-1.53475.68417-.81129,1.34541-1.64187,2.02-2.46123.09491-.11527.214-.21023.31614-.32,1.3266-1.42509,2.65923-2.84468,3.97536-4.27939.8096-.88254,1.6299-1.7593,2.38112-2.69049,1.35333-1.67753,2.91223-3.15579,4.40452-4.7003,1.561-1.61566,3.13292-3.226,4.60328-4.9225,1.27542-1.47159,2.638-2.85314,3.97424-4.26407.86537-.91373,1.63406-1.91882,2.45126-2.87855.1454-.17076.31569-.32042.47544-.47887a26.19057,26.19057,0,0,0,2.499-2.93771c.35011-.46793.78265-.87324,1.15761-1.32375.663-.7966,1.3043-1.61133,1.96664-2.40854.57412-.691,1.18182-1.35464,1.74429-2.05478q1.37379-1.71008,2.7058-3.45366c.58005-.75464,1.133-1.53009,1.7-2.2948.86522-1.16692,1.74456-2.32361,2.59437-3.50164.691-.95787,1.3717-1.92494,2.01366-2.916,1.07015-1.65205,2.10888-3.3245,3.1545-4.99234a26.07429,26.07429,0,0,0,1.53-2.96539c.456-.98876,1.035-1.92,1.52031-2.89626a29.69206,29.69206,0,0,0,1.9196-4.305,2.48491,2.48491,0,0,1,.316-.61776,22.343,22.343,0,0,0,1.31292-3.05711,9.83592,9.83592,0,0,0,.44859-1.08868c.39384-1.1878.79693-2.37378,1.14072-3.57639a18.574,18.574,0,0,0,.3625-1.951c.117-.67766.2016-1.36194.34584-2.03356a8.41724,8.41724,0,0,0,.26246-1.5425c.02232-.805.13573-1.609.13192-2.413a20.66552,20.66552,0,0,0-.15893-3.00988,17.05377,17.05377,0,0,0-.88934-3.97646,11.20018,11.20018,0,0,0-2.50578-4.13633c-.28753-.26839-.49587-.51457-.21077-.93942.10447-.15568.02154-.43653.02565-.66025a.886.886,0,0,1,1.118-.90816A5.87508,5.87508,0,0,1,75.41932.9893a16.29659,16.29659,0,0,1,1.99027,1.701c.81391.8592,1.53284,1.80828,2.2941,2.71747.52881.63159,1.0866,1.24092,1.585,1.89557.922,1.21117,1.81173,2.447,2.7115,3.67509.463.63195.95462,1.24669,1.37023,1.90879.88938,1.41694,2.0151,2.65508,2.97383,4.01759a27.7523,27.7523,0,0,1,2.03168,3.50627A73.03569,73.03569,0,0,1,93.317,27.21955a23.40928,23.40928,0,0,1,.91487,2.47022c.1993.769.392,1.54012.56719,2.31492a16.70237,16.70237,0,0,1,.46236,4.16328c-.01261.45254.2277.94749.1117,1.35446a14.291,14.291,0,0,0-.22515,2.5885,45.221,45.221,0,0,1-.95935,4.71982,16.32285,16.32285,0,0,1-.64374,1.98083c-.21986.63327-.50414,1.24793-.67619,1.89314a25.19089,25.19089,0,0,1-1.06719,2.70957c-.55041,1.397-1.06163,2.8112-1.66464,4.18512a22.14287,22.14287,0,0,1-1.31365,2.38047c-.728,1.2229-1.52466,2.40183-2.18436,3.66943-.549,1.055-1.21752,2.04834-1.8437,3.06245-.45578.73814-.898,1.48763-1.40127,2.19284-.81673,1.14449-1.68421,2.25263-2.51881,3.38455-.4211.57111-.80454,1.1701-1.22788,1.73947-.44344.59639-.90869,1.17691-1.37463,1.75614-.48433.60207-.9897,1.18731-1.46961,1.7928-.47476.599-.9114,1.2288-1.39658,1.81894q-1.22439,1.48926-2.49163,2.94316-.79713.91857-1.64328,1.79441c-1.70823,1.771-3.40407,3.555-5.1503,5.28793-1.07957,1.07137-2.21339,2.0932-3.37607,3.0742-1.02184.86216-2.12949,1.62175-3.17682,2.45481-.7222.57445-1.38731,1.221-2.1128,1.79087-.65069.51117-1.3477.96356-2.02656,1.43862q-2.23819,1.56627-4.47846,3.12958c-1.00823.7055-1.97183,1.48752-3.03276,2.1016-1.22143.707-2.28231,1.63809-3.53916,2.30383-1.304.69072-2.47286,1.63272-3.7235,2.42923-.96389.61392-1.96683,1.1662-2.94485,1.75838-.68135.41255-1.34484.85457-2.02543,1.26841-.85738.52133-1.72975,1.01809-2.58485,1.543-.64027.39306-1.25588.82629-1.89617,1.21928-.83517.5126-1.69193.99013-2.52492,1.50611-1.35468.83912-2.71035,1.67783-4.041,2.55411-.87124.57377-1.70461,1.206-2.54494,1.82551q-1.78374,1.31508-3.5517,2.65151c-.479.36091-.96045.72168-1.41106,1.11643-.66626.58368-1.26625,1.24922-1.96536,1.78786a42.17169,42.17169,0,0,0-3.95057,3.67043c-1.28917,1.2857-2.63717,2.51943-3.8449,3.87772-1.16055,1.30524-2.18162,2.73535-3.24863,4.12238-.34455.44793-.629.94181-.9668,1.39539-.084.11286-.26867.15078-.40706.22315-.067-.14725-.19886-.29916-.1887-.44087.02928-.409-.17352-.19708-.308-.13139-.10512.05134-.18478.1694-.29189.19855-.14419.03923-.36914.08935-.44521.01612a2.83566,2.83566,0,0,1-.73189-.88909,5.23052,5.23052,0,0,1-.26911-1.458.5242.5242,0,0,1,.314-.40326c.37989-.07615.35863-.32159.37413-.60142a3.332,3.332,0,0,1,.70135-1.89133,9.05945,9.05945,0,0,0,.93977-1.92736c.51607-1.211,1.01028-2.43153,1.50262-3.6525.311-.77129.55474-1.57341.91407-2.3206.45247-.9409.96353-1.857,1.501-2.75278.77128-1.2855,1.57964-2.54915,2.39094-3.81006.47225-.734.98484-1.442,1.4722-2.16637.31472-.46781.61828-.94317.9237-1.41718.20308-.31517.3964-.63667.6013-.95063,1.34875-2.06664,2.68735-4.14006,4.05424-6.19465.78573-1.181,1.61078-2.33621,2.4326-3.49273.52394-.73731,1.0681-1.46066,1.6215-2.1761.06432-.08314.24569-.07575.3728-.11032a2.86936,2.86936,0,0,1-.12886.26448c-.91023,1.47717-2.01247,2.81746-3.01047,4.23151-.783,1.10937-1.45839,2.29421-2.1944,3.43728-.62389.96892-1.2744,1.9207-1.89855,2.88946-1.32161,2.05127-2.63042,4.11079-3.951,6.16275-.763,1.18556-1.578,2.33972-2.29421,3.5525a22.92512,22.92512,0,0,0-1.151,2.44584c-.3444.78187-.6579,1.57737-.98436,2.36715-.42351,1.02457-.84811,2.04871-1.26446,3.0762-.02075.0512.03244.13239.0512.19961a.68475.68475,0,0,0,.15627-.12364,1.18741,1.18741,0,0,0,.20963-.36145,12.977,12.977,0,0,1,1.2384-2.71171,46.19531,46.19531,0,0,1,3.43241-5.85481,38.32751,38.32751,0,0,1,2.4686-3.46381c.88745-.99625,1.55024-2.14968,2.45315-3.128.71512-.77482,1.326-1.64567,1.98913-2.469a.46292.46292,0,0,1,.24979-.162c.11126-.02031.28051-.02256.09829.17348-.11.11833-.1692.28228-.27094.41-.82417,1.03486-1.66953,2.0533-2.47528,3.10221-.665.86565-1.28636,1.76486-1.92416,2.6513-.76188,1.05887-1.54217,2.10534-2.27578,3.18352a34.698,34.698,0,0,0-2.9204,5.164c-.44923.98863-.87548,1.98779-1.33061,2.97362-.28133.60939-.66146,1.1801-.88323,1.80842a29.15506,29.15506,0,0,1-1.23078,2.86633c-.05565.11637-.06177.2564-.12834.423a.416.416,0,0,0-.04849.17652l.086-.139M5.771,130.53807a.28354.28354,0,0,1-.15.15,3.97226,3.97226,0,0,1-.45.75c-.82487.81237-1.26321,1.91966-2.14819,2.71036a3.30474,3.30474,0,0,1-1.31606.87607c-.26178.06871-.20054.09573-.07111.23655.07548.08213.08952.22238.16742.30024.12574.12573.30433.14168.2821-.08777-.03565-.368.07473-.4841.44487-.44263.41379.04639.56546-.31747.76433-.58293.35573-.47482.73246-.93784,1.04389-1.44078a6.27667,6.27667,0,0,0,.98276-1.56911,3.97332,3.97332,0,0,1,.45-.75.28354.28354,0,0,1,.15-.15l.011-.139a.30531.30531,0,0,1-.161.139m.45-.6a1.569,1.569,0,0,1,.3-.45,1.56931,1.56931,0,0,1,.3-.45c.125-.14741.26247-.28614.37278-.44382.39078-.5586.7522-1.13877,1.16134-1.68329.97265-1.29452,1.96678-2.57294,2.94873-3.8605.02805-.03679.01673-.10363.02377-.15644-.06747.01324-.162.00262-.19806.04354-.25453.28916-.51241.57757-.7408.88719Q8.7444,126.054,7.11986,128.298c-.15971.22132-.25089.49209-.4488.74a1.56911,1.56911,0,0,1-.3.45,1.56919,1.56919,0,0,1-.3.45l-.011.139a.30535.30535,0,0,1,.161-.139m-3.3002.90006a2.66085,2.66085,0,0,0,.15415-.309,1.1638,1.1638,0,0,0,.03322-.2537c-.08746.06321-.21666.10913-.25181.194-.04395.10615-.01057.24431-.08557.36867l-.011.439c.02866-.12271.05811-.24523.08528-.36827.005-.02254.00071-.04713.07572-.07077m-1.72511,2.92518a.28386.28386,0,0,0,.00087.07385c.04948.17684.07953.49121.15646.50333a1.98561,1.98561,0,0,0,.70208-.09664c.02259-.005.01953-.12577.02838-.19279C1.7764,134.01119,1.64323,133.58162,1.19573,133.76327Z"/></g></g></svg>