<svg xmlns="http://www.w3.org/2000/svg" viewBox="0 0 92.00918 145.32942"><title>sash-2-front</title><g id="Layer_2" data-name="Layer 2"><g id="sash-2-front"><path id="void" d="M91.877,68.68773a4.12264,4.12264,0,0,1-.1-1.59,23.54948,23.54948,0,0,0-.17005-3.65c-.20007-.87-.14-1.81995-.39-2.67a28.7368,28.7368,0,0,1-.49-3.16c-.18994-1-.18994-2.04-.39-3.04-.28992-1.49-.7-2.95-1.03992-4.43-.31005-1.32995-.57006-2.66-.90014-3.98-.32984-1.36-.68994-2.72-1.07984-4.06-.68-2.32-1.40014-4.62-2.10009-6.93-.72-2.36-1.73-4.6-2.64991-6.87-.45007-1.12-.84008-2.26-1.26-3.38-.45007-1.2-.94006-2.39-1.35009-3.61a18.65087,18.65087,0,0,0-1.48-3.01,17.508,17.508,0,0,0-2.87-3.87c-.44006-.43-.91-.85-1.30994-1.32-.94006-1.08-1.8-2.23-2.77-3.27a44.19993,44.19993,0,0,0-4.76-4.3,30.34412,30.34412,0,0,0-4.56006-2.91c-1.09-.58-2.22-1.09-3.27-1.73a5.55706,5.55706,0,0,0-1.54-.77c-.74-.17-1.49-.31994-2.04993.44a.54292.54292,0,0,0-.12.63,15.88906,15.88906,0,0,1,.4,2.5c.02991.16.1.31.14.47a11.78086,11.78086,0,0,1,.37988,1.53c.15014,1.03.2301,2.08.37012,3.12.06005.47.24.91.31994,1.38.14.83.29,1.66.37,2.5.07007.73.27,1.44.33008,2.15.05993.86.29992,1.67.38989,2.51.07007.66.1001,1.31.18005,1.97.16,1.22.36,2.45.53,3.67005a13.56633,13.56633,0,0,0,.19006,1.7,9.657,9.657,0,0,1,.35987,2.07,11.85817,11.85817,0,0,0,.28,1.65c.14.8.3,1.6.4,2.4a13.35756,13.35756,0,0,0,.21008,2.13,28.95784,28.95784,0,0,0,1.17994,4.03,3.11018,3.11018,0,0,0,1.94995,1.88,12.84847,12.84847,0,0,1,2.81006,1.11,17.35144,17.35144,0,0,1,3.95,2.87,6.41285,6.41285,0,0,1,.98,1.44c.55,1.04.55,2.24,1.13012,3.26a.90566.90566,0,0,1-.1101,1.12c-.1399.13-.13.41-.22.61-.53,1.16-1.02,2.36-1.62,3.49-.91,1.69-1.94006,3.32-2.86,5.02a49.15514,49.15514,0,0,1-2.84009,4.58,33.82524,33.82524,0,0,1-2.03992,2.8c-.91,1.05-1.65,2.27-2.53,3.36-.96008,1.21-1.97,2.39-3.01,3.54-1.55993,1.73-3.14,3.44-4.76,5.12-1.7,1.76-3.45,3.46-5.18005,5.19-1.55994,1.57-3.13989,3.11-4.84986,4.52-1.32006,1.09-2.55,2.29-3.81,3.44-1.41993,1.29-2.83008,2.59-4.24,3.88-.58008.53-1.15,1.07-1.75,1.56-1.55005,1.3-3.11011,2.57-4.54,4.02q-1.83,1.86-3.68994,3.69c-.67.65-1.36011,1.26-2.06006,1.88-.95.84-1.91993,1.65-2.85,2.52-.52.49-.95007,1.08-1.45007,1.6-1.30994,1.38-2.63989,2.74-3.93994,4.13-.93994,1.02-1.83008,2.09-2.76,3.11a42.67236,42.67236,0,0,0-3.69995,4.76c-.95,1.39-1.73,2.88-2.58008,4.33a31.38769,31.38769,0,0,0-2.30994,5.16,54.60091,54.60091,0,0,0-2.12,6.24.40314.40314,0,0,0,.01.15.75629.75629,0,0,0-.11011.6c.02.16-.09986.32-.09986.49a10.45635,10.45635,0,0,0,.02,2.24,11.43032,11.43032,0,0,0,1.64991,4.01c.4.6.63.74,1.28.53a10.83736,10.83736,0,0,0,3.74-2.32c.55-.47,1.05-.99,1.59-1.47.53-.48,1.1-.92,1.63-1.4,1.32007-1.18,2.62-2.38,3.92993-3.57.43017-.38.8501-.78,1.31006-1.12,1.3-.98,2.58008-1.99,3.95-2.87,1.53-.98,3.11011-1.89,4.72009-2.73,1.93-1,3.93-1.9,5.9-2.85a5.03037,5.03037,0,0,1,.93994-.5,16.68761,16.68761,0,0,0,2.77-1.02c.82006-.31,1.62-.65,2.43994-.96,1.89013-.71,3.79-1.4,5.61011-2.28,1.05993-.5,2.2-.82995,3.28-1.26,1.56995-.62994,3.17994-1.17,4.7-1.94a23.95055,23.95055,0,0,1,2.66992-1.24,45.01595,45.01595,0,0,0,4.96-2.36c1.61011-.83,3.1001-1.9,4.70007-2.78,1.55994-.85,3.01-1.86005,4.4801-2.84a31.63093,31.63093,0,0,0,3.49-2.74c1.17994-1.06,2.5-1.97,3.68995-3.03,1.36-1.2,2.6499-2.48,3.93994-3.75.60009-.59,1.13012-1.25,1.7-1.87.79-.85,1.56006-1.72,2.38013-2.55a26.50278,26.50278,0,0,0,3.05993-3.96c.87-1.29,1.75-2.56994,2.49011-3.93.83985-1.54,1.52991-3.15,2.27991-4.73a19.50757,19.50757,0,0,0,1.34-4.49c.18-.91.24-1.85.37011-2.77a7.43905,7.43905,0,0,1,.25-1.58,18.71628,18.71628,0,0,0,.61988-3.99A3.37791,3.37791,0,0,0,91.877,68.68773Zm-90.66,68.73-.09.15a.4364.4364,0,0,1-.11.27c.03-.09.06994-.18.11-.27a.5905.5905,0,0,0,.01-.23.79341.79341,0,0,1,.03992-.21C1.20692,137.23772,1.257,137.35771,1.21693,137.41771Z" style="fill:#fff"/><path id="fill2" d="M91.877,68.68773a4.12264,4.12264,0,0,1-.1-1.59,23.54948,23.54948,0,0,0-.17005-3.65c-.20007-.87-.14-1.81995-.39-2.67a28.7368,28.7368,0,0,1-.49-3.16c-.18994-1-.18994-2.04-.39-3.04-.28992-1.49-.7-2.95-1.03992-4.43-.31005-1.32995-.57006-2.66-.90014-3.98-.32984-1.36-.68994-2.72-1.07984-4.06-.68-2.32-1.40014-4.62-2.10009-6.93-.72-2.36-1.73-4.6-2.64991-6.87-.45007-1.12-.84008-2.26-1.26-3.38-.45007-1.2-.94006-2.39-1.35009-3.61a18.65087,18.65087,0,0,0-1.48-3.01,17.508,17.508,0,0,0-2.87-3.87c-.44006-.43-.91-.85-1.30994-1.32-.94006-1.08-1.8-2.23-2.77-3.27a44.19993,44.19993,0,0,0-4.76-4.3,30.34412,30.34412,0,0,0-4.56006-2.91c-1.09-.58-2.22-1.09-3.27-1.73a5.55706,5.55706,0,0,0-1.54-.77c-.74-.17-1.49-.31994-2.04993.44a.54292.54292,0,0,0-.12.63,15.88906,15.88906,0,0,1,.4,2.5c.02991.16.1.31.14.47a11.78086,11.78086,0,0,1,.37988,1.53c.15014,1.03.2301,2.08.37012,3.12.06005.47.24.91.31994,1.38.14.83.29,1.66.37,2.5.07007.73.27,1.44.33008,2.15.05993.86.29992,1.67.38989,2.51.07007.66.1001,1.31.18005,1.97.16,1.22.36,2.45.53,3.67005a13.56633,13.56633,0,0,0,.19006,1.7,9.657,9.657,0,0,1,.35987,2.07,11.85817,11.85817,0,0,0,.28,1.65c.14.8.3,1.6.4,2.4a13.35756,13.35756,0,0,0,.21008,2.13,28.95784,28.95784,0,0,0,1.17994,4.03,3.11018,3.11018,0,0,0,1.94995,1.88,12.84847,12.84847,0,0,1,2.81006,1.11,17.35144,17.35144,0,0,1,3.95,2.87,6.41285,6.41285,0,0,1,.98,1.44c.55,1.04.55,2.24,1.13012,3.26a.90566.90566,0,0,1-.1101,1.12c-.1399.13-.13.41-.22.61-.53,1.16-1.02,2.36-1.62,3.49-.91,1.69-1.94006,3.32-2.86,5.02a49.15514,49.15514,0,0,1-2.84009,4.58,33.82524,33.82524,0,0,1-2.03992,2.8c-.91,1.05-1.65,2.27-2.53,3.36-.96008,1.21-1.97,2.39-3.01,3.54-1.55993,1.73-3.14,3.44-4.76,5.12-1.7,1.76-3.45,3.46-5.18005,5.19-1.55994,1.57-3.13989,3.11-4.84986,4.52-1.32006,1.09-2.55,2.29-3.81,3.44-1.41993,1.29-2.83008,2.59-4.24,3.88-.58008.53-1.15,1.07-1.75,1.56-1.55005,1.3-3.11011,2.57-4.54,4.02q-1.83,1.86-3.68994,3.69c-.67.65-1.36011,1.26-2.06006,1.88-.95.84-1.91993,1.65-2.85,2.52-.52.49-.95007,1.08-1.45007,1.6-1.30994,1.38-2.63989,2.74-3.93994,4.13-.93994,1.02-1.83008,2.09-2.76,3.11a42.67236,42.67236,0,0,0-3.69995,4.76c-.95,1.39-1.73,2.88-2.58008,4.33a31.38769,31.38769,0,0,0-2.30994,5.16,54.60091,54.60091,0,0,0-2.12,6.24.40314.40314,0,0,0,.01.15.75629.75629,0,0,0-.11011.6c.02.16-.09986.32-.09986.49a10.45635,10.45635,0,0,0,.02,2.24,11.43032,11.43032,0,0,0,1.64991,4.01c.4.6.63.74,1.28.53a10.83736,10.83736,0,0,0,3.74-2.32c.55-.47,1.05-.99,1.59-1.47.53-.48,1.1-.92,1.63-1.4,1.32007-1.18,2.62-2.38,3.92993-3.57.43017-.38.8501-.78,1.31006-1.12,1.3-.98,2.58008-1.99,3.95-2.87,1.53-.98,3.11011-1.89,4.72009-2.73,1.93-1,3.93-1.9,5.9-2.85a5.03037,5.03037,0,0,1,.93994-.5,16.68761,16.68761,0,0,0,2.77-1.02c.82006-.31,1.62-.65,2.43994-.96,1.89013-.71,3.79-1.4,5.61011-2.28,1.05993-.5,2.2-.82995,3.28-1.26,1.56995-.62994,3.17994-1.17,4.7-1.94a23.95055,23.95055,0,0,1,2.66992-1.24,45.01595,45.01595,0,0,0,4.96-2.36c1.61011-.83,3.1001-1.9,4.70007-2.78,1.55994-.85,3.01-1.86005,4.4801-2.84a31.63093,31.63093,0,0,0,3.49-2.74c1.17994-1.06,2.5-1.97,3.68995-3.03,1.36-1.2,2.6499-2.48,3.93994-3.75.60009-.59,1.13012-1.25,1.7-1.87.79-.85,1.56006-1.72,2.38013-2.55a26.50278,26.50278,0,0,0,3.05993-3.96c.87-1.29,1.75-2.56994,2.49011-3.93.83985-1.54,1.52991-3.15,2.27991-4.73a19.50757,19.50757,0,0,0,1.34-4.49c.18-.91.24-1.85.37011-2.77a7.43905,7.43905,0,0,1,.25-1.58,18.71628,18.71628,0,0,0,.61988-3.99A3.37791,3.37791,0,0,0,91.877,68.68773Zm-90.66,68.73-.09.15a.4364.4364,0,0,1-.11.27c.03-.09.06994-.18.11-.27a.5905.5905,0,0,0,.01-.23.79341.79341,0,0,1,.03992-.21C1.20692,137.23772,1.257,137.35771,1.21693,137.41771Z" style="fill:#ff836a"/><path id="fill1" d="M5.12439,137.89718c.55152-.87638,1.09238-1.75972,1.65751-2.62724.59243-.90939,1.19134-1.81547,1.81742-2.7018,1.05114-1.48807,2.03338-3.039,3.21682-4.41543a52.14111,52.14111,0,0,1,3.59561-4.19952c1.05368-.99193,1.94721-2.15534,3.01118-3.1347a41.41466,41.41466,0,0,1,3.88959-3.41274c.88451-.63081,1.64635-1.43076,2.50042-2.10788.85764-.68,1.74777-1.32146,2.64826-1.94425,1.23541-.85439,2.47526-1.70527,3.74908-2.50015.88311-.55109,1.81321-1.03428,2.719-1.546,1.43564-.81112,2.92152-1.50763,4.396-2.23295.072-.03541.14993-.349.27772-.05284.01795.04157-.0939.1749-.17194.21691-1.44832.77917-2.92114,1.51531-4.34574,2.3353-1.17549.67658-2.30019,1.44239-3.43747,2.18391-.90916.59277-1.81589,1.19082-2.70108,1.81843-1.12268.796-2.248,1.592-3.32525,2.44719-1.18861.94359-2.36521,1.91-3.47345,2.94534-1.92938,1.80238-3.8827,3.59092-5.67157,5.5279a37.23316,37.23316,0,0,0-3.55,4.3587c-1.21,1.78927-2.536,3.5-3.80275,5.25124a7.045,7.045,0,0,0-.49865.85611c-.03046.05782.017.15669.02858.23663a.65406.65406,0,0,0,.18541-.11009q1.22662-1.48309,2.44641-2.97181c.05605-.06807.12521-.12522.18694-.18874,1.562-1.60743,2.891-3.42909,4.56967-4.93088,1.34766-1.20568,2.6984-2.40467,4.077-3.57693,2.62-2.22786,5.54322-4.01475,8.338-5.98808.1747-.12333.42382-.14552.58909-.27675.166-.13177.26092-.17343.39.018.12353.18327.08834.22731-.11886.36047-1.2414.7976-2.46368,1.626-3.67443,2.4699-1.19533.83312-2.38329,1.67816-3.54949,2.55134A40.95433,40.95433,0,0,0,15.87,127.06042a39.53,39.53,0,0,0-3.064,3.23214c-.399.52743-.86819,1.002-1.30939,1.49721-.51962.58318-1.06762,1.14295-1.56065,1.74768-1.18419,1.45249-2.36254,2.91068-3.502,4.39817a13.28032,13.28032,0,0,0-.94719,1.64189c-.02524.04518-.00632.11507-.0079.17347.061.00026.14768.02708.17924-.00333.34039-.32754.69489-.64453,1.002-1.00186.95122-1.10685,1.844-2.26658,2.83567-3.33512.78666-.8477,1.68558-1.59117,2.53391-2.38172.08637-.08049.168-.16612.25085-.25024a31.82739,31.82739,0,0,1,4.25283-3.40646c1.40549-1.00765,2.85326-1.93854,4.30726-2.86947,1.49085-.95453,2.96934-1.92237,4.51253-2.79509.99015-.56,1.88336-1.28893,2.85774-1.87995.69939-.42419,1.47531-.7116,2.20064-1.10289,2.14376-1.15643,4.33016-2.23351,6.49094-3.35881,1.28893-.67129,2.54166-1.41482,3.84824-2.04836.74125-.35938,1.46752-.7379,2.18738-1.13531a2.62193,2.62193,0,0,1,.712-.201.65464.65464,0,0,1,.24311.04685c-.05913.08353-.09973.20475-.18042.24448-.53889.26525-1.10536.47922-1.62766.77252-2.24968,1.26323-4.63089,2.28438-6.79457,3.70733-.384.25253-.84748.38052-1.25357.60367-2.24228,1.23228-4.49116,2.448-6.67436,3.791-1.55211.95481-3.13742,1.86015-4.64411,2.886-1.6196,1.10269-3.22585,2.22944-4.78462,3.41574-1.38372,1.05307-2.7059,2.18852-4.03366,3.31308-1.03441.87614-2.01042,1.82224-3.05891,2.68041a17.8729,17.8729,0,0,0-2.61665,2.80335c-.06532.08221-.19361.11122-.27412.18513a4.97779,4.97779,0,0,0-.865.83807c-.73964,1.13324-1.41962,2.30524-2.14548,3.44776-.16887.26581-.44718.46-.63812.71487-.07217.09634-.03967.27108-.05487.41008a1.59118,1.59118,0,0,0,.311-.15572c.97411-.78919,1.94908-1.57753,2.91244-2.37975a24.51307,24.51307,0,0,0,2.403-2.08381,28.29708,28.29708,0,0,1,2.34049-2.07277c.96552-.83929,1.92647-1.69685,2.91556-2.5131,1.50667-1.24331,3.25879-2.11264,4.7366-3.38425a9.33035,9.33035,0,0,1,1.8029-.97432c1.23688-.64977,2.50134-1.25277,3.70319-1.96188a42.62642,42.62642,0,0,1,3.99353-1.91557,50.49963,50.49963,0,0,1,4.93772-1.981c1.42206-.47768,2.83427-.99965,4.21084-1.59463,2.78218-1.20245,5.55155-2.42558,8.43756-3.37429,1.05691-.34742,2.03166-.93736,3.06605-1.3628,1.13607-.46721,2.23736-1.01066,3.373-1.48139a33.26588,33.26588,0,0,0,3.48489-1.851c1.05649-.594,2.08335-1.2405,3.1373-1.83915,1.83171-1.04047,3.60154-2.17667,5.33777-3.368A37.339,37.339,0,0,0,68.72773,107c1.33647-1.15909,2.74223-2.23836,4.07664-3.39967.75556-.65755,1.42812-1.41042,2.13806-2.12038,1.52072-1.52072,3.0784-3.00674,4.54911-4.5744a39.313,39.313,0,0,0,2.79338-3.25743c1.24428-1.65538,2.36277-3.39335,3.45272-5.14012A30.65861,30.65861,0,0,0,88.247,83.44084a12.90027,12.90027,0,0,0,.87426-2.11954c.14159-.70157.38048-1.38373.51685-2.086.261-1.3443.56082-2.689.69173-4.04826.11665-1.21132.51652-2.35847.60633-3.58314a14.16289,14.16289,0,0,0,.09433-2.7611c-.165-1.30976-.0116-2.62451-.17808-3.91291a20.15025,20.15025,0,0,0-.46887-2.80427c-.25292-.91794-.22121-1.91026-.39525-2.855-.21418-1.16277-.27751-2.34352-.47039-3.5109-.17355-1.05023-.43952-2.08221-.60609-3.13407-.22443-1.41713-.62234-2.80686-.94756-4.20792-.14376-.61921-.332-1.23114-.42977-1.85734-.20968-1.34278-.767-2.58387-1.087-3.89418-.2539-1.03946-.56868-2.06489-.881-3.089-.3994-1.30954-.82592-2.61075-1.23611-3.917-.2545-.81048-.45475-1.64137-.76123-2.43134-.41415-1.06754-.93761-2.0924-1.35914-3.15737-.73323-1.85242-1.4484-3.7128-2.12624-5.5861a31.94058,31.94058,0,0,0-2.16413-5.38981c-.76033-1.2996-1.72763-2.47852-2.6098-3.70613-.21507-.29927-.45374-.582-.69048-.86481-.03685-.044-.12169-.0479-.18433-.07034a.446.446,0,0,0-.02513.16466,4.34859,4.34859,0,0,0,.225.79185,22.78794,22.78794,0,0,1,1.30649,4.23321,18.4606,18.4606,0,0,1,.63676,3.30539c.07876,1.21823.18808,2.45014.34517,3.66082a36.045,36.045,0,0,1,.09617,5.86527,16.82032,16.82032,0,0,1-.444,3.51264c-.17892.71787-.204,1.4968-.39388,2.23531-.26123,1.01575-.50549,2.03591-.75082,3.05568a14.22271,14.22271,0,0,0-.68524,2.46815c-.01166.19372-.25114.36312-.33345.565-.33985.8338-.68638,1.66649-.98156,2.51657A50.86378,50.86378,0,0,1,70.5,53.3217c-.502.97821-1.10131,1.90612-1.64515,2.86329-.366.644-.69958,1.30654-1.06948,1.94821-.79769,1.38367-1.56575,2.78735-2.42952,4.129-.6686,1.03855-1.46047,1.99817-2.20431,2.9878q-1.37212,1.82558-2.758,3.64079c-.29566.38572-.62338.7469-.937,1.11885-.62748.74422-1.2419,1.5-1.888,2.22774-.40734.45877-.86948.86835-1.29453,1.312-1.1733,1.22459-2.33613,2.45922-3.51033,3.68292-1.58306,1.64972-3.15067,3.31514-4.76632,4.93243C46.4897,83.674,44.96312,85.16825,43.38,86.5972c-1.608,1.45134-3.32154,2.78072-4.856,4.32132-1.09718,1.10157-2.30693,2.09086-3.46332,3.13372-1.24774,1.12528-2.44223,2.31612-3.74814,3.369-2.49149,2.00869-4.64213,4.36506-6.91908,6.59279-1.11822,1.094-2.26668,2.14669-3.46589,3.15687a39.87935,39.87935,0,0,0-3.02019,3.145c-.34593.36357-.71925.70128-1.06166,1.068-1.54937,1.65936-3.126,3.295-4.6283,4.99617a55.01934,55.01934,0,0,0-4.57384,5.9877c-.532.8008-.97,1.66384-1.457,2.495-.51547.8798-1.10822,1.72239-1.54027,2.641a33.21241,33.21241,0,0,0-1.45545,3.64718c-.42469,1.2768-.95628,2.45387-1.291,3.75909-.064.24935-.77608,2.16239-.75843,2.427.01891.28353-.01624.53814-.32239.63028-.19868.05981-.61335-.4669-.56178-.7461a53.112,53.112,0,0,1,2.1225-6.24339,31.56652,31.56652,0,0,1,2.30531-5.16107c.84856-1.45178,1.63157-2.94053,2.58379-4.33127a42.81405,42.81405,0,0,1,3.69476-4.76047c.935-1.022,1.82064-2.08948,2.7642-3.10328,1.29609-1.3926,2.63117-2.74882,3.939-4.13058.4962-.52425.92655-1.1152,1.45143-1.60689.92451-.866,1.90346-1.67364,2.85036-2.51611.69371-.61719,1.39069-1.23252,2.05417-1.88144q1.86825-1.8272,3.698-3.69366c1.42167-1.44155,2.98518-2.72,4.5393-4.01111.60039-.49878,1.16892-1.03629,1.74568-1.563,1.41492-1.29222,2.82384-2.591,4.23963-3.88223,1.26321-1.1521,2.49255-2.34586,3.80885-3.43415,1.70975-1.41356,3.29423-2.95266,4.85565-4.52129,1.72551-1.73354,3.48154-3.43733,5.18087-5.196,1.61827-1.67478,3.19946-3.38658,4.761-5.11464q1.55583-1.72179,3.00484-3.53922c.87582-1.09816,1.61623-2.3086,2.53367-3.36793a33.20985,33.20985,0,0,0,2.03916-2.79875,47.24064,47.24064,0,0,0,2.83727-4.57939c.91648-1.69307,1.94819-3.32394,2.85849-5.0201.6057-1.12858,1.08993-2.32263,1.62064-3.49094.09-.19811.08012-.47864.22041-.60974a.88863.88863,0,0,0,.1088-1.11677c-.58293-1.0216-.57862-2.2242-1.12794-3.26166a6.17882,6.17882,0,0,0-.98425-1.442,17.43529,17.43529,0,0,0-3.94563-2.87007,13.29891,13.29891,0,0,0-2.81235-1.1098A3.09572,3.09572,0,0,1,61.258,36.98863a27.71581,27.71581,0,0,1-1.17745-4.02974,12.63849,12.63849,0,0,1-.21069-2.13207c-.10549-.804-.26324-1.60114-.4026-2.40051a13.67488,13.67488,0,0,1-.28448-1.64844,9.91226,9.91226,0,0,0-.35183-2.07178,14.03725,14.03725,0,0,1-.19733-1.69344c-.16738-1.22726-.36287-2.45074-.5239-3.67877-.0854-.65127-.11691-1.30943-.18334-1.96341-.08546-.84134-.32568-1.6533-.39072-2.50817-.05427-.71307-.25392-1.429-.32666-2.15841-.08353-.8376-.23105-1.66981-.37617-2.49992-.08076-.46175-.25127-.90923-.31482-1.37227-.14274-1.04031-.22205-2.08943-.37139-3.12863a14.3326,14.3326,0,0,0-.37471-1.5257,4.85811,4.85811,0,0,1-.14389-.47074A17.23864,17.23864,0,0,0,55.22875,1.209a.55267.55267,0,0,1,.11719-.63354c.55866-.76266,1.31354-.603,2.04758-.4369a5.35858,5.35858,0,0,1,1.5444.76815c1.05206.63693,2.18017,1.14693,3.26524,1.731A30.48454,30.48454,0,0,1,66.7679,5.54816,43.73287,43.73287,0,0,1,71.52362,9.849c.97737,1.04087,1.83658,2.19184,2.773,3.27248.40507.46747.86974.88351,1.31021,1.32A17.08923,17.08923,0,0,1,78.474,18.30488a18.48507,18.48507,0,0,1,1.48649,3.01288c.41095,1.2198.89879,2.40545,1.346,3.60858.41852,1.126.80777,2.26379,1.25874,3.37662.92267,2.2769,1.93577,4.51816,2.6506,6.87512.70012,2.30848,1.41845,4.61161,2.09782,6.92616.3952,1.34636.75087,2.70535,1.08529,4.06824.32334,1.31777.58749,2.64993.8945,3.97186.34368,1.47984.74979,2.94664,1.04545,4.43565.19823.99823.20007,2.0347.38375,3.03681a31.0541,31.0541,0,0,0,.49077,3.15656c.24885.8581.19549,1.79984.39738,2.67658a23.47791,23.47791,0,0,1,.16707,3.65067,4.09572,4.09572,0,0,0,.095,1.58459,3.25,3.25,0,0,1,.06182,1.64875,18.58692,18.58692,0,0,1-.62229,3.98977,7.55565,7.55565,0,0,0-.24818,1.58085c-.12286.92492-.18479,1.86152-.36758,2.77411a19.23367,19.23367,0,0,1-1.34338,4.49055c-.7466,1.581-1.43674,3.19339-2.27337,4.72555C86.338,89.25346,85.454,90.53779,84.587,91.824a26.7944,26.7944,0,0,1-3.05787,3.96471c-.81837.82791-1.59488,1.69739-2.3841,2.55383-.56925.6178-1.10031,1.27349-1.69821,1.86165-1.293,1.272-2.58441,2.54941-3.94,3.75306-1.19017,1.05673-2.51072,1.96733-3.69272,3.03235a31.09222,31.09222,0,0,1-3.48227,2.73532c-1.47038.98685-2.92811,1.99113-4.48681,2.84724-1.59448.87575-3.08573,1.94516-4.70236,2.77322a43.82275,43.82275,0,0,1-4.95386,2.366,23.45917,23.45917,0,0,0-2.67652,1.2346c-1.51133.77636-3.12068,1.308-4.69088,1.93679-1.08935.43628-2.22943.76094-3.2831,1.26793-1.826.87865-3.72124,1.57018-5.61161,2.282-.81706.30762-1.62171.64816-2.43868.956a17.36263,17.36263,0,0,1-2.7698,1.02185,4.44911,4.44911,0,0,0-.94173.49822c-1.96855.95-3.96523,1.84527-5.904,2.85219-1.61011.83622-3.19029,1.74375-4.71558,2.72553-1.36683.8798-2.64788,1.89442-3.95172,2.86969-.45915.34346-.881.73851-1.30725,1.12389-1.312,1.18611-2.61346,2.38395-3.92857,3.56659-.53261.47895-1.09851.92075-1.63357,1.39708-.53994.48066-1.04294,1.00372-1.593,1.47188a10.81308,10.81308,0,0,1-3.731,2.32388c-.65753.20416-.88759.073-1.2813-.53415a11.51835,11.51835,0,0,1-1.65751-4.00518A10.68828,10.68828,0,0,1,.0545,138.4539c.00264-.16208.12111-.33023.09941-.48326-.07766-.54789.14894-.80959.688-.84552a1.18375,1.18375,0,0,0,.30275-.10683c.02717.1364.12388.31481.0708.40273a4.7565,4.7565,0,0,0-.31575,2.87032,10.24137,10.24137,0,0,0,.51,2.08284.2275.2275,0,0,0,.18246.11974.21914.21914,0,0,0,.15911-.1428c.13676-2.014.98514-3.85219,1.42266-5.79114.01261-.05587-.01333-.125.00964-.17328.82182-1.72687,1.617-3.46746,2.48564-5.17058.41342-.81063,1.02867-1.51832,1.442-2.32894a17.71505,17.71505,0,0,1,1.7372-2.64429c1.00424-1.3228,1.82828-2.771,2.96445-4.00615,1.53716-1.671,2.9378-3.46852,4.49134-5.12321,1.10816-1.18032,2.38361-2.20223,3.56013-3.32039.51464-.48914.95046-1.06043,1.45581-1.5603.42874-.4241.90527-.8,1.36366-1.1937.02748-.02357.11188-.032.11812-.02024.025.04722.05857.1279.037.15556a5.58364,5.58364,0,0,1-.39849.45616c-.28843.29613-.58567.58366-.87357.88029a.676.676,0,0,0-.09126.18576,1.09216,1.09216,0,0,0,.16106.03794c.279.02373.69791-.113.75772.21989.03333.1855-.445.225-.68054.33792a4.91663,4.91663,0,0,0-1.30077.91584c-2.14655,2.11286-4.32054,4.20218-6.37516,6.40227a31.061,31.061,0,0,0-2.754,3.5322,64.70363,64.70363,0,0,0-4.46451,7.72973,29.07226,29.07226,0,0,1-1.15551,2.80028c-.04819.07512.015.22168.02642.33507.1044-.06822.26019-.11209.30573-.20819,1.3014-2.7472,3.24884-5.08592,4.85961-7.63665,1.0366-1.64155,2.36455-3.09752,3.538-4.65471,1.1379-1.51,2.37683-2.93047,3.622-4.35227q2.56851-2.933,5.34325-5.66208c.26189-.25707.58464-.45092.86037-.69529.64693-.57341,1.28048-1.16192,1.926-1.73693.05588-.04977.16036-.045.24226-.06548-.02249.07928-.02062.18239-.07125.23415-.53325.54525-1.07487,1.0823-1.61419,1.62164-1.67045,1.67046-3.3727,3.3107-4.99952,5.02265-.98321,1.03467-1.84511,2.18417-2.76945,3.27536-.724.85469-1.48046,1.68273-2.18538,2.55266-.69238.85447-1.34779,1.73959-2.00132,2.62465-.68238.92412-1.37347,1.84421-2.00525,2.80266-.68347,1.03689-1.30144,2.11686-1.95038,3.17657-.75022,1.2251-1.52943,2.4334-2.24592,3.67788a11.43594,11.43594,0,0,0-1.46476,2.86845,3.51122,3.51122,0,0,1-.17719.39869,2.03391,2.03391,0,0,0-.30482.4209c-.005.00886.06588.06069.10147.09253a3.02482,3.02482,0,0,1,.292-.51343,1.15785,1.15785,0,0,0,.13288-.35439M72.9892,13.7737c.26726.56259.53151,1.12665.80576,1.68581.033.06733.12022.10812.18232.1612.025-.07746.09571-.18234.06816-.22821-.34457-.57364-.34611-1.3617-1.05624-1.796a6.08885,6.08885,0,0,0-1.75185-2.45417c-.03783-.03718-.1218-.02741-.18429-.03951-.00433.05714-.03552.1382-.00906.16791a28.23481,28.23481,0,0,0,1.9452,2.503M60.7629,4.91407l.28351.07088.026-.11581a.47607.47607,0,0,1-.30946-.13226,4.94652,4.94652,0,0,0-.78975-.42443A7.344,7.344,0,0,0,57.375,3.58791a1.77547,1.77547,0,0,0-.32016.07283,1.91812,1.91812,0,0,0,.3376.18175c.70208.21555,1.40692.42216,2.112.62787a7.48313,7.48313,0,0,1,1.25847.44371M5.213,133.64456a24.896,24.896,0,0,0-2.03841,5.96719c-.29152,1.2055-.59,2.40934-.88523,3.61393-.04643.18944-.33585.3415-.0402.58332.16514.13508.23141.3893.394.53a.412.412,0,0,0,.40337-.04316c.43825-.63825.85139-1.29416,1.25577-1.95474.05649-.09227.02391-.239.03256-.36061-.15027.04025-.38118.03432-.43567.12945a7.22447,7.22447,0,0,0-.37125.90534,1.41935,1.41935,0,0,1-.11854.19772c-.07805-.05721-.19613-.09852-.22635-.1747-.08-.20148-.23039-.46652-.16149-.62091a15.27551,15.27551,0,0,1,1.4274-3.2103c.21427-.28331.05422-.26577-.13475-.24234-.337.04185-.49381-.06234-.43248-.42317a7.31462,7.31462,0,0,1,.11627-.83786c.2082-.70743.47593-1.39779.67216-2.10814a10.96213,10.96213,0,0,0,.72-1.951l.013-.16422a.36067.36067,0,0,1-.19017.16422M60.31992,13.33072c.94551.70877,1.8419,1.49862,2.84755,2.10817a33.24267,33.24267,0,0,1,4.55226,3.73456,41.62461,41.62461,0,0,1,3.02132,3.16612,32.001,32.001,0,0,1,3.39553,4.25871,19.21758,19.21758,0,0,1,2.04291,3.58528,1.33168,1.33168,0,0,0,.07581.1457c.06264-.05466.15373-.09773.1818-.16649.05157-.12641.13833-.32553.084-.39371-.31684-.398-.14159-.84635-.15572-1.26509-.03086-.91428.05682-1.83635-.02576-2.74416-.11206-1.23169-.36654-2.44992-.50043-3.68038a1.88429,1.88429,0,0,0-.461-1.14572,2.6866,2.6866,0,0,1-.4355-.70214,14.88009,14.88009,0,0,0-3.836-4.96187c-1.08773-.97189-2.21844-1.89669-3.34826-2.82012-.60988-.49844-1.24956-.96189-1.891-1.41979-1.25134-.89322-2.54176-1.73419-3.76362-2.66553a17.60528,17.60528,0,0,0-4.70324-2.553,1.11272,1.11272,0,0,0-.35875-.00482c.02236.13837-.0042.34178.07655.40253a3.06209,3.06209,0,0,0,.72213.38467,14.67215,14.67215,0,0,1,3.26485,1.51874c1.51451,1.08151,2.92176,2.31827,4.46789,3.34909a55.77139,55.77139,0,0,1,4.316,3.66764c.55092.45332.9337,1.10548,1.45946,1.59589a19.20134,19.20134,0,0,1,3.49006,4.40714,8.02236,8.02236,0,0,1,.61849,1.51269,1.52551,1.52551,0,0,1-.05513.58782c-.09556-.15318-.20151-.30091-.28491-.46042-.36784-.70345-.72236-1.41392-1.0942-2.11522-.94627-1.7846-2.56259-3.00649-3.84118-4.51153a28.98557,28.98557,0,0,0-2.91764-2.76728c-.65565-.58312-1.35884-1.116-2.06547-1.63791-1.14913-.84875-2.35178-1.62813-3.47029-2.51445a20.85187,20.85187,0,0,0-3.92575-2.08333.66292.66292,0,0,0-.56744.08545c-.17043.12564.17991,1.0584.39775,1.14181a12.215,12.215,0,0,1,2.05119.81261,42.36613,42.36613,0,0,1,4.03291,2.70192,36.08178,36.08178,0,0,1,3.56557,2.915c.59815.60557,1.2031,1.20444,1.805,1.80631q1.5972,1.59718,3.19457,3.19419a8.62153,8.62153,0,0,1,2.21387,3.07012,19.79689,19.79689,0,0,0,1.22739,2.32552,1.23446,1.23446,0,0,1,.073.30074c-.08352-.04292-.20045-.06381-.24546-.13211a27.43594,27.43594,0,0,1-1.65452-2.59287,8.50905,8.50905,0,0,0-1.603-2.25969c-1.99552-1.97118-3.964-3.96973-5.95958-5.94091a12.83,12.83,0,0,0-1.6318-1.40677c-1.34366-.9396-2.70613-1.85572-4.099-2.72006A27.95951,27.95951,0,0,0,58.0499,9.12719c-.123-.0598-.40275-.03727-.45938.04762a1.23175,1.23175,0,0,0,.59911,1.47889,8.72894,8.72894,0,0,1,2.95548,1.42923,42.16618,42.16618,0,0,1,7.99528,6.3516c.26832.292.48.63871.7623.91466.40719.398.9039.71178,1.27528,1.1375.78491.89976,1.50538,1.85531,2.26706,2.77575a8.69849,8.69849,0,0,1,1.85631,3.30792c.14608.55184.38711,1.07849.583,1.61731a1.67824,1.67824,0,0,1,.0454.18757c-.09422-.03325-.24321-.04-.27416-.10385q-.46394-.95789-.8923-1.93289A9.14418,9.14418,0,0,0,73.37374,23.902c-.75582-.86606-1.49853-1.74362-2.25888-2.60562-.26956-.30559-.58343-.57168-.8612-.87055-.62861-.67637-1.22142-1.38809-1.87644-2.03733-.886-.87817-1.79354-1.73792-2.73654-2.55391A19.91051,19.91051,0,0,0,63.737,14.45091c-.827-.55922-1.65988-1.11231-2.51552-1.62595-.8469-.50837-1.7153-.98476-2.60258-1.41707-.10848-.05284-.38413-.35755-.55328-.05761-.10378.184-.20728.52846-.1171.63184.286.32793.106.677.152,1.0082.071.5116.07545,1.03689.80609,1.06826.16761.0072.32946.1915.49063.29928a31.36477,31.36477,0,0,1,4.644,3.75776,8.81471,8.81471,0,0,0,.87136.85915,30.85559,30.85559,0,0,1,4.87883,5.14709c.69058.81461,1.29073,1.7059,1.9326,2.56185,1.06439,1.41938,2.16751,2.81191,3.177,4.26931a16.76258,16.76258,0,0,1,1.101,2.19652c.03145.06392.07049.12411.106.186.06264-.06263.1558-.115.18118-.19017a2.01111,2.01111,0,0,0,.06612-.41584,6.06733,6.06733,0,0,0-.95717-3.23422A15.17107,15.17107,0,0,0,74.22646,27.589c-.48973-.74518-.97469-1.49634-1.51306-2.20594-.58613-.77256-1.22376-1.50671-1.85248-2.24612-.70468-.82878-1.37993-1.68963-2.15013-2.45371-.79315-.78684-1.70632-1.45116-2.52871-2.21053a23.30972,23.30972,0,0,0-3.04161-2.50057c-.37348-.24312-.73055-.51192-1.10821-.748-.91343-.571-1.82821-1.14061-2.75717-1.68566-.23036-.13517-.53418-.14313-.7697-.27246a.44781.44781,0,0,1-.1685-.4035c.07347-.14445.19209-.34321.47785-.16961a7.32666,7.32666,0,0,0,1.50518.63782m7.08771,17.0105c.77275.83181,1.61576,1.61,2.30121,2.50846.94491,1.23848,1.76352,2.57279,2.64976,3.85669a11.43456,11.43456,0,0,1,2.05374,4.46627.17747.17747,0,0,0,.3421.02563c.18676-.83985.30568-1.69937.55572-2.51913a2.15114,2.15114,0,0,0-.14367-1.84627c-.54892-.97355-.98206-2.01217-1.47269-3.0191-.0488-.10018-.16322-.16619-.23441-.258-.67825-.87436-1.29189-1.7909-2.04678-2.61566-1.03412-1.12982-1.87884-2.43354-2.91814-3.55791a32.39547,32.39547,0,0,0-4.47-4.15257,6.063,6.063,0,0,1-1.16981-1.00817,27.802,27.802,0,0,0-2.754-2.32721A1.75692,1.75692,0,0,0,59.446,19.562c-.06478-.02228-.24959.1002-.26488.17862a4.84544,4.84544,0,0,0-.015.61744,1.177,1.177,0,0,0,.761,1.26875,6.39282,6.39282,0,0,1,.79374.43568,41.39019,41.39019,0,0,1,5.19688,4.33424c1.08448.94494,2.05584,2.02051,3.06667,3.04856.19515.19845.33044.45438.50658.67314.51793.64336,1.016,1.30545,1.57048,1.91606A14.60138,14.60138,0,0,1,73.33413,35.349c.535,1.07386.9897,2.18773,1.47863,3.2845a1.94685,1.94685,0,0,1,.0624.18756c-.07994-.00391-.19558.02449-.23352-.01745a2.94117,2.94117,0,0,1-.40748-.53743c-.25074-.45519-.4681-.92869-.7152-1.386a19.70817,19.70817,0,0,0-1.77554-3.16036c-.38222-.474-.84763-.881-1.22955-1.35523-.834-1.03558-1.63484-2.09781-2.45734-3.14277a8.95117,8.95117,0,0,0-.94488-1.11033c-.78357-.71487-1.61438-1.37761-2.41187-2.07762-.67555-.593-1.30252-1.2446-2.00352-1.80447-.80918-.6463-1.66449-1.23776-2.52915-1.80855-.14047-.09275-.58068-.25688-.62154.12748a2.724,2.724,0,0,0,.18228,1.24187c.06986.17752.44322.23178.67466.35035a12.60718,12.60718,0,0,1,1.30617.69164,16.349,16.349,0,0,1,2.42861,2.2346c1.05294,1.06947,2.12047,2.1246,3.27034,3.27448m-5.67017-9.92278c.51865.51865,1.01627,1.06074,1.56117,1.55018.72346.6498,1.50618,1.2341,2.22324,1.89047,1.16367,1.06512,2.3545,2.11069,3.42259,3.26726,1.05857,1.14625,1.94529,2.44928,2.9693,3.62983a22.67548,22.67548,0,0,1,3.38412,5.157,4.55343,4.55343,0,0,0,.42827.62018c.04174-.21256.0778-.42644.12636-.63744.10534-.45767.398-.964.2882-1.36012a8.49717,8.49717,0,0,0-1.02952-2.31057c-1.17237-1.81575-2.48414-3.53619-3.76379-5.2788-1.22817-1.6725-2.54929-3.26024-3.88124-4.83751a29.88313,29.88313,0,0,0-3.35643-3.35982C62.58821,17.44192,60.95535,16.264,59.363,15.04a1.68881,1.68881,0,0,0-.58972-.27828.35116.35116,0,0,0-.30245.167c-.18056.67317.03219.9517.686,1.2481a8.00211,8.00211,0,0,1,2.67837,1.67025c.78846.83859,1.61213,1.6451,2.43967,2.44574,1.1975,1.15863,2.47261,2.24349,3.60318,3.46313,1.18091,1.274,2.2349,2.66617,3.33357,4.0155.3732.45836.71169.94488,1.06913,1.41618.75008.989,1.52244,1.96182,2.24711,2.969a6.66019,6.66019,0,0,1,1.11245,2.72477,1.23417,1.23417,0,0,1-.07038.40974,1.4609,1.4609,0,0,1-.26973-.39573A6.43878,6.43878,0,0,0,74.052,32.311c-.22242-.26326-.45988-.51446-.67237-.78536A29.82962,29.82962,0,0,0,70.889,28.29562a11.41515,11.41515,0,0,1-1.26507-1.76928,3.85459,3.85459,0,0,0-.25835-.42242c-.72417-.79585-1.44282-1.5977-2.19265-2.369-1.0255-1.05491-2.05484-2.108-3.12414-3.11776-.94229-.88984-1.91449-1.75322-2.92643-2.562a13.79325,13.79325,0,0,0-1.90554-1.16658.43471.43471,0,0,0-.38776.16315,1.80338,1.80338,0,0,0,.84165,1.84681c.68333.43994,1.32079.95115,2.06678,1.52m5.40438-10.543c-.8663-.6891-1.71065-1.40825-2.60364-2.06085a18.76449,18.76449,0,0,0-5.42361-2.9404,14.80614,14.80614,0,0,0-1.96229-.39188.338.338,0,0,0-.27061.1971.37071.37071,0,0,0,.156.31429c.76116.36993,1.53283.71818,2.30186,1.07184a5.97156,5.97156,0,0,1,.81649.378q1.29122.85376,2.55346,1.75107C64.51207,9.481,66.339,10.737,68.09064,12.09c1.33959,1.03473,2.578,2.20038,3.86519,3.3033a1.59973,1.59973,0,0,0,.31095.166,2.09648,2.09648,0,0,0-.16363-.363,14.07868,14.07868,0,0,0-1.32665-1.83555c-1.14131-1.17187-2.35936-2.269-3.63466-3.48522M65.45851,30.34122A30.43128,30.43128,0,0,1,69.727,35.29927a49.04852,49.04852,0,0,1,3.44153,5.21829c.28114.53445.58225,1.05879.88888,1.57915a1.3264,1.3264,0,0,0,.2904.26391,1.46023,1.46023,0,0,0,.04969-.41678,1.574,1.574,0,0,0-.18117-.36545c-.11657-.24668-.22708-.49622-.3413-.744a30.19866,30.19866,0,0,0-1.4966-3.1831,28.81811,28.81811,0,0,0-3.04012-4.32589c-1.19192-1.3249-2.29148-2.73618-3.527-4.0175a43.03464,43.03464,0,0,0-3.22492-2.88752c-.59777-.50622-1.27775-.91427-1.89131-1.40339a.672.672,0,0,0-.7864-.09344c-.14524.07461.07357.84729.2667.98469.0406.02889.12493-.00216.1637.02755.53882.413,1.09387.80811,1.60453,1.25387,1.154,1.00735,2.28559,2.04039,3.51491,3.15157m7.88508,12.84647a5.26545,5.26545,0,0,0-.38134-.90136,37.67006,37.67006,0,0,0-5.30845-6.73152c-.35081-.33434-.758-.60956-1.10819-.94448a25.726,25.726,0,0,0-2.34469-2.16582c-1.01749-.75674-2.01126-1.54538-3.02994-2.30044a1.41738,1.41738,0,0,0-.53511-.1188,4.15141,4.15141,0,0,1,.123.437,1.1409,1.1409,0,0,1,.00154.35265.89028.89028,0,0,0,.54817.95719,22.65435,22.65435,0,0,1,2.0535,1.44663,15.11289,15.11289,0,0,0,1.57079,1.34578,11.56823,11.56823,0,0,1,2.58305,2.0832c.48694.50582,1.02187.96841,1.48027,1.498A19.79412,19.79412,0,0,1,70.67181,40.281c.64148.98836,1.19635,2.03422,1.76278,3.06942.27418.5011.48684,1.03568.73557,1.55115a.2529.2529,0,0,0,.16878.13639.23594.23594,0,0,0,.17676-.1268,1.56328,1.56328,0,0,0-.17211-1.72346M63.77518,29.721c-.68537-.6263-1.35741-1.26814-2.0611-1.87315-.42509-.36548-.89684-.67732-1.35466-1.00337a.25.25,0,0,0-.22986-.01808c-.05261.03892-.09526.19764-.06894.22076.33066.29069.099.66945.17142.99673.10672.48221.13393.99382.74249,1.18845a8.23689,8.23689,0,0,1,2.4547,1.75945,37.53682,37.53682,0,0,1,2.9221,2.56571c1.16834,1.1446,2.24186,2.38558,3.39863,3.54262a29.1632,29.1632,0,0,1,2.73189,3.6608,17.40511,17.40511,0,0,1,1.2134,2.23813c.07758.14838-.1534.47207.21608.43017.06541-.00742.10181-.33017.138-.51a.42237.42237,0,0,0-.00352-.26167c-.32515-.57526-.636-1.16137-1.00249-1.70991q-1.16247-1.73986-2.37823-3.44394-1.22582-1.71471-2.50579-3.39046a21.557,21.557,0,0,0-1.634-1.9764c-.769-.792-1.60966-1.51465-2.4252-2.26088-.0539-.04931-.15647-.04545-.325-.15492M68.205,38.75787c-.82929-.5611-1.662-1.11718-2.487-1.68462-1.00184-.68912-2.29254-.76454-3.259-1.54843-.15373-.12469-.49933-.01283-.75621-.01033a3.21948,3.21948,0,0,0,.28288.71871c.06982.10228.30483.091.46465.13275a5.55981,5.55981,0,0,1,.95343.26031A10.02484,10.02484,0,0,1,66.37,38.86774a6.45652,6.45652,0,0,0,1.1296.88735,18.83936,18.83936,0,0,1,3.15309,2.39668A6.66311,6.66311,0,0,1,72.46422,45.987a2.10971,2.10971,0,0,0,.22755.6111c.01739.0362.1778.053.22618.017a1.50469,1.50469,0,0,0,.11836-1.43169c-.72525-1.174-1.43238-2.35968-2.17959-3.51952a8.02438,8.02438,0,0,0-1.57256-2.00455c-.33141-.26943-.66045-.54181-1.07916-.90145M63.06641,6.15442a34.53915,34.53915,0,0,1,6.06675,5.00314,1.26417,1.26417,0,0,0,.18864.18618,10.1475,10.1475,0,0,1,2.98807,3.52574c.29717.52379.55732,1.06881.86074,1.58875.27875.47769.61107.92423.88715,1.4033.36905.64043.70793,1.29832,1.05585,1.95079a1.28975,1.28975,0,0,1,.07348.23472c.03521-.092.117-.19507.09835-.27443a8.13567,8.13567,0,0,0-.63571-2.21251c-.14762-.263-.23254-.67264-.45005-.76189-.468-.192-.53353-.59384-.73226-.944-.27239-.47993-.59195-.93295-.868-1.41095a27.0464,27.0464,0,0,0-3.82117-4.49855c-.53076-.58051-1.26324-.97178-1.83236-1.523a14.67887,14.67887,0,0,0-3.91148-2.52977,6.59474,6.59474,0,0,0-.67678-.24631c.09242.30877.3604.35844.70877.50879m4.9614,32.07187a5.55573,5.55573,0,0,0,.44283.42957c.04057.03242.15355-.02588.23327-.04251a.63666.63666,0,0,0-.06052-.124,13.15468,13.15468,0,0,0-2.38518-2.30093c-1.119-.85109-2.22972-1.71337-3.35868-2.55107-.51113-.37928-1.05541-.71441-1.59038-1.06067a1.12273,1.12273,0,0,0-.29932-.09028,1.01379,1.01379,0,0,0-.06376.32337,3.8145,3.8145,0,0,0,.18139.8944c.16263.40343.19343.8589.83537.97869a7.64849,7.64849,0,0,1,1.86707.80085,15.34359,15.34359,0,0,1,4.19791,2.74262M58.01642,2.522c-.512-.11814-1.02312-.24108-1.53845-.34238-.03091-.00608-.15066.22573-.13681.2374.31.26134.10821.61071.17366.90948a.54484.54484,0,0,0,.1518.25083c.01583.01578.18226-.058.19-.10527.096-.58625.57549-.47485.89063-.39877a10.78711,10.78711,0,0,1,2.0168.68114,34.42678,34.42678,0,0,1,4.87817,2.55335.69183.69183,0,0,0,.3076.10593.63727.63727,0,0,0,.23263-.07179,1.33854,1.33854,0,0,1-.20322-.10027c-.70565-.50763-1.39658-1.03694-2.11729-1.52205a12.50478,12.50478,0,0,0-1.77552-1.057,30.06828,30.06828,0,0,0-3.07-1.14062m6.64472,35.88152a3.31719,3.31719,0,0,0,.3638.18269c.21734.079.44119.14011.66231.20873-.1728-.16-.34333-.32256-.5194-.47891a1.21659,1.21659,0,0,0-.268-.20118q-.9911-.47169-1.991-.92457a.25973.25973,0,0,0-.23758.03067.24982.24982,0,0,0-.00865.23636c.07449.121.16705.27222.28714.31683.53421.19842,1.08074.36359,1.71142.62938M58.01642,1.28162c-.30224-.11813-.60181-.24419-.909-.34774-.06182-.02084-.15245.04376-.22979.069.0534.06208.09473.1537.16224.18132.37541.15354.75441.29995,1.13927.4273.07084.02345.17432-.05182.26274-.08153a.87521.87521,0,0,0-.4255-.24831"/></g></g></svg>