<svg xmlns="http://www.w3.org/2000/svg" viewBox="0 0 51.93996 88.79736"><title>thin-bow-2-iso</title><g id="Layer_2" data-name="Layer 2"><g id="thin-bow-2-iso"><path id="void" d="M51.80091.07191c-.2-.18-.35.04-.52.06a.45718.45718,0,0,0-.24.12,5.25808,5.25808,0,0,1-2.08.81c-.7.22-1.41.38-2.1.61a.681.681,0,0,0-.49005.58,11.90067,11.90067,0,0,0-.24,1.78,3.71526,3.71526,0,0,1-.17.93,32.0878,32.0878,0,0,0-.77,3.22,11.90909,11.90909,0,0,1-.31,1.28,18.3877,18.3877,0,0,1-.85,2.24c-.45,1.06-.87,2.15-1.3,3.22-.43,1.08-.86005,2.16-1.3,3.23-.12.31-.23.61-.35.92-.31.83-.6,1.67-.95,2.49a41.32956,41.32956,0,0,1-1.98,4.89c-.36.62-.53,1.35-.86,2-.39.78-.74,1.57-1.08,2.38-.13.31-.38.58-.54.89-.22.44-.39.9-.62,1.33-.53.96-1.08,1.91-1.62006,2.86-.38995.67-.8,1.31995-1.18,1.99-.32.57-.74,1.09-1.03,1.69-.2.38995-.5.73-.73,1.11-.15.25-.22.54-.36.79-.23.38-.5.73-.73,1.11005a19.06761,19.06761,0,0,0-1.19,1.87,2.76657,2.76657,0,0,1-.67.75c-.35.33-.85.49-1.06.98a.14582.14582,0,0,1-.13.07.12844.12844,0,0,1-.1-.1c-.04-.54-.09-1.08-.12-1.62a5.57546,5.57546,0,0,0-.01-.71c-.1-.75-.28-1.51-.33-2.27a7.719,7.719,0,0,0-.23-1.59,1.16551,1.16551,0,0,1,.08-.78,2.03179,2.03179,0,0,0,.29-.43c.17-.38.36005-.75.55-1.12.33-.61.64-1.23.99-1.83.55-.97,1.2-1.89,1.69-2.89a56.62461,56.62461,0,0,0,2.8-6.08c.2-.56006.46-1.11.64-1.68006.37-1.22.79-2.42,1.1-3.67.29-1.19.68-2.35.93-3.55.16-.77.39-1.53.56-2.3.14-.65.19-1.33.37-1.97a24.30159,24.30159,0,0,0,.56-3.18c.12-.85.09-1.73.14-2.59.01-.22-.08-.45.1-.67.12-.15-.07-.32-.2-.43-.15-.15-.3.01-.35.08a8.10433,8.10433,0,0,1-1.75,1.35,15.91208,15.91208,0,0,1-1.92,1.32,5.87017,5.87017,0,0,0-1.09.78c-.32.26-.62006.51995-.34,1.01.07.11.01.31.01.46,0,.14.01.27.02.41a2.62329,2.62329,0,0,1,.08.94995c-.31.93006-.38,1.9-.66,2.84-.38,1.24-.83,2.45-1.32,3.64-.29.7-.56,1.42-.83,2.13-.41,1.1-.83,2.21-1.24,3.31-.18.49-.35.99-.54,1.48-.2.53-.41,1.05-.63,1.57-.21.5-.48.98-.64,1.5a24.20457,24.20457,0,0,1-1.31,3.1,10.50634,10.50634,0,0,1-.93,1.98,2.91063,2.91063,0,0,0-.28.59c-.15.36-.29.45-.65.37-.52-.12-1.03-.28-1.54-.4a5.21022,5.21022,0,0,0-1.7-.31,1.62128,1.62128,0,0,1-.44-.07,5.21157,5.21157,0,0,0-2.19-.07,13.67608,13.67608,0,0,0-1.43.56,2.69843,2.69843,0,0,0-.89.53c-.89.75-1.77,1.52-2.65,2.28a21.21931,21.21931,0,0,0-3.64,4.27,38.50029,38.50029,0,0,0-2.79,4.72c-.31.68-.66,1.34-.93,2.03-.58,1.47-1.17,2.93-1.7,4.42a15.88672,15.88672,0,0,0-.48,1.98c-.11.45-.18.9-.28,1.35-.05.23-.15.46-.19.69-.09.49-.16.99-.24,1.49-.04.24-.06.48-.12.71a8.55144,8.55144,0,0,0-.35,2.51,1.88366,1.88366,0,0,1-.01.53,8.76868,8.76868,0,0,0-.22,2.1,14.72106,14.72106,0,0,0,.11,1.48q.06.975.12,1.95a.4814.4814,0,0,0,0,.12,12.46835,12.46835,0,0,1,.33,1.97c-.01.85.25,1.66.27,2.5a9.09785,9.09785,0,0,0,.22,1.25c.07995.48.18994.96.23,1.44.07.74.09,1.49.12,2.24.01.04,0,.08.01.12a8.11793,8.11793,0,0,1,.23,2.14,2.268,2.268,0,0,0,.01.64c.21.68994.06,1.4.21,2.09a7.48483,7.48483,0,0,1,.1,1.42c.04,1,.45,3.05.48,4.04,0,.22.04.39.3.39a.27272.27272,0,0,0,.29-.29.46217.46217,0,0,0,.15.09c.17005.07.54.07.57-.01.21-.5.46-.28.72-.09a.26174.26174,0,0,0,.4-.06,4.1311,4.1311,0,0,0,.39.34.21629.21629,0,0,0,.22-.01,3.90667,3.90667,0,0,1,.97-.51c.77-.43,1.5-.93,2.24-1.4.86-.54,1.71-1.09,2.57-1.63a10.03947,10.03947,0,0,0,.89-.54c.66-.51,1.27-1.07995,1.94-1.57.93-.67,1.9-1.29,2.86-1.92.82-.56,1.67-1.1,2.48-1.67a23.26132,23.26132,0,0,0,1.91-1.53c.88-.78,1.86-1.47,2.78-2.22.66-.55,1.29-1.14,1.95-1.7.91-.77,1.84-1.52,2.75-2.29.92-.78,1.83-1.57,2.73-2.38.52-.47,1-.98,1.49-1.49.54-.55,1.05-1.13,1.57995-1.69.76-.81,1.53-1.6,2.28-2.41.56-.6,1.12-1.21,1.62-1.86a6.45305,6.45305,0,0,0,1.1-1.54,1.7041,1.7041,0,0,1,.33-.57,16.12929,16.12929,0,0,0,1.72-2.88c.25-.48.46-.99.71-1.47.14-.28.34-.53.46-.81.21-.52.38-1.06.56-1.6.29-.84.42-1.73.72-2.58a9.63871,9.63871,0,0,0,.26-1.96,8.35035,8.35035,0,0,1,.12-1.12,4.65925,4.65925,0,0,0-1.01-4.08c-.58-.65-1.17-1.29-1.79-1.9a3.006,3.006,0,0,0-.82-.59c-.57995-.29-1.17-.56006-1.78-.8a1.9739,1.9739,0,0,0-.83-.12,4.50743,4.50743,0,0,0-1.48.25c-.38.17-.77.3-1.16.43.19-.38995.42005-.86.5-1.03a29.992,29.992,0,0,1,1.32-2.87c.69-1.12,1.26-2.3,1.89-3.46.25-.47.52-.92.78-1.38.59-1.01,1.18006-2.02,1.75-3.05.41-.73.81-1.46,1.16-2.22.34-.72.63-1.47.92-2.21.27-.67.53-1.35.78-2.03.32-.87.62-1.75.93-2.62.27-.75.6-1.48.82-2.25.25-.89.54-1.77.85-2.65.24-.7.57-1.37.81-2.08.25-.74.41-1.51.65-2.26.31-.97.66-1.92.99-2.89.15-.42.3-.85.46-1.28.18005-.44.17-.92.35-1.38.36-.9.58-1.84.85-2.77.15-.51.33-1.01.45-1.52C51.94086.47193,52.00086.24189,51.80091.07191Zm-31.85,47.39a4.20106,4.20106,0,0,1,.05.62c-.03.87-.03,1.75-.11,2.62a.28429.28429,0,0,0-.13.04,17.51126,17.51126,0,0,0-1.68,1.42c-.53.53-1.04,1.1-1.54,1.65-.33.36-.63.73-.96,1.08a19.60656,19.60656,0,0,0-2.19,2.85c-.58.88-1.07,1.81-1.68,2.67a6.148,6.148,0,0,0-.34.68c-.00995.02-.1,0-.15,0a.562.562,0,0,1,.04-.12c.48-1.05,1.05-2.04,1.62-3.04.38-.65.73-1.31,1.13-1.94.47-.75.99-1.48,1.5-2.21.43-.61005.88-1.2,1.33-1.80005.43-.59.87-1.16,1.28-1.77.41-.62.79-1.28,1.18006-1.92a1.5866,1.5866,0,0,1,.29-.35C19.74085,47.80189,19.65088,47.48188,19.95087,47.46192Zm-14.49,40.61c-.02.02-.07,0-.11,0a.1522.1522,0,0,1-.18-.05l.3-.06C5.47089,88.0019,5.4809,88.05189,5.46088,88.07191Zm-.53-16.18c-.26,1.06-.34,2.15-.69,3.19a1.50382,1.50382,0,0,0-.00995.52,5.91963,5.91963,0,0,1-.23,1.73c-.01.04,0,.08-.01.12-.03.77-.08,1.54-.11,2.3a11.61234,11.61234,0,0,0-.01,1.56c.04.52.01,1.05.01,1.58v3.24a1.50463,1.50463,0,0,1-.01.3.90253.90253,0,0,1-.07995.21c-.05005-.08-.13-.15-.14-.24-.05-.41-.11-.83-.12-1.24-.05-1.63-.04-3.27-.14-4.9-.1-1.62-.1-3.24-.1-4.86a1.552,1.552,0,0,1,.1-.84c.07-.14-.05-.39-.11-.59-.07-.23.12-.42.03-.67-.07-.18.04-.42.05-.64.02-.62,0-1.24.05-1.86a17.54957,17.54957,0,0,1,.22-1.9,6.84746,6.84746,0,0,0,.12-1.43,8.87759,8.87759,0,0,1,.34-2.04c.06-.29.1-.57995.14-.88.05-.43.09-.87.12-1.31.01995-.33-.07-.68.19-.98.04-.04.04-.14.04-.21a8.24674,8.24674,0,0,1,.61-3.11,25.51164,25.51164,0,0,0,.81-2.84,2.83748,2.83748,0,0,1,.24-.78,32.51864,32.51864,0,0,0,1.29-3.12c.11-.25.2-.51.31-.75.4-.94.81-1.87,1.22-2.79a6.21239,6.21239,0,0,1,.35-.62c.39-.7.77-1.42,1.18-2.1.58-.95,1.19-1.87,1.78-2.8a1.3663,1.3663,0,0,1,.17-.17c.58-.62,1.16-1.25,1.75-1.86005a22.31589,22.31589,0,0,1,1.83-1.81,4.53,4.53,0,0,1,2.17-1.15c.24-.28.31-.04.37.13.22.62.46,1.23.63,1.86a9.52472,9.52472,0,0,1,.19,1.19,2.59,2.59,0,0,0-.86.85c-.38.61-.79,1.21-1.21,1.8-.61.88-1.26,1.75-1.87,2.64-.59.85-1.19,1.7-1.69,2.6a8.66908,8.66908,0,0,0-1.05,1.97,14.43414,14.43414,0,0,0-1.57,2.89c-.58,1.16-1.06,2.38-1.59,3.58-.1.25-.24.48-.35.73-.39.94-.80005,1.87-1.17,2.81-.3.8-.56,1.62-.83,2.43-.31.93-.63,1.86-.89,2.8-.28,1.01-.72,1.96-.9,2.99C5.3609,70.2519,5.14087,71.07191,4.93085,71.89191Zm1.31,11.3c.01-.04.61005-1.65.62005-1.69a25.99054,25.99054,0,0,1,1.13-3.05c.34-1.19.96-2.28,1.19-3.5a2.05838,2.05838,0,0,1,.23-.44c.2-.46.39-.93.59-1.4.38-.9.80005-1.79,1.12-2.71.43006-1.24,1.18006-2.33,1.59-3.58a15.63457,15.63457,0,0,1,.93-1.69c.18-.28.28-.59.44-.88a39.17747,39.17747,0,0,1,2.82-4.06,14.89126,14.89126,0,0,1,1.81-1.83c.04-.04.13-.04.19-.06a.44907.44907,0,0,1,0,.2c-.13.8-.48,1.55-.56,2.36-.02.32-.3.61005-.32.92005a4.00906,4.00906,0,0,1-.25,1.13995c-.24.7-.42,1.43006-.72,2.11005a7.80252,7.80252,0,0,1-.85,1.24c-.04.06-.12.1-.16.16q-.96,1.575-1.92,3.15c-.81994,1.35-1.66,2.68-2.43,4.05a7.07532,7.07532,0,0,0-.94,1.73,1.28323,1.28323,0,0,1-.33.56,7.81065,7.81065,0,0,0-.89,1.46c-.69,1.17-1.37,2.34-2.05,3.5-.11005.19-.32.74-.44.93C7.02088,81.84193,6.2909,83.18189,6.24085,83.1919Zm31.05005-37.42a7.33866,7.33866,0,0,1,2.18-.43c.4.01.39.01.32.44-.18.96-.44,1.92-.55,2.88a11.029,11.029,0,0,1-1,3.18c-.43.97-1.03,1.85-1.55,2.78-.1.19-.16.4-.25.6-.57,1.1-1.16,2.19-1.83,3.25-.88,1.38-1.87,2.68-2.84,4-.42.56995-.89,1.12-1.32,1.68-.7.91-1.46,1.76-2.24,2.6-.26.28-.49.58-.75.86-.87.92005-1.73,1.85-2.63,2.74006-1.86,1.84-3.72,3.68-5.61,5.49-.59.56-1.28,1-1.88,1.55-.48.44-.88.98-1.34,1.44-.55.55-1.15,1.05-1.69,1.6a16.99088,16.99088,0,0,1-1.53,1.28c-.61.49-1.19,1.02-1.78,1.53-.21.19-.44.35-.65.54-.54.49-1.05,1.03-1.62,1.49a9.81777,9.81777,0,0,1-1.84,1.5,1.34636,1.34636,0,0,1-.24.12.242.242,0,0,1-.18-.09.26531.26531,0,0,1,.06-.14c.6-.45,1.23-.86,1.79-1.34a8.75446,8.75446,0,0,0,.97-1.13c.24-.29.44995-.61.71-.88a29.01492,29.01492,0,0,0,3.65-4.61c.39-.57.83-1.1,1.21-1.68.29-.44.53-.91.8-1.37.9-1.57,1.77-3.16,2.78-4.68.47-.71.87-1.48,1.29-2.23.13-.22.22-.45.34-.68.37-.85.64-1.66,1.02-2.42.43-.85.83-1.7,1.26-2.54.34-.65.47-.78.8-1.48a9.48967,9.48967,0,0,1,.65-.99c.06994,0,.37-.48.39-.53.32-.61005.61-.77.99-1.38.3-.47.66-.91.99005-1.36005.42-.57.83-1.13995,1.25-1.72.28-.39.56-.78.83-1.18.34-.53.68-1.05.99-1.59.28-.49.52-1.01.78-1.51a2.84907,2.84907,0,0,1,.23-.37c.32-.5,1.29-2.12,1.6-2.62a.076.076,0,0,1,.02-.04v-.01c.01,0,.01-.01.02-.01.54-.32,1.09-.64,1.66-.91A22.16994,22.16994,0,0,1,37.2909,45.77192Z" style="fill:#fff"/><path id="fill2" d="M51.80091.07191c-.2-.18-.35.04-.52.06a.45718.45718,0,0,0-.24.12,5.25808,5.25808,0,0,1-2.08.81c-.7.22-1.41.38-2.1.61a.681.681,0,0,0-.49005.58,11.90067,11.90067,0,0,0-.24,1.78,3.71526,3.71526,0,0,1-.17.93,32.0878,32.0878,0,0,0-.77,3.22,11.90909,11.90909,0,0,1-.31,1.28,18.3877,18.3877,0,0,1-.85,2.24c-.45,1.06-.87,2.15-1.3,3.22-.43,1.08-.86005,2.16-1.3,3.23-.12.31-.23.61-.35.92-.31.83-.6,1.67-.95,2.49a41.32956,41.32956,0,0,1-1.98,4.89c-.36.62-.53,1.35-.86,2-.39.78-.74,1.57-1.08,2.38-.13.31-.38.58-.54.89-.22.44-.39.9-.62,1.33-.53.96-1.08,1.91-1.62006,2.86-.38995.67-.8,1.31995-1.18,1.99-.32.57-.74,1.09-1.03,1.69-.2.38995-.5.73-.73,1.11-.15.25-.22.54-.36.79-.23.38-.5.73-.73,1.11005a19.06761,19.06761,0,0,0-1.19,1.87,2.76657,2.76657,0,0,1-.67.75c-.35.33-.85.49-1.06.98a.14582.14582,0,0,1-.13.07.12844.12844,0,0,1-.1-.1c-.04-.54-.09-1.08-.12-1.62a5.57546,5.57546,0,0,0-.01-.71c-.1-.75-.28-1.51-.33-2.27a7.719,7.719,0,0,0-.23-1.59,1.16551,1.16551,0,0,1,.08-.78,2.03179,2.03179,0,0,0,.29-.43c.17-.38.36005-.75.55-1.12.33-.61.64-1.23.99-1.83.55-.97,1.2-1.89,1.69-2.89a56.62461,56.62461,0,0,0,2.8-6.08c.2-.56006.46-1.11.64-1.68006.37-1.22.79-2.42,1.1-3.67.29-1.19.68-2.35.93-3.55.16-.77.39-1.53.56-2.3.14-.65.19-1.33.37-1.97a24.30159,24.30159,0,0,0,.56-3.18c.12-.85.09-1.73.14-2.59.01-.22-.08-.45.1-.67.12-.15-.07-.32-.2-.43-.15-.15-.3.01-.35.08a8.10433,8.10433,0,0,1-1.75,1.35,15.91208,15.91208,0,0,1-1.92,1.32,5.87017,5.87017,0,0,0-1.09.78c-.32.26-.62006.51995-.34,1.01.07.11.01.31.01.46,0,.14.01.27.02.41a2.62329,2.62329,0,0,1,.08.94995c-.31.93006-.38,1.9-.66,2.84-.38,1.24-.83,2.45-1.32,3.64-.29.7-.56,1.42-.83,2.13-.41,1.1-.83,2.21-1.24,3.31-.18.49-.35.99-.54,1.48-.2.53-.41,1.05-.63,1.57-.21.5-.48.98-.64,1.5a24.20457,24.20457,0,0,1-1.31,3.1,10.50634,10.50634,0,0,1-.93,1.98,2.91063,2.91063,0,0,0-.28.59c-.15.36-.29.45-.65.37-.52-.12-1.03-.28-1.54-.4a5.21022,5.21022,0,0,0-1.7-.31,1.62128,1.62128,0,0,1-.44-.07,5.21157,5.21157,0,0,0-2.19-.07,13.67608,13.67608,0,0,0-1.43.56,2.69843,2.69843,0,0,0-.89.53c-.89.75-1.77,1.52-2.65,2.28a21.21931,21.21931,0,0,0-3.64,4.27,38.50029,38.50029,0,0,0-2.79,4.72c-.31.68-.66,1.34-.93,2.03-.58,1.47-1.17,2.93-1.7,4.42a15.88672,15.88672,0,0,0-.48,1.98c-.11.45-.18.9-.28,1.35-.05.23-.15.46-.19.69-.09.49-.16.99-.24,1.49-.04.24-.06.48-.12.71a8.55144,8.55144,0,0,0-.35,2.51,1.88366,1.88366,0,0,1-.01.53,8.76868,8.76868,0,0,0-.22,2.1,14.72106,14.72106,0,0,0,.11,1.48q.06.975.12,1.95a.4814.4814,0,0,0,0,.12,12.46835,12.46835,0,0,1,.33,1.97c-.01.85.25,1.66.27,2.5a9.09785,9.09785,0,0,0,.22,1.25c.07995.48.18994.96.23,1.44.07.74.09,1.49.12,2.24.01.04,0,.08.01.12a8.11793,8.11793,0,0,1,.23,2.14,2.268,2.268,0,0,0,.01.64c.21.68994.06,1.4.21,2.09a7.48483,7.48483,0,0,1,.1,1.42c.04,1,.45,3.05.48,4.04,0,.22.04.39.3.39a.27272.27272,0,0,0,.29-.29.46217.46217,0,0,0,.15.09c.17005.07.54.07.57-.01.21-.5.46-.28.72-.09a.26174.26174,0,0,0,.4-.06,4.1311,4.1311,0,0,0,.39.34.21629.21629,0,0,0,.22-.01,3.90667,3.90667,0,0,1,.97-.51c.77-.43,1.5-.93,2.24-1.4.86-.54,1.71-1.09,2.57-1.63a10.03947,10.03947,0,0,0,.89-.54c.66-.51,1.27-1.07995,1.94-1.57.93-.67,1.9-1.29,2.86-1.92.82-.56,1.67-1.1,2.48-1.67a23.26132,23.26132,0,0,0,1.91-1.53c.88-.78,1.86-1.47,2.78-2.22.66-.55,1.29-1.14,1.95-1.7.91-.77,1.84-1.52,2.75-2.29.92-.78,1.83-1.57,2.73-2.38.52-.47,1-.98,1.49-1.49.54-.55,1.05-1.13,1.57995-1.69.76-.81,1.53-1.6,2.28-2.41.56-.6,1.12-1.21,1.62-1.86a6.45305,6.45305,0,0,0,1.1-1.54,1.7041,1.7041,0,0,1,.33-.57,16.12929,16.12929,0,0,0,1.72-2.88c.25-.48.46-.99.71-1.47.14-.28.34-.53.46-.81.21-.52.38-1.06.56-1.6.29-.84.42-1.73.72-2.58a9.63871,9.63871,0,0,0,.26-1.96,8.35035,8.35035,0,0,1,.12-1.12,4.65925,4.65925,0,0,0-1.01-4.08c-.58-.65-1.17-1.29-1.79-1.9a3.006,3.006,0,0,0-.82-.59c-.57995-.29-1.17-.56006-1.78-.8a1.9739,1.9739,0,0,0-.83-.12,4.50743,4.50743,0,0,0-1.48.25c-.38.17-.77.3-1.16.43.19-.38995.42005-.86.5-1.03a29.992,29.992,0,0,1,1.32-2.87c.69-1.12,1.26-2.3,1.89-3.46.25-.47.52-.92.78-1.38.59-1.01,1.18006-2.02,1.75-3.05.41-.73.81-1.46,1.16-2.22.34-.72.63-1.47.92-2.21.27-.67.53-1.35.78-2.03.32-.87.62-1.75.93-2.62.27-.75.6-1.48.82-2.25.25-.89.54-1.77.85-2.65.24-.7.57-1.37.81-2.08.25-.74.41-1.51.65-2.26.31-.97.66-1.92.99-2.89.15-.42.3-.85.46-1.28.18005-.44.17-.92.35-1.38.36-.9.58-1.84.85-2.77.15-.51.33-1.01.45-1.52C51.94086.47193,52.00086.24189,51.80091.07191Zm-31.85,47.39a4.20106,4.20106,0,0,1,.05.62c-.03.87-.03,1.75-.11,2.62a.28429.28429,0,0,0-.13.04,17.51126,17.51126,0,0,0-1.68,1.42c-.53.53-1.04,1.1-1.54,1.65-.33.36-.63.73-.96,1.08a19.60656,19.60656,0,0,0-2.19,2.85c-.58.88-1.07,1.81-1.68,2.67a6.148,6.148,0,0,0-.34.68c-.00995.02-.1,0-.15,0a.562.562,0,0,1,.04-.12c.48-1.05,1.05-2.04,1.62-3.04.38-.65.73-1.31,1.13-1.94.47-.75.99-1.48,1.5-2.21.43-.61005.88-1.2,1.33-1.80005.43-.59.87-1.16,1.28-1.77.41-.62.79-1.28,1.18006-1.92a1.5866,1.5866,0,0,1,.29-.35C19.74085,47.80189,19.65088,47.48188,19.95087,47.46192Zm-14.49,40.61c-.02.02-.07,0-.11,0a.1522.1522,0,0,1-.18-.05l.3-.06C5.47089,88.0019,5.4809,88.05189,5.46088,88.07191Zm-.53-16.18c-.26,1.06-.34,2.15-.69,3.19a1.50382,1.50382,0,0,0-.00995.52,5.91963,5.91963,0,0,1-.23,1.73c-.01.04,0,.08-.01.12-.03.77-.08,1.54-.11,2.3a11.61234,11.61234,0,0,0-.01,1.56c.04.52.01,1.05.01,1.58v3.24a1.50463,1.50463,0,0,1-.01.3.90253.90253,0,0,1-.07995.21c-.05005-.08-.13-.15-.14-.24-.05-.41-.11-.83-.12-1.24-.05-1.63-.04-3.27-.14-4.9-.1-1.62-.1-3.24-.1-4.86a1.552,1.552,0,0,1,.1-.84c.07-.14-.05-.39-.11-.59-.07-.23.12-.42.03-.67-.07-.18.04-.42.05-.64.02-.62,0-1.24.05-1.86a17.54957,17.54957,0,0,1,.22-1.9,6.84746,6.84746,0,0,0,.12-1.43,8.87759,8.87759,0,0,1,.34-2.04c.06-.29.1-.57995.14-.88.05-.43.09-.87.12-1.31.01995-.33-.07-.68.19-.98.04-.04.04-.14.04-.21a8.24674,8.24674,0,0,1,.61-3.11,25.51164,25.51164,0,0,0,.81-2.84,2.83748,2.83748,0,0,1,.24-.78,32.51864,32.51864,0,0,0,1.29-3.12c.11-.25.2-.51.31-.75.4-.94.81-1.87,1.22-2.79a6.21239,6.21239,0,0,1,.35-.62c.39-.7.77-1.42,1.18-2.1.58-.95,1.19-1.87,1.78-2.8a1.3663,1.3663,0,0,1,.17-.17c.58-.62,1.16-1.25,1.75-1.86005a22.31589,22.31589,0,0,1,1.83-1.81,4.53,4.53,0,0,1,2.17-1.15c.24-.28.31-.04.37.13.22.62.46,1.23.63,1.86a9.52472,9.52472,0,0,1,.19,1.19,2.59,2.59,0,0,0-.86.85c-.38.61-.79,1.21-1.21,1.8-.61.88-1.26,1.75-1.87,2.64-.59.85-1.19,1.7-1.69,2.6a8.66908,8.66908,0,0,0-1.05,1.97,14.43414,14.43414,0,0,0-1.57,2.89c-.58,1.16-1.06,2.38-1.59,3.58-.1.25-.24.48-.35.73-.39.94-.80005,1.87-1.17,2.81-.3.8-.56,1.62-.83,2.43-.31.93-.63,1.86-.89,2.8-.28,1.01-.72,1.96-.9,2.99C5.3609,70.2519,5.14087,71.07191,4.93085,71.89191Zm1.31,11.3c.01-.04.61005-1.65.62005-1.69a25.99054,25.99054,0,0,1,1.13-3.05c.34-1.19.96-2.28,1.19-3.5a2.05838,2.05838,0,0,1,.23-.44c.2-.46.39-.93.59-1.4.38-.9.80005-1.79,1.12-2.71.43006-1.24,1.18006-2.33,1.59-3.58a15.63457,15.63457,0,0,1,.93-1.69c.18-.28.28-.59.44-.88a39.17747,39.17747,0,0,1,2.82-4.06,14.89126,14.89126,0,0,1,1.81-1.83c.04-.04.13-.04.19-.06a.44907.44907,0,0,1,0,.2c-.13.8-.48,1.55-.56,2.36-.02.32-.3.61005-.32.92005a4.00906,4.00906,0,0,1-.25,1.13995c-.24.7-.42,1.43006-.72,2.11005a7.80252,7.80252,0,0,1-.85,1.24c-.04.06-.12.1-.16.16q-.96,1.575-1.92,3.15c-.81994,1.35-1.66,2.68-2.43,4.05a7.07532,7.07532,0,0,0-.94,1.73,1.28323,1.28323,0,0,1-.33.56,7.81065,7.81065,0,0,0-.89,1.46c-.69,1.17-1.37,2.34-2.05,3.5-.11005.19-.32.74-.44.93C7.02088,81.84193,6.2909,83.18189,6.24085,83.1919Zm31.05005-37.42a7.33866,7.33866,0,0,1,2.18-.43c.4.01.39.01.32.44-.18.96-.44,1.92-.55,2.88a11.029,11.029,0,0,1-1,3.18c-.43.97-1.03,1.85-1.55,2.78-.1.19-.16.4-.25.6-.57,1.1-1.16,2.19-1.83,3.25-.88,1.38-1.87,2.68-2.84,4-.42.56995-.89,1.12-1.32,1.68-.7.91-1.46,1.76-2.24,2.6-.26.28-.49.58-.75.86-.87.92005-1.73,1.85-2.63,2.74006-1.86,1.84-3.72,3.68-5.61,5.49-.59.56-1.28,1-1.88,1.55-.48.44-.88.98-1.34,1.44-.55.55-1.15,1.05-1.69,1.6a16.99088,16.99088,0,0,1-1.53,1.28c-.61.49-1.19,1.02-1.78,1.53-.21.19-.44.35-.65.54-.54.49-1.05,1.03-1.62,1.49a9.81777,9.81777,0,0,1-1.84,1.5,1.34636,1.34636,0,0,1-.24.12.242.242,0,0,1-.18-.09.26531.26531,0,0,1,.06-.14c.6-.45,1.23-.86,1.79-1.34a8.75446,8.75446,0,0,0,.97-1.13c.24-.29.44995-.61.71-.88a29.01492,29.01492,0,0,0,3.65-4.61c.39-.57.83-1.1,1.21-1.68.29-.44.53-.91.8-1.37.9-1.57,1.77-3.16,2.78-4.68.47-.71.87-1.48,1.29-2.23.13-.22.22-.45.34-.68.37-.85.64-1.66,1.02-2.42.43-.85.83-1.7,1.26-2.54.34-.65.47-.78.8-1.48a9.48967,9.48967,0,0,1,.65-.99c.06994,0,.37-.48.39-.53.32-.61005.61-.77.99-1.38.3-.47.66-.91.99005-1.36005.42-.57.83-1.13995,1.25-1.72.28-.39.56-.78.83-1.18.34-.53.68-1.05.99-1.59.28-.49.52-1.01.78-1.51a2.84907,2.84907,0,0,1,.23-.37c.32-.5,1.29-2.12,1.6-2.62a.076.076,0,0,1,.02-.04v-.01c.01,0,.01-.01.02-.01.54-.32,1.09-.64,1.66-.91A22.16994,22.16994,0,0,1,37.2909,45.77192Z" style="fill:#ff90fb"/><path id="fill1" d="M51.79837.06922c-.2008-.17748-.34512.0395-.51569.0638a.51153.51153,0,0,0-.24423.11541,5.33789,5.33789,0,0,1-2.0752.81829c-.69875.21219-1.4128.37566-2.10612.60318a.70028.70028,0,0,0-.4859.57936,11.235,11.235,0,0,0-.23715,1.78754,3.87739,3.87739,0,0,1-.17544.92427,31.544,31.544,0,0,0-.76308,3.21728,12.3774,12.3774,0,0,1-.31706,1.27972,16.36163,16.36163,0,0,1-.84735,2.23908c-.455,1.06706-.86936,2.15143-1.301,3.22843s-.86417,2.15367-1.29456,3.23117c-.12107.30311-.23773.608-.3534.91321-.31494.83106-.60295,1.67339-.94755,2.4919a41.85328,41.85328,0,0,1-1.98276,4.89093c-.35945.62275-.53191,1.35069-.85785,1.99623-.3936.77952-.74784,1.57262-1.08126,2.37858-.13166.31826-.38266.585-.54159.89461-.22345.43525-.386.90258-.62033,1.33123-.52562.96181-1.075,1.91078-1.6232,2.86-.38466.66606-.79182,1.31918-1.17327,1.98705-.32769.57374-.74133,1.09175-1.03742,1.68823-.19563.39411-.49965.73294-.72564,1.114-.147.24783-.2176.54091-.36415.78908-.22513.38131-.49656.735-.72958,1.112A17.7135,17.7135,0,0,0,28.2141,44.4671a2.76528,2.76528,0,0,1-.66923.74987c-.351.33164-.852.49986-1.06575.98425a.15852.15852,0,0,1-.1295.07194.1473.1473,0,0,1-.0983-.10294c-.04518-.5394-.08749-1.07916-.1194-1.61949-.01385-.23464.02463-.47452-.00726-.70556-.10457-.75757-.27925-1.50862-.33448-2.26889a7.37091,7.37091,0,0,0-.2284-1.59648,1.13718,1.13718,0,0,1,.07934-.7808,1.97641,1.97641,0,0,0,.28839-.424c.17371-.37989.3606-.75422.5548-1.12413.32186-.61295.63917-1.229.98413-1.82891.55677-.96826,1.19986-1.89247,1.68955-2.89255a56.03571,56.03571,0,0,0,2.80525-6.07765c.19725-.56468.46219-1.10741.63444-1.67878.36853-1.2224.79171-2.42514,1.101-3.6706.29457-1.186.6796-2.35225.93114-3.55419.16133-.771.39176-1.52738.56012-2.2971.14262-.65219.19314-1.32714.36909-1.96881a24.2295,24.2295,0,0,0,.56233-3.17545c.11613-.8563.08672-1.73178.13843-2.59778.01312-.21981-.078-.44329.09989-.668.12162-.15358-.06617-.31447-.19578-.43312-.1566-.14334-.30257.01846-.35752.08513a7.95514,7.95514,0,0,1-1.74588,1.35205,15.26352,15.26352,0,0,1-1.92307,1.31462,6.188,6.188,0,0,0-1.08775.7837c-.31743.25445-.62254.52221-.33867,1.0062.06849.11681.00739.308.011.46493.00311.13447.00933.26916.02162.40307a2.61464,2.61464,0,0,1,.07608.95465c-.30551.92893-.38371,1.9035-.66362,2.84063a37.93993,37.93993,0,0,1-1.31569,3.63723c-.29089.70365-.55663,1.41784-.82615,2.13012q-.62584,1.65413-1.24094,3.31228c-.18374.49307-.35527.99074-.5433,1.48214q-.30131.78729-.62461,1.56606a16.2486,16.2486,0,0,0-.64259,1.49864,23.18345,23.18345,0,0,1-1.31576,3.10529,10.16791,10.16791,0,0,1-.92595,1.97366,2.80778,2.80778,0,0,0-.27661.58981c-.158.36185-.29145.45551-.65782.37151-.51676-.1185-1.02435-.27644-1.5399-.4007a5.31933,5.31933,0,0,0-1.70093-.30686,1.52883,1.52883,0,0,1-.43887-.07123,5.11776,5.11776,0,0,0-2.18632-.06668,13.1491,13.1491,0,0,0-1.42566.55358,2.7967,2.7967,0,0,0-.89377.53284c-.89448.74679-1.76917,1.5174-2.64722,2.28372a21.08318,21.08318,0,0,0-3.64112,4.26547,37.22782,37.22782,0,0,0-2.78758,4.72568c-.31657.67308-.66281,1.33412-.93617,2.02669-.57916,1.46742-1.16574,2.93281-1.698,4.41741a16.92765,16.92765,0,0,0-.4837,1.978c-.10216.45018-.17955.906-.2796,1.35665-.05132.23115-.14676.45322-.18949.68542-.0911.495-.16036.99393-.23953,1.4911A6.16689,6.16689,0,0,1,.5773,59.866,8.94723,8.94723,0,0,0,.228,62.36984a2.03469,2.03469,0,0,1-.00651.528,8.81094,8.81094,0,0,0-.21872,2.10279c-.01315.49252.07307.98723.10647,1.48152.044.65058.07976,1.3017.11858,1.95261a1.04552,1.04552,0,0,0,.00118.11757,11.46749,11.46749,0,0,1,.32848,1.973c-.00218.848.25639,1.65242.27167,2.4924a8.40556,8.40556,0,0,0,.222,1.25681c.08323.47683.18772.95253.22971,1.43338.06519.74673.08542,1.49741.12431,2.24642a.61246.61246,0,0,0,.00149.11741,8.04762,8.04762,0,0,1,.2347,2.13968,2.17707,2.17707,0,0,0,.00889.64463c.21082.68326.05609,1.396.21293,2.0864a8.06308,8.06308,0,0,1,.09845,1.42129c.04382.99435.44868,3.04606.47689,4.03752.00617.21631.04425.38592.29865.39484.17076.006.279-.113.2971-.29755a.432.432,0,0,0,.14816.09837c.17052.06622.53471.06254.56713-.01394.21076-.4973.4585-.27946.72378-.08867a.26694.26694,0,0,0,.40186-.062,4.12575,4.12575,0,0,0,.38656.34349.22805.22805,0,0,0,.21877-.01657,4.00658,4.00658,0,0,1,.96811-.50717c.76809-.43337,1.5001-.93074,2.24639-1.40271q1.28286-.81127,2.56577-1.62247c.29487-.18552.61635-.335.88966-.54727.65769-.51086,1.27036-1.082,1.9448-1.5684.92923-.67011,1.89843-1.28478,2.85089-1.92263.82941-.5554,1.672-1.09226,2.48508-1.67061a22.26428,22.26428,0,0,0,1.9093-1.521c.88459-.78813,1.86191-1.47112,2.77913-2.224.66576-.54644,1.29009-1.143,1.94764-1.69987.9122-.77244,1.84545-1.52,2.75626-2.29407.91783-.78,1.83045-1.56693,2.72352-2.37493.52067-.47107,1.00631-.982,1.49356-1.48861.53638-.55767,1.05338-1.134,1.58457-1.69674.75773-.80279,1.53033-1.59178,2.27825-2.40356.55723-.60478,1.11742-1.21182,1.61615-1.86384a6.35589,6.35589,0,0,0,1.09812-1.54316,1.99154,1.99154,0,0,1,.33151-.56717,15.92625,15.92625,0,0,0,1.71783-2.88136c.255-.48076.46656-.98437.71277-1.47006.1404-.27693.34535-.52474.4605-.81019.21033-.52142.37762-1.06036.55915-1.59323.28856-.847.42453-1.73393.71786-2.58536a9.35068,9.35068,0,0,0,.26022-1.95405,9.03446,9.03446,0,0,1,.12694-1.12639,4.48451,4.48451,0,0,0-.12219-2.506,4.36279,4.36279,0,0,0-.89044-1.57179q-.86612-.97928-1.79139-1.90551a3.22984,3.22984,0,0,0-.81571-.58141c-.58153-.2955-1.17751-.56732-1.78462-.80535a1.914,1.914,0,0,0-.82939-.11676,4.60868,4.60868,0,0,0-1.48184.24911,11.67564,11.67564,0,0,1-1.16085.4266c.19628-.38868.42036-.85555.50317-1.03212a28.91659,28.91659,0,0,1,1.32346-2.86121c.68836-1.12586,1.2556-2.30855,1.88167-3.46316.25259-.46584.52514-.92084.78908-1.38048.58258-1.01453,1.176-2.023,1.7446-3.0453.40684-.73148.80582-1.46952,1.16176-2.22653.339-.721.625-1.46753.92083-2.20823q.40356-1.01038.77693-2.03274c.318-.86939.61789-1.7454.933-2.61587.27167-.75052.60152-1.48372.81882-2.24925.25393-.89473.54234-1.77685.84662-2.65351.2435-.70155.57343-1.37344.80953-2.0771.2494-.74335.41129-1.51573.651-2.26273.31067-.968.65931-1.924.99407-2.88426.14933-.42847.29457-.85881.46005-1.28109.17476-.446.17127-.92549.35242-1.384.35355-.895.57123-1.8436.84781-2.76922.1512-.50606.32654-1.00593.45208-1.51812A.5435.5435,0,0,0,51.79837.06922Zm-28.69968,35.299a9.8141,9.8141,0,0,0,1.03294-2.1637c.09528-.235.245-.44754.34753-.68018.541-1.22776,1.16158-2.42932,1.58965-3.6957.56446-1.66984,1.35648-3.25289,1.82679-4.9547a18.77729,18.77729,0,0,0,.94189-2.61234c.30858-.66178.56643-1.26149.80585-1.86846.27287-.69165.56409-1.37892.7843-2.08769a20.71435,20.71435,0,0,0,.74014-2.80792,6.59862,6.59862,0,0,0,.263-2.13582c-.05725-.35362-.06454-.71559-.12645-1.06815a.51532.51532,0,0,1,.27312-.53443c.618-.44171,1.25029-.8634,1.87538-1.29528.51912-.35868,1.03572-.721,1.55331-1.08188.06105-.04257.11784-.09242.18231-.12878.14064-.07933.354-.25135.41487-.209.1819.12645-.00382.29206-.05325.44229a.47435.47435,0,0,0-.002.11716c-.03891.749-.05742,1.4998-.12419,2.24631-.05153.576-.15663,1.14769-.25154,1.719-.05743.34545-.16445.68363-.208,1.03025a24.08159,24.08159,0,0,1-.47532,2.39438c-.11962.51983-.21176,1.0473-.3584,1.55927-.338,1.18016-.53581,2.39338-.88544,3.57336-.15414.5203-.31133,1.05557-.42995,1.59579a21.81316,21.81316,0,0,1-.79828,2.37211c-.17162.49819-.32678,1.0022-.50621,1.4975A40.53745,40.53745,0,0,1,29.86168,30.383q-.59419,1.2317-1.262,2.41914c-.51812.92488-1.05534,1.839-1.58152,2.75939-.30816.539-.60281,1.08591-.91877,1.62024-.25272.42736-.522.84545-.7981,1.25813-.07665.11457-.19215.13154-.23079-.05016a4.56526,4.56526,0,0,0-.8953-1.625,2.33038,2.33038,0,0,0-.83448-.51092C22.89812,36.01723,22.80653,35.77106,23.09869,35.36818ZM2.97239,87.99691c-.1206-.67972-.34777-1.851-.38275-2.28351-.06517-.80579-.08391-1.61528-.12526-2.423a5.10854,5.10854,0,0,0-.09719-1.01582,7.5561,7.5561,0,0,1-.13371-1.47694c-.019-.4112.01569-.82516-.00966-1.23566a4.57407,4.57407,0,0,0-.15842-1.11086,4.587,4.587,0,0,1-.19622-1.21521,8.24287,8.24287,0,0,0-.09237-1.66317c-.25035-1.01352-.291-2.068-.46476-3.101-.152-.90372-.2977-1.82046-.35995-2.73524C.8827,68.7163.665,67.71305.60923,66.70367a20.01941,20.01941,0,0,1,.128-4.026A19.15991,19.15991,0,0,1,1.17,59.57062,3.556,3.556,0,0,1,1.48755,57.934c.21623-.7657.25565-1.55962.479-2.3272.16249-.55831.32119-1.12724.45592-1.69725a8.52976,8.52976,0,0,0,.519-1.96632.72055.72055,0,0,1,.11389-.3036,9.43488,9.43488,0,0,0,.80352-1.549c.32526-1.07106.91869-2.01424,1.32758-3.04323A9.895,9.895,0,0,1,6.009,45.6226c.62039-1.01923,1.24749-2.03437,1.90129-3.08062a16.74624,16.74624,0,0,0,1.139-1.412,12.56641,12.56641,0,0,1,2.3763-2.53061,21.42489,21.42489,0,0,1,2.10536-1.83917,8.25025,8.25025,0,0,1,2.58678-1.297,1.14945,1.14945,0,0,1,1.04293.15216,3.19433,3.19433,0,0,1,.977,1.47648c.06491.206.05941.27663-.12566.36078-.4131.1878-.82639.37733-1.22694.59a4.33988,4.33988,0,0,0-.93382.57821c-.67391.6236-1.31523,1.28329-1.95492,1.94278-.55237.56945-1.08472,1.15832-1.62546,1.739a1.51458,1.51458,0,0,0-.15052.17327c-.47843.704-.96333,1.40383-1.42864,2.11646a19.22269,19.22269,0,0,0-1.03653,1.69c-.53947,1.049-1.00533,2.136-1.54739,3.18363-.3346.64669-.55093,1.342-.91725,1.97816a11.5561,11.5561,0,0,0-.66353,1.6651c-.26555.69459-.51166,1.39714-.79718,2.08333a10.49447,10.49447,0,0,0-.3773,1.31658c-.20486.75447-.49031,1.48725-.69029,2.24278-.15477.58474-.34845,1.15777-.45044,1.76207-.08729.51713-.18592,1.02584-.23086,1.5527-.05654.66285-.30433,1.31471-.31853,1.97454-.0205.95278-.50019,1.83326-.37413,2.79671a.40074.40074,0,0,1-.00871.11368c-.07476.45942-.15652.91783-.22226,1.37853-.02195.15384.058.356-.01545.46214-.19106.27625-.062.565-.105.84264s-.09644.55486-.11523.8343A15.94991,15.94991,0,0,1,2.717,72.77836a6.63194,6.63194,0,0,0-.0165,1.35041c0,.47093-.02823.94408.00838,1.41213.033.42188-.06121.83033-.02748,1.25853.0942,1.196.11487,2.39885.13258,3.59946.02351,1.59333-.03437,3.1883.12175,4.7782a7.32717,7.32717,0,0,0,.13172,1.24244A1.66705,1.66705,0,0,1,2.97239,87.99691Zm1.25892-12.391A5.93607,5.93607,0,0,1,3.997,77.33353a.533.533,0,0,0-.00164.1173c-.0389.76862-.08891,1.53686-.11372,2.30594a12.694,12.694,0,0,0-.0141,1.55147c.047.52557.01035,1.05864.01035,1.58841v3.23753a2.05336,2.05336,0,0,1-.00347.29381.97923.97923,0,0,1-.08061.20962c-.05046-.07722-.13529-.15011-.1456-.23236-.05186-.41383-.107-.82939-.11951-1.24561-.04906-1.63166-.03459-3.26674-.13527-4.89488-.10016-1.61991-.10514-3.23816-.09781-4.858a1.54569,1.54569,0,0,1,.09162-.84533c.0759-.13469-.04273-.393-.10219-.58637-.07045-.22918.11483-.42814.02569-.67693-.06488-.181.04187-.4183.04934-.63132.02174-.62088.00422-1.24445.05458-1.86266a14.97113,14.97113,0,0,1,.21626-1.90692A6.6469,6.6469,0,0,0,3.752,67.47692a8.58707,8.58707,0,0,1,.33424-2.04235,7.58788,7.58788,0,0,0,.14225-.88274q.07394-.65085.11774-1.305c.02211-.33651-.06067-.68833.19717-.98074a.33916.33916,0,0,0,.03889-.21649,8.16357,8.16357,0,0,1,.61175-3.104,27.57324,27.57324,0,0,0,.80527-2.84431A2.96264,2.96264,0,0,1,6.24055,55.32a31.23681,31.23681,0,0,0,1.28606-3.11817c.10945-.24881.20126-.50538.30977-.75461.40533-.931.81-1.86224,1.22492-2.78894.0966-.21577.23361-.41331.34985-.62045.393-.70045.76476-1.41385,1.18249-2.09923.5748-.943,1.18328-1.86557,1.7805-2.79489a1.33529,1.33529,0,0,1,.16441-.1679c.58311-.6216,1.15784-1.25133,1.75061-1.86354a23.49884,23.49884,0,0,1,1.83357-1.81252,4.46529,4.46529,0,0,1,2.16957-1.14335c.23366-.28089.30462-.04781.36714.12732.21984.6157.46613,1.22562.62993,1.85654a9.04737,9.04737,0,0,1,.19345,1.19479,2.61659,2.61659,0,0,0-.863.84963c-.38179.61144-.79015,1.207-1.20411,1.7974-.61963.88381-1.26808,1.74764-1.87814,2.63788-.58376.85192-1.18492,1.69874-1.68219,2.60086a8.58161,8.58161,0,0,0-1.05757,1.973,14.6493,14.6493,0,0,0-1.56767,2.88369c-.58235,1.16648-1.05873,2.38577-1.58449,3.58069-.1096.24914-.244.48751-.35031.73791-.39674.9344-.80785,1.86356-1.17249,2.81053-.30656.79612-.56168,1.61243-.82921,2.4232-.30777.93263-.63771,1.85982-.89635,2.80623-.27425,1.00348-.71682,1.95254-.89339,2.989-.14166.83158-.36469,1.65-.5688,2.47005-.26246,1.0544-.34177,2.14817-.69646,3.18356A1.66612,1.66612,0,0,0,4.23131,75.60586ZM19.7594,50.74241a17.009,17.009,0,0,0-1.67849,1.42135c-.53445.531-1.03548,1.09576-1.545,1.65146-.32412.35354-.63.724-.95965,1.07213a20.36045,20.36045,0,0,0-2.18864,2.85375c-.57812.87815-1.06451,1.8116-1.67355,2.66882a6.18745,6.18745,0,0,0-.3433.67942c-.01227.02288-.10073.00489-.15384.00585.01525-.04159.02781-.08442.04613-.12464.47631-1.04608,1.04611-2.04221,1.62136-3.03556.3754-.64821.72333-1.31362,1.12445-1.94539.476-.74976.98719-1.47786,1.49959-2.20374.43061-.61.88607-1.2025,1.32824-1.80442.43053-.58607.87808-1.161,1.28148-1.76531.41726-.62507.78787-1.28113,1.185-1.91984a1.61908,1.61908,0,0,1,.28287-.35173c.15588-.13975.06437-.46.364-.48571a5.06975,5.06975,0,0,1,.0536.62337c-.02874.87215-.03714,1.74711-.11262,2.61528A.43822.43822,0,0,0,19.7594,50.74241ZM4.45714,81.12194a1.47883,1.47883,0,0,0,.01028-.467c.03749-.94527.04434-1.8934.12859-2.83459.05583-.62389.22807-1.237.338-1.85677a2.29713,2.29713,0,0,0,.00332-.41143A9.34605,9.34605,0,0,1,5.257,73.56588a6.36373,6.36373,0,0,0,.1466-.93878,25.46889,25.46889,0,0,1,.74528-3.22836,14.442,14.442,0,0,1,.6649-2.42864,9.61509,9.61509,0,0,0,.71384-2.23578c.37119-.35291.30428-.88634.541-1.30947a9.061,9.061,0,0,0,.4079-1.3588c.19038-.52783.47937-1.02237.645-1.55635.44358-1.42989,1.22943-2.70811,1.76672-4.09629.24817-.64128.60932-1.2381.90327-1.8626.23931-.50842.4416-1.03435.68546-1.54041.16618-.34486.3693-.67269.56755-1.00106a6.72257,6.72257,0,0,0,.64474-1.20611,4.828,4.828,0,0,1,.8229-1.4187,25.8106,25.8106,0,0,0,1.49407-2.27022,6.67764,6.67764,0,0,1,.7512-1.0373,10.11327,10.11327,0,0,0,.86493-1.23665c.35666-.4815.73079-.95032,1.07783-1.43855.18244-.2567.63532-.834.96271-1.28319a6.94438,6.94438,0,0,0,.13168,1.49188c.16819.61775-.0017,1.24234.19033,1.85817a1.31453,1.31453,0,0,1-.26181,1.17391c-.605.81675-1.14684,1.68022-1.71836,2.522-.42678.62859-.84952,1.2603-1.29221,1.8776-.54426.75888-1.096,1.513-1.66588,2.25272-.47552.61719-.85925,1.29153-1.28371,1.94076-.80162,1.226-1.43178,2.544-2.11808,3.8325a25.71489,25.71489,0,0,0-1.09653,2.37176c-.09591.23474-.30283.42332-.404.65685-.37452.86492-.73111,1.73775-1.08486,2.61149Q8.54935,65.96864,8.05906,67.237c-.34007.87964-.68541,1.75784-.99776,2.64744-.32519.92618-.63519,1.859-.90929,2.80124-.13917.47846-.17995.98505-.274,1.47726-.1005.52609-.21235,1.05-.31668,1.57541a2.08858,2.08858,0,0,0-.03444.28,13.17378,13.17378,0,0,1-.453,2.81305A13.4636,13.4636,0,0,0,4.819,80.49363c-.075.4978-.15539.9948-.23689,1.49159-.00484.02942-.04076.05376-.06221.08048-.01779-.03186-.05688-.06942-.05013-.09472C4.54534,81.68816,4.33644,81.41582,4.45714,81.12194Zm.01209,5.16445c.25631-.51153-.00307-1.09159.2238-1.61412a3.22385,3.22385,0,0,0,.12747-.71215c.03563-.20014.08043-.39864.11641-.59873.07227-.402.1467-.80378.21-1.20723.05521-.35182.09394-.7062.14425-1.05882.11616-.81447.20514-1.63442.36369-2.44063.0975-.49588.3185-.96615.456-1.45581.17325-.61689.30211-1.24636.47931-1.862.17588-.611.397-1.209.58158-1.81772.16945-.55884.34384-1.11889.46-1.68981a2.5246,2.5246,0,0,1,.21287-.62123,2.62028,2.62028,0,0,0,.15175-.52475c.01366-.0555-.02323-.13936.00593-.17269.476-.5445.36812-1.29215.67118-1.90162.28976-.58273.52174-1.19589.75271-1.80565.17367-.45845.276-.945.46333-1.397.24981-.60266.55194-1.18358.83032-1.77442.23194-.49228.4457-.99394.697-1.47612.337-.64671.68408-1.28966,1.06085-1.91369.3622-.5999.757-1.18106,1.15668-1.75719a17.82522,17.82522,0,0,1,2.10806-2.84156c.829-.801,1.54644-1.71615,2.34919-2.546.30127-.31144,1.17274-1.07642,1.7317-1.55182-.0502.72247-.08558,1.4469-.20562,2.15071-.13574.79591-.134,1.60228-.30156,2.39332a5.3005,5.3005,0,0,0-.095.84666c-.00754.00223-.01272.001-.0208.004a10.97361,10.97361,0,0,0-1.06792,1.04321c-.2877.29473-.60532.5637-.86777.87892-.59094.70985-1.1571,1.44034-1.73065,2.16456-.31512.39794-.63881.79017-.93317,1.20313-.33195.46572-.65356.94094-.946,1.4321a9.97819,9.97819,0,0,0-.8159,1.54352,21.52318,21.52318,0,0,0-1.09247,2.43457,8.62467,8.62467,0,0,1-.63773,1.26256c-.34838.79671-.66474,1.60749-.99042,2.414-.31212.773-.626,1.54539-.92652,2.32291-.32683.84554-.58262,1.72392-.97415,2.53754a17.43648,17.43648,0,0,0-.91511,2.38656,28.48485,28.48485,0,0,0-.97152,2.89793,24.31745,24.31745,0,0,1-.81254,2.71977,2.65065,2.65065,0,0,1-.34592.56207,1.69079,1.69079,0,0,0-.366,1.15c.01656.13819-.11831.29757-.19463.4415-.0168.03169-.07959.039-.1212.0575C4.48271,86.35681,4.45646,86.31183,4.46923,86.28639Zm14.664-28.3109c-.0098.026-.02.05187-.02814.07794C19.093,58.04745,19.10558,58.01852,19.13323,57.97549Zm-2.9275,8.29208c-.04457.06312-.12289.10368-.1628.16866q-.96439,1.56984-1.92163,3.14411c-.81723,1.347-1.6596,2.68-2.43095,4.05284a7.0576,7.0576,0,0,0-.93792,1.72824,1.34116,1.34116,0,0,1-.32878.56494,7.65991,7.65991,0,0,0-.89288,1.4566c-.68884,1.16444-1.369,2.334-2.05266,3.50152-.11086.18931-.316.74152-.43624.92466-.01883.02869-.74623,1.37554-.79932,1.38173.01-.04159.60873-1.65005.61513-1.69218A26.85236,26.85236,0,0,1,7.9883,78.45677c.33894-1.19062.965-2.28036,1.19441-3.50732a2.36487,2.36487,0,0,1,.22655-.434c.202-.46514.39527-.934.59063-1.402.37677-.90254.79877-1.78952,1.11758-2.71212.42881-1.24095,1.18013-2.332,1.59044-3.57671a14.88233,14.88233,0,0,1,.937-1.69589c.17676-.27316.273-.58991.4339-.88026a39.0278,39.0278,0,0,1,2.822-4.05689A16.22069,16.22069,0,0,1,18.708,58.35866c.04229-.04164.13066-.03649.19761-.05311a1.17183,1.17183,0,0,1-.00013.20055c-.13539.79776-.48851,1.541-.561,2.35975-.02762.3121-.3006.60485-.31868.91478a4.15946,4.15946,0,0,1-.253,1.13714c-.24355.70344-.42631,1.43236-.72531,2.11058A7.67993,7.67993,0,0,1,16.20573,66.26757Zm.02953,1.45949a.45755.45755,0,0,1-.05265.21119,14.31527,14.31527,0,0,0-1.04713,2.62169,36.99379,36.99379,0,0,1-1.62008,3.56555c-.4617,1.04509-.99368,2.06113-1.53492,3.06833a9.04022,9.04022,0,0,1-1.05343,1.61627c-.39546.46137-.56657,1.03557-.92413,1.50662-.212.27926-.39533.58025-.59155.87145-.914,1.06962-1.54793,2.23984-2.36624,3.274a9.71057,9.71057,0,0,1-1.22306,1.13153c-.02449.02181-.12139.00046-.15-.03167a.1743.1743,0,0,1-.00657-.15305c.23113-.51209.44734-1.03253.70966-1.52845.2396-.45293.5546-.866.79406-1.319a22.37058,22.37058,0,0,1,1.48409-2.2667,7.23829,7.23829,0,0,0,.40314-.656c.41052-.75064.80436-1.51053,1.22218-2.257.37494-.66987.76976-1.32872,1.16188-1.98882.41156-.69276.83057-1.38109,1.24594-2.07158.65132-1.08273,1.309-2.16173,1.95084-3.25.35186-.59655.67578-1.20956,1.01462-1.81384.1162-.20726.235-.4134.36355-.61306a.16506.16506,0,0,1,.14862-.04745A.16109.16109,0,0,1,16.23526,67.72706ZM5.45659,88.07171c-.01862.01848-.07008.00389-.107.00389a.16481.16481,0,0,1-.1766-.05188l.29927-.0609C5.46831,88.00042,5.47737,88.05109,5.45659,88.07171Zm-.67551-.37153a1.24456,1.24456,0,0,1-.16546.11243c-.01045-.05453-.01654-.11032-.03206-.16336-.0981-.3353.1461-.50438.34618-.67928a19.77892,19.77892,0,0,1,1.5292-1.284,9.32394,9.32394,0,0,0,1.915-2.25828c.7949-1.06247,1.55291-2.15159,2.35226-3.21055.16194-.21452.23555-.49375.384-.72088.2842-.435.628-.83411.88251-1.28457.32075-.5678.56589-1.17772.8632-1.75949.54639-1.06919,1.12562-2.12192,1.65649-3.19859a31.92107,31.92107,0,0,0,1.37968-3.1359c.33624-.9188.73272-1.81543,1.074-2.73249a6.49594,6.49594,0,0,0,.4696-1.39983,2.98176,2.98176,0,0,1,.36349-.9006,7.69566,7.69566,0,0,0,.43449-1.41109c.25866-.85756.38729-1.74734.67762-2.60266.24107-.71018.33915-1.46843.50881-2.2035.14853-.6435.32257-1.28142.45778-1.92757a5.83527,5.83527,0,0,0,.12408-1.06577,15.634,15.634,0,0,1,.35719-2.79637,1.19247,1.19247,0,0,0,.00187-.17622,22.5695,22.5695,0,0,1,.13254-2.36173,34.83249,34.83249,0,0,0,.10224-3.72c.00032-.00629.00009-.01268.00027-.019V46.713c-.00086-.03882-.00148-.07749,0-.11562V45.38917a20.72748,20.72748,0,0,0-.34237-2.99756,8.06333,8.06333,0,0,1-.12893-1.243,7.32345,7.32345,0,0,0-.70248-2.59284,3.87947,3.87947,0,0,1-.1228-.41971,8.69634,8.69634,0,0,0-.84181-1.71175c-.13858-.21728-.175-.49794-.41446-.65708-.0148-.00982.03787-.13522.07394-.19838.00964-.0169.07462-.007.11316-.00187.57575.0775,1.16157.11253,1.72458.24465a21.83833,21.83833,0,0,1,2.78383.80415,2.19271,2.19271,0,0,1,.98665.72286A6.63687,6.63687,0,0,1,24.962,40.24237a15.17669,15.17669,0,0,1,.24,1.78652c.05986.79909.24149,1.58823.33246,2.386a6.6959,6.6959,0,0,1,.096,1.88748,15.157,15.157,0,0,1-.29822,2.69325,10.52189,10.52189,0,0,0-.26741,1.9517c-.0906.58388-.233,1.15954-.33677,1.74163a8.61992,8.61992,0,0,0-.12542,1.00681,17.81179,17.81179,0,0,1-.51213,2.55734c-.17752.8579-.47233,1.69121-.659,2.54766a15.61113,15.61113,0,0,1-.65615,1.8484c-.46569,1.32241-1.13427,2.55167-1.70989,3.82353-.3962.8754-.76986,1.76126-1.18005,2.63-.3646.77214-.75654,1.53188-1.15473,2.28743-.17939.34041-.39951.65977-.60832.98406-.15039.23358-.31267.45953-.46965.68887-.33286.68607-.669,1.2525-.99776,1.82317-.41945.72808-.83974,1.45583-1.24717,2.19064a17.9925,17.9925,0,0,1-1.493,2.3262,18.98889,18.98889,0,0,0-1.08521,1.60863,9.89336,9.89336,0,0,1-1.2897,1.821c-.3925.3959-.76383.81443-1.12444,1.24-.551.65019-1.07731,1.32121-1.62758,1.972a9.17229,9.17229,0,0,1-1.69721,1.55811,2.54953,2.54953,0,0,0-.275.186C6.1354,86.42375,5.45982,87.06365,4.78108,87.70018ZM31.579,48.50144l.12058-.07151-.12173.07223Zm.28781-.1707a18.27755,18.27755,0,0,1,1.68849-.92626,21.34753,21.34753,0,0,1,3.7359-1.63717,7.64258,7.64258,0,0,1,2.17545-.43c.406.01839.3984.01313.32164.44185-.17248.96337-.43355,1.92226-.54823,2.87993a10.9824,10.9824,0,0,1-1.004,3.18566c-.4294.96284-1.029,1.84941-1.54456,2.77458-.10515.18869-.156.40709-.255.59986-.56775,1.10489-1.15613,2.197-1.82316,3.248-.87787,1.38317-1.86752,2.685-2.83789,4.001-.42457.5758-.89211,1.1197-1.32657,1.68845-.69488.90967-1.45992,1.75744-2.2399,2.5933-.26032.279-.49042.58626-.75262.86331-.86874.918-1.727,1.847-2.62358,2.7372q-2.78578,2.76609-5.61374,5.48937c-.5852.56095-1.27926,1.00708-1.878,1.55545-.482.44147-.87947.97382-1.34345,1.43675-.5479.54662-1.14277,1.0463-1.68778,1.59562a16.68539,16.68539,0,0,1-1.52743,1.28608c-.61323.486-1.1871,1.02159-1.78085,1.53242-.21275.18307-.4418.3477-.64921.53636-.54328.49418-1.05185,1.03073-1.62465,1.48714a9.66306,9.66306,0,0,1-1.83643,1.50062,1.15308,1.15308,0,0,1-.2426.12069c-.0535.00982-.128-.04263-.17548-.08623-.013-.01194.02318-.11127.06033-.13915.59744-.44882,1.22524-.86178,1.78958-1.34846a8.96647,8.96647,0,0,0,.96935-1.122c.24034-.29034.44375-.61588.70891-.88029a29.91507,29.91507,0,0,0,3.65186-4.60938c.38369-.57236.8249-1.1063,1.20631-1.68008.29271-.44031.532-.91607.7965-1.37522.90527-1.5714,1.77828-3.161,2.7801-4.67636.473-.71542.87079-1.48088,1.295-2.228.12524-.22065.2242-.45622.33519-.68494.37777-.84872.64763-1.66325,1.02873-2.42187.4242-.84437.82434-1.701,1.2595-2.54042.33321-.64276.46144-.78107.79546-1.47753a8.5026,8.5026,0,0,1,.64642-.98437c.0626.01161.3733-.48127.39022-.536.32355-.60518.61149-.771.993-1.37972.29663-.47335.6603-.90447.99093-1.3567q.627-.85755,1.24784-1.71954c.28115-.39216.56326-.7842.82811-1.18736.34326-.52244.68755-1.04572.99827-1.58764.27989-.48819.51267-1.00327.77172-1.50365.06738-.13017.15453-.25021.23394-.374.31806-.49605,1.28613-2.11632,1.59592-2.61747A.34662.34662,0,0,0,31.86684,48.33074Zm.00157-.00335.00225-.0048C31.91493,48.29666,31.91519,48.2981,31.86841,48.32739Zm-1.61359,1.4695a16.88829,16.88829,0,0,0-1.0737,1.90641c-.43453.78675-.93044,1.54042-1.41678,2.2975-.45925.71493-.92053,1.43014-1.41716,2.11908-.60257.83593-1.24678,1.64173-1.86417,2.46718a5.75174,5.75174,0,0,0-.29651.52309.60368.60368,0,0,1-.12272.11516c-.01778-.05148-.05848-.10727-.04969-.1537.05819-.30779.12873-.61318.192-.92.09317-.45214.17021-.9081.27924-1.35635.09894-.407.24167-.80312.34657-1.20886a5.7523,5.7523,0,0,0,.32906-1.50016,1.79155,1.79155,0,0,1,.63075-1.27838,15.47055,15.47055,0,0,1,3.129-2.5255c.47621-.32092.94561-.65192,1.42172-.973.15884-.1071.30483-.20429.4414-.2945C30.54932,49.36267,30.332,49.692,30.25482,49.79689Zm9.82042-8.57356a.43471.43471,0,0,1,.15774.03219,9.87134,9.87134,0,0,1,2.33013,2.05572c.3343.43071.62931.88273.928,1.33167a2.60477,2.60477,0,0,1,.40161,1.35572,4.08525,4.08525,0,0,1-.08654,1.48631,4.56148,4.56148,0,0,0-.13133,1.18167,13.36719,13.36719,0,0,1-.55567,2.71175,19.19994,19.19994,0,0,1-.68386,2.4252c-.42339,1.0212-.86741,2.0379-1.37513,3.019a30.1381,30.1381,0,0,1-1.75877,3.03507,20.36287,20.36287,0,0,1-2.3463,3.09426c-.39381.39446-.74924.827-1.12729,1.23745-.95289,1.03475-1.89636,2.07863-2.8673,3.09626q-1.17424,1.23069-2.40717,2.405c-.59495.56662-1.21938,1.105-1.85783,1.62243-.57991.47-1.20272.88669-1.79447,1.34266-.31719.24442-.61042.52023-.91148.78522-.36006.317-.71349.64151-1.0759.95575-.85065.73762-1.7059,1.46994-2.55749,2.20648-.60718.52518-1.20276,1.06419-1.82027,1.57685-.35811.2973-.75222.55091-1.12451.83165-.19658.14823-.36606.33675-.57364.46531-1.09137.67584-2.19348,1.3344-3.28591,2.00853-.25343.1564-.48376.35022-.72471.52682-.56494.4472-1.06717.84072-1.57809,1.22259a16.05849,16.05849,0,0,1-1.88385,1.41742c-.36939.19994-.74293.39618-1.09286.627-.49633.32748-.96438.6977-1.45962,1.027-.5663.37651-1.14653.73241-1.72627,1.08819a5.06779,5.06779,0,0,1-.63132.32189c-.0544.02362-.14085-.0266-.21257-.04287a.6267.6267,0,0,1,.10592-.12325c.54969-.3762,1.11335-.73323,1.64905-1.12823.39732-.29294.76665-.62563,1.13514-.95548.84617-.75746,1.66914-1.54154,2.53-2.28174.80212-.68967,1.67045-1.30394,2.45553-2.01147.79536-.71677,1.51221-1.51987,2.28681-2.26073.52239-.49963,1.08515-.957,1.63021-1.43292.05715-.04989.11939-.09416.17457-.146.67791-.63733,1.36138-1.269,2.03093-1.915,1.37526-1.32693,2.73359-2.67154,4.11733-3.98949.79373-.756,1.66123-1.43724,2.42625-2.21986.7146-.731,1.33589-1.553,2.0019-2.33189.28628-.33477.56959-.67344.87528-.99a34.29641,34.29641,0,0,0,2.51071-3.07487c.76262-.99841,1.4288-2.06582,2.25514-3.022a12.95971,12.95971,0,0,0,1.34939-2.08273,17.98847,17.98847,0,0,0,1.5571-3.00375,7.056,7.056,0,0,1,.85793-1.46683,17.807,17.807,0,0,0,1.69115-3.83091,5.96,5.96,0,0,0,.14155-1.06065c.14241-.89147.36209-1.766.57138-2.64364a7.52423,7.52423,0,0,1,.22155-.91,1.5486,1.5486,0,0,0-.07348-1.00518,13.8179,13.8179,0,0,0-.36774-1.67293c-.11209-.22784-.22207-.4572-.31929-.69157C40.03427,41.368,40.06761,41.29031,40.07524,41.22333Zm-2.2591-.47893a.70922.70922,0,0,0,.209-.06228.656.656,0,0,1,.77025.17569,5.715,5.715,0,0,1,1.02345,1.75583c.29366.56833.065,1.15776.30644,1.7016.09584.21579-.125.31792-.35432.31924a4.13752,4.13752,0,0,0-1.24921.10569c-.54211.16913-1.105.27165-1.65918.40216a16.20413,16.20413,0,0,0-2.33467,1.04293A31.02969,31.02969,0,0,0,31.25,47.93364a14.703,14.703,0,0,0-2.12983,1.40472c-.53219.43025-1.13926.76692-1.68129,1.18624a5.58825,5.58825,0,0,0-1.63612,1.43556.55363.55363,0,0,1-.16635.16471.46724.46724,0,0,1-.15721.039.5986.5986,0,0,1-.02524-.20016c.06124-.26752.13532-.53207.20472-.79771a8.97662,8.97662,0,0,1,.32247-2.21981,4.20477,4.20477,0,0,0,.13958-1.11717.86239.86239,0,0,1,.398-.83738,2.92085,2.92085,0,0,0,.62117-.60871,7.23313,7.23313,0,0,1,1.52221-1.162c.58-.39681,1.15655-.79991,1.75116-1.174.65088-.40942,1.31171-.805,1.98463-1.17686.74831-.41354,1.50236-.82106,2.27709-1.18133A8.85067,8.85067,0,0,1,37.81614,40.7444ZM51.072,1.25794c-.10223.32931-.23238.65-.334.97943-.24165.78354-.47426,1.5699-.7073,2.35606-.04687.15809-.08313.3196-.11806.48087a7.50758,7.50758,0,0,1-.17283.81193q-.4868,1.44521-1.00827,2.87862a10.41289,10.41289,0,0,0-.56853,1.46771c-.18737.95792-.61634,1.83491-.83339,2.7786-.23336,1.01467-.83065,1.89866-1.047,2.923a10.58143,10.58143,0,0,1-.37371,1.13875c-.48361,1.44795-.95038,2.90181-1.45674,4.34173-.29455.83759-.64239,1.65716-.96571,2.48436-.4748,1.21478-1.03847,2.39557-1.58572,3.58093-.21354.46248-.51118.88618-.72343,1.34915a6.579,6.579,0,0,1-.78808,1.38409,6.14583,6.14583,0,0,0-.63081,1.08917c-.50342,1.01107-1.124,1.95573-1.6023,2.98483-.50621,1.08924-1.15472,2.11187-1.72744,3.17095-.18944.35031-.3262.72871-.50558,1.085-.25376.504-.81395,1.76777-1.07367,2.26891-.01313.02535-.02668.05051-.039.0755a6.16881,6.16881,0,0,0-1.0135.4653c-1.41822.837-2.89214,1.57961-4.25563,2.51117a.52588.52588,0,0,1-.19892.03654.68231.68231,0,0,1,.06086-.23967c.15607-.21337.353-.39958.491-.62291.443-.71667.86716-1.445,1.29772-2.1694.393-.66122.77519-1.32916,1.18084-1.98254.28279-.4555.64751-.86609.88655-1.34154.44606-.88714,1.00475-1.7037,1.49313-2.56182a6.5594,6.5594,0,0,0,.92725-1.91211,2.46787,2.46787,0,0,1,.66664-1.19478,1.59126,1.59126,0,0,0,.25927-.42034q.59549-1.254,1.17874-2.51382c.08411-.18072.149-.37064.23781-.54884a11.15486,11.15486,0,0,1,1.0298-2.16519,1.3152,1.3152,0,0,0,.14579-.35015q.53036-1.36971,1.05982-2.73978c.43169-1.11623.86618-2.23138,1.29428-3.349.44768-1.16859.88492-2.34118,1.33509-3.5088.25434-.65964.52556-1.31278.78918-1.96883s.55365-1.303.78459-1.97037A14.83129,14.83129,0,0,0,45.47523,9.4613c.05177-.39421.28327-.77158.29981-1.16225a14.42578,14.42578,0,0,1,.4643-2.17357A10.314,10.314,0,0,1,46.713,4.32592a4.43021,4.43021,0,0,0,.1365-1.23851,1.09688,1.09688,0,0,1,.6486-.95943,12.95993,12.95993,0,0,0,3.32051-1.07846,1.235,1.235,0,0,1,.24159-.06723A.83186.83186,0,0,1,51.072,1.25794ZM35.40115,87.98731a.35693.35693,0,0,1-.00168.17828l-.073-.0201A.2442.2442,0,0,1,35.40115,87.98731Z"/></g></g></svg>