<svg xmlns="http://www.w3.org/2000/svg" viewBox="0 0 148.67743 34.26968"><title>bow-3-iso</title><g id="Layer_2" data-name="Layer 2"><g id="bow-3-iso"><path id="void" d="M148.36558,24.09558a2.77083,2.77083,0,0,1-.51-.42c-.17-.19-.26-.32-.47-.58-.2-.26-.58-.75-.81-1.05s-.34-.5-.59-.81c-.24-.32-.54-.64-.82-1-.27-.37-.54-.74-.82-1.18s-.65-1.01-.93-1.49005c-.09-.16-.2-.33-.28-.49a12.88607,12.88607,0,0,0-.79-1.35c-.28-.41-.47-.76-.72-1.18a5.459,5.459,0,0,1-.58-1.24,13.97522,13.97522,0,0,0-.74-1.80005.64052.64052,0,0,1-.01-.68c.51-.7,1.07-1.41,1.61005-2.1.12-.16.26-.31.37994-.45.47-.57.98005-1.2,1.43006-1.74a13.99153,13.99153,0,0,0,1.22-1.72c.33-.55.73-1.17,1.02-1.59.29-.41.46-.58.69-.9s.43-.65.63-.91c.19-.27.46-.46.6-.66.14-.21.21-.27.18-.49s-.11-.36-.4-.19a2.17861,2.17861,0,0,1-1.06.27c-.46.01-.96.09-1.54.11s-1.41.05-2.07.1c-.66.06-1.35.18-2.03.25s-1.39.13-2.08.19995-1.34.13-2.04.21-1.38.19-2.12.23-1.51.17-2.29.25c-.35.04-.64.07-1.06.15-.43.07-1.07.2-1.57.28-.5.09-1.32.23-1.76995.31995a8.59244,8.59244,0,0,1-1.12.25c-1.07.01-2.45.03-3.39.12s-1.85.13-2.57.18005-1.3.05-1.78.09c-.48.03-.67.11-.97.13-1.03.08-2.11.1-3.04.17a20.86846,20.86846,0,0,1-2.46.14,7.17974,7.17974,0,0,0-.91.09c-.73.07-1.41.17-2.16.19s-1.55-.03-2.3-.03a16.66486,16.66486,0,0,0-2.12,0c-.79.09-1.8.21-2.65.28-.32.03-.67.07-1,.1-.32.04-.65.08-.97.11-.81.08-1.47.11-2.31.24-.85.12005-1.87.38-2.76.5-.9.11-1.72.15-2.65.2-.47.03-.75.03-1.36.08s-1.37.06-2.19.09a15.80672,15.80672,0,0,1-2.96-.14c-.53-.09-1.24-.2-1.74-.29a3.04688,3.04688,0,0,0-1.34-.03c-.46.12-.67005-.14-.89-.48-.21-.34-.35-.56-.74-.63-.4-.06-.73-.12-1.13-.15-.95-.06-1.7-.11-2.71-.11-1.02,0-2.25.02-3.33-.04-.58-.03-1.21-.00995-1.81,0-1.79.04-3.58.15-5.37.27a10.60112,10.60112,0,0,0-1.25.13c-.43.07-.78.05-1.24.1a18.25883,18.25883,0,0,0-3.35.84.23836.23836,0,0,0-.11.06.848.848,0,0,0-.3.1,11.005,11.005,0,0,1-2.07.62005c-.43.03-.61-.01-.9,0-.71.03-1.34.08-2.02.1-.67.02-1.29.03-1.97-.01a17.0565,17.0565,0,0,0-2.02-.07,1.47919,1.47919,0,0,1-.3-.01c-.85-.12-1.9-.21-2.7-.25995-.8-.06005-1.43-.15-2.15-.24005s-1.49-.21-2.17-.27c-.67-.06-1.37-.04-1.96-.07-.57995-.02-1.17-.06-1.63995-.09a8.24621,8.24621,0,0,0-.96-.05c-.41,0-.73-.08-1.19-.07-.47.02-1.06-.04-1.58-.03-.51.02-1.27.02-1.74.00995a9.52594,9.52594,0,0,1-1.11-.05,4.76075,4.76075,0,0,1-.97-.12,6.76048,6.76048,0,0,0-1.56006-.13c-.43,0-.62994-.02-1.04-.02-.41-.01-.72-.05-1.21-.04s-1.12994.08-1.7.06c-.94-.03-1.9-.11-2.88-.12s-2.06-.12-3.04-.22c-.99-.09-2.03-.21-2.98-.32s-1.79-.21-2.71-.33c-.56-.07-1.09-.14-1.65-.22s-1.02-.18-1.61-.25-1.04-.09-1.73-.19-1.47-.21-2.31-.32c-.83-.12-1.91-.3-2.86-.34-.94-.04-2.06-.22-3.01-.31s-1.82-.05-2.75-.14a.337.337,0,0,0-.25.06c.17-.01.38-.01.47.14a1.191,1.191,0,0,1,.15.32.75682.75682,0,0,0,.04.11c-.1,0-.2-.00995-.30005-.00995-.09-.01-.1-.05-.21-.08s-.3-.15-.26-.32a.27342.27342,0,0,1,.11-.16h-.01c-.16.01-.13995.28-.12.37005a.92924.92924,0,0,0,.05.21,19.00193,19.00193,0,0,0,1.08,1.85c.24.31995.39.74.63,1.06.46.61.9,1.23,1.34,1.83.66.91,1.33,1.80005,2.01995,2.67.9,1.12,1.86005,2.18,2.79,3.29.24.28.25.35,0,.7-.52.71-1,1.34-1.52,2.18s-1.14,1.93-1.69,2.84c-.25.41-.56.85-.83,1.28-.69,1.13-1.38995,2.3-2.1,3.42-.49.77-1.02,1.53-1.53,2.27a4.04883,4.04883,0,0,0-.34.7c-.06.19-.13.27-.01.39.11.11.35.06.48,0a4.47178,4.47178,0,0,1,1.43-.39c.5-.05,1.07-.17,1.54-.19.47-.03.84-.16,1.27-.16.96-.00995,1.84,0,2.8-.03a25.70781,25.70781,0,0,1,2.89.16,31.77353,31.77353,0,0,1,3.26.51c.9.18,1.42.31,2.2.46.4.07.73.08,1.09.14.85.14,1.66.29,2.49.42,1.3.2,2.58.4,3.88.56a13.55147,13.55147,0,0,0,1.8.08c.6-.01,1.15-.09,1.76-.08a.24666.24666,0,0,1,.26.16,3.591,3.591,0,0,1,.18.6,17.38907,17.38907,0,0,0,.6,2.14,3.43533,3.43533,0,0,0,.29.54,4.90338,4.90338,0,0,0,1.23,1.15,3.02978,3.02978,0,0,0,.86.48,16.90863,16.90863,0,0,0,2.76.77c.43.08.77.08,1.27.13s1.06.11,1.65.14,1.25.07,1.91.04c.66-.02,1.43-.12,2.13-.17.06-.01.08.01.24.01.15-.01.64-.03.85-.06.22-.04.4-.15.6-.18,1.09-.16,2.18006-.3,3.26-.54a8.68586,8.68586,0,0,0,1.12-.27,14.0396,14.0396,0,0,1,2.19-.55c.07-.02.15-.01.2-.03a15.17556,15.17556,0,0,1,1.9-.64c.56-.19,1.09-.4,1.56-.56.47-.15.8-.25,1.2-.38.4-.14.46-.17.91-.32.44-.14,1.08-.39,1.61-.58.86-.3,1.87-.6,2.75-.82.89-.22,1.71-.35,2.59-.51.33-.06.65-.08.99-.12a.66919.66919,0,0,1,.77.27c.02.02.04.06.08.08a.08647.08647,0,0,1,.03-.06c.1-.12.05-.17.29-.19a.23561.23561,0,0,1,.02.08.19028.19028,0,0,1-.24.22.232.232,0,0,1-.1-.04c.01.08.15.13.24.14.81.07,1.97.21,2.73.23.75.02.97-.09,1.71-.05.73.03,1.59.03,2.41,0,.81-.02,1.77-.06,2.61-.09.06,0,.15-.03.2-.01a3.369,3.369,0,0,0,1.05.04c.34-.01.71.03,1.03.03a4.10207,4.10207,0,0,1,.94.04,3.99117,3.99117,0,0,0,.75.08c.65.00995,1.18-.02,1.84-.01a11.087,11.087,0,0,0,1.99-.03,16.8141,16.8141,0,0,0,2.4-.32.67027.67027,0,0,0,.43-.36c.08-.18.19-.49.27-.64.09-.13995.03-.13.17-.19a.87246.87246,0,0,1,.53.01,15.80622,15.80622,0,0,0,1.71.64c.49.16.56.26,1.02.42.46.15.78.2,1.37.37.59.18005,1.5.58,2.21.75,1.04.26,2.34.68005,3.31,1.01a24.97338,24.97338,0,0,0,2.68.67c.6.14,1.18.21,1.73.31.55.11,1.04.22,1.54.31a12.26286,12.26286,0,0,1,1.35.23c.5.13,1.23.21,1.72.28.48.07.69.05,1.16.13a13.71726,13.71726,0,0,0,1.6.18,9.24879,9.24879,0,0,0,1.39-.06995c.49-.05,1.25-.04,1.68-.1a8.33123,8.33123,0,0,1,.99-.01,4.17866,4.17866,0,0,1,.93-.03,3.78063,3.78063,0,0,0,.88-.05,3.60437,3.60437,0,0,0,.95-.11005,6.26589,6.26589,0,0,1,1.31-.17,3.27879,3.27879,0,0,0,.94-.15c.45-.13.8-.25,1.42-.48a9.12814,9.12814,0,0,0,2.3-1.29.55078.55078,0,0,0,.18-.6c-.05-.19-.07-.14-.03-.28.27-.78.4-1.62.6-2.4.08-.34.16-.75.26-1.04.1-.28,0-.17.29-.22.3-.05.8-.02,1.13-.08.34-.05.53-.12.9-.18s.96-.11005,1.35-.15c.39-.05.49-.08.91-.15.43-.06.92-.15,1.46-.22s1.12-.09,1.79-.19a19.53394,19.53394,0,0,1,2.45-.28c.71-.02,1.16-.08,1.84-.11.69-.03,1.53-.09,2.22-.1.7,0,1.33.1,2.02.11s1.37.03,2.06.07,1.39.1,2.08.13a2.649,2.649,0,0,0,.28.02,16.1056,16.1056,0,0,1,2.19-.09c2-.01,4-.12,5.96,0,.32.02.34-.09.33-.33S148.54557,24.22559,148.36558,24.09558Zm-5.92-7.66c.02,0,.13.02.13.05,0,.02-.14.02-.15.01A.03833.03833,0,0,1,142.4456,16.43561Zm-23.36-12.87005c-.01.02-.07-.02-.06-.04C119.04557,3.51557,119.09562,3.55561,119.08561,3.56556Z" style="fill:#fff"/><path id="fill2" d="M148.36558,24.09558a2.77083,2.77083,0,0,1-.51-.42c-.17-.19-.26-.32-.47-.58-.2-.26-.58-.75-.81-1.05s-.34-.5-.59-.81c-.24-.32-.54-.64-.82-1-.27-.37-.54-.74-.82-1.18s-.65-1.01-.93-1.49005c-.09-.16-.2-.33-.28-.49a12.88607,12.88607,0,0,0-.79-1.35c-.28-.41-.47-.76-.72-1.18a5.459,5.459,0,0,1-.58-1.24,13.97522,13.97522,0,0,0-.74-1.80005.64052.64052,0,0,1-.01-.68c.51-.7,1.07-1.41,1.61005-2.1.12-.16.26-.31.37994-.45.47-.57.98005-1.2,1.43006-1.74a13.99153,13.99153,0,0,0,1.22-1.72c.33-.55.73-1.17,1.02-1.59.29-.41.46-.58.69-.9s.43-.65.63-.91c.19-.27.46-.46.6-.66.14-.21.21-.27.18-.49s-.11-.36-.4-.19a2.17861,2.17861,0,0,1-1.06.27c-.46.01-.96.09-1.54.11s-1.41.05-2.07.1c-.66.06-1.35.18-2.03.25s-1.39.13-2.08.19995-1.34.13-2.04.21-1.38.19-2.12.23-1.51.17-2.29.25c-.35.04-.64.07-1.06.15-.43.07-1.07.2-1.57.28-.5.09-1.32.23-1.76995.31995a8.59244,8.59244,0,0,1-1.12.25c-1.07.01-2.45.03-3.39.12s-1.85.13-2.57.18005-1.3.05-1.78.09c-.48.03-.67.11-.97.13-1.03.08-2.11.1-3.04.17a20.86846,20.86846,0,0,1-2.46.14,7.17974,7.17974,0,0,0-.91.09c-.73.07-1.41.17-2.16.19s-1.55-.03-2.3-.03a16.66486,16.66486,0,0,0-2.12,0c-.79.09-1.8.21-2.65.28-.32.03-.67.07-1,.1-.32.04-.65.08-.97.11-.81.08-1.47.11-2.31.24-.85.12005-1.87.38-2.76.5-.9.11-1.72.15-2.65.2-.47.03-.75.03-1.36.08s-1.37.06-2.19.09a15.80672,15.80672,0,0,1-2.96-.14c-.53-.09-1.24-.2-1.74-.29a3.04688,3.04688,0,0,0-1.34-.03c-.46.12-.67005-.14-.89-.48-.21-.34-.35-.56-.74-.63-.4-.06-.73-.12-1.13-.15-.95-.06-1.7-.11-2.71-.11-1.02,0-2.25.02-3.33-.04-.58-.03-1.21-.00995-1.81,0-1.79.04-3.58.15-5.37.27a10.60112,10.60112,0,0,0-1.25.13c-.43.07-.78.05-1.24.1a18.25883,18.25883,0,0,0-3.35.84.23836.23836,0,0,0-.11.06.848.848,0,0,0-.3.1,11.005,11.005,0,0,1-2.07.62005c-.43.03-.61-.01-.9,0-.71.03-1.34.08-2.02.1-.67.02-1.29.03-1.97-.01a17.0565,17.0565,0,0,0-2.02-.07,1.47919,1.47919,0,0,1-.3-.01c-.85-.12-1.9-.21-2.7-.25995-.8-.06005-1.43-.15-2.15-.24005s-1.49-.21-2.17-.27c-.67-.06-1.37-.04-1.96-.07-.57995-.02-1.17-.06-1.63995-.09a8.24621,8.24621,0,0,0-.96-.05c-.41,0-.73-.08-1.19-.07-.47.02-1.06-.04-1.58-.03-.51.02-1.27.02-1.74.00995a9.52594,9.52594,0,0,1-1.11-.05,4.76075,4.76075,0,0,1-.97-.12,6.76048,6.76048,0,0,0-1.56006-.13c-.43,0-.62994-.02-1.04-.02-.41-.01-.72-.05-1.21-.04s-1.12994.08-1.7.06c-.94-.03-1.9-.11-2.88-.12s-2.06-.12-3.04-.22c-.99-.09-2.03-.21-2.98-.32s-1.79-.21-2.71-.33c-.56-.07-1.09-.14-1.65-.22s-1.02-.18-1.61-.25-1.04-.09-1.73-.19-1.47-.21-2.31-.32c-.83-.12-1.91-.3-2.86-.34-.94-.04-2.06-.22-3.01-.31s-1.82-.05-2.75-.14a.337.337,0,0,0-.25.06c.17-.01.38-.01.47.14a1.191,1.191,0,0,1,.15.32.75682.75682,0,0,0,.04.11c-.1,0-.2-.00995-.30005-.00995-.09-.01-.1-.05-.21-.08s-.3-.15-.26-.32a.27342.27342,0,0,1,.11-.16h-.01c-.16.01-.13995.28-.12.37005a.92924.92924,0,0,0,.05.21,19.00193,19.00193,0,0,0,1.08,1.85c.24.31995.39.74.63,1.06.46.61.9,1.23,1.34,1.83.66.91,1.33,1.80005,2.01995,2.67.9,1.12,1.86005,2.18,2.79,3.29.24.28.25.35,0,.7-.52.71-1,1.34-1.52,2.18s-1.14,1.93-1.69,2.84c-.25.41-.56.85-.83,1.28-.69,1.13-1.38995,2.3-2.1,3.42-.49.77-1.02,1.53-1.53,2.27a4.04883,4.04883,0,0,0-.34.7c-.06.19-.13.27-.01.39.11.11.35.06.48,0a4.47178,4.47178,0,0,1,1.43-.39c.5-.05,1.07-.17,1.54-.19.47-.03.84-.16,1.27-.16.96-.00995,1.84,0,2.8-.03a25.70781,25.70781,0,0,1,2.89.16,31.77353,31.77353,0,0,1,3.26.51c.9.18,1.42.31,2.2.46.4.07.73.08,1.09.14.85.14,1.66.29,2.49.42,1.3.2,2.58.4,3.88.56a13.55147,13.55147,0,0,0,1.8.08c.6-.01,1.15-.09,1.76-.08a.24666.24666,0,0,1,.26.16,3.591,3.591,0,0,1,.18.6,17.38907,17.38907,0,0,0,.6,2.14,3.43533,3.43533,0,0,0,.29.54,4.90338,4.90338,0,0,0,1.23,1.15,3.02978,3.02978,0,0,0,.86.48,16.90863,16.90863,0,0,0,2.76.77c.43.08.77.08,1.27.13s1.06.11,1.65.14,1.25.07,1.91.04c.66-.02,1.43-.12,2.13-.17.06-.01.08.01.24.01.15-.01.64-.03.85-.06.22-.04.4-.15.6-.18,1.09-.16,2.18006-.3,3.26-.54a8.68586,8.68586,0,0,0,1.12-.27,14.0396,14.0396,0,0,1,2.19-.55c.07-.02.15-.01.2-.03a15.17556,15.17556,0,0,1,1.9-.64c.56-.19,1.09-.4,1.56-.56.47-.15.8-.25,1.2-.38.4-.14.46-.17.91-.32.44-.14,1.08-.39,1.61-.58.86-.3,1.87-.6,2.75-.82.89-.22,1.71-.35,2.59-.51.33-.06.65-.08.99-.12a.66919.66919,0,0,1,.77.27c.02.02.04.06.08.08a.08647.08647,0,0,1,.03-.06c.1-.12.05-.17.29-.19a.23561.23561,0,0,1,.02.08.19028.19028,0,0,1-.24.22.232.232,0,0,1-.1-.04c.01.08.15.13.24.14.81.07,1.97.21,2.73.23.75.02.97-.09,1.71-.05.73.03,1.59.03,2.41,0,.81-.02,1.77-.06,2.61-.09.06,0,.15-.03.2-.01a3.369,3.369,0,0,0,1.05.04c.34-.01.71.03,1.03.03a4.10207,4.10207,0,0,1,.94.04,3.99117,3.99117,0,0,0,.75.08c.65.00995,1.18-.02,1.84-.01a11.087,11.087,0,0,0,1.99-.03,16.8141,16.8141,0,0,0,2.4-.32.67027.67027,0,0,0,.43-.36c.08-.18.19-.49.27-.64.09-.13995.03-.13.17-.19a.87246.87246,0,0,1,.53.01,15.80622,15.80622,0,0,0,1.71.64c.49.16.56.26,1.02.42.46.15.78.2,1.37.37.59.18005,1.5.58,2.21.75,1.04.26,2.34.68005,3.31,1.01a24.97338,24.97338,0,0,0,2.68.67c.6.14,1.18.21,1.73.31.55.11,1.04.22,1.54.31a12.26286,12.26286,0,0,1,1.35.23c.5.13,1.23.21,1.72.28.48.07.69.05,1.16.13a13.71726,13.71726,0,0,0,1.6.18,9.24879,9.24879,0,0,0,1.39-.06995c.49-.05,1.25-.04,1.68-.1a8.33123,8.33123,0,0,1,.99-.01,4.17866,4.17866,0,0,1,.93-.03,3.78063,3.78063,0,0,0,.88-.05,3.60437,3.60437,0,0,0,.95-.11005,6.26589,6.26589,0,0,1,1.31-.17,3.27879,3.27879,0,0,0,.94-.15c.45-.13.8-.25,1.42-.48a9.12814,9.12814,0,0,0,2.3-1.29.55078.55078,0,0,0,.18-.6c-.05-.19-.07-.14-.03-.28.27-.78.4-1.62.6-2.4.08-.34.16-.75.26-1.04.1-.28,0-.17.29-.22.3-.05.8-.02,1.13-.08.34-.05.53-.12.9-.18s.96-.11005,1.35-.15c.39-.05.49-.08.91-.15.43-.06.92-.15,1.46-.22s1.12-.09,1.79-.19a19.53394,19.53394,0,0,1,2.45-.28c.71-.02,1.16-.08,1.84-.11.69-.03,1.53-.09,2.22-.1.7,0,1.33.1,2.02.11s1.37.03,2.06.07,1.39.1,2.08.13a2.649,2.649,0,0,0,.28.02,16.1056,16.1056,0,0,1,2.19-.09c2-.01,4-.12,5.96,0,.32.02.34-.09.33-.33S148.54557,24.22559,148.36558,24.09558Zm-5.92-7.66c.02,0,.13.02.13.05,0,.02-.14.02-.15.01A.03833.03833,0,0,1,142.4456,16.43561Zm-23.36-12.87005c-.01.02-.07-.02-.06-.04C119.04557,3.51557,119.09562,3.55561,119.08561,3.56556Z" style="fill:#9f77ff"/><path id="fill1" d="M148.67543,24.51794c-.00611-.24163-.12818-.28764-.307-.42177a2.9504,2.9504,0,0,1-.51447-.41866c-.17016-.19128-.26007-.31713-.46411-.58071s-.58526-.74764-.81366-1.0495-.34143-.4986-.58624-.81306-.54736-.63743-.82318-1.00289-.54-.73934-.82288-1.1763-.653-1.00562-.93-1.49093c-.08771-.1536-.19775-.32737-.28027-.48993a12.46345,12.46345,0,0,0-.7837-1.34377c-.28063-.41147-.47-.76466-.72454-1.18778a4.98571,4.98571,0,0,1-.58173-1.23876,12.96718,12.96718,0,0,0-.7406-1.79355.65254.65254,0,0,1-.00568-.68115c.51-.70619,1.06989-1.412,1.60724-2.10566.12-.15493.26172-.30309.3855-.45291.46314-.56061.97449-1.19335,1.42456-1.7368a13.49824,13.49824,0,0,0,1.22376-1.71732c.3222-.55343.72619-1.16722,1.0169-1.58639s.46466-.58271.69226-.90542.42615-.64517.62317-.91093.46125-.45341.60236-.66215.20764-.2703.17767-.48746-.10022-.35383-.39294-.193A2.17425,2.17425,0,0,1,146.593.345c-.45514.0093-.95685.08724-1.53778.11105s-1.41321.04652-2.071.10332-1.34729.17182-2.02557.244-1.39758.12813-2.08631.19822-1.33514.133-2.03668.21443-1.37793.18481-2.11926.2259-1.51178.17528-2.29089.25637c-.34925.03634-.6352.07168-1.0636.14277s-1.06323.20036-1.5658.28767-1.31872.22741-1.77051.3141a7.27369,7.27369,0,0,1-1.12316.24865c-1.06647.01825-2.44819.03071-3.38874.12485s-1.8515.126-2.568.17644-1.301.0575-1.77936.092-.66913.11162-.97327.13438c-1.02636.07679-2.10809.09867-3.0379.16577a22.62149,22.62149,0,0,1-2.45575.14085,7.48488,7.48488,0,0,0-.90979.09059c-.73059.06689-1.41833.16856-2.16467.19014s-1.54816-.03343-2.30139-.03323a16.3494,16.3494,0,0,0-2.11335-.00109c-.79638.09129-1.80011.21255-2.65112.283-.32294.02675-.6756.06621-1.002.10153s-.64887.0759-.97443.10862c-.81006.08142-1.463.11-2.31183.23688s-1.86279.37986-2.75982.49843-1.71106.15049-2.644.20835c-.46673.029-.75018.03-1.36139.07586s-1.37341.06156-2.19036.09562a16.08137,16.08137,0,0,1-2.9646-.1489c-.52765-.089-1.23035-.20056-1.73664-.28618a3.0693,3.0693,0,0,0-1.34137-.0269c-.46136.11307-.66961-.14783-.88238-.48491s-.355-.56263-.74927-.624-.72693-.12438-1.12756-.15244c-.94464-.06616-1.69947-.11482-2.71161-.1153s-2.24518.02287-3.32984-.036c-.57721-.03129-1.20739-.00727-1.81036.00457-1.78235.035-3.58087.14309-5.36749.269a12.01909,12.01909,0,0,0-1.2511.12155c-.42243.07393-.78021.05706-1.23554.106a18.16263,18.16263,0,0,0-3.34686.83764.28772.28772,0,0,0-.20959.27315c.01245.12437.15136.18863.2561.22689a.4403.4403,0,0,0,.32379-.02782A9.85477,9.85477,0,0,1,64.48756,4.586a50.53813,50.53813,0,0,1,5.18927-.36974c1.11536-.01356,2.17834-.13268,3.292-.12921s2.17877.00238,3.31275.04373c.61712.0225,1.15795-.02905,1.85107.01384s1.60242.02837,2.36084.04264a4.78576,4.78576,0,0,1,.89429.08012.50671.50671,0,0,1,.46429.60182c-.07025.86579-.02637,1.77977-.01141,2.66136.00366.21449-.07544.43325-.06739.64894a36.69,36.69,0,0,1-.04235,3.89759c-.04383.63909-.0047,1.276-.0163,1.91837-.01776.98789-.03485,1.97326.01721,2.9637.11066,2.10666.2619,4.21685.39313,6.32358a.77874.77874,0,0,0,.00781.15564,3.2941,3.2941,0,0,1,.055,1.51041.3775.3775,0,0,0,.09229.3314.82367.82367,0,0,1,.14185.47985,5.44828,5.44828,0,0,0,.13433.67819c.06983.31257.35193.95783.39118,1.32172s.13629.35073-.24066.58534a3.57429,3.57429,0,0,1-1.5307.42546c-.94965.0511-1.9607.09778-2.92408.05813s-1.91314-.01541-2.879-.06276-1.93946-.03015-2.91315-.04589c-.468-.00756-.92993.02949-1.413.01214s-1.16217.04412-1.61029.02172-.74231.00679-1.13379.00012c-.77923-.01326-1.46929.04948-2.25244.084a3.00467,3.00467,0,0,1-.98694-.007,9.77473,9.77473,0,0,0-1.73046-.201c-.34522.0157-.2771.0683-.38453.19154s.09858.20779.20472.21664c.81726.06817,1.96789.20511,2.72754.22434s.97888-.085,1.71167-.04875,1.5957.03119,2.41168.00543,1.76813-.06218,2.6073-.09373a.74255.74255,0,0,1,.20428-.00909,3.32419,3.32419,0,0,0,1.04755.03506c.34631-.0032.711.03671,1.03577.03227a4.14475,4.14475,0,0,1,.93664.04146,3.316,3.316,0,0,0,.75122.07765c.64527.0113,1.18006-.01248,1.842-.00524a11.84142,11.84142,0,0,0,1.99146-.02852,17.89643,17.89643,0,0,0,2.39068-.3218.68241.68241,0,0,0,.42975-.36557c.08948-.18113.19373-.48893.27985-.63441s.02551-.1322.16192-.18752a.81808.81808,0,0,1,.53443.00561,16.4868,16.4868,0,0,0,1.71234.64034c.48224.16218.556.26391,1.01715.41556s.77527.20477,1.36951.379,1.49682.57075,2.21075.74622c1.04108.25587,2.336.67987,3.30585,1.00764a27.12778,27.12778,0,0,0,2.68493.673c.59418.14084,1.179.20659,1.7295.31s1.03662.21447,1.54016.30318.85492.10174,1.35132.235a15.42926,15.42926,0,0,0,1.71246.28022c.48584.06553.6983.04553,1.16724.13234a13.51752,13.51752,0,0,0,1.59265.1726,8.69652,8.69652,0,0,0,1.39355-.06781c.48963-.04886,1.25238-.04135,1.686-.09568a9.12692,9.12692,0,0,1,.98407-.01594,3.89067,3.89067,0,0,1,.928-.02255,3.56113,3.56113,0,0,0,.87958-.05749,3.62436,3.62436,0,0,0,.95465-.10483,7.0769,7.0769,0,0,1,1.308-.17406,3.30453,3.30453,0,0,0,.94226-.14778c.44623-.128.80267-.24846,1.41717-.47406a9.02926,9.02926,0,0,0,2.2981-1.29824.54577.54577,0,0,0,.18664-.59612c-.05639-.18717-.07763-.14553-.02941-.28527.26763-.77542.39459-1.61193.5921-2.39089.08838-.34842.16723-.75693.26806-1.04221s-.00726-.16734.28742-.22212.79437-.0214,1.1297-.07606.53009-.121.89966-.18119.96325-.111,1.3529-.15646.48413-.07876.91107-.14173.91321-.15045,1.4563-.2211,1.12274-.09366,1.78681-.19682a22.33664,22.33664,0,0,1,2.45721-.27853c.70068-.01541,1.15491-.0733,1.83991-.10746s1.52038-.08687,2.21936-.09625,1.33075.09621,2.01709.10593,1.37237.03374,2.06121.07334,1.38727.10026,2.07636.1246a1.81678,1.81678,0,0,0,.27637.01759,17.61062,17.61062,0,0,1,2.19622-.0877c1.99561-.0115,3.99781-.12,5.95954.00162C148.66377,24.86513,148.68159,24.75957,148.67543,24.51794Zm-6.22559-8.07836c.01929-.001.13312.016.12707.04245s-.13806.02588-.15551.0094S142.43055,16.44055,142.44984,16.43958ZM117.28736,3.78079a1.295,1.295,0,0,1,.26606-.03728c.04644.00148.14239.04913.1101.0892s-.15777.02179-.2221.03377a.65453.65453,0,0,1-.32929-.04276C117.07954,3.78246,117.24781,3.79717,117.28736,3.78079ZM115.27723,3.683c.02082.01872-.00445.05563-.02923.05455s-.17218-.02828-.16523-.05936S115.25642,3.66425,115.27723,3.683Zm-5.48193.69644a4.15923,4.15923,0,0,1,1.16241-.2c.25775-.02866.09827.047.08087.1128s-.17749.11095-.27423.14819a4.582,4.582,0,0,0-1.30023.75162c-.38324.32374-.80713.59443-1.18078.91693A26.6452,26.6452,0,0,0,105.953,8.2624c-.39831.4362-.82837.82187-1.2633,1.21236-.07.06285-.174.10665-.20624.18563s-.07361.1693.00171.232.06933.0624.22845.04214.33551-.00623.45294-.27786a3.28814,3.28814,0,0,1,.69886-.81285c.25244-.24913.50445-.54289.7846-.80978.6297-.59991,1.25513-1.18187,1.94721-1.77049.07629-.0649.09405-.05746.29834-.21016a9.534,9.534,0,0,1,.98236-.72042c.36359-.20578.95959-.5299,1.38238-.73978.09058-.04494.22846-.08583.31794-.13924a2.92486,2.92486,0,0,1,1.63922-.35781,26.84435,26.84435,0,0,1,3.10113.23135c.17523.02316.40064-.00492.52967.00778a.257.257,0,0,1,.23608.13912c.02319.0695-.11676.05252-.17194.08424-.51751.29721-1.07849.61352-1.58868.92542s-.782.48295-1.34662.82537-1.3302.81484-1.95471,1.23573-1.35938.941-1.971,1.39a4.41851,4.41851,0,0,0-.59411.50794c-.12769.14441-.07929.12963-.00818.22438s.09436.121.25549.06907a.98514.98514,0,0,0,.5517-.40205,1.14925,1.14925,0,0,1,.42517-.45248c.47412-.33855.95471-.64192,1.44476-.95952,1.40326-.90943,2.85712-1.76592,4.29425-2.61779.30878-.18305.646-.34769.92352-.55172a1.458,1.458,0,0,1,.99939-.08773c.22852.03792.10358.0238.16394.09653s-.03717.08935-.07965.10862a12.2288,12.2288,0,0,0-1.60742.88638c-.53052.34178-.86365.55324-1.48535.90524a15.41431,15.41431,0,0,0-2.08759,1.43569,5.24226,5.24226,0,0,1-.65142.33677c-.54023.31606-1.06476.6885-1.597,1.0342a1.12332,1.12332,0,0,0-.356.372c-.101.16065-.09826.14247-.35333.17876s-.85559-.00738-1.14258.05675a2.68687,2.68687,0,0,1-.96453.00389c-.18018-.05185-.145-.12466-.11426-.1569a18.92049,18.92049,0,0,1,1.46148-1.36629c.57642-.49916,1.43543-1.19471,2.07569-1.63676s1.16864-.709,1.81573-1.089,1.34449-.7925,1.98-1.19637c.05671-.036.17292-.08134.11634-.15232s-.07141-.06965-.239-.09413a1.44474,1.44474,0,0,0-.78625.22,6.40394,6.40394,0,0,1-.55316.39421c-.74841.4694-1.5553.91564-2.26959,1.42014-1.0835.76535-2.12232,1.62611-3.13044,2.443-.40277.32637-.70941.78357-1.0603,1.05365s-.21557.24636-.67993.26-1.21771-.063-1.73663-.01235-.97364-.03665-1.5019-.02675c-.0495.00092-.18408.02163-.15057-.17256a1.5782,1.5782,0,0,1,.364-.74866c.71106-.68133,1.34613-1.2782,2.09961-1.97693a21.7179,21.7179,0,0,1,2.55194-2.08938A9.5126,9.5126,0,0,1,109.7953,4.37942ZM120.619,6.22694c-.8404.59279-1.75373,1.21543-2.60712,1.86063a7.039,7.039,0,0,1-1.934.90891c-.07745.02715-.27.01443-.298-.05619s.07232-.129.14318-.17086c.70777-.41845,1.41547-.83786,2.13385-1.27449s1.46564-.90186,2.18158-1.35726c.07532-.04791.13086-.13122.22675-.12769s.3645-.07259.21851-.19456a.39112.39112,0,0,0-.45069-.08123,2.36839,2.36839,0,0,0-.74518.36786c-.63122.46719-1.1593.80517-1.88116,1.26155s-1.64356,1.04326-2.44977,1.49263c-.06079.03386-.11951-.02444-.19482.15056a1.31217,1.31217,0,0,1-.7652.45724c-.23316.0275-.5014.13976-.64728.1538s-.12463.02635-.18994-.00034.004-.06956.03509-.09265a25.75965,25.75965,0,0,1,2.45807-1.65338c.90277-.52691,1.87867-1.1579,2.81409-1.698a11.41383,11.41383,0,0,1,1.26178-.61826c.095-.03966.30505-.01353.21942-.1525a.42671.42671,0,0,0-.38409-.1729.98282.98282,0,0,0-.48853.14609c-.52557.2961-1.07806.63665-1.576.94014s-.93146.62434-1.41241.91151c-1.12189.66979-2.2193,1.30919-3.30872,2.03279a1.43161,1.43161,0,0,0-.32556.34123c-.11444.14481-.473.16688-.627.21392a1.44033,1.44033,0,0,1-.43433.07281c-.09808-.00755-.272.02321-.26019-.06346s.09668-.07677.25189-.16175.82147-.37273.99384-.447.12463-.09478.13861-.16311-.12934.02365-.17462.0248-.23774.09022-.28888.09505-.1175.04638-.13514.00016-.06829-.03376.02716-.10148a2.44344,2.44344,0,0,1,.3512-.2214,5.23625,5.23625,0,0,0,.72443-.38048,29.38179,29.38179,0,0,1,3.25244-2.10122c.69464-.38584,1.42358-.77908,2.12781-1.15792a1.024,1.024,0,0,0,.10144-.05489.93157.93157,0,0,1,1.06921-.13931,2.07533,2.07533,0,0,1,1.35156.87067,2.986,2.986,0,0,0,.29578.36276c.05774.08433.041.15169-.05274.14672s-.05853-.00322-.19372-.11311A.38353.38353,0,0,0,120.619,6.22694Zm.34924.53261c.02393.09308.04974.0839-.13776.20372a8.7517,8.7517,0,0,1-.89831.53435c-.31647.14848-.81458.36081-1.17786.50219a.29868.29868,0,0,1-.11981-.00838c-.03595-.00746-.10455.05459-.13446.05469-.01392,0,0-.05587.0271-.07472a14.6357,14.6357,0,0,1,1.734-.94259c.14465-.07354.31183-.20437.411-.24S120.94429,6.66647,120.96821,6.75955Zm-14.5708-2.234a1.22045,1.22045,0,0,1,.82751-.22107c.244-.02786.15656.02106.23633.07718s-.07086.09538-.12426.11967a4.49962,4.49962,0,0,0-1.3122.85473c-.4032.38655-.87811.771-1.32532,1.12265a23.51083,23.51083,0,0,0-2.7669,2.59317,4.45179,4.45179,0,0,1-.46857.44049c-.14838.12019-.165.23579-.05566.34185a.60981.60981,0,0,0,.45111.11143c.11706-.01824.09753.04733.06189-.10225a.52891.52891,0,0,1,.23114-.46855,5.2698,5.2698,0,0,0,.40985-.47041c.44165-.45469.87524-.95458,1.33441-1.40315.10724-.10482.22882-.20262.34735-.29763.63928-.51252,1.30688-1.09689,1.95331-1.57327s1.28418-.82793,1.944-1.2471a.87612.87612,0,0,1,.37494-.13865c.1134-.00619.42175-.05493.45135.05155s-.16034.18309-.27179.26168c-.4751.33508-.98315.65138-1.47937,1.03329a15.21259,15.21259,0,0,0-1.62829,1.43493c-.38739.42369-.70929.62749-1.04627.94535a25.42933,25.42933,0,0,0-1.85669,1.97912.45525.45525,0,0,1-.402.20626c-.57562-.00358-1.16992-.04275-1.73877-.07307-.07952-.00424-.21691-.05685-.21576-.12634s.08912-.02587.17792-.10639.46814-.34566.56238-.43527.09918-.15112.07373-.21209-.10321.06421-.17456.06031-.23059.23806-.32654.13517.117-.25506.21607-.323a16.95869,16.95869,0,0,0,2.075-1.99071,21.53288,21.53288,0,0,1,2.0401-1.62942C105.5229,5.05231,106.017,4.798,106.39741,4.52551Zm-.6311-.29c.29944-.042.1347.02595.2561.0688s-.02106.10964-.04889.11741a2.18158,2.18158,0,0,0-1.04657.68425c-.03161.03336-.12134.00553-.16217.03886-.59027.48144-1.1145.94918-1.69409,1.466-.26532.23656-.43842.39256-.76392.69587s-.8338.80155-1.23144,1.15205S100.0268,9.46654,99.6974,9.7811s-.55884.14063-.78974.17221-.11474-.17487-.01605-.28948a8.31816,8.31816,0,0,1,.67645-.60787.85334.85334,0,0,0,.3324-.5574c.00745-.19155.11273-.20813.20465-.29966.70374-.70094,1.51508-1.38774,2.22461-2.033A13.09886,13.09886,0,0,1,104.632,4.59245,3.18376,3.18376,0,0,1,105.76631,4.23546Zm-4.18653.939a4.26122,4.26122,0,0,1,2.2276-.67683c.0517-.00287.1764-.01031.14405.046s-.04126-.00209-.17591.08731a7.306,7.306,0,0,0-.69659.43516c-.50232.41761-1.14453.89883-1.62494,1.33535-1.04779.95207-1.96057,1.91366-2.9104,2.95055-.05743.06268-.04535.1177-.12622.23476a.71032.71032,0,0,1-.57782.215c-.17481-.048-.446-.064-.56836-.10519s-.13672-.02242-.16315-.10633-.02081-.05419.09125-.11815a.74819.74819,0,0,0,.31427-.4525c.0224-.17971.18872-.31665.30585-.44031.47168-.498,1.11267-1.11212,1.56683-1.53891s.65387-.65787,1.06586-1.06557a1.23535,1.23535,0,0,1,.28277-.23989C100.92921,5.60363,101.30647,5.36381,101.57978,5.17445Zm-.24853-.47423a.13014.13014,0,0,1,.14007.04732c.02387.04268-.04412.13482-.08245.1588-.32923.206-.87183.545-1.12928.74581a4.77253,4.77253,0,0,0-.48785.53611c-.77216.71782-1.57739,1.465-2.27484,2.178-.32111.32825-.555.65651-.81409.91252a.68395.68395,0,0,1-.79266.16321c-.24414-.10577-.25659-.0965-.07282-.357s.65814-.81882.88843-1.08325a5.22512,5.22512,0,0,1,.70288-.62109c.50891-.419,1.19574-.9051,1.65765-1.25895s.71546-.61786,1.09931-.92842A2.7871,2.7871,0,0,1,101.33125,4.70022Zm-1.62763.222c.06531-.0024.21387-.01217.22846.05s-.07977.1-.13721.14581c-.3634.29-.70538.53617-1.09534.84337s-.95373.70691-1.32177,1.02649a11.09368,11.09368,0,0,0-.90027.81271c-.34192.35558-.75549.86947-1.09937,1.26868-.04986.05793-.10083.15381-.15918.18307s-.15857.05351-.19329-.00254.01226-.12272.04626-.19339a.89742.89742,0,0,1,.16443-.23257c.65478-.65178,1.2232-1.28839,1.9284-1.92653s1.55951-1.26838,2.312-1.88311A.44583.44583,0,0,1,99.70362,4.92218Zm-1.52819.26558A.48619.48619,0,0,1,98.608,5.0314c.12091.00215.23279-.00951.21057.09266s-.04748.02515-.2127.18081-.57318.46966-.84626.71492c-1.03711.93151-2.10138,1.97457-3.11547,2.96767-.02491.0244-.02881.07-.08332.06808s-.21557.02757-.25757-.02362-.00091-.12552.02814-.17845a5.38645,5.38645,0,0,1,.96362-1.1637c.0738-.07446.14734-.15524.22168-.222.6333-.56841,1.31427-1.151,1.95276-1.68807C97.70558,5.58114,98.01124,5.36111,98.17543,5.18776ZM97.262,5.24a.16679.16679,0,0,1,.15491.079c.025.04466-.02179.0989-.05469.12731-.66125.57182-1.36877,1.17584-2.00244,1.756-.29169.26709-.603.5879-.82562.8323a7.74661,7.74661,0,0,0-.5119.64c-.15473.20564-.2489.2798-.44641.17123s-.37738-.06954-.49732-.28745-.1253-.36274.13013-.59593.71216-.66175,1.01129-.90587.51294-.38485.8288-.62458a9.88029,9.88029,0,0,1,1.00964-.85077A5.54019,5.54019,0,0,1,97.262,5.24Zm-5.04113.77058a1.10286,1.10286,0,0,1,.64776-.27715c.15039.02408.19306-.02249.2815-.01434s.1676-.08111.21441-.02779-.0307.18854-.088.227A12.91782,12.91782,0,0,0,91.443,7.55984c-.06128.06057-.15362.1464-.02209.21673s.21808.11278.3327-.03426a9.90712,9.90712,0,0,1,1.6471-1.57209,4.13793,4.13793,0,0,1,.35931-.2801,1.66268,1.66268,0,0,1,.43121-.2324,2.30154,2.30154,0,0,1,.62079-.09635c.16651.00806.56745-.08962.63117.04088s-.26007.248-.376.35984c-.348.33608-.87561.71588-1.23907,1.0563s-.76374.73817-1.0644,1.06909a.72367.72367,0,0,1-.89251.27267,6.86245,6.86245,0,0,1-.927-.31294c-.30926-.16109-.47918-.29082-.173-.64822s.82727-.78089,1.2066-1.149A1.92978,1.92978,0,0,0,92.22084,6.01059Zm-4.17438.34013c-.10541-.05138.00586-.11689.04083-.14744A1.3935,1.3935,0,0,1,89.18763,5.945c.02075.00134.08911.07325.04407.12184s-.00446.06058-.13092.08265-.49249.28173-.51819.424-.04449.1179.13715.20625.76544-.14057.92743-.2532.0708-.05876.09423-.131-.05127-.02914-.095-.02763-.19751.0801-.2453.08949-.081.0124-.1007-.01727.00885-.08625.03735-.104A3.80075,3.80075,0,0,1,90.563,5.85251c.04053-.0087.15265.03924.1319.10045s-.00184-.00126-.13147.10684S89.838,6.60732,89.704,6.74s-.21539.15424-.17761.275.18719.04838.33862.08687a.65469.65469,0,0,0,.59619-.2947c.1767-.48255.54987-.60053.90814-.90781.03907-.03348.07953-.074.13251-.05968s.37854-.05257.35492.05219-.12347.07115-.2782.21891-.63495.55995-.83471.74984-.21222.31569-.40863.51571-.16834.36582-.58741.17063-1.12085-.5225-1.60949-.74818c-.07068-.03262-.231-.03992-.06653-.15842S88.15187,6.4021,88.04646,6.35072ZM87.02082,5.9666a3.60974,3.60974,0,0,1,.66559.01236c.10077.01741.01886-.0064.02789.04024s-.00238-.06611-.04583.05968-.48657.36575-.63239.26179-.209-.06945-.23236-.18875S86.89588,5.98974,87.02082,5.9666Zm-1.165-.195c.0866-.04383.42315-.02967.49328.06688s.07153.07756-.02624.12325a.60743.60743,0,0,1-.48169-.09621C85.79139,5.77985,85.76924,5.81541,85.85585,5.77158Zm33.48266,17.38785c-.03656.50127-.12213,1.06208-.2074,1.55987-.02655.1551-.141.23775-.2099.35335a.41628.41628,0,0,0-.03949.354c.03919.10784.05408-.09425.06373.03235a1.46885,1.46885,0,0,1-.02161.43628c-.13287.58635-.26752,1.07157-.407,1.70055s-.3086,1.38221-.48566,2.05538c-.02423.092-.11993.15062-.02972.30524a.417.417,0,0,1-.20051.50687,14.69737,14.69737,0,0,1-3.00433,1.24844,15.2645,15.2645,0,0,1-2.28155.38155c-.813.0878-1.90113.21766-2.70246.27847s-1.67688.02037-2.3587.08014a13.29574,13.29574,0,0,1-1.61426.07612,20.47284,20.47284,0,0,1-2.11371-.17454c-.558-.07644-.90167-.07041-1.35638-.12386s-1.0459-.16218-1.38873-.23211a5.10961,5.10961,0,0,0-.75-.16332,14.38912,14.38912,0,0,1-1.93519-.3241c-.58453-.09257-.95758-.17566-1.48358-.30193s-1.03076-.25954-1.55145-.39571-1.02814-.25605-1.54309-.41808c-1.41394-.44486-2.79126-.86565-4.22022-1.31946-.50054-.159-.91546-.36069-1.49487-.5247s-1.42792-.47427-2.02594-.6916-1.13556-.38894-1.71576-.5927a1.46832,1.46832,0,0,0-.23413-.05879.98553.98553,0,0,1-.95862-.95275,6.69017,6.69017,0,0,1-.03131-.67662c-.01117-.20887.04584-.28155.26587-.24182a1.72075,1.72075,0,0,1,.69623.27428,5.77392,5.77392,0,0,0,2.06744.99416c1.09284.30723,2.16834.59944,3.25129.90457.65869.18561,1.31164.37214,1.962.55457a1.454,1.454,0,0,0,.2807.03825c.065.004.0813.00147.09729-.02975s-.04205-.05776-.07385-.0689c-.38892-.1364-.78876-.28127-1.189-.40142-1.576-.47309-3.18762-.94815-4.757-1.39944a5.36087,5.36087,0,0,1-.72906-.29868.3533.3533,0,0,1-.22083-.19519c-.06689-.096-.1903-.27914-.12841-.36217s.23693.01744.34472.04871c.64917.18823,1.46124.46249,2.08393.657s1.09735.32909,1.68255.49882a.76072.76072,0,0,0,.2392.01487c.05865-.002.12274-.01622.12341-.0524s-.07959-.03292-.12372-.04986c-.35229-.13533-.72662-.27957-1.09265-.40318-1.11535-.37665-2.27533-.72024-3.37848-1.10774a7.45181,7.45181,0,0,1-1.194-.6142,1.00851,1.00851,0,0,1-.44769-.83306c-.03674-.28972.042-.24327.27356-.16882.79443.2554,1.45709.51274,2.33118.7749s2.01831.60336,2.93957.88114c.23035.06945.54743.16687.73187.21849a3.0723,3.0723,0,0,0,.44513.07635c.11658.01783.08209-.02592.10712-.05755s-.05383-.02987-.08356-.0393c-.92389-.29323-1.97046-.61376-2.8761-.90744s-1.72784-.58293-2.58856-.883c-.33746-.11763-.67645-.31453-.96881-.39766a.5347.5347,0,0,1-.38147-.494.74606.74606,0,0,1-.00879-.25413c.0058-.09792-.0094-.22048.0603-.26444s.13807.06581.2121.097c.57526.24257,1.14337.555,1.74317.75628,1.19061.39953,2.39489.74861,3.59466,1.12136.43738.13587.88629.25537,1.32843.37651a.42687.42687,0,0,0,.20325-.00416c.05835-.0147.06769-.0566.07867-.09991s-.04858-.09546-.07733-.09931a13.71,13.71,0,0,1-2.317-.64313c-.72278-.23436-1.56031-.46674-2.18439-.718s-1.04907-.38-1.58716-.63477a3.43057,3.43057,0,0,1-1.18249-1.06467c-.03437-.04065.00231-.15128.04388-.21476s.11175.00158.17621.0243c1.23144.43457,2.47339.85511,3.71771,1.24941.46979.14888.96893.22179,1.439.32246.05938.01271.171.01523.17718-.03218s-.09546-.08281-.15729-.10232c-.60937-.19232-1.25024-.37648-1.8717-.56219-.31024-.09272-.63306-.18253-.93518-.29659-.75519-.28508-1.53607-.59822-2.27625-.88358a.58263.58263,0,0,1-.3966-.60131c.00744-.26.11047-.27914.313-.17279a9.01072,9.01072,0,0,0,2.283.81878c.41394.08688.92706.21589,1.2622.29384s.65717.13193.87006.16766.16748-.00834.23938-.06627-.09516-.11169-.14905-.11969a23.61564,23.61564,0,0,1-2.66162-.59376A6.45777,6.45777,0,0,1,82.68,19.35541a.62261.62261,0,0,1-.205-.314c-.03571-.0983-.06226-.23205.00842-.2895s.16858.02169.25439.04974c1.34449.4396,2.688.9289,4.0481,1.34568.91235.27956,1.86346.49588,2.78546.718a.66551.66551,0,0,0,.37537-.0244c.08081-.03947.06463-.03093.01465-.09688s-.19306-.05883-.30921-.08878a52.013,52.013,0,0,1-5.20379-1.5531c-.47406-.17676-.95081-.34821-1.42383-.53791a2.32686,2.32686,0,0,1-.46131-.31084.27435.27435,0,0,1-.08294-.4112c.1087-.14216.24078.00425.32959.04359a15.00482,15.00482,0,0,0,3.20929.92243c.96777.17127,1.90411.3539,2.7124.47846s1.20276.12944,1.93152.18888c.03894.00317.02618-.06673-.01868-.09671a.92907.92907,0,0,0-.26813-.0738c-.52142-.07626-1.2351-.18266-1.717-.214a6.06731,6.06731,0,0,1-1.06738-.19677c-.44788-.091-.96661-.19079-1.45331-.28661a15.75558,15.75558,0,0,1-3.02978-.88265c-.13794-.05734-.24036-.158-.40833-.23077a.69988.69988,0,0,1-.34338-.53555,3.11816,3.11816,0,0,0-.01721-.39894c-.00934-.14861.0841-.20108.21087-.17017.56146.13686.89813.21,1.4997.4026s1.38348.49029,2.05584.712c1.06208.35015,2.24878.75954,3.29694,1.08905.16516.05193.45386.21089.50714.08388s-.26074-.18326-.43231-.23787c-.72156-.22962-1.54694-.5709-2.29828-.83063s-1.55127-.50231-2.29218-.7545-1.42462-.493-2.15277-.75735a.426.426,0,0,1-.29754-.22878,1.17477,1.17477,0,0,1-.0296-.53213c.03033-.126.016-.07386.12817-.09335a.87917.87917,0,0,1,.38763.03154c.59876.1794,1.08545.35181,1.7215.55844s1.45312.47012,2.11871.68331c.145.04643.34729.10573.45343.13055s.06757.00242.11414-.02428-.027-.11574-.05109-.12261c-.75988-.21649-1.67547-.5896-2.38311-.79741s-1.13294-.40383-1.77594-.65041c-.139-.05332-.21045-.09019-.39057-.15457a.52749.52749,0,0,1-.36822-.52109c.04559-.24108.11206-.28681.34607-.19006.85333.3528,1.79919.68079,2.66693.97412s1.74.58454,2.57861.85512,1.60956.51084,2.42548.75506c.07342.022.21093.025.21911-.04071s-.12066-.12863-.2027-.15618c-.62744-.21073-1.28887-.402-1.92712-.6205-1.10339-.37773-2.22028-.75387-3.31647-1.153-.725-.26393-1.446-.56186-2.15429-.84762-.16639-.06714-.33265-.19922-.4682-.25706s-.21308-.1127-.20923-.23435c.01642-.51277.016-.627.60034-.4366s1.11792.38026,1.82007.5891,1.73437.50559,2.50763.72462c.01361.00386.02343.043.05676.03109s.35022.03143.32709-.03707-.22266-.11486-.3313-.14841c-.58637-.181-1.43176-.41979-1.956-.63443s-.89856-.29488-1.34417-.46407a6.02964,6.02964,0,0,1-1.10315-.47263,1.09034,1.09034,0,0,1-.53583-1.2208c.04126-.15917-.00757-.44954.14569-.51278s.29651.186.46314.23785c.96112.29909,1.99066.66264,2.9425.97862.287.0953.637.218.85474.281s.10034-.03065.18231-.07028-.028-.103-.05261-.10863c-.44672-.10134-.93366-.32322-1.36353-.42434a6.515,6.515,0,0,1-1.18359-.469c-.35242-.15974-.49079-.19153-.84833-.32775a2.92019,2.92019,0,0,1-1.02423-.7027.28367.28367,0,0,1-.07922-.30245c.03717-.172-.03443-.54392.08831-.76325s.20136-.27286.54413-.16688.86664.27085,1.28974.40792a35.43329,35.43329,0,0,1,3.9776,1.59733,3.89679,3.89679,0,0,0,.9555.34186c.17383.00457-.14978-.21781-.28357-.27979-.93811-.43446-1.9815-.91133-3.01788-1.331A24.36688,24.36688,0,0,0,82.66047,8.671c-.2539-.0616-.21435-.25382-.24438-.44845s.15606-.20117.26416-.17944a11.90458,11.90458,0,0,1,1.33478.33012c1.21478.39447,2.42761.84911,3.59643,1.30922.22742.08952.50464.20225.659.25581s.1131.02782.174-.00893-.03784-.11636-.08106-.13671c-.62408-.29352-1.30536-.599-1.952-.85281s-1.51715-.5429-2.09833-.74781-.881-.30467-1.38611-.47684c-.12652-.04312-.23413-.05848-.32184-.09614s-.0877-.04577-.08838-.11181.00727-.08192.09534-.09925a.8065.8065,0,0,1,.35736-.00809c.83942.26173,1.68543.53613,2.52246.81468.36237.12059.71765.269,1.07886.38978.03961.01325.13635-.018.13818-.06317s-.06189-.0849-.10772-.10405c-1.19788-.5-2.4621-.96363-3.6781-1.36785-.14154-.04706-.40479-.07079-.37879-.20823s.27527-.06883.44635-.01742c1.01764.30571,2.1059.733,3.12085,1.14558.03015.01224.05066.05584.08991.05647s.24548.04946.24975-.003-.1391-.10617-.20752-.13914c-.576-.27759-1.43792-.686-1.96753-.91926s-1.03039-.44192-1.43237-.57116-.32794-.26612-.38885-.47939.00921-.21042-.025-.367.08771-.202.2154-.18064a14.39281,14.39281,0,0,1,2.96478.9916c.91076.37561,2.027.80957,2.8023,1.15942s1.37293.60709,1.97687.90011a6.98079,6.98079,0,0,0,1.40912.4751c.58673.17557,1.055.27669,1.72357.48437a17.97246,17.97246,0,0,0,2.4314.59013c.73767.10484,1.56714.21859,2.22943.3258s1.14636.17467,1.74945.23339,1.15631.02631,1.73938.0737.945-.03354,1.57611-.00123,1.46131.03313,2.16168.05608c.311.01019.66614.029,1.00885.0183.83954-.02624,1.68659-.08471,2.54511-.10775s1.69232-.10144,2.57074-.20332,1.81653-.26532,2.71057-.42482a25.23828,25.23828,0,0,0,2.81226-.70532,15.65742,15.65742,0,0,0,2.01947-.8597c.715-.3238,1.42566-.6603,2.14367-.96971.07233-.03115.19941-.09473.249-.02227s.03173.05732-.00959.20768a3.30089,3.30089,0,0,0-.142.87014c.03674.16152-.02674.14352-.03418.229a1.29484,1.29484,0,0,1-.01789.18478c-.21344.96451-.36389,1.9545-.63055,2.89708-.04779.16914-.06659.37571-.09686.5075a1.04731,1.04731,0,0,0-.047.32242c.01263.06737.02362.01069.01929.02562a7.93645,7.93645,0,0,0-.2157.98546,2.16894,2.16894,0,0,0-.03266.30553c.00232.12157.039.14807.02118.25138-.10016.58134-.14032,1.12171-.197,1.71751C119.85652,18.3173,119.51594,20.72693,119.33851,23.15943ZM82.95417,24.67078c.06964-.10224.21826.018.36139.043a4.44848,4.44848,0,0,1,.77606.34713c.10822.06887.15308.01866.15711.07508s.004.01493-.1507.0615a2.65426,2.65426,0,0,1-.98871-.20068C82.93531,24.908,82.88447,24.773,82.95417,24.67078Zm64.498-.35089c-.18189-.00929-.5542-.06335-.83185-.05971-.70972.00926-1.53937.02784-2.2652.05661-1.07574.04264-2.443.04379-3.42926.04546s-1.81225.00412-2.64337-.05135-1.41168-.04278-2.163-.08329-1.44367-.10444-2.17884-.11847-1.59521.01984-2.28192.049-1.21191.08944-1.84485.13608-1.28.1135-1.88775.17282-1.25647.14723-1.81928.23457c-.88391.13717-1.99627.30183-2.77038.40441s-1.3573.17748-1.9787.25256-.9574.12025-1.5152.16246c-.09265.007-.20178.00354-.22058-.097a.34426.34426,0,0,1,.1922-.304,1.61249,1.61249,0,0,1,.46075-.10321c.15882-.02521.34717-.05551.52094-.0918.68939-.144,1.37994-.32962,2.07776-.46021,1.0617-.19869,2.17364-.364,3.21917-.60736a14.67549,14.67549,0,0,1,1.97034-.208c.55719-.04833.8479-.09432,1.32807-.15305.09185-.01124.19683-.04719.20556-.1128s-.13989-.09034-.212-.08443c-1.35163.11076-2.71735.248-4.064.48285-.59515.10379-1.137.24955-1.7539.3515s-1.46045.26183-2.04493.38633-.96771.23144-1.5025.35751a.49868.49868,0,0,1-.18652.017c-.06091-.008-.07178-.04737-.08-.09184a.10727.10727,0,0,1,.06952-.1048,7.42808,7.42808,0,0,1,1.07513-.28224,20.152,20.152,0,0,0,2.17487-.4993c.81061-.21578,1.87567-.43935,2.73553-.64435a1.97341,1.97341,0,0,0,.26276-.08264c.05243-.02323.09161-.01044.09705-.045s-.07764-.06892-.11426-.06357c-.4773.06986-.9505.145-1.42719.24664-1.17028.24957-2.32836.583-3.4967.84812a10.56727,10.56727,0,0,1-1.15.1924c-.06171.00694-.16907-.02032-.17536-.08969s.02692-.111.11164-.16345a1.29361,1.29361,0,0,1,.337-.14817c.68274-.18088,1.2251-.308,1.96259-.51154s1.7973-.47092,2.56891-.61481,1.429-.22731,2.16894-.34108c.38-.05843.74017-.081,1.11585-.134.04742-.00669.11639-.06426.10711-.112s-.0943-.08849-.145-.08265c-.89428.103-1.77142.16682-2.6701.31168s-1.89832.38847-2.76447.60516-1.59814.45314-2.45282.64445c-.064.01431-.19952.01234-.18347-.13269s-.08655-.30807.17108-.3867c.67951-.20738,1.38538-.45822,2.09638-.67336A24.71894,24.71894,0,0,1,125.646,21.682c.65631-.10011,1.38855-.13348,2.04431-.20554a3.2222,3.2222,0,0,0,.39538-.04686c.06946-.02343.58271-.01522.4682-.09366a.89009.89009,0,0,0-.59289-.107c-.32617.0178-.998.10913-1.45954.16942a25.877,25.877,0,0,0-3.12524.52981c-.96167.25612-1.81848.555-2.74329.81837a1.15093,1.15093,0,0,1-.3659.06131c-.09064-.01033-.23779.14971-.236.00031s-.07288-.17208.24249-.28347.74451-.3722,1.232-.53684,1.38752-.42468,1.95081-.565a17.17736,17.17736,0,0,1,1.70111-.3357c.53577-.0754,1.00214-.11516,1.50378-.17808.158-.01981.34888-.004.45313-.01613s.11578-.01044.13293-.06982-.01623-.11341-.111-.11581-.26324.02492-.395.038a26.83526,26.83526,0,0,0-5.11529.9993c-.50391.15194-.98352.33066-1.48645.47353-.03223.00916-.07862.0636-.09546-.02166a1.18546,1.18546,0,0,1,.03546-.42579c.03638-.10243.14886-.12985.22632-.157a21.023,21.023,0,0,1,2.235-.71083c.67591-.14618,1.02112-.31344,1.66925-.46112s1.47272-.25129,2.141-.33516c.29633-.03718.74274-.05949.93927-.08277s.14734-.00976.21485-.06925-.08893-.12551-.13806-.12234c-.38239.02462-.80188.0633-1.18854.11536-.94074.12665-1.88355.26291-2.80212.47539-.48914.11314-.92835.246-1.40967.38349s-.96552.31358-1.46009.431c-.11914.02829-.26727.06324-.365-.05614s.09516-.37295.21851-.43124a14.30281,14.30281,0,0,1,2.5025-.82223c.74634-.18314,1.2912-.29324,1.97321-.41969s1.49457-.232,2.11188-.30675.98339-.08318,1.5379-.136c.05841-.00557.11877.00392.13788-.02847s-.07056-.0592-.11206-.0605a7.60414,7.60414,0,0,0-1.18592-.008c-.99231.12993-2.00464.23944-2.97625.41861a32.99246,32.99246,0,0,0-3.87677.97684c-.113.03517-.28376.15219-.33771-.04966a.357.357,0,0,1,.256-.44285,5.40774,5.40774,0,0,0,.6109-.19713,12.07375,12.07375,0,0,1,2.75208-.89421c.90441-.18132,1.6809-.32565,2.56622-.4198.51337-.05461,1.0274-.08383,1.52936-.146.05151-.00638.13537.01089.14178-.02337s-.08227-.06694-.13342-.06592a15.31063,15.31063,0,0,0-1.77142.046c-.94532.13012-1.84778.331-2.79053.504a15.34035,15.34035,0,0,0-2.77234.82863c-.16608.06482-.24158.12779-.20068-.14s.11541-.41271.48107-.55261a17.12691,17.12691,0,0,1,2.80341-.74034c.79108-.131,1.54474-.26735,2.17786-.37533a12.5187,12.5187,0,0,1,1.46112-.10781,2.28429,2.28429,0,0,0,.34326-.05536c.08258-.01964.11218-.01482.12183-.05546s-.02985-.02888-.09876-.04243a1.1492,1.1492,0,0,0-.36005-.02564,16.60631,16.60631,0,0,1-2.14325.22035,3.63488,3.63488,0,0,0-.56335.06644c-1.2735.25946-2.56091.50486-3.81262.826-.0904.02319-.26184.08188-.27832-.05605s-.04749-.2946.17975-.3748a16.25847,16.25847,0,0,1,1.97741-.57924c.645-.134,1.46411-.25519,2.05213-.33619s.93908-.09166,1.46185-.15139c.06055-.00692.16437-.01485.14618-.07849s.022-.09635-.14569-.09207a6.83683,6.83683,0,0,0-.71491.03613c-.697.09355-1.35827.14052-2.10077.27695s-1.64.36019-2.40606.50291c-.09571.01784-.25244.04551-.30133-.02943s.10351-.20179.14911-.26318a.54917.54917,0,0,1,.22821-.12534,15.52435,15.52435,0,0,1,3.38861-.8805c1.04986-.14733,1.8161-.25216,2.80224-.38244a.85713.85713,0,0,0,.19416-.04752c.05218-.02038.08056-.0507.08252-.08594s-.05732-.03348-.08838-.03007c-1.42688.1568-2.91309.3349-4.32074.56a12.38324,12.38324,0,0,0-1.99433.56332c-.30462.10346-.35821.155-.31042-.14927s.15893-.40538.52618-.50757a14.98127,14.98127,0,0,1,2.26575-.47657c.7702-.087,1.60815-.18179,2.39026-.28923.41406-.05688.86029-.12505,1.25989-.18739.03253-.00508.15014-.00883.08508-.03426s.084-.06935-.1629-.04888-.71814.05773-1.078.09966-.633.07227-1.09863.124-1.06012.10271-1.65588.18152-1.51032.23438-2.135.3729c-.16638.03689-.29218.10051-.33484-.08354s-.059-.25934.19983-.35039a9.70729,9.70729,0,0,1,2.23163-.51227c.76294-.07349,1.58123-.14021,2.33606-.23139.04742-.00573.1939-.04029.1286-.09618s.0393-.081-.18555-.07252-.43207.01229-.8346.048-1.16235.09614-1.69787.16274-1.26581.17065-1.81354.27139c-.13415.02466-.31872.16005-.35852-.02269s.00525-.253.2536-.33418a19.83313,19.83313,0,0,1,3.36292-.76c.73889-.10338,1.51092-.197,2.26-.31066.05706-.00866.147.001.15625-.08925s-.09284-.01161-.14844-.009a36.45485,36.45485,0,0,0-3.71222.41433c-.43823.06682-.98248.24035-1.29407.31428a3.29377,3.29377,0,0,1-.45837.1229c-.2345.0301-.48395.098-.36371-.28154s.18622-.48222.71521-.56852c.97992-.15987,2.26978-.41441,3.2981-.52786a10.1348,10.1348,0,0,0,1.07342-.15713c.22223-.0589.11212-.03925.16974-.098s-.07629-.05086-.12018-.04418c-.95514.14552-1.951.23921-2.91949.39437-.579.09276-1.19434.18749-1.76551.26193-.1867.02433-.29107-.02439-.25494-.19082a2.56559,2.56559,0,0,0,.06573-.29141.592.592,0,0,1,.53779-.39677c1.1112-.1453,2.29632-.33707,3.404-.48023.26324-.034.5871-.08495.775-.11781s.08185-.04.12024-.1057-.04956-.07207-.0874-.068c-.707.07532-1.3197.13881-2.05518.23888s-1.60962.21967-2.36523.34539c-.08991.015-.189.07271-.17493-.04288s-.08233-.15978-.049-.262c.19147-.58685.36768-.72173,1.03778-.8272,1.1836-.18627,2.52735-.33449,3.76636-.4206.61383-.04267,1.27283-.08461,1.878-.14574.06464-.00653.19232-.04435.18182-.09315s-.12762-.03241-.204-.03421-.20282.0191-.31585.02281c-.635.02092-1.21405.0137-1.88172.06588s-1.59454.16671-2.23968.24563-1.10156.14534-1.69367.2424c-.13684.02243-.20428.103-.27734-.04632s-.08911-.25553.10486-.30291.2486-.2247.43878-.30777a2.72294,2.72294,0,0,1,.64844-.09828c.2229-.03463.47571-.09221.71167-.11216.9068-.07669,1.82269-.13506,2.72931-.21706.517-.04676,1.03235-.10473,1.5451-.16244.038-.00428.1001-.043.09833-.07664s-.07416-.03835-.11011-.037c-.52893.02029-1.25122.06612-1.7384.08432a12.299,12.299,0,0,0-1.25757.08039c-.8996.12281-1.74438.166-2.62689.27687a.50216.50216,0,0,1-.2182-.00993c-.05188-.02139-.1922-.00162-.17121-.07717s-.00262-.09536.15088-.14063a3.82351,3.82351,0,0,1,.66816-.14114c.82922-.07176,1.71209-.15314,2.5523-.2338a.744.744,0,0,0,.2237-.02326c.06555-.02913.38684-.05585.35882-.14422s-.24322-.01241-.36639-.0086c-.96869.02995-1.97919.17064-2.97479.18051-.01984.0002-.01386-.00187-.07837-.00525s-.38434.27755-.39942.00388a.53989.53989,0,0,1,.54163-.53925c1.25354-.14181,2.64685-.32533,3.90613-.40892a9.14923,9.14923,0,0,0,.92755-.12942c.19476-.03614.14923-.02238.18872-.087s-.04755-.05111-.14685-.05026-.33161.02976-.51422.04893c-.69025.07246-1.37891.13683-2.10865.20764s-1.58056.15678-2.318.2379c-.1734.01907-.26019-.05513-.232-.18472a2.23133,2.23133,0,0,1,.09918-.31774.21459.21459,0,0,1,.19079-.11966c.73182-.1258,1.70288-.255,2.36969-.31908s1.09137-.13741,1.67383-.15316a14.97211,14.97211,0,0,0,1.64075-.144c.0694-.00932.22-.02557.18408-.09s.011-.071-.18683-.06836-.576.00688-.88952.03976c-1.53363.16089-3.13446.30379-4.7074.44937-.13947.01291-.297.029-.23938-.23s.06769-.88374.12854-1.108.025-.16253.22967-.17767c.62488-.04622,1.132-.0593,1.84913-.11936s1.77539-.108,2.54382-.13451c.40863-.01409.98114-.06082,1.301-.09523s.57123-.04223.75672-.06385.17419-.03336.23626-.09143-.05926-.07526-.11395-.07815a10.26013,10.26013,0,0,0-1.39978.07038c-.49225.04066-.88739.08614-1.4472.13042s-1.53742.04913-2.09949.07036-1.186.09732-1.61334.11425-.3299-.06371-.455-.29482.1662-.17148.2879-.18036c.85169-.06214,1.75757-.177,2.59229-.23514s1.56457-.09355,2.38989-.16993c.33215-.03075.54712-.03927.94751-.05822s1.05963-.03838,1.50726-.073c.04993-.00386.1634-.02.16809-.06925s-.07122-.10188-.12988-.101c-.675.01047-1.34308.07831-2.02728.12609-1.05963.074-2.24.11565-3.28253.18624-.66974.04536-1.61377.05607-2.13391.12444a.78281.78281,0,0,1-.82691-.2903c-.20324-.1878.01227-.11429.04822-.12039a10.05514,10.05514,0,0,1,1.47528-.12428c.82129-.00821,1.89594-.04014,2.609-.06669s1.09479-.06169,1.695-.08071a15.92539,15.92539,0,0,0,1.65716-.13494c.03278-.00427.105-.043.07837-.09556s.03577-.0707-.0993-.07616a3.53731,3.53731,0,0,0-.51569.00129c-.89392.09215-1.68445.13912-2.63892.16227s-2.15728.061-3.14111.06229c-.52338.00068-1.26031.03754-1.67621.07745s-.54748-.13126-.787-.19485-.04145-.03121-.06122-.09425.0755-.06822.1192-.06884c1.59936-.02275,3.27228-.02074,4.8587-.06175.938-.02425,1.77655-.01476,2.69007-.09424a3.92431,3.92431,0,0,0,.51019-.12053,19.49029,19.49029,0,0,0-2.05158.06694c-.70367.03109-1.385.00472-2.12127-.02129s-1.8321-.0366-2.52106-.00472-1.45844.0869-1.96924.08333a4.25063,4.25063,0,0,1-1.16211-.25632c-.26593-.06155-.175-.01257-.14593-.07764s.02227.00279.24206-.04445a8.18515,8.18515,0,0,1,1.19867-.1503c1.19568-.033,2.50141-.08164,3.74237-.056.57123.01179,1.084.08867,1.70764.12246a18.20913,18.20913,0,0,0,2.14014-.071,5.2205,5.2205,0,0,0,.8761-.10421c.14252-.05522.05084-.03957.03931-.04057a6.24938,6.24938,0,0,0-1.43164.08932.68184.68184,0,0,1-.268-.02455,8.7043,8.7043,0,0,0-2.14886-.16134c-1.10749-.0271-2.28162-.02713-3.3686-.0136-.33783.0042-.79858.00051-1.02111-.00543s-.17475-.01624-.23279-.08451.1253-.09251.19153-.094c.48132-.01111,1.105.00559,1.59222-.01189.93243-.03346,2.09167-.08678,2.93115-.12868s1.35346.02458,2.10352-.044,1.35669-.271,2.11169-.41065c.28833-.05334.44922-.10866.85083-.16537s1.0119-.126,1.54035-.20241,1.37286-.24953,1.914-.32214.90307-.10437,1.43188-.13567,1.324-.13773,1.80384-.21381.71807-.04216,1.13372-.11792.87775-.08155,1.28376-.125c.76123-.0814,1.67926-.15106,2.37445-.19416s1.09228-.11048,1.74133-.1484,1.35181-.12375,2.00787-.18181c.29663-.02625.63385-.01744.90888-.04489s.68316-.08512.88135-.10285.09814.01167.18115.04792.01813.11092-.00678.13622A16.96017,16.96017,0,0,0,145.11207,3.317c-.49689.72747-.82251,1.36085-1.2641,2.0527a10.09366,10.09366,0,0,1-.74786.963c-.48114.58612-1.04529,1.2578-1.4917,1.79489s-.97235,1.162-1.30646,1.60994a8.19638,8.19638,0,0,0-.691,1.09924c-.19787.35925.00568.52214.10578.77517.2409.60871.47894,1.12016.70855,1.704a16.53355,16.53355,0,0,0,.7898,1.70653c.29034.54541.63189,1.014.94922,1.53929s.68835,1.15275.98846,1.65576.49219.869.8172,1.333.67688.95125.98151,1.44724c.1004.16348.27948.28715.39788.44334.36127.4764.72913.99767,1.09937,1.45551s.7644.84831,1.13306,1.28584c.02667.0317.11877.06317.051.10254S147.634,24.32918,147.45216,24.31989ZM119.08424,3.57025c-.0127.01566-.06677-.02716-.05426-.04024S119.09693,3.55459,119.08424,3.57025ZM19.65284,17.90494a4.17156,4.17156,0,0,1,.70346-.03791c.73545.03922,1.45487.04695,2.19373.03463s1.47064.00926,2.22287.01266a3.28661,3.28661,0,0,0,.326-.05029.26773.26773,0,0,0,.23807-.33561.3635.3635,0,0,0-.37214-.27539,1.06725,1.06725,0,0,1-.20581.04638.94488.94488,0,0,0-.80249-.28061c-1.13385-.06437-2.227-.21627-3.309-.37584-.29785-.04393-.66641-.05357-.87686-.07562s-.10925-.0429-.1673-.10952.08765-.0973.12867-.09283c.849.09263,1.91537.25039,2.71923.3219s1.33484.0696,2.09525.101c.08691.00359.11236.09336.2597.04857s.44828-.0763.3064-.46858-.16724-.65486-.843-.62828-1.8902-.06664-2.55844-.08573-1.21829-.059-1.75729-.09038-.8403-.0654-1.31455-.11559c-.0867-.00917-.1911-.04761-.20068-.11157s.12634-.09013.195-.08726c.50821.02127,1.05673.05908,1.57608.08721s1.24087.065,1.70556.08419.86542.03143,1.22464.04012.7147.01092.9578.00444.195-.049.36743-.03869.3826.15884.46863-.08287a.72518.72518,0,0,0-.28229-.79837,1.69787,1.69787,0,0,0-.86493-.19231,5.4577,5.4577,0,0,1-1.46777-.16054c-.03736-.0149-.17673-.0208-.12625-.05673s-.00812-.0436.1665-.04893.33966-.01437.68948-.01054,1.15635.0333,1.61283.01792c.05353-.0018.17541-.00489.1846-.12673a1.22985,1.22985,0,0,0,.01108-.50562c-.06055-.13734-.04886-.151-.22757-.20264a2.51119,2.51119,0,0,0-.68494-.08549c-.99609.0273-2.09369-.08123-3.06906-.124-.38184-.01673-.91095-.07806-1.16037-.10673a1.61348,1.61348,0,0,1-.336-.063c-.10348-.02347-.08722-.0006-.1012-.04824s-.0061-.0564.09357-.057.30725.01482.4678.01273c.96833-.01262,1.96885.08742,2.94584.13428a12.72806,12.72806,0,0,0,1.73828-.08114c.07788-.007.22268-.02926.206-.13754s-.00769-.21073-.20218-.26134a3.60262,3.60262,0,0,0-.77667-.088,4.25025,4.25025,0,0,1-.70416-.043c-.36881-.04687-.96369-.10571-1.46173-.12985s-1.15451-.058-1.707-.0824-1.21039-.04886-1.76157-.09339-1.055-.1122-1.587-.18176c-.05387-.007-.136-.09166-.12449-.12571s.101.02368.14884.02444c.72308.01146,1.65286.09237,2.3352.13728s1.3158.01675,1.90473.03048,1.18.04677,1.66757.06542.99625.04157,1.346.047a5.38878,5.38878,0,0,0,.68829-.00581c.2348-.02251.32269-.0501.29639-.28185s.10421-.33895-.29026-.40095a14.82222,14.82222,0,0,0-1.476-.20853c-1.063-.05569-2.21655-.05736-3.30218-.10468-.56113-.02446-1.15644-.08382-1.70569-.1442-.08475-.00932-.22629-.05215-.23017-.11779s.13849-.07921.213-.0775c.52408.01208,1.09009.03895,1.62481.0553s1.11066.02545,1.62754.04048.80151.01432,1.35055.04612,1.29355.11182,1.901.12661a.33049.33049,0,0,0,.32819-.17671.78558.78558,0,0,0,.04571-.54312c-.08123-.14864-.25036-.1025-.39431-.10088-1.01572.0114-1.94532.04139-2.98725-.01577s-2.24637-.19395-3.28769-.32208a5.47761,5.47761,0,0,1-.76239-.17341c-.14157-.04317-.15643.00346-.17385-.052s.02569-.06182.15328-.06276a3.57833,3.57833,0,0,1,.65647.03267,17.52618,17.52618,0,0,0,2.12665.25051c.69818.053,1.36828.127,2.06817.17226a5.98623,5.98623,0,0,0,.77393-.01163c.28079-.01737.97717-.08656,1.18167-.10242a.8588.8588,0,0,1,.27655-.00931.53217.53217,0,0,0,.66229-.3408c.10236-.24006.1818-.28478.24979-.49319s.17273-.24013-.19068-.27221-1.06628-.04792-1.48165-.06505-1.04148-.04045-1.36927-.0551a4.90453,4.90453,0,0,0-.73651.00182,14.58915,14.58915,0,0,1-1.701-.03219c-.44278-.00851-.85821-.017-1.13156-.02656a.94848.94848,0,0,1-.37765-.08071c-.12741-.02863-.12775-.06528-.13581-.12039s.10813-.02455.16486-.02312c.42487.0107.89154.03362,1.33438.05258s1.08453.05183,1.47891.0566.67572-.05106.99067-.046c.65057.0105,1.36416.03993,1.95666.03249s1.31995.02336,1.782-.03867.21927-.2342.321-.41615-.15863-.20106-.2482-.2178a10.45557,10.45557,0,0,0-1.9747-.10374c-.53922.018-1.01932-.01439-1.43238-.02385s-.60641.023-.93792.00736c-.85422-.04034-1.48719-.06588-2.37348-.14942s-2.00693-.24492-2.92685-.36112c-.21054-.0266-.50052-.07425-.648-.10289s-.09128-.05477-.105-.10884.07282-.03494.1131-.03024c1.41187.16491,2.78964.30908,4.22766.49056.38437.04851.75311.028,1.22031.03879s1.16131.02521,1.68429.01368,1.23322-.07272,1.71631-.0775a12.18256,12.18256,0,0,1,1.39826.02851.82068.82068,0,0,0,.72494-.21722c.14316-.13852.253-.16155.25672-.25576s-.20047-.01116-.30732-.017c-.82074-.04484-1.722-.07018-2.56741-.08351-.51834-.00818-1.08386.04838-1.57919.05217s-.63074.00118-1.18-.0247S20.27085,6.7351,19.55293,6.689s-1.87494-.11923-2.6792-.18384a.88458.88458,0,0,1-.27173-.08958c-.05774-.03106-.04153-.05038-.0386-.08927s.0512-.05335.07864-.05149c.57992.03926,1.159.09422,1.74057.12687s1.29825.05674,1.84647.08326,1.09127.0644,1.5556.08185.57312.01288,1.03634.01666,1.22385.00614,1.70389.00149,1.02536-.00961,1.42118-.03118a5.89083,5.89083,0,0,1,1.00567-.04159,1.81286,1.81286,0,0,0,.71988-.13992c.1875-.03928.10791-.0607.13388-.13274s-.09271-.06641-.14343-.06816c-.53577-.01848-1.15579-.03484-1.688-.02728s-1.046.0589-1.554.038c-.95907-.03944-1.96636-.01366-2.88964-.10425-.37076-.03638-.9151-.02645-1.14908-.031s-.17746-.03564-.25415-.05968-.17349.00489-.13513-.0349.01821-.06779.18972-.07786a7.14637,7.14637,0,0,1,.76307-.02416c.72583.03816,1.40023.0622,2.18725.066a25.52525,25.52525,0,0,1,2.56949.04659c.21454.02361.47931-.03132.69452-.0274A14.5402,14.5402,0,0,0,28.274,5.83256a7.75366,7.75366,0,0,0,1.13745-.28609c.03653-.00918.07541-.01087.07135-.0465s-.035-.04274-.097-.05947a1.19629,1.19629,0,0,0-.31857-.04461,24.19921,24.19921,0,0,1-3.0918-.05471c-.8717-.05679-1.65942-.03823-2.363-.058s-.94019-.03144-1.5886-.065-1.5314-.0889-2.16955-.134-1.11267-.09151-1.70587-.14582c-.05494-.005-.11582-.01362-.13324-.04784s.09567-.0514.13058-.05128c.36948.0013,1.06113.00957,1.36148.02145s.45734.05094.63748.04182c.73752-.03736,1.64069.04186,2.27762.04014s1.08167.0466,1.604.06914.98089.01727,1.43252.03838.92172.06216,1.292.09009a6.9807,6.9807,0,0,0,.94416.04772c.71518-.04473,1.53253-.0692,2.172-.11954s1.04062-.12717,1.61817-.18508c.05142-.00515.12027-.016.11706-.0528s-.0747-.04421-.13012-.04629c-.41455-.01558-.6988-.01918-1.16584-.03249s-1.10363-.03114-1.61682-.03714-.81689.01124-1.39752.01022-1.28912-.0612-1.9848-.04887-1.66226-.09288-2.38483-.13729-1.35538-.09338-2.05926-.17135c-1.2696-.14064-2.42319-.26938-3.73111-.44144s-2.8537-.39375-4.18164-.56609c-.7515-.09754-1.74411-.22948-2.37388-.27824a12.55929,12.55929,0,0,1-1.494-.228,25.87221,25.87221,0,0,0-2.59821-.29408c-.72626-.05226-.99951-.11315-1.62836-.13087A12.533,12.533,0,0,1,3.16633,2.319C2.46894,2.22041,1.439,2.14679.66825,2.123.57563,2.12018.56227,2.07773.455,2.04548s-.2963-.1532-.25553-.32136a.2988.2988,0,0,1,.35514-.21645c.92913.08365,1.80413.0518,2.75122.14137s2.06756.26233,3.01291.3063,2.02267.21963,2.86114.33673,1.61456.224,2.30542.32425,1.13559.11677,1.727.18842,1.051.16814,1.613.24969,1.08853.1539,1.65445.22429c.9169.114,1.756.21524,2.704.32674s1.99346.22774,2.97787.32162,2.0657.207,3.04358.21907,1.93707.09152,2.87707.12021c.56919.01737,1.215-.05569,1.7056-.06251s.79459.03157,1.2077.03756.61155.02818,1.0419.02764a6.44329,6.44329,0,0,1,1.55787.13047,4.6398,4.6398,0,0,0,.96954.11109,8.8208,8.8208,0,0,0,1.11237.05575c.4663.01074,1.229.01111,1.74173-.0063s1.11022.04327,1.57293.02763.784.07194,1.19361.063a8.86777,8.86777,0,0,1,.96167.05647c.465.02919,1.05349.06423,1.64141.08924s1.28562.0135,1.95984.07052,1.44236.17779,2.1666.26779,1.34875.18217,2.1496.23616,1.84686.14678,2.69641.2664a1.5,1.5,0,0,0,.30243.01163,15.54575,15.54575,0,0,1,2.027.0716c.67164.03832,1.29249.02148,1.96949.00389s1.30279-.0685,2.01654-.09615c.29278-.01134.46576.02927.8999-.00044a10.8827,10.8827,0,0,0,2.07123-.61971c.36877-.15994.28705-.085.48956-.05972s.26819.032-.01379.21262-1.43891.6999-1.69727.85789-.18732.11556-.19745.21442.12177.02165.2378-.04783a7.62348,7.62348,0,0,0,.74926-.45309.20574.20574,0,0,1,.34723.07475c.03137.11139-.00171.10661.0553.11173s.0293-.04494.06921-.1291.07837-.37722.17957-.4842.24817-.23614.40051-.09945.21332.16728.12787.44615a7.28476,7.28476,0,0,0-.22174,1.15187c-.02954.32162-.11884.60605-.11707.90456.00477.79007.05335,1.56807.05567,2.34943.00561,1.84926.23834,3.68782.31189,5.52645.02667.66639.01221,1.294-.01843,1.95438-.00147.03251.00152.07034.00341.10489.051.937.09723,1.92773.14313,2.8516a6.82789,6.82789,0,0,1,.0285,1.2554,1.25717,1.25717,0,0,0,.13092.83316.39339.39339,0,0,1,.0575.34222,12.05241,12.05241,0,0,0,.1908,2.65963,18.79738,18.79738,0,0,0,.65362,2.56464,4.07557,4.07557,0,0,1,.23963.56471.18764.18764,0,0,1-.24042.21727.25465.25465,0,0,1-.17578-.12991.67748.67748,0,0,0-.7724-.2696c-.33759.046-.6557.06237-.98584.123-.87958.16158-1.70447.29406-2.59113.50955s-1.89258.51782-2.75281.82494c-.52563.18767-1.16839.43756-1.61346.57953s-.5036.17937-.90454.311-.73407.23109-1.20471.38881-.99695.37069-1.55542.55541a16.93123,16.93123,0,0,0-1.89661.63753.90822.90822,0,0,1-.2.02835,13.89325,13.89325,0,0,0-2.19357.5567,10.065,10.065,0,0,1-1.12555.26676c-1.07621.23933-2.16077.38031-3.25254.54436-.20111.03022-.38531.1364-.59893.17189s-.70011.05428-.858.0615-.17486-.01242-.23538-.0077c-.702.05465-1.4729.14774-2.1308.1756s-1.32367-.01167-1.90991-.04131-1.15246-.089-1.6488-.13913-.84235-.05634-1.27078-.136a17.45555,17.45555,0,0,1-2.75577-.767,2.98152,2.98152,0,0,1-.86017-.48343,4.83174,4.83174,0,0,1-1.22986-1.1445,3.20019,3.20019,0,0,1-.29291-.53954,16.85535,16.85535,0,0,1-.59787-2.14751,3.36826,3.36826,0,0,0-.18557-.59264.25307.25307,0,0,0-.26194-.16677c-.608-.0057-1.1568.07645-1.75412.07941a13.84461,13.84461,0,0,1-1.8002-.07456c-1.30218-.16417-2.58352-.36332-3.886-.56288-.82734-.12676-1.64054-.27791-2.48377-.416-.362-.05929-.69641-.06787-1.09427-.14512-.77844-.15113-1.30194-.28164-2.1947-.45938a32.5598,32.5598,0,0,0-3.26016-.51228,26.52214,26.52214,0,0,0-2.89279-.15781c-.95807.02765-1.84223.01954-2.79584.02828-.43634.004-.80612.1325-1.27741.15891s-1.03878.14059-1.53817.19463A4.6087,4.6087,0,0,0,.54322,26.629c-.13058.05943-.36767.10647-.481-.00622s-.0451-.19622.01691-.38456a3.12991,3.12991,0,0,1,.34146-.70085c.50064-.738,1.0391-1.49944,1.52756-2.2679C2.65962,22.1501,3.36,20.97265,4.04893,19.84458c.26315-.43089.57806-.86751.82422-1.27532.55191-.91445,1.16778-2.00695,1.689-2.84451S7.569,14.25923,8.08457,13.54647c.25248-.34908.239-.41663-.00146-.70416-.92355-1.10425-1.88452-2.16478-2.78729-3.2907-.69516-.867-1.36429-1.75558-2.01749-2.66208-.43826-.60826-.883-1.22626-1.33859-1.829-.24518-.32436-.39124-.74081-.63291-1.06506A17.73354,17.73354,0,0,1,.22608,2.14294a.718.718,0,0,1-.05227-.20865c-.01853-.08925-.04144-.3625.12332-.369s.39081-.01.4762.14405a.92406.92406,0,0,1,.15475.315,2.95562,2.95562,0,0,0,.32367.73591c.44836.677.92084,1.46105,1.37308,2.1282.26574.392.64694.84305.87549,1.16172s.31417.56257.50073.80088c.73007.93258,1.48465,1.83087,2.19732,2.731.36939.46656.73734.99892,1.07337,1.40519s.64026.67446.95358,1.00714a4.49611,4.49611,0,0,1,.6983,1.09352c.17524.34918-.08331.59989-.2037.78282s-.20557.17818-.27844.2785c-.70545.97065-1.33,1.88472-1.9625,2.89859-.39935.64006-.7434,1.29094-1.15167,1.97042-.149.24794-.31879.36576-.51983.72168s-.50449,1.00142-.75626,1.43883-.45291.745-.78442,1.22327-.854,1.16792-1.2157,1.70164-.70215,1.10395-1.04084,1.644c-.02462.03923-.07128.08975-.04223.12364s.10187.005.1539-.00311c.8464-.13211,1.77453-.32375,2.61282-.4078s1.60068-.06211,2.41614-.06954c.26459-.00241.53519.01988.78317.00057a26.53373,26.53373,0,0,1,4.73459.2067,27.55025,27.55025,0,0,1,3.2497.58678c.64459.14293,1.09445.20173,1.77255.32531s1.41684.27726,2.17376.39317,1.74769.23778,2.52.34778,1.62238.247,2.332.29806a11.44463,11.44463,0,0,0,1.86759.04307,9.61921,9.61921,0,0,1,1.00693.01179c.3309.00741.39373-.136.36316-.43708s-.0958-.68994-.12986-.97137-.13067-.379-.37454-.4297c-.71118-.14774-1.18051-.21328-1.95682-.32562s-1.74264-.20908-2.609-.3307c-1.72989-.24286-3.58539-.47945-5.31684-.71371-.11456-.01549-.30673-.0165-.31473-.09034s.20707-.10079.31281-.08929c.846.092,1.83807.23115,2.6785.31463s1.564.10233,2.37985.22693,1.77536.23729,2.56265.34182,1.41467.21071,2.16525.30136c.21674.02618.30756-.14721.291-.32366a1.50648,1.50648,0,0,0-.15823-.42457c-.05719-.15451-.208-.05313-.31611-.05829-.59124-.02817-1.23129-.05679-1.80209-.12263-1.13467-.13088-2.41437-.31993-3.4873-.41168s-1.94269-.19761-2.93534-.29264c-.12283-.01176-.31994-.00233-.31238-.0882s.17649-.1156.34488-.1168.48148.01542.74442.04324c.56982.06031,1.09146.128,1.72647.18881s1.2113.08368,1.95892.16452,1.84055.22777,2.65659.30765a10.11352,10.11352,0,0,0,1.0849.00634c.278-.00668.23785-.05764.2373-.23672a1.70985,1.70985,0,0,0-.02035-.36514c-.029-.22235-.09906-.48972-.47565-.52309s-.92282-.13663-1.34674-.15822c-1.03912-.05294-2.31641-.2364-3.2814-.37258s-1.67777-.20919-2.56055-.31582c-.22861-.02761-.45392-.055-.611-.08467s-.10562-.06306-.13257-.12967.09439-.076.13962-.06921c.852.1281,1.87.20277,2.693.28777s1.33664.19712,2.15738.27281,1.82456.15127,2.678.19014c.15814.0072.37857.09934.48752-.026s-.02734-.42023-.03372-.5689-.06253-.17852-.21057-.19781c-.90439-.11782-1.95185-.19025-2.84052-.21424s-1.711-.127-2.53928-.20837-1.55505-.14751-2.35427-.23156a.678.678,0,0,1-.216-.05919c-.03668-.02215-.18161-.02091-.12631-.05942s-.01874-.04875.17331-.04879a6.05891,6.05891,0,0,1,.896.03656c.69934.11683,1.51571.13589,2.22485.18476s1.204.09511,1.949.09726,1.6883.0784,2.48209.121a.57564.57564,0,0,0,.30124-.0334c.10757-.05134.21759-.03989.12244-.27036s-.10651-.36166-.4867-.45592a17.472,17.472,0,0,0-3.11508-.44034c-.3653-.02015-.75278-.07007-1.12238-.10475-.86242-.08091-1.78637-.17326-2.63238-.24892-.25739-.023-.61408-.04058-.77548-.06483s-.23566-.03883-.22757-.12987.02029-.07366.2099-.07828.65905.00592.96212.02987c.81647.06455,1.8545.16306,2.65473.23117s1.66745.13005,2.36383.18847,1.09125.08058,1.72037.13992c.10534.00993.22256.08423.23443-.06588s.0792-.2451-.08008-.379a.83555.83555,0,0,0-.506-.26153,12.17631,12.17631,0,0,0-1.25265-.18372c-.4007-.03243-.86023-.04992-1.299-.05848s-1.28964-.02052-1.65128-.02906a6.65348,6.65348,0,0,1-.79022-.06271c-.17862-.0247-.21024-.02573-.19522-.1153s-.02261-.08961.19647-.0896.65457.02511,1.01593.03678.92734.03014,1.35095.03661.762.002,1.23746.01564,1.10114.09962,1.64053.078c.05744-.0023.14277-.01421.18473-.201s-.21579-.66918-.45713-.6778-.19735-.0548-.38406-.09583a2.68391,2.68391,0,0,0-.578-.15594c-1.13587.01542-2.24527-.02989-3.37708-.11844-.37115-.029-.75747-.06966-1.12854-.1245M58.7118,7.04958a1.89451,1.89451,0,0,0-.33856.07763c-.80914.318-1.75238.6381-2.5307.95922s-1.435.60307-2.14465.97242c-.06012.03129-.152.07633-.13453.12137s.11292.032.1775.00633c.61419-.244,1.02984-.4279,1.71405-.69646s1.61035-.62192,2.36456-.92823a3.3042,3.3042,0,0,0,1.0061-.52307c.01978-.01863.03626-.0999-.00061-.0845s-.02777.08034-.11316.09529M55.34126,29.59827c.13714-.04931.08966-.10258.13714-.117.6698-.2036,1.13446-.33883,1.83979-.527a22.7235,22.7235,0,0,0,2.27655-.67408c.74945-.28749,1.58929-.5815,2.35986-.91829.16278-.07116.23639-.13889.12091-.39484a5.09846,5.09846,0,0,1-.23389-1.04583c-.05462-.32829-.15991-.44759-.5177-.37735a1.56959,1.56959,0,0,0-.20306.0312c-.45984.1527-.94562.32412-1.40063.47521s-.86164.28974-1.31574.43091-.80072.25563-1.29822.38519-1.01953.21762-1.58117.40321-1.32526.36677-1.94086.49808a.64164.64164,0,0,1-.2.01819.11462.11462,0,0,1-.09186-.08606.09815.09815,0,0,1,.05542-.10729c.40375-.09434.80426-.15671,1.201-.24133a9.39435,9.39435,0,0,0,1.009-.22539c.45447-.1363,1.27435-.43275,1.77228-.58523s.95605-.219,1.41034-.39161c.94385-.35863,1.86542-.74277,2.8081-1.05954.20923-.07031.20356-.26038.15839-.4028a.25815.25815,0,0,0-.28485-.189c-.52735.12858-.78522.2471-1.34845.43689s-1.40344.50362-2.03607.65176-1.12513.2956-1.77436.46092a17.29658,17.29658,0,0,1-2.15149.39544c-.07.008-.20715.02528-.21295-.03227s.10321-.09546.1883-.12571a2.70834,2.70834,0,0,1,.36755-.08281c.57861-.10042,1.14386-.15635,1.73883-.30675s1.32507-.41872,1.897-.60036a14.8943,14.8943,0,0,0,1.50733-.49417c.54779-.233,1.17-.41667,1.75775-.65787.22791-.09351.28589-.4509.23639-.6811s-.25464-.12564-.37341-.125a.584.584,0,0,0-.22962.02591c-.7428.28505-1.47571.59251-2.20257.87s-1.42243.53237-2.14954.78642c-.4201.14679-.81415.27654-1.2503.40366a13.31287,13.31287,0,0,0-1.34778.38673c-.01831.00751-.09931-.06614-.1048-.09152s-.00909-.07912.012-.08625c.42523-.14387.59674-.19717,1.08509-.34474s1.15551-.29818,1.72637-.51551c1.438-.54745,2.94147-1.15905,4.38984-1.75751a.87775.87775,0,0,0,.26416-.17161.50221.50221,0,0,0,.05633-.49187c-.07409-.12277-.20642-.07665-.30365-.0674a6.04057,6.04057,0,0,0-1.51422.42088c-.42871.16861-.76215.28484-1.14654.42332s-.88935.31194-1.21558.41609-.72.18039-.9173.22914-.14093.02435-.17694-.01978.04157-.02914.13287-.07915a1.703,1.703,0,0,1,.35041-.152c.259-.09509.72021-.24881,1.15924-.40941s1.22882-.44988,1.74225-.64835,1.06018-.41911,1.571-.61008c.17218-.06437.2544-.14357.253-.323a.77734.77734,0,0,0-.08587-.50384c-.113-.14845-.379.03564-.457.0891s-.08966.02132-.12341.031c-.63251.18116-1.2843.33564-1.88281.565-1.14478.43865-2.305.84118-3.45056,1.22335-.53339.17794-1.0672.41039-1.56879.55586a13.76805,13.76805,0,0,1-1.38476.2746c-.0301.00577-.07178.00132-.08069-.02519s.04254-.06494.07177-.07441c.4715-.15281,1.03663-.32834,1.49067-.46915s.8515-.24181,1.26953-.38726c.782-.2721,1.55548-.56015,2.31622-.84727s1.52209-.5834,2.26263-.86835a8.82922,8.82922,0,0,1,1.05957-.36659.615.615,0,0,0,.49769-.49608c.05267-.22466.106-.21068-.16871-.18843a4.7457,4.7457,0,0,0-1.05358.23549c-.84607.305-1.8349.57634-2.6847.82664-.30328.08934-.72918.17122-.92444.2075a2.71453,2.71453,0,0,0-.30493.0453,7.07092,7.07092,0,0,1-1.22241.326,6.03806,6.03806,0,0,0-.95013.19775.51621.51621,0,0,1-.33381.05169c-.12243.00671-.09759-.02631-.09619-.09486s-.03881-.08072.09784-.10435.39234-.02649.58289-.07393c.65619-.16331,1.37506-.36237,2.03363-.52586s1.27417-.25519,1.92285-.45262,1.32214-.47031,1.9773-.65764a3.97719,3.97719,0,0,0,.871-.40836c.233-.14063.35663-.46758.16424-.638s-.1427-.13393-.47955-.03539-.7417.30635-1.23218.50572-1.35809.55622-1.93341.787-1.3244.52676-1.86273.72641a13.87294,13.87294,0,0,1-1.49683.477c-.47479.11723-.87811.23853-1.28131.346a5.82806,5.82806,0,0,1-1.0404.126c-.03052.00331-.08972-.00282-.073-.04195s-.00641-.033.08392-.06828a1.94781,1.94781,0,0,1,.39582-.1369c.1582-.02722.40106-.024.592-.07444.56335-.14876,1.173-.31949,1.72937-.50081s1.1557-.40942,1.6795-.6001.97021-.38527,1.461-.57994c.84851-.33657,1.67651-.69739,2.48785-1.09011a6.85315,6.85315,0,0,0,.79431-.4756.40852.40852,0,0,0,.18915-.55111c-.0921-.2184-.20379-.06282-.35315.0159s-.069-.01082-.32672.06911-.541.14167-.97626.3027-1.0802.43341-1.69091.6288-1.51844.561-2.20118.75656a11.5917,11.5917,0,0,1-2.088.45725c-.06048.00544-.21094.0297-.1709-.02753s.01636-.01874.192-.10554a6.81954,6.81954,0,0,1,.85712-.19961c.36126-.09206.78106-.31878,1.32116-.42813s1.48511-.51643,2.07459-.70332,1.32886-.48562,1.81311-.69463.92023-.39336,1.26489-.56189.22559-.31094.26367-.52512-.19293-.16154-.34027-.10849c-.47137.16971-.9107.3727-1.43481.57627s-1.34711.5258-1.86456.72851-1.20575.45145-1.59241.58866a6.38814,6.38814,0,0,1-.83618.21128c-.21967.05594-.10926.0048-.1767-.01747s.07227-.04287.10785-.07624a1.00759,1.00759,0,0,1,.24078-.125c.4339-.16448.88068-.306,1.33063-.46943,1.43573-.52149,2.8429-1.12039,4.23724-1.7668a.48268.48268,0,0,0,.31409-.53994c-.016-.2909-.07977-.87576-.0896-1.13511s-.06006-.25085-.21808-.22375c-.54193.093-1.1488.28773-1.64331.42118s-.75934.28283-1.25.41078-1.18445.26726-1.67279.41252-1.10681.27538-1.51507.36573a5.19931,5.19931,0,0,0-.9538.23589,3.58456,3.58456,0,0,1-.89233.18148c-.21662.03145-.15-.02093-.21888-.07876s.06629-.09552.11274-.10657c.38116-.09078.82537-.16428,1.21112-.24753a9.3274,9.3274,0,0,0,1.0238-.23705,8.44824,8.44824,0,0,1,1.41681-.35593,1.46731,1.46731,0,0,0,.25323-.04892c.61237-.19414,1.29779-.42082,1.89661-.617s1.41156-.5153,1.90576-.689.44415-.31238.4209-.6369-.14282-.31627-.4035-.241c-.62665.18084-1.0611.36542-1.75605.60513s-1.56939.57626-2.35534.85593c-.47882.17039-.89118.33908-1.48419.52149s-1.53083.45608-2.18885.67249c-.2619.08613-.62719.10287-.85705.20958a2.99567,2.99567,0,0,1-.73786.16332c-.171.02868-.09088.00138-.14129-.042s.016-.05477.06469-.08572a1.08045,1.08045,0,0,1,.25537-.09581c.55939-.13944,1.12476-.23561,1.687-.41551,1.054-.33727,2.05432-.70926,3.11657-1.09433.44409-.161.84986-.24126,1.36078-.46324s1.42664-.53734,1.95532-.74228a9.67308,9.67308,0,0,0,1.31629-.60383c.11407-.06279.23291-.24036.14416-.3835s-.13934-.18257-.38794-.06851-.71862.338-1.04095.47c-.70276.28783-1.68817.67315-2.33832.91994s-1.1095.43093-1.67279.59814a15.34461,15.34461,0,0,1-1.52209.30882.09084.09084,0,0,1-.093-.0513c-.00452-.02812.04456-.04063.07428-.04761a19.86522,19.86522,0,0,0,2.23981-.68486c.74749-.27081,1.8244-.64726,2.4887-.92653s1.23713-.63985,1.71833-.88355.51446-.29246.469-.70294-.11908-.50359-.60449-.29537-1.19592.591-1.78009.8562c-1.18506.53806-2.51514,1.1311-3.6972,1.67694-.29914.13814-.67835.31191-.89.39944s-.19891.00941-.27228-.04224.08936-.10276.14588-.12778c.36224-.16036.8277-.32573,1.2005-.50074.67322-.316,1.51581-.73,2.12713-1.02789s1.05121-.54039,1.59247-.80251,1.21936-.63325,1.685-.82984.38831-.43578.40216-.72189-.07373-.19169-.20318-.13673c-.963.40885-2.019.938-2.95484,1.329s-1.81042.71225-2.70489,1.04622a5.47251,5.47251,0,0,1-.83069.20138c-.18726.03716-.12055.03475-.18372-.014s.0304-.11518.09705-.15294.06274-.013.22906-.06536.50782-.14841.76221-.24448c.63568-.24009,1.32434-.507,1.97888-.77887a29.32985,29.32985,0,0,0,3.56323-1.74714c.0857-.05013.20972-.07136.23084-.18412s.07312-.30691-.04035-.40009-.015-.13389-.2669-.054-.49976.19723-.89118.353-.92517.37778-1.44629.61718-1.14483.48911-1.80133.73764-1.65277.62117-2.3432.86834c-.102.03653-.38385.09384-.35962-.00641s.13446-.11644.34443-.20743.736-.27123,1.05566-.39637c.66382-.25979,1.62244-.636,2.23523-.895s1.063-.47622,1.58142-.71239,1.16968-.51621,1.59564-.68455.27228-.23487.29334-.50672-.14643-.28465-.36255-.248a3.157,3.157,0,0,0-.71094.23623c-.68555.31523-1.46063.71328-2.12884.9947s-1.18091.51651-1.83307.78469-1.50617.6521-2.09442.94694-.95252.39467-1.49115.67963a10.61925,10.61925,0,0,1-1.73182.65607c-.03259.01043-.10791-.005-.11206-.0423s.02338-.05281.06464-.08408a.72068.72068,0,0,1,.15759-.09268c.52478-.22282.87476-.35533,1.45044-.60558s1.19922-.54147,1.87616-.84239,1.70862-.77815,2.39514-1.08055,1.04535-.45849,1.723-.79466,1.5766-.812,2.28394-1.18065a4.233,4.233,0,0,0,.63245-.432c.12664-.10764.11535-.09982.0354-.16363s.01751-.09377-.19739-.00648-.607.272-.91852.40849c-.96582.42318-1.94916.886-2.9602,1.30029s-2.12867.81144-3.15809,1.20367a1.72671,1.72671,0,0,1-.76214.17459.78165.78165,0,0,0-.51471.13508c-.14478.0732-.19757.15061-.30756.19046a11.42838,11.42838,0,0,0-1.77819.64675c-.03937.022-.10218.01114-.15186.02274-.59314.13837-1.22089.28693-1.80548.42921-.26782.0652-.574.13823-.797.19932s-.10635-.035-.33151.07271a3.76625,3.76625,0,0,1-.89447.19872c-.3035.04892-.63718.17279-.96713.21143-1.4191.16619-2.78958.40451-4.24005.46572-.45728.0193-.85364.06385-1.392.09831s-1.4686.07427-2.02185.06447-.84925.00135-1.37622-.02434-.81781-.06874-1.453-.09694A17.34993,17.34993,0,0,1,32.717,12.006a21.46882,21.46882,0,0,1-2.55661-.55523,8.99472,8.99472,0,0,1-2.923-1.31519,1.76188,1.76188,0,0,1-.543-.6507,1.51246,1.51246,0,0,0-.29154-.5018c-.11529-.14044-.19574-.20922-.29034-.03191a6.35835,6.35835,0,0,0-.71722,3.05244c-.00107.36941.07583.75493.04184,1.09641a5.1141,5.1141,0,0,0,.04226.88327c.01639.32572.00894.56909.04569.93038a11.96683,11.96683,0,0,0,.19412,1.21275c.08438.39306.09271.80415.156,1.21534s.04815.70794.136,1.17314.28208,1.243.37525,1.72689.16137,1.07333.23935,1.459a5.34214,5.34214,0,0,0,.20037.7589,3.30876,3.30876,0,0,1,.13929,1.14277,1.03564,1.03564,0,0,0,.0607.542c.05944.28526.20092.69767.24823,1.01756a29.57064,29.57064,0,0,0,.50589,2.93246c.21661.7966.49423,1.63567.59939,2.24217a1.88956,1.88956,0,0,0,.6359,1.1112c.23544.24659.33053.23024.43338.36042a2.47192,2.47192,0,0,0,1.08862.7503,14.41067,14.41067,0,0,0,2.84924.7846c.85608.13884,1.498.15663,2.25617.23763a30.60066,30.60066,0,0,0,3.53915.0774,7.74563,7.74563,0,0,0,.9809-.12389c.31784-.04209.6098-.06194.91519-.10732a41.31758,41.31758,0,0,0,4.28607-.78767c.6481-.1673,1.33078-.30369,1.96756-.477.31369-.08538.66263-.124.94937-.205.63391-.1789,1.43274-.44931,1.97962-.63384s.78576-.29084,1.26678-.4629.84979-.32849,1.37952-.47349,1.201-.37964,1.74652-.57237c.19507-.06892.55035-.16706.6875-.21639M42.46632,7.82756c.1405-.11727.31106-.23731.45773-.36251a24.66224,24.66224,0,0,1,1.9896-1.56425,2.42348,2.42348,0,0,0,.4418-.33523c.08191-.104.12839-.09942-.00812-.15288A1.78637,1.78637,0,0,0,44.668,5.414c-.17221.03336-.27805.16652-.41718.2481A18.17333,18.17333,0,0,0,41.785,7.18187c-.74447.61483-1.39044,1.25-2.11731,1.8909-.40536.35744-.75439.68145-1.21926,1.04438s-1.01365.90182-1.46888,1.31917c-.04046.03709-.075.14356-.13537.10506a.24733.24733,0,0,1-.09595-.25857.7745.7745,0,0,1,.21686-.33777c.792-.65272,1.62054-1.26039,2.38837-1.9487.405-.363.80426-.73392,1.20806-1.10584a14.46043,14.46043,0,0,1,3.36493-2.40269c.03058-.01524.10138-.06431.04926-.113s.055-.107-.12634-.07467a2.0225,2.0225,0,0,0-.69107.18762c-.49411.294-1.14509.5759-1.62012.91452-.81647.582-1.76529,1.39285-2.499,1.93956a17.442,17.442,0,0,0-1.85242,1.59277A13.6996,13.6996,0,0,0,35.8274,11.4115c-.08389.10745-.26889.13294-.27826.23282s.35044.05371.39576.07448.04809-.0019.06506-.00107c.587.02884,1.17017.03285,1.7511.05527a.77935.77935,0,0,0,.63284-.27453,1.435,1.435,0,0,1,.33-.33115c.409-.33515.72668-.5429,1.142-.90941s.92535-.87309,1.343-1.2778.81174-.78059,1.25742-1.15255m-8.2536,2.80134a6.30524,6.30524,0,0,0,.60556-.55153,22.716,22.716,0,0,1,1.90008-1.706c.65839-.49009,1.29941-.94429,1.95362-1.376S40.008,6.2293,40.60636,5.77165c.1847-.14128.482-.36726.63306-.34674s.18259-.10351.20926-.023.07629.114-.11008.26321a6.04124,6.04124,0,0,1-.86432.609A23.1055,23.1055,0,0,0,38.16581,7.69c-.48547.33211-.93457.64805-1.44479,1.03853a21.58879,21.58879,0,0,0-1.64987,1.503c-.45307.44255-.81971.69735-1.24906,1.09078-.05343.049-.14523.08236-.10263.16408s.0607.11026.21247.13086.21225-.01867.48941.00745.86193.04665,1.00634-.40318c.00916-.02854.08341-.03183.12079-.06916.42423-.42392.7045-.6907,1.16693-1.1762a14.66537,14.66537,0,0,1,1.78766-1.59755c.59137-.42523,1.41815-1.00941,1.89194-1.42333s.94894-.76851,1.30472-1.02241a2.9773,2.9773,0,0,1,.81451-.45848c.244-.08045.13272-.07377.169-.16423s-.09317-.04235-.15207-.05039c-.37967-.05181-.71536-.04615-1.1387-.066a1.86712,1.86712,0,0,0-1.20688.25754c-.7995.50857-1.92374,1.09615-2.64154,1.65727a23.762,23.762,0,0,0-1.866,1.598c-.87476.83392-1.67914,1.62705-2.58655,2.38408a1.50341,1.50341,0,0,0-.26742.25839c-.04584.07324-.04593.10965.05313.1s.10782.04323.2969-.09647.79627-.54486,1.03864-.7237m5.93158.72841a1.67305,1.67305,0,0,1,.351-.39164A14.08375,14.08375,0,0,0,42.125,9.478a24.66244,24.66244,0,0,1,1.866-1.83431c.64184-.52844,1.32532-1.05429,1.9256-1.58645a1.3018,1.3018,0,0,1,.65371-.26593c.169-.02508.13639.00224.19248.05715s-.03723.09814-.08408.1308c-.33108.23081-.61505.34244-.96673.62039s-.76783.64417-1.15775.951a26.87158,26.87158,0,0,0-2.59643,2.49856A7.44714,7.44714,0,0,1,40.29869,11.53a.13274.13274,0,0,0-.04505.118c.0109.03595.06037.07871.09354.07423.39007-.05265.74713-.07786,1.14056-.16832.03986-.00916.05356-.05641.1026-.15456a1.112,1.112,0,0,1,.18283-.37075,6.58415,6.58415,0,0,1,.6521-.73034c.89984-.78874,2.0344-1.74115,2.88962-2.49925s1.478-1.3059,2.34381-1.9455c.043-.03177.09824-.09475.05554-.14669s-.03222-.04257-.15313-.044a3.02659,3.02659,0,0,1-.4744.0244,8.171,8.171,0,0,0-.93677-.14334c-.242.01137-.17532-.03423-.38272.14045s-.53827.38365-.80661.575c-.57605.41074-1.17349.88-1.74762,1.3155a25.92937,25.92937,0,0,0-2.4498,2.234c-.31213.30763-.67544.65585-.96524.902s-.70257.4969-.90356.65427-.20844.176-.25113.3006.234.01751.2728.039.10437-.01093.14734-.00294a2.184,2.184,0,0,0,1.01785-.07369c.02325-.00607.00213-.17226.06305-.27084M38.87065,5.225c-.36066.19264-.76419.44095-1.278.71452a19.33544,19.33544,0,0,0-1.87045,1.16582c-.83048.59434-1.873,1.3439-2.62183,1.97987s-1.23526,1.20307-1.8862,1.85542c-.05356.05367-.13742.07276-.14056.13764s.144.08744.19284.101a.76472.76472,0,0,0,.14249-.00117c.70355.064.9288.15669,1.56543-.36231S34.34,9.59577,35.02494,8.96222s1.45591-1.38505,2.2345-1.98313A14.13786,14.13786,0,0,1,39.77577,5.371c.06552-.03079.22677-.06365.16861-.14s-.01215-.13916-.24109-.10855-.472-.09-.83264.10258M48.146,9.36315c.38037-.38911.79461-.836,1.17779-1.25922A9.0081,9.0081,0,0,1,51.5243,6.35705c.09-.0518.25006-.11282.23175-.18982s-.17651.00638-.28576-.02551A1.83294,1.83294,0,0,1,51.07,6.06333a.97188.97188,0,0,0-.7912.13449c-.19818.158-.39112.32232-.58295.47966-.46991.38538-.99066.72757-1.44049,1.12921-.85635.76457-1.64557,1.6273-2.4996,2.37252a2.81374,2.81374,0,0,0-.45728.631c-.09256.1512-.09115.144-.05237.22859s.051.16154.22672.07881a7.06175,7.06175,0,0,1,1.04355-.21114.63231.63231,0,0,0,.40057-.23346c.36246-.35151.59885-.69562.94885-1.064.0727-.07653.16739-.13054.28019-.24589M32.44026,8.42021c-.42649.39311-1.00675,1.02907-1.3884,1.39807s-.5903.50134-.92627.82791c-.0441.04286-.12006.09045-.02679.16128s.43151.18464.55841.09921A8.67647,8.67647,0,0,0,31.92506,9.824,18.22142,18.22142,0,0,1,34.19667,7.8694c1.16867-.834,2.368-1.665,3.53512-2.459.14423-.09812.44858-.1192.39972-.28228s-.46362.00821-.56335-.00754-.08161.06091-.12888.08352c-.38849.18582-.67789.31545-1.07559.51755A12.18126,12.18126,0,0,0,35.151,6.356c-.42856.27608-.9538.66317-1.39258,1.00419s-.89163.66691-1.31814,1.06m3.73593-2.991c.11941-.07007.2988-.11673.38208-.16715s.12735-.05868.13693-.11979-.11386-.10076-.16318-.085a7.20942,7.20942,0,0,0-1.29763.45218,27.58,27.58,0,0,0-2.46662,1.4844c-.83285.56585-1.74045,1.28992-2.53573,1.92851a3.34744,3.34744,0,0,0-.73856.84715,1.78527,1.78527,0,0,1-.335.49251c-.13373.13034-.10214.05053-.06464.19621s.42246.16572.514.08307a11.83781,11.83781,0,0,1,1.20935-.96743,2.806,2.806,0,0,0,.5943-.52366,20.98708,20.98708,0,0,1,2.20981-1.94245,25.90112,25.90112,0,0,1,2.5549-1.67851m9.15338,3.83673c-.19992.19293-.35846.37487-.63278.63648s-.80011.72512-1.10294,1.045c-.06106.06451-.20471.2051-.12692.29889s.1951.10623.36362.1061a6.3691,6.3691,0,0,0,.68618-.08138.36721.36721,0,0,0,.3544-.33216.93763.93763,0,0,1,.30109-.52229c.40775-.38483.88748-.87467,1.25339-1.25462s.652-.70062,1.01385-1.01679c.815-.71217,1.58283-1.41707,2.4383-2.059.04-.03007.10412-.07214.08557-.11774s-.11041-.03873-.16535-.03919a.43694.43694,0,0,0-.19336.0353,11.9334,11.9334,0,0,0-2.20849,1.38431c-.71591.57556-1.37491,1.24956-2.06656,1.91713M30.66185,7.35631c-.23459.20649-.55607.40281-.8024.62955-.549.5053-1.13141,1.02714-1.658,1.55348-.09607.096-.25556.18463-.2352.32793a.43012.43012,0,0,0,.37124.28407.65359.65359,0,0,0,.44785-.2104c.4205-.3883.81808-.83864,1.25946-1.20347.94409-.78038,1.9585-1.5373,2.917-2.25788.21552-.162.09912-.06308-.004-.1477s-.086-.14372.05582-.20334c.66934-.28135,1.37836-.56386,2.05472-.85662.03525-.01526.07986-.05758.07761-.09867a.13991.13991,0,0,0-.11664-.09435c-.47489.07569-.85248.07045-1.19043.45037a.172.172,0,0,1-.0708.05573,6.75751,6.75751,0,0,0-1.49381.68352,8.70773,8.70773,0,0,0-1.61242,1.08778M42.574,11.51084a.94093.94093,0,0,0,.3902-.26772c.69077-.69178,1.23288-1.324,1.97031-2.03279S46.56315,7.693,47.37861,6.99907c.3823-.32532.861-.63207,1.25318-.93151.054-.04124.185-.06906.1557-.129s-.06842-.10589-.2016-.066a1.52241,1.52241,0,0,0-.47376.1631,6.64292,6.64292,0,0,0-.68988.42852c-.30365.2214-.80438.56906-1.17312.89082-1.145.99925-2.36664,2.07284-3.515,3.09083a9.09873,9.09873,0,0,0-.65756.668c-.18295.2016-.06885.30893.09384.3741a.51348.51348,0,0,0,.40353.0229m6.44223-2.647c-.22808.21706-.41918.46216-.67865.72839s-.6502.66221-.9179.95421c-.02478.02706-.11682.09616-.04569.11581s.00244.08168.172-.00964a5.33785,5.33785,0,0,1,.83581-.20429,1.09283,1.09283,0,0,0,.65876-.31341,36.77039,36.77039,0,0,1,2.53869-2.704,6.16334,6.16334,0,0,1,1.3263-1.04515c.03314-.01825.18-.12262-.00147-.18318a.874.874,0,0,0-.74817.106c-.21661.17473-.47912.3062-.73272.49987s-.54554.40134-.81354.63528c-.52936.46213-1.06354.91582-1.59339,1.4201M53.753,7.66522a6.20979,6.20979,0,0,1,1.45484-1.20887c.02655-.01273.11175-.07541.04193-.12059s.07458-.10052-.14624-.06828a1.5086,1.5086,0,0,0-.82325.27258c-.47412.43247-1.10815.93772-1.56817,1.37606s-.80933.84108-1.22064,1.28255c-.03241.03477-.08661.07821-.05854.11291s.11078-.00636.16938-.01214.12884-.03946.21307-.04886a1.09646,1.09646,0,0,0,.30762-.03017c.61126-.25526,1.201-.52817,1.81128-.80492a1.41566,1.41566,0,0,0,.68487-.57753,1.71834,1.71834,0,0,1,.49329-.53325c.25329-.23086.67291-.57124.9591-.83136.02771-.02513.08875-.07651.04718-.12614s-.00616-.07462-.12414-.07349a.30444.30444,0,0,0-.31568.19189c-.05261.15575-.04748.07177-.22558.2127s-.62055.41684-.83038.59714a2.88081,2.88081,0,0,0-.57331.61223.98554.98554,0,0,1-.53814.45832c-.18335.03132-.213-.0155-.28064-.1183s-.00275-.11826.0863-.23811.26923-.167.43585-.32437m-25.0611.19794c-.4505.376-.86929.81785-1.3027,1.22985-.07635.07258-.17029.15063-.14007.28819s.32782.22433.44244.17674a.7865.7865,0,0,0,.2446-.17919c.56976-.51284,1.1141-1.05528,1.68341-1.55806a15.90725,15.90725,0,0,1,3.15567-2.17334c.22665-.11862.51971-.23526.671-.3126s.06824-.04622.107-.09981-.06033-.02234-.08575-.0204a3.63372,3.63372,0,0,0-1.24961.33392c-.29788.16734-.47576.26229-.71337.39654A18.38055,18.38055,0,0,0,28.6919,7.86316m23.64655.02694c.155-.1537.28174-.30127.527-.52884s.75177-.67651,1.04-.94683c.04278-.04012.169-.09509.14447-.15082s-.17524-.06219-.24024-.05934a.33152.33152,0,0,0-.175.07842,17.6405,17.6405,0,0,0-1.5711,1.12983c-.54407.47455-1.21534,1.17847-1.73548,1.70624-.22631.22961-.56006.59564-.6878.75582s-.13342.10754-.10724.19923.08563.03231.21393.00265.3692-.14382.58166-.22037.5351-.20105.57172-.51061c.00152-.013.06091-.02127.0824-.04421.33886-.36132.63794-.6974.99652-1.07437.09887-.10392.20428-.18309.35925-.3368m-25.35736.82741c.20377.1434.639-.3299.761-.44768A17.78461,17.78461,0,0,1,29.863,6.56026a5.2083,5.2083,0,0,1,1.54019-.821c.04718-.0138.13318-.10656.10925-.15264s-.11124-.0406-.167-.0317a5.65213,5.65213,0,0,0-2.27222,1.06358c-.68371.473-1.27618.99546-1.91257,1.46749-.221.164-.3833.48813-.17953.63153M57.18623,6.42758c.137-.15568.19165-.16008-.00067-.157a.71434.71434,0,0,0-.59815.176c-.21869.208-.83423.73962-1.01745.91573s-.33179.17945-.3216.32338.28455-.03806.35846-.08276.09387.01945.24152-.05283.436-.10774.57074-.33651a7.63578,7.63578,0,0,1,.76715-.786M60.57588,28.1755c-.13867.05577-.17151.04453-.15345.10937s.0337.11883.1872.088.47308-.11716.69238-.17383.66931-.16248.8689-.19833.19128-.10654.13422-.21709-.05164-.10569-.21283-.08428a4.16453,4.16453,0,0,0-.65162.17608c-.20263.0703-.72619.24434-.8648.3001m-32.6565-21.001c.178-.13386.61277-.50159.71884-.60421s.14191-.06369.12378-.11933-.02993-.07172-.17022.01375-.60028.36526-.78235.51062a6.79323,6.79323,0,0,0-.60065.58315c-.10168.115-.10419.09014-.06006.14459s.0466.05508.159-.04125.43368-.35347.61169-.48732m5.019-2.61945c-.04226.00906-.13586.04113-.11578.08685s.18369.08393.232.08649.14169-.04185.12448-.09522-.19843-.08718-.2407-.07812M57.72187,6.77709c.01191.0498.24689.01678.28681.01929s.08612-.017.07885-.04826-.07513-.04194-.1112-.046-.2663.02519-.25446.075m.32849-.45657c-.00177-.03-.12524-.02729-.14746-.02165a.03744.03744,0,0,0-.0086.06107C57.91487,6.37252,58.05207,6.35049,58.05036,6.32052ZM25.70243,26.67724c-.59073-.0806-1.09585-.14815-1.76486-.21034s-1.61664-.1328-2.32208-.22989-1.43417-.13949-2.10916-.20178c-.31586-.02914-.72489-.06912-.94943-.09014a1.81891,1.81891,0,0,1-.38846-.07532c-.12079-.02916-.09958-.06738-.123-.12134s.08167-.04194.11865-.04081c.58634.018,1.40064.04968,1.94052.08782s.88172.10952,1.34983.15433c.79422.076,1.4411.13245,2.2525.204s1.75174.14818,2.58755.22981a.36289.36289,0,0,1,.20868.07274c.04013.04493.17756.08433.1171.16228s-.05844.12709-.23755.12721A5.72991,5.72991,0,0,1,25.70243,26.67724Zm59.99912.77864c-.42047-.11631-1.15466-.41139-1.50141-.55146a3.78926,3.78926,0,0,1-.762-.45061c-.17389-.11679-.174-.13311-.11236-.22477s.12561-.07083.29589.01058.4538.31412.72528.42557c.9455.38813,1.8686.67426,2.90381.98725s2.2887.674,3.33911.99107c.11292.03408.32929.07248.31556.14634s-.22828.0627-.34278.03026c-1.192-.33754-2.41363-.69517-3.63019-1.04743C86.54176,27.65955,86.12208,27.57219,85.70155,27.45588ZM82.91908,11.93127a1.01694,1.01694,0,0,1-.18378-.08254c-.086-.04266-.32007-.23272-.14014-.344s.12378-.09276.40839.06554a5.30631,5.30631,0,0,0,1.11774.416c.48218.13732,1.31238.47226,1.8952.62522a12.84281,12.84281,0,0,1,1.769.608c.05188.02244.15711.03433.14594.07455s-.10559.05579-.16754.03739c-.49134-.14595-.83-.25289-1.38239-.41008s-1.49292-.41356-2.05029-.56836S83.41719,12.09361,82.91908,11.93127Zm4.01-.79733a2.09818,2.09818,0,0,1,.3172.09357c.06445.02645.08331.01422.09808.04869s-.06665.06461-.09747.058c-.35187-.07589-.71747-.15019-1.06659-.25-.94733-.27069-1.92151-.57731-2.8631-.8125a1.62358,1.62358,0,0,1-.4776-.25119c-.13342-.081-.1178-.113-.06616-.1847a.19945.19945,0,0,1,.211-.06637c1.19366.44158,2.39734.78277,3.57312,1.261A2.29129,2.29129,0,0,0,86.92909,11.13394Zm37.86969-4.35723c.40259-.01882.68518.02278.97741-.019.72687-.104,1.35358-.07974,2.03992-.18871a1.418,1.418,0,0,1,.42127.01854c.08831.01691.20556.00721.19842.06272s-.148.06823-.231.076c-.475.04455-.96844.07659-1.46454.11495-1.051.08125-2.15509.153-3.18872.33705a5.02278,5.02278,0,0,1-.74157.0725c-.1734-.0006-.19477-.03121-.23377-.11677s.06958-.10254.16071-.13867a2.16324,2.16324,0,0,1,.4707-.08729C123.669,6.87658,124.39625,6.79553,124.79878,6.77671Zm2.00946,10.08706c-.007-.01634.06109-.03548.06476-.02108S126.8152,16.8801,126.80824,16.86377ZM110.01692,6.714a11.00225,11.00225,0,0,0-1.24225.92593,11.78946,11.78946,0,0,1-1.095.88365c-.27448.20839-.46558.36224-.63172.49554s-.05413.10357-.08575.18454.14459-.097.15607-.03029.25653.02716.10608.15795a2.49908,2.49908,0,0,1-.77192.40939c-.22485.05412-.41876-.012-.22058-.275a6.7294,6.7294,0,0,1,.76606-.80106c.70764-.6585,1.434-1.264,2.2268-1.88155.35309-.275.655-.50074,1.09949-.81934s1.09119-.83675,1.62152-1.16272a2.638,2.638,0,0,1,1.70508-.4323c.05755.006.15588.04978.1521.1055s-.09619.07386-.15344.09151A9.13106,9.13106,0,0,0,111.06782,5.938c-.16791.11779-.29651.19647-.49463.33953S110.30879,6.50972,110.01692,6.714Zm-1.88422,3.29393c-.029.0007-.049-.05644-.01971-.07s.18579.017.18548.04661S108.16169,10.00724,108.1327,10.00793ZM57.786,27.38952c-.43.1203-.96924.2462-1.31873.36869a7.8669,7.8669,0,0,1-.84637.21518c-.72888.18633-1.37543.35872-2.09778.54-.017.00427-.0061.02677-.07086-.00272s-.53015.13327-.53308-.04114.32513-.12093.49866-.1638c.53668-.13257,1.14831-.34429,1.69775-.4833s1.04376-.24561,1.59467-.39355,1.071-.32371,1.64819-.48946,1.24536-.35185,1.84155-.51985a3.17032,3.17032,0,0,0,.69476-.23536c.19611-.11336.46412-.00467.609.03408s.22974.189.13813.28176-.08319.07174-.31208.0547a2.76206,2.76206,0,0,0-1.01886.12235c-.31433.12165-.59723.15879-.99554.26979S58.216,27.26922,57.786,27.38952ZM54.88154,17.6432a14.95648,14.95648,0,0,1,2.80432-1.37728c.94336-.38786,1.86817-.71822,2.80329-1.07817a1.6746,1.6746,0,0,1,.25921-.11327c.06842-.00779.18354-.05554.1836.03733s.0429.13361-.11945.22709a5.60145,5.60145,0,0,1-.68188.32679c-.80292.31284-1.58637.615-2.44037.90607a16.22727,16.22727,0,0,0-2.58972,1.143C55.04542,17.74559,54.82826,17.6802,54.88154,17.6432Z"/></g></g></svg>