<svg xmlns="http://www.w3.org/2000/svg" viewBox="0 0 184.53313 63.9347"><title>inscription-ribbon-4</title><g id="Layer_2" data-name="Layer 2"><g id="inscription-ribbon-4"><path id="void" d="M184.52742,33.42788a3.12375,3.12375,0,0,1-.7,1.1c-.41993.44-.94.79-1.37989,1.21a12.5938,12.5938,0,0,1-2.39013,1.78,21.58448,21.58448,0,0,0-4.41993,3.49,6.14078,6.14078,0,0,1-1.62011,1.37c-.57984.3-.64991.63-.43994,1.25a1.27572,1.27572,0,0,1,.07006.28c.11011,1.18.21,2.36.31006,3.54a8.28445,8.28445,0,0,0,.3899,2.09.70786.70786,0,0,1,.01.15,10.19156,10.19156,0,0,0,.59009,3.09c.23.86.46,1.71.72,2.56a20.42736,20.42736,0,0,0,1.49,4.16,11.1682,11.1682,0,0,1,.41993,2.04.36059.36059,0,0,1-.03.17.13863.13863,0,0,1,.03.04.06018.06018,0,0,0-.04.01c-.02979.07-.06006.14-.08985.21-.06006-.12-.21-.1-.33008-.13a1.88548,1.88548,0,0,1-.75-.37c-1.06005-.64-3.31005-1.61-4.34008-2.29a27.52775,27.52775,0,0,0-3.15992-1.71c-1.60986-.76-3.22-1.53-4.85009-2.24-1.08985-.46-2.22-.83-3.32984-1.23-1.23-.43-2.4602-.86-3.7-1.25-.79-.25-1.61011-.45-2.41015-.65-.77-.18-1.54-.36-2.31006-.51-.54-.11-1.09986-.16-1.64991-.25a34.22485,34.22485,0,0,0-3.85986-.57c-1.34009-.06-2.59009-.67-3.95019-.49-.81006-.32-1.75-.02-2.53-.5-.05982-.04-.15992-.01-.23,0-1.6399.2-3.2-.35-4.78-.59a1.08541,1.08541,0,0,1-.99-.87c-.03-.17-.21-.32-.28-.49a.58476.58476,0,0,1,.12011-.69,2.11563,2.11563,0,0,0,.65992-1.88,6.89569,6.89569,0,0,1,.39013-2.06,19.253,19.253,0,0,0,.75-4.34c-.02-.88.12989-1.77.16993-2.65a1.84322,1.84322,0,0,0-.16993-1.02,1.66131,1.66131,0,0,1-.01-.74c.02-.22.06983-.43.08008-.65.02-.3-.12012-.45-.45019-.45-1,0-2.01-.03-3.01-.03-1.49.01-2.99.12-4.47.01-2.14991-.15-4.27.1-6.39991.14a59.4133,59.4133,0,0,0-5.98.28c-2.21.27-4.41992.25-6.62011.38a16.68454,16.68454,0,0,1-3.24-.04c-.84009-.1-1.65992.01-2.48-.02-.52-.02-1.04-.06-1.56006-.09a6.16526,6.16526,0,0,1-1.48-.06,5.55677,5.55677,0,0,0-1.62989-.11,7.12935,7.12935,0,0,1-1.89013-.22,10.56529,10.56529,0,0,0-1.3899-.11,21.0986,21.0986,0,0,0-2.83007-.31c-.86988.01-1.71-.18-2.56983-.24-.95019-.08-1.89013-.32-2.82007-.31005-.8601.01-1.65991-.2-2.5-.25-1.1101-.06995-2.23-.15-3.34008-.17a22.17813,22.17813,0,0,1-2.29-.34,9.77218,9.77218,0,0,0-1.31983-.1c-1.05-.01-2.06006-.27-3.12011-.21a17.1775,17.1775,0,0,1-2.57007-.18c-.99-.1-1.98-.24-2.98-.33-.6399-.06-1.3.01-1.92994-.09-.99-.15-1.97.03-2.93994-.03a73.34625,73.34625,0,0,0-8.39013.24c-.91993.04-1.84986.19-2.77.32a9.62146,9.62146,0,0,1,.6101,1.38c.28,1.21.42994,2.45.8,3.63a16.58053,16.58053,0,0,1,.45,3.7,1.7709,1.7709,0,0,0,.27.81,2.07347,2.07347,0,0,1-.87011,3.01,37.5496,37.5496,0,0,1-5.17993,2.32c-1.12989.43-2.28.81-3.40992,1.25-1.2.46-2.3601.99-3.56006,1.44-1.66992.63-3.36987,1.18-5.03,1.82-1.65992.63-3.29,1.34-4.90992,2.06-1.13012.5-2.22,1.07-3.3601,1.55a20.34645,20.34645,0,0,0-4.17994,2.31c-.90014.66-1.88989,1.19-2.84008,1.78a17.046,17.046,0,0,0-4.29,3.25,2.67728,2.67728,0,0,1-.8899.79,3.92529,3.92529,0,0,0-1.03.82,1.7804,1.7804,0,0,1-1.31006.53c-.47-.02-.64991-.15-.60987-.59.04981-.72.15992-1.44.28-2.16q.2699-1.56006.56983-3.12c.09008-.52.22-1.03.32007-1.54.1499-.78.33007-1.56.41992-2.34.08008-.67.06006-1.35.09008-2.02.02-.41.11011-.83.09009-1.25-.05005-.77-.15014-1.54-.25-2.31a.62534.62534,0,0,0-.22021-.36,21.28415,21.28415,0,0,0-3.45-2.9,1.42139,1.42139,0,0,1-.2898-.26,22.49592,22.49592,0,0,0-4.11011-3.01c-.63989-.41-1.21-.94-1.88012-1.29-1.31983-.71-2.67993-1.34-4.04981-1.96-.29-.13-.66015-.05-.95019-.3-.30982-.28-.33985-.36-.00977-.64.81983-.65,1.67993-1.25,2.46-1.94.98-.86,2.14991-1.45,3.04981-2.41a8.55,8.55,0,0,1,1.48-1c1.07007-.73,2.13012-1.48,3.2102-2.2.74-.49,1.49-.94,2.24-1.41.90992-.58,1.78-1.22,2.73-1.72a40.79893,40.79893,0,0,1,4.73-2.47c.99-.37,1.87989-1,2.83985-1.47,1.08008-.53,2.18017-1.02,3.28027-1.52.35986-.17.73-.34,1.08985-.51.34008-.16.29-.48.22-.73-.18995-.74-.43995-1.47-.6399-2.21a9.57809,9.57809,0,0,1-.26-1.21,30.405,30.405,0,0,1-.48-3.7c0-.87-.16015-1.74-.24-2.62a.70413.70413,0,0,1,.35987-.78c.47-.33.74-.94,1.16992-1.36a7.40611,7.40611,0,0,1,2.67016-1.83,18.37652,18.37652,0,0,0,1.61011-.91,28.949,28.949,0,0,1,4.31983-1.66c.98-.32,1.96-.61,2.93994-.92.79-.26,1.62011-.45,2.43017-.66.75-.19,1.5-.39,2.25-.55.48-.1.98-.12,1.46-.23,1.06006-.22,2.1399-.29,3.16993-.58a1.61433,1.61433,0,0,1,.31005-.02,14.46149,14.46149,0,0,0,2.78-.41,2.41586,2.41586,0,0,1,.54-.03c1.5398-.12,3.10987-.14,4.6399-.37,2.5-.37,5.02-.29,7.53-.43a19.6315,19.6315,0,0,1,3.34009.17,23.0297,23.0297,0,0,0,2.34986.21c.76.03,1.52.31,2.28.33a12.29223,12.29223,0,0,1,2.1101.25c1.40991.26,2.85987.2,4.26.56a18.38313,18.38313,0,0,0,2.25977.24c1.31006.18,2.62012.43,3.94018.59.86988.12005,1.77.1,2.6399.22a27.23136,27.23136,0,0,1,3.37011.31.74836.74836,0,0,0,.14991,0c.98.01,1.96-.04,2.93994.05a18.71137,18.71137,0,0,1,2.35009.17,11.58727,11.58727,0,0,0,1.78.1,26.48266,26.48266,0,0,1,3.43995.31,1.62459,1.62459,0,0,0,.38012-.01,10.4125,10.4125,0,0,1,2.73.19,1.01546,1.01546,0,0,0,.29981-.01,18.86165,18.86165,0,0,1,2.81006.18c.72.08,1.43994.06,2.16992.08a19.785,19.785,0,0,1,2.78027.07c.67993.1,1.34985-.04,2.01978.05,1.06006.14,2.12011-.06,3.16015.03a35.79581,35.79581,0,0,0,6.47-.18c2.98-.30005,5.95-.29,8.91993-.47,2.02-.13,4.05-.2,6.07006-.26.95-.03,1.90992,0,2.86011.04,1.00977.03,2.02979.06995,3.0398.18,1.37011.15,2.73.33,4.10009.54,1.11988.19,2.24.37,3.36988.54a26.66589,26.66589,0,0,1,2.78.65c1.58007.42,3.17993.82,4.72,1.37a27.54677,27.54677,0,0,1,3.14013,1.53,14.34673,14.34673,0,0,1,2.54,2.14,1.83236,1.83236,0,0,1,.17993.21.55.55,0,0,0-.09008.07.43662.43662,0,0,1,.17016.19,12.60875,12.60875,0,0,1,.56983,2.63c-.01978.53-.1399,1.06-.2,1.59-.05.49-.08985.98005-.12989,1.47-.03.46-.05.93-.10009,1.4-.08008.67-.15992,1.35-.28,2.01a19.43728,19.43728,0,0,1-.47,2.17c-.3899,1.25-.45,2.56-.78,3.8-.09986.36.05.37.25.4a7.94865,7.94865,0,0,1,1.17016.08c1.1499.31,2.33985.47,3.48975.81,1.23022.36,2.4602.72,3.69018,1.07a47.70822,47.70822,0,0,1,7.30982,2.76c1.03027.5,2.03027,1.05,3.1001,1.46a1.47187,1.47187,0,0,1,.53.44C184.28743,32.95785,184.57747,33.25784,184.52742,33.42788Z" style="fill:#d8bc38"/><path id="fill2" d="M184.52742,33.42788a3.12375,3.12375,0,0,1-.7,1.1c-.41993.44-.94.79-1.37989,1.21a12.5938,12.5938,0,0,1-2.39013,1.78,21.58448,21.58448,0,0,0-4.41993,3.49,6.14078,6.14078,0,0,1-1.62011,1.37c-.57984.3-.64991.63-.43994,1.25a1.27572,1.27572,0,0,1,.07006.28c.11011,1.18.21,2.36.31006,3.54a8.28445,8.28445,0,0,0,.3899,2.09.70786.70786,0,0,1,.01.15,10.19156,10.19156,0,0,0,.59009,3.09c.23.86.46,1.71.72,2.56a20.42736,20.42736,0,0,0,1.49,4.16,11.1682,11.1682,0,0,1,.41993,2.04.36059.36059,0,0,1-.03.17.13863.13863,0,0,1,.03.04.06018.06018,0,0,0-.04.01c-.02979.07-.06006.14-.08985.21-.06006-.12-.21-.1-.33008-.13a1.88548,1.88548,0,0,1-.75-.37c-1.06005-.64-3.31005-1.61-4.34008-2.29a27.52775,27.52775,0,0,0-3.15992-1.71c-1.60986-.76-3.22-1.53-4.85009-2.24-1.08985-.46-2.22-.83-3.32984-1.23-1.23-.43-2.4602-.86-3.7-1.25-.79-.25-1.61011-.45-2.41015-.65-.77-.18-1.54-.36-2.31006-.51-.54-.11-1.09986-.16-1.64991-.25a34.22485,34.22485,0,0,0-3.85986-.57c-1.34009-.06-2.59009-.67-3.95019-.49-.81006-.32-1.75-.02-2.53-.5-.05982-.04-.15992-.01-.23,0-1.6399.2-3.2-.35-4.78-.59a1.08541,1.08541,0,0,1-.99-.87c-.03-.17-.21-.32-.28-.49a.58476.58476,0,0,1,.12011-.69,2.11563,2.11563,0,0,0,.65992-1.88,6.89569,6.89569,0,0,1,.39013-2.06,19.253,19.253,0,0,0,.75-4.34c-.02-.88.12989-1.77.16993-2.65a1.84322,1.84322,0,0,0-.16993-1.02,1.66131,1.66131,0,0,1-.01-.74c.02-.22.06983-.43.08008-.65.02-.3-.12012-.45-.45019-.45-1,0-2.01-.03-3.01-.03-1.49.01-2.99.12-4.47.01-2.14991-.15-4.27.1-6.39991.14a59.4133,59.4133,0,0,0-5.98.28c-2.21.27-4.41992.25-6.62011.38a16.68454,16.68454,0,0,1-3.24-.04c-.84009-.1-1.65992.01-2.48-.02-.52-.02-1.04-.06-1.56006-.09a6.16526,6.16526,0,0,1-1.48-.06,5.55677,5.55677,0,0,0-1.62989-.11,7.12935,7.12935,0,0,1-1.89013-.22,10.56529,10.56529,0,0,0-1.3899-.11,21.0986,21.0986,0,0,0-2.83007-.31c-.86988.01-1.71-.18-2.56983-.24-.95019-.08-1.89013-.32-2.82007-.31005-.8601.01-1.65991-.2-2.5-.25-1.1101-.06995-2.23-.15-3.34008-.17a22.17813,22.17813,0,0,1-2.29-.34,9.77218,9.77218,0,0,0-1.31983-.1c-1.05-.01-2.06006-.27-3.12011-.21a17.1775,17.1775,0,0,1-2.57007-.18c-.99-.1-1.98-.24-2.98-.33-.6399-.06-1.3.01-1.92994-.09-.99-.15-1.97.03-2.93994-.03a73.34625,73.34625,0,0,0-8.39013.24c-.91993.04-1.84986.19-2.77.32a9.62146,9.62146,0,0,1,.6101,1.38c.28,1.21.42994,2.45.8,3.63a16.58053,16.58053,0,0,1,.45,3.7,1.7709,1.7709,0,0,0,.27.81,2.07347,2.07347,0,0,1-.87011,3.01,37.5496,37.5496,0,0,1-5.17993,2.32c-1.12989.43-2.28.81-3.40992,1.25-1.2.46-2.3601.99-3.56006,1.44-1.66992.63-3.36987,1.18-5.03,1.82-1.65992.63-3.29,1.34-4.90992,2.06-1.13012.5-2.22,1.07-3.3601,1.55a20.34645,20.34645,0,0,0-4.17994,2.31c-.90014.66-1.88989,1.19-2.84008,1.78a17.046,17.046,0,0,0-4.29,3.25,2.67728,2.67728,0,0,1-.8899.79,3.92529,3.92529,0,0,0-1.03.82,1.7804,1.7804,0,0,1-1.31006.53c-.47-.02-.64991-.15-.60987-.59.04981-.72.15992-1.44.28-2.16q.2699-1.56006.56983-3.12c.09008-.52.22-1.03.32007-1.54.1499-.78.33007-1.56.41992-2.34.08008-.67.06006-1.35.09008-2.02.02-.41.11011-.83.09009-1.25-.05005-.77-.15014-1.54-.25-2.31a.62534.62534,0,0,0-.22021-.36,21.28415,21.28415,0,0,0-3.45-2.9,1.42139,1.42139,0,0,1-.2898-.26,22.49592,22.49592,0,0,0-4.11011-3.01c-.63989-.41-1.21-.94-1.88012-1.29-1.31983-.71-2.67993-1.34-4.04981-1.96-.29-.13-.66015-.05-.95019-.3-.30982-.28-.33985-.36-.00977-.64.81983-.65,1.67993-1.25,2.46-1.94.98-.86,2.14991-1.45,3.04981-2.41a8.55,8.55,0,0,1,1.48-1c1.07007-.73,2.13012-1.48,3.2102-2.2.74-.49,1.49-.94,2.24-1.41.90992-.58,1.78-1.22,2.73-1.72a40.79893,40.79893,0,0,1,4.73-2.47c.99-.37,1.87989-1,2.83985-1.47,1.08008-.53,2.18017-1.02,3.28027-1.52.35986-.17.73-.34,1.08985-.51.34008-.16.29-.48.22-.73-.18995-.74-.43995-1.47-.6399-2.21a9.57809,9.57809,0,0,1-.26-1.21,30.405,30.405,0,0,1-.48-3.7c0-.87-.16015-1.74-.24-2.62a.70413.70413,0,0,1,.35987-.78c.47-.33.74-.94,1.16992-1.36a7.40611,7.40611,0,0,1,2.67016-1.83,18.37652,18.37652,0,0,0,1.61011-.91,28.949,28.949,0,0,1,4.31983-1.66c.98-.32,1.96-.61,2.93994-.92.79-.26,1.62011-.45,2.43017-.66.75-.19,1.5-.39,2.25-.55.48-.1.98-.12,1.46-.23,1.06006-.22,2.1399-.29,3.16993-.58a1.61433,1.61433,0,0,1,.31005-.02,14.46149,14.46149,0,0,0,2.78-.41,2.41586,2.41586,0,0,1,.54-.03c1.5398-.12,3.10987-.14,4.6399-.37,2.5-.37,5.02-.29,7.53-.43a19.6315,19.6315,0,0,1,3.34009.17,23.0297,23.0297,0,0,0,2.34986.21c.76.03,1.52.31,2.28.33a12.29223,12.29223,0,0,1,2.1101.25c1.40991.26,2.85987.2,4.26.56a18.38313,18.38313,0,0,0,2.25977.24c1.31006.18,2.62012.43,3.94018.59.86988.12005,1.77.1,2.6399.22a27.23136,27.23136,0,0,1,3.37011.31.74836.74836,0,0,0,.14991,0c.98.01,1.96-.04,2.93994.05a18.71137,18.71137,0,0,1,2.35009.17,11.58727,11.58727,0,0,0,1.78.1,26.48266,26.48266,0,0,1,3.43995.31,1.62459,1.62459,0,0,0,.38012-.01,10.4125,10.4125,0,0,1,2.73.19,1.01546,1.01546,0,0,0,.29981-.01,18.86165,18.86165,0,0,1,2.81006.18c.72.08,1.43994.06,2.16992.08a19.785,19.785,0,0,1,2.78027.07c.67993.1,1.34985-.04,2.01978.05,1.06006.14,2.12011-.06,3.16015.03a35.79581,35.79581,0,0,0,6.47-.18c2.98-.30005,5.95-.29,8.91993-.47,2.02-.13,4.05-.2,6.07006-.26.95-.03,1.90992,0,2.86011.04,1.00977.03,2.02979.06995,3.0398.18,1.37011.15,2.73.33,4.10009.54,1.11988.19,2.24.37,3.36988.54a26.66589,26.66589,0,0,1,2.78.65c1.58007.42,3.17993.82,4.72,1.37a27.54677,27.54677,0,0,1,3.14013,1.53,14.34673,14.34673,0,0,1,2.54,2.14,1.83236,1.83236,0,0,1,.17993.21.55.55,0,0,0-.09008.07.43662.43662,0,0,1,.17016.19,12.60875,12.60875,0,0,1,.56983,2.63c-.01978.53-.1399,1.06-.2,1.59-.05.49-.08985.98005-.12989,1.47-.03.46-.05.93-.10009,1.4-.08008.67-.15992,1.35-.28,2.01a19.43728,19.43728,0,0,1-.47,2.17c-.3899,1.25-.45,2.56-.78,3.8-.09986.36.05.37.25.4a7.94865,7.94865,0,0,1,1.17016.08c1.1499.31,2.33985.47,3.48975.81,1.23022.36,2.4602.72,3.69018,1.07a47.70822,47.70822,0,0,1,7.30982,2.76c1.03027.5,2.03027,1.05,3.1001,1.46a1.47187,1.47187,0,0,1,.53.44C184.28743,32.95785,184.57747,33.25784,184.52742,33.42788Z" style="fill:#f4d188"/><path id="fill1" d="M184.10725,32.74661a1.44847,1.44847,0,0,0-.53174-.43878c-1.06885-.40875-2.06787-.96479-3.09521-1.45642a47.24643,47.24643,0,0,0-7.31006-2.76032q-1.84607-.53339-3.68945-1.07721c-1.14844-.33618-2.33887-.49231-3.49024-.80121a7.96458,7.96458,0,0,0-1.17724-.08807c-.2002-.02563-.34082-.0412-.24756-.39264.33154-1.24884.39453-2.55475.7771-3.80115a18.68214,18.68214,0,0,0,.4729-2.171c.12011-.66674.20532-1.34063.283-2.014.05346-.46485.06445-.93445.10083-1.40143.03808-.489.0747-.97846.12841-1.46588.0586-.53046.18042-1.05756.19532-1.58844a12.09044,12.09044,0,0,0-.56787-2.63c-.01416-.07281-.09327-.13727-.16358-.19433.02686-.0235.05371-.04773.0813-.0683a2.10842,2.10842,0,0,0-.17358-.20929,14.66565,14.66565,0,0,0-2.53785-2.14374,29.43308,29.43308,0,0,0-3.14453-1.53149c-1.5393-.549-3.13647-.94007-4.71679-1.369a25.24167,25.24167,0,0,0-2.78663-.64411c-1.124-.17132-2.24975-.35687-3.36938-.53711-1.36426-.2196-2.73071-.39758-4.10156-.54333-1.00635-.10706-2.02124-.14789-3.03369-.18567-.95264-.03552-1.90821-.062-2.8606-.03314-2.02319.06134-4.04712.1289-6.06714.25287-2.97168.18225-5.94873.17889-8.92041.475a35.187,35.187,0,0,1-6.4685.17743c-1.04615-.0888-2.10718.10791-3.16822-.03027-.66357-.08643-1.33252.04993-2.01953-.05237a21.94679,21.94679,0,0,0-2.77978-.06976c-.72339-.01435-1.45166.00433-2.1687-.07355a17.75439,17.75439,0,0,0-2.80542-.18011,1.235,1.235,0,0,1-.3064.00958,10.5265,10.5265,0,0,0-2.72778-.19123,1.74692,1.74692,0,0,1-.38331.01246,27.13161,27.13161,0,0,0-3.43872-.3147,10.982,10.982,0,0,1-1.782-.09924,18.99826,18.99826,0,0,0-2.34888-.17212c-.97216-.08985-1.957-.04035-2.93627-.05042a.64507.64507,0,0,1-.15308.00409,26.92889,26.92889,0,0,0-3.36353-.30829c-.875-.12433-1.77-.106-2.64746-.21808-1.31689-.16821-2.62426-.41009-3.93994-.59112a19.9657,19.9657,0,0,1-2.26025-.23981C77.06282,1.179,75.61873,1.237,74.21174.97476a13.14381,13.14381,0,0,0-2.11108-.2497c-.76441-.01788-1.522-.29663-2.28711-.32226-.79028-.02643-1.563-.119-2.34473-.21216A19.44867,19.44867,0,0,0,64.13044.02231c-2.51171.137-5.0332.052-7.53735.42639C55.06282.67752,53.502.70138,51.95491.81564a3.43429,3.43429,0,0,0-.53662.02789,14.37973,14.37973,0,0,1-2.77955.41846,1.35459,1.35459,0,0,0-.30639.01575c-1.03906.29181-2.11914.36139-3.17114.58508-.48218.10248-.98194.12231-1.46363.22607-.75415.1623-1.50122.35828-2.24853.55054-.8147.20966-1.63745.397-2.43628.65656-.97486.31665-1.95923.60217-2.93237.926a29.20584,29.20584,0,0,0-4.32349,1.6554,15.09218,15.09218,0,0,1-1.614.90558A7.45637,7.45637,0,0,0,27.473,8.61636c-.42285.42249-.69555,1.02655-1.16992,1.35657a.72289.72289,0,0,0-.35766.7876c.08081.87329.24292,1.74548.24365,2.61828a29.34466,29.34466,0,0,0,.4834,3.6994,8.72921,8.72921,0,0,0,.25195,1.213c.20361.73754.45239,1.46307.64429,2.20337.06567.25317.1145.57025-.21656.73065-.36206.17547-.72973.33954-1.095.5086-1.09546.50714-2.20092.99433-3.28369,1.52747-.95679.47095-1.84912,1.09759-2.8396,1.46924a42.91576,42.91576,0,0,0-4.72876,2.46588c-.94873.49658-1.81933,1.14227-2.727,1.71771-.7456.47284-1.50488.92529-2.23926,1.41492-1.07861.71911-2.13842,1.46618-3.2102,2.19549a8.47,8.47,0,0,0-1.4812,1.0044c-.90137.95855-2.07324,1.55066-3.04615,2.40722-.7832.68946-1.64624,1.2873-2.45947,1.94367-.33862.27325-.30884.36041.01.64221.282.24909.65918.17059.94922.30048,1.36719.61212,2.72607,1.24969,4.04932,1.95074.666.35285,1.23291.88776,1.875,1.292a22.40434,22.40434,0,0,1,4.11352,3.0138,1.55446,1.55446,0,0,0,.28394.25781,21.47241,21.47241,0,0,1,3.45971,2.9.67365.67365,0,0,1,.21558.36487c.09937.76819.20044,1.538.24732,2.31043a11.60364,11.60364,0,0,1-.08887,1.24786c-.033.67169-.00415,1.34961-.08447,2.01489-.09449.785-.27222,1.56043-.42359,2.33814-.1001.5163-.22705,1.02753-.32446,1.54431-.19556,1.03888-.39111,2.07806-.56372,3.12091-.11865.7171-.22779,1.43836-.28516,2.16223-.03491.44037.14258.5633.60913.59137a1.78648,1.78648,0,0,0,1.3147-.53723,4.11175,4.11175,0,0,1,1.031-.82123,2.74432,2.74432,0,0,0,.886-.78113A16.87364,16.87364,0,0,1,21.805,58.54116c.95-.595,1.94532-1.12646,2.84717-1.78656A20.25557,20.25557,0,0,1,28.827,54.44345c1.13965-.47614,2.23193-1.04492,3.356-1.5459,1.624-.72382,3.25391-1.42987,4.91333-2.06305,1.66529-.63538,3.36133-1.18939,5.03-1.81665,1.19727-.45013,2.36451-.97937,3.55762-1.44165,1.1294-.43775,2.28076-.81891,3.41211-1.25238a36.8624,36.8624,0,0,0,5.186-2.32074,2.05793,2.05793,0,0,0,.86181-3.00226,1.80975,1.80975,0,0,1-.27051-.80847,16.59262,16.59262,0,0,0-.44775-3.70661c-.366-1.178-.51807-2.4212-.80225-3.62677a8.67832,8.67832,0,0,0-.60693-1.382c.92358-.134,1.84668-.27716,2.76758-.32007a74.0823,74.0823,0,0,1,8.39038-.24152c.97388.06488,1.95435-.11572,2.93921.03217.63574.09546,1.29346.03521,1.937.09283.99463.08893,1.98413.23059,2.978.32807a16.694,16.694,0,0,0,2.57177.18072c1.05542-.06152,2.072.19745,3.11255.20691a10.49442,10.49442,0,0,1,1.32471.09882,20.31535,20.31535,0,0,0,2.28687.34137c1.11792.02307,2.22827.1051,3.34228.1701.83618.04877,1.644.2644,2.49609.25232.93946-.01331,1.8794.23193,2.824.30572.85767.067,1.696.254,2.57324.23951a22.81125,22.81125,0,0,1,2.82349.31152,11.07327,11.07327,0,0,1,1.398.114,7.14287,7.14287,0,0,0,1.88623.22309,5.55215,5.55215,0,0,1,1.625.103,6.34809,6.34809,0,0,0,1.48584.067c.51855.02917,1.03686.06756,1.55566.08728.82544.03131,1.64111-.08423,2.4812.02179a17.59857,17.59857,0,0,0,3.24048.0376c2.20459-.13251,4.4126-.11011,6.6167-.38239a58.81153,58.81153,0,0,1,5.98657-.27392c2.13111-.044,4.25293-.29859,6.39551-.1435,1.48291.10724,2.9812-.00482,4.47241-.00726,1.00489-.00165,2.01.0249,3.0149.02191.33032-.001.46435.15375.45.4552-.01026.217-.06665.43176-.08081.649-.01612.25024-.09864.5534.00854.74188a1.77522,1.77522,0,0,1,.16626,1.016c-.03711.88465-.18774,1.76843-.1731,2.65058a19.06282,19.06282,0,0,1-.74169,4.34509,6.6462,6.6462,0,0,0-.3899,2.05188A2.14911,2.14911,0,0,1,134.12,47.141a.57944.57944,0,0,0-.12159.68536c.06641.17523.24952.317.28223.492a1.08194,1.08194,0,0,0,.98486.87133c1.58667.24048,3.13892.7909,4.77979.59052.07617-.00928.17334-.03888.22754-.00537.78442.48681,1.72387.18451,2.53882.50513,1.35278-.17926,2.60693.42877,3.94336.48394a34.87253,34.87253,0,0,1,3.86254.57556c.54981.08539,1.10547.138,1.65088.24537.77246.1521,1.54077.32928,2.30567.51751.80761.19886,1.61914.39246,2.41137.64362,1.241.39343,2.47095.82342,3.699,1.25635,1.11645.39343,2.24512.76239,3.33032,1.2301,1.6355.70483,3.24439,1.47235,4.852,2.23993a26.20936,26.20936,0,0,1,3.1565,1.71026c1.03247.67945,3.28662,1.64728,4.3457,2.28357a1.83346,1.83346,0,0,0,.74658.37012c.11963.0351.27686.01648.33618.1341.02173-.06971.05786-.14283.08618-.21412l.04029-.01342c-.01-.01172-.02075-.02192-.03028-.03455a.32752.32752,0,0,0,.02735-.17133,11.28218,11.28218,0,0,0-.41626-2.0343,20.45349,20.45349,0,0,1-1.48926-4.16363c-.25806-.84851-.49048-1.70508-.72363-2.561a10.43179,10.43179,0,0,1-.592-3.092.43645.43645,0,0,0-.00782-.15295,8.54209,8.54209,0,0,1-.39233-2.08789c-.10107-1.17981-.19971-2.35987-.30347-3.53943a1.24059,1.24059,0,0,0-.075-.27765c-.20654-.61572-.13623-.9549.44092-1.24707a6.2785,6.2785,0,0,0,1.62158-1.37616,21.45807,21.45807,0,0,1,4.42285-3.48236,13.08007,13.08007,0,0,0,2.385-1.78247c.44092-.42694.96167-.77387,1.38428-1.21631a3.0991,3.0991,0,0,0,.6936-1.09973C184.57893,33.26168,184.28254,32.95492,184.10725,32.74661ZM54.85994,41.75845c.02978.02771.0603.05542.06274.08545a1.54569,1.54569,0,0,1-.70117,1.51129,6.01974,6.01974,0,0,1-1.57764.8244c-1.584.70478-3.09009,1.34064-4.60669,1.95026-.99072.39819-2.00024.74975-2.99487,1.13788-.92725.36181-1.83936.76281-2.771,1.11255-.91284.34277-1.85009.62042-2.762.966-2.08472.79022-4.17554,1.56793-6.23389,2.42316-1.15625.4804-2.24292,1.12555-3.37866,1.65844-1.02832.48249-2.10132.87275-3.1167,1.37989-.80664.40307-1.56128.91272-2.32934,1.39068-.91236.56775-1.81494,1.15106-2.72022,1.72986-1.1272.72058-2.26929,1.41974-3.36987,2.17871-.37036.25531-.59741.71063-.95313.99573a14.32743,14.32743,0,0,1-2.56591,2.05456c-.27442.1327-.38623.03846-.40577-.12927a3.47179,3.47179,0,0,1,.03931-.96252c.21265-1.25543.43359-2.50983.67627-3.75971.219-1.12664.47046-2.24694.70752-3.37a1.67194,1.67194,0,0,0,.05786-.28046,16.2072,16.2072,0,0,1,.08472-2.16644,22.56545,22.56545,0,0,0-.00464-3.40149,1.77429,1.77429,0,0,0-.65991-1.416,15.95828,15.95828,0,0,0-2.90528-2.38684,1.54853,1.54853,0,0,1-.34106-.30853,20.16535,20.16535,0,0,0-4.332-3.2428,5.24192,5.24192,0,0,1-1.14282-.78283A8.84749,8.84749,0,0,0,4.48274,39.727a17.08362,17.08362,0,0,0-1.85059-.93079,2.67589,2.67589,0,0,0-1.5664-.48346c-.0691.012-.15992-.101-.24048-.15607.06616-.05712.13135-.11554.19873-.1712,1.34912-1.11389,2.689-2.23444,4.13183-3.23468,1.15845-.8031,2.20484-1.76556,3.33326-2.61475.62793-.47271,1.31738-.8645,1.98608-1.282,1.15259-.71966,2.29761-1.45294,3.46924-2.14044,1.63867-.96161,3.27222-1.93787,4.95654-2.81421,2.20435-1.14685,4.426-2.2619,6.70288-3.268a6.66706,6.66706,0,0,0,1.87647-.85553c.21533-.18769.41528-.03894.47168.29028.06592.38641.147.77081.199,1.15912.08911.66638.13257,1.34.24707,2.00171.14063.81305.32886,1.61822.50708,2.42444.13526.61328.2771,1.22558.43482,1.83349.16845.6499.36816,1.29169.53637,1.94159.13965.53833.25611,1.0827.37793,1.62555.25415,1.13489.51758,2.268.74952,3.40741.06567.3222.01562.66626.05493.996a6.9092,6.9092,0,0,0,.20141,1.00263c.01831.06585.18018.09778.27954.13488a2.31552,2.31552,0,0,1,1.01929.53406,1.79606,1.79606,0,0,0,1.42066.42359,33.41239,33.41239,0,0,0,4.45019-.19263c2.42993-.3429,4.87378-.24555,7.30591-.42871a16.0462,16.0462,0,0,1,3.11474.14258c.77393.09222,1.56421.11877,2.3379.249a6.97161,6.97161,0,0,1,2.856,1.28009l.07764.0545A1.16113,1.16113,0,0,1,54.85994,41.75845ZM33.25129,38.04464c.01636-.11627.22852-.20471.35254-.30566a2.82512,2.82512,0,0,1,.10645.83923.70521.70521,0,0,1-.10352.23774c-.085-.04242-.22461-.0672-.24511-.13044A1.511,1.511,0,0,1,33.25129,38.04464Zm2.13819.30481c.12451.395.00439.527-.43213.48731a13.12487,13.12487,0,0,1-.51465-1.51227c-.0625-.22577.30078-.58417.56592-.55939.06372.006.17969.14112.16845.163C34.9012,37.45755,35.244,37.88766,35.38948,38.34945Zm2.94409.05078a3.33607,3.33607,0,0,1,.08618.3664c-.16943-.1-.439.23773-.55859-.16358-.12744-.428-.34766-.82751-.499-1.24957-.14453-.40344-.24463-.82275-.38379-1.22839-.02929-.085-.14379-.14069-.219-.20984a4.419,4.419,0,0,0,.37671,2.13275,2.94084,2.94084,0,0,1,.05322.77149c-.40137.014-.4707-.34925-.54663-.58588a3.84638,3.84638,0,0,1-.39917-1.4632c.0083-.11267-.14648-.23724-.22632-.35632-.073.145-.23266.31006-.20434.43146.124.53283.30346,1.05267.4602,1.578.02759.09235.08472.20819.052.27716a.35219.35219,0,0,1-.238.12445,1.72709,1.72709,0,0,1-.37256-.52447,10.16139,10.16139,0,0,1-.36206-1.39045.55347.55347,0,0,1,.18139-.44628,1.78634,1.78634,0,0,1,1.072-.54236c.17871-.08716.26928-.19489.38476-.24994.21314-.10138.44092-.17182.66235-.25519-.0144.19592-.03369.39154-.04272.58771A6.32449,6.32449,0,0,0,38.33357,38.40023Zm-3.85034.27717a.41674.41674,0,0,1-.08765.25372.25957.25957,0,0,1-.19165-.05817,1.83837,1.83837,0,0,1-.18091-.30511c-.05249-.393-.12573-.63184-.1311-.87213-.002-.09363.14917-.19062.23047-.28608.05615.06189.14648.11609.16211.18683C34.36335,37.95413,34.43049,38.315,34.48323,38.6774ZM52.54255,31.545c.221.61871.54883,1.90283.72339,2.52124.42212,1.49622.69116,3.01831,1.00708,4.5329.02686.12805-.08984.286-.13989.43-.03369-.10748-.06665-.21509-.10107-.32233a5.63939,5.63939,0,0,1-.17359-.5451c-.137-.64289-.22412-1.29889-.40039-1.93036a17.54834,17.54834,0,0,1-.56128-2.47992c-.00879-.06982-.10181-.12891-.1543-.15454a19.20992,19.20992,0,0,0,.39869,2.61481,16.144,16.144,0,0,0,.75463,3.09918c.03638.09772-.032.23486-.05175.3537-.13282-.0885-.35108-.15271-.38428-.26947-.15845-.5586-.25293-1.13489-.396-1.69831-.22509-.88476-.48877-1.75988-.7019-2.64727-.16528-.68659-.27564-1.38623-.41626-2.07886a7.12685,7.12685,0,0,0-.19263-.77252c-.01928-.0597-.14038-.08649-.21484-.12842-.02734.06311-.08667.13165-.07691.18841.05323.31141.11792.621.18848.92908.11841.51807.24512,1.0343.36694,1.55164.12745.54132.25269,1.08319.3794,1.62463.18188.77667.37134,1.55164.541,2.33093a2.27568,2.27568,0,0,1-.00415.5152,2.17642,2.17642,0,0,1-.48315-.24579.85542.85542,0,0,1-.26367-.41925A30.94426,30.94426,0,0,1,51.42,35.44894a6.9396,6.9396,0,0,1-.17016-2.91992c.00976-.03479.02173-.09924.01074-.10437-.04175-.0199-.11767-.04511-.1355-.02594-.09594.10266-.25464.2193-.25293.3288a18.88721,18.88721,0,0,0,.11646,2.60833,28.0959,28.0959,0,0,0,.74267,3.09729c.04.14533.15015.28064-.02026.316-.13354.02777-.40283-.07385-.43726-.17669-.21386-.63575-.40185-1.28266-.55126-1.93659-.11524-.50354-.148-1.02533-.24219-1.53442-.1062-.57263-.24073-1.14-.36182-1.71-.06543-.30915-.12524-.61963-.1958-.92768a.52658.52658,0,0,0-.09863-.15039c-.052.05658-.13574.10633-.14966.17108a1.10678,1.10678,0,0,0-.03125.44c.11084.545.28271,1.08.36157,1.62878a21.59264,21.59264,0,0,0,.76074,3.56232c.04078.12695-.02929.40564-.10913.43255a.45888.45888,0,0,1-.60595-.15765,1.00171,1.00171,0,0,1-.042-.21527c-.1792-.64728-.41064-1.28485-.52978-1.94275-.18945-1.04639-.30127-2.10669-.45581-3.15967a.92121.92121,0,0,0-.15357-.27673c-.04956.0918-.14917.18805-.14135.27466.07006.77148.134,1.545.25146,2.31012.07227.4729.25342.92816.35108,1.3985.09521.458.14257.92565.21875,1.38787.03759.23-.04224.30951-.27881.31189-.29981.003-.47852-.07946-.50074-.4107a4.05487,4.05487,0,0,0-.11743-.80585c-.19043-.69159-.42114-1.37213-.60913-2.06427-.20215-.74463-.36987-1.49847-.56421-2.24524-.02392-.09149-.12011-.16412-.18261-.24548-.03907.10156-.12745.21277-.10938.30316.14063.71387.27539,1.43066.4624,2.13318.2461.9245.54712,1.83423.80371,2.75616.06861.247.08643.525-.335.46912a5.82,5.82,0,0,0-1.09375-.09808c-.34863.0205-.43994-.1059-.4165-.41437a.72647.72647,0,0,0-.03565-.29511,16.963,16.963,0,0,1-1.06738-3.96887.99067.99067,0,0,0-.16162-.31445c-.03027-.056-.06348-.11048-.0957-.16565a.59575.59575,0,0,0-.05225.20587c.06592.51514.11353,1.035.2207,1.54193.15967.75452.3667,1.499.54688,2.24939.07373.30713.12768.619.19482.92786.06324.29181-.14013.24914-.31616.27386-.23828.03351-.2771-.06543-.311-.28534a12.84261,12.84261,0,0,0-.31519-1.41693c-.24536-.90155-.50635-1.79907-.77295-2.69458-.04761-.15942.16455-.46289-.2019-.44025-.04322.00269-.09107.33948-.0896.52106a1.80258,1.80258,0,0,0,.11865.41065c.14136.535.24512,1.08288.42676,1.60369a12.419,12.419,0,0,0,.61084,2.14148c.13208.23407-.11011.21985-.13135.33735-.40015-.3454-.84937.04266-1.27979-.0824-.21-.061-.397-.0119-.35815-.31909a.68637.68637,0,0,0-.06665-.27906,28.84371,28.84371,0,0,1-1.0166-3.60028.737.737,0,0,0-.13623-.21631c-.05518.0868-.168.1825-.15625.25892.08227.53051.16284,1.06408.29638,1.58313.209.81146.46119,1.61175.68873,2.41851.01367.04834-.01734.15485-.04639.16254a3.859,3.859,0,0,1-.85034.18414,2.18029,2.18029,0,0,1-.9253-.1405c-.14062-.06268-.16919-.37231-.25293-.56848-.05566-.13062-.13061-.25391-.177-.38739-.23413-.67468-.46-1.3523-.69311-2.02735-.07129-.20574.15014-.51306-.21289-.61737-.03028.233-.06983.46534-.08692.69928a1.18931,1.18931,0,0,0,.02368.45765c.25391.74182.5083,1.48468.80274,2.21081.11255.27716.009.29157-.20435.305-.34594.02173-.56274.013-.70141-.44574a11.78923,11.78923,0,0,1-.70435-2.569c-.00683-.10046-.14087-.19195-.21606-.28759-.07813.1112-.23584.235-.22046.33142a7.94377,7.94377,0,0,0,.28271,1.19616c.17578.54169.40381,1.06629.58252,1.60706.06641.20135.05811.39569-.27685.3819a.45523.45523,0,0,1-.49073-.34455c-.17309-.49139-.38964-.96734-.57641-1.4541a2.99691,2.99691,0,0,1-.293-1.42224.60732.60732,0,0,1,.30078-.42535q1.35864-.536,2.74292-1.0069c.79-.27063,1.58984-.51434,2.38965-.75586.82519-.24921,1.65039-.502,2.48559-.71509a17.65863,17.65863,0,0,1,2.55542-.55377c1.21338-.12262,2.41626-.30518,3.62427-.45264.17774-.02173.35571-.04779.53345-.07238Zm81.10816,1.29712a24.20243,24.20243,0,0,0-2.47388-.05054,28.70458,28.70458,0,0,0-4.01-.00751c-4.86548.273-9.74414.2464-14.60254.72217a23.40177,23.40177,0,0,1-5.0874.1004c-.89233-.10723-1.79273.09772-2.70972-.02795a24.93749,24.93749,0,0,0-3.011-.0581c-.82569-.01154-1.65137-.0329-2.4773-.04957a.68356.68356,0,0,1-.15185.001c-.85108-.22113-1.73511-.16772-2.59839-.3291-.84107-.15723-1.71436-.13348-2.56958-.2251-1.25684-.1347-2.50952-.30786-3.76563-.45092A8.09243,8.09243,0,0,1,88.79719,32.35a19.60229,19.60229,0,0,0-2.44775-.325c-.84473-.14459-1.71362-.14258-2.57031-.22028-1.09571-.09948-2.18873-.22821-3.28516-.31781-.644-.05267-1.29663-.0169-1.93823-.08642a32.938,32.938,0,0,0-3.53516-.425c-1.10034.00159-2.16626-.28894-3.26562-.21863a9.44141,9.44141,0,0,1-1.63111-.08087c-.8667-.09619-1.72607-.28491-2.59448-.334-1.053-.05951-2.10767.03271-3.1687-.00263-2.179-.07251-4.36426.03522-6.54639.093-.439.0116-.873.15643-1.313.19525-1.38379.12189-2.769.22254-4.1538.33106a.84767.84767,0,0,0-.15333.00805,12.19381,12.19381,0,0,1-2.85546.42517,2.04887,2.04887,0,0,0-.3833.01892c-.80176.181-1.59327.43415-2.40406.54206-.97168.12927-1.90649.42431-2.8479.6441a45.65285,45.65285,0,0,0-4.60351,1.53131,18.49773,18.49773,0,0,0-2.395.90943,18.1166,18.1166,0,0,0-3.3335,2.09692c-.312.25909-.60986.535-.91309.80469-.11889.10583-.23437.21551-.35131.32342-.14185-.1651-.35205-.30981-.40869-.50024a5.824,5.824,0,0,1-.05665-.83923c-.07055-.50965-.14892-1.02021-.26245-1.52167-.21289-.94122-.51635-1.86658-.66186-2.817-.11109-.72711-.35425-1.40826-.52124-2.11383-.18848-.7962-.42285-1.58178-.60254-2.37982a7.75164,7.75164,0,0,0-.24219-1.45514,15.91007,15.91007,0,0,1-.56225-3.10351c-.11329-.47882-.12037-.98237-.229-1.46271-.15356-.67883-.37012-1.34314-.53491-2.01966-.21216-.87023-.39209-1.74816-.6001-2.61944a18.886,18.886,0,0,1-.5039-2.03052c-.1604-1.30115-.238-2.6131-.32764-3.92212-.03735-.54364-.22363-1.1582.47461-1.47473a4.80951,4.80951,0,0,1,1.75757-1.75561A23.31666,23.31666,0,0,1,34.31428,5.402c.89551-.327,1.83008-.54986,2.71582-.899a9.832,9.832,0,0,1,3.571-.90772.18786.18786,0,0,0,.06714-.02331,16.22888,16.22888,0,0,1,3.50048-.88965c.48438-.09338.98218-.12073,1.46387-.22443.75415-.16229,1.49341-.39789,2.25073-.5404.94507-.17786,1.89942-.31244,2.85425-.42945.94629-.11608,1.89893-.18151,2.84766-.27941a22.78285,22.78285,0,0,0,2.70141-.235,16.01433,16.01433,0,0,1,3.07276-.2984A33.86731,33.86731,0,0,1,64.37239.59457c.79052.09723,1.59912.04,2.39868.07147.44043.01728.88061.064,1.31909.11365.91821.10394,1.83447.22644,2.75317.32642.77881.08471,1.57007.09253,2.33716.2348A20.20848,20.20848,0,0,0,76.567,1.798a5.56342,5.56342,0,0,1,1.39746.10767,24.67514,24.67514,0,0,0,3.07934.463c.69922.1037,1.438.11731,2.10157.27124a34.41239,34.41239,0,0,0,4.41333.49707c1.39209.1394,2.79785.26434,4.20141.3288,1.42017.06518,2.842.08941,4.26319.13647.59546.01971,1.1936.023,1.78515.08533.86719.09137,1.72657.26025,2.59473.339,1.03369.09369,2.07324.173,3.11035.17382,1.09424.00086,2.17725.1084,3.26563.16791,1.11328.06085,2.22876.127,3.34155.16162,1.2688.03962,2.53589.13092,3.802.15363,2.10449.03772,4.21118-.05194,6.31689-.08923.20484-.00361.4607-.09852.6045-.0091a1.43237,1.43237,0,0,0,1.17553.0669,18.87778,18.87778,0,0,1,3.16187-.26111,2.818,2.818,0,0,0,.5354-.03,7.13046,7.13046,0,0,1,2.64917-.163c.36768.02582.81567.17414,1.15967-.00653a2.94345,2.94345,0,0,1,1.24511-.1828c.53589-.04376,1.075-.04992,1.61255-.07226a11.83133,11.83133,0,0,1,1.61109-.0506c.50879.049.99145-.08008,1.4873-.07709a34.6145,34.6145,0,0,1,4.2461-.04425c.81176.10382,1.64257-.0534,2.47754.04889a25.58124,25.58124,0,0,0,2.78173.06018,1.83986,1.83986,0,0,1,.30591-.00732,15.29908,15.29908,0,0,0,2.614.47107c1.26171.00982,2.43847.44537,3.68579.52392a22.375,22.375,0,0,1,3.63452.803,34.51283,34.51283,0,0,1,6.45068,2.19727,14.85554,14.85554,0,0,1,3.23779,2.49829,1.074,1.074,0,0,0,.322.22973.95428.95428,0,0,0,.05566.18305,7.69312,7.69312,0,0,1,.55908,1.99676,1.50435,1.50435,0,0,1,.0293.84967,3.22971,3.22971,0,0,0-.18652.98774c-.0315.32342.01513.65539-.02564.97686a15.552,15.552,0,0,0-.30981,2.22034,12.61414,12.61414,0,0,1-.57447,3.35748c-.33447,1.326-.56054,2.66724-.83007,4.002-.25538,1.26562-.59205,2.51166-.843,3.77936-.25806,1.30365-.70655,2.5686-.98853,3.86859a20.4338,20.4338,0,0,1-1.71509,5.19745c-.33447.64178-.42651.68829-.95019.15057a10.62778,10.62778,0,0,0-3.0603-1.78979,22.32885,22.32885,0,0,0-3.51392-1.12769c-.407-.12659-.79956-.30823-1.21265-.40295-1.2583-.28846-2.52685-.53168-3.78491-.821a23.67842,23.67842,0,0,0-3.95532-.55524c-.595-.03424-1.19824-.00463-1.78418-.09283a12.19438,12.19438,0,0,0-2.49854-.19226,1.37875,1.37875,0,0,1-.30688.01,11.20544,11.20544,0,0,0-2.574-.19818,1.27762,1.27762,0,0,1-.45826.012C135.44,32.69705,134.54207,33.01431,133.65071,32.84207Zm25.47021,7.19958c-.03369.02661-.126.03992-.13769.02271-.0503-.07312-.12158-.16583-.11084-.24091.04687-.33185.11914-.66.18261-.98956A.74967.74967,0,0,1,159.12092,40.04165Zm-1.40747-1.72625c.0271-.04975-.11816-.19367-.18335-.29383-.05127.07611-.13672.14746-.14819.22907-.07739.55383-.13208,1.11078-.208,1.66485a7.64832,7.64832,0,0,1-.18823.99012c-.02246.08136-.19385.1217-.29688.18084a.85336.85336,0,0,1-.08593-.26977c.02661-.71857.03173-1.441.12475-2.15167.02051-.15571-.02246-.265-.07739-.2577-.10571.014-.2749.10828-.28565.18708-.05908.43805-.07617.88171-.11181,1.32312-.032.39068-.06543.78131-.106,1.1712a.34868.34868,0,0,1-.47778.32733c-.083-.02435-.15894-.29986-.13111-.43927a11.443,11.443,0,0,0,.16211-3.112c-.00683-.09326-.10351-.18-.15844-.26971-.04761.09381-.14112.19043-.1355.28094a17.09843,17.09843,0,0,1-.313,3.36292c-.05029.36883-.13379.54278-.51855.55987a2.81333,2.81333,0,0,0-.6211.17066c-.14062.05719-.20679.1568-.26831.154-.0852-.00384-.16406-.09143-.251-.131-.168-.0763-.30249.43915-.46166.04956-.06031-.14777.06933-.3678.09521-.55725a8.78289,8.78289,0,0,0,.12231-1.08783c.01294-1.28613.00245-2.57245-.00341-3.85864a.77071.77071,0,0,0-.06055-.20551c-.07007.06061-.18652.112-.20068.18372a2.92444,2.92444,0,0,0-.02271.52246c-.01416.91107.01587,1.8255-.05395,2.73224-.05738.74133-.23023,1.474-.36109,2.20886-.01318.07562-.08179.194-.13721.20154-.5769.07885-1.15551.14782-1.73584.19433-.07983.00641-.25073-.13409-.24389-.18982.05-.40435.1438-.803.20459-1.20642a3.09383,3.09383,0,0,0,.00635-.52771,19.06291,19.06291,0,0,0-.11255-2.84405,3.2428,3.2428,0,0,1,.17358-1.52124,1.38562,1.38562,0,0,0-.00024-.41425.87539.87539,0,0,1-.31153.11334c-.41357-.02368-.45166.217-.38012.52082a14.84261,14.84261,0,0,1,.27807,3.38592c.00244.72943-.13989,1.45856-.19775,2.18939-.022.2757-.13428.46119-.408.4112-.30566-.056-.63892.2937-.8479.03326-.10034-.12475.1394-.48688.15405-.74554.05445-.9607.2395-1.90369.23364-2.88-.00512-.84692.033-1.70129.00928-2.55316a1.40989,1.40989,0,0,0-.03076-.45611c-.03809-.09735-.18457-.15216-.283-.226-.03955.12549-.13989.269-.10864.37336a2.86887,2.86887,0,0,1,.03833,1.66668,4.63389,4.63389,0,0,0,.02344,1.14575,8.47147,8.47147,0,0,1-.3396,2.82343c-.05567.15607-.07618.32556-.13843.47845a.79471.79471,0,0,1-.93775.43213c-.07275-.03094-.12841-.1983-.124-.29992.02075-.49158.04834-.98413.10547-1.4726.05615-.47815.18994-.94928.22-1.42786.05029-.79791.04419-1.59936.06372-2.39929a1.23072,1.23072,0,0,1,.03076-.3667,1.2549,1.2549,0,0,0-.09082-1.19915,1.02251,1.02251,0,0,1-.08105-.35254c-.01782.008-.04541.01123-.05176.02465q-.09228.19263-.178.38837c-.10766.24689.1145.44708.06616.72577a10.43138,10.43138,0,0,0-.1018,1.93048,6.86531,6.86531,0,0,1-.20972,2.11786,7.42743,7.42743,0,0,0-.11768,1.39581c-.02026.21338-.0935.42133-.12109.63453-.053.40856-.36352.35522-.63281.3515-.04541-.00061-.14478-.16114-.125-.20923a7.17887,7.17887,0,0,0,.24072-1.95941c.116-.9618-.00366-1.91028.022-2.863.02173-.80774.13526-1.61267.19043-2.42011a1.20978,1.20978,0,0,0-.11621-.3941c-.11279.1366-.22656.27228-.33593.41126-.01221.01525.00122.0498.00122.07537.00024,1.23505.02246,2.47071-.00953,3.7049-.01513.58-.14672,1.15613-.20263,1.7362a15.20844,15.20844,0,0,0-.09766,1.62427c.00293.28467-.08081.32715-.335.34619-.36352.02716-.72144.12568-1.083.18616a.87706.87706,0,0,1-.21875-.01855c.02124-.05524.02588-.13013.06568-.16285.56372-.46508.4541-1.16687.55249-1.76062.15625-.94445.07959-1.92761.23584-2.87219a15.60674,15.60674,0,0,0,.0459-2.17309c.00439-.16333.10131-.32465.10253-.48731a1.73869,1.73869,0,0,0-.0979-.56286c-.022-.06476-.15966-.09-.24463-.13337a.77329.77329,0,0,0-.10668.236,3.15619,3.15619,0,0,0,.01416.4602,11.22116,11.22116,0,0,1-.16895,3.03644,6.69817,6.69817,0,0,0-.09424,1.55224,8.07856,8.07856,0,0,1-.52344,2.60975.48146.48146,0,0,1-.28369.29711c-.50879.09949-1.02661.15351-1.54.23133-.22119.03363-.3269-.02417-.31494-.272.033-.6715.02686-1.34564.08057-2.01519.04443-.55335.19433-1.09949.22266-1.65259.04711-.92621.02807-1.85553.0498-2.78327.01392-.59545.05811-1.19024.06909-1.78576.00171-.086-.10644-.174-.16382-.26111a1.106,1.106,0,0,0-.13452.21313,1.72779,1.72779,0,0,0-.13037.47937c-.01269.28046.01538.56287.02857.8443a15.34005,15.34005,0,0,1-.17334,2.95862c-.08936.61145-.04444,1.24127-.09278,1.86029a15.41163,15.41163,0,0,0-.217,2.4209c.00415.05518-.19238.1604-.30713.18323a1.17649,1.17649,0,0,1-.63965.03918c-.34546-.15789.0315-.37567.04248-.57141.0669-1.17346.19507-2.34338.29517-3.51507a15.59606,15.59606,0,0,1,.23486-2.5644c.20215-.78057-.19677-1.45391-.12646-2.18505.03418-.35822-.31934-.34412-.50073-.38154-.38575-.07965-1.00049.49451-1.00855.90021-.00708.35791.02368.71662.04053,1.07489a12.41144,12.41144,0,0,1-.314,3.05854,14.0429,14.0429,0,0,0-.10669,1.70324c-.06445.83032-.15136,1.65882-.22094,2.48877a.79962.79962,0,0,1-.6709.68939c-1.13672.34333-1.16968.328-1.15186-.8695.009-.60279.14991-1.20288.2168-1.80579.01953-.17615-.02051-.35809-.0166-.537a13.91794,13.91794,0,0,1,.32617-2.97955,1.38649,1.38649,0,0,0-.00635-.3808,7.1887,7.1887,0,0,1,.20752-1.96307,4.20611,4.20611,0,0,0-.03515-1.22388c-.03077-.389.13281-.54913.51831-.54565a18.41507,18.41507,0,0,1,2.80444.18591,7.993,7.993,0,0,0,1.477.09357,20.39763,20.39763,0,0,1,3.21167.29931c1.19946.15937,2.36694.44538,3.55249.63013a27.53374,27.53374,0,0,1,4.19873,1.14563c.69971.22534,1.41113.41351,2.1167.62079a1.79719,1.79719,0,0,1,.40186.13965q1.34142.78149,2.67334,1.5791a.4212.4212,0,0,1,.18335.61291,1.69548,1.69548,0,0,0-.12647.70594,1.51465,1.51465,0,0,1-.63159,1.12762c-.06445.0636-.23267.02185-.353.02869.01489-.10626.03589-.21216.04346-.319.01221-.17346.008-.34821.02441-.52118C157.68684,39.36,157.43293,38.82925,157.71345,38.3154ZM139.6678,36.97079c.0188-.72174.01294-1.446.08081-2.16333a1.03486,1.03486,0,0,1,.408-.55994c.08423-.07055.28613-.00067.43457.00562a1.43354,1.43354,0,0,0-.09668.30841,3.32772,3.32772,0,0,0,.01465.45935,16.843,16.843,0,0,1-.14258,3.56641c-.1836,1.18213-.22315,2.38629-.332,3.58026a4.66747,4.66747,0,0,1-.12744.85925.70038.70038,0,0,1-.31592.39881.59084.59084,0,0,1-.45655-.04688c-.05712-.02838-.03808-.23053-.0371-.35352.0017-.17224.019-.34436.02978-.51654a14.76792,14.76792,0,0,0,.21143-1.87738,13.42365,13.42365,0,0,1,.33984-3.27819A2.34562,2.34562,0,0,0,139.6678,36.97079Zm-3.53955,4.90283a15.68261,15.68261,0,0,0,.40332-3.19812,11.04356,11.04356,0,0,1,.19458-1.9552,3.33425,3.33425,0,0,0-.04077-.91845,2.028,2.028,0,0,1-.06617-1.34125c.06714-.15009-.09985-.40485-.15991-.6117.041-.579.35986-.39917.55152-.36163.19067.03748.14331.19629.08227.38025a1.03425,1.03425,0,0,0,.02319.67944c.22657.52576-.092,1.05091.05274,1.566-.40015.47541.0813,1.05591-.2146,1.58911a3.132,3.132,0,0,0-.12866,1.23176,21.23819,21.23819,0,0,1-.22,2.9475c-.15577.73975.04687,1.46344-.14917,2.2035-.15381.58093-.62427.62646-.9502.91381-.043-.05346-.13257-.11877-.12231-.15856A20.43566,20.43566,0,0,0,136.12825,41.87362ZM183.682,33.74514c-.52344.50409-1.03906,1.01654-1.57056,1.512a9.12121,9.12121,0,0,1-.95679.80645c-.72509.50947-1.458,1.0102-2.21045,1.4776a21.71806,21.71806,0,0,0-3.90551,3.21143,9.25549,9.25549,0,0,1-1.83814,1.45722.57291.57291,0,0,0-.36352.6278c.10815,1.25629.209,2.51325.31225,3.7699.0022.02551-.00073.05176.00391.07672.19824,1.08215.40259,2.16315.59424,3.24646.14551.82221.229,1.65839.42383,2.46814.25195,1.04675.57836,2.07623.88964,3.108.28247.93677.563,1.87549.89014,2.79706.27441.773.60205,2.10364.91016,2.93933-.52124-.30029-1.2312-.7019-1.811-1.06769a38.53987,38.53987,0,0,0-4.28271-2.14624c-.728-.35669-1.43921-.74756-2.1687-1.10132a11.00949,11.00949,0,0,0-2.25879-1.06329,5.61529,5.61529,0,0,1-.9729-.43713c-.99488-.4494-1.9712-.94849-2.99121-1.33185-1.35108-.50794-2.73731-.92291-4.10743-1.38129a17.74794,17.74794,0,0,0-2.42724-.79022c-.59278-.10614-1.18018-.22626-1.75562-.38678a53.24619,53.24619,0,0,0-5.51977-1.03375c-.95118-.16-1.90284-.31763-2.85718-.45783a16.80759,16.80759,0,0,0-2.09888-.24566A17.3979,17.3979,0,0,1,141.2,49.51632c-.73535-.11822-1.48754-.13562-2.22314-.28894-1.11157-.23169-2.25952-.28906-3.37061-.52307-.3269-.06891-.58105-.48468-.8684-.74145.29419-.47724-.03467-1.13794.4978-1.56391.333-.26617.55078-.68072.8916-.93133a8.39679,8.39679,0,0,1,2.8252-1.32386c.73046-.19506,1.51953-.19287,2.23144-.43139a17.75332,17.75332,0,0,1,4.17627-.58911,22.69289,22.69289,0,0,1,4.01392-.07453,7.29809,7.29809,0,0,0,2.62207-.20306,15.34517,15.34517,0,0,1,2.30322-.27875,2.86513,2.86513,0,0,0,.5603-.14007c.90357-.30146,1.81494-.58289,2.7041-.92157A5.04854,5.04854,0,0,0,160.724,39.101,22.57358,22.57358,0,0,0,161.93,36.2922c.51441-1.68146.905-3.40094,1.34595-5.10486.17871-.6911.36157-1.38128.5271-2.07556.16065-.6737.27295-1.36017.46045-2.02575.13452-.47687.36768-.59693.83887-.50043.53589.1098,1.05908.28454,1.59668.38483a28.70678,28.70678,0,0,1,3.27.77941c1.33569.41523,2.66064.87421,4.0144,1.21906a48.76256,48.76256,0,0,1,5.87329,2.13824c1.08081.42817,2.11133.98554,3.15357,1.50653a3.84129,3.84129,0,0,1,.64966.49878A.37.37,0,0,1,183.682,33.74514ZM47.26036,37.74842c-.25052-.82146-.44419-1.61113-.67643-2.38932a7.29561,7.29561,0,0,1-.31825-2.26179c.00149-.06736.09372-.13269.14382-.199.05244.06512.14949.12938.15074.19547a9.50468,9.50468,0,0,0,.922,3.7012,3.15372,3.15372,0,0,1,.188.84433c.01237.08914-.07817.19254-.1216.28943C47.46587,37.88094,47.38312,37.83308,47.26036,37.74842Zm-3.64-1.50284c-.10319-.31655-.23812-.54825-.29569-.79778-.10967-.47539-.18128-.96006-.25126-1.44343-.0087-.06.08857-.13541.13674-.20369.0542.06345.14549.12077.15711.19123a18.08026,18.08026,0,0,0,.98651,3.44584c.03351.08863.09853.18225.08854.26638a1.58624,1.58624,0,0,1-.12981.35914c-.10082-.0678-.26518-.11668-.29193-.20654C43.87,37.35074,43.75241,36.83488,43.62039,36.24558ZM41.3501,34.37807a1.19884,1.19884,0,0,1,.204.42562,8.87326,8.87326,0,0,0,.82828,3.04354,1.32286,1.32286,0,0,1,.05161.41012c-.14369-.05875-.29144-.10952-.42928-.17979-.06367-.03246-.14575-.0968-.15551-.157C41.65607,36.72949,41.04058,35.6013,41.3501,34.37807Zm96.96812,3.4712a12.38988,12.38988,0,0,1-.18715,2.49362c-.13562.94761-.14271,1.91362-.2052,2.8717a.896.896,0,0,1-.02318.29284c-.03611.08065-.14178.19509-.19942.18586-.084-.01347-.16986-.11362-.22124-.19746a.377.377,0,0,1-.01385-.22593c.10817-.78982.22809-1.5781.32838-2.36891.05838-.46045.095-.92411.12713-1.38735.03759-.54227.049-1.08644.09042-1.62835.09535-1.246.2007-2.49127.30882-3.73624a.29178.29178,0,0,1,.11394-.14452c.12044.07281.29571.13927.32949.24745.03412.10925-.09982.25993-.1153.39753a14.46,14.46,0,0,0-.21,2.64434A3.15462,3.15462,0,0,1,138.31822,37.84927Zm5.04347-.8251c-.03191-.76777-.06738-1.45855-.08441-2.14981a1.71121,1.71121,0,0,1,.09075-.49473c.00744-.02623.17308-.04583.1823-.02722.06287.12687.18531.3247.13792.38944-.31532.431.0982.78147.09959,1.17513a11.11972,11.11972,0,0,1-.215,2.11491c-.10469.555-.039,1.13988-.10612,1.7047-.091.76536-.2655,1.52129-.34426,2.28743-.03012.293-.18575.285-.34116.2466-.239-.05906-.06555-.19343-.042-.331.15489-.90555.285-1.81578.40227-2.72717C143.23182,38.51068,143.29156,37.805,143.36169,37.02417Zm7.86376,5.02022c-.404-.19254-.161-.56176-.1184-.78481.16366-.85686.25353-1.7153.345-2.581a19.23036,19.23036,0,0,0,.03685-2.46515.89477.89477,0,0,1,.11311-.301c.11356.08324.3188.16023.325.25083a12.62233,12.62233,0,0,1-.00668,1.27009c-.00468.14319-.06505.28686-.05694.42783a29.08518,29.08518,0,0,1-.32261,3.72239C151.53054,41.72959,151.359,41.86437,151.22545,42.04439Zm2.64972-.11012c-.18656-.034-.40822-.10845-.28131-.37088a7.91263,7.91263,0,0,0,.57152-3.92593,1.46454,1.46454,0,0,1,.13033-.55026c.03218-.08618.13419-.1463.2046-.21821a.76.76,0,0,1,.09328.25892c-.01972.51531-.076,1.0299-.07909,1.545a3.46373,3.46373,0,0,1-.21077,1.80437.65587.65587,0,0,0-.00943.36937A1.329,1.329,0,0,1,153.87517,41.93427Z"/></g></g></svg>