<svg xmlns="http://www.w3.org/2000/svg" xmlns:xlink="http://www.w3.org/1999/xlink" viewBox="0 0 68.55 116.34"><defs><style>.cls-1{fill:url(#linear-gradient);}.cls-2{fill:#ccc;}.cls-3{fill:#e6e6e6;}.cls-4{fill:url(#New_Gradient_Swatch_3);}.cls-5{fill:url(#New_Gradient_Swatch);}.cls-6{fill:url(#radial-gradient);}.cls-7{fill:url(#New_Gradient_Swatch_3-2);}.cls-8,.cls-9{fill:#fff;}.cls-8{opacity:0.25;}.cls-9{opacity:0.5;}.cls-10{fill:none;stroke:#000;stroke-linejoin:round;stroke-width:0.5px;}</style><linearGradient id="linear-gradient" x1="9.06" y1="60.14" x2="59.48" y2="60.14" gradientUnits="userSpaceOnUse"><stop offset="0" stop-color="#ccc"/><stop offset="0.07" stop-color="#aeaeae"/><stop offset="0.15" stop-color="#8f8f8f"/><stop offset="0.24" stop-color="#787878"/><stop offset="0.31" stop-color="#6b6b6b"/><stop offset="0.38" stop-color="#666"/><stop offset="0.72" stop-color="#ccc"/><stop offset="0.79" stop-color="#c7c7c7"/><stop offset="0.88" stop-color="#b9b9b9"/><stop offset="0.97" stop-color="#a2a2a2"/><stop offset="1" stop-color="#999"/></linearGradient><linearGradient id="New_Gradient_Swatch_3" x1="6.23" y1="98.23" x2="62.33" y2="98.23" xlink:href="#linear-gradient"/><radialGradient id="New_Gradient_Swatch" cx="34.28" cy="85.16" r="38.93" gradientTransform="translate(0 65.21) scale(1 0.23)" gradientUnits="userSpaceOnUse"><stop offset="0" stop-color="#f2f2f2"/><stop offset="0.15" stop-color="#dadada"/><stop offset="0.37" stop-color="#bebebe"/><stop offset="0.58" stop-color="#a9a9a9"/><stop offset="0.79" stop-color="#9d9d9d"/><stop offset="1" stop-color="#999"/></radialGradient><radialGradient id="radial-gradient" cx="34.29" cy="29.09" fy="-25.888975317290537" r="54.98" gradientTransform="translate(0.08 22.13) rotate(0.69) scale(1 0.22)" gradientUnits="userSpaceOnUse"><stop offset="0.41" stop-color="#f2f2f2"/><stop offset="0.49" stop-color="#dadada"/><stop offset="0.62" stop-color="#bebebe"/><stop offset="0.75" stop-color="#a9a9a9"/><stop offset="0.88" stop-color="#9d9d9d"/><stop offset="1" stop-color="#999"/></radialGradient><linearGradient id="New_Gradient_Swatch_3-2" x1="6.22" y1="25.39" x2="62.33" y2="25.39" xlink:href="#linear-gradient"/></defs><title>bold-roman-pillar-100-iso</title><g id="Layer_2" data-name="Layer 2"><g id="bold-roman-pillar-100-iso"><path id="void" class="cls-1" d="M59.48,32.82V80.58c0,1.5-2.66,3.17-7,4.48q-1.52.47-3.27.87c-1.27.28-2.64.54-4.07.75a72,72,0,0,1-10.91.81c-.71,0-1.42,0-2.1,0-1.44,0-2.86-.11-4.22-.23-1.52-.13-3-.3-4.41-.51s-2.76-.46-4-.74c-6.34-1.39-10.46-3.52-10.46-5.39V32.79l.45.17.55.18.75.25v0A78.47,78.47,0,0,0,28,36.21c2.06.14,4.28.22,6.63.22S39,36.35,41,36.21a83.54,83.54,0,0,0,11.51-1.55v.1c1-.2,2-.43,2.93-.67.77-.2,1.51-.41,2.2-.63.46-.14.89-.29,1.31-.45l.41-.15Z"/><rect id="void-2" data-name="void" class="cls-2" x="0.26" y="110.51" width="68.03" height="5.57"/><path id="void-3" data-name="void" class="cls-3" d="M68.3,110.51H.24L6.1,95.68h.13v5.69c0,3.42,12.55,7.52,28,7.52s28.06-4.1,28.06-7.52v-5Z"/><path id="void-4" data-name="void" class="cls-4" d="M62.33,87.57v13.8c0,3.42-12.56,7.52-28.06,7.52s-28-4.1-28-7.52V87.57c5.08,3.39,15.74,5.71,28,5.71S57.23,91,62.33,87.57Z"/><path id="void-5" data-name="void" class="cls-5" d="M65.52,83.07c0,1.62-1.15,3.14-3.19,4.5C57.23,91,46.6,93.28,34.27,93.28s-23-2.32-28-5.71C4.17,86.21,3,84.69,3,83.07c0-3.15,2.92-4.81,6-6v3.54c0,1.87,4.12,4,10.46,5.39,1.26.28,2.6.53,4,.74s2.89.38,4.41.51c1.36.12,2.78.2,4.22.23.68,0,1.39,0,2.1,0a72,72,0,0,0,10.91-.81c1.43-.21,2.8-.47,4.07-.75s2.26-.56,3.27-.87c4.3-1.31,7-3,7-4.48V77C62.33,78,65.52,79.59,65.52,83.07Z"/><path id="void-6" data-name="void" class="cls-6" d="M65.53,26.24c0,2.86-1.56,4.58-4.73,6-.41.19-.85.37-1.32.55l-.11,0L59,33c-.31.09-.74.24-1.31.4-1.18.34-2.91.81-5.13,1.25A83.54,83.54,0,0,1,41,36.21c-2,.14-4.16.22-6.43.22S30,36.35,28,36.21a78.47,78.47,0,0,1-17.14-2.84l-.75-.23L9.51,33l-.45-.17c-.45-.17-.87-.34-1.28-.52C4.63,30.89,3,28.5,3,26.24a5.7,5.7,0,0,1,3.19-4.48v.36c0,.16,0,.34,0,.49s0,0,0,.05a2.28,2.28,0,0,0,0,.26,1,1,0,0,0,.08.24C7.29,26,16,29.38,27.55,30c2.17.12,4.43.18,6.75.18S38.87,30.12,41,30c12.23-.66,21.3-4.42,21.3-7.34v-.91A5.05,5.05,0,0,1,65.53,26.24Z"/><path id="void-7" data-name="void" class="cls-7" d="M62.33,20.65v2c0,2.92-9.09,6.67-21.32,7.34-2.16.12-4.42.18-6.74.18s-4.58-.06-6.74-.18c-11.46-.63-20.16-4-21.19-6.79a1,1,0,0,1-.08-.24,2.28,2.28,0,0,1,0-.26s0,0,0-.05,0-.33,0-.49V20.85Z"/><rect id="void-8" data-name="void" class="cls-2" x="0.24" y="15.07" width="68.05" height="5.59"/><polygon id="void-9" data-name="void" class="cls-3" points="68.3 15.07 0.24 15.07 6.1 0.25 62.05 0.25 68.3 15.07"/><path id="void-10" data-name="void" class="cls-8" d="M27.53,30c2.16.12,4.42.18,6.74.18S38.85,30.07,41,30c12.23-.67,21.32-4.42,21.32-7.34v-2h6V15.07L62.05.25H6.1L.24,15.07v5.58h6v1.11a0,0,0,0,1,0,0v.91a2.28,2.28,0,0,0,0,.26,1.55,1.55,0,0,1,0-.31c0-.15,0-.33,0-.49v-.36A5.7,5.7,0,0,0,3,26.24c0,2.26,1.59,4.65,4.74,6,.41.18.83.35,1.28.52V77c-3.11,1.22-6,2.88-6,6,0,1.62,1.14,3.14,3.2,4.5v8.11H6.1L.24,110.51h0v5.57h68v-5.57h0l-6-14.18V87.57c2-1.36,3.19-2.88,3.19-4.5,0-3.48-3.19-5.12-6-6V32.82c.47-.18.91-.36,1.32-.55,3.17-1.45,4.73-3.17,4.73-6a5.05,5.05,0,0,0-3.19-4.49v.91c0,2.92-9.07,6.68-21.3,7.34-2.17.12-4.43.18-6.74.18s-4.58-.06-6.75-.18C16,29.38,7.29,26,6.34,23.16,7.37,26,16.07,29.32,27.53,30Zm25,4.71c2.22-.44,3.95-.91,5.13-1.25.9-.26,1.48-.46,1.72-.55-.54.22-1.12.41-1.72.6s-1.43.43-2.2.63c-.92.24-1.91.47-2.93.67s-2.15.41-3.27.59c-1.31.2-2.68.38-4.07.53s-2.75.26-4.17.35v0A83.54,83.54,0,0,0,52.52,34.66ZM10.81,33.37v0L9.51,33Z"/><path id="fill1" class="cls-9" d="M27.53,30c2.16.12,4.42.18,6.74.18S38.85,30.07,41,30c12.23-.67,21.32-4.42,21.32-7.34v-2h6V15.07L62.05.25H6.1L.24,15.07v5.58h6v1.11a0,0,0,0,1,0,0v.91a2.28,2.28,0,0,0,0,.26,1.55,1.55,0,0,1,0-.31c0-.15,0-.33,0-.49v-.36A5.7,5.7,0,0,0,3,26.24c0,2.26,1.59,4.65,4.74,6,.41.18.83.35,1.28.52V77c-3.11,1.22-6,2.88-6,6,0,1.62,1.14,3.14,3.2,4.5v8.11H6.1L.24,110.51h0v5.57h68v-5.57h0l-6-14.18V87.57c2-1.36,3.19-2.88,3.19-4.5,0-3.48-3.19-5.12-6-6V32.82c.47-.18.91-.36,1.32-.55,3.17-1.45,4.73-3.17,4.73-6a5.05,5.05,0,0,0-3.19-4.49v.91c0,2.92-9.07,6.68-21.3,7.34-2.17.12-4.43.18-6.74.18s-4.58-.06-6.75-.18C16,29.38,7.29,26,6.34,23.16,7.37,26,16.07,29.32,27.53,30Zm25,4.71c2.22-.44,3.95-.91,5.13-1.25.9-.26,1.48-.46,1.72-.55-.54.22-1.12.41-1.72.6s-1.43.43-2.2.63c-.92.24-1.91.47-2.93.67s-2.15.41-3.27.59c-1.31.2-2.68.38-4.07.53s-2.75.26-4.17.35v0A83.54,83.54,0,0,0,52.52,34.66ZM10.81,33.37v0L9.51,33Z"/><path id="outline" class="cls-10" d="M68.3,110.51H.25L6.09,95.68h.13v5.69c0,3.42,12.56,7.52,28.05,7.52s28.05-4.1,28.05-7.52v-5Zm0,0H.26v5.59h68Zm-34-17.22c-12.31,0-23-2.32-28.05-5.71v13.8c0,3.42,12.56,7.52,28.05,7.52s28.05-4.1,28.05-7.52V87.57C57.24,91,46.6,93.28,34.27,93.28ZM59.48,77v3.56c0,3.09-11.28,6.89-25.21,6.89s-25.2-3.8-25.2-6.89V77c-3.12,1.23-6,2.89-6,6,0,1.62,1.15,3.14,3.19,4.5C11.31,91,22,93.28,34.27,93.28s23-2.32,28.05-5.71c2.05-1.36,3.2-2.88,3.2-4.5C65.52,79.59,62.32,78,59.48,77ZM34.59,36.43c-16.1,0-25.52-3.64-25.52-3.64v47.8c0,3.09,11.28,6.89,25.2,6.89s25.21-3.8,25.21-6.89V32.82S49.78,36.43,34.59,36.43ZM6.24,21.75a5.7,5.7,0,0,0-3.19,4.49c0,2.26,1.58,4.65,4.73,6,5.7,2.5,16.16,4.18,26.51,4.18s20.85-1.59,26.51-4.18c3.18-1.45,4.74-3.17,4.74-6a5.07,5.07,0,0,0-3.2-4.49v.91c0,2.92-9.07,6.67-21.3,7.34-2.17.12-4.43.18-6.75.18s-4.57-.06-6.74-.18c-12.23-.67-21.31-4.42-21.31-7.34ZM62.05.25h-56L.25,15.06H68.3ZM.25,15.06v5.6H68.3v-5.6ZM32.17,36.43v51M28,36.07V87.23M23.54,35.87V86.75m-4-51.41V86M15.65,34.64V84.79M13,34V83.83m-2.2-50.68V82.68M36.57,36.43v51M41,36.07v51.1m4.18-.49V35.87m4.06-.53V85.93m3.28-51.42V85.07m2.92-51V83.87m2.2-50.66V82.78M6.22,20.66v1.95c0,2.92,9.08,6.68,21.31,7.34q3.25.18,6.74.18c2.32,0,4.58-.06,6.74-.18,12.24-.66,21.31-4.42,21.31-7.34V20.66l-56.1.19"/></g></g></svg>