<svg xmlns="http://www.w3.org/2000/svg" xmlns:xlink="http://www.w3.org/1999/xlink" viewBox="0 0 68.55 165.47"><defs><style>.cls-1{fill:url(#linear-gradient);}.cls-2{fill:#ccc;}.cls-3{fill:#e6e6e6;}.cls-4{fill:url(#New_Gradient_Swatch_3);}.cls-5{fill:url(#radial-gradient);}.cls-6{fill:url(#radial-gradient-2);}.cls-7{fill:url(#New_Gradient_Swatch_3-2);}.cls-8,.cls-9{fill:#fff;}.cls-8{opacity:0.25;}.cls-9{opacity:0.5;}.cls-10{fill:none;stroke:#000;stroke-linejoin:round;stroke-width:0.5px;}</style><linearGradient id="linear-gradient" x1="9.07" y1="84.73" x2="59.48" y2="84.73" gradientUnits="userSpaceOnUse"><stop offset="0" stop-color="#ccc"/><stop offset="0.07" stop-color="#aeaeae"/><stop offset="0.15" stop-color="#8f8f8f"/><stop offset="0.24" stop-color="#787878"/><stop offset="0.31" stop-color="#6b6b6b"/><stop offset="0.38" stop-color="#666"/><stop offset="0.72" stop-color="#ccc"/><stop offset="0.79" stop-color="#c7c7c7"/><stop offset="0.88" stop-color="#b9b9b9"/><stop offset="0.97" stop-color="#a2a2a2"/><stop offset="1" stop-color="#999"/></linearGradient><linearGradient id="New_Gradient_Swatch_3" x1="6.22" y1="147.36" x2="62.33" y2="147.36" xlink:href="#linear-gradient"/><radialGradient id="radial-gradient" cx="34.27" cy="134.29" fy="105.51524714858374" r="43.92" gradientTransform="translate(0 83.45) scale(1 0.38)" gradientUnits="userSpaceOnUse"><stop offset="0" stop-color="#f2f2f2"/><stop offset="0.15" stop-color="#dadada"/><stop offset="0.36" stop-color="#bebebe"/><stop offset="0.58" stop-color="#a9a9a9"/><stop offset="0.79" stop-color="#9d9d9d"/><stop offset="1" stop-color="#999"/></radialGradient><radialGradient id="radial-gradient-2" cx="34.29" cy="29.1" fy="7.149046139155839" r="40.51" gradientTransform="translate(0.07 22.55) rotate(0.64) scale(1 0.21)" gradientUnits="userSpaceOnUse"><stop offset="0.41" stop-color="#f2f2f2"/><stop offset="0.49" stop-color="#dadada"/><stop offset="0.62" stop-color="#bebebe"/><stop offset="0.75" stop-color="#a9a9a9"/><stop offset="0.88" stop-color="#9d9d9d"/><stop offset="1" stop-color="#999"/></radialGradient><linearGradient id="New_Gradient_Swatch_3-2" x1="6.22" y1="25.39" x2="62.33" y2="25.39" xlink:href="#linear-gradient"/></defs><title>bold-roman-pillar-150-iso</title><g id="Layer_2" data-name="Layer 2"><g id="bold-roman-pillar-150-iso"><path id="void" class="cls-1" d="M59.48,32.84v96.88c0,1.49-2.66,3.16-7,4.47-1,.31-2.1.6-3.26.87s-2.64.54-4.08.75a72,72,0,0,1-10.91.81c-.71,0-1.4,0-2.1,0-1.44,0-2.85-.11-4.22-.23-1.54-.13-3-.3-4.42-.51s-2.76-.46-4-.74c-6.33-1.38-10.45-3.52-10.45-5.38V32.84s.58.23,1.74.57l1.28.37c.41.12.87.24,1.37.36,1.3.32,2.68.61,4.12.87l.92.16c.93.17,1.93.32,3,.46.45.06.89.12,1.36.16l1.38.16c.46,0,.93.1,1.41.13.93.09,1.89.15,2.84.21.63,0,1.27.07,1.93.09s1.27,0,1.93,0l1.92,0h0l1.94,0c.66,0,1.31,0,1.94,0l1.73-.08,1.31-.09c.71,0,1.4-.1,2.1-.16l1.27-.14c.39,0,.77-.08,1.16-.13,2.39-.25,4.67-.6,6.77-1a49.47,49.47,0,0,0,5.12-1.3l.53-.18c.23-.06.43-.13.64-.2L59.1,33l.16-.06a.23.23,0,0,0,.1,0Z"/><rect id="void-2" data-name="void" class="cls-2" x="0.26" y="159.64" width="68.03" height="5.57"/><path id="void-3" data-name="void" class="cls-3" d="M68.3,159.64H.25L6.1,144.81h.12v5.68c0,3.43,12.57,7.53,28.05,7.53s28.06-4.1,28.06-7.53v-5Z"/><path id="void-4" data-name="void" class="cls-4" d="M62.33,136.7v13.79c0,3.43-12.57,7.53-28.06,7.53s-28.05-4.1-28.05-7.53V136.7c5.09,3.39,15.74,5.71,28.05,5.71S57.23,140.09,62.33,136.7Z"/><path id="void-5" data-name="void" class="cls-5" d="M65.52,132.2c0,1.62-1.15,3.14-3.19,4.5-5.1,3.39-15.73,5.71-28.06,5.71s-23-2.32-28.05-5.71c-2-1.36-3.2-2.88-3.2-4.5,0-3.14,2.93-4.81,6.05-6v3.56c0,1.86,4.12,4,10.45,5.38,1.25.28,2.59.53,4,.74s2.88.38,4.42.51c1.37.12,2.78.19,4.22.23.7,0,1.39,0,2.1,0a72,72,0,0,0,10.91-.81c1.44-.21,2.8-.47,4.08-.75s2.25-.56,3.26-.87c4.3-1.31,7-3,7-4.47v-3.56C62.33,127.08,65.52,128.72,65.52,132.2Z"/><path id="void-6" data-name="void" class="cls-6" d="M65.54,26.24c0,2.86-1.57,4.58-4.74,6-.46.21-.92.4-1.44.6a.23.23,0,0,1-.1,0L59.1,33l-.29.11c-.21.07-.41.14-.64.2l-.53.16a71,71,0,0,1-11.89,2.34c-.39,0-.77.1-1.16.13l-1.27.14c-.7.06-1.39.12-2.1.16l-1.31.09-1.73.08c-.63,0-1.28,0-1.94,0l-1.94,0h0l-1.92,0c-.64,0-1.29,0-1.93,0l-1.93-.09c-.95-.06-1.91-.12-2.84-.21-.48,0-.95-.08-1.41-.13l-1.38-.16c-.47,0-.91-.1-1.36-.16-1.07-.14-2.07-.29-3-.46L17.58,35c-1.44-.26-2.82-.55-4.12-.87l-1.37-.36c-.44-.12-.86-.26-1.28-.39a28.21,28.21,0,0,1-3-1.12c-3.15-1.38-4.73-3.77-4.73-6a5.71,5.71,0,0,1,3.17-4.48v.85a1,1,0,0,0,0,.33,1.2,1.2,0,0,0,.08.27,2,2,0,0,0,.28.52c.06.08.12.17.19.25a1.31,1.31,0,0,0,.23.24l.26.26a6.32,6.32,0,0,0,.6.49h0c.21.14.42.29.65.43C12,27.56,19,29.55,27.56,30c2.16.12,4.42.18,6.74.18S38.87,30.12,41,30c12.23-.67,21.3-4.42,21.3-7.34v-.91A5.07,5.07,0,0,1,65.54,26.24Z"/><path id="void-7" data-name="void" class="cls-7" d="M62.33,20.65v2c0,2.92-9.09,6.67-21.32,7.34-2.16.12-4.42.18-6.74.18s-4.58-.06-6.74-.18c-8.5-.45-15.48-2.42-19-4.55-.23-.14-.44-.29-.65-.43h0c-.23-.17-.42-.34-.6-.49l-.26-.26A1.31,1.31,0,0,1,6.82,24c-.07-.08-.13-.17-.19-.25a2,2,0,0,1-.28-.52,1.2,1.2,0,0,1-.08-.27,1,1,0,0,1,0-.33V20.85Z"/><rect id="void-8" data-name="void" class="cls-2" x="0.25" y="15.07" width="68.05" height="5.59"/><polygon id="void-9" data-name="void" class="cls-3" points="68.3 15.07 0.25 15.07 6.1 0.25 62.05 0.25 68.3 15.07"/><path id="void-10" data-name="void" class="cls-8" d="M27.53,30c2.16.12,4.42.18,6.74.18S38.85,30.07,41,30c12.23-.67,21.32-4.42,21.32-7.34v-2h6V15.07L62.05.25H6.1L.25,15.07v5.58h6v1.11h0v.91a1.54,1.54,0,0,0,.11.55,1.3,1.3,0,0,1-.13-.6v-.85a5.71,5.71,0,0,0-3.17,4.48c0,2.26,1.58,4.65,4.73,6a28.21,28.21,0,0,0,3,1.12c.83.27,1.72.51,2.65.75-1.08-.27-2-.52-2.65-.73-1.16-.34-1.74-.57-1.74-.57v93.32C6,127.39,3,129.06,3,132.2c0,1.62,1.16,3.14,3.2,4.5v8.11H6.1L.25,159.64h0v5.57h68v-5.57h0l-6-14.18V136.7c2-1.36,3.19-2.88,3.19-4.5,0-3.48-3.19-5.12-6-6V32.84l-.67.24c.72-.27,1.38-.53,2-.81,3.17-1.45,4.74-3.17,4.74-6a5.07,5.07,0,0,0-3.2-4.49v.91c0,2.92-9.07,6.67-21.3,7.34q-3.26.18-6.74.18c-2.32,0-4.58-.06-6.74-.18-10.77-.59-19.1-3.57-20.93-6.27C8.54,26.42,16.83,29.37,27.53,30Zm30.64,3.33-.53.18a49.47,49.47,0,0,1-5.12,1.3A84.72,84.72,0,0,1,43.32,36a74.42,74.42,0,0,0,14.32-2.6Zm-29.68,3A87.27,87.27,0,0,1,17.58,35,95.26,95.26,0,0,0,28.49,36.29Z"/><path id="fill1" class="cls-9" d="M27.53,30c2.16.12,4.42.18,6.74.18S38.85,30.07,41,30c12.23-.67,21.32-4.42,21.32-7.34v-2h6V15.07L62.05.25H6.1L.25,15.07v5.58h6v1.11h0v.91a1.54,1.54,0,0,0,.11.55,1.3,1.3,0,0,1-.13-.6v-.85a5.71,5.71,0,0,0-3.17,4.48c0,2.26,1.58,4.65,4.73,6a28.21,28.21,0,0,0,3,1.12c.83.27,1.72.51,2.65.75-1.08-.27-2-.52-2.65-.73-1.16-.34-1.74-.57-1.74-.57v93.32C6,127.39,3,129.06,3,132.2c0,1.62,1.16,3.14,3.2,4.5v8.11H6.1L.25,159.64h0v5.57h68v-5.57h0l-6-14.18V136.7c2-1.36,3.19-2.88,3.19-4.5,0-3.48-3.19-5.12-6-6V32.84l-.67.24c.72-.27,1.38-.53,2-.81,3.17-1.45,4.74-3.17,4.74-6a5.07,5.07,0,0,0-3.2-4.49v.91c0,2.92-9.07,6.67-21.3,7.34q-3.26.18-6.74.18c-2.32,0-4.58-.06-6.74-.18-10.77-.59-19.1-3.57-20.93-6.27C8.54,26.42,16.83,29.37,27.53,30Zm30.64,3.33-.53.18a49.47,49.47,0,0,1-5.12,1.3A84.72,84.72,0,0,1,43.32,36a74.42,74.42,0,0,0,14.32-2.6Zm-29.68,3A87.27,87.27,0,0,1,17.58,35,95.26,95.26,0,0,0,28.49,36.29Z"/><path id="outline" class="cls-10" d="M68.3,159.64H.25l5.84-14.83h.13v5.68c0,3.43,12.56,7.53,28.05,7.53s28.05-4.1,28.05-7.53v-5Zm0,0H.26v5.59h68Zm-34-17.22c-12.31,0-23-2.32-28.05-5.71v13.79c0,3.43,12.56,7.53,28.05,7.53s28.05-4.1,28.05-7.53V136.7C57.24,140.09,46.6,142.41,34.27,142.41Zm25.21-16.25v3.56c0,3.09-11.28,6.89-25.21,6.89s-25.2-3.8-25.2-6.89v-3.56c-3.12,1.23-6,2.89-6,6,0,1.62,1.15,3.14,3.19,4.5,5.09,3.39,15.74,5.71,28.05,5.71s23-2.32,28.05-5.71c2.05-1.36,3.2-2.88,3.2-4.5C65.52,128.72,62.32,127.08,59.48,126.16ZM34.27,36.45c-16,0-25.2-3.61-25.2-3.61v96.88c0,3.09,11.28,6.89,25.2,6.89s25.21-3.8,25.21-6.89V32.84S50.13,36.45,34.27,36.45Zm-28-14.7a5.7,5.7,0,0,0-3.19,4.49c0,2.26,1.58,4.65,4.73,6,5.7,2.5,16.16,4.18,26.51,4.18s20.85-1.59,26.51-4.18c3.18-1.45,4.74-3.17,4.74-6a5.07,5.07,0,0,0-3.2-4.49v.91c0,2.92-9.07,6.67-21.3,7.34-2.17.12-4.43.18-6.75.18s-4.57-.06-6.74-.18c-12.23-.67-21.31-4.42-21.31-7.34ZM62.05.25h-56L.25,15.06H68.3ZM.25,15.06v5.6H68.3v-5.6ZM32.17,36.64v100M28,36.27V136.36M23.54,36.08v99.8m-4-100.33V135.1M15.65,34.84v99.08M13,34.23V133m-2.2-99.6v98.45M36.57,36.64v99.93M41,36.27v100M45.19,36.08v99.73m4.06-.75V35.54m3.28,98.66V34.72m2.92-.45V133m2.2-99.57v98.49M6.22,20.66v1.95c0,2.92,9.08,6.68,21.31,7.34q3.25.18,6.74.18c2.32,0,4.58-.06,6.74-.18,12.24-.66,21.31-4.42,21.31-7.34V20.66l-56.1.19"/></g></g></svg>