<svg xmlns="http://www.w3.org/2000/svg" xmlns:xlink="http://www.w3.org/1999/xlink" viewBox="0 0 30.72 104.5"><defs><style>.cls-1{fill:url(#radial-gradient);}.cls-2{fill:url(#New_Gradient_Swatch_3);}.cls-3{fill:url(#radial-gradient-2);}.cls-4{fill:url(#New_Gradient_Swatch_3-2);}.cls-5{fill:url(#radial-gradient-3);}.cls-6{fill:url(#New_Gradient_Swatch_3-3);}.cls-7{fill:url(#New_Gradient_Swatch_copy);}.cls-8,.cls-9{fill:#fff;}.cls-10,.cls-8,.cls-9{stroke:#000;stroke-linecap:round;stroke-linejoin:round;stroke-width:0.5px;}.cls-8{opacity:0.25;}.cls-9{opacity:0.5;}.cls-10{fill:none;}</style><radialGradient id="radial-gradient" cx="15.33" cy="99.81" fy="86.85003525911496" r="23.28" gradientTransform="translate(0 65.63) scale(1 0.34)" gradientUnits="userSpaceOnUse"><stop offset="0.41" stop-color="#f2f2f2"/><stop offset="0.49" stop-color="#dadada"/><stop offset="0.62" stop-color="#bebebe"/><stop offset="0.75" stop-color="#a9a9a9"/><stop offset="0.88" stop-color="#9d9d9d"/><stop offset="1" stop-color="#999"/></radialGradient><linearGradient id="New_Gradient_Swatch_3" x1="3.96" y1="90.64" x2="26.71" y2="90.64" gradientUnits="userSpaceOnUse"><stop offset="0" stop-color="#ccc"/><stop offset="0.07" stop-color="#aeaeae"/><stop offset="0.15" stop-color="#8f8f8f"/><stop offset="0.24" stop-color="#787878"/><stop offset="0.31" stop-color="#6b6b6b"/><stop offset="0.38" stop-color="#666"/><stop offset="0.72" stop-color="#ccc"/><stop offset="0.79" stop-color="#c7c7c7"/><stop offset="0.88" stop-color="#b9b9b9"/><stop offset="0.97" stop-color="#a2a2a2"/><stop offset="1" stop-color="#999"/></linearGradient><radialGradient id="radial-gradient-2" cx="15.42" cy="79.26" fy="68.46606427651957" r="21.94" gradientTransform="matrix(1, 0, 0, 0.34, 0.02, 52.23)" xlink:href="#radial-gradient"/><linearGradient id="New_Gradient_Swatch_3-2" x1="6.29" y1="48.48" x2="24.44" y2="48.48" xlink:href="#New_Gradient_Swatch_3"/><radialGradient id="radial-gradient-3" cx="15.68" cy="15.34" fy="-1.6917408108432426" r="21.61" gradientTransform="matrix(1, 0.04, -0.02, 0.42, 0.29, 8.23)" xlink:href="#radial-gradient"/><linearGradient id="New_Gradient_Swatch_3-3" x1="3.97" y1="11.76" x2="26.72" y2="11.76" xlink:href="#New_Gradient_Swatch_3"/><radialGradient id="New_Gradient_Swatch_copy" cx="15.56" cy="6.33" fy="-14.738329015464974" r="29.31" gradientTransform="matrix(1, 0, 0, 0.38, 0, 3.96)" gradientUnits="userSpaceOnUse"><stop offset="0.4" stop-color="#f2f2f2"/><stop offset="0.49" stop-color="#dadada"/><stop offset="0.62" stop-color="#bebebe"/><stop offset="0.75" stop-color="#a9a9a9"/><stop offset="0.87" stop-color="#9d9d9d"/><stop offset="1" stop-color="#999"/></radialGradient></defs><title>roman-pillar-100-iso</title><g id="Layer_2" data-name="Layer 2"><g id="roman-pillar-100-iso"><path id="void" class="cls-1" d="M30.42,98.79a2.88,2.88,0,0,1-1.54,2.7c-2.46,1.64-7.59,2.76-13.54,2.76s-11.09-1.12-13.55-2.76a3.28,3.28,0,0,1-1.54-2.7c0-2.58,1.5-3.41,3.68-3.42v1.35C3.93,98.21,9,100,15.31,100s11.32-1.75,11.37-3.24v0a.88.88,0,0,0,0-.16V95.37C28.86,95.37,30.42,96.44,30.42,98.79Z"/><path id="void-2" data-name="void" class="cls-2" d="M26.71,81.47V96.66c-.36,1.46-4.89,3.15-11.35,3.15C8.64,99.81,4,98,4,96.48V95.3H4V81.47a5.93,5.93,0,0,0,.86.38c.21.09.43.17.67.25l.41.13.68.2c.26.08.53.15.82.21l.86.19c.26,0,.52.11.79.15a34.85,34.85,0,0,0,6.28.58C20.53,83.56,24.41,82.68,26.71,81.47Z"/><path id="void-3" data-name="void" class="cls-3" d="M27.59,81c-2.2,1.46-6.82,2.47-12.16,2.47a35.83,35.83,0,0,1-8-.85l-.64-.17-.53-.14a11.12,11.12,0,0,1-3-1.31,3,3,0,0,1-1.39-3c.18-1.63,1.58-2.45,4.4-3v1.55c.48,1.58,3.2,2.76,8.5,2.88h.65c5.43,0,8.59-1.42,9-2.69a1.93,1.93,0,0,0,0-.48,1.14,1.14,0,0,0,0-.48V75c3.26.3,4.43,1.7,4.55,3A3.32,3.32,0,0,1,27.59,81Z"/><path id="void-4" data-name="void" class="cls-4" d="M24.44,17.44V75l0,1.51c0,.58-.61,1.23-1.78,1.77a11.56,11.56,0,0,1-2.42.76,20.88,20.88,0,0,1-3.1.41c-.56,0-1.15,0-1.77,0s-1.17,0-1.71-.06a18.11,18.11,0,0,1-3.1-.41,9.38,9.38,0,0,1-2.47-.89,3.67,3.67,0,0,1-1.77-1.74v-59l.43.1a6.78,6.78,0,0,0,.68.15l.66.14c.76.14,1.58.26,2.47.36.22,0,.44.05.67.06s.54.06.82.07l.83.06.78,0h0q.84,0,1.68,0c.91,0,1.81,0,2.7-.08.41,0,.81-.05,1.2-.09l.95-.09.91-.11.74-.11.24,0,.53-.08h0l1.12-.22.51-.13Z"/><path id="void-5" data-name="void" class="cls-5" d="M29,13.8a3,3,0,0,1-2.05,2.83,14.52,14.52,0,0,1-2.54.84,37.18,37.18,0,0,1-7.74,1h-.07c-.38,0-.77,0-1.15,0a39.6,39.6,0,0,1-8.89-1,15.7,15.7,0,0,1-2.61-.85,3.29,3.29,0,0,1-2-2.83A2.13,2.13,0,0,1,4,11.52l.08.08c.54,1.2,4,2.59,8.56,2.86.88,0,1.8.08,2.74.08s1.85,0,2.73-.08a18.43,18.43,0,0,0,2.46-.29l.31-.05.25,0,.14,0,.38-.07.39-.08.28-.06c.25-.06.48-.12.7-.19s.47-.13.68-.2l.44-.17.32-.13a2.08,2.08,0,0,0,.3-.13c1.12-.49,1.83-1,2-1.57h0l0,0A2.3,2.3,0,0,1,29,13.8Z"/><path id="void-6" data-name="void" class="cls-6" d="M26.72,9.06v2.16a.7.7,0,0,1-.07.31h0a4.48,4.48,0,0,1-.87.88l-.27.18A17.13,17.13,0,0,1,19,14.34l-.58.05h-.14c-.94,0-1.92.08-2.93.08-.62,0-1.23,0-1.82,0-.22,0-.44,0-.65,0l-.45,0-.48,0-1.29-.15-.52-.07a.11.11,0,0,1-.08,0h0l-.23,0h0L9.5,14c-.38-.06-.74-.14-1.09-.23s-.46-.12-.68-.18a1.31,1.31,0,0,1-.28-.09A16,16,0,0,1,4.76,12.3l-.65-.64A.87.87,0,0,1,4,11.22V9.05l.12,0,.51.17.21.06a29.83,29.83,0,0,0,6.45,1.23l.69.06.75.05c.5,0,1,.06,1.54.07l1.11,0c.37,0,.73,0,1.09,0s.73,0,1.09,0l.51,0,.73-.05.68-.06a30.14,30.14,0,0,0,6.06-1.11L26,9.28h.05c.13,0,.25-.09.38-.12a.52.52,0,0,1,.16-.06.06.06,0,0,1,.05,0Z"/><path id="void-7" data-name="void" class="cls-7" d="M28.89,8a12,12,0,0,1-2.21,1.09.06.06,0,0,0-.05,0,.52.52,0,0,0-.16.06c-.13,0-.25.08-.38.12H26l-.53.16a37.27,37.27,0,0,1-6.06,1.11l-.68.06-.73.05-.51,0-1.09,0h-2.2c-.53,0-1,0-1.54-.07L12,10.61l-.69-.06A35.67,35.67,0,0,1,4.6,9.26l-.51-.17L4,9.05A10.44,10.44,0,0,1,1.8,8,3.2,3.2,0,0,1,.26,4.77C.38,3.26,1.67,2.45,3.17,1.86A39.08,39.08,0,0,1,15.34.3c7.28,0,10.87,1.11,12.18,1.56s2.74,1.25,2.91,2.91A2.94,2.94,0,0,1,28.89,8Z"/><path id="void-8" data-name="void" class="cls-8" d="M24.43,17.44V76.58c0,1.34-3,3-9.07,3s-9.08-1.65-9.08-3V17.43a37.67,37.67,0,0,0,9.08,1A37.46,37.46,0,0,0,24.43,17.44Zm-10.81,1V79.53m-3.1-61.36v61M8.06,17.81V78.35m9-59.9V79.53m3.1-61.36v61m2.41-61.3V78.35m-7.27,5.2c-4.94,0-9.61-1.13-11.37-2.09V96.63c0,1.49,5.09,3.26,11.37,3.26s11.38-1.77,11.38-3.26V81.46C24.43,82.67,20.55,83.55,15.35,83.55ZM4,11.47A2.13,2.13,0,0,0,1.8,13.75a3.36,3.36,0,0,0,2.06,2.88c2.47,1.09,7,1.82,11.49,1.82s9-.7,11.5-1.82a3.11,3.11,0,0,0,2-2.88,2.3,2.3,0,0,0-2.17-2.38,4.51,4.51,0,0,1-.95,1c-.54.38-2.52,1.73-7.5,2-.94.05-1.92.08-2.93.08s-2,0-2.92-.08C7.82,14,6.34,13.08,4.77,12.25ZM24.41,76.53c0,1.34-3.21,3-9.07,3-5.7,0-8.4-1.51-9-3.1V75c-2.82.48-4.32,1.42-4.49,3.06a2.93,2.93,0,0,0,1.38,3c2.21,1.47,6.83,2.48,12.17,2.48s10-1,12.16-2.48a3.28,3.28,0,0,0,1.38-3c-.12-1.3-.93-2.74-4.45-3.06ZM26.73,9a35.54,35.54,0,0,1-11.37,1.69A35.46,35.46,0,0,1,4,9v2.18c0,1.26,3.68,2.89,8.64,3.18.88.05,1.79.08,2.73.08s1.86,0,2.74-.08c5-.29,8.64-1.92,8.64-3.18Zm0,86.38v1.18c0,1.5-4.65,3.34-11.37,3.34S4,98.05,4,96.55V95.37c-2.19,0-3.71.82-3.71,3.41a3.29,3.29,0,0,0,1.55,2.71c2.45,1.64,7.6,2.76,13.54,2.76s11.09-1.12,13.54-2.76a2.91,2.91,0,0,0,1.55-2.71C30.45,96.44,28.88,95.37,26.73,95.37ZM15.35.25A39,39,0,0,0,3.18,1.81C1.68,2.4.39,3.21.27,4.72A3.19,3.19,0,0,0,1.81,7.93c2.45,1.63,7.6,2.76,13.54,2.76S26.44,9.56,28.9,7.93a3,3,0,0,0,1.54-3.21c-.17-1.67-1.54-2.47-2.92-2.91S22.63.25,15.35.25ZM3.18,3.53C3.18,5,8.63,6.86,15.35,6.86S27.52,5,27.52,3.53"/><path id="fill1" class="cls-9" d="M24.43,17.44V76.58c0,1.34-3,3-9.07,3s-9.08-1.65-9.08-3V17.43a37.67,37.67,0,0,0,9.08,1A37.46,37.46,0,0,0,24.43,17.44Zm-10.81,1V79.53m-3.1-61.36v61M8.06,17.81V78.35m9-59.9V79.53m3.1-61.36v61m2.41-61.3V78.35m-7.27,5.2c-4.94,0-9.61-1.13-11.37-2.09V96.63c0,1.49,5.09,3.26,11.37,3.26s11.38-1.77,11.38-3.26V81.46C24.43,82.67,20.55,83.55,15.35,83.55ZM4,11.47A2.13,2.13,0,0,0,1.8,13.75a3.36,3.36,0,0,0,2.06,2.88c2.47,1.09,7,1.82,11.49,1.82s9-.7,11.5-1.82a3.11,3.11,0,0,0,2-2.88,2.3,2.3,0,0,0-2.17-2.38,4.51,4.51,0,0,1-.95,1c-.54.38-2.52,1.73-7.5,2-.94.05-1.92.08-2.93.08s-2,0-2.92-.08C7.82,14,6.34,13.08,4.77,12.25ZM24.41,76.53c0,1.34-3.21,3-9.07,3-5.7,0-8.4-1.51-9-3.1V75c-2.82.48-4.32,1.42-4.49,3.06a2.93,2.93,0,0,0,1.38,3c2.21,1.47,6.83,2.48,12.17,2.48s10-1,12.16-2.48a3.28,3.28,0,0,0,1.38-3c-.12-1.3-.93-2.74-4.45-3.06ZM26.73,9a35.54,35.54,0,0,1-11.37,1.69A35.46,35.46,0,0,1,4,9v2.18c0,1.26,3.68,2.89,8.64,3.18.88.05,1.79.08,2.73.08s1.86,0,2.74-.08c5-.29,8.64-1.92,8.64-3.18Zm0,86.38v1.18c0,1.5-4.65,3.34-11.37,3.34S4,98.05,4,96.55V95.37c-2.19,0-3.71.82-3.71,3.41a3.29,3.29,0,0,0,1.55,2.71c2.45,1.64,7.6,2.76,13.54,2.76s11.09-1.12,13.54-2.76a2.91,2.91,0,0,0,1.55-2.71C30.45,96.44,28.88,95.37,26.73,95.37ZM15.35.25A39,39,0,0,0,3.18,1.81C1.68,2.4.39,3.21.27,4.72A3.19,3.19,0,0,0,1.81,7.93c2.45,1.63,7.6,2.76,13.54,2.76S26.44,9.56,28.9,7.93a3,3,0,0,0,1.54-3.21c-.17-1.67-1.54-2.47-2.92-2.91S22.63.25,15.35.25ZM3.18,3.53C3.18,5,8.63,6.86,15.35,6.86S27.52,5,27.52,3.53"/><path id="outline" class="cls-10" d="M24.43,17.44V76.58c0,1.34-3,3-9.07,3s-9.08-1.65-9.08-3V17.43a37.67,37.67,0,0,0,9.08,1A37.46,37.46,0,0,0,24.43,17.44Zm-10.81,1V79.53m-3.1-61.36v61M8.06,17.81V78.35m9-59.9V79.53m3.1-61.36v61m2.41-61.3V78.35m-7.27,5.2c-4.94,0-9.61-1.13-11.37-2.09V96.63c0,1.49,5.09,3.26,11.37,3.26s11.38-1.77,11.38-3.26V81.46C24.43,82.67,20.55,83.55,15.35,83.55ZM4,11.47A2.13,2.13,0,0,0,1.8,13.75a3.36,3.36,0,0,0,2.06,2.88c2.47,1.09,7,1.82,11.49,1.82s9-.7,11.5-1.82a3.11,3.11,0,0,0,2-2.88,2.3,2.3,0,0,0-2.17-2.38,4.51,4.51,0,0,1-.95,1c-.54.38-2.52,1.73-7.5,2-.94.05-1.92.08-2.93.08s-2,0-2.92-.08C7.82,14,6.34,13.08,4.77,12.25ZM24.41,76.53c0,1.34-3.21,3-9.07,3-5.7,0-8.4-1.51-9-3.1V75c-2.82.48-4.32,1.42-4.49,3.06a2.93,2.93,0,0,0,1.38,3c2.21,1.47,6.83,2.48,12.17,2.48s10-1,12.16-2.48a3.28,3.28,0,0,0,1.38-3c-.12-1.3-.93-2.74-4.45-3.06ZM26.73,9a35.54,35.54,0,0,1-11.37,1.69A35.46,35.46,0,0,1,4,9v2.18c0,1.26,3.68,2.89,8.64,3.18.88.05,1.79.08,2.73.08s1.86,0,2.74-.08c5-.29,8.64-1.92,8.64-3.18Zm0,86.38v1.18c0,1.5-4.65,3.34-11.37,3.34S4,98.05,4,96.55V95.37c-2.19,0-3.71.82-3.71,3.41a3.29,3.29,0,0,0,1.55,2.71c2.45,1.64,7.6,2.76,13.54,2.76s11.09-1.12,13.54-2.76a2.91,2.91,0,0,0,1.55-2.71C30.45,96.44,28.88,95.37,26.73,95.37ZM15.35.25A39,39,0,0,0,3.18,1.81C1.68,2.4.39,3.21.27,4.72A3.19,3.19,0,0,0,1.81,7.93c2.45,1.63,7.6,2.76,13.54,2.76S26.44,9.56,28.9,7.93a3,3,0,0,0,1.54-3.21c-.17-1.67-1.54-2.47-2.92-2.91S22.63.25,15.35.25ZM3.18,3.53C3.18,5,8.63,6.86,15.35,6.86S27.52,5,27.52,3.53"/></g></g></svg>