<svg xmlns="http://www.w3.org/2000/svg" xmlns:xlink="http://www.w3.org/1999/xlink" viewBox="0 0 30.64371 104.50001"><defs><radialGradient id="radial-gradient" cx="15.3702" cy="-1994.9993" fy="-2007.9535246875382" r="23.26562" gradientTransform="matrix(1, 0, 0, -0.3, 0, -498.69979)" gradientUnits="userSpaceOnUse"><stop offset="0" stop-color="#f2f2f2"/><stop offset="1" stop-color="#999"/></radialGradient><linearGradient id="linear-gradient" x1="3.9652" y1="-528.24999" x2="26.7152" y2="-528.24999" gradientTransform="matrix(1, 0, 0, -1, 0, -437.49999)" gradientUnits="userSpaceOnUse"><stop offset="0" stop-color="#d4d4d4"/><stop offset="0.12474" stop-color="#c2c2c2"/><stop offset="0.31776" stop-color="#9e9e9e"/><stop offset="0.43957" stop-color="#afafaf"/><stop offset="0.62838" stop-color="#c4c4c4"/><stop offset="0.81609" stop-color="#d0d0d0"/><stop offset="1" stop-color="#d4d4d4"/></linearGradient><radialGradient id="radial-gradient-2" cx="15.97334" cy="-1982.60874" fy="-1993.4159329041286" r="21.9746" gradientTransform="matrix(1, 0.00084, 0.00025, -0.3, -0.13636, -515.56071)" gradientUnits="userSpaceOnUse"><stop offset="0" stop-color="#f2f2f2"/><stop offset="0.99" stop-color="#999"/></radialGradient><linearGradient id="linear-gradient-2" x1="9.57546" y1="-516.72666" x2="11.12316" y2="-514.51625" gradientTransform="matrix(1, 0, 0, -1, 0, -437.49999)" gradientUnits="userSpaceOnUse"><stop offset="0" stop-color="#666"/><stop offset="0.99" stop-color="#f2f2f2"/></linearGradient><linearGradient id="linear-gradient-3" x1="11.78283" y1="-516.01944" x2="17.43613" y2="-507.94574" gradientTransform="matrix(1, 0, 0, -1, 0, -437.49999)" gradientUnits="userSpaceOnUse"><stop offset="0" stop-color="gray"/><stop offset="1" stop-color="#f2f2f2"/></linearGradient><linearGradient id="linear-gradient-4" x1="12.44838" y1="-507.55518" x2="18.09688" y2="-499.48818" gradientTransform="matrix(1, 0, 0, -1, 0, -437.49999)" gradientUnits="userSpaceOnUse"><stop offset="0" stop-color="gray"/><stop offset="0.97" stop-color="#fff"/></linearGradient><linearGradient id="linear-gradient-5" x1="12.45211" y1="61.2498" x2="17.92617" y2="53.43204" gradientUnits="userSpaceOnUse"><stop offset="0" stop-color="gray"/><stop offset="0.96" stop-color="#f2f2f2"/></linearGradient><linearGradient id="linear-gradient-6" x1="12.10061" y1="52.80179" x2="17.00966" y2="45.79095" gradientUnits="userSpaceOnUse"><stop offset="0" stop-color="gray"/><stop offset="0.95" stop-color="#f2f2f2"/></linearGradient><linearGradient id="linear-gradient-7" x1="12.46237" y1="-481.00723" x2="18.09537" y2="-472.96243" gradientTransform="matrix(1, 0, 0, -1, 0, -437.49999)" gradientUnits="userSpaceOnUse"><stop offset="0" stop-color="gray"/><stop offset="0.94" stop-color="#f2f2f2"/></linearGradient><linearGradient id="linear-gradient-8" x1="12.54033" y1="34.73913" x2="18.01951" y2="26.91405" gradientUnits="userSpaceOnUse"><stop offset="0" stop-color="gray"/><stop offset="0.93" stop-color="#f2f2f2"/></linearGradient><linearGradient id="linear-gradient-9" x1="12.58647" y1="-463.52222" x2="18.23842" y2="-455.4503" gradientTransform="matrix(1, 0, 0, -1, 0, -437.49999)" gradientUnits="userSpaceOnUse"><stop offset="0" stop-color="gray"/><stop offset="0.92" stop-color="#f2f2f2"/></linearGradient><linearGradient id="linear-gradient-10" x1="19.17787" y1="-457.69271" x2="22.17527" y2="-453.41191" gradientTransform="matrix(1, 0, 0, -1, 0, -437.49999)" gradientUnits="userSpaceOnUse"><stop offset="0" stop-color="gray"/><stop offset="0.91" stop-color="#f2f2f2"/></linearGradient><radialGradient id="radial-gradient-3" cx="47.78888" cy="-1408.56001" fy="-1425.5880066319135" r="21.6051" gradientTransform="matrix(0.99562, 0, -0.08099, -0.39971, -146.02523, -547.72367)" gradientUnits="userSpaceOnUse"><stop offset="0" stop-color="#f2f2f2"/><stop offset="0.98" stop-color="#999"/></radialGradient><linearGradient id="linear-gradient-11" x1="3.9853" y1="-449.24999" x2="26.7353" y2="-449.24999" gradientTransform="matrix(1, 0, 0, -1, 0, -437.49999)" gradientUnits="userSpaceOnUse"><stop offset="0" stop-color="#d4d4d4"/><stop offset="0.12474" stop-color="#c2c2c2"/><stop offset="0.31776" stop-color="#9e9e9e"/><stop offset="0.35501" stop-color="#a2a2a2"/><stop offset="0.57048" stop-color="#b7b7b7"/><stop offset="0.78459" stop-color="#c3c3c3"/><stop offset="0.99441" stop-color="#c7c7c7"/></linearGradient><radialGradient id="radial-gradient-4" cx="15.37016" cy="-1201.96739" fy="-1219.972582508348" r="31.75985" gradientTransform="matrix(1, 0, 0, -0.2, 0, -234.92608)" gradientUnits="userSpaceOnUse"><stop offset="0.31285" stop-color="#f2f2f2"/><stop offset="0.98" stop-color="#999"/></radialGradient></defs><title>twisted-pillar-100-iso_17</title><g id="Layer_2" data-name="Layer 2"><g id="Layer_1-2" data-name="Layer 1"><g id="twisted-pillar-100-iso"><path id="void" d="M30.4595,98.75a2.84479,2.84479,0,0,1-1.5,2.7c-2.5,1.6-7.6,2.8-13.5,2.8s-11.1-1.1-13.5-2.8a3.30121,3.30121,0,0,1-1.5-2.7c0-2.6,1.5-3.4,3.7-3.4v1.3c0,1.5,5.1,3.3,11.4,3.3s11.3-1.8,11.4-3.2h0v-1.4A3.22418,3.22418,0,0,1,30.4595,98.75Z" style="fill:url(#radial-gradient)"/><path id="void-2" data-name="void" d="M26.7595,81.55v15.2h0c-.4,1.5-4.9,3.2-11.3,3.2-6.7,0-11.4-1.8-11.4-3.3v-1.2h0V81.55a7.86808,7.86808,0,0,0,2.2.8c.2,0,.3.1.5.1.2.1.4.1.6.2a37.1478,37.1478,0,0,0,8,1C20.5595,83.65,24.4595,82.75,26.7595,81.55Z" style="fill:url(#linear-gradient)"/><path id="void-3" data-name="void" d="M27.4595,81.05c-2.2,1.5-6.8,2.5-12.2,2.5a31.49154,31.49154,0,0,1-8-.9,1.42132,1.42132,0,0,1-.6-.2,4.33144,4.33144,0,0,1-.5-.1,14.17593,14.17593,0,0,1-3-1.3,3.06147,3.06147,0,0,1-1.4-3c.2-1.6,2.5-2.8,5.5-3.1l-.4,1.1c-.5,2,2.5,3.4,7.8,3.5h.6c5.4,0,8.6-1.4,9-2.7,0-.1.1-.2.1-.3v-.6a2.47565,2.47565,0,0,0-.7-.9c3.5.2,5,1.8,5.1,3.1A3.01287,3.01287,0,0,1,27.4595,81.05Z" style="fill:url(#radial-gradient-2)"/><path id="void-4" data-name="void" d="M14.6595,79.55c-5.3-.1-8.3-1.5-7.8-3.5l.4-1.1a9.80713,9.80713,0,0,0,4,3C12.4595,78.55,13.6595,79.05,14.6595,79.55Z" style="fill:url(#linear-gradient-2)"/><path id="void-5" data-name="void" d="M24.3595,76.85c-.4,1.3-3.6,2.7-9,2.7h-.6c-1.1-.5-2.2-1-3.4-1.6a11.47472,11.47472,0,0,1-4-3,5.30939,5.30939,0,0,1-.9-3.3,6.86771,6.86771,0,0,1,1.8-4.4c5.9,3.8,9.4,4.4,12.2,5.6C23.1595,73.95,24.0595,75.45,24.3595,76.85Z" style="fill:url(#linear-gradient-3)"/><path id="void-6" data-name="void" d="M24.4595,69.25a4.649,4.649,0,0,1-2.5,4.2c-4-1.7-6.8-2.4-10.7-4.5-4.1-2.1-4.9-3.8-4.9-6.3a7.31588,7.31588,0,0,1,1.9-4.4c.1.1.3.2.4.3a24.748,24.748,0,0,0,2.6,1.6c3.8,1.9,6.5,2.7,10.3,4.3C24.1595,65.95,24.5595,67.85,24.4595,69.25Z" style="fill:url(#linear-gradient-4)"/><path id="void-7" data-name="void" d="M24.4595,60.45a4.649,4.649,0,0,1-2.5,4.2c-.2-.1-.3-.1-.5-.2a9.29556,9.29556,0,0,0-1-.5c-2.8-1.2-6.1-1.8-11.8-5.4a5.28059,5.28059,0,0,1-2.3-4.7,7.31588,7.31588,0,0,1,1.9-4.4,14.00344,14.00344,0,0,0,1.6,1,4.348,4.348,0,0,0,.7.4c.1.1.2.1.3.2s.3.1.4.2c4.2,2.3,6.9,2.9,9.3,3.9C24.0595,56.65,24.5595,58.85,24.4595,60.45Z" style="fill:url(#linear-gradient-5)"/><path id="void-8" data-name="void" d="M24.4595,51.45a4.649,4.649,0,0,1-2.5,4.2c-4-1.6-6.8-2.4-10.7-4.4-.1-.1-.3-.1-.4-.2s-.2-.1-.3-.2a5.73615,5.73615,0,0,1-.7-.4c-2.9-1.8-3.5-3.4-3.5-5.5a7.31588,7.31588,0,0,1,1.9-4.4.51957.51957,0,0,0,.4.2,14.75521,14.75521,0,0,0,2.6,1.6c3.8,2,6.6,2.7,10.3,4.3C24.1595,48.25,24.5595,50.15,24.4595,51.45Z" style="fill:url(#linear-gradient-6)"/><path id="void-9" data-name="void" d="M24.4595,42.75a4.649,4.649,0,0,1-2.5,4.2c-.1-.1-.3-.1-.4-.2a3.69664,3.69664,0,0,0-1.1-.5c-2.8-1.2-6.2-1.8-11.9-5.4a5.49091,5.49091,0,0,1-2.3-4.6,7.12884,7.12884,0,0,1,1.9-4.4,13.00474,13.00474,0,0,0,3,1.9c3.9,2,6.8,2.8,10.7,4.4h0A4.82,4.82,0,0,1,24.4595,42.75Z" style="fill:url(#linear-gradient-7)"/><path id="void-10" data-name="void" d="M24.4595,34.05a4.649,4.649,0,0,1-2.5,4.2,10.19124,10.19124,0,0,0-1.5-.8c-2.8-1.2-6.2-1.8-12.2-5.6h0a5.20087,5.20087,0,0,1-1.9-4.3,6.44844,6.44844,0,0,1,1.9-4.4c5.9,3.8,9.4,4.4,12.2,5.6C24.0595,30.25,24.4595,32.45,24.4595,34.05Z" style="fill:url(#linear-gradient-8)"/><path id="void-11" data-name="void" d="M24.4595,25.05a4.649,4.649,0,0,1-2.5,4.2c-4-1.7-6.8-2.4-10.7-4.5-4.1-2.1-4.9-3.8-4.9-6.3a4.86864,4.86864,0,0,1,.1-1.2,39.66193,39.66193,0,0,0,8.9,1h1.1c1.6.6,3.3,1.2,5.2,2h0A5.31721,5.31721,0,0,1,24.4595,25.05Z" style="fill:url(#linear-gradient-9)"/><path id="void-12" data-name="void" d="M24.3595,17.45a4.43316,4.43316,0,0,1-2.3,3.1c-.1,0-.2-.1-.3-.1h0a13.39129,13.39129,0,0,0-1.2-.6c-1.2-.5-2.4-.9-3.9-1.4A43.59415,43.59415,0,0,0,24.3595,17.45Z" style="fill:url(#linear-gradient-10)"/><path id="void-13" data-name="void" d="M28.9595,13.75a3.06168,3.06168,0,0,1-2,2.8,14.70228,14.70228,0,0,1-2.5.8,42.37572,42.37572,0,0,1-7.7,1h-1.2a39.66193,39.66193,0,0,1-8.9-1c-1-.3-1.9-.5-2.6-.8a3.34044,3.34044,0,0,1-2.1-2.8,2.12575,2.12575,0,0,1,2.2-2.3l.1.1c.5,1.2,4,2.6,8.6,2.9a24.36873,24.36873,0,0,0,2.7.1,24.36873,24.36873,0,0,0,2.7-.1,10.0745,10.0745,0,0,0,2.5-.3h.7a.60123.60123,0,0,0,.4-.1.60123.60123,0,0,0,.4-.1.36737.36737,0,0,0,.3-.1,6.37292,6.37292,0,0,0,.7-.2,6.37292,6.37292,0,0,0,.7-.2c.2-.1.3-.1.4-.2.1,0,.2-.1.3-.1s.2-.1.3-.1c1.1-.5,1.8-1,2-1.6h0A2.204,2.204,0,0,1,28.9595,13.75Z" style="fill:url(#radial-gradient-3)"/><path id="void-14" data-name="void" d="M26.7595,9.05v2.4h0a5.10365,5.10365,0,0,1-.9,1,6.36186,6.36186,0,0,1-1,.6c-.1,0-.2.1-.3.1s-.2.1-.3.1c-.3.1-.7.3-1.1.4a6.37292,6.37292,0,0,1-.7.2.36737.36737,0,0,0-.3.1.60123.60123,0,0,0-.4.1.60123.60123,0,0,0-.4.1h-.7c-.8.1-1.5.1-2.4.2a27.14976,27.14976,0,0,1-2.9.1,27.14976,27.14976,0,0,1-2.9-.1,27.53233,27.53233,0,0,1-4.8-.8,13.18025,13.18025,0,0,1-2.9-1.3l-.7-.7c0-.1-.1-.2-.1-.3V9.05a35.21648,35.21648,0,0,0,11.4,1.7A35.97339,35.97339,0,0,0,26.7595,9.05Z" style="fill:url(#linear-gradient-11)"/><path id="void-15" data-name="void" d="M28.8595,7.95c-2.5,1.6-7.6,2.8-13.5,2.8-6,0-11.1-1.1-13.6-2.8a3.45608,3.45608,0,0,1-1.5-3.2c.1-1.5,1.4-2.4,2.9-2.9,1.6-.6,5.5-1.6,12.2-1.6,7.3,0,10.9,1.1,12.2,1.6a3.62014,3.62014,0,0,1,2.9,2.9A3.00009,3.00009,0,0,1,28.8595,7.95Z" style="fill:url(#radial-gradient-4)"/><path id="fill1" d="M24.3595,17.45a4.43316,4.43316,0,0,1-2.3,3.1c-.1,0-.2-.1-.3-.1h0a13.39129,13.39129,0,0,0-1.2-.6c-1.2-.5-2.4-.9-3.9-1.4A43.59415,43.59415,0,0,0,24.3595,17.45Zm-2.7,2.9h0c-1.9-.8-3.5-1.4-5.2-2h-1.1a39.66193,39.66193,0,0,1-8.9-1,4.86864,4.86864,0,0,0-.1,1.2c0,2.4.8,4.2,4.9,6.3,3.9,2,6.8,2.8,10.7,4.5a4.649,4.649,0,0,0,2.5-4.2A5.13975,5.13975,0,0,0,21.6595,20.35Zm.3,17.9a4.74657,4.74657,0,0,0,2.5-4.2c0-1.6-.4-3.8-4-5.3-2.9-1.2-6.3-1.8-12.2-5.6a6.74242,6.74242,0,0,0-1.9,4.4c0,2.4.8,4.2,4.9,6.3C15.1595,35.75,17.9595,36.55,21.9595,38.25Zm0,8.7a4.74657,4.74657,0,0,0,2.5-4.2c0-1.6-.4-3.8-4-5.3-2.8-1.2-6.2-1.8-12.2-5.6a6.74242,6.74242,0,0,0-1.9,4.4c0,2.4.8,4.2,4.9,6.3C15.1595,44.45,17.9595,45.25,21.9595,46.95Zm0,8.8a4.74657,4.74657,0,0,0,2.5-4.2c0-1.6-.4-3.8-4-5.3-2.8-1.2-6.2-1.8-12.2-5.6a6.74242,6.74242,0,0,0-1.9,4.4c0,2.4.8,4.2,4.9,6.3C15.1595,53.25,17.9595,54.05,21.9595,55.75Zm0,8.9a4.74657,4.74657,0,0,0,2.5-4.2c0-1.6-.4-3.8-4-5.3-2.8-1.2-6.2-1.8-12.2-5.6a6.74242,6.74242,0,0,0-1.9,4.4c0,2.4.8,4.2,4.9,6.3C15.1595,62.25,18.0595,62.95,21.9595,64.65Zm0,8.8a4.74657,4.74657,0,0,0,2.5-4.2c0-1.6-.4-3.8-4-5.3-2.8-1.2-6.2-1.8-12.2-5.6a6.74242,6.74242,0,0,0-1.9,4.4c0,2.4.8,4.2,4.9,6.3C15.1595,71.05,18.0595,71.75,21.9595,73.45Zm-1.4-.6c-2.9-1.2-6.3-1.8-12.3-5.6a6.74242,6.74242,0,0,0-1.9,4.4,5.49392,5.49392,0,0,0,.9,3.3,9.80713,9.80713,0,0,0,4,3c1.2.6,2.4,1.1,3.4,1.6h.6c5.4,0,8.6-1.4,9-2.7C24.0595,75.45,23.1595,73.95,20.5595,72.85Zm6.2-61.5h0a4.32151,4.32151,0,0,1-1,1,6.36186,6.36186,0,0,1-1,.6l-.6.3c-.1.1-.3.1-.4.2a6.37292,6.37292,0,0,1-.7.2,6.37292,6.37292,0,0,1-.7.2.36737.36737,0,0,0-.3.1,27.75145,27.75145,0,0,1-3.7.5,27.14976,27.14976,0,0,1-2.9.1,27.14976,27.14976,0,0,1-2.9-.1,27.53233,27.53233,0,0,1-4.8-.8,13.18025,13.18025,0,0,1-2.9-1.3l-.7-.7-.1-.1a2.18163,2.18163,0,0,0-2.2,2.3,3.22607,3.22607,0,0,0,2.1,2.8,13.38738,13.38738,0,0,0,2.6.8,39.66193,39.66193,0,0,0,8.9,1h1.2a34.27913,34.27913,0,0,0,7.7-1,12.273,12.273,0,0,0,2.5-.8,2.92058,2.92058,0,0,0,2-2.8A2.23464,2.23464,0,0,0,26.7595,11.35Zm-15.5,66.6a11.47472,11.47472,0,0,1-4-3l-.4,1.1c-.5,2,2.5,3.4,7.8,3.5C13.6595,79.05,12.4595,78.55,11.2595,77.95Zm17.6.1c-.1-1.3-1.7-2.9-5.1-3.1a2.47562,2.47562,0,0,1,.7.9v.6a.3674.3674,0,0,1-.1.3c-.4,1.3-3.6,2.7-9,2.7h-.6c-5.3-.1-8.3-1.5-7.8-3.5l.3-1c-3,.3-5.3,1.5-5.5,3.1a2.89687,2.89687,0,0,0,1.4,3,14.58924,14.58924,0,0,0,4.1,1.6,36.78308,36.78308,0,0,0,8,.9c5.3,0,10-1,12.2-2.5A3.36509,3.36509,0,0,0,28.8595,78.05Zm-2.1,17.3v1.2c0,1.5-4.6,3.3-11.4,3.3s-11.4-1.8-11.4-3.3v-1.2c-2.2,0-3.7.8-3.7,3.4a3.4242,3.4242,0,0,0,1.5,2.7c2.5,1.6,7.6,2.8,13.5,2.8,6,0,11.1-1.1,13.5-2.8a2.84477,2.84477,0,0,0,1.5-2.7C30.4595,96.45,28.8595,95.35,26.7595,95.35ZM15.3595.25c-6.7,0-10.6,1-12.2,1.6-1.5.6-2.8,1.4-2.9,2.9a3.32636,3.32636,0,0,0,1.6,3.2c2.5,1.6,7.6,2.8,13.5,2.8,6,0,11.1-1.1,13.5-2.8a2.94843,2.94843,0,0,0,1.5-3.2c-.1-1.7-1.5-2.5-2.8-2.9C26.2595,1.35,22.6595.25,15.3595.25Zm-12.2,3.3c0,1.5,5.4,3.3,12.2,3.3s12.2-1.8,12.2-3.3m-.8,5.5a35.21648,35.21648,0,0,1-11.4,1.7,35.21648,35.21648,0,0,1-11.4-1.7v2.2c0,1.3,3.7,2.9,8.6,3.2a24.36873,24.36873,0,0,0,2.7.1,23.48308,23.48308,0,0,0,2.7-.1c5-.3,8.6-1.9,8.6-3.2V9.05Zm-11.4,74.6c-4.9,0-9.6-1.1-11.4-2.1v15.2c0,1.5,5.1,3.3,11.4,3.3s11.4-1.8,11.4-3.3V81.55C24.4595,82.75,20.5595,83.65,15.3595,83.65Z" style="fill:#fff;opacity:0.5;isolation:isolate"/><path id="outline" d="M24.3595,17.45a4.43316,4.43316,0,0,1-2.3,3.1c-.1,0-.2-.1-.3-.1h0a13.39129,13.39129,0,0,0-1.2-.6c-1.2-.5-2.4-.9-3.9-1.4A43.59415,43.59415,0,0,0,24.3595,17.45Zm-2.7,2.9h0c-1.9-.8-3.5-1.4-5.2-2h-1.1a39.66193,39.66193,0,0,1-8.9-1,4.86864,4.86864,0,0,0-.1,1.2c0,2.4.8,4.2,4.9,6.3,3.9,2,6.8,2.8,10.7,4.5a4.649,4.649,0,0,0,2.5-4.2A5.13975,5.13975,0,0,0,21.6595,20.35Zm.3,17.9a4.74657,4.74657,0,0,0,2.5-4.2c0-1.6-.4-3.8-4-5.3-2.9-1.2-6.3-1.8-12.2-5.6a6.74242,6.74242,0,0,0-1.9,4.4c0,2.4.8,4.2,4.9,6.3C15.1595,35.75,17.9595,36.55,21.9595,38.25Zm0,8.7a4.74657,4.74657,0,0,0,2.5-4.2c0-1.6-.4-3.8-4-5.3-2.8-1.2-6.2-1.8-12.2-5.6a6.74242,6.74242,0,0,0-1.9,4.4c0,2.4.8,4.2,4.9,6.3C15.1595,44.45,17.9595,45.25,21.9595,46.95Zm0,8.8a4.74657,4.74657,0,0,0,2.5-4.2c0-1.6-.4-3.8-4-5.3-2.8-1.2-6.2-1.8-12.2-5.6a6.74242,6.74242,0,0,0-1.9,4.4c0,2.4.8,4.2,4.9,6.3C15.1595,53.25,17.9595,54.05,21.9595,55.75Zm0,8.9a4.74657,4.74657,0,0,0,2.5-4.2c0-1.6-.4-3.8-4-5.3-2.8-1.2-6.2-1.8-12.2-5.6a6.74242,6.74242,0,0,0-1.9,4.4c0,2.4.8,4.2,4.9,6.3C15.1595,62.25,18.0595,62.95,21.9595,64.65Zm0,8.8a4.74657,4.74657,0,0,0,2.5-4.2c0-1.6-.4-3.8-4-5.3-2.8-1.2-6.2-1.8-12.2-5.6a6.74242,6.74242,0,0,0-1.9,4.4c0,2.4.8,4.2,4.9,6.3C15.1595,71.05,18.0595,71.75,21.9595,73.45Zm-1.4-.6c-2.9-1.2-6.3-1.8-12.3-5.6a6.74242,6.74242,0,0,0-1.9,4.4,5.49392,5.49392,0,0,0,.9,3.3,9.80713,9.80713,0,0,0,4,3c1.2.6,2.4,1.1,3.4,1.6h.6c5.4,0,8.6-1.4,9-2.7C24.0595,75.45,23.1595,73.95,20.5595,72.85Zm6.2-61.5h0a4.32151,4.32151,0,0,1-1,1,6.36186,6.36186,0,0,1-1,.6l-.6.3c-.1.1-.3.1-.4.2a6.37292,6.37292,0,0,1-.7.2,6.37292,6.37292,0,0,1-.7.2.36737.36737,0,0,0-.3.1,27.75145,27.75145,0,0,1-3.7.5,27.14976,27.14976,0,0,1-2.9.1,27.14976,27.14976,0,0,1-2.9-.1,27.53233,27.53233,0,0,1-4.8-.8,13.18025,13.18025,0,0,1-2.9-1.3l-.7-.7-.1-.1a2.18163,2.18163,0,0,0-2.2,2.3,3.22607,3.22607,0,0,0,2.1,2.8,13.38738,13.38738,0,0,0,2.6.8,39.66193,39.66193,0,0,0,8.9,1h1.2a34.27913,34.27913,0,0,0,7.7-1,12.273,12.273,0,0,0,2.5-.8,2.92058,2.92058,0,0,0,2-2.8A2.23464,2.23464,0,0,0,26.7595,11.35Zm-15.5,66.6a11.47472,11.47472,0,0,1-4-3l-.4,1.1c-.5,2,2.5,3.4,7.8,3.5C13.6595,79.05,12.4595,78.55,11.2595,77.95Zm17.6.1c-.1-1.3-1.7-2.9-5.1-3.1a2.47562,2.47562,0,0,1,.7.9v.6a.3674.3674,0,0,1-.1.3c-.4,1.3-3.6,2.7-9,2.7h-.6c-5.3-.1-8.3-1.5-7.8-3.5l.3-1c-3,.3-5.3,1.5-5.5,3.1a2.89687,2.89687,0,0,0,1.4,3,14.58924,14.58924,0,0,0,4.1,1.6,36.78308,36.78308,0,0,0,8,.9c5.3,0,10-1,12.2-2.5A3.36509,3.36509,0,0,0,28.8595,78.05Zm-2.1,17.3v1.2c0,1.5-4.6,3.3-11.4,3.3s-11.4-1.8-11.4-3.3v-1.2c-2.2,0-3.7.8-3.7,3.4a3.4242,3.4242,0,0,0,1.5,2.7c2.5,1.6,7.6,2.8,13.5,2.8,6,0,11.1-1.1,13.5-2.8a2.84477,2.84477,0,0,0,1.5-2.7C30.4595,96.45,28.8595,95.35,26.7595,95.35ZM15.3595.25c-6.7,0-10.6,1-12.2,1.6-1.5.6-2.8,1.4-2.9,2.9a3.32636,3.32636,0,0,0,1.6,3.2c2.5,1.6,7.6,2.8,13.5,2.8,6,0,11.1-1.1,13.5-2.8a2.94843,2.94843,0,0,0,1.5-3.2c-.1-1.7-1.5-2.5-2.8-2.9C26.2595,1.35,22.6595.25,15.3595.25Zm-12.2,3.3c0,1.5,5.4,3.3,12.2,3.3s12.2-1.8,12.2-3.3m-.8,5.5a35.21648,35.21648,0,0,1-11.4,1.7,35.21648,35.21648,0,0,1-11.4-1.7v2.2c0,1.3,3.7,2.9,8.6,3.2a24.36873,24.36873,0,0,0,2.7.1,23.48308,23.48308,0,0,0,2.7-.1c5-.3,8.6-1.9,8.6-3.2V9.05Zm-11.4,74.6c-4.9,0-9.6-1.1-11.4-2.1v15.2c0,1.5,5.1,3.3,11.4,3.3s11.4-1.8,11.4-3.3V81.55C24.4595,82.75,20.5595,83.65,15.3595,83.65Z" style="fill:none;stroke:#000;stroke-linecap:round;stroke-linejoin:round;stroke-width:0.5px"/></g></g></g></svg>