<svg xmlns="http://www.w3.org/2000/svg" viewBox="0 0 36.25 114.29"><defs><style>.cls-1,.cls-2{fill:#fff;}.cls-2{opacity:0.5;}</style></defs><title>bark-iso</title><g id="Layer_2" data-name="Layer 2"><g id="bark-front"><path id="void" class="cls-1" d="M36.23,109.87Q34.88,77.71,36,45.77c.11-3.16.23-6.31.2-9.49a96.6,96.6,0,0,0-1-13c-.33-2.27-.9-4.8-2.77-6.23-2-1.56-5-1.3-6.79-3.2a8.74,8.74,0,0,1-1.34-2.36,25.53,25.53,0,0,0-5.05-7.88C16.94,1.41,13.93-.15,11,0A9.26,9.26,0,0,0,3.59,5.28c-1.49,2.82-2,6.15-2.27,9.44C.52,23.26.72,32,.83,40.64q.44,33-.8,65.84c-.11,2.73,0,6,2.17,7.81,2-1.39,4.55-2.8,6.79-1.4,1.56,1,3.42.56,5.15.45,3.75-.25,8.24.94,10.8-1.65.43.94,1.61,1.18,2.59,1.27l4.21.4c1.56.14,3.42.15,4.17-1.16A4.41,4.41,0,0,0,36.23,109.87ZM6.82,1.62s-.08,0-.08,0S6.82,1.58,6.82,1.62Z"/><path id="fill2" class="cls-1" d="M36.23,109.87Q34.88,77.71,36,45.77c.11-3.16.23-6.31.2-9.49a96.6,96.6,0,0,0-1-13c-.33-2.27-.9-4.8-2.77-6.23-2-1.56-5-1.3-6.79-3.2a8.74,8.74,0,0,1-1.34-2.36,25.53,25.53,0,0,0-5.05-7.88C16.94,1.41,13.93-.15,11,0A9.26,9.26,0,0,0,3.59,5.28c-1.49,2.82-2,6.15-2.27,9.44C.52,23.26.72,32,.83,40.64q.44,33-.8,65.84c-.11,2.73,0,6,2.17,7.81,2-1.39,4.55-2.8,6.79-1.4,1.56,1,3.42.56,5.15.45,3.75-.25,8.24.94,10.8-1.65.43.94,1.61,1.18,2.59,1.27l4.21.4c1.56.14,3.42.15,4.17-1.16A4.41,4.41,0,0,0,36.23,109.87ZM6.82,1.62s-.08,0-.08,0S6.82,1.58,6.82,1.62Z"/><path id="fill3" class="cls-2" d="M9,8.11c-.06.59.58,1-1.25,3.65-.63.91-1.59,8.16-2.63,35.56-1-20.1-.29-35.63.63-38.41C6.49,6.58,7.37,6,8.32,5.63,8.68,5.49,9,7.52,9,8.11ZM31.74,29.37c0,.84.84,6.14,1,26.68.93-15,1.68-27.44.27-28.78C32.34,26.62,31.79,28.12,31.74,29.37Zm-1.3-6.23c.5.93.81,1.53,1.07,2.13s.8-.1,1.14-.59-.13-2-.53-2.74-1.5-2.05-2.32-2.1-1.26,1.93-.92,2.23S30.15,22.6,30.44,23.14Z"/><path id="fill1" d="M1.31,14.73c.31-3.3.79-6.63,2.28-9.45A9.26,9.26,0,0,1,11,0c2.93-.16,5.94,1.4,8.18,3.61a25.53,25.53,0,0,1,5.05,7.88,8.74,8.74,0,0,0,1.34,2.36c1.74,1.91,4.75,1.64,6.79,3.2,1.87,1.43,2.44,4,2.77,6.23a96.6,96.6,0,0,1,1,13c0,3.18-.09,6.33-.2,9.49q-1.08,31.92.27,64.1a4.41,4.41,0,0,1-.32,2.33c-.75,1.31-2.61,1.3-4.17,1.16l-4.21-.4c-1-.09-2.17-.33-2.59-1.27-2.56,2.59-7,1.4-10.8,1.65-1.73.11-3.59.53-5.15-.44-2.24-1.4-4.83,0-6.79,1.39C0,112.43-.08,109.22,0,106.48q1.23-32.81.8-65.84C.72,32,.52,23.26,1.31,14.73m27.07,97.06a18.42,18.42,0,0,0,3,.7c1.35.21,2.84.22,3.76-.69s.6-3-.73-3.31c2-15-.08-30.6.16-45.89.21-13,2.08-25.86-.13-38.88-.36-2.14-1-4.48-2.68-5.89s-3.9-1.46-5.87-2.17L26,84.36c0,3,0,6.08-.09,9.1-.09,2.64-.27,5.25-.53,7.86l-.22-77.83a46,46,0,0,0-.33-6.62,21.26,21.26,0,0,0-8.07-14,10.82,10.82,0,0,0-3.63-1.8C9.46.17,6,2.47,4.26,5.62s-2,7-2.13,10.7c-.55,11.37-.62,22.81-.69,34.24L1.35,65.15q-.14,22.75-.28,45.5a2.68,2.68,0,0,0,.41,1.75,2,2,0,0,0,2.48.27,8.54,8.54,0,0,1,2.27-1.2,5.43,5.43,0,0,1,2.27.27,29,29,0,0,0,15-.15,7.62,7.62,0,0,1,2.27-.44,9.6,9.6,0,0,1,2.64.64M6.74,1.61a0,0,0,0,0,.08,0s-.08-.05-.09,0"/></g></g></svg>