<svg xmlns="http://www.w3.org/2000/svg" viewBox="0 0 41.28 105.38"><title>circling</title><g id="Layer_2" data-name="Layer 2"><g id="circling"><path id="fill1" d="M7.73,104.65c-2,0-3.88-2.54-5.31-7.17A65,65,0,0,1,0,80.81,65.86,65.86,0,0,1,1.51,64c1.19-4.81,3-7.51,5-7.59s4,2.46,5.4,7.17a64.81,64.81,0,0,1,2.39,16.66h0a65.94,65.94,0,0,1-1.48,16.83c-1.19,4.81-3,7.5-5,7.58ZM6.61,58H6.56c-1.39.06-2.8,2.47-3.79,6.44A63.81,63.81,0,0,0,1.35,80.76a63.15,63.15,0,0,0,2.3,16.15C4.85,100.8,6.39,103,7.78,103s2.8-2.46,3.79-6.44A63.69,63.69,0,0,0,13,80.29h0a63.23,63.23,0,0,0-2.3-16.16C9.5,60.29,8,58,6.61,58Zm3.84,46.45C5.1,104.46,2.21,86.72,2.21,70S5.1,35.61,10.45,35.61,18.69,53.35,18.69,70,15.8,104.46,10.45,104.46Zm0-67.24C7.17,37.22,3.52,50.7,3.52,70s3.65,32.82,6.93,32.82S17.37,89.37,17.37,70,13.72,37.22,10.45,37.22ZM22.6,104.46c-5.36,0-8.25-19.3-8.25-37.47s2.89-37.46,8.25-37.46S30.84,48.83,30.84,67,28,104.46,22.6,104.46Zm0-73.32c-3.28,0-6.93,14.73-6.93,35.85s3.65,35.86,6.93,35.86S29.52,88.12,29.52,67,25.87,31.14,22.6,31.14Zm8.7,73.32c-4.86,0-7.48-18.31-7.48-35.53s2.62-35.54,7.48-35.54,7.49,18.31,7.49,35.54S36.17,104.46,31.3,104.46ZM31.3,35c-2.91,0-6.17,13.94-6.17,33.93s3.26,33.92,6.17,33.92,6.17-13.93,6.17-33.92S34.22,35,31.3,35ZM10.21,104.2c-4.49,0-5.68-34.08-5.68-52.1S5.72,0,10.21,0,15.9,34.08,15.9,52.1,14.71,104.2,10.21,104.2Zm0-102.59C8.65,2.05,5.85,19.3,5.85,52.1s2.8,50.05,4.37,50.49c1.56-.44,4.36-17.69,4.36-50.49S11.78,2.05,10.21,1.61ZM18.55,104.2C13.71,104.2,12,75.56,12,56.3S13.71,8.4,18.55,8.4s6.58,28.65,6.58,47.9S23.38,104.2,18.55,104.2Zm0-94.19c-2.2,0-5.27,17.61-5.27,46.29s3.07,46.29,5.27,46.29S23.82,85,23.82,56.3,20.75,10,18.55,10Zm8.86,94.19c-4.75,0-7.24-24.68-7.24-49.06S22.66,6.07,27.41,6.07s7.24,24.69,7.24,49.07S32.16,104.2,27.41,104.2Zm0-96.52c-2.47,0-5.92,18.06-5.92,47.46s3.45,47.45,5.92,47.45,5.92-18,5.92-47.45S29.88,7.68,27.41,7.68Zm-12.4,97c-4.62,0-8.24-11.45-8.24-26.07S10.39,52.53,15,52.53,23.26,64,23.26,78.59,19.63,104.66,15,104.66Zm0-50.52c-3.34,0-6.92,9.83-6.92,24.45s3.58,24.46,6.92,24.46,6.93-9.83,6.93-24.46S18.36,54.14,15,54.14Zm10.57,51.24h-.17c-4.57-.32-6.71-13.2-6.13-25.46.57-12.11,3.82-24.44,8.3-24.44h.18c4.57.32,6.7,13.2,6.13,25.46l-.66,0,.66,0a67.55,67.55,0,0,1-2.8,17.19C29.55,102.81,27.6,105.38,25.58,105.38Zm2-48.3c-2.82,0-6.36,9.31-7,22.92s2.06,23.56,4.89,23.76c1.43.07,3.07-2.23,4.39-6.24a65.88,65.88,0,0,0,2.7-16.68c.65-13.75-2.06-23.56-4.89-23.76ZM33,105.38h-.19C28.72,105.08,26,94.8,26.59,82a56.94,56.94,0,0,1,2.73-15.75C30.89,61.8,32.9,59.43,35,59.6c4.09.28,6.83,10.56,6.23,23.4a57.36,57.36,0,0,1-2.74,15.75C36.94,103,35,105.38,33,105.38ZM34.79,61.2c-1.43,0-3,2-4.26,5.66a55,55,0,0,0-2.63,15.2c-.6,12.73,2.1,21.5,5,21.7,1.48.1,3-2,4.36-5.65A55,55,0,0,0,39.88,82.9c.6-12.72-2.1-21.49-5-21.7Z"/></g></g></svg>