<svg xmlns="http://www.w3.org/2000/svg" viewBox="0 0 50.81 101.64"><defs><style>.cls-1,.cls-2{fill:#fff;}.cls-2{opacity:0.5;}</style></defs><title>drip-2</title><g id="Layer_2" data-name="Layer 2"><g id="drip-2"><path id="void" class="cls-1" d="M50.16,29.24a8.66,8.66,0,0,1-.93,4.62,3.36,3.36,0,0,1-4.08,1.53,9.67,9.67,0,0,1-.76-7.19c.79-2.7,2.74-5.77,2.62-8.59.12-.36-.14-7.51-.17-10.49a5.12,5.12,0,0,0-.68-3,3.39,3.39,0,0,0-3.93-.8A8.54,8.54,0,0,0,39,8a15.15,15.15,0,0,0-2.85,5,18.29,18.29,0,0,0-.55,4.61L35,33.4c-.1,2.81-.2,5.62-.17,8.43a89.76,89.76,0,0,0,2.27,19c.37,1.7-.94,3.58-1.92,4.45a2.06,2.06,0,0,1-2.66,0,3.66,3.66,0,0,1-.91-2.46A50,50,0,0,1,32.22,53c1.31-11.36,1.16-22.83,1-34.26A2.47,2.47,0,0,0,33,17.39c-.57-.88-2-.65-2.7.18a5,5,0,0,0-.74,3q-.81,24.59-1.6,49.15c0,3.28-.26,10.36,0,16.71.2,3.42.45,5.68.56,7.4a23.42,23.42,0,0,1,.09,3.71c-.37,3.15-2.52,3.89-3.92,2.9s-1.67-2.92-1.6-4.63c.22-4.86,2.36-9.53,2.25-14.4a478.51,478.51,0,0,1,1.72-51.5,33.32,33.32,0,0,0-.14-3.49c.57-1.69-2.3.76-3-1.63A33.55,33.55,0,0,0,25,13.93a21.68,21.68,0,0,0-5,3.43,7.31,7.31,0,0,0-2.33,5.4,264.8,264.8,0,0,1-.34,36.51c-.23,2.9-.5,5.87.23,8.68.56,2.14,1.7,4.15,1.86,6.36s-1.2,4.81-3.41,4.86c-1.81,0-3.26-1.68-3.59-3.46A13,13,0,0,1,13,70.36c3.52-14.78,2.06-30.23.58-45.35a11.86,11.86,0,0,0-1.07-4.56,4.05,4.05,0,0,0-3.8-2.29c-1.39.18-2.07-1.7-1.93-3.09s.51-3.05-.52-4c-.85-.79-2.17-.61-3.33-.68S.41,9.54.66,8.4C1.3,5.47,4.25,3.53,7.2,3s6,0,9,.28,6.18.22,8.74-1.34c3.26-2,7.39.27,11.2.2a27.22,27.22,0,0,0,5.48-1.06,9.4,9.4,0,0,1,5.51,0c1.73.68,3.14,2.52,2.75,4.34C48.2,13.22,50.15,21.28,50.16,29.24Z"/><path id="fill2" class="cls-1" d="M50.16,29.24a8.66,8.66,0,0,1-.93,4.62,3.36,3.36,0,0,1-4.08,1.53,9.67,9.67,0,0,1-.76-7.19c.79-2.7,2.74-5.77,2.62-8.59.12-.36-.14-7.51-.17-10.49a5.12,5.12,0,0,0-.68-3,3.39,3.39,0,0,0-3.93-.8A8.54,8.54,0,0,0,39,8a15.15,15.15,0,0,0-2.85,5,18.29,18.29,0,0,0-.55,4.61L35,33.4c-.1,2.81-.2,5.62-.17,8.43a89.76,89.76,0,0,0,2.27,19c.37,1.7-.94,3.58-1.92,4.45a2.06,2.06,0,0,1-2.66,0,3.66,3.66,0,0,1-.91-2.46A50,50,0,0,1,32.22,53c1.31-11.36,1.16-22.83,1-34.26A2.47,2.47,0,0,0,33,17.39c-.57-.88-2-.65-2.7.18a5,5,0,0,0-.74,3q-.81,24.59-1.6,49.15c0,3.28-.26,10.36,0,16.71.2,3.42.45,5.68.56,7.4a23.42,23.42,0,0,1,.09,3.71c-.37,3.15-2.52,3.89-3.92,2.9s-1.67-2.92-1.6-4.63c.22-4.86,2.36-9.53,2.25-14.4a478.51,478.51,0,0,1,1.72-51.5,33.32,33.32,0,0,0-.14-3.49c.57-1.69-2.3.76-3-1.63A33.55,33.55,0,0,0,25,13.93a21.68,21.68,0,0,0-5,3.43,7.31,7.31,0,0,0-2.33,5.4,264.8,264.8,0,0,1-.34,36.51c-.23,2.9-.5,5.87.23,8.68.56,2.14,1.7,4.15,1.86,6.36s-1.2,4.81-3.41,4.86c-1.81,0-3.26-1.68-3.59-3.46A13,13,0,0,1,13,70.36c3.52-14.78,2.06-30.23.58-45.35a11.86,11.86,0,0,0-1.07-4.56,4.05,4.05,0,0,0-3.8-2.29c-1.39.18-2.07-1.7-1.93-3.09s.51-3.05-.52-4c-.85-.79-2.17-.61-3.33-.68S.41,9.54.66,8.4C1.3,5.47,4.25,3.53,7.2,3s6,0,9,.28,6.18.22,8.74-1.34c3.26-2,7.39.27,11.2.2a27.22,27.22,0,0,0,5.48-1.06,9.4,9.4,0,0,1,5.51,0c1.73.68,3.14,2.52,2.75,4.34C48.2,13.22,50.15,21.28,50.16,29.24Z"/><path id="fill3" class="cls-2" d="M25.37,93.9c0,.82-.4,5-.9,5.24s-.58-2.35-.44-4.46,1.37-7.79,1.37-7.79C25.35,90.77,25.38,93.09,25.37,93.9ZM46.89,24.18A20.46,20.46,0,0,0,45,30.53c-.23,3,.72,4.17,1.09,4.1s-.61-2.7,0-6.19C46.41,26.82,47,25.86,46.89,24.18ZM33.28,51.36s-.67,6.36-.66,8.68-.39,4.28,1,4.59c.46.1-.14-1.45-.15-4.79C33.47,57.43,33.2,56.31,33.28,51.36ZM14.72,67.06a46.27,46.27,0,0,0-1,6.3c0,1.69.35,3.73.94,3.56s.69-3.57.63-4.23S15,70.18,14.72,67.06ZM5.31,8.19c.67.38,1.29.55,1.76.09.91-.89,2.78.27,2.69,1.89,0,.77-.71,4.9,1,4.73,1.92-.19.41-6,.54-6.84s1.5-.78,1-1.33S9.7,6.21,9.07,6.4s-1.39-.21-2.19,0S4.18,7.54,5.31,8.19Z"/><path id="fill1" d="M13.62,25C15.1,40.13,16.56,55.58,13,70.36a13,13,0,0,0-.58,5.35c.33,1.78,1.78,3.51,3.59,3.46,2.21,0,3.57-2.65,3.41-4.86S18.16,70.09,17.6,68c-.73-2.81-.46-5.78-.23-8.68a264.8,264.8,0,0,0,.34-36.51A7.32,7.32,0,0,1,20,17.36a21.68,21.68,0,0,1,5-3.43A33.55,33.55,0,0,1,23.9,24.8c.72,2.39,3.59-.06,3,1.63a33.32,33.32,0,0,1,.14,3.49,476,476,0,0,0-1.71,51.51c.1,4.86-2,9.53-2.25,14.39-.08,1.71.2,3.65,1.59,4.64s3.55.24,3.92-2.91a23.42,23.42,0,0,0-.09-3.71c-.11-1.72-.36-4-.56-7.4-.3-6.35-.08-13.43,0-16.71q.79-24.57,1.6-49.15a5,5,0,0,1,.74-3c.66-.83,2.13-1.06,2.7-.18a2.49,2.49,0,0,1,.27,1.35c.15,11.43.3,22.9-1,34.26a50,50,0,0,0-.59,9.84,3.66,3.66,0,0,0,.91,2.46,2.06,2.06,0,0,0,2.66,0c1-.87,2.29-2.75,1.92-4.45a89.76,89.76,0,0,1-2.27-19c0-2.81.07-5.62.17-8.43l.57-15.8A18.29,18.29,0,0,1,36.14,13,15.15,15.15,0,0,1,39,8a8.54,8.54,0,0,1,3.24-2.77,3.39,3.39,0,0,1,3.93.8,5.12,5.12,0,0,1,.68,3c0,3.4.37,12.22.1,10.2l-1-11.93a2.22,2.22,0,0,0-2.68-1.68,5.84,5.84,0,0,0-2.92,1.92A14.72,14.72,0,0,0,36.69,13,18,18,0,0,0,36,18.62l-.39,28a31.15,31.15,0,0,0,.23,5.29c.67,4.31,3.06,9,.81,12.71C35.8,66,33.78,67.07,32.44,66a3.51,3.51,0,0,1-1.11-2.16c-.84-3.83-.16-7.81.33-11.7,1.34-10.64,1.2-21.41,1.05-32.13,0-1.19-.38-2.76-1.57-2.81-1.06,2.18-1.15,4.7-1.22,7.13L28.87,62.79c-.14,4.83-.27,9.67-.24,14.5q0,8.64.75,17.27a10.92,10.92,0,0,1-.25,4.49,3.6,3.6,0,0,1-3.34,2.59A3.49,3.49,0,0,1,23,99.31a8.7,8.7,0,0,1-.36-3.8,40.29,40.29,0,0,1,1.57-8.65,21.54,21.54,0,0,0,.56-6.32q-.24-27.06,1.82-54.07c-.85.93-2.55.1-2.93-1.11a6.82,6.82,0,0,1,.42-3.71,18.85,18.85,0,0,0,.57-6.6,2,2,0,0,0-1.23.52c-2.53,1.84-5.32,4.21-5.18,7.33.41,9.71.83,19.46.14,29.16-.43,6-1.26,12.16.46,17.92.74,2.48,1.93,5.23.72,7.53a4.28,4.28,0,0,1-7,.36c-1.32-2-.67-4.62-.1-6.94,3.65-14.82,2.15-30.37.63-45.56a11.3,11.3,0,0,0-1-4.38,3.85,3.85,0,0,0-3.68-2.15C6.87,19.06,6.15,17,6.3,15.5s.42-3.37-.84-4.22-3.33.18-4.63-.74A2.44,2.44,0,0,1,.21,7.66a7.11,7.11,0,0,1,2-2.46L4.1,3.46a16.8,16.8,0,0,1,10.41-.72C19.92,4.11,25.38-.2,30.92.52c1.34.18,2.63.65,4,.79,4.25.45,8.66-2.39,12.66-.85A4,4,0,0,1,50.18,3.2a6.06,6.06,0,0,1,0,1.9,70.55,70.55,0,0,0,0,15.51c.46,4.15,1.27,8.45-.06,12.4a5,5,0,0,1-1.76,2.62,3.12,3.12,0,0,1-3.45-.08c-2-1.48-1.5-4.62-.74-7a72.35,72.35,0,0,0,2.8-9.68c.57,3-1.68,6.41-2.54,9.36a9.67,9.67,0,0,0,.76,7.19c1.43.71,3.24-.17,4.08-1.53a8.55,8.55,0,0,0,.93-4.62c0-8-2-16-.31-23.81.39-1.82-1-3.66-2.75-4.34a9.4,9.4,0,0,0-5.51,0,26.54,26.54,0,0,1-5.48,1.06c-3.81.07-7.94-2.18-11.2-.2-2.56,1.56-5.75,1.61-8.74,1.34s-6-.81-9-.27S1.3,5.47.66,8.4c-.25,1.14,1.16,1.93,2.31,2s2.48-.11,3.33.68c1,.95.67,2.61.52,4s.54,3.27,1.93,3.09a4.05,4.05,0,0,1,3.8,2.29A11.86,11.86,0,0,1,13.62,25"/></g></g></svg>