<svg xmlns="http://www.w3.org/2000/svg" viewBox="0 0 99.77311 98.6486"><title>garden-vase-1-iso</title><g id="Layer_2" data-name="Layer 2"><g id="garden-vase-1-iso"><path id="void" d="M99.50211,98.32664c-.07088.22043-.29131.28343-.56686.28343-2.22816-.00788-4.45633.11807-6.66873-.04724-1.32272-.10236-2.63755-.063-3.96026-.1496a1.95335,1.95335,0,0,1-1.992-1.26759A4.37162,4.37162,0,0,0,84.58214,95.075a7.36847,7.36847,0,0,0-2.19664-.77945,6.79623,6.79623,0,0,0-4.31457-.063,1.67132,1.67132,0,0,1-2.08645-.70862c-.53538-.88181-1.54319-1.37783-1.88962-2.40924-.03936-.11023-.307-.19683-.4645-.19683-1.75578-.01576-3.51152-.10236-5.25149.03936-.66139.05512-1.28336-.07084-1.9211-.063-5.66092.02359-11.32185.01571-16.99066.01571-1.37783,0-2.75566.01576-4.12561-.00788a18.682,18.682,0,0,1-3.81071-.16531c-.25984-.063-.56686.15748-.85817.16531-1.25188.01576-2.50376.02364-3.75559,0-.50391-.01572-1.055-.27555-1.50384-.14955a8.62356,8.62356,0,0,1-2.28323.14955c-3.06274.01576-6.13336,0-9.196.00788-.28348,0-.63774-.126-.69286.33855a5.86525,5.86525,0,0,0-2.03133,2.24392,1.72727,1.72727,0,0,1-1.23612.87393,7.25687,7.25687,0,0,1-1.84233.29131c-.25984-.03147-.50391-.16531-.76374-.17319-1.99193-.08664-3.25169,1.02352-4.20433,2.60607a5.89742,5.89742,0,0,0-.25984.55114,1.16525,1.16525,0,0,1-1.25976.79517c-1.4329-.05512-2.89738.126-4.30668-.063-1.36208-.18112-2.71631-.04724-4.06262-.1496-.41731-.0394-1.74.34643-2.18881.07872a.56043.56043,0,0,0-.14171-.063.923.923,0,0,1-.7401-.56686,4.57885,4.57885,0,0,1-.17324-1.98409A5.732,5.732,0,0,0,.18793,94.823a2.10178,2.10178,0,0,1,.57478-1.54319c.80305-.87393,1.66915-1.6849,2.50372-2.51948.06295-.07083.126-.18895.19683-.19683,1.13376-.08659,1.2046-1.10224,1.37783-1.81874a2.735,2.735,0,0,1,.92117-1.59826A33.0169,33.0169,0,0,1,8.392,85.10729a1.93837,1.93837,0,0,1,1.51955-.40155c.40155.09448.45662-.126.4409-.4645-.02364-.433,0-.87392-.00788-1.307-.00788-.14959.00788-.3779-.07088-.433-.82669-.59838-.18107-1.17312.09448-1.6219a9.16706,9.16706,0,0,1,2.55883-2.362c.992-.7401,2.03921-1.42507,3.03914-2.17305a6.01276,6.01276,0,0,0,.6771-.83457c.13383-.14959.33066-.36214.496-.35431.433.01576.33855-.25978.33855-.48814.00788-.622,0-1.25183,0-1.97617,0-1.44083-.00788-2.7793.00788-4.12566a9.52477,9.52477,0,0,0,.07871-1.488,2.9557,2.9557,0,0,1,.07088-1.48019c.10236-.29131-.126-.69286-.14959-1.03929a5.27177,5.27177,0,0,1,.01571-1.40936,12.696,12.696,0,0,0-.03147-1.3463,6.48879,6.48879,0,0,0,0-1.40936c-.07872-.58262.28342-1.11012.03935-1.73209a3.14874,3.14874,0,0,1,0-1.70855,5.21492,5.21492,0,0,0-.03147-2.60607c.496-.73221-.34643-1.56679.18107-2.30688.04724-.05512.02364-.18107.00788-.27555a28.94783,28.94783,0,0,1,.01576-3.78707c-.07088-1.33847-.01576-2.69266-.01576-4.039V40.001c0-1.31484.03147-2.62972-.00788-3.94455a10.43255,10.43255,0,0,1-.11024-2.62183,5.08424,5.08424,0,0,0,.11024-1.29119c-.03148-.86609-.14172-1.72426-.17319-2.58247-.03153-.93693-.02365-1.88174,0-2.81867.00788-.50386-.22836-.63774-.685-.622-.6535.0236-1.31488-.02364-1.96833.01577-.51967.03935-.64562-.26772-.73221-.66138-.063-.29131-.126-.57474-.189-.86605-.25191-1.13376-.5511-1.244-1.74-.99993a8.71242,8.71242,0,0,1-2.22028.05512c-.19684-.00788-.36219-.31495-.559-.45667-.3149-.22042-.07871-.38578,0-.60626a2.006,2.006,0,0,0,.01576-.65345,8.18849,8.18849,0,0,0-.03147-1.866,8.674,8.674,0,0,1,.03936-1.63767c-.09448-1.32271-.126-2.63755-.20472-3.96031a1.17576,1.17576,0,0,0-.26771-.54326c-.22043-.29131-.14172-.63774.126-.685.79521-.14171,1.12588-.85816,1.72426-1.23607,1.23612-.77161,2.35412-1.72426,3.55088-2.55883,1.06288-.73226,2.16516-1.40935,3.25169-2.11009,1.5589-.99988,3.12568-1.99193,4.66887-3.00757A21.48164,21.48164,0,0,0,25.35111,2.028C25.9652,1.45317,26.64234.94927,27.31156.42965A.7887.7887,0,0,1,27.57139.3037a.22314.22314,0,0,1,.07083-.07877c.00788-.03147.01576-.05511.02365-.08659h.13383c.02364,0,.03936-.01576.063-.01576a48.9994,48.9994,0,0,1,6.96788.01576H48.71126c.14959.02359.29919.03936.44878.063a3.25979,3.25979,0,0,0,.39367-.00788c.61414.01576,1.22824.01576,1.8345.01576C57.07273.16193,62.74942.036,68.41822.1777a.36131.36131,0,0,1,.29919.14959,1.29687,1.29687,0,0,1,.26767.24407.46059.46059,0,0,1,.14171.29131c.00788.00788.01577.00788.01577.01576a20.1275,20.1275,0,0,0,4.36968,4.61376,21.54112,21.54112,0,0,1,2.24393,1.8345A25.52174,25.52174,0,0,0,81.80288,11.531a18.65563,18.65563,0,0,1,2.42495,1.62979,5.18229,5.18229,0,0,0,.84245.46455c.36219.15747.63774.33066.57479.78733-.00788.07871.03148.22831.07871.23619.86605.22048.252,1.0944.66922,1.50383-.27555.57474.03152,1.1416.00788,1.72421-.03936,1.181-.03148,2.37777,0,3.56665a13.65322,13.65322,0,0,0,.20471,1.78726c.063.40938-.03935.60621-.41726.64562-.75586.063-1.51171.13383-2.2754.18107a.526.526,0,0,0-.53538.38578c-.19684.51179-.433,1.00781-.66926,1.51167a5.16381,5.16381,0,0,0-.252.45666c-.08659.24408-.07871.6771-.22042.72434a1.69644,1.69644,0,0,1-1.15741.07876,2.79286,2.79286,0,0,0-1.06288-.14172,4.48912,4.48912,0,0,0-.72433.05508,6.38928,6.38928,0,0,1,.51174.40154c.07876.07877.25195.11024.09447.33855-.13383.20471-.05507.53543-.07871.811-.07872,1.00776-.00788,2.00769-.126,3.02338a8.34235,8.34235,0,0,0-.03941,2.4643,25.21553,25.21553,0,0,1,.1496,4.81064c.02364,11.04626.00788,22.09256.03152,33.13882.00788.95269-.02364,1.8975-.02364,2.85014,0,.28348.07088.37795.36219.36219a3.31936,3.31936,0,0,1,2.22816.9684c.81881.6535,1.66914,1.26765,2.48007,1.93686.685.56686,1.88174,1.92109,2.49583,2.55883.13388.14172.44879.41726.24407.69286.11024.10236.17324.24407-.03935.4409-.14172.126-.32279.24407-.38579.40155a2.02881,2.02881,0,0,0-.03147.622,1.79682,1.79682,0,0,0,.39366-.25984c.23619-.29131.433-.3149.66134,0a30.87771,30.87771,0,0,0,2.62971,2.83443,1.86912,1.86912,0,0,1,.23619.559c.07088.15747.126.40154.24407.44878.72433.2756.92117.97629,1.244,1.55107a1.56913,1.56913,0,0,0,1.22036.992,5.54639,5.54639,0,0,1,2.2124,1.41719,7.45393,7.45393,0,0,1,.93693.929c.27554.30707.85033.53538.35431,1.118-.03153.03936.13383.33855.27554.42519a3.52076,3.52076,0,0,1,1.7715,3.19657,9.386,9.386,0,0,0,.252,1.551C99.90366,98.07469,99.76982,98.24,99.50211,98.32664Z" style="fill:#fff"/><path id="fill2" d="M99.50211,98.32664c-.07088.22043-.29131.28343-.56686.28343-2.22816-.00788-4.45633.11807-6.66873-.04724-1.32272-.10236-2.63755-.063-3.96026-.1496a1.95335,1.95335,0,0,1-1.992-1.26759A4.37162,4.37162,0,0,0,84.58214,95.075a7.36847,7.36847,0,0,0-2.19664-.77945,6.79623,6.79623,0,0,0-4.31457-.063,1.67132,1.67132,0,0,1-2.08645-.70862c-.53538-.88181-1.54319-1.37783-1.88962-2.40924-.03936-.11023-.307-.19683-.4645-.19683-1.75578-.01576-3.51152-.10236-5.25149.03936-.66139.05512-1.28336-.07084-1.9211-.063-5.66092.02359-11.32185.01571-16.99066.01571-1.37783,0-2.75566.01576-4.12561-.00788a18.682,18.682,0,0,1-3.81071-.16531c-.25984-.063-.56686.15748-.85817.16531-1.25188.01576-2.50376.02364-3.75559,0-.50391-.01572-1.055-.27555-1.50384-.14955a8.62356,8.62356,0,0,1-2.28323.14955c-3.06274.01576-6.13336,0-9.196.00788-.28348,0-.63774-.126-.69286.33855a5.86525,5.86525,0,0,0-2.03133,2.24392,1.72727,1.72727,0,0,1-1.23612.87393,7.25687,7.25687,0,0,1-1.84233.29131c-.25984-.03147-.50391-.16531-.76374-.17319-1.99193-.08664-3.25169,1.02352-4.20433,2.60607a5.89742,5.89742,0,0,0-.25984.55114,1.16525,1.16525,0,0,1-1.25976.79517c-1.4329-.05512-2.89738.126-4.30668-.063-1.36208-.18112-2.71631-.04724-4.06262-.1496-.41731-.0394-1.74.34643-2.18881.07872a.56043.56043,0,0,0-.14171-.063.923.923,0,0,1-.7401-.56686,4.57885,4.57885,0,0,1-.17324-1.98409A5.732,5.732,0,0,0,.18793,94.823a2.10178,2.10178,0,0,1,.57478-1.54319c.80305-.87393,1.66915-1.6849,2.50372-2.51948.06295-.07083.126-.18895.19683-.19683,1.13376-.08659,1.2046-1.10224,1.37783-1.81874a2.735,2.735,0,0,1,.92117-1.59826A33.0169,33.0169,0,0,1,8.392,85.10729a1.93837,1.93837,0,0,1,1.51955-.40155c.40155.09448.45662-.126.4409-.4645-.02364-.433,0-.87392-.00788-1.307-.00788-.14959.00788-.3779-.07088-.433-.82669-.59838-.18107-1.17312.09448-1.6219a9.16706,9.16706,0,0,1,2.55883-2.362c.992-.7401,2.03921-1.42507,3.03914-2.17305a6.01276,6.01276,0,0,0,.6771-.83457c.13383-.14959.33066-.36214.496-.35431.433.01576.33855-.25978.33855-.48814.00788-.622,0-1.25183,0-1.97617,0-1.44083-.00788-2.7793.00788-4.12566a9.52477,9.52477,0,0,0,.07871-1.488,2.9557,2.9557,0,0,1,.07088-1.48019c.10236-.29131-.126-.69286-.14959-1.03929a5.27177,5.27177,0,0,1,.01571-1.40936,12.696,12.696,0,0,0-.03147-1.3463,6.48879,6.48879,0,0,0,0-1.40936c-.07872-.58262.28342-1.11012.03935-1.73209a3.14874,3.14874,0,0,1,0-1.70855,5.21492,5.21492,0,0,0-.03147-2.60607c.496-.73221-.34643-1.56679.18107-2.30688.04724-.05512.02364-.18107.00788-.27555a28.94783,28.94783,0,0,1,.01576-3.78707c-.07088-1.33847-.01576-2.69266-.01576-4.039V40.001c0-1.31484.03147-2.62972-.00788-3.94455a10.43255,10.43255,0,0,1-.11024-2.62183,5.08424,5.08424,0,0,0,.11024-1.29119c-.03148-.86609-.14172-1.72426-.17319-2.58247-.03153-.93693-.02365-1.88174,0-2.81867.00788-.50386-.22836-.63774-.685-.622-.6535.0236-1.31488-.02364-1.96833.01577-.51967.03935-.64562-.26772-.73221-.66138-.063-.29131-.126-.57474-.189-.86605-.25191-1.13376-.5511-1.244-1.74-.99993a8.71242,8.71242,0,0,1-2.22028.05512c-.19684-.00788-.36219-.31495-.559-.45667-.3149-.22042-.07871-.38578,0-.60626a2.006,2.006,0,0,0,.01576-.65345,8.18849,8.18849,0,0,0-.03147-1.866,8.674,8.674,0,0,1,.03936-1.63767c-.09448-1.32271-.126-2.63755-.20472-3.96031a1.17576,1.17576,0,0,0-.26771-.54326c-.22043-.29131-.14172-.63774.126-.685.79521-.14171,1.12588-.85816,1.72426-1.23607,1.23612-.77161,2.35412-1.72426,3.55088-2.55883,1.06288-.73226,2.16516-1.40935,3.25169-2.11009,1.5589-.99988,3.12568-1.99193,4.66887-3.00757A21.48164,21.48164,0,0,0,25.35111,2.028C25.9652,1.45317,26.64234.94927,27.31156.42965A.7887.7887,0,0,1,27.57139.3037a.22314.22314,0,0,1,.07083-.07877c.00788-.03147.01576-.05511.02365-.08659h.13383c.02364,0,.03936-.01576.063-.01576a48.9994,48.9994,0,0,1,6.96788.01576H48.71126c.14959.02359.29919.03936.44878.063a3.25979,3.25979,0,0,0,.39367-.00788c.61414.01576,1.22824.01576,1.8345.01576C57.07273.16193,62.74942.036,68.41822.1777a.36131.36131,0,0,1,.29919.14959,1.29687,1.29687,0,0,1,.26767.24407.46059.46059,0,0,1,.14171.29131c.00788.00788.01577.00788.01577.01576a20.1275,20.1275,0,0,0,4.36968,4.61376,21.54112,21.54112,0,0,1,2.24393,1.8345A25.52174,25.52174,0,0,0,81.80288,11.531a18.65563,18.65563,0,0,1,2.42495,1.62979,5.18229,5.18229,0,0,0,.84245.46455c.36219.15747.63774.33066.57479.78733-.00788.07871.03148.22831.07871.23619.86605.22048.252,1.0944.66922,1.50383-.27555.57474.03152,1.1416.00788,1.72421-.03936,1.181-.03148,2.37777,0,3.56665a13.65322,13.65322,0,0,0,.20471,1.78726c.063.40938-.03935.60621-.41726.64562-.75586.063-1.51171.13383-2.2754.18107a.526.526,0,0,0-.53538.38578c-.19684.51179-.433,1.00781-.66926,1.51167a5.16381,5.16381,0,0,0-.252.45666c-.08659.24408-.07871.6771-.22042.72434a1.69644,1.69644,0,0,1-1.15741.07876,2.79286,2.79286,0,0,0-1.06288-.14172,4.48912,4.48912,0,0,0-.72433.05508,6.38928,6.38928,0,0,1,.51174.40154c.07876.07877.25195.11024.09447.33855-.13383.20471-.05507.53543-.07871.811-.07872,1.00776-.00788,2.00769-.126,3.02338a8.34235,8.34235,0,0,0-.03941,2.4643,25.21553,25.21553,0,0,1,.1496,4.81064c.02364,11.04626.00788,22.09256.03152,33.13882.00788.95269-.02364,1.8975-.02364,2.85014,0,.28348.07088.37795.36219.36219a3.31936,3.31936,0,0,1,2.22816.9684c.81881.6535,1.66914,1.26765,2.48007,1.93686.685.56686,1.88174,1.92109,2.49583,2.55883.13388.14172.44879.41726.24407.69286.11024.10236.17324.24407-.03935.4409-.14172.126-.32279.24407-.38579.40155a2.02881,2.02881,0,0,0-.03147.622,1.79682,1.79682,0,0,0,.39366-.25984c.23619-.29131.433-.3149.66134,0a30.87771,30.87771,0,0,0,2.62971,2.83443,1.86912,1.86912,0,0,1,.23619.559c.07088.15747.126.40154.24407.44878.72433.2756.92117.97629,1.244,1.55107a1.56913,1.56913,0,0,0,1.22036.992,5.54639,5.54639,0,0,1,2.2124,1.41719,7.45393,7.45393,0,0,1,.93693.929c.27554.30707.85033.53538.35431,1.118-.03153.03936.13383.33855.27554.42519a3.52076,3.52076,0,0,1,1.7715,3.19657,9.386,9.386,0,0,0,.252,1.551C99.90366,98.07469,99.76982,98.24,99.50211,98.32664Z" style="fill:#e4cbb0"/><path id="fill1" d="M99.59356,97.71288a9.65493,9.65493,0,0,1-.24744-1.55088,3.52831,3.52831,0,0,0-1.77673-3.19849c-.1348-.08184-.30563-.38208-.2718-.42207.4927-.58261-.07963-.81366-.35816-1.12357a7.3705,7.3705,0,0,0-.9314-.92525A5.5641,5.5641,0,0,0,93.792,89.07884a1.55726,1.55726,0,0,1-1.21709-.99786c-.32418-.57507-.52-1.26937-1.24376-1.54862-.12173-.047-.17358-.29064-.2447-.44927a1.98941,1.98941,0,0,0-.2334-.55642A29.47771,29.47771,0,0,1,88.2175,82.6871c-.22528-.31106-.425-.28953-.6596-.00024a1.61066,1.61066,0,0,1-.39208.26449,1.99852,1.99852,0,0,1,.03248-.624c.06055-.16007.24576-.27646.3843-.40294.21048-.19218.15166-.33591.03787-.43774.20764-.27968-.10861-.55133-.24186-.69021-.61477-.64086-1.81466-1.99452-2.49982-2.56172-.80742-.66834-1.66045-1.28129-2.48118-1.934a3.27979,3.27979,0,0,0-2.22413-.9734c-.28809.01552-.3618-.08-.36229-.36243-.00173-.94961.02744-1.89884.025-2.84875-.02782-11.04678-.00725-22.09366-.0295-33.14044a25.672,25.672,0,0,0-.15258-4.80858,8.26811,8.26811,0,0,1,.037-2.46152c.12109-1.01727.05108-2.02158.127-3.02756.02066-.27391-.05378-.609.07881-.80636.157-.23364-.01173-.26565-.094-.34316-.15781-.14849-.341-.27012-.51366-.4029a4.61821,4.61821,0,0,1,.72573-.05242,2.66833,2.66833,0,0,1,1.06653.14431,1.69713,1.69713,0,0,0,1.15654-.08165c.13912-.04935.1284-.48069.21673-.727.05815-.162.18434-.29822.25738-.45647.23038-.49886.4669-.996.66705-1.5072a.53382.53382,0,0,1,.5362-.38991c.75754-.04431,1.51344-.11649,2.26954-.18257.38295-.03344.4818-.23273.41707-.64a13.76515,13.76515,0,0,1-.20245-1.792c-.0311-1.18835-.04138-2.37935.00466-3.56674.02239-.57714-.28747-1.14861-.01384-1.72267-.41645-.41.20048-1.28115-.66705-1.49956-.04518-.01134-.08982-.16084-.07862-.23782.06694-.45782-.21226-.63423-.57349-.78724a5.07837,5.07837,0,0,1-.84048-.462,18.36587,18.36587,0,0,0-2.42457-1.63094,25.62886,25.62886,0,0,1-6.05075-4.20471,21.23045,21.23045,0,0,0-2.24469-1.84012A20.198,20.198,0,0,1,69.14433.8755c-.00384-.00523-.01066-.00759-.0147-.01268a.53975.53975,0,0,0-.141-.29251,1.35344,1.35344,0,0,0-.2743-.24042A.36032.36032,0,0,0,68.41717.175C62.75043.03579,57.06956.15847,51.39119.20634,50.77935.20557,50.167.20855,49.55693.195c-.13162-.00288-.2656.01937-.39492.00385C49.011.18077,48.86028.16,48.70938.141H34.83091A48.96354,48.96354,0,0,0,27.8651.122a.38257.38257,0,0,0-.063.019h-.13628c-.01058.02759-.01658.05488-.0247.08237a.39539.39539,0,0,0-.07108.07641.83582.83582,0,0,0-.25507.1333,24.40462,24.40462,0,0,0-1.96367,1.59778A21.84118,21.84118,0,0,1,22.26521,4.341c-1.54411,1.02054-3.11084,2.00682-4.66677,3.00949-1.08715.70055-2.1914,1.37663-3.25337,2.1136-1.19791.83131-2.317,1.7826-3.55,2.55432-.60232.377-.93366,1.09882-1.72542,1.23578-.26488.04584-.34436.39179-.12441.68656a1.13535,1.13535,0,0,1,.26161.54326c.08275,1.31849.11091,2.64072.21043,3.95762a9.336,9.336,0,0,0-.0431,1.63651,8.30219,8.30219,0,0,1,.03114,1.87025,2.00287,2.00287,0,0,1-.01476.65182c-.08058.22067-.31024.3891.00116.60919.19818.14008.364.444.5559.45408a8.92056,8.92056,0,0,0,2.2261-.052c1.18941-.2434,1.48643-.13278,1.73791,1.00055.06362.2868.12479.57412.188.861.08669.39329.21182.6994.73206.66456.65427-.04383,1.31431.007,1.97064-.01663.45619-.01639.69281.12129.68253.621-.01927.93841-.02989,1.87832.00158,2.81611.029.86216.13927,1.72153.1717,2.58373a5.26612,5.26612,0,0,1-.10644,1.29417,10.39859,10.39859,0,0,0,.104,2.61947c.044,1.31287.01143,2.62832.01143,3.94268v3.943c0,1.34564-.05387,2.69411.01562,4.03614A29.114,29.114,0,0,0,17.665,51.766c.01653.09087.04085.21534-.00375.277-.5312.73481.31106,1.57371-.18184,2.30578a5.28166,5.28166,0,0,1,.0335,2.60707,3.04707,3.04707,0,0,0-.00044,1.70139c.2448.628-.11783,1.1563-.04483,1.73647a6.16292,6.16292,0,0,1,.00091,1.40561,13.097,13.097,0,0,1,.03056,1.35169,5.38589,5.38589,0,0,0-.012,1.40373c.0236.3522.2533.74788.15017,1.03876a2.93555,2.93555,0,0,0-.07025,1.48639,10.12,10.12,0,0,1-.08256,1.48293c-.01471,1.34549-.00505,2.69122-.00505,4.13075,0,.72088.00279,1.34785-.00149,1.97478-.00154.23032.09376.50126-.339.48723-.16338-.00529-.35921.20529-.4965.357a5.96211,5.96211,0,0,1-.678.83519c-.99479.74759-2.04195,1.4256-3.03679,2.17319a9.07935,9.07935,0,0,0-2.55993,2.35556c-.27238.45181-.91978,1.028-.09587,1.62263.08409.06069.06665.28333.06944.43129.00817.438-.01514.87719.00879,1.314.01836.33605-.03767.55778-.43946.46489a1.93132,1.93132,0,0,0-1.52157.39631c-.91665.62245-1.77433,1.33516-2.63029,2.04229a2.74452,2.74452,0,0,0-.92,1.59571c-.16906.71434-.23811,1.73344-1.37365,1.822-.07112.00553-.1334.12485-.19981.19121-.83707.83712-1.70115,1.64944-2.49939,2.52207a2.06524,2.06524,0,0,0-.57435,1.54617,7.39884,7.39884,0,0,1-.16089.8636,4.56437,4.56437,0,0,0,.176,1.98356.90005.90005,0,0,0,.73481.56417.86887.86887,0,0,1,.14287.06387c.45172.26891,1.76963-.11341,2.192-.07978,1.34809.10731,2.69555-.02585,4.05786.15537,1.4145.18813,2.87508.00192,4.31231.05968a1.16593,1.16593,0,0,0,1.25938-.79468,4.59593,4.59593,0,0,1,.25743-.55009c.956-1.58428,2.21346-2.69584,4.2026-2.60924.25824.01124.50928.14248.769.17348a6.84222,6.84222,0,0,0,1.83791-.29227,1.72258,1.72258,0,0,0,1.23987-.86927A5.88484,5.88484,0,0,1,23.242,91.24689c.05805-.46008.40972-.33773.6881-.338,3.06682-.00293,6.13374.00913,9.20042-.00961a8.47371,8.47371,0,0,0,2.27881-.14565c.45427-.12519,1.00176.13426,1.50893.14488,1.25121.02619,2.50352.02,3.755,0,.28794-.00456.59814-.221.85715-.16151a18.421,18.421,0,0,0,3.80778.16353c1.37635.02883,2.75375.00654,4.13071.00654,5.66425,0,11.32853.01086,16.99268-.01505.63711-.00293,1.25284.11764,1.91384.06339,1.74074-.14292,3.501-.05363,5.25342-.03945.16012.00129.425.091.46238.20067.35018,1.026,1.35607,1.52311,1.89236,2.40607a1.66324,1.66324,0,0,0,2.08837.70722,6.79735,6.79735,0,0,1,4.30986.0667,7.50043,7.50043,0,0,1,2.20414.7758A4.35673,4.35673,0,0,1,86.312,97.14852a1.95789,1.95789,0,0,0,1.99549,1.26356c1.318.08934,2.637.04484,3.96232.147,2.20876.17031,4.44024.04286,6.66211.05.28251.00092.49967-.06054.57017-.28136C99.77232,98.24086,99.90048,98.07623,99.59356,97.71288Zm-6.2558-7.27523c.70237-.4783,1.16341.06943,1.64223.36834a7.13729,7.13729,0,0,1,1.26077,1.23179.431.431,0,0,1,.05358.3113c-.00351.02927-.16382.07107-.24167.05526-.57079-.11615-1.13885-.24585-1.708-.3705-.22782-.04993-.5658-.02316-.6609-.16267a3.12374,3.12374,0,0,1-.33965-.9696A1.883,1.883,0,0,1,93.33776,90.43765Zm-5.771-6.89051a1.92893,1.92893,0,0,1,.51371.33028c.41226.44335.80232.90771,1.18931,1.3736a1.00587,1.00587,0,0,1,.114.31548,2.67678,2.67678,0,0,1-.38444-.03421c-.33937-.07852-.67556-.17122-1.01295-.2583-.21889,0-.27089.01154-.27815-.00163a3.4557,3.4557,0,0,1-.379-1.74815A.63714.63714,0,0,1,87.56674,83.54714Zm-7.5516-7.0551c.02018-.36209.27425-.47738.60838-.2582.66926.43908,1.32944.897,1.95752,1.39268.809.63841,1.59071,1.31248,2.36834,1.98943a19.50427,19.50427,0,0,1,1.46688,1.69033c-.79378-.04944-1.58788-.09678-2.37849-.17785a.62152.62152,0,0,1-.44739-.34916,9.52189,9.52189,0,0,0-1.194-2.23168.60147.60147,0,0,0-.90786-.31591,4.79015,4.79015,0,0,1-1.199.2694.35941.35941,0,0,1-.27069-.22625C79.99505,77.68116,79.98213,77.0848,80.01514,76.492ZM11.55293,12.98161a8.39925,8.39925,0,0,1,1.84142-1.45121c1.1564-.8326,2.28939-1.70163,3.48178-2.4793,1.32146-.86182,2.70708-1.62455,4.04849-2.45672.95-.58934,1.91177-1.17148,2.79915-1.84757,1.43867-1.09594,2.82064-2.26622,4.22644-3.40532.16723-.13551.34888-.27617.37656-.47074.89444-.068,1.78591-.088,2.6757-.07756a.35738.35738,0,0,1,.10514.07419c.4004-.01879.80108-.032,1.20195-.04378,1.77.06286,3.53815.18569,5.319.18569q5.12283,0,10.25018,0c6.79343.00009,13.59773-.21567,20.3792-.055V.9806a.35912.35912,0,0,1,.066.04974c.77325.87671,1.0834,2.0481,1.85776,2.91934a.40546.40546,0,0,1,.08707.15531A10.66332,10.66332,0,0,0,71.515,5.26754a24.91506,24.91506,0,0,1,2.91867,2.23431A14.77392,14.77392,0,0,0,75.63113,8.657a21.617,21.617,0,0,0,2.01451,1.48057,20.88028,20.88028,0,0,0,3.03689,1.956,18.03874,18.03874,0,0,1,2.27261,1.311c.09174.05512.14619.17247.21793.261a1.893,1.893,0,0,1-.3471.06588c-3.605.0162-7.21137-.06439-10.81323.1804-.3103.0211-.649-.19779-.9426-.14075a10.11316,10.11316,0,0,1-3.98794-.03177.91078.91078,0,0,0-.5559.00678,3.387,3.387,0,0,1-1.71239.16968q-3.28574.02328-6.57171-.00091a3.3824,3.3824,0,0,1-1.53137-.15267c-.25013-.11755-.6387.06155-.965.10346a1.79056,1.79056,0,0,1-.44114.04012c-.32206-.04113-.6386-.14873-.96038-.16362-.59333-.02754-1.18878-.00788-1.78342-.00788s-1.19041-.02379-1.78336.007c-.54447.02831-1.08561-.02224-1.62868-.00965a10.73137,10.73137,0,0,0-1.5924.02249c-.52726.093-1.025-.08655-1.53824-.02293-.56763.07031-1.16692-.14416-1.70562.19088a8.86,8.86,0,0,0-2.4892-.18915c-2.69583-.10231-5.40147.22524-8.09025-.1852a.40158.40158,0,0,0-.18664.00144,5.1831,5.1831,0,0,1-2.00529.01764c-3.80129-.11361-7.604.0593-11.4094-.17641-2.64985-.16411-5.31806-.03162-7.97809-.03162a5.44835,5.44835,0,0,1-.56273-.00539,1.24825,1.24825,0,0,1-.308-.11768A2.48257,2.48257,0,0,0,11.55293,12.98161Zm2.34859,9.91812c-.93587-.01975-1.88673-.17689-2.83216-.14037-.69358.02677-.67-.6448-.68008-.8784-.05022-1.16451.05483-2.33547.09755-3.50446a3.47488,3.47488,0,0,0-.046-.508c-.09409-.83683-.21273-1.67184-.27146-2.51107a1.29873,1.29873,0,0,1,.197-.842,1.114,1.114,0,0,1,.7868-.3855,32.97635,32.97635,0,0,1,3.96622.12129,6.34449,6.34449,0,0,0,2.92751-.11307c.35594-.11346.814.1395,1.22742.15089.96917.02677,1.93955.00856,2.90944.00856a11.575,11.575,0,0,1,1.87347.02244c.591.09808,1.14943-.07088,1.72571-.02691,3.50527.26766,7.01775.17035,10.528.20217.48069.00437.96105-.03307,1.43992-.0062.88214.04949,1.76217.14632,2.64465.17549.61434.02033,1.23137-.058,1.84719-.058.61506,0,1.23.05219,1.84531.064.62549.012,1.2514.00265,1.87713.00265h5.81931c.62572,0,1.25217.01754,1.87693-.00659.377-.01456.75149-.13176,1.12728-.13292.3545-.0011.747.21125,1.05658.11558a9.21635,9.21635,0,0,1,2.293.03613c.80978-.05449,1.62609-.0122,2.43951-.0122a23.33062,23.33062,0,0,1,2.438.02229c.52379.05532,1.02385-.04973,1.53651-.027,1.69427.07506,3.38917.14157,5.0845.18453a2.63849,2.63849,0,0,0,1.34386-.1519c.20466-.10217.55931.14786.847.15137a31.50386,31.50386,0,0,0,4.49963-.03349,22.80871,22.80871,0,0,1,4.71087-.09506c1.26145.09409,2.51679.09371,3.77448.12893.471.01317.65518.19059.64476.66042a24.91123,24.91123,0,0,0,.0136,2.72011c.05925.67637-.04066,1.33679-.02365,2.005.01836.7191.0112,1.43916.00207,2.15863-.00836.65605-.07439.71727-.75129.72424-.657.00673-1.31426-.00971-1.971.00336-2.91512.05815-5.82994.13028-8.7452.17973a9.84261,9.84261,0,0,1-1.67784-.1087c-.30659-.04786-.564-.15661-.84158.09279a.54068.54068,0,0,1-.45153.01437c-.83-.31678-1.66034.09606-2.47315-.00994-1.02141-.13321-2.04017.1581-3.03347-.00923-.773-.13023-1.57091.30784-2.30481-.1595a3.72139,3.72139,0,0,1-2.44816.13787,10.74364,10.74364,0,0,0-3.30373-.08971,13.25528,13.25528,0,0,1-3.20993.10653c-2.63654-.31029-5.27091-.08131-7.90437-.14229-.984-.02278-1.971.143-2.95784.16257-.636.01264-1.28307-.17136-1.90884-.1074a5.21772,5.21772,0,0,1-1.80725-.037c-.43538-.10327-.94308.15449-1.41618.14431-1.4453-.03105-2.8895-.1137-4.33413-.17632-2.37785,0-4.57156.0817-6.7572-.01715C22.73528,22.90569,18.3173,22.99271,13.90152,22.89973Zm1.97872,2.48161c-.33644-.01183-.5907-.05575-.663-.45273a2.25958,2.25958,0,0,0-.23979-.46167c-.10616-.23191-.1977-.47045-.29549-.70612.27651-.08755.56685-.2804.82731-.24613a64.19081,64.19081,0,0,0,7.08739.16877c.78152.01614,1.56385-.00764,2.34552.00547.77238.01293,1.54434.06983,2.31654.06983.771,0,1.54213-.06579,2.31312-.06353.31962.001.69-.1593.95524.17636,1.00776-.14786,2.02321.12432,3.02112-.04421.2025-.03421.30438-.12763.53673-.00187a1.87683,1.87683,0,0,0,.82145.04723q10.22713.002,20.45417.00673a2.77475,2.77475,0,0,1,1.34362.15416c.20462.10212.56431-.16656.84572-.14786a26.4769,26.4769,0,0,1,3.68538.13008,4.02156,4.02156,0,0,0,2.36243-.11788,2.17473,2.17473,0,0,1,1.2069-.011,14.67157,14.67157,0,0,0,3.50816.05569c1.02674-.02445,2.11567-.40452,3.15169.09986a1.85571,1.85571,0,0,0,.74168.01879q4.87905.00051,9.758.00207c.53749.00058.53379.0099.2965.525a10.96772,10.96772,0,0,0-.55187,1.27134.539.539,0,0,1-.56282.45927c-1.4131.0529-2.82549.12441-4.2385.18131-.37473.01513-.75066.0023-1.126.0023a27.7491,27.7491,0,0,0-2.90584.026c-.589.06545-1.09589-.33408-1.74117-.068a4.0478,4.0478,0,0,1-1.76482.03508c-3.04688-.25047-6.09919-.16128-9.14986-.18891-.41246-.00375-.82367-.16391-1.23593-.166-.38031-.00187-.79113.23537-1.13655.15205a19.91048,19.91048,0,0,0-3.96237-.15935c-.843-.03422-1.68971.02056-2.53274-.01356a17.35479,17.35479,0,0,1-2.83947-.13969,12.72132,12.72132,0,0,0-2.25945.13359c-1.16308-.01216-2.32471-.12783-3.48807-.16406-.31755-.0099-.63952.15695-.95851.1533-.37973-.00433-.75763-.14974-1.13756-.15565-1.34453-.02076-2.69.01249-4.03436-.0125-2.539-.04728-5.078-.10428-7.6157-.19361-.74312-.02614-1.51138.07021-2.21711-.02864-2.26195-.31688-4.53207.06151-6.77307-.18516C18.63878,25.37446,17.2622,25.42987,15.88024,25.38134ZM78.911,41.07936a1.567,1.567,0,0,0,.14378,1.335c.05824.07323-.05454.2767-.07747.42173a1.87707,1.87707,0,0,0-.08472.70732,4.97659,4.97659,0,0,1-.00245,2.85514c-.03618.11456.1027.27372.1087.41442.01519.35643.01336.71473-.005,1.071-.01846.358-.09789.71535-.08915,1.07144.00716.2903.12956.576.15719.86787.04815.50953-.04762,1.01925-.00437,1.53444.04431.52822.0098,1.063.0098,1.59495V54.6424c0,.532-.02133,1.065.00625,1.59547a14.16793,14.16793,0,0,0-.02379,1.44324,10.81906,10.81906,0,0,1,.01754,1.59317V60.87c0,.532.01245,1.06422-.00221,1.59576-.05714,2.07064-.134,4.14085-.17554,6.21178a11.20617,11.20617,0,0,0,.16925,1.14308,4.09812,4.09812,0,0,1-.0803.61837c-.01394.1903.00682.38291.0037.57436-.00716.44191-.01389.884-.03259,1.32555a3.26132,3.26132,0,0,0-.06362.53225c.179,1.33723-.09606,2.672-.00817,4.00793.0123.18694-.00846.376.00341.563.06339,1.00117-.09121,1.09108-.9104,1.08344-3.03486-.02821-6.07021-.01605-9.10531-.00629a8.13366,8.13366,0,0,1-1.45112.0779,2.89185,2.89185,0,0,0-1.23006.08462,3.24432,3.24432,0,0,1-.87489-.119,2.58573,2.58573,0,0,0-.99815-.00654,2.48164,2.48164,0,0,1-1.65944.00015,1.8915,1.8915,0,0,0-1.194-.01524,4.34511,4.34511,0,0,1-1.71662.15436c-4.06766.01239-8.13581.03786-12.20289-.01346-1.13881-.01437-2.27406.05291-3.41191.02629-1.1884-.02778-2.37829.0109-3.56673-.01553-.41265-.00922-.8575.16344-1.24722-.16593-.06963-.05882-.2767.06055-.42236.07309a3.18249,3.18249,0,0,1-1.06571.04907,2.53782,2.53782,0,0,0-1.84325.0344.57675.57675,0,0,1-.45551.00865,3.25273,3.25273,0,0,0-1.71148-.17c-2.47185-.018-4.94394-.00774-7.41594-.00774-1.7889-.06257-3.39129-.10519-4.99037-.202-.392-.02374-.7449.1716-1.16768.04084a4.26087,4.26087,0,0,0-1.30595-.02364c-.21447.00485-.32634-.01884-.33768-.29246a17.72365,17.72365,0,0,1-.13893-2.73409c.0865-.7399-.31259-1.51.14825-2.21193-.42783-.43835-.10312-.97815-.1494-1.46005-.0445-.463-.03782-.9585-.05276-1.43607-.02581-.82593.10514-1.64377.0309-2.47479-.07492-.83813-.01649-1.68817-.01649-2.533V57.3959c0-.3755.02331-.75292-.00783-1.12583-.02254-.26973-.13792-.53091-.17136-.80093-.017-.13706.08178-.285.08323-.42841.00576-.56691-.00418-1.13405-.01245-1.70105-.00519-.35724-.021-.71429-.02576-1.07153-.0037-.27617.00178-.55249.004-.82876.00553-.67008.00538-1.3403.02229-2.01009.00356-.14176.12976-.297.09842-.42039-.25752-1.01621.14508-2.02566.01158-3.0387a4.93292,4.93292,0,0,1-.15315-1.69649,6.36632,6.36632,0,0,0,.1235-2.18131,6.08921,6.08921,0,0,0-.147-1.93422,1.33359,1.33359,0,0,1,.0223-.63759,7.0987,7.0987,0,0,0,.14546-.87474c.01-3.87991.00582-7.75992.0075-11.63988.00034-.74385.01091-.67114.81391-.73649,1.33785-.1089,2.662.11024,3.99678.05766a35.199,35.199,0,0,1,4.22216.00615c3.63459.29506,7.28086-.03128,10.90363.21322,2.82856.19093,5.64713.03273,8.46719.14825a20.75542,20.75542,0,0,1,2.454.20159c.49608.08006.91464-.25709,1.45746-.057a5.11091,5.11091,0,0,0,1.67539.03874q.79788,0,1.59581.00014c.43759.00048.87686-.02114,1.31224.01048.3633.02633.75187.23407,1.07658.15228a7.54668,7.54668,0,0,1,1.9158.02682c1.3455-.00635,2.69113-.01471,4.03634.00461a4.61941,4.61941,0,0,1,1.5304.14575,3.476,3.476,0,0,0,1.339-.10135,2.1701,2.1701,0,0,1,.5412-.04493,34.21375,34.21375,0,0,0,5.02444.1804,8.42747,8.42747,0,0,1,1.7762.03215c.4943.11692,1.02362-.2855,1.47.15046.04406.04306.19572.02681.26531-.01519.46061-.278.90065-.03724,1.35789-.01994a8.16641,8.16641,0,0,0,3.11992-.12706c.26536-.0938.33576.07982.29366.2942a13.28586,13.28586,0,0,0-.033,4.64355,5.51269,5.51269,0,0,1-.14426.94394,12.25124,12.25124,0,0,0,.01057,1.96872c.07674.61573-.10322,1.21286-.01783,1.818.05334.37781.28088.86254.12653,1.10944-.28112.4497-.0026.7387.05478,1.09888.034.21365.09866.52259-.01057.64062C78.67152,40.19971,78.982,40.655,78.911,41.07936ZM18.23056,79.26822q12.0101-.00568,24.02028-.00619a6.95164,6.95164,0,0,0,2.0346.00341c.76451.48934,1.63358-.3546,2.39391.18775a4.68475,4.68475,0,0,1,1.43963.00346c.5-.01548,1.00075-.00346,1.50114-.00346a10.26167,10.26167,0,0,0,1.59278-.01466,18.04927,18.04927,0,0,1,2.88143.01581q12.38543-.003,24.7709-.01374a6.28627,6.28627,0,0,0,1.25539.03046,8.08113,8.08113,0,0,1,1.31-.02066c.34172-.009.49141.121.661.455.73058,1.43906.75735,1.42546-.77176,1.42546-1.59509,0-3.19027-.00783-4.78522.00658-.32129.00289-.66013-.11951-.97119.16267-.10188.09241-.40121-.02561-.60838-.059a1.96017,1.96017,0,0,0-.51563-.10121,14.98511,14.98511,0,0,1-1.72152.03c-.57695.01071-1.14351-.10669-1.723-.05224-.62.05824-1.26678-.07727-1.87107.036-.74951.14056-1.49715.02561-2.24787.12547a13.35343,13.35343,0,0,1-1.7158.04253q-23.22275-.006-46.44543-.0111c-.69353-.00048-1.387-.11725-2.0804-.17982-.304-.16983-.73293.5249-.65273-.164.03388-.29074.13335-.57349.17353-.86394a.48246.48246,0,0,1,.54206-.48031c.14123-.00053.38021-.03282.40774-.11014C17.31746,79.11608,17.808,79.26842,18.23056,79.26822ZM11.499,80.96216c.86926-.67969,1.73978-1.35923,2.635-2.004A15.16944,15.16944,0,0,0,16.55483,77.106a1.13178,1.13178,0,0,1,.53682-.27276c.22509-.05776.43447-.028.39261.3126a4.19206,4.19206,0,0,0-.00346.65508.44607.44607,0,0,1-.48391.52549c-1.018.03964-1.42541.7856-1.76083,1.57154a10.75463,10.75463,0,0,0-.38545,1.33905c-.81208.0939-1.53089.07641-2.24816.10245-.28823.01053-.5707.14383-.86023.16791a1.29949,1.29949,0,0,1-.45921-.14561C11.35322,81.22627,11.38969,81.04765,11.499,80.96216Zm-2.00226,4.703c.28972.01476.71722-.197.7535.36-.24869,0-.311.00817-.37031-.00144-.21423-.03474-.42745-.0754-.64106-.11379C9.3251,85.82365,9.41516,85.66093,9.49676,85.66511ZM3.30285,91.8459a2.34614,2.34614,0,0,1,.72251-.36253,1.36506,1.36506,0,0,1,.498.09851c-.13143.12552-.242.30525-.39861.36527a7.26086,7.26086,0,0,1-1.00488.26171c-.0223.005-.0988-.11529-.09366-.12038C3.11308,92.00227,3.209,91.92509,3.30285,91.8459ZM22.041,91.12017a3.12551,3.12551,0,0,0-1.44915,1.64343c-.0295.08-.12782.1346-.19423.201a2.54883,2.54883,0,0,1-.09957-.318,8.76267,8.76267,0,0,0-.20227-1.13833.60066.60066,0,0,0-.767-.384c-.10621.03186-.12975.40549-.15046.62669-.00952.10206.0889.21024.12081.32071.32754,1.13305.08683,1.464-1.06019,1.46405a6.61116,6.61116,0,0,1-.75048-.005,9.23981,9.23981,0,0,0-1.944.14652c-1.548.30789-2.3867,1.51229-3.3107,2.59761-.1941.228-.15412.71189-.369.85139-.27156.17627-.72246.04878-1.04539.17848a6.15313,6.15313,0,0,1-2.8302.11725,4.13921,4.13921,0,0,0-1.36293.02163c-.434.10534-.97537-.22908-1.4083-.12216a4.13532,4.13532,0,0,1-2.29934-.00937A5.34653,5.34653,0,0,0,1.3,97.41374c-.03513-.38809-.24816-.82174-.115-1.11315a2.07448,2.07448,0,0,0,.12913-1.15971c-.11836-1.04957,1.02342-1.81854,1.85324-1.97155.59136-.10908,1.19892-.12859,1.79793-.19895.369-.04329.77705-.36132.65133-.60386-.45041-.86854.051-1.6714.08227-2.48857a2.56521,2.56521,0,0,1,.6721-1.67909c1.03362-1.07211,2.38045-1.12564,3.71888-1.22262.07814-.00562.23355.16022.24407.258.08117.75442.13249,1.512.19957,2.26805.02307.25964-.04656.37815-.31038.53183-.44365.25834-.34638.64086.15968.80992a1.33816,1.33816,0,0,0,.53711.05718c.47642-.0456.9502-.16834,1.42488-.16766a8.23868,8.23868,0,0,1,1.3417.1062,7.70419,7.70419,0,0,0,1.241.03066,17.25458,17.25458,0,0,0,4.43211-.13975,1.4331,1.4331,0,0,1,.71866.06156,2.70849,2.70849,0,0,0,1.77227-.02215c.08789-.03407.21106.02307.31788.038C22.12758,90.91493,22.118,91.07557,22.041,91.12017Zm55.14449,1.7022a1.5534,1.5534,0,0,1-.08559.33375c-.08741-.08463-.182-.16306-.26094-.25494-.35185-.40914-.71284-.81169-1.04178-1.23871a3.22774,3.22774,0,0,1-.29746-.61606l.6572-.13936c1.02838.15392,1.029.15392,1.03246.89584C77.191,92.14278,77.19691,92.48287,77.18552,92.82237Zm.5003-2.65335a10.78816,10.78816,0,0,0-3.21046.166.91.91,0,0,1-.44148-.05219c-.14123-.03066-.30438-.15565-.412-.11572-1.0499.38963-2.08842-.202-3.13385-.01485-.62448.11178-1.29427-.20351-1.89231.19146a3.73094,3.73094,0,0,0-1.79928-.18261c-.65614-.02259-1.31368-.001-1.97054-.00635a11.80973,11.80973,0,0,0-1.92556.18622,1.4195,1.4195,0,0,1-.37469.00062A4.03926,4.03926,0,0,0,61.175,90.323a5.60133,5.60133,0,0,1-1.403.016,3.03332,3.03332,0,0,1-1.344-.15513c-.20467-.10211-.564.16546-.846.14816-1.28744-.07881-2.59242.22932-3.86593-.17132a.69259.69259,0,0,0-.37266-.00048,11.83092,11.83092,0,0,1-3.95685.15363c-2.0199-.127-4.03984.26008-6.03676.0038a57.35178,57.35178,0,0,0-6.58882-.1409c-.97879-.01312-1.96021-.04709-2.94116-.0258-1.03184.02234-2.06449.005-3.09676.005H27.62612c-1.03231,0-2.06463-.00422-3.0969.00169a17.08026,17.08026,0,0,1-1.719-.02619c-3.5703-.3473-7.14564-.07833-10.717-.15075-.39876-.00808-.43807-.14157-.44686-.47685a4.86793,4.86793,0,0,0-.1817-1.14083,14.56313,14.56313,0,0,1-.17958-3.39623c-.0135-.37488-.00432-.75072-.00154-1.12608.00322-.43557-.12638-.95408.068-1.27562.11726-.19409.76355-.00821,1.13266-.12167a13.91045,13.91045,0,0,1,3.21132-.17372c8.102,0,16.01625-.00149,23.93047.003.57383.00033,1.1426-.0718,1.72268-.01716.65114.06137,1.31247.01413,1.96939.01413H54.7672a17.02083,17.02083,0,0,1,1.8752.01547c.5818.06483,1.12189-.19779,1.73084-.04709.58954.14585,1.25534-.043,1.8655.05421.52855.08419.98733-.24071,1.54866-.05767a4.6776,4.6776,0,0,0,1.67731.02792c.70079-.04412,1.39677-.03109,2.0977-.00822.50328.01639,1.0106-.151,1.51729-.15887.37968-.00591.79363.2324,1.13318.14133.36143-.09693.65038-.26872.9895.01466.05628.047.18261.032.27094.01552a29.41158,29.41158,0,0,1,3.97491.01792c1.34156-.069,2.69469.05685,4.03263-.041.86533-.06324,1.71095.07338,2.56825.03528.93664-.04167,1.87646-.00947,2.81492-.00947.90718,0,1.81437-.00471,2.72155.00139.79742.00539.778.01144.80939.86014a23.77463,23.77463,0,0,0,.2222,3.57486,24.95457,24.95457,0,0,1,.14835,2.65124c.03681.42447-.1605.55556-.58348.62644a32.23888,32.23888,0,0,1-4.52308.177,4.95343,4.95343,0,0,0-1.90091.1643,2.05032,2.05032,0,0,1-.93006.01254A8.17862,8.17862,0,0,0,77.68582,90.169ZM92.655,97.49a10.28749,10.28749,0,0,1-1.79221.14085,6.162,6.162,0,0,0-2.17882-.12518c-.98854.15055-1.38547-.34922-1.74079-1.12161a5.07081,5.07081,0,0,0-2.47449-2.41014c-.334-.16522-.74346-.17963-1.07442-.349a8.85438,8.85438,0,0,0-4.79584-.60179c-.34465.02335-.4384-.03441-.45585-.23691a7.89059,7.89059,0,0,1,.00635-1.49874c.0148-.14018.35786-.39131.41091-.35945.594.35695,1.16245-.0359,1.73431-.04479a30.58554,30.58554,0,0,1,3.58307.10644c1.02113.10519,2.03225-.01975,3.03636.11307a2.60316,2.60316,0,0,0,1.50494-.45536c.19894-.09544.31067-.20155-.0656-.345-.64057-.24417-.607-.30381-.46671-1.02737a2.11915,2.11915,0,0,0,.0013-.65533,10.319,10.319,0,0,1-.17415-1.04961c-.02316-1.18355-.00918-1.1823,1.22377-1.17a2.89418,2.89418,0,0,1,2.28583,1.228,6.08409,6.08409,0,0,1,1.18676,3.63286A1.838,1.838,0,0,0,93.829,93.1503a13.42746,13.42746,0,0,0,1.89221.19131,2.743,2.743,0,0,1,2.68627,2.76119c.0001.18218.15244,1.11223.2138,1.548C96.63231,97.59942,94.644,97.52225,92.655,97.49ZM63.18859,50.9165c-.35094-.199-.59127-.57252-1.07754-.57848a11.23407,11.23407,0,0,0-3.10483.44744,2.86844,2.86844,0,0,1-.38626.05243c.05348-.129.0703-.32058.16636-.37671a16.41639,16.41639,0,0,1,1.91879-1.02977c.30279-.12653.67-.40721,1.07427-.04137.127.115.50313.05565.70319-.04609.1382-.07025.169-.35051.24907-.53639a.5928.5928,0,0,1,.57848-.34969c.40693-.03922.92266-.12019.90262-.65269a8.93684,8.93684,0,0,0-.32519-1.83007,3.52829,3.52829,0,0,0-1.79024-1.94527,2.66629,2.66629,0,0,0-1.298-.238c-.31525-.01268-.63553.16113-.95438.16421a4.2734,4.2734,0,0,0-3.15019,1.2488,1.77442,1.77442,0,0,1-.45.26781,2.02269,2.02269,0,0,1-.2644.09688.794.794,0,0,1,.05286-.252c.28694-.47694.59276-.94264.87571-1.4219a6.59023,6.59023,0,0,1,3.05293-3.13227c.19361-.07862.49612-.22773.23994-.54393a.42594.42594,0,0,0-.70353-.05978A28.94018,28.94018,0,0,0,57.14044,42.554a30.031,30.031,0,0,0-1.73517,2.74567c-.20616.32586-.44634.63068-.6794.93871a.75365.75365,0,0,1-.19611.13374c-.01793-.08472-.07987-.19588-.04724-.25023.67781-1.129,1.323-2.28131,2.067-3.36562a20.83811,20.83811,0,0,1,1.85233-2.236,15.79919,15.79919,0,0,1,1.306-1.138,1.90923,1.90923,0,0,0,.568-1.7282.99187.99187,0,0,0-.435-.66,4.89191,4.89191,0,0,0-3.666-.903,1.89179,1.89179,0,0,0-.9834.32317,8.5911,8.5911,0,0,0-3.007,3.32906,8.44878,8.44878,0,0,0-.40477,1.66131,13.97648,13.97648,0,0,1-.154,1.89591,11.46089,11.46089,0,0,0-.382,1.81941c-.08367.43528.13546.82275-.00029,1.24376a1.44906,1.44906,0,0,0-.06266.9315c.10288.22893-.06036.242-.0916.35239-.02359.08366-.05353.1655-.08068.2481-.03547-.07083-.10058-.14128-.10169-.21264-.00845-.56316-.00471-1.1265-.00471-1.68976a9.788,9.788,0,0,1,.02778-2.0592,10.77567,10.77567,0,0,0,.34407-2.85447,9.46624,9.46624,0,0,0-.15762-2.277c-.19044-.65672-.10307-1.38884-.22816-2.07122a3.84253,3.84253,0,0,0-.55153-1.92657,12.97372,12.97372,0,0,0-.97129-1.09753,1.78091,1.78091,0,0,0-2.424.04685c-.91871.92857-.78747,2.08655-.66609,3.23487.02807.26608.199.59478.09708.78171a2.93779,2.93779,0,0,0-.15782,1.43728c-.02595.68742-.0037,1.37663-.01047,2.065a.83161.83161,0,0,1-.08415.24522,1.87155,1.87155,0,0,0-.10178-.22735c-.04637-.0764-.15007-.13912-.15747-.21485-.11317-1.152-.95961-1.74147-1.77117-2.37574A9.479,9.479,0,0,1,43.02,37.66457a8.19683,8.19683,0,0,0-.88378-1.0289c-.48574-.36858-1.05577-.80382-1.70436-.48536a6.78456,6.78456,0,0,0-2.61352,1.84632c-.22913.30429-.65893.74591-.57411.93953a3.21507,3.21507,0,0,0,.7597,1.28965,15.16721,15.16721,0,0,1,2.23994,2.23355,16.16044,16.16044,0,0,1,1.84137,2.51217c.51827,1.04529,1.218,2.00033,1.83075,2.99964.03786.06175.00576.16641.0062.25113a.57317.57317,0,0,1-.1965-.0791c-.60141-.59343-1.19681-1.193-1.79514-1.78947a10.045,10.045,0,0,0-2.74361-1.9889c-.31231-.14979-.65023-.24734-.959-.40332a5.03814,5.03814,0,0,0-4.22-.20356,2.11638,2.11638,0,0,0-1.311,1.06922,6.19065,6.19065,0,0,1-1.26033,2.21264,1.11821,1.11821,0,0,0,.01263,1.58784,2.92742,2.92742,0,0,0,1.86161,1.16672,1.60449,1.60449,0,0,1,.4643.23307c-.11663.10721-.24133.207-.34844.323a5.58394,5.58394,0,0,0-1.00257,1.13487,5.35117,5.35117,0,0,0-.68378,4.479,2.06328,2.06328,0,0,1-.10831.60655,1.21834,1.21834,0,0,0-.05954.53092,3.03787,3.03787,0,0,0,1.93185,2.27876,7.4212,7.4212,0,0,0,2.181.15517,1.27846,1.27846,0,0,0,.7301-.25517c1.123-.85946,2.24686-1.72955,2.47286-3.27274a.9054.9054,0,0,1,.11149-.23455.61418.61418,0,0,1,.97546-.30342,4.59449,4.59449,0,0,0,1.01392.49c.13748.03969.35853-.15839.512-.28415a.649.649,0,0,0-.199-.36056,7.528,7.528,0,0,0-1.3477-.8202c-.802-.32356-1.023-.1939-1.44453.6251a2.88264,2.88264,0,0,0-.18574.39222c-.19366.57738-.37343,1.15947-.5707,1.7356-.0308.09006-.12561.15815-.19087.23643-.05993-.08356-.16858-.16511-.17218-.251a7.62391,7.62391,0,0,0-.1817-2.17958c-.08909-.26651.42865-.91136.73255-.94058.77369-.07434,1.57611-.4175,2.30183.17761.09.07382.21111.19511.29425.17829.58194-.11807.836.33148,1.1401.65518.56561.602.47767,1.42344-.28155,1.56419-1.03376.19159-.9438.98109-1.138,1.61-.13658.44221.57017,1.20474,1.04058,1.25078.66229.06482,1.32411.13979,1.98789.18237.33191.02129.34945.0962.20534.38948a2.69531,2.69531,0,0,1-1.60566,1.31681,1.83427,1.83427,0,0,1-2.0817-.29511,2.0828,2.0828,0,0,0-.96931-.5769,3.08263,3.08263,0,0,0-1.48053.14609c-.24941.095-.36959.54653-.53322.84548-.31255.571-.37584,1.35395-1.26418,1.42632a.36335.36335,0,0,0-.22951.2655,4.25269,4.25269,0,0,0,.48175,2.70588,4.08747,4.08747,0,0,0,3.83527,1.19494,1.4334,1.4334,0,0,1,.31937-.04325.97762.97762,0,0,1-.04219.31822,4.95953,4.95953,0,0,0-.48329,2.339,1.426,1.426,0,0,0,.75446,1.42041,2.45147,2.45147,0,0,0,2.06642-.27906c.33263-.35066.59516-.77018.94062-1.10589.66052-.64182,1.3541-1.25,2.04152-1.86362a3.24328,3.24328,0,0,0,.97437-1.56981,1.63465,1.63465,0,0,1,.28549-.42034c.01043.16944.02336.33879.02821.50837.00062.02149-.05325.04042-.06156.06685a3.40878,3.40878,0,0,0,.94135,3.90115,1.05991,1.05991,0,0,1,.132.13326c.04988.06276.09178.13186.13705.19822-.08525.02076-.19231.085-.25219.05508-.32082-.16065-.72083-.15287-.86215-.64341-.17646-.61256-.61472-1.14366-.55427-1.83849.00894-.10293-.10673-.29487-.18891-.30947a.54557.54557,0,0,0-.40308.1271,1.15161,1.15161,0,0,0-.20029,1.39595,8.10389,8.10389,0,0,0,.628,1.23838c.21038.30462.50827.69915.81919.75263a1.78914,1.78914,0,0,0,1.85257-.47569,1.7292,1.7292,0,0,1,.58055-.4A2.468,2.468,0,0,0,50.355,69.21671c.22946-.60343.71477-1.11709.55277-1.83945-.00855-.03787.05685-.10683.10318-.13955.09491-.06694.20024-.119.30135-.17723.051.09251.15454.19126.14426.27636a1.55075,1.55075,0,0,0,.38622,1.15837c.38439.5015.55585,1.17307,1.28042,1.40561.257.08251.66864-.007.78316.39828-.25287.04709-.506.09323-.75865.14138-.93126.17756-.9314.1779-1.31853-.66941a1.79181,1.79181,0,0,0-.18112-.39237c-.17958-.22177-.38925-.59319-.5842-.59175-.38762.00284-.35676.40876-.35.71794a1.02771,1.02771,0,0,0,.00745.37229,8.2708,8.2708,0,0,0,.67906,1.3093c.10227.146.43039.13744.65725.19189a3.42185,3.42185,0,0,0,2.19491-.44355c.80339-.34537,1.44425-.96379,2.2867-1.282a1.37774,1.37774,0,0,0,.73327-1.49129,1.03389,1.03389,0,0,0-.9587-.92963,3.35371,3.35371,0,0,1-1.29094-.48973,4.91311,4.91311,0,0,1-1.48788-2.4705c-.01725-.0433.02624-.11091.04147-.16719a.79.79,0,0,1,.197.10476,14.03487,14.03487,0,0,0,1.19225,1.17269,4.07463,4.07463,0,0,0,4.84072.55326A1.75558,1.75558,0,0,0,60.75,63.30633a10.67507,10.67507,0,0,0-.79108-1.1747c-.56585-.78715-.86326-.83458-1.67861-.29006a1.97779,1.97779,0,0,1-2.5571-.39362,2.42961,2.42961,0,0,1-.48267-.92.76948.76948,0,0,1,.466-1.00608c.297-.1086.55143-.33066.84625-.44888a.76046.76046,0,0,0,.56354-.79622,3.25745,3.25745,0,0,1,1.081-2.362.905.905,0,0,1,1.35337-.02475,5.02447,5.02447,0,0,1,1.295,2.28314c.34037.8822.41846.92122,1.27158.4076.11586-.06972.38574-.096.43394-.03094a.82861.82861,0,0,0,1.02155.21793,10.0244,10.0244,0,0,0,1.6863-.91007,2.90234,2.90234,0,0,0,.998-1.73815,2.94556,2.94556,0,0,0-.85-3.18864A5.27575,5.27575,0,0,0,63.18859,50.9165Zm-8.70309-1.607a12.56852,12.56852,0,0,1,2.16877-2.76432,4.67777,4.67777,0,0,1,3.15115-1.46293,10.70527,10.70527,0,0,0,1.2342-.17617,1.21825,1.21825,0,0,1,1.115.46339c.36416.42952.877.70655,1.042,1.353.08443.33057.029.49852-.16426.57925a2.654,2.654,0,0,1-1.02837.21932,7.50113,7.50113,0,0,0-3.47808,1.115A14.32572,14.32572,0,0,0,55.50244,51.288c-.49108.67882-.85053,1.295-1.29859,1.838a3.538,3.538,0,0,0-.49723,1.20536,4.5494,4.5494,0,0,1-.6348,1.22795c-.12807.16709-.48065.16214-.73145.23518.00846-.2063.0174-.4125.02537-.6188.05786-1.49321.86024-2.77364,1.21445-4.18554A6.27493,6.27493,0,0,1,54.4855,49.3095Zm2.38391,2.21884a5.77791,5.77791,0,0,1-.3731.81227c-.08179.127-.28324.17694-.43057.26171a.38215.38215,0,0,0-.20155.174l.0138-.174a6.22236,6.22236,0,0,0,.4186-.59194A4.24425,4.24425,0,0,1,56.86941,51.52834Zm-3.522-2.72544c.21913-.35705.44859-.7078.675-1.06033.25137.46556-.22086.73236-.303,1.10622a.43583.43583,0,0,0-.00086.09208c-.17742.0729-.2695.06641-.34076.02451A.16869.16869,0,0,1,53.34746,48.8029Zm-2.08069,4.23345c.23259-1.13256.38526-2.2815.57489-3.423.05814-.35.12446-.69872.18707-1.048,0-.71938-.02215-1.25207.00462-1.78236a15.59258,15.59258,0,0,1,.51635-3.25438,2.309,2.309,0,0,0,.03825-.7338,7.22912,7.22912,0,0,1,.57459-2.95394,1.33633,1.33633,0,0,1,.32375-.42711c.41414-.426.87071-.81492,1.25178-1.26789a3.04171,3.04171,0,0,1,3.65045-.86739c.05349.01836.09669.1125.13946.10894a.65425.65425,0,0,1,.78517.58248,1.54312,1.54312,0,0,1-.54129.91477,8.65571,8.65571,0,0,0-2.4584,2.7672,8.00778,8.00778,0,0,0-1.79673,2.53769,17.40011,17.40011,0,0,0-2.34287,5.69927c-.36041,1.52-.40409,3.06418-.71664,4.57556a3.50827,3.50827,0,0,1-.3793.96528,1.16579,1.16579,0,0,1-.45633.35652c-.055.03171-.1657-.03311-.25095-.05383.023-.04421.04325-.09015.0694-.13243A7.62693,7.62693,0,0,0,51.26677,53.03635ZM47.32429,35.22271c-.0196-.42611.19554-.56484.53164-.71569a.7923.7923,0,0,1,.9079.07089,3.40338,3.40338,0,0,1,1.18335,2.32754,17.8036,17.8036,0,0,1,.20385,2.0753c.06257.69291.07636,1.39461.19972,2.07651a14.863,14.863,0,0,1-.24277,2.661c.00216.25974-.13533.51986-.13783.78051-.01427,1.46875.01711,2.93823-.01307,4.4065-.03666,1.78731-.12321,3.57351-.17828,5.36053-.01187.385-.43091.77013-.008,1.16207a.19681.19681,0,0,1-.06646.149,5.46678,5.46678,0,0,1-.96537.372,1.02917,1.02917,0,0,1-.26012-.595c.02008-.44441-.14941-.89911.13907-1.34713a1.15052,1.15052,0,0,0,.01984-.823,17.29354,17.29354,0,0,1-.18107-3.58163,8.91262,8.91262,0,0,0-.20481-1.60355c-.1594-.61212-.47214-1.18412-.63437-1.79576a8.47709,8.47709,0,0,1-.27334-1.7604c-.08871-1.87929-.13484-3.76059-.19741-5.64113.06262-.53687.167-.8845.17929-1.2354C47.35332,36.7856,47.36019,36.0024,47.32429,35.22271Zm-5.07619,8.124a9.44945,9.44945,0,0,0-1.22343-1.46529c-.43865-.5078-.86749-1.02569-1.33232-1.50874a9.40941,9.40941,0,0,0-.84337-.67084c-.45123-.37128-.512-.784-.0717-1.14693a17.03129,17.03129,0,0,1,1.819-1.26317.629.629,0,0,1,.89041.16636c.26051.33168.51808.66681.79824.98148.24907.27982.48065.64273.80089.77964a3.95307,3.95307,0,0,1,2.0826,2.68517,22.77612,22.77612,0,0,1,.65595,2.35412c.221.97792.393,1.96737.5682,2.955.14013.78979.26166,1.58322.37214,2.37772a1.37783,1.37783,0,0,1-.05814.53576c-.20135.73409-.20674.7326.534,1.161.05325-.07194-.01687-.14215-.02114-.2162a1.61413,1.61413,0,0,1,.05122-.3471c.08386.08237.20847.152.23937.251.02715.08708-.05041.20693-.0817.31231a1.48735,1.48735,0,0,0-.06478,1.01492c.2102.35945-.19688.59953-.03791.89805a.30032.30032,0,0,1-.17084.14157c-.06372.00216-.18948-.08549-.18727-.12883.06863-1.38466-.86585-2.39622-1.32257-3.58385A51.41872,51.41872,0,0,0,42.2481,43.34669Zm-8.72159,2.1235a2.07249,2.07249,0,0,1,1.66-.94356,6.31671,6.31671,0,0,1,1.04832-.17,3.15425,3.15425,0,0,1,.92713.23941c.24459.08506.467.23269.7101.32361a7.79964,7.79964,0,0,1,2.78815,1.65756c1.01968.98983,2.088,1.93017,3.09547,2.93193a4.00252,4.00252,0,0,1,1.16317,1.958,3.25259,3.25259,0,0,0,.74269,1.36885,3.87873,3.87873,0,0,1,.7089,1.9618c.20251.93577.03263.99536-.904,1.02179-.43864.0124-.4337-.3002-.53053-.48252a2.78677,2.78677,0,0,1-.22557-.93529A3.35692,3.35692,0,0,0,43.447,52.41222c-.34283-.32188-.6646-.66629-.99392-1.00243a1.68935,1.68935,0,0,0-.24821-.26949,16.09689,16.09689,0,0,0-3.43881-2.12115,7.30013,7.30013,0,0,1-1.28941-.73548,6.83485,6.83485,0,0,0-2.82482-.74851C33.39344,47.50984,32.8856,46.57772,33.52651,45.47019Zm.2113,3.53079a2.76326,2.76326,0,0,1-1.57054-1.1599.50879.50879,0,0,1-.05271-.67733c.0875-.10918-.07723-.42467.2335-.36118.07818.01595.10327.29188.15276.44835A1.4237,1.4237,0,0,0,33.913,48.32524a21.03442,21.03442,0,0,1,3.23525.76743,1.34463,1.34463,0,0,1,.514.33144c.06122.05584.03729.20515.052.31192a.75193.75193,0,0,1-.25277.02821c-.168-.0406-.34748-.18727-.49026-.15387C35.80273,49.884,34.80434,49.232,33.73781,49.001Zm.10821,9.40927a1.37821,1.37821,0,0,1-.369-.23134l.24426-.13129a1.895,1.895,0,0,0,.41294.22519C34.037,58.32288,33.925,58.43062,33.846,58.41025Zm5.78626-5.24213a2.40664,2.40664,0,0,0-1.90923-.00577,7.44722,7.44722,0,0,0-1.15505.58772,1.09177,1.09177,0,0,0-.295.78666c.01255.69415.09856,1.38787.17411,2.07972.05848.53553-.09131.78325-.68531.93467a1.99056,1.99056,0,0,1-1.85272-.2546,3.20555,3.20555,0,0,1-1.36884-3.42785A6.6007,6.6007,0,0,1,33.567,51.49725a2.14709,2.14709,0,0,1,1.2562-.74581A7.235,7.235,0,0,1,36.989,50.556a6.90673,6.90673,0,0,1,4.78157,2.02552c.54269.58189,1.06773,1.18056,1.59024,1.78077a.99834.99834,0,0,1,.25752.45162c.04662.3002.55451.61342.10885.865-.1422.0803-.56518-.27608-.82121-.48079a2.29316,2.29316,0,0,1-.34009-.50914C41.85487,53.66943,40.712,53.47558,39.63228,53.16812Zm.37113,12.95332a2.01751,2.01751,0,0,1-1.50951.16723A2.16123,2.16123,0,0,1,36.60952,65.252a1.13145,1.13145,0,0,1-.15594-.39963,1.4351,1.4351,0,0,1,.08934-.41558c.08818.08818.23023.163.25589.26666.187.75538.83255.96124,1.42892,1.2304.7177,0,1.24765-.00178,1.7775.00269a.52492.52492,0,0,1,.16161.05872C40.1124,66.03739,40.05905,66.081,40.00341,66.12144Zm-1.19263-1.11771a1.52043,1.52043,0,0,1-1.428-1.2292,2.15052,2.15052,0,0,1,.57584-2.03263.72965.72965,0,0,1,.99017.02893c.23422.1828.47022.36507.7177.52884a2.80024,2.80024,0,0,0,3.28639-.19866c.65643-.5742,1.53579-1.06523,1.58749-2.145.00683-.14287.301-.30774.493-.392.10856-.04767.28011.04825.42332.07948-.044.10668-.07978.2176-.13321.31928-.35023.667-.729,1.32036-1.05058,2.00082a4.39074,4.39074,0,0,1-1.71422,1.899A5.82186,5.82186,0,0,1,38.81078,65.00373Zm2.08409,5.2006c-.07583.02831-.22028.052-.24128.01822a1.31454,1.31454,0,0,1-.25469-.54226c-.03383-.52711-.01182-1.05778-.01182-1.58706a11.33207,11.33207,0,0,1,.5596,1.95411C40.95744,70.09607,40.92837,70.19179,40.89487,70.20433Zm.33716-4.08265a1.16416,1.16416,0,0,1-.43322-.13013c.10952-.10952.20063-.27334.33221-.31808.34753-.11822.7126-.18487,1.07071-.272-.21726.19674-.428.4015-.65518.586A1.23193,1.23193,0,0,1,41.232,66.12168Zm5.15433-2.23763a11.75225,11.75225,0,0,1-1.98366,3.39513,5.30456,5.30456,0,0,1-2.40578,1.85016c-.12283.04051-.18415.35354-.31793-.05314a2.12934,2.12934,0,0,1,.28607-1.98766c.79565-.76863,1.61474-1.51353,2.43615-2.25483a7.69314,7.69314,0,0,0,2.18222-3.31238c0-.59367-.01086-1,.006-1.40523a.801.801,0,0,1,.133-.40842c.0581-.0827.19895-.1074.30289-.15791.04047.10275.12211.20856.11476.30775a18.23181,18.23181,0,0,1-.19438,2.01273A12.52237,12.52237,0,0,1,46.38636,63.88405ZM49.588,68.8649a3.56428,3.56428,0,0,1-.34965.50856c-.73485.73856-1.20868.70886-1.72431-.18559-.24594-.42668-.62437-.91054-.19106-1.4587-.1126-1.49033.72212-2.79714.80127-4.27257.05809-1.083-.17367-2.14662-.04205-3.21959a.34958.34958,0,0,0-.04585-.25719c-.79194-.75048.15373-.40924.29131-.41452.87292-.03369.90257-.01394.874.85667-.01447.44278.137.8969-.15368,1.34319-.11327.174.039.52082.07025.78887.00659.87345.55129,1.46966.69964,2.18756C50.10788,66.14479,50.508,67.53589,49.588,68.8649Zm5.96872-.85817a.75515.75515,0,0,1,.38756.18545,4.34268,4.34268,0,0,1,.40309.41745c-.13994.09294-.27478.19491-.42063.27732a2.27708,2.27708,0,0,1-2.09769.25859,3.30813,3.30813,0,0,1-1.591-1.6591,15.04714,15.04714,0,0,1-.45522-1.49581,5.07834,5.07834,0,0,1-.33576-1.55515,22.34985,22.34985,0,0,0-.4447-2.249c-.15311-.717-.32577-1.43-.46359-2.14974a.3634.3634,0,0,1,.213-.2855,1.705,1.705,0,0,1,.65133-.00115.3782.3782,0,0,1,.23869.26473,9.27049,9.27049,0,0,1,.00985,1.03069,4.02532,4.02532,0,0,0,.51991,2.319,1.82777,1.82777,0,0,1,.13878.50391,4.11556,4.11556,0,0,1,.22932.60059c.21274.537.41,1.083.66561,1.59956A2.80885,2.80885,0,0,0,55.55674,68.00673ZM57.54242,63.295a1.31821,1.31821,0,0,0,1.16139-.3558c.41366-.34518.57474-.28728.83251.17122.084.1495.11144.33138.19837.47858.44643.75609.38026.97667-.42491,1.4069a3.5207,3.5207,0,0,1-2.99978.082,3.27933,3.27933,0,0,1-1.74641-1.585,4.50145,4.50145,0,0,1-1.054-1.85478,6.39758,6.39758,0,0,0-.55445-1.26361.6702.6702,0,0,1-.0125-.315,12.47088,12.47088,0,0,1,1.25563-.10562,1.07713,1.07713,0,0,1,.0791.41447,2.59881,2.59881,0,0,0,.357,1.35568C55.28835,62.90036,56.43687,63.04342,57.54242,63.295Zm-1.92609-5.00479a3.43672,3.43672,0,0,1-1.19744.48574,13.44475,13.44475,0,0,1-3.08878-.01643c-.87244-.14652-1.72878-.03186-2.59108-.12581a26.09427,26.09427,0,0,0-2.8128-.02283c-1.31925.06257-2.45027.13874-3.58259.17733a2.13708,2.13708,0,0,1-.76384-.18444,2.28246,2.28246,0,0,1-.43643-.27973,1.57461,1.57461,0,0,0,.45176.07636.38942.38942,0,0,0,.28415-.20678,1.47939,1.47939,0,0,1,1.57544-1.27989c.5076-.02249,1.01184-.16517,1.51791-.1668.4744-.00154.94779.1483,1.424.16579.81218.02984,1.62724.03243,2.43937.00086.69487-.027,1.38638-.14546,2.08126-.16949.38482-.01326.82116.21731,1.14885.09976.45335-.16257.67094.07089.99344.23567a1.22773,1.22773,0,0,0,.73534.02124,1.76615,1.76615,0,0,1,1.94.82078A.395.395,0,0,1,55.61633,58.29025Zm1.8528-2.62178c-.11379.14359-.24551.273-.37069.40755-.20308.32832-.30232.56835-.43.79224-.025.044-.15987.02835-.24431.02989a.27391.27391,0,0,1-.01994-.12576c.08506-.58829.54639-.91151.92227-1.29345a.13179.13179,0,0,1,.123.01744C57.47327,55.54776,57.49566,55.635,57.46913,55.66847Zm4.67648,2.30784a4.73454,4.73454,0,0,1-.533-.57728,2.63823,2.63823,0,0,1-.3744-.78027c-.18193-.70555-.778-1.069-1.21867-1.56064a2.3703,2.3703,0,0,0-.29237-.23931,1.29652,1.29652,0,0,1,.46618-.14167,2.04858,2.04858,0,0,1,1.78818,1.62532c.02306.08318.06146.16209.09279.243a1.46315,1.46315,0,0,1,.26743.67244A3.65677,3.65677,0,0,1,62.14561,57.97631Zm2.65475-1.16846a9.57854,9.57854,0,0,1-1.18278.99186.356.356,0,0,1-.3102-.11591c-.14762-.53615-.2617-1.08148-.38838-1.62344a2.7718,2.7718,0,0,0-1.94767-2.19174,7.55548,7.55548,0,0,0-2.582-.313,2.26711,2.26711,0,0,0-.7276.26718,22.31667,22.31667,0,0,0-2.03523,2.09827.50683.50683,0,0,1-.724.18309.41214.41214,0,0,1-.14979-.6868,11.83558,11.83558,0,0,1,4.04637-3.32473,10.32769,10.32769,0,0,1,2-.60741,3.05416,3.05416,0,0,1,2.83948,1.03212,11.6148,11.6148,0,0,1,1.602,1.95228A2.38221,2.38221,0,0,1,64.80036,56.80785Zm11.639-16.06007c-.01172-.15353.03768-.334-.02657-.45758a3.21306,3.21306,0,0,1-.11755-2.17674A7.1,7.1,0,0,0,76.081,34.672a8.311,8.311,0,0,0-2.61582-3.88188,4.06643,4.06643,0,0,0-1.38831-.704.64842.64842,0,0,0-.23845-.03763,1.5812,1.5812,0,0,0-.84927-.44066.399.399,0,0,0-.15863.00389.4119.4119,0,0,0-.17257-.09649,3.11633,3.11633,0,0,0-.655-.00841,7.332,7.332,0,0,1-1.86885-.02936c-.94693-.2582-1.91125-.14263-2.86019-.32077a28.95217,28.95217,0,0,0-3.313-.00961c-1.753-.12192-3.513-.18982-5.27014-.19126-2.22668-.00183-4.452.03037-6.681.1296-2.84346.12663-5.70177-.07943-8.55369-.14152-.12509-.00274-.28963.05142-.36892-.00884a1.71544,1.71544,0,0,0-1.51517-.14441,10.06905,10.06905,0,0,1-2.6523.13946c-1.22569-.01408-2.44859-.00038-3.68154-.11692-.98484-.09308-2.01389-.47473-3.03443-.06939-.14018.05565-.3447-.05065-.56638-.12888a.71992.71992,0,0,0-.41995-.04066,1.526,1.526,0,0,1-1.447.00168c-.09169-.05535-.24633-.01787-.37041-.00629-.60588.05661-1.21209.1125-1.81605.18559l-.01235.00125c-.02119.00259-.04257.00389-.06377.00653a.44073.44073,0,0,0-.0531.01346c-.0135.00254-.0284.00437-.04142.00711a1.862,1.862,0,0,0-1.13395.84558.37915.37915,0,0,0-.16762.05785,1.41888,1.41888,0,0,0-.28078.22884.667.667,0,0,0-.1075.063,8.56027,8.56027,0,0,0-2.60828,3.12675c-.1582.43629-.25868.8932-.404,1.33463a14.25275,14.25275,0,0,0-.58642,3.50518c-.07713,1.12088.03648,2.25445-.03176,3.37648-.06564,1.07865.36036,2.14556.02917,3.22824-.05152.16839.09385.39175.12773.59314.03013.17915.11062.41409.03186.53567a2.38044,2.38044,0,0,0-.16834,1.33934c-.02244.53087-.00524,1.06341-.00524,1.59524a8.07506,8.07506,0,0,0,.02307,1.59071c.1026.5016-.24249,1.01368-.00163,1.43228.30548.531-.14186.95779-.03888,1.45583a10.89668,10.89668,0,0,1,.1952,1.98352,9.19257,9.19257,0,0,1,.03421,2.478,15.23288,15.23288,0,0,0-.03964,1.68145,2.89927,2.89927,0,0,0,.01081,1.53756.37906.37906,0,0,1-.00067.27709,1.33937,1.33937,0,0,0-.06334,1.18912,3.944,3.944,0,0,1,.05075,1.13861c.0592.84784.14085,1.694.20438,2.54158.06833.91218.11888,1.82571.196,2.73707a1.08816,1.08816,0,0,0,.155.424.3545.3545,0,0,0,.03316.23345,1.21519,1.21519,0,0,1,.07381.19875c-.00115.02927.00034.05849-.00077.08785a.31616.31616,0,0,0-.029.30121c.04185.14426.11557.51649.14.669a11.52352,11.52352,0,0,0,.39823,2.18141,4.03484,4.03484,0,0,0,1.38086,2.25046c.661.447,1.49019.46383,2.0545.92386a3.96176,3.96176,0,0,0,2.34849.673c1.52853.13979,3.08066-.029,4.70492.22514,2.13143-.10327,4.16824.11831,6.21476-.155a41.55385,41.55385,0,0,1,5.07936-.21226c3.00272-.02955,6.006-.00831,9.009-.00831a1.69444,1.69444,0,0,1,.65057.01379c.43691.20116.83611-.07362,1.25981-.02566a4.82384,4.82384,0,0,0,1.40368-.00241A11.43079,11.43079,0,0,1,58.6101,76.242c1.65747.13441,3.32454.17252,4.9884.19957,1.93892.03158,3.8789-.00514,5.81816.01476a3.96467,3.96467,0,0,1,1.808.16213,1.15341,1.15341,0,0,0,.70281-.0777,5.494,5.494,0,0,0,2.6226-1.946,11.73758,11.73758,0,0,0,1.52334-2.5545,5.71235,5.71235,0,0,0,.54466-2.68046c-.01038-.3199-.16373-.63563-.17084-.955-.02316-1.03179-.01788-2.06454-.0026-3.09657a7.99376,7.99376,0,0,0,.115-.83673c-.07343-.74115-.22792-1.47418-.30212-2.21529a9.71653,9.71653,0,0,0-.18718-2.64581.7913.7913,0,0,1-.00153-.46483,14.29956,14.29956,0,0,0,.36224-2.94347,13.822,13.822,0,0,1,.03325-1.77722,11.78127,11.78127,0,0,0-.02187-1.63247c.04566-.601.17334-1.19955.17531-1.79942C76.629,47.57692,76.70021,44.15925,76.43932,40.74778ZM72.46138,75.23627a1.47633,1.47633,0,0,1-.91257.25877c-.85095-.01936-1.7023-.18174-2.54984-.15786a26.91558,26.91558,0,0,0-5.27274.16844.68115.68115,0,0,1-.46109-.00611c-.51678-.34984-1.08258-.10384-1.61883-.17525a10.16447,10.16447,0,0,0-1.61075-.17661,29.192,29.192,0,0,0-3.68226.13682,39.08957,39.08957,0,0,1-4.421.22465c-1.616.06348-3.22276-.13912-4.83443-.17718-1.78207-.04214-3.56587-.00965-5.349-.00965a1.42311,1.42311,0,0,0-.55792.01076,5.34869,5.34869,0,0,1-1.99188.17742c-.69372.06064-1.38773.18386-2.08059.17689-2.63351-.02648-5.2651.05488-7.90192-.139a12.22778,12.22778,0,0,1-4.562-.79762,4.22768,4.22768,0,0,1-1.50825-.9463,5.29892,5.29892,0,0,1-.77085-1.82431c-.18929-.64893-.37094-1.53925-.5349-2.19722a.43159.43159,0,0,0-.0976-.16747,1.8769,1.8769,0,0,0-.02653-.20736c.0025-.08832.00582-.17684.005-.2644a1.034,1.034,0,0,0-.047-.29352,1.62049,1.62049,0,0,0,.09644-.89036,9.22983,9.22983,0,0,1-.15973-2.27656,1.39273,1.39273,0,0,0-.00625-.37348,7.5765,7.5765,0,0,1-.37016-2.75571,48.58293,48.58293,0,0,1,.16088-5.55809,11.24639,11.24639,0,0,0-.12311-2.54845c-.16185-2.21865.05891-4.45239-.20376-6.67921a10.47937,10.47937,0,0,1,.133-2.74,23.23373,23.23373,0,0,0-.13148-3.14015,44.23823,44.23823,0,0,1,.108-4.62131,24.8734,24.8734,0,0,1,.83592-3.52291A5.13351,5.13351,0,0,1,22.94,32.16569c.13643-.18809.44715-.24974.67839-.369-.11667.15483-.23931.30563-.34777.46608-.06435.09525-.09582.21264-.15988.30818a7.11565,7.11565,0,0,0-.93366,3.46034c-.03407.36877-.01023.74269-.03964,1.11219-.0358.449-.24816.94625-.11707,1.33184a4.94216,4.94216,0,0,1,.14071,1.71705c-.00471.53769-.16718,1.075-.16175,1.61148.007.69415.17333,1.38855.15954,2.08059a11.27075,11.27075,0,0,1-.15282,3.02544,9.464,9.464,0,0,0,.00961,2.0926c-.16213,2.94145.12812,5.89236-.19726,8.83852a17.531,17.531,0,0,0,.33,3.88058c.17031,1.49466.14133,3.01146.21625,4.5178.04387.88224.10082,1.76491.19222,2.64321a9.27438,9.27438,0,0,0,.29357,1.5664,7.2673,7.2673,0,0,0,1.21785,2.22639c.69171.9636,1.73258,1.10248,2.66989,1.50383a.46386.46386,0,0,0,.25791.00865.37675.37675,0,0,0,.05945.01687,10.24212,10.24212,0,0,0,1.26735.12278c.095-.0036.18809-.00889.282-.01374a.34587.34587,0,0,0,.24321.08255c.47555.00913.94813.15378,1.42406.16776,2.10106.0618,4.20111-.04224,6.30587.16522a31.55685,31.55685,0,0,0,4.45705-.12451c2.81656-.12408,5.64248.02282,8.46076-.21106.80771-.067,1.6256-.01028,2.53278-.01028,2.127,0,4.16017.00216,6.19333-.00279.24148-.00058.48286-.03945.72419-.06127a3.42322,3.42322,0,0,1,1.34285-.08713,4.02143,4.02143,0,0,0,1.43713.14383c1.814.01831,3.6283.00736,5.44247.00736a1.9238,1.9238,0,0,1,.56061.00759,12.78271,12.78271,0,0,0,3.58485.16228,1.5285,1.5285,0,0,0,1.04731-.32351.36694.36694,0,0,0,.07636.01471,2.84023,2.84023,0,0,0,1.32694-.36969A8.88447,8.88447,0,0,1,72.46138,75.23627ZM75.5949,48.86566a4.37855,4.37855,0,0,1,.05915,1.77165,9.70087,9.70087,0,0,0-.14738,2.27747c-.02931.90622-.00692,1.81412-.00692,2.72125a1.96433,1.96433,0,0,1-.00759.56071,11.878,11.878,0,0,0-.34422,2.94495,14.82487,14.82487,0,0,0,.33119,4.63471,6.41139,6.41139,0,0,1,.02062,1.5899c0,.56306.024,1.12747-.00745,1.68875-.02561.45609-.123.90786-.17737,1.36284a1.01174,1.01174,0,0,0,.00452.46584,3.37093,3.37093,0,0,1-.18079,2.5906c-.0122.03153-.029.05954-.04142.09082a.36925.36925,0,0,0-.149.10174c-.16959.18861-.3175.39679-.47382.59559a3.02158,3.02158,0,0,1-.59319.556,2.33807,2.33807,0,0,1-1.44343.6449.35717.35717,0,0,0-.29165.1408,7.29186,7.29186,0,0,1-1.3797.20164c-1.19465-.01812-2.38853-.1039-3.58192-.176a7.68606,7.68606,0,0,1-2.09107-.15377c-.352-.1174-.83789.208-1.21911.12657-.44465-.095-.81828-.26079-1.26961.0112-.17982.10841-.48752.0285-.7326-.00154a5.90876,5.90876,0,0,0-.8671-.15767c-1.25717.043-2.51111.01754-3.77434.12639a19.48091,19.48091,0,0,1-4.4286-.08943,8.99273,8.99273,0,0,0-3.30109.109,13.37591,13.37591,0,0,1-2.91761.21105c-3.65953.02148-7.31925.0137-10.97883.00044a4.27793,4.27793,0,0,1-1.04678-.1854c-.36157-.09476-.69584.07011-1.0686.03393-1.37476-.1334-2.761-.144-4.14181-.22149a.67767.67767,0,0,0-.35042.07439c-.22341.00956-.44638.02263-.674.03292a9.84822,9.84822,0,0,1-1.26735-.12278.34479.34479,0,0,0-.0507.00634.52748.52748,0,0,0-.10116-.04642c-.11129-.02576-.21158-.10188-.32307-.12369a3.29211,3.29211,0,0,1-1.98746-1.07692,2.914,2.914,0,0,1-.93433-2.05656,6.183,6.183,0,0,0-.17651-1.51556,32.271,32.271,0,0,1-.36844-3.975c-.0704-1.03717-.12677-2.0753-.18909-3.113-.00188-.03119.01071-.068-.00183-.093-.48564-.96788.11355-2.0692-.37392-3.03612.42212-.57358-.1704-1.25121.18776-1.83137.05141-3.54055-.12447-7.08374.17112-10.62246a7.81739,7.81739,0,0,0-.1286-2.276,4.491,4.491,0,0,1,.0941-1.896,11.1693,11.1693,0,0,0-.08843-2.36589c.00207-.87624.11519-1.7518.13187-2.62861a11.06181,11.06181,0,0,1,.33879-2.29544,2.98758,2.98758,0,0,1,.69372-1.41393,1.01452,1.01452,0,0,0,.02551-1.45082c-.26031-.3448.00274-.46013.16834-.58752.32447-.24965.70838-.42337,1.02612-.67993a.405.405,0,0,0,.14935-.26806c.03994-.01148.07949-.02244.12-.03512a1.555,1.555,0,0,0,.78622-.44634c.13883.0124.27747.02807.4164.03412a5.44934,5.44934,0,0,0,.69555-.12014c1.07359-.09952,2.14743.29674,3.22372.001a.9191.9191,0,0,1,.37377-.00178,29.19621,29.19621,0,0,0,4.34926.37863,2.18848,2.18848,0,0,1,1.33877.169c.0777.05233.26863-.08857.41106-.10313a13.27931,13.27931,0,0,1,2.7041-.21384c.63241.068,1.2638.11355,1.89789.14138a57.67363,57.67363,0,0,1,6.40025.16982c.90026.13965,1.82849-.13191,2.75307.00216.3027.04393.63379-.16228.95206-.16271,3.29086-.00447,6.58354-.08241,9.8692.18381a3.92077,3.92077,0,0,1,.41375.1285,1.39093,1.39093,0,0,0,.44033.03479,6.27209,6.27209,0,0,1,.96105-.157c1.00733.03378,2.01235.14719,3.01958.16853a18.30741,18.30741,0,0,1,3.411.38073.91722.91722,0,0,0,.52951-.04848c.25018.0641.49425.13777.7487.19649a1.1925,1.1925,0,0,1,.27166.11264.63867.63867,0,0,0,.42961.28223,2.91078,2.91078,0,0,1,1.97645,1.57231,12.84763,12.84763,0,0,0,.69954,1.11685,4.25609,4.25609,0,0,1,.80256,2.485c.05714,2.44542.12346,4.8907.18545,7.336.00317.12508-.04311.27218.00716.372.48545.96389.1024,1.98265.123,2.962A12.22343,12.22343,0,0,0,75.5949,48.86566ZM16.15175,12.15843a.5104.5104,0,0,1,.31687-.085,12.44887,12.44887,0,0,0,2.10707.3249c2.00778-.05224,4.02691.25224,6.02508-.16089a1.13609,1.13609,0,0,1,.35129.05017c.32581.045.71457.22187.9647.10442a3.52633,3.52633,0,0,1,1.53118-.15291c.9067-.0247,1.81455-.007,2.72193-.007a22.41236,22.41236,0,0,1,2.81256.02643,21.14249,21.14249,0,0,0,2.57012-.05652,9.46371,9.46371,0,0,0,1.91942.08775c1.37956-.24325,2.82813.08021,4.2298-.24542a17.04921,17.04921,0,0,0,3.86463.18679c.1247.00721.25027.00241.3754.00058a1.18716,1.18716,0,0,0,.36911-.01552,3.92184,3.92184,0,0,1,2.4016-.02773,2.77453,2.77453,0,0,0,.92155.03628c.38343-.032.76018-.14974,1.14347-.17492,1.73074-.11379,3.46063.1656,5.19508.00231a27.35941,27.35941,0,0,0,3.58874-.16656,7.5036,7.5036,0,0,1,1.60538.15051c2.04046.02994,4.08188-.04378,6.11937.17612a.65885.65885,0,0,1,.64384.44235c.1742.49381.40928.44268.76321.0939a.72007.72007,0,0,1,.95855-.499A7.59745,7.59745,0,0,0,72.225,12.275a13.51091,13.51091,0,0,1,4.2409.13581,1.58135,1.58135,0,0,0,.23552.03392.35714.35714,0,0,0,.16627.03335.82211.82211,0,0,0,.10347-.01691l.00038.003c.02095-.00591.04162-.00841.06252-.01327.01091-.00274.02215-.00384.03292-.007a1.138,1.138,0,0,0,.69761-.26642.83562.83562,0,0,0,.1397-.89541,2.428,2.428,0,0,0-1.26077-1.22136c-.05161-.04671-.1151-.09126-.16507-.13393-.83164-.70968-1.66266-1.42017-2.49963-2.1236a14.33829,14.33829,0,0,0-1.47836-1.19383c-1.50638-.95553-3.04765-1.85588-4.56672-2.79166-.19683-.12124-.35633-.21826-.5028-.305a3.29775,3.29775,0,0,0-2.84841-1.00214c-1.70114-.00015-3.40974-.05935-5.1093-.10668-3.64358-.10145-7.29681-.05253-10.94318-.05253-3.47207,0-6.94913-.10461-10.42077-.10615-2.99589-.0014-6.33268-.603-9.28643-.09222a.33116.33116,0,0,0-.24849.47949c-.055.01019-.1101.02-.16493.03134a15.07561,15.07561,0,0,1-2.46878,1.58576.38884.38884,0,0,1-.08707.02437c-.91723.66378-1.83955,1.31949-2.79075,1.93032-1.40291.90079-2.90651,1.64891-4.24508,2.6533a17.05543,17.05543,0,0,1-3.16269,2.11236.9.9,0,0,0-.20587,1.00348A.46753.46753,0,0,0,16.15175,12.15843ZM29.6725,11.05754a.38494.38494,0,0,1-.276.22523c-.49463.023-.991.01773-1.48634.00437a.8653.8653,0,0,1-.29131-.12946c.0532-.10187.08184-.24037.1656-.29669a.83614.83614,0,0,1,.40842-.12542c.33994-.01711.68127-.00558,1.022-.00558C29.68566,10.67935,29.72843,10.86537,29.6725,11.05754Zm2.67243-.2497a1.21422,1.21422,0,0,1-1.20776.48324,2.422,2.422,0,0,1-.31957-.09836,2.15462,2.15462,0,0,1,.26728-.26094,3.25213,3.25213,0,0,1,.38319-.20179c.68551-.6855,1.25823-1.29825,1.88092-1.85506.17348-.15512.49463-.146.74855-.21005.25441-.06415.50775-.13527.76538-.18208.076-.01384.16521.04435.24834.06954-.0319.04411-.0543.111-.09711.129a7.70766,7.70766,0,0,0-1.91168,1.48476A6.07023,6.07023,0,0,0,32.34493,10.80784Zm6.40458.12519a1.89533,1.89533,0,0,1-.97244.3373c-.18136.01888-.38723-.19746-.58205-.30765.14033-.124.272-.25979.42246-.36993.67036-.49074,1.34832-.971,2.01787-1.46284a.9731.9731,0,0,0,.31942-.33528c.033-.07156-.06612-.2952-.12705-.30414a1.49313,1.49313,0,0,0-1.17927.30779c-.96817.74375-1.95579,1.46207-2.934,2.1928a1.42222,1.42222,0,0,1-1.093.29606.24805.24805,0,0,1-.1693-.15545c-.0432-.25878-.1508-.35426-.33932-.20352-.21759.174-.42845.28521-.62836.08333-.03926-.03969.17285-.41567.33811-.554.4794-.40106.994-.76018,1.4947-1.13578a2.56422,2.56422,0,0,1,2.14652-1.00319c1.33632-.16627,2.69474-.15661,4.04422-.21389a1.67437,1.67437,0,0,1,.34926.05857,2.6603,2.6603,0,0,1-.27757.31054c-.20634.17083-.44052.30923-.63937.48756C40.20875,9.61752,39.508,10.31019,38.74951,10.933Zm4.638.10855a1.08976,1.08976,0,0,1-.8411.25172,4.20478,4.20478,0,0,0-2.47637-.01048c-.11341.04618-.28415-.0483-.42841-.07771.113-.09582.22341-.19476.33931-.28679.494-.39213.99253-.77849,1.4837-1.17413q.56549-.45547,1.11579-.92976c.20452-.17728.13893-.4103-.1137-.53125-.084-.04022-.13561-.1483-.202-.22533.064-.04815.12609-.13427.19246-.13777a3.56147,3.56147,0,0,1,.84125.00571c.43052.082.4669.267.1495.587-.50655.51092-1.01142,1.02362-1.52805,1.52421-.2262.21918-.38709.50463-.0939.68752a2.38862,2.38862,0,0,0,.93683.15825.21668.21668,0,0,0,.06088-.15219c-.12686-.54341.30679-.77647.60679-1.062a6.198,6.198,0,0,1,1.461-1.22852,4.63481,4.63481,0,0,1,1.61672-.13244c-.0383.08847-.0532.20433-.119.2607-.29664.25406-.61034.48809-.91309.73524C44.77426,9.87663,44.049,10.425,43.38753,11.04158Zm3.04722.11269a1.28563,1.28563,0,0,1-.31442.139c-.0334-.07829-.11832-.19122-.09246-.22961.3929-.584-.20837-.35345-.29347-.30352-.3053.1792-.56811.43423-.96668.31347.263-.24177.53533-.47431.78705-.72727a4.236,4.236,0,0,1,1.49806-1.11853c.511-.449.94135-.842,1.4936-.36608.22177.19107.316-.40606.47334-.03436.141.33322-.17636.35061-.35412.49132C47.91066,9.91614,47.18023,10.54455,46.43475,11.15427Zm1.65107-.05353c-.039.01533-.10509-.03816-.15853-.05964a.92288.92288,0,0,1,.14142-.19616c.51169-.41711,1.0278-.8289,1.54339-1.24121.09293-.07434.22086-.12441.27982-.2187.43125-.68968,1.11492-.53014,1.74766-.52255.06795.00077.13427.14181.20135.21779l-.28165.14757c-.59362.46844-1.09584.83986-1.59249,1.21849A6.94855,6.94855,0,0,1,48.08582,11.10074Zm4.13485-.00149c-.55216-.007-1.10407-.0308-1.656-.05228a.09063.09063,0,0,1-.00807-.06209.33162.33162,0,0,1,.06381-.06713c.98076-.73039,1.866-1.36909,2.7561-2.00106a1.05461,1.05461,0,0,1,.45561-.23927,4.69642,4.69642,0,0,1,.80713.06286,3.47046,3.47046,0,0,1-.43091.642c-.57272.54553-1.17263,1.0626-1.76506,1.58726C52.3792,11.0263,52.29481,11.10021,52.22067,11.09925Zm3.15312-.81578a6.37309,6.37309,0,0,1-1.13948.6202c-.13556.0579-.34114-.04787-.51476-.07881.11571-.09424.22792-.19314.34777-.28175.37993-.281.77143-.54744,1.13881-.8438.1024-.08256.13686-.2494.20241-.37757.43009-.6891,1.01944-.63216,1.56947-.64542.08852-.00217.18074.15132.27123.23292a1.76841,1.76841,0,0,0-.24345.13244C56.46157,9.45553,55.934,9.89283,55.37379,10.28347Zm2.11058.30188a2.62315,2.62315,0,0,1-1.35025.30726c-.35147-.00038.02537-.16185.02552-.25651a7.23833,7.23833,0,0,0,1.9926-1.60278,1.57683,1.57683,0,0,1,.68781-.34994c.13109-.02936.30548.13475.46036.21154a1.78343,1.78343,0,0,1-.23037.32673A12.33433,12.33433,0,0,1,57.48437,10.58535Zm1.46592.25344c-.0953.03628-.23211-.03642-.3497-.05858a2.16323,2.16323,0,0,1,.19015-.23648c.46638-.441.93683-.87772,1.4059-1.31589.40184-.5532.8745-.32355,1.27961-.36238.03013-.00283.13926.222.10649.27175a1.59563,1.59563,0,0,1-.38531.39852A9.62365,9.62365,0,0,1,58.95029,10.83879Zm6.72716-.92626a13.34348,13.34348,0,0,1-1.43251,1.06327c-.10746.06871-.344-.036-.5028-.1038a.82516.82516,0,0,1,.069-.36753c.03243-.0801.15574-.124.1864-.20409a4.19248,4.19248,0,0,0,.13114-.50924c-.27506-.03411-.6152-.1863-.81179-.078a7.32423,7.32423,0,0,0-1.12886.90593c-.11874.101-.21452.22932-.33465.32827-.25205.20755-1.21748.17271-1.16125.0555a2.15666,2.15666,0,0,1,.57642-.59007c.38857-.3384.787-.66541,1.18133-.99714.274-.1878.46441-.37752.63236-.35935.82784.08952,1.65213.22158,2.46964.38016C65.62743,9.45116,65.73555,9.86332,65.67745,9.91253Zm1.36318-4.82289c.03705-.45172.10327-.4707.47752-.20645.51962.367,1.11892.61881,1.66794.947a13.94861,13.94861,0,0,1,2.54168,1.58077c.70766.65917,1.47274,1.25818,2.22845,1.86382.52693.42226,1.0686.826,1.611,1.22819a.33367.33367,0,0,0,.11091.31764c.20841.19332.40111.4076.62322.58291.01519.012.02643.02441.04056.03647-1.16038-.04474-2.32057-.09923-3.4811-.142a4.4456,4.4456,0,0,0-.72025.06964c-.79939.10279-1.633.42994-2.28939-.36738a.24022.24022,0,0,0-.15228-.07949c-1.03573-.0667-1.51743-1.09877-2.42524-1.40282-.12187-.0408-.206-.35565-.21351-.5473A11.565,11.565,0,0,1,67.069,7.00237C67.15515,6.35449,66.98825,5.7292,67.04063,5.08964Zm.76061,5.922a.3824.3824,0,0,0,.174.20154l-.174-.01375a9.95853,9.95853,0,0,0-1.48835.086,1.13111,1.13111,0,0,1-.38935-.11749,1.4701,1.4701,0,0,1,.15282-.3039C66.6769,10.14512,66.9227,10.16809,67.80124,11.01165Zm-30.54562-7.998a4.36464,4.36464,0,0,0,1.23655.01822c2.96572.016,5.9372.10951,8.90147.10062,3.29133-.0099,6.58358.05383,9.8715.05363l.07074.00077c.0359.00226.07189.00346.10779.00577.05752-.00019.11485-.00226.17237-.00264,1.09671.00413,2.19116.02335,3.28643.03637.85519-.02945,1.70783-.04142,2.5511-.00937a6.46677,6.46677,0,0,1,2.62255.39348.91949.91949,0,0,1,.1754.41524,2.11442,2.11442,0,0,1,.02047.24941.37506.37506,0,0,1-.05488.42336.65792.65792,0,0,1-.11759.21524.59938.59938,0,0,0,.02023.33316c.35484.86158-.12729,1.70908-.02186,2.56984.05963.4867-.10332.57647-.63471.47892a6.95835,6.95835,0,0,0-1.64324-.29434,11.14106,11.14106,0,0,1-1.326-.07694c-1.94282-.08775-3.887-.16406-5.83143-.1913-2.25084-.03153-4.50246-.0137-6.75374-.00491A16.3971,16.3971,0,0,1,46.10466,7.179c-.4447-.10389-.94519.04772-1.40076-.03061a18.5398,18.5398,0,0,0-2.47367.02186,15.87842,15.87842,0,0,0-2.62323.01495,9.53751,9.53751,0,0,0-2.97633.34965.3137.3137,0,0,1-.18578.00129,7.415,7.415,0,0,0-3.06615.14619c-.082.01528-.18915-.09-.28112-.145a1.121,1.121,0,0,0-1.45516.194c-.10384.09394-.2877.10711-.3767.20841-.28309.32231-.38574-.03484-.43744-.15012a1.45818,1.45818,0,0,1-.0174-.555c0-.813.0446-1.62911-.01317-2.438a18.28972,18.28972,0,0,0-.309-2.04215C32.70232,2.63187,35.0646,2.96008,37.25562,3.01361ZM31.43357,9.04745a1.3819,1.3819,0,0,1,.44979.03238,1.5354,1.5354,0,0,1-.22653.32678c-.27257.23307-.56272.44556-.84591.66618-.26675.20414-.43144.38464-.61462.40593a1.86985,1.86985,0,0,1-.6376-.15594c.06891-.11039.131-.22572.20789-.33028A2.81464,2.81464,0,0,1,31.43357,9.04745ZM17.52348,11.10362c1.05307-.78185,2.08126-1.5998,3.16317-2.33927.61914-.42312,1.33943-.695,1.98784-1.07936C23.682,7.08781,24.691,6.48765,25.655,5.82425c1.03112-.70962,2.01163-1.49282,3.01147-2.24758a2.73752,2.73752,0,0,0,.26675-.26353c.18232-.18232.26536-.27718.36032-.358a.78769.78769,0,0,1,.144-.1c.04757-.00644.09543-.01211.1432-.018.05988.027.09842.11033.10683.28074a13.25555,13.25555,0,0,1,.01528,1.62853A21.77485,21.77485,0,0,0,29.701,7.5587a.93975.93975,0,0,1-.43365.85716c-1.08171.85144-2.17074,1.69408-3.27355,2.51789a1.59027,1.59027,0,0,1-.78772.34369,16.284,16.284,0,0,0-2.55364.179,1.12068,1.12068,0,0,1-1.14558-.15425c-.06108-.06252-.25037-.03917-.36479-.00423-1.20142.367-2.39924-.21788-3.59965-.01009-.07449.01287-.16257-.05282-.24431-.08189A1.15,1.15,0,0,0,17.52348,11.10362Z"/></g></g></svg>