<svg xmlns="http://www.w3.org/2000/svg" viewBox="0 0 64.40649 98.41444"><title>garden-vase-5-iso</title><g id="Layer_2" data-name="Layer 2"><g id="garden-vase-5-iso"><path id="void" d="M64.39524,16.94445a17.17445,17.17445,0,0,1-.46,2.56c-.37,1.44-.86005,2.84-1.2,4.29-.24,1.00995-.27,2.08-.46,3.11a27.12139,27.12139,0,0,1-.67,2.8,37.86324,37.86324,0,0,0-.81,3.92c-.22,1.21-.56,2.4-.74,3.62a13.7399,13.7399,0,0,0-.54,3.19,5.58568,5.58568,0,0,1-.2,1.19c-.15,1.07-.22,2.16-.44,3.22-.41,1.97-.5,3.99-1.02,5.95a29.102,29.102,0,0,0-.46,3.75c-.12.9-.27,1.8-.42,2.69-.13.8-.26,1.59-.43,2.37994-.36,1.69-.5,3.43006-1,5.11005a21.22855,21.22855,0,0,0-.48,2.78c-.22,1.29-.43,2.58-.67,3.87-.19.98-.4,1.96-.61,2.93-.19.91-.41,1.82-.59,2.74-.11005.59-.16,1.2-.26,1.8-.16.93-.31,1.85-.5,2.76995-.24,1.21-.52,2.41-.77,3.61005-.3,1.41-.6,2.81-.85,4.22-.18,1.04-.26,2.09-.44,3.12-.26,1.55-.55,3.1-.86,4.64a.50028.50028,0,0,1-.18.22c.15.09.1.31-.02.85a4.31146,4.31146,0,0,1-2.17,0,10.65348,10.65348,0,0,0-2.2-.06c-1.7-.06-3.42-.04-5.1-.23-1.83-.21-3.66-.3-5.49-.44a72.05735,72.05735,0,0,0-7.48-.38c-1.58.03-3.16.1-4.73.22a21.32988,21.32988,0,0,0-2.52.41c-.35.06-.7-.51-1.04,0q-3.345.10491-6.71.2a.2106.2106,0,0,1-.11-.05.88.88,0,0,1-.5-.59,6.90032,6.90032,0,0,1-.21-1.19,16.04407,16.04407,0,0,0-.63-3.88,15.24726,15.24726,0,0,1-.23-1.92005c-.2-1.18994-.45-2.37994-.63-3.56994-.11-.74-.15-1.5-.22-2.25-.14-1.43006-.19-2.87-.45-4.28-.27-1.5-.46-3.01-.62-4.52-.16-1.41-.4-2.8-.64-4.2-.26-1.51-.58-3.02-.83-4.54a13.85485,13.85485,0,0,1-.21-2.14,19.71583,19.71583,0,0,0-.64-4.52c-.1-.39-.08-.82-.17-1.28a37.97482,37.97482,0,0,0-.67-4.58c-.2-.68005-.11-1.43005-.25-2.13a32.4671,32.4671,0,0,0-.6-3.79,8.42434,8.42434,0,0,1-.23-2.03,42.11269,42.11269,0,0,0-.84-5.7c-.15-.77-.14-1.57-.23-2.36-.14-1.1-.3-2.21-.46-3.31-.03-.19-.15-.37-.17-.57-.15-1.42-.27-2.86-.44-4.28-.19-1.62-.38995-3.23-.63995-4.84-.16-1.02-.41-2.02-.62-3.03a1.68409,1.68409,0,0,1-.01-.32,32.82146,32.82146,0,0,0-.62-5.13c-.02-.08.06994-.2.18-.3v-.01a.53215.53215,0,0,1,.13-.32c.56-.75994,1.05-1.56994,1.67-2.28,1.39-1.6,2.87-3.13,4.26-4.73a13.95746,13.95746,0,0,0,2-2.68,23.39046,23.39046,0,0,1,2.1-2.62,32.8271,32.8271,0,0,1,2.29-2.56995,1.37385,1.37385,0,0,0,.31-.72c.11-.7.12994-.74.82-.76h.43c1.12994,0,2.27-.01,3.4,0,6.38.07,12.77.11,19.15.25.84.02,1.66-.04,2.49-.04,2.69.01,5.38-.07,8.07.04a9.00979,9.00979,0,0,1,2.92.12c.97-.34,1.52-.22,1.84.61005a6.0636,6.0636,0,0,0,1.37,1.98c1.43,1.53,2.88,3.04,4.2,4.65,1.4,1.69,2.72,3.46,3.98,5.26a28.2605,28.2605,0,0,1,2.42,3.29C64.31528,16.24444,64.43528,16.49444,64.39524,16.94445Z" style="fill:#fff"/><path id="fill2" d="M64.39524,16.94445a17.17445,17.17445,0,0,1-.46,2.56c-.37,1.44-.86005,2.84-1.2,4.29-.24,1.00995-.27,2.08-.46,3.11a27.12139,27.12139,0,0,1-.67,2.8,37.86324,37.86324,0,0,0-.81,3.92c-.22,1.21-.56,2.4-.74,3.62a13.7399,13.7399,0,0,0-.54,3.19,5.58568,5.58568,0,0,1-.2,1.19c-.15,1.07-.22,2.16-.44,3.22-.41,1.97-.5,3.99-1.02,5.95a29.102,29.102,0,0,0-.46,3.75c-.12.9-.27,1.8-.42,2.69-.13.8-.26,1.59-.43,2.37994-.36,1.69-.5,3.43006-1,5.11005a21.22855,21.22855,0,0,0-.48,2.78c-.22,1.29-.43,2.58-.67,3.87-.19.98-.4,1.96-.61,2.93-.19.91-.41,1.82-.59,2.74-.11005.59-.16,1.2-.26,1.8-.16.93-.31,1.85-.5,2.76995-.24,1.21-.52,2.41-.77,3.61005-.3,1.41-.6,2.81-.85,4.22-.18,1.04-.26,2.09-.44,3.12-.26,1.55-.55,3.1-.86,4.64a.50028.50028,0,0,1-.18.22c.15.09.1.31-.02.85a4.31146,4.31146,0,0,1-2.17,0,10.65348,10.65348,0,0,0-2.2-.06c-1.7-.06-3.42-.04-5.1-.23-1.83-.21-3.66-.3-5.49-.44a72.05735,72.05735,0,0,0-7.48-.38c-1.58.03-3.16.1-4.73.22a21.32988,21.32988,0,0,0-2.52.41c-.35.06-.7-.51-1.04,0q-3.345.10491-6.71.2a.2106.2106,0,0,1-.11-.05.88.88,0,0,1-.5-.59,6.90032,6.90032,0,0,1-.21-1.19,16.04407,16.04407,0,0,0-.63-3.88,15.24726,15.24726,0,0,1-.23-1.92005c-.2-1.18994-.45-2.37994-.63-3.56994-.11-.74-.15-1.5-.22-2.25-.14-1.43006-.19-2.87-.45-4.28-.27-1.5-.46-3.01-.62-4.52-.16-1.41-.4-2.8-.64-4.2-.26-1.51-.58-3.02-.83-4.54a13.85485,13.85485,0,0,1-.21-2.14,19.71583,19.71583,0,0,0-.64-4.52c-.1-.39-.08-.82-.17-1.28a37.97482,37.97482,0,0,0-.67-4.58c-.2-.68005-.11-1.43005-.25-2.13a32.4671,32.4671,0,0,0-.6-3.79,8.42434,8.42434,0,0,1-.23-2.03,42.11269,42.11269,0,0,0-.84-5.7c-.15-.77-.14-1.57-.23-2.36-.14-1.1-.3-2.21-.46-3.31-.03-.19-.15-.37-.17-.57-.15-1.42-.27-2.86-.44-4.28-.19-1.62-.38995-3.23-.63995-4.84-.16-1.02-.41-2.02-.62-3.03a1.68409,1.68409,0,0,1-.01-.32,32.82146,32.82146,0,0,0-.62-5.13c-.02-.08.06994-.2.18-.3v-.01a.53215.53215,0,0,1,.13-.32c.56-.75994,1.05-1.56994,1.67-2.28,1.39-1.6,2.87-3.13,4.26-4.73a13.95746,13.95746,0,0,0,2-2.68,23.39046,23.39046,0,0,1,2.1-2.62,32.8271,32.8271,0,0,1,2.29-2.56995,1.37385,1.37385,0,0,0,.31-.72c.11-.7.12994-.74.82-.76h.43c1.12994,0,2.27-.01,3.4,0,6.38.07,12.77.11,19.15.25.84.02,1.66-.04,2.49-.04,2.69.01,5.38-.07,8.07.04a9.00979,9.00979,0,0,1,2.92.12c.97-.34,1.52-.22,1.84.61005a6.0636,6.0636,0,0,0,1.37,1.98c1.43,1.53,2.88,3.04,4.2,4.65,1.4,1.69,2.72,3.46,3.98,5.26a28.2605,28.2605,0,0,1,2.42,3.29C64.31528,16.24444,64.43528,16.49444,64.39524,16.94445Z" style="fill:#faf079"/><path id="fill1" d="M15.72464,3.40794a8.866,8.866,0,0,1,1.293,4.25445C17.007,8.74309,17.45908,9.10156,18.5,9.15661a7.48116,7.48116,0,0,0,1.50255.18092,37.92524,37.92524,0,0,1,4.06-.20469c1.009-.05991,2.00578-.32917,3.01463-.38482a2.521,2.521,0,0,1,1.73144.16583c.16948.11569.48261.022.72993.02227q.9034.001,1.8068.00021a12.55677,12.55677,0,0,1,1.90965.02214A9.40462,9.40462,0,0,0,34.88889,8.922c2.9824-.04094,5.96474-.19652,8.94591-.17173a28.19933,28.19933,0,0,1,5.13871.39609.594.594,0,0,0,.3163-.00247c.77694-.31713,1.18969.05386,1.68012.65443.97109,1.18919,2.0827,2.26335,3.13171,3.38926a2.95835,2.95835,0,0,0,2.89506.75368,7.30079,7.30079,0,0,1,1.99494.11322c.2261.02853.13752.68352-.12074.83347-.14131.082-.30127.21595-.441.20269-.79391-.07556-1.60846.02481-2.36987-.04911a7.0871,7.0871,0,0,0-3.0203.05492.92125.92125,0,0,1-.42254.00286,19.51051,19.51051,0,0,0-2.69424.01144c-1.65152-.04833-3.288-.21722-4.92772-.41215a16.97467,16.97467,0,0,0-2.97265-.00888c-1.03364.06017-2.0848-.24-3.1099.17879-.19288.0788-.50254-.18875-.75278-.17715-.53961.02507-1.07372.16324-1.61345.192-1.6702.089-3.35613.03577-5.01.24378-3.019.37957-6.04062.0387-9.05455.20222-1.18489.06427-2.36971.24751-3.54927.36206a6.83252,6.83252,0,0,1-3.31573-.145,2.40147,2.40147,0,0,0-.84274-.01833c-2.83419-.00029-5.66842-.00444-8.50259.004-.46788.0014-.86591.00991-1.03065-.58209-.15183-.54551-.336-1.03112.1366-1.52181Q7.23672,11.498,9.06165,9.53484c.63949-.68479,1.25816-1.38918,1.88-2.0902.477-.53772.95905-1.07213,1.41193-1.62989.46916-.57781.91571-1.17484,1.35332-1.77712.29363-.40414.48635-1.11021.84273-1.19753,1.09349-.26794,1.995-1.03935,3.24344-.95647,2.0105.13352,4.03673.01254,6.05557.04534a18.56224,18.56224,0,0,0,3.19974.16007,21.87312,21.87312,0,0,1,5.547-.11519c2.60135.23695,5.19.06705,7.78223.14343.53165.01568,1.11853.22273,1.61047-.19407.51.57635.99733-.12581,1.53147-.03727a14.90623,14.90623,0,0,0,1.60615-.16269,10.86127,10.86127,0,0,1,3.32028.17787c.37635.134.857-.0334,1.24094.08978a4.17614,4.17614,0,0,1,2.12812,1.49833,24.35141,24.35141,0,0,0,3.111,3.69352,26.76151,26.76151,0,0,1,2.25948,2.7923c.08353.10115.11416.26013.21307.33219.8119.59119,1.00286,1.57155,1.49156,2.36349a1.04618,1.04618,0,0,1,.18755.65089.74468.74468,0,0,1-.4155.48039c-.13434.04976-.38516-.0909-.52477-.214a.84842.84842,0,0,1-.29689-.50375,3.57689,3.57689,0,0,0-1.28055-2.13578c-.47248-.5255-.86228-1.12557-1.28542-1.6951a6.52862,6.52862,0,0,0-.53256-.73291,24.31946,24.31946,0,0,1-3.61015-4.24511,2.08845,2.08845,0,0,0-.60214-.59327c-.11717-.08008-.32487-.02772-.49163-.0352a3.4337,3.4337,0,0,0,.068.43728A6.028,6.028,0,0,1,50.152,6.32369a3.11516,3.11516,0,0,0-.00007,1.7473c.14545.31666-.08379.60874-.46373.64759-.38874.03969-.61422-.17522-.57295-.55631a12.58612,12.58612,0,0,1,.15293-2.15895,3.75035,3.75035,0,0,0-.216-2.53132,1.02324,1.02324,0,0,0-.95914-.70574,34.406,34.406,0,0,0-4.139.04991c-.90041.11727-1.80856.01467-2.67692.18826a26.838,26.838,0,0,1-5.44285.15981,13.782,13.782,0,0,1-2.79277-.00192,15.11912,15.11912,0,0,0-4.59005-.12015,16.17418,16.17418,0,0,1-3.52584.11431A69.45492,69.45492,0,0,0,17.462,3.00531a11.206,11.206,0,0,0-1.68419.34947.58957.58957,0,0,0-.25021-.06873l.19706.12189m.21263,3.5084a4.14776,4.14776,0,0,0-.76337-2.44608c-.149-.26174-.35808-.43424-.52895.08646A8.36805,8.36805,0,0,1,12.8491,6.9934C11.99856,8.05292,11.01676,9.00745,10.086,10.002c-1.12442,1.20145-2.25855,2.39389-3.37794,3.6a2.286,2.286,0,0,0-.43667.66748c-.03213.078.186.36758.23467.35458a19.90612,19.90612,0,0,1,4.18438-.14927,1.35654,1.35654,0,0,0,1.10968-.4256c.43105-.50648.93343-.95224,1.40521-1.424.92286-.92284,1.794-1.90854,2.79712-2.7338a.76721.76721,0,0,0,.34864-.81047c-.10442-.656-.272-1.30187-.41377-2.16454m32.85139,6.48523c-.107-.001-.12231-.395-.33138-.03453-.34584.59631-.55133.59053-.923.04434a2.29191,2.29191,0,0,1-.13419-.47292c-.0184-.04893-.11233-.06943-.17175-.10294a2.63022,2.63022,0,0,0-.21574.84946c.00983.13105.3517.33618.54569.339,1.76653.02635,3.53358.01687,5.3005.01135a.9564.9564,0,0,0,.27832-.09178c-.068-.075-.14114-.146-.20328-.22551-.75039-.96091-1.49329-1.92779-2.25666-2.87827-.08433-.105-.28312-.11805-.42881-.17375-.02588.166-.13207.38555-.06339.48844a6.939,6.939,0,0,0,.89078,1.11312.94091.94091,0,0,1,.3672.91154,1.188,1.188,0,0,1-.1514.41462,2.81361,2.81361,0,0,1-.692-.20583c-.074-.03214-.1045-.16223-.15734-.246-.12392-.19625-.24931-.39152-.3741-.5872a5.40053,5.40053,0,0,0-.318.60277c-.16576.43336-.41431.61311-.96151.244M32.3098,10.31842c.02791-.288-.27011-.44553-.32646-.26384a2.60579,2.60579,0,0,0-.25051,1.43562,10.05094,10.05094,0,0,1,.02814,2.34234c-.00365.12749-.15554.25078-.23889.376.16676.004.33359.00615.50026.01248a4.08406,4.08406,0,0,0,.68591.02266,6.67966,6.67966,0,0,1,.76329-.19025c.31462-.00234.33227-.14663.32974-.38711a8.80876,8.80876,0,0,1,.41236-3.26447c.06713-.17811.06559-.404-.28366-.41293-.55017-.01412-.75228.12306-.76531.70328-.0175.7789.00309,1.55859-.00951,2.33768a1.49616,1.49616,0,0,1-.11994.58533.46149.46149,0,0,1-.32978.194c-.04819.00613-.16716-.18-.17589-.2851-.08284-.99686-.14887-1.99517-.21975-3.20568M23.592,13.08262c0,.28318-.01533.56763.00766.84894a.98884.98884,0,0,0,.15948.3205c.115-.06434.27272-.10172.33436-.1996a.94165.94165,0,0,0,.13077-.47227q.016-1.64588-.00175-3.29193c-.00075-.07509-.11134-.21662-.16334-.2132-.47637.03131-.95359.07234-1.42454.148-.11734.01887-.303.1718-.30472.26584q-.03144,1.75167.00073,3.50394c.00163.08835.21105.24315.31911.23913.10467-.0039.25528-.15675.29173-.27353a1.83516,1.83516,0,0,0,.01262-.527c0-.885-.005-1.77.006-2.65479a1.146,1.146,0,0,1,.12924-.35191c.14308.08186.33443.13165.41594.25439a.96445.96445,0,0,1,.08336.49179c.00882.56625.00336,1.13269.00336,1.9117m12.54519.42526c-.00165.61749.48064.17759.69691.31895.12209-.18741.32475-.36385.352-.56418.10586-.77816.18158-1.56275.218-2.34729a.87665.87665,0,0,1,.781-.91749,2.56815,2.56815,0,0,0,.27909-.09279.76434.76434,0,0,0-.24538-.11275,3.65808,3.65808,0,0,0-.74043.00083,2.64176,2.64176,0,0,0-1.2401.28632c-.1996.16541-.09252.71731-.09813,1.09679-.01042.70618-.003,1.41264-.003,2.33161m3.721-.95684a4.49751,4.49751,0,0,1,.09382-2.51548c.04887-.11815-.07034-.30584-.11177-.46134-.16848.10359-.33833.2051-.50346.31378-.01756.01158-.0098.0652-.00983.09931-.00043.95128-.06711,1.90884.02208,2.85169.06432.68007,1.32859,1.08041,1.89269.65165a.50007.50007,0,0,0,.17822-.42129,7.20754,7.20754,0,0,1-.39743-2.90272,1.42666,1.42666,0,0,0-.10038-.379c-.10657.1315-.30487.26361-.304.39435.00419.5824.06241,1.16464.10716,1.74644a2.4461,2.4461,0,0,1,.05792.90259c-.06113.17429-.42533.24232-.65387.3579a2.79357,2.79357,0,0,0-.2712-.63789M18.38253,13.82683c.0322-.31571.07929-.63076.09291-.94726.0181-.421.01079-.84318.01313-1.26486a5.73487,5.73487,0,0,1,.01164-.7387c.01211-.08869.1541-.1596.23682-.23864.059.06751.16083.13027.16892.20339a5.79056,5.79056,0,0,1,.00814.63361c0,.987-.00575,1.97415.01055,2.96089.00135.082.1517.16144.23283.24209.06063-.06588.1736-.13134.17415-.19771.01048-1.269.0334-2.53874-.004-3.80668-.01659-.56164-.50966-.42381-.877-.46791-.4849-.05822-.3849.26594-.3859.52916-.0031.81078.02226,1.6225-.01059,2.43194-.0175.43107-.14034.85716-.19472,1.28813-.00848.0671.09516.14837.147.223.08994-.07182.23546-.1296.25786-.21842a3.22135,3.22135,0,0,1,.11832-.63207M26.994,10.53106c-.0561-.24806-.1059-.70774-.16933-.70966-.39539-.01174-.45872.28611-.47636.63885-.04817.96374-.14388,1.925-.1998,2.88847-.02148.37018-.10175.91131.44356.86236.30752-.02762.4131-.52805.40645-.91674-.01456-.85-.00452-1.70042-.00452-2.76328m2.7642,1.27578c0-.492.01588-.98485-.01176-1.47528a.41663.41663,0,0,0-.24917-.31207.50588.50588,0,0,0-.37073.19457,1.59764,1.59764,0,0,0-.187,1.47891,3.00569,3.00569,0,0,1-.02205,2.1568.3954.3954,0,0,0,.08681.36756c.09121.06863.33931.08662.38865.02388a1.328,1.328,0,0,0,.34719-.66862c.02044-.5513-.05284-1.10606.01805-1.76575m15.94728-1.701c.05847-.32548-.17147-.38863-.372-.30347-.188.07979-.47424.31487-.45332.43616.12181.7068-.45485,1.5879.49459,2.11068.0963.053.10141.30651.11338.46957.018.24569-.00522.49433.00986.74044a.91869.91869,0,0,0,.10738.26768c.12-.05118.28318-.07094.349-.1615a.66386.66386,0,0,0,.11078-.42783c-.10881-.97425-.23742-1.94632-.35967-3.13173m-15.30939.6379a14.07253,14.07253,0,0,0,.19264,3.21159c.07742.31269.209.3135.41786.29346.333-.032.24623-.189.15351-.4209a2.26746,2.26746,0,0,1-.12095-.79827c-.013-.99178-.00237-1.98386-.01-2.97577a.78752.78752,0,0,0-.107-.2614,1.12314,1.12314,0,0,0-.14856.15148,2.65606,2.65606,0,0,0-.37745.79981m-4.8905.21263a5.38545,5.38545,0,0,0-.007-.63091,1.14877,1.14877,0,0,0-.15132-.32593c-.115.06141-.27156.09534-.33468.191a.82762.82762,0,0,0-.13769.46359c.05788,1.19966.13364,2.39845.20809,3.59728a.63926.63926,0,0,0,.07065.18039c.07445-.05246.19005-.09.21537-.1602a1.83192,1.83192,0,0,0,.13075-.5757c.01364-.84209.00585-1.68453.00585-2.73948M21.253,11.169c-.45424.96148-.11009,1.98-.19862,2.9681-.00814.09087.21756.29969.2696.28019.13723-.05147.33695-.19653.33915-.30778.0236-1.19311.01418-2.38688.00993-3.58048-.00008-.02492-.04808-.04831-.0711-.0747-.13721-.15735-.30724-.34638-.43393-.03227a1.16536,1.16536,0,0,0,.085.74694M44.00447,9.89316c-.43237-.25353-.83051-.09268-.82072.34322a7.18623,7.18623,0,0,0,.38028,2.149c.11366.33026.39339.5506.05689.8921a.47768.47768,0,0,0,.19016.32344c.33825.105.42009-.04613.41285-.49618a6.76431,6.76431,0,0,0-.40216-2.15046c-.0815-.233.11389-.56288.1827-1.06111m-8.93046,4.04a2.18741,2.18741,0,0,0,.205-.546c.10032-1.09432-.18814-2.21291.20918-3.2933.02668-.0726-.10463-.20331-.16249-.307-.08392.07761-.19729.13975-.24726.23514a6.335,6.335,0,0,0-.32617,3.79264c.00891.08179.14074.15021.3217.11854m-7.22944-3.61472a3.07047,3.07047,0,0,1-.02364,1.152,7.05415,7.05415,0,0,0-.17563,2.46012c-.0088.09882.14707.27563.25846.30856.22819.06749.37828-.00192.37363-.31365-.0184-1.23274.00461-2.46611-.01561-3.69878-.00548-.33447-.22109-.27207-.41721.09172m14.56518.74421c-.03543-.3355-.05729-.6734-.11465-1.00509-.01716-.09907-.13386-.18094-.20492-.27069-.07068.09017-.18808.17242-.20487.27173a7.85925,7.85925,0,0,0,.46515,3.27161c.027.10688.18844.17977.28749.26843a2.35736,2.35736,0,0,0,.292-.40488c.02435-.0528-.08866-.16321-.12812-.25216a5.67052,5.67052,0,0,1-.392-1.87895M20.29619,14.46472c.03543-.3372.07218-.67428.106-1.01163.08872-.88408-.20093-1.79581.20241-2.66144.04076-.08744-.06464-.243-.10222-.36691-.11967.0509-.29351.06961-.34712.15981a1.417,1.417,0,0,0-.1731.558c-.10867.9907.19721,2.00472-.17389,2.99-.03242.086.247.28954.48789.33216m17.75463-3.721Q38.02,11.944,37.98949,13.14434c-.00418.16988-.07281.41005.01138.49319.12347.122.35787.13173.545.1893a1.91739,1.91739,0,0,0,.13444-.55183c-.06219-.99353-.49663-1.98274-.01452-2.97949-.094-.0278-.247-.1045-.27159-.07483-.10038.12121-.1615.27492-.34339.523M17.00042,12.2321c.07087.60438.14011,1.20894.21509,1.81281a.71.71,0,0,0,.07582.17914c.04479-.06839.12815-.1365.12861-.20518q.01191-1.7955-.00124-3.59107c-.00061-.07231-.102-.14382-.15652-.21566-.08725.07433-.24679.14561-.2501.22348-.02234.52718-.01166,1.05572-.01166,1.79648M46.556,11.169c.07088.31881.12669.64227.222.95359.02751.08983.16864.14486.25766.21587.05272-.07249.15706-.15044.15-.2166-.05627-.52926-.12806-1.05715-.20759-1.58359a4.58658,4.58658,0,0,0-.13458-.50733,3.32477,3.32477,0,0,0-.27918.51055,2.62264,2.62264,0,0,0-.00836.62751m2.76419,0a.52053.52053,0,0,0-.00436-.20871c-.08666-.17591-.19277-.34223-.29135-.51227-.04317.17751-.15408.371-.11662.52945a12.80484,12.80484,0,0,0,.41711,1.30129c.0271.07683.11657.13165.17725.19662.08109-.107.25273-.24853.22737-.31495a9.28754,9.28754,0,0,1-.4094-.99143M15.831,11.70052c-.06978,0-.2006-.0027-.20074.00039q-.06345,1.43923-.10288,2.87944c-.0004.014.09248.03073.14181.04618a.96919.96919,0,0,0,.05377-.18652,22.17948,22.17948,0,0,0,.108-2.73949m.74421,2.02-.14135-1.34708c-.02376.44691-.04855.89374-.07052,1.34072a1.22992,1.22992,0,0,0,.00352.31526,3.42561,3.42561,0,0,0,.1364.40094c.024-.16573.048-.33148.072-.70984m-1.48842-.63789-.24393-.319-.18131.18133a.51662.51662,0,0,0,.42524.13762M13.811,14.14577l-.20134.22395.57238.04293a.4964.4964,0,0,0-.371-.26688m2.55158-3.18945a.76576.76576,0,0,0,.00314.19936,3.24643,3.24643,0,0,0,.12093.31446.7697.7697,0,0,0,.0817-.26322.23628.23628,0,0,0-.20577-.2506m.10631.95683-.08506.12758C16.44757,12.03364,16.51137,12.02655,16.46884,11.91315ZM47.309.25638C44.62015.148,41.92406.22243,39.2308.21609,38.40355.21417,37.582.27722,36.74824.25848,30.365.11479,23.97948.07492,17.59461.00757c-1.13388-.012-2.268-.00172-3.402-.00172-.14174,0-.28361-.00353-.42523.0006-.69467.02014-.71415.06144-.81774.75975a1.45732,1.45732,0,0,1-.3112.71472A33.9149,33.9149,0,0,0,10.34275,4.05a23.05465,23.05465,0,0,0-2.0967,2.62845A14.16215,14.16215,0,0,1,6.24737,9.358c-1.3937,1.60023-2.87043,3.12812-4.264,4.72843-.61606.70748-1.109,1.52159-1.66709,2.28048a.5027.5027,0,0,0,.0658.73245,1.11781,1.11781,0,0,0,.81719.3556c1.92812.1616,3.852-.33431,5.77992-.02232.14839.024.31472-.09544.47687-.11712.30573-.04085.72176-.19669.8997-.058.37235.29006.74179.17492,1.10368.17533,2.94878.00338,5.89709.05459,8.84316-.192,2.23182-.18675,4.48867.24837,6.71594-.21982a1.119,1.119,0,0,1,.41108.02832,4.318,4.318,0,0,0,.88149.16871c1.14111-.04443,2.28-.14426,3.4209-.19656.63654-.02917,1.2755-.00527,1.91338-.00527h2.02a16.95106,16.95106,0,0,0,1.91181-.01583c.62287-.07112,1.2308.05588,1.84563.01645,1.13994-.07314,2.28059-.21011,3.42013-.20222,7.05829.0489,14.11636.13072,21.17451.20145a1.48146,1.48146,0,0,1,.31806.00391,3.4189,3.4189,0,0,1,.93932.28477c.06928.04041-.0815.461-.13393.70631a26.58772,26.58772,0,0,0-.60363,2.93158c-.10193,1.04613-.47014,2.01386-.66245,3.02692-.251,1.32214-.32878,2.68524-.67334,3.97953-.45709,1.7169-.65523,3.47528-1.03471,5.20165-.20757.94428-.39518,1.893-.58437,2.84126a28.15051,28.15051,0,0,0-.65969,3.5424,18.42831,18.42831,0,0,1-.4569,3.22416,20.39285,20.39285,0,0,0-.46417,3.00914c-.14177,1.49075-.55117,2.95445-.807,4.43648-.17842,1.03351-.28717,2.07894-.43372,3.11813q-.12.85082-.26291,1.69837c-.191,1.12459-.40561,2.24534-.58066,3.37231-.10971.70652-.12336,1.42924-.25379,2.131-.24334,1.30958-.55995,2.6054-.80941,3.91393-.25149,1.31893-.43868,2.6501-.69053,3.96894-.2436,1.27534-.5288,2.54287-.80507,3.8118-.19784.90864-.4289,1.81029-.61233,2.72168-.17211.85522-.30064,1.71921-.44929,2.57918-.17718,1.02505-.34436,2.05194-.53651,3.07418-.16.85133-.41649,1.6897-.51143,2.547-.15551,1.40341-.54772,2.75083-.83217,4.12376-.31882,1.53892-.59691,3.08641-.88074,4.63239a6.76236,6.76236,0,0,1-.23765,1.49633,11.17356,11.17356,0,0,0-.62068,2.93413c-.04031.25891-.22862.52828-.18037.75731a.78211.78211,0,0,0,.5043.48709.63747.63747,0,0,0,.51151-.365q.4746-2.31206.86415-4.64138c.17351-1.03452.25608-2.08462.43948-3.11706.25084-1.41221.55211-2.81562.8444-4.22019.25078-1.20526.53225-2.40419.77584-3.61085.18569-.91982.34073-1.84611.49521-2.77188.10017-.59989.151-1.20863.26616-1.80525.17655-.91448.39284-1.82125.58611-2.73258.20741-.978.42453-1.95445.60692-2.93722.2389-1.287.45-2.57921.66909-3.86984a22.96,22.96,0,0,1,.483-2.77914c.50425-1.6755.64285-3.41234,1.00193-5.11009.16635-.78659.29488-1.58149.42757-2.37478.15-.89672.30581-1.79323.42219-2.69463a29.64155,29.64155,0,0,1,.46277-3.74818c.51657-1.96065.61214-3.9781,1.01708-5.94976.21767-1.05967.29216-2.14847.44128-3.2227a5.81346,5.81346,0,0,0,.19394-1.18678,13.90017,13.90017,0,0,1,.54024-3.19078c.18146-1.21619.52821-2.40678.74286-3.61915a37.29883,37.29883,0,0,1,.81039-3.918c.26743-.922.5016-1.858.67584-2.8016.19039-1.03086.21764-2.09555.45472-3.11317.336-1.44234.827-2.8479,1.197-4.28326a16.52663,16.52663,0,0,0,.46717-2.56639c.06632-.70491-.28686-.91678-.97228-.74682a3.72388,3.72388,0,0,1-.98738.16918c-.43321-.01415-.8629-.18792-1.29447-.18938-4.50051-.015-9.00116.00122-13.50164-.01822a14.23623,14.23623,0,0,1-2.68545-.15511,12.66107,12.66107,0,0,0-2.597.15711c-4.29318.11322-8.58767.066-12.88319.16077-8.85508.19537-17.71747.05744-26.57685.06393a9.01426,9.01426,0,0,0-1.01258.11641c-.12055.01394-.24191.021-.3629.03117.01917-.121-.00261-.27528.06424-.35751.41265-.50772.848-.99686,1.27075-1.49646,1.15418-1.364,2.28677-2.747,3.466-4.08888A11.52057,11.52057,0,0,0,8.21247,8.2845a7.8527,7.8527,0,0,1,1.0439-1.47987c.95816-1.13513,1.92957-2.26042,2.93194-3.35646C12.87708,2.695,13.6185,1.989,14.35666,1.28309a.88513.88513,0,0,1,.54511-.20573c2.45137-.06792,4.90319.08223,7.35667-.19347a32.36334,32.36334,0,0,1,4.143-.02064,7.40647,7.40647,0,0,1,2.15632.16788c.43837.13557.99389-.169,1.49463-.15978.78674.01446,1.57034.15893,2.35762.19158,2.27318.09438,4.55831-.18683,6.82228.21717a.98831.98831,0,0,0,.21234.00117A31.39368,31.39368,0,0,0,44.92129,1.069c.77185.3637,1.59688.08662,2.39712.1831a19.31208,19.31208,0,0,0,3.079.01744.93047.93047,0,0,1,1.03943.66,8.14954,8.14954,0,0,0,2.07421,2.74229,56.71376,56.71376,0,0,1,4.34226,5.01605c1.04311,1.49832,2.22841,2.89755,3.27462,4.39388.32579.466,1.76217,1.7969,1.66852,2.49436a.33522.33522,0,0,0,.20824.25533,2.97771,2.97771,0,0,0,.94885-.01329c.1439-.0346.28263-.17235.14654-.51951a24.80526,24.80526,0,0,0-2.48172-3.428c-1.26213-1.7996-2.57965-3.56732-3.97971-5.26118-1.32826-1.607-2.77283-3.11984-4.20238-4.64013A6.063,6.063,0,0,1,52.06535.9806C51.749.154,51.19046.0317,50.22391.378A8.83612,8.83612,0,0,0,47.309.25638Zm-41.35595,60.09A19.85956,19.85956,0,0,1,6.592,64.866a14.05,14.05,0,0,0,.21049,2.14211c.25647,1.51645.57749,3.022.8367,4.538.23854,1.39516.476,2.79322.63111,4.19912.167,1.51392.3525,3.01887.62567,4.52057.25617,1.40811.30916,2.8533.44931,4.28238.07352.74961.10712,1.50508.2211,2.24835.18273,1.19161.43153,2.373.62411,3.5633a14.16652,14.16652,0,0,0,.23863,1.92364,16.16746,16.16746,0,0,1,.625,3.88577,8.10617,8.10617,0,0,0,.20794,1.18694c.09572.45139.6603.8073.85.54294.18041-.25133.4486-.69689.352-.84691a6.39312,6.39312,0,0,1-.65136-2.60826c-.154-.91987-.38492-1.82664-.54883-2.74509-.23024-1.29016-.45544-2.58227-.636-3.88-.23851-1.71473-.438-3.43505-.64131-5.15447-.08843-.74782-.11419-1.50386-.22234-2.24833-.18836-1.29683-.40915-2.58922-.63492-3.88024-.12044-.68882-.31-1.36629-.41456-2.057C8.54721,73.37254,8.42049,72.26,8.284,71.14921a9.2518,9.2518,0,0,0-.23782-1.92234,29.3485,29.3485,0,0,1-.59749-3.89179,22.91374,22.91374,0,0,1-.23211-2.3521,8.717,8.717,0,0,0-.22518-1.6077,11.64261,11.64261,0,0,1-.42519-2.59022c-.0797-1.14665-.40039-2.25865-.48476-3.42054-.09438-1.30012-.60537-2.55042-.58766-3.89742a23.27058,23.27058,0,0,0-.33746-2.397c-.10742-1.14717-.6355-2.24386-.47748-3.412.18047-1.33437-.51292-2.54012-.4734-3.86431.01848-.61969-.44662-1.23934-.53448-1.88068-.09112-.66517.01321-1.35609-.06475-2.03468a9.93571,9.93571,0,0,0-.24178-2.02759,9.0282,9.0282,0,0,1-.40775-2.70193A19.55251,19.55251,0,0,0,2.74546,30.794c-.1794-1.192-.53453-2.3691-.5984-3.56408-.07478-1.3991-.59-2.70473-.67576-4.09036-.02469-.39852-.26895-.82877-.17269-1.17844.13036-.47352-.10161-.87645-.04766-1.32232a8.99149,8.99149,0,0,0,.00517-1.59154c-.01358-.234-.40756-2.04314-.41449-2.27576-.0108-.36216-.281-.33189-.42738-.25672-.18069.09276-.44109.35152-.412.48153a33.111,33.111,0,0,1,.626,5.13082,1.56229,1.56229,0,0,0,.00758.316c.20666,1.01155.4619,2.01524.62019,3.03411.24956,1.60635.45289,3.22052.64235,4.83534.16729,1.42594.28432,2.85771.436,4.28557.0204.192.14067.37231.16893.56475.16217,1.10414.32431,2.20861.45889,3.3163.095.78236.08088,1.58276.23028,2.35282a41.514,41.514,0,0,1,.84311,5.70676A8.10121,8.10121,0,0,0,4.266,48.56874a32.52794,32.52794,0,0,1,.60226,3.78358c.13881.701.05043,1.45638.24606,2.13487a37.46947,37.46947,0,0,1,.66982,4.57674C5.87275,59.52761,5.85523,59.95126,5.95307,60.34634ZM48.73278,97.37c-2.588.02808-5.15265-.21222-7.72718-.39456-1.95586-.1385-3.913-.21525-5.86584-.4353-1.64152-.185-3.31361-.19888-4.97361-.22867a73.893,73.893,0,0,0-8.71957.38368c-2.37948.23869-4.8.178-7.20256.245-.45381.01267-.91145-.02551-1.3619.0102a4.12887,4.12887,0,0,0-1.12633.22509c-.13065.04984-.19075.33735-.18368.51357a.4393.4393,0,0,0,.30447.3023c2.23777-.05269,4.47482-.12793,6.712-.19882.33986-.50855.68319.0611,1.03172-.00189a24.72045,24.72045,0,0,1,2.52345-.40982c1.57157-.11818,3.15055-.18317,4.728-.21982a72.93492,72.93492,0,0,1,7.48028.37872c1.83028.14543,3.66354.2322,5.49337.43993,1.68178.1909,3.39636.17445,5.09714.23482a10.2179,10.2179,0,0,1,2.20664.06035,4.20294,4.20294,0,0,0,2.16138-.00387C49.51507,97.37691,49.51483,97.36152,48.73278,97.37Z"/></g></g></svg>