<svg xmlns="http://www.w3.org/2000/svg" viewBox="0 0 108.38 144.43"><defs><style>.cls-1{fill:#fff;}</style></defs><title>half-drape-2</title><g id="Layer_2" data-name="Layer 2"><g id="half-drape-2"><path id="void" class="cls-1" d="M103.18,14.36C101,8.18,97.27,1.61,90.9,0,88.17,24.34,78.79,47.69,65.21,68.11a.45.45,0,0,1,.16.2h0l-.39.35a.41.41,0,0,1,0-.19q-1.58,2.36-3.21,4.65c-.74,1-1.49,2.06-2.25,3.08a.17.17,0,0,1,.23,0,.17.17,0,0,1,0,.23h0a.3.3,0,0,1-.25-.17q-3.47,4.66-7.18,9.11a.1.1,0,0,1,0,0c.07,0,.17,0,.17.09a.13.13,0,0,1-.06.09.37.37,0,0,1-.37.1c-.16.21-.34.42-.51.62a.06.06,0,0,1,0,.08h0l-.07,0A223.93,223.93,0,0,1,5.19,127.47c-1.92,1.29-3.26,2.45-5.19,3.72l.53.79c-.19-.09-.37-.32-.53-.79.61,4.71,4.44,8.51,8.78,10.43s9.2,2.3,13.93,2.66c5.68.42,12.55.28,15.54-4.57,9,5.63,22.24,2.83,28.2-6,1.34-2,4.34-1.35,6.67-1.87,2.95-.65,5-3.3,6.66-5.79C90.92,109.76,100.17,91.93,105,72.76S109.85,33,103.18,14.36Zm-46.76,66a1.23,1.23,0,0,1,0,.54c-.15,0-.26-.13-.31-.27Z"/><path id="fill2" class="cls-1" d="M103.18,14.36C101,8.18,97.27,1.61,90.9,0,88.17,24.34,78.79,47.69,65.21,68.11a.45.45,0,0,1,.16.2h0l-.39.35a.41.41,0,0,1,0-.19q-1.58,2.36-3.21,4.65c-.74,1-1.49,2.06-2.25,3.08a.17.17,0,0,1,.23,0,.17.17,0,0,1,0,.23h0a.3.3,0,0,1-.25-.17q-3.47,4.66-7.18,9.11a.1.1,0,0,1,0,0c.07,0,.17,0,.17.09a.13.13,0,0,1-.06.09.37.37,0,0,1-.37.1c-.16.21-.34.42-.51.62a.06.06,0,0,1,0,.08h0l-.07,0A223.93,223.93,0,0,1,5.19,127.47c-1.92,1.29-3.26,2.45-5.19,3.72l.53.79c-.19-.09-.37-.32-.53-.79.61,4.71,4.44,8.51,8.78,10.43s9.2,2.3,13.93,2.66c5.68.42,12.55.28,15.54-4.57,9,5.63,22.24,2.83,28.2-6,1.34-2,4.34-1.35,6.67-1.87,2.95-.65,5-3.3,6.66-5.79C90.92,109.76,100.17,91.93,105,72.76S109.85,33,103.18,14.36Zm-46.76,66a1.23,1.23,0,0,1,0,.54c-.15,0-.26-.13-.31-.27Z"/><path id="fill1" d="M56.46,80.92c-.15,0-.26-.14-.31-.28l.27-.27A1.26,1.26,0,0,1,56.46,80.92ZM65.35,68.3l-.38.35a.57.57,0,0,1,.24-.54.42.42,0,0,1,.16.21ZM52.25,85.42a.36.36,0,0,1,.14-.16c.07,0,.17,0,.17.09a.15.15,0,0,1-.06.1.44.44,0,0,1-.38.1l.11-.13Zm7.53-9.06a.3.3,0,0,1-.26-.17.17.17,0,0,1,.23,0,.17.17,0,0,1,0,.23Zm-8.15,9.89-.15,0c0-.11.22-.06.18,0ZM77,88.56c0,.12-.25,0-.22-.12s.17-.19.29-.23a.26.26,0,0,1-.07.36ZM75.9,90.42a.29.29,0,0,1-.33,0,.66.66,0,0,0,.26-.51.72.72,0,0,1,.06.5Zm.45-1c-.09-.11.13-.21.19-.34s0-.28.06-.35.26.18.24.34a.54.54,0,0,1-.29.34C76.48,89.48,76.39,89.5,76.35,89.45Zm-.18.06a.22.22,0,0,1,0,.41.49.49,0,0,1,0-.44Zm-1.3,1.94s0,.11,0,.1v-.11ZM23.13,136.28c.15-.05.26.14.31.3a.59.59,0,0,0-.27.14.9.9,0,0,1,0-.43Zm-.41,8c-4.74-.36-9.59-.74-13.94-2.66S.61,135.9,0,131.19c2.21,3.28,4.54,6.68,8,8.62a20.56,20.56,0,0,0,5.85,2,51.44,51.44,0,0,0,16.37.81c-1.66-1.29-3.72-1.92-5.63-2.78s-3.84-2.1-4.65-4,0-4.65,2.06-5.14c2.6-.62,4.67-2.52,6.61-4.35l8.22-7.72c7.2-7.7,29.41-29.84,44.89-61.47C89.78,40.46,95.35,21.7,92,3.49,88.44,29.92,77,55,61,76.33S24.79,115.58,2.76,130.61C1.5,131.36.63,133,0,131.19c1.93-1.27,3.27-2.43,5.19-3.72A219.47,219.47,0,0,0,61.77,73.11C77.2,51.54,87.94,26.35,90.9,0,97.27,1.61,101,8.18,103.18,14.36c6.67,18.6,6.55,39.23,1.77,58.4s-14,37-25.17,53.32c-1.7,2.49-3.71,5.14-6.66,5.79-2.33.52-5.33-.11-6.67,1.87-6,8.8-19.19,11.6-28.2,6-3,4.84-9.86,5-15.53,4.56M93,29.17C88.41,49.25,79,68,67.05,84.8s-26.28,31.74-41.38,45.74l15.41,9.75c4.65,1.58,7.46,1.79,13,.68,2-.56,4.25-2,4-4.08a58.56,58.56,0,0,1-9.7-2.15,7.18,7.18,0,0,1-3-1.53,2.64,2.64,0,0,1-.6-3.1,2,2,0,0,1,1.63-.93l11.55-15c8-10.44,16.09-20.91,22.73-32.29A154.28,154.28,0,0,0,92.05,58c6-16.24,9.22-34.7,2.52-50.68C94.16,6.13,92.67,3,92.67,3a13.58,13.58,0,0,1,.57,1.8,39.82,39.82,0,0,1,1.18,7.06A58.82,58.82,0,0,1,93,29.17M22.34,137.4a.41.41,0,0,0,.54.11,2,2,0,0,0,.44-.42c.1-.09.16-.32,0-.31a.28.28,0,0,1,.4.06,25.39,25.39,0,0,0,3.67-3.66.19.19,0,0,0,.05-.09c0-.05-.05-.09-.09-.12l-.64-.48c-.12-.08-.32-.16-.4,0a13.11,13.11,0,0,1-2.85,3.14c-.23.18-.48.44-.37.7a.51.51,0,0,0-.1.66.61.61,0,0,0-.51,0,.35.35,0,0,0-.16.44m37.13-.47a1.61,1.61,0,0,1-.41-1.14,1.31,1.31,0,0,1,.59,0l0,.38a11.47,11.47,0,0,0,3.09-3.38,1.55,1.55,0,0,0-1.5.57,8,8,0,0,1-1.48,1.54,3.29,3.29,0,0,0-.72.67.9.9,0,0,0-.11.93,2.58,2.58,0,0,1,.22,2c0,.12.14.19.25.14a1.05,1.05,0,0,0,.24-.27,1.86,1.86,0,0,1,.3-.24,9,9,0,0,0,1.33-1.14l3.78-3.65a1.46,1.46,0,0,0,.42-.57c-.44-.11-1-.18-1.26.17-.09.1-.13.23-.22.32a38.62,38.62,0,0,1-3.61,3.4.3.3,0,0,0,0,.35.71.71,0,0,1,.08.37c0,.12-.22.2-.28.08a.37.37,0,0,1-.5.3.78.78,0,0,1-.18-.58.29.29,0,0,1,.22.06.2.2,0,0,0-.25-.23M95.72,6.06c5.06,11.8,5.08,25.3,2.22,37.82S89.5,68.12,83.58,79.52A124.12,124.12,0,0,1,77,91c-1.72,2.58-3.6,5-5.48,7.5L48.21,129a10.51,10.51,0,0,0,2.8-.73c2.54-.51,6.07-1.31,8.82-1.74,6.64-1.17,10.66-1.24,16.89.92,11.51-15.57,21-32.85,26.11-51.52s5.73-38.83-.07-57.3C101,13,98.53,7.35,94.41,3.07ZM74.78,129.86l.43-.67a1.81,1.81,0,0,0-.95-1.24,4.93,4.93,0,0,0-1.56-.46,29,29,0,0,0-6.31-.31,1.22,1.22,0,0,0-1.14.55l-3.07,3.64a21.33,21.33,0,0,0,3.48-.14l3.76-.36,1.75-.17a7.06,7.06,0,0,0,3.24-.84c.12-.08.33-.14.37,0m-21.88,3c-.21.15-.45.32-.48.58a.25.25,0,0,1-.25.05.36.36,0,0,0,0,.29l-.32.05a2,2,0,0,1,.63-1.27A29.12,29.12,0,0,0,55,129.11c-.57-.05-1.24-.06-1.58.4A29.49,29.49,0,0,1,49.23,134a7.7,7.7,0,0,0,3.71.48l.22.38,4.57-6.2c-.53-.07-1.21-.07-1.46.41a10.9,10.9,0,0,1-3.37,3.77m1.84,1.78a.28.28,0,0,1-.37-.15.35.35,0,0,0-.25.44,4.33,4.33,0,0,0,2.42.5,1.87,1.87,0,0,0,.25-.94,4.6,4.6,0,0,1-.83.62.36.36,0,0,1,.07-.45,4.26,4.26,0,0,1,1.22-1.87A31.84,31.84,0,0,0,60.84,128a2.74,2.74,0,0,0-1.28.3,2.82,2.82,0,0,0-.65.64l-3.53,4.42a.82.82,0,0,0-.26.69c.05.18.22.3.35.44s.23.36.11.51-.37,0-.45-.23L54.8,134l-.29.28a.49.49,0,0,1,.23.33m2.78,1.11c0-.12.23-.09.35,0s.3.11.35,0c.54-1.16,1.63-2,2.23-3.13l-.49-.31c-.09-.06-.18-.17-.11-.25a.49.49,0,0,0,.1-.6c-.05-.07-.16-.12-.22-.06l-.75.92c-.21.24-.41.49-.62.72A12.12,12.12,0,0,1,57,134.26c-.05,0-.09.14,0,.16l.81.19c.12,0,.27.15.18.24s-.12,0-.18,0a1.1,1.1,0,0,0-.39-.12c-.14,0-.28.11-.27.25s-.17.38-.34.51l.75.23m-33.33,2.41a.43.43,0,0,1-.23-.32l-.52.24a2.46,2.46,0,0,0,1.26.49.21.21,0,0,0,.19,0c1.28-1.08,2.51-2.23,3.68-3.43a1.56,1.56,0,0,0,.4-.56.53.53,0,0,0-.15-.62.24.24,0,0,1-.24.23.25.25,0,0,1-.23-.24c0-.08-.1-.11-.17-.08a.36.36,0,0,0-.13.19,3.73,3.73,0,0,1-.78,1,15,15,0,0,1-2,1.77c-.24.17,0,.66-.31.79l-.09-.18c-.33.12-.73.38-.64.72m23.91-3.87a.4.4,0,0,0,0,.22c0,.07.15.1.19,0a.62.62,0,0,1,.15-.62,7.57,7.57,0,0,0,.53-.6c.17-.2.35-.41.52-.63.82-1,1.59-2,2.33-3,.07-.1.11-.28,0-.3-.26.4-.9.21-1.33.44a1.49,1.49,0,0,0-.5.58,15.25,15.25,0,0,1-1.5,2,2.74,2.74,0,0,1-1,.8c-.14.05-.09.27,0,.34s.28.08.4.15a.6.6,0,0,1,.2.63m-16,7.08c.35.19.77-.08,1.08-.33a20.58,20.58,0,0,0,2-1.93c.23-.25.46-.58.33-.89a.2.2,0,0,0-.14-.14c-.07,0-.16,0-.15.1s-.18.1-.22,0,0-.2,0-.3,0-.24-.16-.22a2.16,2.16,0,0,1-.53.78,14.25,14.25,0,0,1-1.06,1L32,140.59a.25.25,0,0,0,0,.35.75.75,0,0,0,.35.16l-.22.24m13.74-9.52a.64.64,0,0,1,.07.31.44.44,0,0,0,.11.3c.08.07.24,0,.26-.06a1.27,1.27,0,0,0,.27.56c.06.08.2.15.26.07l.58-.81.48-.66a9,9,0,0,0,.94-1.5c0-.05-.1-.06-.15,0s-.08.09-.12.13a.74.74,0,0,1-.29.12l-1.3.27a6.33,6.33,0,0,0-1.17.43,1,1,0,0,0-.37.24.33.33,0,0,0,0,.41.66.66,0,0,1,.19.56l.25-.34M24.6,132a.63.63,0,0,0-.23.16c-.93.88-1.89,1.73-2.86,2.56a.57.57,0,0,0-.26.39c0,.16.25.29.33.15s.21,0,.3.09a.45.45,0,0,0,.45,0,1.24,1.24,0,0,0,.36-.29l1.9-2a5.11,5.11,0,0,1,1-.87c.09-.06,0-.21-.07-.24a.65.65,0,0,0-.31,0c-.1,0-.23,0-.26-.12-.07.11-.23.1-.34.14m8.95,5.18a.58.58,0,0,1-.38.21.35.35,0,0,1-.34-.23,4,4,0,0,1-1.27,1.41c-.35.25-.57.65-.92.91s-.45.27-.5.51a.37.37,0,0,0,.17.38c.27.17.61-.06.84-.28q1.23-1.19,2.34-2.49a1,1,0,0,1,.92-.31l-.46-.41c-.11-.1-.31-.2-.4-.08.14,0,.1.27,0,.38m-6.47.84a.51.51,0,0,1-.28.15c-.06,0-.1.08-.08.14a.39.39,0,0,0,.1.16.5.5,0,0,1,0,.63.2.2,0,0,0,.15,0,1.54,1.54,0,0,0,.71-.5A21.65,21.65,0,0,0,30,135.69c.09-.14.21-.29.38-.29s.24-.24.16-.39a1.5,1.5,0,0,0-.36-.35.61.61,0,0,0,.16.48c0,.11-.12.16-.23.13s-.24-.08-.31,0A20.87,20.87,0,0,1,27.08,138m1.16,1.84A.18.18,0,0,0,28,140a.19.19,0,0,0,.16.2c.19-.14.38-.28.56-.43a22.76,22.76,0,0,0,1.69-1.57,3.94,3.94,0,0,0,.54-.62,7.94,7.94,0,0,1,.63-.89c-.1,0-.11-.15-.12-.25s-.12-.2-.18-.13a21.25,21.25,0,0,1-2,2.13l-.68.64a1.15,1.15,0,0,1-.48.3.19.19,0,0,0-.11.24.63.63,0,0,0,.2.23M63.38,127.5l-1,.13s-.09,0-.1.05a8,8,0,0,1-1.13,1.85l-.79,1.08a.64.64,0,0,0,.69-.13,3.82,3.82,0,0,0,.46-.6,8.67,8.67,0,0,1,.89-.93,11.34,11.34,0,0,0,1-1.27c0-.05.06-.12,0-.16a.11.11,0,0,0-.11,0m-30.61,15,.19.17a.57.57,0,0,0,.36-.2A2.74,2.74,0,0,1,34,142,9.79,9.79,0,0,0,37,139.35s.09-.13.06-.19-.23,0-.32,0c-.61.58-1.21,1.15-1.85,1.69l-.9.7-1.18.91m-10.53-9.83a.45.45,0,0,0,.16-.29c0-.12-.11-.24-.21-.19l-.92.43a2.37,2.37,0,0,0-.35.19,1.05,1.05,0,0,0-.42.94c0,.12.08.27.2.26a.23.23,0,0,0,.15-.07,12.84,12.84,0,0,0,1.39-1.27m4,5.92a2.09,2.09,0,0,0-1,.36,2,2,0,0,0,1.15.56l.13,0a.26.26,0,0,0,.19-.18.62.62,0,0,0-.22-.77c-.09,0-.1.16-.07.24s.11.17.11.26-.12.19-.18.12a.63.63,0,0,0-.59-.22l.47-.39m5.74-2.52a.32.32,0,0,0-.17,0c-.09.06-.06.19,0,.29a.93.93,0,0,1,.8-.21c0-.12-.13-.22-.25-.2a2.93,2.93,0,0,1-.37.1m1.09.7a.19.19,0,0,0,.13.28.2.2,0,0,0,.17-.26.19.19,0,0,0-.31,0m-1.74-1a.68.68,0,0,1,.27.39.41.41,0,0,0-.1-.55l-.17.16m28.34.63c-.15,0,0-.32-.18-.37s-.16.1-.15.2.22.31.34.2m.3.4a.36.36,0,0,0,0-.27c0-.08-.18-.12-.22,0a.28.28,0,0,0,0,.09c0,.14.11.31.24.27m-26.79-.31a.14.14,0,0,0-.1-.22.14.14,0,0,0-.14.19.15.15,0,0,0,.24,0m-10.41-.42a.13.13,0,0,0,0,.21.13.13,0,0,0,0-.21m-2.93,6.61c.05,0,.05-.09,0-.09s0,.09,0,.09"/></g></g></svg>