<svg xmlns="http://www.w3.org/2000/svg" viewBox="0 0 78.23 146.9"><defs><style>.cls-1{fill:#fff;}</style></defs><title>half-drape-3</title><g id="Layer_2" data-name="Layer 2"><g id="half-drape-3"><path id="void" class="cls-1" d="M76,6.12C77.39,4.35,79,1.94,77.81,0L65.66,5A117,117,0,0,0,54.71,9.91,58.28,58.28,0,0,0,26.33,46C24.46,53.2,24,60.72,21.52,67.72c-2.21,8.57-11.63,17.36-14,19.37s-3.78,2.08-5,3.46a16.25,16.25,0,0,0-.93,15.52q3.29-3,6.58-6A54,54,0,0,0,6,113.94c0,1.77.09,3.72,1.29,5,2.06,2.24,5.8,1.2,8.37-.42a28.93,28.93,0,0,0,7.92-7.4q-1.71,10.71-3.41,21.44c-.42,2.69-.54,6.07,1.83,7.4,1.74,1,3.93.23,5.7-.69A31.31,31.31,0,0,0,36,133a23.87,23.87,0,0,1-4.36,13.87c13.45-5.07,23.76-16.93,28.66-30.46,6.93-16.28,2.82-33.67.72-51.21-1.11-11.79-.76-15.12,1.21-26.8S68.51,15.33,76,6.12Z"/><path id="fill2" class="cls-1" d="M76,6.12C77.39,4.35,79,1.94,77.81,0L65.66,5A117,117,0,0,0,54.71,9.91,58.28,58.28,0,0,0,26.33,46C24.46,53.2,24,60.72,21.52,67.72c-2.21,8.57-11.63,17.36-14,19.37s-3.78,2.08-5,3.46a16.25,16.25,0,0,0-.93,15.52q3.29-3,6.58-6A54,54,0,0,0,6,113.94c0,1.77.09,3.72,1.29,5,2.06,2.24,5.8,1.2,8.37-.42a28.93,28.93,0,0,0,7.92-7.4q-1.71,10.71-3.41,21.44c-.42,2.69-.54,6.07,1.83,7.4,1.74,1,3.93.23,5.7-.69A31.31,31.31,0,0,0,36,133a23.87,23.87,0,0,1-4.36,13.87c13.45-5.07,23.76-16.93,28.66-30.46,6.93-16.28,2.82-33.67.72-51.21-1.11-11.79-.76-15.12,1.21-26.8S68.51,15.33,76,6.12Z"/><path id="fill1" d="M15.69,118.53c-2.58,1.61-6.31,2.66-8.37.43-1.2-1.3-1.32-3.25-1.29-5a54.49,54.49,0,0,1,2.08-13.9l-6.57,6a16.25,16.25,0,0,1,.93-15.52c1.23-1.37,2.59-1.45,5-3.46S19.3,76.29,21.52,67.72C24,60.73,24.46,53.2,26.33,46A58.16,58.16,0,0,1,54.72,9.92,113.22,113.22,0,0,1,65.66,5L77.81,0C79,1.94,77.39,4.34,76,6.12c-7.43,9.2-11.78,20.64-13.75,32.31s-2.31,15-1.21,26.79c2.1,17.54,6.21,34.93-.72,51.21C55.38,130,45.06,141.82,31.6,146.9A23.79,23.79,0,0,0,36,133a31.31,31.31,0,0,1-8.24,6.26C26,140.2,23.78,141,22,140c-2.36-1.33-2.26-4.71-1.83-7.39q1.71-10.73,3.41-21.45a28.93,28.93,0,0,1-7.92,7.4m19.14-59.2c-1.23,9.8-1.13,19.9-4.4,29.21a42.25,42.25,0,0,1-9,14.91c4,4.19,3.69,10.84,2.34,16.47s-3.49,11.39-2.27,17c.45,2.1,3.58,2.32,5.29,1a6,6,0,0,0,1.58-1.78c1.2-2.07,1.05-4.65,1.8-6.92,1.24-3.75,4.68-6.23,7.28-9.19,4-4.51,6.1-10.39,7-16.32s.73-12,.53-18l-.42-12.66.16-8.81c1.12-16.14,2.67-18.62,4.81-26.12A78.11,78.11,0,0,1,73.46,5.35C62.2,8.6,52.63,16.57,46.19,26.37s-9.9,21.33-11.36,33M12.27,118.62c4.62-3.39,2.2-11.82,6.71-15.36C27.36,96.69,30.58,85.54,31.92,75c1.94-38.23,12.84-49.2,17.23-54.87l1.13-1.19c1.23-1.31,2.47-2.61,3.79-3.84A43.78,43.78,0,0,1,65.79,7.25a51.7,51.7,0,0,0-28.33,19,64.27,64.27,0,0,0-12.36,32A43.52,43.52,0,0,1,8,88.17c2.45,4.25,1.64,9.56.54,14.34s-2.4,9.86-.74,14.47a3.47,3.47,0,0,0,1.78,2.24,3,3,0,0,0,2.71-.6m-10.81-20a.36.36,0,0,1,.21.15c0,.07,0,.2-.09.2s-.05,0-.06.08a1.75,1.75,0,0,0,.3,1.16c-.13.11-.07.34.05.47a.66.66,0,0,0,0,.46l.38,1.34c0,.07,0,.16,0,.2s.2.08.25,0a.41.41,0,0,0,0-.31l-.19-1A3.54,3.54,0,0,0,2.2,101a2.2,2.2,0,0,0-.39-.7.18.18,0,0,1,.2.07l.12-.16a3.47,3.47,0,0,1-.34-1.62c0-.08-.11-.12-.19-.09a.38.38,0,0,0-.14.19M16,116.9a.44.44,0,0,1-.27.29c-.14,0-.29-.13-.21-.25a.33.33,0,0,0-.16-.47A2.83,2.83,0,0,1,15,117.6a.67.67,0,0,0-.14-.35l-.32.84a.15.15,0,0,0,0,.13c0,.07.15,0,.22,0l1-.64a13.78,13.78,0,0,0,1.67-1.26.38.38,0,0,1-.36-.26,1.05,1.05,0,0,1-.05-.47l.07-1.82a6.14,6.14,0,0,0-.2-1.76l-.64,2.12a1.64,1.64,0,0,0-.09.44,3.38,3.38,0,0,1,0,.55,2.4,2.4,0,0,0-.12.44,1,1,0,0,0,.07.29A1.49,1.49,0,0,1,16,116.9m2-1.13c.37-.27.22-.5.27-.88l.09-.66a3.82,3.82,0,0,0,0-1.39c-.43-1.77-.21-3.69-.85-5.4a9.33,9.33,0,0,1-.29,2.29,6.63,6.63,0,0,0-.18.77,5.62,5.62,0,0,0,.22,1.77,14.79,14.79,0,0,1,.37,3.86ZM45.84,75.26c.11,9.22,1.25,18.47.07,27.61s-5.12,18.49-12.85,23.5a10.39,10.39,0,0,1,4.33,9.09,18.53,18.53,0,0,1-3.62,9.73c18.14-9.8,29.87-30.41,29-51-.1-2.37-.35-4.74-.6-7.11-.79-7.43-2.26-19.26-3-26.68-.69-27.61,8-43.73,12.15-51A68.75,68.75,0,0,0,53.87,32.23C50.33,39,45.24,56.24,45.84,75.26ZM35.29,131.34l-.94-2.09a6.57,6.57,0,0,0,.19,2.42.94.94,0,0,1,.06.44.3.3,0,0,1-.32.25,13.85,13.85,0,0,1-.19-3c0-.5-.49-.85-.94-1.09a1.55,1.55,0,0,0-.89-.27c-.31,0-.61.37-.48.66a1,1,0,0,1,0,.62,33.45,33.45,0,0,0-.84,3.56,2,2,0,0,0,0,1.07,6.4,6.4,0,0,1,.36,1.94c.79-1.49-.07-3.38.48-5l.24,3.35a.8.8,0,0,0,.26.64,2.81,2.81,0,0,1,1-.63.5.5,0,0,1-.4-.39,1.67,1.67,0,0,1,0-.59,12.14,12.14,0,0,0-.1-3.56,1,1,0,0,1,.11-.83c.24,1.56.48,3.12.74,4.68a6.06,6.06,0,0,0,1.75-2.26M18.61,105a2.09,2.09,0,0,0-.45,1.39,11,11,0,0,0,.63,4.14,1.64,1.64,0,0,1,.14.69,8.41,8.41,0,0,0,.33,3.15c.11.08.21-.1.22-.24a30.93,30.93,0,0,0-.26-7.93,1.28,1.28,0,0,1,.15-.68.58.58,0,0,0-.07-.65.53.53,0,0,0-.69.13M4.8,91c.18,1,.37,1.93.55,2.9l.14.73.81,4.29a.92.92,0,0,0,.19.48,5.66,5.66,0,0,0,.45-2.51,11.7,11.7,0,0,0-.34-2L5.49,90.1c-.13-.23-.52-.15-.65.08a1.12,1.12,0,0,0,0,.79M5.45,100a37.77,37.77,0,0,0-1.63-8.84c0-.14-.12-.31-.27-.33a1.83,1.83,0,0,0-.18,1.44c.43,2.92,1,5.81,1.66,8.69.38,0,.46-.57.42-1M3.6,102.49a.38.38,0,0,0,.46-.24,1.1,1.1,0,0,0,0-.57c-.15-1.08-.34-2.16-.53-3.23l-.29-1.69-.43-2.42a7.41,7.41,0,0,0-.38-1.56,5.49,5.49,0,0,0-.32,1.51,11.53,11.53,0,0,0,.33,2.92c.32,1.56.64,3.12.95,4.68,0,.17.09.36.25.41l-.07.19M20,105.39a1.33,1.33,0,0,1-.16,1.29c-.16.21,0,.5.05.75a3.83,3.83,0,0,1,.14.95c0,.48.08,1,.1,1.45.05,1.1.05,2.21,0,3.31.3-.08.41-.46.41-.78a1.51,1.51,0,0,1,.12-.92,1.67,1.67,0,0,0,.22-.86,20.7,20.7,0,0,0-.38-5.15c-.05-.27-.2-.61-.47-.58s-.09.35,0,.54M6.86,90.83a.55.55,0,0,1,.25.31.39.39,0,0,0,0-.44,3.51,3.51,0,0,0-.33-.34,1.21,1.21,0,0,1-.32-1.09,1.59,1.59,0,0,0-.18,1.52c.35,1.52.7,3,1.15,4.52a2.36,2.36,0,0,1,.08,1.63.32.32,0,0,0,.35-.19.75.75,0,0,0,.05-.42,6.49,6.49,0,0,0-.29-1.57.83.83,0,0,1,0-.77c.07-.09,0-.22,0-.32a8.37,8.37,0,0,1-.77-2.24.78.78,0,0,1,.05-.6m14.14,15,.1.83.07.62c0,.22.06.44.1.66s.06.31.1.46,0,.36,0,.54l.11,2.17a1.2,1.2,0,0,0,.34-.25,1.09,1.09,0,0,0,.22-.68,9.87,9.87,0,0,0-.09-1.88L21.82,107a1,1,0,0,0-.12-.41l-.59-.85s0,0-.05,0-.07.07-.06.12M30.52,136a5.77,5.77,0,0,0,.05-2.07c-.11,0-.16.13-.16.23a.5.5,0,0,1-.05.32c-.28.36-.21.89-.4,1.31a1.3,1.3,0,0,0,0,1s0,.07.07.09.11,0,.15-.06a1.73,1.73,0,0,0,.36-.79M8.42,92.15c0-.11-.05-.2-.09-.3s0-.24.08-.27c-.16,0-.28-.16-.31-.32s0-.31,0-.47a1.53,1.53,0,0,0-.33-.63c-.07-.1-.24-.18-.28-.07s.15.12.15.21,0,.18-.06.28a.8.8,0,0,0,.06.3l.51,1.48c-.11.22,0,.49.18.69l.11-.9M28.8,137.22c.28.17.66-.11.69-.44a.24.24,0,0,0,0-.2,4.3,4.3,0,0,0-.64.64m-6-28.59s-.13,0-.16.05a.41.41,0,0,0,0,.19l.1.62c.21-.18.17-.5.1-.77a.25.25,0,0,0,0-.09"/></g></g></svg>