<svg xmlns="http://www.w3.org/2000/svg" viewBox="0 0 143.76 67.57"><defs><style>.cls-1{fill:#fff;}</style></defs><title>moon-drape</title><g id="Layer_2" data-name="Layer 2"><g id="moon-drape-side"><path id="void" class="cls-1" d="M143.52,3.42c-3.53,14-9.64,27.51-18.85,38.64S103.06,61.89,89.09,65.57c-19.16,5.06-40.33.23-56.43-11.32S5.42,24.9.37,5.73C-.08,4-.36,1.89,1,.76l.38.48L1,.87l.72.8-.33-.43C8.8,8,42.29,23.5,71.1,24.73c25.24.42,46.2-4.07,70.41-24.46.6-.59,1.73-.13,2.07.65A4,4,0,0,1,143.52,3.42Z"/><path id="fill2" class="cls-1" d="M143.52,3.42c-3.53,14-9.64,27.51-18.85,38.64S103.06,61.89,89.09,65.57c-19.16,5.06-40.33.23-56.43-11.32S5.42,24.9.37,5.73C-.08,4-.36,1.89,1,.76l.38.48L1,.87l.72.8-.33-.43C8.8,8,42.29,23.5,71.1,24.73c25.24.42,46.2-4.07,70.41-24.46.6-.59,1.73-.13,2.07.65A4,4,0,0,1,143.52,3.42Z"/><path id="fill1" d="M114.71,27.42c10.84-6.42,21.2-14.67,26.59-26C126.92,15.66,107,23.77,86.85,25.71s-40.64-2-59.55-9.31C17.6,12.65,7.87,8.66,1,.87,7.55,7.44,41.75,23.48,71.1,24.72c25.24.43,46.2-4.06,70.41-24.45.6-.6,1.73-.13,2.07.65a4,4,0,0,1-.06,2.5c-3.53,14-9.64,27.51-18.85,38.64S103.06,61.88,89.09,65.57c-19.16,5.06-40.33.23-56.43-11.32S5.42,24.9.38,5.73C-.08,4-.36,1.89,1,.76A99.81,99.81,0,0,0,63.52,38.12a63.31,63.31,0,0,0,22.22.05,89.54,89.54,0,0,0,29-10.75M.48,3.42C5.12,22.31,15.53,40,30.92,51.92s35.87,17.53,54.9,13.51c14.51-3.07,27.63-11.53,37.34-22.75s16.1-25.07,19.54-39.5c-3.77,11.33-11.34,21.07-20,29.23A83.27,83.27,0,0,1,99.54,48.16c-18.43,8.09-40.37,7-58.53-1.68S8.51,21.89.48,3.42M1.83,3A76.92,76.92,0,0,0,40.26,45.24a75.39,75.39,0,0,0,33.62,7.32,68.08,68.08,0,0,0,16.74-2.34,50.82,50.82,0,0,0,10.9-4.11C119.44,36.55,135.71,21.88,142,2.55c-3.16,6-7.9,11-13,15.45C111.27,33.42,87.39,43,64.22,39.35a88.12,88.12,0,0,1-14.81-3.86C31,29.14,13.49,18.59,1.83,3"/></g></g></svg>