<svg xmlns="http://www.w3.org/2000/svg" viewBox="0 0 581.50877 566.92913"><title>7-point-star</title><g id="Layer_2" data-name="Layer 2"><g id="_7-point-star" data-name="7-point-star"><polygon id="void" points="290.754 0 355.453 163.883 523.921 112.287 436.132 265.05 581.509 364.594 407.338 391.204 420.152 566.929 290.754 447.348 161.357 566.929 174.171 391.204 0 364.594 145.377 265.05 57.587 112.287 226.055 163.883 290.754 0" style="fill:#fff"/><polygon id="fill" points="290.754 0 355.453 163.883 523.921 112.287 436.132 265.05 581.509 364.594 407.338 391.204 420.152 566.929 290.754 447.348 161.357 566.929 174.171 391.204 0 364.594 145.377 265.05 57.587 112.287 226.055 163.883 290.754 0" style="fill:#bcbcbc"/></g></g></svg>