<svg xmlns="http://www.w3.org/2000/svg" viewBox="0 0 581.50877 566.92913"><title>7-point-thick-star</title><g id="Layer_2" data-name="Layer 2"><g id="_7-point-thick-star" data-name="7-point-thick-star"><polygon id="void" points="290.754 0 380.3 112.287 523.921 112.287 491.963 252.307 581.509 364.594 452.111 426.909 420.152 566.929 290.754 504.614 161.357 566.929 129.398 426.909 0 364.594 89.546 252.307 57.587 112.287 201.208 112.287 290.754 0" style="fill:#fff"/><polygon id="fill" points="290.754 0 380.3 112.287 523.921 112.287 491.963 252.307 581.509 364.594 452.111 426.909 420.152 566.929 290.754 504.614 161.357 566.929 129.398 426.909 0 364.594 89.546 252.307 57.587 112.287 201.208 112.287 290.754 0" style="fill:#bcbcbc"/></g></g></svg>