<svg xmlns="http://www.w3.org/2000/svg" viewBox="0 0 575.67493 566.92913"><title>9-point-thin-star</title><g id="Layer_2" data-name="Layer 2"><g id="_9-point-thin-star" data-name="9-point-thin-star"><polygon id="void" points="287.837 357.862 187.873 566.929 245.681 342.518 34.717 438.417 223.25 303.666 0 241.524 231.04 259.486 99.965 68.38 265.406 230.649 287.837 0 310.269 230.649 475.71 68.38 344.635 259.486 575.675 241.524 352.425 303.666 540.957 438.417 329.994 342.518 387.802 566.929 287.837 357.862" style="fill:#fff"/><polygon id="fill" points="287.837 357.862 187.873 566.929 245.681 342.518 34.717 438.417 223.25 303.666 0 241.524 231.04 259.486 99.965 68.38 265.406 230.649 287.837 0 310.269 230.649 475.71 68.38 344.635 259.486 575.675 241.524 352.425 303.666 540.957 438.417 329.994 342.518 387.802 566.929 287.837 357.862" style="fill:#bcbcbc"/></g></g></svg>