<svg xmlns="http://www.w3.org/2000/svg" xmlns:xlink="http://www.w3.org/1999/xlink" viewBox="0 0 285.16 168.67"><defs><style>.cls-1{fill:#c6c6c6;}.cls-2,.cls-3,.cls-4,.cls-5,.cls-6{opacity:0.5;}.cls-2{fill:url(#linear-gradient);}.cls-3{fill:url(#linear-gradient-2);}.cls-4{fill:url(#linear-gradient-3);}.cls-5{fill:url(#linear-gradient-4);}.cls-6{fill:url(#linear-gradient-5);}.cls-7{fill:#fff;}.cls-7,.cls-8{opacity:0.25;}</style><linearGradient id="linear-gradient" x1="0.23" y1="74.96" x2="284.93" y2="74.96" gradientUnits="userSpaceOnUse"><stop offset="0" stop-opacity="0.5"/><stop offset="1" stop-color="#bfbfbf" stop-opacity="0.6"/></linearGradient><linearGradient id="linear-gradient-2" x1="0.23" y1="48.44" x2="284.93" y2="48.44" gradientUnits="userSpaceOnUse"><stop offset="0" stop-color="gray" stop-opacity="0.5"/><stop offset="1" stop-color="#fff" stop-opacity="0.6"/></linearGradient><linearGradient id="linear-gradient-3" x1="77.61" y1="151.61" x2="207.63" y2="151.61" xlink:href="#linear-gradient"/><linearGradient id="linear-gradient-4" x1="78.22" y1="145.36" x2="207.4" y2="145.36" xlink:href="#linear-gradient-2"/><linearGradient id="linear-gradient-5" x1="81.6" y1="122.35" x2="204.13" y2="122.35" xlink:href="#linear-gradient-2"/></defs><g id="Layer_2" data-name="Layer 2"><g id="round-cake-stand-1-iso"><path id="fill2" class="cls-1" d="M285.16,48.44v4.93c0,.12,0,.23,0,.34-.34,12.89-15.35,25-42.27,34-14.32,4.81-31.13,8.46-49.44,10.84,6.92,7,10.61,15.94,10.94,26.65v0a17.26,17.26,0,0,1,3.26,10.18,13.91,13.91,0,0,1,.23,2.58c0,16.92-29.27,30.68-65.26,30.68S77.36,154.91,77.36,138a15.07,15.07,0,0,1,.65-4.34,17.53,17.53,0,0,1,3.34-8.45c.34-10.67,4-19.61,10.88-26.58-18.5-2.37-35.5-6.05-49.95-10.9C15.36,78.68.35,66.6,0,53.71c0-.15,0-.3,0-.45V48.44a17.25,17.25,0,0,1,.11-1.89C1.53,34,17,22.24,43.69,13.52S105.5,0,142.58,0s72.21,4.8,98.9,13.52,42.16,20.46,43.57,33A17.25,17.25,0,0,1,285.16,48.44Z"/><path id="void" class="cls-2" d="M284.93,48.55v4.82c0,.11,0,.22,0,.33-.69,26.43-64.15,47.78-142.34,47.78S.94,80.13.24,53.7c0-.14,0-.29,0-.44V48.44a16.82,16.82,0,0,0,.56,4.28A20,20,0,0,0,2.7,57.43C15.13,79.76,73,96.66,142.58,96.66S270,79.76,282.46,57.43a20.48,20.48,0,0,0,1.92-4.71A17.29,17.29,0,0,0,284.93,48.55Z"/><path id="void-2" data-name="void" class="cls-3" d="M284.93,48.44v.11a17.29,17.29,0,0,1-.55,4.17,20.48,20.48,0,0,1-1.92,4.71C270,79.76,212.13,96.66,142.58,96.66S15.13,79.76,2.7,57.43A20,20,0,0,1,.79,52.72a16.82,16.82,0,0,1-.56-4.28,16.57,16.57,0,0,1,.11-1.86h0C3.24,20.81,65.81.23,142.58.23S281.93,20.82,284.82,46.58h0A16.57,16.57,0,0,1,284.93,48.44Z"/><path id="void-3" data-name="void" class="cls-4" d="M207.63,138c0,16.78-29.16,30.43-65,30.43s-65-13.65-65-30.43a14.54,14.54,0,0,1,.36-3.2v.2l0,.45c0,.31,0,.62.08.94l.06.49c0,.32.12.64.19,1l.09.43c.12.46.25.93.41,1.39,1.28,3.71,6.92,10.05,16.3,15.24,8.62,4.77,23.81,10.48,47.26,10.6h1c23.46-.12,38.65-5.83,47.27-10.6,9.39-5.19,15-11.54,16.29-15.24a12.16,12.16,0,0,0,.37-1.31c0-.12.06-.25.08-.37.08-.37.14-.75.19-1.13l0-.19C207.61,137.1,207.63,137.55,207.63,138Z"/><path id="void-4" data-name="void" class="cls-5" d="M207.4,135.42a13.88,13.88,0,0,1-.73,4.16c-.9,2.63-5.44,9.16-16.18,15.1-8.59,4.76-23.75,10.45-47.15,10.57h-1c-23.39-.12-38.55-5.81-47.14-10.57-10.73-5.93-15.28-12.47-16.18-15.1a14.39,14.39,0,0,1-.81-5.9,17,17,0,0,1,3.21-8.21c.29.31.59.61.88.9L83,127l.06.06,0,0,.23.21c10.15,9.43,30.78,18.43,56.71,19h0l2.59,0,1,0c.86,0,1.73,0,2.59,0s1.43,0,2.15-.08c.88,0,1.77-.1,2.65-.17.69,0,1.37-.09,2.06-.15.89-.08,1.78-.18,2.66-.28.68-.08,1.37-.15,2-.24l.45,0,1.82-.26c.57-.08,1.15-.18,1.72-.28l.48-.08c.94-.16,1.9-.33,2.85-.52l1-.23,1.28-.27,1-.22c.91-.21,1.83-.44,2.75-.68l.52-.14,1.27-.34.77-.22.5-.14,1.66-.5,1.32-.42h0c1-.33,2-.67,3-1l.08,0,.15-.06,1.71-.64.12-.05c8.67-3.38,16-7.75,20.83-12.55.39-.38.77-.78,1.13-1.17A17,17,0,0,1,207.4,135.42Z"/><path id="void-5" data-name="void" class="cls-6" d="M204.13,125.18h0c-6.47,7.11-19.92,14.61-37.56,18.4l-1,.22-1.84.35-.61.12-1.66.28-.89.15-1.72.25-.61.09h0c-1.41.19-2.83.35-4.26.49l-.28,0c-1.36.12-2.72.22-4.08.31l-.67,0c-1.33.07-2.67.12-4,.15h-.66c-1.38,0-2.77,0-4.15,0-26.55-.61-46.44-10.08-55.9-18.34h0l-.64-.57c-.64-.59-1.24-1.19-1.8-1.78l-.07-.08a.26.26,0,0,1-.07-.11c.34-10.66,4-19.58,10.93-26.52h0a398.6,398.6,0,0,0,50,3,400.46,400.46,0,0,0,50.53-3.11h0C200.09,105.54,203.79,114.48,204.13,125.18Z"/><path id="void-6" data-name="void" class="cls-7" d="M170.36,105.19c3.58-.53,8.4,3.54,11.81,10.22a35.3,35.3,0,0,1,4,16.53c.1,2.95-11.25,9-18.8,6.89-2.59-.74-3.74-1.18-5.16-12.14-1.53-11.74-2.53-16-2.53-16C158.37,104,168.8,105.42,170.36,105.19Zm-3.7,41.32s1.22,1.72,1.92,6.68c.65,4.62.6,5.39,3.13,5.39,6.22,0,19.27-6.5,20-7.52,2.15-3,.5-5.63-.47-8.69-.91-2.88-3.76-3.66-5.06-2.64C183.59,141.77,169.89,146.09,166.66,146.51Zm8.49,16.59c-1.55-.09-1-.68.71-1.27a73.62,73.62,0,0,0,17.8-7.71c1-.49-1.79,2.68-8.5,5.44S176.35,163.17,175.15,163.1Z"/><path id="fill1" class="cls-8" d="M285.05,46.55c-1.41-12.57-16.88-24.3-43.57-33S179.67,0,142.58,0,70.38,4.8,43.69,13.52,1.53,34,.11,46.55A17.25,17.25,0,0,0,0,48.44v4.82c0,.15,0,.3,0,.45.34,12.89,15.35,25,42.27,34,14.45,4.85,31.45,8.53,50,10.9-6.88,7-10.54,15.91-10.88,26.58A17.53,17.53,0,0,0,78,133.65a15.07,15.07,0,0,0-.65,4.34c0,16.92,29.27,30.68,65.26,30.68s65.26-13.76,65.26-30.68a13.91,13.91,0,0,0-.23-2.58,17.26,17.26,0,0,0-3.26-10.18v0c-.33-10.71-4-19.67-10.94-26.65,18.31-2.38,35.12-6,49.44-10.84,26.92-9,41.93-21.12,42.27-34,0-.11,0-.22,0-.34V48.44A17.25,17.25,0,0,0,285.05,46.55ZM142.62,168.42c-35.85,0-65-13.65-65-30.43a14.54,14.54,0,0,1,.36-3.2v.2l0,.45c0,.31,0,.62.08.94l.06.49c0,.32.12.64.19,1l.09.43c.12.46.25.93.41,1.39,1.28,3.71,6.92,10.05,16.3,15.24,8.62,4.77,23.81,10.48,47.26,10.6h1c23.46-.12,38.65-5.83,47.27-10.6,9.39-5.19,15-11.54,16.29-15.24a12.16,12.16,0,0,0,.37-1.31c0-.12.06-.25.08-.37.08-.37.14-.75.19-1.13l0-.19c0,.44.06.89.06,1.33C207.63,154.77,178.47,168.42,142.62,168.42Zm64-28.84c-.9,2.63-5.44,9.16-16.18,15.1-8.59,4.76-23.75,10.45-47.15,10.57h-1c-23.39-.12-38.55-5.81-47.14-10.57-10.73-5.93-15.28-12.47-16.18-15.1a14.39,14.39,0,0,1-.81-5.9,17,17,0,0,1,3.21-8.21c.29.31.59.61.88.9L83,127l.06.06,0,0,.23.21c10.15,9.43,30.78,18.43,56.71,19h0l2.59,0,1,0c.86,0,1.73,0,2.59,0s1.43,0,2.15-.08c.88,0,1.77-.1,2.65-.17.69,0,1.37-.09,2.06-.15.89-.08,1.78-.18,2.66-.28.68-.08,1.37-.15,2-.24l.45,0,1.82-.26c.57-.08,1.15-.18,1.72-.28l.48-.08c.94-.16,1.9-.33,2.85-.52l1-.23,1.28-.27,1-.22c.91-.21,1.83-.44,2.75-.68l.52-.14,1.27-.34.77-.22.5-.14,1.66-.5h0l1.32-.42h0c1-.33,2-.67,3-1l.08,0,.15-.06,1.71-.64.12-.05c8.67-3.38,16-7.75,20.83-12.55.39-.38.77-.78,1.13-1.17a17,17,0,0,1,3.15,9.95A13.88,13.88,0,0,1,206.67,139.58Zm-2.54-14.4h0c-6.47,7.11-19.92,14.61-37.56,18.4l-1,.22-1.84.35-.61.12-1.66.28-.89.15-1.72.25-.61.09h0c-1.41.19-2.83.35-4.26.49l-.28,0c-1.36.12-2.72.22-4.08.31l-.67,0c-1.33.07-2.67.12-4,.15h-.66c-1.38,0-2.77,0-4.15,0-26.55-.61-46.44-10.08-55.9-18.34h0l-.64-.57c-.64-.59-1.24-1.19-1.8-1.78l-.07-.08a.26.26,0,0,1-.07-.11c.34-10.66,4-19.58,10.93-26.52h0a398.6,398.6,0,0,0,50,3,400.46,400.46,0,0,0,50.53-3.11h0C200.09,105.54,203.79,114.48,204.13,125.18ZM284.7,52.37v1c0,.11,0,.22,0,.33-.33,12.68-15.23,24.61-41.95,33.58-14.48,4.86-31.51,8.55-50.06,10.9a397.8,397.8,0,0,1-50.1,3.07,400,400,0,0,1-49.6-3c-18.74-2.36-35.94-6.06-50.55-11C15.7,78.31.8,66.38.47,53.7c0-.15,0-.29,0-.44v-.9c0,.14.07.28.1.41A20.72,20.72,0,0,0,2.5,57.54C12.29,75.13,49.6,89,97.59,94.42a401.51,401.51,0,0,0,45,2.47,400.15,400.15,0,0,0,45.49-2.53c47.75-5.45,84.83-19.29,94.59-36.82a20.28,20.28,0,0,0,1.94-4.77C284.63,52.64,284.67,52.51,284.7,52.37Zm-.54.29a20.41,20.41,0,0,1-1.9,4.66C272.53,74.8,235.36,88.58,187.51,94a402.59,402.59,0,0,1-44.93,2.46A404.35,404.35,0,0,1,98.14,94C50.06,88.68,12.66,74.86,2.9,57.32A19.93,19.93,0,0,1,1,52.66a16.86,16.86,0,0,1-.55-4.22A16.22,16.22,0,0,1,.57,46.6C2,34.21,17.32,22.62,43.83,14S105.54.46,142.58.46,214.69,5.25,241.34,14c26.5,8.66,41.86,20.26,43.26,32.65.06.61.1,1.22.1,1.83v.11A17,17,0,0,1,284.16,52.66Z"/></g></g></svg>