<svg xmlns="http://www.w3.org/2000/svg" xmlns:xlink="http://www.w3.org/1999/xlink" viewBox="0 0 320.01 251.4"><defs><style>.cls-1{fill:#c6c6c6;}.cls-10,.cls-11,.cls-2,.cls-3,.cls-4,.cls-5,.cls-6,.cls-7,.cls-8,.cls-9{opacity:0.5;}.cls-2{fill:url(#linear-gradient);}.cls-3{fill:url(#linear-gradient-2);}.cls-4{fill:url(#linear-gradient-3);}.cls-5{fill:url(#linear-gradient-4);}.cls-6{fill:url(#linear-gradient-5);}.cls-7{fill:url(#linear-gradient-6);}.cls-8{fill:url(#linear-gradient-7);}.cls-9{fill:url(#linear-gradient-8);}.cls-10{fill:url(#linear-gradient-9);}.cls-11{fill:url(#linear-gradient-10);}.cls-12{fill:#fff;}.cls-12,.cls-13{opacity:0.25;}</style><linearGradient id="linear-gradient" x1="0.3" y1="43.41" x2="319.71" y2="43.41" gradientUnits="userSpaceOnUse"><stop offset="0" stop-color="gray" stop-opacity="0.5"/><stop offset="1" stop-color="#fff" stop-opacity="0.6"/></linearGradient><linearGradient id="linear-gradient-2" x1="0.25" y1="89.52" x2="319.76" y2="89.52" gradientUnits="userSpaceOnUse"><stop offset="0" stop-opacity="0.5"/><stop offset="1" stop-color="#bfbfbf" stop-opacity="0.6"/></linearGradient><linearGradient id="linear-gradient-3" x1="143.99" y1="93.94" x2="175.98" y2="93.94" xlink:href="#linear-gradient"/><linearGradient id="linear-gradient-4" x1="136.79" y1="97.79" x2="183.58" y2="97.79" xlink:href="#linear-gradient"/><linearGradient id="linear-gradient-5" x1="147.36" y1="123.98" x2="173.01" y2="123.98" xlink:href="#linear-gradient"/><linearGradient id="linear-gradient-6" x1="137.23" y1="151.52" x2="182.95" y2="151.52" xlink:href="#linear-gradient"/><linearGradient id="linear-gradient-7" x1="126.89" y1="204.37" x2="193.48" y2="204.37" xlink:href="#linear-gradient"/><linearGradient id="linear-gradient-8" x1="113.82" y1="207.19" x2="206.56" y2="207.19" xlink:href="#linear-gradient"/><linearGradient id="linear-gradient-9" x1="101.6" y1="218.9" x2="218.38" y2="218.9" xlink:href="#linear-gradient"/><linearGradient id="linear-gradient-10" x1="97.57" y1="230.09" x2="222.8" y2="230.09" xlink:href="#linear-gradient"/></defs><g id="Layer_2" data-name="Layer 2"><g id="square-cake-stand-5-iso"><path id="fill2" class="cls-1" d="M320,86.68v5.67a.12.12,0,0,1-.12.12H206.74q-11.33,0-23.11,0a4,4,0,0,1,.43,1.77c0,3.26-4.15,6.22-11.11,7.94a90.4,90.4,0,0,0-3.15,10.08q-.66,2.66-1,5a11.41,11.41,0,0,1,2.44,1.53,5.61,5.61,0,0,1,2.28,4.25c0,2.31-1.81,4.45-5,5.89.81,10.24,3.34,24.87,6.47,32,.48,1.09,1.1,2.38,1.75,3.73,3.22,6.7,8,16.78,6.31,24.56a55.1,55.1,0,0,1,16.2,6.11l.26.17c1.69.68,3.32,1.43,4.83,2.21,5.6,2.88,9.66,6.2,12.07,9.85,4.5,4.2,6.88,8.93,6.88,13.69,0,16.6-28.32,30.1-63.12,30.1s-63.12-13.5-63.12-30.1c0-4.45,2-8.73,5.88-12.72,3-5.26,9.45-9.93,18.65-13.49a56.15,56.15,0,0,1,15.52-5.78c-1.76-7.78,3.08-17.88,6.3-24.59.65-1.36,1.27-2.65,1.75-3.74,3.14-7.15,5.68-21.82,6.48-32.09-3-1.44-4.79-3.54-4.79-5.8a5.47,5.47,0,0,1,2-4,10.85,10.85,0,0,1,2.5-1.65c-.26-1.64-.62-3.4-1.08-5.24a91.8,91.8,0,0,0-3.14-10c-6.82-1.72-10.89-4.66-10.89-7.88a4.07,4.07,0,0,1,.44-1.78H.13A.12.12,0,0,1,0,92.35V86.68a0,0,0,0,0,0,0H0L28.13.08A.11.11,0,0,1,28.25,0H289.14a.12.12,0,0,1,.12.08L320,86.64s0,0,0,0A0,0,0,0,0,320,86.68Z"/><polygon id="void" class="cls-2" points="319.71 86.56 0.3 86.56 28.34 0.26 289.06 0.26 319.71 86.56"/><rect id="void-2" data-name="void" class="cls-3" x="0.25" y="86.81" width="319.51" height="5.41"/><path id="void-3" data-name="void" class="cls-4" d="M145.47,92.46c2.55,1.72,8.17,3,14.52,3s12-1.24,14.51-3Z"/><path id="void-4" data-name="void" class="cls-5" d="M175.31,92.44c-2.39,2-8.25,3.46-15.32,3.46s-12.93-1.39-15.32-3.44h-7.39a3.48,3.48,0,0,0-.49,1.79c0,2.92,3.79,5.64,10.18,7.31l.47.12a56.78,56.78,0,0,0,25.28,0c6.7-1.63,10.86-4.49,10.86-7.48a3.73,3.73,0,0,0-.52-1.82Z"/><path id="void-5" data-name="void" class="cls-6" d="M173,123.09c0,2.15-1.76,4.16-4.84,5.51a21.43,21.43,0,0,1-16.15-.08c-3-1.36-4.66-3.33-4.66-5.43a5,5,0,0,1,1.88-3.67,10.39,10.39,0,0,1,2.25-1.51c.06.38.11.75.15,1.12a1.1,1.1,0,0,1,0,.18c.05.41.09.81.13,1.21v0a1,1,0,0,0,.05.25,2.29,2.29,0,0,0,.08.28,1.86,1.86,0,0,0,.46.7,1.24,1.24,0,0,0,.21.18,1.43,1.43,0,0,0,.24.16l.26.12.71.25.82.25a17.85,17.85,0,0,0,2.6.51c.24,0,.47.06.71.08a20,20,0,0,0,2.06.1,19.55,19.55,0,0,0,7-1.23,2.23,2.23,0,0,0,1.41-1.87c0-.43.09-.89.15-1.35s.09-.71.15-1.07a11.14,11.14,0,0,1,2.21,1.4A5.14,5.14,0,0,1,173,123.09Z"/><path id="void-6" data-name="void" class="cls-7" d="M172.38,102.36a91.54,91.54,0,0,0-3,9.82c-.42,1.72-.77,3.38-1,4.92,0,.11,0,.22-.06.33-.16,1-.28,1.9-.36,2.78a1.73,1.73,0,0,1-.5,1.06,1.82,1.82,0,0,1-.38.29l-.22.1c-.5.19-1,.37-1.56.52a20.18,20.18,0,0,1-2.55.51,21.74,21.74,0,0,1-2.7.17l-1,0q-.75,0-1.47-.12a18.58,18.58,0,0,1-2.75-.52L154,122l-.76-.27-.2-.09a1.53,1.53,0,0,1-.75-1l0-.22c-.08-.91-.2-1.89-.36-2.89l0-.16a.28.28,0,0,1,0-.09v-.08h0c-.25-1.6-.61-3.32-1.06-5.12a93.42,93.42,0,0,0-3-9.75l.87.19.19,0c.48.1,1,.2,1.46.28l.95.16c.31.06.62.1.93.14.51.07,1,.14,1.55.19s1,.11,1.58.15c1,.09,2.1.15,3.17.18l1.71,0c1.62,0,3.22-.06,4.78-.19l1.09-.1c.67-.06,1.33-.14,2-.23q.61-.08,1.2-.18a2.63,2.63,0,0,0,.39-.06c.23,0,.46-.07.68-.12q.56-.09,1.08-.21ZM176.31,165c-.66-1.36-1.28-2.65-1.76-3.75-3.13-7.13-5.67-21.71-6.5-32l-.31.12-.53.2-.1,0c-.28.1-.56.19-.85.27l-.9.24-.2,0-.83.17c-.66.12-1.34.22-2,.28s-1.4.09-2.11.09a22.81,22.81,0,0,1-3.73-.3l-.68-.12a17.2,17.2,0,0,1-1.94-.49,2.4,2.4,0,0,1-.38-.12l-.74-.26-.46-.18-.13-.05c-.82,10.29-3.36,24.9-6.51,32.06-.48,1.1-1.1,2.39-1.76,3.76-3.22,6.71-8.09,16.86-6.21,24.5a10.69,10.69,0,0,0,.36,1.21.88.88,0,0,0,.05.15l0,.09.09.23a10.16,10.16,0,0,0,1,1.94c.18.28.37.55.57.82a13.09,13.09,0,0,0,3.52,3.09c4.24,2.61,9.23,3.73,16.71,3.74h.2c7.47,0,12.47-1.13,16.7-3.74a13.19,13.19,0,0,0,3.62-3.22c.18-.24.34-.48.49-.72a11.66,11.66,0,0,0,1-2l.07-.17,0,0,0-.09,0-.1.06-.2c.12-.35.21-.69.3-1l.05-.24a15.21,15.21,0,0,0,.36-3.4C183,178.77,179,170.63,176.31,165Z"/><path id="void-7" data-name="void" class="cls-8" d="M193.48,202.42c0,8.31-14.93,15.07-33.29,15.07s-33.3-6.76-33.3-15.07c0-2.58,1.48-5.12,4.27-7.37a21.42,21.42,0,0,1,2.15-1.51l.8-.47a.53.53,0,0,1,.1-.06c.52-.3,1.06-.58,1.63-.85l.92-.43.91-.4.05,0,.12.28a11.16,11.16,0,0,0,.93,1.74c.19.29.39.58.6.85a13.42,13.42,0,0,0,3.65,3.21A25.46,25.46,0,0,0,154,200.9l.77.08q1.71.17,3.63.21l1.15,0h1.16l1.13,0c1.28,0,2.48-.1,3.62-.21l.89-.1a25.41,25.41,0,0,0,10.84-3.49,13.67,13.67,0,0,0,3.75-3.34c.18-.25.35-.49.52-.75a11.67,11.67,0,0,0,.82-1.52c.07-.16.13-.31.2-.46l0-.08c.38.15.76.31,1.12.48l.82.38c.28.13.54.26.8.4s.41.21.61.33a3.24,3.24,0,0,1,.36.2c.28.15.56.32.82.48a15,15,0,0,1,1.28.85q.48.33.93.69C192,197.3,193.48,199.84,193.48,202.42Z"/><path id="void-8" data-name="void" class="cls-9" d="M206.56,206c0,10.28-20.8,18.63-46.37,18.63s-46.37-8.35-46.37-18.63a9.06,9.06,0,0,1,2.2-5.67,20.72,20.72,0,0,1,5.35-4.5l.46-.28a55.65,55.65,0,0,1,15.39-5.73c.05.16.09.32.14.48s.12.38.19.56a32.28,32.28,0,0,0-3.77,1.84c-.52.3-1,.6-1.47.91s-1,.7-1.46,1.07c-2.92,2.35-4.46,5-4.46,7.76,0,8.58,15.16,15.57,33.8,15.57S194,211,194,202.42c0-2.73-1.54-5.41-4.45-7.76a25.92,25.92,0,0,0-5-3.07l-1-.45-.86-.37a.74.74,0,0,0,0-.14c.09-.26.17-.53.24-.8,0,0,0-.05,0-.07a54.29,54.29,0,0,1,16,6.05l.27.17a20.14,20.14,0,0,1,5.08,4.33A9,9,0,0,1,206.56,206Z"/><path id="void-9" data-name="void" class="cls-10" d="M218.38,215.22c0,14.35-26.2,26-58.39,26s-58.39-11.68-58.39-26a12.84,12.84,0,0,1,1.76-6.36c2.67-4.71,8.18-8.94,16-12.32l-.56.42c-.18.13-.36.27-.53.42a16.88,16.88,0,0,0-2.65,2.62,9.49,9.49,0,0,0-2.31,6c0,10.55,21,19.13,46.87,19.13s46.87-8.58,46.87-19.13a9.5,9.5,0,0,0-2.32-6c-.16-.2-.32-.39-.49-.58a18.37,18.37,0,0,0-2.43-2.26l-.22-.18c.87.4,1.72.81,2.53,1.23,5.53,2.85,9.53,6.11,11.9,9.7A13.21,13.21,0,0,1,218.38,215.22Z"/><path id="void-10" data-name="void" class="cls-11" d="M222.8,221.3c0,16.32-28.09,29.6-62.61,29.6s-62.62-13.28-62.62-29.6c0-3.85,1.54-7.58,4.58-11.11a9.88,9.88,0,0,0-.39,1c-.07.2-.13.4-.18.59l0,.1c-.07.26-.13.52-.19.78s-.08.42-.11.63-.06.4-.08.6a.27.27,0,0,0,0,.09,4.57,4.57,0,0,0,0,.52c0,.23,0,.46,0,.69,0,14.63,26.41,26.53,58.89,26.53s58.89-11.9,58.89-26.53c0-.32,0-.64,0-1v0c0-.25-.05-.5-.09-.74a3.07,3.07,0,0,0-.07-.42,1.88,1.88,0,0,0-.06-.31,4.64,4.64,0,0,0-.11-.51,12.34,12.34,0,0,0-.47-1.5c-.09-.24-.19-.49-.3-.73s-.19-.44-.3-.65a.59.59,0,0,0,0-.08C221,213.06,222.8,217.1,222.8,221.3Z"/><path id="void-11" data-name="void" class="cls-12" d="M162.23,159.75c2-3.1,4.67,2,5.6,6C170.18,176,175,182.2,175,193.85c0,2.72-11.36,4.65-12.41,3.72s-.71-31.46-.71-31.46A60.9,60.9,0,0,1,162.23,159.75Zm1.36,67.55c-.52.48.09,10.53,1.1,11.09s19.52-.79,20-1.9-4.1-4.41-5.86-8.92C178.3,226.14,164.85,226.12,163.59,227.3Zm16,19.38c7.53-1.51,14.84-4,15.56-4.56.49-.38-7.7,1.23-16,2.55-7.41,1.19-14.93,2-15.19,2.9C163.62,248.8,171.69,248.25,179.56,246.68Zm-6.68-24.17c5.59-.87,10.25-2.13,7.51-2.22-1,0-4.7.93-8.11,1.2s-6.81.54-7.49.62c-1.39.14-1.92.77-.75,1.07C164.93,223.41,167.29,223.38,172.88,222.51Zm-8.74-95.18c2.85-.3,6.44-2.64,5.1-2.66-.32,0-3.5.72-6.07,1.12-2.81.43-4.38.44-4.4.8C158.71,128,161.29,127.63,164.14,127.33Zm-1.41,76.74c-.38.48.07,10.3.82,10.84s14.4-.77,14.77-1.85-3-4.31-4.32-8.72C173.58,202.94,163.66,202.92,162.73,204.07Zm2.54-102.68c2.85-.3,9.71-2.08,8.37-2.1-.32,0-5.11.46-9.33.56-2.85.07-4.38.44-4.4.81C159.84,102,162.42,101.69,165.27,101.39Z"/><path id="fill1" class="cls-13" d="M320,86.66a0,0,0,0,0,0,0L289.26.08a.12.12,0,0,0-.12-.08H28.25a.11.11,0,0,0-.12.09L0,86.65H0s0,0,0,0v5.66a.12.12,0,0,0,.13.12H127.35l9.37,0a4,4,0,0,0-.44,1.77c0,3.22,4.07,6.16,10.89,7.88a92.55,92.55,0,0,1,3.14,10q.69,2.78,1.08,5.24a10.85,10.85,0,0,0-2.5,1.65,5.47,5.47,0,0,0-2,4c0,2.26,1.75,4.37,4.79,5.8-.8,10.27-3.34,24.94-6.48,32.09-.48,1.1-1.1,2.38-1.75,3.74-3.22,6.71-8.06,16.81-6.3,24.6a55.84,55.84,0,0,0-15.52,5.77c-9.2,3.56-15.65,8.23-18.65,13.5-3.9,4-5.88,8.26-5.88,12.71,0,16.6,28.32,30.1,63.12,30.1s63.12-13.5,63.12-30.1c0-4.76-2.38-9.49-6.88-13.69-2.41-3.65-6.47-7-12.07-9.85-1.51-.78-3.14-1.52-4.83-2.21l-.26-.16a54.82,54.82,0,0,0-16.2-6.12c1.74-7.78-3.09-17.86-6.31-24.55-.65-1.36-1.27-2.65-1.75-3.74-3.13-7.12-5.66-21.76-6.47-32,3.16-1.44,5-3.57,5-5.89a5.61,5.61,0,0,0-2.28-4.25,11.82,11.82,0,0,0-2.44-1.53q.38-2.37,1-5A91.11,91.11,0,0,1,173,102.2c7-1.72,11.11-4.68,11.11-7.94a4,4,0,0,0-.43-1.76c7.86,0,15.56,0,23.11,0H319.89a.12.12,0,0,0,.12-.12V86.69S320,86.67,320,86.66ZM28.34.25H289.06l30.65,86.31H.3ZM222.79,221.3c0,16.32-28.09,29.6-62.62,29.6s-62.62-13.28-62.62-29.6c0-3.85,1.54-7.58,4.58-11.11v0a11.22,11.22,0,0,0-.41,1.1,2.76,2.76,0,0,0-.08.27c-.11.36-.21.71-.29,1.07a.09.09,0,0,1,0,0,10.82,10.82,0,0,0-.17,1.12l0,.27a10.84,10.84,0,0,0-.06,1.13c0,14.63,26.42,26.53,58.89,26.53s58.89-11.9,58.89-26.53a12.19,12.19,0,0,0-.08-1.34c0-.1,0-.2,0-.3a11.61,11.61,0,0,0-.24-1.31,1.09,1.09,0,0,0-.05-.17,10.69,10.69,0,0,0-.37-1.18c0-.1-.06-.19-.1-.29-.16-.42-.35-.85-.56-1.27l0-.08C221,213.06,222.79,217.1,222.79,221.3Zm-18.67-23.09c5.53,2.85,9.53,6.11,11.89,9.7a13.21,13.21,0,0,1,2.35,7.31c0,14.36-26.19,26-58.39,26s-58.39-11.67-58.39-26a12.75,12.75,0,0,1,1.77-6.36h0c2.67-4.7,8.18-8.93,16-12.31-.44.33-.86.65-1.26,1l-.33.29c-.3.27-.59.53-.86.8-.11.1-.22.2-.32.31-.34.36-.67.71-1,1.08a9.5,9.5,0,0,0-2.32,6c0,10.55,21,19.14,46.87,19.14S207,216.53,207,206a9.55,9.55,0,0,0-2.31-6c-.28-.35-.6-.69-.92-1l-.25-.25c-.34-.34-.69-.68-1.08-1h0c-.29-.24-.58-.48-.89-.72C202.45,197.38,203.3,197.79,204.12,198.21Zm-5.14-2.4.28.17a20.32,20.32,0,0,1,5.08,4.33,9.06,9.06,0,0,1,2.2,5.67c0,10.28-20.8,18.64-46.37,18.64S113.8,216.26,113.8,206a9,9,0,0,1,2.21-5.67,20.69,20.69,0,0,1,5.34-4.5l.46-.27h0a55.61,55.61,0,0,1,15.4-5.73c.09.36.2.7.32,1l-1,.45-.85.38c-.38.18-.72.37-1.07.56l-.72.38c-.39.21-.74.44-1.09.67-.18.11-.37.21-.53.33a16.42,16.42,0,0,0-1.45,1.06c-2.91,2.34-4.46,5-4.46,7.75,0,8.59,15.16,15.57,33.8,15.57s33.8-7,33.8-15.57c0-2.73-1.54-5.41-4.46-7.75q-.69-.55-1.47-1.08c-.2-.14-.43-.27-.65-.4s-.64-.41-1-.61-.59-.31-.89-.46-.62-.33-.95-.49-.59-.27-.89-.4-.67-.31-1-.46c.12-.33.22-.67.31-1A54.61,54.61,0,0,1,199,195.81ZM160,201.22h1.64l.72,0,.6,0,.71,0,.56,0,.7-.06.52,0,.67-.07.51-.06.66-.09.46-.07.65-.11.44-.08.62-.12.43-.09.6-.15.4-.1.58-.17.4-.11.54-.18.4-.13.53-.2.38-.15.51-.21.37-.16.5-.24.36-.17L176,198l.32-.17q.4-.23.81-.48a13.51,13.51,0,0,0,3.75-3.34,7.71,7.71,0,0,0,.52-.75,10,10,0,0,0,.6-1.06c.06-.12.11-.25.17-.37s.2-.41.28-.62c.36.14.69.3,1,.45s.58.24.85.37.71.37,1.06.55.5.25.74.39.7.42,1.05.64l.57.35c.51.34,1,.7,1.44,1.06,2.79,2.24,4.27,4.79,4.27,7.36,0,8.31-14.94,15.07-33.3,15.07s-33.3-6.76-33.3-15.07c0-2.57,1.48-5.12,4.27-7.36.44-.36.92-.7,1.42-1,.17-.12.37-.23.56-.35.34-.21.67-.42,1-.63s.47-.25.71-.37.68-.37,1-.55.54-.24.82-.37l1-.43c.08.21.19.41.28.62s.11.24.16.35c.19.36.38.71.6,1.05s.39.57.6.84a13.73,13.73,0,0,0,3.65,3.21c.27.17.54.33.82.48l.33.18.5.27.38.18.48.23.4.17.48.2.41.16.5.19.44.14.5.17.48.14.49.14.51.12c.17,0,.33.09.5.12l.54.12.5.1.56.1.53.09.58.08.54.08.61.07.56.06.63.05.6.05.62,0,.65,0,.6,0,.74,0H160Zm14.5-40c.49,1.1,1.11,2.39,1.76,3.75,3.22,6.7,8.08,16.83,6.23,24.47h0a10.77,10.77,0,0,1-.38,1.26.88.88,0,0,1,0,.15l0,.05h0c-.1.27-.22.53-.34.79,0,.1-.09.21-.14.32A9.84,9.84,0,0,1,181,193c-.16.25-.32.48-.5.72a13.14,13.14,0,0,1-3.61,3.22c-.27.16-.53.32-.81.47-3.79,2.12-8.24,3.12-14.53,3.26l-1.37,0H160c-7.47,0-12.47-1.14-16.71-3.75a13.2,13.2,0,0,1-3.51-3.09c-.2-.26-.4-.54-.58-.82a8.94,8.94,0,0,1-.6-1.05,11.52,11.52,0,0,1-.47-1.07l0-.14a9.78,9.78,0,0,1-.42-1.36h0c-1.87-7.65,3-17.79,6.22-24.5.65-1.37,1.27-2.66,1.76-3.76,3.14-7.15,5.68-21.77,6.51-32.06l.13,0a17.06,17.06,0,0,0,1.62.58l.2.06c.58.16,1.18.31,1.79.43l.18,0c.63.12,1.28.21,1.94.27h.11c.69.06,1.38.1,2.08.1h0c.73,0,1.46,0,2.16-.1.23,0,.45-.07.67-.09.48-.06.95-.12,1.41-.2.26,0,.51-.13.76-.18.41-.1.81-.19,1.2-.3s.51-.18.77-.27.61-.19.89-.31C168.86,139.47,171.4,154.05,174.53,161.18Zm-3.64-41.95a5.09,5.09,0,0,1,2.1,3.86c0,2.15-1.76,4.16-4.84,5.51a21.3,21.3,0,0,1-16.15-.08h0c-3-1.36-4.66-3.33-4.66-5.43a5,5,0,0,1,1.88-3.67,11,11,0,0,1,2.25-1.51c0,.25.07.5.1.74s.05.31.07.46l.12,1.17a1.1,1.1,0,0,0,0,.18,1.94,1.94,0,0,0,1.22,1.66l.05,0h0c.29.11.61.2.92.29s.42.15.64.21.69.16,1,.24l.67.14c.38.07.78.11,1.17.15l.61.08c.61,0,1.23.08,1.85.08s1.25,0,1.87-.08l.55-.07c.42,0,.84-.09,1.25-.16.18,0,.35-.09.53-.12.4-.08.8-.16,1.19-.27.16,0,.31-.11.47-.16.39-.11.77-.23,1.13-.37h0a2.24,2.24,0,0,0,1.42-1.87h0c0-.41.08-.83.13-1.26,0-.15,0-.3.07-.45s.06-.46.1-.7A10.8,10.8,0,0,1,170.89,119.23Zm-1.58-7.07c-.42,1.73-.76,3.38-1,4.93h0l0,.33c-.08.48-.14,1-.2,1.42s-.11.92-.15,1.36a1.76,1.76,0,0,1-1.11,1.46,18,18,0,0,1-4.87,1.1h-.12c-.6,0-1.21.08-1.82.08s-1.21,0-1.8-.08c-.21,0-.4-.05-.61-.07-.38,0-.76-.09-1.13-.15s-.45-.1-.67-.15-.67-.13-1-.22-.44-.14-.66-.21-.6-.18-.88-.29a1.51,1.51,0,0,1-1-1.29c0-.25-.05-.52-.08-.78s0-.41-.07-.62c-.06-.49-.13-1-.2-1.48l-.06-.34h0c-.26-1.61-.62-3.33-1.06-5.13a93.66,93.66,0,0,0-3-9.75l.21,0c.83.19,1.69.37,2.57.52l.32.05c.91.15,1.83.28,2.77.38l.26,0c1,.1,2,.18,3,.24H157c1,0,2.1.08,3.16.08s2.19,0,3.27-.09c.37,0,.73-.06,1.1-.09.7,0,1.4-.09,2.09-.17l1.26-.17c.61-.08,1.21-.15,1.8-.25l1.28-.26c.47-.09.94-.17,1.39-.27A97.31,97.31,0,0,0,169.31,112.16Zm3.39-10.41a57,57,0,0,1-25.28-.06c-6.66-1.66-10.64-4.44-10.64-7.43a3.62,3.62,0,0,1,.5-1.77h7.39c2.42,2,8.28,3.42,15.3,3.42s12.88-1.39,15.3-3.41h7.8a3.68,3.68,0,0,1,.49,1.76C183.56,97.25,179.4,100.12,172.7,101.75Zm-27.18-9.27h28.9c-2.58,1.7-8.15,2.91-14.45,2.91S148.1,94.19,145.52,92.48Zm174.24-.26H.25V86.81H319.76Z"/></g></g></svg>