<svg xmlns="http://www.w3.org/2000/svg" xmlns:xlink="http://www.w3.org/1999/xlink" viewBox="0 0 285.15 225.84"><defs><style>.cls-1{fill:#c6c6c6;}.cls-2,.cls-3,.cls-4,.cls-5,.cls-6,.cls-7,.cls-8{opacity:0.5;}.cls-2{fill:url(#linear-gradient);}.cls-3{fill:url(#linear-gradient-2);}.cls-4{fill:url(#linear-gradient-3);}.cls-5{fill:url(#linear-gradient-4);}.cls-6{fill:url(#linear-gradient-5);}.cls-7{fill:url(#linear-gradient-6);}.cls-8{fill:url(#linear-gradient-7);}.cls-9{fill:#fff;}.cls-10,.cls-9{opacity:0.25;}</style><linearGradient id="linear-gradient" x1="122.11" y1="116.2" x2="163.53" y2="116.2" gradientUnits="userSpaceOnUse"><stop offset="0" stop-color="gray" stop-opacity="0.5"/><stop offset="1" stop-color="#fff" stop-opacity="0.6"/></linearGradient><linearGradient id="linear-gradient-2" x1="86.79" y1="204.6" x2="198.64" y2="204.6" xlink:href="#linear-gradient"/><linearGradient id="linear-gradient-3" x1="95.71" y1="190.62" x2="189.87" y2="190.62" xlink:href="#linear-gradient"/><linearGradient id="linear-gradient-4" x1="115.54" y1="150.13" x2="170.05" y2="150.13" xlink:href="#linear-gradient"/><linearGradient id="linear-gradient-5" x1="126.95" y1="109.49" x2="158.68" y2="109.49" xlink:href="#linear-gradient"/><linearGradient id="linear-gradient-6" x1="0.3" y1="48.56" x2="285" y2="48.56" xlink:href="#linear-gradient"/><linearGradient id="linear-gradient-7" x1="0.08" y1="74.98" x2="284.78" y2="74.98" gradientUnits="userSpaceOnUse"><stop offset="0" stop-opacity="0.5"/><stop offset="1" stop-color="#bfbfbf" stop-opacity="0.6"/></linearGradient></defs><g id="Layer_2" data-name="Layer 2"><g id="round-cake-stand-4-iso"><path id="fill2" class="cls-1" d="M285.05,46.55c-1.42-12.58-16.89-24.3-43.58-33S179.66,0,142.58,0,70.37,4.8,43.68,13.52,1.52,34,.11,46.55A15,15,0,0,0,0,48.44v5.27c.34,12.89,15.36,25,42.27,34C65.4,95.49,95,100.25,127,101.42h-.48l.07.28a51.72,51.72,0,0,1,.75,7c-1.88.92-5.81,3.89-5.37,6.43.1,2.38,2,4.42,5.59,5.91-.14,9.63-1.21,32.75-8,43.4-2.78,1-7.65,3.1-9.61,5.65-1.51,2-5.75,8-9.24,13.47C96,185.45,85.39,194,86.39,201.68c.5,7.84,6.42,13.91,17.61,18,9.51,3.52,22.57,5.57,38.81,6.11h.24v-.05c23.09-.44,48.93-6.22,54.79-18.19,2.45-5,1.32-10.74-3.37-17-2.53-3.61-8.93-6.84-10.36-7.53-3.48-5.42-7.34-11.06-8.79-12.94-1.94-2.53-6.8-4.87-9.57-6l0-.05c-6.52-11-7.55-33.53-7.68-42.92,3.6-1.49,5.56-3.53,5.67-5.92.41-2.58-3.51-5.47-5.44-6.26a51.2,51.2,0,0,1,.79-7.24l.06-.28h-.93c31.93-1.17,61.55-5.93,84.68-13.7,26.92-9,41.93-21.12,42.27-34V48.44A17.22,17.22,0,0,0,285.05,46.55ZM120.11,164.45a2.39,2.39,0,0,1,.13-.21h0Zm64.48,19.38.16.27-.17-.27Zm-19.18-19.44.06.11-.07-.11-.25-.43Zm-.36-.6a.3.3,0,0,1,0,.08l-.05-.09Zm-6.8-54.36h0c0,.23,0,.46,0,.69Z"/><path id="void" class="cls-2" d="M163.5,115.17c-.46,10.92-40.89,10.93-41.35,0-.47-2.68,3.75-5.7,5.25-6.14a15.33,15.33,0,0,0,.41,4.31c2.61,3.76,9.81,4.24,15,4.41,5.2-.16,12.4-.65,15-4.41a15.55,15.55,0,0,0,.42-4.31C159.76,109.48,163.93,112.48,163.5,115.17Z"/><path id="void-2" data-name="void" class="cls-3" d="M197.42,207.4c-5.79,11.83-31.6,17.54-54.61,17.94l-.17,0c-16.1-.54-29-2.59-38.48-6.07-11-4.07-16.82-10-17.31-17.66-.94-7.17,8.58-15.09,13.39-17.34l-1,1.66-.45.73,0,0c-.23.37-.45.73-.65,1.07-.9,1.49-1.56,2.68-2,3.57a.82.82,0,0,0-.09.19,7.51,7.51,0,0,0-.39,1,.5.5,0,0,0,0,.13h0a2.25,2.25,0,0,0,0,.22c-1.2,7.1,1.91,12.81,9.23,17,.5.28,1,.56,1.56.83.8.41,1.65.79,2.53,1.16s1.81.71,2.76,1l1,.32a63.54,63.54,0,0,0,7.64,1.93c.62.13,1.26.24,1.9.35a99.7,99.7,0,0,0,10.51,1.19l2.08.11c1.88.09,3.8.13,5.75.13,2.25,0,4.56,0,6.9-.17,2.64-.13,5.23-.33,7.72-.6q1.22-.12,2.4-.27c2.1-.26,4.14-.57,6.09-.93q.81-.14,1.59-.3c1.44-.28,2.82-.58,4.15-.91l1.14-.29,1.13-.31,1.07-.32h0l1-.32h0c.68-.22,1.35-.45,2-.68h0l1.38-.54h0q.9-.36,1.71-.75a22.14,22.14,0,0,0,2.24-1.18h0c.33-.2.65-.4,1-.61s.78-.57,1.13-.86c3.9-2.53,5.8-5.31,6.64-7.84a11.23,11.23,0,0,0,.55-4.39c0-.27-.05-.52-.08-.77s-.08-.48-.12-.71c0-.07,0-.14,0-.22s-.06-.28-.1-.41-.14-.5-.21-.71a40.6,40.6,0,0,0-3.4-6.22l-.12-.19h0l-.25-.39a.64.64,0,0,0-.06-.11l-1-1.58c-.06-.08-.11-.17-.17-.26l-.17-.27h0c2,1,7.34,3.95,9.51,7C198.68,197,199.8,202.55,197.42,207.4Z"/><path id="void-3" data-name="void" class="cls-4" d="M189.71,198.36c-.06.32-.13.66-.22,1,0,.11-.07.23-.1.34s-.15.46-.24.69a10.76,10.76,0,0,1-.47,1.06,3.9,3.9,0,0,1-.19.35l-.2.37c-.15.24-.3.49-.48.73l-.18.26c-.1.15-.22.3-.34.45s-.44.55-.69.81l-.25.27a19.94,19.94,0,0,1-3.5,2.85l0,0a22.77,22.77,0,0,1-6.16,3.4l-1.07.4h0c-.37.14-.74.27-1.12.39l-1.16.38-1.22.37-1.26.35c-.42.12-.86.23-1.3.34-.66.17-1.33.33-2,.48-.23.05-.46.11-.69.15-.41.1-.81.18-1.22.26s-.61.13-.91.18h0l-1.46.28-1.49.25-1.53.24c-1,.16-2.06.3-3.12.43l-1.59.18h0l-1.61.17h0c-.54.06-1.09.11-1.63.15h0c-1.09.1-2.19.18-3.3.25l-1.67.09-1.68.07c-.56,0-1.12,0-1.69.06-1.12,0-2.25,0-3.38,0a109.68,109.68,0,0,1-19.58-1.64c-1.53-.28-3-.6-4.48-1-1.08-.27-2.14-.56-3.17-.88-.68-.21-1.36-.43-2-.66a37.73,37.73,0,0,1-6.31-2.84c-7.14-4.08-10.17-9.64-9-16.52.12-.72,1.1-2.87,5.08-9.05.13-.2.26-.39.38-.6,3.42-5.27,7.43-11,8.89-12.91,1.75-2.29,6-4.2,8.81-5.27-.18.26-.36.51-.55.75l-.23.3a13.87,13.87,0,0,1-1,1.12l-.23.22-.26.23-.53.44c-.09.06-.17.13-.26.18a6.18,6.18,0,0,1-.53.36l0,0,0,0a2.45,2.45,0,0,0,0,2.53c1.73,3.31,9.74,7.19,23.24,7.88a30.22,30.22,0,0,0,3,.19,25.18,25.18,0,0,0,2.6,0h.06c14.22-.29,23.71-4.2,25.73-7.92a2.47,2.47,0,0,0,0-2.59l0,0,0,0a9.86,9.86,0,0,1-1.55-1.19c-.14-.13-.29-.27-.43-.42l-.33-.36c-.16-.16-.3-.34-.45-.51l-.05-.06-.23-.3c-.18-.22-.35-.46-.52-.69s-.23-.35-.35-.53c2.79,1.23,7,3.37,8.78,5.64,1.39,1.83,5.08,7.2,8.46,12.46l.33.51,1.79,2.83v0l0,0h0l.25.4.12.2a42.8,42.8,0,0,1,3.36,6.12A11.08,11.08,0,0,1,189.71,198.36Z"/><path id="void-4" data-name="void" class="cls-5" d="M169.71,171.28c-2,3.6-11.29,7.39-25.34,7.67h-.06a24.8,24.8,0,0,1-2.58,0,30.22,30.22,0,0,1-3-.19c-13.31-.68-21.18-4.43-22.86-7.63a2,2,0,0,1-.06-2,13.57,13.57,0,0,0,4.1-4.29l.22-.36a2.39,2.39,0,0,1,.13-.21c6.5-10.9,7.58-33.34,7.72-43l.72.27c.3.11.62.21.95.31l.7.21.58.15.39.1.78.19.88.18.23,0,.69.13.74.13h.06l.64.09c.75.1,1.52.19,2.3.27l.52,0,.61,0c1.34.1,2.71.15,4.08.15.68,0,1.35,0,2,0l.84,0q1.09,0,2.16-.15l.76-.07,1.25-.14.57-.09L151,123l.73-.13.92-.17.71-.14,1.06-.25.85-.22,1.11-.34.49-.16.67-.24.09,0c.14,9.39,1.17,31.33,7.45,42.49a.3.3,0,0,1,0,.08.24.24,0,0,1,.06.09l.26.43.06.11.18.29.19.3A16.37,16.37,0,0,0,167,166.6l.19.24a11.73,11.73,0,0,0,2.66,2.35A2,2,0,0,1,169.71,171.28Z"/><path id="void-5" data-name="void" class="cls-6" d="M158.68,101.41a61.47,61.47,0,0,0-.85,7.36l0,.31c-.07,1.34-.13,2.72-.17,4.11v0c-2.35,3.39-8.63,4.07-13.84,4.27l-.49,0-.48,0c-.74,0-1.71-.06-2.71-.12h-.06l-.8,0v.22l0-.23c-5.93-.45-9.59-1.8-11.19-4.09a1.92,1.92,0,0,1-.11-.34c0-1.38-.09-2.73-.15-4l0-.34a60.64,60.64,0,0,0-.79-7.12Z"/><path id="void-6" data-name="void" class="cls-7" d="M285,48.56v.11a17.36,17.36,0,0,1-.55,4.17,20.48,20.48,0,0,1-1.92,4.71C270.1,79.88,212.2,96.78,142.65,96.78S15.2,79.88,2.77,57.55A20,20,0,0,1,.86,52.84,16.82,16.82,0,0,1,.3,48.56,16.57,16.57,0,0,1,.41,46.7h0C3.31,20.93,65.88.35,142.65.35S282,20.94,284.89,46.7h0A16.57,16.57,0,0,1,285,48.56Z"/><path id="void-7" data-name="void" class="cls-8" d="M284.78,48.57v4.82c0,.11,0,.22,0,.33-.69,26.43-64.16,47.78-142.34,47.78S.78,80.15.09,53.72c0-.14,0-.29,0-.44V48.46a16.82,16.82,0,0,0,.56,4.28,20,20,0,0,0,1.91,4.71C15,79.78,72.88,96.68,142.43,96.68s127.45-16.9,139.88-39.23a20.48,20.48,0,0,0,1.92-4.71A17.29,17.29,0,0,0,284.78,48.57Z"/><path id="void-8" data-name="void" class="cls-9" d="M145.73,142.56c.8-.64,5.39,3.92,6.12,5.27s1.67,11,6.83,25.42c.45,1.26-12.22,2.6-13.26,1.66s0-30.76,0-30.76C145.46,142.9,145.42,142.82,145.73,142.56Zm-.13,48.7c-.57,1-.77,17.67.35,18.78s22.4,1.82,23-.4-4.53-8.82-6.46-17.84C161.83,188.94,147,188.9,145.6,191.26Zm16.93,29.35c7.53-1.51,14.84-4,15.57-4.56.49-.38-7.71,1.23-16,2.55-7.4,1.19-14.92,2-15.18,2.91C146.59,222.73,154.67,222.18,162.53,220.61Zm-8.31-38.77c5.59-.87,8.19-2.83,7.37-2.65-3.29,1-13.6,2.14-15,2.28s-1.8,1.09-.64,1.38C146.87,183.08,148.63,182.71,154.22,181.84ZM149,121.52c2.85-.3,7.35-1.35,6.15-2s-12.72.23-12.3,1.43S146.13,121.82,149,121.52Z"/><path id="fill1" class="cls-10" d="M285.05,46.55c-1.42-12.58-16.89-24.3-43.58-33S179.66,0,142.58,0,70.37,4.8,43.68,13.52,1.52,34,.11,46.55A15,15,0,0,0,0,48.44v5.27c.34,12.89,15.36,25,42.27,34,23,7.73,52.44,12.48,84.18,13.68a.17.17,0,0,0,0,.1,0,0,0,0,0,0,0l0,.18a51.72,51.72,0,0,1,.75,7c-1.88.92-5.81,3.89-5.37,6.43.1,2.38,2,4.42,5.59,5.91-.14,9.63-1.21,32.75-8,43.4-2.78,1-7.65,3.1-9.61,5.65-1.51,2-5.75,8-9.24,13.47C96,185.45,85.39,194,86.39,201.68c.5,7.84,6.42,13.91,17.61,18,9.51,3.52,22.57,5.57,38.81,6.11h.24v-.05c23.09-.44,48.93-6.22,54.79-18.19,2.45-5,1.32-10.74-3.37-17-2.53-3.61-8.93-6.84-10.36-7.53-3.48-5.42-7.34-11.06-8.79-12.94-1.94-2.53-6.8-4.87-9.57-6l0-.05c-6.52-11-7.55-33.53-7.68-42.92,3.6-1.49,5.56-3.53,5.67-5.92.41-2.58-3.51-5.47-5.44-6.26a51.2,51.2,0,0,1,.79-7.24l0-.2a.2.2,0,0,0,0-.08.06.06,0,0,0,0,0c31.56-1.23,60.82-6,83.72-13.66,26.92-9,41.93-21.12,42.27-34V48.44A17.22,17.22,0,0,0,285.05,46.55ZM184.59,183.83c2,1,7.34,3.95,9.51,7,4.58,6.11,5.7,11.67,3.32,16.52-5.79,11.83-31.6,17.54-54.61,17.94l-.17,0c-16.1-.54-29-2.59-38.48-6.07-11-4.07-16.82-10-17.31-17.66-.94-7.17,8.58-15.09,13.39-17.34l-1,1.66-.45.73,0,0c-.23.37-.45.73-.65,1.07-.9,1.49-1.56,2.68-2,3.57a.82.82,0,0,0-.09.19,7.51,7.51,0,0,0-.39,1,.5.5,0,0,0,0,.13h0a2.25,2.25,0,0,0,0,.22c-1.2,7.1,1.91,12.81,9.23,17,.5.28,1,.56,1.56.83.8.41,1.65.79,2.53,1.16s1.81.71,2.76,1l1,.32a63.54,63.54,0,0,0,7.64,1.93c.62.13,1.26.24,1.9.35a99.7,99.7,0,0,0,10.51,1.19l2.08.11c1.88.09,3.8.13,5.75.13,2.25,0,4.56,0,6.9-.17,2.64-.13,5.23-.33,7.72-.6q1.22-.12,2.4-.27c2.1-.26,4.14-.57,6.09-.93q.81-.14,1.59-.3c1.44-.28,2.82-.58,4.15-.91l1.14-.29,1.13-.31,1.07-.32h0l1-.32h0c.68-.22,1.35-.45,2-.68h0l1.38-.54h0q.9-.36,1.71-.75a22.14,22.14,0,0,0,2.24-1.18h0c.33-.2.65-.4,1-.61s.78-.57,1.13-.86c3.9-2.53,5.8-5.31,6.64-7.84a11.23,11.23,0,0,0,.55-4.39c0-.27-.05-.52-.08-.77s-.08-.48-.12-.71c0-.07,0-.14,0-.22s-.06-.28-.1-.41-.14-.5-.21-.71a40.6,40.6,0,0,0-3.4-6.22l-.12-.19h0l-.25-.39a.64.64,0,0,0-.06-.11l-1-1.58c-.06-.08-.11-.17-.17-.26l-.17-.27ZM175,170.41c1.39,1.83,5.08,7.2,8.46,12.46l.33.51,1.79,2.83v0l0,0h0l.25.4.12.2a42.8,42.8,0,0,1,3.36,6.12,11.08,11.08,0,0,1,.4,5.36c-.06.32-.13.66-.22,1,0,.11-.07.23-.1.34s-.15.46-.24.69a10.76,10.76,0,0,1-.47,1.06,3.9,3.9,0,0,1-.19.35l-.2.37c-.15.24-.3.49-.48.73l-.18.26c-.1.15-.22.3-.34.45s-.44.55-.69.81l-.25.27a19.94,19.94,0,0,1-3.5,2.85l0,0a22.77,22.77,0,0,1-6.16,3.4l-1.07.4h0c-.37.14-.74.27-1.12.39l-1.16.38-1.22.37-1.26.35c-.42.12-.86.23-1.3.34-.66.17-1.33.33-2,.48-.23.05-.46.11-.69.15-.41.1-.81.18-1.22.26s-.61.13-.91.18h0l-1.46.28-1.49.25-1.53.24c-1,.16-2.06.3-3.12.43l-1.59.18h0l-1.61.17h0c-.54.06-1.09.11-1.63.15h0c-1.09.1-2.19.18-3.3.25l-1.67.09-1.68.07c-.56,0-1.12,0-1.69.06-1.12,0-2.25,0-3.38,0a109.68,109.68,0,0,1-19.58-1.64c-1.53-.28-3-.6-4.48-1-1.08-.27-2.14-.56-3.17-.88-.68-.21-1.36-.43-2-.66a37.73,37.73,0,0,1-6.31-2.84c-7.14-4.08-10.17-9.64-9-16.52.12-.72,1.1-2.87,5.08-9.05.13-.2.26-.39.38-.6,3.42-5.27,7.43-11,8.89-12.91,1.75-2.29,6-4.2,8.81-5.27-.18.26-.36.51-.55.75l-.23.3a13.87,13.87,0,0,1-1,1.12l-.23.22-.26.23-.53.44c-.09.06-.17.13-.26.18a6.18,6.18,0,0,1-.53.36l0,0,0,0a2.45,2.45,0,0,0,0,2.53c1.73,3.31,9.74,7.19,23.24,7.88a30.22,30.22,0,0,0,3,.19,25.18,25.18,0,0,0,2.6,0h.06c14.22-.29,23.71-4.2,25.73-7.92a2.47,2.47,0,0,0,0-2.59l0,0,0,0a9.86,9.86,0,0,1-1.55-1.19c-.14-.13-.29-.27-.43-.42l-.33-.36c-.16-.16-.3-.34-.45-.51l-.05-.06-.23-.3c-.18-.22-.35-.46-.52-.69s-.23-.35-.35-.53C169,166,173.22,168.14,175,170.41Zm-9.91-6.62a.3.3,0,0,1,0,.08.24.24,0,0,1,.06.09l.26.43.06.11.18.29.19.3A16.37,16.37,0,0,0,167,166.6l.19.24a11.73,11.73,0,0,0,2.66,2.35,2,2,0,0,1-.09,2.09c-2,3.6-11.29,7.39-25.34,7.67h-.06a24.8,24.8,0,0,1-2.58,0,30.22,30.22,0,0,1-3-.19c-13.31-.68-21.18-4.43-22.86-7.63a2,2,0,0,1-.06-2,13.57,13.57,0,0,0,4.1-4.29l.22-.36a2.39,2.39,0,0,1,.13-.21c6.5-10.9,7.58-33.34,7.72-43l.72.27c.3.11.62.21.95.31l.7.21.58.15.39.1.78.19.88.18.23,0,.69.13.74.13h.06l.64.09c.75.1,1.52.19,2.3.27l.52,0,.61,0c1.34.1,2.71.15,4.08.15.68,0,1.35,0,2,0l.84,0q1.09,0,2.16-.15l.76-.07,1.25-.14.57-.09L151,123l.73-.13.92-.17.71-.14,1.06-.25.85-.22,1.11-.34.49-.16.67-.24.09,0C157.74,130.69,158.77,152.63,165.05,163.79Zm-1.78-48.65v0c-.12,2.71-2.84,4.45-5.22,5.47l-.31.13c-7.86,3.18-22.12,3.16-29.92,0-2.41-1-5.32-2.76-5.44-5.58-.39-2.23,3.14-4.94,4.94-5.89v.06c0,.28,0,.56,0,.84s0,.6,0,.92c0,.61,0,1.24.07,1.89a2.54,2.54,0,0,0,.16.51c1.7,2.44,5.48,3.86,11.57,4.32v-.23l.05.23c.26,0,.53,0,.79.06h.06c1,.06,2,.09,2.74.12l.52,0,.46,0c5.32-.21,11.74-.91,14.23-4.5,0,0,0-.1.06-.15v-.06c0-.49,0-1,.05-1.48,0-.2,0-.4,0-.6s0-.68.05-1l0-.69h0C160.09,110.24,163.64,112.89,163.27,115.14Zm-5.44-6.37,0,.31c-.07,1.34-.13,2.72-.17,4.11v0c-2.35,3.39-8.63,4.07-13.84,4.27l-.49,0-.48,0c-.74,0-1.71-.06-2.71-.12h-.06l-.8,0v.22l0-.23c-5.93-.45-9.59-1.8-11.19-4.09a1.92,1.92,0,0,1-.11-.34c0-1.38-.09-2.73-.15-4l0-.34a60.64,60.64,0,0,0-.79-7.12l15.63.17,16.1-.18A61.47,61.47,0,0,0,157.83,108.77Zm126.86-55.4v.33c-.34,12.68-15.24,24.61-42,33.58s-62.39,14-100.15,14-73.35-5-100.16-14S.8,66.38.46,53.7V52.36c0,.14.06.28.1.42A20,20,0,0,0,2.5,57.54c12.68,22.8,71.59,39.35,140.08,39.35S270,80.34,282.65,57.54a20,20,0,0,0,1.94-4.76c0-.14.07-.27.1-.41Zm0-4.82a17,17,0,0,1-.54,4.11,20.37,20.37,0,0,1-1.89,4.66C269.64,80,210.9,96.43,142.58,96.43S15.51,80,2.9,57.32A19.54,19.54,0,0,1,1,52.66a16.84,16.84,0,0,1-.54-4.22,16.21,16.21,0,0,1,.1-1.84C2,34.21,17.32,22.62,43.82,14,70.47,5.25,105.54.46,142.58.46S214.69,5.25,241.33,14s41.87,20.26,43.26,32.65a16.16,16.16,0,0,1,.1,1.83Z"/></g></g></svg>