<svg xmlns="http://www.w3.org/2000/svg" xmlns:xlink="http://www.w3.org/1999/xlink" viewBox="0 0 320.01 162.41"><defs><style>.cls-1{fill:#c6c6c6;}.cls-2,.cls-3,.cls-4,.cls-5,.cls-7{opacity:0.5;}.cls-2{fill:url(#linear-gradient);}.cls-3{fill:url(#linear-gradient-2);}.cls-4{fill:url(#linear-gradient-3);}.cls-5{fill:url(#linear-gradient-4);}.cls-6{fill:#fff;}.cls-6,.cls-8{opacity:0.25;}.cls-7{fill:url(#linear-gradient-5);}</style><linearGradient id="linear-gradient" x1="0.3" y1="43.41" x2="319.71" y2="43.41" gradientUnits="userSpaceOnUse"><stop offset="0" stop-color="gray" stop-opacity="0.5"/><stop offset="1" stop-color="#fff" stop-opacity="0.6"/></linearGradient><linearGradient id="linear-gradient-2" x1="0.25" y1="89.52" x2="319.76" y2="89.52" gradientUnits="userSpaceOnUse"><stop offset="0" stop-opacity="0.5"/><stop offset="1" stop-color="#bfbfbf" stop-opacity="0.6"/></linearGradient><linearGradient id="linear-gradient-3" x1="97.02" y1="145.35" x2="227.04" y2="145.35" xlink:href="#linear-gradient-2"/><linearGradient id="linear-gradient-4" x1="97.63" y1="139.11" x2="226.81" y2="139.11" xlink:href="#linear-gradient"/><linearGradient id="linear-gradient-5" x1="101" y1="116.12" x2="223.54" y2="116.12" xlink:href="#linear-gradient"/></defs><g id="Layer_2" data-name="Layer 2"><g id="square-cake-stand-1-iso"><path id="fill2" class="cls-1" d="M320,86.68v5.66a.13.13,0,0,1-.12.13H213c6.81,7,10.44,15.85,10.78,26.48v0a17.21,17.21,0,0,1,3.27,10.18,14.94,14.94,0,0,1,.23,2.59c0,16.91-29.27,30.67-65.26,30.67s-65.26-13.76-65.26-30.67a14.75,14.75,0,0,1,.65-4.35,17.63,17.63,0,0,1,3.33-8.45c.35-10.62,4-19.52,10.79-26.47H.13A.13.13,0,0,1,0,92.34V86.68s0,0,0,0,0,0,0,0L28.13.08A.11.11,0,0,1,28.25,0H289.14a.12.12,0,0,1,.12.08L320,86.64s0,0,0,0S320,86.67,320,86.68Z"/><polygon id="void" class="cls-2" points="319.71 86.56 0.3 86.56 28.34 0.26 289.06 0.26 319.71 86.56"/><rect id="void-2" data-name="void" class="cls-3" x="0.25" y="86.81" width="319.51" height="5.41"/><path id="void-3" data-name="void" class="cls-4" d="M227,131.74c0,16.78-29.16,30.43-65,30.43s-65-13.65-65-30.43a14.54,14.54,0,0,1,.36-3.2v.2l0,.45c0,.31,0,.62.08.94l.06.49c0,.32.12.64.19,1l.09.43c.12.46.25.93.41,1.39,1.28,3.71,6.92,10.05,16.3,15.24,8.62,4.77,23.81,10.48,47.26,10.6h.95c23.46-.12,38.65-5.83,47.27-10.6,9.39-5.19,15-11.54,16.29-15.24a12.16,12.16,0,0,0,.37-1.31c0-.12.06-.25.08-.37.08-.37.14-.75.19-1.13l0-.19C227,130.85,227,131.3,227,131.74Z"/><path id="void-4" data-name="void" class="cls-5" d="M226.81,129.17a13.88,13.88,0,0,1-.73,4.16c-.9,2.63-5.44,9.16-16.18,15.1-8.59,4.76-23.75,10.45-47.15,10.57h-.95c-23.39-.12-38.55-5.81-47.14-10.57-10.73-5.93-15.28-12.47-16.18-15.1a14.39,14.39,0,0,1-.81-5.9,17,17,0,0,1,3.21-8.21c.29.31.59.61.88.9l.69.66.06.06,0,0,.23.21c10.15,9.43,30.78,18.43,56.71,19h0l2.59,0,1,0c.86,0,1.73,0,2.59,0s1.43,0,2.15-.08c.88,0,1.77-.1,2.65-.17.69,0,1.37-.09,2.06-.15.89-.08,1.78-.18,2.66-.28.68-.08,1.37-.15,2-.24l.45,0,1.82-.26c.57-.08,1.15-.18,1.72-.28l.48-.08c.94-.16,1.9-.33,2.85-.52l1-.23,1.28-.27,1-.22c.91-.21,1.83-.44,2.75-.68l.52-.14,1.27-.34.77-.22.5-.14,1.66-.5,1.32-.42h0c1-.33,2-.67,3-1l.08,0,.15-.06,1.71-.64.12-.05c8.67-3.38,16-7.75,20.83-12.55.39-.38.77-.78,1.13-1.17A17,17,0,0,1,226.81,129.17Z"/><path id="void-5" data-name="void" class="cls-6" d="M189.77,98.94c3.57-.53,8.4,3.54,11.81,10.21a35.34,35.34,0,0,1,4,16.54c.1,2.95-11.25,9-18.81,6.88-2.58-.73-3.73-1.17-5.15-12.13-1.53-11.74-2.53-16-2.53-16C177.77,97.79,188.21,99.17,189.77,98.94Zm-3.7,41.32s1.22,1.72,1.92,6.67c.65,4.63.6,5.4,3.13,5.4,6.22,0,19.27-6.5,20-7.52,2.15-3,.5-5.64-.47-8.7-.91-2.87-3.76-3.65-5.06-2.63C203,135.52,189.3,139.84,186.07,140.26Zm8.49,16.58c-1.55-.08-1-.67.71-1.26a73.87,73.87,0,0,0,17.8-7.72c1-.48-1.79,2.68-8.5,5.44S195.76,156.91,194.56,156.84Z"/><path id="void-6" data-name="void" class="cls-7" d="M223.54,118.92h0c-6.47,7.12-19.92,14.61-37.56,18.4l-1,.22-1.84.36-.61.11-1.66.28-.89.15-1.72.26-.61.08h0c-1.41.19-2.83.35-4.26.49l-.29,0c-1.35.13-2.71.23-4.07.31l-.67,0c-1.33.07-2.67.12-4,.14h-.65c-1.39,0-2.77,0-4.15,0-26.55-.61-46.44-10.08-55.9-18.34l-.64-.58c-.64-.59-1.24-1.19-1.8-1.78a.45.45,0,0,0-.07-.07l-.08-.11c.35-10.66,4-19.59,10.94-26.53h0c16.38.24,32.67.22,50,.22,17.53,0,34.41.25,50.56-.18h0Q223,102.85,223.54,118.92Z"/><path id="fill1" class="cls-8" d="M320,86.66a0,0,0,0,0,0,0L289.26.08a.12.12,0,0,0-.12-.08H28.25a.11.11,0,0,0-.12.09L0,86.65s0,0,0,0,0,0,0,0v5.66a.12.12,0,0,0,.13.12H111.54c-6.82,7-10.44,15.86-10.79,26.47a17.63,17.63,0,0,0-3.33,8.45,14.75,14.75,0,0,0-.65,4.35c0,16.91,29.27,30.67,65.26,30.67s65.26-13.76,65.26-30.67a14.94,14.94,0,0,0-.23-2.59A17.21,17.21,0,0,0,223.79,119v0c-.34-10.62-4-19.52-10.78-26.48H319.89a.12.12,0,0,0,.12-.12V86.69S320,86.67,320,86.66ZM28.34.25H289.06l30.65,86.31H.3ZM227,130.4c0,.45.06.89.06,1.34,0,16.77-29.16,30.42-65,30.42s-65-13.65-65-30.42a15.24,15.24,0,0,1,.35-3.21c0,.07,0,.14,0,.2l0,.45c0,.31,0,.63.08.94,0,.16,0,.32.06.49s.11.64.19,1c0,.14.05.28.09.43.12.46.25.93.41,1.4,1.28,3.7,6.92,10,16.3,15.23,8.62,4.77,23.81,10.48,47.26,10.6h.95c23.45-.12,38.65-5.83,47.27-10.6,9.39-5.19,15-11.53,16.29-15.23a13,13,0,0,0,.37-1.32c0-.12.06-.24.08-.37.08-.37.14-.75.19-1.13Zm-.17-1.24a13.88,13.88,0,0,1-.73,4.16c-.9,2.63-5.44,9.16-16.18,15.11-8.59,4.75-23.75,10.44-47.15,10.56h-.95c-23.39-.12-38.55-5.81-47.14-10.57-10.73-5.93-15.28-12.47-16.18-15.1a14.55,14.55,0,0,1-.82-5.9,17.1,17.1,0,0,1,3.22-8.21c.29.31.59.62.88.9l.68.66.07.06,0,0,.23.2c10.15,9.43,30.78,18.43,56.71,19,.86,0,1.73,0,2.6,0l1,0,2.59-.06c.71,0,1.43,0,2.15-.08.88,0,1.76-.1,2.65-.16l2.06-.16c.89-.08,1.77-.18,2.66-.28.68-.08,1.37-.15,2-.24l.45-.05,1.82-.26c.57-.08,1.15-.18,1.72-.28l.47-.08c1-.16,1.91-.33,2.86-.52l1-.22,1.28-.28,1-.22c.92-.21,1.84-.44,2.76-.68l.52-.14,1.27-.34.77-.22.5-.14,1.66-.5,1.32-.42h0c1-.32,2-.67,3-1l.08,0,.15-.06,1.7-.64.13,0c8.67-3.38,16-7.75,20.83-12.55.39-.38.77-.78,1.13-1.17A17,17,0,0,1,226.81,129.16Zm-3.27-10.24h0c-6.47,7.12-19.92,14.61-37.56,18.4l-1,.22-1.84.36-.61.11-1.66.28-.89.15-1.72.26-.61.08h0c-1.41.19-2.83.35-4.26.49l-.29,0c-1.35.13-2.71.23-4.07.31l-.67,0c-1.33.07-2.67.12-4,.14h-.65c-1.39,0-2.77,0-4.15,0-26.55-.61-46.44-10.08-55.9-18.34l-.64-.58c-.64-.59-1.24-1.19-1.8-1.78a.45.45,0,0,0-.07-.07l-.08-.11c.35-10.62,4-19.53,10.87-26.46h15.48c11.34,0,22.86,0,34.79,0,15.43,0,30.28,0,44.6,0h5.88Q223,102.9,223.54,118.92Zm96.22-26.7H.25V86.81H319.76Z"/></g></g></svg>