<svg xmlns="http://www.w3.org/2000/svg" xmlns:xlink="http://www.w3.org/1999/xlink" viewBox="0 0 320.01 180.81"><defs><style>.cls-1{fill:#c6c6c6;}.cls-2,.cls-3,.cls-4,.cls-5{opacity:0.5;}.cls-2{fill:url(#linear-gradient);}.cls-3{fill:url(#linear-gradient-2);}.cls-4{fill:url(#linear-gradient-3);}.cls-5{fill:url(#linear-gradient-4);}.cls-6{fill:#fff;}.cls-6,.cls-7{opacity:0.25;}</style><linearGradient id="linear-gradient" x1="0.3" y1="43.41" x2="319.71" y2="43.41" gradientUnits="userSpaceOnUse"><stop offset="0" stop-color="gray" stop-opacity="0.5"/><stop offset="1" stop-color="#fff" stop-opacity="0.6"/></linearGradient><linearGradient id="linear-gradient-2" x1="0.25" y1="89.52" x2="319.76" y2="89.52" gradientUnits="userSpaceOnUse"><stop offset="0" stop-opacity="0.5"/><stop offset="1" stop-color="#bfbfbf" stop-opacity="0.6"/></linearGradient><linearGradient id="linear-gradient-3" x1="111.7" y1="175.31" x2="211.67" y2="150.39" xlink:href="#linear-gradient-2"/><linearGradient id="linear-gradient-4" x1="107.24" y1="135.53" x2="212.71" y2="135.53" xlink:href="#linear-gradient"/></defs><g id="Layer_2" data-name="Layer 2"><g id="square-cake-stand-2-iso"><path id="fill2" class="cls-1" d="M320,86.66s0,0,0,0L289.26.08a.11.11,0,0,0-.11-.08H28.25a.11.11,0,0,0-.12.08L0,86.64v0s0,0,0,0v5.67a.13.13,0,0,0,.13.12H139.8v0c.05.2,4.92,20.43-3.48,29.92a154.62,154.62,0,0,1-13.93,13.16c-5.41,4.72-10.52,9.18-12.81,12.71a14.71,14.71,0,0,0-2.36,5.85c0,.32-.08.65-.1,1v.13a1.16,1.16,0,0,0,0,.32,2.62,2.62,0,0,0,0,.28v.54a11.43,11.43,0,0,0,.38,2.51,2.43,2.43,0,0,0,.12.43,10.83,10.83,0,0,0,.42,1.21l.26.57a16.76,16.76,0,0,0,2.63,4c.76.89,1.51,1.68,2.27,2.41l.06.06.6.55,0,0,.65.58.25.21.47.38c.25.22.52.43.75.61.44.35.94.72,1.47,1.08a38.36,38.36,0,0,0,4.47,2.7l.4.21.29.14.34.16c.23.11.46.23.7.33.85.4,1.71.77,2.55,1.11,1,.41,2,.77,3,1.1l.47.15.32.11c1.68.52,3.43,1,5.2,1.39l.94.21c1.55.33,3.19.63,5,.91l2.15.31h.06l1,.11,1.25.14c1.38.15,2.62.26,3.8.35.74.06,1.5.11,2.26.15l2.61.12c1.33,0,2.71.08,4.1.09h3.21c.47,0,.93,0,1.39,0,1.66,0,3.4-.08,5.32-.18l2.5-.16.57-.05.64,0c1.89-.17,3.75-.37,5.71-.65l2.12-.32c1.11-.18,2.19-.39,3-.55l.38-.08.58-.12.94-.21c2.16-.49,4.25-1.07,6.2-1.72l1-.33,1.85-.68.05,0c.45-.18.91-.36,1.34-.55l.05,0c.34-.14.67-.28,1-.44l1-.5c.38-.18.75-.36,1.11-.55l0,0c.33-.16.65-.33.94-.5s.65-.37.94-.55.43-.26.64-.39l.25-.15,1-.64c.39-.25.77-.52,1-.7s.62-.46.91-.69c.6-.46,1.17-.93,1.66-1.37.25-.22.5-.44.76-.7s.49-.45.73-.69l.65-.66c.39-.41.8-.86,1.28-1.41l.49-.59c.16-.2.31-.4.46-.61l.05-.07a3.16,3.16,0,0,0,.2-.27,14.92,14.92,0,0,0,1.85-3.46l.05-.14c0-.08,0-.16.08-.24s.05-.15.07-.22.09-.29.12-.41l.06-.21c0-.05,0-.1,0-.14a1.24,1.24,0,0,1,0-.16,11,11,0,0,0,.29-2.73c0-.19,0-.36,0-.54v-.05a4,4,0,0,0-.06-.67v0a14.67,14.67,0,0,0-2.4-6.26c-2.29-3.53-7.41-8-12.82-12.71a157.43,157.43,0,0,1-13.93-13.16c-8.4-9.49-3.57-29.72-3.52-29.92h0c9.06,0,17.92,0,26.58,0H319.89a.12.12,0,0,0,.12-.12V86.68S320,86.67,320,86.66ZM108.18,158.91a11.44,11.44,0,0,1-.58-1.49A13.07,13.07,0,0,0,108.18,158.91Z"/><polygon id="void" class="cls-2" points="319.71 86.56 0.3 86.56 28.34 0.26 289.06 0.26 319.71 86.56"/><rect id="void-2" data-name="void" class="cls-3" x="0.25" y="86.81" width="319.51" height="5.41"/><path id="void-3" data-name="void" class="cls-4" d="M212.79,155.84a11.55,11.55,0,0,1-.29,2.7c0,.09-.05.19-.08.29l-.06.22a3.57,3.57,0,0,1-.12.4c0,.07,0,.14-.07.22s-.09.26-.13.38a14.73,14.73,0,0,1-1.83,3.43l-.25.34-.46.6L209,165c-.4.46-.82.93-1.27,1.4l-.65.66-.72.69c-.24.23-.49.46-.76.69-.51.46-1.07.92-1.66,1.37l-.9.69c-.32.23-.66.47-1,.7l-1,.63c-.29.18-.58.37-.88.54s-.62.37-.94.55-.63.35-.95.51l0,0c-.36.19-.73.37-1.1.55l-1,.5-1,.46c-.45.2-.92.39-1.39.58s-1.21.46-1.84.68l-1,.33c-1.89.63-4,1.21-6.19,1.72l-.94.21-1,.2c-1,.19-2,.38-3,.55l-2.12.32c-1.8.25-3.7.47-5.7.64l-1.21.1-2.5.16c-1.7.09-3.47.16-5.31.19l-1.39,0H158.4c-1.4,0-2.77,0-4.1-.09l-1.56-.06-1-.06-2.26-.14c-1.31-.1-2.57-.22-3.8-.35l-2.22-.25h0l-2.16-.31c-1.76-.27-3.43-.57-5-.91l-.94-.21c-1.85-.42-3.58-.89-5.19-1.39l-.79-.26c-1.07-.35-2.08-.72-3-1.1s-1.74-.72-2.55-1.1l-1-.49-.68-.35a38.38,38.38,0,0,1-4.46-2.69c-.51-.35-1-.71-1.46-1.08-.25-.19-.51-.39-.75-.6l-.72-.6-.67-.6-.65-.61c-.84-.8-1.59-1.61-2.27-2.4a16.86,16.86,0,0,1-2.61-4c-.09-.19-.17-.38-.25-.57a10,10,0,0,1-.42-1.19,3.45,3.45,0,0,1-.12-.43,11,11,0,0,1-.37-2.49c0-.14,0-.29,0-.43v-.1a2.44,2.44,0,0,1,0-.27c0-.12,0-.23,0-.35a14.46,14.46,0,0,0,3.7,7.69c6.23,7.23,18.26,15.64,48.82,15.67h.37c30.57,0,42.59-8.44,48.82-15.67a14,14,0,0,0,3.76-8.34c0,.23,0,.45.06.68S212.79,155.64,212.79,155.84Z"/><path id="void-4" data-name="void" class="cls-5" d="M212.71,154.57a14,14,0,0,1-3.76,8.34c-6.23,7.23-18.25,15.64-48.82,15.67h-.37c-30.56,0-42.59-8.44-48.82-15.67a14.46,14.46,0,0,1-3.7-7.69h0a14.22,14.22,0,0,1,2.45-6.85c4.28-6.6,18.19-16.22,26.73-25.86s3.51-30,3.51-30H180s-5,20.38,3.55,30,22.45,19.26,26.74,25.86A14.72,14.72,0,0,1,212.71,154.57Z"/><path id="void-5" data-name="void" class="cls-6" d="M166.13,102.84c1.18.88,2.42,13,8.65,30.22,6.72,18.52,17.64,28,18.05,32.07s-13.15,8.9-19.42,5.06-7.19-16.3-8.9-28.92c-3.23-23.87-.81-36.41-.81-36.41S163.91,101.18,166.13,102.84Z"/><path id="fill1" class="cls-7" d="M160.13,178.71h-.37c-13.69,0-25-1.74-33.58-5.14A38.23,38.23,0,0,1,110.85,163a14.69,14.69,0,0,1-3.73-7.76v0a14.09,14.09,0,0,1,2.47-6.91c2.29-3.54,7.4-8,12.81-12.72a154.62,154.62,0,0,0,13.93-13.16c8.4-9.49,3.53-29.71,3.48-29.92l0-.15H180.2l0,.15c0,.21-4.88,20.43,3.52,29.92a156,156,0,0,0,13.93,13.16c5.41,4.72,10.53,9.18,12.82,12.72a14.58,14.58,0,0,1,2.4,6.26h0A14.26,14.26,0,0,1,209,163a38.23,38.23,0,0,1-15.33,10.57C185.12,177,173.82,178.7,160.13,178.71Zm-20-86.11c.44,1.91,4.53,20.84-3.58,30a156.28,156.28,0,0,1-13.94,13.18c-5.4,4.71-10.5,9.16-12.78,12.66a14.06,14.06,0,0,0-2.42,6.79,14.39,14.39,0,0,0,3.66,7.61c5.77,6.7,17.1,15.6,48.73,15.63h.37c31.63,0,43-8.93,48.73-15.63a14,14,0,0,0,3.72-8.25,14.49,14.49,0,0,0-2.35-6.15c-2.28-3.51-7.38-8-12.78-12.66a155.08,155.08,0,0,1-13.95-13.18c-8.11-9.15-4.05-28.08-3.62-30Zm20.1,88.21H158.4c-1.39,0-2.77,0-4.1-.09l-2.61-.12-2.26-.14c-1.18-.09-2.42-.21-3.8-.35l-1.25-.14-1-.11-.06,0c-.74-.1-1.45-.19-2.15-.3-1.83-.28-3.47-.58-5-.91l-.94-.21c-1.77-.41-3.52-.88-5.2-1.4l-.32-.1-.47-.16c-1-.33-2-.69-3-1.1-.84-.33-1.7-.7-2.55-1.1l-.7-.33-.34-.16-.29-.15c-.13-.07-.27-.13-.4-.21a38.32,38.32,0,0,1-4.47-2.69c-.53-.37-1-.73-1.47-1.09-.23-.17-.5-.38-.75-.6l-.47-.39-.25-.21-.65-.58,0,0-.6-.56-.06-.05c-.76-.74-1.51-1.53-2.27-2.41a17.17,17.17,0,0,1-2.63-4c-.09-.19-.17-.39-.26-.58a10.68,10.68,0,0,1-.42-1.2,2.55,2.55,0,0,1-.12-.44,11.34,11.34,0,0,1-.38-2.51v-.54a2.72,2.72,0,0,1,0-.28,1.39,1.39,0,0,1,0-.35l.1-1.19.14,1.19a14.48,14.48,0,0,0,3.67,7.62c5.77,6.7,17.1,15.6,48.73,15.63h.37c31.63,0,43-8.93,48.73-15.63a14,14,0,0,0,3.72-8.26h.25a4.11,4.11,0,0,1,.06.69v.05c0,.18,0,.36,0,.54a10.93,10.93,0,0,1-.29,2.73,1.24,1.24,0,0,0,0,.16c0,.05,0,.09,0,.14l-.06.21c0,.13-.07.26-.12.42s0,.14-.07.22,0,.15-.08.23l-.05.14a15,15,0,0,1-1.85,3.47l-.2.27-.05.07-.46.6-.49.59c-.48.55-.89,1-1.28,1.41l-.65.66-.73.7c-.26.25-.51.48-.76.69-.49.45-1.06.91-1.66,1.37-.29.23-.59.46-.91.69s-.62.45-1,.71l-1,.63-.25.16c-.21.13-.42.26-.64.38s-.6.36-.94.55-.61.34-.94.51l0,0c-.36.19-.73.38-1.11.56l-1,.5-1,.44-.05,0c-.43.19-.89.38-1.34.56l-.05,0c-.54.21-1.17.45-1.85.68l-1,.33c-1.95.65-4,1.23-6.2,1.73l-.94.21-.58.12-.38.08c-.82.16-1.9.36-3,.55l-2.12.32c-2,.27-3.82.48-5.71.64l-.64,0-.57.05-2.5.16c-1.92.1-3.66.16-5.32.19l-1.39,0Zm-16.73-1.21.95.11,1.24.14c1.38.15,2.63.26,3.8.35l2.26.14,1,.06,1.56.06c1.33,0,2.71.08,4.09.09h3.21l1.39,0c1.66,0,3.39-.09,5.3-.19l2.5-.16.57-.05.64,0c1.88-.16,3.74-.37,5.69-.64.73-.1,1.45-.21,2.12-.32,1.11-.18,2.18-.39,3-.55l.38-.08.57-.12.94-.21c2.16-.49,4.23-1.07,6.18-1.71l1-.33,1.83-.68.06,0,1.33-.56.05,0,1-.44c.35-.16.69-.33,1-.5s.73-.35,1.09-.54l0,0c.33-.16.65-.33.95-.5s.65-.37.93-.55.43-.26.63-.39l.25-.15,1-.63c.39-.26.76-.52,1-.7l.89-.68c.61-.47,1.16-.92,1.66-1.37q.36-.31.75-.69T207,167c.22-.21.44-.43.65-.65.39-.41.79-.85,1.27-1.4l.48-.58.46-.6,0-.07.2-.27a14.75,14.75,0,0,0,1.81-3.4l.05-.14c0-.08.06-.16.08-.23s0-.15.07-.21l.12-.4c0-.09,0-.16.06-.23a.65.65,0,0,1,0-.13.75.75,0,0,1,0-.16,11.6,11.6,0,0,0,.29-2.55,15.09,15.09,0,0,1-3.63,7,38.23,38.23,0,0,1-15.33,10.57c-8.59,3.4-19.89,5.13-33.58,5.14h-.37c-13.69,0-25-1.74-33.58-5.14A38.23,38.23,0,0,1,110.85,163a15.43,15.43,0,0,1-3.48-6.4,10.81,10.81,0,0,0,.35,2.23,2.32,2.32,0,0,0,.12.42,8.28,8.28,0,0,0,.42,1.18q.1.28.24.57a17.08,17.08,0,0,0,2.59,3.93c.77.89,1.51,1.67,2.27,2.39l.06.06.58.55,0,0,.64.57.25.21.47.39c.25.21.51.42.75.59.44.36.92.72,1.45,1.08a37.18,37.18,0,0,0,4.45,2.68l.4.21.28.14.33.16.7.33c.85.4,1.71.77,2.55,1.1,1,.41,2,.77,3,1.09l.47.16.32.11c1.67.51,3.41,1,5.18,1.38l.94.21c1.54.33,3.17.63,5,.91l2.16.31ZM320,86.66a0,0,0,0,0,0,0L289.26.08a.11.11,0,0,0-.11-.08H28.25a.11.11,0,0,0-.12.09L0,86.65H0s0,0,0,0v5.66a.12.12,0,0,0,.13.12H127.35c11.34,0,22.86,0,34.79,0,15.44,0,30.28,0,44.6,0H319.89a.12.12,0,0,0,.12-.12V86.69S320,86.67,320,86.66ZM28.34.25H289.06l30.65,86.31H.3Zm291.42,92H.25V86.81H319.76Z"/></g></g></svg>