<svg xmlns="http://www.w3.org/2000/svg" xmlns:xlink="http://www.w3.org/1999/xlink" viewBox="0 0 320.01 198.77"><defs><style>.cls-1{fill:#c6c6c6;}.cls-2,.cls-3,.cls-4,.cls-5,.cls-6,.cls-8,.cls-9{opacity:0.5;}.cls-2{fill:url(#linear-gradient);}.cls-3{fill:url(#linear-gradient-2);}.cls-4{fill:url(#linear-gradient-3);}.cls-5{fill:url(#linear-gradient-4);}.cls-6{fill:url(#linear-gradient-5);}.cls-7{fill:#fff;}.cls-10,.cls-7{opacity:0.25;}.cls-8{fill:url(#linear-gradient-6);}.cls-9{fill:url(#linear-gradient-7);}</style><linearGradient id="linear-gradient" x1="146.86" y1="96.73" x2="173.15" y2="96.73" gradientUnits="userSpaceOnUse"><stop offset="0" stop-color="gray" stop-opacity="0.5"/><stop offset="1" stop-color="#fff" stop-opacity="0.6"/></linearGradient><linearGradient id="linear-gradient-2" x1="139.68" y1="116.13" x2="180.33" y2="116.13" xlink:href="#linear-gradient"/><linearGradient id="linear-gradient-3" x1="146.86" y1="136.77" x2="173.15" y2="136.77" xlink:href="#linear-gradient"/><linearGradient id="linear-gradient-4" x1="94.16" y1="168.22" x2="225.85" y2="168.22" xlink:href="#linear-gradient"/><linearGradient id="linear-gradient-5" x1="149.7" y1="93.97" x2="170.32" y2="93.97" xlink:href="#linear-gradient"/><linearGradient id="linear-gradient-6" x1="0.3" y1="43.41" x2="319.71" y2="43.41" xlink:href="#linear-gradient"/><linearGradient id="linear-gradient-7" x1="0.25" y1="89.52" x2="319.76" y2="89.52" gradientUnits="userSpaceOnUse"><stop offset="0" stop-opacity="0.5"/><stop offset="1" stop-color="#bfbfbf" stop-opacity="0.6"/></linearGradient></defs><g id="Layer_2" data-name="Layer 2"><g id="square-cake-stand-3-iso"><path id="fill2" class="cls-1" d="M320,86.67s0,0,0,0v5.66a.12.12,0,0,1-.12.13H206.75c-10.84,0-22,0-33.44,0a4.5,4.5,0,0,1,.09.9,5.39,5.39,0,0,1-1.09,3.18,22.49,22.49,0,0,1,.13,34.74,5.29,5.29,0,0,1,1,3,5.44,5.44,0,0,1-1.3,3.45,19.36,19.36,0,0,0,3.47,2.89c14.15,1.53,27,5.17,36.09,10.26,9.45,5.27,14.44,11.63,14.44,18.4,0,16.26-29.65,29.48-66.1,29.48s-66.09-13.22-66.09-29.48c0-6.76,5-13.12,14.42-18.39,9.12-5.09,21.92-8.74,36.05-10.26a19.48,19.48,0,0,0,3.51-2.93,5.43,5.43,0,0,1-1.28-3.42,5.27,5.27,0,0,1,1-3,22.49,22.49,0,0,1,.13-34.74,5,5,0,0,1-1-4.08H.13A.13.13,0,0,1,0,92.35V86.69s0,0,0,0v0L28.13.09A.13.13,0,0,1,28.25,0h260.9a.14.14,0,0,1,.12.09L320,86.65A0,0,0,0,0,320,86.67Z"/><path id="void" class="cls-2" d="M173.15,93.39A5.11,5.11,0,0,1,172,96.51c-2.09,2.84-6.82,4.67-12,4.67s-9.94-1.83-12-4.67l-.07-.1a5.14,5.14,0,0,1-1-3,3.59,3.59,0,0,1,0-.47,1.67,1.67,0,0,1,.06-.44c.7,0,1.6,0,2.31,0a1.5,1.5,0,0,0,.25.19,6.42,6.42,0,0,0,.53.38,6.65,6.65,0,0,0,.63.39,12.92,12.92,0,0,0,1.39.71,20.89,20.89,0,0,0,15.89,0,12.92,12.92,0,0,0,1.39-.71,6.65,6.65,0,0,0,.63-.39,6.13,6.13,0,0,0,.58-.42,2.34,2.34,0,0,0,.31-.24l0,0,2.12-.06a3.44,3.44,0,0,1,.1.63A3.59,3.59,0,0,1,173.15,93.39Z"/><path id="void-2" data-name="void" class="cls-3" d="M180.33,114a21.79,21.79,0,0,1-8,17.11l-.11.09a19.44,19.44,0,0,1-24.39,0l-.11-.09a21.77,21.77,0,0,1-8-17.11,22,22,0,0,1,8.16-17.22l.22.27c.2.23.41.45.63.67l.3.26.34.28a6.61,6.61,0,0,0,.6.44,11.89,11.89,0,0,0,2,1.11q.38.18.78.33l.82.29c.27.1.56.18.85.26a19.6,19.6,0,0,0,3,.59,13.89,13.89,0,0,0,1.46.13c.37,0,.75,0,1.12,0s.75,0,1.12,0a14.14,14.14,0,0,0,1.46-.13,17.84,17.84,0,0,0,3.11-.61c.27-.07.54-.15.8-.24s.79-.27,1.16-.43h0c.37-.16.73-.32,1.08-.5l.09,0a9.35,9.35,0,0,0,1.34-.81l.6-.45c.2-.16.38-.32.55-.48A7.82,7.82,0,0,0,172,97l.22-.27A22,22,0,0,1,180.33,114Z"/><path id="void-3" data-name="void" class="cls-4" d="M173.15,134.29a5.24,5.24,0,0,1-1.25,3.31h-.05a.11.11,0,0,0-.06.1h0a9.86,9.86,0,0,1-3,2.36,20.36,20.36,0,0,1-17.56,0,9.86,9.86,0,0,1-3.09-2.45,5.27,5.27,0,0,1-1.28-3.35,5,5,0,0,1,.9-2.82,20,20,0,0,0,2,1.37c.24.15.48.29.73.42s.48.27.73.39.5.25.75.36a17.21,17.21,0,0,0,1.6.64c.5.18,1,.33,1.52.46a19.63,19.63,0,0,0,13-1.1q.38-.16.75-.36a20.52,20.52,0,0,0,3.44-2.18A5,5,0,0,1,173.15,134.29Z"/><path id="void-4" data-name="void" class="cls-5" d="M225.85,169.29c0,16.12-29.54,29.23-65.85,29.23s-65.84-13.11-65.84-29.23c0-6.67,4.94-12.95,14.29-18.17,9-5,21.58-8.64,35.5-10.18-4.22,2.86-10.83,6.28-15.85,7.3a.12.12,0,0,0-.1.15.12.12,0,0,0,.12.1h0c5.25-1.07,12-4.6,16.35-7.63a20.14,20.14,0,0,0,3.54-2.94l.21.23a3.08,3.08,0,0,0,.25.27l.44.41.28.24a11.66,11.66,0,0,0,1.89,1.24,20.59,20.59,0,0,0,17.79,0,10.34,10.34,0,0,0,3-2.36,20.93,20.93,0,0,0,3.51,2.91l0,0c4.35,3,11.08,6.54,16.33,7.61h0a.12.12,0,0,0,.12-.1.13.13,0,0,0-.1-.15c-5-1-11.61-4.43-15.84-7.3,13.93,1.54,26.52,5.15,35.52,10.17C220.9,156.33,225.85,162.62,225.85,169.29Z"/><path id="void-5" data-name="void" class="cls-6" d="M170.32,92.48a10.49,10.49,0,0,1-2.47,1.44,20.63,20.63,0,0,1-15.69,0,10.42,10.42,0,0,1-2.46-1.44h20.62Z"/><path id="void-6" data-name="void" class="cls-7" d="M166.82,143.25c1.41.28,6.33,15.66,11.05,21.72,9,11.57,25.76,17.53,20.1,22.85-2.1,2-13.15,6.26-19.42,3.56S170,179.59,168,170.77c-2.45-10.75-3.58-26.1-3.58-26.1C164.46,143.69,165.4,143,166.82,143.25ZM162.17,108s2.12,4.35,2.12,12.94c0,8.77.8,9.58,2.43,9.71,4.46.35,6.22-4.27,6.68-6.57a30.09,30.09,0,0,0-1.09-14.87c-1.81-4.45-4-7.29-6.1-6.87C165.29,102.56,161.39,102.73,162.17,108ZM160,139.14c-.23-.65,2.92-.78,5.52-1.48,2.16-.57,3.77-1.81,4.31-1.54,1.2.6-.81,2.63-3.68,3.55S160.47,140.42,160,139.14Zm0-40.84c-.23-.65,2.92-.79,5.52-1.48,2.16-.58,3.77-1.82,4.31-1.54,1.2.6-.81,2.62-3.68,3.55S160.47,99.58,160,98.3Z"/><polygon id="void-7" data-name="void" class="cls-8" points="319.71 86.57 0.3 86.57 28.34 0.26 289.06 0.26 319.71 86.57"/><rect id="void-8" data-name="void" class="cls-9" x="0.25" y="86.82" width="319.51" height="5.41"/><path id="fill1" class="cls-10" d="M320,86.65,289.27.09a.14.14,0,0,0-.12-.09H28.25a.13.13,0,0,0-.12.09L0,86.65v0s0,0,0,0v5.66a.13.13,0,0,0,.13.13H146.7a5,5,0,0,0,1,4.08,22.49,22.49,0,0,0-.13,34.74,5.27,5.27,0,0,0-1,3,5.43,5.43,0,0,0,1.28,3.42,19.48,19.48,0,0,1-3.51,2.93c-14.13,1.52-26.93,5.17-36,10.26-9.43,5.27-14.42,11.63-14.42,18.39,0,16.26,29.65,29.48,66.09,29.48s66.1-13.22,66.1-29.48c0-6.77-5-13.13-14.44-18.4-9.13-5.09-21.94-8.73-36.09-10.26a19.36,19.36,0,0,1-3.47-2.89,5.44,5.44,0,0,0,1.3-3.45,5.29,5.29,0,0,0-1-3,22.49,22.49,0,0,0-.13-34.74,5.39,5.39,0,0,0,1.09-3.18,4.5,4.5,0,0,0-.09-.9c11.46,0,22.6,0,33.44,0H319.89a.12.12,0,0,0,.12-.13V86.69s0,0,0,0A0,0,0,0,1,320,86.65ZM28.34.25H289.06l30.65,86.31H.3Zm147,140.57,0,0,0,0,0,0a60.46,60.46,0,0,0,7.83,4.54,37.67,37.67,0,0,0,8.5,3.07h0a.12.12,0,0,0,.12-.1.13.13,0,0,0-.1-.15c-5-1-11.61-4.43-15.84-7.3,13.93,1.54,26.52,5.15,35.52,10.17,9.36,5.22,14.31,11.51,14.31,18.18,0,16.12-29.54,29.23-65.85,29.23s-65.84-13.11-65.84-29.23c0-6.67,4.94-12.95,14.29-18.17,9-5,21.58-8.64,35.5-10.18-4.22,2.86-10.83,6.28-15.85,7.3a.12.12,0,0,0-.1.15.12.12,0,0,0,.12.1h0c5.25-1.07,12-4.6,16.35-7.63a20.14,20.14,0,0,0,3.54-2.94l.21.23a3.08,3.08,0,0,0,.25.27l.44.41.28.24a11.66,11.66,0,0,0,1.89,1.24,20.59,20.59,0,0,0,17.79,0,10.34,10.34,0,0,0,3-2.36A20.51,20.51,0,0,0,175.39,140.82Zm-2.24-6.53a5.24,5.24,0,0,1-1.25,3.31h-.05a.11.11,0,0,0-.06.1h0a9.86,9.86,0,0,1-3,2.36,20.36,20.36,0,0,1-17.56,0,9.86,9.86,0,0,1-3.09-2.45,5.27,5.27,0,0,1-1.28-3.35,5,5,0,0,1,.9-2.82,20,20,0,0,0,2,1.37c.24.15.48.29.73.42s.48.27.73.39.5.25.75.36a17.21,17.21,0,0,0,1.6.64c.5.18,1,.33,1.52.46a19.63,19.63,0,0,0,13-1.1q.38-.16.75-.36a20.52,20.52,0,0,0,3.44-2.18A5,5,0,0,1,173.15,134.29Zm7.18-20.3a21.79,21.79,0,0,1-8,17.11l-.11.09a19.44,19.44,0,0,1-24.39,0l-.11-.09a21.77,21.77,0,0,1-8-17.11,22,22,0,0,1,8.16-17.22l.22.27c.2.23.41.45.63.67l.3.26.34.28a6.61,6.61,0,0,0,.6.44,11.89,11.89,0,0,0,2,1.11q.38.18.78.33l.82.29c.27.1.56.18.85.26a19.6,19.6,0,0,0,3,.59,13.89,13.89,0,0,0,1.46.13c.37,0,.75,0,1.12,0s.75,0,1.12,0a14.14,14.14,0,0,0,1.46-.13,17.84,17.84,0,0,0,3.11-.61c.27-.07.54-.15.8-.24s.79-.27,1.16-.43h0c.37-.16.73-.32,1.08-.5l.09,0a9.35,9.35,0,0,0,1.34-.81l.6-.45c.2-.16.38-.32.55-.48A7.82,7.82,0,0,0,172,97l.22-.27A22,22,0,0,1,180.33,114ZM172,96.51c-2.09,2.84-6.82,4.67-12,4.67s-9.94-1.83-12-4.67l-.07-.1a5.14,5.14,0,0,1-1-3,3.59,3.59,0,0,1,0-.47,3,3,0,0,1,.07-.43h2.32l.23.19a6.42,6.42,0,0,0,.53.38,6.65,6.65,0,0,0,.63.39,12.92,12.92,0,0,0,1.39.71,20.89,20.89,0,0,0,15.89,0,12.92,12.92,0,0,0,1.39-.71,6.65,6.65,0,0,0,.63-.39,6.13,6.13,0,0,0,.58-.42,1.39,1.39,0,0,0,.19-.15h2.31a2,2,0,0,1,.07.43,3.59,3.59,0,0,1,0,.47A5.11,5.11,0,0,1,172,96.51Zm-22.34-4h20.62a12.24,12.24,0,0,1-2.47,1.44,20.63,20.63,0,0,1-15.69,0A12.16,12.16,0,0,1,149.7,92.48Zm170.06-.25H.25V86.81H319.76Z"/></g></g></svg>