<svg xmlns="http://www.w3.org/2000/svg" xmlns:xlink="http://www.w3.org/1999/xlink" viewBox="0 0 320.01 216.57"><defs><style>.cls-1{fill:#c6c6c6;}.cls-2,.cls-3,.cls-4,.cls-5,.cls-6,.cls-7,.cls-8{opacity:0.5;}.cls-2{fill:url(#linear-gradient);}.cls-3{fill:url(#linear-gradient-2);}.cls-4{fill:url(#linear-gradient-3);}.cls-5{fill:url(#linear-gradient-4);}.cls-6{fill:url(#linear-gradient-5);}.cls-7{fill:url(#linear-gradient-6);}.cls-8{fill:url(#linear-gradient-7);}.cls-9{fill:#fff;}.cls-10,.cls-9{opacity:0.25;}</style><linearGradient id="linear-gradient" x1="0.3" y1="43.41" x2="319.71" y2="43.41" gradientUnits="userSpaceOnUse"><stop offset="0" stop-color="gray" stop-opacity="0.5"/><stop offset="1" stop-color="#fff" stop-opacity="0.6"/></linearGradient><linearGradient id="linear-gradient-2" x1="0.25" y1="89.52" x2="319.76" y2="89.52" gradientUnits="userSpaceOnUse"><stop offset="0" stop-opacity="0.5"/><stop offset="1" stop-color="#bfbfbf" stop-opacity="0.6"/></linearGradient><linearGradient id="linear-gradient-3" x1="104.21" y1="195.33" x2="216.06" y2="195.33" xlink:href="#linear-gradient"/><linearGradient id="linear-gradient-4" x1="113.14" y1="181.35" x2="207.3" y2="181.35" xlink:href="#linear-gradient"/><linearGradient id="linear-gradient-5" x1="132.96" y1="140.86" x2="187.47" y2="140.86" xlink:href="#linear-gradient"/><linearGradient id="linear-gradient-6" x1="139.77" y1="106.92" x2="180.72" y2="106.92" xlink:href="#linear-gradient"/><linearGradient id="linear-gradient-7" x1="144.38" y1="100.39" x2="176.11" y2="100.39" xlink:href="#linear-gradient"/></defs><g id="Layer_2" data-name="Layer 2"><g id="square-cake-stand-4-iso"><path id="fill2" class="cls-1" d="M320,86.69v5.66a.13.13,0,0,1-.13.13H206.74c-9.83,0-19.92,0-30.26,0a51.58,51.58,0,0,0-.78,7.18c1.94.79,5.86,3.67,5.45,6.25-.11,2.39-2.07,4.44-5.68,5.93.14,9.38,1.16,31.94,7.69,42.92l0,0c2.77,1.19,7.63,3.52,9.57,6.05,1.44,1.88,5.3,7.53,8.78,12.94,1.44.7,7.84,3.93,10.37,7.53,4.68,6.26,5.82,12,3.36,17-5.86,12-31.7,17.76-54.79,18.19v.06h-.24C144,216,130.94,214,121.42,210.45c-11.18-4.13-17.1-10.2-17.6-18-1-7.71,9.63-16.23,14.29-18.08,3.49-5.42,7.74-11.49,9.25-13.47,2-2.55,6.82-4.62,9.6-5.64,6.77-10.66,7.83-33.77,8-43.41-3.55-1.49-5.49-3.53-5.59-5.9-.44-2.54,3.49-5.52,5.37-6.43a49.14,49.14,0,0,0-.74-7H.12A.12.12,0,0,1,0,92.35V86.67s0,0,0,0L28.12.09A.14.14,0,0,1,28.24,0h260.9a.14.14,0,0,1,.12.09L320,86.65v0S320,86.68,320,86.69Z"/><polygon id="void" class="cls-2" points="319.71 86.57 0.3 86.57 28.34 0.26 289.06 0.26 319.71 86.57"/><rect id="void-2" data-name="void" class="cls-3" x="0.25" y="86.82" width="319.51" height="5.41"/><path id="void-3" data-name="void" class="cls-4" d="M214.85,198.12c-5.79,11.84-31.6,17.54-54.61,17.94l-.18,0c-16.1-.55-29-2.59-38.47-6.08-11-4.06-16.83-10-17.31-17.66-.94-7.17,8.58-15.09,13.39-17.34l-1,1.66c-.15.26-.3.49-.45.73l0,0c-.23.37-.45.73-.65,1.08-.89,1.48-1.56,2.67-2,3.56a1.86,1.86,0,0,0-.1.2,7.46,7.46,0,0,0-.39,1,.93.93,0,0,0,0,.13h0a1,1,0,0,0,0,.22c-1.2,7.1,1.9,12.82,9.23,17,.5.29,1,.57,1.55.84.81.4,1.65.79,2.54,1.15s1.8.72,2.76,1.05l1,.32a67.2,67.2,0,0,0,7.65,1.93c.62.12,1.25.24,1.89.34A99.9,99.9,0,0,0,150,207.43c.69,0,1.38.08,2.08.12,1.87.08,3.79.13,5.75.13q3.38,0,6.89-.17,4-.19,7.73-.6c.81-.08,1.61-.17,2.4-.28q3.15-.39,6.08-.92l1.6-.3c1.44-.28,2.82-.59,4.14-.92l1.14-.29,1.13-.31,1.08-.31s0,0,0,0l1-.33h0c.68-.22,1.34-.45,2-.68h0c.48-.17.94-.35,1.39-.54h0c.6-.24,1.17-.49,1.71-.74.82-.38,1.56-.78,2.24-1.18a0,0,0,0,1,0,0c.33-.2.65-.4,1-.6s.79-.57,1.13-.86c3.9-2.54,5.81-5.31,6.65-7.85a11,11,0,0,0,.54-4.38,6.43,6.43,0,0,0-.08-.78c0-.24-.07-.48-.12-.7a1.43,1.43,0,0,0,0-.22c0-.14-.07-.28-.1-.41s-.14-.51-.21-.72a42.62,42.62,0,0,0-3.4-6.22,1.22,1.22,0,0,1-.12-.19h0a4.41,4.41,0,0,0-.25-.39.28.28,0,0,0-.07-.11c-.32-.52-.65-1-1-1.58l-.16-.27-.17-.27h0c2,1,7.35,3.95,9.52,7.05C216.11,187.71,217.22,193.27,214.85,198.12Z"/><path id="void-4" data-name="void" class="cls-5" d="M207.13,189.08a7.49,7.49,0,0,1-.22,1c0,.12-.06.23-.1.35a7,7,0,0,1-.24.68,9.71,9.71,0,0,1-.46,1.06l-.19.36a3.35,3.35,0,0,1-.21.36,7.59,7.59,0,0,1-.47.74l-.18.25a5.07,5.07,0,0,1-.35.46c-.21.27-.44.54-.68.81l-.26.27a19.21,19.21,0,0,1-3.5,2.84l0,0a22.58,22.58,0,0,1-6.17,3.4c-.35.14-.7.28-1.06.4h0c-.36.14-.73.27-1.11.4l-1.17.38-1.21.37-1.26.35-1.3.34-2,.48-.7.15-1.22.26-.91.18h0c-.48.1-1,.18-1.46.27l-1.5.26-1.52.23c-1,.16-2.06.3-3.12.43l-1.59.19h0l-1.61.17h0l-1.62.15h0q-1.63.13-3.3.24c-.56,0-1.11.07-1.67.09l-1.68.08-1.69.05c-1.12,0-2.25,0-3.38,0a109.69,109.69,0,0,1-19.58-1.63c-1.54-.28-3-.6-4.48-1-1.08-.27-2.14-.57-3.17-.88-.69-.22-1.36-.43-2-.67a39,39,0,0,1-6.32-2.83c-7.14-4.08-10.16-9.64-9-16.53.12-.72,1.1-2.87,5.08-9.05.13-.19.25-.39.38-.59,3.42-5.28,7.43-11,8.88-12.91,1.76-2.29,6-4.21,8.82-5.27-.18.26-.37.5-.55.74l-.24.3a14,14,0,0,1-1,1.12l-.23.22-.26.24-.53.43-.26.19q-.27.19-.54.36l0,0,0,0a2.44,2.44,0,0,0,0,2.53c1.74,3.32,9.75,7.2,23.24,7.88a27.61,27.61,0,0,0,3,.19,22.47,22.47,0,0,0,2.59,0h.06c14.23-.28,23.72-4.19,25.74-7.91a2.49,2.49,0,0,0,.05-2.59l0,0,0,0a9.35,9.35,0,0,1-1.55-1.18l-.44-.43-.33-.35-.45-.52,0-.06-.24-.29L184,156l-.35-.52c2.78,1.23,7,3.37,8.77,5.64,1.4,1.82,5.08,7.19,8.47,12.45l.33.51c.61,1,1.2,1.91,1.78,2.84l0,0s0,0,0,0h0a3.68,3.68,0,0,1,.25.4,1.07,1.07,0,0,0,.13.21,42.35,42.35,0,0,1,3.36,6.11A11.13,11.13,0,0,1,207.13,189.08Z"/><path id="void-5" data-name="void" class="cls-6" d="M187.14,162c-2,3.6-11.3,7.39-25.34,7.67h-.07a24.93,24.93,0,0,1-2.57,0,28,28,0,0,1-3-.2c-13.31-.67-21.18-4.42-22.85-7.63a2,2,0,0,1-.07-2,13.4,13.4,0,0,0,4.1-4.3l.22-.35.14-.22c6.5-10.89,7.57-33.34,7.72-43l.71.26,1,.31c.23.08.47.15.7.21l.59.16.38.1.78.18.88.18.23,0,.69.13.75.12h.06l.63.09c.76.11,1.53.2,2.3.27l.53.05.61,0c1.34.1,2.7.15,4.07.15.68,0,1.36,0,2,0,.28,0,.55,0,.83,0,.73,0,1.46-.08,2.17-.15L166,114l1.25-.14.56-.08.55-.08.73-.12.92-.17.7-.14,1.07-.25.84-.23c.38-.1.76-.21,1.12-.33l.49-.17c.23-.07.45-.16.67-.24l.08,0c.15,9.39,1.18,31.32,7.46,42.48l0,.08.06.1.25.42.07.11.18.3.19.29a16.49,16.49,0,0,0,1.1,1.52l.19.23a11.62,11.62,0,0,0,2.67,2.36A2.05,2.05,0,0,1,187.14,162Z"/><path id="void-6" data-name="void" class="cls-7" d="M180.7,105.86v0c-.11,2.7-2.83,4.45-5.22,5.47l-.3.12c-7.86,3.18-22.12,3.17-29.92,0-2.42-1-5.33-2.76-5.45-5.59-.38-2.22,3.15-4.94,4.94-5.88a.13.13,0,0,0,0,.06l0,.83c0,.31,0,.61,0,.92,0,.62.05,1.25.06,1.89a3,3,0,0,0,.17.51c1.7,2.45,5.48,3.86,11.57,4.32v-.23l0,.24.78.06h.07c1,.06,2,.1,2.73.12l.53,0h.46c5.32-.22,11.74-.91,14.22-4.5a.76.76,0,0,0,.06-.16V104c0-.5,0-1,.05-1.48,0-.2,0-.4,0-.6s0-.69.05-1l0-.7h0C177.52,101,181.06,103.62,180.7,105.86Z"/><path id="void-7" data-name="void" class="cls-8" d="M144.44,92.48a64.45,64.45,0,0,1,.72,6.79l0,.34c.07,1.28.12,2.64.16,4a2.74,2.74,0,0,0,.11.34c1.59,2.28,5.26,3.63,11.18,4.09l.05.23v-.23l.81.06h.06c1,.06,2,.1,2.7.12h.49l.49,0c5.2-.21,11.48-.88,13.84-4.28v0c0-1.38.1-2.76.17-4.1l0-.31a62.44,62.44,0,0,1,.78-7Z"/><path id="void-8" data-name="void" class="cls-9" d="M163.16,133.29c.8-.65,5.39,3.91,6.11,5.27s1.67,11,6.84,25.42c.45,1.25-12.22,2.59-13.27,1.65s0-30.75,0-30.75C162.89,133.63,162.84,133.54,163.16,133.29ZM163,182c-.57,1-.77,17.67.34,18.78s22.41,1.82,23-.41-4.53-8.81-6.47-17.84C179.26,179.67,164.42,179.62,163,182ZM180,211.33c7.53-1.5,14.84-4,15.57-4.56.48-.38-7.71,1.24-16,2.56-7.41,1.18-14.92,2-15.19,2.9C164,213.46,172.09,212.91,180,211.33Zm-8.32-38.77c5.59-.87,8.2-2.83,7.37-2.64-3.28,1-13.59,2.13-15,2.28s-1.8,1.08-.64,1.38C164.29,173.81,166.05,173.43,171.64,172.56Zm-5.23-60.31c2.85-.3,7.35-1.35,6.15-2s-12.72.22-12.3,1.42S163.56,112.55,166.41,112.25Z"/><path id="fill1" class="cls-10" d="M320,86.67s0,0,0,0L289.26.09a.13.13,0,0,0-.12-.09H28.24a.12.12,0,0,0-.11.09L0,86.65s0,0,0,0,0,0,0,0v5.66a.13.13,0,0,0,.12.13H144a52.35,52.35,0,0,1,.74,7c-1.88.91-5.82,3.89-5.38,6.43.11,2.37,2,4.41,5.6,5.9-.14,9.64-1.21,32.75-8,43.41-2.79,1-7.66,3.09-9.61,5.64-1.51,2-5.75,8-9.25,13.47-4.65,1.85-15.3,10.37-14.29,18.08.5,7.84,6.42,13.91,17.61,18,9.51,3.52,22.57,5.57,38.81,6.11h.23v-.06c23.1-.43,48.93-6.21,54.79-18.19,2.46-5,1.33-10.73-3.36-17-2.53-3.6-8.93-6.83-10.37-7.53-3.47-5.41-7.34-11.06-8.78-12.94-1.94-2.53-6.8-4.86-9.57-6.05l0,0c-6.52-11-7.55-33.54-7.68-42.92,3.6-1.49,5.56-3.54,5.67-5.93.41-2.58-3.51-5.46-5.44-6.25a52,52,0,0,1,.77-7.18c10.34,0,20.44,0,30.26,0H319.89a.13.13,0,0,0,.12-.13V86.69S320,86.68,320,86.67ZM28.34.25H289.06l30.65,86.32H.3ZM202,174.56c2,1,7.34,3.95,9.51,7.05,4.58,6.1,5.69,11.66,3.32,16.51-5.79,11.84-31.6,17.54-54.61,17.94l-.18,0c-16.1-.55-29-2.59-38.47-6.08-11-4.06-16.83-10-17.31-17.66-.94-7.17,8.58-15.09,13.39-17.34l-1,1.66c-.15.26-.3.49-.45.73l0,0c-.23.37-.45.73-.65,1.08-.89,1.48-1.56,2.67-2,3.56a1.86,1.86,0,0,0-.1.2,7.46,7.46,0,0,0-.39,1,.93.93,0,0,0,0,.13h0a1,1,0,0,0,0,.22c-1.2,7.1,1.9,12.82,9.23,17,.5.29,1,.57,1.55.84.81.4,1.65.79,2.54,1.15s1.8.72,2.76,1.05l1,.32a67.2,67.2,0,0,0,7.65,1.93c.62.12,1.25.24,1.89.34A99.9,99.9,0,0,0,150,207.43c.69,0,1.38.08,2.08.12,1.87.08,3.79.12,5.75.12q3.38,0,6.89-.16,4-.19,7.73-.6c.81-.08,1.61-.17,2.4-.28q3.15-.39,6.08-.92l1.6-.3c1.44-.28,2.82-.59,4.14-.92l1.14-.29,1.13-.31,1.08-.31s0,0,0,0l1-.33h0c.68-.22,1.34-.45,2-.68h0c.48-.17.94-.35,1.39-.54h0c.6-.24,1.17-.49,1.71-.74.82-.38,1.56-.78,2.24-1.18a0,0,0,0,1,0,0c.33-.2.65-.4,1-.6s.79-.57,1.13-.86c3.9-2.54,5.81-5.31,6.65-7.85a11,11,0,0,0,.54-4.38,6.43,6.43,0,0,0-.08-.78c0-.24-.07-.48-.12-.7a1.43,1.43,0,0,0,0-.22c0-.14-.07-.28-.1-.42s-.14-.5-.21-.71a42.62,42.62,0,0,0-3.4-6.22,1.22,1.22,0,0,1-.12-.19h0a4.41,4.41,0,0,0-.25-.39.28.28,0,0,0-.07-.11c-.32-.52-.65-1-1-1.58l-.16-.27-.17-.27Zm-9.64-13.42c1.4,1.82,5.08,7.19,8.47,12.45l.33.51c.61,1,1.2,1.91,1.78,2.84l0,0s0,0,0,0h0a3.68,3.68,0,0,1,.25.4,1.48,1.48,0,0,0,.13.21,42.35,42.35,0,0,1,3.36,6.11,11.13,11.13,0,0,1,.39,5.36,7.49,7.49,0,0,1-.22,1c0,.12-.06.23-.1.35a7,7,0,0,1-.24.68,9.71,9.71,0,0,1-.46,1.06l-.19.36a3.35,3.35,0,0,1-.21.36,7.59,7.59,0,0,1-.47.74l-.18.25a5.07,5.07,0,0,1-.35.46c-.21.27-.44.54-.68.81l-.26.27a19.21,19.21,0,0,1-3.5,2.84l0,0a22.58,22.58,0,0,1-6.17,3.4c-.35.14-.7.28-1.06.4h0c-.36.14-.73.27-1.11.4l-1.17.38-1.21.37-1.26.35-1.3.34-2,.48-.7.15-1.21.26-.92.18h0c-.48.1-1,.18-1.46.27l-1.5.26-1.52.23c-1,.16-2.06.3-3.12.43l-1.59.19h0l-1.61.17h0l-1.62.15h0q-1.63.13-3.3.24c-.56,0-1.11.07-1.67.09l-1.68.08-1.69.05c-1.12,0-2.25,0-3.38,0a109.69,109.69,0,0,1-19.58-1.63c-1.54-.28-3-.6-4.48-1-1.08-.27-2.14-.57-3.17-.88-.69-.22-1.36-.44-2-.67a39,39,0,0,1-6.32-2.83c-7.14-4.08-10.16-9.64-9-16.53.12-.72,1.1-2.87,5.08-9.05.13-.19.25-.39.38-.59,3.42-5.28,7.43-11,8.88-12.91,1.76-2.29,6-4.21,8.82-5.27-.18.26-.37.5-.55.74l-.24.3a14,14,0,0,1-1,1.12l-.23.22-.26.24-.53.43-.26.19q-.27.19-.54.36l0,0,0,0a2.44,2.44,0,0,0,0,2.53c1.74,3.32,9.75,7.2,23.24,7.88a27.61,27.61,0,0,0,3,.19,22.47,22.47,0,0,0,2.59,0h.06c14.23-.28,23.72-4.19,25.74-7.91a2.49,2.49,0,0,0,.05-2.59l0,0,0,0a9.35,9.35,0,0,1-1.55-1.18l-.44-.43-.33-.35-.45-.52,0-.06-.24-.29L184,156l-.35-.52C186.39,156.73,190.65,158.87,192.38,161.14Zm-9.9-6.63,0,.08.06.1.25.42.07.11.18.3.19.29a16.49,16.49,0,0,0,1.1,1.52,2.11,2.11,0,0,1,.19.23,11.62,11.62,0,0,0,2.67,2.36,2.05,2.05,0,0,1-.09,2.08c-2,3.6-11.3,7.39-25.34,7.67h-.07a24.93,24.93,0,0,1-2.57,0,28,28,0,0,1-3-.2c-13.31-.67-21.18-4.42-22.85-7.63a2,2,0,0,1-.07-2,13.4,13.4,0,0,0,4.1-4.3l.22-.35.14-.22c6.5-10.89,7.57-33.34,7.72-43l.71.26,1,.31c.23.08.47.15.7.21l.59.16.38.1.78.18.88.18.23,0,.69.13.75.12h.06l.63.09c.76.11,1.53.2,2.3.27l.53.05.61,0c1.34.1,2.7.15,4.07.15.68,0,1.36,0,2,0l.83,0c.73,0,1.46-.08,2.17-.15L166,114l1.25-.14.56-.08.55-.08.73-.12.92-.17.7-.14,1.07-.25.84-.23c.38-.1.76-.21,1.12-.33l.49-.17c.23-.07.45-.16.67-.24l.08,0C175.17,121.42,176.2,143.35,182.48,154.51Zm-1.78-48.65v0c-.11,2.7-2.83,4.45-5.22,5.47l-.3.12c-7.86,3.18-22.12,3.17-29.92,0-2.42-1-5.33-2.76-5.45-5.59-.38-2.22,3.15-4.94,4.94-5.88a.15.15,0,0,0,0,.06l0,.83c0,.31,0,.61,0,.92,0,.62.05,1.25.06,1.89a3,3,0,0,0,.17.51c1.7,2.45,5.48,3.86,11.57,4.32v-.23l0,.24.78.06h.07c1,.06,2,.1,2.73.12l.53,0h.46c5.32-.22,11.74-.91,14.22-4.5a.76.76,0,0,0,.06-.16V104c0-.5,0-1,.05-1.48,0-.2,0-.4,0-.6s0-.69.05-1l0-.7h0C177.52,101,181.06,103.62,180.7,105.86Zm-5.44-6.36,0,.31c-.07,1.34-.13,2.72-.17,4.1v0c-2.36,3.4-8.64,4.07-13.84,4.28l-.49,0h-.49c-.73,0-1.7-.06-2.7-.12h-.06l-.81-.06v.23l-.05-.23c-5.92-.46-9.59-1.81-11.18-4.09a2.74,2.74,0,0,1-.11-.34c0-1.38-.09-2.74-.16-4l0-.34a64.2,64.2,0,0,0-.72-6.78H176A62.49,62.49,0,0,0,175.26,99.5Zm144.5-7.27H.25V86.82H319.76Z"/></g></g></svg>